<?xml version="1.0" encoding="UTF-8" standalone="no"?>
<!-- Created with Inkscape (http://www.inkscape.org/) -->

<svg
   xmlns:dc="http://purl.org/dc/elements/1.1/"
   xmlns:cc="http://creativecommons.org/ns#"
   xmlns:rdf="http://www.w3.org/1999/02/22-rdf-syntax-ns#"
   xmlns:svg="http://www.w3.org/2000/svg"
   xmlns="http://www.w3.org/2000/svg"
   xmlns:xlink="http://www.w3.org/1999/xlink"
   xmlns:sodipodi="http://sodipodi.sourceforge.net/DTD/sodipodi-0.dtd"
   xmlns:inkscape="http://www.inkscape.org/namespaces/inkscape"
   width="210mm"
   height="297mm"
   viewBox="0 0 744.09448819 1052.3622047"
   id="svg2"
   version="1.1"
   inkscape:version="0.91 r13725"
   inkscape:export-xdpi="3.5999999"
   inkscape:export-ydpi="3.5999999"
   sodipodi:docname="affiliation-employee.svg"
   inkscape:export-filename="C:\Users\johannes\Documents\Arbeit\RRZE\github3\bicons\16x16\categories\affiliation-employee.png">
  <defs
     id="defs4">
    <linearGradient
       id="linearGradient2224">
      <stop
         id="stop2226"
         offset="0"
         style="stop-color:#7c7c7c;stop-opacity:1;" />
      <stop
         id="stop2228"
         offset="1"
         style="stop-color:#b8b8b8;stop-opacity:1;" />
    </linearGradient>
    <linearGradient
       id="linearGradient15218">
      <stop
         id="stop15220"
         offset="0"
         style="stop-color:#eeeeef;stop-opacity:1;" />
      <stop
         id="stop2736"
         offset="0.59928656"
         style="stop-color:#d3d7cf;stop-opacity:1;" />
      <stop
         id="stop2738"
         offset="0.82758623"
         style="stop-color:#ffffff;stop-opacity:1;" />
      <stop
         id="stop15222"
         offset="1"
         style="stop-color:#d3d7cf;stop-opacity:1;" />
    </linearGradient>
    <pattern
       y="0"
       x="0"
       height="6"
       width="6"
       patternUnits="userSpaceOnUse"
       id="EMFhbasepattern" />
    <pattern
       y="0"
       x="0"
       height="6"
       width="6"
       patternUnits="userSpaceOnUse"
       id="EMFhbasepattern-5" />
    <linearGradient
       inkscape:collect="always"
       xlink:href="#linearGradient4321"
       id="linearGradient4261"
       gradientUnits="userSpaceOnUse"
       gradientTransform="matrix(1.2870657,0,0,0.8167456,-112.19441,138.52365)"
       x1="280"
       y1="692.36218"
       x2="500"
       y2="472.36221" />
    <linearGradient
       id="linearGradient4321"
       inkscape:collect="always">
      <stop
         id="stop4323"
         offset="0"
         style="stop-color:#4e505d;stop-opacity:1;" />
      <stop
         id="stop4325"
         offset="1"
         style="stop-color:#7a8597;stop-opacity:1" />
    </linearGradient>
    <linearGradient
       inkscape:collect="always"
       xlink:href="#linearGradient4321"
       id="linearGradient4268"
       gradientUnits="userSpaceOnUse"
       gradientTransform="matrix(1.2870657,0,0,0.82519463,-112.19441,8.4144012)"
       x1="280"
       y1="692.36218"
       x2="500"
       y2="472.36221" />
  </defs>
  <sodipodi:namedview
     id="base"
     pagecolor="#ffffff"
     bordercolor="#666666"
     borderopacity="1.0"
     inkscape:pageopacity="0.0"
     inkscape:pageshadow="2"
     inkscape:zoom="0.70710678"
     inkscape:cx="300.24827"
     inkscape:cy="509.41405"
     inkscape:document-units="px"
     inkscape:current-layer="layer1"
     showgrid="false"
     showguides="true"
     inkscape:guide-bbox="true"
     inkscape:window-width="1366"
     inkscape:window-height="721"
     inkscape:window-x="-4"
     inkscape:window-y="-4"
     inkscape:window-maximized="1"
     inkscape:snap-bbox="true"
     inkscape:bbox-paths="false"
     inkscape:bbox-nodes="true">
    <sodipodi:guide
       position="315.53572,730.17859"
       orientation="0,1"
       id="guide3338" />
    <sodipodi:guide
       position="351.25,330.17858"
       orientation="0,1"
       id="guide3340" />
    <sodipodi:guide
       position="189.10714,408.8393"
       orientation="1,0"
       id="guide3344" />
    <sodipodi:guide
       position="589.04521,468.07945"
       orientation="1,0"
       id="guide3346" />
    <inkscape:grid
       type="xygrid"
       id="grid3440" />
    <sodipodi:guide
       position="0,0"
       orientation="0,1"
       id="guide3405" />
    <sodipodi:guide
       position="214.125,684.50002"
       orientation="1,0"
       id="guide3407" />
    <sodipodi:guide
       position="0,0"
       orientation="0,1"
       id="guide3409" />
    <sodipodi:guide
       position="589.04521,378.30213"
       orientation="1,0"
       id="guide3411" />
    <sodipodi:guide
       position="564.00001,683.37502"
       orientation="1,0"
       id="guide3413" />
  </sodipodi:namedview>
  <metadata
     id="metadata7">
    <rdf:RDF>
      <cc:Work
         rdf:about="">
        <dc:format>image/svg+xml</dc:format>
        <dc:type
           rdf:resource="http://purl.org/dc/dcmitype/StillImage" />
        <dc:title>affiliation employee</dc:title>
        <dc:date>June 2015</dc:date>
        <dc:creator>
          <cc:Agent>
            <dc:title>Johannes Hechler</dc:title>
          </cc:Agent>
        </dc:creator>
        <dc:rights>
          <cc:Agent>
            <dc:title>Johannes Hechler</dc:title>
          </cc:Agent>
        </dc:rights>
        <dc:publisher>
          <cc:Agent>
            <dc:title>RRZE</dc:title>
          </cc:Agent>
        </dc:publisher>
        <dc:contributor>
          <cc:Agent>
            <dc:title>Ute Weber, Hendrik Eggers</dc:title>
          </cc:Agent>
        </dc:contributor>
      </cc:Work>
    </rdf:RDF>
  </metadata>
  <g
     inkscape:label="Ebene 1"
     inkscape:groupmode="layer"
     id="layer1">
    <flowRoot
       transform="translate(-0.099655,-0.178559)"
       xml:space="preserve"
       id="flowRoot4169"
       style="font-style:normal;font-weight:normal;font-size:40px;line-height:125%;font-family:sans-serif;letter-spacing:0px;word-spacing:0px;fill:#252525;fill-opacity:1;stroke:none;stroke-width:1px;stroke-linecap:butt;stroke-linejoin:miter;stroke-opacity:1"><flowRegion
         id="flowRegion4171"><rect
           id="rect4173"
           width="56.433445"
           height="88.78862"
           x="89.541069"
           y="427.07962" /></flowRegion><flowPara
         id="flowPara4175" /></flowRoot>    <rect
       style="fill:none;fill-rule:evenodd;stroke:none;stroke-width:1px;stroke-linecap:butt;stroke-linejoin:miter;stroke-opacity:1"
       id="rect3336"
       width="400"
       height="400"
       x="189.04521"
       y="322.09149"
       inkscape:export-xdpi="4.9499998"
       inkscape:export-ydpi="4.9499998" />
    <g
       id="g4444"
       transform="matrix(0.92054258,-0.39064225,0.39064225,0.92054258,-129.01247,196.97331)" />
    <path
       style="opacity:1;fill:url(#linearGradient4261);fill-opacity:1;stroke:none;stroke-width:23;stroke-linecap:butt;stroke-linejoin:round;stroke-miterlimit:4;stroke-dasharray:none;stroke-opacity:1"
       d="M 219.9707 623.14844 C 216.82836 623.14844 214.29883 625.67797 214.29883 628.82031 L 214.29883 716.51172 C 214.29883 719.65407 216.82836 722.18359 219.9707 722.18359 L 364.04492 722.18359 L 364.04492 623.14844 L 219.9707 623.14844 z M 414.04492 623.14844 L 414.04492 697.18359 L 564.04492 697.18359 L 564.04492 627.62109 C 563.49729 625.0588 561.23241 623.14844 558.50195 623.14844 L 414.04492 623.14844 z "
       id="rect4171" />
    <path
       style="opacity:1;fill:url(#linearGradient4268);fill-opacity:1;stroke:none;stroke-width:23;stroke-linecap:butt;stroke-linejoin:round;stroke-miterlimit:4;stroke-dasharray:none;stroke-opacity:1"
       d="M 220.0293 498.05273 C 216.85444 498.05273 214.29883 500.60835 214.29883 503.7832 L 214.29883 592.38086 C 214.29883 595.55571 216.85444 598.11133 220.0293 598.11133 L 364.04492 598.11133 L 364.04492 597.18359 A 25.0025 25.0025 0 0 1 389.04492 572.18359 L 414.04492 572.18359 L 414.04492 547.18359 A 25.0025 25.0025 0 0 1 439.04492 522.18359 L 539.04492 522.18359 A 25.0025 25.0025 0 0 1 564.04492 547.18359 L 564.04492 572.18359 L 564.17383 572.18359 L 564.17383 503.7832 C 564.17383 500.60835 561.61821 498.05273 558.44336 498.05273 L 220.0293 498.05273 z "
       id="rect4588" />
    <path
       style="fill:#4e505d;fill-rule:evenodd;stroke:none;stroke-width:1px;stroke-linecap:butt;stroke-linejoin:miter;stroke-opacity:1"
       d="m 515.04858,472.68362 -250.59384,0 0,-150.49998 150.21884,0 0,0.25 0,99.72092 99.375,0.25 z"
       id="path4324"
       inkscape:connector-curvature="0"
       sodipodi:nodetypes="cccccccc" />
    <path
       style="fill:#4e505d;fill-rule:evenodd;stroke:none;stroke-width:1px;stroke-linecap:butt;stroke-linejoin:miter;stroke-opacity:1"
       d="m 439.92358,322.18363 0,74.17858 75.125,0 z"
       id="path4326"
       inkscape:connector-curvature="0" />
    <path
       style="color:#000000;clip-rule:nonzero;display:inline;overflow:visible;visibility:visible;opacity:1;isolation:auto;mix-blend-mode:normal;color-interpolation:sRGB;color-interpolation-filters:linearRGB;solid-color:#000000;solid-opacity:1;fill:#ffffff;fill-opacity:1;fill-rule:evenodd;stroke:none;stroke-width:50;stroke-linecap:butt;stroke-linejoin:miter;stroke-miterlimit:4;stroke-dasharray:none;stroke-dashoffset:0;stroke-opacity:1;color-rendering:auto;image-rendering:auto;shape-rendering:auto;text-rendering:auto;enable-background:accumulate"
       d="M 320.1543 522.51172 C 317.01195 522.51172 314.48242 525.04124 314.48242 528.18359 L 314.48242 553.66016 L 314.48242 566.91797 C 314.48242 570.06032 317.01195 572.58984 320.1543 572.58984 L 333.91211 572.58984 L 345.6582 572.58984 C 352.92781 559.94391 365.55442 550.66266 380.29688 547.98633 L 339.58398 547.98633 L 339.58398 528.18359 C 339.58398 525.04124 337.05446 522.51172 333.91211 522.51172 L 320.1543 522.51172 z M 439.92383 547.18359 L 439.92383 547.98633 L 439.04492 547.98633 L 439.04492 572.18359 A 25.0025 25.0025 0 0 1 439.03125 572.58984 L 459.77734 572.58984 C 462.91969 572.58984 465.44922 570.06032 465.44922 566.91797 L 465.44922 553.66016 L 465.44922 547.18359 L 439.92383 547.18359 z "
       id="rect4374" />
    <path
       style="color:#000000;clip-rule:nonzero;display:inline;overflow:visible;visibility:visible;opacity:1;isolation:auto;mix-blend-mode:normal;color-interpolation:sRGB;color-interpolation-filters:linearRGB;solid-color:#000000;solid-opacity:1;fill:#ffffff;fill-opacity:1;fill-rule:evenodd;stroke:none;stroke-width:50;stroke-linecap:butt;stroke-linejoin:miter;stroke-miterlimit:4;stroke-dasharray:none;stroke-dashoffset:0;stroke-opacity:1;color-rendering:auto;image-rendering:auto;shape-rendering:auto;text-rendering:auto;enable-background:accumulate"
       d="M 320.1543 648.02344 C 317.01195 648.02344 314.48242 650.55296 314.48242 653.69531 L 314.48242 679.16992 L 314.48242 692.42969 C 314.48242 695.57204 317.01195 698.10156 320.1543 698.10156 L 333.91211 698.10156 L 339.04492 698.10156 L 339.04492 651.28711 C 338.14163 649.35768 336.19081 648.02344 333.91211 648.02344 L 320.1543 648.02344 z M 445.5957 648.02344 C 442.45335 648.02344 439.92383 650.55296 439.92383 653.69531 L 439.92383 672.18359 L 465.44922 672.18359 L 465.44922 653.69531 C 465.44922 650.55296 462.91969 648.02344 459.77734 648.02344 L 445.5957 648.02344 z M 389.04492 697.18359 L 389.04492 698.10156 L 389.0918 698.10156 A 25.0025 25.0025 0 0 1 389.04492 697.18359 z "
       id="rect4387" />
    <path
       style="color:#000000;clip-rule:nonzero;display:inline;overflow:visible;visibility:visible;opacity:1;isolation:auto;mix-blend-mode:normal;color-interpolation:sRGB;color-interpolation-filters:linearRGB;solid-color:#000000;solid-opacity:1;fill:#99b000;fill-opacity:1;fill-rule:evenodd;stroke:none;stroke-width:50;stroke-linecap:butt;stroke-linejoin:round;stroke-miterlimit:4;stroke-dasharray:none;stroke-dashoffset:0;stroke-opacity:1;color-rendering:auto;image-rendering:auto;shape-rendering:auto;text-rendering:auto;enable-background:accumulate"
       d="m 439.04521,547.18359 0,25 0,25 -50,0 0,125.00004 200,0 0,-125.00004 -50,0 0,-50 -100,0 z m 25,25 50,0 0,25 -50,0 0,-25 z"
       id="rect4520"
       inkscape:connector-curvature="0" />
  </g>
</svg>
