<?xml version="1.0" encoding="UTF-8" standalone="no"?>
<!-- Created with Inkscape (http://www.inkscape.org/) -->

<svg
   xmlns:dc="http://purl.org/dc/elements/1.1/"
   xmlns:cc="http://creativecommons.org/ns#"
   xmlns:rdf="http://www.w3.org/1999/02/22-rdf-syntax-ns#"
   xmlns:svg="http://www.w3.org/2000/svg"
   xmlns="http://www.w3.org/2000/svg"
   xmlns:xlink="http://www.w3.org/1999/xlink"
   xmlns:sodipodi="http://sodipodi.sourceforge.net/DTD/sodipodi-0.dtd"
   xmlns:inkscape="http://www.inkscape.org/namespaces/inkscape"
   width="210mm"
   height="297mm"
   viewBox="0 0 744.09448819 1052.3622047"
   id="svg2"
   version="1.1"
   inkscape:version="0.91 r13725"
   inkscape:export-xdpi="4"
   inkscape:export-ydpi="4"
   sodipodi:docname="user-teacher.svg">
  <defs
     id="defs4">
    <linearGradient
       id="linearGradient2224">
      <stop
         id="stop2226"
         offset="0"
         style="stop-color:#7c7c7c;stop-opacity:1;" />
      <stop
         id="stop2228"
         offset="1"
         style="stop-color:#b8b8b8;stop-opacity:1;" />
    </linearGradient>
    <linearGradient
       id="linearGradient15218">
      <stop
         id="stop15220"
         offset="0"
         style="stop-color:#eeeeef;stop-opacity:1;" />
      <stop
         id="stop2736"
         offset="0.59928656"
         style="stop-color:#d3d7cf;stop-opacity:1;" />
      <stop
         id="stop2738"
         offset="0.82758623"
         style="stop-color:#ffffff;stop-opacity:1;" />
      <stop
         id="stop15222"
         offset="1"
         style="stop-color:#d3d7cf;stop-opacity:1;" />
    </linearGradient>
    <pattern
       y="0"
       x="0"
       height="6"
       width="6"
       patternUnits="userSpaceOnUse"
       id="EMFhbasepattern" />
    <pattern
       y="0"
       x="0"
       height="6"
       width="6"
       patternUnits="userSpaceOnUse"
       id="EMFhbasepattern-5" />
    <linearGradient
       inkscape:collect="always"
       xlink:href="#linearGradient4254"
       id="linearGradient4268"
       x1="358.43118"
       y1="465.73074"
       x2="429.96555"
       y2="644.62878"
       gradientUnits="userSpaceOnUse" />
    <linearGradient
       inkscape:collect="always"
       id="linearGradient4254">
      <stop
         style="stop-color:#7a8597;stop-opacity:1"
         offset="0"
         id="stop4256" />
      <stop
         style="stop-color:#4e505d;stop-opacity:1"
         offset="1"
         id="stop4258" />
    </linearGradient>
    <linearGradient
       inkscape:collect="always"
       xlink:href="#linearGradient4254"
       id="linearGradient4260"
       x1="380.01031"
       y1="330.40619"
       x2="414.6156"
       y2="457.18103"
       gradientUnits="userSpaceOnUse"
       gradientTransform="translate(0.37005758,-0.39466108)" />
  </defs>
  <sodipodi:namedview
     id="base"
     pagecolor="#ffffff"
     bordercolor="#666666"
     borderopacity="1.0"
     inkscape:pageopacity="0.0"
     inkscape:pageshadow="2"
     inkscape:zoom="0.5"
     inkscape:cx="-83.04044"
     inkscape:cy="729.97451"
     inkscape:document-units="px"
     inkscape:current-layer="layer1"
     showgrid="false"
     showguides="true"
     inkscape:guide-bbox="true"
     inkscape:window-width="1366"
     inkscape:window-height="721"
     inkscape:window-x="-4"
     inkscape:window-y="-4"
     inkscape:window-maximized="1">
    <sodipodi:guide
       position="315.53572,730.17859"
       orientation="0,1"
       id="guide3338" />
    <sodipodi:guide
       position="351.25,330.17858"
       orientation="0,1"
       id="guide3340" />
    <sodipodi:guide
       position="189.10714,408.8393"
       orientation="1,0"
       id="guide3344" />
    <sodipodi:guide
       position="589.04521,468.07945"
       orientation="1,0"
       id="guide3346" />
    <inkscape:grid
       type="xygrid"
       id="grid3440" />
    <sodipodi:guide
       position="0,0"
       orientation="0,1"
       id="guide3405" />
    <sodipodi:guide
       position="214.125,684.50002"
       orientation="1,0"
       id="guide3407" />
    <sodipodi:guide
       position="0,0"
       orientation="0,1"
       id="guide3409" />
    <sodipodi:guide
       position="589.04521,378.30213"
       orientation="1,0"
       id="guide3411" />
    <sodipodi:guide
       position="564.00001,683.37502"
       orientation="1,0"
       id="guide3413" />
    <sodipodi:guide
       position="0,0"
       orientation="0,1"
       id="guide4168" />
  </sodipodi:namedview>
  <metadata
     id="metadata7">
    <rdf:RDF>
      <cc:Work
         rdf:about="">
        <dc:format>image/svg+xml</dc:format>
        <dc:type
           rdf:resource="http://purl.org/dc/dcmitype/StillImage" />
        <dc:title>user teacher</dc:title>
        <dc:date>June 2015</dc:date>
        <dc:creator>
          <cc:Agent>
            <dc:title>Johannes Hechler</dc:title>
          </cc:Agent>
        </dc:creator>
        <dc:rights>
          <cc:Agent>
            <dc:title>Johannes Hechler</dc:title>
          </cc:Agent>
        </dc:rights>
        <dc:publisher>
          <cc:Agent>
            <dc:title>RRZE</dc:title>
          </cc:Agent>
        </dc:publisher>
        <dc:contributor>
          <cc:Agent>
            <dc:title>Ute Weber, Hendrik Eggers</dc:title>
          </cc:Agent>
        </dc:contributor>
      </cc:Work>
    </rdf:RDF>
  </metadata>
  <g
     inkscape:label="Ebene 1"
     inkscape:groupmode="layer"
     id="layer1">
    <g
       id="g4289"
       transform="matrix(1.1386133,0,0,1.1386133,-55.797081,-53.535011)">
      <path
         sodipodi:nodetypes="cccsccccccscsc"
         inkscape:connector-curvature="0"
         id="path2176"
         d="m 354.64258,460.41602 c -0.11745,0.1039 -0.22449,0.21556 -0.3457,0.3164 l -6.54297,3.54492 c -42.67576,25.28071 -72.76172,86.25893 -72.76172,157.46875 0,15.29493 1.39507,30.1142 3.99804,44.21289 3.86098,8.63739 13.56182,14.96807 25.18555,15.79493 l 0,0.0957 172.76172,0 0,-0.008 c 13.04649,-0.18416 24.03463,-7.28341 27.72656,-17.01563 2.4704,-13.75919 3.79102,-28.19351 3.79102,-43.08008 0,-74.54936 -32.9771,-137.88441 -78.85156,-160.78515 -10.95259,6.14942 -23.5778,9.67773 -37.00391,9.67773 -13.81748,10e-6 -26.78697,-3.73654 -37.95703,-10.22265 z"
         style="fill:url(#linearGradient4268);fill-opacity:1;stroke:none;stroke-width:41.15159225;stroke-linecap:round;stroke-linejoin:round;stroke-opacity:1" />
      <ellipse
         ry="65.293182"
         rx="65.647316"
         cx="392.98022"
         cy="395.83826"
         id="circle2187-6"
         style="fill:url(#linearGradient4260);fill-opacity:1;stroke:none;stroke-width:14;stroke-miterlimit:4;stroke-dasharray:none;stroke-opacity:1" />
    </g>
    <path
       inkscape:connector-curvature="0"
       style="opacity:1;fill:#99b000;fill-opacity:1;stroke:#ffffff;stroke-width:50;stroke-linecap:square;stroke-linejoin:round;stroke-miterlimit:4;stroke-dasharray:none;stroke-opacity:1"
       d="m 355.73579,358.9972 a 26.950616,26.950616 0 0 0 -20.78378,9.81405 c -3.45468,0.0239 -6.35026,0.0491 -9.34148,0.0491 -3.60096,0 -3.86781,-0.042 -3.76653,-0.0655 -4.48281,0.19237 -4.52174,9.2462 -0.12634,9.64327 0.25483,-0.0161 1.15528,-0.0327 4.26718,-0.0327 1.70399,0 2.1185,0.012 3.89287,0.0187 a 26.950616,26.950616 0 0 0 -1.09253,7.52372 26.950616,26.950616 0 0 0 26.95061,26.95062 26.950616,26.950616 0 0 0 26.95062,-26.95062 26.950616,26.950616 0 0 0 -1.05978,-7.44183 c 3.29522,-0.49972 7.46016,-1.01064 10.81065,-1.01064 3.02198,0 6.37119,0.42125 9.11456,0.87027 a 26.950616,26.950616 0 0 0 -1.20014,7.94481 26.950616,26.950616 0 0 0 26.95062,26.95062 26.950616,26.950616 0 0 0 26.95061,-26.95062 26.950616,26.950616 0 0 0 -0.93111,-6.98796 c 1.91474,-0.008 2.377,-0.0187 4.22742,-0.0187 3.11353,0 4.01305,0.0166 4.26718,0.0327 4.3963,-0.39715 4.35686,-9.45683 -0.12868,-9.64561 0.10248,0.0234 -0.15855,0.0677 -3.7642,0.0677 -3.01071,0 -5.94626,-0.0274 -9.4023,-0.0515 a 26.950616,26.950616 0 0 0 -21.21892,-10.34744 26.950616,26.950616 0 0 0 -21.09495,10.22112 c -2.00405,-0.3844 -9.5399,-1.78033 -13.77009,-1.78033 -4.26276,0 -13.07195,1.41689 -15.30943,1.78735 a 26.950616,26.950616 0 0 0 -21.39206,-10.59064 z m 106.08063,20.3393 c -0.081,0.007 -0.15228,0.0338 -0.2363,0.0351 0,0 0.51216,-0.0176 0.2363,-0.0351 z m -140.09876,-0.89835 c -0.27691,0.0175 0.23629,0.0351 0.23629,0.0351 -0.0839,-0.001 -0.15529,-0.0278 -0.23629,-0.0351 z m 0.12634,-9.64327 c 0.0385,-10e-4 0.0708,-0.0161 0.10999,-0.0164 0,0 -0.0742,0.008 -0.10999,0.0164 z"
       id="path4244-0" />
    <path
       inkscape:connector-curvature="0"
       style="opacity:1;fill:#99b000;fill-opacity:1;stroke:none;stroke-width:7.44399977;stroke-linecap:square;stroke-linejoin:round;stroke-miterlimit:4;stroke-dasharray:none;stroke-opacity:1"
       d="m 355.62135,359.11165 a 26.950616,26.950616 0 0 0 -20.78378,9.81405 c -3.45468,0.0239 -6.35027,0.0491 -9.34148,0.0491 -3.60096,0 -3.86781,-0.042 -3.76653,-0.0655 -4.48282,0.19237 -4.52175,9.2462 -0.12635,9.64327 0.25484,-0.0161 1.15529,-0.0327 4.26719,-0.0327 1.70399,0 2.1185,0.012 3.89287,0.0187 a 26.950616,26.950616 0 0 0 -1.09253,7.52372 26.950616,26.950616 0 0 0 26.95061,26.95063 26.950616,26.950616 0 0 0 26.95062,-26.95063 26.950616,26.950616 0 0 0 -1.05979,-7.44183 c 3.29523,-0.49972 7.46016,-1.01064 10.81066,-1.01064 3.02198,0 6.37119,0.42125 9.11455,0.87027 a 26.950616,26.950616 0 0 0 -1.20013,7.94482 26.950616,26.950616 0 0 0 26.95061,26.95061 26.950616,26.950616 0 0 0 26.95062,-26.95061 26.950616,26.950616 0 0 0 -0.93112,-6.98797 c 1.91475,-0.008 2.37701,-0.0187 4.22742,-0.0187 3.11354,0 4.01306,0.0166 4.26719,0.0327 4.3963,-0.39714 4.35685,-9.45683 -0.12868,-9.64561 0.10248,0.0235 -0.15855,0.0678 -3.7642,0.0678 -3.01071,0 -5.94626,-0.0274 -9.4023,-0.0515 a 26.950616,26.950616 0 0 0 -21.21893,-10.34744 26.950616,26.950616 0 0 0 -21.09494,10.22112 c -2.00405,-0.3844 -9.5399,-1.78033 -13.77009,-1.78033 -4.26276,0 -13.07195,1.41689 -15.30943,1.78735 a 26.950616,26.950616 0 0 0 -21.39206,-10.59064 z m 106.08063,20.3393 c -0.081,0.007 -0.15228,0.0338 -0.2363,0.0351 0,0 0.51216,-0.0176 0.2363,-0.0351 z m -140.09877,-0.89836 c -0.27691,0.0175 0.2363,0.0351 0.2363,0.0351 -0.0839,-0.001 -0.15529,-0.0278 -0.2363,-0.0351 z m 0.12635,-9.64327 c 0.0385,-10e-4 0.0708,-0.0161 0.10999,-0.0164 0,0 -0.0742,0.008 -0.10999,0.0164 z"
       id="path4244" />
    <circle
       style="opacity:1;fill:#ffffff;fill-opacity:1;stroke:none;stroke-width:7.44399977;stroke-linecap:square;stroke-linejoin:round;stroke-miterlimit:4;stroke-dasharray:none;stroke-opacity:1"
       id="path4244-3"
       cx="354.44861"
       cy="385.66327"
       r="12.524746" />
    <path
       inkscape:connector-curvature="0"
       style="opacity:1;fill:#ffffff;fill-opacity:1;stroke:none;stroke-width:7.44399977;stroke-linecap:square;stroke-linejoin:round;stroke-miterlimit:4;stroke-dasharray:none;stroke-opacity:1"
       d="m 440.31325,385.99218 a 12.557049,12.557049 0 0 1 -12.55706,12.55703 12.557049,12.557049 0 0 1 -12.55704,-12.55703 12.557049,12.557049 0 0 1 12.55704,-12.55705 12.557049,12.557049 0 0 1 12.55706,12.55705 z"
       id="path4244-3-6" />
    <flowRoot
       transform="translate(-0.1231714,-0.03381142)"
       xml:space="preserve"
       id="flowRoot4169"
       style="font-style:normal;font-weight:normal;font-size:40px;line-height:125%;font-family:sans-serif;letter-spacing:0px;word-spacing:0px;fill:#000000;fill-opacity:1;stroke:none;stroke-width:1px;stroke-linecap:butt;stroke-linejoin:miter;stroke-opacity:1"><flowRegion
         id="flowRegion4171"><rect
           id="rect4173"
           width="56.433445"
           height="88.78862"
           x="89.541069"
           y="427.07962" /></flowRegion><flowPara
         id="flowPara4175" /></flowRoot>    <rect
       style="fill:none;fill-rule:evenodd;stroke:none;stroke-width:1px;stroke-linecap:butt;stroke-linejoin:miter;stroke-opacity:1"
       id="rect3336"
       width="400"
       height="400"
       x="189.02165"
       y="322.23621"
       inkscape:export-xdpi="4.9499998"
       inkscape:export-ydpi="4.9499998" />
    <g
       id="g4206"
       transform="matrix(1.0165268,0,0,1.0165268,-6.2155714,-32.073431)">
      <rect
         style="opacity:1;fill:#99b000;fill-opacity:1;stroke:#ffffff;stroke-width:49.18709564;stroke-linecap:square;stroke-linejoin:miter;stroke-miterlimit:4;stroke-dasharray:none;stroke-opacity:1"
         id="rect4348"
         width="181.63129"
         height="148.98138"
         x="389.09"
         y="-694.90912"
         ry="18.622641"
         transform="scale(1,-1)" />
      <rect
         transform="scale(1,-1)"
         ry="18.526573"
         y="-694.90912"
         x="389.09"
         height="148.21284"
         width="172.40871"
         id="rect4272-0"
         style="opacity:1;fill:#99b000;fill-opacity:1;stroke:none;stroke-width:8;stroke-linecap:square;stroke-linejoin:miter;stroke-miterlimit:4;stroke-dasharray:none;stroke-opacity:1" />
      <text
         sodipodi:linespacing="82.999998%"
         id="text4289"
         y="614.49432"
         x="402.63022"
         style="font-style:normal;font-weight:normal;font-size:72.45343781px;line-height:82.99999833%;font-family:sans-serif;letter-spacing:0px;word-spacing:0px;fill:#252525;fill-opacity:1;stroke:none;stroke-width:1px;stroke-linecap:butt;stroke-linejoin:miter;stroke-opacity:1"
         xml:space="preserve"><tspan
           style="font-style:normal;font-variant:normal;font-weight:bold;font-stretch:normal;line-height:82.99999833%;font-family:'Segoe Script';-inkscape-font-specification:'Segoe Script Bold';fill:#252525"
           id="tspan4293"
           y="614.49432"
           x="402.63022"
           sodipodi:role="line">1+1</tspan><tspan
           style="font-style:normal;font-variant:normal;font-weight:bold;font-stretch:normal;line-height:82.99999833%;font-family:'Segoe Script';-inkscape-font-specification:'Segoe Script Bold';fill:#252525"
           id="tspan4297"
           y="674.63068"
           x="402.63022"
           sodipodi:role="line"> =2</tspan></text>
    </g>
  </g>
</svg>
