<?xml version="1.0" encoding="UTF-8" standalone="no"?>
<!-- Created with Inkscape (http://www.inkscape.org/) -->

<svg
   xmlns:dc="http://purl.org/dc/elements/1.1/"
   xmlns:cc="http://creativecommons.org/ns#"
   xmlns:rdf="http://www.w3.org/1999/02/22-rdf-syntax-ns#"
   xmlns:svg="http://www.w3.org/2000/svg"
   xmlns="http://www.w3.org/2000/svg"
   xmlns:xlink="http://www.w3.org/1999/xlink"
   xmlns:sodipodi="http://sodipodi.sourceforge.net/DTD/sodipodi-0.dtd"
   xmlns:inkscape="http://www.inkscape.org/namespaces/inkscape"
   width="210mm"
   height="297mm"
   viewBox="0 0 744.09448819 1052.3622047"
   id="svg2"
   version="1.1"
   inkscape:version="0.91 r13725"
   inkscape:export-xdpi="3.6000004"
   inkscape:export-ydpi="3.6000004"
   sodipodi:docname="user-student-cooperation.svg"
   inkscape:export-filename="C:\Users\johannes\Documents\Arbeit\RRZE\github3\bicons\16x16\categories\user-student-cooperation.png">
  <defs
     id="defs4">
    <linearGradient
       id="linearGradient2224">
      <stop
         style="stop-color:#7c7c7c;stop-opacity:1;"
         offset="0"
         id="stop4251" />
      <stop
         style="stop-color:#b8b8b8;stop-opacity:1;"
         offset="1"
         id="stop4253" />
    </linearGradient>
    <linearGradient
       id="linearGradient4255">
      <stop
         id="stop2226"
         offset="0"
         style="stop-color:#7c7c7c;stop-opacity:1;" />
      <stop
         id="stop2228"
         offset="1"
         style="stop-color:#b8b8b8;stop-opacity:1;" />
    </linearGradient>
    <linearGradient
       id="linearGradient15218">
      <stop
         id="stop15220"
         offset="0"
         style="stop-color:#eeeeef;stop-opacity:1;" />
      <stop
         id="stop2736"
         offset="0.59928656"
         style="stop-color:#d3d7cf;stop-opacity:1;" />
      <stop
         id="stop2738"
         offset="0.82758623"
         style="stop-color:#ffffff;stop-opacity:1;" />
      <stop
         id="stop15222"
         offset="1"
         style="stop-color:#d3d7cf;stop-opacity:1;" />
    </linearGradient>
    <pattern
       y="0"
       x="0"
       height="6"
       width="6"
       patternUnits="userSpaceOnUse"
       id="EMFhbasepattern" />
    <pattern
       y="0"
       x="0"
       height="6"
       width="6"
       patternUnits="userSpaceOnUse"
       id="EMFhbasepattern-5" />
    <linearGradient
       inkscape:collect="always"
       xlink:href="#linearGradient4254"
       id="linearGradient4268"
       x1="358.43118"
       y1="465.73074"
       x2="429.96555"
       y2="644.62878"
       gradientUnits="userSpaceOnUse"
       gradientTransform="matrix(1.1386133,0,0,1.1369311,-69.0614,-17.011242)" />
    <linearGradient
       inkscape:collect="always"
       id="linearGradient4254">
      <stop
         style="stop-color:#7a8597;stop-opacity:1"
         offset="0"
         id="stop4256" />
      <stop
         style="stop-color:#4e505d;stop-opacity:1"
         offset="1"
         id="stop4258" />
    </linearGradient>
    <linearGradient
       inkscape:collect="always"
       xlink:href="#linearGradient4254"
       id="linearGradient4260"
       x1="380.01031"
       y1="330.40619"
       x2="414.6156"
       y2="457.18103"
       gradientUnits="userSpaceOnUse"
       gradientTransform="matrix(1.1539288,0,0,1.152224,-75.6585,-22.520972)" />
  </defs>
  <sodipodi:namedview
     id="base"
     pagecolor="#ffffff"
     bordercolor="#666666"
     borderopacity="1.0"
     inkscape:pageopacity="0.0"
     inkscape:pageshadow="2"
     inkscape:zoom="0.5"
     inkscape:cx="220.05508"
     inkscape:cy="447.56894"
     inkscape:document-units="px"
     inkscape:current-layer="layer1"
     showgrid="false"
     showguides="true"
     inkscape:guide-bbox="true"
     inkscape:window-width="1600"
     inkscape:window-height="837"
     inkscape:window-x="-4"
     inkscape:window-y="-4"
     inkscape:window-maximized="1"
     inkscape:snap-bbox="true"
     inkscape:bbox-paths="true"
     inkscape:bbox-nodes="true">
    <sodipodi:guide
       position="315.53572,730.17859"
       orientation="0,1"
       id="guide3338" />
    <sodipodi:guide
       position="189.10714,408.8393"
       orientation="1,0"
       id="guide3344" />
    <sodipodi:guide
       position="589.04521,468.07945"
       orientation="1,0"
       id="guide3346" />
    <inkscape:grid
       type="xygrid"
       id="grid3440" />
    <sodipodi:guide
       position="0,0"
       orientation="0,1"
       id="guide3405" />
    <sodipodi:guide
       position="0,0"
       orientation="0,1"
       id="guide3409" />
    <sodipodi:guide
       position="589.04521,378.30213"
       orientation="1,0"
       id="guide3411" />
    <sodipodi:guide
       position="0,0"
       orientation="0,1"
       id="guide4168" />
    <sodipodi:guide
       position="405,330.50001"
       orientation="0,1"
       id="guide4203" />
  </sodipodi:namedview>
  <metadata
     id="metadata7">
    <rdf:RDF>
      <cc:Work
         rdf:about="">
        <dc:format>image/svg+xml</dc:format>
        <dc:type
           rdf:resource="http://purl.org/dc/dcmitype/StillImage" />
        <dc:title>user student cooperation</dc:title>
        <dc:creator>
          <cc:Agent>
            <dc:title>Johannes Hechler</dc:title>
          </cc:Agent>
        </dc:creator>
        <dc:date>June 2015</dc:date>
        <dc:rights>
          <cc:Agent>
            <dc:title>Johannes Hechler</dc:title>
          </cc:Agent>
        </dc:rights>
        <dc:publisher>
          <cc:Agent>
            <dc:title>RRZE</dc:title>
          </cc:Agent>
        </dc:publisher>
        <dc:contributor>
          <cc:Agent>
            <dc:title>Ute Weber, Hendrik Eggers</dc:title>
          </cc:Agent>
        </dc:contributor>
      </cc:Work>
    </rdf:RDF>
  </metadata>
  <g
     inkscape:label="Ebene 1"
     inkscape:groupmode="layer"
     id="layer1">
    <g
       id="g4245"
       transform="translate(13.045205,-36.02112)">
      <flowRoot
         style="font-style:normal;font-weight:normal;font-size:40px;line-height:125%;font-family:sans-serif;letter-spacing:0px;word-spacing:0px;fill:#252525;fill-opacity:1;stroke:none;stroke-width:1px;stroke-linecap:butt;stroke-linejoin:miter;stroke-opacity:1"
         id="flowRoot4169"
         xml:space="preserve"
         transform="matrix(1,0,0,0.99852263,-13.14485,36.410918)"><flowRegion
           id="flowRegion4171"><rect
             y="427.07962"
             x="89.541069"
             height="88.78862"
             width="56.433445"
             id="rect4173" /></flowRegion><flowPara
           id="flowPara4175" /></flowRoot>      <rect
         inkscape:export-ydpi="4.9499998"
         inkscape:export-xdpi="4.9499998"
         y="358.20486"
         x="176"
         height="399.40906"
         width="400"
         id="rect3336"
         style="fill:none;fill-rule:evenodd;stroke:none;stroke-width:1px;stroke-linecap:butt;stroke-linejoin:miter;stroke-opacity:1" />
      <path
         sodipodi:nodetypes="cscccscc"
         inkscape:connector-curvature="0"
         id="path2176"
         d="m 428.08984,523.04632 c -12.47076,6.99147 -34.84567,7.00782 -50.13281,7.00782 -4.79079,0 -10.23657,-0.0265 -15.84961,-0.26758 17.63134,11.10727 32.78755,26.24853 43.75781,44.6875 1.30446,2.10946 2.5347,4.25558 3.71485,6.42383 4.52257,-9.90496 10.95511,-18.75288 19.26562,-25.7793 6.28953,-5.31771 13.28755,-9.51273 20.85742,-12.72461 -6.54392,-6.5215 -13.72618,-12.97733 -21.61328,-19.34766 z"
         style="fill:url(#linearGradient4268);fill-opacity:1;stroke:none;stroke-width:41.15159225;stroke-linecap:round;stroke-linejoin:round;stroke-opacity:1" />
      <path
         id="circle2187-6"
         d="m 404.95872,388.74386 c -13.41308,0.17715 -28.91802,0.84582 -43.74024,1.96289 -5.45844,0.41137 -10.8567,0.96594 -16.22656,1.50976 a 25.0025,25.0025 0 0 1 -4.94922,7.92969 c -2.35924,2.5398 -4.31753,5.3561 -6.08398,8.2793 l 86.85937,0 c -1.76574,-2.93077 -3.72408,-5.75322 -6.08203,-8.29688 a 25.0025,25.0025 0 0 1 -5.99414,-11.36328 c -1.34541,0.008 -2.38952,-0.0399 -3.7832,-0.0215 z m 44.39453,68.61328 c -2.77189,0.69627 -5.6572,1.06836 -8.61133,1.06836 l -127.81055,0 c -2.51866,0 -4.98156,-0.28223 -7.37109,-0.78711 a 75.752335,75.232376 0 0 0 71.82617,51.62304 75.752335,75.232376 0 0 0 71.9668,-51.90429 z"
         style="fill:url(#linearGradient4260);fill-opacity:1;stroke:none;stroke-width:14;stroke-miterlimit:4;stroke-dasharray:none;stroke-opacity:1"
         inkscape:connector-curvature="0" />
      <path
         id="rect4228"
         d="m 262.72628,358.20479 c -6.36538,0 -11.49023,5.12485 -11.49023,11.49024 l 0,1.94922 c 0,6.36538 5.12485,11.48828 11.49023,11.48828 l 59.00001,0 c -10.94801,11.78588 -17.81785,26.73748 -19.60742,42.67383 1.58394,4.44658 5.80892,7.61914 10.8125,7.61914 l 127.81055,0 c 6.14901,0 11.1249,-4.78641 11.45703,-10.84961 l 0,-0.002 c -2.29853,-14.73966 -8.95679,-28.46815 -19.12891,-39.4414 l 57.26954,0 c 6.36538,0 11.49023,-5.1229 11.49023,-11.48828 l 0,-1.94922 c 0,-6.36539 -5.12485,-11.49024 -11.49023,-11.49024 l -227.6133,0 z m 38.76759,64.80274 c 0.0195,0.212 0.0552,0.41851 0.0859,0.62695 -0.0316,-0.20775 -0.0658,-0.41555 -0.0859,-0.62695 z m 0.14063,0.99414 c 0.0481,0.26638 0.10977,0.52756 0.17578,0.78711 -0.067,-0.25916 -0.12651,-0.52124 -0.17578,-0.78711 z m 0.21484,0.94141 c 0.0765,0.28415 0.16453,0.56302 0.26172,0.83789 -0.0973,-0.27496 -0.18428,-0.55414 -0.26172,-0.83789 z"
         style="color:#000000;clip-rule:nonzero;display:inline;overflow:visible;visibility:visible;opacity:1;isolation:auto;mix-blend-mode:normal;color-interpolation:sRGB;color-interpolation-filters:linearRGB;solid-color:#000000;solid-opacity:1;fill:#2f3037;fill-opacity:1;fill-rule:evenodd;stroke:none;stroke-width:35;stroke-linecap:butt;stroke-linejoin:round;stroke-miterlimit:4;stroke-dasharray:none;stroke-dashoffset:0;stroke-opacity:1;color-rendering:auto;image-rendering:auto;shape-rendering:auto;text-rendering:auto;enable-background:accumulate"
         inkscape:connector-curvature="0" />
      <rect
         ry="11.4899"
         y="358.20486"
         x="476.82977"
         height="100.49998"
         width="25"
         id="rect4256"
         style="color:#000000;clip-rule:nonzero;display:inline;overflow:visible;visibility:visible;opacity:1;isolation:auto;mix-blend-mode:normal;color-interpolation:sRGB;color-interpolation-filters:linearRGB;solid-color:#000000;solid-opacity:1;fill:#2f3037;fill-opacity:1;fill-rule:evenodd;stroke:none;stroke-width:50;stroke-linecap:butt;stroke-linejoin:round;stroke-miterlimit:4;stroke-dasharray:none;stroke-dashoffset:0;stroke-opacity:1;color-rendering:auto;image-rendering:auto;shape-rendering:auto;text-rendering:auto;enable-background:accumulate" />
      <rect
         ry="11.4899"
         y="408.13345"
         x="476.82977"
         height="50.571419"
         width="49.293919"
         id="rect4258"
         style="color:#000000;clip-rule:nonzero;display:inline;overflow:visible;visibility:visible;opacity:1;isolation:auto;mix-blend-mode:normal;color-interpolation:sRGB;color-interpolation-filters:linearRGB;solid-color:#000000;solid-opacity:1;fill:#2f3037;fill-opacity:1;fill-rule:evenodd;stroke:none;stroke-width:50;stroke-linecap:butt;stroke-linejoin:round;stroke-miterlimit:4;stroke-dasharray:none;stroke-dashoffset:0;stroke-opacity:1;color-rendering:auto;image-rendering:auto;shape-rendering:auto;text-rendering:auto;enable-background:accumulate" />
      <text
         transform="scale(0.99278721,1.0072652)"
         sodipodi:linespacing="125%"
         id="text4278"
         y="749.33972"
         x="599.49316"
         style="font-style:normal;font-weight:normal;font-size:261.87915039px;line-height:125%;font-family:sans-serif;text-align:end;letter-spacing:0px;word-spacing:0px;text-anchor:end;fill:#99b000;fill-opacity:1;stroke:none;stroke-width:1px;stroke-linecap:butt;stroke-linejoin:miter;stroke-opacity:1"
         xml:space="preserve"><tspan
           style="font-style:normal;font-variant:normal;font-weight:bold;font-stretch:normal;font-family:sans-serif;-inkscape-font-specification:'sans-serif Bold';fill:#99b000"
           y="749.33972"
           x="599.49316"
           id="tspan4280"
           sodipodi:role="line">S</tspan></text>
      <path
         sodipodi:nodetypes="cccccccccccccccccccccccccccccccccccccccccccccccccccccccccccccccccccccc"
         inkscape:connector-curvature="0"
         id="path5"
         d="m 287.04492,533.53265 c -42.67422,0.29337 -83.9207,26.77582 -101.02539,66.07617 -16.88362,36.15371 -12.05459,80.77639 11.67188,112.75586 25.88177,36.0415 74.09449,53.99693 117.20898,42.89063 32.70601,-7.9625 61.52893,-30.83856 75.41797,-61.75391 16.20217,-33.45157 13.74314,-74.58091 -5.83008,-106.08203 -19.91633,-33.61743 -58.56202,-54.48453 -97.44336,-53.88672 z m -9.89844,26.26758 c -0.005,0.0587 0.002,0.051 -0.004,0.10937 l -0.0137,0.13672 0,50.42969 c -8.41869,-0.0465 -16.95346,0.0705 -24.89454,-0.17383 4.96973,-15.047 12.12403,-41.98804 24.91211,-50.50195 z m 22.75977,0.041 c 11.45463,7.19291 18.3357,20.6128 23.42383,33.70117 0.21688,1.25985 0.66728,2.24755 1.09765,3.25781 0.27442,0.64414 0.44462,13.11083 0.67188,13.66992 l -25.19336,0 z m -61.06836,11.24025 c -4.53595,8.70542 -7.8431,29.98017 -10.32617,39.38867 l -16.33985,0 c 6.84733,-10.856 16.00098,-32.24638 26.66602,-39.38867 z m 99.4375,0.20508 c 10.57528,7.11457 19.56898,28.42775 26.37891,39.19922 -5.67327,0.0375 -11.223,0.0915 -16.19922,-0.29297 -2.45932,-9.24042 -5.7382,-30.34229 -10.17969,-38.90625 z m -136.07617,61.60937 22.00195,0 c -2.05292,16.48969 -2.06364,11.21584 0,27.70899 l -22.19336,0 c -4.54378,-16.23233 -4.55459,-11.58278 0.19141,-27.70899 z m 44.87109,0 30.05664,0 0,27.70899 -30.20898,0 c -2.22242,-16.58154 -2.39284,-11.34306 0.15234,-27.70899 z m 52.83594,0 30.05664,0 c 2.54277,16.35458 2.37763,11.13534 0.15234,27.70899 l -30.20898,0 z m 52.92773,0 22.00196,0 c 4.72123,16.00006 4.73898,11.54224 0.19336,27.70899 l -22.19532,0 c 2.06469,-16.49321 2.05317,-11.21962 0,-27.70899 z m -101.03906,49.86914 c 0.32798,0.0494 0.1443,-0.0204 0.65625,0.13672 l 0.42383,0.12891 24.25391,0 0,49.07617 c -12.09378,-7.4644 -19.24202,-31.79432 -24.13086,-45.60742 l -0.0117,-0.0312 -0.0117,-0.0332 c -0.63163,-1.66078 -0.92507,-2.7586 -1.17969,-3.66993 z m -39.77734,0.26563 16.47461,0 c 2.47573,9.55653 5.77278,28.99807 10.35547,37.85547 -10.81875,-7.2279 -20.08231,-26.76024 -26.83008,-37.85547 z m 87.88867,0 25.00391,0 c -4.88199,15.26295 -12.02995,40.70741 -25.07422,49.41211 8.4e-4,0 -8.6e-4,-0.002 0,-0.0117 l 0.0703,-0.3125 z m 48.63672,0 16.49414,0 c -6.66379,10.98569 -16.31729,30.84792 -26.82422,37.82422 4.57297,-8.8469 7.85861,-28.27976 10.33008,-37.82422 z"
         style="color:#000000;font-style:normal;font-variant:normal;font-weight:normal;font-stretch:normal;font-size:medium;line-height:normal;font-family:sans-serif;text-indent:0;text-align:start;text-decoration:none;text-decoration-line:none;text-decoration-style:solid;text-decoration-color:#000000;letter-spacing:normal;word-spacing:normal;text-transform:none;direction:ltr;block-progression:tb;writing-mode:lr-tb;baseline-shift:baseline;text-anchor:start;white-space:normal;clip-rule:nonzero;display:inline;overflow:visible;visibility:visible;opacity:1;isolation:auto;mix-blend-mode:normal;color-interpolation:sRGB;color-interpolation-filters:linearRGB;solid-color:#000000;solid-opacity:1;fill:#99b000;fill-opacity:1;fill-rule:nonzero;stroke:none;stroke-width:5.90652132;stroke-linecap:butt;stroke-linejoin:miter;stroke-miterlimit:4;stroke-dasharray:none;stroke-dashoffset:0;stroke-opacity:1;color-rendering:auto;image-rendering:auto;shape-rendering:auto;text-rendering:auto;enable-background:accumulate" />
    </g>
  </g>
</svg>
