<?xml version="1.0" encoding="UTF-8" standalone="no"?>
<!-- Created with Inkscape (http://www.inkscape.org/) -->

<svg
   xmlns:dc="http://purl.org/dc/elements/1.1/"
   xmlns:cc="http://creativecommons.org/ns#"
   xmlns:rdf="http://www.w3.org/1999/02/22-rdf-syntax-ns#"
   xmlns:svg="http://www.w3.org/2000/svg"
   xmlns="http://www.w3.org/2000/svg"
   xmlns:xlink="http://www.w3.org/1999/xlink"
   xmlns:sodipodi="http://sodipodi.sourceforge.net/DTD/sodipodi-0.dtd"
   xmlns:inkscape="http://www.inkscape.org/namespaces/inkscape"
   width="210mm"
   height="297mm"
   viewBox="0 0 744.09448819 1052.3622047"
   id="svg2"
   version="1.1"
   inkscape:version="0.91 r13725"
   inkscape:export-xdpi="3.5999997"
   inkscape:export-ydpi="3.5999997"
   sodipodi:docname="user-helpdesk-contact.svg"
   inkscape:export-filename="C:\Users\johannes\Documents\Arbeit\RRZE\github3\bicons\16x16\categories\user-helpdesk-contact.png">
  <title
     id="title4233">user helpdesk contact</title>
  <defs
     id="defs4">
    <linearGradient
       id="linearGradient2224">
      <stop
         id="stop2226"
         offset="0"
         style="stop-color:#7c7c7c;stop-opacity:1;" />
      <stop
         id="stop2228"
         offset="1"
         style="stop-color:#b8b8b8;stop-opacity:1;" />
    </linearGradient>
    <linearGradient
       id="linearGradient15218">
      <stop
         id="stop15220"
         offset="0"
         style="stop-color:#eeeeef;stop-opacity:1;" />
      <stop
         id="stop2736"
         offset="0.59928656"
         style="stop-color:#d3d7cf;stop-opacity:1;" />
      <stop
         id="stop2738"
         offset="0.82758623"
         style="stop-color:#ffffff;stop-opacity:1;" />
      <stop
         id="stop15222"
         offset="1"
         style="stop-color:#d3d7cf;stop-opacity:1;" />
    </linearGradient>
    <pattern
       y="0"
       x="0"
       height="6"
       width="6"
       patternUnits="userSpaceOnUse"
       id="EMFhbasepattern" />
    <pattern
       y="0"
       x="0"
       height="6"
       width="6"
       patternUnits="userSpaceOnUse"
       id="EMFhbasepattern-5" />
    <linearGradient
       inkscape:collect="always"
       xlink:href="#linearGradient4254"
       id="linearGradient4268"
       x1="358.43118"
       y1="465.73074"
       x2="429.96555"
       y2="644.62878"
       gradientUnits="userSpaceOnUse"
       gradientTransform="matrix(1.1386133,0,0,1.1369311,-56.01619,-53.032432)" />
    <linearGradient
       inkscape:collect="always"
       id="linearGradient4254">
      <stop
         style="stop-color:#7a8597;stop-opacity:1"
         offset="0"
         id="stop4256" />
      <stop
         style="stop-color:#4e505d;stop-opacity:1"
         offset="1"
         id="stop4258" />
    </linearGradient>
    <linearGradient
       inkscape:collect="always"
       xlink:href="#linearGradient4254"
       id="linearGradient4260"
       x1="380.01031"
       y1="330.40619"
       x2="414.6156"
       y2="457.18103"
       gradientUnits="userSpaceOnUse"
       gradientTransform="matrix(1.1424686,0,0,1.1486653,-59.49955,-57.955422)" />
  </defs>
  <sodipodi:namedview
     id="base"
     pagecolor="#ffffff"
     bordercolor="#666666"
     borderopacity="1.0"
     inkscape:pageopacity="0.0"
     inkscape:pageshadow="2"
     inkscape:zoom="1"
     inkscape:cx="390.15153"
     inkscape:cy="483.89475"
     inkscape:document-units="px"
     inkscape:current-layer="layer1"
     showgrid="false"
     showguides="true"
     inkscape:guide-bbox="true"
     inkscape:window-width="1366"
     inkscape:window-height="721"
     inkscape:window-x="-4"
     inkscape:window-y="-4"
     inkscape:window-maximized="1"
     inkscape:snap-bbox="true"
     inkscape:bbox-paths="true"
     inkscape:bbox-nodes="true">
    <sodipodi:guide
       position="315.53572,730.17859"
       orientation="0,1"
       id="guide3338" />
    <sodipodi:guide
       position="351.25,330.17858"
       orientation="0,1"
       id="guide3340" />
    <sodipodi:guide
       position="189.10714,408.8393"
       orientation="1,0"
       id="guide3344" />
    <sodipodi:guide
       position="589.04521,468.07945"
       orientation="1,0"
       id="guide3346" />
    <inkscape:grid
       type="xygrid"
       id="grid3440" />
    <sodipodi:guide
       position="530.33008,1042.2754"
       orientation="0,1"
       id="guide3405" />
    <sodipodi:guide
       position="589.04521,378.30213"
       orientation="1,0"
       id="guide3411" />
  </sodipodi:namedview>
  <metadata
     id="metadata7">
    <rdf:RDF>
      <cc:Work
         rdf:about="">
        <dc:format>image/svg+xml</dc:format>
        <dc:type
           rdf:resource="http://purl.org/dc/dcmitype/StillImage" />
        <dc:title>user helpdesk contact</dc:title>
        <dc:date>June 2015</dc:date>
        <dc:rights>
          <cc:Agent>
            <dc:title>Johannes Hechler</dc:title>
          </cc:Agent>
        </dc:rights>
        <dc:creator>
          <cc:Agent>
            <dc:title>Johannes Hechler</dc:title>
          </cc:Agent>
        </dc:creator>
        <dc:publisher>
          <cc:Agent>
            <dc:title>RRZE</dc:title>
          </cc:Agent>
        </dc:publisher>
        <dc:contributor>
          <cc:Agent>
            <dc:title>Ute Weber, Hendrik Eggers</dc:title>
          </cc:Agent>
        </dc:contributor>
        <dc:subject>
          <rdf:Bag>
            <rdf:li>user</rdf:li>
            <rdf:li>phone</rdf:li>
            <rdf:li>service</rdf:li>
            <rdf:li>helpdesc</rdf:li>
            <rdf:li>contact</rdf:li>
            <rdf:li>at-sign</rdf:li>
          </rdf:Bag>
        </dc:subject>
      </cc:Work>
    </rdf:RDF>
  </metadata>
  <g
     inkscape:label="Ebene 1"
     inkscape:groupmode="layer"
     id="layer1">
    <g
       id="g4235">
      <g
         id="g4216">
        <flowRoot
           transform="matrix(1,0,0,0.99852263,-0.09964,0.389728)"
           xml:space="preserve"
           id="flowRoot4169-0"
           style="font-style:normal;font-weight:normal;font-size:40px;line-height:125%;font-family:sans-serif;letter-spacing:0px;word-spacing:0px;fill:#252525;fill-opacity:1;stroke:none;stroke-width:1px;stroke-linecap:butt;stroke-linejoin:miter;stroke-opacity:1"><flowRegion
             id="flowRegion4171-0"><rect
               id="rect4173-9"
               width="56.433445"
               height="88.78862"
               x="89.541069"
               y="427.07962" /></flowRegion><flowPara
             id="flowPara4175-9" /></flowRoot>        <rect
           style="fill:none;fill-rule:evenodd;stroke:none;stroke-width:1px;stroke-linecap:butt;stroke-linejoin:miter;stroke-opacity:1"
           id="rect3336-4"
           width="400"
           height="399.40906"
           x="189.0452"
           y="322.18365"
           inkscape:export-xdpi="4.9499998"
           inkscape:export-ydpi="4.9499998" />
        <path
           style="fill:url(#linearGradient4268);fill-opacity:1;stroke:none;stroke-width:41.15159225;stroke-linecap:round;stroke-linejoin:round;stroke-opacity:1"
           d="M 441.13672 487.02344 C 428.66596 494.01491 406.28909 494.0332 391.00195 494.0332 C 390.38073 494.0332 389.68703 494.02639 389.04492 494.02539 L 389.04492 509.68359 C 389.04492 530.02616 371.88749 547.18359 351.54492 547.18359 L 287.31836 547.18359 C 265.82574 583.94858 257.48185 622.69249 257.09375 653.84961 C 257.09375 671.23888 258.6827 688.08799 261.64648 704.11719 C 266.04264 713.93729 277.08735 721.13413 290.32227 722.07422 L 290.32227 722.18359 L 415.05273 722.18359 C 410.58453 718.85423 406.32213 715.22393 402.29883 711.29492 C 390.35705 699.63303 380.99272 685.76955 374.70508 670.37891 A 25.0025 25.0025 0 0 1 374.68359 670.33008 C 368.41107 654.88282 365.31641 638.24974 365.31641 621.13281 C 365.31641 604.38102 368.51624 587.96176 374.8457 572.60352 C 381.16659 557.26607 390.40825 543.44186 402.1582 531.78516 A 25.0025 25.0025 0 0 1 402.23047 531.71484 C 413.97956 520.15225 427.87545 511.06592 443.27148 504.79688 A 25.0025 25.0025 0 0 1 443.32031 504.77734 C 447.62089 503.03664 451.99492 501.54079 456.42383 500.27539 C 451.6447 495.82221 446.55812 491.40225 441.13672 487.02344 z M 461.74023 520.75586 L 461.53125 520.81641 C 461.56415 520.80681 461.59796 520.80102 461.63086 520.79102 C 461.66783 520.78052 461.70333 520.76636 461.74023 520.75586 z M 451.17188 718.41797 L 451.26562 718.45508 C 451.25043 718.44908 451.2359 718.44155 451.2207 718.43555 C 451.2046 718.42915 451.18797 718.42397 451.17188 718.41797 z "
           id="path2176" />
        <path
           inkscape:connector-curvature="0"
           style="fill:url(#linearGradient4260);fill-opacity:1;stroke:none;stroke-width:14;stroke-miterlimit:4;stroke-dasharray:none;stroke-opacity:1"
           d="m 389.0452,322.18363 a 75,75.000015 0 0 0 -37.26953,10.02539 c 7.49473,6.90706 12.26953,16.74617 12.26953,27.47461 l 0,25 c 0,15.96319 -10.62113,29.8303 -25,35.11914 l 0,27.38086 12.5,0 c 15.9413,0 29.92308,10.53803 35.22852,24.88672 a 75,75.000015 0 0 0 2.27148,0.11328 75,75.000015 0 0 0 75,-75 75,75.000015 0 0 0 -75,-75 z"
           id="circle2187-6" />
        <flowRoot
           transform="translate(-0.09965,-0.086462)"
           xml:space="preserve"
           id="flowRoot4169"
           style="font-style:normal;font-weight:normal;font-size:40px;line-height:125%;font-family:sans-serif;letter-spacing:0px;word-spacing:0px;fill:#252525;fill-opacity:1;stroke:none;stroke-width:1px;stroke-linecap:butt;stroke-linejoin:miter;stroke-opacity:1"><flowRegion
             id="flowRegion4171"><rect
               id="rect4173"
               width="56.433445"
               height="88.78862"
               x="89.541069"
               y="427.07962" /></flowRegion><flowPara
             id="flowPara4175" /></flowRoot>        <rect
           style="fill:none;fill-rule:evenodd;stroke:none;stroke-width:1px;stroke-linecap:butt;stroke-linejoin:miter;stroke-opacity:1"
           id="rect3336"
           width="400"
           height="400"
           x="189.0452"
           y="322.18365"
           inkscape:export-xdpi="4.9499998"
           inkscape:export-ydpi="4.9499998" />
        <path
           style="color:#000000;clip-rule:nonzero;display:inline;overflow:visible;visibility:visible;opacity:1;isolation:auto;mix-blend-mode:normal;color-interpolation:sRGB;color-interpolation-filters:linearRGB;solid-color:#000000;solid-opacity:1;fill:#99b000;fill-opacity:1;fill-rule:nonzero;stroke:none;stroke-width:50;stroke-linecap:butt;stroke-linejoin:round;stroke-miterlimit:4;stroke-dasharray:none;stroke-dashoffset:0;stroke-opacity:1;color-rendering:auto;image-rendering:auto;shape-rendering:auto;text-rendering:auto;enable-background:accumulate"
           d="m 289.0452,347.18365 c -6.925,10e-6 -25,43.075 -25,50 l 0,50.00001 0,25 c 0,6.925 18.075,49.99997 25,49.99997 l 37,0 c 6.925,10e-6 23.00334,-6.25695 26,-12.5 l 12,-25 c 2.99666,-6.24305 -5.575,-12.5 -12.5,-12.5 l -37.5,0 0,-75 12.5,0 c 6.925,0 12.5,-5.575 12.5,-12.5 l 0,-25 c 0,-6.925 -5.575,-12.5 -12.5,-12.5 l -25,0 z"
           id="rect7363"
           inkscape:connector-curvature="0"
           sodipodi:nodetypes="sscssssssccsssscs" />
        <text
           sodipodi:linespacing="125%"
           id="text4185"
           y="680.66815"
           x="373.64221"
           style="font-style:normal;font-weight:normal;font-size:230.20143127px;line-height:125%;font-family:sans-serif;letter-spacing:0px;word-spacing:0px;fill:#99b000;fill-opacity:1;stroke:#99b000;stroke-width:3;stroke-linecap:butt;stroke-linejoin:miter;stroke-miterlimit:4;stroke-dasharray:none;stroke-opacity:1"
           xml:space="preserve"><tspan
             style="font-style:normal;font-variant:normal;font-weight:bold;font-stretch:normal;font-family:sans-serif;-inkscape-font-specification:'sans-serif Bold';fill:#99b000;stroke:#99b000;stroke-width:3;stroke-miterlimit:4;stroke-dasharray:none"
             y="680.66815"
             x="373.64221"
             id="tspan4187"
             sodipodi:role="line">@</tspan></text>
      </g>
    </g>
  </g>
</svg>
