<?xml version="1.0" encoding="UTF-8" standalone="no"?>
<!-- Created with Inkscape (http://www.inkscape.org/) -->

<svg
   xmlns:dc="http://purl.org/dc/elements/1.1/"
   xmlns:cc="http://creativecommons.org/ns#"
   xmlns:rdf="http://www.w3.org/1999/02/22-rdf-syntax-ns#"
   xmlns:svg="http://www.w3.org/2000/svg"
   xmlns="http://www.w3.org/2000/svg"
   xmlns:xlink="http://www.w3.org/1999/xlink"
   xmlns:sodipodi="http://sodipodi.sourceforge.net/DTD/sodipodi-0.dtd"
   xmlns:inkscape="http://www.inkscape.org/namespaces/inkscape"
   width="210mm"
   height="297mm"
   viewBox="0 0 744.09448819 1052.3622047"
   id="svg2"
   version="1.1"
   inkscape:version="0.91 r13725"
   inkscape:export-xdpi="3.6000004"
   inkscape:export-ydpi="3.6000004"
   sodipodi:docname="user-group-rights-edit.svg"
   inkscape:export-filename="C:\Users\johannes\Documents\Arbeit\RRZE\github3\bicons\16x16\categories\user-group-rights-edit.png">
  <defs
     id="defs4">
    <linearGradient
       inkscape:collect="always"
       id="linearGradient4254">
      <stop
         style="stop-color:#7a8597;stop-opacity:1"
         offset="0"
         id="stop4256" />
      <stop
         style="stop-color:#4e505d;stop-opacity:1"
         offset="1"
         id="stop4258" />
    </linearGradient>
    <linearGradient
       id="linearGradient2224">
      <stop
         id="stop2226"
         offset="0"
         style="stop-color:#7c7c7c;stop-opacity:1;" />
      <stop
         id="stop2228"
         offset="1"
         style="stop-color:#b8b8b8;stop-opacity:1;" />
    </linearGradient>
    <linearGradient
       id="linearGradient15218">
      <stop
         id="stop15220"
         offset="0"
         style="stop-color:#eeeeef;stop-opacity:1;" />
      <stop
         id="stop2736"
         offset="0.59928656"
         style="stop-color:#d3d7cf;stop-opacity:1;" />
      <stop
         id="stop2738"
         offset="0.82758623"
         style="stop-color:#ffffff;stop-opacity:1;" />
      <stop
         id="stop15222"
         offset="1"
         style="stop-color:#d3d7cf;stop-opacity:1;" />
    </linearGradient>
    <pattern
       y="0"
       x="0"
       height="6"
       width="6"
       patternUnits="userSpaceOnUse"
       id="EMFhbasepattern" />
    <pattern
       y="0"
       x="0"
       height="6"
       width="6"
       patternUnits="userSpaceOnUse"
       id="EMFhbasepattern-5" />
    <linearGradient
       inkscape:collect="always"
       xlink:href="#linearGradient4254"
       id="linearGradient4252"
       x1="380.01031"
       y1="330.40619"
       x2="414.6156"
       y2="457.18103"
       gradientUnits="userSpaceOnUse"
       gradientTransform="translate(0.37005758,-0.39466108)" />
    <linearGradient
       inkscape:collect="always"
       xlink:href="#linearGradient4254"
       id="linearGradient4275"
       x1="380.01031"
       y1="330.40619"
       x2="414.6156"
       y2="457.18103"
       gradientUnits="userSpaceOnUse"
       gradientTransform="translate(0.37005758,-0.39466108)" />
    <linearGradient
       inkscape:collect="always"
       xlink:href="#linearGradient4254"
       id="linearGradient4320"
       x1="380.01031"
       y1="330.40619"
       x2="414.6156"
       y2="457.18103"
       gradientUnits="userSpaceOnUse"
       gradientTransform="translate(0.37005758,-0.39466108)" />
    <linearGradient
       inkscape:collect="always"
       xlink:href="#linearGradient4254"
       id="linearGradient4442"
       gradientUnits="userSpaceOnUse"
       gradientTransform="translate(0.37005758,-0.39466108)"
       x1="380.01031"
       y1="330.40619"
       x2="414.6156"
       y2="457.18103" />
    <linearGradient
       inkscape:collect="always"
       xlink:href="#linearGradient4254"
       id="linearGradient4445"
       x1="380.01031"
       y1="330.40619"
       x2="414.6156"
       y2="457.18103"
       gradientUnits="userSpaceOnUse"
       gradientTransform="translate(0.37005758,-0.39466108)" />
    <linearGradient
       inkscape:collect="always"
       xlink:href="#linearGradient4254"
       id="linearGradient4526"
       gradientUnits="userSpaceOnUse"
       gradientTransform="translate(0.37005758,-0.39466108)"
       x1="380.01031"
       y1="330.40619"
       x2="414.6156"
       y2="457.18103" />
    <linearGradient
       inkscape:collect="always"
       xlink:href="#linearGradient4254"
       id="linearGradient4529"
       gradientUnits="userSpaceOnUse"
       gradientTransform="translate(0.37005758,-0.39466108)"
       x1="380.01031"
       y1="330.40619"
       x2="414.6156"
       y2="457.18103" />
    <linearGradient
       inkscape:collect="always"
       xlink:href="#linearGradient4254"
       id="linearGradient4276"
       gradientUnits="userSpaceOnUse"
       gradientTransform="translate(0.37005758,-0.39466108)"
       x1="380.01031"
       y1="330.40619"
       x2="414.6156"
       y2="457.18103" />
    <linearGradient
       inkscape:collect="always"
       xlink:href="#linearGradient4254"
       id="linearGradient4279"
       x1="380.01031"
       y1="330.40619"
       x2="414.6156"
       y2="457.18103"
       gradientUnits="userSpaceOnUse"
       gradientTransform="translate(0.37005758,-0.39466108)" />
    <linearGradient
       inkscape:collect="always"
       xlink:href="#linearGradient4254"
       id="linearGradient4285"
       gradientUnits="userSpaceOnUse"
       gradientTransform="matrix(0.60044073,0,0,0.60044073,274.00448,241.78161)"
       x1="380.01031"
       y1="330.40619"
       x2="414.6156"
       y2="457.18103" />
    <linearGradient
       inkscape:collect="always"
       xlink:href="#linearGradient4254"
       id="linearGradient4277"
       gradientUnits="userSpaceOnUse"
       gradientTransform="matrix(0.71517454,0,0,0.84344715,-27.76692,293.32648)"
       x1="365.66296"
       y1="545.92664"
       x2="285.65781"
       y2="722.18365" />
    <linearGradient
       inkscape:collect="always"
       xlink:href="#linearGradient4254"
       id="linearGradient4279-6"
       gradientUnits="userSpaceOnUse"
       gradientTransform="matrix(0.74495637,0,0,0.80341756,-36.9491,313.87037)"
       x1="313.09464"
       y1="448.39526"
       x2="286.46701"
       y2="570.48975" />
    <linearGradient
       gradientTransform="translate(-190.30961,330.17818)"
       inkscape:collect="always"
       xlink:href="#linearGradient4254"
       id="linearGradient4187"
       x1="365.66296"
       y1="545.92664"
       x2="285.65781"
       y2="722.18365"
       gradientUnits="userSpaceOnUse" />
    <linearGradient
       gradientTransform="translate(-190.30961,330.17818)"
       inkscape:collect="always"
       xlink:href="#linearGradient4254"
       id="linearGradient4195"
       x1="313.09464"
       y1="448.39526"
       x2="286.46701"
       y2="570.48975"
       gradientUnits="userSpaceOnUse" />
    <linearGradient
       inkscape:collect="always"
       xlink:href="#linearGradient4254"
       id="linearGradient4267"
       gradientUnits="userSpaceOnUse"
       gradientTransform="matrix(0.8509943,0,0,0.82400613,42.84875,-245.08401)"
       x1="365.66296"
       y1="545.92664"
       x2="285.65781"
       y2="722.18365" />
    <linearGradient
       inkscape:collect="always"
       xlink:href="#linearGradient4254"
       id="linearGradient4269"
       gradientUnits="userSpaceOnUse"
       gradientTransform="matrix(0.91390002,0,0,0.91837077,23.99932,-296.35415)"
       x1="313.09464"
       y1="448.39526"
       x2="286.46701"
       y2="570.48975" />
  </defs>
  <sodipodi:namedview
     id="base"
     pagecolor="#ffffff"
     bordercolor="#666666"
     borderopacity="1.0"
     inkscape:pageopacity="0.0"
     inkscape:pageshadow="2"
     inkscape:zoom="1"
     inkscape:cx="191.94966"
     inkscape:cy="537.75176"
     inkscape:document-units="px"
     inkscape:current-layer="layer1"
     showgrid="false"
     showguides="true"
     inkscape:guide-bbox="true"
     inkscape:window-width="1366"
     inkscape:window-height="721"
     inkscape:window-x="-4"
     inkscape:window-y="-4"
     inkscape:window-maximized="1"
     inkscape:snap-bbox="true"
     inkscape:bbox-paths="true"
     inkscape:bbox-nodes="true"
     inkscape:snap-nodes="false">
    <sodipodi:guide
       position="315.53572,730.17859"
       orientation="0,1"
       id="guide3338" />
    <sodipodi:guide
       position="351.25,330.17858"
       orientation="0,1"
       id="guide3340" />
    <sodipodi:guide
       position="189.10714,408.8393"
       orientation="1,0"
       id="guide3344" />
    <sodipodi:guide
       position="589.04521,468.07945"
       orientation="1,0"
       id="guide3346" />
    <inkscape:grid
       type="xygrid"
       id="grid3440" />
    <sodipodi:guide
       position="589.04521,378.30213"
       orientation="1,0"
       id="guide3411" />
  </sodipodi:namedview>
  <metadata
     id="metadata7">
    <rdf:RDF>
      <cc:Work
         rdf:about="">
        <dc:format>image/svg+xml</dc:format>
        <dc:type
           rdf:resource="http://purl.org/dc/dcmitype/StillImage" />
        <dc:title>user group rights edit</dc:title>
        <dc:date>June 2015</dc:date>
        <dc:creator>
          <cc:Agent>
            <dc:title>Johannes Hechler</dc:title>
          </cc:Agent>
        </dc:creator>
        <dc:rights>
          <cc:Agent>
            <dc:title>Johannes Hechler</dc:title>
          </cc:Agent>
        </dc:rights>
        <dc:publisher>
          <cc:Agent>
            <dc:title>RRZE</dc:title>
          </cc:Agent>
        </dc:publisher>
        <dc:contributor>
          <cc:Agent>
            <dc:title>Ute Weber, Hendrik Eggers</dc:title>
          </cc:Agent>
        </dc:contributor>
      </cc:Work>
    </rdf:RDF>
  </metadata>
  <g
     inkscape:label="Ebene 1"
     inkscape:groupmode="layer"
     id="layer1">
    <g
       transform="translate(189.10714,-330.17855)"
       id="g4947">
      <path
         id="path4273"
         d="m 213.08789,774.84455 c -5.03891,3.30796 -13.83302,2.95607 -20.81445,2.7793 5.17708,11.06175 8.08008,23.35981 8.08008,36.30664 0,28.5952 -14.14027,54.03365 -35.74024,69.94336 5.60467,5.87548 11.57773,11.98453 17.50391,18.57617 l 34.55273,0 c 9.40641,-16.2482 21.22417,-28.8019 31.14649,-39.1875 -18.19807,-15.08918 -29.88672,-37.75025 -29.88672,-62.99219 0,-5.91073 0.64651,-11.67797 1.86133,-17.24218 -2.2076,-2.69025 -4.44686,-5.39362 -6.70313,-8.1836 z m -67.26953,21.25 c -9.4492,13.72219 -17.25218,29.46884 -19.70117,52.5625 14.37734,-5.32945 24.23633,-18.8042 24.23633,-34.72656 0,-6.47734 -1.63249,-12.5505 -4.53516,-17.83594 z"
         style="fill:url(#linearGradient4277);fill-opacity:1;stroke:none;stroke-width:41.15159225;stroke-linecap:round;stroke-linejoin:round;stroke-opacity:1"
         inkscape:connector-curvature="0" />
      <path
         inkscape:connector-curvature="0"
         id="path4275"
         d="m 235.45385,702.52411 a 46.972347,49.953319 0 0 1 -46.97235,49.95332 46.972347,49.953319 0 0 1 -46.97234,-49.95332 46.972347,49.953319 0 0 1 46.97234,-49.95333 46.972347,49.953319 0 0 1 46.97235,49.95333 z"
         style="fill:url(#linearGradient4279-6);fill-opacity:1;stroke:none;stroke-width:14;stroke-miterlimit:4;stroke-dasharray:none;stroke-opacity:1" />
      <path
         style="fill:url(#linearGradient4187);fill-opacity:1;stroke:none;stroke-width:41.15159225;stroke-linecap:round;stroke-linejoin:round;stroke-opacity:1"
         d="m 77.86857,900.66803 c -0.0886,0.078 -0.16949,0.1614 -0.26101,0.2368 l -4.93993,2.6535 c -24.20938,26.1572 -48.93203,50.5118 -48.93203,103.81427 0,11.4487 1.05328,22.5413 3.01852,33.0946 2.91504,6.4653 10.23917,11.204 19.01508,11.8229 l 0,0.072 130.43503,0 0,-0.01 c 9.8501,-0.1379 18.14614,-5.4518 20.93355,-12.7367 1.86515,-10.2991 2.86222,-21.1036 2.86222,-32.2466 0,-55.80217 -26.21462,-77.65697 -53.52985,-106.29667 -8.26921,4.603 -23.80428,3.2282 -33.94099,3.2282 -10.43219,0 -26.2272,1.2189 -34.66059,-3.6361 z"
         id="path2176-1"
         inkscape:connector-curvature="0"
         sodipodi:nodetypes="cccsccccccscscc" />
      <path
         inkscape:connector-curvature="0"
         id="circle2187-6-2"
         d="m 175.35335,813.92879 a 63.053823,62.176038 0 0 1 -63.05383,62.17604 63.053823,62.176038 0 0 1 -63.05381,-62.17604 63.053823,62.176038 0 0 1 63.05381,-62.17604 63.053823,62.176038 0 0 1 63.05383,62.17604 z"
         style="fill:url(#linearGradient4195);fill-opacity:1;stroke:none;stroke-width:14;stroke-miterlimit:4;stroke-dasharray:none;stroke-opacity:1" />
      <path
         inkscape:connector-curvature="0"
         id="path4263"
         transform="translate(0,652.36216)"
         d="m 329.44727,225.33594 c -3.93818,2.12264 -9.816,2.68406 -15.73829,2.7832 -6.49873,22.5413 -13.01731,45.00909 -20.20898,69.65234 8.54407,3.86007 16.75132,6.18719 25.19727,7.27735 l 20.24609,-70.1836 c -3.11306,-3.12891 -6.29143,-6.27581 -9.49609,-9.52929 z m -69.53516,9.09179 C 241.7027,253.60815 225,273.80191 225,312.92773 c 0,9.4338 0.89596,18.57551 2.56836,27.27149 1.39178,2.98895 3.96593,5.52841 7.27539,7.27344 -0.68436,-2.24421 -1.36842,-4.53178 -2.05859,-6.75 a 25.0025,25.0025 0 0 1 6.66992,-25.54688 25.0025,25.0025 0 0 1 0.47265,-12.08398 c 7.57513,-25.90444 13.87693,-47.57049 19.98438,-68.66407 z m 113.76758,60.41016 -12.33203,42.75586 a 25.0025,25.0025 0 0 1 -6.77539,11.15234 25.0025,25.0025 0 0 1 0.19335,1.24414 c 8.37546,-0.11897 15.42825,-4.49704 17.79883,-10.49609 C 374.15168,331.00972 375,322.10768 375,312.92578 c 0,-6.57389 -0.4708,-12.55945 -1.32031,-18.08789 z"
         style="fill:url(#linearGradient4267);fill-opacity:1;stroke:none;stroke-width:41.15159225;stroke-linecap:round;stroke-linejoin:round;stroke-opacity:1" />
      <path
         inkscape:connector-curvature="0"
         id="path4265"
         transform="translate(0,652.36216)"
         d="m 300.55469,90.806641 a 57.62489,57.100656 0 0 0 -57.625,57.101559 57.62489,57.100656 0 0 0 27.85547,48.8086 c 5.77755,-20.11884 11.69975,-40.82727 18.67578,-65.38086 a 25.0025,25.0025 0 0 1 8.27539,-12.54297 25.0025,25.0025 0 0 1 -0.14453,-14.34766 c 0,0 1.8132,-6.190021 4.35937,-13.568357 a 57.62489,57.100656 0 0 0 -1.39648,-0.07031 z m 31.70117,72.583979 c -3.73067,13.09873 -7.28531,25.52821 -10.78125,37.72071 a 57.62489,57.100656 0 0 0 32.6582,-32.33399 c -3.29562,-1.5087 -6.59552,-2.7111 -10.59179,-3.86718 -2.71711,-0.78602 -6.93775,-1.22338 -11.28516,-1.51954 z"
         style="fill:url(#linearGradient4269);fill-opacity:1;stroke:none;stroke-width:14;stroke-miterlimit:4;stroke-dasharray:none;stroke-opacity:1" />
      <rect
         y="652.36218"
         x="0"
         height="400"
         width="400"
         id="rect4379"
         style="color:#000000;clip-rule:nonzero;display:inline;overflow:visible;visibility:visible;opacity:1;isolation:auto;mix-blend-mode:normal;color-interpolation:sRGB;color-interpolation-filters:linearRGB;solid-color:#000000;solid-opacity:1;fill:none;fill-opacity:1;fill-rule:nonzero;stroke:none;stroke-width:50;stroke-linecap:butt;stroke-linejoin:round;stroke-miterlimit:4;stroke-dasharray:none;stroke-dashoffset:0;stroke-opacity:1;color-rendering:auto;image-rendering:auto;shape-rendering:auto;text-rendering:auto;enable-background:accumulate" />
      <path
         inkscape:connector-curvature="0"
         id="path4234-6-1-3"
         d="m 372.87678,729.90165 c -13.97389,-4.14396 -32.11948,-3.2934 -37.52144,0.90453 -5.40197,4.19796 -13.75366,32.96919 -13.75366,32.96919 30.07646,-3.68449 48.82774,2.01108 72.93207,20.59936 2.59427,-14.10293 6.76618,-29.66845 5.0738,-35.47374 -1.69241,-5.8053 -12.75686,-14.85537 -26.73077,-18.99934 z m -22.38914,63.35493 c -13.29373,-3.8457 -30.64164,-3.16361 -36.97798,-2.72661 -18.66464,65.69416 -30.32743,106.07707 -49.58735,171.93967 24.38938,15.3657 47.75641,21.8816 73.40434,20.5558 l 49.55265,-171.7865 c -14.27377,-9.09589 -23.09794,-14.13664 -36.39166,-17.98236 z m -93.83173,192.39966 c 6.9071,22.19936 12.99534,44.33446 22.09267,66.70596 18.51914,-14.2953 35.02886,-30.1849 51.3455,-46.2277 -27.24492,4.5013 -51.25199,-4.2948 -73.43817,-20.47826 z"
         style="fill:#99b000;fill-opacity:1;fill-rule:evenodd;stroke:none;stroke-width:1px;stroke-linecap:butt;stroke-linejoin:miter;stroke-opacity:1"
         sodipodi:nodetypes="ssccsssccccscccc" />
    </g>
  </g>
</svg>
