<?xml version="1.0" encoding="UTF-8" standalone="no"?>
<!-- Created with Inkscape (http://www.inkscape.org/) -->

<svg
   xmlns:dc="http://purl.org/dc/elements/1.1/"
   xmlns:cc="http://creativecommons.org/ns#"
   xmlns:rdf="http://www.w3.org/1999/02/22-rdf-syntax-ns#"
   xmlns:svg="http://www.w3.org/2000/svg"
   xmlns="http://www.w3.org/2000/svg"
   xmlns:xlink="http://www.w3.org/1999/xlink"
   xmlns:sodipodi="http://sodipodi.sourceforge.net/DTD/sodipodi-0.dtd"
   xmlns:inkscape="http://www.inkscape.org/namespaces/inkscape"
   width="210mm"
   height="297mm"
   viewBox="0 0 744.09448819 1052.3622047"
   id="svg2"
   version="1.1"
   inkscape:version="0.91 r13725"
   inkscape:export-xdpi="3.5999999"
   inkscape:export-ydpi="3.5999999"
   sodipodi:docname="user-admin.svg"
   inkscape:export-filename="C:\Users\johannes\Documents\Arbeit\RRZE\github3\bicons\16x16\categories\user-admin.png">
  <defs
     id="defs4">
    <linearGradient
       id="linearGradient2224">
      <stop
         id="stop2226"
         offset="0"
         style="stop-color:#7c7c7c;stop-opacity:1;" />
      <stop
         id="stop2228"
         offset="1"
         style="stop-color:#b8b8b8;stop-opacity:1;" />
    </linearGradient>
    <linearGradient
       id="linearGradient15218">
      <stop
         id="stop15220"
         offset="0"
         style="stop-color:#eeeeef;stop-opacity:1;" />
      <stop
         id="stop2736"
         offset="0.59928656"
         style="stop-color:#d3d7cf;stop-opacity:1;" />
      <stop
         id="stop2738"
         offset="0.82758623"
         style="stop-color:#ffffff;stop-opacity:1;" />
      <stop
         id="stop15222"
         offset="1"
         style="stop-color:#d3d7cf;stop-opacity:1;" />
    </linearGradient>
    <pattern
       y="0"
       x="0"
       height="6"
       width="6"
       patternUnits="userSpaceOnUse"
       id="EMFhbasepattern" />
    <pattern
       y="0"
       x="0"
       height="6"
       width="6"
       patternUnits="userSpaceOnUse"
       id="EMFhbasepattern-5" />
    <linearGradient
       inkscape:collect="always"
       id="linearGradient4194">
      <stop
         style="stop-color:#a8b740;stop-opacity:1;"
         offset="0"
         id="stop4196" />
      <stop
         style="stop-color:#a9bc24;stop-opacity:1"
         offset="1"
         id="stop4198" />
    </linearGradient>
    <linearGradient
       inkscape:collect="always"
       xlink:href="#linearGradient4194"
       id="linearGradient4327"
       x1="424.61426"
       y1="662.54724"
       x2="559.49811"
       y2="559.54724"
       gradientUnits="userSpaceOnUse"
       gradientTransform="matrix(2.1562994,0,0,2.1562994,-662.08271,-819.11428)" />
    <linearGradient
       inkscape:collect="always"
       xlink:href="#linearGradient4254"
       id="linearGradient4268"
       x1="358.43118"
       y1="465.73074"
       x2="429.96555"
       y2="644.62878"
       gradientUnits="userSpaceOnUse"
       gradientTransform="matrix(1.1386133,0,0,1.1369311,-51.06139,297.14606)" />
    <linearGradient
       inkscape:collect="always"
       id="linearGradient4254">
      <stop
         style="stop-color:#7a8597;stop-opacity:1"
         offset="0"
         id="stop4256" />
      <stop
         style="stop-color:#4e505d;stop-opacity:1"
         offset="1"
         id="stop4258" />
    </linearGradient>
    <linearGradient
       inkscape:collect="always"
       xlink:href="#linearGradient4254"
       id="linearGradient4260"
       x1="380.01031"
       y1="330.40619"
       x2="414.6156"
       y2="457.18103"
       gradientUnits="userSpaceOnUse"
       gradientTransform="matrix(1.1539288,0,0,1.152224,-57.6585,291.63633)" />
  </defs>
  <sodipodi:namedview
     id="base"
     pagecolor="#ffffff"
     bordercolor="#666666"
     borderopacity="1.0"
     inkscape:pageopacity="0.0"
     inkscape:pageshadow="2"
     inkscape:zoom="0.5"
     inkscape:cx="134.71209"
     inkscape:cy="682.8353"
     inkscape:document-units="px"
     inkscape:current-layer="layer1"
     showgrid="false"
     showguides="true"
     inkscape:guide-bbox="true"
     inkscape:window-width="1366"
     inkscape:window-height="721"
     inkscape:window-x="-4"
     inkscape:window-y="-4"
     inkscape:window-maximized="1"
     inkscape:snap-bbox="true"
     inkscape:bbox-paths="true"
     inkscape:bbox-nodes="true">
    <sodipodi:guide
       position="315.53572,730.17859"
       orientation="0,1"
       id="guide3338" />
    <sodipodi:guide
       position="351.25,330.17858"
       orientation="0,1"
       id="guide3340" />
    <sodipodi:guide
       position="189.10714,408.8393"
       orientation="1,0"
       id="guide3344" />
    <sodipodi:guide
       position="589.04521,468.07945"
       orientation="1,0"
       id="guide3346" />
    <inkscape:grid
       type="xygrid"
       id="grid3440" />
    <sodipodi:guide
       position="589.04521,378.30213"
       orientation="1,0"
       id="guide3411" />
  </sodipodi:namedview>
  <metadata
     id="metadata7">
    <rdf:RDF>
      <cc:Work
         rdf:about="">
        <dc:format>image/svg+xml</dc:format>
        <dc:type
           rdf:resource="http://purl.org/dc/dcmitype/StillImage" />
        <dc:title>user admin</dc:title>
        <dc:date>June 2015</dc:date>
        <dc:creator>
          <cc:Agent>
            <dc:title>Johannes Hechler</dc:title>
          </cc:Agent>
        </dc:creator>
        <dc:rights>
          <cc:Agent>
            <dc:title>Johannes Hechler</dc:title>
          </cc:Agent>
        </dc:rights>
        <dc:publisher>
          <cc:Agent>
            <dc:title>RRZE</dc:title>
          </cc:Agent>
        </dc:publisher>
        <dc:contributor>
          <cc:Agent>
            <dc:title>Ute Weber, Hendrik Eggers</dc:title>
          </cc:Agent>
        </dc:contributor>
      </cc:Work>
    </rdf:RDF>
  </metadata>
  <g
     inkscape:label="Ebene 1"
     inkscape:groupmode="layer"
     id="layer1">
    <g
       id="g4220"
       transform="translate(-4.9547946,-350.17855)">
      <flowRoot
         style="font-style:normal;font-weight:normal;font-size:40px;line-height:125%;font-family:sans-serif;letter-spacing:0px;word-spacing:0px;fill:#252525;fill-opacity:1;stroke:none;stroke-width:1px;stroke-linecap:butt;stroke-linejoin:miter;stroke-opacity:1"
         id="flowRoot4169"
         xml:space="preserve"
         transform="matrix(1,0,0,0.99852263,4.8551598,350.56822)"><flowRegion
           id="flowRegion4171"><rect
             y="427.07962"
             x="89.541069"
             height="88.78862"
             width="56.433445"
             id="rect4173" /></flowRegion><flowPara
           id="flowPara4175" /></flowRoot>      <rect
         inkscape:export-ydpi="4.9499998"
         inkscape:export-xdpi="4.9499998"
         y="672.36218"
         x="194"
         height="399.40906"
         width="400"
         id="rect3336"
         style="fill:none;fill-rule:evenodd;stroke:none;stroke-width:1px;stroke-linecap:butt;stroke-linejoin:miter;stroke-opacity:1" />
      <path
         id="path2176"
         d="m 344.74023,836.58287 c -0.13373,0.1181 -0.25652,0.24673 -0.39453,0.36133 -61.16267,49.3929 -81.68238,117.75179 -82.29687,167.084 0,17.3893 1.58895,34.2384 4.55273,50.2676 4.39616,9.8201 15.44085,17.0169 28.67578,17.957 l 0,0.1094 196.70899,0 0,-0.01 c 8.30879,-0.1172 15.88093,-2.6965 21.67969,-6.8809 l -41.5918,-41.4473 -53.83203,-1.6738 a 25.0025,25.0025 0 0 1 -1.35157,-0.078 c -20.12131,-1.7194 -38.24151,-10.2696 -50.4082,-23.51756 -12.16669,-13.24796 -18.3974,-29.56375 -21.91406,-46.23047 a 25.0025,25.0025 0 0 1 6.78125,-22.83789 l 24.99609,-25 a 25.0025,25.0025 0 0 1 7.76953,-5.25 l -0.11523,-0.074 37,-37 0.0762,0.11719 a 25.0025,25.0025 0 0 1 5.25977,-7.79102 l 15.50195,-15.50586 c -12.85525,5.01105 -32.2027,5.0293 -45.88086,5.0293 -15.73277,0 -38.49842,-0.25461 -51.2168,-7.62891 z m 135.81055,36.20899 6.22852,5.98242 a 25.0025,25.0025 0 0 1 5.78125,8.4707 c -0.1874,-0.84291 -0.38841,-1.62462 -0.59571,-2.37695 -2.76092,-3.83325 -5.70689,-7.65415 -8.85546,-11.45898 -0.75213,-0.2364 -1.59054,-0.446 -2.5586,-0.61719 z M 444,907.01256 l 0,15.06641 0.24219,0.002 0.12695,-14.71289 L 444,907.01256 Z m 50.35742,2.04688 -0.33008,38.49023 a 25.0025,25.0025 0 0 1 -7.45312,17.59375 l -0.0273,0.0273 a 25.0025,25.0025 0 0 1 -17.82817,7.19145 l -49.5293,-0.55859 a 25.0025,25.0025 0 0 1 -6.27148,-0.87305 c 2.16673,0.6506 4.65256,1.18236 7.91797,1.47852 l 62.66601,1.94726 a 25.0025,25.0025 0 0 1 16.86914,7.2793 l 27.34375,27.24609 c 0.0567,-1.6145 0.11293,-3.2295 0.15821,-4.8535 0.004,-0.1428 0.004,-0.2869 0.008,-0.4297 l -24.54297,-24.54297 a 25.0025,25.0025 0 0 1 -1.3125,-33.9375 l -6.29101,7.34766 -1.37696,-43.40625 z"
         style="fill:url(#linearGradient4268);fill-opacity:1;stroke:none;stroke-width:41.15159225;stroke-linecap:round;stroke-linejoin:round;stroke-opacity:1"
         inkscape:connector-curvature="0" />
      <ellipse
         ry="75.232376"
         rx="75.752335"
         cx="395.38565"
         cy="748.18549"
         id="circle2187-6"
         style="fill:url(#linearGradient4260);fill-opacity:1;stroke:none;stroke-width:14;stroke-miterlimit:4;stroke-dasharray:none;stroke-opacity:1" />
      <path
         sodipodi:nodetypes="ccccccccccccccccc"
         inkscape:connector-curvature="0"
         style="fill:#99b000;fill-rule:evenodd;stroke:none;stroke-width:1px;stroke-linecap:butt;stroke-linejoin:miter;stroke-opacity:1"
         d="m 469.00982,847.36257 -24.99415,25 25.44532,24.44142 -0.43359,50.5312 -0.0274,0.027 -49.5293,-0.5586 -25.44531,-24.44142 -24.99609,25 c 5.87954,27.8653 19.76455,47.41723 49.99023,50 l 63.70508,1.9805 73.27539,73.01953 38,-38 -72.98438,-72.98443 0.0137,-0.016 -2.0293,-64 c -5.5208,-28.4998 -21.83999,-45.98145 -49.99023,-50 z"
         id="path4252" />
    </g>
  </g>
</svg>
