<?xml version="1.0" encoding="UTF-8" standalone="no"?>
<!-- Created with Inkscape (http://www.inkscape.org/) -->

<svg
   xmlns:dc="http://purl.org/dc/elements/1.1/"
   xmlns:cc="http://creativecommons.org/ns#"
   xmlns:rdf="http://www.w3.org/1999/02/22-rdf-syntax-ns#"
   xmlns:svg="http://www.w3.org/2000/svg"
   xmlns="http://www.w3.org/2000/svg"
   xmlns:xlink="http://www.w3.org/1999/xlink"
   xmlns:sodipodi="http://sodipodi.sourceforge.net/DTD/sodipodi-0.dtd"
   xmlns:inkscape="http://www.inkscape.org/namespaces/inkscape"
   width="210mm"
   height="297mm"
   viewBox="0 0 744.09448819 1052.3622047"
   id="svg2"
   version="1.1"
   inkscape:version="0.91 r13725"
   inkscape:export-xdpi="3.5999999"
   inkscape:export-ydpi="3.5999999"
   sodipodi:docname="user-other-new.svg"
   inkscape:export-filename="C:\Users\johannes\Documents\Arbeit\RRZE\github3\bicons\16x16\categories\user-other-new.png">
  <defs
     id="defs4">
    <linearGradient
       id="linearGradient2224">
      <stop
         id="stop2226"
         offset="0"
         style="stop-color:#7c7c7c;stop-opacity:1;" />
      <stop
         id="stop2228"
         offset="1"
         style="stop-color:#b8b8b8;stop-opacity:1;" />
    </linearGradient>
    <linearGradient
       id="linearGradient15218">
      <stop
         id="stop15220"
         offset="0"
         style="stop-color:#eeeeef;stop-opacity:1;" />
      <stop
         id="stop2736"
         offset="0.59928656"
         style="stop-color:#d3d7cf;stop-opacity:1;" />
      <stop
         id="stop2738"
         offset="0.82758623"
         style="stop-color:#ffffff;stop-opacity:1;" />
      <stop
         id="stop15222"
         offset="1"
         style="stop-color:#d3d7cf;stop-opacity:1;" />
    </linearGradient>
    <pattern
       y="0"
       x="0"
       height="6"
       width="6"
       patternUnits="userSpaceOnUse"
       id="EMFhbasepattern" />
    <pattern
       y="0"
       x="0"
       height="6"
       width="6"
       patternUnits="userSpaceOnUse"
       id="EMFhbasepattern-5" />
    <linearGradient
       inkscape:collect="always"
       xlink:href="#linearGradient4254"
       id="linearGradient4268"
       x1="358.43118"
       y1="465.73074"
       x2="429.96555"
       y2="644.62878"
       gradientUnits="userSpaceOnUse"
       gradientTransform="matrix(1.1386133,0,0,1.1369311,-245.06139,-375.21605)" />
    <linearGradient
       inkscape:collect="always"
       id="linearGradient4254">
      <stop
         style="stop-color:#7a8597;stop-opacity:1"
         offset="0"
         id="stop4256" />
      <stop
         style="stop-color:#4e505d;stop-opacity:1"
         offset="1"
         id="stop4258" />
    </linearGradient>
    <linearGradient
       inkscape:collect="always"
       xlink:href="#linearGradient4254"
       id="linearGradient4260"
       x1="380.01031"
       y1="330.40619"
       x2="414.6156"
       y2="457.18103"
       gradientUnits="userSpaceOnUse"
       gradientTransform="matrix(1.1539288,0,0,1.152224,-251.6585,271.63638)" />
  </defs>
  <sodipodi:namedview
     id="base"
     pagecolor="#ffffff"
     bordercolor="#666666"
     borderopacity="1.0"
     inkscape:pageopacity="0.0"
     inkscape:pageshadow="2"
     inkscape:zoom="0.35355339"
     inkscape:cx="502.28409"
     inkscape:cy="635.87521"
     inkscape:document-units="px"
     inkscape:current-layer="layer1"
     showgrid="false"
     showguides="true"
     inkscape:guide-bbox="true"
     inkscape:window-width="1366"
     inkscape:window-height="721"
     inkscape:window-x="-4"
     inkscape:window-y="-4"
     inkscape:window-maximized="1"
     inkscape:snap-bbox="true"
     inkscape:bbox-paths="true"
     inkscape:bbox-nodes="true">
    <sodipodi:guide
       position="315.53572,730.17859"
       orientation="0,1"
       id="guide3338" />
    <sodipodi:guide
       position="351.25,330.17858"
       orientation="0,1"
       id="guide3340" />
    <sodipodi:guide
       position="189.10714,408.8393"
       orientation="1,0"
       id="guide3344" />
    <sodipodi:guide
       position="589.04521,468.07945"
       orientation="1,0"
       id="guide3346" />
    <inkscape:grid
       type="xygrid"
       id="grid3440" />
    <sodipodi:guide
       position="589.04521,378.30213"
       orientation="1,0"
       id="guide3411" />
  </sodipodi:namedview>
  <metadata
     id="metadata7">
    <rdf:RDF>
      <cc:Work
         rdf:about="">
        <dc:format>image/svg+xml</dc:format>
        <dc:type
           rdf:resource="http://purl.org/dc/dcmitype/StillImage" />
        <dc:title>user other new</dc:title>
        <dc:date>June 2015</dc:date>
        <dc:creator>
          <cc:Agent>
            <dc:title>Johannes Hechler</dc:title>
          </cc:Agent>
        </dc:creator>
        <dc:rights>
          <cc:Agent>
            <dc:title>Johannes Hechler</dc:title>
          </cc:Agent>
        </dc:rights>
        <dc:publisher>
          <cc:Agent>
            <dc:title>RRZE</dc:title>
          </cc:Agent>
        </dc:publisher>
        <dc:contributor>
          <cc:Agent>
            <dc:title>Ute Weber, Hendrik Eggers</dc:title>
          </cc:Agent>
        </dc:contributor>
      </cc:Work>
    </rdf:RDF>
  </metadata>
  <g
     inkscape:label="Ebene 1"
     inkscape:groupmode="layer"
     id="layer1">
    <g
       transform="translate(189.04521,-330.17853)"
       id="g7178">
      <flowRoot
         style="font-style:normal;font-weight:normal;font-size:40px;line-height:125%;font-family:sans-serif;letter-spacing:0px;word-spacing:0px;fill:#252525;fill-opacity:1;stroke:none;stroke-width:1px;stroke-linecap:butt;stroke-linejoin:miter;stroke-opacity:1"
         id="flowRoot4169"
         xml:space="preserve"
         transform="matrix(1,0,0,0.99852263,-189.14484,330.56827)"><flowRegion
           id="flowRegion4171"><rect
             y="427.07962"
             x="89.541069"
             height="88.78862"
             width="56.433445"
             id="rect4173" /></flowRegion><flowPara
           id="flowPara4175" /></flowRoot>      <rect
         inkscape:export-ydpi="4.9499998"
         inkscape:export-xdpi="4.9499998"
         y="652.36218"
         x="-2.3162841e-008"
         height="399.40906"
         width="400"
         id="rect3336"
         style="fill:none;fill-rule:evenodd;stroke:none;stroke-width:1px;stroke-linecap:butt;stroke-linejoin:miter;stroke-opacity:1" />
      <path
         inkscape:connector-curvature="0"
         id="path2176"
         transform="translate(0,652.36216)"
         d="m 150.74023,164.2207 c -0.13373,0.11813 -0.25652,0.24668 -0.39453,0.36133 -61.162669,49.39285 -81.682382,117.75169 -82.296872,167.08399 0,17.38926 1.588955,34.23837 4.552734,50.26757 4.396159,9.8201 15.44085,17.01694 28.675778,17.95703 l 0,0.10938 104.15235,0 c -0.18748,-1.47408 -0.24653,-2.75858 -0.2793,-3.96094 -0.12407,-4.5496 0.3049,-8.15045 0.8418,-12.03125 1.07378,-7.7615 2.86357,-16.16372 4.69922,-24.51562 1.83564,-8.352 3.73044,-16.57131 4.92773,-22.58203 0.009,-0.0435 0.007,-0.0523 0.0156,-0.0957 -0.0335,-0.0314 -0.0386,-0.0409 -0.0723,-0.0723 -4.4808,-4.18147 -10.81393,-9.7492 -17.17969,-15.45899 -6.36576,-5.70979 -12.72638,-11.48697 -18.1289,-17.16211 -2.70126,-2.83756 -5.15003,-5.51084 -7.70508,-9.27734 -1.27753,-1.88326 -2.6484,-3.99522 -3.98242,-7.58008 -1.33401,-3.58485 -3.31181,-9.53019 -0.49414,-18.1289 2.81767,-8.5987 7.93005,-12.22017 11.12695,-14.32032 3.19691,-2.10014 5.55293,-2.99 7.69726,-3.75195 4.28864,-1.52393 7.84248,-2.22936 11.69922,-2.91797 7.71347,-1.37721 16.26107,-2.27038 24.77149,-3.10547 8.51042,-0.83509 16.90957,-1.57424 22.99609,-2.29297 0.0458,-0.005 0.0561,-0.0106 0.10156,-0.0156 0.0187,-0.0401 0.0261,-0.0475 0.0449,-0.0879 2.59218,-5.55363 5.92936,-13.30052 9.39257,-21.11914 3.46321,-7.81862 6.99281,-15.6531 10.72071,-22.54492 1.86395,-3.4459 3.64879,-6.59944 6.4414,-10.19336 0.6969,-0.89687 1.44191,-1.83301 2.38477,-2.8418 -7.00474,-7.11862 -14.76347,-14.16227 -23.35742,-21.10352 -12.47076,6.99147 -34.84763,7.00977 -50.13477,7.00977 -15.73277,2e-5 -38.49842,-0.25465 -51.2168,-7.62891 z m 103.03711,76.80274 c -0.26113,0.0208 -0.919,0.3184 -1.97851,0.94336 0.31123,-0.0525 1.05161,-0.13874 1.27148,-0.18164 0.57948,-0.11306 1.19856,-0.80082 0.70703,-0.76172 z m -9.71289,6.5332 c -2.67039,2.33568 -1.01708,1.93871 -0.57422,1.15039 0.1098,-0.19544 0.42655,-0.87111 0.57422,-1.15039 z m 51.8711,6.97852 c -1.37553,3.10496 -2.80275,6.43164 -4.11914,9.25195 -1.56612,3.35536 -3.04323,6.40334 -4.73243,9.41016 -1.68919,3.00682 -0.80171,5.31664 -9.9707,11.94335 -9.16899,6.62672 -11.08181,5.05831 -14.4668,5.71876 -3.38499,0.66045 -6.74065,1.10677 -10.41796,1.54101 -3.09105,0.36501 -6.69825,0.67794 -10.07813,1.00977 2.52793,2.26769 5.2499,4.6519 7.52539,6.77539 2.70717,2.52634 5.14866,4.87446 7.48633,7.41015 2.33766,2.53567 4.80833,2.40192 8.27734,13.16992 3.469,10.76801 1.38665,12.10394 0.96875,15.52735 -0.41789,3.42341 -1.03053,6.7552 -1.7539,10.38672 -0.60794,3.05206 -1.42558,6.57813 -2.1543,9.89453 2.93763,-1.7033 6.04702,-3.55665 8.76953,-5.06445 3.23925,-1.794 6.22737,-3.38848 9.36133,-4.82813 3.13395,-1.43969 3.77102,-3.83103 15.08398,-3.80273 11.31296,0.0283 11.93968,2.42162 15.06641,3.87695 3.12671,1.45533 6.10373,3.06675 9.33398,4.87695 2.7155,1.5217 5.81637,3.38902 8.7461,5.10742 -0.7123,-3.3207 -1.51268,-6.85063 -2.10547,-9.90625 -0.70522,-3.63509 -1.3004,-6.96908 -1.70117,-10.39453 -0.40078,-3.42546 -2.47787,-4.77097 1.04492,-15.52148 2.96756,-9.05617 5.18542,-10.38442 7.2168,-12.08594 -0.44645,-5.76259 -1.13589,-11.56797 -2.11524,-17.40625 -0.71999,-0.12658 -1.43905,-0.25634 -2.1582,-0.40039 -3.38164,-0.67736 -5.30369,0.88145 -14.43945,-5.79101 -9.13575,-6.67247 -8.23601,-8.97892 -9.91016,-11.99415 -1.67414,-3.01523 -3.13425,-6.06849 -4.68359,-9.43164 -1.30239,-2.8271 -2.71412,-6.16135 -4.07422,-9.27343 z m -79.52735,74.65039 c -0.0583,-0.0167 -0.10804,0.0227 -0.13672,0.14257 -0.061,0.25495 0.0177,0.97342 0.28516,2.17579 0.0464,-0.31304 0.19155,-1.04478 0.21875,-1.26758 0.0537,-0.43955 -0.19226,-1.0006 -0.36719,-1.05078 z m 3.07422,11.39843 c 1.39592,3.2606 1.53082,1.56711 0.91797,0.90235 -0.15193,-0.16479 -0.69802,-0.67565 -0.91797,-0.90235 z m 69.75586,51.39258 c -0.15334,-0.013 -0.30374,-0.005 -0.42383,0.0195 -0.49537,0.1011 -0.3734,0.46401 2.00391,0.69141 -0.28249,-0.1403 -0.93373,-0.50756 -1.13672,-0.60156 -0.13381,-0.0625 -0.29001,-0.0964 -0.44336,-0.10938 z m 12.70703,0.0312 c -0.15359,0.0121 -0.30923,0.0458 -0.44336,0.10742 -0.20349,0.0935 -0.85543,0.45671 -1.13867,0.59571 2.37877,-0.2155 2.50074,-0.57609 2.00586,-0.67969 -0.11996,-0.0251 -0.27023,-0.0356 -0.42383,-0.0234 z m -6.36133,3.19531 c -0.0394,0.022 -0.0483,0.0249 -0.0879,0.0469 -2.42651,1.3439 -5.27504,2.98444 -8.31445,4.75 l 10.80469,0 0,-0.01 c 1.76733,-0.0249 3.49851,-0.16892 5.18945,-0.4082 -2.72246,-1.59668 -5.29796,-3.095 -7.50195,-4.33008 -0.04,-0.023 -0.05,-0.0268 -0.0899,-0.0488 z"
         style="fill:url(#linearGradient4268);fill-opacity:1;stroke:none;stroke-width:41.15159225;stroke-linecap:round;stroke-linejoin:round;stroke-opacity:1" />
      <ellipse
         ry="75.232376"
         rx="75.752335"
         cx="201.38567"
         cy="728.18549"
         id="circle2187-6"
         style="fill:url(#linearGradient4260);fill-opacity:1;stroke:none;stroke-width:14;stroke-miterlimit:4;stroke-dasharray:none;stroke-opacity:1" />
      <path
         transform="matrix(0.82854315,0.02093137,-0.02093137,0.82854315,11.05524,551.26906)"
         inkscape:transform-center-y="-12.735372"
         inkscape:transform-center-x="-0.09292802"
         d="m 436,593.36221 c -6.87748,5.23998 -69.79398,-36.57256 -78.43797,-36.3758 -8.64398,0.19675 -69.59282,44.82873 -76.7016,39.90711 -7.10878,-4.92163 13.21504,-77.67957 10.35678,-85.83968 -2.85826,-8.16012 -64.14003,-52.33387 -61.65602,-60.61559 2.48401,-8.28172 77.96133,-11.43605 84.83881,-16.67603 6.87748,-5.23999 29.95211,-77.17285 38.59609,-77.36961 8.64398,-0.19675 34.96771,70.6117 42.07649,75.53332 7.10877,4.92163 82.65145,4.63843 85.50971,12.79855 2.85826,8.16011 -56.3501,55.07648 -58.83411,63.35819 -2.48401,8.28172 21.1293,80.03956 14.25182,85.27954 z"
         inkscape:randomized="0"
         inkscape:rounded="0.1"
         inkscape:flatsided="false"
         sodipodi:arg2="1.5480381"
         sodipodi:arg1="0.91971961"
         sodipodi:r2="68.641968"
         sodipodi:r1="132.00378"
         sodipodi:cy="488.36221"
         sodipodi:cx="356"
         sodipodi:sides="5"
         id="path4159"
         style="opacity:1;fill:#fbb516;fill-opacity:1;fill-rule:nonzero;stroke:none;stroke-width:14;stroke-linecap:round;stroke-linejoin:round;stroke-miterlimit:4;stroke-dasharray:none;stroke-opacity:1"
         sodipodi:type="star" />
    </g>
  </g>
</svg>
