<?xml version="1.0" encoding="UTF-8" standalone="no"?>
<!-- Created with Inkscape (http://www.inkscape.org/) -->

<svg
   xmlns:dc="http://purl.org/dc/elements/1.1/"
   xmlns:cc="http://creativecommons.org/ns#"
   xmlns:rdf="http://www.w3.org/1999/02/22-rdf-syntax-ns#"
   xmlns:svg="http://www.w3.org/2000/svg"
   xmlns="http://www.w3.org/2000/svg"
   xmlns:xlink="http://www.w3.org/1999/xlink"
   xmlns:sodipodi="http://sodipodi.sourceforge.net/DTD/sodipodi-0.dtd"
   xmlns:inkscape="http://www.inkscape.org/namespaces/inkscape"
   width="210mm"
   height="297mm"
   viewBox="0 0 744.09448819 1052.3622047"
   id="svg2"
   version="1.1"
   inkscape:version="0.91 r13725"
   inkscape:export-xdpi="3.5999999"
   inkscape:export-ydpi="3.5999999"
   sodipodi:docname="user-edit.svg"
   inkscape:export-filename="C:\Users\johannes\Documents\Arbeit\RRZE\github3\bicons\16x16\categories\user-edit.png">
  <defs
     id="defs4">
    <linearGradient
       id="linearGradient2224">
      <stop
         id="stop2226"
         offset="0"
         style="stop-color:#7c7c7c;stop-opacity:1;" />
      <stop
         id="stop2228"
         offset="1"
         style="stop-color:#b8b8b8;stop-opacity:1;" />
    </linearGradient>
    <linearGradient
       id="linearGradient15218">
      <stop
         id="stop15220"
         offset="0"
         style="stop-color:#eeeeef;stop-opacity:1;" />
      <stop
         id="stop2736"
         offset="0.59928656"
         style="stop-color:#d3d7cf;stop-opacity:1;" />
      <stop
         id="stop2738"
         offset="0.82758623"
         style="stop-color:#ffffff;stop-opacity:1;" />
      <stop
         id="stop15222"
         offset="1"
         style="stop-color:#d3d7cf;stop-opacity:1;" />
    </linearGradient>
    <pattern
       y="0"
       x="0"
       height="6"
       width="6"
       patternUnits="userSpaceOnUse"
       id="EMFhbasepattern" />
    <pattern
       y="0"
       x="0"
       height="6"
       width="6"
       patternUnits="userSpaceOnUse"
       id="EMFhbasepattern-5" />
    <linearGradient
       inkscape:collect="always"
       xlink:href="#linearGradient4254"
       id="linearGradient4268"
       x1="358.43118"
       y1="465.73074"
       x2="429.96555"
       y2="644.62878"
       gradientUnits="userSpaceOnUse"
       gradientTransform="matrix(1.1386133,0,0,1.1369311,-55.954258,-53.032427)" />
    <linearGradient
       inkscape:collect="always"
       id="linearGradient4254">
      <stop
         style="stop-color:#7a8597;stop-opacity:1"
         offset="0"
         id="stop4256" />
      <stop
         style="stop-color:#4e505d;stop-opacity:1"
         offset="1"
         id="stop4258" />
    </linearGradient>
    <linearGradient
       inkscape:collect="always"
       xlink:href="#linearGradient4254"
       id="linearGradient4260"
       x1="380.01031"
       y1="330.40619"
       x2="414.6156"
       y2="457.18103"
       gradientUnits="userSpaceOnUse"
       gradientTransform="matrix(1.1539288,0,0,1.152224,-62.551372,-58.542157)" />
  </defs>
  <sodipodi:namedview
     id="base"
     pagecolor="#ffffff"
     bordercolor="#666666"
     borderopacity="1.0"
     inkscape:pageopacity="0.0"
     inkscape:pageshadow="2"
     inkscape:zoom="0.7071068"
     inkscape:cx="375.89338"
     inkscape:cy="523.50441"
     inkscape:document-units="px"
     inkscape:current-layer="layer1"
     showgrid="false"
     showguides="true"
     inkscape:guide-bbox="true"
     inkscape:window-width="1366"
     inkscape:window-height="721"
     inkscape:window-x="-4"
     inkscape:window-y="-4"
     inkscape:window-maximized="1"
     inkscape:snap-bbox="true"
     inkscape:bbox-paths="true"
     inkscape:bbox-nodes="true">
    <sodipodi:guide
       position="315.53572,730.17859"
       orientation="0,1"
       id="guide3338" />
    <sodipodi:guide
       position="351.25,330.17858"
       orientation="0,1"
       id="guide3340" />
    <sodipodi:guide
       position="189.10714,408.8393"
       orientation="1,0"
       id="guide3344" />
    <sodipodi:guide
       position="589.04521,468.07945"
       orientation="1,0"
       id="guide3346" />
    <inkscape:grid
       type="xygrid"
       id="grid3440" />
    <sodipodi:guide
       position="589.04521,378.30213"
       orientation="1,0"
       id="guide3411" />
  </sodipodi:namedview>
  <metadata
     id="metadata7">
    <rdf:RDF>
      <cc:Work
         rdf:about="">
        <dc:format>image/svg+xml</dc:format>
        <dc:type
           rdf:resource="http://purl.org/dc/dcmitype/StillImage" />
        <dc:title>user edit</dc:title>
        <dc:date>June 2015</dc:date>
        <dc:creator>
          <cc:Agent>
            <dc:title>Johannes Hechler</dc:title>
          </cc:Agent>
        </dc:creator>
        <dc:rights>
          <cc:Agent>
            <dc:title>Johannes Hechler</dc:title>
          </cc:Agent>
        </dc:rights>
        <dc:publisher>
          <cc:Agent>
            <dc:title>RRZE</dc:title>
          </cc:Agent>
        </dc:publisher>
        <dc:contributor>
          <cc:Agent>
            <dc:title>Ute Weber, Hendrik Eggers</dc:title>
          </cc:Agent>
        </dc:contributor>
      </cc:Work>
    </rdf:RDF>
  </metadata>
  <g
     inkscape:label="Ebene 1"
     inkscape:groupmode="layer"
     id="layer1">
    <g
       id="g4222">
      <flowRoot
         transform="translate(0.82143757,0.0193996)"
         xml:space="preserve"
         id="flowRoot4169"
         style="font-style:normal;font-weight:normal;font-size:40px;line-height:125%;font-family:sans-serif;letter-spacing:0px;word-spacing:0px;fill:#252525;fill-opacity:1;stroke:none;stroke-width:1px;stroke-linecap:butt;stroke-linejoin:miter;stroke-opacity:1"><flowRegion
           id="flowRegion4171"><rect
             id="rect4173"
             width="56.433445"
             height="88.78862"
             x="89.541069"
             y="427.07962" /></flowRegion><flowPara
           id="flowPara4175" /></flowRoot>      <g
         id="g4276"
         style="stroke:#ffffff;stroke-width:50;stroke-linejoin:round;stroke-miterlimit:4;stroke-dasharray:none"
         transform="translate(0.96628941,0.22312427)" />
      <g
         style="font-style:normal;font-weight:normal;font-size:179.84141541px;line-height:125%;font-family:sans-serif;letter-spacing:0px;word-spacing:0px;fill:#000000;fill-opacity:1;stroke:none;stroke-width:1px;stroke-linecap:butt;stroke-linejoin:miter;stroke-opacity:1"
         id="text4426"
         transform="translate(0.96628941,0.22312427)" />
      <flowRoot
         style="font-style:normal;font-weight:normal;font-size:40px;line-height:125%;font-family:sans-serif;letter-spacing:0px;word-spacing:0px;fill:#252525;fill-opacity:1;stroke:none;stroke-width:1px;stroke-linecap:butt;stroke-linejoin:miter;stroke-opacity:1"
         id="flowRoot4169-8"
         xml:space="preserve"
         transform="matrix(1,0,0,0.99852263,-0.037708,0.389733)"><flowRegion
           id="flowRegion4171-2"><rect
             y="427.07962"
             x="89.541069"
             height="88.78862"
             width="56.433445"
             id="rect4173-4" /></flowRegion><flowPara
           id="flowPara4175-7" /></flowRoot>      <rect
         inkscape:export-ydpi="4.9499998"
         inkscape:export-xdpi="4.9499998"
         y="322.18362"
         x="189.10713"
         height="399.40906"
         width="400"
         id="rect3336"
         style="fill:none;fill-rule:evenodd;stroke:none;stroke-width:1px;stroke-linecap:butt;stroke-linejoin:miter;stroke-opacity:1" />
      <path
         id="path2176"
         d="M 339.8457 486.4043 C 339.71197 486.52243 339.59114 486.65097 339.45312 486.76562 C 278.29046 536.15847 257.77074 604.51734 257.15625 653.84961 C 257.15625 671.2389 258.74325 688.08796 261.70703 704.11719 C 266.10319 713.93731 277.14984 721.13414 290.38477 722.07422 L 290.38477 722.18359 L 339.04492 722.18359 L 339.04492 666.18359 A 25.0025 25.0025 0 0 1 364.11523 641.18359 C 364.3469 641.18419 364.57328 641.20503 364.80469 641.20703 A 25.0025 25.0025 0 0 1 371.5625 629.31445 L 463.5957 539.27344 A 25.0025 25.0025 0 0 1 478.29688 532.29688 C 478.59964 532.26297 478.87812 532.2816 479.17969 532.25 A 25.0025 25.0025 0 0 1 480.48242 526.01758 C 469.88816 512.78454 456.93337 499.73528 441.19727 487.02539 C 428.72651 494.01686 406.35159 494.0332 391.06445 494.0332 C 375.33168 494.03322 352.56408 493.77856 339.8457 486.4043 z M 491.84375 581.58594 L 436.67383 635.56055 C 439.81039 637.73832 442.81098 640.12585 445.51953 642.9375 C 447.71282 645.21427 449.59924 647.65959 451.34766 650.17578 L 505.72656 596.97266 C 505.07447 590.52961 503.69934 586.3288 502.74609 584.91992 C 501.41069 582.94622 501.48056 581.7279 491.84375 581.58594 z M 523.04492 649.97852 L 456.5293 715.05273 A 25.0025 25.0025 0 0 1 445.02539 721.43945 C 445.02759 721.57669 445.04097 721.71031 445.04297 721.84766 A 25.0025 25.0025 0 0 1 445.0332 722.18359 L 487.09375 722.18359 L 487.09375 722.17383 C 501.94866 721.96445 514.45843 713.89299 518.66211 702.82812 C 521.47494 687.18488 522.50684 670.76806 522.97852 653.84961 C 523.01437 652.56345 523.03068 651.27106 523.04492 649.97852 z "
         style="fill:url(#linearGradient4268);fill-opacity:1;stroke:none;stroke-width:41.15159225;stroke-linecap:round;stroke-linejoin:round;stroke-opacity:1" />
      <ellipse
         ry="75.232376"
         rx="75.752335"
         cx="390.4928"
         cy="398.00693"
         id="circle2187-6"
         style="fill:url(#linearGradient4260);fill-opacity:1;stroke:none;stroke-width:14;stroke-miterlimit:4;stroke-dasharray:none;stroke-opacity:1" />
      <path
         id="path4230"
         d="m 539.04521,497.18363 -34.95898,36.95117 c 39.12112,1.20291 49.95336,16.62534 50,50 l 34.95898,-36.95117 c -0.42603,-26.21463 -21.81993,-49.25806 -50,-50 z m -47.45117,59.38086 c -3.25802,-0.0311 -6.75751,0.15748 -10.51563,0.57812 l -92.0332,90.04102 c 35.85935,0.80831 50.0617,17.45448 50,50 l 92.0332,-90.04102 c 0.81592,-29.48359 -7.99014,-50.27788 -39.48437,-50.57812 z m -127.54883,109.61914 0,56 56,0 c -0.5226,-38.9207 -17.63251,-55.8917 -56,-56 z"
         style="fill:#97ae00;fill-opacity:1;fill-rule:evenodd;stroke:none;stroke-width:1px;stroke-linecap:butt;stroke-linejoin:miter;stroke-opacity:1"
         inkscape:connector-curvature="0" />
    </g>
  </g>
</svg>
