<?xml version="1.0" encoding="UTF-8" standalone="no"?>
<!-- Created with Inkscape (http://www.inkscape.org/) -->

<svg
   xmlns:dc="http://purl.org/dc/elements/1.1/"
   xmlns:cc="http://creativecommons.org/ns#"
   xmlns:rdf="http://www.w3.org/1999/02/22-rdf-syntax-ns#"
   xmlns:svg="http://www.w3.org/2000/svg"
   xmlns="http://www.w3.org/2000/svg"
   xmlns:xlink="http://www.w3.org/1999/xlink"
   xmlns:sodipodi="http://sodipodi.sourceforge.net/DTD/sodipodi-0.dtd"
   xmlns:inkscape="http://www.inkscape.org/namespaces/inkscape"
   width="210mm"
   height="297mm"
   viewBox="0 0 744.09448819 1052.3622047"
   id="svg2"
   version="1.1"
   inkscape:version="0.91 r13725"
   inkscape:export-xdpi="3.5999999"
   inkscape:export-ydpi="3.5999999"
   sodipodi:docname="user-customer.svg"
   inkscape:export-filename="C:\Users\johannes\Documents\Arbeit\RRZE\github3\bicons\16x16\categories\user-customer.png">
  <defs
     id="defs4">
    <linearGradient
       id="linearGradient2224">
      <stop
         id="stop2226"
         offset="0"
         style="stop-color:#7c7c7c;stop-opacity:1;" />
      <stop
         id="stop2228"
         offset="1"
         style="stop-color:#b8b8b8;stop-opacity:1;" />
    </linearGradient>
    <linearGradient
       id="linearGradient15218">
      <stop
         id="stop15220"
         offset="0"
         style="stop-color:#eeeeef;stop-opacity:1;" />
      <stop
         id="stop2736"
         offset="0.59928656"
         style="stop-color:#d3d7cf;stop-opacity:1;" />
      <stop
         id="stop2738"
         offset="0.82758623"
         style="stop-color:#ffffff;stop-opacity:1;" />
      <stop
         id="stop15222"
         offset="1"
         style="stop-color:#d3d7cf;stop-opacity:1;" />
    </linearGradient>
    <pattern
       y="0"
       x="0"
       height="6"
       width="6"
       patternUnits="userSpaceOnUse"
       id="EMFhbasepattern" />
    <pattern
       y="0"
       x="0"
       height="6"
       width="6"
       patternUnits="userSpaceOnUse"
       id="EMFhbasepattern-5" />
    <linearGradient
       inkscape:collect="always"
       xlink:href="#linearGradient4254"
       id="linearGradient4268"
       x1="358.43118"
       y1="465.73074"
       x2="429.96555"
       y2="644.62878"
       gradientUnits="userSpaceOnUse"
       gradientTransform="matrix(1.1386133,0,0,1.1369311,-245.06139,-375.21606)" />
    <linearGradient
       inkscape:collect="always"
       id="linearGradient4254">
      <stop
         style="stop-color:#7a8597;stop-opacity:1"
         offset="0"
         id="stop4256" />
      <stop
         style="stop-color:#4e505d;stop-opacity:1"
         offset="1"
         id="stop4258" />
    </linearGradient>
    <linearGradient
       inkscape:collect="always"
       xlink:href="#linearGradient4254"
       id="linearGradient4260"
       x1="380.01031"
       y1="330.40619"
       x2="414.6156"
       y2="457.18103"
       gradientUnits="userSpaceOnUse"
       gradientTransform="matrix(1.1539288,0,0,1.152224,-251.6585,271.63637)" />
  </defs>
  <sodipodi:namedview
     id="base"
     pagecolor="#ffffff"
     bordercolor="#666666"
     borderopacity="1.0"
     inkscape:pageopacity="0.0"
     inkscape:pageshadow="2"
     inkscape:zoom="0.70710678"
     inkscape:cx="191.07057"
     inkscape:cy="468.34522"
     inkscape:document-units="px"
     inkscape:current-layer="layer1"
     showgrid="false"
     showguides="true"
     inkscape:guide-bbox="true"
     inkscape:window-width="1366"
     inkscape:window-height="721"
     inkscape:window-x="-4"
     inkscape:window-y="-4"
     inkscape:window-maximized="1"
     inkscape:snap-bbox="true"
     inkscape:bbox-paths="true"
     inkscape:bbox-nodes="true"
     inkscape:snap-nodes="false">
    <sodipodi:guide
       position="315.53572,730.17859"
       orientation="0,1"
       id="guide3338" />
    <sodipodi:guide
       position="351.25,330.17858"
       orientation="0,1"
       id="guide3340" />
    <sodipodi:guide
       position="189.10714,408.8393"
       orientation="1,0"
       id="guide3344" />
    <sodipodi:guide
       position="589.04521,468.07945"
       orientation="1,0"
       id="guide3346" />
    <inkscape:grid
       type="xygrid"
       id="grid3440" />
    <sodipodi:guide
       position="589.04521,378.30213"
       orientation="1,0"
       id="guide3411" />
  </sodipodi:namedview>
  <metadata
     id="metadata7">
    <rdf:RDF>
      <cc:Work
         rdf:about="">
        <dc:format>image/svg+xml</dc:format>
        <dc:type
           rdf:resource="http://purl.org/dc/dcmitype/StillImage" />
        <dc:title>user customer</dc:title>
        <dc:date>June 2015</dc:date>
        <dc:creator>
          <cc:Agent>
            <dc:title>Johannes Hechler</dc:title>
          </cc:Agent>
        </dc:creator>
        <dc:rights>
          <cc:Agent>
            <dc:title>Johannes Hechler</dc:title>
          </cc:Agent>
        </dc:rights>
        <dc:publisher>
          <cc:Agent>
            <dc:title>RRZE</dc:title>
          </cc:Agent>
        </dc:publisher>
        <dc:contributor>
          <cc:Agent>
            <dc:title>Ute Weber, Hendrik Eggers</dc:title>
          </cc:Agent>
        </dc:contributor>
      </cc:Work>
    </rdf:RDF>
  </metadata>
  <g
     inkscape:label="Ebene 1"
     inkscape:groupmode="layer"
     id="layer1">
    <g
       transform="translate(189.04521,-330.17853)"
       id="g4553">
      <g
         id="g4322"
         transform="translate(-1.9580077e-6,-2.2617187e-5)">
        <flowRoot
           transform="matrix(1,0,0,0.99852263,-189.14484,330.56826)"
           xml:space="preserve"
           id="flowRoot4169"
           style="font-style:normal;font-weight:normal;font-size:40px;line-height:125%;font-family:sans-serif;letter-spacing:0px;word-spacing:0px;fill:#252525;fill-opacity:1;stroke:none;stroke-width:1px;stroke-linecap:butt;stroke-linejoin:miter;stroke-opacity:1"><flowRegion
             id="flowRegion4171"><rect
               id="rect4173"
               width="56.433445"
               height="88.78862"
               x="89.541069"
               y="427.07962" /></flowRegion><flowPara
             id="flowPara4175" /></flowRoot>        <rect
           style="fill:none;fill-rule:evenodd;stroke:none;stroke-width:1px;stroke-linecap:butt;stroke-linejoin:miter;stroke-opacity:1"
           id="rect3336"
           width="400"
           height="399.40906"
           x="1.9580077e-006"
           y="652.36218"
           inkscape:export-xdpi="4.9499998"
           inkscape:export-ydpi="4.9499998" />
        <path
           style="fill:url(#linearGradient4268);fill-opacity:1;stroke:none;stroke-width:41.15159225;stroke-linecap:round;stroke-linejoin:round;stroke-opacity:1"
           d="m 150.74023,164.2207 c -0.13373,0.11813 -0.25652,0.24668 -0.39453,0.36133 -61.162667,49.39285 -81.682382,117.75172 -82.296872,167.08399 0,17.3893 1.588955,34.23837 4.552734,50.26757 4.39616,9.8201 15.440852,17.01694 28.675778,17.95703 l 0,0.10938 84.66797,0 C 163.97443,381.06794 150,353.07458 150,321.98828 l 0,-18.97656 c 0,-25.03327 9.10363,-48.08611 24.04297,-65.99219 l -17.09766,-70.00976 c -2.24201,-0.79653 -4.341,-1.70826 -6.20508,-2.78907 z m 101.35157,0.61914 c -1.80808,1.01367 -3.84489,1.86576 -6.01758,2.60743 L 283.60547,200 l 4.62891,0 c -9.98643,-11.91997 -21.92837,-23.67948 -36.14258,-35.16016 z m -33.15039,45.26172 6.90429,28.27344 a 25.0025,25.0025 0 0 1 -7.80859,24.73242 C 206.95341,272.82178 200,286.84289 200,303.01172 l 0,18.97656 C 200,351.78954 223.21051,375 253.01172,375 l 68.97656,0 c 2.93647,0 5.80507,-0.23316 8.59766,-0.66797 2.04371,-13.72852 2.87844,-28.00769 3.28711,-42.66601 C 334.60659,305.35476 330.88108,277.67393 319.16016,250 l -44.88672,0 a 25.0025,25.0025 0 0 1 -16.38086,-6.11328 l -38.95117,-33.78516 z"
           transform="translate(0,652.36216)"
           id="path2176"
           inkscape:connector-curvature="0" />
        <ellipse
           style="fill:url(#linearGradient4260);fill-opacity:1;stroke:none;stroke-width:14;stroke-miterlimit:4;stroke-dasharray:none;stroke-opacity:1"
           id="circle2187-6"
           cy="728.18549"
           cx="201.38567"
           rx="75.752335"
           ry="75.232376" />
        <path
           style="color:#000000;clip-rule:nonzero;display:inline;overflow:visible;visibility:visible;opacity:1;isolation:auto;mix-blend-mode:normal;color-interpolation:sRGB;color-interpolation-filters:linearRGB;solid-color:#000000;solid-opacity:1;fill:#99b000;fill-opacity:1;fill-rule:nonzero;stroke:none;stroke-width:50;stroke-linecap:square;stroke-linejoin:round;stroke-miterlimit:4;stroke-dasharray:none;stroke-dashoffset:0;stroke-opacity:1;color-rendering:auto;image-rendering:auto;shape-rendering:auto;text-rendering:auto;enable-background:accumulate"
           d="m 175.36328,153.92773 26.19531,90.37891 C 185.26844,258.58421 175,279.5488 175,303.01172 l 0,18.97656 C 175,365.20694 209.79306,400 253.01172,400 l 68.97656,0 C 365.20694,400 400,365.20694 400,321.98828 l 0,-18.97656 C 400,259.79306 365.20694,225 321.98828,225 l -47.71484,0 -83.86914,-69.57227 z"
           transform="translate(0,652.36216)"
           id="rect4307"
           inkscape:connector-curvature="0"
           sodipodi:nodetypes="ccsssssssccc" />
      </g>
      <path
         sodipodi:nodetypes="cccccccsscccscsccccscscccccssc"
         d="m 275.24014,1001.916 24.75986,0.4462 0,25 -25,0 z m 20.25925,-25.53084 -19.97365,0 0,-2.66449 c 0,-5.53724 -3.12171,-2.08767 -1.36512,-5.6513 1.75659,-3.56357 -0.54204,-7.70283 5.10413,-12.41779 l 12.46927,-11.31905 c 3.57591,-2.90569 10.14806,-1.64692 11.71644,-4.22368 1.63111,-2.57676 2.44667,-5.20834 2.44667,-7.89473 0,-4.87938 -2.07026,-8.82675 -6.21079,-11.84211 -4.07779,-3.01535 -9.50439,-4.52302 -16.2798,-4.52302 -4.95609,0 -10.25722,0.95943 -15.90339,2.87829 -5.58343,1.91885 -11.41781,4.71491 -17.50314,8.38816 l 0,-19.46053 c 5.89712,-3.125 11.85697,-5.45504 17.87955,-6.99013 6.08532,-1.53509 12.35885,-2.30263 18.82058,-2.30263 11.54329,0 20.79674,2.65899 27.76035,7.97697 7.02635,5.31798 12.38125,11.04057 12.38125,19.75768 0,4.16666 0.13695,13.43639 -2.12152,17.21926 -2.25847,3.72809 -5.52014,7.94959 -11.16631,12.66449 l -9.0868,6.72703 c -2.94856,2.57676 -4.043,2.95059 -5.2977,4.43086 -1.19197,1.42543 -2.0389,2.82346 -2.54078,4.19411 -0.37641,1.15133 -0.65872,4.54937 -0.84693,6.1941 -0.18821,1.64474 -0.28231,-4.10746 -0.28231,-1.25661 z"
         style="font-style:normal;font-weight:normal;font-size:medium;line-height:125%;font-family:sans-serif;text-align:center;letter-spacing:0px;word-spacing:0px;text-anchor:middle;fill:#ffffff;fill-opacity:1;stroke:none;stroke-width:1px;stroke-linecap:butt;stroke-linejoin:miter;stroke-opacity:1"
         id="path4550"
         inkscape:connector-curvature="0" />
    </g>
  </g>
</svg>
