<?xml version="1.0" encoding="UTF-8" standalone="no"?>
<!-- Created with Inkscape (http://www.inkscape.org/) -->

<svg
   xmlns:dc="http://purl.org/dc/elements/1.1/"
   xmlns:cc="http://creativecommons.org/ns#"
   xmlns:rdf="http://www.w3.org/1999/02/22-rdf-syntax-ns#"
   xmlns:svg="http://www.w3.org/2000/svg"
   xmlns="http://www.w3.org/2000/svg"
   xmlns:xlink="http://www.w3.org/1999/xlink"
   xmlns:sodipodi="http://sodipodi.sourceforge.net/DTD/sodipodi-0.dtd"
   xmlns:inkscape="http://www.inkscape.org/namespaces/inkscape"
   width="210mm"
   height="297mm"
   viewBox="0 0 744.09448819 1052.3622047"
   id="svg2"
   version="1.1"
   inkscape:version="0.91 r13725"
   inkscape:export-xdpi="3.5999994"
   inkscape:export-ydpi="3.5999994"
   sodipodi:docname="user-honorary-professor.svg"
   inkscape:export-filename="C:\Users\johannes\Documents\Arbeit\RRZE\github3\bicons\16x16\categories\user-honorary-professor.png">
  <defs
     id="defs4">
    <linearGradient
       id="linearGradient2224">
      <stop
         id="stop2226"
         offset="0"
         style="stop-color:#7c7c7c;stop-opacity:1;" />
      <stop
         id="stop2228"
         offset="1"
         style="stop-color:#b8b8b8;stop-opacity:1;" />
    </linearGradient>
    <linearGradient
       id="linearGradient15218">
      <stop
         id="stop15220"
         offset="0"
         style="stop-color:#eeeeef;stop-opacity:1;" />
      <stop
         id="stop2736"
         offset="0.59928656"
         style="stop-color:#d3d7cf;stop-opacity:1;" />
      <stop
         id="stop2738"
         offset="0.82758623"
         style="stop-color:#ffffff;stop-opacity:1;" />
      <stop
         id="stop15222"
         offset="1"
         style="stop-color:#d3d7cf;stop-opacity:1;" />
    </linearGradient>
    <pattern
       y="0"
       x="0"
       height="6"
       width="6"
       patternUnits="userSpaceOnUse"
       id="EMFhbasepattern" />
    <pattern
       y="0"
       x="0"
       height="6"
       width="6"
       patternUnits="userSpaceOnUse"
       id="EMFhbasepattern-5" />
    <linearGradient
       inkscape:collect="always"
       xlink:href="#linearGradient4254"
       id="linearGradient4260"
       x1="380.01031"
       y1="330.40619"
       x2="414.6156"
       y2="457.18103"
       gradientUnits="userSpaceOnUse"
       gradientTransform="matrix(1.1539288,0,0,1.152224,-62.639768,-58.542095)" />
    <linearGradient
       inkscape:collect="always"
       id="linearGradient4254">
      <stop
         style="stop-color:#7a8597;stop-opacity:1"
         offset="0"
         id="stop4256" />
      <stop
         style="stop-color:#4e505d;stop-opacity:1"
         offset="1"
         id="stop4258" />
    </linearGradient>
    <linearGradient
       inkscape:collect="always"
       xlink:href="#linearGradient4254"
       id="linearGradient4268"
       x1="358.43118"
       y1="465.73074"
       x2="429.96555"
       y2="644.62878"
       gradientUnits="userSpaceOnUse"
       gradientTransform="matrix(1.1386133,0,0,1.1369311,-56.136238,-52.853875)" />
  </defs>
  <sodipodi:namedview
     id="base"
     pagecolor="#ffffff"
     bordercolor="#666666"
     borderopacity="1.0"
     inkscape:pageopacity="0.0"
     inkscape:pageshadow="2"
     inkscape:zoom="0.70710678"
     inkscape:cx="431.49953"
     inkscape:cy="467.58892"
     inkscape:document-units="px"
     inkscape:current-layer="layer1"
     showgrid="false"
     showguides="true"
     inkscape:guide-bbox="true"
     inkscape:window-width="1366"
     inkscape:window-height="721"
     inkscape:window-x="-4"
     inkscape:window-y="-4"
     inkscape:window-maximized="1"
     inkscape:snap-bbox="true"
     inkscape:bbox-paths="true"
     inkscape:bbox-nodes="true">
    <sodipodi:guide
       position="315.53572,730.17859"
       orientation="0,1"
       id="guide3338" />
    <sodipodi:guide
       position="351.25,330.17858"
       orientation="0,1"
       id="guide3340" />
    <sodipodi:guide
       position="189.10714,408.8393"
       orientation="1,0"
       id="guide3344" />
    <sodipodi:guide
       position="589.04521,468.07945"
       orientation="1,0"
       id="guide3346" />
    <inkscape:grid
       type="xygrid"
       id="grid3440" />
    <sodipodi:guide
       position="589.04521,378.30213"
       orientation="1,0"
       id="guide3411" />
  </sodipodi:namedview>
  <metadata
     id="metadata7">
    <rdf:RDF>
      <cc:Work
         rdf:about="">
        <dc:format>image/svg+xml</dc:format>
        <dc:type
           rdf:resource="http://purl.org/dc/dcmitype/StillImage" />
        <dc:title>user honorary professor</dc:title>
        <dc:date>June 2015</dc:date>
        <dc:creator>
          <cc:Agent>
            <dc:title>Johannes Hechler</dc:title>
          </cc:Agent>
        </dc:creator>
        <dc:rights>
          <cc:Agent>
            <dc:title>Johannes Hechler</dc:title>
          </cc:Agent>
        </dc:rights>
        <dc:publisher>
          <cc:Agent>
            <dc:title>RRZE</dc:title>
          </cc:Agent>
        </dc:publisher>
        <dc:contributor>
          <cc:Agent>
            <dc:title>Ute Weber, Hendrik Eggers</dc:title>
          </cc:Agent>
        </dc:contributor>
      </cc:Work>
    </rdf:RDF>
  </metadata>
  <g
     inkscape:label="Ebene 1"
     inkscape:groupmode="layer"
     id="layer1">
    <g
       transform="translate(0.08840074,4.6507694e-8)"
       id="g4967">
      <g
         id="g4952">
        <flowRoot
           transform="matrix(6.1509424,0,0,6.1418551,-2093.5253,-3261.605)"
           xml:space="preserve"
           id="flowRoot4169"
           style="font-style:normal;font-variant:normal;font-weight:bold;font-stretch:normal;font-size:40px;line-height:125%;font-family:sans-serif;-inkscape-font-specification:'sans-serif Bold';letter-spacing:0px;word-spacing:0px;fill:#252525;fill-opacity:1;stroke:none;stroke-width:1px;stroke-linecap:butt;stroke-linejoin:miter;stroke-opacity:1"><flowRegion
             id="flowRegion4171"><rect
               id="rect4173"
               width="56.433445"
               height="88.78862"
               x="89.541069"
               y="427.07962"
               style="font-style:normal;font-variant:normal;font-weight:bold;font-stretch:normal;font-family:sans-serif;-inkscape-font-specification:'sans-serif Bold'" /></flowRegion><flowPara
             id="flowPara4175" /></flowRoot>        <rect
           style="fill:none;fill-rule:evenodd;stroke:none;stroke-width:1px;stroke-linecap:butt;stroke-linejoin:miter;stroke-opacity:1"
           id="rect3336"
           width="400"
           height="399.40906"
           x="189.01874"
           y="322.18372"
           inkscape:export-xdpi="4.9499998"
           inkscape:export-ydpi="4.9499998" />
        <path
           inkscape:connector-curvature="0"
           style="fill:url(#linearGradient4260);fill-opacity:1;stroke:none;stroke-width:14;stroke-miterlimit:4;stroke-dasharray:none;stroke-opacity:1"
           d="m 417.97744,352.72274 c -13.41308,0.17715 -28.91802,0.84582 -43.74024,1.96289 -5.45844,0.41137 -10.8567,0.96594 -16.22656,1.50976 a 25.0025,25.0025 0 0 1 -4.94922,7.92969 c -2.35924,2.5398 -4.31753,5.3561 -6.08398,8.2793 l 86.85937,0 c -1.76574,-2.93077 -3.72408,-5.75322 -6.08203,-8.29688 a 25.0025,25.0025 0 0 1 -5.99414,-11.36328 c -1.34541,0.008 -2.38952,-0.0399 -3.7832,-0.0215 z m 44.39453,68.61328 c -2.77189,0.69627 -5.6572,1.06836 -8.61133,1.06836 l -127.81055,0 c -2.51866,0 -4.98156,-0.28223 -7.37109,-0.78711 a 75.752335,75.232376 0 0 0 71.82617,51.62304 75.752335,75.232376 0 0 0 71.9668,-51.90429 z"
           id="circle2187-6" />
        <path
           inkscape:connector-curvature="0"
           style="color:#000000;clip-rule:nonzero;display:inline;overflow:visible;visibility:visible;opacity:1;isolation:auto;mix-blend-mode:normal;color-interpolation:sRGB;color-interpolation-filters:linearRGB;solid-color:#000000;solid-opacity:1;fill:#2f3037;fill-opacity:1;fill-rule:evenodd;stroke:none;stroke-width:35;stroke-linecap:butt;stroke-linejoin:round;stroke-miterlimit:4;stroke-dasharray:none;stroke-dashoffset:0;stroke-opacity:1;color-rendering:auto;image-rendering:auto;shape-rendering:auto;text-rendering:auto;enable-background:accumulate"
           d="m 275.745,322.18367 c -6.36538,0 -11.49023,5.12485 -11.49023,11.49024 l 0,1.94922 c 0,6.36538 5.12485,11.48828 11.49023,11.48828 l 59.00001,0 c -10.94801,11.78588 -17.81785,26.73748 -19.60742,42.67383 1.58394,4.44658 5.80892,7.61914 10.8125,7.61914 l 127.81055,0 c 6.14901,0 11.1249,-4.78641 11.45703,-10.84961 l 0,-0.002 c -2.29853,-14.73966 -8.95679,-28.46815 -19.12891,-39.4414 l 57.26954,0 c 6.36538,0 11.49023,-5.1229 11.49023,-11.48828 l 0,-1.94922 c 0,-6.36539 -5.12485,-11.49024 -11.49023,-11.49024 l -227.6133,0 z m 38.76759,64.80274 c 0.0195,0.212 0.0552,0.41851 0.0859,0.62695 -0.0316,-0.20775 -0.0658,-0.41555 -0.0859,-0.62695 z m 0.14063,0.99414 c 0.0481,0.26638 0.10977,0.52756 0.17578,0.78711 -0.067,-0.25916 -0.12651,-0.52124 -0.17578,-0.78711 z m 0.21484,0.94141 c 0.0765,0.28415 0.16453,0.56302 0.26172,0.83789 -0.0973,-0.27496 -0.18428,-0.55414 -0.26172,-0.83789 z"
           id="rect4228" />
        <rect
           style="color:#000000;clip-rule:nonzero;display:inline;overflow:visible;visibility:visible;opacity:1;isolation:auto;mix-blend-mode:normal;color-interpolation:sRGB;color-interpolation-filters:linearRGB;solid-color:#000000;solid-opacity:1;fill:#2f3037;fill-opacity:1;fill-rule:evenodd;stroke:none;stroke-width:50;stroke-linecap:butt;stroke-linejoin:round;stroke-miterlimit:4;stroke-dasharray:none;stroke-dashoffset:0;stroke-opacity:1;color-rendering:auto;image-rendering:auto;shape-rendering:auto;text-rendering:auto;enable-background:accumulate"
           id="rect4256"
           width="25"
           height="100.49998"
           x="489.84851"
           y="322.18372"
           ry="11.4899" />
        <rect
           style="color:#000000;clip-rule:nonzero;display:inline;overflow:visible;visibility:visible;opacity:1;isolation:auto;mix-blend-mode:normal;color-interpolation:sRGB;color-interpolation-filters:linearRGB;solid-color:#000000;solid-opacity:1;fill:#2f3037;fill-opacity:1;fill-rule:evenodd;stroke:none;stroke-width:50;stroke-linecap:butt;stroke-linejoin:round;stroke-miterlimit:4;stroke-dasharray:none;stroke-dashoffset:0;stroke-opacity:1;color-rendering:auto;image-rendering:auto;shape-rendering:auto;text-rendering:auto;enable-background:accumulate"
           id="rect4258"
           width="49.293919"
           height="50.571419"
           x="489.84851"
           y="372.11227"
           ry="11.4899" />
        <path
           sodipodi:nodetypes="cccccccccscsccscccccccsc"
           inkscape:connector-curvature="0"
           style="fill:url(#linearGradient4268);fill-opacity:1;stroke:none;stroke-width:41.15159225;stroke-linecap:round;stroke-linejoin:round;stroke-opacity:1"
           d="m 339.66406,486.58398 c -0.13373,0.11813 -0.25457,0.24473 -0.39258,0.35938 -61.16267,49.39285 -81.68433,117.75367 -82.29882,167.08594 0,17.38928 1.58895,34.23639 4.55273,50.26562 4.39616,9.82012 15.4428,17.01891 28.67773,17.95899 l 0,0.10742 124.54688,0 0,-127.21289 c 0.0154,-9.34869 5.24506,-17.90778 13.55664,-22.1875 C 419.69818,558.1814 414.75,541.0369 414.75,522.81641 c 0,-10.33707 1.59255,-20.32807 4.54102,-29.73829 -9.74911,1.11966 -20.11813,1.13477 -28.40821,1.13477 -15.7328,2e-5 -38.50037,-0.25465 -51.21875,-7.62891 z m 126.61914,23.67969 c -1.00014,4.00078 -1.5332,8.20392 -1.5332,12.55274 0,25.84492 18.74956,46.59059 43.37109,49.63086 -8.85191,-20.92895 -22.26783,-41.85435 -41.83789,-62.1836 z m -1.5332,126.20508 0,39.74023 36.41602,-23.8789 c 6.42951,-4.20151 14.43334,-5.21477 21.70703,-2.74805 0.0131,-1.55335 0.006,-3.11185 -0.0137,-4.67383 -2.60237,0.12906 -5.25899,0.20313 -7.98438,0.20313 -19.615,0 -36.29342,-3.78299 -50.125,-8.64258 z"
           id="path2176" />
        <ellipse
           style="color:#000000;clip-rule:nonzero;display:inline;overflow:visible;visibility:visible;opacity:1;isolation:auto;mix-blend-mode:normal;color-interpolation:sRGB;color-interpolation-filters:linearRGB;solid-color:#000000;solid-opacity:1;fill:#99b000;fill-opacity:1;fill-rule:nonzero;stroke:none;stroke-width:50;stroke-linecap:butt;stroke-linejoin:round;stroke-miterlimit:4;stroke-dasharray:none;stroke-dashoffset:0;stroke-opacity:1;color-rendering:auto;image-rendering:auto;shape-rendering:auto;text-rendering:auto;enable-background:accumulate"
           id="path4915"
           cx="514.3844"
           cy="522.8158"
           rx="74.634369"
           ry="75.029892" />
        <path
           style="fill:#99b000;fill-rule:evenodd;stroke:none;stroke-width:1px;stroke-linecap:butt;stroke-linejoin:miter;stroke-opacity:1"
           d="m 439.75001,597.14838 0,125.34955 75.125,-49.26073 74.14374,49.26073 0,-125.34955 c 0,0 -24.545,24.96381 -74.14374,24.96381 -49.59874,0 -75.125,-24.96381 -75.125,-24.96381 z"
           id="path4917"
           inkscape:connector-curvature="0"
           sodipodi:nodetypes="cccccsc" />
      </g>
    </g>
  </g>
</svg>
