<?xml version="1.0" encoding="UTF-8" standalone="no"?>
<!-- Created with Inkscape (http://www.inkscape.org/) -->

<svg
   xmlns:dc="http://purl.org/dc/elements/1.1/"
   xmlns:cc="http://creativecommons.org/ns#"
   xmlns:rdf="http://www.w3.org/1999/02/22-rdf-syntax-ns#"
   xmlns:svg="http://www.w3.org/2000/svg"
   xmlns="http://www.w3.org/2000/svg"
   xmlns:xlink="http://www.w3.org/1999/xlink"
   xmlns:sodipodi="http://sodipodi.sourceforge.net/DTD/sodipodi-0.dtd"
   xmlns:inkscape="http://www.inkscape.org/namespaces/inkscape"
   width="210mm"
   height="297mm"
   viewBox="0 0 744.09448819 1052.3622047"
   id="svg2"
   version="1.1"
   inkscape:version="0.91 r13725"
   inkscape:export-xdpi="3.6247647"
   inkscape:export-ydpi="3.6247647"
   sodipodi:docname="user-customer.svg"
   inkscape:export-filename="C:\Users\johannes\Documents\Arbeit\RRZE\github3\bicons\16x16\categories\user-customer.png">
  <defs
     id="defs4">
    <linearGradient
       id="linearGradient2224">
      <stop
         id="stop2226"
         offset="0"
         style="stop-color:#7c7c7c;stop-opacity:1;" />
      <stop
         id="stop2228"
         offset="1"
         style="stop-color:#b8b8b8;stop-opacity:1;" />
    </linearGradient>
    <linearGradient
       id="linearGradient15218">
      <stop
         id="stop15220"
         offset="0"
         style="stop-color:#eeeeef;stop-opacity:1;" />
      <stop
         id="stop2736"
         offset="0.59928656"
         style="stop-color:#d3d7cf;stop-opacity:1;" />
      <stop
         id="stop2738"
         offset="0.82758623"
         style="stop-color:#ffffff;stop-opacity:1;" />
      <stop
         id="stop15222"
         offset="1"
         style="stop-color:#d3d7cf;stop-opacity:1;" />
    </linearGradient>
    <pattern
       y="0"
       x="0"
       height="6"
       width="6"
       patternUnits="userSpaceOnUse"
       id="EMFhbasepattern" />
    <pattern
       y="0"
       x="0"
       height="6"
       width="6"
       patternUnits="userSpaceOnUse"
       id="EMFhbasepattern-5" />
    <linearGradient
       inkscape:collect="always"
       xlink:href="#linearGradient4254"
       id="linearGradient4268"
       x1="358.43118"
       y1="465.73074"
       x2="429.96555"
       y2="644.62878"
       gradientUnits="userSpaceOnUse"
       gradientTransform="matrix(1.1386133,0,0,1.1386133,-56.152662,-54.035014)" />
    <linearGradient
       inkscape:collect="always"
       id="linearGradient4254">
      <stop
         style="stop-color:#7a8597;stop-opacity:1"
         offset="0"
         id="stop4256" />
      <stop
         style="stop-color:#4e505d;stop-opacity:1"
         offset="1"
         id="stop4258" />
    </linearGradient>
    <linearGradient
       inkscape:collect="always"
       xlink:href="#linearGradient4254"
       id="linearGradient4260"
       x1="380.01031"
       y1="330.40619"
       x2="414.6156"
       y2="457.18103"
       gradientUnits="userSpaceOnUse"
       gradientTransform="matrix(1.1539288,0,0,1.1539288,-62.749768,-59.552899)" />
  </defs>
  <sodipodi:namedview
     id="base"
     pagecolor="#ffffff"
     bordercolor="#666666"
     borderopacity="1.0"
     inkscape:pageopacity="0.0"
     inkscape:pageshadow="2"
     inkscape:zoom="0.70710678"
     inkscape:cx="217.94063"
     inkscape:cy="445.71781"
     inkscape:document-units="px"
     inkscape:current-layer="layer1"
     showgrid="false"
     showguides="true"
     inkscape:guide-bbox="true"
     inkscape:window-width="1366"
     inkscape:window-height="721"
     inkscape:window-x="-4"
     inkscape:window-y="-4"
     inkscape:window-maximized="1">
    <sodipodi:guide
       position="315.53572,730.17859"
       orientation="0,1"
       id="guide3338" />
    <sodipodi:guide
       position="351.25,330.17858"
       orientation="0,1"
       id="guide3340" />
    <sodipodi:guide
       position="189.10714,408.8393"
       orientation="1,0"
       id="guide3344" />
    <sodipodi:guide
       position="589.04521,468.07945"
       orientation="1,0"
       id="guide3346" />
    <inkscape:grid
       type="xygrid"
       id="grid3440" />
    <sodipodi:guide
       position="589.04521,378.30213"
       orientation="1,0"
       id="guide3411" />
  </sodipodi:namedview>
  <metadata
     id="metadata7">
    <rdf:RDF>
      <cc:Work
         rdf:about="">
        <dc:format>image/svg+xml</dc:format>
        <dc:type
           rdf:resource="http://purl.org/dc/dcmitype/StillImage" />
        <dc:title>user customer</dc:title>
        <dc:date>June 2015</dc:date>
        <dc:creator>
          <cc:Agent>
            <dc:title>Johannes Hechler</dc:title>
          </cc:Agent>
        </dc:creator>
        <dc:rights>
          <cc:Agent>
            <dc:title>Johannes Hechler</dc:title>
          </cc:Agent>
        </dc:rights>
        <dc:publisher>
          <cc:Agent>
            <dc:title>RRZE</dc:title>
          </cc:Agent>
        </dc:publisher>
        <dc:contributor>
          <cc:Agent>
            <dc:title>Ute Weber, Hendrik Eggers</dc:title>
          </cc:Agent>
        </dc:contributor>
      </cc:Work>
    </rdf:RDF>
  </metadata>
  <g
     inkscape:label="Ebene 1"
     inkscape:groupmode="layer"
     id="layer1">
    <g
       transform="translate(-1.162944,-0.76572239)"
       id="g4881">
      <g
         id="g4187"
         transform="translate(-2.9098737e-6,1.4142098)">
        <flowRoot
           transform="translate(-0.23611183,-0.53381467)"
           xml:space="preserve"
           id="flowRoot4169"
           style="font-style:normal;font-weight:normal;font-size:40px;line-height:125%;font-family:sans-serif;letter-spacing:0px;word-spacing:0px;fill:#252525;fill-opacity:1;stroke:none;stroke-width:1px;stroke-linecap:butt;stroke-linejoin:miter;stroke-opacity:1"><flowRegion
             id="flowRegion4171"><rect
               id="rect4173"
               width="56.433445"
               height="88.78862"
               x="89.541069"
               y="427.07962" /></flowRegion><flowPara
             id="flowPara4175" /></flowRoot>        <rect
           style="fill:none;fill-rule:evenodd;stroke:none;stroke-width:1px;stroke-linecap:butt;stroke-linejoin:miter;stroke-opacity:1"
           id="rect3336"
           width="400"
           height="400"
           x="188.90874"
           y="321.73621"
           inkscape:export-xdpi="4.9499998"
           inkscape:export-ydpi="4.9499998" />
        <path
           style="fill:url(#linearGradient4268);fill-opacity:1;stroke:none;stroke-width:41.15159225;stroke-linecap:round;stroke-linejoin:round;stroke-opacity:1"
           d="m 339.6481,486.20079 c -0.13373,0.11831 -0.25561,0.24544 -0.39362,0.36026 -61.16267,49.46593 -81.68289,117.92705 -82.29738,167.33231 0,17.41501 1.58845,34.28843 4.55223,50.34138 4.39616,9.83465 15.44167,17.04285 28.6766,17.98432 l 0,0.10897 196.70879,0 0,-0.009 c 14.85491,-0.20969 27.36615,-8.29299 31.56983,-19.37423 2.81283,-15.66639 3.84483,-32.10806 4.31651,-49.05155 1.5,-53.88289 -15.54817,-113.49702 -81.78144,-167.07211 -12.47076,7.00181 -34.846,7.01919 -50.13314,7.01919 -15.73277,2e-5 -38.5,-0.25447 -51.21838,-7.63964 z"
           id="path2176"
           inkscape:connector-curvature="0"
           sodipodi:nodetypes="cccccccccscscc" />
        <ellipse
           style="fill:url(#linearGradient4260);fill-opacity:1;stroke:none;stroke-width:14;stroke-miterlimit:4;stroke-dasharray:none;stroke-opacity:1"
           id="circle2187-6"
           cy="397.67169"
           cx="390.2944"
           rx="75.752335"
           ry="75.343689" />
      </g>
      <g
         transform="translate(-37.161335,25.349677)"
         id="g4193">
        <g
           style="stroke:#ffffff;stroke-width:50;stroke-linejoin:round;stroke-miterlimit:4;stroke-dasharray:none"
           transform="matrix(0.96430472,-0.26479502,0.26479502,0.96430472,-174.05833,101.65594)"
           id="g4185">
          <path
             inkscape:connector-curvature="0"
             id="path4187"
             d="m 378.60356,498.90661 a 66.346463,66.346463 0 0 0 -42.67292,-15.79073 66.346463,66.346463 0 0 0 -66.63818,66.05372 66.346463,66.346463 0 0 0 47.99563,63.98778 l -0.38609,87.62099 c 6.46802,10.1059 26.00457,10.19216 32.5615,0.14371 l 0.38291,-86.73762 a 66.346463,66.346463 0 0 0 52.13734,-64.42961 66.346463,66.346463 0 0 0 -23.38019,-50.84824 z"
             style="opacity:1;fill:#99b000;fill-opacity:1;stroke:#ffffff;stroke-width:50;stroke-linecap:square;stroke-linejoin:round;stroke-miterlimit:4;stroke-dasharray:none;stroke-opacity:1" />
          <path
             style="opacity:1;fill:#99b000;fill-opacity:1;stroke:#ffffff;stroke-width:50;stroke-linecap:square;stroke-linejoin:round;stroke-miterlimit:4;stroke-dasharray:none;stroke-opacity:1"
             d="m 378.60356,498.90661 a 66.346463,66.346463 0 0 0 -42.67292,-15.79073 66.346463,66.346463 0 0 0 -66.63818,66.05372 66.346463,66.346463 0 0 0 47.99563,63.98778 l -0.38609,87.62099 c 6.46802,10.1059 26.00457,10.19216 32.5615,0.14371 l 0.38291,-86.73762 a 66.346463,66.346463 0 0 0 52.13734,-64.42961 66.346463,66.346463 0 0 0 -23.38019,-50.84824 z"
             id="path4189"
             inkscape:connector-curvature="0" />
          <ellipse
             transform="matrix(0.9999996,-8.9193111e-4,-0.00970003,0.99995295,0,0)"
             cy="548.69769"
             cx="340.37482"
             id="ellipse4191"
             style="opacity:1;fill:#ffffff;fill-opacity:1;stroke:#ffffff;stroke-width:50;stroke-linecap:square;stroke-linejoin:round;stroke-miterlimit:4;stroke-dasharray:none;stroke-opacity:1"
             rx="50.113911"
             ry="50.248466" />
        </g>
        <g
           id="g4172"
           transform="matrix(0.96430472,-0.26479502,0.26479502,0.96430472,-174.05833,101.65594)"
           style="stroke:none">
          <path
             style="opacity:1;fill:#99b000;fill-opacity:1;stroke:none;stroke-width:30;stroke-linecap:square;stroke-linejoin:round;stroke-miterlimit:4;stroke-dasharray:none;stroke-opacity:1"
             d="m 378.60356,498.90661 a 66.346463,66.346463 0 0 0 -42.67292,-15.79073 66.346463,66.346463 0 0 0 -66.63818,66.05372 66.346463,66.346463 0 0 0 47.99563,63.98778 l -0.38609,87.62099 c 6.46802,10.1059 26.00457,10.19216 32.5615,0.14371 l 0.38291,-86.73762 a 66.346463,66.346463 0 0 0 52.13734,-64.42961 66.346463,66.346463 0 0 0 -23.38019,-50.84824 z"
             id="path4206"
             inkscape:connector-curvature="0" />
          <path
             inkscape:connector-curvature="0"
             id="path4160"
             d="m 378.60356,498.90661 a 66.346463,66.346463 0 0 0 -42.67292,-15.79073 66.346463,66.346463 0 0 0 -66.63818,66.05372 66.346463,66.346463 0 0 0 47.99563,63.98778 l -0.38609,87.62099 c 6.46802,10.1059 26.00457,10.19216 32.5615,0.14371 l 0.38291,-86.73762 a 66.346463,66.346463 0 0 0 52.13734,-64.42961 66.346463,66.346463 0 0 0 -23.38019,-50.84824 z"
             style="opacity:1;fill:#99b000;fill-opacity:1;stroke:none;stroke-width:30;stroke-linecap:square;stroke-linejoin:miter;stroke-miterlimit:4;stroke-dasharray:none;stroke-opacity:1" />
          <ellipse
             ry="50.248466"
             rx="50.113911"
             style="opacity:1;fill:#ffffff;fill-opacity:1;stroke:none;stroke-width:11;stroke-linecap:square;stroke-linejoin:miter;stroke-miterlimit:4;stroke-dasharray:none;stroke-opacity:1"
             id="path4160-0"
             cx="340.37482"
             cy="548.69769"
             transform="matrix(0.9999996,-8.9193111e-4,-0.00970003,0.99995295,0,0)" />
        </g>
      </g>
      <g
         transform="translate(64.18895,25.638999)"
         id="g4203">
        <path
           inkscape:connector-curvature="0"
           id="path4183"
           d="m 453.69429,695.55565 c 8.91524,2.52089 20.41696,1.75576 23.79355,-1.02851 3.37658,-2.78428 8.32862,-21.52872 8.32862,-21.52872 -19.0368,2.74238 -31.00163,-0.72776 -46.51778,-12.49027 -1.47604,9.17037 -3.93536,19.30721 -2.79177,23.04955 1.1436,3.74234 8.27212,9.47706 17.18738,11.99795 z m 11.07218,-32.2026 c 8.48013,2.33562 19.47784,1.68908 23.49248,1.33117 11.05021,-42.79492 22.72538,-86.04802 34.15121,-128.9591 -15.65819,-9.67067 -30.56121,-13.61801 -46.81688,-12.45648 l -34.13104,128.85943 c 9.16513,5.72658 14.82408,8.88937 23.30423,11.22498 z m 59.58127,-134.91624 c -4.64934,-14.30549 -8.77839,-28.57893 -14.81933,-42.97015 -11.57682,9.48279 -21.85962,19.97504 -32.01809,30.5643 17.23059,-3.23826 32.56713,2.17925 46.83742,12.40585 z"
           style="fill:#99b000;fill-opacity:1;fill-rule:evenodd;stroke:#ffffff;stroke-width:50;stroke-linecap:butt;stroke-linejoin:round;stroke-miterlimit:4;stroke-dasharray:none;stroke-opacity:1" />
        <path
           style="fill:#99b000;fill-opacity:1;fill-rule:evenodd;stroke:none;stroke-width:1px;stroke-linecap:butt;stroke-linejoin:miter;stroke-opacity:1"
           d="m 453.69429,695.55565 c 8.91524,2.52089 20.41696,1.75576 23.79355,-1.02851 3.37658,-2.78428 8.32862,-21.52872 8.32862,-21.52872 -19.0368,2.74238 -31.00163,-0.72776 -46.51778,-12.49027 -1.47604,9.17037 -3.93536,19.30721 -2.79177,23.04955 1.1436,3.74234 8.27212,9.47706 17.18738,11.99795 z m 11.07218,-32.2026 c 8.48013,2.33562 19.47784,1.68908 23.49248,1.33117 11.05021,-42.79492 22.72538,-86.04802 34.15121,-128.9591 -15.65819,-9.67067 -30.56121,-13.61801 -46.81688,-12.45648 l -34.13104,128.85943 c 9.16513,5.72658 14.82408,8.88937 23.30423,11.22498 z m 59.58127,-134.91624 c -4.64934,-14.30549 -8.77839,-28.57893 -14.81933,-42.97015 -11.57682,9.48279 -21.85962,19.97504 -32.01809,30.5643 17.23059,-3.23826 32.56713,2.17925 46.83742,12.40585 z"
           id="path4234-6-1-3"
           inkscape:connector-curvature="0" />
      </g>
    </g>
  </g>
</svg>
