<?xml version="1.0" encoding="UTF-8" standalone="no"?>
<!-- Created with Inkscape (http://www.inkscape.org/) -->

<svg
   xmlns:dc="http://purl.org/dc/elements/1.1/"
   xmlns:cc="http://creativecommons.org/ns#"
   xmlns:rdf="http://www.w3.org/1999/02/22-rdf-syntax-ns#"
   xmlns:svg="http://www.w3.org/2000/svg"
   xmlns="http://www.w3.org/2000/svg"
   xmlns:xlink="http://www.w3.org/1999/xlink"
   xmlns:sodipodi="http://sodipodi.sourceforge.net/DTD/sodipodi-0.dtd"
   xmlns:inkscape="http://www.inkscape.org/namespaces/inkscape"
   width="210mm"
   height="297mm"
   viewBox="0 0 744.09448819 1052.3622047"
   id="svg2"
   version="1.1"
   inkscape:version="0.91 r13725"
   inkscape:export-xdpi="3.6239629"
   inkscape:export-ydpi="3.6239629"
   sodipodi:docname="user-function.svg"
   inkscape:export-filename="C:\Users\johannes\Documents\Arbeit\RRZE\github3\bicons\16x16\categories\user-function.png">
  <defs
     id="defs4">
    <linearGradient
       id="linearGradient2224">
      <stop
         id="stop2226"
         offset="0"
         style="stop-color:#7c7c7c;stop-opacity:1;" />
      <stop
         id="stop2228"
         offset="1"
         style="stop-color:#b8b8b8;stop-opacity:1;" />
    </linearGradient>
    <linearGradient
       id="linearGradient15218">
      <stop
         id="stop15220"
         offset="0"
         style="stop-color:#eeeeef;stop-opacity:1;" />
      <stop
         id="stop2736"
         offset="0.59928656"
         style="stop-color:#d3d7cf;stop-opacity:1;" />
      <stop
         id="stop2738"
         offset="0.82758623"
         style="stop-color:#ffffff;stop-opacity:1;" />
      <stop
         id="stop15222"
         offset="1"
         style="stop-color:#d3d7cf;stop-opacity:1;" />
    </linearGradient>
    <pattern
       y="0"
       x="0"
       height="6"
       width="6"
       patternUnits="userSpaceOnUse"
       id="EMFhbasepattern" />
    <pattern
       y="0"
       x="0"
       height="6"
       width="6"
       patternUnits="userSpaceOnUse"
       id="EMFhbasepattern-5" />
    <linearGradient
       inkscape:collect="always"
       xlink:href="#linearGradient4254"
       id="linearGradient4268"
       x1="358.43118"
       y1="465.73074"
       x2="429.96555"
       y2="644.62878"
       gradientUnits="userSpaceOnUse"
       gradientTransform="matrix(1.1386133,0,0,1.1386133,51.327561,-15.851245)" />
    <linearGradient
       inkscape:collect="always"
       id="linearGradient4254">
      <stop
         style="stop-color:#7a8597;stop-opacity:1"
         offset="0"
         id="stop4256" />
      <stop
         style="stop-color:#4e505d;stop-opacity:1"
         offset="1"
         id="stop4258" />
    </linearGradient>
    <linearGradient
       inkscape:collect="always"
       xlink:href="#linearGradient4254"
       id="linearGradient4260"
       x1="380.01031"
       y1="330.40619"
       x2="414.6156"
       y2="457.18103"
       gradientUnits="userSpaceOnUse"
       gradientTransform="matrix(1.1539288,0,0,1.1539288,44.730451,-21.369135)" />
  </defs>
  <sodipodi:namedview
     id="base"
     pagecolor="#ffffff"
     bordercolor="#666666"
     borderopacity="1.0"
     inkscape:pageopacity="0.0"
     inkscape:pageshadow="2"
     inkscape:zoom="0.70710678"
     inkscape:cx="411.9861"
     inkscape:cy="522.90698"
     inkscape:document-units="px"
     inkscape:current-layer="layer1"
     showgrid="false"
     showguides="true"
     inkscape:guide-bbox="true"
     inkscape:window-width="1366"
     inkscape:window-height="721"
     inkscape:window-x="-4"
     inkscape:window-y="-4"
     inkscape:window-maximized="1">
    <sodipodi:guide
       position="315.53572,730.17859"
       orientation="0,1"
       id="guide3338" />
    <sodipodi:guide
       position="351.25,330.17858"
       orientation="0,1"
       id="guide3340" />
    <sodipodi:guide
       position="189.10714,408.8393"
       orientation="1,0"
       id="guide3344" />
    <sodipodi:guide
       position="589.04521,468.07945"
       orientation="1,0"
       id="guide3346" />
    <inkscape:grid
       type="xygrid"
       id="grid3440" />
    <sodipodi:guide
       position="589.04521,378.30213"
       orientation="1,0"
       id="guide3411" />
  </sodipodi:namedview>
  <metadata
     id="metadata7">
    <rdf:RDF>
      <cc:Work
         rdf:about="">
        <dc:format>image/svg+xml</dc:format>
        <dc:type
           rdf:resource="http://purl.org/dc/dcmitype/StillImage" />
        <dc:title>user function</dc:title>
        <dc:date>June 2015</dc:date>
        <dc:creator>
          <cc:Agent>
            <dc:title>Johannes Hechler</dc:title>
          </cc:Agent>
        </dc:creator>
        <dc:rights>
          <cc:Agent>
            <dc:title>Johannes Hechler</dc:title>
          </cc:Agent>
        </dc:rights>
        <dc:publisher>
          <cc:Agent>
            <dc:title>RRZE</dc:title>
          </cc:Agent>
        </dc:publisher>
        <dc:contributor>
          <cc:Agent>
            <dc:title>Ute Weber, Hendrik Eggers</dc:title>
          </cc:Agent>
        </dc:contributor>
      </cc:Work>
    </rdf:RDF>
  </metadata>
  <g
     inkscape:label="Ebene 1"
     inkscape:groupmode="layer"
     id="layer1">
    <g
       id="g4292"
       transform="translate(-250.3158,-134.35029)">
      <g
         inkscape:export-ydpi="3.6239629"
         inkscape:export-xdpi="3.6239629"
         inkscape:export-filename="C:\Users\johannes\Desktop\g4314.png"
         id="g4314"
         transform="translate(249.83557,134.51427)">
        <g
           id="g4251"
           transform="matrix(1,0,0,0.99812777,-106.78117,-36.200062)">
          <flowRoot
             style="font-style:normal;font-weight:normal;font-size:40px;line-height:125%;font-family:sans-serif;letter-spacing:0px;word-spacing:0px;fill:#252525;fill-opacity:1;stroke:none;stroke-width:1px;stroke-linecap:butt;stroke-linejoin:miter;stroke-opacity:1"
             id="flowRoot4169-1"
             xml:space="preserve"
             transform="translate(107.24411,37.649955)"><flowRegion
               id="flowRegion4171-8"><rect
                 y="427.07962"
                 x="89.541069"
                 height="88.78862"
                 width="56.433445"
                 id="rect4173-4" /></flowRegion><flowPara
               id="flowPara4175-7" /></flowRoot>          <rect
             inkscape:export-ydpi="4.9499998"
             inkscape:export-xdpi="4.9499998"
             y="359.91998"
             x="296.38895"
             height="400"
             width="400"
             id="rect3336-2"
             style="fill:none;fill-rule:evenodd;stroke:none;stroke-width:1px;stroke-linecap:butt;stroke-linejoin:miter;stroke-opacity:1" />
          <path
             sodipodi:nodetypes="cccccccccscscc"
             inkscape:connector-curvature="0"
             id="path2176"
             d="m 447.12832,524.38455 c -0.13373,0.11831 -0.25561,0.24544 -0.39362,0.36026 -61.16267,49.46593 -81.68289,117.92705 -82.29738,167.33231 0,17.41501 1.58845,34.28843 4.55223,50.34138 4.39616,9.83465 15.44167,17.04285 28.6766,17.98432 l 0,0.10897 196.70879,0 0,-0.009 c 14.85491,-0.20969 27.36615,-8.29299 31.56983,-19.37423 2.81283,-15.66639 3.84483,-32.10806 4.31651,-49.05155 1.5,-53.88289 -15.54817,-113.49702 -81.78144,-167.07211 -12.47076,7.00181 -34.846,7.01919 -50.13314,7.01919 -15.73277,2e-5 -38.5,-0.25447 -51.21838,-7.63964 z"
             style="fill:url(#linearGradient4268);fill-opacity:1;stroke:none;stroke-width:41.15159225;stroke-linecap:round;stroke-linejoin:round;stroke-opacity:1" />
          <ellipse
             ry="75.343689"
             rx="75.752335"
             cx="497.77463"
             cy="435.85547"
             id="circle2187-6"
             style="fill:url(#linearGradient4260);fill-opacity:1;stroke:none;stroke-width:14;stroke-miterlimit:4;stroke-dasharray:none;stroke-opacity:1" />
        </g>
        <flowRoot
           xml:space="preserve"
           id="flowRoot4169"
           style="font-style:normal;font-weight:normal;font-size:40px;line-height:125%;font-family:sans-serif;letter-spacing:0px;word-spacing:0px;fill:#252525;fill-opacity:1;stroke:none;stroke-width:1px;stroke-linecap:butt;stroke-linejoin:miter;stroke-opacity:1"
           transform="translate(0.69905928,0.89563797)"><flowRegion
             id="flowRegion4171"><rect
               id="rect4173"
               width="56.433445"
               height="88.78862"
               x="89.541069"
               y="427.07962" /></flowRegion><flowPara
             id="flowPara4175" /></flowRoot>        <rect
           style="fill:none;fill-rule:evenodd;stroke:none;stroke-width:1px;stroke-linecap:butt;stroke-linejoin:miter;stroke-opacity:1"
           id="rect3336"
           width="400"
           height="400"
           x="189.84392"
           y="323.16568"
           inkscape:export-xdpi="4.9499998"
           inkscape:export-ydpi="4.9499998" />
        <g
           transform="matrix(2.4006292,0,0,2.4006292,4345.5122,1353.3601)"
           style="font-style:normal;font-weight:normal;font-size:36px;line-height:125%;font-family:'Times New Roman';-inkscape-font-specification:'Times New Roman';letter-spacing:0px;word-spacing:0px;fill:#252525;fill-opacity:1;stroke:#252525;stroke-width:0.99379402;stroke-miterlimit:4;stroke-dasharray:none;stroke-opacity:1"
           id="flowRoot3843" />
        <path
           style="color:#000000;font-style:normal;font-variant:normal;font-weight:normal;font-stretch:normal;font-size:medium;line-height:normal;font-family:sans-serif;text-indent:0;text-align:start;text-decoration:none;text-decoration-line:none;text-decoration-style:solid;text-decoration-color:#000000;letter-spacing:normal;word-spacing:normal;text-transform:none;direction:ltr;block-progression:tb;writing-mode:lr-tb;baseline-shift:baseline;text-anchor:start;white-space:normal;clip-rule:nonzero;display:inline;overflow:visible;visibility:visible;opacity:1;isolation:auto;mix-blend-mode:normal;color-interpolation:sRGB;color-interpolation-filters:linearRGB;solid-color:#000000;solid-opacity:1;fill:#000000;fill-opacity:1;fill-rule:nonzero;stroke:#ffffff;stroke-width:50;stroke-linecap:butt;stroke-linejoin:round;stroke-miterlimit:4;stroke-dasharray:none;stroke-dashoffset:0;stroke-opacity:1;color-rendering:auto;image-rendering:auto;shape-rendering:auto;text-rendering:auto;enable-background:accumulate"
           d="m 383.5,541.13281 0.0215,0.25391 c -0.48659,0.0452 -0.95483,0.0432 -1.45507,0.0957 -4.41071,0.46293 -9.49673,1.74578 -14.29688,4.16406 -4.80321,2.41983 -9.55464,6.11907 -12.08008,11.74219 -3.6685,8.16825 -7.41549,21.30385 -11.34179,36.29883 l -14.40821,0 c -4.30979,-0.0614 -7.93359,3.45986 -7.93359,7.77734 0,4.31748 3.62371,7.84084 7.93359,7.7793 l 10.39844,0 c -1.65879,6.59653 -3.32495,13.28576 -5.02148,20.02539 -3.59726,14.2903 -7.22479,28.34564 -10.70313,39.90235 -3.47312,11.53937 -7.15702,20.94016 -9.39062,24.33007 -0.75066,1.13928 -1.02802,1.31107 -1.6875,2.2461 -0.37687,-1.2039 -0.98592,-2.43439 -2,-3.5586 -1.98487,-2.20044 -4.79355,-3.21517 -7.63477,-3.43945 -3.87734,-0.30608 -8.02916,0.3455 -11.66406,2.60352 -3.69069,2.29269 -6.46436,6.17029 -7.61133,10.99023 -1.24589,5.23575 0.33638,10.27838 3.66211,13.4043 3.08615,2.90074 6.81652,4.09782 9.95703,4.92578 3.19629,0.84257 6.20162,0.37864 8.94531,-0.18555 2.68192,-0.55149 5.82865,-1.26626 8.51367,-3.71484 4.66507,-4.25403 10.02195,-11.59977 15.59571,-19.97071 5.58242,-8.38393 11.10504,-17.62797 14.90039,-25.01953 10.33702,-20.13131 13.73624,-41.94863 16.88086,-62.53906 l 15.85742,0 c 4.30979,0.0614 7.93359,-3.46182 7.93359,-7.7793 0,-4.31748 -3.62371,-7.83888 -7.93359,-7.77734 l -13.29297,0 c 1.59172,-9.22555 3.40892,-18.0937 6.18164,-26.13672 l 0,-0.002 c 3.8e-4,-10e-4 0.002,-0.003 0.002,-0.004 0.55665,-1.61366 1.73107,-4.0795 2.88868,-5.78515 0.26595,-0.39187 0.53604,-0.62396 0.81836,-0.9375 0.38588,0.57233 0.43865,0.61442 0.95703,1.53515 0.70358,1.2497 1.18023,2.74828 2.09765,4.75977 0.97798,2.14425 2.64203,4.75722 5.55078,6.67187 6.65378,4.37938 15.43011,1.38899 19.85743,-5.31054 2.29124,-3.46677 3.05594,-7.66891 1.80664,-11.47071 -1.15007,-3.49981 -3.36061,-6.10085 -5.71485,-8.77734 -2.47686,-2.81593 -4.92504,-5.13227 -8.28906,-6.27539 -1.65773,-0.56331 -3.30921,-0.7705 -4.91211,-0.78711 l -3.38874,-0.035 z m 3.32422,6.19336 c 1.13756,0.0118 2.05411,0.14151 2.99414,0.46094 1.83146,0.62234 3.39903,1.95661 5.64648,4.51172 2.27587,2.58739 3.80236,4.54349 4.48828,6.63086 0.5867,1.78538 0.28458,4.06687 -1.09374,6.15234 -2.88679,4.36835 -7.87923,5.83506 -11.33204,3.5625 -1.67212,-1.10065 -2.65774,-2.59935 -3.33398,-4.08203 -0.73679,-1.61545 -1.24433,-3.29114 -2.33398,-5.22656 -1.11127,-1.97383 -1.6843,-3.2297 -3.03907,-4.51367 -0.0421,-0.0399 -0.0378,-0.0419 -0.20898,-0.21485 -0.17121,-0.17297 -0.72404,-0.69941 -1.54883,-0.92773 -1.64958,-0.45664 -1.85644,-0.007 -2.30664,0.0937 -0.94933,0.2119 -0.87507,0.3268 -1.05078,0.43164 -0.17572,0.10484 -0.32392,0.20441 -0.48242,0.31836 -0.31702,0.2279 -0.66512,0.50645 -1.05274,0.85547 -0.77524,0.69802 -1.69561,1.6647 -2.54883,2.92187 -1.57103,2.31482 -2.85057,5.01612 -3.61718,7.24024 l 0,0.002 -0.16797,0.48633 0,0.12109 c -3.21104,9.49127 -5.23017,19.6477 -6.94336,30.11914 l -0.58594,3.57813 20.69727,0 0.0215,0 c 0.98068,-0.014 1.6875,0.69168 1.6875,1.61718 0,0.9255 -0.70673,1.63312 -1.6875,1.61914 l -0.0215,0 -21.19922,0 -0.39844,2.61329 c -3.27021,21.37361 -6.51781,43.4718 -16.68555,63.27343 -3.63759,7.08433 -9.0863,16.21411 -14.54882,24.41797 -5.47119,8.21688 -10.88837,15.43193 -14.61915,18.83399 -1.35993,1.24017 -3.06051,1.70949 -5.60351,2.23242 -2.48038,0.51005 -4.43196,0.71009 -6.13477,0.26172 l -0.002,0 c -2.84108,-0.74913 -5.4384,-1.70102 -7.30664,-3.45703 -1.62907,-1.53121 -2.66161,-4.24009 -1.88867,-7.48829 0.80671,-3.39006 2.63282,-5.79632 4.86914,-7.18554 2.29216,-1.4239 5.07758,-1.92046 7.92969,-1.69532 1.69509,0.13381 2.9083,0.71591 3.54687,1.42383 0.66888,0.74153 0.91593,1.74137 0.9375,2.71875 0.0232,1.05063 -0.16762,2.0367 -0.39258,3.01563 -0.12257,0.53337 -0.23347,1.03464 -0.30859,1.37305 -0.0376,0.1692 -0.0683,0.3044 -0.0781,0.3457 -0.005,0.0207 -0.0226,0.0695 0.0352,-0.11524 0.0145,-0.0462 0.0258,-0.0994 0.0996,-0.27343 0.0369,-0.087 0.23861,-0.45364 0.23828,-0.45313 -1.6e-4,2.6e-4 0.45717,-0.55873 0.45703,-0.55859 -7e-5,6e-5 0.59577,-0.44926 0.59571,-0.44922 -3e-5,10e-6 0.24448,-0.081 0.46679,-0.1543 -0.0999,0.1088 -0.34089,0.48129 -0.43359,0.57813 -0.0837,0.0874 0.0353,-0.0635 -0.47266,0.37109 l 4.3086,2.03711 -5.39649,-0.41992 c -8e-5,9.9e-4 8e-5,0.005 0,0.006 l -0.002,0 c -0.004,0.0483 0.003,0.003 0,0.0469 -0.006,0.058 -0.0149,0.10889 -0.006,0.32617 0.002,0.0465 0.0103,0.12826 0.0156,0.18555 0.002,-0.0149 0.001,0.12956 0.002,0.0957 l -0.13868,6.86915 5.22071,-4.4668 c 0.005,-0.004 0.39648,-0.24625 0.91797,-0.79102 1.87007,-1.95354 4.25775,-5.03622 7.33789,-9.71094 3.2312,-4.90396 6.6027,-14.18412 10.14258,-25.94531 3.53466,-11.74386 7.17617,-25.85829 10.77929,-40.17187 2.02507,-8.04477 4.0197,-16.09265 5.98242,-23.85547 l 0.97071,-3.83399 -18.36914,0 -0.0215,0 c -0.98069,0.014 -1.6875,-0.69364 -1.6875,-1.61914 0,-0.9255 0.70671,-1.63116 1.6875,-1.61718 l 0.0215,0 19.20117,0 0.59961,-2.30664 c 4.14366,-15.96624 8.15177,-29.87807 11.63281,-37.62891 1.74683,-3.88948 5.23182,-6.74917 9.23438,-8.76563 4.00559,-2.01799 8.45965,-3.1479 12.16796,-3.5371 1.62642,-0.1707 2.97763,-0.295 4.11524,-0.28321 z m 38.1875,19.48438 -0.11524,0.12695 -2.26757,0.0156 0.89062,1.50196 -0.59375,0.65625 -0.008,0.008 -0.004,0.004 -0.004,0.004 c -0.0171,0.0182 0.0106,-0.0117 -0.004,0.004 l -0.0684,0.0762 c -0.18556,0.20459 -0.19915,0.22541 -0.0488,0.0586 l -0.24414,0.26954 -0.17383,0.31836 c -10.82117,19.87173 -17.48632,33.92126 -20.96484,46.06054 -3.47852,12.13929 -3.65773,22.38339 -1.57813,33.88672 3.40322,18.825 4.20908,35.48689 15.63086,50.40039 1.80817,2.52641 3.68509,4.99739 5.66016,7.36524 l 0.002,0.002 c -0.14392,-0.17226 -0.12676,-0.14468 0.0586,0.0762 -0.0479,-0.0569 -0.005,-0.003 0.0527,0.0664 1.31572,1.60054 3.22699,2.5385 5.05078,2.62304 1.8238,0.0846 3.48953,-0.55562 4.78907,-1.59179 1.29953,-1.03618 2.29868,-2.52069 2.60937,-4.32617 0.31069,-1.80549 -0.21525,-3.87988 -1.51172,-5.4961 -1.80205,-2.28899 -3.62114,-4.72157 -5.46875,-7.14453 -9.47681,-13.36336 -7.16401,-30.16188 -8.67773,-49.14648 -1.70681,-21.40631 0.29315,-35.83922 15.69726,-64.67774 l -0.41406,0.59571 c 1.93546,-2.17757 2.19259,-5.22873 1.12695,-7.54493 -1.06539,-2.31567 -3.53067,-4.10264 -6.43945,-4.08398 -6.7e-4,0 -10e-4,-1e-5 -0.002,0 l -2.85352,0.0195 -0.12695,-0.12695 z m 134.63867,0.60156 c -2.91734,-0.0156 -5.38498,1.78391 -6.44336,4.10937 -1.05837,2.32546 -0.78537,5.38465 1.16992,7.55469 l -0.40625,-0.5664 c 22.91548,41.31441 18.90839,84.88062 7.28516,114.09765 -1.73355,2.30045 -3.4471,4.63071 -5.09766,6.72656 l -0.002,0.004 -0.004,0.004 c -1.26444,1.61682 -1.76383,3.6741 -1.44726,5.46289 0.31657,1.78879 1.30687,3.26156 2.59765,4.29101 1.29079,1.02946 2.94309,1.66676 4.75196,1.5918 0.80224,-0.0332 1.61443,-0.2885 2.39453,-0.63477 l 0.63476,0.63477 2.14454,-2.72656 c 0.14171,-0.18007 0.22609,-0.29791 0.24218,-0.31836 l -0.0488,0.0605 c 1.82475,-2.20237 3.55922,-4.4911 5.21289,-6.84765 11.6754,-15.35513 13.28317,-33.63589 13.83593,-53.9043 0.6201,-22.73772 5.40749,-39.24742 -21.78906,-77.31445 l -0.22461,-0.31445 -0.29492,-0.24805 c -0.85863,-0.72475 -1.89512,-1.1323 -2.97461,-1.38281 l -0.27148,-0.27149 -1.26563,-0.008 z m -131.61719,5.66601 c 0.50394,-0.003 0.66362,0.19143 0.80469,0.49805 0.14107,0.30662 0.18598,0.51804 -0.13477,0.87891 l -0.24218,0.27344 -0.17188,0.32226 c -15.71726,29.42477 -18.16472,46.0142 -16.40625,68.06836 1.44544,18.12823 -1.32127,36.56462 9.8086,52.23828 l 0.0293,0.043 0.0332,0.043 c 1.84594,2.41986 3.70241,4.90698 5.59375,7.30859 l 0.01,0.01 0.008,0.0117 c 0.33296,0.41507 0.26754,0.47308 0.2461,0.59765 -0.0214,0.12458 -0.14527,0.3684 -0.37891,0.55469 -0.23364,0.18629 -0.51411,0.26281 -0.66406,0.25586 -0.14995,-0.007 -0.24003,0.0304 -0.57813,-0.38086 l -0.01,-0.0117 -0.01,-0.0117 c 0.0863,0.10294 0.0649,0.0717 -0.0684,-0.0879 l -0.002,-0.002 -0.004,-0.004 c 0.14276,0.1701 0.11769,0.13476 -0.0469,-0.0625 l -0.002,-0.002 c -1.86922,-2.24108 -3.6709,-4.60785 -5.42188,-7.05664 l -0.0293,-0.043 -0.0312,-0.041 c -10.1642,-13.2558 -10.99456,-28.51267 -14.47656,-47.77344 -1.95962,-10.83964 -1.81105,-19.75894 1.4375,-31.0957 3.21725,-11.22752 9.64385,-24.88964 20.20313,-44.31641 0.14828,-0.11014 0.3084,-0.21358 0.5039,-0.21485 z m 131.58399,0.49415 c 0.14163,7.4e-4 0.25912,0.0774 0.38086,0.13867 26.11407,36.74477 20.9538,49.62865 20.31445,73.07226 -0.54669,20.04594 -2.16892,36.66585 -12.59375,50.36328 l -0.0352,0.0488 -0.0351,0.0488 c -1.58095,2.25694 -3.2363,4.43833 -4.96875,6.5293 l -0.0254,0.0293 -0.0234,0.0312 c -0.10863,0.13805 -0.14926,0.19524 -0.18555,0.24414 -0.011,0.0149 -0.053,0.0696 -0.0566,0.0742 0.005,-0.006 -0.018,0.0195 -0.01,0.01 -0.33521,0.39746 -0.42877,0.36482 -0.58008,0.37109 -0.15132,0.006 -0.42476,-0.0708 -0.6543,-0.2539 -0.22954,-0.18307 -0.35269,-0.4228 -0.375,-0.54883 -0.0223,-0.12603 -0.0854,-0.18491 0.23438,-0.59375 1.83362,-2.32869 3.65593,-4.81592 5.45117,-7.19141 l 0.24804,-0.32812 0.1543,-0.38281 c 12.32515,-30.72627 16.53828,-76.37418 -7.5,-119.7129 l -0.16992,-0.30664 -0.23438,-0.25976 c -0.32497,-0.36067 -0.28084,-0.57276 -0.14062,-0.88086 0.14022,-0.3081 0.29829,-0.50466 0.80469,-0.50195 z"
           id="path4301"
           inkscape:connector-curvature="0" />
        <text
           transform="scale(1.0377694,0.96360522)"
           sodipodi:linespacing="125%"
           id="text4303"
           y="723.15643"
           x="423.73584"
           style="font-style:normal;font-weight:normal;font-size:198.03840637px;line-height:125%;font-family:sans-serif;letter-spacing:0px;word-spacing:0px;fill:#000000;fill-opacity:1;stroke:#ffffff;stroke-width:50;stroke-linecap:butt;stroke-linejoin:round;stroke-miterlimit:4;stroke-dasharray:none;stroke-opacity:1"
           xml:space="preserve"><tspan
             style="font-style:normal;font-variant:normal;font-weight:normal;font-stretch:normal;font-family:arial;-inkscape-font-specification:arial;fill:#000000;stroke:#ffffff;stroke-width:50;stroke-linejoin:round;stroke-miterlimit:4;stroke-dasharray:none"
             y="723.15643"
             x="423.73584"
             id="tspan4305"
             sodipodi:role="line">x</tspan></text>
        <path
           style="fill:#ffffff;fill-rule:evenodd;stroke:none;stroke-width:1px;stroke-linecap:butt;stroke-linejoin:miter;stroke-opacity:1"
           d="m 339.41126,722.18363 175.46375,0 0,-24.08193 -49.59874,-74.98951 -75.77626,0 -24.98646,0 z"
           id="path4312"
           inkscape:connector-curvature="0" />
        <g
           id="g4294">
          <path
             id="path3022"
             d="m 386.8568,544.24754 c -1.37024,-0.0142 -2.82751,0.12598 -4.46962,0.29832 -4.05951,0.42607 -8.82842,1.63251 -13.23129,3.85065 -4.40288,2.21814 -8.52147,5.49835 -10.6576,10.25465 -3.67581,8.18452 -7.65167,22.10806 -11.80627,38.11644 l -16.79618,0 c -2.64529,-0.0377 -4.81082,2.07671 -4.81082,4.6982 0,2.62149 2.16553,4.73597 4.81082,4.6982 l 14.39077,0 c -1.9651,7.77223 -3.96088,15.82042 -5.98418,23.85816 -3.60019,14.30194 -7.23447,28.38613 -10.74097,40.03641 -3.5065,11.65028 -7.03437,20.99018 -9.76677,25.13712 -3.01733,4.57939 -5.34501,7.55788 -6.98927,9.27553 -0.30257,0.31608 -0.43986,0.36193 -0.69631,0.58135 0.004,-0.19629 -0.0351,-0.28552 -0.0201,-0.48037 -0.01,0.12672 0.18344,-0.80361 0.41994,-1.83277 0.23669,-1.02999 0.50324,-2.31033 0.4709,-3.77417 -0.0323,-1.46384 -0.41901,-3.25932 -1.73073,-4.71349 -1.31172,-1.45418 -3.32233,-2.25191 -5.59049,-2.43095 -3.36472,-0.26561 -6.83412,0.30849 -9.79765,2.14945 -2.9635,1.84096 -5.26363,4.98237 -6.24047,9.08737 -1.00941,4.24197 0.29855,8.11731 2.77595,10.44587 2.4774,2.32857 5.64083,3.40324 8.63199,4.19182 2.44976,0.64578 4.92798,0.31385 7.54045,-0.22336 2.61246,-0.53721 5.03626,-1.12967 7.05874,-2.97405 4.19792,-3.82804 9.58468,-11.10777 15.10715,-19.40168 5.52247,-8.2939 11.00933,-17.48152 14.7258,-24.71946 10.46928,-20.38888 13.72158,-42.85637 16.98916,-64.21278 l 18.53154,0 c 2.64528,0.0377 4.81081,-2.07671 4.81081,-4.6982 0,-2.62149 -2.16553,-4.73597 -4.81081,-4.6982 l -17.04938,0 c 1.73832,-10.625 3.74975,-20.84167 6.98309,-30.22083 l 0,-0.002 c 0.6614,-1.91886 1.88985,-4.50333 3.25456,-6.51414 1.3647,-2.01081 3.04587,-3.20521 3.25764,-3.25248 0.99701,-0.22257 0.74998,-0.21789 1.27527,0.27996 0.5253,0.49785 1.40049,1.88234 2.47334,3.78793 0.89662,1.59256 1.3884,3.17999 2.21551,4.99346 0.82711,1.81347 2.15293,3.86981 4.44337,5.37746 5.05329,3.32597 11.93642,1.09735 15.59347,-4.43659 1.83478,-2.77612 2.36928,-6.0184 1.45128,-8.81199 -0.918,-2.79359 -2.78757,-5.07244 -5.10262,-7.70438 -2.36216,-2.68552 -4.36991,-4.51002 -6.96765,-5.39275 -1.29888,-0.44137 -2.58218,-0.60998 -3.95241,-0.62418 z m 41.15659,25.75059 c -1.08124,0.007 -2.1124,0.45255 -2.85313,1.23307 -0.0144,0.0154 -0.0243,0.0305 -0.0386,0.0459 l -0.002,-0.002 c -0.0156,0.0172 -0.0277,0.0348 -0.0432,0.052 -21.56566,39.60264 -26.25659,55.58194 -22.21737,77.92491 3.44357,19.0482 4.26004,35.01297 15.06226,49.10084 1.78622,2.49808 3.63269,4.92699 5.5627,7.24082 0.0188,0.0225 0.0353,0.0479 0.0541,0.0703 0.0248,0.0297 0.0477,0.0621 0.0726,0.0918 3.30764,4.02367 9.41595,-0.84674 6.15711,-4.90932 -1.85795,-2.35922 -3.70714,-4.8349 -5.56579,-7.27142 -10.31061,-14.51994 -7.76954,-32.14048 -9.24945,-50.70107 -1.73264,-21.73023 0.49186,-37.24131 16.05255,-66.37295 2.25621,-2.53843 0.42148,-6.52629 -2.9921,-6.50342 z m 131.61983,0.49414 c -3.42374,-0.0183 -5.2492,3.99261 -2.96893,6.52332 23.51825,42.40115 19.35716,87.10026 7.33448,117.07248 -1.81539,2.40215 -3.63136,4.87851 -5.42067,7.15056 -3.16836,4.05133 2.83869,8.8422 6.15556,4.90932 0.0251,-0.0301 0.0474,-0.0632 0.0726,-0.0933 l 0.002,0.002 c 0.0787,-0.1 0.16349,-0.21795 0.24239,-0.31821 1.78879,-2.15897 3.49401,-4.4061 5.11961,-6.72679 11.05727,-14.52842 12.67165,-31.98326 13.2215,-52.14499 0.63127,-23.14724 5.65389,-37.82825 -21.21678,-75.43915 -0.70936,-0.59875 -1.60945,-0.92982 -2.54127,-0.93475 z"
             style="color:#000000;font-style:normal;font-variant:normal;font-weight:normal;font-stretch:normal;font-size:medium;line-height:normal;font-family:sans-serif;text-indent:0;text-align:start;text-decoration:none;text-decoration-line:none;text-decoration-style:solid;text-decoration-color:#000000;letter-spacing:normal;word-spacing:normal;text-transform:none;direction:ltr;block-progression:tb;writing-mode:lr-tb;baseline-shift:baseline;text-anchor:start;white-space:normal;clip-rule:nonzero;display:inline;overflow:visible;visibility:visible;opacity:1;isolation:auto;mix-blend-mode:normal;color-interpolation:sRGB;color-interpolation-filters:linearRGB;solid-color:#000000;solid-opacity:1;fill:#000000;fill-opacity:1;fill-rule:nonzero;stroke:#000000;stroke-width:6.15925694;stroke-linecap:butt;stroke-linejoin:miter;stroke-miterlimit:4;stroke-dasharray:none;stroke-dashoffset:0;stroke-opacity:1;color-rendering:auto;image-rendering:auto;shape-rendering:auto;text-rendering:auto;enable-background:accumulate"
             inkscape:connector-curvature="0"
             sodipodi:nodetypes="csssccsccssssccscssssscscssccsccccscsssccssscccccccsccccccsccccccccccccsccc" />
          <text
             transform="scale(1.0377694,0.96360523)"
             sodipodi:linespacing="125%"
             id="text4290"
             y="723.15643"
             x="423.73584"
             style="font-style:normal;font-weight:normal;font-size:198.03840637px;line-height:125%;font-family:sans-serif;letter-spacing:0px;word-spacing:0px;fill:#000000;fill-opacity:1;stroke:none;stroke-width:1px;stroke-linecap:butt;stroke-linejoin:miter;stroke-opacity:1"
             xml:space="preserve"><tspan
               style="font-style:normal;font-variant:normal;font-weight:normal;font-stretch:normal;font-family:arial;-inkscape-font-specification:arial;fill:#000000"
               y="723.15643"
               x="423.73584"
               id="tspan4292"
               sodipodi:role="line">x</tspan></text>
        </g>
      </g>
    </g>
  </g>
</svg>
