<?xml version="1.0" encoding="UTF-8" standalone="no"?>
<!-- Created with Inkscape (http://www.inkscape.org/) -->

<svg
   xmlns:dc="http://purl.org/dc/elements/1.1/"
   xmlns:cc="http://creativecommons.org/ns#"
   xmlns:rdf="http://www.w3.org/1999/02/22-rdf-syntax-ns#"
   xmlns:svg="http://www.w3.org/2000/svg"
   xmlns="http://www.w3.org/2000/svg"
   xmlns:xlink="http://www.w3.org/1999/xlink"
   xmlns:sodipodi="http://sodipodi.sourceforge.net/DTD/sodipodi-0.dtd"
   xmlns:inkscape="http://www.inkscape.org/namespaces/inkscape"
   width="210mm"
   height="297mm"
   viewBox="0 0 744.09448819 1052.3622047"
   id="svg2"
   version="1.1"
   inkscape:version="0.91 r13725"
   inkscape:export-xdpi="3.5999997"
   inkscape:export-ydpi="3.5999997"
   sodipodi:docname="user-flying-faculty.svg"
   inkscape:export-filename="D:\Dokumente\Arbeit\RRZE\github\bicons\16x16\categories\user-flying-faculty.png">
  <defs
     id="defs4">
    <linearGradient
       inkscape:collect="always"
       id="linearGradient4254">
      <stop
         style="stop-color:#7a8597;stop-opacity:1"
         offset="0"
         id="stop4256" />
      <stop
         style="stop-color:#4e505d;stop-opacity:1"
         offset="1"
         id="stop4258" />
    </linearGradient>
    <linearGradient
       id="linearGradient2224">
      <stop
         id="stop2226"
         offset="0"
         style="stop-color:#7c7c7c;stop-opacity:1;" />
      <stop
         id="stop2228"
         offset="1"
         style="stop-color:#b8b8b8;stop-opacity:1;" />
    </linearGradient>
    <linearGradient
       id="linearGradient15218">
      <stop
         id="stop15220"
         offset="0"
         style="stop-color:#eeeeef;stop-opacity:1;" />
      <stop
         id="stop2736"
         offset="0.59928656"
         style="stop-color:#d3d7cf;stop-opacity:1;" />
      <stop
         id="stop2738"
         offset="0.82758623"
         style="stop-color:#ffffff;stop-opacity:1;" />
      <stop
         id="stop15222"
         offset="1"
         style="stop-color:#d3d7cf;stop-opacity:1;" />
    </linearGradient>
    <pattern
       y="0"
       x="0"
       height="6"
       width="6"
       patternUnits="userSpaceOnUse"
       id="EMFhbasepattern" />
    <pattern
       y="0"
       x="0"
       height="6"
       width="6"
       patternUnits="userSpaceOnUse"
       id="EMFhbasepattern-5" />
    <linearGradient
       inkscape:collect="always"
       xlink:href="#linearGradient4254"
       id="linearGradient4252"
       x1="380.01031"
       y1="330.40619"
       x2="414.6156"
       y2="457.18103"
       gradientUnits="userSpaceOnUse"
       gradientTransform="translate(0.37005758,-0.39466108)" />
    <linearGradient
       inkscape:collect="always"
       xlink:href="#linearGradient4254"
       id="linearGradient4275"
       x1="380.01031"
       y1="330.40619"
       x2="414.6156"
       y2="457.18103"
       gradientUnits="userSpaceOnUse"
       gradientTransform="translate(0.37005758,-0.39466108)" />
    <linearGradient
       inkscape:collect="always"
       xlink:href="#linearGradient4254"
       id="linearGradient4320"
       x1="380.01031"
       y1="330.40619"
       x2="414.6156"
       y2="457.18103"
       gradientUnits="userSpaceOnUse"
       gradientTransform="translate(0.37005758,-0.39466108)" />
    <linearGradient
       inkscape:collect="always"
       xlink:href="#linearGradient4254"
       id="linearGradient4442"
       gradientUnits="userSpaceOnUse"
       gradientTransform="translate(0.37005758,-0.39466108)"
       x1="380.01031"
       y1="330.40619"
       x2="414.6156"
       y2="457.18103" />
    <linearGradient
       inkscape:collect="always"
       xlink:href="#linearGradient4254"
       id="linearGradient4445"
       x1="380.01031"
       y1="330.40619"
       x2="414.6156"
       y2="457.18103"
       gradientUnits="userSpaceOnUse"
       gradientTransform="translate(0.37005758,-0.39466108)" />
    <linearGradient
       inkscape:collect="always"
       xlink:href="#linearGradient4254"
       id="linearGradient4526"
       gradientUnits="userSpaceOnUse"
       gradientTransform="translate(0.37005758,-0.39466108)"
       x1="380.01031"
       y1="330.40619"
       x2="414.6156"
       y2="457.18103" />
    <linearGradient
       inkscape:collect="always"
       xlink:href="#linearGradient4254"
       id="linearGradient4529"
       gradientUnits="userSpaceOnUse"
       gradientTransform="translate(0.37005758,-0.39466108)"
       x1="380.01031"
       y1="330.40619"
       x2="414.6156"
       y2="457.18103" />
  </defs>
  <sodipodi:namedview
     id="base"
     pagecolor="#ffffff"
     bordercolor="#666666"
     borderopacity="1.0"
     inkscape:pageopacity="0.0"
     inkscape:pageshadow="2"
     inkscape:zoom="0.70710678"
     inkscape:cx="327.1865"
     inkscape:cy="502.52174"
     inkscape:document-units="px"
     inkscape:current-layer="layer1"
     showgrid="false"
     showguides="true"
     inkscape:guide-bbox="true"
     inkscape:window-width="1600"
     inkscape:window-height="837"
     inkscape:window-x="-4"
     inkscape:window-y="-4"
     inkscape:window-maximized="1"
     inkscape:snap-bbox="true"
     inkscape:bbox-paths="true"
     inkscape:snap-bbox-edge-midpoints="false"
     inkscape:bbox-nodes="true">
    <sodipodi:guide
       position="315.53572,730.17859"
       orientation="0,1"
       id="guide3338" />
    <sodipodi:guide
       position="351.25,330.17858"
       orientation="0,1"
       id="guide3340" />
    <sodipodi:guide
       position="189.10714,408.8393"
       orientation="1,0"
       id="guide3344" />
    <sodipodi:guide
       position="589.04521,468.07945"
       orientation="1,0"
       id="guide3346" />
    <inkscape:grid
       type="xygrid"
       id="grid3440" />
    <sodipodi:guide
       position="589.04521,378.30213"
       orientation="1,0"
       id="guide3411" />
  </sodipodi:namedview>
  <metadata
     id="metadata7">
    <rdf:RDF>
      <cc:Work
         rdf:about="">
        <dc:format>image/svg+xml</dc:format>
        <dc:type
           rdf:resource="http://purl.org/dc/dcmitype/StillImage" />
        <dc:title>user flying faculty</dc:title>
        <dc:date>June 2015</dc:date>
        <dc:creator>
          <cc:Agent>
            <dc:title>Johannes Hechler</dc:title>
          </cc:Agent>
        </dc:creator>
        <dc:rights>
          <cc:Agent>
            <dc:title>Johannes Hechler</dc:title>
          </cc:Agent>
        </dc:rights>
        <dc:publisher>
          <cc:Agent>
            <dc:title>RRZE</dc:title>
          </cc:Agent>
        </dc:publisher>
        <dc:contributor>
          <cc:Agent>
            <dc:title>Ute Weber, Hendrik Eggers</dc:title>
          </cc:Agent>
        </dc:contributor>
      </cc:Work>
    </rdf:RDF>
  </metadata>
  <g
     inkscape:label="Ebene 1"
     inkscape:groupmode="layer"
     id="layer1">
    <g
       id="g4257"
       transform="translate(-2.6919552,-83.28707)">
      <flowRoot
         transform="matrix(1.0126302,0,0,1.0039489,-0.3414429,81.721258)"
         xml:space="preserve"
         id="flowRoot4169"
         style="font-style:normal;font-weight:normal;font-size:40px;line-height:125%;font-family:sans-serif;letter-spacing:0px;word-spacing:0px;fill:#252525;fill-opacity:1;stroke:none;stroke-width:1px;stroke-linecap:butt;stroke-linejoin:miter;stroke-opacity:1"><flowRegion
           id="flowRegion4171"><rect
             id="rect4173"
             width="56.433445"
             height="88.78862"
             x="89.541069"
             y="427.07962" /></flowRegion><flowPara
           id="flowPara4175" /></flowRoot>      <flowRoot
         transform="matrix(1.0126302,0,0,1.0039489,567.95334,139.97397)"
         xml:space="preserve"
         id="flowRoot4169-9"
         style="font-style:normal;font-weight:normal;font-size:40px;line-height:125%;font-family:sans-serif;letter-spacing:0px;word-spacing:0px;fill:#252525;fill-opacity:1;stroke:none;stroke-width:1px;stroke-linecap:butt;stroke-linejoin:miter;stroke-opacity:1"><flowRegion
           id="flowRegion4171-9"><rect
             id="rect4173-6"
             width="56.433445"
             height="88.78862"
             x="89.541069"
             y="427.07962" /></flowRegion><flowPara
           id="flowPara4175-7" /></flowRoot>      <path
         id="path5162"
         d="m 504.55747,405.4707 a 62.531728,62.746823 0 0 0 -57.02343,37.18945 c 26.90663,14.94569 45.34765,43.48453 45.34765,76.1875 0,3.66124 -0.23883,7.26931 -0.6875,10.8125 a 62.531728,62.746823 0 0 0 12.36328,1.30469 62.531728,62.746823 0 0 0 62.53321,-62.74805 62.531728,62.746823 0 0 0 -62.53321,-62.74609 z m 33.64844,146.44922 c -8.26921,4.603 -23.8047,3.22656 -33.94141,3.22656 -5.58466,10e-6 -12.70203,0.34186 -19.4082,-0.0781 -5.85377,12.55787 -14.6364,23.52244 -25.44141,32.03906 5.46442,5.74627 11.13865,11.81575 16.70899,18.36328 l 83.06836,0 c 10.5115,0 19.82138,4.93955 25.76367,12.62695 -9.54009,-27.92307 -27.87998,-46.39269 -46.75,-66.17773 z"
         style="fill:#4e505d;fill-opacity:1;stroke:none;stroke-width:41.15159225;stroke-linecap:round;stroke-linejoin:round;stroke-opacity:1"
         inkscape:connector-curvature="0" />
      <flowRoot
         transform="matrix(1.0126302,0,0,1.0039489,-0.3414429,81.721258)"
         xml:space="preserve"
         id="flowRoot4169-97"
         style="font-style:normal;font-weight:normal;font-size:40px;line-height:125%;font-family:sans-serif;letter-spacing:0px;word-spacing:0px;fill:#252525;fill-opacity:1;stroke:none;stroke-width:1px;stroke-linecap:butt;stroke-linejoin:miter;stroke-opacity:1"><flowRegion
           id="flowRegion4171-5"><rect
             id="rect4173-0"
             width="56.433445"
             height="88.78862"
             x="89.541069"
             y="427.07962" /></flowRegion><flowPara
           id="flowPara4175-4" /></flowRoot>      <flowRoot
         transform="matrix(1.0126302,0,0,1.0039489,567.95334,139.97397)"
         xml:space="preserve"
         id="flowRoot4169-9-8"
         style="font-style:normal;font-weight:normal;font-size:40px;line-height:125%;font-family:sans-serif;letter-spacing:0px;word-spacing:0px;fill:#252525;fill-opacity:1;stroke:none;stroke-width:1px;stroke-linecap:butt;stroke-linejoin:miter;stroke-opacity:1"><flowRegion
           id="flowRegion4171-9-8"><rect
             id="rect4173-6-1"
             width="56.433445"
             height="88.78862"
             x="89.541069"
             y="427.07962" /></flowRegion><flowPara
           id="flowPara4175-7-0" /></flowRoot>      <path
         id="path5152"
         d="m 404.35044,455.66797 a 63.053823,62.176038 0 0 0 -57.13281,36.04296 c 25.1568,15.37956 42.14648,42.93343 42.14648,74.32227 1e-5,4.05439 -0.29149,8.04133 -0.83984,11.94922 a 63.053823,62.176038 0 0 0 15.82617,2.03906 63.053823,62.176038 0 0 0 63.05469,-62.17773 63.053823,62.176038 0 0 0 -63.05469,-62.17578 z m 34.17188,145.30859 c -8.2692,4.603 -23.80469,3.22656 -33.94141,3.22656 -6.86823,10e-6 -16.05291,0.51841 -23.93945,-0.50586 -0.29116,0.59554 -0.59413,1.18545 -0.89844,1.77344 l 63.07031,0 c -1.4256,-1.49438 -2.85569,-2.98922 -4.29101,-4.49414 z m -121.78516,92.91797 c -0.61683,5.49284 -0.95117,11.27542 -0.95117,17.39453 0,6.31915 0.333,12.52473 0.95117,18.5957 l 0,-35.99023 z"
         style="fill:#4e505d;fill-opacity:1;stroke:none;stroke-width:41.15159225;stroke-linecap:round;stroke-linejoin:round;stroke-opacity:1"
         inkscape:connector-curvature="0" />
      <path
         id="path2176-1"
         d="m 305.30161,504.86133 a 63.053823,62.176038 0 0 0 -63.05469,62.17578 63.053823,62.176038 0 0 0 63.05469,62.17578 63.053823,62.176038 0 0 0 13.05469,-1.37305 c 4.25434,-13.0145 16.45399,-22.36914 30.92578,-22.36914 l 5.56641,0 a 63.053823,62.176038 0 0 0 13.50586,-38.43359 63.053823,62.176038 0 0 0 -63.05274,-62.17578 z m -34.43164,148.9121 0,0.004 c -0.0886,0.0778 -0.1702,0.16085 -0.26172,0.23633 l -4.93945,2.6543 c -24.20937,26.15711 -48.93164,50.5119 -48.93164,103.81438 0,11.4487 1.05233,22.5404 3.01758,33.0937 2.91503,6.4653 10.23971,11.2034 19.01562,11.8223 l 0,0.072 110.51172,0 c -18.02971,3e-4 -32.54492,-14.5149 -32.54492,-32.5447 l 0,-115.34371 c -4.01174,-0.0375 -7.90367,-0.17188 -11.20703,-0.17188 -10.43219,10e-6 -26.22676,1.2183 -34.66016,-3.63672 z"
         style="fill:#4e505d;fill-opacity:1;stroke:none;stroke-width:41.15159225;stroke-linecap:round;stroke-linejoin:round;stroke-opacity:1"
         inkscape:connector-curvature="0" />
      <path
         inkscape:connector-curvature="0"
         id="rect4282"
         d="m 191.73716,405.47072 400,0 0,400.00002 -400,0 z"
         style="color:#000000;clip-rule:nonzero;display:inline;overflow:visible;visibility:visible;opacity:1;isolation:auto;mix-blend-mode:normal;color-interpolation:sRGB;color-interpolation-filters:linearRGB;solid-color:#000000;solid-opacity:1;fill:none;fill-opacity:1;fill-rule:evenodd;stroke:none;stroke-width:50;stroke-linecap:butt;stroke-linejoin:round;stroke-miterlimit:4;stroke-dasharray:none;stroke-dashoffset:0;stroke-opacity:1;color-rendering:auto;image-rendering:auto;shape-rendering:auto;text-rendering:auto;enable-background:accumulate" />
      <path
         sodipodi:nodetypes="ccccccsssssccc"
         inkscape:connector-curvature="0"
         id="rect4461"
         d="m 382.18089,630.72282 78.73215,99.63341 -56.83446,22.85521 -37.27842,-46.76819 -24.68567,-0.18973 36.30875,77.54742 c 0.27012,2.0015 0.78489,4.0038 1.56645,5.9682 5.10594,12.833 19.49288,19.0317 32.25772,13.8985 l 163.8718,-65.89875 c 12.76484,-5.13325 18.93069,-19.59704 13.82475,-32.43006 -5.10593,-12.83301 -19.49289,-19.03179 -32.25773,-13.89858 l -39.51572,15.89071 -101.94168,-76.02389 z"
         style="color:#000000;clip-rule:nonzero;display:inline;overflow:visible;visibility:visible;opacity:1;isolation:auto;mix-blend-mode:normal;color-interpolation:sRGB;color-interpolation-filters:linearRGB;solid-color:#000000;solid-opacity:1;fill:#99b000;fill-opacity:1;fill-rule:nonzero;stroke:none;stroke-width:50;stroke-linecap:square;stroke-linejoin:round;stroke-miterlimit:4;stroke-dasharray:none;stroke-dashoffset:0;stroke-opacity:1;color-rendering:auto;image-rendering:auto;shape-rendering:auto;text-rendering:auto;enable-background:accumulate" />
    </g>
  </g>
</svg>
