<?xml version="1.0" encoding="UTF-8" standalone="no"?>
<!-- Created with Inkscape (http://www.inkscape.org/) -->

<svg
   xmlns:dc="http://purl.org/dc/elements/1.1/"
   xmlns:cc="http://creativecommons.org/ns#"
   xmlns:rdf="http://www.w3.org/1999/02/22-rdf-syntax-ns#"
   xmlns:svg="http://www.w3.org/2000/svg"
   xmlns="http://www.w3.org/2000/svg"
   xmlns:xlink="http://www.w3.org/1999/xlink"
   xmlns:sodipodi="http://sodipodi.sourceforge.net/DTD/sodipodi-0.dtd"
   xmlns:inkscape="http://www.inkscape.org/namespaces/inkscape"
   width="210mm"
   height="297mm"
   viewBox="0 0 744.09448819 1052.3622047"
   id="svg2"
   version="1.1"
   inkscape:version="0.91 r13725"
   inkscape:export-xdpi="3.5999999"
   inkscape:export-ydpi="3.5999999"
   sodipodi:docname="user-student-zombie.svg"
   inkscape:export-filename="C:\Users\johannes\Documents\Arbeit\RRZE\github3\bicons\16x16\categories\user-student-zombie.png">
  <defs
     id="defs4">
    <linearGradient
       id="linearGradient2224">
      <stop
         style="stop-color:#7c7c7c;stop-opacity:1;"
         offset="0"
         id="stop4251" />
      <stop
         style="stop-color:#b8b8b8;stop-opacity:1;"
         offset="1"
         id="stop4253" />
    </linearGradient>
    <linearGradient
       id="linearGradient4255">
      <stop
         id="stop2226"
         offset="0"
         style="stop-color:#7c7c7c;stop-opacity:1;" />
      <stop
         id="stop2228"
         offset="1"
         style="stop-color:#b8b8b8;stop-opacity:1;" />
    </linearGradient>
    <linearGradient
       id="linearGradient15218">
      <stop
         id="stop15220"
         offset="0"
         style="stop-color:#eeeeef;stop-opacity:1;" />
      <stop
         id="stop2736"
         offset="0.59928656"
         style="stop-color:#d3d7cf;stop-opacity:1;" />
      <stop
         id="stop2738"
         offset="0.82758623"
         style="stop-color:#ffffff;stop-opacity:1;" />
      <stop
         id="stop15222"
         offset="1"
         style="stop-color:#d3d7cf;stop-opacity:1;" />
    </linearGradient>
    <pattern
       y="0"
       x="0"
       height="6"
       width="6"
       patternUnits="userSpaceOnUse"
       id="EMFhbasepattern" />
    <pattern
       y="0"
       x="0"
       height="6"
       width="6"
       patternUnits="userSpaceOnUse"
       id="EMFhbasepattern-5" />
    <linearGradient
       inkscape:collect="always"
       xlink:href="#linearGradient4254"
       id="linearGradient4268"
       x1="358.43118"
       y1="465.73074"
       x2="429.96555"
       y2="644.62878"
       gradientUnits="userSpaceOnUse"
       gradientTransform="matrix(1.1386133,0,0,1.1369311,-55.954266,-53.03236)" />
    <linearGradient
       inkscape:collect="always"
       id="linearGradient4254">
      <stop
         style="stop-color:#7a8597;stop-opacity:1"
         offset="0"
         id="stop4256" />
      <stop
         style="stop-color:#4e505d;stop-opacity:1"
         offset="1"
         id="stop4258" />
    </linearGradient>
    <linearGradient
       inkscape:collect="always"
       xlink:href="#linearGradient4410"
       id="linearGradient4217"
       gradientUnits="userSpaceOnUse"
       gradientTransform="matrix(1.4213542,0,0,1.3240272,-170.98734,-96.83955)"
       x1="378.51413"
       y1="461.36569"
       x2="424.83945"
       y2="349.64282" />
    <linearGradient
       inkscape:collect="always"
       id="linearGradient4410">
      <stop
         style="stop-color:#4e505d;stop-opacity:1;"
         offset="0"
         id="stop4412" />
      <stop
         style="stop-color:#7a8597;stop-opacity:1"
         offset="1"
         id="stop4414" />
    </linearGradient>
  </defs>
  <sodipodi:namedview
     id="base"
     pagecolor="#ffffff"
     bordercolor="#666666"
     borderopacity="1.0"
     inkscape:pageopacity="0.0"
     inkscape:pageshadow="2"
     inkscape:zoom="1"
     inkscape:cx="324.99508"
     inkscape:cy="507.51613"
     inkscape:document-units="px"
     inkscape:current-layer="layer1"
     showgrid="false"
     showguides="true"
     inkscape:guide-bbox="true"
     inkscape:window-width="1366"
     inkscape:window-height="721"
     inkscape:window-x="-4"
     inkscape:window-y="-4"
     inkscape:window-maximized="1"
     inkscape:snap-bbox="true"
     inkscape:bbox-paths="true"
     inkscape:bbox-nodes="true">
    <sodipodi:guide
       position="315.53572,730.17859"
       orientation="0,1"
       id="guide3338" />
    <sodipodi:guide
       position="189.10714,408.8393"
       orientation="1,0"
       id="guide3344" />
    <sodipodi:guide
       position="589.04521,468.07945"
       orientation="1,0"
       id="guide3346" />
    <inkscape:grid
       type="xygrid"
       id="grid3440" />
    <sodipodi:guide
       position="589.04521,378.30213"
       orientation="1,0"
       id="guide3411" />
    <sodipodi:guide
       position="198.87378,330.0421"
       orientation="0,1"
       id="guide4291" />
  </sodipodi:namedview>
  <metadata
     id="metadata7">
    <rdf:RDF>
      <cc:Work
         rdf:about="">
        <dc:format>image/svg+xml</dc:format>
        <dc:type
           rdf:resource="http://purl.org/dc/dcmitype/StillImage" />
        <dc:title>user student zombie</dc:title>
        <dc:date>June 2015</dc:date>
        <dc:creator>
          <cc:Agent>
            <dc:title>Johannes Hechler</dc:title>
          </cc:Agent>
        </dc:creator>
        <dc:rights>
          <cc:Agent>
            <dc:title>Johannes Hechler</dc:title>
          </cc:Agent>
        </dc:rights>
        <dc:publisher>
          <cc:Agent>
            <dc:title>RRZE</dc:title>
          </cc:Agent>
        </dc:publisher>
        <dc:contributor>
          <cc:Agent>
            <dc:title>Ute Weber, Hendrik Eggers</dc:title>
          </cc:Agent>
        </dc:contributor>
      </cc:Work>
    </rdf:RDF>
  </metadata>
  <g
     inkscape:label="Ebene 1"
     inkscape:groupmode="layer"
     id="layer1">
    <flowRoot
       transform="matrix(1,0,0,0.99852263,-0.037716,0.3898)"
       xml:space="preserve"
       id="flowRoot4169"
       style="font-style:normal;font-weight:normal;font-size:40px;line-height:125%;font-family:sans-serif;letter-spacing:0px;word-spacing:0px;fill:#252525;fill-opacity:1;stroke:none;stroke-width:1px;stroke-linecap:butt;stroke-linejoin:miter;stroke-opacity:1"><flowRegion
         id="flowRegion4171"><rect
           id="rect4173"
           width="56.433445"
           height="88.78862"
           x="89.541069"
           y="427.07962" /></flowRegion><flowPara
         id="flowPara4175" /></flowRoot>    <rect
       style="fill:none;fill-rule:evenodd;stroke:none;stroke-width:1px;stroke-linecap:butt;stroke-linejoin:miter;stroke-opacity:1"
       id="rect3336"
       width="400"
       height="399.40906"
       x="189.10713"
       y="322.18372"
       inkscape:export-xdpi="4.9499998"
       inkscape:export-ydpi="4.9499998" />
    <path
       style="fill:url(#linearGradient4268);fill-opacity:1;stroke:none;stroke-width:41.15159225;stroke-linecap:round;stroke-linejoin:round;stroke-opacity:1"
       d="M 321.71484 502.70898 L 321.61133 502.8125 C 322.4022 503.43512 322.65943 503.32092 322.35742 503.125 C 322.28052 503.0751 321.96704 502.87269 321.71484 502.70898 z M 314.83789 509.89844 C 272.64361 556.04058 257.67951 611.84181 257.15625 653.84961 C 257.15625 671.2389 258.7452 688.08796 261.70898 704.11719 C 266.10514 713.93731 277.14983 721.13414 290.38477 722.07422 L 290.38477 722.18359 L 420.27344 722.18359 A 24.822162 25.184148 0 0 1 416.39258 708.7168 L 416.39258 666.85742 A 24.822162 25.184148 0 0 1 440.30469 641.71875 C 438.46717 640.16775 436.69883 638.52914 435.00391 636.79297 A 24.822162 25.184148 0 0 1 434.91992 636.70508 C 421.29299 622.61097 414.74219 602.76441 414.74219 582.62305 C 414.74219 570.57542 416.96329 558.72824 421.34375 547.98633 L 351.36719 547.98633 C 331.61586 547.98633 316.00268 530.9965 315.00781 512.9707 L 314.83789 509.89844 z "
       id="path2176" />
    <path
       style="fill:url(#linearGradient4217);fill-opacity:1;fill-rule:evenodd;stroke:none;stroke-width:1px;stroke-linecap:butt;stroke-linejoin:round;stroke-opacity:1"
       d="m 311.10099,418.12009 c -0.54677,26.00622 7.05078,49.0625 7.05078,49.0625 9.82427,11.84029 18.63727,14.51658 20.30664,17.01953 l 1.51172,27.39063 c 0.34793,6.30408 5.08283,11.39453 11.39649,11.39453 l 76.13476,0 c 6.31368,0 11.39649,-5.08085 11.39649,-11.39453 l 1.51172,-28.07422 c 7.49005,-5.02615 14.09924,-8.4442 21.21093,-16.33594 0,0 6.46216,-21.66524 5.64649,-46.68164 -3.61015,1.228 -7.45104,1.9043 -11.41797,1.9043 l -16.66602,0 c 0.20066,1.24625 0.30861,2.52331 0.3086,3.82617 1.3e-4,13.19576 1.3031,36.89279 -11.89258,36.89258 -13.19568,2.1e-4 -13.89271,-23.69682 -13.89258,-36.89258 -10e-6,-1.30286 0.10794,-2.57992 0.30859,-3.82617 l -48.68359,0 c 0.0455,0.60258 0.0762,1.20998 0.0762,1.82422 1.3e-4,13.19576 -0.19689,38.89278 -13.39258,38.89257 -13.19567,2.1e-4 -12.3927,-25.69681 -12.39257,-38.89257 -10e-6,-0.61424 0.0306,-1.22164 0.0762,-1.82422 l -1.66016,0 c -6.0749,0 -21.84529,-1.56205 -26.9375,-4.28516 z"
       id="path4198"
       inkscape:connector-curvature="0"
       sodipodi:nodetypes="cccsssccccsccccccscccscc" />
    <text
       xml:space="preserve"
       style="font-style:normal;font-weight:normal;font-size:261.87915039px;line-height:125%;font-family:sans-serif;text-align:end;letter-spacing:0px;word-spacing:0px;text-anchor:end;fill:#99b000;fill-opacity:1;stroke:none;stroke-width:1px;stroke-linecap:butt;stroke-linejoin:miter;stroke-opacity:1"
       x="612.69556"
       y="713.57849"
       id="text4278"
       sodipodi:linespacing="125%"
       transform="scale(0.99278721,1.0072652)"><tspan
         sodipodi:role="line"
         id="tspan4280"
         x="612.69556"
         y="713.57849"
         style="font-style:normal;font-variant:normal;font-weight:bold;font-stretch:normal;font-family:sans-serif;-inkscape-font-specification:'sans-serif Bold';fill:#99b000">S</tspan></text>
    <g
       transform="translate(0.061934,8e-5)"
       id="g4411">
      <path
         inkscape:connector-curvature="0"
         id="rect4228"
         d="m 275.77148,322.18359 c -6.36538,0 -11.49023,5.12485 -11.49023,11.49024 l 0,1.94922 c 0,6.36538 5.12485,11.48828 11.49023,11.48828 l 59,0 c -10.94801,11.78588 -17.81785,26.73748 -19.60742,42.67383 1.58394,4.44658 5.80892,7.61914 10.8125,7.61914 l 127.81055,0 c 6.14901,0 11.1249,-4.78641 11.45703,-10.84961 l 0,-0.002 c -2.29853,-14.73966 -8.95679,-28.46815 -19.12891,-39.4414 l 57.26954,0 c 6.36538,0 11.49023,-5.1229 11.49023,-11.48828 l 0,-1.94922 c 0,-6.36539 -5.12485,-11.49024 -11.49023,-11.49024 l -227.61329,0 z m 38.76758,64.80274 c 0.0195,0.212 0.0552,0.41851 0.0859,0.62695 -0.0316,-0.20775 -0.0658,-0.41555 -0.0859,-0.62695 z m 0.14063,0.99414 c 0.0481,0.26638 0.10977,0.52756 0.17578,0.78711 -0.067,-0.25916 -0.12651,-0.52124 -0.17578,-0.78711 z m 0.21484,0.94141 c 0.0765,0.28415 0.16453,0.56302 0.26172,0.83789 -0.0973,-0.27496 -0.18428,-0.55414 -0.26172,-0.83789 z"
         style="color:#000000;clip-rule:nonzero;display:inline;overflow:visible;visibility:visible;opacity:1;isolation:auto;mix-blend-mode:normal;color-interpolation:sRGB;color-interpolation-filters:linearRGB;solid-color:#000000;solid-opacity:1;fill:#2f3037;fill-opacity:1;fill-rule:evenodd;stroke:none;stroke-width:35;stroke-linecap:butt;stroke-linejoin:round;stroke-miterlimit:4;stroke-dasharray:none;stroke-dashoffset:0;stroke-opacity:1;color-rendering:auto;image-rendering:auto;shape-rendering:auto;text-rendering:auto;enable-background:accumulate" />
      <rect
         ry="11.4899"
         y="322.18362"
         x="489.875"
         height="100.49998"
         width="25"
         id="rect4256"
         style="color:#000000;clip-rule:nonzero;display:inline;overflow:visible;visibility:visible;opacity:1;isolation:auto;mix-blend-mode:normal;color-interpolation:sRGB;color-interpolation-filters:linearRGB;solid-color:#000000;solid-opacity:1;fill:#2f3037;fill-opacity:1;fill-rule:evenodd;stroke:none;stroke-width:50;stroke-linecap:butt;stroke-linejoin:round;stroke-miterlimit:4;stroke-dasharray:none;stroke-dashoffset:0;stroke-opacity:1;color-rendering:auto;image-rendering:auto;shape-rendering:auto;text-rendering:auto;enable-background:accumulate" />
      <rect
         ry="11.4899"
         y="372.11218"
         x="489.875"
         height="50.571419"
         width="49.293919"
         id="rect4258"
         style="color:#000000;clip-rule:nonzero;display:inline;overflow:visible;visibility:visible;opacity:1;isolation:auto;mix-blend-mode:normal;color-interpolation:sRGB;color-interpolation-filters:linearRGB;solid-color:#000000;solid-opacity:1;fill:#2f3037;fill-opacity:1;fill-rule:evenodd;stroke:none;stroke-width:50;stroke-linecap:butt;stroke-linejoin:round;stroke-miterlimit:4;stroke-dasharray:none;stroke-dashoffset:0;stroke-opacity:1;color-rendering:auto;image-rendering:auto;shape-rendering:auto;text-rendering:auto;enable-background:accumulate" />
    </g>
  </g>
</svg>
