<?xml version="1.0" encoding="UTF-8" standalone="no"?>
<!-- Created with Inkscape (http://www.inkscape.org/) -->

<svg
   xmlns:dc="http://purl.org/dc/elements/1.1/"
   xmlns:cc="http://creativecommons.org/ns#"
   xmlns:rdf="http://www.w3.org/1999/02/22-rdf-syntax-ns#"
   xmlns:svg="http://www.w3.org/2000/svg"
   xmlns="http://www.w3.org/2000/svg"
   xmlns:xlink="http://www.w3.org/1999/xlink"
   xmlns:sodipodi="http://sodipodi.sourceforge.net/DTD/sodipodi-0.dtd"
   xmlns:inkscape="http://www.inkscape.org/namespaces/inkscape"
   width="210mm"
   height="297mm"
   viewBox="0 0 744.09448819 1052.3622047"
   id="svg2"
   version="1.1"
   inkscape:version="0.91 r13725"
   inkscape:export-xdpi="3.8233273"
   inkscape:export-ydpi="3.8233273"
   sodipodi:docname="user-group.svg"
   inkscape:export-filename="C:\Users\johannes\Documents\Arbeit\RRZE\github3\bicons\16x16\categories\user-group.png">
  <defs
     id="defs4">
    <linearGradient
       inkscape:collect="always"
       id="linearGradient4254">
      <stop
         style="stop-color:#7a8597;stop-opacity:1"
         offset="0"
         id="stop4256" />
      <stop
         style="stop-color:#4e505d;stop-opacity:1"
         offset="1"
         id="stop4258" />
    </linearGradient>
    <linearGradient
       id="linearGradient2224">
      <stop
         id="stop2226"
         offset="0"
         style="stop-color:#7c7c7c;stop-opacity:1;" />
      <stop
         id="stop2228"
         offset="1"
         style="stop-color:#b8b8b8;stop-opacity:1;" />
    </linearGradient>
    <linearGradient
       id="linearGradient15218">
      <stop
         id="stop15220"
         offset="0"
         style="stop-color:#eeeeef;stop-opacity:1;" />
      <stop
         id="stop2736"
         offset="0.59928656"
         style="stop-color:#d3d7cf;stop-opacity:1;" />
      <stop
         id="stop2738"
         offset="0.82758623"
         style="stop-color:#ffffff;stop-opacity:1;" />
      <stop
         id="stop15222"
         offset="1"
         style="stop-color:#d3d7cf;stop-opacity:1;" />
    </linearGradient>
    <pattern
       y="0"
       x="0"
       height="6"
       width="6"
       patternUnits="userSpaceOnUse"
       id="EMFhbasepattern" />
    <pattern
       y="0"
       x="0"
       height="6"
       width="6"
       patternUnits="userSpaceOnUse"
       id="EMFhbasepattern-5" />
    <linearGradient
       inkscape:collect="always"
       xlink:href="#linearGradient4254"
       id="linearGradient4252"
       x1="380.01031"
       y1="330.40619"
       x2="414.6156"
       y2="457.18103"
       gradientUnits="userSpaceOnUse"
       gradientTransform="translate(0.37005758,-0.39466108)" />
    <linearGradient
       inkscape:collect="always"
       xlink:href="#linearGradient4254"
       id="linearGradient4275"
       x1="380.01031"
       y1="330.40619"
       x2="414.6156"
       y2="457.18103"
       gradientUnits="userSpaceOnUse"
       gradientTransform="translate(0.37005758,-0.39466108)" />
    <linearGradient
       inkscape:collect="always"
       xlink:href="#linearGradient4254"
       id="linearGradient4320"
       x1="380.01031"
       y1="330.40619"
       x2="414.6156"
       y2="457.18103"
       gradientUnits="userSpaceOnUse"
       gradientTransform="translate(0.37005758,-0.39466108)" />
    <linearGradient
       inkscape:collect="always"
       xlink:href="#linearGradient4254"
       id="linearGradient4442"
       gradientUnits="userSpaceOnUse"
       gradientTransform="translate(0.37005758,-0.39466108)"
       x1="380.01031"
       y1="330.40619"
       x2="414.6156"
       y2="457.18103" />
    <linearGradient
       inkscape:collect="always"
       xlink:href="#linearGradient4254"
       id="linearGradient4445"
       x1="380.01031"
       y1="330.40619"
       x2="414.6156"
       y2="457.18103"
       gradientUnits="userSpaceOnUse"
       gradientTransform="translate(0.37005758,-0.39466108)" />
    <linearGradient
       inkscape:collect="always"
       xlink:href="#linearGradient4254"
       id="linearGradient4526"
       gradientUnits="userSpaceOnUse"
       gradientTransform="translate(0.37005758,-0.39466108)"
       x1="380.01031"
       y1="330.40619"
       x2="414.6156"
       y2="457.18103" />
    <linearGradient
       inkscape:collect="always"
       xlink:href="#linearGradient4254"
       id="linearGradient4529"
       gradientUnits="userSpaceOnUse"
       gradientTransform="translate(0.37005758,-0.39466108)"
       x1="380.01031"
       y1="330.40619"
       x2="414.6156"
       y2="457.18103" />
    <linearGradient
       inkscape:collect="always"
       xlink:href="#linearGradient4254"
       id="linearGradient4288"
       gradientUnits="userSpaceOnUse"
       gradientTransform="translate(0.37005758,-0.39466108)"
       x1="380.01031"
       y1="330.40619"
       x2="414.6156"
       y2="457.18103" />
    <linearGradient
       inkscape:collect="always"
       xlink:href="#linearGradient4254"
       id="linearGradient4290"
       x1="358.43118"
       y1="465.73074"
       x2="429.96555"
       y2="644.62878"
       gradientUnits="userSpaceOnUse" />
    <linearGradient
       inkscape:collect="always"
       xlink:href="#linearGradient4254"
       id="linearGradient4292"
       gradientUnits="userSpaceOnUse"
       gradientTransform="translate(0.37005758,-0.39466108)"
       x1="380.01031"
       y1="330.40619"
       x2="414.6156"
       y2="457.18103" />
    <linearGradient
       inkscape:collect="always"
       xlink:href="#linearGradient4254"
       id="linearGradient4294"
       x1="358.43118"
       y1="465.73074"
       x2="429.96555"
       y2="644.62878"
       gradientUnits="userSpaceOnUse" />
    <linearGradient
       inkscape:collect="always"
       xlink:href="#linearGradient4254"
       id="linearGradient4296"
       gradientUnits="userSpaceOnUse"
       gradientTransform="translate(0.37005758,-0.39466108)"
       x1="380.01031"
       y1="330.40619"
       x2="414.6156"
       y2="457.18103" />
    <linearGradient
       inkscape:collect="always"
       xlink:href="#linearGradient4254"
       id="linearGradient4303"
       x1="358.43118"
       y1="465.73074"
       x2="429.96555"
       y2="644.62878"
       gradientUnits="userSpaceOnUse" />
    <linearGradient
       inkscape:collect="always"
       xlink:href="#linearGradient4254"
       id="linearGradient4305"
       gradientUnits="userSpaceOnUse"
       gradientTransform="translate(0.37005758,-0.39466108)"
       x1="380.01031"
       y1="330.40619"
       x2="414.6156"
       y2="457.18103" />
    <linearGradient
       inkscape:collect="always"
       xlink:href="#linearGradient4254"
       id="linearGradient4307"
       x1="358.43118"
       y1="465.73074"
       x2="429.96555"
       y2="644.62878"
       gradientUnits="userSpaceOnUse" />
    <linearGradient
       inkscape:collect="always"
       xlink:href="#linearGradient4254"
       id="linearGradient4287"
       x1="380.01031"
       y1="330.40619"
       x2="414.6156"
       y2="457.18103"
       gradientUnits="userSpaceOnUse"
       gradientTransform="translate(0.37005758,-0.39466108)" />
  </defs>
  <sodipodi:namedview
     id="base"
     pagecolor="#ffffff"
     bordercolor="#666666"
     borderopacity="1.0"
     inkscape:pageopacity="0.0"
     inkscape:pageshadow="2"
     inkscape:zoom="0.35355339"
     inkscape:cx="-152.99011"
     inkscape:cy="649.44245"
     inkscape:document-units="px"
     inkscape:current-layer="layer1"
     showgrid="false"
     showguides="true"
     inkscape:guide-bbox="true"
     inkscape:window-width="1366"
     inkscape:window-height="721"
     inkscape:window-x="-4"
     inkscape:window-y="-4"
     inkscape:window-maximized="1">
    <sodipodi:guide
       position="315.53572,730.17859"
       orientation="0,1"
       id="guide3338" />
    <sodipodi:guide
       position="351.25,330.17858"
       orientation="0,1"
       id="guide3340" />
    <sodipodi:guide
       position="189.10714,408.8393"
       orientation="1,0"
       id="guide3344" />
    <sodipodi:guide
       position="589.04521,468.07945"
       orientation="1,0"
       id="guide3346" />
    <inkscape:grid
       type="xygrid"
       id="grid3440" />
    <sodipodi:guide
       position="589.04521,378.30213"
       orientation="1,0"
       id="guide3411" />
  </sodipodi:namedview>
  <metadata
     id="metadata7">
    <rdf:RDF>
      <cc:Work
         rdf:about="">
        <dc:format>image/svg+xml</dc:format>
        <dc:type
           rdf:resource="http://purl.org/dc/dcmitype/StillImage" />
        <dc:title>user group</dc:title>
        <dc:date>June 2015</dc:date>
        <dc:creator>
          <cc:Agent>
            <dc:title>Johannes Hechler</dc:title>
          </cc:Agent>
        </dc:creator>
        <dc:rights>
          <cc:Agent>
            <dc:title>Johannes Hechler</dc:title>
          </cc:Agent>
        </dc:rights>
        <dc:publisher>
          <cc:Agent>
            <dc:title>RRZE</dc:title>
          </cc:Agent>
        </dc:publisher>
        <dc:contributor>
          <cc:Agent>
            <dc:title>Ute Weber, Hendrik Eggers</dc:title>
          </cc:Agent>
        </dc:contributor>
      </cc:Work>
    </rdf:RDF>
  </metadata>
  <g
     inkscape:label="Ebene 1"
     inkscape:groupmode="layer"
     id="layer1">
    <g
       transform="translate(0.28134559,-0.80270001)"
       id="g5178"
       inkscape:export-filename="C:\Users\johannes\Desktop\g5178.png"
       inkscape:export-xdpi="3.5984263"
       inkscape:export-ydpi="3.5984263">
      <g
         id="g5160"
         transform="translate(198,-101)"
         style="fill:#4e505d">
        <path
           sodipodi:nodetypes="cccsccccccscscc"
           inkscape:connector-curvature="0"
           id="path5162"
           d="m 268.6454,569.17895 c -0.0886,0.0775 -0.1694,0.16072 -0.26087,0.2359 l -4.93743,2.64303 c -24.19709,26.05431 -48.9072,54.31317 -48.9072,107.40599 0,11.40364 1.05274,22.45263 3.01699,32.96437 2.91356,6.43989 10.23397,11.15994 19.00543,11.77643 l 0,0.0714 130.36886,0 0,-0.006 c 9.8451,-0.13731 18.13693,-5.43038 20.92292,-12.68656 1.86421,-10.25862 2.86077,-21.0206 2.86077,-32.11977 0,-55.58272 -26.20132,-81.35154 -53.50269,-109.87864 -8.26501,4.5849 -23.7922,3.21555 -33.92377,3.21555 -10.4269,10e-6 -26.21389,1.2141 -34.64301,-3.62183 z"
           style="fill:#4e505d;fill-opacity:1;stroke:none;stroke-width:41.15159225;stroke-linecap:round;stroke-linejoin:round;stroke-opacity:1" />
        <path
           style="fill:#4e505d;fill-opacity:1;stroke:none;stroke-width:14;stroke-miterlimit:4;stroke-dasharray:none;stroke-opacity:1"
           d="m 366.08073,486.78088 a 63.021833,61.931477 0 0 1 -63.02184,61.93148 63.021833,61.931477 0 0 1 -63.02182,-61.93148 63.021833,61.931477 0 0 1 63.02182,-61.93147 63.021833,61.931477 0 0 1 63.02184,61.93147 z"
           id="path5164"
           inkscape:connector-curvature="0" />
      </g>
      <flowRoot
         transform="matrix(1.0121164,0,0,1,-3.4285724,1.3733904)"
         xml:space="preserve"
         id="flowRoot4169"
         style="font-style:normal;font-weight:normal;font-size:40px;line-height:125%;font-family:sans-serif;letter-spacing:0px;word-spacing:0px;fill:#252525;fill-opacity:1;stroke:none;stroke-width:1px;stroke-linecap:butt;stroke-linejoin:miter;stroke-opacity:1"><flowRegion
           id="flowRegion4171"><rect
             id="rect4173"
             width="56.433445"
             height="88.78862"
             x="89.541069"
             y="427.07962" /></flowRegion><flowPara
           id="flowPara4175" /></flowRoot>      <flowRoot
         transform="matrix(1.0121164,0,0,1,564.57789,59.39697)"
         xml:space="preserve"
         id="flowRoot4169-9"
         style="font-style:normal;font-weight:normal;font-size:40px;line-height:125%;font-family:sans-serif;letter-spacing:0px;word-spacing:0px;fill:#252525;fill-opacity:1;stroke:none;stroke-width:1px;stroke-linecap:butt;stroke-linejoin:miter;stroke-opacity:1"><flowRegion
           id="flowRegion4171-9"><rect
             id="rect4173-6"
             width="56.433445"
             height="88.78862"
             x="89.541069"
             y="427.07962" /></flowRegion><flowPara
           id="flowPara4175-7" /></flowRoot>      <g
         id="g5172"
         transform="translate(102,-50)"
         style="fill:#99b000;stroke:#ffffff;stroke-width:50;stroke-linejoin:round;stroke-miterlimit:4;stroke-dasharray:none">
        <path
           sodipodi:nodetypes="cccsccccccscscc"
           inkscape:connector-curvature="0"
           id="path5174"
           d="m 268.6454,569.17895 c -0.0886,0.0775 -0.1694,0.16072 -0.26087,0.2359 l -4.93743,2.64303 c -24.19709,26.05431 -48.9072,54.31317 -48.9072,107.40599 0,11.40364 1.05274,22.45263 3.01699,32.96437 2.91356,6.43989 10.23397,11.15994 19.00543,11.77643 l 0,0.0714 130.36886,0 0,-0.006 c 9.8451,-0.13731 18.13693,-5.43038 20.92292,-12.68656 1.86421,-10.25862 2.86077,-21.0206 2.86077,-32.11977 0,-55.58272 -26.20132,-81.35154 -53.50269,-109.87864 -8.26501,4.5849 -23.7922,3.21555 -33.92377,3.21555 -10.4269,10e-6 -26.21389,1.2141 -34.64301,-3.62183 z"
           style="fill:#99b000;fill-opacity:1;stroke:#ffffff;stroke-width:50;stroke-linecap:round;stroke-linejoin:round;stroke-miterlimit:4;stroke-dasharray:none;stroke-opacity:1" />
        <path
           style="fill:#99b000;fill-opacity:1;stroke:#ffffff;stroke-width:50;stroke-linejoin:round;stroke-miterlimit:4;stroke-dasharray:none;stroke-opacity:1"
           d="m 366.08073,486.78088 a 63.021833,61.931477 0 0 1 -63.02184,61.93148 63.021833,61.931477 0 0 1 -63.02182,-61.93148 63.021833,61.931477 0 0 1 63.02182,-61.93147 63.021833,61.931477 0 0 1 63.02184,61.93147 z"
           id="path5176"
           inkscape:connector-curvature="0" />
      </g>
      <g
         style="fill:#99b000"
         transform="translate(102,-50)"
         id="g5150">
        <path
           style="fill:#99b000;fill-opacity:1;stroke:none;stroke-width:41.15159225;stroke-linecap:round;stroke-linejoin:round;stroke-opacity:1"
           d="m 268.6454,569.17895 c -0.0886,0.0775 -0.1694,0.16072 -0.26087,0.2359 l -4.93743,2.64303 c -24.19709,26.05431 -48.9072,54.31317 -48.9072,107.40599 0,11.40364 1.05274,22.45263 3.01699,32.96437 2.91356,6.43989 10.23397,11.15994 19.00543,11.77643 l 0,0.0714 130.36886,0 0,-0.006 c 9.8451,-0.13731 18.13693,-5.43038 20.92292,-12.68656 1.86421,-10.25862 2.86077,-21.0206 2.86077,-32.11977 0,-55.58272 -26.20132,-81.35154 -53.50269,-109.87864 -8.26501,4.5849 -23.7922,3.21555 -33.92377,3.21555 -10.4269,10e-6 -26.21389,1.2141 -34.64301,-3.62183 z"
           id="path5152"
           inkscape:connector-curvature="0"
           sodipodi:nodetypes="cccsccccccscscc" />
        <path
           inkscape:connector-curvature="0"
           id="path5154"
           d="m 366.08073,486.78088 a 63.021833,61.931477 0 0 1 -63.02184,61.93148 63.021833,61.931477 0 0 1 -63.02182,-61.93148 63.021833,61.931477 0 0 1 63.02182,-61.93147 63.021833,61.931477 0 0 1 63.02184,61.93147 z"
           style="fill:#99b000;fill-opacity:1;stroke:none;stroke-width:14;stroke-miterlimit:4;stroke-dasharray:none;stroke-opacity:1" />
      </g>
      <g
         id="g5166"
         transform="translate(-0.99999999,-2)"
         style="fill:#4e505d;stroke:#ffffff;stroke-width:50;stroke-linejoin:round;stroke-miterlimit:4;stroke-dasharray:none">
        <path
           style="fill:#4e505d;fill-opacity:1;stroke:#ffffff;stroke-width:50;stroke-linecap:round;stroke-linejoin:round;stroke-miterlimit:4;stroke-dasharray:none;stroke-opacity:1"
           d="m 268.6454,569.17895 c -0.0886,0.0775 -0.1694,0.16072 -0.26087,0.2359 l -4.93743,2.64303 c -24.19709,26.05431 -48.9072,54.31317 -48.9072,107.40599 0,11.40364 1.05274,22.45263 3.01699,32.96437 2.91356,6.43989 10.23397,11.15994 19.00543,11.77643 l 0,0.0714 130.36886,0 0,-0.006 c 9.8451,-0.13731 18.13693,-5.43038 20.92292,-12.68656 1.86421,-10.25862 2.86077,-21.0206 2.86077,-32.11977 0,-55.58272 -26.20132,-81.35154 -53.50269,-109.87864 -8.26501,4.5849 -23.7922,3.21555 -33.92377,3.21555 -10.4269,10e-6 -26.21389,1.2141 -34.64301,-3.62183 z"
           id="path5168"
           inkscape:connector-curvature="0"
           sodipodi:nodetypes="cccsccccccscscc" />
        <path
           inkscape:connector-curvature="0"
           id="path5170"
           d="m 366.08073,486.78088 a 63.021833,61.931477 0 0 1 -63.02184,61.93148 63.021833,61.931477 0 0 1 -63.02182,-61.93148 63.021833,61.931477 0 0 1 63.02182,-61.93147 63.021833,61.931477 0 0 1 63.02184,61.93147 z"
           style="fill:#4e505d;fill-opacity:1;stroke:#ffffff;stroke-width:50;stroke-linejoin:round;stroke-miterlimit:4;stroke-dasharray:none;stroke-opacity:1" />
      </g>
      <g
         style="fill:#4e505d"
         transform="translate(-0.99999999,-2)"
         id="g5146">
        <path
           sodipodi:nodetypes="cccsccccccscscc"
           inkscape:connector-curvature="0"
           id="path2176-1"
           d="m 268.6454,569.17895 c -0.0886,0.0775 -0.1694,0.16072 -0.26087,0.2359 l -4.93743,2.64303 c -24.19709,26.05431 -48.9072,54.31317 -48.9072,107.40599 0,11.40364 1.05274,22.45263 3.01699,32.96437 2.91356,6.43989 10.23397,11.15994 19.00543,11.77643 l 0,0.0714 130.36886,0 0,-0.006 c 9.8451,-0.13731 18.13693,-5.43038 20.92292,-12.68656 1.86421,-10.25862 2.86077,-21.0206 2.86077,-32.11977 0,-55.58272 -26.20132,-81.35154 -53.50269,-109.87864 -8.26501,4.5849 -23.7922,3.21555 -33.92377,3.21555 -10.4269,10e-6 -26.21389,1.2141 -34.64301,-3.62183 z"
           style="fill:#4e505d;fill-opacity:1;stroke:none;stroke-width:41.15159225;stroke-linecap:round;stroke-linejoin:round;stroke-opacity:1" />
        <path
           style="fill:#4e505d;fill-opacity:1;stroke:none;stroke-width:14;stroke-miterlimit:4;stroke-dasharray:none;stroke-opacity:1"
           d="m 366.08073,486.78088 a 63.021833,61.931477 0 0 1 -63.02184,61.93148 63.021833,61.931477 0 0 1 -63.02182,-61.93148 63.021833,61.931477 0 0 1 63.02182,-61.93147 63.021833,61.931477 0 0 1 63.02184,61.93147 z"
           id="circle2187-6-2"
           inkscape:connector-curvature="0" />
      </g>
    </g>
  </g>
</svg>
