<?xml version="1.0" encoding="UTF-8" standalone="no"?>
<!-- Created with Inkscape (http://www.inkscape.org/) -->

<svg
   xmlns:dc="http://purl.org/dc/elements/1.1/"
   xmlns:cc="http://creativecommons.org/ns#"
   xmlns:rdf="http://www.w3.org/1999/02/22-rdf-syntax-ns#"
   xmlns:svg="http://www.w3.org/2000/svg"
   xmlns="http://www.w3.org/2000/svg"
   xmlns:xlink="http://www.w3.org/1999/xlink"
   xmlns:sodipodi="http://sodipodi.sourceforge.net/DTD/sodipodi-0.dtd"
   xmlns:inkscape="http://www.inkscape.org/namespaces/inkscape"
   width="210mm"
   height="297mm"
   viewBox="0 0 744.09448819 1052.3622047"
   id="svg2"
   version="1.1"
   inkscape:version="0.91 r13725"
   inkscape:export-xdpi="3.5999999"
   inkscape:export-ydpi="3.5999999"
   sodipodi:docname="user-other-business.svg"
   inkscape:export-filename="C:\Users\johannes\Documents\Arbeit\RRZE\github3\bicons\16x16\categories\user-other-business.png">
  <defs
     id="defs4">
    <linearGradient
       id="linearGradient2224">
      <stop
         id="stop2226"
         offset="0"
         style="stop-color:#7c7c7c;stop-opacity:1;" />
      <stop
         id="stop2228"
         offset="1"
         style="stop-color:#b8b8b8;stop-opacity:1;" />
    </linearGradient>
    <linearGradient
       id="linearGradient15218">
      <stop
         id="stop15220"
         offset="0"
         style="stop-color:#eeeeef;stop-opacity:1;" />
      <stop
         id="stop2736"
         offset="0.59928656"
         style="stop-color:#d3d7cf;stop-opacity:1;" />
      <stop
         id="stop2738"
         offset="0.82758623"
         style="stop-color:#ffffff;stop-opacity:1;" />
      <stop
         id="stop15222"
         offset="1"
         style="stop-color:#d3d7cf;stop-opacity:1;" />
    </linearGradient>
    <pattern
       y="0"
       x="0"
       height="6"
       width="6"
       patternUnits="userSpaceOnUse"
       id="EMFhbasepattern" />
    <pattern
       y="0"
       x="0"
       height="6"
       width="6"
       patternUnits="userSpaceOnUse"
       id="EMFhbasepattern-5" />
    <linearGradient
       inkscape:collect="always"
       xlink:href="#linearGradient4254"
       id="linearGradient4268"
       x1="358.43118"
       y1="465.73074"
       x2="429.96555"
       y2="644.62878"
       gradientUnits="userSpaceOnUse"
       gradientTransform="matrix(1.1386133,0,0,1.1369311,-56.01619,-53.03245)" />
    <linearGradient
       inkscape:collect="always"
       id="linearGradient4254">
      <stop
         style="stop-color:#7a8597;stop-opacity:1"
         offset="0"
         id="stop4256" />
      <stop
         style="stop-color:#4e505d;stop-opacity:1"
         offset="1"
         id="stop4258" />
    </linearGradient>
    <linearGradient
       inkscape:collect="always"
       xlink:href="#linearGradient4254"
       id="linearGradient4260"
       x1="380.01031"
       y1="330.40619"
       x2="414.6156"
       y2="457.18103"
       gradientUnits="userSpaceOnUse"
       gradientTransform="matrix(1.1539288,0,0,1.152224,-62.6133,-58.54219)" />
  </defs>
  <sodipodi:namedview
     id="base"
     pagecolor="#ffffff"
     bordercolor="#666666"
     borderopacity="1.0"
     inkscape:pageopacity="0.0"
     inkscape:pageshadow="2"
     inkscape:zoom="0.70710678"
     inkscape:cx="255.36636"
     inkscape:cy="512.7259"
     inkscape:document-units="px"
     inkscape:current-layer="layer1"
     showgrid="false"
     showguides="true"
     inkscape:guide-bbox="true"
     inkscape:window-width="1366"
     inkscape:window-height="721"
     inkscape:window-x="-4"
     inkscape:window-y="-4"
     inkscape:window-maximized="1"
     inkscape:snap-bbox="true"
     inkscape:bbox-paths="true"
     inkscape:snap-bbox-edge-midpoints="false"
     inkscape:bbox-nodes="true">
    <sodipodi:guide
       position="315.53572,730.17859"
       orientation="0,1"
       id="guide3338" />
    <sodipodi:guide
       position="351.25,330.17858"
       orientation="0,1"
       id="guide3340" />
    <sodipodi:guide
       position="189.10714,408.8393"
       orientation="1,0"
       id="guide3344" />
    <sodipodi:guide
       position="589.04521,468.07945"
       orientation="1,0"
       id="guide3346" />
    <inkscape:grid
       type="xygrid"
       id="grid3440" />
    <sodipodi:guide
       position="589.04521,378.30213"
       orientation="1,0"
       id="guide3411" />
  </sodipodi:namedview>
  <metadata
     id="metadata7">
    <rdf:RDF>
      <cc:Work
         rdf:about="">
        <dc:format>image/svg+xml</dc:format>
        <dc:type
           rdf:resource="http://purl.org/dc/dcmitype/StillImage" />
        <dc:title>user other business</dc:title>
        <dc:date>June 2015</dc:date>
        <dc:creator>
          <cc:Agent>
            <dc:title>Johannes Hechler</dc:title>
          </cc:Agent>
        </dc:creator>
        <dc:rights>
          <cc:Agent>
            <dc:title>Johannes Hechler</dc:title>
          </cc:Agent>
        </dc:rights>
        <dc:publisher>
          <cc:Agent>
            <dc:title>RRZE</dc:title>
          </cc:Agent>
        </dc:publisher>
        <dc:contributor>
          <cc:Agent>
            <dc:title>Ute Weber, Hendrik Eggers</dc:title>
          </cc:Agent>
        </dc:contributor>
      </cc:Work>
    </rdf:RDF>
  </metadata>
  <g
     inkscape:label="Ebene 1"
     inkscape:groupmode="layer"
     id="layer1">
    <rect
       style="fill:none;fill-rule:evenodd;stroke:none;stroke-width:1px;stroke-linecap:butt;stroke-linejoin:miter;stroke-opacity:1"
       id="rect3336"
       width="400"
       height="399.40906"
       x="189.04521"
       y="322.18362"
       inkscape:export-xdpi="3.5999999"
       inkscape:export-ydpi="3.5999999"
       inkscape:export-filename="C:\Users\johannes\Desktop\text4537.png" />
    <path
       style="fill:url(#linearGradient4268);fill-opacity:1;stroke:none;stroke-width:41.15159225;stroke-linecap:round;stroke-linejoin:round;stroke-opacity:1"
       d="m 339.78544,486.40431 c -0.13373,0.11814 -0.25652,0.24668 -0.39453,0.36133 -61.16266,49.39285 -81.68238,117.75172 -82.29687,167.08399 0,17.3893 1.58895,34.23837 4.55273,50.26757 4.39616,9.8201 15.44086,17.01695 28.67578,17.95703 l 0,0.10938 108.03516,0 c -35.23205,-24.85584 -58.35352,-65.85846 -58.35352,-112.01953 0,-48.90645 25.95458,-92.02347 64.76758,-116.28125 -4.88553,0.14433 -9.59521,0.15039 -13.76953,0.15039 -15.73277,2e-5 -38.49842,-0.25465 -51.2168,-7.62891 z m 149.25977,60.7793 c -41.71747,0 -75,33.28253 -75,75 0,39.81444 30.32288,71.92088 69.35352,74.76953 13.68693,-0.97341 26.45938,-5.05824 37.62304,-11.55859 1.06463,-10.26722 1.59701,-20.80329 1.89649,-31.54492 0.95224,-34.15585 -5.59566,-70.6173 -27.43164,-106.37891 -2.12415,-0.17717 -4.26796,-0.28711 -6.44141,-0.28711 z"
       id="path2176"
       inkscape:export-filename="C:\Users\johannes\Desktop\text4537.png"
       inkscape:export-xdpi="3.5999999"
       inkscape:export-ydpi="3.5999999"
       inkscape:connector-curvature="0" />
    <ellipse
       style="fill:url(#linearGradient4260);fill-opacity:1;stroke:none;stroke-width:14;stroke-miterlimit:4;stroke-dasharray:none;stroke-opacity:1"
       id="circle2187-6"
       cy="398.00693"
       cx="390.43088"
       rx="75.752335"
       ry="75.232376"
       inkscape:export-filename="C:\Users\johannes\Desktop\text4537.png"
       inkscape:export-xdpi="3.5999999"
       inkscape:export-ydpi="3.5999999" />
    <circle
       style="color:#000000;clip-rule:nonzero;display:inline;overflow:visible;visibility:visible;opacity:1;isolation:auto;mix-blend-mode:normal;color-interpolation:sRGB;color-interpolation-filters:linearRGB;solid-color:#000000;solid-opacity:1;fill:#99b000;fill-opacity:1;fill-rule:evenodd;stroke:none;stroke-width:50;stroke-linecap:butt;stroke-linejoin:round;stroke-miterlimit:4;stroke-dasharray:none;stroke-dashoffset:0;stroke-opacity:1;color-rendering:auto;image-rendering:auto;shape-rendering:auto;text-rendering:auto;enable-background:accumulate"
       id="path4535"
       cx="477.02438"
       cy="610.16284"
       r="112.02081"
       inkscape:export-filename="C:\Users\johannes\Desktop\text4537.png"
       inkscape:export-xdpi="3.5999999"
       inkscape:export-ydpi="3.5999999" />
    <g
       id="g4169">
      <g
         inkscape:export-ydpi="3.5999999"
         inkscape:export-xdpi="3.5999999"
         inkscape:export-filename="C:\Users\johannes\Desktop\text4537.png"
         id="text4560"
         style="font-style:normal;font-weight:normal;font-size:234.83961487px;line-height:125%;font-family:sans-serif;text-align:center;letter-spacing:0px;word-spacing:0px;text-anchor:middle;fill:#000000;fill-opacity:1;stroke:none;stroke-width:1px;stroke-linecap:butt;stroke-linejoin:miter;stroke-opacity:1"
         transform="matrix(1.0252028,0,0,0.97541679,189.04521,-330.17855)">
        <path
           sodipodi:nodetypes="ccsscsccccscscccsssscccsscssc"
           inkscape:connector-curvature="0"
           id="path4567"
           style="fill:#ffffff"
           d="m 330.51729,878.2657 0,22.58955 c -8.7912,-4.20448 -13.50684,-1.3811 -31.6092,-1.08678 -8.03994,0.13072 -8.60097,-3.21038 -15.86326,-3.21038 -12.61346,0 -22.36022,0.39584 -29.24029,5.28833 -6.80362,4.89249 -10.20543,11.84901 -10.20543,20.86954 0,7.56807 2.25513,13.30146 6.7654,17.20016 4.58671,3.82226 13.22502,6.91829 25.91492,9.28809 l 13.98947,2.8667 c 17.27661,3.28714 30.00474,9.09697 38.18437,17.4295 8.25608,8.25608 12.38412,19.34064 12.38412,33.25369 0,16.5886 -5.5805,29.1638 -16.7415,37.7257 -11.08455,8.5619 -27.36738,12.8428 -48.84847,12.8428 -8.10319,0 -22.21981,1.7667 -31.39323,-0.068 -9.09698,-1.8347 -13.05965,0.9691 -22.84463,-2.6239 l 0,-23.8509 c 9.40275,5.2748 18.26965,2.0696 27.63493,1.6735 19.59512,-0.8288 17.88818,1.9629 26.60293,1.9629 13.22501,0 23.43045,1.5017 30.6163,-3.6966 7.18585,-5.1983 10.77877,-12.6134 10.77877,-22.2455 0,-8.40898 -2.59914,-14.98327 -7.79741,-19.72287 -5.12183,-4.73961 -13.56902,-8.29431 -25.34158,-10.66411 l -14.10414,-2.75203 c -17.27661,-3.44003 -29.7754,-8.82942 -37.49636,-16.16815 -7.72097,-7.33874 -11.58145,-17.54417 -11.58145,-30.6163 0,-15.13615 5.31294,-27.0616 15.93882,-35.77635 10.70233,-8.71475 25.41803,-13.07212 44.1471,-13.07212 8.02674,0 18.1572,-3.31056 26.48973,-1.85811 8.33253,1.45246 14.90534,1.51672 23.62009,4.42164 z" />
      </g>
      <rect
         inkscape:export-ydpi="3.5999999"
         inkscape:export-xdpi="3.5999999"
         inkscape:export-filename="C:\Users\johannes\Desktop\text4537.png"
         y="498.73788"
         x="464.0452"
         height="223.44574"
         width="25"
         id="rect4564"
         style="color:#000000;clip-rule:nonzero;display:inline;overflow:visible;visibility:visible;opacity:1;isolation:auto;mix-blend-mode:normal;color-interpolation:sRGB;color-interpolation-filters:linearRGB;solid-color:#000000;solid-opacity:1;fill:#ffffff;fill-opacity:1;fill-rule:evenodd;stroke:none;stroke-width:50;stroke-linecap:butt;stroke-linejoin:round;stroke-miterlimit:4;stroke-dasharray:none;stroke-dashoffset:0;stroke-opacity:1;color-rendering:auto;image-rendering:auto;shape-rendering:auto;text-rendering:auto;enable-background:accumulate" />
    </g>
  </g>
</svg>
