<?xml version="1.0" encoding="UTF-8" standalone="no"?>
<!-- Created with Inkscape (http://www.inkscape.org/) -->

<svg
   xmlns:dc="http://purl.org/dc/elements/1.1/"
   xmlns:cc="http://creativecommons.org/ns#"
   xmlns:rdf="http://www.w3.org/1999/02/22-rdf-syntax-ns#"
   xmlns:svg="http://www.w3.org/2000/svg"
   xmlns="http://www.w3.org/2000/svg"
   xmlns:xlink="http://www.w3.org/1999/xlink"
   xmlns:sodipodi="http://sodipodi.sourceforge.net/DTD/sodipodi-0.dtd"
   xmlns:inkscape="http://www.inkscape.org/namespaces/inkscape"
   width="210mm"
   height="297mm"
   viewBox="0 0 744.09448819 1052.3622047"
   id="svg2"
   version="1.1"
   inkscape:version="0.91 r13725"
   inkscape:export-xdpi="3.6066008"
   inkscape:export-ydpi="3.6066008"
   sodipodi:docname="user-function.svg"
   inkscape:export-filename="C:\Users\johannes\Documents\Arbeit\RRZE\github3\bicons\16x16\categories\user-function.png">
  <defs
     id="defs4">
    <linearGradient
       id="linearGradient2224">
      <stop
         id="stop2226"
         offset="0"
         style="stop-color:#7c7c7c;stop-opacity:1;" />
      <stop
         id="stop2228"
         offset="1"
         style="stop-color:#b8b8b8;stop-opacity:1;" />
    </linearGradient>
    <linearGradient
       id="linearGradient15218">
      <stop
         id="stop15220"
         offset="0"
         style="stop-color:#eeeeef;stop-opacity:1;" />
      <stop
         id="stop2736"
         offset="0.59928656"
         style="stop-color:#d3d7cf;stop-opacity:1;" />
      <stop
         id="stop2738"
         offset="0.82758623"
         style="stop-color:#ffffff;stop-opacity:1;" />
      <stop
         id="stop15222"
         offset="1"
         style="stop-color:#d3d7cf;stop-opacity:1;" />
    </linearGradient>
    <pattern
       y="0"
       x="0"
       height="6"
       width="6"
       patternUnits="userSpaceOnUse"
       id="EMFhbasepattern" />
    <pattern
       y="0"
       x="0"
       height="6"
       width="6"
       patternUnits="userSpaceOnUse"
       id="EMFhbasepattern-5" />
    <linearGradient
       inkscape:collect="always"
       xlink:href="#linearGradient4254"
       id="linearGradient4268"
       x1="358.43118"
       y1="465.73074"
       x2="429.96555"
       y2="644.62878"
       gradientUnits="userSpaceOnUse"
       gradientTransform="matrix(1.1386133,0,0,1.1386133,51.327561,-15.851245)" />
    <linearGradient
       inkscape:collect="always"
       id="linearGradient4254">
      <stop
         style="stop-color:#7a8597;stop-opacity:1"
         offset="0"
         id="stop4256" />
      <stop
         style="stop-color:#4e505d;stop-opacity:1"
         offset="1"
         id="stop4258" />
    </linearGradient>
    <linearGradient
       inkscape:collect="always"
       xlink:href="#linearGradient4254"
       id="linearGradient4260"
       x1="380.01031"
       y1="330.40619"
       x2="414.6156"
       y2="457.18103"
       gradientUnits="userSpaceOnUse"
       gradientTransform="matrix(1.1539288,0,0,1.1539288,44.730451,-21.369135)" />
  </defs>
  <sodipodi:namedview
     id="base"
     pagecolor="#ffffff"
     bordercolor="#666666"
     borderopacity="1.0"
     inkscape:pageopacity="0.0"
     inkscape:pageshadow="2"
     inkscape:zoom="0.70710678"
     inkscape:cx="298.84901"
     inkscape:cy="524.32119"
     inkscape:document-units="px"
     inkscape:current-layer="layer1"
     showgrid="false"
     showguides="true"
     inkscape:guide-bbox="true"
     inkscape:window-width="1366"
     inkscape:window-height="721"
     inkscape:window-x="-4"
     inkscape:window-y="-4"
     inkscape:window-maximized="1">
    <sodipodi:guide
       position="315.53572,730.17859"
       orientation="0,1"
       id="guide3338" />
    <sodipodi:guide
       position="351.25,330.17858"
       orientation="0,1"
       id="guide3340" />
    <sodipodi:guide
       position="189.10714,408.8393"
       orientation="1,0"
       id="guide3344" />
    <sodipodi:guide
       position="589.04521,468.07945"
       orientation="1,0"
       id="guide3346" />
    <inkscape:grid
       type="xygrid"
       id="grid3440" />
    <sodipodi:guide
       position="589.04521,378.30213"
       orientation="1,0"
       id="guide3411" />
  </sodipodi:namedview>
  <metadata
     id="metadata7">
    <rdf:RDF>
      <cc:Work
         rdf:about="">
        <dc:format>image/svg+xml</dc:format>
        <dc:type
           rdf:resource="http://purl.org/dc/dcmitype/StillImage" />
        <dc:title>user function</dc:title>
        <dc:date>June 2015</dc:date>
        <dc:creator>
          <cc:Agent>
            <dc:title>Johannes Hechler</dc:title>
          </cc:Agent>
        </dc:creator>
        <dc:rights>
          <cc:Agent>
            <dc:title>Johannes Hechler</dc:title>
          </cc:Agent>
        </dc:rights>
        <dc:publisher>
          <cc:Agent>
            <dc:title>RRZE</dc:title>
          </cc:Agent>
        </dc:publisher>
        <dc:contributor>
          <cc:Agent>
            <dc:title>Ute Weber, Hendrik Eggers</dc:title>
          </cc:Agent>
        </dc:contributor>
      </cc:Work>
    </rdf:RDF>
  </metadata>
  <g
     inkscape:label="Ebene 1"
     inkscape:groupmode="layer"
     id="layer1">
    <g
       transform="translate(0.41843445,-0.12905214)"
       id="g4472"
       inkscape:export-filename="C:\Users\johannes\Desktop\g4472.png"
       inkscape:export-xdpi="3.6066008"
       inkscape:export-ydpi="3.6066008">
      <g
         transform="matrix(1,0,0,0.99812777,-107.19961,-36.07101)"
         id="g4251">
        <flowRoot
           transform="translate(107.24411,37.649955)"
           xml:space="preserve"
           id="flowRoot4169-1"
           style="font-style:normal;font-weight:normal;font-size:40px;line-height:125%;font-family:sans-serif;letter-spacing:0px;word-spacing:0px;fill:#252525;fill-opacity:1;stroke:none;stroke-width:1px;stroke-linecap:butt;stroke-linejoin:miter;stroke-opacity:1"><flowRegion
             id="flowRegion4171-8"><rect
               id="rect4173-4"
               width="56.433445"
               height="88.78862"
               x="89.541069"
               y="427.07962" /></flowRegion><flowPara
             id="flowPara4175-7" /></flowRoot>        <rect
           style="fill:none;fill-rule:evenodd;stroke:none;stroke-width:1px;stroke-linecap:butt;stroke-linejoin:miter;stroke-opacity:1"
           id="rect3336-2"
           width="400"
           height="400"
           x="296.38895"
           y="359.91998"
           inkscape:export-xdpi="4.9499998"
           inkscape:export-ydpi="4.9499998" />
        <path
           style="fill:url(#linearGradient4268);fill-opacity:1;stroke:none;stroke-width:41.15159225;stroke-linecap:round;stroke-linejoin:round;stroke-opacity:1"
           d="m 447.12832,524.38455 c -0.13373,0.11831 -0.25561,0.24544 -0.39362,0.36026 -61.16267,49.46593 -81.68289,117.92705 -82.29738,167.33231 0,17.41501 1.58845,34.28843 4.55223,50.34138 4.39616,9.83465 15.44167,17.04285 28.6766,17.98432 l 0,0.10897 196.70879,0 0,-0.009 c 14.85491,-0.20969 27.36615,-8.29299 31.56983,-19.37423 2.81283,-15.66639 3.84483,-32.10806 4.31651,-49.05155 1.5,-53.88289 -15.54817,-113.49702 -81.78144,-167.07211 -12.47076,7.00181 -34.846,7.01919 -50.13314,7.01919 -15.73277,2e-5 -38.5,-0.25447 -51.21838,-7.63964 z"
           id="path2176"
           inkscape:connector-curvature="0"
           sodipodi:nodetypes="cccccccccscscc" />
        <ellipse
           style="fill:url(#linearGradient4260);fill-opacity:1;stroke:none;stroke-width:14;stroke-miterlimit:4;stroke-dasharray:none;stroke-opacity:1"
           id="circle2187-6"
           cy="435.85547"
           cx="497.77463"
           rx="75.752335"
           ry="75.343689" />
      </g>
      <flowRoot
         transform="translate(0.28061986,1.0246903)"
         style="font-style:normal;font-weight:normal;font-size:40px;line-height:125%;font-family:sans-serif;letter-spacing:0px;word-spacing:0px;fill:#252525;fill-opacity:1;stroke:none;stroke-width:1px;stroke-linecap:butt;stroke-linejoin:miter;stroke-opacity:1"
         id="flowRoot4169"
         xml:space="preserve"><flowRegion
           id="flowRegion4171"><rect
             y="427.07962"
             x="89.541069"
             height="88.78862"
             width="56.433445"
             id="rect4173" /></flowRegion><flowPara
           id="flowPara4175" /></flowRoot>      <rect
         inkscape:export-ydpi="4.9499998"
         inkscape:export-xdpi="4.9499998"
         y="323.29474"
         x="189.42548"
         height="400"
         width="400"
         id="rect3336"
         style="fill:none;fill-rule:evenodd;stroke:none;stroke-width:1px;stroke-linecap:butt;stroke-linejoin:miter;stroke-opacity:1" />
      <g
         id="flowRoot3843"
         style="font-style:normal;font-weight:normal;font-size:36px;line-height:125%;font-family:'Times New Roman';-inkscape-font-specification:'Times New Roman';letter-spacing:0px;word-spacing:0px;fill:#252525;fill-opacity:1;stroke:#252525;stroke-width:0.99379402;stroke-miterlimit:4;stroke-dasharray:none;stroke-opacity:1"
         transform="matrix(2.4006292,0,0,2.4006292,4345.0938,1353.4892)" />
      <g
         transform="matrix(0.79048102,0,0,0.78328793,129.37982,222.94978)"
         id="g4260"
         style="fill:#000000;stroke:#ffffff;stroke-width:63.54238892;stroke-linejoin:round;stroke-miterlimit:4;stroke-dasharray:none">
        <path
           id="path4262"
           d="m 327.72266,414.82422 c -1.73342,-0.0181 -3.57695,0.16084 -5.6543,0.38086 -5.1355,0.54395 -11.16842,2.08418 -16.73828,4.91601 -5.56987,2.83183 -10.78011,7.01957 -13.48242,13.0918 -4.65009,10.44893 -9.67977,28.22469 -14.93555,48.66211 l -21.24805,0 c -3.34643,-0.0482 -6.08594,2.65127 -6.08594,5.99805 0,3.34677 2.73951,6.04627 6.08594,5.99804 l 18.20508,0 c -2.48596,9.92258 -5.01072,20.19746 -7.57031,30.45899 -4.55442,18.25886 -9.15198,36.23972 -13.58789,51.11328 -4.43591,14.87356 -8.89884,26.79752 -12.35547,32.0918 -3.81708,5.84637 -6.76172,9.64891 -8.8418,11.84179 -0.38277,0.40353 -0.55644,0.46206 -0.88086,0.74219 0.005,-0.2506 -0.0444,-0.36451 -0.0254,-0.61328 -0.0121,0.16178 0.23207,-1.02594 0.53125,-2.33984 0.29942,-1.31496 0.63663,-2.94953 0.59571,-4.81836 -0.0409,-1.86884 -0.53007,-4.16108 -2.18946,-6.01758 -1.65939,-1.8565 -4.20292,-2.87494 -7.07226,-3.10352 -4.25655,-0.33909 -8.64553,0.39385 -12.39454,2.74414 -3.74899,2.3503 -6.65877,6.36084 -7.89453,11.60157 -1.27695,5.4156 0.37768,10.36312 3.51172,13.33593 3.13404,2.97281 7.13595,4.34481 10.91992,5.35157 3.09908,0.82445 6.23416,0.40068 9.53907,-0.28516 3.3049,-0.68584 6.37113,-1.44221 8.92968,-3.79688 5.31059,-4.88714 12.12512,-14.18095 19.11133,-24.76953 6.98622,-10.58858 13.92739,-22.31814 18.62891,-31.55859 13.2442,-26.02987 17.35853,-54.71343 21.49219,-81.97852 l 23.44336,0 c 3.34643,0.0482 6.08593,-2.65127 6.08593,-5.99804 0,-3.34678 -2.7395,-6.04627 -6.08593,-5.99805 l -21.56836,0 c 2.19907,-13.56462 4.74364,-26.60794 8.83398,-38.58203 l 0,-0.002 c 0.83671,-2.44975 2.39076,-5.74927 4.11719,-8.31641 1.72642,-2.56714 3.85318,-4.09199 4.12109,-4.15234 1.26127,-0.28415 0.94876,-0.27817 1.61328,0.35742 0.66453,0.63559 1.77169,2.40313 3.12891,4.83593 1.13427,2.03318 1.75639,4.0598 2.80273,6.375 1.04634,2.31521 2.72357,4.94047 5.6211,6.86524 6.39267,4.24617 15.10019,1.40096 19.72656,-5.66406 2.32109,-3.54418 2.99726,-7.68351 1.83594,-11.25 -1.16132,-3.56649 -3.52642,-6.47583 -6.45508,-9.83594 -2.98826,-3.42853 -5.52817,-5.75781 -8.81445,-6.88477 -1.64315,-0.56348 -3.26659,-0.77874 -5,-0.79687 z m 49.53515,32.875 c -1.36783,0.009 -2.6723,0.57776 -3.60937,1.57422 -0.0182,0.0197 -0.0307,0.0389 -0.0488,0.0586 l -0.002,-0.002 c -0.0197,0.022 -0.035,0.0444 -0.0547,0.0664 -34.87201,37.7928 -43.33638,70.95978 -38.22656,99.48438 4.3563,24.31825 18.0397,44.69999 31.70507,62.68555 2.25967,3.18922 4.59555,6.29014 7.03711,9.24414 0.0238,0.0287 0.0446,0.0611 0.0684,0.0898 0.0314,0.0379 0.0604,0.0793 0.0918,0.11719 4.18434,5.13691 11.91167,-1.081 7.78906,-6.26758 -2.3504,-3.01194 -4.68972,-6.17257 -7.04101,-9.2832 -13.04347,-18.53717 -22.4794,-41.03277 -24.35157,-64.72852 -2.19188,-27.74232 5.68244,-57.11988 30.42774,-84.73633 2.85423,-3.24074 0.5332,-8.33192 -3.78516,-8.30273 z m 153.85547,0.63086 c -4.33121,-0.0234 -6.64052,5.09724 -3.75586,8.32812 50.08319,53.0558 41.92438,110.59559 11.8086,149.46289 -2.29656,3.06675 -4.59386,6.22825 -6.85743,9.12891 -4.00814,5.17221 3.59109,11.28857 7.78711,6.26758 0.0318,-0.0384 0.06,-0.0807 0.0918,-0.11914 l 0.002,0.002 c 0.0996,-0.1276 0.20683,-0.27825 0.30664,-0.40625 2.26291,-2.75629 4.42011,-5.62513 6.47657,-8.58789 13.98803,-18.54799 28.43506,-40.51943 32.53906,-65.93359 4.7721,-29.55138 -5.42352,-62.97589 -45.1836,-96.94922 -0.89738,-0.7644 -2.03604,-1.18707 -3.21484,-1.19336 z"
           style="color:#000000;font-style:normal;font-variant:normal;font-weight:normal;font-stretch:normal;font-size:medium;line-height:normal;font-family:sans-serif;text-indent:0;text-align:start;text-decoration:none;text-decoration-line:none;text-decoration-style:solid;text-decoration-color:#000000;letter-spacing:normal;word-spacing:normal;text-transform:none;direction:ltr;block-progression:tb;writing-mode:lr-tb;baseline-shift:baseline;text-anchor:start;white-space:normal;clip-rule:nonzero;display:inline;overflow:visible;visibility:visible;opacity:1;isolation:auto;mix-blend-mode:normal;color-interpolation:sRGB;color-interpolation-filters:linearRGB;solid-color:#000000;solid-opacity:1;fill:#000000;fill-opacity:1;fill-rule:nonzero;stroke:#ffffff;stroke-width:63.54238892;stroke-linecap:butt;stroke-linejoin:round;stroke-miterlimit:4;stroke-dasharray:none;stroke-dashoffset:0;stroke-opacity:1;color-rendering:auto;image-rendering:auto;shape-rendering:auto;text-rendering:auto;enable-background:accumulate"
           inkscape:connector-curvature="0" />
        <text
           transform="scale(1.0330369,0.96801963)"
           sodipodi:linespacing="125%"
           id="text4264"
           y="618.56116"
           x="375.87958"
           style="font-style:normal;font-weight:normal;font-size:251.67668152px;line-height:125%;font-family:sans-serif;letter-spacing:0px;word-spacing:0px;fill:#000000;fill-opacity:1;stroke:#ffffff;stroke-width:63.54238892;stroke-linecap:butt;stroke-linejoin:round;stroke-miterlimit:4;stroke-dasharray:none;stroke-opacity:1"
           xml:space="preserve"><tspan
             style="font-style:normal;font-variant:normal;font-weight:normal;font-stretch:normal;font-family:arial;-inkscape-font-specification:arial;fill:#000000;stroke:#ffffff;stroke-width:63.54238892;stroke-linejoin:round;stroke-miterlimit:4;stroke-dasharray:none"
             y="618.56116"
             x="375.87958"
             id="tspan4266"
             sodipodi:role="line">x</tspan></text>
        <text
           transform="scale(1.0330369,0.96801963)"
           sodipodi:linespacing="125%"
           id="text4268"
           y="618.56116"
           x="374.91156"
           style="font-style:normal;font-weight:normal;font-size:251.67668152px;line-height:125%;font-family:sans-serif;letter-spacing:0px;word-spacing:0px;fill:#000000;fill-opacity:1;stroke:#ffffff;stroke-width:63.54238892;stroke-linecap:butt;stroke-linejoin:round;stroke-miterlimit:4;stroke-dasharray:none;stroke-opacity:1"
           xml:space="preserve"><tspan
             style="font-style:normal;font-variant:normal;font-weight:normal;font-stretch:normal;font-family:arial;-inkscape-font-specification:arial;fill:#000000;stroke:#ffffff;stroke-width:63.54238892;stroke-linejoin:round;stroke-miterlimit:4;stroke-dasharray:none"
             y="618.56116"
             x="374.91156"
             id="tspan4270"
             sodipodi:role="line">x</tspan></text>
      </g>
      <path
         inkscape:connector-curvature="0"
         id="rect4469"
         d="m 189.10713,522.98718 399.93808,0 0,199.19644 -399.93808,0 z"
         style="color:#000000;clip-rule:nonzero;display:inline;overflow:visible;visibility:visible;opacity:1;isolation:auto;mix-blend-mode:normal;color-interpolation:sRGB;color-interpolation-filters:linearRGB;solid-color:#000000;solid-opacity:1;fill:#ffffff;fill-opacity:1;fill-rule:nonzero;stroke:none;stroke-width:1px;stroke-linecap:butt;stroke-linejoin:miter;stroke-miterlimit:4;stroke-dasharray:none;stroke-dashoffset:0;stroke-opacity:1;color-rendering:auto;image-rendering:auto;shape-rendering:auto;text-rendering:auto;enable-background:accumulate" />
      <g
         style="fill:#000000"
         id="g4323"
         transform="matrix(0.79048102,0,0,0.78328793,129.37982,222.94978)">
        <path
           inkscape:connector-curvature="0"
           style="color:#000000;font-style:normal;font-variant:normal;font-weight:normal;font-stretch:normal;font-size:medium;line-height:normal;font-family:sans-serif;text-indent:0;text-align:start;text-decoration:none;text-decoration-line:none;text-decoration-style:solid;text-decoration-color:#000000;letter-spacing:normal;word-spacing:normal;text-transform:none;direction:ltr;block-progression:tb;writing-mode:lr-tb;baseline-shift:baseline;text-anchor:start;white-space:normal;clip-rule:nonzero;display:inline;overflow:visible;visibility:visible;opacity:1;isolation:auto;mix-blend-mode:normal;color-interpolation:sRGB;color-interpolation-filters:linearRGB;solid-color:#000000;solid-opacity:1;fill:#000000;fill-opacity:1;fill-rule:nonzero;stroke:none;stroke-width:7.82747841;stroke-linecap:butt;stroke-linejoin:miter;stroke-miterlimit:4;stroke-dasharray:none;stroke-dashoffset:0;stroke-opacity:1;color-rendering:auto;image-rendering:auto;shape-rendering:auto;text-rendering:auto;enable-background:accumulate"
           d="m 327.72266,414.82422 c -1.73342,-0.0181 -3.57695,0.16084 -5.6543,0.38086 -5.1355,0.54395 -11.16842,2.08418 -16.73828,4.91601 -5.56987,2.83183 -10.78011,7.01957 -13.48242,13.0918 -4.65009,10.44893 -9.67977,28.22469 -14.93555,48.66211 l -21.24805,0 c -3.34643,-0.0482 -6.08594,2.65127 -6.08594,5.99805 0,3.34677 2.73951,6.04627 6.08594,5.99804 l 18.20508,0 c -2.48596,9.92258 -5.01072,20.19746 -7.57031,30.45899 -4.55442,18.25886 -9.15198,36.23972 -13.58789,51.11328 -4.43591,14.87356 -8.89884,26.79752 -12.35547,32.0918 -3.81708,5.84637 -6.76172,9.64891 -8.8418,11.84179 -0.38277,0.40353 -0.55644,0.46206 -0.88086,0.74219 0.005,-0.2506 -0.0444,-0.36451 -0.0254,-0.61328 -0.0121,0.16178 0.23207,-1.02594 0.53125,-2.33984 0.29942,-1.31496 0.63663,-2.94953 0.59571,-4.81836 -0.0409,-1.86884 -0.53007,-4.16108 -2.18946,-6.01758 -1.65939,-1.8565 -4.20292,-2.87494 -7.07226,-3.10352 -4.25655,-0.33909 -8.64553,0.39385 -12.39454,2.74414 -3.74899,2.3503 -6.65877,6.36084 -7.89453,11.60157 -1.27695,5.4156 0.37768,10.36312 3.51172,13.33593 3.13404,2.97281 7.13595,4.34481 10.91992,5.35157 3.09908,0.82445 6.23416,0.40068 9.53907,-0.28516 3.3049,-0.68584 6.37113,-1.44221 8.92968,-3.79688 5.31059,-4.88714 12.12512,-14.18095 19.11133,-24.76953 6.98622,-10.58858 13.92739,-22.31814 18.62891,-31.55859 13.2442,-26.02987 17.35853,-54.71343 21.49219,-81.97852 l 23.44336,0 c 3.34643,0.0482 6.08593,-2.65127 6.08593,-5.99804 0,-3.34678 -2.7395,-6.04627 -6.08593,-5.99805 l -21.56836,0 c 2.19907,-13.56462 4.74364,-26.60794 8.83398,-38.58203 l 0,-0.002 c 0.83671,-2.44975 2.39076,-5.74927 4.11719,-8.31641 1.72642,-2.56714 3.85318,-4.09199 4.12109,-4.15234 1.26127,-0.28415 0.94876,-0.27817 1.61328,0.35742 0.66453,0.63559 1.77169,2.40313 3.12891,4.83593 1.13427,2.03318 1.75639,4.0598 2.80273,6.375 1.04634,2.31521 2.72357,4.94047 5.6211,6.86524 6.39267,4.24617 15.10019,1.40096 19.72656,-5.66406 2.32109,-3.54418 2.99726,-7.68351 1.83594,-11.25 -1.16132,-3.56649 -3.52642,-6.47583 -6.45508,-9.83594 -2.98826,-3.42853 -5.52817,-5.75781 -8.81445,-6.88477 -1.64315,-0.56348 -3.26659,-0.77874 -5,-0.79687 z m 49.53515,32.875 c -1.36783,0.009 -2.6723,0.57776 -3.60937,1.57422 -0.0182,0.0197 -0.0307,0.0389 -0.0488,0.0586 l -0.002,-0.002 c -0.0197,0.022 -0.035,0.0444 -0.0547,0.0664 -34.87201,37.7928 -43.33638,70.95978 -38.22656,99.48438 4.3563,24.31825 18.0397,44.69999 31.70507,62.68555 2.25967,3.18922 4.59555,6.29014 7.03711,9.24414 0.0238,0.0287 0.0446,0.0611 0.0684,0.0898 0.0314,0.0379 0.0604,0.0793 0.0918,0.11719 4.18434,5.13691 11.91167,-1.081 7.78906,-6.26758 -2.3504,-3.01194 -4.68972,-6.17257 -7.04101,-9.2832 -13.04347,-18.53717 -22.4794,-41.03277 -24.35157,-64.72852 -2.19188,-27.74232 5.68244,-57.11988 30.42774,-84.73633 2.85423,-3.24074 0.5332,-8.33192 -3.78516,-8.30273 z m 153.85547,0.63086 c -4.33121,-0.0234 -6.64052,5.09724 -3.75586,8.32812 50.08319,53.0558 41.92438,110.59559 11.8086,149.46289 -2.29656,3.06675 -4.59386,6.22825 -6.85743,9.12891 -4.00814,5.17221 3.59109,11.28857 7.78711,6.26758 0.0318,-0.0384 0.06,-0.0807 0.0918,-0.11914 l 0.002,0.002 c 0.0996,-0.1276 0.20683,-0.27825 0.30664,-0.40625 2.26291,-2.75629 4.42011,-5.62513 6.47657,-8.58789 13.98803,-18.54799 28.43506,-40.51943 32.53906,-65.93359 4.7721,-29.55138 -5.42352,-62.97589 -45.1836,-96.94922 -0.89738,-0.7644 -2.03604,-1.18707 -3.21484,-1.19336 z"
           id="path3022" />
        <text
           xml:space="preserve"
           style="font-style:normal;font-weight:normal;font-size:251.67668152px;line-height:125%;font-family:sans-serif;letter-spacing:0px;word-spacing:0px;fill:#000000;fill-opacity:1;stroke:none;stroke-width:1px;stroke-linecap:butt;stroke-linejoin:miter;stroke-opacity:1"
           x="375.87958"
           y="618.56116"
           id="text4290"
           sodipodi:linespacing="125%"
           transform="scale(1.0330369,0.96801963)"><tspan
             sodipodi:role="line"
             id="tspan4292"
             x="375.87958"
             y="618.56116"
             style="font-style:normal;font-variant:normal;font-weight:normal;font-stretch:normal;font-family:arial;-inkscape-font-specification:arial;fill:#000000">x</tspan></text>
        <text
           xml:space="preserve"
           style="font-style:normal;font-weight:normal;font-size:251.67668152px;line-height:125%;font-family:sans-serif;letter-spacing:0px;word-spacing:0px;fill:#000000;fill-opacity:1;stroke:none;stroke-width:1px;stroke-linecap:butt;stroke-linejoin:miter;stroke-opacity:1"
           x="374.91156"
           y="618.56116"
           id="text4290-0"
           sodipodi:linespacing="125%"
           transform="scale(1.0330369,0.96801963)"><tspan
             sodipodi:role="line"
             id="tspan4292-3"
             x="374.91156"
             y="618.56116"
             style="font-style:normal;font-variant:normal;font-weight:normal;font-stretch:normal;font-family:arial;-inkscape-font-specification:arial;fill:#000000">x</tspan></text>
      </g>
    </g>
  </g>
</svg>
