<?xml version="1.0" encoding="UTF-8" standalone="no"?>
<!-- Created with Inkscape (http://www.inkscape.org/) -->

<svg
   xmlns:dc="http://purl.org/dc/elements/1.1/"
   xmlns:cc="http://creativecommons.org/ns#"
   xmlns:rdf="http://www.w3.org/1999/02/22-rdf-syntax-ns#"
   xmlns:svg="http://www.w3.org/2000/svg"
   xmlns="http://www.w3.org/2000/svg"
   xmlns:xlink="http://www.w3.org/1999/xlink"
   xmlns:sodipodi="http://sodipodi.sourceforge.net/DTD/sodipodi-0.dtd"
   xmlns:inkscape="http://www.inkscape.org/namespaces/inkscape"
   width="210mm"
   height="297mm"
   viewBox="0 0 744.09448819 1052.3622047"
   id="svg2"
   version="1.1"
   inkscape:version="0.91 r13725"
   inkscape:export-xdpi="3.5999997"
   inkscape:export-ydpi="3.5999997"
   sodipodi:docname="user-group-admin-gs.svg"
   inkscape:export-filename="C:\Users\johannes\Documents\Arbeit\RRZE\github3\bicons\16x16\categories\user-group-admin-gs.png">
  <defs
     id="defs4">
    <linearGradient
       inkscape:collect="always"
       id="linearGradient4254">
      <stop
         style="stop-color:#7a8597;stop-opacity:1"
         offset="0"
         id="stop4256" />
      <stop
         style="stop-color:#4e505d;stop-opacity:1"
         offset="1"
         id="stop4258" />
    </linearGradient>
    <linearGradient
       id="linearGradient2224">
      <stop
         id="stop2226"
         offset="0"
         style="stop-color:#7c7c7c;stop-opacity:1;" />
      <stop
         id="stop2228"
         offset="1"
         style="stop-color:#b8b8b8;stop-opacity:1;" />
    </linearGradient>
    <linearGradient
       id="linearGradient15218">
      <stop
         id="stop15220"
         offset="0"
         style="stop-color:#eeeeef;stop-opacity:1;" />
      <stop
         id="stop2736"
         offset="0.59928656"
         style="stop-color:#d3d7cf;stop-opacity:1;" />
      <stop
         id="stop2738"
         offset="0.82758623"
         style="stop-color:#ffffff;stop-opacity:1;" />
      <stop
         id="stop15222"
         offset="1"
         style="stop-color:#d3d7cf;stop-opacity:1;" />
    </linearGradient>
    <pattern
       y="0"
       x="0"
       height="6"
       width="6"
       patternUnits="userSpaceOnUse"
       id="EMFhbasepattern" />
    <pattern
       y="0"
       x="0"
       height="6"
       width="6"
       patternUnits="userSpaceOnUse"
       id="EMFhbasepattern-5" />
    <linearGradient
       inkscape:collect="always"
       xlink:href="#linearGradient4254"
       id="linearGradient4252"
       x1="380.01031"
       y1="330.40619"
       x2="414.6156"
       y2="457.18103"
       gradientUnits="userSpaceOnUse"
       gradientTransform="translate(0.37005758,-0.39466108)" />
    <linearGradient
       inkscape:collect="always"
       xlink:href="#linearGradient4254"
       id="linearGradient4275"
       x1="380.01031"
       y1="330.40619"
       x2="414.6156"
       y2="457.18103"
       gradientUnits="userSpaceOnUse"
       gradientTransform="translate(0.37005758,-0.39466108)" />
    <linearGradient
       inkscape:collect="always"
       xlink:href="#linearGradient4254"
       id="linearGradient4320"
       x1="380.01031"
       y1="330.40619"
       x2="414.6156"
       y2="457.18103"
       gradientUnits="userSpaceOnUse"
       gradientTransform="translate(0.37005758,-0.39466108)" />
    <linearGradient
       inkscape:collect="always"
       xlink:href="#linearGradient4254"
       id="linearGradient4442"
       gradientUnits="userSpaceOnUse"
       gradientTransform="translate(0.37005758,-0.39466108)"
       x1="380.01031"
       y1="330.40619"
       x2="414.6156"
       y2="457.18103" />
    <linearGradient
       inkscape:collect="always"
       xlink:href="#linearGradient4254"
       id="linearGradient4445"
       x1="380.01031"
       y1="330.40619"
       x2="414.6156"
       y2="457.18103"
       gradientUnits="userSpaceOnUse"
       gradientTransform="translate(0.37005758,-0.39466108)" />
    <linearGradient
       inkscape:collect="always"
       xlink:href="#linearGradient4254"
       id="linearGradient4526"
       gradientUnits="userSpaceOnUse"
       gradientTransform="translate(0.37005758,-0.39466108)"
       x1="380.01031"
       y1="330.40619"
       x2="414.6156"
       y2="457.18103" />
    <linearGradient
       inkscape:collect="always"
       xlink:href="#linearGradient4254"
       id="linearGradient4529"
       gradientUnits="userSpaceOnUse"
       gradientTransform="translate(0.37005758,-0.39466108)"
       x1="380.01031"
       y1="330.40619"
       x2="414.6156"
       y2="457.18103" />
    <linearGradient
       inkscape:collect="always"
       xlink:href="#linearGradient4254"
       id="linearGradient4223"
       x1="352.54492"
       y1="372.18362"
       x2="402.08008"
       y2="497.1832"
       gradientUnits="userSpaceOnUse" />
    <linearGradient
       inkscape:collect="always"
       xlink:href="#linearGradient4254"
       id="linearGradient4231"
       x1="448.0452"
       y1="532.74225"
       x2="458.04523"
       y2="722.18365"
       gradientUnits="userSpaceOnUse" />
  </defs>
  <sodipodi:namedview
     id="base"
     pagecolor="#ffffff"
     bordercolor="#666666"
     borderopacity="1.0"
     inkscape:pageopacity="0.0"
     inkscape:pageshadow="2"
     inkscape:zoom="0.5"
     inkscape:cx="346.5056"
     inkscape:cy="337.54365"
     inkscape:document-units="px"
     inkscape:current-layer="layer1"
     showgrid="false"
     showguides="true"
     inkscape:guide-bbox="true"
     inkscape:window-width="1366"
     inkscape:window-height="721"
     inkscape:window-x="-4"
     inkscape:window-y="-4"
     inkscape:window-maximized="1"
     inkscape:snap-bbox="true"
     inkscape:bbox-paths="true"
     inkscape:bbox-nodes="true">
    <sodipodi:guide
       position="315.53572,730.17859"
       orientation="0,1"
       id="guide3338" />
    <sodipodi:guide
       position="351.25,330.17858"
       orientation="0,1"
       id="guide3340" />
    <sodipodi:guide
       position="189.10714,408.8393"
       orientation="1,0"
       id="guide3344" />
    <sodipodi:guide
       position="589.04521,468.07945"
       orientation="1,0"
       id="guide3346" />
    <inkscape:grid
       type="xygrid"
       id="grid3440" />
    <sodipodi:guide
       position="589.04521,378.30213"
       orientation="1,0"
       id="guide3411" />
  </sodipodi:namedview>
  <metadata
     id="metadata7">
    <rdf:RDF>
      <cc:Work
         rdf:about="">
        <dc:format>image/svg+xml</dc:format>
        <dc:type
           rdf:resource="http://purl.org/dc/dcmitype/StillImage" />
        <dc:title>user group admin gs</dc:title>
        <dc:date>June 2015</dc:date>
        <dc:creator>
          <cc:Agent>
            <dc:title>Johannes Hechler</dc:title>
          </cc:Agent>
        </dc:creator>
        <dc:rights>
          <cc:Agent>
            <dc:title>Johannes Hechler</dc:title>
          </cc:Agent>
        </dc:rights>
        <dc:publisher>
          <cc:Agent>
            <dc:title>RRZE</dc:title>
          </cc:Agent>
        </dc:publisher>
        <dc:contributor>
          <cc:Agent>
            <dc:title>Ute Weber, Hendrik Eggers</dc:title>
          </cc:Agent>
        </dc:contributor>
      </cc:Work>
    </rdf:RDF>
  </metadata>
  <g
     inkscape:label="Ebene 1"
     inkscape:groupmode="layer"
     id="layer1">
    <flowRoot
       transform="matrix(1,0,0,0.99852263,-0.09964,0.38968)"
       xml:space="preserve"
       id="flowRoot4169"
       style="font-style:normal;font-weight:normal;font-size:40px;line-height:125%;font-family:sans-serif;letter-spacing:0px;word-spacing:0px;fill:#252525;fill-opacity:1;stroke:none;stroke-width:1px;stroke-linecap:butt;stroke-linejoin:miter;stroke-opacity:1"><flowRegion
         id="flowRegion4171"><rect
           id="rect4173"
           width="56.433445"
           height="88.78862"
           x="89.541069"
           y="427.07962" /></flowRegion><flowPara
         id="flowPara4175" /></flowRoot>    <flowRoot
       transform="matrix(1,0,0,0.99852263,-442.74853,0.07523)"
       xml:space="preserve"
       id="flowRoot4169-9"
       style="font-style:normal;font-weight:normal;font-size:40px;line-height:125%;font-family:sans-serif;letter-spacing:0px;word-spacing:0px;fill:#252525;fill-opacity:1;stroke:none;stroke-width:1px;stroke-linecap:butt;stroke-linejoin:miter;stroke-opacity:1"><flowRegion
         id="flowRegion4171-0"><rect
           id="rect4173-4"
           width="56.433445"
           height="88.78862"
           x="89.541069"
           y="427.07962" /></flowRegion><flowPara
         id="flowPara4175-4" /></flowRoot>    <flowRoot
       transform="matrix(1,0,0,0.99647437,-0.09968,1.86925)"
       xml:space="preserve"
       id="flowRoot4169-3"
       style="font-style:normal;font-weight:normal;font-size:40px;line-height:125%;font-family:sans-serif;letter-spacing:0px;word-spacing:0px;fill:#252525;fill-opacity:1;stroke:none;stroke-width:1px;stroke-linecap:butt;stroke-linejoin:miter;stroke-opacity:1"><flowRegion
         id="flowRegion4171-1"><rect
           id="rect4173-7"
           width="56.433445"
           height="88.78862"
           x="89.541069"
           y="427.07962" /></flowRegion><flowPara
         id="flowPara4175-5" /></flowRoot>    <rect
       style="fill:none;fill-rule:evenodd;stroke:none;stroke-width:1px;stroke-linecap:butt;stroke-linejoin:miter;stroke-opacity:1"
       id="rect3336-3"
       width="400"
       height="398.58975"
       x="189.04521"
       y="323.00317"
       inkscape:export-xdpi="4.9499998"
       inkscape:export-ydpi="4.9499998" />
    <flowRoot
       style="font-style:normal;font-weight:normal;font-size:40px;line-height:125%;font-family:sans-serif;letter-spacing:0px;word-spacing:0px;fill:#252525;fill-opacity:1;stroke:none;stroke-width:1px;stroke-linecap:butt;stroke-linejoin:miter;stroke-opacity:1"
       id="flowRoot4169-8"
       xml:space="preserve"
       transform="matrix(1.0126302,0,0,1.0039489,-781.66586,298.43421)"><flowRegion
         id="flowRegion4171-4"><rect
           y="427.07962"
           x="89.541069"
           height="88.78862"
           width="56.433445"
           id="rect4173-41" /></flowRegion><flowPara
         id="flowPara4175-0" /></flowRoot>    <flowRoot
       style="font-style:normal;font-weight:normal;font-size:40px;line-height:125%;font-family:sans-serif;letter-spacing:0px;word-spacing:0px;fill:#252525;fill-opacity:1;stroke:none;stroke-width:1px;stroke-linecap:butt;stroke-linejoin:miter;stroke-opacity:1"
       id="flowRoot4169-9-9"
       xml:space="preserve"
       transform="matrix(1.0126302,0,0,1.0039489,-213.37108,356.68692)"><flowRegion
         id="flowRegion4171-9"><rect
           y="427.07962"
           x="89.541069"
           height="88.78862"
           width="56.433445"
           id="rect4173-6" /></flowRegion><flowPara
         id="flowPara4175-7" /></flowRoot>    <path
       style="fill:url(#linearGradient4223);fill-opacity:1;stroke:none;stroke-width:41.15159225;stroke-linecap:round;stroke-linejoin:round;stroke-opacity:1"
       d="M 464.5332 322.18359 C 429.74566 322.1842 397.68675 347.31669 390.50977 380.60938 C 393.2508 383.79298 395.68405 387.06495 397.81445 390.36133 C 408.62046 405.72325 415.07999 424.2865 415.08008 444.57617 C 415.08009 446.59571 415.01398 448.60133 414.89258 450.5957 C 428.49521 463.06926 446.13452 470.96842 464.5332 470.96875 C 504.0475 470.9693 540.08116 434.55621 540.08008 394.57422 C 540.07992 354.59313 504.04662 322.18304 464.5332 322.18359 z M 318.71094 397.38672 L 348.67773 407.375 C 342.91194 401.8018 334.02174 398.00526 318.71094 397.38672 z M 309.20312 397.44531 C 295.1146 398.18981 286.53137 401.75152 280.77734 406.92188 L 309.20312 397.44531 z M 314.04492 448.53711 L 246.95117 470.90234 L 244.54492 471.70508 C 256.11655 499.63459 284.29476 520.96822 314.5332 520.96875 C 344.67009 520.96917 372.76294 499.78109 384.4082 471.99023 L 314.04492 448.53711 z "
       id="path2176-1" />
    <path
       id="path4252"
       d="m 464.05502,497.18399 -24.99415,25 25.44532,24.44142 -0.43359,50.5312 -0.0274,0.027 -49.5293,-0.5586 -25.44531,-24.44142 -24.99609,25 c 5.87954,27.8653 19.76455,47.41723 49.99023,50 l 63.70508,1.9805 73.27539,73.01958 38,-38 -72.98438,-72.98448 0.0137,-0.016 -2.0293,-64 c -5.5208,-28.4998 -21.83999,-45.98145 -49.99023,-50 z"
       style="fill:#99b000;fill-rule:evenodd;stroke:none;stroke-width:1px;stroke-linecap:butt;stroke-linejoin:miter;stroke-opacity:1"
       inkscape:connector-curvature="0"
       sodipodi:nodetypes="ccccccccccccccccc" />
    <path
       inkscape:connector-curvature="0"
       id="path4212"
       d="m 536.16239,532.74223 c 0.97496,3.1641 1.78853,6.39786 2.42578,9.6875 0.25371,1.307 0.40262,2.63218 0.44531,3.96289 l 0.97266,51.32422 10.09375,12.16797 13.90234,13.90235 c 0.0238,-1.32619 0.043,-2.65351 0.043,-3.98829 0,-40.59188 -11.61107,-65.75552 -27.88281,-87.05664 z m -260.69531,12.82032 0,0.004 c -0.10054,0.0908 -0.19304,0.1876 -0.29688,0.27539 l -5.60352,3.0917 c -27.4695,30.45442 -55.52148,58.81096 -55.52148,120.87109 0,13.32971 1.19394,26.2421 3.42383,38.5293 3.30759,7.5276 11.61846,13.04503 21.57617,13.76563 l 0,0.084 148,0 0,-0.0117 c 11.17655,-0.1606 20.59114,-6.34828 23.75391,-14.83008 1.98549,-11.24981 3.09016,-23.02128 3.2207,-35.14648 l -0.73242,-0.0234 c -0.45115,-0.0138 -0.90182,-0.0399 -1.35157,-0.0781 -20.12129,-1.7194 -38.24151,-10.26962 -50.4082,-23.51758 -12.16669,-13.24796 -18.3974,-29.56375 -21.91406,-46.23047 -1.74478,-8.26947 0.8062,-16.86067 6.78125,-22.83789 l 19.78125,-19.78516 c -4.21691,-4.49431 -8.52467,-9.01142 -12.86914,-13.68554 -9.38277,5.35928 -27.00997,3.75781 -38.51172,3.75781 -11.83703,0 -29.75906,1.42038 -39.32812,-4.23242 z m 213.93554,13.31836 -0.33008,38.49023 c -0.0571,6.62004 -2.73745,12.94719 -7.45312,17.59375 l -0.0273,0.0273 c -4.74687,4.67725 -11.16451,7.26597 -17.82813,7.19141 l -31.02734,-0.34961 c 0.0878,0.31132 0.18332,0.61467 0.26953,0.92773 l 45.54101,1.41602 c 6.34309,0.19763 12.37369,2.79992 16.86914,7.2793 l 40.87106,40.7266 0.75781,0 0,-0.0117 c 1.45589,-0.0209 2.87947,-0.14998 4.26562,-0.36719 l -42.92773,-42.92773 c -9.23254,-9.23412 -9.80429,-24.01791 -1.3125,-33.9375 l -6.29101,7.34766 -1.37696,-43.40625 z"
       style="fill:url(#linearGradient4231);fill-opacity:1;stroke:none;stroke-width:41.15159225;stroke-linecap:round;stroke-linejoin:round;stroke-opacity:1"
       sodipodi:nodetypes="ccccccsccccccscccccccccsscccscccccccccccccccccccc" />
    <path
       sodipodi:nodetypes="ccccccccccccccccc"
       inkscape:connector-curvature="0"
       style="fill:#99b000;fill-rule:evenodd;stroke:none;stroke-width:1px;stroke-linecap:butt;stroke-linejoin:miter;stroke-opacity:1"
       d="m 464.05502,497.18399 -24.99415,25 25.44532,24.44142 -0.43359,50.5312 -0.0274,0.027 -49.5293,-0.5586 -25.44531,-24.44142 -24.99609,25 c 5.87954,27.8653 19.76455,47.41723 49.99023,50 l 63.70508,1.9805 73.27539,73.01958 38,-38 -72.98438,-72.98448 0.0137,-0.016 -2.0293,-64 c -5.5208,-28.4998 -21.83999,-45.98145 -49.99023,-50 z"
       id="path4702" />
    <path
       style="fill:#99b000;fill-rule:evenodd;stroke:none;stroke-width:1px;stroke-linecap:butt;stroke-linejoin:miter;stroke-opacity:1"
       d="m 239.0452,447.18366 75,-25 75,25 c 0,0 0.97656,-75.00005 -74.51172,-75.00003 -75.48828,2e-5 -75.48828,75.00003 -75.48828,75.00003 z"
       id="path4812"
       inkscape:connector-curvature="0" />
    <path
       style="fill:#99b000;fill-rule:evenodd;stroke:none;stroke-width:1px;stroke-linecap:butt;stroke-linejoin:miter;stroke-opacity:1"
       d="m 214.0452,472.18366 c 0,25 -15.40619,53.10556 -25,74.99999 l 0,50 50,-50 25,-25.00002 c -14.33753,-11.07899 -46.73591,-10.62222 -50,-49.99997 z"
       id="path4819"
       inkscape:connector-curvature="0"
       sodipodi:nodetypes="cccccc" />
  </g>
</svg>
