<?xml version="1.0" encoding="UTF-8" standalone="no"?>
<!-- Created with Inkscape (http://www.inkscape.org/) -->

<svg
   xmlns:dc="http://purl.org/dc/elements/1.1/"
   xmlns:cc="http://creativecommons.org/ns#"
   xmlns:rdf="http://www.w3.org/1999/02/22-rdf-syntax-ns#"
   xmlns:svg="http://www.w3.org/2000/svg"
   xmlns="http://www.w3.org/2000/svg"
   xmlns:xlink="http://www.w3.org/1999/xlink"
   xmlns:sodipodi="http://sodipodi.sourceforge.net/DTD/sodipodi-0.dtd"
   xmlns:inkscape="http://www.inkscape.org/namespaces/inkscape"
   height="297mm"
   id="svg2"
   inkscape:export-xdpi="76.235291"
   inkscape:export-ydpi="76.235291"
   inkscape:output_extension="org.inkscape.output.svg.inkscape"
   inkscape:version="0.91 r13725"
   sodipodi:version="0.32"
   version="1.1"
   width="210mm"
   sodipodi:docname="account-delete.svg">
  <defs
     id="defs4">
    <linearGradient
       id="linearGradient4206">
      <stop
         id="stop4208"
         offset="0"
         style="stop-color:#204a87;stop-opacity:1;" />
      <stop
         id="stop4210"
         offset="1"
         style="stop-color:#3465a4;stop-opacity:1;" />
    </linearGradient>
    <linearGradient
       id="linearGradient2265"
       inkscape:collect="always">
      <stop
         id="stop2267"
         offset="0"
         style="stop-color:#000000;stop-opacity:1;" />
      <stop
         id="stop2269"
         offset="1"
         style="stop-color:#000000;stop-opacity:0;" />
    </linearGradient>
    <linearGradient
       id="linearGradient2366">
      <stop
         id="stop2368"
         offset="0"
         style="stop-color:#ffffff;stop-opacity:1;" />
      <stop
         id="stop2374"
         offset="0.50000000"
         style="stop-color:#ffffff;stop-opacity:0.21904762;" />
      <stop
         id="stop2370"
         offset="1.0000000"
         style="stop-color:#ffffff;stop-opacity:1.0000000;" />
    </linearGradient>
    <linearGradient
       id="linearGradient3414">
      <stop
         id="stop3416"
         offset="0"
         style="stop-color:#ffd1d1;stop-opacity:1;" />
      <stop
         id="stop3418"
         offset="0.5"
         style="stop-color:#ff1d1d;stop-opacity:1;" />
      <stop
         id="stop3420"
         offset="1"
         style="stop-color:#6f0000;stop-opacity:1;" />
    </linearGradient>
    <linearGradient
       id="linearGradient9920">
      <stop
         id="stop9922"
         offset="0"
         style="stop-color:#3465a4;stop-opacity:1;" />
      <stop
         id="stop9924"
         offset="0.31578946"
         style="stop-color:#729fcf;stop-opacity:1;" />
      <stop
         id="stop9926"
         offset="1"
         style="stop-color:#3465a4;stop-opacity:1;" />
    </linearGradient>
    <radialGradient
       cx="347.90399"
       cy="516.797"
       fx="347.90399"
       fy="516.797"
       gradientTransform="matrix(1,0,0,1.0091599,0,-4.7338262)"
       gradientUnits="userSpaceOnUse"
       id="radialGradient18513"
       inkscape:collect="always"
       r="350.9491"
       xlink:href="#linearGradient9920" />
    <linearGradient
       gradientUnits="userSpaceOnUse"
       id="linearGradient18515"
       inkscape:collect="always"
       spreadMethod="reflect"
       x1="-9.0451336"
       x2="704.85309"
       xlink:href="#linearGradient4206"
       y1="516.797"
       y2="516.797" />
    <radialGradient
       cx="23.857143"
       cy="40"
       fx="23.857143"
       fy="40"
       gradientTransform="matrix(1,0,0,0.5,0,20)"
       gradientUnits="userSpaceOnUse"
       id="radialGradient18518"
       inkscape:collect="always"
       r="17.142857"
       xlink:href="#linearGradient2265" />
    <linearGradient
       gradientUnits="userSpaceOnUse"
       id="linearGradient18520"
       inkscape:collect="always"
       spreadMethod="reflect"
       x1="-9.0451336"
       x2="704.85309"
       xlink:href="#linearGradient2366"
       y1="516.797"
       y2="516.797" />
    <linearGradient
       gradientTransform="matrix(33.491436,0,0,41.024605,-264.94637,-224.94021)"
       gradientUnits="userSpaceOnUse"
       id="linearGradient236475"
       inkscape:collect="always"
       x1="6.5864072"
       x2="30.530771"
       xlink:href="#linearGradient3414"
       y1="17.101343"
       y2="17.101343" />
    <linearGradient
       gradientTransform="matrix(33.491436,0,0,41.024605,-264.94637,-224.94021)"
       gradientUnits="userSpaceOnUse"
       id="linearGradient236477"
       inkscape:collect="always"
       x1="6.5864072"
       x2="30.530771"
       xlink:href="#linearGradient3414"
       y1="17.101343"
       y2="17.101343" />
    <linearGradient
       gradientUnits="userSpaceOnUse"
       id="linearGradient236479"
       inkscape:collect="always"
       x1="-24.150043"
       x2="737.37329"
       xlink:href="#linearGradient2366"
       y1="476.62445"
       y2="476.62445" />
  </defs>
  <sodipodi:namedview
     bordercolor="#666666"
     borderopacity="1.0"
     id="base"
     inkscape:current-layer="layer1"
     inkscape:cx="116.15762"
     inkscape:cy="526.18109"
     inkscape:document-units="px"
     inkscape:guide-bbox="true"
     inkscape:pageopacity="0.0"
     inkscape:pageshadow="2"
     inkscape:window-height="706"
     inkscape:window-maximized="1"
     inkscape:window-width="1366"
     inkscape:window-x="-8"
     inkscape:window-y="-8"
     inkscape:zoom="0.37493326"
     pagecolor="#ffffff"
     showgrid="false"
     showguides="true">
    <sodipodi:guide
       id="guide2280"
       orientation="horizontal"
       position="545.21834" />
    <sodipodi:guide
       id="guide2282"
       orientation="vertical"
       position="308.46382" />
    <sodipodi:guide
       id="guide2284"
       orientation="vertical"
       position="712.54005" />
    <sodipodi:guide
       id="guide2286"
       orientation="horizontal"
       position="133.17442" />
    <sodipodi:guide
       id="guide2491"
       orientation="horizontal"
       position="900.35012" />
    <sodipodi:guide
       id="guide2495"
       orientation="vertical"
       position="414.32041" />
    <sodipodi:guide
       id="guide2497"
       orientation="horizontal"
       position="154.80103" />
    <sodipodi:guide
       id="guide3687"
       orientation="horizontal"
       position="936.7739" />
    <sodipodi:guide
       id="guide3689"
       orientation="vertical"
       position="-66.018088" />
    <sodipodi:guide
       id="guide3691"
       orientation="horizontal"
       position="87.644702" />
    <sodipodi:guide
       id="guide3693"
       orientation="vertical"
       position="785.38759" />
  </sodipodi:namedview>
  <metadata
     id="metadata7">
    <rdf:RDF>
      <cc:Work
         rdf:about="">
        <dc:format>image/svg+xml</dc:format>
        <dc:type
           rdf:resource="http://purl.org/dc/dcmitype/StillImage" />
        <cc:license
           rdf:resource="http://creativecommons.org/licenses/by-sa/3.0/" />
        <dc:title>account delete</dc:title>
        <dc:date>Sept 2009</dc:date>
        <dc:creator>
          <cc:Agent>
            <dc:title>Franziska Sponsel</dc:title>
          </cc:Agent>
        </dc:creator>
        <dc:rights>
          <cc:Agent>
            <dc:title>Franziska Sponsel</dc:title>
          </cc:Agent>
        </dc:rights>
        <dc:publisher>
          <cc:Agent>
            <dc:title>RRZE</dc:title>
          </cc:Agent>
        </dc:publisher>
        <dc:subject>
          <rdf:Bag>
            <rdf:li>delete</rdf:li>
            <rdf:li>account</rdf:li>
            <rdf:li>email-account</rdf:li>
          </rdf:Bag>
        </dc:subject>
        <dc:contributor>
          <cc:Agent>
            <dc:title>Beate Kaspar, Hendrik Eggers, Heike Schindler</dc:title>
          </cc:Agent>
        </dc:contributor>
        <dc:description>uses emblems/at.svg and status/false.svg</dc:description>
      </cc:Work>
      <cc:License
         rdf:about="http://creativecommons.org/licenses/by-sa/3.0/">
        <cc:permits
           rdf:resource="http://creativecommons.org/ns#Reproduction" />
        <cc:permits
           rdf:resource="http://creativecommons.org/ns#Distribution" />
        <cc:requires
           rdf:resource="http://creativecommons.org/ns#Notice" />
        <cc:requires
           rdf:resource="http://creativecommons.org/ns#Attribution" />
        <cc:permits
           rdf:resource="http://creativecommons.org/ns#DerivativeWorks" />
        <cc:requires
           rdf:resource="http://creativecommons.org/ns#ShareAlike" />
      </cc:License>
    </rdf:RDF>
  </metadata>
  <g
     id="layer1"
     inkscape:groupmode="layer"
     inkscape:label="Ebene 1">
    <g
       id="g236481">
      <g
         id="g18524">
        <rect
           height="850"
           id="rect2300"
           style="fill:none;stroke:none"
           width="850"
           x="-64.879845"
           y="115.85568" />
        <path
           d="m 244.72829,519.16066 c -2.51948,37.557 4.82124,67.10359 22.02203,88.63944 17.21755,21.27353 42.11089,31.91028 74.67977,31.91028 32.30435,0 58.37018,-10.7681 78.2011,-32.30427 20.09209,-21.53586 31.38955,-50.95113 33.89239,-88.24545 2.46917,-36.76866 -5.02902,-65.92125 -22.49446,-87.45743 -17.44532,-21.79854 -42.19124,-32.69796 -74.23081,-32.6983 -31.78163,3.4e-4 -57.84759,10.76843 -78.2011,32.30429 -20.09545,21.53652 -31.38285,50.82011 -33.86892,87.85144 M 451.5267,636.95269 c -17.11708,20.22284 -36.24098,35.19297 -57.37851,44.91073 -20.85935,9.45475 -44.81455,14.18213 -71.86547,14.18213 -45.17308,0 -80.84774,-16.28315 -107.02758,-48.8501 -25.89842,-32.82929 -37.08523,-75.50732 -33.55732,-128.03479 3.52456,-52.5268 20.57122,-95.20484 51.14012,-128.03479 30.56542,-32.82896 68.30737,-49.24377 113.21568,-49.2441 27.05092,3.3e-4 50.48675,4.99071 70.3009,14.97013 19.83414,9.71808 36.82728,24.55688 50.986,44.51672 l 3.46419,-51.60779 56.3332,0 -19.45897,289.94955 c 38.73027,-5.77805 69.84189,-23.24321 93.33795,-52.3958 23.77089,-29.41491 37.216,-67.36557 40.33855,-113.85232 1.88622,-28.10158 -0.5462,-54.49648 -7.29042,-79.1847 -6.48628,-24.68721 -17.42868,-47.53641 -32.82695,-68.54761 -25.00387,-34.40496 -56.59784,-60.66853 -94.77534,-78.79068 -37.89943,-18.38382 -79.95989,-27.57624 -126.18501,-27.57691 -32.30435,6.7e-4 -63.58337,4.33404 -93.8439,13.00044 -30.24389,8.40508 -58.53436,21.01152 -84.87503,37.81967 -43.03214,26.78924 -77.69849,61.98221 -103.99892,105.57926 -26.018884,43.33538 -40.730374,90.3468 -44.134341,141.03524 -2.800893,41.75937 2.057109,80.89171 14.577359,117.39804 12.781672,36.50632 32.552232,68.67926 59.311672,96.51851 25.7443,27.3139 56.25942,48.06208 91.55232,62.24454 35.27265,14.4448 73.52727,21.66719 114.76025,21.66752 33.88233,-3.3e-4 67.49317,-5.77805 100.83614,-17.33414 33.5875,-11.29344 64.74928,-27.57659 93.49206,-48.8501 l 32.52206,43.72871 c -34.53893,25.47556 -71.69457,44.91073 -111.46346,58.30518 -39.52435,13.65679 -79.24629,20.48552 -119.16607,20.48552 -48.58699,0 -93.8372,-8.66707 -135.74367,-26.00089 C 152.17772,827.88837 115.50792,802.93815 84.09142,770.10887 52.678392,737.27923 29.617747,699.32858 14.912963,656.25619 0.224945,612.92181 -5.453965,566.43507 -2.120288,516.79697 1.085965,468.99755 13.073559,423.43049 33.842623,380.09544 54.611558,336.76073 82.64073,298.67872 117.93686,265.84909 c 36.12038,-33.35429 76.96141,-58.82984 122.5298,-76.42699 45.58179,-17.85883 93.194,-26.78825 142.83302,-26.78892 55.67659,6.7e-4 106.5184,11.42545 152.52232,34.27398 46.26535,22.84987 84.14131,55.28515 113.62452,97.30652 17.96805,25.73856 31.06132,53.70914 39.27983,83.91207 8.47645,30.20326 11.6324,61.45688 9.46476,93.76049 -4.63694,69.07328 -29.17497,123.57009 -73.61433,163.49044 -44.43601,39.92068 -103.47955,60.66887 -177.12084,62.24488 l 4.07076,-60.66887"
           id="text21625"
           style="font-size:12px;font-style:normal;font-variant:normal;font-weight:normal;font-stretch:normal;line-height:120.00000477%;writing-mode:lr-tb;text-anchor:start;fill:url(#radialGradient18513);fill-opacity:1;stroke:url(#linearGradient18515);stroke-width:12;stroke-linecap:butt;stroke-linejoin:miter;stroke-miterlimit:4;stroke-opacity:1;stroke-dasharray:none;font-family:Bitstream Vera Sans" />
        <path
           d="M 41,40 A 17.142857,8.5714283 0 1 1 6.7142868,40 17.142857,8.5714283 0 1 1 41,40 z"
           id="path3366"
           sodipodi:cx="23.857143"
           sodipodi:cy="40"
           sodipodi:rx="17.142857"
           sodipodi:ry="8.5714283"
           sodipodi:type="arc"
           style="fill:url(#radialGradient18518);fill-opacity:1;fill-rule:nonzero;stroke:none;stroke-width:1;marker:none;visibility:visible;display:block;overflow:visible"
           transform="matrix(22.38511,0,0,6.5187067,-175.556,638.10769)" />
        <path
           d="m 383.3125,175.6875 c -48.06976,6.5e-4 -94.00744,8.63334 -138.09375,25.90625 a 13.053154,13.053154 0 0 1 -0.0625,0.0312 c -44.05378,17.01225 -83.40262,41.52324 -118.34375,73.78125 -0.0109,0.0101 -0.0204,0.0211 -0.0312,0.0312 C 92.663401,307.17855 65.697685,343.86803 45.625,385.75 25.551307,427.63414 14.004125,471.50377 10.90625,517.6875 c -3.2308041,48.10633 2.269301,92.75868 16.375,134.375 14.113936,41.32427 36.112268,77.50315 66.25,109 30.19621,31.55412 65.23028,55.41562 105.5,71.8125 a 13.053154,13.053154 0 0 1 0.0625,0.0312 c 40.25936,16.65252 83.71499,25 130.75,25 38.42818,0 76.66052,-6.56625 114.90625,-19.78125 a 13.053154,13.053154 0 0 1 0.0937,-0.0312 c 34.41934,-11.59268 66.76962,-27.89396 97.1875,-48.875 l -16.90625,-22.75 c -26.81766,18.38796 -55.64506,32.81127 -86.375,43.15625 -0.0405,0.0136 -0.0845,0.0176 -0.125,0.0312 -34.59437,11.97548 -69.67304,18.03087 -105,18.03125 -42.72979,-3.4e-4 -82.71814,-7.49004 -119.625,-22.59375 -0.0215,-0.009 -0.041,-0.0225 -0.0625,-0.0312 -36.89558,-14.83699 -69.05288,-36.71689 -96.03125,-65.3125 -0.0307,-0.032 -0.063,-0.0617 -0.0937,-0.0937 C 89.842527,710.53078 69.051036,676.66822 55.6875,638.5 a 13.053154,13.053154 0 0 1 -0.03125,-0.0937 C 42.543092,600.17113 37.501711,559.24212 40.40625,515.9375 43.942391,463.28086 59.32747,414.07989 86.375,369.03125 a 13.053154,13.053154 0 0 1 0,-0.0312 c 27.28974,-45.23699 63.50347,-81.98616 108.15625,-109.8125 0.0438,-0.0279 0.0812,-0.0658 0.125,-0.0937 27.3549,-17.43721 56.81073,-30.52007 88.1875,-39.25 l 0,-0.0312 c 31.44214,-9.0048 63.96625,-13.49932 97.4375,-13.5 47.91708,6.9e-4 92.02768,9.5781 131.78125,28.84375 0.0295,0.0143 0.0643,0.0169 0.0937,0.0312 40.01603,19.01245 73.42626,46.77548 99.625,82.8125 0.009,0.0119 0.0226,0.0193 0.0312,0.0312 16.28709,22.23292 27.94466,46.61746 34.84375,72.8125 0.011,0.0416 0.0203,0.0833 0.0312,0.125 7.13222,26.16716 9.65719,54.02946 7.6875,83.375 -3.25763,48.49781 -17.48722,89.34429 -43.1875,121.15625 -0.005,0.006 0.005,0.0251 0,0.0312 l -0.0312,0 C 585.72884,627.06286 551.12953,646.43305 509.625,652.625 a 13.053154,13.053154 0 0 1 -14.96875,-13.78125 l 18.5,-276.03125 -30.125,0 -2.65625,39.4375 a 13.053154,13.053154 0 0 1 -23.6875,6.6875 c -13.07298,-18.42925 -28.33105,-31.67186 -46.09375,-40.375 a 13.053154,13.053154 0 0 1 -0.125,-0.0625 c -17.68535,-8.90725 -38.96001,-13.56219 -64.40625,-13.5625 -41.72676,3.1e-4 -75.2634,14.59823 -103.65625,45.09375 -28.37556,30.47438 -44.3197,69.80958 -47.6875,120 -3.36923,50.16489 7.14338,89.03387 30.71875,118.96875 0.0233,0.0295 0.0392,0.0642 0.0625,0.0937 23.8726,29.64846 54.7854,43.87502 96.78125,43.875 25.51057,0 47.53388,-4.38141 66.4375,-12.9375 0.021,-0.01 0.0415,-0.0216 0.0625,-0.0312 19.19664,-8.83768 36.72253,-22.52756 52.78125,-41.5 a 13.053154,13.053154 0 0 1 23,9.3125 L 461.5,683.78125 c 64.40762,-3.76126 115.38738,-23.12718 154.34375,-58.125 41.82324,-37.57026 64.85104,-88.19676 69.3125,-154.65625 2.07327,-30.89725 -0.92828,-60.58251 -9,-89.34375 a 13.053154,13.053154 0 0 1 -0.0312,-0.0937 c -7.82988,-28.77473 -20.25106,-55.30916 -37.375,-79.84375 -0.005,-0.007 0.005,-0.024 0,-0.0312 -28.27642,-40.29438 -64.32287,-71.16719 -108.71875,-93.09375 a 13.053154,13.053154 0 0 1 -0.0312,0 C 485.87234,186.67709 437.20257,175.68815 383.3125,175.6875 z m -26.5,210.25 c 34.97234,3.7e-4 64.46721,12.77114 84.34375,37.5625 0.0186,0.0232 0.0439,0.0393 0.0625,0.0625 19.90032,24.58092 27.95982,57.51238 25.34375,96.46875 -2.64569,39.42294 -14.91208,72.14027 -37.34375,96.21875 -0.02,0.0215 -0.0425,0.041 -0.0625,0.0625 -22.2143,24.08712 -52.54378,36.46874 -87.71875,36.46875 -35.40956,0 -65.09263,-12.34608 -84.84375,-36.75 a 13.053154,13.053154 0 0 1 -0.0312,-0.0625 c -19.7043,-24.67031 -27.53856,-57.98268 -24.875,-97.6875 2.63223,-39.20841 14.91856,-71.80818 37.375,-95.875 a 13.053154,13.053154 0 0 1 0.0312,-0.0625 c 22.6841,-24.00183 52.98684,-36.40589 87.71875,-36.40625 z"
           id="path4024"
           inkscape:original="M 383.3125 162.625 C 333.67348 162.62567 286.05054 171.57867 240.46875 189.4375 C 194.90036 207.03465 154.05788 232.48946 117.9375 265.84375 C 82.64137 298.67338 54.612683 336.75905 33.84375 380.09375 C 13.074686 423.4288 1.0812529 469.01305 -2.125 516.8125 C -5.458677 566.4506 0.21823209 612.91565 14.90625 656.25 C 29.611034 699.32239 52.680719 737.26409 84.09375 770.09375 C 115.51025 802.92303 152.16728 827.89728 194.09375 844.96875 C 236.00022 862.30257 281.25675 870.96875 329.84375 870.96875 C 369.76353 870.96875 409.47566 864.12555 449 850.46875 C 488.76889 837.0743 525.92979 817.63182 560.46875 792.15625 L 527.96875 748.4375 C 499.22597 769.71101 468.05626 785.98781 434.46875 797.28125 C 401.12578 808.83734 367.50732 814.62464 333.625 814.625 C 292.39202 814.62467 254.14765 807.41354 218.875 792.96875 C 183.5821 778.78629 153.0568 758.03267 127.3125 730.71875 C 100.55306 702.8795 80.781668 670.69382 68 634.1875 C 55.47975 597.68117 50.636607 558.57184 53.4375 516.8125 C 56.841467 466.12406 71.543618 419.08539 97.5625 375.75 C 123.86293 332.15295 158.53036 296.97675 201.5625 270.1875 C 227.90317 253.37935 256.19362 240.78009 286.4375 232.375 C 316.69803 223.7086 347.97691 219.37566 380.28125 219.375 C 426.50637 219.37567 468.56931 228.55368 506.46875 246.9375 C 544.64625 265.05965 576.2461 291.31379 601.25 325.71875 C 616.64827 346.72995 627.57624 369.59404 634.0625 394.28125 C 640.80672 418.96947 643.22994 445.36718 641.34375 473.46875 C 638.2212 519.9555 624.80212 557.89759 601.03125 587.3125 C 577.53519 616.46509 546.41775 633.94069 507.6875 639.71875 L 527.125 349.75 L 470.8125 349.75 L 467.34375 401.375 C 453.18503 381.41516 436.17789 366.56183 416.34375 356.84375 C 396.5296 346.86433 373.11342 341.87533 346.0625 341.875 C 301.15419 341.87533 263.40917 358.29602 232.84375 391.125 C 202.27485 423.95495 185.21207 466.62947 181.6875 519.15625 C 178.15959 571.68372 189.35158 614.35823 215.25 647.1875 C 241.42984 679.75445 277.10818 696.03127 322.28125 696.03125 C 349.33217 696.03125 373.2969 691.32977 394.15625 681.875 C 415.29378 672.15724 434.41417 657.16033 451.53125 636.9375 L 447.46875 697.625 C 521.11004 696.04899 580.12649 675.29565 624.5625 635.375 C 669.00186 595.45465 693.55057 540.94829 698.1875 471.875 C 700.35514 439.57139 697.19517 408.32825 688.71875 378.125 C 680.50024 347.92207 667.40554 319.95731 649.4375 294.21875 C 619.95429 252.19738 582.07783 219.75611 535.8125 196.90625 C 489.80858 174.05772 438.98909 162.62567 383.3125 162.625 z M 356.8125 399 C 388.85207 399.00034 413.58594 409.92022 431.03125 431.71875 C 448.49669 453.25493 456.00041 482.38761 453.53125 519.15625 C 451.02841 556.45057 439.71708 585.87037 419.625 607.40625 C 399.79408 628.94242 373.74186 639.71874 341.4375 639.71875 C 308.86862 639.71875 283.96756 629.08602 266.75 607.8125 C 249.54921 586.27665 242.19927 556.71327 244.71875 519.15625 C 247.20482 482.12492 258.49831 452.84901 278.59375 431.3125 C 298.94726 409.77664 325.03087 399.00033 356.8125 399 z "
           inkscape:radius="-13.051848"
           sodipodi:type="inkscape:offset"
           style="font-size:12px;font-style:normal;font-variant:normal;font-weight:normal;font-stretch:normal;line-height:120.00000477%;writing-mode:lr-tb;text-anchor:start;fill:none;stroke:url(#linearGradient18520);stroke-width:12;stroke-linecap:butt;stroke-linejoin:miter;stroke-miterlimit:4;stroke-opacity:1;stroke-dasharray:none;font-family:Bitstream Vera Sans" />
      </g>
      <text
         id="text2684"
         style="font-size:12px;font-style:normal;font-weight:normal;fill:#000000;fill-opacity:1;stroke:none;stroke-width:1px;stroke-linecap:butt;stroke-linejoin:miter;stroke-opacity:1;font-family:Bitstream Vera Sans"
         x="-1578.4543"
         xml:space="preserve"
         y="365.12036"><tspan
           id="tspan2686"
           sodipodi:role="line"
           x="-1578.4543"
           y="365.12036"></tspan></text>
      <g
         id="g236471"
         transform="matrix(0.7531461,0,0,0.7531461,1160.5722,366.72159)">
        <path
           d="M 630.21875,117.03125 C 626.3271,117.09394 622.50907,118.10208 619.09375,119.96875 L 522.40625,172.78125 C 516.5032,176.01378 512.22846,181.57613 510.62413,188.11229 C 509.0198,194.64845 510.23328,201.5579 513.96875,207.15625 C 513.8552,208.8762 513.08946,213.03699 510.84375,218.78125 C 506.1308,230.8364 495.72896,248.86231 481.125,269.625 C 455.17918,306.51261 415.93738,352.77798 372.125,401.03125 C 288.35685,320.26077 208.19604,233.24046 132.9375,138.53125 C 128.93718,133.50113 123.08671,130.28538 116.69606,129.60403 C 110.3054,128.92267 103.90844,130.83263 98.9375,134.90625 L 27.4375,193.5 C 22.215802,197.78282 19.039938,204.06725 18.689044,210.81155 C 18.338151,217.55584 20.844697,224.13592 25.59375,228.9375 C 113.03455,317.40117 201.75329,403.29368 291.96875,486.46875 C 230.79654,549.87881 169.03504,610.77773 123.6875,655.03125 C 98.919283,679.20193 79.090011,698.41927 66.71875,710.65625 C 60.53312,716.77474 56.54593,720.71358 53.46875,724.1875 C 52.699455,725.05598 52.069358,725.66794 50.625,727.78125 C 50.274405,728.29422 49.81387,728.68052 49.25,729.625 C 49.233121,729.65327 49.235823,729.65817 49.21875,729.6875 L -17.03125,795.15625 C -25.895003,803.92833 -26.564751,818.02691 -18.572465,827.59973 C -10.58018,837.17255 3.4114942,839.0304 13.625,831.875 C 134.61653,747.07157 249.96112,652.76711 355.71875,544.5625 C 448.42251,627.93223 542.76117,708.33416 639.1875,785 C 648.16657,792.14557 660.94747,791.93605 669.6875,784.5 L 728.9375,734.09375 C 734.54414,729.31667 737.64697,722.22981 737.35428,714.86983 C 737.06158,707.50985 733.40579,700.69177 727.4375,696.375 C 626.77769,623.49307 528.56342,544.98587 434.375,459.3125 C 514.23029,367.4716 587.38134,266.15865 651.46875,152.84375 C 655.70107,145.35734 655.60474,136.17874 651.21623,128.7828 C 646.82771,121.38687 638.81774,116.90397 630.21875,117.03125 z"
           id="path29474"
           inkscape:original="M 630.59375 141.03125 L 533.90625 193.84375 C 557.77201 220.93657 475.1389 325.11137 373.3125 435.46875 C 282.36258 349.25273 195.4623 255.78846 114.15625 153.46875 L 42.65625 212.0625 C 135.69957 306.19423 230.10188 397.53083 326.25 485.5625 C 192.47714 625.62366 48.983165 758.45008 72.90625 740 L -0.15625 812.21875 C 126.01239 723.78667 245.82245 625.33043 354.625 511.4375 C 452.47917 600.03899 552.19405 685.17634 654.125 766.21875 L 713.375 715.8125 C 605.93131 638.01875 501.07244 553.86177 400.875 461.28125 C 485.80862 365.96079 563.21561 260.16459 630.59375 141.03125 z "
           inkscape:radius="24.000225"
           sodipodi:type="inkscape:offset"
           style="fill:url(#linearGradient236475);fill-opacity:1;fill-rule:nonzero;stroke:#a40000;stroke-width:21.8879261;stroke-linecap:round;stroke-linejoin:round;marker:none;marker-start:none;marker-mid:none;marker-end:none;stroke-miterlimit:4;stroke-dasharray:none;stroke-dashoffset:0;stroke-opacity:1;visibility:visible;display:inline;overflow:visible"
           transform="matrix(0.9676704,0,0,0.9676704,-1230.4449,-33.296819)" />
        <path
           d="M 630.53125,138.34375 C 630.10721,138.35535 629.68514,138.48383 629.3125,138.6875 L 532.625,191.5 C 531.97881,191.85385 531.52715,192.47156 531.34375,193.21875 C 531.16034,193.96598 531.28886,194.66822 531.71875,195.3125 C 534.32224,199.22006 535.5635,203.87754 535.25,208.5625 C 534.87021,214.31516 533.63746,219.06554 530.71875,226.53125 C 524.75623,241.78264 513.76662,260.2903 498.5625,281.90625 C 471.62276,320.20693 432.01888,366.79105 387.90625,415.375 C 384.027,419.64246 378.58492,422.15707 372.82087,422.34547 C 367.05682,422.53388 361.46215,420.38002 357.3125,416.375 C 272.92842,335.01063 192.13893,247.31502 116.25,151.8125 C 115.79903,151.24544 115.13817,150.8872 114.4375,150.8125 C 113.73684,150.7378 113.05253,150.92785 112.46875,151.40625 L 40.96875,210 C 40.377665,210.48481 40.03953,211.14648 40,211.90625 C 39.960471,212.66602 40.210159,213.39169 40.75,213.9375 C 127.97253,302.18035 216.47866,387.84277 306.4375,470.78125 C 310.65881,474.67499 313.13151,480.10652 313.2962,485.84704 C 313.46089,491.58755 311.30364,497.15191 307.3125,501.28125 C 245.89745,564.94304 184.0134,625.95736 138.59375,670.28125 C 113.79743,694.47935 93.92618,713.73757 81.71875,725.8125 C 75.52893,731.93513 71.757142,735.72504 69.4375,738.34375 C 68.132799,739.81667 69.114958,738.50121 68.21875,739.8125 C 65.77337,743.39044 66.818473,741.80874 67.5625,740.5625 C 66.634953,742.12627 65.511258,743.56502 64.21875,744.84375 L -2.03125,810.3125 C -3.1542247,811.42386 -3.2104724,812.71223 -2.1875,813.9375 C -1.1645302,815.16277 0.077678174,815.31513 1.375,814.40625 C 121.49808,730.21152 235.79956,636.74723 340.46875,529.65625 C 348.4633,521.49183 361.47193,521.07842 369.96875,528.71875 C 462.39271,611.83685 556.42398,691.95002 652.46875,768.3125 C 653.5735,769.19166 654.79966,769.1649 655.875,768.25 L 715.125,717.84375 C 715.75852,717.30397 716.06537,716.57667 716.03125,715.71875 C 715.99714,714.86099 715.60021,714.13558 714.9375,713.65625 C 613.72258,640.3724 514.88133,561.36897 420.03125,475.09375 C 411.44743,467.29378 410.67003,454.06412 418.28125,445.3125 C 497.27234,354.46551 569.56066,254.34702 632.90625,142.34375 C 633.39639,141.47675 633.37953,140.50652 632.875,139.65625 C 632.37594,138.8152 631.54432,138.33969 630.5625,138.34375 L 630.53125,138.34375 z"
           id="path29494"
           inkscape:original="M 630.21875 117.03125 C 626.3271 117.09394 622.50907 118.10208 619.09375 119.96875 L 522.40625 172.78125 C 516.5032 176.01378 512.22933 181.58884 510.625 188.125 C 509.02068 194.66116 510.23328 201.5579 513.96875 207.15625 C 513.8552 208.8762 513.08946 213.03699 510.84375 218.78125 C 506.1308 230.8364 495.72896 248.86231 481.125 269.625 C 455.17918 306.51261 415.93738 352.77798 372.125 401.03125 C 288.35685 320.26077 208.19604 233.24046 132.9375 138.53125 C 128.93718 133.50113 123.07815 130.27511 116.6875 129.59375 C 110.29685 128.9124 103.90844 130.83263 98.9375 134.90625 L 27.4375 193.5 C 22.215802 197.78282 19.038394 204.06821 18.6875 210.8125 C 18.336606 217.55679 20.844697 224.13592 25.59375 228.9375 C 113.03455 317.40117 201.75329 403.29368 291.96875 486.46875 C 230.79654 549.87881 169.03504 610.77773 123.6875 655.03125 C 98.919283 679.20193 79.090011 698.41927 66.71875 710.65625 C 60.53312 716.77474 56.54593 720.71358 53.46875 724.1875 C 52.699455 725.05598 52.069358 725.66794 50.625 727.78125 C 50.274405 728.29422 49.81387 728.68052 49.25 729.625 C 49.233121 729.65327 49.235823 729.65817 49.21875 729.6875 L -17.03125 795.15625 C -25.895003 803.92833 -26.554785 818.02093 -18.5625 827.59375 C -10.570214 837.16657 3.4114942 839.0304 13.625 831.875 C 134.61653 747.07157 249.96112 652.76711 355.71875 544.5625 C 448.42251 627.93223 542.76117 708.33416 639.1875 785 C 648.16657 792.14557 660.94747 791.93605 669.6875 784.5 L 728.9375 734.09375 C 734.54414 729.31667 737.63644 722.23498 737.34375 714.875 C 737.05109 707.51504 733.40579 700.69177 727.4375 696.375 C 626.77769 623.49307 528.56342 544.98587 434.375 459.3125 C 514.23029 367.4716 587.38134 266.15865 651.46875 152.84375 C 655.70107 145.35734 655.60726 136.17718 651.21875 128.78125 C 646.83022 121.38531 638.81774 116.90397 630.21875 117.03125 z "
           inkscape:radius="-21.326199"
           sodipodi:type="inkscape:offset"
           style="fill:url(#linearGradient236477);fill-opacity:1;fill-rule:nonzero;stroke:url(#linearGradient236479);stroke-width:21.8879261;stroke-linecap:round;stroke-linejoin:round;marker:none;marker-start:none;marker-mid:none;marker-end:none;stroke-miterlimit:4;stroke-dasharray:none;stroke-dashoffset:0;stroke-opacity:1;visibility:visible;display:inline;overflow:visible"
           transform="matrix(0.9676704,0,0,0.9676704,-1230.4449,-33.296819)" />
      </g>
    </g>
  </g>
</svg>
