<?xml version="1.0" encoding="UTF-8" standalone="no"?>
<!-- Created with Inkscape (http://www.inkscape.org/) -->

<svg
   xmlns:dc="http://purl.org/dc/elements/1.1/"
   xmlns:cc="http://creativecommons.org/ns#"
   xmlns:rdf="http://www.w3.org/1999/02/22-rdf-syntax-ns#"
   xmlns:svg="http://www.w3.org/2000/svg"
   xmlns="http://www.w3.org/2000/svg"
   xmlns:xlink="http://www.w3.org/1999/xlink"
   xmlns:sodipodi="http://sodipodi.sourceforge.net/DTD/sodipodi-0.dtd"
   xmlns:inkscape="http://www.inkscape.org/namespaces/inkscape"
   width="210mm"
   height="297mm"
   viewBox="0 0 744.09448819 1052.3622047"
   id="svg2"
   version="1.1"
   inkscape:version="0.91 r13725"
   sodipodi:docname="address-book-global-no-at.svg"
   inkscape:export-filename="C:\Users\johannes\Documents\Arbeit\RRZE\github3\tango\32x32\emblems\address-book-global.png"
   inkscape:export-xdpi="3.4368267"
   inkscape:export-ydpi="3.4368267">
  <title
     id="title4596">address book global no at</title>
  <defs
     id="defs4">
    <linearGradient
       id="linearGradient2224">
      <stop
         id="stop2226"
         offset="0"
         style="stop-color:#7c7c7c;stop-opacity:1;" />
      <stop
         id="stop2228"
         offset="1"
         style="stop-color:#b8b8b8;stop-opacity:1;" />
    </linearGradient>
    <linearGradient
       id="linearGradient15218">
      <stop
         id="stop15220"
         offset="0"
         style="stop-color:#eeeeef;stop-opacity:1;" />
      <stop
         id="stop2736"
         offset="0.59928656"
         style="stop-color:#d3d7cf;stop-opacity:1;" />
      <stop
         id="stop2738"
         offset="0.82758623"
         style="stop-color:#ffffff;stop-opacity:1;" />
      <stop
         id="stop15222"
         offset="1"
         style="stop-color:#d3d7cf;stop-opacity:1;" />
    </linearGradient>
    <pattern
       y="0"
       x="0"
       height="6"
       width="6"
       patternUnits="userSpaceOnUse"
       id="EMFhbasepattern" />
    <pattern
       y="0"
       x="0"
       height="6"
       width="6"
       patternUnits="userSpaceOnUse"
       id="EMFhbasepattern-5" />
    <linearGradient
       id="linearGradient5048">
      <stop
         id="stop5050"
         offset="0"
         style="stop-color:black;stop-opacity:0;" />
      <stop
         id="stop5056"
         offset="0.5"
         style="stop-color:black;stop-opacity:1;" />
      <stop
         id="stop5052"
         offset="1"
         style="stop-color:black;stop-opacity:0;" />
    </linearGradient>
    <linearGradient
       inkscape:collect="always"
       xlink:href="#linearGradient2803"
       id="linearGradient4852"
       gradientUnits="userSpaceOnUse"
       gradientTransform="matrix(36.492211,0,0,7.9491095,21.567659,41.278856)"
       x1="10.496115"
       y1="93.338043"
       x2="10.219901"
       y2="84.287079" />
    <linearGradient
       id="linearGradient2803">
      <stop
         id="stop2805"
         offset="0"
         style="stop-color:#ffffff;stop-opacity:1;" />
      <stop
         id="stop2807"
         offset="1"
         style="stop-color:#babdb6;stop-opacity:1;" />
    </linearGradient>
    <linearGradient
       inkscape:collect="always"
       xlink:href="#linearGradient2795"
       id="linearGradient4846"
       gradientUnits="userSpaceOnUse"
       gradientTransform="matrix(4.0972034,0,0,66.881873,5.2587413,66.541201)"
       x1="35.433037"
       y1="4.9530048"
       x2="41.219128"
       y2="4.9530048" />
    <linearGradient
       id="linearGradient2795">
      <stop
         id="stop2797"
         offset="0.0000000"
         style="stop-color:#000000;stop-opacity:0.068627454;" />
      <stop
         id="stop2799"
         offset="1.0000000"
         style="stop-color:#ffffff;stop-opacity:1.0000000;" />
    </linearGradient>
    <linearGradient
       inkscape:collect="always"
       xlink:href="#linearGradient2116"
       id="linearGradient4843"
       gradientUnits="userSpaceOnUse"
       gradientTransform="matrix(16.537518,0,0,17.21879,5.4402124,42.5063)"
       x1="73.361984"
       y1="26.652197"
       x2="-2.7582901"
       y2="21.270376" />
    <linearGradient
       id="linearGradient2116"
       inkscape:collect="always">
      <stop
         id="stop2118"
         offset="0"
         style="stop-color:#ffffff;stop-opacity:1;" />
      <stop
         id="stop2120"
         offset="1"
         style="stop-color:#ffffff;stop-opacity:0;" />
    </linearGradient>
    <filter
       inkscape:collect="always"
       style="color-interpolation-filters:sRGB"
       id="filter4308"
       x="-0.1068726"
       width="1.2137452"
       y="-0.087135352"
       height="1.1742707">
      <feGaussianBlur
         inkscape:collect="always"
         stdDeviation="26.91775"
         id="feGaussianBlur4310" />
    </filter>
    <radialGradient
       cx="18.247644"
       cy="15.716079"
       fx="18.247644"
       fy="15.716079"
       gradientTransform="matrix(17.887253,0,0,17.887647,-85.112438,82.88338)"
       gradientUnits="userSpaceOnUse"
       id="radialGradient32376"
       inkscape:collect="always"
       r="29.993349"
       xlink:href="#linearGradient3962" />
    <linearGradient
       id="linearGradient3962">
      <stop
         id="stop3964"
         offset="0"
         style="stop-color:#d3d7cf;stop-opacity:1;" />
      <stop
         id="stop4134"
         offset="0.15517241"
         style="stop-color:#729fcf;stop-opacity:1;" />
      <stop
         id="stop4346"
         offset="0.75"
         style="stop-color:#3465a4;stop-opacity:1;" />
      <stop
         id="stop3966"
         offset="1"
         style="stop-color:#204a87;stop-opacity:1;" />
    </linearGradient>
    <radialGradient
       cx="11.826907"
       cy="10.476453"
       fx="11.826907"
       fy="10.476453"
       gradientTransform="matrix(17.637365,0,0,15.164819,91.737203,82.88338)"
       gradientUnits="userSpaceOnUse"
       id="radialGradient32203"
       inkscape:collect="always"
       r="32.664848"
       xlink:href="#linearGradient2116" />
    <radialGradient
       cx="18.63378"
       cy="17.486208"
       fx="18.934305"
       fy="17.810213"
       gradientTransform="scale(1.036822,0.964486)"
       gradientUnits="userSpaceOnUse"
       id="radialGradient32671"
       inkscape:collect="always"
       r="40.692665"
       xlink:href="#linearGradient4750" />
    <linearGradient
       id="linearGradient4750">
      <stop
         id="stop4752"
         offset="0"
         style="stop-color:#ffffff;stop-opacity:1;" />
      <stop
         id="stop4758"
         offset="0.37931034"
         style="stop-color:#fefefe;stop-opacity:1.0000000;" />
      <stop
         id="stop4754"
         offset="1"
         style="stop-color:#000000;stop-opacity:1;" />
    </linearGradient>
    <radialGradient
       cx="18.63378"
       cy="17.486208"
       fx="18.934305"
       fy="17.810213"
       gradientTransform="scale(1.036822,0.964486)"
       gradientUnits="userSpaceOnUse"
       id="radialGradient32669"
       inkscape:collect="always"
       r="40.692665"
       xlink:href="#linearGradient4750" />
    <radialGradient
       cx="18.63378"
       cy="17.486208"
       fx="18.934305"
       fy="17.810213"
       gradientTransform="scale(1.036822,0.964486)"
       gradientUnits="userSpaceOnUse"
       id="radialGradient32663"
       inkscape:collect="always"
       r="40.692665"
       xlink:href="#linearGradient4750" />
    <radialGradient
       cx="18.63378"
       cy="17.486208"
       fx="18.934305"
       fy="17.810213"
       gradientTransform="scale(1.036822,0.964486)"
       gradientUnits="userSpaceOnUse"
       id="radialGradient32661"
       inkscape:collect="always"
       r="40.692665"
       xlink:href="#linearGradient4750" />
    <radialGradient
       cx="18.63378"
       cy="17.486208"
       fx="18.934305"
       fy="17.810213"
       gradientTransform="scale(1.036822,0.964486)"
       gradientUnits="userSpaceOnUse"
       id="radialGradient32655"
       inkscape:collect="always"
       r="40.692665"
       xlink:href="#linearGradient4750" />
    <radialGradient
       cx="18.63378"
       cy="17.486208"
       fx="18.934305"
       fy="17.810213"
       gradientTransform="scale(1.036822,0.964486)"
       gradientUnits="userSpaceOnUse"
       id="radialGradient32653"
       inkscape:collect="always"
       r="40.692665"
       xlink:href="#linearGradient4750" />
    <radialGradient
       cx="18.63378"
       cy="17.486208"
       fx="18.934305"
       fy="17.810213"
       gradientTransform="scale(1.036822,0.964486)"
       gradientUnits="userSpaceOnUse"
       id="radialGradient32647"
       inkscape:collect="always"
       r="40.692665"
       xlink:href="#linearGradient4750" />
    <radialGradient
       cx="18.63378"
       cy="17.486208"
       fx="18.934305"
       fy="17.810213"
       gradientTransform="scale(1.036822,0.964486)"
       gradientUnits="userSpaceOnUse"
       id="radialGradient32645"
       inkscape:collect="always"
       r="40.692665"
       xlink:href="#linearGradient4750" />
    <radialGradient
       cx="18.63378"
       cy="17.486208"
       fx="18.934305"
       fy="17.810213"
       gradientTransform="scale(1.036822,0.964486)"
       gradientUnits="userSpaceOnUse"
       id="radialGradient32639"
       inkscape:collect="always"
       r="40.692665"
       xlink:href="#linearGradient4750" />
    <radialGradient
       cx="18.63378"
       cy="17.486208"
       fx="18.934305"
       fy="17.810213"
       gradientTransform="scale(1.036822,0.964486)"
       gradientUnits="userSpaceOnUse"
       id="radialGradient32637"
       inkscape:collect="always"
       r="40.692665"
       xlink:href="#linearGradient4750" />
    <radialGradient
       cx="18.63378"
       cy="17.486208"
       fx="18.934305"
       fy="17.810213"
       gradientTransform="scale(1.036822,0.964486)"
       gradientUnits="userSpaceOnUse"
       id="radialGradient32631"
       inkscape:collect="always"
       r="40.692665"
       xlink:href="#linearGradient4750" />
    <radialGradient
       cx="18.63378"
       cy="17.486208"
       fx="18.934305"
       fy="17.810213"
       gradientTransform="scale(1.036822,0.964486)"
       gradientUnits="userSpaceOnUse"
       id="radialGradient32629"
       inkscape:collect="always"
       r="40.692665"
       xlink:href="#linearGradient4750" />
    <radialGradient
       cx="18.63378"
       cy="17.486208"
       fx="18.934305"
       fy="17.810213"
       gradientTransform="scale(1.036822,0.964486)"
       gradientUnits="userSpaceOnUse"
       id="radialGradient32623"
       inkscape:collect="always"
       r="40.692665"
       xlink:href="#linearGradient4750" />
    <radialGradient
       cx="18.63378"
       cy="17.486208"
       fx="18.934305"
       fy="17.810213"
       gradientTransform="scale(1.036822,0.964486)"
       gradientUnits="userSpaceOnUse"
       id="radialGradient32621"
       inkscape:collect="always"
       r="40.692665"
       xlink:href="#linearGradient4750" />
    <radialGradient
       cx="18.63378"
       cy="17.486208"
       fx="18.934305"
       fy="17.810213"
       gradientTransform="scale(1.036822,0.964486)"
       gradientUnits="userSpaceOnUse"
       id="radialGradient32615"
       inkscape:collect="always"
       r="40.692665"
       xlink:href="#linearGradient4750" />
    <radialGradient
       cx="18.63378"
       cy="17.486208"
       fx="18.934305"
       fy="17.810213"
       gradientTransform="scale(1.036822,0.964486)"
       gradientUnits="userSpaceOnUse"
       id="radialGradient32613"
       inkscape:collect="always"
       r="40.692665"
       xlink:href="#linearGradient4750" />
    <radialGradient
       cx="18.63378"
       cy="17.486208"
       fx="18.934305"
       fy="17.810213"
       gradientTransform="scale(1.036822,0.964486)"
       gradientUnits="userSpaceOnUse"
       id="radialGradient32579"
       inkscape:collect="always"
       r="40.692665"
       xlink:href="#linearGradient4750" />
    <radialGradient
       cx="18.63378"
       cy="17.486208"
       fx="18.934305"
       fy="17.810213"
       gradientTransform="scale(1.036822,0.964486)"
       gradientUnits="userSpaceOnUse"
       id="radialGradient32577"
       inkscape:collect="always"
       r="40.692665"
       xlink:href="#linearGradient4750" />
    <radialGradient
       cx="18.63378"
       cy="17.486208"
       fx="18.934305"
       fy="17.810213"
       gradientTransform="scale(1.036822,0.964486)"
       gradientUnits="userSpaceOnUse"
       id="radialGradient32571"
       inkscape:collect="always"
       r="40.692665"
       xlink:href="#linearGradient4750" />
    <radialGradient
       cx="18.63378"
       cy="17.486208"
       fx="18.934305"
       fy="17.810213"
       gradientTransform="scale(1.036822,0.964486)"
       gradientUnits="userSpaceOnUse"
       id="radialGradient32569"
       inkscape:collect="always"
       r="40.692665"
       xlink:href="#linearGradient4750" />
    <radialGradient
       cx="15.601279"
       cy="12.142302"
       fx="15.601279"
       fy="12.142302"
       gradientTransform="matrix(17.887253,0,0,17.887647,-85.112438,82.88338)"
       gradientUnits="userSpaceOnUse"
       id="radialGradient32290"
       inkscape:collect="always"
       r="43.526714"
       xlink:href="#linearGradient2116" />
    <filter
       inkscape:collect="always"
       style="color-interpolation-filters:sRGB"
       id="filter4266"
       x="-0.16226594"
       width="1.3245319"
       y="-0.58861182"
       height="2.1772236">
      <feGaussianBlur
         inkscape:collect="always"
         stdDeviation="17.688983"
         id="feGaussianBlur4268" />
    </filter>
  </defs>
  <sodipodi:namedview
     id="base"
     pagecolor="#ffffff"
     bordercolor="#666666"
     borderopacity="1.0"
     inkscape:pageopacity="0.0"
     inkscape:pageshadow="2"
     inkscape:zoom="0.082806677"
     inkscape:cx="-204.27706"
     inkscape:cy="472.25779"
     inkscape:document-units="px"
     inkscape:current-layer="g4380"
     showgrid="false"
     showguides="true"
     inkscape:guide-bbox="true"
     inkscape:window-width="1366"
     inkscape:window-height="721"
     inkscape:window-x="-4"
     inkscape:window-y="-4"
     inkscape:window-maximized="1">
    <sodipodi:guide
       position="86.974135,1005.5059"
       orientation="0,1"
       id="guide3338" />
    <sodipodi:guide
       position="89.095455,155.5635"
       orientation="0,1"
       id="guide3340" />
    <sodipodi:guide
       position="-33.941126,750.94742"
       orientation="1,0"
       id="guide3344" />
    <sodipodi:guide
       position="816.56562,546.5119"
       orientation="1,0"
       id="guide3346" />
    <inkscape:grid
       type="xygrid"
       id="grid3440" />
  </sodipodi:namedview>
  <metadata
     id="metadata7">
    <rdf:RDF>
      <cc:Work
         rdf:about="">
        <dc:format>image/svg+xml</dc:format>
        <dc:type
           rdf:resource="http://purl.org/dc/dcmitype/StillImage" />
        <dc:title>address book global no at</dc:title>
        <dc:date>June 2015</dc:date>
        <dc:creator>
          <cc:Agent>
            <dc:title>Johannes Hechler, Franziska Sponsel</dc:title>
          </cc:Agent>
        </dc:creator>
        <dc:rights>
          <cc:Agent>
            <dc:title>Johannes Hechler</dc:title>
          </cc:Agent>
        </dc:rights>
        <dc:publisher>
          <cc:Agent>
            <dc:title>RRZE</dc:title>
          </cc:Agent>
        </dc:publisher>
        <dc:contributor>
          <cc:Agent>
            <dc:title>Ute Weber</dc:title>
          </cc:Agent>
        </dc:contributor>
      </cc:Work>
    </rdf:RDF>
  </metadata>
  <g
     inkscape:label="Ebene 1"
     inkscape:groupmode="layer"
     id="layer1">
    <g
       id="g4380"
       transform="matrix(1.3467728,0,0,1.3444617,-182.66945,-315.55267)">
      <g
         id="g4545"
         inkscape:export-filename="C:\Users\johannes\Documents\Arbeit\RRZE\github3\tango\150x150\emblems\address-book-global-no-at.png"
         inkscape:export-xdpi="15.88"
         inkscape:export-ydpi="15.88">
        <path
           transform="matrix(0.74251574,0,0,0.74379211,135.63494,234.70559)"
           id="rect4258"
           d="m -33.941406,46.798828 0,0.05664 0,849.943362 840.270846,0 9.72915,0 0,-849.943362 -9.72915,0 0,-0.05664 -840.270846,0 z"
           style="color:#000000;clip-rule:nonzero;display:inline;overflow:visible;visibility:visible;opacity:1;isolation:auto;mix-blend-mode:normal;color-interpolation:sRGB;color-interpolation-filters:linearRGB;solid-color:#000000;solid-opacity:1;fill:none;fill-opacity:1;fill-rule:nonzero;stroke:none;stroke-width:40;stroke-linecap:butt;stroke-linejoin:round;stroke-miterlimit:4;stroke-dasharray:none;stroke-dashoffset:0;stroke-opacity:1;color-rendering:auto;image-rendering:auto;shape-rendering:auto;text-rendering:auto;enable-background:accumulate"
           inkscape:connector-curvature="0" />
        <g
           transform="matrix(0.66043739,0,0,0.66258218,175.89017,233.23886)"
           id="g4550"
           style="">
          <path
             d="m 160.04011,200.42101 c 4.82889,-34.14366 16.32923,-55.48861 43.77898,-53.41252 l 422.04889,31.92053 c 3.96548,0.29992 9.10934,3.6012 9.56736,8.09281 l 51.50958,505.13107 c 0,0 -26.15349,3.03833 -24.78896,43.88507 1.36453,40.84675 11.50755,36.84387 17.3116,56.0097 6.54459,21.61127 -9.40395,38.18244 -20.86646,37.98834 l -495.28466,2.61597 C 122.47309,832.86771 75.969729,794.8581 82.463821,748.94027 Z"
             id="path4258"
             sodipodi:nodetypes="ssssczscsss"
             style="display:inline;overflow:visible;visibility:visible;fill:#000000;fill-opacity:1;fill-rule:nonzero;stroke:#000000;stroke-width:19.47648811;stroke-linecap:round;stroke-linejoin:round;stroke-miterlimit:4;stroke-dashoffset:0;stroke-opacity:1;marker:none;filter:url(#filter4308)"
             inkscape:connector-curvature="0" />
          <path
             inkscape:connector-curvature="0"
             style="display:inline;overflow:visible;visibility:visible;fill:#888a85;fill-opacity:1;fill-rule:nonzero;stroke:#8f5902;stroke-width:19.47648811;stroke-linecap:round;stroke-linejoin:round;stroke-miterlimit:4;stroke-dashoffset:0;stroke-opacity:1;marker:none"
             sodipodi:nodetypes="ssssczscsss"
             id="rect1408"
             d="m 85.814714,156.27887 c 0.191768,-34.4829 16.250956,-53.3311 43.778976,-53.41252 l 547.18598,-1.61857 c 3.97679,-0.0118 9.5628,3.57791 9.56736,8.09281 l 0.59789,592.81231 c 0,0 -26.15349,3.03833 -24.78896,43.88507 1.36453,40.84675 11.50755,36.84387 17.3116,56.0097 6.54459,21.61127 -9.40395,38.18244 -20.86646,37.98834 l -495.28466,2.61597 c -40.84335,0.21573 -81.11046,-37.33765 -80.852619,-83.71171 z" />
          <path
             inkscape:connector-curvature="0"
             style="display:inline;overflow:visible;visibility:visible;fill:url(#linearGradient4852);fill-opacity:1;fill-rule:nonzero;stroke:none;stroke-width:1;marker:none"
             id="path2489"
             d="m 652.55329,684.30591 -470.71933,2.24834 c -25.10266,3.19928 -45.35848,25.1117 -45.35848,53.96032 0,28.84863 20.25582,50.76103 45.35848,53.96032 l 470.71933,2.24835 0,-1.12419 c -26.70091,-1.4057 -48.38229,-24.95931 -48.38229,-55.08448 0,-30.12516 21.68138,-53.67878 48.38229,-55.08448 l 0,-1.12418 z" />
          <path
             inkscape:connector-curvature="0"
             style="display:inline;overflow:visible;visibility:visible;fill:#c17d11;fill-opacity:1;fill-rule:nonzero;stroke:#8f5902;stroke-width:1.12342191;marker:none"
             sodipodi:nodetypes="cccscccssc"
             id="path2784"
             d="m 135.69821,107.60507 c -27.52812,0 -42.534507,18.14876 -43.846603,51.46674 l -0.7344,578.30897 c -0.67998,25.38449 2.672578,48.34897 12.603203,63.82991 11.73083,18.28749 31.54026,27.16056 48.88262,32.04817 C 84.061436,803.92835 93.133112,671.52551 178.81011,672.07891 l 498.30988,0 0.38638,-556.72615 c 0.003,-4.35464 -5.61085,-7.74769 -9.57566,-7.74769 z" />
          <rect
             y="134.49329"
             x="150.4352"
             width="32.26144"
             transform="matrix(0.99890689,-0.04674415,0.00553876,0.99998466,0,0)"
             style="display:inline;overflow:visible;visibility:visible;opacity:0.48044691;fill:url(#linearGradient4846);fill-opacity:1;fill-rule:nonzero;stroke:none;stroke-width:1;marker:none"
             id="rect2793"
             height="526.62836" />
          <path
             inkscape:connector-curvature="0"
             style="display:inline;overflow:visible;visibility:visible;fill:none;stroke:url(#linearGradient4843);stroke-width:19.47648811;stroke-linecap:round;stroke-linejoin:miter;stroke-miterlimit:20;stroke-dasharray:none;stroke-dashoffset:0;stroke-opacity:1;marker:none"
             sodipodi:nodetypes="cccscssc"
             id="path2104"
             d="m 138.72373,116.97948 c -27.15696,0 -37.68464,13.16924 -38.978941,45.94086 l 5.028631,537.61319 c 15.05196,-28.90018 39.34437,-39.26082 78.25673,-39.26082 l 483.03924,0 0.8121,-536.67261 c 0.006,-4.28311 -5.53524,-7.62062 -9.44655,-7.62062 z" />
        </g>
        <ellipse
           style="color:#000000;clip-rule:nonzero;display:inline;overflow:visible;visibility:visible;opacity:1;isolation:auto;mix-blend-mode:normal;color-interpolation:sRGB;color-interpolation-filters:linearRGB;solid-color:#000000;solid-opacity:1;fill:#555753;fill-opacity:1;fill-rule:nonzero;stroke:none;stroke-width:40;stroke-linecap:butt;stroke-linejoin:round;stroke-miterlimit:4;stroke-dasharray:none;stroke-dashoffset:0;stroke-opacity:1;filter:url(#filter4266);color-rendering:auto;image-rendering:auto;shape-rendering:auto;text-rendering:auto;enable-background:accumulate"
           id="path4256"
           cx="523.60004"
           cy="828.5462"
           rx="130.81476"
           ry="36.062443"
           transform="matrix(1,0,0,0.9098202,6,67.798685)" />
        <g
           transform="matrix(0.53926217,0,0,0.53926244,338.95583,391.13957)"
           id="g4700">
          <path
             d="m 701.21647,502.97873 c 0,191.56958 -155.30063,346.86842 -346.84392,346.86842 -191.56064,0 -346.8526813,-155.30063 -346.8526813,-346.86842 0,-191.56082 155.2920413,-346.84392 346.8526813,-346.84392 191.54329,0 346.84392,155.2831 346.84392,346.84392 l 0,0 z"
             id="path3214"
             style="fill:url(#radialGradient32376);fill-opacity:1;fill-rule:nonzero;stroke:#204a87;stroke-width:24.65056992;stroke-miterlimit:4;stroke-opacity:1"
             inkscape:connector-curvature="0" />
          <ellipse
             id="path4348"
             style="opacity:0.42159382;fill:url(#radialGradient32203);fill-opacity:1;stroke:none"
             cx="357.57831"
             cy="356.04364"
             rx="193.33899"
             ry="166.23529" />
          <g
             id="g4142"
             style="fill:#000000;fill-opacity:0.71345029;fill-rule:nonzero;stroke:none"
             transform="matrix(17.572112,0,0,17.572112,-82.948056,87.049367)">
            <path
               d="m 44.0713,20.7144 c 0,0.2627 0,0 0,0 l -0.5449,0.6172 c -0.334,-0.3936 -0.709,-0.7246 -1.0898,-1.0703 l -0.8359,0.123 -0.7637,-0.8633 0,1.0684 0.6543,0.4951 0.4355,0.4932 0.582,-0.6582 c 0.1465,0.2744 0.291,0.5488 0.4365,0.8232 l 0,0.8223 -0.6553,0.7402 -1.1992,0.8232 -0.9082,0.9063 -0.582,-0.6602 0.291,-0.7402 -0.5811,-0.6582 -0.9814,-2.0977 -0.8359,-0.9453 -0.2188,0.2461 0.3281,1.1934 0.6172,0.6992 c 0.3525,1.0176 0.7012,1.9902 1.1641,2.9629 0.7178,0 1.3945,-0.0762 2.1074,-0.166 l 0,0.5762 -0.8721,2.1392 -0.7998,0.9043 -0.6543,1.4004 c 0,0.7676 0,1.5352 0,2.3027 l 0.2188,0.9063 -0.3633,0.4102 -0.8008,0.4941 -0.8359,0.6992 0.6914,0.7813 -0.9453,0.8242 0.1816,0.5332 -1.418,1.6055 -0.9443,0 -0.7998,0.4941 -0.5098,0 0,-0.6582 -0.2168,-1.3184 c -0.2813,-0.8262 -0.5742,-1.6465 -0.8721,-2.4668 0,-0.6055 0.0361,-1.2051 0.0723,-1.8105 l 0.3643,-0.8223 -0.5098,-0.9883 0.0371,-1.3574 -0.6914,-0.7813 0.3457,-1.1309 -0.5625,-0.6382 -0.9824,0 -0.3271,-0.3701 -0.9814,0.6177 -0.3994,-0.4536 -0.9092,0.7817 c -0.6172,-0.6997 -1.2354,-1.3989 -1.8535,-2.0981 l -0.7266,-1.7285 0.6543,-0.9863 -0.3633,-0.4111 0.7988,-1.8936 c 0.6563,-0.8164 1.3418,-1.5996 2.0352,-2.3857 l 1.2363,-0.3291 1.3809,-0.1641 0.9453,0.2471 1.3447,1.3564 0.4727,-0.5342 0.6533,-0.082 1.2363,0.4111 0.9453,0 0.6543,-0.5762 0.291,-0.4111 -0.6553,-0.4111 -1.0908,-0.082 c -0.3027,-0.4199 -0.584,-0.8613 -0.9434,-1.2344 l -0.3643,0.1641 -0.1455,1.0703 -0.6543,-0.7402 -0.1445,-0.8242 -0.7266,-0.5742 -0.292,0 0.7275,0.8223 -0.291,0.7402 -0.5811,0.1641 0.3633,-0.7402 -0.6553,-0.3281 -0.5801,-0.6582 -1.0918,0.2461 -0.1445,0.3281 -0.6543,0.4121 -0.3633,0.9053 -0.9082,0.4521 -0.4004,-0.4521 -0.4355,0 0,-1.4814 0.9453,-0.4941 0.7266,0 -0.1465,-0.5752 -0.5801,-0.5762 0.9805,-0.2061 0.5449,-0.6162 0.4355,-0.7412 0.8008,0 -0.2188,-0.5752 0.5098,-0.3291 0,0.6582 1.0898,0.2461 1.0898,-0.9043 0.0732,-0.4121 0.9443,-0.6577 c -0.3418,0.0425 -0.6836,0.0737 -1.0176,0.1646 l 0,-0.7411 0.3633,-0.8228 -0.3633,0 -0.7984,0.7402 -0.2188,0.4116 0.2188,0.5767 -0.3643,0.9863 -0.5811,-0.3291 -0.5078,-0.5752 -0.8008,0.5752 -0.291,-1.3159 1.3809,-0.9048 0,-0.4941 0.873,-0.5757 1.3809,-0.3296 0.9453,0.3296 1.7441,0.3291 -0.4355,0.4932 -0.9453,0 0.9453,0.9873 0.7266,-0.8223 0.2207,-0.3618 c 0,0 2.7871,2.498 4.3799,5.2305 1.5928,2.7334 2.3408,5.9551 2.3408,6.6094 z"
               id="path4144"
               inkscape:connector-curvature="0" />
          </g>
          <g
             id="g4150"
             style="fill:#000000;fill-opacity:0.71345029;fill-rule:nonzero;stroke:none"
             transform="matrix(17.572112,0,0,17.572112,-82.948056,87.049367)">
            <path
               d="m 26.0703,9.2363 -0.0732,0.4932 0.5098,0.3291 0.8711,-0.5757 -0.4355,-0.4937 -0.582,0.3296 -0.29,-0.0825"
               id="path4152"
               inkscape:connector-curvature="0" />
          </g>
          <g
             id="g4158"
             style="fill:#000000;fill-opacity:0.71345029;fill-rule:nonzero;stroke:none"
             transform="matrix(17.572112,0,0,17.572112,-82.948056,87.049367)">
            <path
               d="m 26.8701,5.8633 -1.8906,-0.7407 -2.1797,0.2466 -2.6904,0.7402 -0.5088,0.4941 1.6719,1.1514 0,0.6582 -0.6543,0.6582 0.873,1.729 0.5801,-0.3301 0.7285,-1.1514 c 1.123,-0.3472 2.1299,-0.7407 3.1973,-1.2344 l 0.873,-2.2212"
               id="path4160"
               inkscape:connector-curvature="0" />
          </g>
          <g
             id="g4166"
             style="fill:#000000;fill-opacity:0.71345029;fill-rule:nonzero;stroke:none"
             transform="matrix(17.572112,0,0,17.572112,-82.948056,87.049367)">
            <path
               d="m 28.833,12.7749 -0.291,-0.7412 -0.5098,0.165 0.1465,0.9043 0.6543,-0.3281"
               id="path4168"
               inkscape:connector-curvature="0" />
          </g>
          <g
             id="g4174"
             style="fill:#000000;fill-opacity:0.71345029;fill-rule:nonzero;stroke:none"
             transform="matrix(17.572112,0,0,17.572112,-82.948056,87.049367)">
            <path
               d="m 29.123,12.6089 -0.1455,0.9883 0.7998,-0.165 0.5811,-0.5752 -0.5088,-0.4941 C 29.6787,11.9078 29.4824,11.483 29.2685,11.0465 l -0.4355,0 0,0.4932 0.29,0.3291 0,0.7402"
               id="path4176"
               inkscape:connector-curvature="0" />
          </g>
          <g
             id="g4182"
             style="fill:#000000;fill-opacity:0.71345029;fill-rule:nonzero;stroke:none"
             transform="matrix(17.572112,0,0,17.572112,-82.948056,87.049367)">
            <path
               d="m 18.3652,28.2422 -0.582,-1.1523 -1.0903,-0.2466 -0.5815,-1.5625 -1.4536,0.1641 -1.2354,-0.9043 -1.3091,1.1514 0,0.1816 c -0.396,-0.1143 -0.8828,-0.1299 -1.2354,-0.3467 l -0.291,-0.8223 0,-0.9053 -0.8721,0.082 c 0.0728,-0.5762 0.145,-1.1514 0.2183,-1.7275 l -0.5093,0 -0.5083,0.6582 -0.5093,0.2461 -0.7271,-0.4102 -0.0728,-0.9053 0.1455,-0.9873 1.0908,-0.8223 0.8721,0 0.145,-0.4941 1.0903,0.2461 0.7998,0.9883 0.1455,-1.6465 1.3813,-1.1514 0.5088,-1.2344 1.0176,-0.4111 0.5815,-0.8223 1.3081,-0.248 0.6548,-0.9863 c -0.6543,0 -1.3086,0 -1.9629,0 l 1.2358,-0.5762 0.8716,0 1.2363,-0.4121 0.1455,-0.4922 -0.4365,-0.4121 -0.5088,-0.165 0.1455,-0.4932 -0.3633,-0.7402 -0.8726,0.3281 0.1455,-0.6577 -1.0176,-0.5762 -0.7993,1.3979 0.0723,0.4941 -0.7993,0.3301 -0.5093,1.0693 -0.2178,-0.9873 -1.3813,-0.5762 -0.2183,-0.7402 1.8174,-1.0703 0.7998,-0.7402 0.0728,-0.9048 -0.436,-0.2471 -0.5815,-0.0825 -0.3633,0.9053 c 0,0 -0.6079,0.1191 -0.7642,0.1577 -1.9961,1.8394 -6.0293,5.8101 -6.9663,13.3062 0.0371,0.1738 0.6792,1.1816 0.6792,1.1816 l 1.5264,0.9043 1.5264,0.4121 0.6548,0.8232 1.0171,0.7402 0.5815,-0.082 0.436,0.1963 0,0.1328 -0.5811,1.563 -0.4365,0.6582 0.1455,0.3301 -0.3633,1.2324 1.3086,2.3867 1.3081,1.1523 0.582,0.8223 -0.0732,1.7285 0.4365,0.9863 -0.4365,1.8926 c 0,0 -0.0342,-0.0117 0.0215,0.1777 0.0562,0.1895 2.3291,1.4512 2.4736,1.3438 0.144,-0.1094 0.2671,-0.2051 0.2671,-0.2051 l -0.145,-0.4102 0.5811,-0.5762 0.2183,-0.5762 0.9453,-0.3301 0.7266,-1.8105 -0.2178,-0.4922 0.5078,-0.7402 1.0908,-0.248 0.582,-1.3164 -0.1455,-1.6445 0.8721,-1.2344 0.1455,-1.2344 C 20.7331,29.4607 19.5495,28.8513 18.365,28.242"
               id="path4184"
               inkscape:connector-curvature="0" />
          </g>
          <g
             id="g4190"
             style="fill:#000000;fill-opacity:0.71345029;fill-rule:nonzero;stroke:none"
             transform="matrix(17.572112,0,0,17.572112,-82.948056,87.049367)">
            <path
               d="m 16.7656,9.5649 0.7266,0.4937 0.582,0 0,-0.5757 -0.7266,-0.3291 -0.582,0.4111"
               id="path4192"
               inkscape:connector-curvature="0" />
          </g>
          <g
             id="g4198"
             style="fill:#000000;fill-opacity:0.71345029;fill-rule:nonzero;stroke:none"
             transform="matrix(17.572112,0,0,17.572112,-82.948056,87.049367)">
            <path
               d="m 14.876,8.9072 -0.3638,0.9048 0.7271,0 0.3638,-0.8228 C 15.9166,8.7675 16.2286,8.5444 16.5479,8.331 l 0.7271,0.2471 c 0.4844,0.3291 0.9688,0.6582 1.4536,0.9868 L 19.4561,8.9072 18.6558,8.5781 18.292,7.8374 16.9111,7.6728 16.8383,7.2612 16.184,7.4262 15.8936,8.002 15.5298,7.2613 l -0.145,0.3291 0.0728,0.8228 -0.5816,0.494"
               id="path4200"
               inkscape:connector-curvature="0" />
          </g>
          <g
             id="g4226"
             style="fill:#000000;fill-opacity:0.71345029;fill-rule:nonzero;stroke:none"
             transform="matrix(17.572112,0,0,17.572112,-82.948056,87.049367)">
            <path
               d="M 17.4922,6.8496 17.856,6.521 18.5831,6.3564 c 0.498,-0.2422 0.998,-0.4053 1.5264,-0.5762 l -0.29,-0.4937 -0.9385,0.1348 -0.4434,0.4419 -0.731,0.106 -0.6499,0.3052 -0.3159,0.1528 -0.1929,0.2583 0.9443,0.1641"
               id="path4228"
               inkscape:connector-curvature="0" />
          </g>
          <g
             id="g4234"
             style="fill:#000000;fill-opacity:0.71345029;fill-rule:nonzero;stroke:none"
             transform="matrix(17.572112,0,0,17.572112,-82.948056,87.049367)">
            <path
               d="m 18.7285,14.6665 0.4365,-0.6582 -0.6548,-0.4932 0.2183,1.1514"
               id="path4236"
               inkscape:connector-curvature="0" />
          </g>
          <g
             id="g3222"
             style="color:#000000;display:inline;overflow:visible;visibility:visible;fill:url(#radialGradient32671);fill-opacity:1;fill-rule:nonzero;stroke:none;stroke-width:1.01794541;marker:none"
             transform="matrix(17.572112,0,0,17.572112,-86.561321,83.436102)">
            <path
               d="m 44.0713,20.7144 c 0,0.2627 0,0 0,0 l -0.5449,0.6172 c -0.334,-0.3936 -0.709,-0.7246 -1.0898,-1.0703 l -0.8359,0.123 -0.7637,-0.8633 0,1.0684 0.6543,0.4951 0.4355,0.4932 0.582,-0.6582 c 0.1465,0.2744 0.291,0.5488 0.4365,0.8232 l 0,0.8223 -0.6553,0.7402 -1.1992,0.8232 -0.9082,0.9063 -0.582,-0.6602 0.291,-0.7402 -0.5811,-0.6582 -0.9814,-2.0977 -0.8359,-0.9453 -0.2188,0.2461 0.3281,1.1934 0.6172,0.6992 c 0.3525,1.0176 0.7012,1.9902 1.1641,2.9629 0.7178,0 1.3945,-0.0762 2.1074,-0.166 l 0,0.5762 -0.8721,2.1392 -0.7998,0.9043 -0.6543,1.4004 c 0,0.7676 0,1.5352 0,2.3027 l 0.2188,0.9063 -0.3633,0.4102 -0.8008,0.4941 -0.8359,0.6992 0.6914,0.7813 -0.9453,0.8242 0.1816,0.5332 -1.418,1.6055 -0.9443,0 -0.7998,0.4941 -0.5098,0 0,-0.6582 -0.2168,-1.3184 c -0.2813,-0.8262 -0.5742,-1.6465 -0.8721,-2.4668 0,-0.6055 0.0361,-1.2051 0.0723,-1.8105 l 0.3643,-0.8223 -0.5098,-0.9883 0.0371,-1.3574 -0.6914,-0.7813 0.3457,-1.1309 -0.5625,-0.6382 -0.9824,0 -0.3271,-0.3701 -0.9814,0.6177 -0.3994,-0.4536 -0.9092,0.7817 c -0.6172,-0.6997 -1.2354,-1.3989 -1.8535,-2.0981 l -0.7266,-1.7285 0.6543,-0.9863 -0.3633,-0.4111 0.7988,-1.8936 c 0.6563,-0.8164 1.3418,-1.5996 2.0352,-2.3857 l 1.2363,-0.3291 1.3809,-0.1641 0.9453,0.2471 1.3447,1.3564 0.4727,-0.5342 0.6533,-0.082 1.2363,0.4111 0.9453,0 0.6543,-0.5762 0.291,-0.4111 -0.6553,-0.4111 -1.0908,-0.082 c -0.3027,-0.4199 -0.584,-0.8613 -0.9434,-1.2344 l -0.3643,0.1641 -0.1455,1.0703 -0.6543,-0.7402 -0.1445,-0.8242 -0.7266,-0.5742 -0.292,0 0.7275,0.8223 -0.291,0.7402 -0.5811,0.1641 0.3633,-0.7402 -0.6553,-0.3281 -0.5801,-0.6582 -1.0918,0.2461 -0.1445,0.3281 -0.6543,0.4121 -0.3633,0.9053 -0.9082,0.4521 -0.4004,-0.4521 -0.4355,0 0,-1.4814 0.9453,-0.4941 0.7266,0 -0.1465,-0.5752 -0.5801,-0.5762 0.9805,-0.2061 0.5449,-0.6162 0.4355,-0.7412 0.8008,0 -0.2188,-0.5752 0.5098,-0.3291 0,0.6582 1.0898,0.2461 1.0898,-0.9043 0.0732,-0.4121 0.9443,-0.6577 c -0.3418,0.0425 -0.6836,0.0737 -1.0176,0.1646 l 0,-0.7411 0.3633,-0.8228 -0.3633,0 -0.7984,0.7402 -0.2188,0.4116 0.2188,0.5767 -0.3643,0.9863 -0.5811,-0.3291 -0.5078,-0.5752 -0.8008,0.5752 -0.291,-1.3159 1.3809,-0.9048 0,-0.4941 0.873,-0.5757 1.3809,-0.3296 0.9453,0.3296 1.7441,0.3291 -0.4355,0.4932 -0.9453,0 0.9453,0.9873 0.7266,-0.8223 0.2207,-0.3618 c 0,0 2.7871,2.498 4.3799,5.2305 1.5928,2.7334 2.3408,5.9551 2.3408,6.6094 z"
               id="path3224"
               style="color:#000000;display:inline;overflow:visible;visibility:visible;fill:url(#radialGradient32669);marker:none"
               inkscape:connector-curvature="0" />
          </g>
          <g
             id="g3230"
             style="color:#000000;display:inline;overflow:visible;visibility:visible;fill:url(#radialGradient32663);fill-opacity:1;fill-rule:nonzero;stroke:none;stroke-width:1.01794541;marker:none"
             transform="matrix(17.572112,0,0,17.572112,-86.561321,83.436102)">
            <path
               d="m 26.0703,9.2363 -0.0732,0.4932 0.5098,0.3291 0.8711,-0.5757 -0.4355,-0.4937 -0.582,0.3296 -0.29,-0.0825"
               id="path3232"
               style="color:#000000;display:inline;overflow:visible;visibility:visible;fill:url(#radialGradient32661);marker:none"
               inkscape:connector-curvature="0" />
          </g>
          <g
             id="g3238"
             style="color:#000000;display:inline;overflow:visible;visibility:visible;fill:url(#radialGradient32655);fill-opacity:1;fill-rule:nonzero;stroke:none;stroke-width:1.01794541;marker:none"
             transform="matrix(17.572112,0,0,17.572112,-86.561321,83.436102)">
            <path
               d="m 26.8701,5.8633 -1.8906,-0.7407 -2.1797,0.2466 -2.6904,0.7402 -0.5088,0.4941 1.6719,1.1514 0,0.6582 -0.6543,0.6582 0.873,1.729 0.5801,-0.3301 0.7285,-1.1514 c 1.123,-0.3472 2.1299,-0.7407 3.1973,-1.2344 l 0.873,-2.2212"
               id="path3240"
               style="color:#000000;display:inline;overflow:visible;visibility:visible;fill:url(#radialGradient32653);marker:none"
               inkscape:connector-curvature="0" />
          </g>
          <g
             id="g3246"
             style="color:#000000;display:inline;overflow:visible;visibility:visible;fill:url(#radialGradient32647);fill-opacity:1;fill-rule:nonzero;stroke:none;stroke-width:1.01794541;marker:none"
             transform="matrix(17.572112,0,0,17.572112,-86.561321,83.436102)">
            <path
               d="m 28.833,12.7749 -0.291,-0.7412 -0.5098,0.165 0.1465,0.9043 0.6543,-0.3281"
               id="path3248"
               style="color:#000000;display:inline;overflow:visible;visibility:visible;fill:url(#radialGradient32645);marker:none"
               inkscape:connector-curvature="0" />
          </g>
          <g
             id="g3254"
             style="color:#000000;display:inline;overflow:visible;visibility:visible;fill:url(#radialGradient32639);fill-opacity:1;fill-rule:nonzero;stroke:none;stroke-width:1.01794541;marker:none"
             transform="matrix(17.572112,0,0,17.572112,-86.561321,83.436102)">
            <path
               d="m 29.123,12.6089 -0.1455,0.9883 0.7998,-0.165 0.5811,-0.5752 -0.5088,-0.4941 C 29.6787,11.9078 29.4824,11.483 29.2685,11.0465 l -0.4355,0 0,0.4932 0.29,0.3291 0,0.7402"
               id="path3256"
               style="color:#000000;display:inline;overflow:visible;visibility:visible;fill:url(#radialGradient32637);marker:none"
               inkscape:connector-curvature="0" />
          </g>
          <g
             id="g3262"
             style="color:#000000;display:inline;overflow:visible;visibility:visible;fill:url(#radialGradient32631);fill-opacity:1;fill-rule:nonzero;stroke:none;stroke-width:1.01794541;marker:none"
             transform="matrix(17.572112,0,0,17.572112,-86.561321,83.436102)">
            <path
               d="m 18.3652,28.2422 -0.582,-1.1523 -1.0903,-0.2466 -0.5815,-1.5625 -1.4536,0.1641 -1.2354,-0.9043 -1.3091,1.1514 0,0.1816 c -0.396,-0.1143 -0.8828,-0.1299 -1.2354,-0.3467 l -0.291,-0.8223 0,-0.9053 -0.8721,0.082 c 0.0728,-0.5762 0.145,-1.1514 0.2183,-1.7275 l -0.5093,0 -0.5083,0.6582 -0.5093,0.2461 -0.7271,-0.4102 -0.0728,-0.9053 0.1455,-0.9873 1.0908,-0.8223 0.8721,0 0.145,-0.4941 1.0903,0.2461 0.7998,0.9883 0.1455,-1.6465 1.3813,-1.1514 0.5088,-1.2344 1.0176,-0.4111 0.5815,-0.8223 1.3081,-0.248 0.6548,-0.9863 c -0.6543,0 -1.3086,0 -1.9629,0 l 1.2358,-0.5762 0.8716,0 1.2363,-0.4121 0.1455,-0.4922 -0.4365,-0.4121 -0.5088,-0.165 0.1455,-0.4932 -0.3633,-0.7402 -0.8726,0.3281 0.1455,-0.6577 -1.0176,-0.5762 -0.7993,1.3979 0.0723,0.4941 -0.7993,0.3301 -0.5093,1.0693 -0.2178,-0.9873 -1.3813,-0.5762 -0.2183,-0.7402 1.8174,-1.0703 0.7998,-0.7402 0.0728,-0.9048 -0.436,-0.2471 -0.5815,-0.0825 -0.3633,0.9053 c 0,0 -0.6079,0.1191 -0.7642,0.1577 -1.9961,1.8394 -6.0293,5.8101 -6.9663,13.3062 0.0371,0.1738 0.6792,1.1816 0.6792,1.1816 l 1.5264,0.9043 1.5264,0.4121 0.6548,0.8232 1.0171,0.7402 0.5815,-0.082 0.436,0.1963 0,0.1328 -0.5811,1.563 -0.4365,0.6582 0.1455,0.3301 -0.3633,1.2324 1.3086,2.3867 1.3081,1.1523 0.582,0.8223 -0.0732,1.7285 0.4365,0.9863 -0.4365,1.8926 c 0,0 -0.0342,-0.0117 0.0215,0.1777 0.0562,0.1895 2.3291,1.4512 2.4736,1.3438 0.144,-0.1094 0.2671,-0.2051 0.2671,-0.2051 l -0.145,-0.4102 0.5811,-0.5762 0.2183,-0.5762 0.9453,-0.3301 0.7266,-1.8105 -0.2178,-0.4922 0.5078,-0.7402 1.0908,-0.248 0.582,-1.3164 -0.1455,-1.6445 0.8721,-1.2344 0.1455,-1.2344 C 20.7331,29.4607 19.5495,28.8513 18.365,28.242"
               id="path3264"
               style="color:#000000;display:inline;overflow:visible;visibility:visible;fill:url(#radialGradient32629);marker:none"
               inkscape:connector-curvature="0" />
          </g>
          <g
             id="g3270"
             style="color:#000000;display:inline;overflow:visible;visibility:visible;fill:url(#radialGradient32623);fill-opacity:1;fill-rule:nonzero;stroke:none;stroke-width:1.01794541;marker:none"
             transform="matrix(17.572112,0,0,17.572112,-86.561321,83.436102)">
            <path
               d="m 16.7656,9.5649 0.7266,0.4937 0.582,0 0,-0.5757 -0.7266,-0.3291 -0.582,0.4111"
               id="path3272"
               style="color:#000000;display:inline;overflow:visible;visibility:visible;fill:url(#radialGradient32621);marker:none"
               inkscape:connector-curvature="0" />
          </g>
          <g
             id="g3278"
             style="color:#000000;display:inline;overflow:visible;visibility:visible;fill:url(#radialGradient32615);fill-opacity:1;fill-rule:nonzero;stroke:none;stroke-width:1.01794541;marker:none"
             transform="matrix(17.572112,0,0,17.572112,-86.561321,83.436102)">
            <path
               d="m 14.876,8.9072 -0.3638,0.9048 0.7271,0 0.3638,-0.8228 C 15.9166,8.7675 16.2286,8.5444 16.5479,8.331 l 0.7271,0.2471 c 0.4844,0.3291 0.9688,0.6582 1.4536,0.9868 L 19.4561,8.9072 18.6558,8.5781 18.292,7.8374 16.9111,7.6728 16.8383,7.2612 16.184,7.4262 15.8936,8.002 15.5298,7.2613 l -0.145,0.3291 0.0728,0.8228 -0.5816,0.494"
               id="path3280"
               style="color:#000000;display:inline;overflow:visible;visibility:visible;fill:url(#radialGradient32613);marker:none"
               inkscape:connector-curvature="0" />
          </g>
          <g
             id="g3306"
             style="color:#000000;display:inline;overflow:visible;visibility:visible;fill:url(#radialGradient32579);fill-opacity:1;fill-rule:nonzero;stroke:none;stroke-width:1.01794541;marker:none"
             transform="matrix(17.572112,0,0,17.572112,-86.561321,83.436102)">
            <path
               d="M 17.4922,6.8496 17.856,6.521 18.5831,6.3564 c 0.498,-0.2422 0.998,-0.4053 1.5264,-0.5762 l -0.29,-0.4937 -0.9385,0.1348 -0.4434,0.4419 -0.731,0.106 -0.6499,0.3052 -0.3159,0.1528 -0.1929,0.2583 0.9443,0.1641"
               id="path3308"
               style="color:#000000;display:inline;overflow:visible;visibility:visible;fill:url(#radialGradient32577);marker:none"
               inkscape:connector-curvature="0" />
          </g>
          <g
             id="g3314"
             style="color:#000000;display:inline;overflow:visible;visibility:visible;fill:url(#radialGradient32571);fill-opacity:1;fill-rule:nonzero;stroke:none;stroke-width:1.01794541;marker:none"
             transform="matrix(17.572112,0,0,17.572112,-86.561321,83.436102)">
            <path
               d="m 18.7285,14.6665 0.4365,-0.6582 -0.6548,-0.4932 0.2183,1.1514"
               id="path3316"
               style="color:#000000;display:inline;overflow:visible;visibility:visible;fill:url(#radialGradient32569);marker:none"
               inkscape:connector-curvature="0" />
          </g>
          <path
             d="m 683.60162,502.97944 c 0,181.8406 -147.41369,329.25251 -329.22925,329.25251 -181.83219,0 -329.237656,-147.4137 -329.237656,-329.25251 0,-181.83236 147.405466,-329.22925 329.237656,-329.22925 181.81556,0 329.22925,147.39689 329.22925,329.22925 l 0,0 z"
             id="path4122"
             style="fill:none;stroke:url(#radialGradient32290);stroke-width:24.65056992;stroke-miterlimit:4;stroke-opacity:1"
             inkscape:connector-curvature="0" />
        </g>
      </g>
    </g>
  </g>
</svg>
