<?xml version="1.0" encoding="UTF-8" standalone="no"?>
<!-- Created with Inkscape (http://www.inkscape.org/) -->

<svg
   xmlns:dc="http://purl.org/dc/elements/1.1/"
   xmlns:cc="http://creativecommons.org/ns#"
   xmlns:rdf="http://www.w3.org/1999/02/22-rdf-syntax-ns#"
   xmlns:svg="http://www.w3.org/2000/svg"
   xmlns="http://www.w3.org/2000/svg"
   xmlns:xlink="http://www.w3.org/1999/xlink"
   xmlns:sodipodi="http://sodipodi.sourceforge.net/DTD/sodipodi-0.dtd"
   xmlns:inkscape="http://www.inkscape.org/namespaces/inkscape"
   width="210mm"
   height="297mm"
   viewBox="0 0 744.09448819 1052.3622047"
   id="svg2"
   version="1.1"
   inkscape:version="0.91 r13725"
   sodipodi:docname="address-book-fau.svg"
   inkscape:export-filename="C:\Users\johannes\Documents\Arbeit\RRZE\github3\tango\22x22\emblems\address-book-intern.png"
   inkscape:export-xdpi="2.3299999"
   inkscape:export-ydpi="2.3299999">
  <title
     id="title4596">address book fau</title>
  <defs
     id="defs4">
    <linearGradient
       id="linearGradient2224">
      <stop
         id="stop2226"
         offset="0"
         style="stop-color:#7c7c7c;stop-opacity:1;" />
      <stop
         id="stop2228"
         offset="1"
         style="stop-color:#b8b8b8;stop-opacity:1;" />
    </linearGradient>
    <linearGradient
       id="linearGradient15218">
      <stop
         id="stop15220"
         offset="0"
         style="stop-color:#eeeeef;stop-opacity:1;" />
      <stop
         id="stop2736"
         offset="0.59928656"
         style="stop-color:#d3d7cf;stop-opacity:1;" />
      <stop
         id="stop2738"
         offset="0.82758623"
         style="stop-color:#ffffff;stop-opacity:1;" />
      <stop
         id="stop15222"
         offset="1"
         style="stop-color:#d3d7cf;stop-opacity:1;" />
    </linearGradient>
    <pattern
       y="0"
       x="0"
       height="6"
       width="6"
       patternUnits="userSpaceOnUse"
       id="EMFhbasepattern" />
    <pattern
       y="0"
       x="0"
       height="6"
       width="6"
       patternUnits="userSpaceOnUse"
       id="EMFhbasepattern-5" />
    <linearGradient
       id="linearGradient5048">
      <stop
         id="stop5050"
         offset="0"
         style="stop-color:black;stop-opacity:0;" />
      <stop
         id="stop5056"
         offset="0.5"
         style="stop-color:black;stop-opacity:1;" />
      <stop
         id="stop5052"
         offset="1"
         style="stop-color:black;stop-opacity:0;" />
    </linearGradient>
    <linearGradient
       inkscape:collect="always"
       xlink:href="#linearGradient2803"
       id="linearGradient4852"
       gradientUnits="userSpaceOnUse"
       gradientTransform="matrix(36.492211,0,0,7.9491095,21.567659,41.278856)"
       x1="10.496115"
       y1="93.338043"
       x2="10.219901"
       y2="84.287079" />
    <linearGradient
       id="linearGradient2803">
      <stop
         id="stop2805"
         offset="0"
         style="stop-color:#ffffff;stop-opacity:1;" />
      <stop
         id="stop2807"
         offset="1"
         style="stop-color:#babdb6;stop-opacity:1;" />
    </linearGradient>
    <linearGradient
       inkscape:collect="always"
       xlink:href="#linearGradient2795"
       id="linearGradient4846"
       gradientUnits="userSpaceOnUse"
       gradientTransform="matrix(4.0972034,0,0,66.881873,5.2587413,66.541201)"
       x1="35.433037"
       y1="4.9530048"
       x2="41.219128"
       y2="4.9530048" />
    <linearGradient
       id="linearGradient2795">
      <stop
         id="stop2797"
         offset="0.0000000"
         style="stop-color:#000000;stop-opacity:0.068627454;" />
      <stop
         id="stop2799"
         offset="1.0000000"
         style="stop-color:#ffffff;stop-opacity:1.0000000;" />
    </linearGradient>
    <linearGradient
       inkscape:collect="always"
       xlink:href="#linearGradient2116"
       id="linearGradient4843"
       gradientUnits="userSpaceOnUse"
       gradientTransform="matrix(16.537518,0,0,17.21879,5.4402124,42.5063)"
       x1="73.361984"
       y1="26.652197"
       x2="-2.7582901"
       y2="21.270376" />
    <linearGradient
       id="linearGradient2116"
       inkscape:collect="always">
      <stop
         id="stop2118"
         offset="0"
         style="stop-color:#ffffff;stop-opacity:1;" />
      <stop
         id="stop2120"
         offset="1"
         style="stop-color:#ffffff;stop-opacity:0;" />
    </linearGradient>
    <filter
       inkscape:collect="always"
       style="color-interpolation-filters:sRGB"
       id="filter4308"
       x="-0.1068726"
       width="1.2137452"
       y="-0.087135352"
       height="1.1742707">
      <feGaussianBlur
         inkscape:collect="always"
         stdDeviation="26.91775"
         id="feGaussianBlur4310" />
    </filter>
    <linearGradient
       id="linearGradient3962">
      <stop
         id="stop3964"
         offset="0"
         style="stop-color:#d3d7cf;stop-opacity:1;" />
      <stop
         id="stop4134"
         offset="0.15517241"
         style="stop-color:#729fcf;stop-opacity:1;" />
      <stop
         id="stop4346"
         offset="0.75"
         style="stop-color:#3465a4;stop-opacity:1;" />
      <stop
         id="stop3966"
         offset="1"
         style="stop-color:#204a87;stop-opacity:1;" />
    </linearGradient>
    <linearGradient
       id="linearGradient4750">
      <stop
         id="stop4752"
         offset="0"
         style="stop-color:#ffffff;stop-opacity:1;" />
      <stop
         id="stop4758"
         offset="0.37931034"
         style="stop-color:#fefefe;stop-opacity:1.0000000;" />
      <stop
         id="stop4754"
         offset="1"
         style="stop-color:#000000;stop-opacity:1;" />
    </linearGradient>
    <linearGradient
       id="linearGradient10591">
      <stop
         id="stop10593"
         offset="0"
         style="stop-color:#babdb6;stop-opacity:1;" />
      <stop
         id="stop10599"
         offset="0.5"
         style="stop-color:#eeeeec;stop-opacity:1;" />
      <stop
         id="stop10595"
         offset="1"
         style="stop-color:#babdb6;stop-opacity:1;" />
    </linearGradient>
    <linearGradient
       id="linearGradient11335">
      <stop
         id="stop11337"
         offset="0"
         style="stop-color:#555753;stop-opacity:1;" />
      <stop
         id="stop11339"
         offset="1"
         style="stop-color:#888a85;stop-opacity:1;" />
    </linearGradient>
    <linearGradient
       id="linearGradient2092">
      <stop
         id="stop2094"
         offset="0"
         style="stop-color:#fce94f;stop-opacity:1;" />
      <stop
         id="stop27163"
         offset="0.20999999"
         style="stop-color:#ffec41;stop-opacity:1.0000000;" />
      <stop
         id="stop2293"
         offset="0.83999997"
         style="stop-color:#edd400;stop-opacity:1;" />
      <stop
         id="stop2100"
         offset="1"
         style="stop-color:#c4a00f;stop-opacity:0.94117647;" />
    </linearGradient>
    <linearGradient
       id="linearGradient11327">
      <stop
         id="stop11329"
         offset="0"
         style="stop-color:#8f5902;stop-opacity:1;" />
      <stop
         id="stop11331"
         offset="1"
         style="stop-color:#c17d11;stop-opacity:1;" />
    </linearGradient>
    <filter
       inkscape:collect="always"
       style="color-interpolation-filters:sRGB"
       id="filter4248"
       x="-0.14712162"
       width="1.2942432"
       y="-0.5184286"
       height="2.0368572">
      <feGaussianBlur
         inkscape:collect="always"
         stdDeviation="12.830452"
         id="feGaussianBlur4250" />
    </filter>
    <linearGradient
       inkscape:collect="always"
       xlink:href="#linearGradient2116"
       id="linearGradient4171"
       gradientUnits="userSpaceOnUse"
       x1="58.928574"
       y1="468.25504"
       x2="212.67856"
       y2="468.25504"
       gradientTransform="matrix(1.2254082,0,0,1.2254082,127.24485,14.602994)" />
    <linearGradient
       inkscape:collect="always"
       xlink:href="#linearGradient2116"
       id="linearGradient4173"
       gradientUnits="userSpaceOnUse"
       x1="58.928574"
       y1="490.96933"
       x2="110.17856"
       y2="490.96933"
       gradientTransform="matrix(1.2254082,0,0,1.2254082,127.24485,14.602994)" />
    <linearGradient
       inkscape:collect="always"
       xlink:href="#linearGradient2116"
       id="linearGradient4175"
       gradientUnits="userSpaceOnUse"
       x1="58.928574"
       y1="509.50504"
       x2="110.17856"
       y2="509.50504"
       gradientTransform="matrix(1.2254082,0,0,1.2254082,127.24485,14.602994)" />
    <linearGradient
       inkscape:collect="always"
       xlink:href="#linearGradient2116"
       id="linearGradient4177"
       gradientUnits="userSpaceOnUse"
       x1="58.928574"
       y1="527.68359"
       x2="110.17856"
       y2="527.68359"
       gradientTransform="matrix(1.2254082,0,0,1.2254082,127.24485,14.602994)" />
    <linearGradient
       inkscape:collect="always"
       xlink:href="#linearGradient2116"
       id="linearGradient4179"
       gradientUnits="userSpaceOnUse"
       x1="58.928574"
       y1="550.93359"
       x2="248.21428"
       y2="550.93359"
       gradientTransform="matrix(1.2254082,0,0,1.2254082,127.24485,14.602994)" />
    <linearGradient
       inkscape:collect="always"
       xlink:href="#linearGradient2116"
       id="linearGradient4181"
       gradientUnits="userSpaceOnUse"
       x1="58.928574"
       y1="573.11218"
       x2="110.17856"
       y2="573.11218"
       gradientTransform="matrix(1.2254082,0,0,1.2254082,127.24485,14.602994)" />
    <linearGradient
       inkscape:collect="always"
       xlink:href="#linearGradient2116"
       id="linearGradient4183"
       gradientUnits="userSpaceOnUse"
       x1="58.928574"
       y1="591.64789"
       x2="110.17856"
       y2="591.64789"
       gradientTransform="matrix(1.2254082,0,0,1.2254082,127.24485,14.602994)" />
    <linearGradient
       inkscape:collect="always"
       xlink:href="#linearGradient2116"
       id="linearGradient4185"
       gradientUnits="userSpaceOnUse"
       x1="58.928574"
       y1="612.54077"
       x2="110.17856"
       y2="612.54077"
       gradientTransform="matrix(1.2254082,0,0,1.2254082,127.24485,14.602994)" />
    <linearGradient
       inkscape:collect="always"
       xlink:href="#linearGradient2116"
       id="linearGradient4187"
       gradientUnits="userSpaceOnUse"
       x1="58.928574"
       y1="632.89789"
       x2="110.17856"
       y2="632.89789"
       gradientTransform="matrix(1.2254082,0,0,1.2254082,127.24485,14.602994)" />
    <linearGradient
       inkscape:collect="always"
       xlink:href="#linearGradient2116"
       id="linearGradient4189"
       gradientUnits="userSpaceOnUse"
       x1="228.75002"
       y1="468.25504"
       x2="295.53571"
       y2="468.25504"
       gradientTransform="matrix(1.2254082,0,0,1.2254082,127.24485,14.602994)" />
    <linearGradient
       inkscape:collect="always"
       xlink:href="#linearGradient2116"
       id="linearGradient4191"
       gradientUnits="userSpaceOnUse"
       x1="221.07144"
       y1="489.14789"
       x2="303.57141"
       y2="489.14789"
       gradientTransform="matrix(1.2254082,0,0,1.2254082,127.24485,14.602994)" />
    <linearGradient
       inkscape:collect="always"
       xlink:href="#linearGradient2116"
       id="linearGradient4193"
       gradientUnits="userSpaceOnUse"
       x1="213.57144"
       y1="509.68362"
       x2="260.53571"
       y2="509.68362"
       gradientTransform="matrix(1.2254082,0,0,1.2254082,127.24485,14.602994)" />
    <linearGradient
       inkscape:collect="always"
       xlink:href="#linearGradient2116"
       id="linearGradient4195"
       gradientUnits="userSpaceOnUse"
       x1="206.60715"
       y1="527.89789"
       x2="255.17856"
       y2="527.89789"
       gradientTransform="matrix(1.2254082,0,0,1.2254082,127.24485,14.602994)" />
    <linearGradient
       inkscape:collect="always"
       xlink:href="#linearGradient2116"
       id="linearGradient4197"
       gradientUnits="userSpaceOnUse"
       x1="191.25002"
       y1="573.43359"
       x2="241.25"
       y2="573.43359"
       gradientTransform="matrix(1.2254082,0,0,1.2254082,127.24485,14.602994)" />
    <linearGradient
       inkscape:collect="always"
       xlink:href="#linearGradient2116"
       id="linearGradient4199"
       gradientUnits="userSpaceOnUse"
       x1="184.28574"
       y1="592.00507"
       x2="342.32144"
       y2="592.00507"
       gradientTransform="matrix(1.2254082,0,0,1.2254082,127.24485,14.602994)" />
    <linearGradient
       inkscape:collect="always"
       xlink:href="#linearGradient2116"
       id="linearGradient4201"
       gradientUnits="userSpaceOnUse"
       x1="176.60716"
       y1="612.71936"
       x2="229.82143"
       y2="612.71936"
       gradientTransform="matrix(1.2254082,0,0,1.2254082,127.24485,14.602994)" />
    <linearGradient
       inkscape:collect="always"
       xlink:href="#linearGradient2116"
       id="linearGradient4203"
       gradientUnits="userSpaceOnUse"
       x1="169.28574"
       y1="632.89789"
       x2="222.40823"
       y2="632.89789"
       gradientTransform="matrix(1.2254082,0,0,1.2254082,127.24485,14.602994)" />
    <linearGradient
       inkscape:collect="always"
       xlink:href="#linearGradient2116"
       id="linearGradient4205"
       gradientUnits="userSpaceOnUse"
       x1="265"
       y1="509.68362"
       x2="311.25"
       y2="509.68362"
       gradientTransform="matrix(1.2254082,0,0,1.2254082,127.24485,14.602994)" />
    <linearGradient
       inkscape:collect="always"
       xlink:href="#linearGradient2116"
       id="linearGradient4207"
       gradientUnits="userSpaceOnUse"
       x1="270.26788"
       y1="527.80859"
       x2="318.125"
       y2="527.80859"
       gradientTransform="matrix(1.2254082,0,0,1.2254082,127.24485,14.602994)" />
    <linearGradient
       inkscape:collect="always"
       xlink:href="#linearGradient2116"
       id="linearGradient4209"
       gradientUnits="userSpaceOnUse"
       x1="276.96429"
       y1="550.57648"
       x2="326.78571"
       y2="550.57648"
       gradientTransform="matrix(1.2254082,0,0,1.2254082,127.24485,14.602994)" />
    <linearGradient
       inkscape:collect="always"
       xlink:href="#linearGradient2116"
       id="linearGradient4211"
       gradientUnits="userSpaceOnUse"
       x1="283.75"
       y1="573.25507"
       x2="335.35712"
       y2="573.25507"
       gradientTransform="matrix(1.2254082,0,0,1.2254082,127.24485,14.602994)" />
    <linearGradient
       inkscape:collect="always"
       xlink:href="#linearGradient2116"
       id="linearGradient4213"
       gradientUnits="userSpaceOnUse"
       x1="296.69644"
       y1="612.54077"
       x2="350.08929"
       y2="612.54077"
       gradientTransform="matrix(1.2254082,0,0,1.2254082,127.24485,14.602994)" />
    <linearGradient
       inkscape:collect="always"
       xlink:href="#linearGradient2116"
       id="linearGradient4215"
       gradientUnits="userSpaceOnUse"
       x1="303.57144"
       y1="633.07648"
       x2="357.94641"
       y2="633.07648"
       gradientTransform="matrix(1.2254082,0,0,1.2254082,127.24485,14.602994)" />
    <linearGradient
       inkscape:collect="always"
       xlink:href="#linearGradient2116"
       id="linearGradient4217"
       gradientUnits="userSpaceOnUse"
       x1="362.4794"
       y1="468.25504"
       x2="410.75513"
       y2="468.25504"
       gradientTransform="matrix(1.2254082,0,0,1.2254082,127.24485,14.602994)" />
    <linearGradient
       inkscape:collect="always"
       xlink:href="#linearGradient2116"
       id="linearGradient4219"
       gradientUnits="userSpaceOnUse"
       x1="362.4794"
       y1="488.79074"
       x2="410.75513"
       y2="488.79074"
       gradientTransform="matrix(1.2254082,0,0,1.2254082,127.24485,14.602994)" />
    <linearGradient
       inkscape:collect="always"
       xlink:href="#linearGradient2116"
       id="linearGradient4221"
       gradientUnits="userSpaceOnUse"
       x1="362.4794"
       y1="509.50504"
       x2="410.75513"
       y2="509.50504"
       gradientTransform="matrix(1.2254082,0,0,1.2254082,127.24485,14.602994)" />
    <linearGradient
       inkscape:collect="always"
       xlink:href="#linearGradient2116"
       id="linearGradient4223"
       gradientUnits="userSpaceOnUse"
       x1="362.4794"
       y1="530.21936"
       x2="410.75513"
       y2="530.21936"
       gradientTransform="matrix(1.2254082,0,0,1.2254082,127.24485,14.602994)" />
    <linearGradient
       inkscape:collect="always"
       xlink:href="#linearGradient2116"
       id="linearGradient4225"
       gradientUnits="userSpaceOnUse"
       x1="362.4794"
       y1="550.75507"
       x2="410.75513"
       y2="550.75507"
       gradientTransform="matrix(1.2254082,0,0,1.2254082,127.24485,14.602994)" />
    <linearGradient
       inkscape:collect="always"
       xlink:href="#linearGradient2116"
       id="linearGradient4227"
       gradientUnits="userSpaceOnUse"
       x1="362.4794"
       y1="571.29077"
       x2="410.75513"
       y2="571.29077"
       gradientTransform="matrix(1.2254082,0,0,1.2254082,127.24485,14.602994)" />
    <linearGradient
       inkscape:collect="always"
       xlink:href="#linearGradient2116"
       id="linearGradient4229"
       gradientUnits="userSpaceOnUse"
       x1="362.47934"
       y1="591.64789"
       x2="412.89798"
       y2="591.64789"
       gradientTransform="matrix(1.2254082,0,0,1.2254082,127.24485,14.602994)" />
    <linearGradient
       inkscape:collect="always"
       xlink:href="#linearGradient2116"
       id="linearGradient4231"
       gradientUnits="userSpaceOnUse"
       x1="366.31235"
       y1="609.90942"
       x2="433.34024"
       y2="609.90942"
       gradientTransform="matrix(1.2254082,0,0,1.2254082,127.24485,14.602994)" />
    <linearGradient
       inkscape:collect="always"
       xlink:href="#linearGradient2116"
       id="linearGradient4233"
       gradientUnits="userSpaceOnUse"
       x1="378.63376"
       y1="633.07648"
       x2="513.96942"
       y2="633.07648"
       gradientTransform="matrix(1.2254082,0,0,1.2254082,127.24485,14.602994)" />
    <linearGradient
       inkscape:collect="always"
       xlink:href="#linearGradient2116"
       id="linearGradient4235"
       gradientUnits="userSpaceOnUse"
       x1="481.49728"
       y1="468.25504"
       x2="530.04083"
       y2="468.25504"
       gradientTransform="matrix(1.2254082,0,0,1.2254082,127.24485,14.602994)" />
    <linearGradient
       inkscape:collect="always"
       xlink:href="#linearGradient2116"
       id="linearGradient4237"
       gradientUnits="userSpaceOnUse"
       x1="481.58655"
       y1="488.96933"
       x2="530.04083"
       y2="488.96933"
       gradientTransform="matrix(1.2254082,0,0,1.2254082,127.24485,14.602994)" />
    <linearGradient
       inkscape:collect="always"
       xlink:href="#linearGradient2116"
       id="linearGradient4239"
       gradientUnits="userSpaceOnUse"
       x1="481.49728"
       y1="509.68362"
       x2="530.04083"
       y2="509.68362"
       gradientTransform="matrix(1.2254082,0,0,1.2254082,127.24485,14.602994)" />
    <linearGradient
       inkscape:collect="always"
       xlink:href="#linearGradient2116"
       id="linearGradient4241"
       gradientUnits="userSpaceOnUse"
       x1="481.40799"
       y1="530.21936"
       x2="530.04083"
       y2="530.21936"
       gradientTransform="matrix(1.2254082,0,0,1.2254082,127.24485,14.602994)" />
    <linearGradient
       inkscape:collect="always"
       xlink:href="#linearGradient2116"
       id="linearGradient4243"
       gradientUnits="userSpaceOnUse"
       x1="481.40799"
       y1="550.93359"
       x2="530.04083"
       y2="550.93359"
       gradientTransform="matrix(1.2254082,0,0,1.2254082,127.24485,14.602994)" />
    <linearGradient
       inkscape:collect="always"
       xlink:href="#linearGradient2116"
       id="linearGradient4245"
       gradientUnits="userSpaceOnUse"
       x1="481.40799"
       y1="571.29077"
       x2="530.04083"
       y2="571.29077"
       gradientTransform="matrix(1.2254082,0,0,1.2254082,127.24485,14.602994)" />
    <linearGradient
       inkscape:collect="always"
       xlink:href="#linearGradient2116"
       id="linearGradient4247"
       gradientUnits="userSpaceOnUse"
       x1="479.89648"
       y1="591.64789"
       x2="530.04083"
       y2="591.64789"
       gradientTransform="matrix(1.2254082,0,0,1.2254082,127.24485,14.602994)" />
    <linearGradient
       inkscape:collect="always"
       xlink:href="#linearGradient2116"
       id="linearGradient4249"
       gradientUnits="userSpaceOnUse"
       x1="459.7897"
       y1="609.83545"
       x2="526.65436"
       y2="609.83545"
       gradientTransform="matrix(1.2254082,0,0,1.2254082,127.24485,14.602994)" />
    <filter
       inkscape:collect="always"
       style="color-interpolation-filters:sRGB"
       id="filter4684"
       x="-0.037074046"
       width="1.0741481"
       y="-0.084841802"
       height="1.1696836">
      <feGaussianBlur
         inkscape:collect="always"
         stdDeviation="9.0903218"
         id="feGaussianBlur4686" />
    </filter>
  </defs>
  <sodipodi:namedview
     id="base"
     pagecolor="#ffffff"
     bordercolor="#666666"
     borderopacity="1.0"
     inkscape:pageopacity="0.0"
     inkscape:pageshadow="2"
     inkscape:zoom="0.25"
     inkscape:cx="14.054034"
     inkscape:cy="1143.1368"
     inkscape:document-units="px"
     inkscape:current-layer="layer1"
     showgrid="false"
     showguides="true"
     inkscape:guide-bbox="true"
     inkscape:window-width="1366"
     inkscape:window-height="721"
     inkscape:window-x="-4"
     inkscape:window-y="-4"
     inkscape:window-maximized="1">
    <sodipodi:guide
       position="86.974135,1005.5059"
       orientation="0,1"
       id="guide3338" />
    <sodipodi:guide
       position="89.095455,155.5635"
       orientation="0,1"
       id="guide3340" />
    <sodipodi:guide
       position="-33.941126,750.94742"
       orientation="1,0"
       id="guide3344" />
    <sodipodi:guide
       position="825.90073,531.74431"
       orientation="1,0"
       id="guide3346" />
    <inkscape:grid
       type="xygrid"
       id="grid3440" />
  </sodipodi:namedview>
  <metadata
     id="metadata7">
    <rdf:RDF>
      <cc:Work
         rdf:about="">
        <dc:format>image/svg+xml</dc:format>
        <dc:type
           rdf:resource="http://purl.org/dc/dcmitype/StillImage" />
        <dc:title>address book fau</dc:title>
        <dc:date>June 2015</dc:date>
        <dc:creator>
          <cc:Agent>
            <dc:title>Johannes Hechler, Franziska Sponsel</dc:title>
          </cc:Agent>
        </dc:creator>
        <dc:rights>
          <cc:Agent>
            <dc:title>Johannes Hechler</dc:title>
          </cc:Agent>
        </dc:rights>
        <dc:publisher>
          <cc:Agent>
            <dc:title>RRZE</dc:title>
          </cc:Agent>
        </dc:publisher>
        <dc:contributor>
          <cc:Agent>
            <dc:title>Ute Weber</dc:title>
          </cc:Agent>
        </dc:contributor>
      </cc:Work>
    </rdf:RDF>
  </metadata>
  <g
     inkscape:label="Ebene 1"
     inkscape:groupmode="layer"
     id="layer1">
    <rect
       style="color:#000000;clip-rule:nonzero;display:inline;overflow:visible;visibility:visible;opacity:1;isolation:auto;mix-blend-mode:normal;color-interpolation:sRGB;color-interpolation-filters:linearRGB;solid-color:#000000;solid-opacity:1;fill:none;fill-opacity:1;fill-rule:nonzero;stroke:none;stroke-width:40;stroke-linecap:butt;stroke-linejoin:round;stroke-miterlimit:4;stroke-dasharray:none;stroke-dashoffset:0;stroke-opacity:1;color-rendering:auto;image-rendering:auto;shape-rendering:auto;text-rendering:auto;enable-background:accumulate"
       id="rect4251"
       width="850"
       height="850"
       x="-33.941139"
       y="46.798756" />
    <g
       id="g4550"
       transform="matrix(0.88945911,0,0,0.89081637,54.237644,1.6454828)">
      <path
         inkscape:connector-curvature="0"
         style="display:inline;overflow:visible;visibility:visible;fill:#000000;fill-opacity:1;fill-rule:nonzero;stroke:#000000;stroke-width:19.47648811;stroke-linecap:round;stroke-linejoin:round;stroke-miterlimit:4;stroke-dashoffset:0;stroke-opacity:1;marker:none;filter:url(#filter4308)"
         sodipodi:nodetypes="ssssczscsss"
         id="path4258"
         d="m 160.04011,200.42101 c 4.82889,-34.14366 16.32923,-55.48861 43.77898,-53.41252 l 422.04889,31.92053 c 3.96548,0.29992 9.10934,3.6012 9.56736,8.09281 l 51.50958,505.13107 c 0,0 -26.15349,3.03833 -24.78896,43.88507 1.36453,40.84675 11.50755,36.84387 17.3116,56.0097 6.54459,21.61127 -9.40395,38.18244 -20.86646,37.98834 l -495.28466,2.61597 C 122.47309,832.86771 75.969729,794.8581 82.463821,748.94027 Z" />
      <path
         d="m 85.814714,156.27887 c 0.191768,-34.4829 16.250956,-53.3311 43.778976,-53.41252 l 547.18598,-1.61857 c 3.97679,-0.0118 9.5628,3.57791 9.56736,8.09281 l 0.59789,592.81231 c 0,0 -26.15349,3.03833 -24.78896,43.88507 1.36453,40.84675 11.50755,36.84387 17.3116,56.0097 6.54459,21.61127 -9.40395,38.18244 -20.86646,37.98834 l -495.28466,2.61597 c -40.84335,0.21573 -81.11046,-37.33765 -80.852619,-83.71171 z"
         id="rect1408"
         sodipodi:nodetypes="ssssczscsss"
         style="display:inline;overflow:visible;visibility:visible;fill:#888a85;fill-opacity:1;fill-rule:nonzero;stroke:#8f5902;stroke-width:19.47648811;stroke-linecap:round;stroke-linejoin:round;stroke-miterlimit:4;stroke-dashoffset:0;stroke-opacity:1;marker:none"
         inkscape:connector-curvature="0" />
      <path
         d="m 652.55329,684.30591 -470.71933,2.24834 c -25.10266,3.19928 -45.35848,25.1117 -45.35848,53.96032 0,28.84863 20.25582,50.76103 45.35848,53.96032 l 470.71933,2.24835 0,-1.12419 c -26.70091,-1.4057 -48.38229,-24.95931 -48.38229,-55.08448 0,-30.12516 21.68138,-53.67878 48.38229,-55.08448 l 0,-1.12418 z"
         id="path2489"
         style="display:inline;overflow:visible;visibility:visible;fill:url(#linearGradient4852);fill-opacity:1;fill-rule:nonzero;stroke:none;stroke-width:1;marker:none"
         inkscape:connector-curvature="0" />
      <path
         d="m 135.69821,107.60507 c -27.52812,0 -42.534507,18.14876 -43.846603,51.46674 l -0.7344,578.30897 c -0.67998,25.38449 2.672578,48.34897 12.603203,63.82991 11.73083,18.28749 31.54026,27.16056 48.88262,32.04817 C 84.061436,803.92835 93.133112,671.52551 178.81011,672.07891 l 498.30988,0 0.38638,-556.72615 c 0.003,-4.35464 -5.61085,-7.74769 -9.57566,-7.74769 z"
         id="path2784"
         sodipodi:nodetypes="cccscccssc"
         style="display:inline;overflow:visible;visibility:visible;fill:#c17d11;fill-opacity:1;fill-rule:nonzero;stroke:#8f5902;stroke-width:1.12342191;marker:none"
         inkscape:connector-curvature="0" />
      <rect
         height="526.62836"
         id="rect2793"
         style="display:inline;overflow:visible;visibility:visible;opacity:0.48044691;fill:url(#linearGradient4846);fill-opacity:1;fill-rule:nonzero;stroke:none;stroke-width:1;marker:none"
         transform="matrix(0.99890689,-0.04674415,0.00553876,0.99998466,0,0)"
         width="32.26144"
         x="150.4352"
         y="134.49329" />
      <path
         d="m 138.72373,116.97948 c -27.15696,0 -37.68464,13.16924 -38.978941,45.94086 l 5.028631,537.61319 c 15.05196,-28.90018 39.34437,-39.26082 78.25673,-39.26082 l 483.03924,0 0.8121,-536.67261 c 0.006,-4.28311 -5.53524,-7.62062 -9.44655,-7.62062 z"
         id="path2104"
         sodipodi:nodetypes="cccscssc"
         style="display:inline;overflow:visible;visibility:visible;fill:none;stroke:url(#linearGradient4843);stroke-width:19.47648811;stroke-linecap:round;stroke-linejoin:miter;stroke-miterlimit:20;stroke-dasharray:none;stroke-dashoffset:0;stroke-opacity:1;marker:none"
         inkscape:connector-curvature="0" />
    </g>
    <text
       xml:space="preserve"
       style="font-style:normal;font-weight:normal;font-size:408.4928894px;line-height:125%;font-family:sans-serif;letter-spacing:0px;word-spacing:0px;fill:#d3d7cf;fill-opacity:1;stroke:#eeeeec;stroke-width:10;stroke-linecap:butt;stroke-linejoin:miter;stroke-miterlimit:4;stroke-dasharray:none;stroke-opacity:1"
       x="226.95451"
       y="448.78851"
       id="text4558"
       sodipodi:linespacing="125%"><tspan
         sodipodi:role="line"
         id="tspan4560"
         x="226.95451"
         y="448.78851"
         style="font-style:normal;font-variant:normal;font-weight:bold;font-stretch:normal;font-family:sans-serif;-inkscape-font-specification:'sans-serif Bold';fill:#d3d7cf;stroke:#eeeeec;stroke-width:10;stroke-miterlimit:4;stroke-dasharray:none">@</tspan></text>
    <ellipse
       style="color:#000000;clip-rule:nonzero;display:inline;overflow:visible;visibility:visible;opacity:0.795;isolation:auto;mix-blend-mode:normal;color-interpolation:sRGB;color-interpolation-filters:linearRGB;solid-color:#000000;solid-opacity:1;fill:#555753;fill-opacity:1;fill-rule:nonzero;stroke:none;stroke-width:40;stroke-linecap:butt;stroke-linejoin:round;stroke-miterlimit:4;stroke-dasharray:none;stroke-dashoffset:0;stroke-opacity:1;filter:url(#filter4248);color-rendering:auto;image-rendering:auto;shape-rendering:auto;text-rendering:auto;enable-background:accumulate"
       id="path4230"
       cx="569.92804"
       cy="852.95807"
       rx="104.6518"
       ry="29.698483"
       transform="matrix(2.8222171,0,0,0.59643997,-1134.7164,299.67205)" />
    <path
       style="color:#000000;font-style:normal;font-variant:normal;font-weight:normal;font-stretch:normal;font-size:medium;line-height:normal;font-family:sans-serif;text-indent:0;text-align:start;text-decoration:none;text-decoration-line:none;text-decoration-style:solid;text-decoration-color:#000000;letter-spacing:normal;word-spacing:normal;text-transform:none;direction:ltr;block-progression:tb;writing-mode:lr-tb;baseline-shift:baseline;text-anchor:start;white-space:normal;clip-rule:nonzero;display:inline;overflow:visible;visibility:visible;opacity:0.005;isolation:auto;mix-blend-mode:normal;color-interpolation:sRGB;color-interpolation-filters:linearRGB;solid-color:#000000;solid-opacity:1;fill:#ffffff;fill-opacity:1;fill-rule:nonzero;stroke:none;stroke-width:10.80000019;stroke-linecap:butt;stroke-linejoin:round;stroke-miterlimit:4;stroke-dasharray:none;stroke-dashoffset:0;stroke-opacity:1;color-rendering:auto;image-rendering:auto;shape-rendering:auto;text-rendering:auto;enable-background:accumulate;filter:url(#filter4684)"
       d="m 199.05664,561.01953 a 5.4005401,5.4005401 0 0 0 -5.41016,5.40039 l 0,246.17578 a 5.4005401,5.4005401 0 0 0 5.4004,5.40039 l 63.10742,0 a 5.4005401,5.4005401 0 0 0 5.40039,-5.40039 l 0,-94.72265 89.58593,0 -34.41406,93.01953 a 5.4005401,5.4005401 0 0 0 5.06446,7.27344 l 62.91601,0 a 5.4005401,5.4005401 0 0 0 5.09375,-3.60547 l 17.10938,-48.55078 73.70898,0 16.26367,48.40429 a 5.4005401,5.4005401 0 0 0 5.11914,3.67969 l 64.75586,0 a 5.4005401,5.4005401 0 0 0 5.05274,-7.30664 L 485.02344,564.8418 a 5.4005401,5.4005401 0 0 0 -5.05274,-3.49414 l -62.99414,0 a 5.4005401,5.4005401 0 0 0 -5.06445,3.52734 l -35.45703,95.82422 -108.8125,0 0,-44.34375 120.42187,0 a 5.4005401,5.4005401 0 0 0 5.40039,-5.40039 l 0,-44.20117 a 5.4005401,5.4005401 0 0 0 -5.39062,-5.40039 l -189.01758,-0.33399 z m 518.13477,0.10352 a 5.4005401,5.4005401 0 0 0 -5.40039,5.40039 l 0,170.48828 c -4.49786,16.86589 -20.16469,26.30082 -36.67774,26.62695 -16.50668,0.326 -32.91223,-8.17323 -39.17578,-28.47851 l 0,-168.41797 a 5.4005401,5.4005401 0 0 0 -5.41992,-5.40039 l -59.08203,0.2207 a 5.4005401,5.4005401 0 0 0 -5.38086,5.40039 l 0,172.21289 a 5.4005401,5.4005401 0 0 0 0.0781,0.91211 c 7.18881,41.96532 27.82138,64.14203 62.47071,77.43359 a 5.4005401,5.4005401 0 0 0 1.93359,0.35938 l 87.5293,0 a 5.4005401,5.4005401 0 0 0 2.1875,-0.46289 c 23.23095,-10.29558 37.24135,-21.91078 46.08203,-34.3418 8.84067,-12.43101 12.38066,-25.37293 15.59961,-37.72461 a 5.4005401,5.4005401 0 0 0 0.17578,-1.36133 l 0,-177.46679 a 5.4005401,5.4005401 0 0 0 -5.40039,-5.40039 l -59.51953,0 z m -512.74414,10.70703 178.21679,0.31445 0,33.41016 -120.42187,0 a 5.4005401,5.4005401 0 0 0 -5.40039,5.40039 l 0,55.14453 a 5.4005401,5.4005401 0 0 0 5.40039,5.40039 l 117.97265,0 a 5.4005401,5.4005401 0 0 0 5.06446,-3.52734 l 35.45703,-95.82422 55.5,0 88.71289,235.14453 -53.06445,0 -16.26368,-48.4043 a 5.4005401,5.4005401 0 0 0 -5.11914,-3.67969 l -81.41406,0 a 5.4005401,5.4005401 0 0 0 -5.09375,3.60547 l -17.10937,48.55078 -51.33789,0 34.41406,-93.01953 a 5.4005401,5.4005401 0 0 0 -5.06446,-7.27343 l -102.74218,0 a 5.4005401,5.4005401 0 0 0 -5.40039,5.40039 l 0,94.72265 -52.30664,0 0,-235.36523 z m 518.14453,0.0937 48.71875,0 0,171.34765 c -3.13486,11.99164 -6.33318,23.07756 -13.77735,33.54493 -7.46088,10.49086 -19.41158,20.66154 -40.73437,30.26367 l -85.16211,0 c -31.75385,-12.38034 -48.05389,-29.69464 -54.78125,-68.45703 l 0,-166.28125 48.28125,-0.17969 0,163.94922 a 5.4005401,5.4005401 0 0 0 0.2207,1.52734 c 7.434,25.21288 29.18739,37.2073 49.96875,36.79688 20.78136,-0.41043 41.48413,-12.9274 47.10156,-35.25391 a 5.4005401,5.4005401 0 0 0 0.16407,-1.31836 l 0,-165.93945 z m -273.33985,49.37305 a 5.4005401,5.4005401 0 0 0 -5.08203,3.82617 l -28.97265,95.17578 a 5.4005401,5.4005401 0 0 0 5.15625,6.97265 l 56.99218,0.10938 a 5.4005401,5.4005401 0 0 0 5.18946,-6.92383 l -28.01954,-95.28515 a 5.4005401,5.4005401 0 0 0 -5.26367,-3.875 z m -0.006,24.23437 20.88868,71.03516 -42.48633,-0.082 21.59765,-70.95313 z"
       id="path4628"
       inkscape:connector-curvature="0" />
    <path
       id="path4688"
       d="M 199.04688 566.41992 L 199.04688 812.5957 L 262.1543 812.5957 L 262.1543 712.47266 L 364.89648 712.47266 L 327.79102 812.76562 L 390.70703 812.76562 L 409.08789 760.60938 L 490.50195 760.60938 L 508.00195 812.69336 L 572.75781 812.69336 L 479.9707 566.74805 L 416.97656 566.74805 L 380.21484 666.09961 L 262.24219 666.09961 L 262.24219 610.95508 L 388.06445 610.95508 L 388.06445 566.75391 L 199.04688 566.41992 z M 717.19141 566.52344 L 717.19141 737.86328 C 707.2527 777.36473 644.08961 782.07553 630.53711 736.11133 L 630.53711 566.74219 L 571.45508 566.96289 L 571.45508 739.17578 C 578.42348 779.85445 596.99139 799.61225 630.53711 812.48047 L 718.06641 812.48047 C 763.26569 792.44889 770.30127 768.58529 776.71094 743.99023 L 776.71094 566.52344 L 717.19141 566.52344 z M 449.33594 626.69531 L 477.35547 721.98047 L 420.36328 721.87109 L 449.33594 626.69531 z "
       style="fill:#204a87;stroke:#ffffff;stroke-width:22;stroke-miterlimit:4;stroke-dasharray:none;stroke-linejoin:round" />
    <path
       style="fill:#204a87;stroke:none"
       d="M 199.04688 566.41992 L 199.04688 812.5957 L 262.1543 812.5957 L 262.1543 712.47266 L 364.89648 712.47266 L 327.79102 812.76562 L 390.70703 812.76562 L 409.08789 760.60938 L 490.50195 760.60938 L 508.00195 812.69336 L 572.75781 812.69336 L 479.9707 566.74805 L 416.97656 566.74805 L 380.21484 666.09961 L 262.24219 666.09961 L 262.24219 610.95508 L 388.06445 610.95508 L 388.06445 566.75391 L 199.04688 566.41992 z M 717.19141 566.52344 L 717.19141 737.86328 C 707.2527 777.36473 644.08961 782.07553 630.53711 736.11133 L 630.53711 566.74219 L 571.45508 566.96289 L 571.45508 739.17578 C 578.42348 779.85445 596.99139 799.61225 630.53711 812.48047 L 718.06641 812.48047 C 763.26569 792.44889 770.30127 768.58529 776.71094 743.99023 L 776.71094 566.52344 L 717.19141 566.52344 z M 449.33594 626.69531 L 477.35547 721.98047 L 420.36328 721.87109 L 449.33594 626.69531 z "
       id="path3778" />
    <g
       id="g4586">
      <path
         inkscape:connector-curvature="0"
         id="rect3854"
         d="m 199.45641,583.81128 188.40649,0 0,9.19056 -188.40649,0 z"
         style="fill:url(#linearGradient4171);fill-opacity:1;stroke:none" />
      <path
         style="fill:url(#linearGradient4173);fill-opacity:1;stroke:none"
         d="m 199.45641,611.64556 62.80215,0 0,9.19056 -62.80215,0 z"
         id="path3857"
         inkscape:connector-curvature="0" />
      <path
         inkscape:connector-curvature="0"
         id="path3859"
         d="m 199.45641,634.35937 62.80215,0 0,9.19056 -62.80215,0 z"
         style="fill:url(#linearGradient4175);fill-opacity:1;stroke:none" />
      <path
         style="fill:url(#linearGradient4177);fill-opacity:1;stroke:none"
         d="m 199.45641,656.63554 62.80215,0 0,9.19056 -62.80215,0 z"
         id="path3861"
         inkscape:connector-curvature="0" />
      <path
         sodipodi:nodetypes="ccccc"
         inkscape:connector-curvature="0"
         id="path3863"
         d="m 199.45641,685.12628 231.95225,0 -2.62587,9.19056 -229.32638,0 z"
         style="fill:url(#linearGradient4179);fill-opacity:1;stroke:none" />
      <path
         style="fill:url(#linearGradient4181);fill-opacity:1;stroke:none"
         d="m 199.45641,712.30408 62.80215,0 0,9.19056 -62.80215,0 z"
         id="path3865"
         inkscape:connector-curvature="0" />
      <path
         inkscape:connector-curvature="0"
         id="path3867"
         d="m 199.45641,735.01789 62.80215,0 0,9.19056 -62.80215,0 z"
         style="fill:url(#linearGradient4183);fill-opacity:1;stroke:none" />
      <path
         style="fill:url(#linearGradient4185);fill-opacity:1;stroke:none"
         d="m 199.45641,760.62017 62.80215,0 0,9.19056 -62.80215,0 z"
         id="path3869"
         inkscape:connector-curvature="0" />
      <path
         inkscape:connector-curvature="0"
         id="path3871"
         d="m 199.45641,785.56598 62.80215,0 0,9.19056 -62.80215,0 z"
         style="fill:url(#linearGradient4187);fill-opacity:1;stroke:none" />
      <path
         sodipodi:nodetypes="ccccc"
         style="fill:url(#linearGradient4189);fill-opacity:1;stroke:none"
         d="m 411.05815,583.81128 74.83741,0 3.50116,9.19056 -81.83973,0 z"
         id="path3873"
         inkscape:connector-curvature="0" />
      <path
         sodipodi:nodetypes="ccccc"
         inkscape:connector-curvature="0"
         id="path3875"
         d="m 401.64877,609.41356 94.09382,0 3.50117,9.19056 -101.09615,0 z"
         style="fill:url(#linearGradient4191);fill-opacity:1;stroke:none" />
      <path
         sodipodi:nodetypes="ccccc"
         style="fill:url(#linearGradient4193);fill-opacity:1;stroke:none"
         d="m 392.41571,634.57819 54.09172,0 -2.84468,9.19056 -54.70571,0 z"
         id="path3877"
         inkscape:connector-curvature="0" />
      <path
         sodipodi:nodetypes="ccccc"
         inkscape:connector-curvature="0"
         id="path3879"
         d="m 383.92411,656.89813 56.01864,0 -2.8447,9.19056 -56.6751,0 z"
         style="fill:url(#linearGradient4195);fill-opacity:1;stroke:none" />
      <path
         sodipodi:nodetypes="ccccc"
         style="fill:url(#linearGradient4197);fill-opacity:1;stroke:none"
         d="m 365.04377,712.69796 57.83081,0 -2.8447,9.19056 -58.42569,0 z"
         id="path3881"
         inkscape:connector-curvature="0" />
      <path
         sodipodi:nodetypes="ccccc"
         inkscape:connector-curvature="0"
         id="path3883"
         d="m 356.57126,735.45554 186.65589,0 3.50119,9.19057 -193.65825,0 z"
         style="fill:url(#linearGradient4199);fill-opacity:1;stroke:none" />
      <path
         sodipodi:nodetypes="ccccc"
         style="fill:url(#linearGradient4201);fill-opacity:1;stroke:none"
         d="m 347.3807,760.839 61.4892,0 -3.28234,9.19057 -61.92685,0 z"
         id="path3885"
         inkscape:connector-curvature="0" />
      <path
         sodipodi:nodetypes="ccccc"
         inkscape:connector-curvature="0"
         id="path3887"
         d="m 338.19015,785.56599 61.59558,0 -3.06352,9.19056 -62.03324,0 z"
         style="fill:url(#linearGradient4203);fill-opacity:1;stroke:none" />
      <path
         inkscape:connector-curvature="0"
         id="path3897"
         d="m 505.19447,634.57819 -53.21643,0 2.84469,9.19056 53.83041,0 z"
         style="fill:url(#linearGradient4205);fill-opacity:1;stroke:none"
         sodipodi:nodetypes="ccccc" />
      <path
         sodipodi:nodetypes="ccccc"
         style="fill:url(#linearGradient4207);fill-opacity:1;stroke:none"
         d="m 513.83798,656.78871 -55.40467,0 2.62588,9.19056 56.01863,0 z"
         id="path3899"
         inkscape:connector-curvature="0" />
      <path
         inkscape:connector-curvature="0"
         id="path3901"
         d="m 524.17184,684.68862 -57.53267,0 2.68282,9.19056 58.36874,0 z"
         style="fill:url(#linearGradient4209);fill-opacity:1;stroke:none"
         sodipodi:nodetypes="ccccc" />
      <path
         sodipodi:nodetypes="ccccc"
         style="fill:url(#linearGradient4211);fill-opacity:1;stroke:none"
         d="m 534.7978,712.47914 -59.84337,0 2.55511,9.19056 60.68467,0 z"
         id="path3903"
         inkscape:connector-curvature="0" />
      <path
         inkscape:connector-curvature="0"
         id="path3905"
         d="m 552.75536,760.62017 -61.93626,0.21882 3.07694,8.97174 62.35108,0 z"
         style="fill:url(#linearGradient4213);fill-opacity:1;stroke:none"
         sodipodi:nodetypes="ccccc" />
      <path
         sodipodi:nodetypes="ccccc"
         style="fill:url(#linearGradient4215);fill-opacity:1;stroke:none"
         d="m 562.46989,785.7848 -63.22611,0 2.98339,9.19056 63.64816,0 z"
         id="path3907"
         inkscape:connector-curvature="0" />
      <path
         style="fill:url(#linearGradient4217);fill-opacity:1;stroke:none"
         d="m 571.43009,583.81128 59.15745,0 0,9.19056 -59.15745,0 z"
         id="path3909"
         inkscape:connector-curvature="0" />
      <path
         inkscape:connector-curvature="0"
         id="path3911"
         d="m 571.43009,608.97591 59.15745,0 0,9.19056 -59.15745,0 z"
         style="fill:url(#linearGradient4219);fill-opacity:1;stroke:none" />
      <path
         style="fill:url(#linearGradient4221);fill-opacity:1;stroke:none"
         d="m 571.43009,634.35937 59.15745,0 0,9.19056 -59.15745,0 z"
         id="path3913"
         inkscape:connector-curvature="0" />
      <path
         inkscape:connector-curvature="0"
         id="path3915"
         d="m 571.43009,659.74283 59.15745,0 0,9.19056 -59.15745,0 z"
         style="fill:url(#linearGradient4223);fill-opacity:1;stroke:none" />
      <path
         style="fill:url(#linearGradient4225);fill-opacity:1;stroke:none"
         d="m 571.43009,684.90746 59.15745,0 0,9.19056 -59.15745,0 z"
         id="path3917"
         inkscape:connector-curvature="0" />
      <path
         inkscape:connector-curvature="0"
         id="path3919"
         d="m 571.43009,710.07208 59.15745,0 0,9.19056 -59.15745,0 z"
         style="fill:url(#linearGradient4227);fill-opacity:1;stroke:none" />
      <path
         sodipodi:nodetypes="ccccc"
         style="fill:url(#linearGradient4229);fill-opacity:1;stroke:none"
         d="m 571.43009,735.01789 59.15745,0 c -0.32792,2.82287 0.90403,4.25568 2.62588,9.19056 l -60.65168,0 c -0.81832,-3.06352 -1.1377,-6.12704 -1.13165,-9.19056 z"
         id="path3921"
         inkscape:connector-curvature="0" />
      <path
         sodipodi:nodetypes="ccccc"
         inkscape:connector-curvature="0"
         id="path3923"
         d="m 576.12701,757.39569 67.14771,0 c 3.43587,3.84503 9.37131,7.02587 14.98881,9.19056 l -78.81583,0 c -1.32583,-3.00563 -2.12636,-5.65497 -3.32069,-9.19056 z"
         style="fill:url(#linearGradient4231);fill-opacity:1;stroke:none" />
      <path
         sodipodi:nodetypes="ccccc"
         style="fill:url(#linearGradient4233);fill-opacity:1;stroke:none"
         d="m 591.22578,785.78481 165.84139,0 c -3.06126,2.95946 -5.03821,5.4852 -9.96423,9.19056 l -146.90542,0 c -2.79939,-2.4535 -5.64985,-4.80181 -8.97174,-9.19056 z"
         id="path3925"
         inkscape:connector-curvature="0" />
      <path
         inkscape:connector-curvature="0"
         id="path3927"
         d="m 717.27557,583.81128 59.48567,0 0,9.19056 -59.48567,0 z"
         style="fill:url(#linearGradient4235);fill-opacity:1;stroke:none" />
      <path
         style="fill:url(#linearGradient4237);fill-opacity:1;stroke:none"
         d="m 717.38497,609.19474 59.37627,0 0,9.19056 -59.37627,0 z"
         id="path3929"
         inkscape:connector-curvature="0" />
      <path
         inkscape:connector-curvature="0"
         id="path3931"
         d="m 717.27557,634.5782 59.48567,0 0,9.19056 -59.48567,0 z"
         style="fill:url(#linearGradient4239);fill-opacity:1;stroke:none" />
      <path
         style="fill:url(#linearGradient4241);fill-opacity:1;stroke:none"
         d="m 717.16615,659.74283 59.59509,0 0,9.19056 -59.59509,0 z"
         id="path3933"
         inkscape:connector-curvature="0" />
      <path
         inkscape:connector-curvature="0"
         id="path3935"
         d="m 717.16615,685.12629 59.59509,0 0,9.19056 -59.59509,0 z"
         style="fill:url(#linearGradient4243);fill-opacity:1;stroke:none" />
      <path
         style="fill:url(#linearGradient4245);fill-opacity:1;stroke:none"
         d="m 717.16615,710.0721 59.59509,0 0,9.19056 -59.59509,0 z"
         id="path3937"
         inkscape:connector-curvature="0" />
      <path
         sodipodi:nodetypes="ccccc"
         inkscape:connector-curvature="0"
         id="path3939"
         d="m 716.94733,735.0179 59.81391,0 0,9.19056 -61.4473,0 c 1.53968,-4.2953 2.52263,-6.03358 1.63339,-9.19056 z"
         style="fill:url(#linearGradient4247);fill-opacity:1;stroke:none" />
      <path
         sodipodi:nodetypes="ccccc"
         style="fill:url(#linearGradient4249);fill-opacity:1;stroke:none"
         d="m 705.78093,757.30507 66.83047,0 c -0.73139,2.67751 -2.11071,6.67575 -3.41832,9.19057 l -78.51816,0 c 6.47736,-2.65517 11.1214,-5.41817 15.10601,-9.19057 z"
         id="path3941"
         inkscape:connector-curvature="0" />
    </g>
  </g>
</svg>
