<?xml version="1.0" encoding="UTF-8" standalone="no"?>
<!-- Created with Inkscape (http://www.inkscape.org/) -->
<svg xmlns:dc="http://purl.org/dc/elements/1.1/" xmlns:cc="http://creativecommons.org/ns#" xmlns:rdf="http://www.w3.org/1999/02/22-rdf-syntax-ns#" xmlns:svg="http://www.w3.org/2000/svg" xmlns="http://www.w3.org/2000/svg" xmlns:xlink="http://www.w3.org/1999/xlink" xmlns:sodipodi="http://sodipodi.sourceforge.net/DTD/sodipodi-0.dtd" xmlns:inkscape="http://www.inkscape.org/namespaces/inkscape" width="210mm" height="297mm" id="svg2" version="1.1" inkscape:version="0.48.0 r9654">
  <title id="title3960">bag</title>
  <defs id="defs4">
    <linearGradient inkscape:collect="always" id="linearGradient3932">
      <stop style="stop-color:#000000;stop-opacity:1;" offset="0" id="stop3934"/>
      <stop style="stop-color:#000000;stop-opacity:0;" offset="1" id="stop3936"/>
    </linearGradient>
    <linearGradient inkscape:collect="always" id="linearGradient3883">
      <stop style="stop-color:#000000;stop-opacity:1;" offset="0" id="stop3885"/>
      <stop style="stop-color:#000000;stop-opacity:0;" offset="1" id="stop3887"/>
    </linearGradient>
    <linearGradient inkscape:collect="always" id="linearGradient3873">
      <stop style="stop-color:#ffffff;stop-opacity:1;" offset="0" id="stop3875"/>
      <stop style="stop-color:#ffffff;stop-opacity:0.02" offset="1" id="stop3877"/>
    </linearGradient>
    <linearGradient id="linearGradient3851">
      <stop style="stop-color:#d3d7cf;stop-opacity:1;" offset="0" id="stop3853"/>
      <stop style="stop-color:#555753;stop-opacity:1;" offset="1" id="stop3855"/>
    </linearGradient>
    <linearGradient id="linearGradient3835">
      <stop style="stop-color:#ffffff;stop-opacity:0;" offset="0" id="stop3837"/>
      <stop id="stop3859" offset="0.5" style="stop-color:#ffffff;stop-opacity:1;"/>
      <stop style="stop-color:#ffffff;stop-opacity:0;" offset="1" id="stop3839"/>
    </linearGradient>
    <linearGradient id="linearGradient3815">
      <stop style="stop-color:#ffffff;stop-opacity:1;" offset="0" id="stop3817"/>
      <stop id="stop3823" offset="0.5" style="stop-color:#7f7f7f;stop-opacity:0;"/>
      <stop style="stop-color:#000000;stop-opacity:0.59740257;" offset="1" id="stop3819"/>
    </linearGradient>
    <linearGradient inkscape:collect="always" id="linearGradient3772">
      <stop style="stop-color:#ffffff;stop-opacity:1;" offset="0" id="stop3774"/>
      <stop style="stop-color:#ffffff;stop-opacity:0;" offset="1" id="stop3776"/>
    </linearGradient>
    <linearGradient inkscape:collect="always" xlink:href="#linearGradient3772" id="linearGradient3778" x1="254.77367" y1="573.70831" x2="279.59703" y2="573.70831" gradientUnits="userSpaceOnUse" gradientTransform="matrix(0.79879748,0,0,0.93749323,57.061961,35.802009)"/>
    <linearGradient inkscape:collect="always" xlink:href="#linearGradient3772" id="linearGradient3803" gradientUnits="userSpaceOnUse" gradientTransform="matrix(0.79879748,0,0,0.93749323,153.02645,35.802009)" x1="254.77367" y1="573.70831" x2="279.59703" y2="573.70831"/>
    <linearGradient inkscape:collect="always" xlink:href="#linearGradient3815" id="linearGradient3821" x1="324.08624" y1="494.4325" x2="332.39655" y2="625.14679" gradientUnits="userSpaceOnUse"/>
    <linearGradient inkscape:collect="always" xlink:href="#linearGradient3815" id="linearGradient3829" gradientUnits="userSpaceOnUse" x1="324.08624" y1="494.4325" x2="332.39655" y2="625.14679" gradientTransform="matrix(0.94527889,0,0,0.84137203,17.632181,169.96194)"/>
    <linearGradient inkscape:collect="always" xlink:href="#linearGradient3835" id="linearGradient3841" x1="267.7782" y1="607.21362" x2="271.80746" y2="653.01434" gradientUnits="userSpaceOnUse" gradientTransform="matrix(0.91425471,0,0,0.85173208,23.159821,93.844085)"/>
    <linearGradient inkscape:collect="always" xlink:href="#linearGradient3851" id="linearGradient3857" x1="269.96899" y1="620.52197" x2="298.49435" y2="652.34174" gradientUnits="userSpaceOnUse"/>
    <linearGradient inkscape:collect="always" xlink:href="#linearGradient3851" id="linearGradient3865" gradientUnits="userSpaceOnUse" x1="242.46899" y1="601.59338" x2="298.49435" y2="652.34174" gradientTransform="translate(95.714286,0)"/>
    <linearGradient inkscape:collect="always" xlink:href="#linearGradient3835" id="linearGradient3867" gradientUnits="userSpaceOnUse" gradientTransform="matrix(0.91425471,0,0,0.85173208,118.87411,93.844085)" x1="267.7782" y1="607.21362" x2="271.80746" y2="653.01434"/>
    <linearGradient inkscape:collect="always" xlink:href="#linearGradient3873" id="linearGradient3879" x1="313.82141" y1="447.20309" x2="320.64285" y2="477.91736" gradientUnits="userSpaceOnUse" gradientTransform="matrix(0.89464283,0,0,1.0040816,33.54497,2.090879)"/>
    <linearGradient inkscape:collect="always" xlink:href="#linearGradient3883" id="linearGradient3889" x1="335.78571" y1="505.79648" x2="335.82144" y2="462.22504" gradientUnits="userSpaceOnUse" gradientTransform="matrix(0.89464283,0,0,1.0040816,33.54497,2.090879)"/>
    <linearGradient inkscape:collect="always" xlink:href="#linearGradient3815" id="linearGradient3908" gradientUnits="userSpaceOnUse" gradientTransform="matrix(0.94527889,0,0,0.84137203,17.632181,169.96194)" x1="324.08624" y1="494.4325" x2="332.39655" y2="625.14679"/>
    <linearGradient inkscape:collect="always" xlink:href="#linearGradient3815" id="linearGradient3910" gradientUnits="userSpaceOnUse" x1="324.08624" y1="494.4325" x2="332.39655" y2="625.14679"/>
    <linearGradient inkscape:collect="always" xlink:href="#linearGradient3873" id="linearGradient3912" gradientUnits="userSpaceOnUse" gradientTransform="matrix(0.89464283,0,0,1.0040816,33.54497,2.090879)" x1="313.82141" y1="447.20309" x2="320.64285" y2="477.91736"/>
    <linearGradient inkscape:collect="always" xlink:href="#linearGradient3883" id="linearGradient3914" gradientUnits="userSpaceOnUse" gradientTransform="matrix(0.89464283,0,0,1.0040816,33.54497,2.090879)" x1="335.78571" y1="505.79648" x2="335.82144" y2="462.22504"/>
    <linearGradient inkscape:collect="always" xlink:href="#linearGradient3772" id="linearGradient3916" gradientUnits="userSpaceOnUse" gradientTransform="matrix(0.79879748,0,0,0.93749323,57.061961,35.802009)" x1="254.77367" y1="573.70831" x2="279.59703" y2="573.70831"/>
    <linearGradient inkscape:collect="always" xlink:href="#linearGradient3772" id="linearGradient3918" gradientUnits="userSpaceOnUse" gradientTransform="matrix(0.79879748,0,0,0.93749323,153.02645,35.802009)" x1="254.77367" y1="573.70831" x2="279.59703" y2="573.70831"/>
    <linearGradient inkscape:collect="always" xlink:href="#linearGradient3851" id="linearGradient3920" gradientUnits="userSpaceOnUse" x1="269.96899" y1="620.52197" x2="298.49435" y2="652.34174"/>
    <linearGradient inkscape:collect="always" xlink:href="#linearGradient3835" id="linearGradient3922" gradientUnits="userSpaceOnUse" gradientTransform="matrix(0.91425471,0,0,0.85173208,23.159821,93.844085)" x1="267.7782" y1="607.21362" x2="271.80746" y2="653.01434"/>
    <linearGradient inkscape:collect="always" xlink:href="#linearGradient3851" id="linearGradient3924" gradientUnits="userSpaceOnUse" gradientTransform="translate(95.714286,0)" x1="242.46899" y1="601.59338" x2="298.49435" y2="652.34174"/>
    <linearGradient inkscape:collect="always" xlink:href="#linearGradient3835" id="linearGradient3926" gradientUnits="userSpaceOnUse" gradientTransform="matrix(0.91425471,0,0,0.85173208,118.87411,93.844085)" x1="267.7782" y1="607.21362" x2="271.80746" y2="653.01434"/>
    <radialGradient inkscape:collect="always" xlink:href="#linearGradient3932" id="radialGradient3938" cx="375.71429" cy="790.93359" fx="375.71429" fy="790.93359" r="312.85715" gradientTransform="matrix(1,0,0,0.16894977,0,657.30554)" gradientUnits="userSpaceOnUse"/>
  </defs>
  <sodipodi:namedview id="base" pagecolor="#ffffff" bordercolor="#666666" borderopacity="1.0" inkscape:pageopacity="0.0" inkscape:pageshadow="2" inkscape:zoom="0.35" inkscape:cx="120.03761" inkscape:cy="557.44743" inkscape:document-units="px" inkscape:current-layer="layer1" showgrid="false" showguides="true" inkscape:guide-bbox="true" inkscape:snap-global="false" inkscape:window-width="1260" inkscape:window-height="690" inkscape:window-x="0" inkscape:window-y="0" inkscape:window-maximized="0">
    <sodipodi:guide orientation="0,1" position="-605.71429,885.71429" id="guide2987"/>
    <sodipodi:guide orientation="0,1" position="-174.28571,171.42857" id="guide2989"/>
    <sodipodi:guide orientation="1,0" position="725.71429,34.285714" id="guide2991"/>
    <sodipodi:guide orientation="1,0" position="11.428571,57.142857" id="guide2993"/>
    <sodipodi:guide orientation="1,0" position="368.57143,20" id="guide3928"/>
  </sodipodi:namedview>
  <metadata id="metadata7">
    <rdf:RDF>
      <cc:Work rdf:about="">
        <dc:format>image/svg+xml</dc:format>
        <dc:type rdf:resource="http://purl.org/dc/dcmitype/StillImage"/>
        <dc:title>bag</dc:title>
        <dc:date>Feb 2014</dc:date>
        <dc:creator>
          <cc:Agent>
            <dc:title>Franziska Sponsel</dc:title>
          </cc:Agent>
        </dc:creator>
        <dc:rights>
          <cc:Agent>
            <dc:title>Franziska Sponsel</dc:title>
          </cc:Agent>
        </dc:rights>
        <dc:publisher>
          <cc:Agent>
            <dc:title>RRZE</dc:title>
          </cc:Agent>
        </dc:publisher>
        <dc:subject>
          <rdf:Bag>
            <rdf:li>bag</rdf:li>
            <rdf:li>bagpack</rdf:li>
            <rdf:li>rucksack</rdf:li>
            <rdf:li>school</rdf:li>
            <rdf:li>early student</rdf:li>
            <rdf:li>student</rdf:li>
            <rdf:li>early</rdf:li>
          </rdf:Bag>
        </dc:subject>
        <cc:license rdf:resource="http://creativecommons.org/licenses/by-sa/3.0/"/>
      </cc:Work>
      <cc:License rdf:about="http://creativecommons.org/licenses/by-sa/3.0/">
        <cc:permits rdf:resource="http://creativecommons.org/ns#Reproduction"/>
        <cc:permits rdf:resource="http://creativecommons.org/ns#Distribution"/>
        <cc:requires rdf:resource="http://creativecommons.org/ns#Notice"/>
        <cc:requires rdf:resource="http://creativecommons.org/ns#Attribution"/>
        <cc:permits rdf:resource="http://creativecommons.org/ns#DerivativeWorks"/>
        <cc:requires rdf:resource="http://creativecommons.org/ns#ShareAlike"/>
      </cc:License>
    </rdf:RDF>
  </metadata>
  <g inkscape:label="Ebene 1" inkscape:groupmode="layer" id="layer1">
    <g id="g3940">
      <path transform="matrix(1.0547946,0,0,0.78378379,-25.729941,188.44124)" d="m 688.57144,790.93359 a 312.85715,52.857143 0 1 1 -625.714293,0 312.85715,52.857143 0 1 1 625.714293,0 z" sodipodi:ry="52.857143" sodipodi:rx="312.85715" sodipodi:cy="790.93359" sodipodi:cx="375.71429" id="path3930" style="opacity:0.76619705;fill:url(#radialGradient3938);fill-opacity:1;stroke:none" sodipodi:type="arc"/>
      <rect y="166.6479" x="11.428572" height="714.28571" width="714.28571" id="rect2985" style="fill:#ffffff;fill-opacity:1;stroke:none;opacity:0"/>
      <g transform="matrix(2.6974284,0,0,2.3937233,-493.84019,-838.65423)" id="g3891">
        <path style="fill:#c17d11;stroke:#8f5902;stroke-width:5.11803341;stroke-linecap:butt;stroke-linejoin:miter;stroke-miterlimit:4;stroke-opacity:1;stroke-dasharray:none" d="m 265.51307,489.64928 20.7685,0 c 10.76482,-25.72131 56.44302,-24.65963 65.82015,1.0758 l 19.17092,0 c -8.98891,-50.0684 -91.86815,-50.82479 -105.75957,-1.0758 z" id="path3869" inkscape:connector-curvature="0" sodipodi:nodetypes="ccccc"/>
        <path style="fill:#c17d11;fill-opacity:1;stroke:#8f5902;stroke-width:6.65941906;stroke-miterlimit:4;stroke-opacity:1;stroke-dasharray:none" d="m 240.28734,523.88214 157.84173,0 c 14.01351,0 25.29514,10.1772 25.29514,22.81883 l 0,116.83241 c 0,12.64163 -11.28163,22.81883 -25.29514,22.81883 l -157.84173,0 c -14.01351,0 -25.29514,-10.1772 -25.29514,-22.81883 l 0,-116.83241 c 0,-12.64163 11.28163,-22.81883 25.29514,-22.81883 z" id="rect3006" inkscape:connector-curvature="0"/>
        <path sodipodi:nodetypes="sssssssss" id="path3827" d="m 242.15092,582.77797 154.20537,0 c 13.33034,0 21.91355,4.05845 21.91355,11.73894 l 0,71.13008 c 0,7.68053 -7.69278,16.05318 -21.02313,16.05318 l -156.40705,0 c -13.33039,0 -20.84103,-8.99161 -20.84103,-14.99541 l 0,-71.33792 c 0,-7.68051 8.82191,-12.58887 22.15229,-12.58887 z" style="opacity:0.4079755;fill:url(#linearGradient3908);fill-opacity:1;stroke:#e9b96e;stroke-width:2.53910899;stroke-miterlimit:4;stroke-opacity:1;stroke-dasharray:none" inkscape:connector-curvature="0"/>
        <path id="path3777" d="m 236.22019,486.18653 165.97603,0 c 14.7357,0 26.59872,7.90769 26.59872,17.73026 l 0,90.77892 c 0,9.82258 -11.86302,17.73026 -26.59872,17.73026 l -165.97603,0 c -14.7357,0 -26.59872,-7.90768 -26.59872,-17.73026 l 0,-90.77892 c 0,-9.82257 11.86302,-17.73026 26.59872,-17.73026 z" style="fill:#c17d11;fill-opacity:1;stroke:#8f5902;stroke-width:6.01900005;stroke-miterlimit:4;stroke-opacity:1;stroke-dasharray:none" inkscape:connector-curvature="0"/>
        <path inkscape:connector-curvature="0" style="opacity:0.4079755;fill:url(#linearGradient3910);fill-opacity:1;stroke:#e9b96e;stroke-width:2.84713006;stroke-miterlimit:4;stroke-opacity:1;stroke-dasharray:none" d="m 237.51587,490.64628 163.13213,0 c 14.10204,0 23.18211,4.8236 23.18211,13.95214 l 0,89.41566 c 0,9.12856 -11.35291,14.20468 -25.45495,14.20468 l -161.11182,0 c -14.10206,0 -23.18212,-6.33881 -23.18212,-15.46737 l 0,-87.14282 c 0,-9.12854 9.33259,-14.96229 23.43465,-14.96229 z" id="path3805" sodipodi:nodetypes="sssssssss"/>
        <path sodipodi:nodetypes="ccccc" inkscape:connector-curvature="0" id="path3871" d="m 270.3058,486.42187 13.89892,-0.3586 c 11.24409,-24.8248 59.63817,-25.19752 69.01531,0.53791 l 14.37819,0.89649 c -13.30237,-40.92408 -81.64367,-41.68047 -97.29242,-1.0758 z" style="opacity:0.68711656;fill:url(#linearGradient3912);fill-opacity:1;stroke:#e9b96e;stroke-width:1.89556789;stroke-linecap:butt;stroke-linejoin:miter;stroke-miterlimit:4;stroke-opacity:1;stroke-dasharray:none"/>
        <path style="opacity:0.68711656;fill:url(#linearGradient3914);fill-opacity:1;stroke:#e9b96e;stroke-width:1.89556789;stroke-linecap:butt;stroke-linejoin:miter;stroke-miterlimit:4;stroke-opacity:1;stroke-dasharray:none" d="m 270.3058,486.42187 13.89892,-0.3586 c 11.24409,-24.8248 59.63817,-25.19752 69.01531,0.53791 l 14.37819,0.89649 c -13.30237,-40.92408 -81.64367,-41.68047 -97.29242,-1.0758 z" id="path3881" inkscape:connector-curvature="0" sodipodi:nodetypes="ccccc"/>
        <path style="fill:#c17d11;fill-opacity:1;stroke:#8f5902;stroke-width:6;stroke-linecap:butt;stroke-linejoin:round;stroke-miterlimit:4;stroke-opacity:1;stroke-dasharray:none;stroke-dashoffset:22.80179958" d="m 264.82029,484.58104 11.51583,0 c 4.60759,0 8.31695,2.91437 8.31695,6.53447 l 0,153.81186 c 0,3.6201 -3.70936,17.90822 -8.31695,17.90822 l -11.51583,0 c -4.60759,0 -8.31695,-14.28812 -8.31695,-17.90822 l 0,-153.81186 c 0,-3.6201 3.70936,-6.53447 8.31695,-6.53447 z" id="rect3783" inkscape:connector-curvature="0" sodipodi:nodetypes="sssssssss"/>
        <path sodipodi:nodetypes="sssssssss" inkscape:connector-curvature="0" id="path3762" d="m 266.85782,489.69064 7.2622,0 c 2.90567,0 5.24489,0.235 5.24489,3.64518 l 0,147.40311 c 0,3.41018 -2.33922,16.86976 -5.24489,16.86976 l -7.2622,0 c -2.90566,0 -5.24488,-13.45958 -5.24488,-16.86976 l 0,-146.90104 c 0,-3.41018 2.33922,-4.14725 5.24488,-4.14725 z" style="opacity:0.41478529;fill:url(#linearGradient3916);fill-opacity:1;stroke:#e9b96e;stroke-width:2.24996471;stroke-linecap:butt;stroke-linejoin:round;stroke-miterlimit:4;stroke-opacity:1;stroke-dasharray:none;stroke-dashoffset:22.80179958"/>
        <path sodipodi:nodetypes="sssssssss" inkscape:connector-curvature="0" id="path3799" d="m 360.78478,484.58104 11.51583,0 c 4.60759,0 8.31695,2.91437 8.31695,6.53447 l 0,153.81186 c 0,3.6201 -3.70936,17.90822 -8.31695,17.90822 l -11.51583,0 c -4.60759,0 -8.31695,-14.28812 -8.31695,-17.90822 l 0,-153.81186 c 0,-3.6201 3.70936,-6.53447 8.31695,-6.53447 z" style="fill:#c17d11;fill-opacity:1;stroke:#8f5902;stroke-width:6;stroke-linecap:butt;stroke-linejoin:round;stroke-miterlimit:4;stroke-opacity:1;stroke-dasharray:none;stroke-dashoffset:22.80179958"/>
        <path style="opacity:0.41478529;fill:url(#linearGradient3918);fill-opacity:1;stroke:#e9b96e;stroke-width:2.24996471;stroke-linecap:butt;stroke-linejoin:round;stroke-miterlimit:4;stroke-opacity:1;stroke-dasharray:none;stroke-dashoffset:22.80179958" d="m 362.82231,489.69064 7.2622,0 c 2.90567,0 5.24489,0.235 5.24489,3.64518 l 0,147.40311 c 0,3.41018 -2.33922,16.86976 -5.24489,16.86976 l -7.2622,0 c -2.90566,0 -5.24488,-13.45958 -5.24488,-16.86976 l 0,-146.90104 c 0,-3.41018 2.33922,-4.14725 5.24488,-4.14725 z" id="path3801" inkscape:connector-curvature="0" sodipodi:nodetypes="sssssssss"/>
        <rect rx="2.1532934" style="fill:#555753;fill-opacity:1;stroke:url(#linearGradient3920);stroke-width:3.01900005;stroke-linecap:butt;stroke-linejoin:round;stroke-miterlimit:4;stroke-opacity:1;stroke-dasharray:none;stroke-dashoffset:22.80179958" id="rect3831" width="41.921329" height="24.243662" x="249.50768" y="621.02704" ry="2.4264936"/>
        <rect ry="1.608867" y="622.79279" x="251.27338" height="20.649103" width="38.326771" id="rect3833" style="opacity:0.57055215;fill:url(#linearGradient3922);fill-opacity:1;stroke:#ffffff;stroke-width:0.49588838;stroke-linecap:butt;stroke-linejoin:round;stroke-miterlimit:4;stroke-opacity:1;stroke-dasharray:none;stroke-dashoffset:22.80179958" rx="1.4511234"/>
        <rect ry="2.4264936" y="621.02704" x="345.22195" height="24.243662" width="41.921329" id="rect3861" style="fill:#555753;fill-opacity:1;stroke:url(#linearGradient3924);stroke-width:3.01900005;stroke-linecap:butt;stroke-linejoin:round;stroke-miterlimit:4;stroke-opacity:1;stroke-dasharray:none;stroke-dashoffset:22.80179958" rx="2.1532934"/>
        <rect rx="1.4511234" style="opacity:0.57055215;fill:url(#linearGradient3926);fill-opacity:1;stroke:#ffffff;stroke-width:0.49588838;stroke-linecap:butt;stroke-linejoin:round;stroke-miterlimit:4;stroke-opacity:1;stroke-dasharray:none;stroke-dashoffset:22.80179958" id="rect3863" width="38.326771" height="20.649103" x="346.98767" y="622.79279" ry="1.608867"/>
      </g>
    </g>
  </g>
</svg>
