<?xml version="1.0" encoding="UTF-8" standalone="no"?>
<!-- Created with Inkscape (http://www.inkscape.org/) -->
<svg xmlns:dc="http://purl.org/dc/elements/1.1/" xmlns:cc="http://creativecommons.org/ns#" xmlns:rdf="http://www.w3.org/1999/02/22-rdf-syntax-ns#" xmlns:svg="http://www.w3.org/2000/svg" xmlns="http://www.w3.org/2000/svg" xmlns:xlink="http://www.w3.org/1999/xlink" xmlns:sodipodi="http://sodipodi.sourceforge.net/DTD/sodipodi-0.dtd" xmlns:inkscape="http://www.inkscape.org/namespaces/inkscape" width="210mm" height="297mm" id="svg317920" version="1.1" inkscape:version="0.48.0 r9654">
  <title id="title318770">beamer</title>
  <defs id="defs317922">
    <linearGradient id="linearGradient318726">
      <stop style="stop-color:#2e3436;stop-opacity:1;" offset="0" id="stop318728"/>
      <stop style="stop-color:#555753;stop-opacity:1;" offset="1" id="stop318730"/>
    </linearGradient>
    <linearGradient inkscape:collect="always" id="linearGradient318718">
      <stop style="stop-color:#2e3436;stop-opacity:1;" offset="0" id="stop318720"/>
      <stop style="stop-color:#2e3436;stop-opacity:0;" offset="1" id="stop318722"/>
    </linearGradient>
    <linearGradient inkscape:collect="always" id="linearGradient318688">
      <stop style="stop-color:#2e3436;stop-opacity:1;" offset="0" id="stop318690"/>
      <stop style="stop-color:#2e3436;stop-opacity:0;" offset="1" id="stop318692"/>
    </linearGradient>
    <linearGradient inkscape:collect="always" id="linearGradient318650">
      <stop style="stop-color:#000000;stop-opacity:1;" offset="0" id="stop318652"/>
      <stop style="stop-color:#000000;stop-opacity:0;" offset="1" id="stop318654"/>
    </linearGradient>
    <linearGradient inkscape:collect="always" id="linearGradient318615">
      <stop style="stop-color:#ffffff;stop-opacity:1;" offset="0" id="stop318617"/>
      <stop style="stop-color:#ffffff;stop-opacity:0;" offset="1" id="stop318619"/>
    </linearGradient>
    <linearGradient id="linearGradient318586">
      <stop style="stop-color:#888a85;stop-opacity:1;" offset="0" id="stop318588"/>
      <stop id="stop318594" offset="0.05381005" style="stop-color:#ffffff;stop-opacity:1;"/>
      <stop style="stop-color:#888a85;stop-opacity:1;" offset="0.38003299" id="stop318596"/>
      <stop id="stop318598" offset="0.8548432" style="stop-color:#ffffff;stop-opacity:1;"/>
      <stop style="stop-color:#888a85;stop-opacity:1;" offset="1" id="stop318590"/>
    </linearGradient>
    <linearGradient id="linearGradient318570">
      <stop style="stop-color:#555753;stop-opacity:1;" offset="0" id="stop318572"/>
      <stop style="stop-color:#888a85;stop-opacity:1;" offset="1" id="stop318574"/>
    </linearGradient>
    <linearGradient id="linearGradient318560">
      <stop id="stop318562" offset="0" style="stop-color:#888a85;stop-opacity:1;"/>
      <stop style="stop-color:#ffffff;stop-opacity:1;" offset="0.29087123" id="stop318564"/>
      <stop id="stop318566" offset="0.64733344" style="stop-color:#c3c4c2;stop-opacity:1;"/>
      <stop id="stop318568" offset="1" style="stop-color:#888a85;stop-opacity:1;"/>
    </linearGradient>
    <linearGradient inkscape:collect="always" id="linearGradient318511">
      <stop style="stop-color:#729fcf;stop-opacity:1;" offset="0" id="stop318513"/>
      <stop style="stop-color:#729fcf;stop-opacity:0;" offset="1" id="stop318515"/>
    </linearGradient>
    <linearGradient inkscape:collect="always" id="linearGradient318501">
      <stop style="stop-color:#ffffff;stop-opacity:1;" offset="0" id="stop318503"/>
      <stop style="stop-color:#ffffff;stop-opacity:0;" offset="1" id="stop318505"/>
    </linearGradient>
    <linearGradient inkscape:collect="always" id="linearGradient318489">
      <stop style="stop-color:#d3d7cf;stop-opacity:1;" offset="0" id="stop318491"/>
      <stop style="stop-color:#d3d7cf;stop-opacity:0;" offset="1" id="stop318493"/>
    </linearGradient>
    <linearGradient id="linearGradient318467">
      <stop style="stop-color:#888a85;stop-opacity:1;" offset="0" id="stop318469"/>
      <stop id="stop318475" offset="0.46899495" style="stop-color:#ffffff;stop-opacity:1;"/>
      <stop style="stop-color:#c3c4c2;stop-opacity:1;" offset="0.64733344" id="stop318485"/>
      <stop style="stop-color:#888a85;stop-opacity:1;" offset="1" id="stop318471"/>
    </linearGradient>
    <linearGradient inkscape:collect="always" xlink:href="#linearGradient318467" id="linearGradient318483" x1="265.35834" y1="435.79059" x2="260.47025" y2="757.21912" gradientUnits="userSpaceOnUse"/>
    <radialGradient inkscape:collect="always" xlink:href="#linearGradient318489" id="radialGradient318495" cx="229.30463" cy="289.69702" fx="229.30463" fy="289.69702" r="109.04572" gradientUnits="userSpaceOnUse"/>
    <radialGradient inkscape:collect="always" xlink:href="#linearGradient318501" id="radialGradient318507" cx="229.30463" cy="289.69702" fx="229.30463" fy="289.69702" r="109.04572" gradientUnits="userSpaceOnUse"/>
    <linearGradient inkscape:collect="always" xlink:href="#linearGradient318511" id="linearGradient318519" x1="177.34233" y1="193.99834" x2="247.68843" y2="308.16519" gradientUnits="userSpaceOnUse"/>
    <linearGradient inkscape:collect="always" xlink:href="#linearGradient318586" id="linearGradient318592" x1="140.40677" y1="452.04483" x2="718.81952" y2="580.61627" gradientUnits="userSpaceOnUse"/>
    <linearGradient inkscape:collect="always" xlink:href="#linearGradient318586" id="linearGradient318602" gradientUnits="userSpaceOnUse" x1="624.69244" y1="419.18771" x2="-489.75192" y2="637.75909"/>
    <radialGradient inkscape:collect="always" xlink:href="#linearGradient318615" id="radialGradient318623" cx="189.96109" cy="197.63632" fx="189.96109" fy="197.63632" r="104.04573" gradientTransform="matrix(1.1199576,2.1438479,-1.0344684,0.54041183,161.81674,-326.99803)" gradientUnits="userSpaceOnUse"/>
    <radialGradient inkscape:collect="always" xlink:href="#linearGradient318650" id="radialGradient318674" gradientUnits="userSpaceOnUse" gradientTransform="matrix(3.4067268,0.0876054,-0.09660757,3.7567974,-361.06242,-1876.5235)" cx="177.11446" cy="672.91278" fx="177.11446" fy="672.91278" r="33.390625"/>
    <linearGradient inkscape:collect="always" xlink:href="#linearGradient318688" id="linearGradient318694" x1="280.15994" y1="395.65448" x2="280.52548" y2="465.65448" gradientUnits="userSpaceOnUse" gradientTransform="translate(0,2.5)"/>
    <linearGradient inkscape:collect="always" xlink:href="#linearGradient318688" id="linearGradient318706" gradientUnits="userSpaceOnUse" x1="280.15994" y1="395.65448" x2="280.52548" y2="465.65448" gradientTransform="matrix(1.0257511,0,0,1.4255166,-7.2835034,-161.28819)"/>
    <linearGradient inkscape:collect="always" xlink:href="#linearGradient318688" id="linearGradient318710" gradientUnits="userSpaceOnUse" gradientTransform="matrix(1.0772532,0,0,1.5673555,-21.85051,-199.016)" x1="280.15994" y1="395.65448" x2="280.52548" y2="465.65448"/>
    <linearGradient inkscape:collect="always" xlink:href="#linearGradient318688" id="linearGradient318714" gradientUnits="userSpaceOnUse" gradientTransform="matrix(1.1630901,0,0,2.2765499,-46.128855,-470.56438)" x1="280.15994" y1="395.65448" x2="280.52548" y2="465.65448"/>
    <radialGradient inkscape:collect="always" xlink:href="#linearGradient318718" id="radialGradient318724" cx="93.944183" cy="809.9256" fx="93.944183" fy="809.9256" r="366.68536" gradientTransform="matrix(1,0,0,0.17079891,0,671.59119)" gradientUnits="userSpaceOnUse"/>
    <linearGradient inkscape:collect="always" xlink:href="#linearGradient318726" id="linearGradient318732" x1="683.68982" y1="361.97391" x2="26.973806" y2="487.23285" gradientUnits="userSpaceOnUse"/>
    <radialGradient inkscape:collect="always" xlink:href="#linearGradient318615" id="radialGradient324642" gradientUnits="userSpaceOnUse" gradientTransform="matrix(1.1199576,2.1438479,-1.0344684,0.54041183,161.81674,-326.99803)" cx="189.96109" cy="197.63632" fx="189.96109" fy="197.63632" r="104.04573"/>
    <linearGradient inkscape:collect="always" xlink:href="#linearGradient318688" id="linearGradient324645" gradientUnits="userSpaceOnUse" gradientTransform="matrix(1.1630901,0,0,2.2765499,-46.128855,-470.56438)" x1="280.15994" y1="395.65448" x2="280.52548" y2="465.65448"/>
    <linearGradient inkscape:collect="always" xlink:href="#linearGradient318688" id="linearGradient324648" gradientUnits="userSpaceOnUse" gradientTransform="matrix(1.0772532,0,0,1.5673555,-21.85051,-199.016)" x1="280.15994" y1="395.65448" x2="280.52548" y2="465.65448"/>
    <linearGradient inkscape:collect="always" xlink:href="#linearGradient318688" id="linearGradient324651" gradientUnits="userSpaceOnUse" gradientTransform="matrix(1.0257511,0,0,1.4255166,-7.2835034,-161.28819)" x1="280.15994" y1="395.65448" x2="280.52548" y2="465.65448"/>
    <linearGradient inkscape:collect="always" xlink:href="#linearGradient318688" id="linearGradient324654" gradientUnits="userSpaceOnUse" gradientTransform="translate(0,2.5)" x1="280.15994" y1="395.65448" x2="280.52548" y2="465.65448"/>
    <radialGradient inkscape:collect="always" xlink:href="#linearGradient318615" id="radialGradient324667" gradientUnits="userSpaceOnUse" gradientTransform="matrix(0.53443387,1.0230253,-0.49363918,0.25787975,508.22699,360.08066)" cx="189.96109" cy="197.63632" fx="189.96109" fy="197.63632" r="104.04573"/>
    <radialGradient inkscape:collect="always" xlink:href="#linearGradient318615" id="radialGradient324670" gradientUnits="userSpaceOnUse" gradientTransform="matrix(0.53443387,1.0230253,-0.49363918,0.25787975,508.22699,360.08066)" cx="189.96109" cy="197.63632" fx="189.96109" fy="197.63632" r="104.04573"/>
    <linearGradient inkscape:collect="always" xlink:href="#linearGradient318467" id="linearGradient324678" gradientUnits="userSpaceOnUse" x1="265.35834" y1="435.79059" x2="260.47025" y2="757.21912"/>
    <linearGradient inkscape:collect="always" xlink:href="#linearGradient318586" id="linearGradient324682" gradientUnits="userSpaceOnUse" x1="624.69244" y1="419.18771" x2="-489.75192" y2="637.75909"/>
    <linearGradient inkscape:collect="always" xlink:href="#linearGradient318586" id="linearGradient324685" gradientUnits="userSpaceOnUse" x1="140.40677" y1="452.04483" x2="718.81952" y2="580.61627"/>
    <linearGradient inkscape:collect="always" xlink:href="#linearGradient318726" id="linearGradient324690" gradientUnits="userSpaceOnUse" x1="683.68982" y1="361.97391" x2="26.973806" y2="487.23285"/>
  </defs>
  <sodipodi:namedview id="base" pagecolor="#ffffff" bordercolor="#666666" borderopacity="1.0" inkscape:pageopacity="0.0" inkscape:pageshadow="2" inkscape:zoom="0.98994949" inkscape:cx="5.1215582" inkscape:cy="476.95846" inkscape:document-units="px" inkscape:current-layer="layer1" showgrid="false" showguides="true" inkscape:guide-bbox="true" inkscape:snap-global="false" inkscape:window-width="1163" inkscape:window-height="703" inkscape:window-x="20" inkscape:window-y="20" inkscape:window-maximized="0">
    <sodipodi:guide orientation="0,1" position="-157.14286,925.71429" id="guide318438"/>
    <sodipodi:guide orientation="0,1" position="-157.14286,208.57143" id="guide318440"/>
    <sodipodi:guide orientation="1,0" position="731.42857,17.142857" id="guide318442"/>
    <sodipodi:guide orientation="1,0" position="14.285714,17.142857" id="guide318444"/>
    <sodipodi:guide orientation="1,0" position="377.79705,402.04071" id="guide318452"/>
    <sodipodi:guide orientation="1,0" position="176.7767,381.33259" id="guide318642"/>
  </sodipodi:namedview>
  <metadata id="metadata317925">
    <rdf:RDF>
      <cc:Work rdf:about="">
        <dc:format>image/svg+xml</dc:format>
        <dc:type rdf:resource="http://purl.org/dc/dcmitype/StillImage"/>
        <dc:title>beamer</dc:title>
        <cc:license rdf:resource="http://creativecommons.org/licenses/by-sa/3.0/"/>
        <dc:date>Apr 2013</dc:date>
        <dc:creator>
          <cc:Agent>
            <dc:title>Franziska Sponsel</dc:title>
          </cc:Agent>
        </dc:creator>
        <dc:rights>
          <cc:Agent>
            <dc:title>Franziska Sponsel</dc:title>
          </cc:Agent>
        </dc:rights>
        <dc:publisher>
          <cc:Agent>
            <dc:title>RRZE</dc:title>
          </cc:Agent>
        </dc:publisher>
        <dc:subject>
          <rdf:Bag>
            <rdf:li>beamer</rdf:li>
            <rdf:li>ressource</rdf:li>
          </rdf:Bag>
        </dc:subject>
        <dc:contributor>
          <cc:Agent>
            <dc:title>Martin Fischer</dc:title>
          </cc:Agent>
        </dc:contributor>
      </cc:Work>
      <cc:License rdf:about="http://creativecommons.org/licenses/by-sa/3.0/">
        <cc:permits rdf:resource="http://creativecommons.org/ns#Reproduction"/>
        <cc:permits rdf:resource="http://creativecommons.org/ns#Distribution"/>
        <cc:requires rdf:resource="http://creativecommons.org/ns#Notice"/>
        <cc:requires rdf:resource="http://creativecommons.org/ns#Attribution"/>
        <cc:permits rdf:resource="http://creativecommons.org/ns#DerivativeWorks"/>
        <cc:requires rdf:resource="http://creativecommons.org/ns#ShareAlike"/>
      </cc:License>
    </rdf:RDF>
  </metadata>
  <g inkscape:label="Ebene 1" inkscape:groupmode="layer" id="layer1">
    <g id="g324715">
      <path id="path318716" d="m 460.62955,809.9256 c 0,34.58929 -164.17063,62.62946 -366.685367,62.62946 -202.514733,0 -366.685363,-28.04017 -366.685363,-62.62946 0,-34.5893 164.17063,-62.62946 366.685363,-62.62946 202.514737,0 366.685367,28.04016 366.685367,62.62946 z" style="fill:url(#radialGradient318724);fill-opacity:1;stroke:none" transform="matrix(0.85123966,0,0,1,290.75695,-62.629457)"/>
      <path id="path318736" d="m -39.39595,524.5575 c 0,8.08943 -12.6633,14.64721 -28.284272,14.64721 -15.620971,0 -28.284271,-6.55778 -28.284271,-14.64721 0,-8.08944 12.6633,-14.64722 28.284271,-14.64722 15.620972,0 28.284272,6.55778 28.284272,14.64722 z" style="fill:#555753;fill-opacity:1;stroke:#2e3436;stroke-width:10;stroke-linecap:round;stroke-linejoin:round;stroke-miterlimit:4;stroke-dashoffset:22.80179958;stroke-opacity:1" transform="translate(614.09153,239.42646)"/>
      <path sodipodi:nodetypes="sssssssss" inkscape:connector-curvature="0" id="rect318454" d="m 156.14282,400.05749 443.61065,0 c 9.48483,0 15.88028,3.17742 17.12063,7.23139 l 51.59608,168.63649 c 1.24035,4.05396 -50.57736,2.1127 -60.0521,1.67554 L 104.86986,554.3674 c -9.474762,-0.43716 -17.305069,27.11715 -16.110486,23.0732 L 139.02219,407.28888 c 1.19458,-4.04395 7.63579,-7.23139 17.12063,-7.23139 z" style="fill:#2e3436;fill-opacity:1;stroke:url(#linearGradient324690);stroke-width:9.95868683;stroke-linecap:round;stroke-linejoin:round;stroke-miterlimit:4;stroke-opacity:1;stroke-dasharray:none;stroke-dashoffset:22.80179958"/>
      <path id="path318734" d="m -39.39595,524.5575 c 0,8.08943 -12.6633,14.64721 -28.284272,14.64721 -15.620971,0 -28.284271,-6.55778 -28.284271,-14.64721 0,-8.08944 12.6633,-14.64722 28.284271,-14.64722 15.620972,0 28.284272,6.55778 28.284272,14.64722 z" style="fill:#555753;fill-opacity:1;stroke:#2e3436;stroke-width:10;stroke-linecap:round;stroke-linejoin:round;stroke-miterlimit:4;stroke-dashoffset:22.80179958;stroke-opacity:1" transform="translate(280.82241,239.42646)"/>
      <path id="rect317928" d="m 14.285714,126.6479 717.142826,0 0,717.14283 -717.142826,0 z" style="fill:none;stroke:none"/>
      <path style="opacity:0.87730061;fill:url(#linearGradient324685);fill-opacity:1;stroke:#ffffff;stroke-width:9.03962803;stroke-linecap:round;stroke-linejoin:round;stroke-miterlimit:4;stroke-opacity:1;stroke-dasharray:none;stroke-dashoffset:22.80179958" d="m 163.78586,409.19442 437.98342,0.50507 c 6.24765,0.007 6.62454,1.61154 7.90867,5.83847 l 44.60822,146.83505 c 1.08784,3.58079 -63.99138,-14.96495 -25.83888,-15.12223 l -490.06824,2.02031 c -9.27806,0.0383 -43.019595,40.31888 -42.00133,36.84049 l 50.15554,-171.33125 c 1.60145,-5.47054 4.94402,-5.6001 17.2526,-5.58591 z" id="path318542" inkscape:connector-curvature="0" sodipodi:nodetypes="sssssssss"/>
      <path sodipodi:nodetypes="sssssssss" inkscape:connector-curvature="0" id="path318600" d="m 163.78586,409.19442 437.98342,0.50507 c 6.24765,0.007 6.62454,1.61154 7.90867,5.83847 l 44.60822,146.83505 c 1.08784,3.58079 -63.99138,-14.96495 -25.83888,-15.12223 l -490.06824,2.02031 c -9.27806,0.0383 -43.019595,40.31888 -42.00133,36.84049 l 50.15554,-171.33125 c 1.60145,-5.47054 4.94402,-5.6001 17.2526,-5.58591 z" style="opacity:0.46012274;fill:url(#linearGradient324682);fill-opacity:1;stroke:#ffffff;stroke-width:9.03962803;stroke-linecap:round;stroke-linejoin:round;stroke-miterlimit:4;stroke-opacity:1;stroke-dasharray:none;stroke-dashoffset:22.80179958"/>
      <path id="rect318448" d="m 138.02447,540.85858 481.56544,0 c 29.6601,0 53.53808,27.03169 53.53808,60.60917 l 0,105.7887 c 0,33.57748 -23.87798,60.60917 -53.53808,60.60917 l -481.56544,0 c -29.6601,0 -53.538081,-27.03169 -53.538081,-60.60917 l 0,-105.7887 c 0,-33.57748 23.877981,-60.60917 53.538081,-60.60917 z" style="fill:#babdb6;stroke:#555753;stroke-width:10;stroke-miterlimit:4"/>
      <path id="rect318457" d="m 137.94237,550.65717 481.37243,0 c 24.15505,0 43.60117,23.58755 43.60117,52.88689 l 0,101.63591 c 0,29.29934 -19.44612,52.88689 -43.60117,52.88689 l -481.37243,0 c -24.15505,0 -43.601168,-23.58755 -43.601168,-52.88689 l 0,-101.63591 c 0,-29.29934 19.446118,-52.88689 43.601168,-52.88689 z" style="opacity:0.73006137;fill:url(#linearGradient324678);fill-opacity:1;stroke:#ffffff;stroke-width:9.39427376;stroke-miterlimit:4;stroke-opacity:1"/>
      <path id="path318540" d="m 333.35035,289.69702 c 0,57.46287 -46.58286,104.04572 -104.04572,104.04572 -57.46287,0 -104.04573,-46.58285 -104.04573,-104.04572 0,-57.46286 46.58286,-104.04572 104.04573,-104.04572 57.46286,0 104.04572,46.58286 104.04572,104.04572 z" style="fill:#2e3436;fill-opacity:1;stroke:#000000;stroke-width:10;stroke-linecap:round;stroke-linejoin:round;stroke-miterlimit:4;stroke-dashoffset:22.80179958;stroke-opacity:1" transform="matrix(0.87031004,0,0,0.87031004,340.86548,408.23586)"/>
      <path id="path318450" d="m 333.35035,289.69702 c 0,57.46287 -46.58286,104.04572 -104.04572,104.04572 -57.46287,0 -104.04573,-46.58285 -104.04573,-104.04572 0,-57.46286 46.58286,-104.04572 104.04573,-104.04572 57.46286,0 104.04572,46.58286 104.04572,104.04572 z" style="fill:#2e3436;fill-opacity:1;stroke:#555753;stroke-width:10;stroke-linecap:round;stroke-linejoin:round;stroke-miterlimit:4;stroke-dashoffset:22.80179958;stroke-opacity:1" transform="matrix(0.86104647,0,0,0.86104647,342.98967,404.91949)"/>
      <path id="path318487" d="m 333.35035,289.69702 c 0,57.46287 -46.58286,104.04572 -104.04572,104.04572 -57.46287,0 -104.04573,-46.58285 -104.04573,-104.04572 0,-57.46286 46.58286,-104.04572 104.04573,-104.04572 57.46286,0 104.04572,46.58286 104.04572,104.04572 z" style="opacity:0.79141104;fill:url(#radialGradient318495);fill-opacity:1;stroke:#eeeeec;stroke-width:10;stroke-linecap:round;stroke-linejoin:round;stroke-miterlimit:4;stroke-dashoffset:22.80179958;stroke-opacity:1" transform="matrix(0.77767435,0,0,0.77767435,362.10728,429.07214)"/>
      <path id="path318497" d="m 333.35035,289.69702 c 0,57.46287 -46.58286,104.04572 -104.04572,104.04572 -57.46287,0 -104.04573,-46.58285 -104.04573,-104.04572 0,-57.46286 46.58286,-104.04572 104.04573,-104.04572 57.46286,0 104.04572,46.58286 104.04572,104.04572 z" style="opacity:0.13803681;fill:url(#radialGradient318507);fill-opacity:1;stroke:#729fcf;stroke-width:10;stroke-linecap:round;stroke-linejoin:round;stroke-miterlimit:4;stroke-dashoffset:22.80179958;stroke-opacity:1" transform="matrix(0.66651153,0,0,0.66651153,387.59743,461.27568)"/>
      <path id="path318509" d="m 333.35035,289.69702 c 0,57.46287 -46.58286,104.04572 -104.04572,104.04572 -57.46287,0 -104.04573,-46.58285 -104.04573,-104.04572 0,-57.46286 46.58286,-104.04572 104.04573,-104.04572 57.46286,0 104.04572,46.58286 104.04572,104.04572 z" style="opacity:0.27300618;fill:none;stroke:url(#linearGradient318519);stroke-width:10;stroke-linecap:round;stroke-linejoin:round;stroke-miterlimit:4;stroke-dashoffset:22.80179958;stroke-opacity:1" transform="matrix(0.60166655,0,0,0.60166655,402.46668,480.06108)"/>
      <path sodipodi:nodetypes="czcssc" inkscape:connector-curvature="0" id="path318604" d="m 590.08131,654.36209 c -11.39318,-29.01921 -40.92897,-45.28381 -68.57211,-30.3108 -27.64314,14.973 -22.80334,51.10196 -8.73692,71.54868 -13.26322,-8.91356 -21.99037,-24.05656 -21.99037,-41.23788 0,-27.42077 22.22893,-49.6497 49.6497,-49.6497 27.42077,0 49.6497,22.22893 49.6497,49.6497 z" style="opacity:0.67791407;fill:url(#radialGradient324670);fill-opacity:1;stroke:none"/>
      <path style="opacity:0.67791407;fill:url(#radialGradient324667);fill-opacity:1;stroke:none" d="m 590.08131,654.36209 c -9.21442,-51.43691 -52.15576,-52.67612 -74.44176,-38.77454 -22.286,13.90157 -33.6012,49.46417 -2.86727,80.01242 -13.26322,-8.91356 -21.99037,-24.05656 -21.99037,-41.23788 0,-27.42077 22.22893,-49.6497 49.6497,-49.6497 27.42077,0 49.6497,22.22893 49.6497,49.6497 z" id="path318625" inkscape:connector-curvature="0" sodipodi:nodetypes="czcssc"/>
      <path id="rect318627" d="m 167.95869,590.93365 179.79692,0 c 20.23768,0 36.53011,15.47807 36.53011,34.70419 l 0,70.59163 c 0,19.22612 -16.29243,34.70418 -36.53011,34.70418 l -179.79692,0 c -20.23769,0 -36.53012,-15.47806 -36.53012,-34.70418 l 0,-70.59163 c 0,-19.22612 16.29243,-34.70419 36.53012,-34.70419 z" style="opacity:0.67791407;fill:#eeeeec;fill-opacity:1;stroke:#555753;stroke-width:7;stroke-miterlimit:4;stroke-opacity:1"/>
      <path id="rect318632" d="m 208.84904,594.61511 48.23479,0 0,132.73046 -48.23479,0 z" style="fill:#2e3436;fill-opacity:1;stroke:none"/>
      <path sodipodi:nodetypes="cczcczccc" inkscape:connector-curvature="0" id="rect318629" d="m 213.58104,594.50506 134.2073,0 c 0,0 12.1566,-0.65305 22.21166,8.39285 10.05505,9.0459 10.53571,18.46089 10.53571,18.46089 l 0.0127,74.92461 c 0,0 0.98055,11.19903 -8.73423,21.09238 -9.71477,9.89335 -22.30139,9.84899 -22.30139,9.84899 l -135.75317,0 z" style="fill:#ffffff;fill-opacity:1;stroke:none"/>
      <g transform="matrix(0.84645834,0,0,0.84645834,26.369959,125.48648)" id="g318670">
        <path style="font-size:medium;font-style:normal;font-variant:normal;font-weight:normal;font-stretch:normal;text-indent:0;text-align:start;text-decoration:none;line-height:normal;letter-spacing:normal;word-spacing:normal;text-transform:none;direction:ltr;block-progression:tb;writing-mode:lr-tb;text-anchor:start;baseline-shift:baseline;color:#000000;fill:url(#radialGradient318674);fill-opacity:1;stroke:none;stroke-width:10;marker:none;visibility:visible;display:inline;overflow:visible;enable-background:accumulate;font-family:Sans;-inkscape-font-specification:Sans" d="m 176.84806,667.94839 c -16.29762,0 -29.5887,-13.31878 -29.5887,-29.61641 0,-16.29762 13.29108,-29.6164 29.5887,-29.6164 16.29763,0 29.61641,13.31878 29.61641,29.6164 0,16.29763 -13.31878,29.61641 -29.61641,29.61641 z m 0,-8.86553 c 11.50634,0 20.75088,-9.24454 20.75088,-20.75088 0,-11.50634 -9.24454,-20.75088 -20.75088,-20.75088 -11.50634,0 -20.72317,9.24454 -20.72317,20.75088 0,11.50634 9.21683,20.75088 20.72317,20.75088 z" id="path318634" inkscape:connector-curvature="0"/>
        <path style="fill:none;stroke:#000000;stroke-width:9.54566383;stroke-linecap:round;stroke-linejoin:miter;stroke-miterlimit:4;stroke-opacity:1;stroke-dasharray:none" d="m 177.01026,634.06726 0,-26.47494" id="path318640" inkscape:connector-curvature="0" sodipodi:nodetypes="cc"/>
      </g>
      <path id="rect318676" d="m 168.35501,421.01688 228.97541,0 c 1.77006,0 3.19506,1.35158 3.19506,3.03045 0,1.67888 -1.425,3.03046 -3.19506,3.03046 l -228.97541,0 c -1.77007,0 -3.19507,-1.35158 -3.19507,-3.03046 0,-1.67887 1.425,-3.03045 3.19507,-3.03045 z" style="fill:#eeeeec;stroke:none"/>
      <path id="rect318678" d="m 163.80932,436.16916 238.06678,0 c 1.77007,0 3.19507,1.80211 3.19507,4.04061 0,2.2385 -1.425,4.04061 -3.19507,4.04061 l -238.06678,0 c -1.77006,0 -3.19506,-1.80211 -3.19506,-4.04061 0,-2.2385 1.425,-4.04061 3.19506,-4.04061 z" style="fill:#eeeeec;stroke:none"/>
      <path id="rect318680" d="m 157.74841,455.86713 250.18861,0 c 1.77006,0 3.19506,2.36527 3.19506,5.3033 0,2.93803 -1.425,5.3033 -3.19506,5.3033 l -250.18861,0 c -1.77007,0 -3.19507,-2.36527 -3.19507,-5.3033 0,-2.93803 1.425,-5.3033 3.19507,-5.3033 z" style="fill:#eeeeec;stroke:none"/>
      <path id="rect318682" d="m 148.65704,481.12094 268.37135,0 c 1.77006,0 3.19506,3.37896 3.19506,7.57615 0,4.19718 -1.425,7.57614 -3.19506,7.57614 l -268.37135,0 c -1.77007,0 -3.19506,-3.37896 -3.19506,-7.57614 0,-4.19719 1.42499,-7.57615 3.19506,-7.57615 z" style="fill:#eeeeec;stroke:none"/>
      <path id="rect318684" d="m 168.35501,423.51688 228.97541,0 c 1.77006,0 3.19506,0.79408 3.19506,1.78045 0,0.98638 -1.425,1.78046 -3.19506,1.78046 l -228.97541,0 c -1.77007,0 -3.19507,-0.79408 -3.19507,-1.78046 0,-0.98637 1.425,-1.78045 3.19507,-1.78045 z" style="fill:url(#linearGradient324654);fill-opacity:1;stroke:none"/>
      <path id="rect318704" d="m 165.32455,438.87839 235.03632,0 c 1.77007,0 3.19507,1.13198 3.19507,2.53807 0,1.40609 -1.425,2.53807 -3.19507,2.53807 l -235.03632,0 c -1.77007,0 -3.19506,-1.13198 -3.19506,-2.53807 0,-1.40609 1.42499,-2.53807 3.19506,-2.53807 z" style="fill:url(#linearGradient324651);fill-opacity:1;stroke:none"/>
      <path id="rect318708" d="m 159.26364,460.86716 247.15815,0 c 1.77006,0 3.19506,1.24461 3.19506,2.79061 0,1.546 -1.425,2.79061 -3.19506,2.79061 l -247.15815,0 c -1.77007,0 -3.19507,-1.24461 -3.19507,-2.79061 0,-1.546 1.425,-2.79061 3.19507,-2.79061 z" style="fill:url(#linearGradient324648);fill-opacity:1;stroke:none"/>
      <path id="rect318712" d="m 149.16211,487.90161 267.36121,0 c 1.77007,0 3.19506,1.80777 3.19506,4.0533 0,2.24553 -1.42499,4.0533 -3.19506,4.0533 l -267.36121,0 c -1.77007,0 -3.19507,-1.80777 -3.19507,-4.0533 0,-2.24553 1.425,-4.0533 3.19507,-4.0533 z" style="fill:url(#linearGradient324645);fill-opacity:1;stroke:none"/>
    </g>
  </g>
</svg>
