<?xml version="1.0" encoding="UTF-8" standalone="no"?>
<!-- Created with Inkscape (http://www.inkscape.org/) -->
<svg xmlns:dc="http://purl.org/dc/elements/1.1/" xmlns:cc="http://creativecommons.org/ns#" xmlns:rdf="http://www.w3.org/1999/02/22-rdf-syntax-ns#" xmlns:svg="http://www.w3.org/2000/svg" xmlns="http://www.w3.org/2000/svg" xmlns:xlink="http://www.w3.org/1999/xlink" xmlns:sodipodi="http://sodipodi.sourceforge.net/DTD/sodipodi-0.dtd" xmlns:inkscape="http://www.inkscape.org/namespaces/inkscape" width="210mm" height="297mm" id="svg2" version="1.1" inkscape:version="0.48.0 r9654">
  <title id="title4023">chipcard blocked</title>
  <defs id="defs4">
    <linearGradient inkscape:collect="always" id="linearGradient3880">
      <stop style="stop-color:#000000;stop-opacity:1;" offset="0" id="stop3882"/>
      <stop style="stop-color:#000000;stop-opacity:0;" offset="1" id="stop3884"/>
    </linearGradient>
    <linearGradient inkscape:collect="always" id="linearGradient3804">
      <stop style="stop-color:#ffffff;stop-opacity:1;" offset="0" id="stop3806"/>
      <stop style="stop-color:#ffffff;stop-opacity:0;" offset="1" id="stop3808"/>
    </linearGradient>
    <linearGradient inkscape:collect="always" xlink:href="#linearGradient3804" id="linearGradient3810" x1="-132.07143" y1="492.36218" x2="663.49998" y2="492.36218" gradientUnits="userSpaceOnUse"/>
    <radialGradient inkscape:collect="always" xlink:href="#linearGradient3880" id="radialGradient3976" gradientUnits="userSpaceOnUse" gradientTransform="matrix(0.96226415,0,0,0.16981132,11.893117,546.02668)" cx="368.70569" cy="679.61591" fx="368.70569" fy="679.61591" r="374.7666"/>
    <linearGradient inkscape:collect="always" xlink:href="#linearGradient3804" id="linearGradient3978" gradientUnits="userSpaceOnUse" gradientTransform="matrix(0.94517289,0,0,0.94517289,14.568356,26.994818)" x1="-132.07143" y1="492.36218" x2="663.49998" y2="492.36218"/>
    <linearGradient y2="645.40979" y1="402.10623" xlink:href="#linearGradient3167" x2="416.38455" x1="337.49271" inkscape:collect="always" id="linearGradient3946" gradientUnits="userSpaceOnUse" gradientTransform="matrix(1.031913,0,0,0.9606757,-10.760168,19.498309)"/>
    <linearGradient y2="646.65405" y1="164.76173" xlink:href="#linearGradient3177" x2="425.96066" x1="356.35681" inkscape:collect="always" id="linearGradient3198" gradientUnits="userSpaceOnUse"/>
    <inkscape:perspective sodipodi:type="inkscape:persp3d" inkscape:vp_z="744.09448 : 526.18109 : 1" inkscape:vp_y="0 : 1000 : 0" inkscape:vp_x="0 : 526.18109 : 1" inkscape:persp3d-origin="372.04724 : 350.78739 : 1" id="perspective10"/>
    <linearGradient id="linearGradient3167">
      <stop style="stop-color:#ffffff;stop-opacity:1;" offset="0" id="stop3169"/>
      <stop style="stop-color:#ffffff;stop-opacity:0;" offset="1" id="stop3171"/>
    </linearGradient>
    <linearGradient id="linearGradient3177">
      <stop style="stop-color:#ffffff;stop-opacity:0;" offset="0" id="stop3187"/>
      <stop style="stop-color:#ffffff;stop-opacity:1;" offset="0.4375" id="stop3200"/>
      <stop style="stop-color:#ffffff;stop-opacity:0.43333334;" offset="0.9375" id="stop3191"/>
      <stop style="stop-color:#ffffff;stop-opacity:0;" offset="1" id="stop3181"/>
    </linearGradient>
  </defs>
  <sodipodi:namedview id="base" pagecolor="#ffffff" bordercolor="#666666" borderopacity="1.0" inkscape:pageopacity="0.0" inkscape:pageshadow="2" inkscape:zoom="0.49497475" inkscape:cx="-494.96482" inkscape:cy="522.87157" inkscape:document-units="px" inkscape:current-layer="layer1" showgrid="false" showguides="true" inkscape:guide-bbox="true" inkscape:snap-global="false" inkscape:window-width="1238" inkscape:window-height="688" inkscape:window-x="0" inkscape:window-y="0" inkscape:window-maximized="0">
    <sodipodi:guide orientation="1,0" position="111.11678,406.08132" id="guide3769"/>
    <sodipodi:guide orientation="0,1" position="-23.233509,453.55849" id="guide3783"/>
    <sodipodi:guide orientation="1,0" position="598.01031,424.26407" id="guide3821"/>
    <sodipodi:guide orientation="0,1" position="-214.15234,559.62451" id="guide3825"/>
  </sodipodi:namedview>
  <metadata id="metadata7">
    <rdf:RDF>
      <cc:Work rdf:about="">
        <dc:format>image/svg+xml</dc:format>
        <dc:type rdf:resource="http://purl.org/dc/dcmitype/StillImage"/>
        <dc:title>chipcard blocked</dc:title>
        <dc:date>May 2012</dc:date>
        <dc:creator>
          <cc:Agent>
            <dc:title>Franziska Sponsel</dc:title>
          </cc:Agent>
        </dc:creator>
        <dc:rights>
          <cc:Agent>
            <dc:title>Franziska Sponsel</dc:title>
          </cc:Agent>
        </dc:rights>
        <dc:publisher>
          <cc:Agent>
            <dc:title>RRZE</dc:title>
          </cc:Agent>
        </dc:publisher>
        <dc:subject>
          <rdf:Bag>
            <rdf:li>chip card</rdf:li>
            <rdf:li>chip</rdf:li>
            <rdf:li>creditcard</rdf:li>
          </rdf:Bag>
        </dc:subject>
        <dc:contributor>
          <cc:Agent>
            <dc:title>Florian Löffler, Frank Tröger</dc:title>
          </cc:Agent>
        </dc:contributor>
        <cc:license rdf:resource="http://creativecommons.org/licenses/by-sa/3.0/"/>
      </cc:Work>
      <cc:License rdf:about="http://creativecommons.org/licenses/by-sa/3.0/">
        <cc:permits rdf:resource="http://creativecommons.org/ns#Reproduction"/>
        <cc:permits rdf:resource="http://creativecommons.org/ns#Distribution"/>
        <cc:requires rdf:resource="http://creativecommons.org/ns#Notice"/>
        <cc:requires rdf:resource="http://creativecommons.org/ns#Attribution"/>
        <cc:permits rdf:resource="http://creativecommons.org/ns#DerivativeWorks"/>
        <cc:requires rdf:resource="http://creativecommons.org/ns#ShareAlike"/>
      </cc:License>
    </rdf:RDF>
  </metadata>
  <g inkscape:label="Ebene 1" inkscape:groupmode="layer" id="layer1">
    <g id="g8540">
      <g id="g3980">
        <path style="fill:none;stroke:none" d="m -2.0203052,127.06245 749.5332052,0 0,749.5332 -749.5332052,0 z" id="rect3929"/>
        <g id="g3956" transform="matrix(1.0168067,0,0,1.0168067,-0.10186416,-4.2662256)">
          <path inkscape:connector-curvature="0" id="path3878" d="m 727.30984,661.43316 c 0,35.14719 -161.45707,63.63962 -360.62446,63.63962 -199.16739,0 -360.6244626,-28.49243 -360.6244626,-63.63962 0,-35.14719 161.4570726,-63.63961 360.6244626,-63.63961 199.16739,0 360.62446,28.49242 360.62446,63.63961 z" style="fill:url(#radialGradient3976);fill-opacity:1;stroke:none"/>
          <g transform="matrix(0.79399101,0,0,0.79399101,162.3329,73.146761)" id="g3827">
            <path inkscape:connector-curvature="0" id="rect3789" d="m -39.868729,238.07646 611.166019,0 c 43.60129,0 78.70269,35.1014 78.70269,78.7027 l 0,351.16605 c 0,43.60129 -35.1014,78.70269 -78.70269,78.70269 l -611.166019,0 c -43.601294,0 -78.702701,-35.1014 -78.702701,-78.70269 l 0,-351.16605 c 0,-43.6013 35.101407,-78.7027 78.702701,-78.7027 z" style="fill:#888a85;stroke:#555753;stroke-width:21;stroke-linecap:round;stroke-linejoin:round;stroke-miterlimit:4;stroke-opacity:1;stroke-dashoffset:0"/>
            <path style="opacity:0.64723966;fill:url(#linearGradient3978);fill-opacity:1;stroke:#eeeeec;stroke-width:17.26531982;stroke-linecap:round;stroke-linejoin:round;stroke-miterlimit:4;stroke-opacity:1;stroke-dasharray:none;stroke-dashoffset:0" d="m -23.114485,256.20072 577.657525,0 c 56.59953,0 77.4181,22.83888 77.4181,70.20515 l 0,331.91263 c 0,40.18484 -2.35205,68.18484 -77.4181,68.18484 l -577.657525,0 c -62.755037,0 -77.418115,-19.79266 -77.418115,-68.18484 l 0,-331.91263 c 0,-58.65136 25.948177,-70.20515 77.418115,-70.20515 z" id="rect3802" inkscape:connector-curvature="0" sodipodi:nodetypes="sssssssss"/>
            <g id="g3791" transform="matrix(0.77307396,0,0,0.77307396,-49.815734,36.758778)">
              <path id="rect2996" d="m 33.335034,481.62601 161.624396,0 c 15.10987,0 27.27412,12.16425 27.27412,27.27412 l 0,161.6244 c 0,15.10986 -12.16425,27.27412 -27.27412,27.27412 l -161.624396,0 c -15.109862,0 -27.2741185,-12.16426 -27.2741185,-27.27412 l 0,-161.6244 c 0,-15.10987 12.1642565,-27.27412 27.2741185,-27.27412 z" style="fill:#edd400;stroke:#c4a000;stroke-width:12;stroke-miterlimit:4" inkscape:connector-curvature="0"/>
              <path inkscape:connector-curvature="0" id="path3767" d="m 112.12693,689.71742 0,-61.61931" style="fill:none;stroke:#000000;stroke-width:1px;stroke-linecap:butt;stroke-linejoin:miter;stroke-opacity:1"/>
              <path inkscape:connector-curvature="0" id="path3773" d="m 111.11678,487.68691 0,84.85281 -34.345187,0 0,60.60916 66.670067,0 0,-59.599 23.23351,-23.23351 48.48732,0" style="fill:none;stroke:#000000;stroke-width:7;stroke-linecap:butt;stroke-linejoin:miter;stroke-miterlimit:4;stroke-opacity:1;stroke-dasharray:none"/>
              <path inkscape:connector-curvature="0" id="path3775" d="m 75.761441,572.53972 -27.571335,-15.91831 -37.078428,0" style="fill:none;stroke:#000000;stroke-width:7;stroke-linecap:butt;stroke-linejoin:miter;stroke-miterlimit:4;stroke-opacity:1;stroke-dasharray:none"/>
              <path inkscape:connector-curvature="0" id="path3777" d="m 74.751288,599.81384 -62.629457,0" style="fill:none;stroke:#000000;stroke-width:7;stroke-linecap:butt;stroke-linejoin:miter;stroke-miterlimit:4;stroke-opacity:1;stroke-dasharray:none"/>
              <path inkscape:connector-curvature="0" id="path3779" d="m 75.761441,632.13872 -21.71828,21.71828 -43.941636,0" style="fill:none;stroke:#000000;stroke-width:7;stroke-linecap:butt;stroke-linejoin:miter;stroke-miterlimit:4;stroke-opacity:1;stroke-dasharray:none"/>
              <path inkscape:connector-curvature="0" id="path3781" d="m 142.43151,633.14888 20.70813,20.70812 51.0127,0" style="fill:none;stroke:#000000;stroke-width:7;stroke-linecap:butt;stroke-linejoin:miter;stroke-miterlimit:4;stroke-opacity:1;stroke-dasharray:none"/>
              <path inkscape:connector-curvature="0" id="path3785" d="m 143.44166,598.80369 71.72083,0" style="fill:none;stroke:#000000;stroke-width:7;stroke-linecap:butt;stroke-linejoin:miter;stroke-miterlimit:4;stroke-opacity:1;stroke-dasharray:none"/>
              <path inkscape:connector-curvature="0" style="fill:none;stroke:#2e3436;stroke-width:6.68315697;stroke-miterlimit:4;stroke-dasharray:none" d="m 36.992859,486.51835 154.308741,0 c 14.42595,0 26.03961,11.61366 26.03961,26.03961 l 0,154.30874 c 0,14.42594 -11.61366,26.03961 -26.03961,26.03961 l -154.308741,0 c -14.42594,0 -26.039602,-11.61367 -26.039602,-26.03961 l 0,-154.30874 c 0,-14.42595 11.613662,-26.03961 26.039602,-26.03961 z" id="path3787"/>
            </g>
            <path sodipodi:nodetypes="sssssssss" inkscape:connector-curvature="0" id="path3815" d="m -23.114485,256.20072 577.657525,0 c 56.59953,0 77.4181,22.83888 77.4181,70.20515 l 0,331.91263 c 0,40.18484 -2.35205,68.18484 -77.4181,68.18484 l -577.657525,0 c -62.755037,0 -77.418115,-19.79266 -77.418115,-68.18484 l 0,-331.91263 c 0,-58.65136 25.948177,-70.20515 77.418115,-70.20515 z" style="opacity:0.64723966;fill:none;stroke:#ffffff;stroke-width:17.26531982;stroke-linecap:round;stroke-linejoin:round;stroke-miterlimit:4;stroke-opacity:1;stroke-dasharray:none;stroke-dashoffset:0"/>
            <path inkscape:connector-curvature="0" id="rect3817" d="m -19.019405,310.16275 585.541485,0 c 13.38157,0 24.15446,3.60423 24.15446,8.08123 l 0,47.9619 c 0,4.47701 -10.77289,8.08124 -24.15446,8.08124 l -585.541485,0 c -13.381572,0 -24.154461,-3.60423 -24.154461,-8.08124 l 0,-47.9619 c 0,-4.477 10.772889,-8.08123 24.154461,-8.08123 z" style="opacity:0.42638035;fill:#eeeeec;stroke:#ffffff;stroke-width:11.46448326;stroke-linecap:round;stroke-linejoin:round;stroke-miterlimit:4;stroke-opacity:1;stroke-dashoffset:0"/>
            <path inkscape:connector-curvature="0" id="rect3819" d="m 226.04593,423.90826 343.90836,0 c 13.38157,0 24.15446,3.60423 24.15446,8.08124 l 0,42.70447 c 0,4.477 -10.77289,8.08123 -24.15446,8.08123 l -343.90836,0 c -13.38158,0 -24.15447,-3.60423 -24.15447,-8.08123 l 0,-42.70447 c 0,-4.47701 10.77289,-8.08124 24.15447,-8.08124 z" style="opacity:0.42638035;fill:#eeeeec;stroke:#ffffff;stroke-width:8.64069366;stroke-linecap:round;stroke-linejoin:round;stroke-miterlimit:4;stroke-opacity:1;stroke-dashoffset:0"/>
            <path inkscape:connector-curvature="0" id="rect3823" d="m 226.04593,523.90826 343.90836,0 c 13.38157,0 24.15446,3.60423 24.15446,8.08124 l 0,42.70447 c 0,4.477 -10.77289,8.08123 -24.15446,8.08123 l -343.90836,0 c -13.38158,0 -24.15447,-3.60423 -24.15447,-8.08123 l 0,-42.70447 c 0,-4.47701 10.77289,-8.08124 24.15447,-8.08124 z" style="opacity:0.42638035;fill:#eeeeec;stroke:#ffffff;stroke-width:8.64069366;stroke-linecap:round;stroke-linejoin:round;stroke-miterlimit:4;stroke-opacity:1;stroke-dashoffset:0"/>
          </g>
        </g>
      </g>
      <g transform="matrix(0.49965023,0,0,0.49965023,347.1437,353.30791)" id="layer1-6" inkscape:label="Ebene 1">
        <g id="g3948">
          <rect height="718.72583" id="rect2383" style="fill:none;stroke:none" width="718.72583" x="13.351353" y="142.85638"/>
          <path d="m 705.08649,515.97119 c 0,176.85171 -143.36664,320.21835 -320.21836,320.21835 -176.85171,0 -320.21835,-143.36664 -320.21835,-320.21835 0,-176.85171 143.36664,-320.21835 320.21835,-320.21835 176.85172,0 320.21836,143.36664 320.21836,320.21835 z" id="path3163" sodipodi:cx="384.86813" sodipodi:cy="515.97119" sodipodi:rx="320.21835" sodipodi:ry="320.21835" sodipodi:type="arc" style="fill:#cc0000;fill-opacity:1;fill-rule:evenodd;stroke:#a40000;stroke-width:29.08395386;stroke-linecap:butt;stroke-linejoin:miter;stroke-miterlimit:4;stroke-opacity:1;stroke-dasharray:none" transform="matrix(1.0314966,0,0,1.0314966,-22.223548,-26.352844)"/>
          <path d="m 705.08649,515.97119 c 0,176.85171 -143.36664,320.21835 -320.21836,320.21835 -176.85171,0 -320.21835,-143.36664 -320.21835,-320.21835 0,-176.85171 143.36664,-320.21835 320.21835,-320.21835 176.85172,0 320.21836,143.36664 320.21836,320.21835 z" id="path3165" sodipodi:cx="384.86813" sodipodi:cy="515.97119" sodipodi:rx="320.21835" sodipodi:ry="320.21835" sodipodi:type="arc" style="opacity:0.5;fill:none;stroke:#ffffff;stroke-width:29.08395386;stroke-linecap:butt;stroke-linejoin:miter;stroke-miterlimit:4;stroke-opacity:1;stroke-dasharray:none" transform="matrix(0.9442024,0,0,0.9442024,11.373207,18.688447)"/>
          <path inkscape:connector-curvature="0" d="m 705.08649,515.97119 c 0,60.54341 -3.72007,80.91433 -15.71464,81.52944 -23.02438,1.18075 -73.83203,-31.79665 -189.95584,-36.45291 C 353.18916,555.24261 161.69716,709.31451 94.998115,652.41284 80.262439,639.84167 64.64978,547.95614 64.64978,515.97119 c 0,-176.76053 143.45782,-320.21835 320.21835,-320.21835 176.76053,0 320.21836,143.45782 320.21836,320.21835 z" id="path3175" sodipodi:nodetypes="csssssc" style="opacity:0.34680134;fill:url(#linearGradient3198);fill-opacity:1;fill-rule:evenodd;stroke:none" transform="matrix(0.9843536,0,0,0.9843536,-4.0797004,-2.0284022)"/>
          <rect height="169.84805" id="rect3918" style="fill:#babdb6;fill-opacity:1;fill-rule:evenodd;stroke:#2e3436;stroke-width:21.81534767;stroke-linecap:butt;stroke-linejoin:round;stroke-miterlimit:4;stroke-opacity:1;stroke-dasharray:none" width="433.19046" x="160.83334" y="430.72388"/>
          <rect height="149.59094" id="rect3938" style="fill:url(#linearGradient3946);fill-opacity:1;fill-rule:evenodd;stroke:none" width="409.81689" x="171.74101" y="440.0733"/>
        </g>
      </g>
    </g>
  </g>
</svg>
