<?xml version="1.0" encoding="UTF-8" standalone="no"?>
<!-- Created with Inkscape (http://www.inkscape.org/) -->
<svg xmlns:dc="http://purl.org/dc/elements/1.1/" xmlns:cc="http://creativecommons.org/ns#" xmlns:rdf="http://www.w3.org/1999/02/22-rdf-syntax-ns#" xmlns:svg="http://www.w3.org/2000/svg" xmlns="http://www.w3.org/2000/svg" xmlns:xlink="http://www.w3.org/1999/xlink" xmlns:sodipodi="http://sodipodi.sourceforge.net/DTD/sodipodi-0.dtd" xmlns:inkscape="http://www.inkscape.org/namespaces/inkscape" width="210mm" height="297mm" id="svg5704" version="1.1" inkscape:version="0.48.2 r9819" inkscape:export-xdpi="4.0799999" inkscape:export-ydpi="4.0799999">
  <title id="title6519">dinosaur</title>
  <defs id="defs3">
    <linearGradient inkscape:collect="always" id="linearGradient6493">
      <stop style="stop-color:#2e3436;stop-opacity:1;" offset="0" id="stop6495"/>
      <stop style="stop-color:#2e3436;stop-opacity:0;" offset="1" id="stop6497"/>
    </linearGradient>
    <linearGradient inkscape:collect="always" id="linearGradient6452">
      <stop style="stop-color:#ffffff;stop-opacity:1;" offset="0" id="stop6454"/>
      <stop style="stop-color:#ffffff;stop-opacity:0;" offset="1" id="stop6456"/>
    </linearGradient>
    <linearGradient inkscape:collect="always" id="linearGradient6366">
      <stop style="stop-color:#ffffff;stop-opacity:1;" offset="0" id="stop6368"/>
      <stop style="stop-color:#ffffff;stop-opacity:0;" offset="1" id="stop6370"/>
    </linearGradient>
    <linearGradient inkscape:collect="always" id="linearGradient6295">
      <stop style="stop-color:#ffffff;stop-opacity:1;" offset="0" id="stop6297"/>
      <stop style="stop-color:#ffffff;stop-opacity:0;" offset="1" id="stop6299"/>
    </linearGradient>
    <linearGradient inkscape:collect="always" xlink:href="#linearGradient6295" id="linearGradient6301" x1="30.499538" y1="475.21731" x2="721.70971" y2="475.21731" gradientUnits="userSpaceOnUse"/>
    <linearGradient inkscape:collect="always" xlink:href="#linearGradient6366" id="linearGradient6435" gradientUnits="userSpaceOnUse" gradientTransform="matrix(0.86619188,0,0,0.86619188,100.0249,149.79289)" x1="213.58453" y1="661.6478" x2="262.12976" y2="661.6478"/>
    <linearGradient inkscape:collect="always" xlink:href="#linearGradient6366" id="linearGradient6438" gradientUnits="userSpaceOnUse" gradientTransform="matrix(0.86619188,0,0,0.86619188,-70.44603,147.21651)" x1="213.58453" y1="661.6478" x2="262.12976" y2="661.6478"/>
    <linearGradient inkscape:collect="always" xlink:href="#linearGradient6366" id="linearGradient6442" gradientUnits="userSpaceOnUse" gradientTransform="matrix(0.86619188,0,0,0.86619188,-22.696993,135.62277)" x1="213.58453" y1="661.6478" x2="262.12976" y2="661.6478"/>
    <linearGradient inkscape:collect="always" xlink:href="#linearGradient6366" id="linearGradient6447" gradientUnits="userSpaceOnUse" gradientTransform="matrix(0.86619188,0,0,0.86619188,143.82347,126.17601)" x1="213.58453" y1="661.6478" x2="262.12976" y2="661.6478"/>
    <linearGradient inkscape:collect="always" xlink:href="#linearGradient6452" id="linearGradient6458" x1="-37.003113" y1="337.06595" x2="239.36253" y2="528.49451" gradientUnits="userSpaceOnUse"/>
    <linearGradient inkscape:collect="always" xlink:href="#linearGradient6366" id="linearGradient6481" gradientUnits="userSpaceOnUse" gradientTransform="matrix(0.86619188,0,0,0.86619188,143.82347,126.17601)" x1="213.58453" y1="661.6478" x2="262.12976" y2="661.6478"/>
    <linearGradient inkscape:collect="always" xlink:href="#linearGradient6366" id="linearGradient6483" gradientUnits="userSpaceOnUse" gradientTransform="matrix(0.86619188,0,0,0.86619188,-22.696993,135.62277)" x1="213.58453" y1="661.6478" x2="262.12976" y2="661.6478"/>
    <linearGradient inkscape:collect="always" xlink:href="#linearGradient6366" id="linearGradient6485" gradientUnits="userSpaceOnUse" gradientTransform="matrix(0.86619188,0,0,0.86619188,-70.44603,147.21651)" x1="213.58453" y1="661.6478" x2="262.12976" y2="661.6478"/>
    <linearGradient inkscape:collect="always" xlink:href="#linearGradient6366" id="linearGradient6487" gradientUnits="userSpaceOnUse" gradientTransform="matrix(0.86619188,0,0,0.86619188,100.0249,149.79289)" x1="213.58453" y1="661.6478" x2="262.12976" y2="661.6478"/>
    <linearGradient inkscape:collect="always" xlink:href="#linearGradient6452" id="linearGradient6489" gradientUnits="userSpaceOnUse" x1="-37.003113" y1="337.06595" x2="239.36253" y2="528.49451"/>
    <radialGradient inkscape:collect="always" xlink:href="#linearGradient6493" id="radialGradient6499" cx="358.57144" cy="780.93359" fx="358.57144" fy="780.93359" r="350.64285" gradientTransform="matrix(1,0,0,0.16479935,0,652.23625)" gradientUnits="userSpaceOnUse"/>
  </defs>
  <sodipodi:namedview inkscape:document-units="mm" id="base" pagecolor="#ffffff" bordercolor="#666666" borderopacity="1.0" inkscape:pageopacity="0.0" inkscape:pageshadow="2" inkscape:zoom="0.35" inkscape:cx="503.221" inkscape:cy="578.38459" inkscape:current-layer="layer1" showgrid="false" showguides="true" inkscape:guide-bbox="true" inkscape:window-width="1252" inkscape:window-height="672" inkscape:window-x="20" inkscape:window-y="20" inkscape:window-maximized="0" inkscape:snap-global="false">
    <sodipodi:guide orientation="0,1" position="814.18295,943.48248" id="guide6220"/>
    <sodipodi:guide orientation="0,1" position="864.69058,236.3757" id="guide6222"/>
    <sodipodi:guide orientation="1,0" position="723.26922,163.64471" id="guide6224"/>
    <sodipodi:guide orientation="1,0" position="16.162441,133.34014" id="guide6226"/>
  </sodipodi:namedview>
  <metadata id="metadata4">
    <rdf:RDF>
      <cc:Work rdf:about="">
        <dc:format>image/svg+xml</dc:format>
        <dc:type rdf:resource="http://purl.org/dc/dcmitype/StillImage"/>
        <dc:title>dinosaur</dc:title>
        <dc:date>May 2014</dc:date>
        <dc:creator>
          <cc:Agent>
            <dc:title>Franziska Sponsel</dc:title>
          </cc:Agent>
        </dc:creator>
        <dc:rights>
          <cc:Agent>
            <dc:title>Franziska Sponsel</dc:title>
          </cc:Agent>
        </dc:rights>
        <dc:publisher>
          <cc:Agent>
            <dc:title>RRZE</dc:title>
          </cc:Agent>
        </dc:publisher>
        <dc:subject>
          <rdf:Bag>
            <rdf:li>dinosaur</rdf:li>
            <rdf:li>old</rdf:li>
            <rdf:li>extinct</rdf:li>
            <rdf:li>herby the herbivore</rdf:li>
          </rdf:Bag>
        </dc:subject>
        <dc:contributor>
          <cc:Agent>
            <dc:title>Martin Fischer</dc:title>
          </cc:Agent>
        </dc:contributor>
        <cc:license rdf:resource="http://creativecommons.org/licenses/by-sa/3.0/"/>
      </cc:Work>
      <cc:License rdf:about="http://creativecommons.org/licenses/by-sa/3.0/">
        <cc:permits rdf:resource="http://creativecommons.org/ns#Reproduction"/>
        <cc:permits rdf:resource="http://creativecommons.org/ns#Distribution"/>
        <cc:requires rdf:resource="http://creativecommons.org/ns#Notice"/>
        <cc:requires rdf:resource="http://creativecommons.org/ns#Attribution"/>
        <cc:permits rdf:resource="http://creativecommons.org/ns#DerivativeWorks"/>
        <cc:requires rdf:resource="http://creativecommons.org/ns#ShareAlike"/>
      </cc:License>
    </rdf:RDF>
  </metadata>
  <g inkscape:label="Layer 1" inkscape:groupmode="layer" id="layer1">
    <g id="g6501">
      <path transform="matrix(0.9218107,0,0,1,15.179308,-48.571429)" d="m 705.71429,780.93359 a 347.14285,54.285713 0 1 1 -694.285701,0 347.14285,54.285713 0 1 1 694.285701,0 z" sodipodi:ry="54.285713" sodipodi:rx="347.14285" sodipodi:cy="780.93359" sodipodi:cx="358.57144" id="path6491" style="fill:url(#radialGradient6499);fill-opacity:1;stroke:none" sodipodi:type="arc"/>
      <path id="rect5710" d="m 17.142857,109.50504 705.714293,0 0,705.7143 -705.714293,0 z" style="fill:none;stroke:none"/>
      <g transform="translate(-1.4285714,-37.142857)" id="g6466">
        <path inkscape:connector-curvature="0" style="fill:#4e9a06;fill-opacity:1;stroke:#2e3436;stroke-width:10.82082462;stroke-linejoin:miter;stroke-miterlimit:4;stroke-opacity:1" d="m 346.16719,604.15121 8.23122,0 c 12.22231,0 22.06191,9.8396 22.06191,22.06189 l 0,114.72187 c 0,12.22231 -9.8396,22.06191 -22.06191,22.06191 l -8.23122,0 c -12.22229,0 -22.06189,-9.8396 -22.06189,-22.06191 l 0,-114.72187 c 0,-12.22229 9.8396,-22.06189 22.06189,-22.06189 z" id="rect6355"/>
        <path inkscape:connector-curvature="0" style="opacity:0.60377359;fill:url(#linearGradient6481);fill-opacity:1;stroke:#ffffff;stroke-width:4.33095932;stroke-linejoin:miter;stroke-miterlimit:4;stroke-opacity:1;stroke-dasharray:none" d="m 346.88835,642.07078 5.93009,0 c 8.80539,0 15.89422,7.08882 15.89422,15.89421 l 0,82.64995 c 0,8.8054 -7.08883,15.89422 -15.89422,15.89422 l -5.93009,0 c -8.80538,0 -15.89421,-7.08882 -15.89421,-15.89422 l 0,-82.64995 c 0,-8.80539 7.08883,-15.89421 15.89421,-15.89421 z" id="path6382"/>
        <path inkscape:connector-curvature="0" style="fill:#4e9a06;fill-opacity:1;stroke:#2e3436;stroke-width:10.82082462;stroke-linejoin:miter;stroke-miterlimit:4;stroke-opacity:1" d="m 301.50983,628.19748 8.23122,0 c 12.22229,0 22.06191,9.83961 22.06191,22.0619 l 0,114.72187 c 0,12.2223 -9.83962,22.06191 -22.06191,22.06191 l -8.23122,0 c -12.22229,0 -22.0619,-9.83961 -22.0619,-22.06191 l 0,-114.72187 c 0,-12.22229 9.83961,-22.0619 22.0619,-22.0619 z" id="rect6353"/>
        <path style="fill:#4e9a06;fill-opacity:1;stroke:#2e3436;stroke-width:10.82082462;stroke-linejoin:miter;stroke-miterlimit:4;stroke-opacity:1" d="m 179.21733,614.45673 8.23123,0 c 12.22229,0 22.06189,9.83961 22.06189,22.0619 l 0,114.72188 c 0,12.22229 -9.8396,22.06189 -22.06189,22.06189 l -8.23123,0 c -12.22229,0 -22.0619,-9.8396 -22.0619,-22.06189 l 0,-114.72188 c 0,-12.22229 9.83961,-22.0619 22.0619,-22.0619 z" id="rect6351" inkscape:connector-curvature="0"/>
        <path inkscape:connector-curvature="0" style="opacity:0.60377359;fill:url(#linearGradient6483);fill-opacity:1;stroke:#ffffff;stroke-width:4.33095932;stroke-linejoin:miter;stroke-miterlimit:4;stroke-opacity:1;stroke-dasharray:none" d="m 180.36789,651.51754 5.93009,0 c 8.80539,0 15.89422,7.08882 15.89422,15.89421 l 0,82.64995 c 0,8.8054 -7.08883,15.89422 -15.89422,15.89422 l -5.93009,0 c -8.80538,0 -15.89421,-7.08882 -15.89421,-15.89422 l 0,-82.64995 c 0,-8.80539 7.08883,-15.89421 15.89421,-15.89421 z" id="path6374"/>
        <path inkscape:connector-curvature="0" style="fill:#4e9a06;fill-opacity:1;stroke:#2e3436;stroke-width:10.82082462;stroke-linejoin:miter;stroke-miterlimit:4;stroke-opacity:1" d="m 131.46829,626.47987 8.23122,0 c 12.22229,0 22.0619,9.8396 22.0619,22.06189 l 0,114.72189 c 0,12.22229 -9.83961,22.06189 -22.0619,22.06189 l -8.23122,0 c -12.22229,0 -22.06191,-9.8396 -22.06191,-22.06189 l 0,-114.72189 c 0,-12.22229 9.83962,-22.06189 22.06191,-22.06189 z" id="rect6349"/>
        <path id="path6364" d="m 132.61885,663.11128 5.93009,0 c 8.80539,0 15.89422,7.08882 15.89422,15.89422 l 0,82.64995 c 0,8.80539 -7.08883,15.89421 -15.89422,15.89421 l -5.93009,0 c -8.80538,0 -15.89421,-7.08882 -15.89421,-15.89421 l 0,-82.64995 c 0,-8.8054 7.08883,-15.89422 15.89421,-15.89422 z" style="opacity:0.60377359;fill:url(#linearGradient6485);fill-opacity:1;stroke:#ffffff;stroke-width:4.33095932;stroke-linejoin:miter;stroke-miterlimit:4;stroke-opacity:1;stroke-dasharray:none" inkscape:connector-curvature="0"/>
        <path id="path6378" d="m 303.08978,665.68766 5.93009,0 c 8.80539,0 15.89422,7.08882 15.89422,15.89422 l 0,82.64994 c 0,8.8054 -7.08883,15.89422 -15.89422,15.89422 l -5.93009,0 c -8.80538,0 -15.89421,-7.08882 -15.89421,-15.89422 l 0,-82.64994 c 0,-8.8054 7.08883,-15.89422 15.89421,-15.89422 z" style="opacity:0.60377359;fill:url(#linearGradient6487);fill-opacity:1;stroke:#ffffff;stroke-width:4.33095932;stroke-linejoin:miter;stroke-miterlimit:4;stroke-opacity:1;stroke-dasharray:none" inkscape:connector-curvature="0"/>
        <path style="fill:#4e9a06;stroke:#2e3436;stroke-width:12.488204;stroke-linecap:butt;stroke-linejoin:round;stroke-miterlimit:4;stroke-opacity:1;stroke-dasharray:none" d="M 254.4197,254.12013 C 227.01924,238.28799 73.614667,377.18067 97.601957,516.19729 c 6.554653,37.98709 140.967083,-92.14347 247.124113,-28.79854 74.50942,44.46049 133.3814,201.88458 207.26347,247.3799 90.24042,55.56851 161.12888,-28.89281 161.12888,-28.89281 0,0 -29.40752,110.85944 -136.56479,87.80944 -19.36216,-4.16489 -179.94524,-87.3852 -199.7158,-88.55322 C 319.79081,701.7719 224.38149,726.77817 168.8609,713.24342 13.142863,675.28259 25.468419,547.20157 33.234236,479.97386 47.298663,358.22001 156.2073,189.30587 296.05676,183.0932 c 74.66832,-3.31705 102.03161,80.23021 66.06955,104.0256 -44.71002,29.58374 -79.52246,6.10279 -107.70661,-32.99867 z" id="path6239" inkscape:connector-curvature="0" sodipodi:nodetypes="cssscssssssc"/>
        <path sodipodi:nodetypes="cssscssssssc" inkscape:connector-curvature="0" id="path6450" d="M 254.92478,242.50338 C 212.5891,235.85564 56.901631,383.00966 90.530889,524.78359 100.88077,568.41652 243.11473,432.64012 343.21084,498.00535 c 72.64807,47.44099 128.01854,199.36489 202.21271,244.34944 81.65412,49.5076 144.96644,-7.6796 144.96644,-7.6796 0,0 -30.41767,66.9178 -114.84651,49.42364 -19.3931,-4.01837 -176.40971,-87.89028 -196.18027,-89.0583 -57.04702,-3.37016 -149.22849,22.31431 -204.94647,9.61659 C 27.790075,671.24198 34.054716,549.22188 41.820533,481.99417 55.88496,360.24032 169.84436,195.36679 293.53138,192.68965 c 74.72446,-1.61737 87.72583,71.5991 64.04924,86.34793 -49.97811,31.1328 -73.96661,-8.03934 -102.65584,-36.5342 z" style="opacity:0.6006289;fill:url(#linearGradient6489);fill-opacity:1;stroke:#ffffff;stroke-width:7;stroke-linecap:butt;stroke-linejoin:round;stroke-miterlimit:4;stroke-opacity:1;stroke-dasharray:none"/>
        <path sodipodi:type="arc" style="fill:#ffffff;fill-opacity:1;stroke:#2e3436;stroke-width:5;stroke-linejoin:miter;stroke-miterlimit:4;stroke-opacity:1;stroke-dasharray:none" id="path6460" sodipodi:cx="318.57144" sodipodi:cy="227.36218" sodipodi:rx="8.5714283" sodipodi:ry="8.5714283" d="m 327.14287,227.36218 c 0,4.73387 -3.83756,8.57143 -8.57143,8.57143 -4.73387,0 -8.57143,-3.83756 -8.57143,-8.57143 0,-4.73387 3.83756,-8.57143 8.57143,-8.57143 4.73387,0 8.57143,3.83756 8.57143,8.57143 z"/>
        <path d="m 327.14287,227.36218 c 0,4.73387 -3.83756,8.57143 -8.57143,8.57143 -4.73387,0 -8.57143,-3.83756 -8.57143,-8.57143 0,-4.73387 3.83756,-8.57143 8.57143,-8.57143 4.73387,0 8.57143,3.83756 8.57143,8.57143 z" sodipodi:ry="8.5714283" sodipodi:rx="8.5714283" sodipodi:cy="227.36218" sodipodi:cx="318.57144" id="path6462" style="fill:#2e3436;fill-opacity:1;stroke:#2e3436;stroke-width:5;stroke-linejoin:miter;stroke-miterlimit:4;stroke-opacity:1;stroke-dasharray:none" sodipodi:type="arc" transform="matrix(0.48387095,0,0,0.48387095,167.9954,120.20537)"/>
        <path style="fill:none;stroke:#2e3436;stroke-width:7;stroke-linecap:round;stroke-linejoin:round;stroke-miterlimit:4;stroke-opacity:1;stroke-dasharray:none" d="m 352.14285,292.36218 c -26.5381,-13.38094 -55.31004,-5.81557 -69.28571,-37.14285" id="path6464" inkscape:connector-curvature="0" sodipodi:nodetypes="cc"/>
      </g>
    </g>
  </g>
</svg>
