<?xml version="1.0" encoding="UTF-8" standalone="no"?>
<!-- Created with Inkscape (http://www.inkscape.org/) -->
<svg xmlns:dc="http://purl.org/dc/elements/1.1/" xmlns:cc="http://creativecommons.org/ns#" xmlns:rdf="http://www.w3.org/1999/02/22-rdf-syntax-ns#" xmlns:svg="http://www.w3.org/2000/svg" xmlns="http://www.w3.org/2000/svg" xmlns:xlink="http://www.w3.org/1999/xlink" xmlns:sodipodi="http://sodipodi.sourceforge.net/DTD/sodipodi-0.dtd" xmlns:inkscape="http://www.inkscape.org/namespaces/inkscape" width="210mm" height="297mm" id="svg3301" version="1.1" inkscape:version="0.48.0 r9654">
  <title id="title3834">dollar</title>
  <defs id="defs3">
    <linearGradient inkscape:collect="always" id="linearGradient3796">
      <stop style="stop-color:#000000;stop-opacity:1;" offset="0" id="stop3798"/>
      <stop style="stop-color:#000000;stop-opacity:0;" offset="1" id="stop3800"/>
    </linearGradient>
    <linearGradient inkscape:collect="always" id="linearGradient4143">
      <stop style="stop-color:#ffffff;stop-opacity:1;" offset="0" id="stop4145"/>
      <stop style="stop-color:#ffffff;stop-opacity:0;" offset="1" id="stop4147"/>
    </linearGradient>
    <linearGradient inkscape:collect="always" id="linearGradient4110">
      <stop style="stop-color:#ffffff;stop-opacity:1;" offset="0" id="stop4112"/>
      <stop style="stop-color:#ffffff;stop-opacity:0;" offset="1" id="stop4114"/>
    </linearGradient>
    <linearGradient inkscape:collect="always" xlink:href="#linearGradient4110" id="linearGradient4116" x1="98.470001" y1="250.04745" x2="232.38554" y2="442.32819" gradientUnits="userSpaceOnUse"/>
    <linearGradient inkscape:collect="always" xlink:href="#linearGradient4110" id="linearGradient4118" gradientUnits="userSpaceOnUse" x1="64.95318" y1="369.4144" x2="237.67768" y2="369.4144"/>
    <linearGradient inkscape:collect="always" xlink:href="#linearGradient4143" id="linearGradient4149" x1="317.01448" y1="489.50504" x2="431.55694" y2="489.50504" gradientUnits="userSpaceOnUse" gradientTransform="matrix(0.78474542,0,0,0.96686678,376.5414,35.411781)"/>
    <radialGradient inkscape:collect="always" xlink:href="#linearGradient3796" id="radialGradient3802" cx="378.80719" cy="826.08801" fx="378.80719" fy="826.08801" r="211.12189" gradientTransform="matrix(1,0,0,0.13397129,0,715.41594)" gradientUnits="userSpaceOnUse"/>
    <radialGradient inkscape:collect="always" xlink:href="#linearGradient3796" id="radialGradient3818" gradientUnits="userSpaceOnUse" gradientTransform="matrix(1,0,0,0.13397129,0,715.41594)" cx="378.80719" cy="826.08801" fx="378.80719" fy="826.08801" r="211.12189"/>
    <linearGradient inkscape:collect="always" xlink:href="#linearGradient4110" id="linearGradient3820" gradientUnits="userSpaceOnUse" x1="64.95318" y1="369.4144" x2="237.67768" y2="369.4144"/>
    <linearGradient inkscape:collect="always" xlink:href="#linearGradient4110" id="linearGradient3822" gradientUnits="userSpaceOnUse" x1="98.470001" y1="250.04745" x2="232.38554" y2="442.32819"/>
  </defs>
  <sodipodi:namedview inkscape:document-units="mm" id="base" pagecolor="#ffffff" bordercolor="#666666" borderopacity="1.0" inkscape:pageopacity="0.0" inkscape:pageshadow="2" inkscape:zoom="0.49497475" inkscape:cx="-195.53815" inkscape:cy="528.36837" inkscape:current-layer="layer1" showgrid="false" showguides="true" inkscape:guide-bbox="true" inkscape:snap-global="false" inkscape:window-width="1174" inkscape:window-height="669" inkscape:window-x="20" inkscape:window-y="20" inkscape:window-maximized="0">
    <sodipodi:guide orientation="0,1" position="985.90888,899.03576" id="guide3309"/>
    <sodipodi:guide orientation="0,1" position="-25.714286,188.57143" id="guide3311"/>
    <sodipodi:guide orientation="1,0" position="728.57143,138.57143" id="guide3313"/>
    <sodipodi:guide orientation="1,0" position="17.142857,141.42857" id="guide3315"/>
    <sodipodi:guide orientation="1,0" position="373.75644,1000.051" id="guide4104"/>
    <sodipodi:guide orientation="1,0" position="333.85542,294.45947" id="guide3022"/>
    <sodipodi:guide orientation="1,0" position="408.10163,294.96454" id="guide3024"/>
  </sodipodi:namedview>
  <metadata id="metadata4">
    <rdf:RDF>
      <cc:Work rdf:about="">
        <dc:format>image/svg+xml</dc:format>
        <dc:type rdf:resource="http://purl.org/dc/dcmitype/StillImage"/>
        <dc:title>dollar</dc:title>
        <dc:date>Feb 2014</dc:date>
        <dc:creator>
          <cc:Agent>
            <dc:title>Franziska Sponsel</dc:title>
          </cc:Agent>
        </dc:creator>
        <dc:rights>
          <cc:Agent>
            <dc:title>Franziska Sponsel</dc:title>
          </cc:Agent>
        </dc:rights>
        <dc:publisher>
          <cc:Agent>
            <dc:title>RRZE</dc:title>
          </cc:Agent>
        </dc:publisher>
        <dc:subject>
          <rdf:Bag>
            <rdf:li>dollar</rdf:li>
            <rdf:li>sign</rdf:li>
            <rdf:li>money</rdf:li>
            <rdf:li>scholarship</rdf:li>
            <rdf:li>richie rich</rdf:li>
            <rdf:li>pot o' gold</rdf:li>
          </rdf:Bag>
        </dc:subject>
        <cc:license rdf:resource="http://creativecommons.org/licenses/by-sa/3.0/"/>
      </cc:Work>
      <cc:License rdf:about="http://creativecommons.org/licenses/by-sa/3.0/">
        <cc:permits rdf:resource="http://creativecommons.org/ns#Reproduction"/>
        <cc:permits rdf:resource="http://creativecommons.org/ns#Distribution"/>
        <cc:requires rdf:resource="http://creativecommons.org/ns#Notice"/>
        <cc:requires rdf:resource="http://creativecommons.org/ns#Attribution"/>
        <cc:permits rdf:resource="http://creativecommons.org/ns#DerivativeWorks"/>
        <cc:requires rdf:resource="http://creativecommons.org/ns#ShareAlike"/>
      </cc:License>
    </rdf:RDF>
  </metadata>
  <g inkscape:label="Layer 1" inkscape:groupmode="layer" id="layer1">
    <g id="g3824">
      <path id="rect3307" d="m 17.142857,152.36218 711.428593,0 0,711.42859 -711.428593,0 z" style="opacity:0;fill:none;stroke:none"/>
      <g transform="matrix(0.93787247,0,0,0.93787247,24.187244,48.621462)" id="g3804">
        <path sodipodi:type="arc" style="opacity:0.76619705;fill:url(#radialGradient3818);fill-opacity:1;stroke:none" id="path3026" sodipodi:cx="378.80719" sodipodi:cy="826.08801" sodipodi:rx="211.12189" sodipodi:ry="28.284271" d="m 589.92908,826.08801 c 0,15.62097 -94.52249,28.28427 -211.12189,28.28427 -116.5994,0 -211.12189,-12.6633 -211.12189,-28.28427 0,-15.62097 94.52249,-28.28427 211.12189,-28.28427 116.5994,0 211.12189,12.6633 211.12189,28.28427 z" transform="translate(-6,6)"/>
        <path inkscape:connector-curvature="0" style="fill:#4e9a06;fill-opacity:1;stroke:#4e9a06;stroke-width:16.47800064;stroke-linecap:butt;stroke-linejoin:round;stroke-miterlimit:4;stroke-opacity:1;stroke-dashoffset:22.80179958" d="m 348.11062,140.47281 52.35018,0 c 12.66285,0 22.85714,10.19428 22.85714,22.85714 l 0,652.35017 c 0,12.66286 -10.19429,22.85714 -22.85714,22.85714 l -52.35018,0 c -12.66286,0 -22.85714,-10.19428 -22.85714,-22.85714 l 0,-652.35017 c 0,-12.66286 10.19428,-22.85714 22.85714,-22.85714 z" id="rect4139"/>
        <g transform="matrix(2.4294834,0,0,2.4294834,6.994127,-401.34613)" style="font-size:300px;font-style:normal;font-weight:normal;line-height:125%;letter-spacing:0px;word-spacing:0px;fill:#4e9a06;fill-opacity:1;stroke:#4e9a06;stroke-width:18.76942253;stroke-linejoin:round;stroke-miterlimit:4;stroke-opacity:1;stroke-dasharray:none;font-family:Sans" id="flowRoot4093">
          <path d="m 215.10937,267.09506 0,28.85742 c -11.23061,-5.3709 -21.82631,-9.37481 -31.7871,-12.01172 -9.96106,-2.63652 -19.58019,-3.95488 -28.85743,-3.95507 -16.11336,1.9e-4 -28.56452,3.12519 -37.35351,9.375 -8.69146,6.25018 -13.03716,15.13689 -13.03711,26.66015 -5e-5,9.66812 2.88081,16.99234 8.64258,21.97266 5.85931,4.88295 16.89445,8.83802 33.10547,11.86523 l 17.87109,3.66211 c 22.07018,4.19934 38.32993,11.62121 48.7793,22.26563 10.5467,10.54696 15.82014,24.70711 15.82031,42.48047 -1.7e-4,21.19144 -7.12907,37.25588 -21.38672,48.19336 -14.16029,10.9375 -34.96105,16.40624 -62.40234,16.40625 -10.35165,-1e-5 -21.38679,-1.17188 -33.10547,-3.51563 -11.621141,-2.34375 -23.681676,-5.81054 -36.181643,-10.40039 l 0,-30.46875 c 12.011686,6.73831 23.779252,11.81643 35.302733,15.23437 11.52337,3.41799 22.85148,5.12698 33.98438,5.12696 16.89442,2e-5 29.93152,-3.32029 39.11132,-9.96094 9.17955,-6.64059 13.76939,-16.11324 13.76954,-28.41797 -1.5e-4,-10.74212 -3.32046,-19.14055 -9.96094,-25.19531 -6.5431,-6.0546 -17.3341,-10.59561 -32.37305,-13.62305 l -18.01758,-3.51562 c -22.07037,-4.39443 -38.037151,-11.27919 -47.900388,-20.6543 -9.863305,-9.37487 -14.794941,-22.41197 -14.794921,-39.11133 -2e-5,-19.33576 6.787082,-34.57012 20.361328,-45.70312 13.671821,-11.1326 32.470631,-16.699 56.396481,-16.69922 10.2538,2.2e-4 20.70301,0.92795 31.34766,2.7832 10.64439,1.85569 21.53305,4.63889 32.66601,8.34961" id="path4102" inkscape:connector-curvature="0" style="fill:#4e9a06;stroke:#4e9a06;stroke-width:18.76942253;stroke-linejoin:round;stroke-miterlimit:4;stroke-opacity:1;stroke-dasharray:none"/>
        </g>
        <g id="g4106" style="font-size:300px;font-style:normal;font-weight:normal;line-height:125%;letter-spacing:0px;word-spacing:0px;opacity:0.82515337;fill:#73d216;fill-opacity:1;stroke:url(#linearGradient3822);stroke-width:7.16201639;stroke-linejoin:round;stroke-miterlimit:4;stroke-opacity:1;stroke-dasharray:none;font-family:Sans" transform="matrix(2.4294834,0,0,2.4294834,6.994127,-401.34613)">
          <path style="fill:#73d216;stroke:url(#linearGradient3820);stroke-width:7.16201639;stroke-linejoin:round;stroke-miterlimit:4;stroke-opacity:1;stroke-dasharray:none" inkscape:connector-curvature="0" id="path4108" d="m 135.04231,281.86116 c -7.0959,1.54512 -13.07289,4.04496 -17.93098,7.49953 -8.69146,6.25018 -13.03716,15.13689 -13.03711,26.66015 -5e-5,9.66812 2.88081,16.99234 8.64258,21.97266 4.4553,3.7129 11.90316,6.88932 22.34359,9.52927 z m 29.92779,174.9644 c 7.38166,-1.64358 13.5967,-4.29137 18.64513,-7.94339 9.17961,-6.64051 13.76939,-16.11324 13.76954,-28.41797 -1.5e-4,-10.74212 -3.32046,-19.14055 -9.96094,-25.19531 -4.92761,-4.55972 -12.26445,-8.26099 -22.01055,-11.10382 -0.28469,16.73902 -0.44318,72.66049 -0.44318,72.66049 z m -30.48117,-79.2187 c -20.75731,-4.40969 -35.876007,-11.12 -45.356118,-20.13094 -9.863305,-9.37487 -14.794941,-22.41197 -14.794921,-39.11133 -2e-5,-19.33576 6.787082,-34.57012 20.361328,-45.70312 10.408561,-8.47541 24.229741,-13.72466 40.581531,-15.74774 1.04434,-27.4552 -3.20384,-28.73587 15.78973,-28.66234 18.99357,0.0735 13.55956,1.7176 14.481,28.31489 5.57486,0.4617 11.20548,1.18809 16.89188,2.17917 10.64439,1.85569 21.53305,4.63889 32.66601,8.34961 l 0,28.85742 c -11.23061,-5.3709 -21.82631,-9.37481 -31.7871,-12.01172 -6.25229,-1.65487 -12.36987,-2.79042 -18.35274,-3.40665 l 0.38699,73.40252 c 0,0 36.66677,11.20542 47.11614,21.84984 10.5467,10.54696 15.82014,24.70711 15.82031,42.48047 -1.7e-4,21.19144 -7.12907,37.25588 -21.38672,48.19336 -10.3329,7.9812 -24.2017,13.05044 -41.60641,15.20767 -0.62579,27.20167 2.21247,25.63173 -13.93541,25.52224 -14.0829,-0.0955 -16.58954,4.04086 -16.8788,-24.67473 -7.37595,-0.5066 -15.07167,-1.56145 -23.08719,-3.16456 -11.621141,-2.34375 -23.681676,-5.81054 -36.181643,-10.40039 l 0,-30.46875 c 12.011686,6.73831 23.779275,11.81635 35.302733,15.23437 8.11755,2.40778 16.1382,3.96748 24.06198,4.67911 0,0 -0.29317,-47.97075 -0.0926,-80.7884 z" sodipodi:nodetypes="ccsccccsccccccscczcccccccccccsccccsccc"/>
        </g>
      </g>
    </g>
  </g>
</svg>
