<?xml version="1.0" encoding="UTF-8" standalone="no"?>
<!-- Created with Inkscape (http://www.inkscape.org/) -->
<svg xmlns:dc="http://purl.org/dc/elements/1.1/" xmlns:cc="http://creativecommons.org/ns#" xmlns:rdf="http://www.w3.org/1999/02/22-rdf-syntax-ns#" xmlns:svg="http://www.w3.org/2000/svg" xmlns="http://www.w3.org/2000/svg" xmlns:xlink="http://www.w3.org/1999/xlink" xmlns:sodipodi="http://sodipodi.sourceforge.net/DTD/sodipodi-0.dtd" xmlns:inkscape="http://www.inkscape.org/namespaces/inkscape" width="210mm" height="297mm" id="svg279202" version="1.1" inkscape:version="0.48.0 r9654">
  <title id="title280175">event indfinite</title>
  <defs id="defs3">
    <linearGradient inkscape:collect="always" id="linearGradient280154">
      <stop style="stop-color:#2e3436;stop-opacity:1;" offset="0" id="stop280156"/>
      <stop style="stop-color:#2e3436;stop-opacity:0;" offset="1" id="stop280158"/>
    </linearGradient>
    <linearGradient inkscape:collect="always" id="linearGradient280135">
      <stop style="stop-color:#ffffff;stop-opacity:1;" offset="0" id="stop280137"/>
      <stop style="stop-color:#ffffff;stop-opacity:0;" offset="1" id="stop280139"/>
    </linearGradient>
    <linearGradient inkscape:collect="always" id="linearGradient280110">
      <stop style="stop-color:#555753;stop-opacity:1;" offset="0" id="stop280112"/>
      <stop style="stop-color:#555753;stop-opacity:0;" offset="1" id="stop280114"/>
    </linearGradient>
    <linearGradient inkscape:collect="always" id="linearGradient280100">
      <stop style="stop-color:#eeeeec;stop-opacity:1;" offset="0" id="stop280102"/>
      <stop style="stop-color:#eeeeec;stop-opacity:0;" offset="1" id="stop280104"/>
    </linearGradient>
    <linearGradient inkscape:collect="always" id="linearGradient280092">
      <stop style="stop-color:#2e3436;stop-opacity:1;" offset="0" id="stop280094"/>
      <stop style="stop-color:#2e3436;stop-opacity:0;" offset="1" id="stop280096"/>
    </linearGradient>
    <linearGradient id="linearGradient280064">
      <stop style="stop-color:#d3d7cf;stop-opacity:1;" offset="0" id="stop280066"/>
      <stop style="stop-color:#000000;stop-opacity:1;" offset="1" id="stop280068"/>
    </linearGradient>
    <linearGradient id="linearGradient280056">
      <stop style="stop-color:#d3d7cf;stop-opacity:1;" offset="0" id="stop280058"/>
      <stop style="stop-color:#eeeeec;stop-opacity:1;" offset="1" id="stop280060"/>
    </linearGradient>
    <linearGradient id="linearGradient280048">
      <stop style="stop-color:#eeeeec;stop-opacity:0" offset="0" id="stop280050"/>
      <stop style="stop-color:#000000;stop-opacity:0;" offset="1" id="stop280052"/>
    </linearGradient>
    <linearGradient id="linearGradient280040">
      <stop style="stop-color:#ffffff;stop-opacity:0" offset="0" id="stop280042"/>
      <stop style="stop-color:#555753;stop-opacity:0.75460123" offset="1" id="stop280044"/>
    </linearGradient>
    <linearGradient id="linearGradient280032">
      <stop style="stop-color:#ffffff;stop-opacity:1;" offset="0" id="stop280034"/>
      <stop style="stop-color:#000000;stop-opacity:1;" offset="1" id="stop280036"/>
    </linearGradient>
    <linearGradient inkscape:collect="always" xlink:href="#linearGradient280092" id="linearGradient280098" x1="599.28571" y1="661.29077" x2="485.71429" y2="594.86218" gradientUnits="userSpaceOnUse"/>
    <linearGradient inkscape:collect="always" xlink:href="#linearGradient280100" id="linearGradient280106" x1="531.54724" y1="567.20435" x2="591.90692" y2="641.49005" gradientUnits="userSpaceOnUse"/>
    <linearGradient inkscape:collect="always" xlink:href="#linearGradient280110" id="linearGradient280116" x1="572.14288" y1="649.14789" x2="622.85718" y2="709.14789" gradientUnits="userSpaceOnUse"/>
    <linearGradient inkscape:collect="always" xlink:href="#linearGradient280135" id="linearGradient280141" x1="145.16628" y1="213.40927" x2="387.51971" y2="465.94742" gradientUnits="userSpaceOnUse"/>
    <radialGradient inkscape:collect="always" xlink:href="#linearGradient280154" id="radialGradient280160" cx="379.81735" cy="785.6819" fx="379.81735" fy="785.6819" r="335.37063" gradientTransform="matrix(1,0,0,0.14457833,4.0203051,629.70353)" gradientUnits="userSpaceOnUse"/>
    <linearGradient inkscape:collect="always" xlink:href="#linearGradient280135" id="linearGradient3036" gradientUnits="userSpaceOnUse" x1="145.16628" y1="213.40927" x2="387.51971" y2="465.94742"/>
    <linearGradient inkscape:collect="always" xlink:href="#linearGradient280100" id="linearGradient3041" gradientUnits="userSpaceOnUse" x1="531.54724" y1="567.20435" x2="591.90692" y2="641.49005"/>
    <linearGradient inkscape:collect="always" xlink:href="#linearGradient280110" id="linearGradient3044" gradientUnits="userSpaceOnUse" x1="572.14288" y1="649.14789" x2="622.85718" y2="709.14789"/>
    <linearGradient inkscape:collect="always" xlink:href="#linearGradient280092" id="linearGradient3047" gradientUnits="userSpaceOnUse" x1="599.28571" y1="661.29077" x2="485.71429" y2="594.86218"/>
    <radialGradient inkscape:collect="always" xlink:href="#linearGradient280154" id="radialGradient3054" gradientUnits="userSpaceOnUse" gradientTransform="matrix(1,0,0,0.14457833,4.0203051,629.70353)" cx="379.81735" cy="785.6819" fx="379.81735" fy="785.6819" r="335.37063"/>
    <linearGradient y2="421.77826" x2="-1333.9869" y1="317.96378" x1="-1383.1449" gradientUnits="userSpaceOnUse" id="linearGradient3902" xlink:href="#linearGradient3876" inkscape:collect="always"/>
    <linearGradient gradientUnits="userSpaceOnUse" y2="421.77826" x2="-1333.9869" y1="317.96378" x1="-1383.1449" id="linearGradient3882" xlink:href="#linearGradient3876" inkscape:collect="always"/>
    <linearGradient y2="645.40979" x2="416.38455" y1="402.10623" x1="337.49271" gradientTransform="matrix(1.031913,0,0,0.9606757,-10.760168,19.498309)" gradientUnits="userSpaceOnUse" id="linearGradient4926" xlink:href="#linearGradient3167" inkscape:collect="always"/>
    <linearGradient y2="645.40979" y1="402.10623" xlink:href="#linearGradient3167" x2="416.38455" x1="337.49271" inkscape:collect="always" id="linearGradient3946" gradientUnits="userSpaceOnUse" gradientTransform="matrix(1.031913,0,0,0.9606757,-10.760168,19.498309)"/>
    <linearGradient y2="646.65405" y1="164.76173" xlink:href="#linearGradient3177" x2="425.96066" x1="356.35681" inkscape:collect="always" id="linearGradient3198" gradientUnits="userSpaceOnUse"/>
    <inkscape:perspective sodipodi:type="inkscape:persp3d" inkscape:vp_z="744.09448 : 526.18109 : 1" inkscape:vp_y="0 : 1000 : 0" inkscape:vp_x="0 : 526.18109 : 1" inkscape:persp3d-origin="372.04724 : 350.78739 : 1" id="perspective10"/>
    <linearGradient id="linearGradient3167">
      <stop style="stop-color:#ffffff;stop-opacity:1;" offset="0" id="stop3169"/>
      <stop style="stop-color:#ffffff;stop-opacity:0;" offset="1" id="stop3171"/>
    </linearGradient>
    <linearGradient id="linearGradient3177">
      <stop style="stop-color:#ffffff;stop-opacity:0;" offset="0" id="stop3187"/>
      <stop style="stop-color:#ffffff;stop-opacity:1;" offset="0.4375" id="stop3200"/>
      <stop style="stop-color:#ffffff;stop-opacity:0.43333334;" offset="0.9375" id="stop3191"/>
      <stop style="stop-color:#ffffff;stop-opacity:0;" offset="1" id="stop3181"/>
    </linearGradient>
    <linearGradient id="linearGradient8488">
      <stop id="stop8490" offset="0" style="stop-color:#ffffff;stop-opacity:0;"/>
      <stop id="stop8492" offset="0.49027923" style="stop-color:#ffffff;stop-opacity:1;"/>
      <stop id="stop8494" offset="0.9375" style="stop-color:#ffffff;stop-opacity:0.43333334;"/>
      <stop id="stop8496" offset="1" style="stop-color:#ffffff;stop-opacity:0;"/>
    </linearGradient>
    <linearGradient id="linearGradient3876" inkscape:collect="always">
      <stop id="stop3878" offset="0" style="stop-color:#ffffff;stop-opacity:1;"/>
      <stop id="stop3880" offset="1" style="stop-color:#ffffff;stop-opacity:0;"/>
    </linearGradient>
    <linearGradient inkscape:collect="always" xlink:href="#linearGradient280135" id="linearGradient5124" gradientUnits="userSpaceOnUse" x1="145.16628" y1="213.40927" x2="387.51971" y2="465.94742" gradientTransform="matrix(1.0463835,0,0,1.0463835,-28.512036,59.156817)"/>
    <linearGradient inkscape:collect="always" xlink:href="#linearGradient280100" id="linearGradient5129" gradientUnits="userSpaceOnUse" x1="531.54724" y1="567.20435" x2="591.90692" y2="641.49005" gradientTransform="matrix(1.0463835,0,0,1.0463835,-28.512036,59.156817)"/>
    <linearGradient inkscape:collect="always" xlink:href="#linearGradient280110" id="linearGradient5132" gradientUnits="userSpaceOnUse" x1="572.14288" y1="649.14789" x2="622.85718" y2="709.14789" gradientTransform="matrix(1.0463835,0,0,1.0463835,-28.512036,59.156817)"/>
    <linearGradient inkscape:collect="always" xlink:href="#linearGradient280092" id="linearGradient5135" gradientUnits="userSpaceOnUse" x1="599.28571" y1="661.29077" x2="485.71429" y2="594.86218" gradientTransform="matrix(1.0463835,0,0,1.0463835,-28.512036,59.156817)"/>
    <radialGradient inkscape:collect="always" xlink:href="#linearGradient280154" id="radialGradient5141" gradientUnits="userSpaceOnUse" gradientTransform="matrix(1.0463835,0,0,0.15128438,-24.305255,718.0682)" cx="379.81735" cy="785.6819" fx="379.81735" fy="785.6819" r="335.37063"/>
    <linearGradient inkscape:collect="always" xlink:href="#linearGradient3876" id="linearGradient5155" gradientUnits="userSpaceOnUse" x1="-1383.1449" y1="317.96378" x2="-1333.9869" y2="421.77826"/>
    <linearGradient inkscape:collect="always" xlink:href="#linearGradient3876" id="linearGradient5166" gradientUnits="userSpaceOnUse" x1="-1383.1449" y1="317.96378" x2="-1333.9869" y2="421.77826"/>
    <linearGradient inkscape:collect="always" xlink:href="#linearGradient3876" id="linearGradient5178" gradientUnits="userSpaceOnUse" x1="-1383.1449" y1="317.96378" x2="-1333.9869" y2="421.77826"/>
    <linearGradient inkscape:collect="always" xlink:href="#linearGradient3876" id="linearGradient5180" gradientUnits="userSpaceOnUse" x1="-1383.1449" y1="317.96378" x2="-1333.9869" y2="421.77826"/>
    <radialGradient r="335.37063" fy="785.6819" fx="379.81735" cy="785.6819" cx="379.81735" gradientTransform="matrix(1,0,0,0.14457833,4.0203051,629.70353)" gradientUnits="userSpaceOnUse" id="radialGradient3054-6" xlink:href="#linearGradient280154-9" inkscape:collect="always"/>
    <linearGradient y2="594.86218" x2="485.71429" y1="661.29077" x1="599.28571" gradientUnits="userSpaceOnUse" id="linearGradient3047-2" xlink:href="#linearGradient280092-0" inkscape:collect="always"/>
    <linearGradient y2="709.14789" x2="622.85718" y1="649.14789" x1="572.14288" gradientUnits="userSpaceOnUse" id="linearGradient3044-3" xlink:href="#linearGradient280110-6" inkscape:collect="always"/>
    <linearGradient y2="641.49005" x2="591.90692" y1="567.20435" x1="531.54724" gradientUnits="userSpaceOnUse" id="linearGradient3041-0" xlink:href="#linearGradient280100-6" inkscape:collect="always"/>
    <linearGradient y2="465.94742" x2="387.51971" y1="213.40927" x1="145.16628" gradientUnits="userSpaceOnUse" id="linearGradient3036-6" xlink:href="#linearGradient280135-3" inkscape:collect="always"/>
    <radialGradient gradientUnits="userSpaceOnUse" gradientTransform="matrix(1,0,0,0.14457833,4.0203051,629.70353)" r="335.37063" fy="785.6819" fx="379.81735" cy="785.6819" cx="379.81735" id="radialGradient280160-4" xlink:href="#linearGradient280154-9" inkscape:collect="always"/>
    <linearGradient gradientUnits="userSpaceOnUse" y2="465.94742" x2="387.51971" y1="213.40927" x1="145.16628" id="linearGradient280141-0" xlink:href="#linearGradient280135-3" inkscape:collect="always"/>
    <linearGradient gradientUnits="userSpaceOnUse" y2="709.14789" x2="622.85718" y1="649.14789" x1="572.14288" id="linearGradient280116-8" xlink:href="#linearGradient280110-6" inkscape:collect="always"/>
    <linearGradient gradientUnits="userSpaceOnUse" y2="641.49005" x2="591.90692" y1="567.20435" x1="531.54724" id="linearGradient280106-4" xlink:href="#linearGradient280100-6" inkscape:collect="always"/>
    <linearGradient gradientUnits="userSpaceOnUse" y2="594.86218" x2="485.71429" y1="661.29077" x1="599.28571" id="linearGradient280098-8" xlink:href="#linearGradient280092-0" inkscape:collect="always"/>
    <linearGradient id="linearGradient280032-7">
      <stop id="stop280034-1" offset="0" style="stop-color:#ffffff;stop-opacity:1;"/>
      <stop id="stop280036-3" offset="1" style="stop-color:#000000;stop-opacity:1;"/>
    </linearGradient>
    <linearGradient id="linearGradient280040-8">
      <stop id="stop280042-1" offset="0" style="stop-color:#ffffff;stop-opacity:0"/>
      <stop id="stop280044-4" offset="1" style="stop-color:#555753;stop-opacity:0.75460123"/>
    </linearGradient>
    <linearGradient id="linearGradient280048-6">
      <stop id="stop280050-5" offset="0" style="stop-color:#eeeeec;stop-opacity:0"/>
      <stop id="stop280052-5" offset="1" style="stop-color:#000000;stop-opacity:0;"/>
    </linearGradient>
    <linearGradient id="linearGradient280056-7">
      <stop id="stop280058-2" offset="0" style="stop-color:#d3d7cf;stop-opacity:1;"/>
      <stop id="stop280060-3" offset="1" style="stop-color:#eeeeec;stop-opacity:1;"/>
    </linearGradient>
    <linearGradient id="linearGradient280064-9">
      <stop id="stop280066-9" offset="0" style="stop-color:#d3d7cf;stop-opacity:1;"/>
      <stop id="stop280068-1" offset="1" style="stop-color:#000000;stop-opacity:1;"/>
    </linearGradient>
    <linearGradient id="linearGradient280092-0" inkscape:collect="always">
      <stop id="stop280094-3" offset="0" style="stop-color:#2e3436;stop-opacity:1;"/>
      <stop id="stop280096-9" offset="1" style="stop-color:#2e3436;stop-opacity:0;"/>
    </linearGradient>
    <linearGradient id="linearGradient280100-6" inkscape:collect="always">
      <stop id="stop280102-2" offset="0" style="stop-color:#eeeeec;stop-opacity:1;"/>
      <stop id="stop280104-7" offset="1" style="stop-color:#eeeeec;stop-opacity:0;"/>
    </linearGradient>
    <linearGradient id="linearGradient280110-6" inkscape:collect="always">
      <stop id="stop280112-5" offset="0" style="stop-color:#555753;stop-opacity:1;"/>
      <stop id="stop280114-7" offset="1" style="stop-color:#555753;stop-opacity:0;"/>
    </linearGradient>
    <linearGradient id="linearGradient280135-3" inkscape:collect="always">
      <stop id="stop280137-9" offset="0" style="stop-color:#ffffff;stop-opacity:1;"/>
      <stop id="stop280139-8" offset="1" style="stop-color:#ffffff;stop-opacity:0;"/>
    </linearGradient>
    <linearGradient id="linearGradient280154-9" inkscape:collect="always">
      <stop id="stop280156-7" offset="0" style="stop-color:#2e3436;stop-opacity:1;"/>
      <stop id="stop280158-0" offset="1" style="stop-color:#2e3436;stop-opacity:0;"/>
    </linearGradient>
    <radialGradient inkscape:collect="always" xlink:href="#linearGradient280154-9" id="radialGradient7857" gradientUnits="userSpaceOnUse" gradientTransform="matrix(1,0,0,0.14457833,4.0203051,629.70353)" cx="379.81735" cy="785.6819" fx="379.81735" fy="785.6819" r="335.37063"/>
    <linearGradient inkscape:collect="always" xlink:href="#linearGradient280092-0" id="linearGradient7859" gradientUnits="userSpaceOnUse" x1="599.28571" y1="661.29077" x2="485.71429" y2="594.86218"/>
    <linearGradient inkscape:collect="always" xlink:href="#linearGradient280110-6" id="linearGradient7861" gradientUnits="userSpaceOnUse" x1="572.14288" y1="649.14789" x2="622.85718" y2="709.14789"/>
    <linearGradient inkscape:collect="always" xlink:href="#linearGradient280100-6" id="linearGradient7863" gradientUnits="userSpaceOnUse" x1="531.54724" y1="567.20435" x2="591.90692" y2="641.49005"/>
    <linearGradient inkscape:collect="always" xlink:href="#linearGradient280135-3" id="linearGradient7865" gradientUnits="userSpaceOnUse" x1="145.16628" y1="213.40927" x2="387.51971" y2="465.94742"/>
    <linearGradient inkscape:collect="always" xlink:href="#linearGradient280100" id="linearGradient7868" gradientUnits="userSpaceOnUse" gradientTransform="matrix(1.0463835,0,0,1.0463835,-28.512036,23.156817)" x1="531.54724" y1="567.20435" x2="591.90692" y2="641.49005"/>
    <linearGradient inkscape:collect="always" xlink:href="#linearGradient280092" id="linearGradient7871" gradientUnits="userSpaceOnUse" gradientTransform="matrix(1.0463835,0,0,1.0463835,-28.512036,23.156817)" x1="599.28571" y1="661.29077" x2="485.71429" y2="594.86218"/>
    <linearGradient inkscape:collect="always" xlink:href="#linearGradient280135" id="linearGradient7879" gradientUnits="userSpaceOnUse" gradientTransform="matrix(1.0463835,0,0,1.0463835,-28.512036,23.156817)" x1="145.16628" y1="213.40927" x2="387.51971" y2="465.94742"/>
    <linearGradient inkscape:collect="always" xlink:href="#linearGradient280110" id="linearGradient7882" gradientUnits="userSpaceOnUse" gradientTransform="matrix(1.0463835,0,0,1.0463835,-28.512036,23.156817)" x1="572.14288" y1="649.14789" x2="622.85718" y2="709.14789"/>
    <radialGradient inkscape:collect="always" xlink:href="#linearGradient280154" id="radialGradient7888" gradientUnits="userSpaceOnUse" gradientTransform="matrix(1.0463835,0,0,0.15128438,-24.305255,682.0682)" cx="379.81735" cy="785.6819" fx="379.81735" fy="785.6819" r="335.37063"/>
    <linearGradient inkscape:collect="always" xlink:href="#linearGradient3876" id="linearGradient7891" gradientUnits="userSpaceOnUse" x1="-1383.1449" y1="317.96378" x2="-1333.9869" y2="421.77826"/>
    <linearGradient inkscape:collect="always" xlink:href="#linearGradient3876" id="linearGradient7893" gradientUnits="userSpaceOnUse" x1="-1383.1449" y1="317.96378" x2="-1333.9869" y2="421.77826"/>
  </defs>
  <sodipodi:namedview inkscape:document-units="mm" id="base" pagecolor="#ffffff" bordercolor="#666666" borderopacity="1.0" inkscape:pageopacity="0.0" inkscape:pageshadow="2" inkscape:zoom="0.24748738" inkscape:cx="814.78329" inkscape:cy="387.02941" inkscape:current-layer="layer1" showgrid="false" showguides="true" inkscape:guide-bbox="true" inkscape:snap-global="false" inkscape:window-width="1261" inkscape:window-height="686" inkscape:window-x="25" inkscape:window-y="0" inkscape:window-maximized="0">
    <sodipodi:guide orientation="0,1" position="-328.57143,871.42857" id="guide279978"/>
    <sodipodi:guide orientation="0,1" position="-222.85714,162.85714" id="guide279980"/>
    <sodipodi:guide orientation="1,0" position="728.57143,-2.8571429" id="guide279982"/>
    <sodipodi:guide orientation="1,0" position="20,22.857143" id="guide279984"/>
    <sodipodi:guide orientation="1,0" position="375.77674,-32.324881" id="guide280028"/>
    <sodipodi:guide orientation="0,1" position="-68.690371,513.15748" id="guide7895"/>
  </sodipodi:namedview>
  <metadata id="metadata4">
    <rdf:RDF>
      <cc:Work rdf:about="">
        <dc:format>image/svg+xml</dc:format>
        <dc:type rdf:resource="http://purl.org/dc/dcmitype/StillImage"/>
        <dc:title>event indefinite</dc:title>
        <cc:license rdf:resource="http://creativecommons.org/licenses/by-sa/3.0/"/>
        <dc:date>June 2013</dc:date>
        <dc:creator>
          <cc:Agent>
            <dc:title>Franziska Sponsel</dc:title>
          </cc:Agent>
        </dc:creator>
        <dc:rights>
          <cc:Agent>
            <dc:title>Franziska Sponsel</dc:title>
          </cc:Agent>
        </dc:rights>
        <dc:publisher>
          <cc:Agent>
            <dc:title>RRZE</dc:title>
          </cc:Agent>
        </dc:publisher>
        <dc:subject>
          <rdf:Bag>
            <rdf:li>event</rdf:li>
            <rdf:li>date</rdf:li>
            <rdf:li>calender</rdf:li>
          </rdf:Bag>
        </dc:subject>
        <dc:contributor>
          <cc:Agent>
            <dc:title>Frank Troeger, Florian Loeffler</dc:title>
          </cc:Agent>
        </dc:contributor>
      </cc:Work>
      <cc:License rdf:about="http://creativecommons.org/licenses/by-sa/3.0/">
        <cc:permits rdf:resource="http://creativecommons.org/ns#Reproduction"/>
        <cc:permits rdf:resource="http://creativecommons.org/ns#Distribution"/>
        <cc:requires rdf:resource="http://creativecommons.org/ns#Notice"/>
        <cc:requires rdf:resource="http://creativecommons.org/ns#Attribution"/>
        <cc:permits rdf:resource="http://creativecommons.org/ns#DerivativeWorks"/>
        <cc:requires rdf:resource="http://creativecommons.org/ns#ShareAlike"/>
      </cc:License>
    </rdf:RDF>
  </metadata>
  <g inkscape:label="Layer 1" inkscape:groupmode="layer" id="layer1">
    <g id="g7897">
      <path id="rect279208" d="m 20,180.93361 708.57141,0 0,708.57141 -708.57141,0 z" style="opacity:0.58895706;fill:none;stroke:none" inkscape:connector-curvature="0"/>
      <path inkscape:connector-curvature="0" id="rect280143" d="m 22.203051,750.19326 701.852599,0 0,101.47267 -701.852599,0 z" style="opacity:0.59202456;fill:url(#radialGradient7888);fill-opacity:1;stroke:none"/>
      <path inkscape:connector-curvature="0" id="rect279987" d="m 106.15754,281.37966 543.85033,0 0,516.94329 -543.85033,0 z" style="fill:#d3d7cf;stroke:#888a85;stroke-width:21.16444778;stroke-linejoin:round;stroke-miterlimit:4;stroke-dasharray:none"/>
      <path sodipodi:nodetypes="ccccc" style="fill:#d3d7cf;stroke:#eeeeec;stroke-width:13.60298538;stroke-linejoin:miter;stroke-miterlimit:4;stroke-dasharray:none" d="m 122.60072,279.88483 512.45882,4.4845 -2.49228,495.9845 -509.49761,-0.52851 z" id="path279994" inkscape:connector-curvature="0"/>
      <path style="fill:#cc0000;stroke:#a40000;stroke-width:20.92766953;stroke-linejoin:round;stroke-miterlimit:4;stroke-dasharray:none" d="m 102.14119,277.36331 551.88304,0 0,196.11261 -551.88304,0 z" id="path279990" inkscape:connector-curvature="0"/>
      <path sodipodi:nodetypes="cccc" inkscape:connector-curvature="0" id="path280108" d="m 468.52013,773.79278 c 56.55206,-27.28938 108.82972,-48.2378 157.70494,-102.39611 l -0.74742,103.14352 z" style="opacity:0.40184051;fill:url(#linearGradient7882);fill-opacity:1;stroke:none"/>
      <path sodipodi:nodetypes="ccccc" inkscape:connector-curvature="0" id="path280133" d="m 120.76899,297.67566 513.04192,-0.5285 0,156.5449 -512.51341,10e-6 z" style="opacity:0.52840451;fill:url(#linearGradient7879);fill-opacity:1;stroke:#eeeeec;stroke-width:19.07401657;stroke-linejoin:miter;stroke-miterlimit:4;stroke-dasharray:none"/>
      <g transform="translate(4,-36)" id="g5172">
        <g id="g3864" style="font-size:144px;font-style:normal;font-weight:normal;line-height:125%;letter-spacing:0px;word-spacing:0px;fill:#2e3436;fill-opacity:1;stroke:#2e3436;stroke-width:2.99752021;stroke-miterlimit:4;stroke-opacity:1;font-family:Sans" transform="matrix(4.3746337,0,0,2.6001809,6188.2594,-323.06363)">
          <path inkscape:connector-curvature="0" id="path3866" d="m -1324.2266,382.28969 c 2.2968,4.12504 5.0156,7.24222 8.1563,9.35156 3.1405,2.10941 6.6796,3.16409 10.6172,3.16407 4.7343,2e-5 8.6014,-1.57029 11.6015,-4.71094 2.9999,-3.18747 4.4999,-7.24215 4.5,-12.16406 -10e-5,-4.73433 -1.3829,-8.67183 -4.1484,-11.8125 -2.7657,-3.14057 -6.2345,-4.71088 -10.4063,-4.71094 -3.8438,6e-5 -7.336,1.59381 -10.4765,4.78125 -3.0938,3.14068 -6.3751,8.50786 -9.8438,16.10156 m -8.5781,-7.52344 c -2.2969,-4.12494 -5.0157,-7.21869 -8.1562,-9.28125 -3.0938,-2.06244 -6.6329,-3.09369 -10.6172,-3.09375 -4.7813,6e-5 -8.6719,1.54694 -11.6719,4.64063 -2.9531,3.0938 -4.4297,7.12505 -4.4297,12.09375 0,4.73441 1.3828,8.67191 4.1484,11.8125 2.7656,3.14065 6.2344,4.71096 10.4063,4.71094 3.8437,2e-5 7.3359,-1.59373 10.4766,-4.78125 3.1405,-3.18747 6.4218,-8.55465 9.8437,-16.10157 m 4.9922,12.86719 c -3.2813,6.32815 -6.7735,10.99221 -10.4766,13.99219 -3.6563,2.95314 -7.6875,4.4297 -12.0937,4.42969 -6.375,1e-5 -11.7422,-2.60155 -16.1016,-7.80469 -4.3594,-5.24997 -6.5391,-11.76559 -6.539,-19.54688 -10e-5,-8.20307 1.9453,-14.83588 5.8359,-19.89843 3.9375,-5.06244 9.0468,-7.59368 15.3281,-7.59375 4.4531,7e-5 8.4609,1.47663 12.0235,4.42968 3.6093,2.95319 7.1015,7.66412 10.4765,14.13282 3.1875,-6.4687 6.6328,-11.2265 10.336,-14.27344 3.703,-3.09368 7.828,-4.64056 12.375,-4.64063 6.2811,7e-5 11.6249,2.64851 16.0312,7.94532 4.4062,5.25005 6.6093,11.78911 6.6094,19.61718 -10e-5,8.20316 -1.9689,14.81253 -5.9063,19.82813 -3.8907,5.01564 -8.9766,7.52345 -15.2578,7.52344 -4.4063,1e-5 -8.3672,-1.3828 -11.8828,-4.14844 -3.4688,-2.81248 -7.0547,-7.47654 -10.7578,-13.99219" style="fill:#2e3436"/>
        </g>
        <g transform="matrix(4.1455769,0,0,2.2410904,5883.9536,-187.16305)" style="font-size:144px;font-style:normal;font-weight:normal;line-height:125%;letter-spacing:0px;word-spacing:0px;fill:url(#linearGradient7893);fill-opacity:1;stroke:none;font-family:Sans" id="flowRoot3030">
          <path d="m -1316.3495,396.80615 c 3.7687,3.01327 7.6568,4.19707 11.5944,4.19705 4.7343,2e-5 10.5559,-2.7324 13.556,-5.87305 2.9999,-3.18747 6.0357,-10.72845 5.8961,-17.07071 -0.1041,-4.73041 -1.5679,-12.61616 -6.1727,-18.01038 -2.7417,-3.21173 -7.84,-4.96918 -12.0118,-4.96918 -3.8438,0 -7.7548,3.01415 -10.8953,6.20159 -3.0938,3.14068 -6.2355,7.73313 -12.0077,21.78296 3.2042,6.7075 6.9003,11.63238 10.041,13.74172 z m -26.2867,-37.51903 c -3.0938,-2.06244 -5.865,-3.09369 -9.8493,-3.09375 -4.7813,6e-5 -9.9982,1.80518 -13.5566,5.93185 -4.2794,4.25591 -5.6164,11.3861 -5.6164,16.3548 0,4.73441 -0.1529,10.47962 5.4049,17.36477 2.6963,3.34034 5.8854,5.87306 10.0573,5.87304 3.8437,2e-5 7.7546,0.8596 14.2459,-6.45984 3.1405,-3.18747 7.05,-11.65359 11.4492,-21.26648 -4.5306,-9.41896 -8.9945,-12.64183 -12.135,-14.70439 z m 4.9055,41.17641 c -4.6912,4.81173 -9.8514,6.62478 -14.2576,6.62477 -6.375,10e-6 -10.6951,-2.85979 -15.0545,-8.06293 -4.3594,-5.24997 -6.6089,-12.79858 -6.6088,-20.57987 -10e-5,-8.20307 2.2245,-15.86886 6.1151,-20.93141 3.9375,-5.06244 9.0468,-7.20631 15.3281,-7.20638 4.4531,7e-5 9.1347,2.74452 12.5121,6.36652 5.2904,5.67355 6.9619,10.37569 10.3369,16.84439 2.4197,-6.08133 6.7178,-13.86486 10.336,-17.24325 3.7965,-3.54487 7.828,-6.5774 12.375,-6.57747 6.2811,7e-5 12.0437,2.51938 16.45,7.81619 4.4062,5.25005 6.7489,13.08034 6.749,20.90841 -10e-5,8.20316 -2.0387,15.84551 -5.9761,20.86111 -3.8907,5.01564 -7.7201,7.26521 -15.2578,7.65256 -4.4046,0.22635 -8.8468,-2.68002 -12.2318,-5.95615 -4.6651,-4.51512 -7.1245,-10.31723 -10.8276,-16.83288 -2.4465,4.48151 -5.7034,11.9217 -9.988,16.31639 z" id="path3807" inkscape:connector-curvature="0" style="fill:url(#linearGradient7891);fill-opacity:1;stroke:none" sodipodi:nodetypes="cscsssccccccssscccssccccscsccccsscs"/>
        </g>
      </g>
      <path sodipodi:nodetypes="cccc" inkscape:connector-curvature="0" id="path280082" d="m 452.07696,773.04535 c 69.5101,-25.90781 114.81718,-36.91026 178.63261,-108.37543 -44.9694,-3.33337 -94.91287,-36.6801 -121.08151,-68.76235 -7.90143,62.1049 -12.02809,117.01297 -57.5511,177.13778 z" style="fill:url(#linearGradient7871);fill-opacity:1;stroke:none"/>
      <path sodipodi:nodetypes="cccc" inkscape:connector-curvature="0" id="path280030" d="M 459.12916,778.03494 C 526.67168,752.98 583.64604,730.4649 623.53474,669.64714 c -21.65108,-3.95656 -56.1275,-28.21249 -80.72762,-49.91022 -16.70569,95.11948 -58.74168,132.30704 -83.67796,158.29802 z" style="fill:url(#linearGradient7868);fill-opacity:1;stroke:#eeeeec;stroke-width:13.85601234;stroke-linecap:butt;stroke-linejoin:miter;stroke-miterlimit:4;stroke-opacity:1;stroke-dasharray:none"/>
    </g>
  </g>
</svg>
