<?xml version="1.0" encoding="UTF-8" standalone="no"?>
<!-- Created with Inkscape (http://www.inkscape.org/) -->

<svg
   xmlns:dc="http://purl.org/dc/elements/1.1/"
   xmlns:cc="http://creativecommons.org/ns#"
   xmlns:rdf="http://www.w3.org/1999/02/22-rdf-syntax-ns#"
   xmlns:svg="http://www.w3.org/2000/svg"
   xmlns="http://www.w3.org/2000/svg"
   xmlns:xlink="http://www.w3.org/1999/xlink"
   xmlns:sodipodi="http://sodipodi.sourceforge.net/DTD/sodipodi-0.dtd"
   xmlns:inkscape="http://www.inkscape.org/namespaces/inkscape"
   width="210mm"
   height="297mm"
   id="svg2"
   version="1.1"
   inkscape:version="0.91 r13725"
   sodipodi:docname="fau-org.svg"
   inkscape:export-filename="C:\Users\johannes\Documents\Arbeit\RRZE\github3\tango\720x720\emblems\fau-org.png"
   inkscape:export-xdpi="90.540001"
   inkscape:export-ydpi="90.540001">
  <title
     id="title4297">FAU org</title>
  <defs
     id="defs4">
    <linearGradient
       inkscape:collect="always"
       id="linearGradient4365">
      <stop
         style="stop-color:#babdb6;stop-opacity:1;"
         offset="0"
         id="stop4367" />
      <stop
         style="stop-color:#eeeeec;stop-opacity:1"
         offset="1"
         id="stop4369" />
    </linearGradient>
    <linearGradient
       inkscape:collect="always"
       id="linearGradient4288">
      <stop
         style="stop-color:#9dbcde;stop-opacity:1"
         offset="0"
         id="stop4290" />
      <stop
         style="stop-color:#3465a4;stop-opacity:1"
         offset="1"
         id="stop4292" />
    </linearGradient>
    <linearGradient
       inkscape:collect="always"
       id="linearGradient4041">
      <stop
         style="stop-color:#ffffff;stop-opacity:1;"
         offset="0"
         id="stop4043" />
      <stop
         style="stop-color:#ffffff;stop-opacity:0;"
         offset="1"
         id="stop4045" />
    </linearGradient>
    <linearGradient
       inkscape:collect="always"
       xlink:href="#linearGradient4041"
       id="linearGradient4171"
       gradientUnits="userSpaceOnUse"
       x1="58.928572"
       y1="468.25504"
       x2="212.67856"
       y2="468.25504" />
    <linearGradient
       inkscape:collect="always"
       xlink:href="#linearGradient4041"
       id="linearGradient4173"
       gradientUnits="userSpaceOnUse"
       x1="58.928572"
       y1="490.96933"
       x2="110.17856"
       y2="490.96933" />
    <linearGradient
       inkscape:collect="always"
       xlink:href="#linearGradient4041"
       id="linearGradient4175"
       gradientUnits="userSpaceOnUse"
       x1="58.928572"
       y1="509.50504"
       x2="110.17856"
       y2="509.50504" />
    <linearGradient
       inkscape:collect="always"
       xlink:href="#linearGradient4041"
       id="linearGradient4177"
       gradientUnits="userSpaceOnUse"
       x1="58.928572"
       y1="527.68361"
       x2="110.17856"
       y2="527.68361" />
    <linearGradient
       inkscape:collect="always"
       xlink:href="#linearGradient4041"
       id="linearGradient4179"
       gradientUnits="userSpaceOnUse"
       x1="58.928572"
       y1="550.93361"
       x2="248.21428"
       y2="550.93361" />
    <linearGradient
       inkscape:collect="always"
       xlink:href="#linearGradient4041"
       id="linearGradient4181"
       gradientUnits="userSpaceOnUse"
       x1="58.928572"
       y1="573.11218"
       x2="110.17856"
       y2="573.11218" />
    <linearGradient
       inkscape:collect="always"
       xlink:href="#linearGradient4041"
       id="linearGradient4183"
       gradientUnits="userSpaceOnUse"
       x1="58.928572"
       y1="591.64789"
       x2="110.17856"
       y2="591.64789" />
    <linearGradient
       inkscape:collect="always"
       xlink:href="#linearGradient4041"
       id="linearGradient4185"
       gradientUnits="userSpaceOnUse"
       x1="58.928572"
       y1="612.54075"
       x2="110.17856"
       y2="612.54075" />
    <linearGradient
       inkscape:collect="always"
       xlink:href="#linearGradient4041"
       id="linearGradient4187"
       gradientUnits="userSpaceOnUse"
       x1="58.928572"
       y1="632.89789"
       x2="110.17856"
       y2="632.89789" />
    <linearGradient
       inkscape:collect="always"
       xlink:href="#linearGradient4041"
       id="linearGradient4189"
       gradientUnits="userSpaceOnUse"
       x1="228.75001"
       y1="468.25504"
       x2="295.5357"
       y2="468.25504" />
    <linearGradient
       inkscape:collect="always"
       xlink:href="#linearGradient4041"
       id="linearGradient4191"
       gradientUnits="userSpaceOnUse"
       x1="221.07144"
       y1="489.1479"
       x2="303.57142"
       y2="489.1479" />
    <linearGradient
       inkscape:collect="always"
       xlink:href="#linearGradient4041"
       id="linearGradient4193"
       gradientUnits="userSpaceOnUse"
       x1="213.57144"
       y1="509.68361"
       x2="260.5357"
       y2="509.68361" />
    <linearGradient
       inkscape:collect="always"
       xlink:href="#linearGradient4041"
       id="linearGradient4195"
       gradientUnits="userSpaceOnUse"
       x1="206.60715"
       y1="527.8979"
       x2="255.17856"
       y2="527.8979" />
    <linearGradient
       inkscape:collect="always"
       xlink:href="#linearGradient4041"
       id="linearGradient4197"
       gradientUnits="userSpaceOnUse"
       x1="191.25002"
       y1="573.43361"
       x2="241.25"
       y2="573.43361" />
    <linearGradient
       inkscape:collect="always"
       xlink:href="#linearGradient4041"
       id="linearGradient4199"
       gradientUnits="userSpaceOnUse"
       x1="184.28573"
       y1="592.00504"
       x2="342.32143"
       y2="592.00504" />
    <linearGradient
       inkscape:collect="always"
       xlink:href="#linearGradient4041"
       id="linearGradient4201"
       gradientUnits="userSpaceOnUse"
       x1="176.60716"
       y1="612.71933"
       x2="229.82142"
       y2="612.71933" />
    <linearGradient
       inkscape:collect="always"
       xlink:href="#linearGradient4041"
       id="linearGradient4203"
       gradientUnits="userSpaceOnUse"
       x1="169.28573"
       y1="632.8979"
       x2="222.40824"
       y2="632.8979" />
    <linearGradient
       inkscape:collect="always"
       xlink:href="#linearGradient4041"
       id="linearGradient4205"
       gradientUnits="userSpaceOnUse"
       x1="265.00001"
       y1="509.68361"
       x2="311.24999"
       y2="509.68361" />
    <linearGradient
       inkscape:collect="always"
       xlink:href="#linearGradient4041"
       id="linearGradient4207"
       gradientUnits="userSpaceOnUse"
       x1="270.26787"
       y1="527.80861"
       x2="318.12499"
       y2="527.80861" />
    <linearGradient
       inkscape:collect="always"
       xlink:href="#linearGradient4041"
       id="linearGradient4209"
       gradientUnits="userSpaceOnUse"
       x1="276.9643"
       y1="550.57646"
       x2="326.7857"
       y2="550.57646" />
    <linearGradient
       inkscape:collect="always"
       xlink:href="#linearGradient4041"
       id="linearGradient4211"
       gradientUnits="userSpaceOnUse"
       x1="283.75"
       y1="573.25504"
       x2="335.35712"
       y2="573.25504" />
    <linearGradient
       inkscape:collect="always"
       xlink:href="#linearGradient4041"
       id="linearGradient4213"
       gradientUnits="userSpaceOnUse"
       x1="296.69644"
       y1="612.54075"
       x2="350.08928"
       y2="612.54075" />
    <linearGradient
       inkscape:collect="always"
       xlink:href="#linearGradient4041"
       id="linearGradient4215"
       gradientUnits="userSpaceOnUse"
       x1="303.57144"
       y1="633.07646"
       x2="357.94642"
       y2="633.07646" />
    <linearGradient
       inkscape:collect="always"
       xlink:href="#linearGradient4041"
       id="linearGradient4217"
       gradientUnits="userSpaceOnUse"
       x1="362.47941"
       y1="468.25504"
       x2="410.75512"
       y2="468.25504" />
    <linearGradient
       inkscape:collect="always"
       xlink:href="#linearGradient4041"
       id="linearGradient4219"
       gradientUnits="userSpaceOnUse"
       x1="362.47941"
       y1="488.79075"
       x2="410.75512"
       y2="488.79075" />
    <linearGradient
       inkscape:collect="always"
       xlink:href="#linearGradient4041"
       id="linearGradient4221"
       gradientUnits="userSpaceOnUse"
       x1="362.47941"
       y1="509.50504"
       x2="410.75512"
       y2="509.50504" />
    <linearGradient
       inkscape:collect="always"
       xlink:href="#linearGradient4041"
       id="linearGradient4223"
       gradientUnits="userSpaceOnUse"
       x1="362.47941"
       y1="530.21933"
       x2="410.75512"
       y2="530.21933" />
    <linearGradient
       inkscape:collect="always"
       xlink:href="#linearGradient4041"
       id="linearGradient4225"
       gradientUnits="userSpaceOnUse"
       x1="362.47941"
       y1="550.75504"
       x2="410.75512"
       y2="550.75504" />
    <linearGradient
       inkscape:collect="always"
       xlink:href="#linearGradient4041"
       id="linearGradient4227"
       gradientUnits="userSpaceOnUse"
       x1="362.47941"
       y1="571.29075"
       x2="410.75512"
       y2="571.29075" />
    <linearGradient
       inkscape:collect="always"
       xlink:href="#linearGradient4041"
       id="linearGradient4229"
       gradientUnits="userSpaceOnUse"
       x1="362.47934"
       y1="591.64789"
       x2="412.89798"
       y2="591.64789" />
    <linearGradient
       inkscape:collect="always"
       xlink:href="#linearGradient4041"
       id="linearGradient4231"
       gradientUnits="userSpaceOnUse"
       x1="366.31235"
       y1="609.9094"
       x2="433.34024"
       y2="609.9094" />
    <linearGradient
       inkscape:collect="always"
       xlink:href="#linearGradient4041"
       id="linearGradient4233"
       gradientUnits="userSpaceOnUse"
       x1="378.63377"
       y1="633.07647"
       x2="513.9694"
       y2="633.07647" />
    <linearGradient
       inkscape:collect="always"
       xlink:href="#linearGradient4041"
       id="linearGradient4235"
       gradientUnits="userSpaceOnUse"
       x1="481.49728"
       y1="468.25504"
       x2="530.04084"
       y2="468.25504" />
    <linearGradient
       inkscape:collect="always"
       xlink:href="#linearGradient4041"
       id="linearGradient4237"
       gradientUnits="userSpaceOnUse"
       x1="481.58656"
       y1="488.96933"
       x2="530.04084"
       y2="488.96933" />
    <linearGradient
       inkscape:collect="always"
       xlink:href="#linearGradient4041"
       id="linearGradient4239"
       gradientUnits="userSpaceOnUse"
       x1="481.49728"
       y1="509.68362"
       x2="530.04084"
       y2="509.68362" />
    <linearGradient
       inkscape:collect="always"
       xlink:href="#linearGradient4041"
       id="linearGradient4241"
       gradientUnits="userSpaceOnUse"
       x1="481.40799"
       y1="530.21933"
       x2="530.04084"
       y2="530.21933" />
    <linearGradient
       inkscape:collect="always"
       xlink:href="#linearGradient4041"
       id="linearGradient4243"
       gradientUnits="userSpaceOnUse"
       x1="481.40799"
       y1="550.93362"
       x2="530.04084"
       y2="550.93362" />
    <linearGradient
       inkscape:collect="always"
       xlink:href="#linearGradient4041"
       id="linearGradient4245"
       gradientUnits="userSpaceOnUse"
       x1="481.40799"
       y1="571.29076"
       x2="530.04084"
       y2="571.29076" />
    <linearGradient
       inkscape:collect="always"
       xlink:href="#linearGradient4041"
       id="linearGradient4247"
       gradientUnits="userSpaceOnUse"
       x1="479.89649"
       y1="591.6479"
       x2="530.04084"
       y2="591.6479" />
    <linearGradient
       inkscape:collect="always"
       xlink:href="#linearGradient4041"
       id="linearGradient4249"
       gradientUnits="userSpaceOnUse"
       x1="459.7897"
       y1="609.83545"
       x2="526.65434"
       y2="609.83545" />
    <linearGradient
       inkscape:collect="always"
       xlink:href="#linearGradient4288"
       id="linearGradient4294"
       x1="232.01175"
       y1="647.91058"
       x2="39.915699"
       y2="842.79248"
       gradientUnits="userSpaceOnUse" />
    <linearGradient
       inkscape:collect="always"
       xlink:href="#linearGradient4288"
       id="linearGradient4317"
       gradientUnits="userSpaceOnUse"
       x1="232.01175"
       y1="647.91058"
       x2="39.915699"
       y2="842.79248"
       gradientTransform="translate(240,0)" />
    <linearGradient
       inkscape:collect="always"
       xlink:href="#linearGradient4288"
       id="linearGradient4329"
       gradientUnits="userSpaceOnUse"
       x1="232.01175"
       y1="647.91058"
       x2="39.915699"
       y2="842.79248"
       gradientTransform="translate(480,0)" />
    <linearGradient
       inkscape:collect="always"
       xlink:href="#linearGradient4365"
       id="linearGradient4371"
       x1="170.87486"
       y1="592.10248"
       x2="828.19183"
       y2="390.91113"
       gradientUnits="userSpaceOnUse" />
  </defs>
  <sodipodi:namedview
     id="base"
     pagecolor="#ffffff"
     bordercolor="#666666"
     borderopacity="1.0"
     inkscape:pageopacity="0.0"
     inkscape:pageshadow="2"
     inkscape:zoom="0.51313131"
     inkscape:cx="84.112648"
     inkscape:cy="542.44978"
     inkscape:document-units="px"
     inkscape:current-layer="layer1"
     showgrid="false"
     showguides="true"
     inkscape:guide-bbox="true"
     inkscape:snap-global="false"
     inkscape:window-width="1366"
     inkscape:window-height="721"
     inkscape:window-x="-4"
     inkscape:window-y="-4"
     inkscape:window-maximized="1">
    <sodipodi:guide
       orientation="0,1"
       position="-202.03051,909.13729"
       id="guide2987" />
    <sodipodi:guide
       orientation="0,1"
       position="-165.66502,191.92898"
       id="guide2989" />
    <sodipodi:guide
       orientation="1,0"
       position="727.30983,145.46197"
       id="guide2991" />
    <sodipodi:guide
       orientation="1,0"
       position="12.121831,115.15739"
       id="guide2993" />
    <sodipodi:guide
       position="368.57143,791.42857"
       orientation="1,0"
       id="guide4280" />
  </sodipodi:namedview>
  <metadata
     id="metadata7">
    <rdf:RDF>
      <cc:Work
         rdf:about="">
        <dc:format>image/svg+xml</dc:format>
        <dc:type
           rdf:resource="http://purl.org/dc/dcmitype/StillImage" />
        <dc:title>FAU org</dc:title>
        <dc:date>Okt 2015</dc:date>
        <dc:creator>
          <cc:Agent>
            <dc:title>Johannes Hechler</dc:title>
          </cc:Agent>
        </dc:creator>
        <dc:rights>
          <cc:Agent>
            <dc:title>Johannes Hechler</dc:title>
          </cc:Agent>
        </dc:rights>
        <dc:publisher>
          <cc:Agent>
            <dc:title>RRZE</dc:title>
          </cc:Agent>
        </dc:publisher>
        <dc:subject>
          <rdf:Bag>
            <rdf:li>FAU</rdf:li>
            <rdf:li>Friedrich-Alexander University</rdf:li>
            <rdf:li>org</rdf:li>
          </rdf:Bag>
        </dc:subject>
        <cc:license
           rdf:resource="http://creativecommons.org/licenses/by-sa/3.0/" />
        <dc:contributor>
          <cc:Agent>
            <dc:title>Ute Weber, Hendrik Eggers</dc:title>
          </cc:Agent>
        </dc:contributor>
      </cc:Work>
      <cc:License
         rdf:about="http://creativecommons.org/licenses/by-sa/3.0/">
        <cc:permits
           rdf:resource="http://creativecommons.org/ns#Reproduction" />
        <cc:permits
           rdf:resource="http://creativecommons.org/ns#Distribution" />
        <cc:requires
           rdf:resource="http://creativecommons.org/ns#Notice" />
        <cc:requires
           rdf:resource="http://creativecommons.org/ns#Attribution" />
        <cc:permits
           rdf:resource="http://creativecommons.org/ns#DerivativeWorks" />
        <cc:requires
           rdf:resource="http://creativecommons.org/ns#ShareAlike" />
      </cc:License>
    </rdf:RDF>
  </metadata>
  <g
     inkscape:label="Ebene 1"
     inkscape:groupmode="layer"
     id="layer1">
    <g
       id="g4377">
      <rect
         y="143.79076"
         x="11.428572"
         height="715.71429"
         width="715.71429"
         id="rect2985"
         style="opacity:0.84969327;fill:none;stroke:none" />
      <g
         transform="matrix(1.471386,0,0,1.471386,-63.985766,-507.07493)"
         id="g4127">
        <path
           style="fill:#204a87;stroke:none"
           d="m 362.5,450.75504 0,140.53571 c 5.68659,33.19602 20.83915,49.32027 48.21429,59.82144 l 71.42857,0 C 519.02794,634.76533 524.76936,615.29023 530,595.21932 l 0,-144.82142 -48.57143,0 0,139.82142 c -8.11053,32.23534 -59.6547,36.08073 -70.71428,-1.42857 l 0,-138.21429 z"
           id="path3778"
           inkscape:connector-curvature="0"
           sodipodi:nodetypes="ccccccccccc" />
        <path
           style="fill:#204a87;stroke:none"
           d="m 58.59375,450.3125 0,200.89286 51.5,0 0,-81.70536 83.84375,0 -30.28125,81.84375 51.34375,0 15,-42.5625 66.4375,0 14.28125,42.50446 52.84375,0 -75.71875,-200.70535 -51.40625,0 -30,81.07589 -96.27237,0 0,-45 102.67862,0 0,-36.07143 z m 204.25,49.1875 22.86607,77.75893 -46.50892,-0.0893 z"
           id="path3774"
           inkscape:connector-curvature="0"
           sodipodi:nodetypes="ccccccccccccccccccccccc" />
        <path
           style="fill:url(#linearGradient4171);fill-opacity:1;stroke:none"
           d="m 58.928572,464.50504 153.749988,0 0,7.5 -153.749988,0 z"
           id="rect3854"
           inkscape:connector-curvature="0" />
        <path
           inkscape:connector-curvature="0"
           id="path3857"
           d="m 58.928572,487.21933 51.249988,0 0,7.5 -51.249988,0 z"
           style="fill:url(#linearGradient4173);fill-opacity:1;stroke:none" />
        <path
           style="fill:url(#linearGradient4175);fill-opacity:1;stroke:none"
           d="m 58.928572,505.75504 51.249988,0 0,7.5 -51.249988,0 z"
           id="path3859"
           inkscape:connector-curvature="0" />
        <path
           inkscape:connector-curvature="0"
           id="path3861"
           d="m 58.928572,523.93361 51.249988,0 0,7.5 -51.249988,0 z"
           style="fill:url(#linearGradient4177);fill-opacity:1;stroke:none" />
        <path
           style="fill:url(#linearGradient4179);fill-opacity:1;stroke:none"
           d="m 58.928572,547.18361 189.285708,0 -2.14286,7.5 -187.142848,0 z"
           id="path3863"
           inkscape:connector-curvature="0"
           sodipodi:nodetypes="ccccc" />
        <path
           inkscape:connector-curvature="0"
           id="path3865"
           d="m 58.928572,569.36218 51.249988,0 0,7.5 -51.249988,0 z"
           style="fill:url(#linearGradient4181);fill-opacity:1;stroke:none" />
        <path
           style="fill:url(#linearGradient4183);fill-opacity:1;stroke:none"
           d="m 58.928572,587.89789 51.249988,0 0,7.5 -51.249988,0 z"
           id="path3867"
           inkscape:connector-curvature="0" />
        <path
           inkscape:connector-curvature="0"
           id="path3869"
           d="m 58.928572,608.79075 51.249988,0 0,7.5 -51.249988,0 z"
           style="fill:url(#linearGradient4185);fill-opacity:1;stroke:none" />
        <path
           style="fill:url(#linearGradient4187);fill-opacity:1;stroke:none"
           d="m 58.928572,629.14789 51.249988,0 0,7.5 -51.249988,0 z"
           id="path3871"
           inkscape:connector-curvature="0" />
        <path
           inkscape:connector-curvature="0"
           id="path3873"
           d="m 231.60715,464.50504 61.07141,0 2.85714,7.5 -66.78569,0 z"
           style="fill:url(#linearGradient4189);fill-opacity:1;stroke:none"
           sodipodi:nodetypes="ccccc" />
        <path
           style="fill:url(#linearGradient4191);fill-opacity:1;stroke:none"
           d="m 223.92858,485.3979 76.7857,0 2.85714,7.5 -82.49998,0 z"
           id="path3875"
           inkscape:connector-curvature="0"
           sodipodi:nodetypes="ccccc" />
        <path
           inkscape:connector-curvature="0"
           id="path3877"
           d="m 216.3939,505.93361 44.1418,0 -2.32142,7.5 -44.64284,0 z"
           style="fill:url(#linearGradient4193);fill-opacity:1;stroke:none"
           sodipodi:nodetypes="ccccc" />
        <path
           style="fill:url(#linearGradient4195);fill-opacity:1;stroke:none"
           d="m 209.46429,524.1479 45.71427,0 -2.32143,7.5 -46.24998,0 z"
           id="path3879"
           inkscape:connector-curvature="0"
           sodipodi:nodetypes="ccccc" />
        <path
           inkscape:connector-curvature="0"
           id="path3881"
           d="m 194.0569,569.68361 47.1931,0 -2.32143,7.5 -47.67855,0 z"
           style="fill:url(#linearGradient4197);fill-opacity:1;stroke:none"
           sodipodi:nodetypes="ccccc" />
        <path
           style="fill:url(#linearGradient4199);fill-opacity:1;stroke:none"
           d="m 187.14287,588.25504 152.3214,0 2.85716,7.5 -158.0357,0 z"
           id="path3883"
           inkscape:connector-curvature="0"
           sodipodi:nodetypes="ccccc" />
        <path
           inkscape:connector-curvature="0"
           id="path3885"
           d="m 179.64287,608.96933 50.17855,0 -2.67857,7.5 -50.53569,0 z"
           style="fill:url(#linearGradient4201);fill-opacity:1;stroke:none"
           sodipodi:nodetypes="ccccc" />
        <path
           style="fill:url(#linearGradient4203);fill-opacity:1;stroke:none"
           d="m 172.14288,629.1479 50.26536,0 -2.5,7.5 -50.62251,0 z"
           id="path3887"
           inkscape:connector-curvature="0"
           sodipodi:nodetypes="ccccc" />
        <path
           sodipodi:nodetypes="ccccc"
           style="fill:url(#linearGradient4205);fill-opacity:1;stroke:none"
           d="m 308.42753,505.93361 -43.42752,0 2.32143,7.5 43.92855,0 z"
           id="path3897"
           inkscape:connector-curvature="0" />
        <path
           inkscape:connector-curvature="0"
           id="path3899"
           d="m 315.4811,524.05861 -45.21323,0 2.14286,7.5 45.71426,0 z"
           style="fill:url(#linearGradient4207);fill-opacity:1;stroke:none"
           sodipodi:nodetypes="ccccc" />
        <path
           sodipodi:nodetypes="ccccc"
           style="fill:url(#linearGradient4209);fill-opacity:1;stroke:none"
           d="m 323.9141,546.82646 -46.9498,0 2.18932,7.5 47.63208,0 z"
           id="path3901"
           inkscape:connector-curvature="0" />
        <path
           inkscape:connector-curvature="0"
           id="path3903"
           d="m 332.58546,569.50504 -48.83546,0 2.08511,7.5 49.52201,0 z"
           style="fill:url(#linearGradient4211);fill-opacity:1;stroke:none"
           sodipodi:nodetypes="ccccc" />
        <path
           sodipodi:nodetypes="ccccc"
           style="fill:url(#linearGradient4213);fill-opacity:1;stroke:none"
           d="m 347.23981,608.79075 -50.54337,0.17857 2.51095,7.32143 50.88189,0 z"
           id="path3905"
           inkscape:connector-curvature="0" />
        <path
           inkscape:connector-curvature="0"
           id="path3907"
           d="m 355.1674,629.32646 -51.59596,0 2.43461,7.5 51.94037,0 z"
           style="fill:url(#linearGradient4215);fill-opacity:1;stroke:none"
           sodipodi:nodetypes="ccccc" />
        <path
           inkscape:connector-curvature="0"
           id="path3909"
           d="m 362.47941,464.50504 48.27571,0 0,7.5 -48.27571,0 z"
           style="fill:url(#linearGradient4217);fill-opacity:1;stroke:none" />
        <path
           style="fill:url(#linearGradient4219);fill-opacity:1;stroke:none"
           d="m 362.47941,485.04075 48.27571,0 0,7.5 -48.27571,0 z"
           id="path3911"
           inkscape:connector-curvature="0" />
        <path
           inkscape:connector-curvature="0"
           id="path3913"
           d="m 362.47941,505.75504 48.27571,0 0,7.5 -48.27571,0 z"
           style="fill:url(#linearGradient4221);fill-opacity:1;stroke:none" />
        <path
           style="fill:url(#linearGradient4223);fill-opacity:1;stroke:none"
           d="m 362.47941,526.46933 48.27571,0 0,7.5 -48.27571,0 z"
           id="path3915"
           inkscape:connector-curvature="0" />
        <path
           inkscape:connector-curvature="0"
           id="path3917"
           d="m 362.47941,547.00504 48.27571,0 0,7.5 -48.27571,0 z"
           style="fill:url(#linearGradient4225);fill-opacity:1;stroke:none" />
        <path
           style="fill:url(#linearGradient4227);fill-opacity:1;stroke:none"
           d="m 362.47941,567.54075 48.27571,0 0,7.5 -48.27571,0 z"
           id="path3919"
           inkscape:connector-curvature="0" />
        <path
           inkscape:connector-curvature="0"
           id="path3921"
           d="m 362.47941,587.89789 48.27571,0 c -0.2676,2.30362 0.73774,3.47287 2.14286,7.5 l -49.49508,0 c -0.6678,-2.5 -0.92843,-5 -0.92349,-7.5 z"
           style="fill:url(#linearGradient4229);fill-opacity:1;stroke:none"
           sodipodi:nodetypes="ccccc" />
        <path
           style="fill:url(#linearGradient4231);fill-opacity:1;stroke:none"
           d="m 366.31235,606.1594 54.7962,0 c 2.80386,3.13775 7.6475,5.73349 12.23169,7.5 l -64.31802,0 c -1.08195,-2.45276 -1.73523,-4.61477 -2.70987,-7.5 z"
           id="path3923"
           inkscape:connector-curvature="0"
           sodipodi:nodetypes="ccccc" />
        <path
           inkscape:connector-curvature="0"
           id="path3925"
           d="m 378.63377,629.32647 135.33563,0 c -2.49815,2.41508 -4.11145,4.47622 -8.13135,7.5 l -119.88285,0 c -2.28445,-2.00219 -4.61058,-3.91854 -7.32143,-7.5 z"
           style="fill:url(#linearGradient4233);fill-opacity:1;stroke:none"
           sodipodi:nodetypes="ccccc" />
        <path
           style="fill:url(#linearGradient4235);fill-opacity:1;stroke:none"
           d="m 481.49728,464.50504 48.54356,0 0,7.5 -48.54356,0 z"
           id="path3927"
           inkscape:connector-curvature="0" />
        <path
           inkscape:connector-curvature="0"
           id="path3929"
           d="m 481.58656,485.21933 48.45428,0 0,7.5 -48.45428,0 z"
           style="fill:url(#linearGradient4237);fill-opacity:1;stroke:none" />
        <path
           style="fill:url(#linearGradient4239);fill-opacity:1;stroke:none"
           d="m 481.49728,505.93362 48.54356,0 0,7.5 -48.54356,0 z"
           id="path3931"
           inkscape:connector-curvature="0" />
        <path
           inkscape:connector-curvature="0"
           id="path3933"
           d="m 481.40799,526.46933 48.63285,0 0,7.5 -48.63285,0 z"
           style="fill:url(#linearGradient4241);fill-opacity:1;stroke:none" />
        <path
           style="fill:url(#linearGradient4243);fill-opacity:1;stroke:none"
           d="m 481.40799,547.18362 48.63285,0 0,7.5 -48.63285,0 z"
           id="path3935"
           inkscape:connector-curvature="0" />
        <path
           inkscape:connector-curvature="0"
           id="path3937"
           d="m 481.40799,567.54076 48.63285,0 0,7.5 -48.63285,0 z"
           style="fill:url(#linearGradient4245);fill-opacity:1;stroke:none" />
        <path
           style="fill:url(#linearGradient4247);fill-opacity:1;stroke:none"
           d="m 481.22942,587.8979 48.81142,0 0,7.5 -50.14435,0 c 1.25646,-3.5052 2.0586,-4.92373 1.33293,-7.5 z"
           id="path3939"
           inkscape:connector-curvature="0"
           sodipodi:nodetypes="ccccc" />
        <path
           inkscape:connector-curvature="0"
           id="path3941"
           d="m 472.11703,606.08545 54.53731,0 c -0.59685,2.18499 -1.72245,5.44777 -2.78953,7.5 l -64.07511,0 c 5.28588,-2.16676 9.07567,-4.42152 12.32733,-7.5 z"
           style="fill:url(#linearGradient4249);fill-opacity:1;stroke:none"
           sodipodi:nodetypes="ccccc" />
      </g>
      <g
         id="g4301">
        <rect
           style="color:#000000;clip-rule:nonzero;display:inline;overflow:visible;visibility:visible;opacity:1;isolation:auto;mix-blend-mode:normal;color-interpolation:sRGB;color-interpolation-filters:linearRGB;solid-color:#000000;solid-opacity:1;fill:#204a87;fill-opacity:1;fill-rule:evenodd;stroke:none;stroke-width:6.9000001;stroke-linecap:butt;stroke-linejoin:round;stroke-miterlimit:4;stroke-dasharray:none;stroke-dashoffset:0;stroke-opacity:1;color-rendering:auto;image-rendering:auto;shape-rendering:auto;text-rendering:auto;enable-background:accumulate"
           id="rect4274"
           width="220"
           height="220"
           x="19.142857"
           y="629.50507"
           ry="24.2857" />
        <rect
           ry="24.2857"
           y="629.50507"
           x="19.142857"
           height="220"
           width="220"
           id="rect4286"
           style="color:#000000;clip-rule:nonzero;display:inline;overflow:visible;visibility:visible;opacity:1;isolation:auto;mix-blend-mode:normal;color-interpolation:sRGB;color-interpolation-filters:linearRGB;solid-color:#000000;solid-opacity:1;fill:url(#linearGradient4294);fill-opacity:1;fill-rule:evenodd;stroke:#204a87;stroke-width:6.9000001;stroke-linecap:butt;stroke-linejoin:round;stroke-miterlimit:4;stroke-dasharray:none;stroke-dashoffset:0;stroke-opacity:1;color-rendering:auto;image-rendering:auto;shape-rendering:auto;text-rendering:auto;enable-background:accumulate" />
        <path
           style="color:#000000;font-style:normal;font-variant:normal;font-weight:normal;font-stretch:normal;font-size:medium;line-height:normal;font-family:sans-serif;text-indent:0;text-align:start;text-decoration:none;text-decoration-line:none;text-decoration-style:solid;text-decoration-color:#000000;letter-spacing:normal;word-spacing:normal;text-transform:none;direction:ltr;block-progression:tb;writing-mode:lr-tb;baseline-shift:baseline;text-anchor:start;white-space:normal;clip-rule:nonzero;display:inline;overflow:visible;visibility:visible;opacity:0.674;isolation:auto;mix-blend-mode:normal;color-interpolation:sRGB;color-interpolation-filters:linearRGB;solid-color:#000000;solid-opacity:1;fill:#ffffff;fill-opacity:1;fill-rule:evenodd;stroke:none;stroke-width:6.9000001;stroke-linecap:butt;stroke-linejoin:round;stroke-miterlimit:4;stroke-dasharray:none;stroke-dashoffset:0;stroke-opacity:1;color-rendering:auto;image-rendering:auto;shape-rendering:auto;text-rendering:auto;enable-background:accumulate"
           d="m 47.74876,632.41284 c -14.464054,0 -26.208939,11.80335 -26.208939,26.33712 l 0,162.77979 c 0,14.53379 11.744885,26.33712 26.208939,26.33712 l 162.00079,0 c 14.46406,0 26.2108,-11.80333 26.2108,-26.33712 l 0,-162.77979 c 0,-14.53377 -11.74674,-26.33712 -26.2108,-26.33712 l -162.00079,0 z m 0,6.55227 162.00079,0 c 10.96451,0 19.68995,8.76751 19.68995,19.78485 l 0,162.77979 c 0,11.01735 -8.72544,19.78485 -19.68995,19.78485 l -162.00079,0 c -10.964487,0 -19.688081,-8.7675 -19.688081,-19.78485 l 0,-162.77979 c 0,-11.01734 8.723594,-19.78485 19.688081,-19.78485 z"
           id="rect4296"
           inkscape:connector-curvature="0" />
        <path
           style="font-style:normal;font-weight:normal;font-size:221.88977051px;line-height:125%;font-family:sans-serif;text-align:center;letter-spacing:0px;word-spacing:0px;text-anchor:middle;fill:#ffffff;fill-opacity:1;stroke:none;stroke-width:1px;stroke-linecap:butt;stroke-linejoin:miter;stroke-opacity:1"
           d="M 126.36719 656.24219 C 100.43671 656.24219 80.066863 663.68122 65.259766 678.56055 C 50.524898 693.43987 43.158203 713.98959 43.158203 740.20898 C 43.158203 766.35615 50.524898 786.86872 65.259766 801.74805 C 80.066863 816.62737 100.43671 824.06836 126.36719 824.06836 C 152.36989 824.06836 172.73779 816.62737 187.47266 801.74805 C 202.20752 786.86872 209.57617 766.35615 209.57617 740.20898 C 209.57617 713.98959 202.20752 693.43987 187.47266 678.56055 C 172.73779 663.68122 152.36989 656.24219 126.36719 656.24219 z M 126.36719 686.4707 C 139.15185 686.4707 149.04645 691.16482 156.05273 700.55469 C 163.05902 709.94455 166.5625 723.16277 166.5625 740.20898 C 166.5625 757.18297 163.05902 770.36404 156.05273 779.75391 C 149.04645 789.14377 139.15185 793.83984 126.36719 793.83984 C 113.65475 793.83984 103.79535 789.14377 96.789062 779.75391 C 89.782777 770.36404 86.279297 757.18297 86.279297 740.20898 C 86.279297 723.16277 89.782777 709.94455 96.789062 700.55469 C 103.79535 691.16482 113.65475 686.4707 126.36719 686.4707 z "
           id="text4282" />
      </g>
      <rect
         style="color:#000000;clip-rule:nonzero;display:inline;overflow:visible;visibility:visible;opacity:1;isolation:auto;mix-blend-mode:normal;color-interpolation:sRGB;color-interpolation-filters:linearRGB;solid-color:#000000;solid-opacity:1;fill:#204a87;fill-opacity:1;fill-rule:evenodd;stroke:none;stroke-width:6.9000001;stroke-linecap:butt;stroke-linejoin:round;stroke-miterlimit:4;stroke-dasharray:none;stroke-dashoffset:0;stroke-opacity:1;color-rendering:auto;image-rendering:auto;shape-rendering:auto;text-rendering:auto;enable-background:accumulate"
         id="rect4309"
         width="220"
         height="220"
         x="259.14285"
         y="629.50507"
         ry="24.2857" />
      <rect
         ry="24.2857"
         y="629.50507"
         x="259.14285"
         height="220"
         width="220"
         id="rect4311"
         style="color:#000000;clip-rule:nonzero;display:inline;overflow:visible;visibility:visible;opacity:1;isolation:auto;mix-blend-mode:normal;color-interpolation:sRGB;color-interpolation-filters:linearRGB;solid-color:#000000;solid-opacity:1;fill:url(#linearGradient4317);fill-opacity:1;fill-rule:evenodd;stroke:#204a87;stroke-width:6.9000001;stroke-linecap:butt;stroke-linejoin:round;stroke-miterlimit:4;stroke-dasharray:none;stroke-dashoffset:0;stroke-opacity:1;color-rendering:auto;image-rendering:auto;shape-rendering:auto;text-rendering:auto;enable-background:accumulate" />
      <path
         style="color:#000000;font-style:normal;font-variant:normal;font-weight:normal;font-stretch:normal;font-size:medium;line-height:normal;font-family:sans-serif;text-indent:0;text-align:start;text-decoration:none;text-decoration-line:none;text-decoration-style:solid;text-decoration-color:#000000;letter-spacing:normal;word-spacing:normal;text-transform:none;direction:ltr;block-progression:tb;writing-mode:lr-tb;baseline-shift:baseline;text-anchor:start;white-space:normal;clip-rule:nonzero;display:inline;overflow:visible;visibility:visible;opacity:0.67400004;isolation:auto;mix-blend-mode:normal;color-interpolation:sRGB;color-interpolation-filters:linearRGB;solid-color:#000000;solid-opacity:1;fill:#ffffff;fill-opacity:1;fill-rule:evenodd;stroke:none;stroke-width:6.9000001;stroke-linecap:butt;stroke-linejoin:round;stroke-miterlimit:4;stroke-dasharray:none;stroke-dashoffset:0;stroke-opacity:1;color-rendering:auto;image-rendering:auto;shape-rendering:auto;text-rendering:auto;enable-background:accumulate"
         d="m 287.74876,632.41284 c -14.46405,0 -26.20894,11.80335 -26.20894,26.33712 l 0,162.77979 c 0,14.53379 11.74489,26.33712 26.20894,26.33712 l 162.00079,0 c 14.46406,0 26.2108,-11.80333 26.2108,-26.33712 l 0,-162.77979 c 0,-14.53377 -11.74674,-26.33712 -26.2108,-26.33712 l -162.00079,0 z m 0,6.55227 162.00079,0 c 10.96451,0 19.68995,8.76751 19.68995,19.78485 l 0,162.77979 c 0,11.01735 -8.72544,19.78485 -19.68995,19.78485 l -162.00079,0 c -10.96449,0 -19.68808,-8.7675 -19.68808,-19.78485 l 0,-162.77979 c 0,-11.01734 8.72359,-19.78485 19.68808,-19.78485 z"
         id="path4313"
         inkscape:connector-curvature="0" />
      <rect
         ry="24.2857"
         y="629.50507"
         x="499.14285"
         height="220"
         width="220"
         id="rect4321"
         style="color:#000000;clip-rule:nonzero;display:inline;overflow:visible;visibility:visible;opacity:1;isolation:auto;mix-blend-mode:normal;color-interpolation:sRGB;color-interpolation-filters:linearRGB;solid-color:#000000;solid-opacity:1;fill:#204a87;fill-opacity:1;fill-rule:evenodd;stroke:none;stroke-width:6.9000001;stroke-linecap:butt;stroke-linejoin:round;stroke-miterlimit:4;stroke-dasharray:none;stroke-dashoffset:0;stroke-opacity:1;color-rendering:auto;image-rendering:auto;shape-rendering:auto;text-rendering:auto;enable-background:accumulate" />
      <rect
         style="color:#000000;clip-rule:nonzero;display:inline;overflow:visible;visibility:visible;opacity:1;isolation:auto;mix-blend-mode:normal;color-interpolation:sRGB;color-interpolation-filters:linearRGB;solid-color:#000000;solid-opacity:1;fill:url(#linearGradient4329);fill-opacity:1;fill-rule:evenodd;stroke:#204a87;stroke-width:6.9000001;stroke-linecap:butt;stroke-linejoin:round;stroke-miterlimit:4;stroke-dasharray:none;stroke-dashoffset:0;stroke-opacity:1;color-rendering:auto;image-rendering:auto;shape-rendering:auto;text-rendering:auto;enable-background:accumulate"
         id="rect4323"
         width="220"
         height="220"
         x="499.14285"
         y="629.50507"
         ry="24.2857" />
      <path
         inkscape:connector-curvature="0"
         id="path4325"
         d="m 527.74876,632.41284 c -14.46405,0 -26.20894,11.80335 -26.20894,26.33712 l 0,162.77979 c 0,14.53379 11.74489,26.33712 26.20894,26.33712 l 162.00079,0 c 14.46406,0 26.2108,-11.80333 26.2108,-26.33712 l 0,-162.77979 c 0,-14.53377 -11.74674,-26.33712 -26.2108,-26.33712 l -162.00079,0 z m 0,6.55227 162.00079,0 c 10.96451,0 19.68995,8.76751 19.68995,19.78485 l 0,162.77979 c 0,11.01735 -8.72544,19.78485 -19.68995,19.78485 l -162.00079,0 c -10.96449,0 -19.68808,-8.7675 -19.68808,-19.78485 l 0,-162.77979 c 0,-11.01734 8.72359,-19.78485 19.68808,-19.78485 z"
         style="color:#000000;font-style:normal;font-variant:normal;font-weight:normal;font-stretch:normal;font-size:medium;line-height:normal;font-family:sans-serif;text-indent:0;text-align:start;text-decoration:none;text-decoration-line:none;text-decoration-style:solid;text-decoration-color:#000000;letter-spacing:normal;word-spacing:normal;text-transform:none;direction:ltr;block-progression:tb;writing-mode:lr-tb;baseline-shift:baseline;text-anchor:start;white-space:normal;clip-rule:nonzero;display:inline;overflow:visible;visibility:visible;opacity:0.67400004;isolation:auto;mix-blend-mode:normal;color-interpolation:sRGB;color-interpolation-filters:linearRGB;solid-color:#000000;solid-opacity:1;fill:#ffffff;fill-opacity:1;fill-rule:evenodd;stroke:none;stroke-width:6.9000001;stroke-linecap:butt;stroke-linejoin:round;stroke-miterlimit:4;stroke-dasharray:none;stroke-dashoffset:0;stroke-opacity:1;color-rendering:auto;image-rendering:auto;shape-rendering:auto;text-rendering:auto;enable-background:accumulate" />
      <path
         inkscape:connector-curvature="0"
         id="text4335"
         d="m 296.26895,657.33745 0,166.27344 42.87695,0 0,-62.92328 12.13919,0 c 6.97911,0 12.54754,1.522 16.70531,4.56611 4.23201,3.04405 8.38977,8.72389 12.47329,17.03941 l 20.2691,41.31776 45.66118,0 -23.27606,-47.22033 c -4.75174,-9.57766 -9.46634,-16.70526 -14.14383,-21.38279 -4.60324,-4.75171 -9.83756,-7.79577 -15.70298,-9.13222 10.69139,-3.34107 18.67281,-8.53823 23.94427,-15.59159 5.3457,-7.05336 8.01855,-16.07421 8.01855,-27.06263 0,-15.88861 -5.12297,-27.50808 -15.36889,-34.8584 -10.17167,-7.35032 -26.20877,-11.02548 -48.11128,-11.02548 l -65.4848,0 z m 42.87695,31.07188 18.04173,0 c 8.98375,0 15.40601,1.63336 19.26679,4.90019 3.93503,3.26684 5.90254,8.68677 5.90254,16.25982 0,7.64734 -1.96751,13.14152 -5.90254,16.4826 -3.86078,3.34107 -10.28304,5.01161 -19.26679,5.01155 l -18.04173,0 0,-42.65416 z"
         style="font-style:normal;font-weight:normal;font-size:40px;line-height:125%;font-family:sans-serif;text-align:center;letter-spacing:0px;word-spacing:0px;text-anchor:middle;fill:#ffffff;fill-opacity:1;stroke:none;stroke-width:1px;stroke-linecap:butt;stroke-linejoin:miter;stroke-opacity:1" />
      <path
         id="text4347"
         d="M 615.70703 657.83789 C 600.25365 657.83789 587.33873 660.52264 576.96289 665.89453 C 563.3492 672.88534 553.00971 682.93072 545.94531 696.0293 C 538.88091 709.12787 535.34961 724.10354 535.34961 740.95508 C 535.34961 756.48204 538.51327 770.86753 544.8418 784.11328 C 551.17032 797.28545 560.62747 807.44014 573.21094 814.57812 C 585.7944 821.64253 600.54753 825.17578 617.47266 825.17578 C 630.792 825.17578 643.92751 822.67387 656.87891 817.66992 C 669.90389 812.59238 679.838 806.74202 686.68164 800.11914 L 686.68164 735.65625 L 616.25781 735.65625 L 616.25781 762.91992 L 653.67773 762.91992 L 653.67773 783.45117 C 648.74737 787.27772 642.82348 790.55265 635.90625 793.27539 C 629.06261 795.92454 622.21864 797.25 615.375 797.25 C 601.54055 797.25 590.35646 792.46677 581.82031 782.90039 C 573.28416 773.26043 569.01562 758.8372 569.01562 739.63086 C 569.01562 721.82268 573.21063 708.39306 581.59961 699.3418 C 590.06217 690.29053 601.43105 685.76367 615.70703 685.76367 C 625.12623 685.76367 632.96381 688.08274 639.21875 692.71875 C 645.54728 697.28118 649.8516 703.53497 652.13281 711.48242 L 684.58398 705.41211 C 681.34613 690.54743 674.06099 678.92023 662.72852 670.53125 C 651.46963 662.06869 635.79642 657.83789 615.70703 657.83789 z "
         style="font-style:normal;font-weight:normal;font-size:226.06082153px;line-height:125%;font-family:sans-serif;text-align:center;letter-spacing:0px;word-spacing:0px;text-anchor:middle;fill:#ffffff;fill-opacity:1;stroke:none;stroke-width:1px;stroke-linecap:butt;stroke-linejoin:miter;stroke-opacity:1" />
      <path
         id="rect4352"
         d="M 368.43945 468.08008 C 354.03545 468.08008 342.43945 479.75862 342.43945 494.26367 L 342.43945 499.77539 L 118.38867 499.77539 C 103.8836 499.77539 92.205078 511.45196 92.205078 525.95703 C 92.205078 527.13544 92.290055 528.29335 92.439453 529.42969 L 92.439453 582.00781 C 92.439453 595.99828 103.70094 607.25977 117.69141 607.25977 L 119.18555 607.25977 C 133.17602 607.25977 144.43945 595.99828 144.43945 582.00781 L 144.43945 552.14062 L 342.43945 552.14062 L 342.43945 581.07812 C 342.43945 595.58318 354.03545 607.25977 368.43945 607.25977 C 382.84345 607.25977 394.43945 595.58317 394.43945 581.07812 L 394.43945 552.14062 L 590.43945 552.14062 L 590.43945 582.00781 C 590.43945 595.99828 601.70094 607.25977 615.69141 607.25977 L 617.18555 607.25977 C 631.17602 607.25977 642.43945 595.99828 642.43945 582.00781 L 642.43945 527.61523 C 642.43945 525.35309 642.14074 523.16353 641.58789 521.08008 C 639.31419 508.9227 628.698 499.77539 615.86133 499.77539 L 394.43945 499.77539 L 394.43945 494.26367 C 394.43945 479.75862 382.84345 468.08008 368.43945 468.08008 z "
         style="color:#000000;clip-rule:nonzero;display:inline;overflow:visible;visibility:visible;opacity:1;isolation:auto;mix-blend-mode:normal;color-interpolation:sRGB;color-interpolation-filters:linearRGB;solid-color:#000000;solid-opacity:1;fill:url(#linearGradient4371);fill-opacity:1;fill-rule:evenodd;stroke:#888a85;stroke-width:6.9000001;stroke-linecap:butt;stroke-linejoin:round;stroke-miterlimit:4;stroke-dasharray:none;stroke-dashoffset:0;stroke-opacity:1;color-rendering:auto;image-rendering:auto;shape-rendering:auto;text-rendering:auto;enable-background:accumulate" />
      <path
         sodipodi:nodetypes="sscsscssssccsssccssssscscsscsccsccsssssccccsssccccssssccssccscc"
         inkscape:connector-curvature="0"
         id="path4373"
         d="m 367.66567,470.042 c -15.94324,0 -22.8599,15.02311 -22.8599,31.03981 l 0,2.02123 -222.18701,0 c -16.02926,0 -29.03982,9.00835 -29.03982,25.03791 0,1.17106 0.09815,2.30335 0.229685,3.41656 l 0,45.51256 c 0,15.52481 6.602005,28.12682 22.126825,28.12682 l 1.46424,0 c 15.52481,0 26.12873,-12.60169 26.12873,-28.12682 l 0,-27.88931 201.27735,0 0,26.97823 c 0,16.01672 6.91696,29.0379 22.8599,29.0379 15.94294,0 24.8599,-13.02119 24.8599,-29.0379 l 0,-26.97823 201.31737,0 0,27.88931 c 0,15.52481 8.60201,28.12682 24.12683,28.12682 l 1.46424,0 c 15.52481,0 20.12873,-12.60169 20.12873,-28.12682 l 0,-47.30411 c 0,-2.48405 -0.33521,-4.89101 -0.93597,-7.18338 -2.58566,-13.40133 -14.36149,-19.47954 -28.49048,-19.47954 l -217.61072,0 0,-2.02123 c 0,-16.0167 -8.91665,-31.03981 -24.8599,-31.03981 z m 0,6.76039 c 12.28827,0 18.09951,11.86658 18.09951,24.27942 l 0,5.40143 c 6.1e-4,1.86657 1.51362,3.37958 3.38019,3.38019 l 220.99092,0 c 10.97363,0 19.95403,3.7742 21.88897,14.12022 0.0155,0.0823 0.034,0.16404 0.0555,0.24499 0.46861,1.76599 0.72159,3.61808 0.72159,5.53732 l 0,47.30411 c 0,11.89588 -1.47216,21.36644 -13.36834,21.36644 l -1.46424,0 c -11.89619,0 -17.36644,-9.47025 -17.36644,-21.36644 l 0,-31.2695 c -6.1e-4,-1.86657 -1.51362,-3.37958 -3.38019,-3.38019 l -208.07777,0 c -1.86657,6.1e-4 -3.37958,1.51362 -3.38019,3.38019 l 0,30.35842 c 0,12.41285 -5.81093,22.27752 -18.09951,22.27752 -12.28857,0 -16.09951,-9.86466 -16.09951,-22.27752 l 0,-30.35842 c -6.1e-4,-1.86657 -1.51362,-3.37958 -3.38019,-3.38019 l -208.03775,0 c -1.86657,6.1e-4 -3.37958,1.51362 -3.38019,3.38019 l 0,31.2695 c 0,11.89588 -7.47216,21.36644 -19.36834,21.36644 l -1.46424,0 c -11.89619,0 -15.36644,-9.47025 -15.36644,-21.36644 l 0,-45.52596 c 3e-5,-0.14721 -0.01,-0.29427 -0.0287,-0.44023 -0.12931,-0.98358 -0.20098,-1.97065 -0.20098,-2.96293 0,-12.40005 9.87908,-18.27752 22.27944,-18.27752 l 225.56721,0 c 1.86657,-6.1e-4 3.37958,-1.51362 3.38019,-3.38019 l 0,-5.40143 c 0,-12.41284 3.81125,-24.27942 16.09951,-24.27942 z"
         style="color:#000000;font-style:normal;font-variant:normal;font-weight:normal;font-stretch:normal;font-size:medium;line-height:normal;font-family:sans-serif;text-indent:0;text-align:start;text-decoration:none;text-decoration-line:none;text-decoration-style:solid;text-decoration-color:#000000;letter-spacing:normal;word-spacing:normal;text-transform:none;direction:ltr;block-progression:tb;writing-mode:lr-tb;baseline-shift:baseline;text-anchor:start;white-space:normal;clip-rule:nonzero;display:inline;overflow:visible;visibility:visible;opacity:1;isolation:auto;mix-blend-mode:normal;color-interpolation:sRGB;color-interpolation-filters:linearRGB;solid-color:#000000;solid-opacity:1;fill:#eeeeec;fill-opacity:1;fill-rule:evenodd;stroke:none;stroke-width:6.9000001;stroke-linecap:butt;stroke-linejoin:round;stroke-miterlimit:4;stroke-dasharray:none;stroke-dashoffset:0;stroke-opacity:1;color-rendering:auto;image-rendering:auto;shape-rendering:auto;text-rendering:auto;enable-background:accumulate" />
    </g>
  </g>
</svg>
