<?xml version="1.0" encoding="UTF-8" standalone="no"?>
<!-- Created with Inkscape (http://www.inkscape.org/) -->
<svg xmlns:dc="http://purl.org/dc/elements/1.1/" xmlns:cc="http://creativecommons.org/ns#" xmlns:rdf="http://www.w3.org/1999/02/22-rdf-syntax-ns#" xmlns:svg="http://www.w3.org/2000/svg" xmlns="http://www.w3.org/2000/svg" xmlns:xlink="http://www.w3.org/1999/xlink" xmlns:sodipodi="http://sodipodi.sourceforge.net/DTD/sodipodi-0.dtd" xmlns:inkscape="http://www.inkscape.org/namespaces/inkscape" width="210mm" height="297mm" id="svg2" version="1.1" inkscape:version="0.48.0 r9654">
  <title id="title3952">frontend</title>
  <defs id="defs4">
    <linearGradient inkscape:collect="always" id="linearGradient3956">
      <stop style="stop-color:#2e3436;stop-opacity:1;" offset="0" id="stop3958"/>
      <stop style="stop-color:#2e3436;stop-opacity:0;" offset="1" id="stop3960"/>
    </linearGradient>
    <linearGradient id="linearGradient3916">
      <stop style="stop-color:#8ae234;stop-opacity:1;" offset="0" id="stop3918"/>
      <stop style="stop-color:#4e9a06;stop-opacity:1;" offset="1" id="stop3920"/>
    </linearGradient>
    <linearGradient id="linearGradient3908">
      <stop style="stop-color:#fce94f;stop-opacity:1;" offset="0" id="stop3910"/>
      <stop style="stop-color:#c4a000;stop-opacity:1;" offset="1" id="stop3912"/>
    </linearGradient>
    <linearGradient id="linearGradient3900">
      <stop style="stop-color:#ef2929;stop-opacity:1;" offset="0" id="stop3902"/>
      <stop style="stop-color:#a40000;stop-opacity:1;" offset="1" id="stop3904"/>
    </linearGradient>
    <linearGradient inkscape:collect="always" id="linearGradient3876">
      <stop style="stop-color:#eeeeec;stop-opacity:1;" offset="0" id="stop3878"/>
      <stop style="stop-color:#eeeeec;stop-opacity:0;" offset="1" id="stop3880"/>
    </linearGradient>
    <linearGradient inkscape:collect="always" xlink:href="#linearGradient3876" id="linearGradient3884" x1="156.85715" y1="128.79074" x2="170.28575" y2="314.50504" gradientUnits="userSpaceOnUse"/>
    <radialGradient inkscape:collect="always" xlink:href="#linearGradient3900" id="radialGradient3906" cx="88.769028" cy="212.24873" fx="88.769028" fy="212.24873" r="15.152289" gradientTransform="translate(0,5.380944e-5)" gradientUnits="userSpaceOnUse"/>
    <radialGradient inkscape:collect="always" xlink:href="#linearGradient3908" id="radialGradient3914" cx="88.326149" cy="210.47722" fx="88.326149" fy="210.47722" r="15.152289" gradientTransform="translate(0,5.380944e-5)" gradientUnits="userSpaceOnUse"/>
    <radialGradient inkscape:collect="always" xlink:href="#linearGradient3916" id="radialGradient3922" cx="87.440392" cy="212.69162" fx="87.440392" fy="212.69162" r="15.152289" gradientTransform="translate(0,5.380944e-5)" gradientUnits="userSpaceOnUse"/>
    <radialGradient inkscape:collect="always" xlink:href="#linearGradient3956" id="radialGradient3962" cx="323.24881" cy="746.28595" fx="323.24881" fy="746.28595" r="424.26407" gradientTransform="matrix(1,0,0,0.09761905,0,673.43422)" gradientUnits="userSpaceOnUse"/>
  </defs>
  <sodipodi:namedview id="base" pagecolor="#ffffff" bordercolor="#666666" borderopacity="1.0" inkscape:pageopacity="0.0" inkscape:pageshadow="2" inkscape:zoom="0.49497475" inkscape:cx="267.36755" inkscape:cy="598.78169" inkscape:document-units="px" inkscape:current-layer="layer1" showgrid="false" showguides="true" inkscape:guide-bbox="true" inkscape:snap-global="false" inkscape:window-width="1225" inkscape:window-height="708" inkscape:window-x="0" inkscape:window-y="0" inkscape:window-maximized="0">
    <sodipodi:guide orientation="0,1" position="-631.42857,968.57143" id="guide3757"/>
    <sodipodi:guide orientation="0,1" position="-548.57143,240" id="guide3759"/>
    <sodipodi:guide orientation="1,0" position="8.5714286,8.5714286" id="guide3761"/>
    <sodipodi:guide orientation="1,0" position="737.14286,162.85714" id="guide3763"/>
  </sodipodi:namedview>
  <metadata id="metadata7">
    <rdf:RDF>
      <cc:Work rdf:about="">
        <dc:format>image/svg+xml</dc:format>
        <dc:type rdf:resource="http://purl.org/dc/dcmitype/StillImage"/>
        <dc:title>frontend</dc:title>
        <dc:date>Nov 2012</dc:date>
        <dc:creator>
          <cc:Agent>
            <dc:title>Franziska Sponsel</dc:title>
          </cc:Agent>
        </dc:creator>
        <dc:rights>
          <cc:Agent>
            <dc:title>Franziska Sponsel</dc:title>
          </cc:Agent>
        </dc:rights>
        <dc:publisher>
          <cc:Agent>
            <dc:title>RRZE</dc:title>
          </cc:Agent>
        </dc:publisher>
        <dc:subject>
          <rdf:Bag>
            <rdf:li>browser</rdf:li>
            <rdf:li>frontend</rdf:li>
            <rdf:li>internet</rdf:li>
            <rdf:li>www</rdf:li>
            <rdf:li>web</rdf:li>
          </rdf:Bag>
        </dc:subject>
        <cc:license rdf:resource="http://creativecommons.org/licenses/by-sa/3.0/"/>
      </cc:Work>
      <cc:License rdf:about="http://creativecommons.org/licenses/by-sa/3.0/">
        <cc:permits rdf:resource="http://creativecommons.org/ns#Reproduction"/>
        <cc:permits rdf:resource="http://creativecommons.org/ns#Distribution"/>
        <cc:requires rdf:resource="http://creativecommons.org/ns#Notice"/>
        <cc:requires rdf:resource="http://creativecommons.org/ns#Attribution"/>
        <cc:permits rdf:resource="http://creativecommons.org/ns#DerivativeWorks"/>
        <cc:requires rdf:resource="http://creativecommons.org/ns#ShareAlike"/>
      </cc:License>
    </rdf:RDF>
  </metadata>
  <g inkscape:label="Ebene 1" inkscape:groupmode="layer" id="layer1">
    <g id="g3964">
      <path transform="matrix(0.85,0,0,0.97560974,100.0051,43.455906)" d="m 747.51288,746.28595 a 424.26407,41.416256 0 1 1 -848.52814,0 424.26407,41.416256 0 1 1 848.52814,0 z" sodipodi:ry="41.416256" sodipodi:rx="424.26407" sodipodi:cy="746.28595" sodipodi:cx="323.24881" id="path3954" style="fill:url(#radialGradient3962);fill-opacity:1;stroke:none" sodipodi:type="arc"/>
      <g id="g3924">
        <path style="opacity:0.87116562;fill:none;stroke:none" d="m 8.5714283,83.790756 728.5714117,0 0,728.571414 -728.5714117,0 z" id="rect2987"/>
        <path style="fill:#babdb6;stroke:#888a85;stroke-width:12;stroke-linejoin:round;stroke-miterlimit:4" d="m 74.285713,166.6479 594.285697,0 c 20.57714,0 37.14286,16.56572 37.14286,37.14286 l 0,525.71429 c 0,20.57714 -16.56572,37.14285 -37.14286,37.14285 l -594.285697,0 c -20.577142,0 -37.142856,-16.56571 -37.142856,-37.14285 l 0,-525.71429 c 0,-20.57714 16.565714,-37.14286 37.142856,-37.14286 z" id="rect3765"/>
        <path style="fill:#3465a4;stroke:#eeeeec;stroke-width:11.54796123999999935;stroke-linejoin:round;stroke-miterlimit:4" d="m 74.376619,177.83966 592.675381,0 c 14.42129,0 26.03121,12.06043 26.03121,27.04133 l 0,522.10521 c 0,14.9809 -11.60992,27.04133 -26.03121,27.04133 l -592.675381,0 c -14.421288,0 -26.031206,-12.06043 -26.031206,-27.04133 l 0,-522.10521 c 0,-14.9809 11.609918,-27.04133 26.031206,-27.04133 z" id="rect3767"/>
        <path id="path3874" d="m 74.376619,177.83966 592.675381,0 c 14.42129,0 26.03121,12.06043 26.03121,27.04133 l 0,522.10521 c 0,14.9809 -11.60992,27.04133 -26.03121,27.04133 l -592.675381,0 c -14.421288,0 -26.031206,-12.06043 -26.031206,-27.04133 l 0,-522.10521 c 0,-14.9809 11.609918,-27.04133 26.031206,-27.04133 z" style="fill:url(#linearGradient3884);stroke:#eeeeec;stroke-width:11.54796123999999935;stroke-linejoin:round;stroke-miterlimit:4;fill-opacity:1;opacity:0.63803681000000001"/>
        <path transform="matrix(1.6128259,0,0,1.6128259,-52.825962,-109.50579)" style="fill:url(#radialGradient3906);fill-opacity:1;stroke:none" d="m 103.03556,203.83405 c 0,8.36837 -6.783912,15.15228 -15.15229,15.15228 -8.368378,0 -15.152288,-6.78391 -15.152288,-15.15228 0,-8.36838 6.78391,-15.15229 15.152288,-15.15229 8.368378,0 15.15229,6.78391 15.15229,15.15229 z" id="path3800"/>
        <path transform="matrix(1.6128259,0,0,1.6128259,7.4544434,-109.50579)" style="fill:url(#radialGradient3914);fill-opacity:1;stroke:none" d="m 103.03556,203.83405 c 0,8.36837 -6.783912,15.15228 -15.15229,15.15228 -8.368378,0 -15.152288,-6.78391 -15.152288,-15.15228 0,-8.36838 6.78391,-15.15229 15.152288,-15.15229 8.368378,0 15.15229,6.78391 15.15229,15.15229 z" id="path3802"/>
        <path transform="matrix(1.6128259,0,0,1.6128259,69.36405,-109.50579)" style="fill:url(#radialGradient3922);fill-opacity:1;stroke:none" d="m 103.03556,203.83405 c 0,8.36837 -6.783912,15.15228 -15.15229,15.15228 -8.368378,0 -15.152288,-6.78391 -15.152288,-15.15228 0,-8.36838 6.78391,-15.15229 15.152288,-15.15229 8.368378,0 15.15229,6.78391 15.15229,15.15229 z" id="path3804"/>
        <path style="fill:#babdb6;fill-opacity:1;stroke:none" d="m 78.888329,268.07648 580.794801,0 c 8.88128,0 16.03119,8.23757 16.03119,18.46989 l 0,433.06021 c 0,10.23232 -7.14991,18.4699 -16.03119,18.4699 l -580.794801,0 c -8.881279,0 -16.031189,-8.23758 -16.031189,-18.4699 l 0,-433.06021 c 0,-10.23232 7.14991,-18.46989 16.031189,-18.46989 z" id="rect3817"/>
        <path style="fill:#ffffff;fill-opacity:1;stroke:#2e3436;stroke-width:4.76071215;stroke-miterlimit:4" d="m 87.840113,281.314 562.891137,0 c 8.08985,0 14.60262,6.96328 14.60262,15.61275 l 0,130.87093 c 0,8.64946 -6.51277,15.61275 -14.60262,15.61275 l -562.891137,0 c -8.08985,0 -14.602618,-6.96329 -14.602618,-15.61275 l 0,-130.87093 c 0,-8.64947 6.512768,-15.61275 14.602618,-15.61275 z" id="rect3819"/>
        <g transform="translate(364.28571,-128.57143)" style="font-size:90px;font-style:normal;font-weight:bold;line-height:125%;letter-spacing:0px;word-spacing:0px;fill:#000000;fill-opacity:1;stroke:none;font-family:Sans;-inkscape-font-specification:Sans Bold" id="flowRoot3821">
          <path d="m -224.39648,489.23672 0,29.9707 -15.82032,0 0,-4.87793 0,-17.97363 c -4e-5,-4.30661 -0.10258,-7.26559 -0.30761,-8.87695 -0.17583,-1.6113 -0.49809,-2.79782 -0.9668,-3.55957 -0.61527,-1.02536 -1.45023,-1.81637 -2.50488,-2.37305 -1.05473,-0.5859 -2.2559,-0.87887 -3.60352,-0.8789 -3.28128,3e-5 -5.8594,1.27445 -7.73437,3.82324 -1.87503,2.51956 -2.81253,6.02053 -2.8125,10.50293 l 0,24.21386 -15.73243,0 0,-68.3789 15.73243,0 0,26.36719 c 2.37302,-2.87105 4.89255,-4.98043 7.55859,-6.32813 2.66598,-1.3769 5.61031,-2.06538 8.83301,-2.06543 5.68355,5e-5 9.99018,1.74321 12.91992,5.22949 2.95893,3.48637 4.43842,8.55473 4.43848,15.20508" style="" id="path3830"/>
          <path d="m -192.53613,456.01407 0,13.9746 16.21582,0 0,11.25 -16.21582,0 0,20.87403 c -3e-5,2.28517 0.45407,3.8379 1.3623,4.6582 0.90818,0.79103 2.70993,1.18654 5.40528,1.18652 l 8.08593,0 0,11.25 -13.49121,0 c -6.21096,0 -10.62013,-1.28906 -13.22754,-3.86718 -2.57813,-2.60742 -3.86719,-7.01659 -3.86718,-13.22754 l 0,-20.87403 -7.82227,0 0,-11.25 7.82227,0 0,-13.9746 15.73242,0" style="" id="path3832"/>
          <path d="m -149.46973,456.01407 0,13.9746 16.21582,0 0,11.25 -16.21582,0 0,20.87403 c -2e-5,2.28517 0.45408,3.8379 1.36231,4.6582 0.90817,0.79103 2.70993,1.18654 5.40527,1.18652 l 8.08594,0 0,11.25 -13.49121,0 c -6.21096,0 -10.62013,-1.28906 -13.22754,-3.86718 -2.57814,-2.60742 -3.8672,-7.01659 -3.86719,-13.22754 l 0,-20.87403 -7.82226,0 0,-11.25 7.82226,0 0,-13.9746 15.73242,0" style="" id="path3834"/>
          <path d="m -107.85352,512.08828 0,25.83985 -15.73242,0 0,-67.93946 15.73242,0 0,7.20704 c 2.16795,-2.87105 4.57029,-4.98043 7.20704,-6.32813 2.636681,-1.3769 5.668905,-2.06538 9.096675,-2.06543 6.064408,5e-5 11.044872,2.41704 14.941407,7.25098 3.896426,4.80472 5.844666,11.00101 5.844726,18.58886 -6e-5,7.58791 -1.9483,13.79884 -5.844726,18.63282 -3.896535,4.80469 -8.876999,7.20703 -14.941407,7.20703 -3.42777,0 -6.459994,-0.67383 -9.096675,-2.02149 -2.63675,-1.37695 -5.03909,-3.50097 -7.20704,-6.37207 m 10.458989,-31.86035 c -3.369169,4e-5 -5.961939,1.24516 -7.778319,3.73535 -1.78714,2.46097 -2.68069,6.02054 -2.68067,10.67871 -2e-5,4.65823 0.89353,8.23244 2.68067,10.72266 1.81638,2.46095 4.40915,3.69142 7.778319,3.69141 3.369103,10e-6 5.932577,-1.23046 7.690429,-3.69141 1.787067,-2.46092 2.68062,-6.03514 2.680665,-10.72266 -4.5e-5,-4.68747 -0.893598,-8.26168 -2.680665,-10.72265 -1.757852,-2.4609 -4.321326,-3.69137 -7.690429,-3.69141" style="" id="path3836"/>
          <path d="m -56.569336,469.98867 15.864258,0 0,17.00684 -15.864258,0 0,-17.00684 m 0,32.21192 15.864258,0 0,17.00683 -15.864258,0 0,-17.00683" style="" id="path3838"/>
          <path d="m -7.4824219,453.59707 9.7558594,0 -23.1591795,73.95996 -9.711914,0 23.1152341,-73.95996" style="" id="path3840"/>
          <path d="m 25.388672,453.59707 9.755859,0 -23.159179,73.95996 -9.7119145,0 23.1152345,-73.95996" style="" id="path3842"/>
          <path d="m 38.308594,469.98867 15.292968,0 8.261719,33.92579 8.305664,-33.92579 13.139649,0 8.261718,33.57422 8.305665,-33.57422 15.292973,0 -12.96387,49.21875 -17.182619,0 -8.305664,-33.83789 -8.261719,33.83789 -17.182617,0 -12.963867,-49.21875" style="" id="path3844"/>
          <path d="m 121.45313,469.98867 15.29296,0 8.26172,33.92579 8.30567,-33.92579 13.13964,0 8.26172,33.57422 8.30567,-33.57422 15.29297,0 -12.96387,49.21875 -17.18262,0 -8.30566,-33.83789 -8.26172,33.83789 -17.18262,0 -12.96386,-49.21875" style="" id="path3846"/>
          <path d="m 204.59766,469.98867 15.29296,0 8.26172,33.92579 8.30567,-33.92579 13.13965,0 8.26171,33.57422 8.30567,-33.57422 15.29297,0 -12.96387,49.21875 -17.18262,0 -8.30566,-33.83789 -8.26172,33.83789 -17.18262,0 -12.96386,-49.21875" style="" id="path3848"/>
        </g>
        <g transform="matrix(0.70710678,0.70710678,-0.70710678,0.70710678,637.70165,140.54892)" style="font-size:56px;font-style:normal;font-weight:normal;line-height:125%;letter-spacing:0px;word-spacing:0px;fill:#000000;fill-opacity:1;stroke:none;font-family:Sans" id="flowRoot3850">
          <path d="m -329.96094,425.92733 0,15.23047 15.23047,0 0,4.64843 -15.23047,0 0,15.23047 -4.59375,0 0,-15.23047 -15.23047,0 0,-4.64843 15.23047,0 0,-15.23047 4.59375,0" style="" id="path3893"/>
        </g>
        <g transform="translate(376.57143,-288.57143)" style="font-size:72px;font-style:normal;font-weight:normal;line-height:125%;letter-spacing:0px;word-spacing:0px;fill:#000000;fill-opacity:1;stroke:none;font-family:Sans" id="flowRoot3858">
          <path d="m -236.48437,505.81672 18.94921,0 0,5.76563 -18.94921,0 0,-5.76563" style="" id="path3890"/>
        </g>
        <g transform="translate(542.85714,-224.28571)" style="font-size:56px;font-style:normal;font-weight:normal;line-height:125%;letter-spacing:0px;word-spacing:0px;fill:#000000;fill-opacity:1;stroke:none;font-family:Sans" id="flowRoot3866">
          <path d="m -329.96094,425.92733 0,15.23047 15.23047,0 0,4.64843 -15.23047,0 0,15.23047 -4.59375,0 0,-15.23047 -15.23047,0 0,-4.64843 15.23047,0 0,-15.23047 4.59375,0" style="" id="path3887"/>
        </g>
      </g>
    </g>
  </g>
</svg>
