<?xml version="1.0" encoding="UTF-8" standalone="no"?>
<!-- Created with Inkscape (http://www.inkscape.org/) -->
<svg xmlns:dc="http://purl.org/dc/elements/1.1/" xmlns:cc="http://creativecommons.org/ns#" xmlns:rdf="http://www.w3.org/1999/02/22-rdf-syntax-ns#" xmlns:svg="http://www.w3.org/2000/svg" xmlns="http://www.w3.org/2000/svg" xmlns:xlink="http://www.w3.org/1999/xlink" xmlns:sodipodi="http://sodipodi.sourceforge.net/DTD/sodipodi-0.dtd" xmlns:inkscape="http://www.inkscape.org/namespaces/inkscape" width="210mm" height="297mm" id="svg2" version="1.1" inkscape:version="0.48.0 r9654">
  <title id="title3901">function</title>
  <defs id="defs4">
    <linearGradient inkscape:collect="always" id="linearGradient3825">
      <stop style="stop-color:#2e3436;stop-opacity:1;" offset="0" id="stop3827"/>
      <stop style="stop-color:#2e3436;stop-opacity:0;" offset="1" id="stop3829"/>
    </linearGradient>
    <linearGradient inkscape:collect="always" id="linearGradient3805">
      <stop style="stop-color:#eeeeec;stop-opacity:1;" offset="0" id="stop3807"/>
      <stop style="stop-color:#eeeeec;stop-opacity:0;" offset="1" id="stop3809"/>
    </linearGradient>
    <linearGradient inkscape:collect="always" id="linearGradient3785">
      <stop style="stop-color:#eeeeec;stop-opacity:1;" offset="0" id="stop3787"/>
      <stop style="stop-color:#eeeeec;stop-opacity:0;" offset="1" id="stop3789"/>
    </linearGradient>
    <radialGradient inkscape:collect="always" xlink:href="#linearGradient3785" id="radialGradient3819" gradientUnits="userSpaceOnUse" gradientTransform="matrix(1,0,0,1.0348093,0,-14.009585)" cx="102.85496" cy="402.46664" fx="102.85496" fy="402.46664" r="169.61966"/>
    <radialGradient inkscape:collect="always" xlink:href="#linearGradient3805" id="radialGradient3821" gradientUnits="userSpaceOnUse" gradientTransform="matrix(1,0,0,0.97883734,0,5.3928404)" cx="-324.07847" cy="254.82812" fx="-324.07847" fy="254.82812" r="280.323"/>
    <radialGradient inkscape:collect="always" xlink:href="#linearGradient3825" id="radialGradient3834" gradientUnits="userSpaceOnUse" gradientTransform="matrix(1,0,0,0.44592791,145.71429,323.80013)" cx="98.571426" cy="912.36218" fx="98.571426" fy="912.36218" r="214"/>
    <radialGradient inkscape:collect="always" xlink:href="#linearGradient3825" id="radialGradient3838" gradientUnits="userSpaceOnUse" gradientTransform="matrix(0.81250005,0,0,0.36231645,501.33929,458.94122)" cx="98.571426" cy="912.36218" fx="98.571426" fy="912.36218" r="214"/>
  </defs>
  <sodipodi:namedview id="base" pagecolor="#ffffff" bordercolor="#666666" borderopacity="1.0" inkscape:pageopacity="0.0" inkscape:pageshadow="2" inkscape:zoom="0.35" inkscape:cx="397.74286" inkscape:cy="377.73758" inkscape:document-units="px" inkscape:current-layer="layer1" showgrid="false" showguides="true" inkscape:guide-bbox="true" inkscape:snap-global="false" inkscape:window-width="1245" inkscape:window-height="689" inkscape:window-x="0" inkscape:window-y="0" inkscape:window-maximized="0">
    <sodipodi:guide orientation="1,0" position="-324.28571,681.42857" id="guide3767"/>
    <sodipodi:guide orientation="0,1" position="-685.71429,797.14286" id="guide3769"/>
  </sodipodi:namedview>
  <metadata id="metadata7">
    <rdf:RDF>
      <cc:Work rdf:about="">
        <dc:format>image/svg+xml</dc:format>
        <dc:type rdf:resource="http://purl.org/dc/dcmitype/StillImage"/>
        <dc:title>function</dc:title>
        <dc:date>Sept 2011</dc:date>
        <dc:creator>
          <cc:Agent>
            <dc:title>Franziska Sponsel</dc:title>
          </cc:Agent>
        </dc:creator>
        <dc:rights>
          <cc:Agent>
            <dc:title>Franziska Sponsel</dc:title>
          </cc:Agent>
        </dc:rights>
        <dc:publisher>
          <cc:Agent>
            <dc:title>RRZE</dc:title>
          </cc:Agent>
        </dc:publisher>
        <dc:subject>
          <rdf:Bag>
            <rdf:li>function</rdf:li>
            <rdf:li>gearwheels</rdf:li>
            <rdf:li>run</rdf:li>
          </rdf:Bag>
        </dc:subject>
        <dc:contributor>
          <cc:Agent>
            <dc:title>Martin Fischer, Hendrik Eggers</dc:title>
          </cc:Agent>
        </dc:contributor>
        <cc:license rdf:resource="http://creativecommons.org/licenses/by-sa/3.0/"/>
      </cc:Work>
      <cc:License rdf:about="http://creativecommons.org/licenses/by-sa/3.0/">
        <cc:permits rdf:resource="http://creativecommons.org/ns#Reproduction"/>
        <cc:permits rdf:resource="http://creativecommons.org/ns#Distribution"/>
        <cc:requires rdf:resource="http://creativecommons.org/ns#Notice"/>
        <cc:requires rdf:resource="http://creativecommons.org/ns#Attribution"/>
        <cc:permits rdf:resource="http://creativecommons.org/ns#DerivativeWorks"/>
        <cc:requires rdf:resource="http://creativecommons.org/ns#ShareAlike"/>
      </cc:License>
    </rdf:RDF>
  </metadata>
  <g inkscape:label="Ebene 1" inkscape:groupmode="layer" id="layer1">
    <g id="g3871">
      <g transform="translate(-14.285714,-2.8571429)" id="g3840">
        <path inkscape:connector-curvature="0" id="path3836" d="m 752.05359,789.50504 c 0,41.02688 -76.39143,74.28576 -170.62502,74.28576 -94.23359,0 -170.625,-33.25888 -170.625,-74.28576 0,-41.02686 76.39141,-74.28571 170.625,-74.28571 94.23359,0 170.62502,33.25885 170.62502,74.28571 z" style="fill:url(#radialGradient3838);fill-opacity:1;stroke:none"/>
        <path style="fill:url(#radialGradient3834);fill-opacity:1;stroke:none" d="m 454.28572,730.64789 c 0,50.49461 -94.02021,91.42862 -210.00001,91.42862 -115.9798,0 -209.999994,-40.93401 -209.999994,-91.42862 0,-50.4946 94.020194,-91.42857 209.999994,-91.42857 115.9798,0 210.00001,40.93397 210.00001,91.42857 z" id="path3823" inkscape:connector-curvature="0"/>
        <g id="g3813" transform="matrix(0.79674273,0,0,0.79674273,503.72487,363.23355)">
          <path id="path2996" d="m -377.96875,-26 c -30.02108,2.556798 -47.53612,10.729094 -72.59375,24.625 -2.2881,1.2688831 20.45322,77.586317 18.21875,78.9375 -12.40434,7.500916 -21.11145,9.825755 -31.65625,19.65625 -2.45131,2.28527 -59.94822,-31.088432 -63.75,-29.96875 -27.71192,8.161565 -34.50367,31.379361 -44.625,53.96875 -0.90732,2.02501 55.37542,54.06647 54.53125,56.125 -5.84898,14.26281 -8.76022,20.73728 -11.34375,36.375 -1.84601,11.17356 -79.21875,1.24084 -79.21875,12.9375 0,16.04125 -3.91998,50.21345 -0.5,65.21875 0.36133,1.58535 81.47787,14.61609 81.875,16.1875 2.56072,10.13251 5.83342,19.95463 9.8125,29.4375 1.02277,2.43746 -54.38527,55.43937 -53.28125,58.34375 10.82686,28.48252 20.55137,40.12066 39.0625,57.9375 2.38266,2.29329 66.97969,-41.89797 69.46875,-39.71875 7.36147,6.44512 15.15607,12.37586 23.375,17.75 2.57777,1.68553 -8.70286,88.29867 -5.84375,90.09375 26.03493,16.34591 34.06728,11.22752 66.4375,13.875 1.9641,0.16065 36.95515,-78.64465 41.9375,-78.09375 9.47175,1.04731 28.24988,0.84375 32.0625,0.84375 6.21067,0 33.48944,74.84282 39.5625,74.3125 34.35572,-3.00003 31.33211,0.68808 58.90625,-16.90625 1.77061,-1.12977 -5.92128,-80.10016 -4.1875,-81.28125 8.31151,-5.66198 19.23101,-16.94878 26.625,-23.71875 3.74208,-3.42626 64.48442,37.99984 67.96875,34.3125 16.224357,-17.16956 28.144434,-29.23187 37.84375,-51.125 1.220261,-2.75436 -53.322,-58.40337 -52.21875,-61.21875 3.71814,-9.4884 10.70362,-19.17041 9.0625,-29.40625 l 80.28125,-13.28125 c 0,-12.36756 3.934074,-54.47204 1.875,-66.25 -0.593845,-3.3968 -75.21308,-10.34919 -75.96875,-13.6875 -1.38389,-6.11365 -5.06219,-18.19632 -6.96875,-24.09375 -1.03886,-3.21345 51.656833,-61.76295 50.46875,-64.90625 -11.582454,-30.643392 -15.880708,-38.54427 -39.5,-60.375 -2.86317,-2.646365 -72.86701,36.922304 -75.875,34.4375 -4.27977,-3.535364 -13.75657,-6.902451 -18.3125,-10.09375 -2.89989,-2.031301 8.41141,-83.9897203 5.40625,-85.875 -24.34784,-15.274603 -38.46811,-19.254674 -68.1875,-23.40625 -4.4513,-0.621813 -41.08851,71.055717 -45.625,70.71875 -5.18702,-0.385288 -14.03171,2.09503 -22.15625,0.125 -6.8342,-1.657147 -37.04158,-73.317298 -42.96875,-72.8125 z m 53.6875,190.0625 c 50.4946,0 91.4375,40.9429 91.4375,91.4375 0,50.4946 -40.9429,91.4375 -91.4375,91.4375 -50.4946,0 -91.4375,-40.9429 -91.4375,-91.4375 0,-50.4946 40.9429,-91.4375 91.4375,-91.4375 z" style="fill:#73d216;fill-opacity:1;stroke:#334343;stroke-width:14;stroke-linecap:round;stroke-linejoin:round;stroke-miterlimit:4;stroke-opacity:1;stroke-dasharray:none;stroke-dashoffset:0" inkscape:connector-curvature="0"/>
          <path inkscape:connector-curvature="0" style="fill:#3465a4;fill-opacity:1;stroke:#334343;stroke-width:14;stroke-linecap:round;stroke-linejoin:round;stroke-miterlimit:4;stroke-opacity:1;stroke-dasharray:none;stroke-dashoffset:0" d="m -56.253144,315.87917 c -10.897411,15.58366 -14.017417,27.37629 -17.412654,45.13839 -0.310029,1.62194 45.871573,21.4529 45.623108,23.0821 -1.379291,9.04427 -3.772548,14.20414 -3.271044,23.28892 0.116595,2.11193 -39.302513,16.48641 -40.296793,18.78163 -7.247488,16.73032 1.259547,29.40824 8.115981,43.44583 0.61464,1.2584 48.590401,-4.98084 49.24682,-3.7395 4.548051,8.60077 6.509041,12.62915 13.0435692,20.20312 4.6690952,5.41183 -31.4242922,38.89578 -25.7553862,43.6244 7.774547,6.48496 22.7517119,22.19959 31.4067729,26.60823 0.9144263,0.4658 40.0227921,-33.58022 40.9449481,-33.13743 5.946032,2.85519 12.02947,5.23983 18.234062,7.14496 1.594818,0.4897 4.882953,48.77077 6.736921,49.40985 18.181288,6.26724 27.753145,6.25912 43.871719,4.49031 2.07471,-0.22766 6.77155,-49.40041 8.83399,-49.72577 6.09971,-0.96225 12.1252,-2.34235 18.0525,-4.15315 1.85902,-0.56789 39.27651,39.91433 41.30236,39.25434 18.44732,-6.00995 19.21387,-11.9721 33.58328,-26.59035 0.87192,-0.88696 -23.17608,-49.70427 -20.89486,-51.89631 4.33672,-4.16719 11.82947,-13.35048 13.37079,-15.19831 2.51079,-3.01005 49.81206,14.02565 52.01018,10.8679 12.43495,-17.86365 13.00007,-14.90725 15.62019,-35.38417 0.16825,-1.31487 -41.21512,-29.5122 -41.08662,-30.82997 0.61593,-6.31721 -0.43994,-16.17235 -0.7319,-22.49281 -0.14774,-3.19877 44.48607,-15.89087 44.10756,-19.07024 -1.7624,-14.80443 -2.78958,-25.45802 -9.47917,-39.00961 -0.84164,-1.70491 -49.8622,2.23237 -50.78069,0.5595 -3.09552,-5.6379 -4.96398,-12.93763 -10.58834,-16.28028 l 26.01833,-44.27827 c -5.99406,-4.99982 -24.81,-23.92805 -31.35071,-27.69156 -1.88638,-1.08542 -35.42216,32.26888 -37.34558,31.28554 -3.52252,-1.80082 -10.86552,-4.90276 -14.49453,-6.36285 -1.97739,-0.79562 -9.05077,-50.00485 -11.05451,-50.69976 -19.53404,-6.77462 -25.10093,-7.88552 -45.229945,-5.26369 -2.440076,0.31778 -11.563109,50.24226 -13.983431,50.69558 -3.44364,0.64497 -8.906704,3.87682 -12.295212,4.79474 -2.156832,0.58429 -37.305978,-38.03112 -39.434583,-37.3368 -17.246063,5.62538 -24.8834269,10.85989 -38.910155,23.58535 -2.10089,1.90599 17.8270416,48.63956 15.8297607,50.70198 -2.2836897,2.35817 -4.6572046,7.64757 -8.896503,10.78879 -3.5660075,2.64232 -50.5087137,-11.68736 -52.6602257,-8.61063 z m 113.819837,50.81621 c 20.413399,-24.47271 56.808717,-27.76415 81.281417,-7.35074 24.47272,20.41339 27.76414,56.80871 7.35074,81.28142 -20.4134,24.4727 -56.808709,27.76413 -81.281414,7.35075 C 40.444732,427.5634 37.153301,391.16808 57.566693,366.69538 z" id="path3775"/>
          <path sodipodi:nodetypes="cccccccccccccccccccccccccccccccccccccccccccccccccccccc" inkscape:connector-curvature="0" id="path3777" d="m 115.40467,230.48319 c -3.67127,0.73312 -12.08327,-0.57045 -14.94179,1.65625 -4.889943,16.01648 -6.449841,31.54665 -12.937499,47.20352 -6.947715,1.4143 -17.706368,10.99224 -24.754284,6.8328 -13.723226,-10.02664 -23.475809,-24.72068 -36.78125,-35.09375 -11.427753,4.06079 -15.448996,7.22609 -24.0851817,15.99572 4.5180859,16.36934 10.8192657,31.70015 13.7921947,48.53125 -4.233128,7.1675 -11.9795235,20.98176 -22.0878812,19.37421 -15.2890878,-1.06717 -28.9932618,-6.90283 -44.1148478,-8.21368 -7.275128,10.91877 -9.955412,16.63055 -11.729695,29.46018 14.362927,7.62862 29.974196,12.6117 43.78125,21.36993 -0.393532,12.18248 -4.345773,26.30513 -3.603902,35.95114 -6.580295,5.27146 -14.387928,8.10725 -20.457805,11.875 -7.64119,3.5368 -12.185168,4.53512 -20.662119,6.80314 -0.512844,12.21806 1.207058,20.17265 6.396098,26.88166 15.981305,-0.93329 32.834244,-3.51147 48.8851522,-3.27617 6.0704028,7.16172 10.418219,19.89072 16.9476525,26.66053 4.0035843,9.3775 -3.6270185,16.72398 -8.45352115,23.68243 -5.20670705,6.39858 -12.45159155,12.70554 -16.20272855,19.9375 8.2273857,7.39742 14.67508018,12.62404 19.886737,17.86564 13.492965,-10.51951 25.242083,-22.53264 39.369924,-32.21875 8.262748,2.62856 20.68586,7.78767 28.858186,10.70273 5.054836,15.90388 3.660613,33.21404 7.03125,48.96367 11.010106,2.92567 18.303425,2.47138 25.6012,3.0625 3.31918,-15.85659 5.34103,-31.8447 10.20781,-47.33867 7.40782,-3.56762 20.44708,-6.03244 28.29569,-7.54648 7.79657,1.3852 13.28617,12.15445 19.28351,16.42633 8.19127,8.16734 13.05997,14.34553 21.73758,21.88617 10.93221,-3.74424 13.78892,-5.99366 20.92307,-14.58518 -6.59347,-16.58002 -18.34793,-34.29288 -22.17656,-51.73906 1.91386,-7.73426 14.51214,-14.52455 18.07694,-21.34296 5.3535,-6.19854 15.92968,-4.19433 22.52169,-2.33011 11.51967,2.8985 20.15333,7.00378 31.87948,8.88246 5.99456,-7.82038 9.87585,-10.55331 9.18829,-20.77776 -9.19316,-6.62047 -16.97751,-12.82682 -26.32852,-19.43242 -4.16073,-3.60162 -12.09075,-8.69157 -14.5828,-13.33281 1.05331,-9.37777 -1.22214,-24.78227 2.32773,-33.51951 10.45275,-8.16762 20.70449,-7.11417 32.51043,-12.65505 2.9354,-0.8555 9.96847,-5.24692 9.96847,-5.24692 -1.29772,-9.00404 0.35258,-14.73562 -4.75587,-22.23556 -16.16278,-0.14077 -35.2607,2.13219 -51.41255,0.58378 -6.54815,-5.64822 -9.25984,-18.95418 -17.34173,-26.75367 8.98003,-15.24221 15.46539,-26.40741 24.34961,-41.70939 -7.95736,-7.17856 -8.77947,-10.01133 -17.309,-16.57424 -12.26889,9.81192 -22.61827,21.9502 -35.8125,30.46875 -7.23578,-3.12843 -19.64594,-6.20793 -24.97304,-12.20273 -5.08661,-15.62005 -7.46861,-33.80692 -11.60898,-49.60898 -8.19155,-2.83574 -5.92929,-3.55559 -14.70589,-3.32344 z m -13.06092,104.87737 c 34.25705,-0.62714 69.48681,32.33139 67.88944,70.68084 -0.33542,32.28875 -32.21186,64.66115 -64.75833,65.41962 -31.464335,1.71035 -67.139457,-25.44065 -71.176796,-56.95087 -4.596432,-28.88951 13.642239,-63.78101 41.447652,-73.47811 7.287715,-2.70659 18.730165,-5.70171 26.598034,-5.67148 z" style="opacity:0.6;fill:url(#radialGradient3819);fill-opacity:1;stroke:#eeeeec;stroke-width:7;stroke-linecap:round;stroke-linejoin:miter;stroke-miterlimit:4;stroke-opacity:1;stroke-dasharray:none;stroke-dashoffset:0"/>
          <path sodipodi:nodetypes="cccccccccccccccccccccccccccccccccccccccccccccccccccccccccccc" inkscape:connector-curvature="0" id="path3793" d="m -383.0625,-15.46875 c -20.06033,2.066976 -38.0989,10.6985152 -55.61485,20.5726525 4.75865,25.3870965 16.07878,48.5226885 17.53633,74.3597715 -6.06073,11.928115 -23.18801,12.759832 -31.93459,21.862526 -5.26319,4.74368 -12.22784,9.84087 -18.66424,5.56911 -19.05184,-7.156074 -35.79328,-20.433846 -54.875,-27.286331 -5.32083,0.14261 -9.53587,3.773222 -13.53125,6.896097 -9.36943,9.204696 -15.55582,21.531524 -19.4375,33.588674 17.43932,17.57089 36.70999,34.62772 52.91133,53.41133 0.723,13.89438 -10.05219,24.52803 -10.1875,38.30742 -1.35027,8.69437 -10.32216,15.81985 -19.1856,16.12179 -20.61737,4.01271 -41.3326,0.33071 -61.63198,4.72704 0.51605,17.12453 -3.51232,33.91964 -1.69257,51.15117 26.12753,5.5783 54.27973,8.79279 80.17148,15.3125 6.87429,11.24068 8.45793,25.80549 13.65625,37.6664 0.78721,10.53003 -12.01776,15.27587 -17.52031,22.73985 -11.91369,12.69721 -23.42272,25.0751 -34.67227,38.28633 6.53114,16.86269 15.79963,31.27487 29.0211,43.61484 22.55196,-11.69446 41.71095,-30.24425 65.77617,-38.7914 10.72461,0.50787 15.53527,13.51179 24.90625,17.10898 6.25418,3.69592 12.38198,8.15526 10.51543,15.75553 -0.36138,26.25552 -5.73863,54.17182 -6.09903,80.42689 15.18313,9.12299 31.96393,8.71538 49.1047,8.78125 13.87831,-24.8969 23.34149,-53.92152 41.34882,-76.26015 9.6951,-5.29081 16.63466,-0.24997 31.44258,-0.7086 12.43783,-0.88154 19.21305,3.09002 22.39023,11.47383 12.3137,19.93646 16.78876,43.35903 29.26602,62.9375 5.41527,0.86389 12.06216,-1.4888 17.59815,-1.2684 10.33461,-0.65771 18.36951,-4.72769 26.4542,-10.6691 -1.84131,-26.20074 -4.36563,-52.72436 -4.27618,-79.15625 10.51946,-9.56207 20.99323,-20.20496 31.53125,-29.4789 10.97111,-4.86525 21.79046,5.44798 31.09883,9.88515 13.12224,7.57845 25.28594,15.02873 39.02617,21.4586 11.21168,-11.80435 21.609371,-23.08853 28.901177,-37.80235 -15.897637,-20.61571 -36.691807,-36.16745 -49.807427,-58.7086 -1.3853,-12.39069 9.18063,-22.05179 8.38008,-35.51015 0.19214,-3.06407 6.52622,-8.80987 11.16089,-8.58534 23.363034,-3.84994 45.715919,-6.68972 69.078957,-10.53966 0.594914,-16.77189 2.226509,-32.49848 1.494924,-49.30235 -23.706383,-5.12482 -48.16308,-4.49584 -71.088671,-12.71875 -7.84235,-6.8781 -6.43043,-21.23767 -11.34883,-29.61913 -2.65461,-8.49545 3.56946,-15.20964 8.94258,-21.05235 12.80854,-16.87773 27.682318,-31.12219 40.093747,-48.33359 -6.139264,-18.29268 -15.374713,-34.540968 -30.083597,-47.396101 -24.28754,10.442758 -46.72137,25.949454 -72.1875,33.531251 -8.75202,-1.19047 -17.43177,-9.349887 -25.55156,-12.17148 -7.89404,-5.377241 -5.43681,-15.915897 -4.24727,-24.215584 1.39829,-21.855954 3.91502,-42.527309 4.6586,-64.4305135 -16.5326,-10.2005233 -33.49094,-16.8091505 -52.69844,-18.8488265 -15.35593,21.638042 -25.14428,48.382526 -42.71875,68.510153 -8.04126,4.568035 -20.40515,1.48137 -29.24414,2.364847 -10.82111,-1.16905 -14.77822,-12.093917 -19.00546,-20.93674 -9.69889,-17.28665 -16.92334,-35.2768425 -28.34923,-51.714433 z m 56,168.4586 c 52.35312,-2.60954 102.18484,42.91218 104.63008,95.2914 3.78027,47.65995 -30.09587,96.62079 -77.03167,106.7878 -42.86226,10.77821 -93.18276,-9.70687 -114.13981,-49.00147 -20.18657,-35.40048 -17.08308,-84.5263 10.0048,-115.50567 18.38281,-22.15992 47.46236,-37.12664 76.5366,-37.57206 z" style="opacity:0.6;fill:url(#radialGradient3821);fill-opacity:1;stroke:#eeeeec;stroke-width:8;stroke-linecap:round;stroke-linejoin:miter;stroke-miterlimit:4;stroke-opacity:1;stroke-dasharray:none;stroke-dashoffset:0"/>
        </g>
      </g>
      <path id="rect3849" d="m -2.8571429,255.21933 748.5714129,0 0,748.57137 -748.5714129,0 z" style="fill:none;fill-opacity:1;stroke:none"/>
    </g>
  </g>
</svg>
