<?xml version="1.0" encoding="UTF-8" standalone="no"?>
<!-- Created with Inkscape (http://www.inkscape.org/) -->
<svg xmlns:dc="http://purl.org/dc/elements/1.1/" xmlns:cc="http://creativecommons.org/ns#" xmlns:rdf="http://www.w3.org/1999/02/22-rdf-syntax-ns#" xmlns:svg="http://www.w3.org/2000/svg" xmlns="http://www.w3.org/2000/svg" xmlns:xlink="http://www.w3.org/1999/xlink" xmlns:sodipodi="http://sodipodi.sourceforge.net/DTD/sodipodi-0.dtd" xmlns:inkscape="http://www.inkscape.org/namespaces/inkscape" width="210mm" height="297mm" id="svg2" version="1.1" inkscape:version="0.48.0 r9654">
  <title id="title3965">internationality</title>
  <defs id="defs4">
    <linearGradient inkscape:collect="always" id="linearGradient3938">
      <stop style="stop-color:#2e3436;stop-opacity:1;" offset="0" id="stop3940"/>
      <stop style="stop-color:#2e3436;stop-opacity:0;" offset="1" id="stop3942"/>
    </linearGradient>
    <linearGradient inkscape:collect="always" id="linearGradient3902">
      <stop style="stop-color:#ffffff;stop-opacity:1;" offset="0" id="stop3904"/>
      <stop style="stop-color:#ffffff;stop-opacity:0;" offset="1" id="stop3906"/>
    </linearGradient>
    <linearGradient inkscape:collect="always" xlink:href="#linearGradient3902" id="linearGradient3908" x1="96.727112" y1="101.57304" x2="596.09717" y2="642.31512" gradientUnits="userSpaceOnUse" gradientTransform="matrix(0.95899968,0,0,0.95899962,14.527016,20.532902)"/>
    <linearGradient inkscape:collect="always" xlink:href="#linearGradient3902" id="linearGradient3934" gradientUnits="userSpaceOnUse" gradientTransform="matrix(0.95899968,0,0,0.95899962,14.527016,20.532902)" x1="96.727112" y1="101.57304" x2="596.09717" y2="642.31512"/>
    <radialGradient inkscape:collect="always" xlink:href="#linearGradient3938" id="radialGradient3944" cx="407.14285" cy="843.79077" fx="407.14285" fy="843.79077" r="381.42856" gradientTransform="matrix(1,0,0,0.22471911,0,654.17486)" gradientUnits="userSpaceOnUse"/>
  </defs>
  <sodipodi:namedview id="base" pagecolor="#ffffff" bordercolor="#666666" borderopacity="1.0" inkscape:pageopacity="0.0" inkscape:pageshadow="2" inkscape:zoom="0.35" inkscape:cx="182.41854" inkscape:cy="550.64412" inkscape:document-units="px" inkscape:current-layer="layer1" showgrid="false" showguides="true" inkscape:guide-bbox="true" inkscape:snap-global="false" inkscape:window-width="1272" inkscape:window-height="713" inkscape:window-x="0" inkscape:window-y="0" inkscape:window-maximized="0">
    <sodipodi:guide orientation="0,1" position="-137.38075,913.1779" id="guide3772"/>
    <sodipodi:guide orientation="0,1" position="-103.03556,189.90868" id="guide3774"/>
    <sodipodi:guide orientation="1,0" position="733.37075,189.90868" id="guide3776"/>
    <sodipodi:guide orientation="1,0" position="10.101525,88.893424" id="guide3778"/>
    <sodipodi:guide orientation="1,0" position="371.73614,123.23861" id="guide3782"/>
    <sodipodi:guide orientation="0,1" position="849.53829,551.54329" id="guide3784"/>
    <sodipodi:guide orientation="-0.70710678,0.70710678" position="307.08637,486.89353" id="guide3805"/>
    <sodipodi:guide orientation="0,1" position="270.72088,422.24376" id="guide3811"/>
    <sodipodi:guide orientation="1,0" position="456.42857,431.42857" id="guide3817"/>
    <sodipodi:guide orientation="0,1" position="405.71429,592.5" id="guide3819"/>
  </sodipodi:namedview>
  <metadata id="metadata7">
    <rdf:RDF>
      <cc:Work rdf:about="">
        <dc:format>image/svg+xml</dc:format>
        <dc:type rdf:resource="http://purl.org/dc/dcmitype/StillImage"/>
        <dc:title>internationality</dc:title>
        <dc:date>Mar 2014</dc:date>
        <dc:creator>
          <cc:Agent>
            <dc:title>Franziska Sponsel</dc:title>
          </cc:Agent>
        </dc:creator>
        <dc:rights>
          <cc:Agent>
            <dc:title>Franziska Sponsel</dc:title>
          </cc:Agent>
        </dc:rights>
        <dc:publisher>
          <cc:Agent>
            <dc:title>RRZE</dc:title>
          </cc:Agent>
        </dc:publisher>
        <dc:subject>
          <rdf:Bag>
            <rdf:li>flag</rdf:li>
            <rdf:li>international</rdf:li>
            <rdf:li>language</rdf:li>
            <rdf:li>german</rdf:li>
            <rdf:li>english</rdf:li>
            <rdf:li>internationality</rdf:li>
          </rdf:Bag>
        </dc:subject>
        <dc:contributor>
          <cc:Agent>
            <dc:title>Martin Fischer</dc:title>
          </cc:Agent>
        </dc:contributor>
        <cc:license rdf:resource="http://creativecommons.org/licenses/by-sa/3.0/"/>
      </cc:Work>
      <cc:License rdf:about="http://creativecommons.org/licenses/by-sa/3.0/">
        <cc:permits rdf:resource="http://creativecommons.org/ns#Reproduction"/>
        <cc:permits rdf:resource="http://creativecommons.org/ns#Distribution"/>
        <cc:requires rdf:resource="http://creativecommons.org/ns#Notice"/>
        <cc:requires rdf:resource="http://creativecommons.org/ns#Attribution"/>
        <cc:permits rdf:resource="http://creativecommons.org/ns#DerivativeWorks"/>
        <cc:requires rdf:resource="http://creativecommons.org/ns#ShareAlike"/>
      </cc:License>
    </rdf:RDF>
  </metadata>
  <g inkscape:label="Ebene 1" inkscape:groupmode="layer" id="layer1">
    <g id="g3946">
      <path transform="matrix(0.88014981,0,0,0.46666667,14.510435,404.30745)" d="m 788.57141,843.79077 a 381.42856,85.714287 0 1 1 -762.857116,0 381.42856,85.714287 0 1 1 762.857116,0 z" sodipodi:ry="85.714287" sodipodi:rx="381.42856" sodipodi:cy="843.79077" sodipodi:cx="407.14285" id="path3936" style="opacity:0.85276046;fill:url(#radialGradient3944);fill-opacity:1;stroke:none" sodipodi:type="arc"/>
      <path id="rect3002" d="m 10.101525,139.18428 723.269225,0 0,723.26923 -723.269225,0 z" style="opacity:0.81999972;fill:none;stroke:none"/>
      <g transform="matrix(0.96355527,0,0,0.96355527,13.547824,12.251471)" id="g3918">
        <path inkscape:connector-curvature="0" style="fill:#204a87;stroke:#555753;stroke-width:13;stroke-miterlimit:4" d="m 93.944187,193.71222 555.583873,0 c 21.26574,0 38.3858,17.12006 38.3858,38.38579 l 0,537.40114 c 0,21.26573 -17.12006,38.3858 -38.3858,38.3858 l -555.583873,0 c -21.265731,0 -38.385795,-17.12007 -38.385795,-38.3858 l 0,-537.40114 c 0,-21.26573 17.120064,-38.38579 38.385795,-38.38579 z" id="rect3780"/>
        <path transform="matrix(0,1,-1,0,0,0)" style="fill:#eeeeec;fill-opacity:1;stroke:none" d="m 414.50504,-456.42853 387.69124,0 0,169.28571 -387.69124,0 z" id="rect3823" inkscape:connector-curvature="0" sodipodi:nodetypes="ccccc"/>
        <path transform="matrix(0.71264275,0.70152713,-0.70152713,0.71264275,0,0)" style="fill:#eeeeec;stroke:none" d="m 559.36218,136.62408 88.89343,0 0,350.4752 c -17.40548,19.24883 -22.90599,29.31957 -39.4121,29.20928 -19.13916,-0.12789 -26.07407,-9.61762 -49.48133,-34.19103 z" id="rect3837" inkscape:connector-curvature="0" sodipodi:nodetypes="cccscc"/>
        <path transform="matrix(-0.71264275,0.70152713,0.70152713,0.71264275,0,0)" style="fill:#eeeeec;stroke:none" d="m 29.67835,658.04608 88.89343,0 0,350.97632 c -3.9926,12.1783 -22.077336,25.9926 -31.144742,26.6499 -16.547689,1.1995 -42.482475,-5.728 -57.748688,-32.883 z" id="rect3839" inkscape:connector-curvature="0" sodipodi:nodetypes="cccscc"/>
        <path transform="matrix(0.70052572,0.71362715,-0.71362715,0.70052572,0,0)" style="fill:#cc0000;fill-opacity:1;stroke:none" d="m 778.1076,42.747299 240.7518,0 c 19.3154,6.298207 24.892,31.797325 14.578,51.42857 l -255.3298,0 z" id="rect3843" inkscape:connector-curvature="0" sodipodi:nodetypes="ccccc"/>
        <path inkscape:connector-curvature="0" style="fill:#eeeeec;fill-opacity:1;stroke:none" d="m 371.42856,460.93359 309.2857,0 0,169.28571 -309.2857,0 z" id="rect3821"/>
        <path transform="matrix(-0.71264275,-0.70152713,0.70152713,-0.71264275,0,0)" style="fill:#eeeeec;stroke:none" d="m -650.17352,-32.577957 88.89342,0 0,312.613427 c -39.58944,41.80183 -64.1514,50.52631 -88.89342,38.22278 z" id="rect3841" inkscape:connector-curvature="0" sodipodi:nodetypes="ccccc"/>
        <path inkscape:connector-curvature="0" transform="matrix(0,1,-1,0,0,0)" style="fill:#cc0000;stroke:none" d="m 500.81891,-680.84277 88.89342,0 0,396.98993 -88.89342,0 z" id="rect3809"/>
        <path style="fill:#cc0000;stroke:none" d="m 327.28943,456.89032 88.89342,0 0,346.2167 -88.89342,0 z" id="rect3807" inkscape:connector-curvature="0" sodipodi:nodetypes="ccccc"/>
        <path style="fill:#000000;fill-opacity:1;stroke:none" d="m 65.48732,201.222 607.69336,-1.42857 c 0,0 -205.37489,206.07112 -206.03782,206.07112 l -406.65554,0 z" id="rect3869" inkscape:connector-curvature="0" sodipodi:nodetypes="ccccc"/>
        <path style="fill:#cc0000;fill-opacity:1;stroke:none" d="m 60.48732,399.86456 412.56064,0 c 0,0 -204.85081,206.07112 -205.19082,206.07112 l -207.36982,0 z" id="rect3883" inkscape:connector-curvature="0" sodipodi:nodetypes="ccccc"/>
        <path style="fill:#edd400;fill-opacity:1;stroke:none" d="m 60.48732,597.85443 215.78334,0 c 0,0 -207.933912,206.78541 -207.699231,206.07112 l -8.084109,0 z" id="rect3885" inkscape:connector-curvature="0" sodipodi:nodetypes="ccccc"/>
        <path inkscape:connector-curvature="0" id="path3890" d="m 93.944187,193.71222 555.583873,0 c 21.26574,0 38.3858,17.12006 38.3858,38.38579 l 0,537.40114 c 0,21.26573 -17.12006,38.3858 -38.3858,38.3858 l -555.583873,0 c -21.265731,0 -38.385795,-17.12007 -38.385795,-38.3858 l 0,-537.40114 c 0,-21.26573 17.120064,-38.38579 38.385795,-38.38579 z" style="fill:none;stroke:#555753;stroke-width:13;stroke-miterlimit:4"/>
        <path style="opacity:0.85276034;fill:url(#linearGradient3934);fill-opacity:1;stroke:#ffffff;stroke-width:12.46699619;stroke-miterlimit:4;stroke-opacity:1" d="m 104.61946,206.30286 532.80475,0 c 32.94177,0 36.81197,9.00289 36.81197,36.81196 l 0,515.36752 c 0,25.39383 -8.56099,36.81197 -36.81197,36.81197 l -532.80475,0 c -27.319226,0 -36.811964,-5.39012 -36.811964,-36.81197 l 0,-515.36752 c 0,-30.33431 8.665571,-36.81196 36.811964,-36.81196 z" id="path3900" inkscape:connector-curvature="0" sodipodi:nodetypes="sssssssss"/>
      </g>
    </g>
  </g>
</svg>
