<?xml version="1.0" encoding="UTF-8" standalone="no"?>
<!-- Created with Inkscape (http://www.inkscape.org/) -->
<svg xmlns:dc="http://purl.org/dc/elements/1.1/" xmlns:cc="http://creativecommons.org/ns#" xmlns:rdf="http://www.w3.org/1999/02/22-rdf-syntax-ns#" xmlns:svg="http://www.w3.org/2000/svg" xmlns="http://www.w3.org/2000/svg" xmlns:xlink="http://www.w3.org/1999/xlink" xmlns:sodipodi="http://sodipodi.sourceforge.net/DTD/sodipodi-0.dtd" xmlns:inkscape="http://www.inkscape.org/namespaces/inkscape" width="210mm" height="297mm" id="svg4292" version="1.1" inkscape:version="0.48.0 r9654">
  <title id="title9510">library</title>
  <defs id="defs4294">
    <linearGradient inkscape:collect="always" id="linearGradient9310">
      <stop style="stop-color:#2e3436;stop-opacity:1;" offset="0" id="stop9312"/>
      <stop style="stop-color:#2e3436;stop-opacity:0;" offset="1" id="stop9314"/>
    </linearGradient>
    <linearGradient inkscape:collect="always" id="linearGradient9292">
      <stop style="stop-color:#2e3436;stop-opacity:1;" offset="0" id="stop9294"/>
      <stop style="stop-color:#2e3436;stop-opacity:0;" offset="1" id="stop9296"/>
    </linearGradient>
    <linearGradient inkscape:collect="always" id="linearGradient9212">
      <stop style="stop-color:#000000;stop-opacity:1;" offset="0" id="stop9214"/>
      <stop style="stop-color:#000000;stop-opacity:0;" offset="1" id="stop9216"/>
    </linearGradient>
    <linearGradient id="linearGradient8895">
      <stop style="stop-color:#ffffff;stop-opacity:0;" offset="0" id="stop8897"/>
      <stop id="stop8905" offset="0.3339161" style="stop-color:#ffffff;stop-opacity:0.74901961;"/>
      <stop id="stop8903" offset="0.52797198" style="stop-color:#ffffff;stop-opacity:0.92156863;"/>
      <stop style="stop-color:#ffffff;stop-opacity:0;" offset="1" id="stop8899"/>
    </linearGradient>
    <linearGradient id="linearGradient8881">
      <stop style="stop-color:#ffffff;stop-opacity:1;" offset="0" id="stop8883"/>
      <stop id="stop8891" offset="0.30665722" style="stop-color:#ffffff;stop-opacity:0.74901961;"/>
      <stop id="stop8889" offset="0.68130308" style="stop-color:#ffffff;stop-opacity:0.60434783;"/>
      <stop style="stop-color:#ffffff;stop-opacity:1;" offset="1" id="stop8885"/>
    </linearGradient>
    <linearGradient inkscape:collect="always" id="linearGradient8865">
      <stop style="stop-color:#555753;stop-opacity:1;" offset="0" id="stop8867"/>
      <stop style="stop-color:#555753;stop-opacity:0;" offset="1" id="stop8869"/>
    </linearGradient>
    <radialGradient inkscape:collect="always" xlink:href="#linearGradient9212" id="radialGradient9218" cx="317.1879" cy="-416.39963" fx="317.1879" fy="-416.39963" r="486.89353" gradientTransform="matrix(1.7137774,0.03784374,-0.01603262,0.72604746,-233.07753,-126.07732)" gradientUnits="userSpaceOnUse"/>
    <filter inkscape:collect="always" id="filter9282" x="-0.074086957" width="1.1481739" y="-0.31555555" height="1.6311111">
      <feGaussianBlur inkscape:collect="always" stdDeviation="28.688332" id="feGaussianBlur9284"/>
    </filter>
    <linearGradient inkscape:collect="always" xlink:href="#linearGradient8865" id="linearGradient9428" gradientUnits="userSpaceOnUse" gradientTransform="matrix(1.4950153,0,0,1,389.60528,0)" x1="121.87132" y1="159.4608" x2="113.28503" y2="-0.14329973"/>
    <linearGradient inkscape:collect="always" xlink:href="#linearGradient8881" id="linearGradient9430" gradientUnits="userSpaceOnUse" gradientTransform="matrix(1.4950153,0,0,0.99724209,389.60528,-0.22315204)" x1="58.214286" y1="45.667577" x2="184.28572" y2="45.667577"/>
    <linearGradient inkscape:collect="always" xlink:href="#linearGradient8895" id="linearGradient9432" gradientUnits="userSpaceOnUse" gradientTransform="matrix(1.4950153,0,0,1,389.60528,0)" x1="48.487322" y1="491.47534" x2="192.93914" y2="491.47534"/>
    <linearGradient inkscape:collect="always" xlink:href="#linearGradient9292" id="linearGradient9434" gradientUnits="userSpaceOnUse" x1="157.0838" y1="345.2554" x2="190.40868" y2="345.2554"/>
    <linearGradient inkscape:collect="always" xlink:href="#linearGradient9310" id="linearGradient9436" gradientUnits="userSpaceOnUse" x1="498.51538" y1="352.32648" x2="394.4595" y2="346.26553"/>
    <linearGradient inkscape:collect="always" xlink:href="#linearGradient8865" id="linearGradient9438" gradientUnits="userSpaceOnUse" x1="121.87132" y1="159.4608" x2="113.28503" y2="-0.14329973"/>
    <linearGradient inkscape:collect="always" xlink:href="#linearGradient8881" id="linearGradient9440" gradientUnits="userSpaceOnUse" gradientTransform="matrix(1,0,0,0.99724209,0,-0.22315204)" x1="58.214286" y1="45.667577" x2="184.28572" y2="45.667577"/>
    <linearGradient inkscape:collect="always" xlink:href="#linearGradient8895" id="linearGradient9442" gradientUnits="userSpaceOnUse" x1="48.487322" y1="491.47534" x2="192.93914" y2="491.47534"/>
    <linearGradient inkscape:collect="always" xlink:href="#linearGradient8865" id="linearGradient9444" gradientUnits="userSpaceOnUse" gradientTransform="matrix(1.4950153,0,0,1,-142.39472,0)" x1="121.87132" y1="159.4608" x2="113.28503" y2="-0.14329973"/>
    <linearGradient inkscape:collect="always" xlink:href="#linearGradient8895" id="linearGradient9446" gradientUnits="userSpaceOnUse" gradientTransform="matrix(1.4950153,0,0,1,-142.39472,0)" x1="48.487322" y1="491.47534" x2="192.93914" y2="491.47534"/>
    <linearGradient inkscape:collect="always" xlink:href="#linearGradient8881" id="linearGradient9448" gradientUnits="userSpaceOnUse" gradientTransform="matrix(1.4950153,0,0,0.99724209,-142.39472,-0.22315204)" x1="58.214286" y1="45.667577" x2="184.28572" y2="45.667577"/>
  </defs>
  <sodipodi:namedview id="base" pagecolor="#ffffff" bordercolor="#666666" borderopacity="1.0" inkscape:pageopacity="0.0" inkscape:pageshadow="2" inkscape:zoom="0.24748737" inkscape:cx="17.458566" inkscape:cy="482.53244" inkscape:document-units="px" inkscape:current-layer="layer1" showgrid="false" showguides="true" inkscape:guide-bbox="true" inkscape:snap-global="false" inkscape:window-width="1183" inkscape:window-height="690" inkscape:window-x="20" inkscape:window-y="20" inkscape:window-maximized="0">
    <sodipodi:guide orientation="0,1" position="-94.285714,914.28571" id="guide4304"/>
    <sodipodi:guide orientation="0,1" position="-125.71429,217.14286" id="guide4306"/>
    <sodipodi:guide orientation="1,0" position="708.57143,28.571429" id="guide4308"/>
    <sodipodi:guide orientation="1,0" position="11.428571,57.142857" id="guide4312"/>
    <sodipodi:guide orientation="1,0" position="121.42857,630" id="guide8333"/>
  </sodipodi:namedview>
  <metadata id="metadata4297">
    <rdf:RDF>
      <cc:Work rdf:about="">
        <dc:format>image/svg+xml</dc:format>
        <dc:type rdf:resource="http://purl.org/dc/dcmitype/StillImage"/>
        <dc:title>library</dc:title>
        <dc:date>Sept 2011</dc:date>
        <dc:creator>
          <cc:Agent>
            <dc:title>Franziska Sponsel</dc:title>
          </cc:Agent>
        </dc:creator>
        <dc:rights>
          <cc:Agent>
            <dc:title>Franziska Sponsel</dc:title>
          </cc:Agent>
        </dc:rights>
        <dc:publisher>
          <cc:Agent>
            <dc:title>RRZE</dc:title>
          </cc:Agent>
        </dc:publisher>
        <dc:subject>
          <rdf:Bag>
            <rdf:li>library</rdf:li>
            <rdf:li>books</rdf:li>
            <rdf:li>shelf</rdf:li>
          </rdf:Bag>
        </dc:subject>
        <dc:contributor>
          <cc:Agent>
            <dc:title>Florian Löffler</dc:title>
          </cc:Agent>
        </dc:contributor>
        <cc:license rdf:resource="http://creativecommons.org/licenses/by-sa/3.0/"/>
      </cc:Work>
      <cc:License rdf:about="http://creativecommons.org/licenses/by-sa/3.0/">
        <cc:permits rdf:resource="http://creativecommons.org/ns#Reproduction"/>
        <cc:permits rdf:resource="http://creativecommons.org/ns#Distribution"/>
        <cc:requires rdf:resource="http://creativecommons.org/ns#Notice"/>
        <cc:requires rdf:resource="http://creativecommons.org/ns#Attribution"/>
        <cc:permits rdf:resource="http://creativecommons.org/ns#DerivativeWorks"/>
        <cc:requires rdf:resource="http://creativecommons.org/ns#ShareAlike"/>
      </cc:License>
    </rdf:RDF>
  </metadata>
  <g inkscape:label="Ebene 1" inkscape:groupmode="layer" id="layer1">
    <g id="g9455">
      <path inkscape:connector-curvature="0" id="rect9452" d="m 15.232208,142.16582 690.392752,0 0,690.39275 -690.392752,0 z" style="opacity:0.53484659000000001;fill:none;fill-opacity:1;stroke:none;stroke-width:6.60727405999999995;stroke-linecap:round;stroke-linejoin:round;stroke-miterlimit:4;stroke-opacity:1;stroke-dashoffset:0"/>
      <g transform="matrix(0.68488295,0,0,0.68488295,148.75376,216.29657)" id="g9375">
        <path style="opacity:0.65644172;fill:#000000;fill-opacity:1;stroke:none;filter:url(#filter9282)" d="m 36.365497,422.02699 634.375793,12.12183 c 44.76179,0.85532 109.09647,246.15398 109.09647,290.92394 l 0,56.56854 c 0,44.76996 -36.04224,80.8122 -80.8122,80.8122 l -767.715928,0 c -44.769962,0 -80.812202,-36.04224 -80.812202,-80.8122 l 0,-56.56854 c 0,-44.76996 141.1062757,-303.90109 185.868067,-303.04577 z" id="rect9247" inkscape:connector-curvature="0" sodipodi:nodetypes="sssssssss" transform="matrix(0.90911845,0,0,0.86021857,20.5617,93.813723)"/>
        <g id="g9324">
          <path inkscape:connector-curvature="0" id="path9286" d="M 189.90868,-89.110193 187.88837,466.47371 163.64471,779.621 157.5838,157.36703 z" style="fill:#4e9a06;stroke:#4e9a06;stroke-width:1px;stroke-linecap:butt;stroke-linejoin:miter;stroke-opacity:1"/>
          <rect y="138.07646" x="11.428572" height="697.14288" width="697.14288" id="rect4302" style="opacity:0.82822086;fill:none;stroke:none"/>
          <path sodipodi:nodetypes="ccccccc" inkscape:connector-curvature="0" id="path9001" d="m 453.67736,170.93361 -31.719,-256.132706 c 52.67566,18.354781 108.96372,23.419943 172.99463,0 L 688.60834,168.07647 686.47261,776.6479 455.8131,773.79075 z" style="fill:#d3d7cf;stroke:#a40000;stroke-width:20.78603935;stroke-linecap:butt;stroke-linejoin:round;stroke-miterlimit:4;stroke-opacity:1;stroke-dasharray:none"/>
          <path sodipodi:nodetypes="ccccc" inkscape:connector-curvature="0" id="path9003" d="m 453.67736,169.50504 0,605.71429 c 78.31033,43.80952 156.62066,43.80952 234.93098,0 l 0,-607.14286 c -81.33299,51.00958 -159.28868,45.58082 -234.93098,1.42857 z" style="fill:#ef2929;stroke:#a40000;stroke-width:14.67249775;stroke-linecap:butt;stroke-linejoin:round;stroke-miterlimit:4;stroke-opacity:1;stroke-dasharray:none"/>
          <path sodipodi:nodetypes="ccccc" inkscape:connector-curvature="0" id="path9005" d="m 442.56391,-86.869148 32.52177,252.528388 c 62.02233,25.89482 124.04466,24.0529 186.067,0 L 574.61147,-86.869147 c -47.24849,14.448255 -95.44306,14.030368 -132.04756,-10e-7 z" style="fill:#eeeeec;stroke:#888a85;stroke-width:19.47200203;stroke-linecap:butt;stroke-linejoin:round;stroke-miterlimit:4;stroke-opacity:1;stroke-dasharray:none"/>
          <path sodipodi:nodetypes="cc" inkscape:connector-curvature="0" id="path9007" d="M 489.98488,160.93361 464.99066,-66.699455" style="fill:none;stroke:#555753;stroke-width:8.5589571;stroke-linecap:round;stroke-linejoin:miter;stroke-miterlimit:4;stroke-opacity:1;stroke-dasharray:none"/>
          <path sodipodi:nodetypes="cc" inkscape:connector-curvature="0" id="path9009" d="M 513.47798,169.50504 482.30741,-63.005474" style="fill:#555753;stroke:#555753;stroke-width:8.5589571;stroke-linecap:round;stroke-linejoin:miter;stroke-miterlimit:4;stroke-opacity:1;stroke-dasharray:none"/>
          <path sodipodi:nodetypes="cc" inkscape:connector-curvature="0" id="path9011" d="M 545.51401,175.21933 500.40345,-59.138179" style="fill:none;stroke:#555753;stroke-width:8.5589571;stroke-linecap:round;stroke-linejoin:miter;stroke-miterlimit:4;stroke-opacity:1;stroke-dasharray:none"/>
          <path sodipodi:nodetypes="cc" inkscape:connector-curvature="0" id="path9013" d="M 569.00712,173.79075 519.50965,-57.709607" style="fill:none;stroke:#555753;stroke-width:8.5589571;stroke-linecap:round;stroke-linejoin:miter;stroke-miterlimit:4;stroke-opacity:1;stroke-dasharray:none"/>
          <path sodipodi:nodetypes="cc" inkscape:connector-curvature="0" id="path9015" d="M 594.63595,172.36218 536.59553,-57.536293" style="fill:none;stroke:#555753;stroke-width:8.5589571;stroke-linecap:round;stroke-linejoin:miter;stroke-miterlimit:4;stroke-opacity:1;stroke-dasharray:none"/>
          <path sodipodi:nodetypes="cc" inkscape:connector-curvature="0" id="path9017" d="M 620.26478,168.07647 549.64081,-59.556598" style="fill:#555753;stroke:#555753;stroke-width:8.5589571;stroke-linecap:round;stroke-linejoin:miter;stroke-miterlimit:4;stroke-opacity:1;stroke-dasharray:none"/>
          <path sodipodi:nodetypes="cc" inkscape:connector-curvature="0" id="path9019" d="M 647.4038,166.15769 562.68608,-63.005474" style="fill:none;stroke:#555753;stroke-width:8.5589571;stroke-linecap:round;stroke-linejoin:miter;stroke-miterlimit:4;stroke-opacity:1;stroke-dasharray:none"/>
          <path sodipodi:nodetypes="ccssc" inkscape:connector-curvature="0" id="path9021" d="m 476.25819,167.4662 c 60.30217,25.77176 124.85157,23.00034 189.17858,1.15558 -0.50744,-0.2396 -0.37571,-5.52044 -4.46259,-5.73754 -29.56483,-1.57053 -129.56592,8.47248 -169.03514,-0.3193 -13.5835,-3.02573 -15.09666,0.16556 -15.68085,4.90126 z" style="fill:#fce94f;fill-opacity:1;stroke:none"/>
          <path style="fill:url(#linearGradient9428);fill-opacity:1;stroke:none" d="m 478.17276,160.5708 c 60.30218,24.77066 122.937,22.00636 187.26401,1.01016 -2.90226,-0.52274 -56.99155,-173.249342 -59.82407,-173.718757 -74.14048,-12.286881 -73.52686,165.590817 -119.61028,171.669507 -2.62338,0.34604 -5.2321,0.69348 -7.82966,1.03909 z" id="path9023" inkscape:connector-curvature="0" sodipodi:nodetypes="ccssc"/>
          <path inkscape:connector-curvature="0" id="path9288" d="m 416.18285,-87.089888 0,141.421356 10.10152,682.863122 24.24366,38.3858 2.02031,-604.07123 z" style="fill:#a40000;stroke:#a40000;stroke-width:1px;stroke-linecap:butt;stroke-linejoin:miter;stroke-opacity:1"/>
          <path sodipodi:nodetypes="ccccc" inkscape:connector-curvature="0" id="path9025" d="m 477.39162,159.29504 c 65.05317,28.03063 132.66277,17.97046 187.1897,2.02822 L 570.2766,-73.75868 c -69.29336,13.91828 -83.4711,8.006601 -120.98187,-1.093785 z" style="opacity:0.74846628;fill:url(#linearGradient9430);fill-opacity:1;stroke:none"/>
          <path sodipodi:nodetypes="ccccc" inkscape:connector-curvature="0" id="path9027" d="m 467.96784,188.69227 0,582.36781 c 71.9859,36.14004 134.36097,38.28607 206.34687,0.35714 l 1.06786,-584.09224 c -69.88555,33.56542 -130.71045,34.83833 -207.41473,1.36729 z" style="opacity:0.67484663;fill:url(#linearGradient9432);fill-opacity:1;stroke:#eeeeec;stroke-width:7.33624887;stroke-linecap:butt;stroke-linejoin:miter;stroke-miterlimit:4;stroke-opacity:1;stroke-dasharray:none"/>
          <path style="fill:url(#linearGradient9434);fill-opacity:1;stroke:#2e3436;stroke-width:1px;stroke-linecap:butt;stroke-linejoin:miter;stroke-opacity:1" d="M 189.90868,-89.110193 187.88837,466.47371 163.64471,779.621 157.5838,157.36703 z" id="path9290" inkscape:connector-curvature="0"/>
          <path style="fill:url(#linearGradient9436);fill-opacity:1;stroke:none" d="m 416.18285,-87.089888 0,141.421356 10.10152,682.863122 24.24366,38.3858 2.02031,-604.07123 z" id="path9308" inkscape:connector-curvature="0"/>
          <g transform="matrix(1.4950153,0,0,1,123.60528,0)" id="g9035">
            <g id="g9037">
              <path style="fill:#d3d7cf;stroke:#204a87;stroke-width:17;stroke-linecap:butt;stroke-linejoin:round;stroke-miterlimit:4;stroke-opacity:1;stroke-dasharray:none" d="m 42.857143,170.93361 20,-257.142859 c 35.234196,18.354781 72.884687,23.419943 115.714287,0 L 200,168.07647 198.57143,776.6479 44.285714,773.79075 z" id="path9039" inkscape:connector-curvature="0" sodipodi:nodetypes="ccccccc"/>
              <path style="fill:#3465a4;stroke:#204a87;stroke-width:12;stroke-linecap:butt;stroke-linejoin:round;stroke-miterlimit:4;stroke-opacity:1;stroke-dasharray:none" d="m 42.857143,169.50504 0,605.71429 c 52.380952,43.80952 104.761907,43.80952 157.142857,0 l 0,-607.14286 c -54.40278,51.00958 -106.546519,45.58082 -157.142857,1.42857 z" id="path9041" inkscape:connector-curvature="0" sodipodi:nodetypes="ccccc"/>
              <path style="fill:#eeeeec;stroke:#888a85;stroke-width:15.92530537;stroke-linecap:butt;stroke-linejoin:round;stroke-miterlimit:4;stroke-opacity:1;stroke-dasharray:none" d="M 75.288616,-88.889453 57.176938,165.65924 c 41.486087,25.89482 82.972172,24.0529 124.458262,0 L 163.61384,-88.889452 c -31.60402,14.448255 -63.840859,14.030368 -88.325224,-10e-7 z" id="path9043" inkscape:connector-curvature="0" sodipodi:nodetypes="ccccc"/>
              <path style="fill:none;stroke:#555753;stroke-width:7;stroke-linecap:round;stroke-linejoin:miter;stroke-miterlimit:4;stroke-opacity:1;stroke-dasharray:none" d="M 67.142857,160.93361 82.857143,-74.780675" id="path9045" inkscape:connector-curvature="0"/>
              <path style="fill:#555753;stroke:#555753;stroke-width:7;stroke-linecap:round;stroke-linejoin:miter;stroke-miterlimit:4;stroke-opacity:1;stroke-dasharray:none" d="M 82.857143,169.50504 97.142857,-69.066389" id="path9047" inkscape:connector-curvature="0"/>
              <path style="fill:none;stroke:#555753;stroke-width:7;stroke-linecap:round;stroke-linejoin:miter;stroke-miterlimit:4;stroke-opacity:1;stroke-dasharray:none" d="m 104.28571,175.21933 4.28572,-241.428577" id="path9049" inkscape:connector-curvature="0"/>
              <path style="fill:none;stroke:#555753;stroke-width:7;stroke-linecap:round;stroke-linejoin:miter;stroke-miterlimit:4;stroke-opacity:1;stroke-dasharray:none" d="m 120,173.79075 0,-238.571425" id="path9051" inkscape:connector-curvature="0"/>
              <path style="fill:none;stroke:#555753;stroke-width:7;stroke-linecap:round;stroke-linejoin:miter;stroke-miterlimit:4;stroke-opacity:1;stroke-dasharray:none" d="M 137.14286,172.36218 131.42857,-67.637818" id="path9053" inkscape:connector-curvature="0"/>
              <path style="fill:#555753;stroke:#555753;stroke-width:7;stroke-linecap:round;stroke-linejoin:miter;stroke-miterlimit:4;stroke-opacity:1;stroke-dasharray:none" d="M 154.28571,168.07647 142.85714,-67.637818" id="path9055" inkscape:connector-curvature="0"/>
              <path style="fill:none;stroke:#555753;stroke-width:7;stroke-linecap:round;stroke-linejoin:miter;stroke-miterlimit:4;stroke-opacity:1;stroke-dasharray:none" d="M 172.43872,166.15769 154.28571,-69.066389" id="path9057" inkscape:connector-curvature="0" sodipodi:nodetypes="cc"/>
              <path style="fill:#fce94f;fill-opacity:1;stroke:none" d="m 57.961219,167.4662 c 40.335489,25.77176 83.511901,23.00034 126.539561,1.15558 -0.33942,-0.2396 -0.25131,-5.52044 -2.98498,-5.73754 -19.7756,-1.57053 -86.66528,8.47248 -113.065825,-0.3193 -9.085857,-3.02573 -10.097995,0.16556 -10.488756,4.90126 z" id="path9059" inkscape:connector-curvature="0" sodipodi:nodetypes="ccssc"/>
              <path sodipodi:nodetypes="ccssc" inkscape:connector-curvature="0" id="path9061" d="m 59.241857,160.5708 c 40.335489,24.77066 82.231263,22.00636 125.258923,1.01016 C 182.55949,161.05822 172.05559,-6.6176192 170.16095,-7.0870342 120.56916,-19.373915 95.30375,153.45302 64.479031,159.53171 c -1.754753,0.34604 -3.499695,0.69348 -5.237174,1.03909 z" style="fill:url(#linearGradient9438);fill-opacity:1;stroke:none"/>
              <path style="opacity:0.74846628;fill:url(#linearGradient9440);fill-opacity:1;stroke:none" d="m 58.719362,159.29504 c 43.513378,28.03063 88.736728,17.97046 125.209218,2.02822 L 160.71429,-79.819595 c -46.3496,13.91828 -55.83294,8.006601 -80.9235,-1.093785 z" id="path9063" inkscape:connector-curvature="0" sodipodi:nodetypes="ccccc"/>
              <path style="opacity:0.67484663;fill:url(#linearGradient9442);fill-opacity:1;stroke:#729fcf;stroke-width:6;stroke-linecap:butt;stroke-linejoin:miter;stroke-miterlimit:4;stroke-opacity:1;stroke-dasharray:none" d="m 52.415893,188.69227 0,582.36781 c 48.150607,36.14004 89.872637,38.28607 138.023247,0.35714 l 0.71428,-584.09224 c -46.74571,33.56542 -87.43084,34.83833 -138.737527,1.36729 z" id="path9065" inkscape:connector-curvature="0" sodipodi:nodetypes="ccccc"/>
            </g>
          </g>
          <path sodipodi:nodetypes="ccccccc" inkscape:connector-curvature="0" id="path9077" d="M -78.322636,170.93361 10.149099,-83.352106 c 52.675662,18.354781 108.963721,23.419943 172.994631,0 L 156.60834,168.07647 154.47261,776.6479 -76.1869,773.79075 z" style="fill:#d3d7cf;stroke:#4e9a06;stroke-width:20.78603935;stroke-linecap:butt;stroke-linejoin:round;stroke-miterlimit:4;stroke-opacity:1;stroke-dasharray:none"/>
          <path sodipodi:nodetypes="ccccc" inkscape:connector-curvature="0" id="path9079" d="m -78.322636,169.50504 0,605.71429 c 78.31032517,43.80952 156.620654,43.80952 234.930976,0 l 0,-607.14286 c -81.332988,51.00958 -159.2886761,45.58082 -234.930976,1.42857 z" style="fill:#73d216;stroke:#4e9a06;stroke-width:14.67249775;stroke-linecap:butt;stroke-linejoin:round;stroke-miterlimit:4;stroke-opacity:1;stroke-dasharray:none"/>
          <path sodipodi:nodetypes="ccccc" inkscape:connector-curvature="0" id="path9081" d="M 31.591484,-83.175167 -56.914323,165.65924 c 62.0223349,25.89482 124.044667,24.0529 186.067003,0 l 34.48636,-248.834406 c -47.24849,14.448255 -95.443055,14.030368 -132.047556,-10e-7 z" style="fill:#eeeeec;stroke:#888a85;stroke-width:19.47200203;stroke-linecap:butt;stroke-linejoin:round;stroke-miterlimit:4;stroke-opacity:1;stroke-dasharray:none"/>
          <path sodipodi:nodetypes="cc" inkscape:connector-curvature="0" id="path9083" d="M -42.015121,160.93361 42.906547,-61.923532" style="fill:none;stroke:#555753;stroke-width:8.5589571;stroke-linecap:round;stroke-linejoin:miter;stroke-miterlimit:4;stroke-opacity:1;stroke-dasharray:none"/>
          <path sodipodi:nodetypes="cc" inkscape:connector-curvature="0" id="path9085" d="m -18.522024,169.50504 75.643076,-230" style="fill:#555753;stroke:#555753;stroke-width:8.5589571;stroke-linecap:round;stroke-linejoin:miter;stroke-miterlimit:4;stroke-opacity:1;stroke-dasharray:none"/>
          <path sodipodi:nodetypes="cc" inkscape:connector-curvature="0" id="path9087" d="M 13.514012,175.21933 68.492658,-57.637818" style="fill:none;stroke:#555753;stroke-width:8.5589571;stroke-linecap:round;stroke-linejoin:miter;stroke-miterlimit:4;stroke-opacity:1;stroke-dasharray:none"/>
          <path sodipodi:nodetypes="cc" inkscape:connector-curvature="0" id="path9089" d="m 37.007116,173.79075 50,-232.857139" style="fill:none;stroke:#555753;stroke-width:8.5589571;stroke-linecap:round;stroke-linejoin:miter;stroke-miterlimit:4;stroke-opacity:1;stroke-dasharray:none"/>
          <path sodipodi:nodetypes="cc" inkscape:connector-curvature="0" id="path9091" d="M 62.635954,172.36218 108.37872,-59.066389" style="fill:none;stroke:#555753;stroke-width:8.5589571;stroke-linecap:round;stroke-linejoin:miter;stroke-miterlimit:4;stroke-opacity:1;stroke-dasharray:none"/>
          <path sodipodi:nodetypes="cc" inkscape:connector-curvature="0" id="path9093" d="M 88.264777,168.07647 128.32175,-63.352104" style="fill:#555753;stroke:#555753;stroke-width:8.5589571;stroke-linecap:round;stroke-linejoin:miter;stroke-miterlimit:4;stroke-opacity:1;stroke-dasharray:none"/>
          <path sodipodi:nodetypes="cc" inkscape:connector-curvature="0" id="path9095" d="M 115.4038,166.15769 145.40763,-66.209246" style="fill:none;stroke:#555753;stroke-width:8.5589571;stroke-linecap:round;stroke-linejoin:miter;stroke-miterlimit:4;stroke-opacity:1;stroke-dasharray:none"/>
          <path sodipodi:nodetypes="ccssc" inkscape:connector-curvature="0" id="path9097" d="m -55.741811,167.4662 c 60.3021734,25.77176 124.85157,23.00034 189.178581,1.15558 -0.50744,-0.2396 -0.37571,-5.52044 -4.46259,-5.73754 -29.564826,-1.57053 -129.56592139,8.47248 -169.03514,-0.3193 -13.583495,-3.02573 -15.096657,0.16556 -15.680851,4.90126 z" style="fill:#fce94f;fill-opacity:1;stroke:none"/>
          <path style="fill:url(#linearGradient9444);fill-opacity:1;stroke:none" d="m -53.827237,160.5708 c 60.3021728,24.77066 122.936996,22.00636 187.264007,1.01016 -2.90226,-0.52274 17.10854,-172.484293 14.27602,-172.953708 C 73.572305,-23.659629 0.0858444,153.45302 -45.997582,159.53171 c -2.623383,0.34604 -5.232098,0.69348 -7.829655,1.03909 z" id="path9099" inkscape:connector-curvature="0" sodipodi:nodetypes="ccssc"/>
          <path sodipodi:nodetypes="ccccc" inkscape:connector-curvature="0" id="path9103" d="m -64.032158,188.69227 0,582.36781 c 71.9858942,36.14004 134.360967,38.28607 206.346868,0.35714 l 1.06786,-584.09224 C 73.497016,220.8904 12.672124,222.16331 -64.032158,188.69227 z" style="opacity:0.67484663;fill:url(#linearGradient9446);fill-opacity:1;stroke:#eeeeec;stroke-width:7.33624887;stroke-linecap:butt;stroke-linejoin:miter;stroke-miterlimit:4;stroke-opacity:1;stroke-dasharray:none"/>
          <path sodipodi:nodetypes="ccccc" inkscape:connector-curvature="0" id="path9101" d="m -54.608375,159.29504 c 65.053165,28.03063 132.662766,17.97046 187.189695,2.02822 l 23.86571,-235.428569 c -69.29336,13.91828 -83.471098,8.006601 -120.981869,-1.093785 z" style="opacity:0.74846628;fill:url(#linearGradient9448);fill-opacity:1;stroke:none"/>
        </g>
      </g>
    </g>
  </g>
</svg>
