<?xml version="1.0" encoding="UTF-8" standalone="no"?>
<!-- Created with Inkscape (http://www.inkscape.org/) -->
<svg xmlns:dc="http://purl.org/dc/elements/1.1/" xmlns:cc="http://creativecommons.org/ns#" xmlns:rdf="http://www.w3.org/1999/02/22-rdf-syntax-ns#" xmlns:svg="http://www.w3.org/2000/svg" xmlns="http://www.w3.org/2000/svg" xmlns:xlink="http://www.w3.org/1999/xlink" xmlns:sodipodi="http://sodipodi.sourceforge.net/DTD/sodipodi-0.dtd" xmlns:inkscape="http://www.inkscape.org/namespaces/inkscape" width="210mm" height="297mm" id="svg5080" version="1.1" inkscape:version="0.48.0 r9654">
  <title id="title6120">linkage</title>
  <defs id="defs3">
    <linearGradient inkscape:collect="always" id="linearGradient6034">
      <stop style="stop-color:#000000;stop-opacity:1;" offset="0" id="stop6036"/>
      <stop style="stop-color:#000000;stop-opacity:0;" offset="1" id="stop6038"/>
    </linearGradient>
    <linearGradient id="linearGradient5933">
      <stop style="stop-color:#ffffff;stop-opacity:1;" offset="0" id="stop5935"/>
      <stop style="stop-color:#000000;stop-opacity:1;" offset="1" id="stop5937"/>
    </linearGradient>
    <linearGradient id="linearGradient5923">
      <stop style="stop-color:#000000;stop-opacity:1;" offset="0" id="stop5925"/>
      <stop id="stop5931" offset="0.5" style="stop-color:#ffffff;stop-opacity:1;"/>
      <stop style="stop-color:#000000;stop-opacity:1;" offset="1" id="stop5927"/>
    </linearGradient>
    <linearGradient id="linearGradient5901">
      <stop style="stop-color:#000000;stop-opacity:1;" offset="0" id="stop5903"/>
      <stop id="stop5915" offset="0.20075315" style="stop-color:#ffffff;stop-opacity:1;"/>
      <stop id="stop5913" offset="0.56246477" style="stop-color:#000000;stop-opacity:0.8745098;"/>
      <stop id="stop5911" offset="0.56246477" style="stop-color:#000000;stop-opacity:0.74901961;"/>
      <stop id="stop5909" offset="0.73176825" style="stop-color:#ffffff;stop-opacity:1;"/>
      <stop style="stop-color:#000000;stop-opacity:1;" offset="1" id="stop5905"/>
    </linearGradient>
    <radialGradient inkscape:collect="always" xlink:href="#linearGradient6034" id="radialGradient6076" gradientUnits="userSpaceOnUse" gradientTransform="matrix(0.5945946,0,0,0.0918919,206.72635,791.07472)" cx="494.97473" cy="886.69714" fx="494.97473" fy="886.69714" r="373.75644"/>
    <linearGradient inkscape:collect="always" xlink:href="#linearGradient5901" id="linearGradient6078" gradientUnits="userSpaceOnUse" gradientTransform="matrix(0.46410748,-0.33235028,0.25960486,0.3625228,258.48582,107.05235)" x1="-371.16357" y1="657.98749" x2="-66.469498" y2="662.02808"/>
    <linearGradient inkscape:collect="always" xlink:href="#linearGradient5933" id="linearGradient6080" gradientUnits="userSpaceOnUse" gradientTransform="matrix(0.46410748,-0.33235028,0.25960486,0.3625228,258.48582,107.05235)" x1="-371.16357" y1="657.98749" x2="-66.469498" y2="662.02808"/>
    <linearGradient inkscape:collect="always" xlink:href="#linearGradient5901" id="linearGradient6082" gradientUnits="userSpaceOnUse" gradientTransform="matrix(0.46410748,-0.33235028,0.25960486,0.3625228,494.12125,436.10326)" x1="-371.16357" y1="657.98743" x2="-94.753769" y2="662.02808"/>
    <linearGradient inkscape:collect="always" xlink:href="#linearGradient5933" id="linearGradient6084" gradientUnits="userSpaceOnUse" gradientTransform="matrix(0.46410748,-0.33235028,0.25960486,0.3625228,258.48582,107.05235)" x1="-371.16357" y1="1565.657" x2="-94.753769" y2="1569.6976"/>
    <linearGradient inkscape:collect="always" xlink:href="#linearGradient5923" id="linearGradient6086" gradientUnits="userSpaceOnUse" gradientTransform="matrix(0.46410748,-0.33235028,0.25960486,0.3625228,258.48582,107.05235)" x1="-298.13004" y1="1115.7548" x2="-154.48199" y2="1115.7548"/>
    <linearGradient inkscape:collect="always" xlink:href="#linearGradient5933" id="linearGradient6088" gradientUnits="userSpaceOnUse" gradientTransform="matrix(0.46410748,-0.33235028,0.25960486,0.3625228,258.48582,107.05235)" x1="-273.88638" y1="1115.7548" x2="-174.68504" y2="1115.7548"/>
  </defs>
  <sodipodi:namedview inkscape:document-units="mm" id="base" pagecolor="#ffffff" bordercolor="#666666" borderopacity="1.0" inkscape:pageopacity="0.0" inkscape:pageshadow="2" inkscape:zoom="0.24748737" inkscape:cx="12.224594" inkscape:cy="303.61162" inkscape:current-layer="layer1" showgrid="false" showguides="true" inkscape:guide-bbox="true" inkscape:snap-global="false" inkscape:window-width="1213" inkscape:window-height="659" inkscape:window-x="20" inkscape:window-y="20" inkscape:window-maximized="0">
    <sodipodi:guide orientation="0,1" position="-488.57143,857.14286" id="guide5856"/>
    <sodipodi:guide orientation="0,1" position="-345.71429,140" id="guide5858"/>
    <sodipodi:guide orientation="1,0" position="728.57143,-62.857143" id="guide5860"/>
    <sodipodi:guide orientation="1,0" position="11.428571,-8.5714286" id="guide5862"/>
    <sodipodi:guide orientation="1,0" position="-500,497.14286" id="guide5877"/>
  </sodipodi:namedview>
  <metadata id="metadata4">
    <rdf:RDF>
      <cc:Work rdf:about="">
        <dc:format>image/svg+xml</dc:format>
        <dc:type rdf:resource="http://purl.org/dc/dcmitype/StillImage"/>
        <dc:title>linkage</dc:title>
        <cc:license rdf:resource="http://creativecommons.org/licenses/by-sa/3.0/"/>
        <dc:date>Sept 2012</dc:date>
        <dc:creator>
          <cc:Agent>
            <dc:title>Franziska Sponsel</dc:title>
          </cc:Agent>
        </dc:creator>
        <dc:rights>
          <cc:Agent>
            <dc:title>Franziska Sponsel</dc:title>
          </cc:Agent>
        </dc:rights>
        <dc:publisher>
          <cc:Agent>
            <dc:title>RRZE</dc:title>
          </cc:Agent>
        </dc:publisher>
        <dc:subject>
          <rdf:Bag>
            <rdf:li>linkage</rdf:li>
            <rdf:li>link</rdf:li>
            <rdf:li>connect</rdf:li>
            <rdf:li>chain</rdf:li>
          </rdf:Bag>
        </dc:subject>
        <dc:contributor>
          <cc:Agent>
            <dc:title>Hendrik Eggers</dc:title>
          </cc:Agent>
        </dc:contributor>
      </cc:Work>
      <cc:License rdf:about="http://creativecommons.org/licenses/by-sa/3.0/">
        <cc:permits rdf:resource="http://creativecommons.org/ns#Reproduction"/>
        <cc:permits rdf:resource="http://creativecommons.org/ns#Distribution"/>
        <cc:requires rdf:resource="http://creativecommons.org/ns#Notice"/>
        <cc:requires rdf:resource="http://creativecommons.org/ns#Attribution"/>
        <cc:permits rdf:resource="http://creativecommons.org/ns#DerivativeWorks"/>
        <cc:requires rdf:resource="http://creativecommons.org/ns#ShareAlike"/>
      </cc:License>
    </rdf:RDF>
  </metadata>
  <g inkscape:label="Layer 1" inkscape:groupmode="layer" id="layer1">
    <g id="g6090">
      <path inkscape:connector-curvature="0" id="path6015" d="m 723.26921,872.55501 c 0,18.96833 -99.49735,34.34519 -222.23356,34.34519 -122.73619,0 -222.23356,-15.37686 -222.23356,-34.34519 0,-18.96833 99.49737,-34.34519 222.23356,-34.34519 122.73621,0 222.23356,15.37686 222.23356,34.34519 z" style="opacity:0.47852759;fill:url(#radialGradient6076);fill-opacity:1;stroke:none"/>
      <rect y="195.21933" x="11.428572" height="717.14288" width="717.14288" id="rect5086" style="opacity:0.72085888;fill:none;stroke:none"/>
      <g transform="matrix(1.1817174,-0.18409027,0.18409027,1.1817174,-274.08418,-58.749447)" id="g5995">
        <path style="fill:#888a85;fill-opacity:1;stroke:#000000;stroke-width:5.36289024;stroke-linejoin:round;stroke-miterlimit:4;stroke-opacity:1;stroke-dasharray:none" d="m 251.40001,319.28865 c -18.99657,13.60356 -47.25723,50.76465 -38.64922,62.78524 L 326.0094,540.23282 c 10.07565,14.07005 50.70783,1.12155 74.71755,-16.05358 28.21512,-20.18342 45.19915,-57.26538 39.25649,-65.56394 L 326.72483,300.45636 c -7.2454,-10.11777 -56.32825,5.22872 -75.32482,18.83229 z m 23.25292,28.84015 c 11.22525,-8.03847 26.33519,-10.6693 34.07319,0.13636 l 79.09611,110.45302 c 7.48904,10.45801 2.73003,27.0991 -8.69784,35.33105 -10.97669,7.90699 -28.32965,7.85192 -36.21934,-3.16557 L 263.80894,380.43064 c -7.738,-10.80567 -0.38126,-24.26337 10.84399,-32.30184 z" id="rect5864" inkscape:connector-curvature="0" sodipodi:nodetypes="ssssssssssssss"/>
        <path sodipodi:nodetypes="ssssssssssssss" inkscape:connector-curvature="0" id="path5882" d="m 487.26956,648.66651 c -18.99657,13.60356 -47.25721,50.76467 -38.64921,62.78523 l 113.25862,158.15895 c 10.07565,14.07005 50.70783,1.12154 74.71754,-16.05359 28.21502,-20.18356 45.19914,-57.26539 39.2565,-65.56394 L 562.59439,629.83422 c -7.24539,-10.11776 -56.32826,5.22872 -75.32483,18.83229 z m 23.25294,28.84015 c 11.22524,-8.03847 26.33519,-10.66929 34.07318,0.13635 l 79.09612,110.45305 c 7.48903,10.45799 2.73004,27.0991 -8.69784,35.33105 -10.97664,7.90706 -28.32966,7.85189 -36.21934,-3.16557 L 499.6785,709.80849 c -7.73799,-10.80564 -0.38125,-24.26335 10.844,-32.30183 z" style="fill:#888a85;fill-opacity:1;stroke:#000000;stroke-width:5.36289024;stroke-linejoin:round;stroke-miterlimit:4;stroke-opacity:1;stroke-dasharray:none"/>
        <path sodipodi:nodetypes="ssssssssssssss" inkscape:connector-curvature="0" id="path5891" d="m 251.40001,319.28865 c -18.99657,13.60356 -47.25723,50.76465 -38.64922,62.78524 L 326.0094,540.23282 c 10.07565,14.07005 50.70783,1.12155 74.71755,-16.05358 28.21512,-20.18342 45.19915,-57.26538 39.25649,-65.56394 L 326.72483,300.45636 c -7.2454,-10.11777 -56.32825,5.22872 -75.32482,18.83229 z m 23.25292,28.84015 c 11.22525,-8.03847 26.33519,-10.6693 34.07319,0.13636 l 79.09611,110.45302 c 7.48904,10.45801 2.73003,27.0991 -8.69784,35.33105 -10.97669,7.90699 -28.32965,7.85192 -36.21934,-3.16557 L 263.80894,380.43064 c -7.738,-10.80567 -0.38126,-24.26337 10.84399,-32.30184 z" style="opacity:0.65337423;fill:url(#linearGradient6078);fill-opacity:1;stroke:url(#linearGradient6080);stroke-width:5.36289024;stroke-linejoin:round;stroke-miterlimit:4;stroke-opacity:1;stroke-dasharray:none"/>
        <path style="opacity:0.65337423;fill:url(#linearGradient6082);fill-opacity:1;stroke:url(#linearGradient6084);stroke-width:5.36289024;stroke-linejoin:round;stroke-miterlimit:4;stroke-opacity:1;stroke-dasharray:none" d="m 487.03542,648.33955 c -18.99657,13.60356 -47.25723,50.76463 -38.6492,62.78523 l 113.25859,158.15891 c 10.07565,14.07006 50.70785,1.12159 74.71756,-16.05355 28.21502,-20.18356 45.19914,-57.26539 39.25648,-65.56397 L 562.36025,629.50726 c -7.24541,-10.11779 -56.32825,5.22872 -75.32483,18.83229 z m 23.25294,28.84015 c 11.22525,-8.03847 26.33516,-10.66933 34.07318,0.13636 l 79.0961,110.45301 c 7.48905,10.45802 2.73003,27.0991 -8.69784,35.33104 -10.97665,7.90706 -28.32964,7.85194 -36.21934,-3.16557 l -79.0961,-110.45301 c -7.73802,-10.80568 -0.38125,-24.26335 10.844,-32.30183 z" id="path5917" inkscape:connector-curvature="0" sodipodi:nodetypes="ssssssssssssss"/>
        <path style="fill:#888a85;fill-opacity:1;stroke:#000000;stroke-width:5.60687208;stroke-linecap:round;stroke-linejoin:round;stroke-miterlimit:4;stroke-opacity:1;stroke-dashoffset:22.80179958" d="m 349.35836,497.03394 c -7.58913,-22.57862 18.67027,-42.71027 40.88222,-29.27601 l 146.73661,204.90898 c 13.25402,23.56848 -21.41273,49.55358 -40.88222,29.27601 z" id="rect5888" inkscape:connector-curvature="0" sodipodi:nodetypes="ccccc"/>
        <path sodipodi:nodetypes="ccccc" inkscape:connector-curvature="0" id="path5921" d="m 349.35836,497.03394 c -7.58913,-22.57862 18.67027,-42.71027 40.88222,-29.27601 l 146.73661,204.90898 c 13.25402,23.56848 -21.41273,49.55358 -40.88222,29.27601 z" style="opacity:0.73006137;fill:url(#linearGradient6086);fill-opacity:1;stroke:url(#linearGradient6088);stroke-width:5.60687208;stroke-linecap:round;stroke-linejoin:round;stroke-miterlimit:4;stroke-opacity:1;stroke-dashoffset:22.80179958"/>
      </g>
    </g>
  </g>
</svg>
