<?xml version="1.0" encoding="UTF-8" standalone="no"?>
<!-- Created with Inkscape (http://www.inkscape.org/) -->
<svg xmlns:dc="http://purl.org/dc/elements/1.1/" xmlns:cc="http://creativecommons.org/ns#" xmlns:rdf="http://www.w3.org/1999/02/22-rdf-syntax-ns#" xmlns:svg="http://www.w3.org/2000/svg" xmlns="http://www.w3.org/2000/svg" xmlns:xlink="http://www.w3.org/1999/xlink" xmlns:sodipodi="http://sodipodi.sourceforge.net/DTD/sodipodi-0.dtd" xmlns:inkscape="http://www.inkscape.org/namespaces/inkscape" width="210mm" height="297mm" id="svg2" version="1.1" inkscape:version="0.48.0 r9654">
  <title id="title4060">linux ZUV</title>
  <defs id="defs4">
    <linearGradient inkscape:collect="always" id="linearGradient6668">
      <stop style="stop-color:#729fcf;stop-opacity:1;" offset="0" id="stop6670"/>
      <stop style="stop-color:#729fcf;stop-opacity:0;" offset="1" id="stop6672"/>
    </linearGradient>
    <linearGradient inkscape:collect="always" id="linearGradient6658">
      <stop style="stop-color:#729fcf;stop-opacity:1;" offset="0" id="stop6660"/>
      <stop style="stop-color:#729fcf;stop-opacity:0;" offset="1" id="stop6662"/>
    </linearGradient>
    <linearGradient inkscape:collect="always" id="linearGradient6648">
      <stop style="stop-color:#729fcf;stop-opacity:1;" offset="0" id="stop6650"/>
      <stop style="stop-color:#729fcf;stop-opacity:0;" offset="1" id="stop6652"/>
    </linearGradient>
    <linearGradient inkscape:collect="always" id="linearGradient3978">
      <stop style="stop-color:#000000;stop-opacity:1;" offset="0" id="stop3980"/>
      <stop style="stop-color:#000000;stop-opacity:0;" offset="1" id="stop3982"/>
    </linearGradient>
    <linearGradient id="linearGradient3956">
      <stop style="stop-color:#ffffff;stop-opacity:1;" offset="0" id="stop3958"/>
      <stop style="stop-color:#000000;stop-opacity:1;" offset="1" id="stop3960"/>
    </linearGradient>
    <linearGradient id="linearGradient3936">
      <stop style="stop-color:#ffffff;stop-opacity:1;" offset="0" id="stop3938"/>
      <stop style="stop-color:#ffffff;stop-opacity:0;" offset="1" id="stop3940"/>
    </linearGradient>
    <linearGradient id="linearGradient3923">
      <stop style="stop-color:#babdb6;stop-opacity:1;" offset="0" id="stop3925"/>
      <stop style="stop-color:#000000;stop-opacity:1;" offset="1" id="stop3927"/>
    </linearGradient>
    <linearGradient inkscape:collect="always" id="linearGradient3915">
      <stop style="stop-color:#eeeeec;stop-opacity:1;" offset="0" id="stop3917"/>
      <stop style="stop-color:#eeeeec;stop-opacity:0;" offset="1" id="stop3919"/>
    </linearGradient>
    <linearGradient id="linearGradient3889">
      <stop style="stop-color:#888a85;stop-opacity:1;" offset="0" id="stop3891"/>
      <stop style="stop-color:#000000;stop-opacity:0;" offset="1" id="stop3893"/>
    </linearGradient>
    <linearGradient id="linearGradient3881">
      <stop style="stop-color:#d3d7cf;stop-opacity:1;" offset="0" id="stop3883"/>
      <stop style="stop-color:#000000;stop-opacity:1;" offset="1" id="stop3885"/>
    </linearGradient>
    <linearGradient id="linearGradient3857">
      <stop style="stop-color:#fce94f;stop-opacity:1;" offset="0" id="stop3859"/>
      <stop style="stop-color:#fcaf3e;stop-opacity:1;" offset="1" id="stop3861"/>
    </linearGradient>
    <linearGradient inkscape:collect="always" id="linearGradient3845">
      <stop style="stop-color:#ffffff;stop-opacity:1;" offset="0" id="stop3847"/>
      <stop style="stop-color:#ffffff;stop-opacity:0;" offset="1" id="stop3849"/>
    </linearGradient>
    <linearGradient inkscape:collect="always" id="linearGradient3835">
      <stop style="stop-color:#eeeeec;stop-opacity:1;" offset="0" id="stop3837"/>
      <stop style="stop-color:#eeeeec;stop-opacity:0;" offset="1" id="stop3839"/>
    </linearGradient>
    <linearGradient inkscape:collect="always" id="linearGradient3827">
      <stop style="stop-color:#ffffff;stop-opacity:1;" offset="0" id="stop3829"/>
      <stop style="stop-color:#ffffff;stop-opacity:0;" offset="1" id="stop3831"/>
    </linearGradient>
    <radialGradient inkscape:collect="always" xlink:href="#linearGradient3978" id="radialGradient4006" gradientUnits="userSpaceOnUse" gradientTransform="matrix(1,0,0,0.29257643,0,481.96115)" cx="130.35715" cy="681.29077" fx="130.35715" fy="681.29077" r="81.785713"/>
    <linearGradient inkscape:collect="always" xlink:href="#linearGradient3915" id="linearGradient4008" gradientUnits="userSpaceOnUse" x1="273.57141" y1="455.93362" x2="264.56042" y2="529.50507"/>
    <linearGradient inkscape:collect="always" xlink:href="#linearGradient3835" id="linearGradient4010" gradientUnits="userSpaceOnUse" x1="267.00757" y1="564.08142" x2="270.02008" y2="1195.51"/>
    <linearGradient inkscape:collect="always" xlink:href="#linearGradient3827" id="linearGradient4012" gradientUnits="userSpaceOnUse" x1="273.57144" y1="570.57648" x2="273.57141" y2="654.86218"/>
    <linearGradient inkscape:collect="always" xlink:href="#linearGradient3881" id="linearGradient4014" gradientUnits="userSpaceOnUse" x1="212.07852" y1="536.30072" x2="207.45232" y2="621.30072"/>
    <linearGradient inkscape:collect="always" xlink:href="#linearGradient3889" id="linearGradient4016" gradientUnits="userSpaceOnUse" x1="207.45232" y1="621.30072" x2="228.1666" y2="518.4436"/>
    <linearGradient inkscape:collect="always" xlink:href="#linearGradient3857" id="linearGradient4018" gradientUnits="userSpaceOnUse" x1="216.75238" y1="692.45593" x2="210.41951" y2="651.7417"/>
    <linearGradient inkscape:collect="always" xlink:href="#linearGradient3857" id="linearGradient4020" gradientUnits="userSpaceOnUse" x1="336.17984" y1="697.06317" x2="314.54944" y2="640.63458"/>
    <linearGradient inkscape:collect="always" xlink:href="#linearGradient3956" id="linearGradient4022" gradientUnits="userSpaceOnUse" x1="17.858059" y1="368.29883" x2="21.97176" y2="386.30692"/>
    <linearGradient inkscape:collect="always" xlink:href="#linearGradient3956" id="linearGradient4024" gradientUnits="userSpaceOnUse" x1="20.231794" y1="368.78317" x2="23.832003" y2="388.60098"/>
    <linearGradient inkscape:collect="always" xlink:href="#linearGradient3857" id="linearGradient4026" gradientUnits="userSpaceOnUse" x1="262.98108" y1="546.79028" x2="261.34854" y2="518.93317"/>
    <linearGradient inkscape:collect="always" xlink:href="#linearGradient3881" id="linearGradient4028" gradientUnits="userSpaceOnUse" x1="313.26883" y1="518.43677" x2="334.40735" y2="622.00818"/>
    <linearGradient inkscape:collect="always" xlink:href="#linearGradient3881" id="linearGradient4030" gradientUnits="userSpaceOnUse" x1="313.26883" y1="518.43677" x2="334.40735" y2="622.00818"/>
    <linearGradient inkscape:collect="always" xlink:href="#linearGradient3845" id="linearGradient4032" gradientUnits="userSpaceOnUse" x1="317.24399" y1="608.04199" x2="322.44339" y2="666.6308"/>
    <linearGradient inkscape:collect="always" xlink:href="#linearGradient3923" id="linearGradient4034" gradientUnits="userSpaceOnUse" x1="332.84567" y1="598.99994" x2="328.08975" y2="618.99994"/>
    <linearGradient inkscape:collect="always" xlink:href="#linearGradient3845" id="linearGradient4036" gradientUnits="userSpaceOnUse" gradientTransform="matrix(-0.88859994,0.45868306,0.45868306,0.88859994,200.18204,-70.049106)" x1="317.24399" y1="608.04199" x2="322.44339" y2="666.6308"/>
    <linearGradient inkscape:collect="always" xlink:href="#linearGradient6648" id="linearGradient6688" gradientUnits="userSpaceOnUse" gradientTransform="translate(0,-8)" x1="257.88229" y1="706.56152" x2="387.1604" y2="898.49048"/>
    <linearGradient inkscape:collect="always" xlink:href="#linearGradient6658" id="linearGradient6690" gradientUnits="userSpaceOnUse" gradientTransform="translate(0,-8)" x1="432.62607" y1="682.00372" x2="615.77484" y2="964.84644"/>
    <linearGradient inkscape:collect="always" xlink:href="#linearGradient6668" id="linearGradient6692" gradientUnits="userSpaceOnUse" gradientTransform="translate(0,-8)" x1="579.64899" y1="675.24677" x2="713.55194" y2="909.60217"/>
  </defs>
  <sodipodi:namedview id="base" pagecolor="#ffffff" bordercolor="#666666" borderopacity="1.0" inkscape:pageopacity="0.0" inkscape:pageshadow="2" inkscape:zoom="0.24748738" inkscape:cx="-870.65249" inkscape:cy="270.03304" inkscape:document-units="px" inkscape:current-layer="layer1" showgrid="false" showguides="true" inkscape:guide-bbox="true" inkscape:window-width="1280" inkscape:window-height="707" inkscape:window-x="0" inkscape:window-y="0" inkscape:window-maximized="0" inkscape:snap-global="false">
    <sodipodi:guide orientation="0,1" position="-482.85714,885.71429" id="guide2998"/>
    <sodipodi:guide orientation="1,0" position="14.285714,-131.42857" id="guide3000"/>
    <sodipodi:guide orientation="1,0" position="731.42857,-82.857143" id="guide3002"/>
    <sodipodi:guide orientation="0,1" position="-525.71429,168.57143" id="guide3004"/>
  </sodipodi:namedview>
  <metadata id="metadata7">
    <rdf:RDF>
      <cc:Work rdf:about="">
        <dc:format>image/svg+xml</dc:format>
        <dc:type rdf:resource="http://purl.org/dc/dcmitype/StillImage"/>
        <dc:title>Linux ZUV</dc:title>
        <dc:date>Oct 2012</dc:date>
        <dc:creator>
          <cc:Agent>
            <dc:title>Franziska Sponsel</dc:title>
          </cc:Agent>
        </dc:creator>
        <dc:rights>
          <cc:Agent>
            <dc:title>Franziska Sponsel</dc:title>
          </cc:Agent>
        </dc:rights>
        <dc:publisher>
          <cc:Agent>
            <dc:title>RRZE</dc:title>
          </cc:Agent>
        </dc:publisher>
        <dc:subject>
          <rdf:Bag>
            <rdf:li>Linux</rdf:li>
            <rdf:li>Tux</rdf:li>
            <rdf:li>Ubuntu</rdf:li>
            <rdf:li>system</rdf:li>
            <rdf:li>ZUV</rdf:li>
            <rdf:li>Zentrale Universitaetsverwaltung</rdf:li>
          </rdf:Bag>
        </dc:subject>
        <dc:contributor>
          <cc:Agent>
            <dc:title>Hendrik Eggers</dc:title>
          </cc:Agent>
        </dc:contributor>
        <cc:license rdf:resource="http://creativecommons.org/licenses/by-sa/3.0/"/>
      </cc:Work>
      <cc:License rdf:about="http://creativecommons.org/licenses/by-sa/3.0/">
        <cc:permits rdf:resource="http://creativecommons.org/ns#Reproduction"/>
        <cc:permits rdf:resource="http://creativecommons.org/ns#Distribution"/>
        <cc:requires rdf:resource="http://creativecommons.org/ns#Notice"/>
        <cc:requires rdf:resource="http://creativecommons.org/ns#Attribution"/>
        <cc:permits rdf:resource="http://creativecommons.org/ns#DerivativeWorks"/>
        <cc:requires rdf:resource="http://creativecommons.org/ns#ShareAlike"/>
      </cc:License>
    </rdf:RDF>
  </metadata>
  <g inkscape:label="Ebene 1" inkscape:groupmode="layer" id="layer1">
    <g id="g6694">
      <g id="g4038">
        <rect style="opacity:0.72085887999999998;fill:none;fill-opacity:1;stroke:none;stroke-width:10;stroke-linecap:round;stroke-linejoin:round;stroke-miterlimit:4;stroke-opacity:1;stroke-dasharray:none;stroke-dashoffset:22.80179958000000084" id="rect2996" width="717.14288" height="717.14288" x="14.285713" y="166.64789"/>
        <g id="g3986" transform="matrix(2.9098652,0,0,2.9098652,-405.83597,-1166.4111)">
          <path transform="matrix(1.3537118,0,0,1.119403,91.391138,-94.919579)" d="m 212.14286,681.29077 c 0,13.21539 -36.61671,23.92857 -81.78571,23.92857 -45.169005,0 -81.785716,-10.71318 -81.785716,-23.92857 0,-13.21538 36.616711,-23.92857 81.785716,-23.92857 45.169,0 81.78571,10.71319 81.78571,23.92857 z" sodipodi:ry="23.928572" sodipodi:rx="81.785713" sodipodi:cy="681.29077" sodipodi:cx="130.35715" id="path3976" style="opacity:0.58282207;fill:url(#radialGradient4006);fill-opacity:1;stroke:none" sodipodi:type="arc"/>
          <path sodipodi:nodetypes="zzzzzzzzzzzzzz" inkscape:connector-curvature="0" id="path3774" d="m 237.7346,488.79691 c 3.32555,-10.2367 8.18658,-16.79569 18.47733,-20.92965 10.29075,-4.13397 31.06099,-3.31811 41.26269,8.93908 10.2017,12.25719 5.31257,35.56287 10.04332,49.63235 4.73075,14.06948 18.91889,26.67563 25.51996,40.22408 6.60107,13.54845 11.69891,18.83781 13.00815,36.6588 1.30924,17.82099 -5.59548,39.75423 -15.75762,51.97698 -10.16214,12.22275 -26.65251,18.09131 -37.85714,19.28571 -11.20463,1.1944 -16.18719,-0.77514 -19.48749,-1.63034 -3.3003,-0.8552 -10.53272,-0.2414 -16.42113,0.96682 -5.88842,1.20822 -10.65728,10.69829 -37.24311,-10.874 -26.58583,-21.57229 -26.14437,-43.64733 -21.1909,-66.92622 4.95347,-23.27889 25.55332,-36.30686 35.45431,-61.34935 9.90099,-25.04249 0.86607,-35.73756 4.19163,-45.97426 z" style="fill:#000000;fill-opacity:1;stroke:#555753;stroke-width:3;stroke-linecap:butt;stroke-linejoin:miter;stroke-miterlimit:4;stroke-opacity:1;stroke-dasharray:none"/>
          <path transform="matrix(0.91666664,0,0,0.73333334,20.357142,122.20135)" d="m 295.71429,493.07648 c 0,11.83467 -11.51268,21.42857 -25.71429,21.42857 -14.20161,0 -25.71429,-9.5939 -25.71429,-21.42857 0,-11.83468 11.51268,-21.42857 25.71429,-21.42857 14.20161,0 25.71429,9.59389 25.71429,21.42857 z" sodipodi:ry="21.428572" sodipodi:rx="25.714287" sodipodi:cy="493.07648" sodipodi:cx="270" id="path3913" style="opacity:0.58282207;fill:url(#linearGradient4008);fill-opacity:1;stroke:none" sodipodi:type="arc"/>
          <path sodipodi:nodetypes="cczzzc" inkscape:connector-curvature="0" id="path3776" d="m 245.25998,526.22332 40.56943,-3.62219 c -1.75713,32.03442 40.437,74.26255 28.59988,103.6927 -11.83712,29.43015 -19.78258,37.66838 -47.45231,39.19906 -27.66974,1.53067 -44.41796,-22.61508 -47.66768,-56.59573 -3.24973,-33.98064 27.96272,-46.93594 25.95068,-82.67384 z" style="fill:url(#linearGradient4010);fill-opacity:1;stroke:#babdb6;stroke-width:2.70000005;stroke-linecap:butt;stroke-linejoin:miter;stroke-miterlimit:4;stroke-opacity:1;stroke-dasharray:none"/>
          <path transform="translate(-7.8571429,1.4285715)" d="m 311.42857,619.86218 c 0,19.13272 -17.42891,34.64286 -38.92857,34.64286 -21.49966,0 -38.92857,-15.51014 -38.92857,-34.64286 0,-19.13272 17.42891,-34.64285 38.92857,-34.64285 21.49966,0 38.92857,15.51013 38.92857,34.64285 z" sodipodi:ry="34.642857" sodipodi:rx="38.92857" sodipodi:cy="619.86218" sodipodi:cx="272.5" id="path3817" style="fill:url(#linearGradient4012);fill-opacity:1;stroke:none" sodipodi:type="arc"/>
          <path sodipodi:nodetypes="ssssssss" inkscape:connector-curvature="0" id="path3813" d="m 228.92858,548.43361 c 0.50825,-0.56811 3.3078,-0.6148 2.85714,0 -29.95524,40.86537 -24.34394,62.45359 -8.21429,69.99999 9.38118,4.38907 20.24513,14.35356 21.42857,24.64287 0.52066,4.52674 -7.64973,7.90067 -12.14285,7.14285 -11.19769,-1.88862 -19.11241,-7.44125 -26.07143,-19.64286 -6.42898,-11.27226 -8.45807,-27.23964 -4.64286,-39.64286 4.85448,-15.78186 7.42672,-20.86116 26.78572,-42.49999 z" style="fill:url(#linearGradient4014);fill-opacity:1;stroke:url(#linearGradient4016);stroke-width:2;stroke-linecap:butt;stroke-linejoin:miter;stroke-miterlimit:4;stroke-opacity:1;stroke-dasharray:none"/>
          <path sodipodi:nodetypes="sssssssssssssssss" inkscape:connector-curvature="0" id="path3797" d="m 214.40488,617.23897 c 3.96672,3.4655 8.33976,13.01242 11.61675,18.94036 5.78539,10.46554 15.90817,20.42409 18.18275,24.4962 3.6164,6.47434 3.15721,12.22603 0.25254,17.93021 -1.91947,3.76945 -5.43172,6.31808 -10.10153,6.81853 -5.0573,0.54197 -8.80505,0.49553 -15.15229,-0.75761 -6.34724,-1.25314 -12.59761,-6.01681 -19.1929,-7.57615 -6.59529,-1.55934 -12.18841,0.32896 -17.17259,-1.26269 -6.65349,-2.12474 -9.26369,-2.77542 -10.6066,-6.31346 -1.34291,-3.53804 1.02428,-9.62957 1.51523,-13.13197 0.49095,-3.5024 -0.0966,-6.562 0,-10.10153 0.0966,-3.53953 -1.41407,-7.14738 0,-10.10153 1.41407,-2.95415 4.25881,-5.51547 6.81853,-6.81853 2.55972,-1.30306 6.15359,-0.51461 8.5863,-3.03045 2.39154,-2.47327 5.13883,-7.24673 8.08122,-9.849 2.94239,-2.60227 5.10276,-2.96364 8.58629,-3.03045 3.48353,-0.0668 4.61958,0.32257 8.5863,3.78807 z" style="fill:url(#linearGradient4018);fill-opacity:1;stroke:#ce5c00;stroke-width:3;stroke-linecap:butt;stroke-linejoin:miter;stroke-miterlimit:4;stroke-opacity:1;stroke-dasharray:none"/>
          <path style="fill:url(#linearGradient4020);fill-opacity:1;stroke:#ce5c00;stroke-width:3;stroke-linecap:butt;stroke-linejoin:miter;stroke-miterlimit:4;stroke-opacity:1;stroke-dasharray:none" d="m 305.76408,618.69164 c -2.57198,4.59668 -3.48366,15.05785 -4.57875,21.74215 -1.93335,11.80087 -8.12233,24.58132 -8.89672,29.1809 -1.23122,7.31297 1.13351,12.57612 5.78565,16.97299 3.07423,2.90555 7.23855,4.12615 11.80508,3.02873 4.94546,-1.18849 8.4598,-2.49125 14.01717,-5.80387 5.55737,-3.31261 9.84417,-9.89919 15.53231,-13.58354 5.68815,-3.68435 11.59057,-3.78476 15.75038,-6.9583 5.55302,-4.23644 7.79293,-5.72618 7.86922,-9.50974 0.0763,-3.78356 -4.19973,-8.72583 -5.83875,-11.85975 -1.63902,-3.13392 -2.11347,-6.21308 -3.39353,-9.51445 -1.28006,-3.30137 -1.06922,-7.20704 -3.39353,-9.51446 -2.32431,-2.30742 -5.86417,-3.76421 -8.71288,-4.13163 -2.84871,-0.36741 -5.96884,1.58255 -9.10535,0.0302 -3.08342,-1.52611 -7.27465,-5.09922 -10.92025,-6.56178 -3.6456,-1.46256 -5.80181,-1.07717 -9.10533,0.0302 -3.30352,1.10734 -4.24274,1.85573 -6.81472,6.45241 z" id="path3799" inkscape:connector-curvature="0" sodipodi:nodetypes="sssssssssssssssss"/>
          <path transform="matrix(0.71232959,0,0,1,52.282938,1.7857143)" sodipodi:type="arc" style="fill:#ffffff;fill-opacity:1;stroke:#888a85;stroke-width:2.01422715;stroke-linecap:round;stroke-linejoin:round;stroke-miterlimit:4;stroke-opacity:1;stroke-dasharray:none;stroke-dashoffset:22.80179958" id="path3805" sodipodi:cx="276.07144" sodipodi:cy="504.95148" sodipodi:rx="11.071428" sodipodi:ry="15.267858" d="m 287.14287,504.95148 c 0,8.4322 -4.95685,15.26785 -11.07143,15.26785 -6.11458,0 -11.07143,-6.83565 -11.07143,-15.26785 0,-8.43221 4.95685,-15.26786 11.07143,-15.26786 6.11458,0 11.07143,6.83565 11.07143,15.26786 z"/>
          <path transform="translate(0.53571429,0.53571429)" d="m 287.14287,504.95148 c 0,8.4322 -4.95685,15.26785 -11.07143,15.26785 -6.11458,0 -11.07143,-6.83565 -11.07143,-15.26785 0,-8.43221 4.95685,-15.26786 11.07143,-15.26786 6.11458,0 11.07143,6.83565 11.07143,15.26786 z" sodipodi:ry="15.267858" sodipodi:rx="11.071428" sodipodi:cy="504.95148" sodipodi:cx="276.07144" id="path3803" style="fill:#ffffff;fill-opacity:1;stroke:#888a85;stroke-width:1.70000005;stroke-linecap:round;stroke-linejoin:round;stroke-miterlimit:4;stroke-opacity:1;stroke-dasharray:none;stroke-dashoffset:22.80179958" sodipodi:type="arc"/>
          <path transform="matrix(0.80758728,0,0,1.0114492,260.52412,114.48951)" d="m 26.428572,387.71933 c 0,3.94489 -2.718271,7.14286 -6.071429,7.14286 -3.353157,0 -6.071428,-3.19797 -6.071428,-7.14286 0,-3.94489 2.718271,-7.14286 6.071428,-7.14286 3.353158,0 6.071429,3.19797 6.071429,7.14286 z" sodipodi:ry="7.1428571" sodipodi:rx="6.0714288" sodipodi:cy="387.71933" sodipodi:cx="20.357143" id="path3807" style="fill:url(#linearGradient4022);fill-opacity:1;stroke:#888a85;stroke-width:1.70000005;stroke-linecap:round;stroke-linejoin:round;stroke-miterlimit:4;stroke-opacity:1;stroke-dasharray:none;stroke-dashoffset:22.80179958" sodipodi:type="arc"/>
          <path sodipodi:type="arc" style="fill:url(#linearGradient4024);fill-opacity:1;stroke:#888a85;stroke-width:1.70000005;stroke-linecap:round;stroke-linejoin:round;stroke-miterlimit:4;stroke-opacity:1;stroke-dasharray:none;stroke-dashoffset:22.80179958" id="path3809" sodipodi:cx="20.357143" sodipodi:cy="387.71933" sodipodi:rx="6.0714288" sodipodi:ry="7.1428571" d="m 26.428572,387.71933 c 0,3.94489 -2.718271,7.14286 -6.071429,7.14286 -3.353157,0 -6.071428,-3.19797 -6.071428,-7.14286 0,-3.94489 2.718271,-7.14286 6.071428,-7.14286 3.353158,0 6.071429,3.19797 6.071429,7.14286 z" transform="matrix(0.642088,-0.05011484,0.07955885,1.0193346,205.18957,113.88095)"/>
          <path sodipodi:nodetypes="sssssssssss" inkscape:connector-curvature="0" id="path3801" d="m 240,519.32646 c 2.7912,-3.88041 8.95038,-4.71513 13.92857,-10.35714 3.54438,-4.017 11.8797,-3.33592 16.07143,0 8.58428,6.83165 13.76837,4.35065 17.32143,8.92857 1.51798,1.95583 2.00089,4.96226 1.25,7.32143 -1.1489,3.60965 -2.12777,3.88183 -5.53572,5.53572 -5.82193,2.8254 -11.94548,7.87356 -16.25,9.10714 -2.62228,0.75148 -6.80893,0.27813 -10,-0.71429 -3.36309,-1.04591 -5.23764,-3.21818 -8.03571,-5.35714 -2.84247,-2.1729 -7.44395,-3.61791 -9.10714,-6.78571 -0.98257,-1.87146 -0.87713,-5.96265 0.35714,-7.67858 z" style="fill:url(#linearGradient4026);fill-opacity:1;stroke:#ce5c00;stroke-width:2;stroke-linecap:butt;stroke-linejoin:miter;stroke-miterlimit:4;stroke-opacity:1;stroke-dasharray:none"/>
          <path sodipodi:nodetypes="sssss" inkscape:connector-curvature="0" id="path3815" d="m 308.57143,540.21932 c 4.229,13.36218 31.13823,30.35445 9.28571,69.28572 -4.02531,7.17128 19.76198,16.90479 22.85714,9.28571 6.95575,-17.12234 1.96945,-23.93125 -4.28571,-39.28572 -4.76089,-11.6865 -31.6648,-51.31659 -27.85714,-39.28571 z" style="fill:url(#linearGradient4028);fill-opacity:1;stroke:url(#linearGradient4030);stroke-width:2;stroke-linecap:butt;stroke-linejoin:miter;stroke-miterlimit:4;stroke-opacity:1;stroke-dasharray:none"/>
          <path sodipodi:nodetypes="sssss" inkscape:connector-curvature="0" id="path3843" d="m 302.7346,657.81649 c 3.63168,-9.38588 4.41093,-20.13286 5.66351,-34.39339 0.93168,-10.60711 33.63059,-0.22312 29.91334,9.7549 -5.73103,15.38349 -8.92002,18.87832 -20.49021,29.48005 -3.33997,3.06041 -16.72136,-0.61672 -15.08664,-4.84156 z" style="opacity:0.58282207;fill:url(#linearGradient4032);fill-opacity:1;stroke:none"/>
          <path sodipodi:nodetypes="sssssss" inkscape:connector-curvature="0" id="path3811" d="m 336.78571,611.29075 c 3.4544,2.14549 4.61922,5.8069 0.71428,9.28571 -3.27929,2.92145 -4.94729,7.174 -9.28571,7.85715 -3.65124,0.57494 -10.95606,-0.2131 -12.5,-3.57143 -1.93911,-4.21792 -1.04744,-7.01001 -2.49999,-12.5 -0.82834,-3.13072 4.74959,-8.05428 7.85714,-7.14286 5.93574,1.74091 12.04895,3.79493 15.71428,6.07143 z" style="fill:url(#linearGradient4034);fill-opacity:1;stroke:#888a85;stroke-width:2;stroke-linecap:butt;stroke-linejoin:miter;stroke-miterlimit:4;stroke-opacity:1;stroke-dasharray:none"/>
          <path style="opacity:0.58282207;fill:url(#linearGradient4036);fill-opacity:1;stroke:none" d="m 232.90137,653.34582 c -7.53225,-6.6745 -10.84525,-16.81945 -18.30826,-29.03564 -7.1803,-11.75342 -19.92616,-5.21689 -21.91468,5.70028 -15.07006,3.49127 -8.1806,12.57646 -4.83476,15.61724 12.14873,11.04104 18.72835,14.82667 33.87245,18.94032 4.37166,1.18749 14.57573,-8.21783 11.18525,-11.2222 z" id="path3853" inkscape:connector-curvature="0" sodipodi:nodetypes="sscsss"/>
          <path sodipodi:nodetypes="cc" inkscape:connector-curvature="0" id="path3931" d="m 243.44676,524.28463 c 13.12139,15.6285 26.87762,7.76774 40.65864,-1.01015" style="fill:none;stroke:#ce5c00;stroke-width:1.79999995;stroke-linecap:round;stroke-linejoin:miter;stroke-miterlimit:4;stroke-opacity:1;stroke-dasharray:none"/>
        </g>
      </g>
      <g transform="translate(-6,0)" id="g6676">
        <g style="font-size:144px;font-style:normal;font-weight:bold;line-height:125%;letter-spacing:0px;word-spacing:0px;fill:#204a87;fill-opacity:1;stroke:#2e3436;stroke-width:10.68247414;stroke-linejoin:round;stroke-miterlimit:4;stroke-opacity:1;stroke-dasharray:none;font-family:Sans;-inkscape-font-specification:Sans Bold" id="flowRoot5852" transform="matrix(1.5133109,0,0,1.6735011,520.00122,-209.11217)">
          <path d="m -187.63281,535.21157 88.242185,0 0,16.38281 -56.320315,68.13281 57.937503,0 0,20.46094 -91.476563,0 0,-16.38281 56.32031,-68.13282 -54.70312,0 0,-20.46093" id="path5861" inkscape:connector-curvature="0" style="fill:#204a87;stroke:#2e3436;stroke-width:10.68247414;stroke-linejoin:round;stroke-miterlimit:4;stroke-opacity:1;stroke-dasharray:none"/>
          <path d="m -78.15625,535.21157 27.070313,0 0,62.92968 c -4.1e-5,8.67191 1.406208,14.88284 4.21875,18.63282 2.859327,3.70314 7.499947,5.5547 13.921875,5.55468 6.468685,2e-5 11.109305,-1.85154 13.921875,-5.55468 2.859299,-3.74998 4.288985,-9.96091 4.289062,-18.63282 l 0,-62.92968 27.070313,0 0,62.92968 c -1.04e-4,14.85941 -3.726663,25.9219 -11.179688,33.1875 -7.4532101,7.26563 -18.820386,10.89844 -34.101562,10.89844 -15.234419,0 -26.578157,-3.63281 -34.03125,-10.89844 -7.453142,-7.2656 -11.179701,-18.32809 -11.179688,-33.1875 l 0,-62.92968" id="path5863" inkscape:connector-curvature="0" style="fill:#204a87;stroke:#2e3436;stroke-width:10.68247414;stroke-linejoin:round;stroke-miterlimit:4;stroke-opacity:1;stroke-dasharray:none"/>
          <path d="m 26.328125,535.21157 27.210937,0 27.84375,77.48437 27.773438,-77.48437 27.21094,0 -38.882815,104.97656 -32.273438,0 -38.882812,-104.97656" id="path5865" inkscape:connector-curvature="0" style="fill:#204a87;stroke:#2e3436;stroke-width:10.68247414;stroke-linejoin:round;stroke-miterlimit:4;stroke-opacity:1;stroke-dasharray:none"/>
        </g>
        <path d="m 239.00813,698.45076 127.63048,0 0,26.20381 -81.45977,108.97636 83.79882,0 0,32.72666 -132.30858,0 0,-26.20381 81.45978,-108.97638 -79.12073,0 0,-32.72664" id="path6637" inkscape:connector-curvature="0" style="font-size:144px;font-style:normal;font-weight:bold;line-height:125%;letter-spacing:0px;word-spacing:0px;fill:#204a87;fill-opacity:1;stroke:#d3d7cf;stroke-width:6.69033861;stroke-linejoin:miter;stroke-miterlimit:4;stroke-opacity:1;stroke-dasharray:none;font-family:Sans;-inkscape-font-specification:Sans Bold"/>
        <path d="m 408.69997,698.4536 39.1868,0 0,100.73955 c -5e-5,13.88223 2.03562,23.82485 6.10705,29.82792 4.13914,5.92809 10.85687,8.89212 20.15321,8.89209 9.36403,3e-5 16.08176,-2.964 20.15322,-8.89209 4.1391,-6.00307 6.2087,-15.94569 6.20882,-29.82792 l 0,-100.73955 39.1868,0 0,100.73955 c -1.5e-4,23.78735 -5.39469,41.49648 -16.18364,53.12745 -10.78922,11.63102 -27.24427,17.44652 -49.3652,17.44652 -22.05324,0 -38.47436,-5.8155 -49.26341,-17.44652 -10.78912,-11.63097 -16.18366,-29.3401 -16.18365,-53.12745 l 0,-100.73955" id="path6639" inkscape:connector-curvature="0" style="font-size:144px;font-style:normal;font-weight:bold;line-height:125%;letter-spacing:0px;word-spacing:0px;fill:#204a87;fill-opacity:1;stroke:#d3d7cf;stroke-width:6.69601679;stroke-linejoin:miter;stroke-miterlimit:4;stroke-opacity:1;stroke-dasharray:none;font-family:Sans;-inkscape-font-specification:Sans Bold"/>
        <path d="m 567.52714,698.45076 39.35698,0 40.27225,123.93391 40.17055,-123.93391 39.35698,0 -56.23878,167.90683 -46.67921,0 -56.23877,-167.90683" id="path6641" inkscape:connector-curvature="0" style="font-size:144px;font-style:normal;font-weight:bold;line-height:125%;letter-spacing:0px;word-spacing:0px;fill:#204a87;fill-opacity:1;stroke:#d3d7cf;stroke-width:6.69033861;stroke-linejoin:miter;stroke-miterlimit:4;stroke-opacity:1;stroke-dasharray:none;font-family:Sans;-inkscape-font-specification:Sans Bold"/>
        <path style="font-size:144px;font-style:normal;font-weight:bold;line-height:125%;letter-spacing:0px;word-spacing:0px;fill:url(#linearGradient6688);fill-opacity:1;stroke:none;font-family:Sans;-inkscape-font-specification:Sans Bold" inkscape:connector-curvature="0" id="path6646" d="m 239.00813,698.45076 127.63048,0 0,26.20381 -81.45977,108.97636 83.79882,0 0,32.72666 -132.30858,0 0,-26.20381 81.45978,-108.97638 -79.12073,0 0,-32.72664"/>
        <path style="font-size:144px;font-style:normal;font-weight:bold;line-height:125%;letter-spacing:0px;word-spacing:0px;fill:url(#linearGradient6690);fill-opacity:1;stroke:none;font-family:Sans;-inkscape-font-specification:Sans Bold" inkscape:connector-curvature="0" id="path6656" d="m 408.69997,698.4536 39.1868,0 0,100.73955 c -5e-5,13.88223 2.03562,23.82485 6.10705,29.82792 4.13914,5.92809 10.85687,8.89212 20.15321,8.89209 9.36403,3e-5 16.08176,-2.964 20.15322,-8.89209 4.1391,-6.00307 6.2087,-15.94569 6.20882,-29.82792 l 0,-100.73955 39.1868,0 0,100.73955 c -1.5e-4,23.78735 -5.39469,41.49648 -16.18364,53.12745 -10.78922,11.63102 -27.24427,17.44652 -49.3652,17.44652 -22.05324,0 -38.47436,-5.8155 -49.26341,-17.44652 -10.78912,-11.63097 -16.18366,-29.3401 -16.18365,-53.12745 l 0,-100.73955"/>
        <path style="font-size:144px;font-style:normal;font-weight:bold;line-height:125%;letter-spacing:0px;word-spacing:0px;fill:url(#linearGradient6692);fill-opacity:1;stroke:none;font-family:Sans;-inkscape-font-specification:Sans Bold" inkscape:connector-curvature="0" id="path6666" d="m 567.52714,698.45076 39.35698,0 40.27225,123.93391 40.17055,-123.93391 39.35698,0 -56.23878,167.90683 -46.67921,0 -56.23877,-167.90683"/>
      </g>
    </g>
  </g>
</svg>
