<?xml version="1.0" encoding="UTF-8" standalone="no"?>
<!-- Created with Inkscape (http://www.inkscape.org/) -->
<svg xmlns:dc="http://purl.org/dc/elements/1.1/" xmlns:cc="http://creativecommons.org/ns#" xmlns:rdf="http://www.w3.org/1999/02/22-rdf-syntax-ns#" xmlns:svg="http://www.w3.org/2000/svg" xmlns="http://www.w3.org/2000/svg" xmlns:xlink="http://www.w3.org/1999/xlink" xmlns:sodipodi="http://sodipodi.sourceforge.net/DTD/sodipodi-0.dtd" xmlns:inkscape="http://www.inkscape.org/namespaces/inkscape" width="210mm" height="297mm" id="svg2" version="1.1" inkscape:version="0.48.0 r9654">
  <title id="title4335">service</title>
  <defs id="defs4">
    <linearGradient inkscape:collect="always" id="linearGradient4262">
      <stop style="stop-color:#2e3436;stop-opacity:1;" offset="0" id="stop4264"/>
      <stop style="stop-color:#2e3436;stop-opacity:0;" offset="1" id="stop4266"/>
    </linearGradient>
    <linearGradient inkscape:collect="always" id="linearGradient4231">
      <stop style="stop-color:#ffffff;stop-opacity:1;" offset="0" id="stop4233"/>
      <stop style="stop-color:#ffffff;stop-opacity:0;" offset="1" id="stop4235"/>
    </linearGradient>
    <linearGradient inkscape:collect="always" id="linearGradient4221">
      <stop style="stop-color:#eeeeec;stop-opacity:1;" offset="0" id="stop4223"/>
      <stop style="stop-color:#eeeeec;stop-opacity:0;" offset="1" id="stop4225"/>
    </linearGradient>
    <radialGradient inkscape:collect="always" xlink:href="#linearGradient4262" id="radialGradient4289" gradientUnits="userSpaceOnUse" gradientTransform="matrix(1,0,0,0.09524684,0,610.26059)" cx="408.57144" cy="674.50507" fx="408.57144" fy="674.50507" r="389.21429"/>
    <linearGradient inkscape:collect="always" xlink:href="#linearGradient4221" id="linearGradient4291" gradientUnits="userSpaceOnUse" x1="226.15309" y1="321.16602" x2="206.64146" y2="476.16602"/>
    <linearGradient inkscape:collect="always" xlink:href="#linearGradient4231" id="linearGradient4293" gradientUnits="userSpaceOnUse" x1="498.89859" y1="337.45517" x2="553.88593" y2="441.02658"/>
  </defs>
  <sodipodi:namedview id="base" pagecolor="#ffffff" bordercolor="#666666" borderopacity="1.0" inkscape:pageopacity="0.0" inkscape:pageshadow="2" inkscape:zoom="0.7" inkscape:cx="363.68197" inkscape:cy="583.85276" inkscape:document-units="px" inkscape:current-layer="layer1" showgrid="false" showguides="true" inkscape:guide-bbox="true" inkscape:window-width="1270" inkscape:window-height="714" inkscape:window-x="0" inkscape:window-y="0" inkscape:window-maximized="0" inkscape:snap-global="false">
    <sodipodi:guide orientation="0,1" position="-71.428571,220" id="guide3755"/>
    <sodipodi:guide orientation="1,0" position="737.14286,161.42857" id="guide3757"/>
    <sodipodi:guide orientation="1,0" position="5.7142857,135.71429" id="guide3759"/>
    <sodipodi:guide orientation="0,1" position="-102.85714,951.42857" id="guide3761"/>
  </sodipodi:namedview>
  <metadata id="metadata7">
    <rdf:RDF>
      <cc:Work rdf:about="">
        <dc:format>image/svg+xml</dc:format>
        <dc:type rdf:resource="http://purl.org/dc/dcmitype/StillImage"/>
        <dc:title>service</dc:title>
        <dc:date>Nov 2012</dc:date>
        <dc:creator>
          <cc:Agent>
            <dc:title>Franziska Sponsel</dc:title>
          </cc:Agent>
        </dc:creator>
        <dc:rights>
          <cc:Agent>
            <dc:title>Franziska Sponsel</dc:title>
          </cc:Agent>
        </dc:rights>
        <dc:publisher>
          <cc:Agent>
            <dc:title>RRZE</dc:title>
          </cc:Agent>
        </dc:publisher>
        <dc:subject>
          <rdf:Bag>
            <rdf:li>service</rdf:li>
            <rdf:li>shacking hands</rdf:li>
            <rdf:li>contract</rdf:li>
          </rdf:Bag>
        </dc:subject>
        <cc:license rdf:resource="http://creativecommons.org/licenses/by-sa/3.0/"/>
      </cc:Work>
      <cc:License rdf:about="http://creativecommons.org/licenses/by-sa/3.0/">
        <cc:permits rdf:resource="http://creativecommons.org/ns#Reproduction"/>
        <cc:permits rdf:resource="http://creativecommons.org/ns#Distribution"/>
        <cc:requires rdf:resource="http://creativecommons.org/ns#Notice"/>
        <cc:requires rdf:resource="http://creativecommons.org/ns#Attribution"/>
        <cc:permits rdf:resource="http://creativecommons.org/ns#DerivativeWorks"/>
        <cc:requires rdf:resource="http://creativecommons.org/ns#ShareAlike"/>
      </cc:License>
    </rdf:RDF>
  </metadata>
  <g inkscape:label="Ebene 1" inkscape:groupmode="layer" id="layer1">
    <g id="g4295">
      <rect y="100.93361" x="5.7142859" height="731.42859" width="731.42859" id="rect2985" style="fill:none;fill-opacity:1;stroke:none;stroke-width:1.29999994999999990;stroke-linecap:round;stroke-linejoin:miter;stroke-miterlimit:4;stroke-opacity:1;stroke-dasharray:none;stroke-dashoffset:22.80179958000000084"/>
      <g transform="matrix(0.98236965,0,0,1,5.8590976,0)" id="g4270">
        <path sodipodi:type="arc" style="opacity:0.87116562;fill:url(#radialGradient4289);fill-opacity:1;stroke:none" id="path4260" sodipodi:cx="408.57144" sodipodi:cy="674.50507" sodipodi:rx="385.71429" sodipodi:ry="33.57143" d="m 794.28574,674.50507 c 0,18.54098 -172.69018,33.57143 -385.7143,33.57143 -213.02412,0 -385.714293,-15.03045 -385.714293,-33.57143 0,-18.54099 172.690173,-33.57143 385.714293,-33.57143 213.02412,0 385.7143,15.03044 385.7143,33.57143 z" transform="matrix(0.93888889,0,0,1,-11.460317,-8)"/>
        <g id="g4239" transform="matrix(1.4171841,0,0,1.4171841,-170.79481,-182.48531)">
          <path sodipodi:nodetypes="cccccccccccccsscc" inkscape:connector-curvature="0" id="path3774" d="m 251.52798,342.22494 c 42.29395,4.37419 84.58789,5.25143 126.88184,3.91806 l 73.12837,117.30025 c 22.37621,24.21265 42.02521,42.97089 60.60915,59.599 1.48743,36.82559 -16.60956,27.13817 -29.29442,30.30458 -27.93482,-15.18095 -51.39973,-40.41919 -71.72083,-72.73099 20.39503,31.85519 44.00345,57.46972 72.48588,73.61858 -1.0108,13.13174 -11.25829,25.94321 -32.48768,25.25382 -23.26729,-15.75532 -46.03194,-31.94715 -65.25202,-53.41553 20.87649,23.79764 44.25297,39.07758 65.12946,53.35426 -12.33431,10.79465 -30.16698,13.96457 -41.89595,9.98948 -25.72385,-5.06359 -41.06593,-22.95352 -55.55839,-41.12039 15.20734,20.25991 33.69476,34.77966 56.51778,41.71212 -0.87679,9.11415 -18.00531,9.39586 -35.13126,5.10152 -8.0136,-2.00941 -56.88777,-34.81087 -87.04643,-55.90501 -31.07284,-21.73355 -89.90358,-69.70053 -89.90358,-69.70053 z" style="fill:#babdb6;stroke:#000000;stroke-width:8;stroke-linecap:round;stroke-linejoin:round;stroke-miterlimit:4;stroke-opacity:1;stroke-dasharray:none"/>
          <path sodipodi:nodetypes="cccccccccccccc" inkscape:connector-curvature="0" id="path3776" d="m 490,368.07647 c -25.28373,-5.61874 -50.73976,-12.4436 -77.35269,-27.36676 -8.45031,-3.11248 -15.9975,-8.6333 -28.28427,-1.51522 -11.50046,7.70979 -22.57677,15.70235 -41.92133,18.18274 -17.7657,0.20852 -25.65207,5.35671 -27.27412,13.63706 -1.08569,22.54923 -0.1133,22.45945 0,31.81981 -8.81236,7.63147 -9.86725,20.15183 -13.63706,30.30457 13.24401,19.84648 20.9262,13.90216 30.30458,13.13199 17.95919,-12.60246 23.98949,-24.90578 32.82995,-41.41626 l 27.7792,-1.01015 c 5.99245,38.1971 22.4899,61.77591 62.12438,63.63961 l 58.20633,56.98696 27.65664,-26.17731 C 526.1263,455.82729 514.49808,414.36498 490,368.07647 z" style="fill:#555753;stroke:#000000;stroke-width:8;stroke-linecap:butt;stroke-linejoin:miter;stroke-miterlimit:4;stroke-opacity:1;stroke-dasharray:none"/>
          <path sodipodi:nodetypes="ccccc" inkscape:connector-curvature="0" id="path3778" d="m 224.75894,505.36458 c 8.56013,-12.9488 16.52492,-21.73021 23.73859,-25.25381 17.98027,-1.98132 28.59215,6.7673 27.77919,26.26396 -4.89559,9.42809 -13.03139,14.81557 -23.23351,24.24366 -12.1878,-2.2086 -26.38163,0.0964 -28.28427,-25.25381 z" style="fill:#555753;stroke:#000000;stroke-width:8;stroke-linecap:round;stroke-linejoin:round;stroke-miterlimit:4;stroke-opacity:1;stroke-dasharray:none"/>
          <path sodipodi:nodetypes="ccccc" inkscape:connector-curvature="0" id="path3780" d="m 253.54829,530.61839 23.73858,-23.73858 c 20.50378,-1.014 33.71875,6.0636 32.82996,27.7792 l -24.24366,25.25381 c -18.23097,-1.81173 -34.0215,-6.2266 -32.32488,-29.29443 z" style="fill:#555753;stroke:#000000;stroke-width:8;stroke-linecap:round;stroke-linejoin:round;stroke-miterlimit:4;stroke-opacity:1;stroke-dasharray:none"/>
          <path sodipodi:nodetypes="ccccc" inkscape:connector-curvature="0" id="path3782" d="m 310.11683,533.64885 c 13.07681,-5.29724 35.28436,-12.91279 33.33504,21.2132 l -24.24367,24.74874 c -20.41931,8.26359 -29.2873,-11.82975 -32.32488,-21.2132 z" style="fill:#555753;stroke:#000000;stroke-width:8;stroke-linecap:round;stroke-linejoin:round;stroke-miterlimit:4;stroke-opacity:1;stroke-dasharray:none"/>
          <path sodipodi:nodetypes="ccccc" inkscape:connector-curvature="0" id="path3784" d="m 339.41126,557.89251 c 19.71231,-5.52802 15.50338,7.34492 19.19289,14.14214 0.87409,11.17395 -0.77697,20.76968 -10.6066,25.25381 -15.3689,7.92223 -24.69682,1.49716 -29.29442,-16.16244 z" style="fill:#555753;stroke:#000000;stroke-width:8;stroke-linecap:round;stroke-linejoin:round;stroke-miterlimit:4;stroke-opacity:1;stroke-dasharray:none"/>
          <path sodipodi:nodetypes="cc" inkscape:connector-curvature="0" id="path3786" d="m 246.47722,480.11077 c -5.86666,29.93333 11.44723,28.95926 29.29443,27.27411" style="fill:none;stroke:#000000;stroke-width:4;stroke-linecap:butt;stroke-linejoin:miter;stroke-miterlimit:4;stroke-opacity:1;stroke-dasharray:none"/>
          <path sodipodi:nodetypes="cc" inkscape:connector-curvature="0" id="path3788" d="m 276.7818,508.39504 c -1.25686,22.45721 4.45743,36.94738 31.31473,27.27412" style="fill:none;stroke:#000000;stroke-width:4;stroke-linecap:butt;stroke-linejoin:miter;stroke-miterlimit:4;stroke-opacity:1;stroke-dasharray:none"/>
          <path sodipodi:nodetypes="cc" inkscape:connector-curvature="0" id="path3790" d="m 311.12698,533.14377 c -2.47242,26.7537 13.0997,28.03276 33.33504,22.72844" style="fill:none;stroke:#000000;stroke-width:4;stroke-linecap:butt;stroke-linejoin:miter;stroke-miterlimit:4;stroke-opacity:1;stroke-dasharray:none"/>
          <path sodipodi:nodetypes="cc" inkscape:connector-curvature="0" id="path3792" d="m 340.92648,558.39759 c -2.67158,19.5615 6.03246,20.92202 16.66752,19.1929" style="fill:none;stroke:#000000;stroke-width:4;stroke-linecap:butt;stroke-linejoin:miter;stroke-miterlimit:4;stroke-opacity:1;stroke-dasharray:none"/>
          <path sodipodi:nodetypes="cccc" inkscape:connector-curvature="0" id="path3794" d="m 315.16759,402.8341 19.69798,-10e-6 c 5.27957,16.36966 0.94954,26.56173 -12.62691,30.80966 l -20.70813,-1.01015" style="fill:none;stroke:#000000;stroke-width:4;stroke-linecap:butt;stroke-linejoin:miter;stroke-miterlimit:4;stroke-opacity:1;stroke-dasharray:none"/>
          <path sodipodi:nodetypes="ccccccc" inkscape:connector-curvature="0" id="path3796" d="m 194.45437,307.37468 52.52793,17.17259 c 4.24526,3.85048 7.46302,8.31745 5.05076,16.16244 1.41101,32.54294 -28.88542,90.45185 -53.03301,143.44167 -12.81597,11.37329 -15.36378,4.26387 -22.1826,4.84227 L 131.82491,471.01939 C 158.43566,418.6215 182.896,365.41721 194.45437,307.37468 z" style="fill:#3465a4;stroke:#204a87;stroke-width:11;stroke-linecap:butt;stroke-linejoin:round;stroke-miterlimit:4;stroke-opacity:1;stroke-dasharray:none"/>
          <path sodipodi:nodetypes="ccccccc" inkscape:connector-curvature="0" id="path3798" d="m 487.3986,365.96353 63.63961,-34.34519 c 16.23931,63.78967 47.24093,118.18513 84.34774,168.69548 l -55.05331,27.27412 c -15.7362,7.81265 -28.02714,5.28951 -38.3858,-3.03046 l -15.15228,-15.15229 z" style="fill:#729fcf;stroke:#204a87;stroke-width:11;stroke-linecap:butt;stroke-linejoin:round;stroke-miterlimit:4;stroke-opacity:1;stroke-dasharray:none"/>
          <path style="opacity:0.5866871;fill:url(#linearGradient4291);fill-opacity:1;stroke:#ffffff;stroke-width:7;stroke-linecap:butt;stroke-linejoin:miter;stroke-miterlimit:4;stroke-opacity:1;stroke-dasharray:none" d="m 201.2867,319.42301 40.16045,12.86151 c 3.62096,3.28424 2.43696,6.02288 1.09372,15.21421 -0.22506,29.9001 -30.35188,86.07879 -50.94838,131.27605 -7.71701,5.0579 -9.53299,3.63684 -14.99192,1.27303 l -31.59033,-14.25958 c 22.69744,-44.69238 46.41784,-96.85829 56.27646,-146.36522 z" id="path4219" inkscape:connector-curvature="0" sodipodi:nodetypes="ccccccc"/>
          <path style="opacity:0.50613499;fill:url(#linearGradient4293);fill-opacity:1;stroke:#eeeeec;stroke-width:7;stroke-linecap:butt;stroke-linejoin:miter;stroke-miterlimit:4;stroke-opacity:1;stroke-dasharray:none" d="m 498.11289,370.60639 47.21103,-26.13091 c 19.81074,65.21824 37.59808,95.68513 76.4906,152.9812 l -43.62474,20.84555 c -15.7362,7.81265 -21.24142,6.00379 -31.60008,-2.31618 l -11.58085,-11.22372 z" id="path4229" inkscape:connector-curvature="0" sodipodi:nodetypes="ccccccc"/>
        </g>
      </g>
    </g>
  </g>
</svg>
