<?xml version="1.0" encoding="UTF-8" standalone="no"?>
<!-- Created with Inkscape (http://www.inkscape.org/) -->
<svg xmlns:dc="http://purl.org/dc/elements/1.1/" xmlns:cc="http://creativecommons.org/ns#" xmlns:rdf="http://www.w3.org/1999/02/22-rdf-syntax-ns#" xmlns:svg="http://www.w3.org/2000/svg" xmlns="http://www.w3.org/2000/svg" xmlns:xlink="http://www.w3.org/1999/xlink" xmlns:sodipodi="http://sodipodi.sourceforge.net/DTD/sodipodi-0.dtd" xmlns:inkscape="http://www.inkscape.org/namespaces/inkscape" width="210mm" height="297mm" id="svg2" version="1.1" inkscape:version="0.48.0 r9654">
  <title id="title4087">tombstone RIP</title>
  <defs id="defs4">
    <linearGradient inkscape:collect="always" id="linearGradient3871">
      <stop style="stop-color:#000000;stop-opacity:1;" offset="0" id="stop3873"/>
      <stop style="stop-color:#000000;stop-opacity:0;" offset="1" id="stop3875"/>
    </linearGradient>
    <linearGradient inkscape:collect="always" id="linearGradient3861">
      <stop style="stop-color:#000000;stop-opacity:1;" offset="0" id="stop3863"/>
      <stop style="stop-color:#000000;stop-opacity:0;" offset="1" id="stop3865"/>
    </linearGradient>
    <linearGradient inkscape:collect="always" id="linearGradient3841">
      <stop style="stop-color:#eeeeec;stop-opacity:1;" offset="0" id="stop3843"/>
      <stop style="stop-color:#eeeeec;stop-opacity:0;" offset="1" id="stop3845"/>
    </linearGradient>
    <linearGradient inkscape:collect="always" id="linearGradient3831">
      <stop style="stop-color:#ffffff;stop-opacity:1;" offset="0" id="stop3833"/>
      <stop style="stop-color:#ffffff;stop-opacity:0;" offset="1" id="stop3835"/>
    </linearGradient>
    <linearGradient inkscape:collect="always" id="linearGradient3821">
      <stop style="stop-color:#ffffff;stop-opacity:1;" offset="0" id="stop3823"/>
      <stop style="stop-color:#ffffff;stop-opacity:0.01" offset="1" id="stop3825"/>
    </linearGradient>
    <radialGradient inkscape:collect="always" xlink:href="#linearGradient3871" id="radialGradient3921" gradientUnits="userSpaceOnUse" gradientTransform="matrix(1,0,0,0.18965517,0,598.67528)" cx="380" cy="738.79077" fx="380" fy="738.79077" r="207.14285"/>
    <linearGradient inkscape:collect="always" xlink:href="#linearGradient3821" id="linearGradient3923" gradientUnits="userSpaceOnUse" gradientTransform="matrix(1.0105719,0,0,1.0245186,-4.2957281,-12.220643)" x1="322.55499" y1="411.56726" x2="531.71423" y2="518.38623"/>
    <linearGradient inkscape:collect="always" xlink:href="#linearGradient3831" id="linearGradient3925" gradientUnits="userSpaceOnUse" gradientTransform="matrix(1.0387675,0,0,0.8205786,-15.32921,115.73273)" x1="280.64655" y1="610.32861" x2="526.20142" y2="668.18677"/>
    <linearGradient inkscape:collect="always" xlink:href="#linearGradient3841" id="linearGradient3927" gradientUnits="userSpaceOnUse" x1="275.80719" y1="655.37219" x2="549.99249" y2="760.4281"/>
    <linearGradient inkscape:collect="always" xlink:href="#linearGradient3861" id="linearGradient3929" gradientUnits="userSpaceOnUse" x1="595.57159" y1="817.54028" x2="548.91394" y2="428.63156"/>
    <radialGradient inkscape:collect="always" xlink:href="#linearGradient3871" id="radialGradient4031" gradientUnits="userSpaceOnUse" gradientTransform="matrix(1,0,0,0.18965517,0,598.67528)" cx="380" cy="738.79077" fx="380" fy="738.79077" r="207.14285"/>
    <linearGradient inkscape:collect="always" xlink:href="#linearGradient3821" id="linearGradient4033" gradientUnits="userSpaceOnUse" gradientTransform="matrix(1.0105719,0,0,1.0245186,-4.2957281,-12.220643)" x1="322.55499" y1="411.56726" x2="531.71423" y2="518.38623"/>
    <linearGradient inkscape:collect="always" xlink:href="#linearGradient3831" id="linearGradient4035" gradientUnits="userSpaceOnUse" gradientTransform="matrix(1.0387675,0,0,0.8205786,-15.32921,115.73273)" x1="280.64655" y1="610.32861" x2="526.20142" y2="668.18677"/>
    <linearGradient inkscape:collect="always" xlink:href="#linearGradient3841" id="linearGradient4037" gradientUnits="userSpaceOnUse" x1="275.80719" y1="655.37219" x2="549.99249" y2="760.4281"/>
    <linearGradient inkscape:collect="always" xlink:href="#linearGradient3861" id="linearGradient4039" gradientUnits="userSpaceOnUse" x1="595.57159" y1="817.54028" x2="548.91394" y2="428.63156"/>
    <radialGradient inkscape:collect="always" xlink:href="#linearGradient3871" id="radialGradient3063" gradientUnits="userSpaceOnUse" gradientTransform="matrix(1,0,0,0.18965517,0,598.67528)" cx="380" cy="738.79077" fx="380" fy="738.79077" r="207.14285"/>
    <linearGradient inkscape:collect="always" xlink:href="#linearGradient3821" id="linearGradient3065" gradientUnits="userSpaceOnUse" gradientTransform="matrix(1.0105719,0,0,1.0245186,-4.2957281,-12.220643)" x1="322.55499" y1="411.56726" x2="531.71423" y2="518.38623"/>
    <linearGradient inkscape:collect="always" xlink:href="#linearGradient3831" id="linearGradient3067" gradientUnits="userSpaceOnUse" gradientTransform="matrix(1.0387675,0,0,0.8205786,-15.32921,115.73273)" x1="280.64655" y1="610.32861" x2="526.20142" y2="668.18677"/>
    <linearGradient inkscape:collect="always" xlink:href="#linearGradient3841" id="linearGradient3069" gradientUnits="userSpaceOnUse" x1="275.80719" y1="655.37219" x2="549.99249" y2="760.4281"/>
    <linearGradient inkscape:collect="always" xlink:href="#linearGradient3861" id="linearGradient3071" gradientUnits="userSpaceOnUse" x1="595.57159" y1="817.54028" x2="548.91394" y2="428.63156"/>
    <radialGradient inkscape:collect="always" xlink:href="#linearGradient3871" id="radialGradient3095" gradientUnits="userSpaceOnUse" gradientTransform="matrix(1,0,0,0.18965517,0,598.67528)" cx="380" cy="738.79077" fx="380" fy="738.79077" r="207.14285"/>
    <linearGradient inkscape:collect="always" xlink:href="#linearGradient3821" id="linearGradient3097" gradientUnits="userSpaceOnUse" gradientTransform="matrix(1.0105719,0,0,1.0245186,-4.2957281,-12.220643)" x1="322.55499" y1="411.56726" x2="531.71423" y2="518.38623"/>
    <linearGradient inkscape:collect="always" xlink:href="#linearGradient3831" id="linearGradient3099" gradientUnits="userSpaceOnUse" gradientTransform="matrix(1.0387675,0,0,0.8205786,-15.32921,115.73273)" x1="280.64655" y1="610.32861" x2="526.20142" y2="668.18677"/>
    <linearGradient inkscape:collect="always" xlink:href="#linearGradient3841" id="linearGradient3101" gradientUnits="userSpaceOnUse" x1="275.80719" y1="655.37219" x2="549.99249" y2="760.4281"/>
    <linearGradient inkscape:collect="always" xlink:href="#linearGradient3861" id="linearGradient3103" gradientUnits="userSpaceOnUse" x1="595.57159" y1="817.54028" x2="548.91394" y2="428.63156"/>
  </defs>
  <sodipodi:namedview id="base" pagecolor="#ffffff" bordercolor="#666666" borderopacity="1.0" inkscape:pageopacity="0.0" inkscape:pageshadow="2" inkscape:zoom="0.7" inkscape:cx="426.39092" inkscape:cy="616.75489" inkscape:document-units="px" inkscape:current-layer="layer1" showgrid="false" showguides="true" inkscape:guide-bbox="true" inkscape:window-width="1280" inkscape:window-height="712" inkscape:window-x="0" inkscape:window-y="0" inkscape:window-maximized="0" inkscape:snap-global="false">
    <sodipodi:guide orientation="0,1" position="-222.85714,897.14286" id="guide2998"/>
    <sodipodi:guide orientation="0,1" position="-308.57143,197.14286" id="guide3000"/>
    <sodipodi:guide orientation="1,0" position="725.71429,31.428571" id="guide3002"/>
    <sodipodi:guide orientation="1,0" position="25.714286,100" id="guide3004"/>
  </sodipodi:namedview>
  <metadata id="metadata7">
    <rdf:RDF>
      <cc:Work rdf:about="">
        <dc:format>image/svg+xml</dc:format>
        <dc:type rdf:resource="http://purl.org/dc/dcmitype/StillImage"/>
        <dc:title>tombstone RIP</dc:title>
        <dc:date>Aug 2013</dc:date>
        <dc:creator>
          <cc:Agent>
            <dc:title>Franziska Sponsel</dc:title>
          </cc:Agent>
        </dc:creator>
        <dc:rights>
          <cc:Agent>
            <dc:title>Franziska Sponsel</dc:title>
          </cc:Agent>
        </dc:rights>
        <dc:publisher>
          <cc:Agent>
            <dc:title>RRZE</dc:title>
          </cc:Agent>
        </dc:publisher>
        <dc:subject>
          <rdf:Bag>
            <rdf:li>tombstone</rdf:li>
            <rdf:li>gravestone</rdf:li>
            <rdf:li>grave</rdf:li>
            <rdf:li>dead</rdf:li>
            <rdf:li>death</rdf:li>
            <rdf:li>rip</rdf:li>
            <rdf:li>rest in peace</rdf:li>
          </rdf:Bag>
        </dc:subject>
        <dc:contributor>
          <cc:Agent>
            <dc:title>Hendrik Eggers </dc:title>
          </cc:Agent>
        </dc:contributor>
        <cc:license rdf:resource="http://creativecommons.org/licenses/by-sa/3.0/"/>
      </cc:Work>
      <cc:License rdf:about="http://creativecommons.org/licenses/by-sa/3.0/">
        <cc:permits rdf:resource="http://creativecommons.org/ns#Reproduction"/>
        <cc:permits rdf:resource="http://creativecommons.org/ns#Distribution"/>
        <cc:requires rdf:resource="http://creativecommons.org/ns#Notice"/>
        <cc:requires rdf:resource="http://creativecommons.org/ns#Attribution"/>
        <cc:permits rdf:resource="http://creativecommons.org/ns#DerivativeWorks"/>
        <cc:requires rdf:resource="http://creativecommons.org/ns#ShareAlike"/>
      </cc:License>
    </rdf:RDF>
  </metadata>
  <g inkscape:label="Ebene 1" inkscape:groupmode="layer" id="layer1">
    <g id="g3918">
      <rect y="155.21933" x="25.714285" height="700" width="700" id="rect2996" style="fill:none;stroke:none"/>
      <g transform="matrix(1.5506536,0,0,1.5506536,-251.96045,-357.81688)" id="g3903">
        <path sodipodi:type="arc" style="opacity:0.70858896;fill:url(#radialGradient3095);fill-opacity:1;stroke:none" id="path3869" sodipodi:cx="380" sodipodi:cy="738.79077" sodipodi:rx="207.14285" sodipodi:ry="39.285713" d="m 587.14285,738.79077 c 0,21.6969 -92.74101,39.28571 -207.14285,39.28571 -114.40184,0 -207.14285,-17.58881 -207.14285,-39.28571 0,-21.6969 92.74101,-39.28571 207.14285,-39.28571 114.40184,0 207.14285,17.58881 207.14285,39.28571 z" transform="matrix(0.89569662,0.04008398,-0.04382039,1.0717472,112.00939,-80.809514)"/>
        <g id="g3879">
          <path sodipodi:nodetypes="cccc" inkscape:connector-curvature="0" id="path3809" d="m 263.92029,660.4636 13.98369,-6.99927 0.0613,5.71864 z" style="fill:#eeeeec;stroke:#babdb6;stroke-width:7;stroke-linecap:round;stroke-linejoin:round;stroke-miterlimit:4;stroke-opacity:1;stroke-dasharray:none"/>
          <path sodipodi:nodetypes="cccc" inkscape:connector-curvature="0" id="path3811" d="m 278.41958,613.66012 20.03408,-7.12182 -0.4438,7.89739 z" style="fill:#eeeeec;stroke:#babdb6;stroke-width:7;stroke-linecap:butt;stroke-linejoin:round;stroke-miterlimit:4;stroke-opacity:1;stroke-dasharray:none"/>
          <path sodipodi:nodetypes="ccccccccccccc" inkscape:connector-curvature="0" id="path3780" d="m 518.79998,375.20284 18.68782,8.64757 0.0449,227.79869 8.93699,4.98421 -0.12419,45.98242 20.75115,1.75342 -0.619,69.78552 -19.67259,6.50473 -0.8279,-68.20663 -17.58709,-0.7452 0.0242,-49.6807 -8.78306,-3.23752 z" style="fill:#babdb6;stroke:#888a85;stroke-width:7;stroke-linecap:butt;stroke-linejoin:round;stroke-miterlimit:4;stroke-opacity:1;stroke-dasharray:none"/>
          <path sodipodi:nodetypes="ccccc" inkscape:connector-curvature="0" id="path3774" d="m 299.51022,617.49152 214.65742,7.57614 -0.50508,-253.04321 c -42.6659,-29.14043 -141.0451,-53.18382 -215.16249,8.58629 z" style="fill:#555753;stroke:#2e3436;stroke-width:7;stroke-linecap:butt;stroke-linejoin:round;stroke-miterlimit:4;stroke-opacity:1;stroke-dasharray:none"/>
          <path sodipodi:nodetypes="ccccc" inkscape:connector-curvature="0" id="path3776" d="m 277.28687,615.97629 244.45691,8.58629 1.01016,51.51778 -244.962,-12.6269 z" style="fill:#555753;stroke:#2e3436;stroke-width:7;stroke-linecap:butt;stroke-linejoin:round;stroke-miterlimit:4;stroke-opacity:1;stroke-dasharray:none"/>
          <path sodipodi:nodetypes="ccccc" inkscape:connector-curvature="0" id="path3778" d="m 263.14473,662.4433 1e-5,60.10408 277.28687,18.68782 -1.01016,-64.64976 z" style="fill:#555753;stroke:#2e3436;stroke-width:7;stroke-linecap:butt;stroke-linejoin:round;stroke-miterlimit:4;stroke-opacity:1;stroke-dasharray:none"/>
          <path style="opacity:0.83435585;fill:url(#linearGradient3097);fill-opacity:1;stroke:#ffffff;stroke-width:6.5742054;stroke-linecap:butt;stroke-linejoin:miter;stroke-miterlimit:4;stroke-opacity:1;stroke-dasharray:none" d="m 305.97774,609.84426 200.94017,7.16432 -0.47111,-241.0741 c -39.79746,-27.55642 -131.20542,-48.15002 -200.69701,8.11957 z" id="path3819" inkscape:connector-curvature="0" sodipodi:nodetypes="ccccc"/>
          <path style="opacity:0.73312887;fill:url(#linearGradient3099);fill-opacity:1;stroke:#ffffff;stroke-width:5.91241026;stroke-linecap:butt;stroke-linejoin:miter;stroke-miterlimit:4;stroke-opacity:1;stroke-dasharray:none" d="m 283.92113,622.21821 231.23857,8.5886 0.60284,38.31734 -231.71857,-10.19332 z" id="path3829" inkscape:connector-curvature="0" sodipodi:nodetypes="ccccc"/>
          <path style="opacity:0.63803681;fill:url(#linearGradient3101);fill-opacity:1;stroke:#ffffff;stroke-width:6;stroke-linecap:butt;stroke-linejoin:miter;stroke-miterlimit:4;stroke-opacity:1;stroke-dasharray:none" d="m 269.93044,669.22901 -0.71427,47.24694 264.78687,17.97354 -0.65302,-51.79262 z" id="path3839" inkscape:connector-curvature="0" sodipodi:nodetypes="ccccc"/>
          <path sodipodi:nodetypes="cc" inkscape:connector-curvature="0" id="path3851" d="m 544.64287,674.50504 c -1.42858,0 21.07142,-8.57143 21.07142,-8.57143" style="fill:none;stroke:#888a85;stroke-width:7;stroke-linecap:butt;stroke-linejoin:miter;stroke-miterlimit:4;stroke-opacity:1;stroke-dasharray:none"/>
          <path sodipodi:nodetypes="cc" inkscape:connector-curvature="0" id="path3853" d="m 530,669.1479 17.50001,-6.07143" style="fill:none;stroke:#888a85;stroke-width:7;stroke-linecap:butt;stroke-linejoin:miter;stroke-miterlimit:4;stroke-opacity:1;stroke-dasharray:none"/>
          <path inkscape:connector-curvature="0" id="path3855" d="m 527.5,622.00504 20,-4.64286" style="fill:none;stroke:#888a85;stroke-width:7;stroke-linecap:butt;stroke-linejoin:miter;stroke-miterlimit:4;stroke-opacity:1;stroke-dasharray:none"/>
          <path sodipodi:nodetypes="cc" inkscape:connector-curvature="0" id="path3857" d="M 522.85715,616.29075 537.5,613.43361" style="fill:none;stroke:#888a85;stroke-width:7;stroke-linecap:round;stroke-linejoin:miter;stroke-miterlimit:4;stroke-opacity:1;stroke-dasharray:none"/>
          <path style="opacity:0.70858896;fill:url(#linearGradient3103);fill-opacity:1;stroke:none" d="m 518.79998,375.20284 18.68782,8.64757 0.0449,227.79869 8.93699,4.98421 -0.12419,45.98242 20.75115,1.75342 -0.619,69.78552 -19.67259,6.50473 -0.8279,-68.20663 -17.58709,-0.7452 0.0242,-49.6807 -8.78306,-3.23752 z" id="path3859" inkscape:connector-curvature="0" sodipodi:nodetypes="ccccccccccccc"/>
        </g>
      </g>
      <flowRoot style="font-size:8px;font-style:normal;font-weight:normal;line-height:125%;letter-spacing:0px;word-spacing:0px;fill:#000000;fill-opacity:1;stroke:none;font-family:Sans" id="flowRoot4129" xml:space="preserve"><flowRegion id="flowRegion4131"><rect y="490.93362" x="611.42859" height="158.57143" width="361.42856" id="rect4133"/></flowRegion><flowPara id="flowPara4135">.</flowPara></flowRoot>      <path d="m 254.3655,315.50446 0,-40.608 c 0,-2.736 0.576,-3.168 1.296,-3.168 1.296,-0.144 3.744,-0.288 7.632,-0.288 14.97599,0 24.912,6.62402 24.912,22.032 0,8.20799 -2.736,13.968 -7.488,17.712 -3.888,3.168 -9.21601,4.32 -17.568,4.32 l -8.784,0 m -21.744,43.2 35.28,0 0,-2.016 c -12.38399,-0.576 -13.536,-3.02401 -13.536,-14.4 l 0,-23.904 c 12.23999,0 16.56,0.14401 20.16,5.328 21.74398,35.56796 28.65601,36.288 41.76,36.288 l 0.432,-1.872 c -7.34399,-1.728 -17.42401,-14.11201 -24.336,-22.608 -4.464,-6.04799 -10.512,-15.264 -12.816,-19.728 11.08799,-5.03999 17.568,-12.24001 17.568,-24.48 0,-18.43198 -15.55201,-22.752 -29.808,-22.752 l -33.984,0 0,2.16 c 12.09599,0.864 13.248,2.44801 13.248,13.824 l 0,57.744 c 0,11.37599 -1.15201,13.824 -13.968,14.4 l 0,2.016" style="font-size:144px;font-style:normal;font-variant:normal;font-weight:bold;font-stretch:normal;line-height:125%;letter-spacing:0px;word-spacing:0px;fill:#000000;fill-opacity:1;stroke:#000000;stroke-width:1.29999995;stroke-miterlimit:4;stroke-opacity:1;stroke-dasharray:none;font-family:Adobe Song Std;-inkscape-font-specification:Adobe Song Std Bold" id="path3132" inkscape:connector-curvature="0"/>
      <path d="m 327.28,360.28846 c 3.744,0 6.48,-2.592 6.48,-6.48 0,-3.6 -2.736,-6.624 -6.48,-6.624 -3.6,0 -6.336,3.024 -6.336,6.624 0,3.6 2.304,6.336 6.336,6.48" style="font-size:144px;font-style:normal;font-variant:normal;font-weight:bold;font-stretch:normal;line-height:125%;letter-spacing:0px;word-spacing:0px;fill:#000000;fill-opacity:1;stroke:#000000;stroke-width:1.29999995;stroke-miterlimit:4;stroke-opacity:1;stroke-dasharray:none;font-family:Adobe Song Std;-inkscape-font-specification:Adobe Song Std Bold" id="path3134" inkscape:connector-curvature="0"/>
      <path d="m 353.7845,358.70446 34.848,0 0,-2.016 c -12.38399,-0.576 -13.68,-3.02401 -13.68,-14.4 l 0,-57.312 c 0,-11.23199 1.29601,-13.68 13.68,-14.4 l 0,-2.016 -34.848,0 0,2.016 c 12.52799,0.72 13.68,3.16801 13.68,14.4 l 0,57.312 c 0,11.37599 -1.15201,13.824 -13.68,14.4 l 0,2.016" style="font-size:144px;font-style:normal;font-variant:normal;font-weight:bold;font-stretch:normal;line-height:125%;letter-spacing:0px;word-spacing:0px;fill:#000000;fill-opacity:1;stroke:#000000;stroke-width:1.29999995;stroke-miterlimit:4;stroke-opacity:1;stroke-dasharray:none;font-family:Adobe Song Std;-inkscape-font-specification:Adobe Song Std Bold" id="path3136" inkscape:connector-curvature="0"/>
      <path d="m 401.43625,360.28846 c 3.744,0 6.48,-2.592 6.48,-6.48 0,-3.6 -2.736,-6.624 -6.48,-6.624 -3.6,0 -6.336,3.024 -6.336,6.624 0,3.6 2.304,6.336 6.336,6.48" style="font-size:144px;font-style:normal;font-variant:normal;font-weight:bold;font-stretch:normal;line-height:125%;letter-spacing:0px;word-spacing:0px;fill:#000000;fill-opacity:1;stroke:#000000;stroke-width:1.29999995;stroke-miterlimit:4;stroke-opacity:1;stroke-dasharray:none;font-family:Adobe Song Std;-inkscape-font-specification:Adobe Song Std Bold" id="path3138" inkscape:connector-curvature="0"/>
      <path d="m 457.39675,275.32846 c 0,-3.024 0.432,-3.456 1.44,-3.6 1.296,-0.288 3.456,-0.288 7.344,-0.288 17.71198,0 26.784,7.20002 26.784,22.896 0,16.70398 -10.51201,23.328 -23.328,23.328 -6.76799,0 -10.656,-1.44 -12.24,-2.16 l 0,-40.176 m -21.312,83.376 37.008,0 0,-2.016 c -14.68799,-0.864 -15.696,-2.88001 -15.696,-14.112 l 0,-23.904 11.52,3.168 c 13.53599,1.44 33.552,-7.20002 33.552,-28.224 0,-23.90398 -22.32001,-25.056 -31.392,-25.056 l -34.128,0 0,2.16 c 12.67199,0.576 12.672,2.73601 12.672,14.256 l 0,57.312 c 0,11.37599 -1.15201,13.824 -13.536,14.4 l 0,2.016" style="font-size:144px;font-style:normal;font-variant:normal;font-weight:bold;font-stretch:normal;line-height:125%;letter-spacing:0px;word-spacing:0px;fill:#000000;fill-opacity:1;stroke:#000000;stroke-width:1.29999995;stroke-miterlimit:4;stroke-opacity:1;stroke-dasharray:none;font-family:Adobe Song Std;-inkscape-font-specification:Adobe Song Std Bold" id="path3140" inkscape:connector-curvature="0"/>
      <path d="m 486.2175,360.28846 c 3.744,0 6.48,-2.592 6.48,-6.48 0,-3.6 -2.736,-6.624 -6.48,-6.624 -3.6,0 -6.336,3.024 -6.336,6.624 0,3.6 2.304,6.336 6.336,6.48" style="font-size:144px;font-style:normal;font-variant:normal;font-weight:bold;font-stretch:normal;line-height:125%;letter-spacing:0px;word-spacing:0px;fill:#000000;fill-opacity:1;stroke:#000000;stroke-width:1.29999995;stroke-miterlimit:4;stroke-opacity:1;stroke-dasharray:none;font-family:Adobe Song Std;-inkscape-font-specification:Adobe Song Std Bold" id="path3142" inkscape:connector-curvature="0"/>
    </g>
  </g>
</svg>
