<?xml version="1.0" encoding="UTF-8" standalone="no"?>
<!-- Created with Inkscape (http://www.inkscape.org/) -->
<svg xmlns:dc="http://purl.org/dc/elements/1.1/" xmlns:cc="http://creativecommons.org/ns#" xmlns:rdf="http://www.w3.org/1999/02/22-rdf-syntax-ns#" xmlns:svg="http://www.w3.org/2000/svg" xmlns="http://www.w3.org/2000/svg" xmlns:xlink="http://www.w3.org/1999/xlink" xmlns:sodipodi="http://sodipodi.sourceforge.net/DTD/sodipodi-0.dtd" xmlns:inkscape="http://www.inkscape.org/namespaces/inkscape" width="210mm" height="297mm" id="svg2" version="1.1" inkscape:version="0.48.2 r9819" inkscape:export-xdpi="6.25" inkscape:export-ydpi="6.25">
  <title id="title4028">waffle ice cream</title>
  <defs id="defs4">
    <linearGradient inkscape:collect="always" id="linearGradient3988">
      <stop style="stop-color:#2e3436;stop-opacity:1;" offset="0" id="stop3990"/>
      <stop style="stop-color:#2e3436;stop-opacity:0;" offset="1" id="stop3992"/>
    </linearGradient>
    <linearGradient inkscape:collect="always" id="linearGradient3892">
      <stop style="stop-color:#ffffff;stop-opacity:1;" offset="0" id="stop3894"/>
      <stop style="stop-color:#ffffff;stop-opacity:0;" offset="1" id="stop3896"/>
    </linearGradient>
    <linearGradient id="linearGradient3876">
      <stop id="stop3886" offset="0" style="stop-color:#ffffff;stop-opacity:0;"/>
      <stop id="stop3884" offset="0.5" style="stop-color:#ffffff;stop-opacity:1;"/>
      <stop style="stop-color:#ffffff;stop-opacity:0;" offset="1" id="stop3880"/>
    </linearGradient>
    <linearGradient inkscape:collect="always" id="linearGradient3866">
      <stop style="stop-color:#e9b96e;stop-opacity:1;" offset="0" id="stop3868"/>
      <stop style="stop-color:#e9b96e;stop-opacity:0;" offset="1" id="stop3870"/>
    </linearGradient>
    <linearGradient id="linearGradient3836">
      <stop style="stop-color:#8f5902;stop-opacity:1;" offset="0" id="stop3838"/>
      <stop id="stop3844" offset="0.56038511" style="stop-color:#e9b96e;stop-opacity:1;"/>
      <stop style="stop-color:#8f5902;stop-opacity:1;" offset="1" id="stop3840"/>
    </linearGradient>
    <linearGradient inkscape:collect="always" xlink:href="#linearGradient3892" id="linearGradient3972" gradientUnits="userSpaceOnUse" x1="373.42499" y1="362.26138" x2="362.91452" y2="420.52484"/>
    <linearGradient inkscape:collect="always" xlink:href="#linearGradient3892" id="linearGradient3974" gradientUnits="userSpaceOnUse" x1="373.42499" y1="362.26138" x2="362.91452" y2="420.52484"/>
    <linearGradient inkscape:collect="always" xlink:href="#linearGradient3892" id="linearGradient3976" gradientUnits="userSpaceOnUse" x1="373.42499" y1="362.26138" x2="362.91452" y2="420.52484"/>
    <linearGradient inkscape:collect="always" xlink:href="#linearGradient3836" id="linearGradient3978" gradientUnits="userSpaceOnUse" x1="248.39934" y1="488.68891" x2="382.22734" y2="488.68891"/>
    <linearGradient inkscape:collect="always" xlink:href="#linearGradient3866" id="linearGradient3980" gradientUnits="userSpaceOnUse" x1="253.63176" y1="488.51481" x2="378.54971" y2="488.51481"/>
    <linearGradient inkscape:collect="always" xlink:href="#linearGradient3876" id="linearGradient3982" gradientUnits="userSpaceOnUse" x1="312.14285" y1="467.54074" x2="358.57144" y2="476.11218"/>
    <radialGradient inkscape:collect="always" xlink:href="#linearGradient3988" id="radialGradient3994" cx="370" cy="760.93359" fx="370" fy="760.93359" r="172.85715" gradientTransform="matrix(1,0,0,0.21487602,0,597.42721)" gradientUnits="userSpaceOnUse"/>
  </defs>
  <sodipodi:namedview id="base" pagecolor="#ffffff" bordercolor="#666666" borderopacity="1.0" inkscape:pageopacity="0.0" inkscape:pageshadow="2" inkscape:zoom="0.7" inkscape:cx="377.38759" inkscape:cy="949.37408" inkscape:document-units="px" inkscape:current-layer="layer1" showgrid="false" inkscape:window-width="1262" inkscape:window-height="656" inkscape:window-x="0" inkscape:window-y="0" inkscape:window-maximized="0" inkscape:snap-global="false" showguides="true" inkscape:guide-bbox="true">
    <sodipodi:guide orientation="0,1" position="842.85714,931.42857" id="guide3964"/>
    <sodipodi:guide orientation="0,1" position="885.71429,240" id="guide3966"/>
    <sodipodi:guide orientation="1,0" position="717.14286,100" id="guide3968"/>
    <sodipodi:guide orientation="1,0" position="25.714286,94.285714" id="guide3970"/>
    <sodipodi:guide orientation="1,0" position="371.42857,-20" id="guide3984"/>
  </sodipodi:namedview>
  <metadata id="metadata7">
    <rdf:RDF>
      <cc:Work rdf:about="">
        <dc:format>image/svg+xml</dc:format>
        <dc:type rdf:resource="http://purl.org/dc/dcmitype/StillImage"/>
        <dc:title>waffle ice cream</dc:title>
        <dc:date>Jun 2014</dc:date>
        <dc:creator>
          <cc:Agent>
            <dc:title>Franziska Sponsel</dc:title>
          </cc:Agent>
        </dc:creator>
        <dc:rights>
          <cc:Agent>
            <dc:title>Franziska Sponsel</dc:title>
          </cc:Agent>
        </dc:rights>
        <dc:publisher>
          <cc:Agent>
            <dc:title>RRZE</dc:title>
          </cc:Agent>
        </dc:publisher>
        <dc:subject>
          <rdf:Bag>
            <rdf:li>cone</rdf:li>
            <rdf:li>waffle</rdf:li>
            <rdf:li>summer</rdf:li>
            <rdf:li>i scream</rdf:li>
            <rdf:li>you scream</rdf:li>
            <rdf:li>we all scream for</rdf:li>
            <rdf:li>ice cream</rdf:li>
          </rdf:Bag>
        </dc:subject>
        <dc:contributor>
          <cc:Agent>
            <dc:title>Frank Troeger</dc:title>
          </cc:Agent>
        </dc:contributor>
        <cc:license rdf:resource="http://creativecommons.org/licenses/by-sa/3.0/"/>
      </cc:Work>
      <cc:License rdf:about="http://creativecommons.org/licenses/by-sa/3.0/">
        <cc:permits rdf:resource="http://creativecommons.org/ns#Reproduction"/>
        <cc:permits rdf:resource="http://creativecommons.org/ns#Distribution"/>
        <cc:requires rdf:resource="http://creativecommons.org/ns#Notice"/>
        <cc:requires rdf:resource="http://creativecommons.org/ns#Attribution"/>
        <cc:permits rdf:resource="http://creativecommons.org/ns#DerivativeWorks"/>
        <cc:requires rdf:resource="http://creativecommons.org/ns#ShareAlike"/>
      </cc:License>
    </rdf:RDF>
  </metadata>
  <g inkscape:label="Ebene 1" inkscape:groupmode="layer" id="layer1">
    <g id="g4214">
      <g id="g3996">
        <path sodipodi:type="arc" style="opacity:0.32075471;fill:url(#radialGradient3994);fill-opacity:1;stroke:none" id="path3986" sodipodi:cx="370" sodipodi:cy="760.93359" sodipodi:rx="172.85715" sodipodi:ry="37.142857" d="m 542.85715,760.93359 a 172.85715,37.142857 0 1 1 -345.7143,0 172.85715,37.142857 0 1 1 345.7143,0 z" transform="translate(1.1428571,-9.428571)"/>
        <g id="g3933" transform="matrix(2.6030716,0,0,2.6030716,-454.60151,-704.11563)">
          <g transform="translate(-1.5152288,3.0304576)" id="g3926">
            <path style="fill:#73d216;fill-opacity:1;stroke:#4e9a06;stroke-width:5;stroke-linecap:round;stroke-linejoin:round;stroke-miterlimit:4;stroke-opacity:1;stroke-dasharray:none" d="m 354.51944,363.07646 c 0,20.24802 -16.41427,36.6623 -36.66229,36.6623 -20.24803,0 -36.6623,-16.41428 -36.6623,-36.6623 0,-20.24803 16.41427,-36.66229 36.6623,-36.66229 20.24802,0 36.66229,16.41426 36.66229,36.66229 z" id="path3019" inkscape:connector-curvature="0"/>
            <path inkscape:connector-curvature="0" id="path3914" d="m 349.50428,363.07646 c 0,17.47823 -14.16891,31.64714 -31.64713,31.64714 -17.47823,0 -31.64714,-14.16891 -31.64714,-31.64714 0,-17.47823 14.16891,-31.64713 31.64714,-31.64713 17.47822,0 31.64713,14.1689 31.64713,31.64713 z" style="opacity:0.32075471;fill:none;stroke:#ffffff;stroke-width:4;stroke-linecap:round;stroke-linejoin:round;stroke-miterlimit:4;stroke-opacity:1;stroke-dasharray:none"/>
            <path sodipodi:type="arc" style="opacity:0.65408804;fill:url(#linearGradient3972);fill-opacity:1;stroke:none" id="path3906" sodipodi:cx="359.64285" sodipodi:cy="394.14789" sodipodi:rx="22.5" sodipodi:ry="22.5" d="m 382.14285,394.14789 c 0,12.42641 -10.07359,22.5 -22.5,22.5 -12.4264,0 -22.5,-10.07359 -22.5,-22.5 0,-12.42641 10.0736,-22.5 22.5,-22.5 12.42641,0 22.5,10.07359 22.5,22.5 z" transform="matrix(0.92227392,0.15319854,-0.12517442,0.75356533,36.933719,-5.4665756)"/>
          </g>
          <g id="g3916">
            <path transform="matrix(1.0250417,0,0,1.0250417,41.469711,-27.951474)" style="fill:#cc0000;fill-opacity:1;stroke:#a40000;stroke-width:4.87785053;stroke-linecap:round;stroke-linejoin:round;stroke-miterlimit:4;stroke-opacity:1;stroke-dasharray:none" d="m 337.14286,417.36218 c 0,21.6969 -17.58881,39.28572 -39.28571,39.28572 -21.6969,0 -39.28572,-17.58882 -39.28572,-39.28572 0,-21.6969 17.58882,-39.28571 39.28572,-39.28571 21.6969,0 39.28571,17.58881 39.28571,39.28571 z" id="path3021" inkscape:connector-curvature="0"/>
            <path id="path3912" d="m 382.72708,399.86217 c 0,19.84987 -16.0915,35.94137 -35.94137,35.94137 -19.84987,0 -35.94138,-16.0915 -35.94138,-35.94137 0,-19.84988 16.09151,-35.94137 35.94138,-35.94137 19.84987,0 35.94137,16.09149 35.94137,35.94137 z" style="opacity:0.35220127;fill:none;stroke:#ffffff;stroke-width:4;stroke-linecap:round;stroke-linejoin:round;stroke-miterlimit:4;stroke-opacity:1;stroke-dasharray:none" inkscape:connector-curvature="0"/>
            <path transform="matrix(1.4362617,0.23857684,-0.19493475,1.173531,-91.02315,-159.19931)" d="m 382.14285,394.14789 c 0,12.42641 -10.07359,22.5 -22.5,22.5 -12.4264,0 -22.5,-10.07359 -22.5,-22.5 0,-12.42641 10.0736,-22.5 22.5,-22.5 12.42641,0 22.5,10.07359 22.5,22.5 z" sodipodi:ry="22.5" sodipodi:rx="22.5" sodipodi:cy="394.14789" sodipodi:cx="359.64285" id="path3902" style="opacity:0.72327043;fill:url(#linearGradient3974);fill-opacity:1;stroke:none" sodipodi:type="arc"/>
          </g>
          <g id="g3921">
            <path transform="matrix(1.0751252,0,0,1.0751252,-30.590867,-45.997279)" style="fill:#3465a4;fill-opacity:1;stroke:#204a87;stroke-width:4.65062094;stroke-linecap:round;stroke-linejoin:round;stroke-miterlimit:4;stroke-opacity:1;stroke-dasharray:none" d="m 337.14286,417.36218 c 0,21.6969 -17.58881,39.28572 -39.28571,39.28572 -21.6969,0 -39.28572,-17.58882 -39.28572,-39.28572 0,-21.6969 17.58882,-39.28571 39.28572,-39.28571 21.6969,0 39.28571,17.58881 39.28571,39.28571 z" id="path3017" inkscape:connector-curvature="0"/>
            <path sodipodi:type="arc" style="opacity:0.60377359;fill:url(#linearGradient3976);fill-opacity:1;stroke:none" id="path3888" sodipodi:cx="359.64285" sodipodi:cy="394.14789" sodipodi:rx="22.5" sodipodi:ry="22.5" d="m 382.14285,394.14789 c 0,12.42641 -10.07359,22.5 -22.5,22.5 -12.4264,0 -22.5,-10.07359 -22.5,-22.5 0,-12.42641 10.0736,-22.5 22.5,-22.5 12.42641,0 22.5,10.07359 22.5,22.5 z" transform="matrix(1.2839936,0.21328365,-0.17426835,1.0491168,-101.30591,-103.20805)"/>
            <path id="path3910" d="m 326.87104,402.71932 c 0,20.56055 -16.66762,37.22819 -37.22818,37.22819 -20.56056,0 -37.22819,-16.66764 -37.22819,-37.22819 0,-20.56056 16.66763,-37.22818 37.22819,-37.22818 20.56056,0 37.22818,16.66762 37.22818,37.22818 z" style="opacity:0.3553459;fill:none;stroke:#ffffff;stroke-width:4;stroke-linecap:round;stroke-linejoin:round;stroke-miterlimit:4;stroke-opacity:1;stroke-dasharray:none" inkscape:connector-curvature="0"/>
          </g>
          <path sodipodi:nodetypes="csscccc" inkscape:connector-curvature="0" id="path2996" d="m 251.05166,432.60413 c 17.22434,50.44518 33.49528,88.84441 54.66742,123.35473 3.31038,5.39589 15.55837,5.90553 19.07034,0.0613 25.34336,-42.17363 42.10543,-81.09564 54.3601,-121.19959 1.71614,-4.36048 1.81622,-8.25343 -2.95444,-9.67734 -40.90148,-11.6729 -96.6036,-8.78834 -120.75512,-2.38755 -5.47613,1.53739 -5.66808,6.13479 -4.3883,9.84845 z" style="fill:url(#linearGradient3978);fill-opacity:1;stroke:#8f5902;stroke-width:4;stroke-linecap:butt;stroke-linejoin:miter;stroke-miterlimit:4;stroke-opacity:1;stroke-dasharray:none"/>
          <path sodipodi:nodetypes="cc" inkscape:connector-curvature="0" id="path3802" d="m 253.92857,424.36218 93.17422,90.72011" style="fill:none;stroke:#8f5902;stroke-width:4;stroke-linecap:round;stroke-linejoin:miter;stroke-miterlimit:4;stroke-opacity:1;stroke-dasharray:none"/>
          <path sodipodi:nodetypes="cc" style="fill:none;stroke:#8f5902;stroke-width:4;stroke-linecap:round;stroke-linejoin:miter;stroke-miterlimit:4;stroke-opacity:1;stroke-dasharray:none" d="m 263.26765,464.43843 72.38287,70.12091" id="path3804" inkscape:connector-curvature="0"/>
          <path sodipodi:nodetypes="cc" inkscape:connector-curvature="0" id="path3806" d="m 283.44146,512.4223 42.03792,41.42661" style="fill:none;stroke:#8f5902;stroke-width:4;stroke-linecap:round;stroke-linejoin:miter;stroke-miterlimit:4;stroke-opacity:1;stroke-dasharray:none"/>
          <path sodipodi:nodetypes="cc" style="fill:none;stroke:#8f5902;stroke-width:4;stroke-linecap:round;stroke-linejoin:miter;stroke-miterlimit:4;stroke-opacity:1;stroke-dasharray:none" d="m 279.23239,418.56051 77.48201,75.0607" id="path3810" inkscape:connector-curvature="0"/>
          <path sodipodi:nodetypes="cc" inkscape:connector-curvature="0" id="path3812" d="m 307.36697,417.19981 57.85095,56.04311" style="fill:none;stroke:#8f5902;stroke-width:4;stroke-linecap:round;stroke-linejoin:miter;stroke-miterlimit:4;stroke-opacity:1;stroke-dasharray:none"/>
          <path sodipodi:nodetypes="cc" style="fill:none;stroke:#8f5902;stroke-width:4;stroke-linecap:round;stroke-linejoin:miter;stroke-miterlimit:4;stroke-opacity:1;stroke-dasharray:none" d="M 340.84502,418.82809 373.805,450.75807" id="path3814" inkscape:connector-curvature="0"/>
          <path sodipodi:nodetypes="cc" inkscape:connector-curvature="0" id="path3816" d="m 373.42858,427.36218 -86.43972,89.22809" style="fill:none;stroke:#8f5902;stroke-width:4;stroke-linecap:round;stroke-linejoin:miter;stroke-miterlimit:4;stroke-opacity:1;stroke-dasharray:none"/>
          <path sodipodi:nodetypes="cc" style="fill:none;stroke:#8f5902;stroke-width:4;stroke-linecap:round;stroke-linejoin:miter;stroke-miterlimit:4;stroke-opacity:1;stroke-dasharray:none" d="m 348.15846,421.67327 -72.6904,75.03525" id="path3818" inkscape:connector-curvature="0"/>
          <path sodipodi:nodetypes="cc" inkscape:connector-curvature="0" id="path3820" d="m 318.5317,419.55988 -51.79386,53.46463" style="fill:none;stroke:#8f5902;stroke-width:4;stroke-linecap:round;stroke-linejoin:miter;stroke-miterlimit:4;stroke-opacity:1;stroke-dasharray:none"/>
          <path sodipodi:nodetypes="cc" style="fill:none;stroke:#8f5902;stroke-width:4;stroke-linecap:round;stroke-linejoin:miter;stroke-miterlimit:4;stroke-opacity:1;stroke-dasharray:none" d="m 286.02482,419.63611 -28.12037,29.02748" id="path3822" inkscape:connector-curvature="0"/>
          <path sodipodi:nodetypes="cc" inkscape:connector-curvature="0" id="path3824" d="m 369.8857,462.33271 -73.81047,76.19145" style="fill:none;stroke:#8f5902;stroke-width:4;stroke-linecap:round;stroke-linejoin:miter;stroke-miterlimit:4;stroke-opacity:1;stroke-dasharray:none"/>
          <path sodipodi:nodetypes="cc" style="fill:none;stroke:#8f5902;stroke-width:4;stroke-linecap:round;stroke-linejoin:miter;stroke-miterlimit:4;stroke-opacity:1;stroke-dasharray:none" d="m 346.60716,516.59719 -39.39188,40.66258" id="path3826" inkscape:connector-curvature="0"/>
          <path style="opacity:0.76415094;fill:none;stroke:url(#linearGradient3980);stroke-width:3.7801578;stroke-linecap:butt;stroke-linejoin:miter;stroke-miterlimit:4;stroke-opacity:1;stroke-dasharray:none" d="m 257.1089,437.70689 c 13.95488,48.2442 32.54722,79.79087 50.74463,114.91192 2.75224,5.31182 11.50831,5.43207 14.89985,-0.0467 27.48601,-44.40144 36.5083,-76.89112 52.88767,-114.79094 1.62182,-4.12082 1.7164,-7.79981 -2.79206,-9.14546 -38.65352,-11.03136 -91.87727,-10.1851 -114.11836,-2.25633 -5.36464,1.91245 -2.60249,7.93687 -1.62173,11.32751 z" id="path3856" inkscape:connector-curvature="0" sodipodi:nodetypes="sssccss"/>
          <path sodipodi:nodetypes="cccc" inkscape:connector-curvature="0" id="path3874" d="m 304.64286,418.07647 14.28571,136.42857 56.78572,-129.64286 z" style="opacity:0.48113212;fill:url(#linearGradient3982);fill-opacity:1;stroke:none"/>
        </g>
        <rect style="opacity:0.32075471000000000;fill:none;stroke:none;stroke-width:4;stroke-linecap:round;stroke-linejoin:round;stroke-miterlimit:4;stroke-opacity:1;stroke-dasharray:none" id="rect3962" width="691.42859" height="691.42859" x="25.714285" y="120.93361"/>
      </g>
    </g>
  </g>
</svg>
