<?xml version="1.0" encoding="UTF-8" standalone="no"?>
<!-- Created with Inkscape (http://www.inkscape.org/) -->

<svg
   xmlns:dc="http://purl.org/dc/elements/1.1/"
   xmlns:cc="http://creativecommons.org/ns#"
   xmlns:rdf="http://www.w3.org/1999/02/22-rdf-syntax-ns#"
   xmlns:svg="http://www.w3.org/2000/svg"
   xmlns="http://www.w3.org/2000/svg"
   xmlns:xlink="http://www.w3.org/1999/xlink"
   xmlns:sodipodi="http://sodipodi.sourceforge.net/DTD/sodipodi-0.dtd"
   xmlns:inkscape="http://www.inkscape.org/namespaces/inkscape"
   width="210mm"
   height="297mm"
   viewBox="0 0 744.09448819 1052.3622047"
   id="svg2"
   version="1.1"
   inkscape:version="0.91 r13725"
   inkscape:export-xdpi="4.9499998"
   inkscape:export-ydpi="4.9499998"
   sodipodi:docname="eduroam.svg"
   inkscape:export-filename="D:\Dokumente\Arbeit\RRZE\github\bicons\22x22\logos\eduroam.png">
  <title
     id="title4165">eduroam</title>
  <defs
     id="defs4">
    <linearGradient
       inkscape:collect="always"
       id="linearGradient4213">
      <stop
         style="stop-color:#4e505d;stop-opacity:1;"
         offset="0"
         id="stop4215" />
      <stop
         style="stop-color:#7a859c;stop-opacity:1"
         offset="1"
         id="stop4217" />
    </linearGradient>
    <linearGradient
       id="linearGradient2224">
      <stop
         id="stop2226"
         offset="0"
         style="stop-color:#7c7c7c;stop-opacity:1;" />
      <stop
         id="stop2228"
         offset="1"
         style="stop-color:#b8b8b8;stop-opacity:1;" />
    </linearGradient>
    <linearGradient
       id="linearGradient15218">
      <stop
         id="stop15220"
         offset="0"
         style="stop-color:#eeeeef;stop-opacity:1;" />
      <stop
         id="stop2736"
         offset="0.59928656"
         style="stop-color:#d3d7cf;stop-opacity:1;" />
      <stop
         id="stop2738"
         offset="0.82758623"
         style="stop-color:#ffffff;stop-opacity:1;" />
      <stop
         id="stop15222"
         offset="1"
         style="stop-color:#d3d7cf;stop-opacity:1;" />
    </linearGradient>
    <pattern
       y="0"
       x="0"
       height="6"
       width="6"
       patternUnits="userSpaceOnUse"
       id="EMFhbasepattern" />
    <pattern
       y="0"
       x="0"
       height="6"
       width="6"
       patternUnits="userSpaceOnUse"
       id="EMFhbasepattern-5" />
    <linearGradient
       id="linearGradient11494">
      <stop
         style="stop-color:#3465a4;stop-opacity:1;"
         offset="0"
         id="stop11496" />
      <stop
         style="stop-color:#3465a4;stop-opacity:0;"
         offset="1"
         id="stop11498" />
    </linearGradient>
    <linearGradient
       inkscape:collect="always"
       xlink:href="#linearGradient4213"
       id="linearGradient4219"
       x1="287.08536"
       y1="708.70831"
       x2="490.73209"
       y2="493.74786"
       gradientUnits="userSpaceOnUse" />
  </defs>
  <sodipodi:namedview
     id="base"
     pagecolor="#ffffff"
     bordercolor="#666666"
     borderopacity="1.0"
     inkscape:pageopacity="0.0"
     inkscape:pageshadow="2"
     inkscape:zoom="0.7071068"
     inkscape:cx="641.19308"
     inkscape:cy="494.43544"
     inkscape:document-units="px"
     inkscape:current-layer="layer1"
     showgrid="false"
     showguides="true"
     inkscape:guide-bbox="true"
     inkscape:window-width="1600"
     inkscape:window-height="837"
     inkscape:window-x="-4"
     inkscape:window-y="-4"
     inkscape:window-maximized="1"
     inkscape:snap-bbox="true"
     inkscape:bbox-nodes="true"
     inkscape:snap-nodes="false">
    <sodipodi:guide
       position="560,730.00002"
       orientation="0,1"
       id="guide3338" />
    <sodipodi:guide
       position="560,330.00001"
       orientation="0,1"
       id="guide3340" />
    <sodipodi:guide
       position="190,475.00001"
       orientation="1,0"
       id="guide3344" />
    <sodipodi:guide
       position="590,451.00001"
       orientation="1,0"
       id="guide3346" />
    <inkscape:grid
       type="xygrid"
       id="grid3440" />
  </sodipodi:namedview>
  <metadata
     id="metadata7">
    <rdf:RDF>
      <cc:Work
         rdf:about="">
        <dc:format>image/svg+xml</dc:format>
        <dc:type
           rdf:resource="http://purl.org/dc/dcmitype/StillImage" />
        <dc:title>eduroam</dc:title>
        <dc:date>June 2015</dc:date>
        <dc:creator>
          <cc:Agent>
            <dc:title>Franziska Sponsel, Johannes Hechler</dc:title>
          </cc:Agent>
        </dc:creator>
        <dc:rights>
          <cc:Agent>
            <dc:title>Franziska Sponsel, Johannes Hechler</dc:title>
          </cc:Agent>
        </dc:rights>
        <dc:publisher>
          <cc:Agent>
            <dc:title>RRZE</dc:title>
          </cc:Agent>
        </dc:publisher>
        <dc:contributor>
          <cc:Agent>
            <dc:title>Ute Weber, Hendrik Eggers</dc:title>
          </cc:Agent>
        </dc:contributor>
      </cc:Work>
    </rdf:RDF>
  </metadata>
  <g
     inkscape:label="Ebene 1"
     inkscape:groupmode="layer"
     id="layer1">
    <g
       id="g4221">
      <path
         id="path4290"
         d="m 417.27298,322.3622 a 99.999999,99.439516 0 0 0 -100,99.43952 99.999999,99.439516 0 0 0 27.76909,68.61145 l 13.78,-11.72301 a 81.818181,81.359604 0 0 1 -23.36727,-56.88844 81.818181,81.359604 0 0 1 81.81818,-81.35961 81.818181,81.359604 0 0 1 81.81818,81.35961 81.818181,81.359604 0 0 1 -23.01091,56.42921 l 13.74182,11.93455 a 99.999999,99.439516 0 0 0 27.45091,-68.36376 99.999999,99.439516 0 0 0 -100,-99.43952 z m 0,36.15983 a 63.634503,63.277842 0 0 0 -63.63637,63.27969 63.634503,63.277842 0 0 0 19.03455,45.0931 l 13.88364,-11.82968 a 45.453618,45.198858 0 0 1 -14.73637,-33.26342 45.453618,45.198858 0 0 1 45.45455,-45.19978 45.453618,45.198858 0 0 1 45.45454,45.19978 45.453618,45.198858 0 0 1 -13.99091,32.59265 l 13.70728,11.93636 a 63.634503,63.277842 0 0 0 18.46545,-44.52901 63.634503,63.277842 0 0 0 -63.63636,-63.27969 z"
         style="color:#000000;clip-rule:nonzero;display:inline;overflow:visible;visibility:visible;opacity:0.98400005;isolation:auto;mix-blend-mode:normal;color-interpolation:sRGB;color-interpolation-filters:linearRGB;solid-color:#000000;solid-opacity:1;fill:#99b000;fill-opacity:1;fill-rule:nonzero;stroke:none;stroke-width:2;stroke-linecap:round;stroke-linejoin:round;stroke-miterlimit:4;stroke-dasharray:none;stroke-dashoffset:0;stroke-opacity:1;color-rendering:auto;image-rendering:auto;shape-rendering:auto;text-rendering:auto;enable-background:accumulate"
         inkscape:connector-curvature="0" />
      <path
         id="path4252"
         d="M 407.79492 448.52344 L 407.79492 528.83203 C 404.80946 523.69371 398.28911 525.09712 394.6582 522.68164 C 391.06911 520.22277 386.36555 520.96484 381.68555 520.96484 C 373.33464 520.96484 367.04722 523.32063 361.68359 531.98633 C 356.31813 540.5996 353.63672 551.70722 353.63672 565.31055 C 353.63672 578.91568 356.31813 590.05109 361.68359 598.7168 C 367.04722 607.33187 373.903 611.63867 382.25391 611.63867 C 386.97391 611.63867 391.12979 610.43111 394.7207 608.01562 C 398.30979 605.59834 401.59644 601.79159 404.58008 596.5918 L 404.58008 609.35547 L 426.36328 607.35742 L 426.36328 448.92188 L 407.79492 448.52344 z M 300.30469 521.24219 C 288.60651 521.24219 279.40865 525.26303 272.71289 533.30859 C 266.05713 541.35416 262.72852 552.39934 262.72852 566.44141 C 262.72852 580.74141 266.11756 591.86353 272.89453 599.80664 C 279.7115 607.69913 289.25185 611.64453 301.51367 611.64453 C 306.6361 611.64453 311.75844 611.00092 316.88086 609.71484 C 322.00329 608.4854 327.12563 606.64246 332.24805 604.18359 L 332.24805 582.96484 C 327.20684 586.45064 322.28633 589.06299 317.48633 590.80469 C 312.72633 592.49576 308.06735 593.3418 303.50977 593.3418 C 297.86249 593.3418 293.46577 591.72712 290.32031 588.49805 C 287.17001 585.27018 285.33371 580.4269 284.8125 573.96875 L 335.45508 573.96875 L 335.45508 566.13281 C 335.45508 552.50057 332.24732 541.61091 325.83398 533.46289 C 319.46065 525.31488 310.95196 521.24219 300.30469 521.24219 z M 444.54297 521.24219 L 444.54297 576.05469 L 444.69141 576.05273 C 444.69141 588.17833 446.86057 597.41924 451.20117 603.77734 C 455.58541 610.13304 461.94549 613.31055 470.28125 613.31055 C 474.96488 613.31055 479.24149 612.08341 483.10938 609.62695 C 487.02089 607.11625 490.71727 603.2418 494.19727 598.00586 L 494.19727 610.99023 L 517.27344 610.99023 L 517.27344 521.24219 L 494.19727 521.24219 L 494.19727 565.55469 C 494.19727 573.72681 492.82061 580.11037 490.07031 584.70508 C 487.32001 589.29858 483.5399 591.5957 478.72656 591.5957 C 476.75081 591.5957 474.98733 591.08865 473.43945 590.07617 C 471.93521 589.06129 470.71109 587.61872 469.76562 585.74805 C 469.03836 584.30647 468.52374 582.01056 468.2207 578.85742 C 467.90555 575.65246 467.74805 570.4439 467.74805 563.23242 L 467.74805 548.56836 L 467.74805 530.21875 L 467.74805 521.24219 L 444.54297 521.24219 z M 390.30273 539.4707 C 394.94091 539.4707 398.47062 541.67654 400.89062 546.08984 C 403.34336 550.50315 404.58008 556.91076 404.58008 565.3125 C 404.58008 573.71785 403.35062 580.12561 400.89062 584.53711 C 398.47063 588.95041 394.94091 591.1582 390.30273 591.1582 C 385.70455 591.1582 382.17471 588.95041 379.71289 584.53711 C 377.2838 580.12561 376.08398 573.71785 376.08398 565.3125 C 376.08398 556.91076 377.29289 550.50315 379.71289 546.08984 C 382.17471 541.67654 385.70455 539.4707 390.30273 539.4707 z M 300.18164 539.53125 C 304.05437 539.53125 307.18115 541.14518 309.56055 544.37305 C 311.97994 547.55149 313.18945 551.75491 313.18945 556.98242 L 285.05664 556.98242 C 285.70149 551.3439 287.33521 547.03679 289.95703 544.06445 C 292.57884 541.04149 295.98649 539.53125 300.18164 539.53125 z M 407.83008 629.20898 C 402.86523 629.20898 397.89993 629.59382 392.9375 630.36523 C 387.97265 631.08722 383.03059 632.1705 378.10938 633.61328 L 378.10938 654.71875 C 381.74695 652.34305 385.68282 650.56403 389.91797 649.38281 C 394.15555 648.20159 398.7343 647.61133 403.6543 647.61133 C 409.73187 647.61133 414.20439 648.64202 417.07227 650.70312 C 419.93893 652.71241 421.37305 655.9077 421.37305 660.28906 L 421.37305 662.45312 L 407.83008 662.45312 C 395.41917 662.45313 386.30377 664.82269 380.48438 669.56445 C 374.7074 674.30501 371.81836 681.75183 371.81836 691.9043 C 371.81836 700.2536 374.12939 707.05607 378.75 712.3125 C 383.41667 717.51711 389.47191 720.12109 396.91797 720.12109 C 402.43676 720.12109 407.12248 718.93534 410.97461 716.56445 C 414.82673 714.14295 418.29305 710.3033 421.37305 705.04688 L 421.37305 717.87891 L 444.54492 717.87891 L 444.54492 668.48242 L 444.54492 668.47852 C 444.54492 654.61604 441.65783 644.61903 435.88086 638.48633 C 430.14631 632.30179 420.79614 629.20898 407.83008 629.20898 z M 256.09961 629.7207 C 250.63658 629.7207 245.93919 631.06079 242.00586 633.74023 C 238.11616 636.36785 234.66298 640.57127 231.64844 646.34961 L 231.64844 631.84961 L 208.18164 631.84961 L 208.18164 720.11719 L 231.64844 720.11719 L 231.64844 679.45117 C 231.64844 670.78245 233.26606 664.13581 236.5 659.50977 C 239.77758 654.8343 244.43185 652.49609 250.46094 652.49609 C 252.5167 652.49609 254.5489 652.78473 256.55859 653.36328 C 258.58976 653.88194 260.62194 654.71369 262.6543 655.85156 L 262.6543 630.39062 C 260.89793 630.07724 259.56534 629.91992 258.65625 629.91992 C 257.73988 629.78734 256.88749 629.7207 256.09961 629.7207 z M 262.6543 655.85156 L 262.6543 655.92578 L 262.7207 655.88672 C 262.69853 655.87423 262.67647 655.86398 262.6543 655.85156 z M 505.05664 629.7207 C 500.90634 629.7207 497.09605 630.98237 493.62695 633.50391 C 490.20029 636.02666 487.1567 639.78218 484.49609 644.77344 L 484.49609 631.84961 L 462.72656 631.84961 L 462.72656 720.12109 L 484.49609 720.12109 L 484.49609 676.69336 C 484.49609 668.4429 485.62658 662.11193 487.88477 657.69922 C 490.14173 653.23469 493.34532 651.00195 497.49805 651.00195 C 500.8035 651.00195 503.10166 652.41973 504.39258 655.25586 C 505.68106 658.04017 506.32617 664.31975 506.32617 674.09375 L 506.32617 720.12109 L 528.09766 720.12109 L 528.09766 676.77344 C 528.17887 668.41931 529.32796 662.035 531.54492 657.62109 C 533.80068 653.20839 536.98493 651.00195 541.09766 651.00195 C 544.2419 651.00195 546.52147 652.41973 547.93359 655.25586 C 549.3445 658.04017 550.04883 662.55925 550.04883 668.8125 L 550.04883 671.9668 L 550.04883 674.09375 L 550.04883 720.12109 L 571.81836 720.12109 L 571.81836 666.37109 C 571.81836 654.44317 569.78245 645.35284 565.71094 639.09961 C 561.63942 632.84758 555.7142 629.7207 547.93359 629.7207 C 543.41723 629.7207 539.2637 631.16552 535.47461 634.05469 C 531.72431 636.89323 528.47889 641.04406 525.73828 646.50781 L 525.61719 646.50781 C 523.76264 641.20075 521.041 637.07697 517.45312 634.13477 C 513.86646 631.19257 509.73422 629.7207 505.05664 629.7207 z M 317.35938 631.45508 C 305.93755 631.45508 296.9992 635.47413 290.54102 643.51367 C 284.12041 651.55321 280.91016 662.68609 280.91016 676.91016 C 280.91016 691.13302 284.12041 702.26395 290.54102 710.30469 C 296.9992 718.34301 305.93755 722.36133 317.35938 722.36133 C 328.74362 722.36133 337.62646 718.34301 344.00586 710.30469 C 350.42646 702.26395 353.63672 691.13302 353.63672 676.91016 C 353.63672 662.68609 350.42646 651.55321 344.00586 643.51367 C 337.62646 635.47413 328.74361 631.45508 317.35938 631.45508 z M 317.35938 651.24219 C 321.96786 651.24219 325.49508 653.45863 327.9375 657.89062 C 330.37993 662.27198 331.59961 668.61268 331.59961 676.91016 C 331.59961 685.20643 330.37993 691.56997 327.9375 696.00195 C 325.49508 700.38332 321.96786 702.57422 317.35938 702.57422 C 312.67332 702.57422 309.09059 700.38332 306.60938 696.00195 C 304.16574 691.56997 302.94336 685.20643 302.94336 676.91016 C 302.94336 668.61268 304.16574 662.27199 306.60938 657.89062 C 309.09059 653.45863 312.67332 651.24219 317.35938 651.24219 z M 409.43555 678.91797 L 421.37305 678.91797 L 421.37305 682.08789 C 421.37305 687.70592 419.89609 692.39563 416.94336 696.15625 C 413.99063 699.86746 410.35442 701.72266 406.0332 701.72266 C 402.56654 701.72266 399.84935 700.74186 397.88086 698.7832 C 395.9548 696.77392 394.99023 694.01756 394.99023 690.51367 C 394.99023 686.70001 396.18957 683.81412 398.58594 681.85547 C 401.02472 679.89681 404.64161 678.91797 409.43555 678.91797 z "
         style="font-style:normal;font-variant:normal;font-weight:bold;font-stretch:normal;font-size:medium;line-height:125%;font-family:sans-serif;-inkscape-font-specification:'sans-serif Bold';letter-spacing:0px;word-spacing:0px;fill:url(#linearGradient4219);fill-opacity:1;stroke:none;stroke-width:1px;stroke-linecap:butt;stroke-linejoin:miter;stroke-opacity:1" />
      <ellipse
         ry="9.0386181"
         rx="9.0888128"
         cy="421.80515"
         cx="417.27277"
         id="path4295"
         style="color:#000000;clip-rule:nonzero;display:inline;overflow:visible;visibility:visible;opacity:0.98400005;isolation:auto;mix-blend-mode:normal;color-interpolation:sRGB;color-interpolation-filters:linearRGB;solid-color:#000000;solid-opacity:1;fill:#99b000;fill-opacity:1;fill-rule:nonzero;stroke:none;stroke-width:2;stroke-linecap:round;stroke-linejoin:round;stroke-miterlimit:4;stroke-dasharray:none;stroke-dashoffset:0;stroke-opacity:1;color-rendering:auto;image-rendering:auto;shape-rendering:auto;text-rendering:auto;enable-background:accumulate" />
      <rect
         y="322.36563"
         x="190.00005"
         height="397.75806"
         width="400"
         id="rect4301"
         style="color:#000000;clip-rule:nonzero;display:inline;overflow:visible;visibility:visible;opacity:1;isolation:auto;mix-blend-mode:normal;color-interpolation:sRGB;color-interpolation-filters:linearRGB;solid-color:#000000;solid-opacity:1;fill:none;fill-opacity:1;fill-rule:nonzero;stroke:none;stroke-width:2;stroke-linecap:round;stroke-linejoin:round;stroke-miterlimit:4;stroke-dasharray:none;stroke-dashoffset:0;stroke-opacity:1;color-rendering:auto;image-rendering:auto;shape-rendering:auto;text-rendering:auto;enable-background:accumulate" />
    </g>
  </g>
</svg>
