<?xml version="1.0" encoding="UTF-8" standalone="no"?>
<!-- Created with Inkscape (http://www.inkscape.org/) -->

<svg
   xmlns:dc="http://purl.org/dc/elements/1.1/"
   xmlns:cc="http://creativecommons.org/ns#"
   xmlns:rdf="http://www.w3.org/1999/02/22-rdf-syntax-ns#"
   xmlns:svg="http://www.w3.org/2000/svg"
   xmlns="http://www.w3.org/2000/svg"
   xmlns:xlink="http://www.w3.org/1999/xlink"
   xmlns:sodipodi="http://sodipodi.sourceforge.net/DTD/sodipodi-0.dtd"
   xmlns:inkscape="http://www.inkscape.org/namespaces/inkscape"
   width="210mm"
   height="297mm"
   viewBox="0 0 744.09448819 1052.3622047"
   id="svg2"
   version="1.1"
   inkscape:version="0.91 r13725"
   inkscape:export-xdpi="4.9499998"
   inkscape:export-ydpi="4.9499998"
   sodipodi:docname="FAU-mail.svg"
   inkscape:export-filename="C:\Users\johannes\Documents\Arbeit\RRZE\github3\bicons\22x22\logos\FAU-mail.png">
  <defs
     id="defs4">
    <linearGradient
       id="linearGradient2224">
      <stop
         id="stop2226"
         offset="0"
         style="stop-color:#7c7c7c;stop-opacity:1;" />
      <stop
         id="stop2228"
         offset="1"
         style="stop-color:#b8b8b8;stop-opacity:1;" />
    </linearGradient>
    <linearGradient
       id="linearGradient15218">
      <stop
         id="stop15220"
         offset="0"
         style="stop-color:#eeeeef;stop-opacity:1;" />
      <stop
         id="stop2736"
         offset="0.59928656"
         style="stop-color:#d3d7cf;stop-opacity:1;" />
      <stop
         id="stop2738"
         offset="0.82758623"
         style="stop-color:#ffffff;stop-opacity:1;" />
      <stop
         id="stop15222"
         offset="1"
         style="stop-color:#d3d7cf;stop-opacity:1;" />
    </linearGradient>
    <pattern
       y="0"
       x="0"
       height="6"
       width="6"
       patternUnits="userSpaceOnUse"
       id="EMFhbasepattern" />
    <pattern
       y="0"
       x="0"
       height="6"
       width="6"
       patternUnits="userSpaceOnUse"
       id="EMFhbasepattern-5" />
    <linearGradient
       id="linearGradient4321"
       inkscape:collect="always">
      <stop
         id="stop4323"
         offset="0"
         style="stop-color:#4e505d;stop-opacity:1;" />
      <stop
         id="stop4325"
         offset="1"
         style="stop-color:#7a8597;stop-opacity:1" />
    </linearGradient>
    <linearGradient
       gradientTransform="matrix(1.9864516,0,0,1.9864516,-581.5982,-808.266)"
       inkscape:collect="always"
       xlink:href="#linearGradient4321"
       id="linearGradient4225"
       x1="446.92957"
       y1="707.06952"
       x2="552.96887"
       y2="592.8045"
       gradientUnits="userSpaceOnUse" />
  </defs>
  <sodipodi:namedview
     id="base"
     pagecolor="#ffffff"
     bordercolor="#666666"
     borderopacity="1.0"
     inkscape:pageopacity="0.0"
     inkscape:pageshadow="2"
     inkscape:zoom="1"
     inkscape:cx="329.95009"
     inkscape:cy="406.46191"
     inkscape:document-units="px"
     inkscape:current-layer="layer1"
     showgrid="false"
     showguides="true"
     inkscape:guide-bbox="true"
     inkscape:window-width="1366"
     inkscape:window-height="721"
     inkscape:window-x="-4"
     inkscape:window-y="-4"
     inkscape:window-maximized="1"
     inkscape:snap-bbox="true"
     inkscape:bbox-paths="true"
     inkscape:bbox-nodes="true"
     inkscape:snap-nodes="false">
    <sodipodi:guide
       position="560,730.00002"
       orientation="0,1"
       id="guide3338" />
    <sodipodi:guide
       position="560,330.00001"
       orientation="0,1"
       id="guide3340" />
    <sodipodi:guide
       position="190,475.00001"
       orientation="1,0"
       id="guide3344" />
    <sodipodi:guide
       position="590,451.00001"
       orientation="1,0"
       id="guide3346" />
    <inkscape:grid
       type="xygrid"
       id="grid3440" />
  </sodipodi:namedview>
  <metadata
     id="metadata7">
    <rdf:RDF>
      <cc:Work
         rdf:about="">
        <dc:format>image/svg+xml</dc:format>
        <dc:type
           rdf:resource="http://purl.org/dc/dcmitype/StillImage" />
        <dc:title>FAU mail</dc:title>
        <dc:date>June 2015</dc:date>
        <dc:creator>
          <cc:Agent>
            <dc:title>Johannes Hechler</dc:title>
          </cc:Agent>
        </dc:creator>
        <dc:rights>
          <cc:Agent>
            <dc:title>Johannes Hechler</dc:title>
          </cc:Agent>
        </dc:rights>
        <dc:publisher>
          <cc:Agent>
            <dc:title>RRZE</dc:title>
          </cc:Agent>
        </dc:publisher>
        <dc:contributor>
          <cc:Agent>
            <dc:title>Ute Weber, Hendrik Eggers</dc:title>
          </cc:Agent>
        </dc:contributor>
      </cc:Work>
    </rdf:RDF>
  </metadata>
  <g
     inkscape:label="Ebene 1"
     inkscape:groupmode="layer"
     id="layer1">
    <g
       id="g4174">
      <rect
         inkscape:export-ydpi="4.9499998"
         inkscape:export-xdpi="4.9499998"
         y="322.36221"
         x="190"
         height="400"
         width="400"
         id="rect3336"
         style="fill:none;fill-rule:evenodd;stroke:none;stroke-width:1px;stroke-linecap:butt;stroke-linejoin:miter;stroke-opacity:1" />
      <path
         sodipodi:nodetypes="scccccscccccccccccccccccccccccccccccc"
         inkscape:connector-curvature="0"
         id="path4169"
         d="m 389.56298,340.54191 c -61.51172,0 -123.0243,4.55712 -182.25781,13.66992 l 0,45.31445 183.03906,104.92774 181.47657,-104.92774 0,-45.31445 c -59.2335,-9.1128 -120.74611,-13.66992 -182.25782,-13.66992 z m -182.25781,78.32422 0,121.91992 c 0.30167,-0.0219 0.60385,-0.0363 0.90625,-0.043 l 45.56836,0.084 66.16797,-53.38867 z m 364.51563,0 -111.46875,68.45117 67.46484,55.13281 c 2.38901,-1.12181 4.99547,-1.70457 7.63476,-1.70703 l 36.36915,0.0684 z m -130.13672,75.24414 -51.33985,35.68359 -51.36718,-35.44726 0,0.11132 -57.7129,46.41992 45.93555,0.0859 c 3.18774,0.0145 6.31447,0.8752 9.06055,2.49414 2.75941,-1.62833 5.9034,-2.49068 9.10742,-2.49804 l 39.6543,0 c 7.60492,7.5e-4 14.38898,4.7804 16.94922,11.9414 l 24.54687,5.8418 c 9.9e-4,-9.94071 8.05929,-17.99901 18,-18 l 36.35938,0 c 9.94071,9.9e-4 17.99901,8.05929 18,18 l 18.54101,0 c 0.007,-0.82238 0.0703,-1.64331 0.18946,-2.45703 l -75.92383,-61.85547 z"
         style="fill:url(#linearGradient4225);fill-opacity:1;fill-rule:evenodd;stroke:none;stroke-width:1px;stroke-linecap:butt;stroke-linejoin:miter;stroke-opacity:1" />
      <rect
         y="322.36221"
         x="190"
         height="400"
         width="400"
         id="rect4160"
         style="opacity:1;fill:none;fill-opacity:1;stroke:none;stroke-width:23;stroke-linecap:butt;stroke-linejoin:round;stroke-miterlimit:4;stroke-dasharray:none;stroke-opacity:1" />
      <g
         id="g4170"
         transform="translate(-2.0904269,217.35565)">
        <path
           inkscape:connector-curvature="0"
           style="fill:#4e505d;stroke:none"
           d="m 208.53166,340.52525 0,164.36722 39.78131,0 0,-66.84979 64.76624,0 -23.3907,66.96387 39.66126,0 11.58678,-34.82458 51.32042,0 11.03065,34.77595 40.82118,0 -58.49,-164.21388 -39.70893,0 -23.17531,66.33556 -74.36509,0 0,-36.81797 79.3137,0 0,-29.51384 -119.15151,-0.22254 z m 326.62239,0.0692 0,114.40144 c -6.26507,26.37451 -46.08054,29.52085 -54.62362,-1.16873 l 0,-113.08498 -37.24257,0.14586 0,114.983 c 4.39266,27.16052 16.09638,40.35473 37.24257,48.94665 l 55.17621,0 c 28.49224,-13.37478 32.92669,-29.31042 36.96715,-45.73215 l 0,-118.49109 -37.51974,0 z m -168.84771,40.17459 17.66351,63.62222 -35.92553,-0.073 18.26202,-63.54929 z"
           id="path3778" />
        <path
           inkscape:connector-curvature="0"
           style="color:#252525;clip-rule:nonzero;display:inline;overflow:visible;visibility:visible;opacity:1;isolation:auto;mix-blend-mode:normal;color-interpolation:sRGB;color-interpolation-filters:linearRGB;solid-color:#252525;solid-opacity:1;fill:#ffffff;fill-opacity:1;fill-rule:nonzero;stroke:none;stroke-width:10;stroke-linecap:butt;stroke-linejoin:bevel;stroke-miterlimit:4;stroke-dasharray:none;stroke-dashoffset:60.95968628;stroke-opacity:1;color-rendering:auto;image-rendering:auto;shape-rendering:auto;text-rendering:auto;enable-background:accumulate"
           d="m 208.53166,352.21448 0,6.1784 119.15151,0 0,-6.1784 -119.15151,0 z m 133.3706,0 -2.15741,6.1784 52.16079,0 -2.20154,-6.1784 -47.80184,0 z m 101.3856,0 0,6.1784 37.24257,0 0,-6.1784 -37.24257,0 z m 91.86619,0 0,6.1784 37.51974,0 0,-6.1784 -37.51974,0 z m -326.62239,18.63619 0,6.17841 39.83781,0 0,-6.17841 -39.83781,0 z m 126.85954,0 -2.15739,6.17841 65.30823,0 -2.19978,-6.17841 -60.95106,0 z m 107.89666,0 0,6.17841 37.24257,0 0,-6.17841 -37.24257,0 z m 91.86619,0 0,6.17841 37.51974,0 0,-6.17841 -37.51974,0 z m -326.62239,14.72793 0,6.17841 39.83781,0 0,-6.17841 -39.83781,0 z m 121.71497,0 -2.15917,6.17841 35.06046,0 1.77606,-6.17841 -34.67735,0 z m 37.3944,0 1.71604,6.17841 34.43194,0 -2.20153,-6.17841 -33.94645,0 z m 75.64683,0 0,6.17841 37.24257,0 0,-6.17841 -37.24257,0 z m 91.86619,0 0,6.17841 37.51974,0 0,-6.17841 -37.51974,0 z m -326.62239,15.07763 0,6.17841 39.83781,0 0,-6.17841 -39.83781,0 z m 116.44681,0 -2.15917,6.17841 35.99615,0 1.77606,-6.17841 -35.61304,0 z m 46.84849,0 1.71604,6.17841 35.61657,0 -2.20154,-6.17841 -35.13107,0 z m 71.4609,0 0,6.17841 37.24257,0 0,-6.17841 -37.24257,0 z m 91.86619,0 0,6.17841 37.51974,0 0,-6.17841 -37.51974,0 z m -326.62239,19.10369 0,6.18026 144.79318,0 1.77606,-6.18026 -146.56924,0 z m 168.60054,0 1.71426,6.18026 37.11723,0 -2.20154,-6.18026 -36.62995,0 z m 66.15566,0 0,6.18026 37.24257,0 0,-6.18026 -37.24257,0 z m 91.86619,0 0,6.18026 37.51974,0 0,-6.18026 -37.51974,0 z m -326.62239,17.97608 0,6.1784 39.78131,0 0,-5.87172 64.76624,0 -2.05148,5.87172 37.13312,0 1.77429,-6.1784 -141.40348,0 z m 173.58975,0 1.71604,6.1784 38.5296,0 -2.20154,-6.1784 -38.0441,0 z m 61.16645,0 0,6.1784 37.24257,0 0,-6.1784 -37.24257,0 z m 91.86619,0 0,6.1784 37.51974,0 0,-6.1784 -37.51974,0 z m -326.62239,15.16551 0,6.17841 39.78131,0 0,-6.17841 -39.78131,0 z m 99.35706,0 -2.1574,6.17841 122.0363,0 -2.19978,-6.17841 -117.67912,0 z m 135.39914,0 0,2.96952 c 0.17706,1.09479 0.36928,2.15887 0.57024,3.20889 l 38.57727,0 c -0.74164,-1.62631 -1.38243,-3.37575 -1.90494,-5.25277 l 0,-0.92564 -37.24257,0 z m 91.86619,0 0,2.09438 c -0.34007,1.43158 -0.78436,2.79101 -1.31175,4.08403 l 38.83149,0 0,-6.17841 -37.51974,0 z m -326.62239,17.13273 0,6.17841 39.78131,0 0,-6.17841 -39.78131,0 z m 93.37213,0 -2.15741,6.17841 39.18283,0 2.00734,-6.03068 51.32042,0 1.91201,6.03068 39.70186,0 -2.20154,-6.17841 -129.76551,0 z m 144.74022,0 c 0.71489,2.17459 1.50696,4.22967 2.37279,6.17841 l 118.17874,0 c 0.93766,-2.04001 1.71963,-4.10233 2.41693,-6.17841 l -44.16321,0 c -9.76652,7.44941 -24.28283,7.9503 -34.50256,0 l -44.30269,0 z m -238.11235,16.56986 0,6.17841 39.78131,0 0,-6.17841 -39.78131,0 z m 87.58492,0 -2.1574,6.17841 39.45823,0 2.05501,-6.17841 -39.35584,0 z m 101.34852,0 1.96144,6.17841 40.34627,0 -2.20154,-6.17841 -40.10617,0 z m 57.62845,0 c 1.69617,2.23719 3.55495,4.29195 5.59124,6.17841 l 94.08892,0 c 2.30114,-2.02325 4.26943,-4.0857 5.97434,-6.17841 l -105.6545,0 z"
           id="rect4369" />
      </g>
    </g>
  </g>
</svg>
