<?xml version="1.0" encoding="utf-8"?>
<!-- Generator: Adobe Illustrator 16.0.0, SVG Export Plug-In . SVG Version: 6.00 Build 0)  -->
<!DOCTYPE svg PUBLIC "-//W3C//DTD SVG 1.1//EN" "http://www.w3.org/Graphics/SVG/1.1/DTD/svg11.dtd">
<svg version="1.1" id="Ebene_1" xmlns="http://www.w3.org/2000/svg" xmlns:xlink="http://www.w3.org/1999/xlink" x="0px" y="0px"
	 width="22px" height="22px" viewBox="0 0 22 22" enable-background="new 0 0 22 22" xml:space="preserve">
<g>
	<path fill="#AEB900" d="M-3.903,2.156v18h-18v-18H-3.903 M-1.903,0.156h-22v22h22V0.156L-1.903,0.156z"/>
</g>
<g>
	<g>
		<path fill="#545B6D" d="M2.95,9.093h4.723L5.653,2.928C5.608,2.782,5.473,2.675,5.312,2.675c-0.161,0-0.297,0.107-0.343,0.252
			L2.95,9.093z"/>
		<path fill="#545B6D" d="M14.354,9.088h4.689l-2.02-6.164c-0.045-0.146-0.182-0.253-0.342-0.253c-0.162,0-0.297,0.107-0.309,0.253
			L14.354,9.088z"/>
		<polygon fill="#545B6D" points="7.672,9.083 14.319,9.083 10.998,19.316 		"/>
		<polygon fill="#697288" points="2.95,9.083 10.998,19.316 7.672,9.083 		"/>
		<path fill="#7A8597" d="M2.952,9.084l8.046,10.232L2.341,13.05c0,0-0.542-0.296-0.278-1.119L2.952,9.084z"/>
		<g>
			<polygon fill="#697288" points="19.044,9.083 10.998,19.316 14.319,9.083 			"/>
			<path fill="#7A8597" d="M19.042,9.084l-8.044,10.232l8.653-6.269c0,0,0.545-0.295,0.279-1.118L19.042,9.084z"/>
		</g>
	</g>
	<g>
		<path fill="#545B6D" d="M2.962,9.104h4.721L5.665,2.938C5.62,2.792,5.484,2.687,5.323,2.687S5.025,2.792,4.98,2.938L2.962,9.104z"
			/>
		<path fill="#545B6D" d="M14.333,9.094h4.721l-2.018-6.165c-0.045-0.146-0.182-0.252-0.342-0.252c-0.162,0-0.299,0.106-0.344,0.252
			L14.333,9.094z"/>
		<polygon fill="#545B6D" points="7.683,9.094 14.333,9.094 11.008,19.328 		"/>
		<polygon fill="#697288" points="2.962,9.094 11.008,19.328 7.683,9.094 		"/>
		<path fill="#7A8597" d="M2.963,9.094l8.045,10.235l-8.655-6.269c0,0-0.543-0.296-0.278-1.119L2.963,9.094z"/>
		<g>
			<polygon fill="#697288" points="19.054,9.094 11.008,19.328 14.333,9.094 			"/>
			<path fill="#7A8597" d="M19.054,9.094l-8.045,10.234l8.655-6.268c0,0,0.543-0.296,0.279-1.119L19.054,9.094z"/>
		</g>
	</g>
</g>
</svg>
