<?xml version="1.0" encoding="UTF-8" standalone="no"?>
<!-- Created with Inkscape (http://www.inkscape.org/) -->

<svg
   xmlns:dc="http://purl.org/dc/elements/1.1/"
   xmlns:cc="http://creativecommons.org/ns#"
   xmlns:rdf="http://www.w3.org/1999/02/22-rdf-syntax-ns#"
   xmlns:svg="http://www.w3.org/2000/svg"
   xmlns="http://www.w3.org/2000/svg"
   xmlns:xlink="http://www.w3.org/1999/xlink"
   xmlns:sodipodi="http://sodipodi.sourceforge.net/DTD/sodipodi-0.dtd"
   xmlns:inkscape="http://www.inkscape.org/namespaces/inkscape"
   width="210mm"
   height="297mm"
   viewBox="0 0 744.09448819 1052.3622047"
   id="svg2"
   version="1.1"
   inkscape:version="0.91 r13725"
   inkscape:export-xdpi="4.9499817"
   inkscape:export-ydpi="4.9499817"
   sodipodi:docname="otrs.svg"
   inkscape:export-filename="C:\Users\johannes\Documents\Arbeit\RRZE\github3\bicons\22x22\logos\otrs.png">
  <title
     id="title4157">otrs</title>
  <defs
     id="defs4">
    <linearGradient
       id="linearGradient2224">
      <stop
         id="stop2226"
         offset="0"
         style="stop-color:#7c7c7c;stop-opacity:1;" />
      <stop
         id="stop2228"
         offset="1"
         style="stop-color:#b8b8b8;stop-opacity:1;" />
    </linearGradient>
    <linearGradient
       id="linearGradient15218">
      <stop
         id="stop15220"
         offset="0"
         style="stop-color:#eeeeef;stop-opacity:1;" />
      <stop
         id="stop2736"
         offset="0.59928656"
         style="stop-color:#d3d7cf;stop-opacity:1;" />
      <stop
         id="stop2738"
         offset="0.82758623"
         style="stop-color:#ffffff;stop-opacity:1;" />
      <stop
         id="stop15222"
         offset="1"
         style="stop-color:#d3d7cf;stop-opacity:1;" />
    </linearGradient>
    <pattern
       y="0"
       x="0"
       height="6"
       width="6"
       patternUnits="userSpaceOnUse"
       id="EMFhbasepattern" />
    <pattern
       y="0"
       x="0"
       height="6"
       width="6"
       patternUnits="userSpaceOnUse"
       id="EMFhbasepattern-5" />
    <linearGradient
       gradientTransform="translate(-73.000735,-298.99991)"
       inkscape:collect="always"
       xlink:href="#linearGradient4321"
       id="linearGradient5863"
       x1="29.000006"
       y1="978.34052"
       x2="369.00146"
       y2="732.34052"
       gradientUnits="userSpaceOnUse" />
    <linearGradient
       id="linearGradient4321"
       inkscape:collect="always">
      <stop
         id="stop4323"
         offset="0"
         style="stop-color:#4e505d;stop-opacity:1;" />
      <stop
         id="stop4325"
         offset="1"
         style="stop-color:#7a8597;stop-opacity:1" />
    </linearGradient>
  </defs>
  <sodipodi:namedview
     id="base"
     pagecolor="#ffffff"
     bordercolor="#666666"
     borderopacity="1.0"
     inkscape:pageopacity="0.0"
     inkscape:pageshadow="2"
     inkscape:zoom="1"
     inkscape:cx="429.94687"
     inkscape:cy="496.93424"
     inkscape:document-units="px"
     inkscape:current-layer="layer1"
     showgrid="false"
     showguides="true"
     inkscape:guide-bbox="true"
     inkscape:window-width="1366"
     inkscape:window-height="721"
     inkscape:window-x="-4"
     inkscape:window-y="-4"
     inkscape:window-maximized="1"
     inkscape:snap-bbox="true"
     inkscape:bbox-paths="true"
     inkscape:bbox-nodes="true"
     inkscape:snap-nodes="false">
    <sodipodi:guide
       position="560,730.00002"
       orientation="0,1"
       id="guide3338" />
    <sodipodi:guide
       position="560,330.00001"
       orientation="0,1"
       id="guide3340" />
    <sodipodi:guide
       position="190,475.00001"
       orientation="1,0"
       id="guide3344" />
    <sodipodi:guide
       position="590,451.00001"
       orientation="1,0"
       id="guide3346" />
    <inkscape:grid
       type="xygrid"
       id="grid3440" />
    <sodipodi:guide
       position="-111.01577,704.98548"
       orientation="0,1"
       id="guide4151" />
    <sodipodi:guide
       position="54.25,355.00001"
       orientation="0,1"
       id="guide4153" />
    <sodipodi:guide
       position="215,442.00001"
       orientation="1,0"
       id="guide4155" />
    <sodipodi:guide
       position="564.97832,467.39759"
       orientation="1,0"
       id="guide4157" />
  </sodipodi:namedview>
  <metadata
     id="metadata7">
    <rdf:RDF>
      <cc:Work
         rdf:about="">
        <dc:format>image/svg+xml</dc:format>
        <dc:type
           rdf:resource="http://purl.org/dc/dcmitype/StillImage" />
        <dc:title>otrs</dc:title>
        <dc:date>June 2015</dc:date>
        <dc:creator>
          <cc:Agent>
            <dc:title>Franziska Sponsel, Johannes Hechler</dc:title>
          </cc:Agent>
        </dc:creator>
        <dc:rights>
          <cc:Agent>
            <dc:title>Franziska Sponsel, Johannes Hechler</dc:title>
          </cc:Agent>
        </dc:rights>
        <dc:publisher>
          <cc:Agent>
            <dc:title>RRZE</dc:title>
          </cc:Agent>
        </dc:publisher>
        <dc:contributor>
          <cc:Agent>
            <dc:title>Ute Weber, Hendrik Eggers</dc:title>
          </cc:Agent>
        </dc:contributor>
      </cc:Work>
    </rdf:RDF>
  </metadata>
  <g
     inkscape:label="Ebene 1"
     inkscape:groupmode="layer"
     id="layer1">
    <g
       id="g4182"
       transform="translate(262.99926,-31.00001)">
      <rect
         ry="18"
         y="462.43912"
         x="-73.000732"
         height="181.80299"
         width="400.00146"
         id="rect5808"
         style="color:#000000;clip-rule:nonzero;display:inline;overflow:visible;visibility:visible;opacity:1;isolation:auto;mix-blend-mode:normal;color-interpolation:sRGB;color-interpolation-filters:linearRGB;solid-color:#000000;solid-opacity:1;fill:url(#linearGradient5863);fill-opacity:1;fill-rule:nonzero;stroke:none;stroke-width:23;stroke-linecap:butt;stroke-linejoin:round;stroke-miterlimit:4;stroke-dasharray:none;stroke-dashoffset:0;stroke-opacity:1;color-rendering:auto;image-rendering:auto;shape-rendering:auto;text-rendering:auto;enable-background:accumulate" />
      <path
         d="m -54.820737,554.15707 q 0,-21.47564 4.282912,-36.0484 3.196202,-10.73782 8.693671,-19.27056 5.561393,-8.53272 12.14557,-12.65528 8.757595,-5.56066 20.2,-5.56066 20.711396,0 33.112669,19.27055 12.46518,19.27056 12.46518,53.59324 0,34.03505 -12.33734,53.30561 -12.337343,19.17467 -32.984813,19.17467 -20.903164,0 -33.240507,-19.07881 -12.337342,-19.17467 -12.337342,-52.73036 z m 19.496836,-0.95874 q 0,23.87248 7.351266,36.24015 7.351267,12.2718 18.665824,12.2718 11.314557,0 18.537973,-12.17593 7.287343,-12.27179 7.287343,-36.71952 0,-24.16008 -7.095573,-36.04839 -7.031645,-11.8883 -18.729743,-11.8883 -11.698102,0 -18.857597,12.08005 -7.159493,11.98417 -7.159493,36.24014 z"
         style="font-style:normal;font-variant:normal;font-weight:bold;font-stretch:normal;font-size:medium;line-height:125%;font-family:Arial;-inkscape-font-specification:'Arial Bold';text-align:center;letter-spacing:0px;word-spacing:0px;text-anchor:middle;fill:#ffffff;fill-opacity:1;stroke:none;stroke-width:1px;stroke-linecap:butt;stroke-linejoin:miter;stroke-opacity:1"
         id="path5815"
         inkscape:connector-curvature="0" />
      <path
         d="m 69.599985,621.17258 0,-116.77382 -33.52072,0 0,-23.77659 89.773865,0 0,23.77659 -33.443645,0 0,116.77382 -22.8095,0 z"
         style="font-style:normal;font-variant:normal;font-weight:bold;font-stretch:normal;font-size:medium;line-height:125%;font-family:Arial;-inkscape-font-specification:'Arial Bold';text-align:center;letter-spacing:0px;word-spacing:0px;text-anchor:middle;fill:#ffffff;fill-opacity:1;stroke:none;stroke-width:1px;stroke-linecap:butt;stroke-linejoin:miter;stroke-opacity:1"
         id="path5817"
         inkscape:connector-curvature="0" />
      <path
         sodipodi:nodetypes="ccscsscccccccccsccccssssccscc"
         d="m 145.22704,626.06211 0,-145.43994 37.0876,0 c 9.32647,0 16.09312,1.32278 20.29995,3.96834 4.24652,2.57943 7.63977,7.20916 10.17974,13.88921 2.53998,6.68006 3.80997,14.31913 3.80997,22.91722 0,10.91295 -1.92483,19.94094 -5.77448,27.08397 -3.84965,7.07689 -9.60428,11.54128 -17.26389,13.39318 3.80997,3.70379 6.94525,7.77134 9.40585,12.20265 2.50029,4.43133 5.85384,12.30189 10.06067,23.61168 l 10.65599,28.37369 -21.07385,0 -12.73956,-31.64758 c -4.52433,-11.30979 -7.61992,-18.41975 -9.28678,-21.32986 -1.66686,-2.97627 -3.43293,1.00649 -5.29822,-0.0517 -1.8653,-1.12437 -5.338,-3.66429 -8.87007,-1.68656 l -3.57184,0 0,54.71573 z m 17.62108,-73.93056 13.03721,0 c 8.45335,0 13.73174,-10.59525 15.83515,-11.78575 2.10341,-1.19051 3.75043,-3.24082 4.94104,-6.15094 1.19062,-2.91013 1.78593,-6.54778 1.78593,-10.91296 0,-4.8943 -0.79374,-8.82958 -2.38123,-11.80584 -1.5478,-3.0424 -3.75043,-4.96043 -6.6079,-5.7541 -1.42873,-0.3307 -5.71494,-0.49605 -12.85862,-0.49605 l -13.75158,0 z"
         style="font-style:normal;font-variant:normal;font-weight:bold;font-stretch:normal;font-size:medium;line-height:125%;font-family:Arial;-inkscape-font-specification:'Arial Bold';text-align:center;letter-spacing:0px;word-spacing:0px;text-anchor:middle;fill:#ffffff;fill-opacity:1;stroke:none;stroke-width:1px;stroke-linecap:butt;stroke-linejoin:miter;stroke-opacity:1"
         id="path5819"
         inkscape:connector-curvature="0" />
      <path
         d="m 236.05927,577.6113 17.56993,-2.69707 q 1.58617,13.96693 6.40571,20.51694 4.88053,6.55003 13.11642,6.55003 8.72397,0 13.11645,-5.77944 4.45348,-5.87575 4.45348,-13.67795 0,-5.00884 -1.8912,-8.47648 -1.8302,-3.564 -6.46672,-6.16473 -3.17233,-1.73383 -14.45858,-6.16472 -14.51959,-5.68309 -20.37623,-13.96693 -8.2359,-11.65517 -8.2359,-28.41549 0,-10.78825 3.84341,-20.13165 3.90443,-9.43973 11.16423,-14.35224 7.3208,-4.9125 17.63093,-4.9125 16.83784,0 25.31778,11.65516 8.54094,11.65518 8.96799,31.11256 l -18.05799,1.2522 q -1.15912,-10.88457 -5.00254,-15.60442 -3.78242,-4.8162 -11.40826,-4.8162 -7.86986,0 -12.32334,5.10516 -2.86733,3.27501 -2.86733,8.76545 0,5.00883 2.6843,8.57282 3.41637,4.5272 16.59383,9.43972 13.17743,4.91251 19.46113,10.21031 6.34468,5.20148 9.88308,14.35223 3.59939,9.05442 3.59939,22.44342 0,12.13679 -4.27046,22.73239 -4.27048,10.59561 -12.07933,15.79709 -7.80885,5.10515 -19.46113,5.10515 -16.95987,0 -26.04986,-12.32942 -9.08999,-12.42577 -10.85919,-36.12139 z"
         style="font-style:normal;font-variant:normal;font-weight:bold;font-stretch:normal;font-size:medium;line-height:125%;font-family:Arial;-inkscape-font-specification:'Arial Bold';text-align:center;letter-spacing:0px;word-spacing:0px;text-anchor:middle;fill:#ffffff;fill-opacity:1;stroke:none;stroke-width:1px;stroke-linecap:butt;stroke-linejoin:miter;stroke-opacity:1"
         id="path5821"
         inkscape:connector-curvature="0" />
      <path
         id="rect5865"
         d="m -55.000735,353.36221 364.001455,0 c 9.972,0 18,8.028 18,18 l 0,363.99998 c 0,9.972 -8.028,18 -18,18 l -364.001455,0 c -9.972,0 -18,-8.028 -18,-18 l 0,-363.99998 c 0,-9.972 8.028,-18 18,-18 z"
         style="color:#000000;clip-rule:nonzero;display:inline;overflow:visible;visibility:visible;opacity:1;isolation:auto;mix-blend-mode:normal;color-interpolation:sRGB;color-interpolation-filters:linearRGB;solid-color:#000000;solid-opacity:1;fill:none;fill-opacity:1;fill-rule:nonzero;stroke:none;stroke-width:23;stroke-linecap:butt;stroke-linejoin:round;stroke-miterlimit:4;stroke-dasharray:none;stroke-dashoffset:0;stroke-opacity:1;color-rendering:auto;image-rendering:auto;shape-rendering:auto;text-rendering:auto;enable-background:accumulate"
         inkscape:connector-curvature="0" />
    </g>
  </g>
</svg>
