<?xml version="1.0" encoding="UTF-8" standalone="no"?>
<!-- Created with Inkscape (http://www.inkscape.org/) -->

<svg
   xmlns:dc="http://purl.org/dc/elements/1.1/"
   xmlns:cc="http://creativecommons.org/ns#"
   xmlns:rdf="http://www.w3.org/1999/02/22-rdf-syntax-ns#"
   xmlns:svg="http://www.w3.org/2000/svg"
   xmlns="http://www.w3.org/2000/svg"
   xmlns:xlink="http://www.w3.org/1999/xlink"
   xmlns:sodipodi="http://sodipodi.sourceforge.net/DTD/sodipodi-0.dtd"
   xmlns:inkscape="http://www.inkscape.org/namespaces/inkscape"
   width="210mm"
   height="297mm"
   viewBox="0 0 744.09448819 1052.3622047"
   id="svg2"
   version="1.1"
   inkscape:version="0.91 r13725"
   inkscape:export-xdpi="4.9500508"
   inkscape:export-ydpi="4.9500508"
   sodipodi:docname="tomcat.svg"
   inkscape:export-filename="D:\Dokumente\Arbeit\RRZE\github\bicons\22x22\logos\tomcat.png">
  <title
     id="title4173">tomcat</title>
  <defs
     id="defs4">
    <linearGradient
       inkscape:collect="always"
       id="linearGradient4289">
      <stop
         style="stop-color:#4e505d;stop-opacity:1;"
         offset="0"
         id="stop4291" />
      <stop
         style="stop-color:#7a859c;stop-opacity:1"
         offset="1"
         id="stop4293" />
    </linearGradient>
    <linearGradient
       id="linearGradient2224">
      <stop
         id="stop2226"
         offset="0"
         style="stop-color:#7c7c7c;stop-opacity:1;" />
      <stop
         id="stop2228"
         offset="1"
         style="stop-color:#b8b8b8;stop-opacity:1;" />
    </linearGradient>
    <linearGradient
       id="linearGradient15218">
      <stop
         id="stop15220"
         offset="0"
         style="stop-color:#eeeeef;stop-opacity:1;" />
      <stop
         id="stop2736"
         offset="0.59928656"
         style="stop-color:#d3d7cf;stop-opacity:1;" />
      <stop
         id="stop2738"
         offset="0.82758623"
         style="stop-color:#ffffff;stop-opacity:1;" />
      <stop
         id="stop15222"
         offset="1"
         style="stop-color:#d3d7cf;stop-opacity:1;" />
    </linearGradient>
    <pattern
       y="0"
       x="0"
       height="6"
       width="6"
       patternUnits="userSpaceOnUse"
       id="EMFhbasepattern" />
    <pattern
       y="0"
       x="0"
       height="6"
       width="6"
       patternUnits="userSpaceOnUse"
       id="EMFhbasepattern-5" />
    <linearGradient
       inkscape:collect="always"
       xlink:href="#linearGradient4289"
       id="linearGradient4295"
       x1="311"
       y1="679.36218"
       x2="451"
       y2="399.36221"
       gradientUnits="userSpaceOnUse" />
  </defs>
  <sodipodi:namedview
     id="base"
     pagecolor="#ffffff"
     bordercolor="#666666"
     borderopacity="1.0"
     inkscape:pageopacity="0.0"
     inkscape:pageshadow="2"
     inkscape:zoom="1"
     inkscape:cx="343.50444"
     inkscape:cy="532.08839"
     inkscape:document-units="px"
     inkscape:current-layer="layer1"
     showgrid="false"
     showguides="true"
     inkscape:guide-bbox="true"
     inkscape:window-width="1600"
     inkscape:window-height="837"
     inkscape:window-x="-4"
     inkscape:window-y="-4"
     inkscape:window-maximized="1"
     inkscape:snap-bbox="true"
     inkscape:bbox-nodes="true">
    <sodipodi:guide
       position="560,730.00002"
       orientation="0,1"
       id="guide3338" />
    <sodipodi:guide
       position="560,330.00001"
       orientation="0,1"
       id="guide3340" />
    <sodipodi:guide
       position="190,475.00001"
       orientation="1,0"
       id="guide3344" />
    <sodipodi:guide
       position="590,451.00001"
       orientation="1,0"
       id="guide3346" />
    <inkscape:grid
       type="xygrid"
       id="grid3440" />
  </sodipodi:namedview>
  <metadata
     id="metadata7">
    <rdf:RDF>
      <cc:Work
         rdf:about="">
        <dc:format>image/svg+xml</dc:format>
        <dc:type
           rdf:resource="http://purl.org/dc/dcmitype/StillImage" />
        <dc:title>tomcat</dc:title>
        <dc:date>June 2015</dc:date>
        <dc:creator>
          <cc:Agent>
            <dc:title>Franziska Sponsel, Johannes Hechler</dc:title>
          </cc:Agent>
        </dc:creator>
        <dc:rights>
          <cc:Agent>
            <dc:title>Franziska Sponsel, Johannes Hechler</dc:title>
          </cc:Agent>
        </dc:rights>
        <dc:publisher>
          <cc:Agent>
            <dc:title>RRZE</dc:title>
          </cc:Agent>
        </dc:publisher>
        <dc:contributor>
          <cc:Agent>
            <dc:title>Ute Weber, Hendrik Eggers</dc:title>
          </cc:Agent>
        </dc:contributor>
      </cc:Work>
    </rdf:RDF>
  </metadata>
  <g
     inkscape:label="Ebene 1"
     inkscape:groupmode="layer"
     id="layer1">
    <g
       id="g4297">
      <path
         id="path3614"
         d="M 399.30078 363.33398 C 399.30078 363.33398 389.17636 400.59449 390.05273 420.52539 C 390.92545 440.45628 394.64674 464.7667 403.49219 484.12305 C 412.394 503.60485 420.76649 519.00839 432.04102 534.22656 C 443.31737 549.44473 463.2865 565.55342 473.69922 572.0625 C 484.11012 578.57523 486.49219 576.63281 486.49219 576.63281 C 486.49219 576.63281 513.61773 558.70108 524.125 547.06836 C 534.63408 535.43564 543.96467 520.75411 551.54102 505.88867 C 559.11738 491.02322 563.11973 475.30089 565.99609 458.75 C 568.87245 442.1991 571.97068 424.76734 571.8125 409.08008 C 571.6125 393.38919 565.08398 364.62305 565.08398 364.62305 C 565.08398 364.62305 542.78529 375.11932 535.83984 381.99023 C 528.89439 388.85749 523.04687 403.00586 523.04688 403.00586 C 523.04688 403.00586 492.80721 399.08974 479.18359 399.35156 C 465.55814 399.6061 440.42383 402.62891 440.42383 402.62891 C 440.42383 402.62891 433.80227 386.88306 426.92773 379.78125 C 420.05501 372.68125 399.30078 363.33398 399.30078 363.33398 z M 277.68164 432.56641 C 275.75627 432.60841 273.85816 432.89518 272.01758 433.44922 C 264.65523 435.66537 259.54624 441.22733 255.86719 447.44141 C 252.18813 453.65548 249.64841 460.93197 247.6875 468.78906 C 243.76568 484.50325 242.29873 502.58584 242.33008 517.77734 C 242.34578 525.37309 242.73862 532.20527 243.5 537.80273 C 243.88069 540.60147 244.34113 543.08117 245.00195 545.38086 C 245.66278 547.68055 246.08169 549.78989 248.76367 552.60352 L 261.92383 540.05859 C 263.42512 541.63358 262.76803 541.37366 262.47656 540.35938 C 262.1851 539.34507 261.81682 537.56582 261.51562 535.35156 C 260.91325 530.92304 260.5261 524.70845 260.51172 517.74023 C 260.48292 503.80381 261.95859 486.69265 265.32812 473.19141 C 267.0129 466.44079 269.20502 460.60449 271.51367 456.70508 C 273.82233 452.80567 275.95627 451.25173 277.25977 450.85938 C 278.56326 450.467 280.37331 450.31171 284.75977 453.28125 C 289.14622 456.25079 295.27122 462.42969 302.4043 472.60156 L 317.29102 462.16211 C 309.39365 450.90036 302.24676 443.16225 294.95312 438.22461 C 289.48291 434.52138 283.45774 432.44038 277.68164 432.56641 z M 385.52539 487.98047 L 385.52539 487.99023 C 373.3254 492.33023 355.48791 498.92948 340.85156 506.34766 C 319.54976 517.14583 291.53431 533.77448 272.91797 549.91992 C 254.30162 566.06717 234.69953 590.47641 221.07227 608.76367 C 207.44319 627.04729 190 667.81836 190 667.81836 C 190 667.81836 226.20112 667.63654 231.83203 667.81836 C 233.26839 658.98746 228.50096 645.20194 234.67188 632.44922 C 240.84277 619.69833 260.44552 600.06401 278.31641 593.74219 C 296.04003 587.47311 313.38979 590.14495 332.11523 591.25586 C 350.83884 592.36495 363.93533 594.79158 383.64258 599.95703 C 403.35347 605.12612 424.88284 613.66768 447.88281 622.50586 C 470.88643 631.34403 498.94424 644.39091 514.32422 651.44727 C 529.70421 658.50181 535.17872 659.56479 538.50781 663.0957 C 541.83871 666.63024 544.33203 667.81836 544.33203 667.81836 L 590 667.81836 C 590 667.81836 586.09974 654.51886 581.54883 650.0625 C 576.99611 645.60978 569.85907 643.05393 564.64453 642.46484 C 559.43181 641.86484 551.93151 644.98438 551.92969 644.98438 L 500.79492 588.87695 C 499.83128 589.5315 496.49805 591.89453 496.49805 591.89453 L 497.95312 590.82227 C 497.95312 590.82227 495.50021 592.56724 494.08203 593.23633 C 492.66384 593.90906 491.1347 594.40125 489.60742 594.72852 C 486.55652 595.29215 483.61836 595.20125 480.87109 594.72852 C 475.37655 593.78306 470.42572 591.49878 464.00391 587.48242 C 451.01847 579.36243 431.14119 563.574 417.41211 545.04492 C 405.21394 528.57948 396.12699 511.80169 386.94336 491.70898 C 386.39791 490.4908 386.03448 489.20774 385.52539 487.98047 z "
         style="fill:url(#linearGradient4295);stroke:none;stroke-width:0.41139975;stroke-linecap:butt;stroke-linejoin:miter;stroke-miterlimit:4;stroke-dasharray:none;stroke-opacity:1;fill-opacity:1" />
      <rect
         y="322.36218"
         x="190.00035"
         height="399.99594"
         width="399.99963"
         id="rect4309"
         style="color:#000000;clip-rule:nonzero;display:inline;overflow:visible;visibility:visible;opacity:1;isolation:auto;mix-blend-mode:normal;color-interpolation:sRGB;color-interpolation-filters:linearRGB;solid-color:#000000;solid-opacity:1;fill:none;fill-opacity:1;fill-rule:nonzero;stroke:none;stroke-width:2;stroke-linecap:round;stroke-linejoin:round;stroke-miterlimit:4;stroke-dasharray:none;stroke-dashoffset:0;stroke-opacity:1;color-rendering:auto;image-rendering:auto;shape-rendering:auto;text-rendering:auto;enable-background:accumulate" />
    </g>
  </g>
</svg>
