<?xml version="1.0" encoding="UTF-8" standalone="no"?>
<!-- Created with Inkscape (http://www.inkscape.org/) -->

<svg
   xmlns:dc="http://purl.org/dc/elements/1.1/"
   xmlns:cc="http://creativecommons.org/ns#"
   xmlns:rdf="http://www.w3.org/1999/02/22-rdf-syntax-ns#"
   xmlns:svg="http://www.w3.org/2000/svg"
   xmlns="http://www.w3.org/2000/svg"
   xmlns:xlink="http://www.w3.org/1999/xlink"
   xmlns:sodipodi="http://sodipodi.sourceforge.net/DTD/sodipodi-0.dtd"
   xmlns:inkscape="http://www.inkscape.org/namespaces/inkscape"
   width="52mm"
   height="74mm"
   viewBox="0 0 184.25197 262.20472"
   id="svg2"
   version="1.1"
   inkscape:version="0.91 r13725"
   inkscape:export-xdpi="4.9499998"
   inkscape:export-ydpi="4.9499998"
   sodipodi:docname="twitter.svg"
   inkscape:export-filename="C:\Users\johannes\Documents\Arbeit\RRZE\github3\bicons\22x22\logos\twitter.png">
  <title
     id="title4159">twitter</title>
  <defs
     id="defs4">
    <linearGradient
       id="linearGradient2224">
      <stop
         id="stop2226"
         offset="0"
         style="stop-color:#7c7c7c;stop-opacity:1;" />
      <stop
         id="stop2228"
         offset="1"
         style="stop-color:#b8b8b8;stop-opacity:1;" />
    </linearGradient>
    <linearGradient
       id="linearGradient15218">
      <stop
         id="stop15220"
         offset="0"
         style="stop-color:#eeeeef;stop-opacity:1;" />
      <stop
         id="stop2736"
         offset="0.59928656"
         style="stop-color:#d3d7cf;stop-opacity:1;" />
      <stop
         id="stop2738"
         offset="0.82758623"
         style="stop-color:#ffffff;stop-opacity:1;" />
      <stop
         id="stop15222"
         offset="1"
         style="stop-color:#d3d7cf;stop-opacity:1;" />
    </linearGradient>
    <pattern
       y="0"
       x="0"
       height="6"
       width="6"
       patternUnits="userSpaceOnUse"
       id="EMFhbasepattern" />
    <pattern
       y="0"
       x="0"
       height="6"
       width="6"
       patternUnits="userSpaceOnUse"
       id="EMFhbasepattern-5" />
    <linearGradient
       id="linearGradient9910">
      <stop
         style="stop-color:#729fcf;stop-opacity:1;"
         offset="0"
         id="stop9912" />
      <stop
         style="stop-color:#a5bfda;stop-opacity:1;"
         offset="0.31578946"
         id="stop9918" />
      <stop
         style="stop-color:#376ca4;stop-opacity:1;"
         offset="1"
         id="stop9914" />
    </linearGradient>
    <linearGradient
       inkscape:collect="always"
       xlink:href="#linearGradient4321"
       id="linearGradient4947"
       x1="40.18"
       y1="990.3421"
       x2="362.77997"
       y2="710.3421"
       gradientUnits="userSpaceOnUse"
       gradientTransform="translate(99.813276,-36.17358)" />
    <linearGradient
       id="linearGradient4321"
       inkscape:collect="always">
      <stop
         id="stop4323"
         offset="0"
         style="stop-color:#4e505d;stop-opacity:1;" />
      <stop
         id="stop4325"
         offset="1"
         style="stop-color:#7a8597;stop-opacity:1" />
    </linearGradient>
  </defs>
  <sodipodi:namedview
     id="base"
     pagecolor="#ffffff"
     bordercolor="#666666"
     borderopacity="1.0"
     inkscape:pageopacity="0.0"
     inkscape:pageshadow="2"
     inkscape:zoom="0.70710678"
     inkscape:cx="285.82715"
     inkscape:cy="552.06148"
     inkscape:document-units="px"
     inkscape:current-layer="layer1"
     showgrid="false"
     showguides="true"
     inkscape:guide-bbox="true"
     inkscape:window-width="1366"
     inkscape:window-height="721"
     inkscape:window-x="-4"
     inkscape:window-y="-4"
     inkscape:window-maximized="1"
     inkscape:snap-bbox="true"
     inkscape:bbox-paths="true"
     inkscape:bbox-nodes="true">
    <sodipodi:guide
       position="560,730.00002"
       orientation="0,1"
       id="guide3338" />
    <sodipodi:guide
       position="560,330.00001"
       orientation="0,1"
       id="guide3340" />
    <sodipodi:guide
       position="190,475.00001"
       orientation="1,0"
       id="guide3344" />
    <sodipodi:guide
       position="590,451.00001"
       orientation="1,0"
       id="guide3346" />
    <inkscape:grid
       type="xygrid"
       id="grid3440" />
  </sodipodi:namedview>
  <metadata
     id="metadata7">
    <rdf:RDF>
      <cc:Work
         rdf:about="">
        <dc:format>image/svg+xml</dc:format>
        <dc:type
           rdf:resource="http://purl.org/dc/dcmitype/StillImage" />
        <dc:title>twitter</dc:title>
        <dc:date>June 2015</dc:date>
        <dc:creator>
          <cc:Agent>
            <dc:title>Franziska Sponsel, Johannes Hechler</dc:title>
          </cc:Agent>
        </dc:creator>
        <dc:rights>
          <cc:Agent>
            <dc:title>Franziska Sponsel, Johannes Hechler</dc:title>
          </cc:Agent>
        </dc:rights>
        <dc:publisher>
          <cc:Agent>
            <dc:title>RRZE</dc:title>
          </cc:Agent>
        </dc:publisher>
        <dc:contributor>
          <cc:Agent>
            <dc:title>Ute Weber, Hendrik Eggers</dc:title>
          </cc:Agent>
        </dc:contributor>
      </cc:Work>
    </rdf:RDF>
  </metadata>
  <g
     inkscape:label="Ebene 1"
     inkscape:groupmode="layer"
     id="layer1"
     transform="translate(0,-790.15748)">
    <g
       id="g4204"
       transform="translate(90.18672,-293.82633)">
      <rect
         y="616.18854"
         x="99.813278"
         height="400"
         width="400"
         id="rect4160"
         style="opacity:1;fill:none;fill-opacity:1;stroke:none;stroke-width:23;stroke-linecap:butt;stroke-linejoin:round;stroke-miterlimit:4;stroke-dasharray:none;stroke-opacity:1" />
      <path
         inkscape:connector-curvature="0"
         id="rect4393"
         d="m 160.16679,634.36825 c -28.45032,4.29372 -39.15784,20.62693 -42.17383,42.17969 l 0,280.01171 c 2.70958,31.5697 21.87683,37.62871 42.51563,41.40821 l 279.66992,0 c 23.41017,-1.6926 38.94346,-13.31371 41.41407,-41.40821 l 0,-279.66992 c -0.42071,-26.70799 -15.82511,-39.50138 -41.75586,-42.52148 l -279.66993,0 z m 84.14649,36.54297 c 20.422,0.11571 35.68729,10.01696 43.79492,19.73632 8.10758,9.71932 10.7793,20.22852 10.7793,20.22852 a 18.0018,18.0018 0 0 1 0.55664,4.33203 l 0.0605,10.24219 73.00781,0 a 18.0018,18.0018 0 0 1 1.81055,0.0898 c 0,0 12.22119,1.04875 24.88867,7.85938 12.66747,6.81062 27.65225,22.72089 27.65625,45.46289 0.003,21.98811 -12.73595,37.94682 -24.23633,45.56445 -11.50038,7.61763 -23.07031,9.48242 -23.07031,9.48242 a 18.0018,18.0018 0 0 1 -3.04883,0.25977 l -76.89844,0 0,18.6582 76.44141,0.5 a 18.0018,18.0018 0 0 1 3.41797,0.34766 c 0,0 12.04687,2.25593 23.85156,10.49805 11.80469,8.24211 24.61211,25.46249 23.11133,48.32812 -1.45126,22.11097 -15.07817,37.42968 -27.4375,43.44727 -11.18366,5.44515 -21.81473,5.51473 -23.75391,5.47851 l -102.63086,-0.81836 a 18.0018,18.0018 0 0 1 -2.9082,-0.25976 c -16.78072,-2.88575 -33.94399,-8.10655 -48.51753,-19.79879 -14.57354,-11.69225 -25.31836,-29.72455 -29.95508,-53.27149 a 18.0018,18.0018 0 0 1 -0.33985,-3.52539 l 0.45508,-168.5625 a 18.0018,18.0018 0 0 1 0.23242,-2.83789 c 0,0 1.70467,-10.84537 9.27931,-21.0625 7.57461,-10.21713 22.96596,-20.49498 43.45312,-20.3789 z m -0.20508,35.99609 c -10.07086,-0.0571 -12.111,2.82972 -14.32812,5.82031 -1.7144,2.31249 -2.22804,3.90878 -2.4375,4.67969 l -0.44336,164.2207 c 3.42646,16.19439 9.27163,24.78516 16.81836,30.83985 7.53602,6.04609 17.94121,9.80407 30.92968,12.15429 l 100.88477,0.80274 a 18.0018,18.0018 0 0 1 0.40625,0.01 c 0,0 3.6599,-0.0789 7.30078,-1.85156 3.64088,-1.77269 6.55579,-2.50552 7.27344,-13.43945 0.66812,-10.1793 -2.79147,-12.95636 -7.79688,-16.45117 -4.20349,-2.9349 -7.95471,-4.0297 -9.26172,-4.38086 l -91.95898,-0.60352 a 18.0018,18.0018 0 0 1 -17.88086,-17.99805 l 0,-54.54101 a 18.0018,18.0018 0 0 1 18,-18 l 92.73828,0 c 1.10851,-0.26373 4.44119,-1.13141 8.40039,-3.75391 4.67828,-3.0988 8.11724,-5.79244 8.11524,-15.54687 -0.001,-9.00056 -3.19449,-10.79807 -8.70313,-13.75977 -5.17686,-2.78332 -10.36746,-3.5643 -11.01953,-3.6582 l -89.53125,0 a 18.0018,18.0018 0 0 1 -18,-17.89258 l -0.15234,-25.1543 c -0.45931,-1.07552 -1.24659,-2.59567 -2.99805,-4.69531 -2.86967,-3.44014 -6.21945,-6.74143 -16.35547,-6.79883 l 0,-0.002 z"
         style="color:#252525;display:inline;overflow:visible;visibility:visible;fill:url(#linearGradient4947);fill-opacity:1;fill-rule:evenodd;stroke:none;stroke-width:20;stroke-linecap:butt;stroke-linejoin:miter;stroke-miterlimit:4;stroke-dasharray:none;stroke-dashoffset:0;stroke-opacity:1;marker:none;enable-background:accumulate" />
      <path
         sodipodi:nodetypes="czccczcccczcccc"
         inkscape:connector-curvature="0"
         id="path4181"
         d="m 209.34818,715.23823 c 0,0 4.30449,-26.50202 34.86252,-26.32887 30.55802,0.17314 37.23351,26.40549 37.23351,26.40549 l 0.16907,28.13365 90.9,0 c 0,0 36.34963,3.67337 36.35482,35.41592 0.005,31.74255 -32.35482,37.30414 -32.35482,37.30414 l -94.9,0 0,54.53988 94.32504,0.61793 c 0,0 34.70464,6.95138 32.53574,39.9963 -2.16891,33.0449 -33.08488,32.10301 -33.08488,32.10301 l -102.63224,-0.81713 c -30.34056,-5.21768 -55.84997,-18.11233 -63.86366,-58.80872 z"
         style="fill:#7a859c;stroke:none;stroke-width:1.17264438px;stroke-linecap:butt;stroke-linejoin:miter;stroke-opacity:1" />
    </g>
  </g>
</svg>
