<?xml version="1.0" encoding="UTF-8" standalone="no"?>
<!-- Created with Inkscape (http://www.inkscape.org/) -->

<svg
   xmlns:dc="http://purl.org/dc/elements/1.1/"
   xmlns:cc="http://creativecommons.org/ns#"
   xmlns:rdf="http://www.w3.org/1999/02/22-rdf-syntax-ns#"
   xmlns:svg="http://www.w3.org/2000/svg"
   xmlns="http://www.w3.org/2000/svg"
   xmlns:sodipodi="http://sodipodi.sourceforge.net/DTD/sodipodi-0.dtd"
   xmlns:inkscape="http://www.inkscape.org/namespaces/inkscape"
   width="210mm"
   height="297mm"
   viewBox="0 0 744.09448819 1052.3622047"
   id="svg2"
   version="1.1"
   inkscape:version="0.91 r13725"
   inkscape:export-xdpi="4"
   inkscape:export-ydpi="4"
   sodipodi:docname="back-to-ou.svg">
  <defs
     id="defs4" />
  <sodipodi:namedview
     id="base"
     pagecolor="#ffffff"
     bordercolor="#666666"
     borderopacity="1.0"
     inkscape:pageopacity="0.0"
     inkscape:pageshadow="2"
     inkscape:zoom="1"
     inkscape:cx="337.80743"
     inkscape:cy="545.91677"
     inkscape:document-units="px"
     inkscape:current-layer="layer1"
     showgrid="false"
     showguides="true"
     inkscape:guide-bbox="true"
     inkscape:window-width="1280"
     inkscape:window-height="962"
     inkscape:window-x="-8"
     inkscape:window-y="-8"
     inkscape:window-maximized="1">
    <sodipodi:guide
       position="315.53572,730.17859"
       orientation="0,1"
       id="guide3338" />
    <sodipodi:guide
       position="351.25,330.17858"
       orientation="0,1"
       id="guide3340" />
    <sodipodi:guide
       position="189.10714,408.8393"
       orientation="1,0"
       id="guide3344" />
    <inkscape:grid
       type="xygrid"
       id="grid3440" />
    <sodipodi:guide
       position="0,0"
       orientation="0,1"
       id="guide3405" />
    <sodipodi:guide
       position="214.125,684.50002"
       orientation="1,0"
       id="guide3407" />
    <sodipodi:guide
       position="0,0"
       orientation="0,1"
       id="guide3409" />
    <sodipodi:guide
       position="589.04521,378.30213"
       orientation="1,0"
       id="guide3411" />
    <sodipodi:guide
       position="564.00001,683.37502"
       orientation="1,0"
       id="guide3413" />
  </sodipodi:namedview>
  <metadata
     id="metadata7">
    <rdf:RDF>
      <cc:Work
         rdf:about="">
        <dc:format>image/svg+xml</dc:format>
        <dc:type
           rdf:resource="http://purl.org/dc/dcmitype/StillImage" />
        <dc:title>back to ou</dc:title>
        <dc:date>June 2015</dc:date>
        <dc:creator>
          <cc:Agent>
            <dc:title>Johannes Hechler</dc:title>
          </cc:Agent>
        </dc:creator>
        <dc:rights>
          <cc:Agent>
            <dc:title>Johannes Hechler</dc:title>
          </cc:Agent>
        </dc:rights>
        <dc:publisher>
          <cc:Agent>
            <dc:title>RRZE</dc:title>
          </cc:Agent>
        </dc:publisher>
        <dc:contributor>
          <cc:Agent>
            <dc:title>Ute Weber, Hendrik Eggers, Joanna Barbach</dc:title>
          </cc:Agent>
        </dc:contributor>
        <dc:subject>
          <rdf:Bag>
            <rdf:li>directory</rdf:li>
            <rdf:li>tree</rdf:li>
            <rdf:li>organisation</rdf:li>
            <rdf:li>organisational</rdf:li>
            <rdf:li>organisational unit</rdf:li>
            <rdf:li>LDAP</rdf:li>
            <rdf:li>hierarchy</rdf:li>
            <rdf:li>switch back</rdf:li>
            <rdf:li>go back</rdf:li>
            <rdf:li>back</rdf:li>
          </rdf:Bag>
        </dc:subject>
        <cc:license
           rdf:resource="http://creativecommons.org/licenses/by-sa/3.0/" />
      </cc:Work>
      <cc:License
         rdf:about="http://creativecommons.org/licenses/by-sa/3.0/">
        <cc:permits
           rdf:resource="http://creativecommons.org/ns#Reproduction" />
        <cc:permits
           rdf:resource="http://creativecommons.org/ns#Distribution" />
        <cc:requires
           rdf:resource="http://creativecommons.org/ns#Notice" />
        <cc:requires
           rdf:resource="http://creativecommons.org/ns#Attribution" />
        <cc:permits
           rdf:resource="http://creativecommons.org/ns#DerivativeWorks" />
        <cc:requires
           rdf:resource="http://creativecommons.org/ns#ShareAlike" />
      </cc:License>
    </rdf:RDF>
  </metadata>
  <g
     inkscape:label="Ebene 1"
     inkscape:groupmode="layer"
     id="layer1">
    <rect
       style="fill:none;fill-rule:evenodd;stroke:none;stroke-width:1px;stroke-linecap:butt;stroke-linejoin:miter;stroke-opacity:1"
       id="rect3336"
       width="407.77817"
       height="407.77817"
       x="181.36667"
       y="322.27005"
       inkscape:export-xdpi="4.9499998"
       inkscape:export-ydpi="4.9499998" />
    <path
       style="opacity:1;fill:#4e505d;fill-opacity:1;stroke:none;stroke-width:23;stroke-linecap:butt;stroke-linejoin:round;stroke-miterlimit:4;stroke-dasharray:none;stroke-opacity:1"
       d="m 369.10938,408.67383 c -10.44653,0 -18.85743,8.41345 -18.85743,18.86328 l 0,37.72461 c 0,10.44982 8.41091,18.86328 18.85743,18.86328 l 14.0039,0 c 0.0466,-0.001 0.0898,-0.0137 0.13672,-0.0137 l 13.5,0 c 0.0469,0 0.0902,0.0123 0.13672,0.0137 l 9.9375,0 c 10.44649,0 18.85742,-8.41346 18.85742,-18.86328 l 0,-37.72461 c 0,-10.44983 -8.41093,-18.86328 -18.85742,-18.86328 l -37.71289,0 -0.002,0 z m 14.32617,84.9375 0,28.14258 -109.36719,0 c -2.0893,0 -3.77148,1.68152 -3.77148,3.77148 l 0,52.81641 -15.08594,0 c -10.44649,0 -18.85547,8.41152 -18.85547,18.86132 l 0,37.72461 c 0,10.44983 8.40898,18.86329 18.85547,18.86329 l 37.71289,0 c 10.4465,0 18.85742,-8.41346 18.85742,-18.86329 l 0,-37.72461 c 0,-10.44979 -8.41092,-18.86132 -18.85742,-18.86132 l -15.08399,0 0,-49.04297 105.59571,0 0,39.54101 7.54297,0 0,-39.54101 105.5957,0 0,37.51953 7.54492,0 0,-41.29297 c 0,-2.08996 -1.68218,-3.77148 -3.77148,-3.77148 l -109.36719,0 0,-28.14258 -7.54492,0 z m 113.13867,82.70703 0,2.02344 c 0,0.0678 0.0353,0.12426 0.0391,0.1914 l -15.11523,0 c -10.44648,0 -17.09961,8.4115 -17.09961,18.86133 l 0,37.72461 c 0,10.44984 6.6922,16.83398 17.13867,16.83398 l 37.67383,0 c 10.44649,0 17.09961,-6.38414 17.09961,-16.83398 l 0,-37.72461 c 0,-10.44983 -6.65312,-18.86133 -17.09961,-18.86133 l -15.12891,0 c 0.004,-0.0668 0.0371,-0.12349 0.0371,-0.1914 l 0,-2.02344 -7.54492,0 z m -113.13867,2.02148 0,0.002 -15.07813,0 c -10.44649,0 -18.85547,8.41152 -18.85547,18.86132 l 0,37.72461 c 0,10.44983 8.40898,18.86329 18.85547,18.86329 l 37.71289,0 c 10.44648,0 18.85742,-8.41346 18.85742,-18.86329 l 0,-37.72461 c 0,-10.44979 -8.41094,-18.86132 -18.85742,-18.86132 l -15.09179,0 0,-0.002 -7.54297,0 z"
       id="rect4159"
       inkscape:connector-curvature="0" />
    <path
       sodipodi:nodetypes="cccccssccsccccc"
       inkscape:connector-curvature="0"
       id="path4155"
       d="m 367.42166,449.5574 c 2.97036,-2.97285 2.97036,-8.73841 0.0888,-11.62243 l -75.71587,-76.76694 c -1.29213,-1.46512 -4.93933,-2.64359 -4.9368,0.19631 l 0.0259,37.69946 c -0.0704,1.11745 -0.52248,1.41817 -1.3309,1.41176 -8.67029,-0.0686 -85.2424,4.85001 -85.2424,86.46781 0,92.24876 83.54975,92.21497 83.54975,92.21497 2.32765,-0.64259 1.97337,-3.47641 0,-3.86724 0,0 -40.30815,-10.86837 -40.30815,-45.10612 0,-43.24161 41.36244,-43.11422 41.36244,-43.11422 1.32634,-0.0931 1.85642,0.70556 1.87688,1.82275 l -0.0427,36.74211 c 0.0427,1.66658 2.13705,2.16207 4.30993,-0.0569 z"
       style="fill:#99b000;fill-opacity:1;fill-rule:evenodd;stroke:#ffffff;stroke-width:35;stroke-linecap:butt;stroke-linejoin:round;stroke-miterlimit:4;stroke-dasharray:none;stroke-opacity:1" />
    <path
       style="fill:#99b000;fill-opacity:1;fill-rule:evenodd;stroke:none;stroke-width:1px;stroke-linecap:butt;stroke-linejoin:miter;stroke-opacity:1"
       d="m 369.42166,449.5574 c 2.97036,-2.97285 2.97036,-8.73841 0.0888,-11.62243 l -75.71587,-76.76694 c -1.29213,-1.46512 -4.93933,-2.64359 -4.9368,0.19631 l 0.0259,37.69946 c -0.0704,1.11745 -0.52248,1.41817 -1.3309,1.41176 -8.67029,-0.0686 -85.2424,4.85001 -85.2424,86.46781 0,92.24876 83.54975,92.21497 83.54975,92.21497 2.32765,-0.64259 1.97337,-3.47641 0,-3.86724 0,0 -40.30815,-10.86837 -40.30815,-45.10612 0,-43.24161 41.36244,-43.11422 41.36244,-43.11422 1.32634,-0.0931 1.85642,0.70556 1.87688,1.82275 l -0.0427,36.74211 c 0.0427,1.66658 2.13705,2.16207 4.30993,-0.0569 z"
       id="path4160"
       inkscape:connector-curvature="0"
       sodipodi:nodetypes="cccccssccsccccc" />
    <rect
       style="opacity:1;fill:#99b000;fill-opacity:1;stroke:none;stroke-width:23;stroke-linecap:butt;stroke-linejoin:round;stroke-miterlimit:4;stroke-dasharray:none;stroke-opacity:1"
       id="rect4219"
       width="76.71312"
       height="78.506042"
       x="463.55328"
       y="576.16687"
       ry="18.800791" />
  </g>
</svg>
