<?xml version="1.0" encoding="UTF-8" standalone="no"?>
<!-- Created with Inkscape (http://www.inkscape.org/) -->

<svg
   xmlns:dc="http://purl.org/dc/elements/1.1/"
   xmlns:cc="http://creativecommons.org/ns#"
   xmlns:rdf="http://www.w3.org/1999/02/22-rdf-syntax-ns#"
   xmlns:svg="http://www.w3.org/2000/svg"
   xmlns="http://www.w3.org/2000/svg"
   xmlns:xlink="http://www.w3.org/1999/xlink"
   xmlns:sodipodi="http://sodipodi.sourceforge.net/DTD/sodipodi-0.dtd"
   xmlns:inkscape="http://www.inkscape.org/namespaces/inkscape"
   width="210mm"
   height="297mm"
   viewBox="0 0 744.09448819 1052.3622047"
   id="svg2"
   version="1.1"
   inkscape:version="0.91 r13725"
   inkscape:export-xdpi="7.1999631"
   inkscape:export-ydpi="7.1999631"
   sodipodi:docname="data-transfer.svg"
   inkscape:export-filename="C:\Users\johannes\Documents\Arbeit\RRZE\github3\bicons\32x32\actions\data-transfer.png">
  <defs
     id="defs4">
    <linearGradient
       inkscape:collect="always"
       xlink:href="#linearGradient4277"
       id="linearGradient4283"
       x1="9.9878826"
       y1="28.243496"
       x2="23.201941"
       y2="10.698409"
       gradientUnits="userSpaceOnUse" />
    <linearGradient
       inkscape:collect="always"
       id="linearGradient4277">
      <stop
         style="stop-color:#4e505d;stop-opacity:1;"
         offset="0"
         id="stop4279" />
      <stop
         style="stop-color:#7a859c;stop-opacity:1"
         offset="1"
         id="stop4281" />
    </linearGradient>
  </defs>
  <sodipodi:namedview
     id="base"
     pagecolor="#ffffff"
     bordercolor="#666666"
     borderopacity="1.0"
     inkscape:pageopacity="0.0"
     inkscape:pageshadow="2"
     inkscape:zoom="1"
     inkscape:cx="219.87491"
     inkscape:cy="517.73314"
     inkscape:document-units="px"
     inkscape:current-layer="layer1"
     showgrid="false"
     showguides="true"
     inkscape:guide-bbox="true"
     inkscape:window-width="1600"
     inkscape:window-height="837"
     inkscape:window-x="-4"
     inkscape:window-y="-4"
     inkscape:window-maximized="1"
     inkscape:snap-bbox="true"
     inkscape:bbox-paths="true"
     inkscape:bbox-nodes="true"
     inkscape:snap-nodes="false">
    <sodipodi:guide
       position="315.53572,730.17859"
       orientation="0,1"
       id="guide3338" />
    <sodipodi:guide
       position="351.25,330.17858"
       orientation="0,1"
       id="guide3340" />
    <sodipodi:guide
       position="189.10714,408.8393"
       orientation="1,0"
       id="guide3344" />
    <sodipodi:guide
       position="589.04521,540.22959"
       orientation="1,0"
       id="guide3346" />
    <inkscape:grid
       type="xygrid"
       id="grid3440" />
    <sodipodi:guide
       position="0,0"
       orientation="0,1"
       id="guide3405" />
    <sodipodi:guide
       position="0,0"
       orientation="0,1"
       id="guide3409" />
    <sodipodi:guide
       position="589.04521,378.30213"
       orientation="1,0"
       id="guide3411" />
    <sodipodi:guide
       position="0,0"
       orientation="0,1"
       id="guide4168" />
  </sodipodi:namedview>
  <metadata
     id="metadata7">
    <rdf:RDF>
      <cc:Work
         rdf:about="">
        <dc:format>image/svg+xml</dc:format>
        <dc:type
           rdf:resource="http://purl.org/dc/dcmitype/StillImage" />
        <dc:title>data transfer</dc:title>
        <dc:date>June 2015</dc:date>
        <dc:creator>
          <cc:Agent>
            <dc:title>Johannes Hechler</dc:title>
          </cc:Agent>
        </dc:creator>
        <dc:rights>
          <cc:Agent>
            <dc:title>Johannes Hechler</dc:title>
          </cc:Agent>
        </dc:rights>
        <dc:publisher>
          <cc:Agent>
            <dc:title>RRZE</dc:title>
          </cc:Agent>
        </dc:publisher>
        <dc:contributor>
          <cc:Agent>
            <dc:title>Ute Weber, Hendrik Eggers</dc:title>
          </cc:Agent>
        </dc:contributor>
      </cc:Work>
    </rdf:RDF>
  </metadata>
  <g
     inkscape:label="Ebene 1"
     inkscape:groupmode="layer"
     id="layer1">
    <g
       transform="matrix(12.49975,0,0,12.49975,189.10716,-12432.088)"
       id="g4285">
      <flowRoot
         transform="matrix(0.0799996,0,0,0.0799996,-15.131515,994.58063)"
         style="font-style:normal;font-weight:normal;font-size:40px;line-height:125%;font-family:sans-serif;letter-spacing:0px;word-spacing:0px;fill:#252525;fill-opacity:1;stroke:none;stroke-width:1px;stroke-linecap:butt;stroke-linejoin:miter;stroke-opacity:1"
         id="flowRoot4169"
         xml:space="preserve"><flowRegion
           id="flowRegion4171"><rect
             y="427.07962"
             x="89.541069"
             height="88.78862"
             width="56.433445"
             id="rect4173" /></flowRegion><flowPara
           id="flowPara4175" /></flowRoot>      <rect
         inkscape:export-ydpi="4.9499998"
         inkscape:export-xdpi="4.9499998"
         y="1020.3621"
         x="-1.8655152e-006"
         height="31.99984"
         width="31.99984"
         id="rect3336"
         style="fill:none;fill-rule:evenodd;stroke:none;stroke-width:1px;stroke-linecap:butt;stroke-linejoin:miter;stroke-opacity:1" />
      <path
         style="opacity:1;fill:#99b000;fill-opacity:1;stroke:none;stroke-width:0;stroke-linecap:square;stroke-linejoin:round;stroke-miterlimit:4;stroke-dasharray:none;stroke-opacity:1"
         d="M 2.0818893,1025.3621 C 1.3876768,1025.3621 1,1026.3558 1,1027.1009 l 0,1.2612 12,0 c -0.943916,-1.2855 -1.590002,-2.9624 -2.773008,-3 z"
         id="path4158"
         inkscape:connector-curvature="0"
         sodipodi:nodetypes="sscccs" />
      <path
         inkscape:connector-curvature="0"
         id="rect4264"
         transform="translate(0,1020.3621)"
         d="m 1,9 0,2 0,5 0,10 c 0,1.108022 0.8919782,2 2,2 l 19.955078,0 -0.623047,-0.791016 0.05078,0.05859 c -0.249575,-0.2704 -0.385936,-0.780472 -0.259765,-1.263672 l -2.722656,0 c -0.533521,0 -1.063085,-0.435375 -1.234375,-0.796875 -0.171291,-0.3615 -0.184641,-0.660387 -0.181641,-0.929687 l 0.03516,-3.285156 -0.613281,-0.0098 c -0.548132,-0.0062 -1.164545,-0.43731 -1.330078,-0.91211 -0.165699,-0.4753 -0.196755,-0.851443 0.253906,-1.339843 l -0.05078,0.05859 4.138672,-5.251953 0.02734,-0.0293 c 0.174352,-0.1883 0.454144,-0.511718 1.029297,-0.511718 0.572877,0 0.856025,0.328172 1.027344,0.513672 l 0.02734,0.02734 4.138672,5.251953 -0.05078,-0.05859 c 0.249912,0.2707 0.385194,0.781725 0.257812,1.265625 l 2.724609,0 c 0.533521,0 1.063085,0.435375 1.234375,0.796875 0.171291,0.3615 0.184641,0.660387 0.181641,0.929687 l -0.03516,3.283203 0.611328,0.0098 c 0.134531,0.0013 0.273032,0.02923 0.408203,0.07617 L 32,11 C 32,9.8919782 31.108022,9 30,9 L 15,9 3,9 1,9 Z m 20.472656,6.429688 -2.808594,3.566406 1.378907,0.01563 L 19.988281,24 l 3.007813,0 0.01758,-4.998047 1.253906,-0.02539 -2.794922,-3.546874 z m 4.53125,6.566406 -0.01758,4.996094 -1.255859,0.02539 L 25.503906,28 l 4.044922,0 0.78711,-1 -1.378907,-0.01367 0.05469,-4.990234 -3.007813,0 z"
         style="opacity:1;fill:url(#linearGradient4283);fill-opacity:1;stroke:none;stroke-width:2;stroke-linecap:butt;stroke-linejoin:miter;stroke-miterlimit:4;stroke-dasharray:none;stroke-dashoffset:0;stroke-opacity:1" />
      <path
         inkscape:connector-curvature="0"
         id="path4237"
         transform="translate(0,1020.3621)"
         d="m 21.474609,13.996094 c -0.08817,0 -0.177361,0.06441 -0.294921,0.191406 l -4.115235,5.220703 c -0.11756,0.1274 -0.116704,0.569619 0.353516,0.574219 L 19.03125,20 18.984375,24.285156 C 18.980475,24.637856 19.074753,25 19.400391,25 l 4.115234,0 c 0.325643,0 0.468079,-0.377769 0.478516,-0.730469 l 0.01563,-4.287109 1.519531,-0.03125 c 0.470144,-0.01 0.588636,-0.288269 0.353515,-0.542969 L 21.767578,14.1875 c -0.117561,-0.1273 -0.204797,-0.191406 -0.292969,-0.191406 z m 4.009766,7 c -0.325643,0 -0.468079,0.377769 -0.478516,0.730468 l -0.01563,4.285157 -1.519531,0.03125 c -0.470144,0.01 -0.588636,0.288269 -0.353515,0.542969 l 4.115234,5.222656 C 27.349983,31.935894 27.437219,32 27.525391,32 c 0.08817,0 0.177361,-0.06441 0.294921,-0.191406 l 4.115235,-5.222656 c 0.11756,-0.127401 0.116704,-0.569619 -0.353516,-0.574219 l -1.613281,-0.01563 0.04687,-4.285156 c 0.0039,-0.3527 -0.09038,-0.714844 -0.416016,-0.714844 l -4.115234,0 z"
         style="fill:#99b000;fill-opacity:1;fill-rule:evenodd;stroke:none;stroke-width:1px;stroke-linecap:butt;stroke-linejoin:miter;stroke-opacity:1" />
    </g>
  </g>
</svg>
