<?xml version="1.0" encoding="UTF-8" standalone="no"?>
<!-- Created with Inkscape (http://www.inkscape.org/) -->

<svg
   xmlns:dc="http://purl.org/dc/elements/1.1/"
   xmlns:cc="http://creativecommons.org/ns#"
   xmlns:rdf="http://www.w3.org/1999/02/22-rdf-syntax-ns#"
   xmlns:svg="http://www.w3.org/2000/svg"
   xmlns="http://www.w3.org/2000/svg"
   xmlns:xlink="http://www.w3.org/1999/xlink"
   xmlns:sodipodi="http://sodipodi.sourceforge.net/DTD/sodipodi-0.dtd"
   xmlns:inkscape="http://www.inkscape.org/namespaces/inkscape"
   width="210mm"
   height="297mm"
   viewBox="0 0 744.09448819 1052.3622047"
   id="svg2"
   version="1.1"
   inkscape:version="0.91 r13725"
   sodipodi:docname="data-transfer.svg"
   inkscape:export-filename="C:\Users\johannes\Documents\Arbeit\RRZE\bi-con\bi-con\scalable\documents\document.png"
   inkscape:export-xdpi="4"
   inkscape:export-ydpi="4">
  <defs
     id="defs4">
    <linearGradient
       inkscape:collect="always"
       id="linearGradient4207">
      <stop
         style="stop-color:#abbe24;stop-opacity:1;"
         offset="0"
         id="stop4209" />
      <stop
         style="stop-color:#c1d53a;stop-opacity:1"
         offset="1"
         id="stop4211" />
    </linearGradient>
    <linearGradient
       inkscape:collect="always"
       id="linearGradient4197">
      <stop
         style="stop-color:#5a6578;stop-opacity:1;"
         offset="0"
         id="stop4199" />
      <stop
         style="stop-color:#9397a2;stop-opacity:1"
         offset="1"
         id="stop4201" />
    </linearGradient>
    <linearGradient
       id="linearGradient2224">
      <stop
         id="stop2226"
         offset="0"
         style="stop-color:#7c7c7c;stop-opacity:1;" />
      <stop
         id="stop2228"
         offset="1"
         style="stop-color:#b8b8b8;stop-opacity:1;" />
    </linearGradient>
    <linearGradient
       id="linearGradient15218">
      <stop
         id="stop15220"
         offset="0"
         style="stop-color:#eeeeef;stop-opacity:1;" />
      <stop
         id="stop2736"
         offset="0.59928656"
         style="stop-color:#d3d7cf;stop-opacity:1;" />
      <stop
         id="stop2738"
         offset="0.82758623"
         style="stop-color:#ffffff;stop-opacity:1;" />
      <stop
         id="stop15222"
         offset="1"
         style="stop-color:#d3d7cf;stop-opacity:1;" />
    </linearGradient>
    <pattern
       y="0"
       x="0"
       height="6"
       width="6"
       patternUnits="userSpaceOnUse"
       id="EMFhbasepattern" />
    <pattern
       y="0"
       x="0"
       height="6"
       width="6"
       patternUnits="userSpaceOnUse"
       id="EMFhbasepattern-5" />
    <linearGradient
       inkscape:collect="always"
       xlink:href="#linearGradient4197"
       id="linearGradient4203"
       x1="368.73889"
       y1="681.83826"
       x2="367.50522"
       y2="438.59399"
       gradientUnits="userSpaceOnUse" />
    <linearGradient
       inkscape:collect="always"
       xlink:href="#linearGradient4207"
       id="linearGradient4213"
       x1="466.42813"
       y1="437.52771"
       x2="467.31546"
       y2="398.96884"
       gradientUnits="userSpaceOnUse" />
    <linearGradient
       inkscape:collect="always"
       xlink:href="#linearGradient4207"
       id="linearGradient4270"
       x1="313.38321"
       y1="519.52325"
       x2="466.14624"
       y2="519.52325"
       gradientUnits="userSpaceOnUse"
       gradientTransform="matrix(0.86607521,0,0,0.86607521,77.733087,96.452476)" />
    <linearGradient
       inkscape:collect="always"
       xlink:href="#linearGradient4207"
       id="linearGradient4272"
       x1="412.96393"
       y1="623.95013"
       x2="565.72699"
       y2="623.95013"
       gradientUnits="userSpaceOnUse"
       gradientTransform="matrix(0.86607521,0,0,0.86607521,80.233087,98.952476)" />
  </defs>
  <sodipodi:namedview
     id="base"
     pagecolor="#ffffff"
     bordercolor="#666666"
     borderopacity="1.0"
     inkscape:pageopacity="0.0"
     inkscape:pageshadow="2"
     inkscape:zoom="1"
     inkscape:cx="408.17343"
     inkscape:cy="509.33632"
     inkscape:document-units="px"
     inkscape:current-layer="layer1"
     showgrid="false"
     showguides="true"
     inkscape:guide-bbox="true"
     inkscape:window-width="1366"
     inkscape:window-height="721"
     inkscape:window-x="-4"
     inkscape:window-y="-4"
     inkscape:window-maximized="1">
    <sodipodi:guide
       position="315.53572,730.17859"
       orientation="0,1"
       id="guide3338" />
    <sodipodi:guide
       position="351.25,330.17858"
       orientation="0,1"
       id="guide3340" />
    <sodipodi:guide
       position="189.10714,408.8393"
       orientation="1,0"
       id="guide3344" />
    <sodipodi:guide
       position="589.04521,468.07945"
       orientation="1,0"
       id="guide3346" />
    <inkscape:grid
       type="xygrid"
       id="grid3440" />
    <sodipodi:guide
       position="0,0"
       orientation="0,1"
       id="guide3405" />
    <sodipodi:guide
       position="214.125,684.50002"
       orientation="1,0"
       id="guide3407" />
    <sodipodi:guide
       position="0,0"
       orientation="0,1"
       id="guide3409" />
    <sodipodi:guide
       position="589.04521,378.30213"
       orientation="1,0"
       id="guide3411" />
    <sodipodi:guide
       position="564.00001,683.37502"
       orientation="1,0"
       id="guide3413" />
    <sodipodi:guide
       position="0,0"
       orientation="0,1"
       id="guide4168" />
  </sodipodi:namedview>
  <metadata
     id="metadata7">
    <rdf:RDF>
      <cc:Work
         rdf:about="">
        <dc:format>image/svg+xml</dc:format>
        <dc:type
           rdf:resource="http://purl.org/dc/dcmitype/StillImage" />
        <dc:title />
      </cc:Work>
    </rdf:RDF>
  </metadata>
  <g
     inkscape:label="Ebene 1"
     inkscape:groupmode="layer"
     id="layer1">
    <flowRoot
       xml:space="preserve"
       id="flowRoot4169"
       style="font-style:normal;font-weight:normal;font-size:40px;line-height:125%;font-family:sans-serif;letter-spacing:0px;word-spacing:0px;fill:#000000;fill-opacity:1;stroke:none;stroke-width:1px;stroke-linecap:butt;stroke-linejoin:miter;stroke-opacity:1"><flowRegion
         id="flowRegion4171"><rect
           id="rect4173"
           width="56.433445"
           height="88.78862"
           x="89.541069"
           y="427.07962" /></flowRegion><flowPara
         id="flowPara4175" /></flowRoot>    <rect
       style="fill:none;fill-rule:evenodd;stroke:none;stroke-width:1px;stroke-linecap:butt;stroke-linejoin:miter;stroke-opacity:1"
       id="rect3336"
       width="400"
       height="400"
       x="189.14485"
       y="322.27005"
       inkscape:export-xdpi="4.9499998"
       inkscape:export-ydpi="4.9499998" />
    <g
       id="g4169"
       transform="translate(0,-72)">
      <path
         sodipodi:nodetypes="ssccssssssccss"
         inkscape:connector-curvature="0"
         id="rect4182"
         d="m 212.9437,404.36455 c -8.48119,0 -15.32465,7.09685 -15.32465,15.58227 l 0,39.82326 0,10.72165 0,188.39465 c 0,12.7281 10.24174,22.97495 22.96352,22.97495 l 336.79831,0 c 12.72176,0 22.96351,-10.24685 22.96351,-22.97495 l 0,-199.1163 c 0,-12.72811 -10.24175,-22.97496 -22.96351,-22.97496 l -221.61593,0 -8.01929,-16.8483 c -3.64633,-7.66112 -6.8122,-15.58227 -15.29337,-15.58227 z"
         style="opacity:1;fill:url(#linearGradient4203);fill-opacity:1;stroke:none;stroke-width:0;stroke-linecap:square;stroke-linejoin:round;stroke-miterlimit:4;stroke-dasharray:none;stroke-opacity:1" />
      <path
         sodipodi:nodetypes="ccccccc"
         inkscape:connector-curvature="0"
         id="path4205"
         d="m 338.4974,433.18542 -12.81802,-23.76256 234.86827,-0.0329 c 7.67041,0.0285 11.63345,3.8327 11.71752,10.78338 l 2.40901,21.02945 C 570.04101,435.17572 567.93614,434.75221 560,433.3622 Z"
         style="fill:url(#linearGradient4213);fill-opacity:1;fill-rule:evenodd;stroke:none;stroke-width:1px;stroke-linecap:butt;stroke-linejoin:miter;stroke-opacity:1" />
    </g>
    <rect
       style="fill:none;fill-rule:evenodd;stroke:none;stroke-width:1px;stroke-linecap:butt;stroke-linejoin:miter;stroke-opacity:1"
       id="rect3336-7"
       width="157.80852"
       height="157.80852"
       x="422.61493"
       y="-715.66254"
       inkscape:export-xdpi="4.9499998"
       inkscape:export-ydpi="4.9499998"
       transform="scale(1,-1)" />
    <path
       style="fill:none;fill-opacity:1;fill-rule:evenodd;stroke:#ffffff;stroke-width:30;stroke-linecap:butt;stroke-linejoin:round;stroke-miterlimit:4;stroke-dasharray:none;stroke-opacity:1"
       d="m 505.67851,715.77024 c -1.29617,0 -2.59232,-0.8673 -4.32053,-2.60189 L 440.87053,642.0502 c -3.45642,-3.46918 -1.72821,-8.67294 5.18464,-8.67294 l 20.73855,0 0,-60.71063 c 0,-4.80481 3.85393,-8.67294 8.64107,-8.67294 l 60.48744,0 c 4.78714,0 8.64106,3.86813 8.64106,8.67294 l 0,60.71063 20.73856,0 c 6.91284,0 6.91284,6.93835 5.18463,8.67294 l -60.48744,71.11815 c -1.72822,1.73459 -3.02438,2.60189 -4.32053,2.60189 z"
       id="path4237-2"
       inkscape:connector-curvature="0" />
    <path
       style="fill:none;fill-opacity:1;fill-rule:evenodd;stroke:#ffffff;stroke-width:30;stroke-linecap:butt;stroke-linejoin:round;stroke-miterlimit:4;stroke-dasharray:none;stroke-opacity:1"
       d="m 416.93411,471.05215 c -1.29617,0 -2.59233,0.8673 -4.32054,2.60189 l -60.48744,71.11815 c -3.45642,3.46918 -1.72821,8.67294 5.18464,8.67294 l 20.73855,0 0,60.71063 c 0,4.80481 3.85393,8.67294 8.64106,8.67294 l 60.48745,0 c 4.78714,0 8.64106,-3.86813 8.64106,-8.67294 l 0,-60.71063 20.73856,0 c 6.91284,0 6.91284,-6.93835 5.18463,-8.67294 l -60.48744,-71.11815 c -1.72822,-1.73459 -3.02438,-2.60189 -4.32053,-2.60189 z"
       id="path4237-7-9"
       inkscape:connector-curvature="0" />
    <path
       style="fill:url(#linearGradient4272);fill-opacity:1;fill-rule:evenodd;stroke:none;stroke-width:1px;stroke-linecap:butt;stroke-linejoin:miter;stroke-opacity:1"
       d="m 504.42711,715.2285 c -1.29617,0 -2.59233,-0.8673 -4.32054,-2.60189 l -60.48744,-71.11815 c -3.45642,-3.46918 -1.72821,-8.67294 5.18464,-8.67294 l 20.73855,0 0,-60.71063 c 0,-4.80481 3.85393,-8.67294 8.64106,-8.67294 l 60.48745,0 c 4.78714,0 8.64106,3.86813 8.64106,8.67294 l 0,60.71063 20.73856,0 c 6.91284,0 6.91284,6.93835 5.18463,8.67294 l -60.48744,71.11815 c -1.72822,1.73459 -3.02438,2.60189 -4.32053,2.60189 z"
       id="path4237"
       inkscape:connector-curvature="0" />
    <rect
       style="fill:none;fill-rule:evenodd;stroke:none;stroke-width:1px;stroke-linecap:butt;stroke-linejoin:miter;stroke-opacity:1"
       id="rect3336-7-7"
       width="157.80852"
       height="157.80852"
       x="339.83481"
       y="471.04068"
       inkscape:export-xdpi="4.9499998"
       inkscape:export-ydpi="4.9499998" />
    <path
       style="fill:url(#linearGradient4270);fill-opacity:1;fill-rule:evenodd;stroke:none;stroke-width:1px;stroke-linecap:butt;stroke-linejoin:miter;stroke-opacity:1"
       d="m 415.68271,470.51041 c -1.29617,0 -2.59233,0.8673 -4.32054,2.60189 l -60.48744,71.11815 c -3.45642,3.46918 -1.72821,8.67295 5.18463,8.67295 l 20.73856,0 0,60.71062 c 0,4.80481 3.85393,8.67294 8.64106,8.67294 l 60.48745,0 c 4.78713,0 8.64106,-3.86813 8.64106,-8.67294 l 0,-60.71062 20.73856,0 c 6.91284,0 6.91284,-6.93836 5.18463,-8.67295 L 420.00324,473.1123 c -1.72822,-1.73459 -3.02438,-2.60189 -4.32053,-2.60189 z"
       id="path4237-7"
       inkscape:connector-curvature="0" />
  </g>
</svg>
