<?xml version="1.0" encoding="UTF-8" standalone="no"?>
<!-- Created with Inkscape (http://www.inkscape.org/) -->

<svg
   xmlns:dc="http://purl.org/dc/elements/1.1/"
   xmlns:cc="http://creativecommons.org/ns#"
   xmlns:rdf="http://www.w3.org/1999/02/22-rdf-syntax-ns#"
   xmlns:svg="http://www.w3.org/2000/svg"
   xmlns="http://www.w3.org/2000/svg"
   xmlns:xlink="http://www.w3.org/1999/xlink"
   xmlns:sodipodi="http://sodipodi.sourceforge.net/DTD/sodipodi-0.dtd"
   xmlns:inkscape="http://www.inkscape.org/namespaces/inkscape"
   width="210mm"
   height="297mm"
   viewBox="0 0 744.09448819 1052.3622047"
   id="svg2"
   version="1.1"
   inkscape:version="0.91 r13725"
   inkscape:export-xdpi="7.1999631"
   inkscape:export-ydpi="7.1999631"
   sodipodi:docname="data-transfer.svg"
   inkscape:export-filename="C:\Users\johannes\Documents\Arbeit\RRZE\github3\bicons\32x32\actions\data-transfer.png">
  <defs
     id="defs4">
    <linearGradient
       inkscape:collect="always"
       xlink:href="#linearGradient4321"
       id="linearGradient4203"
       x1="249.23784"
       y1="681.41742"
       x2="511.04788"
       y2="441.42242"
       gradientUnits="userSpaceOnUse"
       gradientTransform="matrix(0.94846087,0,0,0.94846087,-167.81274,-308.95663)" />
    <linearGradient
       id="linearGradient4321"
       inkscape:collect="always">
      <stop
         id="stop4323"
         offset="0"
         style="stop-color:#4e505d;stop-opacity:1;" />
      <stop
         id="stop4325"
         offset="1"
         style="stop-color:#7a8597;stop-opacity:1" />
    </linearGradient>
  </defs>
  <sodipodi:namedview
     id="base"
     pagecolor="#ffffff"
     bordercolor="#666666"
     borderopacity="1.0"
     inkscape:pageopacity="0.0"
     inkscape:pageshadow="2"
     inkscape:zoom="0.5"
     inkscape:cx="162.54636"
     inkscape:cy="570.57653"
     inkscape:document-units="px"
     inkscape:current-layer="layer1"
     showgrid="false"
     showguides="true"
     inkscape:guide-bbox="true"
     inkscape:window-width="1366"
     inkscape:window-height="721"
     inkscape:window-x="-4"
     inkscape:window-y="-4"
     inkscape:window-maximized="1"
     inkscape:snap-bbox="true"
     inkscape:bbox-paths="true"
     inkscape:bbox-nodes="true"
     inkscape:snap-nodes="false">
    <sodipodi:guide
       position="315.53572,730.17859"
       orientation="0,1"
       id="guide3338" />
    <sodipodi:guide
       position="351.25,330.17858"
       orientation="0,1"
       id="guide3340" />
    <sodipodi:guide
       position="189.10714,408.8393"
       orientation="1,0"
       id="guide3344" />
    <sodipodi:guide
       position="589.04521,540.22959"
       orientation="1,0"
       id="guide3346" />
    <inkscape:grid
       type="xygrid"
       id="grid3440" />
    <sodipodi:guide
       position="0,0"
       orientation="0,1"
       id="guide3405" />
    <sodipodi:guide
       position="0,0"
       orientation="0,1"
       id="guide3409" />
    <sodipodi:guide
       position="589.04521,378.30213"
       orientation="1,0"
       id="guide3411" />
    <sodipodi:guide
       position="0,0"
       orientation="0,1"
       id="guide4168" />
  </sodipodi:namedview>
  <metadata
     id="metadata7">
    <rdf:RDF>
      <cc:Work
         rdf:about="">
        <dc:format>image/svg+xml</dc:format>
        <dc:type
           rdf:resource="http://purl.org/dc/dcmitype/StillImage" />
        <dc:title>data transfer</dc:title>
        <dc:date>June 2015</dc:date>
        <dc:creator>
          <cc:Agent>
            <dc:title>Johannes Hechler</dc:title>
          </cc:Agent>
        </dc:creator>
        <dc:rights>
          <cc:Agent>
            <dc:title>Johannes Hechler</dc:title>
          </cc:Agent>
        </dc:rights>
        <dc:publisher>
          <cc:Agent>
            <dc:title>RRZE</dc:title>
          </cc:Agent>
        </dc:publisher>
        <dc:contributor>
          <cc:Agent>
            <dc:title>Ute Weber, Hendrik Eggers</dc:title>
          </cc:Agent>
        </dc:contributor>
      </cc:Work>
    </rdf:RDF>
  </metadata>
  <g
     inkscape:label="Ebene 1"
     inkscape:groupmode="layer"
     id="layer1">
    <g
       transform="translate(189.10714,-330.17849)"
       id="g4599">
      <flowRoot
         transform="translate(-189.14485,330.09209)"
         style="font-style:normal;font-weight:normal;font-size:40px;line-height:125%;font-family:sans-serif;letter-spacing:0px;word-spacing:0px;fill:#252525;fill-opacity:1;stroke:none;stroke-width:1px;stroke-linecap:butt;stroke-linejoin:miter;stroke-opacity:1"
         id="flowRoot4169"
         xml:space="preserve"><flowRegion
           id="flowRegion4171"><rect
             y="427.07962"
             x="89.541069"
             height="88.78862"
             width="56.433445"
             id="rect4173" /></flowRegion><flowPara
           id="flowPara4175" /></flowRoot>      <rect
         inkscape:export-ydpi="4.9499998"
         inkscape:export-xdpi="4.9499998"
         y="652.36212"
         x="1.6845703e-006"
         height="400"
         width="400"
         id="rect3336"
         style="fill:none;fill-rule:evenodd;stroke:none;stroke-width:1px;stroke-linecap:butt;stroke-linejoin:miter;stroke-opacity:1" />
      <path
         inkscape:connector-curvature="0"
         id="rect4182"
         transform="translate(0,652.36214)"
         d="m 19.621094,105.26562 0,21.85157 0,10.16992 0,178.68359 c 0,12.07212 9.713187,21.79102 21.779297,21.79102 l 221.263669,0 c -1.15268,-2.80141 -1.83566,-5.90843 -1.87695,-9.06641 l -34.36133,0 c -14.09186,0 -25.93164,-11.92413 -25.93164,-25.96093 l 0,-37.72266 -1.0332,0 c -7.6877,0 -17.52597,-3.66238 -22.0586,-12.75586 -4.27656,-8.57978 -1.61515,-18.82719 3.58789,-24.86524 l 55.51758,-65.27539 a 18.0018,18.0018 0 0 1 0.95899,-1.04296 c 2.64673,-2.6565 7.49381,-7.6836 16.71875,-7.6836 9.22505,0 14.07527,5.03235 16.71679,7.6836 a 18.0018,18.0018 0 0 1 0.95899,1.04296 l 55.21875,64.92383 c 4.03305,4.33092 4.69804,7.88299 5.20508,11.24414 0.21938,1.4545 0.22808,2.92651 0.17968,4.41211 l 34.93164,0 c 5.64073,0 10.91971,1.91504 15.22461,5.10938 l 0,-120.6875 c 0,-12.07212 -9.71516,-21.79102 -21.78125,-21.79102 -122.436,0.0617 -219.09099,-0.0606 -341.218746,-0.0606 z M 254.18359,196.89648 225.60547,230.5 a 18.0018,18.0018 0 0 1 10.88867,16.51172 l 0,45.68359 35.38086,0 0,-45.68359 a 18.0018,18.0018 0 0 1 10.87891,-16.52344 l -28.57032,-33.5918 z m 67.76368,81.79883 0,45.68164 a 18.0018,18.0018 0 0 1 -5.9961,13.38477 l 44.88867,0 c 0.79797,0 1.58607,-0.046 2.36133,-0.12891 a 18.0018,18.0018 0 0 1 -5.875,-13.25586 l 0,-45.68164 -35.3789,0 z"
         style="opacity:1;fill:url(#linearGradient4203);fill-opacity:1;stroke:none;stroke-width:0;stroke-linecap:square;stroke-linejoin:round;stroke-miterlimit:4;stroke-dasharray:none;stroke-opacity:1" />
      <path
         style="opacity:1;fill:#99b000;fill-opacity:1;stroke:none;stroke-width:0;stroke-linecap:square;stroke-linejoin:round;stroke-miterlimit:4;stroke-dasharray:none;stroke-opacity:1"
         d="m 32.156544,714.73001 c -8.04407,0 -12.536216,10.73121 -12.536216,18.77929 l 0,13.62057 139.047982,0 c -10.93747,-13.88321 -18.42388,-31.9945 -32.13176,-32.39986 z"
         id="path4158"
         inkscape:connector-curvature="0"
         sodipodi:nodetypes="sscccs" />
      <path
         inkscape:connector-curvature="0"
         id="path4237"
         transform="translate(0,652.36214)"
         d="m 254.18555,171.38867 c -1.18967,0 -2.38059,0.79661 -3.9668,2.38867 l -55.51758,65.27539 c -3.17242,3.1842 -1.58507,7.95899 4.75977,7.95899 l 19.0332,0 0,55.72266 c 0,4.40999 3.53785,7.96093 7.93164,7.96093 l 55.51758,0 c 4.39379,0 7.93164,-3.55094 7.93164,-7.96093 l 0,-55.72266 19.0332,0 c 6.34484,0 6.34598,-6.36689 4.75977,-7.95899 l -55.51758,-65.27539 c -1.58622,-1.59206 -2.77519,-2.38867 -3.96484,-2.38867 z m 57.69336,89.30664 c -4.39379,0 -7.93164,3.54899 -7.93164,7.95899 l 0,55.72265 -19.03516,0 c -6.34484,0 -7.93023,4.77684 -4.75781,7.96094 l 55.51758,65.27344 c 1.58621,1.592 2.77517,2.38867 3.96484,2.38867 1.18965,0 2.38059,-0.79667 3.9668,-2.38867 l 55.51757,-65.27344 c 1.58621,-1.592 1.58507,-7.96094 -4.75976,-7.96094 l -19.03516,0 0,-55.72265 c 0,-4.41 -3.5359,-7.95899 -7.92969,-7.95899 l -55.51757,0 z"
         style="fill:#99b000;fill-opacity:1;fill-rule:evenodd;stroke:none;stroke-width:1px;stroke-linecap:butt;stroke-linejoin:miter;stroke-opacity:1" />
    </g>
  </g>
</svg>
