<?xml version="1.0" encoding="UTF-8" standalone="no"?>
<!-- Created with Inkscape (http://www.inkscape.org/) -->

<svg
   xmlns:dc="http://purl.org/dc/elements/1.1/"
   xmlns:cc="http://creativecommons.org/ns#"
   xmlns:rdf="http://www.w3.org/1999/02/22-rdf-syntax-ns#"
   xmlns:svg="http://www.w3.org/2000/svg"
   xmlns="http://www.w3.org/2000/svg"
   xmlns:xlink="http://www.w3.org/1999/xlink"
   xmlns:sodipodi="http://sodipodi.sourceforge.net/DTD/sodipodi-0.dtd"
   xmlns:inkscape="http://www.inkscape.org/namespaces/inkscape"
   width="210mm"
   height="297mm"
   viewBox="0 0 744.09448819 1052.3622047"
   id="svg2"
   version="1.1"
   inkscape:version="0.91 r13725"
   inkscape:export-xdpi="7.2000008"
   inkscape:export-ydpi="7.2000008"
   sodipodi:docname="dial-in.svg"
   inkscape:export-filename="C:\Users\johannes\Documents\Arbeit\RRZE\github3\bicons\32x32\actions\dial-in.png">
  <defs
     id="defs4">
    <linearGradient
       inkscape:collect="always"
       xlink:href="#linearGradient4321"
       id="linearGradient4316"
       x1="197.17188"
       y1="605.86133"
       x2="709.18164"
       y2="752.86133"
       gradientUnits="userSpaceOnUse"
       gradientTransform="matrix(0.90576913,0,0,0.90576913,-152.64048,-280.20965)" />
    <linearGradient
       id="linearGradient4321"
       inkscape:collect="always">
      <stop
         id="stop4323"
         offset="0"
         style="stop-color:#4e505d;stop-opacity:1;" />
      <stop
         id="stop4325"
         offset="1"
         style="stop-color:#7a8597;stop-opacity:1" />
    </linearGradient>
  </defs>
  <sodipodi:namedview
     id="base"
     pagecolor="#ffffff"
     bordercolor="#666666"
     borderopacity="1.0"
     inkscape:pageopacity="0.0"
     inkscape:pageshadow="2"
     inkscape:zoom="1"
     inkscape:cx="376.63288"
     inkscape:cy="567.55043"
     inkscape:document-units="px"
     inkscape:current-layer="layer1"
     showgrid="false"
     showguides="true"
     inkscape:guide-bbox="true"
     inkscape:window-width="1366"
     inkscape:window-height="721"
     inkscape:window-x="-4"
     inkscape:window-y="-4"
     inkscape:window-maximized="1"
     inkscape:snap-bbox="true"
     inkscape:bbox-paths="true"
     inkscape:bbox-nodes="true"
     inkscape:object-paths="true"
     inkscape:snap-nodes="false">
    <sodipodi:guide
       position="315.53572,730.17859"
       orientation="0,1"
       id="guide3338" />
    <sodipodi:guide
       position="351.25,330.17858"
       orientation="0,1"
       id="guide3340" />
    <sodipodi:guide
       position="189.10714,408.8393"
       orientation="1,0"
       id="guide3344" />
    <sodipodi:guide
       position="589.04521,468.07945"
       orientation="1,0"
       id="guide3346" />
    <inkscape:grid
       type="xygrid"
       id="grid3440" />
    <sodipodi:guide
       position="589.04521,378.30213"
       orientation="1,0"
       id="guide3411" />
  </sodipodi:namedview>
  <metadata
     id="metadata7">
    <rdf:RDF>
      <cc:Work
         rdf:about="">
        <dc:format>image/svg+xml</dc:format>
        <dc:type
           rdf:resource="http://purl.org/dc/dcmitype/StillImage" />
        <dc:title>dial in</dc:title>
        <dc:creator>
          <cc:Agent>
            <dc:title>Johannes Hechler</dc:title>
          </cc:Agent>
        </dc:creator>
        <dc:rights>
          <cc:Agent>
            <dc:title>Johannes Hechler</dc:title>
          </cc:Agent>
        </dc:rights>
        <dc:publisher>
          <cc:Agent>
            <dc:title>RRZE</dc:title>
          </cc:Agent>
        </dc:publisher>
        <dc:date>June 2015</dc:date>
        <dc:contributor>
          <cc:Agent>
            <dc:title>Ute Weber, Hendrik Eggers, Joanna Barbach</dc:title>
          </cc:Agent>
        </dc:contributor>
        <dc:subject>
          <rdf:Bag>
            <rdf:li>dial in</rdf:li>
            <rdf:li>data cannection</rdf:li>
            <rdf:li>access</rdf:li>
            <rdf:li>RADIUS</rdf:li>
          </rdf:Bag>
        </dc:subject>
        <cc:license
           rdf:resource="http://creativecommons.org/licenses/by-sa/3.0/" />
      </cc:Work>
      <cc:License
         rdf:about="http://creativecommons.org/licenses/by-sa/3.0/">
        <cc:permits
           rdf:resource="http://creativecommons.org/ns#Reproduction" />
        <cc:permits
           rdf:resource="http://creativecommons.org/ns#Distribution" />
        <cc:requires
           rdf:resource="http://creativecommons.org/ns#Notice" />
        <cc:requires
           rdf:resource="http://creativecommons.org/ns#Attribution" />
        <cc:permits
           rdf:resource="http://creativecommons.org/ns#DerivativeWorks" />
        <cc:requires
           rdf:resource="http://creativecommons.org/ns#ShareAlike" />
      </cc:License>
    </rdf:RDF>
  </metadata>
  <g
     inkscape:label="Ebene 1"
     inkscape:groupmode="layer"
     id="layer1">
    <g
       transform="translate(189.10567,-330.17849)"
       id="g4723">
      <flowRoot
         style="font-style:normal;font-weight:normal;font-size:40px;line-height:125%;font-family:sans-serif;letter-spacing:0px;word-spacing:0px;fill:#252525;fill-opacity:1;stroke:none;stroke-width:1px;stroke-linecap:butt;stroke-linejoin:miter;stroke-opacity:1"
         id="flowRoot4169"
         xml:space="preserve"
         transform="translate(-189.14339,330.09208)"><flowRegion
           id="flowRegion4171"><rect
             y="427.07962"
             x="89.541069"
             height="88.78862"
             width="56.433445"
             id="rect4173" /></flowRegion><flowPara
           id="flowPara4175" /></flowRoot>      <rect
         inkscape:export-ydpi="4.9499998"
         inkscape:export-xdpi="4.9499998"
         y="652.36212"
         x="0.0014698198"
         height="400"
         width="400"
         id="rect3336"
         style="fill:none;fill-rule:evenodd;stroke:none;stroke-width:1px;stroke-linecap:butt;stroke-linejoin:miter;stroke-opacity:1" />
      <path
         inkscape:connector-curvature="0"
         id="rect4178"
         transform="translate(0,652.36214)"
         d="m 299.75781,160.99805 a 23.511301,22.98097 0 0 0 -23.51172,22.98047 23.511301,22.98097 0 0 0 14.94141,21.37695 l 0,68.63867 -162.99219,0 -10.17578,10.41602 c -0.0997,0.10146 -0.20063,0.20171 -0.30273,0.30078 -3.14222,3.067 -8.38381,8.14844 -17.744144,8.14844 -1.59064,-10e-4 -3.174091,-0.21344 -4.708984,-0.63086 -6.40958,-1.3452 -10.48381,-5.02538 -13.03711,-7.51758 -0.121493,-0.11876 -0.241292,-0.23917 -0.359374,-0.36133 l -10.025391,-10.35547 -35.322266,0 c -10.2868,0 -18.566406,8.28156 -18.566406,18.56836 l 0,53.70508 c 0,10.28675 8.279606,18.56836 18.566406,18.56836 l 327.783199,0 c 10.28681,0 18.56836,-8.28161 18.56836,-18.56836 l 0,-53.70508 c 0,-10.2868 -8.28155,-18.56836 -18.56836,-18.56836 l -54.06054,0 0,-69.45703 a 23.511301,22.98097 0 0 0 13.02734,-20.55859 23.511301,22.98097 0 0 0 -23.51172,-22.98047 z"
         style="opacity:1;fill:url(#linearGradient4316);fill-opacity:1;stroke:none;stroke-width:8.19999981;stroke-linecap:round;stroke-linejoin:round;stroke-miterlimit:4;stroke-dasharray:none;stroke-opacity:1" />
      <rect
         ry="9.1150446"
         y="962.94818"
         x="54.751453"
         height="18.230089"
         width="18.261721"
         id="rect4277"
         style="color:#000000;clip-rule:nonzero;display:inline;overflow:visible;visibility:visible;opacity:1;isolation:auto;mix-blend-mode:normal;color-interpolation:sRGB;color-interpolation-filters:linearRGB;solid-color:#000000;solid-opacity:1;fill:#ffffff;fill-opacity:1;fill-rule:nonzero;stroke:none;stroke-width:25.18300056;stroke-linecap:square;stroke-linejoin:round;stroke-miterlimit:4;stroke-dasharray:none;stroke-dashoffset:0;stroke-opacity:1;color-rendering:auto;image-rendering:auto;shape-rendering:auto;text-rendering:auto;enable-background:accumulate" />
      <rect
         ry="9.0876703"
         y="962.94818"
         x="91.27491"
         height="18.230089"
         width="18.175341"
         id="rect4279"
         style="color:#000000;clip-rule:nonzero;display:inline;overflow:visible;visibility:visible;opacity:1;isolation:auto;mix-blend-mode:normal;color-interpolation:sRGB;color-interpolation-filters:linearRGB;solid-color:#000000;solid-opacity:1;fill:#ffffff;fill-opacity:1;fill-rule:nonzero;stroke:none;stroke-width:25.18300056;stroke-linecap:square;stroke-linejoin:round;stroke-miterlimit:4;stroke-dasharray:none;stroke-dashoffset:0;stroke-opacity:1;color-rendering:auto;image-rendering:auto;shape-rendering:auto;text-rendering:auto;enable-background:accumulate" />
      <rect
         ry="9.0805197"
         y="962.94818"
         x="127.6113"
         height="18.230089"
         width="18.161039"
         id="rect4281"
         style="color:#000000;clip-rule:nonzero;display:inline;overflow:visible;visibility:visible;opacity:1;isolation:auto;mix-blend-mode:normal;color-interpolation:sRGB;color-interpolation-filters:linearRGB;solid-color:#000000;solid-opacity:1;fill:#ffffff;fill-opacity:1;fill-rule:nonzero;stroke:none;stroke-width:25.18300056;stroke-linecap:square;stroke-linejoin:round;stroke-miterlimit:4;stroke-dasharray:none;stroke-dashoffset:0;stroke-opacity:1;color-rendering:auto;image-rendering:auto;shape-rendering:auto;text-rendering:auto;enable-background:accumulate" />
      <rect
         ry="9.0805197"
         y="962.94818"
         x="182.09445"
         height="18.230089"
         width="182.09381"
         id="rect4283"
         style="color:#000000;clip-rule:nonzero;display:inline;overflow:visible;visibility:visible;opacity:1;isolation:auto;mix-blend-mode:normal;color-interpolation:sRGB;color-interpolation-filters:linearRGB;solid-color:#000000;solid-opacity:1;fill:#ffffff;fill-opacity:1;fill-rule:nonzero;stroke:none;stroke-width:25.18300056;stroke-linecap:square;stroke-linejoin:round;stroke-miterlimit:4;stroke-dasharray:none;stroke-dashoffset:0;stroke-opacity:1;color-rendering:auto;image-rendering:auto;shape-rendering:auto;text-rendering:auto;enable-background:accumulate" />
      <path
         style="fill:#99b000;fill-opacity:1;fill-rule:evenodd;stroke:none;stroke-width:1px;stroke-linecap:butt;stroke-linejoin:miter;stroke-opacity:1"
         d="m 99.971537,927.22315 c 1.551843,0 3.103663,-1.0098 5.172773,-3.0294 l 75.22359,-76.99302 c 4.13822,-4.03925 2.06896,-10.04817 -6.20732,-10.0981 l -27.52728,-0.16606 -0.32579,-81.39869 c -0.0224,-5.59429 -4.69412,-9.70317 -10.42555,-9.70761 l -71.418407,-0.0553 c -5.73141,-0.004 -10.2879,4.1133 -10.26551,9.70761 l 0.32576,81.39868 -29.80767,0 c -8.27642,0 -8.41868,6.83847 -4.0865,10.69609 l 74.169164,76.6163 c 2.06909,2.0196 3.62092,3.0294 5.17274,3.0294 z"
         id="path4331"
         inkscape:connector-curvature="0"
         sodipodi:nodetypes="cccscsssscsccsc" />
      <path
         style="fill:#99b000"
         d="m 301.08189,714.50373 c -30.80488,0 -59.77923,12.07141 -81.58307,33.99203 -4.20743,4.2318 -4.2128,11.09745 -0.01,15.33654 4.20117,4.23807 11.0196,4.24242 15.22701,0.01 17.73649,-17.83199 41.30594,-27.65233 66.36569,-27.65233 25.05979,0 48.62683,9.8193 66.3633,27.65233 2.10113,2.1138 4.85581,3.17107 7.60749,3.17107 2.75789,0 5.5177,-1.06311 7.62193,-3.1832 4.2022,-4.23909 4.19481,-11.10231 -0.0143,-15.33411 -21.80204,-21.9205 -50.7716,-33.99191 -81.57858,-33.99191 z m -2.32798,39.90505 c -15.30021,0 -29.69671,5.99047 -40.53634,16.86876 -4.21366,4.2276 -4.22125,11.09083 -0.024,15.33411 4.19704,4.24221 11.01547,4.25318 15.22701,0.0266 6.77649,-6.79904 15.77241,-10.54357 25.33582,-10.54357 9.56344,0 18.55903,3.74453 25.33342,10.54357 2.09905,2.10963 4.85034,3.16381 7.59787,3.16381 2.76205,0 5.52249,-1.06518 7.62674,-3.19048 4.19698,-4.24327 4.18648,-11.1065 -0.024,-15.33411 -10.83966,-10.87728 -25.23608,-16.86876 -40.53637,-16.86876 z"
         id="path13"
         inkscape:connector-curvature="0" />
    </g>
  </g>
</svg>
