<?xml version="1.0" encoding="UTF-8" standalone="no"?>
<!-- Created with Inkscape (http://www.inkscape.org/) -->

<svg
   xmlns:dc="http://purl.org/dc/elements/1.1/"
   xmlns:cc="http://creativecommons.org/ns#"
   xmlns:rdf="http://www.w3.org/1999/02/22-rdf-syntax-ns#"
   xmlns:svg="http://www.w3.org/2000/svg"
   xmlns="http://www.w3.org/2000/svg"
   xmlns:xlink="http://www.w3.org/1999/xlink"
   xmlns:sodipodi="http://sodipodi.sourceforge.net/DTD/sodipodi-0.dtd"
   xmlns:inkscape="http://www.inkscape.org/namespaces/inkscape"
   width="210mm"
   height="297mm"
   viewBox="0 0 744.09448819 1052.3622047"
   id="svg2"
   version="1.1"
   inkscape:version="0.91 r13725"
   inkscape:export-xdpi="4"
   inkscape:export-ydpi="4"
   sodipodi:docname="export-green.svg">
  <defs
     id="defs4">
    <linearGradient
       inkscape:collect="always"
       xlink:href="#linearGradient4321"
       id="linearGradient4201"
       x1="286.38269"
       y1="672.9209"
       x2="532.51678"
       y2="367.74933"
       gradientUnits="userSpaceOnUse"
       gradientTransform="matrix(1.1363532,0,0,1.1363532,-56.476052,-53.252648)" />
    <linearGradient
       id="linearGradient4321"
       inkscape:collect="always">
      <stop
         id="stop4323"
         offset="0"
         style="stop-color:#4e505d;stop-opacity:1;" />
      <stop
         id="stop4325"
         offset="1"
         style="stop-color:#7a8597;stop-opacity:1" />
    </linearGradient>
  </defs>
  <sodipodi:namedview
     id="base"
     pagecolor="#ffffff"
     bordercolor="#666666"
     borderopacity="1.0"
     inkscape:pageopacity="0.0"
     inkscape:pageshadow="2"
     inkscape:zoom="1"
     inkscape:cx="189.88566"
     inkscape:cy="442.11112"
     inkscape:document-units="px"
     inkscape:current-layer="layer1"
     showgrid="false"
     showguides="true"
     inkscape:guide-bbox="true"
     inkscape:window-width="1600"
     inkscape:window-height="837"
     inkscape:window-x="-4"
     inkscape:window-y="-4"
     inkscape:window-maximized="1"
     inkscape:snap-bbox="true"
     inkscape:bbox-paths="true"
     inkscape:bbox-nodes="true">
    <sodipodi:guide
       position="315.53572,730.17859"
       orientation="0,1"
       id="guide3338" />
    <sodipodi:guide
       position="351.25,330.17858"
       orientation="0,1"
       id="guide3340" />
    <sodipodi:guide
       position="189.10714,408.8393"
       orientation="1,0"
       id="guide3344" />
    <inkscape:grid
       type="xygrid"
       id="grid3440" />
    <sodipodi:guide
       position="0,0"
       orientation="0,1"
       id="guide3405" />
    <sodipodi:guide
       position="214.125,684.50002"
       orientation="1,0"
       id="guide3407" />
    <sodipodi:guide
       position="0,0"
       orientation="0,1"
       id="guide3409" />
    <sodipodi:guide
       position="589.04521,378.30213"
       orientation="1,0"
       id="guide3411" />
    <sodipodi:guide
       position="564.00001,683.37502"
       orientation="1,0"
       id="guide3413" />
  </sodipodi:namedview>
  <metadata
     id="metadata7">
    <rdf:RDF>
      <cc:Work
         rdf:about="">
        <dc:format>image/svg+xml</dc:format>
        <dc:type
           rdf:resource="http://purl.org/dc/dcmitype/StillImage" />
        <dc:title>export green</dc:title>
        <dc:date>June 2015</dc:date>
        <dc:creator>
          <cc:Agent>
            <dc:title>Johannes Hechler</dc:title>
          </cc:Agent>
        </dc:creator>
        <dc:rights>
          <cc:Agent>
            <dc:title>Johannes Hechler</dc:title>
          </cc:Agent>
        </dc:rights>
        <dc:publisher>
          <cc:Agent>
            <dc:title>RRZE</dc:title>
          </cc:Agent>
        </dc:publisher>
        <dc:contributor>
          <cc:Agent>
            <dc:title>Ute Weber, Hendrik Eggers, Joanna Barbach</dc:title>
          </cc:Agent>
        </dc:contributor>
        <dc:subject>
          <rdf:Bag>
            <rdf:li>export</rdf:li>
            <rdf:li>document</rdf:li>
            <rdf:li>arrow</rdf:li>
            <rdf:li>green</rdf:li>
          </rdf:Bag>
        </dc:subject>
        <cc:license
           rdf:resource="http://creativecommons.org/licenses/by-sa/3.0/" />
      </cc:Work>
      <cc:License
         rdf:about="http://creativecommons.org/licenses/by-sa/3.0/">
        <cc:permits
           rdf:resource="http://creativecommons.org/ns#Reproduction" />
        <cc:permits
           rdf:resource="http://creativecommons.org/ns#Distribution" />
        <cc:requires
           rdf:resource="http://creativecommons.org/ns#Notice" />
        <cc:requires
           rdf:resource="http://creativecommons.org/ns#Attribution" />
        <cc:permits
           rdf:resource="http://creativecommons.org/ns#DerivativeWorks" />
        <cc:requires
           rdf:resource="http://creativecommons.org/ns#ShareAlike" />
      </cc:License>
    </rdf:RDF>
  </metadata>
  <g
     inkscape:label="Ebene 1"
     inkscape:groupmode="layer"
     id="layer1">
    <g
       id="g4200">
      <rect
         inkscape:export-ydpi="3.5999999"
         inkscape:export-xdpi="3.5999999"
         y="322.18362"
         x="189.10713"
         height="400"
         width="400"
         id="rect3336"
         style="fill:none;fill-rule:evenodd;stroke:none;stroke-width:1px;stroke-linecap:butt;stroke-linejoin:miter;stroke-opacity:1" />
      <rect
         inkscape:export-ydpi="3.46731"
         inkscape:export-xdpi="3.46731"
         y="322.23563"
         x="189.1472"
         height="400"
         width="400"
         id="rect3336-0"
         style="fill:none;fill-rule:evenodd;stroke:none;stroke-width:1px;stroke-linecap:butt;stroke-linejoin:miter;stroke-opacity:1" />
      <path
         id="path4244"
         d="m 445.50194,322.20703 -195.13672,0.0195 c -11.38911,-0.0191 -17.07143,5.61131 -17.02343,16.83203 -0.048,93.32377 -0.048,252.41152 -0.0176,366.06836 -0.0303,11.3419 5.68557,17.09623 16.97851,17.01953 l 202.69729,0.0508 c -1.12827,-3.34402 -1.67773,-6.8338 -1.67773,-10.1543 l 0,-12.41016 -70.0586,0 c -16.28743,0 -30.00781,-13.63179 -30.00781,-29.96289 l 0,-87.23633 c 0,-16.3311 13.7204,-29.96289 30.00781,-29.96289 l 70.0586,0 0,-12.41015 c 0,-10.83981 8.5987,-22.12951 17.30078,-25.01953 2.17552,-0.72251 4.27025,-1.13195 6.3125,-1.28711 2.04224,-0.15516 4.03029,-0.0565 5.99609,0.24023 3.73918,0.56446 7.59533,1.37798 12.05664,5.5332 l 52.87891,44.97461 0.002,-142.21679 c -5.1936,0.47604 -20.79145,1.82483 -38.26953,2.47656 -10.61175,0.39565 -21.6751,0.54541 -31.7832,-0.0684 -5.05405,-0.30687 -9.84437,-0.77476 -14.74024,-1.74609 -4.89588,-0.97133 -6.72004,-0.57785 -13.7207,-6.60743 -6.19763,-5.33794 -7.3876,-13.41967 -7.72266,-22.32812 -0.33507,-8.90845 0.65028,-17.33283 1.75196,-25.95117 2.20336,-17.23667 4.84051,-35.66105 4.24218,-44.08594 l -0.125,-1.76758 z m 47.48633,197.32031 -0.32031,-0.27343 1.01367,0.93359 c -0.23285,-0.232 -0.46378,-0.44633 -0.69336,-0.66016 z M 481.15819,373.11328 c -0.0523,0.3951 -0.12783,0.89653 -0.17773,1.28711 -0.48825,3.81953 -0.85419,7.37758 -1.0918,10.41016 3.96859,0.21169 8.5956,0.27568 13.56641,0.23828 -2.04702,-2.04541 -3.98331,-4.0427 -6.06446,-6.08399 -2.23989,-2.19699 -4.00316,-3.70652 -6.23242,-5.85156 z m -1.55859,19.02734 c 0.0686,1.71999 0.6109,1.4537 0,0 z m 6.72266,167.66211 0,10.16797 a 17.50175,17.50175 0 0 1 -17.5,17.5 l -82.56641,0 0,77.16211 82.56641,0 a 17.50175,17.50175 0 0 1 17.5,17.5 l 0,10.16797 59.54492,-50.64453 0,-31.20898 -59.54492,-50.64454 z m 59.54492,127.80079 -40.68946,34.60742 23.50782,0.006 c 11.42287,-0.065 17.10688,-5.74773 17.18164,-17.20703 l 0,-17.40625 z"
         style="fill:url(#linearGradient4201);fill-opacity:1;fill-rule:evenodd;stroke:none;stroke-width:1px;stroke-linecap:butt;stroke-linejoin:miter;stroke-opacity:1"
         inkscape:connector-curvature="0" />
      <path
         style="fill:#99b000;fill-opacity:1;fill-rule:evenodd;stroke:none;stroke-width:1px;stroke-linecap:butt;stroke-linejoin:miter;stroke-opacity:1"
         d="m 460.5637,322.20399 c 4.54635,-1.18483 85.25811,76.62516 85.25811,84.98046 0,0 -75.44211,7.35253 -86.90512,-1.29887 -11.46301,-8.65141 3.62243,-55.86651 1.64701,-83.68159 z"
         id="path4288"
         inkscape:connector-curvature="0"
         sodipodi:nodetypes="cczc"
         inkscape:export-xdpi="3.46731"
         inkscape:export-ydpi="3.46731" />
      <path
         id="rect4232"
         d="m 270.91601,467.62305 c -5.03585,0 -9.08985,4.05398 -9.08985,9.08984 0,5.03586 4.054,9.08984 9.08985,9.08984 l 218.16015,0 c 5.03586,0 9.08985,-4.05398 9.08985,-9.08984 0,-5.03586 -4.05399,-9.08984 -9.08985,-9.08984 l -218.16015,0 z m 0,54.54101 c -5.03585,0 -9.08985,4.05399 -9.08985,9.08985 0,5.03585 4.054,9.08984 9.08985,9.08984 l 88.50781,0 c 6.55646,-3.42423 13.98608,-5.37305 21.83984,-5.37305 l 25.20899,0 c 0.50696,-1.1344 0.79492,-2.38983 0.79492,-3.71679 0,-5.03586 -4.05595,-9.08985 -9.0918,-9.08985 l -127.25976,0 z m 0,54.53906 c -5.03585,0 -9.08985,4.05399 -9.08985,9.08985 0,5.03585 4.054,9.08984 9.08985,9.08984 l 62.83984,0 0,-12.44922 c 0,-1.94032 0.13361,-3.84986 0.36328,-5.73047 l -63.20312,0 z m 99.40039,0 c -0.98477,1.7482 -1.56055,3.70998 -1.56055,5.73047 l 0,5.03711 a 17.50175,17.50175 0 0 1 3.71289,-10.76758 l -2.15234,0 z"
         style="color:#000000;clip-rule:nonzero;display:inline;overflow:visible;visibility:visible;opacity:1;isolation:auto;mix-blend-mode:normal;color-interpolation:sRGB;color-interpolation-filters:linearRGB;solid-color:#000000;solid-opacity:1;fill:#ffffff;fill-opacity:1;fill-rule:evenodd;stroke:none;stroke-width:50;stroke-linecap:butt;stroke-linejoin:miter;stroke-miterlimit:4;stroke-dasharray:none;stroke-dashoffset:0;stroke-opacity:1;color-rendering:auto;image-rendering:auto;shape-rendering:auto;text-rendering:auto;enable-background:accumulate"
         inkscape:connector-curvature="0" />
      <path
         inkscape:connector-curvature="0"
         id="path4237"
         d="m 589.0452,626.22331 c 0,1.86936 -1.25084,3.73872 -3.75251,6.23119 l -102.56856,87.23666 c -5.00336,4.98495 -12.50837,2.49248 -12.50837,-7.47743 l 0,-29.90971 -87.55854,0 c -6.92964,0 -12.50836,-5.55824 -12.50836,-12.46238 l 0,-87.23666 c 0,-6.90414 5.57872,-12.46237 12.50836,-12.46237 l 87.55854,0 0,-29.90973 c 0,-9.96989 10.00669,-9.96989 12.50837,-7.47742 l 102.56856,87.23666 c 2.50167,2.49248 3.75251,4.36183 3.75251,6.23119 z"
         style="fill:#99b000;fill-opacity:1;fill-rule:evenodd;stroke:none;stroke-width:1px;stroke-linecap:butt;stroke-linejoin:miter;stroke-opacity:1" />
    </g>
  </g>
</svg>
