<?xml version="1.0" encoding="UTF-8" standalone="no"?>
<!-- Created with Inkscape (http://www.inkscape.org/) -->

<svg
   xmlns:dc="http://purl.org/dc/elements/1.1/"
   xmlns:cc="http://creativecommons.org/ns#"
   xmlns:rdf="http://www.w3.org/1999/02/22-rdf-syntax-ns#"
   xmlns:svg="http://www.w3.org/2000/svg"
   xmlns="http://www.w3.org/2000/svg"
   xmlns:xlink="http://www.w3.org/1999/xlink"
   xmlns:sodipodi="http://sodipodi.sourceforge.net/DTD/sodipodi-0.dtd"
   xmlns:inkscape="http://www.inkscape.org/namespaces/inkscape"
   width="210mm"
   height="297mm"
   viewBox="0 0 744.09448819 1052.3622047"
   id="svg2"
   version="1.1"
   inkscape:version="0.91 r13725"
   inkscape:export-xdpi="7.1992788"
   inkscape:export-ydpi="7.1992788"
   sodipodi:docname="export.svg"
   inkscape:export-filename="C:\Users\johannes\Documents\Arbeit\RRZE\github3\bicons\32x32\actions\export.png">
  <defs
     id="defs4">
    <linearGradient
       id="linearGradient2224">
      <stop
         id="stop2226"
         offset="0"
         style="stop-color:#7c7c7c;stop-opacity:1;" />
      <stop
         id="stop2228"
         offset="1"
         style="stop-color:#b8b8b8;stop-opacity:1;" />
    </linearGradient>
    <linearGradient
       id="linearGradient15218">
      <stop
         id="stop15220"
         offset="0"
         style="stop-color:#eeeeef;stop-opacity:1;" />
      <stop
         id="stop2736"
         offset="0.59928656"
         style="stop-color:#d3d7cf;stop-opacity:1;" />
      <stop
         id="stop2738"
         offset="0.82758623"
         style="stop-color:#ffffff;stop-opacity:1;" />
      <stop
         id="stop15222"
         offset="1"
         style="stop-color:#d3d7cf;stop-opacity:1;" />
    </linearGradient>
    <pattern
       y="0"
       x="0"
       height="6"
       width="6"
       patternUnits="userSpaceOnUse"
       id="EMFhbasepattern" />
    <linearGradient
       inkscape:collect="always"
       xlink:href="#linearGradient4321"
       id="linearGradient4201"
       x1="286.38269"
       y1="672.9209"
       x2="532.51678"
       y2="367.74933"
       gradientUnits="userSpaceOnUse"
       gradientTransform="matrix(1.1363532,0,0,1.1363532,-56.47604,-53.252644)" />
    <linearGradient
       id="linearGradient4321"
       inkscape:collect="always">
      <stop
         id="stop4323"
         offset="0"
         style="stop-color:#4e505d;stop-opacity:1;" />
      <stop
         id="stop4325"
         offset="1"
         style="stop-color:#7a8597;stop-opacity:1" />
    </linearGradient>
  </defs>
  <sodipodi:namedview
     id="base"
     pagecolor="#ffffff"
     bordercolor="#666666"
     borderopacity="1.0"
     inkscape:pageopacity="0.0"
     inkscape:pageshadow="2"
     inkscape:zoom="0.95453208"
     inkscape:cx="373.72348"
     inkscape:cy="526.95569"
     inkscape:document-units="px"
     inkscape:current-layer="layer1"
     showgrid="false"
     showguides="true"
     inkscape:guide-bbox="true"
     inkscape:window-width="1600"
     inkscape:window-height="837"
     inkscape:window-x="-4"
     inkscape:window-y="-4"
     inkscape:window-maximized="1"
     inkscape:snap-bbox="true"
     inkscape:bbox-paths="true"
     inkscape:bbox-nodes="true"
     inkscape:snap-nodes="false">
    <sodipodi:guide
       position="315.53572,730.17859"
       orientation="0,1"
       id="guide3338" />
    <sodipodi:guide
       position="351.25,330.17858"
       orientation="0,1"
       id="guide3340" />
    <sodipodi:guide
       position="189.10714,408.8393"
       orientation="1,0"
       id="guide3344" />
    <inkscape:grid
       type="xygrid"
       id="grid3440" />
    <sodipodi:guide
       position="0,0"
       orientation="0,1"
       id="guide3405" />
    <sodipodi:guide
       position="214.125,684.50002"
       orientation="1,0"
       id="guide3407" />
    <sodipodi:guide
       position="0,0"
       orientation="0,1"
       id="guide3409" />
    <sodipodi:guide
       position="589.04521,378.30213"
       orientation="1,0"
       id="guide3411" />
    <sodipodi:guide
       position="564.00001,683.37502"
       orientation="1,0"
       id="guide3413" />
  </sodipodi:namedview>
  <metadata
     id="metadata7">
    <rdf:RDF>
      <cc:Work
         rdf:about="">
        <dc:format>image/svg+xml</dc:format>
        <dc:type
           rdf:resource="http://purl.org/dc/dcmitype/StillImage" />
        <dc:title>export</dc:title>
        <dc:date>June 2015</dc:date>
        <dc:creator>
          <cc:Agent>
            <dc:title>Johannes Hechler</dc:title>
          </cc:Agent>
        </dc:creator>
        <dc:rights>
          <cc:Agent>
            <dc:title>Johannes Hechler</dc:title>
          </cc:Agent>
        </dc:rights>
        <dc:publisher>
          <cc:Agent>
            <dc:title>RRZE</dc:title>
          </cc:Agent>
        </dc:publisher>
        <dc:contributor>
          <cc:Agent>
            <dc:title>Ute Weber, Hendrik Eggers, Joanna Barbach</dc:title>
          </cc:Agent>
        </dc:contributor>
        <dc:subject>
          <rdf:Bag>
            <rdf:li>export</rdf:li>
            <rdf:li>document</rdf:li>
          </rdf:Bag>
        </dc:subject>
        <cc:license
           rdf:resource="http://creativecommons.org/licenses/by-sa/3.0/" />
      </cc:Work>
      <cc:License
         rdf:about="http://creativecommons.org/licenses/by-sa/3.0/">
        <cc:permits
           rdf:resource="http://creativecommons.org/ns#Reproduction" />
        <cc:permits
           rdf:resource="http://creativecommons.org/ns#Distribution" />
        <cc:requires
           rdf:resource="http://creativecommons.org/ns#Notice" />
        <cc:requires
           rdf:resource="http://creativecommons.org/ns#Attribution" />
        <cc:permits
           rdf:resource="http://creativecommons.org/ns#DerivativeWorks" />
        <cc:requires
           rdf:resource="http://creativecommons.org/ns#ShareAlike" />
      </cc:License>
    </rdf:RDF>
  </metadata>
  <g
     inkscape:label="Ebene 1"
     inkscape:groupmode="layer"
     id="layer1">
    <g
       id="g4179">
      <rect
         inkscape:export-ydpi="3.5999999"
         inkscape:export-xdpi="3.5999999"
         y="322.18362"
         x="189.10715"
         height="400"
         width="400"
         id="rect3336"
         style="fill:none;fill-rule:evenodd;stroke:none;stroke-width:1px;stroke-linecap:butt;stroke-linejoin:miter;stroke-opacity:1" />
      <rect
         inkscape:export-ydpi="3.46731"
         inkscape:export-xdpi="3.46731"
         y="322.23563"
         x="189.14722"
         height="400"
         width="400"
         id="rect3336-0"
         style="fill:none;fill-rule:evenodd;stroke:none;stroke-width:1px;stroke-linecap:butt;stroke-linejoin:miter;stroke-opacity:1" />
      <path
         id="path4244"
         d="M 445.50195 322.20703 L 250.36523 322.22656 C 238.97612 322.20746 233.2938 327.83787 233.3418 339.05859 C 233.2938 432.38236 233.29382 591.47011 233.32422 705.12695 C 233.29392 716.46885 239.00979 722.22318 250.30273 722.14648 L 453 722.19727 C 451.87173 718.85325 451.32227 715.36347 451.32227 712.04297 L 451.32227 699.63281 L 381.26367 699.63281 C 364.97624 699.63281 351.25586 686.00102 351.25586 669.66992 L 351.25586 582.43359 C 351.25586 566.10249 364.97626 552.4707 381.26367 552.4707 L 451.32227 552.4707 L 451.32227 540.06055 C 451.32227 529.22074 459.92097 517.93104 468.62305 515.04102 C 470.79857 514.31851 472.8933 513.90907 474.93555 513.75391 C 476.97779 513.59875 478.96584 513.69739 480.93164 513.99414 C 484.67082 514.5586 488.52697 515.37212 492.98828 519.52734 L 545.86719 564.50195 L 545.86914 422.28516 C 540.67554 422.7612 525.07769 424.10999 507.59961 424.76172 C 496.98786 425.15737 485.92451 425.30713 475.81641 424.69336 C 470.76236 424.38649 465.97204 423.9186 461.07617 422.94727 C 456.18029 421.97594 454.35613 422.36942 447.35547 416.33984 C 441.15784 411.0019 439.96787 402.92017 439.63281 394.01172 C 439.29774 385.10327 440.28309 376.67889 441.38477 368.06055 C 443.58813 350.82388 446.22528 332.3995 445.62695 323.97461 L 445.50195 322.20703 z M 492.98828 519.52734 L 492.66797 519.25391 L 493.68164 520.1875 C 493.44879 519.9555 493.21786 519.74117 492.98828 519.52734 z M 481.1582 373.11328 C 481.1059 373.50838 481.03037 374.00981 480.98047 374.40039 C 480.49222 378.21992 480.12628 381.77797 479.88867 384.81055 C 483.85726 385.02224 488.48427 385.08623 493.45508 385.04883 C 491.40806 383.00342 489.47177 381.00613 487.39062 378.96484 C 485.15073 376.76785 483.38746 375.25832 481.1582 373.11328 z M 479.59961 392.14062 C 479.66821 393.86061 480.21051 393.59432 479.59961 392.14062 z M 486.32227 559.80273 L 486.32227 569.9707 A 17.50175 17.50175 0 0 1 468.82227 587.4707 L 386.25586 587.4707 L 386.25586 664.63281 L 468.82227 664.63281 A 17.50175 17.50175 0 0 1 486.32227 682.13281 L 486.32227 692.30078 L 545.86719 641.65625 L 545.86719 610.44727 L 486.32227 559.80273 z M 545.86719 687.60352 L 505.17773 722.21094 L 528.68555 722.2168 C 540.10842 722.1518 545.79243 716.46907 545.86719 705.00977 L 545.86719 687.60352 z "
         style="fill:url(#linearGradient4201);fill-opacity:1;fill-rule:evenodd;stroke:none;stroke-width:1px;stroke-linecap:butt;stroke-linejoin:miter;stroke-opacity:1" />
      <path
         style="fill:#99b000;fill-opacity:1;fill-rule:evenodd;stroke:none;stroke-width:1px;stroke-linecap:butt;stroke-linejoin:miter;stroke-opacity:1"
         d="m 460.56371,322.20399 c 4.54635,-1.18483 85.25811,76.62516 85.25811,84.98046 0,0 -75.44211,7.35253 -86.90512,-1.29887 -11.46301,-8.65141 3.62243,-55.86651 1.64701,-83.68159 z"
         id="path4288"
         inkscape:connector-curvature="0"
         sodipodi:nodetypes="cczc"
         inkscape:export-xdpi="3.46731"
         inkscape:export-ydpi="3.46731" />
      <path
         id="rect4232"
         d="M 270.91602 467.62305 C 265.88017 467.62305 261.82617 471.67703 261.82617 476.71289 C 261.82617 481.74875 265.88017 485.80273 270.91602 485.80273 L 489.07617 485.80273 C 494.11203 485.80273 498.16602 481.74875 498.16602 476.71289 C 498.16602 471.67703 494.11203 467.62305 489.07617 467.62305 L 270.91602 467.62305 z M 270.91602 522.16406 C 265.88017 522.16406 261.82617 526.21805 261.82617 531.25391 C 261.82617 536.28976 265.88017 540.34375 270.91602 540.34375 L 359.42383 540.34375 C 365.98029 536.91952 373.40991 534.9707 381.26367 534.9707 L 406.47266 534.9707 C 406.97962 533.8363 407.26758 532.58087 407.26758 531.25391 C 407.26758 526.21805 403.21163 522.16406 398.17578 522.16406 L 270.91602 522.16406 z M 270.91602 576.70312 C 265.88017 576.70312 261.82617 580.75711 261.82617 585.79297 C 261.82617 590.82882 265.88017 594.88281 270.91602 594.88281 L 333.75586 594.88281 L 333.75586 582.43359 C 333.75586 580.49327 333.88947 578.58373 334.11914 576.70312 L 270.91602 576.70312 z M 370.31641 576.70312 C 369.33164 578.45132 368.75586 580.4131 368.75586 582.43359 L 368.75586 587.4707 A 17.50175 17.50175 0 0 1 372.46875 576.70312 L 370.31641 576.70312 z "
         style="color:#000000;clip-rule:nonzero;display:inline;overflow:visible;visibility:visible;opacity:1;isolation:auto;mix-blend-mode:normal;color-interpolation:sRGB;color-interpolation-filters:linearRGB;solid-color:#000000;solid-opacity:1;fill:#ffffff;fill-opacity:1;fill-rule:evenodd;stroke:none;stroke-width:50;stroke-linecap:butt;stroke-linejoin:miter;stroke-miterlimit:4;stroke-dasharray:none;stroke-dashoffset:0;stroke-opacity:1;color-rendering:auto;image-rendering:auto;shape-rendering:auto;text-rendering:auto;enable-background:accumulate" />
      <path
         inkscape:connector-curvature="0"
         id="path4237"
         d="m 589.04521,626.22331 c 0,1.86936 -1.25084,3.73872 -3.75251,6.23119 l -102.56856,87.23666 c -5.00336,4.98495 -12.50837,2.49248 -12.50837,-7.47743 l 0,-29.90971 -87.55854,0 c -6.92964,0 -12.50836,-5.55824 -12.50836,-12.46238 l 0,-87.23666 c 0,-6.90414 5.57872,-12.46237 12.50836,-12.46237 l 87.55854,0 0,-29.90973 c 0,-9.96989 10.00669,-9.96989 12.50837,-7.47742 l 102.56856,87.23666 c 2.50167,2.49248 3.75251,4.36183 3.75251,6.23119 z"
         style="fill:#d9463a;fill-opacity:1;fill-rule:evenodd;stroke:none;stroke-width:1px;stroke-linecap:butt;stroke-linejoin:miter;stroke-opacity:1" />
    </g>
  </g>
</svg>
