<?xml version="1.0" encoding="UTF-8" standalone="no"?>
<!-- Created with Inkscape (http://www.inkscape.org/) -->

<svg
   xmlns:dc="http://purl.org/dc/elements/1.1/"
   xmlns:cc="http://creativecommons.org/ns#"
   xmlns:rdf="http://www.w3.org/1999/02/22-rdf-syntax-ns#"
   xmlns:svg="http://www.w3.org/2000/svg"
   xmlns="http://www.w3.org/2000/svg"
   xmlns:xlink="http://www.w3.org/1999/xlink"
   xmlns:sodipodi="http://sodipodi.sourceforge.net/DTD/sodipodi-0.dtd"
   xmlns:inkscape="http://www.inkscape.org/namespaces/inkscape"
   width="210mm"
   height="297mm"
   viewBox="0 0 744.09448819 1052.3622047"
   id="svg2"
   version="1.1"
   inkscape:version="0.91 r13725"
   inkscape:export-xdpi="4"
   inkscape:export-ydpi="4"
   sodipodi:docname="export-green.svg">
  <defs
     id="defs4">
    <linearGradient
       inkscape:collect="always"
       id="linearGradient4203">
      <stop
         style="stop-color:#99b000;stop-opacity:1"
         offset="0"
         id="stop4205" />
      <stop
         style="stop-color:#a9bc24;stop-opacity:1"
         offset="1"
         id="stop4207" />
    </linearGradient>
    <linearGradient
       inkscape:collect="always"
       id="linearGradient4195">
      <stop
         style="stop-color:#4e505d;stop-opacity:1"
         offset="0"
         id="stop4197" />
      <stop
         style="stop-color:#7a8597;stop-opacity:1"
         offset="1"
         id="stop4199" />
    </linearGradient>
    <linearGradient
       inkscape:collect="always"
       xlink:href="#linearGradient4195"
       id="linearGradient4201"
       x1="507"
       y1="681.40619"
       x2="302"
       y2="373.40619"
       gradientUnits="userSpaceOnUse"
       gradientTransform="matrix(1.1362769,0,0,1.1362769,-55.751839,-52.998085)" />
    <linearGradient
       inkscape:collect="always"
       xlink:href="#linearGradient4203"
       id="linearGradient4209"
       x1="489.22876"
       y1="385.57309"
       x2="462.02698"
       y2="398.57309"
       gradientUnits="userSpaceOnUse"
       gradientTransform="matrix(1.1362769,0,0,1.1362769,-55.751839,-52.998085)" />
    <linearGradient
       inkscape:collect="always"
       xlink:href="#linearGradient4203"
       id="linearGradient4256-6"
       x1="360"
       y1="714.61218"
       x2="360"
       y2="372.36221"
       gradientUnits="userSpaceOnUse"
       gradientTransform="matrix(0,-0.56898957,-0.57108891,0,763.23558,814.68576)" />
  </defs>
  <sodipodi:namedview
     id="base"
     pagecolor="#ffffff"
     bordercolor="#666666"
     borderopacity="1.0"
     inkscape:pageopacity="0.0"
     inkscape:pageshadow="2"
     inkscape:zoom="1"
     inkscape:cx="397.88566"
     inkscape:cy="442.11112"
     inkscape:document-units="px"
     inkscape:current-layer="layer1"
     showgrid="false"
     showguides="true"
     inkscape:guide-bbox="true"
     inkscape:window-width="1280"
     inkscape:window-height="962"
     inkscape:window-x="-8"
     inkscape:window-y="-8"
     inkscape:window-maximized="1">
    <sodipodi:guide
       position="315.53572,730.17859"
       orientation="0,1"
       id="guide3338" />
    <sodipodi:guide
       position="351.25,330.17858"
       orientation="0,1"
       id="guide3340" />
    <sodipodi:guide
       position="189.10714,408.8393"
       orientation="1,0"
       id="guide3344" />
    <inkscape:grid
       type="xygrid"
       id="grid3440" />
    <sodipodi:guide
       position="0,0"
       orientation="0,1"
       id="guide3405" />
    <sodipodi:guide
       position="214.125,684.50002"
       orientation="1,0"
       id="guide3407" />
    <sodipodi:guide
       position="0,0"
       orientation="0,1"
       id="guide3409" />
    <sodipodi:guide
       position="589.04521,378.30213"
       orientation="1,0"
       id="guide3411" />
    <sodipodi:guide
       position="564.00001,683.37502"
       orientation="1,0"
       id="guide3413" />
  </sodipodi:namedview>
  <metadata
     id="metadata7">
    <rdf:RDF>
      <cc:Work
         rdf:about="">
        <dc:format>image/svg+xml</dc:format>
        <dc:type
           rdf:resource="http://purl.org/dc/dcmitype/StillImage" />
        <dc:title>export green</dc:title>
        <dc:date>June 2015</dc:date>
        <dc:creator>
          <cc:Agent>
            <dc:title>Johannes Hechler</dc:title>
          </cc:Agent>
        </dc:creator>
        <dc:rights>
          <cc:Agent>
            <dc:title>Johannes Hechler</dc:title>
          </cc:Agent>
        </dc:rights>
        <dc:publisher>
          <cc:Agent>
            <dc:title>RRZE</dc:title>
          </cc:Agent>
        </dc:publisher>
        <dc:contributor>
          <cc:Agent>
            <dc:title>Ute Weber, Hendrik Eggers, Joanna Barbach</dc:title>
          </cc:Agent>
        </dc:contributor>
        <dc:subject>
          <rdf:Bag>
            <rdf:li>export</rdf:li>
            <rdf:li>document</rdf:li>
            <rdf:li>arrow</rdf:li>
            <rdf:li>green</rdf:li>
          </rdf:Bag>
        </dc:subject>
        <cc:license
           rdf:resource="http://creativecommons.org/licenses/by-sa/3.0/" />
      </cc:Work>
      <cc:License
         rdf:about="http://creativecommons.org/licenses/by-sa/3.0/">
        <cc:permits
           rdf:resource="http://creativecommons.org/ns#Reproduction" />
        <cc:permits
           rdf:resource="http://creativecommons.org/ns#Distribution" />
        <cc:requires
           rdf:resource="http://creativecommons.org/ns#Notice" />
        <cc:requires
           rdf:resource="http://creativecommons.org/ns#Attribution" />
        <cc:permits
           rdf:resource="http://creativecommons.org/ns#DerivativeWorks" />
        <cc:requires
           rdf:resource="http://creativecommons.org/ns#ShareAlike" />
      </cc:License>
    </rdf:RDF>
  </metadata>
  <g
     inkscape:label="Ebene 1"
     inkscape:groupmode="layer"
     id="layer1">
    <rect
       style="fill:none;fill-rule:evenodd;stroke:none;stroke-width:1px;stroke-linecap:butt;stroke-linejoin:miter;stroke-opacity:1"
       id="rect3336"
       width="400"
       height="400"
       x="189.14485"
       y="322.27005"
       inkscape:export-xdpi="4.9499998"
       inkscape:export-ydpi="4.9499998" />
    <path
       inkscape:connector-curvature="0"
       style="fill:url(#linearGradient4201);fill-opacity:1;fill-rule:evenodd;stroke:none;stroke-width:1px;stroke-linecap:butt;stroke-linejoin:miter;stroke-opacity:1"
       d="m 452.71876,322.4349 -201.6492,0.02 c -11.38835,-0.0191 -17.06996,5.61113 -17.02196,16.8311 -0.0479,93.31751 -0.0481,252.39602 -0.0177,366.04539 -0.0303,11.34109 5.6854,17.09424 16.97758,17.01752 l 278.36343,0.071 c 11.42211,-0.0653 17.10478,-5.74764 17.17953,-17.20616 l 0.002,-289.39553 c -3.36231,0.31627 -19.83091,1.81573 -38.33159,2.50558 -10.31511,0.38467 -21.02286,0.50766 -30.22451,-0.051 -4.60086,-0.27934 -8.81689,-0.71705 -12.6078,-1.46917 -3.79092,-0.75211 -7.13699,-1.48918 -10.73027,-4.20111 -6.80413,-5.13524 -7.64226,-12.62075 -7.90955,-19.72728 -0.2673,-7.10653 0.56735,-14.99412 1.6334,-23.33362 2.12514,-16.62491 5.15472,-35.18888 4.33649,-47.10667 z m 17.68109,17.14403 c -0.92354,10.9238 -2.68912,22.1417 -3.98363,32.26849 -1.02539,8.02149 -1.6901,15.29631 -1.50024,20.34424 0.13766,3.66007 0.98637,5.50042 1.04306,5.94769 0.10942,-0.005 1.05867,0.45093 2.96942,0.83002 2.52849,0.50164 6.08553,0.90833 10.16878,1.15625 8.16654,0.49579 18.46773,0.4031 28.44466,0.031 8.44195,-0.31478 16.00308,-0.83882 22.66561,-1.31826 -0.9797,-1.12273 -1.49024,-1.838 -2.601,-3.06705 -7.43443,-8.22615 -17.58156,-18.61738 -27.86098,-28.69988 -10.27942,-10.0825 -20.72167,-19.88854 -28.74869,-26.98879 -0.24511,-0.2168 -0.35633,-0.29201 -0.59699,-0.50378 z m -4.44081,58.56042 c -0.0195,9e-4 -0.0209,0.0127 0.0133,0.0466 -4.7e-4,-0.008 -0.0122,-0.0374 -0.0133,-0.0466 z m 72.19798,10.56605 c 0.13681,0.43407 0.25324,0.41272 0.091,0.13093 -0.0131,-0.0227 -0.0761,-0.10579 -0.091,-0.13093 z"
       id="path4244" />
    <path
       style="fill:url(#linearGradient4209);fill-opacity:1;fill-rule:evenodd;stroke:#ffffff;stroke-width:50;stroke-linecap:butt;stroke-linejoin:round;stroke-opacity:1;stroke-miterlimit:4;stroke-dasharray:none"
       d="m 461.25321,322.43333 c 4.54605,-1.18476 85.25239,76.62001 85.25239,84.97475 0,0 -75.43705,7.35204 -86.89929,-1.29879 -11.46224,-8.65083 3.62219,-55.86276 1.6469,-83.67596 z"
       id="path4192"
       inkscape:connector-curvature="0"
       sodipodi:nodetypes="cczc"
       inkscape:export-xdpi="4.9499998"
       inkscape:export-ydpi="4.9499998" />
    <path
       inkscape:export-ydpi="4.9499998"
       inkscape:export-xdpi="4.9499998"
       sodipodi:nodetypes="cczc"
       inkscape:connector-curvature="0"
       id="path4288"
       d="m 461.25321,322.43333 c 4.54605,-1.18476 85.25239,76.62001 85.25239,84.97475 0,0 -75.43705,7.35204 -86.89929,-1.29879 -11.46224,-8.65083 3.62219,-55.86276 1.6469,-83.67596 z"
       style="fill:url(#linearGradient4209);fill-opacity:1;fill-rule:evenodd;stroke:none;stroke-width:1px;stroke-linecap:butt;stroke-linejoin:miter;stroke-opacity:1" />
    <path
       style="fill:#ffffff;fill-opacity:1;stroke:none"
       d="m 274.28356,453.85069 c 70.99391,0 141.98784,0 212.98175,0 5.3693,-10e-6 5.3693,23.87068 0,23.87069 -70.99391,0 -141.98784,0 -212.98175,0 -7.15907,-1e-5 -7.15907,-23.8707 0,-23.87069 z"
       id="rect4248"
       inkscape:connector-curvature="0"
       sodipodi:nodetypes="ccccc"
       inkscape:export-xdpi="4.9499998"
       inkscape:export-ydpi="4.9499998" />
    <path
       style="fill:#ffffff;fill-opacity:1;stroke:none"
       d="m 273.73028,495.80095 c 63.67163,0 127.34324,0 191.01487,0 4.81548,-10e-6 4.81548,23.87069 0,23.87071 -63.67163,0 -127.34324,0 -191.01487,0 -6.42067,-2e-5 -6.42067,-23.87072 0,-23.87071 z"
       id="rect4248-4"
       inkscape:connector-curvature="0"
       sodipodi:nodetypes="ccccc"
       inkscape:export-xdpi="4.9499998"
       inkscape:export-ydpi="4.9499998" />
    <path
       style="fill:#ffffff;fill-opacity:1;stroke:none"
       d="m 274.46311,537.17872 c 67.71816,0 135.43631,0 203.15447,0 5.12154,-3e-5 5.12154,23.87066 0,23.87067 -67.71816,0 -135.43631,0 -203.15447,0 -6.82873,-10e-6 -6.82873,-23.8707 0,-23.87067 z"
       id="rect4248-1"
       inkscape:connector-curvature="0"
       sodipodi:nodetypes="ccccc"
       inkscape:export-xdpi="4.9499998"
       inkscape:export-ydpi="4.9499998" />
    <path
       style="fill:#ffffff;fill-opacity:1;stroke:none"
       d="m 273.68656,579.72444 c 63.09356,0 126.18709,0 189.28064,0 4.77179,-2e-5 4.77179,23.87068 0,23.8707 -63.09355,0 -126.18708,0 -189.28064,0 -6.36238,-2e-5 -6.36238,-23.87072 0,-23.8707 z"
       id="rect4248-1-5"
       inkscape:connector-curvature="0"
       sodipodi:nodetypes="ccccc"
       inkscape:transform-center-x="11.294007"
       inkscape:transform-center-y="-32.829958"
       inkscape:export-xdpi="4.9499998"
       inkscape:export-ydpi="4.9499998" />
    <g
       id="g4170"
       transform="translate(4.76038,0)">
      <path
         inkscape:connector-curvature="0"
         id="path4237-1"
         d="m 574.13596,597.22999 c 0,1.86936 -1.25084,3.73872 -3.75251,6.23119 l -102.56856,87.23666 c -5.00336,4.98495 -12.50837,2.49248 -12.50837,-7.47743 l 0,-29.90971 -87.55854,0 c -6.92964,0 -12.50836,-5.55824 -12.50836,-12.46238 l 0,-87.23666 c 0,-6.90414 5.57872,-12.46237 12.50836,-12.46237 l 87.55854,0 0,-29.90973 c 0,-9.96989 10.00669,-9.96989 12.50837,-7.47742 l 102.56856,87.23666 c 2.50167,2.49248 3.75251,4.36183 3.75251,6.23119 z"
         style="fill:url(#linearGradient4256-6);fill-opacity:1;fill-rule:evenodd;stroke:#ffffff;stroke-width:50;stroke-linecap:butt;stroke-linejoin:round;stroke-miterlimit:4;stroke-dasharray:none;stroke-opacity:1" />
      <path
         inkscape:connector-curvature="0"
         id="path4237"
         d="m 575.52992,597.40145 c 0,1.86936 -1.25084,3.73872 -3.75251,6.23119 L 469.20885,690.8693 c -5.00336,4.98495 -12.50837,2.49248 -12.50837,-7.47743 l 0,-29.90971 -87.55854,0 c -6.92964,0 -12.50836,-5.55824 -12.50836,-12.46238 l 0,-87.23666 c 0,-6.90414 5.57872,-12.46237 12.50836,-12.46237 l 87.55854,0 0,-29.90973 c 0,-9.96989 10.00669,-9.96989 12.50837,-7.47742 l 102.56856,87.23666 c 2.50167,2.49248 3.75251,4.36183 3.75251,6.23119 z"
         style="fill:#99b000;fill-opacity:1;fill-rule:evenodd;stroke:none;stroke-width:1px;stroke-linecap:butt;stroke-linejoin:miter;stroke-opacity:1" />
    </g>
  </g>
</svg>
