<?xml version="1.0" encoding="UTF-8" standalone="no"?>
<!-- Created with Inkscape (http://www.inkscape.org/) -->
<svg xmlns:dc="http://purl.org/dc/elements/1.1/" xmlns:cc="http://creativecommons.org/ns#" xmlns:rdf="http://www.w3.org/1999/02/22-rdf-syntax-ns#" xmlns:svg="http://www.w3.org/2000/svg" xmlns="http://www.w3.org/2000/svg" xmlns:xlink="http://www.w3.org/1999/xlink" xmlns:sodipodi="http://sodipodi.sourceforge.net/DTD/sodipodi-0.dtd" xmlns:inkscape="http://www.inkscape.org/namespaces/inkscape" width="210mm" height="297mm" viewBox="0 0 744.09448819 1052.3622047" id="svg2" version="1.1" inkscape:version="0.91 r13725" inkscape:export-xdpi="4" inkscape:export-ydpi="4">
  <defs id="defs4">
    <linearGradient inkscape:collect="always" id="linearGradient4203">
      <stop style="stop-color:#99b000;stop-opacity:1" offset="0" id="stop4205"/>
      <stop style="stop-color:#c1d53a;stop-opacity:1" offset="1" id="stop4207"/>
    </linearGradient>
    <linearGradient inkscape:collect="always" id="linearGradient4195">
      <stop style="stop-color:#4e505d;stop-opacity:1" offset="0" id="stop4197"/>
      <stop style="stop-color:#545d6c;stop-opacity:1" offset="1" id="stop4199"/>
    </linearGradient>
    <linearGradient id="linearGradient2224">
      <stop id="stop2226" offset="0" style="stop-color:#7c7c7c;stop-opacity:1;"/>
      <stop id="stop2228" offset="1" style="stop-color:#b8b8b8;stop-opacity:1;"/>
    </linearGradient>
    <linearGradient id="linearGradient15218">
      <stop id="stop15220" offset="0" style="stop-color:#eeeeef;stop-opacity:1;"/>
      <stop id="stop2736" offset="0.59928656" style="stop-color:#d3d7cf;stop-opacity:1;"/>
      <stop id="stop2738" offset="0.82758623" style="stop-color:#ffffff;stop-opacity:1;"/>
      <stop id="stop15222" offset="1" style="stop-color:#d3d7cf;stop-opacity:1;"/>
    </linearGradient>
    <pattern y="0" x="0" height="6" width="6" patternUnits="userSpaceOnUse" id="EMFhbasepattern"/>
    <linearGradient inkscape:collect="always" xlink:href="#linearGradient4195" id="linearGradient4201" x1="507" y1="681.40619" x2="302" y2="373.40619" gradientUnits="userSpaceOnUse" gradientTransform="matrix(1.1362769,0,0,1.1362769,-55.965042,-53.400105)"/>
    <linearGradient inkscape:collect="always" xlink:href="#linearGradient4203" id="linearGradient4209" x1="489.22876" y1="385.57309" x2="462.02698" y2="398.57309" gradientUnits="userSpaceOnUse" gradientTransform="matrix(1.1362769,0,0,1.1362769,-55.965042,-53.400105)"/>
    <linearGradient inkscape:collect="always" xlink:href="#linearGradient4203" id="linearGradient4256-6" x1="360" y1="714.61218" x2="360" y2="372.36221" gradientUnits="userSpaceOnUse" gradientTransform="matrix(0,-0.56898957,0.57108891,0,170.14,778.68576)"/>
  </defs>
  <sodipodi:namedview id="base" pagecolor="#ffffff" bordercolor="#666666" borderopacity="1.0" inkscape:pageopacity="0.0" inkscape:pageshadow="2" inkscape:zoom="0.35355339" inkscape:cx="-297.76028" inkscape:cy="647.00548" inkscape:document-units="px" inkscape:current-layer="layer1" showgrid="false" showguides="true" inkscape:guide-bbox="true" inkscape:window-width="1366" inkscape:window-height="721" inkscape:window-x="-4" inkscape:window-y="-4" inkscape:window-maximized="1">
    <sodipodi:guide position="315.53572,730.17859" orientation="0,1" id="guide3338"/>
    <sodipodi:guide position="351.25,330.17858" orientation="0,1" id="guide3340"/>
    <sodipodi:guide position="189.10714,408.8393" orientation="1,0" id="guide3344"/>
    <inkscape:grid type="xygrid" id="grid3440"/>
    <sodipodi:guide position="0,0" orientation="0,1" id="guide3405"/>
    <sodipodi:guide position="214.125,684.50002" orientation="1,0" id="guide3407"/>
    <sodipodi:guide position="0,0" orientation="0,1" id="guide3409"/>
    <sodipodi:guide position="589.04521,378.30213" orientation="1,0" id="guide3411"/>
    <sodipodi:guide position="564.00001,683.37502" orientation="1,0" id="guide3413"/>
  </sodipodi:namedview>
  <metadata id="metadata7">
    <rdf:RDF>
      <cc:Work rdf:about="">
        <dc:format>image/svg+xml</dc:format>
        <dc:type rdf:resource="http://purl.org/dc/dcmitype/StillImage"/>
        <dc:title>import</dc:title>
      </cc:Work>
    </rdf:RDF>
  </metadata>
  <g inkscape:label="Ebene 1" inkscape:groupmode="layer" id="layer1">
    <rect style="fill:none;fill-rule:evenodd;stroke:none;stroke-width:1px;stroke-linecap:butt;stroke-linejoin:miter;stroke-opacity:1" id="rect3336" width="400" height="400" x="189.14485" y="322.27005" inkscape:export-xdpi="4.9499998" inkscape:export-ydpi="4.9499998"/>
    <path inkscape:connector-curvature="0" style="fill:url(#linearGradient4201);fill-opacity:1;fill-rule:evenodd;stroke:none;stroke-width:1px;stroke-linecap:butt;stroke-linejoin:miter;stroke-opacity:1" d="m 452.50555,322.03288 -201.64919,0.02 c -11.38835,-0.0191 -17.06996,5.61113 -17.02197,16.8311 -0.048,93.31751 -0.0481,252.39602 -0.0177,366.04539 -0.0303,11.34109 5.68539,17.09424 16.97758,17.01752 l 278.36343,0.071 c 11.42211,-0.0653 17.10477,-5.74764 17.17953,-17.20616 l 0.002,-289.39553 c -3.36231,0.31627 -19.83092,1.81573 -38.33159,2.50558 -10.31512,0.38467 -21.02287,0.50766 -30.22452,-0.051 -4.60085,-0.27934 -8.81688,-0.71705 -12.60779,-1.46917 -3.79092,-0.75211 -7.13699,-1.48918 -10.73028,-4.20111 -6.80413,-5.13524 -7.64225,-12.62075 -7.90954,-19.72728 -0.2673,-7.10653 0.56734,-14.99412 1.6334,-23.33362 2.12514,-16.62491 5.15472,-35.18888 4.33648,-47.10667 z m 17.6811,17.14403 c -0.92355,10.9238 -2.68913,22.1417 -3.98363,32.26849 -1.02539,8.02149 -1.6901,15.29631 -1.50024,20.34424 0.13766,3.66007 0.98637,5.50042 1.04306,5.94769 0.10942,-0.005 1.05867,0.45093 2.96942,0.83002 2.52849,0.50164 6.08552,0.90833 10.16878,1.15625 8.16654,0.49579 18.46773,0.4031 28.44466,0.031 8.44194,-0.31478 16.00307,-0.83882 22.66561,-1.31826 -0.9797,-1.12273 -1.49024,-1.838 -2.60101,-3.06705 -7.43442,-8.22615 -17.58155,-18.61738 -27.86097,-28.69988 -10.27942,-10.0825 -20.72167,-19.88854 -28.74869,-26.98879 -0.24511,-0.2168 -0.35633,-0.29201 -0.59699,-0.50378 z m -4.44081,58.56042 c -0.0195,9e-4 -0.0209,0.0127 0.0133,0.0466 -4.6e-4,-0.008 -0.0122,-0.0374 -0.0133,-0.0466 z m 72.19798,10.56605 c 0.1368,0.43407 0.25324,0.41272 0.091,0.13093 -0.0131,-0.0227 -0.0761,-0.10579 -0.091,-0.13093 z" id="path4244"/>
    <path style="fill:url(#linearGradient4209);fill-opacity:1;fill-rule:evenodd;stroke:#ffffff;stroke-width:50;stroke-linecap:butt;stroke-linejoin:round;stroke-opacity:1;stroke-miterlimit:4;stroke-dasharray:none" d="m 461.04,322.03131 c 4.54606,-1.18476 85.25239,76.62001 85.25239,84.97475 0,0 -75.43704,7.35204 -86.89928,-1.29879 -11.46224,-8.65083 3.62219,-55.86276 1.64689,-83.67596 z" id="path4192" inkscape:connector-curvature="0" sodipodi:nodetypes="cczc" inkscape:export-xdpi="4.9499998" inkscape:export-ydpi="4.9499998"/>
    <path inkscape:export-ydpi="4.9499998" inkscape:export-xdpi="4.9499998" sodipodi:nodetypes="cczc" inkscape:connector-curvature="0" id="path4288" d="m 461.04,322.03131 c 4.54606,-1.18476 85.25239,76.62001 85.25239,84.97475 0,0 -75.43704,7.35204 -86.89928,-1.29879 -11.46224,-8.65083 3.62219,-55.86276 1.64689,-83.67596 z" style="fill:url(#linearGradient4209);fill-opacity:1;fill-rule:evenodd;stroke:none;stroke-width:1px;stroke-linecap:butt;stroke-linejoin:miter;stroke-opacity:1"/>
    <path style="fill:#ffffff;fill-opacity:1;stroke:none" d="m 274.07036,453.44867 c 70.99391,0 141.98784,0 212.98175,0 5.36929,-10e-6 5.36929,23.87068 0,23.87069 -70.99391,0 -141.98784,0 -212.98175,0 -7.15907,-1e-5 -7.15907,-23.8707 0,-23.87069 z" id="rect4248" inkscape:connector-curvature="0" sodipodi:nodetypes="ccccc" inkscape:export-xdpi="4.9499998" inkscape:export-ydpi="4.9499998"/>
    <path style="fill:#ffffff;fill-opacity:1;stroke:none" d="m 273.51708,495.39893 c 63.67163,0 127.34323,0 191.01486,0 4.81549,-1e-5 4.81549,23.87069 0,23.87071 -63.67163,0 -127.34323,0 -191.01486,0 -6.42067,-2e-5 -6.42067,-23.87072 0,-23.87071 z" id="rect4248-4" inkscape:connector-curvature="0" sodipodi:nodetypes="ccccc" inkscape:export-xdpi="4.9499998" inkscape:export-ydpi="4.9499998"/>
    <path style="fill:#ffffff;fill-opacity:1;stroke:none" d="m 274.24991,536.7767 c 67.71816,0 135.43631,0 203.15447,0 5.12154,-3e-5 5.12154,23.87066 0,23.87067 -67.71816,0 -135.43631,0 -203.15447,0 -6.82873,-10e-6 -6.82873,-23.8707 0,-23.87067 z" id="rect4248-1" inkscape:connector-curvature="0" sodipodi:nodetypes="ccccc" inkscape:export-xdpi="4.9499998" inkscape:export-ydpi="4.9499998"/>
    <path style="fill:#ffffff;fill-opacity:1;stroke:none" d="m 273.47336,579.32242 c 63.09355,0 126.18709,0 189.28064,0 4.77178,-2e-5 4.77178,23.87068 0,23.8707 -63.09355,0 -126.18709,0 -189.28064,0 -6.36238,-2e-5 -6.36238,-23.87072 0,-23.8707 z" id="rect4248-1-5" inkscape:connector-curvature="0" sodipodi:nodetypes="ccccc" inkscape:transform-center-x="11.294007" inkscape:transform-center-y="-32.829958" inkscape:export-xdpi="4.9499998" inkscape:export-ydpi="4.9499998"/>
    <g id="g4194" transform="translate(0,35.302614)">
      <path inkscape:connector-curvature="0" id="path4237-1" d="m 359.23962,561.22999 c 0,1.86936 1.25084,3.73872 3.75251,6.23119 l 102.56856,87.23666 c 5.00336,4.98495 12.50837,2.49248 12.50837,-7.47743 l 0,-29.90971 87.55854,0 c 6.92964,0 12.50836,-5.55824 12.50836,-12.46238 l 0,-87.23666 c 0,-6.90414 -5.57872,-12.46237 -12.50836,-12.46237 l -87.55854,0 0,-29.90973 c 0,-9.96989 -10.00669,-9.96989 -12.50837,-7.47742 L 362.99213,554.9988 c -2.50167,2.49248 -3.75251,4.36183 -3.75251,6.23119 z" style="fill:url(#linearGradient4256-6);fill-opacity:1;fill-rule:evenodd;stroke:#ffffff;stroke-width:50;stroke-linecap:butt;stroke-linejoin:round;stroke-miterlimit:4;stroke-dasharray:none;stroke-opacity:1"/>
      <path inkscape:connector-curvature="0" id="path4237" d="m 357.84566,561.40145 c 0,1.86936 1.25084,3.73872 3.75251,6.23119 l 102.56856,87.23666 c 5.00336,4.98495 12.50837,2.49248 12.50837,-7.47743 l 0,-29.90971 87.55854,0 c 6.92964,0 12.50836,-5.55824 12.50836,-12.46238 l 0,-87.23666 c 0,-6.90414 -5.57872,-12.46237 -12.50836,-12.46237 l -87.55854,0 0,-29.90973 c 0,-9.96989 -10.00669,-9.96989 -12.50837,-7.47742 l -102.56856,87.23666 c -2.50167,2.49248 -3.75251,4.36183 -3.75251,6.23119 z" style="fill:#99b000;fill-opacity:1;fill-rule:evenodd;stroke:none;stroke-width:1px;stroke-linecap:butt;stroke-linejoin:miter;stroke-opacity:1"/>
    </g>
  </g>
</svg>
