<?xml version="1.0" encoding="UTF-8" standalone="no"?>
<!-- Created with Inkscape (http://www.inkscape.org/) -->

<svg
   xmlns:dc="http://purl.org/dc/elements/1.1/"
   xmlns:cc="http://creativecommons.org/ns#"
   xmlns:rdf="http://www.w3.org/1999/02/22-rdf-syntax-ns#"
   xmlns:svg="http://www.w3.org/2000/svg"
   xmlns="http://www.w3.org/2000/svg"
   xmlns:xlink="http://www.w3.org/1999/xlink"
   xmlns:sodipodi="http://sodipodi.sourceforge.net/DTD/sodipodi-0.dtd"
   xmlns:inkscape="http://www.inkscape.org/namespaces/inkscape"
   width="210mm"
   height="297mm"
   viewBox="0 0 744.09448819 1052.3622047"
   id="svg2"
   version="1.1"
   inkscape:version="0.91 r13725"
   inkscape:export-xdpi="7.1825981"
   inkscape:export-ydpi="7.1825981"
   sodipodi:docname="log-out.svg"
   inkscape:export-filename="C:\Users\johannes\Documents\Arbeit\RRZE\github3\bicons\32x32\actions\log-out.png">
  <defs
     id="defs4">
    <linearGradient
       inkscape:collect="always"
       xlink:href="#linearGradient4321"
       id="linearGradient4246"
       x1="223.80943"
       y1="586.3067"
       x2="436.18082"
       y2="379.83151"
       gradientUnits="userSpaceOnUse"
       gradientTransform="matrix(1.0739615,0,0,1.0739615,56.01724,-11.511984)" />
    <linearGradient
       id="linearGradient4321"
       inkscape:collect="always">
      <stop
         id="stop4323"
         offset="0"
         style="stop-color:#4e505d;stop-opacity:1;" />
      <stop
         id="stop4325"
         offset="1"
         style="stop-color:#7a8597;stop-opacity:1" />
    </linearGradient>
  </defs>
  <sodipodi:namedview
     id="base"
     pagecolor="#ffffff"
     bordercolor="#666666"
     borderopacity="1.0"
     inkscape:pageopacity="0.0"
     inkscape:pageshadow="2"
     inkscape:zoom="0.72567727"
     inkscape:cx="367.72867"
     inkscape:cy="532.08432"
     inkscape:document-units="px"
     inkscape:current-layer="layer1"
     showgrid="false"
     showguides="true"
     inkscape:guide-bbox="true"
     inkscape:window-width="1366"
     inkscape:window-height="721"
     inkscape:window-x="-4"
     inkscape:window-y="-4"
     inkscape:window-maximized="1"
     inkscape:snap-bbox="true"
     inkscape:bbox-paths="true"
     inkscape:bbox-nodes="true">
    <sodipodi:guide
       position="315.53572,730.17859"
       orientation="0,1"
       id="guide3338" />
    <sodipodi:guide
       position="351.25,330.17858"
       orientation="0,1"
       id="guide3340" />
    <sodipodi:guide
       position="189.10714,408.8393"
       orientation="1,0"
       id="guide3344" />
    <inkscape:grid
       type="xygrid"
       id="grid3440" />
    <sodipodi:guide
       position="0,0"
       orientation="0,1"
       id="guide3405" />
    <sodipodi:guide
       position="214.125,684.50002"
       orientation="1,0"
       id="guide3407" />
    <sodipodi:guide
       position="0,0"
       orientation="0,1"
       id="guide3409" />
    <sodipodi:guide
       position="589.04521,378.30213"
       orientation="1,0"
       id="guide3411" />
    <sodipodi:guide
       position="564.00001,683.37502"
       orientation="1,0"
       id="guide3413" />
  </sodipodi:namedview>
  <metadata
     id="metadata7">
    <rdf:RDF>
      <cc:Work
         rdf:about="">
        <dc:format>image/svg+xml</dc:format>
        <dc:type
           rdf:resource="http://purl.org/dc/dcmitype/StillImage" />
        <dc:title>log out</dc:title>
        <dc:date>June 2015</dc:date>
        <dc:creator>
          <cc:Agent>
            <dc:title>Johannes Hechler</dc:title>
          </cc:Agent>
        </dc:creator>
        <dc:rights>
          <cc:Agent>
            <dc:title>Johannes Hechler</dc:title>
          </cc:Agent>
        </dc:rights>
        <dc:publisher>
          <cc:Agent>
            <dc:title>RRZE</dc:title>
          </cc:Agent>
        </dc:publisher>
        <dc:contributor>
          <cc:Agent>
            <dc:title>Ute Weber, Hendrik Eggers, Joanna Barbach</dc:title>
          </cc:Agent>
        </dc:contributor>
        <dc:subject>
          <rdf:Bag>
            <rdf:li>log out</rdf:li>
            <rdf:li>leave</rdf:li>
            <rdf:li>sign out</rdf:li>
            <rdf:li>door</rdf:li>
            <rdf:li>out</rdf:li>
            <rdf:li>log off</rdf:li>
          </rdf:Bag>
        </dc:subject>
        <cc:license
           rdf:resource="http://creativecommons.org/licenses/by-sa/3.0/" />
      </cc:Work>
      <cc:License
         rdf:about="http://creativecommons.org/licenses/by-sa/3.0/">
        <cc:permits
           rdf:resource="http://creativecommons.org/ns#Reproduction" />
        <cc:permits
           rdf:resource="http://creativecommons.org/ns#Distribution" />
        <cc:requires
           rdf:resource="http://creativecommons.org/ns#Notice" />
        <cc:requires
           rdf:resource="http://creativecommons.org/ns#Attribution" />
        <cc:permits
           rdf:resource="http://creativecommons.org/ns#DerivativeWorks" />
        <cc:requires
           rdf:resource="http://creativecommons.org/ns#ShareAlike" />
      </cc:License>
    </rdf:RDF>
  </metadata>
  <g
     inkscape:label="Ebene 1"
     inkscape:groupmode="layer"
     id="layer1">
    <g
       id="g4179"
       transform="translate(-61.021844,-34.090296)">
      <path
         id="rect4174"
         d="m 295.66609,356.29542 c -18.74025,-0.032 -27.28077,7.51821 -27.38476,24.70117 l 0,234.92579 c 0,4.18904 0.80502,8.67633 2.20312,13.15039 0.67438,3.92742 2.23752,7.54087 4.47852,10.63086 4.04786,7.53331 9.64878,14.17811 15.76562,18.38476 l 136.55859,93.91407 c 12.35113,8.494 23.07032,3.04273 23.07032,-11.94727 l 0,-91.81055 46.89257,0 c 14.16082,0 25.5625,-11.39972 25.5625,-25.56054 l 0,-44.66797 -3.91015,-3.25977 -13.66992,0.11719 0,29.01562 c 0,9.99137 -8.05797,24.56779 -18.03516,24.03516 l -36.83984,0 0,-78.98633 c -0.15266,-1.16887 -0.24367,-2.35349 -0.25196,-3.55664 a 18.0018,18.0018 0 0 1 0,-0.0312 l -0.29687,-57.52539 C 447.58544,474.013 438.52856,458.38362 427.28718,451.87354 l -131.3789,-76.08593 c 0,0 4.05597,-0.39356 18.53711,-0.41407 l 172.75195,-0.27929 c 9.99138,-0.0162 18.03516,14.04376 18.03516,24.03515 l 0,30.32227 12.74804,-0.11133 4.57617,-3.7207 -0.041,-6.00391 c -0.008,-1.18668 0.10568,-2.38372 0.29687,-3.57617 l 0,-34.18555 c 0,-14.16081 -11.40168,-25.55859 -25.5625,-25.55859 l -201.58398,0 z m 227.14648,114.23438 -17.58007,14.29883 0,32.94922 17.58007,14.66211 0,-61.91016 z"
         style="opacity:1;fill:url(#linearGradient4246);fill-opacity:1;stroke:none;stroke-width:16;stroke-linecap:round;stroke-linejoin:round;stroke-miterlimit:4;stroke-dasharray:none;stroke-opacity:1"
         inkscape:connector-curvature="0" />
      <rect
         inkscape:export-ydpi="4.9499998"
         inkscape:export-xdpi="4.9499998"
         y="356.27393"
         x="250.12898"
         height="400"
         width="400"
         id="rect3336"
         style="fill:none;fill-rule:evenodd;stroke:none;stroke-width:1px;stroke-linecap:butt;stroke-linejoin:miter;stroke-opacity:1" />
      <path
         sodipodi:nodetypes="ccccccccscccccc"
         style="fill:#99b000;fill-opacity:1;fill-rule:evenodd;stroke:none"
         d="m 651.09798,500.83521 c 0.0125,1.79854 -1.17476,3.53045 -3.55633,5.94498 L 553.53422,590.424 c -4.68822,4.82865 -11.82411,2.47964 -11.88969,-7.03778 l -0.33471,-26.82757 -61.20822,0.53114 c -6.59384,0.0451 -11.95127,-5.23872 -11.99672,-11.8334 l -0.44019,-85.65778 c -0.0442,-6.51988 5.2393,-11.86565 11.75806,-11.9222 l 61.28323,-0.5316 -0.19046,-27.65317 c -0.0646,-9.44255 9.37756,-9.50756 11.79162,-7.20094 l 95.15285,82.649 c 2.41407,2.30665 3.6255,4.09697 3.63788,5.89558 z"
         id="path4253"
         inkscape:connector-curvature="0" />
    </g>
  </g>
</svg>
