<?xml version="1.0" encoding="UTF-8" standalone="no"?>
<!-- Created with Inkscape (http://www.inkscape.org/) -->

<svg
   xmlns:dc="http://purl.org/dc/elements/1.1/"
   xmlns:cc="http://creativecommons.org/ns#"
   xmlns:rdf="http://www.w3.org/1999/02/22-rdf-syntax-ns#"
   xmlns:svg="http://www.w3.org/2000/svg"
   xmlns="http://www.w3.org/2000/svg"
   xmlns:xlink="http://www.w3.org/1999/xlink"
   xmlns:sodipodi="http://sodipodi.sourceforge.net/DTD/sodipodi-0.dtd"
   xmlns:inkscape="http://www.inkscape.org/namespaces/inkscape"
   width="210mm"
   height="297mm"
   viewBox="0 0 744.09448819 1052.3622047"
   id="svg2"
   version="1.1"
   inkscape:version="0.91 r13725"
   inkscape:export-xdpi="7.2011142"
   inkscape:export-ydpi="7.2011142"
   sodipodi:docname="manage-students.svg"
   inkscape:export-filename="C:\Users\johannes\Documents\Arbeit\RRZE\github3\bicons\32x32\actions\manage-students.png">
  <defs
     id="defs4">
    <linearGradient
       inkscape:collect="always"
       xlink:href="#linearGradient4321"
       id="linearGradient4245"
       x1="255"
       y1="667.36218"
       x2="513"
       y2="415.36221"
       gradientUnits="userSpaceOnUse"
       gradientTransform="matrix(1.0084671,0,0,1.0084114,-191.34817,-326.89989)" />
    <linearGradient
       id="linearGradient4321"
       inkscape:collect="always">
      <stop
         id="stop4323"
         offset="0"
         style="stop-color:#4e505d;stop-opacity:1;" />
      <stop
         id="stop4325"
         offset="1"
         style="stop-color:#7a8597;stop-opacity:1" />
    </linearGradient>
    <linearGradient
       inkscape:collect="always"
       xlink:href="#linearGradient4321"
       id="linearGradient4247"
       x1="255"
       y1="667.36218"
       x2="513"
       y2="415.36221"
       gradientUnits="userSpaceOnUse"
       gradientTransform="matrix(0.99794174,0,0,0.99788662,-189.25855,-319.39301)" />
  </defs>
  <sodipodi:namedview
     id="base"
     pagecolor="#ffffff"
     bordercolor="#666666"
     borderopacity="1.0"
     inkscape:pageopacity="0.0"
     inkscape:pageshadow="2"
     inkscape:zoom="1"
     inkscape:cx="435.72022"
     inkscape:cy="500.94764"
     inkscape:document-units="px"
     inkscape:current-layer="layer1"
     showgrid="false"
     showguides="true"
     inkscape:guide-bbox="true"
     inkscape:window-width="1366"
     inkscape:window-height="721"
     inkscape:window-x="-4"
     inkscape:window-y="-4"
     inkscape:window-maximized="1"
     inkscape:snap-bbox="true"
     inkscape:bbox-paths="true"
     inkscape:bbox-nodes="true"
     inkscape:snap-nodes="false">
    <sodipodi:guide
       position="315.53572,730.17859"
       orientation="0,1"
       id="guide3338" />
    <sodipodi:guide
       position="351.25,330.17858"
       orientation="0,1"
       id="guide3340" />
    <sodipodi:guide
       position="189.10714,408.8393"
       orientation="1,0"
       id="guide3344" />
    <inkscape:grid
       type="xygrid"
       id="grid3440" />
    <sodipodi:guide
       position="0,0"
       orientation="0,1"
       id="guide3405" />
    <sodipodi:guide
       position="214.125,684.50002"
       orientation="1,0"
       id="guide3407" />
    <sodipodi:guide
       position="0,0"
       orientation="0,1"
       id="guide3409" />
    <sodipodi:guide
       position="589.04521,378.30213"
       orientation="1,0"
       id="guide3411" />
    <sodipodi:guide
       position="564.00001,683.37502"
       orientation="1,0"
       id="guide3413" />
  </sodipodi:namedview>
  <metadata
     id="metadata7">
    <rdf:RDF>
      <cc:Work
         rdf:about="">
        <dc:format>image/svg+xml</dc:format>
        <dc:type
           rdf:resource="http://purl.org/dc/dcmitype/StillImage" />
        <dc:title>manage students</dc:title>
        <dc:date>June 2015</dc:date>
        <dc:creator>
          <cc:Agent>
            <dc:title>Johannes Hechler</dc:title>
          </cc:Agent>
        </dc:creator>
        <dc:rights>
          <cc:Agent>
            <dc:title>Johannes Hechler</dc:title>
          </cc:Agent>
        </dc:rights>
        <dc:publisher>
          <cc:Agent>
            <dc:title>RRZE</dc:title>
          </cc:Agent>
        </dc:publisher>
        <dc:contributor>
          <cc:Agent>
            <dc:title>Ute Weber, Hendrik Eggers, Joanna Barbach</dc:title>
          </cc:Agent>
        </dc:contributor>
        <dc:subject>
          <rdf:Bag>
            <rdf:li>manage</rdf:li>
            <rdf:li>tools</rdf:li>
            <rdf:li>administrate</rdf:li>
            <rdf:li>management</rdf:li>
            <rdf:li>administration</rdf:li>
            <rdf:li>student</rdf:li>
          </rdf:Bag>
        </dc:subject>
        <cc:license
           rdf:resource="http://creativecommons.org/licenses/by-sa/3.0/" />
      </cc:Work>
      <cc:License
         rdf:about="http://creativecommons.org/licenses/by-sa/3.0/">
        <cc:permits
           rdf:resource="http://creativecommons.org/ns#Reproduction" />
        <cc:permits
           rdf:resource="http://creativecommons.org/ns#Distribution" />
        <cc:requires
           rdf:resource="http://creativecommons.org/ns#Notice" />
        <cc:requires
           rdf:resource="http://creativecommons.org/ns#Attribution" />
        <cc:permits
           rdf:resource="http://creativecommons.org/ns#DerivativeWorks" />
        <cc:requires
           rdf:resource="http://creativecommons.org/ns#ShareAlike" />
      </cc:License>
    </rdf:RDF>
  </metadata>
  <g
     inkscape:label="Ebene 1"
     inkscape:groupmode="layer"
     id="layer1">
    <g
       transform="translate(189.10714,-330.17852)"
       id="g4377">
      <path
         inkscape:connector-curvature="0"
         id="rect4183"
         transform="translate(0,652.36214)"
         d="M 310.8418,9.9160156 C 289.60027,9.7744456 267.53597,15.582807 252.95703,30.304688 230.36514,53.217607 219.55196,83.797007 230.81055,114.0918 l -34.04688,34.44922 5.61524,5.63086 c 19.47922,-5.13919 41.73297,-2.00727 57.76562,14.0664 l 11.68164,11.71094 11.24414,-11.37695 c 30.46652,12.71969 61.9692,2.06577 85.27539,-21.51368 18.57454,-18.84803 22.99405,-49.635131 18.67188,-75.890621 l -46.16016,47.759761 -52.58398,-8.40429 -7.49024,-54.539065 44.5293,-45.056641 c -4.71221,-0.62998 -9.56881,-0.9790484 -14.4707,-1.0117184 z M 172.16016,173.43555 l -1.59766,1.61718 13.25195,13.28711 a 17.501748,17.501748 0 0 1 3.40625,19.88672 c -4.70978,9.88262 -3.74901,23.49956 2.92383,30.18946 l 12.00391,12.03515 45.07422,-45.60742 -11.85743,-11.88867 c -6.69236,-6.70947 -20.20751,-7.64025 -30.04101,-2.90235 a 17.501748,17.501748 0 0 1 -19.98633,-3.40625 L 172.16016,173.43555 Z M 145.95898,199.94922 16.947266,330.48633 c -12.8426904,12.99469 -9.3816016,37.42079 3.355468,50.30859 12.73684,12.8876 36.852633,16.3658 49.695313,3.3711 L 127.875,325.60547 c -10.19546,-3.55539 -18.61523,-13.27284 -18.61523,-24.9668 l 0,-0.73242 c 0,-15.32531 12.20455,-27.02539 27.17187,-27.02539 l 38.65625,0 -9.72266,-9.74805 c -16.0284,-16.06936 -19.13409,-38.3118 -14.02734,-57.79101 l -5.37891,-5.39258 z"
         style="opacity:1;fill:url(#linearGradient4245);fill-opacity:1;stroke:none;stroke-width:2;stroke-linecap:butt;stroke-linejoin:round;stroke-miterlimit:4;stroke-dasharray:none;stroke-opacity:1" />
      <path
         inkscape:connector-curvature="0"
         id="rect4172"
         transform="translate(0,652.36214)"
         d="M 37.910156,10.439453 7.9355469,40.490234 57.894531,110.60938 79.703125,108.7793 171.46094,200.77344 c -7.52497,15.78972 -6.74788,36.96282 6.33203,50.07617 l 21.97461,22.03125 140,0 -91.97461,-92.20898 c -13.10369,-13.13721 -34.2626,-13.90422 -50.02735,-6.3086 L 106.02539,82.388672 107.85156,60.525391 37.910156,10.439453 Z m 197.765624,298.441407 37.07031,37.16406 38.76368,0 c -3.62738,-11.94101 -8.93536,-20.38336 -12.23047,-23.10351 a 18.0018,18.0018 0 0 1 -6.51563,-14.06055 l -57.08789,0 z m 107.98438,18.20703 c 0.6648,1.79219 1.36029,3.55295 1.93945,5.42773 l 0,-5.42578 -1.93945,-0.002 z m 2.23632,49.61914 a 18.0018,18.0018 0 0 1 -12.78125,5.33789 l -24.40625,0 c 10.37696,9.67497 24.33032,13.18692 37.30664,10.53125 l -0.11914,-15.86914 z"
         style="opacity:1;fill:url(#linearGradient4247);fill-opacity:1;stroke:none;stroke-width:2;stroke-linecap:butt;stroke-linejoin:round;stroke-miterlimit:4;stroke-dasharray:none;stroke-opacity:1" />
      <path
         id="rect4158"
         d="m 0,652.36215 399.93808,0 0,399.99995 -399.93808,0 z"
         style="color:#000000;clip-rule:nonzero;display:inline;overflow:visible;visibility:visible;opacity:1;isolation:auto;mix-blend-mode:normal;color-interpolation:sRGB;color-interpolation-filters:linearRGB;solid-color:#000000;solid-opacity:1;fill:none;fill-opacity:1;fill-rule:evenodd;stroke:none;stroke-width:35;stroke-linecap:butt;stroke-linejoin:round;stroke-miterlimit:4;stroke-dasharray:none;stroke-dashoffset:0;stroke-opacity:1;color-rendering:auto;image-rendering:auto;shape-rendering:auto;text-rendering:auto;enable-background:accumulate"
         inkscape:connector-curvature="0" />
      <path
         inkscape:export-ydpi="4.9499998"
         inkscape:export-xdpi="4.9499998"
         inkscape:export-filename="C:\Users\johannes\Desktop\g4232.png"
         sodipodi:nodetypes="sssscccccccccccccscs"
         inkscape:connector-curvature="0"
         id="rect4211"
         d="m 136.43188,943.24201 c -4.91019,0 -9.17188,4.1152 -9.17188,9.0254 l 0,0.7324 c 0,4.9102 4.041,8.4219 8.95117,8.4219 l 62.04688,0 c -10.98308,9.6123 -22.42266,29.4061 -22.42773,54.98429 l 157.28515,0 c -1.91055,-25.72659 -11.33842,-45.87189 -22.37695,-54.98429 l 52.86133,0.045 0,28.0214 0.47461,63.01759 35.17968,0.1465 -17.32422,-81.67579 -0.15039,-18.3672 0,-0.7324 -0.0449,-0.9101 c -0.42453,-4.1769 -3.74774,-7.2858 -7.93164,-7.6817 -0.29887,-0.029 -0.60328,-0.043 -0.91017,-0.043 l -0.45313,0 z"
         style="color:#000000;clip-rule:nonzero;display:inline;overflow:visible;visibility:visible;opacity:1;isolation:auto;mix-blend-mode:normal;color-interpolation:sRGB;color-interpolation-filters:linearRGB;solid-color:#000000;solid-opacity:1;fill:#2f3037;fill-opacity:1;fill-rule:evenodd;stroke:none;stroke-width:50;stroke-linecap:butt;stroke-linejoin:round;stroke-miterlimit:4;stroke-dasharray:none;stroke-dashoffset:0;stroke-opacity:1;color-rendering:auto;image-rendering:auto;shape-rendering:auto;text-rendering:auto;enable-background:accumulate" />
    </g>
  </g>
</svg>
