<?xml version="1.0" encoding="UTF-8" standalone="no"?>
<!-- Created with Inkscape (http://www.inkscape.org/) -->

<svg
   xmlns:dc="http://purl.org/dc/elements/1.1/"
   xmlns:cc="http://creativecommons.org/ns#"
   xmlns:rdf="http://www.w3.org/1999/02/22-rdf-syntax-ns#"
   xmlns:svg="http://www.w3.org/2000/svg"
   xmlns="http://www.w3.org/2000/svg"
   xmlns:xlink="http://www.w3.org/1999/xlink"
   xmlns:sodipodi="http://sodipodi.sourceforge.net/DTD/sodipodi-0.dtd"
   xmlns:inkscape="http://www.inkscape.org/namespaces/inkscape"
   width="210mm"
   height="297mm"
   viewBox="0 0 744.09448819 1052.3622047"
   id="svg2"
   version="1.1"
   inkscape:version="0.91 r13725"
   inkscape:export-xdpi="7.2011142"
   inkscape:export-ydpi="7.2011142"
   sodipodi:docname="manage-students.svg"
   inkscape:export-filename="C:\Users\johannes\Documents\Arbeit\RRZE\github3\bicons\32x32\actions\manage-students.png">
  <defs
     id="defs4">
    <linearGradient
       inkscape:collect="always"
       xlink:href="#linearGradient4255"
       id="linearGradient4245"
       x1="255"
       y1="667.36218"
       x2="513"
       y2="415.36221"
       gradientUnits="userSpaceOnUse"
       gradientTransform="matrix(1.0084671,0,0,1.0084114,-2.241027,-4.7162637)" />
    <linearGradient
       id="linearGradient4255"
       inkscape:collect="always">
      <stop
         id="stop4257"
         offset="0"
         style="stop-color:#4e505d;stop-opacity:1;" />
      <stop
         id="stop4259"
         offset="1"
         style="stop-color:#7a8597;stop-opacity:1" />
    </linearGradient>
    <linearGradient
       inkscape:collect="always"
       xlink:href="#linearGradient4255"
       id="linearGradient4247"
       x1="255"
       y1="667.36218"
       x2="513"
       y2="415.36221"
       gradientUnits="userSpaceOnUse"
       gradientTransform="matrix(0.99794174,0,0,0.99788662,-0.151407,2.790616)" />
  </defs>
  <sodipodi:namedview
     id="base"
     pagecolor="#ffffff"
     bordercolor="#666666"
     borderopacity="1.0"
     inkscape:pageopacity="0.0"
     inkscape:pageshadow="2"
     inkscape:zoom="0.5"
     inkscape:cx="67.951269"
     inkscape:cy="553.30029"
     inkscape:document-units="px"
     inkscape:current-layer="layer1"
     showgrid="false"
     showguides="true"
     inkscape:guide-bbox="true"
     inkscape:window-width="1600"
     inkscape:window-height="837"
     inkscape:window-x="-4"
     inkscape:window-y="-4"
     inkscape:window-maximized="1"
     inkscape:snap-bbox="true"
     inkscape:bbox-paths="true"
     inkscape:bbox-nodes="true"
     inkscape:snap-nodes="false">
    <sodipodi:guide
       position="315.53572,730.17859"
       orientation="0,1"
       id="guide3338" />
    <sodipodi:guide
       position="351.25,330.17858"
       orientation="0,1"
       id="guide3340" />
    <sodipodi:guide
       position="189.10714,408.8393"
       orientation="1,0"
       id="guide3344" />
    <inkscape:grid
       type="xygrid"
       id="grid3440" />
    <sodipodi:guide
       position="0,0"
       orientation="0,1"
       id="guide3405" />
    <sodipodi:guide
       position="214.125,684.50002"
       orientation="1,0"
       id="guide3407" />
    <sodipodi:guide
       position="0,0"
       orientation="0,1"
       id="guide3409" />
    <sodipodi:guide
       position="589.04521,378.30213"
       orientation="1,0"
       id="guide3411" />
    <sodipodi:guide
       position="564.00001,683.37502"
       orientation="1,0"
       id="guide3413" />
  </sodipodi:namedview>
  <metadata
     id="metadata7">
    <rdf:RDF>
      <cc:Work
         rdf:about="">
        <dc:format>image/svg+xml</dc:format>
        <dc:type
           rdf:resource="http://purl.org/dc/dcmitype/StillImage" />
        <dc:title>manage students</dc:title>
        <dc:date>June 2015</dc:date>
        <dc:creator>
          <cc:Agent>
            <dc:title>Johannes Hechler</dc:title>
          </cc:Agent>
        </dc:creator>
        <dc:rights>
          <cc:Agent>
            <dc:title>Johannes Hechler</dc:title>
          </cc:Agent>
        </dc:rights>
        <dc:publisher>
          <cc:Agent>
            <dc:title>RRZE</dc:title>
          </cc:Agent>
        </dc:publisher>
        <dc:contributor>
          <cc:Agent>
            <dc:title>Ute Weber, Hendrik Eggers, Joanna Barbach</dc:title>
          </cc:Agent>
        </dc:contributor>
        <dc:subject>
          <rdf:Bag>
            <rdf:li>manage</rdf:li>
            <rdf:li>tools</rdf:li>
            <rdf:li>administrate</rdf:li>
            <rdf:li>management</rdf:li>
            <rdf:li>administration</rdf:li>
            <rdf:li>student</rdf:li>
          </rdf:Bag>
        </dc:subject>
        <cc:license
           rdf:resource="http://creativecommons.org/licenses/by-sa/3.0/" />
      </cc:Work>
      <cc:License
         rdf:about="http://creativecommons.org/licenses/by-sa/3.0/">
        <cc:permits
           rdf:resource="http://creativecommons.org/ns#Reproduction" />
        <cc:permits
           rdf:resource="http://creativecommons.org/ns#Distribution" />
        <cc:requires
           rdf:resource="http://creativecommons.org/ns#Notice" />
        <cc:requires
           rdf:resource="http://creativecommons.org/ns#Attribution" />
        <cc:permits
           rdf:resource="http://creativecommons.org/ns#DerivativeWorks" />
        <cc:requires
           rdf:resource="http://creativecommons.org/ns#ShareAlike" />
      </cc:License>
    </rdf:RDF>
  </metadata>
  <g
     inkscape:label="Ebene 1"
     inkscape:groupmode="layer"
     id="layer1">
    <g
       id="g4179">
      <g
         id="g4195">
        <path
           style="opacity:1;fill:url(#linearGradient4245);fill-opacity:1;stroke:none;stroke-width:2;stroke-linecap:butt;stroke-linejoin:round;stroke-miterlimit:4;stroke-dasharray:none;stroke-opacity:1"
           d="M 499.94922 332.09961 C 478.70769 331.95804 456.64339 337.7664 442.06445 352.48828 C 419.47256 375.4012 408.65938 405.9806 419.91797 436.27539 L 385.87109 470.72461 L 391.48633 476.35547 C 410.96555 471.21629 433.2193 474.34821 449.25195 490.42188 L 460.93359 502.13281 L 472.17773 490.75586 C 502.64425 503.47555 534.14694 492.82164 557.45312 469.24219 C 576.02766 450.39416 580.44717 419.60705 576.125 393.35156 L 529.96484 441.11133 L 477.38086 432.70703 L 469.89062 378.16797 L 514.41992 333.11133 C 509.70771 332.48135 504.85111 332.13228 499.94922 332.09961 z M 361.26758 495.61914 L 359.66992 497.23633 L 372.92188 510.52344 A 17.501748 17.501748 0 0 1 376.32812 530.41016 C 371.61834 540.29278 372.57911 553.90971 379.25195 560.59961 L 391.25586 572.63477 L 436.33008 527.02734 L 424.47266 515.13867 C 417.7803 508.4292 404.26514 507.49843 394.43164 512.23633 A 17.501748 17.501748 0 0 1 374.44531 508.83008 L 361.26758 495.61914 z M 335.06641 522.13281 L 206.05469 652.66992 C 193.212 665.66457 196.67309 690.0907 209.41016 702.97852 C 222.147 715.86611 246.26279 719.34429 259.10547 706.34961 L 298.28906 666.70312 L 291.12695 666.70312 C 278.41388 666.70312 265.98828 655.9551 265.98828 642.16406 L 265.98828 641.33398 C 265.98828 627.0935 277.4348 616.11133 291.37695 616.11133 L 348.28906 616.11133 L 366.6543 597.5293 L 354.47266 585.31641 C 338.44426 569.24705 335.33856 547.0046 340.44531 527.52539 L 335.06641 522.13281 z "
           id="rect4183" />
        <path
           style="opacity:1;fill:url(#linearGradient4247);fill-opacity:1;stroke:none;stroke-width:2;stroke-linecap:butt;stroke-linejoin:round;stroke-miterlimit:4;stroke-dasharray:none;stroke-opacity:1"
           d="M 227.01758 332.62305 L 197.04297 362.67383 L 247 432.79297 L 268.81055 430.96289 L 360.56836 522.95703 C 353.04339 538.74675 353.82048 559.91985 366.90039 573.0332 L 409.86914 616.11133 L 549.86719 616.11133 L 436.90039 502.85547 C 423.7967 489.71827 402.63779 488.95126 386.87305 496.54688 L 295.13281 404.57227 L 296.95898 382.70898 L 227.01758 332.62305 z M 439.79297 646.11133 L 496.67383 703.13867 C 497.47628 703.94318 498.30877 704.69707 499.15625 705.42383 C 497.53265 698.41862 495.41283 691.57117 492.89453 685.47266 C 488.26889 674.27081 481.90148 665.46319 479.24414 663.26953 A 15.0015 15.0015 0 0 1 474.88477 646.11133 L 439.79297 646.11133 z M 517.33203 666.72656 C 518.45079 669.1088 519.57365 671.48017 520.62305 674.02148 C 525.77864 686.5067 529.73296 700.75124 531.40625 715.3457 C 532.30782 715.24363 533.20667 715.11341 534.10156 714.95312 L 533.66602 683.69922 A 15.0015 15.0015 0 0 1 533.66406 683.49023 L 533.66406 666.74023 L 517.33203 666.72656 z M 563.80469 693.44531 L 563.83789 695.9043 L 564.42188 695.32031 L 563.80469 693.44531 z "
           id="rect4172" />
        <path
           inkscape:connector-curvature="0"
           style="color:#000000;clip-rule:nonzero;display:inline;overflow:visible;visibility:visible;opacity:1;isolation:auto;mix-blend-mode:normal;color-interpolation:sRGB;color-interpolation-filters:linearRGB;solid-color:#000000;solid-opacity:1;fill:none;fill-opacity:1;fill-rule:evenodd;stroke:none;stroke-width:35;stroke-linecap:butt;stroke-linejoin:round;stroke-miterlimit:4;stroke-dasharray:none;stroke-dashoffset:0;stroke-opacity:1;color-rendering:auto;image-rendering:auto;shape-rendering:auto;text-rendering:auto;enable-background:accumulate"
           d="m 189.10714,322.18363 399.93808,0 0,400 -399.93808,0 z"
           id="rect4158" />
        <path
           style="color:#000000;clip-rule:nonzero;display:inline;overflow:visible;visibility:visible;opacity:1;isolation:auto;mix-blend-mode:normal;color-interpolation:sRGB;color-interpolation-filters:linearRGB;solid-color:#000000;solid-opacity:1;fill:#99b000;fill-opacity:1;fill-rule:evenodd;stroke:none;stroke-width:50;stroke-linecap:butt;stroke-linejoin:round;stroke-miterlimit:4;stroke-dasharray:none;stroke-dashoffset:0;stroke-opacity:1;color-rendering:auto;image-rendering:auto;shape-rendering:auto;text-rendering:auto;enable-background:accumulate"
           d="m 291.37656,631.11222 c -5.56121,0 -10.38794,4.66082 -10.38794,10.22204 l 0,0.82951 c 0,5.56122 4.57678,9.53852 10.13797,9.53852 l 70.27339,0 c -12.43928,10.88675 -28.79334,41.23301 -28.79908,70.2025 l 184.36808,0 c -2.16386,-29.13756 -15.67319,-59.88193 -28.17527,-70.2025 l 59.86997,0.051 0,31.73663 0.53754,38.52783 39.84399,0.16592 -19.62116,-59.65983 -0.17033,-20.80242 0,-0.82951 -0.0509,-1.03076 c -0.48082,-4.7307 -4.24464,-8.25179 -8.98326,-8.70018 -0.3385,-0.0329 -0.68327,-0.0487 -1.03085,-0.0487 l -0.5132,0 z"
           id="rect4211"
           inkscape:connector-curvature="0"
           sodipodi:nodetypes="sssscccccccccccccscs"
           inkscape:export-filename="C:\Users\johannes\Desktop\g4232.png"
           inkscape:export-xdpi="4.9499998"
           inkscape:export-ydpi="4.9499998" />
      </g>
    </g>
  </g>
</svg>
