<?xml version="1.0" encoding="UTF-8" standalone="no"?>
<!-- Created with Inkscape (http://www.inkscape.org/) -->

<svg
   xmlns:dc="http://purl.org/dc/elements/1.1/"
   xmlns:cc="http://creativecommons.org/ns#"
   xmlns:rdf="http://www.w3.org/1999/02/22-rdf-syntax-ns#"
   xmlns:svg="http://www.w3.org/2000/svg"
   xmlns="http://www.w3.org/2000/svg"
   xmlns:xlink="http://www.w3.org/1999/xlink"
   xmlns:sodipodi="http://sodipodi.sourceforge.net/DTD/sodipodi-0.dtd"
   xmlns:inkscape="http://www.inkscape.org/namespaces/inkscape"
   width="210mm"
   height="297mm"
   viewBox="0 0 744.09448819 1052.3622047"
   id="svg2"
   version="1.1"
   inkscape:version="0.91 r13725"
   inkscape:export-xdpi="7.1999645"
   inkscape:export-ydpi="7.1999645"
   sodipodi:docname="mapping.svg"
   inkscape:export-filename="C:\Users\johannes\Documents\Arbeit\RRZE\github3\bicons\32x32\actions\mapping.png">
  <defs
     id="defs4">
    <linearGradient
       gradientTransform="translate(189.04325,322.18363)"
       inkscape:collect="always"
       xlink:href="#linearGradient4321"
       id="linearGradient4232"
       x1="18.18"
       y1="400"
       x2="400.00146"
       y2="36.359978"
       gradientUnits="userSpaceOnUse" />
    <linearGradient
       id="linearGradient4321"
       inkscape:collect="always">
      <stop
         id="stop4323"
         offset="0"
         style="stop-color:#4e505d;stop-opacity:1;" />
      <stop
         id="stop4325"
         offset="1"
         style="stop-color:#7a8597;stop-opacity:1" />
    </linearGradient>
  </defs>
  <sodipodi:namedview
     id="base"
     pagecolor="#ffffff"
     bordercolor="#666666"
     borderopacity="1.0"
     inkscape:pageopacity="0.0"
     inkscape:pageshadow="2"
     inkscape:zoom="1"
     inkscape:cx="257.4464"
     inkscape:cy="512.37157"
     inkscape:document-units="px"
     inkscape:current-layer="layer1"
     showgrid="false"
     showguides="true"
     inkscape:guide-bbox="true"
     inkscape:window-width="1366"
     inkscape:window-height="721"
     inkscape:window-x="-4"
     inkscape:window-y="-4"
     inkscape:window-maximized="1"
     inkscape:snap-bbox="true"
     inkscape:bbox-paths="true"
     inkscape:bbox-nodes="true">
    <sodipodi:guide
       position="315.53572,730.17859"
       orientation="0,1"
       id="guide3338" />
    <sodipodi:guide
       position="351.25,330.17858"
       orientation="0,1"
       id="guide3340" />
    <sodipodi:guide
       position="189.10714,408.8393"
       orientation="1,0"
       id="guide3344" />
    <inkscape:grid
       type="xygrid"
       id="grid3440" />
    <sodipodi:guide
       position="0,0"
       orientation="0,1"
       id="guide3405" />
    <sodipodi:guide
       position="214.125,684.50002"
       orientation="1,0"
       id="guide3407" />
    <sodipodi:guide
       position="0,0"
       orientation="0,1"
       id="guide3409" />
    <sodipodi:guide
       position="589.04521,378.30213"
       orientation="1,0"
       id="guide3411" />
    <sodipodi:guide
       position="564.00001,683.37502"
       orientation="1,0"
       id="guide3413" />
  </sodipodi:namedview>
  <metadata
     id="metadata7">
    <rdf:RDF>
      <cc:Work
         rdf:about="">
        <dc:format>image/svg+xml</dc:format>
        <dc:type
           rdf:resource="http://purl.org/dc/dcmitype/StillImage" />
        <dc:title>mapping</dc:title>
        <dc:date>June 2015</dc:date>
        <dc:creator>
          <cc:Agent>
            <dc:title>Johannes Hechler</dc:title>
          </cc:Agent>
        </dc:creator>
        <dc:rights>
          <cc:Agent>
            <dc:title>Johannes Hechler</dc:title>
          </cc:Agent>
        </dc:rights>
        <dc:publisher>
          <cc:Agent>
            <dc:title>RRZE</dc:title>
          </cc:Agent>
        </dc:publisher>
        <dc:contributor>
          <cc:Agent>
            <dc:title>Ute Weber, Hendrik Eggers, Joanna Barbach</dc:title>
          </cc:Agent>
        </dc:contributor>
        <dc:subject>
          <rdf:Bag>
            <rdf:li>mapping</rdf:li>
            <rdf:li>synchronizing</rdf:li>
            <rdf:li>synchron</rdf:li>
            <rdf:li>data</rdf:li>
          </rdf:Bag>
        </dc:subject>
        <cc:license
           rdf:resource="http://creativecommons.org/licenses/by-sa/3.0/" />
      </cc:Work>
      <cc:License
         rdf:about="http://creativecommons.org/licenses/by-sa/3.0/">
        <cc:permits
           rdf:resource="http://creativecommons.org/ns#Reproduction" />
        <cc:permits
           rdf:resource="http://creativecommons.org/ns#Distribution" />
        <cc:requires
           rdf:resource="http://creativecommons.org/ns#Notice" />
        <cc:requires
           rdf:resource="http://creativecommons.org/ns#Attribution" />
        <cc:permits
           rdf:resource="http://creativecommons.org/ns#DerivativeWorks" />
        <cc:requires
           rdf:resource="http://creativecommons.org/ns#ShareAlike" />
      </cc:License>
    </rdf:RDF>
  </metadata>
  <g
     inkscape:label="Ebene 1"
     inkscape:groupmode="layer"
     id="layer1">
    <path
       inkscape:connector-curvature="0"
       style="color:#000000;clip-rule:nonzero;display:inline;overflow:visible;visibility:visible;opacity:1;isolation:auto;mix-blend-mode:normal;color-interpolation:sRGB;color-interpolation-filters:linearRGB;solid-color:#000000;solid-opacity:1;fill:url(#linearGradient4232);fill-opacity:1;fill-rule:evenodd;stroke:none;stroke-width:36;stroke-linecap:butt;stroke-linejoin:round;stroke-miterlimit:4;stroke-dasharray:none;stroke-dashoffset:0;stroke-opacity:1;color-rendering:auto;image-rendering:auto;shape-rendering:auto;text-rendering:auto;enable-background:accumulate"
       d="m 206.35379,431.26371 c -9.59022,0 -17.31054,7.72033 -17.31054,17.31054 l 0,56.2793 c 0,9.59023 7.72032,17.31055 17.31054,17.31055 l 19.04883,0 0,18.17969 0,18.17968 0,54.53907 0,18.18164 0,72.71875 0,0.16601 72.72071,0 0,4.20508 c 0,7.67218 6.17548,13.84961 13.84765,13.84961 l 26.84375,0 c 7.67218,0 13.84766,-6.17743 13.84766,-13.84961 l 0,-26.88281 c 0,-7.67218 -6.17548,-13.84766 -13.84766,-13.84766 l -26.84375,0 c -7.67218,0 -13.84765,6.17548 -13.84765,13.84766 l 0,4.33203 -54.54102,0 0,-54.53906 54.54102,0 0,4.33007 c 0,7.67218 6.17548,13.84961 13.84765,13.84961 l 26.84375,0 c 7.67218,0 13.84766,-6.17743 13.84766,-13.84961 l 0,-27.12304 c 0,-7.67218 -6.17548,-13.84766 -13.84766,-13.84766 l -26.84375,0 c -7.67218,0 -13.84765,6.17548 -13.84765,13.84766 l 0,4.61133 -54.54102,0 0,-54.53907 54.66017,0 0,4.33204 c 0,7.67217 6.17547,13.84765 13.84766,13.84765 l 26.76367,0 c 7.67218,0 13.8496,-6.17549 13.8496,-13.84765 l 0,-26.84376 c 0,-7.67217 -6.17743,-13.84765 -13.8496,-13.84765 l -26.76367,0 c -7.67219,0 -13.84766,6.17549 -13.84766,13.84765 l 0,4.33204 -54.66017,0 0,-18.17969 19.05078,0 c 9.59022,0 17.31055,-7.72032 17.31055,-17.31055 l 0,-56.2793 c 0,-9.59022 -7.72033,-17.31054 -17.31055,-17.31054 l -56.2793,0 z m 309.10157,0 c -9.59023,0 -17.31055,7.72032 -17.31055,17.31054 l 0,56.2793 c 0,9.59023 7.72032,17.31055 17.31055,17.31055 l 19.05078,0 0,18.17969 -54.66016,0 0,-4.33204 c 0,-7.67217 -6.17547,-13.84765 -13.84765,-13.84765 l -26.76367,0 c -7.67218,0 -13.84961,6.17548 -13.84961,13.84765 l 0,26.84376 c 0,7.67217 6.17743,13.84765 13.84961,13.84765 l 26.76367,0 c 7.67218,0 13.84765,-6.17548 13.84765,-13.84765 l 0,-4.33204 54.66016,0 0,54.53907 -54.54101,0 0,-4.61133 c -10e-6,-7.67218 -6.17548,-13.84766 -13.84766,-13.84766 l -26.84375,0 c -7.67218,0 -13.84766,6.17548 -13.84766,13.84766 l 0,27.12304 c 0,7.67219 6.17548,13.84961 13.84766,13.84961 l 26.84375,0 c 7.67218,0 13.84766,-6.17742 13.84766,-13.84961 l 0,-4.33007 54.54101,0 0,54.53906 -54.54101,0 0,-4.33203 c -10e-6,-7.6722 -6.17548,-13.84766 -13.84766,-13.84766 l -26.84375,0 c -7.67218,0 -13.84766,6.17546 -13.84766,13.84766 l 0,26.88281 c 0,7.6722 6.17548,13.84961 13.84766,13.84961 l 26.84375,0 c 7.67218,0 13.84766,-6.17741 13.84766,-13.84961 l 0,-4.20508 72.7207,0 0,-0.16601 0,-72.71875 0,-18.18164 0,-54.53907 0,-18.17968 0,-18.17969 19.04883,0 c 9.59023,0 17.31054,-7.72032 17.31054,-17.31055 l 0,-56.2793 c 0,-9.59021 -7.72031,-17.31054 -17.31054,-17.31054 l -56.2793,0 z"
       id="rect4584" />
    <g
       id="g4187">
      <path
         inkscape:connector-curvature="0"
         id="path4217"
         d="m 416.29325,324.68348 63.63,72.71996 -127.26,0 z"
         style="fill:#99b000;fill-rule:evenodd;stroke:#99b000;stroke-width:5;stroke-linecap:butt;stroke-linejoin:round;stroke-miterlimit:4;stroke-dasharray:none;stroke-opacity:1" />
      <path
         style="fill:#99b000;fill-rule:evenodd;stroke:#99b000;stroke-width:5;stroke-linecap:butt;stroke-linejoin:round;stroke-miterlimit:4;stroke-dasharray:none;stroke-opacity:1"
         d="m 361.75325,488.30339 -63.63,-72.71996 127.26,0 z"
         id="path4219"
         inkscape:connector-curvature="0" />
    </g>
    <path
       inkscape:connector-curvature="0"
       style="color:#000000;clip-rule:nonzero;display:inline;overflow:visible;visibility:visible;opacity:1;isolation:auto;mix-blend-mode:normal;color-interpolation:sRGB;color-interpolation-filters:linearRGB;solid-color:#000000;solid-opacity:1;fill:none;fill-opacity:1;fill-rule:evenodd;stroke:none;stroke-width:36;stroke-linecap:butt;stroke-linejoin:round;stroke-miterlimit:4;stroke-dasharray:none;stroke-dashoffset:0;stroke-opacity:1;color-rendering:auto;image-rendering:auto;shape-rendering:auto;text-rendering:auto;enable-background:accumulate"
       d="m 198.13323,322.18361 381.8215,0 c 5.03585,0 9.08998,4.05414 9.08998,9.08999 l 0,381.81999 c 0,5.0359 -4.05413,9.09 -9.08998,9.09 l -381.8215,0 c -5.03585,0 -9.08998,-4.0541 -9.08998,-9.09 l 0,-381.81999 c 0,-5.03585 4.05413,-9.08999 9.08998,-9.08999 z"
       id="rect4234" />
  </g>
</svg>
