<?xml version="1.0" encoding="UTF-8" standalone="no"?>
<!-- Created with Inkscape (http://www.inkscape.org/) -->

<svg
   xmlns:dc="http://purl.org/dc/elements/1.1/"
   xmlns:cc="http://creativecommons.org/ns#"
   xmlns:rdf="http://www.w3.org/1999/02/22-rdf-syntax-ns#"
   xmlns:svg="http://www.w3.org/2000/svg"
   xmlns="http://www.w3.org/2000/svg"
   xmlns:xlink="http://www.w3.org/1999/xlink"
   xmlns:sodipodi="http://sodipodi.sourceforge.net/DTD/sodipodi-0.dtd"
   xmlns:inkscape="http://www.inkscape.org/namespaces/inkscape"
   width="210mm"
   height="297mm"
   viewBox="0 0 744.09448819 1052.3622047"
   id="svg2"
   version="1.1"
   inkscape:version="0.91 r13725"
   sodipodi:docname="move-waiting-up.svg"
   inkscape:export-filename="C:\Users\johannes\Documents\Arbeit\RRZE\bi-con\bi-con\scalable\documents\document.png"
   inkscape:export-xdpi="4"
   inkscape:export-ydpi="4">
  <defs
     id="defs4">
    <linearGradient
       inkscape:collect="always"
       id="linearGradient4250">
      <stop
         style="stop-color:#abbe24;stop-opacity:1;"
         offset="0"
         id="stop4252" />
      <stop
         style="stop-color:#c1d53a;stop-opacity:1"
         offset="1"
         id="stop4254" />
    </linearGradient>
    <linearGradient
       id="linearGradient2224">
      <stop
         id="stop2226"
         offset="0"
         style="stop-color:#7c7c7c;stop-opacity:1;" />
      <stop
         id="stop2228"
         offset="1"
         style="stop-color:#b8b8b8;stop-opacity:1;" />
    </linearGradient>
    <linearGradient
       id="linearGradient15218">
      <stop
         id="stop15220"
         offset="0"
         style="stop-color:#eeeeef;stop-opacity:1;" />
      <stop
         id="stop2736"
         offset="0.59928656"
         style="stop-color:#d3d7cf;stop-opacity:1;" />
      <stop
         id="stop2738"
         offset="0.82758623"
         style="stop-color:#ffffff;stop-opacity:1;" />
      <stop
         id="stop15222"
         offset="1"
         style="stop-color:#d3d7cf;stop-opacity:1;" />
    </linearGradient>
    <pattern
       y="0"
       x="0"
       height="6"
       width="6"
       patternUnits="userSpaceOnUse"
       id="EMFhbasepattern" />
    <pattern
       y="0"
       x="0"
       height="6"
       width="6"
       patternUnits="userSpaceOnUse"
       id="EMFhbasepattern-5" />
    <linearGradient
       inkscape:collect="always"
       xlink:href="#linearGradient4195"
       id="linearGradient4201"
       x1="507"
       y1="681.40619"
       x2="302"
       y2="373.40619"
       gradientUnits="userSpaceOnUse" />
    <linearGradient
       inkscape:collect="always"
       id="linearGradient4195">
      <stop
         style="stop-color:#5a6578;stop-opacity:1"
         offset="0"
         id="stop4197" />
      <stop
         style="stop-color:#9397a2;stop-opacity:1"
         offset="1"
         id="stop4199" />
    </linearGradient>
    <linearGradient
       inkscape:collect="always"
       xlink:href="#linearGradient4250"
       id="linearGradient4256-0"
       x1="360"
       y1="714.61218"
       x2="360"
       y2="372.36221"
       gradientUnits="userSpaceOnUse"
       gradientTransform="matrix(0.73162683,0,0,0.73432624,179.99941,154.46672)" />
  </defs>
  <sodipodi:namedview
     id="base"
     pagecolor="#ffffff"
     bordercolor="#666666"
     borderopacity="1.0"
     inkscape:pageopacity="0.0"
     inkscape:pageshadow="2"
     inkscape:zoom="0.70710678"
     inkscape:cx="400.23314"
     inkscape:cy="398.83629"
     inkscape:document-units="px"
     inkscape:current-layer="layer1"
     showgrid="false"
     showguides="true"
     inkscape:guide-bbox="true"
     inkscape:window-width="1366"
     inkscape:window-height="721"
     inkscape:window-x="-4"
     inkscape:window-y="-4"
     inkscape:window-maximized="1">
    <sodipodi:guide
       position="315.53572,730.17859"
       orientation="0,1"
       id="guide3338" />
    <sodipodi:guide
       position="351.25,330.17858"
       orientation="0,1"
       id="guide3340" />
    <sodipodi:guide
       position="189.10714,408.8393"
       orientation="1,0"
       id="guide3344" />
    <sodipodi:guide
       position="589.04521,468.07945"
       orientation="1,0"
       id="guide3346" />
    <inkscape:grid
       type="xygrid"
       id="grid3440" />
    <sodipodi:guide
       position="0,0"
       orientation="0,1"
       id="guide3405" />
    <sodipodi:guide
       position="214.125,684.50002"
       orientation="1,0"
       id="guide3407" />
    <sodipodi:guide
       position="0,0"
       orientation="0,1"
       id="guide3409" />
    <sodipodi:guide
       position="589.04521,378.30213"
       orientation="1,0"
       id="guide3411" />
    <sodipodi:guide
       position="564.00001,683.37502"
       orientation="1,0"
       id="guide3413" />
  </sodipodi:namedview>
  <metadata
     id="metadata7">
    <rdf:RDF>
      <cc:Work
         rdf:about="">
        <dc:format>image/svg+xml</dc:format>
        <dc:type
           rdf:resource="http://purl.org/dc/dcmitype/StillImage" />
        <dc:title />
      </cc:Work>
    </rdf:RDF>
  </metadata>
  <g
     inkscape:label="Ebene 1"
     inkscape:groupmode="layer"
     id="layer1">
    <g
       transform="matrix(0.96924649,0,0,0.97790738,11.185731,7.4132106)"
       id="g4214">
      <g
         id="g4172"
         transform="matrix(1.1618011,0,0,1.1618011,-66.065194,-61.258745)">
        <path
           style="fill:url(#linearGradient4201);fill-opacity:1;fill-rule:evenodd;stroke:none;stroke-width:1px;stroke-linecap:butt;stroke-linejoin:miter;stroke-opacity:1"
           d="m 270.02344,330.42385 c -5.01126,-0.008 -8.76693,1.22614 -11.26452,3.69708 -2.49758,2.47093 -3.73707,6.17826 -3.71595,11.11542 -0.0211,41.06284 -0.0317,96.5942 -0.0336,154.36224 -0.002,57.76803 0.005,117.77275 0.018,167.78229 -0.0134,4.99046 1.23753,8.75148 3.73399,11.25644 2.49645,2.50497 6.23848,3.75388 11.20742,3.72012 l 122.48926,0.0312 122.48926,0.0312 c 6.01212,0.50218 9.86473,-1.59547 12.1779,-4.66266 2.31316,-3.0672 3.08689,-7.10393 2.94124,-10.47992 l 0.39989,-157.75016 0.39989,-157.75015 c 0.189,-5.66566 0.10331,-13.50837 -3.74967,-17.41961 -3.85297,-3.91125 -11.47324,-3.89102 -17.35339,-3.8308 0,0 -31.33268,-0.0285 -76.96648,-0.0557 -45.6338,-0.0271 -105.56873,-0.0528 -162.77324,-0.0471 z"
           id="path4244"
           inkscape:connector-curvature="0"
           sodipodi:nodetypes="cscscscccscccscscc" />
        <path
           style="fill:#ffffff;fill-opacity:1;stroke:none"
           d="m 290.45332,446.06097 c 62.47941,0 124.95884,0 187.43825,0 4.72534,-10e-6 4.72534,21.0078 0,21.00781 -62.47941,0 -124.95884,0 -187.43825,0 -6.30046,-1e-5 -6.30046,-21.00782 0,-21.00781 z"
           id="rect4248"
           inkscape:connector-curvature="0"
           sodipodi:nodetypes="ccccc"
           inkscape:export-xdpi="4.9499998"
           inkscape:export-ydpi="4.9499998" />
        <path
           style="fill:#ffffff;fill-opacity:1;stroke:none"
           d="m 289.9664,482.98002 c 56.03531,0 112.0706,0 168.10591,0 4.23795,-1e-5 4.23795,21.00781 0,21.00782 -56.03531,0 -112.0706,0 -168.10591,0 -5.65062,-1e-5 -5.65062,-21.00783 0,-21.00782 z"
           id="rect4248-4"
           inkscape:connector-curvature="0"
           sodipodi:nodetypes="ccccc"
           inkscape:export-xdpi="4.9499998"
           inkscape:export-ydpi="4.9499998" />
        <path
           style="fill:#ffffff;fill-opacity:1;stroke:none"
           d="m 290.61134,519.39523 c 59.59653,0 119.19305,0 178.78958,0 4.5073,-2e-5 4.5073,21.00779 0,21.0078 -59.59653,0 -119.19305,0 -178.78958,0 -6.00974,-10e-6 -6.00974,-21.00782 0,-21.0078 z"
           id="rect4248-1"
           inkscape:connector-curvature="0"
           sodipodi:nodetypes="ccccc"
           inkscape:export-xdpi="4.9499998"
           inkscape:export-ydpi="4.9499998" />
        <path
           style="fill:#ffffff;fill-opacity:1;stroke:none"
           d="m 289.92792,556.83832 c 55.52657,0 111.05312,0 166.57968,0 4.19949,-10e-6 4.19949,21.00781 0,21.00782 -55.52656,0 -111.05311,0 -166.57968,0 -5.59932,-10e-6 -5.59932,-21.00783 0,-21.00782 z"
           id="rect4248-1-5"
           inkscape:connector-curvature="0"
           sodipodi:nodetypes="ccccc"
           inkscape:transform-center-x="11.294007"
           inkscape:transform-center-y="-32.829958"
           inkscape:export-xdpi="4.9499998"
           inkscape:export-ydpi="4.9499998" />
      </g>
    </g>
    <rect
       style="fill:none;fill-rule:evenodd;stroke:none;stroke-width:1px;stroke-linecap:butt;stroke-linejoin:miter;stroke-opacity:1"
       id="rect3336"
       width="400"
       height="400"
       x="189.14485"
       y="-722.27002"
       inkscape:export-xdpi="4.9499998"
       inkscape:export-ydpi="4.9499998"
       transform="scale(1,-1)" />
    <path
       style="fill:url(#linearGradient4256-0);fill-opacity:1;fill-rule:evenodd;stroke:#ffffff;stroke-width:30;stroke-linecap:butt;stroke-linejoin:miter;stroke-miterlimit:4;stroke-dasharray:none;stroke-opacity:1"
       d="m 459.6117,397.6177 c -2.40369,0 -4.80737,1.60837 -8.01229,4.82511 L 339.42743,534.32908 c -6.40982,6.43349 -3.20491,16.0837 9.61474,16.0837 l 38.45897,0 0,112.58585 c 0,8.91037 7.14698,16.08369 16.02457,16.08369 l 112.17198,0 c 8.87758,0 16.02455,-7.17332 16.02455,-16.08369 l 0,-112.58585 38.45898,0 c 12.81964,0 12.81964,-12.86696 9.61473,-16.0837 L 467.62398,402.44281 c -3.20491,-3.21674 -5.6086,-4.82511 -8.01228,-4.82511 z"
       id="path4237-0"
       inkscape:connector-curvature="0" />
    <path
       style="fill:#abbe24;fill-opacity:1;fill-rule:evenodd;stroke:none;stroke-width:1px;stroke-linecap:butt;stroke-linejoin:miter;stroke-opacity:1"
       d="m 460.10996,396.172 c -2.40369,0 -4.80737,1.60837 -8.01229,4.82511 L 339.92569,532.88338 c -6.40982,6.43349 -3.20491,16.0837 9.61474,16.0837 l 38.45897,0 0,112.58585 c 0,8.91037 7.14698,16.08369 16.02457,16.08369 l 112.17198,0 c 8.87758,0 16.02455,-7.17332 16.02455,-16.08369 l 0,-112.58585 38.45898,0 c 12.81964,0 12.81964,-12.86696 9.61473,-16.0837 L 468.12224,400.99711 c -3.20491,-3.21674 -5.6086,-4.82511 -8.01228,-4.82511 z"
       id="path4237"
       inkscape:connector-curvature="0" />
  </g>
</svg>
