<?xml version="1.0" encoding="UTF-8" standalone="no"?>
<!-- Created with Inkscape (http://www.inkscape.org/) -->

<svg
   xmlns:dc="http://purl.org/dc/elements/1.1/"
   xmlns:cc="http://creativecommons.org/ns#"
   xmlns:rdf="http://www.w3.org/1999/02/22-rdf-syntax-ns#"
   xmlns:svg="http://www.w3.org/2000/svg"
   xmlns="http://www.w3.org/2000/svg"
   xmlns:xlink="http://www.w3.org/1999/xlink"
   xmlns:sodipodi="http://sodipodi.sourceforge.net/DTD/sodipodi-0.dtd"
   xmlns:inkscape="http://www.inkscape.org/namespaces/inkscape"
   width="210mm"
   height="297mm"
   viewBox="0 0 744.09448819 1052.3622047"
   id="svg2"
   version="1.1"
   inkscape:version="0.91 r13725"
   inkscape:export-xdpi="7.1992784"
   inkscape:export-ydpi="7.1992784"
   sodipodi:docname="move-waiting-up-grey.svg"
   inkscape:export-filename="C:\Users\johannes\Documents\Arbeit\RRZE\github3\bicons\32x32\actions\move-waiting-up-grey.png">
  <defs
     id="defs4">
    <linearGradient
       inkscape:collect="always"
       xlink:href="#linearGradient4321"
       id="linearGradient4201"
       x1="286.38269"
       y1="672.9209"
       x2="532.51678"
       y2="367.74933"
       gradientUnits="userSpaceOnUse"
       gradientTransform="matrix(1.1363532,0,0,1.1363532,-65.179757,-39.305223)" />
    <linearGradient
       id="linearGradient4321"
       inkscape:collect="always">
      <stop
         id="stop4323"
         offset="0"
         style="stop-color:#4e505d;stop-opacity:1;" />
      <stop
         id="stop4325"
         offset="1"
         style="stop-color:#7a8597;stop-opacity:1" />
    </linearGradient>
  </defs>
  <sodipodi:namedview
     id="base"
     pagecolor="#ffffff"
     bordercolor="#666666"
     borderopacity="1.0"
     inkscape:pageopacity="0.0"
     inkscape:pageshadow="2"
     inkscape:zoom="0.35355339"
     inkscape:cx="222.64862"
     inkscape:cy="507.81747"
     inkscape:document-units="px"
     inkscape:current-layer="layer1"
     showgrid="false"
     showguides="true"
     inkscape:guide-bbox="true"
     inkscape:window-width="1366"
     inkscape:window-height="721"
     inkscape:window-x="-4"
     inkscape:window-y="-4"
     inkscape:window-maximized="1"
     inkscape:snap-bbox="true"
     inkscape:bbox-paths="true"
     inkscape:bbox-nodes="true"
     inkscape:snap-nodes="false">
    <sodipodi:guide
       position="315.53572,730.17859"
       orientation="0,1"
       id="guide3338" />
    <sodipodi:guide
       position="351.25,330.17858"
       orientation="0,1"
       id="guide3340" />
    <sodipodi:guide
       position="189.10714,408.8393"
       orientation="1,0"
       id="guide3344" />
    <sodipodi:guide
       position="589.04521,468.07945"
       orientation="1,0"
       id="guide3346" />
    <inkscape:grid
       type="xygrid"
       id="grid3440" />
    <sodipodi:guide
       position="0,0"
       orientation="0,1"
       id="guide3405" />
    <sodipodi:guide
       position="214.125,684.50002"
       orientation="1,0"
       id="guide3407" />
    <sodipodi:guide
       position="0,0"
       orientation="0,1"
       id="guide3409" />
    <sodipodi:guide
       position="589.04521,378.30213"
       orientation="1,0"
       id="guide3411" />
    <sodipodi:guide
       position="564.00001,683.37502"
       orientation="1,0"
       id="guide3413" />
  </sodipodi:namedview>
  <metadata
     id="metadata7">
    <rdf:RDF>
      <cc:Work
         rdf:about="">
        <dc:format>image/svg+xml</dc:format>
        <dc:type
           rdf:resource="http://purl.org/dc/dcmitype/StillImage" />
        <dc:title>move waiting up grey</dc:title>
        <dc:date>June 2015</dc:date>
        <dc:creator>
          <cc:Agent>
            <dc:title>Johannes Hechler</dc:title>
          </cc:Agent>
        </dc:creator>
        <dc:rights>
          <cc:Agent>
            <dc:title>Johannes Hechler</dc:title>
          </cc:Agent>
        </dc:rights>
        <dc:publisher>
          <cc:Agent>
            <dc:title>RRZE</dc:title>
          </cc:Agent>
        </dc:publisher>
        <dc:contributor>
          <cc:Agent>
            <dc:title>Ute Weber, Hendrik Eggers, Joanna Barbach</dc:title>
          </cc:Agent>
        </dc:contributor>
        <dc:subject>
          <rdf:Bag>
            <rdf:li>move</rdf:li>
            <rdf:li>waiting</rdf:li>
            <rdf:li>list</rdf:li>
            <rdf:li>up</rdf:li>
            <rdf:li>waitinglist</rdf:li>
            <rdf:li>member</rdf:li>
            <rdf:li>membership</rdf:li>
          </rdf:Bag>
        </dc:subject>
        <cc:license
           rdf:resource="http://creativecommons.org/licenses/by-sa/3.0/" />
      </cc:Work>
      <cc:License
         rdf:about="http://creativecommons.org/licenses/by-sa/3.0/">
        <cc:permits
           rdf:resource="http://creativecommons.org/ns#Reproduction" />
        <cc:permits
           rdf:resource="http://creativecommons.org/ns#Distribution" />
        <cc:requires
           rdf:resource="http://creativecommons.org/ns#Notice" />
        <cc:requires
           rdf:resource="http://creativecommons.org/ns#Attribution" />
        <cc:permits
           rdf:resource="http://creativecommons.org/ns#DerivativeWorks" />
        <cc:requires
           rdf:resource="http://creativecommons.org/ns#ShareAlike" />
      </cc:License>
    </rdf:RDF>
  </metadata>
  <g
     inkscape:label="Ebene 1"
     inkscape:groupmode="layer"
     id="layer1">
    <g
       id="g4184"
       transform="translate(8.7037267,-13.947412)">
      <rect
         inkscape:export-ydpi="3.5999999"
         inkscape:export-xdpi="3.5999999"
         y="336.13104"
         x="180.40341"
         height="400"
         width="400"
         id="rect3336-9"
         style="fill:none;fill-rule:evenodd;stroke:none;stroke-width:1px;stroke-linecap:butt;stroke-linejoin:miter;stroke-opacity:1" />
      <rect
         inkscape:export-ydpi="3.46731"
         inkscape:export-xdpi="3.46731"
         y="336.18304"
         x="180.44348"
         height="400"
         width="400"
         id="rect3336-0"
         style="fill:none;fill-rule:evenodd;stroke:none;stroke-width:1px;stroke-linecap:butt;stroke-linejoin:miter;stroke-opacity:1" />
      <path
         id="path4244"
         d="m 436.79823,336.15446 -195.13672,0.0195 c -11.38911,-0.0191 -17.07143,5.61131 -17.02343,16.83203 -0.048,93.32378 -0.048,252.41153 -0.0176,366.06837 -0.0303,11.3419 5.68557,17.09623 16.97851,17.01953 l 130.11133,0.0332 c -2.19898,-4.44666 -3.44336,-9.41905 -3.44336,-14.63477 l 0,-95.08594 -20.95898,0 c -10.80097,0 -22.44575,-4.81574 -27.68164,-15.32617 -5.01696,-10.07094 -1.92658,-22.18291 4.78125,-29.64453 l 112.57422,-132.36133 0.48633,-0.48828 c 4.23418,-4.24981 10.2,-9.97461 20.41015,-9.97461 10.21018,0 16.17595,5.72477 20.41016,9.97461 l 0.48633,0.48828 58.39062,68.65235 0,-81.49414 c -5.1936,0.47604 -20.79145,1.82483 -38.26953,2.47656 -10.61175,0.39565 -21.6751,0.54541 -31.7832,-0.0684 -5.05405,-0.30687 -9.84437,-0.77476 -14.74024,-1.74609 -4.89588,-0.97134 -6.72004,-0.57785 -13.7207,-6.60744 -6.19763,-5.33794 -7.3876,-13.41967 -7.72266,-22.32812 -0.33507,-8.90845 0.65028,-17.33283 1.75196,-25.95117 2.20336,-17.23667 4.84051,-35.66105 4.24218,-44.08594 l -0.125,-1.76758 z m -112.39062,245.28126 -0.043,0.0508 0.93167,-1.01369 c -0.30616,0.30729 -0.59595,0.63728 -0.88867,0.96289 z M 472.45448,387.06071 c -0.0523,0.3951 -0.12783,0.89653 -0.17773,1.28711 -0.48825,3.81953 -0.85419,7.37758 -1.0918,10.41016 3.96859,0.21169 8.5956,0.27568 13.56641,0.23828 -2.04702,-2.04541 -3.98331,-4.0427 -6.06446,-6.08399 -2.23989,-2.19699 -4.00316,-3.70652 -6.23242,-5.85156 z m -1.55859,19.02734 c 0.0686,1.71999 0.6109,1.45369 0,0 z m -13.01758,72.44142 -96.00586,112.87695 41.39453,0 0,128.66993 109.22266,0 0,-128.66993 24.67383,0 0.002,-19.6582 -79.28711,-93.21875 z"
         style="fill:url(#linearGradient4201);fill-opacity:1;fill-rule:evenodd;stroke:none;stroke-width:1px;stroke-linecap:butt;stroke-linejoin:miter;stroke-opacity:1"
         inkscape:connector-curvature="0" />
      <path
         style="fill:#99b000;fill-opacity:1;fill-rule:evenodd;stroke:none;stroke-width:1px;stroke-linecap:butt;stroke-linejoin:miter;stroke-opacity:1"
         d="m 451.85999,336.15141 c 4.54635,-1.18483 85.25811,76.62516 85.25811,84.98046 0,0 -75.44211,7.35253 -86.90512,-1.29887 -11.46301,-8.65141 3.62243,-55.86651 1.64701,-83.68159 z"
         id="path4288"
         inkscape:connector-curvature="0"
         sodipodi:nodetypes="cczc"
         inkscape:export-xdpi="3.46731"
         inkscape:export-ydpi="3.46731" />
      <path
         id="rect4232"
         d="m 262.2123,481.57049 c -5.03585,0 -9.08985,4.05398 -9.08985,9.08984 0,5.03586 4.054,9.08984 9.08985,9.08984 l 108.69726,0 15.46094,-18.17968 -124.1582,0 z m 0,54.54101 c -5.03585,0 -9.08985,4.05399 -9.08985,9.08985 0,5.03585 4.054,9.08984 9.08985,9.08984 l 62.30859,0 15.46289,-18.17969 -77.77148,0 z m 0,54.53906 c -5.03585,0 -9.08985,4.05399 -9.08985,9.08985 0,5.03585 4.054,9.08984 9.08985,9.08984 l 38.19531,0 c -1.34727,-6.18843 -1.20737,-12.35294 0.11133,-18.17969 l -38.30664,0 z m 158.55468,0 0,18.17969 23.2461,0 c 5.03586,0 9.08984,-4.05399 9.08984,-9.08984 0,-5.03586 -4.05398,-9.08984 -9.08984,-9.08985 l -23.2461,0 z"
         style="color:#000000;clip-rule:nonzero;display:inline;overflow:visible;visibility:visible;opacity:1;isolation:auto;mix-blend-mode:normal;color-interpolation:sRGB;color-interpolation-filters:linearRGB;solid-color:#000000;solid-opacity:1;fill:#ffffff;fill-opacity:1;fill-rule:evenodd;stroke:none;stroke-width:50;stroke-linecap:butt;stroke-linejoin:miter;stroke-miterlimit:4;stroke-dasharray:none;stroke-dashoffset:0;stroke-opacity:1;color-rendering:auto;image-rendering:auto;shape-rendering:auto;text-rendering:auto;enable-background:accumulate"
         inkscape:connector-curvature="0" />
      <rect
         transform="scale(1,-1)"
         inkscape:export-ydpi="4.9499998"
         inkscape:export-xdpi="4.9499998"
         y="-736.21747"
         x="180.44113"
         height="400"
         width="400"
         id="rect3336"
         style="fill:none;fill-rule:evenodd;stroke:none;stroke-width:1px;stroke-linecap:butt;stroke-linejoin:miter;stroke-opacity:1" />
      <path
         inkscape:connector-curvature="0"
         id="path4237"
         d="m 458.37673,454.66645 c -2.40369,0 -4.80737,1.60837 -8.01229,4.82511 L 338.19246,591.37783 c -6.40982,6.43349 -3.20491,16.0837 9.61474,16.0837 l 38.45897,0 0,112.58585 c 0,8.91037 7.14698,16.08369 16.02457,16.08369 l 112.17198,0 c 8.87758,0 16.02455,-7.17332 16.02455,-16.08369 l 0,-112.58585 38.45898,0 c 12.81964,0 12.81964,-12.86696 9.61473,-16.0837 L 466.38901,459.49156 c -3.20491,-3.21674 -5.6086,-4.82511 -8.01228,-4.82511 z"
         style="fill:#7a859c;fill-opacity:1;fill-rule:evenodd;stroke:none;stroke-width:1px;stroke-linecap:butt;stroke-linejoin:miter;stroke-opacity:1" />
    </g>
  </g>
</svg>
