<?xml version="1.0" encoding="UTF-8" standalone="no"?>
<!-- Created with Inkscape (http://www.inkscape.org/) -->

<svg
   xmlns:dc="http://purl.org/dc/elements/1.1/"
   xmlns:cc="http://creativecommons.org/ns#"
   xmlns:rdf="http://www.w3.org/1999/02/22-rdf-syntax-ns#"
   xmlns:svg="http://www.w3.org/2000/svg"
   xmlns="http://www.w3.org/2000/svg"
   xmlns:xlink="http://www.w3.org/1999/xlink"
   xmlns:sodipodi="http://sodipodi.sourceforge.net/DTD/sodipodi-0.dtd"
   xmlns:inkscape="http://www.inkscape.org/namespaces/inkscape"
   width="210mm"
   height="297mm"
   viewBox="0 0 744.09448819 1052.3622047"
   id="svg2"
   version="1.1"
   inkscape:version="0.91 r13725"
   inkscape:export-xdpi="7.1992784"
   inkscape:export-ydpi="7.1992784"
   sodipodi:docname="move-waiting-up.svg"
   inkscape:export-filename="C:\Users\johannes\Documents\Arbeit\RRZE\github3\bicons\32x32\actions\move-waiting-up.png">
  <defs
     id="defs4">
    <linearGradient
       inkscape:collect="always"
       xlink:href="#linearGradient4321"
       id="linearGradient4201"
       x1="286.38269"
       y1="672.9209"
       x2="532.51678"
       y2="367.74933"
       gradientUnits="userSpaceOnUse"
       gradientTransform="matrix(1.1363532,0,0,1.1363532,-56.476028,-53.252658)" />
    <linearGradient
       id="linearGradient4321"
       inkscape:collect="always">
      <stop
         id="stop4323"
         offset="0"
         style="stop-color:#4e505d;stop-opacity:1;" />
      <stop
         id="stop4325"
         offset="1"
         style="stop-color:#7a8597;stop-opacity:1" />
    </linearGradient>
  </defs>
  <sodipodi:namedview
     id="base"
     pagecolor="#ffffff"
     bordercolor="#666666"
     borderopacity="1.0"
     inkscape:pageopacity="0.0"
     inkscape:pageshadow="2"
     inkscape:zoom="1"
     inkscape:cx="294.23616"
     inkscape:cy="538.0874"
     inkscape:document-units="px"
     inkscape:current-layer="layer1"
     showgrid="false"
     showguides="true"
     inkscape:guide-bbox="true"
     inkscape:window-width="1600"
     inkscape:window-height="837"
     inkscape:window-x="-4"
     inkscape:window-y="-4"
     inkscape:window-maximized="1"
     inkscape:snap-bbox="true"
     inkscape:bbox-paths="true"
     inkscape:bbox-nodes="true"
     inkscape:snap-nodes="false">
    <sodipodi:guide
       position="315.53572,730.17859"
       orientation="0,1"
       id="guide3338" />
    <sodipodi:guide
       position="351.25,330.17858"
       orientation="0,1"
       id="guide3340" />
    <sodipodi:guide
       position="189.10714,408.8393"
       orientation="1,0"
       id="guide3344" />
    <sodipodi:guide
       position="589.04521,468.07945"
       orientation="1,0"
       id="guide3346" />
    <inkscape:grid
       type="xygrid"
       id="grid3440" />
    <sodipodi:guide
       position="0,0"
       orientation="0,1"
       id="guide3405" />
    <sodipodi:guide
       position="214.125,684.50002"
       orientation="1,0"
       id="guide3407" />
    <sodipodi:guide
       position="0,0"
       orientation="0,1"
       id="guide3409" />
    <sodipodi:guide
       position="589.04521,378.30213"
       orientation="1,0"
       id="guide3411" />
    <sodipodi:guide
       position="564.00001,683.37502"
       orientation="1,0"
       id="guide3413" />
  </sodipodi:namedview>
  <metadata
     id="metadata7">
    <rdf:RDF>
      <cc:Work
         rdf:about="">
        <dc:format>image/svg+xml</dc:format>
        <dc:type
           rdf:resource="http://purl.org/dc/dcmitype/StillImage" />
        <dc:title>move waiting up</dc:title>
        <dc:date>June 2015</dc:date>
        <dc:creator>
          <cc:Agent>
            <dc:title>Johannes Hechler</dc:title>
          </cc:Agent>
        </dc:creator>
        <dc:rights>
          <cc:Agent>
            <dc:title>Johannes Hechler</dc:title>
          </cc:Agent>
        </dc:rights>
        <dc:publisher>
          <cc:Agent>
            <dc:title>RRZE</dc:title>
          </cc:Agent>
        </dc:publisher>
        <dc:contributor>
          <cc:Agent>
            <dc:title>Ute Weber, Hendrik Eggers, Joanna Barbach</dc:title>
          </cc:Agent>
        </dc:contributor>
        <dc:subject>
          <rdf:Bag>
            <rdf:li>move</rdf:li>
            <rdf:li>waiting</rdf:li>
            <rdf:li>list</rdf:li>
            <rdf:li>up</rdf:li>
            <rdf:li>waitinglist</rdf:li>
            <rdf:li>membership</rdf:li>
          </rdf:Bag>
        </dc:subject>
        <cc:license
           rdf:resource="http://creativecommons.org/licenses/by-sa/3.0/" />
      </cc:Work>
      <cc:License
         rdf:about="http://creativecommons.org/licenses/by-sa/3.0/">
        <cc:permits
           rdf:resource="http://creativecommons.org/ns#Reproduction" />
        <cc:permits
           rdf:resource="http://creativecommons.org/ns#Distribution" />
        <cc:requires
           rdf:resource="http://creativecommons.org/ns#Notice" />
        <cc:requires
           rdf:resource="http://creativecommons.org/ns#Attribution" />
        <cc:permits
           rdf:resource="http://creativecommons.org/ns#DerivativeWorks" />
        <cc:requires
           rdf:resource="http://creativecommons.org/ns#ShareAlike" />
      </cc:License>
    </rdf:RDF>
  </metadata>
  <g
     inkscape:label="Ebene 1"
     inkscape:groupmode="layer"
     id="layer1">
    <g
       id="g4201">
      <rect
         inkscape:export-ydpi="3.5999999"
         inkscape:export-xdpi="3.5999999"
         y="322.18362"
         x="189.10713"
         height="400"
         width="400"
         id="rect3336"
         style="fill:none;fill-rule:evenodd;stroke:none;stroke-width:1px;stroke-linecap:butt;stroke-linejoin:miter;stroke-opacity:1" />
      <rect
         inkscape:export-ydpi="3.46731"
         inkscape:export-xdpi="3.46731"
         y="322.23563"
         x="189.1472"
         height="400"
         width="400"
         id="rect3336-0"
         style="fill:none;fill-rule:evenodd;stroke:none;stroke-width:1px;stroke-linecap:butt;stroke-linejoin:miter;stroke-opacity:1" />
      <path
         id="path4244"
         d="M 445.50195 322.20703 L 250.36523 322.22656 C 238.97612 322.20746 233.2938 327.83787 233.3418 339.05859 C 233.2938 432.38236 233.29382 591.47011 233.32422 705.12695 C 233.29392 716.46885 239.00979 722.22318 250.30273 722.14648 L 424.0332 722.18945 C 422.242 718.37243 421.23047 714.14553 421.23047 709.72656 L 421.23047 640.02734 L 408.94336 640.02734 C 399.58768 640.02734 388.84528 635.75387 383.9707 625.96875 C 379.33344 616.66 382.19531 605.5006 388.16602 598.73242 L 475.49219 496.05859 L 475.97852 495.56836 C 479.49008 492.04384 484.9139 486.68359 494.58203 486.68359 C 504.25019 486.68359 509.67203 492.04384 513.18359 495.56836 L 513.66992 496.05859 L 545.86914 533.91602 L 545.86914 422.28516 C 540.67554 422.7612 525.07769 424.10999 507.59961 424.76172 C 496.98786 425.15737 485.92451 425.30713 475.81641 424.69336 C 470.76236 424.38649 465.97204 423.9186 461.07617 422.94727 C 456.18029 421.97594 454.35613 422.36942 447.35547 416.33984 C 441.15784 411.0019 439.96787 402.92017 439.63281 394.01172 C 439.29774 385.10327 440.28309 376.67889 441.38477 368.06055 C 443.58813 350.82388 446.22528 332.3995 445.62695 323.97461 L 445.50195 322.20703 z M 481.1582 373.11328 C 481.1059 373.50838 481.03037 374.00981 480.98047 374.40039 C 480.49222 378.21992 480.12628 381.77797 479.88867 384.81055 C 483.85726 385.02224 488.48427 385.08623 493.45508 385.04883 C 491.40806 383.00342 489.47177 381.00613 487.39062 378.96484 C 485.15073 376.76785 483.38746 375.25832 481.1582 373.11328 z M 479.59961 392.14062 C 479.66821 393.86061 480.21051 393.59431 479.59961 392.14062 z M 494.58203 527.63477 L 428.75586 605.02734 L 456.23047 605.02734 L 456.23047 704.68359 L 532.93164 704.68359 L 532.93164 605.02734 L 545.86719 605.02734 L 545.86719 587.93359 L 494.58203 527.63477 z "
         style="fill:url(#linearGradient4201);fill-opacity:1;fill-rule:evenodd;stroke:none;stroke-width:1px;stroke-linecap:butt;stroke-linejoin:miter;stroke-opacity:1" />
      <path
         style="fill:#99b000;fill-opacity:1;fill-rule:evenodd;stroke:none;stroke-width:1px;stroke-linecap:butt;stroke-linejoin:miter;stroke-opacity:1"
         d="m 460.56372,322.20398 c 4.54635,-1.18483 85.25811,76.62516 85.25811,84.98046 0,0 -75.44211,7.35253 -86.90512,-1.29887 -11.46301,-8.65141 3.62243,-55.86651 1.64701,-83.68159 z"
         id="path4288"
         inkscape:connector-curvature="0"
         sodipodi:nodetypes="cczc"
         inkscape:export-xdpi="3.46731"
         inkscape:export-ydpi="3.46731" />
      <path
         id="rect4232"
         d="M 270.91602 467.62305 C 265.88017 467.62305 261.82617 471.67703 261.82617 476.71289 C 261.82617 481.74875 265.88017 485.80273 270.91602 485.80273 L 459.95898 485.80273 L 462.5332 482.75781 L 463.50391 481.77344 L 463.51758 481.75977 C 466.84662 478.39764 476.70107 469.20884 490.92383 467.80859 C 490.32742 467.68636 489.70979 467.62305 489.07617 467.62305 L 270.91602 467.62305 z M 270.91602 522.16406 C 265.88017 522.16406 261.82617 526.21805 261.82617 531.25391 C 261.82617 536.28976 265.88017 540.34375 270.91602 540.34375 L 398.17578 540.34375 C 403.21163 540.34375 407.26758 536.28976 407.26758 531.25391 C 407.26758 526.21805 403.21163 522.16406 398.17578 522.16406 L 270.91602 522.16406 z M 270.91602 576.70312 C 265.88017 576.70312 261.82617 580.75711 261.82617 585.79297 C 261.82617 590.82882 265.88017 594.88281 270.91602 594.88281 L 369.10742 594.88281 C 370.71821 591.90998 372.65819 589.12662 374.87305 586.59766 L 374.80859 586.54102 L 383.125 576.70312 L 270.91602 576.70312 z "
         style="color:#000000;clip-rule:nonzero;display:inline;overflow:visible;visibility:visible;opacity:1;isolation:auto;mix-blend-mode:normal;color-interpolation:sRGB;color-interpolation-filters:linearRGB;solid-color:#000000;solid-opacity:1;fill:#ffffff;fill-opacity:1;fill-rule:evenodd;stroke:none;stroke-width:50;stroke-linecap:butt;stroke-linejoin:miter;stroke-miterlimit:4;stroke-dasharray:none;stroke-dashoffset:0;stroke-opacity:1;color-rendering:auto;image-rendering:auto;shape-rendering:auto;text-rendering:auto;enable-background:accumulate" />
      <path
         inkscape:connector-curvature="0"
         id="path4237"
         d="m 494.58106,504.18363 c -1.86171,0 -3.72341,1.24571 -6.20568,3.73714 l -86.87945,102.14857 c -4.96454,4.98287 -2.48227,12.45715 7.44681,12.45715 l 29.78724,0 0,87.2 c 0,6.90126 5.53548,12.45714 12.41135,12.45714 l 86.87945,0 c 6.87587,0 12.41134,-5.55588 12.41134,-12.45714 l 0,-87.2 29.78725,0 c 9.92907,0 9.92907,-9.96572 7.4468,-12.45715 L 500.78673,507.92077 c -2.48227,-2.49143 -4.34397,-3.73714 -6.20567,-3.73714 z"
         style="fill:#99b000;fill-opacity:1;fill-rule:evenodd;stroke:none;stroke-width:1px;stroke-linecap:butt;stroke-linejoin:miter;stroke-opacity:1" />
    </g>
  </g>
</svg>
