<?xml version="1.0" encoding="UTF-8" standalone="no"?>
<!-- Created with Inkscape (http://www.inkscape.org/) -->

<svg
   xmlns:dc="http://purl.org/dc/elements/1.1/"
   xmlns:cc="http://creativecommons.org/ns#"
   xmlns:rdf="http://www.w3.org/1999/02/22-rdf-syntax-ns#"
   xmlns:svg="http://www.w3.org/2000/svg"
   xmlns="http://www.w3.org/2000/svg"
   xmlns:xlink="http://www.w3.org/1999/xlink"
   xmlns:sodipodi="http://sodipodi.sourceforge.net/DTD/sodipodi-0.dtd"
   xmlns:inkscape="http://www.inkscape.org/namespaces/inkscape"
   width="210mm"
   height="297mm"
   viewBox="0 0 744.09448819 1052.3622047"
   id="svg2"
   version="1.1"
   inkscape:version="0.91 r13725"
   inkscape:export-xdpi="7.1992784"
   inkscape:export-ydpi="7.1992784"
   sodipodi:docname="move-waiting-up.svg"
   inkscape:export-filename="C:\Users\johannes\Documents\Arbeit\RRZE\github3\bicons\32x32\actions\move-waiting-up.png">
  <defs
     id="defs4">
    <linearGradient
       inkscape:collect="always"
       xlink:href="#linearGradient4321"
       id="linearGradient4201"
       x1="286.38269"
       y1="672.9209"
       x2="532.51678"
       y2="367.74933"
       gradientUnits="userSpaceOnUse"
       gradientTransform="matrix(1.1363532,0,0,1.1363532,-56.476038,-53.252651)" />
    <linearGradient
       id="linearGradient4321"
       inkscape:collect="always">
      <stop
         id="stop4323"
         offset="0"
         style="stop-color:#4e505d;stop-opacity:1;" />
      <stop
         id="stop4325"
         offset="1"
         style="stop-color:#7a8597;stop-opacity:1" />
    </linearGradient>
  </defs>
  <sodipodi:namedview
     id="base"
     pagecolor="#ffffff"
     bordercolor="#666666"
     borderopacity="1.0"
     inkscape:pageopacity="0.0"
     inkscape:pageshadow="2"
     inkscape:zoom="0.7071068"
     inkscape:cx="495.01457"
     inkscape:cy="536.76971"
     inkscape:document-units="px"
     inkscape:current-layer="layer1"
     showgrid="false"
     showguides="true"
     inkscape:guide-bbox="true"
     inkscape:window-width="1366"
     inkscape:window-height="721"
     inkscape:window-x="-4"
     inkscape:window-y="-4"
     inkscape:window-maximized="1"
     inkscape:snap-bbox="true"
     inkscape:bbox-paths="true"
     inkscape:bbox-nodes="true"
     inkscape:snap-nodes="false">
    <sodipodi:guide
       position="315.53572,730.17859"
       orientation="0,1"
       id="guide3338" />
    <sodipodi:guide
       position="351.25,330.17858"
       orientation="0,1"
       id="guide3340" />
    <sodipodi:guide
       position="189.10714,408.8393"
       orientation="1,0"
       id="guide3344" />
    <sodipodi:guide
       position="589.04521,468.07945"
       orientation="1,0"
       id="guide3346" />
    <inkscape:grid
       type="xygrid"
       id="grid3440" />
    <sodipodi:guide
       position="0,0"
       orientation="0,1"
       id="guide3405" />
    <sodipodi:guide
       position="214.125,684.50002"
       orientation="1,0"
       id="guide3407" />
    <sodipodi:guide
       position="0,0"
       orientation="0,1"
       id="guide3409" />
    <sodipodi:guide
       position="589.04521,378.30213"
       orientation="1,0"
       id="guide3411" />
    <sodipodi:guide
       position="564.00001,683.37502"
       orientation="1,0"
       id="guide3413" />
  </sodipodi:namedview>
  <metadata
     id="metadata7">
    <rdf:RDF>
      <cc:Work
         rdf:about="">
        <dc:format>image/svg+xml</dc:format>
        <dc:type
           rdf:resource="http://purl.org/dc/dcmitype/StillImage" />
        <dc:title>move waiting up</dc:title>
        <dc:date>June 2015</dc:date>
        <dc:creator>
          <cc:Agent>
            <dc:title>Johannes Hechler</dc:title>
          </cc:Agent>
        </dc:creator>
        <dc:rights>
          <cc:Agent>
            <dc:title>Johannes Hechler</dc:title>
          </cc:Agent>
        </dc:rights>
        <dc:publisher>
          <cc:Agent>
            <dc:title>RRZE</dc:title>
          </cc:Agent>
        </dc:publisher>
        <dc:contributor>
          <cc:Agent>
            <dc:title>Ute Weber, Hendrik Eggers, Joanna Barbach</dc:title>
          </cc:Agent>
        </dc:contributor>
        <dc:subject>
          <rdf:Bag>
            <rdf:li>move</rdf:li>
            <rdf:li>waiting</rdf:li>
            <rdf:li>list</rdf:li>
            <rdf:li>up</rdf:li>
            <rdf:li>waitinglist</rdf:li>
            <rdf:li>membership</rdf:li>
          </rdf:Bag>
        </dc:subject>
        <cc:license
           rdf:resource="http://creativecommons.org/licenses/by-sa/3.0/" />
      </cc:Work>
      <cc:License
         rdf:about="http://creativecommons.org/licenses/by-sa/3.0/">
        <cc:permits
           rdf:resource="http://creativecommons.org/ns#Reproduction" />
        <cc:permits
           rdf:resource="http://creativecommons.org/ns#Distribution" />
        <cc:requires
           rdf:resource="http://creativecommons.org/ns#Notice" />
        <cc:requires
           rdf:resource="http://creativecommons.org/ns#Attribution" />
        <cc:permits
           rdf:resource="http://creativecommons.org/ns#DerivativeWorks" />
        <cc:requires
           rdf:resource="http://creativecommons.org/ns#ShareAlike" />
      </cc:License>
    </rdf:RDF>
  </metadata>
  <g
     inkscape:label="Ebene 1"
     inkscape:groupmode="layer"
     id="layer1">
    <rect
       style="fill:none;fill-rule:evenodd;stroke:none;stroke-width:1px;stroke-linecap:butt;stroke-linejoin:miter;stroke-opacity:1"
       id="rect3336-9"
       width="400"
       height="400"
       x="189.10713"
       y="322.18362"
       inkscape:export-xdpi="3.5999999"
       inkscape:export-ydpi="3.5999999" />
    <rect
       style="fill:none;fill-rule:evenodd;stroke:none;stroke-width:1px;stroke-linecap:butt;stroke-linejoin:miter;stroke-opacity:1"
       id="rect3336-0"
       width="400"
       height="400"
       x="189.1472"
       y="322.23563"
       inkscape:export-xdpi="3.46731"
       inkscape:export-ydpi="3.46731" />
    <path
       style="fill:url(#linearGradient4201);fill-opacity:1;fill-rule:evenodd;stroke:none;stroke-width:1px;stroke-linecap:butt;stroke-linejoin:miter;stroke-opacity:1"
       d="M 445.50195 322.20703 L 250.36523 322.22656 C 238.97612 322.20746 233.2938 327.83787 233.3418 339.05859 C 233.2938 432.38236 233.29382 591.47011 233.32422 705.12695 C 233.29392 716.46885 239.00979 722.22318 250.30273 722.14648 L 380.41406 722.17969 C 378.21508 717.73303 376.9707 712.76064 376.9707 707.54492 L 376.9707 612.45898 L 356.01172 612.45898 C 345.21075 612.45898 333.56597 607.64324 328.33008 597.13281 C 323.31312 587.06187 326.4035 574.9499 333.11133 567.48828 L 445.68555 435.12695 L 446.17188 434.63867 C 450.40606 430.38886 456.37188 424.66406 466.58203 424.66406 C 476.79221 424.66406 482.75798 430.38883 486.99219 434.63867 L 487.47852 435.12695 L 545.86914 503.7793 L 545.86914 422.28516 C 540.67554 422.7612 525.07769 424.10999 507.59961 424.76172 C 496.98786 425.15737 485.92451 425.30713 475.81641 424.69336 C 470.76236 424.38649 465.97204 423.9186 461.07617 422.94727 C 456.18029 421.97594 454.35613 422.36942 447.35547 416.33984 C 441.15784 411.0019 439.96787 402.92017 439.63281 394.01172 C 439.29774 385.10327 440.28309 376.67889 441.38477 368.06055 C 443.58813 350.82388 446.22528 332.3995 445.62695 323.97461 L 445.50195 322.20703 z M 333.11133 567.48828 L 333.06836 567.53906 L 334 566.52539 C 333.69384 566.83268 333.40405 567.16267 333.11133 567.48828 z M 481.1582 373.11328 C 481.1059 373.50838 481.03037 374.00981 480.98047 374.40039 C 480.49222 378.21992 480.12628 381.77797 479.88867 384.81055 C 483.85726 385.02224 488.48427 385.08623 493.45508 385.04883 C 491.40806 383.00342 489.47177 381.00613 487.39062 378.96484 C 485.15073 376.76785 483.38746 375.25832 481.1582 373.11328 z M 479.59961 392.14062 C 479.66821 393.86061 480.21051 393.59431 479.59961 392.14062 z M 466.58203 464.58203 L 370.57617 577.45898 L 411.9707 577.45898 L 411.9707 706.12891 L 521.19336 706.12891 L 521.19336 577.45898 L 545.86719 577.45898 L 545.86914 557.80078 L 466.58203 464.58203 z "
       id="path4244" />
    <path
       inkscape:export-ydpi="3.46731"
       inkscape:export-xdpi="3.46731"
       sodipodi:nodetypes="cczc"
       inkscape:connector-curvature="0"
       id="path4288"
       d="m 460.56371,322.20398 c 4.54635,-1.18483 85.25811,76.62516 85.25811,84.98046 0,0 -75.44211,7.35253 -86.90512,-1.29887 -11.46301,-8.65141 3.62243,-55.86651 1.64701,-83.68159 z"
       style="fill:#99b000;fill-opacity:1;fill-rule:evenodd;stroke:none;stroke-width:1px;stroke-linecap:butt;stroke-linejoin:miter;stroke-opacity:1" />
    <path
       style="color:#000000;clip-rule:nonzero;display:inline;overflow:visible;visibility:visible;opacity:1;isolation:auto;mix-blend-mode:normal;color-interpolation:sRGB;color-interpolation-filters:linearRGB;solid-color:#000000;solid-opacity:1;fill:#ffffff;fill-opacity:1;fill-rule:evenodd;stroke:none;stroke-width:50;stroke-linecap:butt;stroke-linejoin:miter;stroke-miterlimit:4;stroke-dasharray:none;stroke-dashoffset:0;stroke-opacity:1;color-rendering:auto;image-rendering:auto;shape-rendering:auto;text-rendering:auto;enable-background:accumulate"
       d="M 270.91602 467.62305 C 265.88017 467.62305 261.82617 471.67703 261.82617 476.71289 C 261.82617 481.74875 265.88017 485.80273 270.91602 485.80273 L 379.61328 485.80273 L 395.07422 467.62305 L 270.91602 467.62305 z M 270.91602 522.16406 C 265.88017 522.16406 261.82617 526.21805 261.82617 531.25391 C 261.82617 536.28976 265.88017 540.34375 270.91602 540.34375 L 333.22461 540.34375 L 348.6875 522.16406 L 270.91602 522.16406 z M 270.91602 576.70312 C 265.88017 576.70312 261.82617 580.75711 261.82617 585.79297 C 261.82617 590.82882 265.88017 594.88281 270.91602 594.88281 L 309.11133 594.88281 C 307.76406 588.69438 307.90396 582.52987 309.22266 576.70312 L 270.91602 576.70312 z M 429.4707 576.70312 L 429.4707 594.88281 L 452.7168 594.88281 C 457.75266 594.88281 461.80664 590.82882 461.80664 585.79297 C 461.80664 580.75711 457.75266 576.70313 452.7168 576.70312 L 429.4707 576.70312 z "
       id="rect4232" />
    <rect
       style="fill:none;fill-rule:evenodd;stroke:none;stroke-width:1px;stroke-linecap:butt;stroke-linejoin:miter;stroke-opacity:1"
       id="rect3336"
       width="400"
       height="400"
       x="189.14485"
       y="-722.27002"
       inkscape:export-xdpi="4.9499998"
       inkscape:export-ydpi="4.9499998"
       transform="scale(1,-1)" />
    <path
       style="fill:#99b000;fill-opacity:1;fill-rule:evenodd;stroke:none;stroke-width:1px;stroke-linecap:butt;stroke-linejoin:miter;stroke-opacity:1"
       d="m 467.08045,440.71901 c -2.40369,0 -4.80737,1.60837 -8.01229,4.82511 L 346.89618,577.43039 c -6.40982,6.43349 -3.20491,16.0837 9.61474,16.0837 l 38.45897,0 0,112.58585 c 0,8.91037 7.14698,16.08369 16.02457,16.08369 l 112.17198,0 c 8.87758,0 16.02455,-7.17332 16.02455,-16.08369 l 0,-112.58585 38.45898,0 c 12.81964,0 12.81964,-12.86696 9.61473,-16.0837 L 475.09273,445.54412 c -3.20491,-3.21674 -5.6086,-4.82511 -8.01228,-4.82511 z"
       id="path4237"
       inkscape:connector-curvature="0" />
  </g>
</svg>
