<?xml version="1.0" encoding="UTF-8" standalone="no"?>
<!-- Created with Inkscape (http://www.inkscape.org/) -->

<svg
   xmlns:dc="http://purl.org/dc/elements/1.1/"
   xmlns:cc="http://creativecommons.org/ns#"
   xmlns:rdf="http://www.w3.org/1999/02/22-rdf-syntax-ns#"
   xmlns:svg="http://www.w3.org/2000/svg"
   xmlns="http://www.w3.org/2000/svg"
   xmlns:xlink="http://www.w3.org/1999/xlink"
   xmlns:sodipodi="http://sodipodi.sourceforge.net/DTD/sodipodi-0.dtd"
   xmlns:inkscape="http://www.inkscape.org/namespaces/inkscape"
   width="210mm"
   height="297mm"
   viewBox="0 0 744.09448819 1052.3622047"
   id="svg2"
   version="1.1"
   inkscape:version="0.91 r13725"
   inkscape:export-xdpi="7.1992784"
   inkscape:export-ydpi="7.1992784"
   sodipodi:docname="move-waiting-up-grey.svg"
   inkscape:export-filename="C:\Users\johannes\Documents\Arbeit\RRZE\github3\bicons\32x32\actions\move-waiting-up-grey.png">
  <defs
     id="defs4">
    <linearGradient
       inkscape:collect="always"
       xlink:href="#linearGradient4321"
       id="linearGradient4201"
       x1="286.38269"
       y1="672.9209"
       x2="532.51678"
       y2="367.74933"
       gradientUnits="userSpaceOnUse"
       gradientTransform="matrix(1.1363532,0,0,1.1363532,-56.476028,-53.252658)" />
    <linearGradient
       id="linearGradient4321"
       inkscape:collect="always">
      <stop
         id="stop4323"
         offset="0"
         style="stop-color:#4e505d;stop-opacity:1;" />
      <stop
         id="stop4325"
         offset="1"
         style="stop-color:#7a8597;stop-opacity:1" />
    </linearGradient>
  </defs>
  <sodipodi:namedview
     id="base"
     pagecolor="#ffffff"
     bordercolor="#666666"
     borderopacity="1.0"
     inkscape:pageopacity="0.0"
     inkscape:pageshadow="2"
     inkscape:zoom="0.5"
     inkscape:cx="5.2882958"
     inkscape:cy="529.11985"
     inkscape:document-units="px"
     inkscape:current-layer="layer1"
     showgrid="false"
     showguides="true"
     inkscape:guide-bbox="true"
     inkscape:window-width="1600"
     inkscape:window-height="837"
     inkscape:window-x="-4"
     inkscape:window-y="-4"
     inkscape:window-maximized="1"
     inkscape:snap-bbox="true"
     inkscape:bbox-paths="true"
     inkscape:bbox-nodes="true"
     inkscape:snap-nodes="false">
    <sodipodi:guide
       position="315.53572,730.17859"
       orientation="0,1"
       id="guide3338" />
    <sodipodi:guide
       position="351.25,330.17858"
       orientation="0,1"
       id="guide3340" />
    <sodipodi:guide
       position="189.10714,408.8393"
       orientation="1,0"
       id="guide3344" />
    <sodipodi:guide
       position="589.04521,468.07945"
       orientation="1,0"
       id="guide3346" />
    <inkscape:grid
       type="xygrid"
       id="grid3440" />
    <sodipodi:guide
       position="0,0"
       orientation="0,1"
       id="guide3405" />
    <sodipodi:guide
       position="214.125,684.50002"
       orientation="1,0"
       id="guide3407" />
    <sodipodi:guide
       position="0,0"
       orientation="0,1"
       id="guide3409" />
    <sodipodi:guide
       position="589.04521,378.30213"
       orientation="1,0"
       id="guide3411" />
    <sodipodi:guide
       position="564.00001,683.37502"
       orientation="1,0"
       id="guide3413" />
  </sodipodi:namedview>
  <metadata
     id="metadata7">
    <rdf:RDF>
      <cc:Work
         rdf:about="">
        <dc:format>image/svg+xml</dc:format>
        <dc:type
           rdf:resource="http://purl.org/dc/dcmitype/StillImage" />
        <dc:title>move waiting up grey</dc:title>
        <dc:date>June 2015</dc:date>
        <dc:creator>
          <cc:Agent>
            <dc:title>Johannes Hechler</dc:title>
          </cc:Agent>
        </dc:creator>
        <dc:rights>
          <cc:Agent>
            <dc:title>Johannes Hechler</dc:title>
          </cc:Agent>
        </dc:rights>
        <dc:publisher>
          <cc:Agent>
            <dc:title>RRZE</dc:title>
          </cc:Agent>
        </dc:publisher>
        <dc:contributor>
          <cc:Agent>
            <dc:title>Ute Weber, Hendrik Eggers, Joanna Barbach</dc:title>
          </cc:Agent>
        </dc:contributor>
        <dc:subject>
          <rdf:Bag>
            <rdf:li>move</rdf:li>
            <rdf:li>waiting</rdf:li>
            <rdf:li>list</rdf:li>
            <rdf:li>up</rdf:li>
            <rdf:li>waitinglist</rdf:li>
            <rdf:li>member</rdf:li>
            <rdf:li>membership</rdf:li>
          </rdf:Bag>
        </dc:subject>
        <cc:license
           rdf:resource="http://creativecommons.org/licenses/by-sa/3.0/" />
      </cc:Work>
      <cc:License
         rdf:about="http://creativecommons.org/licenses/by-sa/3.0/">
        <cc:permits
           rdf:resource="http://creativecommons.org/ns#Reproduction" />
        <cc:permits
           rdf:resource="http://creativecommons.org/ns#Distribution" />
        <cc:requires
           rdf:resource="http://creativecommons.org/ns#Notice" />
        <cc:requires
           rdf:resource="http://creativecommons.org/ns#Attribution" />
        <cc:permits
           rdf:resource="http://creativecommons.org/ns#DerivativeWorks" />
        <cc:requires
           rdf:resource="http://creativecommons.org/ns#ShareAlike" />
      </cc:License>
    </rdf:RDF>
  </metadata>
  <g
     inkscape:label="Ebene 1"
     inkscape:groupmode="layer"
     id="layer1">
    <g
       id="g4181">
      <g
         id="g4201"
         transform="translate(6.5760579e-6,-0.05199457)">
        <rect
           style="fill:none;fill-rule:evenodd;stroke:none;stroke-width:1px;stroke-linecap:butt;stroke-linejoin:miter;stroke-opacity:1"
           id="rect3336"
           width="400"
           height="400"
           x="189.10713"
           y="322.18362"
           inkscape:export-xdpi="3.5999999"
           inkscape:export-ydpi="3.5999999" />
        <rect
           style="fill:none;fill-rule:evenodd;stroke:none;stroke-width:1px;stroke-linecap:butt;stroke-linejoin:miter;stroke-opacity:1"
           id="rect3336-0"
           width="400"
           height="400"
           x="189.1472"
           y="322.23563"
           inkscape:export-xdpi="3.46731"
           inkscape:export-ydpi="3.46731" />
        <path
           style="fill:url(#linearGradient4201);fill-opacity:1;fill-rule:evenodd;stroke:none;stroke-width:1px;stroke-linecap:butt;stroke-linejoin:miter;stroke-opacity:1"
           d="m 445.50195,322.20703 -195.13672,0.0195 c -11.38911,-0.0191 -17.07143,5.61131 -17.02343,16.83203 -0.048,93.32377 -0.048,252.41152 -0.0176,366.06836 -0.0303,11.3419 5.68557,17.09623 16.97851,17.01953 l 173.73047,0.043 c -1.7912,-3.81702 -2.80273,-8.04392 -2.80273,-12.46289 l 0,-69.69922 -12.28711,0 c -9.35568,0 -20.09808,-4.27347 -24.97266,-14.05859 -4.63726,-9.30875 -1.77539,-20.46815 4.19532,-27.23633 l 87.32617,-102.67383 0.48633,-0.49023 c 3.51156,-3.52452 8.93538,-8.88477 18.60351,-8.88477 9.66816,0 15.09,5.36025 18.60156,8.88477 l 0.48633,0.49023 32.19922,37.85743 0,-111.63086 c -5.1936,0.47604 -20.79145,1.82483 -38.26953,2.47656 -10.61175,0.39565 -21.6751,0.54541 -31.7832,-0.0684 -5.05405,-0.30687 -9.84437,-0.77476 -14.74024,-1.74609 -4.89588,-0.97133 -6.72004,-0.57785 -13.7207,-6.60743 -6.19763,-5.33794 -7.3876,-13.41967 -7.72266,-22.32812 -0.33507,-8.90845 0.65028,-17.33283 1.75196,-25.95117 2.20336,-17.23667 4.84051,-35.66105 4.24218,-44.08594 l -0.125,-1.76758 z m 35.65625,50.90625 c -0.0523,0.3951 -0.12783,0.89653 -0.17773,1.28711 -0.48825,3.81953 -0.85419,7.37758 -1.0918,10.41016 3.96859,0.21169 8.5956,0.27568 13.56641,0.23828 -2.04702,-2.04541 -3.98331,-4.0427 -6.06446,-6.08399 -2.23989,-2.19699 -4.00316,-3.70652 -6.23242,-5.85156 z m -1.55859,19.02734 c 0.0686,1.71999 0.6109,1.45369 0,0 z m 14.98242,135.49415 -65.82617,77.39257 27.47461,0 0,99.65625 76.70117,0 0,-99.65625 12.93555,0 0,-17.09375 -51.28516,-60.29882 z"
           id="path4244"
           inkscape:connector-curvature="0" />
        <path
           inkscape:export-ydpi="3.46731"
           inkscape:export-xdpi="3.46731"
           sodipodi:nodetypes="cczc"
           inkscape:connector-curvature="0"
           id="path4288"
           d="m 460.56372,322.20398 c 4.54635,-1.18483 85.25811,76.62516 85.25811,84.98046 0,0 -75.44211,7.35253 -86.90512,-1.29887 -11.46301,-8.65141 3.62243,-55.86651 1.64701,-83.68159 z"
           style="fill:#99b000;fill-opacity:1;fill-rule:evenodd;stroke:none;stroke-width:1px;stroke-linecap:butt;stroke-linejoin:miter;stroke-opacity:1" />
        <path
           style="color:#000000;clip-rule:nonzero;display:inline;overflow:visible;visibility:visible;opacity:1;isolation:auto;mix-blend-mode:normal;color-interpolation:sRGB;color-interpolation-filters:linearRGB;solid-color:#000000;solid-opacity:1;fill:#ffffff;fill-opacity:1;fill-rule:evenodd;stroke:none;stroke-width:50;stroke-linecap:butt;stroke-linejoin:miter;stroke-miterlimit:4;stroke-dasharray:none;stroke-dashoffset:0;stroke-opacity:1;color-rendering:auto;image-rendering:auto;shape-rendering:auto;text-rendering:auto;enable-background:accumulate"
           d="m 270.91602,467.62305 c -5.03585,0 -9.08985,4.05398 -9.08985,9.08984 0,5.03586 4.054,9.08984 9.08985,9.08984 l 189.04296,0 2.57422,-3.04492 0.97071,-0.98437 0.0137,-0.0137 c 3.32904,-3.36213 13.18349,-12.55093 27.40625,-13.95118 -0.59641,-0.12223 -1.21404,-0.18554 -1.84766,-0.18554 l -218.16015,0 z m 0,54.54101 c -5.03585,0 -9.08985,4.05399 -9.08985,9.08985 0,5.03585 4.054,9.08984 9.08985,9.08984 l 127.25976,0 c 5.03585,0 9.0918,-4.05399 9.0918,-9.08984 0,-5.03586 -4.05595,-9.08985 -9.0918,-9.08985 l -127.25976,0 z m 0,54.53906 c -5.03585,0 -9.08985,4.05399 -9.08985,9.08985 0,5.03585 4.054,9.08984 9.08985,9.08984 l 98.1914,0 c 1.61079,-2.97283 3.55077,-5.75619 5.76563,-8.28515 l -0.0645,-0.0566 8.31641,-9.8379 -112.20898,0 z"
           id="rect4232"
           inkscape:connector-curvature="0" />
        <path
           style="fill:#7a859c;fill-opacity:1;fill-rule:evenodd;stroke:none;stroke-width:1px;stroke-linecap:butt;stroke-linejoin:miter;stroke-opacity:1"
           d="m 494.58106,504.18363 c -1.86171,0 -3.72341,1.24571 -6.20568,3.73714 l -86.87945,102.14857 c -4.96454,4.98287 -2.48227,12.45715 7.44681,12.45715 l 29.78724,0 0,87.2 c 0,6.90126 5.53548,12.45714 12.41135,12.45714 l 86.87945,0 c 6.87587,0 12.41134,-5.55588 12.41134,-12.45714 l 0,-87.2 29.78725,0 c 9.92907,0 9.92907,-9.96572 7.4468,-12.45715 L 500.78673,507.92077 c -2.48227,-2.49143 -4.34397,-3.73714 -6.20567,-3.73714 z"
           id="path4237"
           inkscape:connector-curvature="0" />
      </g>
    </g>
  </g>
</svg>
