<?xml version="1.0" encoding="UTF-8" standalone="no"?>
<!-- Created with Inkscape (http://www.inkscape.org/) -->

<svg
   xmlns:dc="http://purl.org/dc/elements/1.1/"
   xmlns:cc="http://creativecommons.org/ns#"
   xmlns:rdf="http://www.w3.org/1999/02/22-rdf-syntax-ns#"
   xmlns:svg="http://www.w3.org/2000/svg"
   xmlns="http://www.w3.org/2000/svg"
   xmlns:xlink="http://www.w3.org/1999/xlink"
   xmlns:sodipodi="http://sodipodi.sourceforge.net/DTD/sodipodi-0.dtd"
   xmlns:inkscape="http://www.inkscape.org/namespaces/inkscape"
   width="210mm"
   height="297mm"
   viewBox="0 0 744.09448819 1052.3622047"
   id="svg2"
   version="1.1"
   inkscape:version="0.91 r13725"
   inkscape:export-xdpi="4"
   inkscape:export-ydpi="4"
   sodipodi:docname="move-waiting-up-grey.svg">
  <defs
     id="defs4">
    <linearGradient
       inkscape:collect="always"
       id="linearGradient4250">
      <stop
         style="stop-color:#99b000;stop-opacity:1;"
         offset="0"
         id="stop4252" />
      <stop
         style="stop-color:#a9bc24;stop-opacity:1"
         offset="1"
         id="stop4254" />
    </linearGradient>
    <linearGradient
       inkscape:collect="always"
       xlink:href="#linearGradient4195"
       id="linearGradient4201"
       x1="507"
       y1="681.40619"
       x2="302"
       y2="373.40619"
       gradientUnits="userSpaceOnUse"
       gradientTransform="matrix(1.1260716,0,0,1.1361339,-52.847726,-52.492168)" />
    <linearGradient
       inkscape:collect="always"
       id="linearGradient4195">
      <stop
         style="stop-color:#4e505d;stop-opacity:1"
         offset="0"
         id="stop4197" />
      <stop
         style="stop-color:#7a8597;stop-opacity:1"
         offset="1"
         id="stop4199" />
    </linearGradient>
    <linearGradient
       inkscape:collect="always"
       xlink:href="#linearGradient4250"
       id="linearGradient4256-0"
       x1="360"
       y1="714.61218"
       x2="360"
       y2="372.36221"
       gradientUnits="userSpaceOnUse"
       gradientTransform="matrix(0.73162683,0,0,0.73432624,179.99941,154.46672)" />
  </defs>
  <sodipodi:namedview
     id="base"
     pagecolor="#ffffff"
     bordercolor="#666666"
     borderopacity="1.0"
     inkscape:pageopacity="0.0"
     inkscape:pageshadow="2"
     inkscape:zoom="1"
     inkscape:cx="95.9777"
     inkscape:cy="418.73976"
     inkscape:document-units="px"
     inkscape:current-layer="layer1"
     showgrid="false"
     showguides="true"
     inkscape:guide-bbox="true"
     inkscape:window-width="1280"
     inkscape:window-height="962"
     inkscape:window-x="-8"
     inkscape:window-y="-8"
     inkscape:window-maximized="1">
    <sodipodi:guide
       position="315.53572,730.17859"
       orientation="0,1"
       id="guide3338" />
    <sodipodi:guide
       position="351.25,330.17858"
       orientation="0,1"
       id="guide3340" />
    <sodipodi:guide
       position="189.10714,408.8393"
       orientation="1,0"
       id="guide3344" />
    <sodipodi:guide
       position="589.04521,468.07945"
       orientation="1,0"
       id="guide3346" />
    <inkscape:grid
       type="xygrid"
       id="grid3440" />
    <sodipodi:guide
       position="0,0"
       orientation="0,1"
       id="guide3405" />
    <sodipodi:guide
       position="214.125,684.50002"
       orientation="1,0"
       id="guide3407" />
    <sodipodi:guide
       position="0,0"
       orientation="0,1"
       id="guide3409" />
    <sodipodi:guide
       position="589.04521,378.30213"
       orientation="1,0"
       id="guide3411" />
    <sodipodi:guide
       position="564.00001,683.37502"
       orientation="1,0"
       id="guide3413" />
  </sodipodi:namedview>
  <metadata
     id="metadata7">
    <rdf:RDF>
      <cc:Work
         rdf:about="">
        <dc:format>image/svg+xml</dc:format>
        <dc:type
           rdf:resource="http://purl.org/dc/dcmitype/StillImage" />
        <dc:title>move waiting up grey</dc:title>
        <dc:date>June 2015</dc:date>
        <dc:creator>
          <cc:Agent>
            <dc:title>Johannes Hechler</dc:title>
          </cc:Agent>
        </dc:creator>
        <dc:rights>
          <cc:Agent>
            <dc:title>Johannes Hechler</dc:title>
          </cc:Agent>
        </dc:rights>
        <dc:publisher>
          <cc:Agent>
            <dc:title>RRZE</dc:title>
          </cc:Agent>
        </dc:publisher>
        <dc:contributor>
          <cc:Agent>
            <dc:title>Ute Weber, Hendrik Eggers, Joanna Barbach</dc:title>
          </cc:Agent>
        </dc:contributor>
        <dc:subject>
          <rdf:Bag>
            <rdf:li>move</rdf:li>
            <rdf:li>waiting</rdf:li>
            <rdf:li>list</rdf:li>
            <rdf:li>up</rdf:li>
            <rdf:li>waitinglist</rdf:li>
            <rdf:li>member</rdf:li>
            <rdf:li>membership</rdf:li>
          </rdf:Bag>
        </dc:subject>
        <cc:license
           rdf:resource="http://creativecommons.org/licenses/by-sa/3.0/" />
      </cc:Work>
      <cc:License
         rdf:about="http://creativecommons.org/licenses/by-sa/3.0/">
        <cc:permits
           rdf:resource="http://creativecommons.org/ns#Reproduction" />
        <cc:permits
           rdf:resource="http://creativecommons.org/ns#Distribution" />
        <cc:requires
           rdf:resource="http://creativecommons.org/ns#Notice" />
        <cc:requires
           rdf:resource="http://creativecommons.org/ns#Attribution" />
        <cc:permits
           rdf:resource="http://creativecommons.org/ns#DerivativeWorks" />
        <cc:requires
           rdf:resource="http://creativecommons.org/ns#ShareAlike" />
      </cc:License>
    </rdf:RDF>
  </metadata>
  <g
     inkscape:label="Ebene 1"
     inkscape:groupmode="layer"
     id="layer1">
    <path
       style="fill:url(#linearGradient4201);fill-opacity:1;fill-rule:evenodd;stroke:none;stroke-width:1px;stroke-linecap:butt;stroke-linejoin:miter;stroke-opacity:1"
       d="m 251.218,322.91357 c -5.64304,-0.009 -9.87219,1.39306 -12.68465,4.20038 -2.81246,2.8073 -4.20821,7.01933 -4.18443,12.6286 -0.0238,46.65289 -0.0357,109.74395 -0.0378,175.37618 -0.002,65.63221 0.006,133.80561 0.0203,190.62314 -0.0151,5.66983 1.39355,9.94286 4.20474,12.78883 2.81118,2.84598 7.02498,4.26491 12.62036,4.22655 l 137.93168,0.0354 137.93167,0.0355 c 6.77008,0.57054 11.1084,-1.81267 13.71319,-5.29741 2.60479,-3.48475 3.47606,-8.07102 3.31205,-11.90659 l 0.4503,-179.22531 0.45031,-179.22529 c 0.21283,-6.43695 0.11633,-15.34732 -4.2224,-19.79101 -4.33872,-4.4437 -12.91969,-4.42072 -19.54116,-4.3523 0,0 -35.28284,-0.0324 -86.66977,-0.0633 -51.38692,-0.0308 -118.87794,-0.06 -183.29432,-0.0535 z"
       id="path4244"
       inkscape:connector-curvature="0"
       sodipodi:nodetypes="cscscscccscccscscc" />
    <path
       style="fill:#ffffff;fill-opacity:1;stroke:none"
       d="m 274.22351,454.29282 c 70.35629,0 140.7126,0 211.06889,0 5.32107,-1e-5 5.32107,30.77067 0,30.77068 -70.35629,0 -140.7126,0 -211.06889,0 -7.09477,-10e-6 -7.09477,-30.77069 0,-30.77068 z"
       id="rect4248"
       inkscape:connector-curvature="0"
       sodipodi:nodetypes="ccccc"
       inkscape:export-xdpi="4.9499998"
       inkscape:export-ydpi="4.9499998" />
    <path
       style="fill:#ffffff;fill-opacity:1;stroke:none"
       d="m 273.6752,508.3691 c 63.09977,0 126.19952,0 189.29929,0 4.77224,-3e-5 4.77224,30.77067 0,30.77068 -63.09977,0 -126.19952,0 -189.29929,0 -6.363,-10e-6 -6.363,-30.77071 0,-30.77068 z"
       id="rect4248-4"
       inkscape:connector-curvature="0"
       sodipodi:nodetypes="ccccc"
       inkscape:export-xdpi="4.9499998"
       inkscape:export-ydpi="4.9499998" />
    <path
       style="fill:#ffffff;fill-opacity:1;stroke:none"
       d="m 274.40145,561.70738 c 67.10996,0 134.21991,0 201.32987,0 5.07554,-3e-5 5.07554,30.77064 0,30.77065 -67.10996,0 -134.21991,0 -201.32987,0 -6.7674,-10e-6 -6.7674,-30.77068 0,-30.77065 z"
       id="rect4248-1"
       inkscape:connector-curvature="0"
       sodipodi:nodetypes="ccccc"
       inkscape:export-xdpi="4.9499998"
       inkscape:export-ydpi="4.9499998" />
    <rect
       style="fill:none;fill-rule:evenodd;stroke:none;stroke-width:1px;stroke-linecap:butt;stroke-linejoin:miter;stroke-opacity:1"
       id="rect3336"
       width="400"
       height="400"
       x="189.14485"
       y="-722.27002"
       inkscape:export-xdpi="4.9499998"
       inkscape:export-ydpi="4.9499998"
       transform="scale(1,-1)" />
    <path
       style="fill:url(#linearGradient4256-0);fill-opacity:1;fill-rule:evenodd;stroke:#ffffff;stroke-width:50;stroke-linecap:butt;stroke-linejoin:miter;stroke-miterlimit:4;stroke-dasharray:none;stroke-opacity:1"
       d="m 459.6117,397.6177 c -2.40369,0 -4.80737,1.60837 -8.01229,4.82511 L 339.42743,534.32908 c -6.40982,6.43349 -3.20491,16.0837 9.61474,16.0837 l 38.45897,0 0,112.58585 c 0,8.91037 7.14698,16.08369 16.02457,16.08369 l 112.17198,0 c 8.87758,0 16.02455,-7.17332 16.02455,-16.08369 l 0,-112.58585 38.45898,0 c 12.81964,0 12.81964,-12.86696 9.61473,-16.0837 L 467.62398,402.44281 c -3.20491,-3.21674 -5.6086,-4.82511 -8.01228,-4.82511 z"
       id="path4237-0"
       inkscape:connector-curvature="0" />
    <path
       style="fill:#7a8597;fill-opacity:1;fill-rule:evenodd;stroke:none;stroke-width:1px;stroke-linecap:butt;stroke-linejoin:miter;stroke-opacity:1"
       d="m 460.10996,396.172 c -2.40369,0 -4.80737,1.60837 -8.01229,4.82511 L 339.92569,532.88338 c -6.40982,6.43349 -3.20491,16.0837 9.61474,16.0837 l 38.45897,0 0,112.58585 c 0,8.91037 7.14698,16.08369 16.02457,16.08369 l 112.17198,0 c 8.87758,0 16.02455,-7.17332 16.02455,-16.08369 l 0,-112.58585 38.45898,0 c 12.81964,0 12.81964,-12.86696 9.61473,-16.0837 L 468.12224,400.99711 c -3.20491,-3.21674 -5.6086,-4.82511 -8.01228,-4.82511 z"
       id="path4237"
       inkscape:connector-curvature="0" />
  </g>
</svg>
