<?xml version="1.0" encoding="UTF-8" standalone="no"?>
<!-- Created with Inkscape (http://www.inkscape.org/) -->

<svg
   xmlns:dc="http://purl.org/dc/elements/1.1/"
   xmlns:cc="http://creativecommons.org/ns#"
   xmlns:rdf="http://www.w3.org/1999/02/22-rdf-syntax-ns#"
   xmlns:svg="http://www.w3.org/2000/svg"
   xmlns="http://www.w3.org/2000/svg"
   xmlns:xlink="http://www.w3.org/1999/xlink"
   xmlns:sodipodi="http://sodipodi.sourceforge.net/DTD/sodipodi-0.dtd"
   xmlns:inkscape="http://www.inkscape.org/namespaces/inkscape"
   width="210mm"
   height="297mm"
   viewBox="0 0 744.09448819 1052.3622047"
   id="svg2"
   version="1.1"
   inkscape:version="0.91 r13725"
   inkscape:export-xdpi="7.2011142"
   inkscape:export-ydpi="7.2011142"
   sodipodi:docname="send-email-group.svg"
   inkscape:export-filename="C:\Users\johannes\Documents\Arbeit\RRZE\github3\bicons\32x32\actions\send-email-group.png">
  <defs
     id="defs4">
    <linearGradient
       inkscape:collect="always"
       xlink:href="#linearGradient4321"
       id="linearGradient4467"
       x1="26.839844"
       y1="410.36914"
       x2="379.06836"
       y2="21.369141"
       gradientUnits="userSpaceOnUse"
       gradientTransform="translate(495.82403,335.13371)" />
    <linearGradient
       id="linearGradient4321"
       inkscape:collect="always">
      <stop
         id="stop4323"
         offset="0"
         style="stop-color:#4e505d;stop-opacity:1;" />
      <stop
         id="stop4325"
         offset="1"
         style="stop-color:#7a8597;stop-opacity:1" />
    </linearGradient>
  </defs>
  <sodipodi:namedview
     id="base"
     pagecolor="#ffffff"
     bordercolor="#666666"
     borderopacity="1.0"
     inkscape:pageopacity="0.0"
     inkscape:pageshadow="2"
     inkscape:zoom="0.70710678"
     inkscape:cx="319.98085"
     inkscape:cy="494.46205"
     inkscape:document-units="px"
     inkscape:current-layer="layer1"
     showgrid="false"
     showguides="true"
     inkscape:guide-bbox="true"
     inkscape:window-width="1366"
     inkscape:window-height="721"
     inkscape:window-x="-4"
     inkscape:window-y="-4"
     inkscape:window-maximized="1"
     inkscape:snap-bbox="true"
     inkscape:bbox-paths="true"
     inkscape:bbox-nodes="true">
    <sodipodi:guide
       position="315.53572,730.17859"
       orientation="0,1"
       id="guide3338" />
    <sodipodi:guide
       position="351.25,330.17858"
       orientation="0,1"
       id="guide3340" />
    <sodipodi:guide
       position="189.10714,408.8393"
       orientation="1,0"
       id="guide3344" />
    <sodipodi:guide
       position="589.04521,468.07945"
       orientation="1,0"
       id="guide3346" />
    <inkscape:grid
       type="xygrid"
       id="grid3440" />
    <sodipodi:guide
       position="0,0"
       orientation="0,1"
       id="guide3405" />
    <sodipodi:guide
       position="214.125,684.50002"
       orientation="1,0"
       id="guide3407" />
    <sodipodi:guide
       position="0,0"
       orientation="0,1"
       id="guide3409" />
    <sodipodi:guide
       position="589.04521,378.30213"
       orientation="1,0"
       id="guide3411" />
    <sodipodi:guide
       position="564.00001,683.37502"
       orientation="1,0"
       id="guide3413" />
  </sodipodi:namedview>
  <metadata
     id="metadata7">
    <rdf:RDF>
      <cc:Work
         rdf:about="">
        <dc:format>image/svg+xml</dc:format>
        <dc:type
           rdf:resource="http://purl.org/dc/dcmitype/StillImage" />
        <dc:title>send email group</dc:title>
        <dc:date>June 2015</dc:date>
        <dc:creator>
          <cc:Agent>
            <dc:title>Johannes Hechler</dc:title>
          </cc:Agent>
        </dc:creator>
        <dc:rights>
          <cc:Agent>
            <dc:title>Johannes Hechler</dc:title>
          </cc:Agent>
        </dc:rights>
        <dc:publisher>
          <cc:Agent>
            <dc:title>RRZE</dc:title>
          </cc:Agent>
        </dc:publisher>
        <dc:contributor>
          <cc:Agent>
            <dc:title>Ute Weber, Hendrik Eggers, Joanna Barbach</dc:title>
          </cc:Agent>
        </dc:contributor>
        <dc:subject>
          <rdf:Bag>
            <rdf:li>email</rdf:li>
            <rdf:li>all</rdf:li>
            <rdf:li>all participants</rdf:li>
            <rdf:li>send</rdf:li>
            <rdf:li>mail</rdf:li>
          </rdf:Bag>
        </dc:subject>
        <cc:license
           rdf:resource="http://creativecommons.org/licenses/by-sa/3.0/" />
      </cc:Work>
      <cc:License
         rdf:about="http://creativecommons.org/licenses/by-sa/3.0/">
        <cc:permits
           rdf:resource="http://creativecommons.org/ns#Reproduction" />
        <cc:permits
           rdf:resource="http://creativecommons.org/ns#Distribution" />
        <cc:requires
           rdf:resource="http://creativecommons.org/ns#Notice" />
        <cc:requires
           rdf:resource="http://creativecommons.org/ns#Attribution" />
        <cc:permits
           rdf:resource="http://creativecommons.org/ns#DerivativeWorks" />
        <cc:requires
           rdf:resource="http://creativecommons.org/ns#ShareAlike" />
      </cc:License>
    </rdf:RDF>
  </metadata>
  <g
     inkscape:label="Ebene 1"
     inkscape:groupmode="layer"
     id="layer1">
    <g
       id="g4306"
       transform="translate(-306.7169,-12.95008)">
      <path
         id="path2176-2"
         d="m 794.69317,343.30949 a 46.161232,45.912216 0 0 0 -46.10742,44.40625 c 6.70432,9.24486 10.99339,20.31529 11.92578,32.28516 a 46.161232,45.912216 0 0 0 34.18164,15.13476 46.161232,45.912216 0 0 0 46.16211,-45.91211 46.161232,45.912216 0 0 0 -46.16211,-45.91406 z m -98.14453,37.57617 a 46.161232,45.912216 0 0 0 -46.16211,45.91211 46.161232,45.912216 0 0 0 0.24023,4.64453 c 5.40556,7.43662 9.24751,16.05713 11.03516,25.38086 a 46.161232,45.912216 0 0 0 34.88672,15.88672 46.161232,45.912216 0 0 0 46.16016,-45.91211 46.161232,45.912216 0 0 0 -46.16016,-45.91211 z m -97.91797,43.78516 a 46.161232,45.912216 0 0 0 -46.16211,45.91211 46.161232,45.912216 0 0 0 46.16211,45.91211 46.161232,45.912216 0 0 0 46.16016,-45.91211 46.161232,45.912216 0 0 0 -46.16016,-45.91211 z m 169.10547,15.96094 c -0.0826,0.0731 -0.15891,0.15174 -0.24414,0.22265 l -4.59961,2.49219 c -2.19437,1.29992 -4.33481,2.74917 -6.42969,4.31055 -3.01376,7.78251 -7.50544,14.85334 -13.14453,20.84765 21.83258,15.77664 37.65196,41.10622 45.91016,71.23243 12.55351,1.34272 25.01852,2.95418 37.35156,4.85156 a 18.0018,18.0018 0 0 1 15.26367,17.79101 l 0,29.62891 a 18.0018,18.0018 0 0 1 -0.56641,4.32812 l 12.45313,0 0,-0.006 c 9.17391,-0.12949 16.90004,-5.12144 19.49609,-11.96485 1.73711,-9.67505 2.66602,-19.82517 2.66602,-30.29297 0,-52.42088 -23.18776,-96.95547 -55.44531,-113.05859 -7.70153,4.32409 -16.58065,6.80469 -26.02149,6.80469 -9.71604,0 -18.83499,-2.62666 -26.68945,-7.1875 z m -98.14649,37.57422 c -0.0826,0.0731 -0.15695,0.15174 -0.24218,0.22265 l -4.60156,2.49219 c -1.23463,0.73138 -2.44855,1.52082 -3.65235,2.33594 -2.62015,11.03699 -8.13463,20.99888 -15.69531,29.03515 8.66251,6.25941 16.36772,14.03443 23.04101,23.00391 9.38684,-0.29865 18.78754,-0.45703 28.18946,-0.45703 24.19399,0 48.38616,0.99243 72.32422,2.97265 -9.58884,-27.60781 -26.31419,-49.06975 -46.65235,-59.22265 -7.70153,4.32409 -16.58064,6.80469 -26.02148,6.80469 -9.71604,0 -18.83497,-2.62666 -26.68946,-7.1875 z m -97.91796,43.78515 c -0.0826,0.0731 -0.15696,0.15175 -0.24219,0.22266 l -4.60156,2.49219 c -30.00832,17.77664 -51.16406,60.65589 -51.16406,110.72851 0,10.75494 0.98217,21.17411 2.8125,31.08789 2.71492,6.07356 9.53552,10.52599 17.70898,11.10742 l 0,0.0664 15.22852,0 0,-72.18945 a 18.0018,18.0018 0 0 1 1.33203,-6.73243 18.0018,18.0018 0 0 1 -1.33203,-6.76562 l 0,-29.62891 a 18.0018,18.0018 0 0 1 15.26367,-17.79101 c 25.24254,-3.88345 51.02799,-6.59556 77.02929,-8.1582 -5.93527,-5.85102 -12.41934,-10.6097 -19.32422,-14.05665 -7.70154,4.32409 -16.57869,6.80469 -26.01953,6.80469 -9.71603,0 -18.83695,-2.62666 -26.6914,-7.1875 z m 124.95703,48.84766 c -3.10827,0 -6.21556,0.0246 -9.32227,0.0605 6.87252,18.95104 10.53516,40.29633 10.53516,62.66602 0,0.11566 -0.004,0.23011 -0.004,0.3457 l 20.2168,0 59.54883,-35.37304 c 0.0895,-2.28114 0.14258,-4.57674 0.14258,-6.89063 0,-5.72338 -0.29173,-11.34489 -0.82618,-16.85351 -26.47261,-2.5936 -53.36291,-3.95508 -80.29101,-3.95508 z m -29.59375,0.54687 c -26.8443,0.97882 -53.513,3.26449 -79.62109,6.74805 l 0,3.58594 92.40624,54.41992 c 9.4e-4,-0.23562 0.008,-0.46913 0.008,-0.70508 0,-23.57044 -4.70042,-45.53444 -12.79297,-64.04883 z m 128.29883,5.41993 c 0.23337,3.62119 0.36606,7.27745 0.40234,10.96289 l 10.10742,-6.00391 0,-3.63086 c -3.49247,-0.46599 -6.99817,-0.9051 -10.50976,-1.32812 z m -207.91992,61.43164 0,39.45898 4.29101,0 25.49219,-20.57031 -29.7832,-18.88867 z"
         style="fill:url(#linearGradient4467);fill-opacity:1;stroke:none;stroke-width:41.15159225;stroke-linecap:round;stroke-linejoin:round;stroke-opacity:1"
         inkscape:connector-curvature="0" />
      <path
         id="rect4323"
         d="m 495.82403,335.13371 399.93808,0 0,399.25266 -399.93808,0 z"
         style="color:#000000;clip-rule:nonzero;display:inline;overflow:visible;visibility:visible;opacity:1;isolation:auto;mix-blend-mode:normal;color-interpolation:sRGB;color-interpolation-filters:linearRGB;solid-color:#000000;solid-opacity:1;fill:none;fill-opacity:1;fill-rule:nonzero;stroke:none;stroke-width:1px;stroke-linecap:butt;stroke-linejoin:miter;stroke-miterlimit:4;stroke-dasharray:none;stroke-dashoffset:0;stroke-opacity:1;color-rendering:auto;image-rendering:auto;shape-rendering:auto;text-rendering:auto;enable-background:accumulate"
         inkscape:connector-curvature="0" />
      <flowRoot
         transform="translate(304.28703,31.540061)"
         style="font-style:normal;font-weight:normal;font-size:40px;line-height:125%;font-family:sans-serif;letter-spacing:0px;word-spacing:0px;fill:#252525;fill-opacity:1;stroke:none;stroke-width:1px;stroke-linecap:butt;stroke-linejoin:miter;stroke-opacity:1"
         id="flowRoot4169"
         xml:space="preserve"><flowRegion
           id="flowRegion4171"><rect
             y="427.07962"
             x="89.541069"
             height="88.78862"
             width="56.433445"
             id="rect4173" /></flowRegion><flowPara
           id="flowPara4175" /></flowRoot>      <path
         sodipodi:nodetypes="scccccsccccccccccccccccc"
         id="path4169"
         d="m 696.6291,552.8375 c -42.93495,0 -85.86991,3.18042 -127.21469,9.54112 l 0,29.62999 127.7599,75.2393 126.66948,-75.2393 0,-29.62999 c -41.34476,-6.3607 -84.27973,-9.54112 -127.21469,-9.54112 z m -127.21469,52.66939 0,113.30388 78.62322,-63.44018 z m 254.42938,0 -77.80399,49.77854 77.80399,63.58354 z m -90.83498,54.52003 -35.8345,26.90725 -35.85439,-26.74112 0,0.0766 -91.82032,73.85602 254.20221,0.012 -90.693,-73.88718 0,-0.22433 z"
         style="fill:#99b000;fill-opacity:1;fill-rule:evenodd;stroke:none;stroke-width:1px;stroke-linecap:butt;stroke-linejoin:miter;stroke-opacity:1"
         inkscape:connector-curvature="0" />
    </g>
  </g>
</svg>
