<?xml version="1.0" encoding="UTF-8" standalone="no"?>
<!-- Created with Inkscape (http://www.inkscape.org/) -->

<svg
   xmlns:dc="http://purl.org/dc/elements/1.1/"
   xmlns:cc="http://creativecommons.org/ns#"
   xmlns:rdf="http://www.w3.org/1999/02/22-rdf-syntax-ns#"
   xmlns:svg="http://www.w3.org/2000/svg"
   xmlns="http://www.w3.org/2000/svg"
   xmlns:sodipodi="http://sodipodi.sourceforge.net/DTD/sodipodi-0.dtd"
   xmlns:inkscape="http://www.inkscape.org/namespaces/inkscape"
   width="210mm"
   height="297mm"
   viewBox="0 0 744.09448819 1052.3622047"
   id="svg2"
   version="1.1"
   inkscape:version="0.91 r13725"
   sodipodi:docname="switch-course-book-grey.svg"
   inkscape:export-filename="C:\Users\johannes\Documents\Arbeit\RRZE\bi-con\bi-con\scalable\documents\document.png"
   inkscape:export-xdpi="4"
   inkscape:export-ydpi="4">
  <defs
     id="defs4">
    <linearGradient
       id="linearGradient2224">
      <stop
         id="stop2226"
         offset="0"
         style="stop-color:#7c7c7c;stop-opacity:1;" />
      <stop
         id="stop2228"
         offset="1"
         style="stop-color:#b8b8b8;stop-opacity:1;" />
    </linearGradient>
    <linearGradient
       id="linearGradient15218">
      <stop
         id="stop15220"
         offset="0"
         style="stop-color:#eeeeef;stop-opacity:1;" />
      <stop
         id="stop2736"
         offset="0.59928656"
         style="stop-color:#d3d7cf;stop-opacity:1;" />
      <stop
         id="stop2738"
         offset="0.82758623"
         style="stop-color:#ffffff;stop-opacity:1;" />
      <stop
         id="stop15222"
         offset="1"
         style="stop-color:#d3d7cf;stop-opacity:1;" />
    </linearGradient>
    <pattern
       y="0"
       x="0"
       height="6"
       width="6"
       patternUnits="userSpaceOnUse"
       id="EMFhbasepattern" />
    <pattern
       y="0"
       x="0"
       height="6"
       width="6"
       patternUnits="userSpaceOnUse"
       id="EMFhbasepattern-5" />
    <pattern
       y="0"
       x="0"
       height="6"
       width="6"
       patternUnits="userSpaceOnUse"
       id="EMFhbasepattern-6" />
  </defs>
  <sodipodi:namedview
     id="base"
     pagecolor="#ffffff"
     bordercolor="#666666"
     borderopacity="1.0"
     inkscape:pageopacity="0.0"
     inkscape:pageshadow="2"
     inkscape:zoom="0.99999999"
     inkscape:cx="309.66008"
     inkscape:cy="473.11421"
     inkscape:document-units="px"
     inkscape:current-layer="layer1"
     showgrid="false"
     showguides="true"
     inkscape:guide-bbox="true"
     inkscape:window-width="1366"
     inkscape:window-height="721"
     inkscape:window-x="-4"
     inkscape:window-y="-4"
     inkscape:window-maximized="1">
    <sodipodi:guide
       position="315.53572,730.17859"
       orientation="0,1"
       id="guide3338" />
    <sodipodi:guide
       position="351.25,330.17858"
       orientation="0,1"
       id="guide3340" />
    <sodipodi:guide
       position="189.10714,408.8393"
       orientation="1,0"
       id="guide3344" />
    <sodipodi:guide
       position="589.04521,468.07945"
       orientation="1,0"
       id="guide3346" />
    <inkscape:grid
       type="xygrid"
       id="grid3440" />
    <sodipodi:guide
       position="0,0"
       orientation="0,1"
       id="guide3405" />
    <sodipodi:guide
       position="214.125,684.50002"
       orientation="1,0"
       id="guide3407" />
    <sodipodi:guide
       position="0,0"
       orientation="0,1"
       id="guide3409" />
    <sodipodi:guide
       position="589.04521,378.30213"
       orientation="1,0"
       id="guide3411" />
    <sodipodi:guide
       position="564.00001,683.37502"
       orientation="1,0"
       id="guide3413" />
  </sodipodi:namedview>
  <metadata
     id="metadata7">
    <rdf:RDF>
      <cc:Work
         rdf:about="">
        <dc:format>image/svg+xml</dc:format>
        <dc:type
           rdf:resource="http://purl.org/dc/dcmitype/StillImage" />
        <dc:title></dc:title>
      </cc:Work>
    </rdf:RDF>
  </metadata>
  <g
     inkscape:label="Ebene 1"
     inkscape:groupmode="layer"
     id="layer1">
    <flowRoot
       xml:space="preserve"
       id="flowRoot4169"
       style="font-style:normal;font-weight:normal;font-size:40px;line-height:125%;font-family:sans-serif;letter-spacing:0px;word-spacing:0px;fill:#000000;fill-opacity:1;stroke:none;stroke-width:1px;stroke-linecap:butt;stroke-linejoin:miter;stroke-opacity:1"><flowRegion
         id="flowRegion4171"><rect
           id="rect4173"
           width="56.433445"
           height="88.78862"
           x="89.541069"
           y="427.07962" /></flowRegion><flowPara
         id="flowPara4175" /></flowRoot>    <rect
       style="fill:none;fill-rule:evenodd;stroke:none;stroke-width:1px;stroke-linecap:butt;stroke-linejoin:miter;stroke-opacity:1"
       id="rect3336"
       width="400"
       height="400"
       x="189.14485"
       y="322.27005"
       inkscape:export-xdpi="4.9499998"
       inkscape:export-ydpi="4.9499998" />
    <path
       inkscape:connector-curvature="0"
       id="path4206"
       d="m 340.84874,330.26573 c 0,0 -33.97431,0 -33.97431,34.06321 l 0.14659,247.10477 0.586,1.32143 -0.73227,0 0,67.97994 c 1.1716,21.43649 8.34719,34.06342 33.97432,34.06342 l 203.55237,0 c 10.25088,0 16.98722,-6.75396 16.98722,-17.03168 l 0.14659,-30.53962 c -0.14659,-6.90076 -16.98722,-6.90076 -16.98722,0 l -0.14659,30.39279 -194.47314,0.14697 c 0,0 -26.21285,2.34923 -26.50571,-23.34517 0,-23.19832 25.62706,-19.82137 25.62706,-19.82137 l 195.35179,-1.0278 c 10.25088,0 16.98722,-6.75397 16.98722,-17.03168 l 0,-288.94982 c 0,-10.57132 -6.73634,-17.32523 -16.4015,-17.0316 L 340.84907,330.2661 Z"
       style="fill:#9397a2;fill-opacity:1;fill-rule:evenodd;stroke:none" />
    <path
       style="fill:#5a6578;fill-opacity:1;fill-rule:evenodd;stroke:#ffffff;stroke-width:30;stroke-linecap:butt;stroke-linejoin:miter;stroke-opacity:1;stroke-miterlimit:4;stroke-dasharray:none"
       d="m 426.67406,508.14463 c 4.0615,4.06492 4.0615,11.94842 0.12145,15.8919 L 323.26574,629.00346 c -1.76681,2.00331 -6.7538,3.6147 -6.75033,-0.26843 l 0.0355,-51.54821 c -0.0962,-1.52795 -0.71441,-1.93911 -1.81979,-1.93036 -11.85528,0.0938 -116.55583,-6.63163 -116.55583,-118.23137 0,-126.13593 114.24139,-126.08974 114.24139,-126.08974 3.18271,0.87865 2.69828,4.75345 0,5.28784 0,0 -55.11518,14.86084 -55.11518,61.67567 0,59.12623 56.55676,58.95204 56.55676,58.95204 1.81356,0.12731 2.53837,-0.96474 2.56635,-2.49233 l -0.0583,-50.23915 c 0.0583,-2.27881 2.92206,-2.95631 5.89315,0.0777 z"
       id="path4160-6"
       inkscape:connector-curvature="0"
       sodipodi:nodetypes="cccccssccsccccc" />
    <path
       style="fill:#9397a2;fill-opacity:1;fill-rule:evenodd;stroke:none;stroke-width:1px;stroke-linecap:butt;stroke-linejoin:miter;stroke-opacity:1"
       d="m 428.10833,508.32256 c 4.0615,4.06492 4.0615,11.94842 0.12145,15.8919 L 324.70001,629.18139 c -1.76681,2.00331 -6.7538,3.6147 -6.75033,-0.26843 l 0.0355,-51.54821 c -0.0962,-1.52795 -0.71441,-1.93911 -1.81979,-1.93036 -11.85528,0.0938 -116.55583,-6.63163 -116.55583,-118.23137 0,-126.13593 114.24139,-126.08974 114.24139,-126.08974 3.18271,0.87865 2.69828,4.75345 0,5.28784 0,0 -55.11518,14.86084 -55.11518,61.67567 0,59.12623 56.55676,58.95204 56.55676,58.95204 1.81356,0.12731 2.53837,-0.96474 2.56635,-2.49233 l -0.0583,-50.23915 c 0.0583,-2.27881 2.92206,-2.95631 5.89315,0.0777 z"
       id="path4160"
       inkscape:connector-curvature="0"
       sodipodi:nodetypes="cccccssccsccccc" />
  </g>
</svg>
