<?xml version="1.0" encoding="UTF-8" standalone="no"?>
<!-- Created with Inkscape (http://www.inkscape.org/) -->
<svg xmlns:dc="http://purl.org/dc/elements/1.1/" xmlns:cc="http://creativecommons.org/ns#" xmlns:rdf="http://www.w3.org/1999/02/22-rdf-syntax-ns#" xmlns:svg="http://www.w3.org/2000/svg" xmlns="http://www.w3.org/2000/svg" xmlns:sodipodi="http://sodipodi.sourceforge.net/DTD/sodipodi-0.dtd" xmlns:inkscape="http://www.inkscape.org/namespaces/inkscape" width="210mm" height="297mm" viewBox="0 0 744.09448819 1052.3622047" id="svg2" version="1.1" inkscape:version="0.91 r13725" inkscape:export-xdpi="4" inkscape:export-ydpi="4">
  <defs id="defs4">
    <linearGradient id="linearGradient2224">
      <stop id="stop2226" offset="0" style="stop-color:#7c7c7c;stop-opacity:1;"/>
      <stop id="stop2228" offset="1" style="stop-color:#b8b8b8;stop-opacity:1;"/>
    </linearGradient>
    <linearGradient id="linearGradient15218">
      <stop id="stop15220" offset="0" style="stop-color:#eeeeef;stop-opacity:1;"/>
      <stop id="stop2736" offset="0.59928656" style="stop-color:#d3d7cf;stop-opacity:1;"/>
      <stop id="stop2738" offset="0.82758623" style="stop-color:#ffffff;stop-opacity:1;"/>
      <stop id="stop15222" offset="1" style="stop-color:#d3d7cf;stop-opacity:1;"/>
    </linearGradient>
    <pattern y="0" x="0" height="6" width="6" patternUnits="userSpaceOnUse" id="EMFhbasepattern"/>
    <pattern y="0" x="0" height="6" width="6" patternUnits="userSpaceOnUse" id="EMFhbasepattern-5"/>
  </defs>
  <sodipodi:namedview id="base" pagecolor="#ffffff" bordercolor="#666666" borderopacity="1.0" inkscape:pageopacity="0.0" inkscape:pageshadow="2" inkscape:zoom="0.7071068" inkscape:cx="462.4345" inkscape:cy="589.61378" inkscape:document-units="px" inkscape:current-layer="layer1" showgrid="false" showguides="true" inkscape:guide-bbox="true" inkscape:window-width="1366" inkscape:window-height="721" inkscape:window-x="-4" inkscape:window-y="-4" inkscape:window-maximized="1">
    <sodipodi:guide position="560,730.00002" orientation="0,1" id="guide3338"/>
    <sodipodi:guide position="560,330.00001" orientation="0,1" id="guide3340"/>
    <sodipodi:guide position="190,475.00001" orientation="1,0" id="guide3344"/>
    <sodipodi:guide position="590,451.00001" orientation="1,0" id="guide3346"/>
    <inkscape:grid type="xygrid" id="grid3440"/>
  </sodipodi:namedview>
  <metadata id="metadata7">
    <rdf:RDF>
      <cc:Work rdf:about="">
        <dc:format>image/svg+xml</dc:format>
        <dc:type rdf:resource="http://purl.org/dc/dcmitype/StillImage"/>
      </cc:Work>
    </rdf:RDF>
  </metadata>
  <g inkscape:label="Ebene 1" inkscape:groupmode="layer" id="layer1">
    <rect style="color:#000000;clip-rule:nonzero;display:inline;overflow:visible;visibility:visible;opacity:1;isolation:auto;mix-blend-mode:normal;color-interpolation:sRGB;color-interpolation-filters:linearRGB;solid-color:#000000;solid-opacity:1;fill:none;fill-opacity:1;fill-rule:nonzero;stroke:none;stroke-width:50;stroke-linecap:square;stroke-linejoin:round;stroke-miterlimit:4;stroke-dasharray:none;stroke-dashoffset:0;stroke-opacity:1;color-rendering:auto;image-rendering:auto;shape-rendering:auto;text-rendering:auto;enable-background:accumulate" id="rect4224" width="400" height="400" x="190" y="322.36221"/>
    <g id="g4199" transform="matrix(0.875,0,0,0.875,50.620057,71.911228)">
      <g style="stroke:#ffffff;stroke-width:23;stroke-linejoin:round;stroke-miterlimit:4;stroke-dasharray:none" id="g4223">
        <ellipse transform="matrix(0.47022196,0,0,0.47022196,60.744888,401.65899)" style="fill:#5a6578;fill-opacity:1;stroke:#ffffff;stroke-width:30;stroke-linejoin:round;stroke-miterlimit:4;stroke-dasharray:none;stroke-opacity:1" id="ellipse4214" cy="395.83826" cx="392.98022" rx="65.647316" ry="65.293182"/>
        <ellipse transform="matrix(0.47022196,0,0,0.47022196,204.39134,401.74737)" ry="65.293182" rx="65.647316" cx="392.98022" cy="395.83826" id="ellipse4216" style="fill:#5a6578;fill-opacity:1;stroke:#ffffff;stroke-width:30;stroke-linejoin:round;stroke-miterlimit:4;stroke-dasharray:none;stroke-opacity:1"/>
        <ellipse transform="matrix(0.47022196,0,0,0.47022196,350.80295,401.64382)" style="fill:#5a6578;fill-opacity:1;stroke:#ffffff;stroke-width:30;stroke-linejoin:round;stroke-miterlimit:4;stroke-dasharray:none;stroke-opacity:1" id="ellipse4218" cy="395.83826" cx="392.98022" rx="65.647316" ry="65.293182"/>
        <path sodipodi:nodetypes="sccsccsccsccsc" inkscape:connector-curvature="0" id="path4212" d="m 389.33682,322.65065 c -68.56897,0 -124.15512,15.44066 -124.15512,34.48768 -0.40015,21.11223 -1.93354,36.97409 0,55.30445 0,0 27.59001,27.59015 124.15512,27.59015 96.56507,0 124.1551,-27.59015 124.1551,-27.59015 1.78332,-23.7121 1.14816,-40.58993 0,-55.30445 0,-19.04702 -55.58614,-34.48768 -124.1551,-34.48768 z M 265.1817,421.97518 c -1.54981,19.50683 -2.11051,37.63467 0,56.68394 0,0 27.59001,27.59016 124.15512,27.59016 96.56507,0 124.1551,-27.59016 124.1551,-27.59016 1.87706,-19.54771 1.80129,-37.59601 0,-56.68394 0,0 -41.38503,27.59014 -124.1551,27.59014 -82.77007,0 -124.15512,-27.59014 -124.15512,-27.59014 z" style="color:#000000;clip-rule:nonzero;display:inline;overflow:visible;visibility:visible;opacity:1;isolation:auto;mix-blend-mode:normal;color-interpolation:sRGB;color-interpolation-filters:linearRGB;solid-color:#000000;solid-opacity:1;fill:#abbe24;fill-opacity:1;fill-rule:nonzero;stroke:#ffffff;stroke-width:30;stroke-linecap:butt;stroke-linejoin:round;stroke-miterlimit:4;stroke-dasharray:none;stroke-dashoffset:0;stroke-opacity:1;color-rendering:auto;image-rendering:auto;shape-rendering:auto;text-rendering:auto;enable-background:accumulate"/>
      </g>
      <rect y="322.36221" x="190" height="400" width="400" id="rect4160" style="opacity:1;fill:none;fill-opacity:1;stroke:none;stroke-width:23;stroke-linecap:butt;stroke-linejoin:round;stroke-miterlimit:4;stroke-dasharray:none;stroke-opacity:1"/>
      <g id="g4181">
        <g id="g4246" style="stroke:#ffffff;stroke-width:30;stroke-linejoin:round;stroke-miterlimit:4;stroke-dasharray:none">
          <ellipse ry="65.293182" rx="65.647316" cx="392.98022" cy="395.83826" id="ellipse4238" style="fill:#5a6578;fill-opacity:1;stroke:#ffffff;stroke-width:30;stroke-linejoin:round;stroke-miterlimit:4;stroke-dasharray:none;stroke-opacity:1" transform="matrix(0.47022196,0,0,0.47022196,60.744888,401.65899)"/>
          <ellipse style="fill:#5a6578;fill-opacity:1;stroke:#ffffff;stroke-width:30;stroke-linejoin:round;stroke-miterlimit:4;stroke-dasharray:none;stroke-opacity:1" id="ellipse4240" cy="395.83826" cx="392.98022" rx="65.647316" ry="65.293182" transform="matrix(0.47022196,0,0,0.47022196,204.39134,401.74737)"/>
          <path style="color:#000000;clip-rule:nonzero;display:inline;overflow:visible;visibility:visible;opacity:1;isolation:auto;mix-blend-mode:normal;color-interpolation:sRGB;color-interpolation-filters:linearRGB;solid-color:#000000;solid-opacity:1;fill:#abbe24;fill-opacity:1;fill-rule:nonzero;stroke:#ffffff;stroke-width:30;stroke-linecap:butt;stroke-linejoin:round;stroke-miterlimit:4;stroke-dasharray:none;stroke-dashoffset:0;stroke-opacity:1;color-rendering:auto;image-rendering:auto;shape-rendering:auto;text-rendering:auto;enable-background:accumulate" d="m 388.92994,322.65065 c -65.47912,0 -118.56045,14.74487 -118.56045,32.9336 -0.38212,20.16087 -1.84641,35.30797 0,52.81233 0,0 26.34675,26.34688 118.56045,26.34688 92.21367,0 118.56044,-26.34688 118.56044,-26.34688 1.70296,-22.64359 1.09642,-38.76088 0,-52.81233 0,-18.18873 -53.08133,-32.9336 -118.56044,-32.9336 z m -118.56045,94.84878 c -1.47997,18.62781 -2.01541,35.93878 0,54.12965 0,0 26.34675,26.3469 118.56045,26.3469 92.21367,0 118.56044,-26.3469 118.56044,-26.3469 1.79247,-18.66685 1.72012,-35.90186 0,-54.12965 0,0 -39.52015,26.34687 -118.56044,26.34687 -79.04029,0 -118.56045,-26.34687 -118.56045,-26.34687 z" id="path4236" inkscape:connector-curvature="0" sodipodi:nodetypes="sccsccsccsccsc"/>
          <ellipse style="fill:#5a6578;fill-opacity:1;stroke:#ffffff;stroke-width:30;stroke-linejoin:round;stroke-miterlimit:4;stroke-dasharray:none;stroke-opacity:1" id="ellipse4242" cy="587.77563" cx="535.59088" rx="30.868809" ry="30.702288"/>
        </g>
        <g id="g4169">
          <path id="rect4195" d="m 386.375,503.42383 0,8.9375 -1.9043,0 -137.26562,0 -5.08399,0 0,5 0,45 5.08399,0 0,-45 139.26562,0 0,45 5.08399,0 0,-45 141.43164,0 0,45 5.08398,0 0,-45 0,-5 -5.08398,0 -141.61133,0 0,-8.9375 -5,0 z" style="color:#000000;clip-rule:nonzero;display:inline;overflow:visible;visibility:visible;opacity:1;isolation:auto;mix-blend-mode:normal;color-interpolation:sRGB;color-interpolation-filters:linearRGB;solid-color:#000000;solid-opacity:1;fill:#5a6578;fill-opacity:1;fill-rule:nonzero;stroke:none;stroke-width:30;stroke-linecap:butt;stroke-linejoin:miter;stroke-miterlimit:4;stroke-dasharray:none;stroke-dashoffset:60.95968628;stroke-opacity:1;color-rendering:auto;image-rendering:auto;shape-rendering:auto;text-rendering:auto;enable-background:accumulate" inkscape:connector-curvature="0"/>
          <path sodipodi:nodetypes="sccsccsccsccsc" inkscape:connector-curvature="0" id="path4165" d="m 388.92994,322.65065 c -65.47912,0 -118.56045,14.74487 -118.56045,32.9336 -0.38212,20.16087 -1.84641,35.30797 0,52.81233 0,0 26.34675,26.34688 118.56045,26.34688 92.21367,0 118.56044,-26.34688 118.56044,-26.34688 1.70296,-22.64359 1.09642,-38.76088 0,-52.81233 0,-18.18873 -53.08133,-32.9336 -118.56044,-32.9336 z m -118.56045,94.84878 c -1.47997,18.62781 -2.01541,35.93878 0,54.12965 0,0 26.34675,26.3469 118.56045,26.3469 92.21367,0 118.56044,-26.3469 118.56044,-26.3469 1.79247,-18.66685 1.72012,-35.90186 0,-54.12965 0,0 -39.52015,26.34687 -118.56044,26.34687 -79.04029,0 -118.56045,-26.34687 -118.56045,-26.34687 z" style="color:#000000;clip-rule:nonzero;display:inline;overflow:visible;visibility:visible;opacity:1;isolation:auto;mix-blend-mode:normal;color-interpolation:sRGB;color-interpolation-filters:linearRGB;solid-color:#000000;solid-opacity:1;fill:#abbe24;fill-opacity:1;fill-rule:nonzero;stroke:none;stroke-width:3.5999999;stroke-linecap:butt;stroke-linejoin:round;stroke-miterlimit:4;stroke-dasharray:none;stroke-dashoffset:0;stroke-opacity:1;color-rendering:auto;image-rendering:auto;shape-rendering:auto;text-rendering:auto;enable-background:accumulate"/>
          <g style="fill:#5a6578" transform="matrix(0.47022196,0,0,0.47022196,60.744888,401.65899)" id="g4289">
            <path style="fill:#5a6578;fill-opacity:1;stroke:none;stroke-width:41.15159225;stroke-linecap:round;stroke-linejoin:round;stroke-opacity:1" d="m 354.64258,464.66933 c -0.11745,0.1039 -0.22449,0.21556 -0.3457,0.3164 l -6.54297,3.54492 c -42.67576,25.28071 -72.76172,82.00562 -72.76172,153.21544 0,15.29493 1.39507,30.1142 3.99804,44.21289 3.86098,8.63739 13.56182,14.96807 25.18555,15.79493 l 0,0.0957 172.76172,0 0,-0.008 c 13.04649,-0.18416 24.03463,-7.28341 27.72656,-17.01563 2.4704,-13.75919 3.79102,-28.19351 3.79102,-43.08008 0,-74.54936 -32.9771,-133.6311 -78.85156,-156.53184 -10.95259,6.14942 -23.5778,9.67773 -37.00391,9.67773 -13.81748,10e-6 -26.78697,-3.73654 -37.95703,-10.22265 z" id="path2176" inkscape:connector-curvature="0" sodipodi:nodetypes="cccsccccccscscc"/>
            <ellipse style="fill:#5a6578;fill-opacity:1;stroke:none;stroke-width:14;stroke-miterlimit:4;stroke-dasharray:none;stroke-opacity:1" id="circle2187-6" cy="395.83826" cx="392.98022" rx="65.647316" ry="65.293182"/>
          </g>
          <g id="g4183" transform="matrix(0.47022196,0,0,0.47022196,204.39134,401.74737)" style="fill:#5a6578">
            <path sodipodi:nodetypes="cccsccccccscscc" inkscape:connector-curvature="0" id="path4185" d="m 354.64258,464.66933 c -0.11745,0.1039 -0.22449,0.21556 -0.3457,0.3164 l -6.54297,3.54492 c -42.67576,25.28071 -72.76172,82.00562 -72.76172,153.21544 0,15.29493 1.39507,30.1142 3.99804,44.21289 3.86098,8.63739 13.56182,14.96807 25.18555,15.79493 l 0,0.0957 172.76172,0 0,-0.008 c 13.04649,-0.18416 24.03463,-7.28341 27.72656,-17.01563 2.4704,-13.75919 3.79102,-28.19351 3.79102,-43.08008 0,-74.54936 -32.9771,-133.6311 -78.85156,-156.53184 -10.95259,6.14942 -23.5778,9.67773 -37.00391,9.67773 -13.81748,10e-6 -26.78697,-3.73654 -37.95703,-10.22265 z" style="fill:#5a6578;fill-opacity:1;stroke:none;stroke-width:41.15159225;stroke-linecap:round;stroke-linejoin:round;stroke-opacity:1"/>
            <ellipse ry="65.293182" rx="65.647316" cx="392.98022" cy="395.83826" id="ellipse4187" style="fill:#5a6578;fill-opacity:1;stroke:none;stroke-width:14;stroke-miterlimit:4;stroke-dasharray:none;stroke-opacity:1"/>
          </g>
          <path sodipodi:nodetypes="cccsccccccscscc" inkscape:connector-curvature="0" id="path4191" d="m 517.56368,620.14154 c -0.0552,0.0489 -0.10556,0.10136 -0.16256,0.14878 l -3.07664,1.6669 c -20.06708,11.88755 -34.21416,38.56084 -34.21416,72.04527 0,7.19201 0.65599,14.16035 1.87996,20.78987 1.81552,4.06149 6.37707,7.03831 11.8428,7.42712 l 0,0.045 81.23636,0 0,-0.004 c 6.13474,-0.0866 11.30161,-3.42482 13.03763,-8.00112 1.16164,-6.46988 1.78262,-13.25721 1.78262,-20.2572 0,-35.05475 -15.50655,-62.83628 -37.07773,-73.60471 -5.15015,2.89159 -11.0868,4.55068 -17.40005,4.55068 -6.49728,0 -12.59582,-1.757 -17.84823,-4.80692 z" style="fill:#5a6578;fill-opacity:1;stroke:none;stroke-width:41.15159225;stroke-linecap:round;stroke-linejoin:round;stroke-opacity:1"/>
          <ellipse ry="30.702288" rx="30.868809" cx="535.59088" cy="587.77563" id="ellipse4193" style="fill:#5a6578;fill-opacity:1;stroke:none;stroke-width:14;stroke-miterlimit:4;stroke-dasharray:none;stroke-opacity:1"/>
        </g>
      </g>
    </g>
  </g>
</svg>
