<?xml version="1.0" encoding="UTF-8" standalone="no"?>
<!-- Created with Inkscape (http://www.inkscape.org/) -->
<svg xmlns:dc="http://purl.org/dc/elements/1.1/" xmlns:cc="http://creativecommons.org/ns#" xmlns:rdf="http://www.w3.org/1999/02/22-rdf-syntax-ns#" xmlns:svg="http://www.w3.org/2000/svg" xmlns="http://www.w3.org/2000/svg" xmlns:xlink="http://www.w3.org/1999/xlink" xmlns:sodipodi="http://sodipodi.sourceforge.net/DTD/sodipodi-0.dtd" xmlns:inkscape="http://www.inkscape.org/namespaces/inkscape" width="210mm" height="297mm" viewBox="0 0 744.09448819 1052.3622047" id="svg2" version="1.1" inkscape:version="0.91 r13725" inkscape:export-xdpi="4" inkscape:export-ydpi="4">
  <defs id="defs4">
    <linearGradient inkscape:collect="always" id="linearGradient4165">
      <stop style="stop-color:#7a8597;stop-opacity:1;" offset="0" id="stop4167"/>
      <stop style="stop-color:#4e505d;stop-opacity:1" offset="1" id="stop4169"/>
    </linearGradient>
    <linearGradient id="linearGradient2224">
      <stop id="stop2226" offset="0" style="stop-color:#7c7c7c;stop-opacity:1;"/>
      <stop id="stop2228" offset="1" style="stop-color:#b8b8b8;stop-opacity:1;"/>
    </linearGradient>
    <linearGradient id="linearGradient15218">
      <stop id="stop15220" offset="0" style="stop-color:#eeeeef;stop-opacity:1;"/>
      <stop id="stop2736" offset="0.59928656" style="stop-color:#d3d7cf;stop-opacity:1;"/>
      <stop id="stop2738" offset="0.82758623" style="stop-color:#ffffff;stop-opacity:1;"/>
      <stop id="stop15222" offset="1" style="stop-color:#d3d7cf;stop-opacity:1;"/>
    </linearGradient>
    <pattern y="0" x="0" height="6" width="6" patternUnits="userSpaceOnUse" id="EMFhbasepattern"/>
    <pattern y="0" x="0" height="6" width="6" patternUnits="userSpaceOnUse" id="EMFhbasepattern-5"/>
    <pattern y="0" x="0" height="6" width="6" patternUnits="userSpaceOnUse" id="EMFhbasepattern-6"/>
    <linearGradient inkscape:collect="always" xlink:href="#linearGradient4165" id="linearGradient4171" x1="508" y1="406.36221" x2="284" y2="714.61218" gradientUnits="userSpaceOnUse" gradientTransform="matrix(1.1437274,0,0,1.0402234,-51.619807,-21.251653)"/>
  </defs>
  <sodipodi:namedview id="base" pagecolor="#ffffff" bordercolor="#666666" borderopacity="1.0" inkscape:pageopacity="0.0" inkscape:pageshadow="2" inkscape:zoom="0.3535534" inkscape:cx="142.7252" inkscape:cy="349.07204" inkscape:document-units="px" inkscape:current-layer="layer1" showgrid="false" showguides="true" inkscape:guide-bbox="true" inkscape:window-width="675" inkscape:window-height="713" inkscape:window-x="0" inkscape:window-y="0" inkscape:window-maximized="0">
    <sodipodi:guide position="315.53572,730.17859" orientation="0,1" id="guide3338"/>
    <sodipodi:guide position="351.25,330.17858" orientation="0,1" id="guide3340"/>
    <sodipodi:guide position="189.10714,408.8393" orientation="1,0" id="guide3344"/>
    <sodipodi:guide position="589.04521,468.07945" orientation="1,0" id="guide3346"/>
    <inkscape:grid type="xygrid" id="grid3440"/>
    <sodipodi:guide position="589.04521,378.30213" orientation="1,0" id="guide3411"/>
  </sodipodi:namedview>
  <metadata id="metadata7">
    <rdf:RDF>
      <cc:Work rdf:about="">
        <dc:format>image/svg+xml</dc:format>
        <dc:type rdf:resource="http://purl.org/dc/dcmitype/StillImage"/>
        <dc:title>address book global</dc:title>
        <dc:date>June 2015</dc:date>
        <dc:creator>
          <cc:Agent>
            <dc:title>Johannes Hechler</dc:title>
          </cc:Agent>
        </dc:creator>
        <dc:rights>
          <cc:Agent>
            <dc:title>Johannes Hechler</dc:title>
          </cc:Agent>
        </dc:rights>
        <dc:publisher>
          <cc:Agent>
            <dc:title>RRZE</dc:title>
          </cc:Agent>
        </dc:publisher>
        <dc:contributor>
          <cc:Agent>
            <dc:title>Ute Weber, Hendrik Eggers</dc:title>
          </cc:Agent>
        </dc:contributor>
      </cc:Work>
    </rdf:RDF>
  </metadata>
  <g inkscape:label="Ebene 1" inkscape:groupmode="layer" id="layer1">
    <g id="g4163">
      <flowRoot style="font-style:normal;font-weight:normal;font-size:40px;line-height:125%;font-family:sans-serif;letter-spacing:0px;word-spacing:0px;fill:#252525;fill-opacity:1;stroke:none;stroke-width:1px;stroke-linecap:butt;stroke-linejoin:miter;stroke-opacity:1" id="flowRoot4169" xml:space="preserve"><flowRegion id="flowRegion4171"><rect y="427.07962" x="89.541069" height="88.78862" width="56.433445" id="rect4173"/></flowRegion><flowPara id="flowPara4175"/></flowRoot>      <rect inkscape:export-ydpi="4.9499998" inkscape:export-xdpi="4.9499998" y="322.27005" x="189.14485" height="400" width="400" id="rect3336" style="fill:none;fill-rule:evenodd;stroke:none;stroke-width:1px;stroke-linecap:butt;stroke-linejoin:miter;stroke-opacity:1"/>
      <path style="fill:url(#linearGradient4171);fill-opacity:1;fill-rule:evenodd;stroke:none" d="m 285.60677,322.29849 c 0,0 -38.85735,0 -38.85735,35.43335 l 0.16766,257.04416 0.67022,1.37458 -0.83751,0 0,70.71433 c 1.33999,22.29873 9.54691,35.43356 38.85735,35.43356 l 232.80843,0 c 11.72421,0 19.42874,-7.02562 19.42874,-17.71675 l 0.16766,-31.76803 c -0.16766,-7.17833 -19.42875,-7.17833 -19.42875,0 l -0.16765,31.61529 -222.42426,0.15289 c 0,0 -29.98035,2.44372 -30.31531,-24.2842 0,-24.13143 29.31038,-20.61865 29.31038,-20.61865 l 223.42919,-1.06914 c 11.72421,0 19.42874,-7.02564 19.42874,-17.71675 l 0,-300.57237 c 0,-10.99653 -7.70453,-18.02211 -18.75884,-17.71667 l -233.47833,-0.30522 z" id="path4206" inkscape:connector-curvature="0"/>
      <path inkscape:connector-curvature="0" id="path5" d="m 394.19707,372.50225 c -44.40138,0.2995 -87.54107,28.0231 -105.30256,68.89798 -17.56718,37.59861 -12.52952,84.26393 12.1553,117.54518 26.9035,37.51204 77.34685,56.30153 122.16427,44.74161 34.091,-8.29711 64.2025,-32.22661 78.63225,-64.39224 16.86883,-34.79988 14.30563,-77.80885 -6.07392,-110.60354 -20.68945,-34.96755 -61.1045,-56.81593 -101.57534,-56.18899 z m -7.48976,69.53343 c -11.29727,-0.17309 -23.50217,0.34392 -34.23996,-0.25455 5.62777,-18.28849 14.00898,-37.86679 31.04971,-48.15483 3.7781,-3.00842 3.5134,0.8118 3.19025,4.25306 0,14.71877 0,29.43755 0,44.15632 z m 18.46335,-49.70815 c 16.15596,7.46037 24.7553,24.5587 30.87754,40.37106 0.3492,3.34298 6.41393,11.31394 -0.7773,9.33709 -10.16843,0 -20.33686,0 -30.50529,0 0,-16.62141 0,-33.24282 0,-49.86422 l 0.40505,0.15607 z m -53.89617,8.62131 c -8.31022,12.45397 -13.78478,26.60876 -17.38754,41.08684 -8.49248,0 -16.98496,0 -25.47744,0 9.79831,-17.69717 25.00378,-32.37123 43.09909,-41.43058 l -0.23411,0.34374 z m 90.20227,0.42549 c 17.42737,9.11872 32.06307,23.4562 41.58665,40.66135 -8.41888,-0.26057 -17.65459,0.51763 -25.57034,-0.38276 -3.64284,-14.47472 -9.15526,-28.62641 -17.52875,-41.04782 l 0.84794,0.43127 0.6645,0.33796 z m -111.0755,58.34989 c -2.79149,19.71822 -2.81035,39.83489 0,59.55204 -9.89963,0 -19.79927,0 -29.69891,0 -5.91279,-19.34711 -5.94935,-40.30405 0.23598,-59.55204 9.82098,0 19.64196,0 29.46293,0 z m 56.30419,0 c 0,19.85068 0,39.70136 0,59.55204 -12.77464,0 -25.54928,0 -38.32393,0 -2.89874,-19.7878 -3.18301,-39.93145 0.20439,-59.55204 12.70651,0 25.41303,0 38.11954,0 z m 56.18156,0 c 3.38385,19.60305 3.10572,39.77567 0.20253,59.55204 -12.77464,0 -25.54929,0 -38.32393,0 0,-19.85068 0,-39.70136 0,-59.55204 12.70713,0 25.41427,0 38.1214,0 z m 47.64758,0 c 6.15929,19.08265 6.16169,40.28843 0.23598,59.55204 -9.89964,0 -19.79928,0 -29.69892,0 2.81189,-19.71683 2.79166,-39.83422 0,-59.55204 9.82098,0 19.64196,0 29.46294,0 z M 333.87951,536.9648 c 3.61094,14.75557 9.06942,29.23356 17.57893,41.89509 -18.19222,-9.12546 -33.57607,-23.88402 -43.11211,-41.89509 8.51106,0 17.02213,0 25.53318,0 z m 52.8278,0 c 0,16.7781 0,33.55621 0,50.33431 -17.06864,-7.53816 -26.06565,-25.70595 -31.97315,-42.40234 -1.75673,-4.62039 -4.45783,-10.31981 3.32218,-7.93197 9.55032,0 19.10065,0 28.65097,0 z m 52.39488,0 c -5.31872,17.90912 -13.37095,37.35032 -29.66176,48.12138 -3.9045,3.0681 -5.81767,1.74938 -4.67482,-3.44666 0,-14.89158 0,-29.78314 0,-44.67472 11.44552,0 22.89105,0 34.33658,0 z m 44.0244,0 c -9.25897,17.8225 -25.74969,33.51052 -42.92073,41.61267 8.40041,-12.59672 13.80542,-26.96545 17.38754,-41.61267 8.51106,0 17.02212,0 25.53319,0 z" style="fill:#ffffff;fill-opacity:1"/>
    </g>
  </g>
</svg>
