<?xml version="1.0" encoding="UTF-8" standalone="no"?>
<!-- Created with Inkscape (http://www.inkscape.org/) -->
<svg xmlns:dc="http://purl.org/dc/elements/1.1/" xmlns:cc="http://creativecommons.org/ns#" xmlns:rdf="http://www.w3.org/1999/02/22-rdf-syntax-ns#" xmlns:svg="http://www.w3.org/2000/svg" xmlns="http://www.w3.org/2000/svg" xmlns:xlink="http://www.w3.org/1999/xlink" xmlns:sodipodi="http://sodipodi.sourceforge.net/DTD/sodipodi-0.dtd" xmlns:inkscape="http://www.inkscape.org/namespaces/inkscape" width="210mm" height="297mm" viewBox="0 0 744.09448819 1052.3622047" id="svg2" version="1.1" inkscape:version="0.91 r13725" inkscape:export-xdpi="4" inkscape:export-ydpi="4">
  <defs id="defs4">
    <linearGradient inkscape:collect="always" id="linearGradient4165">
      <stop style="stop-color:#7a8597;stop-opacity:1;" offset="0" id="stop4167"/>
      <stop style="stop-color:#4e505d;stop-opacity:1" offset="1" id="stop4169"/>
    </linearGradient>
    <linearGradient id="linearGradient2224">
      <stop id="stop2226" offset="0" style="stop-color:#7c7c7c;stop-opacity:1;"/>
      <stop id="stop2228" offset="1" style="stop-color:#b8b8b8;stop-opacity:1;"/>
    </linearGradient>
    <linearGradient id="linearGradient15218">
      <stop id="stop15220" offset="0" style="stop-color:#eeeeef;stop-opacity:1;"/>
      <stop id="stop2736" offset="0.59928656" style="stop-color:#d3d7cf;stop-opacity:1;"/>
      <stop id="stop2738" offset="0.82758623" style="stop-color:#ffffff;stop-opacity:1;"/>
      <stop id="stop15222" offset="1" style="stop-color:#d3d7cf;stop-opacity:1;"/>
    </linearGradient>
    <pattern y="0" x="0" height="6" width="6" patternUnits="userSpaceOnUse" id="EMFhbasepattern"/>
    <pattern y="0" x="0" height="6" width="6" patternUnits="userSpaceOnUse" id="EMFhbasepattern-5"/>
    <pattern y="0" x="0" height="6" width="6" patternUnits="userSpaceOnUse" id="EMFhbasepattern-6"/>
    <linearGradient inkscape:collect="always" xlink:href="#linearGradient4165" id="linearGradient4171" x1="508" y1="406.36221" x2="284" y2="714.61218" gradientUnits="userSpaceOnUse" gradientTransform="matrix(1.1437274,0,0,1.0402234,-51.619807,-21.251653)"/>
  </defs>
  <sodipodi:namedview id="base" pagecolor="#ffffff" bordercolor="#666666" borderopacity="1.0" inkscape:pageopacity="0.0" inkscape:pageshadow="2" inkscape:zoom="0.35355339" inkscape:cx="747.57728" inkscape:cy="353.93769" inkscape:document-units="px" inkscape:current-layer="layer1" showgrid="false" showguides="true" inkscape:guide-bbox="true" inkscape:window-width="675" inkscape:window-height="713" inkscape:window-x="683" inkscape:window-y="0" inkscape:window-maximized="0">
    <sodipodi:guide position="315.53572,730.17859" orientation="0,1" id="guide3338"/>
    <sodipodi:guide position="351.25,330.17858" orientation="0,1" id="guide3340"/>
    <sodipodi:guide position="189.10714,408.8393" orientation="1,0" id="guide3344"/>
    <sodipodi:guide position="589.04521,468.07945" orientation="1,0" id="guide3346"/>
    <inkscape:grid type="xygrid" id="grid3440"/>
    <sodipodi:guide position="589.04521,378.30213" orientation="1,0" id="guide3411"/>
  </sodipodi:namedview>
  <metadata id="metadata7">
    <rdf:RDF>
      <cc:Work rdf:about="">
        <dc:format>image/svg+xml</dc:format>
        <dc:type rdf:resource="http://purl.org/dc/dcmitype/StillImage"/>
        <dc:title>address book intern</dc:title>
        <dc:date>June 2015</dc:date>
        <dc:creator>
          <cc:Agent>
            <dc:title>Johannes Hechler</dc:title>
          </cc:Agent>
        </dc:creator>
        <dc:rights>
          <cc:Agent>
            <dc:title>Johannes Hechler</dc:title>
          </cc:Agent>
        </dc:rights>
        <dc:publisher>
          <cc:Agent>
            <dc:title>RRZE</dc:title>
          </cc:Agent>
        </dc:publisher>
        <dc:contributor>
          <cc:Agent>
            <dc:title>Ute Weber, Hendrik Eggers</dc:title>
          </cc:Agent>
        </dc:contributor>
      </cc:Work>
    </rdf:RDF>
  </metadata>
  <g inkscape:label="Ebene 1" inkscape:groupmode="layer" id="layer1">
    <g id="g4196">
      <flowRoot style="font-style:normal;font-weight:normal;font-size:40px;line-height:125%;font-family:sans-serif;letter-spacing:0px;word-spacing:0px;fill:#252525;fill-opacity:1;stroke:none;stroke-width:1px;stroke-linecap:butt;stroke-linejoin:miter;stroke-opacity:1" id="flowRoot4169" xml:space="preserve"><flowRegion id="flowRegion4171"><rect y="427.07962" x="89.541069" height="88.78862" width="56.433445" id="rect4173"/></flowRegion><flowPara id="flowPara4175"/></flowRoot>      <rect inkscape:export-ydpi="4.9499998" inkscape:export-xdpi="4.9499998" y="322.27005" x="189.14485" height="400" width="400" id="rect3336" style="fill:none;fill-rule:evenodd;stroke:none;stroke-width:1px;stroke-linecap:butt;stroke-linejoin:miter;stroke-opacity:1"/>
      <path style="fill:url(#linearGradient4171);fill-opacity:1;fill-rule:evenodd;stroke:none" d="m 285.60677,322.29849 c 0,0 -38.85735,0 -38.85735,35.43335 l 0.16766,257.04416 0.67022,1.37458 -0.83751,0 0,70.71433 c 1.33999,22.29873 9.54691,35.43356 38.85735,35.43356 l 232.80843,0 c 11.72421,0 19.42874,-7.02562 19.42874,-17.71675 l 0.16766,-31.76803 c -0.16766,-7.17833 -19.42875,-7.17833 -19.42875,0 l -0.16765,31.61529 -222.42426,0.15289 c 0,0 -29.98035,2.44372 -30.31531,-24.2842 0,-24.13143 29.31038,-20.61865 29.31038,-20.61865 l 223.42919,-1.06914 c 11.72421,0 19.42874,-7.02564 19.42874,-17.71675 l 0,-300.57237 c 0,-10.99653 -7.70453,-18.02211 -18.75884,-17.71667 l -233.47833,-0.30522 z" id="path4206" inkscape:connector-curvature="0"/>
      <g style="fill:#ffffff" id="g3" transform="matrix(0.57920146,0,0,0.57632274,276.37983,370.68164)">
        <path style="fill:#ffffff;fill-opacity:1" sodipodi:nodetypes="cscscscscscsscsscsccccssscsc" id="path5" d="m 357.45,190.721 c -5.331,-5.33 -11.8,-7.993 -19.417,-7.993 l -9.131,0 0,-54.821 c 0,-35.022 -12.559,-65.093 -37.685,-90.218 C 266.093,12.563 236.025,0 200.998,0 165.972,0 135.898,12.563 110.776,37.688 85.65,62.814 73.091,92.884 73.091,127.907 l 0,54.821 -9.135,0 c -7.611,0 -14.084,2.663 -19.414,7.993 -5.33,5.326 -7.994,11.799 -7.994,19.417 l 0,164.452 c 0,7.611 2.665,14.086 7.994,19.417 5.33,5.325 11.803,7.991 19.414,7.991 l 274.084,0 c 7.617,0 14.085,-2.663 19.417,-7.991 5.325,-5.331 7.994,-11.806 7.994,-19.417 l 0,-164.455 c 0.004,-7.612 -2.669,-14.084 -8.001,-19.414 z m -85.363,-7.993 -142.178,0 0,-54.821 c 0,-20.175 7.139,-35.39201 21.414,-49.66501 14.277,-14.275 29.501,-21.411 49.678,-21.411 20.179,0 35.399,7.135 49.677,21.411 14.271,14.272 20.67346,29.50356 21.409,49.66501 z" inkscape:connector-curvature="0"/>
      </g>
    </g>
  </g>
</svg>
