<?xml version="1.0" encoding="UTF-8" standalone="no"?>
<!-- Created with Inkscape (http://www.inkscape.org/) -->

<svg
   xmlns:dc="http://purl.org/dc/elements/1.1/"
   xmlns:cc="http://creativecommons.org/ns#"
   xmlns:rdf="http://www.w3.org/1999/02/22-rdf-syntax-ns#"
   xmlns:svg="http://www.w3.org/2000/svg"
   xmlns="http://www.w3.org/2000/svg"
   xmlns:xlink="http://www.w3.org/1999/xlink"
   xmlns:sodipodi="http://sodipodi.sourceforge.net/DTD/sodipodi-0.dtd"
   xmlns:inkscape="http://www.inkscape.org/namespaces/inkscape"
   width="210mm"
   height="297mm"
   viewBox="0 0 744.09448819 1052.3622047"
   id="svg2"
   version="1.1"
   inkscape:version="0.91 r13725"
   inkscape:export-xdpi="7.2000008"
   inkscape:export-ydpi="7.2000008"
   sodipodi:docname="attribute-personal.svg"
   inkscape:export-filename="C:\Users\johannes\Documents\Arbeit\RRZE\github3\bicons\32x32\emblems\attribute-personal.png">
  <defs
     id="defs4">
    <linearGradient
       inkscape:collect="always"
       xlink:href="#linearGradient4321"
       id="linearGradient4344"
       gradientUnits="userSpaceOnUse"
       gradientTransform="matrix(0.95017134,0,0,0.94722958,-169.41389,-295.10689)"
       x1="300"
       y1="632.36218"
       x2="470"
       y2="452.36221" />
    <linearGradient
       id="linearGradient4321"
       inkscape:collect="always">
      <stop
         id="stop4323"
         offset="0"
         style="stop-color:#4e505d;stop-opacity:1;" />
      <stop
         id="stop4325"
         offset="1"
         style="stop-color:#7a8597;stop-opacity:1" />
    </linearGradient>
  </defs>
  <sodipodi:namedview
     id="base"
     pagecolor="#ffffff"
     bordercolor="#666666"
     borderopacity="1.0"
     inkscape:pageopacity="0.0"
     inkscape:pageshadow="2"
     inkscape:zoom="0.72645548"
     inkscape:cx="443.23922"
     inkscape:cy="496.14583"
     inkscape:document-units="px"
     inkscape:current-layer="layer1"
     showgrid="false"
     showguides="true"
     inkscape:guide-bbox="true"
     inkscape:window-width="1366"
     inkscape:window-height="721"
     inkscape:window-x="-4"
     inkscape:window-y="-4"
     inkscape:window-maximized="1"
     inkscape:snap-bbox="true"
     inkscape:bbox-paths="true"
     inkscape:bbox-nodes="true"
     inkscape:snap-nodes="false">
    <sodipodi:guide
       position="315.53572,730.17859"
       orientation="0,1"
       id="guide3338" />
    <sodipodi:guide
       position="351.25,330.17858"
       orientation="0,1"
       id="guide3340" />
    <sodipodi:guide
       position="189.10714,408.8393"
       orientation="1,0"
       id="guide3344" />
    <inkscape:grid
       type="xygrid"
       id="grid3440" />
    <sodipodi:guide
       position="0,0"
       orientation="0,1"
       id="guide3405" />
    <sodipodi:guide
       position="0,0"
       orientation="0,1"
       id="guide3409" />
    <sodipodi:guide
       position="589.04521,378.30213"
       orientation="1,0"
       id="guide3411" />
  </sodipodi:namedview>
  <metadata
     id="metadata7">
    <rdf:RDF>
      <cc:Work
         rdf:about="">
        <dc:format>image/svg+xml</dc:format>
        <dc:type
           rdf:resource="http://purl.org/dc/dcmitype/StillImage" />
        <dc:title>attribute personal</dc:title>
        <dc:date>June 2015</dc:date>
        <dc:creator>
          <cc:Agent>
            <dc:title>Johannes Hechler</dc:title>
          </cc:Agent>
        </dc:creator>
        <dc:rights>
          <cc:Agent>
            <dc:title>Johannes Hechler</dc:title>
          </cc:Agent>
        </dc:rights>
        <dc:publisher>
          <cc:Agent>
            <dc:title>RRZE</dc:title>
          </cc:Agent>
        </dc:publisher>
        <dc:contributor>
          <cc:Agent>
            <dc:title>Ute Weber, Hendrik Eggers, Joanna Barbach</dc:title>
          </cc:Agent>
        </dc:contributor>
        <dc:subject>
          <rdf:Bag>
            <rdf:li>attribute</rdf:li>
            <rdf:li>personal</rdf:li>
            <rdf:li>digital person</rdf:li>
          </rdf:Bag>
        </dc:subject>
        <cc:license
           rdf:resource="http://creativecommons.org/licenses/by-sa/3.0/" />
      </cc:Work>
      <cc:License
         rdf:about="http://creativecommons.org/licenses/by-sa/3.0/">
        <cc:permits
           rdf:resource="http://creativecommons.org/ns#Reproduction" />
        <cc:permits
           rdf:resource="http://creativecommons.org/ns#Distribution" />
        <cc:requires
           rdf:resource="http://creativecommons.org/ns#Notice" />
        <cc:requires
           rdf:resource="http://creativecommons.org/ns#Attribution" />
        <cc:permits
           rdf:resource="http://creativecommons.org/ns#DerivativeWorks" />
        <cc:requires
           rdf:resource="http://creativecommons.org/ns#ShareAlike" />
      </cc:License>
    </rdf:RDF>
  </metadata>
  <g
     inkscape:label="Ebene 1"
     inkscape:groupmode="layer"
     id="layer1">
    <g
       transform="translate(189.10714,-330.17849)"
       id="g4417">
      <rect
         inkscape:export-ydpi="4.9499998"
         inkscape:export-xdpi="4.9499998"
         y="652.36212"
         x="1.4257813e-006"
         height="400"
         width="400"
         id="rect3336-82"
         style="fill:none;fill-rule:evenodd;stroke:none;stroke-width:1px;stroke-linecap:butt;stroke-linejoin:miter;stroke-opacity:1" />
      <path
         inkscape:connector-curvature="0"
         id="rect4173-42"
         transform="translate(0,652.36214)"
         d="m 35.376953,18.183594 c -4.41646,-0.0972 -8.296477,1.592623 -11.248047,4.283203 -3.79488,3.45932 -6.052902,8.671946 -5.945312,14.347656 l 2.648437,139.716797 c 0.0719,4.56098 6.141448,10.5831 10.392578,14.84961 l 96.214841,95.91797 0,-123.67774 c 0,-19.73237 16.44732,-36.17968 36.17969,-36.17968 l 123.53906,0 -96.35156,-97.042972 c -3.96901,-3.95673 -9.26212,-8.897149 -14.42773,-9.111329 L 35.376953,18.183594 Z M 63.630859,36.359375 A 27.27,27.269978 0 0 1 90.900391,63.630859 27.27,27.269978 0 0 1 63.630859,90.900391 27.27,27.269978 0 0 1 36.359375,63.630859 27.27,27.269978 0 0 1 63.630859,36.359375 Z M 163.375,163.37695 c 0.006,-0.006 0.0644,0.0386 0.0644,0.24414 l 0,159.56641 52.17774,52.01562 c 8.79685,8.76961 22.96096,8.76961 31.75781,0 L 375.19922,247.77344 c 8.7969,-8.7696 8.7517,-22.84375 0,-31.65821 l -52.29883,-52.67382 -159.28125,0 c -0.20553,0 -0.2506,-0.058 -0.24414,-0.0645 z"
         style="opacity:1;fill:url(#linearGradient4344);fill-opacity:1;stroke:none;stroke-width:23;stroke-linecap:butt;stroke-linejoin:round;stroke-miterlimit:4;stroke-dasharray:none;stroke-opacity:1" />
      <rect
         ry="18.180002"
         y="797.80206"
         x="145.44"
         height="254.56007"
         width="254.56"
         id="rect4407"
         style="color:#000000;clip-rule:nonzero;display:inline;overflow:visible;visibility:visible;opacity:1;isolation:auto;mix-blend-mode:normal;color-interpolation:sRGB;color-interpolation-filters:linearRGB;solid-color:#000000;solid-opacity:1;fill:#99b000;fill-opacity:1;fill-rule:nonzero;stroke:none;stroke-width:36;stroke-linecap:butt;stroke-linejoin:round;stroke-miterlimit:4;stroke-dasharray:none;stroke-dashoffset:0;stroke-opacity:1;color-rendering:auto;image-rendering:auto;shape-rendering:auto;text-rendering:auto;enable-background:accumulate" />
      <path
         sodipodi:nodetypes="ssssscccsccccccscscc"
         inkscape:connector-curvature="0"
         id="path2176"
         d="m 272.94428,821.1656 c -21.26095,3e-5 -38.49634,17.2685 -38.49642,38.57026 5e-5,21.30179 17.23545,38.57027 38.49642,38.57031 21.26096,-3e-5 38.49637,-17.26852 38.49642,-38.57031 -6e-5,-21.30177 -17.23547,-38.57024 -38.49642,-38.57026 z m -23.0011,85.76538 c -0.0713,0.0627 -0.13663,0.13131 -0.21012,0.19245 l -3.96718,2.149 c -25.87787,15.32978 -43.88654,45.24497 -43.88654,88.42528 0,9.27469 0.84623,18.26099 2.42461,26.81019 2.34125,5.2375 8.22324,9.0764 15.27167,9.5779 l 0,0.057 104.75998,0 0,-0.01 c 7.91118,-0.1117 14.57445,-4.4159 16.81317,-10.3175 1.49802,-8.3433 2.29877,-17.0966 2.29877,-26.1236 0,-45.20548 -20.23175,-76.54832 -48.04927,-90.43491 -6.64147,3.72888 -14.29806,5.86752 -22.43942,5.86752 -8.37869,0 -16.24234,-2.26523 -23.01567,-6.19827 z"
         style="fill:#ffffff;fill-opacity:1;stroke:none;stroke-width:41.15159225;stroke-linecap:round;stroke-linejoin:round;stroke-opacity:1" />
    </g>
  </g>
</svg>
