<?xml version="1.0" encoding="UTF-8" standalone="no"?>
<!-- Created with Inkscape (http://www.inkscape.org/) -->

<svg
   xmlns:dc="http://purl.org/dc/elements/1.1/"
   xmlns:cc="http://creativecommons.org/ns#"
   xmlns:rdf="http://www.w3.org/1999/02/22-rdf-syntax-ns#"
   xmlns:svg="http://www.w3.org/2000/svg"
   xmlns="http://www.w3.org/2000/svg"
   xmlns:xlink="http://www.w3.org/1999/xlink"
   xmlns:sodipodi="http://sodipodi.sourceforge.net/DTD/sodipodi-0.dtd"
   xmlns:inkscape="http://www.inkscape.org/namespaces/inkscape"
   width="210mm"
   height="297mm"
   viewBox="0 0 744.09448819 1052.3622047"
   id="svg2"
   version="1.1"
   inkscape:version="0.91 r13725"
   inkscape:export-xdpi="7.1999736"
   inkscape:export-ydpi="7.1999736"
   sodipodi:docname="attribute-other.svg"
   inkscape:export-filename="C:\Users\johannes\Documents\Arbeit\RRZE\github3\bicons\32x32\emblems\attribute-other.png">
  <defs
     id="defs4">
    <linearGradient
       inkscape:collect="always"
       xlink:href="#linearGradient4321"
       id="linearGradient4209"
       x1="300"
       y1="632.36218"
       x2="470"
       y2="452.36221"
       gradientUnits="userSpaceOnUse"
       gradientTransform="matrix(0.95017134,0,0,0.94722958,19.69325,27.076735)" />
    <linearGradient
       id="linearGradient4321"
       inkscape:collect="always">
      <stop
         id="stop4323"
         offset="0"
         style="stop-color:#4e505d;stop-opacity:1;" />
      <stop
         id="stop4325"
         offset="1"
         style="stop-color:#7a8597;stop-opacity:1" />
    </linearGradient>
  </defs>
  <sodipodi:namedview
     id="base"
     pagecolor="#ffffff"
     bordercolor="#666666"
     borderopacity="1.0"
     inkscape:pageopacity="0.0"
     inkscape:pageshadow="2"
     inkscape:zoom="0.72645548"
     inkscape:cx="854.97743"
     inkscape:cy="442.49338"
     inkscape:document-units="px"
     inkscape:current-layer="layer1"
     showgrid="false"
     showguides="true"
     inkscape:guide-bbox="true"
     inkscape:window-width="1600"
     inkscape:window-height="837"
     inkscape:window-x="-4"
     inkscape:window-y="-4"
     inkscape:window-maximized="1"
     inkscape:snap-bbox="true"
     inkscape:bbox-paths="true"
     inkscape:bbox-nodes="true"
     inkscape:snap-nodes="false">
    <sodipodi:guide
       position="315.53572,730.17859"
       orientation="0,1"
       id="guide3338" />
    <sodipodi:guide
       position="351.25,330.17858"
       orientation="0,1"
       id="guide3340" />
    <sodipodi:guide
       position="189.10714,408.8393"
       orientation="1,0"
       id="guide3344" />
    <inkscape:grid
       type="xygrid"
       id="grid3440" />
    <sodipodi:guide
       position="0,0"
       orientation="0,1"
       id="guide3405" />
    <sodipodi:guide
       position="0,0"
       orientation="0,1"
       id="guide3409" />
    <sodipodi:guide
       position="589.04521,378.30213"
       orientation="1,0"
       id="guide3411" />
  </sodipodi:namedview>
  <metadata
     id="metadata7">
    <rdf:RDF>
      <cc:Work
         rdf:about="">
        <dc:format>image/svg+xml</dc:format>
        <dc:type
           rdf:resource="http://purl.org/dc/dcmitype/StillImage" />
        <dc:title>attribute other</dc:title>
        <dc:date>June 2015</dc:date>
        <dc:creator>
          <cc:Agent>
            <dc:title>Johannes Hechler</dc:title>
          </cc:Agent>
        </dc:creator>
        <dc:rights>
          <cc:Agent>
            <dc:title>Johannes Hechler</dc:title>
          </cc:Agent>
        </dc:rights>
        <dc:publisher>
          <cc:Agent>
            <dc:title>RRZE</dc:title>
          </cc:Agent>
        </dc:publisher>
        <dc:contributor>
          <cc:Agent>
            <dc:title>Ute Weber, Hendrik Eggers, Joanna Barbach</dc:title>
          </cc:Agent>
        </dc:contributor>
        <dc:subject>
          <rdf:Bag>
            <rdf:li>attribute</rdf:li>
            <rdf:li>user</rdf:li>
            <rdf:li>other</rdf:li>
            <rdf:li>misc.</rdf:li>
            <rdf:li />
          </rdf:Bag>
        </dc:subject>
        <cc:license
           rdf:resource="http://creativecommons.org/licenses/by-sa/3.0/" />
      </cc:Work>
      <cc:License
         rdf:about="http://creativecommons.org/licenses/by-sa/3.0/">
        <cc:permits
           rdf:resource="http://creativecommons.org/ns#Reproduction" />
        <cc:permits
           rdf:resource="http://creativecommons.org/ns#Distribution" />
        <cc:requires
           rdf:resource="http://creativecommons.org/ns#Notice" />
        <cc:requires
           rdf:resource="http://creativecommons.org/ns#Attribution" />
        <cc:permits
           rdf:resource="http://creativecommons.org/ns#DerivativeWorks" />
        <cc:requires
           rdf:resource="http://creativecommons.org/ns#ShareAlike" />
      </cc:License>
    </rdf:RDF>
  </metadata>
  <g
     inkscape:label="Ebene 1"
     inkscape:groupmode="layer"
     id="layer1">
    <g
       id="g4200">
      <rect
         inkscape:export-ydpi="4.9499998"
         inkscape:export-xdpi="4.9499998"
         y="322.18362"
         x="189.10715"
         height="400"
         width="400"
         id="rect3336"
         style="fill:none;fill-rule:evenodd;stroke:none;stroke-width:1px;stroke-linecap:butt;stroke-linejoin:miter;stroke-opacity:1" />
      <path
         id="rect4173"
         d="M 224.48438 340.36719 C 220.06791 340.26999 216.1879 341.95981 213.23633 344.65039 C 209.44145 348.10971 207.18343 353.32234 207.29102 358.99805 L 209.93945 498.71484 C 210.01135 503.27582 216.0809 509.29794 220.33203 513.56445 L 404.72461 697.38672 C 405.87484 698.53339 407.11798 699.52624 408.42773 700.37305 C 407.7087 693.69049 407.32617 686.8608 407.32617 679.9082 C 407.32617 628.26491 426.91665 582.31064 460.35938 558.47852 C 450.324 547.26046 444.14243 532.55443 444.14258 516.45508 C 444.14234 489.89995 460.82918 467.02492 484.19922 457.61523 L 379.91406 352.58203 C 375.94505 348.6253 370.65194 343.68488 365.48633 343.4707 L 224.48438 340.36719 z M 252.73828 358.54297 A 27.27 27.269978 0 0 1 280.00781 385.81445 A 27.27 27.269978 0 0 1 252.73828 413.08398 A 27.27 27.269978 0 0 1 225.4668 385.81445 A 27.27 27.269978 0 0 1 252.73828 358.54297 z M 507.82031 488.02734 C 491.72402 488.02689 479.14244 500.59868 479.14258 516.45508 C 479.14244 532.31148 491.72402 544.88327 507.82031 544.88281 C 523.9161 544.88259 536.49624 532.31099 536.49609 516.45508 C 536.49612 514.02245 536.19814 511.66831 535.63867 509.42383 L 515.34766 488.98828 C 512.95633 488.36398 510.43628 488.02738 507.82031 488.02734 z M 566.49414 540.85352 C 563.59237 547.65993 559.53949 553.87771 554.57227 559.25195 C 558.43258 562.06529 562.09644 565.19017 565.57031 568.58008 C 572.34441 560.62253 572.62615 549.16338 566.49414 540.85352 z M 482.11133 586.26758 C 460.78813 600.9472 442.32617 636.6652 442.32617 679.9082 C 442.32617 683.70547 442.49438 687.4337 442.78516 691.10352 L 540.56445 593.625 C 537.89432 590.92095 535.13865 588.53813 532.32812 586.52734 C 524.59154 589.42935 516.24765 591.11719 507.55273 591.11719 C 498.60667 591.11719 490.03426 589.3313 482.11133 586.26758 z "
         style="opacity:1;fill:url(#linearGradient4209);fill-opacity:1;stroke:none;stroke-width:23;stroke-linecap:butt;stroke-linejoin:round;stroke-miterlimit:4;stroke-dasharray:none;stroke-opacity:1" />
      <path
         id="path2176"
         d="m 507.8206,470.52739 a 46.176422,45.92733 0 0 0 -46.17773,45.92773 46.176422,45.92733 0 0 0 46.17773,45.92774 46.176422,45.92733 0 0 0 46.17578,-45.92774 46.176422,45.92733 0 0 0 -46.17578,-45.92773 z m -26.9668,95.90039 c -0.0826,0.0731 -0.15888,0.15172 -0.24414,0.22265 l -4.60156,2.49415 c -30.01821,17.78249 -51.18164,60.67457 -51.18164,110.76367 0,10.75847 0.98157,21.18257 2.8125,31.09961 2.71583,6.07555 9.54066,10.52776 17.7168,11.10937 l 0,0.0664 121.51953,0 0,-0.006 c 9.17692,-0.12954 16.90699,-5.1231 19.5039,-11.96875 1.73768,-9.67824 2.66602,-19.8315 2.66602,-30.30274 0,-52.43814 -23.19668,-96.98727 -55.46484,-113.0957 -7.70407,4.32552 -16.58339,6.80664 -26.02735,6.80664 -9.71922,0 -18.84219,-2.6271 -26.69922,-7.18945 z"
         style="fill:#99b000;fill-opacity:1;stroke:none;stroke-width:41.15159225;stroke-linecap:round;stroke-linejoin:round;stroke-opacity:1"
         inkscape:connector-curvature="0" />
    </g>
  </g>
</svg>
