<?xml version="1.0" encoding="UTF-8" standalone="no"?>
<!-- Created with Inkscape (http://www.inkscape.org/) -->

<svg
   xmlns:dc="http://purl.org/dc/elements/1.1/"
   xmlns:cc="http://creativecommons.org/ns#"
   xmlns:rdf="http://www.w3.org/1999/02/22-rdf-syntax-ns#"
   xmlns:svg="http://www.w3.org/2000/svg"
   xmlns="http://www.w3.org/2000/svg"
   xmlns:xlink="http://www.w3.org/1999/xlink"
   xmlns:sodipodi="http://sodipodi.sourceforge.net/DTD/sodipodi-0.dtd"
   xmlns:inkscape="http://www.inkscape.org/namespaces/inkscape"
   width="210mm"
   height="297mm"
   viewBox="0 0 744.09448819 1052.3622047"
   id="svg2"
   version="1.1"
   inkscape:version="0.91 r13725"
   inkscape:export-xdpi="7.1999736"
   inkscape:export-ydpi="7.1999736"
   sodipodi:docname="attribute-security.svg"
   inkscape:export-filename="C:\Users\johannes\Documents\Arbeit\RRZE\github3\bicons\32x32\emblems\attribute-security.png">
  <defs
     id="defs4">
    <linearGradient
       inkscape:collect="always"
       xlink:href="#linearGradient4321"
       id="linearGradient4209"
       x1="300"
       y1="632.36218"
       x2="470"
       y2="452.36221"
       gradientUnits="userSpaceOnUse"
       gradientTransform="matrix(0.95017134,0,0,0.94722958,-251.0316,-37.412895)" />
    <linearGradient
       id="linearGradient4321"
       inkscape:collect="always">
      <stop
         id="stop4323"
         offset="0"
         style="stop-color:#4e505d;stop-opacity:1;" />
      <stop
         id="stop4325"
         offset="1"
         style="stop-color:#7a8597;stop-opacity:1" />
    </linearGradient>
  </defs>
  <sodipodi:namedview
     id="base"
     pagecolor="#ffffff"
     bordercolor="#666666"
     borderopacity="1.0"
     inkscape:pageopacity="0.0"
     inkscape:pageshadow="2"
     inkscape:zoom="0.72645549"
     inkscape:cx="393.76757"
     inkscape:cy="539.0216"
     inkscape:document-units="px"
     inkscape:current-layer="layer1"
     showgrid="false"
     showguides="true"
     inkscape:guide-bbox="true"
     inkscape:window-width="1366"
     inkscape:window-height="721"
     inkscape:window-x="-4"
     inkscape:window-y="-4"
     inkscape:window-maximized="1"
     inkscape:snap-bbox="true"
     inkscape:bbox-paths="true"
     inkscape:bbox-nodes="true"
     inkscape:snap-nodes="false">
    <sodipodi:guide
       position="315.53572,730.17859"
       orientation="0,1"
       id="guide3338" />
    <sodipodi:guide
       position="351.25,330.17858"
       orientation="0,1"
       id="guide3340" />
    <sodipodi:guide
       position="189.10714,408.8393"
       orientation="1,0"
       id="guide3344" />
    <inkscape:grid
       type="xygrid"
       id="grid3440" />
    <sodipodi:guide
       position="589.04521,378.30213"
       orientation="1,0"
       id="guide3411" />
  </sodipodi:namedview>
  <metadata
     id="metadata7">
    <rdf:RDF>
      <cc:Work
         rdf:about="">
        <dc:format>image/svg+xml</dc:format>
        <dc:type
           rdf:resource="http://purl.org/dc/dcmitype/StillImage" />
        <dc:title>attribute security</dc:title>
        <dc:date>June 2015</dc:date>
        <dc:creator>
          <cc:Agent>
            <dc:title>Johannes Hechler</dc:title>
          </cc:Agent>
        </dc:creator>
        <dc:rights>
          <cc:Agent>
            <dc:title>Johannes Hechler</dc:title>
          </cc:Agent>
        </dc:rights>
        <dc:publisher>
          <cc:Agent>
            <dc:title>RRZE</dc:title>
          </cc:Agent>
        </dc:publisher>
        <dc:contributor>
          <cc:Agent>
            <dc:title>Ute Weber, Hendrik Eggers, Joanna Barbach</dc:title>
          </cc:Agent>
        </dc:contributor>
        <dc:subject>
          <rdf:Bag>
            <rdf:li>attribute</rdf:li>
            <rdf:li>security</rdf:li>
            <rdf:li>locked</rdf:li>
            <rdf:li>secure</rdf:li>
          </rdf:Bag>
        </dc:subject>
        <cc:license
           rdf:resource="http://creativecommons.org/licenses/by-sa/3.0/" />
      </cc:Work>
      <cc:License
         rdf:about="http://creativecommons.org/licenses/by-sa/3.0/">
        <cc:permits
           rdf:resource="http://creativecommons.org/ns#Reproduction" />
        <cc:permits
           rdf:resource="http://creativecommons.org/ns#Distribution" />
        <cc:requires
           rdf:resource="http://creativecommons.org/ns#Notice" />
        <cc:requires
           rdf:resource="http://creativecommons.org/ns#Attribution" />
        <cc:permits
           rdf:resource="http://creativecommons.org/ns#DerivativeWorks" />
        <cc:requires
           rdf:resource="http://creativecommons.org/ns#ShareAlike" />
      </cc:License>
    </rdf:RDF>
  </metadata>
  <g
     inkscape:label="Ebene 1"
     inkscape:groupmode="layer"
     id="layer1">
    <g
       id="g4176"
       transform="translate(270.72484,64.48966)">
      <rect
         inkscape:export-ydpi="4.9499998"
         inkscape:export-xdpi="4.9499998"
         y="257.69397"
         x="-81.617706"
         height="400"
         width="400"
         id="rect3336"
         style="fill:none;fill-rule:evenodd;stroke:none;stroke-width:1px;stroke-linecap:butt;stroke-linejoin:miter;stroke-opacity:1" />
      <path
         id="rect4173"
         d="m -46.240756,275.87759 c -4.41646,-0.0972 -8.296477,1.59262 -11.248047,4.2832 -3.79488,3.45932 -6.052902,8.67195 -5.945312,14.34766 l 2.648437,139.7168 c 0.0719,4.56098 6.141448,10.5831 10.392578,14.84961 l 157.22656,156.74023 0,-60.45507 c 0,-8.73528 3.87252,-17.99356 9.99414,-24.11524 a 18.0018,18.0018 0 0 1 0.0918,-0.0898 c 3.14648,-3.10223 7.11686,-5.58998 11.41016,-7.30664 l 0,-16.64258 c 0,-24.86018 9.76041,-47.95629 27.51171,-65.60156 17.74616,-17.64021 40.8848,-27.30274 65.78907,-27.30274 0.99986,0 1.99629,0.0197 2.99023,0.0508 L 109.18893,288.09243 c -3.96901,-3.95673 -9.262118,-8.89715 -14.427728,-9.11133 l -141.001958,-3.10351 z m 28.253906,18.17578 A 27.27,27.269978 0 0 1 9.2826822,321.32485 27.27,27.269978 0 0 1 -17.98685,348.59438 27.27,27.269978 0 0 1 -45.258334,321.32485 27.27,27.269978 0 0 1 -17.98685,294.05337 Z m 239.61719,179.5293 c -7.62838,0 -10.55785,1.35248 -16.58789,7.31641 -5.94847,5.92083 -7.25586,8.73999 -7.25586,16.30664 l 0,14.08789 47.6875,0 0,-13.57422 c -0.32217,-8.18531 -1.59476,-11.1464 -7.31836,-16.83984 a 18.0018,18.0018 0 0 0 0,-0.002 c -5.97897,-5.94789 -8.88974,-7.29492 -16.52539,-7.29492 z m -58.56641,62.32617 a 18.0018,18.0018 0 0 1 -16.73437,11.38477 l -3.4961,0 0,91.04297 c 7.79446,2.57286 16.70116,0.76394 22.92383,-5.43946 l 85.86914,-85.60351 -71.83984,0 a 18.0018,18.0018 0 0 1 -16.72266,-11.38477 z"
         style="opacity:1;fill:url(#linearGradient4209);fill-opacity:1;stroke:none;stroke-width:23;stroke-linecap:butt;stroke-linejoin:round;stroke-miterlimit:4;stroke-dasharray:none;stroke-opacity:1"
         inkscape:connector-curvature="0" />
      <path
         style="fill:#99b000;fill-opacity:1;fill-rule:evenodd;stroke:none"
         d="m 313.705,533.9724 c -3.13391,-3.0898 -6.97404,-4.6788 -11.43211,-4.6788 l -5.38501,0 0,-32.0893 c 0,-20.5247 -7.37129,-38.1362 -22.15798,-52.8345 -14.78669,-14.6983 -32.486,-22.0695 -53.09911,-22.0695 -20.61309,0 -38.31282,7.3712 -53.0994,22.0695 -14.78663,14.6983 -22.20199,32.3098 -22.20199,52.8345 l 0,32.0893 -5.38495,0 c -4.45802,0 -8.25402,1.589 -11.38789,4.6788 -3.13387,3.1339 -4.72289,6.9299 -4.72289,11.3874 l 0,96.31156 c 0,4.4581 1.58902,8.254 4.72289,11.3438 3.13387,3.1339 6.92987,4.6788 11.38789,4.6788 l 161.32844,0 c 4.45807,0 8.2982,-1.5449 11.43211,-4.6788 3.13389,-3.0898 4.67876,-6.8857 4.67876,-11.3438 l 0,-96.31156 c 0,-4.4575 -1.54487,-8.2535 -4.67876,-11.3874 z m -50.23064,-4.6788 -83.68754,0 0,-32.0893 c 0,-11.8294 4.19308,-20.7453 12.57954,-29.0876 8.43065,-8.3423 17.39094,-12.5355 29.26443,-12.5355 11.87352,0 20.8338,4.1932 29.21969,12.5355 8.38649,8.3423 12.18248,17.2582 12.62388,29.0876 z"
         id="path4168"
         inkscape:connector-curvature="0" />
    </g>
  </g>
</svg>
