<?xml version="1.0" encoding="UTF-8" standalone="no"?>
<!-- Created with Inkscape (http://www.inkscape.org/) -->

<svg
   xmlns:dc="http://purl.org/dc/elements/1.1/"
   xmlns:cc="http://creativecommons.org/ns#"
   xmlns:rdf="http://www.w3.org/1999/02/22-rdf-syntax-ns#"
   xmlns:svg="http://www.w3.org/2000/svg"
   xmlns="http://www.w3.org/2000/svg"
   xmlns:xlink="http://www.w3.org/1999/xlink"
   xmlns:sodipodi="http://sodipodi.sourceforge.net/DTD/sodipodi-0.dtd"
   xmlns:inkscape="http://www.inkscape.org/namespaces/inkscape"
   width="210mm"
   height="297mm"
   viewBox="0 0 744.09448819 1052.3622047"
   id="svg2"
   version="1.1"
   inkscape:version="0.91 r13725"
   inkscape:export-xdpi="7.1999998"
   inkscape:export-ydpi="7.1999998"
   sodipodi:docname="attribute-linkage.svg"
   inkscape:export-filename="C:\Users\johannes\Documents\Arbeit\RRZE\github3\bicons\32x32\emblems\attribute-linkage.png">
  <defs
     id="defs4">
    <linearGradient
       id="linearGradient2224">
      <stop
         style="stop-color:#7c7c7c;stop-opacity:1;"
         offset="0"
         id="stop4233" />
      <stop
         style="stop-color:#b8b8b8;stop-opacity:1;"
         offset="1"
         id="stop4235" />
    </linearGradient>
    <linearGradient
       id="linearGradient4237">
      <stop
         id="stop2226"
         offset="0"
         style="stop-color:#7c7c7c;stop-opacity:1;" />
      <stop
         id="stop2228"
         offset="1"
         style="stop-color:#b8b8b8;stop-opacity:1;" />
    </linearGradient>
    <linearGradient
       id="linearGradient15218">
      <stop
         id="stop15220"
         offset="0"
         style="stop-color:#eeeeef;stop-opacity:1;" />
      <stop
         id="stop2736"
         offset="0.59928656"
         style="stop-color:#d3d7cf;stop-opacity:1;" />
      <stop
         id="stop2738"
         offset="0.82758623"
         style="stop-color:#ffffff;stop-opacity:1;" />
      <stop
         id="stop15222"
         offset="1"
         style="stop-color:#d3d7cf;stop-opacity:1;" />
    </linearGradient>
    <pattern
       y="0"
       x="0"
       height="6"
       width="6"
       patternUnits="userSpaceOnUse"
       id="EMFhbasepattern" />
    <pattern
       y="0"
       x="0"
       height="6"
       width="6"
       patternUnits="userSpaceOnUse"
       id="EMFhbasepattern-5" />
    <linearGradient
       inkscape:collect="always"
       xlink:href="#linearGradient4321"
       id="linearGradient4326"
       gradientUnits="userSpaceOnUse"
       gradientTransform="matrix(0.95017134,0,0,0.94722958,295.39408,93.933308)"
       x1="300"
       y1="632.36218"
       x2="470"
       y2="452.36221" />
    <linearGradient
       id="linearGradient4321"
       inkscape:collect="always">
      <stop
         id="stop4323"
         offset="0"
         style="stop-color:#4e505d;stop-opacity:1;" />
      <stop
         id="stop4325"
         offset="1"
         style="stop-color:#7a8597;stop-opacity:1" />
    </linearGradient>
  </defs>
  <sodipodi:namedview
     id="base"
     pagecolor="#ffffff"
     bordercolor="#666666"
     borderopacity="1.0"
     inkscape:pageopacity="0.0"
     inkscape:pageshadow="2"
     inkscape:zoom="1.0273632"
     inkscape:cx="527.6211"
     inkscape:cy="497.93118"
     inkscape:document-units="px"
     inkscape:current-layer="layer1"
     showgrid="false"
     showguides="true"
     inkscape:guide-bbox="true"
     inkscape:window-width="1366"
     inkscape:window-height="721"
     inkscape:window-x="-4"
     inkscape:window-y="-4"
     inkscape:window-maximized="1"
     inkscape:snap-bbox="true"
     inkscape:bbox-paths="true"
     inkscape:bbox-nodes="true"
     inkscape:snap-nodes="false">
    <sodipodi:guide
       position="315.53572,730.17859"
       orientation="0,1"
       id="guide3338" />
    <sodipodi:guide
       position="351.25,330.17858"
       orientation="0,1"
       id="guide3340" />
    <sodipodi:guide
       position="189.10714,408.8393"
       orientation="1,0"
       id="guide3344" />
    <inkscape:grid
       type="xygrid"
       id="grid3440" />
    <sodipodi:guide
       position="589.04521,378.30213"
       orientation="1,0"
       id="guide3411" />
  </sodipodi:namedview>
  <metadata
     id="metadata7">
    <rdf:RDF>
      <cc:Work
         rdf:about="">
        <dc:format>image/svg+xml</dc:format>
        <dc:type
           rdf:resource="http://purl.org/dc/dcmitype/StillImage" />
        <dc:title>attribute linkage</dc:title>
        <dc:date>June 2015</dc:date>
        <dc:creator>
          <cc:Agent>
            <dc:title>Johannes Hechler</dc:title>
          </cc:Agent>
        </dc:creator>
        <dc:rights>
          <cc:Agent>
            <dc:title>Johannes Hechler</dc:title>
          </cc:Agent>
        </dc:rights>
        <dc:publisher>
          <cc:Agent>
            <dc:title>RRZE</dc:title>
          </cc:Agent>
        </dc:publisher>
        <dc:contributor>
          <cc:Agent>
            <dc:title>Ute Weber, Hendrik Eggers</dc:title>
          </cc:Agent>
        </dc:contributor>
      </cc:Work>
    </rdf:RDF>
  </metadata>
  <g
     inkscape:label="Ebene 1"
     inkscape:groupmode="layer"
     id="layer1">
    <g
       id="g4208"
       transform="translate(-275.70084,-66.856562)">
      <rect
         inkscape:export-ydpi="4.9499998"
         inkscape:export-xdpi="4.9499998"
         y="389.04019"
         x="464.80798"
         height="400"
         width="400"
         id="rect3336-9"
         style="fill:none;fill-rule:evenodd;stroke:none;stroke-width:1px;stroke-linecap:butt;stroke-linejoin:miter;stroke-opacity:1" />
      <path
         id="rect4173-3"
         d="m 500.18492,407.22379 c -4.41646,-0.0972 -8.29647,1.59262 -11.24804,4.2832 -3.79488,3.45932 -6.05291,8.67195 -5.94532,14.34766 l 2.64844,139.7168 c 0.0719,4.56098 6.14145,10.5831 10.39258,14.84961 l 184.39258,183.82226 c 8.79685,8.76962 22.96096,8.76961 31.75781,0 l 6.82227,-6.80078 -12.36719,-12.36718 a 18.0018,18.0018 0 0 1 -0.0215,-0.0215 c -13.8665,-13.91645 -19.3844,-33.16103 -16.63281,-51.35742 -18.20182,2.74184 -37.45245,-2.79232 -51.36133,-16.69531 l -44.40429,-44.34571 a 18.0018,18.0018 0 0 1 -0.01,-0.008 c -23.22016,-23.22021 -23.21844,-61.40309 0.002,-84.62304 l 29.58204,-29.58399 C 635.41172,506.82093 650.77145,501.0107 666.132,501.0107 l 0,-0.002 c 15.36055,0 30.72223,5.81024 42.3418,17.42969 l 44.3457,44.3457 c 13.90771,13.9076 19.44214,33.17357 16.68359,51.38477 18.21433,-2.75284 37.4835,2.78206 51.40039,16.69921 l 12.51368,12.51368 6.58984,-6.56836 c 8.7969,-8.7696 8.7517,-22.84375 0,-31.65821 L 655.61461,419.43863 c -3.96901,-3.95673 -9.26212,-8.89715 -14.42773,-9.11133 l -141.00196,-3.10351 z m 28.25391,18.17578 a 27.27,27.269978 0 0 1 27.26953,27.27148 27.27,27.269978 0 0 1 -27.26953,27.26954 27.27,27.269978 0 0 1 -27.27149,-27.26954 27.27,27.269978 0 0 1 27.27149,-27.27148 z"
         style="opacity:1;fill:url(#linearGradient4326);fill-opacity:1;stroke:none;stroke-width:23;stroke-linecap:butt;stroke-linejoin:round;stroke-miterlimit:4;stroke-dasharray:none;stroke-opacity:1"
         inkscape:connector-curvature="0" />
      <path
         style="fill:#99b000;fill-opacity:1;fill-rule:evenodd;stroke:none;stroke-width:0.99941987;stroke-miterlimit:4;stroke-dasharray:none"
         d="m 852.52154,747.11116 c 16.38387,-16.38396 16.38387,-42.78357 0,-59.16757 l -44.34652,-44.3461 c -16.15219,-16.1525 -41.97293,-16.384 -58.41483,-0.7526 l 18.23661,18.2937 c 8.04726,-4.7473 18.4682,-3.7631 25.3576,3.1263 l 38.49914,38.4995 c 8.16298,8.1631 8.16298,21.3629 0,29.58391 l -23.67852,23.67856 c -8.2207,8.1623 -21.42054,8.1623 -29.58361,0 l -38.49953,-38.49947 c -6.88939,-6.8894 -7.93148,-17.3103 -3.18416,-25.3576 l -18.23587,-18.2366 c -15.63137,16.4419 -15.3998,42.2626 0.69474,58.41511 l 44.40395,44.40386 c 16.38401,16.384 42.78368,16.384 59.16738,0 l 29.58362,-29.641 z m -85.7984,-56.15717 c 4.92099,-4.921 6.54203,-11.2893 0.8684,-16.905 l -58.53008,-58.3564 c -5.67362,-5.6736 -11.40513,-3.7053 -16.32613,1.2158 -4.92098,4.9209 -7.12096,10.884 -1.44735,16.5577 l 58.53011,58.2985 c 5.6736,5.6736 11.98404,4.1104 16.90505,-0.8106 z m -25.93652,-57.0248 c 15.68927,-16.4419 15.4577,-42.2626 -0.69474,-58.4149 l -44.34605,-44.34647 c -16.44191,-16.44175 -42.78369,-16.44175 -59.22559,0 l -29.58308,29.58357 c -16.384,16.3837 -16.384,42.7834 0,59.1674 l 44.40394,44.3461 c 16.15244,16.1524 41.97318,16.384 58.41509,0.7526 l -18.23663,-18.2358 c -8.04727,4.6894 -18.46819,3.7052 -25.41549,-3.1842 l -38.44163,-38.4995 c -8.16228,-8.1631 -8.16228,-21.3629 0,-29.5837 l 23.67866,-23.67846 c 8.22096,-8.16298 21.3629,-8.16298 29.58385,0 l 38.44164,38.49916 c 6.94729,6.8894 7.93148,17.3103 3.18418,25.3576 l 18.23585,18.2366 z"
         id="path4202"
         inkscape:connector-curvature="0" />
    </g>
  </g>
</svg>
