<?xml version="1.0" encoding="UTF-8" standalone="no"?>
<!-- Created with Inkscape (http://www.inkscape.org/) -->

<svg
   xmlns:dc="http://purl.org/dc/elements/1.1/"
   xmlns:cc="http://creativecommons.org/ns#"
   xmlns:rdf="http://www.w3.org/1999/02/22-rdf-syntax-ns#"
   xmlns:svg="http://www.w3.org/2000/svg"
   xmlns="http://www.w3.org/2000/svg"
   xmlns:xlink="http://www.w3.org/1999/xlink"
   xmlns:sodipodi="http://sodipodi.sourceforge.net/DTD/sodipodi-0.dtd"
   xmlns:inkscape="http://www.inkscape.org/namespaces/inkscape"
   width="210mm"
   height="297mm"
   viewBox="0 0 744.09448819 1052.3622047"
   id="svg2"
   version="1.1"
   inkscape:version="0.91 r13725"
   inkscape:export-xdpi="4.7924247"
   inkscape:export-ydpi="4.7924247"
   sodipodi:docname="attribute-linkage.svg"
   inkscape:export-filename="C:\Users\johannes\Documents\Arbeit\RRZE\github3\bicons\22x22\emblems\attribute-linkage.png">
  <defs
     id="defs4">
    <linearGradient
       id="linearGradient2224">
      <stop
         style="stop-color:#7c7c7c;stop-opacity:1;"
         offset="0"
         id="stop4233" />
      <stop
         style="stop-color:#b8b8b8;stop-opacity:1;"
         offset="1"
         id="stop4235" />
    </linearGradient>
    <linearGradient
       id="linearGradient4237">
      <stop
         id="stop2226"
         offset="0"
         style="stop-color:#7c7c7c;stop-opacity:1;" />
      <stop
         id="stop2228"
         offset="1"
         style="stop-color:#b8b8b8;stop-opacity:1;" />
    </linearGradient>
    <linearGradient
       id="linearGradient15218">
      <stop
         id="stop15220"
         offset="0"
         style="stop-color:#eeeeef;stop-opacity:1;" />
      <stop
         id="stop2736"
         offset="0.59928656"
         style="stop-color:#d3d7cf;stop-opacity:1;" />
      <stop
         id="stop2738"
         offset="0.82758623"
         style="stop-color:#ffffff;stop-opacity:1;" />
      <stop
         id="stop15222"
         offset="1"
         style="stop-color:#d3d7cf;stop-opacity:1;" />
    </linearGradient>
    <pattern
       y="0"
       x="0"
       height="6"
       width="6"
       patternUnits="userSpaceOnUse"
       id="EMFhbasepattern" />
    <pattern
       y="0"
       x="0"
       height="6"
       width="6"
       patternUnits="userSpaceOnUse"
       id="EMFhbasepattern-5" />
    <linearGradient
       inkscape:collect="always"
       xlink:href="#linearGradient4203"
       id="linearGradient4209"
       x1="300"
       y1="632.36218"
       x2="470"
       y2="452.36221"
       gradientUnits="userSpaceOnUse" />
    <linearGradient
       inkscape:collect="always"
       id="linearGradient4203">
      <stop
         style="stop-color:#4e505d;stop-opacity:1;"
         offset="0"
         id="stop4205" />
      <stop
         style="stop-color:#7a8597;stop-opacity:1"
         offset="1"
         id="stop4207" />
    </linearGradient>
  </defs>
  <sodipodi:namedview
     id="base"
     pagecolor="#ffffff"
     bordercolor="#666666"
     borderopacity="1.0"
     inkscape:pageopacity="0.0"
     inkscape:pageshadow="2"
     inkscape:zoom="0.5136816"
     inkscape:cx="-56.337947"
     inkscape:cy="638.14363"
     inkscape:document-units="px"
     inkscape:current-layer="layer1"
     showgrid="false"
     showguides="true"
     inkscape:guide-bbox="true"
     inkscape:window-width="1366"
     inkscape:window-height="721"
     inkscape:window-x="-4"
     inkscape:window-y="-4"
     inkscape:window-maximized="1">
    <sodipodi:guide
       position="315.53572,730.17859"
       orientation="0,1"
       id="guide3338" />
    <sodipodi:guide
       position="351.25,330.17858"
       orientation="0,1"
       id="guide3340" />
    <sodipodi:guide
       position="189.10714,408.8393"
       orientation="1,0"
       id="guide3344" />
    <inkscape:grid
       type="xygrid"
       id="grid3440" />
    <sodipodi:guide
       position="589.04521,378.30213"
       orientation="1,0"
       id="guide3411" />
  </sodipodi:namedview>
  <metadata
     id="metadata7">
    <rdf:RDF>
      <cc:Work
         rdf:about="">
        <dc:format>image/svg+xml</dc:format>
        <dc:type
           rdf:resource="http://purl.org/dc/dcmitype/StillImage" />
        <dc:title>attribute linkage</dc:title>
        <dc:date>June 2015</dc:date>
        <dc:creator>
          <cc:Agent>
            <dc:title>Johannes Hechler</dc:title>
          </cc:Agent>
        </dc:creator>
        <dc:rights>
          <cc:Agent>
            <dc:title>Johannes Hechler</dc:title>
          </cc:Agent>
        </dc:rights>
        <dc:publisher>
          <cc:Agent>
            <dc:title>RRZE</dc:title>
          </cc:Agent>
        </dc:publisher>
        <dc:contributor>
          <cc:Agent>
            <dc:title>Ute Weber, Hendrik Eggers</dc:title>
          </cc:Agent>
        </dc:contributor>
      </cc:Work>
    </rdf:RDF>
  </metadata>
  <g
     inkscape:label="Ebene 1"
     inkscape:groupmode="layer"
     id="layer1">
    <g
       id="g4179"
       style="opacity:0.97">
      <g
         transform="matrix(0.91463143,0,0,0.91463143,31.875583,44.749236)"
         id="g4180"
         style="">
        <path
           style="opacity:1;fill:url(#linearGradient4209);fill-opacity:1;stroke:none;stroke-width:23;stroke-linecap:butt;stroke-linejoin:round;stroke-miterlimit:4;stroke-dasharray:none;stroke-opacity:1"
           d="m 203.69255,335.26499 c -3.99389,3.65204 -6.37025,9.15617 -6.25702,15.14807 l 2.78744,147.50034 c 0.0757,4.81507 6.46347,11.17264 10.93754,15.67684 l 194.06245,194.06244 c 9.25817,9.25817 24.16485,9.25816 33.42302,0 L 573.17366,573.12499 c 9.25817,-9.25816 9.2106,-24.1175 0,-33.42302 L 379.11121,343.63952 c -4.17715,-4.17716 -9.74748,-9.3928 -15.18398,-9.61891 L 215.53096,330.7444 c -4.64806,-0.10262 -8.73205,1.68012 -11.83841,4.52059 z"
           id="rect4173"
           inkscape:connector-curvature="0"
           sodipodi:nodetypes="ssccssssccss" />
        <circle
           style="opacity:1;fill:#ffffff;fill-opacity:1;stroke:none;stroke-width:23;stroke-linecap:butt;stroke-linejoin:round;stroke-miterlimit:4;stroke-dasharray:none;stroke-opacity:1"
           id="path4201"
           cx="259.05005"
           cy="393.24844"
           r="30.684132" />
      </g>
      <rect
         inkscape:export-ydpi="4.9499998"
         inkscape:export-xdpi="4.9499998"
         y="322.27005"
         x="189.14485"
         height="400"
         width="400"
         id="rect3336"
         style="fill:none;fill-rule:evenodd;stroke:none;stroke-width:1px;stroke-linecap:butt;stroke-linejoin:miter;stroke-opacity:1" />
      <g
         transform="matrix(1.0456385,-0.07484384,0.07484384,1.0456385,-72.171446,1.9729856)"
         id="g4197"
         style="" />
      <g
         id="g4183"
         style="fill:#99b000;fill-opacity:1;stroke:#ffffff;stroke-width:50;stroke-linejoin:round;stroke-miterlimit:4;stroke-dasharray:none"
         transform="matrix(0,-0.42242976,0.42242976,0,325.7479,717.07153)" />
      <path
         inkscape:connector-curvature="0"
         id="path4174"
         d="m 570.16996,674.76247 c 16.38387,-16.38401 16.38387,-42.78369 0,-59.16769 l -44.34652,-44.34607 c -16.15219,-16.15244 -41.97293,-16.384 -58.41483,-0.75261 l 18.23661,18.29374 c 8.04726,-4.74731 18.4682,-3.76311 25.3576,3.12627 l 38.49914,38.49954 c 8.16298,8.16305 8.16298,21.36289 0,29.58385 l -23.67852,23.67865 c -8.2207,8.1623 -21.42054,8.1623 -29.58361,0 L 457.7403,645.17862 c -6.88939,-6.8894 -7.93148,-17.31032 -3.18416,-25.35758 L 436.32027,601.5844 c -15.63137,16.44191 -15.3998,42.26265 0.69474,58.41509 l 44.40395,44.40396 c 16.38401,16.38399 42.78368,16.38399 59.16738,0 l 29.58362,-29.64099 z m -85.7984,-56.1572 c 4.92099,-4.92101 6.54203,-11.28934 0.8684,-16.90505 L 426.70988,543.3438 c -5.67362,-5.67362 -11.40513,-3.70523 -16.32613,1.21578 -4.92098,4.92099 -7.12096,10.88408 -1.44735,16.5577 l 58.53011,58.29851 c 5.6736,5.67362 11.98404,4.11047 16.90505,-0.81052 z m -25.93652,-57.02485 c 15.68927,-16.44189 15.4577,-42.26264 -0.69474,-58.41485 l -44.34605,-44.34652 c -16.44191,-16.44175 -42.78369,-16.44175 -59.22559,0 l -29.58308,29.58362 c -16.384,16.3837 -16.384,42.78337 0,59.16738 l 44.40394,44.34606 c 16.15244,16.15244 41.97318,16.38401 58.41509,0.75263 l -18.23663,-18.23585 c -8.04727,4.68941 -18.46819,3.70521 -25.41549,-3.18418 L 345.31086,532.7492 c -8.16228,-8.16307 -8.16228,-21.3629 0,-29.58363 l 23.67866,-23.67851 c 8.22096,-8.16298 21.3629,-8.16298 29.58385,0 l 38.44164,38.49914 c 6.94729,6.8894 7.93148,17.31034 3.18418,25.3576 l 18.23585,18.23662 z"
         style="fill:#99b000;fill-opacity:1;fill-rule:evenodd;stroke:#ffffff;stroke-width:25;stroke-miterlimit:4;stroke-dasharray:none" />
      <path
         style="fill:#99b000;fill-opacity:1;fill-rule:evenodd;stroke:none;stroke-width:0.99941987;stroke-miterlimit:4;stroke-dasharray:none"
         d="m 570.16996,674.76247 c 16.38387,-16.38401 16.38387,-42.78369 0,-59.16769 l -44.34652,-44.34607 c -16.15219,-16.15244 -41.97293,-16.384 -58.41483,-0.75261 l 18.23661,18.29374 c 8.04726,-4.74731 18.4682,-3.76311 25.3576,3.12627 l 38.49914,38.49954 c 8.16298,8.16305 8.16298,21.36289 0,29.58385 l -23.67852,23.67865 c -8.2207,8.1623 -21.42054,8.1623 -29.58361,0 L 457.7403,645.17862 c -6.88939,-6.8894 -7.93148,-17.31032 -3.18416,-25.35758 L 436.32027,601.5844 c -15.63137,16.44191 -15.3998,42.26265 0.69474,58.41509 l 44.40395,44.40396 c 16.38401,16.38399 42.78368,16.38399 59.16738,0 l 29.58362,-29.64099 z m -85.7984,-56.1572 c 4.92099,-4.92101 6.54203,-11.28934 0.8684,-16.90505 L 426.70988,543.3438 c -5.67362,-5.67362 -11.40513,-3.70523 -16.32613,1.21578 -4.92098,4.92099 -7.12096,10.88408 -1.44735,16.5577 l 58.53011,58.29851 c 5.6736,5.67362 11.98404,4.11047 16.90505,-0.81052 z m -25.93652,-57.02485 c 15.68927,-16.44189 15.4577,-42.26264 -0.69474,-58.41485 l -44.34605,-44.34652 c -16.44191,-16.44175 -42.78369,-16.44175 -59.22559,0 l -29.58308,29.58362 c -16.384,16.3837 -16.384,42.78337 0,59.16738 l 44.40394,44.34606 c 16.15244,16.15244 41.97318,16.38401 58.41509,0.75263 l -18.23663,-18.23585 c -8.04727,4.68941 -18.46819,3.70521 -25.41549,-3.18418 L 345.31086,532.7492 c -8.16228,-8.16307 -8.16228,-21.3629 0,-29.58363 l 23.67866,-23.67851 c 8.22096,-8.16298 21.3629,-8.16298 29.58385,0 l 38.44164,38.49914 c 6.94729,6.8894 7.93148,17.31034 3.18418,25.3576 l 18.23585,18.23662 z"
         id="path4202"
         inkscape:connector-curvature="0" />
      <path
         inkscape:connector-curvature="0"
         id="path4175"
         d="m 393.72639,570.05955 6.32687,-2.43342 8.76029,-30.17433 26.76756,-4.86683 0,-5.35351 -48.1816,-48.66828 -8.76029,5.35351 -33.58111,31.63438 z"
         style="fill:#ffffff;fill-rule:evenodd;stroke:none;stroke-width:1px;stroke-linecap:butt;stroke-linejoin:miter;stroke-opacity:1" />
      <path
         inkscape:connector-curvature="0"
         id="path4177"
         d="m 458.94188,627.9748 29.20097,-3.89346 9.24697,-29.20097 21.41405,18.00726 -40.39468,39.90799 z"
         style="fill:#ffffff;fill-rule:evenodd;stroke:none;stroke-width:1px;stroke-linecap:butt;stroke-linejoin:miter;stroke-opacity:1" />
    </g>
  </g>
</svg>
