<?xml version="1.0" encoding="UTF-8" standalone="no"?>
<!-- Created with Inkscape (http://www.inkscape.org/) -->

<svg
   xmlns:dc="http://purl.org/dc/elements/1.1/"
   xmlns:cc="http://creativecommons.org/ns#"
   xmlns:rdf="http://www.w3.org/1999/02/22-rdf-syntax-ns#"
   xmlns:svg="http://www.w3.org/2000/svg"
   xmlns="http://www.w3.org/2000/svg"
   xmlns:xlink="http://www.w3.org/1999/xlink"
   xmlns:sodipodi="http://sodipodi.sourceforge.net/DTD/sodipodi-0.dtd"
   xmlns:inkscape="http://www.inkscape.org/namespaces/inkscape"
   width="210mm"
   height="297mm"
   viewBox="0 0 744.09448819 1052.3622047"
   id="svg2"
   version="1.1"
   inkscape:version="0.91 r13725"
   inkscape:export-xdpi="7.1996322"
   inkscape:export-ydpi="7.1996322"
   sodipodi:docname="chipcard-produce.svg"
   inkscape:export-filename="C:\Users\johannes\Documents\Arbeit\RRZE\github3\bicons\32x32\emblems\chipcard-produce.png">
  <defs
     id="defs4">
    <linearGradient
       inkscape:collect="always"
       xlink:href="#linearGradient4321"
       id="linearGradient4208"
       x1="226.84613"
       y1="638.23535"
       x2="454.33087"
       y2="458.06842"
       gradientUnits="userSpaceOnUse"
       gradientTransform="matrix(1.009587,0,0,0.98480491,-2.1579826,-30.828159)" />
    <linearGradient
       id="linearGradient4321"
       inkscape:collect="always">
      <stop
         id="stop4323"
         offset="0"
         style="stop-color:#4e505d;stop-opacity:1;" />
      <stop
         id="stop4325"
         offset="1"
         style="stop-color:#7a8597;stop-opacity:1" />
    </linearGradient>
  </defs>
  <sodipodi:namedview
     id="base"
     pagecolor="#ffffff"
     bordercolor="#666666"
     borderopacity="1.0"
     inkscape:pageopacity="0.0"
     inkscape:pageshadow="2"
     inkscape:zoom="0.675"
     inkscape:cx="405.65541"
     inkscape:cy="492.70494"
     inkscape:document-units="px"
     inkscape:current-layer="layer1"
     showgrid="false"
     showguides="true"
     inkscape:guide-bbox="true"
     inkscape:window-width="1600"
     inkscape:window-height="837"
     inkscape:window-x="-4"
     inkscape:window-y="-4"
     inkscape:window-maximized="1"
     inkscape:snap-bbox="true"
     inkscape:bbox-paths="true"
     inkscape:bbox-nodes="true">
    <sodipodi:guide
       position="315.53572,730.17859"
       orientation="0,1"
       id="guide3338" />
    <sodipodi:guide
       position="351.25,330.17858"
       orientation="0,1"
       id="guide3340" />
    <sodipodi:guide
       position="189.10714,408.8393"
       orientation="1,0"
       id="guide3344" />
    <sodipodi:guide
       position="589.04521,468.07945"
       orientation="1,0"
       id="guide3346" />
    <inkscape:grid
       type="xygrid"
       id="grid3440" />
    <sodipodi:guide
       position="589.04521,378.30213"
       orientation="1,0"
       id="guide3411" />
  </sodipodi:namedview>
  <metadata
     id="metadata7">
    <rdf:RDF>
      <cc:Work
         rdf:about="">
        <dc:format>image/svg+xml</dc:format>
        <dc:type
           rdf:resource="http://purl.org/dc/dcmitype/StillImage" />
        <dc:title>chipcard produce</dc:title>
        <dc:date>June 2015</dc:date>
        <dc:creator>
          <cc:Agent>
            <dc:title>Johannes Hechler</dc:title>
          </cc:Agent>
        </dc:creator>
        <dc:rights>
          <cc:Agent>
            <dc:title>Johannes Hechler</dc:title>
          </cc:Agent>
        </dc:rights>
        <dc:publisher>
          <cc:Agent>
            <dc:title>RRZE</dc:title>
          </cc:Agent>
        </dc:publisher>
        <dc:contributor>
          <cc:Agent>
            <dc:title>Ute Weber, Hendrik Eggers, Joanna Barbach</dc:title>
          </cc:Agent>
        </dc:contributor>
        <dc:subject>
          <rdf:Bag>
            <rdf:li>chip card</rdf:li>
            <rdf:li>chip</rdf:li>
            <rdf:li>creditcard</rdf:li>
            <rdf:li>produce</rdf:li>
          </rdf:Bag>
        </dc:subject>
        <cc:license
           rdf:resource="http://creativecommons.org/licenses/by-sa/3.0/" />
      </cc:Work>
      <cc:License
         rdf:about="http://creativecommons.org/licenses/by-sa/3.0/">
        <cc:permits
           rdf:resource="http://creativecommons.org/ns#Reproduction" />
        <cc:permits
           rdf:resource="http://creativecommons.org/ns#Distribution" />
        <cc:requires
           rdf:resource="http://creativecommons.org/ns#Notice" />
        <cc:requires
           rdf:resource="http://creativecommons.org/ns#Attribution" />
        <cc:permits
           rdf:resource="http://creativecommons.org/ns#DerivativeWorks" />
        <cc:requires
           rdf:resource="http://creativecommons.org/ns#ShareAlike" />
      </cc:License>
    </rdf:RDF>
  </metadata>
  <g
     inkscape:label="Ebene 1"
     inkscape:groupmode="layer"
     id="layer1">
    <g
       id="g4180">
      <rect
         inkscape:export-ydpi="3.5999999"
         inkscape:export-xdpi="3.5999999"
         y="322.43143"
         x="189.1244"
         height="400"
         width="400"
         id="rect3336-3"
         style="fill:none;fill-rule:evenodd;stroke:none;stroke-width:1px;stroke-linecap:butt;stroke-linejoin:miter;stroke-opacity:1" />
      <rect
         inkscape:export-ydpi="4.9499998"
         inkscape:export-xdpi="4.9499998"
         y="322.27005"
         x="189.14485"
         height="400"
         width="400"
         id="rect3336-4"
         style="fill:none;fill-rule:evenodd;stroke:none;stroke-width:1px;stroke-linecap:butt;stroke-linejoin:miter;stroke-opacity:1" />
      <path
         id="rect3789"
         d="M 244.54102 404.99023 C 223.91152 404.99023 207.30469 421.18939 207.30469 441.3125 L 207.30469 603.38477 C 207.30469 623.50787 223.91152 639.70898 244.54102 639.70898 L 393.59375 639.70898 L 393.59375 617.91992 A 15.710779 15.710779 0 0 1 405.50781 602.67773 L 416.88867 599.84375 L 410.50195 589.71875 A 15.710779 15.710779 0 0 1 412.4668 570.44531 L 433.68945 548.38477 A 15.710779 15.710779 0 0 1 452.79102 545.62891 L 465.4707 552.85742 L 469.04297 538.61914 L 469.02539 538.76953 A 15.710779 15.710779 0 0 1 484.2793 526.73242 L 514.93555 526.73242 A 15.710779 15.710779 0 0 1 530.17578 538.625 L 533.01367 549.95508 L 542.01758 544.30664 A 15.710779 15.710779 0 0 1 561.21875 546.25781 L 570.94531 555.55469 L 570.94531 441.3125 C 570.94531 421.18939 554.33847 404.99023 533.70898 404.99023 L 244.54102 404.99023 z M 496.53516 558.15039 L 493.45898 570.4043 A 15.710779 15.710779 0 0 1 483.00195 581.54492 C 479.87046 582.54503 476.83821 583.83045 473.94336 585.38281 A 15.710779 15.710779 0 0 1 458.74023 585.18555 L 447.85352 578.97852 L 443.63867 583.35938 L 450.32617 593.95508 A 15.710779 15.710779 0 0 1 451.12695 609.29297 C 449.93953 611.69821 448.93539 614.18943 448.12305 616.74414 A 15.710779 15.710779 0 0 1 436.94727 627.22656 L 425.01367 630.19922 L 425.01367 636.21289 L 437.0332 639.20508 A 15.710779 15.710779 0 0 1 438.85352 639.70898 L 472.43945 639.70898 A 27.323732 26.889877 0 0 1 472.03711 635.12109 A 27.323732 26.889877 0 0 1 499.35547 608.22852 A 27.323732 26.889877 0 0 1 526.68555 635.10938 L 499.36133 635.11719 L 526.68555 635.11719 A 27.323732 26.889877 0 0 1 526.25586 639.70898 L 533.70898 639.70898 C 545.24723 639.70898 555.52381 634.63797 562.34375 626.65039 L 561.67969 626.48438 A 15.710779 15.710779 0 0 1 550.51367 616.02734 C 549.5206 612.92369 548.24406 609.918 546.70117 607.04492 A 15.710779 15.710779 0 0 1 546.91406 591.79883 L 552.74805 581.62305 L 548.35156 577.41992 L 538.41016 583.65625 A 15.710779 15.710779 0 0 1 523.08984 584.42383 C 520.82109 583.29986 518.47405 582.33707 516.06836 581.54297 A 15.710779 15.710779 0 0 1 505.75391 570.44141 L 502.67578 558.15039 L 496.53516 558.15039 z "
         style="fill:url(#linearGradient4208);fill-opacity:1;stroke:none;stroke-width:16.95400047;stroke-linecap:round;stroke-linejoin:round;stroke-miterlimit:4;stroke-dasharray:none;stroke-dashoffset:0;stroke-opacity:1" />
      <rect
         style="fill:#ffffff;fill-opacity:1"
         id="rect9"
         height="14.892237"
         width="16.857664"
         y="515.72974"
         x="276.64926" />
      <rect
         style="fill:#ffffff;fill-opacity:1"
         id="rect11"
         height="14.892237"
         width="16.856384"
         y="515.72974"
         x="234.46223" />
      <path
         style="fill:#ffffff;fill-opacity:1"
         inkscape:connector-curvature="0"
         id="path13"
         d="m 251.31859,549.64199 0,-12.74011 -15.82699,0 c 2.28127,6.8873 8.37832,11.95497 15.82699,12.74011 z" />
      <rect
         style="fill:#ffffff;fill-opacity:1"
         id="rect15"
         height="12.938317"
         width="12.786147"
         y="536.90192"
         x="257.5947" />
      <path
         style="fill:#ffffff;fill-opacity:1"
         inkscape:connector-curvature="0"
         id="path17"
         d="m 292.4775,536.90188 -15.82829,0 0,12.74011 c 7.44867,-0.78514 13.54573,-5.85281 15.82829,-12.74011 z" />
      <path
         style="fill:#ffffff;fill-opacity:1"
         inkscape:connector-curvature="0"
         id="path19"
         d="m 270.37954,509.45751 3.14058,0 3.12909,0 16.31165,0 c -1.95392,-8.3016 -9.3668,-14.49967 -18.27196,-14.49967 l -17.10063,0 0,35.6718 12.78615,0 0,-21.17213 0.005,0 z" />
      <path
         style="fill:#ffffff;fill-opacity:1"
         inkscape:connector-curvature="0"
         id="path21"
         d="m 251.31859,495.14965 c -8.0062,0.83758 -14.5035,6.63029 -16.31163,14.30786 l 16.31163,0 0,-14.30786 z" />
      <rect
         ry="9.0899925"
         y="443.53003"
         x="235.6644"
         height="18.179996"
         width="298.87997"
         id="rect4238"
         style="color:#252525;clip-rule:nonzero;display:inline;overflow:visible;visibility:visible;opacity:1;isolation:auto;mix-blend-mode:normal;color-interpolation:sRGB;color-interpolation-filters:linearRGB;solid-color:#252525;solid-opacity:1;fill:#ffffff;fill-opacity:1;fill-rule:nonzero;stroke:none;stroke-width:50;stroke-linecap:square;stroke-linejoin:round;stroke-miterlimit:4;stroke-dasharray:none;stroke-dashoffset:0;stroke-opacity:1;color-rendering:auto;image-rendering:auto;shape-rendering:auto;text-rendering:auto;enable-background:accumulate" />
      <rect
         ry="9.0900106"
         y="494.07001"
         x="316.3844"
         height="18.180086"
         width="218.15999"
         id="rect4240"
         style="color:#252525;clip-rule:nonzero;display:inline;overflow:visible;visibility:visible;opacity:1;isolation:auto;mix-blend-mode:normal;color-interpolation:sRGB;color-interpolation-filters:linearRGB;solid-color:#252525;solid-opacity:1;fill:#ffffff;fill-opacity:1;fill-rule:nonzero;stroke:none;stroke-width:50;stroke-linecap:square;stroke-linejoin:round;stroke-miterlimit:4;stroke-dasharray:none;stroke-dashoffset:0;stroke-opacity:1;color-rendering:auto;image-rendering:auto;shape-rendering:auto;text-rendering:auto;enable-background:accumulate" />
      <rect
         inkscape:export-ydpi="4.9499998"
         inkscape:export-xdpi="4.9499998"
         y="322.27005"
         x="189.14485"
         height="400"
         width="400"
         id="rect3336"
         style="fill:none;fill-rule:evenodd;stroke:none;stroke-width:1px;stroke-linecap:butt;stroke-linejoin:miter;stroke-opacity:1" />
      <path
         id="path4172"
         d="M 484.2793 542.44141 L 484.2793 542.44336 L 478.22266 566.58008 A 69.399515 69.18485 0 0 0 466.51953 571.53711 L 445.00977 559.27539 L 423.78711 581.33594 L 437.04102 602.33789 A 69.399515 69.18485 0 0 0 433.15234 611.98242 L 409.30273 617.91992 L 409.30273 648.49023 L 433.83398 654.59766 L 433.83398 654.55859 A 69.399515 69.18485 0 0 0 438.91406 665.97852 L 426.56055 687.52148 L 448.68945 708.67188 L 470.08984 695.25 L 469.43945 694.625 A 69.399515 69.18485 0 0 0 478.70312 698.35547 L 484.68164 722.18359 L 515.33984 722.18359 L 521.43555 697.88477 A 69.399515 69.18485 0 0 0 532.55664 693.08984 L 554.21289 705.43555 L 575.43555 683.36719 L 562.0293 662.11719 A 69.399515 69.18485 0 0 0 565.49805 653.53906 L 589.04492 647.66992 L 589.04492 617.10938 L 565.47656 611.24023 A 69.399515 69.18485 0 0 0 560.54102 599.61133 L 572.49219 578.76367 L 550.36523 557.61523 L 530.0625 570.34766 A 69.399515 69.18485 0 0 0 520.99414 566.625 L 514.93555 542.44141 L 484.2793 542.44141 z M 499.35547 608.22852 A 27.323732 26.889877 0 0 1 526.68555 635.10938 L 499.36133 635.11719 L 526.68555 635.11719 A 27.323732 26.889877 0 0 1 499.36328 662.00781 A 27.323732 26.889877 0 0 1 472.03711 635.12109 A 27.323732 26.889877 0 0 1 499.35547 608.22852 z "
         style="opacity:1;fill:#99b000;fill-opacity:1;stroke:none;stroke-width:20.62700081;stroke-linecap:square;stroke-linejoin:miter;stroke-miterlimit:4;stroke-dasharray:none;stroke-opacity:1" />
    </g>
  </g>
</svg>
