<?xml version="1.0" encoding="UTF-8" standalone="no"?>
<!-- Created with Inkscape (http://www.inkscape.org/) -->

<svg
   xmlns:dc="http://purl.org/dc/elements/1.1/"
   xmlns:cc="http://creativecommons.org/ns#"
   xmlns:rdf="http://www.w3.org/1999/02/22-rdf-syntax-ns#"
   xmlns:svg="http://www.w3.org/2000/svg"
   xmlns="http://www.w3.org/2000/svg"
   xmlns:xlink="http://www.w3.org/1999/xlink"
   xmlns:sodipodi="http://sodipodi.sourceforge.net/DTD/sodipodi-0.dtd"
   xmlns:inkscape="http://www.inkscape.org/namespaces/inkscape"
   width="210mm"
   height="297mm"
   viewBox="0 0 744.09448819 1052.3622047"
   id="svg2"
   version="1.1"
   inkscape:version="0.91 r13725"
   inkscape:export-xdpi="4"
   inkscape:export-ydpi="4"
   sodipodi:docname="chipcard-print.svg">
  <defs
     id="defs4">
    <linearGradient
       id="linearGradient2224">
      <stop
         id="stop2226"
         offset="0"
         style="stop-color:#7c7c7c;stop-opacity:1;" />
      <stop
         id="stop2228"
         offset="1"
         style="stop-color:#b8b8b8;stop-opacity:1;" />
    </linearGradient>
    <linearGradient
       id="linearGradient15218">
      <stop
         id="stop15220"
         offset="0"
         style="stop-color:#eeeeef;stop-opacity:1;" />
      <stop
         id="stop2736"
         offset="0.59928656"
         style="stop-color:#d3d7cf;stop-opacity:1;" />
      <stop
         id="stop2738"
         offset="0.82758623"
         style="stop-color:#ffffff;stop-opacity:1;" />
      <stop
         id="stop15222"
         offset="1"
         style="stop-color:#d3d7cf;stop-opacity:1;" />
    </linearGradient>
    <pattern
       y="0"
       x="0"
       height="6"
       width="6"
       patternUnits="userSpaceOnUse"
       id="EMFhbasepattern" />
    <pattern
       y="0"
       x="0"
       height="6"
       width="6"
       patternUnits="userSpaceOnUse"
       id="EMFhbasepattern-5" />
    <linearGradient
       inkscape:collect="always"
       xlink:href="#linearGradient4202"
       id="linearGradient4208"
       x1="226.84613"
       y1="638.23535"
       x2="454.33087"
       y2="458.06842"
       gradientUnits="userSpaceOnUse"
       gradientTransform="matrix(0.97171382,0,0,0.97171382,8.6083662,-29.809095)" />
    <linearGradient
       inkscape:collect="always"
       id="linearGradient4202">
      <stop
         style="stop-color:#4e505d;stop-opacity:1;"
         offset="0"
         id="stop4204" />
      <stop
         style="stop-color:#545d6c;stop-opacity:1"
         offset="1"
         id="stop4206" />
    </linearGradient>
  </defs>
  <sodipodi:namedview
     id="base"
     pagecolor="#ffffff"
     bordercolor="#666666"
     borderopacity="1.0"
     inkscape:pageopacity="0.0"
     inkscape:pageshadow="2"
     inkscape:zoom="0.73"
     inkscape:cx="246.9525"
     inkscape:cy="426.46963"
     inkscape:document-units="px"
     inkscape:current-layer="layer1"
     showgrid="false"
     showguides="true"
     inkscape:guide-bbox="true"
     inkscape:window-width="1366"
     inkscape:window-height="721"
     inkscape:window-x="-4"
     inkscape:window-y="-4"
     inkscape:window-maximized="1">
    <sodipodi:guide
       position="315.53572,730.17859"
       orientation="0,1"
       id="guide3338" />
    <sodipodi:guide
       position="351.25,330.17858"
       orientation="0,1"
       id="guide3340" />
    <sodipodi:guide
       position="189.10714,408.8393"
       orientation="1,0"
       id="guide3344" />
    <sodipodi:guide
       position="589.04521,468.07945"
       orientation="1,0"
       id="guide3346" />
    <inkscape:grid
       type="xygrid"
       id="grid3440" />
    <sodipodi:guide
       position="589.04521,378.30213"
       orientation="1,0"
       id="guide3411" />
  </sodipodi:namedview>
  <metadata
     id="metadata7">
    <rdf:RDF>
      <cc:Work
         rdf:about="">
        <dc:format>image/svg+xml</dc:format>
        <dc:type
           rdf:resource="http://purl.org/dc/dcmitype/StillImage" />
        <dc:title>chipcard print</dc:title>
      </cc:Work>
    </rdf:RDF>
  </metadata>
  <g
     inkscape:label="Ebene 1"
     inkscape:groupmode="layer"
     id="layer1">
    <g
       transform="translate(2.78691,-0.45205528)"
       id="g4177">
      <path
         inkscape:connector-curvature="0"
         id="rect3789"
         d="m 246.05355,400.21575 278.31909,0 c 19.85561,0 35.84045,15.98483 35.84045,35.84044 l 0,159.91763 c 0,19.8556 -15.98484,35.84044 -35.84045,35.84044 l -278.31909,0 c -19.85561,0 -35.84046,-15.98484 -35.84046,-35.84044 l 0,-159.91763 c 0,-19.85561 15.98485,-35.84044 35.84046,-35.84044 z"
         style="fill:url(#linearGradient4208);fill-opacity:1;stroke:none;stroke-width:16.95400047;stroke-linecap:round;stroke-linejoin:round;stroke-miterlimit:4;stroke-dasharray:none;stroke-dashoffset:0;stroke-opacity:1" />
      <rect
         style="fill:#ffffff"
         id="rect9"
         height="14.892237"
         width="16.857664"
         y="512.90796"
         x="273.74332" />
      <rect
         style="fill:#ffffff"
         id="rect11"
         height="14.892237"
         width="16.856384"
         y="512.90796"
         x="231.55632" />
      <path
         style="fill:#ffffff"
         inkscape:connector-curvature="0"
         id="path13"
         d="m 248.41267,546.82024 0,-12.74011 -15.82699,0 c 2.28127,6.8873 8.37832,11.95497 15.82699,12.74011 z" />
      <rect
         style="fill:#ffffff"
         id="rect15"
         height="12.938317"
         width="12.786147"
         y="534.08014"
         x="254.68875" />
      <path
         style="fill:#ffffff"
         inkscape:connector-curvature="0"
         id="path17"
         d="m 289.57157,534.08013 -15.82828,0 0,12.74011 c 7.44867,-0.78514 13.54572,-5.85281 15.82828,-12.74011 z" />
      <path
         style="fill:#ffffff"
         inkscape:connector-curvature="0"
         id="path19"
         d="m 267.47362,506.63576 3.14058,0 3.12909,0 16.31164,0 c -1.95392,-8.3016 -9.36679,-14.49967 -18.27195,-14.49967 l -17.10063,0 0,35.6718 12.78615,0 0,-21.17213 0.005,0 z" />
      <path
         style="fill:#ffffff"
         inkscape:connector-curvature="0"
         id="path21"
         d="m 248.41267,492.3279 c -8.0062,0.83758 -14.5035,6.63029 -16.31163,14.30786 l 16.31163,0 0,-14.30786 z" />
      <rect
         ry="13.184931"
         y="431.25928"
         x="231.24239"
         height="31.763697"
         width="309.24655"
         id="rect4268"
         style="color:#000000;clip-rule:nonzero;display:inline;overflow:visible;visibility:visible;opacity:1;isolation:auto;mix-blend-mode:normal;color-interpolation:sRGB;color-interpolation-filters:linearRGB;solid-color:#000000;solid-opacity:1;fill:#ffffff;fill-opacity:1;fill-rule:nonzero;stroke:none;stroke-width:23;stroke-linecap:butt;stroke-linejoin:miter;stroke-miterlimit:4;stroke-dasharray:none;stroke-dashoffset:0;stroke-opacity:1;color-rendering:auto;image-rendering:auto;shape-rendering:auto;text-rendering:auto;enable-background:accumulate" />
      <rect
         ry="13.184931"
         y="491.90143"
         x="321.03131"
         height="31.763718"
         width="217.34692"
         id="rect4268-4"
         style="color:#000000;clip-rule:nonzero;display:inline;overflow:visible;visibility:visible;opacity:1;isolation:auto;mix-blend-mode:normal;color-interpolation:sRGB;color-interpolation-filters:linearRGB;solid-color:#000000;solid-opacity:1;fill:#ffffff;fill-opacity:1;fill-rule:nonzero;stroke:none;stroke-width:23;stroke-linecap:butt;stroke-linejoin:miter;stroke-miterlimit:4;stroke-dasharray:none;stroke-dashoffset:0;stroke-opacity:1;color-rendering:auto;image-rendering:auto;shape-rendering:auto;text-rendering:auto;enable-background:accumulate" />
    </g>
    <rect
       style="fill:none;fill-rule:evenodd;stroke:none;stroke-width:1px;stroke-linecap:butt;stroke-linejoin:miter;stroke-opacity:1"
       id="rect3336"
       width="400"
       height="400"
       x="189.14485"
       y="322.27005"
       inkscape:export-xdpi="4.9499998"
       inkscape:export-ydpi="4.9499998" />
    <g
       id="g4197"
       transform="matrix(1.0456385,-0.07484384,0.07484384,1.0456385,-72.171446,1.9729856)" />
    <g
       id="g4180"
       transform="matrix(0.91958641,0,0,0.91958641,25.301792,38.052658)">
      <rect
         inkscape:export-ydpi="4.9499998"
         inkscape:export-xdpi="4.9499998"
         y="500.11676"
         x="333.12405"
         height="183.3476"
         width="183.3476"
         id="rect3336-8"
         style="fill:none;fill-rule:evenodd;stroke:none;stroke-width:1px;stroke-linecap:butt;stroke-linejoin:miter;stroke-opacity:1" />
      <path
         style="opacity:1;fill:#99b000;fill-opacity:1;stroke:#ffffff;stroke-width:50;stroke-linecap:round;stroke-linejoin:round;stroke-miterlimit:4;stroke-dasharray:none;stroke-opacity:1"
         d="m 399.75185,488.21178 c -3.55076,0 -6.40884,3.17364 -6.40884,7.11433 l 0,43.66966 133.36883,0 0,-43.66966 c 0,-3.94069 -2.85807,-7.11433 -6.40884,-7.11433 l -120.55115,0 z m -26.8392,70.23651 0,0.0782 -28.84558,0 c -7.98987,0 -14.42135,6.43293 -14.42135,14.42279 l 0,72.11107 c 0,7.98987 6.43148,14.42134 14.42135,14.42134 l 28.77894,0 0,-48.87032 c 0,-12.4852 10.4226,-22.74676 22.87569,-22.74676 l 128.836,0 c 12.45309,0 22.87713,10.26156 22.87713,22.74676 l 0,48.87032 27.38824,0 c 7.98986,0 14.42135,-6.43147 14.42135,-14.42134 l 0,-72.11107 c 0,-7.98986 -6.43149,-14.42279 -14.42135,-14.42279 l -28.84559,0 0,-0.0782 -7.21139,0 0,0.0782 -158.64204,0 0,-0.0782 -7.2114,0 z m 30.41883,47.83888 c -6.46194,0 -11.66456,5.1497 -11.66456,11.54721 l 0,92.48204 c 0,6.39751 5.20262,11.54722 11.66456,11.54722 l 114.3509,0 c 6.46192,0 11.66456,-5.14971 11.66456,-11.54722 l 0,-92.48204 c 0,-6.39751 -5.20264,-11.54721 -11.66456,-11.54721 l -114.3509,0 z"
         id="path4220"
         inkscape:connector-curvature="0" />
      <path
         inkscape:connector-curvature="0"
         id="rect4188"
         d="m 399.75185,488.21178 c -3.55076,0 -6.40884,3.17364 -6.40884,7.11433 l 0,43.66966 133.36883,0 0,-43.66966 c 0,-3.94069 -2.85807,-7.11433 -6.40884,-7.11433 l -120.55115,0 z m -26.8392,70.23651 0,0.0782 -28.84558,0 c -7.98987,0 -14.42135,6.43293 -14.42135,14.42279 l 0,72.11107 c 0,7.98987 6.43148,14.42134 14.42135,14.42134 l 28.77894,0 0,-48.87032 c 0,-12.4852 10.4226,-22.74676 22.87569,-22.74676 l 128.836,0 c 12.45309,0 22.87713,10.26156 22.87713,22.74676 l 0,48.87032 27.38824,0 c 7.98986,0 14.42135,-6.43147 14.42135,-14.42134 l 0,-72.11107 c 0,-7.98986 -6.43149,-14.42279 -14.42135,-14.42279 l -28.84559,0 0,-0.0782 -7.21139,0 0,0.0782 -158.64204,0 0,-0.0782 -7.2114,0 z m 30.41883,47.83888 c -6.46194,0 -11.66456,5.1497 -11.66456,11.54721 l 0,92.48204 c 0,6.39751 5.20262,11.54722 11.66456,11.54722 l 114.3509,0 c 6.46192,0 11.66456,-5.14971 11.66456,-11.54722 l 0,-92.48204 c 0,-6.39751 -5.20264,-11.54721 -11.66456,-11.54721 l -114.3509,0 z"
         style="opacity:1;fill:#99b000;fill-opacity:1;stroke:none;stroke-width:16;stroke-linecap:round;stroke-linejoin:round;stroke-miterlimit:4;stroke-dasharray:none;stroke-opacity:1" />
      <circle
         r="9.0138435"
         cy="574.67358"
         cx="565.80872"
         id="path4251"
         style="opacity:1;fill:#ffffff;fill-opacity:1;stroke:none;stroke-width:16;stroke-linecap:round;stroke-linejoin:round;stroke-miterlimit:4;stroke-dasharray:none;stroke-opacity:1" />
      <rect
         ry="8.6491079"
         rx="6.4639988"
         y="621.90607"
         x="401.4556"
         height="19.728445"
         width="114.54308"
         id="rect4175"
         style="color:#000000;clip-rule:nonzero;display:inline;overflow:visible;visibility:visible;opacity:1;isolation:auto;mix-blend-mode:normal;color-interpolation:sRGB;color-interpolation-filters:linearRGB;solid-color:#000000;solid-opacity:1;fill:#ffffff;fill-opacity:1;fill-rule:nonzero;stroke:none;stroke-width:31.21899986;stroke-linecap:butt;stroke-linejoin:round;stroke-miterlimit:4;stroke-dasharray:none;stroke-dashoffset:60.95800018;stroke-opacity:1;color-rendering:auto;image-rendering:auto;shape-rendering:auto;text-rendering:auto;enable-background:accumulate" />
      <rect
         ry="8.6491079"
         rx="7.793335"
         y="653.47156"
         x="401.4556"
         height="19.728445"
         width="102.58791"
         id="rect4177"
         style="color:#000000;clip-rule:nonzero;display:inline;overflow:visible;visibility:visible;opacity:1;isolation:auto;mix-blend-mode:normal;color-interpolation:sRGB;color-interpolation-filters:linearRGB;solid-color:#000000;solid-opacity:1;fill:#ffffff;fill-opacity:1;fill-rule:nonzero;stroke:none;stroke-width:31.21899986;stroke-linecap:butt;stroke-linejoin:round;stroke-miterlimit:4;stroke-dasharray:none;stroke-dashoffset:60.95800018;stroke-opacity:1;color-rendering:auto;image-rendering:auto;shape-rendering:auto;text-rendering:auto;enable-background:accumulate" />
    </g>
  </g>
</svg>
