<?xml version="1.0" encoding="UTF-8" standalone="no"?>
<!-- Created with Inkscape (http://www.inkscape.org/) -->

<svg
   xmlns:dc="http://purl.org/dc/elements/1.1/"
   xmlns:cc="http://creativecommons.org/ns#"
   xmlns:rdf="http://www.w3.org/1999/02/22-rdf-syntax-ns#"
   xmlns:svg="http://www.w3.org/2000/svg"
   xmlns="http://www.w3.org/2000/svg"
   xmlns:xlink="http://www.w3.org/1999/xlink"
   xmlns:sodipodi="http://sodipodi.sourceforge.net/DTD/sodipodi-0.dtd"
   xmlns:inkscape="http://www.inkscape.org/namespaces/inkscape"
   width="210mm"
   height="297mm"
   viewBox="0 0 744.09448819 1052.3622047"
   id="svg2"
   version="1.1"
   inkscape:version="0.91 r13725"
   sodipodi:docname="chipcard-print.svg"
   inkscape:export-filename="C:\Users\johannes\Documents\Arbeit\RRZE\bi-con\bi-con\scalable\documents\document.png"
   inkscape:export-xdpi="4"
   inkscape:export-ydpi="4">
  <defs
     id="defs4">
    <linearGradient
       inkscape:collect="always"
       id="linearGradient4202">
      <stop
         style="stop-color:#5a6578;stop-opacity:1;"
         offset="0"
         id="stop4204" />
      <stop
         style="stop-color:#9397a2;stop-opacity:1"
         offset="1"
         id="stop4206" />
    </linearGradient>
    <linearGradient
       id="linearGradient2224">
      <stop
         id="stop2226"
         offset="0"
         style="stop-color:#7c7c7c;stop-opacity:1;" />
      <stop
         id="stop2228"
         offset="1"
         style="stop-color:#b8b8b8;stop-opacity:1;" />
    </linearGradient>
    <linearGradient
       id="linearGradient15218">
      <stop
         id="stop15220"
         offset="0"
         style="stop-color:#eeeeef;stop-opacity:1;" />
      <stop
         id="stop2736"
         offset="0.59928656"
         style="stop-color:#d3d7cf;stop-opacity:1;" />
      <stop
         id="stop2738"
         offset="0.82758623"
         style="stop-color:#ffffff;stop-opacity:1;" />
      <stop
         id="stop15222"
         offset="1"
         style="stop-color:#d3d7cf;stop-opacity:1;" />
    </linearGradient>
    <pattern
       y="0"
       x="0"
       height="6"
       width="6"
       patternUnits="userSpaceOnUse"
       id="EMFhbasepattern" />
    <pattern
       y="0"
       x="0"
       height="6"
       width="6"
       patternUnits="userSpaceOnUse"
       id="EMFhbasepattern-5" />
    <linearGradient
       inkscape:collect="always"
       xlink:href="#linearGradient4202"
       id="linearGradient4208"
       x1="226.84613"
       y1="638.23535"
       x2="454.33087"
       y2="458.06842"
       gradientUnits="userSpaceOnUse"
       gradientTransform="matrix(1.1105301,0,0,1.1105301,-40.740259,-34.162135)" />
  </defs>
  <sodipodi:namedview
     id="base"
     pagecolor="#ffffff"
     bordercolor="#666666"
     borderopacity="1.0"
     inkscape:pageopacity="0.0"
     inkscape:pageshadow="2"
     inkscape:zoom="1.0323759"
     inkscape:cx="462.32178"
     inkscape:cy="440.73023"
     inkscape:document-units="px"
     inkscape:current-layer="layer1"
     showgrid="false"
     showguides="false"
     inkscape:guide-bbox="true"
     inkscape:window-width="1366"
     inkscape:window-height="721"
     inkscape:window-x="-4"
     inkscape:window-y="-4"
     inkscape:window-maximized="1">
    <sodipodi:guide
       position="315.53572,730.17859"
       orientation="0,1"
       id="guide3338" />
    <sodipodi:guide
       position="351.25,330.17858"
       orientation="0,1"
       id="guide3340" />
    <sodipodi:guide
       position="189.10714,408.8393"
       orientation="1,0"
       id="guide3344" />
    <sodipodi:guide
       position="589.04521,468.07945"
       orientation="1,0"
       id="guide3346" />
    <inkscape:grid
       type="xygrid"
       id="grid3440" />
    <sodipodi:guide
       position="589.04521,378.30213"
       orientation="1,0"
       id="guide3411" />
  </sodipodi:namedview>
  <metadata
     id="metadata7">
    <rdf:RDF>
      <cc:Work
         rdf:about="">
        <dc:format>image/svg+xml</dc:format>
        <dc:type
           rdf:resource="http://purl.org/dc/dcmitype/StillImage" />
        <dc:title />
      </cc:Work>
    </rdf:RDF>
  </metadata>
  <g
     inkscape:label="Ebene 1"
     inkscape:groupmode="layer"
     id="layer1">
    <rect
       style="fill:none;fill-rule:evenodd;stroke:none;stroke-width:1px;stroke-linecap:butt;stroke-linejoin:miter;stroke-opacity:1"
       id="rect3336"
       width="400"
       height="400"
       x="189.14485"
       y="322.27005"
       inkscape:export-xdpi="4.9499998"
       inkscape:export-ydpi="4.9499998" />
    <g
       id="g4197"
       transform="matrix(1.0456385,-0.07484384,0.07484384,1.0456385,-72.171446,1.9729856)" />
    <g
       id="g4165"
       transform="translate(0,-69.616655)">
      <path
         inkscape:connector-curvature="0"
         id="rect3789"
         d="m 230.62567,457.29484 318.07897,0 c 22.69212,0 40.96051,18.26838 40.96051,40.96051 l 0,182.763 c 0,22.69212 -18.26839,40.96051 -40.96051,40.96051 l -318.07897,0 c -22.69213,0 -40.96053,-18.26839 -40.96053,-40.96051 l 0,-182.763 c 0,-22.69213 18.2684,-40.96051 40.96053,-40.96051 z"
         style="fill:url(#linearGradient4208);fill-opacity:1;stroke:none;stroke-width:16.95400047;stroke-linecap:round;stroke-linejoin:round;stroke-miterlimit:4;stroke-dasharray:none;stroke-dashoffset:0;stroke-opacity:1" />
      <rect
         style="fill:#ffffff"
         id="rect9"
         height="17.019699"
         width="19.265902"
         y="574.65741"
         x="262.27112" />
      <rect
         style="fill:#ffffff"
         id="rect11"
         height="17.019699"
         width="19.264441"
         y="574.65741"
         x="214.0574" />
      <path
         style="fill:#ffffff"
         inkscape:connector-curvature="0"
         id="path13"
         d="m 233.32181,613.41426 0,-14.56012 -18.08799,0 c 2.60717,7.8712 9.57522,13.66282 18.08799,14.56012 z" />
      <rect
         style="fill:#ffffff"
         id="rect15"
         height="14.786649"
         width="14.61274"
         y="598.85413"
         x="240.49448" />
      <path
         style="fill:#ffffff"
         inkscape:connector-curvature="0"
         id="path17"
         d="m 280.36055,598.85414 -18.08946,0 0,14.56012 c 8.51277,-0.8973 15.48082,-6.68892 18.08946,-14.56012 z" />
      <path
         style="fill:#ffffff"
         inkscape:connector-curvature="0"
         id="path19"
         d="m 255.10575,567.48914 3.58924,0 3.5761,0 18.64187,0 c -2.23305,-9.48754 -10.7049,-16.57105 -20.88223,-16.57105 l -19.54357,0 0,40.76777 14.61274,0 0,-24.19672 0.006,0 z" />
      <path
         style="fill:#ffffff"
         inkscape:connector-curvature="0"
         id="path21"
         d="m 233.32181,551.1373 c -9.14994,0.95723 -16.57543,7.57747 -18.64187,16.35184 l 18.64187,0 0,-16.35184 z" />
      <rect
         ry="15.068493"
         y="492.77316"
         x="213.69862"
         height="36.301369"
         width="353.42465"
         id="rect4268"
         style="color:#000000;clip-rule:nonzero;display:inline;overflow:visible;visibility:visible;opacity:1;isolation:auto;mix-blend-mode:normal;color-interpolation:sRGB;color-interpolation-filters:linearRGB;solid-color:#000000;solid-opacity:1;fill:#ffffff;fill-opacity:1;fill-rule:nonzero;stroke:none;stroke-width:23;stroke-linecap:butt;stroke-linejoin:miter;stroke-miterlimit:4;stroke-dasharray:none;stroke-dashoffset:0;stroke-opacity:1;color-rendering:auto;image-rendering:auto;shape-rendering:auto;text-rendering:auto;enable-background:accumulate" />
      <rect
         ry="15.068493"
         y="550.6499"
         x="301.36984"
         height="36.301369"
         width="263.34119"
         id="rect4268-4"
         style="color:#000000;clip-rule:nonzero;display:inline;overflow:visible;visibility:visible;opacity:1;isolation:auto;mix-blend-mode:normal;color-interpolation:sRGB;color-interpolation-filters:linearRGB;solid-color:#000000;solid-opacity:1;fill:#ffffff;fill-opacity:1;fill-rule:nonzero;stroke:none;stroke-width:23;stroke-linecap:butt;stroke-linejoin:miter;stroke-miterlimit:4;stroke-dasharray:none;stroke-dashoffset:0;stroke-opacity:1;color-rendering:auto;image-rendering:auto;shape-rendering:auto;text-rendering:auto;enable-background:accumulate" />
    </g>
    <rect
       style="fill:none;fill-rule:evenodd;stroke:none;stroke-width:1px;stroke-linecap:butt;stroke-linejoin:miter;stroke-opacity:1"
       id="rect3336-8"
       width="183.3476"
       height="183.3476"
       x="333.12405"
       y="500.11676"
       inkscape:export-xdpi="4.9499998"
       inkscape:export-ydpi="4.9499998" />
    <g
       id="g4226">
      <path
         inkscape:connector-curvature="0"
         id="path4222"
         d="m 399.75195,473.21094 c -12.48867,0 -21.4082,10.9218 -21.4082,22.11523 l 0,43.66992 a 15.0015,15.0015 0 0 0 0.67773,4.45313 l -6.10937,0 a 15.0015,15.0015 0 0 0 -1.52344,0.0781 l -27.32226,0 c -16.04123,0 -29.41993,13.38247 -29.41993,29.42188 l 0,72.11133 c 0,16.03941 13.38053,29.42187 29.41993,29.42187 l 28.77929,0 a 15.0015,15.0015 0 0 0 3.82032,-0.51562 l 0,36.34961 c 0,14.52976 12.23478,26.54687 26.66601,26.54687 l 114.34961,0 c 14.43124,0 26.66602,-12.01707 26.66602,-26.54687 l 0,-36.17383 a 15.0015,15.0015 0 0 0 3.08789,0.33984 l 27.38672,0 c 16.0394,0 29.42187,-13.38245 29.42187,-29.42187 l 0,-72.11133 c 0,-16.03943 -13.38065,-29.42188 -29.42187,-29.42188 l -27.44727,0 a 15.0015,15.0015 0 0 0 -1.39844,-0.0781 l -4.95703,0 a 15.0015,15.0015 0 0 0 0.69141,-4.45313 l 0,-43.66992 c 0,-11.1934 -8.91954,-22.11523 -21.40821,-22.11523 l -120.55078,0 z m 8.5918,30 103.36719,0 0,20.78515 -103.36719,0 0,-20.78515 z m -33.91992,70.23828 4.31836,0 a 15.0015,15.0015 0 0 0 1.38281,0.0781 l 9.06836,0 c -17.64513,3.11902 -31.34766,18.49687 -31.34766,37.08399 l 0,33.87109 -13.19922,0 0,-70.95508 28.26563,0 a 15.0015,15.0015 0 0 0 1.51172,-0.0781 z m 165.85351,0 4.31836,0 a 15.0015,15.0015 0 0 0 1.38086,0.0781 l 28.26758,0 0,70.95508 -11.80859,0 0,-33.87109 c 0,-18.58758 -13.70308,-33.96449 -31.34766,-37.08399 l 7.67773,0 a 15.0015,15.0015 0 0 0 1.51172,-0.0781 z m -133.61132,47.83789 107.68164,0 0,85.57617 -107.68164,0 0,-85.57617 z"
         style="color:#000000;font-style:normal;font-variant:normal;font-weight:normal;font-stretch:normal;font-size:medium;line-height:normal;font-family:sans-serif;text-indent:0;text-align:start;text-decoration:none;text-decoration-line:none;text-decoration-style:solid;text-decoration-color:#000000;letter-spacing:normal;word-spacing:normal;text-transform:none;direction:ltr;block-progression:tb;writing-mode:lr-tb;baseline-shift:baseline;text-anchor:start;white-space:normal;clip-rule:nonzero;display:inline;overflow:visible;visibility:visible;opacity:1;isolation:auto;mix-blend-mode:normal;color-interpolation:sRGB;color-interpolation-filters:linearRGB;solid-color:#000000;solid-opacity:1;fill:#ffffff;fill-opacity:1;fill-rule:nonzero;stroke:#5a6578;stroke-width:23;stroke-linecap:round;stroke-linejoin:round;stroke-miterlimit:4;stroke-dasharray:none;stroke-dashoffset:0;stroke-opacity:1;color-rendering:auto;image-rendering:auto;shape-rendering:auto;text-rendering:auto;enable-background:accumulate" />
      <path
         style="opacity:1;fill:#abbe24;fill-opacity:1;stroke:#ffffff;stroke-width:30;stroke-linecap:round;stroke-linejoin:round;stroke-miterlimit:4;stroke-dasharray:none;stroke-opacity:1"
         d="m 399.75185,488.21178 c -3.55076,0 -6.40884,3.17364 -6.40884,7.11433 l 0,43.66966 133.36883,0 0,-43.66966 c 0,-3.94069 -2.85807,-7.11433 -6.40884,-7.11433 l -120.55115,0 z m -26.8392,70.23651 0,0.0782 -28.84558,0 c -7.98987,0 -14.42135,6.43293 -14.42135,14.42279 l 0,72.11107 c 0,7.98987 6.43148,14.42134 14.42135,14.42134 l 28.77894,0 0,-48.87032 c 0,-12.4852 10.4226,-22.74676 22.87569,-22.74676 l 128.836,0 c 12.45309,0 22.87713,10.26156 22.87713,22.74676 l 0,48.87032 27.38824,0 c 7.98986,0 14.42135,-6.43147 14.42135,-14.42134 l 0,-72.11107 c 0,-7.98986 -6.43149,-14.42279 -14.42135,-14.42279 l -28.84559,0 0,-0.0782 -7.21139,0 0,0.0782 -158.64204,0 0,-0.0782 -7.2114,0 z m 30.41883,47.83888 c -6.46194,0 -11.66456,5.1497 -11.66456,11.54721 l 0,92.48204 c 0,6.39751 5.20262,11.54722 11.66456,11.54722 l 114.3509,0 c 6.46192,0 11.66456,-5.14971 11.66456,-11.54722 l 0,-92.48204 c 0,-6.39751 -5.20264,-11.54721 -11.66456,-11.54721 l -114.3509,0 z"
         id="path4220"
         inkscape:connector-curvature="0" />
      <path
         inkscape:connector-curvature="0"
         id="rect4188"
         d="m 399.75185,488.21178 c -3.55076,0 -6.40884,3.17364 -6.40884,7.11433 l 0,43.66966 133.36883,0 0,-43.66966 c 0,-3.94069 -2.85807,-7.11433 -6.40884,-7.11433 l -120.55115,0 z m -26.8392,70.23651 0,0.0782 -28.84558,0 c -7.98987,0 -14.42135,6.43293 -14.42135,14.42279 l 0,72.11107 c 0,7.98987 6.43148,14.42134 14.42135,14.42134 l 28.77894,0 0,-48.87032 c 0,-12.4852 10.4226,-22.74676 22.87569,-22.74676 l 128.836,0 c 12.45309,0 22.87713,10.26156 22.87713,22.74676 l 0,48.87032 27.38824,0 c 7.98986,0 14.42135,-6.43147 14.42135,-14.42134 l 0,-72.11107 c 0,-7.98986 -6.43149,-14.42279 -14.42135,-14.42279 l -28.84559,0 0,-0.0782 -7.21139,0 0,0.0782 -158.64204,0 0,-0.0782 -7.2114,0 z m 30.41883,47.83888 c -6.46194,0 -11.66456,5.1497 -11.66456,11.54721 l 0,92.48204 c 0,6.39751 5.20262,11.54722 11.66456,11.54722 l 114.3509,0 c 6.46192,0 11.66456,-5.14971 11.66456,-11.54722 l 0,-92.48204 c 0,-6.39751 -5.20264,-11.54721 -11.66456,-11.54721 l -114.3509,0 z"
         style="opacity:1;fill:#abbe24;fill-opacity:1;stroke:none;stroke-width:16;stroke-linecap:round;stroke-linejoin:round;stroke-miterlimit:4;stroke-dasharray:none;stroke-opacity:1" />
      <circle
         r="9.0138435"
         cy="574.67358"
         cx="565.80872"
         id="path4251"
         style="opacity:1;fill:#ffffff;fill-opacity:1;stroke:none;stroke-width:16;stroke-linecap:round;stroke-linejoin:round;stroke-miterlimit:4;stroke-dasharray:none;stroke-opacity:1" />
      <rect
         ry="8.6491079"
         rx="6.4639988"
         y="621.90607"
         x="401.4556"
         height="19.728445"
         width="114.54308"
         id="rect4175"
         style="color:#000000;clip-rule:nonzero;display:inline;overflow:visible;visibility:visible;opacity:1;isolation:auto;mix-blend-mode:normal;color-interpolation:sRGB;color-interpolation-filters:linearRGB;solid-color:#000000;solid-opacity:1;fill:#ffffff;fill-opacity:1;fill-rule:nonzero;stroke:none;stroke-width:31.21899986;stroke-linecap:butt;stroke-linejoin:round;stroke-miterlimit:4;stroke-dasharray:none;stroke-dashoffset:60.95800018;stroke-opacity:1;color-rendering:auto;image-rendering:auto;shape-rendering:auto;text-rendering:auto;enable-background:accumulate" />
      <rect
         ry="8.6491079"
         rx="7.793335"
         y="653.47156"
         x="401.4556"
         height="19.728445"
         width="102.58791"
         id="rect4177"
         style="color:#000000;clip-rule:nonzero;display:inline;overflow:visible;visibility:visible;opacity:1;isolation:auto;mix-blend-mode:normal;color-interpolation:sRGB;color-interpolation-filters:linearRGB;solid-color:#000000;solid-opacity:1;fill:#ffffff;fill-opacity:1;fill-rule:nonzero;stroke:none;stroke-width:31.21899986;stroke-linecap:butt;stroke-linejoin:round;stroke-miterlimit:4;stroke-dasharray:none;stroke-dashoffset:60.95800018;stroke-opacity:1;color-rendering:auto;image-rendering:auto;shape-rendering:auto;text-rendering:auto;enable-background:accumulate" />
    </g>
  </g>
</svg>
