<?xml version="1.0" encoding="UTF-8" standalone="no"?>
<!-- Created with Inkscape (http://www.inkscape.org/) -->

<svg
   xmlns:dc="http://purl.org/dc/elements/1.1/"
   xmlns:cc="http://creativecommons.org/ns#"
   xmlns:rdf="http://www.w3.org/1999/02/22-rdf-syntax-ns#"
   xmlns:svg="http://www.w3.org/2000/svg"
   xmlns="http://www.w3.org/2000/svg"
   xmlns:xlink="http://www.w3.org/1999/xlink"
   xmlns:sodipodi="http://sodipodi.sourceforge.net/DTD/sodipodi-0.dtd"
   xmlns:inkscape="http://www.inkscape.org/namespaces/inkscape"
   width="210mm"
   height="297mm"
   viewBox="0 0 744.09448819 1052.3622047"
   id="svg2"
   version="1.1"
   inkscape:version="0.91 r13725"
   sodipodi:docname="chipcard-print.svg"
   inkscape:export-filename="C:\Users\johannes\Documents\Arbeit\RRZE\bi-con\bi-con\scalable\documents\document.png"
   inkscape:export-xdpi="4"
   inkscape:export-ydpi="4">
  <defs
     id="defs4">
    <linearGradient
       inkscape:collect="always"
       id="linearGradient4202">
      <stop
         style="stop-color:#5a6578;stop-opacity:1;"
         offset="0"
         id="stop4204" />
      <stop
         style="stop-color:#9397a2;stop-opacity:1"
         offset="1"
         id="stop4206" />
    </linearGradient>
    <linearGradient
       id="linearGradient2224">
      <stop
         id="stop2226"
         offset="0"
         style="stop-color:#7c7c7c;stop-opacity:1;" />
      <stop
         id="stop2228"
         offset="1"
         style="stop-color:#b8b8b8;stop-opacity:1;" />
    </linearGradient>
    <linearGradient
       id="linearGradient15218">
      <stop
         id="stop15220"
         offset="0"
         style="stop-color:#eeeeef;stop-opacity:1;" />
      <stop
         id="stop2736"
         offset="0.59928656"
         style="stop-color:#d3d7cf;stop-opacity:1;" />
      <stop
         id="stop2738"
         offset="0.82758623"
         style="stop-color:#ffffff;stop-opacity:1;" />
      <stop
         id="stop15222"
         offset="1"
         style="stop-color:#d3d7cf;stop-opacity:1;" />
    </linearGradient>
    <pattern
       y="0"
       x="0"
       height="6"
       width="6"
       patternUnits="userSpaceOnUse"
       id="EMFhbasepattern" />
    <pattern
       y="0"
       x="0"
       height="6"
       width="6"
       patternUnits="userSpaceOnUse"
       id="EMFhbasepattern-5" />
    <linearGradient
       inkscape:collect="always"
       xlink:href="#linearGradient4202"
       id="linearGradient4208"
       x1="226.84613"
       y1="638.23535"
       x2="454.33087"
       y2="458.06842"
       gradientUnits="userSpaceOnUse"
       gradientTransform="matrix(1.1105301,0,0,1.1105301,-40.740259,-34.162135)" />
  </defs>
  <sodipodi:namedview
     id="base"
     pagecolor="#ffffff"
     bordercolor="#666666"
     borderopacity="1.0"
     inkscape:pageopacity="0.0"
     inkscape:pageshadow="2"
     inkscape:zoom="0.36500001"
     inkscape:cx="87.068886"
     inkscape:cy="407.97867"
     inkscape:document-units="px"
     inkscape:current-layer="layer1"
     showgrid="false"
     showguides="true"
     inkscape:guide-bbox="true"
     inkscape:window-width="1366"
     inkscape:window-height="721"
     inkscape:window-x="-4"
     inkscape:window-y="-4"
     inkscape:window-maximized="1">
    <sodipodi:guide
       position="315.53572,730.17859"
       orientation="0,1"
       id="guide3338" />
    <sodipodi:guide
       position="351.25,330.17858"
       orientation="0,1"
       id="guide3340" />
    <sodipodi:guide
       position="189.10714,408.8393"
       orientation="1,0"
       id="guide3344" />
    <sodipodi:guide
       position="589.04521,468.07945"
       orientation="1,0"
       id="guide3346" />
    <inkscape:grid
       type="xygrid"
       id="grid3440" />
    <sodipodi:guide
       position="589.04521,378.30213"
       orientation="1,0"
       id="guide3411" />
  </sodipodi:namedview>
  <metadata
     id="metadata7">
    <rdf:RDF>
      <cc:Work
         rdf:about="">
        <dc:format>image/svg+xml</dc:format>
        <dc:type
           rdf:resource="http://purl.org/dc/dcmitype/StillImage" />
        <dc:title></dc:title>
      </cc:Work>
    </rdf:RDF>
  </metadata>
  <g
     inkscape:label="Ebene 1"
     inkscape:groupmode="layer"
     id="layer1">
    <rect
       style="fill:none;fill-rule:evenodd;stroke:none;stroke-width:1px;stroke-linecap:butt;stroke-linejoin:miter;stroke-opacity:1"
       id="rect3336"
       width="400"
       height="400"
       x="189.14485"
       y="322.27005"
       inkscape:export-xdpi="4.9499998"
       inkscape:export-ydpi="4.9499998" />
    <g
       id="g4197"
       transform="matrix(1.0456385,-0.07484384,0.07484384,1.0456385,-72.171446,1.9729856)" />
    <g
       id="g4165"
       transform="translate(0,-69.616655)">
      <path
         inkscape:connector-curvature="0"
         id="rect3789"
         d="m 230.62567,457.29484 318.07897,0 c 22.69212,0 40.96051,18.26838 40.96051,40.96051 l 0,182.763 c 0,22.69212 -18.26839,40.96051 -40.96051,40.96051 l -318.07897,0 c -22.69213,0 -40.96053,-18.26839 -40.96053,-40.96051 l 0,-182.763 c 0,-22.69213 18.2684,-40.96051 40.96053,-40.96051 z"
         style="fill:url(#linearGradient4208);fill-opacity:1;stroke:none;stroke-width:16.95400047;stroke-linecap:round;stroke-linejoin:round;stroke-miterlimit:4;stroke-dasharray:none;stroke-dashoffset:0;stroke-opacity:1" />
      <rect
         style="fill:#ffffff"
         id="rect9"
         height="17.019699"
         width="19.265902"
         y="574.65741"
         x="262.27112" />
      <rect
         style="fill:#ffffff"
         id="rect11"
         height="17.019699"
         width="19.264441"
         y="574.65741"
         x="214.0574" />
      <path
         style="fill:#ffffff"
         inkscape:connector-curvature="0"
         id="path13"
         d="m 233.32181,613.41426 0,-14.56012 -18.08799,0 c 2.60717,7.8712 9.57522,13.66282 18.08799,14.56012 z" />
      <rect
         style="fill:#ffffff"
         id="rect15"
         height="14.786649"
         width="14.61274"
         y="598.85413"
         x="240.49448" />
      <path
         style="fill:#ffffff"
         inkscape:connector-curvature="0"
         id="path17"
         d="m 280.36055,598.85414 -18.08946,0 0,14.56012 c 8.51277,-0.8973 15.48082,-6.68892 18.08946,-14.56012 z" />
      <path
         style="fill:#ffffff"
         inkscape:connector-curvature="0"
         id="path19"
         d="m 255.10575,567.48914 3.58924,0 3.5761,0 18.64187,0 c -2.23305,-9.48754 -10.7049,-16.57105 -20.88223,-16.57105 l -19.54357,0 0,40.76777 14.61274,0 0,-24.19672 0.006,0 z" />
      <path
         style="fill:#ffffff"
         inkscape:connector-curvature="0"
         id="path21"
         d="m 233.32181,551.1373 c -9.14994,0.95723 -16.57543,7.57747 -18.64187,16.35184 l 18.64187,0 0,-16.35184 z" />
      <rect
         ry="15.068493"
         y="492.77316"
         x="213.69862"
         height="36.301369"
         width="353.42465"
         id="rect4268"
         style="color:#000000;clip-rule:nonzero;display:inline;overflow:visible;visibility:visible;opacity:1;isolation:auto;mix-blend-mode:normal;color-interpolation:sRGB;color-interpolation-filters:linearRGB;solid-color:#000000;solid-opacity:1;fill:#ffffff;fill-opacity:1;fill-rule:nonzero;stroke:none;stroke-width:23;stroke-linecap:butt;stroke-linejoin:miter;stroke-miterlimit:4;stroke-dasharray:none;stroke-dashoffset:0;stroke-opacity:1;color-rendering:auto;image-rendering:auto;shape-rendering:auto;text-rendering:auto;enable-background:accumulate" />
      <rect
         ry="15.068493"
         y="550.6499"
         x="301.36984"
         height="36.301369"
         width="263.34119"
         id="rect4268-4"
         style="color:#000000;clip-rule:nonzero;display:inline;overflow:visible;visibility:visible;opacity:1;isolation:auto;mix-blend-mode:normal;color-interpolation:sRGB;color-interpolation-filters:linearRGB;solid-color:#000000;solid-opacity:1;fill:#ffffff;fill-opacity:1;fill-rule:nonzero;stroke:none;stroke-width:23;stroke-linecap:butt;stroke-linejoin:miter;stroke-miterlimit:4;stroke-dasharray:none;stroke-dashoffset:0;stroke-opacity:1;color-rendering:auto;image-rendering:auto;shape-rendering:auto;text-rendering:auto;enable-background:accumulate" />
    </g>
    <g
       id="g4226"
       style="stroke:#ffffff;stroke-width:23;stroke-miterlimit:4;stroke-dasharray:none;stroke-linejoin:round">
      <path
         style="color:#000000;clip-rule:nonzero;display:inline;overflow:visible;visibility:visible;opacity:1;isolation:auto;mix-blend-mode:normal;color-interpolation:sRGB;color-interpolation-filters:linearRGB;solid-color:#000000;solid-opacity:1;fill:#ffffff;fill-opacity:1;fill-rule:nonzero;stroke:#ffffff;stroke-width:23;stroke-linecap:butt;stroke-linejoin:round;stroke-miterlimit:4;stroke-dasharray:none;stroke-dashoffset:0;stroke-opacity:1;color-rendering:auto;image-rendering:auto;shape-rendering:auto;text-rendering:auto;enable-background:accumulate"
         d="m 412.23,490.88545 c -12.01737,0 -21.69201,9.67463 -21.69201,21.69201 l 0,8.4178 c 0,0.25771 0.0102,0.51345 0.019,0.76893 l -1.29505,0 0,21.86528 151.55197,0 0,-21.86528 -0.23144,0 c 0.009,-0.25548 0.019,-0.51122 0.019,-0.76893 l 0,-8.4178 c 0,-12.01738 -9.67464,-21.69201 -21.69202,-21.69201 l -106.6794,0 z"
         id="path4228"
         inkscape:connector-curvature="0" />
      <path
         style="opacity:1;fill:#abbe24;fill-opacity:1;stroke:#ffffff;stroke-width:23;stroke-linecap:round;stroke-linejoin:round;stroke-miterlimit:4;stroke-dasharray:none;stroke-opacity:1"
         d="m 402.21244,488.781 c -7.59658,0 -13.45917,6.11988 -13.71225,13.71224 l 0,41.13676 6.85613,0 0,-34.28063 c 0,-7.59659 6.11566,-13.71225 13.71225,-13.71225 l 112.44044,0 c 7.59659,0 13.40862,6.12173 13.71225,13.71225 l 0,34.28063 6.85613,0 0,-41.13676 c 0,-7.59658 -6.11567,-13.71224 -13.71225,-13.71224 z m -19.19714,61.70511 0,0.075 -27.4245,0 c -7.59658,0 -13.71225,6.11567 -13.71225,13.71225 l 0,68.56125 c 0,7.59658 6.11567,13.71224 13.71225,13.71224 l 219.39598,0 c 7.59658,0 13.71225,-6.11566 13.71225,-13.71224 l 0,-68.56125 c 0,-7.59658 -6.11567,-13.71225 -13.71225,-13.71225 l -27.42449,0 0,-0.075 -6.85613,0 0,0.075 -150.83474,0 0,-0.075 z"
         id="path4230"
         inkscape:connector-curvature="0"
         sodipodi:nodetypes="ssccssssccsssccssssssssccccccc" />
      <path
         inkscape:connector-curvature="0"
         style="opacity:1;fill:#abbe24;fill-opacity:1;stroke:#ffffff;stroke-width:23;stroke-linecap:round;stroke-linejoin:round;stroke-miterlimit:4;stroke-dasharray:none;stroke-opacity:1"
         d="m 528.40673,721.88923 c 7.59658,0 13.56034,-6.11718 13.71225,-13.71225 l 0,-68.56124 -6.85613,0 0,61.70512 c 0,7.59659 -6.11567,13.71225 -13.71225,13.71225 l -112.44045,0 c -7.59658,0 -13.54347,-6.11754 -13.71224,-13.71225 l 0,-61.70512 -6.85613,0 0,68.56124 c 0,7.59659 6.11566,13.71225 13.71225,13.71225 z"
         id="path4232"
         sodipodi:nodetypes="ssccssssccsss" />
      <path
         style="opacity:1;fill:#ffffff;fill-opacity:1;stroke:#ffffff;stroke-width:23;stroke-linecap:round;stroke-linejoin:round;stroke-miterlimit:4;stroke-dasharray:none;stroke-opacity:1"
         d="m 406.30889,593.68029 117.45777,0 c 6.63747,0 11.98099,5.34352 11.98099,11.98099 l 0,97.29101 c 0,6.63747 -5.34352,11.98099 -11.98099,11.98099 l -117.45777,0 c -6.63747,0 -11.98099,-5.34352 -11.98099,-11.98099 l 0,-97.29101 c 0,-6.63747 5.34352,-11.98099 11.98099,-11.98099 z"
         id="path4234"
         inkscape:connector-curvature="0"
         sodipodi:nodetypes="ssssssccs" />
      <rect
         style="opacity:1;fill:#abbe24;fill-opacity:1;stroke:#ffffff;stroke-width:23;stroke-linecap:round;stroke-linejoin:round;stroke-miterlimit:4;stroke-dasharray:none;stroke-opacity:1"
         id="rect4237"
         width="119.98218"
         height="6.8561244"
         x="403.58368"
         y="605.33569"
         ry="3.4280622" />
      <rect
         style="opacity:1;fill:#abbe24;fill-opacity:1;stroke:#ffffff;stroke-width:23;stroke-linecap:round;stroke-linejoin:round;stroke-miterlimit:4;stroke-dasharray:none;stroke-opacity:1"
         id="rect4239"
         width="109.69799"
         height="6.8561244"
         x="403.58368"
         y="621.79041"
         ry="3.4280622" />
      <rect
         style="opacity:1;fill:#abbe24;fill-opacity:1;stroke:#ffffff;stroke-width:23;stroke-linecap:round;stroke-linejoin:round;stroke-miterlimit:4;stroke-dasharray:none;stroke-opacity:1"
         id="rect4241"
         width="123.41025"
         height="6.8561244"
         x="403.58368"
         y="638.24512"
         ry="3.4280622" />
      <rect
         style="opacity:1;fill:#abbe24;fill-opacity:1;stroke:#ffffff;stroke-width:23;stroke-linecap:round;stroke-linejoin:round;stroke-miterlimit:4;stroke-dasharray:none;stroke-opacity:1"
         id="rect4243"
         width="61.705124"
         height="6.8561244"
         x="403.58368"
         y="654.69983"
         ry="3.4280622" />
      <circle
         style="opacity:1;fill:#5a6578;fill-opacity:1;stroke:#ffffff;stroke-width:23;stroke-linecap:round;stroke-linejoin:round;stroke-miterlimit:4;stroke-dasharray:none;stroke-opacity:1"
         id="circle4245"
         cx="566.41663"
         cy="565.91302"
         r="8.5701551" />
    </g>
    <g
       id="g4215">
      <path
         inkscape:connector-curvature="0"
         id="rect4162"
         d="m 412.23,490.88545 c -12.01737,0 -21.69201,9.67463 -21.69201,21.69201 l 0,8.4178 c 0,0.25771 0.0102,0.51345 0.019,0.76893 l -1.29505,0 0,21.86528 151.55197,0 0,-21.86528 -0.23144,0 c 0.009,-0.25548 0.019,-0.51122 0.019,-0.76893 l 0,-8.4178 c 0,-12.01738 -9.67464,-21.69201 -21.69202,-21.69201 l -106.6794,0 z"
         style="color:#000000;clip-rule:nonzero;display:inline;overflow:visible;visibility:visible;opacity:1;isolation:auto;mix-blend-mode:normal;color-interpolation:sRGB;color-interpolation-filters:linearRGB;solid-color:#000000;solid-opacity:1;fill:#ffffff;fill-opacity:1;fill-rule:nonzero;stroke:none;stroke-width:23;stroke-linecap:butt;stroke-linejoin:miter;stroke-miterlimit:4;stroke-dasharray:none;stroke-dashoffset:0;stroke-opacity:1;color-rendering:auto;image-rendering:auto;shape-rendering:auto;text-rendering:auto;enable-background:accumulate" />
      <path
         sodipodi:nodetypes="ssccssssccsssccssssssssccccccc"
         inkscape:connector-curvature="0"
         id="rect4188"
         d="m 402.21244,488.781 c -7.59658,0 -13.45917,6.11988 -13.71225,13.71224 l 0,41.13676 6.85613,0 0,-34.28063 c 0,-7.59659 6.11566,-13.71225 13.71225,-13.71225 l 112.44044,0 c 7.59659,0 13.40862,6.12173 13.71225,13.71225 l 0,34.28063 6.85613,0 0,-41.13676 c 0,-7.59658 -6.11567,-13.71224 -13.71225,-13.71224 z m -19.19714,61.70511 0,0.075 -27.4245,0 c -7.59658,0 -13.71225,6.11567 -13.71225,13.71225 l 0,68.56125 c 0,7.59658 6.11567,13.71224 13.71225,13.71224 l 219.39598,0 c 7.59658,0 13.71225,-6.11566 13.71225,-13.71224 l 0,-68.56125 c 0,-7.59658 -6.11567,-13.71225 -13.71225,-13.71225 l -27.42449,0 0,-0.075 -6.85613,0 0,0.075 -150.83474,0 0,-0.075 z"
         style="opacity:1;fill:#abbe24;fill-opacity:1;stroke:none;stroke-width:16;stroke-linecap:round;stroke-linejoin:round;stroke-miterlimit:4;stroke-dasharray:none;stroke-opacity:1" />
      <path
         sodipodi:nodetypes="ssccssssccsss"
         id="rect4188-5"
         d="m 528.40673,721.88923 c 7.59658,0 13.56034,-6.11718 13.71225,-13.71225 l 0,-68.56124 -6.85613,0 0,61.70512 c 0,7.59659 -6.11567,13.71225 -13.71225,13.71225 l -112.44045,0 c -7.59658,0 -13.54347,-6.11754 -13.71224,-13.71225 l 0,-61.70512 -6.85613,0 0,68.56124 c 0,7.59659 6.11566,13.71225 13.71225,13.71225 z"
         style="opacity:1;fill:#abbe24;fill-opacity:1;stroke:none;stroke-width:16;stroke-linecap:round;stroke-linejoin:round;stroke-miterlimit:4;stroke-dasharray:none;stroke-opacity:1"
         inkscape:connector-curvature="0" />
      <path
         sodipodi:nodetypes="ssssssccs"
         inkscape:connector-curvature="0"
         id="rect4236"
         d="m 406.30889,593.68029 117.45777,0 c 6.63747,0 11.98099,5.34352 11.98099,11.98099 l 0,97.29101 c 0,6.63747 -5.34352,11.98099 -11.98099,11.98099 l -117.45777,0 c -6.63747,0 -11.98099,-5.34352 -11.98099,-11.98099 l 0,-97.29101 c 0,-6.63747 5.34352,-11.98099 11.98099,-11.98099 z"
         style="opacity:1;fill:#ffffff;fill-opacity:1;stroke:none;stroke-width:16;stroke-linecap:round;stroke-linejoin:round;stroke-miterlimit:4;stroke-dasharray:none;stroke-opacity:1" />
      <rect
         ry="3.4280622"
         y="605.33569"
         x="403.58368"
         height="6.8561244"
         width="119.98218"
         id="rect4238"
         style="opacity:1;fill:#abbe24;fill-opacity:1;stroke:none;stroke-width:16;stroke-linecap:round;stroke-linejoin:round;stroke-miterlimit:4;stroke-dasharray:none;stroke-opacity:1" />
      <rect
         ry="3.4280622"
         y="621.79041"
         x="403.58368"
         height="6.8561244"
         width="109.69799"
         id="rect4244"
         style="opacity:1;fill:#abbe24;fill-opacity:1;stroke:none;stroke-width:16;stroke-linecap:round;stroke-linejoin:round;stroke-miterlimit:4;stroke-dasharray:none;stroke-opacity:1" />
      <rect
         ry="3.4280622"
         y="638.24512"
         x="403.58368"
         height="6.8561244"
         width="123.41025"
         id="rect4246"
         style="opacity:1;fill:#abbe24;fill-opacity:1;stroke:none;stroke-width:16;stroke-linecap:round;stroke-linejoin:round;stroke-miterlimit:4;stroke-dasharray:none;stroke-opacity:1" />
      <rect
         ry="3.4280622"
         y="654.69983"
         x="403.58368"
         height="6.8561244"
         width="61.705124"
         id="rect4248"
         style="opacity:1;fill:#abbe24;fill-opacity:1;stroke:none;stroke-width:16;stroke-linecap:round;stroke-linejoin:round;stroke-miterlimit:4;stroke-dasharray:none;stroke-opacity:1" />
      <circle
         r="8.5701551"
         cy="565.91302"
         cx="566.41663"
         id="path4251"
         style="opacity:1;fill:#5a6578;fill-opacity:1;stroke:none;stroke-width:16;stroke-linecap:round;stroke-linejoin:round;stroke-miterlimit:4;stroke-dasharray:none;stroke-opacity:1" />
    </g>
  </g>
</svg>
