<?xml version="1.0" encoding="UTF-8" standalone="no"?>
<!-- Created with Inkscape (http://www.inkscape.org/) -->

<svg
   xmlns:dc="http://purl.org/dc/elements/1.1/"
   xmlns:cc="http://creativecommons.org/ns#"
   xmlns:rdf="http://www.w3.org/1999/02/22-rdf-syntax-ns#"
   xmlns:svg="http://www.w3.org/2000/svg"
   xmlns="http://www.w3.org/2000/svg"
   xmlns:xlink="http://www.w3.org/1999/xlink"
   xmlns:sodipodi="http://sodipodi.sourceforge.net/DTD/sodipodi-0.dtd"
   xmlns:inkscape="http://www.inkscape.org/namespaces/inkscape"
   width="210mm"
   height="297mm"
   viewBox="0 0 744.09448819 1052.3622047"
   id="svg2"
   version="1.1"
   inkscape:version="0.91 r13725"
   inkscape:export-xdpi="7.1996322"
   inkscape:export-ydpi="7.1996322"
   sodipodi:docname="chipcard-expired.svg"
   inkscape:export-filename="C:\Users\johannes\Documents\Arbeit\RRZE\github3\bicons\32x32\emblems\chipcard-expired.png">
  <defs
     id="defs4">
    <linearGradient
       inkscape:collect="always"
       xlink:href="#linearGradient4321"
       id="linearGradient4208"
       x1="226.84613"
       y1="638.23535"
       x2="454.33087"
       y2="458.06842"
       gradientUnits="userSpaceOnUse"
       gradientTransform="matrix(1.009587,0,0,0.98480491,-2.17526,-30.914567)" />
    <linearGradient
       id="linearGradient4321"
       inkscape:collect="always">
      <stop
         id="stop4323"
         offset="0"
         style="stop-color:#4e505d;stop-opacity:1;" />
      <stop
         id="stop4325"
         offset="1"
         style="stop-color:#7a8597;stop-opacity:1" />
    </linearGradient>
  </defs>
  <sodipodi:namedview
     id="base"
     pagecolor="#ffffff"
     bordercolor="#666666"
     borderopacity="1.0"
     inkscape:pageopacity="0.0"
     inkscape:pageshadow="2"
     inkscape:zoom="0.73"
     inkscape:cx="165.56152"
     inkscape:cy="531.7836"
     inkscape:document-units="px"
     inkscape:current-layer="layer1"
     showgrid="false"
     showguides="true"
     inkscape:guide-bbox="true"
     inkscape:window-width="1366"
     inkscape:window-height="721"
     inkscape:window-x="-4"
     inkscape:window-y="-4"
     inkscape:window-maximized="1"
     inkscape:snap-bbox="true"
     inkscape:bbox-paths="true"
     inkscape:bbox-nodes="true"
     inkscape:snap-global="false">
    <sodipodi:guide
       position="315.53572,730.17859"
       orientation="0,1"
       id="guide3338" />
    <sodipodi:guide
       position="351.25,330.17858"
       orientation="0,1"
       id="guide3340" />
    <sodipodi:guide
       position="189.10714,408.8393"
       orientation="1,0"
       id="guide3344" />
    <sodipodi:guide
       position="589.04521,468.07945"
       orientation="1,0"
       id="guide3346" />
    <inkscape:grid
       type="xygrid"
       id="grid3440" />
    <sodipodi:guide
       position="589.04521,378.30213"
       orientation="1,0"
       id="guide3411" />
  </sodipodi:namedview>
  <metadata
     id="metadata7">
    <rdf:RDF>
      <cc:Work
         rdf:about="">
        <dc:format>image/svg+xml</dc:format>
        <dc:type
           rdf:resource="http://purl.org/dc/dcmitype/StillImage" />
        <dc:title>chipcard expired</dc:title>
        <dc:date>June 2015</dc:date>
        <dc:creator>
          <cc:Agent>
            <dc:title>Johannes Hechler</dc:title>
          </cc:Agent>
        </dc:creator>
        <dc:rights>
          <cc:Agent>
            <dc:title>Johannes Hechler</dc:title>
          </cc:Agent>
        </dc:rights>
        <dc:publisher>
          <cc:Agent>
            <dc:title>RRZE</dc:title>
          </cc:Agent>
        </dc:publisher>
        <dc:contributor>
          <cc:Agent>
            <dc:title>Ute Weber, Hendrik Eggers, Joanna Barbach</dc:title>
          </cc:Agent>
        </dc:contributor>
        <dc:subject>
          <rdf:Bag>
            <rdf:li>chip card</rdf:li>
            <rdf:li>chip</rdf:li>
            <rdf:li>creditcard</rdf:li>
            <rdf:li>expired</rdf:li>
            <rdf:li>student ID</rdf:li>
            <rdf:li>ID</rdf:li>
            <rdf:li>faucard</rdf:li>
          </rdf:Bag>
        </dc:subject>
        <cc:license
           rdf:resource="http://creativecommons.org/licenses/by-sa/3.0/" />
      </cc:Work>
      <cc:License
         rdf:about="http://creativecommons.org/licenses/by-sa/3.0/">
        <cc:permits
           rdf:resource="http://creativecommons.org/ns#Reproduction" />
        <cc:permits
           rdf:resource="http://creativecommons.org/ns#Distribution" />
        <cc:requires
           rdf:resource="http://creativecommons.org/ns#Notice" />
        <cc:requires
           rdf:resource="http://creativecommons.org/ns#Attribution" />
        <cc:permits
           rdf:resource="http://creativecommons.org/ns#DerivativeWorks" />
        <cc:requires
           rdf:resource="http://creativecommons.org/ns#ShareAlike" />
      </cc:License>
    </rdf:RDF>
  </metadata>
  <g
     inkscape:label="Ebene 1"
     inkscape:groupmode="layer"
     id="layer1">
    <g
       id="g4276">
      <rect
         inkscape:export-ydpi="3.5999999"
         inkscape:export-xdpi="3.5999999"
         y="322.345"
         x="189.10713"
         height="400"
         width="400"
         id="rect3336"
         style="fill:none;fill-rule:evenodd;stroke:none;stroke-width:1px;stroke-linecap:butt;stroke-linejoin:miter;stroke-opacity:1" />
      <rect
         inkscape:export-ydpi="4.9499998"
         inkscape:export-xdpi="4.9499998"
         y="322.18362"
         x="189.12758"
         height="400"
         width="400"
         id="rect3336-4"
         style="fill:none;fill-rule:evenodd;stroke:none;stroke-width:1px;stroke-linecap:butt;stroke-linejoin:miter;stroke-opacity:1" />
      <path
         id="rect3789"
         d="m 244.52539,404.9043 c -20.6295,0 -37.23828,16.19915 -37.23828,36.32226 l 0,162.07227 c 0,20.1231 16.60878,36.32422 37.23828,36.32422 l 102.15234,0 c -2.53184,-10.29768 -3.82999,-20.88637 -3.83007,-31.54102 a 18.0018,18.0018 0 0 1 0,-0.16601 c 0.0211,-2.27562 0.10361,-4.55079 0.24218,-6.82227 1.10627,-20.29043 6.87727,-40.05421 16.86719,-57.75 a 18.0018,18.0018 0 0 0 0.002,-0.002 c 2.12605,-3.77692 4.43699,-7.44829 6.92383,-10.99805 a 18.0018,18.0018 0 0 1 0.10352,-0.14453 c 0.0565,-0.0789 0.11332,-0.15753 0.16992,-0.23633 2.41512,-3.42283 4.99142,-6.72827 7.7207,-9.90625 a 18.0018,18.0018 0 0 1 0.084,-0.0977 c 0.16576,-0.19022 0.33315,-0.38104 0.5,-0.57031 l 0.004,-0.004 c 2.64252,-3.03503 5.4236,-5.94727 8.33204,-8.72852 a 18.0018,18.0018 0 0 1 0.0918,-0.0898 c 0.32752,-0.30877 0.65763,-0.61452 0.98828,-0.91993 2.78833,-2.60883 5.68764,-5.09555 8.69141,-7.45312 a 18.0018,18.0018 0 0 1 0.0996,-0.0781 c 0.52555,-0.4066 1.05431,-0.8084 1.58594,-1.20703 0.008,-0.006 0.0174,-0.0116 0.0254,-0.0176 2.8685,-2.17893 5.82242,-4.24045 8.85937,-6.17773 a 18.0018,18.0018 0 0 1 0.1211,-0.0762 c 0.73491,-0.46062 1.47685,-0.91332 2.2207,-1.35938 2.68919,-1.6385 5.44111,-3.16921 8.24023,-4.61132 0.38927,-0.21963 0.77837,-0.43866 1.16992,-0.6543 a 18.0018,18.0018 0 0 1 2.94922,-1.28906 c 10.6146,-4.98735 21.83374,-8.54028 33.38672,-10.5625 a 18.0018,18.0018 0 0 1 2.26367,-0.51172 c 1.44221,-0.2172 2.8893,-0.40685 4.33789,-0.57617 4.64518,-0.59967 9.3242,-0.84987 14.00586,-0.95313 a 18.0018,18.0018 0 0 1 0.55079,-0.0586 l -0.006,0.0215 c 0.40546,-0.007 0.80732,-0.078 1.21289,-0.082 a 18.0018,18.0018 0 0 1 0.35156,-0.0176 c 2.69286,9e-5 5.38269,0.12052 8.07031,0.28516 l 1.27344,0.0449 a 18.0018,18.0018 0 0 1 0.004,0 c 3.90509,0.277 7.78773,0.79353 11.65234,1.41602 a 18.0018,18.0018 0 0 1 0.94141,0.11328 c 0.16954,0.0286 0.34228,0.0333 0.51171,0.0625 l -0.26953,-0.0234 a 18.0018,18.0018 0 0 1 0.96485,0.15625 c 0.96616,0.20593 1.92932,0.42284 2.89062,0.65039 6.0011,1.21665 11.91443,2.83836 17.68946,4.875 l 0.01,0.004 c 1.19453,0.38151 2.38711,0.77212 3.57031,1.1875 l -0.11914,-0.0195 a 18.0018,18.0018 0 0 1 0.67969,0.2246 c 4.09739,1.59286 8.11299,3.39154 12.03125,5.38477 0.006,0.003 0.0135,0.005 0.0195,0.008 a 18.0018,18.0018 0 0 1 0.006,0.004 c 3.38647,1.72407 6.65798,3.66073 9.88281,5.66992 a 18.0018,18.0018 0 0 1 0.008,0.004 18.0018,18.0018 0 0 1 1.56054,0.89453 c 3.70545,2.37943 7.29081,4.94421 10.74024,7.68164 a 18.0018,18.0018 0 0 0 0.002,0.002 18.0018,18.0018 0 0 1 0.76172,0.66797 c 3.16435,2.5512 6.23829,5.21268 9.1543,8.04492 a 18.0018,18.0018 0 0 0 0.002,0 18.0018,18.0018 0 0 1 0.0195,0.0215 c 1.33996,1.30194 2.64528,2.63793 3.92773,3.99609 l 0,-76.11133 c 0,-20.12311 -16.60683,-36.32226 -37.23632,-36.32226 l -289.16602,0 z M 475.0332,511.98633 c -3.88481,0.0287 -7.76434,0.2927 -11.61718,0.79101 a 18.0018,18.0018 0 0 1 -0.25,0.0293 c -0.77381,0.0891 -1.54503,0.20068 -2.31641,0.30859 a 18.0018,18.0018 0 0 1 -0.86719,0.18165 c -9.53734,1.50778 -18.79296,4.44453 -27.45508,8.71093 a 18.0018,18.0018 0 0 1 -0.63086,0.28907 18.0018,18.0018 0 0 1 -0.23437,0.125 c -2.2025,1.11975 -4.36103,2.32323 -6.4707,3.60937 a 18.0018,18.0018 0 0 1 -0.12696,0.0762 c -0.53245,0.31866 -1.06171,0.64374 -1.58789,0.97266 -2.20729,1.40895 -4.35651,2.90576 -6.4414,4.49023 a 18.0018,18.0018 0 0 1 -0.10743,0.082 c -0.39334,0.29432 -0.78308,0.59227 -1.17187,0.89258 -2.1708,1.70568 -4.26724,3.50249 -6.2832,5.38867 a 18.0018,18.0018 0 0 1 -0.0996,0.0918 c -0.24028,0.22147 -0.4788,0.44406 -0.7168,0.66797 -2.10955,2.01845 -4.12585,4.13192 -6.04297,6.33398 a 18.0018,18.0018 0 0 1 -0.084,0.0957 c -0.11399,0.12905 -0.22851,0.25901 -0.3418,0.38867 -0.005,0.005 -0.008,0.0106 -0.0117,0.0156 -1.98078,2.30737 -3.85228,4.70475 -5.60547,7.18946 a 18.0018,18.0018 0 0 1 -0.10351,0.14843 c -0.039,0.0541 -0.0783,0.10791 -0.11719,0.16211 -1.80203,2.57409 -3.4782,5.23448 -5.01953,7.97266 a 18.0018,18.0018 0 0 1 -0.33985,0.57812 l 0.31641,-0.53515 c -7.27254,12.88233 -11.47248,27.26737 -12.27344,42.03906 a 18.0018,18.0018 0 0 1 -0.008,0.13477 c -0.10098,1.63526 -0.15858,3.27384 -0.17578,4.91211 0.005,10.7369 1.81551,21.37981 5.33008,31.49414 l 149.51172,0 c 20.38505,0 36.83159,-15.82219 37.21875,-35.61328 -0.19982,-4.98977 -0.78697,-9.95781 -1.75782,-14.85938 -0.33242,-1.42977 -0.69031,-2.85451 -1.08789,-4.26758 a 18.0018,18.0018 0 0 1 -0.2207,-0.86523 c -0.33553,-1.46863 -0.71495,-2.92771 -1.11914,-4.37891 -0.69732,-2.12862 -1.4584,-4.23578 -2.30273,-6.31055 a 18.0018,18.0018 0 0 1 -0.31836,-0.84179 c -0.23612,-0.67517 -0.4852,-1.3459 -0.73633,-2.01563 -1.22629,-2.88267 -2.58407,-5.70776 -4.08594,-8.45703 a 18.0018,18.0018 0 0 1 -0.002,-0.006 c -0.002,-0.004 -0.006,-0.008 -0.008,-0.0117 -1.53362,-2.80667 -3.20601,-5.53591 -5.01171,-8.17578 -1.80573,-2.63967 -3.74295,-5.18818 -5.80274,-7.63476 a 18.0018,18.0018 0 0 1 -0.0117,-0.0117 c -2.0637,-2.44998 -4.24699,-4.79559 -6.54492,-7.02735 a 18.0018,18.0018 0 0 1 -0.004,-0.002 c -2.29767,-2.23167 -4.70395,-4.34863 -7.21289,-6.33984 a 18.0018,18.0018 0 0 0 -0.002,0 c -2.50428,-1.98737 -5.10708,-3.84817 -7.79687,-5.57617 a 18.0018,18.0018 0 0 1 -0.0195,-0.0117 c -2.69529,-1.73096 -5.47547,-3.326 -8.33007,-4.7793 l 0.11328,0.0566 a 18.0018,18.0018 0 0 1 -0.11328,-0.0586 c -2.79293,-1.42133 -5.65788,-2.69418 -8.57618,-3.83594 -0.88352,-0.30619 -1.77,-0.60645 -2.6621,-0.88672 a 18.0018,18.0018 0 0 1 -0.5918,-0.19727 c -4.358,-1.53728 -8.8218,-2.75725 -13.35547,-3.65234 a 18.0018,18.0018 0 0 1 -0.66016,-0.14453 c -0.53487,-0.12661 -1.07045,-0.24392 -1.60742,-0.36133 -3.09226,-0.52679 -6.20692,-0.91275 -9.33594,-1.13476 a 18.0018,18.0018 0 0 1 -0.006,0 c -2.23186,-0.15833 -4.46957,-0.23433 -6.70703,-0.23633 z"
         style="fill:url(#linearGradient4208);fill-opacity:1;stroke:none;stroke-width:16.95400047;stroke-linecap:round;stroke-linejoin:round;stroke-miterlimit:4;stroke-dasharray:none;stroke-dashoffset:0;stroke-opacity:1"
         inkscape:connector-curvature="0" />
      <rect
         style="fill:#f1f300;fill-opacity:1"
         id="rect9"
         height="14.892237"
         width="16.857664"
         y="515.64337"
         x="276.63199" />
      <rect
         style="fill:#f1f300;fill-opacity:1"
         id="rect11"
         height="14.892237"
         width="16.856384"
         y="515.64337"
         x="234.44496" />
      <path
         style="fill:#f1f300;fill-opacity:1"
         inkscape:connector-curvature="0"
         id="path13"
         d="m 251.30132,549.55559 0,-12.74011 -15.82699,0 c 2.28127,6.8873 8.37832,11.95497 15.82699,12.74011 z" />
      <rect
         style="fill:#f1f300;fill-opacity:1"
         id="rect15"
         height="12.938317"
         width="12.786147"
         y="536.81555"
         x="257.57742" />
      <path
         style="fill:#f1f300;fill-opacity:1"
         inkscape:connector-curvature="0"
         id="path17"
         d="m 292.46022,536.81548 -15.82828,0 0,12.74011 c 7.44867,-0.78514 13.54572,-5.85281 15.82828,-12.74011 z" />
      <path
         style="fill:#f1f300;fill-opacity:1"
         inkscape:connector-curvature="0"
         id="path19"
         d="m 270.36227,509.37111 3.14058,0 3.12909,0 16.31164,0 c -1.95392,-8.3016 -9.36679,-14.49967 -18.27195,-14.49967 l -17.10063,0 0,35.6718 12.78615,0 0,-21.17213 0.005,0 z" />
      <path
         style="fill:#f1f300;fill-opacity:1"
         inkscape:connector-curvature="0"
         id="path21"
         d="m 251.30132,495.06325 c -8.0062,0.83758 -14.5035,6.63029 -16.31163,14.30786 l 16.31163,0 0,-14.30786 z" />
      <rect
         ry="9.0899925"
         y="443.4436"
         x="235.64713"
         height="18.179996"
         width="298.87997"
         id="rect4238"
         style="color:#252525;clip-rule:nonzero;display:inline;overflow:visible;visibility:visible;opacity:0.98000004;isolation:auto;mix-blend-mode:normal;color-interpolation:sRGB;color-interpolation-filters:linearRGB;solid-color:#252525;solid-opacity:1;fill:#ffffff;fill-opacity:1;fill-rule:nonzero;stroke:none;stroke-width:50;stroke-linecap:square;stroke-linejoin:round;stroke-miterlimit:4;stroke-dasharray:none;stroke-dashoffset:0;stroke-opacity:1;color-rendering:auto;image-rendering:auto;shape-rendering:auto;text-rendering:auto;enable-background:accumulate" />
      <path
         id="rect4240"
         d="m 325.45703,493.98438 c -5.03586,0 -9.08984,4.05397 -9.08984,9.08984 0,5.03586 4.05398,9.08984 9.08984,9.08984 l 34.22461,0 c 0.50956,-0.6129 1.01771,-1.22722 1.53711,-1.83203 0,0 0.002,-0.002 0.002,-0.002 0.0441,-0.0516 0.0884,-0.103 0.13282,-0.1543 a 18.0018,18.0018 0 0 1 0.0371,-0.043 c 0.16843,-0.19327 0.33374,-0.38173 0.49805,-0.56836 0.007,-0.008 0.0145,-0.0135 0.0215,-0.0215 0.002,-0.003 0.004,-0.006 0.006,-0.008 0.0142,-0.0164 0.0287,-0.0325 0.043,-0.0488 a 18.0018,18.0018 0 0 1 0.0117,-0.0117 c 2.98111,-3.4183 6.11382,-6.69835 9.38672,-9.82813 a 18.0018,18.0018 0 0 1 0.1836,-0.17773 c 0.37435,-0.35292 0.71749,-0.66965 1.03906,-0.9668 1.65062,-1.54436 3.33783,-3.04924 5.05664,-4.51757 l -52.17969,0 z m 157.68945,0.29882 c 0.4903,0.0354 0.95901,0.13388 1.44727,0.17578 -0.4586,-0.0411 -0.97854,-0.14298 -1.42969,-0.17578 l -0.0176,0 z m -24.81836,1.01172 c -0.34159,0.0475 -0.69889,0.0865 -1.03515,0.13672 a 18.0018,18.0018 0 0 1 -1.61328,0.37891 c 0.50008,-0.0859 0.99075,-0.21367 1.49219,-0.29297 l -0.44532,0.0762 a 18.0018,18.0018 0 0 1 1.60156,-0.29883 z m 35.80274,0.32227 a 18.0018,18.0018 0 0 1 0.79687,0.15625 c -0.13387,-0.0293 -0.26851,-0.061 -0.40234,-0.0899 a 18.0018,18.0018 0 0 1 -0.28125,-0.0527 c 0.20902,0.0377 -0.10628,-0.0157 -0.11328,-0.0137 z m 10.70898,2.46875 c 1.322,0.36147 2.63837,0.74695 3.94727,1.15625 -1.30792,-0.40852 -2.62552,-0.79488 -3.94727,-1.15625 z m 3.94727,1.15625 c 1.3089,0.40929 2.61033,0.8424 3.9043,1.29883 l 0.002,0 c 0.16995,0.0534 0.30293,0.10305 0.46875,0.15625 a 18.0018,18.0018 0 0 1 -1.15234,-0.41602 l 0.67578,0.25586 c -1.29151,-0.45547 -2.59132,-0.88663 -3.89844,-1.29492 z m 7.06641,2.34961 a 18.0018,18.0018 0 0 1 0.66406,0.24414 c -0.0624,-0.0244 -0.1212,-0.0577 -0.1836,-0.082 a 18.0018,18.0018 0 0 1 -0.0449,-0.0176 c -0.007,-0.003 -0.0164,-0.005 -0.0234,-0.008 -0.12633,-0.0443 -0.28272,-0.0921 -0.4121,-0.13672 z m -89.89454,3.64843 a 18.0018,18.0018 0 0 1 -1.41015,0.55274 18.0018,18.0018 0 0 1 -0.004,0.002 c -0.15372,0.0847 -0.31941,0.17878 -0.47851,0.26758 a 18.0018,18.0018 0 0 1 -0.22657,0.13867 l -0.38086,0.20313 a 18.0018,18.0018 0 0 1 1.11524,-0.54492 c 0.003,-0.002 0.007,-0.002 0.01,-0.004 0.45112,-0.22214 0.9212,-0.39918 1.375,-0.61524 z m -12.04882,6.5918 c -0.0295,0.0184 -0.0624,0.0382 -0.0918,0.0566 -0.009,0.006 -0.0183,0.0135 -0.0273,0.0195 a 18.0018,18.0018 0 0 1 0.11914,-0.0762 z"
         style="color:#252525;clip-rule:nonzero;display:inline;overflow:visible;visibility:visible;opacity:0.98000004;isolation:auto;mix-blend-mode:normal;color-interpolation:sRGB;color-interpolation-filters:linearRGB;solid-color:#252525;solid-opacity:1;fill:#ffffff;fill-opacity:1;fill-rule:nonzero;stroke:none;stroke-width:50;stroke-linecap:square;stroke-linejoin:round;stroke-miterlimit:4;stroke-dasharray:none;stroke-dashoffset:0;stroke-opacity:1;color-rendering:auto;image-rendering:auto;shape-rendering:auto;text-rendering:auto;enable-background:accumulate"
         inkscape:connector-curvature="0" />
      <g
         id="g4182">
        <path
           style="opacity:1;fill:#99b000;fill-opacity:1;stroke:none;stroke-width:16;stroke-linecap:round;stroke-linejoin:round;stroke-miterlimit:4;stroke-dasharray:none;stroke-opacity:1"
           d="m 474.94581,493.98361 a 114.09923,114.09923 0 0 0 -0.023,0.002 114.09923,114.09923 0 0 0 -13.81644,0.93957 114.09923,114.09923 0 0 0 -3.93494,0.52278 l 0,0.0706 A 114.09923,114.09923 0 0 0 424.574,505.86084 l 0,-0.0812 a 114.09923,114.09923 0 0 0 -1.07028,0.59694 114.09923,114.09923 0 0 0 -7.68267,4.28641 114.09923,114.09923 0 0 0 -2.00102,1.22569 114.09923,114.09923 0 0 0 -7.6756,5.35138 114.09923,114.09923 0 0 0 -1.46236,1.11266 114.09923,114.09923 0 0 0 -7.50782,6.43754 114.09923,114.09923 0 0 0 -0.93782,0.87424 114.09923,114.09923 0 0 0 -7.19875,7.54315 114.09923,114.09923 0 0 0 -0.50512,0.57576 114.09923,114.09923 0 0 0 -6.66891,8.5569 114.09923,114.09923 0 0 0 -0.23842,0.33203 114.09923,114.09923 0 0 0 -5.98012,9.49825 114.09923,114.09923 0 0 0 -0.0141,0.023 114.09923,114.09923 0 0 0 -14.57235,49.91439 114.09923,114.09923 0 0 0 -0.21193,5.97481 114.09923,114.09923 0 0 0 9.00726,44.43232 114.09923,114.09923 0 0 0 8.65581,16.29786 114.09923,114.09923 0 0 0 2.26594,3.69475 114.09923,114.09923 0 0 0 0,0.002 114.09923,114.09923 0 0 0 6.90204,9.07791 114.09923,114.09923 0 0 0 7.24113,7.77451 114.09923,114.09923 0 0 0 0.53161,0.57046 114.09923,114.09923 0 0 0 0.002,0.002 114.09923,114.09923 0 0 0 17.84498,14.16083 114.09923,114.09923 0 0 0 9.8921,5.67458 114.09923,114.09923 0 0 0 0.002,0 114.09923,114.09923 0 0 0 10.40957,4.65905 114.09923,114.09923 0 0 0 21.95124,6.09492 114.09923,114.09923 0 0 0 11.3209,1.37405 114.09923,114.09923 0 0 0 0.002,0 114.09923,114.09923 0 0 0 8.07122,0.28611 114.09923,114.09923 0 0 0 13.8553,-0.94311 114.09923,114.09923 0 0 0 3.91904,-0.52101 l 0,-0.0706 a 114.09923,114.09923 0 0 0 32.59747,-10.34246 l 0,0.0812 a 114.09923,114.09923 0 0 0 1.07381,-0.59871 114.09923,114.09923 0 0 0 7.67208,-4.2811 114.09923,114.09923 0 0 0 2.00985,-1.231 114.09923,114.09923 0 0 0 7.68444,-5.35667 114.09923,114.09923 0 0 0 1.4447,-1.09853 114.09923,114.09923 0 0 0 7.50251,-6.43402 114.09923,114.09923 0 0 0 0.96078,-0.89366 114.09923,114.09923 0 0 0 7.15813,-7.50076 114.09923,114.09923 0 0 0 0.55456,-0.63227 114.09923,114.09923 0 0 0 6.65478,-8.53925 114.09923,114.09923 0 0 0 0.2296,-0.31966 114.09923,114.09923 0 0 0 5.98542,-9.50532 114.09923,114.09923 0 0 0 0.005,-0.009 114.09923,114.09923 0 0 0 0.005,-0.009 114.09923,114.09923 0 0 0 14.57411,-49.91792 114.09923,114.09923 0 0 0 0.21193,-5.97482 114.09923,114.09923 0 0 0 -0.0565,-1.14092 114.09923,114.09923 0 0 0 -2.21825,-21.5309 114.09923,114.09923 0 0 0 -1.37935,-5.40612 114.09923,114.09923 0 0 0 -1.44116,-5.64103 114.09923,114.09923 0 0 0 -2.85584,-7.82396 114.09923,114.09923 0 0 0 -1.05438,-2.88939 114.09923,114.09923 0 0 0 -0.002,-0.004 114.09923,114.09923 0 0 0 -4.95929,-10.26652 114.09923,114.09923 0 0 0 -0.002,-0.004 114.09923,114.09923 0 0 0 -5.95893,-9.72079 114.09923,114.09923 0 0 0 -0.002,-0.002 114.09923,114.09923 0 0 0 -6.90027,-9.07791 114.09923,114.09923 0 0 0 -0.002,-0.002 114.09923,114.09923 0 0 0 -7.77275,-8.3432 114.09923,114.09923 0 0 0 -0.002,-0.002 114.09923,114.09923 0 0 0 -8.56574,-7.52549 114.09923,114.09923 0 0 0 -0.002,-0.002 114.09923,114.09923 0 0 0 -9.27571,-6.63359 114.09923,114.09923 0 0 0 -0.002,0 114.09923,114.09923 0 0 0 -9.89034,-5.67458 114.09923,114.09923 0 0 0 -0.004,-0.002 114.09923,114.09923 0 0 0 -10.40781,-4.65729 114.09923,114.09923 0 0 0 -0.002,0 114.09923,114.09923 0 0 0 -3.59584,-1.19567 114.09923,114.09923 0 0 0 -15.85632,-4.33762 114.09923,114.09923 0 0 0 -2.49731,-0.56163 114.09923,114.09923 0 0 0 -0.002,0 114.09923,114.09923 0 0 0 -11.31913,-1.37405 114.09923,114.09923 0 0 0 -0.004,0 114.09923,114.09923 0 0 0 -8.07122,-0.28611 z"
           id="path4188"
           inkscape:connector-curvature="0" />
        <circle
           r="16.299889"
           cy="608.08362"
           cx="474.94675"
           id="path4190"
           style="opacity:1;fill:#ffffff;fill-opacity:1;stroke:none;stroke-width:16;stroke-linecap:round;stroke-linejoin:round;stroke-miterlimit:4;stroke-dasharray:none;stroke-opacity:1" />
        <rect
           rx="7.4466853"
           transform="matrix(0.66757633,0.74454136,-0.74454136,0.66757633,0,0)"
           ry="6.1145091"
           y="47.377132"
           x="675.69012"
           height="12.229018"
           width="93.889259"
           id="rect4192"
           style="opacity:1;fill:#ffffff;fill-opacity:1;stroke:none;stroke-width:16;stroke-linecap:round;stroke-linejoin:round;stroke-miterlimit:4;stroke-dasharray:none;stroke-opacity:1"
           inkscape:transform-center-x="32.266723"
           inkscape:transform-center-y="-35.567729" />
        <rect
           transform="matrix(-0.93969262,-0.34202015,-0.34202015,0.93969262,0,0)"
           rx="7.5253711"
           ry="8.5844851"
           y="408.82169"
           x="-662.08313"
           height="57.666939"
           width="15.050742"
           id="rect4194"
           style="opacity:1;fill:#ffffff;fill-opacity:1;stroke:none;stroke-width:16;stroke-linecap:round;stroke-linejoin:round;stroke-miterlimit:4;stroke-dasharray:none;stroke-opacity:1" />
      </g>
    </g>
  </g>
</svg>
