<?xml version="1.0" encoding="UTF-8" standalone="no"?>
<!-- Created with Inkscape (http://www.inkscape.org/) -->

<svg
   xmlns:dc="http://purl.org/dc/elements/1.1/"
   xmlns:cc="http://creativecommons.org/ns#"
   xmlns:rdf="http://www.w3.org/1999/02/22-rdf-syntax-ns#"
   xmlns:svg="http://www.w3.org/2000/svg"
   xmlns="http://www.w3.org/2000/svg"
   xmlns:xlink="http://www.w3.org/1999/xlink"
   xmlns:sodipodi="http://sodipodi.sourceforge.net/DTD/sodipodi-0.dtd"
   xmlns:inkscape="http://www.inkscape.org/namespaces/inkscape"
   width="210mm"
   height="297mm"
   viewBox="0 0 744.09448819 1052.3622047"
   id="svg2"
   version="1.1"
   inkscape:version="0.91 r13725"
   inkscape:export-xdpi="4"
   inkscape:export-ydpi="4"
   sodipodi:docname="directory-schema.svg">
  <title
     id="title4180">directory schema</title>
  <defs
     id="defs4">
    <linearGradient
       gradientTransform="matrix(1.1293726,0,0,1.136134,-54.815257,-52.847513)"
       inkscape:collect="always"
       xlink:href="#linearGradient4195"
       id="linearGradient4201"
       x1="278.55457"
       y1="682.44482"
       x2="493.25662"
       y2="369.88547"
       gradientUnits="userSpaceOnUse" />
    <linearGradient
       inkscape:collect="always"
       id="linearGradient4195">
      <stop
         style="stop-color:#4e505d;stop-opacity:1"
         offset="0"
         id="stop4197" />
      <stop
         style="stop-color:#7a8597;stop-opacity:1"
         offset="1"
         id="stop4199" />
    </linearGradient>
  </defs>
  <sodipodi:namedview
     id="base"
     pagecolor="#ffffff"
     bordercolor="#666666"
     borderopacity="1.0"
     inkscape:pageopacity="0.0"
     inkscape:pageshadow="2"
     inkscape:zoom="0.35355339"
     inkscape:cx="213.43859"
     inkscape:cy="670.75895"
     inkscape:document-units="px"
     inkscape:current-layer="layer1"
     showgrid="false"
     showguides="true"
     inkscape:guide-bbox="true"
     inkscape:window-width="1600"
     inkscape:window-height="837"
     inkscape:window-x="-4"
     inkscape:window-y="-4"
     inkscape:window-maximized="1"
     inkscape:snap-bbox="true"
     inkscape:bbox-paths="true"
     inkscape:bbox-nodes="true">
    <sodipodi:guide
       position="560,730.00002"
       orientation="0,1"
       id="guide3338" />
    <sodipodi:guide
       position="560,330.00001"
       orientation="0,1"
       id="guide3340" />
    <sodipodi:guide
       position="190,475.00001"
       orientation="1,0"
       id="guide3344" />
    <sodipodi:guide
       position="590,451.00001"
       orientation="1,0"
       id="guide3346" />
    <inkscape:grid
       type="xygrid"
       id="grid3440" />
  </sodipodi:namedview>
  <metadata
     id="metadata7">
    <rdf:RDF>
      <cc:Work
         rdf:about="">
        <dc:format>image/svg+xml</dc:format>
        <dc:type
           rdf:resource="http://purl.org/dc/dcmitype/StillImage" />
        <dc:title>directory schema</dc:title>
        <dc:date>June 2015</dc:date>
        <dc:creator>
          <cc:Agent>
            <dc:title>Johannes Hechler</dc:title>
          </cc:Agent>
        </dc:creator>
        <dc:rights>
          <cc:Agent>
            <dc:title>Johannes Hechler</dc:title>
          </cc:Agent>
        </dc:rights>
        <dc:publisher>
          <cc:Agent>
            <dc:title>RRZE</dc:title>
          </cc:Agent>
        </dc:publisher>
        <dc:contributor>
          <cc:Agent>
            <dc:title>Ute Weber, Hendrik Eggers, Joanna Barbach</dc:title>
          </cc:Agent>
        </dc:contributor>
        <dc:subject>
          <rdf:Bag>
            <rdf:li>schema</rdf:li>
            <rdf:li>LDAP</rdf:li>
            <rdf:li>directory</rdf:li>
            <rdf:li>object-class</rdf:li>
            <rdf:li>definition</rdf:li>
            <rdf:li>configuration</rdf:li>
          </rdf:Bag>
        </dc:subject>
        <cc:license
           rdf:resource="http://creativecommons.org/licenses/by-sa/3.0/" />
      </cc:Work>
      <cc:License
         rdf:about="http://creativecommons.org/licenses/by-sa/3.0/">
        <cc:permits
           rdf:resource="http://creativecommons.org/ns#Reproduction" />
        <cc:permits
           rdf:resource="http://creativecommons.org/ns#Distribution" />
        <cc:requires
           rdf:resource="http://creativecommons.org/ns#Notice" />
        <cc:requires
           rdf:resource="http://creativecommons.org/ns#Attribution" />
        <cc:permits
           rdf:resource="http://creativecommons.org/ns#DerivativeWorks" />
        <cc:requires
           rdf:resource="http://creativecommons.org/ns#ShareAlike" />
      </cc:License>
    </rdf:RDF>
  </metadata>
  <g
     inkscape:label="Ebene 1"
     inkscape:groupmode="layer"
     id="layer1">
    <g
       id="g4263">
      <path
         id="path4244"
         d="M 250.14258 322.55859 C 244.483 322.54959 240.24063 323.95049 237.41992 326.75781 C 234.59923 329.56511 233.19881 333.77745 233.22266 339.38672 C 233.19876 386.03961 233.18775 449.13144 233.18555 514.76367 C 233.18355 580.39589 233.19078 648.56917 233.20508 705.38672 C 233.18998 711.05653 234.60242 715.32981 237.42188 718.17578 C 240.24129 721.02176 244.4683 722.4407 250.08008 722.40234 L 388.41602 722.4375 L 526.75195 722.47266 C 533.54188 723.0432 537.89343 720.6605 540.50586 717.17578 C 543.11828 713.69102 543.99262 709.10509 543.82812 705.26953 L 544.2793 526.04297 L 544.73047 346.81836 C 544.94392 340.3814 544.84753 331.47103 540.49609 327.02734 C 536.14465 322.58363 527.53738 322.60736 520.89648 322.67578 C 520.89648 322.67578 485.51023 322.64223 433.97266 322.61133 C 382.43509 322.58053 314.74779 322.55199 250.14258 322.55859 z M 403.13086 444.36133 L 479.14062 444.36133 C 494.81823 444.36133 508 457.5431 508 473.2207 L 508 549.23242 C 508 564.91002 494.81433 578.08984 479.14062 578.08984 L 453.70703 578.08984 L 453.70703 603.52539 C 453.70703 619.20299 440.52528 632.38477 424.84766 632.38477 L 399.41211 632.38477 L 399.41211 657.81836 C 399.41211 673.49207 386.23229 686.67773 370.55469 686.67773 L 294.54297 686.67773 C 278.86537 686.67773 265.68359 673.49598 265.68359 657.81836 L 265.68359 581.80859 C 265.68359 566.13097 278.86537 552.94922 294.54297 552.94922 L 319.97852 552.94922 L 319.97852 527.51367 C 319.97852 511.83996 333.16223 498.65625 348.83594 498.65625 L 374.27148 498.65625 L 374.27148 473.2207 C 374.27148 457.54308 387.45326 444.36133 403.13086 444.36133 z M 410.27148 480.36133 L 410.27148 488.65625 L 424.84766 488.65625 C 446.21794 488.65625 463.70703 506.13879 463.70703 527.51367 L 463.70703 542.08984 L 472 542.08984 L 472 480.36133 L 410.27148 480.36133 z M 355.97852 534.65625 L 355.97852 542.94922 L 370.55469 542.94922 C 391.92792 542.94922 409.41211 560.43743 409.41211 581.80859 L 409.41211 596.38477 L 417.70703 596.38477 L 417.70703 534.65625 L 355.97852 534.65625 z M 301.68359 588.94922 L 301.68359 650.67773 L 363.41211 650.67773 L 363.41211 588.94922 L 301.68359 588.94922 z "
         style="fill:url(#linearGradient4201);fill-opacity:1;fill-rule:evenodd;stroke:none;stroke-width:1px;stroke-linecap:butt;stroke-linejoin:miter;stroke-opacity:1" />
      <rect
         y="322.36221"
         x="190"
         height="400"
         width="400"
         id="rect4160"
         style="opacity:1;fill:none;fill-opacity:1;stroke:none;stroke-width:23;stroke-linecap:butt;stroke-linejoin:round;stroke-miterlimit:4;stroke-dasharray:none;stroke-opacity:1" />
      <path
         id="rect4227"
         d="M 403.13086 462.36133 C 397.1151 462.36133 392.27148 467.20494 392.27148 473.2207 L 392.27148 506.65625 L 424.84766 506.65625 C 436.22895 506.65625 445.70703 516.13022 445.70703 527.51367 L 445.70703 560.08984 L 479.14062 560.08984 C 485.15639 560.08984 490 555.24818 490 549.23242 L 490 473.2207 C 490 467.20494 485.15639 462.36133 479.14062 462.36133 L 403.13086 462.36133 z M 348.83594 516.65625 C 342.82018 516.65625 337.97852 521.49791 337.97852 527.51367 L 337.97852 560.94922 L 370.55469 560.94922 C 381.93748 560.94922 391.41211 570.42581 391.41211 581.80859 L 391.41211 614.38477 L 424.84766 614.38477 C 430.86342 614.38477 435.70703 609.54115 435.70703 603.52539 L 435.70703 527.51367 C 435.70703 521.49791 430.86342 516.65625 424.84766 516.65625 L 348.83594 516.65625 z M 294.54297 570.94922 C 288.52721 570.94922 283.68359 575.79283 283.68359 581.80859 L 283.68359 657.81836 C 283.68359 663.83412 288.52721 668.67773 294.54297 668.67773 L 370.55469 668.67773 C 376.57045 668.67773 381.41211 663.83412 381.41211 657.81836 L 381.41211 581.80859 C 381.41211 575.79283 376.57045 570.94922 370.55469 570.94922 L 294.54297 570.94922 z "
         style="opacity:1;fill:#99b000;fill-opacity:1;stroke:none;stroke-width:36;stroke-linejoin:round;stroke-miterlimit:4;stroke-dasharray:none;stroke-opacity:1" />
    </g>
  </g>
</svg>
