<?xml version="1.0" encoding="UTF-8" standalone="no"?>
<!-- Created with Inkscape (http://www.inkscape.org/) -->

<svg
   xmlns:dc="http://purl.org/dc/elements/1.1/"
   xmlns:cc="http://creativecommons.org/ns#"
   xmlns:rdf="http://www.w3.org/1999/02/22-rdf-syntax-ns#"
   xmlns:svg="http://www.w3.org/2000/svg"
   xmlns="http://www.w3.org/2000/svg"
   xmlns:xlink="http://www.w3.org/1999/xlink"
   xmlns:sodipodi="http://sodipodi.sourceforge.net/DTD/sodipodi-0.dtd"
   xmlns:inkscape="http://www.inkscape.org/namespaces/inkscape"
   width="210mm"
   height="297mm"
   viewBox="0 0 744.09448819 1052.3622047"
   id="svg2"
   version="1.1"
   inkscape:version="0.91 r13725"
   inkscape:export-xdpi="4"
   inkscape:export-ydpi="4"
   sodipodi:docname="directory-syntax.svg">
  <title
     id="title4188">directory syntax</title>
  <defs
     id="defs4">
    <linearGradient
       inkscape:collect="always"
       id="linearGradient4187">
      <stop
         style="stop-color:#4e505d;stop-opacity:1;"
         offset="0"
         id="stop4189" />
      <stop
         style="stop-color:#7a859c;stop-opacity:1"
         offset="1"
         id="stop4191" />
    </linearGradient>
    <linearGradient
       inkscape:collect="always"
       xlink:href="#linearGradient4187"
       id="linearGradient4193"
       x1="267.28638"
       y1="673.35297"
       x2="562.85699"
       y2="345.25543"
       gradientUnits="userSpaceOnUse" />
  </defs>
  <sodipodi:namedview
     id="base"
     pagecolor="#ffffff"
     bordercolor="#666666"
     borderopacity="1.0"
     inkscape:pageopacity="0.0"
     inkscape:pageshadow="2"
     inkscape:zoom="0.35355339"
     inkscape:cx="-40.072203"
     inkscape:cy="438.86644"
     inkscape:document-units="px"
     inkscape:current-layer="layer1"
     showgrid="false"
     showguides="true"
     inkscape:guide-bbox="true"
     inkscape:window-width="1600"
     inkscape:window-height="837"
     inkscape:window-x="-4"
     inkscape:window-y="-4"
     inkscape:window-maximized="1"
     inkscape:snap-bbox="true"
     inkscape:bbox-nodes="true"
     inkscape:snap-nodes="false">
    <sodipodi:guide
       position="560,730.00002"
       orientation="0,1"
       id="guide3338" />
    <sodipodi:guide
       position="560,330.00001"
       orientation="0,1"
       id="guide3340" />
    <sodipodi:guide
       position="190,475.00001"
       orientation="1,0"
       id="guide3344" />
    <sodipodi:guide
       position="590,451.00001"
       orientation="1,0"
       id="guide3346" />
    <inkscape:grid
       type="xygrid"
       id="grid3440" />
  </sodipodi:namedview>
  <metadata
     id="metadata7">
    <rdf:RDF>
      <cc:Work
         rdf:about="">
        <dc:format>image/svg+xml</dc:format>
        <dc:type
           rdf:resource="http://purl.org/dc/dcmitype/StillImage" />
        <dc:title>directory syntax</dc:title>
        <dc:date>June 2015</dc:date>
        <dc:creator>
          <cc:Agent>
            <dc:title>Johannes Hechler</dc:title>
          </cc:Agent>
        </dc:creator>
        <dc:rights>
          <cc:Agent>
            <dc:title>Johannes Hechler</dc:title>
          </cc:Agent>
        </dc:rights>
        <dc:publisher>
          <cc:Agent>
            <dc:title>RRZE</dc:title>
          </cc:Agent>
        </dc:publisher>
        <dc:contributor>
          <cc:Agent>
            <dc:title>Ute Weber, Hendrik Eggers, Joanna Barbach</dc:title>
          </cc:Agent>
        </dc:contributor>
        <dc:subject>
          <rdf:Bag>
            <rdf:li>syntax</rdf:li>
            <rdf:li>schema</rdf:li>
            <rdf:li>check</rdf:li>
            <rdf:li>ok</rdf:li>
            <rdf:li>valid</rdf:li>
            <rdf:li>LDAP</rdf:li>
            <rdf:li>directory</rdf:li>
          </rdf:Bag>
        </dc:subject>
        <cc:license
           rdf:resource="http://creativecommons.org/licenses/by-sa/3.0/" />
      </cc:Work>
      <cc:License
         rdf:about="http://creativecommons.org/licenses/by-sa/3.0/">
        <cc:permits
           rdf:resource="http://creativecommons.org/ns#Reproduction" />
        <cc:permits
           rdf:resource="http://creativecommons.org/ns#Distribution" />
        <cc:requires
           rdf:resource="http://creativecommons.org/ns#Notice" />
        <cc:requires
           rdf:resource="http://creativecommons.org/ns#Attribution" />
        <cc:permits
           rdf:resource="http://creativecommons.org/ns#DerivativeWorks" />
        <cc:requires
           rdf:resource="http://creativecommons.org/ns#ShareAlike" />
      </cc:License>
    </rdf:RDF>
  </metadata>
  <g
     inkscape:label="Ebene 1"
     inkscape:groupmode="layer"
     id="layer1">
    <g
       id="g4237">
      <path
         id="rect4229"
         d="m 416.45703,327.86328 c -9.30965,0 -16.80469,7.49309 -16.80469,16.80274 l 0,66.02148 67.2168,0 c 18.97065,0 34.80469,15.83404 34.80469,34.80469 l 0,39.18359 c 21.91326,4.2328 41.8532,14.10223 58.24609,28.03516 l 7.77539,0 c 9.30965,0 16.80469,-7.49504 16.80469,-16.80469 l 0,-151.24023 c 0,-9.30965 -7.49504,-16.80274 -16.80469,-16.80274 l -151.23828,0 z M 315.63086,428.6875 c -9.30965,0 -16.80469,7.49504 -16.80469,16.80469 l 0,66.02148 67.2168,0 c 8.19153,0 15.79523,2.95734 21.79492,7.83985 23.06053,-22.84749 54.75714,-36.99219 89.66211,-36.99219 2.0701,0 4.1274,0.054 6.17383,0.15234 l 0,-37.02148 c 0,-9.30965 -7.49504,-16.80469 -16.80469,-16.80469 l -151.23828,0 z M 477.5,512.36133 c -31.17185,0 -58.82964,14.47544 -76.65234,37.09765 l 0,64.07813 66.02148,0 c 9.30965,0 16.80469,-7.49504 16.80469,-16.80469 l 0,-84.17187 c -2.04197,-0.1264 -4.09887,-0.19922 -6.17383,-0.19922 z m -262.69531,17.15234 c -9.30965,0 -16.80469,7.49504 -16.80469,16.80469 l 0,151.24023 c 0,9.30965 7.49504,16.80274 16.80469,16.80274 l 151.23828,0 c 9.30965,0 16.80469,-7.49309 16.80469,-16.80274 l 0,-2.41797 C 362.44667,672.52405 350,642.60425 350,609.86133 c 0,-28.91491 9.71067,-55.62581 26.0293,-77.05274 -2.79041,-2.06227 -6.235,-3.29492 -9.98633,-3.29492 l -151.23828,0 z m 168.04297,56.79102 C 380.99107,593.84418 380,601.73186 380,609.86133 c 0,8.12946 0.99107,16.01715 2.84766,23.55664 l 0,-47.11328 z"
         style="opacity:1;fill:url(#linearGradient4193);fill-opacity:1;stroke:none;stroke-width:36;stroke-linejoin:round;stroke-miterlimit:4;stroke-dasharray:none;stroke-opacity:1"
         inkscape:connector-curvature="0" />
      <path
         id="rect4235"
         d="m 223.20703,552.31836 c -4.6548,0 -8.40234,3.74754 -8.40234,8.40234 0,4.65481 3.74754,8.40235 8.40234,8.40235 l 117.77149,0 c 1.73031,-5.7606 3.81477,-11.37117 6.23242,-16.80469 l -124.00391,0 z"
         style="opacity:1;fill:#ffffff;fill-opacity:1;stroke:none;stroke-width:36;stroke-linejoin:round;stroke-miterlimit:4;stroke-dasharray:none;stroke-opacity:1"
         inkscape:connector-curvature="0" />
      <rect
         style="opacity:1;fill:#ffffff;fill-opacity:1;stroke:none;stroke-width:36;stroke-linejoin:round;stroke-miterlimit:4;stroke-dasharray:none;stroke-opacity:1"
         id="rect4237"
         width="151.23912"
         height="16.804348"
         x="315.6304"
         y="449.49277"
         ry="8.402174" />
      <rect
         ry="8.402174"
         y="350.66663"
         x="416.45651"
         height="16.804348"
         width="151.23912"
         id="rect4239"
         style="opacity:1;fill:#ffffff;fill-opacity:1;stroke:none;stroke-width:36;stroke-linejoin:round;stroke-miterlimit:4;stroke-dasharray:none;stroke-opacity:1" />
      <path
         inkscape:connector-curvature="0"
         id="rect4260"
         d="m 198.40217,322.3622 383.19566,0 c 4.6548,0 8.40217,3.74737 8.40217,8.40217 l 0,383.19566 c 0,4.65481 -3.74737,8.40217 -8.40217,8.40217 l -383.19566,0 c -4.6548,0 -8.40217,-3.74736 -8.40217,-8.40217 l 0,-383.19566 c 0,-4.6548 3.74737,-8.40217 8.40217,-8.40217 z"
         style="opacity:1;fill:none;fill-opacity:1;stroke:none;stroke-width:36;stroke-linejoin:round;stroke-miterlimit:4;stroke-dasharray:none;stroke-opacity:1" />
      <circle
         r="112.5"
         cy="609.86218"
         cx="477.5"
         id="path4259"
         style="color:#000000;clip-rule:nonzero;display:inline;overflow:visible;visibility:visible;opacity:1;isolation:auto;mix-blend-mode:normal;color-interpolation:sRGB;color-interpolation-filters:linearRGB;solid-color:#000000;solid-opacity:1;fill:#99b000;fill-opacity:1;fill-rule:nonzero;stroke:none;stroke-width:2;stroke-linecap:butt;stroke-linejoin:round;stroke-miterlimit:4;stroke-dasharray:none;stroke-dashoffset:0;stroke-opacity:1;color-rendering:auto;image-rendering:auto;shape-rendering:auto;text-rendering:auto;enable-background:accumulate" />
      <path
         sodipodi:nodetypes="ccccccccc"
         inkscape:connector-curvature="0"
         id="path4187"
         d="m 537.41729,533.92655 c -30.23775,38.79125 -56.87125,82.26875 -74.11925,121.38624 -15.23525,-13.82125 -24.182,-18.4375 -36.54625,-22.50875 l -9.542,14.9775 c 21.94713,15.05501 34.33925,36.26001 40.23225,59.11376 7.79913,0 15.59838,-0.125 23.39763,-0.125 11.30675,-66.34875 41.50887,-118.15125 68.86925,-164.24751 l -12.29175,-8.61999 z"
         style="color:#252525;font-style:normal;font-variant:normal;font-weight:normal;font-stretch:normal;font-size:medium;line-height:normal;font-family:sans-serif;text-indent:0;text-align:start;text-decoration:none;text-decoration-line:none;text-decoration-style:solid;text-decoration-color:#252525;letter-spacing:normal;word-spacing:normal;text-transform:none;direction:ltr;block-progression:tb;writing-mode:lr-tb;baseline-shift:baseline;text-anchor:start;white-space:normal;clip-rule:nonzero;display:inline;overflow:visible;visibility:visible;opacity:1;isolation:auto;mix-blend-mode:normal;color-interpolation:sRGB;color-interpolation-filters:linearRGB;solid-color:#252525;solid-opacity:1;fill:#ffffff;fill-opacity:1;fill-rule:evenodd;stroke:none;stroke-width:22;stroke-linecap:butt;stroke-linejoin:miter;stroke-miterlimit:4;stroke-dasharray:none;stroke-dashoffset:0;stroke-opacity:1;color-rendering:auto;image-rendering:auto;shape-rendering:auto;text-rendering:auto;enable-background:accumulate" />
    </g>
  </g>
</svg>
