<?xml version="1.0" encoding="UTF-8" standalone="no"?>
<!-- Created with Inkscape (http://www.inkscape.org/) -->
<svg xmlns:dc="http://purl.org/dc/elements/1.1/" xmlns:cc="http://creativecommons.org/ns#" xmlns:rdf="http://www.w3.org/1999/02/22-rdf-syntax-ns#" xmlns:svg="http://www.w3.org/2000/svg" xmlns="http://www.w3.org/2000/svg" xmlns:xlink="http://www.w3.org/1999/xlink" xmlns:sodipodi="http://sodipodi.sourceforge.net/DTD/sodipodi-0.dtd" xmlns:inkscape="http://www.inkscape.org/namespaces/inkscape" width="210mm" height="297mm" viewBox="0 0 744.09448819 1052.3622047" id="svg2" version="1.1" inkscape:version="0.91 r13725" inkscape:export-xdpi="4" inkscape:export-ydpi="4">
  <defs id="defs4">
    <linearGradient id="linearGradient2224">
      <stop id="stop2226" offset="0" style="stop-color:#7c7c7c;stop-opacity:1;"/>
      <stop id="stop2228" offset="1" style="stop-color:#b8b8b8;stop-opacity:1;"/>
    </linearGradient>
    <linearGradient id="linearGradient15218">
      <stop id="stop15220" offset="0" style="stop-color:#eeeeef;stop-opacity:1;"/>
      <stop id="stop2736" offset="0.59928656" style="stop-color:#d3d7cf;stop-opacity:1;"/>
      <stop id="stop2738" offset="0.82758623" style="stop-color:#ffffff;stop-opacity:1;"/>
      <stop id="stop15222" offset="1" style="stop-color:#d3d7cf;stop-opacity:1;"/>
    </linearGradient>
    <pattern y="0" x="0" height="6" width="6" patternUnits="userSpaceOnUse" id="EMFhbasepattern"/>
    <pattern y="0" x="0" height="6" width="6" patternUnits="userSpaceOnUse" id="EMFhbasepattern-5"/>
    <pattern y="0" x="0" height="6" width="6" patternUnits="userSpaceOnUse" id="EMFhbasepattern-1"/>
    <linearGradient gradientTransform="matrix(1.1293726,0,0,1.136134,-68.957393,-50.372639)" inkscape:collect="always" xlink:href="#linearGradient4195" id="linearGradient4201" x1="278.55457" y1="682.44482" x2="493.25662" y2="369.88547" gradientUnits="userSpaceOnUse"/>
    <linearGradient inkscape:collect="always" id="linearGradient4195">
      <stop style="stop-color:#4e505d;stop-opacity:1" offset="0" id="stop4197"/>
      <stop style="stop-color:#545d6c;stop-opacity:1" offset="1" id="stop4199"/>
    </linearGradient>
  </defs>
  <sodipodi:namedview id="base" pagecolor="#ffffff" bordercolor="#666666" borderopacity="1.0" inkscape:pageopacity="0.0" inkscape:pageshadow="2" inkscape:zoom="0.70710678" inkscape:cx="243.24223" inkscape:cy="634.45177" inkscape:document-units="px" inkscape:current-layer="layer1" showgrid="false" showguides="true" inkscape:guide-bbox="true" inkscape:window-width="1366" inkscape:window-height="721" inkscape:window-x="-4" inkscape:window-y="-4" inkscape:window-maximized="1">
    <sodipodi:guide position="560,730.00002" orientation="0,1" id="guide3338"/>
    <sodipodi:guide position="560,330.00001" orientation="0,1" id="guide3340"/>
    <sodipodi:guide position="190,475.00001" orientation="1,0" id="guide3344"/>
    <sodipodi:guide position="590,451.00001" orientation="1,0" id="guide3346"/>
    <inkscape:grid type="xygrid" id="grid3440"/>
  </sodipodi:namedview>
  <metadata id="metadata7">
    <rdf:RDF>
      <cc:Work rdf:about="">
        <dc:format>image/svg+xml</dc:format>
        <dc:type rdf:resource="http://purl.org/dc/dcmitype/StillImage"/>
      </cc:Work>
    </rdf:RDF>
  </metadata>
  <g inkscape:label="Ebene 1" inkscape:groupmode="layer" id="layer1">
    <g id="g4454" transform="translate(14.142136,-2.4748737)">
      <path style="fill:url(#linearGradient4201);fill-opacity:1;fill-rule:evenodd;stroke:none;stroke-width:1px;stroke-linecap:butt;stroke-linejoin:miter;stroke-opacity:1" d="m 235.9997,325.03312 c -5.65958,-0.009 -9.90114,1.39306 -12.72185,4.20038 -2.82069,2.8073 -4.22054,7.01933 -4.19669,12.6286 -0.0239,46.65289 -0.0358,109.74395 -0.038,175.37618 -0.002,65.63222 0.006,133.80562 0.0203,190.62317 -0.0151,5.66981 1.39763,9.94284 4.21708,12.78881 2.81941,2.84598 7.04556,4.26491 12.65734,4.22655 l 138.33603,0.0354 138.33601,0.0355 c 6.78993,0.57054 11.14096,-1.81268 13.75339,-5.2974 2.61242,-3.48476 3.48626,-8.07103 3.32176,-11.90659 l 0.45162,-179.22533 0.45163,-179.22529 c 0.21345,-6.43696 0.11667,-15.34732 -4.23477,-19.79101 -4.35144,-4.44371 -12.95756,-4.42073 -19.59846,-4.35231 0,0 -35.38626,-0.0324 -86.92383,-0.0633 -51.53757,-0.0308 -119.22643,-0.06 -183.83164,-0.0534 z" id="path4244" inkscape:connector-curvature="0" sodipodi:nodetypes="cscscscccscccscscc"/>
      <path style="fill:#ffffff;fill-opacity:1;stroke:none" d="m 258.69765,382.41237 c 70.56253,0 141.12509,0 211.68764,0 5.33667,-1e-5 5.33667,23.86768 0,23.86769 -70.56255,0 -141.12511,0 -211.68764,0 -7.11557,-10e-6 -7.11557,-23.8677 0,-23.86769 z" id="rect4248" inkscape:connector-curvature="0" sodipodi:nodetypes="ccccc" inkscape:export-xdpi="4.9499998" inkscape:export-ydpi="4.9499998"/>
      <path style="fill:#ffffff;fill-opacity:1;stroke:none" d="m 258.21023,428.35736 c 63.28474,0 126.56948,0 189.85422,0 4.78622,-1e-5 4.78622,23.86769 0,23.8677 -63.28474,0 -126.56948,0 -189.85422,0 -6.38165,-10e-6 -6.38165,-23.86771 0,-23.8677 z" id="rect4248-4" inkscape:connector-curvature="0" sodipodi:nodetypes="ccccc" inkscape:export-xdpi="4.9499998" inkscape:export-ydpi="4.9499998"/>
    </g>
    <rect style="opacity:1;fill:none;fill-opacity:1;stroke:none;stroke-width:23;stroke-linecap:butt;stroke-linejoin:round;stroke-miterlimit:4;stroke-dasharray:none;stroke-opacity:1" id="rect4160" width="400" height="400" x="190" y="322.36221"/>
    <g transform="matrix(0.78452697,0,0,0.78452697,138.85352,141.49096)" id="g4300" style="stroke:#ffffff;stroke-width:50;stroke-miterlimit:4;stroke-dasharray:none">
      <path style="fill:#99b000;fill-opacity:1;fill-rule:evenodd;stroke:#ffffff;stroke-width:50;stroke-miterlimit:4;stroke-dasharray:none" d="m 286.21336,433.65659 185.64979,0 c 5.8537,0 10.54441,4.69068 10.54441,10.5443 l 0,162.70074 c 0,5.81441 -4.69071,10.54388 -10.54441,10.54388 l -185.64979,0 c -5.85363,0 -10.54431,-4.72947 -10.54431,-10.54388 l 0,-162.70074 c 0,-5.85362 4.69068,-10.5443 10.54431,-10.5443 z" id="path4302" inkscape:connector-curvature="0"/>
      <path style="fill:#ffffff;fill-opacity:1;fill-rule:nonzero;stroke:#ffffff;stroke-width:50;stroke-miterlimit:4;stroke-dasharray:none" d="m 306.25537,448.96913 145.56567,0 c 8.4898,0 15.27387,6.82281 15.27387,15.27378 0,8.45093 -6.78407,15.27371 -15.27387,15.27371 l -145.56567,0 c -8.45099,0 -15.27377,-6.82278 -15.27377,-15.27371 0,-8.45097 6.82278,-15.27378 15.27377,-15.27378 z" id="path4304" inkscape:connector-curvature="0"/>
      <path style="fill:#ffffff;fill-opacity:1;fill-rule:nonzero;stroke:#ffffff;stroke-width:50;stroke-miterlimit:4;stroke-dasharray:none" d="m 299.47134,524.02005 135.48693,0 c 4.69071,0 8.48979,4.30304 8.48979,9.69155 0,5.34922 -3.79908,9.69102 -8.48979,9.69102 l -135.48693,0 c -4.69072,0 -8.48974,-4.3418 -8.48974,-9.69102 0,-5.38851 3.79902,-9.69155 8.48974,-9.69155 z" id="path4306" inkscape:connector-curvature="0"/>
      <path style="fill:#ffffff;fill-opacity:1;fill-rule:nonzero;stroke:#ffffff;stroke-width:50;stroke-miterlimit:4;stroke-dasharray:none" d="m 299.47134,553.09417 118.54611,0 c 4.6907,0 8.48979,4.30305 8.48979,9.65278 0,5.38851 -3.79909,9.69155 -8.48979,9.69155 l -118.54611,0 c -4.69072,0 -8.48974,-4.30304 -8.48974,-9.69155 0,-5.34973 3.79902,-9.65278 8.48974,-9.65278 z" id="path4308" inkscape:connector-curvature="0"/>
      <path style="fill:#ffffff;fill-opacity:1;fill-rule:nonzero;stroke:#ffffff;stroke-width:50;stroke-miterlimit:4;stroke-dasharray:none" d="m 299.47134,582.13004 152.42723,0 c 4.69071,0 8.48979,4.34182 8.48979,9.69155 0,5.3885 -3.79908,9.69155 -8.48979,9.69155 l -152.42723,0 c -4.69072,0 -8.48974,-4.30305 -8.48974,-9.69155 0,-5.34973 3.79902,-9.69155 8.48974,-9.69155 z" id="path4310" inkscape:connector-curvature="0"/>
    </g>
    <path style="fill:#99b000;fill-opacity:1;fill-rule:evenodd;stroke:none" d="m 363.39563,481.70625 145.64727,0 c 4.59239,0 8.27237,3.67998 8.27237,8.27228 l 0,127.64313 c 0,4.56157 -3.67998,8.27196 -8.27237,8.27196 l -145.64727,0 c -4.59233,0 -8.2723,-3.71039 -8.2723,-8.27196 l 0,-127.64313 c 0,-4.5923 3.67997,-8.27228 8.2723,-8.27228 z" id="path4254" inkscape:connector-curvature="0"/>
    <path style="fill:#ffffff;fill-opacity:1;fill-rule:nonzero;stroke:none" d="m 379.11913,493.71935 114.2002,0 c 6.66047,0 11.98276,5.35269 11.98276,11.9827 0,6.62997 -5.32229,11.98264 -11.98276,11.98264 l -114.2002,0 c -6.63004,0 -11.98268,-5.35267 -11.98268,-11.98264 0,-6.63001 5.35264,-11.9827 11.98268,-11.9827 z" id="path4256" inkscape:connector-curvature="0"/>
    <path style="fill:#ffffff;fill-opacity:1;fill-rule:nonzero;stroke:none" d="m 373.79688,552.59883 106.29313,0 c 3.68001,0 6.66048,3.37584 6.66048,7.60328 0,4.19661 -2.98047,7.60287 -6.66048,7.60287 l -106.29313,0 c -3.67999,0 -6.66043,-3.40626 -6.66043,-7.60287 0,-4.22744 2.98044,-7.60328 6.66043,-7.60328 z" id="path4258" inkscape:connector-curvature="0"/>
    <path style="fill:#ffffff;fill-opacity:1;fill-rule:nonzero;stroke:none" d="m 373.79688,575.40826 93.00261,0 c 3.67998,0 6.66047,3.37585 6.66047,7.57285 0,4.22744 -2.98049,7.6033 -6.66047,7.6033 l -93.00261,0 c -3.67999,0 -6.66043,-3.37586 -6.66043,-7.6033 0,-4.197 2.98044,-7.57285 6.66043,-7.57285 z" id="path4260" inkscape:connector-curvature="0"/>
    <path style="fill:#ffffff;fill-opacity:1;fill-rule:nonzero;stroke:none" d="m 373.79688,598.18769 119.58326,0 c 3.68,0 6.66047,3.40627 6.66047,7.60327 0,4.22742 -2.98047,7.6033 -6.66047,7.6033 l -119.58326,0 c -3.67999,0 -6.66043,-3.37588 -6.66043,-7.6033 0,-4.197 2.98044,-7.60327 6.66043,-7.60327 z" id="path4262" inkscape:connector-curvature="0"/>
    <g transform="matrix(1.4368401,0,0,1.4368401,-69.230049,-314.08878)" id="g4288" style="stroke:#ffffff;stroke-width:50;stroke-miterlimit:4;stroke-dasharray:none">
      <path inkscape:connector-curvature="0" id="path4290" d="m 234.75728,603.3622 101.36637,0 c 3.19617,0 5.75734,2.56115 5.75734,5.75728 l 0,88.83599 c 0,3.17472 -2.56117,5.75705 -5.75734,5.75705 l -101.36637,0 c -3.19613,0 -5.75728,-2.58233 -5.75728,-5.75705 l 0,-88.83599 c 0,-3.19613 2.56115,-5.75728 5.75728,-5.75728 z" style="fill:#767e8d;fill-opacity:1;fill-rule:evenodd;stroke:#ffffff;stroke-width:50;stroke-miterlimit:4;stroke-dasharray:none"/>
      <path inkscape:connector-curvature="0" id="path4292" d="m 245.70039,611.72298 79.4801,0 c 4.6355,0 8.33966,3.72531 8.33966,8.33961 0,4.61428 -3.70416,8.33958 -8.33966,8.33958 l -79.4801,0 c -4.61431,0 -8.33961,-3.7253 -8.33961,-8.33958 0,-4.6143 3.7253,-8.33961 8.33961,-8.33961 z" style="fill:#ffffff;fill-opacity:1;fill-rule:nonzero;stroke:#ffffff;stroke-width:50;stroke-miterlimit:4;stroke-dasharray:none"/>
      <path inkscape:connector-curvature="0" id="path4294" d="m 241.99625,652.70142 73.97702,0 c 2.56117,0 4.6355,2.3495 4.6355,5.29167 0,2.92072 -2.07433,5.29138 -4.6355,5.29138 l -73.97702,0 c -2.56117,0 -4.63547,-2.37066 -4.63547,-5.29138 0,-2.94217 2.0743,-5.29167 4.63547,-5.29167 z" style="fill:#ffffff;fill-opacity:1;fill-rule:nonzero;stroke:#ffffff;stroke-width:50;stroke-miterlimit:4;stroke-dasharray:none"/>
      <path inkscape:connector-curvature="0" id="path4296" d="m 241.99625,668.57614 64.72719,0 c 2.56116,0 4.6355,2.3495 4.6355,5.2705 0,2.94217 -2.07434,5.29167 -4.6355,5.29167 l -64.72719,0 c -2.56117,0 -4.63547,-2.3495 -4.63547,-5.29167 0,-2.921 2.0743,-5.2705 4.63547,-5.2705 z" style="fill:#ffffff;fill-opacity:1;fill-rule:nonzero;stroke:#ffffff;stroke-width:50;stroke-miterlimit:4;stroke-dasharray:none"/>
      <path inkscape:connector-curvature="0" id="path4298" d="m 241.99625,684.42997 83.22657,0 c 2.56117,0 4.6355,2.37067 4.6355,5.29167 0,2.94217 -2.07433,5.29167 -4.6355,5.29167 l -83.22657,0 c -2.56117,0 -4.63547,-2.3495 -4.63547,-5.29167 0,-2.921 2.0743,-5.29167 4.63547,-5.29167 z" style="fill:#ffffff;fill-opacity:1;fill-rule:nonzero;stroke:#ffffff;stroke-width:50;stroke-miterlimit:4;stroke-dasharray:none"/>
    </g>
    <path inkscape:connector-curvature="0" id="path4154" d="m 268.07863,552.84624 145.64727,0 c 4.59239,0 8.27238,3.67997 8.27238,8.27229 l 0,127.64311 c 0,4.56157 -3.67999,8.27197 -8.27238,8.27197 l -145.64727,0 c -4.59232,0 -8.27229,-3.7104 -8.27229,-8.27197 l 0,-127.64311 c 0,-4.59232 3.67997,-8.27229 8.27229,-8.27229 z" style="fill:#99b000;fill-opacity:1;fill-rule:evenodd;stroke:none"/>
    <path inkscape:connector-curvature="0" id="path4156" d="m 283.80213,564.85933 114.2002,0 c 6.66047,0 11.98276,5.35269 11.98276,11.9827 0,6.62999 -5.32229,11.98264 -11.98276,11.98264 l -114.2002,0 c -6.63003,0 -11.98268,-5.35265 -11.98268,-11.98264 0,-6.63001 5.35265,-11.9827 11.98268,-11.9827 z" style="fill:#ffffff;fill-opacity:1;fill-rule:nonzero;stroke:none"/>
    <path inkscape:connector-curvature="0" id="path4158" d="m 278.47988,623.73881 106.29315,0 c 3.67999,0 6.66047,3.37585 6.66047,7.60329 0,4.1966 -2.98048,7.60286 -6.66047,7.60286 l -106.29315,0 c -3.68,0 -6.66043,-3.40626 -6.66043,-7.60286 0,-4.22744 2.98043,-7.60329 6.66043,-7.60329 z" style="fill:#ffffff;fill-opacity:1;fill-rule:nonzero;stroke:none"/>
    <path inkscape:connector-curvature="0" id="path4160" d="m 278.47988,646.54824 93.00261,0 c 3.67999,0 6.66047,3.37586 6.66047,7.57287 0,4.22743 -2.98048,7.60328 -6.66047,7.60328 l -93.00261,0 c -3.68,0 -6.66043,-3.37585 -6.66043,-7.60328 0,-4.19701 2.98043,-7.57287 6.66043,-7.57287 z" style="fill:#ffffff;fill-opacity:1;fill-rule:nonzero;stroke:none"/>
    <path inkscape:connector-curvature="0" id="path4162" d="m 278.47988,669.32767 119.58328,0 c 3.67997,0 6.66045,3.40628 6.66045,7.60328 0,4.22743 -2.98048,7.60328 -6.66045,7.60328 l -119.58328,0 c -3.68,0 -6.66043,-3.37585 -6.66043,-7.60328 0,-4.197 2.98043,-7.60328 6.66043,-7.60328 z" style="fill:#ffffff;fill-opacity:1;fill-rule:nonzero;stroke:none"/>
  </g>
</svg>
