<?xml version="1.0" encoding="UTF-8" standalone="no"?>
<!-- Created with Inkscape (http://www.inkscape.org/) -->

<svg
   xmlns:dc="http://purl.org/dc/elements/1.1/"
   xmlns:cc="http://creativecommons.org/ns#"
   xmlns:rdf="http://www.w3.org/1999/02/22-rdf-syntax-ns#"
   xmlns:svg="http://www.w3.org/2000/svg"
   xmlns="http://www.w3.org/2000/svg"
   xmlns:sodipodi="http://sodipodi.sourceforge.net/DTD/sodipodi-0.dtd"
   xmlns:inkscape="http://www.inkscape.org/namespaces/inkscape"
   width="210mm"
   height="297mm"
   viewBox="0 0 744.09448819 1052.3622047"
   id="svg2"
   version="1.1"
   inkscape:version="0.91 r13725"
   inkscape:export-xdpi="4"
   inkscape:export-ydpi="4"
   sodipodi:docname="directory-object-class.svg">
  <title
     id="title4182">directory object class</title>
  <defs
     id="defs4" />
  <sodipodi:namedview
     id="base"
     pagecolor="#ffffff"
     bordercolor="#666666"
     borderopacity="1.0"
     inkscape:pageopacity="0.0"
     inkscape:pageshadow="2"
     inkscape:zoom="0.5"
     inkscape:cx="-344.1997"
     inkscape:cy="423.17519"
     inkscape:document-units="px"
     inkscape:current-layer="layer1"
     showgrid="false"
     showguides="true"
     inkscape:guide-bbox="true"
     inkscape:window-width="1280"
     inkscape:window-height="962"
     inkscape:window-x="-8"
     inkscape:window-y="-8"
     inkscape:window-maximized="1">
    <sodipodi:guide
       position="560,730.00002"
       orientation="0,1"
       id="guide3338" />
    <sodipodi:guide
       position="560,330.00001"
       orientation="0,1"
       id="guide3340" />
    <sodipodi:guide
       position="190,475.00001"
       orientation="1,0"
       id="guide3344" />
    <sodipodi:guide
       position="590,451.00001"
       orientation="1,0"
       id="guide3346" />
    <inkscape:grid
       type="xygrid"
       id="grid3440" />
  </sodipodi:namedview>
  <metadata
     id="metadata7">
    <rdf:RDF>
      <cc:Work
         rdf:about="">
        <dc:format>image/svg+xml</dc:format>
        <dc:type
           rdf:resource="http://purl.org/dc/dcmitype/StillImage" />
        <dc:title>directory object class</dc:title>
        <dc:date>June 2015</dc:date>
        <dc:creator>
          <cc:Agent>
            <dc:title>Johannes Hechler</dc:title>
          </cc:Agent>
        </dc:creator>
        <dc:rights>
          <cc:Agent>
            <dc:title>Johannes Hechler</dc:title>
          </cc:Agent>
        </dc:rights>
        <dc:publisher>
          <cc:Agent>
            <dc:title>RRZE</dc:title>
          </cc:Agent>
        </dc:publisher>
        <dc:contributor>
          <cc:Agent>
            <dc:title>Ute Weber, Hendrik Eggers, Joanna Barbach</dc:title>
          </cc:Agent>
        </dc:contributor>
        <dc:subject>
          <rdf:Bag>
            <rdf:li>object-class</rdf:li>
            <rdf:li>directory</rdf:li>
            <rdf:li>objects</rdf:li>
            <rdf:li>class</rdf:li>
            <rdf:li>LDAP</rdf:li>
          </rdf:Bag>
        </dc:subject>
        <cc:license
           rdf:resource="http://creativecommons.org/licenses/by-sa/3.0/" />
      </cc:Work>
      <cc:License
         rdf:about="http://creativecommons.org/licenses/by-sa/3.0/">
        <cc:permits
           rdf:resource="http://creativecommons.org/ns#Reproduction" />
        <cc:permits
           rdf:resource="http://creativecommons.org/ns#Distribution" />
        <cc:requires
           rdf:resource="http://creativecommons.org/ns#Notice" />
        <cc:requires
           rdf:resource="http://creativecommons.org/ns#Attribution" />
        <cc:permits
           rdf:resource="http://creativecommons.org/ns#DerivativeWorks" />
        <cc:requires
           rdf:resource="http://creativecommons.org/ns#ShareAlike" />
      </cc:License>
    </rdf:RDF>
  </metadata>
  <g
     inkscape:label="Ebene 1"
     inkscape:groupmode="layer"
     id="layer1">
    <g
       id="g4264"
       transform="matrix(1.8314732,0,0,1.8314732,-58.086509,-782.69377)">
      <path
         style="fill:#767e8d;fill-opacity:1;fill-rule:evenodd;stroke:none"
         d="m 234.75728,603.3622 101.36637,0 c 3.19617,0 5.75734,2.56115 5.75734,5.75728 l 0,88.83599 c 0,3.17472 -2.56117,5.75705 -5.75734,5.75705 l -101.36637,0 c -3.19613,0 -5.75728,-2.58233 -5.75728,-5.75705 l 0,-88.83599 c 0,-3.19613 2.56115,-5.75728 5.75728,-5.75728 z"
         id="path4266"
         inkscape:connector-curvature="0" />
      <path
         style="fill:#ffffff;fill-opacity:1;fill-rule:nonzero;stroke:none"
         d="m 245.70039,611.72298 79.4801,0 c 4.6355,0 8.33966,3.72531 8.33966,8.33961 0,4.61428 -3.70416,8.33958 -8.33966,8.33958 l -79.4801,0 c -4.61431,0 -8.33961,-3.7253 -8.33961,-8.33958 0,-4.6143 3.7253,-8.33961 8.33961,-8.33961 z"
         id="path4268"
         inkscape:connector-curvature="0" />
      <path
         style="fill:#ffffff;fill-opacity:1;fill-rule:nonzero;stroke:none"
         d="m 241.99625,652.70142 73.97702,0 c 2.56117,0 4.6355,2.3495 4.6355,5.29167 0,2.92072 -2.07433,5.29138 -4.6355,5.29138 l -73.97702,0 c -2.56117,0 -4.63547,-2.37066 -4.63547,-5.29138 0,-2.94217 2.0743,-5.29167 4.63547,-5.29167 z"
         id="path4270"
         inkscape:connector-curvature="0" />
      <path
         style="fill:#ffffff;fill-opacity:1;fill-rule:nonzero;stroke:none"
         d="m 241.99625,668.57614 64.72719,0 c 2.56116,0 4.6355,2.3495 4.6355,5.2705 0,2.94217 -2.07434,5.29167 -4.6355,5.29167 l -64.72719,0 c -2.56117,0 -4.63547,-2.3495 -4.63547,-5.29167 0,-2.921 2.0743,-5.2705 4.63547,-5.2705 z"
         id="path4272"
         inkscape:connector-curvature="0" />
      <path
         style="fill:#ffffff;fill-opacity:1;fill-rule:nonzero;stroke:none"
         d="m 241.99625,684.42997 83.22657,0 c 2.56117,0 4.6355,2.37067 4.6355,5.29167 0,2.94217 -2.07433,5.29167 -4.6355,5.29167 l -83.22657,0 c -2.56117,0 -4.63547,-2.3495 -4.63547,-5.29167 0,-2.921 2.0743,-5.29167 4.63547,-5.29167 z"
         id="path4274"
         inkscape:connector-curvature="0" />
    </g>
    <rect
       style="opacity:1;fill:none;fill-opacity:1;stroke:none;stroke-width:23;stroke-linecap:butt;stroke-linejoin:round;stroke-miterlimit:4;stroke-dasharray:none;stroke-opacity:1"
       id="rect4160"
       width="400"
       height="400"
       x="190"
       y="322.36221" />
    <g
       id="g4312"
       transform="translate(0,10)">
      <g
         style="stroke:#ffffff;stroke-width:50;stroke-miterlimit:4;stroke-dasharray:none"
         id="g4300"
         transform="translate(11.313708,-14.142136)">
        <path
           inkscape:connector-curvature="0"
           id="path4302"
           d="m 286.21336,433.65659 185.64979,0 c 5.8537,0 10.54441,4.69068 10.54441,10.5443 l 0,162.70074 c 0,5.81441 -4.69071,10.54388 -10.54441,10.54388 l -185.64979,0 c -5.85363,0 -10.54431,-4.72947 -10.54431,-10.54388 l 0,-162.70074 c 0,-5.85362 4.69068,-10.5443 10.54431,-10.5443 z"
           style="fill:#99b000;fill-opacity:1;fill-rule:evenodd;stroke:#ffffff;stroke-width:50;stroke-miterlimit:4;stroke-dasharray:none" />
        <path
           inkscape:connector-curvature="0"
           id="path4304"
           d="m 306.25537,448.96913 145.56567,0 c 8.4898,0 15.27387,6.82281 15.27387,15.27378 0,8.45093 -6.78407,15.27371 -15.27387,15.27371 l -145.56567,0 c -8.45099,0 -15.27377,-6.82278 -15.27377,-15.27371 0,-8.45097 6.82278,-15.27378 15.27377,-15.27378 z"
           style="fill:#ffffff;fill-opacity:1;fill-rule:nonzero;stroke:#ffffff;stroke-width:50;stroke-miterlimit:4;stroke-dasharray:none" />
        <path
           inkscape:connector-curvature="0"
           id="path4306"
           d="m 299.47134,524.02005 135.48693,0 c 4.69071,0 8.48979,4.30304 8.48979,9.69155 0,5.34922 -3.79908,9.69102 -8.48979,9.69102 l -135.48693,0 c -4.69072,0 -8.48974,-4.3418 -8.48974,-9.69102 0,-5.38851 3.79902,-9.69155 8.48974,-9.69155 z"
           style="fill:#ffffff;fill-opacity:1;fill-rule:nonzero;stroke:#ffffff;stroke-width:50;stroke-miterlimit:4;stroke-dasharray:none" />
        <path
           inkscape:connector-curvature="0"
           id="path4308"
           d="m 299.47134,553.09417 118.54611,0 c 4.6907,0 8.48979,4.30305 8.48979,9.65278 0,5.38851 -3.79909,9.69155 -8.48979,9.69155 l -118.54611,0 c -4.69072,0 -8.48974,-4.30304 -8.48974,-9.69155 0,-5.34973 3.79902,-9.65278 8.48974,-9.65278 z"
           style="fill:#ffffff;fill-opacity:1;fill-rule:nonzero;stroke:#ffffff;stroke-width:50;stroke-miterlimit:4;stroke-dasharray:none" />
        <path
           inkscape:connector-curvature="0"
           id="path4310"
           d="m 299.47134,582.13004 152.42723,0 c 4.69071,0 8.48979,4.34182 8.48979,9.69155 0,5.3885 -3.79908,9.69155 -8.48979,9.69155 l -152.42723,0 c -4.69072,0 -8.48974,-4.30305 -8.48974,-9.69155 0,-5.34973 3.79902,-9.69155 8.48974,-9.69155 z"
           style="fill:#ffffff;fill-opacity:1;fill-rule:nonzero;stroke:#ffffff;stroke-width:50;stroke-miterlimit:4;stroke-dasharray:none" />
      </g>
      <g
         transform="translate(11.313708,-14.142136)"
         id="g4281">
        <path
           style="fill:#99b000;fill-opacity:1;fill-rule:evenodd;stroke:none"
           d="m 286.21336,433.65659 185.64979,0 c 5.8537,0 10.54441,4.69068 10.54441,10.5443 l 0,162.70074 c 0,5.81441 -4.69071,10.54388 -10.54441,10.54388 l -185.64979,0 c -5.85363,0 -10.54431,-4.72947 -10.54431,-10.54388 l 0,-162.70074 c 0,-5.85362 4.69068,-10.5443 10.54431,-10.5443 z"
           id="path4254"
           inkscape:connector-curvature="0" />
        <path
           style="fill:#ffffff;fill-opacity:1;fill-rule:nonzero;stroke:none"
           d="m 306.25537,448.96913 145.56567,0 c 8.4898,0 15.27387,6.82281 15.27387,15.27378 0,8.45093 -6.78407,15.27371 -15.27387,15.27371 l -145.56567,0 c -8.45099,0 -15.27377,-6.82278 -15.27377,-15.27371 0,-8.45097 6.82278,-15.27378 15.27377,-15.27378 z"
           id="path4256"
           inkscape:connector-curvature="0" />
        <path
           style="fill:#ffffff;fill-opacity:1;fill-rule:nonzero;stroke:none"
           d="m 299.47134,524.02005 135.48693,0 c 4.69071,0 8.48979,4.30304 8.48979,9.69155 0,5.34922 -3.79908,9.69102 -8.48979,9.69102 l -135.48693,0 c -4.69072,0 -8.48974,-4.3418 -8.48974,-9.69102 0,-5.38851 3.79902,-9.69155 8.48974,-9.69155 z"
           id="path4258"
           inkscape:connector-curvature="0" />
        <path
           style="fill:#ffffff;fill-opacity:1;fill-rule:nonzero;stroke:none"
           d="m 299.47134,553.09417 118.54611,0 c 4.6907,0 8.48979,4.30305 8.48979,9.65278 0,5.38851 -3.79909,9.69155 -8.48979,9.69155 l -118.54611,0 c -4.69072,0 -8.48974,-4.30304 -8.48974,-9.69155 0,-5.34973 3.79902,-9.65278 8.48974,-9.65278 z"
           id="path4260"
           inkscape:connector-curvature="0" />
        <path
           style="fill:#ffffff;fill-opacity:1;fill-rule:nonzero;stroke:none"
           d="m 299.47134,582.13004 152.42723,0 c 4.69071,0 8.48979,4.34182 8.48979,9.69155 0,5.3885 -3.79908,9.69155 -8.48979,9.69155 l -152.42723,0 c -4.69072,0 -8.48974,-4.30305 -8.48974,-9.69155 0,-5.34973 3.79902,-9.69155 8.48974,-9.69155 z"
           id="path4262"
           inkscape:connector-curvature="0" />
      </g>
    </g>
    <g
       id="g4181"
       transform="translate(22,0)">
      <g
         style="stroke:#ffffff;stroke-width:50;stroke-miterlimit:4;stroke-dasharray:none"
         id="g4288"
         transform="matrix(1.8314732,0,0,1.8314732,-230.00534,-565.3191)">
        <path
           style="fill:#767e8d;fill-opacity:1;fill-rule:evenodd;stroke:#ffffff;stroke-width:50;stroke-miterlimit:4;stroke-dasharray:none"
           d="m 234.75728,603.3622 101.36637,0 c 3.19617,0 5.75734,2.56115 5.75734,5.75728 l 0,88.83599 c 0,3.17472 -2.56117,5.75705 -5.75734,5.75705 l -101.36637,0 c -3.19613,0 -5.75728,-2.58233 -5.75728,-5.75705 l 0,-88.83599 c 0,-3.19613 2.56115,-5.75728 5.75728,-5.75728 z"
           id="path4290"
           inkscape:connector-curvature="0" />
        <path
           style="fill:#ffffff;fill-opacity:1;fill-rule:nonzero;stroke:#ffffff;stroke-width:50;stroke-miterlimit:4;stroke-dasharray:none"
           d="m 245.70039,611.72298 79.4801,0 c 4.6355,0 8.33966,3.72531 8.33966,8.33961 0,4.61428 -3.70416,8.33958 -8.33966,8.33958 l -79.4801,0 c -4.61431,0 -8.33961,-3.7253 -8.33961,-8.33958 0,-4.6143 3.7253,-8.33961 8.33961,-8.33961 z"
           id="path4292"
           inkscape:connector-curvature="0" />
        <path
           style="fill:#ffffff;fill-opacity:1;fill-rule:nonzero;stroke:#ffffff;stroke-width:50;stroke-miterlimit:4;stroke-dasharray:none"
           d="m 241.99625,652.70142 73.97702,0 c 2.56117,0 4.6355,2.3495 4.6355,5.29167 0,2.92072 -2.07433,5.29138 -4.6355,5.29138 l -73.97702,0 c -2.56117,0 -4.63547,-2.37066 -4.63547,-5.29138 0,-2.94217 2.0743,-5.29167 4.63547,-5.29167 z"
           id="path4294"
           inkscape:connector-curvature="0" />
        <path
           style="fill:#ffffff;fill-opacity:1;fill-rule:nonzero;stroke:#ffffff;stroke-width:50;stroke-miterlimit:4;stroke-dasharray:none"
           d="m 241.99625,668.57614 64.72719,0 c 2.56116,0 4.6355,2.3495 4.6355,5.2705 0,2.94217 -2.07434,5.29167 -4.6355,5.29167 l -64.72719,0 c -2.56117,0 -4.63547,-2.3495 -4.63547,-5.29167 0,-2.921 2.0743,-5.2705 4.63547,-5.2705 z"
           id="path4296"
           inkscape:connector-curvature="0" />
        <path
           style="fill:#ffffff;fill-opacity:1;fill-rule:nonzero;stroke:#ffffff;stroke-width:50;stroke-miterlimit:4;stroke-dasharray:none"
           d="m 241.99625,684.42997 83.22657,0 c 2.56117,0 4.6355,2.37067 4.6355,5.29167 0,2.94217 -2.07433,5.29167 -4.6355,5.29167 l -83.22657,0 c -2.56117,0 -4.63547,-2.3495 -4.63547,-5.29167 0,-2.921 2.0743,-5.29167 4.63547,-5.29167 z"
           id="path4298"
           inkscape:connector-curvature="0" />
      </g>
      <g
         transform="matrix(1.8314732,0,0,1.8314732,-230.00534,-565.3191)"
         id="g4191">
        <path
           inkscape:connector-curvature="0"
           id="path4154"
           d="m 234.75728,603.3622 101.36637,0 c 3.19617,0 5.75734,2.56115 5.75734,5.75728 l 0,88.83599 c 0,3.17472 -2.56117,5.75705 -5.75734,5.75705 l -101.36637,0 c -3.19613,0 -5.75728,-2.58233 -5.75728,-5.75705 l 0,-88.83599 c 0,-3.19613 2.56115,-5.75728 5.75728,-5.75728 z"
           style="fill:#767e8d;fill-opacity:1;fill-rule:evenodd;stroke:none" />
        <path
           inkscape:connector-curvature="0"
           id="path4156"
           d="m 245.70039,611.72298 79.4801,0 c 4.6355,0 8.33966,3.72531 8.33966,8.33961 0,4.61428 -3.70416,8.33958 -8.33966,8.33958 l -79.4801,0 c -4.61431,0 -8.33961,-3.7253 -8.33961,-8.33958 0,-4.6143 3.7253,-8.33961 8.33961,-8.33961 z"
           style="fill:#ffffff;fill-opacity:1;fill-rule:nonzero;stroke:none" />
        <path
           inkscape:connector-curvature="0"
           id="path4158"
           d="m 241.99625,652.70142 73.97702,0 c 2.56117,0 4.6355,2.3495 4.6355,5.29167 0,2.92072 -2.07433,5.29138 -4.6355,5.29138 l -73.97702,0 c -2.56117,0 -4.63547,-2.37066 -4.63547,-5.29138 0,-2.94217 2.0743,-5.29167 4.63547,-5.29167 z"
           style="fill:#ffffff;fill-opacity:1;fill-rule:nonzero;stroke:none" />
        <path
           inkscape:connector-curvature="0"
           id="path4160"
           d="m 241.99625,668.57614 64.72719,0 c 2.56116,0 4.6355,2.3495 4.6355,5.2705 0,2.94217 -2.07434,5.29167 -4.6355,5.29167 l -64.72719,0 c -2.56117,0 -4.63547,-2.3495 -4.63547,-5.29167 0,-2.921 2.0743,-5.2705 4.63547,-5.2705 z"
           style="fill:#ffffff;fill-opacity:1;fill-rule:nonzero;stroke:none" />
        <path
           inkscape:connector-curvature="0"
           id="path4162"
           d="m 241.99625,684.42997 83.22657,0 c 2.56117,0 4.6355,2.37067 4.6355,5.29167 0,2.94217 -2.07433,5.29167 -4.6355,5.29167 l -83.22657,0 c -2.56117,0 -4.63547,-2.3495 -4.63547,-5.29167 0,-2.921 2.0743,-5.29167 4.63547,-5.29167 z"
           style="fill:#ffffff;fill-opacity:1;fill-rule:nonzero;stroke:none" />
      </g>
    </g>
  </g>
</svg>
