<?xml version="1.0" encoding="UTF-8" standalone="no"?>
<!-- Created with Inkscape (http://www.inkscape.org/) -->

<svg
   xmlns:dc="http://purl.org/dc/elements/1.1/"
   xmlns:cc="http://creativecommons.org/ns#"
   xmlns:rdf="http://www.w3.org/1999/02/22-rdf-syntax-ns#"
   xmlns:svg="http://www.w3.org/2000/svg"
   xmlns="http://www.w3.org/2000/svg"
   xmlns:xlink="http://www.w3.org/1999/xlink"
   xmlns:sodipodi="http://sodipodi.sourceforge.net/DTD/sodipodi-0.dtd"
   xmlns:inkscape="http://www.inkscape.org/namespaces/inkscape"
   width="210mm"
   height="297mm"
   viewBox="0 0 744.09448819 1052.3622047"
   id="svg2"
   version="1.1"
   inkscape:version="0.91 r13725"
   inkscape:export-xdpi="4"
   inkscape:export-ydpi="4"
   sodipodi:docname="entity-entitlement.svg">
  <defs
     id="defs4">
    <linearGradient
       inkscape:collect="always"
       id="linearGradient4233">
      <stop
         style="stop-color:#4e505d;stop-opacity:1;"
         offset="0"
         id="stop4235" />
      <stop
         style="stop-color:#7a8597;stop-opacity:1"
         offset="1"
         id="stop4237" />
    </linearGradient>
    <linearGradient
       inkscape:collect="always"
       xlink:href="#linearGradient4233"
       id="linearGradient4239"
       x1="220"
       y1="692.36218"
       x2="540"
       y2="372.36221"
       gradientUnits="userSpaceOnUse"
       gradientTransform="matrix(0.87584268,0,0,0.87584268,47.589892,65.688465)" />
  </defs>
  <sodipodi:namedview
     id="base"
     pagecolor="#ffffff"
     bordercolor="#666666"
     borderopacity="1.0"
     inkscape:pageopacity="0.0"
     inkscape:pageshadow="2"
     inkscape:zoom="0.5"
     inkscape:cx="-212.59149"
     inkscape:cy="366.57749"
     inkscape:document-units="px"
     inkscape:current-layer="layer1"
     showgrid="false"
     showguides="true"
     inkscape:guide-bbox="true"
     inkscape:window-width="1280"
     inkscape:window-height="962"
     inkscape:window-x="-8"
     inkscape:window-y="-8"
     inkscape:window-maximized="1">
    <sodipodi:guide
       position="560,730.00002"
       orientation="0,1"
       id="guide3338" />
    <sodipodi:guide
       position="560,330.00001"
       orientation="0,1"
       id="guide3340" />
    <sodipodi:guide
       position="190,475.00001"
       orientation="1,0"
       id="guide3344" />
    <sodipodi:guide
       position="590,451.00001"
       orientation="1,0"
       id="guide3346" />
    <inkscape:grid
       type="xygrid"
       id="grid3440" />
  </sodipodi:namedview>
  <metadata
     id="metadata7">
    <rdf:RDF>
      <cc:Work
         rdf:about="">
        <dc:format>image/svg+xml</dc:format>
        <dc:type
           rdf:resource="http://purl.org/dc/dcmitype/StillImage" />
        <dc:title>entity entitlement</dc:title>
        <dc:date>June 2015</dc:date>
        <dc:creator>
          <cc:Agent>
            <dc:title>Johannes Hechler</dc:title>
          </cc:Agent>
        </dc:creator>
        <dc:rights>
          <cc:Agent>
            <dc:title>Johannes Hechler</dc:title>
          </cc:Agent>
        </dc:rights>
        <dc:publisher>
          <cc:Agent>
            <dc:title>RRZE</dc:title>
          </cc:Agent>
        </dc:publisher>
        <dc:contributor>
          <cc:Agent>
            <dc:title>Ute Weber, Hendrik Eggers, Joanna Barbach</dc:title>
          </cc:Agent>
        </dc:contributor>
        <dc:subject>
          <rdf:Bag>
            <rdf:li>entity</rdf:li>
            <rdf:li>connection</rdf:li>
            <rdf:li>entitlement</rdf:li>
          </rdf:Bag>
        </dc:subject>
        <cc:license
           rdf:resource="http://creativecommons.org/licenses/by-sa/3.0/" />
      </cc:Work>
      <cc:License
         rdf:about="http://creativecommons.org/licenses/by-sa/3.0/">
        <cc:permits
           rdf:resource="http://creativecommons.org/ns#Reproduction" />
        <cc:permits
           rdf:resource="http://creativecommons.org/ns#Distribution" />
        <cc:requires
           rdf:resource="http://creativecommons.org/ns#Notice" />
        <cc:requires
           rdf:resource="http://creativecommons.org/ns#Attribution" />
        <cc:permits
           rdf:resource="http://creativecommons.org/ns#DerivativeWorks" />
        <cc:requires
           rdf:resource="http://creativecommons.org/ns#ShareAlike" />
      </cc:License>
    </rdf:RDF>
  </metadata>
  <g
     inkscape:label="Ebene 1"
     inkscape:groupmode="layer"
     id="layer1">
    <rect
       style="opacity:1;fill:none;fill-opacity:1;stroke:none;stroke-width:23;stroke-linecap:butt;stroke-linejoin:round;stroke-miterlimit:4;stroke-dasharray:none;stroke-opacity:1"
       id="rect4160"
       width="400"
       height="400"
       x="190"
       y="322.36221" />
    <path
       style="color:#252525;clip-rule:nonzero;display:inline;overflow:visible;visibility:visible;opacity:1;isolation:auto;mix-blend-mode:normal;color-interpolation:sRGB;color-interpolation-filters:linearRGB;solid-color:#252525;solid-opacity:1;fill:#4e505d;fill-opacity:1;fill-rule:nonzero;stroke:none;stroke-width:23;stroke-linecap:butt;stroke-linejoin:round;stroke-miterlimit:4;stroke-dasharray:none;stroke-dashoffset:0;stroke-opacity:1;color-rendering:auto;image-rendering:auto;shape-rendering:auto;text-rendering:auto;enable-background:accumulate"
       d="m 292.82584,391.81841 c -4.85217,0 -8.75843,3.90626 -8.75843,8.75842 0,4.85217 3.90626,8.75843 8.75843,8.75843 l 18.86996,0 c 0.54283,-2.83514 0.8365,-5.76043 0.8365,-8.75843 0,-2.998 -0.29367,-5.92328 -0.8365,-8.75842 l -18.86996,0 z m 32.19064,0 c 0.42734,2.85911 0.65346,5.78311 0.65346,8.75842 0,2.97532 -0.22612,5.89931 -0.65346,8.75843 l 128.41017,0 c -0.49039,-3.05647 -0.75268,-6.18791 -0.75268,-9.37939 0,-2.76137 0.20571,-5.47521 0.57477,-8.13746 l -128.23226,0 z m 141.52215,0 c -0.46838,2.64164 -0.72702,5.35735 -0.72702,8.13746 0,3.21646 0.32841,6.35251 0.95111,9.37939 l 36.26536,0 c 4.85217,0 8.75843,-3.90626 8.75843,-8.75843 0,-4.85216 -3.90626,-8.75842 -8.75843,-8.75842 l -36.48945,0 z m -199.98807,8.75842 c -4.85217,0 -8.75843,3.90626 -8.75843,8.75843 l 0,36.38682 c 2.83514,0.54283 5.76044,0.8365 8.75843,0.8365 2.99799,0 5.92329,-0.29367 8.75843,-0.8365 l 0,-36.38682 c 0,-4.85217 -3.90626,-8.75843 -8.75843,-8.75843 z m 245.23595,26.27529 c -4.85217,0 -8.75843,3.90625 -8.75843,8.75842 l 0,9.48886 c 2.83729,0.5437 5.76484,0.83821 8.76527,0.83821 2.99557,0 5.91859,-0.29281 8.75159,-0.83478 l 0,-9.49229 c 0,-4.85217 -3.90626,-8.75842 -8.75843,-8.75842 z m -8.75843,31.56797 0,128.91651 c 2.83211,-0.41909 5.72702,-0.6432 8.67289,-0.6432 3.00477,0 5.95788,0.22804 8.84397,0.66373 l 0,-128.93534 c -2.85699,0.4267 -5.77859,0.65346 -8.75159,0.65346 -2.97771,0 -5.90396,-0.22715 -8.76527,-0.65516 z m -245.23595,0.62266 0,127.9808 c 2.94071,-0.45284 5.95227,-0.68767 9.01673,-0.68767 2.88634,0 5.72271,0.21835 8.50013,0.62096 l 0,-127.91409 c -2.85911,0.42735 -5.78311,0.65347 -8.75843,0.65347 -2.97532,0 -5.89932,-0.22612 -8.75843,-0.65347 z m 9.01673,140.43077 c -3.08866,0 -6.10173,0.30734 -9.01673,0.88269 l 0,10.42287 c 0,4.85217 3.90626,8.75842 8.75843,8.75842 4.85217,0 8.75843,-3.90625 8.75843,-8.75842 l 0,-10.51525 c -2.75489,-0.51121 -5.5928,-0.79031 -8.50013,-0.79031 z m 244.89211,0.35752 c -2.96795,0 -5.86429,0.28885 -8.67289,0.82111 l 0,10.12693 c 0,4.85217 3.90626,8.75842 8.75843,8.75842 4.85217,0 8.75843,-3.90625 8.75843,-8.75842 l 0,-10.09615 c -2.86164,-0.5535 -5.81593,-0.85189 -8.84397,-0.85189 z m -227.63356,37.22332 c -4.85216,0 -8.75842,3.90626 -8.75842,8.75842 0,4.85217 3.90626,8.75843 8.75842,8.75843 l 27.82341,0 c 0.58805,-2.94553 0.89978,-5.99249 0.89978,-9.11595 0,-2.87253 -0.27388,-5.67691 -0.7732,-8.4009 l -27.94999,0 z m 41.25356,0 c 0.39328,2.74591 0.60727,5.5488 0.60727,8.4009 0,3.09928 -0.24349,6.14346 -0.70649,9.11595 l 128.01331,0 c -0.42735,-2.85912 -0.65347,-5.78311 -0.65347,-8.75843 0,-2.97531 0.22612,-5.89931 0.65347,-8.75842 l -127.91409,0 z m 141.23476,0 c -0.54283,2.83514 -0.8365,5.76042 -0.8365,8.75842 0,2.998 0.29367,5.92329 0.8365,8.75843 l 27.71393,0 c 4.85216,0 8.75842,-3.90626 8.75842,-8.75843 0,-4.85216 -3.90626,-8.75842 -8.75842,-8.75842 l -27.71393,0 z"
       id="rect4203"
       inkscape:connector-curvature="0" />
    <path
       style="color:#252525;clip-rule:nonzero;display:inline;overflow:visible;visibility:visible;opacity:1;isolation:auto;mix-blend-mode:normal;color-interpolation:sRGB;color-interpolation-filters:linearRGB;solid-color:#252525;solid-opacity:1;fill:url(#linearGradient4239);fill-opacity:1;fill-rule:nonzero;stroke:none;stroke-width:23;stroke-linecap:butt;stroke-linejoin:round;stroke-miterlimit:4;stroke-dasharray:none;stroke-dashoffset:0;stroke-opacity:1;color-rendering:auto;image-rendering:auto;shape-rendering:auto;text-rendering:auto;enable-background:accumulate"
       d="m 511.79335,347.40531 a 52.550561,52.550564 0 0 0 -52.55056,52.55056 52.550561,52.550564 0 0 0 52.55056,52.55056 52.550561,52.550564 0 0 0 52.55056,-52.55056 52.550561,52.550564 0 0 0 -52.55056,-52.55056 z m -245.24279,0.62096 A 52.550561,52.550564 0 0 0 214,400.57683 a 52.550561,52.550564 0 0 0 52.55056,52.55057 52.550561,52.550564 0 0 0 52.55056,-52.55057 52.550561,52.550564 0 0 0 -52.55056,-52.55056 z m 0.2583,244.87843 a 52.550561,52.550564 0 0 0 -52.55056,52.55056 52.550561,52.550564 0 0 0 52.55056,52.55056 52.550561,52.550564 0 0 0 52.55056,-52.55056 52.550561,52.550564 0 0 0 -52.55056,-52.55056 z m 244.89211,0.35752 a 52.550561,52.550564 0 0 0 -52.55056,52.55056 52.550561,52.550564 0 0 0 52.55056,52.55056 52.550561,52.550564 0 0 0 52.55057,-52.55056 52.550561,52.550564 0 0 0 -52.55057,-52.55056 z"
       id="path4165"
       inkscape:connector-curvature="0" />
    <g
       transform="matrix(0.94251042,0,0,0.94251042,9.396492,17.797047)"
       id="g4168">
      <path
         sodipodi:nodetypes="ccccsssssssscccc"
         inkscape:connector-curvature="0"
         id="rect4180-0"
         d="m 488.46008,513.77625 c -33.53977,1.3e-4 -60.72886,27.18997 -60.72808,60.72973 0.003,19.99775 9.85116,38.71212 26.33192,50.0388 l 0,29.66009 -43.25969,0 c -7.05556,0 -10.95267,5.90909 -12.73564,12.73563 l -11.07041,42.38638 c -1.78296,6.82656 5.68009,12.73564 12.73564,12.73564 l 176.66653,0 c 7.05554,0 14.51861,-5.90908 12.73562,-12.73564 l -11.0704,-42.38638 c -1.78294,-6.82654 -5.68009,-12.73563 -12.73564,-12.73563 l -43.24808,0 0,-29.17754 c 16.91729,-11.24645 27.0908,-30.20688 27.10799,-50.52135 7.8e-4,-33.54043 -27.18931,-60.73052 -60.72976,-60.72973 z"
         style="opacity:1;fill:#99b000;fill-opacity:1;stroke:#ffffff;stroke-width:35;stroke-linecap:round;stroke-linejoin:round;stroke-miterlimit:4;stroke-dasharray:none;stroke-opacity:1" />
      <path
         sodipodi:nodetypes="ccccsssssssscccc"
         inkscape:connector-curvature="0"
         id="rect4180"
         d="m 487.79564,513.81373 c -33.53976,1.3e-4 -60.72886,27.18997 -60.72806,60.72974 0.003,19.99774 9.85114,38.7121 26.33191,50.03878 l 0,29.66011 -43.25969,0 c -7.05557,0 -10.95268,5.90908 -12.73564,12.73562 l -11.07043,42.38638 c -1.78294,6.82656 5.6801,12.73565 12.73565,12.73565 l 176.66653,0 c 7.05555,0 14.51862,-5.90909 12.73563,-12.73565 l -11.07039,-42.38638 c -1.78296,-6.82654 -5.68011,-12.73562 -12.73565,-12.73562 l -43.24809,0 0,-29.17755 c 16.91729,-11.24644 27.0908,-30.20688 27.108,-50.52134 7.8e-4,-33.54044 -27.18932,-60.73054 -60.72977,-60.72974 z"
         style="opacity:1;fill:#99b000;fill-opacity:1;stroke:none;stroke-width:16;stroke-linecap:round;stroke-linejoin:round;stroke-miterlimit:4;stroke-dasharray:none;stroke-opacity:1" />
    </g>
  </g>
</svg>
