<?xml version="1.0" encoding="UTF-8" standalone="no"?>
<!-- Created with Inkscape (http://www.inkscape.org/) -->

<svg
   xmlns:dc="http://purl.org/dc/elements/1.1/"
   xmlns:cc="http://creativecommons.org/ns#"
   xmlns:rdf="http://www.w3.org/1999/02/22-rdf-syntax-ns#"
   xmlns:svg="http://www.w3.org/2000/svg"
   xmlns="http://www.w3.org/2000/svg"
   xmlns:xlink="http://www.w3.org/1999/xlink"
   xmlns:sodipodi="http://sodipodi.sourceforge.net/DTD/sodipodi-0.dtd"
   xmlns:inkscape="http://www.inkscape.org/namespaces/inkscape"
   width="210mm"
   height="297mm"
   viewBox="0 0 744.09448819 1052.3622047"
   id="svg2"
   version="1.1"
   inkscape:version="0.91 r13725"
   inkscape:export-xdpi="161.56"
   inkscape:export-ydpi="161.56"
   sodipodi:docname="entity-function.svg"
   inkscape:export-filename="C:\Users\johannes\Documents\Arbeit\RRZE\github3\bicons\720x720\emblems\entity-function.png">
  <defs
     id="defs4">
    <linearGradient
       inkscape:collect="always"
       xlink:href="#linearGradient4441"
       id="linearGradient4447"
       x1="18.18"
       y1="381.77985"
       x2="381.77997"
       y2="18.179979"
       gradientUnits="userSpaceOnUse"
       gradientTransform="matrix(1.0343423,0,0,1.0343423,182.848,314.95488)" />
    <linearGradient
       inkscape:collect="always"
       id="linearGradient4441">
      <stop
         style="stop-color:#4e505d;stop-opacity:1;"
         offset="0"
         id="stop4443" />
      <stop
         style="stop-color:#7a859c;stop-opacity:1"
         offset="1"
         id="stop4445" />
    </linearGradient>
  </defs>
  <sodipodi:namedview
     id="base"
     pagecolor="#ffffff"
     bordercolor="#666666"
     borderopacity="1.0"
     inkscape:pageopacity="0.0"
     inkscape:pageshadow="2"
     inkscape:zoom="1"
     inkscape:cx="460.87313"
     inkscape:cy="563.07366"
     inkscape:document-units="px"
     inkscape:current-layer="layer1"
     showgrid="false"
     showguides="true"
     inkscape:guide-bbox="true"
     inkscape:window-width="1600"
     inkscape:window-height="837"
     inkscape:window-x="-4"
     inkscape:window-y="-4"
     inkscape:window-maximized="1"
     inkscape:snap-bbox="true"
     inkscape:bbox-paths="true"
     inkscape:bbox-nodes="true">
    <sodipodi:guide
       position="560,730.00002"
       orientation="0,1"
       id="guide3338" />
    <sodipodi:guide
       position="560,330.00001"
       orientation="0,1"
       id="guide3340" />
    <sodipodi:guide
       position="190,475.00001"
       orientation="1,0"
       id="guide3344" />
    <sodipodi:guide
       position="590,451.00001"
       orientation="1,0"
       id="guide3346" />
    <inkscape:grid
       type="xygrid"
       id="grid3440" />
  </sodipodi:namedview>
  <metadata
     id="metadata7">
    <rdf:RDF>
      <cc:Work
         rdf:about="">
        <dc:format>image/svg+xml</dc:format>
        <dc:type
           rdf:resource="http://purl.org/dc/dcmitype/StillImage" />
        <dc:title>entity function</dc:title>
        <dc:date>June 2015</dc:date>
        <dc:creator>
          <cc:Agent>
            <dc:title>Johannes Hechler</dc:title>
          </cc:Agent>
        </dc:creator>
        <dc:rights>
          <cc:Agent>
            <dc:title>Johannes Hechler</dc:title>
          </cc:Agent>
        </dc:rights>
        <dc:publisher>
          <cc:Agent>
            <dc:title>RRZE</dc:title>
          </cc:Agent>
        </dc:publisher>
        <dc:contributor>
          <cc:Agent>
            <dc:title>Ute Weber, Hendrik Eggers, Joanna Barbach</dc:title>
          </cc:Agent>
        </dc:contributor>
        <dc:subject>
          <rdf:Bag>
            <rdf:li>entity</rdf:li>
            <rdf:li>connection</rdf:li>
            <rdf:li>function</rdf:li>
          </rdf:Bag>
        </dc:subject>
        <cc:license
           rdf:resource="http://creativecommons.org/licenses/by-sa/3.0/" />
      </cc:Work>
      <cc:License
         rdf:about="http://creativecommons.org/licenses/by-sa/3.0/">
        <cc:permits
           rdf:resource="http://creativecommons.org/ns#Reproduction" />
        <cc:permits
           rdf:resource="http://creativecommons.org/ns#Distribution" />
        <cc:requires
           rdf:resource="http://creativecommons.org/ns#Notice" />
        <cc:requires
           rdf:resource="http://creativecommons.org/ns#Attribution" />
        <cc:permits
           rdf:resource="http://creativecommons.org/ns#DerivativeWorks" />
        <cc:requires
           rdf:resource="http://creativecommons.org/ns#ShareAlike" />
      </cc:License>
    </rdf:RDF>
  </metadata>
  <g
     inkscape:label="Ebene 1"
     inkscape:groupmode="layer"
     id="layer1">
    <g
       id="g4194">
      <rect
         y="322.36221"
         x="190"
         height="400"
         width="400"
         id="rect4160"
         style="opacity:1;fill:none;fill-opacity:1;stroke:none;stroke-width:23;stroke-linecap:butt;stroke-linejoin:round;stroke-miterlimit:4;stroke-dasharray:none;stroke-opacity:1" />
      <path
         sodipodi:nodetypes="ssssscscscccccc"
         inkscape:connector-curvature="0"
         id="path4420"
         d="m 248.66406,333.75977 c -25.96406,-4.8e-4 -47.0122,21.04766 -47.01172,47.01171 5.9e-4,25.96329 21.04842,47.01025 47.01172,47.00977 25.96254,-6e-4 47.00918,-21.04724 47.00977,-47.00977 4.8e-4,-25.96328 -21.04648,-47.01111 -47.00977,-47.01171 z m 282.44532,0.0664 c -25.96254,6e-4 -47.00918,21.04724 -47.00977,47.00977 -4.8e-4,25.96329 21.04647,47.01112 47.00977,47.01172 25.96482,0.002 47.01415,-21.04691 47.01367,-47.01172 -5.9e-4,-25.96405 -21.04961,-47.01132 -47.01367,-47.00977 z M 248.65039,616.28516 c -25.96406,6e-4 -47.01133,21.04962 -47.00977,47.01367 6e-4,25.96252 21.04724,47.00916 47.00977,47.00976 25.96253,-6e-4 47.00917,-21.04724 47.00977,-47.00976 0.002,-25.96405 -21.04571,-47.01307 -47.00977,-47.01367 z"
         style="color:#000000;clip-rule:nonzero;display:inline;overflow:visible;visibility:visible;opacity:1;isolation:auto;mix-blend-mode:normal;color-interpolation:sRGB;color-interpolation-filters:linearRGB;solid-color:#000000;solid-opacity:1;fill:url(#linearGradient4447);fill-opacity:1;fill-rule:nonzero;stroke:none;stroke-width:1px;stroke-linecap:butt;stroke-linejoin:miter;stroke-miterlimit:4;stroke-dasharray:none;stroke-dashoffset:0;stroke-opacity:1;color-rendering:auto;image-rendering:auto;shape-rendering:auto;text-rendering:auto;enable-background:accumulate" />
      <path
         id="rect4428"
         d="M 314.47852 371.36719 L 314.47852 390.17188 L 464.91406 390.17188 L 464.91406 371.36719 L 314.47852 371.36719 z M 239.26172 446.58594 L 239.26172 597.01953 L 258.06445 597.01953 L 258.06445 446.58594 L 239.26172 446.58594 z M 521.32812 446.58594 L 521.32812 507.83984 A 17.50175 17.50175 0 0 1 521.98633 509.88086 L 525.43164 523.75781 L 536.30469 516.875 A 17.50175 17.50175 0 0 1 540.13086 515.06836 L 540.13086 446.58594 L 521.32812 446.58594 z M 540.13086 555.875 L 531.7168 561.20117 A 17.50175 17.50175 0 0 1 521.32812 563.87891 L 521.32812 585.69727 C 524.94268 588.98735 528.06121 592.80434 530.56445 597.01953 L 540.13086 597.01953 L 540.13086 583.48047 A 17.50175 17.50175 0 0 1 540.13086 577.2168 L 540.13086 555.875 z M 314.47852 653.43164 L 314.47852 672.23828 L 389.14062 672.23828 L 397.07812 658.2832 L 379.59961 653.89453 A 17.50175 17.50175 0 0 1 378.12109 653.43164 L 314.47852 653.43164 z M 434.91211 653.43164 A 17.50175 17.50175 0 0 1 433.04883 665.83203 L 429.4043 672.23828 L 464.91406 672.23828 L 464.91406 664.20508 C 459.76611 661.43333 455.16324 657.76688 451.30664 653.43164 L 434.91211 653.43164 z "
         style="color:#000000;clip-rule:nonzero;display:inline;overflow:visible;visibility:visible;opacity:1;isolation:auto;mix-blend-mode:normal;color-interpolation:sRGB;color-interpolation-filters:linearRGB;solid-color:#000000;solid-opacity:1;fill:#4e505d;fill-opacity:1;fill-rule:nonzero;stroke:none;stroke-width:1px;stroke-linecap:butt;stroke-linejoin:miter;stroke-miterlimit:4;stroke-dasharray:none;stroke-dashoffset:0;stroke-opacity:1;color-rendering:auto;image-rendering:auto;shape-rendering:auto;text-rendering:auto;enable-background:accumulate" />
      <path
         id="path4160"
         d="M 469.86523 514.09766 L 462.9082 542.04297 C 458.26978 543.56511 453.78665 545.47859 449.49609 547.78125 L 424.79492 533.57422 L 400.48242 559.13867 L 415.67383 583.45312 C 413.89582 587.08285 412.42678 590.79037 411.22852 594.61523 L 383.86133 601.52344 L 383.86133 636.92188 L 412.00195 643.98633 L 412.00195 643.94727 C 413.5481 648.5137 415.48004 652.92549 417.83789 657.17969 L 403.65234 682.11914 L 429.04688 706.58984 L 453.5918 691.05664 L 452.82031 690.35352 C 456.26047 692.03177 459.81578 693.4756 463.44922 694.64648 L 470.33008 722.24023 L 505.46484 722.24023 L 512.46094 694.09961 C 516.86745 692.65553 521.15817 690.78275 525.2168 688.55859 L 550.07227 702.8418 L 574.42188 677.31836 L 559.03906 652.69141 C 560.58521 649.491 561.89857 646.17289 563.01953 642.77734 L 590 635.94727 L 590 600.58789 L 562.98047 593.75781 C 561.51164 589.11333 559.61793 584.62327 557.33789 580.29102 L 571.02148 556.17188 L 545.66406 531.66211 L 522.35742 546.41406 C 518.99456 544.73585 515.51512 543.29198 511.95898 542.12109 L 505.00195 514.09766 L 469.86523 514.09766 z M 488.14844 590.2832 C 505.63305 590.2832 519.80078 604.21632 519.80078 621.42773 C 519.80078 638.63966 505.63305 652.57422 488.14844 652.57422 C 470.70234 652.57422 456.53317 638.63966 456.49414 621.42773 C 456.49414 604.21632 470.66331 590.2832 488.14844 590.2832 z "
         style="fill:#99b000;fill-opacity:1;fill-rule:evenodd;stroke:none" />
    </g>
  </g>
</svg>
