<?xml version="1.0" encoding="UTF-8" standalone="no"?>
<!-- Created with Inkscape (http://www.inkscape.org/) -->
<svg xmlns:dc="http://purl.org/dc/elements/1.1/" xmlns:cc="http://creativecommons.org/ns#" xmlns:rdf="http://www.w3.org/1999/02/22-rdf-syntax-ns#" xmlns:svg="http://www.w3.org/2000/svg" xmlns="http://www.w3.org/2000/svg" xmlns:xlink="http://www.w3.org/1999/xlink" xmlns:sodipodi="http://sodipodi.sourceforge.net/DTD/sodipodi-0.dtd" xmlns:inkscape="http://www.inkscape.org/namespaces/inkscape" width="210mm" height="297mm" viewBox="0 0 744.09448819 1052.3622047" id="svg2" version="1.1" inkscape:version="0.91 r13725" inkscape:export-xdpi="4" inkscape:export-ydpi="4">
  <defs id="defs4">
    <linearGradient inkscape:collect="always" id="linearGradient4233">
      <stop style="stop-color:#4e505d;stop-opacity:1;" offset="0" id="stop4235"/>
      <stop style="stop-color:#545d6c;stop-opacity:1" offset="1" id="stop4237"/>
    </linearGradient>
    <linearGradient id="linearGradient2224">
      <stop id="stop2226" offset="0" style="stop-color:#7c7c7c;stop-opacity:1;"/>
      <stop id="stop2228" offset="1" style="stop-color:#b8b8b8;stop-opacity:1;"/>
    </linearGradient>
    <linearGradient id="linearGradient15218">
      <stop id="stop15220" offset="0" style="stop-color:#eeeeef;stop-opacity:1;"/>
      <stop id="stop2736" offset="0.59928656" style="stop-color:#d3d7cf;stop-opacity:1;"/>
      <stop id="stop2738" offset="0.82758623" style="stop-color:#ffffff;stop-opacity:1;"/>
      <stop id="stop15222" offset="1" style="stop-color:#d3d7cf;stop-opacity:1;"/>
    </linearGradient>
    <pattern y="0" x="0" height="6" width="6" patternUnits="userSpaceOnUse" id="EMFhbasepattern"/>
    <pattern y="0" x="0" height="6" width="6" patternUnits="userSpaceOnUse" id="EMFhbasepattern-5"/>
    <linearGradient inkscape:collect="always" xlink:href="#linearGradient4233" id="linearGradient4239" x1="220" y1="692.36218" x2="540" y2="372.36221" gradientUnits="userSpaceOnUse"/>
  </defs>
  <sodipodi:namedview id="base" pagecolor="#ffffff" bordercolor="#666666" borderopacity="1.0" inkscape:pageopacity="0.0" inkscape:pageshadow="2" inkscape:zoom="0.5" inkscape:cx="287.69358" inkscape:cy="386.66908" inkscape:document-units="px" inkscape:current-layer="layer1" showgrid="false" showguides="true" inkscape:guide-bbox="true" inkscape:window-width="1366" inkscape:window-height="721" inkscape:window-x="-4" inkscape:window-y="-4" inkscape:window-maximized="1">
    <sodipodi:guide position="560,730.00002" orientation="0,1" id="guide3338"/>
    <sodipodi:guide position="560,330.00001" orientation="0,1" id="guide3340"/>
    <sodipodi:guide position="190,475.00001" orientation="1,0" id="guide3344"/>
    <sodipodi:guide position="590,451.00001" orientation="1,0" id="guide3346"/>
    <inkscape:grid type="xygrid" id="grid3440"/>
  </sodipodi:namedview>
  <metadata id="metadata7">
    <rdf:RDF>
      <cc:Work rdf:about="">
        <dc:format>image/svg+xml</dc:format>
        <dc:type rdf:resource="http://purl.org/dc/dcmitype/StillImage"/>
        <dc:title>entity organizational unit</dc:title>
      </cc:Work>
    </rdf:RDF>
  </metadata>
  <g inkscape:label="Ebene 1" inkscape:groupmode="layer" id="layer1">
    <rect style="opacity:1;fill:none;fill-opacity:1;stroke:none;stroke-width:23;stroke-linecap:butt;stroke-linejoin:round;stroke-miterlimit:4;stroke-dasharray:none;stroke-opacity:1" id="rect4160" width="400" height="400" x="190" y="322.36221"/>
    <g id="g4164" transform="matrix(0.87498292,0,0,0.87498292,47.753246,66.307507)">
      <path id="rect4203" d="m 280,372.36133 c -5.54,0 -10,4.46 -10,10 0,5.54 4.46,10 10,10 l 21.54492,0 c 0.61978,-3.23704 0.95508,-6.57702 0.95508,-10 0,-3.42299 -0.3353,-6.76296 -0.95508,-10 l -21.54492,0 z m 36.75391,0 c 0.48792,3.26441 0.74609,6.60291 0.74609,10 0,3.39709 -0.25817,6.73558 -0.74609,10 l 146.61328,0 c -0.55991,-3.48975 -0.85938,-7.06509 -0.85938,-10.70899 0,-3.15282 0.23487,-6.25136 0.65625,-9.29101 l -146.41015,0 z m 161.58398,0 c -0.53478,3.01612 -0.83008,6.1168 -0.83008,9.29101 0,3.67242 0.37497,7.25303 1.08594,10.70899 l 41.40625,0 c 5.54,0 10,-4.46 10,-10 0,-5.54 -4.46,-10 -10,-10 l -41.66211,0 z m -228.33789,10 c -5.54,0 -10,4.46 -10,10 l 0,41.54492 c 3.23704,0.61978 6.57702,0.95508 10,0.95508 3.42298,0 6.76296,-0.3353 10,-0.95508 l 0,-41.54492 c 0,-5.54 -4.46,-10 -10,-10 z m 280,30 c -5.54,0 -10,4.46 -10,10 l 0,10.83398 c 3.23949,0.62077 6.58205,0.95703 10.00781,0.95703 3.42021,0 6.7576,-0.33432 9.99219,-0.95312 l 0,-10.83789 c 0,-5.54 -4.46,-10 -10,-10 z m -10,36.04297 0,147.1914 c 3.23358,-0.47849 6.53887,-0.73437 9.90234,-0.73437 3.43071,0 6.80245,0.26036 10.09766,0.75781 l 0,-147.21289 c -3.26199,0.48718 -6.59775,0.74609 -9.99219,0.74609 -3.39982,0 -6.74089,-0.25935 -10.00781,-0.74804 z m -280,0.71093 0,146.12305 c 3.35757,-0.51704 6.79604,-0.78516 10.29492,-0.78516 3.2955,10e-6 6.53394,0.24931 9.70508,0.70899 l 0,-146.04688 c -3.26441,0.48793 -6.60291,0.7461 -10,0.7461 -3.39709,0 -6.73559,-0.25817 -10,-0.7461 z m 10.29492,160.33789 c -3.52651,10e-6 -6.9667,0.35091 -10.29492,1.00782 l 0,11.90039 c 0,5.54 4.46,10 10,10 5.54,0 10,-4.46 10,-10 l 0,-12.00586 c -3.14541,-0.58368 -6.38562,-0.90235 -9.70508,-0.90235 z m 279.60742,0.40821 c -3.38869,0 -6.6956,0.32979 -9.90234,0.9375 l 0,11.5625 c 0,5.54 4.46,10 10,10 5.54,0 10,-4.46 10,-10 l 0,-11.52735 c -3.26729,-0.63196 -6.64038,-0.97265 -10.09766,-0.97265 z M 270,652.36133 c -5.54,0 -10,4.46 -10,10 0,5.54 4.46,10 10,10 l 31.76758,0 c 0.67142,-3.36308 1.02734,-6.84197 1.02734,-10.40821 0,-3.27973 -0.31271,-6.48165 -0.88281,-9.59179 l -31.91211,0 z m 47.10156,0 c 0.44903,3.13517 0.69336,6.33539 0.69336,9.59179 0,3.53863 -0.27801,7.01435 -0.80664,10.40821 l 146.16016,0 c -0.48793,-3.26442 -0.7461,-6.60291 -0.7461,-10 0,-3.39709 0.25817,-6.73559 0.7461,-10 l -146.04688,0 z m 161.25586,0 c -0.61978,3.23704 -0.95508,6.57701 -0.95508,10 0,3.42298 0.3353,6.76296 0.95508,10 l 31.64258,0 c 5.54,0 10,-4.46 10,-10 0,-5.54 -4.46,-10 -10,-10 l -31.64258,0 z" style="color:#000000;clip-rule:nonzero;display:inline;overflow:visible;visibility:visible;opacity:1;isolation:auto;mix-blend-mode:normal;color-interpolation:sRGB;color-interpolation-filters:linearRGB;solid-color:#000000;solid-opacity:1;fill:#4e505d;fill-opacity:1;fill-rule:nonzero;stroke:none;stroke-width:23;stroke-linecap:butt;stroke-linejoin:round;stroke-miterlimit:4;stroke-dasharray:none;stroke-dashoffset:0;stroke-opacity:1;color-rendering:auto;image-rendering:auto;shape-rendering:auto;text-rendering:auto;enable-background:accumulate" inkscape:connector-curvature="0"/>
      <path id="path4165" d="m 530.00781,321.65234 a 60,60.000004 0 0 0 -60,60 60,60.000004 0 0 0 60,60 60,60.000004 0 0 0 60,-60 60,60.000004 0 0 0 -60,-60 z M 250,322.36133 a 60,60.000004 0 0 0 -60,60 60,60.000004 0 0 0 60,60 60,60.000004 0 0 0 60,-60 60,60.000004 0 0 0 -60,-60 z m 0.29492,279.59179 a 60,60.000004 0 0 0 -60,60 60,60.000004 0 0 0 60,60 60,60.000004 0 0 0 60,-60 60,60.000004 0 0 0 -60,-60 z m 279.60742,0.40821 a 60,60.000004 0 0 0 -60,60 60,60.000004 0 0 0 60,60 60,60.000004 0 0 0 60,-60 60,60.000004 0 0 0 -60,-60 z" style="color:#000000;clip-rule:nonzero;display:inline;overflow:visible;visibility:visible;opacity:1;isolation:auto;mix-blend-mode:normal;color-interpolation:sRGB;color-interpolation-filters:linearRGB;solid-color:#000000;solid-opacity:1;fill:url(#linearGradient4239);fill-opacity:1;fill-rule:nonzero;stroke:none;stroke-width:23;stroke-linecap:butt;stroke-linejoin:round;stroke-miterlimit:4;stroke-dasharray:none;stroke-dashoffset:0;stroke-opacity:1;color-rendering:auto;image-rendering:auto;shape-rendering:auto;text-rendering:auto;enable-background:accumulate" inkscape:connector-curvature="0"/>
      <g transform="matrix(0.63305657,0,0,0.63305657,144.72145,46.272197)" id="g4194">
        <g id="g4212">
          <g id="g4199" style="stroke:#ffffff;stroke-width:50;stroke-linejoin:round;stroke-miterlimit:4;stroke-dasharray:none">
            <path style="color:#000000;clip-rule:nonzero;display:inline;overflow:visible;visibility:visible;opacity:1;isolation:auto;mix-blend-mode:normal;color-interpolation:sRGB;color-interpolation-filters:linearRGB;solid-color:#000000;solid-opacity:1;fill:#99b000;fill-opacity:1;fill-rule:nonzero;stroke:#ffffff;stroke-width:50;stroke-linecap:butt;stroke-linejoin:round;stroke-miterlimit:4;stroke-dasharray:none;stroke-dashoffset:60.95800018;stroke-opacity:1;color-rendering:auto;image-rendering:auto;shape-rendering:auto;text-rendering:auto;enable-background:accumulate" d="m 466.60795,720.53446 c -4.1553,0 -7.5005,3.3452 -7.5005,7.5005 l 15.001,0 c 0,-4.1553 -3.3452,-7.5005 -7.5005,-7.5005 z m -7.5005,22.50151 0,235.01571 c 0,4.1553 3.3452,7.5005 7.5005,7.5005 0.555,0 1.0911,-0.06 1.6115,-0.176 0.298,0.06 0.574,0.176 0.889,0.176 l 83.00364,0 0,-10.00061 -78.00334,0 0,-90.00604 78.00334,0 0,-10.0007 -78.00334,0 0,-90.00604 78.00334,0 0,-10.00061 -78.00334,0 0,-32.50221 -15.001,0 z m 108.00535,32.50221 0,10.00061 22.00341,0 c 2.7702,0 5.0003,-2.2301 5.0003,-5.00031 0,-2.7702 -2.2301,-5.0003 -5.0003,-5.0003 l -22.00341,0 z m 0,100.00665 0,10.0007 32.00401,0 c 2.7702,0 5.0004,-2.2302 5.0004,-5.0003 0,-2.7702 -2.2302,-5.0004 -5.0004,-5.0004 l -32.00401,0 z m 0,100.00674 0,10.00061 17.003,0 c 2.7702,0 5.00041,-2.2301 5.00041,-5.0003 0,-2.77021 -2.23021,-5.00031 -5.00041,-5.00031 l -17.003,0 z" id="path4201" inkscape:connector-curvature="0"/>
            <rect style="color:#000000;clip-rule:nonzero;display:inline;overflow:visible;visibility:visible;opacity:1;isolation:auto;mix-blend-mode:normal;color-interpolation:sRGB;color-interpolation-filters:linearRGB;solid-color:#000000;solid-opacity:1;fill:#99b000;fill-opacity:1;fill-rule:nonzero;stroke:#ffffff;stroke-width:50;stroke-linecap:butt;stroke-linejoin:round;stroke-miterlimit:4;stroke-dasharray:none;stroke-dashoffset:60.95800018;stroke-opacity:1;color-rendering:auto;image-rendering:auto;shape-rendering:auto;text-rendering:auto;enable-background:accumulate" id="rect4204" width="125.00838" height="125.00838" x="404.10379" y="610.53168" ry="25.001633"/>
            <path style="color:#000000;clip-rule:nonzero;display:inline;overflow:visible;visibility:visible;opacity:1;isolation:auto;mix-blend-mode:normal;color-interpolation:sRGB;color-interpolation-filters:linearRGB;solid-color:#000000;solid-opacity:1;fill:#99b000;fill-opacity:1;fill-rule:nonzero;stroke:#ffffff;stroke-width:50;stroke-linecap:butt;stroke-linejoin:round;stroke-miterlimit:4;stroke-dasharray:none;stroke-dashoffset:60.95800018;stroke-opacity:1;color-rendering:auto;image-rendering:auto;shape-rendering:auto;text-rendering:auto;enable-background:accumulate" d="m 577.6649,750.78777 c -10.0001,0 -18.04811,8.0578 -18.04811,18.05781 l 0,24.06411 c 0,10 8.04801,18.04811 18.04811,18.04811 l 24.07381,0 c 10.00001,0 18.04811,-8.04811 18.04811,-18.04811 l 0,-24.06411 c 0,-10.00001 -8.0481,-18.05781 -18.04811,-18.05781 l -24.07381,0 z m 0,100.00665 c -10.0001,0 -18.04811,8.0579 -18.04811,18.0579 l 0,24.06412 c 0,9.9999 8.04801,18.048 18.04811,18.048 l 24.07381,0 c 10.00001,0 18.04811,-8.0481 18.04811,-18.048 l 0,-24.06412 c 0,-10 -8.0481,-18.0579 -18.04811,-18.0579 l -24.07381,0 z m -0.127,100.00674 c -9.9265,0 -17.92101,7.99451 -17.92101,17.92111 l 0,23.88831 c 0,9.92662 7.99451,17.92112 17.92101,17.92112 l 23.88841,0 c 9.92651,0 17.92111,-7.9945 17.92111,-17.92112 l 0,-23.88831 c 0,-9.9266 -7.9946,-17.92111 -17.92111,-17.92111 l -23.88841,0 z" id="path4206" inkscape:connector-curvature="0"/>
          </g>
          <path inkscape:connector-curvature="0" id="rect4161" d="m 466.60795,720.53446 c -4.1553,0 -7.5005,3.3452 -7.5005,7.5005 l 15.001,0 c 0,-4.1553 -3.3452,-7.5005 -7.5005,-7.5005 z m -7.5005,22.50151 0,235.01571 c 0,4.1553 3.3452,7.5005 7.5005,7.5005 0.555,0 1.0911,-0.06 1.6115,-0.176 0.298,0.06 0.574,0.176 0.889,0.176 l 83.00364,0 0,-10.00061 -78.00334,0 0,-90.00604 78.00334,0 0,-10.0007 -78.00334,0 0,-90.00604 78.00334,0 0,-10.00061 -78.00334,0 0,-32.50221 -15.001,0 z m 108.00535,32.50221 0,10.00061 22.00341,0 c 2.7702,0 5.0003,-2.2301 5.0003,-5.00031 0,-2.7702 -2.2301,-5.0003 -5.0003,-5.0003 l -22.00341,0 z m 0,100.00665 0,10.0007 32.00401,0 c 2.7702,0 5.0004,-2.2302 5.0004,-5.0003 0,-2.7702 -2.2302,-5.0004 -5.0004,-5.0004 l -32.00401,0 z m 0,100.00674 0,10.00061 17.003,0 c 2.7702,0 5.00041,-2.2301 5.00041,-5.0003 0,-2.77021 -2.23021,-5.00031 -5.00041,-5.00031 l -17.003,0 z" style="color:#000000;clip-rule:nonzero;display:inline;overflow:visible;visibility:visible;opacity:1;isolation:auto;mix-blend-mode:normal;color-interpolation:sRGB;color-interpolation-filters:linearRGB;solid-color:#000000;solid-opacity:1;fill:#99b000;fill-opacity:1;fill-rule:nonzero;stroke:none;stroke-width:4;stroke-linecap:butt;stroke-linejoin:round;stroke-miterlimit:4;stroke-dasharray:none;stroke-dashoffset:60.95800018;stroke-opacity:1;color-rendering:auto;image-rendering:auto;shape-rendering:auto;text-rendering:auto;enable-background:accumulate"/>
          <rect ry="25.001633" y="610.53168" x="404.10379" height="125.00838" width="125.00838" id="rect4149" style="color:#000000;clip-rule:nonzero;display:inline;overflow:visible;visibility:visible;opacity:1;isolation:auto;mix-blend-mode:normal;color-interpolation:sRGB;color-interpolation-filters:linearRGB;solid-color:#000000;solid-opacity:1;fill:#99b000;fill-opacity:1;fill-rule:nonzero;stroke:none;stroke-width:4;stroke-linecap:butt;stroke-linejoin:round;stroke-miterlimit:4;stroke-dasharray:none;stroke-dashoffset:60.95800018;stroke-opacity:1;color-rendering:auto;image-rendering:auto;shape-rendering:auto;text-rendering:auto;enable-background:accumulate"/>
          <path inkscape:connector-curvature="0" id="rect4151" d="m 577.6649,750.78777 c -10.0001,0 -18.04811,8.0578 -18.04811,18.05781 l 0,24.06411 c 0,10 8.04801,18.04811 18.04811,18.04811 l 24.07381,0 c 10.00001,0 18.04811,-8.04811 18.04811,-18.04811 l 0,-24.06411 c 0,-10.00001 -8.0481,-18.05781 -18.04811,-18.05781 l -24.07381,0 z m 0,100.00665 c -10.0001,0 -18.04811,8.0579 -18.04811,18.0579 l 0,24.06412 c 0,9.9999 8.04801,18.048 18.04811,18.048 l 24.07381,0 c 10.00001,0 18.04811,-8.0481 18.04811,-18.048 l 0,-24.06412 c 0,-10 -8.0481,-18.0579 -18.04811,-18.0579 l -24.07381,0 z m -0.127,100.00674 c -9.9265,0 -17.92101,7.99451 -17.92101,17.92111 l 0,23.88831 c 0,9.92662 7.99451,17.92112 17.92101,17.92112 l 23.88841,0 c 9.92651,0 17.92111,-7.9945 17.92111,-17.92112 l 0,-23.88831 c 0,-9.9266 -7.9946,-17.92111 -17.92111,-17.92111 l -23.88841,0 z" style="color:#000000;clip-rule:nonzero;display:inline;overflow:visible;visibility:visible;opacity:1;isolation:auto;mix-blend-mode:normal;color-interpolation:sRGB;color-interpolation-filters:linearRGB;solid-color:#000000;solid-opacity:1;fill:#99b000;fill-opacity:1;fill-rule:nonzero;stroke:none;stroke-width:4;stroke-linecap:butt;stroke-linejoin:round;stroke-miterlimit:4;stroke-dasharray:none;stroke-dashoffset:60.95800018;stroke-opacity:1;color-rendering:auto;image-rendering:auto;shape-rendering:auto;text-rendering:auto;enable-background:accumulate"/>
        </g>
      </g>
    </g>
  </g>
</svg>
