<?xml version="1.0" encoding="UTF-8" standalone="no"?>
<!-- Created with Inkscape (http://www.inkscape.org/) -->

<svg
   xmlns:dc="http://purl.org/dc/elements/1.1/"
   xmlns:cc="http://creativecommons.org/ns#"
   xmlns:rdf="http://www.w3.org/1999/02/22-rdf-syntax-ns#"
   xmlns:svg="http://www.w3.org/2000/svg"
   xmlns="http://www.w3.org/2000/svg"
   xmlns:xlink="http://www.w3.org/1999/xlink"
   xmlns:sodipodi="http://sodipodi.sourceforge.net/DTD/sodipodi-0.dtd"
   xmlns:inkscape="http://www.inkscape.org/namespaces/inkscape"
   width="210mm"
   height="297mm"
   viewBox="0 0 744.09448819 1052.3622047"
   id="svg2"
   version="1.1"
   inkscape:version="0.91 r13725"
   inkscape:export-xdpi="162"
   inkscape:export-ydpi="162"
   sodipodi:docname="entity-organizational-unit.svg"
   inkscape:export-filename="C:\Users\johannes\Documents\Arbeit\RRZE\github3\bicons\720x720\emblems\entity-organizational-unit.png">
  <defs
     id="defs4">
    <linearGradient
       inkscape:collect="always"
       xlink:href="#linearGradient4441"
       id="linearGradient4447"
       x1="18.18"
       y1="381.77985"
       x2="381.77997"
       y2="18.179979"
       gradientUnits="userSpaceOnUse"
       gradientTransform="translate(190.11839,322.08146)" />
    <linearGradient
       inkscape:collect="always"
       id="linearGradient4441">
      <stop
         style="stop-color:#4e505d;stop-opacity:1;"
         offset="0"
         id="stop4443" />
      <stop
         style="stop-color:#7a859c;stop-opacity:1"
         offset="1"
         id="stop4445" />
    </linearGradient>
  </defs>
  <sodipodi:namedview
     id="base"
     pagecolor="#ffffff"
     bordercolor="#666666"
     borderopacity="1.0"
     inkscape:pageopacity="0.0"
     inkscape:pageshadow="2"
     inkscape:zoom="0.5"
     inkscape:cx="340.46584"
     inkscape:cy="579.28643"
     inkscape:document-units="px"
     inkscape:current-layer="layer1"
     showgrid="false"
     showguides="true"
     inkscape:guide-bbox="true"
     inkscape:window-width="1366"
     inkscape:window-height="721"
     inkscape:window-x="-4"
     inkscape:window-y="-4"
     inkscape:window-maximized="1"
     inkscape:snap-bbox="true"
     inkscape:bbox-paths="true"
     inkscape:bbox-nodes="true"
     inkscape:snap-global="false">
    <sodipodi:guide
       position="560,730.00002"
       orientation="0,1"
       id="guide3338" />
    <sodipodi:guide
       position="560,330.00001"
       orientation="0,1"
       id="guide3340" />
    <sodipodi:guide
       position="190,475.00001"
       orientation="1,0"
       id="guide3344" />
    <sodipodi:guide
       position="590,451.00001"
       orientation="1,0"
       id="guide3346" />
    <inkscape:grid
       type="xygrid"
       id="grid3440" />
  </sodipodi:namedview>
  <metadata
     id="metadata7">
    <rdf:RDF>
      <cc:Work
         rdf:about="">
        <dc:format>image/svg+xml</dc:format>
        <dc:type
           rdf:resource="http://purl.org/dc/dcmitype/StillImage" />
        <dc:title>entity organizational unit</dc:title>
        <dc:date>June 2015</dc:date>
        <dc:creator>
          <cc:Agent>
            <dc:title>Johannes Hechler</dc:title>
          </cc:Agent>
        </dc:creator>
        <dc:rights>
          <cc:Agent>
            <dc:title>Johannes Hechler</dc:title>
          </cc:Agent>
        </dc:rights>
        <dc:publisher>
          <cc:Agent>
            <dc:title>RRZE</dc:title>
          </cc:Agent>
        </dc:publisher>
        <dc:contributor>
          <cc:Agent>
            <dc:title>Ute Weber, Hendrik Eggers, Joanna Barbach</dc:title>
          </cc:Agent>
        </dc:contributor>
        <dc:subject>
          <rdf:Bag>
            <rdf:li>entity</rdf:li>
            <rdf:li>connection</rdf:li>
            <rdf:li>organisational unit</rdf:li>
          </rdf:Bag>
        </dc:subject>
        <cc:license
           rdf:resource="http://creativecommons.org/licenses/by-sa/3.0/" />
      </cc:Work>
      <cc:License
         rdf:about="http://creativecommons.org/licenses/by-sa/3.0/">
        <cc:permits
           rdf:resource="http://creativecommons.org/ns#Reproduction" />
        <cc:permits
           rdf:resource="http://creativecommons.org/ns#Distribution" />
        <cc:requires
           rdf:resource="http://creativecommons.org/ns#Notice" />
        <cc:requires
           rdf:resource="http://creativecommons.org/ns#Attribution" />
        <cc:permits
           rdf:resource="http://creativecommons.org/ns#DerivativeWorks" />
        <cc:requires
           rdf:resource="http://creativecommons.org/ns#ShareAlike" />
      </cc:License>
    </rdf:RDF>
  </metadata>
  <g
     inkscape:label="Ebene 1"
     inkscape:groupmode="layer"
     id="layer1">
    <rect
       style="opacity:1;fill:none;fill-opacity:1;stroke:none;stroke-width:23;stroke-linecap:butt;stroke-linejoin:round;stroke-miterlimit:4;stroke-dasharray:none;stroke-opacity:1"
       id="rect4160"
       width="400"
       height="400"
       x="190"
       y="322.36218" />
    <path
       style="color:#000000;clip-rule:nonzero;display:inline;overflow:visible;visibility:visible;opacity:1;isolation:auto;mix-blend-mode:normal;color-interpolation:sRGB;color-interpolation-filters:linearRGB;solid-color:#000000;solid-opacity:1;fill:url(#linearGradient4447);fill-opacity:1;fill-rule:nonzero;stroke:none;stroke-width:1px;stroke-linecap:butt;stroke-linejoin:miter;stroke-miterlimit:4;stroke-dasharray:none;stroke-dashoffset:0;stroke-opacity:1;color-rendering:auto;image-rendering:auto;shape-rendering:auto;text-rendering:auto;enable-background:accumulate"
       d="M 253.75 340.26172 A 45.450001 45.449986 0 0 0 208.29883 385.71289 A 45.450001 45.449986 0 0 0 253.75 431.16211 A 45.450001 45.449986 0 0 0 299.19922 385.71289 A 45.450001 45.449986 0 0 0 253.75 340.26172 z M 526.81836 340.32617 A 45.450001 45.449986 0 0 0 481.36914 385.77539 A 45.450001 45.449986 0 0 0 500.55078 422.79688 L 513.02734 422.79688 C 521.10213 422.79687 528.59867 425.71056 534.51758 430.52148 A 45.450001 45.449986 0 0 0 572.26953 385.77539 A 45.450001 45.449986 0 0 0 526.81836 340.32617 z M 253.73633 613.4082 A 45.450001 45.449986 0 0 0 208.28711 658.85938 A 45.450001 45.449986 0 0 0 253.73633 704.30859 A 45.450001 45.449986 0 0 0 299.18555 658.85938 A 45.450001 45.449986 0 0 0 253.73633 613.4082 z M 537.50195 662.07227 A 18.0018 18.0018 0 0 1 532.24023 662.86133 L 514.24609 662.86133 L 514.24609 677.86133 L 532.24023 677.86133 A 18.0018 18.0018 0 0 1 537.36719 678.62109 C 539.6199 675.31699 542.50719 672.46308 545.84766 670.25977 C 542.57261 668.09236 539.73487 665.29976 537.50195 662.07227 z "
       id="path4420" />
    <path
       style="color:#000000;clip-rule:nonzero;display:inline;overflow:visible;visibility:visible;opacity:1;isolation:auto;mix-blend-mode:normal;color-interpolation:sRGB;color-interpolation-filters:linearRGB;solid-color:#000000;solid-opacity:1;fill:#4e505d;fill-opacity:1;fill-rule:nonzero;stroke:none;stroke-width:1px;stroke-linecap:butt;stroke-linejoin:miter;stroke-miterlimit:4;stroke-dasharray:none;stroke-dashoffset:0;stroke-opacity:1;color-rendering:auto;image-rendering:auto;shape-rendering:auto;text-rendering:auto;enable-background:accumulate"
       d="M 317.37891 376.62109 L 317.37891 394.80078 L 462.81836 394.80078 L 462.81836 376.62109 L 317.37891 376.62109 z M 244.6582 449.3418 L 244.6582 594.78125 L 262.83789 594.78125 L 262.83789 449.3418 L 244.6582 449.3418 z M 535.53906 531.94727 C 530.51339 536.35637 524.22881 539.34745 517.35938 540.24414 L 517.35938 546.36133 L 532.24023 546.36133 A 18.0018 18.0018 0 0 1 535.53906 546.69922 L 535.53906 531.94727 z M 317.37891 649.32031 L 317.37891 667.50195 L 461.74609 667.50195 L 461.74609 649.32031 L 317.37891 649.32031 z "
       id="rect4428" />
    <g
       id="g4218">
      <rect
         ry="16.348909"
         y="440.79669"
         x="446.77182"
         height="81.74469"
         width="82.604225"
         id="rect4149"
         style="color:#252525;clip-rule:nonzero;display:inline;overflow:visible;visibility:visible;opacity:1;isolation:auto;mix-blend-mode:normal;color-interpolation:sRGB;color-interpolation-filters:linearRGB;solid-color:#252525;solid-opacity:1;fill:#99b000;fill-opacity:1;fill-rule:nonzero;stroke:none;stroke-width:4;stroke-linecap:butt;stroke-linejoin:round;stroke-miterlimit:4;stroke-dasharray:none;stroke-dashoffset:60.95800018;stroke-opacity:1;color-rendering:auto;image-rendering:auto;shape-rendering:auto;text-rendering:auto;enable-background:accumulate" />
      <path
         sodipodi:nodetypes="ssccsscscscsccccsccccccccccccccccccccccc"
         inkscape:connector-curvature="0"
         id="rect4195"
         d="m 487.99609,497.26367 c -4.5705,0 -8.25,4.12245 -8.25,9.24219 l 0,16.03516 16.5,0 0,-16.03516 c 0,-5.11974 -3.6795,-9.24219 -8.25,-9.24219 z m -8.25,43.27735 0,160.02539 c 0,2.11173 0.6351,4.04667 1.69141,5.59961 1.05211,3.02933 3.91604,5.19531 7.3125,5.19531 l 43.50781,0 c -0.006,-0.23965 -0.0176,-0.47784 -0.0176,-0.71875 l 0,-14.78125 -35.99414,0 0,-51 35.99414,0 0,-15.14453 c 0,-0.11935 0.0103,-0.23644 0.0117,-0.35547 l -36.00586,0 0,-49.5 35.99414,0 0,-15.5 -35.99414,0 0,-23.82031 z m 88.49414,29.9707 0,3.3457 3.75977,0 0,-3.3457 z m 0,65.39648 0,3.34571 3.75977,0 0,-3.34571 z m 0,65.39453 0,3.0586 3.46875,0 0,-3.0586 z"
         style="color:#000000;clip-rule:nonzero;display:inline;overflow:visible;visibility:visible;opacity:1;isolation:auto;mix-blend-mode:normal;color-interpolation:sRGB;color-interpolation-filters:linearRGB;solid-color:#000000;solid-opacity:1;fill:#99b000;fill-opacity:1;fill-rule:evenodd;stroke:none;stroke-width:36;stroke-linecap:butt;stroke-linejoin:miter;stroke-miterlimit:4;stroke-dasharray:none;stroke-dashoffset:0;stroke-opacity:1;color-rendering:auto;image-rendering:auto;shape-rendering:auto;text-rendering:auto;enable-background:accumulate" />
      <path
         inkscape:connector-curvature="0"
         id="rect4151"
         d="m 562.16628,552.51209 c -6.60797,0 -11.92601,5.26911 -11.92601,11.80825 l 0,15.73585 c 0,6.53914 5.31804,11.80191 11.92601,11.80191 l 15.90772,0 c 6.6079,0 11.926,-5.26277 11.926,-11.80191 l 0,-15.73585 c 0,-6.53914 -5.3181,-11.80825 -11.926,-11.80825 l -15.90772,0 z m 0,65.39572 c -6.60797,0 -11.92601,5.26917 -11.92601,11.8083 l 0,15.73586 c 0,6.53907 5.31804,11.80183 11.92601,11.80183 l 15.90772,0 c 6.6079,0 11.926,-5.26276 11.926,-11.80183 l 0,-15.73586 c 0,-6.53913 -5.3181,-11.8083 -11.926,-11.8083 l -15.90772,0 z m -0.0839,65.39578 c -6.55932,0 -11.84201,5.22772 -11.84201,11.71886 l 0,15.62089 c 0,6.49115 5.28269,11.71886 11.84201,11.71886 l 15.78521,0 c 6.55934,0 11.84208,-5.22771 11.84208,-11.71886 l 0,-15.62089 c 0,-6.49114 -5.28274,-11.71886 -11.84208,-11.71886 l -15.78521,0 z"
         style="color:#252525;clip-rule:nonzero;display:inline;overflow:visible;visibility:visible;opacity:1;isolation:auto;mix-blend-mode:normal;color-interpolation:sRGB;color-interpolation-filters:linearRGB;solid-color:#252525;solid-opacity:1;fill:#99b000;fill-opacity:1;fill-rule:nonzero;stroke:none;stroke-width:4;stroke-linecap:butt;stroke-linejoin:round;stroke-miterlimit:4;stroke-dasharray:none;stroke-dashoffset:60.95800018;stroke-opacity:1;color-rendering:auto;image-rendering:auto;shape-rendering:auto;text-rendering:auto;enable-background:accumulate" />
    </g>
  </g>
</svg>
