<?xml version="1.0" encoding="UTF-8" standalone="no"?>
<!-- Created with Inkscape (http://www.inkscape.org/) -->

<svg
   xmlns:dc="http://purl.org/dc/elements/1.1/"
   xmlns:cc="http://creativecommons.org/ns#"
   xmlns:rdf="http://www.w3.org/1999/02/22-rdf-syntax-ns#"
   xmlns:svg="http://www.w3.org/2000/svg"
   xmlns="http://www.w3.org/2000/svg"
   xmlns:xlink="http://www.w3.org/1999/xlink"
   xmlns:sodipodi="http://sodipodi.sourceforge.net/DTD/sodipodi-0.dtd"
   xmlns:inkscape="http://www.inkscape.org/namespaces/inkscape"
   width="210mm"
   height="297mm"
   viewBox="0 0 744.09448819 1052.3622047"
   id="svg2"
   version="1.1"
   inkscape:version="0.91 r13725"
   sodipodi:docname="entity-function.svg"
   inkscape:export-filename="C:\Users\johannes\Documents\Arbeit\RRZE\bi-con\bi-con\scalable\documents\document.png"
   inkscape:export-xdpi="4"
   inkscape:export-ydpi="4">
  <defs
     id="defs4">
    <linearGradient
       inkscape:collect="always"
       id="linearGradient4233">
      <stop
         style="stop-color:#5a6578;stop-opacity:1;"
         offset="0"
         id="stop4235" />
      <stop
         style="stop-color:#9397a2;stop-opacity:1"
         offset="1"
         id="stop4237" />
    </linearGradient>
    <linearGradient
       id="linearGradient2224">
      <stop
         id="stop2226"
         offset="0"
         style="stop-color:#7c7c7c;stop-opacity:1;" />
      <stop
         id="stop2228"
         offset="1"
         style="stop-color:#b8b8b8;stop-opacity:1;" />
    </linearGradient>
    <linearGradient
       id="linearGradient15218">
      <stop
         id="stop15220"
         offset="0"
         style="stop-color:#eeeeef;stop-opacity:1;" />
      <stop
         id="stop2736"
         offset="0.59928656"
         style="stop-color:#d3d7cf;stop-opacity:1;" />
      <stop
         id="stop2738"
         offset="0.82758623"
         style="stop-color:#ffffff;stop-opacity:1;" />
      <stop
         id="stop15222"
         offset="1"
         style="stop-color:#d3d7cf;stop-opacity:1;" />
    </linearGradient>
    <pattern
       y="0"
       x="0"
       height="6"
       width="6"
       patternUnits="userSpaceOnUse"
       id="EMFhbasepattern" />
    <pattern
       y="0"
       x="0"
       height="6"
       width="6"
       patternUnits="userSpaceOnUse"
       id="EMFhbasepattern-5" />
    <linearGradient
       inkscape:collect="always"
       xlink:href="#linearGradient4233"
       id="linearGradient4239"
       x1="220"
       y1="692.36218"
       x2="540"
       y2="372.36221"
       gradientUnits="userSpaceOnUse" />
    <pattern
       y="0"
       x="0"
       height="6"
       width="6"
       patternUnits="userSpaceOnUse"
       id="EMFhbasepattern-57" />
  </defs>
  <sodipodi:namedview
     id="base"
     pagecolor="#ffffff"
     bordercolor="#666666"
     borderopacity="1.0"
     inkscape:pageopacity="0.0"
     inkscape:pageshadow="2"
     inkscape:zoom="0.125"
     inkscape:cx="-1466.6959"
     inkscape:cy="-167.09012"
     inkscape:document-units="px"
     inkscape:current-layer="layer1"
     showgrid="false"
     showguides="false"
     inkscape:guide-bbox="true"
     inkscape:window-width="1366"
     inkscape:window-height="721"
     inkscape:window-x="-4"
     inkscape:window-y="-4"
     inkscape:window-maximized="1">
    <sodipodi:guide
       position="560,730.00002"
       orientation="0,1"
       id="guide3338" />
    <sodipodi:guide
       position="560,330.00001"
       orientation="0,1"
       id="guide3340" />
    <sodipodi:guide
       position="190,475.00001"
       orientation="1,0"
       id="guide3344" />
    <sodipodi:guide
       position="590,451.00001"
       orientation="1,0"
       id="guide3346" />
    <inkscape:grid
       type="xygrid"
       id="grid3440" />
  </sodipodi:namedview>
  <metadata
     id="metadata7">
    <rdf:RDF>
      <cc:Work
         rdf:about="">
        <dc:format>image/svg+xml</dc:format>
        <dc:type
           rdf:resource="http://purl.org/dc/dcmitype/StillImage" />
        <dc:title></dc:title>
      </cc:Work>
    </rdf:RDF>
  </metadata>
  <g
     inkscape:label="Ebene 1"
     inkscape:groupmode="layer"
     id="layer1">
    <rect
       style="opacity:1;fill:none;fill-opacity:1;stroke:none;stroke-width:23;stroke-linecap:butt;stroke-linejoin:round;stroke-miterlimit:4;stroke-dasharray:none;stroke-opacity:1"
       id="rect4160"
       width="400"
       height="400"
       x="190"
       y="322.36221" />
    <path
       style="color:#000000;clip-rule:nonzero;display:inline;overflow:visible;visibility:visible;opacity:1;isolation:auto;mix-blend-mode:normal;color-interpolation:sRGB;color-interpolation-filters:linearRGB;solid-color:#000000;solid-opacity:1;fill:#5a6578;fill-opacity:1;fill-rule:nonzero;stroke:none;stroke-width:23;stroke-linecap:butt;stroke-linejoin:round;stroke-miterlimit:4;stroke-dasharray:none;stroke-dashoffset:0;stroke-opacity:1;color-rendering:auto;image-rendering:auto;shape-rendering:auto;text-rendering:auto;enable-background:accumulate"
       d="M 280 372.36133 C 274.46 372.36133 270 376.82133 270 382.36133 C 270 387.90133 274.46 392.36133 280 392.36133 L 301.54492 392.36133 C 302.1647 389.12429 302.5 385.78431 302.5 382.36133 C 302.5 378.93834 302.1647 375.59837 301.54492 372.36133 L 280 372.36133 z M 316.75391 372.36133 C 317.24183 375.62574 317.5 378.96424 317.5 382.36133 C 317.5 385.75842 317.24183 389.09691 316.75391 392.36133 L 463.36719 392.36133 C 462.80728 388.87158 462.50781 385.29624 462.50781 381.65234 C 462.50781 378.49952 462.74268 375.40098 463.16406 372.36133 L 316.75391 372.36133 z M 478.33789 372.36133 C 477.80311 375.37745 477.50781 378.47813 477.50781 381.65234 C 477.50781 385.32476 477.88278 388.90537 478.59375 392.36133 L 520 392.36133 C 525.54 392.36133 530 387.90133 530 382.36133 C 530 376.82133 525.54 372.36133 520 372.36133 L 478.33789 372.36133 z M 250 382.36133 C 244.46 382.36133 240 386.82133 240 392.36133 L 240 433.90625 C 243.23704 434.52603 246.57702 434.86133 250 434.86133 C 253.42298 434.86133 256.76296 434.52603 260 433.90625 L 260 392.36133 C 260 386.82133 255.54 382.36133 250 382.36133 z M 530 412.36133 C 524.46 412.36133 520 416.82133 520 422.36133 L 520 433.19531 C 523.23949 433.81608 526.58205 434.15234 530.00781 434.15234 C 533.42802 434.15234 536.76541 433.81802 540 433.19922 L 540 422.36133 C 540 416.82133 535.54 412.36133 530 412.36133 z M 520 448.4043 L 520 595.5957 C 523.23358 595.11721 526.53887 594.86133 529.90234 594.86133 C 533.33305 594.86133 536.70479 595.12169 540 595.61914 L 540 448.40625 C 536.73801 448.89343 533.40225 449.15234 530.00781 449.15234 C 526.60799 449.15234 523.26692 448.89299 520 448.4043 z M 240 449.11523 L 240 595.23828 C 243.35757 594.72124 246.79604 594.45312 250.29492 594.45312 C 253.59042 594.45313 256.82886 594.70243 260 595.16211 L 260 449.11523 C 256.73559 449.60316 253.39709 449.86133 250 449.86133 C 246.60291 449.86133 243.26441 449.60316 240 449.11523 z M 250.29492 609.45312 C 246.76841 609.45313 243.32822 609.80403 240 610.46094 L 240 622.36133 C 240 627.90133 244.46 632.36133 250 632.36133 C 255.54 632.36133 260 627.90133 260 622.36133 L 260 610.35547 C 256.85459 609.77179 253.61438 609.45312 250.29492 609.45312 z M 529.90234 609.86133 C 526.51365 609.86133 523.20674 610.19112 520 610.79883 L 520 622.36133 C 520 627.90133 524.46 632.36133 530 632.36133 C 535.54 632.36133 540 627.90133 540 622.36133 L 540 610.83398 C 536.73271 610.20202 533.35962 609.86133 529.90234 609.86133 z M 270 652.36133 C 264.46 652.36133 260 656.82133 260 662.36133 C 260 667.90133 264.46 672.36133 270 672.36133 L 301.76758 672.36133 C 302.439 668.99825 302.79492 665.51936 302.79492 661.95312 C 302.79492 658.67339 302.48221 655.47147 301.91211 652.36133 L 270 652.36133 z M 317.10156 652.36133 C 317.55059 655.4965 317.79492 658.69672 317.79492 661.95312 C 317.79492 665.49175 317.51691 668.96747 316.98828 672.36133 L 463.14844 672.36133 C 462.66051 669.09691 462.40234 665.75842 462.40234 662.36133 C 462.40234 658.96424 462.66051 655.62574 463.14844 652.36133 L 317.10156 652.36133 z M 478.35742 652.36133 C 477.73764 655.59837 477.40234 658.93834 477.40234 662.36133 C 477.40234 665.78431 477.73764 669.12429 478.35742 672.36133 L 510 672.36133 C 515.54 672.36133 520 667.90133 520 662.36133 C 520 656.82133 515.54 652.36133 510 652.36133 L 478.35742 652.36133 z "
       id="rect4203" />
    <path
       style="color:#000000;clip-rule:nonzero;display:inline;overflow:visible;visibility:visible;opacity:1;isolation:auto;mix-blend-mode:normal;color-interpolation:sRGB;color-interpolation-filters:linearRGB;solid-color:#000000;solid-opacity:1;fill:url(#linearGradient4239);fill-opacity:1;fill-rule:nonzero;stroke:none;stroke-width:23;stroke-linecap:butt;stroke-linejoin:round;stroke-miterlimit:4;stroke-dasharray:none;stroke-dashoffset:0;stroke-opacity:1;color-rendering:auto;image-rendering:auto;shape-rendering:auto;text-rendering:auto;enable-background:accumulate"
       d="M 530.00781 321.65234 A 60 60.000004 0 0 0 470.00781 381.65234 A 60 60.000004 0 0 0 530.00781 441.65234 A 60 60.000004 0 0 0 590.00781 381.65234 A 60 60.000004 0 0 0 530.00781 321.65234 z M 250 322.36133 A 60 60.000004 0 0 0 190 382.36133 A 60 60.000004 0 0 0 250 442.36133 A 60 60.000004 0 0 0 310 382.36133 A 60 60.000004 0 0 0 250 322.36133 z M 250.29492 601.95312 A 60 60.000004 0 0 0 190.29492 661.95312 A 60 60.000004 0 0 0 250.29492 721.95312 A 60 60.000004 0 0 0 310.29492 661.95312 A 60 60.000004 0 0 0 250.29492 601.95312 z M 529.90234 602.36133 A 60 60.000004 0 0 0 469.90234 662.36133 A 60 60.000004 0 0 0 529.90234 722.36133 A 60 60.000004 0 0 0 589.90234 662.36133 A 60 60.000004 0 0 0 529.90234 602.36133 z "
       id="path4165" />
    <path
       style="fill:#b6c92f;fill-opacity:1;fill-rule:evenodd;stroke:#ffffff;stroke-linejoin:round;stroke-width:23;stroke-miterlimit:4;stroke-dasharray:none"
       d="m 438.80684,474.92175 -8.02905,31.93752 c -5.35269,1.73963 -10.52698,3.92532 -15.47822,6.55699 l -28.50286,-16.23639 -28.05681,29.21662 17.52989,27.78917 c -2.05181,4.14834 -3.74683,8.38591 -5.12961,12.75727 l -31.58068,7.89523 0,40.45688 32.47279,8.07364 0,-0.0447 c 1.78424,5.21888 4.01448,10.25933 6.73542,15.12137 l -16.37021,28.50311 29.30584,27.96725 28.32445,-17.7531 -0.89211,-0.80291 c 3.96991,1.91804 8.07364,3.56846 12.26659,4.90663 l 7.93984,31.53632 40.54606,0 8.07366,-32.16079 c 5.08506,-1.65042 10.03631,-3.7915 14.71992,-6.33344 l 28.68154,16.32513 28.10104,-29.17158 -17.7531,-28.14627 c 1.78424,-3.65769 3.30082,-7.44917 4.5944,-11.32987 l 31.13487,-7.80602 0,-40.41227 -31.17948,-7.80603 c -1.69501,-5.30808 -3.8807,-10.43775 -6.51185,-15.389 L 555.53904,523.0064 526.27823,494.99418 499.38092,511.855 c -3.8807,-1.91799 -7.89522,-3.56841 -11.99897,-4.90659 l -8.02905,-32.02672 -40.54606,0 z"
       id="path4171"
       inkscape:connector-curvature="0" />
    <path
       inkscape:connector-curvature="0"
       id="path4160"
       d="m 438.80684,474.92175 -8.02905,31.93752 c -5.35269,1.73963 -10.52698,3.92532 -15.47822,6.55699 l -28.50286,-16.23639 -28.05681,29.21662 17.52989,27.78917 c -2.05181,4.14834 -3.74683,8.38591 -5.12961,12.75727 l -31.58068,7.89523 0,40.45688 32.47279,8.07364 0,-0.0447 c 1.78424,5.21888 4.01448,10.25933 6.73542,15.12137 l -16.37021,28.50311 29.30584,27.96725 28.32445,-17.7531 -0.89211,-0.80291 c 3.96991,1.91804 8.07364,3.56846 12.26659,4.90663 l 7.93984,31.53632 40.54606,0 8.07366,-32.16079 c 5.08506,-1.65042 10.03631,-3.7915 14.71992,-6.33344 l 28.68154,16.32513 28.10104,-29.17158 -17.7531,-28.14627 c 1.78424,-3.65769 3.30082,-7.44917 4.5944,-11.32987 l 31.13487,-7.80602 0,-40.41227 -31.17948,-7.80603 c -1.69501,-5.30808 -3.8807,-10.43775 -6.51185,-15.389 L 555.53904,523.0064 526.27823,494.99418 499.38092,511.855 c -3.8807,-1.91799 -7.89522,-3.56841 -11.99897,-4.90659 l -8.02905,-32.02672 -40.54606,0 z"
       style="fill:#abbe24;fill-opacity:1;fill-rule:evenodd;stroke:none" />
    <path
       inkscape:connector-curvature="0"
       id="path4162"
       d="m 494.92034,597.58653 c 0,19.67116 -16.19191,35.59543 -36.17471,35.59543 -19.93879,0 -36.1307,-15.92427 -36.17531,-35.59543 0,-19.67057 16.19191,-35.59484 36.17531,-35.59484 19.9828,0 36.17471,15.92427 36.17471,35.59484 l -36.17471,0 z"
       style="fill:#ffffff;fill-opacity:1;fill-rule:nonzero;stroke:none" />
  </g>
</svg>
