<?xml version="1.0" encoding="UTF-8" standalone="no"?>
<!-- Created with Inkscape (http://www.inkscape.org/) -->

<svg
   xmlns:dc="http://purl.org/dc/elements/1.1/"
   xmlns:cc="http://creativecommons.org/ns#"
   xmlns:rdf="http://www.w3.org/1999/02/22-rdf-syntax-ns#"
   xmlns:svg="http://www.w3.org/2000/svg"
   xmlns="http://www.w3.org/2000/svg"
   xmlns:xlink="http://www.w3.org/1999/xlink"
   xmlns:sodipodi="http://sodipodi.sourceforge.net/DTD/sodipodi-0.dtd"
   xmlns:inkscape="http://www.inkscape.org/namespaces/inkscape"
   width="210mm"
   height="297mm"
   viewBox="0 0 744.09448819 1052.3622047"
   id="svg2"
   version="1.1"
   inkscape:version="0.91 r13725"
   inkscape:export-xdpi="4"
   inkscape:export-ydpi="4"
   sodipodi:docname="event-indefinite.svg">
  <defs
     id="defs4">
    <linearGradient
       inkscape:collect="always"
       id="linearGradient4174">
      <stop
         style="stop-color:#4e505d;stop-opacity:1;"
         offset="0"
         id="stop4176" />
      <stop
         style="stop-color:#7a8597;stop-opacity:1"
         offset="1"
         id="stop4178" />
    </linearGradient>
    <linearGradient
       inkscape:collect="always"
       xlink:href="#linearGradient4174"
       id="linearGradient4180"
       x1="190"
       y1="722.36218"
       x2="590"
       y2="322.36221"
       gradientUnits="userSpaceOnUse" />
  </defs>
  <sodipodi:namedview
     id="base"
     pagecolor="#ffffff"
     bordercolor="#666666"
     borderopacity="1.0"
     inkscape:pageopacity="0.0"
     inkscape:pageshadow="2"
     inkscape:zoom="1"
     inkscape:cx="138.40797"
     inkscape:cy="499.48536"
     inkscape:document-units="px"
     inkscape:current-layer="layer1"
     showgrid="false"
     showguides="true"
     inkscape:guide-bbox="true"
     inkscape:window-width="1280"
     inkscape:window-height="962"
     inkscape:window-x="-8"
     inkscape:window-y="-8"
     inkscape:window-maximized="1">
    <sodipodi:guide
       position="560,730.00002"
       orientation="0,1"
       id="guide3338" />
    <sodipodi:guide
       position="560,330.00001"
       orientation="0,1"
       id="guide3340" />
    <sodipodi:guide
       position="190,475.00001"
       orientation="1,0"
       id="guide3344" />
    <sodipodi:guide
       position="590,451.00001"
       orientation="1,0"
       id="guide3346" />
    <inkscape:grid
       type="xygrid"
       id="grid3440" />
  </sodipodi:namedview>
  <metadata
     id="metadata7">
    <rdf:RDF>
      <cc:Work
         rdf:about="">
        <dc:format>image/svg+xml</dc:format>
        <dc:type
           rdf:resource="http://purl.org/dc/dcmitype/StillImage" />
        <dc:title>event indefinite</dc:title>
        <dc:date>June 2015</dc:date>
        <dc:creator>
          <cc:Agent>
            <dc:title>Johannes Hechler</dc:title>
          </cc:Agent>
        </dc:creator>
        <dc:rights>
          <cc:Agent>
            <dc:title>Johannes Hechler</dc:title>
          </cc:Agent>
        </dc:rights>
        <dc:publisher>
          <cc:Agent>
            <dc:title>RRZE</dc:title>
          </cc:Agent>
        </dc:publisher>
        <dc:contributor>
          <cc:Agent>
            <dc:title>Ute Weber, Hendrik Eggers, Joanna Barbach</dc:title>
          </cc:Agent>
        </dc:contributor>
        <dc:subject>
          <rdf:Bag>
            <rdf:li>event</rdf:li>
            <rdf:li>date</rdf:li>
            <rdf:li>calender</rdf:li>
          </rdf:Bag>
        </dc:subject>
        <cc:license
           rdf:resource="http://creativecommons.org/licenses/by-sa/3.0/" />
      </cc:Work>
      <cc:License
         rdf:about="http://creativecommons.org/licenses/by-sa/3.0/">
        <cc:permits
           rdf:resource="http://creativecommons.org/ns#Reproduction" />
        <cc:permits
           rdf:resource="http://creativecommons.org/ns#Distribution" />
        <cc:requires
           rdf:resource="http://creativecommons.org/ns#Notice" />
        <cc:requires
           rdf:resource="http://creativecommons.org/ns#Attribution" />
        <cc:permits
           rdf:resource="http://creativecommons.org/ns#DerivativeWorks" />
        <cc:requires
           rdf:resource="http://creativecommons.org/ns#ShareAlike" />
      </cc:License>
    </rdf:RDF>
  </metadata>
  <g
     inkscape:label="Ebene 1"
     inkscape:groupmode="layer"
     id="layer1">
    <rect
       style="opacity:1;fill:none;fill-opacity:1;stroke:none;stroke-width:23;stroke-linecap:butt;stroke-linejoin:round;stroke-miterlimit:4;stroke-dasharray:none;stroke-opacity:1"
       id="rect4160"
       width="400"
       height="400"
       x="190"
       y="322.36221" />
    <g
       id="g4156"
       transform="matrix(0.875,0,0,0.875,48.75,65.295166)">
      <path
         id="rect4149"
         d="m 270,322.36133 c -16.62,0 -30,13.38 -30,30 l 0,20 -13.1582,0 c -20.41052,0 -36.8418,16.43323 -36.8418,36.84375 l 0,276.31445 c 0,20.41053 16.43128,36.8418 36.8418,36.8418 l 326.3164,0 c 20.41052,0 36.8418,-16.43127 36.8418,-36.8418 l 0,-276.31445 c 0,-20.41052 -16.43128,-36.84375 -36.8418,-36.84375 l -13.1582,0 0,-20 c 0,-16.62 -13.38,-30 -30,-30 -16.62,0 -30,13.38 -30,30 l 0,20 -180,0 0,-20 c 0,-16.62 -13.38,-30 -30,-30 z"
         style="color:#252525;clip-rule:nonzero;display:inline;overflow:visible;visibility:visible;opacity:1;isolation:auto;mix-blend-mode:normal;color-interpolation:sRGB;color-interpolation-filters:linearRGB;solid-color:#252525;solid-opacity:1;fill:url(#linearGradient4180);fill-opacity:1;fill-rule:nonzero;stroke:none;stroke-width:23;stroke-linecap:butt;stroke-linejoin:round;stroke-miterlimit:4;stroke-dasharray:none;stroke-dashoffset:0;stroke-opacity:1;color-rendering:auto;image-rendering:auto;shape-rendering:auto;text-rendering:auto;enable-background:accumulate"
         inkscape:connector-curvature="0" />
      <rect
         ry="18.421045"
         y="482.88852"
         x="220"
         height="211.8421"
         width="340"
         id="rect4151"
         style="color:#252525;clip-rule:nonzero;display:inline;overflow:visible;visibility:visible;opacity:1;isolation:auto;mix-blend-mode:normal;color-interpolation:sRGB;color-interpolation-filters:linearRGB;solid-color:#252525;solid-opacity:1;fill:#ffffff;fill-opacity:1;fill-rule:nonzero;stroke:none;stroke-width:23;stroke-linecap:butt;stroke-linejoin:round;stroke-miterlimit:4;stroke-dasharray:none;stroke-dashoffset:0;stroke-opacity:1;color-rendering:auto;image-rendering:auto;shape-rendering:auto;text-rendering:auto;enable-background:accumulate" />
      <path
         style="fill:#99b000"
         id="path12"
         d="m 454.13429,530.39461 c -16.44365,0 -31.88923,6.40151 -43.26771,17.75432 L 390.98549,567.23625 371.3969,548.4392 c -11.61405,-11.64196 -27.08419,-18.04459 -43.52673,-18.04459 -16.4403,0 -31.89481,6.43166 -43.49211,18.04459 -11.64196,11.61851 -18.04906,27.06074 -18.04906,43.51891 0,16.41574 6.39928,31.88477 18.03566,43.49212 11.59172,11.62968 27.05069,18.04347 43.50551,18.04347 16.43026,0 31.90375,-6.39817 43.25432,-17.78 l 19.87104,-19.06276 19.60646,18.79929 c 11.61516,11.62968 27.08977,18.04347 43.53342,18.04347 16.42914,0 31.87249,-6.39817 43.48653,-18.04347 11.63303,-11.58949 18.04906,-27.06298 18.04906,-43.52003 0,-16.45705 -6.39035,-31.887 -18.04906,-43.51668 -11.62856,-11.6174 -27.0719,-18.01891 -43.48765,-18.01891 z m -107.94043,79.85817 c -9.79094,9.79429 -26.83857,9.79429 -36.63733,0 -4.90441,-4.89771 -7.59943,-11.41086 -7.59943,-18.30918 0,-6.92735 2.69502,-13.41148 7.62734,-18.33598 4.86979,-4.8977 11.37737,-7.59607 18.28685,-7.59607 6.91171,0 13.42487,2.69837 18.59498,7.84392 l 18.81491,18.10264 -19.08732,18.29467 z m 126.24961,0 c -9.79429,9.80657 -26.60078,10.04437 -36.91086,-0.25231 l -18.82273,-18.10041 19.08732,-18.30695 c 9.79318,-9.80881 26.85198,-9.80881 36.64627,-0.0279 4.89883,4.9245 7.59161,11.41086 7.59161,18.33709 0,6.91395 -2.6939,13.4539 -7.59161,18.35049 z"
         inkscape:connector-curvature="0" />
    </g>
  </g>
</svg>
