<?xml version="1.0" encoding="UTF-8" standalone="no"?>
<!-- Created with Inkscape (http://www.inkscape.org/) -->

<svg
   xmlns:dc="http://purl.org/dc/elements/1.1/"
   xmlns:cc="http://creativecommons.org/ns#"
   xmlns:rdf="http://www.w3.org/1999/02/22-rdf-syntax-ns#"
   xmlns:svg="http://www.w3.org/2000/svg"
   xmlns="http://www.w3.org/2000/svg"
   xmlns:sodipodi="http://sodipodi.sourceforge.net/DTD/sodipodi-0.dtd"
   xmlns:inkscape="http://www.inkscape.org/namespaces/inkscape"
   width="210mm"
   height="297mm"
   viewBox="0 0 744.09448819 1052.3622047"
   id="svg2"
   version="1.1"
   inkscape:version="0.91 r13725"
   sodipodi:docname="expired-feet.svg"
   inkscape:export-filename="C:\Users\johannes\Documents\Arbeit\RRZE\bi-con\bi-con\scalable\documents\document.png"
   inkscape:export-xdpi="4"
   inkscape:export-ydpi="4">
  <defs
     id="defs4">
    <linearGradient
       id="linearGradient2224">
      <stop
         id="stop2226"
         offset="0"
         style="stop-color:#7c7c7c;stop-opacity:1;" />
      <stop
         id="stop2228"
         offset="1"
         style="stop-color:#b8b8b8;stop-opacity:1;" />
    </linearGradient>
    <linearGradient
       id="linearGradient15218">
      <stop
         id="stop15220"
         offset="0"
         style="stop-color:#eeeeef;stop-opacity:1;" />
      <stop
         id="stop2736"
         offset="0.59928656"
         style="stop-color:#d3d7cf;stop-opacity:1;" />
      <stop
         id="stop2738"
         offset="0.82758623"
         style="stop-color:#ffffff;stop-opacity:1;" />
      <stop
         id="stop15222"
         offset="1"
         style="stop-color:#d3d7cf;stop-opacity:1;" />
    </linearGradient>
    <pattern
       y="0"
       x="0"
       height="6"
       width="6"
       patternUnits="userSpaceOnUse"
       id="EMFhbasepattern" />
    <pattern
       y="0"
       x="0"
       height="6"
       width="6"
       patternUnits="userSpaceOnUse"
       id="EMFhbasepattern-5" />
  </defs>
  <sodipodi:namedview
     id="base"
     pagecolor="#ffffff"
     bordercolor="#666666"
     borderopacity="1.0"
     inkscape:pageopacity="0.0"
     inkscape:pageshadow="2"
     inkscape:zoom="0.7071068"
     inkscape:cx="399.81819"
     inkscape:cy="460.90638"
     inkscape:document-units="px"
     inkscape:current-layer="g4191"
     showgrid="false"
     showguides="true"
     inkscape:guide-bbox="true"
     inkscape:window-width="1366"
     inkscape:window-height="721"
     inkscape:window-x="-4"
     inkscape:window-y="-4"
     inkscape:window-maximized="1">
    <sodipodi:guide
       position="560,730.00002"
       orientation="0,1"
       id="guide3338" />
    <sodipodi:guide
       position="560,330.00001"
       orientation="0,1"
       id="guide3340" />
    <sodipodi:guide
       position="190,475.00001"
       orientation="1,0"
       id="guide3344" />
    <sodipodi:guide
       position="590,451.00001"
       orientation="1,0"
       id="guide3346" />
    <inkscape:grid
       type="xygrid"
       id="grid3440" />
  </sodipodi:namedview>
  <metadata
     id="metadata7">
    <rdf:RDF>
      <cc:Work
         rdf:about="">
        <dc:format>image/svg+xml</dc:format>
        <dc:type
           rdf:resource="http://purl.org/dc/dcmitype/StillImage" />
        <dc:title />
      </cc:Work>
    </rdf:RDF>
  </metadata>
  <g
     inkscape:label="Ebene 1"
     inkscape:groupmode="layer"
     id="layer1">
    <rect
       style="opacity:1;fill:none;fill-opacity:1;stroke:none;stroke-width:23;stroke-linecap:butt;stroke-linejoin:round;stroke-miterlimit:4;stroke-dasharray:none;stroke-opacity:1"
       id="rect4160"
       width="400"
       height="400"
       x="190"
       y="322.36221" />
    <g
       id="g4191"
       transform="matrix(-0.85287501,0.5313577,0.52878958,0.84875296,620.87312,66.413793)">
      <path
         style="fill:#abbe24;fill-opacity:1;fill-rule:evenodd;stroke:none;stroke-width:1px;stroke-linecap:butt;stroke-linejoin:miter;stroke-opacity:1"
         d="m 229.24081,194.2906 a 13.796903,13.137834 44.792197 0 1 3.11143,-6.75669 13.796903,13.137834 44.792197 0 1 18.99805,-0.54178 13.796903,13.137834 44.792197 0 1 1.47255,19.0385 13.796903,13.137834 44.792197 0 1 -18.99807,0.5418 13.796903,13.137834 44.792197 0 1 -4.58396,-12.28183 z m -5.41547,31.28685 a 11.668861,11.300819 46.290055 0 1 2.70384,-5.79155 11.668861,11.300819 46.290055 0 1 16.19431,-0.59967 11.668861,11.300819 46.290055 0 1 1.11781,16.24632 11.668861,11.300819 46.290055 0 1 -16.19431,0.5997 11.668861,11.300819 46.290055 0 1 -3.82165,-10.4548 z m 1.62918,27.05635 a 9.2239534,8.5766147 43.867212 0 1 2.00472,-4.43207 9.2239534,8.5766147 43.867212 0 1 12.56269,-0.20824 9.2239534,8.5766147 43.867212 0 1 1.12472,12.57424 9.2239534,8.5766147 43.867212 0 1 -12.56272,0.20823 9.2239534,8.5766147 43.867212 0 1 -3.12941,-8.14216 z m 24.06275,-86.15036 a 15.9124,15.297787 45.480119 0 1 3.64486,-7.84983 15.9124,15.297787 45.480119 0 1 22.00666,-0.73801 15.9124,15.297787 45.480119 0 1 1.59913,22.07023 15.9124,15.297787 45.480119 0 1 -22.00575,0.73296 15.9124,15.297787 45.480119 0 1 -5.2449,-14.21535 z m -0.12011,79.67099 c 3.22294,-17.33312 13.26032,-35.54171 33.61902,-52.42246 62.38731,-51.72948 101.26581,-5.96991 97.08429,27.74541 -4.18155,33.71535 -42.08169,46.33199 -42.42101,78.52027 -0.33933,32.18823 23.14522,45.7323 65.07284,60.05874 28.91043,9.87855 41.6358,-8.54349 76.4585,7.22881 37.43127,16.95382 52.23323,70.94577 20.65428,92.40046 -31.57891,21.4547 -69.06216,-3.04166 -92.4147,-32.26884 -18.3137,-22.9207 -60.49558,-53.42297 -60.49558,-53.42297 0,0 -47.23167,-36.4302 -73.1693,-58.61996 -16.21102,-13.86857 -29.75987,-40.33092 -24.38834,-69.21946 z M 286.4062,129.66817 a 25.401175,23.270232 43.545709 0 1 4.991,-9.71679 25.401175,23.270232 43.545709 0 1 34.36488,-0.31333 25.401175,23.270232 43.545709 0 1 3.32422,34.37255 25.401175,23.270232 43.545709 0 1 -34.36399,0.30831 25.401175,23.270232 43.545709 0 1 -8.31611,-24.65074 z"
         id="path4175"
         inkscape:connector-curvature="0" />
      <path
         inkscape:connector-curvature="0"
         id="path4155"
         d="m 462.53564,48.237449 a 13.827702,13.108535 75.550425 0 0 -7.40703,-0.171659 13.827702,13.108535 75.550425 0 0 -8.85757,16.897084 13.827702,13.108535 75.550425 0 0 16.35773,9.71969 13.827702,13.108535 75.550425 0 0 8.85761,-16.897104 13.827702,13.108535 75.550425 0 0 -8.95074,-9.548011 z m 30.33497,8.905442 a 11.694336,11.276171 76.186824 0 0 -6.36525,-0.11388 11.694336,11.276171 76.186824 0 0 -7.6735,14.342637 11.694336,11.276171 76.186824 0 0 14.0199,8.169022 11.694336,11.276171 76.186824 0 0 7.67351,-14.342617 11.694336,11.276171 76.186824 0 0 -7.65466,-8.055162 z m 23.45093,13.394947 a 9.2448182,8.5572344 75.129952 0 0 -4.84272,-0.14527 9.2448182,8.5572344 75.129952 0 0 -5.72315,11.23951 9.2448182,8.5572344 75.129952 0 0 10.73663,6.556744 9.2448182,8.5572344 75.129952 0 0 5.72317,-11.23955 9.2448182,8.5572344 75.129952 0 0 -5.89393,-6.411434 z M 428.75888,54.270034 a 15.947565,15.264013 75.849122 0 0 -8.61865,-0.17232 15.947565,15.264013 75.849122 0 0 -10.35892,19.524291 15.947565,15.264013 75.849122 0 0 19.01015,11.17014 15.947565,15.264013 75.849122 0 0 10.354,-19.525692 15.947565,15.264013 75.849122 0 0 -10.38658,-10.996419 z m 71.22174,35.007737 c -16.90394,-4.732776 -37.59346,-3.704937 -61.64609,7.217803 -73.70703,33.471716 -49.96685,88.708556 -18.00647,99.797406 31.96044,11.08884 59.9356,-17.53543 88.83844,-3.65406 28.90279,13.88133 30.65041,41.03371 24.96792,85.16623 -3.91825,30.43078 -25.9832,33.78905 -27.24256,72.15036 -1.35367,41.23494 40.35233,78.38375 73.43624,59.35656 33.08389,-19.02714 27.72285,-63.63344 11.90758,-97.57929 -12.40273,-26.62125 -21.05777,-78.11283 -21.05777,-78.11283 0,0 -11.72463,-58.6592 -20.11408,-91.83492 -5.2434,-20.73481 -22.90998,-44.619257 -51.08321,-52.507259 z M 379.61319,71.316318 a 25.458892,23.217413 74.978311 0 0 -10.8797,0.218979 25.458892,23.217413 74.978311 0 0 -15.4266,30.858363 25.458892,23.217413 74.978311 0 0 29.23926,18.14856 25.458892,23.217413 74.978311 0 0 15.42171,-30.85978 25.458892,23.217413 74.978311 0 0 -18.35467,-18.366122 z"
         style="fill:#abbe24;fill-opacity:1;fill-rule:evenodd;stroke:none;stroke-width:1px;stroke-linecap:butt;stroke-linejoin:miter;stroke-opacity:1" />
      <path
         style="opacity:1;fill:#5a6578;fill-opacity:1;stroke:#ffffff;stroke-width:24.93951268;stroke-linecap:butt;stroke-linejoin:round;stroke-miterlimit:4;stroke-dasharray:none;stroke-opacity:1"
         d="m 328.08257,169.611 c 1.24779,-1.29127 2.8052,-2.1272 4.46318,-2.53501 2.84225,-0.69909 6.02534,-0.10702 8.67583,1.75653 l 65.24613,45.87342 c 2.13455,1.49063 3.05445,6.29971 3.72164,9.68274 l 28.35322,146.34102 c 1.35265,6.98161 -3.14871,13.71433 -10.09235,15.0952 l -100.89576,20.06488 c -6.94363,1.38086 -13.58694,-3.13443 -14.97517,-10.10887 L 283.32944,248.83315 c -0.61031,-3.15 -1.26535,-7.24391 0.27489,-9.76758 l 43.34054,-68.01018 c 0.33937,-0.53256 0.72177,-1.01397 1.1377,-1.44439 z m 1.7533,28.50256 a 16.573202,16.684059 12.75235 0 0 -1.77433,2.22132 16.573202,16.684059 12.75235 0 0 4.48365,23.13877 16.573202,16.684059 12.75235 0 0 23.01219,-4.57661 16.573202,16.684059 12.75235 0 0 -4.48258,-23.13985 16.573202,16.684059 12.75235 0 0 -21.23893,2.35637 z"
         id="path4179"
         inkscape:connector-curvature="0" />
      <path
         style="opacity:1;fill:#5a6578;fill-opacity:1;stroke:none;stroke-width:23;stroke-linecap:butt;stroke-linejoin:round;stroke-miterlimit:4;stroke-dasharray:none;stroke-opacity:1"
         d="m 327.69566,169.21943 c 1.2478,-1.29127 2.8052,-2.1272 4.46318,-2.53501 2.84225,-0.69908 6.02534,-0.10702 8.67584,1.75653 l 65.24613,45.87343 c 2.13454,1.49062 3.05445,6.29971 3.72163,9.68273 l 28.35323,146.34103 c 1.35265,6.9816 -3.14872,13.71432 -10.09235,15.09519 l -100.89577,20.06489 c -6.94363,1.38086 -13.58694,-3.13443 -14.97516,-10.10887 L 282.94253,248.44158 c -0.6103,-3.15 -1.26534,-7.2439 0.27489,-9.76757 l 43.34054,-68.01019 c 0.33938,-0.53255 0.72177,-1.01396 1.1377,-1.44439 z m 1.7533,28.50256 a 16.573202,16.684059 12.75235 0 0 -1.77433,2.22132 16.573202,16.684059 12.75235 0 0 4.48366,23.13877 16.573202,16.684059 12.75235 0 0 23.01218,-4.5766 16.573202,16.684059 12.75235 0 0 -4.48258,-23.13985 16.573202,16.684059 12.75235 0 0 -21.23893,2.35636 z"
         id="rect4173"
         inkscape:connector-curvature="0" />
    </g>
  </g>
</svg>
