<?xml version="1.0" encoding="UTF-8" standalone="no"?>
<!-- Created with Inkscape (http://www.inkscape.org/) -->

<svg
   xmlns:dc="http://purl.org/dc/elements/1.1/"
   xmlns:cc="http://creativecommons.org/ns#"
   xmlns:rdf="http://www.w3.org/1999/02/22-rdf-syntax-ns#"
   xmlns:svg="http://www.w3.org/2000/svg"
   xmlns="http://www.w3.org/2000/svg"
   xmlns:xlink="http://www.w3.org/1999/xlink"
   xmlns:sodipodi="http://sodipodi.sourceforge.net/DTD/sodipodi-0.dtd"
   xmlns:inkscape="http://www.inkscape.org/namespaces/inkscape"
   width="210mm"
   height="297mm"
   viewBox="0 0 744.09448819 1052.3622047"
   id="svg2"
   version="1.1"
   inkscape:version="0.91 r13725"
   inkscape:export-xdpi="7.1999998"
   inkscape:export-ydpi="7.1999998"
   sodipodi:docname="floppy-disc.svg"
   inkscape:export-filename="C:\Users\johannes\Documents\Arbeit\RRZE\github3\bicons\32x32\emblems\floppy-disc.png">
  <title
     id="title4156">floppy disc</title>
  <defs
     id="defs4">
    <linearGradient
       inkscape:collect="always"
       id="linearGradient4150">
      <stop
         style="stop-color:#4e505d;stop-opacity:1;"
         offset="0"
         id="stop4152" />
      <stop
         style="stop-color:#7a8597;stop-opacity:1"
         offset="1"
         id="stop4154" />
    </linearGradient>
    <linearGradient
       inkscape:collect="always"
       xlink:href="#linearGradient4150"
       id="linearGradient4156"
       x1="224.85995"
       y1="722.36218"
       x2="560"
       y2="322.36221"
       gradientUnits="userSpaceOnUse"
       gradientTransform="matrix(0.92749941,0,0,0.92749941,27.7714,36.371704)" />
  </defs>
  <sodipodi:namedview
     id="base"
     pagecolor="#ffffff"
     bordercolor="#666666"
     borderopacity="1.0"
     inkscape:pageopacity="0.0"
     inkscape:pageshadow="2"
     inkscape:zoom="1"
     inkscape:cx="304.6247"
     inkscape:cy="512.39246"
     inkscape:document-units="px"
     inkscape:current-layer="layer1"
     showgrid="false"
     showguides="true"
     inkscape:guide-bbox="true"
     inkscape:window-width="1366"
     inkscape:window-height="721"
     inkscape:window-x="-4"
     inkscape:window-y="-4"
     inkscape:window-maximized="1">
    <sodipodi:guide
       position="560,730.00002"
       orientation="0,1"
       id="guide3338" />
    <sodipodi:guide
       position="560,330.00001"
       orientation="0,1"
       id="guide3340" />
    <sodipodi:guide
       position="190,475.00001"
       orientation="1,0"
       id="guide3344" />
    <sodipodi:guide
       position="590,451.00001"
       orientation="1,0"
       id="guide3346" />
    <inkscape:grid
       type="xygrid"
       id="grid3440" />
  </sodipodi:namedview>
  <metadata
     id="metadata7">
    <rdf:RDF>
      <cc:Work
         rdf:about="">
        <dc:format>image/svg+xml</dc:format>
        <dc:type
           rdf:resource="http://purl.org/dc/dcmitype/StillImage" />
        <dc:title>floppy disc</dc:title>
        <dc:date>June 2015</dc:date>
        <dc:creator>
          <cc:Agent>
            <dc:title>Johannes Hechler</dc:title>
          </cc:Agent>
        </dc:creator>
        <dc:rights>
          <cc:Agent>
            <dc:title>Johannes Hechler</dc:title>
          </cc:Agent>
        </dc:rights>
        <dc:publisher>
          <cc:Agent>
            <dc:title>RRZE</dc:title>
          </cc:Agent>
        </dc:publisher>
        <dc:contributor>
          <cc:Agent>
            <dc:title>Ute Weber, Hendrik Eggers, Joanna Barbach</dc:title>
          </cc:Agent>
        </dc:contributor>
        <dc:subject>
          <rdf:Bag>
            <rdf:li>floppy</rdf:li>
            <rdf:li>disc</rdf:li>
            <rdf:li>discette</rdf:li>
            <rdf:li>data</rdf:li>
          </rdf:Bag>
        </dc:subject>
        <cc:license
           rdf:resource="http://creativecommons.org/licenses/by-sa/3.0/" />
      </cc:Work>
      <cc:License
         rdf:about="http://creativecommons.org/licenses/by-sa/3.0/">
        <cc:permits
           rdf:resource="http://creativecommons.org/ns#Reproduction" />
        <cc:permits
           rdf:resource="http://creativecommons.org/ns#Distribution" />
        <cc:requires
           rdf:resource="http://creativecommons.org/ns#Notice" />
        <cc:requires
           rdf:resource="http://creativecommons.org/ns#Attribution" />
        <cc:permits
           rdf:resource="http://creativecommons.org/ns#DerivativeWorks" />
        <cc:requires
           rdf:resource="http://creativecommons.org/ns#ShareAlike" />
      </cc:License>
    </rdf:RDF>
  </metadata>
  <g
     inkscape:label="Ebene 1"
     inkscape:groupmode="layer"
     id="layer1">
    <rect
       style="opacity:1;fill:none;fill-opacity:1;stroke:none;stroke-width:23;stroke-linecap:butt;stroke-linejoin:round;stroke-miterlimit:4;stroke-dasharray:none;stroke-opacity:1"
       id="rect4160"
       width="400"
       height="400"
       x="190"
       y="322.36221" />
    <path
       style="color:#252525;clip-rule:nonzero;display:inline;overflow:visible;visibility:visible;opacity:1;isolation:auto;mix-blend-mode:normal;color-interpolation:sRGB;color-interpolation-filters:linearRGB;solid-color:#252525;solid-opacity:1;fill:url(#linearGradient4156);fill-opacity:1;fill-rule:nonzero;stroke:none;stroke-width:23;stroke-linecap:butt;stroke-linejoin:round;stroke-miterlimit:4;stroke-dasharray:none;stroke-dashoffset:0;stroke-opacity:1;color-rendering:auto;image-rendering:auto;shape-rendering:auto;text-rendering:auto;enable-background:accumulate"
       d="m 561.20774,706.36238 c 7.61234,0 13.74074,-6.1284 13.74074,-13.74074 l 0,-343.51832 c 0,-7.61234 -6.1284,-13.74073 -13.74074,-13.74073 l -13.81051,0 c 0.0219,0.44977 0.0699,0.89285 0.0699,1.34725 l 0,175.92967 c 0,15.72811 -13.10597,28.83407 -28.83408,28.83407 l -258.36871,0 c -15.72813,0 -28.8341,-13.10596 -28.8341,-28.83407 l 0,-175.92967 c 0,-0.4544 0.0481,-0.89748 0.0698,-1.34725 l -13.8105,0 c -7.61234,0 -13.74074,6.12839 -13.74074,13.74073 l 0,327.02944 30.22962,30.22962 10.99258,0 0,-130.53696 c 0,-3.80619 3.06421,-6.87037 6.87037,-6.87037 l 192.37026,0 c 3.80615,0 6.87037,3.06418 6.87037,6.87037 l 0,130.53696 109.92586,0 z M 327.61528,692.62164 c 1.5225,0 2.74815,-1.22564 2.74815,-2.74814 l 0,-104.42957 c 0,-1.5225 -1.22565,-2.74815 -2.74815,-2.74815 l -49.46663,0 c -1.52251,0 -2.74815,1.22565 -2.74815,2.74815 l 0,104.42957 c 0,1.5225 1.22564,2.74814 2.74815,2.74814 z M 518.63294,527.29809 c 8.12198,0 14.66394,-6.53662 14.66394,-14.65858 l 0,-177.28235 -287.69659,0 0,177.28235 c 0,8.12196 6.54198,14.65858 14.66393,14.65858 z m -295.44723,-169.95033 -10.99259,0 c -1.5225,0 -2.74814,-1.22564 -2.74814,-2.74815 l 0,-8.24444 c 0,-1.5225 1.22564,-2.74814 2.74814,-2.74814 l 10.99259,0 c 1.5225,0 2.74815,1.22564 2.74815,2.74814 l 0,8.24444 c 0,1.52251 -1.22565,2.74815 -2.74815,2.74815 z"
       id="rect4149"
       inkscape:connector-curvature="0"
       sodipodi:nodetypes="cssscsssssscsscccsssscccsssssssssssccssssssssssss" />
  </g>
</svg>
