<?xml version="1.0" encoding="UTF-8" standalone="no"?>
<!-- Created with Inkscape (http://www.inkscape.org/) -->

<svg
   xmlns:dc="http://purl.org/dc/elements/1.1/"
   xmlns:cc="http://creativecommons.org/ns#"
   xmlns:rdf="http://www.w3.org/1999/02/22-rdf-syntax-ns#"
   xmlns:svg="http://www.w3.org/2000/svg"
   xmlns="http://www.w3.org/2000/svg"
   xmlns:xlink="http://www.w3.org/1999/xlink"
   xmlns:sodipodi="http://sodipodi.sourceforge.net/DTD/sodipodi-0.dtd"
   xmlns:inkscape="http://www.inkscape.org/namespaces/inkscape"
   width="210mm"
   height="297mm"
   viewBox="0 0 744.09448819 1052.3622047"
   id="svg2"
   version="1.1"
   inkscape:version="0.91 r13725"
   sodipodi:docname="floppy-disc.svg"
   inkscape:export-filename="C:\Users\johannes\Documents\Arbeit\RRZE\bi-con\bi-con\scalable\documents\document.png"
   inkscape:export-xdpi="4"
   inkscape:export-ydpi="4">
  <defs
     id="defs4">
    <linearGradient
       inkscape:collect="always"
       id="linearGradient4150">
      <stop
         style="stop-color:#5a6578;stop-opacity:1;"
         offset="0"
         id="stop4152" />
      <stop
         style="stop-color:#9397a2;stop-opacity:1"
         offset="1"
         id="stop4154" />
    </linearGradient>
    <linearGradient
       id="linearGradient2224">
      <stop
         id="stop2226"
         offset="0"
         style="stop-color:#7c7c7c;stop-opacity:1;" />
      <stop
         id="stop2228"
         offset="1"
         style="stop-color:#b8b8b8;stop-opacity:1;" />
    </linearGradient>
    <linearGradient
       id="linearGradient15218">
      <stop
         id="stop15220"
         offset="0"
         style="stop-color:#eeeeef;stop-opacity:1;" />
      <stop
         id="stop2736"
         offset="0.59928656"
         style="stop-color:#d3d7cf;stop-opacity:1;" />
      <stop
         id="stop2738"
         offset="0.82758623"
         style="stop-color:#ffffff;stop-opacity:1;" />
      <stop
         id="stop15222"
         offset="1"
         style="stop-color:#d3d7cf;stop-opacity:1;" />
    </linearGradient>
    <pattern
       y="0"
       x="0"
       height="6"
       width="6"
       patternUnits="userSpaceOnUse"
       id="EMFhbasepattern" />
    <pattern
       y="0"
       x="0"
       height="6"
       width="6"
       patternUnits="userSpaceOnUse"
       id="EMFhbasepattern-5" />
    <linearGradient
       inkscape:collect="always"
       xlink:href="#linearGradient4150"
       id="linearGradient4156"
       x1="224.85995"
       y1="722.36218"
       x2="560"
       y2="322.36221"
       gradientUnits="userSpaceOnUse" />
  </defs>
  <sodipodi:namedview
     id="base"
     pagecolor="#ffffff"
     bordercolor="#666666"
     borderopacity="1.0"
     inkscape:pageopacity="0.0"
     inkscape:pageshadow="2"
     inkscape:zoom="1"
     inkscape:cx="265.6247"
     inkscape:cy="440.39246"
     inkscape:document-units="px"
     inkscape:current-layer="layer1"
     showgrid="false"
     showguides="true"
     inkscape:guide-bbox="true"
     inkscape:window-width="1366"
     inkscape:window-height="721"
     inkscape:window-x="-4"
     inkscape:window-y="-4"
     inkscape:window-maximized="1">
    <sodipodi:guide
       position="560,730.00002"
       orientation="0,1"
       id="guide3338" />
    <sodipodi:guide
       position="560,330.00001"
       orientation="0,1"
       id="guide3340" />
    <sodipodi:guide
       position="190,475.00001"
       orientation="1,0"
       id="guide3344" />
    <sodipodi:guide
       position="590,451.00001"
       orientation="1,0"
       id="guide3346" />
    <inkscape:grid
       type="xygrid"
       id="grid3440" />
  </sodipodi:namedview>
  <metadata
     id="metadata7">
    <rdf:RDF>
      <cc:Work
         rdf:about="">
        <dc:format>image/svg+xml</dc:format>
        <dc:type
           rdf:resource="http://purl.org/dc/dcmitype/StillImage" />
      </cc:Work>
    </rdf:RDF>
  </metadata>
  <g
     inkscape:label="Ebene 1"
     inkscape:groupmode="layer"
     id="layer1">
    <rect
       style="opacity:1;fill:none;fill-opacity:1;stroke:none;stroke-width:23;stroke-linecap:butt;stroke-linejoin:round;stroke-miterlimit:4;stroke-dasharray:none;stroke-opacity:1"
       id="rect4160"
       width="400"
       height="400"
       x="190"
       y="322.36221" />
    <path
       style="color:#000000;clip-rule:nonzero;display:inline;overflow:visible;visibility:visible;opacity:1;isolation:auto;mix-blend-mode:normal;color-interpolation:sRGB;color-interpolation-filters:linearRGB;solid-color:#000000;solid-opacity:1;fill:url(#linearGradient4156);fill-opacity:1;fill-rule:nonzero;stroke:none;stroke-width:23;stroke-linecap:butt;stroke-linejoin:round;stroke-miterlimit:4;stroke-dasharray:none;stroke-dashoffset:0;stroke-opacity:1;color-rendering:auto;image-rendering:auto;shape-rendering:auto;text-rendering:auto;enable-background:accumulate"
       d="m 575.13389,722.36238 c 8.20738,0 14.81482,-6.60744 14.81482,-14.81482 l 0,-370.37039 c 0,-8.20738 -6.60744,-14.81482 -14.81482,-14.81482 l -14.89004,0 c 0.0237,0.48492 0.0753,0.96264 0.0753,1.45256 l 0,189.68171 c 0,16.95754 -14.13043,31.08797 -31.08797,31.08797 l -278.56483,0 c -16.95757,0 -31.088,-14.13043 -31.088,-31.08797 l 0,-189.68171 c 0,-0.48992 0.0519,-0.96764 0.0753,-1.45256 l -14.89004,0 c -8.20738,0 -14.81482,6.60744 -14.81482,14.81482 l 0,352.59261 32.5926,32.5926 11.85185,0 0,-140.74075 c 0,-4.10371 3.30373,-7.40741 7.40741,-7.40741 l 207.40742,0 c 4.10367,0 7.40741,3.3037 7.40741,7.40741 l 0,140.74075 118.51852,0 z M 323.28202,707.54756 c 1.64151,0 2.96297,-1.32145 2.96297,-2.96296 l 0,-112.5926 c 0,-1.64151 -1.32146,-2.96296 -2.96297,-2.96296 l -53.33333,0 c -1.64151,0 -2.96297,1.32145 -2.96297,2.96296 l 0,112.5926 c 0,1.64151 1.32146,2.96296 2.96297,2.96296 z M 529.23111,529.30103 c 8.75686,0 15.81019,-7.04758 15.81019,-15.80441 l 0,-191.14012 -310.18521,0 0,191.14012 c 0,8.75683 7.05336,15.80441 15.81019,15.80441 z m -318.54169,-183.23497 -11.85185,0 c -1.64151,0 -2.96296,-1.32146 -2.96296,-2.96297 l 0,-8.88889 c 0,-1.64151 1.32145,-2.96296 2.96296,-2.96296 l 11.85185,0 c 1.64151,0 2.96297,1.32145 2.96297,2.96296 l 0,8.88889 c 0,1.64151 -1.32146,2.96297 -2.96297,2.96297 z"
       id="rect4149"
       inkscape:connector-curvature="0"
       sodipodi:nodetypes="cssscsssssscsscccsssscccsssssssssssccssssssssssss" />
  </g>
</svg>
