<?xml version="1.0" encoding="UTF-8" standalone="no"?>
<!-- Created with Inkscape (http://www.inkscape.org/) -->

<svg
   xmlns:dc="http://purl.org/dc/elements/1.1/"
   xmlns:cc="http://creativecommons.org/ns#"
   xmlns:rdf="http://www.w3.org/1999/02/22-rdf-syntax-ns#"
   xmlns:svg="http://www.w3.org/2000/svg"
   xmlns="http://www.w3.org/2000/svg"
   xmlns:xlink="http://www.w3.org/1999/xlink"
   xmlns:sodipodi="http://sodipodi.sourceforge.net/DTD/sodipodi-0.dtd"
   xmlns:inkscape="http://www.inkscape.org/namespaces/inkscape"
   width="210mm"
   height="297mm"
   viewBox="0 0 744.09448819 1052.3622047"
   id="svg2"
   version="1.1"
   inkscape:version="0.91 r13725"
   inkscape:export-xdpi="7.1999998"
   inkscape:export-ydpi="7.1999998"
   sodipodi:docname="footnote-edit.svg"
   inkscape:export-filename="C:\Users\johannes\Documents\Arbeit\RRZE\github3\bicons\32x32\emblems\footnote-edit.png">
  <defs
     id="defs4">
    <linearGradient
       inkscape:collect="always"
       id="linearGradient4214">
      <stop
         style="stop-color:#4e505d;stop-opacity:1;"
         offset="0"
         id="stop4216" />
      <stop
         style="stop-color:#7a8597;stop-opacity:1"
         offset="1"
         id="stop4218" />
    </linearGradient>
    <linearGradient
       inkscape:collect="always"
       xlink:href="#linearGradient4214"
       id="linearGradient4220"
       x1="543.8963"
       y1="349.86026"
       x2="243.0625"
       y2="263.67542"
       gradientUnits="userSpaceOnUse"
       gradientTransform="matrix(-0.75563233,0.47077362,0.46849831,0.75198026,593.25823,122.81624)" />
  </defs>
  <sodipodi:namedview
     id="base"
     pagecolor="#ffffff"
     bordercolor="#666666"
     borderopacity="1.0"
     inkscape:pageopacity="0.0"
     inkscape:pageshadow="2"
     inkscape:zoom="0.70710678"
     inkscape:cx="255.67796"
     inkscape:cy="594.41806"
     inkscape:document-units="px"
     inkscape:current-layer="g4191"
     showgrid="false"
     showguides="true"
     inkscape:guide-bbox="true"
     inkscape:window-width="1366"
     inkscape:window-height="721"
     inkscape:window-x="-4"
     inkscape:window-y="-4"
     inkscape:window-maximized="1"
     inkscape:snap-bbox="true"
     inkscape:bbox-paths="true"
     inkscape:bbox-nodes="true"
     inkscape:snap-nodes="true">
    <sodipodi:guide
       position="560,730.00002"
       orientation="0,1"
       id="guide3338" />
    <sodipodi:guide
       position="560,330.00001"
       orientation="0,1"
       id="guide3340" />
    <sodipodi:guide
       position="190,475.00001"
       orientation="1,0"
       id="guide3344" />
    <sodipodi:guide
       position="590,451.00001"
       orientation="1,0"
       id="guide3346" />
    <inkscape:grid
       type="xygrid"
       id="grid3440" />
  </sodipodi:namedview>
  <metadata
     id="metadata7">
    <rdf:RDF>
      <cc:Work
         rdf:about="">
        <dc:format>image/svg+xml</dc:format>
        <dc:type
           rdf:resource="http://purl.org/dc/dcmitype/StillImage" />
        <dc:title>footnote edit</dc:title>
        <dc:date>June 2015</dc:date>
        <dc:creator>
          <cc:Agent>
            <dc:title>Johannes Hechler</dc:title>
          </cc:Agent>
        </dc:creator>
        <dc:rights>
          <cc:Agent>
            <dc:title>Johannes Hechler</dc:title>
          </cc:Agent>
        </dc:rights>
        <dc:publisher>
          <cc:Agent>
            <dc:title>RRZE</dc:title>
          </cc:Agent>
        </dc:publisher>
        <dc:contributor>
          <cc:Agent>
            <dc:title>Ute Weber, Hendrik Eggers, Joanna Barbach</dc:title>
          </cc:Agent>
        </dc:contributor>
        <dc:subject>
          <rdf:Bag>
            <rdf:li>footprint</rdf:li>
            <rdf:li>footnote</rdf:li>
            <rdf:li>foot</rdf:li>
            <rdf:li>edit</rdf:li>
          </rdf:Bag>
        </dc:subject>
        <cc:license
           rdf:resource="http://creativecommons.org/licenses/by-sa/3.0/" />
      </cc:Work>
      <cc:License
         rdf:about="http://creativecommons.org/licenses/by-sa/3.0/">
        <cc:permits
           rdf:resource="http://creativecommons.org/ns#Reproduction" />
        <cc:permits
           rdf:resource="http://creativecommons.org/ns#Distribution" />
        <cc:requires
           rdf:resource="http://creativecommons.org/ns#Notice" />
        <cc:requires
           rdf:resource="http://creativecommons.org/ns#Attribution" />
        <cc:permits
           rdf:resource="http://creativecommons.org/ns#DerivativeWorks" />
        <cc:requires
           rdf:resource="http://creativecommons.org/ns#ShareAlike" />
      </cc:License>
    </rdf:RDF>
  </metadata>
  <g
     inkscape:label="Ebene 1"
     inkscape:groupmode="layer"
     id="layer1">
    <rect
       style="opacity:1;fill:none;fill-opacity:1;stroke:none;stroke-width:23;stroke-linecap:butt;stroke-linejoin:round;stroke-miterlimit:4;stroke-dasharray:none;stroke-opacity:1"
       id="rect4160"
       width="400"
       height="400"
       x="190"
       y="322.36221" />
    <g
       id="g4191"
       transform="matrix(-0.85287501,0.5313577,0.52878958,0.84875296,620.87312,66.413793)">
      <g
         id="g4165">
        <g
           id="g4158">
          <path
             style="fill:url(#linearGradient4220);fill-opacity:1;fill-rule:evenodd;stroke:none;stroke-width:1px;stroke-linecap:butt;stroke-linejoin:miter;stroke-opacity:1"
             d="M 316.68555 349.57227 A 15.043769 14.321208 58.076293 0 0 308.85547 351.64062 A 15.043769 14.321208 58.076293 0 0 304.65625 371.98047 A 15.043769 14.321208 58.076293 0 0 324.76367 377.17578 A 15.043769 14.321208 58.076293 0 0 328.96484 356.83594 A 15.043769 14.321208 58.076293 0 0 316.68555 349.57227 z M 351.22266 349.67773 A 12.722606 12.319507 58.076294 0 0 344.50586 351.49023 A 12.722606 12.319507 58.076294 0 0 340.77734 368.80273 A 12.722606 12.319507 58.076294 0 0 357.96289 373.08789 A 12.722606 12.319507 58.076294 0 0 361.69141 355.77344 A 12.722606 12.319507 58.076294 0 0 351.22266 349.67773 z M 379.88867 356.5625 A 10.057941 9.3487787 58.076293 0 0 374.75977 357.87891 A 10.057941 9.3487787 58.076293 0 0 372.14258 371.35938 A 10.057941 9.3487787 58.076293 0 0 385.39453 374.95312 A 10.057941 9.3487787 58.076293 0 0 388.01172 361.47461 A 10.057941 9.3487787 58.076293 0 0 379.88867 356.5625 z M 283.04102 366.11914 A 17.349947 16.6762 58.076294 0 0 273.94141 368.55273 A 17.349947 16.6762 58.076294 0 0 268.95703 392.0957 A 17.349947 16.6762 58.076294 0 0 292.28711 398.00195 A 17.349947 16.6762 58.076294 0 0 297.26562 374.45898 A 17.349947 16.6762 58.076294 0 0 283.04102 366.11914 z M 368.38672 381.09961 C 349.2101 381.2808 327.79747 388.62872 305.83984 407.33594 C 238.5528 464.6624 280.14934 515.17828 317.05273 517.07227 C 353.95616 518.96626 374.68874 480.5734 409.22461 486.3125 C 443.49833 492.00802 453.63226 519.49606 460.9707 566.66797 L 495.18555 532.45312 A 17.459405 17.544198 58.076278 0 1 497.19531 530.75781 C 490.87062 518.96813 486.70117 510.32812 486.70117 510.32812 C 486.70117 510.32812 456.68797 452.59095 437.86719 420.4707 C 426.10422 400.39555 400.34776 380.79764 368.38672 381.09961 z M 236.58594 398.83398 A 27.698206 25.364941 58.076293 0 0 225.22852 402.36328 A 27.698206 25.364941 58.076293 0 0 218.34375 439.28516 A 27.698206 25.364941 58.076293 0 0 254.52148 449.38086 A 27.698206 25.364941 58.076293 0 0 261.40039 412.45898 A 27.698206 25.364941 58.076293 0 0 236.58594 398.83398 z M 507.50586 569.52344 L 451.83398 625.19336 C 451.1883 632.51715 451.66768 640.93517 454.31445 651.37891 C 455.22703 654.97979 456.44619 658.4594 457.92188 661.80078 L 528.85156 590.87109 L 507.50586 569.52344 z M 553.19141 615.92188 L 479.63477 689.47852 C 501.1882 706.39314 530.65472 710.39891 549.33203 691.12891 C 569.71175 670.10252 566.32115 641.6354 553.19141 615.92188 z "
             transform="matrix(-0.84465083,0.52878958,0.52623387,0.84875295,489.47181,-384.68014)"
             id="path4175" />
          <path
             sodipodi:nodetypes="cccccccccccccccc"
             style="fill:#99b000;fill-rule:evenodd;stroke:none;stroke-width:1px;stroke-linecap:butt;stroke-linejoin:miter;stroke-opacity:1"
             d="m 297.59424,334.45698 24.92378,5.81632 -14.66192,63.42629 -24.95588,-5.79953 c -10.13391,-23.46928 -5.78818,-45.855 14.69431,-63.44267 z m 49.84603,11.63316 149.53622,34.90164 -14.66191,63.42627 -149.53469,-34.90214 14.66068,-63.42538 z m 177.83707,38.6033 26.69704,42.58351 -42.6104,26.38327 z"
             id="path4176"
             inkscape:connector-curvature="0" />
        </g>
        <path
           id="rect4162"
           d="m -411.21849,255.60312 362.29733,0 c 10.058133,0 18.155474,8.09734 18.155474,18.15547 l 0,363.14941 c 0,10.05814 -8.097341,18.15548 -18.155474,18.15548 l -362.29733,0 c -10.05813,0 -18.15547,-8.09734 -18.15547,-18.15548 l 0,-363.14941 c 0,-10.05813 8.09734,-18.15547 18.15547,-18.15547 z"
           style="color:#000000;clip-rule:nonzero;display:inline;overflow:visible;visibility:visible;opacity:1;isolation:auto;mix-blend-mode:normal;color-interpolation:sRGB;color-interpolation-filters:linearRGB;solid-color:#000000;solid-opacity:1;fill:none;fill-opacity:1;fill-rule:nonzero;stroke:none;stroke-width:35;stroke-linecap:square;stroke-linejoin:round;stroke-miterlimit:4;stroke-dasharray:none;stroke-dashoffset:0;stroke-opacity:1;color-rendering:auto;image-rendering:auto;shape-rendering:auto;text-rendering:auto;enable-background:accumulate"
           transform="matrix(-0.84759991,0.53063584,0.52694476,0.84989953,0,0)" />
      </g>
    </g>
  </g>
</svg>
