<?xml version="1.0" encoding="UTF-8" standalone="no"?>
<!-- Created with Inkscape (http://www.inkscape.org/) -->

<svg
   xmlns:dc="http://purl.org/dc/elements/1.1/"
   xmlns:cc="http://creativecommons.org/ns#"
   xmlns:rdf="http://www.w3.org/1999/02/22-rdf-syntax-ns#"
   xmlns:svg="http://www.w3.org/2000/svg"
   xmlns="http://www.w3.org/2000/svg"
   xmlns:xlink="http://www.w3.org/1999/xlink"
   xmlns:sodipodi="http://sodipodi.sourceforge.net/DTD/sodipodi-0.dtd"
   xmlns:inkscape="http://www.inkscape.org/namespaces/inkscape"
   width="210mm"
   height="297mm"
   viewBox="0 0 744.09448819 1052.3622047"
   id="svg2"
   version="1.1"
   inkscape:version="0.91 r13725"
   inkscape:export-xdpi="7.1999736"
   inkscape:export-ydpi="7.1999736"
   sodipodi:docname="footnote.svg"
   inkscape:export-filename="C:\Users\johannes\Documents\Arbeit\RRZE\github3\bicons\32x32\emblems\footnote.png">
  <title
     id="title4155">footnote</title>
  <defs
     id="defs4">
    <linearGradient
       inkscape:collect="always"
       xlink:href="#linearGradient4321"
       id="linearGradient4220"
       x1="543.8963"
       y1="349.86026"
       x2="243.0625"
       y2="263.67542"
       gradientUnits="userSpaceOnUse"
       gradientTransform="matrix(0.90899968,0,0,0.90899967,43.357248,51.195365)" />
    <linearGradient
       id="linearGradient4321"
       inkscape:collect="always">
      <stop
         id="stop4323"
         offset="0"
         style="stop-color:#4e505d;stop-opacity:1;" />
      <stop
         id="stop4325"
         offset="1"
         style="stop-color:#7a8597;stop-opacity:1" />
    </linearGradient>
  </defs>
  <sodipodi:namedview
     id="base"
     pagecolor="#ffffff"
     bordercolor="#666666"
     borderopacity="1.0"
     inkscape:pageopacity="0.0"
     inkscape:pageshadow="2"
     inkscape:zoom="1"
     inkscape:cx="489.01352"
     inkscape:cy="501.91553"
     inkscape:document-units="px"
     inkscape:current-layer="g4191"
     showgrid="false"
     showguides="true"
     inkscape:guide-bbox="true"
     inkscape:window-width="1366"
     inkscape:window-height="721"
     inkscape:window-x="-4"
     inkscape:window-y="-4"
     inkscape:window-maximized="1"
     inkscape:snap-bbox="true"
     inkscape:bbox-nodes="true">
    <sodipodi:guide
       position="560,730.00002"
       orientation="0,1"
       id="guide3338" />
    <sodipodi:guide
       position="560,330.00001"
       orientation="0,1"
       id="guide3340" />
    <sodipodi:guide
       position="190,475.00001"
       orientation="1,0"
       id="guide3344" />
    <sodipodi:guide
       position="590,451.00001"
       orientation="1,0"
       id="guide3346" />
    <inkscape:grid
       type="xygrid"
       id="grid3440" />
  </sodipodi:namedview>
  <metadata
     id="metadata7">
    <rdf:RDF>
      <cc:Work
         rdf:about="">
        <dc:format>image/svg+xml</dc:format>
        <dc:type
           rdf:resource="http://purl.org/dc/dcmitype/StillImage" />
        <dc:title>footnote</dc:title>
        <dc:date>June 2015</dc:date>
        <dc:creator>
          <cc:Agent>
            <dc:title>Johannes Hechler</dc:title>
          </cc:Agent>
        </dc:creator>
        <dc:rights>
          <cc:Agent>
            <dc:title>Johannes Hechler</dc:title>
          </cc:Agent>
        </dc:rights>
        <dc:publisher>
          <cc:Agent>
            <dc:title>RRZE</dc:title>
          </cc:Agent>
        </dc:publisher>
        <dc:contributor>
          <cc:Agent>
            <dc:title>Ute Weber, Hendrik Eggers, Joanna Barbach</dc:title>
          </cc:Agent>
        </dc:contributor>
        <dc:subject>
          <rdf:Bag>
            <rdf:li>footprint</rdf:li>
            <rdf:li>footnote</rdf:li>
            <rdf:li>foot</rdf:li>
            <rdf:li />
          </rdf:Bag>
        </dc:subject>
        <cc:license
           rdf:resource="http://creativecommons.org/licenses/by-sa/3.0/" />
      </cc:Work>
      <cc:License
         rdf:about="http://creativecommons.org/licenses/by-sa/3.0/">
        <cc:permits
           rdf:resource="http://creativecommons.org/ns#Reproduction" />
        <cc:permits
           rdf:resource="http://creativecommons.org/ns#Distribution" />
        <cc:requires
           rdf:resource="http://creativecommons.org/ns#Notice" />
        <cc:requires
           rdf:resource="http://creativecommons.org/ns#Attribution" />
        <cc:permits
           rdf:resource="http://creativecommons.org/ns#DerivativeWorks" />
        <cc:requires
           rdf:resource="http://creativecommons.org/ns#ShareAlike" />
      </cc:License>
    </rdf:RDF>
  </metadata>
  <g
     inkscape:label="Ebene 1"
     inkscape:groupmode="layer"
     id="layer1">
    <rect
       style="opacity:1;fill:none;fill-opacity:1;stroke:none;stroke-width:23;stroke-linecap:butt;stroke-linejoin:round;stroke-miterlimit:4;stroke-dasharray:none;stroke-opacity:1"
       id="rect4160"
       width="400"
       height="400"
       x="190"
       y="322.36221" />
    <g
       id="g4191"
       transform="matrix(-0.85287501,0.5313577,0.52878958,0.84875296,620.87312,66.413793)">
      <g
         id="g4188"
         transform="translate(-5.553369,-25.97833)"
         inkscape:export-filename="C:\Users\johannes\Documents\Arbeit\RRZE\github3\bicons\32x32\emblems\g4188.png"
         inkscape:export-xdpi="7.1999736"
         inkscape:export-ydpi="7.1999736">
        <path
           inkscape:connector-curvature="0"
           id="path4175"
           d="m 405.46084,98.607375 a 14.622249,15.434595 0 0 1 7.90036,-2.44746 14.622249,15.434595 0 0 1 14.62265,15.434555 14.622249,15.434595 0 0 1 -14.62074,15.43318 14.622249,15.434595 0 0 1 -14.62267,-15.43457 14.622249,15.434595 0 0 1 6.7204,-12.985705 z M 375.58757,117.437 a 12.57847,13.05313 0 0 1 6.79933,-2.06712 12.57847,13.05313 0 0 1 12.57846,13.05386 12.57847,13.05313 0 0 1 -12.58001,13.05405 12.57847,13.05313 0 0 1 -12.57848,-13.05383 12.57847,13.05313 0 0 1 5.7807,-10.98696 z m -21.12397,21.54626 a 9.5452955,10.319239 0 0 1 5.15523,-1.63561 9.5452955,10.319239 0 0 1 9.54557,10.31821 9.5452955,10.319239 0 0 1 -9.54296,10.31991 9.5452955,10.319239 0 0 1 -9.54556,-10.31826 9.5452955,10.319239 0 0 1 4.38772,-8.68425 z m 89.08592,-44.219455 a 17.026744,17.800686 0 0 1 9.20095,-2.8184 17.026744,17.800686 0 0 1 17.02953,17.796455 17.026744,17.800686 0 0 1 -17.02949,17.80083 17.026744,17.800686 0 0 1 -17.0247,-17.79946 17.026744,17.800686 0 0 1 7.82371,-14.979425 z m -65.87138,59.346055 c 16.71616,-10.24606 39.23977,-15.46409 68.36824,-11.08641 89.26141,13.41501 80.48825,79.97161 49.53056,101.642 -30.95772,21.67042 -69.65392,-0.51335 -96.48393,23.22091 -26.82999,23.73422 -20.48997,53.41936 -1.03473,99.06429 13.41502,31.47375 38.12051,28.33744 51.08061,69.13776 13.93104,43.85681 -19.60398,96.48318 -60.88098,86.16386 -41.27692,-10.31917 -49.01904,-59.84708 -42.31153,-101.12406 5.26021,-32.3704 -1.02887,-90.29691 -1.02887,-90.29691 0,0 -5.16252,-66.55967 -6.19442,-104.74087 -0.64495,-23.86324 11.09475,-54.90378 38.95505,-71.98057 z M 501.47125,98.048795 a 25.898127,28.417785 0 0 1 11.74685,-3.08912 25.898127,28.417785 0 0 1 25.89994,28.416455 25.898127,28.417785 0 0 1 -25.89996,28.41839 25.898127,28.417785 0 0 1 -25.89512,-28.41948 25.898127,28.417785 0 0 1 14.14829,-25.326245 z"
           style="fill:url(#linearGradient4220);fill-opacity:1;fill-rule:evenodd;stroke:none;stroke-width:1px;stroke-linecap:butt;stroke-linejoin:miter;stroke-opacity:1" />
        <path
           id="rect4215"
           d="M 504.18067,15.373305 166.3191,226.88991 376.81264,566.39107 714.6742,354.87447 Z"
           style="color:#000000;clip-rule:nonzero;display:inline;overflow:visible;visibility:visible;opacity:1;isolation:auto;mix-blend-mode:normal;color-interpolation:sRGB;color-interpolation-filters:linearRGB;solid-color:#000000;solid-opacity:1;fill:none;fill-opacity:1;fill-rule:nonzero;stroke:none;stroke-width:36;stroke-linecap:round;stroke-linejoin:round;stroke-miterlimit:4;stroke-dasharray:none;stroke-dashoffset:0;stroke-opacity:1;color-rendering:auto;image-rendering:auto;shape-rendering:auto;text-rendering:auto;enable-background:accumulate"
           inkscape:connector-curvature="0" />
      </g>
    </g>
  </g>
</svg>
