<?xml version="1.0" encoding="UTF-8" standalone="no"?>
<!-- Created with Inkscape (http://www.inkscape.org/) -->

<svg
   xmlns:dc="http://purl.org/dc/elements/1.1/"
   xmlns:cc="http://creativecommons.org/ns#"
   xmlns:rdf="http://www.w3.org/1999/02/22-rdf-syntax-ns#"
   xmlns:svg="http://www.w3.org/2000/svg"
   xmlns="http://www.w3.org/2000/svg"
   xmlns:xlink="http://www.w3.org/1999/xlink"
   xmlns:sodipodi="http://sodipodi.sourceforge.net/DTD/sodipodi-0.dtd"
   xmlns:inkscape="http://www.inkscape.org/namespaces/inkscape"
   width="210mm"
   height="297mm"
   viewBox="0 0 744.09448819 1052.3622047"
   id="svg2"
   version="1.1"
   inkscape:version="0.91 r13725"
   sodipodi:docname="footnote-new.svg"
   inkscape:export-filename="C:\Users\johannes\Documents\Arbeit\RRZE\bi-con\bi-con\scalable\documents\document.png"
   inkscape:export-xdpi="4"
   inkscape:export-ydpi="4">
  <defs
     id="defs4">
    <linearGradient
       inkscape:collect="always"
       id="linearGradient4214">
      <stop
         style="stop-color:#5a6578;stop-opacity:1;"
         offset="0"
         id="stop4216" />
      <stop
         style="stop-color:#9397a2;stop-opacity:1"
         offset="1"
         id="stop4218" />
    </linearGradient>
    <linearGradient
       id="linearGradient2224">
      <stop
         id="stop2226"
         offset="0"
         style="stop-color:#7c7c7c;stop-opacity:1;" />
      <stop
         id="stop2228"
         offset="1"
         style="stop-color:#b8b8b8;stop-opacity:1;" />
    </linearGradient>
    <linearGradient
       id="linearGradient15218">
      <stop
         id="stop15220"
         offset="0"
         style="stop-color:#eeeeef;stop-opacity:1;" />
      <stop
         id="stop2736"
         offset="0.59928656"
         style="stop-color:#d3d7cf;stop-opacity:1;" />
      <stop
         id="stop2738"
         offset="0.82758623"
         style="stop-color:#ffffff;stop-opacity:1;" />
      <stop
         id="stop15222"
         offset="1"
         style="stop-color:#d3d7cf;stop-opacity:1;" />
    </linearGradient>
    <pattern
       y="0"
       x="0"
       height="6"
       width="6"
       patternUnits="userSpaceOnUse"
       id="EMFhbasepattern" />
    <pattern
       y="0"
       x="0"
       height="6"
       width="6"
       patternUnits="userSpaceOnUse"
       id="EMFhbasepattern-5" />
    <linearGradient
       inkscape:collect="always"
       xlink:href="#linearGradient4214"
       id="linearGradient4220"
       x1="543.8963"
       y1="349.86026"
       x2="243.0625"
       y2="263.67542"
       gradientUnits="userSpaceOnUse"
       gradientTransform="matrix(0.88598249,0,0,0.88598249,52.1281,29.559313)" />
  </defs>
  <sodipodi:namedview
     id="base"
     pagecolor="#ffffff"
     bordercolor="#666666"
     borderopacity="1.0"
     inkscape:pageopacity="0.0"
     inkscape:pageshadow="2"
     inkscape:zoom="1"
     inkscape:cx="328.27806"
     inkscape:cy="428.76917"
     inkscape:document-units="px"
     inkscape:current-layer="g4191"
     showgrid="false"
     showguides="true"
     inkscape:guide-bbox="true"
     inkscape:window-width="1366"
     inkscape:window-height="721"
     inkscape:window-x="-4"
     inkscape:window-y="-4"
     inkscape:window-maximized="1">
    <sodipodi:guide
       position="560,730.00002"
       orientation="0,1"
       id="guide3338" />
    <sodipodi:guide
       position="560,330.00001"
       orientation="0,1"
       id="guide3340" />
    <sodipodi:guide
       position="190,475.00001"
       orientation="1,0"
       id="guide3344" />
    <sodipodi:guide
       position="590,451.00001"
       orientation="1,0"
       id="guide3346" />
    <inkscape:grid
       type="xygrid"
       id="grid3440" />
  </sodipodi:namedview>
  <metadata
     id="metadata7">
    <rdf:RDF>
      <cc:Work
         rdf:about="">
        <dc:format>image/svg+xml</dc:format>
        <dc:type
           rdf:resource="http://purl.org/dc/dcmitype/StillImage" />
        <dc:title />
      </cc:Work>
    </rdf:RDF>
  </metadata>
  <g
     inkscape:label="Ebene 1"
     inkscape:groupmode="layer"
     id="layer1">
    <rect
       style="opacity:1;fill:none;fill-opacity:1;stroke:none;stroke-width:23;stroke-linecap:butt;stroke-linejoin:round;stroke-miterlimit:4;stroke-dasharray:none;stroke-opacity:1"
       id="rect4160"
       width="400"
       height="400"
       x="190"
       y="322.36221" />
    <g
       id="g4191"
       transform="matrix(-0.85287501,0.5313577,0.52878958,0.84875296,620.87312,66.413793)">
      <path
         style="fill:url(#linearGradient4220);fill-opacity:1;fill-rule:evenodd;stroke:none;stroke-width:1px;stroke-linecap:butt;stroke-linejoin:miter;stroke-opacity:1"
         d="m 405.06271,75.770783 a 14.251992,15.043769 0 0 1 7.70031,-2.385485 14.251992,15.043769 0 0 1 14.25239,15.043738 14.251992,15.043769 0 0 1 -14.25052,15.042384 14.251992,15.043769 0 0 1 -14.2524,-15.043733 14.251992,15.043769 0 0 1 6.55022,-12.656904 z m -29.11684,18.352844 a 12.259965,12.722606 0 0 1 6.62717,-2.01478 12.259965,12.722606 0 0 1 12.25995,12.723313 12.259965,12.722606 0 0 1 -12.26146,12.72351 12.259965,12.722606 0 0 1 -12.25997,-12.7233 12.259965,12.722606 0 0 1 5.63431,-10.708743 z M 355.3568,115.12429 a 9.3035949,10.057941 0 0 1 5.02469,-1.59419 9.3035949,10.057941 0 0 1 9.30385,10.05695 9.3035949,10.057941 0 0 1 -9.3013,10.05859 9.3035949,10.057941 0 0 1 -9.30386,-10.05698 9.3035949,10.057941 0 0 1 4.27662,-8.46437 z m 86.83013,-43.099747 a 16.595602,17.349947 0 0 1 8.96798,-2.747027 16.595602,17.349947 0 0 1 16.59831,17.345815 16.595602,17.349947 0 0 1 -16.59828,17.350089 16.595602,17.349947 0 0 1 -16.59361,-17.348756 16.595602,17.349947 0 0 1 7.6256,-14.600121 z M 377.9835,129.86787 c 16.29289,-9.98661 38.24617,-15.07252 66.63707,-10.80568 87.00118,13.07532 78.45018,77.94662 48.27638,99.06828 -30.17383,21.12168 -67.89019,-0.50036 -94.04083,22.63292 -26.15061,23.13324 -19.97114,52.06666 -1.00853,96.55584 13.07532,30.67673 37.15523,27.61985 49.78719,67.38709 13.57823,42.74623 -19.10761,94.04006 -59.33938,83.98209 -40.23176,-10.05792 -47.77785,-58.33174 -41.24015,-98.56347 5.12699,-31.55078 -1.00285,-88.0105 -1.00285,-88.0105 0,0 -5.03177,-64.87426 -6.03754,-102.08865 -0.62862,-23.25898 10.81381,-53.51355 37.96864,-70.15792 z M 498.642,75.226349 A 25.242349,27.698206 0 0 1 510.09141,72.215456 25.242349,27.698206 0 0 1 535.33552,99.912374 25.242349,27.698206 0 0 1 510.09138,127.61115 25.242349,27.698206 0 0 1 484.85197,99.911304 25.242349,27.698206 0 0 1 498.642,75.226349 Z"
         id="path4175"
         inkscape:connector-curvature="0" />
      <g
         id="g4157"
         transform="translate(1.2032173,-30.208247)">
        <path
           sodipodi:type="star"
           style="opacity:1;fill:#ede13c;fill-opacity:1;fill-rule:nonzero;stroke:#ffffff;stroke-width:30;stroke-linecap:round;stroke-linejoin:round;stroke-miterlimit:4;stroke-dasharray:none;stroke-opacity:1"
           id="path4236"
           sodipodi:sides="5"
           sodipodi:cx="356"
           sodipodi:cy="488.36221"
           sodipodi:r1="132.00378"
           sodipodi:r2="68.641968"
           sodipodi:arg1="0.91971961"
           sodipodi:arg2="1.5480381"
           inkscape:flatsided="false"
           inkscape:rounded="0.1"
           inkscape:randomized="0"
           d="m 436,593.36221 c -6.87748,5.23998 -69.79398,-36.57256 -78.43797,-36.3758 -8.64398,0.19675 -69.59282,44.82873 -76.7016,39.90711 -7.10878,-4.92163 13.21504,-77.67957 10.35678,-85.83968 -2.85826,-8.16012 -64.14003,-52.33387 -61.65602,-60.61559 2.48401,-8.28172 77.96133,-11.43605 84.83881,-16.67603 6.87748,-5.23999 29.95211,-77.17285 38.59609,-77.36961 8.64398,-0.19675 34.96771,70.6117 42.07649,75.53332 7.10877,4.92163 82.65145,4.63843 85.50971,12.79855 2.85826,8.16011 -56.3501,55.07648 -58.83411,63.35819 -2.48401,8.28172 21.1293,80.03956 14.25182,85.27954 z"
           inkscape:transform-center-x="-0.087425033"
           inkscape:transform-center-y="-11.978455"
           transform="matrix(-0.79716123,0.52759935,0.52504939,0.80103277,446.02899,-189.29086)" />
        <path
           transform="matrix(-0.79716123,0.52759935,0.52504939,0.80103277,446.02899,-189.29086)"
           inkscape:transform-center-y="-11.978455"
           inkscape:transform-center-x="-0.087425033"
           d="m 436,593.36221 c -6.87748,5.23998 -69.79398,-36.57256 -78.43797,-36.3758 -8.64398,0.19675 -69.59282,44.82873 -76.7016,39.90711 -7.10878,-4.92163 13.21504,-77.67957 10.35678,-85.83968 -2.85826,-8.16012 -64.14003,-52.33387 -61.65602,-60.61559 2.48401,-8.28172 77.96133,-11.43605 84.83881,-16.67603 6.87748,-5.23999 29.95211,-77.17285 38.59609,-77.36961 8.64398,-0.19675 34.96771,70.6117 42.07649,75.53332 7.10877,4.92163 82.65145,4.63843 85.50971,12.79855 2.85826,8.16011 -56.3501,55.07648 -58.83411,63.35819 -2.48401,8.28172 21.1293,80.03956 14.25182,85.27954 z"
           inkscape:randomized="0"
           inkscape:rounded="0.1"
           inkscape:flatsided="false"
           sodipodi:arg2="1.5480381"
           sodipodi:arg1="0.91971961"
           sodipodi:r2="68.641968"
           sodipodi:r1="132.00378"
           sodipodi:cy="488.36221"
           sodipodi:cx="356"
           sodipodi:sides="5"
           id="path4159"
           style="opacity:1;fill:#ede13c;fill-opacity:1;fill-rule:nonzero;stroke:none;stroke-width:14;stroke-linecap:round;stroke-linejoin:round;stroke-miterlimit:4;stroke-dasharray:none;stroke-opacity:1"
           sodipodi:type="star" />
      </g>
    </g>
  </g>
</svg>
