<?xml version="1.0" encoding="UTF-8" standalone="no"?>
<!-- Created with Inkscape (http://www.inkscape.org/) -->

<svg
   xmlns:dc="http://purl.org/dc/elements/1.1/"
   xmlns:cc="http://creativecommons.org/ns#"
   xmlns:rdf="http://www.w3.org/1999/02/22-rdf-syntax-ns#"
   xmlns:svg="http://www.w3.org/2000/svg"
   xmlns="http://www.w3.org/2000/svg"
   xmlns:xlink="http://www.w3.org/1999/xlink"
   xmlns:sodipodi="http://sodipodi.sourceforge.net/DTD/sodipodi-0.dtd"
   xmlns:inkscape="http://www.inkscape.org/namespaces/inkscape"
   width="210mm"
   height="297mm"
   viewBox="0 0 744.09448819 1052.3622047"
   id="svg2"
   version="1.1"
   inkscape:version="0.91 r13725"
   sodipodi:docname="footnote-edit.svg"
   inkscape:export-filename="C:\Users\johannes\Documents\Arbeit\RRZE\bi-con\bi-con\scalable\documents\document.png"
   inkscape:export-xdpi="4"
   inkscape:export-ydpi="4">
  <defs
     id="defs4">
    <linearGradient
       inkscape:collect="always"
       id="linearGradient4214">
      <stop
         style="stop-color:#5a6578;stop-opacity:1;"
         offset="0"
         id="stop4216" />
      <stop
         style="stop-color:#9397a2;stop-opacity:1"
         offset="1"
         id="stop4218" />
    </linearGradient>
    <linearGradient
       id="linearGradient2224">
      <stop
         id="stop2226"
         offset="0"
         style="stop-color:#7c7c7c;stop-opacity:1;" />
      <stop
         id="stop2228"
         offset="1"
         style="stop-color:#b8b8b8;stop-opacity:1;" />
    </linearGradient>
    <linearGradient
       id="linearGradient15218">
      <stop
         id="stop15220"
         offset="0"
         style="stop-color:#eeeeef;stop-opacity:1;" />
      <stop
         id="stop2736"
         offset="0.59928656"
         style="stop-color:#d3d7cf;stop-opacity:1;" />
      <stop
         id="stop2738"
         offset="0.82758623"
         style="stop-color:#ffffff;stop-opacity:1;" />
      <stop
         id="stop15222"
         offset="1"
         style="stop-color:#d3d7cf;stop-opacity:1;" />
    </linearGradient>
    <pattern
       y="0"
       x="0"
       height="6"
       width="6"
       patternUnits="userSpaceOnUse"
       id="EMFhbasepattern" />
    <pattern
       y="0"
       x="0"
       height="6"
       width="6"
       patternUnits="userSpaceOnUse"
       id="EMFhbasepattern-5" />
    <linearGradient
       inkscape:collect="always"
       xlink:href="#linearGradient4214"
       id="linearGradient4220"
       x1="543.8963"
       y1="349.86026"
       x2="243.0625"
       y2="263.67542"
       gradientUnits="userSpaceOnUse" />
  </defs>
  <sodipodi:namedview
     id="base"
     pagecolor="#ffffff"
     bordercolor="#666666"
     borderopacity="1.0"
     inkscape:pageopacity="0.0"
     inkscape:pageshadow="2"
     inkscape:zoom="0.35355339"
     inkscape:cx="216.45975"
     inkscape:cy="502.46686"
     inkscape:document-units="px"
     inkscape:current-layer="g4191"
     showgrid="false"
     showguides="true"
     inkscape:guide-bbox="true"
     inkscape:window-width="1366"
     inkscape:window-height="721"
     inkscape:window-x="-4"
     inkscape:window-y="-4"
     inkscape:window-maximized="1">
    <sodipodi:guide
       position="560,730.00002"
       orientation="0,1"
       id="guide3338" />
    <sodipodi:guide
       position="560,330.00001"
       orientation="0,1"
       id="guide3340" />
    <sodipodi:guide
       position="190,475.00001"
       orientation="1,0"
       id="guide3344" />
    <sodipodi:guide
       position="590,451.00001"
       orientation="1,0"
       id="guide3346" />
    <inkscape:grid
       type="xygrid"
       id="grid3440" />
  </sodipodi:namedview>
  <metadata
     id="metadata7">
    <rdf:RDF>
      <cc:Work
         rdf:about="">
        <dc:format>image/svg+xml</dc:format>
        <dc:type
           rdf:resource="http://purl.org/dc/dcmitype/StillImage" />
        <dc:title></dc:title>
      </cc:Work>
    </rdf:RDF>
  </metadata>
  <g
     inkscape:label="Ebene 1"
     inkscape:groupmode="layer"
     id="layer1">
    <rect
       style="opacity:1;fill:none;fill-opacity:1;stroke:none;stroke-width:23;stroke-linecap:butt;stroke-linejoin:round;stroke-miterlimit:4;stroke-dasharray:none;stroke-opacity:1"
       id="rect4160"
       width="400"
       height="400"
       x="190"
       y="322.36221" />
    <g
       id="g4191"
       transform="matrix(-0.85287501,0.5313577,0.52878958,0.84875296,620.87312,66.413793)">
      <path
         style="fill:url(#linearGradient4220);fill-rule:evenodd;stroke:none;stroke-width:1px;stroke-linecap:butt;stroke-linejoin:miter;stroke-opacity:1;fill-opacity:1"
         d="m 398.35394,52.158446 a 16.086088,16.979759 0 0 1 8.69127,-2.692474 16.086088,16.979759 0 0 1 16.08654,16.979724 16.086088,16.979759 0 0 1 -16.08443,16.978202 16.086088,16.979759 0 0 1 -16.08655,-16.979725 16.086088,16.979759 0 0 1 7.39317,-14.285727 z m -32.8639,20.714679 a 13.837706,14.359884 0 0 1 7.48003,-2.274063 13.837706,14.359884 0 0 1 13.83769,14.360692 13.837706,14.359884 0 0 1 -13.8394,14.360905 13.837706,14.359884 0 0 1 -13.83771,-14.360674 13.837706,14.359884 0 0 1 6.35939,-12.08686 z m -23.23868,23.703263 a 10.500879,11.352302 0 0 1 5.67132,-1.799351 10.500879,11.352302 0 0 1 10.50116,11.351183 10.500879,11.352302 0 0 1 -10.49829,11.35303 10.500879,11.352302 0 0 1 -10.50117,-11.35121 10.500879,11.352302 0 0 1 4.82698,-9.553652 z M 440.2557,47.930101 a 18.731298,19.58272 0 0 1 10.12207,-3.100544 18.731298,19.58272 0 0 1 18.73436,19.578057 18.731298,19.58272 0 0 1 -18.73432,19.582889 18.731298,19.58272 0 0 1 -18.72905,-19.581385 18.731298,19.58272 0 0 1 8.60694,-16.479017 z m -72.4658,65.287219 c 18.38963,-11.27179 43.16809,-17.012214 75.21262,-12.19627 98.19741,14.75799 88.54598,87.97761 54.4891,111.81743 -34.05692,23.83984 -76.62702,-0.56475 -106.14299,25.54556 -29.51595,26.11027 -22.54124,58.76714 -1.13832,108.98166 14.75799,34.62453 41.93675,31.17426 56.19433,76.05916 15.32561,48.24727 -21.56658,106.14212 -66.9758,94.78979 -45.4092,-11.35228 -53.9264,-65.83848 -46.54736,-111.24765 5.78678,-35.61107 -1.13191,-99.33661 -1.13191,-99.33661 0,0 -5.67931,-73.22297 -6.81451,-115.22649 -0.70952,-26.25219 12.20544,-60.40024 42.85484,-79.18658 z M 503.976,51.543949 A 28.490799,31.262702 0 0 1 516.89884,48.145582 28.490799,31.262702 0 0 1 545.39162,79.406828 28.490799,31.262702 0 0 1 516.89881,110.67018 28.490799,31.262702 0 0 1 488.41132,79.405628 28.490799,31.262702 0 0 1 503.976,51.543949 Z"
         id="path4175"
         inkscape:connector-curvature="0" />
      <path
         sodipodi:nodetypes="ssccsscccccccczccccccc"
         inkscape:connector-curvature="0"
         id="path4228"
         d="m 220.05588,251.69341 c 7.90869,-13.0891 22.61432,-25.11475 29.79978,-25.54858 7.18544,-0.43384 34.15353,16.66707 34.15353,16.66707 -25.99292,18.11915 -36.50899,35.79018 -42.00845,67.49306 -12.05376,-9.43233 -26.37427,-18.92685 -29.19123,-24.74217 -2.81694,-5.81533 -0.66231,-20.78028 7.24637,-33.86938 z m 76.16141,-1.25424 185.6831,117.23949 0.014,0.24457 45.69779,75.81314 -87.94298,-8.43303 c 0.0656,-0.053 0.13062,-0.10956 0.19707,-0.16221 l -0.18741,0.10757 -185.68344,-117.24219 c 4.6171,-17.24875 7.88632,-27.44799 15.47876,-39.82296 7.59244,-12.37497 21.50854,-23.65653 26.74313,-27.74436 z m 153.22785,175.36212 32.52564,2.60519 c 0.32601,0.20571 12.31284,-8.94547 12.23238,-20.44281 l -16.40703,-27.15352 c 0.24997,13.93859 -17.29284,41.90238 -28.35099,44.99114 z"
         style="fill:#abbe24;fill-rule:evenodd;stroke:#ffffff;stroke-width:22.94435167;stroke-linecap:butt;stroke-linejoin:round;stroke-opacity:1;stroke-miterlimit:4;stroke-dasharray:none" />
      <path
         style="fill:#abbe24;fill-rule:evenodd;stroke:none;stroke-width:1px;stroke-linecap:butt;stroke-linejoin:miter;stroke-opacity:1"
         d="m 220.05588,251.69341 c 7.90869,-13.0891 22.61432,-25.11475 29.79978,-25.54858 7.18544,-0.43384 34.15353,16.66707 34.15353,16.66707 -25.99292,18.11915 -36.50899,35.79018 -42.00845,67.49306 -12.05376,-9.43233 -26.37427,-18.92685 -29.19123,-24.74217 -2.81694,-5.81533 -0.66231,-20.78028 7.24637,-33.86938 z m 76.16141,-1.25424 185.6831,117.23949 0.014,0.24457 45.69779,75.81314 -87.94298,-8.43303 c 0.0656,-0.053 0.13062,-0.10956 0.19707,-0.16221 l -0.18741,0.10757 -185.68344,-117.24219 c 4.6171,-17.24875 7.88632,-27.44799 15.47876,-39.82296 7.59244,-12.37497 21.50854,-23.65653 26.74313,-27.74436 z m 153.22785,175.36212 32.52564,2.60519 c 0.32601,0.20571 12.31284,-8.94547 12.23238,-20.44281 l -16.40703,-27.15352 c 0.24997,13.93859 -17.29284,41.90238 -28.35099,44.99114 z"
         id="path4234-6-1-3"
         inkscape:connector-curvature="0"
         sodipodi:nodetypes="ssccsscccccccczccccccc" />
    </g>
  </g>
</svg>
