<?xml version="1.0" encoding="UTF-8" standalone="no"?>
<!-- Created with Inkscape (http://www.inkscape.org/) -->

<svg
   xmlns:dc="http://purl.org/dc/elements/1.1/"
   xmlns:cc="http://creativecommons.org/ns#"
   xmlns:rdf="http://www.w3.org/1999/02/22-rdf-syntax-ns#"
   xmlns:svg="http://www.w3.org/2000/svg"
   xmlns="http://www.w3.org/2000/svg"
   xmlns:xlink="http://www.w3.org/1999/xlink"
   xmlns:sodipodi="http://sodipodi.sourceforge.net/DTD/sodipodi-0.dtd"
   xmlns:inkscape="http://www.inkscape.org/namespaces/inkscape"
   width="210mm"
   height="297mm"
   viewBox="0 0 744.09448819 1052.3622047"
   id="svg2"
   version="1.1"
   inkscape:version="0.91 r13725"
   sodipodi:docname="gate.svg"
   inkscape:export-filename="C:\Users\johannes\Documents\Arbeit\RRZE\bi-con\bi-con\scalable\documents\document.png"
   inkscape:export-xdpi="4"
   inkscape:export-ydpi="4">
  <defs
     id="defs4">
    <linearGradient
       inkscape:collect="always"
       id="linearGradient4201">
      <stop
         style="stop-color:#5a6578;stop-opacity:1;"
         offset="0"
         id="stop4203" />
      <stop
         style="stop-color:#9397a2;stop-opacity:1"
         offset="1"
         id="stop4205" />
    </linearGradient>
    <linearGradient
       id="linearGradient2224">
      <stop
         id="stop2226"
         offset="0"
         style="stop-color:#7c7c7c;stop-opacity:1;" />
      <stop
         id="stop2228"
         offset="1"
         style="stop-color:#b8b8b8;stop-opacity:1;" />
    </linearGradient>
    <linearGradient
       id="linearGradient15218">
      <stop
         id="stop15220"
         offset="0"
         style="stop-color:#eeeeef;stop-opacity:1;" />
      <stop
         id="stop2736"
         offset="0.59928656"
         style="stop-color:#d3d7cf;stop-opacity:1;" />
      <stop
         id="stop2738"
         offset="0.82758623"
         style="stop-color:#ffffff;stop-opacity:1;" />
      <stop
         id="stop15222"
         offset="1"
         style="stop-color:#d3d7cf;stop-opacity:1;" />
    </linearGradient>
    <pattern
       y="0"
       x="0"
       height="6"
       width="6"
       patternUnits="userSpaceOnUse"
       id="EMFhbasepattern" />
    <pattern
       y="0"
       x="0"
       height="6"
       width="6"
       patternUnits="userSpaceOnUse"
       id="EMFhbasepattern-5" />
    <linearGradient
       inkscape:collect="always"
       xlink:href="#linearGradient4201"
       id="linearGradient4209"
       gradientUnits="userSpaceOnUse"
       x1="307.36438"
       y1="605.36182"
       x2="368.92905"
       y2="545.73102"
       gradientTransform="matrix(4.6401796,0,0,4.6401796,-1197.1233,-2086.6253)" />
    <linearGradient
       inkscape:collect="always"
       xlink:href="#linearGradient4201"
       id="linearGradient4211"
       gradientUnits="userSpaceOnUse"
       x1="307.36438"
       y1="605.36182"
       x2="368.92905"
       y2="545.73102"
       gradientTransform="matrix(4.6401796,0,0,4.6401796,-1197.1233,-2086.6253)" />
    <linearGradient
       inkscape:collect="always"
       xlink:href="#linearGradient4201"
       id="linearGradient4213"
       gradientUnits="userSpaceOnUse"
       x1="307.36438"
       y1="605.36182"
       x2="368.92905"
       y2="545.73102"
       gradientTransform="matrix(11.798057,0,0,9.3068465,-3644.9858,-4701.3155)" />
  </defs>
  <sodipodi:namedview
     id="base"
     pagecolor="#ffffff"
     bordercolor="#666666"
     borderopacity="1.0"
     inkscape:pageopacity="0.0"
     inkscape:pageshadow="2"
     inkscape:zoom="0.088388348"
     inkscape:cx="-2404.6702"
     inkscape:cy="353.22434"
     inkscape:document-units="px"
     inkscape:current-layer="layer1"
     showgrid="false"
     showguides="false"
     inkscape:guide-bbox="true"
     inkscape:window-width="1366"
     inkscape:window-height="721"
     inkscape:window-x="-4"
     inkscape:window-y="-4"
     inkscape:window-maximized="1">
    <sodipodi:guide
       position="560,730.00002"
       orientation="0,1"
       id="guide3338" />
    <sodipodi:guide
       position="560,330.00001"
       orientation="0,1"
       id="guide3340" />
    <sodipodi:guide
       position="190,475.00001"
       orientation="1,0"
       id="guide3344" />
    <sodipodi:guide
       position="590,451.00001"
       orientation="1,0"
       id="guide3346" />
    <inkscape:grid
       type="xygrid"
       id="grid3440" />
  </sodipodi:namedview>
  <metadata
     id="metadata7">
    <rdf:RDF>
      <cc:Work
         rdf:about="">
        <dc:format>image/svg+xml</dc:format>
        <dc:type
           rdf:resource="http://purl.org/dc/dcmitype/StillImage" />
      </cc:Work>
    </rdf:RDF>
  </metadata>
  <g
     inkscape:label="Ebene 1"
     inkscape:groupmode="layer"
     id="layer1">
    <rect
       style="opacity:1;fill:none;fill-opacity:1;stroke:none;stroke-width:23;stroke-linecap:butt;stroke-linejoin:round;stroke-miterlimit:4;stroke-dasharray:none;stroke-opacity:1"
       id="rect4160"
       width="400"
       height="400"
       x="190"
       y="322.36221" />
    <path
       inkscape:connector-curvature="0"
       style="color:#000000;font-style:normal;font-variant:normal;font-weight:normal;font-stretch:normal;font-size:medium;line-height:normal;font-family:sans-serif;text-indent:0;text-align:start;text-decoration:none;text-decoration-line:none;text-decoration-style:solid;text-decoration-color:#000000;letter-spacing:normal;word-spacing:normal;text-transform:none;direction:ltr;block-progression:tb;writing-mode:lr-tb;baseline-shift:baseline;text-anchor:start;white-space:normal;clip-rule:nonzero;display:inline;overflow:visible;visibility:visible;opacity:1;isolation:auto;mix-blend-mode:normal;color-interpolation:sRGB;color-interpolation-filters:linearRGB;solid-color:#000000;solid-opacity:1;fill:url(#linearGradient4209);fill-opacity:1;fill-rule:evenodd;stroke:none;stroke-width:2.0999999;stroke-linecap:butt;stroke-linejoin:miter;stroke-miterlimit:4;stroke-dasharray:none;stroke-dashoffset:0;stroke-opacity:1;color-rendering:auto;image-rendering:auto;shape-rendering:auto;text-rendering:auto;enable-background:accumulate"
       d="m 380.53776,332.35833 c 0,0 -12.47034,0.0557 -33.24252,5.99056 -20.77223,5.93488 -50.24558,17.74878 -85.46269,41.22688 -35.42503,23.61671 -53.47315,47.5031 -62.56085,65.6785 -9.0877,18.1754 -9.21693,31.17621 -9.21693,31.17621 l 0,236.88478 4.87581,0 190.48299,0 0,-380.95693 z m -8.8758,10.16853 0,357.04584 -9.68491,0 0,-354.87985 c 6.33811,-1.37279 6.76744,-1.93115 9.68491,-2.16599 z m -18.96527,4.46799 0,352.57785 -18.56072,0 0,-346.10698 c 0,-0.18654 -0.0673,-0.35219 -0.10858,-0.52564 5.79461,-2.13124 11.13963,-3.85469 15.95062,-5.2293 1.01601,-0.29001 1.76948,-0.45752 2.71886,-0.71593 z m -27.84108,9.52503 0,343.05282 -18.56072,0 0,-334.56997 c 6.53815,-3.2445 12.76337,-6.09613 18.56072,-8.48285 z m -27.84108,13.30428 0,329.74854 -18.56072,0 0,-318.26591 c 0,-0.25103 -0.0719,-0.48095 -0.14477,-0.70693 6.49518,-4.01923 12.70815,-7.55342 18.70572,-10.7757 z m -27.84108,16.62126 0,313.12728 -18.56071,0 0,-299.66895 c 5.07227,-4.04809 10.47385,-8.11846 16.62126,-12.21671 0.66104,-0.44082 1.28278,-0.80943 1.93945,-1.24162 z m -27.84107,21.28863 0,291.83865 -18.56072,0 0,-271.86411 c 0,-0.18282 -0.0599,-0.34616 -0.0998,-0.51659 5.00583,-6.20169 11.18752,-12.74231 18.66039,-19.45795 z m -27.84108,32.27283 0,259.56582 -13.68491,0 0,-223.14222 c 0,0 -0.12946,-10.19105 8.18374,-26.81699 1.50138,-3.00266 3.39629,-6.25283 5.50117,-9.60661 z"
       id="path4149"
       sodipodi:nodetypes="csssccccccccccccccsccccccccccccsccccccccccccscccccccsc" />
    <path
       id="path4184"
       d="m 399.56974,332.35833 c 0,0 12.47053,0.0557 33.24294,5.99056 20.77242,5.93488 50.24605,17.74878 85.46353,41.22688 35.4254,23.61671 53.4737,47.5031 62.5615,65.6785 9.08779,18.1754 9.21706,31.17621 9.21706,31.17621 l 0,236.88478 -4.87581,0 -190.48503,0 0,-380.95693 z m 8.87599,10.16853 0,357.04584 9.68496,0 0,-354.87985 c -6.33816,-1.37279 -6.76749,-1.93115 -9.68496,-2.16599 z m 18.96537,4.46799 0,352.57785 18.56095,0 0,-346.10698 c 0,-0.18654 0.0617,-0.35219 0.10811,-0.52564 -5.79465,-2.13124 -11.13972,-3.85469 -15.95066,-5.2293 -1.01629,-0.29001 -1.76958,-0.45752 -2.71901,-0.71593 z m 27.84149,9.52503 0,343.05282 18.56081,0 0,-334.56997 c -6.5382,-3.2445 -12.76351,-6.09613 -18.56081,-8.48285 z m 27.84136,13.30428 0,329.74854 18.56081,0 0,-318.26591 c 0,-0.25103 0.077,-0.48095 0.1392,-0.70693 -6.49527,-4.01923 -12.70824,-7.55342 -18.70586,-10.7757 z m 27.84135,16.62126 0,313.12728 18.56095,0 0,-299.66895 c -5.07246,-4.04809 -10.474,-8.11846 -16.62145,-12.21671 -0.66108,-0.44082 -1.28352,-0.80943 -1.9395,-1.24162 z m 27.84136,21.28863 0,291.83865 18.56095,0 0,-271.86411 c 0,-0.18282 0.0617,-0.34616 0.0928,-0.51659 -5.00587,-6.20169 -11.18761,-12.74231 -18.66057,-19.45795 z m 27.84135,32.27283 0,259.56582 13.68496,0 0,-223.14222 c 0,0 0.12343,-10.19105 -8.18374,-26.81699 -1.50133,-3.00266 -3.39634,-6.25283 -5.50122,-9.60661 z"
       style="color:#000000;font-style:normal;font-variant:normal;font-weight:normal;font-stretch:normal;font-size:medium;line-height:normal;font-family:sans-serif;text-indent:0;text-align:start;text-decoration:none;text-decoration-line:none;text-decoration-style:solid;text-decoration-color:#000000;letter-spacing:normal;word-spacing:normal;text-transform:none;direction:ltr;block-progression:tb;writing-mode:lr-tb;baseline-shift:baseline;text-anchor:start;white-space:normal;clip-rule:nonzero;display:inline;overflow:visible;visibility:visible;opacity:1;isolation:auto;mix-blend-mode:normal;color-interpolation:sRGB;color-interpolation-filters:linearRGB;solid-color:#000000;solid-opacity:1;fill:url(#linearGradient4211);fill-opacity:1;fill-rule:evenodd;stroke:none;stroke-width:2.0999999;stroke-linecap:butt;stroke-linejoin:miter;stroke-miterlimit:4;stroke-dasharray:none;stroke-dashoffset:0;stroke-opacity:1;color-rendering:auto;image-rendering:auto;shape-rendering:auto;text-rendering:auto;enable-background:accumulate"
       inkscape:connector-curvature="0"
       sodipodi:nodetypes="csssccccccccccccccsccccccccccccsccccccccccccsccccccccc" />
    <rect
       style="color:#000000;clip-rule:nonzero;display:inline;overflow:visible;visibility:visible;opacity:1;isolation:auto;mix-blend-mode:normal;color-interpolation:sRGB;color-interpolation-filters:linearRGB;solid-color:#000000;solid-opacity:1;fill:url(#linearGradient4213);fill-opacity:1;fill-rule:nonzero;stroke:none;stroke-width:2.0999999;stroke-linecap:butt;stroke-linejoin:round;stroke-miterlimit:4;stroke-dasharray:none;stroke-dashoffset:0;stroke-opacity:1;color-rendering:auto;image-rendering:auto;shape-rendering:auto;text-rendering:auto;enable-background:accumulate"
       id="rect4186"
       width="94.384453"
       height="27.92054"
       x="342.75742"
       y="523.19604"
       ry="4.6534233" />
  </g>
</svg>
