<?xml version="1.0" encoding="UTF-8" standalone="no"?>
<!-- Created with Inkscape (http://www.inkscape.org/) -->

<svg
   xmlns:dc="http://purl.org/dc/elements/1.1/"
   xmlns:cc="http://creativecommons.org/ns#"
   xmlns:rdf="http://www.w3.org/1999/02/22-rdf-syntax-ns#"
   xmlns:svg="http://www.w3.org/2000/svg"
   xmlns="http://www.w3.org/2000/svg"
   xmlns:sodipodi="http://sodipodi.sourceforge.net/DTD/sodipodi-0.dtd"
   xmlns:inkscape="http://www.inkscape.org/namespaces/inkscape"
   width="210mm"
   height="297mm"
   viewBox="0 0 744.09448819 1052.3622047"
   id="svg2"
   version="1.1"
   inkscape:version="0.91 r13725"
   inkscape:export-xdpi="4"
   inkscape:export-ydpi="4"
   sodipodi:docname="gnucash.svg">
  <defs
     id="defs4">
    <linearGradient
       id="linearGradient2224">
      <stop
         id="stop2226"
         offset="0"
         style="stop-color:#7c7c7c;stop-opacity:1;" />
      <stop
         id="stop2228"
         offset="1"
         style="stop-color:#b8b8b8;stop-opacity:1;" />
    </linearGradient>
    <linearGradient
       id="linearGradient15218">
      <stop
         id="stop15220"
         offset="0"
         style="stop-color:#eeeeef;stop-opacity:1;" />
      <stop
         id="stop2736"
         offset="0.59928656"
         style="stop-color:#d3d7cf;stop-opacity:1;" />
      <stop
         id="stop2738"
         offset="0.82758623"
         style="stop-color:#ffffff;stop-opacity:1;" />
      <stop
         id="stop15222"
         offset="1"
         style="stop-color:#d3d7cf;stop-opacity:1;" />
    </linearGradient>
    <pattern
       y="0"
       x="0"
       height="6"
       width="6"
       patternUnits="userSpaceOnUse"
       id="EMFhbasepattern" />
    <pattern
       y="0"
       x="0"
       height="6"
       width="6"
       patternUnits="userSpaceOnUse"
       id="EMFhbasepattern-5" />
  </defs>
  <sodipodi:namedview
     id="base"
     pagecolor="#ffffff"
     bordercolor="#666666"
     borderopacity="1.0"
     inkscape:pageopacity="0.0"
     inkscape:pageshadow="2"
     inkscape:zoom="0.125"
     inkscape:cx="-1857.4913"
     inkscape:cy="452.03727"
     inkscape:document-units="px"
     inkscape:current-layer="layer1"
     showgrid="false"
     showguides="true"
     inkscape:guide-bbox="true"
     inkscape:window-width="1366"
     inkscape:window-height="721"
     inkscape:window-x="-4"
     inkscape:window-y="-4"
     inkscape:window-maximized="1">
    <sodipodi:guide
       position="560,730.00002"
       orientation="0,1"
       id="guide3338" />
    <sodipodi:guide
       position="560,330.00001"
       orientation="0,1"
       id="guide3340" />
    <sodipodi:guide
       position="190,475.00001"
       orientation="1,0"
       id="guide3344" />
    <sodipodi:guide
       position="590,451.00001"
       orientation="1,0"
       id="guide3346" />
    <inkscape:grid
       type="xygrid"
       id="grid3440" />
    <sodipodi:guide
       position="215,442.00001"
       orientation="1,0"
       id="guide4155" />
    <sodipodi:guide
       position="564.97832,467.39759"
       orientation="1,0"
       id="guide4157" />
  </sodipodi:namedview>
  <metadata
     id="metadata7">
    <rdf:RDF>
      <cc:Work
         rdf:about="">
        <dc:format>image/svg+xml</dc:format>
        <dc:type
           rdf:resource="http://purl.org/dc/dcmitype/StillImage" />
      </cc:Work>
    </rdf:RDF>
  </metadata>
  <g
     inkscape:label="Ebene 1"
     inkscape:groupmode="layer"
     id="layer1">
    <rect
       style="opacity:1;fill:none;fill-opacity:1;stroke:none;stroke-width:23;stroke-linecap:butt;stroke-linejoin:round;stroke-miterlimit:4;stroke-dasharray:none;stroke-opacity:1"
       id="rect4160"
       width="400"
       height="400"
       x="190"
       y="322.36221" />
    <g
       id="g4184"
       transform="matrix(2.0588235,0,0,2.0588235,-320.54895,-663.62622)">
      <rect
         ry="2.5"
         y="492.36221"
         x="265"
         height="170"
         width="5"
         id="rect4151"
         style="color:#000000;clip-rule:nonzero;display:inline;overflow:visible;visibility:visible;opacity:1;isolation:auto;mix-blend-mode:normal;color-interpolation:sRGB;color-interpolation-filters:linearRGB;solid-color:#000000;solid-opacity:1;fill:#9397a2;fill-opacity:1;fill-rule:nonzero;stroke:none;stroke-width:2;stroke-linecap:butt;stroke-linejoin:round;stroke-miterlimit:4;stroke-dasharray:none;stroke-dashoffset:60.95968628;stroke-opacity:1;color-rendering:auto;image-rendering:auto;shape-rendering:auto;text-rendering:auto;enable-background:accumulate" />
      <rect
         ry="2.5"
         y="652.36218"
         x="260"
         height="5"
         width="170"
         id="rect4153"
         style="color:#000000;clip-rule:nonzero;display:inline;overflow:visible;visibility:visible;opacity:1;isolation:auto;mix-blend-mode:normal;color-interpolation:sRGB;color-interpolation-filters:linearRGB;solid-color:#000000;solid-opacity:1;fill:#9397a2;fill-opacity:1;fill-rule:nonzero;stroke:none;stroke-width:2;stroke-linecap:butt;stroke-linejoin:round;stroke-miterlimit:4;stroke-dasharray:none;stroke-dashoffset:60.95968628;stroke-opacity:1;color-rendering:auto;image-rendering:auto;shape-rendering:auto;text-rendering:auto;enable-background:accumulate" />
      <path
         sodipodi:nodetypes="ccccccccc"
         inkscape:connector-curvature="0"
         id="path4155"
         d="m 275,582.3622 40,-35 30,15 65,-55 2.67678,2.53033 -67.48928,57.78217 -29.4375,-15.125 -37,32.8125 z"
         style="fill:#5a6578;fill-rule:evenodd;stroke:none;stroke-width:1px;stroke-linecap:butt;stroke-linejoin:miter;stroke-opacity:1" />
    </g>
    <ellipse
       style="font-style:normal;font-weight:normal;font-size:medium;line-height:125%;font-family:sans-serif;letter-spacing:0px;word-spacing:0px;opacity:1;fill:#abbe24;fill-opacity:1;stroke:#ffffff;stroke-width:30;stroke-linecap:square;stroke-linejoin:round;stroke-miterlimit:4;stroke-dasharray:none;stroke-opacity:1"
       id="ellipse4198"
       cx="437.37042"
       cy="619.47284"
       rx="91.872765"
       ry="91.280769" />
    <ellipse
       ry="91.280769"
       rx="91.872765"
       cy="619.47284"
       cx="437.37042"
       id="path4169"
       style="font-style:normal;font-weight:normal;font-size:medium;line-height:125%;font-family:sans-serif;letter-spacing:0px;word-spacing:0px;opacity:1;fill:#abbe24;fill-opacity:1;stroke:none;stroke-width:16;stroke-linecap:square;stroke-linejoin:round;stroke-miterlimit:4;stroke-dasharray:none;stroke-opacity:1" />
    <path
       sodipodi:nodetypes="ccccscccssscscscccczsccsccsssccccsccccccccscccssscccccsscccccscscscccccczccccscscccccssccsscsscsccscccsccscscc"
       inkscape:connector-curvature="0"
       id="path4288"
       style="font-style:normal;font-variant:normal;font-weight:normal;font-stretch:normal;font-size:medium;line-height:125%;font-family:'MV Boli';-inkscape-font-specification:'MV Boli';letter-spacing:0px;word-spacing:0px;fill:#ffffff;fill-opacity:1;stroke:#ffffff;stroke-width:7.17311573;stroke-linecap:butt;stroke-linejoin:round;stroke-miterlimit:4;stroke-dasharray:none;stroke-opacity:1"
       d="m 418.2214,678.56561 c -5.72709,0 -10.62282,-0.95449 -14.68717,-2.86353 -4.0644,-1.97061 -7.38979,-4.52624 -9.9762,-7.66689 -2.58644,-3.20223 -4.49547,-6.80477 -5.72708,-10.80754 -1.17005,-4.06438 -1.75509,-8.15954 -1.75509,-12.28551 l 0,-1.66268 c 0.0615,-0.55423 0.12323,-1.10849 0.18476,-1.66271 -0.61583,0.0616 -1.29323,0.12324 -2.03219,0.18475 l -2.12457,0 c -1.2932,0 -2.46325,-0.21545 -3.51012,-0.64661 -1.04688,-0.43106 -1.9706,-1.01607 -2.77119,-1.75506 -0.80054,-0.73898 -1.41638,-1.5703 -1.84745,-2.49402 -0.43106,-0.92373 -0.64659,-1.90906 -0.64659,-2.95594 0,-1.78587 0.58503,-3.29462 1.75506,-4.52623 1.23164,-1.23162 3.07909,-1.84746 5.54234,-1.84746 0.86212,0 1.60111,0.0308 2.21694,0.0924 0.6774,0 1.324,0.0618 1.93981,0.18477 0.61584,0.0614 1.26242,0.15396 1.93981,0.27712 0.6774,0.12324 0.84877,0.14146 1.77246,0.2646 0.15966,-0.95906 0.13256,-1.59491 0.4793,-3.63999 0.34666,-2.04512 0.24902,-4.48871 0.41241,-7.00022 0.0951,-1.4607 0.46207,-3.01046 0.90365,-4.31159 l -4.98811,0 -1.93981,0 c -1.17005,0 -2.24771,-0.0308 -3.23303,-0.0924 -0.92372,-0.0614 -1.7243,-0.21545 -2.40169,-0.46185 -0.6774,-0.30792 -1.20083,-0.76977 -1.57031,-1.38557 -0.36951,-0.61583 -0.55425,-1.47796 -0.55425,-2.58644 0,-0.43106 0.0618,-0.9853 0.18477,-1.6627 0.12309,-0.6774 0.33877,-1.38557 0.6466,-2.12456 0.3695,-0.73897 0.86216,-1.44716 1.47796,-2.12456 0.61581,-0.73898 1.44716,-1.2932 2.49403,-1.66272 l 17.45835,-0.83135 c 2.40169,-3.57172 5.01891,-7.17422 7.85165,-10.80753 2.83275,-3.6333 5.6963,-7.05109 8.59062,-10.25331 2.89433,-3.26382 5.72706,-6.15815 8.49824,-8.68298 2.77117,-2.58644 5.29601,-4.58783 7.57452,-6.0042 l 0.92373,-0.55423 0.92372,-0.55423 c 2.09376,-1.29322 4.24913,-2.61723 6.46605,-3.972 2.27853,-1.3548 4.58782,-2.55565 6.92791,-3.60254 2.34009,-1.10846 4.6802,-2.00139 7.02027,-2.67877 2.40169,-0.73896 4.77259,-1.10848 7.11265,-1.10848 2.58644,0 4.98811,0.52345 7.20503,1.57033 2.27854,1.04688 4.27993,2.46327 6.0042,4.24913 1.72431,1.72428 3.07908,3.78725 4.0644,6.18894 0.98532,2.34009 1.47795,4.83415 1.47795,7.48215 0,2.77116 -0.36951,4.68017 -1.10847,5.72704 -0.73898,1.0469 -1.909,1.57034 -3.51012,1.57034 -1.23164,0 -2.18615,-0.27713 -2.86355,-0.83135 -0.6774,-0.6158 -1.23164,-1.35477 -1.66272,-2.21692 -0.36947,-0.86214 -0.6774,-1.78586 -0.92372,-2.77115 -0.24633,-0.98531 -0.58499,-1.90904 -1.01609,-2.77119 -0.36949,-0.86212 -0.86214,-1.57032 -1.47795,-2.12455 -0.61582,-0.61581 -1.47793,-0.92372 -2.58642,-0.92372 -2.52484,0 -5.20363,0.52345 -8.03639,1.57031 -2.83273,1.0469 -5.72706,2.46326 -8.68297,4.24915 -2.95594,1.72426 -5.91185,3.72565 -8.86774,6.00419 -2.89432,2.21692 -5.69628,4.557 -8.40585,7.02027 -2.70959,2.40167 -5.23444,4.80335 -7.57454,7.20502 -2.34007,2.3401 -4.37229,4.49546 -6.09656,6.46606 l 16.34987,0 c 2.27852,0 4.12596,0.52345 5.54233,1.57033 1.47797,1.04688 2.21696,2.30931 2.21696,3.78726 0,1.10847 -0.27713,2.0014 -0.83137,2.6788 -0.49265,0.6774 -1.17005,1.20085 -2.03219,1.57032 -0.86213,0.36949 -1.84742,0.6466 -2.95591,0.83135 -1.04687,0.18477 -2.15535,0.3387 -3.3254,0.46185 -1.10846,0.12323 -2.61721,0.2772 -4.52622,0.46188 -1.84745,0.18476 -3.87966,0.40028 -6.09659,0.64661 -2.21692,0.18475 -4.55701,0.36949 -7.0203,0.55421 -2.40166,0.18475 -4.71096,0.36951 -6.92788,0.55427 -1.41639,2.34007 -1.38262,4.98259 -1.78057,7.63698 -0.39798,2.6544 -0.53409,4.50145 -0.79247,7.08787 3.07906,-0.36947 6.57983,-0.89981 8.79675,-1.14616 2.21693,-0.3079 4.12596,-0.55422 5.72709,-0.73899 1.66269,-0.18475 3.04826,-0.3079 4.15675,-0.36947 1.17002,-0.12324 2.21692,-0.18475 3.14065,-0.18475 3.75647,0 6.43526,0.27714 8.03638,0.83136 1.60113,0.49265 2.40168,1.53952 2.40168,3.14065 0,1.10846 -0.3079,2.09377 -0.92373,2.9559 -0.61582,0.80059 -1.44717,1.47799 -2.49405,2.0322 -0.98531,0.55422 -2.12455,1.0161 -3.41779,1.38557 -1.23161,0.36947 -2.46324,0.64661 -3.69487,0.83135 -1.04689,0.18475 -2.46325,0.43108 -4.24911,0.73899 -1.7243,0.24632 -3.63331,0.52344 -5.72709,0.83135 -2.09379,0.3079 -4.27992,0.6158 -6.5584,0.92373 -2.27854,0.30789 -4.46467,0.58501 -6.55844,0.83133 -0.0616,0.6774 -0.12324,1.38559 -0.18475,2.12456 l 0,2.12458 c 0,2.52482 0.27712,4.92651 0.83133,7.20502 0.55424,2.2785 1.47797,4.27991 2.77121,6.0042 1.2932,1.66269 3.01747,2.9867 5.1728,3.97198 2.15537,0.98532 4.86495,1.47797 8.12877,1.47797 4.12596,0 8.28271,-0.49265 12.47023,-1.47797 4.24914,-1.04687 8.49825,-2.43246 12.74737,-4.15674 4.24914,-1.72428 8.49825,-3.72568 12.74737,-6.00418 4.24913,-2.3401 8.46745,-4.83416 12.65499,-7.48216 l 2.03221,0 c 0.80055,0 1.57031,0.21545 2.3093,0.64659 0.73896,0.36951 1.38556,0.89298 1.93978,1.57034 0.55424,0.61584 0.98532,1.32401 1.29324,2.12459 0.36948,0.80054 0.55421,1.60108 0.55421,2.40167 0,1.84744 -0.95451,3.84882 -2.86353,6.00419 -1.90903,2.09376 -4.46465,4.18752 -7.66689,6.28129 -3.14065,2.09379 -6.77396,4.09518 -10.89992,6.00422 -4.12596,1.90901 -8.40586,3.60249 -12.83972,5.08046 -4.37229,1.47793 -8.74457,2.64799 -13.11685,3.51013 -4.37228,0.86214 -8.37508,1.2932 -12.00838,1.2932 z" />
  </g>
</svg>
