<?xml version="1.0" encoding="UTF-8" standalone="no"?>
<!-- Created with Inkscape (http://www.inkscape.org/) -->

<svg
   xmlns:dc="http://purl.org/dc/elements/1.1/"
   xmlns:cc="http://creativecommons.org/ns#"
   xmlns:rdf="http://www.w3.org/1999/02/22-rdf-syntax-ns#"
   xmlns:svg="http://www.w3.org/2000/svg"
   xmlns="http://www.w3.org/2000/svg"
   xmlns:xlink="http://www.w3.org/1999/xlink"
   xmlns:sodipodi="http://sodipodi.sourceforge.net/DTD/sodipodi-0.dtd"
   xmlns:inkscape="http://www.inkscape.org/namespaces/inkscape"
   width="210mm"
   height="297mm"
   viewBox="0 0 744.09448819 1052.3622047"
   id="svg2"
   version="1.1"
   inkscape:version="0.91 r13725"
   inkscape:export-xdpi="4"
   inkscape:export-ydpi="4"
   sodipodi:docname="media-film.svg">
  <title
     id="title4154">media film</title>
  <defs
     id="defs4">
    <linearGradient
       inkscape:collect="always"
       id="linearGradient4150">
      <stop
         style="stop-color:#4e505d;stop-opacity:1;"
         offset="0"
         id="stop4152" />
      <stop
         style="stop-color:#7a8597;stop-opacity:1"
         offset="1"
         id="stop4154" />
    </linearGradient>
    <linearGradient
       inkscape:collect="always"
       xlink:href="#linearGradient4150"
       id="linearGradient4156"
       x1="247"
       y1="722.36218"
       x2="535"
       y2="345.36221"
       gradientUnits="userSpaceOnUse" />
  </defs>
  <sodipodi:namedview
     id="base"
     pagecolor="#ffffff"
     bordercolor="#666666"
     borderopacity="1.0"
     inkscape:pageopacity="0.0"
     inkscape:pageshadow="2"
     inkscape:zoom="0.5"
     inkscape:cx="49.12893"
     inkscape:cy="611.98773"
     inkscape:document-units="px"
     inkscape:current-layer="layer1"
     showgrid="false"
     showguides="true"
     inkscape:guide-bbox="true"
     inkscape:window-width="1280"
     inkscape:window-height="962"
     inkscape:window-x="-8"
     inkscape:window-y="-8"
     inkscape:window-maximized="1">
    <sodipodi:guide
       position="560,730.00002"
       orientation="0,1"
       id="guide3338" />
    <sodipodi:guide
       position="560,330.00001"
       orientation="0,1"
       id="guide3340" />
    <sodipodi:guide
       position="190,475.00001"
       orientation="1,0"
       id="guide3344" />
    <sodipodi:guide
       position="590,451.00001"
       orientation="1,0"
       id="guide3346" />
    <inkscape:grid
       type="xygrid"
       id="grid3440" />
  </sodipodi:namedview>
  <metadata
     id="metadata7">
    <rdf:RDF>
      <cc:Work
         rdf:about="">
        <dc:format>image/svg+xml</dc:format>
        <dc:type
           rdf:resource="http://purl.org/dc/dcmitype/StillImage" />
        <dc:title>media film</dc:title>
        <dc:date>June 2015</dc:date>
        <dc:creator>
          <cc:Agent>
            <dc:title>Johannes Hechler</dc:title>
          </cc:Agent>
        </dc:creator>
        <dc:rights>
          <cc:Agent>
            <dc:title>Johannes Hechler</dc:title>
          </cc:Agent>
        </dc:rights>
        <dc:publisher>
          <cc:Agent>
            <dc:title>RRZE</dc:title>
          </cc:Agent>
        </dc:publisher>
        <dc:contributor>
          <cc:Agent>
            <dc:title>Ute Weber, Hendrik Eggers, Joanna Barbach</dc:title>
          </cc:Agent>
        </dc:contributor>
        <dc:subject>
          <rdf:Bag>
            <rdf:li>film</rdf:li>
            <rdf:li>movie</rdf:li>
            <rdf:li>media</rdf:li>
            <rdf:li>filmstrip</rdf:li>
          </rdf:Bag>
        </dc:subject>
        <cc:license
           rdf:resource="http://creativecommons.org/licenses/by-sa/3.0/" />
      </cc:Work>
      <cc:License
         rdf:about="http://creativecommons.org/licenses/by-sa/3.0/">
        <cc:permits
           rdf:resource="http://creativecommons.org/ns#Reproduction" />
        <cc:permits
           rdf:resource="http://creativecommons.org/ns#Distribution" />
        <cc:requires
           rdf:resource="http://creativecommons.org/ns#Notice" />
        <cc:requires
           rdf:resource="http://creativecommons.org/ns#Attribution" />
        <cc:permits
           rdf:resource="http://creativecommons.org/ns#DerivativeWorks" />
        <cc:requires
           rdf:resource="http://creativecommons.org/ns#ShareAlike" />
      </cc:License>
    </rdf:RDF>
  </metadata>
  <g
     inkscape:label="Ebene 1"
     inkscape:groupmode="layer"
     id="layer1">
    <rect
       style="opacity:1;fill:none;fill-opacity:1;stroke:none;stroke-width:23;stroke-linecap:butt;stroke-linejoin:round;stroke-miterlimit:4;stroke-dasharray:none;stroke-opacity:1"
       id="rect4160"
       width="400"
       height="400"
       x="190"
       y="322.36221" />
    <path
       style="color:#252525;clip-rule:nonzero;display:inline;overflow:visible;visibility:visible;opacity:1;isolation:auto;mix-blend-mode:normal;color-interpolation:sRGB;color-interpolation-filters:linearRGB;solid-color:#252525;solid-opacity:1;fill:url(#linearGradient4156);fill-opacity:1;fill-rule:nonzero;stroke:none;stroke-width:23;stroke-linecap:butt;stroke-linejoin:round;stroke-miterlimit:4;stroke-dasharray:none;stroke-dashoffset:0;stroke-opacity:1;color-rendering:auto;image-rendering:auto;shape-rendering:auto;text-rendering:auto;enable-background:accumulate"
       d="M 248.33333,322.36133 C 240.94671,322.36133 227,328.308 227,335.69466 l 0,373.33334 c 0,7.38662 13.94671,13.33333 21.33333,13.33333 l 1.36285,0 c -0.49311,-1.39551 -0.80729,-2.87591 -0.80729,-4.44444 l 0,-22.22223 c 0,-7.38662 5.94671,-13.33333 13.33333,-13.33333 l 13.33334,0 c 7.38662,0 13.33333,5.94671 13.33333,13.33333 l 0,22.22223 c 0,1.56853 -0.31418,3.04893 -0.80729,4.44444 l 21.58507,0 0,-45.33333 c 0,-7.38663 5.94671,-13.33334 13.33333,-13.33334 l 135.11111,0 c 7.38662,0 13.33333,5.94671 13.33333,13.33334 l 0,45.33333 22.14063,0 c -0.49311,-1.39551 -0.80729,-2.87591 -0.80729,-4.44444 l 0,-22.22223 c 0,-7.38662 5.94671,-13.33333 13.33333,-13.33333 l 13.33333,0 c 7.38663,0 13.33334,5.94671 13.33334,13.33333 l 0,22.22223 c 0,1.56853 -0.31418,3.04893 -0.80729,4.44444 l 0.80729,0 c 7.38662,0 21.33333,-5.94671 21.33333,-13.33333 l 0,-373.33334 c 0,-7.38666 -13.94671,-13.33333 -21.33333,-13.33333 l 0,22.22222 c 0,7.38667 -5.94671,13.33334 -13.33334,13.33334 l -13.33333,0 c -7.38662,0 -13.33333,-5.94667 -13.33333,-13.33334 l 0,-22.22222 -21.33334,0 0,112 c 0,7.38667 -5.94671,13.33333 -13.33333,13.33333 l -135.11111,0 c -7.38662,0 -13.33333,-5.94666 -13.33333,-13.33333 l 0,-112 -20.77778,0 0,22.22222 c 0,7.38667 -5.94671,13.33334 -13.33333,13.33334 l -13.33334,0 c -7.38662,0 -13.33333,-5.94667 -13.33333,-13.33334 l 0,-22.22222 z m 13.88889,48.88889 13.33334,0 c 7.38662,0 13.33333,5.94671 13.33333,13.33333 l 0,22.22222 c 0,7.38667 -5.94671,13.33334 -13.33333,13.33334 l -13.33334,0 c -7.38662,0 -13.33333,-5.94667 -13.33333,-13.33334 l 0,-22.22222 c 0,-7.38662 5.94671,-13.33333 13.33333,-13.33333 z m 243.88889,0 13.33333,0 c 7.38663,0 13.33334,5.94671 13.33334,13.33333 l 0,22.22222 c 0,7.38667 -5.94671,13.33334 -13.33334,13.33334 l -13.33333,0 c -7.38662,0 -13.33333,-5.94667 -13.33333,-13.33334 l 0,-22.22222 c 0,-7.38662 5.94671,-13.33333 13.33333,-13.33333 z m -243.88889,62.22222 13.33334,0 c 7.38662,0 13.33333,5.94671 13.33333,13.33333 l 0,22.22223 c 0,7.38666 -5.94671,13.33333 -13.33333,13.33333 l -13.33334,0 c -7.38662,0 -13.33333,-5.94667 -13.33333,-13.33333 l 0,-22.22223 c 0,-7.38662 5.94671,-13.33333 13.33333,-13.33333 z m 243.88889,0 13.33333,0 c 7.38663,0 13.33334,5.94671 13.33334,13.33333 l 0,22.22223 c 0,7.38666 -5.94671,13.33333 -13.33334,13.33333 l -13.33333,0 c -7.38662,0 -13.33333,-5.94667 -13.33333,-13.33333 l 0,-22.22223 c 0,-7.38662 5.94671,-13.33333 13.33333,-13.33333 z M 323,477.91689 l 135.11111,0 c 7.38662,0 13.33333,5.94671 13.33333,13.33333 l 0,128.88889 c 0,7.38666 -5.94671,13.33333 -13.33333,13.33333 l -135.11111,0 c -7.38662,0 -13.33333,-5.94667 -13.33333,-13.33333 l 0,-128.88889 c 0,-7.38662 5.94671,-13.33333 13.33333,-13.33333 z m -60.77778,17.77777 13.33334,0 c 7.38662,0 13.33333,5.94671 13.33333,13.33334 l 0,22.22222 c 0,7.38667 -5.94671,13.33333 -13.33333,13.33333 l -13.33334,0 c -7.38662,0 -13.33333,-5.94666 -13.33333,-13.33333 l 0,-22.22222 c 0,-7.38663 5.94671,-13.33334 13.33333,-13.33334 z m 243.88889,0 13.33333,0 c 7.38663,0 13.33334,5.94671 13.33334,13.33334 l 0,22.22222 c 0,7.38667 -5.94671,13.33333 -13.33334,13.33333 l -13.33333,0 c -7.38662,0 -13.33333,-5.94666 -13.33333,-13.33333 l 0,-22.22222 c 0,-7.38663 5.94671,-13.33334 13.33333,-13.33334 z m -243.88889,62.22223 13.33334,0 c 7.38662,0 13.33333,5.94671 13.33333,13.33333 l 0,22.22222 c 0,7.38667 -5.94671,13.33333 -13.33333,13.33333 l -13.33334,0 c -7.38662,0 -13.33333,-5.94666 -13.33333,-13.33333 l 0,-22.22222 c 0,-7.38662 5.94671,-13.33333 13.33333,-13.33333 z m 243.88889,0 13.33333,0 c 7.38663,0 13.33334,5.94671 13.33334,13.33333 l 0,22.22222 c 0,7.38667 -5.94671,13.33333 -13.33334,13.33333 l -13.33333,0 c -7.38662,0 -13.33333,-5.94666 -13.33333,-13.33333 l 0,-22.22222 c 0,-7.38662 5.94671,-13.33333 13.33333,-13.33333 z m -243.88889,62.22222 13.33334,0 c 7.38662,0 13.33333,5.94671 13.33333,13.33333 l 0,22.22222 c 0,7.38667 -5.94671,13.33334 -13.33333,13.33334 l -13.33334,0 c -7.38662,0 -13.33333,-5.94667 -13.33333,-13.33334 l 0,-22.22222 c 0,-7.38662 5.94671,-13.33333 13.33333,-13.33333 z m 243.88889,0 13.33333,0 c 7.38663,0 13.33334,5.94671 13.33334,13.33333 l 0,22.22222 c 0,7.38667 -5.94671,13.33334 -13.33334,13.33334 l -13.33333,0 c -7.38662,0 -13.33333,-5.94667 -13.33333,-13.33334 l 0,-22.22222 c 0,-7.38662 5.94671,-13.33333 13.33333,-13.33333 z"
       id="rect4255"
       inkscape:connector-curvature="0"
       sodipodi:nodetypes="sssscssssssccssssccsssssscssscssssccssssccsssscssssssssssssssssssssssssssssssssssssssssssssssssssssssssssssssssssssssssssssssssssssssssssssssssssss" />
  </g>
</svg>
