<?xml version="1.0" encoding="UTF-8" standalone="no"?>
<!-- Created with Inkscape (http://www.inkscape.org/) -->

<svg
   xmlns:dc="http://purl.org/dc/elements/1.1/"
   xmlns:cc="http://creativecommons.org/ns#"
   xmlns:rdf="http://www.w3.org/1999/02/22-rdf-syntax-ns#"
   xmlns:svg="http://www.w3.org/2000/svg"
   xmlns="http://www.w3.org/2000/svg"
   xmlns:xlink="http://www.w3.org/1999/xlink"
   xmlns:sodipodi="http://sodipodi.sourceforge.net/DTD/sodipodi-0.dtd"
   xmlns:inkscape="http://www.inkscape.org/namespaces/inkscape"
   width="210mm"
   height="297mm"
   viewBox="0 0 744.09448819 1052.3622047"
   id="svg2"
   version="1.1"
   inkscape:version="0.91 r13725"
   inkscape:export-xdpi="7.1999736"
   inkscape:export-ydpi="7.1999736"
   sodipodi:docname="notepad.svg"
   inkscape:export-filename="C:\Users\johannes\Documents\Arbeit\RRZE\github3\bicons\32x32\emblems\notepad.png">
  <defs
     id="defs4">
    <linearGradient
       gradientTransform="translate(133.75366,218.79454)"
       inkscape:collect="always"
       xlink:href="#linearGradient4254"
       id="linearGradient4355"
       x1="309.02789"
       y1="32.125729"
       x2="112.29691"
       y2="393.30978"
       gradientUnits="userSpaceOnUse" />
    <linearGradient
       inkscape:collect="always"
       id="linearGradient4254">
      <stop
         style="stop-color:#7a8597;stop-opacity:1"
         offset="0"
         id="stop4256" />
      <stop
         style="stop-color:#4e505d;stop-opacity:1"
         offset="1"
         id="stop4258" />
    </linearGradient>
  </defs>
  <sodipodi:namedview
     id="base"
     pagecolor="#ffffff"
     bordercolor="#666666"
     borderopacity="1.0"
     inkscape:pageopacity="0.0"
     inkscape:pageshadow="2"
     inkscape:zoom="0.70710678"
     inkscape:cx="433.75431"
     inkscape:cy="500.5346"
     inkscape:document-units="px"
     inkscape:current-layer="layer1"
     showgrid="false"
     showguides="true"
     inkscape:guide-bbox="true"
     inkscape:window-width="1366"
     inkscape:window-height="721"
     inkscape:window-x="-4"
     inkscape:window-y="-4"
     inkscape:window-maximized="1"
     inkscape:snap-bbox="true"
     inkscape:bbox-paths="true"
     inkscape:bbox-nodes="true"
     inkscape:snap-nodes="false">
    <sodipodi:guide
       position="315.53572,730.17859"
       orientation="0,1"
       id="guide3338" />
    <sodipodi:guide
       position="351.25,330.17858"
       orientation="0,1"
       id="guide3340" />
    <sodipodi:guide
       position="189.10714,408.8393"
       orientation="1,0"
       id="guide3344" />
    <sodipodi:guide
       position="589.04521,660.00001"
       orientation="1,0"
       id="guide3346" />
    <inkscape:grid
       type="xygrid"
       id="grid3440" />
    <sodipodi:guide
       position="589.04521,378.30213"
       orientation="1,0"
       id="guide3411" />
  </sodipodi:namedview>
  <metadata
     id="metadata7">
    <rdf:RDF>
      <cc:Work
         rdf:about="">
        <dc:format>image/svg+xml</dc:format>
        <dc:type
           rdf:resource="http://purl.org/dc/dcmitype/StillImage" />
        <dc:title>notepad</dc:title>
        <dc:date>June 2015</dc:date>
        <dc:creator>
          <cc:Agent>
            <dc:title>Johannes Hechler</dc:title>
          </cc:Agent>
        </dc:creator>
        <dc:rights>
          <cc:Agent>
            <dc:title>Johannes Hechler</dc:title>
          </cc:Agent>
        </dc:rights>
        <dc:publisher>
          <cc:Agent>
            <dc:title>RRZE</dc:title>
          </cc:Agent>
        </dc:publisher>
        <dc:contributor>
          <cc:Agent>
            <dc:title>Ute Weber, Hendrik Eggers, Joanna Barbach</dc:title>
          </cc:Agent>
        </dc:contributor>
        <cc:license
           rdf:resource="http://creativecommons.org/licenses/by-sa/3.0/" />
        <dc:subject>
          <rdf:Bag>
            <rdf:li>notepad</rdf:li>
            <rdf:li>notes</rdf:li>
            <rdf:li>pen</rdf:li>
            <rdf:li>writing</rdf:li>
            <rdf:li>student</rdf:li>
          </rdf:Bag>
        </dc:subject>
      </cc:Work>
      <cc:License
         rdf:about="http://creativecommons.org/licenses/by-sa/3.0/">
        <cc:permits
           rdf:resource="http://creativecommons.org/ns#Reproduction" />
        <cc:permits
           rdf:resource="http://creativecommons.org/ns#Distribution" />
        <cc:requires
           rdf:resource="http://creativecommons.org/ns#Notice" />
        <cc:requires
           rdf:resource="http://creativecommons.org/ns#Attribution" />
        <cc:permits
           rdf:resource="http://creativecommons.org/ns#DerivativeWorks" />
        <cc:requires
           rdf:resource="http://creativecommons.org/ns#ShareAlike" />
      </cc:License>
    </rdf:RDF>
  </metadata>
  <g
     inkscape:label="Ebene 1"
     inkscape:groupmode="layer"
     id="layer1">
    <g
       id="g4209"
       transform="translate(55.290078,103.38909)">
      <rect
         inkscape:export-ydpi="7.1999736"
         inkscape:export-xdpi="7.1999736"
         inkscape:export-filename="C:\Users\johannes\Desktop\g4274a.png"
         ry="9.0899897"
         y="218.79453"
         x="133.75366"
         height="400"
         width="400.00146"
         id="rect4212"
         style="color:#000000;clip-rule:nonzero;display:inline;overflow:visible;visibility:visible;opacity:1;isolation:auto;mix-blend-mode:normal;color-interpolation:sRGB;color-interpolation-filters:linearRGB;solid-color:#000000;solid-opacity:1;fill:none;fill-opacity:1;fill-rule:evenodd;stroke:none;stroke-width:36;stroke-linecap:butt;stroke-linejoin:round;stroke-miterlimit:4;stroke-dasharray:none;stroke-dashoffset:0;stroke-opacity:1;color-rendering:auto;image-rendering:auto;shape-rendering:auto;text-rendering:auto;enable-background:accumulate" />
      <path
         id="rect4294"
         d="m 224.65405,218.79454 c -10.07172,0 -18.17968,8.10796 -18.17968,18.17968 l 0,36.35938 c 0,10.07172 8.10796,18.18164 18.17968,18.18164 10.07172,0 18.17969,-8.10992 18.17969,-18.18164 l 0,-36.35938 c 0,-10.07172 -8.10797,-18.17968 -18.17969,-18.17968 z m 109.08008,0 c -10.07172,0 -18.17969,8.10796 -18.17969,18.17968 l 0,36.35938 c 0,10.07172 8.10797,18.18164 18.17969,18.18164 10.07172,0 18.17969,-8.10992 18.17969,-18.18164 l 0,-36.35938 c 0,-10.07172 -8.10797,-18.17968 -18.17969,-18.17968 z m 109.08008,0 c -10.07172,0 -18.17969,8.10797 -18.17969,18.17968 l 0,36.35938 c 0,10.07171 8.10797,18.18164 18.17969,18.18164 10.07171,0 18.17968,-8.10993 18.17968,-18.18164 l 0,-36.35938 c 0,-10.07171 -8.10797,-18.17968 -18.17968,-18.17968 z m -254.52148,36.35937 c -10.07173,0 -18.17969,8.10797 -18.17969,18.17969 l 0,327.28125 c 0,10.07172 8.10796,18.17969 18.17969,18.17969 l 120.05273,0 0,-51.88086 a 18.0018,18.0018 0 0 1 17.3164,-17.9668 18.0018,18.0018 0 0 1 5.23633,-12.04101 L 434.58374,433.22032 a 18.0018,18.0018 0 0 1 12.04492,-5.24219 18.0018,18.0018 0 0 1 5.23633,-12.03906 l 17.27929,-17.28125 a 18.0018,18.0018 0 0 1 11.82032,-5.24805 18.0018,18.0018 0 0 1 1.79883,-0.002 18.0018,18.0018 0 0 1 3.55468,0.53711 c 3.8804,0.98907 7.54786,2.22562 11.03516,3.66016 l 0,-124.27149 c 0,-10.07172 -8.10797,-18.17969 -18.17969,-18.17969 l -0.17969,0 0,18.17969 c 0,19.732 -16.44535,36.18164 -36.17968,36.18164 -19.73433,0 -36.17969,-16.44964 -36.17969,-36.18164 l 0,-18.17969 -36.7207,0 0,18.17969 c 0,19.732 -16.44537,36.18164 -36.17969,36.18164 -19.73433,0 -36.17969,-16.44964 -36.17969,-36.18164 l 0,-18.17969 -36.7207,0 0,18.17969 c 0,19.732 -16.44537,36.18164 -36.17969,36.18164 -19.73432,0 -36.17968,-16.44964 -36.17968,-36.18164 l 0,-18.17969 -0.18164,0 z m 259.01757,216.25001 -78.22852,78.22851 26.38672,26.38672 78.22852,-78.22852 -26.38672,-26.38671 z m 50.04297,53.64257 -89.15625,89.15821 a 18.0018,18.0018 0 0 1 -7.9375,4.58984 l 78.91406,0 c 10.07172,0 18.17969,-8.10797 18.17969,-18.17969 l 0,-75.56836 z"
         style="color:#000000;clip-rule:nonzero;display:inline;overflow:visible;visibility:visible;opacity:1;isolation:auto;mix-blend-mode:normal;color-interpolation:sRGB;color-interpolation-filters:linearRGB;solid-color:#000000;solid-opacity:1;fill:url(#linearGradient4355);fill-opacity:1;fill-rule:evenodd;stroke:none;stroke-width:50;stroke-linecap:butt;stroke-linejoin:round;stroke-miterlimit:4;stroke-dasharray:none;stroke-dashoffset:0;stroke-opacity:1;color-rendering:auto;image-rendering:auto;shape-rendering:auto;text-rendering:auto;enable-background:accumulate"
         inkscape:connector-curvature="0" />
      <rect
         inkscape:export-ydpi="7.1999736"
         inkscape:export-xdpi="7.1999736"
         inkscape:export-filename="C:\Users\johannes\Desktop\g4274a.png"
         ry="9.0900002"
         y="364.23447"
         x="206.47366"
         height="18.18"
         width="218.16"
         id="rect4308"
         style="color:#000000;clip-rule:nonzero;display:inline;overflow:visible;visibility:visible;opacity:1;isolation:auto;mix-blend-mode:normal;color-interpolation:sRGB;color-interpolation-filters:linearRGB;solid-color:#000000;solid-opacity:1;fill:#ffffff;fill-opacity:1;fill-rule:evenodd;stroke:none;stroke-width:36;stroke-linecap:butt;stroke-linejoin:round;stroke-miterlimit:4;stroke-dasharray:none;stroke-dashoffset:0;stroke-opacity:1;color-rendering:auto;image-rendering:auto;shape-rendering:auto;text-rendering:auto;enable-background:accumulate" />
      <rect
         inkscape:export-ydpi="7.1999736"
         inkscape:export-xdpi="7.1999736"
         inkscape:export-filename="C:\Users\johannes\Desktop\g4274a.png"
         ry="9.0899944"
         y="436.95444"
         x="206.47366"
         height="18.179989"
         width="181.8"
         id="rect4310"
         style="color:#000000;clip-rule:nonzero;display:inline;overflow:visible;visibility:visible;opacity:1;isolation:auto;mix-blend-mode:normal;color-interpolation:sRGB;color-interpolation-filters:linearRGB;solid-color:#000000;solid-opacity:1;fill:#ffffff;fill-opacity:1;fill-rule:evenodd;stroke:none;stroke-width:36;stroke-linecap:butt;stroke-linejoin:round;stroke-miterlimit:4;stroke-dasharray:none;stroke-dashoffset:0;stroke-opacity:1;color-rendering:auto;image-rendering:auto;shape-rendering:auto;text-rendering:auto;enable-background:accumulate" />
      <path
         inkscape:export-ydpi="7.1999736"
         inkscape:export-xdpi="7.1999736"
         inkscape:export-filename="C:\Users\johannes\Desktop\g4274a.png"
         sodipodi:nodetypes="sssccccs"
         inkscape:connector-curvature="0"
         id="rect4312"
         d="m 215.56421,509.67345 c -5.03585,0 -9.08984,4.05594 -9.08984,9.09179 0,5.03586 4.05399,9.08985 9.08984,9.08985 l 99.4375,0 c 0.95656,-1.28252 2.00211,-2.50561 3.14453,-3.65235 l 0.0234,-0.0254 14.5039,-14.5039 z"
         style="color:#000000;clip-rule:nonzero;display:inline;overflow:visible;visibility:visible;opacity:1;isolation:auto;mix-blend-mode:normal;color-interpolation:sRGB;color-interpolation-filters:linearRGB;solid-color:#000000;solid-opacity:1;fill:#ffffff;fill-opacity:1;fill-rule:evenodd;stroke:none;stroke-width:36;stroke-linecap:butt;stroke-linejoin:round;stroke-miterlimit:4;stroke-dasharray:none;stroke-dashoffset:0;stroke-opacity:1;color-rendering:auto;image-rendering:auto;shape-rendering:auto;text-rendering:auto;enable-background:accumulate" />
      <g
         inkscape:export-ydpi="7.1999736"
         inkscape:export-xdpi="7.1999736"
         inkscape:export-filename="C:\Users\johannes\Desktop\g4274a.png"
         id="g4314"
         transform="matrix(0.95054402,0,0,0.95054402,153.53612,-381.522)">
        <path
           sodipodi:nodetypes="cccc"
           style="fill:#99b000;fill-rule:evenodd;stroke:none;stroke-width:1px;stroke-linecap:butt;stroke-linejoin:miter;stroke-opacity:1"
           d="m 181.80001,1052.3621 0,-54.58011 54.54,54.58011 z"
           id="path4268"
           inkscape:connector-curvature="0" />
        <path
           style="fill:#99b000;fill-rule:evenodd;stroke:none;stroke-width:1px;stroke-linecap:butt;stroke-linejoin:miter;stroke-opacity:1"
           d="m 199.98001,979.602 54.54,54.54 L 363.59931,925.06202 309.06,870.52204 Z"
           id="path4270"
           inkscape:connector-curvature="0" />
        <path
           sodipodi:nodetypes="ccccc"
           style="fill:#99b000;fill-rule:evenodd;stroke:none;stroke-width:1px;stroke-linecap:butt;stroke-linejoin:miter;stroke-opacity:1"
           d="m 327.24,852.34216 54.53931,54.53988 18.22216,-18.17999 C 389.09426,863.23574 374.40605,841.55027 345.42,834.16208 Z"
           id="path4272"
           inkscape:connector-curvature="0" />
      </g>
    </g>
  </g>
</svg>
