<?xml version="1.0" encoding="UTF-8" standalone="no"?>
<!-- Created with Inkscape (http://www.inkscape.org/) -->

<svg
   xmlns:dc="http://purl.org/dc/elements/1.1/"
   xmlns:cc="http://creativecommons.org/ns#"
   xmlns:rdf="http://www.w3.org/1999/02/22-rdf-syntax-ns#"
   xmlns:svg="http://www.w3.org/2000/svg"
   xmlns="http://www.w3.org/2000/svg"
   xmlns:xlink="http://www.w3.org/1999/xlink"
   xmlns:sodipodi="http://sodipodi.sourceforge.net/DTD/sodipodi-0.dtd"
   xmlns:inkscape="http://www.inkscape.org/namespaces/inkscape"
   width="210mm"
   height="297mm"
   viewBox="0 0 744.09448819 1052.3622047"
   id="svg2"
   version="1.1"
   inkscape:version="0.91 r13725"
   sodipodi:docname="notepad.svg"
   inkscape:export-filename="C:\Users\johannes\Documents\Arbeit\RRZE\bi-con\bi-con\scalable\documents\document.png"
   inkscape:export-xdpi="3.5999999"
   inkscape:export-ydpi="3.5999999">
  <defs
     id="defs4">
    <linearGradient
       inkscape:collect="always"
       id="linearGradient4207">
      <stop
         style="stop-color:#5a6578;stop-opacity:1;"
         offset="0"
         id="stop4209" />
      <stop
         style="stop-color:#9397a2;stop-opacity:1"
         offset="1"
         id="stop4211" />
    </linearGradient>
    <linearGradient
       inkscape:collect="always"
       id="linearGradient4250">
      <stop
         style="stop-color:#abbe24;stop-opacity:1;"
         offset="0"
         id="stop4252" />
      <stop
         style="stop-color:#c1d53a;stop-opacity:1"
         offset="1"
         id="stop4254" />
    </linearGradient>
    <linearGradient
       id="linearGradient2224">
      <stop
         id="stop2226"
         offset="0"
         style="stop-color:#7c7c7c;stop-opacity:1;" />
      <stop
         id="stop2228"
         offset="1"
         style="stop-color:#b8b8b8;stop-opacity:1;" />
    </linearGradient>
    <linearGradient
       id="linearGradient15218">
      <stop
         id="stop15220"
         offset="0"
         style="stop-color:#eeeeef;stop-opacity:1;" />
      <stop
         id="stop2736"
         offset="0.59928656"
         style="stop-color:#d3d7cf;stop-opacity:1;" />
      <stop
         id="stop2738"
         offset="0.82758623"
         style="stop-color:#ffffff;stop-opacity:1;" />
      <stop
         id="stop15222"
         offset="1"
         style="stop-color:#d3d7cf;stop-opacity:1;" />
    </linearGradient>
    <pattern
       y="0"
       x="0"
       height="6"
       width="6"
       patternUnits="userSpaceOnUse"
       id="EMFhbasepattern" />
    <pattern
       y="0"
       x="0"
       height="6"
       width="6"
       patternUnits="userSpaceOnUse"
       id="EMFhbasepattern-5" />
    <linearGradient
       inkscape:collect="always"
       xlink:href="#linearGradient4250"
       id="linearGradient4637"
       x1="93.757843"
       y1="566.36224"
       x2="146.24216"
       y2="566.36224"
       gradientUnits="userSpaceOnUse"
       gradientTransform="matrix(0.74664567,0.43107608,-0.43107608,0.74664567,1173.8037,75.317814)" />
    <pattern
       y="0"
       x="0"
       height="6"
       width="6"
       patternUnits="userSpaceOnUse"
       id="EMFhbasepattern-2" />
    <linearGradient
       inkscape:collect="always"
       xlink:href="#linearGradient4207"
       id="linearGradient4213"
       x1="246.05176"
       y1="677.77759"
       x2="526.05176"
       y2="347.77762"
       gradientUnits="userSpaceOnUse" />
  </defs>
  <sodipodi:namedview
     id="base"
     pagecolor="#ffffff"
     bordercolor="#666666"
     borderopacity="1.0"
     inkscape:pageopacity="0.0"
     inkscape:pageshadow="2"
     inkscape:zoom="1"
     inkscape:cx="563.85899"
     inkscape:cy="584.3182"
     inkscape:document-units="px"
     inkscape:current-layer="layer1"
     showgrid="false"
     showguides="false"
     inkscape:guide-bbox="true"
     inkscape:window-width="1366"
     inkscape:window-height="721"
     inkscape:window-x="-4"
     inkscape:window-y="-4"
     inkscape:window-maximized="1">
    <sodipodi:guide
       position="315.53572,730.17859"
       orientation="0,1"
       id="guide3338" />
    <sodipodi:guide
       position="351.25,330.17858"
       orientation="0,1"
       id="guide3340" />
    <sodipodi:guide
       position="189.10714,408.8393"
       orientation="1,0"
       id="guide3344" />
    <sodipodi:guide
       position="589.04521,660.00001"
       orientation="1,0"
       id="guide3346" />
    <inkscape:grid
       type="xygrid"
       id="grid3440" />
    <sodipodi:guide
       position="490,720.00002"
       orientation="0,1"
       id="guide3405" />
    <sodipodi:guide
       position="197.63634,703.57124"
       orientation="1,0"
       id="guide3407" />
    <sodipodi:guide
       position="581.59532,337.75"
       orientation="0,1"
       id="guide3409" />
    <sodipodi:guide
       position="589.04521,378.30213"
       orientation="1,0"
       id="guide3411" />
    <sodipodi:guide
       position="580.1811,410.12193"
       orientation="1,0"
       id="guide3413" />
  </sodipodi:namedview>
  <metadata
     id="metadata7">
    <rdf:RDF>
      <cc:Work
         rdf:about="">
        <dc:format>image/svg+xml</dc:format>
        <dc:type
           rdf:resource="http://purl.org/dc/dcmitype/StillImage" />
      </cc:Work>
    </rdf:RDF>
  </metadata>
  <g
     inkscape:label="Ebene 1"
     inkscape:groupmode="layer"
     id="layer1">
    <rect
       style="opacity:1;fill:none;fill-opacity:1;stroke:none;stroke-width:16;stroke-linecap:square;stroke-linejoin:round;stroke-miterlimit:4;stroke-dasharray:none;stroke-opacity:1"
       id="rect4259"
       width="399.93808"
       height="400"
       x="189.10713"
       y="322.18362"
       inkscape:export-filename="C:\Users\johannes\Documents\Arbeit\RRZE\bi-con\bi-con\scalable\documents\rect4259.png"
       inkscape:export-xdpi="3.5239439"
       inkscape:export-ydpi="3.5239439" />
    <rect
       style="fill:none;fill-rule:evenodd;stroke:none;stroke-width:1px;stroke-linecap:butt;stroke-linejoin:miter;stroke-opacity:1"
       id="rect3336"
       width="374"
       height="374"
       x="204.14485"
       y="321.27005"
       inkscape:export-xdpi="3.5239439"
       inkscape:export-ydpi="3.5239439"
       inkscape:export-filename="C:\Users\johannes\Documents\Arbeit\RRZE\bi-con\bi-con\scalable\documents\rect4259.png" />
    <g
       id="g4282">
      <g
         id="g4249">
        <g
           id="g4235">
          <path
             inkscape:export-ydpi="3.5239439"
             inkscape:export-xdpi="3.5239439"
             inkscape:export-filename="C:\Users\johannes\Documents\Arbeit\RRZE\bi-con\bi-con\scalable\documents\rect4259.png"
             sodipodi:nodetypes="ccssssssssccccccccccccccccccccccc"
             id="rect4258"
             d="m 266.91895,336.27134 0,21.06055 -10.86719,0 c -11.07999,0 -20,12.92 -20,24 l 0,280 c 0,11.08 8.92001,20 20,20 l 250,0 c 11.08,0 20,-8.92 20,-20 l 0,-280 c 0,-11.08 -9.06442,-22.21687 -20,-24 l -10.2656,0 0,-20.06445 c -6.0856,-4.86316 -16.2608,-5.90632 -22.6699,0 l 0,20.06445 -16.8418,0 0,-20.32813 c -6.0857,-4.86316 -16.2588,-5.90632 -22.668,0 l 0,20.32813 -18.84962,0 0,-20.32813 c -6.08563,-4.86315 -16.26074,-5.90632 -22.66992,0 l 0,20.32813 -20.08789,0 0,-20.4043 c -6.08564,-4.86316 -16.26076,-5.90632 -22.66993,0 l 0,20.4043 -18.84961,0 0,-21.06055 c -6.08564,-4.86315 -16.26075,-5.90631 -22.66992,0 l 0,21.06055 -18.2207,0 0,-21.06055 c -6.41948,-5.16663 -16.78032,-5.08398 -22.66992,0 z"
             style="opacity:1;fill:url(#linearGradient4213);fill-opacity:1;stroke:none;stroke-width:18.16399956;stroke-linecap:square;stroke-linejoin:round;stroke-miterlimit:4;stroke-dasharray:none;stroke-opacity:1"
             inkscape:connector-curvature="0" />
          <rect
             inkscape:export-ydpi="3.5239439"
             inkscape:export-xdpi="3.5239439"
             inkscape:export-filename="C:\Users\johannes\Documents\Arbeit\RRZE\bi-con\bi-con\scalable\documents\rect4259.png"
             ry="11.49999"
             y="392.33276"
             x="261.05179"
             height="23"
             width="240"
             id="rect4386"
             style="opacity:1;fill:#ffffff;fill-opacity:1;stroke:none;stroke-width:18.16399956;stroke-linecap:square;stroke-linejoin:round;stroke-miterlimit:4;stroke-dasharray:none;stroke-opacity:1" />
          <rect
             inkscape:export-ydpi="3.5239439"
             inkscape:export-xdpi="3.5239439"
             inkscape:export-filename="C:\Users\johannes\Documents\Arbeit\RRZE\bi-con\bi-con\scalable\documents\rect4259.png"
             ry="11.49999"
             y="438.98782"
             x="260.54568"
             height="23"
             width="188.73476"
             id="rect4386-7"
             style="opacity:1;fill:#ffffff;fill-opacity:1;stroke:none;stroke-width:18.16399956;stroke-linecap:square;stroke-linejoin:round;stroke-miterlimit:4;stroke-dasharray:none;stroke-opacity:1" />
          <rect
             inkscape:export-ydpi="3.5239439"
             inkscape:export-xdpi="3.5239439"
             inkscape:export-filename="C:\Users\johannes\Documents\Arbeit\RRZE\bi-con\bi-con\scalable\documents\rect4259.png"
             ry="11.49999"
             y="484.88733"
             x="260.94772"
             height="23"
             width="222.32233"
             id="rect4386-7-9"
             style="opacity:1;fill:#ffffff;fill-opacity:1;stroke:none;stroke-width:18.16399956;stroke-linecap:square;stroke-linejoin:round;stroke-miterlimit:4;stroke-dasharray:none;stroke-opacity:1" />
        </g>
        <g
           id="g4230">
          <path
             sodipodi:nodetypes="ssccsscccccccczccccccc"
             inkscape:connector-curvature="0"
             id="path4234-6-1-3-3"
             d="m 539.97941,380.75352 c -13.95449,-8.33837 -33.79043,-12.28872 -40.78142,-9.112 -6.99099,3.17675 -23.93291,32.67517 -23.93291,32.67517 33.50403,4.03885 52.19145,15.37649 73.11313,42.38389 6.68454,-14.86341 15.47567,-30.91574 15.24552,-37.7779 -0.23017,-6.86215 -9.68985,-19.83077 -23.64432,-28.16916 z m -72.44036,36.80968 -116.90092,202.63112 0.10822,0.2365 -5.46136,93.93636 78.74169,-51.77656 c -0.0882,-0.017 -0.17753,-0.0377 -0.26634,-0.0539 l 0.23009,0.008 116.89991,-202.63384 c -12.91528,-13.88353 -21.06051,-21.82404 -34.3623,-29.65 -13.3018,-7.82596 -32.02391,-11.47184 -38.98897,-12.69705 z m -57.4472,240.9865 -29.37756,18.6674 c -0.20529,0.35564 -16.05074,-2.2533 -21.68163,-13.08268 l 1.99353,-33.66443 c 6.68277,13.20481 37.10505,30.6966 49.06566,28.07971 z"
             style="fill:#ffffff;fill-rule:evenodd;stroke:#ffffff;stroke-width:23;stroke-linecap:butt;stroke-linejoin:round;stroke-miterlimit:4;stroke-dasharray:none;stroke-opacity:1" />
          <path
             sodipodi:nodetypes="ssccsscccccccczccccccc"
             inkscape:connector-curvature="0"
             id="path4234-6-1-3"
             d="m 540.61261,381.22295 c -13.95448,-8.33837 -33.79042,-12.28872 -40.78141,-9.11199 -6.99099,3.17675 -23.93291,32.67516 -23.93291,32.67516 33.50403,4.03885 52.19145,15.37649 73.11313,42.38389 6.68454,-14.86341 15.47567,-30.91574 15.24552,-37.7779 -0.23017,-6.86215 -9.68986,-19.83077 -23.64433,-28.16916 z m -72.44035,36.80968 -116.90092,202.63113 0.10822,0.23649 -5.46136,93.93636 78.74169,-51.77656 c -0.0882,-0.017 -0.17753,-0.0377 -0.26634,-0.0539 l 0.23009,0.008 116.89991,-202.63384 c -12.91529,-13.88353 -21.06051,-21.82404 -34.36231,-29.65 -13.30179,-7.82596 -32.0239,-11.47184 -38.98897,-12.69705 z m -57.4472,240.9865 -29.37756,18.6674 c -0.2053,0.35564 -16.05074,-2.2533 -21.68164,-13.08268 l 1.99354,-33.66443 c 6.68277,13.20482 37.10505,30.6966 49.06566,28.07971 z"
             style="fill:#abbe24;fill-rule:evenodd;stroke:none;stroke-width:1px;stroke-linecap:butt;stroke-linejoin:miter;stroke-opacity:1" />
          <path
             inkscape:connector-curvature="0"
             id="path4228"
             d="m 366,650.8622 0,13 11,7 15.5,-8.5 z"
             style="fill:#ffffff;fill-rule:evenodd;stroke:none;stroke-width:1px;stroke-linecap:butt;stroke-linejoin:miter;stroke-opacity:1" />
        </g>
      </g>
    </g>
  </g>
</svg>
