<?xml version="1.0" encoding="UTF-8" standalone="no"?>
<!-- Created with Inkscape (http://www.inkscape.org/) -->

<svg
   xmlns:dc="http://purl.org/dc/elements/1.1/"
   xmlns:cc="http://creativecommons.org/ns#"
   xmlns:rdf="http://www.w3.org/1999/02/22-rdf-syntax-ns#"
   xmlns:svg="http://www.w3.org/2000/svg"
   xmlns="http://www.w3.org/2000/svg"
   xmlns:sodipodi="http://sodipodi.sourceforge.net/DTD/sodipodi-0.dtd"
   xmlns:inkscape="http://www.inkscape.org/namespaces/inkscape"
   width="210mm"
   height="297mm"
   viewBox="0 0 744.09448819 1052.3622047"
   id="svg2"
   version="1.1"
   inkscape:version="0.91 r13725"
   inkscape:export-xdpi="7.1999745"
   inkscape:export-ydpi="7.1999745"
   sodipodi:docname="organizational-unit.svg"
   inkscape:export-filename="C:\Users\johannes\Documents\Arbeit\RRZE\github3\bicons\32x32\emblems\organizational-unit.png">
  <defs
     id="defs4" />
  <sodipodi:namedview
     id="base"
     pagecolor="#ffffff"
     bordercolor="#666666"
     borderopacity="1.0"
     inkscape:pageopacity="0.0"
     inkscape:pageshadow="2"
     inkscape:zoom="1"
     inkscape:cx="340.9582"
     inkscape:cy="525.32951"
     inkscape:document-units="px"
     inkscape:current-layer="layer1"
     showgrid="false"
     showguides="true"
     inkscape:guide-bbox="true"
     inkscape:window-width="1366"
     inkscape:window-height="721"
     inkscape:window-x="-4"
     inkscape:window-y="-4"
     inkscape:window-maximized="1"
     inkscape:snap-bbox="true"
     inkscape:bbox-paths="true"
     inkscape:bbox-nodes="true"
     inkscape:snap-nodes="true"
     inkscape:snap-global="true"
     inkscape:object-paths="true"
     inkscape:snap-intersection-paths="true"
     inkscape:object-nodes="true">
    <sodipodi:guide
       position="560,730.00002"
       orientation="0,1"
       id="guide3338" />
    <sodipodi:guide
       position="560,330.00001"
       orientation="0,1"
       id="guide3340" />
    <sodipodi:guide
       position="190,475.00001"
       orientation="1,0"
       id="guide3344" />
    <sodipodi:guide
       position="590,451.00001"
       orientation="1,0"
       id="guide3346" />
    <inkscape:grid
       type="xygrid"
       id="grid3440" />
    <sodipodi:guide
       position="-111.01577,704.98548"
       orientation="0,1"
       id="guide4151" />
    <sodipodi:guide
       position="54.25,355.00001"
       orientation="0,1"
       id="guide4153" />
    <sodipodi:guide
       position="215,442.00001"
       orientation="1,0"
       id="guide4155" />
    <sodipodi:guide
       position="564.97832,467.39759"
       orientation="1,0"
       id="guide4157" />
    <sodipodi:guide
       position="355.5142,675.32321"
       orientation="0,1"
       id="guide4175" />
  </sodipodi:namedview>
  <metadata
     id="metadata7">
    <rdf:RDF>
      <cc:Work
         rdf:about="">
        <dc:format>image/svg+xml</dc:format>
        <dc:type
           rdf:resource="http://purl.org/dc/dcmitype/StillImage" />
        <dc:title>organizational unit</dc:title>
        <dc:date>June 2015</dc:date>
        <dc:creator>
          <cc:Agent>
            <dc:title>Johannes Hechler</dc:title>
          </cc:Agent>
        </dc:creator>
        <dc:rights>
          <cc:Agent>
            <dc:title>Johannes Hechler</dc:title>
          </cc:Agent>
        </dc:rights>
        <dc:publisher>
          <cc:Agent>
            <dc:title>RRZE</dc:title>
          </cc:Agent>
        </dc:publisher>
        <dc:contributor>
          <cc:Agent>
            <dc:title>Ute Weber, Hendrik Eggers, Joanna Barbach</dc:title>
          </cc:Agent>
        </dc:contributor>
        <dc:subject>
          <rdf:Bag>
            <rdf:li>organisation</rdf:li>
            <rdf:li>unit</rdf:li>
            <rdf:li>organisational structure</rdf:li>
            <rdf:li>directory</rdf:li>
            <rdf:li>object</rdf:li>
            <rdf:li>entry</rdf:li>
            <rdf:li>sub tree</rdf:li>
          </rdf:Bag>
        </dc:subject>
        <cc:license
           rdf:resource="http://creativecommons.org/licenses/by-sa/3.0/" />
      </cc:Work>
      <cc:License
         rdf:about="http://creativecommons.org/licenses/by-sa/3.0/">
        <cc:permits
           rdf:resource="http://creativecommons.org/ns#Reproduction" />
        <cc:permits
           rdf:resource="http://creativecommons.org/ns#Distribution" />
        <cc:requires
           rdf:resource="http://creativecommons.org/ns#Notice" />
        <cc:requires
           rdf:resource="http://creativecommons.org/ns#Attribution" />
        <cc:permits
           rdf:resource="http://creativecommons.org/ns#DerivativeWorks" />
        <cc:requires
           rdf:resource="http://creativecommons.org/ns#ShareAlike" />
      </cc:License>
    </rdf:RDF>
  </metadata>
  <g
     inkscape:label="Ebene 1"
     inkscape:groupmode="layer"
     id="layer1">
    <g
       id="g4182">
      <path
         sodipodi:nodetypes="sscsscssscsssscssscsscssccsssc"
         id="rect4190"
         d="m 452.2909,504.6163 c -14.38639,0 -25.96777,11.58326 -25.96777,25.96964 l 0,25.96777 -34.62372,0 c -9.59091,0 -17.31186,7.72092 -17.31186,17.31185 l 0,17.48295 8.69502,0 c 23.58699,0 43.10851,19.52487 43.10851,43.11038 0,23.58553 -19.52294,43.10852 -43.10851,43.10852 l -8.69502,0 0,17.48295 c 0,9.5909 7.72095,17.31184 17.31186,17.31184 l 121.18482,0 c 9.59093,0 17.31185,-7.72094 17.31185,-17.31184 l 0,-34.62369 25.83758,0 c 14.38639,0 25.96777,-11.58138 25.96777,-25.96778 0,-14.38639 -11.58138,-25.96964 -25.96777,-25.96964 l -25.83758,0 0,-34.62369 c 0,-9.59093 -7.72092,-17.31185 -17.31185,-17.31185 l -34.62369,0 0,-25.96777 c 0,-14.38638 -11.58324,-25.96964 -25.96964,-25.96964 z m -77.90335,121.0137 0,17.65593 8.69502,0 c 5.18727,0 8.82701,-3.63977 8.82701,-8.82704 0,-5.18726 -3.64117,-8.82889 -8.82701,-8.82889 z"
         style="color:#000000;clip-rule:nonzero;display:inline;overflow:visible;visibility:visible;opacity:1;isolation:auto;mix-blend-mode:normal;color-interpolation:sRGB;color-interpolation-filters:linearRGB;solid-color:#000000;solid-opacity:1;fill:#4e505d;fill-opacity:1;fill-rule:evenodd;stroke:none;stroke-width:36;stroke-linecap:butt;stroke-linejoin:round;stroke-miterlimit:4;stroke-dasharray:none;stroke-dashoffset:0;stroke-opacity:1;color-rendering:auto;image-rendering:auto;shape-rendering:auto;text-rendering:auto;enable-background:accumulate"
         inkscape:connector-curvature="0" />
      <path
         inkscape:connector-curvature="0"
         id="path4173"
         d="m 451.61758,331.58628 c -14.38639,0 -25.96777,11.58324 -25.96777,25.96962 l 0,25.96777 -34.6237,0 c -9.59091,0 -17.31184,7.72093 -17.31184,17.31185 l 0,17.48296 8.69498,0 c 23.58699,0 43.10851,19.52486 43.10851,43.11037 0,23.58553 -19.52295,43.10851 -43.10851,43.10851 l -8.69498,0 0,17.48296 c 0,9.5909 7.72093,17.31184 17.31184,17.31184 l 18.15624,0 0,-8.74705 c 0,-23.58552 19.5215,-43.11037 43.10851,-43.11037 23.587,0 43.11037,19.52337 43.11037,43.11037 l 0,8.74705 16.80968,0 c 9.59092,0 17.31185,-7.72094 17.31185,-17.31184 l 0,-34.6237 25.83757,0 c 14.3864,0 25.96777,-11.58137 25.96777,-25.96777 0,-14.38639 -11.58137,-25.96964 -25.96777,-25.96964 l -25.83757,0 0,-34.62369 c 0,-9.59092 -7.72093,-17.31185 -17.31185,-17.31185 l -34.6237,0 0,-25.96777 c 0,-14.38638 -11.58324,-25.96962 -25.96963,-25.96962 z m -77.90331,121.01367 0,17.65593 8.69498,0 c 5.18726,0 8.82703,-3.63976 8.82703,-8.82703 0,-5.18725 -3.6412,-8.8289 -8.82703,-8.8289 l -8.69498,0 z m 78.57659,69.15626 c -5.18578,0 -8.82704,3.64165 -8.82704,8.8289 l 0,8.74705 17.65594,0 0,-8.74705 c 0,-5.18577 -3.64313,-8.8289 -8.8289,-8.8289 z"
         style="color:#000000;clip-rule:nonzero;display:inline;overflow:visible;visibility:visible;opacity:1;isolation:auto;mix-blend-mode:normal;color-interpolation:sRGB;color-interpolation-filters:linearRGB;solid-color:#000000;solid-opacity:1;fill:#4e505d;fill-opacity:1;fill-rule:evenodd;stroke:none;stroke-width:36;stroke-linecap:butt;stroke-linejoin:round;stroke-miterlimit:4;stroke-dasharray:none;stroke-dashoffset:0;stroke-opacity:1;color-rendering:auto;image-rendering:auto;shape-rendering:auto;text-rendering:auto;enable-background:accumulate" />
      <path
         id="rect4184"
         d="m 278.02852,331.45693 c -14.38642,0 -25.96775,11.58139 -25.96775,25.96778 l 0,26.00682 -34.62562,0 c -9.59091,0 -17.31177,7.72278 -17.31177,17.31371 l 0,121.18479 c 0,9.59094 7.72086,17.31185 17.31177,17.31185 l 17.48489,0 0,-8.65592 c 0,-23.58552 19.52149,-43.11038 43.10848,-43.11038 23.58698,0 43.10848,19.52486 43.10848,43.11038 l 0,8.65592 17.48298,0 c 9.59091,0 17.31376,-7.72091 17.31376,-17.31185 l 0,-34.62555 26.00679,0 c 14.38641,0 25.96774,-11.58139 25.96774,-25.96778 0,-14.38638 -11.58133,-25.96777 -25.96774,-25.96777 l -26.00679,0 0,-34.62369 c 0,-9.59093 -7.72285,-17.31371 -17.31376,-17.31371 l -34.62372,0 0,-26.00682 c 0,-14.38639 -11.58133,-25.96778 -25.96774,-25.96778 z m 0,190.30013 c -5.18574,0 -8.82701,3.64165 -8.82701,8.8289 l 0,8.65592 17.65401,0 0,-8.65592 c 0,-5.18725 -3.64126,-8.8289 -8.827,-8.8289 z"
         style="color:#000000;clip-rule:nonzero;display:inline;overflow:visible;visibility:visible;opacity:1;isolation:auto;mix-blend-mode:normal;color-interpolation:sRGB;color-interpolation-filters:linearRGB;solid-color:#000000;solid-opacity:1;fill:#99b000;fill-opacity:1;fill-rule:evenodd;stroke:none;stroke-width:36;stroke-linecap:butt;stroke-linejoin:round;stroke-miterlimit:4;stroke-dasharray:none;stroke-dashoffset:0;stroke-opacity:1;color-rendering:auto;image-rendering:auto;shape-rendering:auto;text-rendering:auto;enable-background:accumulate"
         inkscape:connector-curvature="0" />
      <path
         sodipodi:nodetypes="sscsssssscssscsscss"
         inkscape:connector-curvature="0"
         id="rect4188"
         d="m 276.90523,504.61634 c -14.38642,0 -25.96784,11.58325 -25.96784,25.96963 l 0,25.96778 -34.62553,0 c -9.59091,0 -17.31186,7.72091 -17.31186,17.31184 l 0,121.18486 c 0,9.5909 7.72095,17.31175 17.31186,17.31175 l 121.18483,0 c 9.59091,0 17.31367,-7.72085 17.31367,-17.31175 l 0,-34.62375 26.00688,0 c 14.38641,0 25.96774,-11.58139 25.96774,-25.96778 0,-14.3864 -11.58133,-25.96963 -25.96774,-25.96963 l -26.00688,0 0,-34.6237 c 0,-9.59093 -7.72276,-17.31184 -17.31367,-17.31184 l -34.62372,0 0,-25.96778 c 0,-14.38638 -11.58133,-25.96963 -25.96774,-25.96963 z"
         style="color:#000000;clip-rule:nonzero;display:inline;overflow:visible;visibility:visible;opacity:1;isolation:auto;mix-blend-mode:normal;color-interpolation:sRGB;color-interpolation-filters:linearRGB;solid-color:#000000;solid-opacity:1;fill:#4e505d;fill-opacity:1;fill-rule:evenodd;stroke:none;stroke-width:36;stroke-linecap:butt;stroke-linejoin:round;stroke-miterlimit:4;stroke-dasharray:none;stroke-dashoffset:0;stroke-opacity:1;color-rendering:auto;image-rendering:auto;shape-rendering:auto;text-rendering:auto;enable-background:accumulate" />
      <path
         id="rect4268"
         d="m 217.27,322.3622 345.46143,0 c 15.10758,0 27.27,12.16242 27.27,27.27 l 0,345.45998 c 0,15.10761 -12.16242,27.27 -27.27,27.27 l -345.46143,0 c -15.1076,0 -27.27,-12.16239 -27.27,-27.27 l 0,-345.45998 c 0,-15.10758 12.1624,-27.27 27.27,-27.27 z"
         style="color:#000000;clip-rule:nonzero;display:inline;overflow:visible;visibility:visible;opacity:1;isolation:auto;mix-blend-mode:normal;color-interpolation:sRGB;color-interpolation-filters:linearRGB;solid-color:#000000;solid-opacity:1;fill:none;fill-opacity:1;fill-rule:evenodd;stroke:none;stroke-width:36;stroke-linecap:butt;stroke-linejoin:round;stroke-miterlimit:4;stroke-dasharray:none;stroke-dashoffset:0;stroke-opacity:1;color-rendering:auto;image-rendering:auto;shape-rendering:auto;text-rendering:auto;enable-background:accumulate"
         inkscape:connector-curvature="0" />
    </g>
  </g>
</svg>
