<?xml version="1.0" encoding="UTF-8" standalone="no"?>
<!-- Created with Inkscape (http://www.inkscape.org/) -->

<svg
   xmlns:dc="http://purl.org/dc/elements/1.1/"
   xmlns:cc="http://creativecommons.org/ns#"
   xmlns:rdf="http://www.w3.org/1999/02/22-rdf-syntax-ns#"
   xmlns:svg="http://www.w3.org/2000/svg"
   xmlns="http://www.w3.org/2000/svg"
   xmlns:xlink="http://www.w3.org/1999/xlink"
   xmlns:sodipodi="http://sodipodi.sourceforge.net/DTD/sodipodi-0.dtd"
   xmlns:inkscape="http://www.inkscape.org/namespaces/inkscape"
   width="210mm"
   height="297mm"
   viewBox="0 0 744.09448819 1052.3622047"
   id="svg2"
   version="1.1"
   inkscape:version="0.91 r13725"
   inkscape:export-xdpi="4"
   inkscape:export-ydpi="4"
   sodipodi:docname="organizational-unit-tree.svg">
  <title
     id="title4155">organizational unit tree</title>
  <defs
     id="defs4">
    <linearGradient
       inkscape:collect="always"
       id="linearGradient4243">
      <stop
         style="stop-color:#4e505d;stop-opacity:1;"
         offset="0"
         id="stop4245" />
      <stop
         style="stop-color:#7a8597;stop-opacity:1"
         offset="1"
         id="stop4247" />
    </linearGradient>
    <linearGradient
       inkscape:collect="always"
       xlink:href="#linearGradient4243"
       id="linearGradient4249"
       x1="258.80109"
       y1="681.83826"
       x2="513.3595"
       y2="389.09604"
       gradientUnits="userSpaceOnUse" />
  </defs>
  <sodipodi:namedview
     id="base"
     pagecolor="#ffffff"
     bordercolor="#666666"
     borderopacity="1.0"
     inkscape:pageopacity="0.0"
     inkscape:pageshadow="2"
     inkscape:zoom="0.70710678"
     inkscape:cx="-176.77097"
     inkscape:cy="530.46122"
     inkscape:document-units="px"
     inkscape:current-layer="layer1"
     showgrid="false"
     showguides="true"
     inkscape:guide-bbox="true"
     inkscape:window-width="1280"
     inkscape:window-height="962"
     inkscape:window-x="-8"
     inkscape:window-y="-8"
     inkscape:window-maximized="1">
    <sodipodi:guide
       position="560,730.00002"
       orientation="0,1"
       id="guide3338" />
    <sodipodi:guide
       position="560,330.00001"
       orientation="0,1"
       id="guide3340" />
    <sodipodi:guide
       position="190,475.00001"
       orientation="1,0"
       id="guide3344" />
    <sodipodi:guide
       position="590,451.00001"
       orientation="1,0"
       id="guide3346" />
    <inkscape:grid
       type="xygrid"
       id="grid3440" />
  </sodipodi:namedview>
  <metadata
     id="metadata7">
    <rdf:RDF>
      <cc:Work
         rdf:about="">
        <dc:format>image/svg+xml</dc:format>
        <dc:type
           rdf:resource="http://purl.org/dc/dcmitype/StillImage" />
        <dc:title>organizational unit tree</dc:title>
        <dc:date>June 2015</dc:date>
        <dc:creator>
          <cc:Agent>
            <dc:title>Johannes Hechler</dc:title>
          </cc:Agent>
        </dc:creator>
        <dc:rights>
          <cc:Agent>
            <dc:title>Johannes Hechler</dc:title>
          </cc:Agent>
        </dc:rights>
        <dc:publisher>
          <cc:Agent>
            <dc:title>RRZE</dc:title>
          </cc:Agent>
        </dc:publisher>
        <dc:contributor>
          <cc:Agent>
            <dc:title>Ute Weber, Hendrik Eggers</dc:title>
          </cc:Agent>
        </dc:contributor>
        <cc:license
           rdf:resource="http://creativecommons.org/licenses/by-sa/3.0/" />
        <dc:subject>
          <rdf:Bag>
            <rdf:li>directory</rdf:li>
            <rdf:li>tree</rdf:li>
            <rdf:li>organisation</rdf:li>
            <rdf:li>organisational</rdf:li>
            <rdf:li>LDAP</rdf:li>
            <rdf:li>hierarchy</rdf:li>
          </rdf:Bag>
        </dc:subject>
      </cc:Work>
      <cc:License
         rdf:about="http://creativecommons.org/licenses/by-sa/3.0/">
        <cc:permits
           rdf:resource="http://creativecommons.org/ns#Reproduction" />
        <cc:permits
           rdf:resource="http://creativecommons.org/ns#Distribution" />
        <cc:requires
           rdf:resource="http://creativecommons.org/ns#Notice" />
        <cc:requires
           rdf:resource="http://creativecommons.org/ns#Attribution" />
        <cc:permits
           rdf:resource="http://creativecommons.org/ns#DerivativeWorks" />
        <cc:requires
           rdf:resource="http://creativecommons.org/ns#ShareAlike" />
      </cc:License>
    </rdf:RDF>
  </metadata>
  <g
     inkscape:label="Ebene 1"
     inkscape:groupmode="layer"
     id="layer1">
    <rect
       style="opacity:1;fill:none;fill-opacity:1;stroke:none;stroke-width:23;stroke-linecap:butt;stroke-linejoin:round;stroke-miterlimit:4;stroke-dasharray:none;stroke-opacity:1"
       id="rect4160"
       width="400"
       height="400"
       x="190"
       y="322.36221" />
    <path
       style="color:#252525;clip-rule:nonzero;display:inline;overflow:visible;visibility:visible;opacity:1;isolation:auto;mix-blend-mode:normal;color-interpolation:sRGB;color-interpolation-filters:linearRGB;solid-color:#252525;solid-opacity:1;fill:url(#linearGradient4249);fill-opacity:1;fill-rule:nonzero;stroke:none;stroke-width:23;stroke-linecap:butt;stroke-linejoin:round;stroke-miterlimit:4;stroke-dasharray:none;stroke-dashoffset:0;stroke-opacity:1;color-rendering:auto;image-rendering:auto;shape-rendering:auto;text-rendering:auto;enable-background:accumulate"
       d="m 330.91016,374.04883 c -3.57073,0 -6.44336,2.87459 -6.44336,6.44531 l 0,99.45313 c 0,3.57072 2.87263,6.44531 6.44336,6.44531 l 48.95117,0 0,-0.0195 16.42187,0 0,0.0195 48.12305,0 c 3.57072,0 6.44531,-2.87459 6.44531,-6.44531 l 0,-99.45313 c 0,-3.57072 -2.87459,-6.44531 -6.44531,-6.44531 z m 51.99218,120.99023 0,53.94141 -126.43359,0 c -2.69299,0 -4.86133,2.16833 -4.86133,4.86133 l 0,35.51562 9.72266,0 0,-30.6543 121.52539,0 0,30.91407 9.72265,0 0,-30.91407 121.52344,0 0,30.53711 9.72266,0 0,-35.77148 c 0,-2.48583 -2.00242,-4.48828 -4.48828,-4.48828 l -0.37305,0 -126.33789,0 0,-53.94141 z M 217.20703,597.58984 c -2.48586,0 -4.48828,2.00242 -4.48828,4.48828 l 0,68.80274 c 0,2.48584 2.00242,4.48828 4.48828,4.48828 l 78.52344,0 c 2.48585,0 4.48633,-2.00244 4.48633,-4.48828 l 0,-68.80274 c 0,-2.48586 -2.00048,-4.48828 -4.48633,-4.48828 l -26.7168,0 0,0.0547 -20.23633,0 0,-0.0547 z m 131.00195,0.19727 c -2.48586,0 -4.48632,2.00049 -4.48632,4.48633 l 0,68.80273 c 0,2.48586 2.00046,4.48633 4.48632,4.48633 l 78.52344,0 c 2.48585,0 4.48828,-2.00047 4.48828,-4.48633 l 0,-68.80273 c 0,-2.48584 -2.00243,-4.48633 -4.48828,-4.48633 l -28.41211,0 0,0.11914 -20.23828,0 0,-0.11914 z"
       id="rect4149"
       inkscape:connector-curvature="0"
       sodipodi:nodetypes="ssssccccsssssccssccccccccccssccccssssssssccccsssssssssccccs" />
    <path
       id="path4251"
       d="m 480.29477,598.47837 c -2.48585,0 -4.48828,2.00245 -4.48828,4.48828 l 0,68.80078 c 0,2.48583 2.00243,4.48633 4.48828,4.48633 l 78.52344,0 c 2.48585,0 4.48633,-2.0005 4.48633,-4.48633 l 0,-68.80078 c 0,-2.48583 -2.00048,-4.48828 -4.48633,-4.48828 l -27.99219,0 0,0.13672 -20.23828,0 0,-0.13672 z"
       style="color:#252525;clip-rule:nonzero;display:inline;overflow:visible;visibility:visible;opacity:1;isolation:auto;mix-blend-mode:normal;color-interpolation:sRGB;color-interpolation-filters:linearRGB;solid-color:#252525;solid-opacity:1;fill:#99b000;fill-opacity:1;fill-rule:nonzero;stroke:none;stroke-width:23;stroke-linecap:butt;stroke-linejoin:round;stroke-miterlimit:4;stroke-dasharray:none;stroke-dashoffset:0;stroke-opacity:1;color-rendering:auto;image-rendering:auto;shape-rendering:auto;text-rendering:auto;enable-background:accumulate"
       inkscape:connector-curvature="0"
       sodipodi:nodetypes="ssssssssccccs" />
  </g>
</svg>
