<?xml version="1.0" encoding="UTF-8" standalone="no"?>
<!-- Created with Inkscape (http://www.inkscape.org/) -->
<svg xmlns:dc="http://purl.org/dc/elements/1.1/" xmlns:cc="http://creativecommons.org/ns#" xmlns:rdf="http://www.w3.org/1999/02/22-rdf-syntax-ns#" xmlns:svg="http://www.w3.org/2000/svg" xmlns="http://www.w3.org/2000/svg" xmlns:sodipodi="http://sodipodi.sourceforge.net/DTD/sodipodi-0.dtd" xmlns:inkscape="http://www.inkscape.org/namespaces/inkscape" width="210mm" height="297mm" viewBox="0 0 744.09448819 1052.3622047" id="svg2" version="1.1" inkscape:version="0.91 r13725" inkscape:export-xdpi="4" inkscape:export-ydpi="4">
  <defs id="defs4">
    <linearGradient id="linearGradient2224">
      <stop id="stop2226" offset="0" style="stop-color:#7c7c7c;stop-opacity:1;"/>
      <stop id="stop2228" offset="1" style="stop-color:#b8b8b8;stop-opacity:1;"/>
    </linearGradient>
    <linearGradient id="linearGradient15218">
      <stop id="stop15220" offset="0" style="stop-color:#eeeeef;stop-opacity:1;"/>
      <stop id="stop2736" offset="0.59928656" style="stop-color:#d3d7cf;stop-opacity:1;"/>
      <stop id="stop2738" offset="0.82758623" style="stop-color:#ffffff;stop-opacity:1;"/>
      <stop id="stop15222" offset="1" style="stop-color:#d3d7cf;stop-opacity:1;"/>
    </linearGradient>
    <pattern y="0" x="0" height="6" width="6" patternUnits="userSpaceOnUse" id="EMFhbasepattern"/>
    <pattern y="0" x="0" height="6" width="6" patternUnits="userSpaceOnUse" id="EMFhbasepattern-5"/>
  </defs>
  <sodipodi:namedview id="base" pagecolor="#ffffff" bordercolor="#666666" borderopacity="1.0" inkscape:pageopacity="0.0" inkscape:pageshadow="2" inkscape:zoom="0.1767767" inkscape:cx="-402.30816" inkscape:cy="555.89787" inkscape:document-units="px" inkscape:current-layer="layer1" showgrid="false" showguides="true" inkscape:guide-bbox="true" inkscape:window-width="1366" inkscape:window-height="721" inkscape:window-x="-4" inkscape:window-y="-4" inkscape:window-maximized="1">
    <sodipodi:guide position="560,730.00002" orientation="0,1" id="guide3338"/>
    <sodipodi:guide position="560,330.00001" orientation="0,1" id="guide3340"/>
    <sodipodi:guide position="190,475.00001" orientation="1,0" id="guide3344"/>
    <sodipodi:guide position="590,451.00001" orientation="1,0" id="guide3346"/>
    <inkscape:grid type="xygrid" id="grid3440"/>
    <sodipodi:guide position="-111.01577,704.98548" orientation="0,1" id="guide4151"/>
    <sodipodi:guide position="54.25,355.00001" orientation="0,1" id="guide4153"/>
    <sodipodi:guide position="215,442.00001" orientation="1,0" id="guide4155"/>
    <sodipodi:guide position="564.97832,467.39759" orientation="1,0" id="guide4157"/>
  </sodipodi:namedview>
  <metadata id="metadata7">
    <rdf:RDF>
      <cc:Work rdf:about="">
        <dc:format>image/svg+xml</dc:format>
        <dc:type rdf:resource="http://purl.org/dc/dcmitype/StillImage"/>
        <dc:title>organizational unit</dc:title>
        <dc:date>June 2015</dc:date>
        <dc:creator>
          <cc:Agent>
            <dc:title>Johannes Hechler</dc:title>
          </cc:Agent>
        </dc:creator>
        <dc:rights>
          <cc:Agent>
            <dc:title>Johannes Hechler</dc:title>
          </cc:Agent>
        </dc:rights>
        <dc:publisher>
          <cc:Agent>
            <dc:title>RRZE</dc:title>
          </cc:Agent>
        </dc:publisher>
        <dc:contributor>
          <cc:Agent>
            <dc:title>Ute Weber, Hendrik Eggers</dc:title>
          </cc:Agent>
        </dc:contributor>
      </cc:Work>
    </rdf:RDF>
  </metadata>
  <g inkscape:label="Ebene 1" inkscape:groupmode="layer" id="layer1">
    <path style="color:#252525;clip-rule:nonzero;display:inline;overflow:visible;visibility:visible;opacity:1;isolation:auto;mix-blend-mode:normal;color-interpolation:sRGB;color-interpolation-filters:linearRGB;solid-color:#252525;solid-opacity:1;fill:#99b000;fill-opacity:1;fill-rule:nonzero;stroke:none;stroke-width:2;stroke-linecap:butt;stroke-linejoin:round;stroke-miterlimit:4;stroke-dasharray:none;stroke-dashoffset:60.95968628;stroke-opacity:1;color-rendering:auto;image-rendering:auto;shape-rendering:auto;text-rendering:auto;enable-background:accumulate" d="m 283.29676,367.388 c -16.22792,0.0374 -29.26047,12.03407 -29.22623,26.893 0.0154,6.10775 2.31915,11.66215 6.05661,16.15286 l 0.009,4.60969 -30.11477,0.0694 c -8.43573,0.0182 -15.2113,6.82625 -15.19188,15.26198 l 0.21044,91.36149 c 0.0182,8.43574 6.82625,15.21131 15.26198,15.19183 l 25.35045,-0.0584 c -3.44724,-5.00058 -5.84806,-10.82633 -5.86307,-17.33696 -0.0423,-18.429 16.08189,-32.95351 35.30301,-32.99779 19.22108,-0.0442 35.41813,14.4058 35.46055,32.8348 0.0155,6.50293 -2.34578,12.34222 -5.75935,17.36376 l 34.27844,-0.0508 c 8.43571,-0.0182 15.21128,-6.82625 15.19185,-15.26198 l -0.0512,-22.24558 3.72345,-0.009 c 4.48349,3.64562 10.00025,5.87152 16.0435,5.85758 14.8589,-0.0342 26.78948,-13.12778 26.75213,-29.35577 -0.0374,-16.22791 -12.02816,-29.26639 -26.88707,-29.23217 -6.10779,0.0155 -11.66218,2.31917 -16.15286,6.05662 l -3.58665,0.009 -0.0518,-22.44186 c -0.0182,-8.43573 -6.82631,-15.21127 -15.26201,-15.19184 l -41.98707,0.0685 -0.0124,-4.74652 c 3.6456,-4.48348 5.87151,-10.00024 5.85759,-16.04348 -0.0342,-14.85893 -13.12783,-26.79547 -29.35578,-26.75807 z" id="rect4246" inkscape:connector-curvature="0" sodipodi:nodetypes="cccccscscsscccscccsccccsccscc"/>
    <path style="color:#252525;clip-rule:nonzero;display:inline;overflow:visible;visibility:visible;opacity:1;isolation:auto;mix-blend-mode:normal;color-interpolation:sRGB;color-interpolation-filters:linearRGB;solid-color:#252525;solid-opacity:1;fill:#4e505d;fill-opacity:1;fill-rule:nonzero;stroke:none;stroke-width:2;stroke-linecap:butt;stroke-linejoin:round;stroke-miterlimit:4;stroke-dasharray:none;stroke-dashoffset:60.95968628;stroke-opacity:1;color-rendering:auto;image-rendering:auto;shape-rendering:auto;text-rendering:auto;enable-background:accumulate" d="m 449.17025,367.51146 c -16.22799,0 -29.28809,11.96072 -29.28809,26.81968 0,6.10777 2.2923,11.66743 6.0194,16.16674 l 0,4.61568 -42.29644,0 c -8.43574,0 -15.22696,6.79122 -15.22696,15.22696 l 0,15.42324 c 4.66731,-2.90561 9.96068,-4.90117 15.8396,-4.90117 18.42907,0 32.91045,16.16369 32.91045,35.38484 0,19.22114 -14.48138,35.38484 -32.91045,35.38484 -5.87209,0 -11.16807,-1.98697 -15.8396,-4.88334 l 0,14.95336 c 0,8.43573 6.79122,15.22696 15.22696,15.22696 l 36.55064,0 c -3.36838,-4.96778 -5.71011,-10.7284 -5.71011,-17.16009 0,-18.42907 16.15776,-32.9164 35.3789,-32.9164 19.22114,0 35.38484,14.48733 35.38484,32.9164 0,6.42413 -2.32821,12.18741 -5.68632,17.16009 l 22.85234,0 c 8.43573,0 15.22696,-6.79123 15.22696,-15.22696 l 0,-22.25159 3.72345,0 c 4.47508,3.65591 9.98669,5.89448 16.02994,5.89448 14.85896,0 26.8197,-13.06607 26.81967,-29.29406 0,-16.22798 -11.96071,-29.28808 -26.81967,-29.28808 -6.10777,0 -11.66745,2.29229 -16.16674,6.0194 l -3.58665,0 0,-22.44192 c 0,-8.43574 -6.79123,-15.22696 -15.22696,-15.22696 l -29.80559,0 0,-4.75249 c 3.65591,-4.47509 5.89448,-9.9867 5.89448,-16.02993 0,-14.85896 -13.06607,-26.81968 -29.29405,-26.81968 z m 0.6543,131.52288 c -13.23482,0 -23.19733,9.44597 -23.19733,20.73482 0,4.58435 1.67841,8.73095 4.61565,12.27674 0.90723,1.09329 1.40379,2.46932 1.40376,3.89002 l 0,0.99333 34.48668,0 0,-1.13015 c -1.2e-4,-1.40479 0.48526,-2.76641 1.37399,-3.8543 2.87586,-3.52025 4.52052,-7.63538 4.52052,-12.17564 0,-11.28882 -9.96846,-20.73482 -23.20327,-20.73482 z" id="rect4235" inkscape:connector-curvature="0" sodipodi:nodetypes="ssccsscssscsscssscssccsssccssccssssccccccss"/>
    <path style="color:#252525;clip-rule:nonzero;display:inline;overflow:visible;visibility:visible;opacity:1;isolation:auto;mix-blend-mode:normal;color-interpolation:sRGB;color-interpolation-filters:linearRGB;solid-color:#252525;solid-opacity:1;fill:#4e505d;fill-opacity:1;fill-rule:nonzero;stroke:none;stroke-width:2;stroke-linecap:butt;stroke-linejoin:round;stroke-miterlimit:4;stroke-dasharray:none;stroke-dashoffset:60.95968628;stroke-opacity:1;color-rendering:auto;image-rendering:auto;shape-rendering:auto;text-rendering:auto;enable-background:accumulate" d="m 449.82455,492.94355 c -16.22798,0 -29.28811,11.96666 -29.28811,26.82561 0,6.10778 2.29229,11.66747 6.0194,16.16676 l 0,4.60973 -42.29645,0 c -8.43573,0 -15.22696,6.79121 -15.22696,15.22695 l 0,15.76823 c 4.868,-3.20852 10.46543,-5.43649 16.70802,-5.43649 18.42908,0 32.91046,16.1637 32.91046,35.38484 0,19.22114 -14.48138,35.38483 -32.91046,35.38483 -6.23308,0 -11.83647,-2.21007 -16.70802,-5.40675 l 0,15.66711 c 0,8.43573 6.79123,15.22696 15.22696,15.22696 l 118.77029,0 c 8.43574,0 15.22696,-6.79123 15.22696,-15.22696 l 0,-22.24564 3.72348,0 c 4.47509,3.65589 9.9867,5.89451 16.02994,5.89451 14.85895,0 26.81967,-13.06609 26.81967,-29.29406 0,-16.22798 -11.96072,-29.29405 -26.81967,-29.29405 -6.10778,0 -11.66747,2.29229 -16.16676,6.0194 l -3.58666,0 0,-22.44193 c 0,-8.43574 -6.79122,-15.22695 -15.22696,-15.22695 l -29.80558,0 0,-4.74655 c 3.65589,-4.47509 5.89451,-9.9867 5.89451,-16.02994 0,-14.85895 -13.06609,-26.82561 -29.29406,-26.82561 z m -64.0841,85.34235 c -4.58434,0 -8.73689,1.68436 -12.2827,4.6216 -1.09253,0.90378 -2.46616,1.39811 -3.88407,1.39781 l -0.54125,0 0,34.49263 0.67809,0 c 1.40477,-1.2e-4 2.76641,0.48526 3.8543,1.37399 3.52026,2.87586 7.63538,4.52052 12.17563,4.52052 11.28884,0 20.7289,-9.96846 20.7289,-23.20327 0,-13.23482 -9.44006,-23.20328 -20.7289,-23.20328 z" id="rect4224" inkscape:connector-curvature="0" sodipodi:nodetypes="ssccsscssscssssccsssccssccsssccccccsss"/>
    <rect style="opacity:1;fill:none;fill-opacity:1;stroke:none;stroke-width:23;stroke-linecap:butt;stroke-linejoin:round;stroke-miterlimit:4;stroke-dasharray:none;stroke-opacity:1" id="rect4160" width="400" height="400" x="190" y="322.36221"/>
    <path style="color:#252525;clip-rule:nonzero;display:inline;overflow:visible;visibility:visible;opacity:1;isolation:auto;mix-blend-mode:normal;color-interpolation:sRGB;color-interpolation-filters:linearRGB;solid-color:#252525;solid-opacity:1;fill:#4e505d;fill-opacity:1;fill-rule:nonzero;stroke:none;stroke-width:2;stroke-linecap:butt;stroke-linejoin:round;stroke-miterlimit:4;stroke-dasharray:none;stroke-dashoffset:60.95968628;stroke-opacity:1;color-rendering:auto;image-rendering:auto;shape-rendering:auto;text-rendering:auto;enable-background:accumulate" d="m 285.37338,492.94355 c -16.22799,0 -29.28812,11.96666 -29.28812,26.82561 0,6.10778 2.29229,11.66747 6.0194,16.16676 l 0,4.60973 -30.11487,0 c -8.43573,0 -15.22696,6.79121 -15.22696,15.22695 l 0,91.36177 c 0,8.43573 6.79123,15.22696 15.22696,15.22696 l 118.77029,0 c 8.43574,0 15.22696,-6.79123 15.22696,-15.22696 l 0,-22.24564 3.72348,0 c 4.47507,3.65589 9.9867,5.89451 16.02993,5.89451 14.85896,0 26.81968,-13.06609 26.81968,-29.29406 0,-16.22798 -11.96072,-29.29405 -26.81968,-29.29405 -6.10777,0 -11.66746,2.29229 -16.16677,6.0194 l -3.58664,0 0,-22.44193 c 0,-8.43574 -6.79122,-15.22695 -15.22696,-15.22695 l -41.98716,0 0,-4.74655 c 3.65591,-4.47509 5.89451,-9.9867 5.89451,-16.02994 0,-14.85895 -13.06607,-26.82561 -29.29405,-26.82561 z" id="rect4153" inkscape:connector-curvature="0" sodipodi:nodetypes="ssccssssssccsssccssccss"/>
  </g>
</svg>
