<?xml version="1.0" encoding="UTF-8" standalone="no"?>
<!-- Created with Inkscape (http://www.inkscape.org/) -->

<svg
   xmlns:dc="http://purl.org/dc/elements/1.1/"
   xmlns:cc="http://creativecommons.org/ns#"
   xmlns:rdf="http://www.w3.org/1999/02/22-rdf-syntax-ns#"
   xmlns:svg="http://www.w3.org/2000/svg"
   xmlns="http://www.w3.org/2000/svg"
   xmlns:xlink="http://www.w3.org/1999/xlink"
   xmlns:sodipodi="http://sodipodi.sourceforge.net/DTD/sodipodi-0.dtd"
   xmlns:inkscape="http://www.inkscape.org/namespaces/inkscape"
   width="210mm"
   height="297mm"
   viewBox="0 0 744.09448819 1052.3622047"
   id="svg2"
   version="1.1"
   inkscape:version="0.91 r13725"
   inkscape:export-xdpi="7.1992788"
   inkscape:export-ydpi="7.1992788"
   sodipodi:docname="per-page-fifty.svg"
   inkscape:export-filename="C:\Users\johannes\Documents\Arbeit\RRZE\github3\bicons\32x32\emblems\per-page-fifty.png">
  <defs
     id="defs4">
    <linearGradient
       inkscape:collect="always"
       xlink:href="#linearGradient4321"
       id="linearGradient4201"
       x1="286.38269"
       y1="672.9209"
       x2="532.51678"
       y2="367.74933"
       gradientUnits="userSpaceOnUse"
       gradientTransform="matrix(1.1363532,0,0,1.1363532,-55.623246,-53.126091)" />
    <linearGradient
       id="linearGradient4321"
       inkscape:collect="always">
      <stop
         id="stop4323"
         offset="0"
         style="stop-color:#4e505d;stop-opacity:1;" />
      <stop
         id="stop4325"
         offset="1"
         style="stop-color:#7a8597;stop-opacity:1" />
    </linearGradient>
  </defs>
  <sodipodi:namedview
     id="base"
     pagecolor="#ffffff"
     bordercolor="#666666"
     borderopacity="1.0"
     inkscape:pageopacity="0.0"
     inkscape:pageshadow="2"
     inkscape:zoom="0.70593675"
     inkscape:cx="490.45854"
     inkscape:cy="469.74407"
     inkscape:document-units="px"
     inkscape:current-layer="layer1"
     showgrid="false"
     showguides="true"
     inkscape:guide-bbox="true"
     inkscape:window-width="1366"
     inkscape:window-height="721"
     inkscape:window-x="-4"
     inkscape:window-y="-4"
     inkscape:window-maximized="1"
     inkscape:snap-global="true"
     inkscape:snap-bbox="true"
     inkscape:bbox-nodes="true">
    <sodipodi:guide
       position="560,730.00002"
       orientation="0,1"
       id="guide3338" />
    <sodipodi:guide
       position="560,330.00001"
       orientation="0,1"
       id="guide3340" />
    <sodipodi:guide
       position="190,475.00001"
       orientation="1,0"
       id="guide3344" />
    <sodipodi:guide
       position="590,451.00001"
       orientation="1,0"
       id="guide3346" />
    <inkscape:grid
       type="xygrid"
       id="grid3440" />
  </sodipodi:namedview>
  <metadata
     id="metadata7">
    <rdf:RDF>
      <cc:Work
         rdf:about="">
        <dc:format>image/svg+xml</dc:format>
        <dc:type
           rdf:resource="http://purl.org/dc/dcmitype/StillImage" />
        <dc:title>per page fifty</dc:title>
        <dc:date>June 2015</dc:date>
        <dc:creator>
          <cc:Agent>
            <dc:title>Johannes Hechler</dc:title>
          </cc:Agent>
        </dc:creator>
        <dc:rights>
          <cc:Agent>
            <dc:title>Johannes Hechler</dc:title>
          </cc:Agent>
        </dc:rights>
        <dc:publisher>
          <cc:Agent>
            <dc:title>RRZE</dc:title>
          </cc:Agent>
        </dc:publisher>
        <dc:contributor>
          <cc:Agent>
            <dc:title>Ute Weber, Hendrik Eggers, Joanna Barbach</dc:title>
          </cc:Agent>
        </dc:contributor>
        <dc:subject>
          <rdf:Bag>
            <rdf:li>list</rdf:li>
            <rdf:li>fifty</rdf:li>
            <rdf:li>per page</rdf:li>
          </rdf:Bag>
        </dc:subject>
        <cc:license
           rdf:resource="http://creativecommons.org/licenses/by-sa/3.0/" />
      </cc:Work>
      <cc:License
         rdf:about="http://creativecommons.org/licenses/by-sa/3.0/">
        <cc:permits
           rdf:resource="http://creativecommons.org/ns#Reproduction" />
        <cc:permits
           rdf:resource="http://creativecommons.org/ns#Distribution" />
        <cc:requires
           rdf:resource="http://creativecommons.org/ns#Notice" />
        <cc:requires
           rdf:resource="http://creativecommons.org/ns#Attribution" />
        <cc:permits
           rdf:resource="http://creativecommons.org/ns#DerivativeWorks" />
        <cc:requires
           rdf:resource="http://creativecommons.org/ns#ShareAlike" />
      </cc:License>
    </rdf:RDF>
  </metadata>
  <g
     inkscape:label="Ebene 1"
     inkscape:groupmode="layer"
     id="layer1">
    <rect
       style="fill:none;fill-rule:evenodd;stroke:none;stroke-width:1px;stroke-linecap:butt;stroke-linejoin:miter;stroke-opacity:1"
       id="rect3336"
       width="400"
       height="400"
       x="189.95993"
       y="322.31021"
       inkscape:export-xdpi="3.5999999"
       inkscape:export-ydpi="3.5999999" />
    <rect
       style="fill:none;fill-rule:evenodd;stroke:none;stroke-width:1px;stroke-linecap:butt;stroke-linejoin:miter;stroke-opacity:1"
       id="rect3336-0"
       width="400"
       height="400"
       x="190"
       y="322.36221"
       inkscape:export-xdpi="3.46731"
       inkscape:export-ydpi="3.46731" />
    <path
       style="fill:url(#linearGradient4201);fill-opacity:1;fill-rule:evenodd;stroke:none;stroke-width:1px;stroke-linecap:butt;stroke-linejoin:miter;stroke-opacity:1"
       d="M 446.35547 322.33398 L 251.21875 322.35352 C 239.82964 322.33442 234.14731 327.96483 234.19531 339.18555 C 234.14731 432.50933 234.14733 591.59707 234.17773 705.25391 C 234.14743 716.59581 239.86331 722.35014 251.15625 722.27344 L 358.31836 722.30078 C 345.63742 721.45988 335.67578 710.97728 335.67578 698.07617 L 335.67578 591.62305 C 335.67578 578.16866 346.5085 567.33789 359.96289 567.33789 L 546.7207 567.33789 L 546.72266 422.41211 C 541.52906 422.88815 525.9312 424.23694 508.45312 424.88867 C 497.84137 425.28432 486.77802 425.43408 476.66992 424.82031 C 471.61587 424.51344 466.82556 424.04555 461.92969 423.07422 C 457.03381 422.10288 455.20964 422.49639 448.20898 416.4668 C 442.01135 411.12886 440.82139 403.04712 440.48633 394.13867 C 440.15126 385.23022 441.1366 376.80584 442.23828 368.1875 C 444.44164 350.95083 447.0788 332.52645 446.48047 324.10156 L 446.35547 322.33398 z M 482.01172 373.24023 C 481.95942 373.63533 481.88388 374.13676 481.83398 374.52734 C 481.34573 378.34687 480.9798 381.90492 480.74219 384.9375 C 484.71078 385.14919 489.33778 385.21318 494.30859 385.17578 C 492.26157 383.13037 490.32529 381.13309 488.24414 379.0918 C 486.00424 376.89481 484.24098 375.38527 482.01172 373.24023 z M 480.45312 392.26758 C 480.52173 393.98757 481.06403 393.72127 480.45312 392.26758 z "
       id="path4244" />
    <path
       inkscape:export-ydpi="3.46731"
       inkscape:export-xdpi="3.46731"
       sodipodi:nodetypes="cczc"
       inkscape:connector-curvature="0"
       id="path4288"
       d="m 461.4165,322.33054 c 4.54635,-1.18483 85.25811,76.62516 85.25811,84.98046 0,0 -75.44211,7.35253 -86.90512,-1.29887 -11.46301,-8.65141 3.62243,-55.86651 1.64701,-83.68159 z"
       style="fill:#99b000;fill-opacity:1;fill-rule:evenodd;stroke:none;stroke-width:1px;stroke-linecap:butt;stroke-linejoin:miter;stroke-opacity:1" />
    <path
       style="color:#000000;clip-rule:nonzero;display:inline;overflow:visible;visibility:visible;opacity:1;isolation:auto;mix-blend-mode:normal;color-interpolation:sRGB;color-interpolation-filters:linearRGB;solid-color:#000000;solid-opacity:1;fill:#ffffff;fill-opacity:1;fill-rule:evenodd;stroke:none;stroke-width:50;stroke-linecap:butt;stroke-linejoin:miter;stroke-miterlimit:4;stroke-dasharray:none;stroke-dashoffset:0;stroke-opacity:1;color-rendering:auto;image-rendering:auto;shape-rendering:auto;text-rendering:auto;enable-background:accumulate"
       d="M 271.76953 467.75 C 266.73368 467.75 262.67969 471.80398 262.67969 476.83984 C 262.67969 481.8757 266.73368 485.92969 271.76953 485.92969 L 489.92969 485.92969 C 494.96555 485.92969 499.01953 481.8757 499.01953 476.83984 C 499.01953 471.80398 494.96555 467.75 489.92969 467.75 L 271.76953 467.75 z M 271.76953 522.29102 C 266.73368 522.29102 262.67969 526.345 262.67969 531.38086 C 262.67969 536.41671 266.73368 540.4707 271.76953 540.4707 L 399.0293 540.4707 C 404.06515 540.4707 408.12109 536.41671 408.12109 531.38086 C 408.12109 526.345 404.06515 522.29102 399.0293 522.29102 L 271.76953 522.29102 z M 271.76953 576.83008 C 266.73368 576.83008 262.67969 580.88406 262.67969 585.91992 C 262.67969 590.95577 266.73368 595.00977 271.76953 595.00977 L 317.67578 595.00977 L 317.67578 591.62305 C 317.67578 586.43492 318.64873 581.44859 320.4082 576.83008 L 271.76953 576.83008 z M 359.96289 585.33789 C 356.16915 585.33789 353.67578 587.82931 353.67578 591.62305 L 353.67578 595.00977 L 453.57031 595.00977 C 458.60617 595.00977 462.66016 590.95577 462.66016 585.91992 C 462.66016 585.72329 462.64304 585.53134 462.63086 585.33789 L 359.96289 585.33789 z "
       id="rect4232" />
    <rect
       style="opacity:1;fill:none;fill-opacity:1;stroke:none;stroke-width:23;stroke-linecap:butt;stroke-linejoin:round;stroke-miterlimit:4;stroke-dasharray:none;stroke-opacity:1"
       id="rect4160"
       width="400"
       height="400"
       x="190"
       y="322.36221" />
    <text
       xml:space="preserve"
       style="font-style:normal;font-weight:normal;font-size:187.12310791px;line-height:125%;font-family:sans-serif;letter-spacing:0px;word-spacing:0px;fill:#252525;fill-opacity:1;stroke:none;stroke-width:1px;stroke-linecap:butt;stroke-linejoin:miter;stroke-opacity:1"
       x="338.64468"
       y="719.71252"
       id="text4213"
       sodipodi:linespacing="125%"><tspan
         sodipodi:role="line"
         id="tspan4215"
         x="338.64468"
         y="719.71252"
         style="font-style:normal;font-variant:normal;font-weight:bold;font-stretch:normal;font-family:sans-serif;-inkscape-font-specification:'sans-serif Bold';fill:#99b000">50</tspan></text>
  </g>
</svg>
