<?xml version="1.0" encoding="UTF-8" standalone="no"?>
<!-- Created with Inkscape (http://www.inkscape.org/) -->

<svg
   xmlns:dc="http://purl.org/dc/elements/1.1/"
   xmlns:cc="http://creativecommons.org/ns#"
   xmlns:rdf="http://www.w3.org/1999/02/22-rdf-syntax-ns#"
   xmlns:svg="http://www.w3.org/2000/svg"
   xmlns="http://www.w3.org/2000/svg"
   xmlns:xlink="http://www.w3.org/1999/xlink"
   xmlns:sodipodi="http://sodipodi.sourceforge.net/DTD/sodipodi-0.dtd"
   xmlns:inkscape="http://www.inkscape.org/namespaces/inkscape"
   width="210mm"
   height="297mm"
   viewBox="0 0 744.09448819 1052.3622047"
   id="svg2"
   version="1.1"
   inkscape:version="0.91 r13725"
   inkscape:export-xdpi="7.1992793"
   inkscape:export-ydpi="7.1992793"
   sodipodi:docname="per-page-twentyfive.svg"
   inkscape:export-filename="C:\Users\johannes\Documents\Arbeit\RRZE\github3\bicons\32x32\emblems\per-page-twentyfive.png">
  <title
     id="title4163">per page twentyfive</title>
  <defs
     id="defs4">
    <linearGradient
       inkscape:collect="always"
       xlink:href="#linearGradient4321"
       id="linearGradient4201"
       x1="286.38269"
       y1="672.9209"
       x2="532.51678"
       y2="367.74933"
       gradientUnits="userSpaceOnUse"
       gradientTransform="matrix(1.1363532,0,0,1.1363532,-55.58317,-53.074087)" />
    <linearGradient
       id="linearGradient4321"
       inkscape:collect="always">
      <stop
         id="stop4323"
         offset="0"
         style="stop-color:#4e505d;stop-opacity:1;" />
      <stop
         id="stop4325"
         offset="1"
         style="stop-color:#7a8597;stop-opacity:1" />
    </linearGradient>
  </defs>
  <sodipodi:namedview
     id="base"
     pagecolor="#ffffff"
     bordercolor="#666666"
     borderopacity="1.0"
     inkscape:pageopacity="0.0"
     inkscape:pageshadow="2"
     inkscape:zoom="0.5"
     inkscape:cx="442.87863"
     inkscape:cy="443.3924"
     inkscape:document-units="px"
     inkscape:current-layer="layer1"
     showgrid="false"
     showguides="true"
     inkscape:guide-bbox="true"
     inkscape:window-width="1366"
     inkscape:window-height="721"
     inkscape:window-x="-4"
     inkscape:window-y="-4"
     inkscape:window-maximized="1"
     inkscape:snap-bbox="true"
     inkscape:bbox-nodes="true">
    <sodipodi:guide
       position="560,730.00002"
       orientation="0,1"
       id="guide3338" />
    <sodipodi:guide
       position="560,330.00001"
       orientation="0,1"
       id="guide3340" />
    <sodipodi:guide
       position="190,475.00001"
       orientation="1,0"
       id="guide3344" />
    <sodipodi:guide
       position="590,451.00001"
       orientation="1,0"
       id="guide3346" />
    <inkscape:grid
       type="xygrid"
       id="grid3440" />
  </sodipodi:namedview>
  <metadata
     id="metadata7">
    <rdf:RDF>
      <cc:Work
         rdf:about="">
        <dc:format>image/svg+xml</dc:format>
        <dc:type
           rdf:resource="http://purl.org/dc/dcmitype/StillImage" />
        <dc:title>per page twentyfive</dc:title>
        <dc:date>June 2015</dc:date>
        <dc:creator>
          <cc:Agent>
            <dc:title>Johannes Hechler</dc:title>
          </cc:Agent>
        </dc:creator>
        <dc:rights>
          <cc:Agent>
            <dc:title>Johannes Hechler</dc:title>
          </cc:Agent>
        </dc:rights>
        <dc:publisher>
          <cc:Agent>
            <dc:title>RRZE</dc:title>
          </cc:Agent>
        </dc:publisher>
        <dc:contributor>
          <cc:Agent>
            <dc:title>Ute Weber, Hendrik Eggers, Joanna Barbach</dc:title>
          </cc:Agent>
        </dc:contributor>
        <dc:subject>
          <rdf:Bag>
            <rdf:li>list</rdf:li>
            <rdf:li>twenty-five</rdf:li>
            <rdf:li>per page</rdf:li>
          </rdf:Bag>
        </dc:subject>
        <cc:license
           rdf:resource="http://creativecommons.org/licenses/by-sa/3.0/" />
      </cc:Work>
      <cc:License
         rdf:about="http://creativecommons.org/licenses/by-sa/3.0/">
        <cc:permits
           rdf:resource="http://creativecommons.org/ns#Reproduction" />
        <cc:permits
           rdf:resource="http://creativecommons.org/ns#Distribution" />
        <cc:requires
           rdf:resource="http://creativecommons.org/ns#Notice" />
        <cc:requires
           rdf:resource="http://creativecommons.org/ns#Attribution" />
        <cc:permits
           rdf:resource="http://creativecommons.org/ns#DerivativeWorks" />
        <cc:requires
           rdf:resource="http://creativecommons.org/ns#ShareAlike" />
      </cc:License>
    </rdf:RDF>
  </metadata>
  <g
     inkscape:label="Ebene 1"
     inkscape:groupmode="layer"
     id="layer1">
    <g
       id="g4195">
      <rect
         inkscape:export-ydpi="3.5999999"
         inkscape:export-xdpi="3.5999999"
         y="322.36221"
         x="190"
         height="400"
         width="400"
         id="rect3336"
         style="fill:none;fill-rule:evenodd;stroke:none;stroke-width:1px;stroke-linecap:butt;stroke-linejoin:miter;stroke-opacity:1" />
      <rect
         inkscape:export-ydpi="3.46731"
         inkscape:export-xdpi="3.46731"
         y="322.41422"
         x="190.04007"
         height="400"
         width="400"
         id="rect3336-0"
         style="fill:none;fill-rule:evenodd;stroke:none;stroke-width:1px;stroke-linecap:butt;stroke-linejoin:miter;stroke-opacity:1" />
      <path
         id="path4244"
         d="M 446.39453 322.38477 L 251.25781 322.4043 C 239.8687 322.3852 234.18637 328.01561 234.23438 339.23633 C 234.18637 432.5601 234.1864 591.64785 234.2168 705.30469 C 234.1865 716.64659 239.90237 722.40092 251.19531 722.32422 L 354.79688 722.34961 C 346.25482 722.23202 339.41211 715.32881 339.41211 706.75781 L 339.41211 580.0625 C 339.41211 571.4176 346.37072 564.45898 355.01562 564.45898 L 546.75977 564.45898 L 546.76172 422.46289 C 541.56812 422.93893 525.97027 424.28772 508.49219 424.93945 C 497.88044 425.3351 486.81708 425.48486 476.70898 424.87109 C 471.65493 424.56422 466.86462 424.09633 461.96875 423.125 C 457.07287 422.15367 455.24871 422.54716 448.24805 416.51758 C 442.05042 411.17964 440.86045 403.0979 440.52539 394.18945 C 440.19032 385.281 441.17566 376.85662 442.27734 368.23828 C 444.4807 351.00161 447.11786 332.57723 446.51953 324.15234 L 446.39453 322.38477 z M 482.05078 373.29102 C 481.99848 373.68612 481.92295 374.18754 481.87305 374.57812 C 481.3848 378.39765 481.01886 381.9557 480.78125 384.98828 C 484.74984 385.19997 489.37685 385.26396 494.34766 385.22656 C 492.30064 383.18115 490.36435 381.18387 488.2832 379.14258 C 486.0433 376.94559 484.28004 375.43606 482.05078 373.29102 z M 480.49219 392.31836 C 480.56079 394.03835 481.10309 393.77205 480.49219 392.31836 z M 398.11914 722.36133 L 529.57812 722.39453 C 529.88131 722.39281 530.16388 722.37097 530.45898 722.36133 L 398.11914 722.36133 z "
         style="fill:url(#linearGradient4201);fill-opacity:1;fill-rule:evenodd;stroke:none;stroke-width:1px;stroke-linecap:butt;stroke-linejoin:miter;stroke-opacity:1" />
      <path
         style="fill:#99b000;fill-opacity:1;fill-rule:evenodd;stroke:none;stroke-width:1px;stroke-linecap:butt;stroke-linejoin:miter;stroke-opacity:1"
         d="m 461.45658,322.38255 c 4.54635,-1.18483 85.25811,76.62516 85.25811,84.98046 0,0 -75.44211,7.35253 -86.90512,-1.29887 -11.46301,-8.65141 3.62243,-55.86651 1.64701,-83.68159 z"
         id="path4288"
         inkscape:connector-curvature="0"
         sodipodi:nodetypes="cczc"
         inkscape:export-xdpi="3.46731"
         inkscape:export-ydpi="3.46731" />
      <path
         id="rect4232"
         d="M 271.80859 467.80078 C 266.77274 467.80078 262.71875 471.85477 262.71875 476.89062 C 262.71875 481.92649 266.77274 485.98047 271.80859 485.98047 L 489.96875 485.98047 C 495.00461 485.98047 499.05859 481.92649 499.05859 476.89062 C 499.05859 471.85476 495.00461 467.80078 489.96875 467.80078 L 271.80859 467.80078 z M 271.80859 522.3418 C 266.77274 522.3418 262.71875 526.39578 262.71875 531.43164 C 262.71875 536.46749 266.77274 540.52148 271.80859 540.52148 L 399.06836 540.52148 C 404.10421 540.52148 408.16016 536.46749 408.16016 531.43164 C 408.16016 526.39578 404.10421 522.3418 399.06836 522.3418 L 271.80859 522.3418 z M 271.80859 576.88086 C 266.77274 576.88086 262.71875 580.93484 262.71875 585.9707 C 262.71875 591.00655 266.77274 595.06055 271.80859 595.06055 L 321.41211 595.06055 L 321.41211 580.0625 C 321.41211 578.99055 321.46982 577.92972 321.57227 576.88086 L 271.80859 576.88086 z M 357.41211 582.45898 L 357.41211 595.06055 L 453.60938 595.06055 C 458.64524 595.06055 462.69922 591.00655 462.69922 585.9707 C 462.69922 584.72419 462.45018 583.53859 462 582.45898 L 357.41211 582.45898 z "
         style="color:#000000;clip-rule:nonzero;display:inline;overflow:visible;visibility:visible;opacity:1;isolation:auto;mix-blend-mode:normal;color-interpolation:sRGB;color-interpolation-filters:linearRGB;solid-color:#000000;solid-opacity:1;fill:#ffffff;fill-opacity:1;fill-rule:evenodd;stroke:none;stroke-width:50;stroke-linecap:butt;stroke-linejoin:miter;stroke-miterlimit:4;stroke-dasharray:none;stroke-dashoffset:0;stroke-opacity:1;color-rendering:auto;image-rendering:auto;shape-rendering:auto;text-rendering:auto;enable-background:accumulate" />
      <rect
         y="322.36221"
         x="190"
         height="400"
         width="400"
         id="rect4160"
         style="opacity:1;fill:none;fill-opacity:1;stroke:none;stroke-width:23;stroke-linecap:butt;stroke-linejoin:round;stroke-miterlimit:4;stroke-dasharray:none;stroke-opacity:1" />
      <text
         sodipodi:linespacing="125%"
         id="text4213"
         y="719.71252"
         x="342.75629"
         style="font-style:normal;font-weight:normal;font-size:187.12310791px;line-height:125%;font-family:sans-serif;letter-spacing:0px;word-spacing:0px;fill:#252525;fill-opacity:1;stroke:none;stroke-width:1px;stroke-linecap:butt;stroke-linejoin:miter;stroke-opacity:1"
         xml:space="preserve"><tspan
           style="font-style:normal;font-variant:normal;font-weight:bold;font-stretch:normal;font-family:sans-serif;-inkscape-font-specification:'sans-serif Bold';fill:#99b000"
           y="719.71252"
           x="342.75629"
           id="tspan4215"
           sodipodi:role="line">25</tspan></text>
    </g>
  </g>
</svg>
