<?xml version="1.0" encoding="UTF-8" standalone="no"?>
<!-- Created with Inkscape (http://www.inkscape.org/) -->

<svg
   xmlns:dc="http://purl.org/dc/elements/1.1/"
   xmlns:cc="http://creativecommons.org/ns#"
   xmlns:rdf="http://www.w3.org/1999/02/22-rdf-syntax-ns#"
   xmlns:svg="http://www.w3.org/2000/svg"
   xmlns="http://www.w3.org/2000/svg"
   xmlns:xlink="http://www.w3.org/1999/xlink"
   xmlns:sodipodi="http://sodipodi.sourceforge.net/DTD/sodipodi-0.dtd"
   xmlns:inkscape="http://www.inkscape.org/namespaces/inkscape"
   width="210mm"
   height="297mm"
   viewBox="0 0 744.09448819 1052.3622047"
   id="svg2"
   version="1.1"
   inkscape:version="0.91 r13725"
   inkscape:export-xdpi="4"
   inkscape:export-ydpi="4"
   sodipodi:docname="personal-data-disclosure.svg">
  <title
     id="title4164">personal data disclosure</title>
  <defs
     id="defs4">
    <linearGradient
       inkscape:collect="always"
       xlink:href="#linearGradient4197"
       id="linearGradient4203"
       x1="249.23784"
       y1="681.41742"
       x2="511.04788"
       y2="441.42242"
       gradientUnits="userSpaceOnUse"
       gradientTransform="matrix(0.91449391,0,0,0.91449391,34.143151,2.783989)" />
    <linearGradient
       inkscape:collect="always"
       id="linearGradient4197">
      <stop
         style="stop-color:#4e505d;stop-opacity:1;"
         offset="0"
         id="stop4199" />
      <stop
         style="stop-color:#7a8597;stop-opacity:1"
         offset="1"
         id="stop4201" />
    </linearGradient>
  </defs>
  <sodipodi:namedview
     id="base"
     pagecolor="#ffffff"
     bordercolor="#666666"
     borderopacity="1.0"
     inkscape:pageopacity="0.0"
     inkscape:pageshadow="2"
     inkscape:zoom="0.35355339"
     inkscape:cx="-18.238421"
     inkscape:cy="738.19834"
     inkscape:document-units="px"
     inkscape:current-layer="layer1"
     showgrid="false"
     showguides="true"
     inkscape:guide-bbox="true"
     inkscape:window-width="1366"
     inkscape:window-height="721"
     inkscape:window-x="-4"
     inkscape:window-y="-4"
     inkscape:window-maximized="1">
    <sodipodi:guide
       position="560,730.00002"
       orientation="0,1"
       id="guide3338" />
    <sodipodi:guide
       position="560,330.00001"
       orientation="0,1"
       id="guide3340" />
    <sodipodi:guide
       position="190,475.00001"
       orientation="1,0"
       id="guide3344" />
    <sodipodi:guide
       position="590,451.00001"
       orientation="1,0"
       id="guide3346" />
    <inkscape:grid
       type="xygrid"
       id="grid3440" />
    <sodipodi:guide
       position="-111.01577,704.98548"
       orientation="0,1"
       id="guide4151" />
    <sodipodi:guide
       position="54.25,355.00001"
       orientation="0,1"
       id="guide4153" />
    <sodipodi:guide
       position="215,442.00001"
       orientation="1,0"
       id="guide4155" />
    <sodipodi:guide
       position="564.97832,467.39759"
       orientation="1,0"
       id="guide4157" />
  </sodipodi:namedview>
  <metadata
     id="metadata7">
    <rdf:RDF>
      <cc:Work
         rdf:about="">
        <dc:format>image/svg+xml</dc:format>
        <dc:type
           rdf:resource="http://purl.org/dc/dcmitype/StillImage" />
        <dc:title>personal data disclosure</dc:title>
        <dc:date>June 2015</dc:date>
        <dc:creator>
          <cc:Agent>
            <dc:title>Johannes Hechler</dc:title>
          </cc:Agent>
        </dc:creator>
        <dc:rights>
          <cc:Agent>
            <dc:title>Johannes Hechler</dc:title>
          </cc:Agent>
        </dc:rights>
        <dc:publisher>
          <cc:Agent>
            <dc:title>RRZE</dc:title>
          </cc:Agent>
        </dc:publisher>
        <dc:contributor>
          <cc:Agent>
            <dc:title>Ute Weber, Hendrik Eggers, Joanna Barbach</dc:title>
          </cc:Agent>
        </dc:contributor>
        <dc:subject>
          <rdf:Bag>
            <rdf:li>personal data</rdf:li>
            <rdf:li>data</rdf:li>
            <rdf:li>disclosure</rdf:li>
            <rdf:li />
          </rdf:Bag>
        </dc:subject>
        <cc:license
           rdf:resource="http://creativecommons.org/licenses/by-sa/3.0/" />
      </cc:Work>
      <cc:License
         rdf:about="http://creativecommons.org/licenses/by-sa/3.0/">
        <cc:permits
           rdf:resource="http://creativecommons.org/ns#Reproduction" />
        <cc:permits
           rdf:resource="http://creativecommons.org/ns#Distribution" />
        <cc:requires
           rdf:resource="http://creativecommons.org/ns#Notice" />
        <cc:requires
           rdf:resource="http://creativecommons.org/ns#Attribution" />
        <cc:permits
           rdf:resource="http://creativecommons.org/ns#DerivativeWorks" />
        <cc:requires
           rdf:resource="http://creativecommons.org/ns#ShareAlike" />
      </cc:License>
    </rdf:RDF>
  </metadata>
  <g
     inkscape:label="Ebene 1"
     inkscape:groupmode="layer"
     id="layer1">
    <rect
       style="opacity:1;fill:none;fill-opacity:1;stroke:none;stroke-width:23;stroke-linecap:butt;stroke-linejoin:round;stroke-miterlimit:4;stroke-dasharray:none;stroke-opacity:1"
       id="rect4160"
       width="400"
       height="400"
       x="190"
       y="322.36221" />
    <path
       style="opacity:1;fill:url(#linearGradient4203);fill-opacity:1;stroke:none;stroke-width:0;stroke-linecap:square;stroke-linejoin:round;stroke-miterlimit:4;stroke-dasharray:none;stroke-opacity:1"
       d="M 228.87891 372.57227 C 221.12292 372.57227 214.86523 379.06241 214.86523 386.82227 L 214.86523 423.24023 L 214.86523 433.04492 L 214.86523 605.33203 C 214.86523 616.97181 224.23124 626.3418 235.86523 626.3418 L 473.75586 626.3418 L 473.75586 595.41211 C 473.75586 590.88649 473.39902 588.09941 473.17578 586.41602 C 471.75243 586.09894 470.41761 585.78003 467.42383 585.32812 A 15.0015 15.0015 0 0 1 454.66406 570.49609 L 454.66406 561.43555 A 15.0015 15.0015 0 0 1 467.83398 546.54688 C 478.98577 545.17735 490.63749 542.82471 501.80859 539.97852 C 483.35575 538.85929 468.57812 523.88086 468.57812 504.80664 C 468.57812 484.82401 485.0497 469.0957 504.28711 469.0957 C 523.71419 469.0957 539.99805 485.37956 539.99805 504.80664 C 539.99805 516.88593 533.592 527.7339 523.92773 534.14453 A 15.0015 15.0015 0 0 1 539.34961 549.13867 L 539.34961 626.3418 L 543.86523 626.3418 C 555.4992 626.3418 564.86523 616.97181 564.86523 605.33203 L 564.86523 423.24023 C 564.86523 411.60045 555.4992 402.23047 543.86523 402.23047 L 341.19727 402.23047 L 333.86523 386.82227 C 330.53068 379.81623 327.63489 372.57227 319.87891 372.57227 L 228.87891 372.57227 z M 504.28711 499.0957 C 501.52029 499.0957 498.57812 501.49068 498.57812 504.80664 C 498.57812 506.98523 502.0742 510.19336 503.96484 510.19336 C 508.0999 510.19336 509.99805 507.57346 509.99805 504.80664 C 509.99805 500.93512 508.15863 499.0957 504.28711 499.0957 z M 509.34961 569.01953 C 506.35099 569.78646 503.3742 570.57257 500.32031 571.25977 C 504.27385 578.74511 503.75586 586.30244 503.75586 595.41211 L 503.75586 626.3418 L 509.34961 626.3418 L 509.34961 569.01953 z "
       id="rect4182" />
    <text
       xml:space="preserve"
       style="font-style:normal;font-weight:normal;font-size:40px;line-height:125%;font-family:sans-serif;letter-spacing:0px;word-spacing:0px;fill:#252525;fill-opacity:1;stroke:none;stroke-width:1px;stroke-linecap:butt;stroke-linejoin:miter;stroke-opacity:1"
       x="448.30569"
       y="645.06873"
       id="text4167"
       sodipodi:linespacing="125%"><tspan
         sodipodi:role="line"
         id="tspan4169"
         x="448.30569"
         y="645.06873" /></text>
    <g
       style="font-style:normal;font-weight:normal;font-size:323.59161377px;line-height:125%;font-family:sans-serif;letter-spacing:0px;word-spacing:0px;fill:#99b000;fill-opacity:1;stroke:none;stroke-width:1px;stroke-linecap:butt;stroke-linejoin:miter;stroke-opacity:1"
       id="text4159">
      <path
         d="m 503.96398,525.19256 c 11.97289,0 21.03345,-9.38416 21.03345,-20.38627 0,-11.6493 -9.06056,-20.70987 -20.70986,-20.70987 -11.00211,0 -20.70986,9.06057 -20.70986,20.70987 0,11.00211 9.70775,20.38627 20.38627,20.38627 z m 42.71409,172.79792 0,-9.70775 c -20.70986,-2.58873 -22.32782,-4.53028 -22.32782,-27.1817 l 0,-111.96269 c -16.82676,5.50105 -36.24226,10.03134 -54.68698,12.29648 l 0,9.06056 c 17.15035,2.58874 19.0919,3.8831 19.0919,24.91656 l 0,65.68909 c 0,23.2986 -2.26514,24.91656 -22.32782,27.1817 l 0,9.70775 80.25072,0 z"
         style="font-style:normal;font-variant:normal;font-weight:600;font-stretch:normal;font-family:'Adobe Hebrew';-inkscape-font-specification:'Adobe Hebrew Semi-Bold';fill:#99b000;fill-opacity:1;stroke:none"
         id="path4154" />
    </g>
  </g>
</svg>
