<?xml version="1.0" encoding="UTF-8" standalone="no"?>
<!-- Created with Inkscape (http://www.inkscape.org/) -->

<svg
   xmlns:dc="http://purl.org/dc/elements/1.1/"
   xmlns:cc="http://creativecommons.org/ns#"
   xmlns:rdf="http://www.w3.org/1999/02/22-rdf-syntax-ns#"
   xmlns:svg="http://www.w3.org/2000/svg"
   xmlns="http://www.w3.org/2000/svg"
   xmlns:xlink="http://www.w3.org/1999/xlink"
   xmlns:sodipodi="http://sodipodi.sourceforge.net/DTD/sodipodi-0.dtd"
   xmlns:inkscape="http://www.inkscape.org/namespaces/inkscape"
   width="32"
   height="32"
   viewBox="0 0 32 32.000001"
   id="svg4217"
   version="1.1"
   inkscape:version="0.91 r13725"
   sodipodi:docname="rrze-directory.svg"
   inkscape:export-filename="C:\Users\johannes\Desktop\22raster#1.png"
   inkscape:export-xdpi="4.9499817"
   inkscape:export-ydpi="4.9499817">
  <title
     id="title4414">rrze directory</title>
  <defs
     id="defs4219">
    <linearGradient
       id="linearGradient4321"
       inkscape:collect="always">
      <stop
         id="stop4323"
         offset="0"
         style="stop-color:#4e505d;stop-opacity:1;" />
      <stop
         id="stop4325"
         offset="1"
         style="stop-color:#7a8597;stop-opacity:1" />
    </linearGradient>
    <linearGradient
       inkscape:collect="always"
       xlink:href="#linearGradient4321"
       id="linearGradient4319-9"
       x1="280"
       y1="712.36218"
       x2="500"
       y2="472.36221"
       gradientUnits="userSpaceOnUse"
       gradientTransform="matrix(1.0685568,0,0,1.0477472,-26.445951,-34.107492)" />
    <linearGradient
       inkscape:collect="always"
       xlink:href="#linearGradient4321"
       id="linearGradient4317-3"
       x1="280"
       y1="692.36218"
       x2="500"
       y2="472.36221"
       gradientUnits="userSpaceOnUse"
       gradientTransform="matrix(1.0685568,0,0,1.0477472,-26.445951,-26.329318)" />
    <linearGradient
       inkscape:collect="always"
       xlink:href="#linearGradient4321"
       id="linearGradient4176"
       x1="0"
       y1="306"
       x2="612"
       y2="306"
       gradientUnits="userSpaceOnUse" />
    <linearGradient
       inkscape:collect="always"
       xlink:href="#linearGradient4321"
       id="linearGradient4184"
       x1="0"
       y1="306"
       x2="612"
       y2="306"
       gradientUnits="userSpaceOnUse" />
    <linearGradient
       id="linearGradient3796">
      <stop
         style="stop-color:#3465a4;stop-opacity:1;"
         offset="0"
         id="stop3798" />
      <stop
         style="stop-color:#252525;stop-opacity:1;"
         offset="1"
         id="stop3800" />
    </linearGradient>
    <linearGradient
       id="linearGradient3812">
      <stop
         style="stop-color:#fce94f;stop-opacity:1;"
         offset="0"
         id="stop3814" />
      <stop
         style="stop-color:#fcaf3e;stop-opacity:1;"
         offset="1"
         id="stop3816" />
    </linearGradient>
    <linearGradient
       id="linearGradient2116">
      <stop
         id="stop2118"
         offset="0"
         style="stop-color:#ffffff;stop-opacity:1;" />
      <stop
         id="stop2120"
         offset="1"
         style="stop-color:#ffffff;stop-opacity:0;" />
    </linearGradient>
    <linearGradient
       id="linearGradient3875">
      <stop
         style="stop-color:#ffffff;stop-opacity:1;"
         offset="0"
         id="stop3877" />
      <stop
         id="stop3885"
         offset="0.20752585"
         style="stop-color:#ffffff;stop-opacity:0.50649351;" />
      <stop
         id="stop3883"
         offset="0.9507187"
         style="stop-color:#ffffff;stop-opacity:1;" />
      <stop
         style="stop-color:#ffffff;stop-opacity:0;"
         offset="1"
         id="stop3879" />
    </linearGradient>
    <linearGradient
       id="linearGradient3889">
      <stop
         style="stop-color:#eeeeec;stop-opacity:1;"
         offset="0"
         id="stop3891" />
      <stop
         style="stop-color:#ffffff;stop-opacity:1;"
         offset="1"
         id="stop3893" />
    </linearGradient>
  </defs>
  <sodipodi:namedview
     id="base"
     pagecolor="#ffffff"
     bordercolor="#666666"
     borderopacity="1.0"
     inkscape:pageopacity="0.0"
     inkscape:pageshadow="2"
     inkscape:zoom="8.0000004"
     inkscape:cx="-6.9311614"
     inkscape:cy="24.000957"
     inkscape:document-units="px"
     inkscape:current-layer="layer1"
     showgrid="true"
     units="px"
     inkscape:snap-bbox="true"
     inkscape:bbox-paths="false"
     inkscape:bbox-nodes="true"
     inkscape:snap-bbox-edge-midpoints="false"
     inkscape:snap-bbox-midpoints="false"
     showguides="false"
     inkscape:guide-bbox="true"
     inkscape:window-width="1600"
     inkscape:window-height="837"
     inkscape:window-x="-4"
     inkscape:window-y="-4"
     inkscape:window-maximized="1"
     inkscape:object-paths="true"
     inkscape:snap-intersection-paths="true"
     inkscape:object-nodes="true"
     inkscape:snap-smooth-nodes="true"
     inkscape:snap-midpoints="false"
     inkscape:showpageshadow="false"
     inkscape:snap-global="true"
     inkscape:snap-nodes="true"
     inkscape:snap-others="true">
    <sodipodi:guide
       position="0,411.37501"
       orientation="1,0"
       id="guide4765" />
    <sodipodi:guide
       position="18.18,410.73144"
       orientation="1,0"
       id="guide4769" />
    <sodipodi:guide
       position="36.360001,410.73144"
       orientation="1,0"
       id="guide4771" />
    <sodipodi:guide
       position="54.540001,410.73144"
       orientation="1,0"
       id="guide4773" />
    <sodipodi:guide
       position="72.720001,410.73144"
       orientation="1,0"
       id="guide4775" />
    <sodipodi:guide
       position="90.900002,410.73144"
       orientation="1,0"
       id="guide4777" />
    <sodipodi:guide
       position="109.08,410.73144"
       orientation="1,0"
       id="guide4779" />
    <sodipodi:guide
       position="127.26,410.73144"
       orientation="1,0"
       id="guide4781"
       inkscape:label=""
       inkscape:color="rgb(0,0,255)" />
    <sodipodi:guide
       position="145.44,410.73144"
       orientation="1,0"
       id="guide4783" />
    <sodipodi:guide
       position="163.62,410.73144"
       orientation="1,0"
       id="guide4785" />
    <sodipodi:guide
       position="181.8,410.73144"
       orientation="1,0"
       id="guide4787" />
    <sodipodi:guide
       position="199.98,410.73144"
       orientation="1,0"
       id="guide4789"
       inkscape:label=""
       inkscape:color="rgb(255,2,0)" />
    <sodipodi:guide
       position="218.16,410.73144"
       orientation="1,0"
       id="guide4791" />
    <sodipodi:guide
       position="254.52,410.73144"
       orientation="1,0"
       id="guide4795" />
    <sodipodi:guide
       position="272.7,410.73144"
       orientation="1,0"
       id="guide4797" />
    <sodipodi:guide
       position="290.88001,410.73144"
       orientation="1,0"
       id="guide4799" />
    <sodipodi:guide
       position="309.06001,410.73144"
       orientation="1,0"
       id="guide4801" />
    <sodipodi:guide
       position="345.41999,410.73144"
       orientation="1,0"
       id="guide4805" />
    <sodipodi:guide
       position="363.59998,410.73144"
       orientation="1,0"
       id="guide4807" />
    <sodipodi:guide
       position="381.77998,410.73144"
       orientation="1,0"
       id="guide4809" />
    <sodipodi:guide
       position="400.00147,254.93962"
       orientation="1,0"
       id="guide4811" />
    <sodipodi:guide
       position="413.875,400.00001"
       orientation="0,1"
       id="guide4813" />
    <sodipodi:guide
       position="409.04996,381.82003"
       orientation="0,1"
       id="guide4815" />
    <sodipodi:guide
       position="409.04996,363.64003"
       orientation="0,1"
       id="guide4817" />
    <sodipodi:guide
       position="405.75,345.46004"
       orientation="0,1"
       id="guide4819" />
    <sodipodi:guide
       position="411.625,327.28005"
       orientation="0,1"
       id="guide4821" />
    <sodipodi:guide
       position="409.04996,309.10006"
       orientation="0,1"
       id="guide4823" />
    <sodipodi:guide
       position="411,290.92006"
       orientation="0,1"
       id="guide4825" />
    <sodipodi:guide
       position="411,272.74007"
       orientation="0,1"
       id="guide4827" />
    <sodipodi:guide
       position="409.04996,254.56008"
       orientation="0,1"
       id="guide4829" />
    <sodipodi:guide
       position="405.52575,236.38008"
       orientation="0,1"
       id="guide4831" />
    <sodipodi:guide
       position="412.125,218.20009"
       orientation="0,1"
       id="guide4833" />
    <sodipodi:guide
       position="409.04996,200.02001"
       orientation="0,1"
       id="guide4835"
       inkscape:label=""
       inkscape:color="rgb(255,11,0)" />
    <sodipodi:guide
       position="409.04996,181.8401"
       orientation="0,1"
       id="guide4837" />
    <sodipodi:guide
       position="411.75,163.66011"
       orientation="0,1"
       id="guide4839" />
    <sodipodi:guide
       position="409.04996,145.48012"
       orientation="0,1"
       id="guide4841" />
    <sodipodi:guide
       position="409.04996,127.30012"
       orientation="0,1"
       id="guide4843" />
    <sodipodi:guide
       position="409.04996,109.12013"
       orientation="0,1"
       id="guide4845" />
    <sodipodi:guide
       position="409.04996,72.760144"
       orientation="0,1"
       id="guide4849" />
    <sodipodi:guide
       position="409.04996,54.580151"
       orientation="0,1"
       id="guide4851" />
    <sodipodi:guide
       position="409.04996,36.400158"
       orientation="0,1"
       id="guide4853" />
    <sodipodi:guide
       position="409.04996,18.220165"
       orientation="0,1"
       id="guide4855" />
    <sodipodi:guide
       position="406.32813,0"
       orientation="0,1"
       id="guide4536" />
    <sodipodi:guide
       position="327.23999,414.8949"
       orientation="1,0"
       id="guide4256" />
    <sodipodi:guide
       position="236.34,428.00001"
       orientation="1,0"
       id="guide4253" />
    <sodipodi:guide
       position="419.4288,90.943193"
       orientation="0,1"
       id="guide4339" />
    <sodipodi:guide
       position="236.34,36.400158"
       orientation="0,1"
       id="guide4654" />
    <inkscape:grid
       type="xygrid"
       id="grid4205"
       empspacing="16"
       color="#0000e4"
       opacity="0.3372549"
       empcolor="#e40099"
       empopacity="0.50980392" />
  </sodipodi:namedview>
  <metadata
     id="metadata4222">
    <rdf:RDF>
      <cc:Work
         rdf:about="">
        <dc:format>image/svg+xml</dc:format>
        <dc:type
           rdf:resource="http://purl.org/dc/dcmitype/StillImage" />
        <dc:title>rrze directory</dc:title>
        <dc:creator>
          <cc:Agent>
            <dc:title>Johannes Hechler</dc:title>
          </cc:Agent>
        </dc:creator>
        <dc:rights>
          <cc:Agent>
            <dc:title>Johannes Hechler</dc:title>
          </cc:Agent>
        </dc:rights>
        <dc:publisher>
          <cc:Agent>
            <dc:title>RRZE</dc:title>
          </cc:Agent>
        </dc:publisher>
        <dc:contributor>
          <cc:Agent>
            <dc:title>Ute Weber,
Hendrik Eggers</dc:title>
          </cc:Agent>
        </dc:contributor>
        <cc:license
           rdf:resource="http://creativecommons.org/licenses/by-nc/3.0/" />
        <dc:date>Nov 2016</dc:date>
        <dc:source />
      </cc:Work>
      <cc:License
         rdf:about="http://creativecommons.org/licenses/by-nc/3.0/">
        <cc:permits
           rdf:resource="http://creativecommons.org/ns#Reproduction" />
        <cc:permits
           rdf:resource="http://creativecommons.org/ns#Distribution" />
        <cc:requires
           rdf:resource="http://creativecommons.org/ns#Notice" />
        <cc:requires
           rdf:resource="http://creativecommons.org/ns#Attribution" />
        <cc:prohibits
           rdf:resource="http://creativecommons.org/ns#CommercialUse" />
        <cc:permits
           rdf:resource="http://creativecommons.org/ns#DerivativeWorks" />
      </cc:License>
    </rdf:RDF>
  </metadata>
  <g
     inkscape:label="Ebene 1"
     inkscape:groupmode="layer"
     id="layer1"
     transform="translate(0,-1020.3621)">
    <path
       style="opacity:1;fill:#7a859c;fill-opacity:1;stroke:none;stroke-width:2;stroke-linecap:butt;stroke-linejoin:miter;stroke-miterlimit:4;stroke-dasharray:none;stroke-dashoffset:0;stroke-opacity:1"
       d="M 12.5 5 C 12.223 5 12 5.223 12 5.5 L 12 13 L 21 13 L 21 5.5 C 21 5.223 20.777 5 20.5 5 L 12.5 5 z M 16 15 L 16 18 L 4.5 18 C 4.223 18 4 18.223 4 18.5 L 4 23 L 2 23 C 1.4459781 23 1 23.446 1 24 L 1 29 C 1 29.554 1.4459781 30 2 30 L 7 30 C 7.5540219 30 8 29.554 8 29 L 8 24 C 8 23.446 7.5540219 23 7 23 L 5 23 L 5 19 L 16 19 L 16 23 L 14 23 C 13.445978 23 13 23.446 13 24 L 13 29 C 13 29.554 13.445978 30 14 30 L 19 30 C 19.554022 30 20 29.554 20 29 L 20 24 C 20 23.446 19.554022 23 19 23 L 17 23 L 17 19 L 28 19 L 28 23 L 26 23 C 25.445978 23 25 23.446 25 24 L 25 29 C 25 29.554 25.445978 30 26 30 L 31 30 C 31.554022 30 32 29.554 32 29 L 32 24 C 32 23.446 31.554022 23 31 23 L 29 23 L 29 18.5 C 29 18.223 28.777 18 28.5 18 L 17 18 L 17 15 L 16 15 z "
       transform="translate(0,1020.3621)"
       id="rect4240" />
    <rect
       style="opacity:1;fill:#99b000;fill-opacity:1;stroke:none;stroke-width:2;stroke-linecap:butt;stroke-linejoin:miter;stroke-miterlimit:4;stroke-dasharray:none;stroke-dashoffset:0;stroke-opacity:1"
       id="rect4395"
       width="31"
       height="11.000083"
       x="1"
       y="1023.3621"
       ry="0.45833677" />
    <rect
       style="opacity:1;fill:none;fill-opacity:1;stroke:none;stroke-width:2;stroke-linecap:butt;stroke-linejoin:miter;stroke-miterlimit:4;stroke-dasharray:none;stroke-dashoffset:0;stroke-opacity:1"
       id="rect4309"
       width="32"
       height="32"
       x="0"
       y="1020.3621"
       ry="0.5" />
    <path
       style="opacity:1;fill:#ffffff;fill-opacity:1;stroke:none;stroke-width:2;stroke-linecap:butt;stroke-linejoin:miter;stroke-miterlimit:4;stroke-dasharray:none;stroke-dashoffset:0;stroke-opacity:1"
       d="m 3.5,1024.3621 c -0.277,0 -0.5,0.223 -0.5,0.5 l 0,8 c 0,0.277 0.223,0.5 0.5,0.5 0.277,0 0.5,-0.223 0.5,-0.5 l 0,-7.5 3.5,0 c 0.277,0 0.5,-0.223 0.5,-0.5 0,-0.277 -0.223,-0.5 -0.5,-0.5 l -4,0 z m 6,0 c -0.277,0 -0.5,0.223 -0.5,0.5 l 0,8 c 0,0.277 0.223,0.5 0.5,0.5 0.277,0 0.5,-0.223 0.5,-0.5 l 0,-7.5 3.5,0 c 0.277,0 0.5,-0.223 0.5,-0.5 0,-0.277 -0.223,-0.5 -0.5,-0.5 l -4,0 z m 6,0 c -0.277,0 -0.5,0.223 -0.5,0.5 0,0.277 0.223,0.5 0.5,0.5 l 5.5,0 0,2.5 c 0,0.277 0.223,0.5 0.5,0.5 0.277,0 0.5,-0.223 0.5,-0.5 l 0,-3 c 0,-0.277 -0.223,-0.5 -0.5,-0.5 l -6,0 z m 9,0 c -0.277,0 -0.5,0.223 -0.5,0.5 0,0.277 0.223,0.5 0.5,0.5 l 5,0 c 0.277,0 0.5,-0.223 0.5,-0.5 0,-0.277 -0.223,-0.5 -0.5,-0.5 l -5,0 z m -7,3 c -0.277,0 -0.5,0.223 -0.5,0.5 l 0,2 c 0,0.277 0.223,0.5 0.5,0.5 l 2,0 c 0.277,0 0.5,-0.223 0.5,-0.5 l 0,-2 c 0,-0.277 -0.223,-0.5 -0.5,-0.5 l -2,0 z m 7,1 c -0.277,0 -0.5,0.223 -0.5,0.5 0,0.277 0.223,0.5 0.5,0.5 l 5,0 c 0.277,0 0.5,-0.223 0.5,-0.5 0,-0.277 -0.223,-0.5 -0.5,-0.5 l -5,0 z m -9,1 c -0.277,0 -0.5,0.223 -0.5,0.5 l 0,3 c 0,0.277 0.223,0.5 0.5,0.5 l 6,0 c 0.277,0 0.5,-0.223 0.5,-0.5 0,-0.277 -0.223,-0.5 -0.5,-0.5 l -5.5,0 0,-2.5 c 0,-0.277 -0.223,-0.5 -0.5,-0.5 z m 9,3 c -0.277,0 -0.5,0.223 -0.5,0.5 0,0.277 0.223,0.5 0.5,0.5 l 5,0 c 0.277,0 0.5,-0.223 0.5,-0.5 0,-0.277 -0.223,-0.5 -0.5,-0.5 l -5,0 z"
       id="rect4364"
       inkscape:connector-curvature="0" />
  </g>
</svg>
