<?xml version="1.0" encoding="UTF-8" standalone="no"?>
<!-- Created with Inkscape (http://www.inkscape.org/) -->

<svg
   xmlns:dc="http://purl.org/dc/elements/1.1/"
   xmlns:cc="http://creativecommons.org/ns#"
   xmlns:rdf="http://www.w3.org/1999/02/22-rdf-syntax-ns#"
   xmlns:svg="http://www.w3.org/2000/svg"
   xmlns="http://www.w3.org/2000/svg"
   xmlns:xlink="http://www.w3.org/1999/xlink"
   xmlns:sodipodi="http://sodipodi.sourceforge.net/DTD/sodipodi-0.dtd"
   xmlns:inkscape="http://www.inkscape.org/namespaces/inkscape"
   width="210mm"
   height="297mm"
   viewBox="0 0 744.09448819 1052.3622047"
   id="svg2"
   version="1.1"
   inkscape:version="0.91 r13725"
   inkscape:export-xdpi="4"
   inkscape:export-ydpi="4"
   sodipodi:docname="script.svg">
  <defs
     id="defs4">
    <linearGradient
       inkscape:collect="always"
       id="linearGradient4194">
      <stop
         style="stop-color:#4e505d;stop-opacity:1;"
         offset="0"
         id="stop4196" />
      <stop
         style="stop-color:#7a8597;stop-opacity:1"
         offset="1"
         id="stop4198" />
    </linearGradient>
    <linearGradient
       inkscape:collect="always"
       xlink:href="#linearGradient4194"
       id="linearGradient4200"
       x1="262"
       y1="668.36218"
       x2="502"
       y2="322.36221"
       gradientUnits="userSpaceOnUse"
       gradientTransform="translate(1.5355339,-0.05771996)" />
  </defs>
  <sodipodi:namedview
     id="base"
     pagecolor="#ffffff"
     bordercolor="#666666"
     borderopacity="1.0"
     inkscape:pageopacity="0.0"
     inkscape:pageshadow="2"
     inkscape:zoom="0.70710678"
     inkscape:cx="497.45995"
     inkscape:cy="425.71824"
     inkscape:document-units="px"
     inkscape:current-layer="layer1"
     showgrid="false"
     showguides="true"
     inkscape:guide-bbox="true"
     inkscape:window-width="1600"
     inkscape:window-height="837"
     inkscape:window-x="-4"
     inkscape:window-y="-4"
     inkscape:window-maximized="1"
     inkscape:snap-bbox="true"
     inkscape:bbox-nodes="true">
    <sodipodi:guide
       position="560,730.00002"
       orientation="0,1"
       id="guide3338" />
    <sodipodi:guide
       position="560,330.00001"
       orientation="0,1"
       id="guide3340" />
    <sodipodi:guide
       position="190,475.00001"
       orientation="1,0"
       id="guide3344" />
    <sodipodi:guide
       position="590,451.00001"
       orientation="1,0"
       id="guide3346" />
    <inkscape:grid
       type="xygrid"
       id="grid3440" />
  </sodipodi:namedview>
  <metadata
     id="metadata7">
    <rdf:RDF>
      <cc:Work
         rdf:about="">
        <dc:format>image/svg+xml</dc:format>
        <dc:type
           rdf:resource="http://purl.org/dc/dcmitype/StillImage" />
        <dc:title>script</dc:title>
        <dc:date>June 2015</dc:date>
        <dc:creator>
          <cc:Agent>
            <dc:title>Johannes Hechler</dc:title>
          </cc:Agent>
        </dc:creator>
        <dc:rights>
          <cc:Agent>
            <dc:title>Johannes Hechler</dc:title>
          </cc:Agent>
        </dc:rights>
        <dc:publisher>
          <cc:Agent>
            <dc:title>RRZE</dc:title>
          </cc:Agent>
        </dc:publisher>
        <dc:contributor>
          <cc:Agent>
            <dc:title>Ute Weber, Hendrik Eggers</dc:title>
          </cc:Agent>
        </dc:contributor>
        <cc:license
           rdf:resource="http://creativecommons.org/licenses/by-sa/3.0/" />
        <dc:subject>
          <rdf:Bag>
            <rdf:li>script</rdf:li>
            <rdf:li>write</rdf:li>
            <rdf:li>run</rdf:li>
          </rdf:Bag>
        </dc:subject>
      </cc:Work>
      <cc:License
         rdf:about="http://creativecommons.org/licenses/by-sa/3.0/">
        <cc:permits
           rdf:resource="http://creativecommons.org/ns#Reproduction" />
        <cc:permits
           rdf:resource="http://creativecommons.org/ns#Distribution" />
        <cc:requires
           rdf:resource="http://creativecommons.org/ns#Notice" />
        <cc:requires
           rdf:resource="http://creativecommons.org/ns#Attribution" />
        <cc:permits
           rdf:resource="http://creativecommons.org/ns#DerivativeWorks" />
        <cc:requires
           rdf:resource="http://creativecommons.org/ns#ShareAlike" />
      </cc:License>
    </rdf:RDF>
  </metadata>
  <g
     inkscape:label="Ebene 1"
     inkscape:groupmode="layer"
     id="layer1">
    <g
       id="g4188">
      <path
         sodipodi:nodetypes="ccccccsccccccccsccccccccc"
         inkscape:connector-curvature="0"
         id="path4153"
         d="m 228.22889,322.3622 c 29.52417,8.024 43.82631,19.68564 41.14844,51.4375 l -41.0625,307.9707 -0.0859,0 c -1.82726,13.88163 5.05888,22.43982 20.57422,25.72071 l 7.12304,0 c 5.75773,-2.24122 9.30417,-4.52661 11.16993,-6.91797 2.01211,-2.57894 3.81501,-6.28917 2.82226,-16.65625 l -1.68164,-17.56641 245.03321,0 39.00585,-292.55078 c 1.6492,-34.95059 -10.39942,-47.1799 -41.14843,-51.4375 l -282.89844,0 z m -10.45313,11.46875 c -3.17669,0.0552 -6.21858,0.84361 -7.8164,3.22461 -4.26085,6.3493 6.15625,32.19531 6.15625,32.19531 l 40.7832,-0.64843 c 4.05172,-18.21433 -15.75002,-28.88914 -28.15625,-32.91993 0,0 -5.6723,-1.94349 -10.9668,-1.85156 z m 66.10743,344.55664 c 2.51075,26.21927 -10.4098,38.26512 -25.94336,43.94336 l 291.65625,0.125 c 21.80747,-5.7241 22.50683,-25.7163 20.27929,-44.06836 z"
         style="fill:url(#linearGradient4200);fill-opacity:1;fill-rule:evenodd;stroke:none;stroke-width:1px;stroke-linecap:butt;stroke-linejoin:miter;stroke-opacity:1" />
      <path
         id="rect4202"
         d="m 301,392.36133 c -4.986,0 -9,4.014 -9,9 0,4.986 4.014,9 9,9 l 212,0 c 4.986,0 9,-4.014 9,-9 0,-4.986 -4.014,-9 -9,-9 l -212,0 z m -7,56 c -4.986,0 -9,4.014 -9,9 0,4.986 4.014,9 9,9 l 153.23047,0 c 4.986,0 9,-4.014 9,-9 0,-4.986 -4.014,-9 -9,-9 l -153.23047,0 z m -9,58 c -4.986,0 -9,4.014 -9,9 0,4.986 4.014,9 9,9 l 212,0 c 4.986,0 9,-4.014 9,-9 0,-4.986 -4.014,-9 -9,-9 l -212,0 z"
         style="color:#252525;clip-rule:nonzero;display:inline;overflow:visible;visibility:visible;opacity:1;isolation:auto;mix-blend-mode:normal;color-interpolation:sRGB;color-interpolation-filters:linearRGB;solid-color:#252525;solid-opacity:1;fill:#ffffff;fill-opacity:1;fill-rule:nonzero;stroke:none;stroke-width:23;stroke-linecap:butt;stroke-linejoin:round;stroke-miterlimit:4;stroke-dasharray:none;stroke-dashoffset:0;stroke-opacity:1;color-rendering:auto;image-rendering:auto;shape-rendering:auto;text-rendering:auto;enable-background:accumulate"
         inkscape:connector-curvature="0" />
      <rect
         y="322.36221"
         x="190"
         height="400"
         width="400"
         id="rect4147"
         style="opacity:1;fill:none;fill-opacity:1;stroke:none;stroke-width:35;stroke-linejoin:round;stroke-miterlimit:4;stroke-dasharray:none;stroke-opacity:1" />
    </g>
  </g>
</svg>
