<?xml version="1.0" encoding="UTF-8" standalone="no"?>
<!-- Created with Inkscape (http://www.inkscape.org/) -->

<svg
   xmlns:dc="http://purl.org/dc/elements/1.1/"
   xmlns:cc="http://creativecommons.org/ns#"
   xmlns:rdf="http://www.w3.org/1999/02/22-rdf-syntax-ns#"
   xmlns:svg="http://www.w3.org/2000/svg"
   xmlns="http://www.w3.org/2000/svg"
   xmlns:sodipodi="http://sodipodi.sourceforge.net/DTD/sodipodi-0.dtd"
   xmlns:inkscape="http://www.inkscape.org/namespaces/inkscape"
   width="210mm"
   height="297mm"
   viewBox="0 0 744.09448819 1052.3622047"
   id="svg2"
   version="1.1"
   inkscape:version="0.91 r13725"
   inkscape:export-xdpi="4"
   inkscape:export-ydpi="4"
   sodipodi:docname="service.svg">
  <title
     id="title4155">service</title>
  <defs
     id="defs4" />
  <sodipodi:namedview
     id="base"
     pagecolor="#ffffff"
     bordercolor="#666666"
     borderopacity="1.0"
     inkscape:pageopacity="0.0"
     inkscape:pageshadow="2"
     inkscape:zoom="0.70710678"
     inkscape:cx="293.3088"
     inkscape:cy="440.4471"
     inkscape:document-units="px"
     inkscape:current-layer="layer1"
     showgrid="false"
     showguides="true"
     inkscape:guide-bbox="true"
     inkscape:window-width="1366"
     inkscape:window-height="721"
     inkscape:window-x="-4"
     inkscape:window-y="-4"
     inkscape:window-maximized="1">
    <sodipodi:guide
       position="560,730.00002"
       orientation="0,1"
       id="guide3338" />
    <sodipodi:guide
       position="560,330.00001"
       orientation="0,1"
       id="guide3340" />
    <sodipodi:guide
       position="190,475.00001"
       orientation="1,0"
       id="guide3344" />
    <sodipodi:guide
       position="590,451.00001"
       orientation="1,0"
       id="guide3346" />
    <inkscape:grid
       type="xygrid"
       id="grid3440" />
  </sodipodi:namedview>
  <metadata
     id="metadata7">
    <rdf:RDF>
      <cc:Work
         rdf:about="">
        <dc:format>image/svg+xml</dc:format>
        <dc:type
           rdf:resource="http://purl.org/dc/dcmitype/StillImage" />
        <dc:title>service</dc:title>
        <dc:date>June 2015</dc:date>
        <dc:creator>
          <cc:Agent>
            <dc:title>Johannes Hechler</dc:title>
          </cc:Agent>
        </dc:creator>
        <dc:rights>
          <cc:Agent>
            <dc:title>Johannes Hechler</dc:title>
          </cc:Agent>
        </dc:rights>
        <dc:publisher>
          <cc:Agent>
            <dc:title>RRZE</dc:title>
          </cc:Agent>
        </dc:publisher>
        <dc:contributor>
          <cc:Agent>
            <dc:title>Ute Weber, Hendrik Eggers, Joanna Barbach</dc:title>
          </cc:Agent>
        </dc:contributor>
        <dc:subject>
          <rdf:Bag>
            <rdf:li>service</rdf:li>
            <rdf:li>shacking hands</rdf:li>
            <rdf:li>contract</rdf:li>
          </rdf:Bag>
        </dc:subject>
        <cc:license
           rdf:resource="http://creativecommons.org/licenses/by-sa/3.0/" />
      </cc:Work>
      <cc:License
         rdf:about="http://creativecommons.org/licenses/by-sa/3.0/">
        <cc:permits
           rdf:resource="http://creativecommons.org/ns#Reproduction" />
        <cc:permits
           rdf:resource="http://creativecommons.org/ns#Distribution" />
        <cc:requires
           rdf:resource="http://creativecommons.org/ns#Notice" />
        <cc:requires
           rdf:resource="http://creativecommons.org/ns#Attribution" />
        <cc:permits
           rdf:resource="http://creativecommons.org/ns#DerivativeWorks" />
        <cc:requires
           rdf:resource="http://creativecommons.org/ns#ShareAlike" />
      </cc:License>
    </rdf:RDF>
  </metadata>
  <g
     inkscape:label="Ebene 1"
     inkscape:groupmode="layer"
     id="layer1">
    <rect
       style="opacity:1;fill:none;fill-opacity:1;stroke:none;stroke-width:23;stroke-linecap:butt;stroke-linejoin:round;stroke-miterlimit:4;stroke-dasharray:none;stroke-opacity:1"
       id="rect4160"
       width="400"
       height="400"
       x="190"
       y="322.36221" />
    <path
       style="color:#252525;clip-rule:nonzero;display:inline;overflow:visible;visibility:visible;opacity:1;isolation:auto;mix-blend-mode:normal;color-interpolation:sRGB;color-interpolation-filters:linearRGB;solid-color:#252525;solid-opacity:1;fill:#99b000;fill-opacity:1;fill-rule:nonzero;stroke:none;stroke-width:23;stroke-linecap:butt;stroke-linejoin:round;stroke-miterlimit:4;stroke-dasharray:none;stroke-dashoffset:0;stroke-opacity:1;color-rendering:auto;image-rendering:auto;shape-rendering:auto;text-rendering:auto;enable-background:accumulate"
       d="m 327.95128,439.81889 c -11.30555,1.59077 -31.15303,6.63921 -43.09097,20.4895 l -24.41417,40.2344 c -17.36428,20.14583 4.34913,47.85888 26.15897,63.08072 l 100.21799,69.9431 c 0.61344,0.42812 1.25384,0.78222 1.87928,1.17783 l 15.70246,8.315 c 8.57286,4.5396 24.21673,9.15965 29.62739,1.35191 3.43646,-4.95889 4.49919,-10.21059 2.30671,-15.44611 7.70424,3.95302 17.27071,1.71143 22.343,-5.60796 4.92622,-7.10862 3.88237,-16.50584 -2.04994,-22.37855 l 2.14198,1.48773 c 7.97319,5.52539 18.84009,3.5549 24.36544,-4.41832 5.52535,-7.97323 3.55487,-18.84008 -4.41835,-24.36546 l -6.50431,-4.51099 c 7.89724,4.93761 16.99231,-2.28898 19.77245,-7.44517 4.60382,-8.5385 1.35784,-20.83745 -6.74319,-26.17361 l -16.3975,-10.80106 c -1.4968,-1.23747 -3.06311,-2.41987 -4.76429,-3.47507 L 351.44232,448.23106 c -1.46946,-0.91143 15.64236,-8.55544 14.19151,-9.31456 -6.58566,-3.44574 -26.37702,-0.68836 -37.68255,0.90239 z"
       id="rect4149"
       inkscape:connector-curvature="0"
       sodipodi:nodetypes="zcccscsscsccsccsscccsz" />
    <path
       style="color:#252525;clip-rule:nonzero;display:inline;overflow:visible;visibility:visible;opacity:1;isolation:auto;mix-blend-mode:normal;color-interpolation:sRGB;color-interpolation-filters:linearRGB;solid-color:#252525;solid-opacity:1;fill:#4e505d;fill-opacity:1;fill-rule:nonzero;stroke:#ffffff;stroke-width:18;stroke-linecap:butt;stroke-linejoin:round;stroke-miterlimit:4;stroke-dasharray:none;stroke-dashoffset:0;stroke-opacity:1;color-rendering:auto;image-rendering:auto;shape-rendering:auto;text-rendering:auto;enable-background:accumulate"
       d="m 333.60636,457.82161 76.68098,-39.23122 c 10.03933,-5.13628 22.21943,-1.75018 27.60736,8.15636 5.38793,9.90655 1.88298,22.47108 -8.15635,27.60737 l -76.68097,39.2312 c -10.03934,5.13628 -22.21944,1.7502 -27.60737,-8.15635 -5.38793,-9.90655 -1.88298,-22.47108 8.15635,-27.60736 z"
       id="rect4190"
       inkscape:connector-curvature="0"
       sodipodi:nodetypes="sssssss" />
    <path
       style="color:#252525;clip-rule:nonzero;display:inline;overflow:visible;visibility:visible;opacity:0.98999999;isolation:auto;mix-blend-mode:normal;color-interpolation:sRGB;color-interpolation-filters:linearRGB;solid-color:#252525;solid-opacity:1;fill:#4e505d;fill-opacity:1;fill-rule:nonzero;stroke:#ffffff;stroke-width:18;stroke-linecap:butt;stroke-linejoin:round;stroke-miterlimit:4;stroke-dasharray:none;stroke-dashoffset:0;stroke-opacity:1;color-rendering:auto;image-rendering:auto;shape-rendering:auto;text-rendering:auto;enable-background:accumulate"
       d="m 413.18395,606.15716 c 0.66161,-5.57721 -1.37863,-11.36567 -5.97066,-15.32443 -7.34731,-6.33392 -18.36123,-5.51833 -24.69521,1.82895 l -5.09225,5.91076 c 5.66607,-7.32986 4.6862,-17.81978 -2.41741,-23.94373 -6.55056,-5.64711 -16.01215,-5.59959 -22.47674,-0.31834 l 1.705,-1.97342 c 6.334,-7.34731 5.51831,-18.36123 -1.82894,-24.6952 -4.65279,-4.01111 -15.51526,-0.38524 -20.98934,1.18118 5.12639,-7.27622 4.09866,-17.22994 -2.6503,-23.0481 -7.19479,-6.2025 -18.08535,-5.28487 -24.41932,2.06238 l -29.94311,35.49164 c -6.33394,7.34731 -5.64174,18.25926 1.55308,24.46175 4.56819,3.9381 10.62258,4.97928 16.05853,3.35227 -4.74153,7.24527 -3.51974,16.99475 3.22483,22.8092 6.55057,5.64707 16.01216,5.59955 22.47675,0.31833 l -1.70499,1.97346 c -6.33401,7.34728 -5.51834,18.36123 1.82896,24.6952 7.34724,6.33397 18.36117,5.51835 24.69516,-1.82897 l 5.09227,-5.91071 c -5.66606,7.32987 -4.68624,17.81979 2.41737,23.94371 7.34731,6.334 18.36123,5.51835 24.69524,-1.82889 l 34.29939,-39.78623 c 2.37521,-2.75525 3.74475,-6.02438 4.14169,-9.37077 z"
       id="rect4182-8"
       inkscape:connector-curvature="0"
       sodipodi:nodetypes="csccsccscsccscsccsccssccc" />
    <path
       style="fill:#4e505d;fill-rule:evenodd;stroke:none;stroke-width:1px;stroke-linecap:butt;stroke-linejoin:miter;stroke-opacity:1"
       d="M 549.79887,411.88551 468.0463,433.11515 436.47342,417.6365 c 0,0 -4.35697,-1.02784 -10.45819,-0.62246 -5.05034,-1.55864 -10.61144,-1.00652 -15.72492,1.57319 l -76.32037,38.50299 c -10.06829,5.07937 -13.54109,17.69926 -8.15316,27.60578 5.38793,9.90655 17.69921,13.54791 27.60577,8.15998 l 46.01223,-22.92637 85.71994,55.93564 86.45162,-31.12588 z"
       id="path4224"
       inkscape:connector-curvature="0"
       sodipodi:nodetypes="ccccsssccccc" />
    <path
       style="fill:#99b000;fill-rule:evenodd;stroke:none;stroke-width:1px;stroke-linecap:butt;stroke-linejoin:miter;stroke-opacity:1"
       d="m 253.04258,413.94339 -45.142,88.34654 62.36764,29.74836 41.90264,-84.31039 z"
       id="path4231"
       inkscape:connector-curvature="0"
       sodipodi:nodetypes="ccccc" />
    <path
       inkscape:connector-curvature="0"
       id="path4233"
       d="m 413.18395,606.15717 c 0.66161,-5.57721 -1.37863,-11.36567 -5.97066,-15.32443 -7.34731,-6.33393 -18.36123,-5.51834 -24.69521,1.82894 l -5.09225,5.91077 c 5.66607,-7.32986 4.6862,-17.81979 -2.4174,-23.94373 -6.55057,-5.64712 -16.01216,-5.5996 -22.47675,-0.31834 l 1.705,-1.97342 c 6.334,-7.34732 5.51831,-18.36124 -1.82894,-24.6952 -4.65279,-4.01112 -14.41932,-0.75055 -19.8934,0.81587 5.12639,-7.27623 4.09865,-17.22994 -2.6503,-23.0481 -7.19479,-6.20251 -18.45067,-5.65018 -24.78464,1.69707 l -30.67372,36.22225 c -6.33395,7.34731 -5.64175,18.25926 1.55307,24.46176 4.56819,3.93809 10.62259,4.97927 16.05853,3.35227 -4.74152,7.24527 -3.51974,16.99475 3.22483,22.8092 6.55057,5.64707 16.01216,5.59955 22.47675,0.31832 l -1.70499,1.97347 c -6.334,7.34728 -5.51834,18.36123 1.82896,24.69519 7.34724,6.33397 18.36117,5.51835 24.69517,-1.82896 l 5.09226,-5.91072 c -5.66606,7.32987 -4.68624,17.8198 2.41737,23.94372 7.34731,6.33399 18.36123,5.51834 24.69524,-1.8289 l 34.2994,-39.78622 c 2.3752,-2.75525 3.74474,-6.02439 4.14168,-9.37078 z"
       style="color:#252525;clip-rule:nonzero;display:inline;overflow:visible;visibility:visible;opacity:1;isolation:auto;mix-blend-mode:normal;color-interpolation:sRGB;color-interpolation-filters:linearRGB;solid-color:#252525;solid-opacity:1;fill:#4e505d;fill-opacity:1;fill-rule:nonzero;stroke:none;stroke-width:1;stroke-linecap:butt;stroke-linejoin:round;stroke-miterlimit:4;stroke-dasharray:none;stroke-dashoffset:0;stroke-opacity:1;color-rendering:auto;image-rendering:auto;shape-rendering:auto;text-rendering:auto;enable-background:accumulate"
       sodipodi:nodetypes="csccsccscsccscsccsccssccc" />
  </g>
</svg>
