<?xml version="1.0" encoding="UTF-8" standalone="no"?>
<!-- Created with Inkscape (http://www.inkscape.org/) -->

<svg
   xmlns:dc="http://purl.org/dc/elements/1.1/"
   xmlns:cc="http://creativecommons.org/ns#"
   xmlns:rdf="http://www.w3.org/1999/02/22-rdf-syntax-ns#"
   xmlns:svg="http://www.w3.org/2000/svg"
   xmlns="http://www.w3.org/2000/svg"
   xmlns:xlink="http://www.w3.org/1999/xlink"
   xmlns:sodipodi="http://sodipodi.sourceforge.net/DTD/sodipodi-0.dtd"
   xmlns:inkscape="http://www.inkscape.org/namespaces/inkscape"
   width="210mm"
   height="297mm"
   viewBox="0 0 744.09448819 1052.3622047"
   id="svg2"
   version="1.1"
   inkscape:version="0.91 r13725"
   inkscape:export-xdpi="4"
   inkscape:export-ydpi="4"
   sodipodi:docname="shared-mailbox.svg">
  <defs
     id="defs4">
    <linearGradient
       inkscape:collect="always"
       id="linearGradient4196">
      <stop
         style="stop-color:#5a6578;stop-opacity:1;"
         offset="0"
         id="stop4198" />
      <stop
         style="stop-color:#9397a2;stop-opacity:1"
         offset="1"
         id="stop4200" />
    </linearGradient>
    <linearGradient
       id="linearGradient2224">
      <stop
         id="stop2226"
         offset="0"
         style="stop-color:#7c7c7c;stop-opacity:1;" />
      <stop
         id="stop2228"
         offset="1"
         style="stop-color:#b8b8b8;stop-opacity:1;" />
    </linearGradient>
    <linearGradient
       id="linearGradient15218">
      <stop
         id="stop15220"
         offset="0"
         style="stop-color:#eeeeef;stop-opacity:1;" />
      <stop
         id="stop2736"
         offset="0.59928656"
         style="stop-color:#d3d7cf;stop-opacity:1;" />
      <stop
         id="stop2738"
         offset="0.82758623"
         style="stop-color:#ffffff;stop-opacity:1;" />
      <stop
         id="stop15222"
         offset="1"
         style="stop-color:#d3d7cf;stop-opacity:1;" />
    </linearGradient>
    <pattern
       y="0"
       x="0"
       height="6"
       width="6"
       patternUnits="userSpaceOnUse"
       id="EMFhbasepattern" />
    <linearGradient
       gradientTransform="matrix(1.907357,0,0,1.907357,-541.11042,-743.39515)"
       inkscape:collect="always"
       xlink:href="#linearGradient4196"
       id="linearGradient4225"
       x1="446.92957"
       y1="707.06952"
       x2="552.96887"
       y2="592.8045"
       gradientUnits="userSpaceOnUse" />
  </defs>
  <sodipodi:namedview
     id="base"
     pagecolor="#ffffff"
     bordercolor="#666666"
     borderopacity="1.0"
     inkscape:pageopacity="0.0"
     inkscape:pageshadow="2"
     inkscape:zoom="0.3535534"
     inkscape:cx="902.23708"
     inkscape:cy="157.37714"
     inkscape:document-units="px"
     inkscape:current-layer="layer1"
     showgrid="false"
     showguides="true"
     inkscape:guide-bbox="true"
     inkscape:window-width="1366"
     inkscape:window-height="721"
     inkscape:window-x="-4"
     inkscape:window-y="-4"
     inkscape:window-maximized="1">
    <sodipodi:guide
       position="315.53572,730.17859"
       orientation="0,1"
       id="guide3338" />
    <sodipodi:guide
       position="351.25,330.17858"
       orientation="0,1"
       id="guide3340" />
    <sodipodi:guide
       position="189.10714,408.8393"
       orientation="1,0"
       id="guide3344" />
    <sodipodi:guide
       position="589.04521,468.07945"
       orientation="1,0"
       id="guide3346" />
    <inkscape:grid
       type="xygrid"
       id="grid3440" />
    <sodipodi:guide
       position="589.04521,378.30213"
       orientation="1,0"
       id="guide3411" />
  </sodipodi:namedview>
  <metadata
     id="metadata7">
    <rdf:RDF>
      <cc:Work
         rdf:about="">
        <dc:format>image/svg+xml</dc:format>
        <dc:type
           rdf:resource="http://purl.org/dc/dcmitype/StillImage" />
        <dc:title>shared mailbox</dc:title>
      </cc:Work>
    </rdf:RDF>
  </metadata>
  <g
     inkscape:label="Ebene 1"
     inkscape:groupmode="layer"
     id="layer1">
    <rect
       style="fill:none;fill-rule:evenodd;stroke:none;stroke-width:1px;stroke-linecap:butt;stroke-linejoin:miter;stroke-opacity:1"
       id="rect3336"
       width="400"
       height="400"
       x="189.14485"
       y="322.27005"
       inkscape:export-xdpi="4.9499998"
       inkscape:export-ydpi="4.9499998" />
    <path
       style="fill:#ffffff;fill-opacity:1;stroke:none"
       d="m 290.45332,426.06097 c 62.47941,0 124.95884,0 187.43825,0 4.72534,-10e-6 4.72534,21.0078 0,21.00781 -62.47941,0 -124.95884,0 -187.43825,0 -6.30046,-1e-5 -6.30046,-21.00782 0,-21.00781 z"
       id="rect4248"
       inkscape:connector-curvature="0"
       sodipodi:nodetypes="ccccc"
       inkscape:export-xdpi="4.9499998"
       inkscape:export-ydpi="4.9499998" />
    <path
       style="fill:#ffffff;fill-opacity:1;stroke:none"
       d="m 289.9664,462.98002 c 56.03531,0 112.0706,0 168.10591,0 4.23795,-1e-5 4.23795,21.00781 0,21.00782 -56.03531,0 -112.0706,0 -168.10591,0 -5.65062,-1e-5 -5.65062,-21.00783 0,-21.00782 z"
       id="rect4248-4"
       inkscape:connector-curvature="0"
       sodipodi:nodetypes="ccccc"
       inkscape:export-xdpi="4.9499998"
       inkscape:export-ydpi="4.9499998" />
    <path
       style="fill:#ffffff;fill-opacity:1;stroke:none"
       d="m 290.61133,499.39453 c -6.00974,-5.5e-4 -6.00974,21.00627 0,21.00781 l 129.59273,0.0331 c 12.37507,-9.93775 26.52646,-17.25795 42.05571,-21.02533 z m 181.98047,14.10156 c -8.12346,1.23369 -15.87038,3.5924 -23.08203,6.90625 l 19.89062,0 c 1.72878,0 2.78878,-3.09598 3.19141,-6.90625 z"
       id="rect4248-1"
       inkscape:connector-curvature="0"
       sodipodi:nodetypes="ssccsccsc" />
    <path
       style="fill:#ffffff;fill-opacity:1;stroke:none"
       d="m 289.92773,536.83789 c -5.59932,0 -5.59932,21.00903 0,21.00781 l 101.74893,-0.0221 c 3.35975,-7.52179 7.95235,-14.545 12.62818,-20.98571 z m 135.45899,0 c -6.40353,6.11287 -11.88403,13.18192 -16.17774,21.00781 l 47.29883,0 c 4.19949,-10e-6 4.19949,-21.00782 0,-21.00781 z"
       id="rect4248-1-5"
       inkscape:connector-curvature="0"
       sodipodi:nodetypes="ssccsccssc" />
    <g
       id="g4194" />
    <path
       style="fill:url(#linearGradient4225);fill-opacity:1;fill-rule:evenodd;stroke:none;stroke-width:1px;stroke-linecap:butt;stroke-linejoin:miter;stroke-opacity:1"
       d="m 391.38224,359.67185 c -59.0625,0 -118.125,4.375 -175,13.125 l 0,43.75 175,96.25 175,-96.25 0,-43.75 c -56.875,-8.75 -115.9375,-13.125 -175,-13.125 z m -175,83.125 0,166.25 c 117.18822,9.38796 234.24669,16.44028 350,0 l 0,-166.25 -175,96.25 -175,-96.25 z"
       id="path4169"
       inkscape:connector-curvature="0" />
    <g
       id="g4289"
       transform="matrix(0.59634201,0,0,0.59634201,24.105845,296.7424)"
       style="fill:#abbe24">
      <path
         sodipodi:nodetypes="cccsccccccscsc"
         inkscape:connector-curvature="0"
         id="path2176"
         d="m 354.64258,460.41602 c -0.11745,0.1039 -0.22449,0.21556 -0.3457,0.3164 l -6.54297,3.54492 c -42.67576,25.28071 -72.76172,86.25893 -72.76172,157.46875 0,15.29493 1.39507,30.1142 3.99804,44.21289 3.86098,8.63739 13.56182,14.96807 25.18555,15.79493 l 0,0.0957 172.76172,0 0,-0.008 c 13.04649,-0.18416 24.03463,-7.28341 27.72656,-17.01563 2.4704,-13.75919 3.79102,-28.19351 3.79102,-43.08008 0,-74.54936 -32.9771,-137.88441 -78.85156,-160.78515 -10.95259,6.14942 -23.5778,9.67773 -37.00391,9.67773 -13.81748,10e-6 -26.78697,-3.73654 -37.95703,-10.22265 z"
         style="fill:#abbe24;fill-opacity:1;stroke:none;stroke-width:41.15159225;stroke-linecap:round;stroke-linejoin:round;stroke-opacity:1" />
      <ellipse
         ry="65.293182"
         rx="65.647316"
         cx="392.98022"
         cy="395.83826"
         id="circle2187-6"
         style="fill:#abbe24;fill-opacity:1;stroke:none;stroke-width:14;stroke-miterlimit:4;stroke-dasharray:none;stroke-opacity:1" />
    </g>
    <path
       id="path4200"
       d="M 259.45703 492.85938 A 39.148251 38.937069 0 0 0 220.30859 531.79688 A 39.148251 38.937069 0 0 0 259.45703 570.73438 A 39.148251 38.937069 0 0 0 298.60547 531.79688 A 39.148251 38.937069 0 0 0 259.45703 492.85938 z M 520.1875 492.91211 A 39.139183 38.928047 0 0 0 481.04883 531.83984 A 39.139183 38.928047 0 0 0 520.1875 570.76758 A 39.139183 38.928047 0 0 0 559.32617 531.83984 A 39.139183 38.928047 0 0 0 520.1875 492.91211 z M 236.59375 570.30664 L 236.59375 570.30859 C 236.52375 570.37059 236.46095 570.43595 236.38867 570.49609 L 232.48633 572.61133 C 207.03698 587.68728 189.0957 624.05023 189.0957 666.51562 C 189.0957 675.63663 189.92626 684.47322 191.47852 692.88086 C 193.78098 698.0317 199.56633 701.80769 206.49805 702.30078 L 206.49805 702.35742 L 309.52344 702.35742 L 309.52344 702.35352 C 317.30361 702.24369 323.85694 698.00881 326.05859 692.20508 C 327.5318 683.9999 328.31836 675.39311 328.31836 666.51562 C 328.31836 622.05871 308.65374 584.28948 281.29688 570.63281 C 274.76538 574.29997 267.23507 576.4043 259.22852 576.4043 C 250.98857 576.4043 243.25493 574.17458 236.59375 570.30664 z M 497.33008 570.33984 C 497.26008 570.40184 497.19727 570.46918 497.125 570.5293 L 493.22461 572.64258 C 467.78116 587.71503 449.84375 624.07177 449.84375 666.52734 C 449.84375 675.64624 450.67466 684.48102 452.22656 692.88672 C 454.52849 698.03636 460.31208 701.80975 467.24219 702.30273 L 467.24219 702.36133 L 570.24414 702.36133 L 570.24414 702.35547 C 578.02251 702.24568 584.57229 698.01333 586.77344 692.21094 C 588.2463 684.00766 589.03516 675.40082 589.03516 666.52539 C 589.03516 622.07877 569.37397 584.31953 542.02344 570.66602 C 535.49347 574.33233 527.96564 576.43555 519.96094 576.43555 C 511.7229 576.43556 503.98971 574.20688 497.33008 570.33984 z "
       style="fill:#abbe24;fill-opacity:1;stroke:#ffffff;stroke-width:30;stroke-linecap:round;stroke-linejoin:round;stroke-miterlimit:4;stroke-dasharray:none;stroke-opacity:1" />
    <path
       style="fill:#abbe24;fill-opacity:1;stroke:none;stroke-width:30;stroke-linecap:round;stroke-linejoin:round;stroke-miterlimit:4;stroke-dasharray:none;stroke-opacity:1"
       d="M 259.45703 492.85938 A 39.148251 38.937069 0 0 0 220.30859 531.79688 A 39.148251 38.937069 0 0 0 259.45703 570.73438 A 39.148251 38.937069 0 0 0 298.60547 531.79688 A 39.148251 38.937069 0 0 0 259.45703 492.85938 z M 520.1875 492.91211 A 39.139183 38.928047 0 0 0 481.04883 531.83984 A 39.139183 38.928047 0 0 0 520.1875 570.76758 A 39.139183 38.928047 0 0 0 559.32617 531.83984 A 39.139183 38.928047 0 0 0 520.1875 492.91211 z M 236.59375 570.30664 L 236.59375 570.30859 C 236.52375 570.37059 236.46095 570.43595 236.38867 570.49609 L 232.48633 572.61133 C 207.03698 587.68728 189.0957 624.05023 189.0957 666.51562 C 189.0957 675.63663 189.92626 684.47322 191.47852 692.88086 C 193.78098 698.0317 199.56633 701.80769 206.49805 702.30078 L 206.49805 702.35742 L 309.52344 702.35742 L 309.52344 702.35352 C 317.30361 702.24369 323.85694 698.00881 326.05859 692.20508 C 327.5318 683.9999 328.31836 675.39311 328.31836 666.51562 C 328.31836 622.05871 308.65374 584.28948 281.29688 570.63281 C 274.76538 574.29997 267.23507 576.4043 259.22852 576.4043 C 250.98857 576.4043 243.25493 574.17458 236.59375 570.30664 z M 497.33008 570.33984 C 497.26008 570.40184 497.19727 570.46918 497.125 570.5293 L 493.22461 572.64258 C 467.78116 587.71503 449.84375 624.07177 449.84375 666.52734 C 449.84375 675.64624 450.67466 684.48102 452.22656 692.88672 C 454.52849 698.03636 460.31208 701.80975 467.24219 702.30273 L 467.24219 702.36133 L 570.24414 702.36133 L 570.24414 702.35547 C 578.02251 702.24568 584.57229 698.01333 586.77344 692.21094 C 588.2463 684.00766 589.03516 675.40082 589.03516 666.52539 C 589.03516 622.07877 569.37397 584.31953 542.02344 570.66602 C 535.49347 574.33233 527.96564 576.43555 519.96094 576.43555 C 511.7229 576.43556 503.98971 574.20688 497.33008 570.33984 z "
       id="path4213" />
  </g>
</svg>
