<?xml version="1.0" encoding="UTF-8" standalone="no"?>
<!-- Created with Inkscape (http://www.inkscape.org/) -->

<svg
   xmlns:dc="http://purl.org/dc/elements/1.1/"
   xmlns:cc="http://creativecommons.org/ns#"
   xmlns:rdf="http://www.w3.org/1999/02/22-rdf-syntax-ns#"
   xmlns:svg="http://www.w3.org/2000/svg"
   xmlns="http://www.w3.org/2000/svg"
   xmlns:xlink="http://www.w3.org/1999/xlink"
   xmlns:sodipodi="http://sodipodi.sourceforge.net/DTD/sodipodi-0.dtd"
   xmlns:inkscape="http://www.inkscape.org/namespaces/inkscape"
   width="210mm"
   height="297mm"
   viewBox="0 0 744.09448819 1052.3622047"
   id="svg2"
   version="1.1"
   inkscape:version="0.91 r13725"
   inkscape:export-xdpi="4"
   inkscape:export-ydpi="4"
   sodipodi:docname="single-sign-on.svg">
  <title
     id="title4161">single sign on</title>
  <defs
     id="defs4">
    <linearGradient
       inkscape:collect="always"
       xlink:href="#linearGradient4163"
       id="linearGradient4169"
       x1="189.10713"
       y1="722.18365"
       x2="589.04523"
       y2="374.95392"
       gradientUnits="userSpaceOnUse"
       gradientTransform="matrix(0.96197629,0,0,0.96250447,15.336352,19.74429)" />
    <linearGradient
       inkscape:collect="always"
       id="linearGradient4163">
      <stop
         style="stop-color:#4e505d;stop-opacity:1;"
         offset="0"
         id="stop4165" />
      <stop
         style="stop-color:#7a8597;stop-opacity:1"
         offset="1"
         id="stop4167" />
    </linearGradient>
  </defs>
  <sodipodi:namedview
     id="base"
     pagecolor="#ffffff"
     bordercolor="#666666"
     borderopacity="1.0"
     inkscape:pageopacity="0.0"
     inkscape:pageshadow="2"
     inkscape:zoom="0.70710678"
     inkscape:cx="261.76522"
     inkscape:cy="547.65289"
     inkscape:document-units="px"
     inkscape:current-layer="layer1"
     showgrid="false"
     showguides="true"
     inkscape:guide-bbox="true"
     inkscape:window-width="1600"
     inkscape:window-height="837"
     inkscape:window-x="-4"
     inkscape:window-y="-4"
     inkscape:window-maximized="1"
     inkscape:snap-bbox="true"
     inkscape:bbox-nodes="true">
    <sodipodi:guide
       position="560,730.00002"
       orientation="0,1"
       id="guide3338" />
    <sodipodi:guide
       position="560,330.00001"
       orientation="0,1"
       id="guide3340" />
    <sodipodi:guide
       position="190,475.00001"
       orientation="1,0"
       id="guide3344" />
    <sodipodi:guide
       position="590,451.00001"
       orientation="1,0"
       id="guide3346" />
    <inkscape:grid
       type="xygrid"
       id="grid3440" />
  </sodipodi:namedview>
  <metadata
     id="metadata7">
    <rdf:RDF>
      <cc:Work
         rdf:about="">
        <dc:format>image/svg+xml</dc:format>
        <dc:type
           rdf:resource="http://purl.org/dc/dcmitype/StillImage" />
        <dc:title>single sign on</dc:title>
        <dc:date>June 2015</dc:date>
        <dc:creator>
          <cc:Agent>
            <dc:title>Johannes Hechler</dc:title>
          </cc:Agent>
        </dc:creator>
        <dc:rights>
          <cc:Agent>
            <dc:title>Johannes Hechler</dc:title>
          </cc:Agent>
        </dc:rights>
        <dc:publisher>
          <cc:Agent>
            <dc:title>RRZE</dc:title>
          </cc:Agent>
        </dc:publisher>
        <dc:contributor>
          <cc:Agent>
            <dc:title>Ute Weber, Hendrik Eggers, Joanna Barbach</dc:title>
          </cc:Agent>
        </dc:contributor>
        <dc:subject>
          <rdf:Bag>
            <rdf:li>globe</rdf:li>
            <rdf:li>world</rdf:li>
            <rdf:li>single sign on</rdf:li>
            <rdf:li>sign on</rdf:li>
            <rdf:li>log in</rdf:li>
            <rdf:li>log on</rdf:li>
          </rdf:Bag>
        </dc:subject>
        <cc:license
           rdf:resource="http://creativecommons.org/licenses/by-sa/3.0/" />
      </cc:Work>
      <cc:License
         rdf:about="http://creativecommons.org/licenses/by-sa/3.0/">
        <cc:permits
           rdf:resource="http://creativecommons.org/ns#Reproduction" />
        <cc:permits
           rdf:resource="http://creativecommons.org/ns#Distribution" />
        <cc:requires
           rdf:resource="http://creativecommons.org/ns#Notice" />
        <cc:requires
           rdf:resource="http://creativecommons.org/ns#Attribution" />
        <cc:permits
           rdf:resource="http://creativecommons.org/ns#DerivativeWorks" />
        <cc:requires
           rdf:resource="http://creativecommons.org/ns#ShareAlike" />
      </cc:License>
    </rdf:RDF>
  </metadata>
  <g
     inkscape:label="Ebene 1"
     inkscape:groupmode="layer"
     id="layer1">
    <g
       id="g4211">
      <flowRoot
         transform="translate(0.85514374,0.0921516)"
         style="font-style:normal;font-weight:normal;font-size:40px;line-height:125%;font-family:sans-serif;letter-spacing:0px;word-spacing:0px;fill:#252525;fill-opacity:1;stroke:none;stroke-width:1px;stroke-linecap:butt;stroke-linejoin:miter;stroke-opacity:1"
         id="flowRoot4169"
         xml:space="preserve"><flowRegion
           id="flowRegion4171"><rect
             y="427.07962"
             x="89.541069"
             height="88.78862"
             width="56.433445"
             id="rect4173" /></flowRegion><flowPara
           id="flowPara4175" /></flowRoot>      <rect
         inkscape:export-ydpi="4.9499998"
         inkscape:export-xdpi="4.9499998"
         y="322.36221"
         x="190"
         height="400"
         width="400"
         id="rect3336"
         style="fill:none;fill-rule:evenodd;stroke:none;stroke-width:1px;stroke-linecap:butt;stroke-linejoin:miter;stroke-opacity:1" />
      <path
         id="path5"
         d="M 389.32812 329.79883 C 363.22854 329.79883 338.42708 334.9474 314.60352 345.17383 C 267.28097 365.48247 232.42383 399.89693 212.08984 447.32227 C 201.90051 471.08218 196.93359 495.97403 196.93359 522.08789 C 196.93359 525.47342 197.02005 528.84085 197.1875 532.19141 C 198.58621 531.97549 200.01498 531.86133 201.46484 531.86133 L 220.57227 531.86133 C 220.39027 528.61243 220.29883 525.35366 220.29883 522.08789 C 220.29883 503.76513 223.24459 486.07647 228.92969 469.01562 L 284.08008 469.01562 C 281.34483 486.91602 280.07812 504.60986 280.07812 522.08789 C 280.07812 525.33669 280.13756 528.59617 280.22852 531.86133 L 303.62695 531.86133 C 303.51581 528.56644 303.44336 525.30044 303.44336 522.08789 C 303.44336 504.39832 304.91635 486.70519 308.07812 469.01562 L 377.53906 469.01562 L 377.53906 531.86133 L 401.32812 531.86133 L 401.32812 469.01562 L 470.78906 469.01562 C 473.95021 486.70519 475.42383 504.39832 475.42383 522.08789 C 475.42383 525.90308 475.33602 529.7813 475.17969 533.71289 C 486.13347 537.87719 494.125 548.58898 494.125 560.82812 L 494.125 597.91016 L 540.46875 597.91016 C 522.57748 634.34556 491.42065 663.20008 453.5332 678.99805 C 461.29111 669.26972 468.07433 658.15004 473.9082 645.71484 C 471.13659 646.62137 468.19611 647.11719 465.16016 647.11719 L 446.63867 647.11719 C 444.2924 651.27022 441.82168 655.23431 439.21484 658.99023 C 427.7277 675.54305 415.22216 685.73944 401.32812 689.52734 L 401.32812 647.11719 L 377.54102 647.11719 L 377.54102 689.52734 C 363.85773 685.52791 351.01792 675.41715 339.44141 658.99023 C 336.80107 655.2428 334.31083 651.27785 331.95508 647.11719 L 305.61914 647.11719 C 311.30293 658.989 317.86967 669.63508 325.33594 678.99805 C 306.82087 671.27806 289.9201 660.434 275.38281 647.11719 L 242.81641 647.11719 C 261.87311 669.575 285.94863 687.12947 314.60352 699.42969 C 338.42708 709.65617 363.22788 714.80078 389.32812 714.80078 C 415.43273 714.80078 440.20857 709.60205 464.05859 699.42969 C 511.77742 679.06638 546.27085 644.41504 566.56836 597.07031 C 576.78916 573.22925 581.93555 548.20692 581.93555 522.08789 C 581.93555 495.97403 576.78916 471.16265 566.56836 447.32227 C 546.27021 399.97306 511.77679 365.53662 464.05859 345.17383 C 440.20857 334.9965 415.43274 329.79883 389.32812 329.79883 z M 377.54102 355.07227 L 377.54102 445.84766 L 312.91992 445.84766 C 319.44484 421.83615 328.33525 401.65431 339.86328 385.40234 C 351.48944 369.00686 363.85774 358.86461 377.54102 355.07227 z M 401.32812 355.07227 C 415.01142 358.86461 427.3771 369.00686 439.00391 385.40234 C 450.53572 401.65431 459.42433 421.83615 465.94922 445.84766 L 401.32812 445.84766 L 401.32812 355.07227 z M 325.33594 365.60547 C 308.70664 386.66502 296.50025 413.41167 288.70898 445.84766 L 238.40039 445.84766 C 256.92389 409.83084 288.08136 380.97684 325.33594 365.60547 z M 453.53125 365.60547 C 490.79089 380.97621 521.94463 409.83035 540.46875 445.84766 L 490.1582 445.84766 C 482.37133 413.41118 470.16056 386.66439 453.53125 365.60547 z M 494.78906 469.01562 L 549.93945 469.01562 C 555.62449 486.07574 558.57031 503.76442 558.57031 522.08789 C 558.5697 539.99345 555.83565 557.68331 550.36133 574.74414 L 494.78906 574.74414 C 497.52812 556.84306 498.78906 539.35955 498.78906 522.08789 C 498.78906 504.60986 497.52812 486.91673 494.78906 469.01562 z M 207.5 566.86133 L 207.5 585.24023 C 208.89392 589.21774 210.41477 593.1635 212.08984 597.07031 C 214.30724 602.24199 216.70746 607.25201 219.26758 612.11719 L 246.29102 612.11719 C 243.43621 607.52444 240.79541 602.78775 238.40039 597.91016 L 288.71094 597.91016 C 289.85828 602.7793 291.11232 607.50505 292.45117 612.11719 L 316.95898 612.11719 C 315.50246 607.53521 314.15295 602.80363 312.91992 597.91016 L 377.54102 597.91016 L 377.54102 612.11719 L 401.32812 612.11719 L 401.32812 597.91016 L 459.125 597.91016 L 459.125 574.74414 L 401.32812 574.74414 L 401.32812 566.86133 L 377.53906 566.86133 L 377.53906 574.74414 L 307.65625 574.74414 C 307.26831 572.08912 306.91079 569.46628 306.57422 566.86133 L 282.97656 566.86133 C 283.31636 569.48118 283.67718 572.10685 284.08008 574.74414 L 228.50781 574.74414 C 227.66946 572.13112 226.90129 569.50237 226.19141 566.86133 L 207.5 566.86133 z "
         style="fill:url(#linearGradient4169);fill-opacity:1" />
      <rect
         ry="11.465023"
         y="549.36218"
         x="190"
         height="80.254814"
         width="286.62433"
         id="rect4184"
         style="opacity:1;fill:#99b000;fill-opacity:1;stroke:none;stroke-width:50;stroke-linejoin:round;stroke-miterlimit:4;stroke-dasharray:none;stroke-opacity:1" />
      <path
         inkscape:connector-curvature="0"
         id="path4186"
         d="m 212.92994,629.61706 34.39492,-80.25481 34.39492,0 -34.39492,80.25481 z"
         style="fill:#ffffff;fill-rule:evenodd;stroke:none;stroke-width:1px;stroke-linecap:butt;stroke-linejoin:miter;stroke-opacity:1" />
      <path
         style="fill:#ffffff;fill-rule:evenodd;stroke:none;stroke-width:1px;stroke-linecap:butt;stroke-linejoin:miter;stroke-opacity:1"
         d="m 270.25481,629.61706 34.39491,-80.25481 34.39492,0 -34.39492,80.25481 z"
         id="path4188"
         inkscape:connector-curvature="0" />
      <path
         inkscape:connector-curvature="0"
         id="path4190"
         d="m 327.57967,629.61706 34.39492,-80.25481 34.39492,0 -34.39492,80.25481 z"
         style="fill:#ffffff;fill-rule:evenodd;stroke:none;stroke-width:1px;stroke-linecap:butt;stroke-linejoin:miter;stroke-opacity:1" />
      <path
         style="fill:#ffffff;fill-rule:evenodd;stroke:none;stroke-width:1px;stroke-linecap:butt;stroke-linejoin:miter;stroke-opacity:1"
         d="m 384.90454,629.61706 34.39491,-80.25481 34.39492,0 -34.39492,80.25481 z"
         id="path4192"
         inkscape:connector-curvature="0" />
    </g>
  </g>
</svg>
