<?xml version="1.0" encoding="UTF-8" standalone="no"?>
<!-- Created with Inkscape (http://www.inkscape.org/) -->
<svg xmlns:dc="http://purl.org/dc/elements/1.1/" xmlns:cc="http://creativecommons.org/ns#" xmlns:rdf="http://www.w3.org/1999/02/22-rdf-syntax-ns#" xmlns:svg="http://www.w3.org/2000/svg" xmlns="http://www.w3.org/2000/svg" xmlns:xlink="http://www.w3.org/1999/xlink" xmlns:sodipodi="http://sodipodi.sourceforge.net/DTD/sodipodi-0.dtd" xmlns:inkscape="http://www.inkscape.org/namespaces/inkscape" width="210mm" height="297mm" viewBox="0 0 744.09448819 1052.3622047" id="svg2" version="1.1" inkscape:version="0.91 r13725" inkscape:export-xdpi="4" inkscape:export-ydpi="4">
  <defs id="defs4">
    <linearGradient id="linearGradient2224">
      <stop id="stop2226" offset="0" style="stop-color:#7c7c7c;stop-opacity:1;"/>
      <stop id="stop2228" offset="1" style="stop-color:#b8b8b8;stop-opacity:1;"/>
    </linearGradient>
    <linearGradient id="linearGradient15218">
      <stop id="stop15220" offset="0" style="stop-color:#eeeeef;stop-opacity:1;"/>
      <stop id="stop2736" offset="0.59928656" style="stop-color:#d3d7cf;stop-opacity:1;"/>
      <stop id="stop2738" offset="0.82758623" style="stop-color:#ffffff;stop-opacity:1;"/>
      <stop id="stop15222" offset="1" style="stop-color:#d3d7cf;stop-opacity:1;"/>
    </linearGradient>
    <pattern y="0" x="0" height="6" width="6" patternUnits="userSpaceOnUse" id="EMFhbasepattern"/>
    <pattern y="0" x="0" height="6" width="6" patternUnits="userSpaceOnUse" id="EMFhbasepattern-5"/>
    <linearGradient inkscape:collect="always" xlink:href="#linearGradient4165" id="linearGradient4171" x1="244.65895" y1="681.83826" x2="538.81537" y2="380.61075" gradientUnits="userSpaceOnUse" gradientTransform="matrix(0.69051606,0,0,0.68879906,52.933204,231.12452)"/>
    <linearGradient inkscape:collect="always" id="linearGradient4165">
      <stop style="stop-color:#4e505d;stop-opacity:1;" offset="0" id="stop4167"/>
      <stop style="stop-color:#545d6c;stop-opacity:1" offset="1" id="stop4169"/>
    </linearGradient>
  </defs>
  <sodipodi:namedview id="base" pagecolor="#ffffff" bordercolor="#666666" borderopacity="1.0" inkscape:pageopacity="0.0" inkscape:pageshadow="2" inkscape:zoom="0.5" inkscape:cx="71.772538" inkscape:cy="528.28051" inkscape:document-units="px" inkscape:current-layer="layer1" showgrid="false" showguides="true" inkscape:guide-bbox="true" inkscape:window-width="1366" inkscape:window-height="721" inkscape:window-x="-4" inkscape:window-y="-4" inkscape:window-maximized="1">
    <sodipodi:guide position="560,730.00002" orientation="0,1" id="guide3338"/>
    <sodipodi:guide position="560,330.00001" orientation="0,1" id="guide3340"/>
    <sodipodi:guide position="190,475.00001" orientation="1,0" id="guide3344"/>
    <sodipodi:guide position="590,451.00001" orientation="1,0" id="guide3346"/>
    <inkscape:grid type="xygrid" id="grid3440"/>
  </sodipodi:namedview>
  <metadata id="metadata7">
    <rdf:RDF>
      <cc:Work rdf:about="">
        <dc:format>image/svg+xml</dc:format>
        <dc:type rdf:resource="http://purl.org/dc/dcmitype/StillImage"/>
        <dc:title>system target</dc:title>
      </cc:Work>
    </rdf:RDF>
  </metadata>
  <g inkscape:label="Ebene 1" inkscape:groupmode="layer" id="layer1">
    <rect style="opacity:1;fill:none;fill-opacity:1;stroke:none;stroke-width:23;stroke-linecap:butt;stroke-linejoin:round;stroke-miterlimit:4;stroke-dasharray:none;stroke-opacity:1" id="rect4160" width="400" height="400" x="190" y="322.36221"/>
    <g id="g4205" transform="translate(48,0)">
      <path id="path4172" d="m 408.47852,322.34375 -28.22461,5.38281 -1.33789,23.28711 a 64.842509,65.043701 79.20234 0 0 -9.9043,6.61719 l -21.95508,-7.51172 -15.66406,24.03711 15.88867,17.00781 a 64.842509,65.043701 79.20234 0 0 -1.88672,9.5625 l -20.91406,9.6543 5.36914,28.14258 23.6543,1.3164 -0.006,-0.0371 a 64.842509,65.043701 79.20234 0 0 6.68164,9.62305 l -7.58985,22.00195 24.08594,15.58594 17.3457,-16.11328 -0.70898,-0.46094 a 64.842509,65.043701 79.20234 0 0 9.18359,1.80664 l 9.68946,20.88672 28.22265,-5.38281 1.34571,-23.44141 a 64.842509,65.043701 79.20234 0 0 9.39843,-6.36718 l 22.10547,7.56445 15.66407,-24.04297 -16.07422,-17.20898 a 64.842509,65.043701 79.20234 0 0 1.6875,-8.50782 l 20.64648,-9.53711 -5.36523,-28.13671 -22.73047,-1.26368 a 64.842509,65.043701 79.20234 0 0 -6.58399,-9.83984 l 7.34375,-21.29102 -24.08593,-15.58593 -16.45508,15.28711 a 64.842509,65.043701 79.20234 0 0 -9.00391,-1.83399 l -9.82226,-21.20117 z m -108.85157,136.71094 0,0.002 -8.90429,35.48438 a 102.02318,101.70761 0 0 0 -17.20508,7.2871 l -31.61914,-18.02539 -31.19922,32.42969 19.48242,30.87696 a 102.02318,101.70761 0 0 0 -5.7168,14.17773 l -35.05859,8.72851 0,44.93946 36.06055,8.97851 0,-0.0566 a 102.02318,101.70761 0 0 0 7.46875,16.78711 l -18.16016,31.66992 32.53125,31.0918 31.46094,-19.72851 -0.95703,-0.91993 a 102.02318,101.70761 0 0 0 13.61914,5.48243 l 8.78906,35.03125 45.06836,0 8.96094,-35.72266 a 102.02318,101.70761 0 0 0 16.35156,-7.04883 l 31.83594,18.15039 31.19922,-32.4414 -19.70899,-31.24024 a 102.02318,101.70761 0 0 0 5.09961,-12.61133 l 34.61523,-8.62695 0,-44.92773 -34.64843,-8.62696 a 102.02318,101.70761 0 0 0 -7.25391,-17.0957 l 17.57031,-30.64844 -32.53125,-31.08984 -29.84375,18.71679 a 102.02318,101.70761 0 0 0 -13.33398,-5.4707 l -8.9043,-35.55273 -45.06836,0 z" style="opacity:1;fill:url(#linearGradient4171);fill-opacity:1;stroke:none;stroke-width:20.62700081;stroke-linecap:square;stroke-linejoin:miter;stroke-miterlimit:4;stroke-dasharray:none;stroke-opacity:1" inkscape:connector-curvature="0"/>
      <path d="m 361.96679,595.29614 a 40.168209,39.530403 0 0 1 -40.16501,39.53041 40.168209,39.530403 0 0 1 -40.1714,-39.52412 40.168209,39.530403 0 0 1 40.15861,-39.53669 40.168209,39.530403 0 0 1 40.1778,39.51782 l -40.16821,0.0126 z" sodipodi:end="6.282867" sodipodi:start="0" sodipodi:ry="39.530403" sodipodi:rx="40.168209" sodipodi:cy="595.29614" sodipodi:cx="321.79858" sodipodi:type="arc" id="path4304" style="opacity:1;fill:#ffffff;fill-opacity:1;stroke:none;stroke-width:20.62700081;stroke-linecap:square;stroke-linejoin:miter;stroke-miterlimit:4;stroke-dasharray:none;stroke-opacity:1"/>
      <path transform="matrix(0.9822949,-0.1873412,0.1873412,0.9822949,0,0)" d="m 351.8694,480.02026 a 25.608776,25.202152 0 0 1 -25.60674,25.20216 25.608776,25.202152 0 0 1 -25.61082,-25.19815 25.608776,25.202152 0 0 1 25.60267,-25.20616 25.608776,25.202152 0 0 1 25.61488,25.19413 l -25.60877,0.008 z" sodipodi:end="6.282867" sodipodi:start="0" sodipodi:ry="25.202152" sodipodi:rx="25.608776" sodipodi:cy="480.02026" sodipodi:cx="326.26062" sodipodi:type="arc" id="path4304-3" style="opacity:1;fill:#ffffff;fill-opacity:1;stroke:none;stroke-width:20.62700081;stroke-linecap:square;stroke-linejoin:miter;stroke-miterlimit:4;stroke-dasharray:none;stroke-opacity:1"/>
    </g>
    <circle style="color:#000000;clip-rule:nonzero;display:inline;overflow:visible;visibility:visible;opacity:1;isolation:auto;mix-blend-mode:normal;color-interpolation:sRGB;color-interpolation-filters:linearRGB;solid-color:#000000;solid-opacity:1;fill:#ffffff;fill-opacity:1;fill-rule:nonzero;stroke:none;stroke-width:10;stroke-linecap:square;stroke-linejoin:round;stroke-miterlimit:4;stroke-dasharray:none;stroke-dashoffset:60.95968628;stroke-opacity:1;color-rendering:auto;image-rendering:auto;shape-rendering:auto;text-rendering:auto;enable-background:accumulate" id="path4164" cx="490" cy="632.36218" r="100"/>
    <g id="g4208" transform="matrix(1.0034882,0,0,1.0034882,-9.5239445,7.1159686)" style="stroke:#99b000;stroke-width:7.17796183;stroke-miterlimit:4;stroke-dasharray:none;stroke-linecap:square;stroke-linejoin:miter">
      <path sodipodi:nodetypes="ssccsssccsssccsssccssccccccccccccccccccccccccccccccccccccccccccc" inkscape:connector-curvature="0" id="path4157" d="m 495.37764,532.98325 c -1.655,0 -2.98737,1.33237 -2.98737,2.98735 l 0,12.34621 c -38.74007,1.71206 -69.72515,32.7884 -71.32327,71.53333 l -12.55626,0 c -1.65499,0 -2.98734,1.33235 -2.98734,2.98736 0,1.65499 1.33235,2.98736 2.98734,2.98736 l 12.60003,0 c 1.57288,38.74709 32.53937,69.84412 71.2795,71.57999 l 0,12.30246 c 0,1.65498 1.33237,2.98735 2.98737,2.98735 1.655,0 2.98735,-1.33237 2.98735,-2.98735 l 0,-12.32288 c 38.95926,-1.44112 70.2557,-32.60669 71.86007,-71.55957 l 12.02238,0 c 1.65501,0 2.98738,-1.33237 2.98738,-2.98736 0,-1.65501 -1.33237,-2.98736 -2.98738,-2.98736 l -12.06613,0 c -1.58211,-38.95266 -32.85907,-70.13559 -71.81632,-71.60042 l 0,-12.27912 c 0,-1.65498 -1.33235,-2.98735 -2.98735,-2.98735 z m -2.98737,22.75529 0,29.82695 c -18.20392,1.49965 -32.69524,16.05473 -34.09792,34.28465 l -29.71318,0 c 1.55797,-34.62699 29.19182,-62.39096 63.8111,-64.1116 z m 5.97472,0.0211 c 34.83844,1.42859 62.80014,29.2598 64.39166,64.09118 l -30.06324,0 c -1.40851,-18.30891 -16.01752,-32.90754 -34.32842,-34.30215 z m 0,36.50767 c 15.95569,1.12215 26.47728,11.63112 27.61269,27.58351 l -12.13716,0 c 0.14118,0.98774 0.22464,2.98154 0.22464,2.98154 l -0.22464,2.99335 12.13132,0 c -1.19707,15.85463 -11.70679,26.29157 -27.60685,27.41138 l 0,-12.17217 c -0.90061,0.11917 -1.80763,0.18345 -2.71604,0.19249 -1.09124,-0.009 -2.18037,-0.0978 -3.25868,-0.26549 l 0,12.23635 c -15.7721,-1.20234 -26.18443,-11.62247 -27.37637,-27.40262 l 12.44057,0 c -0.14216,-0.98767 -0.21818,-1.98373 -0.22755,-2.98154 0.008,-1.00163 0.0829,-2.0016 0.22464,-2.99319 l -12.44349,0 c 1.12908,-15.87332 11.55113,-26.36765 27.3822,-27.57475 l 0,12.40265 c 1.07556,-0.16535 2.16175,-0.25213 3.24992,-0.25964 0.91122,0.007 1.82118,0.0692 2.7248,0.18677 l 0,-12.33848 z m -69.82958,33.55824 29.77152,0 c 1.48107,18.14969 15.93844,32.61453 34.08334,34.10961 l 0,29.9553 c -34.61932,-1.69687 -62.2717,-29.44021 -63.85486,-64.06492 z m 104.14633,0 30.03115,0 c -1.56931,34.83124 -29.51158,62.67977 -64.3479,64.13201 l 0,-30.00199 c 18.25419,-1.39015 32.82933,-15.90346 34.31675,-34.13002 z" style="color:#000000;clip-rule:nonzero;display:inline;overflow:visible;visibility:visible;opacity:0.98999999;isolation:auto;mix-blend-mode:normal;color-interpolation:sRGB;color-interpolation-filters:linearRGB;solid-color:#000000;solid-opacity:1;fill:#99b000;fill-opacity:1;fill-rule:nonzero;stroke:#99b000;stroke-width:7.17796183;stroke-linecap:square;stroke-linejoin:miter;stroke-miterlimit:4;stroke-dasharray:none;stroke-dashoffset:0;stroke-opacity:1;color-rendering:auto;image-rendering:auto;shape-rendering:auto;text-rendering:auto;enable-background:accumulate"/>
    </g>
  </g>
</svg>
