<?xml version="1.0" encoding="UTF-8" standalone="no"?>
<!-- Created with Inkscape (http://www.inkscape.org/) -->

<svg
   xmlns:dc="http://purl.org/dc/elements/1.1/"
   xmlns:cc="http://creativecommons.org/ns#"
   xmlns:rdf="http://www.w3.org/1999/02/22-rdf-syntax-ns#"
   xmlns:svg="http://www.w3.org/2000/svg"
   xmlns="http://www.w3.org/2000/svg"
   xmlns:xlink="http://www.w3.org/1999/xlink"
   xmlns:sodipodi="http://sodipodi.sourceforge.net/DTD/sodipodi-0.dtd"
   xmlns:inkscape="http://www.inkscape.org/namespaces/inkscape"
   width="210mm"
   height="297mm"
   viewBox="0 0 744.09448819 1052.3622047"
   id="svg2"
   version="1.1"
   inkscape:version="0.91 r13725"
   inkscape:export-xdpi="4"
   inkscape:export-ydpi="4"
   sodipodi:docname="system-target.svg">
  <defs
     id="defs4">
    <linearGradient
       inkscape:collect="always"
       xlink:href="#linearGradient4165"
       id="linearGradient4171"
       x1="244.65895"
       y1="681.83826"
       x2="538.81537"
       y2="380.61075"
       gradientUnits="userSpaceOnUse"
       gradientTransform="matrix(0.68891487,0,0,0.68720185,93.997702,231.33695)" />
    <linearGradient
       inkscape:collect="always"
       id="linearGradient4165">
      <stop
         style="stop-color:#4e505d;stop-opacity:1;"
         offset="0"
         id="stop4167" />
      <stop
         style="stop-color:#7a8597;stop-opacity:1"
         offset="1"
         id="stop4169" />
    </linearGradient>
  </defs>
  <sodipodi:namedview
     id="base"
     pagecolor="#ffffff"
     bordercolor="#666666"
     borderopacity="1.0"
     inkscape:pageopacity="0.0"
     inkscape:pageshadow="2"
     inkscape:zoom="1.4142136"
     inkscape:cx="427.64339"
     inkscape:cy="519.0389"
     inkscape:document-units="px"
     inkscape:current-layer="layer1"
     showgrid="false"
     showguides="true"
     inkscape:guide-bbox="true"
     inkscape:window-width="1600"
     inkscape:window-height="837"
     inkscape:window-x="-4"
     inkscape:window-y="-4"
     inkscape:window-maximized="1"
     inkscape:snap-bbox="true"
     inkscape:snap-bbox-edge-midpoints="false"
     inkscape:bbox-nodes="true">
    <sodipodi:guide
       position="560,730.00002"
       orientation="0,1"
       id="guide3338" />
    <sodipodi:guide
       position="560,330.00001"
       orientation="0,1"
       id="guide3340" />
    <sodipodi:guide
       position="190,475.00001"
       orientation="1,0"
       id="guide3344" />
    <sodipodi:guide
       position="590,451.00001"
       orientation="1,0"
       id="guide3346" />
    <inkscape:grid
       type="xygrid"
       id="grid3440" />
  </sodipodi:namedview>
  <metadata
     id="metadata7">
    <rdf:RDF>
      <cc:Work
         rdf:about="">
        <dc:format>image/svg+xml</dc:format>
        <dc:type
           rdf:resource="http://purl.org/dc/dcmitype/StillImage" />
        <dc:title>system target</dc:title>
        <dc:date>June 2015</dc:date>
        <dc:creator>
          <cc:Agent>
            <dc:title>Johannes Hechler</dc:title>
          </cc:Agent>
        </dc:creator>
        <dc:rights>
          <cc:Agent>
            <dc:title>Johannes Hechler</dc:title>
          </cc:Agent>
        </dc:rights>
        <dc:publisher>
          <cc:Agent>
            <dc:title>RRZE</dc:title>
          </cc:Agent>
        </dc:publisher>
        <dc:contributor>
          <cc:Agent>
            <dc:title>Ute Weber, Hendrik Eggers, Joanna Barbach</dc:title>
          </cc:Agent>
        </dc:contributor>
        <dc:subject>
          <rdf:Bag>
            <rdf:li>run</rdf:li>
            <rdf:li>working</rdf:li>
            <rdf:li>work</rdf:li>
            <rdf:li>system</rdf:li>
            <rdf:li>target</rdf:li>
            <rdf:li>targetsystem</rdf:li>
          </rdf:Bag>
        </dc:subject>
        <cc:license
           rdf:resource="http://creativecommons.org/licenses/by-sa/3.0/" />
      </cc:Work>
      <cc:License
         rdf:about="http://creativecommons.org/licenses/by-sa/3.0/">
        <cc:permits
           rdf:resource="http://creativecommons.org/ns#Reproduction" />
        <cc:permits
           rdf:resource="http://creativecommons.org/ns#Distribution" />
        <cc:requires
           rdf:resource="http://creativecommons.org/ns#Notice" />
        <cc:requires
           rdf:resource="http://creativecommons.org/ns#Attribution" />
        <cc:permits
           rdf:resource="http://creativecommons.org/ns#DerivativeWorks" />
        <cc:requires
           rdf:resource="http://creativecommons.org/ns#ShareAlike" />
      </cc:License>
    </rdf:RDF>
  </metadata>
  <g
     inkscape:label="Ebene 1"
     inkscape:groupmode="layer"
     id="layer1">
    <g
       id="g4200">
      <rect
         y="322.36221"
         x="190"
         height="400"
         width="400"
         id="rect4160-3"
         style="opacity:1;fill:none;fill-opacity:1;stroke:none;stroke-width:23;stroke-linecap:butt;stroke-linejoin:round;stroke-miterlimit:4;stroke-dasharray:none;stroke-opacity:1" />
      <path
         id="path4172"
         d="M 455.5 322.36133 L 455.5 322.36328 L 449.91992 344.59766 C 446.19393 345.78754 442.58434 347.31643 439.13867 349.16406 L 419.32812 337.86914 L 399.7793 358.18945 L 411.98828 377.53516 C 410.57254 380.40255 409.37316 383.3715 408.4043 386.41797 L 386.4375 391.88867 L 386.4375 420.04492 L 409.0332 425.67188 L 409.0332 425.63672 C 410.27176 429.27633 411.83803 432.79605 413.71289 436.1543 L 402.33398 455.99609 L 422.7168 475.47852 L 442.42969 463.11719 L 441.83008 462.54102 C 444.58805 463.88896 447.43973 465.03737 450.36328 465.97656 L 455.86914 487.92578 L 484.10938 487.92578 L 489.72266 465.54297 C 493.26046 464.3714 496.68932 462.8922 499.96875 461.125 L 519.91602 472.5 L 539.46484 452.17188 L 527.11719 432.59766 C 528.3579 430.0377 529.42347 427.39935 530.31055 424.69727 L 552 419.29102 L 552 391.14062 L 530.29102 385.73438 C 529.10667 382.03316 527.58352 378.44843 525.74414 375.02344 L 536.75391 355.82031 L 516.37109 336.33984 L 497.67188 348.06836 C 494.97156 346.73076 492.18084 345.58341 489.31836 344.63867 L 483.73828 322.36133 L 455.5 322.36133 z M 469.38477 382.95898 A 25.168254 24.768624 0 0 1 494.55859 407.7207 L 469.39062 407.72852 L 494.55859 407.72852 A 25.168254 24.768624 0 0 1 469.39258 432.49609 A 25.168254 24.768624 0 0 1 444.22266 407.73242 A 25.168254 24.768624 0 0 1 469.38477 382.95898 z M 340.11914 458.73828 L 340.11914 458.74023 L 331.23633 494.14258 C 325.30348 496.03721 319.55681 498.47014 314.07031 501.41211 L 282.52539 483.42969 L 251.39844 515.7832 L 270.83594 546.58984 C 268.58167 551.15554 266.67357 555.88351 265.13086 560.73438 L 230.1543 569.44141 L 230.1543 614.27734 L 266.13086 623.23438 L 266.13086 623.17773 C 268.10299 628.97305 270.5967 634.58043 273.58203 639.92773 L 255.46484 671.52344 L 287.91992 702.54297 L 319.30859 682.85938 L 318.35352 681.94336 C 322.74501 684.08967 327.28629 685.91667 331.94141 687.41211 L 340.70898 722.36133 L 385.67383 722.36133 L 394.61328 686.72266 C 398.27042 685.51157 401.84492 684.07379 405.33789 682.45898 C 399.1007 673.31712 394.39118 663.05225 391.60156 652.01953 C 382.17152 649.84298 374.88197 642.19709 373.29102 632.55664 A 40.075066 39.438738 0 0 1 362.24414 634.10156 A 40.075066 39.438738 0 0 1 322.16602 594.66992 A 40.075066 39.438738 0 0 1 362.23047 555.22461 A 40.075066 39.438738 0 0 1 400.39453 582.75586 C 412.0398 561.49844 431.48551 545.12126 454.89258 537.49023 L 469.5 512.01172 L 437.04492 480.99414 L 407.26953 499.66602 C 402.96986 497.53618 398.52473 495.71326 393.9668 494.20898 L 385.08398 458.73828 L 340.11914 458.73828 z M 394.90039 594.65234 L 362.24023 594.66406 L 394.89648 594.66406 C 394.89795 594.66022 394.89893 594.65619 394.90039 594.65234 z "
         style="opacity:1;fill:url(#linearGradient4171);fill-opacity:1;stroke:none;stroke-width:20.62700081;stroke-linecap:square;stroke-linejoin:miter;stroke-miterlimit:4;stroke-dasharray:none;stroke-opacity:1" />
      <rect
         y="322.36221"
         x="190"
         height="400"
         width="400"
         id="rect4160"
         style="opacity:1;fill:none;fill-opacity:1;stroke:none;stroke-width:23;stroke-linecap:butt;stroke-linejoin:round;stroke-miterlimit:4;stroke-dasharray:none;stroke-opacity:1" />
      <g
         style="stroke:#99b000;stroke-width:7.17796183;stroke-linecap:square;stroke-linejoin:miter;stroke-miterlimit:4;stroke-dasharray:none"
         transform="matrix(1.0034882,0,0,1.0034882,-12.877741,3.5800201)"
         id="g4208">
        <path
           style="color:#252525;clip-rule:nonzero;display:inline;overflow:visible;visibility:visible;opacity:18999999;isolation:auto;mix-blend-mode:normal;color-interpolation:sRGB;color-interpolation-filters:linearRGB;solid-color:#252525;solid-opacity:1;fill:#99b000;fill-opacity:1;fill-rule:nonzero;stroke:#99b000;stroke-width:7.17796183;stroke-linecap:square;stroke-linejoin:miter;stroke-miterlimit:4;stroke-dasharray:none;stroke-dashoffset:0;stroke-opacity:1;color-rendering:auto;image-rendering:auto;shape-rendering:auto;text-rendering:auto;enable-background:accumulate"
           d="m 495.37764,532.98325 c -1.655,0 -2.98737,1.33237 -2.98737,2.98735 l 0,12.34621 c -38.74007,1.71206 -69.72515,32.7884 -71.32327,71.53333 l -12.55626,0 c -1.65499,0 -2.98734,1.33235 -2.98734,2.98736 0,1.65499 1.33235,2.98736 2.98734,2.98736 l 12.60003,0 c 1.57288,38.74709 32.53937,69.84412 71.2795,71.57999 l 0,12.30246 c 0,1.65498 1.33237,2.98735 2.98737,2.98735 1.655,0 2.98735,-1.33237 2.98735,-2.98735 l 0,-12.32288 c 38.95926,-1.44112 70.2557,-32.60669 71.86007,-71.55957 l 12.02238,0 c 1.65501,0 2.98738,-1.33237 2.98738,-2.98736 0,-1.65501 -1.33237,-2.98736 -2.98738,-2.98736 l -12.06613,0 c -1.58211,-38.95266 -32.85907,-70.13559 -71.81632,-71.60042 l 0,-12.27912 c 0,-1.65498 -1.33235,-2.98735 -2.98735,-2.98735 z m -2.98737,22.75529 0,29.82695 c -18.20392,1.49965 -32.69524,16.05473 -34.09792,34.28465 l -29.71318,0 c 1.55797,-34.62699 29.19182,-62.39096 63.8111,-64.1116 z m 5.97472,0.0211 c 34.83844,1.42859 62.80014,29.2598 64.39166,64.09118 l -30.06324,0 c -1.40851,-18.30891 -16.01752,-32.90754 -34.32842,-34.30215 z m 0,36.50767 c 15.95569,1.12215 26.47728,11.63112 27.61269,27.58351 l -12.13716,0 c 0.14118,0.98774 0.22464,2.98154 0.22464,2.98154 l -0.22464,2.99335 12.13132,0 c -1.19707,15.85463 -11.70679,26.29157 -27.60685,27.41138 l 0,-12.17217 c -0.90061,0.11917 -1.80763,0.18345 -2.71604,0.19249 -1.09124,-0.009 -2.18037,-0.0978 -3.25868,-0.26549 l 0,12.23635 c -15.7721,-1.20234 -26.18443,-11.62247 -27.37637,-27.40262 l 12.44057,0 c -0.14216,-0.98767 -0.21818,-1.98373 -0.22755,-2.98154 0.008,-1.00163 0.0829,-2.0016 0.22464,-2.99319 l -12.44349,0 c 1.12908,-15.87332 11.55113,-26.36765 27.3822,-27.57475 l 0,12.40265 c 1.07556,-0.16535 2.16175,-0.25213 3.24992,-0.25964 0.91122,0.007 1.82118,0.0692 2.7248,0.18677 l 0,-12.33848 z m -69.82958,33.55824 29.77152,0 c 1.48107,18.14969 15.93844,32.61453 34.08334,34.10961 l 0,29.9553 c -34.61932,-1.69687 -62.2717,-29.44021 -63.85486,-64.06492 z m 104.14633,0 30.03115,0 c -1.56931,34.83124 -29.51158,62.67977 -64.3479,64.13201 l 0,-30.00199 c 18.25419,-1.39015 32.82933,-15.90346 34.31675,-34.13002 z"
           id="path4157"
           inkscape:connector-curvature="0"
           sodipodi:nodetypes="ssccsssccsssccsssccssccccccccccccccccccccccccccccccccccccccccccc" />
      </g>
      <g
         id="g4183"
         transform="matrix(1.0034882,0,0,1.0034882,-12.877741,3.5800201)"
         style="stroke:#99b000;stroke-width:7.17796183;stroke-linecap:square;stroke-linejoin:miter;stroke-miterlimit:4;stroke-dasharray:none">
        <path
           sodipodi:nodetypes="ssccsssccsssccsssccssccccccccccccccccccccccccccccccccccccccccccc"
           inkscape:connector-curvature="0"
           id="path4185"
           d="m 495.37764,532.98325 c -1.655,0 -2.98737,1.33237 -2.98737,2.98735 l 0,12.34621 c -38.74007,1.71206 -69.72515,32.7884 -71.32327,71.53333 l -12.55626,0 c -1.65499,0 -2.98734,1.33235 -2.98734,2.98736 0,1.65499 1.33235,2.98736 2.98734,2.98736 l 12.60003,0 c 1.57288,38.74709 32.53937,69.84412 71.2795,71.57999 l 0,12.30246 c 0,1.65498 1.33237,2.98735 2.98737,2.98735 1.655,0 2.98735,-1.33237 2.98735,-2.98735 l 0,-12.32288 c 38.95926,-1.44112 70.2557,-32.60669 71.86007,-71.55957 l 12.02238,0 c 1.65501,0 2.98738,-1.33237 2.98738,-2.98736 0,-1.65501 -1.33237,-2.98736 -2.98738,-2.98736 l -12.06613,0 c -1.58211,-38.95266 -32.85907,-70.13559 -71.81632,-71.60042 l 0,-12.27912 c 0,-1.65498 -1.33235,-2.98735 -2.98735,-2.98735 z m -2.98737,22.75529 0,29.82695 c -18.20392,1.49965 -32.69524,16.05473 -34.09792,34.28465 l -29.71318,0 c 1.55797,-34.62699 29.19182,-62.39096 63.8111,-64.1116 z m 5.97472,0.0211 c 34.83844,1.42859 62.80014,29.2598 64.39166,64.09118 l -30.06324,0 c -1.40851,-18.30891 -16.01752,-32.90754 -34.32842,-34.30215 z m 0,36.50767 c 15.95569,1.12215 26.47728,11.63112 27.61269,27.58351 l -12.13716,0 c 0.14118,0.98774 0.22464,2.98154 0.22464,2.98154 l -0.22464,2.99335 12.13132,0 c -1.19707,15.85463 -11.70679,26.29157 -27.60685,27.41138 l 0,-12.17217 c -0.90061,0.11917 -1.80763,0.18345 -2.71604,0.19249 -1.09124,-0.009 -2.18037,-0.0978 -3.25868,-0.26549 l 0,12.23635 c -15.7721,-1.20234 -26.18443,-11.62247 -27.37637,-27.40262 l 12.44057,0 c -0.14216,-0.98767 -0.21818,-1.98373 -0.22755,-2.98154 0.008,-1.00163 0.0829,-2.0016 0.22464,-2.99319 l -12.44349,0 c 1.12908,-15.87332 11.55113,-26.36765 27.3822,-27.57475 l 0,12.40265 c 1.07556,-0.16535 2.16175,-0.25213 3.24992,-0.25964 0.91122,0.007 1.82118,0.0692 2.7248,0.18677 l 0,-12.33848 z m -69.82958,33.55824 29.77152,0 c 1.48107,18.14969 15.93844,32.61453 34.08334,34.10961 l 0,29.9553 c -34.61932,-1.69687 -62.2717,-29.44021 -63.85486,-64.06492 z m 104.14633,0 30.03115,0 c -1.56931,34.83124 -29.51158,62.67977 -64.3479,64.13201 l 0,-30.00199 c 18.25419,-1.39015 32.82933,-15.90346 34.31675,-34.13002 z"
           style="color:#252525;clip-rule:nonzero;display:inline;overflow:visible;visibility:visible;opacity:18999999;isolation:auto;mix-blend-mode:normal;color-interpolation:sRGB;color-interpolation-filters:linearRGB;solid-color:#252525;solid-opacity:1;fill:#99b000;fill-opacity:1;fill-rule:nonzero;stroke:#99b000;stroke-width:7.17796183;stroke-linecap:square;stroke-linejoin:miter;stroke-miterlimit:4;stroke-dasharray:none;stroke-dashoffset:0;stroke-opacity:1;color-rendering:auto;image-rendering:auto;shape-rendering:auto;text-rendering:auto;enable-background:accumulate" />
      </g>
    </g>
  </g>
</svg>
