<?xml version="1.0" encoding="UTF-8" standalone="no"?>
<!-- Created with Inkscape (http://www.inkscape.org/) -->

<svg
   xmlns:dc="http://purl.org/dc/elements/1.1/"
   xmlns:cc="http://creativecommons.org/ns#"
   xmlns:rdf="http://www.w3.org/1999/02/22-rdf-syntax-ns#"
   xmlns:svg="http://www.w3.org/2000/svg"
   xmlns="http://www.w3.org/2000/svg"
   xmlns:sodipodi="http://sodipodi.sourceforge.net/DTD/sodipodi-0.dtd"
   xmlns:inkscape="http://www.inkscape.org/namespaces/inkscape"
   width="210mm"
   height="297mm"
   viewBox="0 0 744.09448819 1052.3622047"
   id="svg2"
   version="1.1"
   inkscape:version="0.91 r13725"
   inkscape:export-xdpi="4"
   inkscape:export-ydpi="4"
   sodipodi:docname="timetable.svg">
  <defs
     id="defs4" />
  <sodipodi:namedview
     id="base"
     pagecolor="#ffffff"
     bordercolor="#666666"
     borderopacity="1.0"
     inkscape:pageopacity="0.0"
     inkscape:pageshadow="2"
     inkscape:zoom="0.70710678"
     inkscape:cx="404.36217"
     inkscape:cy="743.3692"
     inkscape:document-units="px"
     inkscape:current-layer="layer1"
     showgrid="false"
     showguides="true"
     inkscape:guide-bbox="true"
     inkscape:window-width="1600"
     inkscape:window-height="837"
     inkscape:window-x="-4"
     inkscape:window-y="-4"
     inkscape:window-maximized="1"
     inkscape:snap-bbox="true"
     inkscape:bbox-paths="true"
     inkscape:bbox-nodes="true">
    <sodipodi:guide
       position="315.53572,730.17859"
       orientation="0,1"
       id="guide3338" />
    <sodipodi:guide
       position="351.25,330.17858"
       orientation="0,1"
       id="guide3340" />
    <sodipodi:guide
       position="189.10714,408.8393"
       orientation="1,0"
       id="guide3344" />
    <sodipodi:guide
       position="589.04521,468.07945"
       orientation="1,0"
       id="guide3346" />
    <inkscape:grid
       type="xygrid"
       id="grid3440" />
    <sodipodi:guide
       position="589.04521,378.30213"
       orientation="1,0"
       id="guide3411" />
  </sodipodi:namedview>
  <metadata
     id="metadata7">
    <rdf:RDF>
      <cc:Work
         rdf:about="">
        <dc:format>image/svg+xml</dc:format>
        <dc:type
           rdf:resource="http://purl.org/dc/dcmitype/StillImage" />
        <dc:title>timetable</dc:title>
        <dc:date>June 2015</dc:date>
        <dc:creator>
          <cc:Agent>
            <dc:title>Johannes Hechler</dc:title>
          </cc:Agent>
        </dc:creator>
        <dc:rights>
          <cc:Agent>
            <dc:title>Johannes Hechler</dc:title>
          </cc:Agent>
        </dc:rights>
        <dc:publisher>
          <cc:Agent>
            <dc:title>RRZE</dc:title>
          </cc:Agent>
        </dc:publisher>
        <dc:contributor>
          <cc:Agent>
            <dc:title>Ute Weber, Hendrik Eggers, Joanna Barbach</dc:title>
          </cc:Agent>
        </dc:contributor>
        <dc:subject>
          <rdf:Bag>
            <rdf:li>event</rdf:li>
            <rdf:li>date</rdf:li>
            <rdf:li>calender</rdf:li>
            <rdf:li>timetable</rdf:li>
          </rdf:Bag>
        </dc:subject>
        <cc:license
           rdf:resource="http://creativecommons.org/licenses/by-sa/3.0/" />
      </cc:Work>
      <cc:License
         rdf:about="http://creativecommons.org/licenses/by-sa/3.0/">
        <cc:permits
           rdf:resource="http://creativecommons.org/ns#Reproduction" />
        <cc:permits
           rdf:resource="http://creativecommons.org/ns#Distribution" />
        <cc:requires
           rdf:resource="http://creativecommons.org/ns#Notice" />
        <cc:requires
           rdf:resource="http://creativecommons.org/ns#Attribution" />
        <cc:permits
           rdf:resource="http://creativecommons.org/ns#DerivativeWorks" />
        <cc:requires
           rdf:resource="http://creativecommons.org/ns#ShareAlike" />
      </cc:License>
    </rdf:RDF>
  </metadata>
  <g
     inkscape:label="Ebene 1"
     inkscape:groupmode="layer"
     id="layer1">
    <g
       id="g4166">
      <flowRoot
         style="font-style:normal;font-weight:normal;font-size:40px;line-height:125%;font-family:sans-serif;letter-spacing:0px;word-spacing:0px;fill:#252525;fill-opacity:1;stroke:none;stroke-width:1px;stroke-linecap:butt;stroke-linejoin:miter;stroke-opacity:1"
         id="flowRoot4169"
         xml:space="preserve"><flowRegion
           id="flowRegion4171"><rect
             y="427.07962"
             x="89.541069"
             height="88.78862"
             width="56.433445"
             id="rect4173" /></flowRegion><flowPara
           id="flowPara4175" /></flowRoot>      <rect
         inkscape:export-ydpi="4.9499998"
         inkscape:export-xdpi="4.9499998"
         y="322.27005"
         x="189.14485"
         height="400"
         width="400"
         id="rect3336"
         style="fill:none;fill-rule:evenodd;stroke:none;stroke-width:1px;stroke-linecap:butt;stroke-linejoin:miter;stroke-opacity:1" />
      <path
         id="path4169"
         d="m 315.78125,322.18359 c -0.39318,0.008 -0.77771,0.0433 -1.16992,0.0527 -5.09291,0.0543 -10.19001,0.37253 -15.22266,1.04687 -3.98529,0.58922 -7.93056,1.34191 -11.83008,2.27539 -3.89952,0.93354 -7.81194,2.09543 -11.57421,3.4336 -7.63647,2.66755 -14.94027,6.09103 -21.89844,10.16211 -3.42755,2.09592 -6.74767,4.31058 -10.0293,6.69922 -2.27389,1.73582 -4.4913,3.4229 -6.66211,5.27929 -2.56192,2.26343 -5.00576,4.64495 -7.38086,7.08594 -0.77308,0.78493 -1.53827,1.58261 -2.2832,2.38086 -0.2669,0.29014 -0.5568,0.56275 -0.82031,0.85547 -0.98235,1.04867 -1.90488,2.04603 -2.77539,3.10351 l 0.0293,0.0312 c -1.41579,1.66642 -2.76364,3.41925 -4.05468,5.18946 -6.02703,7.88686 -11.14453,16.45057 -15.03907,25.5957 l -0.0508,-0.0586 c -0.19829,0.37833 -0.34532,0.81399 -0.43164,1.20117 -1.23392,2.8299 -2.30607,5.72848 -3.27344,8.74804 -0.28487,0.76558 -0.50494,1.48076 -0.73828,2.30665 -0.0802,0.25753 -0.14784,0.52424 -0.22656,0.7832 l -0.008,0 c -0.0431,0.14318 -0.0749,0.2883 -0.11719,0.43164 -0.59375,1.9775 -1.13,3.98046 -1.61914,5.99609 -0.0734,0.30286 -0.14752,0.60502 -0.21875,0.90821 -0.11474,0.49097 -0.25254,0.98314 -0.35938,1.47265 -0.10381,0.61088 -0.26921,1.27778 -0.37304,1.88867 -0.0884,0.42163 -0.14487,0.84347 -0.22657,1.26563 -0.23504,1.21022 -0.45998,2.42185 -0.6582,3.63867 -0.0337,0.22715 -0.0702,0.45459 -0.10351,0.68164 -0.62164,3.95672 -1.09179,7.94484 -1.32422,11.96289 -0.15857,2.06292 -0.23438,4.20274 -0.23438,6.26563 0,16.18582 3.24963,32.13051 9.51758,47.04687 2.16769,4.92656 4.63018,9.73061 7.38672,14.34961 0.32837,0.55757 0.66661,1.1096 1.0039,1.66211 0.24814,0.40011 0.47741,0.81018 0.73047,1.20703 0.7934,1.34882 1.5882,2.61917 2.46094,3.88867 1.98463,2.97706 4.17821,5.8643 6.48633,8.60157 0.47219,0.59567 0.93173,1.17304 1.40625,1.77148 0.31824,0.24965 0.57617,0.54813 0.83398,0.84961 0.0521,0.0596 0.10958,0.11575 0.16211,0.17578 1.1895,1.35691 2.4027,2.68682 3.65235,3.99024 0.0375,0.0387 0.0723,0.0791 0.10937,0.11718 0.7555,0.78627 1.50818,1.58824 2.26953,2.34961 0.23803,0.23805 0.39788,0.39284 0.55664,0.63086 5.79196,5.55398 12.1369,10.62834 18.88086,14.99219 3.41173,2.14224 6.90038,4.12821 10.47071,5.95312 0.0862,0.0439 0.17745,0.0812 0.26367,0.125 0.18442,0.11055 0.38236,0.20638 0.5625,0.32032 1.28193,0.63672 2.57952,1.21875 3.87305,1.80273 0.31898,0.14506 0.63285,0.29551 0.95312,0.4375 1.0899,0.48008 2.20657,0.92914 3.31641,1.37695 0.68907,0.28 1.37439,0.59311 2.06445,0.85743 0.20617,0.0802 0.41464,0.14746 0.62109,0.22656 0.094,0.0338 0.18484,0.0742 0.2793,0.10937 3.76764,1.47596 7.55623,2.72643 11.4707,3.76368 1.63661,0.43358 3.26429,0.81519 4.89844,1.18554 0.0187,0.004 0.0332,0.012 0.0508,0.0156 0.004,9.8e-4 0.012,-9.8e-4 0.0156,0 1.21877,0.27552 2.45387,0.51657 3.68359,0.7539 0.7425,0.14695 1.47927,0.31896 2.22461,0.45313 0.17768,0.03 0.35719,0.0465 0.53516,0.0742 0.12593,0.0225 0.24672,0.0518 0.37304,0.0723 3.14575,0.5111 6.27833,0.87106 9.42969,1.11914 0.54856,0.0491 1.08931,0.1186 1.64063,0.16211 0.18965,0.0115 0.37361,0.0105 0.5625,0.0215 0.12262,0.008 0.2446,0.0238 0.36718,0.0312 1.43178,0.0915 2.87333,0.14521 4.31836,0.18359 l 0,-39.60742 c 0,-19.28491 13.85601,-35.67168 32.01953,-39.76758 1.97462,-18.14038 17.4807,-32.66211 36.08203,-32.66211 18.24713,0 33.52903,13.97099 35.97461,31.625 l 12.83985,0 c 1.68035,-4.74028 3.08089,-9.57409 4.16211,-14.48633 0.008,-0.03 0.014,-0.0579 0.0215,-0.0879 0.15181,-0.6279 0.25358,-1.21356 0.41016,-1.8457 0.10838,-0.55613 0.19064,-1.12948 0.29297,-1.69141 0.21591,-1.14707 0.42442,-2.29349 0.60742,-3.44726 0.34111,-2.15135 0.63163,-4.31526 0.85742,-6.48633 0.20318,-1.9531 0.38885,-3.90754 0.49805,-5.87305 0.0794,-2.06289 0.15491,-4.20542 0.23437,-6.34765 -0.0794,-0.3967 -0.082,-0.79669 -0.082,-1.19336 -0.0794,-7.6169 -0.87139,-15.23007 -2.37891,-22.76758 -0.3967,-1.90422 -0.87232,-3.80684 -1.42773,-5.71094 -0.47606,-1.98357 -0.95244,-3.96955 -1.50781,-5.95312 -0.95212,-2.77697 -1.89895,-5.55246 -3.00977,-8.25 -0.3967,-1.03143 -0.79394,-2.0662 -1.11133,-3.09766 -1.58683,-3.72906 -3.33283,-7.29299 -5.3164,-10.86328 -1.90422,-3.57041 -3.96472,-6.98403 -6.26563,-10.31641 -2.30095,-3.33227 -4.68354,-6.51112 -7.30078,-9.60546 -0.13157,-0.1552 -0.27033,-0.29836 -0.40234,-0.45313 -0.0481,-0.0563 -0.0907,-0.11955 -0.13867,-0.17578 -0.40262,-0.47084 -0.83473,-0.91285 -1.24414,-1.37695 -0.85214,-0.96819 -1.70314,-1.9413 -2.58399,-2.87696 -1.1155,-1.18574 -2.26747,-2.33323 -3.42773,-3.4707 -0.15295,-0.14956 -0.29944,-0.30431 -0.45313,-0.45313 -0.0115,-0.0115 -0.0221,-0.0278 -0.0371,-0.0391 -1.11704,-1.08255 -2.26333,-2.13258 -3.41992,-3.16992 -0.37781,-0.34111 -0.74408,-0.68734 -1.12695,-1.02344 -2.97683,-2.60292 -6.08246,-5.05256 -9.29883,-7.35156 -1.29257,-0.92392 -2.60859,-1.81418 -3.9375,-2.6875 -0.36022,-0.23877 -0.70674,-0.48785 -1.07031,-0.72461 -0.0686,-0.0443 -0.14235,-0.0793 -0.21094,-0.12305 -3.55179,-2.27052 -7.21725,-4.37315 -11.00391,-6.27539 -0.6574,-0.31674 -1.34351,-0.57208 -2.00586,-0.8789 -2.6938,-1.30131 -5.4191,-2.54329 -8.20117,-3.66797 -1.26948,-0.3967 -2.53717,-0.79738 -3.80664,-1.27344 -0.24327,-0.0848 -0.49449,-0.14372 -0.73828,-0.22656 -1.12206,-0.38057 -2.2423,-0.76046 -3.375,-1.10547 -1.47959,-0.50945 -2.91204,-0.9637 -4.40039,-1.36133 -3.18968,-0.90113 -6.46401,-1.60638 -9.73828,-2.17383 -0.39475,-0.09 -0.79079,-0.17953 -1.18555,-0.28711 -3.9671,-0.63477 -7.93791,-1.1897 -11.98437,-1.42773 -0.0757,-0.008 -0.15047,-0.007 -0.22657,-0.0137 -0.22265,-0.0187 -0.42865,-0.0303 -0.63867,-0.0879 -0.72035,-0.0411 -1.44402,-0.0451 -2.16601,-0.0742 -1.0107,-0.0481 -2.02054,-0.0829 -3.03125,-0.10156 -0.43718,-0.008 -0.8731,-0.0177 -1.31055,-0.0215 -0.39794,-0.004 -0.79541,-0.0234 -1.19336,-0.0234 z m 64.85937,164.32422 c -1.11985,0 -1.47656,0.3567 -1.47656,1.47657 l 0,12.64843 a 17.50175,17.50175 0 0 1 -17.5,17.5 l -8.32226,0 c -3.5164,0 -5.80274,2.28718 -5.80274,5.80469 l 0,35.39844 c 2.74543,-0.73257 5.47068,-1.54743 8.17383,-2.45313 1.22263,-0.52359 2.44458,-1.04458 3.71875,-1.50781 3.28662,-1.28513 6.50061,-2.76834 9.67188,-4.3418 l 0,0.0586 c 0.37838,-0.15106 0.74515,-0.38058 1.05468,-0.60742 0.015,-0.0115 0.037,-0.02 0.0508,-0.0313 0.36509,-0.17731 0.72128,-0.3796 1.08399,-0.5625 1.0565,-0.53279 2.11353,-1.06903 3.1543,-1.64843 0.23278,-0.1297 0.47912,-0.23405 0.71093,-0.36524 0.81799,-0.38632 1.58237,-0.83634 2.40039,-1.22265 3.4276,-2.09588 6.80124,-4.25027 10.03125,-6.69922 2.32553,-1.6754 4.54987,-3.47373 6.72071,-5.33008 3.68702,-3.25751 7.15994,-6.64355 10.42578,-10.27148 0.98213,-1.04849 1.90122,-2.04535 2.83203,-3.1543 l -0.0371,-0.0391 c 0.83169,-0.99759 1.64511,-2.00769 2.44336,-3.02735 l -10.35938,0 a 17.50175,17.50175 0 0 1 -17.5,-17.5 l 0,-12.64843 c 0,-1.11987 -0.35474,-1.47657 -1.47461,-1.47657 z"
         style="fill:#4e505d;fill-opacity:1;fill-rule:nonzero;stroke:none"
         inkscape:connector-curvature="0" />
      <path
         style="fill:#ffffff;fill-opacity:1;fill-rule:nonzero;stroke:none"
         d="m 333.07861,442.86599 c 0,9.52108 -7.77554,17.29662 -17.29663,17.29662 -9.52108,0 -17.217,-7.77554 -17.217,-17.29662 0,-9.52108 7.69592,-17.21697 17.217,-17.21697 9.52109,0 17.29663,7.69589 17.29663,17.21697 z"
         id="path4171"
         inkscape:connector-curvature="0" />
      <path
         inkscape:transform-center-y="-0.44401671"
         inkscape:transform-center-x="52.010188"
         style="fill:#ffffff;fill-opacity:1;fill-rule:nonzero;stroke:none"
         d="m 222.06119,437.7437 83.59459,0.097 c 4.38141,-0.0577 7.86266,2.88215 7.89629,6.42051 -0.0246,3.59231 -3.55757,6.43339 -7.93901,6.49104 l -83.53634,-0.15103 c -4.38145,0.0577 -7.86269,-2.88218 -7.89633,-6.42056 0.0245,-3.59221 3.50359,-6.49147 7.8808,-6.43699 z"
         id="path4173"
         inkscape:connector-curvature="0" />
      <path
         inkscape:transform-center-y="-31.125949"
         inkscape:transform-center-x="-0.70931132"
         style="fill:#ffffff;fill-opacity:1;fill-rule:nonzero;stroke:none"
         d="m 317.88389,441.9371 c 4.39258,0.005 7.92235,-3.98295 7.9334,-9.05339 l 0.0263,-42.82083 c -0.0635,-5.04329 -3.56323,-9.08845 -7.9558,-9.09306 -4.46715,0.0225 -7.99661,4.00997 -8.00766,9.08042 l -0.0266,42.82091 c 0.0635,5.04331 3.56324,9.08847 8.03039,9.06595 z"
         id="path4175"
         inkscape:connector-curvature="0" />
      <path
         id="rect4149"
         d="m 380.63985,469.18543 c -10.51215,0 -18.975,8.46285 -18.975,18.975 l 0,12.65 -8.32256,0 c -12.90965,0 -23.30244,10.39402 -23.30244,23.30367 l 0,174.76889 c 0,12.90966 10.39279,23.30244 23.30244,23.30244 l 206.39512,0 c 12.90966,0 23.30244,-10.39278 23.30244,-23.30244 l 0,-174.76889 c 0,-12.90965 -10.39278,-23.30367 -23.30244,-23.30367 l -8.32256,0 0,-12.65 c 0,-10.51215 -8.46285,-18.975 -18.975,-18.975 -10.51215,0 -18.975,8.46285 -18.975,18.975 l 0,12.65 -113.85,0 0,-12.65 c 0,-10.51215 -8.46285,-18.975 -18.975,-18.975 z"
         style="color:#252525;clip-rule:nonzero;display:inline;overflow:visible;visibility:visible;opacity:1;isolation:auto;mix-blend-mode:normal;color-interpolation:sRGB;color-interpolation-filters:linearRGB;solid-color:#252525;solid-opacity:1;fill:#99b000;fill-opacity:1;fill-rule:nonzero;stroke:none;stroke-width:23;stroke-linecap:butt;stroke-linejoin:round;stroke-miterlimit:4;stroke-dasharray:none;stroke-dashoffset:0;stroke-opacity:1;color-rendering:auto;image-rendering:auto;shape-rendering:auto;text-rendering:auto;enable-background:accumulate"
         inkscape:connector-curvature="0" />
      <rect
         ry="11.651311"
         y="570.54211"
         x="349.01483"
         height="133.99013"
         width="215.05"
         id="rect4151"
         style="color:#252525;clip-rule:nonzero;display:inline;overflow:visible;visibility:visible;opacity:1;isolation:auto;mix-blend-mode:normal;color-interpolation:sRGB;color-interpolation-filters:linearRGB;solid-color:#252525;solid-opacity:1;fill:#ffffff;fill-opacity:1;fill-rule:nonzero;stroke:none;stroke-width:23;stroke-linecap:butt;stroke-linejoin:round;stroke-miterlimit:4;stroke-dasharray:none;stroke-dashoffset:0;stroke-opacity:1;color-rendering:auto;image-rendering:auto;shape-rendering:auto;text-rendering:auto;enable-background:accumulate" />
      <text
         transform="scale(0.93243328,1.0724628)"
         sodipodi:linespacing="125%"
         id="text4199"
         y="629.75256"
         x="427.43155"
         style="font-style:normal;font-weight:normal;font-size:89.66355896px;line-height:125%;font-family:sans-serif;letter-spacing:0px;word-spacing:0px;fill:#252525;fill-opacity:1;stroke:none;stroke-width:1px;stroke-linecap:butt;stroke-linejoin:miter;stroke-opacity:1"
         xml:space="preserve"><tspan
           style="font-style:normal;font-variant:normal;font-weight:bold;font-stretch:normal;font-family:sans-serif;-inkscape-font-specification:'sans-serif Bold';fill:#4e505d"
           y="629.75256"
           x="427.43155"
           id="tspan4201"
           sodipodi:role="line">23</tspan></text>
    </g>
  </g>
</svg>
