<?xml version="1.0" encoding="UTF-8" standalone="no"?>
<!-- Created with Inkscape (http://www.inkscape.org/) -->

<svg
   xmlns:dc="http://purl.org/dc/elements/1.1/"
   xmlns:cc="http://creativecommons.org/ns#"
   xmlns:rdf="http://www.w3.org/1999/02/22-rdf-syntax-ns#"
   xmlns:svg="http://www.w3.org/2000/svg"
   xmlns="http://www.w3.org/2000/svg"
   xmlns:sodipodi="http://sodipodi.sourceforge.net/DTD/sodipodi-0.dtd"
   xmlns:inkscape="http://www.inkscape.org/namespaces/inkscape"
   width="210mm"
   height="297mm"
   viewBox="0 0 744.09448819 1052.3622047"
   id="svg2"
   version="1.1"
   inkscape:version="0.91 r13725"
   inkscape:export-xdpi="4"
   inkscape:export-ydpi="4"
   sodipodi:docname="timetable.svg">
  <defs
     id="defs4" />
  <sodipodi:namedview
     id="base"
     pagecolor="#ffffff"
     bordercolor="#666666"
     borderopacity="1.0"
     inkscape:pageopacity="0.0"
     inkscape:pageshadow="2"
     inkscape:zoom="1"
     inkscape:cx="209.31455"
     inkscape:cy="534.0235"
     inkscape:document-units="px"
     inkscape:current-layer="layer1"
     showgrid="false"
     showguides="true"
     inkscape:guide-bbox="true"
     inkscape:window-width="1600"
     inkscape:window-height="837"
     inkscape:window-x="-4"
     inkscape:window-y="-4"
     inkscape:window-maximized="1"
     inkscape:snap-bbox="true"
     inkscape:bbox-paths="true"
     inkscape:bbox-nodes="true">
    <sodipodi:guide
       position="315.53572,730.17859"
       orientation="0,1"
       id="guide3338" />
    <sodipodi:guide
       position="351.25,330.17858"
       orientation="0,1"
       id="guide3340" />
    <sodipodi:guide
       position="189.10714,408.8393"
       orientation="1,0"
       id="guide3344" />
    <sodipodi:guide
       position="589.04521,468.07945"
       orientation="1,0"
       id="guide3346" />
    <inkscape:grid
       type="xygrid"
       id="grid3440" />
    <sodipodi:guide
       position="589.04521,378.30213"
       orientation="1,0"
       id="guide3411" />
  </sodipodi:namedview>
  <metadata
     id="metadata7">
    <rdf:RDF>
      <cc:Work
         rdf:about="">
        <dc:format>image/svg+xml</dc:format>
        <dc:type
           rdf:resource="http://purl.org/dc/dcmitype/StillImage" />
        <dc:title>timetable</dc:title>
        <dc:date>June 2015</dc:date>
        <dc:creator>
          <cc:Agent>
            <dc:title>Johannes Hechler</dc:title>
          </cc:Agent>
        </dc:creator>
        <dc:rights>
          <cc:Agent>
            <dc:title>Johannes Hechler</dc:title>
          </cc:Agent>
        </dc:rights>
        <dc:publisher>
          <cc:Agent>
            <dc:title>RRZE</dc:title>
          </cc:Agent>
        </dc:publisher>
        <dc:contributor>
          <cc:Agent>
            <dc:title>Ute Weber, Hendrik Eggers, Joanna Barbach</dc:title>
          </cc:Agent>
        </dc:contributor>
        <dc:subject>
          <rdf:Bag>
            <rdf:li>event</rdf:li>
            <rdf:li>date</rdf:li>
            <rdf:li>calender</rdf:li>
            <rdf:li>timetable</rdf:li>
          </rdf:Bag>
        </dc:subject>
        <cc:license
           rdf:resource="http://creativecommons.org/licenses/by-sa/3.0/" />
      </cc:Work>
      <cc:License
         rdf:about="http://creativecommons.org/licenses/by-sa/3.0/">
        <cc:permits
           rdf:resource="http://creativecommons.org/ns#Reproduction" />
        <cc:permits
           rdf:resource="http://creativecommons.org/ns#Distribution" />
        <cc:requires
           rdf:resource="http://creativecommons.org/ns#Notice" />
        <cc:requires
           rdf:resource="http://creativecommons.org/ns#Attribution" />
        <cc:permits
           rdf:resource="http://creativecommons.org/ns#DerivativeWorks" />
        <cc:requires
           rdf:resource="http://creativecommons.org/ns#ShareAlike" />
      </cc:License>
    </rdf:RDF>
  </metadata>
  <g
     inkscape:label="Ebene 1"
     inkscape:groupmode="layer"
     id="layer1">
    <g
       id="g4187">
      <flowRoot
         style="font-style:normal;font-weight:normal;font-size:40px;line-height:125%;font-family:sans-serif;letter-spacing:0px;word-spacing:0px;fill:#252525;fill-opacity:1;stroke:none;stroke-width:1px;stroke-linecap:butt;stroke-linejoin:miter;stroke-opacity:1"
         id="flowRoot4169"
         xml:space="preserve"><flowRegion
           id="flowRegion4171"><rect
             y="427.07962"
             x="89.541069"
             height="88.78862"
             width="56.433445"
             id="rect4173" /></flowRegion><flowPara
           id="flowPara4175" /></flowRoot>      <rect
         inkscape:export-ydpi="4.9499998"
         inkscape:export-xdpi="4.9499998"
         y="322.27005"
         x="189.14485"
         height="400"
         width="400"
         id="rect3336"
         style="fill:none;fill-rule:evenodd;stroke:none;stroke-width:1px;stroke-linecap:butt;stroke-linejoin:miter;stroke-opacity:1" />
      <path
         id="path4169"
         d="M 315.78125 322.18359 C 315.38807 322.19159 315.00354 322.22693 314.61133 322.23633 C 309.51842 322.29063 304.42132 322.60886 299.38867 323.2832 C 295.40338 323.87242 291.45811 324.62511 287.55859 325.55859 C 283.65907 326.49213 279.74665 327.65402 275.98438 328.99219 C 268.34791 331.65974 261.04411 335.08322 254.08594 339.1543 C 250.65839 341.25022 247.33827 343.46488 244.05664 345.85352 C 241.78275 347.58934 239.56534 349.27642 237.39453 351.13281 C 234.83261 353.39624 232.38877 355.77776 230.01367 358.21875 C 229.24059 359.00368 228.4754 359.80136 227.73047 360.59961 C 227.46357 360.88975 227.17367 361.16236 226.91016 361.45508 C 225.92781 362.50375 225.00528 363.50111 224.13477 364.55859 L 224.16406 364.58984 C 222.74827 366.25626 221.40042 368.00909 220.10938 369.7793 C 214.08235 377.66616 208.96485 386.22987 205.07031 395.375 L 205.01953 395.31641 C 204.82124 395.69474 204.67421 396.1304 204.58789 396.51758 C 203.35397 399.34748 202.28182 402.24606 201.31445 405.26562 C 201.02958 406.0312 200.80951 406.74638 200.57617 407.57227 C 200.49597 407.8298 200.42833 408.09651 200.34961 408.35547 L 200.3418 408.35547 C 200.2987 408.49865 200.26691 408.64377 200.22461 408.78711 C 199.63086 410.76461 199.09461 412.76757 198.60547 414.7832 C 198.53207 415.08606 198.45795 415.38822 198.38672 415.69141 C 198.27198 416.18238 198.13418 416.67455 198.02734 417.16406 C 197.92353 417.77494 197.75813 418.44184 197.6543 419.05273 C 197.5659 419.47436 197.50943 419.8962 197.42773 420.31836 C 197.19269 421.52858 196.96775 422.74021 196.76953 423.95703 C 196.73583 424.18418 196.69932 424.41162 196.66602 424.63867 C 196.04438 428.59539 195.57423 432.58351 195.3418 436.60156 C 195.18323 438.66448 195.10742 440.8043 195.10742 442.86719 C 195.10742 459.05301 198.35705 474.9977 204.625 489.91406 C 206.79269 494.84062 209.25518 499.64467 212.01172 504.26367 C 212.34009 504.82124 212.67833 505.37327 213.01562 505.92578 C 213.26376 506.32589 213.49303 506.73596 213.74609 507.13281 C 214.53949 508.48163 215.33429 509.75198 216.20703 511.02148 C 218.19166 513.99854 220.38524 516.88578 222.69336 519.62305 C 223.16555 520.21872 223.62509 520.79609 224.09961 521.39453 C 224.41785 521.64418 224.67578 521.94266 224.93359 522.24414 C 224.98569 522.30374 225.04317 522.35989 225.0957 522.41992 C 226.2852 523.77683 227.4984 525.10674 228.74805 526.41016 C 228.78555 526.44886 228.82033 526.48924 228.85742 526.52734 C 229.61292 527.31361 230.3656 528.11558 231.12695 528.87695 C 231.36498 529.115 231.52483 529.26979 231.68359 529.50781 C 237.47555 535.06179 243.82049 540.13615 250.56445 544.5 C 253.97618 546.64224 257.46483 548.62821 261.03516 550.45312 C 261.12136 550.49703 261.21261 550.53434 261.29883 550.57812 C 261.48325 550.68867 261.68119 550.7845 261.86133 550.89844 C 263.14326 551.53516 264.44085 552.11719 265.73438 552.70117 C 266.05336 552.84623 266.36723 552.99668 266.6875 553.13867 C 267.7774 553.61875 268.89407 554.06781 270.00391 554.51562 C 270.69298 554.79562 271.3783 555.10873 272.06836 555.37305 C 272.27453 555.45325 272.483 555.52051 272.68945 555.59961 C 272.78345 555.63341 272.87429 555.67379 272.96875 555.70898 C 276.73639 557.18494 280.52498 558.43541 284.43945 559.47266 C 286.07606 559.90624 287.70374 560.28785 289.33789 560.6582 C 289.35659 560.6622 289.37107 560.67023 289.38867 560.67383 C 289.39267 560.67481 289.4007 560.67285 289.4043 560.67383 C 290.62307 560.94935 291.85817 561.1904 293.08789 561.42773 C 293.83039 561.57468 294.56716 561.74669 295.3125 561.88086 C 295.49018 561.91086 295.66969 561.92738 295.84766 561.95508 C 295.97359 561.97758 296.09438 562.00684 296.2207 562.02734 C 299.36645 562.53844 302.49903 562.8984 305.65039 563.14648 C 306.19895 563.19558 306.7397 563.26508 307.29102 563.30859 C 307.48067 563.32009 307.66463 563.31908 307.85352 563.33008 C 307.97614 563.33808 308.09812 563.35383 308.2207 563.36133 C 309.65248 563.45278 311.09403 563.50654 312.53906 563.54492 L 312.53906 523.9375 C 312.53906 504.65259 326.39507 488.26582 344.55859 484.16992 C 346.53321 466.02954 362.03929 451.50781 380.64062 451.50781 C 398.88775 451.50781 414.16965 465.4788 416.61523 483.13281 L 429.45508 483.13281 C 431.13543 478.39253 432.53597 473.55872 433.61719 468.64648 C 433.62519 468.61648 433.63117 468.58859 433.63867 468.55859 C 433.79048 467.93069 433.89225 467.34503 434.04883 466.71289 C 434.15721 466.15676 434.23947 465.58341 434.3418 465.02148 C 434.55771 463.87441 434.76622 462.72799 434.94922 461.57422 C 435.29033 459.42287 435.58085 457.25896 435.80664 455.08789 C 436.00982 453.13479 436.19549 451.18035 436.30469 449.21484 C 436.38409 447.15195 436.4596 445.00942 436.53906 442.86719 C 436.45966 442.47049 436.45703 442.0705 436.45703 441.67383 C 436.37763 434.05693 435.58564 426.44376 434.07812 418.90625 C 433.68142 417.00203 433.2058 415.09941 432.65039 413.19531 C 432.17433 411.21174 431.69795 409.22576 431.14258 407.24219 C 430.19046 404.46522 429.24363 401.68973 428.13281 398.99219 C 427.73611 397.96076 427.33887 396.92599 427.02148 395.89453 C 425.43465 392.16547 423.68865 388.60154 421.70508 385.03125 C 419.80086 381.46084 417.74036 378.04722 415.43945 374.71484 C 413.1385 371.38257 410.75591 368.20372 408.13867 365.10938 C 408.0071 364.95418 407.86834 364.81102 407.73633 364.65625 C 407.68823 364.59995 407.64564 364.5367 407.59766 364.48047 C 407.19504 364.00963 406.76293 363.56762 406.35352 363.10352 C 405.50138 362.13533 404.65038 361.16222 403.76953 360.22656 C 402.65403 359.04082 401.50206 357.89333 400.3418 356.75586 C 400.18885 356.6063 400.04236 356.45155 399.88867 356.30273 C 399.87717 356.29123 399.86656 356.27497 399.85156 356.26367 C 398.73452 355.18112 397.58823 354.13109 396.43164 353.09375 C 396.05383 352.75264 395.68756 352.40641 395.30469 352.07031 C 392.32786 349.46739 389.22223 347.01775 386.00586 344.71875 C 384.71329 343.79483 383.39727 342.90457 382.06836 342.03125 C 381.70814 341.79248 381.36162 341.5434 380.99805 341.30664 C 380.92945 341.26234 380.8557 341.22738 380.78711 341.18359 C 377.23532 338.91307 373.56986 336.81044 369.7832 334.9082 C 369.1258 334.59146 368.43969 334.33612 367.77734 334.0293 C 365.08354 332.72799 362.35824 331.48601 359.57617 330.36133 C 358.30669 329.96463 357.039 329.56395 355.76953 329.08789 C 355.52626 329.00309 355.27504 328.94417 355.03125 328.86133 C 353.90919 328.48076 352.78895 328.10087 351.65625 327.75586 C 350.17666 327.24641 348.74421 326.79216 347.25586 326.39453 C 344.06618 325.4934 340.79185 324.78815 337.51758 324.2207 C 337.12283 324.1307 336.72679 324.04117 336.33203 323.93359 C 332.36493 323.29882 328.39412 322.74389 324.34766 322.50586 C 324.27196 322.49786 324.19719 322.49919 324.12109 322.49219 C 323.89844 322.47349 323.69244 322.4619 323.48242 322.4043 C 322.76207 322.3632 322.0384 322.35918 321.31641 322.33008 C 320.30571 322.28198 319.29587 322.24722 318.28516 322.22852 C 317.84798 322.22052 317.41206 322.21083 316.97461 322.20703 C 316.57667 322.20303 316.1792 322.18359 315.78125 322.18359 z M 380.64062 486.50781 C 379.52077 486.50781 379.16406 486.86451 379.16406 487.98438 L 379.16406 500.63281 A 17.50175 17.50175 0 0 1 361.66406 518.13281 L 353.3418 518.13281 C 349.8254 518.13281 347.53906 520.41999 347.53906 523.9375 L 347.53906 559.33594 C 350.28449 558.60337 353.00974 557.78851 355.71289 556.88281 C 356.93552 556.35922 358.15747 555.83823 359.43164 555.375 C 362.71826 554.08987 365.93225 552.60666 369.10352 551.0332 L 369.10352 551.0918 C 369.4819 550.94074 369.84867 550.71122 370.1582 550.48438 C 370.1732 550.47288 370.19518 550.46433 370.20898 550.45312 C 370.57407 550.27581 370.93026 550.07352 371.29297 549.89062 C 372.34947 549.35783 373.4065 548.82159 374.44727 548.24219 C 374.68005 548.11249 374.92639 548.00814 375.1582 547.87695 C 375.97619 547.49063 376.74057 547.04061 377.55859 546.6543 C 380.98619 544.55842 384.35983 542.40403 387.58984 539.95508 C 389.91537 538.27968 392.13971 536.48135 394.31055 534.625 C 397.99757 531.36749 401.47049 527.98145 404.73633 524.35352 C 405.71846 523.30503 406.63755 522.30817 407.56836 521.19922 L 407.53125 521.16016 C 408.36294 520.16257 409.17636 519.15247 409.97461 518.13281 L 399.61523 518.13281 A 17.50175 17.50175 0 0 1 382.11523 500.63281 L 382.11523 487.98438 C 382.11523 486.86451 381.76049 486.50781 380.64062 486.50781 z "
         style="fill:#4e505d;fill-opacity:1;fill-rule:nonzero;stroke:none" />
      <path
         style="fill:#ffffff;fill-opacity:1;fill-rule:nonzero;stroke:none"
         d="m 333.07861,442.86599 c 0,9.52108 -7.77554,17.29662 -17.29663,17.29662 -9.52108,0 -17.217,-7.77554 -17.217,-17.29662 0,-9.52108 7.69592,-17.21697 17.217,-17.21697 9.52109,0 17.29663,7.69589 17.29663,17.21697 z"
         id="path4171"
         inkscape:connector-curvature="0" />
      <path
         inkscape:transform-center-y="-36.605329"
         inkscape:transform-center-x="36.96337"
         style="fill:#ffffff;fill-opacity:1;fill-rule:nonzero;stroke:none"
         d="m 253.45386,374.19276 59.86987,58.34092 c 3.18168,3.01281 3.62849,7.54734 1.18612,10.1078 -2.52171,2.55856 -7.03532,2.13287 -10.21701,-0.87997 l -59.79047,-58.33902 c -3.1817,-3.01285 -3.62849,-7.54738 -1.18611,-10.10786 2.52159,-2.55855 7.0371,-2.21215 10.1376,0.87813 z"
         id="path4173"
         inkscape:connector-curvature="0" />
      <path
         inkscape:transform-center-y="26.002839"
         inkscape:transform-center-x="17.096236"
         style="fill:#ffffff;fill-opacity:1;fill-rule:nonzero;stroke:none"
         d="m 316.16733,442.7294 c -3.72218,-2.33241 -8.82901,-0.82227 -11.52618,3.4713 l -22.72128,36.29555 c -2.6196,4.31005 -1.79632,9.5953 1.92587,11.92768 3.7998,2.34892 8.9063,0.83873 11.60348,-3.45484 l 22.7216,-36.29546 c 2.6196,-4.31006 1.79632,-9.59532 -2.00349,-11.94423 z"
         id="path4175"
         inkscape:connector-curvature="0" />
      <path
         id="rect4149"
         d="m 380.63985,469.18543 c -10.51215,0 -18.975,8.46285 -18.975,18.975 l 0,12.65 -8.32256,0 c -12.90965,0 -23.30244,10.39402 -23.30244,23.30367 l 0,174.76889 c 0,12.90966 10.39279,23.30244 23.30244,23.30244 l 206.39512,0 c 12.90966,0 23.30244,-10.39278 23.30244,-23.30244 l 0,-174.76889 c 0,-12.90965 -10.39278,-23.30367 -23.30244,-23.30367 l -8.32256,0 0,-12.65 c 0,-10.51215 -8.46285,-18.975 -18.975,-18.975 -10.51215,0 -18.975,8.46285 -18.975,18.975 l 0,12.65 -113.85,0 0,-12.65 c 0,-10.51215 -8.46285,-18.975 -18.975,-18.975 z"
         style="color:#252525;clip-rule:nonzero;display:inline;overflow:visible;visibility:visible;opacity:1;isolation:auto;mix-blend-mode:normal;color-interpolation:sRGB;color-interpolation-filters:linearRGB;solid-color:#252525;solid-opacity:1;fill:#99b000;fill-opacity:1;fill-rule:nonzero;stroke:none;stroke-width:23;stroke-linecap:butt;stroke-linejoin:round;stroke-miterlimit:4;stroke-dasharray:none;stroke-dashoffset:0;stroke-opacity:1;color-rendering:auto;image-rendering:auto;shape-rendering:auto;text-rendering:auto;enable-background:accumulate"
         inkscape:connector-curvature="0" />
      <rect
         ry="11.651311"
         y="570.54211"
         x="349.01483"
         height="133.99013"
         width="215.05"
         id="rect4151"
         style="color:#252525;clip-rule:nonzero;display:inline;overflow:visible;visibility:visible;opacity:1;isolation:auto;mix-blend-mode:normal;color-interpolation:sRGB;color-interpolation-filters:linearRGB;solid-color:#252525;solid-opacity:1;fill:#ffffff;fill-opacity:1;fill-rule:nonzero;stroke:none;stroke-width:23;stroke-linecap:butt;stroke-linejoin:round;stroke-miterlimit:4;stroke-dasharray:none;stroke-dashoffset:0;stroke-opacity:1;color-rendering:auto;image-rendering:auto;shape-rendering:auto;text-rendering:auto;enable-background:accumulate" />
      <text
         transform="scale(0.93243328,1.0724628)"
         sodipodi:linespacing="125%"
         id="text4199"
         y="629.75256"
         x="427.43155"
         style="font-style:normal;font-weight:normal;font-size:89.66355896px;line-height:125%;font-family:sans-serif;letter-spacing:0px;word-spacing:0px;fill:#252525;fill-opacity:1;stroke:none;stroke-width:1px;stroke-linecap:butt;stroke-linejoin:miter;stroke-opacity:1"
         xml:space="preserve"><tspan
           style="font-style:normal;font-variant:normal;font-weight:bold;font-stretch:normal;font-family:sans-serif;-inkscape-font-specification:'sans-serif Bold';fill:#4e505d"
           y="629.75256"
           x="427.43155"
           id="tspan4201"
           sodipodi:role="line">23</tspan></text>
    </g>
  </g>
</svg>
