<?xml version="1.0" encoding="UTF-8" standalone="no"?>
<!-- Created with Inkscape (http://www.inkscape.org/) -->

<svg
   xmlns:dc="http://purl.org/dc/elements/1.1/"
   xmlns:cc="http://creativecommons.org/ns#"
   xmlns:rdf="http://www.w3.org/1999/02/22-rdf-syntax-ns#"
   xmlns:svg="http://www.w3.org/2000/svg"
   xmlns="http://www.w3.org/2000/svg"
   xmlns:xlink="http://www.w3.org/1999/xlink"
   xmlns:sodipodi="http://sodipodi.sourceforge.net/DTD/sodipodi-0.dtd"
   xmlns:inkscape="http://www.inkscape.org/namespaces/inkscape"
   width="210mm"
   height="297mm"
   viewBox="0 0 744.09448819 1052.3622047"
   id="svg2"
   version="1.1"
   inkscape:version="0.91 r13725"
   inkscape:export-xdpi="4"
   inkscape:export-ydpi="4"
   sodipodi:docname="userdata.svg">
  <defs
     id="defs4">
    <linearGradient
       inkscape:collect="always"
       xlink:href="#linearGradient4197"
       id="linearGradient4203"
       x1="249.23784"
       y1="681.41742"
       x2="511.04788"
       y2="441.42242"
       gradientUnits="userSpaceOnUse"
       gradientTransform="matrix(0.94846087,0,0,0.94846087,21.232465,13.227004)" />
    <linearGradient
       inkscape:collect="always"
       id="linearGradient4197">
      <stop
         style="stop-color:#4e505d;stop-opacity:1;"
         offset="0"
         id="stop4199" />
      <stop
         style="stop-color:#7a8597;stop-opacity:1"
         offset="1"
         id="stop4201" />
    </linearGradient>
  </defs>
  <sodipodi:namedview
     id="base"
     pagecolor="#ffffff"
     bordercolor="#666666"
     borderopacity="1.0"
     inkscape:pageopacity="0.0"
     inkscape:pageshadow="2"
     inkscape:zoom="1.4142136"
     inkscape:cx="425.32194"
     inkscape:cy="456.10267"
     inkscape:document-units="px"
     inkscape:current-layer="layer1"
     showgrid="false"
     showguides="true"
     inkscape:guide-bbox="true"
     inkscape:window-width="1600"
     inkscape:window-height="837"
     inkscape:window-x="-4"
     inkscape:window-y="-4"
     inkscape:window-maximized="1"
     inkscape:snap-bbox="true"
     inkscape:bbox-nodes="true">
    <sodipodi:guide
       position="315.53572,730.17859"
       orientation="0,1"
       id="guide3338" />
    <sodipodi:guide
       position="351.25,330.17858"
       orientation="0,1"
       id="guide3340" />
    <sodipodi:guide
       position="189.10714,408.8393"
       orientation="1,0"
       id="guide3344" />
    <sodipodi:guide
       position="589.04521,468.07945"
       orientation="1,0"
       id="guide3346" />
    <inkscape:grid
       type="xygrid"
       id="grid3440" />
    <sodipodi:guide
       position="589.04521,378.30213"
       orientation="1,0"
       id="guide3411" />
    <sodipodi:guide
       position="0,0"
       orientation="0,1"
       id="guide4168" />
  </sodipodi:namedview>
  <metadata
     id="metadata7">
    <rdf:RDF>
      <cc:Work
         rdf:about="">
        <dc:format>image/svg+xml</dc:format>
        <dc:type
           rdf:resource="http://purl.org/dc/dcmitype/StillImage" />
        <dc:title>userdata</dc:title>
        <dc:date>June 2015</dc:date>
        <dc:creator>
          <cc:Agent>
            <dc:title>Johannes Hechler</dc:title>
          </cc:Agent>
        </dc:creator>
        <dc:rights>
          <cc:Agent>
            <dc:title>Johannes Hechler</dc:title>
          </cc:Agent>
        </dc:rights>
        <dc:publisher>
          <cc:Agent>
            <dc:title>RRZE</dc:title>
          </cc:Agent>
        </dc:publisher>
        <dc:contributor>
          <cc:Agent>
            <dc:title>Ute Weber, Hendrik Eggers, Joanna Barbach</dc:title>
          </cc:Agent>
        </dc:contributor>
        <cc:license
           rdf:resource="http://creativecommons.org/licenses/by-sa/3.0/" />
        <dc:subject>
          <rdf:Bag>
            <rdf:li>user</rdf:li>
            <rdf:li>data</rdf:li>
            <rdf:li>folder</rdf:li>
            <rdf:li>userdata</rdf:li>
          </rdf:Bag>
        </dc:subject>
      </cc:Work>
      <cc:License
         rdf:about="http://creativecommons.org/licenses/by-sa/3.0/">
        <cc:permits
           rdf:resource="http://creativecommons.org/ns#Reproduction" />
        <cc:permits
           rdf:resource="http://creativecommons.org/ns#Distribution" />
        <cc:requires
           rdf:resource="http://creativecommons.org/ns#Notice" />
        <cc:requires
           rdf:resource="http://creativecommons.org/ns#Attribution" />
        <cc:permits
           rdf:resource="http://creativecommons.org/ns#DerivativeWorks" />
        <cc:requires
           rdf:resource="http://creativecommons.org/ns#ShareAlike" />
      </cc:License>
    </rdf:RDF>
  </metadata>
  <g
     inkscape:label="Ebene 1"
     inkscape:groupmode="layer"
     id="layer1">
    <g
       id="g4212">
      <flowRoot
         transform="translate(-0.09964625,-0.08642)"
         style="font-style:normal;font-weight:normal;font-size:40px;line-height:125%;font-family:sans-serif;letter-spacing:0px;word-spacing:0px;fill:#252525;fill-opacity:1;stroke:none;stroke-width:1px;stroke-linecap:butt;stroke-linejoin:miter;stroke-opacity:1"
         id="flowRoot4169"
         xml:space="preserve"><flowRegion
           id="flowRegion4171"><rect
             y="427.07962"
             x="89.541069"
             height="88.78862"
             width="56.433445"
             id="rect4173" /></flowRegion><flowPara
           id="flowPara4175" /></flowRoot>      <rect
         inkscape:export-ydpi="4.9499998"
         inkscape:export-xdpi="4.9499998"
         y="322.18362"
         x="189.04521"
         height="400"
         width="400"
         id="rect3336"
         style="fill:none;fill-rule:evenodd;stroke:none;stroke-width:1px;stroke-linecap:butt;stroke-linejoin:miter;stroke-opacity:1" />
      <path
         id="rect4182"
         d="M 208.66602 427.44922 L 208.66602 449.30078 L 208.66602 459.4707 L 208.66602 638.1543 C 208.66602 650.22642 218.3792 659.94531 230.44531 659.94531 L 408.33008 659.94531 C 412.7048 616.60756 431.29762 579.18865 460.35938 558.47852 C 450.324 547.26046 444.14243 532.55443 444.14258 516.45508 C 444.14227 481.58022 472.9102 453.02636 507.82031 453.02734 C 542.7294 453.02783 571.4964 481.58124 571.49609 516.45508 C 571.49624 532.92842 565.02521 547.9425 554.57227 559.25195 C 560.76951 563.76841 566.47887 569.06461 571.66602 575.02539 L 571.66602 449.30078 C 571.66602 437.22867 561.95086 427.50977 549.88477 427.50977 C 427.44876 427.57147 330.79378 427.44922 208.66602 427.44922 z M 507.82031 488.02734 C 491.72402 488.02689 479.14244 500.59868 479.14258 516.45508 C 479.14244 532.31148 491.72402 544.88327 507.82031 544.88281 C 523.9161 544.88259 536.49624 532.31099 536.49609 516.45508 C 536.49623 500.59917 523.9161 488.02757 507.82031 488.02734 z M 482.11133 586.26758 C 464.17196 598.61766 448.26126 625.86026 443.66211 659.94531 L 549.88477 659.94531 C 557.74374 659.94531 564.60251 655.81994 568.43164 649.60938 C 562.37151 620.72994 548.18147 597.86957 532.32812 586.52734 C 524.59154 589.42935 516.24765 591.11719 507.55273 591.11719 C 498.60667 591.11719 490.03426 589.3313 482.11133 586.26758 z "
         style="opacity:1;fill:url(#linearGradient4203);fill-opacity:1;stroke:none;stroke-width:0;stroke-linecap:square;stroke-linejoin:round;stroke-miterlimit:4;stroke-dasharray:none;stroke-opacity:1" />
      <path
         style="opacity:1;fill:#99b000;fill-opacity:1;stroke:none;stroke-width:0;stroke-linecap:square;stroke-linejoin:round;stroke-miterlimit:4;stroke-dasharray:none;stroke-opacity:1"
         d="m 221.20175,384.55151 c -8.04407,0 -12.53622,10.7312 -12.53622,18.77928 l 0,13.62057 139.04799,0 c -10.93747,-13.8832 -18.42388,-31.9945 -32.13177,-32.39985 z"
         id="path4158"
         inkscape:connector-curvature="0"
         sodipodi:nodetypes="sscccs" />
      <path
         id="path2176"
         d="m 507.8206,470.52739 a 46.176422,45.92733 0 0 0 -46.17773,45.92773 46.176422,45.92733 0 0 0 46.17773,45.92774 46.176422,45.92733 0 0 0 46.17578,-45.92774 46.176422,45.92733 0 0 0 -46.17578,-45.92773 z m -26.9668,95.90039 c -0.0826,0.0731 -0.15888,0.15172 -0.24414,0.22265 l -4.60156,2.49415 c -30.01821,17.78249 -51.18164,60.67457 -51.18164,110.76367 0,10.75847 0.98157,21.18257 2.8125,31.09961 2.71583,6.07555 9.54066,10.52776 17.7168,11.10937 l 0,0.0664 121.51953,0 0,-0.006 c 9.17692,-0.12954 16.90699,-5.1231 19.5039,-11.96875 1.73768,-9.67824 2.66602,-19.8315 2.66602,-30.30274 0,-52.43814 -23.19668,-96.98727 -55.46484,-113.0957 -7.70407,4.32552 -16.58339,6.80664 -26.02735,6.80664 -9.71922,0 -18.84219,-2.6271 -26.69922,-7.18945 z"
         style="fill:#99b000;fill-opacity:1;stroke:none;stroke-width:41.15159225;stroke-linecap:round;stroke-linejoin:round;stroke-opacity:1"
         inkscape:connector-curvature="0" />
    </g>
  </g>
</svg>
