<?xml version="1.0" encoding="UTF-8" standalone="no"?>
<!-- Created with Inkscape (http://www.inkscape.org/) -->

<svg
   xmlns:dc="http://purl.org/dc/elements/1.1/"
   xmlns:cc="http://creativecommons.org/ns#"
   xmlns:rdf="http://www.w3.org/1999/02/22-rdf-syntax-ns#"
   xmlns:svg="http://www.w3.org/2000/svg"
   xmlns="http://www.w3.org/2000/svg"
   xmlns:xlink="http://www.w3.org/1999/xlink"
   xmlns:sodipodi="http://sodipodi.sourceforge.net/DTD/sodipodi-0.dtd"
   xmlns:inkscape="http://www.inkscape.org/namespaces/inkscape"
   width="210mm"
   height="297mm"
   viewBox="0 0 744.09448819 1052.3622047"
   id="svg2"
   version="1.1"
   inkscape:version="0.91 r13725"
   sodipodi:docname="variable-input.svg"
   inkscape:export-filename="C:\Users\johannes\Documents\Arbeit\RRZE\bi-con\bi-con\scalable\documents\document.png"
   inkscape:export-xdpi="4"
   inkscape:export-ydpi="4">
  <defs
     id="defs4">
    <linearGradient
       inkscape:collect="always"
       id="linearGradient4155">
      <stop
         style="stop-color:#9397a2;stop-opacity:1;"
         offset="0"
         id="stop4157" />
      <stop
         style="stop-color:#5a6578;stop-opacity:1"
         offset="1"
         id="stop4159" />
    </linearGradient>
    <linearGradient
       id="linearGradient2224">
      <stop
         id="stop2226"
         offset="0"
         style="stop-color:#7c7c7c;stop-opacity:1;" />
      <stop
         id="stop2228"
         offset="1"
         style="stop-color:#b8b8b8;stop-opacity:1;" />
    </linearGradient>
    <linearGradient
       id="linearGradient15218">
      <stop
         id="stop15220"
         offset="0"
         style="stop-color:#eeeeef;stop-opacity:1;" />
      <stop
         id="stop2736"
         offset="0.59928656"
         style="stop-color:#d3d7cf;stop-opacity:1;" />
      <stop
         id="stop2738"
         offset="0.82758623"
         style="stop-color:#ffffff;stop-opacity:1;" />
      <stop
         id="stop15222"
         offset="1"
         style="stop-color:#d3d7cf;stop-opacity:1;" />
    </linearGradient>
    <pattern
       y="0"
       x="0"
       height="6"
       width="6"
       patternUnits="userSpaceOnUse"
       id="EMFhbasepattern" />
    <pattern
       y="0"
       x="0"
       height="6"
       width="6"
       patternUnits="userSpaceOnUse"
       id="EMFhbasepattern-5" />
    <linearGradient
       inkscape:collect="always"
       xlink:href="#linearGradient4155"
       id="linearGradient4161"
       x1="557"
       y1="344.36221"
       x2="215"
       y2="693.36218"
       gradientUnits="userSpaceOnUse" />
  </defs>
  <sodipodi:namedview
     id="base"
     pagecolor="#ffffff"
     bordercolor="#666666"
     borderopacity="1.0"
     inkscape:pageopacity="0.0"
     inkscape:pageshadow="2"
     inkscape:zoom="0.35355339"
     inkscape:cx="942.72538"
     inkscape:cy="228.20394"
     inkscape:document-units="px"
     inkscape:current-layer="layer1"
     showgrid="false"
     showguides="true"
     inkscape:guide-bbox="true"
     inkscape:window-width="1366"
     inkscape:window-height="721"
     inkscape:window-x="-4"
     inkscape:window-y="-4"
     inkscape:window-maximized="1">
    <sodipodi:guide
       position="560,730.00002"
       orientation="0,1"
       id="guide3338" />
    <sodipodi:guide
       position="560,330.00001"
       orientation="0,1"
       id="guide3340" />
    <sodipodi:guide
       position="190,475.00001"
       orientation="1,0"
       id="guide3344" />
    <sodipodi:guide
       position="590,451.00001"
       orientation="1,0"
       id="guide3346" />
    <inkscape:grid
       type="xygrid"
       id="grid3440" />
  </sodipodi:namedview>
  <metadata
     id="metadata7">
    <rdf:RDF>
      <cc:Work
         rdf:about="">
        <dc:format>image/svg+xml</dc:format>
        <dc:type
           rdf:resource="http://purl.org/dc/dcmitype/StillImage" />
        <dc:title></dc:title>
      </cc:Work>
    </rdf:RDF>
  </metadata>
  <g
     inkscape:label="Ebene 1"
     inkscape:groupmode="layer"
     id="layer1">
    <rect
       style="opacity:1;fill:none;fill-opacity:1;stroke:none;stroke-width:23;stroke-linecap:butt;stroke-linejoin:round;stroke-miterlimit:4;stroke-dasharray:none;stroke-opacity:1"
       id="rect4160"
       width="400"
       height="400"
       x="190"
       y="322.36221" />
    <path
       style="color:#000000;clip-rule:nonzero;display:inline;overflow:visible;visibility:visible;opacity:1;isolation:auto;mix-blend-mode:normal;color-interpolation:sRGB;color-interpolation-filters:linearRGB;solid-color:#000000;solid-opacity:1;fill:url(#linearGradient4161);fill-opacity:1;fill-rule:nonzero;stroke:none;stroke-width:23;stroke-linecap:butt;stroke-linejoin:round;stroke-miterlimit:4;stroke-dasharray:none;stroke-dashoffset:0;stroke-opacity:1;color-rendering:auto;image-rendering:auto;shape-rendering:auto;text-rendering:auto;enable-background:accumulate"
       d="M 230 322.36133 C 207.84001 322.36133 190 340.20133 190 362.36133 L 190 682.36133 C 190 704.52133 207.84001 722.36133 230 722.36133 L 550 722.36133 C 572.15999 722.36133 590 704.52133 590 682.36133 L 590 362.36133 C 590 340.20133 572.15999 322.36133 550 322.36133 L 230 322.36133 z M 204.02344 475.79102 L 225.72461 475.79102 L 238.83789 496.86328 L 252.12305 475.79102 L 273.82422 475.79102 L 250.69141 510.38281 L 274.9707 546.87695 L 253.26758 546.87695 L 238.83789 524.4082 L 224.58008 546.87695 L 202.87695 546.87695 L 227.15625 510.50977 L 204.02344 475.79102 z M 363.55469 475.79102 L 384.05273 475.79102 L 401.28906 524.02734 L 415.94727 475.79102 L 436.44727 475.79102 L 409.47852 553.60352 C 406.76813 561.51594 403.59923 567.0388 399.97266 570.16992 C 396.38426 573.34335 391.63188 574.92969 385.71484 574.92969 L 373.86133 574.92969 L 373.86133 560.01367 L 380.27344 560.01367 C 383.74731 560.01367 386.26688 559.40089 387.83203 558.17383 C 389.43536 556.94677 390.67668 554.7457 391.55469 551.57227 L 392.12695 549.60547 L 363.55469 475.79102 z M 521.5957 475.79102 L 577.54102 475.79102 L 577.54102 491.6582 L 543.75586 530.62891 L 577.54102 530.62891 L 577.54102 546.87695 L 520.16406 546.87695 L 520.16406 531.00977 L 553.94922 492.03906 L 521.5957 492.03906 L 521.5957 475.79102 z M 288.65625 522.31445 L 309.26953 522.31445 L 309.26953 541.67188 L 295.12695 565.3457 L 282.92969 565.3457 L 288.65625 541.67188 L 288.65625 522.31445 z M 441.42969 522.31445 L 462.04297 522.31445 L 462.04297 541.67188 L 447.90039 565.3457 L 435.70312 565.3457 L 441.42969 541.67188 L 441.42969 522.31445 z "
       id="rect4149" />
    <path
       inkscape:connector-curvature="0"
       id="path4174"
       d="m 409.3838,626.1738 c 0,1.87428 -1.25413,3.74857 -3.7624,6.24761 l -102.83882,87.46652 c -5.01653,4.99808 -12.54132,2.49904 -12.54132,-7.49713 l 0,-29.98853 -87.78923,0 c -6.94789,0 -12.54132,-5.57288 -12.54132,-12.49521 l 0,-87.46652 c 0,-6.92232 5.59343,-12.4952 12.54132,-12.4952 l 87.78923,0 0,-29.98853 c 0,-9.99617 10.03306,-9.99617 12.54132,-7.49713 l 102.83882,87.46651 c 2.50827,2.49904 3.7624,4.37333 3.7624,6.24761 z"
       style="fill:#d9463a;fill-opacity:1;fill-rule:evenodd;stroke:#ffffff;stroke-width:23;stroke-linecap:butt;stroke-linejoin:round;stroke-opacity:1;stroke-miterlimit:4;stroke-dasharray:none" />
    <path
       style="fill:#abbe24;fill-opacity:1;fill-rule:evenodd;stroke:none;stroke-width:1;stroke-linecap:butt;stroke-linejoin:round;stroke-opacity:1;stroke-miterlimit:4;stroke-dasharray:none"
       d="m 409.3838,626.1738 c 0,1.87428 -1.25413,3.74857 -3.7624,6.24761 l -102.83882,87.46652 c -5.01653,4.99808 -12.54132,2.49904 -12.54132,-7.49713 l 0,-29.98853 -87.78923,0 c -6.94789,0 -12.54132,-5.57288 -12.54132,-12.49521 l 0,-87.46652 c 0,-6.92232 5.59343,-12.4952 12.54132,-12.4952 l 87.78923,0 0,-29.98853 c 0,-9.99617 10.03306,-9.99617 12.54132,-7.49713 l 102.83882,87.46651 c 2.50827,2.49904 3.7624,4.37333 3.7624,6.24761 z"
       id="path4237"
       inkscape:connector-curvature="0" />
  </g>
</svg>
