<?xml version="1.0" encoding="UTF-8" standalone="no"?>
<!-- Created with Inkscape (http://www.inkscape.org/) -->
<svg xmlns:dc="http://purl.org/dc/elements/1.1/" xmlns:cc="http://creativecommons.org/ns#" xmlns:rdf="http://www.w3.org/1999/02/22-rdf-syntax-ns#" xmlns:svg="http://www.w3.org/2000/svg" xmlns="http://www.w3.org/2000/svg" xmlns:sodipodi="http://sodipodi.sourceforge.net/DTD/sodipodi-0.dtd" xmlns:inkscape="http://www.inkscape.org/namespaces/inkscape" width="210mm" height="297mm" viewBox="0 0 744.09448819 1052.3622047" id="svg2" version="1.1" inkscape:version="0.91 r13725" inkscape:export-xdpi="4" inkscape:export-ydpi="4">
  <defs id="defs4">
    <linearGradient id="linearGradient2224">
      <stop id="stop2226" offset="0" style="stop-color:#7c7c7c;stop-opacity:1;"/>
      <stop id="stop2228" offset="1" style="stop-color:#b8b8b8;stop-opacity:1;"/>
    </linearGradient>
    <linearGradient id="linearGradient15218">
      <stop id="stop15220" offset="0" style="stop-color:#eeeeef;stop-opacity:1;"/>
      <stop id="stop2736" offset="0.59928656" style="stop-color:#d3d7cf;stop-opacity:1;"/>
      <stop id="stop2738" offset="0.82758623" style="stop-color:#ffffff;stop-opacity:1;"/>
      <stop id="stop15222" offset="1" style="stop-color:#d3d7cf;stop-opacity:1;"/>
    </linearGradient>
    <pattern y="0" x="0" height="6" width="6" patternUnits="userSpaceOnUse" id="EMFhbasepattern"/>
    <pattern y="0" x="0" height="6" width="6" patternUnits="userSpaceOnUse" id="EMFhbasepattern-5"/>
  </defs>
  <sodipodi:namedview id="base" pagecolor="#ffffff" bordercolor="#666666" borderopacity="1.0" inkscape:pageopacity="0.0" inkscape:pageshadow="2" inkscape:zoom="0.70710678" inkscape:cx="532.08916" inkscape:cy="474.33401" inkscape:document-units="px" inkscape:current-layer="layer1" showgrid="false" showguides="true" inkscape:guide-bbox="true" inkscape:window-width="1366" inkscape:window-height="721" inkscape:window-x="-4" inkscape:window-y="-4" inkscape:window-maximized="1">
    <sodipodi:guide position="560,730.00002" orientation="0,1" id="guide3338"/>
    <sodipodi:guide position="396.68691,330.21887" orientation="0,1" id="guide3340"/>
    <sodipodi:guide position="190,475.00001" orientation="1,0" id="guide3344"/>
    <sodipodi:guide position="590,451.00001" orientation="1,0" id="guide3346"/>
    <inkscape:grid type="xygrid" id="grid3440"/>
  </sodipodi:namedview>
  <metadata id="metadata7">
    <rdf:RDF>
      <cc:Work rdf:about="">
        <dc:format>image/svg+xml</dc:format>
        <dc:type rdf:resource="http://purl.org/dc/dcmitype/StillImage"/>
        <dc:title>vote grey</dc:title>
      </cc:Work>
    </rdf:RDF>
  </metadata>
  <g inkscape:label="Ebene 1" inkscape:groupmode="layer" id="layer1">
    <rect style="color:#000000;clip-rule:nonzero;display:inline;overflow:visible;visibility:visible;opacity:1;isolation:auto;mix-blend-mode:normal;color-interpolation:sRGB;color-interpolation-filters:linearRGB;solid-color:#000000;solid-opacity:1;fill:none;fill-opacity:1;fill-rule:nonzero;stroke:none;stroke-width:3;stroke-linecap:square;stroke-linejoin:round;stroke-miterlimit:4;stroke-dasharray:6, 3;stroke-dashoffset:0;stroke-opacity:1;color-rendering:auto;image-rendering:auto;shape-rendering:auto;text-rendering:auto;enable-background:accumulate" id="rect4158" width="400" height="399.78113" x="190" y="322.36221"/>
    <g id="g4152" transform="matrix(0.84787634,0,0,0.84787634,58.365785,75.893834)">
      <rect y="322.36221" x="190" height="400" width="400" id="rect4160" style="opacity:1;fill:none;fill-opacity:1;stroke:none;stroke-width:23;stroke-linecap:butt;stroke-linejoin:round;stroke-miterlimit:4;stroke-dasharray:none;stroke-opacity:1"/>
      <path inkscape:connector-curvature="0" id="path4149" d="m 389.87777,322.46289 c -110.34935,0 -199.99902,89.64967 -199.99902,199.99902 0,110.34935 89.64967,200.00098 199.99902,200.00098 110.34935,0 200.00098,-89.65163 200.00098,-200.00098 0,-110.34935 -89.65163,-199.99902 -200.00098,-199.99902 z m 0,18.19204 c 100.51783,0 181.80893,81.28917 181.80893,181.80698 0,100.51783 -81.2911,181.80894 -181.80893,181.80894 -100.51781,0 -181.80698,-81.29111 -181.80698,-181.80894 0,-100.51781 81.28917,-181.80697 181.80698,-181.80698 z" style="color:#000000;font-style:normal;font-variant:normal;font-weight:normal;font-stretch:normal;font-size:medium;line-height:normal;font-family:sans-serif;text-indent:0;text-align:start;text-decoration:none;text-decoration-line:none;text-decoration-style:solid;text-decoration-color:#000000;letter-spacing:normal;word-spacing:normal;text-transform:none;direction:ltr;block-progression:tb;writing-mode:lr-tb;baseline-shift:baseline;text-anchor:start;white-space:normal;clip-rule:nonzero;display:inline;overflow:visible;visibility:visible;opacity:1;isolation:auto;mix-blend-mode:normal;color-interpolation:sRGB;color-interpolation-filters:linearRGB;solid-color:#000000;solid-opacity:1;fill:#5a6578;fill-opacity:1;fill-rule:nonzero;stroke:none;stroke-width:18.17154694;stroke-linecap:butt;stroke-linejoin:round;stroke-miterlimit:4;stroke-dasharray:none;stroke-dashoffset:0;stroke-opacity:1;color-rendering:auto;image-rendering:auto;shape-rendering:auto;text-rendering:auto;enable-background:accumulate"/>
      <path style="opacity:1;fill:#abbe24;fill-opacity:1;stroke:#ffffff;stroke-width:30;stroke-linecap:square;stroke-linejoin:round;stroke-miterlimit:4;stroke-dasharray:none;stroke-opacity:1" d="m 565.76915,681.06035 c 12.85079,-12.82528 12.841,-33.47879 -0.007,-46.304 L 464.23658,533.43293 567.08474,430.78954 c 11.91359,-11.88987 11.90387,-31.03669 -0.007,-42.92657 l -31.28422,-31.22193 c -11.91359,-11.88985 -31.0987,-11.89963 -43.01226,-0.007 L 389.93317,459.27749 287.63937,357.18732 c -12.8508,-12.82514 -33.53578,-12.82518 -46.38666,0 l -28.29882,28.24253 c -12.85084,12.82523 -12.85077,33.46912 0,46.29433 L 315.24771,533.81427 212.27316,636.5838 c -11.91359,11.88988 -11.90381,31.03677 0.007,42.92663 l 31.28424,31.75362 c 11.81258,11.98982 31.09863,11.89952 43.0122,0.007 L 389.55153,607.97023 491.47662,710.62279 c 12.79219,12.88348 33.54559,12.83495 46.39638,0.007 l 27.89934,-29.57159 z" id="path4181" inkscape:connector-curvature="0" sodipodi:nodetypes="cccscsccsssscscsccsccc"/>
      <path sodipodi:nodetypes="cccscsccsssscscsccsccc" inkscape:connector-curvature="0" id="rect4217" d="m 565.76915,681.06035 c 12.85079,-12.82528 12.841,-33.47879 -0.007,-46.304 L 464.23658,533.43293 567.08474,430.78954 c 11.91359,-11.88987 11.90387,-31.03669 -0.007,-42.92657 l -31.28422,-31.22193 c -11.91359,-11.88985 -31.0987,-11.89963 -43.01226,-0.007 L 389.93317,459.27749 287.63937,357.18732 c -12.8508,-12.82514 -33.53578,-12.82518 -46.38666,0 l -28.29882,28.24253 c -12.85084,12.82523 -12.85077,33.46912 0,46.29433 L 315.24771,533.81427 212.27316,636.5838 c -11.91359,11.88988 -11.90381,31.03677 0.007,42.92663 l 31.28424,31.75362 c 11.81258,11.98982 31.09863,11.89952 43.0122,0.007 L 389.55153,607.97023 491.47662,710.62279 c 12.79219,12.88348 33.54559,12.83495 46.39638,0.007 l 27.89934,-29.57159 z" style="opacity:1;fill:#9397a2;fill-opacity:1;stroke:none;stroke-width:0;stroke-linecap:square;stroke-linejoin:round;stroke-miterlimit:4;stroke-dasharray:none;stroke-opacity:1"/>
    </g>
  </g>
</svg>
