<?xml version="1.0" encoding="UTF-8" standalone="no"?>
<!-- Created with Inkscape (http://www.inkscape.org/) -->

<svg
   xmlns:dc="http://purl.org/dc/elements/1.1/"
   xmlns:cc="http://creativecommons.org/ns#"
   xmlns:rdf="http://www.w3.org/1999/02/22-rdf-syntax-ns#"
   xmlns:svg="http://www.w3.org/2000/svg"
   xmlns="http://www.w3.org/2000/svg"
   xmlns:xlink="http://www.w3.org/1999/xlink"
   xmlns:sodipodi="http://sodipodi.sourceforge.net/DTD/sodipodi-0.dtd"
   xmlns:inkscape="http://www.inkscape.org/namespaces/inkscape"
   width="210mm"
   height="297mm"
   viewBox="0 0 744.09448819 1052.3622047"
   id="svg2"
   version="1.1"
   inkscape:version="0.91 r13725"
   inkscape:export-xdpi="4"
   inkscape:export-ydpi="4"
   sodipodi:docname="webview.svg">
  <defs
     id="defs4">
    <linearGradient
       inkscape:collect="always"
       xlink:href="#linearGradient4163"
       id="linearGradient4169"
       x1="189.10713"
       y1="722.18365"
       x2="589.04523"
       y2="374.95392"
       gradientUnits="userSpaceOnUse"
       gradientTransform="matrix(0.96197629,0,0,0.96250447,14.381562,19.565718)" />
    <linearGradient
       inkscape:collect="always"
       id="linearGradient4163">
      <stop
         style="stop-color:#4e505d;stop-opacity:1;"
         offset="0"
         id="stop4165" />
      <stop
         style="stop-color:#7a8597;stop-opacity:1"
         offset="1"
         id="stop4167" />
    </linearGradient>
  </defs>
  <sodipodi:namedview
     id="base"
     pagecolor="#ffffff"
     bordercolor="#666666"
     borderopacity="1.0"
     inkscape:pageopacity="0.0"
     inkscape:pageshadow="2"
     inkscape:zoom="0.5"
     inkscape:cx="319.62415"
     inkscape:cy="584.27682"
     inkscape:document-units="px"
     inkscape:current-layer="layer1"
     showgrid="false"
     showguides="true"
     inkscape:guide-bbox="true"
     inkscape:window-width="1600"
     inkscape:window-height="837"
     inkscape:window-x="-4"
     inkscape:window-y="-4"
     inkscape:window-maximized="1"
     inkscape:snap-bbox="true"
     inkscape:bbox-nodes="true">
    <sodipodi:guide
       position="315.53572,730.17859"
       orientation="0,1"
       id="guide3338" />
    <sodipodi:guide
       position="351.25,330.17858"
       orientation="0,1"
       id="guide3340" />
    <sodipodi:guide
       position="189.10714,408.8393"
       orientation="1,0"
       id="guide3344" />
    <sodipodi:guide
       position="589.04521,468.07945"
       orientation="1,0"
       id="guide3346" />
    <inkscape:grid
       type="xygrid"
       id="grid3440" />
    <sodipodi:guide
       position="589.04521,378.30213"
       orientation="1,0"
       id="guide3411" />
  </sodipodi:namedview>
  <metadata
     id="metadata7">
    <rdf:RDF>
      <cc:Work
         rdf:about="">
        <dc:format>image/svg+xml</dc:format>
        <dc:type
           rdf:resource="http://purl.org/dc/dcmitype/StillImage" />
        <dc:title>webview</dc:title>
        <dc:date>June 2015</dc:date>
        <dc:creator>
          <cc:Agent>
            <dc:title>Johannes Hechler</dc:title>
          </cc:Agent>
        </dc:creator>
        <dc:rights>
          <cc:Agent>
            <dc:title>Johannes Hechler</dc:title>
          </cc:Agent>
        </dc:rights>
        <dc:publisher>
          <cc:Agent>
            <dc:title>RRZE</dc:title>
          </cc:Agent>
        </dc:publisher>
        <dc:contributor>
          <cc:Agent>
            <dc:title>Ute Weber, Hendrik Eggers, Joanna Barbach</dc:title>
          </cc:Agent>
        </dc:contributor>
        <cc:license
           rdf:resource="http://creativecommons.org/licenses/by-sa/3.0/" />
        <dc:subject>
          <rdf:Bag>
            <rdf:li>view</rdf:li>
            <rdf:li>eye</rdf:li>
            <rdf:li>see</rdf:li>
            <rdf:li>overview</rdf:li>
            <rdf:li>web</rdf:li>
            <rdf:li>internet</rdf:li>
            <rdf:li>global</rdf:li>
          </rdf:Bag>
        </dc:subject>
      </cc:Work>
      <cc:License
         rdf:about="http://creativecommons.org/licenses/by-sa/3.0/">
        <cc:permits
           rdf:resource="http://creativecommons.org/ns#Reproduction" />
        <cc:permits
           rdf:resource="http://creativecommons.org/ns#Distribution" />
        <cc:requires
           rdf:resource="http://creativecommons.org/ns#Notice" />
        <cc:requires
           rdf:resource="http://creativecommons.org/ns#Attribution" />
        <cc:permits
           rdf:resource="http://creativecommons.org/ns#DerivativeWorks" />
        <cc:requires
           rdf:resource="http://creativecommons.org/ns#ShareAlike" />
      </cc:License>
    </rdf:RDF>
  </metadata>
  <g
     inkscape:label="Ebene 1"
     inkscape:groupmode="layer"
     id="layer1">
    <g
       id="g4210">
      <flowRoot
         transform="translate(-0.09964625,-0.08642)"
         style="font-style:normal;font-weight:normal;font-size:40px;line-height:125%;font-family:sans-serif;letter-spacing:0px;word-spacing:0px;fill:#252525;fill-opacity:1;stroke:none;stroke-width:1px;stroke-linecap:butt;stroke-linejoin:miter;stroke-opacity:1"
         id="flowRoot4169"
         xml:space="preserve"><flowRegion
           id="flowRegion4171"><rect
             y="427.07962"
             x="89.541069"
             height="88.78862"
             width="56.433445"
             id="rect4173" /></flowRegion><flowPara
           id="flowPara4175" /></flowRoot>      <rect
         inkscape:export-ydpi="4.9499998"
         inkscape:export-xdpi="4.9499998"
         y="322.18362"
         x="189.04521"
         height="400"
         width="400"
         id="rect3336"
         style="fill:none;fill-rule:evenodd;stroke:none;stroke-width:1px;stroke-linecap:butt;stroke-linejoin:miter;stroke-opacity:1" />
      <path
         id="path5"
         d="M 388.37305 329.61914 C 362.27346 329.61914 337.472 334.76966 313.64844 344.99609 C 266.32589 365.30473 231.46876 399.71724 211.13477 447.14258 C 200.94544 470.90249 195.97852 495.7963 195.97852 521.91016 C 195.97852 548.02919 200.94544 573.12776 211.13477 596.89258 C 231.46876 644.318 266.32527 678.93635 313.64844 699.25 C 314.62386 699.66871 315.6033 700.06708 316.58203 700.46875 C 289.40277 681.46289 273.51662 662.13898 271.33008 659.43555 C 271.20227 659.29661 271.13348 659.23218 270.96875 659.04297 A 17.50175 17.50175 0 0 1 269.56055 657.27344 C 269.90638 657.77523 269.88648 657.73716 269.5918 657.32812 C 269.13938 656.71055 268.90091 656.32086 268.67383 655.96094 A 17.50175 17.50175 0 0 1 267.89648 654.69727 C 267.79771 654.51714 267.60265 654.14653 267.35742 653.63672 C 267.25707 653.44018 267.20165 653.34332 266.99023 652.89062 C 266.66178 652.18782 266.37587 651.50877 266.14453 650.88672 A 17.50175 17.50175 0 0 1 266.02344 650.55078 L 266.01172 650.51953 A 17.50175 17.50175 0 0 1 265.57812 649.0332 C 265.33339 648.17173 265.0939 647.2162 264.91797 646.04688 C 265.11447 647.35604 265.01203 646.77625 264.84375 645.62695 C 264.72506 644.80442 264.66316 644.11227 264.63086 643.5957 A 17.50175 17.50175 0 0 1 264.61523 643.28516 L 264.60352 643.03516 A 17.50175 17.50175 0 0 1 264.58594 642.37695 C 264.58404 642.10645 264.5693 641.47221 264.625 640.4707 A 17.50175 17.50175 0 0 1 264.71094 639.59766 C 264.71194 639.59166 264.71243 639.59289 264.71289 639.58789 A 17.50175 17.50175 0 0 1 264.71289 639.58398 A 17.50175 17.50175 0 0 1 264.81641 638.63086 C 264.82618 638.56978 264.82821 638.55972 264.83594 638.51367 C 264.89532 638.07805 264.94999 637.74008 264.97656 637.58594 A 17.50175 17.50175 0 0 1 264.97852 637.57812 C 253.94775 625.75162 244.62524 612.3548 237.44531 597.73242 L 287.75586 597.73242 C 288.36585 600.32114 289.01166 602.8607 289.67578 605.37695 C 299.6164 596.12721 313.37226 584.88128 330.58789 574.56445 L 306.70117 574.56445 C 303.96211 555.81863 302.48828 538.33708 302.48828 521.91016 C 302.48828 504.22059 303.96127 486.5255 307.12305 468.83594 L 376.58398 468.83594 L 376.58398 553.68164 C 384.15942 551.28016 392.09435 549.25505 400.37305 547.7207 L 400.37305 468.83594 L 469.83398 468.83594 C 472.99513 486.5255 474.46875 504.22059 474.46875 521.91016 C 474.46875 530.35685 474.07308 539.08634 473.32227 548.11914 C 481.32769 549.71503 489.00375 551.76751 496.33789 554.16992 C 497.34924 543.3038 497.83398 532.56675 497.83398 521.91016 C 497.83398 504.43213 496.57304 486.73704 493.83398 468.83594 L 548.98438 468.83594 C 554.66941 485.89606 557.61523 503.58669 557.61523 521.91016 C 557.61462 539.81572 554.88057 557.50362 549.40625 574.56445 L 540.65234 574.56445 C 550.6996 580.60042 559.57827 586.95525 567.20508 593.04688 C 576.36301 570.36412 580.98047 546.62917 580.98047 521.91016 C 580.98047 495.7963 575.83408 470.98296 565.61328 447.14258 C 545.31513 399.79337 510.82172 365.35888 463.10352 344.99609 C 439.2535 334.81876 414.47766 329.61914 388.37305 329.61914 z M 376.58594 354.89453 L 376.58594 445.66992 L 311.96484 445.66992 C 318.48976 421.65841 327.38017 401.47463 338.9082 385.22266 C 350.53436 368.82718 362.90266 358.68687 376.58594 354.89453 z M 400.37305 354.89453 C 414.05635 358.68687 426.42397 368.82718 438.05078 385.22266 C 449.58259 401.47463 458.46925 421.65841 464.99414 445.66992 L 400.37305 445.66992 L 400.37305 354.89453 z M 324.38086 365.42578 C 307.75156 386.48533 295.54518 413.23393 287.75391 445.66992 L 237.44531 445.66992 C 255.96881 409.6531 287.12628 380.79715 324.38086 365.42578 z M 452.57617 365.42578 C 489.83581 380.79652 520.98955 409.65261 539.51367 445.66992 L 489.20312 445.66992 C 481.41625 413.23344 469.20548 386.4847 452.57617 365.42578 z M 227.97461 468.83594 L 283.125 468.83594 C 280.38975 486.73634 279.12305 504.43213 279.12305 521.91016 C 279.12305 539.18182 280.39035 556.66383 283.125 574.56445 L 227.55273 574.56445 C 222.07903 557.50362 219.34375 539.81572 219.34375 521.91016 C 219.34375 503.5874 222.28951 485.89678 227.97461 468.83594 z M 438.00391 579.20312 A 17.50175 17.50175 0 0 1 437.85742 579.22461 L 437.97266 579.2168 L 438.00391 579.20312 z M 435.71875 579.38867 A 17.50175 17.50175 0 0 1 435.55469 579.39648 C 418.16242 579.39648 402.02118 582.59713 387.24609 587.45898 A 17.50175 17.50175 0 0 1 385.41406 608.0918 C 381.69527 612.30289 378.75029 616.878 376.58594 621.67969 L 376.58594 662.23242 C 378.7854 667.11086 381.79216 671.75394 385.5957 676.01953 A 17.50175 17.50175 0 0 1 387.50391 696.69531 C 402.21374 701.51509 418.26938 704.68359 435.55469 704.68359 C 440.95688 704.68359 446.23763 704.37237 451.39648 703.80273 C 455.32358 702.41312 459.22704 700.90337 463.10352 699.25 C 468.83004 696.80629 474.36117 694.15131 479.70508 691.29883 A 17.50175 17.50175 0 0 1 484.00586 676.53125 C 490.67496 669.23216 494.98602 660.78995 496.8418 651.92188 C 483.64483 662.97492 468.72627 672.087 452.57812 678.82031 C 467.14432 660.55446 478.31755 637.43951 486.09961 609.76367 C 485.49798 609.02659 484.88099 608.29624 484.23438 607.58008 A 17.50175 17.50175 0 0 1 482.21094 586.89453 C 467.92843 582.35481 452.39148 579.40567 435.71875 579.38867 z M 400.37305 597.73242 L 464.99414 597.73242 C 458.68063 621.95491 449.7205 642.29991 438.25977 658.8125 C 426.77263 675.36532 414.26709 685.55976 400.37305 689.34766 L 400.37305 597.73242 z M 532.67578 637.36719 C 532.76019 638.87733 532.89448 640.38128 532.89648 641.90039 A 17.50175 17.50175 0 0 1 532.89648 641.93164 C 532.89533 643.53525 532.75551 645.12333 532.66211 646.7168 C 534.62196 645.10227 536.22996 643.5961 537.98047 642.03516 C 536.23532 640.47889 534.62879 638.97672 532.67578 637.36719 z M 270.0625 657.88672 L 270.05078 657.89648 L 270.53516 658.52734 C 270.53504 658.5272 270.80964 658.85677 270.89844 658.96094 A 17.50175 17.50175 0 0 1 270.0625 657.88672 z M 271.1582 659.25781 C 271.24677 659.35625 271.27077 659.38215 271.29297 659.40625 C 271.27097 659.38295 271.24219 659.35352 271.24219 659.35352 A 17.50175 17.50175 0 0 1 271.1582 659.25781 z "
         style="fill:url(#linearGradient4169);fill-opacity:1" />
      <ellipse
         ry="24.347034"
         rx="26.968983"
         cy="622.8775"
         cx="484.42154"
         id="path4179"
         style="color:#000000;clip-rule:nonzero;display:inline;overflow:visible;visibility:visible;opacity:1;isolation:auto;mix-blend-mode:normal;color-interpolation:sRGB;color-interpolation-filters:linearRGB;solid-color:#000000;solid-opacity:1;fill:#ffffff;fill-opacity:1;fill-rule:nonzero;stroke:none;stroke-width:3;stroke-linecap:square;stroke-linejoin:round;stroke-miterlimit:4;stroke-dasharray:none;stroke-dashoffset:0;stroke-opacity:1;color-rendering:auto;image-rendering:auto;shape-rendering:auto;text-rendering:auto;enable-background:accumulate" />
      <path
         id="path4190"
         d="m 435.57219,561.88135 -0.0169,0.0149 c -90.46206,0 -149.42131,72.25304 -151.00506,74.21212 l -0.0943,0.10849 c -0.015,0.0149 -0.48134,0.51853 -0.48134,0.51853 -0.18238,0.23446 -0.35128,0.47551 -0.50875,0.72694 -0.15595,0.23597 -0.29541,0.47875 -0.42482,0.72862 l -0.0787,0.15424 c -0.10909,0.20514 -0.19515,0.41581 -0.28094,0.62866 -0.16982,0.43652 -0.30386,0.88562 -0.39741,1.34373 l -0.0617,0.23892 c -0.0311,0.18057 -0.0613,0.36364 -0.077,0.54562 -0.015,0.0926 -0.0322,0.19614 -0.048,0.29485 l 0,0.0457 c -0.015,0.26992 -0.0131,0.54172 -0.0112,0.81166 l 0.0112,0.25078 c 0.0131,0.20977 0.0322,0.42059 0.0634,0.63036 0.015,0.10793 0.0463,0.20658 0.0617,0.30838 0.0622,0.41339 0.1687,0.82038 0.29805,1.21834 l 0.015,0.0915 0.0112,0.0321 c 0.0935,0.25141 0.19637,0.49834 0.31175,0.74049 0.0622,0.13874 0.14058,0.28297 0.21243,0.42024 0.0469,0.10793 0.10872,0.22445 0.16963,0.33552 l 0.0326,0.0474 c 0.1402,0.22519 0.28088,0.44464 0.43679,0.65747 l 0.0326,0.0457 c 0.078,0.10793 0.15595,0.2066 0.22611,0.30838 0,0 0.19543,0.20705 0.197,0.21013 0.0937,0.10793 0.19672,0.21706 0.29807,0.32196 1.34719,1.66939 60.44203,74.3104 151.0907,74.3104 90.4622,0 149.42112,-72.25304 151.00507,-74.21212 l 0.0307,-0.0304 0.0789,-0.0779 c 0.015,-0.0149 0.48134,-0.51851 0.48133,-0.51851 0.18256,-0.23446 0.35296,-0.47551 0.51047,-0.72694 0.14021,-0.22211 0.28311,-0.45347 0.40939,-0.68797 l 0.0309,-0.0611 0.0633,-0.13892 c 0.10909,-0.2067 0.19689,-0.41583 0.28264,-0.62867 0.16982,-0.43653 0.30386,-0.88564 0.39741,-1.34373 l 0.0617,-0.23724 c 0.0311,-0.18056 0.0632,-0.36365 0.0787,-0.54562 0.015,-0.0926 0.0306,-0.19612 0.0463,-0.29483 l 0,-0.0474 c 0.015,-0.2653 0.015,-0.53109 0.0131,-0.7964 l 0,-0.0627 -0.0131,-0.20843 c -0.0131,-0.20977 -0.0322,-0.42057 -0.0634,-0.63034 -0.015,-0.10793 -0.0463,-0.20658 -0.0617,-0.30841 -0.0622,-0.41336 -0.16701,-0.82038 -0.29634,-1.21834 l -0.015,-0.0762 -0.0131,-0.0474 c -0.0935,-0.25141 -0.19807,-0.50003 -0.31345,-0.74218 l -0.0131,-0.0457 c -0.10909,-0.24372 -0.23418,-0.48047 -0.3683,-0.71336 l -0.0309,-0.0474 c -0.14021,-0.22522 -0.28257,-0.4446 -0.43852,-0.65746 l -0.0309,-0.0457 c -0.078,-0.10793 -0.15595,-0.20656 -0.22611,-0.3084 0,0 -0.19713,-0.20703 -0.1987,-0.21011 -0.0935,-0.10793 -0.19674,-0.21705 -0.29805,-0.32196 -1.34721,-1.66936 -60.44192,-74.31038 -151.0907,-74.31038 z m 61.65145,33.97124 c 25.91415,10.43607 45.00299,25.80064 57.55919,37.70929 4.77573,4.6317 5.52883,11.1967 0,16.95004 -12.60379,11.95377 -31.79289,27.38654 -57.85724,37.82452 a 80.362971,72.845204 0 0 0 18.47094,-46.41731 80.362971,72.845204 0 0 0 -18.17289,-46.06654 z m -124.92683,0.65575 a 80.362971,72.845204 0 0 0 -17.62473,45.41079 80.362971,72.845204 0 0 0 17.86284,45.74797 c -25.22498,-10.42052 -43.86976,-25.45519 -56.20594,-37.15518 -6.36741,-7.02032 -6.00131,-10.61889 0,-16.95004 12.29697,-11.6628 30.86479,-26.63695 55.96783,-37.05354 z"
         style="color:#000000;clip-rule:nonzero;display:inline;overflow:visible;visibility:visible;opacity:1;isolation:auto;mix-blend-mode:normal;color-interpolation:sRGB;color-interpolation-filters:linearRGB;solid-color:#000000;solid-opacity:1;fill:#99b000;fill-opacity:1;fill-rule:nonzero;stroke:none;stroke-width:2.36500001;stroke-linecap:square;stroke-linejoin:round;stroke-miterlimit:4;stroke-dasharray:none;stroke-dashoffset:0;stroke-opacity:1;color-rendering:auto;image-rendering:auto;shape-rendering:auto;text-rendering:auto;enable-background:accumulate"
         inkscape:connector-curvature="0" />
      <path
         id="path4192"
         d="m 475.82009,588.90853 a 30.107782,30.334624 0 0 0 -23.89934,29.64689 30.107782,30.334624 0 0 0 30.10886,30.33316 30.107782,30.334624 0 0 0 30.10715,-30.33316 30.107782,30.334624 0 0 0 -6.81249,-19.18846 c -8.92466,-4.15968 -18.75331,-7.78119 -29.50418,-10.45843 z"
         style="color:#000000;clip-rule:nonzero;display:inline;overflow:visible;visibility:visible;opacity:1;isolation:auto;mix-blend-mode:normal;color-interpolation:sRGB;color-interpolation-filters:linearRGB;solid-color:#000000;solid-opacity:1;fill:#ffffff;fill-opacity:1;fill-rule:nonzero;stroke:none;stroke-width:2.36500001;stroke-linecap:square;stroke-linejoin:round;stroke-miterlimit:4;stroke-dasharray:none;stroke-dashoffset:0;stroke-opacity:1;color-rendering:auto;image-rendering:auto;shape-rendering:auto;text-rendering:auto;enable-background:accumulate"
         inkscape:connector-curvature="0" />
    </g>
  </g>
</svg>
