<?xml version="1.0" encoding="UTF-8" standalone="no"?>
<!-- Created with Inkscape (http://www.inkscape.org/) -->
<svg xmlns:dc="http://purl.org/dc/elements/1.1/" xmlns:cc="http://creativecommons.org/ns#" xmlns:rdf="http://www.w3.org/1999/02/22-rdf-syntax-ns#" xmlns:svg="http://www.w3.org/2000/svg" xmlns="http://www.w3.org/2000/svg" xmlns:xlink="http://www.w3.org/1999/xlink" xmlns:sodipodi="http://sodipodi.sourceforge.net/DTD/sodipodi-0.dtd" xmlns:inkscape="http://www.inkscape.org/namespaces/inkscape" width="210mm" height="297mm" viewBox="0 0 744.09448819 1052.3622047" id="svg2" version="1.1" inkscape:version="0.91 r13725" inkscape:export-xdpi="4" inkscape:export-ydpi="4">
  <defs id="defs4">
    <linearGradient inkscape:collect="always" id="linearGradient4163">
      <stop style="stop-color:#4e505d;stop-opacity:1;" offset="0" id="stop4165"/>
      <stop style="stop-color:#545d6c;stop-opacity:1" offset="1" id="stop4167"/>
    </linearGradient>
    <linearGradient id="linearGradient2224">
      <stop id="stop2226" offset="0" style="stop-color:#7c7c7c;stop-opacity:1;"/>
      <stop id="stop2228" offset="1" style="stop-color:#b8b8b8;stop-opacity:1;"/>
    </linearGradient>
    <linearGradient id="linearGradient15218">
      <stop id="stop15220" offset="0" style="stop-color:#eeeeef;stop-opacity:1;"/>
      <stop id="stop2736" offset="0.59928656" style="stop-color:#d3d7cf;stop-opacity:1;"/>
      <stop id="stop2738" offset="0.82758623" style="stop-color:#ffffff;stop-opacity:1;"/>
      <stop id="stop15222" offset="1" style="stop-color:#d3d7cf;stop-opacity:1;"/>
    </linearGradient>
    <pattern y="0" x="0" height="6" width="6" patternUnits="userSpaceOnUse" id="EMFhbasepattern"/>
    <pattern y="0" x="0" height="6" width="6" patternUnits="userSpaceOnUse" id="EMFhbasepattern-5"/>
    <linearGradient inkscape:collect="always" xlink:href="#linearGradient4163" id="linearGradient4169" x1="-0.00018669941" y1="22.532179" x2="25.474983" y2="-2.9429903" gradientUnits="userSpaceOnUse"/>
    <linearGradient inkscape:collect="always" xlink:href="#linearGradient4163" id="linearGradient4158" gradientUnits="userSpaceOnUse" x1="-0.00018669941" y1="22.532179" x2="25.474983" y2="-2.9429903"/>
    <linearGradient inkscape:collect="always" xlink:href="#linearGradient4163" id="linearGradient4160" gradientUnits="userSpaceOnUse" x1="-0.00018669941" y1="22.532179" x2="25.474983" y2="-2.9429903"/>
    <linearGradient inkscape:collect="always" xlink:href="#linearGradient4163" id="linearGradient4162" gradientUnits="userSpaceOnUse" x1="-0.00018669941" y1="22.532179" x2="25.474983" y2="-2.9429903"/>
    <linearGradient inkscape:collect="always" xlink:href="#linearGradient4163" id="linearGradient4164" gradientUnits="userSpaceOnUse" x1="-0.00018669941" y1="22.532179" x2="25.474983" y2="-2.9429903"/>
  </defs>
  <sodipodi:namedview id="base" pagecolor="#ffffff" bordercolor="#666666" borderopacity="1.0" inkscape:pageopacity="0.0" inkscape:pageshadow="2" inkscape:zoom="1" inkscape:cx="408.66848" inkscape:cy="490.84826" inkscape:document-units="px" inkscape:current-layer="layer1" showgrid="false" showguides="true" inkscape:guide-bbox="true" inkscape:window-width="1366" inkscape:window-height="721" inkscape:window-x="-4" inkscape:window-y="-4" inkscape:window-maximized="1">
    <sodipodi:guide position="560,730.00002" orientation="0,1" id="guide3338"/>
    <sodipodi:guide position="560,330.00001" orientation="0,1" id="guide3340"/>
    <sodipodi:guide position="190,475.00001" orientation="1,0" id="guide3344"/>
    <sodipodi:guide position="590,451.00001" orientation="1,0" id="guide3346"/>
    <inkscape:grid type="xygrid" id="grid3440"/>
  </sodipodi:namedview>
  <metadata id="metadata7">
    <rdf:RDF>
      <cc:Work rdf:about="">
        <dc:format>image/svg+xml</dc:format>
        <dc:type rdf:resource="http://purl.org/dc/dcmitype/StillImage"/>
      </cc:Work>
    </rdf:RDF>
  </metadata>
  <g inkscape:label="Ebene 1" inkscape:groupmode="layer" id="layer1">
    <rect style="opacity:1;fill:none;fill-opacity:1;stroke:none;stroke-width:23;stroke-linecap:butt;stroke-linejoin:round;stroke-miterlimit:4;stroke-dasharray:none;stroke-opacity:1" id="rect4160" width="400" height="400" x="190" y="322.36221"/>
    <g transform="matrix(13.738868,0,0,13.738868,210.00254,351.80306)" id="g3" style="fill:url(#linearGradient4169);fill-opacity:1">
      <path inkscape:connector-curvature="0" style="fill:url(#linearGradient4158);fill-opacity:1" d="m 15.83,17.724624 c -0.791,-0.873 -1.917,-1.371 -3.09,-1.371 -1.194,0 -2.291,0.483 -3.088,1.365 -0.579,0.64 -1.567,0.689 -2.208,0.107 -0.64,-0.58 -0.688,-1.567 -0.108,-2.206 1.376,-1.521 3.347,-2.392 5.404,-2.392 2.054,0 4.024,0.873 5.406,2.396 0.579,0.64 0.53,1.628 -0.109,2.207 -0.822829,0.668749 -1.60274,0.392986 -2.207,-0.106 z" id="path5" sodipodi:nodetypes="cscccsccc"/>
      <path inkscape:connector-curvature="0" style="fill:url(#linearGradient4160);fill-opacity:1" d="m 19.352,13.746248 c -1.769,-1.759 -4.117,-2.728 -6.613,-2.728 -2.501,0 -4.85,0.966 -6.616,2.722 -0.611,0.608 -1.601,0.604 -2.209,-0.006 -0.608,-0.612 -0.606,-1.602 0.007,-2.21 2.354,-2.3419997 5.486,-3.6309997 8.818,-3.6309997 3.327,0 6.458,1.292 8.816,3.6379997 0.612,0.608 0.615,1.597 0.008,2.21 -0.69857,0.599823 -1.611522,0.58627 -2.211,0.005 z" id="path7" sodipodi:nodetypes="cscccsccc"/>
      <path inkscape:connector-curvature="0" style="fill:url(#linearGradient4162);fill-opacity:1" d="m 22.833,9.7358725 c -2.729,-2.615 -6.312,-4.054 -10.093,-4.054 -3.789,0 -7.374,1.438 -10.095,4.05 -0.622,0.5969995 -1.611,0.5769995 -2.209,-0.046 -0.599,-0.622 -0.578,-1.612 0.044,-2.209 3.306,-3.173 7.659,-4.92 12.259,-4.92 4.59,0 8.942,1.749 12.255,4.923 0.623,0.597 0.643,1.586 0.047,2.209 -0.688884,0.6142895 -1.59426,0.6172255 -2.208,0.047 z" id="path9" sodipodi:nodetypes="cscccsccc"/>
      <circle style="fill:url(#linearGradient4164);fill-opacity:1" cx="12.74" cy="20.648001" r="1.888" id="circle11"/>
    </g>
  </g>
</svg>
