<?xml version="1.0" encoding="UTF-8" standalone="no"?>
<!-- Created with Inkscape (http://www.inkscape.org/) -->

<svg
   xmlns:dc="http://purl.org/dc/elements/1.1/"
   xmlns:cc="http://creativecommons.org/ns#"
   xmlns:rdf="http://www.w3.org/1999/02/22-rdf-syntax-ns#"
   xmlns:svg="http://www.w3.org/2000/svg"
   xmlns="http://www.w3.org/2000/svg"
   xmlns:xlink="http://www.w3.org/1999/xlink"
   xmlns:sodipodi="http://sodipodi.sourceforge.net/DTD/sodipodi-0.dtd"
   xmlns:inkscape="http://www.inkscape.org/namespaces/inkscape"
   width="210mm"
   height="297mm"
   viewBox="0 0 744.09448819 1052.3622047"
   id="svg2"
   version="1.1"
   inkscape:version="0.91 r13725"
   inkscape:export-xdpi="4"
   inkscape:export-ydpi="4"
   sodipodi:docname="wifi.svg">
  <title
     id="title4162">wifi</title>
  <defs
     id="defs4">
    <linearGradient
       inkscape:collect="always"
       id="linearGradient4163">
      <stop
         style="stop-color:#4e505d;stop-opacity:1;"
         offset="0"
         id="stop4165" />
      <stop
         style="stop-color:#7a8597;stop-opacity:1"
         offset="1"
         id="stop4167" />
    </linearGradient>
    <linearGradient
       inkscape:collect="always"
       xlink:href="#linearGradient4163"
       id="linearGradient4158"
       gradientUnits="userSpaceOnUse"
       x1="6.7543955"
       y1="22.667271"
       x2="19.125675"
       y2="1.4474881"
       gradientTransform="matrix(14.804765,0,0,14.804765,201.83555,342.67249)" />
  </defs>
  <sodipodi:namedview
     id="base"
     pagecolor="#ffffff"
     bordercolor="#666666"
     borderopacity="1.0"
     inkscape:pageopacity="0.0"
     inkscape:pageshadow="2"
     inkscape:zoom="1"
     inkscape:cx="380.52104"
     inkscape:cy="555.86586"
     inkscape:document-units="px"
     inkscape:current-layer="layer1"
     showgrid="false"
     showguides="true"
     inkscape:guide-bbox="true"
     inkscape:window-width="1600"
     inkscape:window-height="837"
     inkscape:window-x="-4"
     inkscape:window-y="-4"
     inkscape:window-maximized="1">
    <sodipodi:guide
       position="560,730.00002"
       orientation="0,1"
       id="guide3338" />
    <sodipodi:guide
       position="560,330.00001"
       orientation="0,1"
       id="guide3340" />
    <sodipodi:guide
       position="190,475.00001"
       orientation="1,0"
       id="guide3344" />
    <sodipodi:guide
       position="590,451.00001"
       orientation="1,0"
       id="guide3346" />
    <inkscape:grid
       type="xygrid"
       id="grid3440" />
  </sodipodi:namedview>
  <metadata
     id="metadata7">
    <rdf:RDF>
      <cc:Work
         rdf:about="">
        <dc:format>image/svg+xml</dc:format>
        <dc:type
           rdf:resource="http://purl.org/dc/dcmitype/StillImage" />
        <dc:title>wifi</dc:title>
        <dc:date>June 2015</dc:date>
        <dc:creator>
          <cc:Agent>
            <dc:title>Johannes Hechler</dc:title>
          </cc:Agent>
        </dc:creator>
        <dc:rights>
          <cc:Agent>
            <dc:title>Johannes Hechler</dc:title>
          </cc:Agent>
        </dc:rights>
        <dc:publisher>
          <cc:Agent>
            <dc:title>RRZE</dc:title>
          </cc:Agent>
        </dc:publisher>
        <dc:contributor>
          <cc:Agent>
            <dc:title>Ute Weber, Hendrik Eggers, Joanna Barbach</dc:title>
          </cc:Agent>
        </dc:contributor>
        <dc:subject>
          <rdf:Bag>
            <rdf:li>WiFi</rdf:li>
            <rdf:li>Wireless LAN</rdf:li>
            <rdf:li>hotspot</rdf:li>
            <rdf:li>access point</rdf:li>
            <rdf:li>broadcast</rdf:li>
          </rdf:Bag>
        </dc:subject>
        <cc:license
           rdf:resource="http://creativecommons.org/licenses/by-sa/3.0/" />
      </cc:Work>
      <cc:License
         rdf:about="http://creativecommons.org/licenses/by-sa/3.0/">
        <cc:permits
           rdf:resource="http://creativecommons.org/ns#Reproduction" />
        <cc:permits
           rdf:resource="http://creativecommons.org/ns#Distribution" />
        <cc:requires
           rdf:resource="http://creativecommons.org/ns#Notice" />
        <cc:requires
           rdf:resource="http://creativecommons.org/ns#Attribution" />
        <cc:permits
           rdf:resource="http://creativecommons.org/ns#DerivativeWorks" />
        <cc:requires
           rdf:resource="http://creativecommons.org/ns#ShareAlike" />
      </cc:License>
    </rdf:RDF>
  </metadata>
  <g
     inkscape:label="Ebene 1"
     inkscape:groupmode="layer"
     id="layer1">
    <g
       id="g4218">
      <rect
         y="322.36221"
         x="190"
         height="400"
         width="400"
         id="rect4160"
         style="opacity:1;fill:none;fill-opacity:1;stroke:none;stroke-width:23;stroke-linecap:butt;stroke-linejoin:round;stroke-miterlimit:4;stroke-dasharray:none;stroke-opacity:1" />
      <path
         id="path5"
         d="M 390.43359 380.52734 C 322.33167 380.52734 257.88596 406.38971 208.94141 453.36523 C 199.73284 462.20368 199.42296 476.86174 208.29102 486.07031 C 217.14427 495.29367 231.78558 495.58843 240.99414 486.75 C 281.27791 448.07995 334.35396 426.79102 390.44922 426.79102 C 446.42603 426.79102 499.47085 448.09609 539.87305 486.81055 C 548.95933 495.25261 562.36373 495.20769 572.5625 486.11328 C 581.38614 476.88991 581.0886 462.24861 571.86523 453.41016 C 522.81704 406.41984 458.38746 380.52734 390.43359 380.52734 z M 390.43359 459.5293 C 341.10411 459.5293 294.73519 478.61436 259.88477 513.28711 C 250.80945 522.28841 250.77995 536.9434 259.78125 546.00391 C 268.78255 555.03479 283.43865 555.09505 292.48438 546.09375 C 318.62959 520.09659 353.40687 505.79492 390.43359 505.79492 C 427.38628 505.79492 462.14826 520.14006 488.33789 546.18164 C 497.21302 554.78723 510.72814 554.98961 521.07031 546.10938 C 530.0568 537.03406 530.01364 522.39192 520.95312 513.39062 C 486.04348 478.65865 439.68904 459.5293 390.43359 459.5293 z M 390.44922 538.50391 C 359.99581 538.50391 330.81471 551.39993 310.44336 573.91797 C 301.85659 583.37822 302.56792 597.98941 312.04297 606.57617 C 321.53283 615.19255 336.15851 614.46724 344.73047 604.99219 C 356.52987 591.93439 372.77233 584.7832 390.44922 584.7832 C 407.81521 584.7832 424.48474 592.15747 436.19531 605.08203 C 445.14124 612.4694 456.68735 616.55106 468.86914 606.65039 C 478.32938 598.07843 479.05437 583.45161 470.48242 573.97656 C 450.02223 551.4289 420.8582 538.50391 390.44922 538.50391 z M 390.44922 634.41016 A 27.951397 27.951397 0 0 0 362.49609 662.36133 A 27.951397 27.951397 0 0 0 390.44922 690.3125 A 27.951397 27.951397 0 0 0 418.40039 662.36133 A 27.951397 27.951397 0 0 0 390.44922 634.41016 z "
         style="fill:url(#linearGradient4158);fill-opacity:1" />
    </g>
  </g>
</svg>
