<?xml version="1.0" encoding="UTF-8" standalone="no"?>
<!-- Created with Inkscape (http://www.inkscape.org/) -->

<svg
   xmlns:dc="http://purl.org/dc/elements/1.1/"
   xmlns:cc="http://creativecommons.org/ns#"
   xmlns:rdf="http://www.w3.org/1999/02/22-rdf-syntax-ns#"
   xmlns:svg="http://www.w3.org/2000/svg"
   xmlns="http://www.w3.org/2000/svg"
   xmlns:xlink="http://www.w3.org/1999/xlink"
   xmlns:sodipodi="http://sodipodi.sourceforge.net/DTD/sodipodi-0.dtd"
   xmlns:inkscape="http://www.inkscape.org/namespaces/inkscape"
   width="210mm"
   height="297mm"
   viewBox="0 0 744.09448819 1052.3622047"
   id="svg2"
   version="1.1"
   inkscape:version="0.91 r13725"
   inkscape:export-xdpi="4"
   inkscape:export-ydpi="4"
   sodipodi:docname="workflow.svg">
  <title
     id="title4182">workflow</title>
  <defs
     id="defs4">
    <linearGradient
       inkscape:collect="always"
       xlink:href="#linearGradient4321"
       id="linearGradient4700"
       x1="240"
       y1="652.36218"
       x2="540"
       y2="372.36221"
       gradientUnits="userSpaceOnUse"
       gradientTransform="matrix(0.95267778,0,0,0.97193658,19.56462,12.74491)" />
    <linearGradient
       id="linearGradient4321"
       inkscape:collect="always">
      <stop
         id="stop4323"
         offset="0"
         style="stop-color:#4e505d;stop-opacity:1;" />
      <stop
         id="stop4325"
         offset="1"
         style="stop-color:#7a8597;stop-opacity:1" />
    </linearGradient>
  </defs>
  <sodipodi:namedview
     id="base"
     pagecolor="#ffffff"
     bordercolor="#666666"
     borderopacity="1.0"
     inkscape:pageopacity="0.0"
     inkscape:pageshadow="2"
     inkscape:zoom="1"
     inkscape:cx="343.49429"
     inkscape:cy="455.92627"
     inkscape:document-units="px"
     inkscape:current-layer="layer1"
     showgrid="false"
     showguides="true"
     inkscape:guide-bbox="true"
     inkscape:window-width="1600"
     inkscape:window-height="837"
     inkscape:window-x="-4"
     inkscape:window-y="-4"
     inkscape:window-maximized="1"
     inkscape:snap-bbox="true"
     inkscape:bbox-nodes="true">
    <sodipodi:guide
       position="560,730.00002"
       orientation="0,1"
       id="guide3338" />
    <sodipodi:guide
       position="560,330.00001"
       orientation="0,1"
       id="guide3340" />
    <sodipodi:guide
       position="190,475.00001"
       orientation="1,0"
       id="guide3344" />
    <sodipodi:guide
       position="590,451.00001"
       orientation="1,0"
       id="guide3346" />
    <inkscape:grid
       type="xygrid"
       id="grid3440" />
  </sodipodi:namedview>
  <metadata
     id="metadata7">
    <rdf:RDF>
      <cc:Work
         rdf:about="">
        <dc:format>image/svg+xml</dc:format>
        <dc:type
           rdf:resource="http://purl.org/dc/dcmitype/StillImage" />
        <dc:title>workflow</dc:title>
        <dc:date>June 2015</dc:date>
        <dc:creator>
          <cc:Agent>
            <dc:title>Johannes Hechler</dc:title>
          </cc:Agent>
        </dc:creator>
        <dc:rights>
          <cc:Agent>
            <dc:title>Johannes Hechler</dc:title>
          </cc:Agent>
        </dc:rights>
        <dc:publisher>
          <cc:Agent>
            <dc:title>RRZE</dc:title>
          </cc:Agent>
        </dc:publisher>
        <dc:contributor>
          <cc:Agent>
            <dc:title>Ute Weber, Hendrik Eggers, Joanna Barbach</dc:title>
          </cc:Agent>
        </dc:contributor>
        <dc:subject>
          <rdf:Bag>
            <rdf:li>workflow</rdf:li>
            <rdf:li>process</rdf:li>
            <rdf:li>schema</rdf:li>
            <rdf:li>flow chart</rdf:li>
            <rdf:li>model</rdf:li>
          </rdf:Bag>
        </dc:subject>
        <cc:license
           rdf:resource="http://creativecommons.org/licenses/by-sa/3.0/" />
      </cc:Work>
      <cc:License
         rdf:about="http://creativecommons.org/licenses/by-sa/3.0/">
        <cc:permits
           rdf:resource="http://creativecommons.org/ns#Reproduction" />
        <cc:permits
           rdf:resource="http://creativecommons.org/ns#Distribution" />
        <cc:requires
           rdf:resource="http://creativecommons.org/ns#Notice" />
        <cc:requires
           rdf:resource="http://creativecommons.org/ns#Attribution" />
        <cc:permits
           rdf:resource="http://creativecommons.org/ns#DerivativeWorks" />
        <cc:requires
           rdf:resource="http://creativecommons.org/ns#ShareAlike" />
      </cc:License>
    </rdf:RDF>
  </metadata>
  <g
     inkscape:label="Ebene 1"
     inkscape:groupmode="layer"
     id="layer1">
    <g
       id="g4215">
      <rect
         y="322.36221"
         x="190"
         height="400"
         width="400"
         id="rect4160"
         style="opacity:1;fill:none;fill-opacity:1;stroke:none;stroke-width:23;stroke-linecap:butt;stroke-linejoin:round;stroke-miterlimit:4;stroke-dasharray:none;stroke-opacity:1" />
      <path
         sodipodi:nodetypes="cscscssssssssssssssccccccc"
         inkscape:connector-curvature="0"
         id="path4149"
         d="m 269.66486,336.77566 c -38.00918,-7e-5 -68.82173,31.43536 -68.82167,70.21292 -7e-5,38.77757 30.81249,70.21301 68.82167,70.21294 38.00849,-9.8e-4 68.81989,-31.43611 68.81982,-70.21294 6e-5,-38.77681 -30.81133,-70.21195 -68.81982,-70.21292 z m 199.39434,0 c -13.8644,0 -25.02453,11.38763 -25.02453,25.53231 l 0,89.36121 c 0,14.1447 11.16013,25.53234 25.02453,25.53234 l 87.5924,0 c 13.86442,0 25.0264,-11.38764 25.0264,-25.53234 l 0,-89.36121 c 0,-14.14468 -11.16198,-25.53231 -25.0264,-25.53231 z m -199.83718,230.0832 c -38.00919,-7e-5 -68.82174,31.43537 -68.82167,70.21294 -6e-5,38.77748 30.81248,70.21298 68.82167,70.21288 38.00919,10e-5 68.82173,-31.4354 68.82167,-70.21288 7e-5,-38.77758 -30.81247,-70.21301 -68.82167,-70.21294 z m 182.37453,27.67172 c -3.43026,9.8e-4 -5.53138,3.8389 -3.73255,6.81873 l 62.82647,103.97057 c 1.71302,2.8331 5.75212,2.8331 7.46513,0 l 62.82651,-103.97057 c 1.79937,-2.98077 -0.30306,-6.81934 -3.73442,-6.81873 z"
         style="color:#252525;clip-rule:nonzero;display:inline;overflow:visible;visibility:visible;opacity:1;isolation:auto;mix-blend-mode:normal;color-interpolation:sRGB;color-interpolation-filters:linearRGB;solid-color:#252525;solid-opacity:1;fill:url(#linearGradient4700);fill-opacity:1;fill-rule:nonzero;stroke:none;stroke-width:23;stroke-linecap:butt;stroke-linejoin:round;stroke-miterlimit:4;stroke-dasharray:none;stroke-dashoffset:60.95800018;stroke-opacity:1;color-rendering:auto;image-rendering:auto;shape-rendering:auto;text-rendering:auto;enable-background:accumulate" />
      <path
         sodipodi:nodetypes="cccscsssscsccsc"
         inkscape:connector-curvature="0"
         id="path4237-4"
         d="m 438.14076,407.88192 c 0,0.51782 -0.34521,1.03564 -1.03565,1.72607 l -25.78881,25.01898 c -1.38087,1.38086 -3.43306,0.69037 -3.45216,-2.07128 l -0.0568,-12.20965 -54.7417,-0.0267 c -1.91248,-9.3e-4 -3.31664,-1.56636 -3.31865,-3.47885 l -0.0189,-18.01709 c -0.002,-1.91248 1.40616,-3.42637 3.31865,-3.42544 l 54.7417,0.0267 0,-12.73636 c 0,-2.76172 2.33782,-2.80919 3.65659,-1.36361 l 25.66004,24.83115 c 0.69042,0.69043 1.03564,1.20825 1.03564,1.72608 z"
         style="fill:#4e505d;fill-opacity:1;fill-rule:evenodd;stroke:none;stroke-width:1px;stroke-linecap:butt;stroke-linejoin:miter;stroke-opacity:1" />
      <path
         style="fill:#4e505d;fill-opacity:1;fill-rule:evenodd;stroke:none;stroke-width:1px;stroke-linecap:butt;stroke-linejoin:miter;stroke-opacity:1"
         d="m 349.72809,639.81911 c 0,-0.51782 0.34521,-1.03564 1.03565,-1.72607 l 25.78881,-25.01898 c 1.38087,-1.38086 3.43306,-0.69037 3.45216,2.07128 l 0.0568,12.20965 54.7417,0.0267 c 1.91248,9.3e-4 3.31664,1.56636 3.31865,3.47885 l 0.0189,18.01709 c 0.002,1.91248 -1.40616,3.42637 -3.31865,3.42544 l -54.7417,-0.0267 0,12.73636 c 0,2.76172 -2.33782,2.80919 -3.65659,1.36361 l -25.66004,-24.83115 c -0.69042,-0.69043 -1.03564,-1.20825 -1.03564,-1.72608 z"
         id="path4752"
         inkscape:connector-curvature="0"
         sodipodi:nodetypes="cccscsssscsccsc" />
      <path
         sodipodi:nodetypes="cccscsssscsccsc"
         inkscape:connector-curvature="0"
         id="path4754"
         d="m 511.90302,579.05685 c -0.51782,0 -1.03564,-0.34521 -1.72607,-1.03565 l -25.01898,-25.78881 c -1.38086,-1.38087 -0.69037,-3.43306 2.07128,-3.45216 l 12.20965,-0.0568 0.0267,-54.7417 c 9.3e-4,-1.91248 1.56636,-3.31664 3.47885,-3.31865 l 18.01709,-0.0189 c 1.91248,-0.002 3.42637,1.40616 3.42544,3.31865 l -0.0267,54.7417 12.73636,0 c 2.76172,0 2.80919,2.33782 1.36361,3.65659 l -24.83115,25.66004 c -0.69043,0.69042 -1.20825,1.03564 -1.72608,1.03564 z"
         style="fill:#4e505d;fill-opacity:1;fill-rule:evenodd;stroke:none;stroke-width:1px;stroke-linecap:butt;stroke-linejoin:miter;stroke-opacity:1" />
    </g>
  </g>
</svg>
