<?xml version="1.0" encoding="UTF-8" standalone="no"?>
<!-- Created with Inkscape (http://www.inkscape.org/) -->

<svg
   xmlns:dc="http://purl.org/dc/elements/1.1/"
   xmlns:cc="http://creativecommons.org/ns#"
   xmlns:rdf="http://www.w3.org/1999/02/22-rdf-syntax-ns#"
   xmlns:svg="http://www.w3.org/2000/svg"
   xmlns="http://www.w3.org/2000/svg"
   xmlns:xlink="http://www.w3.org/1999/xlink"
   xmlns:sodipodi="http://sodipodi.sourceforge.net/DTD/sodipodi-0.dtd"
   xmlns:inkscape="http://www.inkscape.org/namespaces/inkscape"
   width="210mm"
   height="297mm"
   viewBox="0 0 744.09448819 1052.3622047"
   id="svg2"
   version="1.1"
   inkscape:version="0.91 r13725"
   sodipodi:docname="zipper.svg"
   inkscape:export-filename="C:\Users\johannes\Documents\Arbeit\RRZE\bi-con\bi-con\scalable\documents\document.png"
   inkscape:export-xdpi="4"
   inkscape:export-ydpi="4">
  <defs
     id="defs4">
    <linearGradient
       inkscape:collect="always"
       id="linearGradient4226">
      <stop
         style="stop-color:#5a6578;stop-opacity:1;"
         offset="0"
         id="stop4228" />
      <stop
         style="stop-color:#9397a2;stop-opacity:1"
         offset="1"
         id="stop4230" />
    </linearGradient>
    <linearGradient
       id="linearGradient2224">
      <stop
         id="stop2226"
         offset="0"
         style="stop-color:#7c7c7c;stop-opacity:1;" />
      <stop
         id="stop2228"
         offset="1"
         style="stop-color:#b8b8b8;stop-opacity:1;" />
    </linearGradient>
    <linearGradient
       id="linearGradient15218">
      <stop
         id="stop15220"
         offset="0"
         style="stop-color:#eeeeef;stop-opacity:1;" />
      <stop
         id="stop2736"
         offset="0.59928656"
         style="stop-color:#d3d7cf;stop-opacity:1;" />
      <stop
         id="stop2738"
         offset="0.82758623"
         style="stop-color:#ffffff;stop-opacity:1;" />
      <stop
         id="stop15222"
         offset="1"
         style="stop-color:#d3d7cf;stop-opacity:1;" />
    </linearGradient>
    <pattern
       y="0"
       x="0"
       height="6"
       width="6"
       patternUnits="userSpaceOnUse"
       id="EMFhbasepattern" />
    <pattern
       y="0"
       x="0"
       height="6"
       width="6"
       patternUnits="userSpaceOnUse"
       id="EMFhbasepattern-5" />
    <linearGradient
       inkscape:collect="always"
       xlink:href="#linearGradient4226"
       id="linearGradient4163"
       gradientUnits="userSpaceOnUse"
       x1="341.35355"
       y1="668.54871"
       x2="461.35355"
       y2="355.40848"
       gradientTransform="matrix(1,0,0,1.0219064,0.6464466,-10.832006)" />
    <linearGradient
       inkscape:collect="always"
       xlink:href="#linearGradient4226"
       id="linearGradient4180"
       x1="301.93298"
       y1="451.43329"
       x2="388.26694"
       y2="451.43329"
       gradientUnits="userSpaceOnUse" />
    <linearGradient
       gradientTransform="matrix(-0.99961313,0,0,1,779.17985,0.06493621)"
       inkscape:collect="always"
       xlink:href="#linearGradient4226"
       id="linearGradient4180-6"
       x1="301.93298"
       y1="451.43329"
       x2="388.26694"
       y2="451.43329"
       gradientUnits="userSpaceOnUse" />
  </defs>
  <sodipodi:namedview
     id="base"
     pagecolor="#ffffff"
     bordercolor="#666666"
     borderopacity="1.0"
     inkscape:pageopacity="0.0"
     inkscape:pageshadow="2"
     inkscape:zoom="0.1767767"
     inkscape:cx="-1327.3045"
     inkscape:cy="233.76049"
     inkscape:document-units="px"
     inkscape:current-layer="layer1"
     showgrid="false"
     showguides="true"
     inkscape:guide-bbox="true"
     inkscape:window-width="1366"
     inkscape:window-height="721"
     inkscape:window-x="-4"
     inkscape:window-y="-4"
     inkscape:window-maximized="1">
    <sodipodi:guide
       position="560,730.00002"
       orientation="0,1"
       id="guide3338" />
    <sodipodi:guide
       position="560,330.00001"
       orientation="0,1"
       id="guide3340" />
    <sodipodi:guide
       position="190,475.00001"
       orientation="1,0"
       id="guide3344" />
    <sodipodi:guide
       position="590,451.00001"
       orientation="1,0"
       id="guide3346" />
    <inkscape:grid
       type="xygrid"
       id="grid3440" />
  </sodipodi:namedview>
  <metadata
     id="metadata7">
    <rdf:RDF>
      <cc:Work
         rdf:about="">
        <dc:format>image/svg+xml</dc:format>
        <dc:type
           rdf:resource="http://purl.org/dc/dcmitype/StillImage" />
      </cc:Work>
    </rdf:RDF>
  </metadata>
  <g
     inkscape:label="Ebene 1"
     inkscape:groupmode="layer"
     id="layer1">
    <rect
       style="opacity:1;fill:none;fill-opacity:1;stroke:none;stroke-width:23;stroke-linecap:butt;stroke-linejoin:round;stroke-miterlimit:4;stroke-dasharray:none;stroke-opacity:1"
       id="rect4160"
       width="400"
       height="400"
       x="190"
       y="322.36221" />
    <path
       style="color:#000000;font-style:normal;font-variant:normal;font-weight:normal;font-stretch:normal;font-size:medium;line-height:normal;font-family:sans-serif;text-indent:0;text-align:start;text-decoration:none;text-decoration-line:none;text-decoration-style:solid;text-decoration-color:#000000;letter-spacing:normal;word-spacing:normal;text-transform:none;direction:ltr;block-progression:tb;writing-mode:lr-tb;baseline-shift:baseline;text-anchor:start;white-space:normal;clip-rule:nonzero;display:inline;overflow:visible;visibility:visible;opacity:1;isolation:auto;mix-blend-mode:normal;color-interpolation:sRGB;color-interpolation-filters:linearRGB;solid-color:#000000;solid-opacity:1;fill:url(#linearGradient4163);fill-opacity:1;fill-rule:evenodd;stroke:none;stroke-width:2.1730001;stroke-linecap:butt;stroke-linejoin:miter;stroke-miterlimit:4;stroke-dasharray:6.51900029, 2.1730001;stroke-dashoffset:2.1730001;stroke-opacity:1;color-rendering:auto;image-rendering:auto;shape-rendering:auto;text-rendering:auto;enable-background:accumulate"
       d="m 375.92015,588.09354 c -4.15641,0 -7.50106,3.4237 -7.50106,7.67116 l 0,4.62487 c -9.17289,7.58867 -14.57738,19.49309 -14.59167,32.14088 0.0176,12.64372 5.42175,24.54304 14.59167,32.12926 l 0,5.08497 c 0,2.64712 1.29811,4.97693 3.28313,6.35479 l 0,-29.63626 c 0,-4.99774 3.2423,-9.24493 7.66063,-10.7641 l 0,-10.32725 c 0,-6.13119 4.94401,-11.1835 10.94375,-11.1835 5.99975,0 10.94376,5.05231 10.94376,11.1835 l 0,10.56022 c 4.04762,1.71713 6.93105,5.80638 6.93105,10.53113 l 0,30.044 c 2.38005,-1.28363 4.01271,-3.8111 4.01271,-6.76253 l 0,-5.07334 c 9.17289,-7.58867 14.57738,-19.49309 14.59167,-32.14089 -0.0176,-12.64371 -5.42175,-24.54303 -14.59167,-32.12925 l 0,-4.6365 c 0,-4.24746 -3.34462,-7.67116 -7.50103,-7.67116 z m 14.38645,29.82265 c -4.04189,0 -7.29583,3.32522 -7.29583,7.45567 l 0,20.87585 c 0,4.13044 3.25394,7.45566 7.29583,7.45566 4.0419,0 7.29584,-3.32522 7.29584,-7.45566 l 0,-20.87585 c 0,-4.13045 -3.25394,-7.45567 -7.29584,-7.45567 z m -10.94375,21.79034 c -2.38049,1.28238 -4.01271,3.80528 -4.01271,6.75668 l 0,68.16692 c 0,4.24746 3.34464,7.66535 7.50105,7.66535 l 14.18127,0 c 4.15641,0 7.50103,-3.41789 7.50103,-7.66535 l 0,-68.16692 c 0,-2.64709 -1.29767,-4.97233 -3.28313,-6.34894 l 0,6.13344 c 0,0.93512 -0.14854,1.83183 -0.36479,2.70269 -0.42152,1.69768 -1.24225,3.2342 -2.32553,4.53163 -0.0934,0.11095 -0.17642,0.23083 -0.2736,0.33783 -0.27257,0.30205 -0.57497,0.57445 -0.87777,0.84458 -0.20516,0.18162 -0.40898,0.36422 -0.62701,0.53007 -0.26819,0.20577 -0.54614,0.39058 -0.83216,0.57081 -0.29125,0.18221 -0.5926,0.34674 -0.9006,0.50092 -0.26732,0.1348 -0.53613,0.26632 -0.81506,0.37863 -0.38446,0.15389 -0.78203,0.27557 -1.18558,0.38442 -0.23346,0.0633 -0.46182,0.14482 -0.7011,0.19223 -0.66269,0.13033 -1.34325,0.20969 -2.04056,0.20969 -5.99974,0 -10.94375,-5.05232 -10.94375,-11.1835 l 0,-1.49694 z m 9.32501,52.7663 2.50793,0 c 4.15641,0 7.50103,3.4237 7.50103,7.67116 l 0,8.52161 c 0,4.24746 -3.34462,7.66535 -7.50103,7.66535 l -2.50793,0 c -4.15641,0 -7.50105,-3.41789 -7.50105,-7.66535 l 0,-8.52161 c 0,-4.24746 3.34464,-7.67116 7.50105,-7.67116 z"
       id="path4149"
       inkscape:connector-curvature="0"
       sodipodi:nodetypes="sscccscscssscscscccsssssssssscsssssscsccccccccccssccsssssssss" />
    <path
       style="color:#000000;font-style:normal;font-variant:normal;font-weight:normal;font-stretch:normal;font-size:medium;line-height:normal;font-family:sans-serif;text-indent:0;text-align:start;text-decoration:none;text-decoration-line:none;text-decoration-style:solid;text-decoration-color:#000000;letter-spacing:normal;word-spacing:normal;text-transform:none;direction:ltr;block-progression:tb;writing-mode:lr-tb;baseline-shift:baseline;text-anchor:start;white-space:normal;clip-rule:nonzero;display:inline;overflow:visible;visibility:visible;opacity:1;isolation:auto;mix-blend-mode:normal;color-interpolation:sRGB;color-interpolation-filters:linearRGB;solid-color:#000000;solid-opacity:1;fill:url(#linearGradient4180);fill-opacity:1.0;fill-rule:evenodd;stroke:none;stroke-width:6.39099979;stroke-linecap:butt;stroke-linejoin:miter;stroke-miterlimit:0.40000001;stroke-dasharray:none;stroke-dashoffset:60.95968628;stroke-opacity:1;color-rendering:auto;image-rendering:auto;shape-rendering:auto;text-rendering:auto;enable-background:accumulate"
       d="m 307.3337,323.84413 -2.03658,3.01386 -3.36413,4.3192 0.4767,4.36874 0.28702,0.14693 1.19257,0.66121 -0.27679,-0.27679 0.56383,0.43397 1.74612,1.02341 1.89647,1.18061 1.94774,1.28824 1.97338,1.38562 0.002,0 2.11859,1.58211 -0.0307,-0.0273 0.0513,0.0426 2.26041,1.7991 0.27337,0.23066 3.97406,-0.37418 5.91496,-7.28521 -0.35879,-3.89204 -0.35709,-0.30242 -0.0376,-0.0325 -0.11277,-0.0922 -0.0325,-0.0273 -2.37998,-1.89306 -0.0342,-0.0257 -0.11105,-0.0855 -0.0325,-0.0257 -2.30652,-1.72392 -0.0188,-0.0137 -0.10936,-0.0803 -0.0478,-0.0342 -2.22281,-1.5599 -0.0325,-0.0239 -0.10764,-0.0735 -0.0325,-0.0205 -2.12372,-1.40441 -0.0102,-0.007 -0.10421,-0.0683 -0.053,-0.0342 -2.01095,-1.25235 -0.0153,-0.009 -0.10251,-0.0633 -0.046,-0.0273 -1.88452,-1.10715 -0.0291,-0.017 -0.1008,-0.058 -0.0325,-0.017 -1.74442,-0.96704 -0.046,-0.024 -0.14181,-0.0752 -0.0342,-0.0188 -2.15617,1.54282 z m 29.3852,19.73877 -3.99115,0.11106 -6.37114,6.87174 0.10764,3.90914 0.0581,0.0564 2.35437,2.44493 2.32362,2.59015 2.35094,2.81737 2.30654,2.98824 1.74271,2.44151 3.94673,0.61677 7.4834,-5.57838 0.60653,-3.86301 -1.80763,-2.53547 -0.0325,-0.0444 -0.10764,-0.14521 -0.0325,-0.041 -2.49446,-3.22915 -0.0325,-0.041 -0.10934,-0.13668 -0.0325,-0.0393 -2.51666,-3.0207 -0.041,-0.0478 -0.11276,-0.12814 -0.0257,-0.0308 -2.52863,-2.81737 -0.0411,-0.0444 -0.11446,-0.1213 -0.0273,-0.0291 -2.52522,-2.62262 -0.0308,-0.0307 -0.11276,-0.11275 -0.041,-0.041 -0.15208,-0.14694 z m 17.97725,26.41231 -7.93958,4.87788 -0.94653,3.79809 0.2973,0.50573 0.0239,0.0393 1.04393,1.86231 0.99437,1.85378 0.005,0.0102 0,0.002 1.02853,2.01436 1.00462,2.06732 0.99265,2.15277 0.0153,0.0325 0.91919,2.11347 0.007,0.0153 0.0478,0.11276 0.90724,2.20401 0.34683,0.89357 3.65628,1.57869 8.60933,-3.49396 1.55477,-3.5999 -0.38612,-0.99778 -0.0257,-0.0616 -0.0359,-0.0872 -0.9824,-2.38341 -0.004,-0.007 -0.0377,-0.0906 -0.0188,-0.0444 -1.01316,-2.32531 -0.0239,-0.0546 -0.0393,-0.0889 -1.0422,-2.26381 -0.0102,-0.0205 -0.041,-0.0872 -0.0137,-0.0308 -1.06954,-2.204 -0.005,-0.0102 -0.0427,-0.0872 -0.0205,-0.0427 -1.09517,-2.14424 -0.0102,-0.0188 -0.0444,-0.0855 -0.0154,-0.0291 -1.1174,-2.08613 -0.0153,-0.0274 -0.046,-0.0837 -0.0119,-0.0222 -1.1396,-2.02804 -0.0222,-0.0393 -0.0478,-0.082 -0.007,-0.0119 -0.31266,-0.53306 c 0,0 -2.98698,-1.95478 -3.87155,-0.96191 -2e-5,2e-5 2e-5,7e-5 2e-5,7e-5 z m 12.29465,30.08227 -8.8041,2.94381 -1.77688,3.50422 0.0803,0.25115 0.74493,2.49446 0.007,0.0257 0.72783,2.63115 0.002,0.009 0.67487,2.64653 1.32924,5.68089 0.002,0.009 0.82352,3.8596 3.3419,2.14422 9.05013,-2.01609 2.12543,-3.31114 -0.83377,-3.90744 -0.004,-0.0188 -0.0205,-0.0922 -0.007,-0.0342 -1.3617,-5.83125 -0.0102,-0.0393 -0.0239,-0.0956 -0.004,-0.017 -0.72441,-2.83959 -0.0153,-0.0563 -0.0257,-0.0906 -0.76371,-2.77124 -0.0136,-0.046 -0.0273,-0.0922 -0.004,-0.0102 -0.80642,-2.70291 -0.0257,-0.0872 -0.0257,-0.0837 -0.0906,-0.27508 -3.5418,-1.78029 z m 6.94181,31.64215 -9.11166,1.70343 -2.23817,3.23938 0.90724,5.07607 1.0234,6.22763 0.96022,6.37455 2.76441,2.38001 -0.43739,0 0.93969,0.70733 9.17315,-1.32924 2.36634,-3.15397 -0.10935,-0.78764 -0.007,-0.0529 -0.007,-0.0393 -0.96531,-6.39335 -0.002,-0.0102 -0.009,-0.0633 -0.005,-0.024 -1.03537,-6.32673 -0.004,-0.017 -0.012,-0.0683 -0.004,-0.0222 -0.92432,-5.1649 -3.26502,-2.25527 z m 4.47808,31.77372 -9.18511,1.22331 -2.40392,3.12493 0.34,2.66532 0.74664,6.35747 0.0154,0.13668 0.67488,6.27033 0.31607,3.16765 3.06853,2.50301 9.21758,-0.95507 2.49276,-3.05659 -0.31435,-3.16421 -0.002,-0.0222 -0.007,-0.058 -0.69366,-6.43948 -0.0102,-0.0735 -0.002,-0.0205 -0.75687,-6.43776 -0.004,-0.0342 -0.005,-0.0393 -0.34683,-2.73025 -3.142,-2.41758 z m 3.12151,31.8933 -9.22271,0.87819 -2.51155,3.11809 0.007,0.0529 0.51426,6.15244 0.45447,5.93035 0,-0.10081 0.012,0.25459 0,0.005 0.42543,6.31989 2.98482,2.60039 9.23978,-0.64754 2.59355,-2.97457 -0.42883,-6.40019 -0.002,-0.0188 -0.004,-0.0478 0,-0.007 -0.46986,-6.12512 -0.007,-0.0786 -0.002,-0.004 -0.51427,-6.14391 -0.002,-0.0136 -0.0137,-0.16744 -0.0119,-0.11619 -3.04291,-2.46713 z m 2.13737,28.4882 -9.24833,0.53819 -2.62771,2.94552 0.39295,7.06652 0.45959,10.0616 0.002,0.0377 0,0.002 0,0.0189 0.0581,1.5787 2.90109,2.69094 9.25516,-0.35196 2.68583,-2.89426 -0.0581,-1.62312 -0.007,-0.11958 0,-0.004 -0.4613,-10.14189 -0.002,-0.0342 -0.002,-0.0563 -0.39467,-7.0802 -2.95406,-2.63456 z m 1.33437,31.99925 -9.26028,0.27507 -2.70974,2.87376 0.16572,5.87054 0.13498,6.37456 -0.002,0.002 0.07,4.76342 0,0.0136 0,0.0187 0.012,1.72391 2.81567,2.77638 9.26199,-0.07 2.77467,-2.81396 -0.012,-1.74955 0,-0.0257 0,-0.041 -0.07,-4.79757 0,-0.0137 0,-0.0581 -0.1367,-6.40532 0,-0.007 0,-0.0787 -0.16743,-5.91666 -2.87718,-2.71487 z"
       id="path4211"
       inkscape:connector-curvature="0"
       sodipodi:nodetypes="ccccccccccccccccccccccccccccccccccccccccccccccccccccccccccccccccccccccccccccccccccccccccccccccccccccccccccccccccccccccccccccccccccccccccccccccsccccccccccccccccccccccccccccccccccccccccccccccccccccccccccccccccccccccccccccccccccccccccccccccccccccccccccccccccccccccccccccccccccccccccccccccccccccccccccccc" />
    <path
       style="color:#000000;font-style:normal;font-variant:normal;font-weight:normal;font-stretch:normal;font-size:medium;line-height:normal;font-family:sans-serif;text-indent:0;text-align:start;text-decoration:none;text-decoration-line:none;text-decoration-style:solid;text-decoration-color:#000000;letter-spacing:normal;word-spacing:normal;text-transform:none;direction:ltr;block-progression:tb;writing-mode:lr-tb;baseline-shift:baseline;text-anchor:start;white-space:normal;clip-rule:nonzero;display:inline;overflow:visible;visibility:visible;opacity:1;isolation:auto;mix-blend-mode:normal;color-interpolation:sRGB;color-interpolation-filters:linearRGB;solid-color:#000000;solid-opacity:1;fill:url(#linearGradient4180-6);fill-opacity:1;fill-rule:evenodd;stroke:none;stroke-width:6.39099979;stroke-linecap:butt;stroke-linejoin:miter;stroke-miterlimit:0.40000001;stroke-dasharray:none;stroke-dashoffset:60.95968628;stroke-opacity:1;color-rendering:auto;image-rendering:auto;shape-rendering:auto;text-rendering:auto;enable-background:accumulate"
       d="m 471.96504,323.90906 2.03582,3.01386 3.36281,4.3192 -0.4765,4.36874 -0.28708,0.14693 -1.19209,0.66121 0.2767,-0.27679 -0.56359,0.43397 -1.74544,1.02341 -1.89573,1.18061 -1.94699,1.28824 -1.97262,1.38562 -0.002,0 -2.1178,1.58211 0.0297,-0.0273 -0.0512,0.0426 -2.25951,1.7991 -0.27336,0.23066 -3.97253,-0.37418 -5.91267,-7.28521 0.35867,-3.89204 0.35681,-0.30242 0.0375,-0.0325 0.11275,-0.0922 0.0334,-0.0273 2.37906,-1.89306 0.0334,-0.0257 0.1109,-0.0855 0.0334,-0.0257 2.30562,-1.72392 0.0186,-0.0137 0.10941,-0.0803 0.0479,-0.0342 2.22198,-1.5599 0.0334,-0.0239 0.10756,-0.0735 0.0334,-0.0205 2.12291,-1.40441 0.0111,-0.007 0.10422,-0.0683 0.053,-0.0342 2.01016,-1.25235 0.0148,-0.009 0.10237,-0.0633 0.046,-0.0273 1.88379,-1.10715 0.0297,-0.017 0.10089,-0.058 0.0334,-0.017 1.74374,-0.96704 0.046,-0.024 0.14168,-0.0752 0.0334,-0.0188 2.15533,1.54282 z m -29.37382,19.73877 3.9896,0.11106 6.36869,6.87174 -0.10757,3.90914 -0.0582,0.0564 -2.35346,2.44493 -2.32272,2.59015 -2.35001,2.81737 -2.30566,2.98824 -1.74202,2.44151 -3.9452,0.61677 -7.48052,-5.57838 -0.60632,-3.86301 1.80694,-2.53547 0.0334,-0.0444 0.10756,-0.14521 0.0334,-0.041 2.49348,-3.22915 0.0334,-0.041 0.10941,-0.13668 0.0334,-0.0393 2.5157,-3.0207 0.0412,-0.0478 0.11276,-0.12814 0.026,-0.0308 2.52768,-2.81737 0.0412,-0.0444 0.11424,-0.1213 0.026,-0.0291 2.52423,-2.62262 0.0297,-0.0307 0.11276,-0.11275 0.0412,-0.041 0.15207,-0.14694 z m -17.97029,26.41231 7.9365,4.87788 0.94618,3.79809 -0.29709,0.50573 -0.0223,0.0393 -1.0435,1.86231 -0.99399,1.85378 -0.004,0.0102 0,0.002 -1.02815,2.01436 -1.00422,2.06732 -0.99228,2.15277 -0.0148,0.0325 -0.91884,2.11347 -0.007,0.0153 -0.0478,0.11276 -0.90686,2.20401 -0.3468,0.89357 -3.65486,1.57869 -8.60598,-3.49396 -1.55417,-3.5999 0.38596,-0.99778 0.026,-0.0616 0.0371,-0.0872 0.982,-2.38341 0.004,-0.007 0.0378,-0.0906 0.0185,-0.0444 1.01276,-2.32531 0.0222,-0.0546 0.0393,-0.0889 1.04179,-2.26381 0.0111,-0.0205 0.0412,-0.0872 0.0148,-0.0308 1.06909,-2.204 0.004,-0.0102 0.0427,-0.0872 0.0222,-0.0427 1.09472,-2.14424 0.0111,-0.0188 0.0445,-0.0855 0.0148,-0.0291 1.11694,-2.08613 0.0148,-0.0274 0.046,-0.0837 0.0111,-0.0222 1.13916,-2.02804 0.0223,-0.0393 0.0478,-0.082 0.007,-0.0119 0.31267,-0.53306 c 0,0 2.98582,-1.95478 3.87006,-0.96191 0,2e-5 -4e-5,7e-5 -4e-5,7e-5 z m -12.28989,30.08227 8.80068,2.94381 1.77619,3.50422 -0.0801,0.25115 -0.74463,2.49446 -0.007,0.0257 -0.72753,2.63115 -0.002,0.009 -0.6746,2.64653 -1.32873,5.68089 -0.002,0.009 -0.82322,3.8596 -3.34059,2.14422 -9.04663,-2.01609 -2.12461,-3.31114 0.83346,-3.90744 0.004,-0.0188 0.0223,-0.0922 0.007,-0.0342 1.36115,-5.83125 0.0111,-0.0393 0.0223,-0.0956 0.004,-0.017 0.72411,-2.83959 0.0148,-0.0563 0.026,-0.0906 0.76344,-2.77124 0.0148,-0.046 0.026,-0.0922 0.004,-0.0102 0.80613,-2.70291 0.026,-0.0872 0.026,-0.0837 0.0905,-0.27508 3.54039,-1.78029 z m -6.93914,31.64215 9.10815,1.70343 2.2373,3.23938 -0.9069,5.07607 -1.02299,6.22763 -0.95986,6.37455 -2.76332,2.38001 0.43719,0 -0.93932,0.70733 -9.16957,-1.32924 -2.36545,-3.15397 0.10942,-0.78764 0.007,-0.0529 0.007,-0.0393 0.96495,-6.39335 0.002,-0.0102 0.007,-0.0633 0.004,-0.024 1.03497,-6.32673 0.004,-0.017 0.0111,-0.0683 0.004,-0.0222 0.92396,-5.1649 3.26377,-2.25527 z m -4.47634,31.77372 9.18156,1.22331 2.40298,3.12493 -0.33975,2.66532 -0.74633,6.35747 -0.0148,0.13668 -0.6746,6.27033 -0.31601,3.16765 -3.06734,2.50301 -9.21402,-0.95507 -2.49181,-3.05659 0.31416,-3.16421 0.002,-0.0222 0.007,-0.058 0.69337,-6.43948 0.0111,-0.0735 0.002,-0.0205 0.75657,-6.43776 0.004,-0.0342 0.004,-0.0393 0.34679,-2.73025 3.14079,-2.41758 z m -3.12031,31.8933 9.21913,0.87819 2.51058,3.11809 -0.007,0.0529 -0.51408,6.15244 -0.45428,5.93035 0,-0.10081 -0.0111,0.25459 0,0.005 -0.42524,6.31989 -2.98367,2.60039 -9.23623,-0.64754 -2.59251,-2.97457 0.42865,-6.40019 0.002,-0.0188 0.004,-0.0478 0,-0.007 0.46967,-6.12512 0.007,-0.0786 0.002,-0.004 0.51408,-6.14391 0.002,-0.0136 0.0148,-0.16744 0.0111,-0.11619 3.04172,-2.46713 z m -2.13652,28.4882 9.24473,0.53819 2.6267,2.94552 -0.39278,7.06652 -0.45944,10.0616 -0.002,0.0377 0,0.002 0,0.0189 -0.0579,1.5787 -2.89999,2.69094 -9.25158,-0.35196 -2.6848,-2.89426 0.0582,-1.62312 0.007,-0.11958 0,-0.004 0.46111,-10.14189 0.002,-0.0342 0.002,-0.0563 0.39453,-7.0802 2.95292,-2.63456 z m -1.33388,31.99925 9.2567,0.27507 2.70872,2.87376 -0.1658,5.87054 -0.13501,6.37456 0.002,0.002 -0.0701,4.76342 0,0.0136 0,0.0187 -0.0111,1.72391 -2.81457,2.77638 -9.25841,-0.07 -2.77359,-2.81396 0.0111,-1.74955 0,-0.0257 0,-0.041 0.0701,-4.79757 0,-0.0137 0,-0.0581 0.13649,-6.40532 0,-0.007 0,-0.0787 0.16728,-5.91666 2.87607,-2.71487 z"
       id="path4211-5"
       inkscape:connector-curvature="0"
       sodipodi:nodetypes="ccccccccccccccccccccccccccccccccccccccccccccccccccccccccccccccccccccccccccccccccccccccccccccccccccccccccccccccccccccccccccccccccccccccccccccccsccccccccccccccccccccccccccccccccccccccccccccccccccccccccccccccccccccccccccccccccccccccccccccccccccccccccccccccccccccccccccccccccccccccccccccccccccccccccccccc" />
  </g>
</svg>
