<?xml version="1.0" encoding="UTF-8" standalone="no"?>
<!-- Created with Inkscape (http://www.inkscape.org/) -->

<svg
   xmlns:dc="http://purl.org/dc/elements/1.1/"
   xmlns:cc="http://creativecommons.org/ns#"
   xmlns:rdf="http://www.w3.org/1999/02/22-rdf-syntax-ns#"
   xmlns:svg="http://www.w3.org/2000/svg"
   xmlns="http://www.w3.org/2000/svg"
   xmlns:xlink="http://www.w3.org/1999/xlink"
   xmlns:sodipodi="http://sodipodi.sourceforge.net/DTD/sodipodi-0.dtd"
   xmlns:inkscape="http://www.inkscape.org/namespaces/inkscape"
   width="210mm"
   height="297mm"
   viewBox="0 0 744.09448819 1052.3622047"
   id="svg2"
   version="1.1"
   inkscape:version="0.91 r13725"
   inkscape:export-xdpi="4.9499998"
   inkscape:export-ydpi="4.9499998"
   sodipodi:docname="account-delete.svg"
   inkscape:export-filename="C:\Users\johannes\Documents\Arbeit\RRZE\github3\bicons\22x22\emblems\account-delete.png">
  <title
     id="title4159">account-delete</title>
  <defs
     id="defs4">
    <linearGradient
       inkscape:collect="always"
       id="linearGradient4153">
      <stop
         style="stop-color:#4e505d;stop-opacity:1;"
         offset="0"
         id="stop4155" />
      <stop
         style="stop-color:#7a8597;stop-opacity:1"
         offset="1"
         id="stop4157" />
    </linearGradient>
    <linearGradient
       id="linearGradient2224">
      <stop
         id="stop2226"
         offset="0"
         style="stop-color:#7c7c7c;stop-opacity:1;" />
      <stop
         id="stop2228"
         offset="1"
         style="stop-color:#b8b8b8;stop-opacity:1;" />
    </linearGradient>
    <linearGradient
       id="linearGradient15218">
      <stop
         id="stop15220"
         offset="0"
         style="stop-color:#eeeeef;stop-opacity:1;" />
      <stop
         id="stop2736"
         offset="0.59928656"
         style="stop-color:#d3d7cf;stop-opacity:1;" />
      <stop
         id="stop2738"
         offset="0.82758623"
         style="stop-color:#ffffff;stop-opacity:1;" />
      <stop
         id="stop15222"
         offset="1"
         style="stop-color:#d3d7cf;stop-opacity:1;" />
    </linearGradient>
    <pattern
       y="0"
       x="0"
       height="6"
       width="6"
       patternUnits="userSpaceOnUse"
       id="EMFhbasepattern" />
    <pattern
       y="0"
       x="0"
       height="6"
       width="6"
       patternUnits="userSpaceOnUse"
       id="EMFhbasepattern-5" />
    <linearGradient
       inkscape:collect="always"
       xlink:href="#linearGradient4153"
       id="linearGradient4159"
       x1="235"
       y1="682.36218"
       x2="525"
       y2="368.36221"
       gradientUnits="userSpaceOnUse"
       gradientTransform="matrix(0.77899052,0,0,0.77898215,56.144636,83.383919)" />
  </defs>
  <sodipodi:namedview
     id="base"
     pagecolor="#ffffff"
     bordercolor="#666666"
     borderopacity="1.0"
     inkscape:pageopacity="0.0"
     inkscape:pageshadow="2"
     inkscape:zoom="1"
     inkscape:cx="313.03662"
     inkscape:cy="506.75146"
     inkscape:document-units="px"
     inkscape:current-layer="layer1"
     showgrid="false"
     showguides="true"
     inkscape:guide-bbox="true"
     inkscape:window-width="1366"
     inkscape:window-height="721"
     inkscape:window-x="-4"
     inkscape:window-y="-4"
     inkscape:window-maximized="1">
    <sodipodi:guide
       position="560,730.00002"
       orientation="0,1"
       id="guide3338" />
    <sodipodi:guide
       position="560,330.00001"
       orientation="0,1"
       id="guide3340" />
    <sodipodi:guide
       position="190,475.00001"
       orientation="1,0"
       id="guide3344" />
    <sodipodi:guide
       position="590,451.00001"
       orientation="1,0"
       id="guide3346" />
    <inkscape:grid
       type="xygrid"
       id="grid3440" />
  </sodipodi:namedview>
  <metadata
     id="metadata7">
    <rdf:RDF>
      <cc:Work
         rdf:about="">
        <dc:format>image/svg+xml</dc:format>
        <dc:type
           rdf:resource="http://purl.org/dc/dcmitype/StillImage" />
        <dc:title>account delete</dc:title>
        <dc:date>June 2015</dc:date>
        <dc:creator>
          <cc:Agent>
            <dc:title>Johannes Hechler</dc:title>
          </cc:Agent>
        </dc:creator>
        <dc:rights>
          <cc:Agent>
            <dc:title>Johannes Hechler</dc:title>
          </cc:Agent>
        </dc:rights>
        <dc:publisher>
          <cc:Agent>
            <dc:title>RRZE</dc:title>
          </cc:Agent>
        </dc:publisher>
        <dc:contributor>
          <cc:Agent>
            <dc:title>Ute Weber, Hendrik Eggers</dc:title>
          </cc:Agent>
        </dc:contributor>
        <dc:subject>
          <rdf:Bag>
            <rdf:li>account</rdf:li>
            <rdf:li>delete</rdf:li>
            <rdf:li>at</rdf:li>
          </rdf:Bag>
        </dc:subject>
      </cc:Work>
    </rdf:RDF>
  </metadata>
  <g
     inkscape:label="Ebene 1"
     inkscape:groupmode="layer"
     id="layer1">
    <g
       id="g4163">
      <rect
         y="322.36221"
         x="190"
         height="400"
         width="400"
         id="rect4160"
         style="opacity:1;fill:none;fill-opacity:1;stroke:none;stroke-width:23;stroke-linecap:butt;stroke-linejoin:round;stroke-miterlimit:4;stroke-dasharray:none;stroke-opacity:1" />
      <path
         id="text4149"
         d="M 364.56445 334.37109 C 342.72206 334.37109 322.03689 338.29965 302.50586 346.1582 C 282.97483 353.90119 265.754 365.11206 250.8457 379.78906 C 236.28411 394.23493 225.07348 410.992 217.21484 430.06055 C 209.3562 449.1291 205.42773 469.1797 205.42773 490.21289 C 205.42773 512.05505 209.2999 532.50958 217.04297 551.57812 C 224.78604 570.53111 236.05297 587.23186 250.8457 601.67773 C 265.63844 616.12361 282.51166 627.10143 301.46484 634.61328 C 320.41803 642.2407 340.58472 646.05469 361.96484 646.05469 C 379.53121 646.05469 396.80835 643.0505 413.79688 637.04102 C 420.61946 634.69002 427.22729 631.90973 433.62695 628.71289 L 415.01758 610.10156 C 412.00811 611.38105 408.94515 612.56441 405.82227 613.63867 C 391.49181 618.72362 376.87314 621.26562 361.96484 621.26562 C 343.82063 621.26562 326.77459 618.08665 310.82617 611.73047 C 294.87776 605.48985 280.83583 596.36076 268.70117 584.3418 C 256.10424 572.0917 246.45491 557.9349 239.75195 541.87109 C 233.16456 525.80729 229.87109 508.58804 229.87109 490.21289 C 229.87109 467.90847 234.955 447.22089 245.125 428.15234 C 255.41057 408.96823 269.62532 393.48314 287.76953 381.69531 C 298.86408 374.29903 310.94079 368.75088 324 365.05273 C 337.05921 361.23902 350.69722 359.33398 364.91211 359.33398 C 385.25212 359.33398 404.03229 363.37711 421.25195 371.4668 C 438.58719 379.44092 453.26411 390.99745 465.2832 406.13672 C 472.67957 415.38208 478.16934 425.43749 481.75195 436.30078 C 485.45014 447.16408 487.29883 458.77887 487.29883 471.14453 C 487.29883 491.59988 482.50232 508.29869 472.91016 521.24219 C 469.74956 525.52051 466.16887 529.21342 462.18555 532.34766 L 478.00391 548.16797 C 480.32845 546.35428 482.56356 544.43223 484.69922 542.39062 C 503.07457 524.82445 512.26172 500.84528 512.26172 470.45117 C 512.26172 456.23643 509.95085 442.48356 505.32812 429.19336 C 500.82096 415.90316 494.23207 403.59509 485.56445 392.26953 C 471.34956 373.77882 453.72678 359.5055 432.69336 349.45117 C 411.77551 339.39685 389.06492 334.37109 364.56445 334.37109 z M 353.4707 413.24414 C 333.70854 413.24414 317.58684 420.46819 305.10547 434.91406 C 292.6241 449.35993 286.38281 468.13856 286.38281 491.25195 C 286.38281 514.36535 292.56584 533.14593 304.93164 547.5918 C 317.41301 561.9221 333.59297 569.08789 353.4707 569.08789 C 365.37423 569.08789 375.77508 567.00611 384.67383 562.8457 C 385.56302 562.42391 386.43964 561.97458 387.30859 561.50781 C 388.4742 554.80605 391.59008 548.40436 396.67578 543.31836 L 410.69531 529.29688 C 416.91202 523.0798 425.09202 519.79462 433.38672 519.43555 L 433.38672 416.71289 L 408.59766 416.71289 L 408.59766 439.42188 C 401.77913 430.63879 393.86198 424.10801 384.84766 419.83203 C 375.83334 415.44049 365.37423 413.24414 353.4707 413.24414 z M 359.88477 438.38086 C 373.98409 438.38086 385.19471 443.17747 393.51562 452.76953 C 401.83654 462.24602 405.99609 475.07258 405.99609 491.25195 C 405.99609 507.66246 401.89284 520.60749 393.6875 530.08398 C 385.59772 539.56048 374.44731 544.29883 360.23242 544.29883 C 345.90196 544.29883 334.63308 539.61678 326.42773 530.25586 C 318.22239 520.77937 314.11914 507.77803 314.11914 491.25195 C 314.11914 474.95701 318.22239 462.07219 326.42773 452.5957 C 334.74865 443.11921 345.90101 438.38086 359.88477 438.38086 z M 434.91406 555.99023 L 423.36523 567.53906 L 424.51172 568.68555 C 431.32596 567.87495 437.77936 566.62964 443.87109 564.94727 L 434.91406 555.99023 z "
         style="font-style:normal;font-weight:normal;font-size:355.02365112px;line-height:125%;font-family:sans-serif;letter-spacing:0px;word-spacing:0px;fill:url(#linearGradient4159);fill-opacity:1;stroke:none;stroke-width:1px;stroke-linecap:butt;stroke-linejoin:miter;stroke-opacity:1" />
      <path
         sodipodi:nodetypes="cccscsccsssscscsccsccc"
         inkscape:connector-curvature="0"
         id="rect4217"
         d="m 584.20183,702.816 c 6.36685,-6.3673 6.362,-16.62104 -0.003,-22.9883 l -50.30007,-50.30352 50.95553,-50.95885 c 5.90252,-5.9029 5.8977,-15.40863 -0.003,-21.31152 L 569.35214,541.7532 c -5.90251,-5.90289 -15.40767,-5.90774 -21.31018,-0.003 l -50.9553,50.95906 -50.68088,-50.6842 c -6.36686,-6.36723 -16.61512,-6.36725 -22.982,0 l -14.02048,14.02143 c -6.3669,6.36727 -6.36685,16.61623 0,22.9835 l 50.68087,50.68415 -51.01815,51.02147 c -5.90251,5.9029 -5.89767,15.40865 0.003,21.31156 l 15.49959,15.76454 c 5.85247,5.95253 15.40763,5.90771 21.31015,0.003 l 51.01815,-51.2854 50.49821,50.96339 c 6.33781,6.39617 16.61995,6.3721 22.98682,0.003 l 13.82257,-14.68127 z"
         style="opacity:1;fill:#d9463a;fill-opacity:1;stroke:none;stroke-width:40;stroke-linecap:square;stroke-linejoin:round;stroke-miterlimit:4;stroke-dasharray:none;stroke-opacity:1" />
    </g>
  </g>
</svg>
