<?xml version="1.0" encoding="UTF-8" standalone="no"?>
<!-- Created with Inkscape (http://www.inkscape.org/) -->

<svg
   xmlns:dc="http://purl.org/dc/elements/1.1/"
   xmlns:cc="http://creativecommons.org/ns#"
   xmlns:rdf="http://www.w3.org/1999/02/22-rdf-syntax-ns#"
   xmlns:svg="http://www.w3.org/2000/svg"
   xmlns="http://www.w3.org/2000/svg"
   xmlns:xlink="http://www.w3.org/1999/xlink"
   xmlns:sodipodi="http://sodipodi.sourceforge.net/DTD/sodipodi-0.dtd"
   xmlns:inkscape="http://www.inkscape.org/namespaces/inkscape"
   width="210mm"
   height="297mm"
   viewBox="0 0 744.09448819 1052.3622047"
   id="svg2"
   version="1.1"
   inkscape:version="0.91 r13725"
   inkscape:export-xdpi="4.949914"
   inkscape:export-ydpi="4.949914"
   sodipodi:docname="address-book-fau.svg"
   inkscape:export-filename="D:\Dokumente\Arbeit\RRZE\github\bicons\22x22\emblems\address-book-fau.png">
  <title
     id="title4261">address book 2</title>
  <defs
     id="defs4">
    <linearGradient
       id="linearGradient2224">
      <stop
         id="stop2226"
         offset="0"
         style="stop-color:#7c7c7c;stop-opacity:1;" />
      <stop
         id="stop2228"
         offset="1"
         style="stop-color:#b8b8b8;stop-opacity:1;" />
    </linearGradient>
    <linearGradient
       id="linearGradient15218">
      <stop
         id="stop15220"
         offset="0"
         style="stop-color:#eeeeef;stop-opacity:1;" />
      <stop
         id="stop2736"
         offset="0.59928656"
         style="stop-color:#d3d7cf;stop-opacity:1;" />
      <stop
         id="stop2738"
         offset="0.82758623"
         style="stop-color:#ffffff;stop-opacity:1;" />
      <stop
         id="stop15222"
         offset="1"
         style="stop-color:#d3d7cf;stop-opacity:1;" />
    </linearGradient>
    <pattern
       y="0"
       x="0"
       height="6"
       width="6"
       patternUnits="userSpaceOnUse"
       id="EMFhbasepattern" />
    <pattern
       y="0"
       x="0"
       height="6"
       width="6"
       patternUnits="userSpaceOnUse"
       id="EMFhbasepattern-5" />
    <pattern
       y="0"
       x="0"
       height="6"
       width="6"
       patternUnits="userSpaceOnUse"
       id="EMFhbasepattern-6" />
    <linearGradient
       inkscape:collect="always"
       xlink:href="#linearGradient4253"
       id="linearGradient4259"
       x1="240"
       y1="722.18365"
       x2="600"
       y2="322.18362"
       gradientUnits="userSpaceOnUse"
       gradientTransform="matrix(0.96751062,0,0,1.0026578,8.1890779,-2.0064864)" />
    <linearGradient
       inkscape:collect="always"
       id="linearGradient4253">
      <stop
         style="stop-color:#4e505d;stop-opacity:1;"
         offset="0"
         id="stop4255" />
      <stop
         style="stop-color:#7a859c;stop-opacity:1"
         offset="1"
         id="stop4257" />
    </linearGradient>
  </defs>
  <sodipodi:namedview
     id="base"
     pagecolor="#ffffff"
     bordercolor="#666666"
     borderopacity="1.0"
     inkscape:pageopacity="0.0"
     inkscape:pageshadow="2"
     inkscape:zoom="0.70710678"
     inkscape:cx="260.63578"
     inkscape:cy="565.03852"
     inkscape:document-units="px"
     inkscape:current-layer="layer1"
     showgrid="false"
     showguides="true"
     inkscape:guide-bbox="true"
     inkscape:window-width="1600"
     inkscape:window-height="837"
     inkscape:window-x="-4"
     inkscape:window-y="-4"
     inkscape:window-maximized="1"
     inkscape:snap-bbox="true"
     inkscape:bbox-paths="true"
     inkscape:bbox-nodes="true"
     inkscape:snap-nodes="true"
     inkscape:object-paths="true"
     inkscape:snap-intersection-paths="true"
     inkscape:object-nodes="true"
     inkscape:snap-smooth-nodes="true">
    <sodipodi:guide
       position="315.53572,730.17859"
       orientation="0,1"
       id="guide3338" />
    <sodipodi:guide
       position="351.25,330.17858"
       orientation="0,1"
       id="guide3340" />
    <sodipodi:guide
       position="189.10714,408.8393"
       orientation="1,0"
       id="guide3344" />
    <sodipodi:guide
       position="589.04521,468.07945"
       orientation="1,0"
       id="guide3346" />
    <inkscape:grid
       type="xygrid"
       id="grid3440" />
    <sodipodi:guide
       position="589.04521,378.30213"
       orientation="1,0"
       id="guide3411" />
  </sodipodi:namedview>
  <metadata
     id="metadata7">
    <rdf:RDF>
      <cc:Work
         rdf:about="">
        <dc:format>image/svg+xml</dc:format>
        <dc:type
           rdf:resource="http://purl.org/dc/dcmitype/StillImage" />
        <dc:title>address book 2</dc:title>
        <dc:date>June 2015</dc:date>
        <dc:creator>
          <cc:Agent>
            <dc:title>Johannes Hechler</dc:title>
          </cc:Agent>
        </dc:creator>
        <dc:rights>
          <cc:Agent>
            <dc:title>Johannes Hechler</dc:title>
          </cc:Agent>
        </dc:rights>
        <dc:publisher>
          <cc:Agent>
            <dc:title>RRZE</dc:title>
          </cc:Agent>
        </dc:publisher>
        <dc:contributor>
          <cc:Agent>
            <dc:title>Ute Weber, Hendrik Eggers</dc:title>
          </cc:Agent>
        </dc:contributor>
        <dc:subject>
          <rdf:Bag>
            <rdf:li>address</rdf:li>
            <rdf:li>book</rdf:li>
            <rdf:li>addressbook</rdf:li>
          </rdf:Bag>
        </dc:subject>
      </cc:Work>
    </rdf:RDF>
  </metadata>
  <g
     inkscape:label="Ebene 1"
     inkscape:groupmode="layer"
     id="layer1">
    <g
       id="g4169">
      <g
         id="g4250">
        <flowRoot
           xml:space="preserve"
           id="flowRoot4169"
           style="font-style:normal;font-weight:normal;font-size:40px;line-height:125%;font-family:sans-serif;letter-spacing:0px;word-spacing:0px;fill:#252525;fill-opacity:1;stroke:none;stroke-width:1px;stroke-linecap:butt;stroke-linejoin:miter;stroke-opacity:1"
           transform="translate(-0.0516421,-0.1036014)"><flowRegion
             id="flowRegion4171"><rect
               id="rect4173"
               width="56.433445"
               height="88.78862"
               x="89.541069"
               y="427.07962" /></flowRegion><flowPara
             id="flowPara4175" /></flowRoot>        <rect
           style="fill:none;fill-rule:evenodd;stroke:none;stroke-width:1px;stroke-linecap:butt;stroke-linejoin:miter;stroke-opacity:1"
           id="rect3336"
           width="400"
           height="400"
           x="189.04521"
           y="322.18362"
           inkscape:export-xdpi="4.9499998"
           inkscape:export-ydpi="4.9499998" />
        <rect
           style="fill:none;fill-rule:evenodd;stroke:none;stroke-width:1px;stroke-linecap:butt;stroke-linejoin:miter;stroke-opacity:1"
           id="rect3336-6"
           width="400"
           height="400"
           x="188.8515"
           y="322.19058"
           inkscape:export-xdpi="4.9499998"
           inkscape:export-ydpi="4.9499998" />
        <path
           id="rect4162"
           d="M 277.69141 322.19922 C 265.13256 322.19922 255.02148 332.01493 255.02148 344.20703 L 255.02148 358.53906 L 280.13672 358.53906 C 299.91437 358.53906 316.39844 375.02312 316.39844 394.80078 C 316.39844 414.57843 299.91438 431.0625 280.13672 431.0625 L 255.02148 431.0625 L 255.02148 486.50781 L 280.13672 486.50781 C 299.91437 486.50781 316.39844 502.99187 316.39844 522.76953 C 316.39844 528.88223 314.81845 534.67748 312.05859 539.77148 L 549.52539 539.77148 L 549.52539 539.9043 A 18.0018 18.0018 0 0 1 551.52539 539.77148 L 552.81445 539.77148 L 552.81445 344.20703 C 552.81445 332.01493 542.70529 322.19922 530.14648 322.19922 L 277.69141 322.19922 z M 280.43945 394.49805 C 280.43145 394.49005 280.36485 394.53906 280.13672 394.53906 L 255.02148 394.53906 L 255.02148 395.0625 L 280.13672 395.0625 C 280.59302 395.0625 280.39844 395.25708 280.39844 394.80078 C 280.39844 394.57261 280.44785 394.50644 280.43945 394.49805 z M 280.43945 522.4668 C 280.43145 522.4588 280.36485 522.50781 280.13672 522.50781 L 255.02148 522.50781 L 255.02148 523.03125 L 280.13672 523.03125 C 280.59302 523.03125 280.39844 523.22583 280.39844 522.76953 C 280.39844 522.54136 280.44785 522.47519 280.43945 522.4668 z M 552.79102 701.2168 C 552.49801 701.44173 552.20796 701.67097 551.91016 701.88867 C 552.22044 701.71632 552.48855 701.54972 552.78711 701.37891 C 552.7897 701.32512 552.78882 701.27068 552.79102 701.2168 z "
           style="color:#000000;clip-rule:nonzero;display:inline;overflow:visible;visibility:visible;opacity:18999999;isolation:auto;mix-blend-mode:normal;color-interpolation:sRGB;color-interpolation-filters:linearRGB;solid-color:#000000;solid-opacity:1;fill:url(#linearGradient4259);fill-opacity:1;fill-rule:nonzero;stroke:none;stroke-width:27.79999924;stroke-linecap:square;stroke-linejoin:miter;stroke-miterlimit:4;stroke-dasharray:27.79999924, 55.59999847000000300;stroke-dashoffset:0;stroke-opacity:1;color-rendering:auto;image-rendering:auto;shape-rendering:auto;text-rendering:auto;enable-background:accumulate" />
        <path
           style="color:#000000;clip-rule:nonzero;display:inline;overflow:visible;visibility:visible;opacity:18999999;isolation:auto;mix-blend-mode:normal;color-interpolation:sRGB;color-interpolation-filters:linearRGB;solid-color:#000000;solid-opacity:1;fill:#4e505d;fill-opacity:1;fill-rule:nonzero;stroke:none;stroke-width:40;stroke-linecap:square;stroke-linejoin:miter;stroke-miterlimit:4;stroke-dasharray:none;stroke-dashoffset:0;stroke-opacity:1;color-rendering:auto;image-rendering:auto;shape-rendering:auto;text-rendering:auto;enable-background:accumulate"
           d="M 243.69922 376.53906 C 233.58223 376.53906 225.4375 384.68379 225.4375 394.80078 C 225.4375 404.91776 233.58223 413.0625 243.69922 413.0625 L 280.13672 413.0625 C 290.2537 413.0625 298.39844 404.91776 298.39844 394.80078 C 298.39844 384.68379 290.2537 376.53906 280.13672 376.53906 L 243.69922 376.53906 z M 243.69922 504.50781 C 233.58223 504.50781 225.4375 512.65254 225.4375 522.76953 C 225.4375 530.48726 230.18257 537.04249 236.92188 539.72461 L 286.6582 539.81836 C 293.53087 537.20103 298.39844 530.58297 298.39844 522.76953 C 298.39844 512.65254 290.2537 504.50781 280.13672 504.50781 L 243.69922 504.50781 z M 244.05273 631.21484 C 243.6644 631.21484 243.28452 631.24783 242.90234 631.27148 L 242.90234 667.68164 C 243.28452 667.70529 243.6644 667.73828 244.05273 667.73828 L 246.68359 667.73828 L 246.68359 655.2207 A 18.0018 18.0018 0 0 1 255.57031 639.7207 A 18.0018 18.0018 0 0 1 248.1543 631.21484 L 244.05273 631.21484 z "
           id="rect4226" />
        <path
           inkscape:connector-curvature="0"
           style="fill:#4e505d;stroke:none"
           d="m 224.90307,557.70233 0,164.36722 39.78131,0 0,-66.84979 64.76624,0 -23.39069,66.96387 39.66126,0 11.58678,-34.82458 51.32042,0 11.03065,34.77595 40.82117,0 -58.49,-164.21388 -39.70893,0 -23.17531,66.33556 -74.36509,0 0,-36.81797 79.3137,0 0,-29.51384 -119.15151,-0.22254 z m 326.62239,0.0692 0,114.40144 c -6.26507,26.37451 -46.08054,29.52085 -54.62362,-1.16873 l 0,-113.08498 -37.24257,0.14586 0,114.983 c 4.39266,27.16052 16.09638,40.35473 37.24257,48.94665 l 55.17621,0 c 28.49224,-13.37478 32.92669,-29.31042 36.96715,-45.73215 l 0,-118.49109 -37.51974,0 z m -168.84771,40.17459 17.66351,63.62222 -35.92553,-0.073 18.26202,-63.54929 z"
           id="path3778" />
        <path
           inkscape:connector-curvature="0"
           style="color:#252525;clip-rule:nonzero;display:inline;overflow:visible;visibility:visible;opacity:1;isolation:auto;mix-blend-mode:normal;color-interpolation:sRGB;color-interpolation-filters:linearRGB;solid-color:#252525;solid-opacity:1;fill:#ffffff;fill-opacity:1;fill-rule:nonzero;stroke:none;stroke-width:10;stroke-linecap:butt;stroke-linejoin:bevel;stroke-miterlimit:4;stroke-dasharray:none;stroke-dashoffset:60.95968628;stroke-opacity:1;color-rendering:auto;image-rendering:auto;shape-rendering:auto;text-rendering:auto;enable-background:accumulate"
           d="m 224.90307,569.39156 0,6.1784 119.15152,0 0,-6.1784 -119.15152,0 z m 133.3706,0 -2.15741,6.1784 52.16079,0 -2.20154,-6.1784 -47.80184,0 z m 101.3856,0 0,6.1784 37.24257,0 0,-6.1784 -37.24257,0 z m 91.86619,0 0,6.1784 37.51974,0 0,-6.1784 -37.51974,0 z m -326.62239,18.63619 0,6.17841 39.83781,0 0,-6.17841 -39.83781,0 z m 126.85954,0 -2.15739,6.17841 65.30823,0 -2.19978,-6.17841 -60.95106,0 z m 107.89666,0 0,6.17841 37.24257,0 0,-6.17841 -37.24257,0 z m 91.86619,0 0,6.17841 37.51974,0 0,-6.17841 -37.51974,0 z m -326.62239,14.72793 0,6.17841 39.83781,0 0,-6.17841 -39.83781,0 z m 121.71497,0 -2.15917,6.17841 35.06046,0 1.77606,-6.17841 -34.67735,0 z m 37.39441,0 1.71604,6.17841 34.43194,0 -2.20153,-6.17841 -33.94645,0 z m 75.64683,0 0,6.17841 37.24257,0 0,-6.17841 -37.24257,0 z m 91.86618,0 0,6.17841 37.51974,0 0,-6.17841 -37.51974,0 z m -326.62239,15.07763 0,6.17841 39.83781,0 0,-6.17841 -39.83781,0 z m 116.44682,0 -2.15918,6.17841 35.99615,0 1.77606,-6.17841 -35.61304,0 z m 46.84848,0 1.71605,6.17841 35.61657,0 -2.20154,-6.17841 -35.13108,0 z m 71.4609,0 0,6.17841 37.24257,0 0,-6.17841 -37.24257,0 z m 91.86619,0 0,6.17841 37.51974,0 0,-6.17841 -37.51974,0 z m -326.62239,19.10369 0,6.18026 144.79318,0 1.77606,-6.18026 -146.56924,0 z m 168.60055,0 1.71426,6.18026 37.11723,0 -2.20154,-6.18026 -36.62995,0 z m 66.15566,0 0,6.18026 37.24257,0 0,-6.18026 -37.24257,0 z m 91.86618,0 0,6.18026 37.51974,0 0,-6.18026 -37.51974,0 z m -326.62239,17.97608 0,6.1784 39.78131,0 0,-5.87172 64.76624,0 -2.05148,5.87172 37.13312,0 1.77429,-6.1784 -141.40348,0 z m 173.58975,0 1.71604,6.1784 38.52961,0 -2.20155,-6.1784 -38.0441,0 z m 61.16645,0 0,6.1784 37.24257,0 0,-6.1784 -37.24257,0 z m 91.86619,0 0,6.1784 37.51974,0 0,-6.1784 -37.51974,0 z m -326.62239,15.16551 0,6.17841 39.78131,0 0,-6.17841 -39.78131,0 z m 99.35706,0 -2.1574,6.17841 122.0363,0 -2.19978,-6.17841 -117.67912,0 z m 135.39914,0 0,2.96952 c 0.17706,1.09479 0.36928,2.15887 0.57024,3.20889 l 38.57727,0 c -0.74164,-1.62631 -1.38243,-3.37575 -1.90494,-5.25277 l 0,-0.92564 -37.24257,0 z m 91.86619,0 0,2.09438 c -0.34007,1.43158 -0.78436,2.79101 -1.31175,4.08403 l 38.83149,0 0,-6.17841 -37.51973,0 z m -326.62239,17.13273 0,6.17841 39.78131,0 0,-6.17841 -39.78131,0 z m 93.37213,0 -2.15741,6.17841 39.18283,0 2.00734,-6.03068 51.32042,0 1.91201,6.03068 39.70186,0 -2.20154,-6.17841 -129.76551,0 z m 144.74022,0 c 0.7149,2.17459 1.50696,4.22967 2.37279,6.17841 l 118.17874,0 c 0.93766,-2.04001 1.71963,-4.10233 2.41693,-6.17841 l -44.16321,0 c -9.76652,7.44941 -24.28283,7.9503 -34.50256,0 l -44.30269,0 z m -238.11235,16.56986 0,6.17841 39.78131,0 0,-6.17841 -39.78131,0 z m 87.58492,0 -2.15739,6.17841 39.45823,0 2.05501,-6.17841 -39.35585,0 z m 101.34853,0 1.96143,6.17841 40.34627,0 -2.20154,-6.17841 -40.10617,0 z m 57.62844,0 c 1.69617,2.23719 3.55496,4.29195 5.59125,6.17841 l 94.08891,0 c 2.30115,-2.02325 4.26943,-4.0857 5.97434,-6.17841 l -105.65449,0 z"
           id="rect4369" />
      </g>
    </g>
  </g>
</svg>
