<?xml version="1.0" encoding="UTF-8" standalone="no"?>
<!-- Created with Inkscape (http://www.inkscape.org/) -->

<svg
   xmlns:dc="http://purl.org/dc/elements/1.1/"
   xmlns:cc="http://creativecommons.org/ns#"
   xmlns:rdf="http://www.w3.org/1999/02/22-rdf-syntax-ns#"
   xmlns:svg="http://www.w3.org/2000/svg"
   xmlns="http://www.w3.org/2000/svg"
   xmlns:xlink="http://www.w3.org/1999/xlink"
   xmlns:sodipodi="http://sodipodi.sourceforge.net/DTD/sodipodi-0.dtd"
   xmlns:inkscape="http://www.inkscape.org/namespaces/inkscape"
   width="210mm"
   height="297mm"
   viewBox="0 0 744.09448819 1052.3622047"
   id="svg2"
   version="1.1"
   inkscape:version="0.91 r13725"
   inkscape:export-xdpi="4.9499998"
   inkscape:export-ydpi="4.9499998"
   sodipodi:docname="address-book-fau.svg"
   inkscape:export-filename="C:\Users\johannes\Documents\Arbeit\RRZE\github3\bicons\22x22\emblems\address-book-fau.png">
  <defs
     id="defs4">
    <linearGradient
       id="linearGradient2224">
      <stop
         id="stop2226"
         offset="0"
         style="stop-color:#7c7c7c;stop-opacity:1;" />
      <stop
         id="stop2228"
         offset="1"
         style="stop-color:#b8b8b8;stop-opacity:1;" />
    </linearGradient>
    <linearGradient
       id="linearGradient15218">
      <stop
         id="stop15220"
         offset="0"
         style="stop-color:#eeeeef;stop-opacity:1;" />
      <stop
         id="stop2736"
         offset="0.59928656"
         style="stop-color:#d3d7cf;stop-opacity:1;" />
      <stop
         id="stop2738"
         offset="0.82758623"
         style="stop-color:#ffffff;stop-opacity:1;" />
      <stop
         id="stop15222"
         offset="1"
         style="stop-color:#d3d7cf;stop-opacity:1;" />
    </linearGradient>
    <pattern
       y="0"
       x="0"
       height="6"
       width="6"
       patternUnits="userSpaceOnUse"
       id="EMFhbasepattern" />
    <pattern
       y="0"
       x="0"
       height="6"
       width="6"
       patternUnits="userSpaceOnUse"
       id="EMFhbasepattern-5" />
    <pattern
       y="0"
       x="0"
       height="6"
       width="6"
       patternUnits="userSpaceOnUse"
       id="EMFhbasepattern-6" />
    <linearGradient
       inkscape:collect="always"
       xlink:href="#linearGradient4321"
       id="linearGradient7348"
       x1="109.08"
       y1="961.41895"
       x2="345.41998"
       y2="761.44208"
       gradientUnits="userSpaceOnUse"
       gradientTransform="translate(52.99773,-358.71945)" />
    <linearGradient
       id="linearGradient4321"
       inkscape:collect="always">
      <stop
         id="stop4323"
         offset="0"
         style="stop-color:#4e505d;stop-opacity:1;" />
      <stop
         id="stop4325"
         offset="1"
         style="stop-color:#7a8597;stop-opacity:1" />
    </linearGradient>
  </defs>
  <sodipodi:namedview
     id="base"
     pagecolor="#ffffff"
     bordercolor="#666666"
     borderopacity="1.0"
     inkscape:pageopacity="0.0"
     inkscape:pageshadow="2"
     inkscape:zoom="1"
     inkscape:cx="369.17606"
     inkscape:cy="557.8331"
     inkscape:document-units="px"
     inkscape:current-layer="layer1"
     showgrid="false"
     showguides="true"
     inkscape:guide-bbox="true"
     inkscape:window-width="1366"
     inkscape:window-height="721"
     inkscape:window-x="-4"
     inkscape:window-y="-4"
     inkscape:window-maximized="1"
     inkscape:snap-bbox="true"
     inkscape:bbox-paths="true"
     inkscape:bbox-nodes="true"
     inkscape:snap-nodes="false">
    <sodipodi:guide
       position="315.53572,730.17859"
       orientation="0,1"
       id="guide3338" />
    <sodipodi:guide
       position="351.25,330.17858"
       orientation="0,1"
       id="guide3340" />
    <sodipodi:guide
       position="189.10714,408.8393"
       orientation="1,0"
       id="guide3344" />
    <sodipodi:guide
       position="589.04521,468.07945"
       orientation="1,0"
       id="guide3346" />
    <inkscape:grid
       type="xygrid"
       id="grid3440" />
    <sodipodi:guide
       position="589.04521,378.30213"
       orientation="1,0"
       id="guide3411" />
  </sodipodi:namedview>
  <metadata
     id="metadata7">
    <rdf:RDF>
      <cc:Work
         rdf:about="">
        <dc:format>image/svg+xml</dc:format>
        <dc:type
           rdf:resource="http://purl.org/dc/dcmitype/StillImage" />
        <dc:title />
        <dc:date>June 2015</dc:date>
        <dc:creator>
          <cc:Agent>
            <dc:title>Johannes Hechler</dc:title>
          </cc:Agent>
        </dc:creator>
        <dc:rights>
          <cc:Agent>
            <dc:title>Johannes Hechler</dc:title>
          </cc:Agent>
        </dc:rights>
        <dc:publisher>
          <cc:Agent>
            <dc:title>RRZE</dc:title>
          </cc:Agent>
        </dc:publisher>
        <dc:contributor>
          <cc:Agent>
            <dc:title>Ute Weber, Hendrik Eggers</dc:title>
          </cc:Agent>
        </dc:contributor>
        <dc:subject>
          <rdf:Bag>
            <rdf:li>addressbook</rdf:li>
            <rdf:li>address</rdf:li>
            <rdf:li>book</rdf:li>
            <rdf:li>FAU</rdf:li>
          </rdf:Bag>
        </dc:subject>
      </cc:Work>
    </rdf:RDF>
  </metadata>
  <g
     inkscape:label="Ebene 1"
     inkscape:groupmode="layer"
     id="layer1">
    <g
       id="g4190"
       transform="translate(136.04521,-44.178522)">
      <path
         id="path4325"
         d="m 147.91064,366.36218 c -12.30126,0 -22.12891,9.84727 -22.12891,22.02539 l 0,14.61719 64.41797,0.11914 a 18.0018,18.0018 0 0 1 9.06055,2.49414 18.0018,18.0018 0 0 1 9.10742,-2.49609 l 39.6543,0 a 18.0018,18.0018 0 0 1 16.94922,11.93945 l 24.54687,68.65234 0,-62.81054 a 18.0018,18.0018 0 0 1 18,-18 l 36.35938,0 a 18.0018,18.0018 0 0 1 18,18 l 0,109.22851 c 2.2931,6.34621 5.65259,7.24869 9.82617,7.17969 4.12668,-0.0683 7.27047,-1.6846 8.71484,-5.5957 l 0,-110.8125 a 18.0018,18.0018 0 0 1 18.0332,-18 l 18.21094,0.0352 0,-14.55078 c 10e-6,-12.17818 -9.82364,-22.0254 -22.125,-22.0254 l -246.62695,0 z m 177.60742,72.54102 0,94.74023 c 3.5024,20.71771 8.03368,26.72479 22.10742,32.88086 l 0.70313,0 c -9.93356,-5.94416 -18.21344,-15.55165 -21.78711,-28.33984 a 18.0018,18.0018 0 0 1 -0.66406,-4.84571 l 0,-94.43554 -0.35938,0 z m 90.90039,0.0352 0,95.76757 a 18.0018,18.0018 0 0 1 -0.49219,4.17578 c -2.29529,9.62529 -7.61549,17.39147 -14.41406,23.17383 4.49623,-3.17549 7.3006,-6.18235 9.19336,-9.08008 2.71299,-4.15347 4.24543,-9.24702 5.95703,-15.96875 l 0,-98.06835 -0.24414,0 z m -195.28906,0.18359 -2.41992,6.90039 a 18.0018,18.0018 0 0 1 18.83203,-0.74804 l -2.19922,-6.15235 -14.21289,0 z m -21.95508,59.34375 a 18.0018,18.0018 0 0 1 -4.64258,4.02343 18.0018,18.0018 0 0 1 2.0586,4.93555 l 2.58398,-8.95898 z m 63.3711,16.73828 1.16796,4.18945 a 18.0018,18.0018 0 0 1 -1.8789,14.00977 18.0018,18.0018 0 0 1 9.96679,11.01562 l 7.02344,22.05664 2.05274,0 -18.33203,-51.27148 z m -69.8125,11.71093 -5.29688,14.31836 c 0.0447,0.0445 0.0884,0.09 0.13281,0.13477 a 18.0018,18.0018 0 0 1 7.76758,-7.55664 18.0018,18.0018 0 0 1 -2.60351,-6.89649 z m -66.95118,2.88868 0,0.78125 27.20899,0 0.28906,-0.78125 -27.49805,0 z m 0,36.78125 0,0.45703 13.71875,0 0.16797,-0.45703 -13.88672,0 z m 90.58399,1.29687 -7.46289,22.34375 a 18.0018,18.0018 0 0 1 -17.07227,12.29883 l -23.84961,0 c -0.1776,0.0306 -0.35284,0.0678 -0.53125,0.0957 -1.7324,0.27655 -3.49806,0.42188 -5.28711,0.42188 l -0.0723,0 c -0.0249,5e-5 -0.0494,0.002 -0.0742,0.002 l -36.23438,0 0,36.69336 36.38477,0 0.14453,0 c 1.7965,0 3.57123,0.14621 5.31055,0.42383 0.0945,0.0148 0.18701,0.0353 0.28125,0.0508 17.08721,2.81406 30.41992,17.93831 30.41992,35.7168 0,17.70955 -13.22568,32.8378 -30.21289,35.75195 -0.16338,0.028 -0.3242,0.0641 -0.48828,0.0898 -1.73932,0.27884 -3.51405,0.42578 -5.31055,0.42578 l -0.14453,0 -36.38477,0 0,32.14063 c 0,12.1782 9.82765,22.02539 22.12891,22.02539 l 246.62695,0 c 12.30136,0 22.125,-9.84719 22.125,-22.02539 l 0,-149.18359 c -3.276,1.99173 -6.80501,3.89137 -10.62109,5.67578 a 18.0018,18.0018 0 0 1 -7.62305,1.69531 l -54.54101,0 a 18.0018,18.0018 0 0 1 -6.75196,-1.31641 c -5.36872,-2.17292 -10.27864,-4.98833 -14.86914,-8.19531 a 18.0018,18.0018 0 0 1 -15.82617,9.46289 l -40.76367,0 a 18.0018,18.0018 0 0 1 -17.15235,-12.53906 l -7.02343,-22.05469 -25.125,0 z m -90.58399,107.85547 0,0.45898 36.38477,0 0.14453,0 c 0.0171,0 0.0207,-0.002 0.0371,-0.002 -0.0128,-0.0526 -0.0254,-0.13163 -0.0254,-0.26562 0,-0.0963 0.0129,-0.15063 0.0254,-0.18946 -0.0164,-8e-5 -0.02,-0.002 -0.0371,-0.002 l -0.14453,0 -36.38477,0 z"
         style="fill:#646a7c;fill-opacity:1;fill-rule:evenodd;stroke:none;stroke-width:36;stroke-miterlimit:4;stroke-dasharray:none"
         inkscape:connector-curvature="0" />
      <path
         style="fill:#4e505d;fill-opacity:1;fill-rule:evenodd;stroke:none;stroke-width:36;stroke-miterlimit:4;stroke-dasharray:none"
         d="m 107.62305,657.73626 54.54309,0 c 10.05311,0 18.15586,8.11883 18.15586,18.19219 0,10.14855 -8.10275,18.26738 -18.15586,18.26738 l -54.54309,0 c -10.05329,0 -18.23096,-8.11883 -18.23096,-18.26738 0,-10.07336 8.17767,-18.19219 18.23096,-18.19219 z"
         id="path4333"
         inkscape:connector-curvature="0" />
      <path
         id="rect4381"
         d="m 53.06192,366.36224 399.93808,0 0,400 -399.93808,0 z"
         style="color:#000000;clip-rule:nonzero;display:inline;overflow:visible;visibility:visible;opacity:1;isolation:auto;mix-blend-mode:normal;color-interpolation:sRGB;color-interpolation-filters:linearRGB;solid-color:#000000;solid-opacity:1;fill:none;fill-opacity:1;fill-rule:evenodd;stroke:none;stroke-width:36;stroke-linecap:butt;stroke-linejoin:round;stroke-miterlimit:4;stroke-dasharray:none;stroke-dashoffset:0;stroke-opacity:1;color-rendering:auto;image-rendering:auto;shape-rendering:auto;text-rendering:auto;enable-background:accumulate"
         inkscape:connector-curvature="0" />
      <rect
         inkscape:export-ydpi="4.9499998"
         inkscape:export-xdpi="4.9499998"
         y="366.36215"
         x="53"
         height="400"
         width="400"
         id="rect3336"
         style="fill:none;fill-rule:evenodd;stroke:none;stroke-width:1px;stroke-linecap:butt;stroke-linejoin:miter;stroke-opacity:1" />
      <rect
         y="366.36215"
         x="53"
         height="400"
         width="400"
         id="rect4160"
         style="opacity:1;fill:none;fill-opacity:1;stroke:none;stroke-width:23;stroke-linecap:butt;stroke-linejoin:round;stroke-miterlimit:4;stroke-dasharray:none;stroke-opacity:1" />
      <path
         sodipodi:nodetypes="ccccccccccccccccccccccccccccccccccc"
         id="path3778"
         d="m 71.17773,420.90263 0,163.50649 36.36,0.1134 0,-72.71993 71.595,2.6e-4 -26.90973,72.71967 39.60672,0 11.57084,-34.6422 51.24987,0 11.01549,34.5939 40.76505,0 -58.40957,-163.35394 -39.65435,0 -23.14345,65.98816 -77.62945,0.11347 0,-36.62516 82.57127,-0.11347 0,-29.35929 z m 327.23999,0 0,113.80239 c -6.25645,26.2363 -46.00864,29.1626 -54.53998,-1.3663 l 0,-112.43609 -36.36001,0 0,114.38089 c 4.38663,27.0183 15.24289,40.6921 36.36001,49.239 l 54.53998,0 c 28.45306,-13.3047 32.36658,-29.3448 36.40148,-45.6805 l 0,-117.87059 z m -169.68223,40.033 17.63922,63.28904 -35.87614,-0.0726 18.23692,-63.21649 z"
         style="fill:url(#linearGradient7348);fill-opacity:1;stroke:none"
         inkscape:connector-curvature="0" />
      <path
         id="rect7350"
         d="m 71.177418,439.08214 0,18.17969 36.416012,0 0,-6.66602 82.57227,-0.11328 0,-11.40039 -118.988282,0 z m 130.890622,0 -6.37695,18.17969 65.25195,0 -6.5,-18.17969 -52.375,0 z m 105.44922,0 0,18.17969 36.36133,0 0,-18.17969 -36.36133,0 z m 90.90039,0 0,18.17969 36.40235,0 0,-18.17969 -36.40235,0 z m -327.240232,36.36133 0,18.17969 148.128902,0 5.24414,-18.17969 -35.23632,0 -4.08985,11.66406 -77.63086,0.11524 0,-11.7793 -36.416012,0 z m 161.601562,0 5.06641,18.17969 36.09961,0 -6.5,-18.17969 -34.66602,0 z m 74.73828,0 0,18.17969 36.36133,0 0,-18.17969 -36.36133,0 z m 90.90039,0 0,18.17969 36.40235,0 0,-18.17969 -36.40235,0 z m -327.240232,36.35938 0,18.17968 36.359372,0 0,-18.17968 -36.359372,0 z m 107.955082,0 -6.72852,18.17968 114.54297,0 -6.5,-18.17968 -37.53516,0 3.46289,12.42187 -35.87695,-0.0723 3.5625,-12.34961 -34.92773,0 z m 128.38476,0 0,18.17968 36.36133,0 0,-18.17968 -36.36133,0 z m 90.90039,0 0,18.17968 36.40235,0 0,-18.17968 -36.40235,0 z m -327.240232,36.35937 0,18.1797 36.359372,0 0,-18.1797 -36.359372,0 z m 94.500002,0 -6.72657,18.1797 38.95118,0 5.49804,-16.461 51.25,0 5.24219,16.461 40.05469,0 -6.5,-18.1797 -127.76953,0 z m 144.72851,0 c 2.13439,7.1662 4.98329,13.1415 8.66602,18.1797 l 104.14648,0 c 4.66422,-5.8539 7.23972,-11.9594 9.125,-18.1797 l -41.83789,0 c -10.17124,9.19 -26.94919,9.8503 -37.79883,0 l -42.30078,0 z"
         style="color:#000000;clip-rule:nonzero;display:inline;overflow:visible;visibility:visible;opacity:1;isolation:auto;mix-blend-mode:normal;color-interpolation:sRGB;color-interpolation-filters:linearRGB;solid-color:#000000;solid-opacity:1;fill:#ffffff;fill-opacity:1;fill-rule:nonzero;stroke:none;stroke-width:36;stroke-linecap:butt;stroke-linejoin:round;stroke-miterlimit:4;stroke-dasharray:none;stroke-dashoffset:0;stroke-opacity:1;color-rendering:auto;image-rendering:auto;shape-rendering:auto;text-rendering:auto;enable-background:accumulate"
         inkscape:connector-curvature="0" />
    </g>
  </g>
</svg>
