<?xml version="1.0" encoding="UTF-8" standalone="no"?>
<!-- Created with Inkscape (http://www.inkscape.org/) -->

<svg
   xmlns:dc="http://purl.org/dc/elements/1.1/"
   xmlns:cc="http://creativecommons.org/ns#"
   xmlns:rdf="http://www.w3.org/1999/02/22-rdf-syntax-ns#"
   xmlns:svg="http://www.w3.org/2000/svg"
   xmlns="http://www.w3.org/2000/svg"
   xmlns:xlink="http://www.w3.org/1999/xlink"
   xmlns:sodipodi="http://sodipodi.sourceforge.net/DTD/sodipodi-0.dtd"
   xmlns:inkscape="http://www.inkscape.org/namespaces/inkscape"
   width="210mm"
   height="297mm"
   viewBox="0 0 744.09448819 1052.3622047"
   id="svg2"
   version="1.1"
   inkscape:version="0.91 r13725"
   inkscape:export-xdpi="4.9499998"
   inkscape:export-ydpi="4.9499998"
   sodipodi:docname="affiliation.svg"
   inkscape:export-filename="D:\Dokumente\Arbeit\RRZE\github\bicons\22x22\emblems\affiliation.png">
  <defs
     id="defs4">
    <linearGradient
       id="linearGradient2224">
      <stop
         id="stop2226"
         offset="0"
         style="stop-color:#7c7c7c;stop-opacity:1;" />
      <stop
         id="stop2228"
         offset="1"
         style="stop-color:#b8b8b8;stop-opacity:1;" />
    </linearGradient>
    <linearGradient
       id="linearGradient15218">
      <stop
         id="stop15220"
         offset="0"
         style="stop-color:#eeeeef;stop-opacity:1;" />
      <stop
         id="stop2736"
         offset="0.59928656"
         style="stop-color:#d3d7cf;stop-opacity:1;" />
      <stop
         id="stop2738"
         offset="0.82758623"
         style="stop-color:#ffffff;stop-opacity:1;" />
      <stop
         id="stop15222"
         offset="1"
         style="stop-color:#d3d7cf;stop-opacity:1;" />
    </linearGradient>
    <pattern
       y="0"
       x="0"
       height="6"
       width="6"
       patternUnits="userSpaceOnUse"
       id="EMFhbasepattern" />
    <pattern
       y="0"
       x="0"
       height="6"
       width="6"
       patternUnits="userSpaceOnUse"
       id="EMFhbasepattern-5" />
    <linearGradient
       inkscape:collect="always"
       xlink:href="#linearGradient4321"
       id="linearGradient4319"
       x1="280"
       y1="712.36218"
       x2="500"
       y2="472.36221"
       gradientUnits="userSpaceOnUse"
       gradientTransform="matrix(1.3454073,0,0,0.89923126,-165.1132,142.85683)" />
    <linearGradient
       id="linearGradient4321"
       inkscape:collect="always">
      <stop
         id="stop4323"
         offset="0"
         style="stop-color:#4e505d;stop-opacity:1;" />
      <stop
         id="stop4325"
         offset="1"
         style="stop-color:#7a8597;stop-opacity:1" />
    </linearGradient>
    <linearGradient
       inkscape:collect="always"
       xlink:href="#linearGradient4321"
       id="linearGradient4317"
       x1="280"
       y1="692.36218"
       x2="500"
       y2="472.36221"
       gradientUnits="userSpaceOnUse"
       gradientTransform="matrix(1.3377068,0,0,0.90032312,-163.15929,151.97686)" />
  </defs>
  <sodipodi:namedview
     id="base"
     pagecolor="#ffffff"
     bordercolor="#666666"
     borderopacity="1.0"
     inkscape:pageopacity="0.0"
     inkscape:pageshadow="2"
     inkscape:zoom="0.70710678"
     inkscape:cx="588.51801"
     inkscape:cy="608.17601"
     inkscape:document-units="px"
     inkscape:current-layer="layer1"
     showgrid="false"
     showguides="true"
     inkscape:guide-bbox="true"
     inkscape:window-width="1600"
     inkscape:window-height="837"
     inkscape:window-x="-4"
     inkscape:window-y="-4"
     inkscape:window-maximized="1"
     inkscape:snap-bbox="true"
     inkscape:bbox-paths="true"
     inkscape:bbox-nodes="true">
    <sodipodi:guide
       position="315.53572,730.17859"
       orientation="0,1"
       id="guide3338" />
    <sodipodi:guide
       position="351.25,330.17858"
       orientation="0,1"
       id="guide3340" />
    <sodipodi:guide
       position="189.10714,408.8393"
       orientation="1,0"
       id="guide3344" />
    <sodipodi:guide
       position="589.04521,468.07945"
       orientation="1,0"
       id="guide3346" />
    <inkscape:grid
       type="xygrid"
       id="grid3440" />
    <sodipodi:guide
       position="0,0"
       orientation="0,1"
       id="guide3405" />
    <sodipodi:guide
       position="0,0"
       orientation="0,1"
       id="guide3409" />
    <sodipodi:guide
       position="589.04521,378.30213"
       orientation="1,0"
       id="guide3411" />
  </sodipodi:namedview>
  <metadata
     id="metadata7">
    <rdf:RDF>
      <cc:Work
         rdf:about="">
        <dc:format>image/svg+xml</dc:format>
        <dc:type
           rdf:resource="http://purl.org/dc/dcmitype/StillImage" />
        <dc:title>affiliation</dc:title>
        <dc:date>June 2015</dc:date>
        <dc:creator>
          <cc:Agent>
            <dc:title>Johannes Hechler</dc:title>
          </cc:Agent>
        </dc:creator>
        <dc:rights>
          <cc:Agent>
            <dc:title>Johannes Hechler</dc:title>
          </cc:Agent>
        </dc:rights>
        <dc:publisher>
          <cc:Agent>
            <dc:title>RRZE</dc:title>
          </cc:Agent>
        </dc:publisher>
        <dc:contributor>
          <cc:Agent>
            <dc:title>Ute Weber, Hendrik Eggers</dc:title>
          </cc:Agent>
        </dc:contributor>
      </cc:Work>
    </rdf:RDF>
  </metadata>
  <g
     inkscape:label="Ebene 1"
     inkscape:groupmode="layer"
     id="layer1">
    <g
       id="g4272"
       transform="translate(31.107139,-73.17859)">
      <flowRoot
         style="font-style:normal;font-weight:normal;font-size:40px;line-height:125%;font-family:sans-serif;letter-spacing:0px;word-spacing:0px;fill:#252525;fill-opacity:1;stroke:none;stroke-width:1px;stroke-linecap:butt;stroke-linejoin:miter;stroke-opacity:1"
         id="flowRoot4169"
         xml:space="preserve"
         transform="matrix(1,0,0,0.99960765,521.65141,-414.34834)"><flowRegion
           id="flowRegion4171"><rect
             y="427.07962"
             x="89.541069"
             height="88.78862"
             width="56.433445"
             id="rect4173" /></flowRegion><flowPara
           id="flowPara4175" /></flowRoot>      <flowRoot
         style="font-style:normal;font-weight:normal;font-size:40px;line-height:125%;font-family:sans-serif;letter-spacing:0px;word-spacing:0px;fill:#252525;fill-opacity:1;stroke:none;stroke-width:1px;stroke-linecap:butt;stroke-linejoin:miter;stroke-opacity:1"
         id="flowRoot4169-9"
         xml:space="preserve"
         transform="matrix(1,0,0,0.99960765,1082.858,-356.34752)"><flowRegion
           id="flowRegion4171-9"><rect
             y="427.07962"
             x="89.541069"
             height="88.78862"
             width="56.433445"
             id="rect4173-6" /></flowRegion><flowPara
           id="flowPara4175-7" /></flowRoot>      <flowRoot
         style="font-style:normal;font-weight:normal;font-size:40px;line-height:125%;font-family:sans-serif;letter-spacing:0px;word-spacing:0px;fill:#252525;fill-opacity:1;stroke:none;stroke-width:1px;stroke-linecap:butt;stroke-linejoin:miter;stroke-opacity:1"
         id="flowRoot4169-1"
         xml:space="preserve"
         transform="matrix(1,0,0,0.99960765,-31.14487,73.221475)"><flowRegion
           id="flowRegion4171-8"><rect
             y="427.07962"
             x="89.541069"
             height="88.78862"
             width="56.433445"
             id="rect4173-8" /></flowRegion><flowPara
           id="flowPara4175-6" /></flowRoot>      <rect
         inkscape:export-ydpi="4.9499998"
         inkscape:export-xdpi="4.9499998"
         y="395.36508"
         x="158"
         height="399.84305"
         width="400"
         id="rect3336"
         style="fill:none;fill-rule:evenodd;stroke:none;stroke-width:1px;stroke-linecap:butt;stroke-linejoin:miter;stroke-opacity:1" />
      <path
         id="rect4171-8"
         d="m 184.01685,559.07484 c -4.34197,0 -7.83832,2.78581 -7.83832,6.24555 l 0,21.19288 0,75.35513 c 0,3.45974 3.49635,6.24365 7.83832,6.24365 l 119.12321,0 109.71921,0 119.12323,0 c 4.34196,0 7.83831,-2.78391 7.83831,-6.24365 l 0,-75.35513 0,-21.19288 c 0,-3.45974 -3.49635,-6.24555 -7.83831,-6.24555 l -26.49933,0 -0.20093,0 -71.58123,0 -151.40268,0 -71.58124,0 -0.20091,0 -26.49933,0 z"
         style="opacity:1;fill:url(#linearGradient4319);fill-opacity:1;stroke:none;stroke-width:23;stroke-linecap:butt;stroke-linejoin:round;stroke-miterlimit:4;stroke-dasharray:none;stroke-opacity:1"
         inkscape:connector-curvature="0" />
      <path
         id="rect4171"
         d="m 183.99918,686.19417 c -1.89529,0 -3.6277,0.53289 -4.9786,1.42324 -0.19345,0.12755 -0.3796,0.2625 -0.5567,0.40414 -0.70683,0.56498 -1.27781,1.23712 -1.67255,1.98552 -0.0986,0.18713 -0.18531,0.37805 -0.26126,0.57398 -0.0763,0.19662 -0.14081,0.39694 -0.19289,0.60136 -0.0519,0.20392 -0.0906,0.41014 -0.11714,0.62086 -0.0268,0.21131 -0.0415,0.42513 -0.0415,0.64234 l 0,85.00947 0,11.6557 c 0,3.4638 3.48862,6.2514 7.82071,6.2514 l 145.13118,0 57.73848,0 145.13119,0 c 4.33208,0 7.82071,-2.7876 7.82071,-6.2514 l 0,-11.6557 0,-85.00947 c 0,-0.21581 -0.0125,-0.43033 -0.0393,-0.64034 -7e-5,-7e-4 10e-5,-10e-4 0,0 -0.0531,-0.42084 -0.15854,-0.82878 -0.31008,-1.22022 -2.2e-4,-6e-4 2.2e-4,-10e-4 0,0 -0.37959,-0.97962 -1.05334,-1.85358 -1.93626,-2.5596 -0.17709,-0.14164 -0.36082,-0.27659 -0.55426,-0.40414 -1.35089,-0.89025 -3.08575,-1.42324 -4.98102,-1.42324 l -80.21905,0 -53.19697,0 -81.16886,0 -53.19696,0 -80.21902,0 z"
         style="opacity:1;fill:url(#linearGradient4317);fill-opacity:1;stroke:none;stroke-width:23;stroke-linecap:butt;stroke-linejoin:round;stroke-miterlimit:4;stroke-dasharray:none;stroke-opacity:1"
         inkscape:connector-curvature="0" />
      <path
         id="rect4232"
         d="m 293.76393,577.24775 c -4.71089,0 -8.5039,3.24066 -8.5039,7.26548 l 0,39.83343 c 0,4.02482 3.79301,7.26549 8.5039,7.26549 l 0.28516,0 128.1491,0.0199 0.28515,0 c 4.71089,0 8.50391,-3.24066 8.50391,-7.26548 l 0,-39.83343 c 0,-4.02482 -3.79842,-7.49026 -8.50391,-7.26549 l -9.94336,0 0,36.2436 -63.50652,0.0678 -45.32617,-0.0877 0,-36.24359 z"
         style="color:#000000;clip-rule:nonzero;display:inline;overflow:visible;visibility:visible;opacity:1;isolation:auto;mix-blend-mode:normal;color-interpolation:sRGB;color-interpolation-filters:linearRGB;solid-color:#000000;solid-opacity:1;fill:#ffffff;fill-opacity:1;fill-rule:evenodd;stroke:none;stroke-width:50;stroke-linecap:butt;stroke-linejoin:miter;stroke-miterlimit:4;stroke-dasharray:none;stroke-dashoffset:0;stroke-opacity:1;color-rendering:auto;image-rendering:auto;shape-rendering:auto;text-rendering:auto;enable-background:accumulate"
         inkscape:connector-curvature="0"
         sodipodi:nodetypes="ssssccsssscccccs" />
      <path
         sodipodi:nodetypes="cccccccccc"
         inkscape:connector-curvature="0"
         id="rect4239"
         d="m 379.79437,395.36497 -130.89583,0.0195 0,145.53863 196.51838,0 21.63617,-0.01 0.005,-12.31217 4.5e-4,-42.33876 -90.90001,0 0,-90.89995 z"
         style="color:#000000;clip-rule:nonzero;display:inline;overflow:visible;visibility:visible;opacity:1;isolation:auto;mix-blend-mode:normal;color-interpolation:sRGB;color-interpolation-filters:linearRGB;solid-color:#000000;solid-opacity:1;fill:#4e505d;fill-opacity:1;fill-rule:nonzero;stroke:none;stroke-width:1px;stroke-linecap:butt;stroke-linejoin:miter;stroke-miterlimit:4;stroke-dasharray:none;stroke-dashoffset:0;stroke-opacity:1;color-rendering:auto;image-rendering:auto;shape-rendering:auto;text-rendering:auto;enable-background:accumulate" />
      <path
         sodipodi:nodetypes="cccc"
         inkscape:connector-curvature="0"
         id="path4270"
         d="m 394.35998,395.38513 -0.0214,72.69705 72.72001,0 z"
         style="fill:#4e505d;fill-rule:evenodd;stroke:none;stroke-width:1px;stroke-linecap:butt;stroke-linejoin:miter;stroke-opacity:1" />
      <path
         id="path4257"
         d="m 293.76393,704.45471 c -4.71089,0 -8.5039,3.23222 -8.5039,7.24668 l 0,0.14376 0,39.58703 0,0.1437 c 0,4.0144 3.79301,7.2467 8.5039,7.2467 l 63.41602,0 c -7.4e-4,-0.048 -0.001,-0.096 -0.002,-0.1436 l 65.02024,0.2959 0.28515,0 c 4.71089,0 8.50391,-3.2323 8.50391,-7.2468 l 0,-39.73082 c 0,-4.01445 -3.84392,-7.93337 -8.50391,-7.24667 l -9.94336,0 0,36.15017 -63.50657,-0.20838 -45.32617,-0.0875 0,-36.00651 0,-0.14366 -9.94336,0 z"
         style="color:#000000;clip-rule:nonzero;display:inline;overflow:visible;visibility:visible;opacity:1;isolation:auto;mix-blend-mode:normal;color-interpolation:sRGB;color-interpolation-filters:linearRGB;solid-color:#000000;solid-opacity:1;fill:#ffffff;fill-opacity:1;fill-rule:evenodd;stroke:none;stroke-width:50;stroke-linecap:butt;stroke-linejoin:miter;stroke-miterlimit:4;stroke-dasharray:none;stroke-dashoffset:0;stroke-opacity:1;color-rendering:auto;image-rendering:auto;shape-rendering:auto;text-rendering:auto;enable-background:accumulate"
         inkscape:connector-curvature="0"
         sodipodi:nodetypes="csccsscccsssscccccccc" />
    </g>
  </g>
</svg>
