<?xml version="1.0" encoding="UTF-8" standalone="no"?>
<!-- Created with Inkscape (http://www.inkscape.org/) -->

<svg
   xmlns:dc="http://purl.org/dc/elements/1.1/"
   xmlns:cc="http://creativecommons.org/ns#"
   xmlns:rdf="http://www.w3.org/1999/02/22-rdf-syntax-ns#"
   xmlns:svg="http://www.w3.org/2000/svg"
   xmlns="http://www.w3.org/2000/svg"
   xmlns:xlink="http://www.w3.org/1999/xlink"
   xmlns:sodipodi="http://sodipodi.sourceforge.net/DTD/sodipodi-0.dtd"
   xmlns:inkscape="http://www.inkscape.org/namespaces/inkscape"
   width="210mm"
   height="297mm"
   viewBox="0 0 744.09448819 1052.3622047"
   id="svg2"
   version="1.1"
   inkscape:version="0.91 r13725"
   inkscape:export-xdpi="4.9499998"
   inkscape:export-ydpi="4.9499998"
   sodipodi:docname="affiliation-tap-drop.svg"
   inkscape:export-filename="D:\Dokumente\Arbeit\RRZE\github\bicons\22x22\emblems\affiliation-tap-drop.png">
  <title
     id="title4203">affiliation tap drop</title>
  <defs
     id="defs4">
    <linearGradient
       id="linearGradient2224">
      <stop
         id="stop2226"
         offset="0"
         style="stop-color:#7c7c7c;stop-opacity:1;" />
      <stop
         id="stop2228"
         offset="1"
         style="stop-color:#b8b8b8;stop-opacity:1;" />
    </linearGradient>
    <linearGradient
       id="linearGradient15218">
      <stop
         id="stop15220"
         offset="0"
         style="stop-color:#eeeeef;stop-opacity:1;" />
      <stop
         id="stop2736"
         offset="0.59928656"
         style="stop-color:#d3d7cf;stop-opacity:1;" />
      <stop
         id="stop2738"
         offset="0.82758623"
         style="stop-color:#ffffff;stop-opacity:1;" />
      <stop
         id="stop15222"
         offset="1"
         style="stop-color:#d3d7cf;stop-opacity:1;" />
    </linearGradient>
    <pattern
       y="0"
       x="0"
       height="6"
       width="6"
       patternUnits="userSpaceOnUse"
       id="EMFhbasepattern" />
    <pattern
       y="0"
       x="0"
       height="6"
       width="6"
       patternUnits="userSpaceOnUse"
       id="EMFhbasepattern-5" />
    <linearGradient
       inkscape:collect="always"
       xlink:href="#linearGradient4321"
       id="linearGradient4319"
       x1="280"
       y1="712.36218"
       x2="500"
       y2="472.36221"
       gradientUnits="userSpaceOnUse"
       gradientTransform="matrix(1.3454073,0,0,0.89923126,-134.00606,69.675378)" />
    <linearGradient
       id="linearGradient4321"
       inkscape:collect="always">
      <stop
         id="stop4323"
         offset="0"
         style="stop-color:#4e505d;stop-opacity:1;" />
      <stop
         id="stop4325"
         offset="1"
         style="stop-color:#7a8597;stop-opacity:1" />
    </linearGradient>
    <linearGradient
       inkscape:collect="always"
       xlink:href="#linearGradient4321"
       id="linearGradient4317"
       x1="280"
       y1="692.36218"
       x2="500"
       y2="472.36221"
       gradientUnits="userSpaceOnUse"
       gradientTransform="matrix(1.3377068,0,0,0.90032312,-132.05215,78.795408)" />
  </defs>
  <sodipodi:namedview
     id="base"
     pagecolor="#ffffff"
     bordercolor="#666666"
     borderopacity="1.0"
     inkscape:pageopacity="0.0"
     inkscape:pageshadow="2"
     inkscape:zoom="1"
     inkscape:cx="292.59"
     inkscape:cy="566.85402"
     inkscape:document-units="px"
     inkscape:current-layer="layer1"
     showgrid="false"
     showguides="true"
     inkscape:guide-bbox="true"
     inkscape:window-width="1600"
     inkscape:window-height="837"
     inkscape:window-x="-4"
     inkscape:window-y="-4"
     inkscape:window-maximized="1"
     inkscape:snap-bbox="true"
     inkscape:bbox-paths="true"
     inkscape:bbox-nodes="true">
    <sodipodi:guide
       position="315.53572,730.17859"
       orientation="0,1"
       id="guide3338" />
    <sodipodi:guide
       position="351.25,330.17858"
       orientation="0,1"
       id="guide3340" />
    <sodipodi:guide
       position="189.10714,408.8393"
       orientation="1,0"
       id="guide3344" />
    <sodipodi:guide
       position="589.04521,468.07945"
       orientation="1,0"
       id="guide3346" />
    <inkscape:grid
       type="xygrid"
       id="grid3440" />
    <sodipodi:guide
       position="0,0"
       orientation="0,1"
       id="guide3405" />
    <sodipodi:guide
       position="0,0"
       orientation="0,1"
       id="guide3409" />
    <sodipodi:guide
       position="589.04521,378.30213"
       orientation="1,0"
       id="guide3411" />
  </sodipodi:namedview>
  <metadata
     id="metadata7">
    <rdf:RDF>
      <cc:Work
         rdf:about="">
        <dc:format>image/svg+xml</dc:format>
        <dc:type
           rdf:resource="http://purl.org/dc/dcmitype/StillImage" />
        <dc:title>affiliation tap drop</dc:title>
        <dc:date>June 2015</dc:date>
        <dc:creator>
          <cc:Agent>
            <dc:title>Johannes Hechler</dc:title>
          </cc:Agent>
        </dc:creator>
        <dc:rights>
          <cc:Agent>
            <dc:title>Johannes Hechler</dc:title>
          </cc:Agent>
        </dc:rights>
        <dc:publisher>
          <cc:Agent>
            <dc:title>RRZE</dc:title>
          </cc:Agent>
        </dc:publisher>
        <dc:contributor>
          <cc:Agent>
            <dc:title>Ute Weber, Hendrik Eggers</dc:title>
          </cc:Agent>
        </dc:contributor>
        <dc:subject>
          <rdf:Bag>
            <rdf:li>affiliation</rdf:li>
            <rdf:li>tap</rdf:li>
            <rdf:li>drop</rdf:li>
            <rdf:li>water</rdf:li>
            <rdf:li>icon</rdf:li>
          </rdf:Bag>
        </dc:subject>
      </cc:Work>
    </rdf:RDF>
  </metadata>
  <g
     inkscape:label="Ebene 1"
     inkscape:groupmode="layer"
     id="layer1">
    <g
       id="g4285">
      <flowRoot
         style="font-style:normal;font-weight:normal;font-size:40px;line-height:125%;font-family:sans-serif;letter-spacing:0px;word-spacing:0px;fill:#252525;fill-opacity:1;stroke:none;stroke-width:1px;stroke-linecap:butt;stroke-linejoin:miter;stroke-opacity:1"
         id="flowRoot4169"
         xml:space="preserve"
         transform="matrix(1,0,0,0.99960765,552.75854,-487.52979)"><flowRegion
           id="flowRegion4171"><rect
             y="427.07962"
             x="89.541069"
             height="88.78862"
             width="56.433445"
             id="rect4173" /></flowRegion><flowPara
           id="flowPara4175" /></flowRoot>      <flowRoot
         style="font-style:normal;font-weight:normal;font-size:40px;line-height:125%;font-family:sans-serif;letter-spacing:0px;word-spacing:0px;fill:#252525;fill-opacity:1;stroke:none;stroke-width:1px;stroke-linecap:butt;stroke-linejoin:miter;stroke-opacity:1"
         id="flowRoot4169-9"
         xml:space="preserve"
         transform="matrix(1,0,0,0.99960765,1113.9651,-429.52897)"><flowRegion
           id="flowRegion4171-9"><rect
             y="427.07962"
             x="89.541069"
             height="88.78862"
             width="56.433445"
             id="rect4173-6" /></flowRegion><flowPara
           id="flowPara4175-7" /></flowRoot>      <flowRoot
         style="font-style:normal;font-weight:normal;font-size:40px;line-height:125%;font-family:sans-serif;letter-spacing:0px;word-spacing:0px;fill:#252525;fill-opacity:1;stroke:none;stroke-width:1px;stroke-linecap:butt;stroke-linejoin:miter;stroke-opacity:1"
         id="flowRoot4169-1"
         xml:space="preserve"
         transform="matrix(1,0,0,0.99960765,-0.03773147,0.04001826)"><flowRegion
           id="flowRegion4171-8"><rect
             y="427.07962"
             x="89.541069"
             height="88.78862"
             width="56.433445"
             id="rect4173-8" /></flowRegion><flowPara
           id="flowPara4175-6" /></flowRoot>      <rect
         inkscape:export-ydpi="4.9499998"
         inkscape:export-xdpi="4.9499998"
         y="322.18362"
         x="189.10713"
         height="399.84305"
         width="400"
         id="rect3336"
         style="fill:none;fill-rule:evenodd;stroke:none;stroke-width:1px;stroke-linecap:butt;stroke-linejoin:miter;stroke-opacity:1" />
      <path
         id="rect4171-8"
         d="M 215.12305 485.89258 C 210.78108 485.89258 207.28516 488.67893 207.28516 492.13867 L 207.28516 513.33203 L 207.28516 588.6875 C 207.28516 592.14724 210.78108 594.92969 215.12305 594.92969 L 334.24805 594.92969 L 335.51562 594.92969 C 338.13396 567.79372 346.90966 546.21229 363.21289 531.23242 C 382.16086 513.8225 408.0056 507.32352 438.31641 505.30859 A 18.0018 18.0018 0 0 1 443.5625 504.52344 L 443.74219 504.52344 L 443.74219 504.16211 L 425.38281 504.16211 C 412.13245 504.16211 400.37071 496.74023 394.06836 485.89258 L 313.40625 485.89258 L 241.82422 485.89258 L 241.62305 485.89258 L 215.12305 485.89258 z M 479.72852 485.89258 A 18.0018 18.0018 0 0 1 479.74219 486.16211 L 479.74219 522.52344 A 18.0018 18.0018 0 0 1 461.74219 540.52344 L 447.46875 540.52344 A 18.0018 18.0018 0 0 1 444.49609 540.94922 C 416.1108 542.4237 398.0221 548.13684 387.57031 557.74023 C 379.50041 565.1551 373.86597 576.2807 371.69336 594.92969 L 391.06055 594.92969 C 391.81161 591.54076 392.76303 588.2442 394.16406 585.0918 C 397.94376 576.58726 405.02415 569.39024 412.78906 565.50781 C 428.31888 557.74296 443.56229 559.0625 461.74219 559.0625 L 570.92773 559.0625 L 570.92773 540.52344 L 498.10352 540.52344 A 18.0018 18.0018 0 0 1 480.10352 522.52344 L 480.10352 486.16211 A 18.0018 18.0018 0 0 1 480.11328 485.89258 L 479.72852 485.89258 z M 565.58398 486.2207 C 559.23628 496.88939 547.57912 504.16211 534.46289 504.16211 L 516.10352 504.16211 L 516.10352 504.52344 L 570.92773 504.52344 L 570.92773 492.13867 C 570.92773 489.37518 568.69456 487.04799 565.58398 486.2207 z "
         style="opacity:1;fill:url(#linearGradient4319);fill-opacity:1;stroke:none;stroke-width:23;stroke-linecap:butt;stroke-linejoin:round;stroke-miterlimit:4;stroke-dasharray:none;stroke-opacity:1" />
      <path
         id="rect4171"
         d="M 215.10547 613.01367 C 213.21018 613.01367 211.47785 613.5452 210.12695 614.43555 C 209.9335 614.5631 209.74741 614.6982 209.57031 614.83984 C 208.86348 615.40482 208.29318 616.07777 207.89844 616.82617 C 207.79984 617.0133 207.71267 617.20446 207.63672 617.40039 C 207.56042 617.59701 207.49544 617.79558 207.44336 618 C 207.39146 618.20392 207.35467 618.41037 207.32812 618.62109 C 207.30132 618.8324 207.28516 619.04646 207.28516 619.26367 L 207.28516 704.27344 L 207.28516 715.92969 C 207.28516 719.39349 210.77338 722.18164 215.10547 722.18164 L 343.85938 722.18164 C 338.10363 714.63313 334.6617 705.25923 334.66211 695.13867 A 18.0018 18.0018 0 0 1 334.66211 695.12305 C 334.67117 684.70312 338.50281 674.78348 345.04883 666.80273 L 359.91797 631.42188 L 352.66211 631.42188 A 18.0018 18.0018 0 0 1 334.66211 613.42188 C 334.66211 613.2862 334.66577 613.15303 334.66602 613.01758 L 295.32617 613.01758 L 215.10742 613.01758 L 215.10547 613.01367 z M 425.21094 613.01758 C 425.21018 613.15756 425.20313 613.27966 425.20312 613.42188 A 18.0018 18.0018 0 0 1 407.20312 631.42188 L 398.93945 631.42188 L 414.09375 665.99414 C 420.84586 673.82658 424.84086 683.67232 425.09961 694.0918 L 425.16797 694.01758 L 425.16992 694.05078 A 18.0018 18.0018 0 0 1 425.19922 695.04102 A 18.0018 18.0018 0 0 1 425.20117 695.05078 A 18.0018 18.0018 0 0 1 425.20312 695.13867 C 425.2036 705.25945 421.76173 714.63306 416.00586 722.18164 L 417.97656 722.18164 L 563.10742 722.18164 C 567.43952 722.18164 570.92773 719.39349 570.92773 715.92969 L 570.92773 704.27344 L 570.92773 619.26367 C 570.92773 619.04786 570.91467 618.83306 570.88867 618.62305 C 570.83567 618.20221 570.72973 617.79574 570.57812 617.4043 C 570.19853 616.42468 569.52548 615.54977 568.64258 614.84375 C 568.46548 614.70211 568.28129 614.567 568.08789 614.43945 C 566.73699 613.5492 565.00262 613.01758 563.10742 613.01758 L 482.88867 613.01758 L 429.69141 613.01758 L 425.21094 613.01758 z M 397.35156 631.42188 A 18.0018 18.0018 0 0 1 397.36719 631.77734 L 397.37109 631.42188 L 397.35156 631.42188 z M 379.71289 677.23438 L 377.31445 682.94336 A 18.0018 18.0018 0 0 1 373.34766 688.79688 C 371.607 690.51037 370.66806 692.77511 370.66406 695.14648 C 370.66808 700.26908 374.52236 704.18384 379.93359 704.18359 C 385.34153 704.18346 389.19122 700.27243 389.19922 695.1543 C 389.19002 692.70135 388.18237 690.36862 386.33008 688.64453 A 18.0018 18.0018 0 0 1 382.10742 682.69531 L 379.71289 677.23438 z M 389.20703 695.27539 L 389.21289 695.45312 A 18.0018 18.0018 0 0 1 389.21289 695.39844 A 18.0018 18.0018 0 0 1 389.20703 695.27539 z "
         style="opacity:1;fill:url(#linearGradient4317);fill-opacity:1;stroke:none;stroke-width:23;stroke-linecap:butt;stroke-linejoin:round;stroke-miterlimit:4;stroke-dasharray:none;stroke-opacity:1" />
      <path
         id="rect4232"
         d="m 324.87109,504.06641 c -4.71089,0 -8.5039,3.2408 -8.5039,7.26562 l 0,39.83399 c 0,4.02482 3.79301,7.26562 8.5039,7.26562 l 0.15039,0 c 2.59295,-7.35733 5.83565,-14.28648 9.79297,-20.71289 l 0,-33.65234 z"
         style="color:#000000;clip-rule:nonzero;display:inline;overflow:visible;visibility:visible;opacity:1;isolation:auto;mix-blend-mode:normal;color-interpolation:sRGB;color-interpolation-filters:linearRGB;solid-color:#000000;solid-opacity:1;fill:#ffffff;fill-opacity:1;fill-rule:evenodd;stroke:none;stroke-width:50;stroke-linecap:butt;stroke-linejoin:miter;stroke-miterlimit:4;stroke-dasharray:none;stroke-dashoffset:0;stroke-opacity:1;color-rendering:auto;image-rendering:auto;shape-rendering:auto;text-rendering:auto;enable-background:accumulate"
         inkscape:connector-curvature="0"
         sodipodi:nodetypes="sssscccs" />
      <path
         id="rect4239"
         d="M 407.25977 322.18164 L 407.25977 322.18359 L 410.90234 322.18359 L 407.25977 322.18164 z M 407.25977 322.18359 L 280.00586 322.20312 L 280.00586 467.74219 L 389.20898 467.74219 C 389.34244 448.11761 405.73132 431.80273 425.38281 431.80273 L 498.16016 431.80273 L 498.16016 413.08008 L 407.25977 413.08008 L 407.25977 322.18359 z "
         style="color:#000000;clip-rule:nonzero;display:inline;overflow:visible;visibility:visible;opacity:1;isolation:auto;mix-blend-mode:normal;color-interpolation:sRGB;color-interpolation-filters:linearRGB;solid-color:#000000;solid-opacity:1;fill:#4e505d;fill-opacity:1;fill-rule:nonzero;stroke:none;stroke-width:1px;stroke-linecap:butt;stroke-linejoin:miter;stroke-miterlimit:4;stroke-dasharray:none;stroke-dashoffset:0;stroke-opacity:1;color-rendering:auto;image-rendering:auto;shape-rendering:auto;text-rendering:auto;enable-background:accumulate" />
      <path
         sodipodi:nodetypes="cccc"
         inkscape:connector-curvature="0"
         id="path4270"
         d="m 425.46714,322.20368 -0.021,72.69705 72.72,0 z"
         style="fill:#4e505d;fill-rule:evenodd;stroke:none;stroke-width:1px;stroke-linecap:butt;stroke-linejoin:miter;stroke-opacity:1" />
      <path
         inkscape:connector-curvature="0"
         id="rect4294"
         d="m 425.38309,449.80278 c -10.07171,0 -18.17968,8.10797 -18.17968,18.17968 0,10.07172 8.10797,18.17969 18.17968,18.17969 l 36.35938,0 0,36.36133 -18.17969,0 0,0.44922 c -60.58764,3.14724 -90.90038,24.07204 -90.90038,90.44922 l 54.54101,0 c 0,-36.35999 18.17906,-36.35938 54.53906,-36.35938 l 127.30274,0 0,-54.53906 -90.94141,0 0,-36.36133 36.35937,0 c 10.07173,0 18.17969,-8.10797 18.17969,-18.17969 0,-10.07171 -8.10797,-18.17968 -18.17969,-18.17968 l -109.08008,0 z m -46.01562,181.79882 -18.64649,44.36723 a 27.270218,27.043655 0 0 0 -8.05858,19.1699 27.270218,27.043655 0 0 0 27.27147,27.0449 27.270218,27.043655 0 0 0 27.26954,-27.0449 27.270218,27.043655 0 0 0 -0.002,-0.033 l 0.002,0 -0.002,0 a 27.270218,27.043655 0 0 0 -8.60742,-19.6367 l -19.22656,-43.86332 z"
         style="color:#000000;clip-rule:nonzero;display:inline;overflow:visible;visibility:visible;opacity:1;isolation:auto;mix-blend-mode:normal;color-interpolation:sRGB;color-interpolation-filters:linearRGB;solid-color:#000000;solid-opacity:1;fill:#99b000;fill-opacity:1;fill-rule:nonzero;stroke:none;stroke-width:36;stroke-linecap:butt;stroke-linejoin:round;stroke-miterlimit:4;stroke-dasharray:none;stroke-dashoffset:0;stroke-opacity:1;color-rendering:auto;image-rendering:auto;shape-rendering:auto;text-rendering:auto;enable-background:accumulate" />
    </g>
  </g>
</svg>
