<?xml version="1.0" encoding="UTF-8" standalone="no"?>
<!-- Created with Inkscape (http://www.inkscape.org/) -->

<svg
   xmlns:dc="http://purl.org/dc/elements/1.1/"
   xmlns:cc="http://creativecommons.org/ns#"
   xmlns:rdf="http://www.w3.org/1999/02/22-rdf-syntax-ns#"
   xmlns:svg="http://www.w3.org/2000/svg"
   xmlns="http://www.w3.org/2000/svg"
   xmlns:xlink="http://www.w3.org/1999/xlink"
   xmlns:sodipodi="http://sodipodi.sourceforge.net/DTD/sodipodi-0.dtd"
   xmlns:inkscape="http://www.inkscape.org/namespaces/inkscape"
   width="210mm"
   height="297mm"
   viewBox="0 0 744.09448819 1052.3622047"
   id="svg2"
   version="1.1"
   inkscape:version="0.91 r13725"
   inkscape:export-xdpi="4.9499807"
   inkscape:export-ydpi="4.9499807"
   sodipodi:docname="attribute-linkage.svg"
   inkscape:export-filename="C:\Users\johannes\Documents\Arbeit\RRZE\github3\bicons\22x22\emblems\attribute-linkage.png">
  <defs
     id="defs4">
    <linearGradient
       id="linearGradient2224">
      <stop
         style="stop-color:#7c7c7c;stop-opacity:1;"
         offset="0"
         id="stop4233" />
      <stop
         style="stop-color:#b8b8b8;stop-opacity:1;"
         offset="1"
         id="stop4235" />
    </linearGradient>
    <linearGradient
       id="linearGradient4237">
      <stop
         id="stop2226"
         offset="0"
         style="stop-color:#7c7c7c;stop-opacity:1;" />
      <stop
         id="stop2228"
         offset="1"
         style="stop-color:#b8b8b8;stop-opacity:1;" />
    </linearGradient>
    <linearGradient
       id="linearGradient15218">
      <stop
         id="stop15220"
         offset="0"
         style="stop-color:#eeeeef;stop-opacity:1;" />
      <stop
         id="stop2736"
         offset="0.59928656"
         style="stop-color:#d3d7cf;stop-opacity:1;" />
      <stop
         id="stop2738"
         offset="0.82758623"
         style="stop-color:#ffffff;stop-opacity:1;" />
      <stop
         id="stop15222"
         offset="1"
         style="stop-color:#d3d7cf;stop-opacity:1;" />
    </linearGradient>
    <pattern
       y="0"
       x="0"
       height="6"
       width="6"
       patternUnits="userSpaceOnUse"
       id="EMFhbasepattern" />
    <pattern
       y="0"
       x="0"
       height="6"
       width="6"
       patternUnits="userSpaceOnUse"
       id="EMFhbasepattern-5" />
    <linearGradient
       inkscape:collect="always"
       xlink:href="#linearGradient4321"
       id="linearGradient4347"
       gradientUnits="userSpaceOnUse"
       gradientTransform="matrix(0.95421775,0,0,0.94768467,207.93555,-36.187374)"
       x1="300"
       y1="632.36218"
       x2="470"
       y2="452.36221" />
    <linearGradient
       id="linearGradient4321"
       inkscape:collect="always">
      <stop
         id="stop4323"
         offset="0"
         style="stop-color:#4e505d;stop-opacity:1;" />
      <stop
         id="stop4325"
         offset="1"
         style="stop-color:#7a8597;stop-opacity:1" />
    </linearGradient>
  </defs>
  <sodipodi:namedview
     id="base"
     pagecolor="#ffffff"
     bordercolor="#666666"
     borderopacity="1.0"
     inkscape:pageopacity="0.0"
     inkscape:pageshadow="2"
     inkscape:zoom="0.72645549"
     inkscape:cx="386.92828"
     inkscape:cy="566.12059"
     inkscape:document-units="px"
     inkscape:current-layer="layer1"
     showgrid="false"
     showguides="true"
     inkscape:guide-bbox="true"
     inkscape:window-width="1366"
     inkscape:window-height="721"
     inkscape:window-x="-4"
     inkscape:window-y="-4"
     inkscape:window-maximized="1"
     inkscape:snap-bbox="true"
     inkscape:bbox-paths="true"
     inkscape:snap-bbox-edge-midpoints="false"
     inkscape:bbox-nodes="true">
    <sodipodi:guide
       position="315.53572,730.17859"
       orientation="0,1"
       id="guide3338" />
    <sodipodi:guide
       position="351.25,330.17858"
       orientation="0,1"
       id="guide3340" />
    <sodipodi:guide
       position="189.10714,408.8393"
       orientation="1,0"
       id="guide3344" />
    <inkscape:grid
       type="xygrid"
       id="grid3440" />
    <sodipodi:guide
       position="589.04521,378.30213"
       orientation="1,0"
       id="guide3411" />
  </sodipodi:namedview>
  <metadata
     id="metadata7">
    <rdf:RDF>
      <cc:Work
         rdf:about="">
        <dc:format>image/svg+xml</dc:format>
        <dc:type
           rdf:resource="http://purl.org/dc/dcmitype/StillImage" />
        <dc:title>attribute linkage</dc:title>
        <dc:date>June 2015</dc:date>
        <dc:creator>
          <cc:Agent>
            <dc:title>Johannes Hechler</dc:title>
          </cc:Agent>
        </dc:creator>
        <dc:rights>
          <cc:Agent>
            <dc:title>Johannes Hechler</dc:title>
          </cc:Agent>
        </dc:rights>
        <dc:publisher>
          <cc:Agent>
            <dc:title>RRZE</dc:title>
          </cc:Agent>
        </dc:publisher>
        <dc:contributor>
          <cc:Agent>
            <dc:title>Ute Weber, Hendrik Eggers</dc:title>
          </cc:Agent>
        </dc:contributor>
      </cc:Work>
    </rdf:RDF>
  </metadata>
  <g
     inkscape:label="Ebene 1"
     inkscape:groupmode="layer"
     id="layer1">
    <g
       id="g4209"
       transform="translate(-189.04174,63.11311)">
      <path
         sodipodi:nodetypes="cssccsccccccscccssscscscccccccc"
         inkscape:connector-curvature="0"
         id="path4281"
         d="m 413.5981,277.25413 c -4.43526,-0.097 -8.33079,1.5913 -11.29493,4.2832 -3.81105,3.461 -6.07874,8.67697 -5.9707,14.35547 l 2.66016,139.78516 c 0.0722,4.5632 6.16629,10.58687 10.43554,14.85547 l 185.17774,183.91016 c 2.7772,2.7582 6.08812,4.6498 9.5957,5.67383 l -15.74804,-15.78321 -0.0117,-0.0117 C 569.77856,605.65095 562.22095,579.8943 565.61374,555.41822 541.146,558.82323 515.39829,551.2901 496.71726,532.67603 l -0.0312,-0.0312 -35.85157,-35.85156 c -31.5783,-31.57831 -31.57854,-83.52749 0,-115.10547 l 0.0176,-0.0176 39.93555,-39.85743 c 15.78919,-15.7891 36.6708,-23.68161 57.55274,-23.68164 20.88193,-3e-5 41.76362,7.89226 57.55273,23.68164 l 35.77344,35.77344 c 18.68199,18.68232 26.24084,44.46206 22.83398,68.95508 24.48843,-3.41369 50.26435,4.14358 68.9336,22.8125 l 17.64843,17.64844 c -0.81134,-4.27974 -2.88309,-8.37962 -6.21484,-11.72266 L 569.6899,289.47483 c -3.98592,-3.9586 -9.30068,-8.90288 -14.48829,-9.11718 z m 29.50586,18.34961 c 15.0612,2.5e-4 27.27036,12.21028 27.26953,27.27148 -2.5e-4,15.06045 -12.20909,27.26929 -27.26953,27.26954 -15.06121,8.3e-4 -27.27124,-12.20833 -27.27149,-27.26954 -8.3e-4,-15.06197 12.20952,-27.27231 27.27149,-27.27148 z"
         style="opacity:1;fill:url(#linearGradient4347);fill-opacity:1;stroke:none;stroke-width:23;stroke-linecap:butt;stroke-linejoin:round;stroke-miterlimit:4;stroke-dasharray:none;stroke-opacity:1" />
      <path
         sodipodi:nodetypes="cssccsscccscccsccsccsccscsssccccccccccccc"
         style="fill:#99b000;fill-opacity:1;fill-rule:evenodd;stroke:none;stroke-width:0.96060556;stroke-miterlimit:4;stroke-dasharray:none"
         d="m 518.46469,359.49095 c 22.08358,-22.08339 57.66733,-22.08368 79.75063,0 l 35.77291,35.77354 c 21.7711,21.77148 22.08358,56.57423 1.01443,78.73587 l -28.65767,-28.58067 c 6.39878,-10.8467 5.87862,-25.77628 -4.21382,-34.17886 l -23.89254,-19.89201 c -11.95821,-9.95595 -28.79449,-11.00267 -39.87531,0 l -27.91586,27.91567 c -11.00173,11.08048 -11.00173,28.87221 0,39.87501 L 530.34,483.03201 c 8.40273,10.09233 23.33212,10.69065 34.17883,4.29185 l 28.58069,28.57966 c -22.16163,21.06913 -56.96474,20.757 -78.7362,-0.93641 l -35.85095,-35.85096 c -22.08358,-22.08357 -22.08357,-57.66702 0,-79.7502 z m 51.69285,91.64547 c 6.6329,-6.63287 15.21661,-8.81782 22.78589,-1.17049 l 78.65712,78.8912 c 7.64732,7.64733 4.99418,15.37267 -1.63871,22.00556 -6.63288,6.63288 -14.67037,9.59817 -22.3177,1.95085 l -78.57908,-78.89123 c -7.64732,-7.6473 -5.54039,-16.15299 1.09248,-22.78589 z m 76.86234,34.95918 c 22.16161,-21.14718 56.96438,-20.8347 78.73587,0.93641 l 35.77354,35.77292 c 22.16172,22.16133 22.16142,57.66704 0,79.82865 l -39.875,39.87432 c -22.08317,22.0835 -57.66661,22.0835 -79.7502,0 l -35.77292,-35.85098 c -21.77145,-21.77146 -22.08358,-56.57457 -1.01445,-78.7362 l 28.57963,28.58069 c -6.32074,10.84671 -4.99416,20.89279 4.29188,30.25687 l 23.89252,23.81452 c 11.00279,11.0017 28.7945,11.0017 39.875,0 l 27.91567,-27.91588 c 11.00267,-11.08081 11.00267,-28.7945 0,-39.87531 L 707.77941,518.9671 c -9.28604,-9.36407 -23.33216,-10.69064 -34.17886,-4.29187 z"
         id="path4202"
         inkscape:connector-curvature="0" />
      <path
         id="rect4372"
         d="m 396.32888,259.07052 363.64146,0 c 10.07172,0 18.18,8.10828 18.18,18.18 l 0,363.63998 c 0,10.0717 -8.10828,18.18 -18.18,18.18 l -363.64146,0 c -10.07172,0 -18.18,-8.1083 -18.18,-18.18 l 0,-363.63998 c 0,-10.07172 8.10828,-18.18 18.18,-18.18 z"
         style="color:#000000;clip-rule:nonzero;display:inline;overflow:visible;visibility:visible;opacity:1;isolation:auto;mix-blend-mode:normal;color-interpolation:sRGB;color-interpolation-filters:linearRGB;solid-color:#000000;solid-opacity:1;fill:none;fill-opacity:1;fill-rule:nonzero;stroke:none;stroke-width:50;stroke-linecap:butt;stroke-linejoin:round;stroke-miterlimit:4;stroke-dasharray:none;stroke-dashoffset:0;stroke-opacity:1;color-rendering:auto;image-rendering:auto;shape-rendering:auto;text-rendering:auto;enable-background:accumulate"
         inkscape:connector-curvature="0" />
    </g>
  </g>
</svg>
