<?xml version="1.0" encoding="UTF-8" standalone="no"?>
<!-- Created with Inkscape (http://www.inkscape.org/) -->

<svg
   xmlns:dc="http://purl.org/dc/elements/1.1/"
   xmlns:cc="http://creativecommons.org/ns#"
   xmlns:rdf="http://www.w3.org/1999/02/22-rdf-syntax-ns#"
   xmlns:svg="http://www.w3.org/2000/svg"
   xmlns="http://www.w3.org/2000/svg"
   xmlns:xlink="http://www.w3.org/1999/xlink"
   xmlns:sodipodi="http://sodipodi.sourceforge.net/DTD/sodipodi-0.dtd"
   xmlns:inkscape="http://www.inkscape.org/namespaces/inkscape"
   width="210mm"
   height="297mm"
   viewBox="0 0 744.09448819 1052.3622047"
   id="svg2"
   version="1.1"
   inkscape:version="0.91 r13725"
   inkscape:export-xdpi="4.9499817"
   inkscape:export-ydpi="4.9499817"
   sodipodi:docname="attribute-derivate.svg"
   inkscape:export-filename="C:\Users\johannes\Documents\Arbeit\RRZE\github3\bicons\22x22\emblems\attribute-derivate.png">
  <defs
     id="defs4">
    <linearGradient
       id="linearGradient2224">
      <stop
         style="stop-color:#7c7c7c;stop-opacity:1;"
         offset="0"
         id="stop4233" />
      <stop
         style="stop-color:#b8b8b8;stop-opacity:1;"
         offset="1"
         id="stop4235" />
    </linearGradient>
    <linearGradient
       id="linearGradient4237">
      <stop
         id="stop2226"
         offset="0"
         style="stop-color:#7c7c7c;stop-opacity:1;" />
      <stop
         id="stop2228"
         offset="1"
         style="stop-color:#b8b8b8;stop-opacity:1;" />
    </linearGradient>
    <linearGradient
       id="linearGradient15218">
      <stop
         id="stop15220"
         offset="0"
         style="stop-color:#eeeeef;stop-opacity:1;" />
      <stop
         id="stop2736"
         offset="0.59928656"
         style="stop-color:#d3d7cf;stop-opacity:1;" />
      <stop
         id="stop2738"
         offset="0.82758623"
         style="stop-color:#ffffff;stop-opacity:1;" />
      <stop
         id="stop15222"
         offset="1"
         style="stop-color:#d3d7cf;stop-opacity:1;" />
    </linearGradient>
    <pattern
       y="0"
       x="0"
       height="6"
       width="6"
       patternUnits="userSpaceOnUse"
       id="EMFhbasepattern" />
    <pattern
       y="0"
       x="0"
       height="6"
       width="6"
       patternUnits="userSpaceOnUse"
       id="EMFhbasepattern-5" />
    <linearGradient
       inkscape:collect="always"
       xlink:href="#linearGradient4321"
       id="linearGradient4375"
       gradientUnits="userSpaceOnUse"
       gradientTransform="matrix(0.95421775,0,0,0.94768467,-50.551016,49.980882)"
       x1="300"
       y1="632.36218"
       x2="470"
       y2="452.36221" />
    <linearGradient
       id="linearGradient4321"
       inkscape:collect="always">
      <stop
         id="stop4323"
         offset="0"
         style="stop-color:#4e505d;stop-opacity:1;" />
      <stop
         id="stop4325"
         offset="1"
         style="stop-color:#7a8597;stop-opacity:1" />
    </linearGradient>
  </defs>
  <sodipodi:namedview
     id="base"
     pagecolor="#ffffff"
     bordercolor="#666666"
     borderopacity="1.0"
     inkscape:pageopacity="0.0"
     inkscape:pageshadow="2"
     inkscape:zoom="1.0273632"
     inkscape:cx="382.94268"
     inkscape:cy="494.15948"
     inkscape:document-units="px"
     inkscape:current-layer="layer1"
     showgrid="false"
     showguides="true"
     inkscape:guide-bbox="true"
     inkscape:window-width="1366"
     inkscape:window-height="721"
     inkscape:window-x="-4"
     inkscape:window-y="-4"
     inkscape:window-maximized="1"
     inkscape:snap-nodes="false"
     inkscape:snap-bbox="true"
     inkscape:bbox-paths="true"
     inkscape:bbox-nodes="true">
    <sodipodi:guide
       position="315.53572,730.17859"
       orientation="0,1"
       id="guide3338" />
    <sodipodi:guide
       position="351.25,330.17858"
       orientation="0,1"
       id="guide3340" />
    <sodipodi:guide
       position="189.10714,408.8393"
       orientation="1,0"
       id="guide3344" />
    <inkscape:grid
       type="xygrid"
       id="grid3440" />
    <sodipodi:guide
       position="0,0"
       orientation="0,1"
       id="guide3405" />
    <sodipodi:guide
       position="0,0"
       orientation="0,1"
       id="guide3409" />
    <sodipodi:guide
       position="589.04521,378.30213"
       orientation="1,0"
       id="guide3411" />
  </sodipodi:namedview>
  <metadata
     id="metadata7">
    <rdf:RDF>
      <cc:Work
         rdf:about="">
        <dc:format>image/svg+xml</dc:format>
        <dc:type
           rdf:resource="http://purl.org/dc/dcmitype/StillImage" />
        <dc:title>attribute derivate</dc:title>
        <dc:date>June 2015</dc:date>
        <dc:creator>
          <cc:Agent>
            <dc:title>Johannes Hechler</dc:title>
          </cc:Agent>
        </dc:creator>
        <dc:rights>
          <cc:Agent>
            <dc:title>Johannes Hechler</dc:title>
          </cc:Agent>
        </dc:rights>
        <dc:publisher>
          <cc:Agent>
            <dc:title>RRZE</dc:title>
          </cc:Agent>
        </dc:publisher>
        <dc:contributor>
          <cc:Agent>
            <dc:title>Ute Weber, Hendrik Eggers</dc:title>
          </cc:Agent>
        </dc:contributor>
      </cc:Work>
    </rdf:RDF>
  </metadata>
  <g
     inkscape:label="Ebene 1"
     inkscape:groupmode="layer"
     id="layer1">
    <g
       id="g4193"
       transform="translate(67.897229,-23.0551)">
      <path
         id="path4273"
         d="m 155.11226,363.42235 c -4.43526,-0.097 -8.33078,1.5913 -11.29492,4.2832 -3.81105,3.461 -6.07875,8.67697 -5.97071,14.35547 l 2.66016,139.78515 c 0.0722,4.5632 6.1663,10.58687 10.43555,14.85547 l 115.88671,115.09375 0,-57.15234 c 0,-17.22773 14.62654,-31.33591 31.79688,-31.06055 l -0.28907,-0.004 77.57227,0 0,-9.06836 c 0,-11.42932 9.25008,-23.05984 18.21875,-25.95117 2.24217,-0.72283 4.39485,-1.13057 6.49219,-1.28515 2.09733,-0.15457 4.13843,-0.0555 6.15625,0.24023 3.8477,0.56383 7.78534,1.32944 12.46484,5.57813 l 74.8125,62.34179 2.32813,-2.3125 c 8.83431,-8.7738 8.78893,-22.85513 0,-31.67383 L 311.20405,375.64305 c -3.98592,-3.9586 -9.30067,-8.90289 -14.48828,-9.11719 l -141.60351,-3.10351 z m 29.50586,18.34961 a 27.269978,27.269978 0 0 1 27.26953,27.27148 27.269978,27.269978 0 0 1 -27.26953,27.26953 27.269978,27.269978 0 0 1 -27.27149,-27.26953 27.269978,27.269978 0 0 1 27.27149,-27.27148 z m 227.29101,192.07031 0,7.73632 a 18.0018,18.0018 0 0 1 -18,18 l -91.08008,0 0,87.97071 3.31445,3.29101 87.76563,0 a 18.0018,18.0018 0 0 1 3.67773,0.40039 l 70.81055,-70.32617 -56.48828,-47.07226 z m -63.79688,152.99804 c 2.61474,0.46254 5.29349,0.4627 7.90821,0 l -7.90821,0 z"
         style="opacity:1;fill:url(#linearGradient4375);fill-opacity:1;stroke:none;stroke-width:23;stroke-linecap:butt;stroke-linejoin:round;stroke-miterlimit:4;stroke-dasharray:none;stroke-opacity:1"
         inkscape:connector-curvature="0" />
      <path
         sodipodi:nodetypes="sccscsssscsccs"
         inkscape:connector-curvature="0"
         id="path4237"
         d="m 521.21138,644.64813 c 0,1.95957 -1.35075,3.91912 -4.05226,6.53186 l -109.74169,91.44592 c -5.40301,5.2256 -13.50752,2.6128 -13.50752,-7.8382 l 0,-25.9491 -95.57249,0 c -7.48316,0 -13.50751,-5.8265 -13.50751,-13.0636 l 0,-101.13266 c 0,-7.23728 6.02531,-13.1837 13.50751,-13.06371 l 95.57249,0 0,-27.07015 c 0,-10.45096 10.80601,-10.45096 13.50752,-7.83822 l 109.74169,91.446 c 2.70151,2.61275 4.05226,4.57231 4.05226,6.53186 z"
         style="fill:#99b000;fill-opacity:1;fill-rule:evenodd;stroke:none;stroke-width:1px;stroke-linecap:butt;stroke-linejoin:miter;stroke-opacity:1" />
      <path
         id="rect4388"
         d="m 142.58001,345.23873 357.26126,0 c 11.83904,0 21.3701,9.53107 21.3701,21.3701 l 0,357.25978 c 0,11.8391 -9.53106,21.3701 -21.3701,21.3701 l -357.26126,0 c -11.83903,0 -21.3701,-9.531 -21.3701,-21.3701 l 0,-357.25978 c 0,-11.83903 9.53107,-21.3701 21.3701,-21.3701 z"
         style="color:#000000;clip-rule:nonzero;display:inline;overflow:visible;visibility:visible;opacity:1;isolation:auto;mix-blend-mode:normal;color-interpolation:sRGB;color-interpolation-filters:linearRGB;solid-color:#000000;solid-opacity:1;fill:none;fill-opacity:1;fill-rule:nonzero;stroke:none;stroke-width:36;stroke-linecap:butt;stroke-linejoin:round;stroke-miterlimit:4;stroke-dasharray:none;stroke-dashoffset:0;stroke-opacity:1;color-rendering:auto;image-rendering:auto;shape-rendering:auto;text-rendering:auto;enable-background:accumulate"
         inkscape:connector-curvature="0" />
    </g>
  </g>
</svg>
