<?xml version="1.0" encoding="UTF-8" standalone="no"?>
<!-- Created with Inkscape (http://www.inkscape.org/) -->

<svg
   xmlns:dc="http://purl.org/dc/elements/1.1/"
   xmlns:cc="http://creativecommons.org/ns#"
   xmlns:rdf="http://www.w3.org/1999/02/22-rdf-syntax-ns#"
   xmlns:svg="http://www.w3.org/2000/svg"
   xmlns="http://www.w3.org/2000/svg"
   xmlns:xlink="http://www.w3.org/1999/xlink"
   xmlns:sodipodi="http://sodipodi.sourceforge.net/DTD/sodipodi-0.dtd"
   xmlns:inkscape="http://www.inkscape.org/namespaces/inkscape"
   width="210mm"
   height="297mm"
   viewBox="0 0 744.09448819 1052.3622047"
   id="svg2"
   version="1.1"
   inkscape:version="0.91 r13725"
   inkscape:export-xdpi="4.949976"
   inkscape:export-ydpi="4.949976"
   sodipodi:docname="attribute-authorization.svg"
   inkscape:export-filename="C:\Users\johannes\Documents\Arbeit\RRZE\github3\bicons\22x22\emblems\attribute-authorization.png">
  <defs
     id="defs4">
    <linearGradient
       id="linearGradient2224">
      <stop
         style="stop-color:#7c7c7c;stop-opacity:1;"
         offset="0"
         id="stop4233" />
      <stop
         style="stop-color:#b8b8b8;stop-opacity:1;"
         offset="1"
         id="stop4235" />
    </linearGradient>
    <linearGradient
       id="linearGradient4237">
      <stop
         id="stop2226"
         offset="0"
         style="stop-color:#7c7c7c;stop-opacity:1;" />
      <stop
         id="stop2228"
         offset="1"
         style="stop-color:#b8b8b8;stop-opacity:1;" />
    </linearGradient>
    <linearGradient
       id="linearGradient15218">
      <stop
         id="stop15220"
         offset="0"
         style="stop-color:#eeeeef;stop-opacity:1;" />
      <stop
         id="stop2736"
         offset="0.59928656"
         style="stop-color:#d3d7cf;stop-opacity:1;" />
      <stop
         id="stop2738"
         offset="0.82758623"
         style="stop-color:#ffffff;stop-opacity:1;" />
      <stop
         id="stop15222"
         offset="1"
         style="stop-color:#d3d7cf;stop-opacity:1;" />
    </linearGradient>
    <pattern
       y="0"
       x="0"
       height="6"
       width="6"
       patternUnits="userSpaceOnUse"
       id="EMFhbasepattern" />
    <pattern
       y="0"
       x="0"
       height="6"
       width="6"
       patternUnits="userSpaceOnUse"
       id="EMFhbasepattern-5" />
    <linearGradient
       inkscape:collect="always"
       xlink:href="#linearGradient4321"
       id="linearGradient4412"
       gradientUnits="userSpaceOnUse"
       gradientTransform="matrix(0.95421775,0,0,0.94768467,-49.47889,45.028878)"
       x1="300"
       y1="632.36218"
       x2="470"
       y2="452.36221" />
    <linearGradient
       id="linearGradient4321"
       inkscape:collect="always">
      <stop
         id="stop4323"
         offset="0"
         style="stop-color:#4e505d;stop-opacity:1;" />
      <stop
         id="stop4325"
         offset="1"
         style="stop-color:#7a8597;stop-opacity:1" />
    </linearGradient>
  </defs>
  <sodipodi:namedview
     id="base"
     pagecolor="#ffffff"
     bordercolor="#666666"
     borderopacity="1.0"
     inkscape:pageopacity="0.0"
     inkscape:pageshadow="2"
     inkscape:zoom="0.72645548"
     inkscape:cx="348.14614"
     inkscape:cy="483.13071"
     inkscape:document-units="px"
     inkscape:current-layer="layer1"
     showgrid="false"
     showguides="true"
     inkscape:guide-bbox="true"
     inkscape:window-width="1366"
     inkscape:window-height="721"
     inkscape:window-x="-4"
     inkscape:window-y="-4"
     inkscape:window-maximized="1"
     inkscape:snap-bbox="true"
     inkscape:bbox-paths="true"
     inkscape:bbox-nodes="true"
     inkscape:snap-nodes="false">
    <sodipodi:guide
       position="315.53572,730.17859"
       orientation="0,1"
       id="guide3338" />
    <sodipodi:guide
       position="351.25,330.17858"
       orientation="0,1"
       id="guide3340" />
    <sodipodi:guide
       position="189.10714,408.8393"
       orientation="1,0"
       id="guide3344" />
    <inkscape:grid
       type="xygrid"
       id="grid3440" />
    <sodipodi:guide
       position="0,0"
       orientation="0,1"
       id="guide3405" />
    <sodipodi:guide
       position="214.125,684.50002"
       orientation="1,0"
       id="guide3407" />
    <sodipodi:guide
       position="0,0"
       orientation="0,1"
       id="guide3409" />
    <sodipodi:guide
       position="589.04521,378.30213"
       orientation="1,0"
       id="guide3411" />
    <sodipodi:guide
       position="564.00001,683.37502"
       orientation="1,0"
       id="guide3413" />
  </sodipodi:namedview>
  <metadata
     id="metadata7">
    <rdf:RDF>
      <cc:Work
         rdf:about="">
        <dc:format>image/svg+xml</dc:format>
        <dc:type
           rdf:resource="http://purl.org/dc/dcmitype/StillImage" />
        <dc:title>attribute authorization</dc:title>
        <dc:date>June 2015</dc:date>
        <dc:creator>
          <cc:Agent>
            <dc:title>Johannes Hechler</dc:title>
          </cc:Agent>
        </dc:creator>
        <dc:rights>
          <cc:Agent>
            <dc:title>Johannes Hechler</dc:title>
          </cc:Agent>
        </dc:rights>
        <dc:publisher>
          <cc:Agent>
            <dc:title>RRZE</dc:title>
          </cc:Agent>
        </dc:publisher>
        <dc:contributor>
          <cc:Agent>
            <dc:title>Ute Weber, Hendrik Eggers</dc:title>
          </cc:Agent>
        </dc:contributor>
      </cc:Work>
    </rdf:RDF>
  </metadata>
  <g
     inkscape:label="Ebene 1"
     inkscape:groupmode="layer"
     id="layer1">
    <g
       id="g4186"
       transform="translate(68.372699,-18.10314)">
      <path
         id="path4271"
         d="m 156.18366,358.47038 c -4.43526,-0.097 -8.33078,1.5913 -11.29492,4.2832 -3.81105,3.461 -6.07875,8.67697 -5.97071,14.35547 l 2.66016,139.78516 c 0.0722,4.5632 6.1663,10.58687 10.43555,14.85547 l 136.24804,135.31641 54.08985,-54.45118 c -2.17415,-8.28815 -3.37286,-16.8167 -3.38086,-25.41992 l 0,-0.008 0,-0.01 c -4.2e-4,-51.6582 39.42539,-94.56176 89.65039,-99.74609 L 312.27546,370.69108 c -3.98592,-3.9586 -9.30068,-8.90288 -14.48829,-9.11718 l -141.60351,-3.10352 z m 29.50586,18.34961 a 27.269978,27.269978 0 0 1 27.26953,27.27149 27.269978,27.269978 0 0 1 -27.26953,27.26953 27.269978,27.269978 0 0 1 -27.27149,-27.26953 27.269978,27.269978 0 0 1 27.27149,-27.27149 z m 253.16406,146.08399 c -35.44354,-7e-5 -63.87481,28.50811 -63.88281,64.25586 l 0,0.008 0,0.01 c 0.01,8.13894 1.5558,16.2018 4.55469,23.75782 l 4.3496,10.95898 -70.06835,70.54102 18.97851,18.84961 6.05664,-5.89258 0.49414,0 0,-0.47852 21.65625,-21.06445 6.72657,-6.54102 36.13085,-35.14453 10.92969,4.49805 c 6.1283,2.52292 12.59913,4.04706 19.17774,4.56836 l 63.49609,-63.06055 c 2.21281,-2.19765 3.86802,-4.72825 4.96875,-7.42578 -1.09463,-11.2802 -5.04956,-21.65389 -11.11719,-30.41601 l -15.95898,-16.01368 c -10.32708,-7.19658 -22.88855,-11.40823 -36.49219,-11.4082 l 0,-0.002 z m 18.21094,17.36328 a 27.269985,27.269945 0 0 1 27.26953,27.26953 27.269985,27.269945 0 0 1 -27.26953,27.26953 27.269985,27.269945 0 0 1 -27.26953,-27.26953 27.269985,27.269945 0 0 1 27.26953,-27.26953 z"
         style="opacity:1;fill:url(#linearGradient4412);fill-opacity:1;stroke:none;stroke-width:23;stroke-linecap:butt;stroke-linejoin:round;stroke-miterlimit:4;stroke-dasharray:none;stroke-opacity:1"
         inkscape:connector-curvature="0" />
      <path
         id="ellipse4356"
         d="m 438.85358,504.90593 a 81.88266,82.270813 0 0 0 -81.88281,82.27148 81.88266,82.270813 0 0 0 5.82422,30.39649 l -77.83399,78.35742 -0.5,44.35547 44.32227,0 10.55469,0 0,-10.26562 6.81445,-6.62891 11.18359,0 0,-10.87695 12.19532,-11.86133 6.03515,4.27734 18.22852,0 0,-17.86133 -5.64649,-4.52539 19.7793,-19.23828 a 81.88266,82.270813 0 0 0 30.92578,6.14258 81.88266,82.270813 0 0 0 81.88281,-82.27149 81.88266,82.270813 0 0 0 -81.88281,-82.27148 z m 18.21094,35.36133 a 27.269985,27.269945 0 0 1 27.26953,27.26953 27.269985,27.269945 0 0 1 -27.26953,27.26953 27.269985,27.269945 0 0 1 -27.26953,-27.26953 27.269985,27.269945 0 0 1 27.26953,-27.26953 z"
         style="color:#000000;clip-rule:nonzero;display:inline;overflow:visible;visibility:visible;opacity:1;isolation:auto;mix-blend-mode:normal;color-interpolation:sRGB;color-interpolation-filters:linearRGB;solid-color:#000000;solid-opacity:1;fill:#99b000;fill-opacity:1;fill-rule:evenodd;stroke:none;stroke-width:35;stroke-linecap:butt;stroke-linejoin:miter;stroke-miterlimit:4;stroke-dasharray:none;stroke-dashoffset:0;stroke-opacity:1;color-rendering:auto;image-rendering:auto;shape-rendering:auto;text-rendering:auto;enable-background:accumulate"
         inkscape:connector-curvature="0" />
      <path
         id="rect4428"
         d="m 142.10454,340.28677 357.26126,0 c 11.83904,0 21.3701,9.53107 21.3701,21.3701 l 0,357.25978 c 0,11.8391 -9.53106,21.3701 -21.3701,21.3701 l -357.26126,0 c -11.83904,0 -21.3701,-9.531 -21.3701,-21.3701 l 0,-357.25978 c 0,-11.83903 9.53106,-21.3701 21.3701,-21.3701 z"
         style="color:#000000;clip-rule:nonzero;display:inline;overflow:visible;visibility:visible;opacity:1;isolation:auto;mix-blend-mode:normal;color-interpolation:sRGB;color-interpolation-filters:linearRGB;solid-color:#000000;solid-opacity:1;fill:none;fill-opacity:1;fill-rule:nonzero;stroke:none;stroke-width:36;stroke-linecap:butt;stroke-linejoin:round;stroke-miterlimit:4;stroke-dasharray:none;stroke-dashoffset:0;stroke-opacity:1;color-rendering:auto;image-rendering:auto;shape-rendering:auto;text-rendering:auto;enable-background:accumulate"
         inkscape:connector-curvature="0" />
    </g>
  </g>
</svg>
