<?xml version="1.0" encoding="UTF-8" standalone="no"?>
<!-- Created with Inkscape (http://www.inkscape.org/) -->
<svg xmlns:dc="http://purl.org/dc/elements/1.1/" xmlns:cc="http://creativecommons.org/ns#" xmlns:rdf="http://www.w3.org/1999/02/22-rdf-syntax-ns#" xmlns:svg="http://www.w3.org/2000/svg" xmlns="http://www.w3.org/2000/svg" xmlns:xlink="http://www.w3.org/1999/xlink" xmlns:sodipodi="http://sodipodi.sourceforge.net/DTD/sodipodi-0.dtd" xmlns:inkscape="http://www.inkscape.org/namespaces/inkscape" width="210mm" height="297mm" viewBox="0 0 744.09448819 1052.3622047" id="svg2" version="1.1" inkscape:version="0.91 r13725" inkscape:export-xdpi="4" inkscape:export-ydpi="4">
  <defs id="defs4">
    <linearGradient inkscape:collect="always" id="linearGradient4156">
      <stop style="stop-color:#7a8597;stop-opacity:1;" offset="0" id="stop4158"/>
      <stop style="stop-color:#4e505d;stop-opacity:1" offset="1" id="stop4160"/>
    </linearGradient>
    <linearGradient id="linearGradient2224">
      <stop id="stop2226" offset="0" style="stop-color:#7c7c7c;stop-opacity:1;"/>
      <stop id="stop2228" offset="1" style="stop-color:#b8b8b8;stop-opacity:1;"/>
    </linearGradient>
    <linearGradient id="linearGradient15218">
      <stop id="stop15220" offset="0" style="stop-color:#eeeeef;stop-opacity:1;"/>
      <stop id="stop2736" offset="0.59928656" style="stop-color:#d3d7cf;stop-opacity:1;"/>
      <stop id="stop2738" offset="0.82758623" style="stop-color:#ffffff;stop-opacity:1;"/>
      <stop id="stop15222" offset="1" style="stop-color:#d3d7cf;stop-opacity:1;"/>
    </linearGradient>
    <pattern y="0" x="0" height="6" width="6" patternUnits="userSpaceOnUse" id="EMFhbasepattern"/>
    <pattern y="0" x="0" height="6" width="6" patternUnits="userSpaceOnUse" id="EMFhbasepattern-5"/>
    <linearGradient inkscape:collect="always" xlink:href="#linearGradient4156" id="linearGradient4162" x1="539" y1="536.36218" x2="190" y2="747.36218" gradientUnits="userSpaceOnUse" gradientTransform="matrix(0.875,0,0,0.875,49.75,-14.704834)"/>
  </defs>
  <sodipodi:namedview id="base" pagecolor="#ffffff" bordercolor="#666666" borderopacity="1.0" inkscape:pageopacity="0.0" inkscape:pageshadow="2" inkscape:zoom="0.5" inkscape:cx="-453.58349" inkscape:cy="551.27519" inkscape:document-units="px" inkscape:current-layer="layer1" showgrid="false" showguides="true" inkscape:guide-bbox="true" inkscape:window-width="1366" inkscape:window-height="721" inkscape:window-x="-4" inkscape:window-y="-4" inkscape:window-maximized="1">
    <sodipodi:guide position="560,730.00002" orientation="0,1" id="guide3338"/>
    <sodipodi:guide position="560,330.00001" orientation="0,1" id="guide3340"/>
    <sodipodi:guide position="190,475.00001" orientation="1,0" id="guide3344"/>
    <sodipodi:guide position="590,451.00001" orientation="1,0" id="guide3346"/>
    <inkscape:grid type="xygrid" id="grid3440"/>
  </sodipodi:namedview>
  <metadata id="metadata7">
    <rdf:RDF>
      <cc:Work rdf:about="">
        <dc:format>image/svg+xml</dc:format>
        <dc:type rdf:resource="http://purl.org/dc/dcmitype/StillImage"/>
        <dc:title>bridge delete</dc:title>
        <dc:date>June 2015</dc:date>
        <dc:creator>
          <cc:Agent>
            <dc:title>Johannes Hechler</dc:title>
          </cc:Agent>
        </dc:creator>
        <dc:rights>
          <cc:Agent>
            <dc:title>Johannes Hechler</dc:title>
          </cc:Agent>
        </dc:rights>
        <dc:publisher>
          <cc:Agent>
            <dc:title>RRZE</dc:title>
          </cc:Agent>
        </dc:publisher>
        <dc:contributor>
          <cc:Agent>
            <dc:title>Ute Weber, Hendrik Eggers</dc:title>
          </cc:Agent>
        </dc:contributor>
      </cc:Work>
    </rdf:RDF>
  </metadata>
  <g inkscape:label="Ebene 1" inkscape:groupmode="layer" id="layer1">
    <rect style="opacity:1;fill:none;fill-opacity:1;stroke:none;stroke-width:23;stroke-linecap:butt;stroke-linejoin:round;stroke-miterlimit:4;stroke-dasharray:none;stroke-opacity:1" id="rect4160" width="400" height="400" x="190" y="322.36221"/>
    <path style="color:#252525;clip-rule:nonzero;display:inline;overflow:visible;visibility:visible;opacity:1;isolation:auto;mix-blend-mode:normal;color-interpolation:sRGB;color-interpolation-filters:linearRGB;solid-color:#252525;solid-opacity:1;fill:url(#linearGradient4162);fill-opacity:1;fill-rule:nonzero;stroke:none;stroke-width:23;stroke-linecap:butt;stroke-linejoin:miter;stroke-miterlimit:4;stroke-dasharray:none;stroke-dashoffset:0;stroke-opacity:1;color-rendering:auto;image-rendering:auto;shape-rendering:auto;text-rendering:auto;enable-background:accumulate" d="m 223.69385,444.9795 c -4.26193,0 -7.69385,3.43191 -7.69385,7.69384 l 0,156.99585 c 0,4.26193 3.43192,7.69214 7.69385,7.69214 l 35.65795,0 c 4.18404,-71.44523 61.99624,-127.21939 131.95753,-127.30567 70.00613,0.0235 127.88696,55.8147 132.07373,127.30567 l 34.92309,0 c 4.26193,0 7.69385,-3.43021 7.69385,-7.69214 l 0,-156.99585 c 0,-4.26193 -3.43192,-7.69384 -7.69385,-7.69384 z" id="rect4149" inkscape:connector-curvature="0" sodipodi:nodetypes="sssscccsssss"/>
    <g transform="matrix(0.80558233,0,0,0.80558233,4.1821603,-26.564612)" id="g4157">
      <g id="g4158">
        <path sodipodi:nodetypes="cccscsccsssscscsccsccc" inkscape:connector-curvature="0" id="path4190" d="m 584.07415,700.41579 c 7.47474,-7.47478 7.46905,-19.51198 -0.004,-26.98672 l -59.05273,-59.05295 59.82225,-59.82226 c 6.92961,-6.92961 6.92396,-18.0887 -0.004,-25.0183 l -18.196,-18.19666 c -6.9296,-6.92961 -18.08874,-6.9353 -25.01834,-0.004 l -59.82198,59.82252 -59.4998,-59.49985 c -7.47475,-7.4747 -19.50629,-7.47473 -26.98107,0 l -16.46018,16.46021 c -7.47478,7.47475 -7.47473,19.50635 0,26.98108 l 59.4998,59.49979 -59.89576,59.89578 c -6.92961,6.9296 -6.92392,18.08873 0.004,25.01834 l 18.19665,18.50652 c 6.87086,6.98786 18.0887,6.93524 25.01831,0.004 l 59.89576,-60.20561 59.28535,59.82759 c 7.44064,7.50869 19.51198,7.48042 26.98673,0.004 l 16.22782,-17.23482 z" style="opacity:1;fill:#d9463a;fill-opacity:1;stroke:#ffffff;stroke-width:50;stroke-linecap:square;stroke-linejoin:round;stroke-miterlimit:4;stroke-dasharray:none;stroke-opacity:1"/>
        <path style="opacity:1;fill:#d9463a;fill-opacity:1;stroke:none;stroke-width:0;stroke-linecap:square;stroke-linejoin:round;stroke-miterlimit:4;stroke-dasharray:none;stroke-opacity:1" d="m 584.07415,700.41579 c 7.47474,-7.47478 7.46905,-19.51198 -0.004,-26.98672 l -59.05273,-59.05295 59.82225,-59.82226 c 6.92961,-6.92961 6.92396,-18.0887 -0.004,-25.0183 l -18.196,-18.19666 c -6.9296,-6.92961 -18.08874,-6.9353 -25.01834,-0.004 l -59.82198,59.82252 -59.4998,-59.49985 c -7.47475,-7.4747 -19.50629,-7.47473 -26.98107,0 l -16.46018,16.46021 c -7.47478,7.47475 -7.47473,19.50635 0,26.98108 l 59.4998,59.49979 -59.89576,59.89578 c -6.92961,6.9296 -6.92392,18.08873 0.004,25.01834 l 18.19665,18.50652 c 6.87086,6.98786 18.0887,6.93524 25.01831,0.004 l 59.89576,-60.20561 59.28535,59.82759 c 7.44064,7.50869 19.51198,7.48042 26.98673,0.004 l 16.22782,-17.23482 z" id="rect4217" inkscape:connector-curvature="0" sodipodi:nodetypes="cccscsccsssscscsccsccc"/>
      </g>
    </g>
  </g>
</svg>
