<?xml version="1.0" encoding="UTF-8" standalone="no"?>
<!-- Created with Inkscape (http://www.inkscape.org/) -->

<svg
   xmlns:dc="http://purl.org/dc/elements/1.1/"
   xmlns:cc="http://creativecommons.org/ns#"
   xmlns:rdf="http://www.w3.org/1999/02/22-rdf-syntax-ns#"
   xmlns:svg="http://www.w3.org/2000/svg"
   xmlns="http://www.w3.org/2000/svg"
   xmlns:xlink="http://www.w3.org/1999/xlink"
   xmlns:sodipodi="http://sodipodi.sourceforge.net/DTD/sodipodi-0.dtd"
   xmlns:inkscape="http://www.inkscape.org/namespaces/inkscape"
   width="210mm"
   height="297mm"
   viewBox="0 0 744.09448819 1052.3622047"
   id="svg2"
   version="1.1"
   inkscape:version="0.91 r13725"
   inkscape:export-xdpi="4.9499998"
   inkscape:export-ydpi="4.9499998"
   sodipodi:docname="bridge-new.svg"
   inkscape:export-filename="D:\Dokumente\Arbeit\RRZE\github\bicons\22x22\emblems\bridge-new.png">
  <defs
     id="defs4">
    <linearGradient
       id="linearGradient2224">
      <stop
         id="stop2226"
         offset="0"
         style="stop-color:#7c7c7c;stop-opacity:1;" />
      <stop
         id="stop2228"
         offset="1"
         style="stop-color:#b8b8b8;stop-opacity:1;" />
    </linearGradient>
    <linearGradient
       id="linearGradient15218">
      <stop
         id="stop15220"
         offset="0"
         style="stop-color:#eeeeef;stop-opacity:1;" />
      <stop
         id="stop2736"
         offset="0.59928656"
         style="stop-color:#d3d7cf;stop-opacity:1;" />
      <stop
         id="stop2738"
         offset="0.82758623"
         style="stop-color:#ffffff;stop-opacity:1;" />
      <stop
         id="stop15222"
         offset="1"
         style="stop-color:#d3d7cf;stop-opacity:1;" />
    </linearGradient>
    <pattern
       y="0"
       x="0"
       height="6"
       width="6"
       patternUnits="userSpaceOnUse"
       id="EMFhbasepattern" />
    <pattern
       y="0"
       x="0"
       height="6"
       width="6"
       patternUnits="userSpaceOnUse"
       id="EMFhbasepattern-5" />
    <linearGradient
       inkscape:collect="always"
       xlink:href="#linearGradient4156"
       id="linearGradient4162"
       x1="539"
       y1="536.36218"
       x2="190"
       y2="747.36218"
       gradientUnits="userSpaceOnUse"
       gradientTransform="matrix(0.9091057,0,0,0.92280568,35.449925,-53.357047)" />
    <linearGradient
       inkscape:collect="always"
       id="linearGradient4156">
      <stop
         style="stop-color:#7a8597;stop-opacity:1;"
         offset="0"
         id="stop4158" />
      <stop
         style="stop-color:#4e505d;stop-opacity:1"
         offset="1"
         id="stop4160" />
    </linearGradient>
  </defs>
  <sodipodi:namedview
     id="base"
     pagecolor="#ffffff"
     bordercolor="#666666"
     borderopacity="1.0"
     inkscape:pageopacity="0.0"
     inkscape:pageshadow="2"
     inkscape:zoom="1"
     inkscape:cx="260.5768"
     inkscape:cy="570.50423"
     inkscape:document-units="px"
     inkscape:current-layer="layer1"
     showgrid="false"
     showguides="true"
     inkscape:guide-bbox="true"
     inkscape:window-width="1600"
     inkscape:window-height="837"
     inkscape:window-x="-4"
     inkscape:window-y="-4"
     inkscape:window-maximized="1"
     inkscape:snap-bbox="true"
     inkscape:bbox-nodes="true">
    <sodipodi:guide
       position="560,730.00002"
       orientation="0,1"
       id="guide3338" />
    <sodipodi:guide
       position="560,330.00001"
       orientation="0,1"
       id="guide3340" />
    <sodipodi:guide
       position="190,475.00001"
       orientation="1,0"
       id="guide3344" />
    <sodipodi:guide
       position="590,451.00001"
       orientation="1,0"
       id="guide3346" />
    <inkscape:grid
       type="xygrid"
       id="grid3440" />
  </sodipodi:namedview>
  <metadata
     id="metadata7">
    <rdf:RDF>
      <cc:Work
         rdf:about="">
        <dc:format>image/svg+xml</dc:format>
        <dc:type
           rdf:resource="http://purl.org/dc/dcmitype/StillImage" />
        <dc:title>bridge new</dc:title>
        <dc:date>June 2015</dc:date>
        <dc:creator>
          <cc:Agent>
            <dc:title>Johannes Hechler</dc:title>
          </cc:Agent>
        </dc:creator>
        <dc:rights>
          <cc:Agent>
            <dc:title>Johannes Hechler</dc:title>
          </cc:Agent>
        </dc:rights>
        <dc:publisher>
          <cc:Agent>
            <dc:title>RRZE</dc:title>
          </cc:Agent>
        </dc:publisher>
        <dc:contributor>
          <cc:Agent>
            <dc:title>Ute Weber, Hendrik Eggers</dc:title>
          </cc:Agent>
        </dc:contributor>
      </cc:Work>
    </rdf:RDF>
  </metadata>
  <g
     inkscape:label="Ebene 1"
     inkscape:groupmode="layer"
     id="layer1">
    <g
       id="g4184">
      <rect
         y="322.36221"
         x="190"
         height="400"
         width="400"
         id="rect4160"
         style="opacity:1;fill:none;fill-opacity:1;stroke:none;stroke-width:23;stroke-linecap:butt;stroke-linejoin:round;stroke-miterlimit:4;stroke-dasharray:none;stroke-opacity:1" />
      <path
         id="rect4149"
         d="M 216.17383 431.44141 C 211.74577 431.44141 208.17969 435.06186 208.17969 439.55664 L 208.17969 605.12891 C 208.17969 609.62369 211.74577 613.24219 216.17383 613.24219 L 261.2207 613.24219 C 265.56782 537.89355 317.63403 487.07146 390.32227 486.98047 C 397.57596 486.98294 404.62049 487.50108 411.4375 488.48828 C 412.23909 484.36932 413.14779 480.12567 414.08203 475.875 C 415.83977 467.87749 417.66744 459.95246 418.85352 453.99805 C 419.16702 452.42421 419.27845 451.56289 419.48633 450.33984 C 418.60333 449.46782 418.01176 448.83375 416.83789 447.73828 C 412.39906 443.59598 406.28896 438.22726 400.19336 432.75977 C 399.70374 432.3206 399.22097 431.881 398.73242 431.44141 L 216.17383 431.44141 z M 450.19531 431.44141 C 451.41019 432.74282 452.68368 434.69967 454.12695 439.17969 C 456.62755 446.9417 455.15737 448.31912 454.79102 451.32031 C 454.42466 454.3215 453.86004 457.42042 453.17969 460.83594 C 451.819 467.66697 449.97017 475.64214 448.26758 483.38867 C 448.16249 483.86682 448.08031 484.29323 447.97656 484.76953 C 448.39895 484.52566 448.78134 484.31799 449.20508 484.07227 C 456.06632 480.09345 463.1002 475.90779 469.19336 472.5332 C 472.23994 470.84591 475.02015 469.36565 477.76758 468.10352 C 480.51501 466.8414 481.38031 465.02062 489.53516 465.04102 C 497.69 465.06141 498.54408 466.88627 501.28516 468.16211 C 504.02625 469.43795 506.79978 470.93031 509.83789 472.63281 C 515.91411 476.0378 522.92827 480.26038 529.76953 484.27344 C 530.19143 484.52094 530.57163 484.73092 530.99219 484.97656 C 530.89089 484.50009 530.8116 484.07208 530.70898 483.59375 C 529.04514 475.83881 527.23669 467.85337 525.91016 461.01562 C 525.24689 457.59675 524.699 454.49712 524.34766 451.49414 C 523.9963 448.49116 522.5329 447.10684 525.07227 439.35742 C 526.61024 434.66395 527.94953 432.73505 529.22461 431.44141 L 450.19531 431.44141 z M 571.82227 439.58398 C 568.31427 442.68219 564.9854 445.6357 562.31641 448.10156 C 561.13764 449.19062 560.54335 449.82213 559.65625 450.68945 C 559.85804 451.91386 559.96378 452.77551 560.26953 454.35156 C 561.42583 460.31183 563.21389 468.24574 564.93164 476.25195 C 566.64939 484.25815 568.30591 492.27946 569.25195 499.37891 C 569.72498 502.92863 570.07138 506.16368 569.95117 509.88867 C 569.89106 511.75118 569.77077 513.73842 569.00195 516.49414 C 568.23313 519.24987 566.83658 523.55666 561.60742 527.33594 C 556.37826 531.11521 551.84803 531.08974 548.99023 530.95508 C 546.13244 530.82041 544.21114 530.31053 542.42383 529.7832 C 538.84923 528.72857 535.88415 527.38519 532.66211 525.82227 C 526.21802 522.69644 519.12347 518.60792 512.06055 514.46484 C 504.99763 510.32176 498.02499 506.13406 492.72852 503.16602 C 491.32864 502.38156 490.54423 502.01119 489.44531 501.43555 C 488.34316 502.00585 487.55488 502.37059 486.15039 503.14844 C 481.62684 505.65372 475.8163 509.07422 469.83594 512.56055 C 498.74994 534.6848 517.04456 569.90406 519.54492 613.24219 L 563.82812 613.24219 C 568.25617 613.24219 571.82227 609.62369 571.82227 605.12891 L 571.82227 439.58398 z "
         style="color:#252525;clip-rule:nonzero;display:inline;overflow:visible;visibility:visible;opacity:1;isolation:auto;mix-blend-mode:normal;color-interpolation:sRGB;color-interpolation-filters:linearRGB;solid-color:#252525;solid-opacity:1;fill:url(#linearGradient4162);fill-opacity:1;fill-rule:nonzero;stroke:none;stroke-width:23;stroke-linecap:butt;stroke-linejoin:miter;stroke-miterlimit:4;stroke-dasharray:none;stroke-dashoffset:0;stroke-opacity:1;color-rendering:auto;image-rendering:auto;shape-rendering:auto;text-rendering:auto;enable-background:accumulate" />
      <path
         transform="matrix(0.79806326,0.02016136,-0.02016136,0.79806326,215.36347,30.821473)"
         inkscape:transform-center-y="-12.266866"
         inkscape:transform-center-x="-0.089511835"
         d="m 436,593.36221 c -6.87748,5.23998 -69.79398,-36.57256 -78.43797,-36.3758 -8.64398,0.19675 -69.59282,44.82873 -76.7016,39.90711 -7.10878,-4.92163 13.21504,-77.67957 10.35678,-85.83968 -2.85826,-8.16012 -64.14003,-52.33387 -61.65602,-60.61559 2.48401,-8.28172 77.96133,-11.43605 84.83881,-16.67603 6.87748,-5.23999 29.95211,-77.17285 38.59609,-77.36961 8.64398,-0.19675 34.96771,70.6117 42.07649,75.53332 7.10877,4.92163 82.65145,4.63843 85.50971,12.79855 2.85826,8.16011 -56.3501,55.07648 -58.83411,63.35819 -2.48401,8.28172 21.1293,80.03956 14.25182,85.27954 z"
         inkscape:randomized="0"
         inkscape:rounded="0.1"
         inkscape:flatsided="false"
         sodipodi:arg2="1.5480381"
         sodipodi:arg1="0.91971961"
         sodipodi:r2="68.641968"
         sodipodi:r1="132.00378"
         sodipodi:cy="488.36221"
         sodipodi:cx="356"
         sodipodi:sides="5"
         id="path4159"
         style="opacity:1;fill:#fbb516;fill-opacity:1;fill-rule:nonzero;stroke:none;stroke-width:14;stroke-linecap:round;stroke-linejoin:round;stroke-miterlimit:4;stroke-dasharray:none;stroke-opacity:1"
         sodipodi:type="star" />
    </g>
  </g>
</svg>
