<?xml version="1.0" encoding="UTF-8" standalone="no"?>
<!-- Created with Inkscape (http://www.inkscape.org/) -->

<svg
   xmlns:dc="http://purl.org/dc/elements/1.1/"
   xmlns:cc="http://creativecommons.org/ns#"
   xmlns:rdf="http://www.w3.org/1999/02/22-rdf-syntax-ns#"
   xmlns:svg="http://www.w3.org/2000/svg"
   xmlns="http://www.w3.org/2000/svg"
   xmlns:xlink="http://www.w3.org/1999/xlink"
   xmlns:sodipodi="http://sodipodi.sourceforge.net/DTD/sodipodi-0.dtd"
   xmlns:inkscape="http://www.inkscape.org/namespaces/inkscape"
   width="210mm"
   height="297mm"
   viewBox="0 0 744.09448819 1052.3622047"
   id="svg2"
   version="1.1"
   inkscape:version="0.91 r13725"
   inkscape:export-xdpi="4"
   inkscape:export-ydpi="4"
   sodipodi:docname="chipcard-disabled.svg">
  <defs
     id="defs4">
    <linearGradient
       id="linearGradient2224">
      <stop
         id="stop2226"
         offset="0"
         style="stop-color:#7c7c7c;stop-opacity:1;" />
      <stop
         id="stop2228"
         offset="1"
         style="stop-color:#b8b8b8;stop-opacity:1;" />
    </linearGradient>
    <linearGradient
       id="linearGradient15218">
      <stop
         id="stop15220"
         offset="0"
         style="stop-color:#eeeeef;stop-opacity:1;" />
      <stop
         id="stop2736"
         offset="0.59928656"
         style="stop-color:#d3d7cf;stop-opacity:1;" />
      <stop
         id="stop2738"
         offset="0.82758623"
         style="stop-color:#ffffff;stop-opacity:1;" />
      <stop
         id="stop15222"
         offset="1"
         style="stop-color:#d3d7cf;stop-opacity:1;" />
    </linearGradient>
    <pattern
       y="0"
       x="0"
       height="6"
       width="6"
       patternUnits="userSpaceOnUse"
       id="EMFhbasepattern" />
    <pattern
       y="0"
       x="0"
       height="6"
       width="6"
       patternUnits="userSpaceOnUse"
       id="EMFhbasepattern-5" />
    <pattern
       y="0"
       x="0"
       height="6"
       width="6"
       patternUnits="userSpaceOnUse"
       id="EMFhbasepattern-6" />
    <linearGradient
       inkscape:collect="always"
       xlink:href="#linearGradient4202"
       id="linearGradient4208"
       x1="226.84613"
       y1="638.23535"
       x2="454.33087"
       y2="458.06842"
       gradientUnits="userSpaceOnUse"
       gradientTransform="matrix(1.0120813,0,0,0.92118559,-2.979877,5.142651)" />
    <linearGradient
       inkscape:collect="always"
       id="linearGradient4202">
      <stop
         style="stop-color:#4e505d;stop-opacity:1;"
         offset="0"
         id="stop4204" />
      <stop
         style="stop-color:#7a8597;stop-opacity:1"
         offset="1"
         id="stop4206" />
    </linearGradient>
  </defs>
  <sodipodi:namedview
     id="base"
     pagecolor="#ffffff"
     bordercolor="#666666"
     borderopacity="1.0"
     inkscape:pageopacity="0.0"
     inkscape:pageshadow="2"
     inkscape:zoom="0.73000001"
     inkscape:cx="393.15339"
     inkscape:cy="451.60458"
     inkscape:document-units="px"
     inkscape:current-layer="layer1"
     showgrid="false"
     showguides="true"
     inkscape:guide-bbox="true"
     inkscape:window-width="1366"
     inkscape:window-height="721"
     inkscape:window-x="-4"
     inkscape:window-y="-4"
     inkscape:window-maximized="1">
    <sodipodi:guide
       position="315.53572,730.17859"
       orientation="0,1"
       id="guide3338" />
    <sodipodi:guide
       position="351.25,330.17858"
       orientation="0,1"
       id="guide3340" />
    <sodipodi:guide
       position="189.10714,408.8393"
       orientation="1,0"
       id="guide3344" />
    <sodipodi:guide
       position="589.04521,468.07945"
       orientation="1,0"
       id="guide3346" />
    <inkscape:grid
       type="xygrid"
       id="grid3440" />
    <sodipodi:guide
       position="589.04521,378.30213"
       orientation="1,0"
       id="guide3411" />
  </sodipodi:namedview>
  <metadata
     id="metadata7">
    <rdf:RDF>
      <cc:Work
         rdf:about="">
        <dc:format>image/svg+xml</dc:format>
        <dc:type
           rdf:resource="http://purl.org/dc/dcmitype/StillImage" />
        <dc:title>chipcard disabled</dc:title>
        <dc:date>June 2015</dc:date>
        <dc:creator>
          <cc:Agent>
            <dc:title>Johannes Hechler</dc:title>
          </cc:Agent>
        </dc:creator>
        <dc:rights>
          <cc:Agent>
            <dc:title>Johannes Hechler</dc:title>
          </cc:Agent>
        </dc:rights>
        <dc:publisher>
          <cc:Agent>
            <dc:title>RRZE</dc:title>
          </cc:Agent>
        </dc:publisher>
        <dc:contributor>
          <cc:Agent>
            <dc:title>Ute Weber, Hendrik Eggers</dc:title>
          </cc:Agent>
        </dc:contributor>
      </cc:Work>
    </rdf:RDF>
  </metadata>
  <g
     inkscape:label="Ebene 1"
     inkscape:groupmode="layer"
     id="layer1">
    <path
       style="fill:url(#linearGradient4208);fill-opacity:1;stroke:none;stroke-width:16.95400047;stroke-linecap:round;stroke-linejoin:round;stroke-miterlimit:4;stroke-dasharray:none;stroke-dashoffset:0;stroke-opacity:1"
       d="m 244.32937,412.80659 289.88117,0 c 20.68046,0 37.32935,15.15365 37.32935,33.97677 l 0,151.60206 c 0,18.82313 -16.64889,33.97678 -37.32935,33.97678 l -289.88117,0 C 223.6489,632.3622 207,617.20855 207,598.38542 l 0,-151.60206 c 0,-18.82312 16.6489,-33.97677 37.32937,-33.97677 z"
       id="rect3789"
       inkscape:connector-curvature="0" />
    <g
       transform="translate(0.11731294,0.320031)"
       id="g4269">
      <rect
         style="fill:#ffffff"
         id="rect9"
         height="14.892237"
         width="16.857664"
         y="523.76459"
         x="276.77689" />
      <rect
         style="fill:#ffffff"
         id="rect11"
         height="14.892237"
         width="16.856384"
         y="523.76459"
         x="234.58989" />
      <path
         style="fill:#ffffff"
         inkscape:connector-curvature="0"
         id="path13"
         d="m 251.44624,557.67685 0,-12.74011 -15.82699,0 c 2.28127,6.8873 8.37832,11.95497 15.82699,12.74011 z" />
      <rect
         style="fill:#ffffff"
         id="rect15"
         height="12.938317"
         width="12.786147"
         y="544.93677"
         x="257.72232" />
      <path
         style="fill:#ffffff"
         inkscape:connector-curvature="0"
         id="path17"
         d="m 292.60514,544.93674 -15.82828,0 0,12.74011 c 7.44867,-0.78514 13.54572,-5.85281 15.82828,-12.74011 z" />
      <path
         style="fill:#ffffff"
         inkscape:connector-curvature="0"
         id="path19"
         d="m 270.50719,517.49237 3.14058,0 3.12909,0 16.31164,0 c -1.95392,-8.3016 -9.36679,-14.49967 -18.27195,-14.49967 l -17.10063,0 0,35.6718 12.78615,0 0,-21.17213 0.005,0 z" />
      <path
         style="fill:#ffffff"
         inkscape:connector-curvature="0"
         id="path21"
         d="m 251.44624,503.18451 c -8.0062,0.83758 -14.5035,6.63029 -16.31163,14.30786 l 16.31163,0 0,-14.30786 z" />
    </g>
    <rect
       style="color:#000000;clip-rule:nonzero;display:inline;overflow:visible;visibility:visible;opacity:0.98999999;isolation:auto;mix-blend-mode:normal;color-interpolation:sRGB;color-interpolation-filters:linearRGB;solid-color:#000000;solid-opacity:1;fill:#ffffff;fill-opacity:1;fill-rule:nonzero;stroke:none;stroke-width:40;stroke-linecap:square;stroke-linejoin:miter;stroke-miterlimit:4;stroke-dasharray:none;stroke-dashoffset:0;stroke-opacity:1;color-rendering:auto;image-rendering:auto;shape-rendering:auto;text-rendering:auto;enable-background:accumulate"
       id="rect4280"
       width="291.27573"
       height="18.161049"
       x="243.86734"
       y="450.05322"
       ry="9.0805244" />
    <rect
       style="color:#000000;clip-rule:nonzero;display:inline;overflow:visible;visibility:visible;opacity:0.98999999;isolation:auto;mix-blend-mode:normal;color-interpolation:sRGB;color-interpolation-filters:linearRGB;solid-color:#000000;solid-opacity:1;fill:#ffffff;fill-opacity:1;fill-rule:nonzero;stroke:none;stroke-width:40;stroke-linecap:square;stroke-linejoin:miter;stroke-miterlimit:4;stroke-dasharray:none;stroke-dashoffset:0;stroke-opacity:1;color-rendering:auto;image-rendering:auto;shape-rendering:auto;text-rendering:auto;enable-background:accumulate"
       id="rect4282"
       width="200.25485"
       height="18.161039"
       x="334.88821"
       y="504.53635"
       ry="9.0805197" />
    <rect
       style="fill:none;fill-rule:evenodd;stroke:none;stroke-width:1px;stroke-linecap:butt;stroke-linejoin:miter;stroke-opacity:1"
       id="rect3336"
       width="400"
       height="400"
       x="189.14485"
       y="322.27005"
       inkscape:export-xdpi="4.9499998"
       inkscape:export-ydpi="4.9499998" />
    <g
       id="g4197"
       transform="matrix(1.0456385,-0.07484384,0.07484384,1.0456385,-72.171446,1.9729856)" />
    <path
       inkscape:connector-curvature="0"
       id="path4171"
       d="m 559.49935,660.60573 c 6.27917,-6.2792 6.27917,-16.37768 0,-22.72159 l -49.65005,-49.65087 50.29737,-50.29773 c 5.82605,-5.82605 5.82605,-15.21235 0,-21.0384 L 544.8056,501.62011 c -5.82605,-5.82602 -15.21244,-5.82602 -21.03849,0 l -50.29822,50.29779 -50.03878,-50.03885 c -6.27917,-6.27916 -16.37756,-6.27916 -22.65667,0 l -13.85297,13.85294 c -6.27916,6.27911 -6.27916,16.3775 0,22.6567 l 50.03885,50.03878 -50.3625,50.36293 c -5.82606,5.82605 -5.82606,15.21247 0,21.03852 l 15.277,15.59999 c 5.76133,5.8908 15.21238,5.82605 21.03843,0 l 50.36244,-50.62102 49.84507,50.29736 c 6.2792,6.2792 16.44239,6.2792 22.72159,0 l 13.658,-14.49952 z"
       style="fill:#d9463a;fill-opacity:1;fill-rule:nonzero;stroke:#ffffff;stroke-width:40;stroke-linecap:square;stroke-linejoin:round;stroke-miterlimit:4;stroke-dasharray:none;stroke-opacity:1" />
    <path
       inkscape:connector-curvature="0"
       id="path4173"
       d="m 558.6578,660.67048 c 6.2792,-6.2792 6.2792,-16.44243 -0.0648,-22.7216 l -49.65002,-49.6509 50.29737,-50.2977 c 5.89079,-5.82605 5.82604,-15.21238 0,-21.03842 l -15.27633,-15.34175 c -5.82605,-5.82602 -15.21247,-5.82602 -21.03852,0 l -50.29822,50.36253 -50.03876,-50.03887 c -6.27919,-6.34388 -16.44233,-6.34388 -22.72144,0 l -13.78822,13.78822 c -6.34387,6.34385 -6.34387,16.44224 0,22.72144 l 50.03894,50.03875 -50.42734,50.36297 c -5.82602,5.82605 -5.82602,15.21247 0,21.03852 l 15.34184,15.53524 c 5.76124,5.8908 15.21228,5.8908 21.03834,0.0648 l 50.36244,-50.68576 49.84507,50.3621 c 6.2792,6.27917 16.44243,6.27917 22.72159,0 l 13.658,-14.49952 z"
       style="fill:#d9463a;fill-opacity:1;fill-rule:nonzero;stroke:none" />
  </g>
</svg>
