<?xml version="1.0" encoding="UTF-8" standalone="no"?>
<!-- Created with Inkscape (http://www.inkscape.org/) -->

<svg
   xmlns:dc="http://purl.org/dc/elements/1.1/"
   xmlns:cc="http://creativecommons.org/ns#"
   xmlns:rdf="http://www.w3.org/1999/02/22-rdf-syntax-ns#"
   xmlns:svg="http://www.w3.org/2000/svg"
   xmlns="http://www.w3.org/2000/svg"
   xmlns:xlink="http://www.w3.org/1999/xlink"
   xmlns:sodipodi="http://sodipodi.sourceforge.net/DTD/sodipodi-0.dtd"
   xmlns:inkscape="http://www.inkscape.org/namespaces/inkscape"
   width="210mm"
   height="297mm"
   viewBox="0 0 744.09448819 1052.3622047"
   id="svg2"
   version="1.1"
   inkscape:version="0.91 r13725"
   inkscape:export-xdpi="4.9499998"
   inkscape:export-ydpi="4.9499998"
   sodipodi:docname="chipcard-blocked.svg"
   inkscape:export-filename="D:\Dokumente\Arbeit\RRZE\github\bicons\22x22\emblems\chipcard-blocked.png">
  <defs
     id="defs4">
    <linearGradient
       id="linearGradient2224">
      <stop
         id="stop2226"
         offset="0"
         style="stop-color:#7c7c7c;stop-opacity:1;" />
      <stop
         id="stop2228"
         offset="1"
         style="stop-color:#b8b8b8;stop-opacity:1;" />
    </linearGradient>
    <linearGradient
       id="linearGradient15218">
      <stop
         id="stop15220"
         offset="0"
         style="stop-color:#eeeeef;stop-opacity:1;" />
      <stop
         id="stop2736"
         offset="0.59928656"
         style="stop-color:#d3d7cf;stop-opacity:1;" />
      <stop
         id="stop2738"
         offset="0.82758623"
         style="stop-color:#ffffff;stop-opacity:1;" />
      <stop
         id="stop15222"
         offset="1"
         style="stop-color:#d3d7cf;stop-opacity:1;" />
    </linearGradient>
    <pattern
       y="0"
       x="0"
       height="6"
       width="6"
       patternUnits="userSpaceOnUse"
       id="EMFhbasepattern" />
    <pattern
       y="0"
       x="0"
       height="6"
       width="6"
       patternUnits="userSpaceOnUse"
       id="EMFhbasepattern-5" />
    <linearGradient
       inkscape:collect="always"
       xlink:href="#linearGradient4202"
       id="linearGradient4208"
       x1="226.84613"
       y1="638.23535"
       x2="454.33087"
       y2="458.06842"
       gradientUnits="userSpaceOnUse"
       gradientTransform="matrix(1.0120813,0,0,0.92118559,-2.9798795,5.1426459)" />
    <linearGradient
       inkscape:collect="always"
       id="linearGradient4202">
      <stop
         style="stop-color:#4e505d;stop-opacity:1;"
         offset="0"
         id="stop4204" />
      <stop
         style="stop-color:#7a8597;stop-opacity:1"
         offset="1"
         id="stop4206" />
    </linearGradient>
  </defs>
  <sodipodi:namedview
     id="base"
     pagecolor="#ffffff"
     bordercolor="#666666"
     borderopacity="1.0"
     inkscape:pageopacity="0.0"
     inkscape:pageshadow="2"
     inkscape:zoom="0.70710678"
     inkscape:cx="-3.5470815"
     inkscape:cy="491.30658"
     inkscape:document-units="px"
     inkscape:current-layer="layer1"
     showgrid="false"
     showguides="true"
     inkscape:guide-bbox="true"
     inkscape:window-width="1600"
     inkscape:window-height="837"
     inkscape:window-x="-4"
     inkscape:window-y="-4"
     inkscape:window-maximized="1"
     inkscape:snap-bbox="true"
     inkscape:bbox-paths="true"
     inkscape:bbox-nodes="true"
     inkscape:snap-others="false">
    <sodipodi:guide
       position="315.53572,730.17859"
       orientation="0,1"
       id="guide3338" />
    <sodipodi:guide
       position="351.25,330.17858"
       orientation="0,1"
       id="guide3340" />
    <sodipodi:guide
       position="189.10714,408.8393"
       orientation="1,0"
       id="guide3344" />
    <sodipodi:guide
       position="589.04521,468.07945"
       orientation="1,0"
       id="guide3346" />
    <inkscape:grid
       type="xygrid"
       id="grid3440" />
    <sodipodi:guide
       position="589.04521,378.30213"
       orientation="1,0"
       id="guide3411" />
  </sodipodi:namedview>
  <metadata
     id="metadata7">
    <rdf:RDF>
      <cc:Work
         rdf:about="">
        <dc:format>image/svg+xml</dc:format>
        <dc:type
           rdf:resource="http://purl.org/dc/dcmitype/StillImage" />
        <dc:title>chipcard blocked</dc:title>
        <dc:date>June 2015</dc:date>
        <dc:creator>
          <cc:Agent>
            <dc:title>Johannes Hechler</dc:title>
          </cc:Agent>
        </dc:creator>
        <dc:rights>
          <cc:Agent>
            <dc:title>Johannes Hechler</dc:title>
          </cc:Agent>
        </dc:rights>
        <dc:publisher>
          <cc:Agent>
            <dc:title>RRZE</dc:title>
          </cc:Agent>
        </dc:publisher>
        <dc:contributor>
          <cc:Agent>
            <dc:title>Ute Weber, Hendrik Eggers</dc:title>
          </cc:Agent>
        </dc:contributor>
      </cc:Work>
    </rdf:RDF>
  </metadata>
  <g
     inkscape:label="Ebene 1"
     inkscape:groupmode="layer"
     id="layer1">
    <g
       id="g4180">
      <path
         id="rect3789"
         d="M 244.33008 412.80664 C 223.64961 412.80664 207 427.96008 207 446.7832 L 207 598.38477 C 207 617.2079 223.64961 632.36133 244.33008 632.36133 L 372.89844 632.36133 C 372.64775 629.24519 372.51562 626.09641 372.51562 622.91797 C 372.51562 558.36275 425.22674 505.6543 489.78125 505.6543 C 521.5172 505.6543 550.38412 518.39892 571.53906 539.02148 L 571.53906 446.7832 C 571.53906 427.96008 554.8914 412.80664 534.21094 412.80664 L 244.33008 412.80664 z M 489.78125 541.6543 C 444.67676 541.6543 408.51562 577.81283 408.51562 622.91797 C 408.51563 626.11455 408.70308 629.26427 409.05664 632.36133 L 534.21094 632.36133 C 550.95391 632.36133 565.0501 622.42721 569.8125 608.65625 C 563.13052 570.4272 530.01622 541.6543 489.78125 541.6543 z "
         style="fill:url(#linearGradient4208);fill-opacity:1;stroke:none;stroke-width:16.95400047;stroke-linecap:round;stroke-linejoin:round;stroke-miterlimit:4;stroke-dasharray:none;stroke-dashoffset:0;stroke-opacity:1" />
      <rect
         ry="9.0805244"
         y="450.05325"
         x="243.86734"
         height="18.161049"
         width="291.27573"
         id="rect4280"
         style="color:#000000;clip-rule:nonzero;display:inline;overflow:visible;visibility:visible;opacity:18999999;isolation:auto;mix-blend-mode:normal;color-interpolation:sRGB;color-interpolation-filters:linearRGB;solid-color:#000000;solid-opacity:1;fill:#ffffff;fill-opacity:1;fill-rule:nonzero;stroke:none;stroke-width:40;stroke-linecap:square;stroke-linejoin:miter;stroke-miterlimit:4;stroke-dasharray:none;stroke-dashoffset:0;stroke-opacity:1;color-rendering:auto;image-rendering:auto;shape-rendering:auto;text-rendering:auto;enable-background:accumulate" />
      <path
         id="rect4282"
         d="M 380.73828 504.53711 C 375.70767 504.53711 371.6582 508.58658 371.6582 513.61719 C 371.6582 518.6478 375.70767 522.69727 380.73828 522.69727 L 399.2168 522.69727 C 406.92775 515.71843 415.44173 509.61485 424.59375 504.53711 L 380.73828 504.53711 z "
         style="color:#000000;clip-rule:nonzero;display:inline;overflow:visible;visibility:visible;opacity:18999999;isolation:auto;mix-blend-mode:normal;color-interpolation:sRGB;color-interpolation-filters:linearRGB;solid-color:#000000;solid-opacity:1;fill:#ffffff;fill-opacity:1;fill-rule:nonzero;stroke:none;stroke-width:40;stroke-linecap:square;stroke-linejoin:miter;stroke-miterlimit:4;stroke-dasharray:none;stroke-dashoffset:0;stroke-opacity:1;color-rendering:auto;image-rendering:auto;shape-rendering:auto;text-rendering:auto;enable-background:accumulate" />
      <path
         id="rect4270"
         d="m 262.28974,486.39815 c -10.06122,0 -18.16016,8.10089 -18.16016,18.16211 l 0,0.33398 c 0.73725,-0.42734 1.58315,-0.68945 2.5,-0.68945 l 24,0 0,-17 c 0,-0.27563 0.0278,-0.54337 0.0703,-0.80664 z m 18.26953,0 c 0.0425,0.26327 0.0703,0.53101 0.0703,0.80664 l 0,45 18.25,0 0,-19.85352 c -0.14957,-0.45086 -0.25,-0.92541 -0.25,-1.42773 l 0,-1.8125 c 0,-2.51031 2.02094,-4.53125 4.53125,-4.53125 l 0.88086,0 0.17578,0 30.93359,0 0,-0.0195 c 0,-10.06122 -8.10088,-18.16211 -18.1621,-18.16211 z m -36.42969,26.61719 0,19.28906 c 0.32308,-0.0651 0.65717,-0.0996 1,-0.0996 l 25.5,0 0,-18.5 -24,0 c -0.91685,0 -1.76275,-0.26212 -2.5,-0.68945 z m 63.25,0.43945 0,18.75 27.77148,0 0,-18.75 z m -63.25,27.65039 c 0.008,10.0539 8.1042,18.14453 18.16016,18.14453 l 8.33984,0 0,-18.04492 -25.5,0 c -0.34283,0 -0.67692,-0.0345 -1,-0.0996 z m 36.5,0.0996 0,18.04492 18.25,0 0,-18.04492 z m 26.75,0 0,18.04492 9.60938,0 c 10.02228,0 18.0939,-8.03784 18.15624,-18.04492 z"
         style="color:#000000;clip-rule:nonzero;display:inline;overflow:visible;visibility:visible;opacity:1;isolation:auto;mix-blend-mode:normal;color-interpolation:sRGB;color-interpolation-filters:linearRGB;solid-color:#000000;solid-opacity:1;fill:#ffffff;fill-opacity:1;fill-rule:nonzero;stroke:none;stroke-width:20;stroke-linecap:square;stroke-linejoin:round;stroke-miterlimit:4;stroke-dasharray:none;stroke-dashoffset:0;stroke-opacity:1;color-rendering:auto;image-rendering:auto;shape-rendering:auto;text-rendering:auto;enable-background:accumulate"
         inkscape:connector-curvature="0"
         sodipodi:nodetypes="sscscscscscccssscccsscccsccscccccccsccsccccccccscc" />
      <rect
         inkscape:export-ydpi="4.9499998"
         inkscape:export-xdpi="4.9499998"
         y="322.27005"
         x="189.14485"
         height="400"
         width="400"
         id="rect3336"
         style="fill:none;fill-rule:evenodd;stroke:none;stroke-width:1px;stroke-linecap:butt;stroke-linejoin:miter;stroke-opacity:1" />
      <g
         transform="matrix(1.0456385,-0.07484384,0.07484384,1.0456385,-72.171446,1.9729856)"
         id="g4197" />
      <rect
         style="opacity:1;fill:#ffffff;fill-opacity:1;stroke:#ffffff;stroke-width:40;stroke-linecap:round;stroke-linejoin:round;stroke-miterlimit:4;stroke-dasharray:none;stroke-opacity:1"
         id="rect4313"
         width="120.37597"
         height="37.409149"
         x="428.86795"
         y="604.75427"
         ry="8.1485271" />
      <path
         style="fill:#d9463a;fill-opacity:1;fill-rule:evenodd;stroke:none;stroke-width:45.3580246;stroke-miterlimit:4;stroke-dasharray:none;stroke-opacity:1"
         d="m 589.04521,622.91868 c 0,-54.83018 -44.43492,-99.26497 -99.2647,-99.26497 -54.8295,0 -99.26496,44.43479 -99.26496,99.26497 0,54.82953 44.43546,99.26495 99.26496,99.26495 54.82978,0 99.2647,-44.43542 99.2647,-99.26495 z"
         id="path3359"
         inkscape:connector-curvature="0" />
      <rect
         ry="8.1485271"
         y="604.75427"
         x="428.86795"
         height="37.409149"
         width="120.37597"
         id="rect4202"
         style="opacity:1;fill:#ffffff;fill-opacity:1;stroke:none;stroke-width:45.3580246;stroke-linecap:round;stroke-linejoin:round;stroke-miterlimit:4;stroke-dasharray:none;stroke-opacity:1" />
    </g>
  </g>
</svg>
