<?xml version="1.0" encoding="UTF-8" standalone="no"?>
<!-- Created with Inkscape (http://www.inkscape.org/) -->

<svg
   xmlns:dc="http://purl.org/dc/elements/1.1/"
   xmlns:cc="http://creativecommons.org/ns#"
   xmlns:rdf="http://www.w3.org/1999/02/22-rdf-syntax-ns#"
   xmlns:svg="http://www.w3.org/2000/svg"
   xmlns="http://www.w3.org/2000/svg"
   xmlns:xlink="http://www.w3.org/1999/xlink"
   xmlns:sodipodi="http://sodipodi.sourceforge.net/DTD/sodipodi-0.dtd"
   xmlns:inkscape="http://www.inkscape.org/namespaces/inkscape"
   width="210mm"
   height="297mm"
   viewBox="0 0 744.09448819 1052.3622047"
   id="svg2"
   version="1.1"
   inkscape:version="0.91 r13725"
   inkscape:export-xdpi="4.9495335"
   inkscape:export-ydpi="4.9495335"
   sodipodi:docname="chipcard-expired_blocked.svg"
   inkscape:export-filename="C:\Users\johannes\Documents\Arbeit\RRZE\github3\bicons\22x22\emblems\chipcard-expired_blocked.png">
  <defs
     id="defs4">
    <linearGradient
       id="linearGradient2224">
      <stop
         id="stop2226"
         offset="0"
         style="stop-color:#7c7c7c;stop-opacity:1;" />
      <stop
         id="stop2228"
         offset="1"
         style="stop-color:#b8b8b8;stop-opacity:1;" />
    </linearGradient>
    <linearGradient
       id="linearGradient15218">
      <stop
         id="stop15220"
         offset="0"
         style="stop-color:#eeeeef;stop-opacity:1;" />
      <stop
         id="stop2736"
         offset="0.59928656"
         style="stop-color:#d3d7cf;stop-opacity:1;" />
      <stop
         id="stop2738"
         offset="0.82758623"
         style="stop-color:#ffffff;stop-opacity:1;" />
      <stop
         id="stop15222"
         offset="1"
         style="stop-color:#d3d7cf;stop-opacity:1;" />
    </linearGradient>
    <pattern
       y="0"
       x="0"
       height="6"
       width="6"
       patternUnits="userSpaceOnUse"
       id="EMFhbasepattern" />
    <pattern
       y="0"
       x="0"
       height="6"
       width="6"
       patternUnits="userSpaceOnUse"
       id="EMFhbasepattern-5" />
    <pattern
       y="0"
       x="0"
       height="6"
       width="6"
       patternUnits="userSpaceOnUse"
       id="EMFhbasepattern-6" />
    <pattern
       y="0"
       x="0"
       height="6"
       width="6"
       patternUnits="userSpaceOnUse"
       id="EMFhbasepattern-2" />
    <linearGradient
       inkscape:collect="always"
       xlink:href="#linearGradient4321"
       id="linearGradient4208"
       x1="226.84613"
       y1="638.23535"
       x2="454.33087"
       y2="458.06842"
       gradientUnits="userSpaceOnUse"
       gradientTransform="matrix(1.0120813,0,0,0.92118559,-192.08702,-317.1274)" />
    <linearGradient
       id="linearGradient4321"
       inkscape:collect="always">
      <stop
         id="stop4323"
         offset="0"
         style="stop-color:#4e505d;stop-opacity:1;" />
      <stop
         id="stop4325"
         offset="1"
         style="stop-color:#7a8597;stop-opacity:1" />
    </linearGradient>
  </defs>
  <sodipodi:namedview
     id="base"
     pagecolor="#ffffff"
     bordercolor="#666666"
     borderopacity="1.0"
     inkscape:pageopacity="0.0"
     inkscape:pageshadow="2"
     inkscape:zoom="1"
     inkscape:cx="460.49842"
     inkscape:cy="462.55563"
     inkscape:document-units="px"
     inkscape:current-layer="layer1"
     showgrid="false"
     showguides="true"
     inkscape:guide-bbox="true"
     inkscape:window-width="1366"
     inkscape:window-height="721"
     inkscape:window-x="-4"
     inkscape:window-y="-4"
     inkscape:window-maximized="1"
     inkscape:snap-bbox="true"
     inkscape:bbox-paths="true"
     inkscape:bbox-nodes="true"
     inkscape:snap-nodes="false"
     inkscape:snap-global="true">
    <sodipodi:guide
       position="315.53572,730.17859"
       orientation="0,1"
       id="guide3338" />
    <sodipodi:guide
       position="351.25,330.17858"
       orientation="0,1"
       id="guide3340" />
    <sodipodi:guide
       position="189.10714,408.8393"
       orientation="1,0"
       id="guide3344" />
    <sodipodi:guide
       position="589.04521,468.07945"
       orientation="1,0"
       id="guide3346" />
    <inkscape:grid
       type="xygrid"
       id="grid3440" />
    <sodipodi:guide
       position="589.04521,378.30213"
       orientation="1,0"
       id="guide3411" />
  </sodipodi:namedview>
  <metadata
     id="metadata7">
    <rdf:RDF>
      <cc:Work
         rdf:about="">
        <dc:format>image/svg+xml</dc:format>
        <dc:type
           rdf:resource="http://purl.org/dc/dcmitype/StillImage" />
        <dc:title>chipcard expired blocked</dc:title>
        <dc:date>June 2015</dc:date>
        <dc:creator>
          <cc:Agent>
            <dc:title>Johannes Hechler</dc:title>
          </cc:Agent>
        </dc:creator>
        <dc:rights>
          <cc:Agent>
            <dc:title>Johannes Hechler</dc:title>
          </cc:Agent>
        </dc:rights>
        <dc:publisher>
          <cc:Agent>
            <dc:title>RRZE</dc:title>
          </cc:Agent>
        </dc:publisher>
        <dc:contributor>
          <cc:Agent>
            <dc:title>Ute Weber, Hendrik Eggers</dc:title>
          </cc:Agent>
        </dc:contributor>
      </cc:Work>
    </rdf:RDF>
  </metadata>
  <g
     inkscape:label="Ebene 1"
     inkscape:groupmode="layer"
     id="layer1">
    <g
       transform="translate(189.00749,-330.17849)"
       id="g4435">
      <path
         inkscape:connector-curvature="0"
         id="rect3789"
         transform="translate(0,652.36214)"
         d="m 55.222656,90.537109 c -20.68047,0 -37.330078,15.153441 -37.330078,33.976561 l 0,117.11914 c 17.345376,-14.5231 39.652295,-23.29297 63.917969,-23.29297 26.740193,0 51.096273,10.65423 69.058593,27.91797 15.6929,-57.58446 68.51394,-100.13672 130.95898,-100.13672 39.82619,0 75.7391,17.30812 100.60352,44.78516 l 0,-66.39258 c 0,-18.82312 -16.64766,-33.976561 -37.32812,-33.976561 l -289.880864,0 z M 284.11523,185.65625 c -54.56419,0 -98.42187,43.8577 -98.42187,98.42187 0,9.01431 1.20469,17.73327 3.44922,26.01368 l 155.96094,0 c 19.91823,0 36.09032,-14.0583 37.25586,-31.91211 -3.02707,-51.79168 -45.66112,-92.52344 -98.24415,-92.52344 z M 78.771484,259.87109 c -24.37698,2e-5 -45.250391,13.9581 -55.144531,34.38086 6.59822,9.52937 18.254803,15.83985 31.595703,15.83985 l 83.824224,0 C 133.8978,281.39305 109.04089,259.87109 78.771484,259.87109 Z"
         style="fill:url(#linearGradient4208);fill-opacity:1;stroke:none;stroke-width:16.95400047;stroke-linecap:round;stroke-linejoin:round;stroke-miterlimit:4;stroke-dasharray:none;stroke-dashoffset:0;stroke-opacity:1" />
      <path
         inkscape:connector-curvature="0"
         id="rect4280"
         transform="translate(0,652.36214)"
         d="m 63.839844,127.7832 c -5.03061,0 -9.080078,4.04947 -9.080078,9.08008 0,5.03061 4.049468,9.08203 9.080078,9.08203 l 147.453126,0 c 21.14446,-11.05528 45.14215,-17.32422 70.53515,-17.32422 22.25012,0 43.43087,4.81 62.5586,13.4375 1.0314,-1.4707 1.64844,-3.25385 1.64844,-5.19531 0,-5.03061 -4.04947,-9.08008 -9.08008,-9.08008 l -273.115236,0 z"
         style="color:#000000;clip-rule:nonzero;display:inline;overflow:visible;visibility:visible;opacity:18999999;isolation:auto;mix-blend-mode:normal;color-interpolation:sRGB;color-interpolation-filters:linearRGB;solid-color:#000000;solid-opacity:1;fill:#ffffff;fill-opacity:1;fill-rule:nonzero;stroke:none;stroke-width:40;stroke-linecap:square;stroke-linejoin:miter;stroke-miterlimit:4;stroke-dasharray:none;stroke-dashoffset:0;stroke-opacity:1;color-rendering:auto;image-rendering:auto;shape-rendering:auto;text-rendering:auto;enable-background:accumulate" />
      <path
         inkscape:connector-curvature="0"
         id="rect4270"
         transform="translate(0,652.36214)"
         d="m 73.181641,164.12891 c -10.06122,0 -18.160157,8.10089 -18.160157,18.16211 l 0,0.33398 c 0.73725,-0.42734 1.58315,-0.68945 2.5,-0.68945 l 24,0 0,-17 c 0,-0.27563 0.02781,-0.54337 0.07031,-0.80664 l -8.410156,0 z m 18.269531,0 c 0.0425,0.26327 0.07031,0.53101 0.07031,0.80664 l 0,35.8125 c 6.229109,0.51611 12.324758,1.52442 18.249998,2.98437 l 0,-13.65039 c -0.14957,-0.45086 -0.25,-0.92541 -0.25,-1.42773 l 0,-1.8125 c 0,-2.51031 2.02094,-4.53125 4.53125,-4.53125 l 0.88086,0 0.17579,0 30.93359,0 0,-0.0195 c 0,-10.06122 -8.10089,-18.16211 -18.16211,-18.16211 l -36.42969,0 z m -36.429688,26.61718 0,12.69922 c 8.524952,-2.00683 17.396449,-3.07927 26.5,-3.10156 l 0,-8.9082 -24,0 c -0.91685,0 -1.76275,-0.26212 -2.5,-0.68946 z m 63.249996,0.43946 0,14.98633 c 3.37329,1.1087 6.68189,2.36459 9.91602,3.76367 l 17.85547,0 0,-18.75 -27.77149,0 z m 26.81446,27.75 c 0.31126,0.19983 0.61845,0.40671 0.92773,0.60937 0.008,-0.20332 0.0222,-0.40429 0.0234,-0.60937 l -0.95117,0 z"
         style="color:#000000;clip-rule:nonzero;display:inline;overflow:visible;visibility:visible;opacity:1;isolation:auto;mix-blend-mode:normal;color-interpolation:sRGB;color-interpolation-filters:linearRGB;solid-color:#000000;solid-opacity:1;fill:#fbb516;fill-opacity:1;fill-rule:nonzero;stroke:none;stroke-width:20;stroke-linecap:square;stroke-linejoin:round;stroke-miterlimit:4;stroke-dasharray:none;stroke-dashoffset:0;stroke-opacity:1;color-rendering:auto;image-rendering:auto;shape-rendering:auto;text-rendering:auto;enable-background:accumulate" />
      <rect
         inkscape:export-ydpi="4.9499998"
         inkscape:export-xdpi="4.9499998"
         y="652.36212"
         x="0.037711684"
         height="400"
         width="400"
         id="rect3336"
         style="fill:none;fill-rule:evenodd;stroke:none;stroke-width:1px;stroke-linecap:butt;stroke-linejoin:miter;stroke-opacity:1" />
      <path
         style="fill:#d9463a;fill-opacity:1;fill-rule:evenodd;stroke:none"
         d="m 163.62,970.48891 c 0,-45.17078 -36.62604,-81.78688 -81.809974,-81.78688 C 36.626487,888.70203 0,925.31813 0,970.48891 c 0,45.17119 36.626487,81.78679 81.810026,81.78679 45.183934,0 81.809974,-36.6156 81.809974,-81.78679 z"
         id="path4184"
         inkscape:connector-curvature="0" />
      <path
         style="fill:#ffffff;fill-opacity:1;fill-rule:nonzero;stroke:none"
         d="m 42.503195,961.41895 78.613535,0 c 3.39627,0 6.14327,1.73785 6.14327,3.95843 l 0,10.26619 c 0,2.1884 -2.747,3.95843 -6.14327,3.95843 l -78.613535,0 c -3.396195,0 -6.143194,-1.77003 -6.143194,-3.95843 l 0,-10.26619 c 0,-2.22058 2.746999,-3.95843 6.143194,-3.95843 z"
         id="path4186"
         inkscape:connector-curvature="0" />
      <ellipse
         ry="118.19003"
         rx="118.20886"
         cy="934.17212"
         cx="281.82886"
         id="path4238"
         style="color:#000000;clip-rule:nonzero;display:inline;overflow:visible;visibility:visible;opacity:1;isolation:auto;mix-blend-mode:normal;color-interpolation:sRGB;color-interpolation-filters:linearRGB;solid-color:#000000;solid-opacity:1;fill:#99b000;fill-opacity:1;fill-rule:nonzero;stroke:none;stroke-width:35;stroke-linecap:square;stroke-linejoin:round;stroke-miterlimit:4;stroke-dasharray:none;stroke-dashoffset:0;stroke-opacity:1;color-rendering:auto;image-rendering:auto;shape-rendering:auto;text-rendering:auto;enable-background:accumulate" />
      <path
         id="path4190-8"
         d="m 279.78707,914.98304 c -6.18232,0.005 -11.88438,7.33346 -14.92748,12.71412 l -75.47994,0.43411 c -4.45137,0.0225 -8.01541,2.97836 -7.99252,6.62718 0.0228,3.64881 3.6248,6.5681 8.07617,6.54553 l 73.83285,-0.42615 c 1.1618,4.0284 5.75831,3.49222 9.29942,5.73765 -0.0151,0.24244 -0.0332,0.48404 -0.0339,0.73083 l -0.1195,51.21926 c -0.0139,5.86413 4.14311,10.59363 9.32096,10.60593 5.17783,0.012 9.35692,-4.6981 9.37074,-10.56212 l 0.12149,-51.21926 c 7.3e-4,-0.30933 -0.0158,-0.61353 -0.0378,-0.91602 4.82441,-3.17192 5.73046,-8.55659 5.7336,-14.32968 0,-9.47796 -7.68464,-17.16138 -17.1641,-17.16138 z"
         style="opacity:1;fill:#ffffff;fill-opacity:1;stroke:none;stroke-width:16;stroke-linecap:round;stroke-linejoin:round;stroke-miterlimit:4;stroke-dasharray:none;stroke-opacity:1"
         inkscape:connector-curvature="0"
         sodipodi:nodetypes="cccccccccsccccsc" />
    </g>
  </g>
</svg>
