<?xml version="1.0" encoding="UTF-8" standalone="no"?>
<!-- Created with Inkscape (http://www.inkscape.org/) -->

<svg
   xmlns:dc="http://purl.org/dc/elements/1.1/"
   xmlns:cc="http://creativecommons.org/ns#"
   xmlns:rdf="http://www.w3.org/1999/02/22-rdf-syntax-ns#"
   xmlns:svg="http://www.w3.org/2000/svg"
   xmlns="http://www.w3.org/2000/svg"
   xmlns:xlink="http://www.w3.org/1999/xlink"
   xmlns:sodipodi="http://sodipodi.sourceforge.net/DTD/sodipodi-0.dtd"
   xmlns:inkscape="http://www.inkscape.org/namespaces/inkscape"
   width="210mm"
   height="297mm"
   viewBox="0 0 744.09448819 1052.3622047"
   id="svg2"
   version="1.1"
   inkscape:version="0.91 r13725"
   inkscape:export-xdpi="4.9499998"
   inkscape:export-ydpi="4.9499998"
   sodipodi:docname="chipcard-blocked.svg"
   inkscape:export-filename="D:\Dokumente\Arbeit\RRZE\github\bicons\22x22\emblems\chipcard-blocked.png">
  <defs
     id="defs4">
    <linearGradient
       id="linearGradient2224">
      <stop
         id="stop2226"
         offset="0"
         style="stop-color:#7c7c7c;stop-opacity:1;" />
      <stop
         id="stop2228"
         offset="1"
         style="stop-color:#b8b8b8;stop-opacity:1;" />
    </linearGradient>
    <linearGradient
       id="linearGradient15218">
      <stop
         id="stop15220"
         offset="0"
         style="stop-color:#eeeeef;stop-opacity:1;" />
      <stop
         id="stop2736"
         offset="0.59928656"
         style="stop-color:#d3d7cf;stop-opacity:1;" />
      <stop
         id="stop2738"
         offset="0.82758623"
         style="stop-color:#ffffff;stop-opacity:1;" />
      <stop
         id="stop15222"
         offset="1"
         style="stop-color:#d3d7cf;stop-opacity:1;" />
    </linearGradient>
    <pattern
       y="0"
       x="0"
       height="6"
       width="6"
       patternUnits="userSpaceOnUse"
       id="EMFhbasepattern" />
    <pattern
       y="0"
       x="0"
       height="6"
       width="6"
       patternUnits="userSpaceOnUse"
       id="EMFhbasepattern-5" />
    <linearGradient
       inkscape:collect="always"
       xlink:href="#linearGradient4321"
       id="linearGradient4208"
       x1="226.84613"
       y1="638.23535"
       x2="454.33087"
       y2="458.06842"
       gradientUnits="userSpaceOnUse"
       gradientTransform="matrix(0.05566447,0,0,0.05066521,385.72665,456.82048)" />
    <linearGradient
       id="linearGradient4321"
       inkscape:collect="always">
      <stop
         id="stop4323"
         offset="0"
         style="stop-color:#4e505d;stop-opacity:1;" />
      <stop
         id="stop4325"
         offset="1"
         style="stop-color:#7a8597;stop-opacity:1" />
    </linearGradient>
  </defs>
  <sodipodi:namedview
     id="base"
     pagecolor="#ffffff"
     bordercolor="#666666"
     borderopacity="1.0"
     inkscape:pageopacity="0.0"
     inkscape:pageshadow="2"
     inkscape:zoom="0.70710678"
     inkscape:cx="79.184412"
     inkscape:cy="496.96343"
     inkscape:document-units="px"
     inkscape:current-layer="layer1"
     showgrid="false"
     showguides="true"
     inkscape:guide-bbox="true"
     inkscape:window-width="1600"
     inkscape:window-height="837"
     inkscape:window-x="-4"
     inkscape:window-y="-4"
     inkscape:window-maximized="1"
     inkscape:snap-bbox="true"
     inkscape:bbox-paths="true"
     inkscape:bbox-nodes="true"
     inkscape:snap-others="false">
    <sodipodi:guide
       position="315.53572,730.17859"
       orientation="0,1"
       id="guide3338" />
    <sodipodi:guide
       position="351.25,330.17858"
       orientation="0,1"
       id="guide3340" />
    <sodipodi:guide
       position="189.10714,408.8393"
       orientation="1,0"
       id="guide3344" />
    <sodipodi:guide
       position="589.04521,468.07945"
       orientation="1,0"
       id="guide3346" />
    <inkscape:grid
       type="xygrid"
       id="grid3440" />
    <sodipodi:guide
       position="589.04521,378.30213"
       orientation="1,0"
       id="guide3411" />
  </sodipodi:namedview>
  <metadata
     id="metadata7">
    <rdf:RDF>
      <cc:Work
         rdf:about="">
        <dc:format>image/svg+xml</dc:format>
        <dc:type
           rdf:resource="http://purl.org/dc/dcmitype/StillImage" />
        <dc:title>chipcard blocked</dc:title>
        <dc:date>June 2015</dc:date>
        <dc:creator>
          <cc:Agent>
            <dc:title>Johannes Hechler</dc:title>
          </cc:Agent>
        </dc:creator>
        <dc:rights>
          <cc:Agent>
            <dc:title>Johannes Hechler</dc:title>
          </cc:Agent>
        </dc:rights>
        <dc:publisher>
          <cc:Agent>
            <dc:title>RRZE</dc:title>
          </cc:Agent>
        </dc:publisher>
        <dc:contributor>
          <cc:Agent>
            <dc:title>Ute Weber, Hendrik Eggers</dc:title>
          </cc:Agent>
        </dc:contributor>
      </cc:Work>
    </rdf:RDF>
  </metadata>
  <g
     inkscape:label="Ebene 1"
     inkscape:groupmode="layer"
     id="layer1">
    <g
       id="g4213"
       transform="matrix(18.181818,0,0,18.181818,-7016.2295,-8300.7716)">
      <path
         sodipodi:nodetypes="sssscsscsss"
         inkscape:connector-curvature="0"
         id="rect3789"
         d="m 399.32867,479.24306 c -1.13742,0 -2.05274,0.83189 -2.05274,1.86719 l 0,8.33788 c 0,1.0352 0.91532,1.86598 2.05274,1.86914 l 7.96445,0.0221 c -0.0157,-0.18343 -0.0258,-0.36734 -0.0273,-0.55469 -0.0221,-2.67222 3.01016,-5.46144 5.57192,-5.50563 1.75973,-0.0304 3.33636,0.55469 4.50916,1.69884 l -0.0221,-5.86764 c -0.004,-1.03529 -0.9153,-1.86719 -2.05273,-1.86719 z"
         style="fill:url(#linearGradient4208);fill-opacity:1;stroke:none;stroke-width:16.95400047;stroke-linecap:round;stroke-linejoin:round;stroke-miterlimit:4;stroke-dasharray:none;stroke-dashoffset:0;stroke-opacity:1" />
      <rect
         ry="0.49942884"
         y="481.29062"
         x="399.30322"
         height="0.99885768"
         width="16.020164"
         id="rect4280"
         style="color:#000000;clip-rule:nonzero;display:inline;overflow:visible;visibility:visible;opacity:1;isolation:auto;mix-blend-mode:normal;color-interpolation:sRGB;color-interpolation-filters:linearRGB;solid-color:#000000;solid-opacity:1;fill:#ffffff;fill-opacity:1;fill-rule:nonzero;stroke:none;stroke-width:40;stroke-linecap:square;stroke-linejoin:miter;stroke-miterlimit:4;stroke-dasharray:none;stroke-dashoffset:0;stroke-opacity:1;color-rendering:auto;image-rendering:auto;shape-rendering:auto;text-rendering:auto;enable-background:accumulate" />
      <path
         inkscape:connector-curvature="0"
         id="rect4282"
         d="m 406.83115,484.28718 c -0.27669,0 -0.49941,0.2228 -0.49941,0.4994 0,0.2767 0.22272,0.4994 0.49941,0.4994 l 1.01631,0 c 0.42411,-0.3838 0.89238,-0.7195 1.39574,-0.9988 l -2.41205,0 z"
         style="color:#000000;clip-rule:nonzero;display:inline;overflow:visible;visibility:visible;opacity:1;isolation:auto;mix-blend-mode:normal;color-interpolation:sRGB;color-interpolation-filters:linearRGB;solid-color:#000000;solid-opacity:1;fill:#ffffff;fill-opacity:1;fill-rule:nonzero;stroke:none;stroke-width:40;stroke-linecap:square;stroke-linejoin:miter;stroke-miterlimit:4;stroke-dasharray:none;stroke-dashoffset:0;stroke-opacity:1;color-rendering:auto;image-rendering:auto;shape-rendering:auto;text-rendering:auto;enable-background:accumulate" />
      <path
         id="rect4270"
         d="m 400.31648,483.28959 c -0.55337,0 -0.99881,0.4455 -0.99881,0.99889 l 0,0.018 c 0.0405,-0.024 0.0871,-0.038 0.1375,-0.038 l 1.32,0 0,-0.93499 c 0,-0.015 0.002,-0.03 0.004,-0.044 z m 1.00482,0 c 0.002,0.014 0.004,0.029 0.004,0.044 l 0,2.47499 1.00375,0 0,-1.092 c -0.008,-0.025 -0.0137,-0.051 -0.0137,-0.078 l 0,-0.1 c 0,-0.1381 0.11115,-0.2492 0.24922,-0.2492 l 0.0484,0 0.01,0 1.70135,0 0,0 c 0,-0.55339 -0.44555,-0.99889 -0.99892,-0.99889 z m -2.00363,1.46389 0,1.0609 c 0.0178,0 0.0361,-0.01 0.055,-0.01 l 1.4025,0 0,-1.0175 -1.32,0 c -0.0504,0 -0.0969,-0.014 -0.1375,-0.038 z m 3.47875,0.024 0,1.0313 1.52743,0 0,-1.0313 z m -3.47875,1.5208 c 4.4e-4,0.5529 0.44573,0.9979 0.99881,0.9979 l 0.45869,0 0,-0.9924 -1.4025,0 c -0.0189,0 -0.0372,0 -0.055,-0.01 z m 2.0075,0.01 0,0.9924 1.00375,0 0,-0.9924 z m 1.47125,0 0,0.9924 0.52851,0 c 0.55123,0 0.99517,-0.442 0.9986,-0.9924 z"
         style="color:#000000;clip-rule:nonzero;display:inline;overflow:visible;visibility:visible;opacity:1;isolation:auto;mix-blend-mode:normal;color-interpolation:sRGB;color-interpolation-filters:linearRGB;solid-color:#000000;solid-opacity:1;fill:#ffffff;fill-opacity:1;fill-rule:nonzero;stroke:none;stroke-width:20;stroke-linecap:square;stroke-linejoin:round;stroke-miterlimit:4;stroke-dasharray:none;stroke-dashoffset:0;stroke-opacity:1;color-rendering:auto;image-rendering:auto;shape-rendering:auto;text-rendering:auto;enable-background:accumulate"
         inkscape:connector-curvature="0"
         sodipodi:nodetypes="sscscscscscccssscccsscccsccscccccccsccsccccccccscc" />
      <rect
         inkscape:export-ydpi="4.9499998"
         inkscape:export-xdpi="4.9499998"
         y="474.26254"
         x="396.29352"
         height="22"
         width="22"
         id="rect3336"
         style="fill:none;fill-rule:evenodd;stroke:none;stroke-width:1px;stroke-linecap:butt;stroke-linejoin:miter;stroke-opacity:1" />
      <rect
         style="opacity:1;fill:#ffffff;fill-opacity:1;stroke:#ffffff;stroke-width:2.20000005;stroke-linecap:round;stroke-linejoin:round;stroke-miterlimit:4;stroke-dasharray:none;stroke-opacity:1"
         id="rect4313"
         width="6.6206784"
         height="2.0575032"
         x="409.47827"
         y="489.79916"
         ry="0.44816899" />
      <path
         style="fill:#d9463a;fill-opacity:1;fill-rule:evenodd;stroke:none;stroke-width:45.3580246;stroke-miterlimit:4;stroke-dasharray:none;stroke-opacity:1"
         d="m 418.29351,491.26248 c 0,-2.7617 -2.2382,-4.9999 -5,-4.9999 -2.76177,0 -5,2.2382 -5,4.9999 0,2.7619 2.23823,5.0001 5,5.0001 2.7618,0 5,-2.2382 5,-5.0001 z"
         id="path3359"
         inkscape:connector-curvature="0" />
      <rect
         ry="0.43565211"
         y="490.26254"
         x="410.29352"
         height="2.0000393"
         width="6"
         id="rect4202"
         style="opacity:1;fill:#ffffff;fill-opacity:1;stroke:none;stroke-width:45.3580246;stroke-linecap:round;stroke-linejoin:round;stroke-miterlimit:4;stroke-dasharray:none;stroke-opacity:1" />
    </g>
  </g>
</svg>
