<?xml version="1.0" encoding="UTF-8" standalone="no"?>
<!-- Created with Inkscape (http://www.inkscape.org/) -->

<svg
   xmlns:dc="http://purl.org/dc/elements/1.1/"
   xmlns:cc="http://creativecommons.org/ns#"
   xmlns:rdf="http://www.w3.org/1999/02/22-rdf-syntax-ns#"
   xmlns:svg="http://www.w3.org/2000/svg"
   xmlns="http://www.w3.org/2000/svg"
   xmlns:xlink="http://www.w3.org/1999/xlink"
   xmlns:sodipodi="http://sodipodi.sourceforge.net/DTD/sodipodi-0.dtd"
   xmlns:inkscape="http://www.inkscape.org/namespaces/inkscape"
   width="210mm"
   height="297mm"
   viewBox="0 0 744.09448819 1052.3622047"
   id="svg2"
   version="1.1"
   inkscape:version="0.91 r13725"
   inkscape:export-xdpi="4.9499998"
   inkscape:export-ydpi="4.9499998"
   sodipodi:docname="container-add.svg"
   inkscape:export-filename="D:\Dokumente\Arbeit\RRZE\github\bicons\22x22\emblems\container-add.png">
  <defs
     id="defs4">
    <linearGradient
       id="linearGradient2224">
      <stop
         id="stop2226"
         offset="0"
         style="stop-color:#7c7c7c;stop-opacity:1;" />
      <stop
         id="stop2228"
         offset="1"
         style="stop-color:#b8b8b8;stop-opacity:1;" />
    </linearGradient>
    <linearGradient
       id="linearGradient15218">
      <stop
         id="stop15220"
         offset="0"
         style="stop-color:#eeeeef;stop-opacity:1;" />
      <stop
         id="stop2736"
         offset="0.59928656"
         style="stop-color:#d3d7cf;stop-opacity:1;" />
      <stop
         id="stop2738"
         offset="0.82758623"
         style="stop-color:#ffffff;stop-opacity:1;" />
      <stop
         id="stop15222"
         offset="1"
         style="stop-color:#d3d7cf;stop-opacity:1;" />
    </linearGradient>
    <pattern
       y="0"
       x="0"
       height="6"
       width="6"
       patternUnits="userSpaceOnUse"
       id="EMFhbasepattern" />
    <pattern
       y="0"
       x="0"
       height="6"
       width="6"
       patternUnits="userSpaceOnUse"
       id="EMFhbasepattern-5" />
    <pattern
       y="0"
       x="0"
       height="6"
       width="6"
       patternUnits="userSpaceOnUse"
       id="EMFhbasepattern-7" />
    <linearGradient
       inkscape:collect="always"
       xlink:href="#linearGradient4382"
       id="linearGradient4388"
       x1="145.44"
       y1="400"
       x2="272.70001"
       y2="127.25993"
       gradientUnits="userSpaceOnUse"
       gradientTransform="matrix(0.0549998,0,0,0.0549998,380.73724,581.74334)" />
    <linearGradient
       inkscape:collect="always"
       id="linearGradient4382">
      <stop
         style="stop-color:#4e505d;stop-opacity:1;"
         offset="0"
         id="stop4384" />
      <stop
         style="stop-color:#7a859c;stop-opacity:1"
         offset="1"
         id="stop4386" />
    </linearGradient>
  </defs>
  <sodipodi:namedview
     id="base"
     pagecolor="#ffffff"
     bordercolor="#666666"
     borderopacity="1.0"
     inkscape:pageopacity="0.0"
     inkscape:pageshadow="2"
     inkscape:zoom="0.70710678"
     inkscape:cx="-93.057841"
     inkscape:cy="506.40012"
     inkscape:document-units="px"
     inkscape:current-layer="layer1"
     showgrid="false"
     showguides="true"
     inkscape:guide-bbox="true"
     inkscape:window-width="1600"
     inkscape:window-height="837"
     inkscape:window-x="-4"
     inkscape:window-y="-4"
     inkscape:window-maximized="1"
     inkscape:snap-bbox="true"
     inkscape:bbox-paths="true"
     inkscape:bbox-nodes="true"
     inkscape:snap-nodes="false">
    <sodipodi:guide
       position="560,730.00002"
       orientation="0,1"
       id="guide3338" />
    <sodipodi:guide
       position="560,330.00001"
       orientation="0,1"
       id="guide3340" />
    <sodipodi:guide
       position="190,475.00001"
       orientation="1,0"
       id="guide3344" />
    <sodipodi:guide
       position="590,451.00001"
       orientation="1,0"
       id="guide3346" />
    <inkscape:grid
       type="xygrid"
       id="grid3440" />
  </sodipodi:namedview>
  <metadata
     id="metadata7">
    <rdf:RDF>
      <cc:Work
         rdf:about="">
        <dc:format>image/svg+xml</dc:format>
        <dc:type
           rdf:resource="http://purl.org/dc/dcmitype/StillImage" />
        <dc:title>container add</dc:title>
        <dc:date>June 2015</dc:date>
        <dc:creator>
          <cc:Agent>
            <dc:title>Johannes Hechler</dc:title>
          </cc:Agent>
        </dc:creator>
        <dc:rights>
          <cc:Agent>
            <dc:title>Johannes Hechler</dc:title>
          </cc:Agent>
        </dc:rights>
        <dc:publisher>
          <cc:Agent>
            <dc:title>RRZE</dc:title>
          </cc:Agent>
        </dc:publisher>
        <dc:contributor>
          <cc:Agent>
            <dc:title>Ute Weber, Hendrik Eggers</dc:title>
          </cc:Agent>
        </dc:contributor>
      </cc:Work>
    </rdf:RDF>
  </metadata>
  <g
     inkscape:label="Ebene 1"
     inkscape:groupmode="layer"
     id="layer1">
    <g
       id="g4185"
       transform="matrix(18.181751,0,0,18.181751,-6732.4675,-10254.748)">
      <rect
         y="581.74335"
         x="380.73712"
         height="21.99992"
         width="21.99992"
         id="rect4160"
         style="opacity:1;fill:none;fill-opacity:1;stroke:none;stroke-width:23;stroke-linecap:butt;stroke-linejoin:round;stroke-miterlimit:4;stroke-dasharray:none;stroke-opacity:1" />
      <path
         id="rect4329"
         d="m 392.11153,585.74294 c -0.23301,0.05 -0.38533,0.2398 -0.38533,0.4713 10e-6,0.1488 0.063,0.2803 0.16962,0.3688 l -0.15973,0.1598 0.77988,0 6.88926,5.9993 1.32988,0 -7.99914,-6.9992 -0.0685,0.069 c -0.0886,-0.01 -0.17613,-0.023 -0.26017,-0.052 -0.0191,-0.01 -0.0387,-0.012 -0.0584,-0.016 l -0.23729,0 z m -2.88782,2.1983 -5.48687,4.8009 1.21999,0 4.91689,-3.9944 c -0.16289,-0.1796 -0.52674,-0.5964 -0.65001,-0.8065 z m -5.98681,5.8008 c -0.27697,0 -0.49994,0.223 -0.49994,0.5 0,0.2769 0.22297,0.4999 0.49994,0.4999 l 0.49994,0 0,7.9991 -0.49876,0 c -0.27758,0 -0.50112,0.2236 -0.50112,0.5012 0,0.2775 0.22354,0.501 0.50112,0.501 l 11.20911,0 c -1.62463,-1.074 -2.70122,-2.9166 -2.70122,-5.0006 0,-2.0839 1.07648,-3.9266 2.70101,-5.0006 l -10.21009,0 -0.99999,0 z m 17.78921,0 c 0.24986,0.1652 0.48677,0.3486 0.70877,0.5482 0.002,-0.016 0.002,-0.032 0.002,-0.048 0,-0.277 -0.22297,-0.5 -0.49994,-0.5 l -0.2113,0 z m -3.28957,0.99 c -2.22674,0 -4.01058,1.7839 -4.01058,4.0106 0,0.1907 0.0141,0.3779 0.0394,0.5613 0.21133,-2.3969 2.13637,-4.3216 4.5334,-4.5325 -0.1837,-0.025 -0.37118,-0.039 -0.56225,-0.039 z m 0.99999,1.9999 c -1.67451,0 -3.01081,1.3361 -3.01081,3.0106 0,1.5149 1.09379,2.7528 2.54224,2.975 0.97996,-0.128 1.84481,-0.6045 2.46715,-1.3033 l 0,-3.9307 c -0.52999,-0.4684 -1.22825,-0.7516 -1.99858,-0.7516 z"
         style="opacity:1;fill:url(#linearGradient4388);fill-opacity:1;stroke:none;stroke-width:36;stroke-linejoin:round;stroke-miterlimit:4;stroke-dasharray:none;stroke-opacity:1"
         inkscape:connector-curvature="0" />
      <path
         id="rect4335"
         d="m 385.23677,594.74194 c -0.27698,0 -0.49994,0.223 -0.49994,0.4999 l 0,6.9993 c 0,0.277 0.22296,0.4999 0.49994,0.4999 0.27697,0 0.49994,-0.2229 0.49994,-0.4999 l 0,-6.9993 c 0,-0.2769 -0.22297,-0.4999 -0.49994,-0.4999 z m 1.99975,0 c -0.27697,0 -0.49994,0.223 -0.49994,0.4999 l 0,6.9993 c 0,0.277 0.22297,0.4999 0.49994,0.4999 0.27698,0 0.49994,-0.2229 0.49994,-0.4999 l 0,-6.9993 c 0,-0.2769 -0.22296,-0.4999 -0.49994,-0.4999 z m 1.99976,0 c -0.27697,0 -0.49994,0.223 -0.49994,0.4999 l 0,6.9993 c 0,0.277 0.22297,0.4999 0.49994,0.4999 0.27697,0 0.49994,-0.2229 0.49994,-0.4999 l 0,-6.9993 c 0,-0.2769 -0.22297,-0.4999 -0.49994,-0.4999 z m 1.99987,0 c -0.27697,0 -0.49994,0.223 -0.49994,0.4999 l 0,6.9993 c 0,0.277 0.22297,0.4999 0.49994,0.4999 0.26024,0 0.47274,-0.1968 0.49747,-0.4504 -0.62021,-1.0417 -0.97765,-2.2554 -0.97765,-3.548 0,-1.2927 0.35747,-2.5066 0.97775,-3.5483 -0.0238,-0.2545 -0.23668,-0.4524 -0.49757,-0.4524 z m 2.4997,1.0055 c -0.44668,0.5951 -0.76464,1.2921 -0.91019,2.05 0.14566,-0.7571 0.46369,-1.4536 0.91019,-2.0485 l 0,0 z m -0.91019,2.05 c -0.0274,0.1428 -0.0489,0.2878 -0.0638,0.4346 0.015,-0.1468 0.0363,-0.2918 0.0638,-0.4346 z m -0.0638,1.4558 c 0.002,0.024 0.006,0.048 0.009,0.072 10e-6,-10e-5 1.1e-4,-3e-4 1.1e-4,-4e-4 -0.003,-0.024 -0.007,-0.048 -0.009,-0.072 z"
         style="opacity:1;fill:#ffffff;fill-opacity:1;stroke:none;stroke-width:36;stroke-linejoin:round;stroke-miterlimit:4;stroke-dasharray:none;stroke-opacity:1"
         inkscape:connector-curvature="0" />
      <path
         id="path4351"
         d="m 392.23603,581.74334 c -0.27697,0 -0.49994,0.2229 -0.49994,0.4999 l 0,1.4972 a 2.499741,2.4997397 0 0 0 -1.99987,2.4491 2.499741,2.4997397 0 0 0 2.49981,2.4997 2.499741,2.4997397 0 0 0 1.00192,-0.2122 l -0.86818,-0.7442 -0.63368,0 a 0.9900954,0.9900954 0 0 1 -0.96443,-1.2082 1.4998444,1.475162 0 0 1 -0.0354,-0.3103 1.4998444,1.475162 0 0 1 1.45298,-1.4737 c 0.0154,0 0.031,0 0.0468,0 0.0127,0 0.0251,-9e-4 0.0376,0 a 1.4998444,1.475162 0 0 1 0.27071,0.031 0.9900954,0.9900954 0 0 1 0.19164,-0.019 l 0,-0.5106 0,-0.5 0,-1.4998 c 0,-0.277 -0.22297,-0.4999 -0.49994,-0.4999 z m 2.99963,3.9996 a 0.49994819,0.49994787 0 0 0 -0.49994,0.4999 0.49994819,0.49994787 0 0 0 0.49994,0.5 0.49994819,0.49994787 0 0 0 0.49994,-0.5 0.49994819,0.49994787 0 0 0 -0.49994,-0.4999 z"
         style="opacity:1;fill:#4e505d;fill-opacity:1;stroke:none;stroke-width:36;stroke-linejoin:round;stroke-miterlimit:4;stroke-dasharray:none;stroke-opacity:1"
         inkscape:connector-curvature="0" />
      <ellipse
         ry="5.0005841"
         rx="5.0006309"
         cy="598.74261"
         cx="397.73657"
         id="path4470"
         style="opacity:1;fill:#99b000;fill-opacity:1;stroke:none;stroke-width:36;stroke-linejoin:round;stroke-miterlimit:4;stroke-dasharray:none;stroke-opacity:1" />
      <rect
         y="594.74323"
         x="396.73724"
         height="8"
         width="2"
         id="rect4381"
         style="color:#000000;clip-rule:nonzero;display:inline;overflow:visible;visibility:visible;opacity:1;isolation:auto;mix-blend-mode:normal;color-interpolation:sRGB;color-interpolation-filters:linearRGB;solid-color:#000000;solid-opacity:1;fill:#ffffff;fill-opacity:1;fill-rule:nonzero;stroke:none;stroke-width:2;stroke-linecap:butt;stroke-linejoin:round;stroke-miterlimit:4;stroke-dasharray:none;stroke-dashoffset:0;stroke-opacity:1;color-rendering:auto;image-rendering:auto;shape-rendering:auto;text-rendering:auto;enable-background:accumulate" />
      <rect
         y="597.74323"
         x="393.73724"
         height="2"
         width="8"
         id="rect4383"
         style="color:#000000;clip-rule:nonzero;display:inline;overflow:visible;visibility:visible;opacity:1;isolation:auto;mix-blend-mode:normal;color-interpolation:sRGB;color-interpolation-filters:linearRGB;solid-color:#000000;solid-opacity:1;fill:#ffffff;fill-opacity:1;fill-rule:nonzero;stroke:none;stroke-width:2;stroke-linecap:butt;stroke-linejoin:round;stroke-miterlimit:4;stroke-dasharray:none;stroke-dashoffset:0;stroke-opacity:1;color-rendering:auto;image-rendering:auto;shape-rendering:auto;text-rendering:auto;enable-background:accumulate" />
    </g>
  </g>
</svg>
