<?xml version="1.0" encoding="UTF-8" standalone="no"?>
<!-- Created with Inkscape (http://www.inkscape.org/) -->

<svg
   xmlns:dc="http://purl.org/dc/elements/1.1/"
   xmlns:cc="http://creativecommons.org/ns#"
   xmlns:rdf="http://www.w3.org/1999/02/22-rdf-syntax-ns#"
   xmlns:svg="http://www.w3.org/2000/svg"
   xmlns="http://www.w3.org/2000/svg"
   xmlns:xlink="http://www.w3.org/1999/xlink"
   xmlns:sodipodi="http://sodipodi.sourceforge.net/DTD/sodipodi-0.dtd"
   xmlns:inkscape="http://www.inkscape.org/namespaces/inkscape"
   width="210mm"
   height="297mm"
   viewBox="0 0 744.09448819 1052.3622047"
   id="svg2"
   version="1.1"
   inkscape:version="0.91 r13725"
   inkscape:export-xdpi="4.9499817"
   inkscape:export-ydpi="4.9499817"
   sodipodi:docname="container-started.svg"
   inkscape:export-filename="D:\Dokumente\Arbeit\RRZE\github\bicons\22x22\emblems\container-started.png">
  <defs
     id="defs4">
    <linearGradient
       id="linearGradient2224">
      <stop
         id="stop2226"
         offset="0"
         style="stop-color:#7c7c7c;stop-opacity:1;" />
      <stop
         id="stop2228"
         offset="1"
         style="stop-color:#b8b8b8;stop-opacity:1;" />
    </linearGradient>
    <linearGradient
       id="linearGradient15218">
      <stop
         id="stop15220"
         offset="0"
         style="stop-color:#eeeeef;stop-opacity:1;" />
      <stop
         id="stop2736"
         offset="0.59928656"
         style="stop-color:#d3d7cf;stop-opacity:1;" />
      <stop
         id="stop2738"
         offset="0.82758623"
         style="stop-color:#ffffff;stop-opacity:1;" />
      <stop
         id="stop15222"
         offset="1"
         style="stop-color:#d3d7cf;stop-opacity:1;" />
    </linearGradient>
    <pattern
       y="0"
       x="0"
       height="6"
       width="6"
       patternUnits="userSpaceOnUse"
       id="EMFhbasepattern" />
    <pattern
       y="0"
       x="0"
       height="6"
       width="6"
       patternUnits="userSpaceOnUse"
       id="EMFhbasepattern-5" />
    <pattern
       y="0"
       x="0"
       height="6"
       width="6"
       patternUnits="userSpaceOnUse"
       id="EMFhbasepattern-8" />
    <linearGradient
       inkscape:collect="always"
       xlink:href="#linearGradient4382"
       id="linearGradient4388"
       x1="145.44"
       y1="400"
       x2="272.70001"
       y2="127.25993"
       gradientUnits="userSpaceOnUse"
       gradientTransform="translate(189.99999,322.36229)" />
    <linearGradient
       inkscape:collect="always"
       id="linearGradient4382">
      <stop
         style="stop-color:#4e505d;stop-opacity:1;"
         offset="0"
         id="stop4384" />
      <stop
         style="stop-color:#7a859c;stop-opacity:1"
         offset="1"
         id="stop4386" />
    </linearGradient>
  </defs>
  <sodipodi:namedview
     id="base"
     pagecolor="#ffffff"
     bordercolor="#666666"
     borderopacity="1.0"
     inkscape:pageopacity="0.0"
     inkscape:pageshadow="2"
     inkscape:zoom="0.7071068"
     inkscape:cx="207.29783"
     inkscape:cy="524.21989"
     inkscape:document-units="px"
     inkscape:current-layer="layer1"
     showgrid="false"
     showguides="true"
     inkscape:guide-bbox="true"
     inkscape:window-width="1600"
     inkscape:window-height="837"
     inkscape:window-x="-4"
     inkscape:window-y="-4"
     inkscape:window-maximized="1"
     inkscape:snap-bbox="true"
     inkscape:bbox-paths="true"
     inkscape:bbox-nodes="true">
    <sodipodi:guide
       position="560,730.00002"
       orientation="0,1"
       id="guide3338" />
    <sodipodi:guide
       position="560,330.00001"
       orientation="0,1"
       id="guide3340" />
    <sodipodi:guide
       position="190,475.00001"
       orientation="1,0"
       id="guide3344" />
    <sodipodi:guide
       position="590,451.00001"
       orientation="1,0"
       id="guide3346" />
    <inkscape:grid
       type="xygrid"
       id="grid3440" />
  </sodipodi:namedview>
  <metadata
     id="metadata7">
    <rdf:RDF>
      <cc:Work
         rdf:about="">
        <dc:format>image/svg+xml</dc:format>
        <dc:type
           rdf:resource="http://purl.org/dc/dcmitype/StillImage" />
        <dc:title>container started</dc:title>
        <dc:date>June 2015</dc:date>
        <dc:creator>
          <cc:Agent>
            <dc:title>Johannes Hechler</dc:title>
          </cc:Agent>
        </dc:creator>
        <dc:rights>
          <cc:Agent>
            <dc:title>Johannes Hechler</dc:title>
          </cc:Agent>
        </dc:rights>
        <dc:publisher>
          <cc:Agent>
            <dc:title>RRZE</dc:title>
          </cc:Agent>
        </dc:publisher>
        <dc:contributor>
          <cc:Agent>
            <dc:title>Ute Weber, Hendrik Eggers</dc:title>
          </cc:Agent>
        </dc:contributor>
      </cc:Work>
    </rdf:RDF>
  </metadata>
  <g
     inkscape:label="Ebene 1"
     inkscape:groupmode="layer"
     id="layer1">
    <g
       id="g4201">
      <rect
         y="322.36221"
         x="190"
         height="400"
         width="400"
         id="rect4160"
         style="opacity:1;fill:none;fill-opacity:1;stroke:none;stroke-width:23;stroke-linecap:butt;stroke-linejoin:round;stroke-miterlimit:4;stroke-dasharray:none;stroke-opacity:1" />
      <path
         id="rect4329"
         d="m 396.80664,395.08292 c -4.23648,0.91255 -7.00602,4.3606 -7.00586,8.57032 9e-5,2.70438 1.14528,5.09561 3.08399,6.70507 l -2.9043,2.9043 14.17969,0 125.25976,109.08008 24.17969,0 -145.43945,-127.25977 -1.2461,1.2461 c -1.61049,-0.10594 -3.20241,-0.41802 -4.73047,-0.94922 -0.34644,-0.12195 -0.70297,-0.21616 -1.0625,-0.29688 l -4.31445,0 z m -52.50586,39.96875 -99.76172,87.29102 22.18164,0 89.39844,-72.62695 c -2.96161,-3.26481 -9.5772,-10.84286 -11.81836,-14.66407 z M 235.44922,540.52238 c -5.03586,0 -9.08985,4.05398 -9.08985,9.08984 0,5.03586 4.05399,9.08984 9.08985,9.08984 l 9.08984,0 0,145.43942 -9.06836,0 c -5.04698,0 -9.11133,4.0644 -9.11133,9.1114 0,5.047 4.06435,9.1093 9.11133,9.1093 l 203.80274,0 c -29.53894,-19.5271 -49.11328,-53.02971 -49.11328,-90.91988 0,-37.88861 19.57246,-71.39243 49.10937,-90.91992 l -185.63867,0 -18.18164,0 z m 323.4414,0 c 4.54291,3.00335 8.85034,6.33694 12.88672,9.96679 0.0274,-0.28885 0.0449,-0.58067 0.0449,-0.87695 0,-5.03586 -4.05399,-9.08984 -9.08985,-9.08984 l -3.8418,0 z m -59.81054,18 c -40.48639,0 -72.91992,32.43418 -72.91992,72.91992 0,3.46778 0.2562,6.87076 0.71679,10.20508 3.84247,-43.57993 38.8433,-78.57355 82.42578,-82.40821 -3.33995,-0.46218 -6.74875,-0.71679 -10.22265,-0.71679 z m 18.18164,36.36132 c -30.44576,0 -54.74219,24.29308 -54.74219,54.73829 0,27.54419 19.88712,50.05219 46.22266,54.09179 17.81748,-2.3268 33.54213,-10.9911 44.85742,-23.6973 l 0,-71.46676 c -9.6361,-8.51619 -22.3318,-13.66602 -36.33789,-13.66602 z"
         style="opacity:1;fill:url(#linearGradient4388);fill-opacity:1;stroke:none;stroke-width:36;stroke-linejoin:round;stroke-miterlimit:4;stroke-dasharray:none;stroke-opacity:1"
         inkscape:connector-curvature="0" />
      <path
         id="rect4335"
         d="m 271.81055,558.70206 c -5.03586,0 -9.08985,4.05405 -9.08985,9.08985 l 0,127.25977 c 0,5.0359 4.05399,9.0898 9.08985,9.0898 5.03585,0 9.08984,-4.0539 9.08984,-9.0898 l 0,-127.25977 c 0,-5.0358 -4.05399,-9.08985 -9.08984,-9.08985 z m 36.35937,0 c -5.03585,0 -9.08984,4.05405 -9.08984,9.08985 l 0,127.25977 c 0,5.0359 4.05399,9.0898 9.08984,9.0898 5.03586,0 9.08985,-4.0539 9.08985,-9.0898 l 0,-127.25977 c 0,-5.0358 -4.05399,-9.08985 -9.08985,-9.08985 z m 36.35938,0 c -5.03586,0 -9.08985,4.05405 -9.08985,9.08985 l 0,127.25977 c 0,5.0359 4.05399,9.0898 9.08985,9.0898 5.03585,0 9.08984,-4.0539 9.08984,-9.0898 l 0,-127.25977 c 0,-5.0358 -4.05399,-9.08985 -9.08984,-9.08985 z m 36.36132,0 c -5.03585,0 -9.08984,4.05405 -9.08984,9.08985 l 0,127.25977 c 0,5.0359 4.05399,9.0898 9.08984,9.0898 4.7317,0 8.5953,-3.5797 9.04493,-8.1894 -11.27658,-18.9402 -17.77539,-41.00805 -17.77539,-64.50978 0,-23.50328 6.49939,-45.57462 17.77734,-64.51563 -0.43355,-4.6264 -4.3033,-8.22461 -9.04688,-8.22461 z m 45.44922,18.28125 c -8.12142,10.82079 -13.90255,23.49267 -16.54882,37.27344 2.64832,-13.76536 8.43069,-26.42917 16.54882,-37.24609 l 0,-0.0273 z m -16.54882,37.27344 c -0.49861,2.59653 -0.88828,5.23309 -1.16016,7.90235 0.27245,-2.66934 0.66054,-5.30545 1.16016,-7.90235 z m -1.16016,26.46875 c 0.0448,0.44036 0.11097,0.874 0.16211,1.3125 1.4e-4,-0.002 0.002,-0.004 0.002,-0.006 -0.051,-0.43675 -0.11929,-0.86804 -0.16406,-1.30664 z"
         style="opacity:1;fill:#ffffff;fill-opacity:1;stroke:none;stroke-width:36;stroke-linejoin:round;stroke-miterlimit:4;stroke-dasharray:none;stroke-opacity:1"
         inkscape:connector-curvature="0" />
      <path
         id="path4351"
         d="m 399.07029,322.36227 c -5.03585,0 -9.08984,4.05399 -9.08984,9.08985 l 0,27.22265 a 45.450001,45.449978 0 0 0 -36.36133,44.5293 45.450001,45.449978 0 0 0 45.45117,45.44922 45.450001,45.449978 0 0 0 18.2168,-3.85938 l -15.78516,-13.53125 -11.52148,0 a 18.0018,18.0018 0 0 1 -17.53516,-21.96679 27.269997,26.821224 0 0 1 -0.64453,-5.64258 27.269997,26.821224 0 0 1 26.41797,-26.79297 c 0.28071,0.0259 0.56388,0.041 0.85156,0.041 0.23095,0 0.45708,-0.0164 0.6836,-0.0332 a 27.269997,26.821224 0 0 1 4.92187,0.56641 18.0018,18.0018 0 0 1 3.48438,-0.33789 l 0,-9.28516 0,-9.08984 0,-27.26954 c 0,-5.03586 -4.05399,-9.08985 -9.08985,-9.08985 z m 54.53908,72.72071 a 9.0900002,9.0899944 0 0 0 -9.08986,9.08984 9.0900002,9.0899944 0 0 0 9.08986,9.08984 9.0900002,9.0899944 0 0 0 9.08983,-9.08984 9.0900002,9.0899944 0 0 0 -9.08983,-9.08984 z"
         style="opacity:1;fill:#4e505d;fill-opacity:1;stroke:none;stroke-width:36;stroke-linejoin:round;stroke-miterlimit:4;stroke-dasharray:none;stroke-opacity:1"
         inkscape:connector-curvature="0" />
      <ellipse
         ry="90.920044"
         rx="90.920891"
         cy="631.44214"
         cx="499.0806"
         id="path4470"
         style="opacity:1;fill:#99b000;fill-opacity:1;stroke:none;stroke-width:36;stroke-linejoin:round;stroke-miterlimit:4;stroke-dasharray:none;stroke-opacity:1" />
      <path
         style="fill:#ffffff;fill-rule:evenodd;stroke:none;stroke-width:1px;stroke-linecap:butt;stroke-linejoin:miter;stroke-opacity:1"
         d="m 462.7,576.8821 0,109.07998 90.89997,-54.54002 z"
         id="path4504"
         inkscape:connector-curvature="0" />
    </g>
  </g>
</svg>
