<?xml version="1.0" encoding="UTF-8" standalone="no"?>
<!-- Created with Inkscape (http://www.inkscape.org/) -->

<svg
   xmlns:dc="http://purl.org/dc/elements/1.1/"
   xmlns:cc="http://creativecommons.org/ns#"
   xmlns:rdf="http://www.w3.org/1999/02/22-rdf-syntax-ns#"
   xmlns:svg="http://www.w3.org/2000/svg"
   xmlns="http://www.w3.org/2000/svg"
   xmlns:sodipodi="http://sodipodi.sourceforge.net/DTD/sodipodi-0.dtd"
   xmlns:inkscape="http://www.inkscape.org/namespaces/inkscape"
   width="210mm"
   height="297mm"
   viewBox="0 0 744.09448819 1052.3622047"
   id="svg2"
   version="1.1"
   inkscape:version="0.91 r13725"
   inkscape:export-xdpi="4.9499817"
   inkscape:export-ydpi="4.9499817"
   sodipodi:docname="container-image.svg"
   inkscape:export-filename="D:\Dokumente\Arbeit\RRZE\github\bicons\22x22\emblems\container-image.png">
  <defs
     id="defs4">
    <marker
       inkscape:stockid="Arrow1Lstart"
       orient="auto"
       refY="0.0"
       refX="0.0"
       id="Arrow1Lstart"
       style="overflow:visible"
       inkscape:isstock="true">
      <path
         id="path4298"
         d="M 0.0,0.0 L 5.0,-5.0 L -12.5,0.0 L 5.0,5.0 L 0.0,0.0 z "
         style="fill-rule:evenodd;stroke:#4e505d;stroke-width:1pt;stroke-opacity:1;fill:#4e505d;fill-opacity:1"
         transform="scale(0.8) translate(12.5,0)" />
    </marker>
    <linearGradient
       id="linearGradient2224">
      <stop
         id="stop2226"
         offset="0"
         style="stop-color:#7c7c7c;stop-opacity:1;" />
      <stop
         id="stop2228"
         offset="1"
         style="stop-color:#b8b8b8;stop-opacity:1;" />
    </linearGradient>
    <linearGradient
       id="linearGradient15218">
      <stop
         id="stop15220"
         offset="0"
         style="stop-color:#eeeeef;stop-opacity:1;" />
      <stop
         id="stop2736"
         offset="0.59928656"
         style="stop-color:#d3d7cf;stop-opacity:1;" />
      <stop
         id="stop2738"
         offset="0.82758623"
         style="stop-color:#ffffff;stop-opacity:1;" />
      <stop
         id="stop15222"
         offset="1"
         style="stop-color:#d3d7cf;stop-opacity:1;" />
    </linearGradient>
    <pattern
       y="0"
       x="0"
       height="6"
       width="6"
       patternUnits="userSpaceOnUse"
       id="EMFhbasepattern" />
    <pattern
       y="0"
       x="0"
       height="6"
       width="6"
       patternUnits="userSpaceOnUse"
       id="EMFhbasepattern-5" />
  </defs>
  <sodipodi:namedview
     id="base"
     pagecolor="#ffffff"
     bordercolor="#666666"
     borderopacity="1.0"
     inkscape:pageopacity="0.0"
     inkscape:pageshadow="2"
     inkscape:zoom="1"
     inkscape:cx="327.85618"
     inkscape:cy="550.95377"
     inkscape:document-units="px"
     inkscape:current-layer="layer1"
     showgrid="false"
     showguides="true"
     inkscape:guide-bbox="true"
     inkscape:window-width="1600"
     inkscape:window-height="837"
     inkscape:window-x="-4"
     inkscape:window-y="-4"
     inkscape:window-maximized="1"
     inkscape:snap-bbox="true"
     inkscape:bbox-paths="true"
     inkscape:bbox-nodes="true">
    <sodipodi:guide
       position="560,730.00002"
       orientation="0,1"
       id="guide3338" />
    <sodipodi:guide
       position="560,330.00001"
       orientation="0,1"
       id="guide3340" />
    <sodipodi:guide
       position="190,475.00001"
       orientation="1,0"
       id="guide3344" />
    <sodipodi:guide
       position="590,451.00001"
       orientation="1,0"
       id="guide3346" />
    <inkscape:grid
       type="xygrid"
       id="grid3440" />
  </sodipodi:namedview>
  <metadata
     id="metadata7">
    <rdf:RDF>
      <cc:Work
         rdf:about="">
        <dc:format>image/svg+xml</dc:format>
        <dc:type
           rdf:resource="http://purl.org/dc/dcmitype/StillImage" />
        <dc:title>container image</dc:title>
        <dc:date>June 2015</dc:date>
        <dc:creator>
          <cc:Agent>
            <dc:title>Johannes Hechler</dc:title>
          </cc:Agent>
        </dc:creator>
        <dc:rights>
          <cc:Agent>
            <dc:title>Johannes Hechler</dc:title>
          </cc:Agent>
        </dc:rights>
        <dc:publisher>
          <cc:Agent>
            <dc:title>RRZE</dc:title>
          </cc:Agent>
        </dc:publisher>
        <dc:contributor>
          <cc:Agent>
            <dc:title>Ute Weber, Hendrik Eggers</dc:title>
          </cc:Agent>
        </dc:contributor>
      </cc:Work>
    </rdf:RDF>
  </metadata>
  <g
     inkscape:label="Ebene 1"
     inkscape:groupmode="layer"
     id="layer1">
    <g
       id="g4167">
      <rect
         y="322.36212"
         x="189.99852"
         height="400"
         width="400"
         id="rect4160"
         style="opacity:1;fill:none;fill-opacity:1;stroke:none;stroke-width:23;stroke-linecap:butt;stroke-linejoin:round;stroke-miterlimit:4;stroke-dasharray:none;stroke-opacity:1" />
      <path
         sodipodi:nodetypes="cscccccccccccccccsssccssssssccsssccs"
         inkscape:connector-curvature="0"
         id="rect4329"
         d="m 396.80517,395.0829 c -4.23648,0.91255 -7.00602,4.36059 -7.00586,8.57031 9e-5,2.70438 1.14528,5.09562 3.08399,6.70508 l -2.9043,2.9043 14.17969,0 125.25976,109.08008 24.17969,0 -145.43945,-127.25977 -1.2461,1.24609 c -1.61049,-0.10594 -3.20241,-0.41801 -4.73047,-0.94921 -0.34644,-0.12195 -0.70297,-0.21616 -1.0625,-0.29688 z m -52.50586,39.96875 -99.76172,87.29102 22.18164,0 89.39844,-72.62695 c -2.96161,-3.26481 -9.5772,-10.84286 -11.81836,-14.66407 z M 235.44869,558.70236 c -5.03586,0 -9.08984,4.05398 -9.08984,9.08984 0,5.03586 4.05536,8.97183 9.08984,9.08984 l 9.08984,0 -5.8e-4,109.07998 -9.06836,0 c -5.04698,0 -9.11132,4.0643 -9.11132,9.1113 0,5.047 4.06434,9.1094 9.11132,9.1094 l 327.24219,0 c 5.04699,0 9.10903,-4.133 9.10903,-9.18 0,-5.047 -4.123,-9.8227 -9.10903,-9.0407 l -9.11328,0 5.8e-4,-109.07998 9.13281,0 c 5.03586,0 9.08985,-4.05398 9.08985,-9.08984 0,-5.03586 -4.05429,-9.14534 -9.08985,-9.08984 l -18.22265,0 -290.87891,0 z"
         style="opacity:1;fill:#9ea6b7;fill-opacity:1;stroke:none;stroke-width:36;stroke-linejoin:round;stroke-miterlimit:4;stroke-dasharray:none;stroke-opacity:1" />
      <path
         inkscape:connector-curvature="0"
         id="rect4335"
         d="m 271.80916,576.88204 c -5.03586,0 -9.08985,3.04052 -9.08985,6.81738 l 0,95.4452 c 0,3.7769 4.05399,6.8174 9.08985,6.8174 5.03585,0 9.08984,-3.0405 9.08984,-6.8174 l 0,-95.4452 c 0,-3.77686 -4.05399,-6.81738 -9.08984,-6.81738 z m 36.35937,0 c -5.03585,0 -9.08984,3.04052 -9.08984,6.81738 l 0,95.4452 c 0,3.7769 4.05399,6.8174 9.08984,6.8174 5.03586,0 9.08985,-3.0405 9.08985,-6.8174 l 0,-95.4452 c 0,-3.77686 -4.05399,-6.81738 -9.08985,-6.81738 z m 36.35938,0 c -5.03586,0 -9.08985,3.04052 -9.08985,6.81738 l 0,95.4452 c 0,3.7769 4.05399,6.8174 9.08985,6.8174 5.03585,0 9.08984,-3.0405 9.08984,-6.8174 l 0,-95.4452 c 0,-3.77686 -4.05399,-6.81738 -9.08984,-6.81738 z m 36.36132,0 c -5.03585,0 -9.08984,3.04052 -9.08984,6.81738 l 0,95.4452 c 0,3.7769 4.05399,6.8174 9.08984,6.8174 5.03586,0 9.08985,-3.0405 9.08985,-6.8174 l 0,-95.4452 c 0,-3.77686 -4.05399,-6.81738 -9.08985,-6.81738 z m 36.35938,0 c -5.0358,0 -9.08984,3.04052 -9.08984,6.81738 l 0,95.4452 c 0,3.7769 4.05404,6.8174 9.08984,6.8174 5.0359,0 9.0898,-3.0405 9.0898,-6.8174 l 0,-95.4452 c 0,-3.77686 -4.0539,-6.81738 -9.0898,-6.81738 z m 36.3594,0 c -5.0359,0 -9.0899,3.04052 -9.0899,6.81738 l 0,95.4452 c 0,3.7769 4.054,6.8174 9.0899,6.8174 5.0358,0 9.0898,-3.0405 9.0898,-6.8174 l 0,-95.4452 c 0,-3.77686 -4.054,-6.81738 -9.0898,-6.81738 z m 36.3613,0 c -5.0358,0 -9.0898,3.04052 -9.0898,6.81738 l 0,95.4452 c 0,3.7769 4.054,6.8174 9.0898,6.8174 5.0359,0 9.0899,-3.0405 9.0899,-6.8174 l 0,-95.4452 c 0,-3.77686 -4.054,-6.81738 -9.0899,-6.81738 z m 36.3594,0 c -5.0359,0 -9.0899,3.04052 -9.0899,6.81738 l 0,95.4452 c 0,3.7769 4.054,6.8174 9.0899,6.8174 5.0358,0 9.0898,-3.0405 9.0898,-6.8174 l 0,-95.4452 c 0,-3.77686 -4.054,-6.81738 -9.0898,-6.81738 z"
         style="opacity:1;fill:#ffffff;fill-opacity:1;stroke:none;stroke-width:36;stroke-linejoin:round;stroke-miterlimit:4;stroke-dasharray:none;stroke-opacity:1" />
      <path
         id="path4351"
         d="m 399.06883,322.36218 c -5.03585,0 -9.08984,4.05399 -9.08984,9.08984 l 0,27.22266 a 45.450001,45.449978 0 0 0 -36.36133,44.52929 45.450001,45.449978 0 0 0 45.45117,45.44923 45.450001,45.449978 0 0 0 18.2168,-3.85938 l -15.78516,-13.53125 -11.52148,0 a 18.0018,18.0018 0 0 1 -17.53516,-21.9668 27.269997,26.821224 0 0 1 -0.64453,-5.64258 27.269997,26.821224 0 0 1 26.41797,-26.79297 c 0.28071,0.0259 0.56388,0.041 0.85156,0.041 0.23095,0 0.45708,-0.0165 0.6836,-0.0332 a 27.269997,26.821224 0 0 1 4.92187,0.56641 18.0018,18.0018 0 0 1 3.48438,-0.33789 l 0,-9.28516 0,-9.08984 0,-27.26953 c 0,-5.03586 -4.05399,-9.08985 -9.08985,-9.08985 z m 54.53907,72.7207 a 9.0900002,9.0899944 0 0 0 -9.08985,9.08984 9.0900002,9.0899944 0 0 0 9.08985,9.08985 9.0900002,9.0899944 0 0 0 9.08984,-9.08985 9.0900002,9.0899944 0 0 0 -9.08984,-9.08984 z"
         style="opacity:1;fill:#9ea6b7;fill-opacity:1;stroke:none;stroke-width:36;stroke-linejoin:round;stroke-miterlimit:4;stroke-dasharray:none;stroke-opacity:1"
         inkscape:connector-curvature="0" />
      <rect
         y="550.31079"
         x="236.14723"
         height="163.31256"
         width="345.11389"
         id="rect4649"
         style="opacity:1;fill:none;fill-opacity:1;stroke:#000000;stroke-width:17.4777317;stroke-linejoin:round;stroke-miterlimit:4;stroke-dasharray:52.43319511, 52.43319511;stroke-dashoffset:0;stroke-opacity:1" />
    </g>
  </g>
</svg>
