<?xml version="1.0" encoding="UTF-8" standalone="no"?>
<!-- Created with Inkscape (http://www.inkscape.org/) -->

<svg
   xmlns:dc="http://purl.org/dc/elements/1.1/"
   xmlns:cc="http://creativecommons.org/ns#"
   xmlns:rdf="http://www.w3.org/1999/02/22-rdf-syntax-ns#"
   xmlns:svg="http://www.w3.org/2000/svg"
   xmlns="http://www.w3.org/2000/svg"
   xmlns:xlink="http://www.w3.org/1999/xlink"
   xmlns:sodipodi="http://sodipodi.sourceforge.net/DTD/sodipodi-0.dtd"
   xmlns:inkscape="http://www.inkscape.org/namespaces/inkscape"
   width="210mm"
   height="297mm"
   viewBox="0 0 744.09448819 1052.3622047"
   id="svg2"
   version="1.1"
   inkscape:version="0.91 r13725"
   inkscape:export-xdpi="4.9499817"
   inkscape:export-ydpi="4.9499817"
   sodipodi:docname="container-started.svg"
   inkscape:export-filename="D:\Dokumente\Arbeit\RRZE\github\bicons\22x22\emblems\container-started.png">
  <defs
     id="defs4">
    <linearGradient
       id="linearGradient2224">
      <stop
         id="stop2226"
         offset="0"
         style="stop-color:#7c7c7c;stop-opacity:1;" />
      <stop
         id="stop2228"
         offset="1"
         style="stop-color:#b8b8b8;stop-opacity:1;" />
    </linearGradient>
    <linearGradient
       id="linearGradient15218">
      <stop
         id="stop15220"
         offset="0"
         style="stop-color:#eeeeef;stop-opacity:1;" />
      <stop
         id="stop2736"
         offset="0.59928656"
         style="stop-color:#d3d7cf;stop-opacity:1;" />
      <stop
         id="stop2738"
         offset="0.82758623"
         style="stop-color:#ffffff;stop-opacity:1;" />
      <stop
         id="stop15222"
         offset="1"
         style="stop-color:#d3d7cf;stop-opacity:1;" />
    </linearGradient>
    <pattern
       y="0"
       x="0"
       height="6"
       width="6"
       patternUnits="userSpaceOnUse"
       id="EMFhbasepattern" />
    <pattern
       y="0"
       x="0"
       height="6"
       width="6"
       patternUnits="userSpaceOnUse"
       id="EMFhbasepattern-5" />
    <pattern
       y="0"
       x="0"
       height="6"
       width="6"
       patternUnits="userSpaceOnUse"
       id="EMFhbasepattern-8" />
    <linearGradient
       inkscape:collect="always"
       xlink:href="#linearGradient4382"
       id="linearGradient4388"
       x1="145.44"
       y1="400"
       x2="272.70001"
       y2="127.25993"
       gradientUnits="userSpaceOnUse"
       gradientTransform="translate(163.45215,413.95604)" />
    <linearGradient
       inkscape:collect="always"
       id="linearGradient4382">
      <stop
         style="stop-color:#4e505d;stop-opacity:1;"
         offset="0"
         id="stop4384" />
      <stop
         style="stop-color:#7a859c;stop-opacity:1"
         offset="1"
         id="stop4386" />
    </linearGradient>
  </defs>
  <sodipodi:namedview
     id="base"
     pagecolor="#ffffff"
     bordercolor="#666666"
     borderopacity="1.0"
     inkscape:pageopacity="0.0"
     inkscape:pageshadow="2"
     inkscape:zoom="0.7071068"
     inkscape:cx="40.420633"
     inkscape:cy="519.97725"
     inkscape:document-units="px"
     inkscape:current-layer="layer1"
     showgrid="false"
     showguides="true"
     inkscape:guide-bbox="true"
     inkscape:window-width="1600"
     inkscape:window-height="837"
     inkscape:window-x="-4"
     inkscape:window-y="-4"
     inkscape:window-maximized="1"
     inkscape:snap-bbox="true"
     inkscape:bbox-paths="true"
     inkscape:bbox-nodes="true">
    <sodipodi:guide
       position="560,730.00002"
       orientation="0,1"
       id="guide3338" />
    <sodipodi:guide
       position="560,330.00001"
       orientation="0,1"
       id="guide3340" />
    <sodipodi:guide
       position="190,475.00001"
       orientation="1,0"
       id="guide3344" />
    <sodipodi:guide
       position="590,451.00001"
       orientation="1,0"
       id="guide3346" />
    <inkscape:grid
       type="xygrid"
       id="grid3440" />
  </sodipodi:namedview>
  <metadata
     id="metadata7">
    <rdf:RDF>
      <cc:Work
         rdf:about="">
        <dc:format>image/svg+xml</dc:format>
        <dc:type
           rdf:resource="http://purl.org/dc/dcmitype/StillImage" />
        <dc:title>container started</dc:title>
        <dc:date>June 2015</dc:date>
        <dc:creator>
          <cc:Agent>
            <dc:title>Johannes Hechler</dc:title>
          </cc:Agent>
        </dc:creator>
        <dc:rights>
          <cc:Agent>
            <dc:title>Johannes Hechler</dc:title>
          </cc:Agent>
        </dc:rights>
        <dc:publisher>
          <cc:Agent>
            <dc:title>RRZE</dc:title>
          </cc:Agent>
        </dc:publisher>
        <dc:contributor>
          <cc:Agent>
            <dc:title>Ute Weber, Hendrik Eggers</dc:title>
          </cc:Agent>
        </dc:contributor>
      </cc:Work>
    </rdf:RDF>
  </metadata>
  <g
     inkscape:label="Ebene 1"
     inkscape:groupmode="layer"
     id="layer1">
    <g
       id="g4192"
       transform="translate(26.546367,-91.593818)">
      <rect
         y="413.95599"
         x="163.45213"
         height="400"
         width="400"
         id="rect4160"
         style="opacity:1;fill:none;fill-opacity:1;stroke:none;stroke-width:23;stroke-linecap:butt;stroke-linejoin:round;stroke-miterlimit:4;stroke-dasharray:none;stroke-opacity:1" />
      <path
         id="rect4329"
         d="m 370.25878,486.67672 c -4.23648,0.91255 -7.00602,4.3606 -7.00586,8.57032 9e-5,2.70438 1.14528,5.09561 3.08399,6.70507 l -2.9043,2.9043 14.17969,0 125.25976,109.08008 24.17969,0 -145.43945,-127.25977 -1.2461,1.2461 c -1.61049,-0.10594 -3.20241,-0.41802 -4.73047,-0.94922 -0.34644,-0.12195 -0.70297,-0.21616 -1.0625,-0.29688 l -4.31445,0 z m -52.50586,39.96875 -99.76172,87.29102 22.18164,0 89.39844,-72.62695 c -2.96161,-3.26481 -9.5772,-10.84286 -11.81836,-14.66407 z M 208.90135,632.11618 c -5.03586,0 -9.08984,4.05398 -9.08984,9.08984 0,5.03586 4.05398,9.08984 9.08984,9.08984 l 9.08985,0 0,145.43946 -9.06836,0 c -5.04698,0 -9.11133,4.06432 -9.11133,9.11132 0,5.04701 4.06435,9.10938 9.11133,9.10938 l 227.71289,0 c -22.21277,-16.58197 -36.66406,-43.05705 -36.66406,-72.74023 0,-49.90123 40.84076,-90.73829 90.74219,-90.73829 12.90258,0 25.19633,2.73547 36.33789,7.64649 l 0,-7.82813 9.13281,0 c 5.03586,0 9.08985,-4.05398 9.08985,-9.08984 0,-5.03586 -4.05399,-9.08984 -9.08985,-9.08984 l -18.22265,0 -290.87892,0 -18.18164,0 z m 281.81251,54.36132 c -30.44577,0 -54.74219,24.29308 -54.74219,54.73829 0,30.44521 24.29642,54.74023 54.74219,54.74023 14.00609,0 26.70179,-5.15134 36.33789,-13.66797 l 0,-82.14453 c -9.6361,-8.51619 -22.3318,-13.66602 -36.33789,-13.66602 z"
         style="opacity:1;fill:url(#linearGradient4388);fill-opacity:1;stroke:none;stroke-width:36;stroke-linejoin:round;stroke-miterlimit:4;stroke-dasharray:none;stroke-opacity:1"
         inkscape:connector-curvature="0" />
      <path
         sodipodi:nodetypes="sssssssssssssssssssssssssssssssscscssssccs"
         inkscape:connector-curvature="0"
         id="rect4335"
         d="m 245.26268,650.29586 c -5.03586,0 -9.08984,4.05405 -9.08984,9.08985 l 0,127.25976 c 0,5.0359 4.05398,9.08985 9.08984,9.08985 5.03585,0 9.08985,-4.05395 9.08985,-9.08985 l 0,-127.25976 c 0,-5.0358 -4.054,-9.08985 -9.08985,-9.08985 z m 36.35938,0 c -5.03585,0 -9.08984,4.05405 -9.08984,9.08985 l 0,127.25976 c 0,5.0359 4.05399,9.08985 9.08984,9.08985 5.03586,0 9.08985,-4.05395 9.08985,-9.08985 l 0,-127.25976 c 0,-5.0358 -4.05399,-9.08985 -9.08985,-9.08985 z m 36.35938,0 c -5.03586,0 -9.08985,4.05405 -9.08985,9.08985 l 0,127.25976 c 0,5.0359 4.05399,9.08985 9.08985,9.08985 5.03585,0 9.08984,-4.05395 9.08984,-9.08985 l 0,-127.25976 c 0,-5.0358 -4.05399,-9.08985 -9.08984,-9.08985 z m 36.36132,0 c -5.03585,0 -9.08984,4.05405 -9.08984,9.08985 l 0,127.25976 c 0,5.0359 4.05399,9.08985 9.08984,9.08985 5.03587,0 9.08985,-4.05395 9.08985,-9.08985 l 0,-127.25976 c 0,-5.0358 -4.05398,-9.08985 -9.08985,-9.08985 z m 36.35938,0 c -5.0358,0 -9.08984,4.05405 -9.08984,9.08985 l 0,127.25976 c 0,5.0359 4.05404,9.08985 9.08984,9.08985 1.91915,0 3.69431,-0.59017 5.1582,-1.59766 -8.83174,-15.69561 -13.88867,-33.75449 -13.88867,-52.92187 0,-21.85389 6.57011,-42.27126 17.82031,-59.38086 l 0,-22.44922 c 0,-5.0358 -4.05394,-9.08985 -9.08984,-9.08985 z m 36.35938,0 c -5.03591,0 -9.08985,4.05405 -9.08985,9.08985 l 0,1.24219 c 3.8938,-3.52081 8.04002,-6.76363 12.4082,-9.70118 -1.02814,-0.40155 -2.14464,-0.63086 -3.31835,-0.63086 z"
         style="opacity:1;fill:#ffffff;fill-opacity:1;stroke:none;stroke-width:36;stroke-linejoin:round;stroke-miterlimit:4;stroke-dasharray:none;stroke-opacity:1" />
      <path
         id="path4351"
         d="m 372.52245,413.95602 c -5.03585,0 -9.08984,4.05399 -9.08984,9.08984 l 0,27.22266 a 45.450001,45.449978 0 0 0 -36.36133,44.5293 45.450001,45.449978 0 0 0 45.45117,45.44922 45.450001,45.449978 0 0 0 18.2168,-3.85938 l -15.78516,-13.53125 -11.52148,0 a 18.0018,18.0018 0 0 1 -17.53516,-21.9668 27.269997,26.821224 0 0 1 -0.64453,-5.64257 27.269997,26.821224 0 0 1 26.41797,-26.79297 c 0.28071,0.0259 0.56388,0.041 0.85156,0.041 0.23095,0 0.45708,-0.0165 0.6836,-0.0332 a 27.269997,26.821224 0 0 1 4.92187,0.5664 18.0018,18.0018 0 0 1 3.48438,-0.33789 l 0,-9.28515 0,-9.08985 0,-27.26953 c 0,-5.03586 -4.05399,-9.08985 -9.08985,-9.08985 z m 54.53907,72.7207 a 9.0900002,9.0899944 0 0 0 -9.08985,9.08985 9.0900002,9.0899944 0 0 0 9.08985,9.08984 9.0900002,9.0899944 0 0 0 9.08984,-9.08984 9.0900002,9.0899944 0 0 0 -9.08984,-9.08985 z"
         style="opacity:1;fill:#4e505d;fill-opacity:1;stroke:none;stroke-width:36;stroke-linejoin:round;stroke-miterlimit:4;stroke-dasharray:none;stroke-opacity:1"
         inkscape:connector-curvature="0" />
      <ellipse
         ry="72.740059"
         rx="72.740738"
         cy="741.21594"
         cx="490.71289"
         id="path4470"
         style="opacity:1;fill:#99b000;fill-opacity:1;stroke:none;stroke-width:36;stroke-linejoin:round;stroke-miterlimit:4;stroke-dasharray:none;stroke-opacity:1" />
      <path
         inkscape:connector-curvature="0"
         id="path4504"
         d="m 454.33215,704.83587 0,72.72001 72.71996,-36.36002 z"
         style="fill:#ffffff;fill-rule:evenodd;stroke:none;stroke-width:1px;stroke-linecap:butt;stroke-linejoin:miter;stroke-opacity:1" />
    </g>
  </g>
</svg>
