<?xml version="1.0" encoding="UTF-8" standalone="no"?>
<!-- Created with Inkscape (http://www.inkscape.org/) -->

<svg
   xmlns:dc="http://purl.org/dc/elements/1.1/"
   xmlns:cc="http://creativecommons.org/ns#"
   xmlns:rdf="http://www.w3.org/1999/02/22-rdf-syntax-ns#"
   xmlns:svg="http://www.w3.org/2000/svg"
   xmlns="http://www.w3.org/2000/svg"
   xmlns:xlink="http://www.w3.org/1999/xlink"
   xmlns:sodipodi="http://sodipodi.sourceforge.net/DTD/sodipodi-0.dtd"
   xmlns:inkscape="http://www.inkscape.org/namespaces/inkscape"
   width="210mm"
   height="297mm"
   viewBox="0 0 744.09448819 1052.3622047"
   id="svg2"
   version="1.1"
   inkscape:version="0.91 r13725"
   inkscape:export-xdpi="4.9499998"
   inkscape:export-ydpi="4.9499998"
   sodipodi:docname="dinosaur-grey.svg"
   inkscape:export-filename="C:\Users\johannes\Documents\Arbeit\RRZE\github3\bicons\22x22\emblems\dinosaur-grey.png">
  <title
     id="title4156">dinosaur grey</title>
  <defs
     id="defs4">
    <linearGradient
       inkscape:collect="always"
       id="linearGradient4157">
      <stop
         style="stop-color:#4e505d;stop-opacity:1;"
         offset="0"
         id="stop4159" />
      <stop
         style="stop-color:#7a859c;stop-opacity:1"
         offset="1"
         id="stop4161" />
    </linearGradient>
    <linearGradient
       id="linearGradient2224">
      <stop
         id="stop2226"
         offset="0"
         style="stop-color:#7c7c7c;stop-opacity:1;" />
      <stop
         id="stop2228"
         offset="1"
         style="stop-color:#b8b8b8;stop-opacity:1;" />
    </linearGradient>
    <linearGradient
       id="linearGradient15218">
      <stop
         id="stop15220"
         offset="0"
         style="stop-color:#eeeeef;stop-opacity:1;" />
      <stop
         id="stop2736"
         offset="0.59928656"
         style="stop-color:#d3d7cf;stop-opacity:1;" />
      <stop
         id="stop2738"
         offset="0.82758623"
         style="stop-color:#ffffff;stop-opacity:1;" />
      <stop
         id="stop15222"
         offset="1"
         style="stop-color:#d3d7cf;stop-opacity:1;" />
    </linearGradient>
    <pattern
       y="0"
       x="0"
       height="6"
       width="6"
       patternUnits="userSpaceOnUse"
       id="EMFhbasepattern" />
    <pattern
       y="0"
       x="0"
       height="6"
       width="6"
       patternUnits="userSpaceOnUse"
       id="EMFhbasepattern-5" />
    <linearGradient
       inkscape:collect="always"
       xlink:href="#linearGradient4157"
       id="linearGradient4163"
       x1="235.60536"
       y1="703.11188"
       x2="508.16843"
       y2="378.80804"
       gradientUnits="userSpaceOnUse" />
  </defs>
  <sodipodi:namedview
     id="base"
     pagecolor="#ffffff"
     bordercolor="#666666"
     borderopacity="1.0"
     inkscape:pageopacity="0.0"
     inkscape:pageshadow="2"
     inkscape:zoom="0.76531461"
     inkscape:cx="580.05094"
     inkscape:cy="485.60962"
     inkscape:document-units="px"
     inkscape:current-layer="layer1"
     showgrid="false"
     showguides="true"
     inkscape:guide-bbox="true"
     inkscape:window-width="1366"
     inkscape:window-height="721"
     inkscape:window-x="-4"
     inkscape:window-y="-4"
     inkscape:window-maximized="1">
    <sodipodi:guide
       position="560,730.00002"
       orientation="0,1"
       id="guide3338" />
    <sodipodi:guide
       position="560,330.00001"
       orientation="0,1"
       id="guide3340" />
    <sodipodi:guide
       position="190,475.00001"
       orientation="1,0"
       id="guide3344" />
    <sodipodi:guide
       position="590,451.00001"
       orientation="1,0"
       id="guide3346" />
    <inkscape:grid
       type="xygrid"
       id="grid3440" />
    <sodipodi:guide
       position="215,442.00001"
       orientation="1,0"
       id="guide4155" />
    <sodipodi:guide
       position="564.97832,467.39759"
       orientation="1,0"
       id="guide4157" />
  </sodipodi:namedview>
  <metadata
     id="metadata7">
    <rdf:RDF>
      <cc:Work
         rdf:about="">
        <dc:format>image/svg+xml</dc:format>
        <dc:type
           rdf:resource="http://purl.org/dc/dcmitype/StillImage" />
        <dc:title>dinosaur grey</dc:title>
        <dc:date>June 2015</dc:date>
        <dc:creator>
          <cc:Agent>
            <dc:title>Johannes Hechler</dc:title>
          </cc:Agent>
        </dc:creator>
        <dc:rights>
          <cc:Agent>
            <dc:title>Johannes Hechler</dc:title>
          </cc:Agent>
        </dc:rights>
        <dc:publisher>
          <cc:Agent>
            <dc:title>RRZE</dc:title>
          </cc:Agent>
        </dc:publisher>
        <dc:contributor>
          <cc:Agent>
            <dc:title>Ute Weber, Hendrik Eggers</dc:title>
          </cc:Agent>
        </dc:contributor>
      </cc:Work>
    </rdf:RDF>
  </metadata>
  <g
     inkscape:label="Ebene 1"
     inkscape:groupmode="layer"
     id="layer1">
    <path
       style="fill:url(#linearGradient4163);fill-rule:evenodd;stroke:none;stroke-width:1px;stroke-linecap:butt;stroke-linejoin:miter;stroke-opacity:1;fill-opacity:1"
       d="m 286.70273,341.51442 c -33.78488,0 -71.78947,21.12141 -71.78947,38.01388 0,16.89241 6.28754,21.70314 16.4319,22.89447 12.58289,1.47769 42.68804,6.65783 46.91113,2.43472 0.83291,-0.83289 1.85146,-1.26227 2.91568,-1.50291 0.2293,3.52731 13.84691,55.325 13.84691,85.08531 0,7.76089 -0.46786,16.49814 -1.17226,25.22903 -59.05992,29.72011 -67.51117,190.22958 -67.51117,190.22958 l 25.64982,0 c 0,0 10.25994,-71.81953 61.5596,-71.81953 51.29968,0 61.55961,71.81953 61.55961,71.81953 l 25.64983,0 c 0,0 -8.45126,-160.50947 -67.51118,-190.22958 -0.7046,-8.73089 -1.17225,-17.46814 -1.17225,-25.22903 0,-28.10584 -7.41009,-73.25151 -6.87338,-81.63858 0.75537,-3.16716 3.73729,-16.04675 3.73729,-27.27301 0,-12.66933 -8.44721,-38.01388 -42.23206,-38.01388 z m 61.02856,174.54911 c 10.97808,9.02746 19.77791,21.99634 26.89225,37.03196 9.35983,19.78135 16.02094,42.94582 20.82044,65.10652 1.76819,8.16402 3.205,16.07269 4.49877,23.74615 26.04248,16.37027 38.00381,61.30909 38.00381,61.30909 l 25.64984,0 c 0,0 -20.51868,-159.02798 -72.44072,-175.75148 -16.59011,-5.34347 -31.05548,-8.89747 -43.42439,-11.44224 z m 88.01099,57.77226 c 6.36229,14.55936 11.66909,30.65868 16.05119,46.44025 5.30367,19.10041 9.19599,37.53039 11.94319,52.23148 13.85804,17.1742 27.79498,29.91324 39.61698,31.39098 41.03974,5.12998 61.55962,-35.90976 61.55962,-35.90976 0,0 -30.7798,25.64982 -51.29968,20.51986 -15.2517,-3.81294 -55.87498,-75.79177 -77.8713,-114.67281 z m -122.19741,63.37315 c -11.52113,0 -20.67618,3.93125 -28.02443,9.96937 -3.02305,12.35445 -10.29835,28.59873 -10.29835,57.12236 l 22.93288,-0.40217 c 0,0 12.98042,-45.27724 31.18056,-63.89413 -4.7026,-1.78533 -9.94315,-2.79543 -15.79066,-2.79543 z"
       id="path4173"
       inkscape:connector-curvature="0"
       sodipodi:nodetypes="sssccscccscccscsscsscccsccscscscsccccs" />
    <rect
       style="opacity:1;fill:none;fill-opacity:1;stroke:none;stroke-width:23;stroke-linecap:butt;stroke-linejoin:round;stroke-miterlimit:4;stroke-dasharray:none;stroke-opacity:1"
       id="rect4160"
       width="400"
       height="400"
       x="190"
       y="322.36221" />
  </g>
</svg>
