<?xml version="1.0" encoding="UTF-8" standalone="no"?>
<!-- Created with Inkscape (http://www.inkscape.org/) -->

<svg
   xmlns:dc="http://purl.org/dc/elements/1.1/"
   xmlns:cc="http://creativecommons.org/ns#"
   xmlns:rdf="http://www.w3.org/1999/02/22-rdf-syntax-ns#"
   xmlns:svg="http://www.w3.org/2000/svg"
   xmlns="http://www.w3.org/2000/svg"
   xmlns:xlink="http://www.w3.org/1999/xlink"
   xmlns:sodipodi="http://sodipodi.sourceforge.net/DTD/sodipodi-0.dtd"
   xmlns:inkscape="http://www.inkscape.org/namespaces/inkscape"
   width="210mm"
   height="297mm"
   viewBox="0 0 744.09448819 1052.3622047"
   id="svg2"
   version="1.1"
   inkscape:version="0.91 r13725"
   inkscape:export-xdpi="4"
   inkscape:export-ydpi="4"
   sodipodi:docname="entity-organizational-unit.svg">
  <defs
     id="defs4">
    <linearGradient
       inkscape:collect="always"
       id="linearGradient4233">
      <stop
         style="stop-color:#4e505d;stop-opacity:1;"
         offset="0"
         id="stop4235" />
      <stop
         style="stop-color:#7a8597;stop-opacity:1"
         offset="1"
         id="stop4237" />
    </linearGradient>
    <linearGradient
       id="linearGradient2224">
      <stop
         id="stop2226"
         offset="0"
         style="stop-color:#7c7c7c;stop-opacity:1;" />
      <stop
         id="stop2228"
         offset="1"
         style="stop-color:#b8b8b8;stop-opacity:1;" />
    </linearGradient>
    <linearGradient
       id="linearGradient15218">
      <stop
         id="stop15220"
         offset="0"
         style="stop-color:#eeeeef;stop-opacity:1;" />
      <stop
         id="stop2736"
         offset="0.59928656"
         style="stop-color:#d3d7cf;stop-opacity:1;" />
      <stop
         id="stop2738"
         offset="0.82758623"
         style="stop-color:#ffffff;stop-opacity:1;" />
      <stop
         id="stop15222"
         offset="1"
         style="stop-color:#d3d7cf;stop-opacity:1;" />
    </linearGradient>
    <pattern
       y="0"
       x="0"
       height="6"
       width="6"
       patternUnits="userSpaceOnUse"
       id="EMFhbasepattern" />
    <pattern
       y="0"
       x="0"
       height="6"
       width="6"
       patternUnits="userSpaceOnUse"
       id="EMFhbasepattern-5" />
    <linearGradient
       inkscape:collect="always"
       xlink:href="#linearGradient4233"
       id="linearGradient4239"
       x1="220"
       y1="692.36218"
       x2="540"
       y2="372.36221"
       gradientUnits="userSpaceOnUse"
       gradientTransform="matrix(0.87498292,0,0,0.87498292,47.753246,66.307507)" />
  </defs>
  <sodipodi:namedview
     id="base"
     pagecolor="#ffffff"
     bordercolor="#666666"
     borderopacity="1.0"
     inkscape:pageopacity="0.0"
     inkscape:pageshadow="2"
     inkscape:zoom="0.70710678"
     inkscape:cx="470.27871"
     inkscape:cy="535.25695"
     inkscape:document-units="px"
     inkscape:current-layer="layer1"
     showgrid="false"
     showguides="true"
     inkscape:guide-bbox="true"
     inkscape:window-width="1366"
     inkscape:window-height="721"
     inkscape:window-x="-4"
     inkscape:window-y="-4"
     inkscape:window-maximized="1">
    <sodipodi:guide
       position="560,730.00002"
       orientation="0,1"
       id="guide3338" />
    <sodipodi:guide
       position="560,330.00001"
       orientation="0,1"
       id="guide3340" />
    <sodipodi:guide
       position="190,475.00001"
       orientation="1,0"
       id="guide3344" />
    <sodipodi:guide
       position="590,451.00001"
       orientation="1,0"
       id="guide3346" />
    <inkscape:grid
       type="xygrid"
       id="grid3440" />
  </sodipodi:namedview>
  <metadata
     id="metadata7">
    <rdf:RDF>
      <cc:Work
         rdf:about="">
        <dc:format>image/svg+xml</dc:format>
        <dc:type
           rdf:resource="http://purl.org/dc/dcmitype/StillImage" />
        <dc:title>entity organizational unit</dc:title>
        <dc:date>June 2015</dc:date>
        <dc:creator>
          <cc:Agent>
            <dc:title>Johannes Hechler</dc:title>
          </cc:Agent>
        </dc:creator>
        <dc:rights>
          <cc:Agent>
            <dc:title>Johannes Hechler</dc:title>
          </cc:Agent>
        </dc:rights>
        <dc:publisher>
          <cc:Agent>
            <dc:title>RRZE</dc:title>
          </cc:Agent>
        </dc:publisher>
        <dc:contributor>
          <cc:Agent>
            <dc:title>Ute Weber, Hendrik Eggers</dc:title>
          </cc:Agent>
        </dc:contributor>
      </cc:Work>
    </rdf:RDF>
  </metadata>
  <g
     inkscape:label="Ebene 1"
     inkscape:groupmode="layer"
     id="layer1">
    <rect
       style="opacity:1;fill:none;fill-opacity:1;stroke:none;stroke-width:23;stroke-linecap:butt;stroke-linejoin:round;stroke-miterlimit:4;stroke-dasharray:none;stroke-opacity:1"
       id="rect4160"
       width="400"
       height="400"
       x="190"
       y="322.36221" />
    <path
       inkscape:connector-curvature="0"
       style="color:#252525;clip-rule:nonzero;display:inline;overflow:visible;visibility:visible;opacity:1;isolation:auto;mix-blend-mode:normal;color-interpolation:sRGB;color-interpolation-filters:linearRGB;solid-color:#252525;solid-opacity:1;fill:#4e505d;fill-opacity:1;fill-rule:nonzero;stroke:none;stroke-width:23;stroke-linecap:butt;stroke-linejoin:round;stroke-miterlimit:4;stroke-dasharray:none;stroke-dashoffset:0;stroke-opacity:1;color-rendering:auto;image-rendering:auto;shape-rendering:auto;text-rendering:auto;enable-background:accumulate"
       d="m 292.74846,392.11731 c -4.8474,0 -8.74983,3.90242 -8.74983,8.74983 0,4.84741 3.90243,8.74983 8.74983,8.74983 l 18.85144,0 c 0.5423,-2.83236 0.83568,-5.75478 0.83568,-8.74983 0,-2.99506 -0.29338,-5.91747 -0.83568,-8.74983 l -18.85144,0 z m 32.15905,0 c 0.42692,2.8563 0.65281,5.77743 0.65281,8.74983 0,2.9724 -0.22589,5.89352 -0.65281,8.74983 l 128.28411,0 c -0.48991,-3.05347 -0.75194,-6.18183 -0.75194,-9.37018 0,-2.75867 0.20551,-5.46984 0.57421,-8.12948 l -128.10638,0 z m 141.38322,0 c -0.46792,2.63905 -0.72631,5.3521 -0.72631,8.12948 0,3.2133 0.3281,6.34627 0.95018,9.37018 l 36.22976,0 c 4.84741,0 8.74983,-3.90242 8.74983,-8.74983 0,-4.84741 -3.90242,-8.74983 -8.74983,-8.74983 l -36.45363,0 z m -199.79175,8.74983 c -4.84741,0 -8.74983,3.90242 -8.74983,8.74983 l 0,36.35109 c 2.83235,0.5423 5.75478,0.83568 8.74983,0.83568 2.99505,0 5.91747,-0.29338 8.74983,-0.83568 l 0,-36.35109 c 0,-4.84741 -3.90243,-8.74983 -8.74983,-8.74983 z m 244.99521,26.24949 c -4.8474,0 -8.74983,3.90242 -8.74983,8.74983 l 0,9.47954 c 2.8345,0.54317 5.75919,0.83739 8.75667,0.83739 2.99262,0 5.91278,-0.29253 8.74299,-0.83396 l 0,-9.48297 c 0,-4.84741 -3.90242,-8.74983 -8.74983,-8.74983 z m -8.74983,31.53698 0,128.78996 c 2.82933,-0.41867 5.7214,-0.64256 8.66438,-0.64256 3.00182,0 5.95203,0.22781 8.83528,0.66307 l 0,-128.80876 c -2.85418,0.42627 -5.77292,0.65281 -8.74299,0.65281 -2.97479,0 -5.89817,-0.22692 -8.75667,-0.65452 z m -244.99521,0.62205 0,127.85518 c 2.93781,-0.45241 5.94642,-0.68701 9.00788,-0.68701 2.8835,10e-6 5.71708,0.21815 8.49178,0.62036 l 0,-127.78853 c -2.85631,0.42693 -5.77744,0.65283 -8.74983,0.65283 -2.9724,0 -5.89353,-0.2259 -8.74983,-0.65283 z m 9.00788,140.29292 c -3.08564,10e-6 -6.09575,0.30704 -9.00788,0.88182 l 0,10.41264 c 0,4.84741 3.90242,8.74983 8.74983,8.74983 4.8474,0 8.74983,-3.90242 8.74983,-8.74983 l 0,-10.50492 c -2.75218,-0.51071 -5.58731,-0.78954 -8.49178,-0.78954 z m 244.65171,0.35717 c -2.96504,0 -5.85853,0.28856 -8.66438,0.8203 l 0,10.11699 c 0,4.84741 3.90243,8.74983 8.74983,8.74983 4.84741,0 8.74983,-3.90242 8.74983,-8.74983 l 0,-10.08623 c -2.85882,-0.55296 -5.81022,-0.85106 -8.83528,-0.85106 z m -227.41011,37.18678 c -4.8474,0 -8.74982,3.90242 -8.74982,8.74983 0,4.8474 3.90242,8.74983 8.74982,8.74983 l 27.79609,0 c 0.58749,-2.94264 0.89891,-5.98661 0.89891,-9.10701 0,-2.86971 -0.27362,-5.67133 -0.77244,-8.39265 l -27.92256,0 z m 41.21306,0 c 0.3929,2.74322 0.60668,5.54336 0.60668,8.39265 0,3.09624 -0.24325,6.13744 -0.70579,9.10701 l 127.88764,0 c -0.42693,-2.85631 -0.65282,-5.77744 -0.65282,-8.74983 0,-2.9724 0.22589,-5.89353 0.65282,-8.74983 l -127.78853,0 z m 141.09613,0 c -0.5423,2.83235 -0.83568,5.75477 -0.83568,8.74983 0,2.99505 0.29338,5.91747 0.83568,8.74983 l 27.68672,0 c 4.8474,0 8.74982,-3.90243 8.74982,-8.74983 0,-4.84741 -3.90242,-8.74983 -8.74982,-8.74983 l -27.68672,0 z"
       id="rect4203" />
    <path
       inkscape:connector-curvature="0"
       style="color:#252525;clip-rule:nonzero;display:inline;overflow:visible;visibility:visible;opacity:1;isolation:auto;mix-blend-mode:normal;color-interpolation:sRGB;color-interpolation-filters:linearRGB;solid-color:#252525;solid-opacity:1;fill:url(#linearGradient4239);fill-opacity:1;fill-rule:nonzero;stroke:none;stroke-width:23;stroke-linecap:butt;stroke-linejoin:round;stroke-miterlimit:4;stroke-dasharray:none;stroke-dashoffset:0;stroke-opacity:1;color-rendering:auto;image-rendering:auto;shape-rendering:auto;text-rendering:auto;enable-background:accumulate"
       d="m 511.50103,347.74781 a 52.498975,52.498979 0 0 0 -52.49898,52.49898 52.498975,52.498979 0 0 0 52.49898,52.49897 A 52.498975,52.498979 0 0 0 564,400.24679 52.498975,52.498979 0 0 0 511.50103,347.74781 Z m -245.00205,0.62035 A 52.498975,52.498979 0 0 0 214,400.86714 a 52.498975,52.498979 0 0 0 52.49898,52.49898 52.498975,52.498979 0 0 0 52.49897,-52.49898 52.498975,52.498979 0 0 0 -52.49897,-52.49898 z m 0.25805,244.63805 a 52.498975,52.498979 0 0 0 -52.49898,52.49897 52.498975,52.498979 0 0 0 52.49898,52.49898 52.498975,52.498979 0 0 0 52.49897,-52.49898 52.498975,52.498979 0 0 0 -52.49897,-52.49897 z m 244.65171,0.35717 a 52.498975,52.498979 0 0 0 -52.49897,52.49898 52.498975,52.498979 0 0 0 52.49897,52.49897 52.498975,52.498979 0 0 0 52.49898,-52.49897 52.498975,52.498979 0 0 0 -52.49898,-52.49898 z"
       id="path4165" />
    <g
       id="g4194"
       transform="matrix(0.55391369,0,0,0.55391369,114.98507,77.096405)">
      <g
         id="g4212">
        <g
           style="stroke:#ffffff;stroke-width:50;stroke-linejoin:round;stroke-miterlimit:4;stroke-dasharray:none"
           id="g4199">
          <path
             inkscape:connector-curvature="0"
             id="path4201"
             d="m 466.60795,720.53446 c -4.1553,0 -7.5005,3.3452 -7.5005,7.5005 l 15.001,0 c 0,-4.1553 -3.3452,-7.5005 -7.5005,-7.5005 z m -7.5005,22.50151 0,235.01571 c 0,4.1553 3.3452,7.5005 7.5005,7.5005 0.555,0 1.0911,-0.06 1.6115,-0.176 0.298,0.06 0.574,0.176 0.889,0.176 l 83.00364,0 0,-10.00061 -78.00334,0 0,-90.00604 78.00334,0 0,-10.0007 -78.00334,0 0,-90.00604 78.00334,0 0,-10.00061 -78.00334,0 0,-32.50221 -15.001,0 z m 108.00535,32.50221 0,10.00061 22.00341,0 c 2.7702,0 5.0003,-2.2301 5.0003,-5.00031 0,-2.7702 -2.2301,-5.0003 -5.0003,-5.0003 l -22.00341,0 z m 0,100.00665 0,10.0007 32.00401,0 c 2.7702,0 5.0004,-2.2302 5.0004,-5.0003 0,-2.7702 -2.2302,-5.0004 -5.0004,-5.0004 l -32.00401,0 z m 0,100.00674 0,10.00061 17.003,0 c 2.7702,0 5.00041,-2.2301 5.00041,-5.0003 0,-2.77021 -2.23021,-5.00031 -5.00041,-5.00031 l -17.003,0 z"
             style="color:#252525;clip-rule:nonzero;display:inline;overflow:visible;visibility:visible;opacity:1;isolation:auto;mix-blend-mode:normal;color-interpolation:sRGB;color-interpolation-filters:linearRGB;solid-color:#252525;solid-opacity:1;fill:#99b000;fill-opacity:1;fill-rule:nonzero;stroke:#ffffff;stroke-width:50;stroke-linecap:butt;stroke-linejoin:round;stroke-miterlimit:4;stroke-dasharray:none;stroke-dashoffset:60.95800018;stroke-opacity:1;color-rendering:auto;image-rendering:auto;shape-rendering:auto;text-rendering:auto;enable-background:accumulate" />
          <rect
             ry="25.001633"
             y="610.53168"
             x="404.10379"
             height="125.00838"
             width="125.00838"
             id="rect4204"
             style="color:#252525;clip-rule:nonzero;display:inline;overflow:visible;visibility:visible;opacity:1;isolation:auto;mix-blend-mode:normal;color-interpolation:sRGB;color-interpolation-filters:linearRGB;solid-color:#252525;solid-opacity:1;fill:#99b000;fill-opacity:1;fill-rule:nonzero;stroke:#ffffff;stroke-width:50;stroke-linecap:butt;stroke-linejoin:round;stroke-miterlimit:4;stroke-dasharray:none;stroke-dashoffset:60.95800018;stroke-opacity:1;color-rendering:auto;image-rendering:auto;shape-rendering:auto;text-rendering:auto;enable-background:accumulate" />
          <path
             inkscape:connector-curvature="0"
             id="path4206"
             d="m 577.6649,750.78777 c -10.0001,0 -18.04811,8.0578 -18.04811,18.05781 l 0,24.06411 c 0,10 8.04801,18.04811 18.04811,18.04811 l 24.07381,0 c 10.00001,0 18.04811,-8.04811 18.04811,-18.04811 l 0,-24.06411 c 0,-10.00001 -8.0481,-18.05781 -18.04811,-18.05781 l -24.07381,0 z m 0,100.00665 c -10.0001,0 -18.04811,8.0579 -18.04811,18.0579 l 0,24.06412 c 0,9.9999 8.04801,18.048 18.04811,18.048 l 24.07381,0 c 10.00001,0 18.04811,-8.0481 18.04811,-18.048 l 0,-24.06412 c 0,-10 -8.0481,-18.0579 -18.04811,-18.0579 l -24.07381,0 z m -0.127,100.00674 c -9.9265,0 -17.92101,7.99451 -17.92101,17.92111 l 0,23.88831 c 0,9.92662 7.99451,17.92112 17.92101,17.92112 l 23.88841,0 c 9.92651,0 17.92111,-7.9945 17.92111,-17.92112 l 0,-23.88831 c 0,-9.9266 -7.9946,-17.92111 -17.92111,-17.92111 l -23.88841,0 z"
             style="color:#252525;clip-rule:nonzero;display:inline;overflow:visible;visibility:visible;opacity:1;isolation:auto;mix-blend-mode:normal;color-interpolation:sRGB;color-interpolation-filters:linearRGB;solid-color:#252525;solid-opacity:1;fill:#99b000;fill-opacity:1;fill-rule:nonzero;stroke:#ffffff;stroke-width:50;stroke-linecap:butt;stroke-linejoin:round;stroke-miterlimit:4;stroke-dasharray:none;stroke-dashoffset:60.95800018;stroke-opacity:1;color-rendering:auto;image-rendering:auto;shape-rendering:auto;text-rendering:auto;enable-background:accumulate" />
        </g>
        <path
           style="color:#252525;clip-rule:nonzero;display:inline;overflow:visible;visibility:visible;opacity:1;isolation:auto;mix-blend-mode:normal;color-interpolation:sRGB;color-interpolation-filters:linearRGB;solid-color:#252525;solid-opacity:1;fill:#99b000;fill-opacity:1;fill-rule:nonzero;stroke:none;stroke-width:4;stroke-linecap:butt;stroke-linejoin:round;stroke-miterlimit:4;stroke-dasharray:none;stroke-dashoffset:60.95800018;stroke-opacity:1;color-rendering:auto;image-rendering:auto;shape-rendering:auto;text-rendering:auto;enable-background:accumulate"
           d="m 466.60795,720.53446 c -4.1553,0 -7.5005,3.3452 -7.5005,7.5005 l 15.001,0 c 0,-4.1553 -3.3452,-7.5005 -7.5005,-7.5005 z m -7.5005,22.50151 0,235.01571 c 0,4.1553 3.3452,7.5005 7.5005,7.5005 0.555,0 1.0911,-0.06 1.6115,-0.176 0.298,0.06 0.574,0.176 0.889,0.176 l 83.00364,0 0,-10.00061 -78.00334,0 0,-90.00604 78.00334,0 0,-10.0007 -78.00334,0 0,-90.00604 78.00334,0 0,-10.00061 -78.00334,0 0,-32.50221 -15.001,0 z m 108.00535,32.50221 0,10.00061 22.00341,0 c 2.7702,0 5.0003,-2.2301 5.0003,-5.00031 0,-2.7702 -2.2301,-5.0003 -5.0003,-5.0003 l -22.00341,0 z m 0,100.00665 0,10.0007 32.00401,0 c 2.7702,0 5.0004,-2.2302 5.0004,-5.0003 0,-2.7702 -2.2302,-5.0004 -5.0004,-5.0004 l -32.00401,0 z m 0,100.00674 0,10.00061 17.003,0 c 2.7702,0 5.00041,-2.2301 5.00041,-5.0003 0,-2.77021 -2.23021,-5.00031 -5.00041,-5.00031 l -17.003,0 z"
           id="rect4161"
           inkscape:connector-curvature="0" />
        <rect
           style="color:#252525;clip-rule:nonzero;display:inline;overflow:visible;visibility:visible;opacity:1;isolation:auto;mix-blend-mode:normal;color-interpolation:sRGB;color-interpolation-filters:linearRGB;solid-color:#252525;solid-opacity:1;fill:#99b000;fill-opacity:1;fill-rule:nonzero;stroke:none;stroke-width:4;stroke-linecap:butt;stroke-linejoin:round;stroke-miterlimit:4;stroke-dasharray:none;stroke-dashoffset:60.95800018;stroke-opacity:1;color-rendering:auto;image-rendering:auto;shape-rendering:auto;text-rendering:auto;enable-background:accumulate"
           id="rect4149"
           width="125.00838"
           height="125.00838"
           x="404.10379"
           y="610.53168"
           ry="25.001633" />
        <path
           style="color:#252525;clip-rule:nonzero;display:inline;overflow:visible;visibility:visible;opacity:1;isolation:auto;mix-blend-mode:normal;color-interpolation:sRGB;color-interpolation-filters:linearRGB;solid-color:#252525;solid-opacity:1;fill:#99b000;fill-opacity:1;fill-rule:nonzero;stroke:none;stroke-width:4;stroke-linecap:butt;stroke-linejoin:round;stroke-miterlimit:4;stroke-dasharray:none;stroke-dashoffset:60.95800018;stroke-opacity:1;color-rendering:auto;image-rendering:auto;shape-rendering:auto;text-rendering:auto;enable-background:accumulate"
           d="m 577.6649,750.78777 c -10.0001,0 -18.04811,8.0578 -18.04811,18.05781 l 0,24.06411 c 0,10 8.04801,18.04811 18.04811,18.04811 l 24.07381,0 c 10.00001,0 18.04811,-8.04811 18.04811,-18.04811 l 0,-24.06411 c 0,-10.00001 -8.0481,-18.05781 -18.04811,-18.05781 l -24.07381,0 z m 0,100.00665 c -10.0001,0 -18.04811,8.0579 -18.04811,18.0579 l 0,24.06412 c 0,9.9999 8.04801,18.048 18.04811,18.048 l 24.07381,0 c 10.00001,0 18.04811,-8.0481 18.04811,-18.048 l 0,-24.06412 c 0,-10 -8.0481,-18.0579 -18.04811,-18.0579 l -24.07381,0 z m -0.127,100.00674 c -9.9265,0 -17.92101,7.99451 -17.92101,17.92111 l 0,23.88831 c 0,9.92662 7.99451,17.92112 17.92101,17.92112 l 23.88841,0 c 9.92651,0 17.92111,-7.9945 17.92111,-17.92112 l 0,-23.88831 c 0,-9.9266 -7.9946,-17.92111 -17.92111,-17.92111 l -23.88841,0 z"
           id="rect4151"
           inkscape:connector-curvature="0" />
      </g>
    </g>
  </g>
</svg>
