<?xml version="1.0" encoding="UTF-8" standalone="no"?>
<!-- Created with Inkscape (http://www.inkscape.org/) -->

<svg
   xmlns:dc="http://purl.org/dc/elements/1.1/"
   xmlns:cc="http://creativecommons.org/ns#"
   xmlns:rdf="http://www.w3.org/1999/02/22-rdf-syntax-ns#"
   xmlns:svg="http://www.w3.org/2000/svg"
   xmlns="http://www.w3.org/2000/svg"
   xmlns:xlink="http://www.w3.org/1999/xlink"
   xmlns:sodipodi="http://sodipodi.sourceforge.net/DTD/sodipodi-0.dtd"
   xmlns:inkscape="http://www.inkscape.org/namespaces/inkscape"
   width="210mm"
   height="297mm"
   viewBox="0 0 744.09448819 1052.3622047"
   id="svg2"
   version="1.1"
   inkscape:version="0.91 r13725"
   inkscape:export-xdpi="4.9499998"
   inkscape:export-ydpi="4.9499998"
   sodipodi:docname="entity-function.svg"
   inkscape:export-filename="D:\Dokumente\Arbeit\RRZE\github\bicons\22x22\emblems\entity-function.png">
  <defs
     id="defs4">
    <linearGradient
       id="linearGradient2224">
      <stop
         id="stop2226"
         offset="0"
         style="stop-color:#7c7c7c;stop-opacity:1;" />
      <stop
         id="stop2228"
         offset="1"
         style="stop-color:#b8b8b8;stop-opacity:1;" />
    </linearGradient>
    <linearGradient
       id="linearGradient15218">
      <stop
         id="stop15220"
         offset="0"
         style="stop-color:#eeeeef;stop-opacity:1;" />
      <stop
         id="stop2736"
         offset="0.59928656"
         style="stop-color:#d3d7cf;stop-opacity:1;" />
      <stop
         id="stop2738"
         offset="0.82758623"
         style="stop-color:#ffffff;stop-opacity:1;" />
      <stop
         id="stop15222"
         offset="1"
         style="stop-color:#d3d7cf;stop-opacity:1;" />
    </linearGradient>
    <pattern
       y="0"
       x="0"
       height="6"
       width="6"
       patternUnits="userSpaceOnUse"
       id="EMFhbasepattern" />
    <pattern
       y="0"
       x="0"
       height="6"
       width="6"
       patternUnits="userSpaceOnUse"
       id="EMFhbasepattern-5" />
    <pattern
       y="0"
       x="0"
       height="6"
       width="6"
       patternUnits="userSpaceOnUse"
       id="EMFhbasepattern-57" />
    <linearGradient
       inkscape:collect="always"
       xlink:href="#linearGradient4441"
       id="linearGradient4447"
       x1="18.18"
       y1="381.77985"
       x2="381.77997"
       y2="18.179979"
       gradientUnits="userSpaceOnUse"
       gradientTransform="translate(190.11838,322.08145)" />
    <linearGradient
       inkscape:collect="always"
       id="linearGradient4441">
      <stop
         style="stop-color:#4e505d;stop-opacity:1;"
         offset="0"
         id="stop4443" />
      <stop
         style="stop-color:#7a859c;stop-opacity:1"
         offset="1"
         id="stop4445" />
    </linearGradient>
  </defs>
  <sodipodi:namedview
     id="base"
     pagecolor="#ffffff"
     bordercolor="#666666"
     borderopacity="1.0"
     inkscape:pageopacity="0.0"
     inkscape:pageshadow="2"
     inkscape:zoom="1"
     inkscape:cx="374.17052"
     inkscape:cy="476.68769"
     inkscape:document-units="px"
     inkscape:current-layer="layer1"
     showgrid="false"
     showguides="true"
     inkscape:guide-bbox="true"
     inkscape:window-width="1600"
     inkscape:window-height="837"
     inkscape:window-x="-4"
     inkscape:window-y="-4"
     inkscape:window-maximized="1"
     inkscape:snap-bbox="true"
     inkscape:bbox-paths="true"
     inkscape:bbox-nodes="true">
    <sodipodi:guide
       position="560,730.00002"
       orientation="0,1"
       id="guide3338" />
    <sodipodi:guide
       position="560,330.00001"
       orientation="0,1"
       id="guide3340" />
    <sodipodi:guide
       position="190,475.00001"
       orientation="1,0"
       id="guide3344" />
    <sodipodi:guide
       position="590,451.00001"
       orientation="1,0"
       id="guide3346" />
    <inkscape:grid
       type="xygrid"
       id="grid3440" />
  </sodipodi:namedview>
  <metadata
     id="metadata7">
    <rdf:RDF>
      <cc:Work
         rdf:about="">
        <dc:format>image/svg+xml</dc:format>
        <dc:type
           rdf:resource="http://purl.org/dc/dcmitype/StillImage" />
        <dc:title>entity function</dc:title>
        <dc:date>June 2015</dc:date>
        <dc:creator>
          <cc:Agent>
            <dc:title>Johannes Hechler</dc:title>
          </cc:Agent>
        </dc:creator>
        <dc:rights>
          <cc:Agent>
            <dc:title>Johannes Hechler</dc:title>
          </cc:Agent>
        </dc:rights>
        <dc:publisher>
          <cc:Agent>
            <dc:title>RRZE</dc:title>
          </cc:Agent>
        </dc:publisher>
        <dc:contributor>
          <cc:Agent>
            <dc:title>Ute Weber, Hendrik Eggers</dc:title>
          </cc:Agent>
        </dc:contributor>
      </cc:Work>
    </rdf:RDF>
  </metadata>
  <g
     inkscape:label="Ebene 1"
     inkscape:groupmode="layer"
     id="layer1">
    <g
       id="g4174">
      <rect
         y="322.36221"
         x="190"
         height="400"
         width="400"
         id="rect4160"
         style="opacity:1;fill:none;fill-opacity:1;stroke:none;stroke-width:23;stroke-linecap:butt;stroke-linejoin:round;stroke-miterlimit:4;stroke-dasharray:none;stroke-opacity:1" />
      <path
         sodipodi:nodetypes="ssssscssccccscsc"
         inkscape:connector-curvature="0"
         id="path4420"
         d="m 253.74924,340.26114 c -25.10226,-6.5e-4 -45.45182,20.34892 -45.45117,45.45117 4.2e-4,25.10149 20.34967,45.44987 45.45117,45.44922 25.10074,-4.3e-4 45.4488,-20.34849 45.44922,-45.44922 6.5e-4,-25.10149 -20.34772,-45.45074 -45.44922,-45.45117 z m 273.06836,0.0645 c -25.10074,4.3e-4 -45.4488,20.34849 -45.44922,45.44922 -6.5e-4,25.10149 20.34772,45.45074 45.44922,45.45117 25.10226,6.5e-4 45.45182,-20.34892 45.45117,-45.45117 -4e-4,-25.10151 -20.34965,-45.44992 -45.45117,-45.44927 z M 253.73557,613.40762 c -25.1015,4.3e-4 -45.44987,20.34968 -45.44922,45.45117 4.3e-4,25.10071 20.34849,45.44881 45.44922,45.44921 25.10073,-4e-4 45.44879,-20.3485 45.44922,-45.44921 6.5e-4,-25.10149 -20.34772,-45.45074 -45.44922,-45.45117 z"
         style="color:#000000;clip-rule:nonzero;display:inline;overflow:visible;visibility:visible;opacity:1;isolation:auto;mix-blend-mode:normal;color-interpolation:sRGB;color-interpolation-filters:linearRGB;solid-color:#000000;solid-opacity:1;fill:url(#linearGradient4447);fill-opacity:1;fill-rule:nonzero;stroke:none;stroke-width:1px;stroke-linecap:butt;stroke-linejoin:miter;stroke-miterlimit:4;stroke-dasharray:none;stroke-dashoffset:0;stroke-opacity:1;color-rendering:auto;image-rendering:auto;shape-rendering:auto;text-rendering:auto;enable-background:accumulate" />
      <path
         id="rect4428"
         d="M 317.37891 376.62109 L 317.37891 394.80078 L 462.81836 394.80078 L 462.81836 376.62109 L 317.37891 376.62109 z M 244.6582 449.3418 L 244.6582 594.78125 L 262.83789 594.78125 L 262.83789 449.3418 L 244.6582 449.3418 z M 517.35938 449.3418 L 517.35938 523.80664 A 17.50175 17.50175 0 0 1 532.75586 539.87695 L 533.42383 548.87305 L 535.53906 546.92578 L 535.53906 449.3418 L 517.35938 449.3418 z M 520.92188 590.12109 L 521.27148 591.51172 L 522.39844 590.80469 C 522.01975 590.62232 521.48251 590.37686 520.92188 590.12109 z M 317.37891 649.32031 L 317.37891 667.50195 L 420.18945 667.50195 L 421.00977 666.53711 L 407.52539 665.52539 A 17.50175 17.50175 0 0 1 391.39844 649.32031 L 317.37891 649.32031 z M 458.10742 653.42773 C 458.86646 655.02491 459.56529 656.46157 459.96289 657.17383 A 17.50175 17.50175 0 0 1 461.53906 661.06836 L 464.94922 655.12891 L 458.10742 653.42773 z "
         style="color:#000000;clip-rule:nonzero;display:inline;overflow:visible;visibility:visible;opacity:1;isolation:auto;mix-blend-mode:normal;color-interpolation:sRGB;color-interpolation-filters:linearRGB;solid-color:#000000;solid-opacity:1;fill:#4e505d;fill-opacity:1;fill-rule:nonzero;stroke:none;stroke-width:1px;stroke-linecap:butt;stroke-linejoin:miter;stroke-miterlimit:4;stroke-dasharray:none;stroke-dashoffset:0;stroke-opacity:1;color-rendering:auto;image-rendering:auto;shape-rendering:auto;text-rendering:auto;enable-background:accumulate" />
      <path
         sodipodi:nodetypes="ccccccccccccccccccccccccccccccccccccccccccc"
         inkscape:connector-curvature="0"
         id="path4172"
         d="m 484.40623,541.17078 0,0.002 -4.10546,30.33204 c -4.07736,1.30189 -10.02622,2.97428 -13.79688,4.99609 l -21.67968,-18.35938 -21.38868,22.23829 19.35743,19.17187 c -1.54925,3.13766 -4.85958,12.38706 -5.91993,15.7207 l -28.03711,1.98633 0,30.81641 28.72461,2.15625 0,-0.0391 c 1.35536,3.98336 5.06938,11.8363 7.1211,15.51171 l -18.45313,21.7168 22.30469,21.31836 17.57031,-19.52734 -0.65625,-0.63086 c 3.01799,1.47532 14.13871,4.73183 17.33789,5.75976 l 2.02539,28.02149 30.90039,0 2.14454,-28.4961 c 3.87053,-1.28242 13.62114,-4.89991 17.20898,-6.83398 l 19.82812,18.44726 21.39063,-22.24609 -17.51367,-17.42187 c 1.35822,-2.80177 2.52686,-11.69104 3.49804,-14.64844 L 590,647.24892 l 0,-30.8086 -27.75587,-1.91601 c -1.29572,-4.05051 -6.96021,-11.9744 -8.97265,-15.72266 l 20.04491,-21.01562 -22.30273,-21.32032 -20.46289,18.83594 c -2.95432,-1.46401 -10.00882,-4.71779 -13.14063,-5.75195 l -2.10547,-28.37891 z m 14.10157,68.60938 c 10.04105,-0.003 22.18321,12.13472 22.18555,22.17578 -24.5775,0.006 -24.5775,0.006 0,0.006 -1.8e-4,10.04029 -12.1394,22.17951 -22.17969,22.17968 -10.03953,-1.6e-4 -22.17843,-12.13819 -22.17968,-22.17773 -0.002,-10.03954 12.13429,-22.18019 22.17382,-22.18359 z"
         style="opacity:1;fill:#99b000;fill-opacity:1;stroke:none;stroke-width:20.62700081;stroke-linecap:square;stroke-linejoin:miter;stroke-miterlimit:4;stroke-dasharray:none;stroke-opacity:1" />
    </g>
  </g>
</svg>
