<?xml version="1.0" encoding="UTF-8" standalone="no"?>
<!-- Created with Inkscape (http://www.inkscape.org/) -->

<svg
   xmlns:dc="http://purl.org/dc/elements/1.1/"
   xmlns:cc="http://creativecommons.org/ns#"
   xmlns:rdf="http://www.w3.org/1999/02/22-rdf-syntax-ns#"
   xmlns:svg="http://www.w3.org/2000/svg"
   xmlns="http://www.w3.org/2000/svg"
   xmlns:xlink="http://www.w3.org/1999/xlink"
   xmlns:sodipodi="http://sodipodi.sourceforge.net/DTD/sodipodi-0.dtd"
   xmlns:inkscape="http://www.inkscape.org/namespaces/inkscape"
   width="210mm"
   height="297mm"
   viewBox="0 0 744.09448819 1052.3622047"
   id="svg2"
   version="1.1"
   inkscape:version="0.91 r13725"
   inkscape:export-xdpi="4.9490304"
   inkscape:export-ydpi="4.9490304"
   sodipodi:docname="entity-affiliation.svg"
   inkscape:export-filename="C:\Users\johannes\Documents\Arbeit\RRZE\github3\bicons\22x22\emblems\entity-affiliation.png">
  <defs
     id="defs4">
    <linearGradient
       id="linearGradient2224">
      <stop
         id="stop2226"
         offset="0"
         style="stop-color:#7c7c7c;stop-opacity:1;" />
      <stop
         id="stop2228"
         offset="1"
         style="stop-color:#b8b8b8;stop-opacity:1;" />
    </linearGradient>
    <linearGradient
       id="linearGradient15218">
      <stop
         id="stop15220"
         offset="0"
         style="stop-color:#eeeeef;stop-opacity:1;" />
      <stop
         id="stop2736"
         offset="0.59928656"
         style="stop-color:#d3d7cf;stop-opacity:1;" />
      <stop
         id="stop2738"
         offset="0.82758623"
         style="stop-color:#ffffff;stop-opacity:1;" />
      <stop
         id="stop15222"
         offset="1"
         style="stop-color:#d3d7cf;stop-opacity:1;" />
    </linearGradient>
    <pattern
       y="0"
       x="0"
       height="6"
       width="6"
       patternUnits="userSpaceOnUse"
       id="EMFhbasepattern" />
    <pattern
       y="0"
       x="0"
       height="6"
       width="6"
       patternUnits="userSpaceOnUse"
       id="EMFhbasepattern-5" />
    <linearGradient
       inkscape:collect="always"
       xlink:href="#linearGradient4441"
       id="linearGradient4447"
       x1="18.18"
       y1="381.77985"
       x2="381.77997"
       y2="18.179979"
       gradientUnits="userSpaceOnUse"
       gradientTransform="translate(190.11838,322.08146)" />
    <linearGradient
       inkscape:collect="always"
       id="linearGradient4441">
      <stop
         style="stop-color:#4e505d;stop-opacity:1;"
         offset="0"
         id="stop4443" />
      <stop
         style="stop-color:#7a859c;stop-opacity:1"
         offset="1"
         id="stop4445" />
    </linearGradient>
  </defs>
  <sodipodi:namedview
     id="base"
     pagecolor="#ffffff"
     bordercolor="#666666"
     borderopacity="1.0"
     inkscape:pageopacity="0.0"
     inkscape:pageshadow="2"
     inkscape:zoom="0.70710678"
     inkscape:cx="172.53156"
     inkscape:cy="410.72116"
     inkscape:document-units="px"
     inkscape:current-layer="layer1"
     showgrid="false"
     showguides="true"
     inkscape:guide-bbox="true"
     inkscape:window-width="1366"
     inkscape:window-height="721"
     inkscape:window-x="-4"
     inkscape:window-y="-4"
     inkscape:window-maximized="1"
     inkscape:snap-bbox="true"
     inkscape:bbox-nodes="true">
    <sodipodi:guide
       position="560,730.00002"
       orientation="0,1"
       id="guide3338" />
    <sodipodi:guide
       position="560,330.00001"
       orientation="0,1"
       id="guide3340" />
    <sodipodi:guide
       position="190,475.00001"
       orientation="1,0"
       id="guide3344" />
    <sodipodi:guide
       position="590,451.00001"
       orientation="1,0"
       id="guide3346" />
    <inkscape:grid
       type="xygrid"
       id="grid3440" />
  </sodipodi:namedview>
  <metadata
     id="metadata7">
    <rdf:RDF>
      <cc:Work
         rdf:about="">
        <dc:format>image/svg+xml</dc:format>
        <dc:type
           rdf:resource="http://purl.org/dc/dcmitype/StillImage" />
        <dc:title>entity affiliation</dc:title>
        <dc:date>June 2015</dc:date>
        <dc:creator>
          <cc:Agent>
            <dc:title>Johannes Hechler</dc:title>
          </cc:Agent>
        </dc:creator>
        <dc:rights>
          <cc:Agent>
            <dc:title>Johannes Hechler</dc:title>
          </cc:Agent>
        </dc:rights>
        <dc:publisher>
          <cc:Agent>
            <dc:title>RRZE</dc:title>
          </cc:Agent>
        </dc:publisher>
        <dc:contributor>
          <cc:Agent>
            <dc:title>Ute Weber, Hendrik Eggers</dc:title>
          </cc:Agent>
        </dc:contributor>
      </cc:Work>
    </rdf:RDF>
  </metadata>
  <g
     inkscape:label="Ebene 1"
     inkscape:groupmode="layer"
     id="layer1">
    <rect
       style="opacity:1;fill:none;fill-opacity:1;stroke:none;stroke-width:23;stroke-linecap:butt;stroke-linejoin:round;stroke-miterlimit:4;stroke-dasharray:none;stroke-opacity:1"
       id="rect4160"
       width="400"
       height="400"
       x="190"
       y="322.36221" />
    <path
       sodipodi:nodetypes="sssssssssscscsc"
       inkscape:connector-curvature="0"
       style="color:#000000;clip-rule:nonzero;display:inline;overflow:visible;visibility:visible;opacity:1;isolation:auto;mix-blend-mode:normal;color-interpolation:sRGB;color-interpolation-filters:linearRGB;solid-color:#000000;solid-opacity:1;fill:url(#linearGradient4447);fill-opacity:1;fill-rule:nonzero;stroke:none;stroke-width:1px;stroke-linecap:butt;stroke-linejoin:miter;stroke-miterlimit:4;stroke-dasharray:none;stroke-dashoffset:0;stroke-opacity:1;color-rendering:auto;image-rendering:auto;shape-rendering:auto;text-rendering:auto;enable-background:accumulate"
       d="m 253.74924,340.26115 c -25.10226,-6.5e-4 -45.45183,20.34891 -45.45117,45.45117 4.2e-4,25.10149 20.34967,45.44987 45.45117,45.44922 25.10074,-4.3e-4 45.4488,-20.34849 45.44922,-45.44922 6.5e-4,-25.10149 -20.34772,-45.45074 -45.44922,-45.45117 z m 273.06836,0.0645 c -25.10074,4.3e-4 -45.4488,20.34849 -45.44922,45.44922 -6.5e-4,25.10149 20.34772,45.45074 45.44922,45.45117 25.10226,6.5e-4 45.45182,-20.34892 45.45117,-45.45117 -4.2e-4,-25.1015 -20.34967,-45.44987 -45.45117,-45.44922 z M 253.73557,613.40763 c -25.1015,4.3e-4 -45.44988,20.34968 -45.44922,45.45117 4.2e-4,25.10073 20.34848,45.44879 45.44922,45.44922 25.10074,-4.3e-4 45.4488,-20.34849 45.44922,-45.44922 6.5e-4,-25.10149 -20.34772,-45.45074 -45.44922,-45.45117 z"
       id="path4420" />
    <rect
       style="color:#000000;clip-rule:nonzero;display:inline;overflow:visible;visibility:visible;opacity:1;isolation:auto;mix-blend-mode:normal;color-interpolation:sRGB;color-interpolation-filters:linearRGB;solid-color:#000000;solid-opacity:1;fill:#4e505d;fill-opacity:1;fill-rule:nonzero;stroke:none;stroke-width:1px;stroke-linecap:butt;stroke-linejoin:miter;stroke-miterlimit:4;stroke-dasharray:none;stroke-dashoffset:0;stroke-opacity:1;color-rendering:auto;image-rendering:auto;shape-rendering:auto;text-rendering:auto;enable-background:accumulate"
       id="rect4428"
       width="145.44"
       height="18.179989"
       x="317.37839"
       y="376.62143" />
    <path
       style="color:#000000;clip-rule:nonzero;display:inline;overflow:visible;visibility:visible;opacity:1;isolation:auto;mix-blend-mode:normal;color-interpolation:sRGB;color-interpolation-filters:linearRGB;solid-color:#000000;solid-opacity:1;fill:#4e505d;fill-opacity:1;fill-rule:nonzero;stroke:none;stroke-width:1px;stroke-linecap:butt;stroke-linejoin:miter;stroke-miterlimit:4;stroke-dasharray:none;stroke-dashoffset:0;stroke-opacity:1;color-rendering:auto;image-rendering:auto;shape-rendering:auto;text-rendering:auto;enable-background:accumulate"
       d="m 517.35861,449.34123 0,45.47851 c 6.05565,2.03256 12.12426,4.40944 18.17969,7.14063 l 0,-52.61914 -18.17969,0 z m 0,84.0039 0,23.6836 c 6.13432,3.54646 12.20654,7.43967 18.17969,11.66015 l 0,-26.39844 c -6.07687,-3.44642 -12.15162,-6.41953 -18.17969,-8.94531 z m -199.98046,115.97656 0,18.17969 36.66992,0 -0.043,-18.17969 -36.62695,0 z m 72.625,0 0.0449,18.17969 3.98437,0 a 18.0018,18.0018 0 0 1 4.49219,0 l 43.73242,0 c -5.73841,-3.4109 -11.41973,-7.11914 -17.00976,-11.11914 a 18.0018,18.0018 0 0 1 -5.82813,-7.06055 l -29.41601,0 z"
       id="rect4430"
       inkscape:connector-curvature="0" />
    <rect
       style="color:#000000;clip-rule:nonzero;display:inline;overflow:visible;visibility:visible;opacity:1;isolation:auto;mix-blend-mode:normal;color-interpolation:sRGB;color-interpolation-filters:linearRGB;solid-color:#000000;solid-opacity:1;fill:#4e505d;fill-opacity:1;fill-rule:nonzero;stroke:none;stroke-width:1px;stroke-linecap:butt;stroke-linejoin:miter;stroke-miterlimit:4;stroke-dasharray:none;stroke-dashoffset:0;stroke-opacity:1;color-rendering:auto;image-rendering:auto;shape-rendering:auto;text-rendering:auto;enable-background:accumulate"
       id="rect4434"
       width="18.18"
       height="145.43994"
       x="244.65839"
       y="449.3414" />
    <path
       style="display:block;overflow:visible;visibility:visible;fill:#99b000;fill-opacity:1;fill-rule:nonzero;stroke:none;stroke-width:6;stroke-linecap:square;stroke-linejoin:miter;stroke-miterlimit:4;stroke-dasharray:none;stroke-dashoffset:0;stroke-opacity:1;marker:none;marker-start:none;marker-mid:none;marker-end:none"
       d="M 464.75977 503.88281 C 404.58103 503.61572 359.95054 544.58828 375.08203 610.53711 C 373.27164 536.06355 457.3465 534.85843 526.27344 584.17969 L 500.33008 613.05078 L 590.07812 612.75586 L 589.84375 514.04688 L 565.77148 540.58398 C 532.07112 515.47694 496.28196 504.02272 464.75977 503.88281 z M 461.66602 612.87109 L 371.91797 613.16602 L 372.15234 711.87695 L 396.22656 685.33789 C 494.26397 758.37649 609.97159 715.88017 586.91406 615.38672 C 588.72445 689.86029 504.64959 691.06536 435.72266 641.74414 L 461.66602 612.87109 z "
       id="path4196-4" />
    <path
       id="path4168"
       d="M 464.75977 503.88281 C 404.58103 503.61572 359.95054 544.58828 375.08203 610.53711 C 373.27164 536.06355 457.3465 534.85843 526.27344 584.17969 L 500.33008 613.05078 L 590.07812 612.75586 L 589.84375 514.04688 L 565.77148 540.58398 C 532.07112 515.47694 496.28196 504.02272 464.75977 503.88281 z M 461.66602 612.87109 L 371.91797 613.16602 L 372.15234 711.87695 L 396.22656 685.33789 C 494.26397 758.37649 609.97159 715.88017 586.91406 615.38672 C 588.72445 689.86029 504.64959 691.06536 435.72266 641.74414 L 461.66602 612.87109 z "
       style="display:block;overflow:visible;visibility:visible;fill:#99b000;fill-opacity:1;fill-rule:nonzero;stroke:none;stroke-width:6;stroke-linecap:square;stroke-linejoin:miter;stroke-miterlimit:4;stroke-dasharray:none;stroke-dashoffset:0;stroke-opacity:1;marker:none;marker-start:none;marker-mid:none;marker-end:none" />
  </g>
</svg>
