<?xml version="1.0" encoding="UTF-8" standalone="no"?>
<!-- Created with Inkscape (http://www.inkscape.org/) -->

<svg
   xmlns:dc="http://purl.org/dc/elements/1.1/"
   xmlns:cc="http://creativecommons.org/ns#"
   xmlns:rdf="http://www.w3.org/1999/02/22-rdf-syntax-ns#"
   xmlns:svg="http://www.w3.org/2000/svg"
   xmlns="http://www.w3.org/2000/svg"
   xmlns:xlink="http://www.w3.org/1999/xlink"
   xmlns:sodipodi="http://sodipodi.sourceforge.net/DTD/sodipodi-0.dtd"
   xmlns:inkscape="http://www.inkscape.org/namespaces/inkscape"
   width="210mm"
   height="297mm"
   viewBox="0 0 744.09448819 1052.3622047"
   id="svg2"
   version="1.1"
   inkscape:version="0.91 r13725"
   inkscape:export-xdpi="4.9499998"
   inkscape:export-ydpi="4.9499998"
   sodipodi:docname="event-indefinite.svg"
   inkscape:export-filename="D:\Dokumente\Arbeit\RRZE\github\bicons\22x22\emblems\event-indefinite.png">
  <defs
     id="defs4">
    <linearGradient
       id="linearGradient2224">
      <stop
         id="stop2226"
         offset="0"
         style="stop-color:#7c7c7c;stop-opacity:1;" />
      <stop
         id="stop2228"
         offset="1"
         style="stop-color:#b8b8b8;stop-opacity:1;" />
    </linearGradient>
    <linearGradient
       id="linearGradient15218">
      <stop
         id="stop15220"
         offset="0"
         style="stop-color:#eeeeef;stop-opacity:1;" />
      <stop
         id="stop2736"
         offset="0.59928656"
         style="stop-color:#d3d7cf;stop-opacity:1;" />
      <stop
         id="stop2738"
         offset="0.82758623"
         style="stop-color:#ffffff;stop-opacity:1;" />
      <stop
         id="stop15222"
         offset="1"
         style="stop-color:#d3d7cf;stop-opacity:1;" />
    </linearGradient>
    <pattern
       y="0"
       x="0"
       height="6"
       width="6"
       patternUnits="userSpaceOnUse"
       id="EMFhbasepattern" />
    <pattern
       y="0"
       x="0"
       height="6"
       width="6"
       patternUnits="userSpaceOnUse"
       id="EMFhbasepattern-5" />
    <linearGradient
       gradientTransform="translate(84,310.36222)"
       inkscape:collect="always"
       xlink:href="#linearGradient4291"
       id="linearGradient4297"
       x1="72.720001"
       y1="381.77985"
       x2="326.88672"
       y2="54.53997"
       gradientUnits="userSpaceOnUse" />
    <linearGradient
       inkscape:collect="always"
       id="linearGradient4291">
      <stop
         style="stop-color:#4e505d;stop-opacity:1;"
         offset="0"
         id="stop4293" />
      <stop
         style="stop-color:#7a859c;stop-opacity:1"
         offset="1"
         id="stop4295" />
    </linearGradient>
  </defs>
  <sodipodi:namedview
     id="base"
     pagecolor="#ffffff"
     bordercolor="#666666"
     borderopacity="1.0"
     inkscape:pageopacity="0.0"
     inkscape:pageshadow="2"
     inkscape:zoom="1"
     inkscape:cx="262.40797"
     inkscape:cy="569.48536"
     inkscape:document-units="px"
     inkscape:current-layer="layer1"
     showgrid="false"
     showguides="true"
     inkscape:guide-bbox="true"
     inkscape:window-width="1600"
     inkscape:window-height="837"
     inkscape:window-x="-4"
     inkscape:window-y="-4"
     inkscape:window-maximized="1"
     inkscape:snap-bbox="true"
     inkscape:bbox-nodes="true">
    <sodipodi:guide
       position="560,730.00002"
       orientation="0,1"
       id="guide3338" />
    <sodipodi:guide
       position="560,330.00001"
       orientation="0,1"
       id="guide3340" />
    <sodipodi:guide
       position="190,475.00001"
       orientation="1,0"
       id="guide3344" />
    <sodipodi:guide
       position="590,451.00001"
       orientation="1,0"
       id="guide3346" />
    <inkscape:grid
       type="xygrid"
       id="grid3440" />
  </sodipodi:namedview>
  <metadata
     id="metadata7">
    <rdf:RDF>
      <cc:Work
         rdf:about="">
        <dc:format>image/svg+xml</dc:format>
        <dc:type
           rdf:resource="http://purl.org/dc/dcmitype/StillImage" />
        <dc:title>event indefinite</dc:title>
        <dc:date>June 2015</dc:date>
        <dc:creator>
          <cc:Agent>
            <dc:title>Johannes Hechler</dc:title>
          </cc:Agent>
        </dc:creator>
        <dc:rights>
          <cc:Agent>
            <dc:title>Johannes Hechler</dc:title>
          </cc:Agent>
        </dc:rights>
        <dc:publisher>
          <cc:Agent>
            <dc:title>RRZE</dc:title>
          </cc:Agent>
        </dc:publisher>
        <dc:contributor>
          <cc:Agent>
            <dc:title>Ute Weber, Hendrik Eggers</dc:title>
          </cc:Agent>
        </dc:contributor>
      </cc:Work>
    </rdf:RDF>
  </metadata>
  <g
     inkscape:label="Ebene 1"
     inkscape:groupmode="layer"
     id="layer1">
    <g
       id="g4186"
       transform="translate(106,11.999987)">
      <rect
         y="310.36221"
         x="84"
         height="400"
         width="400"
         id="rect4160"
         style="opacity:1;fill:none;fill-opacity:1;stroke:none;stroke-width:23;stroke-linecap:butt;stroke-linejoin:round;stroke-miterlimit:4;stroke-dasharray:none;stroke-opacity:1" />
      <path
         id="rect4273"
         d="m 183.8125,328.54191 c -15.00918,0 -27.0918,12.08262 -27.0918,27.0918 l 0,27.44922 -18.18164,0 c -20.14344,0 -36.35937,16.21593 -36.35937,36.35937 l 0,236.33984 c 0,20.14344 16.21593,36.35938 36.35937,36.35938 l 290.92383,0 c 20.14344,0 36.35938,-16.21594 36.35938,-36.35938 l 0,-236.33984 c 0,-20.14344 -16.21594,-36.35937 -36.35938,-36.35937 l -18.57617,0 0,-21.38282 c 0,-15.00918 -12.08262,-27.09179 -27.0918,-27.09179 -15.00918,0 -27.09375,12.08261 -27.09375,27.09179 l 0,21.38282 -145.79687,0 0,-27.44922 c 0,-15.00918 -12.08262,-27.0918 -27.0918,-27.0918 z"
         style="opacity:1;fill:url(#linearGradient4297);fill-opacity:1;stroke:none;stroke-width:36;stroke-linejoin:round;stroke-miterlimit:4;stroke-dasharray:none;stroke-opacity:1"
         inkscape:connector-curvature="0" />
      <rect
         ry="15.57324"
         y="455.80215"
         x="120.36"
         height="218.15991"
         width="327.23996"
         id="rect4151"
         style="color:#252525;clip-rule:nonzero;display:inline;overflow:visible;visibility:visible;opacity:1;isolation:auto;mix-blend-mode:normal;color-interpolation:sRGB;color-interpolation-filters:linearRGB;solid-color:#252525;solid-opacity:1;fill:#ffffff;fill-opacity:1;fill-rule:nonzero;stroke:none;stroke-width:23;stroke-linecap:butt;stroke-linejoin:round;stroke-miterlimit:4;stroke-dasharray:none;stroke-dashoffset:0;stroke-opacity:1;color-rendering:auto;image-rendering:auto;shape-rendering:auto;text-rendering:auto;enable-background:accumulate" />
      <path
         inkscape:connector-curvature="0"
         d="m 339.0552,512.64567 c -14.38819,0 -27.90308,5.60132 -37.85925,15.53503 L 283.8,544.8821 266.65998,528.43469 c -10.1623,-10.18672 -23.69867,-15.78902 -38.08589,-15.78902 -14.38526,0 -27.90796,5.6277 -38.0556,15.78902 -10.18671,10.16619 -15.79292,23.67814 -15.79292,38.07904 0,14.36377 5.59937,27.89915 15.7812,38.05565 10.14275,10.1759 23.66935,15.788 38.06732,15.788 14.37648,0 27.91578,-5.5984 37.84753,-15.5575 l 17.38716,-16.67992 17.15566,16.44942 c 10.16326,10.1759 23.70354,15.788 38.09174,15.788 14.3755,0 27.88843,-5.5984 38.05071,-15.788 10.1789,-10.1409 15.79293,-23.68015 15.79293,-38.08007 0,-14.39992 -5.59156,-27.90112 -15.79293,-38.07709 -10.17499,-10.16523 -23.68791,-15.76655 -38.05169,-15.76655 z m -94.44788,69.8759 c -8.56707,8.57 -23.48375,8.57 -32.05767,0 -4.29135,-4.2855 -6.6495,-9.9845 -6.6495,-16.02053 0,-6.06144 2.35815,-11.73505 6.67393,-16.04399 4.26106,-4.28548 9.95519,-6.64656 16.00099,-6.64656 6.04775,0 11.74676,2.36108 16.27061,6.86343 l 16.46304,15.83981 -16.7014,16.00784 z m 110.46841,0 c -8.57,8.58075 -23.27568,8.78881 -32.297,-0.22077 l -16.46989,-15.83786 16.70141,-16.01858 c 8.56903,-8.58271 23.49548,-8.58271 32.06548,-0.0244 4.28648,4.30893 6.64266,9.9845 6.64266,16.04495 0,6.04971 -2.35716,11.77216 -6.64266,16.05668 z"
         id="path12"
         style="fill:#99b000" />
    </g>
  </g>
</svg>
