<?xml version="1.0" encoding="UTF-8" standalone="no"?>
<!-- Created with Inkscape (http://www.inkscape.org/) -->

<svg
   xmlns:dc="http://purl.org/dc/elements/1.1/"
   xmlns:cc="http://creativecommons.org/ns#"
   xmlns:rdf="http://www.w3.org/1999/02/22-rdf-syntax-ns#"
   xmlns:svg="http://www.w3.org/2000/svg"
   xmlns="http://www.w3.org/2000/svg"
   xmlns:sodipodi="http://sodipodi.sourceforge.net/DTD/sodipodi-0.dtd"
   xmlns:inkscape="http://www.inkscape.org/namespaces/inkscape"
   width="210mm"
   height="297mm"
   viewBox="0 0 744.09448819 1052.3622047"
   id="svg2"
   version="1.1"
   inkscape:version="0.91 r13725"
   sodipodi:docname="FAU-org.svg"
   inkscape:export-filename="C:\Users\johannes\Documents\Arbeit\RRZE\github3\bicons\22x22\emblems\fau-org.png"
   inkscape:export-xdpi="4.9488797"
   inkscape:export-ydpi="4.9488797">
  <title
     id="title4209">fau-org</title>
  <defs
     id="defs4">
    <linearGradient
       id="linearGradient2224">
      <stop
         id="stop2226"
         offset="0"
         style="stop-color:#7c7c7c;stop-opacity:1;" />
      <stop
         id="stop2228"
         offset="1"
         style="stop-color:#b8b8b8;stop-opacity:1;" />
    </linearGradient>
    <linearGradient
       id="linearGradient15218">
      <stop
         id="stop15220"
         offset="0"
         style="stop-color:#eeeeef;stop-opacity:1;" />
      <stop
         id="stop2736"
         offset="0.59928656"
         style="stop-color:#d3d7cf;stop-opacity:1;" />
      <stop
         id="stop2738"
         offset="0.82758623"
         style="stop-color:#ffffff;stop-opacity:1;" />
      <stop
         id="stop15222"
         offset="1"
         style="stop-color:#d3d7cf;stop-opacity:1;" />
    </linearGradient>
    <pattern
       y="0"
       x="0"
       height="6"
       width="6"
       patternUnits="userSpaceOnUse"
       id="EMFhbasepattern" />
    <pattern
       y="0"
       x="0"
       height="6"
       width="6"
       patternUnits="userSpaceOnUse"
       id="EMFhbasepattern-5" />
  </defs>
  <sodipodi:namedview
     id="base"
     pagecolor="#ffffff"
     bordercolor="#666666"
     borderopacity="1.0"
     inkscape:pageopacity="0.0"
     inkscape:pageshadow="2"
     inkscape:zoom="0.5"
     inkscape:cx="893.6303"
     inkscape:cy="808.8584"
     inkscape:document-units="px"
     inkscape:current-layer="layer1"
     showgrid="false"
     showguides="true"
     inkscape:guide-bbox="true"
     inkscape:window-width="1366"
     inkscape:window-height="721"
     inkscape:window-x="-4"
     inkscape:window-y="-4"
     inkscape:window-maximized="1">
    <sodipodi:guide
       position="560,730.00002"
       orientation="0,1"
       id="guide3338" />
    <sodipodi:guide
       position="560,330.00001"
       orientation="0,1"
       id="guide3340" />
    <sodipodi:guide
       position="190,475.00001"
       orientation="1,0"
       id="guide3344" />
    <sodipodi:guide
       position="590,451.00001"
       orientation="1,0"
       id="guide3346" />
    <inkscape:grid
       type="xygrid"
       id="grid3440" />
  </sodipodi:namedview>
  <metadata
     id="metadata7">
    <rdf:RDF>
      <cc:Work
         rdf:about="">
        <dc:format>image/svg+xml</dc:format>
        <dc:type
           rdf:resource="http://purl.org/dc/dcmitype/StillImage" />
        <dc:title>fau-org</dc:title>
        <dc:date>Sep 2015</dc:date>
        <dc:creator>
          <cc:Agent>
            <dc:title>Johannes Hechler</dc:title>
          </cc:Agent>
        </dc:creator>
        <dc:rights>
          <cc:Agent>
            <dc:title>Johannes Hechler</dc:title>
          </cc:Agent>
        </dc:rights>
        <dc:publisher>
          <cc:Agent>
            <dc:title>RRZE</dc:title>
          </cc:Agent>
        </dc:publisher>
        <cc:license
           rdf:resource="http://creativecommons.org/licenses/by-nc-nd/3.0/" />
        <dc:contributor>
          <cc:Agent>
            <dc:title>Ute Weber, Hendrik Eggers</dc:title>
          </cc:Agent>
        </dc:contributor>
      </cc:Work>
      <cc:License
         rdf:about="http://creativecommons.org/licenses/by-nc-nd/3.0/">
        <cc:permits
           rdf:resource="http://creativecommons.org/ns#Reproduction" />
        <cc:permits
           rdf:resource="http://creativecommons.org/ns#Distribution" />
        <cc:requires
           rdf:resource="http://creativecommons.org/ns#Notice" />
        <cc:requires
           rdf:resource="http://creativecommons.org/ns#Attribution" />
        <cc:prohibits
           rdf:resource="http://creativecommons.org/ns#CommercialUse" />
      </cc:License>
    </rdf:RDF>
  </metadata>
  <g
     inkscape:label="Ebene 1"
     inkscape:groupmode="layer"
     id="layer1">
    <g
       id="g4159">
      <g
         transform="translate(35.001786,-196.22214)"
         id="g4201">
        <path
           inkscape:connector-curvature="0"
           style="color:#000000;clip-rule:nonzero;display:inline;overflow:visible;visibility:visible;opacity:1;isolation:auto;mix-blend-mode:normal;color-interpolation:sRGB;color-interpolation-filters:linearRGB;solid-color:#000000;solid-opacity:1;fill:#4e505d;fill-opacity:1;fill-rule:evenodd;stroke:none;stroke-width:50;stroke-linecap:butt;stroke-linejoin:round;stroke-miterlimit:4;stroke-dasharray:none;stroke-dashoffset:0;stroke-opacity:1;color-rendering:auto;image-rendering:auto;shape-rendering:auto;text-rendering:auto;enable-background:accumulate"
           d="m 175.4328,755.31691 c -11.2784,0 -20.35742,9.08097 -20.35742,20.35937 l 0,121.91602 c 0,11.27841 9.07902,20.35938 20.35742,20.35938 l 217.21875,0 25.86524,-16.29297 26.67773,16.29297 89.46094,0 c 11.27841,0 20.35742,-9.08097 20.35742,-20.35938 l 0,-121.91602 c 0,-11.2784 -9.07901,-20.35937 -20.35742,-20.35937 l -89.32812,0 -26.45704,16.1582 -25.65234,-16.1582 -74.46289,0 -26.45703,16.1582 -25.65235,-16.1582 -91.21289,0 z m 115.80469,145.63477 27.66211,16.89453 -54.48242,0 26.82031,-16.89453 z"
           id="rect4242" />
        <rect
           style="opacity:1;fill:none;fill-opacity:1;stroke:none;stroke-width:23;stroke-linecap:butt;stroke-linejoin:round;stroke-miterlimit:4;stroke-dasharray:none;stroke-opacity:1"
           id="rect4160-7"
           width="400"
           height="400"
           x="154.92232"
           y="518.60779" />
        <g
           id="g4213"
           transform="matrix(0.90392022,0,0,0.95742813,2.6465748,106.41711)">
          <path
             id="path3778"
             d="m 189.04688,449.46484 0,171.67578 44.00976,0 0,-69.82226 71.65039,0 -25.87695,69.94141 43.87695,0 12.81836,-36.37305 56.77539,0 12.20313,36.32226 45.16015,0 -64.70703,-171.51562 -43.92969,0 -25.63867,69.28516 -82.26953,0 0,-38.45508 87.74414,0 0,-30.82617 -131.8164,-0.23243 z m 361.33984,0.0723 0,119.48828 c -6.93099,27.54724 -50.97854,30.83349 -60.42969,-1.2207 l 0,-118.11328 -41.20117,0.15234 0,120.0957 c 4.85957,28.36821 17.8073,42.1491 41.20117,51.12305 l 61.04102,0 c 31.52075,-13.96948 36.42655,-30.6137 40.89648,-47.76562 l 0,-123.75977 -41.50781,0 z m -186.79492,41.96094 19.54101,66.45117 -39.74414,-0.0762 20.20313,-66.375 z"
             style="fill:#4e505d;stroke:none"
             inkscape:connector-curvature="0" />
          <path
             id="rect4369"
             d="m 189.04688,461.67383 0,6.45312 131.8164,0 0,-6.45312 -131.8164,0 z m 147.54687,0 -2.38672,6.45312 57.70508,0 -2.43555,-6.45312 -52.88281,0 z m 112.16211,0 0,6.45312 41.20117,0 0,-6.45312 -41.20117,0 z m 101.63086,0 0,6.45312 41.50781,0 0,-6.45312 -41.50781,0 z m -361.33984,19.46484 0,6.45313 44.07226,0 0,-6.45313 -44.07226,0 z m 140.34374,0 -2.38671,6.45313 72.25,0 -2.4336,-6.45313 -67.42969,0 z m 119.36524,0 0,6.45313 41.20117,0 0,-6.45313 -41.20117,0 z m 101.63086,0 0,6.45313 41.50781,0 0,-6.45313 -41.50781,0 z m -361.33984,15.38281 0,6.45313 44.07226,0 0,-6.45313 -44.07226,0 z m 134.65234,0 -2.38867,6.45313 38.78711,0 1.96484,-6.45313 -38.36328,0 z m 41.36914,0 1.89844,6.45313 38.09179,0 -2.43554,-6.45313 -37.55469,0 z m 83.6875,0 0,6.45313 41.20117,0 0,-6.45313 -41.20117,0 z m 101.63086,0 0,6.45313 41.50781,0 0,-6.45313 -41.50781,0 z m -361.33984,15.74805 0,6.45313 44.07226,0 0,-6.45313 -44.07226,0 z m 128.82421,0 -2.38867,6.45313 39.82227,0 1.96484,-6.45313 -39.39844,0 z m 51.82813,0 1.89844,6.45313 39.40234,0 -2.43555,-6.45313 -38.86523,0 z m 79.05664,0 0,6.45313 41.20117,0 0,-6.45313 -41.20117,0 z m 101.63086,0 0,6.45313 41.50781,0 0,-6.45313 -41.50781,0 z m -361.33984,19.95313 0,6.45507 160.18359,0 1.96484,-6.45507 -162.14843,0 z m 186.52148,0 1.89648,6.45507 41.0625,0 -2.43554,-6.45507 -40.52344,0 z m 73.1875,0 0,6.45507 41.20117,0 0,-6.45507 -41.20117,0 z m 101.63086,0 0,6.45507 41.50781,0 0,-6.45507 -41.50781,0 z m -361.33984,18.77539 0,6.45312 44.00976,0 0,-6.13281 71.65039,0 -2.26953,6.13281 41.08008,0 1.96289,-6.45312 -156.43359,0 z m 192.04101,0 1.89844,6.45312 42.625,0 -2.43555,-6.45312 -42.08789,0 z m 67.66797,0 0,6.45312 41.20117,0 0,-6.45312 -41.20117,0 z m 101.63086,0 0,6.45312 41.50781,0 0,-6.45312 -41.50781,0 z m -361.33984,15.83984 0,6.45313 44.00976,0 0,-6.45313 -44.00976,0 z m 109.91796,0 -2.38672,6.45313 135.00782,0 -2.4336,-6.45313 -130.1875,0 z m 149.79102,0 0,3.10156 c 0.19588,1.14347 0.40854,2.25486 0.63086,3.35157 l 42.67773,0 c -0.82047,-1.69862 -1.52937,-3.52585 -2.10742,-5.48633 l 0,-0.9668 -41.20117,0 z m 101.63086,0 0,2.1875 c -0.37621,1.49524 -0.86773,2.91512 -1.45117,4.26563 l 42.95898,0 0,-6.45313 -41.50781,0 z m -361.33984,17.89453 0,6.45313 44.00976,0 0,-6.45313 -44.00976,0 z m 103.29687,0 -2.38672,6.45313 43.34766,0 2.2207,-6.29883 56.77539,0 2.11524,6.29883 43.92187,0 -2.43555,-6.45313 -143.55859,0 z m 160.125,0 c 0.79087,2.27129 1.66713,4.41774 2.625,6.45313 l 130.74023,0 c 1.03733,-2.13071 1.90241,-4.28473 2.67383,-6.45313 l -48.85742,0 c -10.80463,7.78065 -26.86391,8.30381 -38.16992,0 l -49.01172,0 z m -263.42187,17.30664 0,6.45313 44.00976,0 0,-6.45313 -44.00976,0 z m 96.89453,0 -2.38672,6.45313 43.65234,0 2.27344,-6.45313 -43.53906,0 z m 112.12109,0 2.16992,6.45313 44.63477,0 -2.43555,-6.45313 -44.36914,0 z m 63.75391,0 c 1.87646,2.33666 3.93281,4.48279 6.18554,6.45313 l 104.08985,0 c 2.54574,-2.11321 4.72324,-4.26737 6.60937,-6.45313 l -116.88476,0 z"
             style="color:#252525;clip-rule:nonzero;display:inline;overflow:visible;visibility:visible;opacity:1;isolation:auto;mix-blend-mode:normal;color-interpolation:sRGB;color-interpolation-filters:linearRGB;solid-color:#252525;solid-opacity:1;fill:#ffffff;fill-opacity:1;fill-rule:nonzero;stroke:none;stroke-width:10;stroke-linecap:butt;stroke-linejoin:bevel;stroke-miterlimit:4;stroke-dasharray:none;stroke-dashoffset:60.95968628;stroke-opacity:1;color-rendering:auto;image-rendering:auto;shape-rendering:auto;text-rendering:auto;enable-background:accumulate"
             inkscape:connector-curvature="0" />
        </g>
        <path
           inkscape:connector-curvature="0"
           id="path4229"
           style="font-style:normal;font-variant:normal;font-weight:bold;font-stretch:normal;font-size:medium;line-height:125%;font-family:arial;-inkscape-font-specification:'arial Bold';text-align:center;letter-spacing:0px;word-spacing:0px;text-anchor:middle;fill:#ffffff;fill-opacity:1;stroke:none;stroke-width:1px;stroke-linecap:butt;stroke-linejoin:miter;stroke-opacity:1"
           d="m 172.8637,837.89266 c 0,-12.53882 1.75061,-23.06247 5.25183,-31.57094 2.61285,-6.26941 6.16633,-11.89509 10.66043,-16.87702 4.54636,-4.98195 9.51078,-8.67642 14.89325,-11.08342 7.15921,-3.24666 15.41582,-4.86999 24.76982,-4.86999 16.93127,0 30.46584,5.62568 40.6037,16.87703 10.19011,11.25134 15.28517,26.89687 15.28517,46.93658 0,19.87179 -5.0428,35.43335 -15.12841,46.68469 -10.0856,11.19537 -23.56791,16.79305 -40.44692,16.79305 -17.08804,0 -30.67486,-5.56969 -40.76046,-16.70908 -10.08561,-11.19537 -15.12841,-26.58901 -15.12841,-46.1809 z m 21.90759,-0.83966 c 0,13.93824 3.00478,26.51787 9.01433,33.73888 6.00955,7.16503 15.63908,10.74755 24.88857,10.74755 9.24949,0 18.82675,-3.55453 24.73179,-10.66359 5.9573,-7.16504 8.93595,-19.8846 8.93595,-34.15869 0,-14.10617 -2.90026,-26.62982 -8.70078,-33.57095 -5.74827,-6.94113 -15.40393,-10.4117 -24.96696,-10.4117 -9.56303,0 -19.27094,3.52654 -25.12372,10.57963 -5.85279,6.9971 -8.77918,19.57672 -8.77918,33.73887 z"
           sodipodi:nodetypes="scccscscscsscscscscs" />
        <path
           inkscape:connector-curvature="0"
           id="path4231"
           style="font-style:normal;font-variant:normal;font-weight:bold;font-stretch:normal;font-size:medium;line-height:125%;font-family:arial;-inkscape-font-specification:'arial Bold';text-align:center;letter-spacing:0px;word-spacing:0px;text-anchor:middle;fill:#ffffff;fill-opacity:1;stroke:none;stroke-width:1px;stroke-linecap:butt;stroke-linejoin:miter;stroke-opacity:1"
           d="m 300.28929,900.80483 0,-127.33573 47.64999,0 c 12.45473,0 19.61359,1.15812 25.23147,3.47437 5.67087,2.25835 10.20228,8.31178 13.59421,14.1603 3.39193,5.84853 5.0879,10.5367 5.0879,18.0645 0,9.55453 -2.57045,17.45872 -7.71135,23.71259 -5.14089,6.19596 -12.94828,10.10463 -23.17707,11.72601 5.0879,3.24274 9.27481,6.80397 12.56074,10.68369 3.33894,3.87971 5.69602,10.77055 11.31389,20.67251 l 10.35152,24.84176 -22.15976,0 -13.34451,-30.53654 c -6.04187,-9.90196 -11.82654,-13.29845 -14.05249,-15.84632 -2.22595,-2.60578 -8.5844,-4.37192 -11.07535,-5.29841 -2.49095,-0.98441 -4.31681,-1.47662 -9.72268,-1.47662 l -4.7699,0 0,53.15789 z m 19.77661,-73.48295 19.28757,0 c 11.28874,0 18.3376,-0.52116 21.14654,-1.56348 2.80893,-1.04231 5.00838,-2.8374 6.59836,-5.38528 1.58995,-2.54787 2.38494,-7.7327 2.38494,-11.55451 0,-4.28507 -1.05998,-7.73049 -3.17994,-10.33627 -2.06695,-2.66368 -5.00838,-4.34296 -8.82429,-5.03783 -1.90796,-0.28953 -7.63184,-0.4343 -17.17163,-0.4343 l -20.24155,0 z"
           sodipodi:nodetypes="ccscsscccccccccsccccssssccscc" />
        <path
           inkscape:connector-curvature="0"
           id="path4233"
           style="font-style:normal;font-variant:normal;font-weight:bold;font-stretch:normal;font-size:medium;line-height:125%;font-family:arial;-inkscape-font-specification:'arial Bold';text-align:center;letter-spacing:0px;word-spacing:0px;text-anchor:middle;fill:#ffffff;fill-opacity:1;stroke:none;stroke-width:1px;stroke-linecap:butt;stroke-linejoin:miter;stroke-opacity:1"
           d="m 483.10194,847.42623 0,-20.73942 54.23072,0 0,55.03572 c -5.07571,5.03792 -12.44368,9.48808 -22.10391,13.35048 -9.60565,3.80642 -19.34774,5.70963 -29.22628,5.70963 -12.55284,0 -21.37432,-4.1011 -30.70709,-9.47487 -9.33276,-5.42975 -16.69953,-13.50812 -21.3932,-23.52798 -4.69367,-10.07583 -6.80827,-19.25153 -6.80827,-31.06264 0,-12.8187 2.74104,-23.14933 7.98049,-33.11321 5.23945,-9.96389 12.78627,-16.66539 22.88312,-21.98319 7.69543,-4.08631 15.2738,-8.12946 26.73509,-8.12946 14.89967,0 26.52469,3.21867 34.87505,9.65601 8.40495,6.38136 13.80813,15.2257 16.20954,26.53303 l -22.30093,3.55743 c -1.69191,-6.0455 -6.65246,-12.5713 -11.34613,-16.04187 -4.63909,-3.52655 -11.51226,-4.22916 -18.49819,-4.22916 -10.58805,0 -17.95962,5.21035 -24.23604,12.0955 -6.22185,6.88515 -11.33277,17.10093 -11.33277,30.64733 0,14.60996 5.1655,25.58142 11.4965,32.91439 6.331,7.27699 13.91968,13.39035 24.18026,13.39035 5.07571,0 12.97985,-1.00758 18.05557,-3.02275 5.13029,-2.07115 11.40246,-7.03698 15.05916,-9.94777 l 0,-21.61755 z"
           sodipodi:nodetypes="cccccsccsscsccccscscscccc" />
        <path
           inkscape:connector-curvature="0"
           style="color:#000000;clip-rule:nonzero;display:inline;overflow:visible;visibility:visible;opacity:1;isolation:auto;mix-blend-mode:normal;color-interpolation:sRGB;color-interpolation-filters:linearRGB;solid-color:#000000;solid-opacity:1;fill:#4e505d;fill-opacity:1;fill-rule:evenodd;stroke:none;stroke-width:6.9000001;stroke-linecap:butt;stroke-linejoin:round;stroke-miterlimit:4;stroke-dasharray:none;stroke-dashoffset:0;stroke-opacity:1;color-rendering:auto;image-rendering:auto;shape-rendering:auto;text-rendering:auto;enable-background:accumulate"
           d="m 346.09615,700.46241 c -5.03061,0 -9.08008,4.16097 -9.08008,9.33008 l 0,8.83007 -118.21289,0 -0.0957,0 c -5.00555,0 -9.03516,4.02961 -9.03516,9.03516 l 0,0.0957 0,0.13281 0,28.13477 c 0,5.0585 4.07236,9.13086 9.13086,9.13086 5.0585,0 9.13086,-4.07236 9.13086,-9.13086 l 0,-19.09961 109.08203,0 0,19.19531 c 0,5.00555 4.02961,9.03516 9.03516,9.03516 l 0.0898,0 c 5.00555,0 9.03516,-4.02961 9.03516,-9.03516 l 0,-19.19531 127.24609,0 0,19.19531 c 0,5.00555 4.02961,9.03516 9.03516,9.03516 l 0.45507,0 c 5.00555,0 9.03516,-4.02961 9.03516,-9.03516 l 0,-28.23047 0,-0.22851 c 0,-5.00555 -4.02961,-9.03516 -9.03516,-9.03516 l -136.73632,0 0,-8.83007 c 0,-5.16912 -4.04948,-9.33008 -9.08008,-9.33008 z"
           id="rect4238"
           sodipodi:nodetypes="csccssccsssccssssccsssscsscscc" />
      </g>
    </g>
  </g>
</svg>
