<?xml version="1.0" encoding="UTF-8" standalone="no"?>
<!-- Created with Inkscape (http://www.inkscape.org/) -->

<svg
   xmlns:dc="http://purl.org/dc/elements/1.1/"
   xmlns:cc="http://creativecommons.org/ns#"
   xmlns:rdf="http://www.w3.org/1999/02/22-rdf-syntax-ns#"
   xmlns:svg="http://www.w3.org/2000/svg"
   xmlns="http://www.w3.org/2000/svg"
   xmlns:xlink="http://www.w3.org/1999/xlink"
   xmlns:sodipodi="http://sodipodi.sourceforge.net/DTD/sodipodi-0.dtd"
   xmlns:inkscape="http://www.inkscape.org/namespaces/inkscape"
   width="210mm"
   height="297mm"
   viewBox="0 0 744.09448819 1052.3622047"
   id="svg2"
   version="1.1"
   inkscape:version="0.91 r13725"
   inkscape:export-xdpi="4.9499998"
   inkscape:export-ydpi="4.9499998"
   sodipodi:docname="footnote-edit.svg"
   inkscape:export-filename="C:\Users\johannes\Documents\Arbeit\RRZE\github3\bicons\22x22\emblems\footnote-edit.png">
  <defs
     id="defs4">
    <linearGradient
       id="linearGradient2224">
      <stop
         id="stop2226"
         offset="0"
         style="stop-color:#7c7c7c;stop-opacity:1;" />
      <stop
         id="stop2228"
         offset="1"
         style="stop-color:#b8b8b8;stop-opacity:1;" />
    </linearGradient>
    <linearGradient
       id="linearGradient15218">
      <stop
         id="stop15220"
         offset="0"
         style="stop-color:#eeeeef;stop-opacity:1;" />
      <stop
         id="stop2736"
         offset="0.59928656"
         style="stop-color:#d3d7cf;stop-opacity:1;" />
      <stop
         id="stop2738"
         offset="0.82758623"
         style="stop-color:#ffffff;stop-opacity:1;" />
      <stop
         id="stop15222"
         offset="1"
         style="stop-color:#d3d7cf;stop-opacity:1;" />
    </linearGradient>
    <pattern
       y="0"
       x="0"
       height="6"
       width="6"
       patternUnits="userSpaceOnUse"
       id="EMFhbasepattern" />
    <pattern
       y="0"
       x="0"
       height="6"
       width="6"
       patternUnits="userSpaceOnUse"
       id="EMFhbasepattern-5" />
    <linearGradient
       inkscape:collect="always"
       xlink:href="#linearGradient4167"
       id="linearGradient4220"
       x1="543.8963"
       y1="349.86026"
       x2="243.0625"
       y2="263.67542"
       gradientUnits="userSpaceOnUse"
       gradientTransform="matrix(-0.77398411,0.48332612,0.47987656,0.77203072,598.11222,108.66218)" />
    <linearGradient
       inkscape:collect="always"
       id="linearGradient4167">
      <stop
         style="stop-color:#4e505d;stop-opacity:1;"
         offset="0"
         id="stop4169" />
      <stop
         style="stop-color:#7a8597;stop-opacity:1"
         offset="1"
         id="stop4171" />
    </linearGradient>
  </defs>
  <sodipodi:namedview
     id="base"
     pagecolor="#ffffff"
     bordercolor="#666666"
     borderopacity="1.0"
     inkscape:pageopacity="0.0"
     inkscape:pageshadow="2"
     inkscape:zoom="0.70710678"
     inkscape:cx="407.84539"
     inkscape:cy="514.17284"
     inkscape:document-units="px"
     inkscape:current-layer="g4191"
     showgrid="false"
     showguides="true"
     inkscape:guide-bbox="true"
     inkscape:window-width="1366"
     inkscape:window-height="721"
     inkscape:window-x="-4"
     inkscape:window-y="-4"
     inkscape:window-maximized="1"
     inkscape:snap-bbox="true"
     inkscape:bbox-paths="true"
     inkscape:bbox-nodes="true"
     inkscape:snap-nodes="false">
    <sodipodi:guide
       position="560,730.00002"
       orientation="0,1"
       id="guide3338" />
    <sodipodi:guide
       position="560,330.00001"
       orientation="0,1"
       id="guide3340" />
    <sodipodi:guide
       position="190,475.00001"
       orientation="1,0"
       id="guide3344" />
    <sodipodi:guide
       position="590,451.00001"
       orientation="1,0"
       id="guide3346" />
    <inkscape:grid
       type="xygrid"
       id="grid3440" />
  </sodipodi:namedview>
  <metadata
     id="metadata7">
    <rdf:RDF>
      <cc:Work
         rdf:about="">
        <dc:format>image/svg+xml</dc:format>
        <dc:type
           rdf:resource="http://purl.org/dc/dcmitype/StillImage" />
        <dc:title>footnote edit</dc:title>
        <dc:date>June 2015</dc:date>
        <dc:creator>
          <cc:Agent>
            <dc:title>Johannes Hechler</dc:title>
          </cc:Agent>
        </dc:creator>
        <dc:rights>
          <cc:Agent>
            <dc:title>Johannes Hechler</dc:title>
          </cc:Agent>
        </dc:rights>
        <dc:publisher>
          <cc:Agent>
            <dc:title>RRZE</dc:title>
          </cc:Agent>
        </dc:publisher>
        <dc:contributor>
          <cc:Agent>
            <dc:title>Ute Weber, Hendrik Eggers</dc:title>
          </cc:Agent>
        </dc:contributor>
      </cc:Work>
    </rdf:RDF>
  </metadata>
  <g
     inkscape:label="Ebene 1"
     inkscape:groupmode="layer"
     id="layer1">
    <rect
       style="opacity:1;fill:none;fill-opacity:1;stroke:none;stroke-width:23;stroke-linecap:butt;stroke-linejoin:round;stroke-miterlimit:4;stroke-dasharray:none;stroke-opacity:1"
       id="rect4160"
       width="400"
       height="400"
       x="190"
       y="322.36221" />
    <g
       id="g4191"
       transform="matrix(-0.85287501,0.5313577,0.52878958,0.84875296,620.87312,66.413793)">
      <g
         id="g4187">
        <path
           id="rect4169"
           d="M 498.62607,-10.604235 160.76573,200.9116 371.25927,540.41277 709.11961,328.89693 Z"
           style="color:#000000;clip-rule:nonzero;display:inline;overflow:visible;visibility:visible;opacity:1;isolation:auto;mix-blend-mode:normal;color-interpolation:sRGB;color-interpolation-filters:linearRGB;solid-color:#000000;solid-opacity:1;fill:none;fill-opacity:1;fill-rule:nonzero;stroke:none;stroke-width:50;stroke-linecap:round;stroke-linejoin:round;stroke-miterlimit:4;stroke-dasharray:none;stroke-dashoffset:0;stroke-opacity:1;color-rendering:auto;image-rendering:auto;shape-rendering:auto;text-rendering:auto;enable-background:accumulate"
           inkscape:connector-curvature="0" />
        <path
           id="path4175"
           transform="matrix(-0.84465083,0.52878958,0.52623387,0.84875295,489.47181,-384.68014)"
           d="M 356.59375 338.5957 C 351.79654 338.58345 348.18917 340.54545 346.26562 341.74805 C 340.35035 345.44198 341.59023 354.24243 345.39648 360.36523 C 349.20232 366.48913 361.29554 371.40789 367.21094 367.71289 C 373.12636 364.01922 374.6246 349.1111 370.81836 342.98828 C 368.47307 339.21248 362.85425 338.93187 357.57031 338.625 C 357.24007 338.60582 356.91356 338.59652 356.59375 338.5957 z M 307.03516 338.76562 C 305.26881 338.81163 303.69719 339.02747 302.80273 339.58594 C 295.92632 343.87974 295.05255 358.07252 299.55273 365.3125 C 302.94167 378.94754 321.345 380.62666 328.57227 375.2793 C 335.44878 370.98567 334.63691 355.73999 330.13672 348.5 C 327.36279 344.0381 320.30885 339.33301 315.24414 339.14844 C 313.46264 339.08359 309.97907 338.68895 307.03516 338.76562 z M 391.05273 341.1875 C 389.42755 341.23104 387.86195 341.69674 386.5 342.54688 C 382.01125 345.34934 381.40792 357.80018 384.41602 362.64062 C 387.42422 367.48046 398.63418 369.25656 403.12305 366.45508 C 407.61181 363.6526 402.74249 353.30724 399.73438 348.4668 C 397.87983 345.48249 395.08467 341.3536 391.75391 341.19531 C 391.51975 341.1842 391.2849 341.18128 391.05273 341.1875 z M 270.4668 359.2832 C 266.54418 359.3225 259.57024 359.85446 257.14062 361.37305 C 246.75689 365.57928 245.12806 381.25158 254.5625 391.01758 C 259.75299 399.36834 275.92856 402.50392 283.93555 397.50195 C 291.94073 392.50161 295.0657 378.31182 289.87695 369.96289 C 286.67846 364.81573 277.81905 359.48374 271.9375 359.29492 C 271.52378 359.2819 271.02717 359.27759 270.4668 359.2832 z M 374.92578 383.36133 C 355.28344 383.54735 333.35224 391.09282 310.86133 410.29883 C 241.94011 469.15381 280.78509 512.05341 314.00586 520.57812 C 350.66773 529.98585 360.53554 501.57078 395.91016 507.46289 C 431.28474 513.35498 439.62311 531.83537 443.13281 564.8418 C 443.3409 566.79868 443.52733 568.66063 443.70508 570.47461 L 486.33008 527.84961 A 17.958245 18.045461 58.076278 0 1 497.17188 522.66992 C 492.19548 513.18226 488.96875 506.50586 488.96875 506.50586 C 488.96875 506.50586 458.22515 447.23058 438.94727 414.25391 C 426.89862 393.64347 407.66306 383.05132 374.92578 383.36133 z M 237.42773 400.07422 C 231.84908 400.02613 225.76792 401.61745 219.45898 405.34961 C 207.27953 412.95396 201.17585 432.87469 209.46094 446.20508 C 217.74676 459.5359 240.65511 466.28238 252.83398 458.67578 C 279.55907 438.58348 264.30671 400.30593 237.42773 400.07422 z M 499.00391 565.97656 L 448.42578 616.55469 C 449.9011 625.92107 452.09808 636.70509 455.79297 651.31836 C 456.83812 655.45191 458.27103 659.43138 460.03125 663.22852 L 528.14258 595.11719 L 499.00391 565.97656 z M 557.76953 616.28906 L 482.80078 691.25781 C 504.7744 707.92224 534.29575 711.59275 553.11914 692.12695 C 573.63211 670.91399 570.64068 642.32408 557.76953 616.28906 z "
           style="fill:url(#linearGradient4220);fill-opacity:1;fill-rule:evenodd;stroke:none;stroke-width:1px;stroke-linecap:butt;stroke-linejoin:miter;stroke-opacity:1" />
        <path
           id="path4268"
           d="m 302.53822,326.35312 24.92225,5.81683 -17.36616,75.12988 -24.95855,-5.79411 c -9.27977,-27.16445 -3.98534,-53.6484 17.40246,-75.1526 z m 49.84451,11.63367 149.53621,34.90163 c -13.83804,21.90544 -16.72734,48.07826 -17.36617,75.12988 l -149.5362,-34.90164 17.36616,-75.12987 z m 174.46012,40.71743 28.72188,46.325 -46.06812,28.84072 c -5.12064,-28.06589 -1.88229,-53.82411 17.34624,-75.16572 z"
           style="fill:#99b000;fill-rule:evenodd;stroke:none;stroke-width:1px;stroke-linecap:butt;stroke-linejoin:miter;stroke-opacity:1"
           inkscape:connector-curvature="0" />
      </g>
    </g>
  </g>
</svg>
