<?xml version="1.0" encoding="UTF-8" standalone="no"?>
<!-- Created with Inkscape (http://www.inkscape.org/) -->

<svg
   xmlns:dc="http://purl.org/dc/elements/1.1/"
   xmlns:cc="http://creativecommons.org/ns#"
   xmlns:rdf="http://www.w3.org/1999/02/22-rdf-syntax-ns#"
   xmlns:svg="http://www.w3.org/2000/svg"
   xmlns="http://www.w3.org/2000/svg"
   xmlns:xlink="http://www.w3.org/1999/xlink"
   xmlns:sodipodi="http://sodipodi.sourceforge.net/DTD/sodipodi-0.dtd"
   xmlns:inkscape="http://www.inkscape.org/namespaces/inkscape"
   width="210mm"
   height="297mm"
   viewBox="0 0 744.09448819 1052.3622047"
   id="svg2"
   version="1.1"
   inkscape:version="0.91 r13725"
   inkscape:export-xdpi="4.9507661"
   inkscape:export-ydpi="4.9507661"
   sodipodi:docname="for-free.svg"
   inkscape:export-filename="C:\Users\johannes\Documents\Arbeit\RRZE\github3\bicons\22x22\emblems\for-free.png">
  <title
     id="title4159">for free</title>
  <defs
     id="defs4">
    <linearGradient
       id="linearGradient2224">
      <stop
         id="stop2226"
         offset="0"
         style="stop-color:#7c7c7c;stop-opacity:1;" />
      <stop
         id="stop2228"
         offset="1"
         style="stop-color:#b8b8b8;stop-opacity:1;" />
    </linearGradient>
    <linearGradient
       id="linearGradient15218">
      <stop
         id="stop15220"
         offset="0"
         style="stop-color:#eeeeef;stop-opacity:1;" />
      <stop
         id="stop2736"
         offset="0.59928656"
         style="stop-color:#d3d7cf;stop-opacity:1;" />
      <stop
         id="stop2738"
         offset="0.82758623"
         style="stop-color:#ffffff;stop-opacity:1;" />
      <stop
         id="stop15222"
         offset="1"
         style="stop-color:#d3d7cf;stop-opacity:1;" />
    </linearGradient>
    <pattern
       y="0"
       x="0"
       height="6"
       width="6"
       patternUnits="userSpaceOnUse"
       id="EMFhbasepattern" />
    <pattern
       y="0"
       x="0"
       height="6"
       width="6"
       patternUnits="userSpaceOnUse"
       id="EMFhbasepattern-5" />
    <pattern
       y="0"
       x="0"
       height="6"
       width="6"
       patternUnits="userSpaceOnUse"
       id="EMFhbasepattern-52" />
    <linearGradient
       inkscape:collect="always"
       xlink:href="#linearGradient4167"
       id="linearGradient4233"
       x1="-46.619331"
       y1="845.992"
       x2="226.27969"
       y2="700.62189"
       gradientUnits="userSpaceOnUse"
       gradientTransform="translate(-118.96138,-612.89077)" />
    <linearGradient
       inkscape:collect="always"
       id="linearGradient4167">
      <stop
         style="stop-color:#4e505d;stop-opacity:1;"
         offset="0"
         id="stop4169" />
      <stop
         style="stop-color:#7a8597;stop-opacity:1"
         offset="1"
         id="stop4171" />
    </linearGradient>
  </defs>
  <sodipodi:namedview
     id="base"
     pagecolor="#ffffff"
     bordercolor="#666666"
     borderopacity="1.0"
     inkscape:pageopacity="0.0"
     inkscape:pageshadow="2"
     inkscape:zoom="0.70710678"
     inkscape:cx="206.04389"
     inkscape:cy="456.55666"
     inkscape:document-units="px"
     inkscape:current-layer="layer1"
     showgrid="false"
     showguides="true"
     inkscape:guide-bbox="true"
     inkscape:window-width="1366"
     inkscape:window-height="721"
     inkscape:window-x="-4"
     inkscape:window-y="-4"
     inkscape:window-maximized="1">
    <sodipodi:guide
       position="560,730.00002"
       orientation="0,1"
       id="guide3338" />
    <sodipodi:guide
       position="560,330.00001"
       orientation="0,1"
       id="guide3340" />
    <sodipodi:guide
       position="190,475.00001"
       orientation="1,0"
       id="guide3344" />
    <sodipodi:guide
       position="590,451.00001"
       orientation="1,0"
       id="guide3346" />
    <inkscape:grid
       type="xygrid"
       id="grid3440" />
    <sodipodi:guide
       position="-111.01577,704.98548"
       orientation="0,1"
       id="guide4151" />
    <sodipodi:guide
       position="54.25,355.00001"
       orientation="0,1"
       id="guide4153" />
    <sodipodi:guide
       position="215,442.00001"
       orientation="1,0"
       id="guide4155" />
    <sodipodi:guide
       position="564.97832,467.39759"
       orientation="1,0"
       id="guide4157" />
  </sodipodi:namedview>
  <metadata
     id="metadata7">
    <rdf:RDF>
      <cc:Work
         rdf:about="">
        <dc:format>image/svg+xml</dc:format>
        <dc:type
           rdf:resource="http://purl.org/dc/dcmitype/StillImage" />
        <dc:title>for free</dc:title>
        <dc:date>June 2015</dc:date>
        <dc:creator>
          <cc:Agent>
            <dc:title>Johannes Hechler</dc:title>
          </cc:Agent>
        </dc:creator>
        <dc:rights>
          <cc:Agent>
            <dc:title>Johannes Hechler</dc:title>
          </cc:Agent>
        </dc:rights>
        <dc:publisher>
          <cc:Agent>
            <dc:title>RRZE</dc:title>
          </cc:Agent>
        </dc:publisher>
        <dc:contributor>
          <cc:Agent>
            <dc:title>Ute Weber, Hendrik Eggers</dc:title>
          </cc:Agent>
        </dc:contributor>
      </cc:Work>
    </rdf:RDF>
  </metadata>
  <g
     inkscape:label="Ebene 1"
     inkscape:groupmode="layer"
     id="layer1">
    <g
       id="g4244"
       transform="translate(465.27626,344.361)">
      <path
         id="rect4214"
         d="m -274.92236,-21.621788 399.93808,0 0,400.000018 -399.93808,0 z"
         style="color:#000000;clip-rule:nonzero;display:inline;overflow:visible;visibility:visible;opacity:1;isolation:auto;mix-blend-mode:normal;color-interpolation:sRGB;color-interpolation-filters:linearRGB;solid-color:#000000;solid-opacity:1;fill:none;fill-opacity:1;fill-rule:nonzero;stroke:none;stroke-width:50;stroke-linecap:butt;stroke-linejoin:miter;stroke-miterlimit:4;stroke-dasharray:none;stroke-dashoffset:0;stroke-opacity:1;color-rendering:auto;image-rendering:auto;shape-rendering:auto;text-rendering:auto;enable-background:accumulate"
         inkscape:connector-curvature="0" />
      <path
         inkscape:connector-curvature="0"
         id="path4212"
         d="m -274.92235,251.486 c 0,0 109.06543,-22.92985 200.146861,-22.92985 91.08143,0 199.791209,22.92985 199.791209,22.92985 l 0,-160.161518 c 0,0 -145.308069,-22.68525 -217.952249,-22.68525 -72.644181,0 -181.985821,22.68525 -181.985821,22.68525 z"
         style="fill:url(#linearGradient4233);fill-opacity:1;fill-rule:evenodd;stroke:none;stroke-width:1px;stroke-linecap:butt;stroke-linejoin:miter;stroke-opacity:1" />
      <g
         id="text4198"
         style="font-style:normal;font-weight:normal;font-size:113.70111084px;line-height:125%;font-family:sans-serif;letter-spacing:0px;word-spacing:0px;fill:#ffffff;fill-opacity:1;stroke:none;stroke-width:1px;stroke-linecap:butt;stroke-linejoin:miter;stroke-opacity:1"
         transform="matrix(0.95327286,0,0,1.0490176,-118.96138,-613.59788)">
        <path
           sodipodi:nodetypes="cccccccccccccccccccccccccsscsccccccccccccccccccccccccccccsccsssscc"
           inkscape:connector-curvature="0"
           id="path4203"
           d="m -105.92388,686.81391 0,85.20435 18.531966,0 0,-34.58779 31.878249,0 0,-15.67501 -31.878249,0 0,-19.26654 37.264703,0 0,-15.67501 z m 75.748491,0 0,85.20435 18.52992,0 0,-33.97711 3.3314491,0 c 3.1944265,-1.82833 2.3376623,0.31289 4.0772377,0.9421 1.7395649,0.59219 1.28726,1.72118 2.8417677,3.38673 1.55450772,1.62853 4.443219,3.70079 8.662588,10.02984 l 9.7812705,19.61844 19.65474,0 -7.840997,-17.78636 c -3.923284,-6.32907 -7.049975,-10.73195 -9.381742,-13.21177 -2.294747,-2.47981 -5.218023,-4.75662 -8.771182,-6.8293 7.143337,-1.03635 12.509797,-3.53557 16.099965,-7.49586 3.590168,-3.9973 5.384408,-9.04856 5.384408,-15.15555 0,-4.81157 -1.183953,-10.99282 -3.552729,-14.73104 -2.368766,-3.73822 -5.534134,-6.3298 -9.494427,-7.77327 -3.923274,-1.48048 -10.2336496,-2.2212 -18.93148463,-2.2212 z m 77.914145,0 0,85.20435 55.608184,0 0,-15.62102 -37.076218,0 0,-20.24402 34.566358,0 0,-15.61914 -34.566358,0 0,-16.13862 37.621208,0 0,-17.58155 z m 75.949284,0 0,85.20435 57.70622,0 0,-15.62102 -39.17425,0 0,-20.24402 34.56635,0 0,-15.61914 -34.56635,0 0,-16.13862 37.62121,0 0,-17.58155 z m -135.333509,17.58155 6.531771,0 c 6.6621744,0 10.6595609,0.0942 11.9919916,0.27928 2.6648719,0.44415 4.7195094,3.42315 6.1629784,5.1257 1.480479,1.66554 2.22097,0.054 2.22097,2.7928 0,2.4428 -0.555371,2.57369 -1.665725,4.20222 -1.110364,1.62853 -2.646252,2.7745 -4.6078937,3.44072 -1.9616419,0.6662 -4.7865939,0.99982 -12.670171,0.99982 l -7.9639213,0 z"
           style="font-style:normal;font-variant:normal;font-weight:bold;font-stretch:normal;font-family:Arial;-inkscape-font-specification:'Arial Bold';fill:#ffffff" />
      </g>
    </g>
  </g>
</svg>
