<?xml version="1.0" encoding="UTF-8" standalone="no"?>
<!-- Created with Inkscape (http://www.inkscape.org/) -->

<svg
   xmlns:dc="http://purl.org/dc/elements/1.1/"
   xmlns:cc="http://creativecommons.org/ns#"
   xmlns:rdf="http://www.w3.org/1999/02/22-rdf-syntax-ns#"
   xmlns:svg="http://www.w3.org/2000/svg"
   xmlns="http://www.w3.org/2000/svg"
   xmlns:xlink="http://www.w3.org/1999/xlink"
   xmlns:sodipodi="http://sodipodi.sourceforge.net/DTD/sodipodi-0.dtd"
   xmlns:inkscape="http://www.inkscape.org/namespaces/inkscape"
   width="210mm"
   height="297mm"
   viewBox="0 0 744.09448819 1052.3622047"
   id="svg2"
   version="1.1"
   inkscape:version="0.91 r13725"
   inkscape:export-xdpi="4.9499998"
   inkscape:export-ydpi="4.9499998"
   sodipodi:docname="geo-id.svg"
   inkscape:export-filename="D:\Dokumente\Arbeit\RRZE\github\bicons\22x22\emblems\geo-id.png">
  <defs
     id="defs4">
    <linearGradient
       id="linearGradient2224">
      <stop
         id="stop2226"
         offset="0"
         style="stop-color:#7c7c7c;stop-opacity:1;" />
      <stop
         id="stop2228"
         offset="1"
         style="stop-color:#b8b8b8;stop-opacity:1;" />
    </linearGradient>
    <linearGradient
       id="linearGradient15218">
      <stop
         id="stop15220"
         offset="0"
         style="stop-color:#eeeeef;stop-opacity:1;" />
      <stop
         id="stop2736"
         offset="0.59928656"
         style="stop-color:#d3d7cf;stop-opacity:1;" />
      <stop
         id="stop2738"
         offset="0.82758623"
         style="stop-color:#ffffff;stop-opacity:1;" />
      <stop
         id="stop15222"
         offset="1"
         style="stop-color:#d3d7cf;stop-opacity:1;" />
    </linearGradient>
    <pattern
       y="0"
       x="0"
       height="6"
       width="6"
       patternUnits="userSpaceOnUse"
       id="EMFhbasepattern" />
    <pattern
       y="0"
       x="0"
       height="6"
       width="6"
       patternUnits="userSpaceOnUse"
       id="EMFhbasepattern-5" />
    <linearGradient
       inkscape:collect="always"
       xlink:href="#linearGradient4167"
       id="linearGradient4169"
       x1="189.10713"
       y1="722.18365"
       x2="589.04523"
       y2="374.95392"
       gradientUnits="userSpaceOnUse"
       gradientTransform="matrix(0.91074995,0,0,0.91125,35.133281,46.683064)" />
    <linearGradient
       inkscape:collect="always"
       id="linearGradient4167">
      <stop
         style="stop-color:#4e505d;stop-opacity:1;"
         offset="0"
         id="stop4169" />
      <stop
         style="stop-color:#7a8597;stop-opacity:1"
         offset="1"
         id="stop4171" />
    </linearGradient>
  </defs>
  <sodipodi:namedview
     id="base"
     pagecolor="#ffffff"
     bordercolor="#666666"
     borderopacity="1.0"
     inkscape:pageopacity="0.0"
     inkscape:pageshadow="2"
     inkscape:zoom="0.70710678"
     inkscape:cx="405.1465"
     inkscape:cy="344.53866"
     inkscape:document-units="px"
     inkscape:current-layer="layer1"
     showgrid="false"
     showguides="true"
     inkscape:guide-bbox="true"
     inkscape:window-width="1600"
     inkscape:window-height="837"
     inkscape:window-x="-4"
     inkscape:window-y="-4"
     inkscape:window-maximized="1"
     inkscape:snap-bbox="true"
     inkscape:bbox-paths="true"
     inkscape:bbox-nodes="true">
    <sodipodi:guide
       position="315.53572,730.17859"
       orientation="0,1"
       id="guide3338" />
    <sodipodi:guide
       position="351.25,330.17858"
       orientation="0,1"
       id="guide3340" />
    <sodipodi:guide
       position="189.10714,408.8393"
       orientation="1,0"
       id="guide3344" />
    <sodipodi:guide
       position="589.04521,468.07945"
       orientation="1,0"
       id="guide3346" />
    <inkscape:grid
       type="xygrid"
       id="grid3440" />
    <sodipodi:guide
       position="589.04521,378.30213"
       orientation="1,0"
       id="guide3411" />
  </sodipodi:namedview>
  <metadata
     id="metadata7">
    <rdf:RDF>
      <cc:Work
         rdf:about="">
        <dc:format>image/svg+xml</dc:format>
        <dc:type
           rdf:resource="http://purl.org/dc/dcmitype/StillImage" />
        <dc:title>geo id</dc:title>
        <dc:date>June 2015</dc:date>
        <dc:creator>
          <cc:Agent>
            <dc:title>Johannes Hechler</dc:title>
          </cc:Agent>
        </dc:creator>
        <dc:rights>
          <cc:Agent>
            <dc:title>Johannes Hechler</dc:title>
          </cc:Agent>
        </dc:rights>
        <dc:publisher>
          <cc:Agent>
            <dc:title>RRZE</dc:title>
          </cc:Agent>
        </dc:publisher>
        <dc:contributor>
          <cc:Agent>
            <dc:title>Ute Weber, Hendrik Eggers</dc:title>
          </cc:Agent>
        </dc:contributor>
      </cc:Work>
    </rdf:RDF>
  </metadata>
  <g
     inkscape:label="Ebene 1"
     inkscape:groupmode="layer"
     id="layer1">
    <g
       id="g4211">
      <flowRoot
         style="font-style:normal;font-weight:normal;font-size:40px;line-height:125%;font-family:sans-serif;letter-spacing:0px;word-spacing:0px;fill:#252525;fill-opacity:1;stroke:none;stroke-width:1px;stroke-linecap:butt;stroke-linejoin:miter;stroke-opacity:1"
         id="flowRoot4169"
         xml:space="preserve"
         transform="translate(-0.09963895,-0.08642779)"><flowRegion
           id="flowRegion4171"><rect
             y="427.07962"
             x="89.541069"
             height="88.78862"
             width="56.433445"
             id="rect4173" /></flowRegion><flowPara
           id="flowPara4175" /></flowRoot>      <rect
         inkscape:export-ydpi="4.9499998"
         inkscape:export-xdpi="4.9499998"
         y="322.18362"
         x="189.04521"
         height="400"
         width="400"
         id="rect3336"
         style="fill:none;fill-rule:evenodd;stroke:none;stroke-width:1px;stroke-linecap:butt;stroke-linejoin:miter;stroke-opacity:1" />
      <path
         id="path5"
         d="M 389.20898 340.22656 C 364.49922 340.22656 341.01782 345.10134 318.46289 354.7832 C 273.66033 374.01038 240.65938 406.59231 221.4082 451.49219 C 211.76146 473.98686 207.06055 497.55407 207.06055 522.27734 C 207.06055 547.00551 211.76146 570.7663 221.4082 593.26562 C 240.65938 638.1656 273.65974 670.9419 318.46289 690.17383 C 341.01782 699.85574 364.49862 704.72656 389.20898 704.72656 C 395.79992 704.72656 402.29957 704.36399 408.71875 703.66797 C 407.86962 696.8353 407.42383 689.83135 407.42383 682.69727 C 407.42383 681.22377 407.44829 679.75643 407.48438 678.29297 C 405.21927 679.3186 402.91704 680.15905 400.57031 680.79883 L 400.57031 596.06055 L 432.52148 596.06055 C 437.07286 589.46667 442.18692 583.45316 447.82227 578.12891 L 400.57031 578.12891 L 400.57031 468.0293 L 462.72266 468.0293 C 472.51178 458.35392 485.3988 451.81929 499.68945 450.0957 L 484.66992 450.0957 C 477.29771 419.38651 465.73793 394.06448 449.99414 374.12695 C 485.26967 388.67919 514.7631 415.99636 532.30078 450.0957 L 514.78125 450.0957 C 546.10099 453.8735 570.68306 480.79926 570.68359 513.07422 C 570.68412 533.36061 560.93562 551.49104 545.94531 563.13672 C 552.25174 566.52846 558.13852 570.6549 563.58789 575.39648 C 568.88897 558.27859 571.56055 540.56316 571.56055 522.27734 C 571.56055 497.55407 566.6863 474.06304 557.00977 451.49219 C 537.79252 406.66438 505.13809 374.06164 459.96094 354.7832 C 437.38097 345.14783 413.9235 340.22656 389.20898 340.22656 z M 378.05078 364.1543 L 378.05078 450.0957 L 378.04883 450.0957 L 316.86914 450.0957 C 323.0466 427.36283 331.46476 408.25569 342.37891 392.86914 C 353.38597 377.34676 365.09615 367.74469 378.05078 364.1543 z M 400.57031 364.1543 C 413.52496 367.74469 425.23257 377.34676 436.24023 392.86914 C 447.15796 408.25569 455.57256 427.36283 461.75 450.0957 L 400.57031 450.0957 L 400.57031 364.1543 z M 328.625 374.125 C 312.88122 394.06311 301.32559 419.38697 293.94922 450.0957 L 246.31836 450.0957 C 263.85546 415.99682 293.35426 388.67782 328.625 374.125 z M 237.35156 468.0293 L 289.56445 468.0293 C 286.97485 484.97648 285.77734 505.73003 285.77734 522.27734 C 285.77734 538.62927 286.97543 561.18152 289.56445 578.12891 L 236.95312 578.12891 C 231.7709 561.97659 229.17969 539.22942 229.17969 522.27734 C 229.17969 504.93029 231.96919 484.18162 237.35156 468.0293 z M 312.28516 468.0293 L 378.04883 468.0293 L 378.04883 578.12891 L 311.88672 578.12891 C 309.29353 560.38132 307.89844 537.82952 307.89844 522.27734 C 307.89844 505.52977 309.29174 484.77687 312.28516 468.0293 z M 491.55469 490.42578 C 484.40158 495.3357 479.78532 503.57294 479.78516 513.07422 C 479.7849 523.02235 484.84546 531.58414 492.58008 536.39258 C 492.75206 531.40202 492.8418 526.61552 492.8418 522.27734 C 492.8418 512.56784 492.41855 501.41259 491.55469 490.42578 z M 485.67578 594.73438 L 485.06836 595.04297 C 462.79787 607.47205 443.42383 641.3785 443.42383 682.69727 C 443.42383 687.26229 443.73032 691.70574 444.20898 696.06641 C 449.50831 694.35022 454.75927 692.39241 459.96094 690.17383 C 498.74429 673.62361 528.28825 647.0954 548.03516 611.5625 C 543.10916 605.39024 537.66692 600.35454 531.98633 596.68359 C 514.99931 630.85873 485.6464 655.96607 449.99414 670.83203 C 465.73792 651.0895 477.29774 627.36473 484.66992 596.06055 L 531.00781 596.06055 C 530.43195 595.706 529.85544 595.35748 529.27539 595.03125 L 485.67578 594.73438 z M 246.31836 596.06055 L 293.94922 596.06055 C 301.3256 627.36473 312.8818 651.0895 328.625 670.83203 C 292.75391 655.87532 263.25629 630.55573 246.31836 596.06055 z M 316.86914 596.06055 L 378.04883 596.06055 L 378.04883 680.79883 C 365.09419 677.01238 352.93856 667.44085 341.97852 651.88867 C 331.01793 636.33226 322.64756 618.99316 316.86914 596.06055 z "
         style="fill:url(#linearGradient4169);fill-opacity:1" />
      <path
         inkscape:connector-curvature="0"
         id="path2176-1"
         d="m 507.23467,467.62548 a 45.450001,45.449986 0 0 0 -45.44922,45.44922 45.450001,45.449986 0 0 0 45.44922,45.45117 45.450001,45.449986 0 0 0 45.44921,-45.45117 45.450001,45.449986 0 0 0 -45.44921,-45.44922 z m -25.98829,109.07812 0,0.006 c -0.0823,0.0683 -0.15723,0.1408 -0.24218,0.20703 l -4.58594,2.33008 c -29.90885,16.60867 -50.99414,56.66837 -50.99414,103.45112 0,10.0484 0.97847,19.7844 2.80273,29.0469 2.70593,5.6745 9.50402,9.8337 17.65039,10.3769 l 0,0.062 121.07813,0 0,-0.01 c 9.14349,-0.1211 16.84418,-4.7859 19.43164,-11.1797 1.73135,-9.0394 2.6582,-18.5208 2.6582,-28.3008 0,-48.97685 -23.11109,-90.58761 -55.26172,-105.63276 l -52.53711,-0.35743 z"
         style="fill:#99b000;fill-opacity:1;stroke:none;stroke-width:41.15159225;stroke-linecap:round;stroke-linejoin:round;stroke-opacity:1" />
    </g>
  </g>
</svg>
