<?xml version="1.0" encoding="UTF-8" standalone="no"?>
<!-- Created with Inkscape (http://www.inkscape.org/) -->

<svg
   xmlns:a="http://ns.adobe.com/AdobeSVGViewerExtensions/3.0/"
   xmlns:dc="http://purl.org/dc/elements/1.1/"
   xmlns:cc="http://creativecommons.org/ns#"
   xmlns:rdf="http://www.w3.org/1999/02/22-rdf-syntax-ns#"
   xmlns:svg="http://www.w3.org/2000/svg"
   xmlns="http://www.w3.org/2000/svg"
   xmlns:xlink="http://www.w3.org/1999/xlink"
   xmlns:sodipodi="http://sodipodi.sourceforge.net/DTD/sodipodi-0.dtd"
   xmlns:inkscape="http://www.inkscape.org/namespaces/inkscape"
   width="400"
   height="400"
   viewBox="0 0 400 400.00001"
   id="svg4217"
   version="1.1"
   inkscape:version="0.91 r13725"
   sodipodi:docname="gnc-invoice-cash.svg"
   inkscape:export-filename="D:\Dokumente\Arbeit\RRZE\github\bicons\22x22\emblems\gnc-invoice-cash.png"
   inkscape:export-xdpi="4.9499993"
   inkscape:export-ydpi="4.9499993">
  <title
     id="title4282">gnc invoice cash</title>
  <defs
     id="defs4219">
    <linearGradient
       inkscape:collect="always"
       id="linearGradient4274">
      <stop
         style="stop-color:#4e505d;stop-opacity:1;"
         offset="0"
         id="stop4276" />
      <stop
         style="stop-color:#7a859c;stop-opacity:1"
         offset="1"
         id="stop4278" />
    </linearGradient>
    <linearGradient
       id="linearGradient4321"
       inkscape:collect="always">
      <stop
         id="stop4323"
         offset="0"
         style="stop-color:#4e505d;stop-opacity:1;" />
      <stop
         id="stop4325"
         offset="1"
         style="stop-color:#7a8597;stop-opacity:1" />
    </linearGradient>
    <linearGradient
       inkscape:collect="always"
       xlink:href="#linearGradient4321"
       id="linearGradient4319-9"
       x1="280"
       y1="712.36218"
       x2="500"
       y2="472.36221"
       gradientUnits="userSpaceOnUse"
       gradientTransform="matrix(1.0685568,0,0,1.0477472,-26.445951,-34.107492)" />
    <linearGradient
       inkscape:collect="always"
       xlink:href="#linearGradient4321"
       id="linearGradient4317-3"
       x1="280"
       y1="692.36218"
       x2="500"
       y2="472.36221"
       gradientUnits="userSpaceOnUse"
       gradientTransform="matrix(1.0685568,0,0,1.0477472,-26.445951,-26.329318)" />
    <linearGradient
       inkscape:collect="always"
       xlink:href="#linearGradient4321"
       id="linearGradient4178"
       x1="378.51413"
       y1="461.36569"
       x2="424.83945"
       y2="349.64282"
       gradientUnits="userSpaceOnUse"
       gradientTransform="matrix(1.4213542,0,0,1.3240272,-170.3887,-120.86094)" />
    <linearGradient
       id="linearGradient5280">
      <stop
         id="stop5282"
         offset="0"
         style="stop-color:#555753;stop-opacity:0.01129944;" />
      <stop
         style="stop-color:#555753;stop-opacity:0.22598869;"
         offset="0.00195313"
         id="stop5310" />
      <stop
         style="stop-color:#555753;stop-opacity:0.01176471;"
         offset="0.00390625"
         id="stop5306" />
      <stop
         style="stop-color:#555753;stop-opacity:0.01176471;"
         offset="0.0078125"
         id="stop5304" />
      <stop
         style="stop-color:#555753;stop-opacity:0.07344633;"
         offset="0.015625"
         id="stop5302" />
      <stop
         style="stop-color:#555753;stop-opacity:0.01568627;"
         offset="0.03125"
         id="stop5298" />
      <stop
         style="stop-color:#555753;stop-opacity:0.01129944;"
         offset="0.0625"
         id="stop5296" />
      <stop
         style="stop-color:#555753;stop-opacity:0.36723164;"
         offset="0.125"
         id="stop5294" />
      <stop
         style="stop-color:#555753;stop-opacity:0.00564972;"
         offset="0.25"
         id="stop5290" />
      <stop
         style="stop-color:#555753;stop-opacity:0.02259887;"
         offset="0.5"
         id="stop5288" />
      <stop
         id="stop5292"
         offset="0.75"
         style="stop-color:#555753;stop-opacity:0.19774012;" />
      <stop
         style="stop-color:#555753;stop-opacity:0.18079096;"
         offset="0.875"
         id="stop5300" />
      <stop
         id="stop5308"
         offset="0.9375"
         style="stop-color:#555753;stop-opacity:0.28813559;" />
      <stop
         id="stop5284"
         offset="1"
         style="stop-color:#555753;stop-opacity:0.07344633;" />
    </linearGradient>
    <linearGradient
       id="linearGradient5348">
      <stop
         id="stop5350"
         offset="0"
         style="stop-color:#729fcf;stop-opacity:0;" />
      <stop
         style="stop-color:#729fcf;stop-opacity:0.17514125;"
         offset="0.14182246"
         id="stop5368" />
      <stop
         style="stop-color:#729fcf;stop-opacity:0.42937854;"
         offset="0.24686332"
         id="stop5366" />
      <stop
         id="stop5394"
         offset="0.27796116"
         style="stop-color:#729fcf;stop-opacity:0.39215686;" />
      <stop
         style="stop-color:#729fcf;stop-opacity:0.39215687;"
         offset="0.38030669"
         id="stop5364" />
      <stop
         style="stop-color:#ffffff;stop-opacity:1;"
         offset="0.46561956"
         id="stop5362" />
      <stop
         id="stop3727"
         offset="0.54757094"
         style="stop-color:#b8cfe7;stop-opacity:0.62352941;" />
      <stop
         style="stop-color:#729fcf;stop-opacity:0.24858756;"
         offset="0.62952232"
         id="stop5360" />
      <stop
         style="stop-color:#729fcf;stop-opacity:0.27683616;"
         offset="0.69749689"
         id="stop5358" />
      <stop
         style="stop-color:#729fcf;stop-opacity:0.16384181;"
         offset="0.84827983"
         id="stop5356" />
      <stop
         id="stop5352"
         offset="1"
         style="stop-color:#729fcf;stop-opacity:0;" />
    </linearGradient>
    <linearGradient
       id="linearGradient5170">
      <stop
         id="stop5172"
         offset="0"
         style="stop-color:#ffffff;stop-opacity:0.18039216;" />
      <stop
         style="stop-color:#ffffff;stop-opacity:1;"
         offset="0.51451057"
         id="stop5178" />
      <stop
         id="stop5174"
         offset="1"
         style="stop-color:#ffffff;stop-opacity:0;" />
    </linearGradient>
    <linearGradient
       id="linearGradient5210">
      <stop
         id="stop5212"
         offset="0"
         style="stop-color:#ffffff;stop-opacity:0.63973064" />
      <stop
         id="stop5214"
         offset="1"
         style="stop-color:#ffffff;stop-opacity:0;" />
    </linearGradient>
    <linearGradient
       inkscape:collect="always"
       xlink:href="#linearGradient5210"
       id="linearGradient4189"
       x1="201.14954"
       y1="961.82281"
       x2="335.09766"
       y2="690.03497"
       gradientUnits="userSpaceOnUse"
       gradientTransform="matrix(0.87213324,0,0,0.87213324,31.567287,101.09235)" />
    <linearGradient
       inkscape:collect="always"
       xlink:href="#linearGradient5210"
       id="linearGradient4204"
       x1="246.27283"
       y1="601.76038"
       x2="415.23526"
       y2="597.97443"
       gradientUnits="userSpaceOnUse"
       gradientTransform="matrix(0.75467109,0,0,0.75467109,84.984827,145.27184)" />
    <linearGradient
       inkscape:collect="always"
       xlink:href="#linearGradient5210"
       id="linearGradient4219"
       x1="446.96085"
       y1="461.98914"
       x2="408.0062"
       y2="539.08948"
       gradientUnits="userSpaceOnUse"
       gradientTransform="matrix(0.83863557,0,0,0.83863557,63.411889,86.824917)" />
    <linearGradient
       inkscape:collect="always"
       xlink:href="#linearGradient5210"
       id="linearGradient4234"
       x1="505.18594"
       y1="341.05081"
       x2="461.8429"
       y2="442.63501"
       gradientUnits="userSpaceOnUse"
       gradientTransform="matrix(0.80158707,0,0,0.80158707,90.129275,72.308238)" />
    <linearGradient
       inkscape:collect="always"
       xlink:href="#linearGradient5210"
       id="linearGradient4249"
       x1="559.49237"
       y1="209.43178"
       x2="519.25854"
       y2="298.70959"
       gradientUnits="userSpaceOnUse"
       gradientTransform="matrix(0.81797657,0,0,0.81797657,95.755906,55.021504)" />
    <linearGradient
       id="linearGradient4761">
      <stop
         id="stop4769"
         offset="0"
         style="stop-color:#ffffff;stop-opacity:1;" />
      <stop
         id="stop4775"
         offset="0.50370371"
         style="stop-color:#ffffff;stop-opacity:1;" />
      <stop
         id="stop4771"
         offset="1"
         style="stop-color:#ffffff;stop-opacity:0.06666667;" />
    </linearGradient>
    <linearGradient
       id="linearGradient3796">
      <stop
         style="stop-color:#3465a4;stop-opacity:1;"
         offset="0"
         id="stop3798" />
      <stop
         style="stop-color:#252525;stop-opacity:1;"
         offset="1"
         id="stop3800" />
    </linearGradient>
    <linearGradient
       id="linearGradient3812">
      <stop
         style="stop-color:#fce94f;stop-opacity:1;"
         offset="0"
         id="stop3814" />
      <stop
         style="stop-color:#fcaf3e;stop-opacity:1;"
         offset="1"
         id="stop3816" />
    </linearGradient>
    <pattern
       y="0"
       x="0"
       height="6"
       width="6"
       patternUnits="userSpaceOnUse"
       id="EMFhbasepattern" />
    <pattern
       y="0"
       x="0"
       height="6"
       width="6"
       patternUnits="userSpaceOnUse"
       id="EMFhbasepattern-2" />
    <linearGradient
       gradientUnits="userSpaceOnUse"
       id="XMLID_2_-4"
       x1="216.1084"
       x2="216.1084"
       y1="348.98831"
       y2="7.2768998">
      <stop
         id="stop12094-0"
         offset="0"
         style="stop-color:#cc0000;stop-opacity:1;" />
      <stop
         id="stop12096-9"
         offset="1"
         style="stop-color:#edd400;stop-opacity:1;" />
      <a:midPointStop
         offset="0"
         style="stop-color:#F40A0B" />
      <a:midPointStop
         offset="0.5"
         style="stop-color:#F40A0B" />
      <a:midPointStop
         offset="1"
         style="stop-color:#F5E710" />
    </linearGradient>
    <pattern
       y="0"
       x="0"
       height="6"
       width="6"
       patternUnits="userSpaceOnUse"
       id="EMFhbasepattern-4" />
    <linearGradient
       inkscape:collect="always"
       xlink:href="#linearGradient4321"
       id="linearGradient4180"
       x1="367"
       y1="585.36218"
       x2="426"
       y2="450.36221"
       gradientUnits="userSpaceOnUse"
       gradientTransform="matrix(0.875,0,0,0.875,47.749993,66.295265)" />
    <linearGradient
       inkscape:collect="always"
       xlink:href="#linearGradient4274"
       id="linearGradient4280"
       x1="54.540001"
       y1="1034.142"
       x2="363.59998"
       y2="670.54211"
       gradientUnits="userSpaceOnUse"
       gradientTransform="translate(0,-652.36214)" />
  </defs>
  <sodipodi:namedview
     id="base"
     pagecolor="#ffffff"
     bordercolor="#666666"
     borderopacity="1.0"
     inkscape:pageopacity="0.0"
     inkscape:pageshadow="2"
     inkscape:zoom="0.70710678"
     inkscape:cx="-10.820102"
     inkscape:cy="235.25219"
     inkscape:document-units="px"
     inkscape:current-layer="layer1"
     showgrid="false"
     units="px"
     inkscape:snap-bbox="true"
     inkscape:bbox-paths="true"
     inkscape:bbox-nodes="true"
     inkscape:snap-bbox-edge-midpoints="false"
     inkscape:snap-bbox-midpoints="false"
     showguides="true"
     inkscape:guide-bbox="true"
     inkscape:window-width="1600"
     inkscape:window-height="837"
     inkscape:window-x="-4"
     inkscape:window-y="-4"
     inkscape:window-maximized="1"
     inkscape:object-paths="true"
     inkscape:snap-intersection-paths="true"
     inkscape:object-nodes="true"
     inkscape:snap-smooth-nodes="true"
     inkscape:snap-midpoints="false"
     inkscape:showpageshadow="false"
     inkscape:snap-global="true"
     inkscape:snap-nodes="false"
     inkscape:snap-others="false">
    <sodipodi:guide
       position="0,411.37501"
       orientation="1,0"
       id="guide4765" />
    <sodipodi:guide
       position="18.18,410.73144"
       orientation="1,0"
       id="guide4769" />
    <sodipodi:guide
       position="36.360001,410.73144"
       orientation="1,0"
       id="guide4771" />
    <sodipodi:guide
       position="54.540001,410.73144"
       orientation="1,0"
       id="guide4773" />
    <sodipodi:guide
       position="72.647471,127.43479"
       orientation="1,0"
       id="guide4775" />
    <sodipodi:guide
       position="90.900002,410.73144"
       orientation="1,0"
       id="guide4777" />
    <sodipodi:guide
       position="109.08,410.73144"
       orientation="1,0"
       id="guide4779" />
    <sodipodi:guide
       position="127.26,410.73144"
       orientation="1,0"
       id="guide4781"
       inkscape:label=""
       inkscape:color="rgb(0,0,255)" />
    <sodipodi:guide
       position="145.44,410.73144"
       orientation="1,0"
       id="guide4783" />
    <sodipodi:guide
       position="163.62,410.73144"
       orientation="1,0"
       id="guide4785" />
    <sodipodi:guide
       position="181.8,410.73144"
       orientation="1,0"
       id="guide4787" />
    <sodipodi:guide
       position="199.98,410.73144"
       orientation="1,0"
       id="guide4789"
       inkscape:label=""
       inkscape:color="rgb(255,12,0)" />
    <sodipodi:guide
       position="218.16,409.81259"
       orientation="1,0"
       id="guide4791" />
    <sodipodi:guide
       position="254.52,410.73144"
       orientation="1,0"
       id="guide4795" />
    <sodipodi:guide
       position="272.7,410.73144"
       orientation="1,0"
       id="guide4797" />
    <sodipodi:guide
       position="290.88001,410.73144"
       orientation="1,0"
       id="guide4799" />
    <sodipodi:guide
       position="309.06001,410.73144"
       orientation="1,0"
       id="guide4801" />
    <sodipodi:guide
       position="345.41999,410.73144"
       orientation="1,0"
       id="guide4805" />
    <sodipodi:guide
       position="363.59997,136.39028"
       orientation="1,0"
       id="guide4807" />
    <sodipodi:guide
       position="381.82228,135.75"
       orientation="1,0"
       id="guide4809" />
    <sodipodi:guide
       position="400.00147,254.93962"
       orientation="1,0"
       id="guide4811" />
    <sodipodi:guide
       position="413.875,400.00001"
       orientation="0,1"
       id="guide4813" />
    <sodipodi:guide
       position="409.04996,381.82003"
       orientation="0,1"
       id="guide4815" />
    <sodipodi:guide
       position="409.04996,363.64003"
       orientation="0,1"
       id="guide4817" />
    <sodipodi:guide
       position="405.75,345.46004"
       orientation="0,1"
       id="guide4819" />
    <sodipodi:guide
       position="411.625,327.28005"
       orientation="0,1"
       id="guide4821" />
    <sodipodi:guide
       position="409.04996,309.10006"
       orientation="0,1"
       id="guide4823" />
    <sodipodi:guide
       position="411,290.92006"
       orientation="0,1"
       id="guide4825" />
    <sodipodi:guide
       position="411,272.74007"
       orientation="0,1"
       id="guide4827" />
    <sodipodi:guide
       position="409.04996,254.56008"
       orientation="0,1"
       id="guide4829" />
    <sodipodi:guide
       position="405.52575,236.38008"
       orientation="0,1"
       id="guide4831" />
    <sodipodi:guide
       position="412.125,218.20009"
       orientation="0,1"
       id="guide4833" />
    <sodipodi:guide
       position="409.04996,200.02001"
       orientation="0,1"
       id="guide4835"
       inkscape:label=""
       inkscape:color="rgb(0,255,92)" />
    <sodipodi:guide
       position="409.04996,181.8401"
       orientation="0,1"
       id="guide4837" />
    <sodipodi:guide
       position="463,163.5"
       orientation="0,1"
       id="guide4839" />
    <sodipodi:guide
       position="409.04996,145.48012"
       orientation="0,1"
       id="guide4841" />
    <sodipodi:guide
       position="409.04996,127.30012"
       orientation="0,1"
       id="guide4843" />
    <sodipodi:guide
       position="409.04996,109.12013"
       orientation="0,1"
       id="guide4845" />
    <sodipodi:guide
       position="327.23999,72.012103"
       orientation="0,1"
       id="guide4849" />
    <sodipodi:guide
       position="511.94531,54.447224"
       orientation="0,1"
       id="guide4851" />
    <sodipodi:guide
       position="409.04996,36.400158"
       orientation="0,1"
       id="guide4853" />
    <sodipodi:guide
       position="409.04996,18.220165"
       orientation="0,1"
       id="guide4855" />
    <sodipodi:guide
       position="327.23999,414.8949"
       orientation="1,0"
       id="guide4256" />
    <sodipodi:guide
       position="236.34,413.74587"
       orientation="1,0"
       id="guide4253" />
    <sodipodi:guide
       position="419.4288,90.943193"
       orientation="0,1"
       id="guide4339" />
    <sodipodi:guide
       position="409,0"
       orientation="0,1"
       id="guide6128"
       inkscape:label=""
       inkscape:color="rgb(0,0,255)" />
    <inkscape:grid
       type="xygrid"
       id="grid4298" />
  </sodipodi:namedview>
  <metadata
     id="metadata4222">
    <rdf:RDF>
      <cc:Work
         rdf:about="">
        <dc:format>image/svg+xml</dc:format>
        <dc:type
           rdf:resource="http://purl.org/dc/dcmitype/StillImage" />
        <dc:title>gnc invoice cash</dc:title>
        <dc:creator>
          <cc:Agent>
            <dc:title>Johannes Hechler</dc:title>
          </cc:Agent>
        </dc:creator>
        <dc:rights>
          <cc:Agent>
            <dc:title>Johannes Hechler</dc:title>
          </cc:Agent>
        </dc:rights>
        <dc:publisher>
          <cc:Agent>
            <dc:title>RRZE</dc:title>
          </cc:Agent>
        </dc:publisher>
        <dc:contributor>
          <cc:Agent>
            <dc:title>Ute Weber,
Hendrik Eggers</dc:title>
          </cc:Agent>
        </dc:contributor>
        <cc:license
           rdf:resource="http://creativecommons.org/licenses/by-nc/3.0/" />
        <dc:date>Oct 2016</dc:date>
        <dc:subject>
          <rdf:Bag>
            <rdf:li>calculator</rdf:li>
            <rdf:li>gnc</rdf:li>
            <rdf:li>invoice</rdf:li>
            <rdf:li>gnu</rdf:li>
            <rdf:li>cash</rdf:li>
          </rdf:Bag>
        </dc:subject>
      </cc:Work>
      <cc:License
         rdf:about="http://creativecommons.org/licenses/by-nc/3.0/">
        <cc:permits
           rdf:resource="http://creativecommons.org/ns#Reproduction" />
        <cc:permits
           rdf:resource="http://creativecommons.org/ns#Distribution" />
        <cc:requires
           rdf:resource="http://creativecommons.org/ns#Notice" />
        <cc:requires
           rdf:resource="http://creativecommons.org/ns#Attribution" />
        <cc:prohibits
           rdf:resource="http://creativecommons.org/ns#CommercialUse" />
        <cc:permits
           rdf:resource="http://creativecommons.org/ns#DerivativeWorks" />
      </cc:License>
    </rdf:RDF>
  </metadata>
  <g
     inkscape:label="Ebene 1"
     inkscape:groupmode="layer"
     id="layer1"
     transform="translate(0,-652.36214)">
    <g
       id="g4315">
      <path
         id="rect4242"
         transform="translate(0,652.36214)"
         d="M 54.539062 0 C 44.467343 0 36.359375 8.1079684 36.359375 18.179688 L 36.359375 381.82031 C 36.359375 391.89203 44.467343 400 54.539062 400 L 214.27539 400 C 173.31338 376.47134 145.61914 332.26822 145.61914 281.81055 C 145.61914 206.80801 206.80775 145.62109 281.81055 145.62109 C 312.4584 145.62109 340.79724 155.84003 363.59961 173.04102 L 363.59961 18.179688 C 363.59961 8.1079684 355.49164 0 345.41992 0 L 54.539062 0 z M 281.81055 181.62109 C 226.26348 181.62109 181.61914 226.26397 181.61914 281.81055 C 181.61914 337.35712 226.26348 382 281.81055 382 C 315.67419 382 345.48527 365.4065 363.59961 339.86719 L 363.59961 223.75195 C 345.48527 198.21262 315.67419 181.62109 281.81055 181.62109 z M 359.01758 393.88281 C 356.29625 395.76502 353.50347 397.54991 350.64453 399.23438 C 353.92809 398.25672 356.80624 396.37538 359.01758 393.88281 z "
         style="opacity:1;fill:url(#linearGradient4280);fill-opacity:1;stroke:none;stroke-width:50;stroke-linejoin:round;stroke-miterlimit:4;stroke-dasharray:none;stroke-dashoffset:0;stroke-opacity:1" />
      <rect
         ry="13.635001"
         y="688.72211"
         x="72.647469"
         height="54.539982"
         width="254.59251"
         id="rect4244"
         style="opacity:1;fill:#ffffff;fill-opacity:1;stroke:none;stroke-width:50;stroke-linejoin:round;stroke-miterlimit:4;stroke-dasharray:none;stroke-dashoffset:0;stroke-opacity:1" />
      <path
         id="rect4246"
         transform="translate(0,652.36214)"
         d="M 145.36719 127.25977 L 145.36719 163.48633 L 160.54297 163.48633 C 161.52216 163.64827 162.52039 163.75195 163.54688 163.75195 L 163.61914 163.75195 C 164.64563 163.75195 165.64581 163.64827 166.625 163.48633 L 181.80078 163.48633 L 181.80078 127.25977 L 145.36719 127.25977 z M 218.08789 127.25977 L 218.08789 141.49609 C 229.55975 136.24499 241.77324 132.36012 254.51953 130.05859 L 254.51953 127.25977 L 218.08789 127.25977 z M 290.80664 127.25977 L 290.80664 127.89258 C 303.40505 128.62697 315.61249 130.88562 327.24023 134.49805 L 327.24023 127.25977 L 290.80664 127.25977 z M 72.648438 127.39258 L 72.648438 145.57227 L 72.648438 163.61914 L 88.693359 163.61914 C 89.394123 163.7005 90.104833 163.75195 90.828125 163.75195 L 90.900391 163.75195 C 91.623682 163.75195 92.332439 163.7005 93.033203 163.61914 L 109.08008 163.61914 L 109.08008 145.57227 L 109.08008 127.39258 L 90.900391 127.39258 L 90.828125 127.39258 L 72.648438 127.39258 z M 145.36719 199.98047 L 145.36719 210.24023 C 147.21738 206.73893 149.19931 203.31787 151.30469 199.98047 L 145.36719 199.98047 z M 72.646484 200.11328 L 72.646484 216.85742 C 72.60957 217.33261 72.574219 217.80799 72.574219 218.29297 C 72.574219 218.77795 72.60957 219.25333 72.646484 219.72852 L 72.646484 236.33984 L 88.632812 236.33984 C 89.329769 236.4203 90.036641 236.47266 90.755859 236.47266 L 90.828125 236.47266 L 90.900391 236.47266 C 91.619609 236.47266 92.324528 236.4203 93.021484 236.33984 L 109.08008 236.33984 L 109.08008 200.11328 L 72.646484 200.11328 z M 298.67188 201.30078 C 294.06226 203.48318 290.88086 208.15837 290.88086 213.61523 L 290.88086 363.51562 C 304.2798 362.09025 316.63644 357.52834 327.24023 350.57422 L 327.24023 213.61523 C 327.24023 213.41677 327.21925 213.22369 327.21094 213.02734 C 318.70255 207.45266 309.07062 203.40991 298.67188 201.30078 z M 254.51953 204.1582 C 240.06405 209.134 227.51864 217.96598 218.08789 229.49023 L 218.08789 236.20703 L 233.26562 236.20703 C 234.24381 236.36862 235.24221 236.47266 236.26758 236.47266 L 236.33984 236.47266 L 236.41211 236.47266 C 237.43723 236.47266 238.4361 236.36855 239.41406 236.20703 L 254.51953 236.20703 L 254.51953 219.72852 C 254.55645 219.25333 254.5918 218.77795 254.5918 218.29297 C 254.5918 217.80799 254.55645 217.33261 254.51953 216.85742 L 254.51953 204.1582 z M 181.80078 218.85938 C 178.33276 224.35267 175.31194 230.15403 172.77344 236.20703 L 172.77734 236.20703 C 175.31543 230.1586 178.3343 224.36107 181.80078 218.87109 L 181.80078 218.85938 z M 90.755859 272.83203 C 90.03732 272.83203 89.331087 272.88454 88.634766 272.96484 L 72.646484 272.96484 L 72.646484 289.57617 C 72.609547 290.0515 72.574219 290.52854 72.574219 291.01367 C 72.574219 291.49865 72.60957 291.97403 72.646484 292.44922 L 72.646484 309.19336 L 88.707031 309.19336 C 89.403353 309.27367 90.109585 309.32617 90.828125 309.32617 L 90.900391 309.32617 C 91.61893 309.32617 92.32321 309.27367 93.019531 309.19336 L 109.08008 309.19336 L 109.08008 272.96484 L 92.947266 272.96484 C 92.250944 272.88454 91.546665 272.83203 90.828125 272.83203 L 90.755859 272.83203 z M 218.08789 272.83203 L 218.08789 309.06055 L 233.34766 309.06055 C 234.32316 309.22122 235.31745 309.32617 236.33984 309.32617 L 236.41211 309.32617 C 237.43451 309.32617 238.43075 309.22122 239.40625 309.06055 L 254.51953 309.06055 L 254.51953 292.58203 C 254.55645 292.10684 254.5918 291.63146 254.5918 291.14648 C 254.5918 290.66135 254.55647 290.18432 254.51953 289.70898 L 254.51953 272.83203 L 218.08789 272.83203 z M 229.34766 345.41992 C 236.71579 351.47672 245.19192 356.24004 254.44727 359.43555 L 254.44727 345.41992 L 229.34766 345.41992 z M 72.574219 345.55273 L 72.574219 381.7793 L 88.632812 381.7793 C 89.329769 381.85975 90.036641 381.91211 90.755859 381.91211 L 90.828125 381.91211 C 91.547343 381.91211 92.252262 381.85975 92.949219 381.7793 L 109.00781 381.7793 L 109.00781 345.55273 L 72.574219 345.55273 z M 145.29492 353.24219 L 145.29492 381.64648 L 160.47461 381.64648 C 161.45257 381.808 162.44949 381.91211 163.47461 381.91211 L 163.54688 381.91211 C 163.94941 381.91211 164.34547 381.88475 164.74023 381.85547 C 157.24367 373.10377 150.70783 363.51047 145.29492 353.24219 z M 218.01562 381.25586 L 218.01562 381.26562 C 218.21611 381.3946 218.41978 381.51869 218.62109 381.64648 L 218.63477 381.64648 C 218.42873 381.51569 218.2208 381.3879 218.01562 381.25586 z "
         style="opacity:1;fill:#ffffff;fill-opacity:1;stroke:none;stroke-width:50;stroke-linejoin:round;stroke-miterlimit:4;stroke-dasharray:none;stroke-dashoffset:0;stroke-opacity:1" />
      <rect
         ry="18.18"
         y="652.36212"
         x="0"
         height="400"
         width="400.00146"
         id="rect4284"
         style="opacity:1;fill:none;fill-opacity:1;stroke:none;stroke-width:50;stroke-linejoin:round;stroke-miterlimit:4;stroke-dasharray:none;stroke-dashoffset:0;stroke-opacity:1" />
      <ellipse
         ry="118.19004"
         rx="118.19073"
         cy="934.17212"
         cx="281.81073"
         id="path6783"
         style="color:#000000;clip-rule:nonzero;display:inline;overflow:visible;visibility:visible;opacity:1;isolation:auto;mix-blend-mode:normal;color-interpolation:sRGB;color-interpolation-filters:linearRGB;solid-color:#000000;solid-opacity:1;fill:#99b000;fill-opacity:1;fill-rule:nonzero;stroke:none;stroke-width:1px;stroke-linecap:butt;stroke-linejoin:miter;stroke-miterlimit:4;stroke-dasharray:none;stroke-dashoffset:0;stroke-opacity:1;color-rendering:auto;image-rendering:auto;shape-rendering:auto;text-rendering:auto;enable-background:accumulate" />
      <path
         d="m 287.42915,1040.5422 -12.72914,0 -0.1273,-22.3148 c -8.91039,-0.1697 -17.82079,-1.188 -26.73119,-3.0549 -8.9104,-1.9519 -17.86323,-4.8371 -26.85848,-8.6559 l 0,-22.91242 c 8.65581,5.4311 17.39649,9.5469 26.22202,12.3473 8.9104,2.7155 18.07538,4.11572 27.49495,4.20062 l 0,-58.0449 c -18.75427,-3.05499 -32.41688,-8.23151 -40.98783,-15.52955 -8.48609,-7.29804 -12.72914,-17.31163 -12.72914,-30.04077 0,-13.83233 4.62492,-24.73696 13.87476,-32.71389 9.24984,-7.97693 22.53058,-12.55942 39.84221,-13.74747 l 0,-13.91348 12.72914,0 0,13.5316 c 7.89207,0.33945 15.52955,1.18806 22.91245,2.54583 7.3829,1.27291 14.59608,3.05499 21.63953,5.34624 l 0,22.27599 c -7.04345,-3.56416 -14.29906,-6.32214 -21.76682,-8.27394 -7.38291,-1.9518 -14.97796,-3.09742 -22.78516,-3.43687 l 0,54.35343 c 19.26343,2.97013 33.4352,8.27394 42.51532,15.91143 9.08012,7.63748 13.62018,18.07537 13.62018,31.31368 0,14.34145 -4.83707,25.67045 -14.51122,33.98687 -9.58929,8.2314 -23.46405,12.9837 -41.62428,14.2566 z m -12.72914,-120.32912 0,-52.18948 c -9.84387,1.10319 -17.35407,3.90361 -22.53058,8.40124 -5.17652,4.49763 -7.76478,10.48032 -7.76478,17.94808 0,7.29804 2.37611,12.98372 7.12832,17.05705 4.83707,4.07333 12.55942,7.00103 23.16704,8.78311 z m 12.72914,24.43994 0,55.11716 c 10.77733,-1.4426 18.88155,-4.4976 24.31265,-9.165 5.51596,-4.6673 8.27394,-10.81973 8.27394,-18.45721 0,-7.46777 -2.63069,-13.40803 -7.89206,-17.8208 -5.17652,-4.41277 -13.40803,-7.63748 -24.69453,-9.67415 z"
         style="color:#000000;font-style:normal;font-variant:normal;font-weight:normal;font-stretch:normal;font-size:260.69277954px;line-height:125%;font-family:sans-serif;text-indent:0;text-align:center;text-decoration:none;text-decoration-line:none;text-decoration-style:solid;text-decoration-color:#000000;letter-spacing:0px;word-spacing:0px;text-transform:none;direction:ltr;block-progression:tb;writing-mode:lr-tb;baseline-shift:baseline;text-anchor:middle;white-space:normal;clip-rule:nonzero;display:inline;overflow:visible;visibility:visible;isolation:auto;mix-blend-mode:normal;color-interpolation:sRGB;color-interpolation-filters:linearRGB;solid-color:#000000;solid-opacity:1;fill:#ffffff;fill-opacity:1;fill-rule:nonzero;stroke:none;stroke-width:1px;stroke-linecap:butt;stroke-linejoin:miter;stroke-miterlimit:4;stroke-dasharray:none;stroke-dashoffset:0;stroke-opacity:1;color-rendering:auto;image-rendering:auto;shape-rendering:auto;text-rendering:auto;enable-background:accumulate"
         id="path6781"
         inkscape:connector-curvature="0"
         sodipodi:nodetypes="ccccccccccssccccccccccsscccccsscccccscc" />
    </g>
  </g>
</svg>
