<?xml version="1.0" encoding="UTF-8" standalone="no"?>
<!-- Created with Inkscape (http://www.inkscape.org/) -->

<svg
   xmlns:dc="http://purl.org/dc/elements/1.1/"
   xmlns:cc="http://creativecommons.org/ns#"
   xmlns:rdf="http://www.w3.org/1999/02/22-rdf-syntax-ns#"
   xmlns:svg="http://www.w3.org/2000/svg"
   xmlns="http://www.w3.org/2000/svg"
   xmlns:xlink="http://www.w3.org/1999/xlink"
   xmlns:sodipodi="http://sodipodi.sourceforge.net/DTD/sodipodi-0.dtd"
   xmlns:inkscape="http://www.inkscape.org/namespaces/inkscape"
   width="210mm"
   height="297mm"
   viewBox="0 0 744.09448819 1052.3622047"
   id="svg2"
   version="1.1"
   inkscape:version="0.91 r13725"
   inkscape:export-xdpi="4.9499998"
   inkscape:export-ydpi="4.9499998"
   sodipodi:docname="ID-clip-function.svg"
   inkscape:export-filename="D:\Dokumente\Arbeit\RRZE\github\bicons\22x22\emblems\ID-clip-function.png">
  <defs
     id="defs4">
    <linearGradient
       id="linearGradient2224">
      <stop
         id="stop2226"
         offset="0"
         style="stop-color:#7c7c7c;stop-opacity:1;" />
      <stop
         id="stop2228"
         offset="1"
         style="stop-color:#b8b8b8;stop-opacity:1;" />
    </linearGradient>
    <linearGradient
       id="linearGradient15218">
      <stop
         id="stop15220"
         offset="0"
         style="stop-color:#eeeeef;stop-opacity:1;" />
      <stop
         id="stop2736"
         offset="0.59928656"
         style="stop-color:#d3d7cf;stop-opacity:1;" />
      <stop
         id="stop2738"
         offset="0.82758623"
         style="stop-color:#ffffff;stop-opacity:1;" />
      <stop
         id="stop15222"
         offset="1"
         style="stop-color:#d3d7cf;stop-opacity:1;" />
    </linearGradient>
    <pattern
       y="0"
       x="0"
       height="6"
       width="6"
       patternUnits="userSpaceOnUse"
       id="EMFhbasepattern" />
    <pattern
       y="0"
       x="0"
       height="6"
       width="6"
       patternUnits="userSpaceOnUse"
       id="EMFhbasepattern-5" />
    <linearGradient
       inkscape:collect="always"
       xlink:href="#linearGradient4200"
       id="linearGradient4206"
       x1="580"
       y1="422.36221"
       x2="230"
       y2="642.36218"
       gradientUnits="userSpaceOnUse"
       gradientTransform="matrix(0.90910571,0,0,0.875,31.12848,101.93962)" />
    <linearGradient
       inkscape:collect="always"
       id="linearGradient4200">
      <stop
         style="stop-color:#7a8597;stop-opacity:1;"
         offset="0"
         id="stop4202" />
      <stop
         style="stop-color:#4e505d;stop-opacity:1"
         offset="1"
         id="stop4204" />
    </linearGradient>
  </defs>
  <sodipodi:namedview
     id="base"
     pagecolor="#ffffff"
     bordercolor="#666666"
     borderopacity="1.0"
     inkscape:pageopacity="0.0"
     inkscape:pageshadow="2"
     inkscape:zoom="1"
     inkscape:cx="341.81168"
     inkscape:cy="505.8119"
     inkscape:document-units="px"
     inkscape:current-layer="layer1"
     showgrid="false"
     showguides="true"
     inkscape:guide-bbox="true"
     inkscape:window-width="1600"
     inkscape:window-height="837"
     inkscape:window-x="-4"
     inkscape:window-y="-4"
     inkscape:window-maximized="1"
     inkscape:snap-bbox="true"
     inkscape:bbox-paths="true"
     inkscape:bbox-nodes="true"
     inkscape:snap-nodes="false">
    <sodipodi:guide
       position="560,730.00002"
       orientation="0,1"
       id="guide3338" />
    <sodipodi:guide
       position="560,330.00001"
       orientation="0,1"
       id="guide3340" />
    <sodipodi:guide
       position="190,475.00001"
       orientation="1,0"
       id="guide3344" />
    <sodipodi:guide
       position="590,451.00001"
       orientation="1,0"
       id="guide3346" />
    <inkscape:grid
       type="xygrid"
       id="grid3440" />
    <sodipodi:guide
       position="215,442.00001"
       orientation="1,0"
       id="guide4155" />
    <sodipodi:guide
       position="564.97832,467.39759"
       orientation="1,0"
       id="guide4157" />
  </sodipodi:namedview>
  <metadata
     id="metadata7">
    <rdf:RDF>
      <cc:Work
         rdf:about="">
        <dc:format>image/svg+xml</dc:format>
        <dc:type
           rdf:resource="http://purl.org/dc/dcmitype/StillImage" />
        <dc:title>ID clip function</dc:title>
        <dc:date>June 2015</dc:date>
        <dc:creator>
          <cc:Agent>
            <dc:title>Johannes Hechler</dc:title>
          </cc:Agent>
        </dc:creator>
        <dc:rights>
          <cc:Agent>
            <dc:title>Johannes Hechler</dc:title>
          </cc:Agent>
        </dc:rights>
        <dc:publisher>
          <cc:Agent>
            <dc:title>RRZE</dc:title>
          </cc:Agent>
        </dc:publisher>
        <dc:contributor>
          <cc:Agent>
            <dc:title>Ute Weber, Hendrik Eggers</dc:title>
          </cc:Agent>
        </dc:contributor>
      </cc:Work>
    </rdf:RDF>
  </metadata>
  <g
     inkscape:label="Ebene 1"
     inkscape:groupmode="layer"
     id="layer1">
    <g
       id="g4200"
       transform="translate(3.9999954,-22.000013)">
      <rect
         y="344.36221"
         x="186"
         height="400"
         width="400"
         id="rect4160"
         style="opacity:1;fill:none;fill-opacity:1;stroke:none;stroke-width:23;stroke-linecap:butt;stroke-linejoin:round;stroke-miterlimit:4;stroke-dasharray:none;stroke-opacity:1" />
      <path
         id="rect4149"
         d="m 230.42969,453.6005 c -14.5425,0 -26.25,11.70751 -26.25,26.25 l 0,166.25 c 0,14.5425 11.7075,26.25 26.25,26.25 l 311.14258,0 c 14.54249,0 26.25,-11.7075 26.25,-26.25 l 0,-166.25 c 0,-14.54249 -11.70751,-26.25 -26.25,-26.25 l -119.41211,0 0,0.66992 c 0,19.76829 -16.33591,36.48242 -36.23047,36.48242 -19.89457,0 -36.23047,-16.71413 -36.23047,-36.48242 l 0,-0.66992 -119.26953,0 z m 155.26953,0 0,0.66992 c 0,0.71174 -0.0744,0.48242 0.23047,0.48242 0.30487,0 0.23047,0.22932 0.23047,-0.48242 l 0,-0.66992 -0.46094,0 z"
         style="color:#252525;clip-rule:nonzero;display:inline;overflow:visible;visibility:visible;opacity:1;isolation:auto;mix-blend-mode:normal;color-interpolation:sRGB;color-interpolation-filters:linearRGB;solid-color:#252525;solid-opacity:1;fill:url(#linearGradient4206);fill-opacity:1;fill-rule:nonzero;stroke:none;stroke-width:25;stroke-linecap:butt;stroke-linejoin:round;stroke-miterlimit:4;stroke-dasharray:none;stroke-dashoffset:0;stroke-opacity:1;color-rendering:auto;image-rendering:auto;shape-rendering:auto;text-rendering:auto;enable-background:accumulate"
         inkscape:connector-curvature="0" />
      <rect
         ry="18.483778"
         y="417.08218"
         x="367.69897"
         height="55.670288"
         width="36.461025"
         id="rect4276"
         style="color:#000000;clip-rule:nonzero;display:inline;overflow:visible;visibility:visible;opacity:1;isolation:auto;mix-blend-mode:normal;color-interpolation:sRGB;color-interpolation-filters:linearRGB;solid-color:#000000;solid-opacity:1;fill:#4e505d;fill-opacity:1;fill-rule:nonzero;stroke:none;stroke-width:50;stroke-linecap:square;stroke-linejoin:round;stroke-miterlimit:4;stroke-dasharray:none;stroke-dashoffset:0;stroke-opacity:1;color-rendering:auto;image-rendering:auto;shape-rendering:auto;text-rendering:auto;enable-background:accumulate" />
      <path
         id="path3022"
         d="m 334.94214,516.07898 c -1.04361,-0.0112 -2.1535,0.0992 -3.40416,0.23495 -3.09181,0.33556 -6.72391,1.28572 -10.07723,3.03268 -3.35332,1.74695 -6.49013,4.33036 -8.11704,8.07631 -2.79957,6.44593 -5.82768,27.41178 -8.9919,40.01959 l -12.79232,0 c -2.01471,-0.0297 -3.66402,1.63557 -3.66402,3.70019 0,2.06462 1.64931,3.72994 3.66402,3.70018 l 10.96031,0 c -1.49667,6.12123 -3.01669,2.45979 -4.55768,8.79011 -2.74198,11.26387 -5.50992,22.35624 -8.18055,31.53171 -2.67062,9.17548 -5.35751,16.53136 -7.43857,19.79739 -2.29806,3.60662 -4.07087,5.9524 -5.32318,7.30519 -0.23044,0.24893 -0.335,0.28504 -0.53031,0.45785 0.003,-0.15459 -0.0267,-0.22487 -0.0153,-0.37833 -0.007,0.0998 0.13972,-0.6329 0.31983,-1.44344 0.18027,-0.8112 0.38329,-1.81956 0.35865,-2.97245 -0.0246,-1.15288 -0.31913,-2.56696 -1.31816,-3.71223 -0.99902,-1.14527 -2.53035,-1.77354 -4.25783,-1.91456 -2.56264,-0.20918 -5.20501,0.24297 -7.46209,1.69286 -2.25707,1.44989 -4.00889,3.92399 -4.75287,7.15699 -0.76879,3.34088 0.22737,6.393 2.11421,8.22692 1.88684,1.83392 4.29618,2.68031 6.57431,3.30137 1.86578,0.50861 3.75325,0.24718 5.74296,-0.17591 1.98971,-0.42309 3.83572,-0.8897 5.37608,-2.34229 3.19723,-3.01487 7.2999,-8.74821 11.50592,-15.28029 4.20603,-6.53208 8.38494,-13.76803 11.21547,-19.46845 7.97363,-16.05779 10.45065,-23.75264 12.93931,-40.57244 l 14.114,0 c 2.0147,0.0297 3.66401,-1.63556 3.66401,-3.70018 0,-2.06462 -1.64931,-3.72994 -3.66401,-3.70019 l -12.98517,0 c 1.32395,-8.368 2.8559,-26.4144 5.31848,-33.8012 l 0,-10e-4 c 0.50374,-1.51125 1.43935,-3.54672 2.47874,-5.13039 1.03938,-1.58366 2.31979,-2.52434 2.48108,-2.56157 0.75935,-0.17529 0.5712,-0.1716 0.97128,0.22049 0.40008,0.3921 1.06664,1.48249 1.88374,2.98328 0.68289,1.25427 1.05743,2.50448 1.68738,3.93273 0.62994,1.42825 1.63972,3.04777 3.38416,4.23516 3.84869,2.61945 9.09102,0.86425 11.87632,-3.49415 1.3974,-2.18641 1.80449,-4.73995 1.10532,-6.94011 -0.69917,-2.20017 -2.12307,-3.99493 -3.88626,-6.06778 -1.79908,-2.11506 -3.32822,-3.55199 -5.30672,-4.24721 -0.98925,-0.34761 -1.96663,-0.4804 -3.01023,-0.49158 z m 37.82248,18.28054 c -0.82351,0.006 -1.60886,0.35642 -2.17301,0.97113 -0.011,0.0122 -0.0185,0.024 -0.0294,0.0362 l -10e-4,-10e-4 c -0.0118,0.0136 -0.0211,0.0274 -0.0329,0.0409 -20.99458,23.31433 -22.09053,45.77499 -19.01418,63.37178 2.6227,15.0019 6.86074,27.57536 15.08794,38.67063 1.36043,1.96743 2.76673,3.88038 4.23667,5.70269 0.0143,0.0177 0.0268,0.0377 0.0412,0.0554 0.0189,0.0234 0.0364,0.0489 0.0553,0.0723 2.51917,3.16895 8.94443,-2.43992 6.46243,-5.63951 -1.41505,-1.85806 -2.82344,-3.80785 -4.23902,-5.72679 -7.8528,-11.43554 -10.42019,-23.42918 -11.54732,-38.04705 -1.31962,-17.11421 0.75088,-36.01822 15.6487,-53.05476 1.71838,-1.99921 -1.89529,-6.46974 -4.49515,-6.45173 z m 112.62818,0.38917 c -2.6076,-0.0144 -5.21687,5.24998 -3.48017,7.2431 24.93122,33.89032 21.86612,67.26996 6.88769,90.54655 -1.38263,1.89188 -2.76571,3.8422 -4.12849,5.63161 -2.41309,3.19073 3.6026,8.51532 6.1288,5.41788 0.0191,-0.0237 0.0361,-0.0498 0.0553,-0.0735 l 10e-4,10e-4 c 0.06,-0.0787 0.12452,-0.17165 0.1846,-0.25062 1.36239,-1.70035 2.66112,-3.47013 3.8992,-5.29785 8.42145,-11.44223 13.11924,-24.99639 15.59004,-40.67434 2.87303,-18.23021 0.73479,-40.84974 -23.20264,-61.80784 -0.54026,-0.47156 -1.22579,-0.73231 -1.93549,-0.73619 z"
         style="color:#000000;font-style:normal;font-variant:normal;font-weight:normal;font-stretch:normal;font-size:medium;line-height:normal;font-family:sans-serif;text-indent:0;text-align:start;text-decoration:none;text-decoration-line:none;text-decoration-style:solid;text-decoration-color:#000000;letter-spacing:normal;word-spacing:normal;text-transform:none;direction:ltr;block-progression:tb;writing-mode:lr-tb;baseline-shift:baseline;text-anchor:start;white-space:normal;clip-rule:nonzero;display:inline;overflow:visible;visibility:visible;opacity:1;isolation:auto;mix-blend-mode:normal;color-interpolation:sRGB;color-interpolation-filters:linearRGB;solid-color:#000000;solid-opacity:1;fill:#ffffff;fill-opacity:1;fill-rule:nonzero;stroke:#ffffff;stroke-width:4.90678501;stroke-linecap:butt;stroke-linejoin:round;stroke-miterlimit:4;stroke-dasharray:none;stroke-dashoffset:0;stroke-opacity:1;color-rendering:auto;image-rendering:auto;shape-rendering:auto;text-rendering:auto;enable-background:accumulate"
         inkscape:connector-curvature="0"
         sodipodi:nodetypes="csssccsccssssccssssssscscssccsccccsccssccssscccccccsccccccsccccccccccccsccc" />
      <text
         transform="scale(0.97138778,1.029455)"
         sodipodi:linespacing="125%"
         id="text4290"
         y="616.74182"
         x="396.45502"
         style="font-style:normal;font-weight:normal;font-size:169.02719116px;line-height:125%;font-family:sans-serif;letter-spacing:0px;word-spacing:0px;fill:#ffffff;fill-opacity:1;stroke:#ffffff;stroke-width:0.66831166px;stroke-linecap:butt;stroke-linejoin:round;stroke-opacity:1"
         xml:space="preserve"><tspan
           style="font-style:normal;font-variant:normal;font-weight:normal;font-stretch:normal;font-family:arial;-inkscape-font-specification:arial;fill:#ffffff;stroke:#ffffff;stroke-width:0.66831166px;stroke-linejoin:round"
           y="616.74182"
           x="396.45502"
           id="tspan4292"
           sodipodi:role="line">x</tspan></text>
    </g>
  </g>
</svg>
