<?xml version="1.0" encoding="UTF-8" standalone="no"?>
<!-- Created with Inkscape (http://www.inkscape.org/) -->

<svg
   xmlns:dc="http://purl.org/dc/elements/1.1/"
   xmlns:cc="http://creativecommons.org/ns#"
   xmlns:rdf="http://www.w3.org/1999/02/22-rdf-syntax-ns#"
   xmlns:svg="http://www.w3.org/2000/svg"
   xmlns="http://www.w3.org/2000/svg"
   xmlns:xlink="http://www.w3.org/1999/xlink"
   xmlns:sodipodi="http://sodipodi.sourceforge.net/DTD/sodipodi-0.dtd"
   xmlns:inkscape="http://www.inkscape.org/namespaces/inkscape"
   width="210mm"
   height="297mm"
   viewBox="0 0 744.09448819 1052.3622047"
   id="svg2"
   version="1.1"
   inkscape:version="0.91 r13725"
   inkscape:export-xdpi="4.9499998"
   inkscape:export-ydpi="4.9499998"
   sodipodi:docname="peace-sign.svg"
   inkscape:export-filename="D:\Dokumente\Arbeit\RRZE\github\bicons\22x22\emblems\peace-sign.png">
  <title
     id="title4156">peace sign</title>
  <defs
     id="defs4">
    <linearGradient
       id="linearGradient2224">
      <stop
         id="stop2226"
         offset="0"
         style="stop-color:#7c7c7c;stop-opacity:1;" />
      <stop
         id="stop2228"
         offset="1"
         style="stop-color:#b8b8b8;stop-opacity:1;" />
    </linearGradient>
    <linearGradient
       id="linearGradient15218">
      <stop
         id="stop15220"
         offset="0"
         style="stop-color:#eeeeef;stop-opacity:1;" />
      <stop
         id="stop2736"
         offset="0.59928656"
         style="stop-color:#d3d7cf;stop-opacity:1;" />
      <stop
         id="stop2738"
         offset="0.82758623"
         style="stop-color:#ffffff;stop-opacity:1;" />
      <stop
         id="stop15222"
         offset="1"
         style="stop-color:#d3d7cf;stop-opacity:1;" />
    </linearGradient>
    <pattern
       y="0"
       x="0"
       height="6"
       width="6"
       patternUnits="userSpaceOnUse"
       id="EMFhbasepattern" />
    <pattern
       y="0"
       x="0"
       height="6"
       width="6"
       patternUnits="userSpaceOnUse"
       id="EMFhbasepattern-5" />
    <linearGradient
       gradientTransform="translate(313.99853,-303.94774)"
       inkscape:collect="always"
       xlink:href="#linearGradient4295"
       id="linearGradient4293"
       x1="149.69325"
       y1="1054.8162"
       x2="266.25766"
       y2="705.12286"
       gradientUnits="userSpaceOnUse" />
    <linearGradient
       id="linearGradient4295"
       inkscape:collect="always">
      <stop
         id="stop4297"
         offset="0"
         style="stop-color:#4e505d;stop-opacity:1;" />
      <stop
         id="stop4299"
         offset="1"
         style="stop-color:#7a859c;stop-opacity:1" />
    </linearGradient>
    <linearGradient
       inkscape:collect="always"
       xlink:href="#linearGradient4295"
       id="linearGradient4195"
       gradientUnits="userSpaceOnUse"
       gradientTransform="translate(313.99853,-303.94774)"
       x1="149.69325"
       y1="1054.8162"
       x2="266.25766"
       y2="705.12286" />
  </defs>
  <sodipodi:namedview
     id="base"
     pagecolor="#ffffff"
     bordercolor="#666666"
     borderopacity="1.0"
     inkscape:pageopacity="0.0"
     inkscape:pageshadow="2"
     inkscape:zoom="0.70710678"
     inkscape:cx="163.88313"
     inkscape:cy="423.90506"
     inkscape:document-units="px"
     inkscape:current-layer="layer1"
     showgrid="false"
     showguides="true"
     inkscape:guide-bbox="true"
     inkscape:window-width="1600"
     inkscape:window-height="837"
     inkscape:window-x="-4"
     inkscape:window-y="-4"
     inkscape:window-maximized="1"
     inkscape:snap-bbox="true"
     inkscape:bbox-paths="true"
     inkscape:bbox-nodes="true">
    <sodipodi:guide
       position="560,730.00002"
       orientation="0,1"
       id="guide3338" />
    <sodipodi:guide
       position="560,330.00001"
       orientation="0,1"
       id="guide3340" />
    <sodipodi:guide
       position="190,475.00001"
       orientation="1,0"
       id="guide3344" />
    <sodipodi:guide
       position="590,451.00001"
       orientation="1,0"
       id="guide3346" />
    <inkscape:grid
       type="xygrid"
       id="grid3440" />
  </sodipodi:namedview>
  <metadata
     id="metadata7">
    <rdf:RDF>
      <cc:Work
         rdf:about="">
        <dc:format>image/svg+xml</dc:format>
        <dc:type
           rdf:resource="http://purl.org/dc/dcmitype/StillImage" />
        <dc:title>peace sign</dc:title>
        <dc:date>June 2015</dc:date>
        <dc:creator>
          <cc:Agent>
            <dc:title>Johannes Hechler</dc:title>
          </cc:Agent>
        </dc:creator>
        <dc:rights>
          <cc:Agent>
            <dc:title>Johannes Hechler</dc:title>
          </cc:Agent>
        </dc:rights>
        <dc:publisher>
          <cc:Agent>
            <dc:title>RRZE</dc:title>
          </cc:Agent>
        </dc:publisher>
        <dc:contributor>
          <cc:Agent>
            <dc:title>Ute Weber, Hendrik Eggers</dc:title>
          </cc:Agent>
        </dc:contributor>
      </cc:Work>
    </rdf:RDF>
  </metadata>
  <g
     inkscape:label="Ebene 1"
     inkscape:groupmode="layer"
     id="layer1">
    <g
       id="g4197"
       transform="translate(-124,-25.947553)">
      <rect
         y="348.30975"
         x="314"
         height="400"
         width="400"
         id="rect4160"
         style="opacity:1;fill:none;fill-opacity:1;stroke:none;stroke-width:23;stroke-linecap:butt;stroke-linejoin:round;stroke-miterlimit:4;stroke-dasharray:none;stroke-opacity:1" />
      <path
         inkscape:connector-curvature="0"
         id="path4151"
         d="m 488.52001,348.4144 c -0.83977,0.004 -1.68663,0.0556 -2.53906,0.15234 -13.63904,1.54793 -23.29184,14.49558 -21.64258,29.02735 l 14.11328,124.34961 c 8.12016,5.66274 14.21105,14.25831 16.46876,24.55468 l 17.8125,81.23243 c 4.74674,21.64784 -9.27651,43.54632 -30.92383,48.29297 -14.58784,3.1987 -29.16009,-2.24996 -38.65039,-12.6875 -4.17375,3.15433 -9.01191,5.52535 -14.42774,6.71289 -9.5534,2.09478 -19.0724,0.26911 -27,-4.3125 l 5.05469,35.26953 c 0.10519,0.7316 0.31333,1.44338 0.61719,2.11718 5.58149,24.82188 25.48553,42.92708 34.50195,60.42778 1.2615,2.7999 4.03278,4.6134 7.10352,4.6464 l 102.55078,0.2168 c 2.79541,0.03 4.46868,-2.3356 6.83984,-3.8164 22.49354,-14.0476 32.96283,-41.8375 42.76758,-70.38668 l -2.69922,-0.375 a 17.50175,17.50175 0 0 1 -0.006,0 c -19.75194,-2.73931 -33.77312,-22.3565 -30.31445,-41.88477 l -0.72071,0.22266 c -21.72816,6.71001 -45.30377,-5.74084 -52.01562,-27.4668 0,-0.002 -0.002,-0.003 -0.002,-0.004 l -0.18555,-0.59961 a 17.50175,17.50175 0 0 1 -0.008,-0.0234 c -6.71026,-21.72906 5.74372,-45.30597 27.4707,-52.01563 l -0.67578,0.22266 44.13672,-15.6211 15.19922,-141.26367 c 1.56468,-14.54111 -7.88297,-27.39867 -21.18555,-28.83008 -13.30256,-1.4314 -25.27125,9.12293 -26.83594,23.66407 l -16.14844,132.9414 c -1.66614,1.1792 -3.51471,1.45302 -5.27148,-0.26758 l -18.32813,-150.9082 c -1.65308,-13.61098 -12.4602,-23.66177 -25.05664,-23.58789 z m -30.89453,184.49805 c -1.42564,0.07 -2.80505,0.524 -3.99218,1.3164 l -3.67188,2.45117 17.74219,80.92383 c 0.72323,3.29835 3.31155,4.95554 6.60937,4.23243 3.29834,-0.72323 4.95554,-3.31154 4.23243,-6.60938 l -17.8125,-81.23242 c -0.0761,-0.34692 -0.17859,-0.67137 -0.29883,-0.97852 l -2.01953,-0.10351 c -0.26283,-0.012 -0.52625,-0.012 -0.78907,0 z m -44.91015,28.63672 -5.91602,3.95117 10.35938,47.24218 c 0.58663,2.67539 2.25629,3.51819 4.07617,3.11915 1.81906,-0.39887 2.98161,-1.86165 2.39453,-4.53907 l -10.91406,-49.77343 z m 204.10351,4.33789 c -5.31018,-0.0165 -8.98444,0.39711 -11.58398,1.15234 l -51.54492,18.24414 a 17.50175,17.50175 0 0 1 -0.67579,0.22266 c -3.78261,1.16814 -5.5249,4.46555 -4.35742,8.24609 l 0.18555,0.59961 a 17.50175,17.50175 0 0 1 0.008,0.0234 c 1.16763,3.78102 4.46799,5.52476 8.24805,4.35742 l 28.93945,-8.93945 a 17.50175,17.50175 0 0 1 22.29688,20.28515 l -5.82617,28.00782 0,0.002 c -0.31131,1.49272 -0.74421,0.87512 0.75585,1.08008 l 0.006,0 4.19922,0.58203 a 17.50175,17.50175 0 0 1 0.006,0 c 0.30964,0.0429 0.64641,-6.4e-4 0.98633,-0.0859 l 12.93359,-68.07812 c 0.36515,-1.92672 -0.015,-3.86522 -0.97265,-5.48243 l -1.00195,-0.13867 c -0.41016,-0.0292 -0.86163,-0.0632 -0.45704,-0.0527 -0.74169,-0.0138 -1.46405,-0.0234 -2.14453,-0.0254 z"
         style="color:#252525;font-style:normal;font-variant:normal;font-weight:normal;font-stretch:normal;font-size:medium;line-height:normal;font-family:sans-serif;text-indent:0;text-align:start;text-decoration:none;text-decoration-line:none;text-decoration-style:solid;text-decoration-color:#252525;letter-spacing:normal;word-spacing:normal;text-transform:none;direction:ltr;block-progression:tb;writing-mode:lr-tb;baseline-shift:baseline;text-anchor:start;white-space:normal;clip-rule:nonzero;display:inline;overflow:visible;visibility:visible;opacity:1;isolation:auto;mix-blend-mode:normal;color-interpolation:sRGB;color-interpolation-filters:linearRGB;solid-color:#252525;solid-opacity:1;fill:url(#linearGradient4195);fill-opacity:1;fill-rule:evenodd;stroke:none;stroke-width:7.69041204;stroke-linecap:butt;stroke-linejoin:round;stroke-miterlimit:4;stroke-dasharray:none;stroke-dashoffset:0;stroke-opacity:1;color-rendering:auto;image-rendering:auto;shape-rendering:auto;text-rendering:auto;enable-background:accumulate" />
      <path
         inkscape:connector-curvature="0"
         id="rect4157-5"
         d="m 455.02392,512.12729 c -1.5338,0.023 -3.08933,0.19915 -4.64844,0.54102 -12.47283,2.73493 -20.31111,14.97833 -17.57617,27.45117 l 17.81055,81.23242 c 2.73494,12.47283 14.97834,20.31306 27.45117,17.57812 12.47283,-2.73493 20.31306,-14.97833 17.57812,-27.45117 l -17.8125,-81.23242 c -2.39307,-10.91373 -12.06611,-18.28027 -22.80273,-18.11914 z m -48.2207,18.29102 c -1.38668,0.0129 -2.79142,0.16982 -4.19922,0.47851 -11.26242,2.46953 -18.28372,13.78815 -15.74219,25.37891 l 13.20312,60.21484 c 2.54153,11.59076 13.65556,18.93437 24.91798,16.46485 11.26241,-2.46953 18.28175,-13.7901 15.74023,-25.38086 l -13.20313,-60.21485 c -2.22383,-10.14191 -11.01002,-17.03181 -20.71679,-16.9414 z m 210.07031,17.96875 c -6.19633,-0.0193 -11.69806,0.39133 -16.78711,1.91015 l -52.23633,18.48828 c -12.7548,3.9389 -19.85293,17.37606 -15.91406,30.13086 l 0.19336,0.62305 c 3.93886,12.7548 17.37799,19.85296 30.13281,15.91406 l 28.93945,-8.93945 -5.82617,28.00977 c -2.21943,10.6766 4.68877,20.48051 15.49024,21.97851 l 4.20508,0.58203 c 10.80147,1.498 21.28448,-5.89176 23.5039,-16.56836 l 12.71485,-69.36133 c 2.21941,-10.6766 -4.69071,-20.47465 -15.49219,-21.97265 l -4.20508,-0.58399 c 0,0 -1.34885,-0.15213 -2.01953,-0.17773 -0.91433,-0.0183 -1.81403,-0.0305 -2.69922,-0.0332 z"
         style="color:#252525;clip-rule:nonzero;display:inline;overflow:visible;visibility:visible;opacity:1;isolation:auto;mix-blend-mode:normal;color-interpolation:sRGB;color-interpolation-filters:linearRGB;solid-color:#252525;solid-opacity:1;fill:url(#linearGradient4293);fill-opacity:1;fill-rule:nonzero;stroke:none;stroke-width:10;stroke-linecap:butt;stroke-linejoin:round;stroke-miterlimit:4;stroke-dasharray:none;stroke-dashoffset:0;stroke-opacity:1;color-rendering:auto;image-rendering:auto;shape-rendering:auto;text-rendering:auto;enable-background:accumulate" />
    </g>
  </g>
</svg>
