<?xml version="1.0" encoding="UTF-8" standalone="no"?>
<!-- Created with Inkscape (http://www.inkscape.org/) -->

<svg
   xmlns:dc="http://purl.org/dc/elements/1.1/"
   xmlns:cc="http://creativecommons.org/ns#"
   xmlns:rdf="http://www.w3.org/1999/02/22-rdf-syntax-ns#"
   xmlns:svg="http://www.w3.org/2000/svg"
   xmlns="http://www.w3.org/2000/svg"
   xmlns:xlink="http://www.w3.org/1999/xlink"
   xmlns:sodipodi="http://sodipodi.sourceforge.net/DTD/sodipodi-0.dtd"
   xmlns:inkscape="http://www.inkscape.org/namespaces/inkscape"
   width="210mm"
   height="297mm"
   viewBox="0 0 744.09448819 1052.3622047"
   id="svg2"
   version="1.1"
   inkscape:version="0.91 r13725"
   inkscape:export-xdpi="4.9499998"
   inkscape:export-ydpi="4.9499998"
   sodipodi:docname="phone.svg"
   inkscape:export-filename="D:\Dokumente\Arbeit\RRZE\github\bicons\22x22\emblems\phone.png">
  <title
     id="title4156">phone</title>
  <defs
     id="defs4">
    <linearGradient
       id="linearGradient2224">
      <stop
         id="stop2226"
         offset="0"
         style="stop-color:#7c7c7c;stop-opacity:1;" />
      <stop
         id="stop2228"
         offset="1"
         style="stop-color:#b8b8b8;stop-opacity:1;" />
    </linearGradient>
    <linearGradient
       id="linearGradient15218">
      <stop
         id="stop15220"
         offset="0"
         style="stop-color:#eeeeef;stop-opacity:1;" />
      <stop
         id="stop2736"
         offset="0.59928656"
         style="stop-color:#d3d7cf;stop-opacity:1;" />
      <stop
         id="stop2738"
         offset="0.82758623"
         style="stop-color:#ffffff;stop-opacity:1;" />
      <stop
         id="stop15222"
         offset="1"
         style="stop-color:#d3d7cf;stop-opacity:1;" />
    </linearGradient>
    <pattern
       y="0"
       x="0"
       height="6"
       width="6"
       patternUnits="userSpaceOnUse"
       id="EMFhbasepattern" />
    <pattern
       y="0"
       x="0"
       height="6"
       width="6"
       patternUnits="userSpaceOnUse"
       id="EMFhbasepattern-5" />
    <linearGradient
       inkscape:collect="always"
       xlink:href="#linearGradient4284"
       id="linearGradient4310"
       x1="520"
       y1="472.36221"
       x2="290"
       y2="622.36218"
       gradientUnits="userSpaceOnUse"
       gradientTransform="matrix(0.90397782,0,0,0.90397782,-148.95545,-259.53505)" />
    <linearGradient
       inkscape:collect="always"
       id="linearGradient4284">
      <stop
         style="stop-color:#7a8597;stop-opacity:1;"
         offset="0"
         id="stop4286" />
      <stop
         style="stop-color:#4e505d;stop-opacity:1"
         offset="1"
         id="stop4288" />
    </linearGradient>
    <linearGradient
       inkscape:collect="always"
       xlink:href="#linearGradient4284"
       id="linearGradient4292"
       x1="552.95752"
       y1="406.06662"
       x2="282.84271"
       y2="663.45349"
       gradientUnits="userSpaceOnUse"
       gradientTransform="matrix(0.87983425,0,0,0.94977721,-142.64174,362.0367)" />
  </defs>
  <sodipodi:namedview
     id="base"
     pagecolor="#ffffff"
     bordercolor="#666666"
     borderopacity="1.0"
     inkscape:pageopacity="0.0"
     inkscape:pageshadow="2"
     inkscape:zoom="0.35355339"
     inkscape:cx="-271.34372"
     inkscape:cy="958.07275"
     inkscape:document-units="px"
     inkscape:current-layer="layer1"
     showgrid="false"
     showguides="true"
     inkscape:guide-bbox="true"
     inkscape:window-width="1600"
     inkscape:window-height="837"
     inkscape:window-x="-4"
     inkscape:window-y="-4"
     inkscape:window-maximized="1"
     inkscape:snap-bbox="true"
     inkscape:bbox-nodes="true">
    <sodipodi:guide
       position="-83.438601,728.32"
       orientation="0,1"
       id="guide3338" />
    <sodipodi:guide
       position="554.72527,328.27433"
       orientation="0,1"
       id="guide3340" />
    <sodipodi:guide
       position="190,475.00001"
       orientation="1,0"
       id="guide3344" />
    <sodipodi:guide
       position="590,451.00001"
       orientation="1,0"
       id="guide3346" />
    <inkscape:grid
       type="xygrid"
       id="grid3440" />
  </sodipodi:namedview>
  <metadata
     id="metadata7">
    <rdf:RDF>
      <cc:Work
         rdf:about="">
        <dc:format>image/svg+xml</dc:format>
        <dc:type
           rdf:resource="http://purl.org/dc/dcmitype/StillImage" />
        <dc:title>phone</dc:title>
        <dc:date>June 2015</dc:date>
        <dc:creator>
          <cc:Agent>
            <dc:title>Johannes Hechler</dc:title>
          </cc:Agent>
        </dc:creator>
        <dc:rights>
          <cc:Agent>
            <dc:title>Johannes Hechler</dc:title>
          </cc:Agent>
        </dc:rights>
        <dc:publisher>
          <cc:Agent>
            <dc:title>RRZE</dc:title>
          </cc:Agent>
        </dc:publisher>
        <dc:contributor>
          <cc:Agent>
            <dc:title>Ute Weber, Hendrik Eggers</dc:title>
          </cc:Agent>
        </dc:contributor>
      </cc:Work>
    </rdf:RDF>
  </metadata>
  <g
     inkscape:label="Ebene 1"
     inkscape:groupmode="layer"
     id="layer1">
    <g
       id="g4224"
       transform="translate(-23.000007,94.680018)">
      <g
         id="g4307"
         transform="translate(212.99853,-422.99992)">
        <rect
           style="opacity:1;fill:none;fill-opacity:1;stroke:none;stroke-width:23;stroke-linecap:butt;stroke-linejoin:round;stroke-miterlimit:4;stroke-dasharray:none;stroke-opacity:1"
           id="rect4160"
           width="400"
           height="400"
           x="0.0014728516"
           y="652.36212" />
        <path
           style="color:#252525;font-style:normal;font-variant:normal;font-weight:normal;font-stretch:normal;font-size:medium;line-height:normal;font-family:sans-serif;text-indent:0;text-align:start;text-decoration:none;text-decoration-line:none;text-decoration-style:solid;text-decoration-color:#252525;letter-spacing:normal;word-spacing:normal;text-transform:none;direction:ltr;block-progression:tb;writing-mode:lr-tb;baseline-shift:baseline;text-anchor:start;white-space:normal;clip-rule:nonzero;display:inline;overflow:visible;visibility:visible;opacity:1;isolation:auto;mix-blend-mode:normal;color-interpolation:sRGB;color-interpolation-filters:linearRGB;solid-color:#252525;solid-opacity:1;fill:url(#linearGradient4310);fill-opacity:1;fill-rule:evenodd;stroke:none;stroke-width:10;stroke-linecap:butt;stroke-linejoin:round;stroke-miterlimit:4;stroke-dasharray:none;stroke-dashoffset:0;stroke-opacity:1;color-rendering:auto;image-rendering:auto;shape-rendering:auto;text-rendering:auto;enable-background:accumulate"
           d="m 198.66602,124.05078 c -19.75063,0.0558 -39.35138,3.50408 -61.8418,10.1836 l -3.32813,20.50195 c -0.0481,0.2943 -0.1034,0.58735 -0.16601,0.8789 -0.98708,4.61703 -2.81438,8.19394 -5.10938,11.16797 -1.77484,4.28 -4.86185,7.26561 -8.40039,9.8711 -4.34208,3.19715 -9.74264,5.64107 -16.04297,7.00586 -5.620555,1.21755 -14.950042,2.10948 -25.664059,2.78515 L 39.253906,293.27344 c -1.162371,3.19537 -2.894283,6.15444 -2.894531,9.55468 l 6.26e-4,42.72466 c 9.09e-4,9.5117 8.668314,18.04609 18.18,18.04706 l 292.792969,0 c 9.5117,-9.1e-4 16.26631,-8.53536 16.26727,-18.04706 l -6.3e-4,-42.72466 c -2.4e-4,-3.40024 -1.73485,-6.35763 -2.89258,-9.55468 L 322.5293,187.84961 c -9.99245,-0.59438 -19.54105,-1.89083 -27.37891,-4.91016 -8.17822,-3.15044 -13.51402,-5.75772 -17.49609,-8.44531 -3.98206,-2.68758 -7.33257,-5.83898 -8.48633,-10.83789 -0.0697,-0.30204 -0.12033,-0.61194 -0.18164,-0.9043 -1.2711,-2.05854 -2.28024,-4.40973 -2.86328,-7.13672 -0.60195,-2.81541 -0.71005,-3.96153 -1.29102,-7.50585 -0.58097,-3.54433 -1.30227,-8.01422 -2.00781,-12.40821 -0.0951,-0.59226 -0.11701,-0.73569 -0.18555,-1.16406 -23.62998,-7.09187 -43.8883,-10.54304 -63.97265,-10.48633 z m 101.71289,18.36524 c 0.0653,0.40036 0.0607,0.37964 0.15625,0.93554 0.12153,0.07 0.28265,0.15522 0.41211,0.22852 z m -201.630863,1.70898 -0.851563,1.74414 c 0.227544,-0.12518 0.441691,-0.2486 0.626954,-0.36523 z m 0.707031,0.67188 c -0.0119,-0.0426 -0.128127,0.10317 -0.279297,0.32031 0.01337,-0.0104 0.05383,-0.0291 0.06641,-0.0391 0.161479,-0.12834 0.22373,-0.24244 0.21289,-0.28124 z"
           transform="translate(0,652.36214)"
           id="path4300"
           inkscape:connector-curvature="0"
           sodipodi:nodetypes="sccccsscsccccccscssscssscsccccccccccccc" />
        <path
           style="color:#252525;font-style:normal;font-variant:normal;font-weight:normal;font-stretch:normal;font-size:medium;line-height:normal;font-family:sans-serif;text-indent:0;text-align:start;text-decoration:none;text-decoration-line:none;text-decoration-style:solid;text-decoration-color:#252525;letter-spacing:normal;word-spacing:normal;text-transform:none;direction:ltr;block-progression:tb;writing-mode:lr-tb;baseline-shift:baseline;text-anchor:start;white-space:normal;clip-rule:nonzero;display:inline;overflow:visible;visibility:visible;opacity:1;isolation:auto;mix-blend-mode:normal;color-interpolation:sRGB;color-interpolation-filters:linearRGB;solid-color:#252525;solid-opacity:1;fill:url(#linearGradient4292);fill-opacity:1;fill-rule:nonzero;stroke:none;stroke-width:20;stroke-linecap:butt;stroke-linejoin:round;stroke-miterlimit:4;stroke-dasharray:none;stroke-dashoffset:0;stroke-opacity:1;color-rendering:auto;image-rendering:auto;shape-rendering:auto;text-rendering:auto;enable-background:accumulate"
           d="m 206.94675,706.96567 c -55.74233,-0.95247 -112.177124,8.89047 -156.517029,23.42438 -3.534692,1.15861 -5.817424,3.34867 -7.790646,7.28521 -1.973212,3.93655 -7.241881,15.72377 -11.439293,26.68053 -4.197413,10.95676 -12.95282,39.22304 -12.95282,39.22304 -2.263687,7.33534 4.791206,12.90772 14.760381,15.96998 9.969176,3.06224 56.043954,-0.28638 65.677758,-2.53917 9.633799,-2.25281 16.038359,-8.09448 17.043499,-12.79601 l 5.8785,-36.21522 c 52.30075,-18.17384 102.31094,-18.79774 156.23649,-0.0297 0,0 5.37976,33.89393 5.88244,36.24506 0.50268,2.35111 3.97159,6.24631 19.06615,12.52333 15.09455,6.27704 52.53519,5.65578 64.66543,3.08449 12.13025,-2.57127 16.01609,-8.90638 13.75202,-16.24263 0,0 -8.80345,-28.44256 -13.00076,-39.3993 -4.19731,-10.95675 -9.67091,-23.387 -11.39135,-26.50427 -1.72042,-3.11726 -4.3887,-5.72047 -7.78471,-7.28308 -36.43976,-16.76718 -86.34372,-22.47412 -142.08606,-23.42657 z"
           id="rect4155"
           inkscape:connector-curvature="0"
           sodipodi:nodetypes="cszzczzccczzzczzszc" />
        <rect
           style="opacity:1;fill:#ffffff;fill-opacity:1;stroke:none;stroke-width:36;stroke-linejoin:round;stroke-miterlimit:4;stroke-dasharray:none;stroke-dashoffset:10.80000019;stroke-opacity:1"
           id="rect4289"
           width="36.360001"
           height="36.359989"
           x="181.8"
           y="834.16205"
           ry="18.179995" />
        <rect
           ry="18.179995"
           y="834.16205"
           x="127.26"
           height="36.359989"
           width="36.360001"
           id="rect4291"
           style="opacity:1;fill:#ffffff;fill-opacity:1;stroke:none;stroke-width:36;stroke-linejoin:round;stroke-miterlimit:4;stroke-dasharray:none;stroke-dashoffset:10.80000019;stroke-opacity:1" />
        <rect
           style="opacity:1;fill:#ffffff;fill-opacity:1;stroke:none;stroke-width:36;stroke-linejoin:round;stroke-miterlimit:4;stroke-dasharray:none;stroke-dashoffset:10.80000019;stroke-opacity:1"
           id="rect4293"
           width="36.360001"
           height="36.359989"
           x="236.34"
           y="834.16205"
           ry="18.179995" />
        <rect
           ry="18.179995"
           y="888.70203"
           x="181.8"
           height="36.359989"
           width="36.360001"
           id="rect4295"
           style="opacity:1;fill:#ffffff;fill-opacity:1;stroke:none;stroke-width:36;stroke-linejoin:round;stroke-miterlimit:4;stroke-dasharray:none;stroke-dashoffset:10.80000019;stroke-opacity:1" />
        <rect
           style="opacity:1;fill:#ffffff;fill-opacity:1;stroke:none;stroke-width:36;stroke-linejoin:round;stroke-miterlimit:4;stroke-dasharray:none;stroke-dashoffset:10.80000019;stroke-opacity:1"
           id="rect4297"
           width="36.360001"
           height="36.359989"
           x="127.26001"
           y="888.70203"
           ry="18.179995" />
        <rect
           ry="18.179995"
           y="888.70203"
           x="236.34"
           height="36.359989"
           width="36.360001"
           id="rect4299"
           style="opacity:1;fill:#ffffff;fill-opacity:1;stroke:none;stroke-width:36;stroke-linejoin:round;stroke-miterlimit:4;stroke-dasharray:none;stroke-dashoffset:10.80000019;stroke-opacity:1" />
        <rect
           style="opacity:1;fill:#ffffff;fill-opacity:1;stroke:none;stroke-width:36;stroke-linejoin:round;stroke-miterlimit:4;stroke-dasharray:none;stroke-dashoffset:10.80000019;stroke-opacity:1"
           id="rect4301"
           width="36.360001"
           height="36.359989"
           x="181.79999"
           y="943.242"
           ry="18.179995" />
        <rect
           ry="18.179995"
           y="943.242"
           x="127.26"
           height="36.359989"
           width="36.360001"
           id="rect4303"
           style="opacity:1;fill:#ffffff;fill-opacity:1;stroke:none;stroke-width:36;stroke-linejoin:round;stroke-miterlimit:4;stroke-dasharray:none;stroke-dashoffset:10.80000019;stroke-opacity:1" />
        <rect
           style="opacity:1;fill:#ffffff;fill-opacity:1;stroke:none;stroke-width:36;stroke-linejoin:round;stroke-miterlimit:4;stroke-dasharray:none;stroke-dashoffset:10.80000019;stroke-opacity:1"
           id="rect4305"
           width="36.360001"
           height="36.359989"
           x="236.33998"
           y="943.242"
           ry="18.179995" />
      </g>
    </g>
  </g>
</svg>
