<?xml version="1.0" encoding="UTF-8" standalone="no"?>
<!-- Created with Inkscape (http://www.inkscape.org/) -->

<svg
   xmlns:dc="http://purl.org/dc/elements/1.1/"
   xmlns:cc="http://creativecommons.org/ns#"
   xmlns:rdf="http://www.w3.org/1999/02/22-rdf-syntax-ns#"
   xmlns:svg="http://www.w3.org/2000/svg"
   xmlns="http://www.w3.org/2000/svg"
   xmlns:xlink="http://www.w3.org/1999/xlink"
   xmlns:sodipodi="http://sodipodi.sourceforge.net/DTD/sodipodi-0.dtd"
   xmlns:inkscape="http://www.inkscape.org/namespaces/inkscape"
   width="210mm"
   height="297mm"
   viewBox="0 0 744.09448819 1052.3622047"
   id="svg2"
   version="1.1"
   inkscape:version="0.91 r13725"
   inkscape:export-xdpi="4.9485292"
   inkscape:export-ydpi="4.9485292"
   sodipodi:docname="report-new.svg"
   inkscape:export-filename="C:\Users\johannes\Documents\Arbeit\RRZE\github3\bicons\22x22\emblems\report-new.png">
  <defs
     id="defs4">
    <linearGradient
       id="linearGradient2224">
      <stop
         id="stop2226"
         offset="0"
         style="stop-color:#7c7c7c;stop-opacity:1;" />
      <stop
         id="stop2228"
         offset="1"
         style="stop-color:#b8b8b8;stop-opacity:1;" />
    </linearGradient>
    <linearGradient
       id="linearGradient15218">
      <stop
         id="stop15220"
         offset="0"
         style="stop-color:#eeeeef;stop-opacity:1;" />
      <stop
         id="stop2736"
         offset="0.59928656"
         style="stop-color:#d3d7cf;stop-opacity:1;" />
      <stop
         id="stop2738"
         offset="0.82758623"
         style="stop-color:#ffffff;stop-opacity:1;" />
      <stop
         id="stop15222"
         offset="1"
         style="stop-color:#d3d7cf;stop-opacity:1;" />
    </linearGradient>
    <pattern
       y="0"
       x="0"
       height="6"
       width="6"
       patternUnits="userSpaceOnUse"
       id="EMFhbasepattern" />
    <pattern
       y="0"
       x="0"
       height="6"
       width="6"
       patternUnits="userSpaceOnUse"
       id="EMFhbasepattern-5" />
    <linearGradient
       inkscape:collect="always"
       xlink:href="#linearGradient4167"
       id="linearGradient4252"
       x1="630.45148"
       y1="497.99048"
       x2="867.01398"
       y2="203.14346"
       gradientUnits="userSpaceOnUse"
       gradientTransform="matrix(0.94525625,0,0,1,-312.80625,161.80255)" />
    <linearGradient
       inkscape:collect="always"
       id="linearGradient4167">
      <stop
         style="stop-color:#4e505d;stop-opacity:1;"
         offset="0"
         id="stop4169" />
      <stop
         style="stop-color:#7a8597;stop-opacity:1"
         offset="1"
         id="stop4171" />
    </linearGradient>
  </defs>
  <sodipodi:namedview
     id="base"
     pagecolor="#ffffff"
     bordercolor="#666666"
     borderopacity="1.0"
     inkscape:pageopacity="0.0"
     inkscape:pageshadow="2"
     inkscape:zoom="1"
     inkscape:cx="206.83464"
     inkscape:cy="424.78244"
     inkscape:document-units="px"
     inkscape:current-layer="layer1"
     showgrid="false"
     showguides="true"
     inkscape:guide-bbox="true"
     inkscape:window-width="1366"
     inkscape:window-height="721"
     inkscape:window-x="-4"
     inkscape:window-y="-4"
     inkscape:window-maximized="1">
    <sodipodi:guide
       position="560,730.00002"
       orientation="0,1"
       id="guide3338" />
    <sodipodi:guide
       position="560,330.00001"
       orientation="0,1"
       id="guide3340" />
    <sodipodi:guide
       position="190,475.00001"
       orientation="1,0"
       id="guide3344" />
    <sodipodi:guide
       position="590,451.00001"
       orientation="1,0"
       id="guide3346" />
    <inkscape:grid
       type="xygrid"
       id="grid3440" />
  </sodipodi:namedview>
  <metadata
     id="metadata7">
    <rdf:RDF>
      <cc:Work
         rdf:about="">
        <dc:format>image/svg+xml</dc:format>
        <dc:type
           rdf:resource="http://purl.org/dc/dcmitype/StillImage" />
        <dc:title>report new</dc:title>
        <dc:date>June 2015</dc:date>
        <dc:creator>
          <cc:Agent>
            <dc:title>Johannes Hechler</dc:title>
          </cc:Agent>
        </dc:creator>
        <dc:rights>
          <cc:Agent>
            <dc:title>Johannes Hechler</dc:title>
          </cc:Agent>
        </dc:rights>
        <dc:publisher>
          <cc:Agent>
            <dc:title>RRZE</dc:title>
          </cc:Agent>
        </dc:publisher>
        <dc:contributor>
          <cc:Agent>
            <dc:title>Ute Weber, Hendrik Eggers</dc:title>
          </cc:Agent>
        </dc:contributor>
      </cc:Work>
    </rdf:RDF>
  </metadata>
  <g
     inkscape:label="Ebene 1"
     inkscape:groupmode="layer"
     id="layer1">
    <g
       id="g4189">
      <g
         id="g4178">
        <rect
           style="fill:none;fill-rule:evenodd;stroke:none;stroke-width:1px;stroke-linecap:butt;stroke-linejoin:miter;stroke-opacity:1"
           id="rect3336"
           width="400"
           height="400"
           x="189.95055"
           y="322.15851"
           inkscape:export-xdpi="3.5999999"
           inkscape:export-ydpi="3.5999999" />
        <rect
           style="opacity:1;fill:none;fill-opacity:1;stroke:none;stroke-width:23;stroke-linecap:butt;stroke-linejoin:round;stroke-miterlimit:4;stroke-dasharray:none;stroke-opacity:1"
           id="rect4160"
           width="400"
           height="400"
           x="189.99065"
           y="322.22516" />
        <path
           style="color:#252525;clip-rule:nonzero;display:inline;overflow:visible;visibility:visible;opacity:1;isolation:auto;mix-blend-mode:normal;color-interpolation:sRGB;color-interpolation-filters:linearRGB;solid-color:#252525;solid-opacity:1;fill:url(#linearGradient4252);fill-opacity:1;fill-rule:nonzero;stroke:none;stroke-width:50;stroke-linecap:square;stroke-linejoin:round;stroke-miterlimit:4;stroke-dasharray:none;stroke-dashoffset:0;stroke-opacity:1;color-rendering:auto;image-rendering:auto;shape-rendering:auto;text-rendering:auto;enable-background:accumulate"
           d="M 257.80273 321.97656 C 250.15162 321.97656 243.99219 328.13599 243.99219 335.78711 L 243.99219 708.16602 C 243.99219 715.81713 250.15162 721.97656 257.80273 721.97656 L 433.4043 721.97656 C 433.16984 720.55141 433.09889 719.34537 433.06836 718.22656 C 432.97467 714.79704 433.3036 711.95178 433.73242 708.85742 C 434.59004 702.6687 436.04807 695.81786 437.55078 688.99219 C 439.05349 682.16652 440.61109 675.42317 441.60938 670.41992 C 441.75939 669.66807 441.78449 669.37173 441.90625 668.70898 C 441.41996 668.24192 441.22536 668.0151 440.66406 667.49219 C 436.92804 664.01158 431.72292 659.44566 426.51172 654.7793 C 421.30052 650.11295 416.10991 645.39817 411.79492 640.87305 C 409.63743 638.6105 407.70852 636.49348 405.7793 633.6543 C 404.81468 632.23472 403.80181 630.66604 402.83789 628.08008 C 401.87397 625.49413 400.47985 621.27038 402.4707 615.20508 C 404.46155 609.13979 408.08846 606.55792 410.39844 605.04297 C 412.70842 603.52803 414.45512 602.86342 416.07422 602.28906 C 419.31242 601.14033 422.12275 600.57251 425.20312 600.02344 C 431.36388 598.92531 438.3417 598.19226 445.30859 597.50977 C 452.27547 596.82728 459.17906 596.22131 464.25391 595.62305 C 465.01603 595.5332 465.30792 595.4641 465.97656 595.375 C 466.27125 594.76892 466.42721 594.51489 466.75195 593.82031 C 468.91327 589.19755 471.65514 582.84294 474.49023 576.45312 C 477.32532 570.06332 480.21197 563.67884 483.18945 558.18359 C 484.67818 555.43597 486.10039 552.94931 488.20898 550.24023 C 489.26328 548.88569 490.44371 547.44086 492.60938 545.72656 C 494.77505 544.01225 498.36837 541.38439 504.76172 541.40039 C 511.15507 541.41634 514.73554 544.06201 516.89258 545.78711 C 519.04963 547.51219 520.22399 548.96249 521.27148 550.32227 C 523.36649 553.04183 524.77504 555.536 526.25 558.29102 C 529.19992 563.80106 532.05436 570.2016 534.85742 576.60547 C 535.60158 578.30557 536.29939 579.91494 537.02148 581.57812 L 537.02148 335.78711 C 537.02148 328.13599 530.86205 321.97656 523.21094 321.97656 L 257.80273 321.97656 z M 470.83008 594.18555 C 470.69179 594.1847 470.21333 594.41651 469.45117 594.87695 C 469.5699 594.85555 469.88494 594.81863 469.98633 594.79883 C 470.52935 594.69306 471.08059 594.18755 470.83008 594.18555 z M 504.62891 594.85742 C 502.54321 599.60087 500.4354 604.45925 498.49414 608.61133 C 497.2243 611.32735 496.03114 613.777 494.71094 616.12305 C 493.39074 618.4691 493.89799 620.25123 487.38672 624.94922 C 480.87545 629.64721 479.33892 628.60774 476.69336 629.12305 C 474.04781 629.63836 471.34296 630.00007 468.36133 630.35156 C 463.80283 630.88894 458.52179 631.36087 453.35547 631.84961 C 457.23008 635.29592 461.20666 638.79937 464.5625 641.92578 C 466.75753 643.97074 468.72376 645.8614 470.55078 647.83984 C 472.37779 649.81829 474.23183 649.88558 476.69531 657.51953 C 479.15879 665.15346 477.6938 666.2918 477.36719 668.96289 C 477.04058 671.63397 476.54941 674.31435 475.96289 677.25391 C 475.06619 681.74803 473.88478 686.90865 472.75391 691.96484 C 477.23439 689.35101 481.79904 686.65763 485.81445 684.4375 C 488.4409 682.98534 490.84948 681.70338 493.29883 680.58008 C 495.74819 679.45677 496.38808 677.71623 504.42188 677.73633 C 512.45566 677.75637 513.08559 679.49926 515.5293 680.63477 C 517.97299 681.77029 520.37304 683.06404 522.99219 684.5293 C 526.99677 686.76962 531.54986 689.48668 536.01758 692.12305 C 534.91198 687.061 533.7551 681.89331 532.88086 677.39453 C 532.30906 674.45208 531.83081 671.77034 531.51758 669.09766 C 531.20435 666.42498 529.74442 665.27975 532.24609 657.6582 C 534.11021 651.97902 535.6154 650.50128 537.02148 649.30078 L 537.02148 630.03906 C 535.43822 629.81075 533.89506 629.56255 532.39062 629.26172 C 529.74769 628.73321 528.20642 629.76559 521.71875 625.03516 C 515.23109 620.30474 515.74789 618.52449 514.43945 616.17188 C 513.13102 613.81926 511.94959 611.36294 510.69336 608.64062 C 508.7729 604.47886 506.69086 599.61128 504.62891 594.85742 z M 464.41211 598.51367 C 462.5091 600.13832 463.74937 599.74343 464.16992 598.99609 C 464.22046 598.90629 464.35461 598.61936 464.41211 598.51367 z M 442.30859 663.6875 C 442.29258 663.69056 442.27939 663.7047 442.26953 663.73438 C 442.22599 663.86543 442.30072 664.38968 442.50391 665.25586 C 442.52021 665.13661 442.5832 664.8269 442.5957 664.72461 C 442.65436 664.24488 442.42066 663.66608 442.30859 663.6875 z M 444.41016 671.16602 C 445.3699 673.47514 445.37693 672.17321 444.79492 671.54297 C 444.725 671.46724 444.49306 671.25332 444.41016 671.16602 z M 499.96094 712.19727 C 499.49082 712.2212 499.53378 712.4474 501.22461 712.58984 C 501.11614 712.53758 500.83959 712.38139 500.74609 712.33789 C 500.4953 712.22136 500.18441 712.18587 499.96094 712.19727 z M 508.70703 712.21875 C 508.48362 712.20626 508.17325 712.24214 507.92188 712.35742 C 507.82814 712.4004 507.5521 712.55377 507.44336 712.60547 C 509.1354 712.47148 509.17707 712.24505 508.70703 712.21875 z M 504.32812 714.22461 C 503.73318 714.54186 503.45835 714.65621 502.78711 715.02734 C 499.42987 716.88356 495.15011 719.38459 490.70312 721.97656 L 517.80273 721.97656 C 513.41163 719.38783 509.18588 716.89372 505.86719 715.03711 C 505.19721 714.6623 504.92192 714.54505 504.32812 714.22461 z "
           id="rect4244" />
        <rect
           style="color:#000000;clip-rule:nonzero;display:inline;overflow:visible;visibility:visible;opacity:18999999;isolation:auto;mix-blend-mode:normal;color-interpolation:sRGB;color-interpolation-filters:linearRGB;solid-color:#000000;solid-opacity:1;fill:#ffffff;fill-opacity:1;fill-rule:nonzero;stroke:none;stroke-width:50;stroke-linecap:square;stroke-linejoin:miter;stroke-miterlimit:4;stroke-dasharray:none;stroke-dashoffset:0;stroke-opacity:1;color-rendering:auto;image-rendering:auto;shape-rendering:auto;text-rendering:auto;enable-background:accumulate"
           id="rect4396"
           width="236.5538"
           height="18.261719"
           x="262.98236"
           y="358.60123"
           ry="9.1308594" />
        <rect
           style="color:#000000;clip-rule:nonzero;display:inline;overflow:visible;visibility:visible;opacity:18999999;isolation:auto;mix-blend-mode:normal;color-interpolation:sRGB;color-interpolation-filters:linearRGB;solid-color:#000000;solid-opacity:1;fill:#ffffff;fill-opacity:1;fill-rule:nonzero;stroke:none;stroke-width:50;stroke-linecap:square;stroke-linejoin:miter;stroke-miterlimit:4;stroke-dasharray:none;stroke-dashoffset:0;stroke-opacity:1;color-rendering:auto;image-rendering:auto;shape-rendering:auto;text-rendering:auto;enable-background:accumulate"
           id="rect4398"
           width="200.09361"
           height="18.261719"
           x="262.98236"
           y="395.12463"
           ry="9.1308594" />
        <rect
           style="color:#000000;clip-rule:nonzero;display:inline;overflow:visible;visibility:visible;opacity:18999999;isolation:auto;mix-blend-mode:normal;color-interpolation:sRGB;color-interpolation-filters:linearRGB;solid-color:#000000;solid-opacity:1;fill:#ffffff;fill-opacity:1;fill-rule:nonzero;stroke:none;stroke-width:50;stroke-linecap:square;stroke-linejoin:miter;stroke-miterlimit:4;stroke-dasharray:none;stroke-dashoffset:0;stroke-opacity:1;color-rendering:auto;image-rendering:auto;shape-rendering:auto;text-rendering:auto;enable-background:accumulate"
           id="rect4400"
           width="254.78391"
           height="18.161039"
           x="262.98236"
           y="431.56116"
           ry="9.0805197" />
        <path
           sodipodi:nodetypes="cccccsssssssscc"
           inkscape:connector-curvature="0"
           style="color:#252525;clip-rule:nonzero;display:inline;overflow:visible;visibility:visible;opacity:18999999;isolation:auto;mix-blend-mode:normal;color-interpolation:sRGB;color-interpolation-filters:linearRGB;solid-color:#252525;solid-opacity:1;fill:#ffffff;fill-opacity:1;fill-rule:nonzero;stroke:none;stroke-width:9;stroke-linecap:butt;stroke-linejoin:round;stroke-miterlimit:4;stroke-dasharray:none;stroke-dashoffset:0;stroke-opacity:1;color-rendering:auto;image-rendering:auto;shape-rendering:auto;text-rendering:auto;enable-background:accumulate"
           d="m 371.0957,540.95703 -0.57617,72.70117 -72.78515,0 c 1.7e-4,40.07848 32.47064,72.59788 72.59374,72.70313 16.8212,0.0289 33.13316,-5.76295 46.16211,-16.39063 -0.67599,-0.60758 -1.22837,-1.10449 -1.98632,-1.7832 -5.27383,-4.72243 -10.75435,-9.66799 -15.73633,-14.89258 -2.33157,-2.44511 -5.15204,-5.5152 -7.87696,-9.52539 -1.13413,-1.66906 -3.34601,-5.17993 -4.91992,-9.40234 -1.22124,-3.27629 -4.14317,-13.99152 -0.60351,-24.77539 3.53963,-10.78379 12.23629,-17.68206 15.16015,-19.59961 3.76569,-2.46963 7.62259,-3.99158 9.5293,-4.66797 4.56984,-1.62112 8.65965,-2.42817 11.98828,-3.02149 4.34252,-0.77403 8.76853,-1.34389 13.16602,-1.83593 -12.35564,-24.05272 -37.05177,-39.27123 -64.11524,-39.50977 z"
           id="path4149" />
        <path
           d="m 529.61142,341.76953 a 72.784882,72.703682 0 0 1 72.20925,-72.70141 l 0.57563,72.70141 z"
           sodipodi:end="4.7044803"
           sodipodi:start="3.1415927"
           sodipodi:ry="72.703682"
           sodipodi:rx="72.784882"
           sodipodi:cy="341.76953"
           sodipodi:cx="602.3963"
           sodipodi:type="arc"
           id="path4295"
           style="color:#252525;clip-rule:nonzero;display:inline;overflow:visible;visibility:visible;opacity:18999999;isolation:auto;mix-blend-mode:normal;color-interpolation:sRGB;color-interpolation-filters:linearRGB;solid-color:#252525;solid-opacity:1;fill:#ffffff;fill-opacity:1;fill-rule:nonzero;stroke:none;stroke-width:9;stroke-linecap:butt;stroke-linejoin:round;stroke-miterlimit:4;stroke-dasharray:none;stroke-dashoffset:0;stroke-opacity:1;color-rendering:auto;image-rendering:auto;shape-rendering:auto;text-rendering:auto;enable-background:accumulate"
           transform="matrix(0.01824558,0.99983354,0.99983354,-0.01824558,0,0)" />
        <path
           sodipodi:type="star"
           style="opacity:1;fill:#fbb516;fill-opacity:1;fill-rule:nonzero;stroke:none;stroke-width:14;stroke-linecap:round;stroke-linejoin:round;stroke-miterlimit:4;stroke-dasharray:none;stroke-opacity:1"
           id="path4159"
           sodipodi:sides="5"
           sodipodi:cx="356"
           sodipodi:cy="488.36221"
           sodipodi:r1="132.00378"
           sodipodi:r2="68.641968"
           sodipodi:arg1="0.91971961"
           sodipodi:arg2="1.5480381"
           inkscape:flatsided="false"
           inkscape:rounded="0.1"
           inkscape:randomized="0"
           d="m 436,593.36221 c -6.87748,5.23998 -69.79398,-36.57256 -78.43797,-36.3758 -8.64398,0.19675 -69.59282,44.82873 -76.7016,39.90711 -7.10878,-4.92163 13.21504,-77.67957 10.35678,-85.83968 -2.85826,-8.16012 -64.14003,-52.33387 -61.65602,-60.61559 2.48401,-8.28172 77.96133,-11.43605 84.83881,-16.67603 6.87748,-5.23999 29.95211,-77.17285 38.59609,-77.36961 8.64398,-0.19675 34.96771,70.6117 42.07649,75.53332 7.10877,4.92163 82.65145,4.63843 85.50971,12.79855 2.85826,8.16011 -56.3501,55.07648 -58.83411,63.35819 -2.48401,8.28172 21.1293,80.03956 14.25182,85.27954 z"
           inkscape:transform-center-x="-0.062039762"
           inkscape:transform-center-y="-8.4856747"
           transform="matrix(0.68041579,0.01716036,-0.01718924,0.6792728,270.66045,310.73987)" />
      </g>
    </g>
  </g>
</svg>
