<?xml version="1.0" encoding="UTF-8" standalone="no"?>
<!-- Created with Inkscape (http://www.inkscape.org/) -->

<svg
   xmlns:dc="http://purl.org/dc/elements/1.1/"
   xmlns:cc="http://creativecommons.org/ns#"
   xmlns:rdf="http://www.w3.org/1999/02/22-rdf-syntax-ns#"
   xmlns:svg="http://www.w3.org/2000/svg"
   xmlns="http://www.w3.org/2000/svg"
   xmlns:xlink="http://www.w3.org/1999/xlink"
   xmlns:sodipodi="http://sodipodi.sourceforge.net/DTD/sodipodi-0.dtd"
   xmlns:inkscape="http://www.inkscape.org/namespaces/inkscape"
   width="210mm"
   height="297mm"
   viewBox="0 0 744.09448819 1052.3622047"
   id="svg2"
   version="1.1"
   inkscape:version="0.91 r13725"
   inkscape:export-xdpi="4"
   inkscape:export-ydpi="4"
   sodipodi:docname="script-false.svg">
  <defs
     id="defs4">
    <linearGradient
       id="linearGradient2224">
      <stop
         id="stop2226"
         offset="0"
         style="stop-color:#7c7c7c;stop-opacity:1;" />
      <stop
         id="stop2228"
         offset="1"
         style="stop-color:#b8b8b8;stop-opacity:1;" />
    </linearGradient>
    <linearGradient
       id="linearGradient15218">
      <stop
         id="stop15220"
         offset="0"
         style="stop-color:#eeeeef;stop-opacity:1;" />
      <stop
         id="stop2736"
         offset="0.59928656"
         style="stop-color:#d3d7cf;stop-opacity:1;" />
      <stop
         id="stop2738"
         offset="0.82758623"
         style="stop-color:#ffffff;stop-opacity:1;" />
      <stop
         id="stop15222"
         offset="1"
         style="stop-color:#d3d7cf;stop-opacity:1;" />
    </linearGradient>
    <pattern
       y="0"
       x="0"
       height="6"
       width="6"
       patternUnits="userSpaceOnUse"
       id="EMFhbasepattern" />
    <pattern
       y="0"
       x="0"
       height="6"
       width="6"
       patternUnits="userSpaceOnUse"
       id="EMFhbasepattern-5" />
    <linearGradient
       gradientTransform="translate(-17.400082,-0.77646528)"
       inkscape:collect="always"
       xlink:href="#linearGradient4194"
       id="linearGradient4200"
       x1="262"
       y1="668.36218"
       x2="502"
       y2="322.36221"
       gradientUnits="userSpaceOnUse" />
    <linearGradient
       inkscape:collect="always"
       id="linearGradient4194">
      <stop
         style="stop-color:#4e505d;stop-opacity:1;"
         offset="0"
         id="stop4196" />
      <stop
         style="stop-color:#7a8597;stop-opacity:1"
         offset="1"
         id="stop4198" />
    </linearGradient>
  </defs>
  <sodipodi:namedview
     id="base"
     pagecolor="#ffffff"
     bordercolor="#666666"
     borderopacity="1.0"
     inkscape:pageopacity="0.0"
     inkscape:pageshadow="2"
     inkscape:zoom="1"
     inkscape:cx="442.48149"
     inkscape:cy="491.5245"
     inkscape:document-units="px"
     inkscape:current-layer="layer1"
     showgrid="false"
     showguides="true"
     inkscape:guide-bbox="true"
     inkscape:window-width="1366"
     inkscape:window-height="721"
     inkscape:window-x="-4"
     inkscape:window-y="-4"
     inkscape:window-maximized="1">
    <sodipodi:guide
       position="560,730.00002"
       orientation="0,1"
       id="guide3338" />
    <sodipodi:guide
       position="560,330.00001"
       orientation="0,1"
       id="guide3340" />
    <sodipodi:guide
       position="190,475.00001"
       orientation="1,0"
       id="guide3344" />
    <sodipodi:guide
       position="590,451.00001"
       orientation="1,0"
       id="guide3346" />
    <inkscape:grid
       type="xygrid"
       id="grid3440" />
  </sodipodi:namedview>
  <metadata
     id="metadata7">
    <rdf:RDF>
      <cc:Work
         rdf:about="">
        <dc:format>image/svg+xml</dc:format>
        <dc:type
           rdf:resource="http://purl.org/dc/dcmitype/StillImage" />
        <dc:title>script false</dc:title>
        <dc:date>June 2015</dc:date>
        <dc:creator>
          <cc:Agent>
            <dc:title>Johannes Hechler</dc:title>
          </cc:Agent>
        </dc:creator>
        <dc:rights>
          <cc:Agent>
            <dc:title>Johannes Hechler</dc:title>
          </cc:Agent>
        </dc:rights>
        <dc:publisher>
          <cc:Agent>
            <dc:title>RRZE</dc:title>
          </cc:Agent>
        </dc:publisher>
        <dc:contributor>
          <cc:Agent>
            <dc:title>Ute Weber, Hendrik Eggers</dc:title>
          </cc:Agent>
        </dc:contributor>
      </cc:Work>
    </rdf:RDF>
  </metadata>
  <g
     inkscape:label="Ebene 1"
     inkscape:groupmode="layer"
     id="layer1">
    <rect
       style="opacity:1;fill:none;fill-opacity:1;stroke:none;stroke-width:23;stroke-linecap:butt;stroke-linejoin:round;stroke-miterlimit:4;stroke-dasharray:none;stroke-opacity:1"
       id="rect4160-2"
       width="385.34863"
       height="385.34863"
       x="192.89235"
       y="321.64459" />
    <path
       inkscape:connector-curvature="0"
       style="fill:url(#linearGradient4200);fill-opacity:1;fill-rule:evenodd;stroke:none;stroke-width:1px;stroke-linecap:butt;stroke-linejoin:miter;stroke-opacity:1"
       d="m 209.29328,321.64345 c 29.52417,8.024 43.82631,19.68564 41.14844,51.4375 l -41.0625,307.9707 -0.0859,0 c -1.82726,13.88163 5.05888,22.43982 20.57422,25.72071 l 7.12304,0 c 5.75773,-2.24122 9.30417,-4.52661 11.16993,-6.91797 2.01211,-2.57894 3.81501,-6.28917 2.82226,-16.65625 l -1.68164,-17.56641 245.03321,0 39.00585,-292.55078 c 1.6492,-34.95059 -10.39942,-47.1799 -41.14843,-51.4375 l -282.89844,0 z m -10.45313,11.46875 c -3.17669,0.0552 -6.21858,0.84361 -7.8164,3.22461 -4.26085,6.3493 6.15625,32.19531 6.15625,32.19531 l 44.7832,-0.64843 c -3.90323,-16.97689 -19.75002,-28.88914 -32.15625,-32.91993 0,0 -5.6723,-1.94349 -10.9668,-1.85156 z m 68.10743,348.55664 c 2.51075,26.21927 -10.2848,35.01512 -25.81836,40.69336 l 289.15625,0 c 21.80747,-5.7241 22.88183,-22.3413 20.65429,-40.69336 l -283.99218,0 z"
       id="path4153" />
    <rect
       style="color:#252525;clip-rule:nonzero;display:inline;overflow:visible;visibility:visible;opacity:1;isolation:auto;mix-blend-mode:normal;color-interpolation:sRGB;color-interpolation-filters:linearRGB;solid-color:#252525;solid-opacity:1;fill:#ffffff;fill-opacity:1;fill-rule:nonzero;stroke:none;stroke-width:23;stroke-linecap:butt;stroke-linejoin:round;stroke-miterlimit:4;stroke-dasharray:none;stroke-dashoffset:0;stroke-opacity:1;color-rendering:auto;image-rendering:auto;shape-rendering:auto;text-rendering:auto;enable-background:accumulate"
       id="rect4202-6"
       width="225"
       height="20"
       x="274.59991"
       y="394.58575"
       ry="10" />
    <rect
       style="color:#252525;clip-rule:nonzero;display:inline;overflow:visible;visibility:visible;opacity:1;isolation:auto;mix-blend-mode:normal;color-interpolation:sRGB;color-interpolation-filters:linearRGB;solid-color:#252525;solid-opacity:1;fill:#ffffff;fill-opacity:1;fill-rule:nonzero;stroke:none;stroke-width:23;stroke-linecap:butt;stroke-linejoin:round;stroke-miterlimit:4;stroke-dasharray:none;stroke-dashoffset:0;stroke-opacity:1;color-rendering:auto;image-rendering:auto;shape-rendering:auto;text-rendering:auto;enable-background:accumulate"
       id="rect4202-2-1"
       width="176.23045"
       height="20"
       x="267.59991"
       y="449.08575"
       ry="10" />
    <rect
       ry="10"
       y="503.58569"
       x="260.09991"
       height="20"
       width="239"
       id="rect4207"
       style="color:#252525;clip-rule:nonzero;display:inline;overflow:visible;visibility:visible;opacity:1;isolation:auto;mix-blend-mode:normal;color-interpolation:sRGB;color-interpolation-filters:linearRGB;solid-color:#252525;solid-opacity:1;fill:#ffffff;fill-opacity:1;fill-rule:nonzero;stroke:none;stroke-width:23;stroke-linecap:butt;stroke-linejoin:round;stroke-miterlimit:4;stroke-dasharray:none;stroke-dashoffset:0;stroke-opacity:1;color-rendering:auto;image-rendering:auto;shape-rendering:auto;text-rendering:auto;enable-background:accumulate" />
    <rect
       style="opacity:1;fill:none;fill-opacity:1;stroke:none;stroke-width:23;stroke-linecap:butt;stroke-linejoin:round;stroke-miterlimit:4;stroke-dasharray:none;stroke-opacity:1"
       id="rect4160"
       width="385.34863"
       height="385.34863"
       x="210.29242"
       y="322.42108" />
    <path
       sodipodi:nodetypes="cccscsccsssscscsccsccc"
       inkscape:connector-curvature="0"
       id="path4240"
       d="m 583.55424,698.8308 c 7.8431,-7.82753 7.8371,-20.43279 -0.01,-28.26027 l -61.9614,-61.83974 62.7703,-62.64535 c 7.2711,-7.25662 7.2652,-18.94231 -0.01,-26.19894 l -19.0933,-19.05538 c -7.2712,-7.25662 -18.9802,-7.26258 -26.2513,-0.004 l -62.7685,62.64541 -62.432,-62.30771 c -7.84311,-7.82744 -20.46757,-7.82747 -28.31071,0 l -17.27134,17.237 c -7.84313,7.82749 -7.84309,20.42687 0,28.25435 l 62.43197,62.30766 -62.84745,62.72233 c -7.2711,7.25662 -7.26513,18.94237 0.004,26.19898 l 19.0934,19.37988 c 7.20946,7.31763 18.98012,7.26252 26.25122,0.004 l 62.84766,-63.04661 62.20697,62.65093 c 7.8073,7.86305 20.4735,7.83344 28.3166,0.004 l 17.0275,-18.04815 z"
       style="opacity:1;fill:#d9463a;fill-opacity:1;stroke:#ffffff;stroke-width:40;stroke-linecap:square;stroke-linejoin:round;stroke-miterlimit:4;stroke-dasharray:none;stroke-opacity:1" />
    <path
       style="opacity:1;fill:#d9463a;fill-opacity:1;stroke:none;stroke-width:0;stroke-linecap:square;stroke-linejoin:round;stroke-miterlimit:4;stroke-dasharray:none;stroke-opacity:1"
       d="m 583.55424,698.8308 c 7.8431,-7.82753 7.8371,-20.43279 -0.01,-28.26027 l -61.9614,-61.83974 62.7703,-62.64535 c 7.2711,-7.25662 7.2652,-18.94231 -0.01,-26.19894 l -19.0933,-19.05538 c -7.2712,-7.25662 -18.9802,-7.26258 -26.2513,-0.004 l -62.7685,62.64541 -62.432,-62.30771 c -7.84311,-7.82744 -20.46757,-7.82747 -28.31071,0 l -17.27134,17.237 c -7.84313,7.82749 -7.84309,20.42687 0,28.25435 l 62.43197,62.30766 -62.84745,62.72233 c -7.2711,7.25662 -7.26513,18.94237 0.004,26.19898 l 19.0934,19.37988 c 7.20946,7.31763 18.98012,7.26252 26.25122,0.004 l 62.84766,-63.04661 62.20697,62.65093 c 7.8073,7.86305 20.4735,7.83344 28.3166,0.004 l 17.0275,-18.04815 z"
       id="rect4217"
       inkscape:connector-curvature="0"
       sodipodi:nodetypes="cccscsccsssscscsccsccc" />
  </g>
</svg>
