<?xml version="1.0" encoding="UTF-8" standalone="no"?>
<!-- Created with Inkscape (http://www.inkscape.org/) -->

<svg
   xmlns:dc="http://purl.org/dc/elements/1.1/"
   xmlns:cc="http://creativecommons.org/ns#"
   xmlns:rdf="http://www.w3.org/1999/02/22-rdf-syntax-ns#"
   xmlns:svg="http://www.w3.org/2000/svg"
   xmlns="http://www.w3.org/2000/svg"
   xmlns:sodipodi="http://sodipodi.sourceforge.net/DTD/sodipodi-0.dtd"
   xmlns:inkscape="http://www.inkscape.org/namespaces/inkscape"
   width="210mm"
   height="297mm"
   viewBox="0 0 744.09448819 1052.3622047"
   id="svg2"
   version="1.1"
   inkscape:version="0.91 r13725"
   inkscape:export-xdpi="4.9499998"
   inkscape:export-ydpi="4.9499998"
   sodipodi:docname="service.svg"
   inkscape:export-filename="D:\Dokumente\Arbeit\RRZE\github\bicons\22x22\emblems\service.png">
  <title
     id="title4155">service</title>
  <defs
     id="defs4">
    <linearGradient
       id="linearGradient2224">
      <stop
         id="stop2226"
         offset="0"
         style="stop-color:#7c7c7c;stop-opacity:1;" />
      <stop
         id="stop2228"
         offset="1"
         style="stop-color:#b8b8b8;stop-opacity:1;" />
    </linearGradient>
    <linearGradient
       id="linearGradient15218">
      <stop
         id="stop15220"
         offset="0"
         style="stop-color:#eeeeef;stop-opacity:1;" />
      <stop
         id="stop2736"
         offset="0.59928656"
         style="stop-color:#d3d7cf;stop-opacity:1;" />
      <stop
         id="stop2738"
         offset="0.82758623"
         style="stop-color:#ffffff;stop-opacity:1;" />
      <stop
         id="stop15222"
         offset="1"
         style="stop-color:#d3d7cf;stop-opacity:1;" />
    </linearGradient>
    <pattern
       y="0"
       x="0"
       height="6"
       width="6"
       patternUnits="userSpaceOnUse"
       id="EMFhbasepattern" />
    <pattern
       y="0"
       x="0"
       height="6"
       width="6"
       patternUnits="userSpaceOnUse"
       id="EMFhbasepattern-5" />
  </defs>
  <sodipodi:namedview
     id="base"
     pagecolor="#ffffff"
     bordercolor="#666666"
     borderopacity="1.0"
     inkscape:pageopacity="0.0"
     inkscape:pageshadow="2"
     inkscape:zoom="1.4142136"
     inkscape:cx="291.58396"
     inkscape:cy="459.50433"
     inkscape:document-units="px"
     inkscape:current-layer="layer1"
     showgrid="false"
     showguides="true"
     inkscape:guide-bbox="true"
     inkscape:window-width="1600"
     inkscape:window-height="837"
     inkscape:window-x="-4"
     inkscape:window-y="-4"
     inkscape:window-maximized="1">
    <sodipodi:guide
       position="560,730.00002"
       orientation="0,1"
       id="guide3338" />
    <sodipodi:guide
       position="560,330.00001"
       orientation="0,1"
       id="guide3340" />
    <sodipodi:guide
       position="190,475.00001"
       orientation="1,0"
       id="guide3344" />
    <sodipodi:guide
       position="590,451.00001"
       orientation="1,0"
       id="guide3346" />
    <inkscape:grid
       type="xygrid"
       id="grid3440" />
  </sodipodi:namedview>
  <metadata
     id="metadata7">
    <rdf:RDF>
      <cc:Work
         rdf:about="">
        <dc:format>image/svg+xml</dc:format>
        <dc:type
           rdf:resource="http://purl.org/dc/dcmitype/StillImage" />
        <dc:title>service</dc:title>
        <dc:date>June 2015</dc:date>
        <dc:creator>
          <cc:Agent>
            <dc:title>Johannes Hechler</dc:title>
          </cc:Agent>
        </dc:creator>
        <dc:rights>
          <cc:Agent>
            <dc:title>Johannes Hechler</dc:title>
          </cc:Agent>
        </dc:rights>
        <dc:publisher>
          <cc:Agent>
            <dc:title>RRZE</dc:title>
          </cc:Agent>
        </dc:publisher>
        <dc:contributor>
          <cc:Agent>
            <dc:title>Ute Weber, Hendrik Eggers</dc:title>
          </cc:Agent>
        </dc:contributor>
      </cc:Work>
    </rdf:RDF>
  </metadata>
  <g
     inkscape:label="Ebene 1"
     inkscape:groupmode="layer"
     id="layer1">
    <g
       id="g4196">
      <g
         id="g4190">
        <rect
           style="opacity:1;fill:none;fill-opacity:1;stroke:none;stroke-width:23;stroke-linecap:butt;stroke-linejoin:round;stroke-miterlimit:4;stroke-dasharray:none;stroke-opacity:1"
           id="rect4160"
           width="400"
           height="400"
           x="188.90874"
           y="322.0321" />
        <path
           style="color:#252525;clip-rule:nonzero;display:inline;overflow:visible;visibility:visible;opacity:1;isolation:auto;mix-blend-mode:normal;color-interpolation:sRGB;color-interpolation-filters:linearRGB;solid-color:#252525;solid-opacity:1;fill:#99b000;fill-opacity:1;fill-rule:nonzero;stroke:none;stroke-width:23;stroke-linecap:butt;stroke-linejoin:round;stroke-miterlimit:4;stroke-dasharray:none;stroke-dashoffset:0;stroke-opacity:1;color-rendering:auto;image-rendering:auto;shape-rendering:auto;text-rendering:auto;enable-background:accumulate"
           d="M 254.17188 409.14648 L 206.80859 499.93945 L 261.69531 525.58398 C 263.69459 531.64906 267.39394 537.67978 272.01367 543.29102 L 285.1875 529.05469 L 284.77734 529.51562 C 290.15279 523.28025 296.65237 518.6441 304.86523 515.39453 C 308.97167 513.76975 314.24564 512.36613 319.82617 512.51758 C 325.40671 512.66902 331.29357 514.37484 336.62695 518.97266 C 337.91456 520.08268 340.86319 521.16609 346.21484 526.11914 C 346.28623 526.18521 346.37417 526.29213 346.44727 526.36133 C 351.97419 525.72727 359.0569 525.87541 366.57812 532.35938 C 372.68959 537.62798 376.32352 544.73601 377.68359 552.23047 C 381.53791 553.61029 385.20033 555.67408 388.45117 558.47656 C 391.01454 560.68642 393.02942 563.28691 394.76953 566.0293 C 403.54804 565.42343 412.55457 568.06998 419.61914 574.16016 C 428.51153 581.82623 432.65256 593.323 431.34961 604.30664 C 430.56786 610.89708 427.81325 617.40833 423.2168 622.74023 L 408.74609 639.52734 C 417.27997 643.25372 429.54264 645.91387 434.14844 639.26758 C 437.4743 634.46829 438.50277 629.38538 436.38086 624.31836 C 443.83714 628.14415 453.09487 625.9764 458.00391 618.89258 C 462.77158 612.01275 461.76286 602.91806 456.02148 597.23438 L 458.09375 598.67383 C 465.81033 604.02138 476.32826 602.11308 481.67578 594.39648 C 487.0233 586.67986 485.11505 576.16396 477.39844 570.81641 L 471.10352 566.44922 C 478.74659 571.22791 487.54957 564.23438 490.24023 559.24414 C 494.69588 550.98045 491.55319 539.07848 483.71289 533.91406 L 467.84375 523.46094 C 466.39512 522.26329 464.87885 521.1189 463.23242 520.09766 L 409.6875 485.37305 L 363.75 508.875 C 346.14791 517.88052 323.39127 511.60557 313.6875 493.76367 C 303.98373 475.92178 310.43628 452.593 328.98438 443.10352 L 333 441.04883 C 332.50502 441.11805 331.94915 441.19409 331.48242 441.25977 C 327.49387 441.82098 322.40069 442.83602 316.98633 444.53711 L 254.17188 409.14648 z M 371.54883 460.64258 L 344.92578 474.26367 C 344.04141 474.71613 343.70832 475.70749 344.43359 477.04102 C 345.15886 478.37454 345.97824 478.65324 347.80859 477.7168 L 375.79688 463.39648 L 371.54883 460.64258 z M 317.2793 548.21289 C 315.15179 549.19846 311.99492 551.5481 311.28711 552.36914 A 17.50175 17.50175 0 0 1 310.87695 552.82812 L 298.61914 566.07227 L 378.0625 621.51758 L 387.84961 610.16406 A 17.50175 17.50175 0 0 1 364.00391 586.58008 A 17.50175 17.50175 0 0 1 339.65625 563.58008 C 339.65425 563.58008 339.65434 563.58158 339.65234 563.58203 A 17.50175 17.50175 0 0 1 317.41211 548.31641 C 317.3679 548.28269 317.3239 548.24709 317.2793 548.21289 z "
           id="rect4149" />
        <path
           style="fill:#4e505d;fill-rule:evenodd;stroke:none;stroke-width:1px;stroke-linecap:butt;stroke-linejoin:miter;stroke-opacity:1"
           d="m 551.13874,403.6196 -84.07113,31.15297 -30.55672,-14.98048 c 0,0 -4.21674,-0.99476 -10.1216,-0.60242 -4.88779,-1.50848 -10.26991,-0.97413 -15.21881,1.52255 l -73.86403,37.26379 c -9.74424,4.91589 -13.10527,17.12961 -7.89075,26.71729 5.21452,9.58771 17.12957,13.11188 26.71729,7.89736 l 53.03134,-28.1885 80.96107,54.13537 86.36159,-19.17435 z"
           id="path4224"
           inkscape:connector-curvature="0"
           sodipodi:nodetypes="ccccsssccccc" />
        <path
           inkscape:connector-curvature="0"
           id="path4233"
           d="m 413.97099,602.24528 c 0.64031,-5.39771 -1.33426,-10.99987 -5.7785,-14.83122 -7.11084,-6.13007 -17.77028,-5.34073 -23.9004,1.77008 l -4.92836,5.72053 c 5.48371,-7.09395 4.53538,-17.24626 -2.3396,-23.17311 -6.33974,-5.46536 -15.49681,-5.41937 -21.75334,-0.30809 l 1.65013,-1.90991 c 6.13014,-7.11084 0.59088,-15.29618 -5.30561,-19.65775 -6.87197,-5.0831 -16.78367,-3.20126 -22.08157,1.49672 4.9614,-7.04204 2.90608,-14.55408 -3.62566,-20.18498 -6.96323,-6.00288 -17.85684,-2.99346 -23.98695,4.11732 l -22.26188,25.51051 c -6.13009,7.11084 -5.46017,17.67159 1.50309,23.67446 4.42116,3.81135 10.2807,4.81902 15.54169,3.24438 -4.58892,7.01208 -3.40646,16.44778 3.12104,22.07509 6.33974,5.46532 15.49681,5.41933 21.75334,0.30808 l -1.65011,1.90995 c -6.13015,7.11081 -5.34074,17.77028 1.77009,23.90039 7.11077,6.13011 17.77022,5.34074 23.90036,-1.7701 l 4.92837,-5.72048 c -5.4837,7.09396 -4.53541,17.24627 2.33957,23.17309 7.11084,6.13014 17.77028,5.34074 23.90043,-1.77003 l 33.19548,-38.50572 c 2.29876,-2.66657 3.62422,-5.83049 4.00839,-9.06918 z"
           style="color:#252525;clip-rule:nonzero;display:inline;overflow:visible;visibility:visible;opacity:1;isolation:auto;mix-blend-mode:normal;color-interpolation:sRGB;color-interpolation-filters:linearRGB;solid-color:#252525;solid-opacity:1;fill:#4e505d;fill-opacity:1;fill-rule:nonzero;stroke:none;stroke-width:1;stroke-linecap:butt;stroke-linejoin:round;stroke-miterlimit:4;stroke-dasharray:none;stroke-dashoffset:0;stroke-opacity:1;color-rendering:auto;image-rendering:auto;shape-rendering:auto;text-rendering:auto;enable-background:accumulate"
           sodipodi:nodetypes="csccsccscsccscsccsccssccc" />
      </g>
    </g>
  </g>
</svg>
