<?xml version="1.0" encoding="UTF-8" standalone="no"?>
<!-- Created with Inkscape (http://www.inkscape.org/) -->

<svg
   xmlns:dc="http://purl.org/dc/elements/1.1/"
   xmlns:cc="http://creativecommons.org/ns#"
   xmlns:rdf="http://www.w3.org/1999/02/22-rdf-syntax-ns#"
   xmlns:svg="http://www.w3.org/2000/svg"
   xmlns="http://www.w3.org/2000/svg"
   xmlns:xlink="http://www.w3.org/1999/xlink"
   xmlns:sodipodi="http://sodipodi.sourceforge.net/DTD/sodipodi-0.dtd"
   xmlns:inkscape="http://www.inkscape.org/namespaces/inkscape"
   width="210mm"
   height="297mm"
   viewBox="0 0 744.09448819 1052.3622047"
   id="svg2"
   version="1.1"
   inkscape:version="0.91 r13725"
   inkscape:export-xdpi="4.9499817"
   inkscape:export-ydpi="4.9499817"
   sodipodi:docname="structured-program-stay-abroad.svg"
   inkscape:export-filename="D:\Dokumente\Arbeit\RRZE\github\bicons\22x22\emblems\structured-program-stay-abroad.png">
  <title
     id="title4162">structured program stay abroad</title>
  <defs
     id="defs4">
    <linearGradient
       id="linearGradient2224">
      <stop
         id="stop2226"
         offset="0"
         style="stop-color:#7c7c7c;stop-opacity:1;" />
      <stop
         id="stop2228"
         offset="1"
         style="stop-color:#b8b8b8;stop-opacity:1;" />
    </linearGradient>
    <linearGradient
       id="linearGradient15218">
      <stop
         id="stop15220"
         offset="0"
         style="stop-color:#eeeeef;stop-opacity:1;" />
      <stop
         id="stop2736"
         offset="0.59928656"
         style="stop-color:#d3d7cf;stop-opacity:1;" />
      <stop
         id="stop2738"
         offset="0.82758623"
         style="stop-color:#ffffff;stop-opacity:1;" />
      <stop
         id="stop15222"
         offset="1"
         style="stop-color:#d3d7cf;stop-opacity:1;" />
    </linearGradient>
    <pattern
       y="0"
       x="0"
       height="6"
       width="6"
       patternUnits="userSpaceOnUse"
       id="EMFhbasepattern" />
    <pattern
       y="0"
       x="0"
       height="6"
       width="6"
       patternUnits="userSpaceOnUse"
       id="EMFhbasepattern-5" />
    <linearGradient
       gradientTransform="translate(-1e-5,4e-5)"
       inkscape:collect="always"
       xlink:href="#linearGradient4290"
       id="linearGradient4296"
       x1="54.540001"
       y1="399.99997"
       x2="290.88"
       y2="72.719955"
       gradientUnits="userSpaceOnUse" />
    <linearGradient
       inkscape:collect="always"
       id="linearGradient4290">
      <stop
         style="stop-color:#4e505d;stop-opacity:1;"
         offset="0"
         id="stop4292" />
      <stop
         style="stop-color:#7a859c;stop-opacity:1"
         offset="1"
         id="stop4294" />
    </linearGradient>
  </defs>
  <sodipodi:namedview
     id="base"
     pagecolor="#ffffff"
     bordercolor="#666666"
     borderopacity="1.0"
     inkscape:pageopacity="0.0"
     inkscape:pageshadow="2"
     inkscape:zoom="0.70710678"
     inkscape:cx="119.23006"
     inkscape:cy="531.64203"
     inkscape:document-units="px"
     inkscape:current-layer="layer1"
     showgrid="false"
     showguides="true"
     inkscape:guide-bbox="true"
     inkscape:window-width="1600"
     inkscape:window-height="837"
     inkscape:window-x="-4"
     inkscape:window-y="-4"
     inkscape:window-maximized="1"
     inkscape:snap-bbox="true"
     inkscape:bbox-nodes="true"
     inkscape:bbox-paths="true"
     inkscape:snap-nodes="false">
    <sodipodi:guide
       position="560,730.00002"
       orientation="0,1"
       id="guide3338" />
    <sodipodi:guide
       position="560,330.00001"
       orientation="0,1"
       id="guide3340" />
    <sodipodi:guide
       position="190,475.00001"
       orientation="1,0"
       id="guide3344" />
    <sodipodi:guide
       position="590,451.00001"
       orientation="1,0"
       id="guide3346" />
    <inkscape:grid
       type="xygrid"
       id="grid3440" />
  </sodipodi:namedview>
  <metadata
     id="metadata7">
    <rdf:RDF>
      <cc:Work
         rdf:about="">
        <dc:format>image/svg+xml</dc:format>
        <dc:type
           rdf:resource="http://purl.org/dc/dcmitype/StillImage" />
        <dc:title>structured program stay abroad</dc:title>
        <dc:date>June 2015</dc:date>
        <dc:creator>
          <cc:Agent>
            <dc:title>Johannes Hechler</dc:title>
          </cc:Agent>
        </dc:creator>
        <dc:rights>
          <cc:Agent>
            <dc:title>Johannes Hechler</dc:title>
          </cc:Agent>
        </dc:rights>
        <dc:publisher>
          <cc:Agent>
            <dc:title>RRZE</dc:title>
          </cc:Agent>
        </dc:publisher>
        <dc:contributor>
          <cc:Agent>
            <dc:title>Ute Weber, Hendrik Eggers</dc:title>
          </cc:Agent>
        </dc:contributor>
      </cc:Work>
    </rdf:RDF>
  </metadata>
  <g
     inkscape:label="Ebene 1"
     inkscape:groupmode="layer"
     id="layer1">
    <g
       id="g4197"
       transform="translate(-52.649583,8.8153685)">
      <g
         id="g4273"
         transform="translate(242.64811,-338.81529)">
        <rect
           style="opacity:1;fill:none;fill-opacity:1;stroke:none;stroke-width:23;stroke-linecap:butt;stroke-linejoin:round;stroke-miterlimit:4;stroke-dasharray:none;stroke-opacity:1"
           id="rect4160"
           width="400"
           height="400"
           x="-2.421875e-006"
           y="652.36212" />
        <path
           style="opacity:1;fill:url(#linearGradient4296);fill-opacity:1;stroke:none;stroke-width:50;stroke-linejoin:round;stroke-miterlimit:4;stroke-dasharray:none;stroke-opacity:1"
           d="m 36.359375,36.359375 c -10.07172,0 -18.179688,8.107978 -18.179687,18.179687 0,10.071721 8.107967,18.181641 18.179687,18.181641 l 0,181.798827 c 0,10.0717 8.107967,18.17969 18.179687,18.17969 l 110.771488,0 -69.523441,75.14062 c -6.73534,7.2797 -6.476685,18.75216 0.578125,25.72266 l 3.185547,3.14844 c 7.054809,6.9705 18.155279,6.7211 24.890629,-0.5586 l 57.35937,-61.99414 0,49.44141 c 0,10.0718 8.10797,18.17969 18.17969,18.17969 10.07172,0 18.17969,-8.10789 18.17969,-18.17969 l 0,-49.44141 57.35742,61.99414 c 6.73534,7.2797 17.83776,7.5291 24.89258,0.5586 l 3.18554,-3.14844 c 7.05482,-6.9705 7.31153,-18.44296 0.57618,-25.72266 L 284.97852,327.0957 c -40.54063,0.94703 -80.7761,-16.84139 -107.14454,-48.41211 -33.0385,-38.61334 -41.78002,-94.5695 -21.49804,-141.3789 20.22661,-49.864152 70.44185,-83.082598 123.72265,-83.447268 30.0622,-0.444519 59.66191,9.459481 83.54102,27.351562 l 0,-8.488281 0.043,0 c 10.07171,0 18.17969,-8.10992 18.17969,-18.181641 0,-10.07171 -8.10798,-18.179687 -18.17969,-18.179687 l -327.283205,0 z"
           transform="translate(0,652.36214)"
           id="rect4279"
           inkscape:connector-curvature="0" />
        <path
           sodipodi:nodetypes="cccccccccccccccccccccccccccccccccccccccccccccccccccccccccccccccccc"
           inkscape:connector-curvature="0"
           id="path4346"
           d="m 280.27214,724.2154 c -45.76214,0.2758 -90.08526,29.64664 -107.33652,72.38932 -17.50462,40.16758 -9.81338,89.63123 18.64431,122.82461 29.29152,35.13658 79.86772,50.78383 123.58923,37.0279 34.5094,-10.08047 63.75303,-42.54455 76.54774,-76.36533 15.70603,-38.31865 8.56666,-78.39867 -17.06221,-110.72223 -22.21295,-28.53279 -58.34533,-45.70385 -94.38255,-45.15427 z m -7.83879,73.40732 -33.77068,0 c 5.72869,-18.521 14.40565,-42.49609 32.40561,-52.20708 3.2454,1.10882 0.41158,11.5266 1.36507,16.13929 z m 19.44727,-52.51862 c 17.73359,8.95418 26.46189,32.09796 32.37523,50.09379 0.54961,5.4688 -12.25953,0.95198 -17.0557,2.42483 -5.14004,-1.67874 -17.7196,4.11088 -15.99228,-4.46184 l 0,-48.33782 z m -55.88514,9.27442 c -7.84736,12.20002 -13.08881,29.20085 -16.59345,43.2442 l -24.84242,0 c 9.63963,-17.24757 24.37398,-34.87097 41.88944,-43.937 z m 91.6676,-0.45098 c 17.14502,8.97824 31.9076,26.60152 41.42067,43.69518 -8.25078,-0.10483 -16.82846,0.2076 -24.87931,-0.15251 -3.5763,-14.25254 -8.93488,-31.45875 -17.00578,-43.78013 z m -111.8788,62.15905 c -2.74595,19.68476 -2.76507,35.21441 0,54.89815 -9.6979,-0.2555 -20.14294,0.50438 -29.38683,-0.36824 -5.71319,-19.14189 -5.71732,-35.47228 0.3494,-54.52991 z m 56.64907,0 0,54.89815 -37.944,0 c -2.86335,-19.69532 -3.15754,-35.16177 0.19099,-54.89815 z m 56.52751,0 c 3.33932,19.73449 3.0671,35.12235 0.19099,54.89815 l -37.94398,0 0,-54.89815 z m 47.93349,0 c 6.10606,19.17963 6.06554,35.65711 0.23656,54.89815 l -29.27183,0 c 2.76369,-19.68409 2.74278,-35.21298 0,-54.89815 z m -157.50317,73.36418 c 3.55237,14.45152 8.84333,29.90186 17.00362,42.39884 -17.61647,-9.12606 -32.5216,-24.84266 -41.90897,-42.39884 z m 53.04217,0 c -0.0174,16.65058 0.0347,34.67862 -0.026,51.26373 -19.17523,-9.09439 -28.18697,-31.98688 -33.79889,-51.26373 l 33.82493,0 z m 52.57556,0 c -5.44435,18.11504 -13.55081,39.07626 -30.26578,49.63417 -5.89665,4.89777 -2.81666,-4.95249 -3.53526,-8.34857 l 0,-41.2856 z m 44.14646,0 c -9.45693,17.63429 -24.21388,33.20281 -41.90898,42.39884 8.16119,-12.49556 13.45786,-27.94507 17.00145,-42.39884 z"
           style="fill:#99b000;fill-opacity:1" />
      </g>
    </g>
  </g>
</svg>
