<?xml version="1.0" encoding="UTF-8" standalone="no"?>
<!-- Created with Inkscape (http://www.inkscape.org/) -->

<svg
   xmlns:dc="http://purl.org/dc/elements/1.1/"
   xmlns:cc="http://creativecommons.org/ns#"
   xmlns:rdf="http://www.w3.org/1999/02/22-rdf-syntax-ns#"
   xmlns:svg="http://www.w3.org/2000/svg"
   xmlns="http://www.w3.org/2000/svg"
   xmlns:xlink="http://www.w3.org/1999/xlink"
   xmlns:sodipodi="http://sodipodi.sourceforge.net/DTD/sodipodi-0.dtd"
   xmlns:inkscape="http://www.inkscape.org/namespaces/inkscape"
   width="210mm"
   height="297mm"
   viewBox="0 0 744.09448819 1052.3622047"
   id="svg2"
   version="1.1"
   inkscape:version="0.91 r13725"
   inkscape:export-xdpi="4.9500003"
   inkscape:export-ydpi="4.9500003"
   sodipodi:docname="system-IdM-Source.svg"
   inkscape:export-filename="D:\Dokumente\Arbeit\RRZE\github\bicons\22x22\emblems\system-IdM-Source.png">
  <defs
     id="defs4">
    <linearGradient
       id="linearGradient2224">
      <stop
         id="stop2226"
         offset="0"
         style="stop-color:#7c7c7c;stop-opacity:1;" />
      <stop
         id="stop2228"
         offset="1"
         style="stop-color:#b8b8b8;stop-opacity:1;" />
    </linearGradient>
    <linearGradient
       id="linearGradient15218">
      <stop
         id="stop15220"
         offset="0"
         style="stop-color:#eeeeef;stop-opacity:1;" />
      <stop
         id="stop2736"
         offset="0.59928656"
         style="stop-color:#d3d7cf;stop-opacity:1;" />
      <stop
         id="stop2738"
         offset="0.82758623"
         style="stop-color:#ffffff;stop-opacity:1;" />
      <stop
         id="stop15222"
         offset="1"
         style="stop-color:#d3d7cf;stop-opacity:1;" />
    </linearGradient>
    <pattern
       y="0"
       x="0"
       height="6"
       width="6"
       patternUnits="userSpaceOnUse"
       id="EMFhbasepattern" />
    <pattern
       y="0"
       x="0"
       height="6"
       width="6"
       patternUnits="userSpaceOnUse"
       id="EMFhbasepattern-5" />
    <linearGradient
       inkscape:collect="always"
       xlink:href="#linearGradient4321"
       id="linearGradient4171"
       x1="244.65895"
       y1="681.83826"
       x2="538.81537"
       y2="380.61075"
       gradientUnits="userSpaceOnUse"
       gradientTransform="matrix(0.03658214,0,0,0.03649664,396.71996,535.23649)" />
    <linearGradient
       id="linearGradient4321"
       inkscape:collect="always">
      <stop
         id="stop4323"
         offset="0"
         style="stop-color:#4e505d;stop-opacity:1;" />
      <stop
         id="stop4325"
         offset="1"
         style="stop-color:#7a8597;stop-opacity:1" />
    </linearGradient>
  </defs>
  <sodipodi:namedview
     id="base"
     pagecolor="#ffffff"
     bordercolor="#666666"
     borderopacity="1.0"
     inkscape:pageopacity="0.0"
     inkscape:pageshadow="2"
     inkscape:zoom="1.4142136"
     inkscape:cx="302.32705"
     inkscape:cy="536.61145"
     inkscape:document-units="px"
     inkscape:current-layer="layer1"
     showgrid="false"
     showguides="true"
     inkscape:guide-bbox="true"
     inkscape:window-width="1600"
     inkscape:window-height="837"
     inkscape:window-x="-4"
     inkscape:window-y="-4"
     inkscape:window-maximized="1"
     inkscape:snap-bbox="true"
     inkscape:bbox-nodes="true">
    <sodipodi:guide
       position="560,730.00002"
       orientation="0,1"
       id="guide3338" />
    <sodipodi:guide
       position="560,330.00001"
       orientation="0,1"
       id="guide3340" />
    <sodipodi:guide
       position="190,475.00001"
       orientation="1,0"
       id="guide3344" />
    <sodipodi:guide
       position="590,451.00001"
       orientation="1,0"
       id="guide3346" />
    <inkscape:grid
       type="xygrid"
       id="grid3440" />
  </sodipodi:namedview>
  <metadata
     id="metadata7">
    <rdf:RDF>
      <cc:Work
         rdf:about="">
        <dc:format>image/svg+xml</dc:format>
        <dc:type
           rdf:resource="http://purl.org/dc/dcmitype/StillImage" />
        <dc:title>system IdM Source</dc:title>
        <dc:date>June 2015</dc:date>
        <dc:creator>
          <cc:Agent>
            <dc:title>Johannes Hechler</dc:title>
          </cc:Agent>
        </dc:creator>
        <dc:rights>
          <cc:Agent>
            <dc:title>Johannes Hechler</dc:title>
          </cc:Agent>
        </dc:rights>
        <dc:publisher>
          <cc:Agent>
            <dc:title>RRZE</dc:title>
          </cc:Agent>
        </dc:publisher>
        <dc:contributor>
          <cc:Agent>
            <dc:title>Ute Weber, Hendrik Eggers</dc:title>
          </cc:Agent>
        </dc:contributor>
      </cc:Work>
    </rdf:RDF>
  </metadata>
  <g
     inkscape:label="Ebene 1"
     inkscape:groupmode="layer"
     id="layer1">
    <g
       id="g4206"
       transform="matrix(18.181818,0,0,18.181818,-7118.1881,-9483.4048)">
      <rect
         y="539.31561"
         x="401.95035"
         height="22"
         width="22"
         id="rect4160"
         style="opacity:1;fill:none;fill-opacity:1;stroke:none;stroke-width:23;stroke-linecap:butt;stroke-linejoin:round;stroke-miterlimit:4;stroke-dasharray:none;stroke-opacity:1" />
      <path
         id="path4172"
         d="m 416.70236,539.31739 -0.3028,1.205 c -0.2025,0.065 -0.3986,0.1476 -0.5859,0.2481 l -1.0762,-0.6133 -1.0625,1.1055 0.6621,1.0507 c -0.077,0.1559 -0.1406,0.3169 -0.1933,0.4825 l -1.1954,0.2988 0,1.5293 1.2286,0.3066 c 0.067,0.1978 0.1519,0.3897 0.2539,0.5723 l -0.6172,1.0781 1.1074,1.0586 1.0723,-0.6719 -0.033,-0.031 c 0.15,0.073 0.304,0.1364 0.4629,0.1875 l 0.2988,1.1934 1.5351,0 0.3067,-1.2168 c 0.1923,-0.064 0.3783,-0.1442 0.5566,-0.2403 l 1.084,0.6172 1.0625,-1.1035 -0.6719,-1.0645 c 0.068,-0.1391 0.1257,-0.2828 0.1739,-0.4296 l 1.1796,-0.295 0,-1.5293 -1.1796,-0.2929 c -0.064,-0.2012 -0.1481,-0.3978 -0.2481,-0.584 l 0.5977,-1.043 -1.1075,-1.0586 -1.0156,0.6367 c -0.1468,-0.073 -0.2995,-0.1342 -0.4551,-0.1855 l -0.3027,-1.2109 -1.5351,0 z m 0.746,3.2109 a 1.285578,1.2855235 0 0 1 1.2852,1.2851 1.285578,1.2855235 0 0 1 -1.2852,1.2852 1.285578,1.2855235 0 0 1 -1.2851,-1.2852 1.285578,1.2855235 0 0 1 1.2851,-1.2851 z m -7.6582,4.7871 -0.4726,1.8789 c -0.315,0.1006 -0.6207,0.2285 -0.9121,0.3848 l -1.6739,-0.9551 -1.6542,1.7187 1.0332,1.6368 c -0.1197,0.2425 -0.2209,0.4924 -0.3028,0.75 l -1.8574,0.4629 0,2.3808 1.9102,0.4766 c 0.1047,0.3077 0.2379,0.6046 0.3964,0.8886 l -0.9628,1.6797 1.7226,1.6465 1.668,-1.0449 -0.051,-0.049 c 0.2331,0.114 0.4735,0.2115 0.7207,0.291 l 0.4648,1.8555 2.3887,0 0.4746,-1.8926 c 0.1,-0.033 0.1915,-0.086 0.2891,-0.125 l -1.7227,-2.9864 0.016,-0.027 a 1.9998001,1.9997152 0 0 1 -0.3145,0.027 1.9998001,1.9997152 0 0 1 -2,-2 1.9998001,1.9997152 0 0 1 1.998,-2 1.9998001,1.9997152 0 0 1 1.8692,1.2832 l 1.8945,-3.2812 1.8496,0 0.098,-0.1699 -1.7227,-1.6465 -1.582,0.9902 c -0.2283,-0.1132 -0.465,-0.2091 -0.707,-0.289 l -0.4707,-1.8848 -2.3868,0 z m 6.0782,5 -2.3106,3.998 1.9649,3.4024 1.3652,-1.4219 -1.043,-1.6562 c 0.1049,-0.2164 0.1946,-0.4395 0.2696,-0.668 l 1.8339,-0.457 0,-2.3809 -1.8359,-0.457 c -0.04,-0.1243 -0.1037,-0.2384 -0.1523,-0.3594 l -0.092,0 z m -3.4629,1.9961 -1.4571,0 1.4551,0 0,0 z"
         style="opacity:1;fill:url(#linearGradient4171);fill-opacity:1;stroke:none;stroke-width:20.62700081;stroke-linecap:square;stroke-linejoin:miter;stroke-miterlimit:4;stroke-dasharray:none;stroke-opacity:1"
         inkscape:connector-curvature="0" />
      <path
         transform="matrix(0,0.96224692,-0.96224692,0,5468.3973,4615.2618)"
         d="m -4218.1963,5242.3623 5.1962,3 0,6 -5.1962,3 -5.1961,-3 0,-6 z"
         inkscape:randomized="0"
         inkscape:rounded="0"
         inkscape:flatsided="true"
         sodipodi:arg2="-1.0471976"
         sodipodi:arg1="-1.5707963"
         sodipodi:r2="5.1961522"
         sodipodi:r1="6"
         sodipodi:cy="5248.3623"
         sodipodi:cx="-4218.1963"
         sodipodi:sides="6"
         id="path4402"
         style="color:#000000;clip-rule:nonzero;display:inline;overflow:visible;visibility:visible;opacity:1;isolation:auto;mix-blend-mode:normal;color-interpolation:sRGB;color-interpolation-filters:linearRGB;solid-color:#000000;solid-opacity:1;fill:#99b000;fill-opacity:1;fill-rule:nonzero;stroke:none;stroke-width:2;stroke-linecap:butt;stroke-linejoin:round;stroke-miterlimit:4;stroke-dasharray:none;stroke-dashoffset:0;stroke-opacity:1;color-rendering:auto;image-rendering:auto;shape-rendering:auto;text-rendering:auto;enable-background:accumulate"
         sodipodi:type="star" />
    </g>
  </g>
</svg>
