<?xml version="1.0" encoding="UTF-8" standalone="no"?>
<!-- Created with Inkscape (http://www.inkscape.org/) -->

<svg
   xmlns:dc="http://purl.org/dc/elements/1.1/"
   xmlns:cc="http://creativecommons.org/ns#"
   xmlns:rdf="http://www.w3.org/1999/02/22-rdf-syntax-ns#"
   xmlns:svg="http://www.w3.org/2000/svg"
   xmlns="http://www.w3.org/2000/svg"
   xmlns:sodipodi="http://sodipodi.sourceforge.net/DTD/sodipodi-0.dtd"
   xmlns:inkscape="http://www.inkscape.org/namespaces/inkscape"
   width="210mm"
   height="297mm"
   viewBox="0 0 744.09448819 1052.3622047"
   id="svg2"
   version="1.1"
   inkscape:version="0.91 r13725"
   inkscape:export-xdpi="4.9499817"
   inkscape:export-ydpi="4.9499817"
   sodipodi:docname="timetable.svg"
   inkscape:export-filename="D:\Dokumente\Arbeit\RRZE\github\bicons\22x22\emblems\timetable.png">
  <defs
     id="defs4">
    <linearGradient
       id="linearGradient2224">
      <stop
         id="stop2226"
         offset="0"
         style="stop-color:#7c7c7c;stop-opacity:1;" />
      <stop
         id="stop2228"
         offset="1"
         style="stop-color:#b8b8b8;stop-opacity:1;" />
    </linearGradient>
    <linearGradient
       id="linearGradient15218">
      <stop
         id="stop15220"
         offset="0"
         style="stop-color:#eeeeef;stop-opacity:1;" />
      <stop
         id="stop2736"
         offset="0.59928656"
         style="stop-color:#d3d7cf;stop-opacity:1;" />
      <stop
         id="stop2738"
         offset="0.82758623"
         style="stop-color:#ffffff;stop-opacity:1;" />
      <stop
         id="stop15222"
         offset="1"
         style="stop-color:#d3d7cf;stop-opacity:1;" />
    </linearGradient>
    <pattern
       y="0"
       x="0"
       height="6"
       width="6"
       patternUnits="userSpaceOnUse"
       id="EMFhbasepattern" />
    <pattern
       y="0"
       x="0"
       height="6"
       width="6"
       patternUnits="userSpaceOnUse"
       id="EMFhbasepattern-5" />
  </defs>
  <sodipodi:namedview
     id="base"
     pagecolor="#ffffff"
     bordercolor="#666666"
     borderopacity="1.0"
     inkscape:pageopacity="0.0"
     inkscape:pageshadow="2"
     inkscape:zoom="0.5"
     inkscape:cx="574.33168"
     inkscape:cy="673.48715"
     inkscape:document-units="px"
     inkscape:current-layer="layer1"
     showgrid="false"
     showguides="true"
     inkscape:guide-bbox="true"
     inkscape:window-width="1600"
     inkscape:window-height="837"
     inkscape:window-x="-4"
     inkscape:window-y="-4"
     inkscape:window-maximized="1"
     inkscape:snap-bbox="true"
     inkscape:bbox-nodes="true">
    <sodipodi:guide
       position="315.53572,730.17859"
       orientation="0,1"
       id="guide3338" />
    <sodipodi:guide
       position="351.25,330.17858"
       orientation="0,1"
       id="guide3340" />
    <sodipodi:guide
       position="189.10714,408.8393"
       orientation="1,0"
       id="guide3344" />
    <sodipodi:guide
       position="589.04521,468.07945"
       orientation="1,0"
       id="guide3346" />
    <inkscape:grid
       type="xygrid"
       id="grid3440" />
    <sodipodi:guide
       position="589.04521,378.30213"
       orientation="1,0"
       id="guide3411" />
  </sodipodi:namedview>
  <metadata
     id="metadata7">
    <rdf:RDF>
      <cc:Work
         rdf:about="">
        <dc:format>image/svg+xml</dc:format>
        <dc:type
           rdf:resource="http://purl.org/dc/dcmitype/StillImage" />
        <dc:title>timetable</dc:title>
        <dc:date>June 2015</dc:date>
        <dc:creator>
          <cc:Agent>
            <dc:title>Johannes Hechler</dc:title>
          </cc:Agent>
        </dc:creator>
        <dc:rights>
          <cc:Agent>
            <dc:title>Johannes Hechler</dc:title>
          </cc:Agent>
        </dc:rights>
        <dc:publisher>
          <cc:Agent>
            <dc:title>RRZE</dc:title>
          </cc:Agent>
        </dc:publisher>
        <dc:contributor>
          <cc:Agent>
            <dc:title>Ute Weber, Hendrik Eggers</dc:title>
          </cc:Agent>
        </dc:contributor>
      </cc:Work>
    </rdf:RDF>
  </metadata>
  <g
     inkscape:label="Ebene 1"
     inkscape:groupmode="layer"
     id="layer1">
    <g
       id="g4195"
       transform="translate(72.044475,71.800932)">
      <path
         id="path4188-3"
         d="m 253.32935,250.34171 a 118.19073,118.19004 0 0 0 -118.19141,118.19141 118.19073,118.19004 0 0 0 91.1211,114.91797 l 0,-28.29883 c 0,-20.84079 16.22107,-37.90888 36.35937,-40.45312 l 0,-0.69727 c 0,-19.73432 16.44964,-36.17969 36.18164,-36.17969 19.732,0 36.17969,16.44769 36.17969,36.17969 l 0,0.18164 27.3457,0 A 118.19073,118.19004 0 0 0 371.5188,368.53312 118.19073,118.19004 0 0 0 253.32935,250.34171 Z m 45.22656,163.41602 c 0.006,-0.006 0.0625,0.0396 0.0625,0.24414 l 0,18.18164 a 18.0018,18.0018 0 0 1 -18,18 l -12.91211,0 c -3.52538,0 -5.44726,2.10671 -5.44726,4.96875 l 0,31.20508 a 118.19073,118.19004 0 0 0 76.33203,-36.17383 l -21.61133,0 a 18.0018,18.0018 0 0 1 -18,-18 l 0,-18.18164 c 0,-0.41144 0.23175,-0.17969 -0.17969,-0.17969 -0.20572,0 -0.25016,-0.0582 -0.24414,-0.0644 z"
         style="opacity:1;fill:#4e505d;fill-opacity:1;stroke:none;stroke-width:16;stroke-linecap:round;stroke-linejoin:round;stroke-miterlimit:4;stroke-dasharray:none;stroke-opacity:1"
         inkscape:connector-curvature="0" />
      <path
         id="rect4149"
         d="m 298.80005,395.82218 c -10.07172,0 -18.18164,8.10797 -18.18164,18.17969 l 0,18.18164 -12.91211,0 c -12.98936,0 -23.44726,10.24425 -23.44726,22.96875 l 0,172.26174 c 0,12.7246 10.4579,22.9687 23.44726,22.9687 l 207.66797,0 c 12.98937,0 23.44727,-10.2441 23.44727,-22.9687 l 0,-172.26174 c 0,-12.7245 -10.4579,-22.96875 -23.44727,-22.96875 l -12.95508,0 0,-18.18164 c 0,-10.07172 -8.10797,-18.17969 -18.17969,-18.17969 -10.07172,0 -18.17968,8.10797 -18.17968,18.17969 l 0,18.18164 -109.08008,0 0,-18.18164 c 0,-10.07172 -8.10797,-18.17969 -18.17969,-18.17969 z"
         style="color:#252525;clip-rule:nonzero;display:inline;overflow:visible;visibility:visible;opacity:1;isolation:auto;mix-blend-mode:normal;color-interpolation:sRGB;color-interpolation-filters:linearRGB;solid-color:#252525;solid-opacity:1;fill:#99b000;fill-opacity:1;fill-rule:nonzero;stroke:none;stroke-width:23;stroke-linecap:butt;stroke-linejoin:round;stroke-miterlimit:4;stroke-dasharray:none;stroke-dashoffset:0;stroke-opacity:1;color-rendering:auto;image-rendering:auto;shape-rendering:auto;text-rendering:auto;enable-background:accumulate"
         inkscape:connector-curvature="0" />
      <rect
         ry="11.115385"
         y="504.90262"
         x="262.4393"
         height="127.82697"
         width="218.15997"
         id="rect4151"
         style="color:#252525;clip-rule:nonzero;display:inline;overflow:visible;visibility:visible;opacity:1;isolation:auto;mix-blend-mode:normal;color-interpolation:sRGB;color-interpolation-filters:linearRGB;solid-color:#252525;solid-opacity:1;fill:#ffffff;fill-opacity:1;fill-rule:nonzero;stroke:none;stroke-width:23;stroke-linecap:butt;stroke-linejoin:round;stroke-miterlimit:4;stroke-dasharray:none;stroke-dashoffset:0;stroke-opacity:1;color-rendering:auto;image-rendering:auto;shape-rendering:auto;text-rendering:auto;enable-background:accumulate" />
      <text
         transform="scale(0.96441603,1.0368969)"
         sodipodi:linespacing="125%"
         id="text4371"
         y="592.13458"
         x="325.63751"
         style="font-style:normal;font-weight:normal;font-size:121.96920776px;line-height:125%;font-family:sans-serif;letter-spacing:0px;word-spacing:0px;fill:#4e505d;fill-opacity:1;stroke:none;stroke-width:1px;stroke-linecap:butt;stroke-linejoin:miter;stroke-opacity:1"
         xml:space="preserve"><tspan
           style="font-style:normal;font-variant:normal;font-weight:bold;font-stretch:normal;font-family:Arial;-inkscape-font-specification:'Arial Bold';fill:#4e505d"
           y="592.13458"
           x="325.63751"
           id="tspan4373"
           sodipodi:role="line">21</tspan></text>
      <path
         id="rect4375"
         d="m 128.11467,250.38271 377.77066,0 c 6.15794,0 11.1154,4.95747 11.1154,11.1154 l 0,377.76919 c 0,6.158 -4.95746,11.1154 -11.1154,11.1154 l -377.77066,0 c -6.15793,0 -11.1154,-4.9574 -11.1154,-11.1154 l 0,-377.76919 c 0,-6.15793 4.95747,-11.1154 11.1154,-11.1154 z"
         style="opacity:1;fill:none;fill-opacity:1;stroke:none;stroke-width:36;stroke-linejoin:miter;stroke-miterlimit:4;stroke-dasharray:none;stroke-opacity:1"
         inkscape:connector-curvature="0" />
      <rect
         ry="9.0900002"
         y="305.1022"
         x="244.26006"
         height="72.719971"
         width="18.35914"
         id="rect4621"
         style="opacity:1;fill:#ffffff;fill-opacity:1;stroke:none;stroke-width:36;stroke-linejoin:round;stroke-miterlimit:4;stroke-dasharray:none;stroke-dashoffset:0;stroke-opacity:1" />
      <rect
         ry="9.0899944"
         y="359.64218"
         x="153.36005"
         height="18.179989"
         width="109.25914"
         id="rect4623"
         style="opacity:1;fill:#ffffff;fill-opacity:1;stroke:none;stroke-width:36;stroke-linejoin:round;stroke-miterlimit:4;stroke-dasharray:none;stroke-dashoffset:0;stroke-opacity:1" />
    </g>
  </g>
</svg>
