<?xml version="1.0" encoding="UTF-8" standalone="no"?>
<!-- Created with Inkscape (http://www.inkscape.org/) -->

<svg
   xmlns:dc="http://purl.org/dc/elements/1.1/"
   xmlns:cc="http://creativecommons.org/ns#"
   xmlns:rdf="http://www.w3.org/1999/02/22-rdf-syntax-ns#"
   xmlns:svg="http://www.w3.org/2000/svg"
   xmlns="http://www.w3.org/2000/svg"
   xmlns:xlink="http://www.w3.org/1999/xlink"
   xmlns:sodipodi="http://sodipodi.sourceforge.net/DTD/sodipodi-0.dtd"
   xmlns:inkscape="http://www.inkscape.org/namespaces/inkscape"
   width="210mm"
   height="297mm"
   viewBox="0 0 744.09448819 1052.3622047"
   id="svg2"
   version="1.1"
   inkscape:version="0.91 r13725"
   inkscape:export-xdpi="4.9499841"
   inkscape:export-ydpi="4.9499841"
   sodipodi:docname="tree-diagram-delete.svg"
   inkscape:export-filename="C:\Users\johannes\Documents\Arbeit\RRZE\github3\bicons\22x22\emblems\tree-diagram-delete.png">
  <defs
     id="defs4">
    <linearGradient
       id="linearGradient2224">
      <stop
         id="stop2226"
         offset="0"
         style="stop-color:#7c7c7c;stop-opacity:1;" />
      <stop
         id="stop2228"
         offset="1"
         style="stop-color:#b8b8b8;stop-opacity:1;" />
    </linearGradient>
    <linearGradient
       id="linearGradient15218">
      <stop
         id="stop15220"
         offset="0"
         style="stop-color:#eeeeef;stop-opacity:1;" />
      <stop
         id="stop2736"
         offset="0.59928656"
         style="stop-color:#d3d7cf;stop-opacity:1;" />
      <stop
         id="stop2738"
         offset="0.82758623"
         style="stop-color:#ffffff;stop-opacity:1;" />
      <stop
         id="stop15222"
         offset="1"
         style="stop-color:#d3d7cf;stop-opacity:1;" />
    </linearGradient>
    <pattern
       y="0"
       x="0"
       height="6"
       width="6"
       patternUnits="userSpaceOnUse"
       id="EMFhbasepattern" />
    <pattern
       y="0"
       x="0"
       height="6"
       width="6"
       patternUnits="userSpaceOnUse"
       id="EMFhbasepattern-5" />
    <linearGradient
       inkscape:collect="always"
       xlink:href="#linearGradient4183"
       id="linearGradient4189-3"
       x1="390.32294"
       y1="322.36221"
       x2="289.91379"
       y2="438.59351"
       gradientUnits="userSpaceOnUse"
       gradientTransform="matrix(1.0084368,0,0,1.0180114,-8.3806603,88.410064)" />
    <linearGradient
       inkscape:collect="always"
       id="linearGradient4183">
      <stop
         style="stop-color:#7a8597;stop-opacity:1;"
         offset="0"
         id="stop4185" />
      <stop
         style="stop-color:#4e505d;stop-opacity:1"
         offset="1"
         id="stop4187" />
    </linearGradient>
  </defs>
  <sodipodi:namedview
     id="base"
     pagecolor="#ffffff"
     bordercolor="#666666"
     borderopacity="1.0"
     inkscape:pageopacity="0.0"
     inkscape:pageshadow="2"
     inkscape:zoom="0.35355339"
     inkscape:cx="136.23248"
     inkscape:cy="344.52782"
     inkscape:document-units="px"
     inkscape:current-layer="layer1"
     showgrid="false"
     showguides="true"
     inkscape:guide-bbox="true"
     inkscape:window-width="1366"
     inkscape:window-height="721"
     inkscape:window-x="-4"
     inkscape:window-y="-4"
     inkscape:window-maximized="1"
     inkscape:snap-bbox="true"
     inkscape:bbox-paths="true"
     inkscape:bbox-nodes="true"
     inkscape:snap-nodes="false">
    <sodipodi:guide
       position="560,730.00002"
       orientation="0,1"
       id="guide3338" />
    <sodipodi:guide
       position="560,330.00001"
       orientation="0,1"
       id="guide3340" />
    <sodipodi:guide
       position="190,475.00001"
       orientation="1,0"
       id="guide3344" />
    <sodipodi:guide
       position="590,451.00001"
       orientation="1,0"
       id="guide3346" />
    <inkscape:grid
       type="xygrid"
       id="grid3440" />
  </sodipodi:namedview>
  <metadata
     id="metadata7">
    <rdf:RDF>
      <cc:Work
         rdf:about="">
        <dc:format>image/svg+xml</dc:format>
        <dc:type
           rdf:resource="http://purl.org/dc/dcmitype/StillImage" />
        <dc:title>tree diagram delete</dc:title>
        <dc:date>June 2015</dc:date>
        <dc:creator>
          <cc:Agent>
            <dc:title>Johannes Hechler</dc:title>
          </cc:Agent>
        </dc:creator>
        <dc:rights>
          <cc:Agent>
            <dc:title>Johannes Hechler</dc:title>
          </cc:Agent>
        </dc:rights>
        <dc:publisher>
          <cc:Agent>
            <dc:title>RRZE</dc:title>
          </cc:Agent>
        </dc:publisher>
        <dc:contributor>
          <cc:Agent>
            <dc:title>Ute Weber, Hendrik Eggers</dc:title>
          </cc:Agent>
        </dc:contributor>
      </cc:Work>
    </rdf:RDF>
  </metadata>
  <g
     inkscape:label="Ebene 1"
     inkscape:groupmode="layer"
     id="layer1">
    <g
       id="g4192"
       transform="translate(6.0006394,-93.791273)">
      <rect
         y="416.57095"
         x="183.99936"
         height="400"
         width="400"
         id="rect4160"
         style="opacity:1;fill:none;fill-opacity:1;stroke:none;stroke-width:23;stroke-linecap:butt;stroke-linejoin:round;stroke-miterlimit:4;stroke-dasharray:none;stroke-opacity:1" />
      <rect
         ry="25.451948"
         y="416.15347"
         x="276.09628"
         height="127.25996"
         width="126.06305"
         id="rect4149"
         style="color:#252525;clip-rule:nonzero;display:inline;overflow:visible;visibility:visible;opacity:1;isolation:auto;mix-blend-mode:normal;color-interpolation:sRGB;color-interpolation-filters:linearRGB;solid-color:#252525;solid-opacity:1;fill:url(#linearGradient4189-3);fill-opacity:1;fill-rule:nonzero;stroke:none;stroke-width:4;stroke-linecap:butt;stroke-linejoin:round;stroke-miterlimit:4;stroke-dasharray:none;stroke-dashoffset:60.95800018;stroke-opacity:1;color-rendering:auto;image-rendering:auto;shape-rendering:auto;text-rendering:auto;enable-background:accumulate" />
      <path
         id="rect4162"
         d="m 452.9603,561.59293 c -8.00021,0 -14.44141,6.4412 -14.44141,14.44141 l 0,29.53516 c 1.19247,0.91312 2.34254,1.90135 3.42969,2.98632 l 25.84961,25.79883 29,0 c 1.50966,0 2.9623,-0.23033 4.32812,-0.65625 l 9.44727,-9.42773 c 0.43186,-1.37442 0.66601,-2.83685 0.66601,-4.35742 l 0,-43.87891 c 0,-8.00021 -6.44119,-14.44141 -14.4414,-14.44141 l -43.83789,0 z m -11.8125,97.02735 c -1.65299,2.34898 -2.62891,5.21161 -2.62891,8.31445 l 0,18.20508 18.24805,18.21094 a 18.0018,18.0018 0 0 1 2.75195,21.90234 l 37.2793,0 c 3.90669,0 7.43464,-1.54196 10.02929,-4.04492 a 18.0018,18.0018 0 0 1 4.41211,-17.99805 l 0,-28.74219 -14.39062,14.36133 a 18.0018,18.0018 0 0 1 -25.43164,0 L 441.1478,658.62028 Z m 11.8125,84.77343 c -8.0002,0 -14.44141,6.44121 -14.44141,14.44141 l 0,18.10938 32.44727,-32.55079 -18.00586,0 z m 43.93554,0.004 14.34375,14.44727 0,-0.01 c 0,-7.96723 -6.38939,-14.38472 -14.34375,-14.4375 z m -12.99218,38.00977 -34.24805,34.35547 c 1.0622,0.24727 2.16512,0.39062 3.30469,0.39062 l 43.83789,0 c 5.87865,0 10.9041,-3.48511 13.16211,-8.50391 l -26.05664,-26.24227 z"
         style="color:#252525;clip-rule:nonzero;display:inline;overflow:visible;visibility:visible;opacity:1;isolation:auto;mix-blend-mode:normal;color-interpolation:sRGB;color-interpolation-filters:linearRGB;solid-color:#252525;solid-opacity:1;fill:#99b000;fill-opacity:1;fill-rule:nonzero;stroke:none;stroke-width:15.04300022;stroke-linecap:square;stroke-linejoin:miter;stroke-miterlimit:0;stroke-dasharray:45.12900066, 45.12900066;stroke-dashoffset:0;stroke-opacity:1;color-rendering:auto;image-rendering:auto;shape-rendering:auto;text-rendering:auto;enable-background:accumulate"
         inkscape:connector-curvature="0" />
      <path
         id="rect4284"
         d="m 338.52866,561.59293 c -5.03586,0 -9.08985,4.05399 -9.08985,9.08985 l 0,36.36132 0,90.89844 0,90.90039 c 0,5.03586 4.05399,9.08985 9.08985,9.08985 l 31.08789,0 c -2.74864,-5.66895 -3.86333,-11.98486 -3.33399,-18.17969 l -18.66406,0 0,-72.71875 61.87695,0 -18.21875,-18.18164 -43.6582,0 0,-72.71875 36.41602,0 7.58984,-7.57617 c 6.17855,-6.1662 14.20492,-9.54861 22.41602,-10.16602 -0.87912,-0.28165 -1.81599,-0.4375 -2.79102,-0.4375 l -63.63086,0 0,-27.27148 c 0,-5.03586 -4.05398,-9.08985 -9.08984,-9.08985 z m 67.21484,218.16016 -3.02539,3.01953 13.48828,13.69141 c 2.48963,-1.61809 4.13281,-4.41804 4.13281,-7.6211 0,-5.03585 -4.05398,-9.08984 -9.08984,-9.08984 l -5.50586,0 z"
         style="color:#000000;clip-rule:nonzero;display:inline;overflow:visible;visibility:visible;opacity:1;isolation:auto;mix-blend-mode:normal;color-interpolation:sRGB;color-interpolation-filters:linearRGB;solid-color:#000000;solid-opacity:1;fill:#7a859c;fill-opacity:1;fill-rule:nonzero;stroke:none;stroke-width:36;stroke-linecap:round;stroke-linejoin:round;stroke-miterlimit:4;stroke-dasharray:none;stroke-dashoffset:0;stroke-opacity:1;color-rendering:auto;image-rendering:auto;shape-rendering:auto;text-rendering:auto;enable-background:accumulate"
         inkscape:connector-curvature="0" />
      <path
         sodipodi:nodetypes="cccscsccsssscscsccsccc"
         inkscape:connector-curvature="0"
         id="rect4217"
         d="m 578.50156,795.11564 c 6.89681,-6.8831 6.89155,-17.9674 -0.004,-24.8506 l -54.48665,-54.37847 55.19683,-55.08695 c 6.39381,-6.38108 6.38859,-16.65685 -0.004,-23.03794 l -16.7897,-16.75628 c -6.39381,-6.38107 -16.69013,-6.38632 -23.08394,-0.004 l -55.19676,55.08699 -54.8993,-54.79003 c -6.89682,-6.88303 -17.99809,-6.88306 -24.89493,0 l -15.18749,15.15728 c -6.89681,6.88307 -6.89679,17.96228 0,24.84535 l 54.89932,54.79003 -55.26466,55.15462 c -6.39381,6.3811 -6.38857,16.6568 0.004,23.0379 l 16.7897,17.0417 c 6.33962,6.4347 16.6901,6.3862 23.08391,0 l 55.26484,-55.43982 54.70144,55.09182 c 6.86533,6.9144 18.00333,6.8883 24.90013,0 l 14.9731,-15.8705 z"
         style="opacity:1;fill:#d9463a;fill-opacity:1;stroke:none;stroke-width:0;stroke-linecap:square;stroke-linejoin:round;stroke-miterlimit:4;stroke-dasharray:none;stroke-opacity:1" />
    </g>
  </g>
</svg>
