<?xml version="1.0" encoding="UTF-8" standalone="no"?>
<!-- Created with Inkscape (http://www.inkscape.org/) -->

<svg
   xmlns:dc="http://purl.org/dc/elements/1.1/"
   xmlns:cc="http://creativecommons.org/ns#"
   xmlns:rdf="http://www.w3.org/1999/02/22-rdf-syntax-ns#"
   xmlns:svg="http://www.w3.org/2000/svg"
   xmlns="http://www.w3.org/2000/svg"
   xmlns:xlink="http://www.w3.org/1999/xlink"
   xmlns:sodipodi="http://sodipodi.sourceforge.net/DTD/sodipodi-0.dtd"
   xmlns:inkscape="http://www.inkscape.org/namespaces/inkscape"
   width="210mm"
   height="297mm"
   viewBox="0 0 744.09448819 1052.3622047"
   id="svg2"
   version="1.1"
   inkscape:version="0.91 r13725"
   inkscape:export-xdpi="4.9499998"
   inkscape:export-ydpi="4.9499998"
   sodipodi:docname="waffle-ice-cream.svg"
   inkscape:export-filename="D:\Dokumente\Arbeit\RRZE\github\bicons\22x22\emblems\waffle-ice-cream.png">
  <title
     id="title4158">waffle ice cream</title>
  <defs
     id="defs4">
    <linearGradient
       inkscape:collect="always"
       id="linearGradient4199">
      <stop
         style="stop-color:#4e505d;stop-opacity:1;"
         offset="0"
         id="stop4201" />
      <stop
         style="stop-color:#7a859c;stop-opacity:1"
         offset="1"
         id="stop4203" />
    </linearGradient>
    <linearGradient
       id="linearGradient2224">
      <stop
         id="stop2226"
         offset="0"
         style="stop-color:#7c7c7c;stop-opacity:1;" />
      <stop
         id="stop2228"
         offset="1"
         style="stop-color:#b8b8b8;stop-opacity:1;" />
    </linearGradient>
    <linearGradient
       id="linearGradient15218">
      <stop
         id="stop15220"
         offset="0"
         style="stop-color:#eeeeef;stop-opacity:1;" />
      <stop
         id="stop2736"
         offset="0.59928656"
         style="stop-color:#d3d7cf;stop-opacity:1;" />
      <stop
         id="stop2738"
         offset="0.82758623"
         style="stop-color:#ffffff;stop-opacity:1;" />
      <stop
         id="stop15222"
         offset="1"
         style="stop-color:#d3d7cf;stop-opacity:1;" />
    </linearGradient>
    <pattern
       y="0"
       x="0"
       height="6"
       width="6"
       patternUnits="userSpaceOnUse"
       id="EMFhbasepattern" />
    <pattern
       y="0"
       x="0"
       height="6"
       width="6"
       patternUnits="userSpaceOnUse"
       id="EMFhbasepattern-5" />
    <linearGradient
       inkscape:collect="always"
       xlink:href="#linearGradient4199"
       id="linearGradient4205"
       x1="357"
       y1="697.36218"
       x2="400"
       y2="473.36221"
       gradientUnits="userSpaceOnUse" />
  </defs>
  <sodipodi:namedview
     id="base"
     pagecolor="#ffffff"
     bordercolor="#666666"
     borderopacity="1.0"
     inkscape:pageopacity="0.0"
     inkscape:pageshadow="2"
     inkscape:zoom="1"
     inkscape:cx="274.4748"
     inkscape:cy="460.12164"
     inkscape:document-units="px"
     inkscape:current-layer="layer1"
     showgrid="false"
     showguides="true"
     inkscape:guide-bbox="true"
     inkscape:window-width="1600"
     inkscape:window-height="837"
     inkscape:window-x="-4"
     inkscape:window-y="-4"
     inkscape:window-maximized="1"
     inkscape:snap-bbox="true"
     inkscape:bbox-nodes="true">
    <sodipodi:guide
       position="560,730.00002"
       orientation="0,1"
       id="guide3338" />
    <sodipodi:guide
       position="560,330.00001"
       orientation="0,1"
       id="guide3340" />
    <sodipodi:guide
       position="190,475.00001"
       orientation="1,0"
       id="guide3344" />
    <sodipodi:guide
       position="590,451.00001"
       orientation="1,0"
       id="guide3346" />
    <inkscape:grid
       type="xygrid"
       id="grid3440" />
    <sodipodi:guide
       position="-111.01577,704.98548"
       orientation="0,1"
       id="guide4151" />
    <sodipodi:guide
       position="54.25,355.00001"
       orientation="0,1"
       id="guide4153" />
    <sodipodi:guide
       position="215,442.00001"
       orientation="1,0"
       id="guide4155" />
    <sodipodi:guide
       position="564.97832,467.39759"
       orientation="1,0"
       id="guide4157" />
  </sodipodi:namedview>
  <metadata
     id="metadata7">
    <rdf:RDF>
      <cc:Work
         rdf:about="">
        <dc:format>image/svg+xml</dc:format>
        <dc:type
           rdf:resource="http://purl.org/dc/dcmitype/StillImage" />
        <dc:title>waffle ice cream</dc:title>
        <dc:date>June 2015</dc:date>
        <dc:creator>
          <cc:Agent>
            <dc:title>Johannes Hechler</dc:title>
          </cc:Agent>
        </dc:creator>
        <dc:rights>
          <cc:Agent>
            <dc:title>Johannes Hechler</dc:title>
          </cc:Agent>
        </dc:rights>
        <dc:publisher>
          <cc:Agent>
            <dc:title>RRZE</dc:title>
          </cc:Agent>
        </dc:publisher>
        <dc:contributor>
          <cc:Agent>
            <dc:title>Ute Weber, Hendrik Eggers</dc:title>
          </cc:Agent>
        </dc:contributor>
      </cc:Work>
    </rdf:RDF>
  </metadata>
  <g
     inkscape:label="Ebene 1"
     inkscape:groupmode="layer"
     id="layer1">
    <g
       id="g4207">
      <rect
         y="322.36221"
         x="190"
         height="400"
         width="400"
         id="rect4160"
         style="opacity:1;fill:none;fill-opacity:1;stroke:none;stroke-width:23;stroke-linecap:butt;stroke-linejoin:round;stroke-miterlimit:4;stroke-dasharray:none;stroke-opacity:1" />
      <path
         sodipodi:nodetypes="ccccccc"
         inkscape:connector-curvature="0"
         id="path4153"
         d="m 309.54084,468.24899 c -7.13547,0.003 -12.17314,6.7606 -9.91853,13.30599 l 80.43765,233.31034 c 3.18329,9.2078 16.65386,9.2078 19.83715,0 l 80.43766,-233.31034 c 2.25459,-6.54539 -2.78309,-13.30361 -9.91854,-13.30599 z"
         style="color:#252525;font-style:normal;font-variant:normal;font-weight:normal;font-stretch:normal;font-size:medium;line-height:normal;font-family:sans-serif;text-indent:0;text-align:start;text-decoration:none;text-decoration-line:none;text-decoration-style:solid;text-decoration-color:#252525;letter-spacing:normal;word-spacing:normal;text-transform:none;direction:ltr;block-progression:tb;writing-mode:lr-tb;baseline-shift:baseline;text-anchor:start;white-space:normal;clip-rule:nonzero;display:inline;overflow:visible;visibility:visible;opacity:1;isolation:auto;mix-blend-mode:normal;color-interpolation:sRGB;color-interpolation-filters:linearRGB;solid-color:#252525;solid-opacity:1;fill:url(#linearGradient4205);fill-opacity:1;fill-rule:evenodd;stroke:none;stroke-width:3.9000001;stroke-linecap:butt;stroke-linejoin:round;stroke-miterlimit:4;stroke-dasharray:none;stroke-dashoffset:0;stroke-opacity:1;color-rendering:auto;image-rendering:auto;shape-rendering:auto;text-rendering:auto;enable-background:accumulate" />
      <path
         id="path4274"
         d="m 389.75634,323.29344 a 54.800774,54.800774 0 0 0 -51.58008,36.49023 c 16.05667,0.34817 30.92809,5.88143 42.94922,14.96094 a 18.0018,18.0018 0 0 1 2.38867,-2.09571 c 12.3727,-8.95313 27.25513,-13.79036 42.52735,-13.82226 a 18.0018,18.0018 0 0 1 0.0371,0 c 5.32651,0 10.52021,0.59783 15.53125,1.70117 a 54.800774,54.800774 0 0 0 -51.85351,-37.23437 z m 36.33985,71.53515 c -2.02186,0.005 -4.02356,0.19557 -5.99805,0.52735 3.26991,7.15137 5.64534,14.79703 6.95703,22.77929 a 54.800774,54.800774 0 0 0 13.76367,-20.29883 c -4.49439,-1.93149 -9.46682,-3.00525 -14.72265,-3.00781 z m -88.14063,0.94727 a 54.800774,54.800774 0 0 0 16.33008,23.94336 c 0.12987,-0.78005 0.25284,-1.56192 0.4082,-2.33789 a 18.0018,18.0018 0 0 1 7.89844,-11.57227 c -6.40303,-5.95038 -14.9944,-9.70284 -24.63672,-10.0332 z"
         style="opacity:1;fill:#99b000;fill-opacity:1;stroke:none;stroke-width:50;stroke-linejoin:miter;stroke-miterlimit:4;stroke-dasharray:none;stroke-opacity:1"
         inkscape:connector-curvature="0" />
      <path
         sodipodi:nodetypes="cccccccsc"
         inkscape:connector-curvature="0"
         id="path4276"
         d="m 344.34311,378.80136 c -30.74353,1.3e-4 -47.53429,27.71722 -47.53429,51.26525 0.0238,9.66486 -3.36675,11.727 1.58335,20.07343 5.2097,-5.90012 2.8303,0.11402 11.14152,0.11043 l 0.008,0 79.64258,0 c 1.99804,-5.69786 3.02749,-11.6812 3.04687,-17.70899 0,-30.26554 -17.1443,-53.73998 -47.88784,-53.74012 z"
         style="opacity:1;fill:#99b000;fill-opacity:1;stroke:none;stroke-width:50;stroke-linejoin:miter;stroke-miterlimit:4;stroke-dasharray:none;stroke-opacity:1" />
      <path
         id="circle4278"
         d="m 426.07861,376.82664 a 54.800774,54.800774 0 0 0 -32.01172,10.4043 c 10.08416,12.44422 16.16406,28.1909 16.16406,45.3125 0,6.10675 -0.77806,12.03744 -2.23047,17.70703 l 62.41602,0 a 18.0018,18.0018 0 0 1 0.006,0 c 2.356,7.8e-4 4.64855,0.31512 6.84375,0.89648 a 54.800774,54.800774 0 0 0 3.61328,-19.51953 54.800774,54.800774 0 0 0 -54.80078,-54.80078 z m -53.73438,44.08789 a 54.800774,54.800774 0 0 0 -1.0664,10.71289 54.800774,54.800774 0 0 0 1.33593,11.7207 c 1.0505,-3.41484 1.61719,-7.04097 1.61719,-10.80468 0,-4.06847 -0.66627,-7.97553 -1.88672,-11.62891 z m 50.25,65.33594 a 54.800774,54.800774 0 0 0 3.48438,0.17773 54.800774,54.800774 0 0 0 3.55664,-0.17773 l -7.04102,0 z"
         style="opacity:1;fill:#99b000;fill-opacity:1;stroke:none;stroke-width:50;stroke-linejoin:miter;stroke-miterlimit:4;stroke-dasharray:none;stroke-opacity:1"
         inkscape:connector-curvature="0" />
    </g>
  </g>
</svg>
