<?xml version="1.0" encoding="UTF-8" standalone="no"?>
<!-- Created with Inkscape (http://www.inkscape.org/) -->

<svg
   xmlns:dc="http://purl.org/dc/elements/1.1/"
   xmlns:cc="http://creativecommons.org/ns#"
   xmlns:rdf="http://www.w3.org/1999/02/22-rdf-syntax-ns#"
   xmlns:svg="http://www.w3.org/2000/svg"
   xmlns="http://www.w3.org/2000/svg"
   xmlns:xlink="http://www.w3.org/1999/xlink"
   xmlns:sodipodi="http://sodipodi.sourceforge.net/DTD/sodipodi-0.dtd"
   xmlns:inkscape="http://www.inkscape.org/namespaces/inkscape"
   width="210mm"
   height="297mm"
   viewBox="0 0 744.09448819 1052.3622047"
   id="svg2"
   version="1.1"
   inkscape:version="0.91 r13725"
   inkscape:export-xdpi="4.9499998"
   inkscape:export-ydpi="4.9499998"
   sodipodi:docname="webview.svg"
   inkscape:export-filename="D:\Dokumente\Arbeit\RRZE\github\bicons\22x22\emblems\webview.png">
  <defs
     id="defs4">
    <linearGradient
       id="linearGradient2224">
      <stop
         id="stop2226"
         offset="0"
         style="stop-color:#7c7c7c;stop-opacity:1;" />
      <stop
         id="stop2228"
         offset="1"
         style="stop-color:#b8b8b8;stop-opacity:1;" />
    </linearGradient>
    <linearGradient
       id="linearGradient15218">
      <stop
         id="stop15220"
         offset="0"
         style="stop-color:#eeeeef;stop-opacity:1;" />
      <stop
         id="stop2736"
         offset="0.59928656"
         style="stop-color:#d3d7cf;stop-opacity:1;" />
      <stop
         id="stop2738"
         offset="0.82758623"
         style="stop-color:#ffffff;stop-opacity:1;" />
      <stop
         id="stop15222"
         offset="1"
         style="stop-color:#d3d7cf;stop-opacity:1;" />
    </linearGradient>
    <pattern
       y="0"
       x="0"
       height="6"
       width="6"
       patternUnits="userSpaceOnUse"
       id="EMFhbasepattern" />
    <pattern
       y="0"
       x="0"
       height="6"
       width="6"
       patternUnits="userSpaceOnUse"
       id="EMFhbasepattern-5" />
    <linearGradient
       inkscape:collect="always"
       xlink:href="#linearGradient4321"
       id="linearGradient4169"
       x1="189.10713"
       y1="722.18365"
       x2="589.04523"
       y2="374.95392"
       gradientUnits="userSpaceOnUse"
       gradientTransform="matrix(0.91074995,0,0,0.91125,-9.91192,16.861675)" />
    <linearGradient
       id="linearGradient4321"
       inkscape:collect="always">
      <stop
         id="stop4323"
         offset="0"
         style="stop-color:#4e505d;stop-opacity:1;" />
      <stop
         id="stop4325"
         offset="1"
         style="stop-color:#7a8597;stop-opacity:1" />
    </linearGradient>
  </defs>
  <sodipodi:namedview
     id="base"
     pagecolor="#ffffff"
     bordercolor="#666666"
     borderopacity="1.0"
     inkscape:pageopacity="0.0"
     inkscape:pageshadow="2"
     inkscape:zoom="1"
     inkscape:cx="190.24588"
     inkscape:cy="564.26417"
     inkscape:document-units="px"
     inkscape:current-layer="layer1"
     showgrid="false"
     showguides="true"
     inkscape:guide-bbox="true"
     inkscape:window-width="1600"
     inkscape:window-height="837"
     inkscape:window-x="-4"
     inkscape:window-y="-4"
     inkscape:window-maximized="1"
     inkscape:snap-bbox="true"
     inkscape:bbox-paths="true"
     inkscape:bbox-nodes="true"
     inkscape:snap-nodes="false">
    <sodipodi:guide
       position="315.53572,730.17859"
       orientation="0,1"
       id="guide3338" />
    <sodipodi:guide
       position="351.25,330.17858"
       orientation="0,1"
       id="guide3340" />
    <sodipodi:guide
       position="189.10714,408.8393"
       orientation="1,0"
       id="guide3344" />
    <sodipodi:guide
       position="589.04521,468.07945"
       orientation="1,0"
       id="guide3346" />
    <inkscape:grid
       type="xygrid"
       id="grid3440" />
    <sodipodi:guide
       position="589.04521,378.30213"
       orientation="1,0"
       id="guide3411" />
  </sodipodi:namedview>
  <metadata
     id="metadata7">
    <rdf:RDF>
      <cc:Work
         rdf:about="">
        <dc:format>image/svg+xml</dc:format>
        <dc:type
           rdf:resource="http://purl.org/dc/dcmitype/StillImage" />
        <dc:title>webview</dc:title>
        <dc:date>June 2015</dc:date>
        <dc:creator>
          <cc:Agent>
            <dc:title>Johannes Hechler</dc:title>
          </cc:Agent>
        </dc:creator>
        <dc:rights>
          <cc:Agent>
            <dc:title>Johannes Hechler</dc:title>
          </cc:Agent>
        </dc:rights>
        <dc:publisher>
          <cc:Agent>
            <dc:title>RRZE</dc:title>
          </cc:Agent>
        </dc:publisher>
        <dc:contributor>
          <cc:Agent>
            <dc:title>Ute Weber, Hendrik Eggers</dc:title>
          </cc:Agent>
        </dc:contributor>
      </cc:Work>
    </rdf:RDF>
  </metadata>
  <g
     inkscape:label="Ebene 1"
     inkscape:groupmode="layer"
     id="layer1">
    <g
       id="g4212"
       transform="translate(45.045205,29.821417)">
      <flowRoot
         style="font-style:normal;font-weight:normal;font-size:40px;line-height:125%;font-family:sans-serif;letter-spacing:0px;word-spacing:0px;fill:#252525;fill-opacity:1;stroke:none;stroke-width:1px;stroke-linecap:butt;stroke-linejoin:miter;stroke-opacity:1"
         id="flowRoot4169"
         xml:space="preserve"
         transform="translate(-45.14484,-29.907815)"><flowRegion
           id="flowRegion4171"><rect
             y="427.07962"
             x="89.541069"
             height="88.78862"
             width="56.433445"
             id="rect4173" /></flowRegion><flowPara
           id="flowPara4175" /></flowRoot>      <rect
         inkscape:export-ydpi="4.9499998"
         inkscape:export-xdpi="4.9499998"
         y="292.36221"
         x="144"
         height="400"
         width="400"
         id="rect3336"
         style="fill:none;fill-rule:evenodd;stroke:none;stroke-width:1px;stroke-linecap:butt;stroke-linejoin:miter;stroke-opacity:1" />
      <path
         id="path5"
         d="m 344.16454,310.40501 c -24.70976,0 -48.19117,4.87478 -70.7461,14.55664 -44.80256,19.22718 -77.8035,51.8091 -97.05468,96.70898 -9.64674,22.49467 -14.34961,46.06189 -14.34961,70.78516 0,24.72817 4.70287,48.48896 14.34961,70.98828 11.27337,26.29315 27.26782,48.42224 47.58007,66.11523 -0.38078,-0.46294 -0.82047,-0.99456 -1.01562,-1.23828 -0.002,-0.003 -0.001,-9e-4 -0.004,-0.004 -0.002,-0.002 -0.002,-0.002 -0.004,-0.004 -0.0344,-0.0364 -0.0742,-0.0781 -0.0742,-0.0781 a 18.0018,18.0018 0 0 1 -0.0977,-0.11133 c 0.0943,0.1047 0.12079,0.1325 0.14453,0.1582 -0.0234,-0.028 -0.0513,-0.0626 -0.0605,-0.0742 -0.11924,-0.13211 -0.20476,-0.21749 -0.34375,-0.3789 a 18.0018,18.0018 0 0 1 -1.43555,-1.82017 c 0.34747,0.50929 0.33031,0.4727 -0.01,-0.004 a 18.0018,18.0018 0 0 1 -0.44531,-0.6543 l 0.49218,0.71484 c -0.0172,-0.0237 -0.0203,-0.0332 -0.0371,-0.0566 -0.47848,-0.66476 -0.81367,-1.1947 -1.06445,-1.59961 a 18.0018,18.0018 0 0 1 -0.63086,-1.0625 c -0.0874,-0.16154 -0.28417,-0.53835 -0.53711,-1.07031 -0.0997,-0.197 -0.14702,-0.2769 -0.36914,-0.75781 -0.33229,-0.71993 -0.59463,-1.36799 -0.80078,-1.92188 a 18.0018,18.0018 0 0 1 -0.34375,-1.03515 c -0.005,-0.0151 -0.009,-0.0356 -0.0137,-0.0508 l 0.01,0.043 a 18.0018,18.0018 0 0 1 -0.21094,-0.74609 c -0.26992,-0.92057 -0.53646,-1.95223 -0.72851,-3.22461 0.24549,1.62074 0.17171,1.28945 -0.0762,-0.39844 -0.14232,-0.97023 -0.19221,-1.71738 -0.22071,-2.20507 a 18.0018,18.0018 0 0 1 -0.01,-0.16993 l -0.0117,-0.2539 a 18.0018,18.0018 0 0 1 -0.0195,-0.64844 c -0.006,-0.43159 -0.016,-1.13254 0.041,-2.10937 l -0.0215,0.73242 a 18.0018,18.0018 0 0 1 0.1211,-1.69141 c 0.005,-0.0537 0.0105,-0.0829 0.0156,-0.13476 l -0.0137,0.10742 a 18.0018,18.0018 0 0 1 0.0859,-0.80469 c -0.005,0.0316 0.0255,-0.16079 0.0312,-0.20117 0.0559,-0.42005 0.10735,-0.75076 0.13086,-0.88867 a 18.0018,18.0018 0 0 1 0.17968,-0.83594 c 0.29372,-1.4381 0.70118,-2.85103 1.22852,-4.2207 a 18.0018,18.0018 0 0 1 0.0781,-0.19532 c 0.15066,-0.37805 0.46735,-1.20289 1.07812,-2.36328 l -0.20898,0.40821 0.0781,-0.15626 a 18.0018,18.0018 0 0 1 0.11719,-0.23242 c 0.34402,-0.67155 0.78017,-1.42715 1.27734,-2.20312 0.0882,-0.13967 0.183,-0.27712 0.27344,-0.41602 -7.50336,-8.9114 -13.98072,-18.74163 -19.24414,-29.46094 l 47.59375,0 c 6.60633,-5.73142 14.39863,-11.87648 23.31055,-17.93359 l -5.33789,0 c -2.59319,-17.74759 -3.98828,-40.29938 -3.98828,-55.85156 0,-16.74757 1.39525,-37.50048 4.38867,-54.24805 l 65.76367,0 0,80.80078 c 7.20132,-2.15315 14.71049,-3.96139 22.51953,-5.33008 l 0,-75.4707 65.76367,0 c 2.9928,16.74757 4.38868,37.50048 4.38868,54.24805 0,6.30831 -0.24166,13.7839 -0.6875,21.60742 7.60015,1.44144 14.90767,3.30036 21.91992,5.48047 0.59648,-9.59136 0.88867,-19.08334 0.88867,-27.08789 0,-16.54731 -1.19585,-37.3002 -3.78906,-54.24805 l 52.21484,0 c 5.38231,16.15166 8.16992,36.90033 8.16992,54.24805 -5.2e-4,15.26447 -2.10681,35.21196 -6.30859,50.82812 6.21132,3.89336 11.95011,7.88461 17.20898,11.84375 7.46443,-20.05447 11.22071,-40.96272 11.22071,-62.67187 0,-24.72327 -4.8723,-48.21431 -14.54883,-70.78516 -19.21725,-44.82781 -51.87363,-77.43054 -97.05078,-96.70898 -22.57997,-9.63537 -46.03548,-14.55664 -70.75,-14.55664 z m -11.16016,23.92773 0,85.94336 -61.17969,0 c 6.17746,-22.73287 14.59562,-41.84196 25.50977,-57.22851 11.00706,-15.52238 22.71529,-25.12446 35.66992,-28.71485 z m 22.51953,0 c 12.95465,3.59039 24.66422,13.19247 35.67188,28.71485 10.91773,15.38655 19.33232,34.49564 25.50976,57.22851 l -61.18164,0 0,-85.94336 z m -71.94531,9.97266 c -15.74378,19.93811 -27.29941,45.26002 -34.67578,75.96875 l -47.62891,0 c 17.5371,-34.09888 47.03395,-61.41593 82.30469,-75.96875 z m 121.37109,0 c 35.27553,14.55224 64.76897,41.87136 82.30665,75.9707 l -47.63086,0 c -7.37221,-30.70919 -18.932,-56.03317 -34.67579,-75.9707 z m -212.64257,93.90234 52.21289,0 c -2.5896,16.94718 -3.78711,37.70074 -3.78711,54.24805 0,16.35193 1.19809,38.90417 3.78711,55.85156 l -52.61328,0 c -5.18222,-16.15232 -7.77149,-38.89948 -7.77149,-55.85156 0,-17.34705 2.78951,-38.09573 8.17188,-54.24805 z m 175.18554,110.09961 c -9.42421,1.41678 -18.42198,3.68503 -26.96679,6.51758 a 18.0018,18.0018 0 0 1 -1.89844,21.01562 c -2.12461,2.43206 -3.99767,4.98569 -5.62305,7.63477 l 0,53.78516 c 1.67187,2.7239 3.60913,5.3466 5.8086,7.8398 a 18.0018,18.0018 0 0 1 1.9707,21.0625 c 9.32144,3.0767 19.17869,5.4822 29.53711,6.8379 15.2908,-2.2479 30.1232,-6.4765 44.59375,-12.6484 6.72579,-2.8701 13.16822,-6.047 19.33594,-9.5117 a 18.0018,18.0018 0 0 1 3.25586,-5.2168 c 8.67402,-9.59683 13.42347,-21.17563 13.94335,-33.13869 -13.58387,11.79943 -29.30704,21.35646 -46.5,28.52539 14.25069,-17.87014 25.06118,-39.0228 32.45313,-66.08594 a 18.0018,18.0018 0 0 1 -1.75586,-20.67578 c -8.00492,-2.56287 -16.40027,-4.62123 -25.16211,-5.94141 l -42.99219,0 z m -11.96875,17.93359 61.18164,0 c -5.97732,22.93261 -14.4601,40.19291 -25.31054,55.82618 -10.87544,15.67137 -22.71693,25.32396 -35.8711,28.91016 l 0,-84.73634 z m -138.7207,37.92774 -0.1582,0.69141 a 18.0018,18.0018 0 0 1 0.0957,-0.44922 l 0.0625,-0.24219 z m 71.44141,4.14453 c -0.79653,0.71439 -1.56873,1.42128 -2.36524,2.13867 1.18711,1.06927 2.27837,2.10091 3.56055,3.19727 -0.0435,-1.103 -0.15549,-2.19735 -0.15625,-3.30469 a 18.0018,18.0018 0 0 1 0,-0.043 c 8e-5,-0.0484 0.005,-0.0962 0.006,-0.14453 -0.35346,-0.60858 -0.69837,-1.22773 -1.04492,-1.84375 z m -49.46094,5.63086 c -0.68998,0.55385 -2.66016,2.13476 -2.66016,2.13477 0,0 2.33625,-1.16838 3.26172,-1.63086 -0.2008,-0.16775 -0.40165,-0.33521 -0.60156,-0.50391 z m -17.19727,12.71875 c -2e-5,0 -0.0137,0.0117 -0.0137,0.0117 l 0.51367,0.67187 c -8e-5,-1e-4 0.15334,0.18381 0.27344,0.32813 a 18.0018,18.0018 0 0 1 -0.77344,-1.00977 l 0,-0.002 z"
         style="fill:url(#linearGradient4169);fill-opacity:1"
         inkscape:connector-curvature="0" />
      <ellipse
         ry="29.996243"
         rx="32.868221"
         cy="569.87701"
         cx="416.32608"
         id="path4179"
         style="color:#000000;clip-rule:nonzero;display:inline;overflow:visible;visibility:visible;opacity:1;isolation:auto;mix-blend-mode:normal;color-interpolation:sRGB;color-interpolation-filters:linearRGB;solid-color:#000000;solid-opacity:1;fill:#ffffff;fill-opacity:1;fill-rule:nonzero;stroke:none;stroke-width:3;stroke-linecap:square;stroke-linejoin:round;stroke-miterlimit:4;stroke-dasharray:none;stroke-dashoffset:0;stroke-opacity:1;color-rendering:auto;image-rendering:auto;shape-rendering:auto;text-rendering:auto;enable-background:accumulate" />
      <path
         id="path4190"
         d="m 388.93424,528.66959 -0.0143,0.0142 c -91.30287,0 -150.81086,73.71975 -152.40933,75.71864 l -0.0937,0.11155 c -0.0161,0.0157 -0.48685,0.52728 -0.48685,0.52728 -0.18403,0.23925 -0.35545,0.48753 -0.51437,0.74409 -0.15739,0.24074 -0.298,0.48745 -0.42862,0.74243 l -0.0775,0.15685 c -0.11016,0.20927 -0.19973,0.42492 -0.28629,0.64214 -0.17148,0.44538 -0.3051,0.90417 -0.39952,1.37158 l -0.0631,0.24264 c -0.0314,0.18418 -0.062,0.37068 -0.0775,0.55643 -0.0161,0.0944 -0.0311,0.20008 -0.0469,0.30079 l 0,0.0472 c -0.0161,0.27544 -0.0161,0.55279 -0.0125,0.82815 l 0.0125,0.25556 c 0.0125,0.21408 0.03,0.42815 0.0615,0.64214 0.0161,0.11015 0.0474,0.21159 0.0631,0.31544 0.0629,0.42178 0.17023,0.83784 0.30086,1.24379 l 0.0161,0.0938 0.0125,0.0306 c 0.0945,0.25648 0.19733,0.50989 0.31379,0.75693 0.0629,0.14153 0.14259,0.28861 0.21512,0.42865 0.0472,0.11014 0.11015,0.22956 0.17147,0.34293 l 0.0306,0.0472 c 0.14153,0.22973 0.28582,0.45408 0.44318,0.67122 l 0.0306,0.0472 c 0.0786,0.11014 0.15721,0.21159 0.22806,0.31544 0,0 0.19899,0.21035 0.20056,0.2135 0.0945,0.11014 0.19696,0.22128 0.29924,0.32836 1.35971,1.70324 61.00385,75.81886 152.49504,75.81886 91.30297,0 150.81066,-73.71977 152.40931,-75.71858 l 0.0325,-0.0306 0.0775,-0.0795 c 0.0161,-0.0157 0.48688,-0.52894 0.48688,-0.52894 0.18422,-0.23925 0.35537,-0.48587 0.51435,-0.74243 0.14152,-0.22658 0.28663,-0.46111 0.41407,-0.70036 l 0.0306,-0.0629 0.0631,-0.14078 c 0.11015,-0.21085 0.19975,-0.42501 0.28629,-0.64215 0.17146,-0.44545 0.30509,-0.90425 0.39951,-1.37165 l 0.0631,-0.24256 c 0.0314,-0.18427 0.0636,-0.37076 0.0793,-0.55643 0.0161,-0.0945 0.031,-0.20008 0.0469,-0.30087 l 0,-0.0472 c 0.0161,-0.27064 0.0161,-0.54285 0.0125,-0.81357 l 0,-0.0629 -0.0125,-0.2135 c -0.0125,-0.21407 -0.0316,-0.42815 -0.0631,-0.64214 -0.0161,-0.11014 -0.0474,-0.21151 -0.0631,-0.31544 -0.0629,-0.42169 -0.16862,-0.83775 -0.29923,-1.24379 l -0.0161,-0.0779 -0.0161,-0.0472 c -0.0945,-0.25648 -0.19733,-0.50989 -0.31379,-0.75701 l -0.0161,-0.0489 c -0.11015,-0.24861 -0.23668,-0.49018 -0.37201,-0.72777 l -0.0306,-0.0472 c -0.14152,-0.22981 -0.28419,-0.45415 -0.44158,-0.67129 l -0.0325,-0.0472 c -0.0786,-0.11015 -0.15722,-0.21151 -0.22806,-0.31536 0,0 -0.19737,-0.21043 -0.19896,-0.21358 -0.0945,-0.11014 -0.19859,-0.22128 -0.30085,-0.32836 -1.35964,-1.70316 -61.00366,-75.8188 -152.49497,-75.8188 z m 62.22569,34.65915 c 26.15557,10.64787 45.42158,26.32423 58.09467,38.47477 4.82012,4.72564 5.58022,11.42549 0,17.29554 -12.72092,12.19642 -32.0874,27.94303 -58.3939,38.59283 a 81.10988,74.32379 0 0 0 18.64296,-47.36114 81.10988,74.32379 0 0 0 -18.34373,-47.002 z m -126.08823,0.66964 a 81.10988,74.32379 0 0 0 -17.78892,46.33236 81.10988,74.32379 0 0 0 18.03155,46.67694 c -25.46016,-10.632 -44.27846,-25.97092 -56.72953,-37.90863 -6.42662,-7.16278 -6.05711,-10.83593 0,-17.29554 12.41123,-11.89953 31.15066,-27.17714 56.4869,-37.80513 z"
         style="color:#000000;clip-rule:nonzero;display:inline;overflow:visible;visibility:visible;opacity:1;isolation:auto;mix-blend-mode:normal;color-interpolation:sRGB;color-interpolation-filters:linearRGB;solid-color:#000000;solid-opacity:1;fill:#99b000;fill-opacity:1;fill-rule:nonzero;stroke:none;stroke-width:2.36500001;stroke-linecap:square;stroke-linejoin:round;stroke-miterlimit:4;stroke-dasharray:none;stroke-dashoffset:0;stroke-opacity:1;color-rendering:auto;image-rendering:auto;shape-rendering:auto;text-rendering:auto;enable-background:accumulate"
         inkscape:connector-curvature="0" />
      <path
         id="path4192"
         d="m 431.65009,558.5576 a 21.843149,22.247653 0 0 0 -15.91014,21.40631 21.843149,22.247653 0 0 0 21.84241,22.24737 21.843149,22.247653 0 0 0 21.84379,-22.24737 21.843149,22.247653 0 0 0 -4.90158,-14.02482 c -7.01466,-2.96708 -14.63399,-5.50934 -22.87448,-7.38149 z"
         style="color:#000000;clip-rule:nonzero;display:inline;overflow:visible;visibility:visible;opacity:1;isolation:auto;mix-blend-mode:normal;color-interpolation:sRGB;color-interpolation-filters:linearRGB;solid-color:#000000;solid-opacity:1;fill:#ffffff;fill-opacity:1;fill-rule:nonzero;stroke:none;stroke-width:2.36500001;stroke-linecap:square;stroke-linejoin:round;stroke-miterlimit:4;stroke-dasharray:none;stroke-dashoffset:0;stroke-opacity:1;color-rendering:auto;image-rendering:auto;shape-rendering:auto;text-rendering:auto;enable-background:accumulate"
         inkscape:connector-curvature="0" />
    </g>
  </g>
</svg>
