<?xml version="1.0" encoding="UTF-8" standalone="no"?>
<!-- Created with Inkscape (http://www.inkscape.org/) -->

<svg
   xmlns:dc="http://purl.org/dc/elements/1.1/"
   xmlns:cc="http://creativecommons.org/ns#"
   xmlns:rdf="http://www.w3.org/1999/02/22-rdf-syntax-ns#"
   xmlns:svg="http://www.w3.org/2000/svg"
   xmlns="http://www.w3.org/2000/svg"
   xmlns:xlink="http://www.w3.org/1999/xlink"
   xmlns:sodipodi="http://sodipodi.sourceforge.net/DTD/sodipodi-0.dtd"
   xmlns:inkscape="http://www.inkscape.org/namespaces/inkscape"
   width="210mm"
   height="297mm"
   viewBox="0 0 744.09448819 1052.3622047"
   id="svg2"
   version="1.1"
   inkscape:version="0.91 r13725"
   inkscape:export-xdpi="4.9499817"
   inkscape:export-ydpi="4.9499817"
   sodipodi:docname="zipper.svg"
   inkscape:export-filename="D:\Dokumente\Arbeit\RRZE\github\bicons\22x22\emblems\zipper.png">
  <title
     id="title4159">zipper</title>
  <defs
     id="defs4">
    <linearGradient
       id="linearGradient2224">
      <stop
         id="stop2226"
         offset="0"
         style="stop-color:#7c7c7c;stop-opacity:1;" />
      <stop
         id="stop2228"
         offset="1"
         style="stop-color:#b8b8b8;stop-opacity:1;" />
    </linearGradient>
    <linearGradient
       id="linearGradient15218">
      <stop
         id="stop15220"
         offset="0"
         style="stop-color:#eeeeef;stop-opacity:1;" />
      <stop
         id="stop2736"
         offset="0.59928656"
         style="stop-color:#d3d7cf;stop-opacity:1;" />
      <stop
         id="stop2738"
         offset="0.82758623"
         style="stop-color:#ffffff;stop-opacity:1;" />
      <stop
         id="stop15222"
         offset="1"
         style="stop-color:#d3d7cf;stop-opacity:1;" />
    </linearGradient>
    <pattern
       y="0"
       x="0"
       height="6"
       width="6"
       patternUnits="userSpaceOnUse"
       id="EMFhbasepattern" />
    <pattern
       y="0"
       x="0"
       height="6"
       width="6"
       patternUnits="userSpaceOnUse"
       id="EMFhbasepattern-5" />
    <linearGradient
       gradientTransform="translate(225.67755,166.46865)"
       inkscape:collect="always"
       xlink:href="#linearGradient4264"
       id="linearGradient4270"
       x1="109.08"
       y1="400"
       x2="236.34"
       y2="18.179979"
       gradientUnits="userSpaceOnUse" />
    <linearGradient
       inkscape:collect="always"
       id="linearGradient4264">
      <stop
         style="stop-color:#4e505d;stop-opacity:1;"
         offset="0"
         id="stop4266" />
      <stop
         style="stop-color:#7a859c;stop-opacity:1"
         offset="1"
         id="stop4268" />
    </linearGradient>
  </defs>
  <sodipodi:namedview
     id="base"
     pagecolor="#ffffff"
     bordercolor="#666666"
     borderopacity="1.0"
     inkscape:pageopacity="0.0"
     inkscape:pageshadow="2"
     inkscape:zoom="0.7071068"
     inkscape:cx="217.93383"
     inkscape:cy="414.01189"
     inkscape:document-units="px"
     inkscape:current-layer="layer1"
     showgrid="false"
     showguides="true"
     inkscape:guide-bbox="true"
     inkscape:window-width="1600"
     inkscape:window-height="837"
     inkscape:window-x="-4"
     inkscape:window-y="-4"
     inkscape:window-maximized="1"
     inkscape:snap-bbox="true"
     inkscape:bbox-nodes="true">
    <sodipodi:guide
       position="560,730.00002"
       orientation="0,1"
       id="guide3338" />
    <sodipodi:guide
       position="560,330.00001"
       orientation="0,1"
       id="guide3340" />
    <sodipodi:guide
       position="190,475.00001"
       orientation="1,0"
       id="guide3344" />
    <sodipodi:guide
       position="590,451.00001"
       orientation="1,0"
       id="guide3346" />
    <inkscape:grid
       type="xygrid"
       id="grid3440" />
  </sodipodi:namedview>
  <metadata
     id="metadata7">
    <rdf:RDF>
      <cc:Work
         rdf:about="">
        <dc:format>image/svg+xml</dc:format>
        <dc:type
           rdf:resource="http://purl.org/dc/dcmitype/StillImage" />
        <dc:title>zipper</dc:title>
        <dc:date>June 2015</dc:date>
        <dc:creator>
          <cc:Agent>
            <dc:title>Johannes Hechler</dc:title>
          </cc:Agent>
        </dc:creator>
        <dc:rights>
          <cc:Agent>
            <dc:title>Johannes Hechler</dc:title>
          </cc:Agent>
        </dc:rights>
        <dc:publisher>
          <cc:Agent>
            <dc:title>RRZE</dc:title>
          </cc:Agent>
        </dc:publisher>
        <dc:contributor>
          <cc:Agent>
            <dc:title>Ute Weber, Hendrik Eggers</dc:title>
          </cc:Agent>
        </dc:contributor>
      </cc:Work>
    </rdf:RDF>
  </metadata>
  <g
     inkscape:label="Ebene 1"
     inkscape:groupmode="layer"
     id="layer1">
    <g
       id="g4187"
       transform="translate(-35.679005,155.89354)">
      <path
         sodipodi:nodetypes="ssscsccsssccscssssssssssscsssssscsssccscsc"
         inkscape:connector-curvature="0"
         id="rect4254"
         d="m 407.47817,166.46865 c -50.35858,0 -90.90039,40.54181 -90.90039,90.90039 l 0,54.53906 c 0,29.94219 18.17961,54.54055 36.71985,54.54055 l 0.17969,-54.53907 c 0.0662,-20.10411 11.03329,-37.9207 27.46484,-47.26368 2.71355,-1.53454 5.7791,-2.33811 8.89649,-2.33203 l 0,-14.03515 c 0,-24.76786 20.50168,-45.26953 45.26953,-45.26953 24.76786,0 45.26953,20.50167 45.26953,45.26953 l 0,14.02734 c 3.11809,-0.004 6.18368,0.80257 8.89649,2.33984 16.43184,9.34357 27.52912,27.16112 27.46289,47.26368 l -0.17969,54.53907 c 18.18,0 36.36022,-24.59833 36.36022,-54.54055 l 0,-54.53906 c 0,-50.35858 -40.54181,-90.90039 -90.90039,-90.90039 z m 27.63001,54.54054 c -15.10758,0 -27.26953,12.16195 -27.26953,27.26953 l 0,72.72071 c 0,15.10758 12.16195,27.26953 27.26953,27.26953 15.10758,0 27.26953,-12.16195 27.26953,-27.26953 l 0,-72.72071 c 0,-15.10758 -12.16195,-27.26953 -27.26953,-27.26953 z m -45.26953,59.28321 c -10.98038,6.24344 -18.33889,18.0333 -18.36133,31.61718 l -0.36048,218.19969 c -0.0333,20.14341 16.21789,36.35938 36.36133,36.35938 l 54.53906,0 c 20.14344,0 36.3261,-16.21596 36.35938,-36.35938 l 0.36048,-218.19969 c 0.0224,-13.58362 -7.37934,-25.37365 -18.35938,-31.61718 l 0,40.70703 c 0,24.76823 -20.5013,45.26953 -45.26953,45.26953 -24.76823,0 -45.26953,-20.5013 -45.26953,-45.26953 z m 44.90905,214.16453 c 15.06061,2.6e-4 27.26952,12.21004 27.26953,27.27149 -2e-5,15.06144 -12.20892,27.27122 -27.26953,27.27148 -15.06061,-2.6e-4 -27.26951,-12.21004 -27.26953,-27.27148 1e-5,-15.06145 12.20892,-27.27123 27.26953,-27.27149 z"
         style="opacity:1;fill:url(#linearGradient4270);fill-opacity:1;stroke:none;stroke-width:36;stroke-linejoin:round;stroke-miterlimit:4;stroke-dasharray:none;stroke-dashoffset:67.5;stroke-opacity:1" />
      <rect
         ry="45.450001"
         y="166.46863"
         x="225.67754"
         height="400.00003"
         width="400.00146"
         id="rect4272"
         style="opacity:1;fill:none;fill-opacity:1;stroke:none;stroke-width:36;stroke-linejoin:round;stroke-miterlimit:4;stroke-dasharray:none;stroke-dashoffset:67.5;stroke-opacity:1" />
    </g>
  </g>
</svg>
