<?xml version="1.0" encoding="UTF-8" standalone="no"?>
<!-- Created with Inkscape (http://www.inkscape.org/) -->

<svg
   xmlns:dc="http://purl.org/dc/elements/1.1/"
   xmlns:cc="http://creativecommons.org/ns#"
   xmlns:rdf="http://www.w3.org/1999/02/22-rdf-syntax-ns#"
   xmlns:svg="http://www.w3.org/2000/svg"
   xmlns="http://www.w3.org/2000/svg"
   xmlns:xlink="http://www.w3.org/1999/xlink"
   xmlns:sodipodi="http://sodipodi.sourceforge.net/DTD/sodipodi-0.dtd"
   xmlns:inkscape="http://www.inkscape.org/namespaces/inkscape"
   width="210mm"
   height="297mm"
   viewBox="0 0 744.09448819 1052.3622047"
   id="svg2"
   version="1.1"
   inkscape:version="0.91 r13725"
   sodipodi:docname="audio-mp3.svg"
   inkscape:export-filename="C:\Users\johannes\Documents\Arbeit\RRZE\bi-con\bi-con\scalable\documents\document.png"
   inkscape:export-xdpi="4"
   inkscape:export-ydpi="4">
  <defs
     id="defs4">
    <linearGradient
       id="linearGradient2224">
      <stop
         id="stop2226"
         offset="0"
         style="stop-color:#7c7c7c;stop-opacity:1;" />
      <stop
         id="stop2228"
         offset="1"
         style="stop-color:#b8b8b8;stop-opacity:1;" />
    </linearGradient>
    <linearGradient
       id="linearGradient15218">
      <stop
         id="stop15220"
         offset="0"
         style="stop-color:#eeeeef;stop-opacity:1;" />
      <stop
         id="stop2736"
         offset="0.59928656"
         style="stop-color:#d3d7cf;stop-opacity:1;" />
      <stop
         id="stop2738"
         offset="0.82758623"
         style="stop-color:#ffffff;stop-opacity:1;" />
      <stop
         id="stop15222"
         offset="1"
         style="stop-color:#d3d7cf;stop-opacity:1;" />
    </linearGradient>
    <pattern
       y="0"
       x="0"
       height="6"
       width="6"
       patternUnits="userSpaceOnUse"
       id="EMFhbasepattern" />
    <pattern
       y="0"
       x="0"
       height="6"
       width="6"
       patternUnits="userSpaceOnUse"
       id="EMFhbasepattern-5" />
    <linearGradient
       inkscape:collect="always"
       xlink:href="#linearGradient4195"
       id="linearGradient4201"
       x1="286.38269"
       y1="672.9209"
       x2="532.51678"
       y2="367.74933"
       gradientUnits="userSpaceOnUse" />
    <linearGradient
       inkscape:collect="always"
       id="linearGradient4195">
      <stop
         style="stop-color:#5a6578;stop-opacity:1"
         offset="0"
         id="stop4197" />
      <stop
         style="stop-color:#9397a2;stop-opacity:1"
         offset="1"
         id="stop4199" />
    </linearGradient>
    <linearGradient
       inkscape:collect="always"
       xlink:href="#linearGradient4203"
       id="linearGradient4209"
       x1="463.0658"
       y1="396.17969"
       x2="494.89703"
       y2="375.89542"
       gradientUnits="userSpaceOnUse" />
    <linearGradient
       inkscape:collect="always"
       id="linearGradient4203">
      <stop
         style="stop-color:#abbe24;stop-opacity:1"
         offset="0"
         id="stop4205" />
      <stop
         style="stop-color:#c1d53a;stop-opacity:1"
         offset="1"
         id="stop4207" />
    </linearGradient>
  </defs>
  <sodipodi:namedview
     id="base"
     pagecolor="#ffffff"
     bordercolor="#666666"
     borderopacity="1.0"
     inkscape:pageopacity="0.0"
     inkscape:pageshadow="2"
     inkscape:zoom="1"
     inkscape:cx="283.4506"
     inkscape:cy="464.10534"
     inkscape:document-units="px"
     inkscape:current-layer="layer1"
     showgrid="false"
     showguides="true"
     inkscape:guide-bbox="true"
     inkscape:window-width="1366"
     inkscape:window-height="721"
     inkscape:window-x="-4"
     inkscape:window-y="-4"
     inkscape:window-maximized="1">
    <sodipodi:guide
       position="560,730.00002"
       orientation="0,1"
       id="guide3338" />
    <sodipodi:guide
       position="560,330.00001"
       orientation="0,1"
       id="guide3340" />
    <sodipodi:guide
       position="190,475.00001"
       orientation="1,0"
       id="guide3344" />
    <sodipodi:guide
       position="590,451.00001"
       orientation="1,0"
       id="guide3346" />
    <inkscape:grid
       type="xygrid"
       id="grid3440" />
  </sodipodi:namedview>
  <metadata
     id="metadata7">
    <rdf:RDF>
      <cc:Work
         rdf:about="">
        <dc:format>image/svg+xml</dc:format>
        <dc:type
           rdf:resource="http://purl.org/dc/dcmitype/StillImage" />
      </cc:Work>
    </rdf:RDF>
  </metadata>
  <g
     inkscape:label="Ebene 1"
     inkscape:groupmode="layer"
     id="layer1">
    <rect
       style="opacity:1;fill:none;fill-opacity:1;stroke:none;stroke-width:23;stroke-linecap:butt;stroke-linejoin:round;stroke-miterlimit:4;stroke-dasharray:none;stroke-opacity:1"
       id="rect4160"
       width="400"
       height="400"
       x="190"
       y="322.36221" />
    <g
       id="g4166"
       transform="matrix(1.1363532,0,0,1.1363532,-57.062627,-53.094451)">
      <path
         id="path4244"
         d="m 447.48828,330.40625 -177.46484,0.0176 c -10.02251,-0.0168 -15.02271,4.93817 -14.98047,14.8125 -0.0422,82.12567 -0.0423,222.12545 -0.0156,322.14453 -0.0267,9.98092 5.00353,15.04408 14.94141,14.97656 l 244.97852,0.0625 c 10.05222,-0.0575 15.05335,-5.05831 15.11914,-15.14258 l 0.002,-252.92748 c -2.95906,0.27834 -17.45254,1.59796 -33.73438,2.20508 -9.07799,0.33853 -18.50153,0.44677 -26.5996,-0.0449 -4.04906,-0.24584 -7.75945,-0.63106 -11.09571,-1.29297 -3.33626,-0.66191 -8.04105,-1.31058 -11.20338,-3.69726 -5.98809,-4.51936 -6.7257,-12.86713 -6.96093,-19.12135 -0.23524,-6.25423 0.4993,-13.19584 1.4375,-20.53516 1.87027,-14.63103 6.29652,-30.96857 5.57642,-41.45703 z m 15.56055,15.08789 c -0.81278,9.61368 -2.36661,19.48619 -3.50586,28.39844 -0.90241,7.05945 -1.4874,13.46178 -1.32031,17.9043 0.12115,3.22111 0.86807,4.84074 0.91796,5.23437 0.0963,-0.004 0.9317,0.39685 2.61329,0.73047 2.22524,0.44148 5.35567,0.79939 8.94921,1.01758 7.1871,0.43633 16.25284,0.35475 25.03321,0.0273 7.42948,-0.27703 14.08378,-0.73822 19.94726,-1.16016 -0.8622,-0.98808 -1.31151,-1.61756 -2.28906,-2.69921 -6.54279,-7.23956 -15.47295,-16.38454 -24.51953,-25.25782 -9.04658,-8.87328 -18.23646,-17.50325 -25.30078,-23.75195 -0.21571,-0.1908 -0.31359,-0.25699 -0.52539,-0.44336 z m -3.90821,51.53711 c -0.0172,7.9e-4 -0.0184,0.0112 0.0117,0.041 -4.1e-4,-0.007 -0.0107,-0.0329 -0.0117,-0.041 z m 63.53907,9.29883 c 0.1204,0.38201 0.22287,0.36322 0.0801,0.11523 -0.0115,-0.02 -0.067,-0.0931 -0.0801,-0.11523 z"
         style="fill:url(#linearGradient4201);fill-opacity:1;fill-rule:evenodd;stroke:none;stroke-width:1px;stroke-linecap:butt;stroke-linejoin:miter;stroke-opacity:1"
         inkscape:connector-curvature="0"
         sodipodi:nodetypes="ccccccccsssssscccsscssscssscccccccc" />
      <path
         style="fill:url(#linearGradient4209);fill-opacity:1;fill-rule:evenodd;stroke:none;stroke-width:1px;stroke-linecap:butt;stroke-linejoin:miter;stroke-opacity:1"
         d="M 454.99917,330.40486 C 459,329.3622 530.027,397.83562 530.027,405.18835 c 0,0 -66.38967,6.47029 -76.47721,-1.14302 -10.08754,-7.61331 3.18777,-49.16298 1.44938,-73.64047 z"
         id="path4288"
         inkscape:connector-curvature="0"
         sodipodi:nodetypes="cczc"
         inkscape:export-xdpi="4.9499998"
         inkscape:export-ydpi="4.9499998" />
      <path
         inkscape:export-ydpi="4.9499998"
         inkscape:export-xdpi="4.9499998"
         sodipodi:nodetypes="ccccc"
         inkscape:connector-curvature="0"
         id="rect4248"
         d="m 290.45332,446.06097 c 62.47941,0 124.95884,0 187.43825,0 4.72534,-10e-6 4.72534,21.0078 0,21.00781 -62.47941,0 -124.95884,0 -187.43825,0 -6.30046,-1e-5 -6.30046,-21.00782 0,-21.00781 z"
         style="fill:#ffffff;fill-opacity:1;stroke:none" />
      <path
         inkscape:export-ydpi="4.9499998"
         inkscape:export-xdpi="4.9499998"
         sodipodi:nodetypes="ccccc"
         inkscape:connector-curvature="0"
         id="rect4248-4"
         d="m 289.9664,482.98002 c 56.03531,0 112.0706,0 168.10591,0 4.23795,-1e-5 4.23795,21.00781 0,21.00782 -56.03531,0 -112.0706,0 -168.10591,0 -5.65062,-1e-5 -5.65062,-21.00783 0,-21.00782 z"
         style="fill:#ffffff;fill-opacity:1;stroke:none" />
      <path
         inkscape:export-ydpi="4.9499998"
         inkscape:export-xdpi="4.9499998"
         sodipodi:nodetypes="ccccc"
         inkscape:connector-curvature="0"
         id="rect4248-1"
         d="m 290.61134,519.39523 c 59.59653,0 119.19305,0 178.78958,0 4.5073,-2e-5 4.5073,21.00779 0,21.0078 -59.59653,0 -119.19305,0 -178.78958,0 -6.00974,-10e-6 -6.00974,-21.00782 0,-21.0078 z"
         style="fill:#ffffff;fill-opacity:1;stroke:none" />
      <path
         inkscape:export-ydpi="4.9499998"
         inkscape:export-xdpi="4.9499998"
         inkscape:transform-center-y="-32.829958"
         inkscape:transform-center-x="11.294007"
         sodipodi:nodetypes="ccccc"
         inkscape:connector-curvature="0"
         id="rect4248-1-5"
         d="m 289.92792,556.83832 c 55.52657,0 111.05312,0 166.57968,0 4.19949,-10e-6 4.19949,21.00781 0,21.00782 -55.52656,0 -111.05311,0 -166.57968,0 -5.59932,-10e-6 -5.59932,-21.00783 0,-21.00782 z"
         style="fill:#ffffff;fill-opacity:1;stroke:none" />
    </g>
    <path
       style="color:#000000;font-style:normal;font-variant:normal;font-weight:normal;font-stretch:normal;font-size:medium;line-height:normal;font-family:sans-serif;text-indent:0;text-align:start;text-decoration:none;text-decoration-line:none;text-decoration-style:solid;text-decoration-color:#000000;letter-spacing:normal;word-spacing:normal;text-transform:none;direction:ltr;block-progression:tb;writing-mode:lr-tb;baseline-shift:baseline;text-anchor:start;white-space:normal;clip-rule:nonzero;display:inline;overflow:visible;visibility:visible;opacity:1;isolation:auto;mix-blend-mode:normal;color-interpolation:sRGB;color-interpolation-filters:linearRGB;solid-color:#000000;solid-opacity:1;fill:#5a6578;fill-opacity:1;fill-rule:nonzero;stroke:#5a6578;stroke-width:20;stroke-linecap:butt;stroke-linejoin:round;stroke-miterlimit:4;stroke-dasharray:none;stroke-dashoffset:60.95800018;stroke-opacity:1;color-rendering:auto;image-rendering:auto;shape-rendering:auto;text-rendering:auto;enable-background:accumulate"
       d="m 208.48534,494.06405 c -19.81557,0 -36.31786,14.46533 -36.31786,31.83497 l 0,132.92636 c 0,17.36964 16.50229,31.83496 36.31786,31.83496 l 316.89062,0 c 19.81558,0 36.31787,-14.46532 36.31787,-31.83496 l 0,-132.92636 c 0,-17.36964 -16.50229,-31.83497 -36.31787,-31.83497 l -316.89062,0 z m 0,30.86638 316.89062,0 c 0.91674,0 1.105,0.16502 1.105,0.96859 l 0,132.92636 c 0,0.80356 -0.18826,0.96858 -1.105,0.96858 l -316.89062,0 c -0.91673,0 -1.10499,-0.16502 -1.10499,-0.96858 l 0,-132.92636 c 0,-0.80357 0.18826,-0.96859 1.10499,-0.96859 z"
       id="rect4191"
       inkscape:connector-curvature="0" />
    <rect
       ry="16.401814"
       y="509.49661"
       x="189.77391"
       height="165.73001"
       width="354.31433"
       id="rect4189"
       style="color:#000000;clip-rule:nonzero;display:inline;overflow:visible;visibility:visible;opacity:1;isolation:auto;mix-blend-mode:normal;color-interpolation:sRGB;color-interpolation-filters:linearRGB;solid-color:#000000;solid-opacity:1;fill:#abbe24;fill-opacity:1;fill-rule:nonzero;stroke:#ffffff;stroke-width:30;stroke-linecap:butt;stroke-linejoin:round;stroke-miterlimit:4;stroke-dasharray:none;stroke-dashoffset:60.95800018;stroke-opacity:1;color-rendering:auto;image-rendering:auto;shape-rendering:auto;text-rendering:auto;enable-background:accumulate" />
    <rect
       style="color:#000000;clip-rule:nonzero;display:inline;overflow:visible;visibility:visible;opacity:1;isolation:auto;mix-blend-mode:normal;color-interpolation:sRGB;color-interpolation-filters:linearRGB;solid-color:#000000;solid-opacity:1;fill:#abbe24;fill-opacity:1;fill-rule:nonzero;stroke:none;stroke-width:12;stroke-linecap:butt;stroke-linejoin:round;stroke-miterlimit:4;stroke-dasharray:none;stroke-dashoffset:60.95800018;stroke-opacity:1;color-rendering:auto;image-rendering:auto;shape-rendering:auto;text-rendering:auto;enable-background:accumulate"
       id="rect4183"
       width="354.31433"
       height="165.73001"
       x="189.77391"
       y="509.49661"
       ry="16.401814" />
    <text
       xml:space="preserve"
       style="font-style:normal;font-weight:normal;font-size:147.73490906px;line-height:125%;font-family:sans-serif;letter-spacing:0px;word-spacing:0px;fill:#000000;fill-opacity:1;stroke:none;stroke-width:1px;stroke-linecap:butt;stroke-linejoin:miter;stroke-opacity:1"
       x="206.98"
       y="611.60193"
       id="text4185"
       sodipodi:linespacing="125%"
       transform="scale(0.94584576,1.0572548)"><tspan
         sodipodi:role="line"
         id="tspan4187"
         x="206.98"
         y="611.60193"
         style="font-style:normal;font-variant:normal;font-weight:bold;font-stretch:normal;font-family:sans-serif;-inkscape-font-specification:'sans-serif Bold';fill:#ffffff">MP3</tspan></text>
  </g>
</svg>
