<?xml version="1.0" encoding="UTF-8" standalone="no"?>
<!-- Created with Inkscape (http://www.inkscape.org/) -->

<svg
   xmlns:dc="http://purl.org/dc/elements/1.1/"
   xmlns:cc="http://creativecommons.org/ns#"
   xmlns:rdf="http://www.w3.org/1999/02/22-rdf-syntax-ns#"
   xmlns:svg="http://www.w3.org/2000/svg"
   xmlns="http://www.w3.org/2000/svg"
   xmlns:xlink="http://www.w3.org/1999/xlink"
   xmlns:sodipodi="http://sodipodi.sourceforge.net/DTD/sodipodi-0.dtd"
   xmlns:inkscape="http://www.inkscape.org/namespaces/inkscape"
   width="210mm"
   height="297mm"
   viewBox="0 0 744.09448819 1052.3622047"
   id="svg2"
   version="1.1"
   inkscape:version="0.91 r13725"
   inkscape:export-xdpi="7.1992793"
   inkscape:export-ydpi="7.1992793"
   sodipodi:docname="document-pdf.svg"
   inkscape:export-filename="C:\Users\johannes\Documents\Arbeit\RRZE\github3\bicons\32x32\mime-types\document-pdf.png">
  <defs
     id="defs4">
    <linearGradient
       id="linearGradient2224">
      <stop
         id="stop2226"
         offset="0"
         style="stop-color:#7c7c7c;stop-opacity:1;" />
      <stop
         id="stop2228"
         offset="1"
         style="stop-color:#b8b8b8;stop-opacity:1;" />
    </linearGradient>
    <linearGradient
       id="linearGradient15218">
      <stop
         id="stop15220"
         offset="0"
         style="stop-color:#eeeeef;stop-opacity:1;" />
      <stop
         id="stop2736"
         offset="0.59928656"
         style="stop-color:#d3d7cf;stop-opacity:1;" />
      <stop
         id="stop2738"
         offset="0.82758623"
         style="stop-color:#ffffff;stop-opacity:1;" />
      <stop
         id="stop15222"
         offset="1"
         style="stop-color:#d3d7cf;stop-opacity:1;" />
    </linearGradient>
    <pattern
       y="0"
       x="0"
       height="6"
       width="6"
       patternUnits="userSpaceOnUse"
       id="EMFhbasepattern" />
    <pattern
       y="0"
       x="0"
       height="6"
       width="6"
       patternUnits="userSpaceOnUse"
       id="EMFhbasepattern-5" />
    <linearGradient
       inkscape:collect="always"
       xlink:href="#linearGradient4321"
       id="linearGradient4201"
       x1="286.38269"
       y1="672.9209"
       x2="532.51678"
       y2="367.74933"
       gradientUnits="userSpaceOnUse"
       gradientTransform="matrix(1.1363532,0,0,1.1363532,-55.583175,-53.074106)" />
    <linearGradient
       id="linearGradient4321"
       inkscape:collect="always">
      <stop
         id="stop4323"
         offset="0"
         style="stop-color:#4e505d;stop-opacity:1;" />
      <stop
         id="stop4325"
         offset="1"
         style="stop-color:#7a8597;stop-opacity:1" />
    </linearGradient>
  </defs>
  <sodipodi:namedview
     id="base"
     pagecolor="#ffffff"
     bordercolor="#666666"
     borderopacity="1.0"
     inkscape:pageopacity="0.0"
     inkscape:pageshadow="2"
     inkscape:zoom="0.70710678"
     inkscape:cx="558.10636"
     inkscape:cy="494.80134"
     inkscape:document-units="px"
     inkscape:current-layer="layer1"
     showgrid="false"
     showguides="true"
     inkscape:guide-bbox="true"
     inkscape:window-width="1366"
     inkscape:window-height="721"
     inkscape:window-x="-4"
     inkscape:window-y="-4"
     inkscape:window-maximized="1"
     inkscape:snap-bbox="true"
     inkscape:bbox-paths="true"
     inkscape:bbox-nodes="true">
    <sodipodi:guide
       position="560,730.00002"
       orientation="0,1"
       id="guide3338" />
    <sodipodi:guide
       position="560,330.00001"
       orientation="0,1"
       id="guide3340" />
    <sodipodi:guide
       position="190,475.00001"
       orientation="1,0"
       id="guide3344" />
    <sodipodi:guide
       position="590,451.00001"
       orientation="1,0"
       id="guide3346" />
    <inkscape:grid
       type="xygrid"
       id="grid3440" />
  </sodipodi:namedview>
  <metadata
     id="metadata7">
    <rdf:RDF>
      <cc:Work
         rdf:about="">
        <dc:format>image/svg+xml</dc:format>
        <dc:type
           rdf:resource="http://purl.org/dc/dcmitype/StillImage" />
        <dc:title>document pdf</dc:title>
        <dc:date>June 2015</dc:date>
        <dc:creator>
          <cc:Agent>
            <dc:title>Johannes Hechler</dc:title>
          </cc:Agent>
        </dc:creator>
        <dc:rights>
          <cc:Agent>
            <dc:title>Johannes Hechler</dc:title>
          </cc:Agent>
        </dc:rights>
        <dc:publisher>
          <cc:Agent>
            <dc:title>RRZE</dc:title>
          </cc:Agent>
        </dc:publisher>
        <dc:contributor>
          <cc:Agent>
            <dc:title>Ute Weber, Hendrik Eggers</dc:title>
          </cc:Agent>
        </dc:contributor>
      </cc:Work>
    </rdf:RDF>
  </metadata>
  <g
     inkscape:label="Ebene 1"
     inkscape:groupmode="layer"
     id="layer1">
    <g
       id="g4208">
      <rect
         inkscape:export-ydpi="3.5999999"
         inkscape:export-xdpi="3.5999999"
         y="322.36221"
         x="190"
         height="400"
         width="400"
         id="rect3336"
         style="fill:none;fill-rule:evenodd;stroke:none;stroke-width:1px;stroke-linecap:butt;stroke-linejoin:miter;stroke-opacity:1" />
      <rect
         inkscape:export-ydpi="3.46731"
         inkscape:export-xdpi="3.46731"
         y="322.41422"
         x="190.04007"
         height="400"
         width="400"
         id="rect3336-0"
         style="fill:none;fill-rule:evenodd;stroke:none;stroke-width:1px;stroke-linecap:butt;stroke-linejoin:miter;stroke-opacity:1" />
      <path
         id="path4244"
         d="M 446.39453 322.38477 L 251.25781 322.4043 C 239.8687 322.3852 234.18637 328.01561 234.23438 339.23633 C 234.18637 432.5601 234.1864 591.64785 234.2168 705.30469 C 234.1865 716.64659 239.90237 722.40092 251.19531 722.32422 L 346.48438 722.34766 C 344.75348 718.9791 342.69278 713.85557 342.39844 707.95898 C 341.8811 697.59527 345.99086 684.69195 356.61719 672.02344 C 371.55808 654.21117 392.88722 644.06658 403.20117 639.89062 C 407.09553 633.322 418.31639 614.13261 425.51562 596.30273 C 430.25108 584.57473 433.64147 575.49597 434.35742 571.78516 C 433.98299 571.87719 433.59696 564.60133 431.33203 558.66406 C 424.59431 541.0019 426.72839 524.22476 427.25 513.3457 C 427.64746 505.05638 429.34361 495.78432 435.46875 486.61914 C 440.82825 478.59961 452.63971 471.42357 464.85742 471.68359 C 466.60281 471.72074 468.35727 471.90969 470.10156 472.26953 C 485.87956 475.52442 489.70949 486.31977 493.30078 494.02344 C 496.89207 501.72711 498.8821 508.76794 499.85547 514.82812 C 502.45997 531.04374 498.91542 547.95241 494.48242 563.32617 C 493.94981 565.17326 492.53008 569.8198 491.06055 574.83984 C 490.70463 576.05566 490.45557 576.96965 490.13672 578.08594 C 490.9328 579.33367 491.76979 580.68157 493.05469 582.23633 C 496.36857 586.2462 500.9117 590.9356 505.40625 595.22852 C 510.21411 599.82069 514.61575 603.68304 517.93945 606.51758 C 522.48363 606.2949 528.12128 605.96608 539.47461 605.72461 C 541.56121 605.68023 544.03649 605.67746 546.75977 605.76172 L 546.76172 422.46289 C 541.56812 422.93893 525.97027 424.28772 508.49219 424.93945 C 497.88044 425.3351 486.81708 425.48486 476.70898 424.87109 C 471.65493 424.56422 466.86462 424.09633 461.96875 423.125 C 457.07287 422.15367 455.24871 422.54716 448.24805 416.51758 C 442.05042 411.17964 440.86045 403.0979 440.52539 394.18945 C 440.19032 385.281 441.17566 376.85662 442.27734 368.23828 C 444.4807 351.00161 447.11786 332.57723 446.51953 324.15234 L 446.39453 322.38477 z M 482.05078 373.29102 C 481.99848 373.68612 481.92295 374.18755 481.87305 374.57812 C 481.3848 378.39765 481.01886 381.9557 480.78125 384.98828 C 484.74984 385.19997 489.37685 385.26396 494.34766 385.22656 C 492.30064 383.18115 490.36435 381.18387 488.2832 379.14258 C 486.0433 376.94559 484.28004 375.43606 482.05078 373.29102 z M 480.49219 392.31836 C 480.56079 394.03835 481.10309 393.77205 480.49219 392.31836 z M 463.08594 520.92969 C 463.03494 522.32501 463.0269 523.65514 463 525.00977 C 463.47487 525.02097 463.91674 524.9897 464.37305 524.9707 C 464.41435 523.75046 464.37883 522.87875 464.33203 522.05273 L 463.08594 520.92969 z M 489.12891 581.63281 C 488.95348 582.28399 488.84534 582.71487 488.77344 583.00781 C 488.84842 582.84257 489.05591 582.59043 489.12891 581.63281 z M 452.22461 656.19531 C 452.21911 656.19631 452.20912 656.19822 452.20312 656.19922 C 452.23012 656.28572 452.26952 656.37954 452.29492 656.46484 L 452.33008 656.45117 C 452.30571 656.36192 452.25071 656.28411 452.22461 656.19531 z M 507.92383 660.22852 C 507.94048 660.22972 507.745 660.24995 507.75 660.25195 C 508.30819 660.4486 508.94496 660.53667 510.30664 660.4082 L 507.92383 660.22852 z M 507.64453 660.26562 C 507.60785 660.33318 503.07678 660.66541 498.26172 661.85352 C 483.64881 665.45919 469.47452 670.02715 458.66797 673.5332 C 453.81797 675.10673 449.91643 676.3599 446.36133 677.39648 C 446.34213 677.42538 446.32594 677.44942 446.30664 677.47852 C 443.99275 680.96078 441.18105 685.25434 438.58398 690.0625 C 432.09704 702.07233 423.74092 713.42049 414.02148 722.36523 L 529.57812 722.39453 C 541.00099 722.32953 546.68501 716.6468 546.75977 705.1875 L 546.75977 674.66211 C 543.88878 673.97216 540.6985 673.14549 537.31055 672.17188 C 530.11725 670.10467 523.30276 668.25387 516.15234 664.27734 C 512.74457 662.78019 509.72914 661.22011 507.84375 660.35156 C 507.70023 660.28546 507.77494 660.32272 507.64453 660.26562 z M 417.63867 687.19922 C 417.52784 687.37754 417.41833 687.55288 417.24219 687.83789 C 417.55487 687.42914 417.62007 687.27032 417.63867 687.19922 z "
         style="fill:url(#linearGradient4201);fill-opacity:1;fill-rule:evenodd;stroke:none;stroke-width:1px;stroke-linecap:butt;stroke-linejoin:miter;stroke-opacity:1" />
      <path
         style="fill:#99b000;fill-opacity:1;fill-rule:evenodd;stroke:none;stroke-width:1px;stroke-linecap:butt;stroke-linejoin:miter;stroke-opacity:1"
         d="m 461.45658,322.38253 c 4.54635,-1.18483 85.25811,76.62516 85.25811,84.98046 0,0 -75.44211,7.35253 -86.90512,-1.29887 -11.46301,-8.65141 3.62243,-55.86651 1.64701,-83.68159 z"
         id="path4288"
         inkscape:connector-curvature="0"
         sodipodi:nodetypes="cczc"
         inkscape:export-xdpi="3.46731"
         inkscape:export-ydpi="3.46731" />
      <path
         id="rect4232"
         d="M 271.80859 467.80078 C 266.77274 467.80078 262.71875 471.85477 262.71875 476.89062 C 262.71875 481.92649 266.77274 485.98047 271.80859 485.98047 L 415.33203 485.98047 C 416.73071 482.85676 418.43264 479.71647 420.50391 476.61719 C 422.65086 473.40465 425.15005 470.45661 427.9375 467.80078 L 271.80859 467.80078 z M 271.80859 522.3418 C 266.77274 522.3418 262.71875 526.39578 262.71875 531.43164 C 262.71875 536.46749 266.77274 540.52148 271.80859 540.52148 L 399.06836 540.52148 C 404.10421 540.52148 408.16016 536.46749 408.16016 531.43164 C 408.16016 526.39578 404.10421 522.3418 399.06836 522.3418 L 271.80859 522.3418 z M 271.80859 576.88086 C 266.77274 576.88086 262.71875 580.93484 262.71875 585.9707 C 262.71875 591.00655 266.77274 595.06055 271.80859 595.06055 L 406.48438 595.06055 C 407.29861 593.2261 408.08678 591.38887 408.82422 589.5625 C 410.88178 584.46667 412.43069 580.27924 413.65039 576.88086 L 271.80859 576.88086 z M 451.66016 576.88086 C 450.35103 582.78081 448.28219 588.16522 445.4668 595.06055 L 453.60938 595.06055 C 458.64524 595.06055 462.69922 591.00655 462.69922 585.9707 C 462.69922 580.93484 458.64524 576.88086 453.60938 576.88086 L 451.66016 576.88086 z "
         style="color:#000000;clip-rule:nonzero;display:inline;overflow:visible;visibility:visible;opacity:1;isolation:auto;mix-blend-mode:normal;color-interpolation:sRGB;color-interpolation-filters:linearRGB;solid-color:#000000;solid-opacity:1;fill:#ffffff;fill-opacity:1;fill-rule:evenodd;stroke:none;stroke-width:50;stroke-linecap:butt;stroke-linejoin:miter;stroke-miterlimit:4;stroke-dasharray:none;stroke-dashoffset:0;stroke-opacity:1;color-rendering:auto;image-rendering:auto;shape-rendering:auto;text-rendering:auto;enable-background:accumulate" />
      <rect
         inkscape:export-ydpi="4.9499998"
         inkscape:export-xdpi="4.9499998"
         y="322.36221"
         x="190"
         height="400"
         width="400"
         id="rect4160"
         style="opacity:0.97000002;fill:none;fill-opacity:1;stroke:none;stroke-width:23;stroke-linecap:butt;stroke-linejoin:round;stroke-miterlimit:4;stroke-dasharray:none;stroke-opacity:1" />
      <path
         inkscape:export-ydpi="4.9499998"
         inkscape:export-xdpi="4.9499998"
         d="m 434.96561,661.1901 c 0.56525,2.07148 28.1662,-9.20791 58.98452,-16.81221 5.961,-1.47087 11.59597,-2.38019 15.32716,-2.09898 2.23766,-0.74058 9.17882,3.42927 14.53719,5.72467 7.44931,4.46799 30.41669,10.328 34.14529,10.55294 9.13511,0.55109 29.72527,2.56676 31.83341,-9.5543 1.91228,-10.99482 -9.72267,-18.54909 -23.06253,-22.27951 -10.09938,-2.82421 -20.49535,-3.13837 -26.87419,-3.00269 -14.8044,0.31487 -28.16437,1.03685 -28.16437,1.03685 0,0 -36.33939,-29.23935 -40.72662,-44.36942 -0.17913,-0.94625 5.62592,-19.98217 6.22158,-22.04791 3.92616,-13.61602 6.53419,-30.45788 4.89621,-40.65592 -1.20595,-7.50825 -7.18137,-26.04478 -15.6189,-27.78538 -14.9824,-3.09079 -20.68821,12.91213 -21.23465,24.30864 -0.55082,11.4883 -1.81416,25.63039 2.92059,38.04199 3.35459,8.79368 4.87525,17.33 4.16464,21.78703 -1.18612,7.43972 -5.28843,17.06992 -10.10811,29.00655 -9.49299,23.51066 -26.60835,51.39559 -26.60835,51.39559 0,0 -30.10833,11.17343 -45.1895,29.15293 -16.91943,20.17104 -7.37518,31.81163 -7.37518,31.81163 0,0 6.80105,13.90085 27.08892,2.41095 10.19112,-5.77167 24.80653,-21.83133 32.62423,-36.30489 6.08654,-11.26854 12.68761,-19.27256 12.21866,-20.31856 z m -32.12874,15.74376 c 0,0 -13.09245,9.92047 -17.97012,14.09951 -6.43969,5.51735 -7.72184,10.39087 -5.09384,14.22339 1.89685,2.76629 7.66369,-4.52131 12.99018,-12.48141 4.93439,-7.37415 9.9223,-15.69006 10.07378,-15.84149 z m 43.15329,-37.78498 c 2.27066,-5.39105 3.70902,-7.79396 8.74165,-19.25919 3.003,-6.99985 5.17269,-12.43859 8.12138,-17.35853 4.35386,3.30505 5.46164,4.38222 11.92729,11.79659 5.54792,4.89092 10.56362,9.13028 14.36299,12.85588 -1.71094,2.26485 -11.02743,4.52972 -20.26718,6.79456 -17.79136,3.75537 -15.67543,3.53069 -22.88613,5.17069 z M 461.3323,537.3521 c 0,0 -0.83719,-7.96781 -1.4506,-15.81739 -0.42874,-5.48651 -1.43677,-10.35611 1.67333,-13.33555 7.55971,-7.24211 0.72222,29.15294 -0.22273,29.15294 z m 83.87894,103.05628 c 0,0 26.52884,-1.12907 24.9539,3.27919 -1.57494,4.40822 -24.9539,-3.27919 -24.9539,-3.27919 z"
         id="path4497"
         sodipodi:nodetypes="csccssssccssssscscscssccssscccccccccssccsc"
         style="fill:#99b000;fill-opacity:1;fill-rule:evenodd;stroke:none;stroke-width:10.87034798;stroke-linecap:butt;stroke-linejoin:miter;stroke-miterlimit:4;stroke-dasharray:none;stroke-opacity:1"
         inkscape:connector-curvature="0" />
    </g>
  </g>
</svg>
