<?xml version="1.0" encoding="UTF-8" standalone="no"?>
<!-- Created with Inkscape (http://www.inkscape.org/) -->

<svg
   xmlns:dc="http://purl.org/dc/elements/1.1/"
   xmlns:cc="http://creativecommons.org/ns#"
   xmlns:rdf="http://www.w3.org/1999/02/22-rdf-syntax-ns#"
   xmlns:svg="http://www.w3.org/2000/svg"
   xmlns="http://www.w3.org/2000/svg"
   xmlns:xlink="http://www.w3.org/1999/xlink"
   xmlns:sodipodi="http://sodipodi.sourceforge.net/DTD/sodipodi-0.dtd"
   xmlns:inkscape="http://www.inkscape.org/namespaces/inkscape"
   width="210mm"
   height="297mm"
   viewBox="0 0 744.09448819 1052.3622047"
   id="svg2"
   version="1.1"
   inkscape:version="0.91 r13725"
   inkscape:export-xdpi="7.1992793"
   inkscape:export-ydpi="7.1992793"
   sodipodi:docname="media-slide-audio.svg"
   inkscape:export-filename="C:\Users\johannes\Documents\Arbeit\RRZE\github3\bicons\32x32\mime-types\media-slide-audio.png">
  <defs
     id="defs4">
    <inkscape:perspective
       sodipodi:type="inkscape:persp3d"
       inkscape:vp_x="0 : 526.1811 : 1"
       inkscape:vp_y="0 : 1000 : 0"
       inkscape:vp_z="744.09449 : 526.1811 : 1"
       inkscape:persp3d-origin="372.04724 : 350.7874 : 1"
       id="perspective4169" />
    <linearGradient
       id="linearGradient2224">
      <stop
         id="stop2226"
         offset="0"
         style="stop-color:#7c7c7c;stop-opacity:1;" />
      <stop
         id="stop2228"
         offset="1"
         style="stop-color:#b8b8b8;stop-opacity:1;" />
    </linearGradient>
    <linearGradient
       id="linearGradient15218">
      <stop
         id="stop15220"
         offset="0"
         style="stop-color:#eeeeef;stop-opacity:1;" />
      <stop
         id="stop2736"
         offset="0.59928656"
         style="stop-color:#d3d7cf;stop-opacity:1;" />
      <stop
         id="stop2738"
         offset="0.82758623"
         style="stop-color:#ffffff;stop-opacity:1;" />
      <stop
         id="stop15222"
         offset="1"
         style="stop-color:#d3d7cf;stop-opacity:1;" />
    </linearGradient>
    <pattern
       y="0"
       x="0"
       height="6"
       width="6"
       patternUnits="userSpaceOnUse"
       id="EMFhbasepattern" />
    <pattern
       y="0"
       x="0"
       height="6"
       width="6"
       patternUnits="userSpaceOnUse"
       id="EMFhbasepattern-5" />
    <linearGradient
       inkscape:collect="always"
       xlink:href="#linearGradient4321"
       id="linearGradient4201"
       x1="286.38269"
       y1="672.9209"
       x2="532.51678"
       y2="367.74933"
       gradientUnits="userSpaceOnUse"
       gradientTransform="matrix(1.1363532,0,0,1.1363532,-55.583166,-53.074076)" />
    <linearGradient
       id="linearGradient4321"
       inkscape:collect="always">
      <stop
         id="stop4323"
         offset="0"
         style="stop-color:#4e505d;stop-opacity:1;" />
      <stop
         id="stop4325"
         offset="1"
         style="stop-color:#7a8597;stop-opacity:1" />
    </linearGradient>
  </defs>
  <sodipodi:namedview
     id="base"
     pagecolor="#ffffff"
     bordercolor="#666666"
     borderopacity="1.0"
     inkscape:pageopacity="0.0"
     inkscape:pageshadow="2"
     inkscape:zoom="0.70710678"
     inkscape:cx="358.23454"
     inkscape:cy="590.25516"
     inkscape:document-units="px"
     inkscape:current-layer="layer1"
     showgrid="false"
     showguides="true"
     inkscape:guide-bbox="true"
     inkscape:window-width="1366"
     inkscape:window-height="721"
     inkscape:window-x="-4"
     inkscape:window-y="-4"
     inkscape:window-maximized="1"
     inkscape:snap-bbox="true"
     inkscape:bbox-paths="true"
     inkscape:bbox-nodes="true">
    <sodipodi:guide
       position="560,730.00002"
       orientation="0,1"
       id="guide3338" />
    <sodipodi:guide
       position="560,330.00001"
       orientation="0,1"
       id="guide3340" />
    <sodipodi:guide
       position="190,475.00001"
       orientation="1,0"
       id="guide3344" />
    <sodipodi:guide
       position="590,451.00001"
       orientation="1,0"
       id="guide3346" />
    <inkscape:grid
       type="xygrid"
       id="grid3440" />
  </sodipodi:namedview>
  <metadata
     id="metadata7">
    <rdf:RDF>
      <cc:Work
         rdf:about="">
        <dc:format>image/svg+xml</dc:format>
        <dc:type
           rdf:resource="http://purl.org/dc/dcmitype/StillImage" />
        <dc:title>media slide audio</dc:title>
        <dc:date>June 2015</dc:date>
        <dc:creator>
          <cc:Agent>
            <dc:title>Johannes Hechler</dc:title>
          </cc:Agent>
        </dc:creator>
        <dc:rights>
          <cc:Agent>
            <dc:title>Johannes Hechler</dc:title>
          </cc:Agent>
        </dc:rights>
        <dc:publisher>
          <cc:Agent>
            <dc:title>RRZE</dc:title>
          </cc:Agent>
        </dc:publisher>
        <dc:contributor>
          <cc:Agent>
            <dc:title>Ute Weber, Hendrik Eggers</dc:title>
          </cc:Agent>
        </dc:contributor>
      </cc:Work>
    </rdf:RDF>
  </metadata>
  <g
     inkscape:label="Ebene 1"
     inkscape:groupmode="layer"
     id="layer1">
    <rect
       style="fill:none;fill-rule:evenodd;stroke:none;stroke-width:1px;stroke-linecap:butt;stroke-linejoin:miter;stroke-opacity:1"
       id="rect3336"
       width="400"
       height="400"
       x="190"
       y="322.36221"
       inkscape:export-xdpi="3.5999999"
       inkscape:export-ydpi="3.5999999" />
    <rect
       style="fill:none;fill-rule:evenodd;stroke:none;stroke-width:1px;stroke-linecap:butt;stroke-linejoin:miter;stroke-opacity:1"
       id="rect3336-0"
       width="400"
       height="400"
       x="190.04007"
       y="322.41422"
       inkscape:export-xdpi="3.46731"
       inkscape:export-ydpi="3.46731" />
    <path
       style="fill:url(#linearGradient4201);fill-opacity:1;fill-rule:evenodd;stroke:none;stroke-width:1px;stroke-linecap:butt;stroke-linejoin:miter;stroke-opacity:1"
       d="M 446.39453 322.38477 L 251.25781 322.4043 C 239.8687 322.3852 234.18637 328.0156 234.23438 339.23633 C 234.18637 432.5601 234.1864 591.64785 234.2168 705.30469 C 234.1865 716.64659 239.90237 722.40092 251.19531 722.32422 L 380.03516 722.35742 C 375.5462 713.28393 375.44333 702.15639 380.79297 692.91797 L 389.08594 678.59961 L 363.66797 678.56641 C 361.14083 678.56342 358.64263 678.02837 356.33594 676.99609 C 356.33594 676.99609 352.01002 675.12999 347.36133 671.75977 C 342.71264 668.38954 334.15037 663.01849 334.16797 648.99219 L 334.29297 552.33398 L 334.42969 552.35352 C 323.27178 544.89603 328.20167 536.22058 327.40039 529.71094 L 327.40039 529.70898 L 327.41211 520.48047 C 327.42779 508.25942 337.83393 497.88023 350.05273 497.89453 L 350.05469 497.89453 L 546.76172 498.14648 L 546.76172 422.46289 C 541.56812 422.93893 525.97027 424.28772 508.49219 424.93945 C 497.88044 425.3351 486.81708 425.48486 476.70898 424.87109 C 471.65493 424.56422 466.86462 424.09633 461.96875 423.125 C 457.07287 422.15367 455.24871 422.54716 448.24805 416.51758 C 442.05042 411.17964 440.86045 403.0979 440.52539 394.18945 C 440.19032 385.281 441.17566 376.85662 442.27734 368.23828 C 444.4807 351.00161 447.11786 332.57724 446.51953 324.15234 L 446.39453 322.38477 z M 482.05078 373.29102 C 481.99848 373.68612 481.92295 374.18755 481.87305 374.57812 C 481.3848 378.39765 481.01886 381.9557 480.78125 384.98828 C 484.74984 385.19997 489.37685 385.26396 494.34766 385.22656 C 492.30064 383.18115 490.36435 381.18387 488.2832 379.14258 C 486.0433 376.94559 484.28004 375.43606 482.05078 373.29102 z M 480.49219 392.31836 C 480.56079 394.03835 481.10309 393.77205 480.49219 392.31836 z M 370.29297 533.91992 C 370.30207 534.07282 370.30945 534.22583 370.31445 534.37891 L 370.17578 642.57422 L 420.30859 642.63867 C 428.076 642.65977 434.95395 647.66056 437.36914 655.04297 C 444.79031 650.05315 454.7493 651.26756 460.75391 657.89453 C 466.75141 649.21106 478.89799 647.52562 487.0332 654.24805 C 489.71962 647.30973 496.39765 642.73909 503.83789 642.74609 L 546.75977 642.80273 L 546.76172 534.14844 L 370.29297 533.91992 z M 368.28516 642.20312 C 368.19048 642.23199 368.26576 642.39719 368.4707 642.57227 L 368.79492 642.57227 C 368.58269 642.34668 368.37056 642.17713 368.28516 642.20312 z M 534.96875 678.78711 L 542.97461 692.69336 C 545.02853 696.26141 546.26595 700.10943 546.75977 704.00977 L 546.75977 678.80273 L 534.96875 678.78711 z "
       id="path4244" />
    <path
       inkscape:export-ydpi="3.46731"
       inkscape:export-xdpi="3.46731"
       sodipodi:nodetypes="cczc"
       inkscape:connector-curvature="0"
       id="path4288"
       d="m 461.45659,322.38255 c 4.54635,-1.18483 85.25811,76.62517 85.25811,84.98047 0,0 -75.44211,7.35253 -86.90512,-1.29887 -11.46301,-8.65141 3.62243,-55.86651 1.64701,-83.6816 z"
       style="fill:#99b000;fill-opacity:1;fill-rule:evenodd;stroke:none;stroke-width:1px;stroke-linecap:butt;stroke-linejoin:miter;stroke-opacity:1" />
    <path
       style="color:#000000;clip-rule:nonzero;display:inline;overflow:visible;visibility:visible;opacity:1;isolation:auto;mix-blend-mode:normal;color-interpolation:sRGB;color-interpolation-filters:linearRGB;solid-color:#000000;solid-opacity:1;fill:#ffffff;fill-opacity:1;fill-rule:evenodd;stroke:none;stroke-width:50;stroke-linecap:butt;stroke-linejoin:miter;stroke-miterlimit:4;stroke-dasharray:none;stroke-dashoffset:0;stroke-opacity:1;color-rendering:auto;image-rendering:auto;shape-rendering:auto;text-rendering:auto;enable-background:accumulate"
       d="M 271.80859 467.80078 C 266.77274 467.80078 262.71875 471.85476 262.71875 476.89062 C 262.71875 481.92649 266.77274 485.98047 271.80859 485.98047 L 328.65039 485.98047 C 334.8741 482.11845 342.21261 479.88535 350.07422 479.89453 L 350.07812 479.89453 A 18.0018 18.0018 0 0 1 360.03711 482.91797 L 355.51367 479.90234 L 498.47461 480.08594 C 498.8465 479.09144 499.05859 478.01802 499.05859 476.89062 C 499.05859 471.85476 495.00461 467.80078 489.96875 467.80078 L 271.80859 467.80078 z M 271.80859 522.3418 C 266.77274 522.3418 262.71875 526.39578 262.71875 531.43164 C 262.71875 536.46749 266.77274 540.52148 271.80859 540.52148 L 310.85352 540.52148 C 309.90414 537.07189 309.39592 533.44076 309.40039 529.68945 A 18.0018 18.0018 0 0 1 309.40039 529.68555 L 309.41016 522.3418 L 271.80859 522.3418 z M 345.41016 522.3418 L 345.40039 529.71094 L 345.40039 529.7207 A 18.0018 18.0018 0 0 1 345.40039 529.73242 C 345.39804 531.74513 347.9939 534.34952 350.00781 534.35352 L 350.00977 534.35352 A 18.0018 18.0018 0 0 1 352.31445 534.54883 L 352.31445 534.42188 A 18.0018 18.0018 0 0 1 356.57617 522.3418 L 345.41016 522.3418 z M 271.80859 576.88086 C 266.77274 576.88086 262.71875 580.93484 262.71875 585.9707 C 262.71875 591.00655 266.77274 595.06055 271.80859 595.06055 L 316.23828 595.06055 L 316.26172 576.88086 L 271.80859 576.88086 z M 388.26172 576.88086 L 388.23828 595.06055 L 453.60938 595.06055 C 458.64524 595.06055 462.69922 591.00655 462.69922 585.9707 C 462.69922 580.93484 458.64524 576.88086 453.60938 576.88086 L 388.26172 576.88086 z "
       id="rect4232" />
    <rect
       style="opacity:1;fill:none;fill-opacity:1;stroke:none;stroke-width:23;stroke-linecap:butt;stroke-linejoin:round;stroke-miterlimit:4;stroke-dasharray:none;stroke-opacity:1"
       id="rect4160"
       width="400"
       height="400"
       x="190"
       y="322.36221" />
    <path
       style="opacity:1;fill:#99b000;fill-opacity:1;stroke:none;stroke-width:16;stroke-linecap:round;stroke-linejoin:round;stroke-miterlimit:4;stroke-dasharray:none;stroke-opacity:1"
       d="m 350.03245,515.89473 c -2.5564,-0.003 -4.61793,2.053 -4.62121,4.60939 l -0.0118,9.22821 c -0.003,2.55641 2.05298,4.61794 4.60938,4.62122 l 2.30647,0.003 -0.14706,114.65831 c -0.008,6.39105 11.52224,11.55186 11.52224,11.55186 l 56.5954,0.0726 -23.91586,41.29917 c -3.61666,6.2457 -1.50028,14.1862 4.74545,17.80286 l 1.81035,1.04679 c 6.24573,3.61665 14.18622,1.50029 17.80287,-4.74544 l 26.68976,-46.09495 -0.05,38.93966 c -0.009,7.2173 5.79212,13.03355 13.0094,13.04281 l 2.09135,0.003 c 7.21727,0.009 13.03592,-5.79209 13.04518,-13.00939 l 0.0524,-40.83263 27.41566,47.62471 c 3.60063,6.25498 11.53566,8.39172 17.79063,4.7911 l 1.81066,-1.04216 c 6.25498,-3.60062 8.39171,-11.53567 4.79109,-17.79064 l -23.55943,-40.92744 55.98831,0.0718 c 0,0 11.54365,-5.13122 11.55185,-11.52226 l 0.14706,-114.65831 2.30645,0.003 c 2.55639,0.003 4.61794,-2.05297 4.62122,-4.60938 l 0.0118,-9.22821 c 0.003,-2.55639 -2.05299,-4.61795 -4.60938,-4.62123 l -223.80026,-0.28704 z"
       id="rect4169"
       inkscape:connector-curvature="0" />
    <g
       transform="matrix(0.34740263,0,0,0.34740263,328.03198,406.38905)"
       id="g4157"
       style="fill:#ffffff">
      <path
         sodipodi:nodetypes="ccccccccccscc"
         inkscape:connector-curvature="0"
         id="path4151"
         d="m 378.98378,365.08062 c -1.69832,0.0175 -3.35491,0.52851 -4.76798,1.47076 l -86.56597,63.71007 -56.6111,0 c -4.83568,4.8e-4 -8.75565,3.92045 -8.75613,8.75613 l 0,165.54247 c 4.8e-4,4.83568 3.92045,8.75565 8.75613,8.75613 l 56.6111,0 86.56597,63.71178 c 4.62975,3.08539 10.92548,1.12746 12.98882,-4.03945 40.57544,-101.62146 40.03077,-202.41606 -0.002,-302.40623 -1.3427,-3.35361 -4.6069,-5.53858 -8.21913,-5.50166 z"
         style="color:#252525;font-style:normal;font-variant:normal;font-weight:normal;font-stretch:normal;font-size:medium;line-height:normal;font-family:sans-serif;text-indent:0;text-align:start;text-decoration:none;text-decoration-line:none;text-decoration-style:solid;text-decoration-color:#252525;letter-spacing:normal;word-spacing:normal;text-transform:none;direction:ltr;block-progression:tb;writing-mode:lr-tb;baseline-shift:baseline;text-anchor:start;white-space:normal;clip-rule:nonzero;display:inline;overflow:visible;visibility:visible;opacity:1;isolation:auto;mix-blend-mode:normal;color-interpolation:sRGB;color-interpolation-filters:linearRGB;solid-color:#252525;solid-opacity:1;fill:#ffffff;fill-opacity:1;fill-rule:evenodd;stroke:none;stroke-width:20;stroke-linecap:butt;stroke-linejoin:round;stroke-miterlimit:4;stroke-dasharray:none;stroke-dashoffset:0;stroke-opacity:1;color-rendering:auto;image-rendering:auto;shape-rendering:auto;text-rendering:auto;enable-background:accumulate" />
      <path
         inkscape:connector-curvature="0"
         id="path4189"
         d="m 500.00756,623.60832 c 5.13527,2.40151 11.28281,2.13602 16.22108,-0.65837 45.30744,-38.63149 56.77804,-112.79193 29.30776,-166.52588 -8.35024,-12.78401 -14.70498,-29.61372 -29.15553,-35.95204 -15.79435,-7.08576 -31.31098,15.90652 -21.08561,29.98548 34.91566,34.88819 36.8194,99.43734 3.64686,135.79057 -12.9326,7.76632 -13.82965,31.35257 1.06544,37.36024 z m -48.09419,-45.17038 c 4.29907,2.00026 9.31025,2.16562 13.72251,0.50211 34.75369,-22.28306 36.60044,-82.02596 5.66051,-109.10992 -13.68216,-11.79818 -35.51404,7.09745 -27.9701,23.7379 11.18908,12.63871 17.9593,33.71857 6.2408,48.59047 -12.01449,8.20592 -11.82799,30.62033 2.34628,36.2794 z"
         style="fill:#ffffff" />
    </g>
  </g>
</svg>
