<?xml version="1.0" encoding="UTF-8" standalone="no"?>
<!-- Created with Inkscape (http://www.inkscape.org/) -->
<svg xmlns:dc="http://purl.org/dc/elements/1.1/" xmlns:cc="http://creativecommons.org/ns#" xmlns:rdf="http://www.w3.org/1999/02/22-rdf-syntax-ns#" xmlns:svg="http://www.w3.org/2000/svg" xmlns="http://www.w3.org/2000/svg" xmlns:xlink="http://www.w3.org/1999/xlink" xmlns:sodipodi="http://sodipodi.sourceforge.net/DTD/sodipodi-0.dtd" xmlns:inkscape="http://www.inkscape.org/namespaces/inkscape" width="210mm" height="297mm" viewBox="0 0 744.09448819 1052.3622047" id="svg2" version="1.1" inkscape:version="0.91 r13725" inkscape:export-xdpi="4" inkscape:export-ydpi="4">
  <defs id="defs4">
    <inkscape:perspective sodipodi:type="inkscape:persp3d" inkscape:vp_x="0 : 526.1811 : 1" inkscape:vp_y="0 : 1000 : 0" inkscape:vp_z="744.09449 : 526.1811 : 1" inkscape:persp3d-origin="372.04724 : 350.7874 : 1" id="perspective4169"/>
    <linearGradient id="linearGradient2224">
      <stop id="stop2226" offset="0" style="stop-color:#7c7c7c;stop-opacity:1;"/>
      <stop id="stop2228" offset="1" style="stop-color:#b8b8b8;stop-opacity:1;"/>
    </linearGradient>
    <linearGradient id="linearGradient15218">
      <stop id="stop15220" offset="0" style="stop-color:#eeeeef;stop-opacity:1;"/>
      <stop id="stop2736" offset="0.59928656" style="stop-color:#d3d7cf;stop-opacity:1;"/>
      <stop id="stop2738" offset="0.82758623" style="stop-color:#ffffff;stop-opacity:1;"/>
      <stop id="stop15222" offset="1" style="stop-color:#d3d7cf;stop-opacity:1;"/>
    </linearGradient>
    <pattern y="0" x="0" height="6" width="6" patternUnits="userSpaceOnUse" id="EMFhbasepattern"/>
    <pattern y="0" x="0" height="6" width="6" patternUnits="userSpaceOnUse" id="EMFhbasepattern-5"/>
    <linearGradient inkscape:collect="always" xlink:href="#linearGradient4195" id="linearGradient4201" x1="286.38269" y1="672.9209" x2="532.51678" y2="367.74933" gradientUnits="userSpaceOnUse" gradientTransform="matrix(1.1363532,0,0,1.1363532,-57.062627,-53.094451)"/>
    <linearGradient inkscape:collect="always" id="linearGradient4195">
      <stop style="stop-color:#5a6578;stop-opacity:1" offset="0" id="stop4197"/>
      <stop style="stop-color:#9397a2;stop-opacity:1" offset="1" id="stop4199"/>
    </linearGradient>
    <linearGradient inkscape:collect="always" xlink:href="#linearGradient4203" id="linearGradient4209" x1="463.0658" y1="396.17969" x2="494.89703" y2="375.89542" gradientUnits="userSpaceOnUse" gradientTransform="matrix(1.1363532,0,0,1.1363532,-57.062627,-53.094451)"/>
    <linearGradient inkscape:collect="always" id="linearGradient4203">
      <stop style="stop-color:#abbe24;stop-opacity:1" offset="0" id="stop4205"/>
      <stop style="stop-color:#c1d53a;stop-opacity:1" offset="1" id="stop4207"/>
    </linearGradient>
  </defs>
  <sodipodi:namedview id="base" pagecolor="#ffffff" bordercolor="#666666" borderopacity="1.0" inkscape:pageopacity="0.0" inkscape:pageshadow="2" inkscape:zoom="1.4142136" inkscape:cx="418.60557" inkscape:cy="573.30114" inkscape:document-units="px" inkscape:current-layer="layer1" showgrid="false" showguides="true" inkscape:guide-bbox="true" inkscape:window-width="1366" inkscape:window-height="721" inkscape:window-x="-4" inkscape:window-y="-4" inkscape:window-maximized="1">
    <sodipodi:guide position="560,730.00002" orientation="0,1" id="guide3338"/>
    <sodipodi:guide position="560,330.00001" orientation="0,1" id="guide3340"/>
    <sodipodi:guide position="190,475.00001" orientation="1,0" id="guide3344"/>
    <sodipodi:guide position="590,451.00001" orientation="1,0" id="guide3346"/>
    <inkscape:grid type="xygrid" id="grid3440"/>
  </sodipodi:namedview>
  <metadata id="metadata7">
    <rdf:RDF>
      <cc:Work rdf:about="">
        <dc:format>image/svg+xml</dc:format>
        <dc:type rdf:resource="http://purl.org/dc/dcmitype/StillImage"/>
        <dc:title>media video film</dc:title>
      </cc:Work>
    </rdf:RDF>
  </metadata>
  <g inkscape:label="Ebene 1" inkscape:groupmode="layer" id="layer1">
    <rect style="opacity:1;fill:none;fill-opacity:1;stroke:none;stroke-width:23;stroke-linecap:butt;stroke-linejoin:round;stroke-miterlimit:4;stroke-dasharray:none;stroke-opacity:1" id="rect4160" width="400" height="400" x="190" y="322.36221"/>
    <path sodipodi:nodetypes="ccccccccsssssscccsscssscssscccccccc" inkscape:connector-curvature="0" style="fill:url(#linearGradient4201);fill-opacity:1;fill-rule:evenodd;stroke:none;stroke-width:1px;stroke-linecap:butt;stroke-linejoin:miter;stroke-opacity:1" d="m 451.44211,322.36375 -201.66274,0.02 c -11.38911,-0.0191 -17.0711,5.6115 -17.0231,16.83223 -0.048,93.32377 -0.0481,252.41297 -0.0177,366.06997 -0.0303,11.34185 5.68578,17.09539 16.97872,17.01866 l 278.38213,0.071 c 11.42287,-0.0653 17.10592,-5.74803 17.18068,-17.20732 l 0.002,-287.41495 c -3.36254,0.31629 -19.83225,1.81585 -38.33417,2.50575 -10.3158,0.38469 -21.02427,0.50769 -30.22654,-0.051 -4.60116,-0.27936 -8.81748,-0.71711 -12.60865,-1.46927 -3.79117,-0.75217 -9.13747,-1.48928 -12.73099,-4.2014 -6.80459,-5.13558 -7.64277,-14.6216 -7.91008,-21.7286 -0.26731,-7.10702 0.56738,-14.99514 1.63351,-23.3352 2.12529,-16.62602 7.15507,-35.19123 6.33678,-47.10983 z m 17.68228,17.14517 c -0.9236,10.92454 -2.6893,22.14319 -3.98389,32.27066 -1.02546,8.02203 -1.69021,15.29734 -1.50034,20.34561 0.13767,3.66032 0.98643,5.50079 1.04313,5.94809 0.10943,-0.005 1.05874,0.45096 2.96962,0.83007 2.52865,0.50168 6.08593,0.90839 10.16946,1.15633 8.16708,0.49583 18.46897,0.40312 28.44657,0.031 8.44251,-0.31481 16.00415,-0.83888 22.66713,-1.31836 -0.97976,-1.1228 -1.49034,-1.83812 -2.60118,-3.06725 -7.43492,-8.2267 -17.58274,-18.61863 -27.86285,-28.70181 -10.28011,-10.08318 -20.72306,-19.88987 -28.75062,-26.9906 -0.24512,-0.21682 -0.35635,-0.29203 -0.59703,-0.50381 z m -4.4411,58.56436 c -0.0195,9e-4 -0.0209,0.0127 0.0133,0.0466 -4.6e-4,-0.008 -0.0122,-0.0374 -0.0133,-0.0466 z m 72.20282,10.56676 c 0.13682,0.43409 0.25326,0.41274 0.091,0.13094 -0.0131,-0.0227 -0.0761,-0.1058 -0.091,-0.13094 z" id="path4244"/>
    <path style="fill:url(#linearGradient4209);fill-opacity:1;fill-rule:evenodd;stroke:#ffffff;stroke-width:30;stroke-linecap:butt;stroke-linejoin:miter;stroke-opacity:1;stroke-miterlimit:4;stroke-dasharray:none" d="m 459.97714,322.36217 c 4.54635,-1.18483 85.25811,76.62516 85.25811,84.98046 0,0 -75.44211,7.35253 -86.90512,-1.29888 -11.46301,-8.65141 3.62243,-55.86651 1.64701,-83.68158 z" id="path4190" inkscape:connector-curvature="0" sodipodi:nodetypes="cczc" inkscape:export-xdpi="4.9499998" inkscape:export-ydpi="4.9499998"/>
    <path inkscape:export-ydpi="4.9499998" inkscape:export-xdpi="4.9499998" sodipodi:nodetypes="cczc" inkscape:connector-curvature="0" id="path4288" d="m 459.97714,322.36217 c 4.54635,-1.18483 85.25811,76.62516 85.25811,84.98046 0,0 -75.44211,7.35253 -86.90512,-1.29888 -11.46301,-8.65141 3.62243,-55.86651 1.64701,-83.68158 z" style="fill:url(#linearGradient4209);fill-opacity:1;fill-rule:evenodd;stroke:none;stroke-width:1px;stroke-linecap:butt;stroke-linejoin:miter;stroke-opacity:1"/>
    <path style="fill:#ffffff;fill-opacity:1;stroke:none" d="m 272.99493,453.78836 c 70.99868,0 141.99738,0 212.99606,0 5.36965,-1e-5 5.36965,23.87228 0,23.87229 -70.99868,0 -141.99738,0 -212.99606,0 -7.15955,-10e-6 -7.15955,-23.8723 0,-23.87229 z" id="rect4248" inkscape:connector-curvature="0" sodipodi:nodetypes="ccccc" inkscape:export-xdpi="4.9499998" inkscape:export-ydpi="4.9499998"/>
    <path style="fill:#ffffff;fill-opacity:1;stroke:none" d="m 272.44162,495.74144 c 63.6759,0 127.35178,0 191.02769,0 4.81581,-1e-5 4.81581,23.87229 0,23.8723 -63.67591,0 -127.35179,0 -191.02769,0 -6.4211,-10e-6 -6.4211,-23.87231 0,-23.8723 z" id="rect4248-4" inkscape:connector-curvature="0" sodipodi:nodetypes="ccccc" inkscape:export-xdpi="4.9499998" inkscape:export-ydpi="4.9499998"/>
    <path style="fill:#ffffff;fill-opacity:1;stroke:none" d="m 273.1745,537.12198 c 67.72271,0 135.4454,0 203.16811,0 5.12189,-2e-5 5.12189,23.87227 0,23.87228 -67.72271,0 -135.4454,0 -203.16811,0 -6.82919,-1e-5 -6.82919,-23.8723 0,-23.87228 z" id="rect4248-1" inkscape:connector-curvature="0" sodipodi:nodetypes="ccccc" inkscape:export-xdpi="4.9499998" inkscape:export-ydpi="4.9499998"/>
    <path style="fill:#ffffff;fill-opacity:1;stroke:none" d="m 272.39789,579.67056 c 63.0978,0 126.19557,0 189.29336,0 4.7721,-2e-5 4.7721,23.87229 0,23.8723 -63.09779,0 -126.19556,0 -189.29336,0 -6.3628,-10e-6 -6.3628,-23.87232 0,-23.8723 z" id="rect4248-1-5" inkscape:connector-curvature="0" sodipodi:nodetypes="ccccc" inkscape:transform-center-x="11.294007" inkscape:transform-center-y="-32.829958" inkscape:export-xdpi="4.9499998" inkscape:export-ydpi="4.9499998"/>
    <path style="color:#000000;font-style:normal;font-variant:normal;font-weight:normal;font-stretch:normal;font-size:medium;line-height:normal;font-family:sans-serif;text-indent:0;text-align:start;text-decoration:none;text-decoration-line:none;text-decoration-style:solid;text-decoration-color:#000000;letter-spacing:normal;word-spacing:normal;text-transform:none;direction:ltr;block-progression:tb;writing-mode:lr-tb;baseline-shift:baseline;text-anchor:start;white-space:normal;clip-rule:nonzero;display:inline;overflow:visible;visibility:visible;opacity:1;isolation:auto;mix-blend-mode:normal;color-interpolation:sRGB;color-interpolation-filters:linearRGB;solid-color:#000000;solid-opacity:1;fill:#ffffff;fill-opacity:1;fill-rule:evenodd;stroke:#5a6578;stroke-width:21.18055344;stroke-linecap:butt;stroke-linejoin:round;stroke-miterlimit:4;stroke-dasharray:none;stroke-dashoffset:0;stroke-opacity:1;color-rendering:auto;image-rendering:auto;shape-rendering:auto;text-rendering:auto;enable-background:accumulate" d="m 285.40696,456.41697 c -60.52434,0 -109.92996,49.40562 -109.92996,109.92997 0,60.52434 49.40562,109.92997 109.92996,109.92997 29.43438,0 56.23677,-11.68782 76.008,-30.65388 a 15.887004,15.887004 0 0 0 7.16498,0.52744 c 7.50622,-1.18751 17.09,4.12024 27.64435,12.60698 l -0.40748,-0.33715 c 15.21023,13.08526 37.76169,22.76246 60.84238,14.91946 25.13452,-8.03013 41.69731,-35.3499 32.03973,-61.87658 -5.64168,-15.66746 -19.08648,-24.83736 -32.53615,-28.63719 a 15.887004,15.887004 0 0 0 -4.70977,-0.59156 15.887004,15.887004 0 0 0 -14.63403,10.72265 c -1.35282,3.94116 -2.55518,6.75038 -3.05505,7.5497 a 15.887004,15.887004 0 0 0 7.11534,22.98215 c 0,0 3.09191,1.71382 5.06556,3.01368 0.0141,0.0442 0.0389,0.0384 0.0476,0.0848 0.15877,0.83984 -0.23806,1.42952 0.31026,0.43229 a 15.887004,15.887004 0 0 0 -0.3475,0.6681 c -1.093,2.23199 -6.28587,4.18845 -9.14859,3.14606 a 15.887004,15.887004 0 0 0 -0.58536,-0.20064 c -8.12508,-2.60443 -17.25083,-14.55724 -35.98833,-22.7422 -3.58376,-1.72852 -7.38956,-3.22707 -11.39282,-4.37056 4.20088,-11.62127 6.49689,-24.13829 6.49689,-37.17353 0,-60.52435 -49.40563,-109.92997 -109.92998,-109.92997 z m 37.71753,41.38274 c 4.58523,2.51567 8.88064,5.48283 12.84071,8.8342 -4.31187,0.57615 -8.41651,1.86029 -12.18709,3.73762 0.15764,-1.41485 0.24406,-2.84914 0.24406,-4.3023 0,-2.8324 -0.31434,-5.59826 -0.89768,-8.26952 z m -38.47042,0.67431 c 4.38324,0 7.59727,3.21197 7.59727,7.59521 0,4.38325 -3.21403,7.59728 -7.59727,7.59728 -4.38325,0 -7.59522,-3.21403 -7.59522,-7.59728 0,-4.38324 3.21197,-7.59521 7.59522,-7.59521 z m -38.66486,0.29992 c -0.45374,2.36837 -0.70119,4.80538 -0.70119,7.29529 0,3.38869 0.44202,6.6841 1.26794,9.83324 -5.22674,-2.57604 -11.08332,-4.03134 -17.24643,-4.03134 -0.0215,0 -0.0427,0.002 -0.0642,0.002 4.93882,-5.09227 10.56792,-9.50527 16.74381,-13.09926 z m 95.11599,39.27917 c 4.38325,0 7.59522,3.21404 7.59522,7.59728 0,4.38325 -3.21197,7.59522 -7.59522,7.59522 -4.38324,0 -7.59521,-3.21197 -7.59521,-7.59522 0,-4.38324 3.21197,-7.59728 7.59521,-7.59728 z m -39.12196,3.29291 c -0.15778,1.41552 -0.24408,2.85051 -0.24408,4.30437 0,1.36916 0.0729,2.72286 0.21305,4.05824 -2.36531,-2.3144 -5.19786,-4.15003 -8.3295,-5.33238 2.92123,-0.69503 5.72249,-1.71661 8.36053,-3.03023 z m -34.4577,0.10347 c 2.88195,1.41459 5.95428,2.48881 9.16513,3.16261 -2.97264,1.21482 -5.66497,3.01576 -7.91581,5.26204 -0.11136,-2.89362 -0.53389,-5.71433 -1.24932,-8.42465 z m -38.21601,2.19252 c 4.45962,0 7.73379,3.27623 7.73379,7.73587 0,4.45962 -3.27417,7.73379 -7.73379,7.73379 -4.45963,0 -7.7338,-3.27417 -7.7338,-7.73379 0,-4.45964 3.27417,-7.73587 7.7338,-7.73587 z m 56.14088,14.88223 c 4.26382,0 8.06267,3.79885 8.06267,8.06268 0,4.26383 -3.79885,8.0606 -8.06267,8.0606 -4.26383,0 -8.06061,-3.79677 -8.06061,-8.0606 0,-4.26383 3.79678,-8.06268 8.06061,-8.06268 z m 23.63369,9.85392 c 1.66731,2.33098 3.57195,4.48295 5.69228,6.40381 -3.02213,0.73355 -5.91285,1.82004 -8.62736,3.21431 1.63127,-2.90436 2.66599,-6.16784 2.93508,-9.61812 z m -46.54758,4.19889 c 0.55195,2.05207 1.38273,3.99925 2.44073,5.80396 -1.76142,-0.6996 -3.58166,-1.27291 -5.45234,-1.71264 1.08921,-1.29595 2.09231,-2.66437 3.01161,-4.09132 z m 100.09674,5.92393 c -0.84585,5.47956 -2.26782,10.75904 -4.18027,15.79233 -2.14363,-3.89992 -4.92801,-7.40832 -8.20747,-10.3793 4.46481,-1.08372 8.64369,-2.93653 12.38774,-5.41303 z m -153.03365,7.01813 c 3.35778,1.96072 7.01937,3.4379 10.89227,4.33952 -2.41666,2.8876 -4.42917,6.11918 -5.95082,9.60572 -2.0636,-4.43571 -3.73068,-9.0965 -4.94145,-13.94524 z m 83.21434,3.5618 c -2.48741,3.20893 -4.49768,6.80057 -5.90945,10.66888 -1.54333,-3.61492 -3.62045,-6.95627 -6.12044,-9.93459 1.51262,0.31281 3.07323,0.47987 4.66635,0.47987 2.56076,0 5.03629,-0.43163 7.36354,-1.21416 z m 31.10274,16.36943 c 4.38325,0 7.59521,3.21196 7.59521,7.59522 0,4.38324 -3.21196,7.59727 -7.59521,7.59727 -4.38325,0 -7.59521,-3.21403 -7.59521,-7.59727 0,-4.38326 3.21196,-7.59522 7.59521,-7.59522 z m -73.25907,1.95051 c 4.38325,0 7.59522,3.21197 7.59522,7.59521 0,4.38326 -3.21197,7.59729 -7.59522,7.59729 -4.38324,0 -7.59521,-3.21403 -7.59521,-7.59729 0,-4.38324 3.21197,-7.59521 7.59521,-7.59521 z m 37.01219,20.89098 c 2.50238,5.86151 6.39605,11.01687 11.2501,15.04151 -4.38898,0.75688 -8.89862,1.17278 -13.51295,1.17278 -2.82171,0 -5.60399,-0.15501 -8.34604,-0.44264 4.71145,-4.28988 8.39154,-9.69496 10.60889,-15.77165 z m 186.81911,13.36816 -0.34749,0.6681 c 0.0615,-0.112 0.0829,-0.2231 0.14271,-0.33509 0.0598,-0.11922 0.14594,-0.21286 0.20478,-0.33301 z m -48.55187,19.02733 c 0.0681,0.0248 0.13871,0.0314 0.20684,0.0558 0.13423,0.0439 0.24545,0.10145 0.38059,0.14479 l -0.58743,-0.20065 z" id="path4231" inkscape:connector-curvature="0"/>
    <g transform="matrix(0.70974518,0,0,0.70974518,56.511563,194.43187)" id="g4163" style="stroke:#ffffff;stroke-width:30;stroke-linejoin:round;stroke-miterlimit:4;stroke-dasharray:none">
      <path sodipodi:nodetypes="czcccccccccc" inkscape:connector-curvature="0" id="path4179" d="m 550.508,584.00871 c 0,0 8.04956,3.51277 13.95541,8.41401 5.90585,4.90125 9.42124,18.63183 4.34714,27.85999 -7.11863,14.53669 -25.64565,21.0835 -40.64795,15.62079 -20.28738,-6.50296 -33.80437,-24.64996 -53.17885,-33.01853 -8.01585,-3.91678 -16.69894,-6.62238 -25.6251,-7.27942 -3.94575,6.61484 -8.4633,12.62536 -13.16529,18.73801 21.35832,-3.37897 40.52537,9.60573 56.47109,22.42766 17.16852,14.76996 41.75015,24.47236 64.15297,16.74737 23.25116,-7.33008 39.71423,-34.65791 31.07386,-58.3232 -4.82994,-13.45357 -17.48808,-22.64064 -30.88427,-26.42537 -1.97143,5.74333 -3.8796,11.05005 -6.49901,15.23869 z" style="color:#000000;font-style:normal;font-variant:normal;font-weight:normal;font-stretch:normal;font-size:medium;line-height:normal;font-family:sans-serif;text-indent:0;text-align:start;text-decoration:none;text-decoration-line:none;text-decoration-style:solid;text-decoration-color:#000000;letter-spacing:normal;word-spacing:normal;text-transform:none;direction:ltr;block-progression:tb;writing-mode:lr-tb;baseline-shift:baseline;text-anchor:start;white-space:normal;clip-rule:nonzero;display:inline;overflow:visible;visibility:visible;opacity:1;isolation:auto;mix-blend-mode:normal;color-interpolation:sRGB;color-interpolation-filters:linearRGB;solid-color:#000000;solid-opacity:1;fill:#5a6578;fill-opacity:1;fill-rule:evenodd;stroke:#ffffff;stroke-width:30;stroke-linecap:butt;stroke-linejoin:round;stroke-miterlimit:4;stroke-dasharray:none;stroke-dashoffset:0;stroke-opacity:1;color-rendering:auto;image-rendering:auto;shape-rendering:auto;text-rendering:auto;enable-background:accumulate"/>
      <circle r="132.5043" cy="524.01147" cx="322.5043" id="path4149" style="color:#000000;clip-rule:nonzero;display:inline;overflow:visible;visibility:visible;opacity:0.98999999;isolation:auto;mix-blend-mode:normal;color-interpolation:sRGB;color-interpolation-filters:linearRGB;solid-color:#000000;solid-opacity:1;fill:#5a6578;fill-opacity:1;fill-rule:nonzero;stroke:#ffffff;stroke-width:30;stroke-linecap:butt;stroke-linejoin:round;stroke-miterlimit:4;stroke-dasharray:none;stroke-dashoffset:0;stroke-opacity:1;color-rendering:auto;image-rendering:auto;shape-rendering:auto;text-rendering:auto;enable-background:accumulate"/>
      <circle r="33.084118" cy="439.08423" cx="321.44412" id="path4183" style="color:#000000;clip-rule:nonzero;display:inline;overflow:visible;visibility:visible;opacity:1;isolation:auto;mix-blend-mode:normal;color-interpolation:sRGB;color-interpolation-filters:linearRGB;solid-color:#000000;solid-opacity:1;fill:#ffffff;fill-opacity:1;fill-rule:nonzero;stroke:#ffffff;stroke-width:30;stroke-linecap:butt;stroke-linejoin:round;stroke-miterlimit:4;stroke-dasharray:none;stroke-dashoffset:0;stroke-opacity:1;color-rendering:auto;image-rendering:auto;shape-rendering:auto;text-rendering:auto;enable-background:accumulate"/>
      <circle style="color:#000000;clip-rule:nonzero;display:inline;overflow:visible;visibility:visible;opacity:1;isolation:auto;mix-blend-mode:normal;color-interpolation:sRGB;color-interpolation-filters:linearRGB;solid-color:#000000;solid-opacity:1;fill:#ffffff;fill-opacity:1;fill-rule:nonzero;stroke:#ffffff;stroke-width:30;stroke-linecap:butt;stroke-linejoin:round;stroke-miterlimit:4;stroke-dasharray:none;stroke-dashoffset:0;stroke-opacity:1;color-rendering:auto;image-rendering:auto;shape-rendering:auto;text-rendering:auto;enable-background:accumulate" id="circle4185" cx="243.46538" cy="502.92004" r="33.278999"/>
      <circle r="33.084118" cy="592.55756" cx="273.5437" id="circle4187" style="color:#000000;clip-rule:nonzero;display:inline;overflow:visible;visibility:visible;opacity:1;isolation:auto;mix-blend-mode:normal;color-interpolation:sRGB;color-interpolation-filters:linearRGB;solid-color:#000000;solid-opacity:1;fill:#ffffff;fill-opacity:1;fill-rule:nonzero;stroke:#ffffff;stroke-width:30;stroke-linecap:butt;stroke-linejoin:round;stroke-miterlimit:4;stroke-dasharray:none;stroke-dashoffset:0;stroke-opacity:1;color-rendering:auto;image-rendering:auto;shape-rendering:auto;text-rendering:auto;enable-background:accumulate"/>
      <circle style="color:#000000;clip-rule:nonzero;display:inline;overflow:visible;visibility:visible;opacity:1;isolation:auto;mix-blend-mode:normal;color-interpolation:sRGB;color-interpolation-filters:linearRGB;solid-color:#000000;solid-opacity:1;fill:#ffffff;fill-opacity:1;fill-rule:nonzero;stroke:#ffffff;stroke-width:30;stroke-linecap:butt;stroke-linejoin:round;stroke-miterlimit:4;stroke-dasharray:none;stroke-dashoffset:0;stroke-opacity:1;color-rendering:auto;image-rendering:auto;shape-rendering:auto;text-rendering:auto;enable-background:accumulate" id="circle4189" cx="376.76221" cy="589.8092" r="33.084118"/>
      <circle r="33.084118" cy="494.85098" cx="400.97989" id="circle4191" style="color:#000000;clip-rule:nonzero;display:inline;overflow:visible;visibility:visible;opacity:1;isolation:auto;mix-blend-mode:normal;color-interpolation:sRGB;color-interpolation-filters:linearRGB;solid-color:#000000;solid-opacity:1;fill:#ffffff;fill-opacity:1;fill-rule:nonzero;stroke:#ffffff;stroke-width:30;stroke-linecap:butt;stroke-linejoin:round;stroke-miterlimit:4;stroke-dasharray:none;stroke-dashoffset:0;stroke-opacity:1;color-rendering:auto;image-rendering:auto;shape-rendering:auto;text-rendering:auto;enable-background:accumulate"/>
      <circle r="11.024215" cy="524.34894" cx="322.56619" id="path4193" style="color:#000000;clip-rule:nonzero;display:inline;overflow:visible;visibility:visible;opacity:1;isolation:auto;mix-blend-mode:normal;color-interpolation:sRGB;color-interpolation-filters:linearRGB;solid-color:#000000;solid-opacity:1;fill:#ffffff;fill-opacity:1;fill-rule:nonzero;stroke:#ffffff;stroke-width:30;stroke-linecap:butt;stroke-linejoin:round;stroke-miterlimit:4;stroke-dasharray:none;stroke-dashoffset:0;stroke-opacity:1;color-rendering:auto;image-rendering:auto;shape-rendering:auto;text-rendering:auto;enable-background:accumulate"/>
    </g>
    <g id="g4219" transform="matrix(1.0590277,0,0,1.0590277,-19.264134,-304.24209)">
      <path style="color:#000000;font-style:normal;font-variant:normal;font-weight:normal;font-stretch:normal;font-size:medium;line-height:normal;font-family:sans-serif;text-indent:0;text-align:start;text-decoration:none;text-decoration-line:none;text-decoration-style:solid;text-decoration-color:#000000;letter-spacing:normal;word-spacing:normal;text-transform:none;direction:ltr;block-progression:tb;writing-mode:lr-tb;baseline-shift:baseline;text-anchor:start;white-space:normal;clip-rule:nonzero;display:inline;overflow:visible;visibility:visible;opacity:1;isolation:auto;mix-blend-mode:normal;color-interpolation:sRGB;color-interpolation-filters:linearRGB;solid-color:#000000;solid-opacity:1;fill:#abbe24;fill-opacity:1;fill-rule:evenodd;stroke:none;stroke-width:11.90615177;stroke-linecap:butt;stroke-linejoin:miter;stroke-miterlimit:4;stroke-dasharray:none;stroke-dashoffset:0;stroke-opacity:1;color-rendering:auto;image-rendering:auto;shape-rendering:auto;text-rendering:auto;enable-background:accumulate" d="m 439.49471,862.27331 c 0,0 5.3947,2.35421 9.35271,5.63895 3.95802,3.28475 6.31398,12.48679 2.91339,18.67137 -4.7708,9.74228 -17.18734,14.12986 -27.24167,10.46883 -13.59631,-4.35819 -22.6552,-16.52005 -35.6397,-22.12855 -5.37211,-2.62497 -11.19139,-4.43822 -17.17358,-4.87856 -2.64438,4.43317 -5.67198,8.46133 -8.82319,12.55794 14.31404,-2.26453 27.15953,6.43763 37.84612,15.0307 11.50609,9.89862 27.98035,16.40103 42.9944,11.22385 15.58259,-4.91252 26.61591,-23.22724 20.82525,-39.08737 -3.23695,-9.01639 -11.72026,-15.17344 -20.69819,-17.70991 -1.32122,3.8491 -2.60005,7.40559 -4.35554,10.21275 z" id="path4195" inkscape:connector-curvature="0" sodipodi:nodetypes="czcccccccccc"/>
      <circle style="color:#000000;clip-rule:nonzero;display:inline;overflow:visible;visibility:visible;opacity:0.98999999;isolation:auto;mix-blend-mode:normal;color-interpolation:sRGB;color-interpolation-filters:linearRGB;solid-color:#000000;solid-opacity:1;fill:#abbe24;fill-opacity:1;fill-rule:nonzero;stroke:none;stroke-width:23;stroke-linecap:butt;stroke-linejoin:round;stroke-miterlimit:4;stroke-dasharray:none;stroke-dashoffset:0;stroke-opacity:1;color-rendering:auto;image-rendering:auto;shape-rendering:auto;text-rendering:auto;enable-background:accumulate" id="circle4197" cx="286.68991" cy="822.06403" r="88.802483"/>
      <circle style="color:#000000;clip-rule:nonzero;display:inline;overflow:visible;visibility:visible;opacity:1;isolation:auto;mix-blend-mode:normal;color-interpolation:sRGB;color-interpolation-filters:linearRGB;solid-color:#000000;solid-opacity:1;fill:#ffffff;fill-opacity:1;fill-rule:nonzero;stroke:none;stroke-width:2.70000005;stroke-linecap:butt;stroke-linejoin:round;stroke-miterlimit:4;stroke-dasharray:none;stroke-dashoffset:0;stroke-opacity:1;color-rendering:auto;image-rendering:auto;shape-rendering:auto;text-rendering:auto;enable-background:accumulate" id="circle4199" cx="285.97937" cy="765.14703" r="22.172501"/>
      <circle r="22.303108" cy="807.92883" cx="233.71915" id="circle4201" style="color:#000000;clip-rule:nonzero;display:inline;overflow:visible;visibility:visible;opacity:1;isolation:auto;mix-blend-mode:normal;color-interpolation:sRGB;color-interpolation-filters:linearRGB;solid-color:#000000;solid-opacity:1;fill:#ffffff;fill-opacity:1;fill-rule:nonzero;stroke:none;stroke-width:2.70000005;stroke-linecap:butt;stroke-linejoin:round;stroke-miterlimit:4;stroke-dasharray:none;stroke-dashoffset:0;stroke-opacity:1;color-rendering:auto;image-rendering:auto;shape-rendering:auto;text-rendering:auto;enable-background:accumulate"/>
      <circle style="color:#000000;clip-rule:nonzero;display:inline;overflow:visible;visibility:visible;opacity:1;isolation:auto;mix-blend-mode:normal;color-interpolation:sRGB;color-interpolation-filters:linearRGB;solid-color:#000000;solid-opacity:1;fill:#ffffff;fill-opacity:1;fill-rule:nonzero;stroke:none;stroke-width:2.70000005;stroke-linecap:butt;stroke-linejoin:round;stroke-miterlimit:4;stroke-dasharray:none;stroke-dashoffset:0;stroke-opacity:1;color-rendering:auto;image-rendering:auto;shape-rendering:auto;text-rendering:auto;enable-background:accumulate" id="circle4203" cx="253.87721" cy="868.00262" r="22.172501"/>
      <circle r="22.172501" cy="866.16071" cx="323.05276" id="circle4205" style="color:#000000;clip-rule:nonzero;display:inline;overflow:visible;visibility:visible;opacity:1;isolation:auto;mix-blend-mode:normal;color-interpolation:sRGB;color-interpolation-filters:linearRGB;solid-color:#000000;solid-opacity:1;fill:#ffffff;fill-opacity:1;fill-rule:nonzero;stroke:none;stroke-width:2.70000005;stroke-linecap:butt;stroke-linejoin:round;stroke-miterlimit:4;stroke-dasharray:none;stroke-dashoffset:0;stroke-opacity:1;color-rendering:auto;image-rendering:auto;shape-rendering:auto;text-rendering:auto;enable-background:accumulate"/>
      <circle style="color:#000000;clip-rule:nonzero;display:inline;overflow:visible;visibility:visible;opacity:1;isolation:auto;mix-blend-mode:normal;color-interpolation:sRGB;color-interpolation-filters:linearRGB;solid-color:#000000;solid-opacity:1;fill:#ffffff;fill-opacity:1;fill-rule:nonzero;stroke:none;stroke-width:2.70000005;stroke-linecap:butt;stroke-linejoin:round;stroke-miterlimit:4;stroke-dasharray:none;stroke-dashoffset:0;stroke-opacity:1;color-rendering:auto;image-rendering:auto;shape-rendering:auto;text-rendering:auto;enable-background:accumulate" id="circle4207" cx="339.28311" cy="802.52106" r="22.172501"/>
      <circle style="color:#000000;clip-rule:nonzero;display:inline;overflow:visible;visibility:visible;opacity:1;isolation:auto;mix-blend-mode:normal;color-interpolation:sRGB;color-interpolation-filters:linearRGB;solid-color:#000000;solid-opacity:1;fill:#ffffff;fill-opacity:1;fill-rule:nonzero;stroke:none;stroke-width:2.70000005;stroke-linecap:butt;stroke-linejoin:round;stroke-miterlimit:4;stroke-dasharray:none;stroke-dashoffset:0;stroke-opacity:1;color-rendering:auto;image-rendering:auto;shape-rendering:auto;text-rendering:auto;enable-background:accumulate" id="circle4209" cx="286.73138" cy="822.29016" r="7.3882709"/>
    </g>
  </g>
</svg>
