<?xml version="1.0" encoding="UTF-8" standalone="no"?>
<!-- Created with Inkscape (http://www.inkscape.org/) -->
<svg xmlns:dc="http://purl.org/dc/elements/1.1/" xmlns:cc="http://creativecommons.org/ns#" xmlns:rdf="http://www.w3.org/1999/02/22-rdf-syntax-ns#" xmlns:svg="http://www.w3.org/2000/svg" xmlns="http://www.w3.org/2000/svg" xmlns:xlink="http://www.w3.org/1999/xlink" xmlns:sodipodi="http://sodipodi.sourceforge.net/DTD/sodipodi-0.dtd" xmlns:inkscape="http://www.inkscape.org/namespaces/inkscape" width="210mm" height="297mm" viewBox="0 0 744.09448819 1052.3622047" id="svg2" version="1.1" inkscape:version="0.91 r13725" inkscape:export-xdpi="4" inkscape:export-ydpi="4">
  <defs id="defs4">
    <inkscape:perspective sodipodi:type="inkscape:persp3d" inkscape:vp_x="0 : 526.1811 : 1" inkscape:vp_y="0 : 1000 : 0" inkscape:vp_z="744.09449 : 526.1811 : 1" inkscape:persp3d-origin="372.04724 : 350.7874 : 1" id="perspective4169"/>
    <linearGradient id="linearGradient2224">
      <stop id="stop2226" offset="0" style="stop-color:#7c7c7c;stop-opacity:1;"/>
      <stop id="stop2228" offset="1" style="stop-color:#b8b8b8;stop-opacity:1;"/>
    </linearGradient>
    <linearGradient id="linearGradient15218">
      <stop id="stop15220" offset="0" style="stop-color:#eeeeef;stop-opacity:1;"/>
      <stop id="stop2736" offset="0.59928656" style="stop-color:#d3d7cf;stop-opacity:1;"/>
      <stop id="stop2738" offset="0.82758623" style="stop-color:#ffffff;stop-opacity:1;"/>
      <stop id="stop15222" offset="1" style="stop-color:#d3d7cf;stop-opacity:1;"/>
    </linearGradient>
    <pattern y="0" x="0" height="6" width="6" patternUnits="userSpaceOnUse" id="EMFhbasepattern"/>
    <pattern y="0" x="0" height="6" width="6" patternUnits="userSpaceOnUse" id="EMFhbasepattern-5"/>
    <linearGradient inkscape:collect="always" xlink:href="#linearGradient4195" id="linearGradient4201" x1="286.38269" y1="672.9209" x2="532.51678" y2="367.74933" gradientUnits="userSpaceOnUse" gradientTransform="matrix(1.1363532,0,0,1.1363532,-56.429317,-53.354057)"/>
    <linearGradient inkscape:collect="always" id="linearGradient4195">
      <stop style="stop-color:#4e505d;stop-opacity:1" offset="0" id="stop4197"/>
      <stop style="stop-color:#7a8597;stop-opacity:1" offset="1" id="stop4199"/>
    </linearGradient>
  </defs>
  <sodipodi:namedview id="base" pagecolor="#ffffff" bordercolor="#666666" borderopacity="1.0" inkscape:pageopacity="0.0" inkscape:pageshadow="2" inkscape:zoom="1" inkscape:cx="395.64815" inkscape:cy="535.42163" inkscape:document-units="px" inkscape:current-layer="layer1" showgrid="false" showguides="true" inkscape:guide-bbox="true" inkscape:window-width="1366" inkscape:window-height="721" inkscape:window-x="-4" inkscape:window-y="-4" inkscape:window-maximized="1">
    <sodipodi:guide position="560,730.00002" orientation="0,1" id="guide3338"/>
    <sodipodi:guide position="560,330.00001" orientation="0,1" id="guide3340"/>
    <sodipodi:guide position="190,475.00001" orientation="1,0" id="guide3344"/>
    <sodipodi:guide position="590,451.00001" orientation="1,0" id="guide3346"/>
    <inkscape:grid type="xygrid" id="grid3440"/>
  </sodipodi:namedview>
  <metadata id="metadata7">
    <rdf:RDF>
      <cc:Work rdf:about="">
        <dc:format>image/svg+xml</dc:format>
        <dc:type rdf:resource="http://purl.org/dc/dcmitype/StillImage"/>
        <dc:title>media movie audio</dc:title>
        <dc:date>June 2015</dc:date>
        <dc:creator>
          <cc:Agent>
            <dc:title>Johannes Hechler</dc:title>
          </cc:Agent>
        </dc:creator>
        <dc:rights>
          <cc:Agent>
            <dc:title>Johannes Hechler</dc:title>
          </cc:Agent>
        </dc:rights>
        <dc:publisher>
          <cc:Agent>
            <dc:title>RRZE</dc:title>
          </cc:Agent>
        </dc:publisher>
        <dc:contributor>
          <cc:Agent>
            <dc:title>Ute Weber, Hendrik Eggers</dc:title>
          </cc:Agent>
        </dc:contributor>
      </cc:Work>
    </rdf:RDF>
  </metadata>
  <g inkscape:label="Ebene 1" inkscape:groupmode="layer" id="layer1">
    <g id="g4240" transform="translate(-0.35009642,0.24701472)">
      <path id="path4244" d="m 435.54883,322.10547 -185.13672,0.0195 c -11.38911,-0.0191 -17.07144,5.61131 -17.02344,16.83203 -0.048,93.32377 -0.048,252.41136 -0.0176,366.06836 -0.0303,11.34185 5.68558,17.09626 16.97852,17.01953 l 278.38281,0.0703 c 11.42287,-0.0653 17.10688,-5.74774 17.18164,-17.20703 l 0.002,-272.72461 c -5.1936,0.47604 -20.79146,1.82484 -38.26954,2.47657 -10.61175,0.39565 -21.6751,0.54537 -31.7832,-0.0684 -5.05405,-0.30687 -9.84436,-0.77477 -14.74023,-1.7461 -4.89588,-0.97133 -9.846,-1.54156 -17.22071,-7.10742 -13.69763,-10.33794 -13.88759,-22.91967 -14.22265,-31.82812 -0.33507,-8.90845 0.65027,-17.33284 1.75195,-25.95118 2.20336,-17.23667 4.84052,-35.66104 4.24219,-44.08593 l -0.125,-1.76758 z m 45.65625,50.90625 c -0.0523,0.3951 -0.12784,0.89653 -0.17774,1.28711 -0.48825,3.81953 -0.85418,7.37757 -1.09179,10.41015 3.96859,0.21169 8.59559,0.27569 13.5664,0.23829 -2.04702,-2.04541 -3.9833,-4.0427 -6.06445,-6.08399 -2.2399,-2.19699 -4.00316,-3.70652 -6.23242,-5.85156 z m -1.5586,19.02734 c 0.0686,1.71999 0.6109,1.45369 0,0 z" style="fill:url(#linearGradient4201);fill-opacity:1;fill-rule:evenodd;stroke:none;stroke-width:1px;stroke-linecap:butt;stroke-linejoin:miter;stroke-opacity:1" inkscape:connector-curvature="0"/>
      <path style="fill:#99b000;fill-opacity:1;fill-rule:evenodd;stroke:none;stroke-width:1px;stroke-linecap:butt;stroke-linejoin:miter;stroke-opacity:1" d="m 460.61043,322.10257 c 4.54635,-1.18483 85.25811,76.62516 85.25811,84.98046 0,0 -75.44211,7.35253 -86.90512,-1.29887 -11.46301,-8.65141 3.62243,-55.86651 1.64701,-83.68159 z" id="path4288" inkscape:connector-curvature="0" sodipodi:nodetypes="cczc" inkscape:export-xdpi="3.46731" inkscape:export-ydpi="3.46731"/>
      <rect ry="12.5" y="472.66437" x="264.29016" height="25.102289" width="248.79578" id="rect4227" style="color:#252525;clip-rule:nonzero;display:inline;overflow:visible;visibility:visible;opacity:0.98000004;isolation:auto;mix-blend-mode:normal;color-interpolation:sRGB;color-interpolation-filters:linearRGB;solid-color:#252525;solid-opacity:1;fill:#ffffff;fill-opacity:1;fill-rule:nonzero;stroke:none;stroke-width:50;stroke-linecap:square;stroke-linejoin:round;stroke-miterlimit:4;stroke-dasharray:none;stroke-dashoffset:0;stroke-opacity:1;color-rendering:auto;image-rendering:auto;shape-rendering:auto;text-rendering:auto;enable-background:accumulate"/>
      <rect style="color:#252525;clip-rule:nonzero;display:inline;overflow:visible;visibility:visible;opacity:0.98000004;isolation:auto;mix-blend-mode:normal;color-interpolation:sRGB;color-interpolation-filters:linearRGB;solid-color:#252525;solid-opacity:1;fill:#ffffff;fill-opacity:1;fill-rule:nonzero;stroke:none;stroke-width:50;stroke-linecap:square;stroke-linejoin:round;stroke-miterlimit:4;stroke-dasharray:none;stroke-dashoffset:0;stroke-opacity:1;color-rendering:auto;image-rendering:auto;shape-rendering:auto;text-rendering:auto;enable-background:accumulate" id="rect4229" width="204.60161" height="25.102289" x="264.29016" y="523.05499" ry="12.5"/>
      <rect ry="12.5" y="572.77344" x="264.29016" height="25.102289" width="225.59384" id="rect4233" style="color:#252525;clip-rule:nonzero;display:inline;overflow:visible;visibility:visible;opacity:0.98000004;isolation:auto;mix-blend-mode:normal;color-interpolation:sRGB;color-interpolation-filters:linearRGB;solid-color:#252525;solid-opacity:1;fill:#ffffff;fill-opacity:1;fill-rule:nonzero;stroke:none;stroke-width:50;stroke-linecap:square;stroke-linejoin:round;stroke-miterlimit:4;stroke-dasharray:none;stroke-dashoffset:0;stroke-opacity:1;color-rendering:auto;image-rendering:auto;shape-rendering:auto;text-rendering:auto;enable-background:accumulate"/>
    </g>
    <rect style="opacity:1;fill:none;fill-opacity:1;stroke:none;stroke-width:23;stroke-linecap:butt;stroke-linejoin:round;stroke-miterlimit:4;stroke-dasharray:none;stroke-opacity:1" id="rect4160" width="400" height="400" x="190" y="322.36221"/>
    <path style="color:#252525;font-style:normal;font-variant:normal;font-weight:normal;font-stretch:normal;font-size:medium;line-height:normal;font-family:sans-serif;text-indent:0;text-align:start;text-decoration:none;text-decoration-line:none;text-decoration-style:solid;text-decoration-color:#252525;letter-spacing:normal;word-spacing:normal;text-transform:none;direction:ltr;block-progression:tb;writing-mode:lr-tb;baseline-shift:baseline;text-anchor:start;white-space:normal;clip-rule:nonzero;display:inline;overflow:visible;visibility:visible;opacity:1;isolation:auto;mix-blend-mode:normal;color-interpolation:sRGB;color-interpolation-filters:linearRGB;solid-color:#252525;solid-opacity:1;fill:#ffffff;fill-opacity:1;fill-rule:nonzero;stroke:#4e505d;stroke-width:20;stroke-linecap:butt;stroke-linejoin:round;stroke-miterlimit:4;stroke-dasharray:none;stroke-dashoffset:60.95800018;stroke-opacity:1;color-rendering:auto;image-rendering:auto;shape-rendering:auto;text-rendering:auto;enable-background:accumulate" d="m 228.53711,422.33594 c -15.09817,0 -27.7207,12.62728 -27.7207,27.72265 l 0,101.78907 c 0,15.09537 12.62258,27.72265 27.7207,27.72265 l 178.13086,0 c 14.51239,0 26.61809,-11.69454 27.54492,-26.00781 l 21.42578,14.28516 c 10.07975,6.72102 23.67957,2.07431 29.36719,-7.59766 l 0,71.18945 c -8.98868,-1.27013 -18.09426,-1.02889 -26.99024,-0.37695 a 15.0015,15.0015 0 0 0 -0.0117,0 c -19.52346,1.44544 -37.08532,9.05809 -49.89258,20.73242 -12.80726,11.67433 -21.26277,28.54352 -18.38086,46.50391 2.67711,16.68412 15.0495,29.5155 29.22461,34.58008 14.17511,5.06458 29.91103,5.14668 47.0625,3.87695 a 15.0015,15.0015 0 0 0 0.008,0 c 15.81192,-1.17896 30.72229,-5.45813 43.15234,-12.69531 12.43006,-7.23719 22.93728,-17.85848 26.57422,-32.18946 a 15.0015,15.0015 0 0 0 0.46094,-3.62695 c 0.10317,-24.41536 0.31709,-47.1275 0.46875,-69.58789 a 15.0015,15.0015 0 0 0 3.45117,2.20117 l 7.75196,3.54492 a 15.0015,15.0015 0 0 0 19.80664,-7.24414 c 0,0 4.3174,-9.11086 7.5039,-20.92773 3.1865,-11.81688 6.42609,-26.94011 0.19336,-42.37109 -4.58626,-11.35466 -10.59062,-19.28039 -16.10742,-25.20899 -5.5168,-5.9286 -10.06452,-9.92253 -14.73437,-16.12305 -4.27205,-5.6723 -10.44724,-18.91369 -14.67774,-30.01757 -4.2305,-11.10389 -6.95703,-20.18164 -6.95703,-20.18165 a 15.0015,15.0015 0 0 0 -14.36719,-10.68945 l -8.53906,0 A 15.0015,15.0015 0 0 0 487.75,458.02344 l 0,-6.92969 a 15.0015,15.0015 0 0 0 0,-0.004 c -0.002,-11.44568 -9.81489,-20.97227 -21.25391,-20.63867 l -0.004,0 c -3.85902,0.11295 -7.61942,1.30609 -10.84766,3.45703 a 15.0015,15.0015 0 0 0 -0.004,0.002 l -21.4414,14.29492 c -0.99721,-14.24924 -13.06616,-25.86914 -27.53125,-25.86914 l -178.13086,0 z m 2.2793,30 173.57421,0 0,23.76758 a 15.0015,15.0015 0 0 0 23.32032,12.48046 l 30.03906,-20.02539 0,64.64063 -30.03906,-20.02734 a 15.0015,15.0015 0 0 0 -23.32032,12.48046 l 0,23.91797 -173.57421,0 0,-97.23437 z m 284.18945,69.76562 c 1.0968,1.87339 2.32804,3.60083 3.5293,5.36328 a 15.0015,15.0015 0 0 0 -3.5293,1.39844 l 0,-6.76172 z M 470.39648,660.5625 c 9.46746,-0.0161 16.80239,1.23504 22.2754,4.30273 a 15.0015,15.0015 0 0 0 13.69335,0.47852 c -0.0343,6.78507 -0.1043,13.17022 -0.13476,20.22656 -1.38181,3.83818 -5.11299,8.46933 -12.14649,12.56446 -7.68125,4.47227 -18.59556,7.83123 -30.28906,8.70312 -15.28946,1.13125 -27.81101,0.26688 -34.74609,-2.21094 -6.93633,-2.47825 -8.52649,-3.78561 -9.69727,-11.08203 -0.96599,-6.02016 1.64028,-12.89988 8.96875,-19.58008 7.32848,-6.68019 18.97632,-12.02767 31.89844,-12.98437 3.63482,-0.26614 7.02554,-0.4126 10.17773,-0.41797 z" id="path4201" inkscape:connector-curvature="0"/>
    <g id="g4194">
      <path inkscape:connector-curvature="0" style="color:#252525;clip-rule:nonzero;display:inline;overflow:visible;visibility:visible;opacity:1;isolation:auto;mix-blend-mode:normal;color-interpolation:sRGB;color-interpolation-filters:linearRGB;solid-color:#252525;solid-opacity:1;fill:#99b000;fill-opacity:1;fill-rule:nonzero;stroke:#ffffff;stroke-width:35;stroke-linecap:butt;stroke-linejoin:round;stroke-miterlimit:4;stroke-dasharray:none;stroke-dashoffset:60.95800018;stroke-opacity:1;color-rendering:auto;image-rendering:auto;shape-rendering:auto;text-rendering:auto;enable-background:accumulate" d="m 389.11165,552.8293 c -5.49691,0 -9.92131,4.42441 -9.92131,9.9213 l 0,79.37827 c 0,5.49691 4.4244,9.9213 9.92131,9.9213 l 138.91197,0 c 5.4969,0 9.92129,-4.42439 9.92129,-9.9213 l 0,-20.42851 34.7571,23.1727 c 2.92936,1.95325 6.85349,-0.14662 6.85356,-3.66747 l 0,-77.6481 c -5.1e-4,-2.48486 -2.05368,-4.47823 -4.53747,-4.4053 -0.82593,0.024 -1.62847,0.27968 -2.31609,0.73783 l -34.7571,23.17074 0,-20.31016 c 0,-5.49689 -4.42439,-9.9213 -9.92129,-9.9213 l -138.91197,0 z" id="path4188" transform="matrix(1.2823271,0,0,1.2823271,-270.43041,-271.57114)"/>
      <path style="fill:#ffffff;fill-rule:evenodd;stroke:#ffffff;stroke-width:35;stroke-linecap:butt;stroke-linejoin:miter;stroke-opacity:1;stroke-miterlimit:4;stroke-dasharray:none" d="m 436.73913,570.68866 0,63.50211 47.62658,-31.75105 z" id="path4190" inkscape:connector-curvature="0" transform="matrix(1.2823271,0,0,1.2823271,-270.43041,-271.57114)"/>
      <path style="color:#252525;clip-rule:nonzero;display:inline;overflow:visible;visibility:visible;opacity:1;isolation:auto;mix-blend-mode:normal;color-interpolation:sRGB;color-interpolation-filters:linearRGB;solid-color:#252525;solid-opacity:1;fill:#99b000;fill-opacity:1;fill-rule:nonzero;stroke:#ffffff;stroke-width:35;stroke-linecap:butt;stroke-linejoin:round;stroke-miterlimit:4;stroke-dasharray:none;stroke-dashoffset:0;stroke-opacity:1;color-rendering:auto;image-rendering:auto;shape-rendering:auto;text-rendering:auto;enable-background:accumulate" d="m 500.00499,466.63814 0,29.45362 0,155.68993 c -11.52747,-6.46131 -25.40639,-6.8955 -40.89381,-5.76051 -32.44558,2.40215 -58.41772,25.91949 -54.56982,49.90003 3.84789,23.98054 27.92384,28.27798 60.36849,25.87609 27.50541,-2.05085 51.64828,-15.273 56.3031,-33.6148 0.21673,-51.29026 0.53029,-93.89959 0.98178,-146.17777 2.13188,2.41897 5.11928,5.33395 7.55128,7.5321 11.83161,10.69387 16.34391,14.19673 20.21307,25.54974 3.86916,11.35302 -3.58852,32.12998 -3.58852,32.12998 l 7.75238,3.54567 c 0,0 15.1194,-32.06913 7.35745,-51.28615 -7.76195,-19.21702 -17.74701,-23.09605 -28.91527,-37.92497 -12.54084,-16.65137 -24.01927,-54.91296 -24.01927,-54.91296 z" id="path4186" inkscape:connector-curvature="0" sodipodi:nodetypes="cccczcccszcczscc"/>
    </g>
    <path style="color:#252525;clip-rule:nonzero;display:inline;overflow:visible;visibility:visible;opacity:1;isolation:auto;mix-blend-mode:normal;color-interpolation:sRGB;color-interpolation-filters:linearRGB;solid-color:#252525;solid-opacity:1;fill:#99b000;fill-opacity:1;fill-rule:nonzero;stroke:none;stroke-width:23;stroke-linecap:butt;stroke-linejoin:round;stroke-miterlimit:4;stroke-dasharray:none;stroke-dashoffset:0;stroke-opacity:1;color-rendering:auto;image-rendering:auto;shape-rendering:auto;text-rendering:auto;enable-background:accumulate" d="m 500.00499,466.63814 0,29.45362 0,155.68993 c -11.52747,-6.46131 -25.40639,-6.8955 -40.89381,-5.76051 -32.44558,2.40215 -58.41772,25.91949 -54.56982,49.90003 3.84789,23.98054 27.92384,28.27798 60.36849,25.87609 27.50541,-2.05085 51.64828,-15.273 56.3031,-33.6148 0.21673,-51.29026 0.53029,-93.89959 0.98178,-146.17777 2.13188,2.41897 5.11928,5.33395 7.55128,7.5321 11.83161,10.69387 16.34391,14.19673 20.21307,25.54974 3.86916,11.35302 -3.58852,32.12998 -3.58852,32.12998 l 7.75238,3.54567 c 0,0 15.1194,-32.06913 7.35745,-51.28615 -7.76195,-19.21702 -17.74701,-23.09605 -28.91527,-37.92497 -12.54084,-16.65137 -24.01927,-54.91296 -24.01927,-54.91296 z" id="path4149" inkscape:connector-curvature="0" sodipodi:nodetypes="cccczcccszcczscc"/>
    <g id="g4182" transform="matrix(1.2823271,0,0,1.2823271,-270.43041,-271.57114)">
      <path inkscape:connector-curvature="0" style="color:#252525;clip-rule:nonzero;display:inline;overflow:visible;visibility:visible;opacity:1;isolation:auto;mix-blend-mode:normal;color-interpolation:sRGB;color-interpolation-filters:linearRGB;solid-color:#252525;solid-opacity:1;fill:#99b000;fill-opacity:1;fill-rule:nonzero;stroke:none;stroke-width:12;stroke-linecap:butt;stroke-linejoin:round;stroke-miterlimit:4;stroke-dasharray:none;stroke-dashoffset:60.95800018;stroke-opacity:1;color-rendering:auto;image-rendering:auto;shape-rendering:auto;text-rendering:auto;enable-background:accumulate" d="m 389.11165,552.8293 c -5.49691,0 -9.92131,4.42441 -9.92131,9.9213 l 0,79.37827 c 0,5.49691 4.4244,9.9213 9.92131,9.9213 l 138.91197,0 c 5.4969,0 9.92129,-4.42439 9.92129,-9.9213 l 0,-20.42851 34.7571,23.1727 c 2.92936,1.95325 6.85349,-0.14662 6.85356,-3.66747 l 0,-77.6481 c -5.1e-4,-2.48486 -2.05368,-4.47823 -4.53747,-4.4053 -0.82593,0.024 -1.62847,0.27968 -2.31609,0.73783 l -34.7571,23.17074 0,-20.31016 c 0,-5.49689 -4.42439,-9.9213 -9.92129,-9.9213 l -138.91197,0 z" id="rect4204"/>
      <path style="fill:#ffffff;fill-rule:evenodd;stroke:none;stroke-width:1px;stroke-linecap:butt;stroke-linejoin:miter;stroke-opacity:1" d="m 436.73913,570.68866 0,63.50211 47.62658,-31.75105 z" id="path4208" inkscape:connector-curvature="0"/>
    </g>
  </g>
</svg>
