<?xml version="1.0" encoding="UTF-8" standalone="no"?>
<!-- Created with Inkscape (http://www.inkscape.org/) -->

<svg
   xmlns:dc="http://purl.org/dc/elements/1.1/"
   xmlns:cc="http://creativecommons.org/ns#"
   xmlns:rdf="http://www.w3.org/1999/02/22-rdf-syntax-ns#"
   xmlns:svg="http://www.w3.org/2000/svg"
   xmlns="http://www.w3.org/2000/svg"
   xmlns:xlink="http://www.w3.org/1999/xlink"
   xmlns:sodipodi="http://sodipodi.sourceforge.net/DTD/sodipodi-0.dtd"
   xmlns:inkscape="http://www.inkscape.org/namespaces/inkscape"
   width="210mm"
   height="297mm"
   viewBox="0 0 744.09448819 1052.3622047"
   id="svg2"
   version="1.1"
   inkscape:version="0.91 r13725"
   inkscape:export-xdpi="7.1992793"
   inkscape:export-ydpi="7.1992793"
   sodipodi:docname="media-audio-virtual-slide.svg"
   inkscape:export-filename="C:\Users\johannes\Documents\Arbeit\RRZE\github3\bicons\32x32\mime-types\media-audio-virtual-slide.png">
  <defs
     id="defs4">
    <inkscape:perspective
       sodipodi:type="inkscape:persp3d"
       inkscape:vp_x="0 : 526.1811 : 1"
       inkscape:vp_y="0 : 1000 : 0"
       inkscape:vp_z="744.09449 : 526.1811 : 1"
       inkscape:persp3d-origin="372.04724 : 350.7874 : 1"
       id="perspective4169" />
    <linearGradient
       id="linearGradient2224">
      <stop
         id="stop2226"
         offset="0"
         style="stop-color:#7c7c7c;stop-opacity:1;" />
      <stop
         id="stop2228"
         offset="1"
         style="stop-color:#b8b8b8;stop-opacity:1;" />
    </linearGradient>
    <linearGradient
       id="linearGradient15218">
      <stop
         id="stop15220"
         offset="0"
         style="stop-color:#eeeeef;stop-opacity:1;" />
      <stop
         id="stop2736"
         offset="0.59928656"
         style="stop-color:#d3d7cf;stop-opacity:1;" />
      <stop
         id="stop2738"
         offset="0.82758623"
         style="stop-color:#ffffff;stop-opacity:1;" />
      <stop
         id="stop15222"
         offset="1"
         style="stop-color:#d3d7cf;stop-opacity:1;" />
    </linearGradient>
    <pattern
       y="0"
       x="0"
       height="6"
       width="6"
       patternUnits="userSpaceOnUse"
       id="EMFhbasepattern" />
    <pattern
       y="0"
       x="0"
       height="6"
       width="6"
       patternUnits="userSpaceOnUse"
       id="EMFhbasepattern-5" />
    <linearGradient
       inkscape:collect="always"
       xlink:href="#linearGradient4321"
       id="linearGradient4201"
       x1="286.38269"
       y1="672.9209"
       x2="532.51678"
       y2="367.74933"
       gradientUnits="userSpaceOnUse"
       gradientTransform="matrix(1.1363532,0,0,1.1363532,-55.58317,-53.07408)" />
    <linearGradient
       id="linearGradient4321"
       inkscape:collect="always">
      <stop
         id="stop4323"
         offset="0"
         style="stop-color:#4e505d;stop-opacity:1;" />
      <stop
         id="stop4325"
         offset="1"
         style="stop-color:#7a8597;stop-opacity:1" />
    </linearGradient>
  </defs>
  <sodipodi:namedview
     id="base"
     pagecolor="#ffffff"
     bordercolor="#666666"
     borderopacity="1.0"
     inkscape:pageopacity="0.0"
     inkscape:pageshadow="2"
     inkscape:zoom="1"
     inkscape:cx="420.33335"
     inkscape:cy="523.07633"
     inkscape:document-units="px"
     inkscape:current-layer="layer1"
     showgrid="false"
     showguides="true"
     inkscape:guide-bbox="true"
     inkscape:window-width="1366"
     inkscape:window-height="721"
     inkscape:window-x="-4"
     inkscape:window-y="-4"
     inkscape:window-maximized="1"
     inkscape:snap-bbox="true"
     inkscape:bbox-paths="true"
     inkscape:bbox-nodes="true">
    <sodipodi:guide
       position="560,730.00002"
       orientation="0,1"
       id="guide3338" />
    <sodipodi:guide
       position="560,330.00001"
       orientation="0,1"
       id="guide3340" />
    <sodipodi:guide
       position="190,475.00001"
       orientation="1,0"
       id="guide3344" />
    <sodipodi:guide
       position="590,451.00001"
       orientation="1,0"
       id="guide3346" />
    <inkscape:grid
       type="xygrid"
       id="grid3440" />
  </sodipodi:namedview>
  <metadata
     id="metadata7">
    <rdf:RDF>
      <cc:Work
         rdf:about="">
        <dc:format>image/svg+xml</dc:format>
        <dc:type
           rdf:resource="http://purl.org/dc/dcmitype/StillImage" />
        <dc:title>media audio virtual slide</dc:title>
        <dc:date>June 2015</dc:date>
        <dc:creator>
          <cc:Agent>
            <dc:title>Johannes Hechler</dc:title>
          </cc:Agent>
        </dc:creator>
        <dc:rights>
          <cc:Agent>
            <dc:title>Johannes Hechler</dc:title>
          </cc:Agent>
        </dc:rights>
        <dc:publisher>
          <cc:Agent>
            <dc:title>RRZE</dc:title>
          </cc:Agent>
        </dc:publisher>
        <dc:contributor>
          <cc:Agent>
            <dc:title>Ute Weber, Hendrik Eggers</dc:title>
          </cc:Agent>
        </dc:contributor>
      </cc:Work>
    </rdf:RDF>
  </metadata>
  <g
     inkscape:label="Ebene 1"
     inkscape:groupmode="layer"
     id="layer1">
    <rect
       style="fill:none;fill-rule:evenodd;stroke:none;stroke-width:1px;stroke-linecap:butt;stroke-linejoin:miter;stroke-opacity:1"
       id="rect3336"
       width="400"
       height="400"
       x="190"
       y="322.36221"
       inkscape:export-xdpi="3.5999999"
       inkscape:export-ydpi="3.5999999" />
    <rect
       style="fill:none;fill-rule:evenodd;stroke:none;stroke-width:1px;stroke-linecap:butt;stroke-linejoin:miter;stroke-opacity:1"
       id="rect3336-0"
       width="400"
       height="400"
       x="190.04007"
       y="322.41422"
       inkscape:export-xdpi="3.46731"
       inkscape:export-ydpi="3.46731" />
    <path
       style="fill:url(#linearGradient4201);fill-opacity:1;fill-rule:evenodd;stroke:none;stroke-width:1px;stroke-linecap:butt;stroke-linejoin:miter;stroke-opacity:1"
       d="M 446.39453 322.38477 L 251.25781 322.4043 C 239.8687 322.3852 234.18637 328.01561 234.23438 339.23633 C 234.18637 432.56011 234.1864 591.64785 234.2168 705.30469 C 234.1865 716.64659 239.90237 722.40092 251.19531 722.32422 L 391.69141 722.35938 C 387.10732 713.25091 386.96375 702.03092 392.35156 692.72656 L 400.64453 678.4082 L 375.22461 678.375 C 372.69813 678.37174 370.20063 677.8367 367.89453 676.80469 C 367.89453 676.80469 363.56861 674.94054 358.91992 671.57031 C 354.27123 668.20009 345.70896 662.82708 345.72656 648.80078 L 345.84961 552.14258 C 346.66585 552.12715 347.23424 552.13823 347.94141 552.13477 C 347.34747 552.05866 346.82857 552.00817 346.17578 551.91016 C 341.46976 547.81728 338.94803 536.92154 338.95703 529.51953 L 338.95703 529.51758 L 338.96875 520.28906 C 338.98443 508.06801 349.39252 497.68883 361.61133 497.70312 L 361.61328 497.70312 L 546.76172 497.94141 L 546.76172 422.46289 C 541.56812 422.93893 525.97027 424.28772 508.49219 424.93945 C 497.88044 425.3351 486.81708 425.48486 476.70898 424.87109 C 471.65493 424.56422 466.86462 424.09633 461.96875 423.125 C 457.07287 422.15366 455.24871 422.54717 448.24805 416.51758 C 442.05042 411.17964 440.86045 403.0979 440.52539 394.18945 C 440.19032 385.281 441.17566 376.85662 442.27734 368.23828 C 444.4807 351.00161 447.11786 332.57723 446.51953 324.15234 L 446.39453 322.38477 z M 347.94141 552.13477 C 357.02341 553.29856 358.94395 552.08089 347.94141 552.13477 z M 482.05078 373.29102 C 481.99848 373.68612 481.92295 374.18754 481.87305 374.57812 C 481.3848 378.39765 481.01886 381.9557 480.78125 384.98828 C 484.74984 385.19997 489.37685 385.26396 494.34766 385.22656 C 492.30064 383.18115 490.36435 381.18387 488.2832 379.14258 C 486.0433 376.94559 484.28004 375.43606 482.05078 373.29102 z M 480.49219 392.31836 C 480.56079 394.03835 481.10309 393.77205 480.49219 392.31836 z M 381.84961 533.72852 C 381.85941 533.88206 381.86705 534.03571 381.87305 534.18945 L 381.73438 642.38281 L 431.86719 642.44922 C 439.63336 642.47089 446.51013 647.47061 448.92578 654.85156 C 456.34695 649.86174 466.30594 651.07615 472.31055 657.70312 C 478.3081 649.01831 490.45632 647.33275 498.5918 654.05664 C 501.27885 647.11909 507.95674 642.54964 515.39648 642.55664 L 546.75977 642.5957 L 546.76172 533.94141 L 381.84961 533.72852 z M 379.8418 642.01172 C 379.74712 642.04058 379.8224 642.20578 380.02734 642.38086 L 380.35156 642.38086 C 380.13933 642.15527 379.9272 641.98572 379.8418 642.01172 z M 546.52734 678.5957 L 546.75977 679 L 546.75977 678.5957 L 546.52734 678.5957 z "
       id="path4244" />
    <path
       inkscape:export-ydpi="3.46731"
       inkscape:export-xdpi="3.46731"
       sodipodi:nodetypes="cczc"
       inkscape:connector-curvature="0"
       id="path4288"
       d="m 461.45658,322.38255 c 4.54635,-1.18483 85.25811,76.62516 85.25811,84.98046 0,0 -75.44211,7.35253 -86.90512,-1.29887 -11.46301,-8.65141 3.62243,-55.86651 1.64701,-83.68159 z"
       style="fill:#99b000;fill-opacity:1;fill-rule:evenodd;stroke:none;stroke-width:1px;stroke-linecap:butt;stroke-linejoin:miter;stroke-opacity:1" />
    <path
       style="color:#000000;clip-rule:nonzero;display:inline;overflow:visible;visibility:visible;opacity:1;isolation:auto;mix-blend-mode:normal;color-interpolation:sRGB;color-interpolation-filters:linearRGB;solid-color:#000000;solid-opacity:1;fill:#ffffff;fill-opacity:1;fill-rule:evenodd;stroke:none;stroke-width:50;stroke-linecap:butt;stroke-linejoin:miter;stroke-miterlimit:4;stroke-dasharray:none;stroke-dashoffset:0;stroke-opacity:1;color-rendering:auto;image-rendering:auto;shape-rendering:auto;text-rendering:auto;enable-background:accumulate"
       d="M 271.80859 467.80078 C 266.77274 467.80078 262.71875 471.85476 262.71875 476.89062 C 262.71875 481.92649 266.77274 485.98047 271.80859 485.98047 L 340.17969 485.98047 C 345.45205 482.72678 351.52666 480.63564 358.03516 480.0625 A 18.0018 18.0018 0 0 1 358.04492 480.06055 A 18.0018 18.0018 0 0 1 361.61133 479.70312 L 361.61328 479.70312 A 18.0018 18.0018 0 0 1 361.63281 479.70312 A 18.0018 18.0018 0 0 1 361.63672 479.70312 L 498.55078 479.87891 C 498.87504 478.94262 499.05859 477.93998 499.05859 476.89062 C 499.05859 471.85476 495.00461 467.80078 489.96875 467.80078 L 271.80859 467.80078 z M 271.80859 522.3418 C 266.77274 522.3418 262.71875 526.39578 262.71875 531.43164 C 262.71875 536.46749 266.77274 540.52148 271.80859 540.52148 L 321.97266 540.52148 C 321.28496 536.80847 320.95259 533.147 320.95703 529.49805 A 18.0018 18.0018 0 0 1 320.95703 529.49414 L 320.9668 522.3418 L 271.80859 522.3418 z M 356.9668 522.3418 L 356.95703 529.51953 L 356.95703 529.5293 A 18.0018 18.0018 0 0 1 356.95703 529.54102 C 356.95566 530.6718 357.37456 532.72973 357.72461 534.5957 C 357.93303 534.627 358.03141 534.6139 358.26758 534.6543 C 359.05466 534.78907 359.59387 534.61532 362.68555 535.94336 C 362.9926 536.07525 363.42593 536.17585 363.87109 536.29883 L 363.87305 534.40625 A 18.0018 18.0018 0 0 1 367.93555 522.3418 L 356.9668 522.3418 z M 363.87891 534.48828 L 363.88672 534.875 L 363.91406 534.93555 A 18.0018 18.0018 0 0 1 363.87891 534.48828 z M 271.80859 576.88086 C 266.77274 576.88086 262.71875 580.93484 262.71875 585.9707 C 262.71875 591.00655 266.77274 595.06055 271.80859 595.06055 L 327.79492 595.06055 L 327.81836 576.88086 L 271.80859 576.88086 z M 399.81836 576.88086 L 399.79492 595.06055 L 453.60938 595.06055 C 458.64524 595.06055 462.69922 591.00655 462.69922 585.9707 C 462.69922 580.93484 458.64524 576.88086 453.60938 576.88086 L 399.81836 576.88086 z "
       id="rect4232" />
    <rect
       style="opacity:1;fill:none;fill-opacity:1;stroke:none;stroke-width:23;stroke-linecap:butt;stroke-linejoin:round;stroke-miterlimit:4;stroke-dasharray:none;stroke-opacity:1"
       id="rect4160"
       width="400"
       height="400"
       x="190"
       y="322.36221" />
    <path
       style="opacity:1;fill:#99b000;fill-opacity:1;stroke:none;stroke-width:16;stroke-linecap:round;stroke-linejoin:round;stroke-miterlimit:4;stroke-dasharray:none;stroke-opacity:1"
       d="m 361.59037,515.70364 c -2.5564,-0.003 -4.61793,2.053 -4.62121,4.60939 l -0.0118,9.22821 c -0.003,2.55641 2.05298,4.61794 4.60938,4.62122 l 2.30647,0.003 -0.14706,114.65831 c -0.008,6.39105 11.52224,11.55186 11.52224,11.55186 l 56.5954,0.0726 -23.91586,41.29917 c -3.61666,6.2457 -1.50028,14.1862 4.74545,17.80286 l 1.81035,1.04679 c 6.24573,3.61665 14.18622,1.50029 17.80287,-4.74544 l 26.68976,-46.09495 -0.05,38.93966 c -0.009,7.2173 5.79212,13.03355 13.0094,13.04281 l 2.09135,0.003 c 7.21727,0.009 13.03592,-5.79209 13.04518,-13.00939 l 0.0524,-40.83263 27.41566,47.62471 c 3.60063,6.25498 11.53566,8.39172 17.79063,4.7911 l 1.81066,-1.04216 c 6.25498,-3.60062 8.39171,-11.53567 4.79109,-17.79064 l -23.55943,-40.92744 55.98831,0.0718 c 0,0 11.54365,-5.13122 11.55185,-11.52226 l 0.14706,-114.65831 2.30645,0.003 c 2.55639,0.003 4.61794,-2.05297 4.62122,-4.60938 l 0.0118,-9.22821 c 0.003,-2.55639 -2.05299,-4.61795 -4.60938,-4.62123 l -223.80026,-0.28704 z"
       id="rect4169"
       inkscape:connector-curvature="0" />
    <path
       style="fill:#ffffff;fill-rule:evenodd;stroke:none;stroke-width:1px;stroke-linecap:butt;stroke-linejoin:miter;stroke-opacity:1"
       d="m 439.55855,532.49368 -0.1414,110.1711 82.69899,-54.97957 z"
       id="path4208"
       inkscape:connector-curvature="0" />
  </g>
</svg>
