<?xml version="1.0" encoding="UTF-8" standalone="no"?>
<!-- Created with Inkscape (http://www.inkscape.org/) -->

<svg
   xmlns:dc="http://purl.org/dc/elements/1.1/"
   xmlns:cc="http://creativecommons.org/ns#"
   xmlns:rdf="http://www.w3.org/1999/02/22-rdf-syntax-ns#"
   xmlns:svg="http://www.w3.org/2000/svg"
   xmlns="http://www.w3.org/2000/svg"
   xmlns:xlink="http://www.w3.org/1999/xlink"
   xmlns:sodipodi="http://sodipodi.sourceforge.net/DTD/sodipodi-0.dtd"
   xmlns:inkscape="http://www.inkscape.org/namespaces/inkscape"
   width="210mm"
   height="297mm"
   viewBox="0 0 744.09448819 1052.3622047"
   id="svg2"
   version="1.1"
   inkscape:version="0.91 r13725"
   inkscape:export-xdpi="7.1992793"
   inkscape:export-ydpi="7.1992793"
   sodipodi:docname="media-movie.svg"
   inkscape:export-filename="C:\Users\johannes\Documents\Arbeit\RRZE\github3\bicons\32x32\mime-types\media-movie.png">
  <defs
     id="defs4">
    <inkscape:perspective
       sodipodi:type="inkscape:persp3d"
       inkscape:vp_x="0 : 526.1811 : 1"
       inkscape:vp_y="0 : 1000 : 0"
       inkscape:vp_z="744.09449 : 526.1811 : 1"
       inkscape:persp3d-origin="372.04724 : 350.7874 : 1"
       id="perspective4169" />
    <linearGradient
       id="linearGradient2224">
      <stop
         id="stop2226"
         offset="0"
         style="stop-color:#7c7c7c;stop-opacity:1;" />
      <stop
         id="stop2228"
         offset="1"
         style="stop-color:#b8b8b8;stop-opacity:1;" />
    </linearGradient>
    <linearGradient
       id="linearGradient15218">
      <stop
         id="stop15220"
         offset="0"
         style="stop-color:#eeeeef;stop-opacity:1;" />
      <stop
         id="stop2736"
         offset="0.59928656"
         style="stop-color:#d3d7cf;stop-opacity:1;" />
      <stop
         id="stop2738"
         offset="0.82758623"
         style="stop-color:#ffffff;stop-opacity:1;" />
      <stop
         id="stop15222"
         offset="1"
         style="stop-color:#d3d7cf;stop-opacity:1;" />
    </linearGradient>
    <pattern
       y="0"
       x="0"
       height="6"
       width="6"
       patternUnits="userSpaceOnUse"
       id="EMFhbasepattern" />
    <pattern
       y="0"
       x="0"
       height="6"
       width="6"
       patternUnits="userSpaceOnUse"
       id="EMFhbasepattern-5" />
    <linearGradient
       inkscape:collect="always"
       xlink:href="#linearGradient4321"
       id="linearGradient4201"
       x1="286.38269"
       y1="672.9209"
       x2="532.51678"
       y2="367.74933"
       gradientUnits="userSpaceOnUse"
       gradientTransform="matrix(1.1363532,0,0,1.1363532,-55.583174,-53.074087)" />
    <linearGradient
       id="linearGradient4321"
       inkscape:collect="always">
      <stop
         id="stop4323"
         offset="0"
         style="stop-color:#4e505d;stop-opacity:1;" />
      <stop
         id="stop4325"
         offset="1"
         style="stop-color:#7a8597;stop-opacity:1" />
    </linearGradient>
  </defs>
  <sodipodi:namedview
     id="base"
     pagecolor="#ffffff"
     bordercolor="#666666"
     borderopacity="1.0"
     inkscape:pageopacity="0.0"
     inkscape:pageshadow="2"
     inkscape:zoom="1"
     inkscape:cx="359.05552"
     inkscape:cy="570.11333"
     inkscape:document-units="px"
     inkscape:current-layer="layer1"
     showgrid="false"
     showguides="true"
     inkscape:guide-bbox="true"
     inkscape:window-width="1366"
     inkscape:window-height="721"
     inkscape:window-x="-4"
     inkscape:window-y="-4"
     inkscape:window-maximized="1"
     inkscape:snap-bbox="true"
     inkscape:bbox-paths="true"
     inkscape:bbox-nodes="true">
    <sodipodi:guide
       position="560,730.00002"
       orientation="0,1"
       id="guide3338" />
    <sodipodi:guide
       position="560,330.00001"
       orientation="0,1"
       id="guide3340" />
    <sodipodi:guide
       position="190,475.00001"
       orientation="1,0"
       id="guide3344" />
    <sodipodi:guide
       position="590,451.00001"
       orientation="1,0"
       id="guide3346" />
    <inkscape:grid
       type="xygrid"
       id="grid3440" />
  </sodipodi:namedview>
  <metadata
     id="metadata7">
    <rdf:RDF>
      <cc:Work
         rdf:about="">
        <dc:format>image/svg+xml</dc:format>
        <dc:type
           rdf:resource="http://purl.org/dc/dcmitype/StillImage" />
        <dc:title>media movie</dc:title>
        <dc:date>June 2015</dc:date>
        <dc:creator>
          <cc:Agent>
            <dc:title>Johannes Hechler</dc:title>
          </cc:Agent>
        </dc:creator>
        <dc:rights>
          <cc:Agent>
            <dc:title>Johannes Hechler</dc:title>
          </cc:Agent>
        </dc:rights>
        <dc:publisher>
          <cc:Agent>
            <dc:title>RRZE</dc:title>
          </cc:Agent>
        </dc:publisher>
        <dc:contributor>
          <cc:Agent>
            <dc:title>Ute Weber, Hendrik Eggers</dc:title>
          </cc:Agent>
        </dc:contributor>
      </cc:Work>
    </rdf:RDF>
  </metadata>
  <g
     inkscape:label="Ebene 1"
     inkscape:groupmode="layer"
     id="layer1">
    <rect
       style="fill:none;fill-rule:evenodd;stroke:none;stroke-width:1px;stroke-linecap:butt;stroke-linejoin:miter;stroke-opacity:1"
       id="rect3336"
       width="400"
       height="400"
       x="190"
       y="322.36221"
       inkscape:export-xdpi="3.5999999"
       inkscape:export-ydpi="3.5999999" />
    <rect
       style="fill:none;fill-rule:evenodd;stroke:none;stroke-width:1px;stroke-linecap:butt;stroke-linejoin:miter;stroke-opacity:1"
       id="rect3336-0"
       width="400"
       height="400"
       x="190.04005"
       y="322.41422"
       inkscape:export-xdpi="3.46731"
       inkscape:export-ydpi="3.46731" />
    <path
       style="fill:url(#linearGradient4201);fill-opacity:1;fill-rule:evenodd;stroke:none;stroke-width:1px;stroke-linecap:butt;stroke-linejoin:miter;stroke-opacity:1"
       d="M 446.39453 322.38477 L 251.25781 322.4043 C 239.8687 322.3852 234.18637 328.01561 234.23438 339.23633 C 234.18637 432.5601 234.1864 591.64785 234.2168 705.30469 C 234.21265 706.85724 234.32635 708.29614 234.53711 709.63867 C 234.48789 708.89657 234.45508 708.15124 234.45508 707.39844 L 234.45508 573.67383 C 234.45508 554.75357 250.25218 538.96094 269.16992 538.96094 L 503.1875 538.96094 C 522.10524 538.96094 537.90039 554.75608 537.90039 573.67383 L 537.90039 574.25586 L 546.75977 568.34961 L 546.76172 422.46289 C 541.56812 422.93893 525.97027 424.28772 508.49219 424.93945 C 497.88044 425.3351 486.81708 425.48486 476.70898 424.87109 C 471.65493 424.56422 466.86462 424.09633 461.96875 423.125 C 457.07287 422.15367 455.24871 422.54716 448.24805 416.51758 C 442.05042 411.17964 440.86045 403.0979 440.52539 394.18945 C 440.19032 385.281 441.17566 376.85662 442.27734 368.23828 C 444.4807 351.00161 447.11786 332.57723 446.51953 324.15234 L 446.39453 322.38477 z M 482.05078 373.29102 C 481.99848 373.68612 481.92295 374.18754 481.87305 374.57812 C 481.3848 378.39765 481.01886 381.9557 480.78125 384.98828 C 484.74984 385.19997 489.37685 385.26396 494.34766 385.22656 C 492.30064 383.18115 490.36435 381.18387 488.2832 379.14258 C 486.0433 376.94559 484.28004 375.43606 482.05078 373.29102 z M 480.49219 392.31836 C 480.56079 394.03835 481.10309 393.77205 480.49219 392.31836 z M 270.45508 574.96094 L 270.45508 706.11133 L 501.90039 706.11133 L 501.90039 672.98438 A 18.0018 18.0018 0 0 1 529.88477 658.00781 L 546.75977 669.25781 L 546.75977 611.61523 L 529.88477 622.86523 A 18.0018 18.0018 0 0 1 501.90039 607.88867 L 501.90039 574.96094 L 270.45508 574.96094 z M 537.90039 706.61719 L 537.90039 707.39844 C 537.90039 712.55504 536.71942 717.47618 534.62891 721.91211 C 540.54936 720.75288 544.28535 717.43657 545.86914 711.92969 L 537.90039 706.61719 z "
       id="path4244" />
    <path
       inkscape:export-ydpi="3.46731"
       inkscape:export-xdpi="3.46731"
       sodipodi:nodetypes="cczc"
       inkscape:connector-curvature="0"
       id="path4288"
       d="m 461.45658,322.38255 c 4.54635,-1.18483 85.25811,76.62516 85.25811,84.98046 0,0 -75.44211,7.35253 -86.90512,-1.29887 -11.46301,-8.65141 3.62243,-55.86651 1.64701,-83.68159 z"
       style="fill:#99b000;fill-opacity:1;fill-rule:evenodd;stroke:none;stroke-width:1px;stroke-linecap:butt;stroke-linejoin:miter;stroke-opacity:1" />
    <path
       sodipodi:nodetypes="sssssss"
       inkscape:connector-curvature="0"
       style="color:#000000;clip-rule:nonzero;display:inline;overflow:visible;visibility:visible;opacity:1;isolation:auto;mix-blend-mode:normal;color-interpolation:sRGB;color-interpolation-filters:linearRGB;solid-color:#000000;solid-opacity:1;fill:#ffffff;fill-opacity:1;fill-rule:evenodd;stroke:none;stroke-width:50;stroke-linecap:butt;stroke-linejoin:miter;stroke-miterlimit:4;stroke-dasharray:none;stroke-dashoffset:0;stroke-opacity:1;color-rendering:auto;image-rendering:auto;shape-rendering:auto;text-rendering:auto;enable-background:accumulate"
       d="m 271.80932,467.80163 c -5.03585,0 -9.08984,4.05398 -9.08984,9.08984 0,5.03586 4.05399,9.08984 9.08984,9.08984 l 218.16016,0 c 5.03586,0 9.08984,-4.05398 9.08984,-9.08984 0,-5.03586 -4.05398,-9.08984 -9.08984,-9.08984 z"
       id="rect4232" />
    <rect
       style="opacity:1;fill:none;fill-opacity:1;stroke:none;stroke-width:23;stroke-linecap:butt;stroke-linejoin:round;stroke-miterlimit:4;stroke-dasharray:none;stroke-opacity:1"
       id="rect4160"
       width="400"
       height="400"
       x="190"
       y="322.36221" />
    <path
       style="fill:#ffffff;fill-opacity:1;stroke:none"
       d="m 272.39789,579.67056 c 63.0978,0 126.19557,0 189.29336,0 4.7721,-2e-5 4.7721,23.87229 0,23.8723 -63.09779,0 -126.19556,0 -189.29336,0 -6.3628,-10e-6 -6.3628,-23.87232 0,-23.8723 z"
       id="rect4248-1-5"
       inkscape:connector-curvature="0"
       sodipodi:nodetypes="ccccc"
       inkscape:transform-center-x="11.294007"
       inkscape:transform-center-y="-32.829958"
       inkscape:export-xdpi="4.9499998"
       inkscape:export-ydpi="4.9499998" />
    <path
       id="rect4204"
       d="m 269.1699,555.21041 c -9.26033,0 -16.71385,7.45355 -16.71385,16.71387 l 0,133.72405 c 0,9.26034 7.45352,16.71387 16.71385,16.71387 l 234.01714,0 c 9.26032,0 16.71384,-7.45353 16.71384,-16.71387 l 0,-34.41475 58.55331,39.03775 c 4.93493,3.29051 11.54569,-0.24702 11.54581,-6.17838 l 0,-130.80937 c -8.6e-4,-4.1861 -3.45972,-7.54422 -7.64402,-7.42136 -1.3914,0.0404 -2.74339,0.47117 -3.90179,1.24298 l -58.55331,39.03444 0,-34.21536 c 0,-9.26032 -7.45352,-16.71387 -16.71384,-16.71387 l -234.01714,0 z"
       style="color:#252525;clip-rule:nonzero;display:inline;overflow:visible;visibility:visible;opacity:1;isolation:auto;mix-blend-mode:normal;color-interpolation:sRGB;color-interpolation-filters:linearRGB;solid-color:#252525;solid-opacity:1;fill:#99b000;fill-opacity:1;fill-rule:nonzero;stroke:none;stroke-width:12;stroke-linecap:butt;stroke-linejoin:round;stroke-miterlimit:4;stroke-dasharray:none;stroke-dashoffset:60.95800018;stroke-opacity:1;color-rendering:auto;image-rendering:auto;shape-rendering:auto;text-rendering:auto;enable-background:accumulate"
       inkscape:connector-curvature="0" />
    <path
       inkscape:connector-curvature="0"
       id="path4208"
       d="m 349.40523,585.29706 0,106.97842 80.2338,-53.48921 z"
       style="fill:#ffffff;fill-rule:evenodd;stroke:none;stroke-width:1px;stroke-linecap:butt;stroke-linejoin:miter;stroke-opacity:1" />
  </g>
</svg>
