<?xml version="1.0" encoding="UTF-8" standalone="no"?>
<!-- Created with Inkscape (http://www.inkscape.org/) -->

<svg
   xmlns:dc="http://purl.org/dc/elements/1.1/"
   xmlns:cc="http://creativecommons.org/ns#"
   xmlns:rdf="http://www.w3.org/1999/02/22-rdf-syntax-ns#"
   xmlns:svg="http://www.w3.org/2000/svg"
   xmlns="http://www.w3.org/2000/svg"
   xmlns:xlink="http://www.w3.org/1999/xlink"
   xmlns:sodipodi="http://sodipodi.sourceforge.net/DTD/sodipodi-0.dtd"
   xmlns:inkscape="http://www.inkscape.org/namespaces/inkscape"
   width="210mm"
   height="297mm"
   viewBox="0 0 744.09448819 1052.3622047"
   id="svg2"
   version="1.1"
   inkscape:version="0.91 r13725"
   inkscape:export-xdpi="4"
   inkscape:export-ydpi="4"
   sodipodi:docname="media-movie.svg">
  <defs
     id="defs4">
    <inkscape:perspective
       sodipodi:type="inkscape:persp3d"
       inkscape:vp_x="0 : 526.1811 : 1"
       inkscape:vp_y="0 : 1000 : 0"
       inkscape:vp_z="744.09449 : 526.1811 : 1"
       inkscape:persp3d-origin="372.04724 : 350.7874 : 1"
       id="perspective4169" />
    <linearGradient
       id="linearGradient2224">
      <stop
         id="stop2226"
         offset="0"
         style="stop-color:#7c7c7c;stop-opacity:1;" />
      <stop
         id="stop2228"
         offset="1"
         style="stop-color:#b8b8b8;stop-opacity:1;" />
    </linearGradient>
    <linearGradient
       id="linearGradient15218">
      <stop
         id="stop15220"
         offset="0"
         style="stop-color:#eeeeef;stop-opacity:1;" />
      <stop
         id="stop2736"
         offset="0.59928656"
         style="stop-color:#d3d7cf;stop-opacity:1;" />
      <stop
         id="stop2738"
         offset="0.82758623"
         style="stop-color:#ffffff;stop-opacity:1;" />
      <stop
         id="stop15222"
         offset="1"
         style="stop-color:#d3d7cf;stop-opacity:1;" />
    </linearGradient>
    <pattern
       y="0"
       x="0"
       height="6"
       width="6"
       patternUnits="userSpaceOnUse"
       id="EMFhbasepattern" />
    <pattern
       y="0"
       x="0"
       height="6"
       width="6"
       patternUnits="userSpaceOnUse"
       id="EMFhbasepattern-5" />
    <linearGradient
       inkscape:collect="always"
       xlink:href="#linearGradient4195"
       id="linearGradient4201"
       x1="286.38269"
       y1="672.9209"
       x2="532.51678"
       y2="367.74933"
       gradientUnits="userSpaceOnUse"
       gradientTransform="matrix(1.1363532,0,0,1.1363532,-56.478407,-53.284538)" />
    <linearGradient
       inkscape:collect="always"
       id="linearGradient4195">
      <stop
         style="stop-color:#5a6578;stop-opacity:1"
         offset="0"
         id="stop4197" />
      <stop
         style="stop-color:#9397a2;stop-opacity:1"
         offset="1"
         id="stop4199" />
    </linearGradient>
    <linearGradient
       inkscape:collect="always"
       xlink:href="#linearGradient4203"
       id="linearGradient4209"
       x1="463.0658"
       y1="396.17969"
       x2="494.89703"
       y2="375.89542"
       gradientUnits="userSpaceOnUse"
       gradientTransform="matrix(1.1363532,0,0,1.1363532,-56.478407,-53.284538)" />
    <linearGradient
       inkscape:collect="always"
       id="linearGradient4203">
      <stop
         style="stop-color:#abbe24;stop-opacity:1"
         offset="0"
         id="stop4205" />
      <stop
         style="stop-color:#c1d53a;stop-opacity:1"
         offset="1"
         id="stop4207" />
    </linearGradient>
    <linearGradient
       inkscape:collect="always"
       xlink:href="#linearGradient4203"
       id="linearGradient4210"
       gradientUnits="userSpaceOnUse"
       gradientTransform="matrix(1.1363532,0,0,1.1363532,-56.478407,-53.284538)"
       x1="463.0658"
       y1="396.17969"
       x2="494.89703"
       y2="375.89542" />
  </defs>
  <sodipodi:namedview
     id="base"
     pagecolor="#ffffff"
     bordercolor="#666666"
     borderopacity="1.0"
     inkscape:pageopacity="0.0"
     inkscape:pageshadow="2"
     inkscape:zoom="0.5"
     inkscape:cx="168.70886"
     inkscape:cy="440.05632"
     inkscape:document-units="px"
     inkscape:current-layer="layer1"
     showgrid="false"
     showguides="true"
     inkscape:guide-bbox="true"
     inkscape:window-width="1366"
     inkscape:window-height="721"
     inkscape:window-x="-4"
     inkscape:window-y="-4"
     inkscape:window-maximized="1">
    <sodipodi:guide
       position="560,730.00002"
       orientation="0,1"
       id="guide3338" />
    <sodipodi:guide
       position="560,330.00001"
       orientation="0,1"
       id="guide3340" />
    <sodipodi:guide
       position="190,475.00001"
       orientation="1,0"
       id="guide3344" />
    <sodipodi:guide
       position="590,451.00001"
       orientation="1,0"
       id="guide3346" />
    <inkscape:grid
       type="xygrid"
       id="grid3440" />
  </sodipodi:namedview>
  <metadata
     id="metadata7">
    <rdf:RDF>
      <cc:Work
         rdf:about="">
        <dc:format>image/svg+xml</dc:format>
        <dc:type
           rdf:resource="http://purl.org/dc/dcmitype/StillImage" />
        <dc:title>media movie</dc:title>
      </cc:Work>
    </rdf:RDF>
  </metadata>
  <g
     inkscape:label="Ebene 1"
     inkscape:groupmode="layer"
     id="layer1">
    <g
       transform="translate(-0.30185788,0.17668472)"
       id="g4163">
      <g
         id="g4169">
        <path
           sodipodi:nodetypes="ccccccccsssssscccsscssscssscccccccc"
           inkscape:connector-curvature="0"
           style="fill:url(#linearGradient4201);fill-opacity:1;fill-rule:evenodd;stroke:none;stroke-width:1px;stroke-linecap:butt;stroke-linejoin:miter;stroke-opacity:1"
           d="m 452.02633,322.17366 -201.66274,0.02 c -11.38911,-0.0191 -17.0711,5.61151 -17.0231,16.83223 -0.048,93.32377 -0.0481,252.41297 -0.0177,366.06997 -0.0303,11.34185 5.68578,17.09539 16.97872,17.01866 l 278.38213,0.071 c 11.42287,-0.0653 17.10592,-5.74802 17.18068,-17.20731 l 0.002,-287.41496 c -3.36254,0.3163 -19.83225,1.81585 -38.33417,2.50575 -10.3158,0.38469 -21.02427,0.50769 -30.22654,-0.051 -4.60116,-0.27936 -8.81748,-0.71711 -12.60865,-1.46927 -3.79117,-0.75216 -9.13747,-1.48928 -12.73099,-4.20139 -6.80459,-5.13559 -7.64277,-14.62161 -7.91008,-21.72861 -0.26731,-7.10701 0.56738,-14.99513 1.63351,-23.33519 2.12529,-16.62602 7.15507,-35.19124 6.33678,-47.10983 z m 17.68228,17.14517 c -0.9236,10.92454 -2.6893,22.1432 -3.98389,32.27066 -1.02546,8.02203 -1.69021,15.29734 -1.50034,20.34561 0.13767,3.66032 0.98643,5.50079 1.04313,5.94809 0.10943,-0.005 1.05874,0.45097 2.96962,0.83008 2.52865,0.50167 6.08593,0.90838 10.16946,1.15633 8.16708,0.49582 18.46897,0.40312 28.44657,0.031 8.44251,-0.31481 16.00415,-0.83888 22.66713,-1.31835 -0.97976,-1.12281 -1.49034,-1.83812 -2.60118,-3.06726 -7.43492,-8.2267 -17.58274,-18.61862 -27.86285,-28.7018 -10.28011,-10.08318 -20.72306,-19.88988 -28.75062,-26.99061 -0.24512,-0.21681 -0.35635,-0.29203 -0.59703,-0.50381 z m -4.4411,58.56436 c -0.0196,9e-4 -0.0209,0.0127 0.0133,0.0466 -4.6e-4,-0.008 -0.0122,-0.0374 -0.0133,-0.0466 z m 72.20282,10.56676 c 0.13682,0.4341 0.25326,0.41274 0.091,0.13094 -0.0131,-0.0227 -0.0761,-0.10579 -0.091,-0.13094 z"
           id="path4244"
           inkscape:export-filename="C:\Users\johannes\Desktop\document.png"
           inkscape:export-xdpi="3.46731"
           inkscape:export-ydpi="3.46731" />
        <path
           style="fill:#ffffff;fill-opacity:1;stroke:none"
           d="m 273.57915,453.59827 c 70.99868,0 141.99738,0 212.99606,0 5.36965,-1e-5 5.36965,30.99794 0,30.99795 -70.99868,0 -141.99738,0 -212.99606,0 -7.15955,-1e-5 -7.15955,-30.99796 0,-30.99795 z"
           id="rect4248"
           inkscape:connector-curvature="0"
           sodipodi:nodetypes="ccccc"
           inkscape:export-xdpi="3.46731"
           inkscape:export-ydpi="3.46731"
           inkscape:export-filename="C:\Users\johannes\Desktop\document.png" />
        <path
           style="fill:#ffffff;fill-opacity:1;stroke:none"
           d="m 273.02584,508.07397 c 63.6759,0 127.35178,0 191.02769,0 4.81581,-2e-5 4.81581,30.99797 0,30.99798 -63.67591,0 -127.35179,0 -191.02769,0 -6.4211,-10e-6 -6.4211,-30.998 0,-30.99798 z"
           id="rect4248-4-4"
           inkscape:connector-curvature="0"
           sodipodi:nodetypes="ccccc"
           inkscape:export-xdpi="3.46731"
           inkscape:export-ydpi="3.46731"
           inkscape:export-filename="C:\Users\johannes\Desktop\document.png" />
        <path
           style="fill:#ffffff;fill-opacity:1;stroke:none"
           d="m 273.75872,561.80623 c 67.72271,0 135.4454,0 203.16811,0 5.12189,-3e-5 5.12189,30.99793 0,30.99794 -67.72271,0 -135.4454,0 -203.16811,0 -6.82919,-10e-6 -6.82919,-30.99797 0,-30.99794 z"
           id="rect4248-1-3"
           inkscape:connector-curvature="0"
           sodipodi:nodetypes="ccccc"
           inkscape:export-xdpi="3.46731"
           inkscape:export-ydpi="3.46731"
           inkscape:export-filename="C:\Users\johannes\Desktop\document.png" />
      </g>
      <path
         inkscape:export-filename="C:\Users\johannes\Desktop\document.png"
         inkscape:export-ydpi="3.46731"
         inkscape:export-xdpi="3.46731"
         sodipodi:nodetypes="cczc"
         inkscape:connector-curvature="0"
         id="path4169"
         d="m 460.56136,322.17208 c 4.54635,-1.18483 85.25811,76.62516 85.25811,84.98046 0,0 -75.44211,7.35253 -86.90512,-1.29887 -11.46301,-8.65141 3.62243,-55.86651 1.64701,-83.68159 z"
         style="fill:url(#linearGradient4210);fill-opacity:1;fill-rule:evenodd;stroke:#ffffff;stroke-width:30;stroke-linecap:butt;stroke-linejoin:miter;stroke-miterlimit:4;stroke-dasharray:none;stroke-opacity:1" />
      <path
         inkscape:export-filename="C:\Users\johannes\Desktop\document.png"
         style="fill:url(#linearGradient4209);fill-opacity:1;fill-rule:evenodd;stroke:none;stroke-width:1px;stroke-linecap:butt;stroke-linejoin:miter;stroke-opacity:1"
         d="m 460.56136,322.17208 c 4.54635,-1.18483 85.25811,76.62516 85.25811,84.98046 0,0 -75.44211,7.35253 -86.90512,-1.29887 -11.46301,-8.65141 3.62243,-55.86651 1.64701,-83.68159 z"
         id="path4288"
         inkscape:connector-curvature="0"
         sodipodi:nodetypes="cczc"
         inkscape:export-xdpi="3.46731"
         inkscape:export-ydpi="3.46731" />
    </g>
    <rect
       style="opacity:1;fill:none;fill-opacity:1;stroke:none;stroke-width:23;stroke-linecap:butt;stroke-linejoin:round;stroke-miterlimit:4;stroke-dasharray:none;stroke-opacity:1"
       id="rect4160"
       width="400"
       height="400"
       x="190"
       y="322.36221" />
    <path
       style="fill:#ffffff;fill-opacity:1;stroke:none"
       d="m 272.44162,495.74144 c 63.6759,0 127.35178,0 191.02769,0 4.81581,-1e-5 4.81581,23.87229 0,23.8723 -63.67591,0 -127.35179,0 -191.02769,0 -6.4211,-10e-6 -6.4211,-23.87231 0,-23.8723 z"
       id="rect4248-4"
       inkscape:connector-curvature="0"
       sodipodi:nodetypes="ccccc"
       inkscape:export-xdpi="4.9499998"
       inkscape:export-ydpi="4.9499998" />
    <path
       style="fill:#ffffff;fill-opacity:1;stroke:none"
       d="m 273.1745,537.12198 c 67.72271,0 135.4454,0 203.16811,0 5.12189,-2e-5 5.12189,23.87227 0,23.87228 -67.72271,0 -135.4454,0 -203.16811,0 -6.82919,-1e-5 -6.82919,-23.8723 0,-23.87228 z"
       id="rect4248-1"
       inkscape:connector-curvature="0"
       sodipodi:nodetypes="ccccc"
       inkscape:export-xdpi="4.9499998"
       inkscape:export-ydpi="4.9499998" />
    <path
       style="fill:#ffffff;fill-opacity:1;stroke:none"
       d="m 272.39789,579.67056 c 63.0978,0 126.19557,0 189.29336,0 4.7721,-2e-5 4.7721,23.87229 0,23.8723 -63.09779,0 -126.19556,0 -189.29336,0 -6.3628,-10e-6 -6.3628,-23.87232 0,-23.8723 z"
       id="rect4248-1-5"
       inkscape:connector-curvature="0"
       sodipodi:nodetypes="ccccc"
       inkscape:transform-center-x="11.294007"
       inkscape:transform-center-y="-32.829958"
       inkscape:export-xdpi="4.9499998"
       inkscape:export-ydpi="4.9499998" />
    <path
       style="color:#000000;font-style:normal;font-variant:normal;font-weight:normal;font-stretch:normal;font-size:medium;line-height:normal;font-family:sans-serif;text-indent:0;text-align:start;text-decoration:none;text-decoration-line:none;text-decoration-style:solid;text-decoration-color:#000000;letter-spacing:normal;word-spacing:normal;text-transform:none;direction:ltr;block-progression:tb;writing-mode:lr-tb;baseline-shift:baseline;text-anchor:start;white-space:normal;clip-rule:nonzero;display:inline;overflow:visible;visibility:visible;opacity:1;isolation:auto;mix-blend-mode:normal;color-interpolation:sRGB;color-interpolation-filters:linearRGB;solid-color:#000000;solid-opacity:1;fill:#ffffff;fill-opacity:1;fill-rule:nonzero;stroke:#5a6578;stroke-width:20;stroke-linecap:butt;stroke-linejoin:round;stroke-miterlimit:4;stroke-dasharray:none;stroke-dashoffset:60.95800018;stroke-opacity:1;color-rendering:auto;image-rendering:auto;shape-rendering:auto;text-rendering:auto;enable-background:accumulate"
       d="m 206.44531,489.94922 c -17.30817,0 -31.71484,14.40262 -31.71484,31.71289 l 0,133.72461 c 0,17.31027 14.40669,31.71289 31.71484,31.71289 l 234.01758,0 c 17.30815,0 31.71289,-14.40471 31.71289,-31.71289 l 0,-6.38672 35.23047,23.49023 c 14.20797,9.47359 34.8688,-1.57974 34.86914,-18.6582 l 0,-130.81055 a 15.0015,15.0015 0 0 0 0,-0.004 c -0.003,-12.44707 -10.63867,-22.77515 -23.08008,-22.41211 l -0.004,0 c -4.2085,0.12293 -8.28737,1.42928 -11.7793,3.75586 a 15.0015,15.0015 0 0 0 -0.004,0.002 l -35.23242,23.48633 0,-6.1875 c 0,-17.30817 -14.40472,-31.71289 -31.71289,-31.71289 l -234.01758,0 z m 0,30 234.01758,0 c 1.21247,0 1.71289,0.50042 1.71289,1.71289 l 0,34.21484 a 15.0015,15.0015 0 0 0 23.32031,12.48047 l 46.7793,-31.18554 0,102.50781 -46.7793,-31.1875 a 15.0015,15.0015 0 0 0 -23.32031,12.48047 l 0,34.41406 c 0,1.2125 -0.5004,1.71289 -1.71289,1.71289 l -234.01758,0 c -1.2125,0 -1.71484,-0.50248 -1.71484,-1.71289 l 0,-133.72461 c 0,-1.21037 0.50236,-1.71289 1.71484,-1.71289 z"
       id="path4181"
       inkscape:connector-curvature="0" />
    <path
       style="color:#000000;clip-rule:nonzero;display:inline;overflow:visible;visibility:visible;opacity:1;isolation:auto;mix-blend-mode:normal;color-interpolation:sRGB;color-interpolation-filters:linearRGB;solid-color:#000000;solid-opacity:1;fill:#abbe24;fill-opacity:1;fill-rule:nonzero;stroke:#ffffff;stroke-width:30;stroke-linecap:butt;stroke-linejoin:round;stroke-miterlimit:4;stroke-dasharray:none;stroke-dashoffset:60.95800018;stroke-opacity:1;color-rendering:auto;image-rendering:auto;shape-rendering:auto;text-rendering:auto;enable-background:accumulate"
       d="M 206.44531 504.94922 C 197.18498 504.94922 189.73047 512.40179 189.73047 521.66211 L 189.73047 655.38672 C 189.73047 664.64706 197.18498 672.09961 206.44531 672.09961 L 440.46289 672.09961 C 449.72321 672.09961 457.17578 664.64706 457.17578 655.38672 L 457.17578 620.97266 L 515.72852 660.00977 C 520.66345 663.30028 527.27527 659.76339 527.27539 653.83203 L 527.27539 523.02148 C 527.27453 518.83538 523.81516 515.47675 519.63086 515.59961 C 518.23946 515.64001 516.88692 516.07194 515.72852 516.84375 L 457.17578 555.87695 L 457.17578 521.66211 C 457.17578 512.40179 449.72321 504.94922 440.46289 504.94922 L 206.44531 504.94922 z "
       id="path4176" />
    <path
       id="rect4204"
       d="m 206.44502,504.94859 c -9.26033,0 -16.71385,7.45355 -16.71385,16.71387 l 0,133.72405 c 0,9.26034 7.45352,16.71387 16.71385,16.71387 l 234.01714,0 c 9.26032,0 16.71384,-7.45353 16.71384,-16.71387 l 0,-34.41475 58.55331,39.03775 c 4.93493,3.29051 11.54569,-0.24702 11.54581,-6.17838 l 0,-130.80937 c -8.6e-4,-4.1861 -3.45972,-7.54422 -7.64402,-7.42136 -1.3914,0.0404 -2.74339,0.47117 -3.90179,1.24298 l -58.55331,39.03444 0,-34.21536 c 0,-9.26032 -7.45352,-16.71387 -16.71384,-16.71387 l -234.01714,0 z"
       style="color:#000000;clip-rule:nonzero;display:inline;overflow:visible;visibility:visible;opacity:1;isolation:auto;mix-blend-mode:normal;color-interpolation:sRGB;color-interpolation-filters:linearRGB;solid-color:#000000;solid-opacity:1;fill:#abbe24;fill-opacity:1;fill-rule:nonzero;stroke:none;stroke-width:12;stroke-linecap:butt;stroke-linejoin:round;stroke-miterlimit:4;stroke-dasharray:none;stroke-dashoffset:60.95800018;stroke-opacity:1;color-rendering:auto;image-rendering:auto;shape-rendering:auto;text-rendering:auto;enable-background:accumulate"
       inkscape:connector-curvature="0" />
    <path
       inkscape:connector-curvature="0"
       id="path4208"
       d="m 286.68035,535.03524 0,106.97842 80.2338,-53.48921 z"
       style="fill:#ffffff;fill-rule:evenodd;stroke:none;stroke-width:1px;stroke-linecap:butt;stroke-linejoin:miter;stroke-opacity:1" />
  </g>
</svg>
