<?xml version="1.0" encoding="UTF-8" standalone="no"?>
<!-- Created with Inkscape (http://www.inkscape.org/) -->

<svg
   xmlns:dc="http://purl.org/dc/elements/1.1/"
   xmlns:cc="http://creativecommons.org/ns#"
   xmlns:rdf="http://www.w3.org/1999/02/22-rdf-syntax-ns#"
   xmlns:svg="http://www.w3.org/2000/svg"
   xmlns="http://www.w3.org/2000/svg"
   xmlns:xlink="http://www.w3.org/1999/xlink"
   xmlns:sodipodi="http://sodipodi.sourceforge.net/DTD/sodipodi-0.dtd"
   xmlns:inkscape="http://www.inkscape.org/namespaces/inkscape"
   width="210mm"
   height="297mm"
   viewBox="0 0 744.09448819 1052.3622047"
   id="svg2"
   version="1.1"
   inkscape:version="0.91 r13725"
   inkscape:export-xdpi="7.1992788"
   inkscape:export-ydpi="7.1992788"
   sodipodi:docname="media-video-film.svg"
   inkscape:export-filename="C:\Users\johannes\Documents\Arbeit\RRZE\github3\bicons\32x32\mime-types\media-video-film.png">
  <defs
     id="defs4">
    <inkscape:perspective
       sodipodi:type="inkscape:persp3d"
       inkscape:vp_x="0 : 526.1811 : 1"
       inkscape:vp_y="0 : 1000 : 0"
       inkscape:vp_z="744.09449 : 526.1811 : 1"
       inkscape:persp3d-origin="372.04724 : 350.7874 : 1"
       id="perspective4169" />
    <linearGradient
       id="linearGradient2224">
      <stop
         id="stop2226"
         offset="0"
         style="stop-color:#7c7c7c;stop-opacity:1;" />
      <stop
         id="stop2228"
         offset="1"
         style="stop-color:#b8b8b8;stop-opacity:1;" />
    </linearGradient>
    <linearGradient
       id="linearGradient15218">
      <stop
         id="stop15220"
         offset="0"
         style="stop-color:#eeeeef;stop-opacity:1;" />
      <stop
         id="stop2736"
         offset="0.59928656"
         style="stop-color:#d3d7cf;stop-opacity:1;" />
      <stop
         id="stop2738"
         offset="0.82758623"
         style="stop-color:#ffffff;stop-opacity:1;" />
      <stop
         id="stop15222"
         offset="1"
         style="stop-color:#d3d7cf;stop-opacity:1;" />
    </linearGradient>
    <pattern
       y="0"
       x="0"
       height="6"
       width="6"
       patternUnits="userSpaceOnUse"
       id="EMFhbasepattern" />
    <pattern
       y="0"
       x="0"
       height="6"
       width="6"
       patternUnits="userSpaceOnUse"
       id="EMFhbasepattern-5" />
    <linearGradient
       inkscape:collect="always"
       xlink:href="#linearGradient4321"
       id="linearGradient4201"
       x1="286.38269"
       y1="672.9209"
       x2="532.51678"
       y2="367.74933"
       gradientUnits="userSpaceOnUse"
       gradientTransform="matrix(1.1363532,0,0,1.1363532,-55.623253,-53.074102)" />
    <linearGradient
       id="linearGradient4321"
       inkscape:collect="always">
      <stop
         id="stop4323"
         offset="0"
         style="stop-color:#4e505d;stop-opacity:1;" />
      <stop
         id="stop4325"
         offset="1"
         style="stop-color:#7a8597;stop-opacity:1" />
    </linearGradient>
  </defs>
  <sodipodi:namedview
     id="base"
     pagecolor="#ffffff"
     bordercolor="#666666"
     borderopacity="1.0"
     inkscape:pageopacity="0.0"
     inkscape:pageshadow="2"
     inkscape:zoom="1"
     inkscape:cx="434.24233"
     inkscape:cy="452.09051"
     inkscape:document-units="px"
     inkscape:current-layer="layer1"
     showgrid="false"
     showguides="true"
     inkscape:guide-bbox="true"
     inkscape:window-width="1366"
     inkscape:window-height="721"
     inkscape:window-x="-4"
     inkscape:window-y="-4"
     inkscape:window-maximized="1"
     inkscape:snap-bbox="true"
     inkscape:bbox-paths="true"
     inkscape:bbox-nodes="true">
    <sodipodi:guide
       position="560,730.00002"
       orientation="0,1"
       id="guide3338" />
    <sodipodi:guide
       position="560,330.00001"
       orientation="0,1"
       id="guide3340" />
    <sodipodi:guide
       position="190,475.00001"
       orientation="1,0"
       id="guide3344" />
    <sodipodi:guide
       position="590,451.00001"
       orientation="1,0"
       id="guide3346" />
    <inkscape:grid
       type="xygrid"
       id="grid3440" />
  </sodipodi:namedview>
  <metadata
     id="metadata7">
    <rdf:RDF>
      <cc:Work
         rdf:about="">
        <dc:format>image/svg+xml</dc:format>
        <dc:type
           rdf:resource="http://purl.org/dc/dcmitype/StillImage" />
        <dc:title>media video film</dc:title>
        <dc:date>June 2015</dc:date>
        <dc:creator>
          <cc:Agent>
            <dc:title>Johannes Hechler</dc:title>
          </cc:Agent>
        </dc:creator>
        <dc:rights>
          <cc:Agent>
            <dc:title>Johannes Hechler</dc:title>
          </cc:Agent>
        </dc:rights>
        <dc:publisher>
          <cc:Agent>
            <dc:title>RRZE</dc:title>
          </cc:Agent>
        </dc:publisher>
        <dc:contributor>
          <cc:Agent>
            <dc:title>Ute Weber, Hendrik Eggers</dc:title>
          </cc:Agent>
        </dc:contributor>
      </cc:Work>
    </rdf:RDF>
  </metadata>
  <g
     inkscape:label="Ebene 1"
     inkscape:groupmode="layer"
     id="layer1">
    <rect
       style="fill:none;fill-rule:evenodd;stroke:none;stroke-width:1px;stroke-linecap:butt;stroke-linejoin:miter;stroke-opacity:1"
       id="rect3336"
       width="400"
       height="400"
       x="189.95993"
       y="322.36221"
       inkscape:export-xdpi="3.5999999"
       inkscape:export-ydpi="3.5999999" />
    <rect
       style="fill:none;fill-rule:evenodd;stroke:none;stroke-width:1px;stroke-linecap:butt;stroke-linejoin:miter;stroke-opacity:1"
       id="rect3336-0"
       width="400"
       height="400"
       x="190"
       y="322.41422"
       inkscape:export-xdpi="3.46731"
       inkscape:export-ydpi="3.46731" />
    <path
       style="fill:url(#linearGradient4201);fill-opacity:1;fill-rule:evenodd;stroke:none;stroke-width:1px;stroke-linecap:butt;stroke-linejoin:miter;stroke-opacity:1"
       d="M 446.35547 322.38477 L 251.21875 322.4043 C 239.82964 322.3852 234.14731 328.01561 234.19531 339.23633 C 234.14731 432.5601 234.14733 591.64785 234.17773 705.30469 C 234.14743 716.64659 239.86331 722.40092 251.15625 722.32422 L 335.54297 722.3457 C 296.89267 704.63334 269.90103 665.54835 269.90039 620.41211 C 269.89998 558.74438 320.27759 508.36677 381.94531 508.36719 C 443.61215 508.36805 493.9887 558.74528 493.98828 620.41211 C 493.98814 630.42811 492.53356 640.09678 490.04297 649.34961 C 498.10049 650.51169 505.51771 652.97429 512.09375 656.14648 C 518.56826 659.00121 523.76876 662.1012 528.40039 665.14453 A 18.0018 18.0018 0 0 1 530.95312 658.07227 L 534.83008 651.87305 C 534.36329 652.61947 535.79341 649.74622 537.06055 646.05469 L 537.06055 646.05859 L 538.99609 640.41602 A 18.0018 18.0018 0 0 1 546.7207 630.86133 L 546.72266 422.46289 C 541.52906 422.93893 525.93121 424.28772 508.45312 424.93945 C 497.84137 425.3351 486.77802 425.48486 476.66992 424.87109 C 471.61587 424.56422 466.82556 424.09633 461.92969 423.125 C 457.03381 422.15367 455.20964 422.54716 448.20898 416.51758 C 442.01135 411.17964 440.82139 403.0979 440.48633 394.18945 C 440.15126 385.281 441.1366 376.85662 442.23828 368.23828 C 444.44164 351.00161 447.0788 332.57723 446.48047 324.15234 L 446.35547 322.38477 z M 482.01172 373.29102 C 481.95942 373.68612 481.88388 374.18755 481.83398 374.57812 C 481.34573 378.39765 480.9798 381.9557 480.74219 384.98828 C 484.71078 385.19997 489.33778 385.26396 494.30859 385.22656 C 492.26157 383.18115 490.32529 381.18387 488.24414 379.14258 C 486.00424 376.94559 484.24098 375.43606 482.01172 373.29102 z M 480.45312 392.31836 C 480.52173 394.03835 481.06402 393.77205 480.45312 392.31836 z M 381.94531 544.36719 C 339.7336 544.3669 305.90011 578.2004 305.90039 620.41211 C 305.90098 662.62319 339.73423 696.45536 381.94531 696.45508 C 424.15577 696.45449 457.98769 662.62256 457.98828 620.41211 C 457.98856 578.20103 424.15639 544.36778 381.94531 544.36719 z M 449.27734 709.68359 C 442.71491 714.65099 435.59272 718.90796 428.03906 722.36914 L 500.75977 722.38672 C 500.39795 722.09459 500.01858 721.811 499.66406 721.51562 A 18.0018 18.0018 0 0 1 499.15234 721.15039 C 489.16357 713.11843 481.09613 709.82281 478.09961 710.29688 L 462.4707 712.77148 A 18.0018 18.0018 0 0 1 449.27734 709.68359 z M 535.57422 712.58203 L 535.69531 712.625 L 535.83789 712.67578 L 535.98438 712.72266 C 535.89518 712.69406 535.82503 712.65585 535.73633 712.62695 C 535.68239 712.60755 535.62812 712.60163 535.57422 712.58203 z "
       id="path4244" />
    <path
       inkscape:export-ydpi="3.46731"
       inkscape:export-xdpi="3.46731"
       sodipodi:nodetypes="cczc"
       inkscape:connector-curvature="0"
       id="path4288"
       d="m 461.41649,322.38253 c 4.54635,-1.18483 85.25811,76.62516 85.25811,84.98046 0,0 -75.44211,7.35253 -86.90512,-1.29887 -11.46301,-8.65141 3.62243,-55.86651 1.64701,-83.68159 z"
       style="fill:#99b000;fill-opacity:1;fill-rule:evenodd;stroke:none;stroke-width:1px;stroke-linecap:butt;stroke-linejoin:miter;stroke-opacity:1" />
    <path
       style="color:#000000;clip-rule:nonzero;display:inline;overflow:visible;visibility:visible;opacity:1;isolation:auto;mix-blend-mode:normal;color-interpolation:sRGB;color-interpolation-filters:linearRGB;solid-color:#000000;solid-opacity:1;fill:#ffffff;fill-opacity:1;fill-rule:evenodd;stroke:none;stroke-width:50;stroke-linecap:butt;stroke-linejoin:miter;stroke-miterlimit:4;stroke-dasharray:none;stroke-dashoffset:0;stroke-opacity:1;color-rendering:auto;image-rendering:auto;shape-rendering:auto;text-rendering:auto;enable-background:accumulate"
       d="M 271.76953 467.80078 C 266.73368 467.80078 262.67969 471.85477 262.67969 476.89062 C 262.67969 481.92649 266.73368 485.98047 271.76953 485.98047 L 489.92969 485.98047 C 494.96555 485.98047 499.01953 481.92649 499.01953 476.89062 C 499.01953 471.85476 494.96555 467.80078 489.92969 467.80078 L 271.76953 467.80078 z M 271.76953 522.3418 C 266.73368 522.3418 262.67969 526.39578 262.67969 531.43164 C 262.67969 536.46749 266.73368 540.52148 271.76953 540.52148 L 279.58789 540.52148 C 284.7641 533.92356 290.56191 527.83525 296.89062 522.3418 L 271.76953 522.3418 z M 368.22461 527.36523 C 355.23388 529.27147 343.10931 533.86005 332.4043 540.52148 L 332.43164 540.52148 C 343.13222 533.86213 355.24734 529.27284 368.22461 527.36523 z M 395.66602 527.36523 C 399.87637 527.98422 403.99424 528.89068 408.00586 530.05078 C 408.00567 530.04951 408.00605 530.04815 408.00586 530.04688 C 403.99455 528.88855 399.87667 527.98318 395.66602 527.36523 z M 298.60742 576.88086 C 295.59755 582.62082 293.15826 588.70279 291.37695 595.06055 L 291.38281 595.06055 C 293.16647 588.7042 295.60828 582.62075 298.62109 576.88086 L 298.60742 576.88086 z M 343.14258 576.88086 C 337.46626 581.9242 332.81403 588.08263 329.51172 595.06055 L 434.37695 595.06055 C 431.07444 588.08194 426.42303 581.9245 420.74609 576.88086 L 343.14258 576.88086 z "
       id="rect4232" />
    <rect
       style="opacity:1;fill:none;fill-opacity:1;stroke:none;stroke-width:23;stroke-linecap:butt;stroke-linejoin:round;stroke-miterlimit:4;stroke-dasharray:none;stroke-opacity:1"
       id="rect4160"
       width="400"
       height="400"
       x="190"
       y="322.36221" />
    <g
       id="g4219"
       transform="matrix(1.0590277,0,0,1.0590277,78.331985,-250.17737)">
      <path
         style="color:#252525;font-style:normal;font-variant:normal;font-weight:normal;font-stretch:normal;font-size:medium;line-height:normal;font-family:sans-serif;text-indent:0;text-align:start;text-decoration:none;text-decoration-line:none;text-decoration-style:solid;text-decoration-color:#252525;letter-spacing:normal;word-spacing:normal;text-transform:none;direction:ltr;block-progression:tb;writing-mode:lr-tb;baseline-shift:baseline;text-anchor:start;white-space:normal;clip-rule:nonzero;display:inline;overflow:visible;visibility:visible;opacity:1;isolation:auto;mix-blend-mode:normal;color-interpolation:sRGB;color-interpolation-filters:linearRGB;solid-color:#252525;solid-opacity:1;fill:#99b000;fill-opacity:1;fill-rule:evenodd;stroke:none;stroke-width:11.90615177;stroke-linecap:butt;stroke-linejoin:miter;stroke-miterlimit:4;stroke-dasharray:none;stroke-dashoffset:0;stroke-opacity:1;color-rendering:auto;image-rendering:auto;shape-rendering:auto;text-rendering:auto;enable-background:accumulate"
         d="m 451.06445,846.46875 -1.82812,5.32813 c -1.30384,3.79845 -2.52537,6.99565 -3.77149,8.98828 l -3.66015,5.85351 6.32617,2.75977 c 0,0 4.94358,2.28389 7.93164,4.76367 0.32343,0.26841 1.71121,2.3573 2.16797,4.77344 0.45676,2.41614 0.15009,4.95788 -0.66992,6.44922 l -0.0664,0.12304 -0.0625,0.12696 c -3.28701,6.71228 -12.72252,10.09089 -19.85937,7.49218 l -0.10938,-0.0391 -0.10937,-0.0352 c -11.22031,-3.59658 -20.10163,-15.37658 -34.93555,-21.84375 -5.90094,-2.87232 -12.39817,-4.92671 -19.25781,-5.43164 l -3.66602,-0.26953 -1.88476,3.15625 c -2.43304,4.07886 -5.30286,7.91614 -8.42774,11.97852 l -9.11133,11.8457 14.75977,-2.33594 c 11.44616,-1.81082 22.78491,5.42788 33.18554,13.79102 l -0.15234,-0.12695 c 12.63917,10.87339 31.02654,18.42331 48.73633,12.35937 18.81583,-5.97633 31.67331,-27.25578 24.5625,-46.76172 C 477.09531,858.1039 466.94127,850.95376 456.48633,848 Z"
         id="path4195"
         inkscape:connector-curvature="0"
         sodipodi:nodetypes="cccccssccccccccccccccccccc" />
      <circle
         style="color:#252525;clip-rule:nonzero;display:inline;overflow:visible;visibility:visible;opacity:0.98999999;isolation:auto;mix-blend-mode:normal;color-interpolation:sRGB;color-interpolation-filters:linearRGB;solid-color:#252525;solid-opacity:1;fill:#99b000;fill-opacity:1;fill-rule:nonzero;stroke:none;stroke-width:23;stroke-linecap:butt;stroke-linejoin:round;stroke-miterlimit:4;stroke-dasharray:none;stroke-dashoffset:0;stroke-opacity:1;color-rendering:auto;image-rendering:auto;shape-rendering:auto;text-rendering:auto;enable-background:accumulate"
         id="circle4197"
         cx="286.68991"
         cy="822.06403"
         r="88.802483" />
      <circle
         style="color:#252525;clip-rule:nonzero;display:inline;overflow:visible;visibility:visible;opacity:1;isolation:auto;mix-blend-mode:normal;color-interpolation:sRGB;color-interpolation-filters:linearRGB;solid-color:#252525;solid-opacity:1;fill:#ffffff;fill-opacity:1;fill-rule:nonzero;stroke:none;stroke-width:2.72525263;stroke-linecap:butt;stroke-linejoin:round;stroke-miterlimit:4;stroke-dasharray:none;stroke-dashoffset:0;stroke-opacity:1;color-rendering:auto;image-rendering:auto;shape-rendering:auto;text-rendering:auto;enable-background:accumulate"
         id="circle4199"
         cx="285.97937"
         cy="765.14703"
         r="22.172501" />
      <circle
         r="22.303108"
         cy="807.92883"
         cx="233.71915"
         id="circle4201"
         style="color:#252525;clip-rule:nonzero;display:inline;overflow:visible;visibility:visible;opacity:1;isolation:auto;mix-blend-mode:normal;color-interpolation:sRGB;color-interpolation-filters:linearRGB;solid-color:#252525;solid-opacity:1;fill:#ffffff;fill-opacity:1;fill-rule:nonzero;stroke:none;stroke-width:2.72525263;stroke-linecap:butt;stroke-linejoin:round;stroke-miterlimit:4;stroke-dasharray:none;stroke-dashoffset:0;stroke-opacity:1;color-rendering:auto;image-rendering:auto;shape-rendering:auto;text-rendering:auto;enable-background:accumulate" />
      <circle
         style="color:#252525;clip-rule:nonzero;display:inline;overflow:visible;visibility:visible;opacity:1;isolation:auto;mix-blend-mode:normal;color-interpolation:sRGB;color-interpolation-filters:linearRGB;solid-color:#252525;solid-opacity:1;fill:#ffffff;fill-opacity:1;fill-rule:nonzero;stroke:none;stroke-width:2.72525263;stroke-linecap:butt;stroke-linejoin:round;stroke-miterlimit:4;stroke-dasharray:none;stroke-dashoffset:0;stroke-opacity:1;color-rendering:auto;image-rendering:auto;shape-rendering:auto;text-rendering:auto;enable-background:accumulate"
         id="circle4203"
         cx="253.87721"
         cy="868.00262"
         r="22.172501" />
      <circle
         r="22.172501"
         cy="866.16071"
         cx="323.05276"
         id="circle4205"
         style="color:#252525;clip-rule:nonzero;display:inline;overflow:visible;visibility:visible;opacity:1;isolation:auto;mix-blend-mode:normal;color-interpolation:sRGB;color-interpolation-filters:linearRGB;solid-color:#252525;solid-opacity:1;fill:#ffffff;fill-opacity:1;fill-rule:nonzero;stroke:none;stroke-width:2.72525263;stroke-linecap:butt;stroke-linejoin:round;stroke-miterlimit:4;stroke-dasharray:none;stroke-dashoffset:0;stroke-opacity:1;color-rendering:auto;image-rendering:auto;shape-rendering:auto;text-rendering:auto;enable-background:accumulate" />
      <circle
         style="color:#252525;clip-rule:nonzero;display:inline;overflow:visible;visibility:visible;opacity:1;isolation:auto;mix-blend-mode:normal;color-interpolation:sRGB;color-interpolation-filters:linearRGB;solid-color:#252525;solid-opacity:1;fill:#ffffff;fill-opacity:1;fill-rule:nonzero;stroke:none;stroke-width:2.72525263;stroke-linecap:butt;stroke-linejoin:round;stroke-miterlimit:4;stroke-dasharray:none;stroke-dashoffset:0;stroke-opacity:1;color-rendering:auto;image-rendering:auto;shape-rendering:auto;text-rendering:auto;enable-background:accumulate"
         id="circle4207"
         cx="339.28311"
         cy="802.52106"
         r="22.172501" />
      <circle
         style="color:#252525;clip-rule:nonzero;display:inline;overflow:visible;visibility:visible;opacity:1;isolation:auto;mix-blend-mode:normal;color-interpolation:sRGB;color-interpolation-filters:linearRGB;solid-color:#252525;solid-opacity:1;fill:#ffffff;fill-opacity:1;fill-rule:nonzero;stroke:none;stroke-width:2.72525263;stroke-linecap:butt;stroke-linejoin:round;stroke-miterlimit:4;stroke-dasharray:none;stroke-dashoffset:0;stroke-opacity:1;color-rendering:auto;image-rendering:auto;shape-rendering:auto;text-rendering:auto;enable-background:accumulate"
         id="circle4209"
         cx="286.73138"
         cy="822.29016"
         r="7.3882709" />
    </g>
  </g>
</svg>
