<?xml version="1.0" encoding="UTF-8" standalone="no"?>
<!-- Created with Inkscape (http://www.inkscape.org/) -->

<svg
   xmlns:dc="http://purl.org/dc/elements/1.1/"
   xmlns:cc="http://creativecommons.org/ns#"
   xmlns:rdf="http://www.w3.org/1999/02/22-rdf-syntax-ns#"
   xmlns:svg="http://www.w3.org/2000/svg"
   xmlns="http://www.w3.org/2000/svg"
   xmlns:xlink="http://www.w3.org/1999/xlink"
   xmlns:sodipodi="http://sodipodi.sourceforge.net/DTD/sodipodi-0.dtd"
   xmlns:inkscape="http://www.inkscape.org/namespaces/inkscape"
   width="210mm"
   height="297mm"
   viewBox="0 0 744.09448819 1052.3622047"
   id="svg2"
   version="1.1"
   inkscape:version="0.91 r13725"
   sodipodi:docname="media-movie.svg"
   inkscape:export-filename="C:\Users\johannes\Documents\Arbeit\RRZE\bi-con\bi-con\scalable\documents\document.png"
   inkscape:export-xdpi="4"
   inkscape:export-ydpi="4">
  <defs
     id="defs4">
    <inkscape:perspective
       sodipodi:type="inkscape:persp3d"
       inkscape:vp_x="0 : 526.1811 : 1"
       inkscape:vp_y="0 : 1000 : 0"
       inkscape:vp_z="744.09449 : 526.1811 : 1"
       inkscape:persp3d-origin="372.04724 : 350.7874 : 1"
       id="perspective4169" />
    <linearGradient
       id="linearGradient2224">
      <stop
         id="stop2226"
         offset="0"
         style="stop-color:#7c7c7c;stop-opacity:1;" />
      <stop
         id="stop2228"
         offset="1"
         style="stop-color:#b8b8b8;stop-opacity:1;" />
    </linearGradient>
    <linearGradient
       id="linearGradient15218">
      <stop
         id="stop15220"
         offset="0"
         style="stop-color:#eeeeef;stop-opacity:1;" />
      <stop
         id="stop2736"
         offset="0.59928656"
         style="stop-color:#d3d7cf;stop-opacity:1;" />
      <stop
         id="stop2738"
         offset="0.82758623"
         style="stop-color:#ffffff;stop-opacity:1;" />
      <stop
         id="stop15222"
         offset="1"
         style="stop-color:#d3d7cf;stop-opacity:1;" />
    </linearGradient>
    <pattern
       y="0"
       x="0"
       height="6"
       width="6"
       patternUnits="userSpaceOnUse"
       id="EMFhbasepattern" />
    <pattern
       y="0"
       x="0"
       height="6"
       width="6"
       patternUnits="userSpaceOnUse"
       id="EMFhbasepattern-5" />
    <linearGradient
       inkscape:collect="always"
       xlink:href="#linearGradient4195"
       id="linearGradient4201"
       x1="286.38269"
       y1="672.9209"
       x2="532.51678"
       y2="367.74933"
       gradientUnits="userSpaceOnUse" />
    <linearGradient
       inkscape:collect="always"
       id="linearGradient4195">
      <stop
         style="stop-color:#5a6578;stop-opacity:1"
         offset="0"
         id="stop4197" />
      <stop
         style="stop-color:#9397a2;stop-opacity:1"
         offset="1"
         id="stop4199" />
    </linearGradient>
    <linearGradient
       inkscape:collect="always"
       xlink:href="#linearGradient4203"
       id="linearGradient4209"
       x1="463.0658"
       y1="396.17969"
       x2="494.89703"
       y2="375.89542"
       gradientUnits="userSpaceOnUse" />
    <linearGradient
       inkscape:collect="always"
       id="linearGradient4203">
      <stop
         style="stop-color:#abbe24;stop-opacity:1"
         offset="0"
         id="stop4205" />
      <stop
         style="stop-color:#c1d53a;stop-opacity:1"
         offset="1"
         id="stop4207" />
    </linearGradient>
  </defs>
  <sodipodi:namedview
     id="base"
     pagecolor="#ffffff"
     bordercolor="#666666"
     borderopacity="1.0"
     inkscape:pageopacity="0.0"
     inkscape:pageshadow="2"
     inkscape:zoom="0.0625"
     inkscape:cx="3787.4775"
     inkscape:cy="13.699681"
     inkscape:document-units="px"
     inkscape:current-layer="layer1"
     showgrid="false"
     showguides="false"
     inkscape:guide-bbox="true"
     inkscape:window-width="1366"
     inkscape:window-height="721"
     inkscape:window-x="-4"
     inkscape:window-y="-4"
     inkscape:window-maximized="1">
    <sodipodi:guide
       position="560,730.00002"
       orientation="0,1"
       id="guide3338" />
    <sodipodi:guide
       position="560,330.00001"
       orientation="0,1"
       id="guide3340" />
    <sodipodi:guide
       position="190,475.00001"
       orientation="1,0"
       id="guide3344" />
    <sodipodi:guide
       position="590,451.00001"
       orientation="1,0"
       id="guide3346" />
    <inkscape:grid
       type="xygrid"
       id="grid3440" />
  </sodipodi:namedview>
  <metadata
     id="metadata7">
    <rdf:RDF>
      <cc:Work
         rdf:about="">
        <dc:format>image/svg+xml</dc:format>
        <dc:type
           rdf:resource="http://purl.org/dc/dcmitype/StillImage" />
        <dc:title />
      </cc:Work>
    </rdf:RDF>
  </metadata>
  <g
     inkscape:label="Ebene 1"
     inkscape:groupmode="layer"
     id="layer1">
    <rect
       style="opacity:1;fill:none;fill-opacity:1;stroke:none;stroke-width:23;stroke-linecap:butt;stroke-linejoin:round;stroke-miterlimit:4;stroke-dasharray:none;stroke-opacity:1"
       id="rect4160"
       width="400"
       height="400"
       x="190"
       y="322.36221" />
    <g
       id="g4166"
       transform="matrix(1.1363532,0,0,1.1363532,-57.062627,-53.094451)">
      <path
         id="path4244"
         d="m 447.48828,330.40625 -177.46484,0.0176 c -10.02251,-0.0168 -15.02271,4.93817 -14.98047,14.8125 -0.0422,82.12567 -0.0423,222.12545 -0.0156,322.14453 -0.0267,9.98092 5.00353,15.04408 14.94141,14.97656 l 244.97852,0.0625 c 10.05222,-0.0575 15.05335,-5.05831 15.11914,-15.14258 l 0.002,-252.92748 c -2.95906,0.27834 -17.45254,1.59796 -33.73438,2.20508 -9.07799,0.33853 -18.50153,0.44677 -26.5996,-0.0449 -4.04906,-0.24584 -7.75945,-0.63106 -11.09571,-1.29297 -3.33626,-0.66191 -8.04105,-1.31058 -11.20338,-3.69726 -5.98809,-4.51936 -6.7257,-12.86713 -6.96093,-19.12135 -0.23524,-6.25423 0.4993,-13.19584 1.4375,-20.53516 1.87027,-14.63103 6.29652,-30.96857 5.57642,-41.45703 z m 15.56055,15.08789 c -0.81278,9.61368 -2.36661,19.48619 -3.50586,28.39844 -0.90241,7.05945 -1.4874,13.46178 -1.32031,17.9043 0.12115,3.22111 0.86807,4.84074 0.91796,5.23437 0.0963,-0.004 0.9317,0.39685 2.61329,0.73047 2.22524,0.44148 5.35567,0.79939 8.94921,1.01758 7.1871,0.43633 16.25284,0.35475 25.03321,0.0273 7.42948,-0.27703 14.08378,-0.73822 19.94726,-1.16016 -0.8622,-0.98808 -1.31151,-1.61756 -2.28906,-2.69921 -6.54279,-7.23956 -15.47295,-16.38454 -24.51953,-25.25782 -9.04658,-8.87328 -18.23646,-17.50325 -25.30078,-23.75195 -0.21571,-0.1908 -0.31359,-0.25699 -0.52539,-0.44336 z m -3.90821,51.53711 c -0.0172,7.9e-4 -0.0184,0.0112 0.0117,0.041 -4.1e-4,-0.007 -0.0107,-0.0329 -0.0117,-0.041 z m 63.53907,9.29883 c 0.1204,0.38201 0.22287,0.36322 0.0801,0.11523 -0.0115,-0.02 -0.067,-0.0931 -0.0801,-0.11523 z"
         style="fill:url(#linearGradient4201);fill-opacity:1;fill-rule:evenodd;stroke:none;stroke-width:1px;stroke-linecap:butt;stroke-linejoin:miter;stroke-opacity:1"
         inkscape:connector-curvature="0"
         sodipodi:nodetypes="ccccccccsssssscccsscssscssscccccccc" />
      <path
         style="fill:url(#linearGradient4209);fill-opacity:1;fill-rule:evenodd;stroke:none;stroke-width:1px;stroke-linecap:butt;stroke-linejoin:miter;stroke-opacity:1"
         d="M 454.99917,330.40486 C 459,329.3622 530.027,397.83562 530.027,405.18835 c 0,0 -66.38967,6.47029 -76.47721,-1.14302 -10.08754,-7.61331 3.18777,-49.16298 1.44938,-73.64047 z"
         id="path4288"
         inkscape:connector-curvature="0"
         sodipodi:nodetypes="cczc"
         inkscape:export-xdpi="4.9499998"
         inkscape:export-ydpi="4.9499998" />
      <path
         inkscape:export-ydpi="4.9499998"
         inkscape:export-xdpi="4.9499998"
         sodipodi:nodetypes="ccccc"
         inkscape:connector-curvature="0"
         id="rect4248"
         d="m 290.45332,446.06097 c 62.47941,0 124.95884,0 187.43825,0 4.72534,-10e-6 4.72534,21.0078 0,21.00781 -62.47941,0 -124.95884,0 -187.43825,0 -6.30046,-1e-5 -6.30046,-21.00782 0,-21.00781 z"
         style="fill:#ffffff;fill-opacity:1;stroke:none" />
      <path
         inkscape:export-ydpi="4.9499998"
         inkscape:export-xdpi="4.9499998"
         sodipodi:nodetypes="ccccc"
         inkscape:connector-curvature="0"
         id="rect4248-4"
         d="m 289.9664,482.98002 c 56.03531,0 112.0706,0 168.10591,0 4.23795,-1e-5 4.23795,21.00781 0,21.00782 -56.03531,0 -112.0706,0 -168.10591,0 -5.65062,-1e-5 -5.65062,-21.00783 0,-21.00782 z"
         style="fill:#ffffff;fill-opacity:1;stroke:none" />
      <path
         inkscape:export-ydpi="4.9499998"
         inkscape:export-xdpi="4.9499998"
         sodipodi:nodetypes="ccccc"
         inkscape:connector-curvature="0"
         id="rect4248-1"
         d="m 290.61134,519.39523 c 59.59653,0 119.19305,0 178.78958,0 4.5073,-2e-5 4.5073,21.00779 0,21.0078 -59.59653,0 -119.19305,0 -178.78958,0 -6.00974,-10e-6 -6.00974,-21.00782 0,-21.0078 z"
         style="fill:#ffffff;fill-opacity:1;stroke:none" />
      <path
         inkscape:export-ydpi="4.9499998"
         inkscape:export-xdpi="4.9499998"
         inkscape:transform-center-y="-32.829958"
         inkscape:transform-center-x="11.294007"
         sodipodi:nodetypes="ccccc"
         inkscape:connector-curvature="0"
         id="rect4248-1-5"
         d="m 289.92792,556.83832 c 55.52657,0 111.05312,0 166.57968,0 4.19949,-10e-6 4.19949,21.00781 0,21.00782 -55.52656,0 -111.05311,0 -166.57968,0 -5.59932,-10e-6 -5.59932,-21.00783 0,-21.00782 z"
         style="fill:#ffffff;fill-opacity:1;stroke:none" />
    </g>
    <path
       style="color:#000000;font-style:normal;font-variant:normal;font-weight:normal;font-stretch:normal;font-size:medium;line-height:normal;font-family:sans-serif;text-indent:0;text-align:start;text-decoration:none;text-decoration-line:none;text-decoration-style:solid;text-decoration-color:#000000;letter-spacing:normal;word-spacing:normal;text-transform:none;direction:ltr;block-progression:tb;writing-mode:lr-tb;baseline-shift:baseline;text-anchor:start;white-space:normal;clip-rule:nonzero;display:inline;overflow:visible;visibility:visible;opacity:1;isolation:auto;mix-blend-mode:normal;color-interpolation:sRGB;color-interpolation-filters:linearRGB;solid-color:#000000;solid-opacity:1;fill:#ffffff;fill-opacity:1;fill-rule:nonzero;stroke:#5a6578;stroke-width:20;stroke-linecap:butt;stroke-linejoin:round;stroke-miterlimit:4;stroke-dasharray:none;stroke-dashoffset:60.95800018;stroke-opacity:1;color-rendering:auto;image-rendering:auto;shape-rendering:auto;text-rendering:auto;enable-background:accumulate"
       d="m 206.44531,489.94922 c -17.30817,0 -31.71484,14.40262 -31.71484,31.71289 l 0,133.72461 c 0,17.31027 14.40669,31.71289 31.71484,31.71289 l 234.01758,0 c 17.30815,0 31.71289,-14.40471 31.71289,-31.71289 l 0,-6.38672 35.23047,23.49023 c 14.20797,9.47359 34.8688,-1.57974 34.86914,-18.6582 l 0,-130.81055 a 15.0015,15.0015 0 0 0 0,-0.004 c -0.003,-12.44707 -10.63867,-22.77515 -23.08008,-22.41211 l -0.004,0 c -4.2085,0.12293 -8.28737,1.42928 -11.7793,3.75586 a 15.0015,15.0015 0 0 0 -0.004,0.002 l -35.23242,23.48633 0,-6.1875 c 0,-17.30817 -14.40472,-31.71289 -31.71289,-31.71289 l -234.01758,0 z m 0,30 234.01758,0 c 1.21247,0 1.71289,0.50042 1.71289,1.71289 l 0,34.21484 a 15.0015,15.0015 0 0 0 23.32031,12.48047 l 46.7793,-31.18554 0,102.50781 -46.7793,-31.1875 a 15.0015,15.0015 0 0 0 -23.32031,12.48047 l 0,34.41406 c 0,1.2125 -0.5004,1.71289 -1.71289,1.71289 l -234.01758,0 c -1.2125,0 -1.71484,-0.50248 -1.71484,-1.71289 l 0,-133.72461 c 0,-1.21037 0.50236,-1.71289 1.71484,-1.71289 z"
       id="path4181"
       inkscape:connector-curvature="0" />
    <path
       style="color:#000000;clip-rule:nonzero;display:inline;overflow:visible;visibility:visible;opacity:1;isolation:auto;mix-blend-mode:normal;color-interpolation:sRGB;color-interpolation-filters:linearRGB;solid-color:#000000;solid-opacity:1;fill:#abbe24;fill-opacity:1;fill-rule:nonzero;stroke:#ffffff;stroke-width:30;stroke-linecap:butt;stroke-linejoin:round;stroke-miterlimit:4;stroke-dasharray:none;stroke-dashoffset:60.95800018;stroke-opacity:1;color-rendering:auto;image-rendering:auto;shape-rendering:auto;text-rendering:auto;enable-background:accumulate"
       d="M 206.44531 504.94922 C 197.18498 504.94922 189.73047 512.40179 189.73047 521.66211 L 189.73047 655.38672 C 189.73047 664.64706 197.18498 672.09961 206.44531 672.09961 L 440.46289 672.09961 C 449.72321 672.09961 457.17578 664.64706 457.17578 655.38672 L 457.17578 620.97266 L 515.72852 660.00977 C 520.66345 663.30028 527.27527 659.76339 527.27539 653.83203 L 527.27539 523.02148 C 527.27453 518.83538 523.81516 515.47675 519.63086 515.59961 C 518.23946 515.64001 516.88692 516.07194 515.72852 516.84375 L 457.17578 555.87695 L 457.17578 521.66211 C 457.17578 512.40179 449.72321 504.94922 440.46289 504.94922 L 206.44531 504.94922 z "
       id="path4176" />
    <path
       id="rect4204"
       d="m 206.44502,504.94859 c -9.26033,0 -16.71385,7.45355 -16.71385,16.71387 l 0,133.72405 c 0,9.26034 7.45352,16.71387 16.71385,16.71387 l 234.01714,0 c 9.26032,0 16.71384,-7.45353 16.71384,-16.71387 l 0,-34.41475 58.55331,39.03775 c 4.93493,3.29051 11.54569,-0.24702 11.54581,-6.17838 l 0,-130.80937 c -8.6e-4,-4.1861 -3.45972,-7.54422 -7.64402,-7.42136 -1.3914,0.0404 -2.74339,0.47117 -3.90179,1.24298 l -58.55331,39.03444 0,-34.21536 c 0,-9.26032 -7.45352,-16.71387 -16.71384,-16.71387 l -234.01714,0 z"
       style="color:#000000;clip-rule:nonzero;display:inline;overflow:visible;visibility:visible;opacity:1;isolation:auto;mix-blend-mode:normal;color-interpolation:sRGB;color-interpolation-filters:linearRGB;solid-color:#000000;solid-opacity:1;fill:#abbe24;fill-opacity:1;fill-rule:nonzero;stroke:none;stroke-width:12;stroke-linecap:butt;stroke-linejoin:round;stroke-miterlimit:4;stroke-dasharray:none;stroke-dashoffset:60.95800018;stroke-opacity:1;color-rendering:auto;image-rendering:auto;shape-rendering:auto;text-rendering:auto;enable-background:accumulate"
       inkscape:connector-curvature="0" />
    <path
       inkscape:connector-curvature="0"
       id="path4208"
       d="m 286.68035,535.03524 0,106.97842 80.2338,-53.48921 z"
       style="fill:#ffffff;fill-rule:evenodd;stroke:none;stroke-width:1px;stroke-linecap:butt;stroke-linejoin:miter;stroke-opacity:1" />
  </g>
</svg>
