<?xml version="1.0" encoding="UTF-8" standalone="no"?>
<!-- Created with Inkscape (http://www.inkscape.org/) -->

<svg
   xmlns:dc="http://purl.org/dc/elements/1.1/"
   xmlns:cc="http://creativecommons.org/ns#"
   xmlns:rdf="http://www.w3.org/1999/02/22-rdf-syntax-ns#"
   xmlns:svg="http://www.w3.org/2000/svg"
   xmlns="http://www.w3.org/2000/svg"
   xmlns:xlink="http://www.w3.org/1999/xlink"
   xmlns:sodipodi="http://sodipodi.sourceforge.net/DTD/sodipodi-0.dtd"
   xmlns:inkscape="http://www.inkscape.org/namespaces/inkscape"
   width="210mm"
   height="297mm"
   viewBox="0 0 744.09448819 1052.3622047"
   id="svg2"
   version="1.1"
   inkscape:version="0.91 r13725"
   sodipodi:docname="office-ms-word-download.svg"
   inkscape:export-filename="C:\Users\johannes\Documents\Arbeit\RRZE\bi-con\bi-con\scalable\documents\document.png"
   inkscape:export-xdpi="4"
   inkscape:export-ydpi="4">
  <defs
     id="defs4">
    <linearGradient
       id="linearGradient2224">
      <stop
         id="stop2226"
         offset="0"
         style="stop-color:#7c7c7c;stop-opacity:1;" />
      <stop
         id="stop2228"
         offset="1"
         style="stop-color:#b8b8b8;stop-opacity:1;" />
    </linearGradient>
    <linearGradient
       id="linearGradient15218">
      <stop
         id="stop15220"
         offset="0"
         style="stop-color:#eeeeef;stop-opacity:1;" />
      <stop
         id="stop2736"
         offset="0.59928656"
         style="stop-color:#d3d7cf;stop-opacity:1;" />
      <stop
         id="stop2738"
         offset="0.82758623"
         style="stop-color:#ffffff;stop-opacity:1;" />
      <stop
         id="stop15222"
         offset="1"
         style="stop-color:#d3d7cf;stop-opacity:1;" />
    </linearGradient>
    <pattern
       y="0"
       x="0"
       height="6"
       width="6"
       patternUnits="userSpaceOnUse"
       id="EMFhbasepattern" />
    <pattern
       y="0"
       x="0"
       height="6"
       width="6"
       patternUnits="userSpaceOnUse"
       id="EMFhbasepattern-5" />
    <linearGradient
       inkscape:collect="always"
       xlink:href="#linearGradient3672"
       id="linearGradient3193"
       gradientUnits="userSpaceOnUse"
       gradientTransform="matrix(0.80847001,0,0,0.80847001,70.793719,99.285621)"
       x1="474"
       y1="649.505"
       x2="286"
       y2="416.64789" />
    <linearGradient
       id="linearGradient3672">
      <stop
         id="stop3674"
         offset="0"
         style="stop-color:#3465a4;stop-opacity:1;" />
      <stop
         id="stop3676"
         offset="1"
         style="stop-color:#729fcf;stop-opacity:1;" />
    </linearGradient>
  </defs>
  <sodipodi:namedview
     id="base"
     pagecolor="#ffffff"
     bordercolor="#666666"
     borderopacity="1.0"
     inkscape:pageopacity="0.0"
     inkscape:pageshadow="2"
     inkscape:zoom="0.70710678"
     inkscape:cx="157.43136"
     inkscape:cy="455.82049"
     inkscape:document-units="px"
     inkscape:current-layer="layer1"
     showgrid="false"
     showguides="true"
     inkscape:guide-bbox="true"
     inkscape:window-width="1366"
     inkscape:window-height="721"
     inkscape:window-x="-4"
     inkscape:window-y="-4"
     inkscape:window-maximized="1">
    <sodipodi:guide
       position="560,730.00002"
       orientation="0,1"
       id="guide3338" />
    <sodipodi:guide
       position="560,330.00001"
       orientation="0,1"
       id="guide3340" />
    <sodipodi:guide
       position="190,475.00001"
       orientation="1,0"
       id="guide3344" />
    <sodipodi:guide
       position="590,451.00001"
       orientation="1,0"
       id="guide3346" />
    <inkscape:grid
       type="xygrid"
       id="grid3440" />
  </sodipodi:namedview>
  <metadata
     id="metadata7">
    <rdf:RDF>
      <cc:Work
         rdf:about="">
        <dc:format>image/svg+xml</dc:format>
        <dc:type
           rdf:resource="http://purl.org/dc/dcmitype/StillImage" />
      </cc:Work>
    </rdf:RDF>
  </metadata>
  <g
     inkscape:label="Ebene 1"
     inkscape:groupmode="layer"
     id="layer1">
    <rect
       style="opacity:1;fill:none;fill-opacity:1;stroke:none;stroke-width:23;stroke-linecap:butt;stroke-linejoin:round;stroke-miterlimit:4;stroke-dasharray:none;stroke-opacity:1"
       id="rect4160"
       width="400"
       height="400"
       x="190"
       y="322.36221" />
    <path
       inkscape:connector-curvature="0"
       style="fill:url(#linearGradient3193);fill-opacity:1;stroke:none;stroke-width:10.78998089;stroke-linecap:butt;stroke-linejoin:round;stroke-miterlimit:4;stroke-dasharray:none;stroke-opacity:1"
       d="m 214.16306,346.50027 -0.15466,35.34966 28.87391,1.15495 0,240.23106 48.5082,0 58.90281,-80.84699 12.70451,80.84699 64.67761,0 114.34074,-240.23106 21.94419,-1.15495 0.048,-35.91303 -93.59954,0.10936 0,36.95862 15.01446,0 -61.21273,85.46683 -0.10936,-122.25472 -70.343,-0.17073 -62.36769,131.66508 -1.15495,-95.86141 20.78922,-1.15497 0.69098,-34.26702 z"
       id="path3628"
       sodipodi:nodetypes="cccccccccccccccccccccc" />
    <path
       style="fill:#abbe24;fill-opacity:1;fill-rule:evenodd;stroke:#ffffff;stroke-width:30;stroke-linecap:butt;stroke-linejoin:round;stroke-miterlimit:4;stroke-dasharray:none;stroke-opacity:1"
       d="m 448.11556,717.37717 c -2.06375,0 -4.12748,-1.38091 -6.87913,-4.1427 L 344.9287,600.00059 c -5.50329,-5.52361 -2.75165,-13.809 8.25495,-13.809 l 33.01979,0 0,-96.66309 c 0,-7.65018 6.13621,-13.809 13.75825,-13.809 l 96.30774,0 c 7.62203,0 13.75823,6.15882 13.75823,13.809 l 0,96.66309 33.01979,0 c 11.00661,0 11.00661,11.0472 8.25495,13.809 l -96.30771,113.23388 c -2.75166,2.76179 -4.8154,4.1427 -6.87913,4.1427 z"
       id="path4168"
       inkscape:connector-curvature="0" />
    <path
       inkscape:connector-curvature="0"
       id="path4237"
       d="m 448.11556,717.37717 c -2.06375,0 -4.12748,-1.38091 -6.87913,-4.1427 L 344.9287,600.00059 c -5.50329,-5.52361 -2.75165,-13.809 8.25495,-13.809 l 33.01979,0 0,-96.66309 c 0,-7.65018 6.13621,-13.809 13.75825,-13.809 l 96.30774,0 c 7.62203,0 13.75823,6.15882 13.75823,13.809 l 0,96.66309 33.01979,0 c 11.00661,0 11.00661,11.0472 8.25495,13.809 l -96.30771,113.23388 c -2.75166,2.76179 -4.8154,4.1427 -6.87913,4.1427 z"
       style="fill:#abbe24;fill-opacity:1;fill-rule:evenodd;stroke:none;stroke-width:1px;stroke-linecap:butt;stroke-linejoin:miter;stroke-opacity:1" />
  </g>
</svg>
