<?xml version="1.0" encoding="UTF-8" standalone="no"?>
<!-- Created with Inkscape (http://www.inkscape.org/) -->
<svg xmlns:dc="http://purl.org/dc/elements/1.1/" xmlns:cc="http://creativecommons.org/ns#" xmlns:rdf="http://www.w3.org/1999/02/22-rdf-syntax-ns#" xmlns:svg="http://www.w3.org/2000/svg" xmlns="http://www.w3.org/2000/svg" xmlns:xlink="http://www.w3.org/1999/xlink" xmlns:sodipodi="http://sodipodi.sourceforge.net/DTD/sodipodi-0.dtd" xmlns:inkscape="http://www.inkscape.org/namespaces/inkscape" width="210mm" height="297mm" viewBox="0 0 744.09448819 1052.3622047" id="svg2" version="1.1" inkscape:version="0.91 r13725" inkscape:export-xdpi="4" inkscape:export-ydpi="4">
  <defs id="defs4">
    <inkscape:perspective sodipodi:type="inkscape:persp3d" inkscape:vp_x="0 : 526.1811 : 1" inkscape:vp_y="0 : 1000 : 0" inkscape:vp_z="744.09449 : 526.1811 : 1" inkscape:persp3d-origin="372.04724 : 350.7874 : 1" id="perspective4169"/>
    <linearGradient id="linearGradient2224">
      <stop id="stop2226" offset="0" style="stop-color:#7c7c7c;stop-opacity:1;"/>
      <stop id="stop2228" offset="1" style="stop-color:#b8b8b8;stop-opacity:1;"/>
    </linearGradient>
    <linearGradient id="linearGradient15218">
      <stop id="stop15220" offset="0" style="stop-color:#eeeeef;stop-opacity:1;"/>
      <stop id="stop2736" offset="0.59928656" style="stop-color:#d3d7cf;stop-opacity:1;"/>
      <stop id="stop2738" offset="0.82758623" style="stop-color:#ffffff;stop-opacity:1;"/>
      <stop id="stop15222" offset="1" style="stop-color:#d3d7cf;stop-opacity:1;"/>
    </linearGradient>
    <pattern y="0" x="0" height="6" width="6" patternUnits="userSpaceOnUse" id="EMFhbasepattern"/>
    <pattern y="0" x="0" height="6" width="6" patternUnits="userSpaceOnUse" id="EMFhbasepattern-5"/>
    <linearGradient inkscape:collect="always" xlink:href="#linearGradient4195" id="linearGradient4201" x1="286.38269" y1="672.9209" x2="532.51678" y2="367.74933" gradientUnits="userSpaceOnUse" gradientTransform="matrix(1.1363532,0,0,1.1363532,-57.062627,-53.094451)"/>
    <linearGradient inkscape:collect="always" id="linearGradient4195">
      <stop style="stop-color:#4e505d;stop-opacity:1" offset="0" id="stop4197"/>
      <stop style="stop-color:#545d6c;stop-opacity:1" offset="1" id="stop4199"/>
    </linearGradient>
    <linearGradient inkscape:collect="always" xlink:href="#linearGradient4203" id="linearGradient4209" x1="463.0658" y1="396.17969" x2="494.89703" y2="375.89542" gradientUnits="userSpaceOnUse" gradientTransform="matrix(1.1363532,0,0,1.1363532,-57.062627,-53.094451)"/>
    <linearGradient inkscape:collect="always" id="linearGradient4203">
      <stop style="stop-color:#99b000;stop-opacity:1" offset="0" id="stop4205"/>
      <stop style="stop-color:#c1d53a;stop-opacity:1" offset="1" id="stop4207"/>
    </linearGradient>
  </defs>
  <sodipodi:namedview id="base" pagecolor="#ffffff" bordercolor="#666666" borderopacity="1.0" inkscape:pageopacity="0.0" inkscape:pageshadow="2" inkscape:zoom="1" inkscape:cx="279.36497" inkscape:cy="472.6782" inkscape:document-units="px" inkscape:current-layer="layer1" showgrid="false" showguides="true" inkscape:guide-bbox="true" inkscape:window-width="1366" inkscape:window-height="721" inkscape:window-x="-4" inkscape:window-y="-4" inkscape:window-maximized="1">
    <sodipodi:guide position="560,730.00002" orientation="0,1" id="guide3338"/>
    <sodipodi:guide position="560,330.00001" orientation="0,1" id="guide3340"/>
    <sodipodi:guide position="190,475.00001" orientation="1,0" id="guide3344"/>
    <sodipodi:guide position="590,451.00001" orientation="1,0" id="guide3346"/>
    <inkscape:grid type="xygrid" id="grid3440"/>
  </sodipodi:namedview>
  <metadata id="metadata7">
    <rdf:RDF>
      <cc:Work rdf:about="">
        <dc:format>image/svg+xml</dc:format>
        <dc:type rdf:resource="http://purl.org/dc/dcmitype/StillImage"/>
        <dc:title>text csv text</dc:title>
      </cc:Work>
    </rdf:RDF>
  </metadata>
  <g inkscape:label="Ebene 1" inkscape:groupmode="layer" id="layer1">
    <rect style="opacity:1;fill:none;fill-opacity:1;stroke:none;stroke-width:23;stroke-linecap:butt;stroke-linejoin:round;stroke-miterlimit:4;stroke-dasharray:none;stroke-opacity:1" id="rect4160" width="400" height="400" x="190" y="322.36221"/>
    <path sodipodi:nodetypes="ccccccccsssssscccsscssscssscccccccc" inkscape:connector-curvature="0" style="fill:url(#linearGradient4201);fill-opacity:1;fill-rule:evenodd;stroke:none;stroke-width:1px;stroke-linecap:butt;stroke-linejoin:miter;stroke-opacity:1" d="m 451.44211,322.36375 -201.66274,0.02 c -11.38911,-0.0191 -17.0711,5.6115 -17.0231,16.83223 -0.048,93.32377 -0.0481,252.41297 -0.0177,366.06997 -0.0303,11.34185 5.68578,17.09539 16.97872,17.01866 l 278.38213,0.071 c 11.42287,-0.0653 17.10592,-5.74803 17.18068,-17.20732 l 0.002,-287.41495 c -3.36254,0.31629 -19.83225,1.81585 -38.33417,2.50575 -10.3158,0.38469 -21.02427,0.50769 -30.22654,-0.051 -4.60116,-0.27936 -8.81748,-0.71711 -12.60865,-1.46927 -3.79117,-0.75217 -9.13747,-1.48928 -12.73099,-4.2014 -6.80459,-5.13558 -7.64277,-14.6216 -7.91008,-21.7286 -0.26731,-7.10702 0.56738,-14.99514 1.63351,-23.3352 2.12529,-16.62602 7.15507,-35.19123 6.33678,-47.10983 z m 17.68228,17.14517 c -0.9236,10.92454 -2.6893,22.14319 -3.98389,32.27066 -1.02546,8.02203 -1.69021,15.29734 -1.50034,20.34561 0.13767,3.66032 0.98643,5.50079 1.04313,5.94809 0.10943,-0.005 1.05874,0.45096 2.96962,0.83007 2.52865,0.50168 6.08593,0.90839 10.16946,1.15633 8.16708,0.49583 18.46897,0.40312 28.44657,0.031 8.44251,-0.31481 16.00415,-0.83888 22.66713,-1.31836 -0.97976,-1.1228 -1.49034,-1.83812 -2.60118,-3.06725 -7.43492,-8.2267 -17.58274,-18.61863 -27.86285,-28.70181 -10.28011,-10.08318 -20.72306,-19.88987 -28.75062,-26.9906 -0.24512,-0.21682 -0.35635,-0.29203 -0.59703,-0.50381 z m -4.4411,58.56436 c -0.0195,9e-4 -0.0209,0.0127 0.0133,0.0466 -4.6e-4,-0.008 -0.0122,-0.0374 -0.0133,-0.0466 z m 72.20282,10.56676 c 0.13682,0.43409 0.25326,0.41274 0.091,0.13094 -0.0131,-0.0227 -0.0761,-0.1058 -0.091,-0.13094 z" id="path4244"/>
    <path style="fill:url(#linearGradient4209);fill-opacity:1;fill-rule:evenodd;stroke:#ffffff;stroke-width:50;stroke-linecap:butt;stroke-linejoin:miter;stroke-opacity:1;stroke-miterlimit:4;stroke-dasharray:none" d="m 459.97714,322.36217 c 4.54635,-1.18483 85.25811,76.62516 85.25811,84.98046 0,0 -75.44211,7.35253 -86.90512,-1.29888 -11.46301,-8.65141 3.62243,-55.86651 1.64701,-83.68158 z" id="path4176" inkscape:connector-curvature="0" sodipodi:nodetypes="cczc" inkscape:export-xdpi="4.9499998" inkscape:export-ydpi="4.9499998"/>
    <path inkscape:export-ydpi="4.9499998" inkscape:export-xdpi="4.9499998" sodipodi:nodetypes="cczc" inkscape:connector-curvature="0" id="path4288" d="m 459.97714,322.36217 c 4.54635,-1.18483 85.25811,76.62516 85.25811,84.98046 0,0 -75.44211,7.35253 -86.90512,-1.29888 -11.46301,-8.65141 3.62243,-55.86651 1.64701,-83.68158 z" style="fill:url(#linearGradient4209);fill-opacity:1;fill-rule:evenodd;stroke:none;stroke-width:1px;stroke-linecap:butt;stroke-linejoin:miter;stroke-opacity:1"/>
    <path style="fill:#ffffff;fill-opacity:1;stroke:none" d="m 272.99493,453.78836 c 70.99868,0 141.99738,0 212.99606,0 5.36965,-1e-5 5.36965,23.87228 0,23.87229 -70.99868,0 -141.99738,0 -212.99606,0 -7.15955,-10e-6 -7.15955,-23.8723 0,-23.87229 z" id="rect4248" inkscape:connector-curvature="0" sodipodi:nodetypes="ccccc" inkscape:export-xdpi="4.9499998" inkscape:export-ydpi="4.9499998"/>
    <path style="fill:#ffffff;fill-opacity:1;stroke:none" d="m 272.44162,495.74144 c 63.6759,0 127.35178,0 191.02769,0 4.81581,-1e-5 4.81581,23.87229 0,23.8723 -63.67591,0 -127.35179,0 -191.02769,0 -6.4211,-10e-6 -6.4211,-23.87231 0,-23.8723 z" id="rect4248-4" inkscape:connector-curvature="0" sodipodi:nodetypes="ccccc" inkscape:export-xdpi="4.9499998" inkscape:export-ydpi="4.9499998"/>
    <path style="fill:#ffffff;fill-opacity:1;stroke:none" d="m 273.1745,537.12198 c 67.72271,0 135.4454,0 203.16811,0 5.12189,-2e-5 5.12189,23.87227 0,23.87228 -67.72271,0 -135.4454,0 -203.16811,0 -6.82919,-1e-5 -6.82919,-23.8723 0,-23.87228 z" id="rect4248-1" inkscape:connector-curvature="0" sodipodi:nodetypes="ccccc" inkscape:export-xdpi="4.9499998" inkscape:export-ydpi="4.9499998"/>
    <path style="fill:#ffffff;fill-opacity:1;stroke:none" d="m 272.39789,579.67056 c 63.0978,0 126.19557,0 189.29336,0 4.7721,-2e-5 4.7721,23.87229 0,23.8723 -63.09779,0 -126.19556,0 -189.29336,0 -6.3628,-10e-6 -6.3628,-23.87232 0,-23.8723 z" id="rect4248-1-5" inkscape:connector-curvature="0" sodipodi:nodetypes="ccccc" inkscape:transform-center-x="11.294007" inkscape:transform-center-y="-32.829958" inkscape:export-xdpi="4.9499998" inkscape:export-ydpi="4.9499998"/>
    <path style="color:#000000;font-style:normal;font-variant:normal;font-weight:normal;font-stretch:normal;font-size:medium;line-height:normal;font-family:sans-serif;text-indent:0;text-align:start;text-decoration:none;text-decoration-line:none;text-decoration-style:solid;text-decoration-color:#000000;letter-spacing:normal;word-spacing:normal;text-transform:none;direction:ltr;block-progression:tb;writing-mode:lr-tb;baseline-shift:baseline;text-anchor:start;white-space:normal;clip-rule:nonzero;display:inline;overflow:visible;visibility:visible;opacity:1;isolation:auto;mix-blend-mode:normal;color-interpolation:sRGB;color-interpolation-filters:linearRGB;solid-color:#000000;solid-opacity:1;fill:#4e505d;fill-opacity:1;fill-rule:nonzero;stroke:#4e505d;stroke-width:21.03432083;stroke-linecap:butt;stroke-linejoin:round;stroke-miterlimit:4;stroke-dasharray:none;stroke-dashoffset:60.95800018;stroke-opacity:1;color-rendering:auto;image-rendering:auto;shape-rendering:auto;text-rendering:auto;enable-background:accumulate" d="m 203.58517,496.38088 c -16.13275,0 -29.56801,12.30505 -29.56801,27.08068 l 0,113.07485 c 0,14.77562 13.43526,27.08066 29.56801,27.08066 l 257.99495,0 c 16.13274,0 29.56801,-12.30504 29.56801,-27.08066 l 0,-113.07485 c 0,-14.77563 -13.43527,-27.08068 -29.56801,-27.08068 l -257.99495,0 z m 0,26.25672 257.99495,0 c 0.74634,0 0.89962,0.14039 0.89962,0.82396 l 0,113.07485 c 0,0.68356 -0.15328,0.82394 -0.89962,0.82394 l -257.99495,0 c -0.74635,0 -0.89962,-0.14038 -0.89962,-0.82394 l 0,-113.07485 c 0,-0.68357 0.15327,-0.82396 0.89962,-0.82396 z" id="rect4191" inkscape:connector-curvature="0"/>
    <rect ry="13.952332" y="509.5087" x="188.35135" height="140.97955" width="288.46329" id="rect4189" style="color:#000000;clip-rule:nonzero;display:inline;overflow:visible;visibility:visible;opacity:1;isolation:auto;mix-blend-mode:normal;color-interpolation:sRGB;color-interpolation-filters:linearRGB;solid-color:#000000;solid-opacity:1;fill:#99b000;fill-opacity:1;fill-rule:nonzero;stroke:#ffffff;stroke-width:50;stroke-linecap:butt;stroke-linejoin:round;stroke-miterlimit:4;stroke-dasharray:none;stroke-dashoffset:60.95800018;stroke-opacity:1;color-rendering:auto;image-rendering:auto;shape-rendering:auto;text-rendering:auto;enable-background:accumulate"/>
    <rect style="color:#000000;clip-rule:nonzero;display:inline;overflow:visible;visibility:visible;opacity:1;isolation:auto;mix-blend-mode:normal;color-interpolation:sRGB;color-interpolation-filters:linearRGB;solid-color:#000000;solid-opacity:1;fill:#99b000;fill-opacity:1;fill-rule:nonzero;stroke:none;stroke-width:12;stroke-linecap:butt;stroke-linejoin:round;stroke-miterlimit:4;stroke-dasharray:none;stroke-dashoffset:60.95800018;stroke-opacity:1;color-rendering:auto;image-rendering:auto;shape-rendering:auto;text-rendering:auto;enable-background:accumulate" id="rect4183" width="288.46329" height="140.97955" x="188.35135" y="509.5087" ry="13.952332"/>
    <text xml:space="preserve" style="font-style:normal;font-weight:normal;font-size:121.41140747px;line-height:125%;font-family:sans-serif;letter-spacing:0px;word-spacing:0px;fill:#000000;fill-opacity:1;stroke:none;stroke-width:1px;stroke-linecap:butt;stroke-linejoin:miter;stroke-opacity:1" x="193.67084" y="624.20941" id="text4185" sodipodi:linespacing="125%"><tspan sodipodi:role="line" id="tspan4187" x="193.67084" y="624.20941" style="font-style:normal;font-variant:normal;font-weight:bold;font-stretch:normal;font-family:sans-serif;-inkscape-font-specification:'sans-serif Bold';fill:#ffffff">CSV</tspan></text>
  </g>
</svg>
