<?xml version="1.0" encoding="UTF-8" standalone="no"?>
<!-- Created with Inkscape (http://www.inkscape.org/) -->

<svg
   xmlns:dc="http://purl.org/dc/elements/1.1/"
   xmlns:cc="http://creativecommons.org/ns#"
   xmlns:rdf="http://www.w3.org/1999/02/22-rdf-syntax-ns#"
   xmlns:svg="http://www.w3.org/2000/svg"
   xmlns="http://www.w3.org/2000/svg"
   xmlns:xlink="http://www.w3.org/1999/xlink"
   xmlns:sodipodi="http://sodipodi.sourceforge.net/DTD/sodipodi-0.dtd"
   xmlns:inkscape="http://www.inkscape.org/namespaces/inkscape"
   width="210mm"
   height="297mm"
   viewBox="0 0 744.09448819 1052.3622047"
   id="svg2"
   version="1.1"
   inkscape:version="0.91 r13725"
   inkscape:export-xdpi="7.1992784"
   inkscape:export-ydpi="7.1992784"
   sodipodi:docname="text-groovy.svg"
   inkscape:export-filename="C:\Users\johannes\Documents\Arbeit\RRZE\github3\bicons\32x32\mime-types\text-groovy.png">
  <defs
     id="defs4">
    <linearGradient
       id="linearGradient2224">
      <stop
         id="stop2226"
         offset="0"
         style="stop-color:#7c7c7c;stop-opacity:1;" />
      <stop
         id="stop2228"
         offset="1"
         style="stop-color:#b8b8b8;stop-opacity:1;" />
    </linearGradient>
    <linearGradient
       id="linearGradient15218">
      <stop
         id="stop15220"
         offset="0"
         style="stop-color:#eeeeef;stop-opacity:1;" />
      <stop
         id="stop2736"
         offset="0.59928656"
         style="stop-color:#d3d7cf;stop-opacity:1;" />
      <stop
         id="stop2738"
         offset="0.82758623"
         style="stop-color:#ffffff;stop-opacity:1;" />
      <stop
         id="stop15222"
         offset="1"
         style="stop-color:#d3d7cf;stop-opacity:1;" />
    </linearGradient>
    <pattern
       y="0"
       x="0"
       height="6"
       width="6"
       patternUnits="userSpaceOnUse"
       id="EMFhbasepattern" />
    <pattern
       y="0"
       x="0"
       height="6"
       width="6"
       patternUnits="userSpaceOnUse"
       id="EMFhbasepattern-5" />
    <linearGradient
       id="linearGradient5280">
      <stop
         id="stop5282"
         offset="0"
         style="stop-color:#555753;stop-opacity:0.01129944;" />
      <stop
         style="stop-color:#555753;stop-opacity:0.22598869;"
         offset="0.00195313"
         id="stop5310" />
      <stop
         style="stop-color:#555753;stop-opacity:0.01176471;"
         offset="0.00390625"
         id="stop5306" />
      <stop
         style="stop-color:#555753;stop-opacity:0.01176471;"
         offset="0.0078125"
         id="stop5304" />
      <stop
         style="stop-color:#555753;stop-opacity:0.07344633;"
         offset="0.015625"
         id="stop5302" />
      <stop
         style="stop-color:#555753;stop-opacity:0.01568627;"
         offset="0.03125"
         id="stop5298" />
      <stop
         style="stop-color:#555753;stop-opacity:0.01129944;"
         offset="0.0625"
         id="stop5296" />
      <stop
         style="stop-color:#555753;stop-opacity:0.36723164;"
         offset="0.125"
         id="stop5294" />
      <stop
         style="stop-color:#555753;stop-opacity:0.00564972;"
         offset="0.25"
         id="stop5290" />
      <stop
         style="stop-color:#555753;stop-opacity:0.02259887;"
         offset="0.5"
         id="stop5288" />
      <stop
         id="stop5292"
         offset="0.75"
         style="stop-color:#555753;stop-opacity:0.19774012;" />
      <stop
         style="stop-color:#555753;stop-opacity:0.18079096;"
         offset="0.875"
         id="stop5300" />
      <stop
         id="stop5308"
         offset="0.9375"
         style="stop-color:#555753;stop-opacity:0.28813559;" />
      <stop
         id="stop5284"
         offset="1"
         style="stop-color:#555753;stop-opacity:0.07344633;" />
    </linearGradient>
    <linearGradient
       id="linearGradient5348">
      <stop
         id="stop5350"
         offset="0"
         style="stop-color:#729fcf;stop-opacity:0;" />
      <stop
         style="stop-color:#729fcf;stop-opacity:0.17514125;"
         offset="0.14182246"
         id="stop5368" />
      <stop
         style="stop-color:#729fcf;stop-opacity:0.42937854;"
         offset="0.24686332"
         id="stop5366" />
      <stop
         id="stop5394"
         offset="0.27796116"
         style="stop-color:#729fcf;stop-opacity:0.39215686;" />
      <stop
         style="stop-color:#729fcf;stop-opacity:0.39215687;"
         offset="0.38030669"
         id="stop5364" />
      <stop
         style="stop-color:#ffffff;stop-opacity:1;"
         offset="0.46561956"
         id="stop5362" />
      <stop
         id="stop3727"
         offset="0.54757094"
         style="stop-color:#b8cfe7;stop-opacity:0.62352941;" />
      <stop
         style="stop-color:#729fcf;stop-opacity:0.24858756;"
         offset="0.62952232"
         id="stop5360" />
      <stop
         style="stop-color:#729fcf;stop-opacity:0.27683616;"
         offset="0.69749689"
         id="stop5358" />
      <stop
         style="stop-color:#729fcf;stop-opacity:0.16384181;"
         offset="0.84827983"
         id="stop5356" />
      <stop
         id="stop5352"
         offset="1"
         style="stop-color:#729fcf;stop-opacity:0;" />
    </linearGradient>
    <linearGradient
       id="linearGradient5170">
      <stop
         id="stop5172"
         offset="0"
         style="stop-color:#ffffff;stop-opacity:0.18039216;" />
      <stop
         style="stop-color:#ffffff;stop-opacity:1;"
         offset="0.51451057"
         id="stop5178" />
      <stop
         id="stop5174"
         offset="1"
         style="stop-color:#ffffff;stop-opacity:0;" />
    </linearGradient>
    <linearGradient
       id="linearGradient5210">
      <stop
         id="stop5212"
         offset="0"
         style="stop-color:#ffffff;stop-opacity:0.63973064" />
      <stop
         id="stop5214"
         offset="1"
         style="stop-color:#ffffff;stop-opacity:0;" />
    </linearGradient>
    <linearGradient
       inkscape:collect="always"
       xlink:href="#linearGradient5210"
       id="linearGradient3759"
       gradientUnits="userSpaceOnUse"
       x1="211.60065"
       y1="503.84937"
       x2="636.92749"
       y2="503.84937"
       gradientTransform="matrix(0.764979,0,0,0.764979,76.937618,241.91958)" />
    <linearGradient
       inkscape:collect="always"
       xlink:href="#linearGradient4321"
       id="linearGradient4201"
       x1="286.38269"
       y1="672.9209"
       x2="532.51678"
       y2="367.74933"
       gradientUnits="userSpaceOnUse"
       gradientTransform="matrix(1.1363532,0,0,1.1363532,-55.623234,-53.07409)" />
    <linearGradient
       id="linearGradient4321"
       inkscape:collect="always">
      <stop
         id="stop4323"
         offset="0"
         style="stop-color:#4e505d;stop-opacity:1;" />
      <stop
         id="stop4325"
         offset="1"
         style="stop-color:#7a8597;stop-opacity:1" />
    </linearGradient>
  </defs>
  <sodipodi:namedview
     id="base"
     pagecolor="#ffffff"
     bordercolor="#666666"
     borderopacity="1.0"
     inkscape:pageopacity="0.0"
     inkscape:pageshadow="2"
     inkscape:zoom="1"
     inkscape:cx="397.77308"
     inkscape:cy="402.1355"
     inkscape:document-units="px"
     inkscape:current-layer="layer1"
     showgrid="false"
     showguides="true"
     inkscape:guide-bbox="true"
     inkscape:window-width="1366"
     inkscape:window-height="721"
     inkscape:window-x="-4"
     inkscape:window-y="-4"
     inkscape:window-maximized="1"
     inkscape:snap-bbox="true"
     inkscape:bbox-paths="true"
     inkscape:bbox-nodes="true">
    <sodipodi:guide
       position="560,730.00002"
       orientation="0,1"
       id="guide3338" />
    <sodipodi:guide
       position="560,330.00001"
       orientation="0,1"
       id="guide3340" />
    <sodipodi:guide
       position="190,475.00001"
       orientation="1,0"
       id="guide3344" />
    <sodipodi:guide
       position="590,451.00001"
       orientation="1,0"
       id="guide3346" />
    <inkscape:grid
       type="xygrid"
       id="grid3440" />
  </sodipodi:namedview>
  <metadata
     id="metadata7">
    <rdf:RDF>
      <cc:Work
         rdf:about="">
        <dc:format>image/svg+xml</dc:format>
        <dc:type
           rdf:resource="http://purl.org/dc/dcmitype/StillImage" />
        <dc:title>text groovy</dc:title>
        <dc:date>June 2015</dc:date>
        <dc:creator>
          <cc:Agent>
            <dc:title>Franziska Sponsel, Johannes Hechler</dc:title>
          </cc:Agent>
        </dc:creator>
        <dc:rights>
          <cc:Agent>
            <dc:title>Franziska Sponsel, Johannes Hechler</dc:title>
          </cc:Agent>
        </dc:rights>
        <dc:publisher>
          <cc:Agent>
            <dc:title>RRZE</dc:title>
          </cc:Agent>
        </dc:publisher>
        <dc:contributor>
          <cc:Agent>
            <dc:title>Ute Weber, Hendrik Eggers</dc:title>
          </cc:Agent>
        </dc:contributor>
      </cc:Work>
    </rdf:RDF>
  </metadata>
  <g
     inkscape:label="Ebene 1"
     inkscape:groupmode="layer"
     id="layer1">
    <g
       id="g4298">
      <rect
         inkscape:export-ydpi="3.5999999"
         inkscape:export-xdpi="3.5999999"
         y="322.36221"
         x="189.95992"
         height="400"
         width="400"
         id="rect3336"
         style="fill:none;fill-rule:evenodd;stroke:none;stroke-width:1px;stroke-linecap:butt;stroke-linejoin:miter;stroke-opacity:1" />
      <rect
         inkscape:export-ydpi="3.46731"
         inkscape:export-xdpi="3.46731"
         y="322.41422"
         x="189.99998"
         height="400"
         width="400"
         id="rect3336-0"
         style="fill:none;fill-rule:evenodd;stroke:none;stroke-width:1px;stroke-linecap:butt;stroke-linejoin:miter;stroke-opacity:1" />
      <path
         id="path4244"
         d="M 446.35547 322.38477 L 251.21875 322.4043 C 239.82964 322.3852 234.14731 328.01561 234.19531 339.23633 C 234.16241 403.21412 234.15752 495.43174 234.16406 585.39844 L 267.57812 585.39844 C 271.01136 580.37222 274.64885 575.83106 277.97461 571.92578 C 281.82986 567.39875 287.32314 560.32286 294.22656 553.92969 C 297.67827 550.7331 301.49273 547.5892 306.64648 545.07031 C 310.5118 543.18115 315.64073 541.59506 321.28711 541.83984 C 323.16924 541.92144 325.10904 542.20699 327.07812 542.75195 C 336.56279 545.37692 345.17674 554.2505 347.70312 561.97461 C 350.22954 569.69872 349.59626 575.25016 349.63086 578.75391 C 349.64239 579.92141 349.59948 580.99753 349.53125 582.0332 C 350.17422 582.12135 350.82364 582.24248 351.47852 582.39648 L 385.3457 526.80469 A 18.0018 18.0018 0 0 1 401.41797 518.18555 A 18.0018 18.0018 0 0 1 416.23242 527.04297 L 446.76562 578.95117 C 447.64913 579.34757 448.49155 579.77348 449.29688 580.22461 C 452.63645 579.29371 455.73277 579.30858 458.43359 579.67383 C 460.19914 578.98796 462.07932 578.38713 464.22656 577.98242 C 466.20513 577.60951 468.0676 577.4283 469.82031 577.4043 C 474.52336 577.33988 478.43514 578.41838 481.71875 580.00195 C 481.75182 579.99279 481.78533 579.97767 481.81836 579.96875 C 490.31371 577.67438 493.9692 579.81888 492.33398 579.67383 A 18.0018 18.0018 0 0 1 497.64062 581 C 499.07876 580.24574 500.93736 579.49375 503.96875 578.84375 C 505.83756 578.44304 507.39252 578.23249 508.71289 578.15039 C 512.67401 577.9042 514.52992 578.8176 516.46094 579.24609 C 519.03563 579.81742 521.09766 580.50586 521.09766 580.50586 A 18.0018 18.0018 0 0 1 528.08398 584.78711 L 546.7207 584.98242 L 546.72266 422.46289 C 541.52906 422.93893 525.9312 424.28772 508.45312 424.93945 C 497.84137 425.3351 486.77802 425.48486 476.66992 424.87109 C 471.61587 424.56422 466.82556 424.09633 461.92969 423.125 C 457.03381 422.15367 455.20964 422.54716 448.20898 416.51758 C 442.01135 411.17964 440.82139 403.0979 440.48633 394.18945 C 440.15126 385.281 441.1366 376.85662 442.23828 368.23828 C 444.44164 351.00161 447.0788 332.57723 446.48047 324.15234 L 446.35547 322.38477 z M 482.01172 373.29102 C 481.95942 373.68612 481.88388 374.18754 481.83398 374.57812 C 481.34573 378.39765 480.9798 381.9557 480.74219 384.98828 C 484.71078 385.19997 489.33778 385.26396 494.30859 385.22656 C 492.26157 383.18115 490.32529 381.18387 488.24414 379.14258 C 486.00424 376.94559 484.24098 375.43606 482.01172 373.29102 z M 480.45312 392.31836 C 480.52173 394.03835 481.06402 393.77205 480.45312 392.31836 z M 234.16992 627.75781 C 234.17344 653.69437 234.17155 682.19073 234.17773 705.30469 C 234.14743 716.64659 239.86331 722.40092 251.15625 722.32422 L 267.22852 722.32812 A 18.0018 18.0018 0 0 1 269.60156 708.90234 L 284.22852 685.81836 C 281.69955 684.42797 279.08969 682.15222 276.90234 678.33789 C 275.47536 675.84946 268.44982 669.85467 261.34375 655.52148 C 259.15063 651.09788 258.9979 644.20836 260.75391 639.86914 C 260.81101 639.72803 260.88701 639.67753 260.94531 639.54102 C 260.91019 639.48628 260.87299 639.44768 260.83789 639.39258 C 260.06622 638.17954 259.37481 636.88125 258.75781 635.52344 L 234.16992 627.75781 z M 546.7207 636.32422 L 545.23828 636.84375 C 545.90817 639.96613 546.45122 643.31555 546.7207 646.88672 L 546.7207 636.32422 z M 546.7207 656.26367 C 546.65617 657.11566 546.58442 657.97263 546.48047 658.8457 C 545.21412 669.48209 541.13376 679.7489 533.90039 688.375 C 530.61693 692.29065 526.86089 695.46588 522.79883 697.98828 L 528.18555 706.93359 A 18.0018 18.0018 0 0 1 529.65625 722.39062 C 540.99841 722.28633 546.64621 716.60634 546.7207 705.1875 L 546.7207 656.26367 z M 450.28711 660.69531 C 447.74071 661.91588 444.9318 662.89341 441.80859 663.5332 C 441.54577 663.58704 441.2886 663.62159 441.02734 663.66992 L 455.80273 669.25977 C 455.82415 669.23636 455.81907 669.24173 455.8418 669.2168 L 451.78711 662.48242 C 451.25573 661.89995 450.76621 661.29961 450.28711 660.69531 z M 398.5918 692.26367 L 323.65039 722.3418 L 478.18945 722.38086 L 398.5918 692.26367 z "
         style="fill:url(#linearGradient4201);fill-opacity:1;fill-rule:evenodd;stroke:none;stroke-width:1px;stroke-linecap:butt;stroke-linejoin:miter;stroke-opacity:1" />
      <path
         style="fill:#99b000;fill-opacity:1;fill-rule:evenodd;stroke:none;stroke-width:1px;stroke-linecap:butt;stroke-linejoin:miter;stroke-opacity:1"
         d="m 461.41652,322.38255 c 4.54635,-1.18483 85.25811,76.62516 85.25811,84.98046 0,0 -75.44211,7.35253 -86.90512,-1.29887 -11.46301,-8.65141 3.62243,-55.86651 1.64701,-83.68159 z"
         id="path4288"
         inkscape:connector-curvature="0"
         sodipodi:nodetypes="cczc"
         inkscape:export-xdpi="3.46731"
         inkscape:export-ydpi="3.46731" />
      <path
         id="rect4232"
         d="M 271.76953 467.80078 C 266.73368 467.80078 262.67969 471.85477 262.67969 476.89062 C 262.67969 481.92649 266.73368 485.98047 271.76953 485.98047 L 489.92969 485.98047 C 494.96555 485.98047 499.01953 481.92649 499.01953 476.89062 C 499.01953 471.85476 494.96555 467.80078 489.92969 467.80078 L 271.76953 467.80078 z M 271.76953 522.3418 C 266.73368 522.3418 262.67969 526.39578 262.67969 531.43164 C 262.67969 536.46749 266.73368 540.52148 271.76953 540.52148 L 282.2168 540.52148 C 286.18258 536.86634 291.55693 532.41022 298.74219 528.89844 C 304.68028 525.99622 312.58744 523.44649 322.06641 523.85742 C 325.22932 523.99455 328.53881 524.4799 331.87891 525.4043 C 342.05763 528.22135 350.09507 533.37923 355.99805 540.38281 L 366.98828 522.3418 L 271.76953 522.3418 z M 400.71484 536.17188 L 398.06445 540.52148 L 399.0293 540.52148 C 400.37552 540.52148 401.64752 540.22582 402.79492 539.70508 L 400.7168 536.17188 L 400.71484 536.17188 z M 297.34375 576.88086 C 295.37444 579.19367 293.47472 581.48559 291.67773 583.5957 C 288.73531 587.05086 285.63818 590.9392 282.78906 595.06055 L 337.13281 595.06055 A 18.0018 18.0018 0 0 1 331.57031 580.84961 C 331.61731 580.13609 331.63686 579.54894 331.63086 578.93164 C 331.62267 578.10194 331.63621 577.54082 331.64258 576.88086 L 297.34375 576.88086 z M 375.91406 576.88086 L 366.84961 591.76172 A 18.0018 18.0018 0 0 1 364.25 595.06055 L 438.77148 595.06055 A 18.0018 18.0018 0 0 1 431.25 588.07812 L 424.66406 576.88086 L 375.91406 576.88086 z "
         style="color:#000000;clip-rule:nonzero;display:inline;overflow:visible;visibility:visible;opacity:1;isolation:auto;mix-blend-mode:normal;color-interpolation:sRGB;color-interpolation-filters:linearRGB;solid-color:#000000;solid-opacity:1;fill:#ffffff;fill-opacity:1;fill-rule:evenodd;stroke:none;stroke-width:50;stroke-linecap:butt;stroke-linejoin:miter;stroke-miterlimit:4;stroke-dasharray:none;stroke-dashoffset:0;stroke-opacity:1;color-rendering:auto;image-rendering:auto;shape-rendering:auto;text-rendering:auto;enable-background:accumulate" />
      <rect
         y="322.36221"
         x="190"
         height="400"
         width="400"
         id="rect4160"
         style="opacity:1;fill:none;fill-opacity:1;stroke:none;stroke-width:23;stroke-linecap:butt;stroke-linejoin:round;stroke-miterlimit:4;stroke-dasharray:none;stroke-opacity:1" />
      <path
         inkscape:connector-curvature="0"
         id="path3023"
         d="m 284.80615,718.53772 49.45572,-78.0473 -117.45732,-37.09178 142.95791,0 40.95552,-67.22885 38.63727,65.68336 146.82164,1.54549 -116.68457,40.95552 43.27375,71.86532 -114.36633,-43.27374 z"
         style="fill:#3465a4;stroke:#252525;stroke-width:7.64978981;stroke-linecap:butt;stroke-linejoin:round;stroke-miterlimit:4;stroke-dasharray:none;stroke-opacity:1" />
      <path
         style="opacity:0.6896552;fill:url(#linearGradient3759);fill-opacity:1;stroke:#729fcf;stroke-width:4.64948273;stroke-linecap:butt;stroke-linejoin:miter;stroke-miterlimit:4;stroke-dasharray:none;stroke-opacity:1"
         d="m 300.17647,706.52648 42.94114,-67.76649 -101.98521,-32.20586 124.12674,0 35.56063,-58.3731 33.54776,57.0312 127.48151,1.3419 -101.31426,35.56064 37.57351,62.39884 -99.30139,-37.5735 z"
         id="path3828"
         inkscape:connector-curvature="0" />
      <path
         sodipodi:nodetypes="csccccsscccscssscc"
         inkscape:connector-curvature="0"
         id="path3814"
         d="m 338.12559,606.876 c 0,0 4.62586,-8.12139 9.27295,-6.95471 3.1847,0.79953 6.56834,7.34108 6.56834,7.34108 0.0795,-7.18196 3.97174,-6.73867 6.9547,-8.11382 2.93774,0.20215 5.03714,2.91933 6.95471,6.18195 l 6.18196,-6.9547 c 0,0 4.09562,2.00224 3.09099,10.04569 -0.64425,5.15803 -2.53719,7.52346 -6.95471,11.59118 -3.51261,3.23445 -9.89738,5.31158 -13.52305,1.15912 l 4.2501,8.88657 9.27295,-5.02285 c 0,0 3.80155,-0.22271 4.2501,1.93187 1.70185,8.17462 2.12213,18.59032 0.77274,22.79599 -9.43028,5.63207 -11.79994,4.93763 -17.0004,3.86372 -4.37108,-0.90263 -7.04394,-7.72431 -9.27295,-11.59117 -3.48096,-6.03875 -1.42318,-16.9999 -5.79558,-23.95511 -0.97421,-1.54969 -4.25011,-3.47736 -4.25011,-3.47736 z"
         style="fill:#eeeeec;stroke:#252525;stroke-width:7.64978981;stroke-linecap:butt;stroke-linejoin:round;stroke-miterlimit:4;stroke-dasharray:none;stroke-opacity:1" />
      <path
         sodipodi:nodetypes="csssssscssssscssssc"
         inkscape:connector-curvature="0"
         id="path3025"
         d="m 331.01993,593.43129 c 0,0 7.76842,18.02055 9.76915,26.20038 2.00074,8.17984 5.32271,20.54675 2.25195,25.74773 -4.3119,7.30313 -7.41222,11.1173 -12.78248,13.9416 -9.05735,4.76341 -35.55304,13.87783 -37.74137,10.06177 -3.76251,-6.5612 -9.30753,-10.28229 -15.04578,-21.85654 -2.38944,-4.81959 31.99438,-9.7647 39.68931,-16.4587 7.69495,-6.69401 9.03524,-14.81946 9.03524,-14.81946 4.67983,10.17482 -32.74895,30.67891 -41.62118,22.53554 -7.55095,-6.93064 -11.42245,-10.2904 -11.47468,-20.76371 -0.0523,-10.47331 10.1822,-24.5652 18.57806,-34.42406 8.39587,-9.85885 20.81655,-26.20322 30.59916,-23.49578 9.78262,2.70743 9.27736,10.93349 9.35532,18.83185 0.078,7.89836 -10.28811,28.905 -10.28811,28.905 0,0 -6.4407,14.88749 -19.49947,16.71249 -13.20653,1.84565 -11.99311,-7.20626 -10.80706,-15.167 1.18605,-7.96075 12.17579,-24.77296 17.64527,-28.13226 5.46949,-3.35929 5.80972,-9.8671 9.51536,-5.88933 3.70565,3.97776 -9.4879,30.29045 -9.4879,30.29045"
         style="fill:#eeeeec;stroke:#252525;stroke-width:7.64978981;stroke-linecap:round;stroke-linejoin:round;stroke-miterlimit:4;stroke-dasharray:none;stroke-opacity:1" />
      <path
         sodipodi:nodetypes="sssssssss"
         inkscape:connector-curvature="0"
         id="path3816"
         d="m 390.28591,597.98943 c 3.39228,-1.84955 8.22919,-2.48259 11.97756,-1.5455 4.24815,1.06204 6.84836,3.30833 9.27294,6.95471 3.07962,4.63151 4.85507,10.67004 4.63648,16.22766 -0.26712,6.79144 -0.6478,12.65629 -4.63648,18.15951 -4.19257,5.78454 -10.64675,10.93517 -17.77315,10.43207 -6.98958,-0.49344 -12.36213,-2.42335 -15.06853,-8.88657 -3.01806,-7.20752 -1.98483,-18.18946 0.77274,-25.5006 2.43323,-6.45121 4.76491,-12.54076 10.81844,-15.84128 z"
         style="fill:#eeeeec;stroke:#252525;stroke-width:7.64978981;stroke-linecap:butt;stroke-linejoin:miter;stroke-miterlimit:4;stroke-dasharray:none;stroke-opacity:1" />
      <path
         sodipodi:nodetypes="sssssssssss"
         inkscape:connector-curvature="0"
         id="path3818"
         d="m 416.17289,606.48962 c 1.24153,-3.23537 4.11279,-5.74438 6.9547,-7.72745 3.41266,-2.38132 7.45648,-5.10671 11.59119,-4.63647 5.60865,0.63785 10.34094,5.28556 13.90941,9.65932 3.72036,4.55991 6.51745,10.35886 6.95472,16.22765 0.41547,5.57621 -1.10916,11.60152 -4.2501,16.22765 -3.05307,4.49671 -7.81203,8.56855 -13.13667,9.65932 -6.09028,1.24762 -13.0014,-0.77998 -18.15953,-4.2501 -3.14283,-2.11434 -5.82654,-5.55844 -6.56834,-9.27294 -0.80155,-4.01379 2.25105,-7.90973 2.70462,-11.97756 0.51378,-4.60792 -1.66109,-9.58071 0,-13.90942 z"
         style="fill:#eeeeec;stroke:#252525;stroke-width:7.64978981;stroke-linecap:butt;stroke-linejoin:miter;stroke-miterlimit:4;stroke-dasharray:none;stroke-opacity:1" />
      <path
         sodipodi:nodetypes="csssc"
         inkscape:connector-curvature="0"
         id="path3820"
         d="m 390.67229,619.23993 c 0,0 2.51234,5.06706 5.79559,5.02284 3.18842,-0.0429 7.15722,-2.13073 8.5002,-5.02284 0.97786,-2.10585 1.25822,-4.80281 0.38637,-6.95471 -0.8556,-2.11181 -5.02285,-4.63647 -5.02285,-4.63647"
         style="fill:none;stroke:#252525;stroke-width:7.64978981;stroke-linecap:round;stroke-linejoin:round;stroke-miterlimit:4;stroke-dasharray:none;stroke-opacity:1" />
      <path
         sodipodi:nodetypes="csssc"
         inkscape:connector-curvature="0"
         id="path3822"
         d="m 426.60494,613.44433 c 0,0 2.24208,5.53007 4.63648,6.95471 2.44503,1.45477 6.01473,2.15728 8.5002,0.77274 2.01267,-1.12117 3.37674,-3.89587 3.09098,-6.18196 -0.46436,-3.71489 -7.34108,-8.5002 -7.34108,-8.5002"
         style="fill:none;stroke:#252525;stroke-width:7.64978981;stroke-linecap:round;stroke-linejoin:round;stroke-miterlimit:4;stroke-dasharray:none;stroke-opacity:1" />
      <path
         sodipodi:nodetypes="ccccccscssssscscsscssc"
         inkscape:connector-curvature="0"
         id="path3826"
         d="m 483.01537,602.23952 c 1.85156,-6.61526 4.89496,-4.88772 7.72746,-4.63647 4.61247,2.87837 7.83508,10.03686 10.43205,17.38677 l 4.25011,14.68217 c 3.47136,-0.26957 3.48334,-2.43507 3.86373,-8.88658 l -6.95471,-20.86413 c 0,0 3.31335,-3.02795 5.40921,-3.47735 2.54676,-0.54608 7.72746,1.15912 7.72746,1.15912 0,0 5.69394,17.374 7.72746,26.27334 2.47147,10.81595 6.72087,21.82478 5.40921,32.84169 -0.8597,7.22085 -3.82775,14.5193 -8.50019,20.09138 -3.6496,4.35229 -8.87015,7.59241 -14.2958,9.27295 -9.72206,3.0113 -20.74586,3.59858 -30.52344,0.77275 -2.67663,-0.77358 -6.95472,-4.63648 -6.95472,-4.63648 0,0 5.02434,-5.26943 6.56834,-8.5002 2.39762,-5.01695 3.86373,-16.22765 3.86373,-16.22765 0,0 8.14243,5.04526 12.7503,5.79558 6.13461,0.99893 13.26778,1.35035 18.54589,-1.93186 3.48954,-2.16998 6.56834,-10.43206 6.56834,-10.43206 0,0 -5.38424,12.26827 -11.97755,11.20481 -5.2563,-0.84781 -7.95778,-7.57278 -10.43207,-12.36393 -1.892,-3.66362 -3.09099,-11.97755 -3.09099,-11.97755"
         style="fill:#eeeeec;stroke:#252525;stroke-width:7.64978981;stroke-linecap:round;stroke-linejoin:round;stroke-miterlimit:4;stroke-dasharray:none;stroke-opacity:1" />
      <path
         sodipodi:nodetypes="ccsssssssssscc"
         inkscape:connector-curvature="0"
         id="path3824"
         d="m 474.90154,608.80786 0.77275,4.63647 c 0,0 4.11255,7.21389 0.77274,9.65933 -2.9336,2.148 -4.1002,1.89712 -6.56833,-0.77275 -4.42343,-4.785 -10.68428,-12.95695 -9.27295,-19.31864 0.73006,-3.29077 3.64225,-6.71676 6.95471,-7.34108 4.75579,-0.89634 9.67413,2.80088 13.13668,6.18196 4.94509,4.82876 7.63697,11.83066 9.27294,18.54589 2.13414,8.76008 2.30482,16.01716 -1.15912,24.34149 -1.9946,4.79328 -4.56729,10.19224 -9.65932,11.2048 -4.48027,0.89092 -10.25708,-1.82909 -13.52304,-5.02284 -4.99366,-4.88324 -5.09655,-10.38642 -7.34109,-17.0004 -3.42326,-10.0873 -8.11382,-30.90982 -8.11382,-30.90982 1.50004,-5.89024 4.56689,-6.29671 8.11382,-5.02285"
         style="fill:#eeeeec;stroke:#252525;stroke-width:7.64978981;stroke-linecap:round;stroke-linejoin:round;stroke-miterlimit:4;stroke-dasharray:none;stroke-opacity:1" />
    </g>
  </g>
</svg>
