<?xml version="1.0" encoding="UTF-8" standalone="no"?>
<!-- Created with Inkscape (http://www.inkscape.org/) -->

<svg
   xmlns:dc="http://purl.org/dc/elements/1.1/"
   xmlns:cc="http://creativecommons.org/ns#"
   xmlns:rdf="http://www.w3.org/1999/02/22-rdf-syntax-ns#"
   xmlns:svg="http://www.w3.org/2000/svg"
   xmlns="http://www.w3.org/2000/svg"
   xmlns:xlink="http://www.w3.org/1999/xlink"
   xmlns:sodipodi="http://sodipodi.sourceforge.net/DTD/sodipodi-0.dtd"
   xmlns:inkscape="http://www.inkscape.org/namespaces/inkscape"
   width="210mm"
   height="297mm"
   viewBox="0 0 744.09448819 1052.3622047"
   id="svg2"
   version="1.1"
   inkscape:version="0.91 r13725"
   sodipodi:docname="text-groovy.svg"
   inkscape:export-filename="C:\Users\johannes\Documents\Arbeit\RRZE\bi-con\bi-con\scalable\documents\document.png"
   inkscape:export-xdpi="4"
   inkscape:export-ydpi="4">
  <defs
     id="defs4">
    <linearGradient
       id="linearGradient2224">
      <stop
         id="stop2226"
         offset="0"
         style="stop-color:#7c7c7c;stop-opacity:1;" />
      <stop
         id="stop2228"
         offset="1"
         style="stop-color:#b8b8b8;stop-opacity:1;" />
    </linearGradient>
    <linearGradient
       id="linearGradient15218">
      <stop
         id="stop15220"
         offset="0"
         style="stop-color:#eeeeef;stop-opacity:1;" />
      <stop
         id="stop2736"
         offset="0.59928656"
         style="stop-color:#d3d7cf;stop-opacity:1;" />
      <stop
         id="stop2738"
         offset="0.82758623"
         style="stop-color:#ffffff;stop-opacity:1;" />
      <stop
         id="stop15222"
         offset="1"
         style="stop-color:#d3d7cf;stop-opacity:1;" />
    </linearGradient>
    <pattern
       y="0"
       x="0"
       height="6"
       width="6"
       patternUnits="userSpaceOnUse"
       id="EMFhbasepattern" />
    <pattern
       y="0"
       x="0"
       height="6"
       width="6"
       patternUnits="userSpaceOnUse"
       id="EMFhbasepattern-5" />
    <linearGradient
       inkscape:collect="always"
       xlink:href="#linearGradient4195"
       id="linearGradient4201"
       x1="286.38269"
       y1="672.9209"
       x2="532.51678"
       y2="367.74933"
       gradientUnits="userSpaceOnUse"
       gradientTransform="matrix(1.1363532,0,0,1.1363532,-57.062627,-53.094451)" />
    <linearGradient
       inkscape:collect="always"
       id="linearGradient4195">
      <stop
         style="stop-color:#5a6578;stop-opacity:1"
         offset="0"
         id="stop4197" />
      <stop
         style="stop-color:#9397a2;stop-opacity:1"
         offset="1"
         id="stop4199" />
    </linearGradient>
    <linearGradient
       inkscape:collect="always"
       xlink:href="#linearGradient4203"
       id="linearGradient4209"
       x1="463.0658"
       y1="396.17969"
       x2="494.89703"
       y2="375.89542"
       gradientUnits="userSpaceOnUse"
       gradientTransform="matrix(1.1363532,0,0,1.1363532,-57.062627,-53.094451)" />
    <linearGradient
       inkscape:collect="always"
       id="linearGradient4203">
      <stop
         style="stop-color:#abbe24;stop-opacity:1"
         offset="0"
         id="stop4205" />
      <stop
         style="stop-color:#c1d53a;stop-opacity:1"
         offset="1"
         id="stop4207" />
    </linearGradient>
    <linearGradient
       id="linearGradient5280">
      <stop
         id="stop5282"
         offset="0"
         style="stop-color:#555753;stop-opacity:0.01129944;" />
      <stop
         style="stop-color:#555753;stop-opacity:0.22598869;"
         offset="0.00195313"
         id="stop5310" />
      <stop
         style="stop-color:#555753;stop-opacity:0.01176471;"
         offset="0.00390625"
         id="stop5306" />
      <stop
         style="stop-color:#555753;stop-opacity:0.01176471;"
         offset="0.0078125"
         id="stop5304" />
      <stop
         style="stop-color:#555753;stop-opacity:0.07344633;"
         offset="0.015625"
         id="stop5302" />
      <stop
         style="stop-color:#555753;stop-opacity:0.01568627;"
         offset="0.03125"
         id="stop5298" />
      <stop
         style="stop-color:#555753;stop-opacity:0.01129944;"
         offset="0.0625"
         id="stop5296" />
      <stop
         style="stop-color:#555753;stop-opacity:0.36723164;"
         offset="0.125"
         id="stop5294" />
      <stop
         style="stop-color:#555753;stop-opacity:0.00564972;"
         offset="0.25"
         id="stop5290" />
      <stop
         style="stop-color:#555753;stop-opacity:0.02259887;"
         offset="0.5"
         id="stop5288" />
      <stop
         id="stop5292"
         offset="0.75"
         style="stop-color:#555753;stop-opacity:0.19774012;" />
      <stop
         style="stop-color:#555753;stop-opacity:0.18079096;"
         offset="0.875"
         id="stop5300" />
      <stop
         id="stop5308"
         offset="0.9375"
         style="stop-color:#555753;stop-opacity:0.28813559;" />
      <stop
         id="stop5284"
         offset="1"
         style="stop-color:#555753;stop-opacity:0.07344633;" />
    </linearGradient>
    <linearGradient
       id="linearGradient5348">
      <stop
         id="stop5350"
         offset="0"
         style="stop-color:#729fcf;stop-opacity:0;" />
      <stop
         style="stop-color:#729fcf;stop-opacity:0.17514125;"
         offset="0.14182246"
         id="stop5368" />
      <stop
         style="stop-color:#729fcf;stop-opacity:0.42937854;"
         offset="0.24686332"
         id="stop5366" />
      <stop
         id="stop5394"
         offset="0.27796116"
         style="stop-color:#729fcf;stop-opacity:0.39215686;" />
      <stop
         style="stop-color:#729fcf;stop-opacity:0.39215687;"
         offset="0.38030669"
         id="stop5364" />
      <stop
         style="stop-color:#ffffff;stop-opacity:1;"
         offset="0.46561956"
         id="stop5362" />
      <stop
         id="stop3727"
         offset="0.54757094"
         style="stop-color:#b8cfe7;stop-opacity:0.62352941;" />
      <stop
         style="stop-color:#729fcf;stop-opacity:0.24858756;"
         offset="0.62952232"
         id="stop5360" />
      <stop
         style="stop-color:#729fcf;stop-opacity:0.27683616;"
         offset="0.69749689"
         id="stop5358" />
      <stop
         style="stop-color:#729fcf;stop-opacity:0.16384181;"
         offset="0.84827983"
         id="stop5356" />
      <stop
         id="stop5352"
         offset="1"
         style="stop-color:#729fcf;stop-opacity:0;" />
    </linearGradient>
    <linearGradient
       id="linearGradient5170">
      <stop
         id="stop5172"
         offset="0"
         style="stop-color:#ffffff;stop-opacity:0.18039216;" />
      <stop
         style="stop-color:#ffffff;stop-opacity:1;"
         offset="0.51451057"
         id="stop5178" />
      <stop
         id="stop5174"
         offset="1"
         style="stop-color:#ffffff;stop-opacity:0;" />
    </linearGradient>
    <linearGradient
       id="linearGradient5210">
      <stop
         id="stop5212"
         offset="0"
         style="stop-color:#ffffff;stop-opacity:0.63973064" />
      <stop
         id="stop5214"
         offset="1"
         style="stop-color:#ffffff;stop-opacity:0;" />
    </linearGradient>
    <linearGradient
       inkscape:collect="always"
       xlink:href="#linearGradient5210"
       id="linearGradient3759"
       gradientUnits="userSpaceOnUse"
       x1="211.60065"
       y1="503.84937"
       x2="636.92749"
       y2="503.84937" />
    <linearGradient
       inkscape:collect="always"
       xlink:href="#linearGradient5210"
       id="linearGradient4265"
       gradientUnits="userSpaceOnUse"
       x1="211.60065"
       y1="503.84937"
       x2="636.92749"
       y2="503.84937" />
  </defs>
  <sodipodi:namedview
     id="base"
     pagecolor="#ffffff"
     bordercolor="#666666"
     borderopacity="1.0"
     inkscape:pageopacity="0.0"
     inkscape:pageshadow="2"
     inkscape:zoom="0.70710678"
     inkscape:cx="388.98642"
     inkscape:cy="496.89071"
     inkscape:document-units="px"
     inkscape:current-layer="layer1"
     showgrid="false"
     showguides="true"
     inkscape:guide-bbox="true"
     inkscape:window-width="1366"
     inkscape:window-height="721"
     inkscape:window-x="-4"
     inkscape:window-y="-4"
     inkscape:window-maximized="1">
    <sodipodi:guide
       position="560,730.00002"
       orientation="0,1"
       id="guide3338" />
    <sodipodi:guide
       position="560,330.00001"
       orientation="0,1"
       id="guide3340" />
    <sodipodi:guide
       position="190,475.00001"
       orientation="1,0"
       id="guide3344" />
    <sodipodi:guide
       position="590,451.00001"
       orientation="1,0"
       id="guide3346" />
    <inkscape:grid
       type="xygrid"
       id="grid3440" />
  </sodipodi:namedview>
  <metadata
     id="metadata7">
    <rdf:RDF>
      <cc:Work
         rdf:about="">
        <dc:format>image/svg+xml</dc:format>
        <dc:type
           rdf:resource="http://purl.org/dc/dcmitype/StillImage" />
        <dc:title />
      </cc:Work>
    </rdf:RDF>
  </metadata>
  <g
     inkscape:label="Ebene 1"
     inkscape:groupmode="layer"
     id="layer1">
    <rect
       style="opacity:1;fill:none;fill-opacity:1;stroke:none;stroke-width:23;stroke-linecap:butt;stroke-linejoin:round;stroke-miterlimit:4;stroke-dasharray:none;stroke-opacity:1"
       id="rect4160"
       width="400"
       height="400"
       x="190"
       y="322.36221" />
    <g
       id="g4231">
      <path
         id="path4244"
         d="m 451.44211,322.36375 -201.66274,0.02 c -11.38911,-0.0191 -17.0711,5.6115 -17.0231,16.83223 -0.048,93.32377 -0.0481,252.41297 -0.0177,366.06997 -0.0303,11.34185 5.68578,17.09539 16.97872,17.01866 l 278.38213,0.071 c 11.42287,-0.0653 17.10592,-5.74803 17.18068,-17.20732 l 0.002,-287.41495 c -3.36254,0.31629 -19.83225,1.81585 -38.33417,2.50575 -10.3158,0.38469 -21.02427,0.50769 -30.22654,-0.051 -4.60116,-0.27936 -8.81748,-0.71711 -12.60865,-1.46927 -3.79117,-0.75217 -9.13747,-1.48928 -12.73099,-4.2014 -6.80459,-5.13558 -7.64277,-14.6216 -7.91008,-21.7286 -0.26731,-7.10702 0.56738,-14.99514 1.63351,-23.3352 2.12529,-16.62602 7.15507,-35.19123 6.33678,-47.10983 z m 17.68228,17.14517 c -0.9236,10.92454 -2.6893,22.14319 -3.98389,32.27066 -1.02546,8.02203 -1.69021,15.29734 -1.50034,20.34561 0.13767,3.66032 0.98643,5.50079 1.04313,5.94809 0.10943,-0.005 1.05874,0.45096 2.96962,0.83007 2.52865,0.50168 6.08593,0.90839 10.16946,1.15633 8.16708,0.49583 18.46897,0.40312 28.44657,0.031 8.44251,-0.31481 16.00415,-0.83888 22.66713,-1.31836 -0.97976,-1.1228 -1.49034,-1.83812 -2.60118,-3.06725 -7.43492,-8.2267 -17.58274,-18.61863 -27.86285,-28.70181 -10.28011,-10.08318 -20.72306,-19.88987 -28.75062,-26.9906 -0.24512,-0.21682 -0.35635,-0.29203 -0.59703,-0.50381 z m -4.4411,58.56436 c -0.0195,9e-4 -0.0209,0.0127 0.0133,0.0466 -4.6e-4,-0.008 -0.0122,-0.0374 -0.0133,-0.0466 z m 72.20282,10.56676 c 0.13682,0.43409 0.25326,0.41274 0.091,0.13094 -0.0131,-0.0227 -0.0761,-0.1058 -0.091,-0.13094 z"
         style="fill:url(#linearGradient4201);fill-opacity:1;fill-rule:evenodd;stroke:none;stroke-width:1px;stroke-linecap:butt;stroke-linejoin:miter;stroke-opacity:1"
         inkscape:connector-curvature="0"
         sodipodi:nodetypes="ccccccccsssssscccsscssscssscccccccc" />
      <path
         inkscape:export-ydpi="4.9499998"
         inkscape:export-xdpi="4.9499998"
         sodipodi:nodetypes="cczc"
         inkscape:connector-curvature="0"
         id="path4225"
         d="m 459.97714,322.36217 c 4.54635,-1.18483 85.25811,76.62516 85.25811,84.98046 0,0 -75.44211,7.35253 -86.90512,-1.29888 -11.46301,-8.65141 3.62243,-55.86651 1.64701,-83.68158 z"
         style="fill:url(#linearGradient4209);fill-opacity:1;fill-rule:evenodd;stroke:#ffffff;stroke-width:30;stroke-linecap:butt;stroke-linejoin:miter;stroke-opacity:1;stroke-miterlimit:4;stroke-dasharray:none" />
      <path
         style="fill:url(#linearGradient4209);fill-opacity:1;fill-rule:evenodd;stroke:none;stroke-width:1px;stroke-linecap:butt;stroke-linejoin:miter;stroke-opacity:1"
         d="m 459.97714,322.36217 c 4.54635,-1.18483 85.25811,76.62516 85.25811,84.98046 0,0 -75.44211,7.35253 -86.90512,-1.29888 -11.46301,-8.65141 3.62243,-55.86651 1.64701,-83.68158 z"
         id="path4288"
         inkscape:connector-curvature="0"
         sodipodi:nodetypes="cczc"
         inkscape:export-xdpi="4.9499998"
         inkscape:export-ydpi="4.9499998" />
      <path
         inkscape:export-ydpi="4.9499998"
         inkscape:export-xdpi="4.9499998"
         sodipodi:nodetypes="ccccc"
         inkscape:connector-curvature="0"
         id="rect4248"
         d="m 272.99493,453.78836 c 70.99868,0 141.99738,0 212.99606,0 5.36965,-1e-5 5.36965,23.87228 0,23.87229 -70.99868,0 -141.99738,0 -212.99606,0 -7.15955,-10e-6 -7.15955,-23.8723 0,-23.87229 z"
         style="fill:#ffffff;fill-opacity:1;stroke:none" />
      <path
         inkscape:export-ydpi="4.9499998"
         inkscape:export-xdpi="4.9499998"
         sodipodi:nodetypes="ccccc"
         inkscape:connector-curvature="0"
         id="rect4248-4"
         d="m 272.70721,495.74144 c 67.18764,0 134.37526,0 201.56291,0 5.0814,-1e-5 5.0814,23.87229 0,23.8723 -67.18765,0 -134.37527,0 -201.56291,0 -6.77522,-10e-6 -6.77522,-23.87231 0,-23.8723 z"
         style="fill:#ffffff;fill-opacity:1;stroke:none" />
      <path
         inkscape:export-ydpi="4.9499998"
         inkscape:export-xdpi="4.9499998"
         sodipodi:nodetypes="ccccc"
         inkscape:connector-curvature="0"
         id="rect4248-1"
         d="m 273.1745,537.12198 c 67.72271,0 135.4454,0 203.16811,0 5.12189,-2e-5 5.12189,23.87227 0,23.87228 -67.72271,0 -135.4454,0 -203.16811,0 -6.82919,-1e-5 -6.82919,-23.8723 0,-23.87228 z"
         style="fill:#ffffff;fill-opacity:1;stroke:none" />
      <path
         inkscape:export-ydpi="4.9499998"
         inkscape:export-xdpi="4.9499998"
         inkscape:transform-center-y="-32.829958"
         inkscape:transform-center-x="11.294007"
         sodipodi:nodetypes="ccccc"
         inkscape:connector-curvature="0"
         id="rect4248-1-5"
         d="m 272.39789,579.67056 c 63.0978,0 126.19557,0 189.29336,0 4.7721,-2e-5 4.7721,23.87229 0,23.8723 -63.09779,0 -126.19556,0 -189.29336,0 -6.3628,-10e-6 -6.3628,-23.87232 0,-23.8723 z"
         style="fill:#ffffff;fill-opacity:1;stroke:none" />
    </g>
    <g
       id="g4240"
       transform="translate(12.727922,-1.4142136)">
      <path
         inkscape:connector-curvature="0"
         id="path4979"
         d="m 377.67383,455.35156 a 11.50115,11.50115 0 0 0 -10.26758,5.50782 l -35.89844,58.92968 c -0.31354,0.0692 -0.68208,0.18309 -1.92969,0.71485 -0.89297,-0.37429 -1.7058,-0.7724 -2.86914,-1.06446 -3.13185,-0.78627 -6.042,-0.39386 -8.50781,0.38086 -10e-4,-0.003 -0.0618,-0.14885 -0.0625,-0.15039 0.8938,-3.05615 1.54202,-6.31986 1.50391,-10.17969 -0.0362,-3.66466 0.40618,-8.668 -1.60742,-14.82421 -2.01361,-6.15621 -8.35369,-12.8126 -16.17969,-14.97852 -5.91534,-1.63713 -11.58837,-0.18625 -15.8457,1.89453 -4.25733,2.08078 -7.67923,4.84565 -10.85547,7.78711 -6.35249,5.88293 -11.74363,12.76904 -15.72266,17.44141 -3.85475,4.52644 -8.11077,9.8906 -11.85547,15.75976 l -54.26172,0 a 11.50115,11.50115 0 0 0 -3.46289,22.4668 l 50.29492,15.88086 c 0.96627,2.65793 2.23503,5.11227 3.74024,7.19531 0.43876,0.6072 0.92082,1.03448 1.37109,1.58789 -0.81763,0.99468 -1.62222,2.19194 -2.22461,3.96485 -0.96558,2.84184 -0.6996,6.92947 0.64453,9.64062 6.61206,13.33675 13.10061,18.5094 15.3711,22.46875 2.33657,4.07457 5.95955,5.54003 8.19922,6.12891 1.48801,0.39124 2.66158,0.49251 3.75781,0.52539 l -19.40625,30.625 a 11.50115,11.50115 0 0 0 13.99805,16.82812 l 109.43359,-43.92383 110.17383,41.68946 a 11.50115,11.50115 0 0 0 13.92187,-16.6875 l -8.98047,-14.91406 c 5.73402,-2.463 11.04437,-6.12079 15.28321,-11.17579 6.30887,-7.52359 9.98795,-16.71833 11.10742,-26.12109 1.15114,-9.66875 -0.6775,-17.85241 -2.68164,-25.35156 l 52.63867,-18.47656 a 11.50115,11.50115 0 0 0 -3.6875,-22.35157 l -61.25,-0.64453 a 11.50115,11.50115 0 0 0 -5.98242,-4.57422 c 0,0 -1.78609,-0.59399 -4.01367,-1.08789 -2.22758,-0.4939 -4.48404,-1.51306 -9.71875,-0.39062 -4.5123,0.96753 -5.99269,2.38575 -7.41992,3.5332 -0.39277,-0.28076 -0.65805,-0.62214 -1.08204,-0.88672 a 11.50115,11.50115 0 0 0 -5.07226,-1.69922 c 0.53308,0.0473 -2.33205,-1.50207 -8.2461,0.0957 -0.8156,0.22034 -1.61499,0.74919 -2.43164,1.15625 -4.00918,-2.49663 -9.03198,-4.2767 -15.65039,-3.0293 -2.26559,0.42701 -4.12776,1.24727 -5.83007,2.20898 -2.78161,-0.7098 -6.1175,-1.16034 -10.1211,0.43164 -0.38718,0.15396 -0.68857,0.42301 -1.05469,0.60743 -1.78901,-1.28629 -3.77597,-2.43617 -6.05078,-3.31836 l -31.74414,-53.96094 a 11.50115,11.50115 0 0 0 -9.46484,-5.66016 z m -0.61914,33.87696 24.36328,41.41601 a 11.50115,11.50115 0 0 0 8.51172,5.58399 c 0.10351,0.0127 2.50551,1.18453 5.03906,4.02734 a 11.50115,11.50115 0 0 0 8.46094,3.84961 l 3.42773,0.0371 a 11.50115,11.50115 0 0 0 7.27149,-2.50196 11.50115,11.50115 0 0 0 12.38671,-2.75195 c 0.74438,0.42067 1.6289,0.86205 2.65626,1.86524 -0.16394,-0.16009 -0.0909,-0.0881 0.21289,0.22461 a 11.50115,11.50115 0 0 0 8.13085,3.48632 l 1.91016,0.0195 a 11.50115,11.50115 0 0 0 6.1836,-1.7461 11.50115,11.50115 0 0 0 6.17187,1.87695 l 7.80859,0.082 a 11.50115,11.50115 0 0 0 6.95704,-2.26954 11.50115,11.50115 0 0 0 6.92773,2.41602 l 3.68164,0.0391 -0.89063,0.3125 A 11.50115,11.50115 0 0 0 488.89648,558.75 c 1.01897,4.21372 1.93669,7.85183 2.80469,11.48242 a 11.50115,11.50115 0 0 0 -9.09375,6.74219 c 0,0 -0.31256,0.51358 -0.36133,0.61328 -0.46601,-0.91026 -0.74592,-1.35906 -1.29882,-2.42969 0.22716,0.43988 -0.76834,-2.32228 -1.22071,-4.46289 -0.45236,-2.14061 -0.70508,-3.87695 -0.70508,-3.87695 a 11.50115,11.50115 0 0 0 -0.17187,-0.92578 l -0.11133,-0.48633 a 11.50115,11.50115 0 0 0 -22.53711,0.57813 c -0.2753,1.56766 -0.73333,3.17206 -1.49805,5.00976 -0.84615,2.03344 -1.63944,3.52954 -2.14453,4.28516 a 11.50115,11.50115 0 0 0 -9.34375,17.41406 l 1.94336,3.22656 a 11.50115,11.50115 0 0 0 10.42774,5.54102 c 2.7899,1.4641 5.82683,3.07175 10.59179,3.84765 3.15038,0.51299 6.88412,0.95363 10.83985,0.8711 -1.9845,0.52447 -3.98429,1.04455 -6.05469,1.30859 a 11.50115,11.50115 0 0 0 -8.62891,16.91406 l -83.35546,-31.54101 a 11.50115,11.50115 0 0 0 -8.35352,0.084 l -80.51953,32.31836 15.48633,-24.43945 a 11.50115,11.50115 0 0 0 -13.75586,-16.92383 c -5.20909,1.95498 -11.24718,3.87259 -15.54102,4.84961 -0.43989,0.10009 -0.48201,0.0687 -0.88281,0.14648 -1.69812,-2.28506 -3.34779,-4.28991 -4.98047,-6.33007 0.30918,-0.0922 0.39327,-0.1419 0.70898,-0.23438 a 11.50115,11.50115 0 0 0 7.5293,-7.03515 11.50115,11.50115 0 0 0 10.58008,1.43945 c 1.58742,-0.58091 3.16421,-1.19599 4.73438,-1.91016 a 11.50115,11.50115 0 0 0 -1.28516,-21.42969 l -0.64649,-0.20507 a 11.50115,11.50115 0 0 0 -9.25195,1.01562 c -0.89455,0.51952 -1.80385,1.01714 -2.71484,1.48047 a 11.50115,11.50115 0 0 0 -5.53711,6.24219 11.50115,11.50115 0 0 0 -6.86524,-2.125 c -2.36654,-2.21448 -4.45252,-4.19094 -5.15429,-5.16211 -0.86187,-1.19274 -1.07634,-1.48503 -1.3125,-3.875 a 11.50115,11.50115 0 0 0 -2.53516,-6.13086 11.50115,11.50115 0 0 0 5.61133,-5.15039 c 3.0746,-5.75899 8.10524,-12.42458 12.65039,-17.76172 4.41684,-5.18648 9.43519,-11.4032 13.83789,-15.48047 2.20135,-2.03863 4.24276,-3.46757 5.32813,-3.99805 0.0802,-0.0392 0.0241,-0.0135 0.0879,-0.043 0.19149,0.80386 0.40556,3.48723 0.44531,7.51368 -0.0114,-1.15719 -1.69237,6.66541 -4.0293,12.36914 a 11.50115,11.50115 0 0 0 8.05469,15.55078 c 0.14489,0.36173 0.13146,0.30325 0.2793,0.67578 a 11.50115,11.50115 0 0 0 10.68945,7.25781 l 5.52344,0 a 11.50115,11.50115 0 0 0 5.43164,-1.36914 11.50115,11.50115 0 0 0 5.41406,1.36914 l 3.08789,0 a 11.50115,11.50115 0 0 0 8.74609,-4.05469 11.50115,11.50115 0 0 0 8.68164,-5.44921 l 28.53321,-46.83789 z m -80.88086,12.60351 c 0.002,0.006 0.004,0.0644 0.006,0.0703 -0.16441,-0.0103 -0.22169,0.0193 -0.46094,-0.0469 0.5021,0.13896 0.34082,0.006 0.45508,-0.0234 z m 152,34.88477 c -0.0209,0.0357 0.009,0.17029 -0.22266,0.34765 a 11.50115,11.50115 0 0 0 0.22266,-0.34765 z m -163.12891,26.91406 4.77344,10.96484 -4.08789,0.44922 -0.68555,-11.41406 z"
         style="color:#000000;font-style:normal;font-variant:normal;font-weight:normal;font-stretch:normal;font-size:medium;line-height:normal;font-family:sans-serif;text-indent:0;text-align:start;text-decoration:none;text-decoration-line:none;text-decoration-style:solid;text-decoration-color:#000000;letter-spacing:normal;word-spacing:normal;text-transform:none;direction:ltr;block-progression:tb;writing-mode:lr-tb;baseline-shift:baseline;text-anchor:start;white-space:normal;clip-rule:nonzero;display:inline;overflow:visible;visibility:visible;opacity:1;isolation:auto;mix-blend-mode:normal;color-interpolation:sRGB;color-interpolation-filters:linearRGB;solid-color:#000000;solid-opacity:1;fill:#ffffff;fill-opacity:1;fill-rule:nonzero;stroke:#5a6578;stroke-width:20;stroke-linecap:butt;stroke-linejoin:round;stroke-miterlimit:4;stroke-dasharray:none;stroke-dashoffset:0;stroke-opacity:1;color-rendering:auto;image-rendering:auto;shape-rendering:auto;text-rendering:auto;enable-background:accumulate" />
      <g
         style="stroke:#ffffff;stroke-width:30.066185;stroke-linejoin:round;stroke-miterlimit:4;stroke-dasharray:none"
         id="g4955"
         transform="matrix(0.764979,0,0,0.764979,53.446743,172.59195)">
        <path
           inkscape:connector-curvature="0"
           id="path4957"
           d="m 271.73103,623.04735 64.64977,-102.02541 -153.54319,-48.48732 186.87822,0 53.53809,-87.88327 50.50762,85.86297 191.92899,2.0203 -152.53304,53.53809 56.56855,93.94418 -149.50258,-56.56854 z"
           style="fill:#3465a4;stroke:#ffffff;stroke-width:30;stroke-linecap:butt;stroke-linejoin:round;stroke-miterlimit:4;stroke-dasharray:none;stroke-opacity:1" />
        <path
           style="opacity:0.6896552;fill:url(#linearGradient4265);fill-opacity:1;stroke:#ffffff;stroke-width:30;stroke-linecap:butt;stroke-linejoin:round;stroke-miterlimit:4;stroke-dasharray:none;stroke-opacity:1"
           d="m 291.8235,607.34595 56.13376,-88.58608 -133.31766,-42.10031 162.26162,0 46.48576,-76.30681 43.85449,74.55264 166.64707,1.75417 -132.44057,46.48577 49.11704,81.56935 -129.8093,-49.11703 z"
           id="path4959"
           inkscape:connector-curvature="0" />
        <path
           sodipodi:nodetypes="csccccsscccscssscc"
           inkscape:connector-curvature="0"
           id="path4961"
           d="m 341.43156,477.08031 c 0,0 6.04704,-10.61648 12.12183,-9.09137 4.16313,1.04517 8.5863,9.59644 8.5863,9.59644 0.104,-9.38844 5.19197,-8.80896 9.09137,-10.60659 3.84028,0.26426 6.58467,3.81622 9.09137,8.08121 l 8.08122,-9.09137 c 0,0 5.35389,2.61738 4.04061,13.13198 -0.84217,6.74272 -3.31668,9.83487 -9.09137,15.15229 -4.59177,4.22816 -12.9381,6.94344 -17.67767,1.51523 l 5.55584,11.61675 12.12183,-6.56599 c 0,0 4.96948,-0.29114 5.55584,2.52538 2.2247,10.68607 2.7741,24.30175 1.01015,29.7995 -12.3275,7.36239 -15.42518,6.4546 -22.22336,5.05076 -5.71398,-1.17995 -9.20801,-10.09742 -12.12183,-15.15228 -4.55041,-7.894 -1.86042,-22.2227 -7.57614,-31.31473 -1.27351,-2.02579 -5.55584,-4.54569 -5.55584,-4.54569 z"
           style="fill:#eeeeec;stroke:#ffffff;stroke-width:30;stroke-linecap:butt;stroke-linejoin:round;stroke-miterlimit:4;stroke-dasharray:none;stroke-opacity:1" />
        <path
           sodipodi:nodetypes="csssssscssssscssssc"
           inkscape:connector-curvature="0"
           id="path4963"
           d="m 332.14286,459.50504 c 0,0 10.15507,23.55693 12.77048,34.24981 2.61542,10.69289 6.95798,26.85923 2.9438,33.65809 -5.63662,9.54683 -9.68943,14.53281 -16.70957,18.22481 -11.84001,6.22685 -46.47585,18.14145 -49.33648,13.153 -4.91846,-8.57697 -12.16704,-13.44127 -19.66823,-28.57143 -3.12354,-6.30029 41.82386,-12.76466 51.88288,-21.51523 10.05903,-8.75057 11.81109,-19.37237 11.81109,-19.37237 6.11759,13.30078 -42.81026,40.10425 -54.40826,29.45903 -9.8708,-9.05991 -14.93172,-13.45187 -15,-27.14285 -0.0683,-13.69098 13.31043,-32.11225 24.28572,-45 10.97529,-12.88775 27.21192,-34.25352 40,-30.71429 12.78808,3.53923 12.12759,14.29254 12.22951,24.61748 0.10191,10.32493 -13.44888,37.78535 -13.44888,37.78535 0,0 -8.41945,19.46131 -25.49021,21.84699 -17.26391,2.41268 -15.6777,-9.4202 -14.12726,-19.82669 1.55044,-10.40649 15.9165,-32.38384 23.06635,-36.7752 7.14985,-4.39135 7.59461,-12.89853 12.43872,-7.69869 4.84411,5.19983 -12.40283,39.59645 -12.40283,39.59645"
           style="fill:#eeeeec;stroke:#ffffff;stroke-width:30;stroke-linecap:round;stroke-linejoin:round;stroke-miterlimit:4;stroke-dasharray:none;stroke-opacity:1" />
        <path
           sodipodi:nodetypes="sssssssss"
           inkscape:connector-curvature="0"
           id="path4965"
           d="m 409.61685,465.46356 c 4.43448,-2.41778 10.75741,-3.2453 15.65737,-2.02031 5.55329,1.38832 8.95236,4.32473 12.12183,9.09137 4.02576,6.05443 6.34667,13.94814 6.06092,21.21321 -0.34918,8.87794 -0.84682,16.54462 -6.06092,23.73857 -5.48063,7.5617 -13.91771,14.29474 -23.23351,13.63707 -9.13696,-0.64504 -16.16009,-3.16787 -19.69797,-11.61675 -3.94529,-9.42186 -2.59462,-23.77772 1.01015,-33.33504 3.18077,-8.43318 6.22881,-16.3936 14.14213,-20.70812 z"
           style="fill:#eeeeec;stroke:#ffffff;stroke-width:30;stroke-linecap:butt;stroke-linejoin:round;stroke-miterlimit:4;stroke-dasharray:none;stroke-opacity:1" />
        <path
           sodipodi:nodetypes="sssssssssss"
           inkscape:connector-curvature="0"
           id="path4967"
           d="m 443.45697,476.57523 c 1.62296,-4.22936 5.37635,-7.5092 9.09137,-10.10152 4.46111,-3.11293 9.74729,-6.67562 15.15229,-6.06092 7.33177,0.83382 13.51794,6.90942 18.18274,12.62691 4.86334,5.96084 8.51977,13.54137 9.09138,21.2132 0.54311,7.28936 -1.44992,15.1658 -5.55584,21.2132 -3.99105,5.87821 -10.21208,11.20102 -17.17259,12.62691 -7.96136,1.63092 -16.99576,-1.01961 -23.73859,-5.55584 -4.10839,-2.76392 -7.61661,-7.26613 -8.5863,-12.12183 -1.04781,-5.24692 2.94263,-10.33979 3.53554,-15.65736 0.67163,-6.02359 -2.17141,-12.52415 0,-18.18275 z"
           style="fill:#eeeeec;stroke:#ffffff;stroke-width:30;stroke-linecap:butt;stroke-linejoin:round;stroke-miterlimit:4;stroke-dasharray:none;stroke-opacity:1" />
        <path
           sodipodi:nodetypes="csssc"
           inkscape:connector-curvature="0"
           id="path4969"
           d="m 410.12194,493.24275 c 0,0 3.2842,6.62379 7.57614,6.56599 4.16799,-0.0561 9.3561,-2.78535 11.11168,-6.56599 1.27829,-2.75282 1.64478,-6.27835 0.50508,-9.09137 -1.11847,-2.76061 -6.566,-6.06091 -6.566,-6.06091"
           style="fill:none;stroke:#ffffff;stroke-width:30;stroke-linecap:round;stroke-linejoin:round;stroke-miterlimit:4;stroke-dasharray:none;stroke-opacity:1" />
        <path
           sodipodi:nodetypes="csssc"
           inkscape:connector-curvature="0"
           id="path4971"
           d="m 457.09402,485.6666 c 0,0 2.9309,7.22905 6.06092,9.09137 3.19621,1.90171 7.86261,2.82006 11.11167,1.01015 2.63102,-1.46562 4.41417,-5.09278 4.04061,-8.08122 -0.60702,-4.8562 -9.59644,-11.11167 -9.59644,-11.11167"
           style="fill:none;stroke:#ffffff;stroke-width:30;stroke-linecap:round;stroke-linejoin:round;stroke-miterlimit:4;stroke-dasharray:none;stroke-opacity:1" />
        <path
           sodipodi:nodetypes="ccccccscssssscscsscssc"
           inkscape:connector-curvature="0"
           id="path4973"
           d="m 530.83516,471.01939 c 2.42041,-8.64764 6.39882,-6.38936 10.10153,-6.06091 6.02954,3.76267 10.24222,13.12044 13.63705,22.72843 l 5.55585,19.1929 c 4.53785,-0.35239 4.55351,-3.18318 5.05076,-11.61676 l -9.09137,-27.27412 c 0,0 4.33129,-3.95822 7.07106,-4.54568 3.32918,-0.71385 10.10153,1.51523 10.10153,1.51523 0,0 7.44326,22.71173 10.10153,34.34518 3.23077,14.13888 8.78569,28.5299 7.07106,42.93149 -1.12382,9.43927 -5.00374,18.98 -11.11167,26.26396 -4.77084,5.68942 -11.59528,9.92499 -18.68783,12.12183 -12.70892,3.93645 -27.11952,4.70416 -39.90102,1.01016 -3.49896,-1.01124 -9.09138,-6.06092 -9.09138,-6.06092 0,0 6.56794,-6.88833 8.5863,-11.11168 3.13423,-6.55828 5.05076,-21.2132 5.05076,-21.2132 0,0 10.64399,6.5953 16.66752,7.57614 8.01932,1.30582 17.34398,1.76521 24.24366,-2.52538 4.56161,-2.83665 8.5863,-13.63706 8.5863,-13.63706 0,0 -7.03842,16.0374 -15.65736,14.64721 -6.87116,-1.10827 -10.40261,-9.89933 -13.63706,-16.16244 -2.47328,-4.78917 -4.04062,-15.65736 -4.04062,-15.65736"
           style="fill:#eeeeec;stroke:#ffffff;stroke-width:30;stroke-linecap:round;stroke-linejoin:round;stroke-miterlimit:4;stroke-dasharray:none;stroke-opacity:1" />
        <path
           sodipodi:nodetypes="ccsssssssssscc"
           inkscape:connector-curvature="0"
           id="path4975"
           d="m 520.22856,479.60569 1.01015,6.06091 c 0,0 5.37604,9.43018 1.01015,12.62692 -3.83487,2.80792 -5.35989,2.47997 -8.58629,-1.01016 -5.78242,-6.25507 -13.96676,-16.93765 -12.12183,-25.25381 0.95435,-4.30178 4.76124,-8.78033 9.09137,-9.59645 6.21689,-1.17172 12.64627,3.66138 17.1726,8.08122 6.46435,6.31227 9.98324,15.46533 12.12183,24.24366 2.7898,11.45139 3.01292,20.93803 -1.51524,31.81981 -2.60738,6.2659 -5.97047,13.32355 -12.6269,14.6472 -5.85673,1.16463 -13.40832,-2.39103 -17.67767,-6.56599 -6.52784,-6.38349 -6.66233,-13.57739 -9.59645,-22.22335 -4.47498,-13.18637 -10.6066,-40.4061 -10.6066,-40.4061 1.9609,-7.69988 5.96996,-8.23122 10.6066,-6.566"
           style="fill:#eeeeec;stroke:#ffffff;stroke-width:30;stroke-linecap:round;stroke-linejoin:round;stroke-miterlimit:4;stroke-dasharray:none;stroke-opacity:1" />
      </g>
      <g
         transform="matrix(0.764979,0,0,0.764979,53.446743,172.59195)"
         id="g3848">
        <path
           style="fill:#3465a4;stroke:#000000;stroke-width:10;stroke-linecap:butt;stroke-linejoin:round;stroke-miterlimit:4;stroke-dasharray:none;stroke-opacity:1"
           d="m 271.73103,623.04735 64.64977,-102.02541 -153.54319,-48.48732 186.87822,0 53.53809,-87.88327 50.50762,85.86297 191.92899,2.0203 -152.53304,53.53809 56.56855,93.94418 -149.50258,-56.56854 z"
           id="path3023"
           inkscape:connector-curvature="0" />
        <path
           inkscape:connector-curvature="0"
           id="path3828"
           d="m 291.8235,607.34595 56.13376,-88.58608 -133.31766,-42.10031 162.26162,0 46.48576,-76.30681 43.85449,74.55264 166.64707,1.75417 -132.44057,46.48577 49.11704,81.56935 -129.8093,-49.11703 z"
           style="opacity:0.6896552;fill:url(#linearGradient3759);fill-opacity:1;stroke:#729fcf;stroke-width:6.07792234;stroke-linecap:butt;stroke-linejoin:miter;stroke-miterlimit:4;stroke-dasharray:none;stroke-opacity:1" />
        <path
           style="fill:#eeeeec;stroke:#000000;stroke-width:10;stroke-linecap:butt;stroke-linejoin:round;stroke-miterlimit:4;stroke-dasharray:none;stroke-opacity:1"
           d="m 341.43156,477.08031 c 0,0 6.04704,-10.61648 12.12183,-9.09137 4.16313,1.04517 8.5863,9.59644 8.5863,9.59644 0.104,-9.38844 5.19197,-8.80896 9.09137,-10.60659 3.84028,0.26426 6.58467,3.81622 9.09137,8.08121 l 8.08122,-9.09137 c 0,0 5.35389,2.61738 4.04061,13.13198 -0.84217,6.74272 -3.31668,9.83487 -9.09137,15.15229 -4.59177,4.22816 -12.9381,6.94344 -17.67767,1.51523 l 5.55584,11.61675 12.12183,-6.56599 c 0,0 4.96948,-0.29114 5.55584,2.52538 2.2247,10.68607 2.7741,24.30175 1.01015,29.7995 -12.3275,7.36239 -15.42518,6.4546 -22.22336,5.05076 -5.71398,-1.17995 -9.20801,-10.09742 -12.12183,-15.15228 -4.55041,-7.894 -1.86042,-22.2227 -7.57614,-31.31473 -1.27351,-2.02579 -5.55584,-4.54569 -5.55584,-4.54569 z"
           id="path3814"
           inkscape:connector-curvature="0"
           sodipodi:nodetypes="csccccsscccscssscc" />
        <path
           style="fill:#eeeeec;stroke:#000000;stroke-width:10;stroke-linecap:round;stroke-linejoin:round;stroke-miterlimit:4;stroke-dasharray:none;stroke-opacity:1"
           d="m 332.14286,459.50504 c 0,0 10.15507,23.55693 12.77048,34.24981 2.61542,10.69289 6.95798,26.85923 2.9438,33.65809 -5.63662,9.54683 -9.68943,14.53281 -16.70957,18.22481 -11.84001,6.22685 -46.47585,18.14145 -49.33648,13.153 -4.91846,-8.57697 -12.16704,-13.44127 -19.66823,-28.57143 -3.12354,-6.30029 41.82386,-12.76466 51.88288,-21.51523 10.05903,-8.75057 11.81109,-19.37237 11.81109,-19.37237 6.11759,13.30078 -42.81026,40.10425 -54.40826,29.45903 -9.8708,-9.05991 -14.93172,-13.45187 -15,-27.14285 -0.0683,-13.69098 13.31043,-32.11225 24.28572,-45 10.97529,-12.88775 27.21192,-34.25352 40,-30.71429 12.78808,3.53923 12.12759,14.29254 12.22951,24.61748 0.10191,10.32493 -13.44888,37.78535 -13.44888,37.78535 0,0 -8.41945,19.46131 -25.49021,21.84699 -17.26391,2.41268 -15.6777,-9.4202 -14.12726,-19.82669 1.55044,-10.40649 15.9165,-32.38384 23.06635,-36.7752 7.14985,-4.39135 7.59461,-12.89853 12.43872,-7.69869 4.84411,5.19983 -12.40283,39.59645 -12.40283,39.59645"
           id="path3025"
           inkscape:connector-curvature="0"
           sodipodi:nodetypes="csssssscssssscssssc" />
        <path
           style="fill:#eeeeec;stroke:#000000;stroke-width:10;stroke-linecap:butt;stroke-linejoin:miter;stroke-miterlimit:4;stroke-dasharray:none;stroke-opacity:1"
           d="m 409.61685,465.46356 c 4.43448,-2.41778 10.75741,-3.2453 15.65737,-2.02031 5.55329,1.38832 8.95236,4.32473 12.12183,9.09137 4.02576,6.05443 6.34667,13.94814 6.06092,21.21321 -0.34918,8.87794 -0.84682,16.54462 -6.06092,23.73857 -5.48063,7.5617 -13.91771,14.29474 -23.23351,13.63707 -9.13696,-0.64504 -16.16009,-3.16787 -19.69797,-11.61675 -3.94529,-9.42186 -2.59462,-23.77772 1.01015,-33.33504 3.18077,-8.43318 6.22881,-16.3936 14.14213,-20.70812 z"
           id="path3816"
           inkscape:connector-curvature="0"
           sodipodi:nodetypes="sssssssss" />
        <path
           style="fill:#eeeeec;stroke:#000000;stroke-width:10;stroke-linecap:butt;stroke-linejoin:miter;stroke-miterlimit:4;stroke-dasharray:none;stroke-opacity:1"
           d="m 443.45697,476.57523 c 1.62296,-4.22936 5.37635,-7.5092 9.09137,-10.10152 4.46111,-3.11293 9.74729,-6.67562 15.15229,-6.06092 7.33177,0.83382 13.51794,6.90942 18.18274,12.62691 4.86334,5.96084 8.51977,13.54137 9.09138,21.2132 0.54311,7.28936 -1.44992,15.1658 -5.55584,21.2132 -3.99105,5.87821 -10.21208,11.20102 -17.17259,12.62691 -7.96136,1.63092 -16.99576,-1.01961 -23.73859,-5.55584 -4.10839,-2.76392 -7.61661,-7.26613 -8.5863,-12.12183 -1.04781,-5.24692 2.94263,-10.33979 3.53554,-15.65736 0.67163,-6.02359 -2.17141,-12.52415 0,-18.18275 z"
           id="path3818"
           inkscape:connector-curvature="0"
           sodipodi:nodetypes="sssssssssss" />
        <path
           style="fill:none;stroke:#000000;stroke-width:10;stroke-linecap:round;stroke-linejoin:round;stroke-miterlimit:4;stroke-dasharray:none;stroke-opacity:1"
           d="m 410.12194,493.24275 c 0,0 3.2842,6.62379 7.57614,6.56599 4.16799,-0.0561 9.3561,-2.78535 11.11168,-6.56599 1.27829,-2.75282 1.64478,-6.27835 0.50508,-9.09137 -1.11847,-2.76061 -6.566,-6.06091 -6.566,-6.06091"
           id="path3820"
           inkscape:connector-curvature="0"
           sodipodi:nodetypes="csssc" />
        <path
           style="fill:none;stroke:#000000;stroke-width:10;stroke-linecap:round;stroke-linejoin:round;stroke-miterlimit:4;stroke-dasharray:none;stroke-opacity:1"
           d="m 457.09402,485.6666 c 0,0 2.9309,7.22905 6.06092,9.09137 3.19621,1.90171 7.86261,2.82006 11.11167,1.01015 2.63102,-1.46562 4.41417,-5.09278 4.04061,-8.08122 -0.60702,-4.8562 -9.59644,-11.11167 -9.59644,-11.11167"
           id="path3822"
           inkscape:connector-curvature="0"
           sodipodi:nodetypes="csssc" />
        <path
           style="fill:#eeeeec;stroke:#000000;stroke-width:10;stroke-linecap:round;stroke-linejoin:round;stroke-miterlimit:4;stroke-dasharray:none;stroke-opacity:1"
           d="m 530.83516,471.01939 c 2.42041,-8.64764 6.39882,-6.38936 10.10153,-6.06091 6.02954,3.76267 10.24222,13.12044 13.63705,22.72843 l 5.55585,19.1929 c 4.53785,-0.35239 4.55351,-3.18318 5.05076,-11.61676 l -9.09137,-27.27412 c 0,0 4.33129,-3.95822 7.07106,-4.54568 3.32918,-0.71385 10.10153,1.51523 10.10153,1.51523 0,0 7.44326,22.71173 10.10153,34.34518 3.23077,14.13888 8.78569,28.5299 7.07106,42.93149 -1.12382,9.43927 -5.00374,18.98 -11.11167,26.26396 -4.77084,5.68942 -11.59528,9.92499 -18.68783,12.12183 -12.70892,3.93645 -27.11952,4.70416 -39.90102,1.01016 -3.49896,-1.01124 -9.09138,-6.06092 -9.09138,-6.06092 0,0 6.56794,-6.88833 8.5863,-11.11168 3.13423,-6.55828 5.05076,-21.2132 5.05076,-21.2132 0,0 10.64399,6.5953 16.66752,7.57614 8.01932,1.30582 17.34398,1.76521 24.24366,-2.52538 4.56161,-2.83665 8.5863,-13.63706 8.5863,-13.63706 0,0 -7.03842,16.0374 -15.65736,14.64721 -6.87116,-1.10827 -10.40261,-9.89933 -13.63706,-16.16244 -2.47328,-4.78917 -4.04062,-15.65736 -4.04062,-15.65736"
           id="path3826"
           inkscape:connector-curvature="0"
           sodipodi:nodetypes="ccccccscssssscscsscssc" />
        <path
           style="fill:#eeeeec;stroke:#000000;stroke-width:10;stroke-linecap:round;stroke-linejoin:round;stroke-miterlimit:4;stroke-dasharray:none;stroke-opacity:1"
           d="m 520.22856,479.60569 1.01015,6.06091 c 0,0 5.37604,9.43018 1.01015,12.62692 -3.83487,2.80792 -5.35989,2.47997 -8.58629,-1.01016 -5.78242,-6.25507 -13.96676,-16.93765 -12.12183,-25.25381 0.95435,-4.30178 4.76124,-8.78033 9.09137,-9.59645 6.21689,-1.17172 12.64627,3.66138 17.1726,8.08122 6.46435,6.31227 9.98324,15.46533 12.12183,24.24366 2.7898,11.45139 3.01292,20.93803 -1.51524,31.81981 -2.60738,6.2659 -5.97047,13.32355 -12.6269,14.6472 -5.85673,1.16463 -13.40832,-2.39103 -17.67767,-6.56599 -6.52784,-6.38349 -6.66233,-13.57739 -9.59645,-22.22335 -4.47498,-13.18637 -10.6066,-40.4061 -10.6066,-40.4061 1.9609,-7.69988 5.96996,-8.23122 10.6066,-6.566"
           id="path3824"
           inkscape:connector-curvature="0"
           sodipodi:nodetypes="ccsssssssssscc" />
      </g>
    </g>
  </g>
</svg>
