<?xml version="1.0" encoding="UTF-8" standalone="no"?>
<!-- Created with Inkscape (http://www.inkscape.org/) -->

<svg
   xmlns:dc="http://purl.org/dc/elements/1.1/"
   xmlns:cc="http://creativecommons.org/ns#"
   xmlns:rdf="http://www.w3.org/1999/02/22-rdf-syntax-ns#"
   xmlns:svg="http://www.w3.org/2000/svg"
   xmlns="http://www.w3.org/2000/svg"
   xmlns:xlink="http://www.w3.org/1999/xlink"
   xmlns:sodipodi="http://sodipodi.sourceforge.net/DTD/sodipodi-0.dtd"
   xmlns:inkscape="http://www.inkscape.org/namespaces/inkscape"
   width="210mm"
   height="297mm"
   viewBox="0 0 744.09448819 1052.3622047"
   id="svg2"
   version="1.1"
   inkscape:version="0.91 r13725"
   inkscape:export-xdpi="7.1746097"
   inkscape:export-ydpi="7.1746097"
   sodipodi:docname="text-js.svg"
   inkscape:export-filename="C:\Users\johannes\Documents\Arbeit\RRZE\github3\bicons\32x32\mime-types\text-js.png">
  <defs
     id="defs4">
    <linearGradient
       id="linearGradient2224">
      <stop
         id="stop2226"
         offset="0"
         style="stop-color:#7c7c7c;stop-opacity:1;" />
      <stop
         id="stop2228"
         offset="1"
         style="stop-color:#b8b8b8;stop-opacity:1;" />
    </linearGradient>
    <linearGradient
       id="linearGradient15218">
      <stop
         id="stop15220"
         offset="0"
         style="stop-color:#eeeeef;stop-opacity:1;" />
      <stop
         id="stop2736"
         offset="0.59928656"
         style="stop-color:#d3d7cf;stop-opacity:1;" />
      <stop
         id="stop2738"
         offset="0.82758623"
         style="stop-color:#ffffff;stop-opacity:1;" />
      <stop
         id="stop15222"
         offset="1"
         style="stop-color:#d3d7cf;stop-opacity:1;" />
    </linearGradient>
    <pattern
       y="0"
       x="0"
       height="6"
       width="6"
       patternUnits="userSpaceOnUse"
       id="EMFhbasepattern" />
    <pattern
       y="0"
       x="0"
       height="6"
       width="6"
       patternUnits="userSpaceOnUse"
       id="EMFhbasepattern-5" />
    <linearGradient
       inkscape:collect="always"
       xlink:href="#linearGradient4321"
       id="linearGradient4201"
       x1="286.38269"
       y1="672.9209"
       x2="532.51678"
       y2="367.74933"
       gradientUnits="userSpaceOnUse"
       gradientTransform="matrix(1.1363532,0,0,1.1363532,-55.583168,-53.07408)" />
    <linearGradient
       id="linearGradient4321"
       inkscape:collect="always">
      <stop
         id="stop4323"
         offset="0"
         style="stop-color:#4e505d;stop-opacity:1;" />
      <stop
         id="stop4325"
         offset="1"
         style="stop-color:#7a8597;stop-opacity:1" />
    </linearGradient>
  </defs>
  <sodipodi:namedview
     id="base"
     pagecolor="#ffffff"
     bordercolor="#666666"
     borderopacity="1.0"
     inkscape:pageopacity="0.0"
     inkscape:pageshadow="2"
     inkscape:zoom="1"
     inkscape:cx="294.14013"
     inkscape:cy="444.65862"
     inkscape:document-units="px"
     inkscape:current-layer="layer1"
     showgrid="false"
     showguides="true"
     inkscape:guide-bbox="true"
     inkscape:window-width="1366"
     inkscape:window-height="721"
     inkscape:window-x="-4"
     inkscape:window-y="-4"
     inkscape:window-maximized="1"
     inkscape:snap-bbox="true"
     inkscape:bbox-paths="true"
     inkscape:bbox-nodes="true">
    <sodipodi:guide
       position="560,730.00002"
       orientation="0,1"
       id="guide3338" />
    <sodipodi:guide
       position="560,330.00001"
       orientation="0,1"
       id="guide3340" />
    <sodipodi:guide
       position="190,475.00001"
       orientation="1,0"
       id="guide3344" />
    <sodipodi:guide
       position="590,451.00001"
       orientation="1,0"
       id="guide3346" />
    <inkscape:grid
       type="xygrid"
       id="grid3440" />
  </sodipodi:namedview>
  <metadata
     id="metadata7">
    <rdf:RDF>
      <cc:Work
         rdf:about="">
        <dc:format>image/svg+xml</dc:format>
        <dc:type
           rdf:resource="http://purl.org/dc/dcmitype/StillImage" />
        <dc:title>text js</dc:title>
        <dc:date>June 2015</dc:date>
        <dc:creator>
          <cc:Agent>
            <dc:title>Johannes Hechler</dc:title>
          </cc:Agent>
        </dc:creator>
        <dc:rights>
          <cc:Agent>
            <dc:title>Johannes Hechler</dc:title>
          </cc:Agent>
        </dc:rights>
        <dc:publisher>
          <cc:Agent>
            <dc:title>RRZE</dc:title>
          </cc:Agent>
        </dc:publisher>
        <dc:contributor>
          <cc:Agent>
            <dc:title>Ute Weber, Hendrik Eggers</dc:title>
          </cc:Agent>
        </dc:contributor>
      </cc:Work>
    </rdf:RDF>
  </metadata>
  <g
     inkscape:label="Ebene 1"
     inkscape:groupmode="layer"
     id="layer1">
    <g
       id="g4193">
      <rect
         inkscape:export-ydpi="3.5999999"
         inkscape:export-xdpi="3.5999999"
         y="322.36221"
         x="190"
         height="400"
         width="400"
         id="rect3336"
         style="fill:none;fill-rule:evenodd;stroke:none;stroke-width:1px;stroke-linecap:butt;stroke-linejoin:miter;stroke-opacity:1" />
      <rect
         inkscape:export-ydpi="3.46731"
         inkscape:export-xdpi="3.46731"
         y="322.41422"
         x="190.04007"
         height="400"
         width="400"
         id="rect3336-0"
         style="fill:none;fill-rule:evenodd;stroke:none;stroke-width:1px;stroke-linecap:butt;stroke-linejoin:miter;stroke-opacity:1" />
      <path
         id="path4244"
         d="M 446.39453 322.38477 L 251.25781 322.4043 C 239.8687 322.3852 234.18637 328.01561 234.23438 339.23633 C 234.18637 432.56011 234.1864 591.64785 234.2168 705.30469 C 234.1865 716.64659 239.90237 722.40092 251.19531 722.32422 L 376.52148 722.35547 C 373.88311 717.53468 372.375 712.03887 372.375 706.24609 L 372.375 575.63672 C 372.375 557.04787 387.90139 541.52148 406.49023 541.52148 L 546.76172 541.52148 L 546.76172 422.46289 C 541.56812 422.93893 525.97027 424.28772 508.49219 424.93945 C 497.88044 425.3351 486.81708 425.48486 476.70898 424.87109 C 471.65493 424.56422 466.86462 424.09633 461.96875 423.125 C 457.07287 422.15366 455.24871 422.54717 448.24805 416.51758 C 442.05042 411.17964 440.86045 403.0979 440.52539 394.18945 C 440.19032 385.281 441.17566 376.85662 442.27734 368.23828 C 444.4807 351.00161 447.11786 332.57723 446.51953 324.15234 L 446.39453 322.38477 z M 482.05078 373.29102 C 481.99848 373.68612 481.92295 374.18754 481.87305 374.57812 C 481.3848 378.39765 481.01886 381.9557 480.78125 384.98828 C 484.74984 385.19997 489.37685 385.26396 494.34766 385.22656 C 492.30064 383.18115 490.36435 381.18387 488.2832 379.14258 C 486.0433 376.94559 484.28004 375.43606 482.05078 373.29102 z M 480.49219 392.31836 C 480.56079 394.03835 481.10309 393.77205 480.49219 392.31836 z M 408.375 577.52148 L 408.375 704.36133 L 546.75977 704.36133 L 546.75977 577.52148 L 408.375 577.52148 z "
         style="fill:url(#linearGradient4201);fill-opacity:1;fill-rule:evenodd;stroke:none;stroke-width:1px;stroke-linecap:butt;stroke-linejoin:miter;stroke-opacity:1" />
      <path
         style="fill:#99b000;fill-opacity:1;fill-rule:evenodd;stroke:none;stroke-width:1px;stroke-linecap:butt;stroke-linejoin:miter;stroke-opacity:1"
         d="m 461.45658,322.38255 c 4.54635,-1.18483 85.25811,76.62516 85.25811,84.98046 0,0 -75.44211,7.35253 -86.90512,-1.29887 -11.46301,-8.65141 3.62243,-55.86651 1.64701,-83.68159 z"
         id="path4288"
         inkscape:connector-curvature="0"
         sodipodi:nodetypes="cczc"
         inkscape:export-xdpi="3.46731"
         inkscape:export-ydpi="3.46731" />
      <path
         id="rect4232"
         d="M 271.80859 467.80078 C 266.77274 467.80078 262.71875 471.85476 262.71875 476.89062 C 262.71875 481.92649 266.77274 485.98047 271.80859 485.98047 L 489.96875 485.98047 C 495.00461 485.98047 499.05859 481.92649 499.05859 476.89062 C 499.05859 471.85476 495.00461 467.80078 489.96875 467.80078 L 271.80859 467.80078 z M 271.80859 522.3418 C 266.77274 522.3418 262.71875 526.39578 262.71875 531.43164 C 262.71875 536.46749 266.77274 540.52148 271.80859 540.52148 L 368.10938 540.52148 C 377.06678 530.74728 389.67016 524.35996 403.67969 523.60156 C 402.32813 522.80693 400.75562 522.3418 399.06836 522.3418 L 271.80859 522.3418 z M 271.80859 576.88086 C 266.77274 576.88086 262.71875 580.93484 262.71875 585.9707 C 262.71875 591.00655 266.77274 595.06055 271.80859 595.06055 L 354.375 595.06055 L 354.375 576.88086 L 271.80859 576.88086 z M 390.375 576.88086 L 390.375 577.52148 A 18.0018 18.0018 0 0 1 390.39844 576.88086 L 390.375 576.88086 z "
         style="color:#000000;clip-rule:nonzero;display:inline;overflow:visible;visibility:visible;opacity:1;isolation:auto;mix-blend-mode:normal;color-interpolation:sRGB;color-interpolation-filters:linearRGB;solid-color:#000000;solid-opacity:1;fill:#ffffff;fill-opacity:1;fill-rule:evenodd;stroke:none;stroke-width:50;stroke-linecap:butt;stroke-linejoin:miter;stroke-miterlimit:4;stroke-dasharray:none;stroke-dashoffset:0;stroke-opacity:1;color-rendering:auto;image-rendering:auto;shape-rendering:auto;text-rendering:auto;enable-background:accumulate" />
      <rect
         y="322.32294"
         x="190.22029"
         height="401.41559"
         width="400"
         id="rect4160"
         style="opacity:1;fill:none;fill-opacity:1;stroke:none;stroke-width:23;stroke-linecap:butt;stroke-linejoin:round;stroke-miterlimit:4;stroke-dasharray:none;stroke-opacity:1" />
      <rect
         style="color:#252525;clip-rule:nonzero;display:inline;overflow:visible;visibility:visible;opacity:1;isolation:auto;mix-blend-mode:normal;color-interpolation:sRGB;color-interpolation-filters:linearRGB;solid-color:#252525;solid-opacity:1;fill:#99b000;fill-opacity:1;fill-rule:nonzero;stroke:none;stroke-width:12;stroke-linecap:butt;stroke-linejoin:round;stroke-miterlimit:4;stroke-dasharray:none;stroke-dashoffset:60.95800018;stroke-opacity:1;color-rendering:auto;image-rendering:auto;shape-rendering:auto;text-rendering:auto;enable-background:accumulate"
         id="rect4520"
         width="199.62598"
         height="162.84085"
         x="390.37402"
         y="559.52136"
         ry="16.115881" />
      <text
         transform="scale(0.91718454,1.0902931)"
         sodipodi:linespacing="125%"
         id="text4185"
         y="646.32385"
         x="445.69647"
         style="font-style:normal;font-weight:normal;font-size:162.28669739px;line-height:125%;font-family:sans-serif;letter-spacing:0px;word-spacing:0px;fill:#252525;fill-opacity:1;stroke:none;stroke-width:1px;stroke-linecap:butt;stroke-linejoin:miter;stroke-opacity:1"
         xml:space="preserve"><tspan
           style="font-style:normal;font-variant:normal;font-weight:bold;font-stretch:normal;font-family:arial;-inkscape-font-specification:'arial Bold';fill:#ffffff"
           y="646.32385"
           x="445.69647"
           id="tspan4187"
           sodipodi:role="line">Js</tspan></text>
    </g>
  </g>
</svg>
