<?xml version="1.0" encoding="UTF-8" standalone="no"?>
<!-- Created with Inkscape (http://www.inkscape.org/) -->
<svg xmlns:dc="http://purl.org/dc/elements/1.1/" xmlns:cc="http://creativecommons.org/ns#" xmlns:rdf="http://www.w3.org/1999/02/22-rdf-syntax-ns#" xmlns:svg="http://www.w3.org/2000/svg" xmlns="http://www.w3.org/2000/svg" xmlns:xlink="http://www.w3.org/1999/xlink" xmlns:sodipodi="http://sodipodi.sourceforge.net/DTD/sodipodi-0.dtd" xmlns:inkscape="http://www.inkscape.org/namespaces/inkscape" width="210mm" height="297mm" viewBox="0 0 744.09448819 1052.3622047" id="svg2" version="1.1" inkscape:version="0.91 r13725" inkscape:export-xdpi="4" inkscape:export-ydpi="4">
  <defs id="defs4">
    <linearGradient inkscape:collect="always" id="linearGradient4203">
      <stop style="stop-color:#abbe24;stop-opacity:1" offset="0" id="stop4205"/>
      <stop style="stop-color:#c1d53a;stop-opacity:1" offset="1" id="stop4207"/>
    </linearGradient>
    <linearGradient inkscape:collect="always" id="linearGradient4195">
      <stop style="stop-color:#5a6578;stop-opacity:1" offset="0" id="stop4197"/>
      <stop style="stop-color:#9397a2;stop-opacity:1" offset="1" id="stop4199"/>
    </linearGradient>
    <linearGradient id="linearGradient2224">
      <stop id="stop2226" offset="0" style="stop-color:#7c7c7c;stop-opacity:1;"/>
      <stop id="stop2228" offset="1" style="stop-color:#b8b8b8;stop-opacity:1;"/>
    </linearGradient>
    <linearGradient id="linearGradient15218">
      <stop id="stop15220" offset="0" style="stop-color:#eeeeef;stop-opacity:1;"/>
      <stop id="stop2736" offset="0.59928656" style="stop-color:#d3d7cf;stop-opacity:1;"/>
      <stop id="stop2738" offset="0.82758623" style="stop-color:#ffffff;stop-opacity:1;"/>
      <stop id="stop15222" offset="1" style="stop-color:#d3d7cf;stop-opacity:1;"/>
    </linearGradient>
    <pattern y="0" x="0" height="6" width="6" patternUnits="userSpaceOnUse" id="EMFhbasepattern"/>
    <linearGradient inkscape:collect="always" xlink:href="#linearGradient4195" id="linearGradient4201" x1="507" y1="681.40619" x2="302" y2="373.40619" gradientUnits="userSpaceOnUse" gradientTransform="matrix(1.1362769,0,0,1.1362769,-56.751838,-52.998086)"/>
    <linearGradient inkscape:collect="always" xlink:href="#linearGradient4203" id="linearGradient4209" x1="489.22876" y1="385.57309" x2="462.02698" y2="398.57309" gradientUnits="userSpaceOnUse" gradientTransform="matrix(1.1362769,0,0,1.1362769,-56.751838,-52.998086)"/>
    <linearGradient inkscape:collect="always" xlink:href="#linearGradient4195" id="linearGradient4183" x1="476.70978" y1="796.24225" x2="446.96869" y2="560.23071" gradientUnits="userSpaceOnUse"/>
    <linearGradient inkscape:collect="always" xlink:href="#linearGradient4203" id="linearGradient4185-2" gradientUnits="userSpaceOnUse" x1="544.12683" y1="391.21942" x2="400.40225" y2="730.43134" gradientTransform="matrix(1.26736,0,0,0.77629733,-59.133655,53.875031)"/>
  </defs>
  <sodipodi:namedview id="base" pagecolor="#ffffff" bordercolor="#666666" borderopacity="1.0" inkscape:pageopacity="0.0" inkscape:pageshadow="2" inkscape:zoom="1" inkscape:cx="359.14269" inkscape:cy="552.77348" inkscape:document-units="px" inkscape:current-layer="layer1" showgrid="false" showguides="true" inkscape:guide-bbox="true" inkscape:window-width="1366" inkscape:window-height="721" inkscape:window-x="-4" inkscape:window-y="-4" inkscape:window-maximized="1">
    <sodipodi:guide position="315.53572,730.17859" orientation="0,1" id="guide3338"/>
    <sodipodi:guide position="351.25,330.17858" orientation="0,1" id="guide3340"/>
    <sodipodi:guide position="189.10714,408.8393" orientation="1,0" id="guide3344"/>
    <sodipodi:guide position="589.04521,468.07945" orientation="1,0" id="guide3346"/>
    <inkscape:grid type="xygrid" id="grid3440"/>
    <sodipodi:guide position="0,0" orientation="0,1" id="guide3405"/>
    <sodipodi:guide position="214.125,684.50002" orientation="1,0" id="guide3407"/>
    <sodipodi:guide position="0,0" orientation="0,1" id="guide3409"/>
    <sodipodi:guide position="589.04521,378.30213" orientation="1,0" id="guide3411"/>
    <sodipodi:guide position="564.00001,683.37502" orientation="1,0" id="guide3413"/>
  </sodipodi:namedview>
  <metadata id="metadata7">
    <rdf:RDF>
      <cc:Work rdf:about="">
        <dc:format>image/svg+xml</dc:format>
        <dc:type rdf:resource="http://purl.org/dc/dcmitype/StillImage"/>
        <dc:title>document restricted</dc:title>
      </cc:Work>
    </rdf:RDF>
  </metadata>
  <g inkscape:label="Ebene 1" inkscape:groupmode="layer" id="layer1">
    <rect style="fill:none;fill-rule:evenodd;stroke:none;stroke-width:1px;stroke-linecap:butt;stroke-linejoin:miter;stroke-opacity:1" id="rect3336" width="400" height="400" x="189.14485" y="322.27005" inkscape:export-xdpi="4.9499998" inkscape:export-ydpi="4.9499998"/>
    <path inkscape:connector-curvature="0" style="fill:url(#linearGradient4201);fill-opacity:1;fill-rule:evenodd;stroke:none;stroke-width:1px;stroke-linecap:butt;stroke-linejoin:miter;stroke-opacity:1" d="m 451.71876,322.4349 -201.6492,0.02 c -11.38835,-0.0191 -17.06996,5.61113 -17.02196,16.8311 -0.0479,93.31751 -0.0481,252.39602 -0.0177,366.04539 -0.0303,11.34109 5.6854,17.09424 16.97758,17.01752 l 278.36343,0.071 c 11.42211,-0.0653 17.10478,-5.74764 17.17953,-17.20617 l 0.002,-289.39552 c -3.36232,0.31627 -19.83092,1.81573 -38.3316,2.50558 -10.31511,0.38467 -21.02286,0.50766 -30.22451,-0.051 -4.60086,-0.27934 -8.81689,-0.71706 -12.6078,-1.46917 -3.79092,-0.75211 -7.13699,-1.48918 -10.73027,-4.20111 -6.80413,-5.13524 -7.64226,-12.62075 -7.90955,-19.72728 -0.26729,-7.10653 0.56735,-14.99413 1.6334,-23.33363 2.12515,-16.6249 5.15472,-35.18887 4.33649,-47.10666 z m 17.68109,17.14402 c -0.92354,10.92381 -2.68912,22.14171 -3.98363,32.2685 -1.02538,8.02149 -1.69009,15.29631 -1.50023,20.34424 0.13766,3.66007 0.98636,5.50042 1.04305,5.94769 0.10943,-0.005 1.05867,0.45093 2.96942,0.83002 2.52849,0.50164 6.08553,0.90833 10.16878,1.15625 8.16654,0.49579 18.46773,0.4031 28.44466,0.031 8.44195,-0.31478 16.00308,-0.83882 22.66561,-1.31826 -0.97969,-1.12273 -1.49024,-1.838 -2.601,-3.06705 -7.43442,-8.22615 -17.58156,-18.61738 -27.86098,-28.69988 -10.27942,-10.0825 -20.72167,-19.88854 -28.74869,-26.98879 -0.24511,-0.2168 -0.35633,-0.29201 -0.59699,-0.50378 z m -4.44081,58.56043 c -0.0195,9e-4 -0.0209,0.0127 0.0133,0.0466 -4.7e-4,-0.008 -0.0122,-0.0374 -0.0133,-0.0466 z m 72.19798,10.56605 c 0.13681,0.43407 0.25324,0.41272 0.091,0.13093 -0.0131,-0.0227 -0.0761,-0.10579 -0.091,-0.13093 z" id="path4244"/>
    <path style="fill:url(#linearGradient4209);fill-opacity:1;fill-rule:evenodd;stroke:#ffffff;stroke-width:30;stroke-linecap:butt;stroke-linejoin:round;stroke-opacity:1;stroke-miterlimit:4;stroke-dasharray:none" d="m 460.25321,322.43332 c 4.54605,-1.18475 85.25239,76.62002 85.25239,84.97476 0,0 -75.43705,7.35204 -86.89929,-1.29879 -11.46224,-8.65083 3.62219,-55.86276 1.6469,-83.67597 z" id="path4186" inkscape:connector-curvature="0" sodipodi:nodetypes="cczc" inkscape:export-xdpi="4.9499998" inkscape:export-ydpi="4.9499998"/>
    <path inkscape:export-ydpi="4.9499998" inkscape:export-xdpi="4.9499998" sodipodi:nodetypes="cczc" inkscape:connector-curvature="0" id="path4288" d="m 460.25321,322.43332 c 4.54605,-1.18475 85.25239,76.62002 85.25239,84.97476 0,0 -75.43705,7.35204 -86.89929,-1.29879 -11.46224,-8.65083 3.62219,-55.86276 1.6469,-83.67597 z" style="fill:url(#linearGradient4209);fill-opacity:1;fill-rule:evenodd;stroke:none;stroke-width:1px;stroke-linecap:butt;stroke-linejoin:miter;stroke-opacity:1"/>
    <path style="fill:#ffffff;fill-opacity:1;stroke:none" d="m 273.28356,453.85069 c 70.99391,0 141.98784,0 212.98175,0 5.3693,-10e-6 5.3693,23.87068 0,23.87069 -70.99391,0 -141.98784,0 -212.98175,0 -7.15907,-1e-5 -7.15907,-23.8707 0,-23.87069 z" id="rect4248" inkscape:connector-curvature="0" sodipodi:nodetypes="ccccc" inkscape:export-xdpi="4.9499998" inkscape:export-ydpi="4.9499998"/>
    <path style="fill:#ffffff;fill-opacity:1;stroke:none" d="m 272.73028,495.80095 c 63.67163,0 127.34324,0 191.01487,0 4.81548,-10e-6 4.81548,23.87069 0,23.8707 -63.67163,0 -127.34324,0 -191.01487,0 -6.42066,-10e-6 -6.42066,-23.87071 0,-23.8707 z" id="rect4248-4" inkscape:connector-curvature="0" sodipodi:nodetypes="ccccc" inkscape:export-xdpi="4.9499998" inkscape:export-ydpi="4.9499998"/>
    <path style="fill:#ffffff;fill-opacity:1;stroke:none" d="m 273.46311,537.17872 c 67.71816,0 135.43631,0 203.15447,0 5.12155,-3e-5 5.12155,23.87066 0,23.87067 -67.71816,0 -135.43631,0 -203.15447,0 -6.82872,-10e-6 -6.82872,-23.8707 0,-23.87067 z" id="rect4248-1" inkscape:connector-curvature="0" sodipodi:nodetypes="ccccc" inkscape:export-xdpi="4.9499998" inkscape:export-ydpi="4.9499998"/>
    <path style="fill:#ffffff;fill-opacity:1;stroke:none" d="m 272.68656,579.72443 c 63.09356,0 126.1871,0 189.28064,0 4.77179,-10e-6 4.77179,23.87069 0,23.8707 -63.09354,0 -126.18708,0 -189.28064,0 -6.36238,-1e-5 -6.36238,-23.87071 0,-23.8707 z" id="rect4248-1-5" inkscape:connector-curvature="0" sodipodi:nodetypes="ccccc" inkscape:transform-center-x="11.294007" inkscape:transform-center-y="-32.829958" inkscape:export-xdpi="4.9499998" inkscape:export-ydpi="4.9499998"/>
    <g transform="matrix(1.4388051,0,0,0.88131278,-105.71135,-15.38048)" style="font-style:normal;font-weight:normal;font-size:439.66983032px;line-height:125%;font-family:sans-serif;letter-spacing:0px;word-spacing:0px;opacity:1;fill:url(#linearGradient4183);fill-opacity:1;stroke:#a8b740;stroke-width:9.76847267;stroke-linecap:butt;stroke-linejoin:miter;stroke-miterlimit:4;stroke-dasharray:none;stroke-opacity:1" id="text4159"/>
    <path d="m 541.5633,457.27805 -7.07409,179.82342 c -15.41787,3.89685 -30.83574,3.75246 -46.25361,0 l -7.61824,-179.82342 c 16.98287,-3.67069 34.84736,-6.37027 60.94594,0 z m -5.68627,233.70259 c -17.5679,2.69928 -29.31588,3.24026 -48.93796,0 -2.55694,-11.41981 -4.52532,-28.9002 0,-41.15584 18.50143,-2.90934 31.03563,-2.97506 48.93796,0 4.6043,12.02112 3.06672,29.43426 0,41.15584 z" style="font-style:normal;font-weight:normal;font-size:439.66983032px;line-height:125%;font-family:sans-serif;letter-spacing:0px;word-spacing:0px;opacity:1;fill:url(#linearGradient4185-2);fill-opacity:1;stroke:#ffffff;stroke-width:30;stroke-linecap:butt;stroke-linejoin:round;stroke-miterlimit:4;stroke-dasharray:none;stroke-opacity:1" id="path4164-3" inkscape:connector-curvature="0" sodipodi:nodetypes="cccccccccc"/>
    <path d="m 541.36278,457.67176 -7.07409,179.82341 c -15.41787,3.89685 -30.83574,3.75246 -46.25361,0 l -7.61824,-179.82341 c 16.98286,-3.67069 34.84735,-6.37027 60.94594,0 z m -5.68627,233.70258 c -17.5679,2.69928 -29.31589,3.24026 -48.93796,0 -2.55695,-11.41981 -4.52532,-28.9002 0,-41.15584 18.50143,-2.90934 31.03563,-2.97506 48.93796,0 4.60429,12.02112 3.06672,29.43426 0,41.15584 z" style="font-style:normal;font-weight:normal;font-size:439.66983032px;line-height:125%;font-family:sans-serif;letter-spacing:0px;word-spacing:0px;opacity:1;fill:#abbe24;fill-opacity:1;stroke:none;stroke-width:30;stroke-linecap:butt;stroke-linejoin:miter;stroke-miterlimit:4;stroke-dasharray:none;stroke-opacity:1" id="path4164" inkscape:connector-curvature="0" sodipodi:nodetypes="cccccccccc"/>
  </g>
</svg>
