<?xml version="1.0" encoding="UTF-8" standalone="no"?>
<!-- Created with Inkscape (http://www.inkscape.org/) -->

<svg
   xmlns:dc="http://purl.org/dc/elements/1.1/"
   xmlns:cc="http://creativecommons.org/ns#"
   xmlns:rdf="http://www.w3.org/1999/02/22-rdf-syntax-ns#"
   xmlns:svg="http://www.w3.org/2000/svg"
   xmlns="http://www.w3.org/2000/svg"
   xmlns:xlink="http://www.w3.org/1999/xlink"
   xmlns:sodipodi="http://sodipodi.sourceforge.net/DTD/sodipodi-0.dtd"
   xmlns:inkscape="http://www.inkscape.org/namespaces/inkscape"
   width="210mm"
   height="297mm"
   viewBox="0 0 744.09448819 1052.3622047"
   id="svg2"
   version="1.1"
   inkscape:version="0.91 r13725"
   inkscape:export-xdpi="4"
   inkscape:export-ydpi="4"
   sodipodi:docname="document-settings.svg">
  <defs
     id="defs4">
    <linearGradient
       id="linearGradient2224">
      <stop
         id="stop2226"
         offset="0"
         style="stop-color:#7c7c7c;stop-opacity:1;" />
      <stop
         id="stop2228"
         offset="1"
         style="stop-color:#b8b8b8;stop-opacity:1;" />
    </linearGradient>
    <linearGradient
       id="linearGradient15218">
      <stop
         id="stop15220"
         offset="0"
         style="stop-color:#eeeeef;stop-opacity:1;" />
      <stop
         id="stop2736"
         offset="0.59928656"
         style="stop-color:#d3d7cf;stop-opacity:1;" />
      <stop
         id="stop2738"
         offset="0.82758623"
         style="stop-color:#ffffff;stop-opacity:1;" />
      <stop
         id="stop15222"
         offset="1"
         style="stop-color:#d3d7cf;stop-opacity:1;" />
    </linearGradient>
    <pattern
       y="0"
       x="0"
       height="6"
       width="6"
       patternUnits="userSpaceOnUse"
       id="EMFhbasepattern" />
    <linearGradient
       inkscape:collect="always"
       xlink:href="#linearGradient4195"
       id="linearGradient4201"
       x1="286.38269"
       y1="672.9209"
       x2="532.51678"
       y2="367.74933"
       gradientUnits="userSpaceOnUse"
       gradientTransform="matrix(1.1363532,0,0,1.1363532,-56.429317,-53.354057)" />
    <linearGradient
       inkscape:collect="always"
       id="linearGradient4195">
      <stop
         style="stop-color:#4e505d;stop-opacity:1"
         offset="0"
         id="stop4197" />
      <stop
         style="stop-color:#7a8597;stop-opacity:1"
         offset="1"
         id="stop4199" />
    </linearGradient>
  </defs>
  <sodipodi:namedview
     id="base"
     pagecolor="#ffffff"
     bordercolor="#666666"
     borderopacity="1.0"
     inkscape:pageopacity="0.0"
     inkscape:pageshadow="2"
     inkscape:zoom="0.4272152"
     inkscape:cx="-271.26377"
     inkscape:cy="542.43581"
     inkscape:document-units="px"
     inkscape:current-layer="layer1"
     showgrid="false"
     showguides="true"
     inkscape:guide-bbox="true"
     inkscape:window-width="1366"
     inkscape:window-height="721"
     inkscape:window-x="-4"
     inkscape:window-y="-4"
     inkscape:window-maximized="1">
    <sodipodi:guide
       position="315.53572,730.17859"
       orientation="0,1"
       id="guide3338" />
    <sodipodi:guide
       position="351.25,330.17858"
       orientation="0,1"
       id="guide3340" />
    <sodipodi:guide
       position="189.10714,408.8393"
       orientation="1,0"
       id="guide3344" />
    <sodipodi:guide
       position="589.04521,468.07945"
       orientation="1,0"
       id="guide3346" />
    <inkscape:grid
       type="xygrid"
       id="grid3440" />
    <sodipodi:guide
       position="0,0"
       orientation="0,1"
       id="guide3405" />
    <sodipodi:guide
       position="214.125,684.50002"
       orientation="1,0"
       id="guide3407" />
    <sodipodi:guide
       position="0,0"
       orientation="0,1"
       id="guide3409" />
    <sodipodi:guide
       position="589.04521,378.30213"
       orientation="1,0"
       id="guide3411" />
    <sodipodi:guide
       position="564.00001,683.37502"
       orientation="1,0"
       id="guide3413" />
  </sodipodi:namedview>
  <metadata
     id="metadata7">
    <rdf:RDF>
      <cc:Work
         rdf:about="">
        <dc:format>image/svg+xml</dc:format>
        <dc:type
           rdf:resource="http://purl.org/dc/dcmitype/StillImage" />
        <dc:title>document settings</dc:title>
        <dc:date>June 2015</dc:date>
        <dc:creator>
          <cc:Agent>
            <dc:title>Johannes Hechler</dc:title>
          </cc:Agent>
        </dc:creator>
        <dc:rights>
          <cc:Agent>
            <dc:title>Johannes Hechler</dc:title>
          </cc:Agent>
        </dc:rights>
        <dc:publisher>
          <cc:Agent>
            <dc:title>RRZE</dc:title>
          </cc:Agent>
        </dc:publisher>
        <dc:contributor>
          <cc:Agent>
            <dc:title>Ute Weber, Hendrik Eggers</dc:title>
          </cc:Agent>
        </dc:contributor>
      </cc:Work>
    </rdf:RDF>
  </metadata>
  <g
     inkscape:label="Ebene 1"
     inkscape:groupmode="layer"
     id="layer1">
    <g
       id="g4240"
       transform="translate(-0.35009642,0.24701472)">
      <path
         id="path4244"
         d="m 435.54883,322.10547 -185.13672,0.0195 c -11.38911,-0.0191 -17.07144,5.61131 -17.02344,16.83203 -0.048,93.32377 -0.048,252.41136 -0.0176,366.06836 -0.0303,11.34185 5.68558,17.09626 16.97852,17.01953 l 278.38281,0.0703 c 11.42287,-0.0653 17.10688,-5.74774 17.18164,-17.20703 l 0.002,-272.72461 c -5.1936,0.47604 -20.79146,1.82484 -38.26954,2.47657 -10.61175,0.39565 -21.6751,0.54537 -31.7832,-0.0684 -5.05405,-0.30687 -9.84436,-0.77477 -14.74023,-1.7461 -4.89588,-0.97133 -9.846,-1.54156 -17.22071,-7.10742 -13.69763,-10.33794 -13.88759,-22.91967 -14.22265,-31.82812 -0.33507,-8.90845 0.65027,-17.33284 1.75195,-25.95118 2.20336,-17.23667 4.84052,-35.66104 4.24219,-44.08593 l -0.125,-1.76758 z m 45.65625,50.90625 c -0.0523,0.3951 -0.12784,0.89653 -0.17774,1.28711 -0.48825,3.81953 -0.85418,7.37757 -1.09179,10.41015 3.96859,0.21169 8.59559,0.27569 13.5664,0.23829 -2.04702,-2.04541 -3.9833,-4.0427 -6.06445,-6.08399 -2.2399,-2.19699 -4.00316,-3.70652 -6.23242,-5.85156 z m -1.5586,19.02734 c 0.0686,1.71999 0.6109,1.45369 0,0 z"
         style="fill:url(#linearGradient4201);fill-opacity:1;fill-rule:evenodd;stroke:none;stroke-width:1px;stroke-linecap:butt;stroke-linejoin:miter;stroke-opacity:1"
         inkscape:connector-curvature="0" />
      <path
         inkscape:export-filename="C:\Users\johannes\Desktop\document.png"
         style="fill:#99b000;fill-opacity:1;fill-rule:evenodd;stroke:none;stroke-width:1px;stroke-linecap:butt;stroke-linejoin:miter;stroke-opacity:1"
         d="m 460.61043,322.10257 c 4.54635,-1.18483 85.25811,76.62516 85.25811,84.98046 0,0 -75.44211,7.35253 -86.90512,-1.29887 -11.46301,-8.65141 3.62243,-55.86651 1.64701,-83.68159 z"
         id="path4288"
         inkscape:connector-curvature="0"
         sodipodi:nodetypes="cczc"
         inkscape:export-xdpi="3.46731"
         inkscape:export-ydpi="3.46731" />
      <rect
         ry="12.5"
         y="472.66437"
         x="264.29016"
         height="25.102289"
         width="248.79578"
         id="rect4227"
         style="color:#252525;clip-rule:nonzero;display:inline;overflow:visible;visibility:visible;opacity:0.98000004;isolation:auto;mix-blend-mode:normal;color-interpolation:sRGB;color-interpolation-filters:linearRGB;solid-color:#252525;solid-opacity:1;fill:#ffffff;fill-opacity:1;fill-rule:nonzero;stroke:none;stroke-width:50;stroke-linecap:square;stroke-linejoin:round;stroke-miterlimit:4;stroke-dasharray:none;stroke-dashoffset:0;stroke-opacity:1;color-rendering:auto;image-rendering:auto;shape-rendering:auto;text-rendering:auto;enable-background:accumulate" />
      <rect
         style="color:#252525;clip-rule:nonzero;display:inline;overflow:visible;visibility:visible;opacity:0.98000004;isolation:auto;mix-blend-mode:normal;color-interpolation:sRGB;color-interpolation-filters:linearRGB;solid-color:#252525;solid-opacity:1;fill:#ffffff;fill-opacity:1;fill-rule:nonzero;stroke:none;stroke-width:50;stroke-linecap:square;stroke-linejoin:round;stroke-miterlimit:4;stroke-dasharray:none;stroke-dashoffset:0;stroke-opacity:1;color-rendering:auto;image-rendering:auto;shape-rendering:auto;text-rendering:auto;enable-background:accumulate"
         id="rect4229"
         width="204.60161"
         height="25.102289"
         x="264.29016"
         y="523.05499"
         ry="12.5" />
      <rect
         ry="12.5"
         y="572.77344"
         x="264.29016"
         height="25.102289"
         width="225.59384"
         id="rect4233"
         style="color:#252525;clip-rule:nonzero;display:inline;overflow:visible;visibility:visible;opacity:0.98000004;isolation:auto;mix-blend-mode:normal;color-interpolation:sRGB;color-interpolation-filters:linearRGB;solid-color:#252525;solid-opacity:1;fill:#ffffff;fill-opacity:1;fill-rule:nonzero;stroke:none;stroke-width:50;stroke-linecap:square;stroke-linejoin:round;stroke-miterlimit:4;stroke-dasharray:none;stroke-dashoffset:0;stroke-opacity:1;color-rendering:auto;image-rendering:auto;shape-rendering:auto;text-rendering:auto;enable-background:accumulate" />
    </g>
    <rect
       style="fill:none;fill-rule:evenodd;stroke:none;stroke-width:1px;stroke-linecap:butt;stroke-linejoin:miter;stroke-opacity:1"
       id="rect3336"
       width="400"
       height="400"
       x="189.14485"
       y="322.27005"
       inkscape:export-xdpi="4.9499998"
       inkscape:export-ydpi="4.9499998" />
    <g
       id="g4194"
       transform="translate(0,31.447919)">
      <path
         style="fill:#99b000;fill-opacity:1;fill-rule:evenodd;stroke:#ffffff;stroke-width:50;stroke-linecap:butt;stroke-linejoin:round;stroke-miterlimit:4;stroke-dasharray:none;stroke-opacity:1"
         d="m 556.2175,428.57382 c -11.12048,-5.12314 -26.29283,-6.48806 -31.27304,-3.54725 -4.98022,2.94085 -15.29724,26.39335 -15.29724,26.39335 25.41551,0.33227 40.32201,7.32137 58.16044,25.86574 3.81157,-11.66826 9.10541,-24.39613 8.3816,-29.51665 -0.72383,-5.12052 -8.85129,-14.07201 -19.97176,-19.19519 z m -21.07248,39.76389 c -10.59053,-4.79186 -25.08052,-6.20801 -30.39505,-6.56585 -23.22069,53.59631 -47.35139,107.66233 -71.08631,161.33308 18.45377,15.84272 37.09792,24.05863 58.55784,25.88308 l 71.03947,-161.2071 c -10.78786,-9.35944 -17.52542,-14.65135 -28.11595,-19.44321 z M 429.63637,632.22137 c 3.12954,19.63084 5.58648,39.1129 10.51509,59.14165 17.062,-10.00024 32.64217,-21.58424 48.07995,-33.32045 -23.15945,0.6863 -42.0674,-9.53797 -58.59504,-25.8212 z"
         id="path4189"
         inkscape:connector-curvature="0" />
      <path
         inkscape:connector-curvature="0"
         id="path4234-6-1-3"
         d="m 556.2175,428.57382 c -11.12048,-5.12314 -26.29283,-6.48806 -31.27304,-3.54725 -4.98022,2.94085 -15.29724,26.39335 -15.29724,26.39335 25.41551,0.33227 40.32201,7.32137 58.16044,25.86574 3.81157,-11.66826 9.10541,-24.39613 8.3816,-29.51665 -0.72383,-5.12052 -8.85129,-14.07201 -19.97176,-19.19519 z m -21.07248,39.76389 c -10.59053,-4.79186 -25.08052,-6.20801 -30.39505,-6.56585 -23.22069,53.59631 -47.35139,107.66233 -71.08631,161.33308 18.45377,15.84272 37.09792,24.05863 58.55784,25.88308 l 71.03947,-161.2071 c -10.78786,-9.35944 -17.52542,-14.65135 -28.11595,-19.44321 z M 429.63637,632.22137 c 3.12954,19.63084 5.58648,39.1129 10.51509,59.14165 17.062,-10.00024 32.64217,-21.58424 48.07995,-33.32045 -23.15945,0.6863 -42.0674,-9.53797 -58.59504,-25.8212 z"
         style="fill:#99b000;fill-opacity:1;fill-rule:evenodd;stroke:none;stroke-width:1px;stroke-linecap:butt;stroke-linejoin:miter;stroke-opacity:1" />
    </g>
  </g>
</svg>
