<?xml version="1.0" encoding="UTF-8" standalone="no"?>
<!-- Created with Inkscape (http://www.inkscape.org/) -->
<svg xmlns:dc="http://purl.org/dc/elements/1.1/" xmlns:cc="http://creativecommons.org/ns#" xmlns:rdf="http://www.w3.org/1999/02/22-rdf-syntax-ns#" xmlns:svg="http://www.w3.org/2000/svg" xmlns="http://www.w3.org/2000/svg" xmlns:xlink="http://www.w3.org/1999/xlink" xmlns:sodipodi="http://sodipodi.sourceforge.net/DTD/sodipodi-0.dtd" xmlns:inkscape="http://www.inkscape.org/namespaces/inkscape" width="210mm" height="297mm" viewBox="0 0 744.09448819 1052.3622047" id="svg2" version="1.1" inkscape:version="0.91 r13725" inkscape:export-xdpi="4" inkscape:export-ydpi="4">
  <defs id="defs4">
    <linearGradient id="linearGradient2224">
      <stop id="stop2226" offset="0" style="stop-color:#7c7c7c;stop-opacity:1;"/>
      <stop id="stop2228" offset="1" style="stop-color:#b8b8b8;stop-opacity:1;"/>
    </linearGradient>
    <linearGradient id="linearGradient15218">
      <stop id="stop15220" offset="0" style="stop-color:#eeeeef;stop-opacity:1;"/>
      <stop id="stop2736" offset="0.59928656" style="stop-color:#d3d7cf;stop-opacity:1;"/>
      <stop id="stop2738" offset="0.82758623" style="stop-color:#ffffff;stop-opacity:1;"/>
      <stop id="stop15222" offset="1" style="stop-color:#d3d7cf;stop-opacity:1;"/>
    </linearGradient>
    <pattern y="0" x="0" height="6" width="6" patternUnits="userSpaceOnUse" id="EMFhbasepattern"/>
    <linearGradient inkscape:collect="always" xlink:href="#linearGradient4195" id="linearGradient4201" x1="507" y1="681.40619" x2="302" y2="373.40619" gradientUnits="userSpaceOnUse" gradientTransform="matrix(1.1362769,0,0,1.1362769,-55.952257,-53.385891)"/>
    <linearGradient inkscape:collect="always" id="linearGradient4195">
      <stop style="stop-color:#5a6578;stop-opacity:1" offset="0" id="stop4197"/>
      <stop style="stop-color:#9397a2;stop-opacity:1" offset="1" id="stop4199"/>
    </linearGradient>
    <linearGradient inkscape:collect="always" xlink:href="#linearGradient4203" id="linearGradient4209" x1="489.22876" y1="385.57309" x2="462.02698" y2="398.57309" gradientUnits="userSpaceOnUse" gradientTransform="matrix(1.1362769,0,0,1.1362769,-55.952257,-53.385891)"/>
    <linearGradient inkscape:collect="always" id="linearGradient4203">
      <stop style="stop-color:#abbe24;stop-opacity:1" offset="0" id="stop4205"/>
      <stop style="stop-color:#c1d53a;stop-opacity:1" offset="1" id="stop4207"/>
    </linearGradient>
    <linearGradient inkscape:collect="always" xlink:href="#linearGradient4203" id="linearGradient4265" gradientUnits="userSpaceOnUse" gradientTransform="matrix(1.1362769,0,0,1.1362769,-55.952257,-53.385891)" x1="489.22876" y1="385.57309" x2="462.02698" y2="398.57309"/>
  </defs>
  <sodipodi:namedview id="base" pagecolor="#ffffff" bordercolor="#666666" borderopacity="1.0" inkscape:pageopacity="0.0" inkscape:pageshadow="2" inkscape:zoom="0.70710678" inkscape:cx="208.50523" inkscape:cy="380.22023" inkscape:document-units="px" inkscape:current-layer="layer1" showgrid="false" showguides="true" inkscape:guide-bbox="true" inkscape:window-width="1366" inkscape:window-height="721" inkscape:window-x="-4" inkscape:window-y="-4" inkscape:window-maximized="1">
    <sodipodi:guide position="315.53572,730.17859" orientation="0,1" id="guide3338"/>
    <sodipodi:guide position="351.25,330.17858" orientation="0,1" id="guide3340"/>
    <sodipodi:guide position="189.10714,408.8393" orientation="1,0" id="guide3344"/>
    <sodipodi:guide position="589.04521,468.07945" orientation="1,0" id="guide3346"/>
    <inkscape:grid type="xygrid" id="grid3440"/>
    <sodipodi:guide position="589.04521,378.30213" orientation="1,0" id="guide3411"/>
  </sodipodi:namedview>
  <metadata id="metadata7">
    <rdf:RDF>
      <cc:Work rdf:about="">
        <dc:format>image/svg+xml</dc:format>
        <dc:type rdf:resource="http://purl.org/dc/dcmitype/StillImage"/>
        <dc:title>document denied</dc:title>
      </cc:Work>
    </rdf:RDF>
  </metadata>
  <g inkscape:label="Ebene 1" inkscape:groupmode="layer" id="layer1">
    <rect style="fill:none;fill-rule:evenodd;stroke:none;stroke-width:1px;stroke-linecap:butt;stroke-linejoin:miter;stroke-opacity:1" id="rect3336" width="400" height="400" x="189.14485" y="322.27005" inkscape:export-xdpi="4.9499998" inkscape:export-ydpi="4.9499998"/>
    <g id="g4267">
      <path inkscape:export-ydpi="4.9499998" inkscape:export-xdpi="4.9499998" sodipodi:nodetypes="ccccc" inkscape:connector-curvature="0" id="rect4248" d="m 276.14142,454.69344 c 70.99392,0 141.98786,0 212.98177,0 5.36929,-1e-5 5.36929,23.87069 0,23.8707 -70.99391,0 -141.98785,0 -212.98177,0 -7.15906,-1e-5 -7.15906,-23.87071 0,-23.8707 z" style="fill:#ffffff;fill-opacity:1;stroke:none"/>
      <path inkscape:export-ydpi="4.9499998" inkscape:export-xdpi="4.9499998" sodipodi:nodetypes="ccccc" inkscape:connector-curvature="0" id="rect4248-4" d="m 275.58815,496.6437 c 63.67163,0 127.34324,0 191.01488,0 4.81548,-1e-5 4.81548,23.8707 0,23.87071 -63.67164,0 -127.34325,0 -191.01488,0 -6.42067,-10e-6 -6.42067,-23.87072 0,-23.87071 z" style="fill:#ffffff;fill-opacity:1;stroke:none"/>
      <path sodipodi:nodetypes="ssccsccsc" inkscape:connector-curvature="0" id="rect4248-1" d="m 276.32096,538.02068 c -6.82872,-6.3e-4 -6.82872,23.86894 0,23.87069 l 147.25324,0.0376 c 14.0615,-11.29203 30.14141,-19.6098 47.78693,-23.89059 z m 206.78022,16.02327 c -9.2305,1.40182 -18.03314,4.08196 -26.22758,7.84742 l 22.60126,0 c 1.96437,0 3.16883,-3.51789 3.62632,-7.84742 z" style="fill:#ffffff;fill-opacity:1;stroke:none"/>
      <path sodipodi:nodetypes="ssccsccssc" inkscape:connector-curvature="0" id="rect4248-1-5" d="m 275.54421,580.56671 c -6.36238,0 -6.36238,23.87208 0,23.87068 l 115.61496,-0.0251 c 3.8176,-8.54684 9.03607,-16.52715 14.34911,-23.84558 z m 153.91893,0 c -7.27618,6.94591 -13.50355,14.9783 -18.3824,23.87068 l 53.74457,0 c 4.77179,-1e-5 4.77179,-23.87069 0,-23.87068 z" style="fill:#ffffff;fill-opacity:1;stroke:none"/>
      <path id="path4244" d="m 452.51834,322.04709 -201.6492,0.02 c -11.38835,-0.0191 -17.06996,5.61113 -17.02196,16.8311 -0.0479,93.31751 -0.0481,252.39602 -0.0177,366.04539 -0.0303,11.34109 5.6854,17.09424 16.97758,17.01752 l 278.36343,0.071 c 11.42211,-0.0653 17.10478,-5.74764 17.17953,-17.20616 l 0.002,-289.39553 c -3.36231,0.31627 -19.83091,1.81573 -38.33159,2.50558 -10.31511,0.38467 -21.02286,0.50766 -30.22451,-0.051 -4.60086,-0.27934 -8.81689,-0.71705 -12.6078,-1.46917 -3.79092,-0.75211 -7.13699,-1.48918 -10.73027,-4.20111 -6.80413,-5.13524 -7.64226,-12.62075 -7.90955,-19.72728 -0.2673,-7.10653 0.56735,-14.99412 1.6334,-23.33362 2.12514,-16.62491 5.15472,-35.18888 4.33649,-47.10667 z m 17.68109,17.14403 c -0.92354,10.9238 -2.68912,22.1417 -3.98363,32.26849 -1.02539,8.02149 -1.6901,15.29631 -1.50024,20.34424 0.13766,3.66007 0.98637,5.50042 1.04306,5.94769 0.10942,-0.005 1.05867,0.45093 2.96942,0.83002 2.52849,0.50164 6.08553,0.90833 10.16878,1.15625 8.16654,0.49579 18.46773,0.4031 28.44466,0.031 8.44195,-0.31478 16.00308,-0.83882 22.66561,-1.31826 -0.9797,-1.12273 -1.49024,-1.838 -2.601,-3.06705 -7.43443,-8.22615 -17.58156,-18.61738 -27.86098,-28.69988 -10.27942,-10.0825 -20.72167,-19.88854 -28.74869,-26.98879 -0.24511,-0.2168 -0.35633,-0.29201 -0.59699,-0.50378 z m -4.44081,58.56042 c -0.0195,9e-4 -0.0209,0.0127 0.0133,0.0466 -4.7e-4,-0.008 -0.0122,-0.0374 -0.0133,-0.0466 z m 72.19798,10.56605 c 0.13681,0.43407 0.25324,0.41272 0.091,0.13093 -0.0131,-0.0227 -0.0761,-0.10579 -0.091,-0.13093 z" style="fill:url(#linearGradient4201);fill-opacity:1;fill-rule:evenodd;stroke:none;stroke-width:1px;stroke-linecap:butt;stroke-linejoin:miter;stroke-opacity:1" inkscape:connector-curvature="0"/>
      <path inkscape:export-ydpi="4.9499998" inkscape:export-xdpi="4.9499998" sodipodi:nodetypes="cczc" inkscape:connector-curvature="0" id="path4263" d="m 461.05279,322.04552 c 4.54605,-1.18476 85.25239,76.62001 85.25239,84.97475 0,0 -75.43705,7.35204 -86.89929,-1.29879 -11.46224,-8.65083 3.62219,-55.86276 1.6469,-83.67596 z" style="fill:url(#linearGradient4209);fill-opacity:1;fill-rule:evenodd;stroke:#ffffff;stroke-width:30;stroke-linecap:butt;stroke-linejoin:miter;stroke-miterlimit:4;stroke-dasharray:none;stroke-opacity:1"/>
      <path style="fill:url(#linearGradient4265);fill-opacity:1;fill-rule:evenodd;stroke:none;stroke-width:1px;stroke-linecap:butt;stroke-linejoin:miter;stroke-opacity:1" d="m 461.05279,322.04552 c 4.54605,-1.18476 85.25239,76.62001 85.25239,84.97475 0,0 -75.43705,7.35204 -86.89929,-1.29879 -11.46224,-8.65083 3.62219,-55.86276 1.6469,-83.67596 z" id="path4288" inkscape:connector-curvature="0" sodipodi:nodetypes="cczc" inkscape:export-xdpi="4.9499998" inkscape:export-ydpi="4.9499998"/>
      <path inkscape:export-ydpi="4.9499998" inkscape:export-xdpi="4.9499998" sodipodi:nodetypes="ccccc" inkscape:connector-curvature="0" id="rect4248-15" d="m 274.08314,453.46288 c 70.99391,0 141.98784,0 212.98175,0 5.3693,-10e-6 5.3693,23.87068 0,23.87069 -70.99391,0 -141.98784,0 -212.98175,0 -7.15907,-1e-5 -7.15907,-23.8707 0,-23.87069 z" style="fill:#ffffff;fill-opacity:1;stroke:none"/>
      <path inkscape:export-ydpi="4.9499998" inkscape:export-xdpi="4.9499998" sodipodi:nodetypes="ccccc" inkscape:connector-curvature="0" id="rect4248-4-1" d="m 273.52986,495.41314 c 63.67163,0 127.34324,0 191.01487,0 4.81548,-10e-6 4.81548,23.87069 0,23.87071 -63.67163,0 -127.34324,0 -191.01487,0 -6.42067,-2e-5 -6.42067,-23.87072 0,-23.87071 z" style="fill:#ffffff;fill-opacity:1;stroke:none"/>
      <path inkscape:export-ydpi="4.9499998" inkscape:export-xdpi="4.9499998" sodipodi:nodetypes="ccccc" inkscape:connector-curvature="0" id="rect4248-1-1" d="m 274.26269,536.79091 c 67.71816,0 135.43631,0 203.15447,0 5.12154,-3e-5 5.12154,23.87066 0,23.87067 -67.71816,0 -135.43631,0 -203.15447,0 -6.82873,-10e-6 -6.82873,-23.8707 0,-23.87067 z" style="fill:#ffffff;fill-opacity:1;stroke:none"/>
      <path inkscape:export-ydpi="4.9499998" inkscape:export-xdpi="4.9499998" inkscape:transform-center-y="-32.829958" inkscape:transform-center-x="11.294007" sodipodi:nodetypes="ccccc" inkscape:connector-curvature="0" id="rect4248-1-5-6" d="m 273.48614,579.33663 c 63.09356,0 126.18709,0 189.28064,0 4.77179,-2e-5 4.77179,23.87068 0,23.8707 -63.09355,0 -126.18708,0 -189.28064,0 -6.36238,-2e-5 -6.36238,-23.87072 0,-23.8707 z" style="fill:#ffffff;fill-opacity:1;stroke:none"/>
    </g>
    <g id="g4177" transform="translate(-2.8284282,-30.915155)">
      <path inkscape:connector-curvature="0" id="path4165" d="m 584.11593,623.48188 c 0,-54.57086 -44.22476,-98.79549 -98.79522,-98.79549 -54.57019,0 -98.79549,44.22463 -98.79549,98.79549 0,54.5702 44.2253,98.79548 98.79549,98.79548 54.57046,0 98.79522,-44.22528 98.79522,-98.79548 z" style="fill:#d40000;fill-opacity:1;fill-rule:evenodd;stroke:#ffffff;stroke-width:30;stroke-linejoin:round;stroke-miterlimit:4;stroke-dasharray:none;stroke-opacity:1"/>
      <path style="fill:#d40000;fill-opacity:1;fill-rule:evenodd;stroke:none;stroke-width:16;stroke-miterlimit:4;stroke-dasharray:none;stroke-opacity:1" d="m 584.11593,623.48188 c 0,-54.57086 -44.22476,-98.79549 -98.79522,-98.79549 -54.57019,0 -98.79549,44.22463 -98.79549,98.79549 0,54.5702 44.2253,98.79548 98.79549,98.79548 54.57046,0 98.79522,-44.22528 98.79522,-98.79548 z" id="path3359" inkscape:connector-curvature="0"/>
      <rect ry="8.1099892" y="605.40338" x="424.69623" height="37.232224" width="119.80665" id="rect4202" style="opacity:1;fill:#ffffff;fill-opacity:1;stroke:none;stroke-width:16;stroke-linecap:round;stroke-linejoin:round;stroke-miterlimit:4;stroke-dasharray:none;stroke-opacity:1"/>
    </g>
  </g>
</svg>
