<?xml version="1.0" encoding="UTF-8" standalone="no"?>
<!-- Created with Inkscape (http://www.inkscape.org/) -->

<svg
   xmlns:dc="http://purl.org/dc/elements/1.1/"
   xmlns:cc="http://creativecommons.org/ns#"
   xmlns:rdf="http://www.w3.org/1999/02/22-rdf-syntax-ns#"
   xmlns:svg="http://www.w3.org/2000/svg"
   xmlns="http://www.w3.org/2000/svg"
   xmlns:xlink="http://www.w3.org/1999/xlink"
   xmlns:sodipodi="http://sodipodi.sourceforge.net/DTD/sodipodi-0.dtd"
   xmlns:inkscape="http://www.inkscape.org/namespaces/inkscape"
   width="210mm"
   height="297mm"
   viewBox="0 0 744.09448819 1052.3622047"
   id="svg2"
   version="1.1"
   inkscape:version="0.91 r13725"
   inkscape:export-xdpi="4.9276247"
   inkscape:export-ydpi="4.9276247"
   sodipodi:docname="document-restricted.svg"
   inkscape:export-filename="C:\Users\johannes\Documents\Arbeit\RRZE\github3\bicons\22x22\documents\document-restricted.png">
  <defs
     id="defs4">
    <linearGradient
       id="linearGradient2224">
      <stop
         id="stop2226"
         offset="0"
         style="stop-color:#7c7c7c;stop-opacity:1;" />
      <stop
         id="stop2228"
         offset="1"
         style="stop-color:#b8b8b8;stop-opacity:1;" />
    </linearGradient>
    <linearGradient
       id="linearGradient15218">
      <stop
         id="stop15220"
         offset="0"
         style="stop-color:#eeeeef;stop-opacity:1;" />
      <stop
         id="stop2736"
         offset="0.59928656"
         style="stop-color:#d3d7cf;stop-opacity:1;" />
      <stop
         id="stop2738"
         offset="0.82758623"
         style="stop-color:#ffffff;stop-opacity:1;" />
      <stop
         id="stop15222"
         offset="1"
         style="stop-color:#d3d7cf;stop-opacity:1;" />
    </linearGradient>
    <pattern
       y="0"
       x="0"
       height="6"
       width="6"
       patternUnits="userSpaceOnUse"
       id="EMFhbasepattern" />
    <linearGradient
       inkscape:collect="always"
       xlink:href="#linearGradient4195"
       id="linearGradient4183"
       x1="476.70978"
       y1="796.24225"
       x2="446.96869"
       y2="560.23071"
       gradientUnits="userSpaceOnUse" />
    <linearGradient
       inkscape:collect="always"
       id="linearGradient4195">
      <stop
         style="stop-color:#4e505d;stop-opacity:1"
         offset="0"
         id="stop4197" />
      <stop
         style="stop-color:#7a8597;stop-opacity:1"
         offset="1"
         id="stop4199" />
    </linearGradient>
    <linearGradient
       inkscape:collect="always"
       xlink:href="#linearGradient4195"
       id="linearGradient4317"
       gradientUnits="userSpaceOnUse"
       gradientTransform="matrix(0.84824295,0,0,0.84824295,115.51075,143.37983)"
       x1="286.38269"
       y1="672.9209"
       x2="532.51678"
       y2="367.74933" />
    <linearGradient
       inkscape:collect="always"
       xlink:href="#linearGradient4195"
       id="linearGradient4201"
       x1="286.38269"
       y1="672.9209"
       x2="532.51678"
       y2="367.74933"
       gradientUnits="userSpaceOnUse"
       gradientTransform="matrix(0.84824295,0,0,0.84824295,115.51075,143.37983)" />
    <linearGradient
       inkscape:collect="always"
       xlink:href="#linearGradient4203"
       id="linearGradient4209"
       x1="463.0658"
       y1="396.17969"
       x2="494.89703"
       y2="375.89542"
       gradientUnits="userSpaceOnUse"
       gradientTransform="matrix(0.84824295,0,0,0.84824295,115.51075,143.37982)" />
    <linearGradient
       inkscape:collect="always"
       id="linearGradient4203">
      <stop
         style="stop-color:#99b000;stop-opacity:1"
         offset="0"
         id="stop4205" />
      <stop
         style="stop-color:#a9bc24;stop-opacity:1"
         offset="1"
         id="stop4207" />
    </linearGradient>
  </defs>
  <sodipodi:namedview
     id="base"
     pagecolor="#ffffff"
     bordercolor="#666666"
     borderopacity="1.0"
     inkscape:pageopacity="0.0"
     inkscape:pageshadow="2"
     inkscape:zoom="0.5"
     inkscape:cx="431.89726"
     inkscape:cy="483.67633"
     inkscape:document-units="px"
     inkscape:current-layer="layer1"
     showgrid="false"
     showguides="true"
     inkscape:guide-bbox="true"
     inkscape:window-width="1366"
     inkscape:window-height="721"
     inkscape:window-x="-4"
     inkscape:window-y="-4"
     inkscape:window-maximized="1">
    <sodipodi:guide
       position="315.53572,730.17859"
       orientation="0,1"
       id="guide3338" />
    <sodipodi:guide
       position="351.25,330.17858"
       orientation="0,1"
       id="guide3340" />
    <sodipodi:guide
       position="189.10714,408.8393"
       orientation="1,0"
       id="guide3344" />
    <sodipodi:guide
       position="589.04521,468.07945"
       orientation="1,0"
       id="guide3346" />
    <inkscape:grid
       type="xygrid"
       id="grid3440" />
    <sodipodi:guide
       position="0,0"
       orientation="0,1"
       id="guide3405" />
    <sodipodi:guide
       position="214.125,684.50002"
       orientation="1,0"
       id="guide3407" />
    <sodipodi:guide
       position="0,0"
       orientation="0,1"
       id="guide3409" />
    <sodipodi:guide
       position="589.04521,378.30213"
       orientation="1,0"
       id="guide3411" />
    <sodipodi:guide
       position="564.00001,683.37502"
       orientation="1,0"
       id="guide3413" />
  </sodipodi:namedview>
  <metadata
     id="metadata7">
    <rdf:RDF>
      <cc:Work
         rdf:about="">
        <dc:format>image/svg+xml</dc:format>
        <dc:type
           rdf:resource="http://purl.org/dc/dcmitype/StillImage" />
        <dc:title>document restricted</dc:title>
        <dc:date>June 2015</dc:date>
        <dc:creator>
          <cc:Agent>
            <dc:title>Johannes Hechler</dc:title>
          </cc:Agent>
        </dc:creator>
        <dc:rights>
          <cc:Agent>
            <dc:title>Johannes Hechler</dc:title>
          </cc:Agent>
        </dc:rights>
        <dc:publisher>
          <cc:Agent>
            <dc:title>RRZE</dc:title>
          </cc:Agent>
        </dc:publisher>
        <dc:contributor>
          <cc:Agent>
            <dc:title>Ute Weber, Hendrik Eggers</dc:title>
          </cc:Agent>
        </dc:contributor>
      </cc:Work>
    </rdf:RDF>
  </metadata>
  <g
     inkscape:label="Ebene 1"
     inkscape:groupmode="layer"
     id="layer1">
    <g
       transform="matrix(1.4388051,0,0,0.88131278,-105.97085,-15.21602)"
       style="font-style:normal;font-weight:normal;font-size:439.66983032px;line-height:125%;font-family:sans-serif;letter-spacing:0px;word-spacing:0px;opacity:1;fill:url(#linearGradient4183);fill-opacity:1;stroke:#a8b740;stroke-width:9.76847267;stroke-linecap:butt;stroke-linejoin:miter;stroke-miterlimit:4;stroke-dasharray:none;stroke-opacity:1"
       id="text4159" />
    <rect
       style="fill:none;fill-rule:evenodd;stroke:none;stroke-width:1px;stroke-linecap:butt;stroke-linejoin:miter;stroke-opacity:1"
       id="rect3336"
       width="400"
       height="400"
       x="189"
       y="322.14047"
       inkscape:export-xdpi="4.9499998"
       inkscape:export-ydpi="4.9499998" />
    <path
       style="fill:#99b000;fill-opacity:1;fill-rule:evenodd;stroke:none;stroke-width:1px;stroke-linecap:butt;stroke-linejoin:miter;stroke-opacity:1"
       d="m 373.56326,321.9973 -146.8789,0.0156 c -8.50153,-0.0143 -12.74287,4.18862 -12.70704,12.56445 -0.0358,69.66252 -0.0364,188.41733 -0.0137,273.25781 -0.0226,8.46625 4.2441,12.7604 12.67383,12.70313 l 207.80078,0.0527 c 8.52673,-0.0487 12.77037,-4.28984 12.82617,-12.84375 l 0,-212.27734 c -2.34094,0.22119 -14.83418,1.36656 -28.88867,1.89062 -7.76013,0.28938 -15.82481,0.38717 -22.87695,-0.041 -3.52607,-0.21409 -6.78866,-0.54661 -9.8418,-1.15235 -3.05313,-0.60573 -5.87595,-1.12164 -9.32226,-3.72265 -6.47192,-4.88452 -6.96647,-11.50284 -7.17969,-17.17188 -0.21322,-5.66904 0.44115,-11.66552 1.24414,-17.94726 1.60598,-12.56349 3.79638,-26.43271 3.21484,-34.6211 l -0.0508,-0.70703 z m 19.06055,20.17383 c -0.73735,6.11408 -1.68147,12.1743 -2.38672,17.69141 -0.75827,5.9319 -1.22375,11.25381 -1.0957,14.6582 0.0447,1.18798 0.21077,1.54133 0.34375,2.00781 0.0309,0.007 0.0329,0.0135 0.0644,0.0195 1.66437,0.33021 4.2054,0.62908 7.16211,0.8086 5.91341,0.35901 13.53183,0.29502 20.91992,0.0195 3.76162,-0.14027 6.68071,-0.37993 10.10938,-0.58789 -5.21598,-5.63901 -11.38235,-12.0552 -18.06055,-18.60547 -6.10653,-5.98955 -11.79048,-11.22175 -17.05664,-16.01172 z"
       id="path4273"
       inkscape:connector-curvature="0" />
    <path
       style="fill:#4e505d;fill-opacity:1;fill-rule:evenodd;stroke:none;stroke-width:1px;stroke-linecap:butt;stroke-linejoin:miter;stroke-opacity:1"
       d="m 383.58859,321.99682 c 3.39367,-0.88442 63.64182,57.19768 63.64182,63.43458 0,0 -56.31456,5.48837 -64.87126,-0.96956 -8.55668,-6.45794 2.704,-41.70215 1.22944,-62.46502 z"
       id="path4281"
       inkscape:connector-curvature="0"
       sodipodi:nodetypes="cczc"
       inkscape:export-xdpi="3.46731"
       inkscape:export-ydpi="3.46731" />
    <g
       id="g4302"
       transform="translate(-118.08683,-100.40916)">
      <rect
         style="color:#000000;clip-rule:nonzero;display:inline;overflow:visible;visibility:visible;opacity:1;isolation:auto;mix-blend-mode:normal;color-interpolation:sRGB;color-interpolation-filters:linearRGB;solid-color:#000000;solid-opacity:1;fill:#ffffff;fill-opacity:1;fill-rule:nonzero;stroke:none;stroke-width:25;stroke-linecap:square;stroke-linejoin:round;stroke-miterlimit:4;stroke-dasharray:none;stroke-dashoffset:0;stroke-opacity:1;color-rendering:auto;image-rendering:auto;shape-rendering:auto;text-rendering:auto;enable-background:accumulate"
         id="rect4304"
         width="166.5"
         height="15.5"
         x="357.79291"
         y="522.00861"
         ry="7.75" />
      <rect
         ry="7.75"
         y="564.00861"
         x="357.79291"
         height="15.5"
         width="104.98171"
         id="rect4306"
         style="color:#000000;clip-rule:nonzero;display:inline;overflow:visible;visibility:visible;opacity:1;isolation:auto;mix-blend-mode:normal;color-interpolation:sRGB;color-interpolation-filters:linearRGB;solid-color:#000000;solid-opacity:1;fill:#ffffff;fill-opacity:1;fill-rule:nonzero;stroke:none;stroke-width:25;stroke-linecap:square;stroke-linejoin:round;stroke-miterlimit:4;stroke-dasharray:none;stroke-dashoffset:0;stroke-opacity:1;color-rendering:auto;image-rendering:auto;shape-rendering:auto;text-rendering:auto;enable-background:accumulate" />
      <rect
         style="color:#000000;clip-rule:nonzero;display:inline;overflow:visible;visibility:visible;opacity:1;isolation:auto;mix-blend-mode:normal;color-interpolation:sRGB;color-interpolation-filters:linearRGB;solid-color:#000000;solid-opacity:1;fill:#ffffff;fill-opacity:1;fill-rule:nonzero;stroke:none;stroke-width:25;stroke-linecap:square;stroke-linejoin:round;stroke-miterlimit:4;stroke-dasharray:none;stroke-dashoffset:0;stroke-opacity:1;color-rendering:auto;image-rendering:auto;shape-rendering:auto;text-rendering:auto;enable-background:accumulate"
         id="rect4308"
         width="147.40811"
         height="15.5"
         x="357.79291"
         y="606.00861"
         ry="7.75" />
    </g>
    <path
       inkscape:connector-curvature="0"
       style="fill:url(#linearGradient4317);fill-opacity:1;fill-rule:evenodd;stroke:#ffffff;stroke-width:25;stroke-linecap:butt;stroke-linejoin:miter;stroke-miterlimit:4;stroke-dasharray:none;stroke-opacity:1"
       d="m 491.43526,423.64389 -146.8789,0.0156 c -8.50153,-0.0143 -12.74287,4.18862 -12.70704,12.56445 -0.0358,69.66252 -0.0364,188.41733 -0.0137,273.25781 -0.0226,8.46625 4.2441,12.7604 12.67383,12.70313 l 207.80078,0.0527 c 8.52673,-0.0487 12.77037,-4.28984 12.82617,-12.84375 l 0,-212.27734 c -2.34094,0.22119 -14.83418,1.36656 -28.88867,1.89062 -7.76013,0.28938 -15.82481,0.38717 -22.87695,-0.041 -3.52607,-0.21409 -6.78866,-0.54661 -9.8418,-1.15235 -3.05313,-0.60573 -5.87595,-1.12164 -9.32226,-3.72265 -6.47192,-4.88452 -6.96647,-11.50284 -7.17969,-17.17188 -0.21322,-5.66904 0.44115,-11.66552 1.24414,-17.94726 1.60598,-12.56349 3.79638,-26.43271 3.21484,-34.6211 l -0.0508,-0.70703 z m 19.06055,20.17383 c -0.73735,6.11408 -1.68147,12.1743 -2.38672,17.69141 -0.75827,5.9319 -1.22375,11.25381 -1.0957,14.6582 0.0447,1.18798 0.21077,1.54133 0.34375,2.00781 0.0309,0.007 0.0329,0.0135 0.0644,0.0195 1.66437,0.33021 4.2054,0.62908 7.16211,0.8086 5.91341,0.35901 13.53183,0.29502 20.91992,0.0195 3.76162,-0.14027 6.68071,-0.37993 10.10938,-0.58789 -5.21598,-5.63901 -11.38235,-12.0552 -18.06055,-18.60547 -6.10653,-5.98955 -11.79048,-11.22175 -17.05664,-16.01172 z"
       id="path4297" />
    <path
       id="path4244"
       d="m 491.43526,423.64389 -146.8789,0.0156 c -8.50153,-0.0143 -12.74287,4.18862 -12.70704,12.56445 -0.0358,69.66252 -0.0364,188.41733 -0.0137,273.25781 -0.0226,8.46625 4.2441,12.7604 12.67383,12.70313 l 207.80078,0.0527 c 8.52673,-0.0487 12.77037,-4.28984 12.82617,-12.84375 l 0,-212.27734 c -2.34094,0.22119 -14.83418,1.36656 -28.88867,1.89062 -7.76013,0.28938 -15.82481,0.38717 -22.87695,-0.041 -3.52607,-0.21409 -6.78866,-0.54661 -9.8418,-1.15235 -3.05313,-0.60573 -5.87595,-1.12164 -9.32226,-3.72265 -6.47192,-4.88452 -6.96647,-11.50284 -7.17969,-17.17188 -0.21322,-5.66904 0.44115,-11.66552 1.24414,-17.94726 1.60598,-12.56349 3.79638,-26.43271 3.21484,-34.6211 l -0.0508,-0.70703 z m 19.06055,20.17383 c -0.73735,6.11408 -1.68147,12.1743 -2.38672,17.69141 -0.75827,5.9319 -1.22375,11.25381 -1.0957,14.6582 0.0447,1.18798 0.21077,1.54133 0.34375,2.00781 0.0309,0.007 0.0329,0.0135 0.0644,0.0195 1.66437,0.33021 4.2054,0.62908 7.16211,0.8086 5.91341,0.35901 13.53183,0.29502 20.91992,0.0195 3.76162,-0.14027 6.68071,-0.37993 10.10938,-0.58789 -5.21598,-5.63901 -11.38235,-12.0552 -18.06055,-18.60547 -6.10653,-5.98955 -11.79048,-11.22175 -17.05664,-16.01172 z"
       style="fill:url(#linearGradient4201);fill-opacity:1;fill-rule:evenodd;stroke:none;stroke-width:1px;stroke-linecap:butt;stroke-linejoin:miter;stroke-opacity:1"
       inkscape:connector-curvature="0" />
    <path
       inkscape:export-ydpi="3.46731"
       inkscape:export-xdpi="3.46731"
       sodipodi:nodetypes="cczc"
       inkscape:connector-curvature="0"
       id="path4288"
       d="m 501.46059,423.64341 c 3.39367,-0.88442 63.64182,57.19768 63.64182,63.43458 0,0 -56.31456,5.48837 -64.87126,-0.96956 -8.55668,-6.45794 2.704,-41.70215 1.22944,-62.46502 z"
       style="fill:url(#linearGradient4209);fill-opacity:1;fill-rule:evenodd;stroke:none;stroke-width:1px;stroke-linecap:butt;stroke-linejoin:miter;stroke-opacity:1" />
    <g
       id="g4297">
      <rect
         ry="7.75"
         y="522.00861"
         x="357.79291"
         height="15.5"
         width="166.5"
         id="rect4282"
         style="color:#000000;clip-rule:nonzero;display:inline;overflow:visible;visibility:visible;opacity:1;isolation:auto;mix-blend-mode:normal;color-interpolation:sRGB;color-interpolation-filters:linearRGB;solid-color:#000000;solid-opacity:1;fill:#ffffff;fill-opacity:1;fill-rule:nonzero;stroke:none;stroke-width:25;stroke-linecap:square;stroke-linejoin:round;stroke-miterlimit:4;stroke-dasharray:none;stroke-dashoffset:0;stroke-opacity:1;color-rendering:auto;image-rendering:auto;shape-rendering:auto;text-rendering:auto;enable-background:accumulate" />
      <rect
         style="color:#000000;clip-rule:nonzero;display:inline;overflow:visible;visibility:visible;opacity:1;isolation:auto;mix-blend-mode:normal;color-interpolation:sRGB;color-interpolation-filters:linearRGB;solid-color:#000000;solid-opacity:1;fill:#ffffff;fill-opacity:1;fill-rule:nonzero;stroke:none;stroke-width:25;stroke-linecap:square;stroke-linejoin:round;stroke-miterlimit:4;stroke-dasharray:none;stroke-dashoffset:0;stroke-opacity:1;color-rendering:auto;image-rendering:auto;shape-rendering:auto;text-rendering:auto;enable-background:accumulate"
         id="rect4284"
         width="104.98171"
         height="15.5"
         x="357.79291"
         y="564.00861"
         ry="7.75" />
      <rect
         ry="7.75"
         y="606.00861"
         x="357.79291"
         height="15.5"
         width="147.40811"
         id="rect4286"
         style="color:#000000;clip-rule:nonzero;display:inline;overflow:visible;visibility:visible;opacity:1;isolation:auto;mix-blend-mode:normal;color-interpolation:sRGB;color-interpolation-filters:linearRGB;solid-color:#000000;solid-opacity:1;fill:#ffffff;fill-opacity:1;fill-rule:nonzero;stroke:none;stroke-width:25;stroke-linecap:square;stroke-linejoin:round;stroke-miterlimit:4;stroke-dasharray:none;stroke-dashoffset:0;stroke-opacity:1;color-rendering:auto;image-rendering:auto;shape-rendering:auto;text-rendering:auto;enable-background:accumulate" />
    </g>
    <g
       id="g4202"
       transform="translate(12.277129,2.2426406)">
      <path
         sodipodi:nodetypes="cccccccccc"
         inkscape:connector-curvature="0"
         id="path4355"
         style="font-style:normal;font-weight:normal;font-size:439.66983032px;line-height:125%;font-family:sans-serif;letter-spacing:0px;word-spacing:0px;opacity:1;fill:#99b000;fill-opacity:1;stroke:#ffffff;stroke-width:25;stroke-linecap:butt;stroke-linejoin:round;stroke-miterlimit:4;stroke-dasharray:none;stroke-opacity:1"
         d="m 571.86021,478.91948 -1.07409,169.82341 c -15.41787,3.89685 -38.83574,3.75246 -54.25361,0 l 0.38176,-169.82341 c 16.98286,-3.67069 28.84735,-6.37027 54.94594,0 z m 0.31373,239.70258 c -17.5679,2.69928 -35.31589,3.24026 -54.93796,0 -2.55695,-11.41981 -4.52532,-34.9002 0,-47.15584 18.50143,-2.90934 37.03563,-2.97506 54.93796,0 2.31642,12.78374 -0.26084,36.54345 0,47.15584 z" />
      <g
         id="g4351"
         transform="translate(17.740498,-4.83554)">
        <path
           sodipodi:nodetypes="cccccccccc"
           inkscape:connector-curvature="0"
           id="path4353"
           style="font-style:normal;font-weight:normal;font-size:439.66983032px;line-height:125%;font-family:sans-serif;letter-spacing:0px;word-spacing:0px;opacity:1;fill:#99b000;fill-opacity:1;stroke:none;stroke-width:30;stroke-linecap:butt;stroke-linejoin:miter;stroke-miterlimit:4;stroke-dasharray:none;stroke-opacity:1"
           d="m 554.11971,483.75502 -1.07409,169.82341 c -15.41787,3.89685 -38.83574,3.75246 -54.25361,0 l 0.38176,-169.82341 c 16.98286,-3.67069 28.84735,-6.37027 54.94594,0 z m 0.31373,239.70258 c -17.5679,2.69928 -35.31589,3.24026 -54.93796,0 -2.55695,-11.41981 -4.52532,-34.9002 0,-47.15584 18.50143,-2.90934 37.03563,-2.97506 54.93796,0 0.81051,12.02112 -1.60557,35.43426 0,47.15584 z" />
      </g>
    </g>
  </g>
</svg>
