<?xml version="1.0" encoding="UTF-8" standalone="no"?>
<!-- Created with Inkscape (http://www.inkscape.org/) -->

<svg
   xmlns:dc="http://purl.org/dc/elements/1.1/"
   xmlns:cc="http://creativecommons.org/ns#"
   xmlns:rdf="http://www.w3.org/1999/02/22-rdf-syntax-ns#"
   xmlns:svg="http://www.w3.org/2000/svg"
   xmlns="http://www.w3.org/2000/svg"
   xmlns:xlink="http://www.w3.org/1999/xlink"
   xmlns:sodipodi="http://sodipodi.sourceforge.net/DTD/sodipodi-0.dtd"
   xmlns:inkscape="http://www.inkscape.org/namespaces/inkscape"
   width="210mm"
   height="297mm"
   viewBox="0 0 744.09448819 1052.3622047"
   id="svg2"
   version="1.1"
   inkscape:version="0.91 r13725"
   inkscape:export-xdpi="7.1992788"
   inkscape:export-ydpi="7.1992788"
   sodipodi:docname="document-completed.svg"
   inkscape:export-filename="C:\Users\johannes\Documents\Arbeit\RRZE\github3\bicons\32x32\documents\document-completed.png">
  <defs
     id="defs4">
    <linearGradient
       inkscape:collect="always"
       xlink:href="#linearGradient4321"
       id="linearGradient4201"
       x1="286.38269"
       y1="672.9209"
       x2="532.51678"
       y2="367.74933"
       gradientUnits="userSpaceOnUse"
       gradientTransform="matrix(1.1363532,0,0,1.1363532,-56.47603,-53.2526)" />
    <linearGradient
       id="linearGradient4321"
       inkscape:collect="always">
      <stop
         id="stop4323"
         offset="0"
         style="stop-color:#4e505d;stop-opacity:1;" />
      <stop
         id="stop4325"
         offset="1"
         style="stop-color:#7a8597;stop-opacity:1" />
    </linearGradient>
  </defs>
  <sodipodi:namedview
     id="base"
     pagecolor="#ffffff"
     bordercolor="#666666"
     borderopacity="1.0"
     inkscape:pageopacity="0.0"
     inkscape:pageshadow="2"
     inkscape:zoom="0.7071068"
     inkscape:cx="262.06598"
     inkscape:cy="526.30901"
     inkscape:document-units="px"
     inkscape:current-layer="layer1"
     showgrid="false"
     showguides="true"
     inkscape:guide-bbox="true"
     inkscape:window-width="1600"
     inkscape:window-height="837"
     inkscape:window-x="-4"
     inkscape:window-y="-4"
     inkscape:window-maximized="1"
     inkscape:snap-bbox="true"
     inkscape:bbox-paths="true"
     inkscape:bbox-nodes="true"
     inkscape:object-paths="true"
     inkscape:snap-intersection-paths="true"
     inkscape:object-nodes="true"
     inkscape:snap-smooth-nodes="true">
    <sodipodi:guide
       position="315.53572,730.17859"
       orientation="0,1"
       id="guide3338" />
    <sodipodi:guide
       position="351.25,330.17858"
       orientation="0,1"
       id="guide3340" />
    <sodipodi:guide
       position="189.10714,408.8393"
       orientation="1,0"
       id="guide3344" />
    <inkscape:grid
       type="xygrid"
       id="grid3440" />
    <sodipodi:guide
       position="0,0"
       orientation="0,1"
       id="guide3405" />
    <sodipodi:guide
       position="214.125,684.50002"
       orientation="1,0"
       id="guide3407" />
    <sodipodi:guide
       position="0,0"
       orientation="0,1"
       id="guide3409" />
    <sodipodi:guide
       position="589.04521,378.30213"
       orientation="1,0"
       id="guide3411" />
    <sodipodi:guide
       position="564.00001,683.37502"
       orientation="1,0"
       id="guide3413" />
  </sodipodi:namedview>
  <metadata
     id="metadata7">
    <rdf:RDF>
      <cc:Work
         rdf:about="">
        <dc:format>image/svg+xml</dc:format>
        <dc:type
           rdf:resource="http://purl.org/dc/dcmitype/StillImage" />
        <dc:title>document completed</dc:title>
        <dc:date>June 2015</dc:date>
        <dc:creator>
          <cc:Agent>
            <dc:title>Johannes Hechler</dc:title>
          </cc:Agent>
        </dc:creator>
        <dc:rights>
          <cc:Agent>
            <dc:title>Johannes Hechler</dc:title>
          </cc:Agent>
        </dc:rights>
        <dc:publisher>
          <cc:Agent>
            <dc:title>RRZE</dc:title>
          </cc:Agent>
        </dc:publisher>
        <dc:contributor>
          <cc:Agent>
            <dc:title>Ute Weber, Hendrik Eggers, Joanna Barbach</dc:title>
          </cc:Agent>
        </dc:contributor>
        <dc:subject>
          <rdf:Bag>
            <rdf:li>action undo</rdf:li>
            <rdf:li>cancel</rdf:li>
            <rdf:li>rewrite</rdf:li>
            <rdf:li>change</rdf:li>
          </rdf:Bag>
        </dc:subject>
        <cc:license
           rdf:resource="http://creativecommons.org/licenses/by-sa/3.0/" />
      </cc:Work>
      <cc:License
         rdf:about="http://creativecommons.org/licenses/by-sa/3.0/">
        <cc:permits
           rdf:resource="http://creativecommons.org/ns#Reproduction" />
        <cc:permits
           rdf:resource="http://creativecommons.org/ns#Distribution" />
        <cc:requires
           rdf:resource="http://creativecommons.org/ns#Notice" />
        <cc:requires
           rdf:resource="http://creativecommons.org/ns#Attribution" />
        <cc:permits
           rdf:resource="http://creativecommons.org/ns#DerivativeWorks" />
        <cc:requires
           rdf:resource="http://creativecommons.org/ns#ShareAlike" />
      </cc:License>
    </rdf:RDF>
  </metadata>
  <g
     inkscape:label="Ebene 1"
     inkscape:groupmode="layer"
     id="layer1">
    <g
       id="g4178">
      <rect
         inkscape:export-ydpi="3.5999999"
         inkscape:export-xdpi="3.5999999"
         y="322.18362"
         x="189.10715"
         height="400"
         width="400"
         id="rect3336"
         style="fill:none;fill-rule:evenodd;stroke:none;stroke-width:1px;stroke-linecap:butt;stroke-linejoin:miter;stroke-opacity:1" />
      <rect
         inkscape:export-ydpi="3.46731"
         inkscape:export-xdpi="3.46731"
         y="322.23563"
         x="189.14722"
         height="400"
         width="400"
         id="rect3336-0"
         style="fill:none;fill-rule:evenodd;stroke:none;stroke-width:1px;stroke-linecap:butt;stroke-linejoin:miter;stroke-opacity:1" />
      <path
         id="path4244"
         d="M 445.50195 322.20703 L 250.36523 322.22656 C 238.97612 322.20746 233.2938 327.83787 233.3418 339.05859 C 233.31246 396.07661 233.31264 478.13683 233.31641 558.43359 C 233.31588 558.48098 233.30859 558.5267 233.30859 558.57422 L 233.30859 709.7168 C 233.30859 716.64181 238.88358 722.2168 245.80859 722.2168 L 341.87305 722.2168 A 15.0015 15.0015 0 0 1 341.87109 722.17969 C 341.87423 706.37355 346.4292 691.3651 352.375 678.61523 C 353.01512 677.24259 353.71359 676.01434 354.37695 674.69922 L 321.25195 674.69922 C 309.18989 674.69922 297.30078 664.41734 297.30078 651.27734 L 297.30078 650.54492 C 297.30078 636.95545 308.18153 626.51953 321.47266 626.51953 L 545.86719 626.51953 L 545.86719 567.36523 L 545.86719 558.57422 L 545.86914 422.28516 C 540.67554 422.7612 525.07769 424.10999 507.59961 424.76172 C 496.98786 425.15738 485.92451 425.30708 475.81641 424.69336 C 470.76236 424.38649 465.97204 423.9186 461.07617 422.94727 C 456.18029 421.97594 454.35613 422.36942 447.35547 416.33984 C 441.15784 411.0019 439.96787 402.92018 439.63281 394.01172 C 439.29774 385.10327 440.28309 376.67889 441.38477 368.06055 C 443.58813 350.82388 446.22528 332.3995 445.62695 323.97461 L 445.50195 322.20703 z M 481.1582 373.11328 C 481.1059 373.50838 481.03037 374.00981 480.98047 374.40039 C 480.49222 378.21992 480.12628 381.77797 479.88867 384.81055 C 483.85726 385.02224 488.48427 385.08623 493.45508 385.04883 C 491.40806 383.00342 489.47178 381.00613 487.39062 378.96484 C 485.15073 376.76785 483.38746 375.25832 481.1582 373.11328 z M 479.59961 392.14062 C 479.66821 393.86061 480.21051 393.59431 479.59961 392.14062 z M 397.9375 656.51953 A 15.0015 15.0015 0 0 1 393.17773 670.98633 C 390.35958 673.45275 384.08352 681.60028 379.5625 691.29492 C 377.23425 696.2875 375.29085 701.73505 373.92773 707.18359 L 504.37305 707.18359 C 502.86954 701.46478 500.90769 695.83843 498.66992 690.77148 C 494.31191 680.9037 488.30942 672.98377 486.23047 671.26758 A 15.0015 15.0015 0 0 1 481.14258 656.51953 L 397.9375 656.51953 z M 524.23047 674.72266 C 524.85358 676.04093 525.50777 677.27933 526.11328 678.65039 C 529.29696 685.85915 531.96786 693.76612 533.96289 701.98438 C 533.84576 692.92213 533.77766 683.84864 533.75586 674.73242 L 524.23047 674.72266 z "
         style="fill:url(#linearGradient4201);fill-opacity:1;fill-rule:evenodd;stroke:none;stroke-width:1px;stroke-linecap:butt;stroke-linejoin:miter;stroke-opacity:1" />
      <path
         style="fill:#99b000;fill-opacity:1;fill-rule:evenodd;stroke:none;stroke-width:1px;stroke-linecap:butt;stroke-linejoin:miter;stroke-opacity:1"
         d="m 460.56372,322.20404 c 4.54635,-1.18483 85.25811,76.62516 85.25811,84.98046 0,0 -75.44211,7.35253 -86.90512,-1.29887 -11.46301,-8.65141 3.62243,-55.86651 1.64701,-83.68159 z"
         id="path4288"
         inkscape:connector-curvature="0"
         sodipodi:nodetypes="cczc"
         inkscape:export-xdpi="3.46731"
         inkscape:export-ydpi="3.46731" />
      <path
         id="rect4232"
         d="M 270.91602 467.62305 C 265.88017 467.62305 261.82617 471.67703 261.82617 476.71289 C 261.82617 481.74875 265.88017 485.80273 270.91602 485.80273 L 489.07617 485.80273 C 494.11203 485.80273 498.16602 481.74875 498.16602 476.71289 C 498.16602 471.67703 494.11203 467.62305 489.07617 467.62305 L 270.91602 467.62305 z M 270.91602 522.16406 C 265.88017 522.16406 261.82617 526.21805 261.82617 531.25391 C 261.82617 536.28976 265.88017 540.34375 270.91602 540.34375 L 398.17578 540.34375 C 403.21163 540.34375 407.26758 536.28976 407.26758 531.25391 C 407.26758 526.21805 403.21163 522.16406 398.17578 522.16406 L 270.91602 522.16406 z M 270.91602 576.70508 C 265.88017 576.70508 261.82617 580.75906 261.82617 585.79492 C 261.82617 590.83078 265.88017 594.88477 270.91602 594.88477 L 489.07617 594.88477 C 494.11203 594.88477 498.16602 590.83078 498.16602 585.79492 C 498.16602 580.75906 494.11203 576.70508 489.07617 576.70508 L 270.91602 576.70508 z "
         style="color:#000000;clip-rule:nonzero;display:inline;overflow:visible;visibility:visible;opacity:1;isolation:auto;mix-blend-mode:normal;color-interpolation:sRGB;color-interpolation-filters:linearRGB;solid-color:#000000;solid-opacity:1;fill:#ffffff;fill-opacity:1;fill-rule:evenodd;stroke:none;stroke-width:50;stroke-linecap:butt;stroke-linejoin:miter;stroke-miterlimit:4;stroke-dasharray:none;stroke-dashoffset:0;stroke-opacity:1;color-rendering:auto;image-rendering:auto;shape-rendering:auto;text-rendering:auto;enable-background:accumulate" />
      <path
         inkscape:export-ydpi="4.9499998"
         inkscape:export-xdpi="4.9499998"
         inkscape:export-filename="C:\Users\johannes\Desktop\g4232.png"
         sodipodi:nodetypes="ssssccccccccccccscs"
         inkscape:connector-curvature="0"
         id="rect4211"
         d="m 321.47294,641.51964 c -4.91019,0 -9.17188,4.1152 -9.17188,9.02539 l 0,0.73242 c 0,4.91022 4.041,8.42192 8.95117,8.42192 l 62.04688,0 c -10.98308,9.6123 -26.42266,36.9061 -26.42773,62.48426 l 165.28513,0 c -1.9105,-25.72664 -15.3384,-53.37186 -26.3769,-62.48426 l 52.8613,0.045 c -0.1667,20.80721 0.1875,41.60977 0.4746,62.41396 l 39.9297,0.0215 -22.0742,-52.92576 -0.1504,-18.3672 0,-0.73242 -0.045,-0.91016 c -0.4245,-4.17686 -3.7478,-7.28572 -7.9317,-7.68164 -0.2988,-0.0285 -0.6032,-0.0429 -0.9101,-0.0429 l -0.4532,0 z"
         style="color:#000000;clip-rule:nonzero;display:inline;overflow:visible;visibility:visible;opacity:1;isolation:auto;mix-blend-mode:normal;color-interpolation:sRGB;color-interpolation-filters:linearRGB;solid-color:#000000;solid-opacity:1;fill:#99b000;fill-opacity:1;fill-rule:evenodd;stroke:none;stroke-width:50;stroke-linecap:butt;stroke-linejoin:round;stroke-miterlimit:4;stroke-dasharray:none;stroke-dashoffset:0;stroke-opacity:1;color-rendering:auto;image-rendering:auto;shape-rendering:auto;text-rendering:auto;enable-background:accumulate" />
    </g>
  </g>
</svg>
