<?xml version="1.0" encoding="UTF-8" standalone="no"?>
<!-- Created with Inkscape (http://www.inkscape.org/) -->

<svg
   xmlns:dc="http://purl.org/dc/elements/1.1/"
   xmlns:cc="http://creativecommons.org/ns#"
   xmlns:rdf="http://www.w3.org/1999/02/22-rdf-syntax-ns#"
   xmlns:svg="http://www.w3.org/2000/svg"
   xmlns="http://www.w3.org/2000/svg"
   xmlns:xlink="http://www.w3.org/1999/xlink"
   xmlns:sodipodi="http://sodipodi.sourceforge.net/DTD/sodipodi-0.dtd"
   xmlns:inkscape="http://www.inkscape.org/namespaces/inkscape"
   width="210mm"
   height="297mm"
   viewBox="0 0 744.09448819 1052.3622047"
   id="svg2"
   version="1.1"
   inkscape:version="0.91 r13725"
   inkscape:export-xdpi="7.1992788"
   inkscape:export-ydpi="7.1992788"
   sodipodi:docname="document-completed.svg"
   inkscape:export-filename="C:\Users\johannes\Documents\Arbeit\RRZE\github3\bicons\32x32\documents\document-completed.png">
  <defs
     id="defs4">
    <linearGradient
       inkscape:collect="always"
       xlink:href="#linearGradient4321"
       id="linearGradient4201"
       x1="286.38269"
       y1="672.9209"
       x2="532.51678"
       y2="367.74933"
       gradientUnits="userSpaceOnUse"
       gradientTransform="matrix(1.1363532,0,0,1.1363532,-245.58317,-375.43625)" />
    <linearGradient
       id="linearGradient4321"
       inkscape:collect="always">
      <stop
         id="stop4323"
         offset="0"
         style="stop-color:#4e505d;stop-opacity:1;" />
      <stop
         id="stop4325"
         offset="1"
         style="stop-color:#7a8597;stop-opacity:1" />
    </linearGradient>
  </defs>
  <sodipodi:namedview
     id="base"
     pagecolor="#ffffff"
     bordercolor="#666666"
     borderopacity="1.0"
     inkscape:pageopacity="0.0"
     inkscape:pageshadow="2"
     inkscape:zoom="0.7071068"
     inkscape:cx="227.18007"
     inkscape:cy="595.75795"
     inkscape:document-units="px"
     inkscape:current-layer="layer1"
     showgrid="false"
     showguides="true"
     inkscape:guide-bbox="true"
     inkscape:window-width="1366"
     inkscape:window-height="721"
     inkscape:window-x="-4"
     inkscape:window-y="-4"
     inkscape:window-maximized="1"
     inkscape:snap-bbox="true"
     inkscape:bbox-paths="true"
     inkscape:bbox-nodes="true">
    <sodipodi:guide
       position="315.53572,730.17859"
       orientation="0,1"
       id="guide3338" />
    <sodipodi:guide
       position="351.25,330.17858"
       orientation="0,1"
       id="guide3340" />
    <sodipodi:guide
       position="189.10714,408.8393"
       orientation="1,0"
       id="guide3344" />
    <inkscape:grid
       type="xygrid"
       id="grid3440" />
    <sodipodi:guide
       position="0,0"
       orientation="0,1"
       id="guide3405" />
    <sodipodi:guide
       position="214.125,684.50002"
       orientation="1,0"
       id="guide3407" />
    <sodipodi:guide
       position="0,0"
       orientation="0,1"
       id="guide3409" />
    <sodipodi:guide
       position="589.04521,378.30213"
       orientation="1,0"
       id="guide3411" />
    <sodipodi:guide
       position="564.00001,683.37502"
       orientation="1,0"
       id="guide3413" />
  </sodipodi:namedview>
  <metadata
     id="metadata7">
    <rdf:RDF>
      <cc:Work
         rdf:about="">
        <dc:format>image/svg+xml</dc:format>
        <dc:type
           rdf:resource="http://purl.org/dc/dcmitype/StillImage" />
        <dc:title>document completed</dc:title>
        <dc:date>June 2015</dc:date>
        <dc:creator>
          <cc:Agent>
            <dc:title>Johannes Hechler</dc:title>
          </cc:Agent>
        </dc:creator>
        <dc:rights>
          <cc:Agent>
            <dc:title>Johannes Hechler</dc:title>
          </cc:Agent>
        </dc:rights>
        <dc:publisher>
          <cc:Agent>
            <dc:title>RRZE</dc:title>
          </cc:Agent>
        </dc:publisher>
        <dc:contributor>
          <cc:Agent>
            <dc:title>Ute Weber, Hendrik Eggers, Joanna Barbach</dc:title>
          </cc:Agent>
        </dc:contributor>
        <dc:subject>
          <rdf:Bag>
            <rdf:li>action undo</rdf:li>
            <rdf:li>cancel</rdf:li>
            <rdf:li>rewrite</rdf:li>
            <rdf:li>change</rdf:li>
          </rdf:Bag>
        </dc:subject>
        <cc:license
           rdf:resource="http://creativecommons.org/licenses/by-sa/3.0/" />
      </cc:Work>
      <cc:License
         rdf:about="http://creativecommons.org/licenses/by-sa/3.0/">
        <cc:permits
           rdf:resource="http://creativecommons.org/ns#Reproduction" />
        <cc:permits
           rdf:resource="http://creativecommons.org/ns#Distribution" />
        <cc:requires
           rdf:resource="http://creativecommons.org/ns#Notice" />
        <cc:requires
           rdf:resource="http://creativecommons.org/ns#Attribution" />
        <cc:permits
           rdf:resource="http://creativecommons.org/ns#DerivativeWorks" />
        <cc:requires
           rdf:resource="http://creativecommons.org/ns#ShareAlike" />
      </cc:License>
    </rdf:RDF>
  </metadata>
  <g
     inkscape:label="Ebene 1"
     inkscape:groupmode="layer"
     id="layer1">
    <g
       transform="translate(189.10714,-330.17849)"
       id="g4228">
      <rect
         inkscape:export-ydpi="3.5999999"
         inkscape:export-xdpi="3.5999999"
         y="652.36212"
         x="4.8791503e-007"
         height="400"
         width="400"
         id="rect3336"
         style="fill:none;fill-rule:evenodd;stroke:none;stroke-width:1px;stroke-linecap:butt;stroke-linejoin:miter;stroke-opacity:1" />
      <rect
         inkscape:export-ydpi="3.46731"
         inkscape:export-xdpi="3.46731"
         y="652.41412"
         x="0.040070068"
         height="400"
         width="400"
         id="rect3336-0"
         style="fill:none;fill-rule:evenodd;stroke:none;stroke-width:1px;stroke-linecap:butt;stroke-linejoin:miter;stroke-opacity:1" />
      <path
         inkscape:connector-curvature="0"
         id="path4244"
         transform="translate(0,652.36214)"
         d="M 256.39453,0.0234375 61.257812,0.04296875 C 49.868702,0.02386875 44.186375,5.65428 44.234375,16.875 c -0.03289,63.942719 -0.03582,156.09484 -0.0293,246.01758 4.496193,-10.55572 14.994848,-17.70899 27.136719,-17.70899 l 285.417976,-0.002 0.002,-145.08008 c -5.1936,0.47604 -20.79145,1.82483 -38.26953,2.47656 -10.61175,0.39566 -21.67511,0.54542 -31.78321,-0.0683 -5.05405,-0.30687 -9.84436,-0.77477 -14.74023,-1.7461 -4.89588,-0.971328 -6.72004,-0.57784 -13.7207,-6.60742 -6.19763,-5.33794 -7.3876,-13.419675 -7.72266,-22.328125 -0.33507,-8.90845 0.65027,-17.332832 1.75195,-25.951172 2.20336,-17.23667 4.84052,-35.661047 4.24219,-44.0859374 l -0.125,-1.7675781 z m 35.65625,50.9062505 c -0.0523,0.395099 -0.12783,0.896529 -0.17773,1.287109 -0.48825,3.81953 -0.85419,7.377576 -1.0918,10.410156 3.96859,0.21169 8.5956,0.275681 13.56641,0.238281 -2.04702,-2.04541 -3.98331,-4.042694 -6.06446,-6.083984 -2.2399,-2.19699 -4.00316,-3.706523 -6.23242,-5.851562 z m -1.55859,19.027343 c 0.0686,1.71999 0.6109,1.45369 0,0 z m -28.54297,211.224609 -85.94141,0.002 a 18.0018,18.0018 0 0 1 -5.49414,18.2793 c -4.68636,4.10149 -8.65285,8.84668 -12.10547,13.92188 l 121.11719,0 c -3.44645,-5.07925 -7.40663,-9.83058 -12.08789,-13.9375 a 18.0018,18.0018 0 0 1 -5.48828,-18.26563 z m -217.742189,5.06055 c 0.0035,32.85278 0.0021,67.8783 0.0098,96.70117 -0.0303,11.3419 5.685576,17.09623 16.978515,17.01953 l 276.818354,0.0703 a 18.0018,18.0018 0 0 1 -0.004,-0.0801 l -0.59375,-78.80273 a 18.0018,18.0018 0 0 1 0,-0.13672 l 0,-17.05469 -21.49219,-0.0156 c 3.7754,7.26115 6.74379,14.95623 8.80078,22.96094 a 18.0018,18.0018 0 0 1 -17.43359,22.48047 l -176.67774,0 a 18.0018,18.0018 0 0 1 -17.42969,-22.49415 c 2.06551,-8.01042 5.04373,-15.71071 8.83008,-22.9746 l -50.949213,0 c -11.168073,0 -22.185735,-7.20535 -26.857422,-17.67383 z"
         style="fill:url(#linearGradient4201);fill-opacity:1;fill-rule:evenodd;stroke:none;stroke-width:1px;stroke-linecap:butt;stroke-linejoin:miter;stroke-opacity:1" />
      <path
         style="fill:#99b000;fill-opacity:1;fill-rule:evenodd;stroke:none;stroke-width:1px;stroke-linecap:butt;stroke-linejoin:miter;stroke-opacity:1"
         d="m 271.45658,652.38253 c 4.54635,-1.18483 85.25811,76.62516 85.25811,84.98046 0,0 -75.44211,7.35253 -86.90512,-1.29887 -11.46301,-8.65141 3.62243,-55.86651 1.64701,-83.68159 z"
         id="path4288"
         inkscape:connector-curvature="0"
         sodipodi:nodetypes="cczc"
         inkscape:export-xdpi="3.46731"
         inkscape:export-ydpi="3.46731" />
      <path
         sodipodi:nodetypes="ssssssssssssss"
         id="rect4232"
         d="m 81.809321,797.80161 c -5.03585,0 -9.089838,4.05398 -9.089838,9.08984 0,5.03586 4.053988,9.08984 9.089838,9.08984 l 218.160159,0 c 5.03586,0 9.08984,-4.05398 9.08984,-9.08984 0,-5.03586 -4.05398,-9.08984 -9.08984,-9.08984 z m 0,54.54101 c -5.03585,0 -9.089838,4.05399 -9.089838,9.08985 0,5.03585 4.053988,9.08984 9.089838,9.08984 l 127.259769,0 c 5.03585,0 9.0918,-4.05399 9.0918,-9.08984 0,-5.03586 -4.05595,-9.08985 -9.0918,-9.08985 z"
         style="color:#000000;clip-rule:nonzero;display:inline;overflow:visible;visibility:visible;opacity:1;isolation:auto;mix-blend-mode:normal;color-interpolation:sRGB;color-interpolation-filters:linearRGB;solid-color:#000000;solid-opacity:1;fill:#ffffff;fill-opacity:1;fill-rule:evenodd;stroke:none;stroke-width:50;stroke-linecap:butt;stroke-linejoin:miter;stroke-miterlimit:4;stroke-dasharray:none;stroke-dashoffset:0;stroke-opacity:1;color-rendering:auto;image-rendering:auto;shape-rendering:auto;text-rendering:auto;enable-background:accumulate"
         inkscape:connector-curvature="0" />
      <path
         inkscape:export-ydpi="4.9499998"
         inkscape:export-xdpi="4.9499998"
         inkscape:export-filename="C:\Users\johannes\Desktop\g4232.png"
         sodipodi:nodetypes="sssscccccccccccccscs"
         inkscape:connector-curvature="0"
         id="rect4211"
         d="m 71.34121,915.54444 c -6.14021,0 -11.46947,5.1461 -11.46947,11.2863 l 0,0.9159 c 0,6.1402 5.05328,10.5316 11.19347,10.5316 l 87.5939,0 c -13.73439,12.0203 -23.50655,27.8627 -28.04597,45.4675 l 176.67763,0 c -4.52196,-17.5971 -14.27146,-33.4387 -27.98246,-45.4675 l 76.10733,0.056 0,35.041 0.5935,78.80366 43.99233,0.1832 -21.664,-102.13586 -0.18807,-22.9683 0,-0.9159 -0.0562,-1.1381 c -0.53087,-5.2232 -4.68656,-9.1109 -9.91854,-9.606 -0.37374,-0.036 -0.75441,-0.054 -1.13817,-0.054 l -0.56664,0 z"
         style="color:#000000;clip-rule:nonzero;display:inline;overflow:visible;visibility:visible;opacity:1;isolation:auto;mix-blend-mode:normal;color-interpolation:sRGB;color-interpolation-filters:linearRGB;solid-color:#000000;solid-opacity:1;fill:#99b000;fill-opacity:1;fill-rule:evenodd;stroke:none;stroke-width:50;stroke-linecap:butt;stroke-linejoin:round;stroke-miterlimit:4;stroke-dasharray:none;stroke-dashoffset:0;stroke-opacity:1;color-rendering:auto;image-rendering:auto;shape-rendering:auto;text-rendering:auto;enable-background:accumulate" />
    </g>
  </g>
</svg>
