<?xml version="1.0" encoding="UTF-8" standalone="no"?>
<!-- Created with Inkscape (http://www.inkscape.org/) -->

<svg
   xmlns:dc="http://purl.org/dc/elements/1.1/"
   xmlns:cc="http://creativecommons.org/ns#"
   xmlns:rdf="http://www.w3.org/1999/02/22-rdf-syntax-ns#"
   xmlns:svg="http://www.w3.org/2000/svg"
   xmlns="http://www.w3.org/2000/svg"
   xmlns:xlink="http://www.w3.org/1999/xlink"
   xmlns:sodipodi="http://sodipodi.sourceforge.net/DTD/sodipodi-0.dtd"
   xmlns:inkscape="http://www.inkscape.org/namespaces/inkscape"
   width="210mm"
   height="297mm"
   viewBox="0 0 744.09448819 1052.3622047"
   id="svg2"
   version="1.1"
   inkscape:version="0.91 r13725"
   inkscape:export-xdpi="4.9584546"
   inkscape:export-ydpi="4.9584546"
   sodipodi:docname="document-denied.svg"
   inkscape:export-filename="C:\Users\johannes\Documents\Arbeit\RRZE\github3\bicons\22x22\documents\document-denied.png">
  <defs
     id="defs4">
    <linearGradient
       id="linearGradient2224">
      <stop
         id="stop2226"
         offset="0"
         style="stop-color:#7c7c7c;stop-opacity:1;" />
      <stop
         id="stop2228"
         offset="1"
         style="stop-color:#b8b8b8;stop-opacity:1;" />
    </linearGradient>
    <linearGradient
       id="linearGradient15218">
      <stop
         id="stop15220"
         offset="0"
         style="stop-color:#eeeeef;stop-opacity:1;" />
      <stop
         id="stop2736"
         offset="0.59928656"
         style="stop-color:#d3d7cf;stop-opacity:1;" />
      <stop
         id="stop2738"
         offset="0.82758623"
         style="stop-color:#ffffff;stop-opacity:1;" />
      <stop
         id="stop15222"
         offset="1"
         style="stop-color:#d3d7cf;stop-opacity:1;" />
    </linearGradient>
    <pattern
       y="0"
       x="0"
       height="6"
       width="6"
       patternUnits="userSpaceOnUse"
       id="EMFhbasepattern" />
    <linearGradient
       inkscape:collect="always"
       xlink:href="#linearGradient4195"
       id="linearGradient4201"
       x1="286.38269"
       y1="672.9209"
       x2="532.51678"
       y2="367.74933"
       gradientUnits="userSpaceOnUse"
       gradientTransform="matrix(1.1363532,0,0,1.1363532,-56.429317,-53.287766)" />
    <linearGradient
       inkscape:collect="always"
       id="linearGradient4195">
      <stop
         style="stop-color:#4e505d;stop-opacity:1"
         offset="0"
         id="stop4197" />
      <stop
         style="stop-color:#7a8597;stop-opacity:1"
         offset="1"
         id="stop4199" />
    </linearGradient>
  </defs>
  <sodipodi:namedview
     id="base"
     pagecolor="#ffffff"
     bordercolor="#666666"
     borderopacity="1.0"
     inkscape:pageopacity="0.0"
     inkscape:pageshadow="2"
     inkscape:zoom="0.70710678"
     inkscape:cx="610.72357"
     inkscape:cy="548.17919"
     inkscape:document-units="px"
     inkscape:current-layer="layer1"
     showgrid="false"
     showguides="true"
     inkscape:guide-bbox="true"
     inkscape:window-width="1366"
     inkscape:window-height="721"
     inkscape:window-x="-4"
     inkscape:window-y="-4"
     inkscape:window-maximized="1">
    <sodipodi:guide
       position="315.53572,730.17859"
       orientation="0,1"
       id="guide3338" />
    <sodipodi:guide
       position="351.25,330.17858"
       orientation="0,1"
       id="guide3340" />
    <sodipodi:guide
       position="189.10714,408.8393"
       orientation="1,0"
       id="guide3344" />
    <sodipodi:guide
       position="589.04521,468.07945"
       orientation="1,0"
       id="guide3346" />
    <inkscape:grid
       type="xygrid"
       id="grid3440" />
    <sodipodi:guide
       position="589.04521,378.30213"
       orientation="1,0"
       id="guide3411" />
  </sodipodi:namedview>
  <metadata
     id="metadata7">
    <rdf:RDF>
      <cc:Work
         rdf:about="">
        <dc:format>image/svg+xml</dc:format>
        <dc:type
           rdf:resource="http://purl.org/dc/dcmitype/StillImage" />
        <dc:title>document denied</dc:title>
        <dc:date>June 2015</dc:date>
        <dc:creator>
          <cc:Agent>
            <dc:title>Johannes Hechler</dc:title>
          </cc:Agent>
        </dc:creator>
        <dc:rights>
          <cc:Agent>
            <dc:title>Johannes Hechler</dc:title>
          </cc:Agent>
        </dc:rights>
        <dc:publisher>
          <cc:Agent>
            <dc:title>RRZE</dc:title>
          </cc:Agent>
        </dc:publisher>
        <dc:contributor>
          <cc:Agent>
            <dc:title>Ute Weber, Hendrik Eggers</dc:title>
          </cc:Agent>
        </dc:contributor>
      </cc:Work>
    </rdf:RDF>
  </metadata>
  <g
     inkscape:label="Ebene 1"
     inkscape:groupmode="layer"
     id="layer1">
    <rect
       style="fill:none;fill-rule:evenodd;stroke:none;stroke-width:1px;stroke-linecap:butt;stroke-linejoin:miter;stroke-opacity:1"
       id="rect3336"
       width="400"
       height="400"
       x="188.88869"
       y="322.00613"
       inkscape:export-xdpi="3.5999999"
       inkscape:export-ydpi="3.5999999" />
    <rect
       style="fill:none;fill-rule:evenodd;stroke:none;stroke-width:1px;stroke-linecap:butt;stroke-linejoin:miter;stroke-opacity:1"
       id="rect3336-0"
       width="400"
       height="400"
       x="188.92876"
       y="322.05814"
       inkscape:export-xdpi="3.46731"
       inkscape:export-ydpi="3.46731" />
    <g
       transform="translate(-0.2651533,-0.14241328)"
       id="g4191">
      <path
         sodipodi:nodetypes="ccccccccsssssscccccccsccc"
         id="path4244"
         d="m 445.54883,322.17176 -195.13672,0.0195 c -11.38911,-0.0191 -17.07144,5.61131 -17.02344,16.83203 -0.048,93.32377 -0.048,252.41136 -0.0176,366.06836 -0.0303,11.34185 5.68558,17.09626 16.97852,17.01953 l 278.38281,0.0703 c 11.42287,-0.0653 17.10688,-5.74774 17.18164,-17.20703 l 0.002,-282.72461 c -5.1936,0.47604 -20.79146,1.82484 -38.26954,2.47657 -10.61175,0.39565 -21.6751,0.54537 -31.7832,-0.0684 -5.05405,-0.30687 -9.84436,-0.77477 -14.74023,-1.7461 -4.89588,-0.97133 -6.72005,-0.57784 -13.72071,-6.60742 -6.19763,-5.33794 -7.38759,-13.41967 -7.72265,-22.32812 -0.33507,-8.90845 0.65027,-17.33284 1.75195,-25.95118 2.20336,-17.23667 4.84052,-35.66104 4.24219,-44.08593 l -0.125,-1.76758 z m 35.65625,50.90625 c -0.0523,0.3951 -0.12784,0.89653 -0.17774,1.28711 -0.48825,3.81953 -0.85418,7.37757 -1.09179,10.41015 3.96859,0.21169 8.59559,0.27569 13.5664,0.23829 -2.04702,-2.04541 -3.9833,-4.0427 -6.06445,-6.08399 -2.2399,-2.19699 -4.00316,-3.70652 -6.23242,-5.85156 z m -1.5586,19.02734 c 0.0686,1.71999 0.6109,1.45369 0,0 z"
         style="fill:url(#linearGradient4201);fill-opacity:1;fill-rule:evenodd;stroke:none;stroke-width:1px;stroke-linecap:butt;stroke-linejoin:miter;stroke-opacity:1"
         inkscape:connector-curvature="0" />
      <path
         style="fill:#99b000;fill-opacity:1;fill-rule:evenodd;stroke:none;stroke-width:1px;stroke-linecap:butt;stroke-linejoin:miter;stroke-opacity:1"
         d="m 460.61043,322.16886 c 4.54635,-1.18483 85.25811,76.62516 85.25811,84.98046 0,0 -75.44211,7.35253 -86.90512,-1.29887 -11.46301,-8.65141 3.62243,-55.86651 1.64701,-83.68159 z"
         id="path4288"
         inkscape:connector-curvature="0"
         sodipodi:nodetypes="cczc"
         inkscape:export-xdpi="3.46731"
         inkscape:export-ydpi="3.46731" />
      <rect
         ry="12.5"
         y="472.73065"
         x="264.29016"
         height="25.102289"
         width="248.79578"
         id="rect4227"
         style="color:#252525;clip-rule:nonzero;display:inline;overflow:visible;visibility:visible;opacity:0.98000004;isolation:auto;mix-blend-mode:normal;color-interpolation:sRGB;color-interpolation-filters:linearRGB;solid-color:#252525;solid-opacity:1;fill:#ffffff;fill-opacity:1;fill-rule:nonzero;stroke:none;stroke-width:50;stroke-linecap:square;stroke-linejoin:round;stroke-miterlimit:4;stroke-dasharray:none;stroke-dashoffset:0;stroke-opacity:1;color-rendering:auto;image-rendering:auto;shape-rendering:auto;text-rendering:auto;enable-background:accumulate" />
      <rect
         style="color:#252525;clip-rule:nonzero;display:inline;overflow:visible;visibility:visible;opacity:0.98000004;isolation:auto;mix-blend-mode:normal;color-interpolation:sRGB;color-interpolation-filters:linearRGB;solid-color:#252525;solid-opacity:1;fill:#ffffff;fill-opacity:1;fill-rule:nonzero;stroke:none;stroke-width:50;stroke-linecap:square;stroke-linejoin:round;stroke-miterlimit:4;stroke-dasharray:none;stroke-dashoffset:0;stroke-opacity:1;color-rendering:auto;image-rendering:auto;shape-rendering:auto;text-rendering:auto;enable-background:accumulate"
         id="rect4229"
         width="204.60161"
         height="25.102289"
         x="264.29016"
         y="523.12128"
         ry="12.5" />
      <rect
         ry="12.5"
         y="572.83972"
         x="264.29016"
         height="25.102289"
         width="225.59384"
         id="rect4233"
         style="color:#252525;clip-rule:nonzero;display:inline;overflow:visible;visibility:visible;opacity:0.98000004;isolation:auto;mix-blend-mode:normal;color-interpolation:sRGB;color-interpolation-filters:linearRGB;solid-color:#252525;solid-opacity:1;fill:#ffffff;fill-opacity:1;fill-rule:nonzero;stroke:none;stroke-width:50;stroke-linecap:square;stroke-linejoin:round;stroke-miterlimit:4;stroke-dasharray:none;stroke-dashoffset:0;stroke-opacity:1;color-rendering:auto;image-rendering:auto;shape-rendering:auto;text-rendering:auto;enable-background:accumulate" />
    </g>
    <path
       style="fill:#d9463a;fill-opacity:1;fill-rule:evenodd;stroke:#ffffff;stroke-width:30;stroke-linejoin:round;stroke-miterlimit:4;stroke-dasharray:none;stroke-opacity:1"
       d="m 590.04262,612.81205 c 0,-59.93127 -48.56888,-108.50001 -108.4997,-108.50001 -59.93053,0 -108.5,48.56874 -108.5,108.50001 0,59.93054 48.56947,108.49999 108.5,108.49999 59.93082,0 108.4997,-48.56945 108.4997,-108.49999 z"
       id="path4245"
       inkscape:connector-curvature="0" />
    <path
       inkscape:connector-curvature="0"
       id="path3359"
       d="m 590.04262,612.81205 c 0,-59.93127 -48.56888,-108.50001 -108.4997,-108.50001 -59.93053,0 -108.5,48.56874 -108.5,108.50001 0,59.93054 48.56947,108.49999 108.5,108.49999 59.93082,0 108.4997,-48.56945 108.4997,-108.49999 z"
       style="fill:#d9463a;fill-opacity:1;fill-rule:evenodd;stroke:none;stroke-width:16;stroke-miterlimit:4;stroke-dasharray:none;stroke-opacity:1" />
    <path
       style="opacity:1;fill:#ffffff;fill-opacity:1;stroke:none;stroke-width:0;stroke-linecap:square;stroke-linejoin:round;stroke-miterlimit:4;stroke-dasharray:none;stroke-opacity:1"
       d="m 547.70321,668.31144 c 4.82397,-4.81439 4.82029,-12.56737 -0.002,-17.38174 l -38.11094,-38.03507 38.60744,-38.53058 c 4.47216,-4.46324 4.4685,-11.65064 -0.002,-16.11389 l -11.74435,-11.72018 c -4.47214,-4.46325 -11.67391,-4.46692 -16.14607,-0.002 l -38.60738,38.53062 -38.39934,-38.32291 c -4.82397,-4.81434 -12.58876,-4.81436 -17.41276,0 l -10.62289,10.60177 c -4.82399,4.81436 -4.82396,12.56372 0,17.37808 l 38.39935,38.32288 -38.65489,38.57793 c -4.47215,4.46324 -4.46849,11.65067 0.002,16.11391 l 11.74357,11.91977 c 4.43424,4.50077 11.67389,4.46688 16.14604,0.002 l 38.65501,-38.77738 38.26093,38.53401 c 4.80196,4.83624 12.59244,4.81803 17.41641,0.002 l 10.47294,-11.10068 z"
       id="rect4217"
       inkscape:connector-curvature="0"
       sodipodi:nodetypes="cccscsccsssscscsccsccc" />
  </g>
</svg>
