<?xml version="1.0" encoding="UTF-8" standalone="no"?>
<!-- Created with Inkscape (http://www.inkscape.org/) -->

<svg
   xmlns:dc="http://purl.org/dc/elements/1.1/"
   xmlns:cc="http://creativecommons.org/ns#"
   xmlns:rdf="http://www.w3.org/1999/02/22-rdf-syntax-ns#"
   xmlns:svg="http://www.w3.org/2000/svg"
   xmlns="http://www.w3.org/2000/svg"
   xmlns:xlink="http://www.w3.org/1999/xlink"
   xmlns:sodipodi="http://sodipodi.sourceforge.net/DTD/sodipodi-0.dtd"
   xmlns:inkscape="http://www.inkscape.org/namespaces/inkscape"
   width="210mm"
   height="297mm"
   viewBox="0 0 744.09448819 1052.3622047"
   id="svg2"
   version="1.1"
   inkscape:version="0.91 r13725"
   inkscape:export-xdpi="7.1992784"
   inkscape:export-ydpi="7.1992784"
   sodipodi:docname="entitlement.svg"
   inkscape:export-filename="C:\Users\johannes\Documents\Arbeit\RRZE\github3\bicons\32x32\documents\entitlement.png">
  <defs
     id="defs4">
    <linearGradient
       inkscape:collect="always"
       xlink:href="#linearGradient4321"
       id="linearGradient4201"
       x1="286.38269"
       y1="672.9209"
       x2="532.51678"
       y2="367.74933"
       gradientUnits="userSpaceOnUse"
       gradientTransform="matrix(1.1363532,0,0,1.1363532,-56.57804,-53.252664)" />
    <linearGradient
       id="linearGradient4321"
       inkscape:collect="always">
      <stop
         id="stop4323"
         offset="0"
         style="stop-color:#4e505d;stop-opacity:1;" />
      <stop
         id="stop4325"
         offset="1"
         style="stop-color:#7a8597;stop-opacity:1" />
    </linearGradient>
  </defs>
  <sodipodi:namedview
     id="base"
     pagecolor="#ffffff"
     bordercolor="#666666"
     borderopacity="1.0"
     inkscape:pageopacity="0.0"
     inkscape:pageshadow="2"
     inkscape:zoom="0.70710678"
     inkscape:cx="480.45959"
     inkscape:cy="533.78235"
     inkscape:document-units="px"
     inkscape:current-layer="layer1"
     showgrid="false"
     showguides="true"
     inkscape:guide-bbox="true"
     inkscape:window-width="1366"
     inkscape:window-height="721"
     inkscape:window-x="-4"
     inkscape:window-y="-4"
     inkscape:window-maximized="1"
     inkscape:snap-bbox="true"
     inkscape:bbox-paths="true"
     inkscape:bbox-nodes="true">
    <sodipodi:guide
       position="315.53572,730.17859"
       orientation="0,1"
       id="guide3338" />
    <sodipodi:guide
       position="351.25,330.17858"
       orientation="0,1"
       id="guide3340" />
    <sodipodi:guide
       position="189.10714,408.8393"
       orientation="1,0"
       id="guide3344" />
    <inkscape:grid
       type="xygrid"
       id="grid3440" />
    <sodipodi:guide
       position="0,0"
       orientation="0,1"
       id="guide3405" />
    <sodipodi:guide
       position="214.125,684.50002"
       orientation="1,0"
       id="guide3407" />
    <sodipodi:guide
       position="0,0"
       orientation="0,1"
       id="guide3409" />
    <sodipodi:guide
       position="589.04521,378.30213"
       orientation="1,0"
       id="guide3411" />
    <sodipodi:guide
       position="564.00001,683.37502"
       orientation="1,0"
       id="guide3413" />
  </sodipodi:namedview>
  <metadata
     id="metadata7">
    <rdf:RDF>
      <cc:Work
         rdf:about="">
        <dc:format>image/svg+xml</dc:format>
        <dc:type
           rdf:resource="http://purl.org/dc/dcmitype/StillImage" />
        <dc:title>entitlement</dc:title>
        <dc:date>June 2015</dc:date>
        <dc:creator>
          <cc:Agent>
            <dc:title>Johannes Hechler</dc:title>
          </cc:Agent>
        </dc:creator>
        <dc:rights>
          <cc:Agent>
            <dc:title>Johannes Hechler</dc:title>
          </cc:Agent>
        </dc:rights>
        <dc:publisher>
          <cc:Agent>
            <dc:title>RRZE</dc:title>
          </cc:Agent>
        </dc:publisher>
        <dc:contributor>
          <cc:Agent>
            <dc:title>Ute Weber, Hendrik Eggers, Joanna Barbach</dc:title>
          </cc:Agent>
        </dc:contributor>
        <dc:subject>
          <rdf:Bag>
            <rdf:li>action undo</rdf:li>
            <rdf:li>cancel</rdf:li>
            <rdf:li>rewrite</rdf:li>
            <rdf:li>change</rdf:li>
          </rdf:Bag>
        </dc:subject>
        <cc:license
           rdf:resource="http://creativecommons.org/licenses/by-sa/3.0/" />
      </cc:Work>
      <cc:License
         rdf:about="http://creativecommons.org/licenses/by-sa/3.0/">
        <cc:permits
           rdf:resource="http://creativecommons.org/ns#Reproduction" />
        <cc:permits
           rdf:resource="http://creativecommons.org/ns#Distribution" />
        <cc:requires
           rdf:resource="http://creativecommons.org/ns#Notice" />
        <cc:requires
           rdf:resource="http://creativecommons.org/ns#Attribution" />
        <cc:permits
           rdf:resource="http://creativecommons.org/ns#DerivativeWorks" />
        <cc:requires
           rdf:resource="http://creativecommons.org/ns#ShareAlike" />
      </cc:License>
    </rdf:RDF>
  </metadata>
  <g
     inkscape:label="Ebene 1"
     inkscape:groupmode="layer"
     id="layer1">
    <g
       transform="translate(0.10201158,5.7789296e-6)"
       id="g4233">
      <rect
         inkscape:export-ydpi="3.5999999"
         inkscape:export-xdpi="3.5999999"
         y="322.18362"
         x="189.00513"
         height="400"
         width="400"
         id="rect3336"
         style="fill:none;fill-rule:evenodd;stroke:none;stroke-width:1px;stroke-linecap:butt;stroke-linejoin:miter;stroke-opacity:1" />
      <rect
         inkscape:export-ydpi="3.46731"
         inkscape:export-xdpi="3.46731"
         y="322.23563"
         x="189.0452"
         height="400"
         width="400"
         id="rect3336-0"
         style="fill:none;fill-rule:evenodd;stroke:none;stroke-width:1px;stroke-linecap:butt;stroke-linejoin:miter;stroke-opacity:1" />
      <path
         inkscape:connector-curvature="0"
         id="path4244"
         d="m 445.40039,322.20703 -195.13672,0.0195 c -11.38911,-0.0191 -17.07144,5.61131 -17.02344,16.83203 -0.048,93.32377 -0.048,252.41152 -0.0176,366.06836 -0.0303,11.3419 5.68557,17.09623 16.97851,17.01953 l 229.94922,0.0586 a 18.0018,18.0018 0 0 1 -0.004,-0.084 l 0.41602,-100.49023 a 18.0018,18.0018 0 0 1 3.79883,-10.98242 c -13.801,-13.3393 -22.39635,-31.93222 -22.39649,-52.07227 -10e-4,-39.10574 32.24422,-72.54159 72.54102,-72.54101 3.83401,8e-5 7.59433,0.30715 11.26172,0.88867 l 0,-64.63867 c -5.1936,0.47604 -20.79145,1.82483 -38.26953,2.47656 -10.61175,0.39565 -21.67511,0.54541 -31.78321,-0.0684 -5.05405,-0.30687 -9.84436,-0.77476 -14.74023,-1.74609 -4.89588,-0.97133 -6.72004,-0.57785 -13.7207,-6.60743 -6.19763,-5.33794 -7.3876,-13.41967 -7.72266,-22.32812 -0.33507,-8.90845 0.65027,-17.33283 1.75195,-25.95117 2.20336,-17.23667 4.84052,-35.66105 4.24219,-44.08594 l -0.125,-1.76758 z m 35.65625,50.90625 c -0.0523,0.3951 -0.12783,0.89653 -0.17773,1.28711 -0.48825,3.81953 -0.85419,7.37758 -1.0918,10.41016 3.96859,0.21169 8.5956,0.27568 13.56641,0.23828 -2.04702,-2.04541 -3.98331,-4.0427 -6.06446,-6.08399 -2.2399,-2.19699 -4.00316,-3.70652 -6.23242,-5.85156 z m -1.55859,19.02734 c 0.0686,1.71999 0.6109,1.45369 0,0 z m 55.00781,129.89454 c -19.94858,-2.9e-4 -36.54163,17.64208 -36.54102,36.53906 a 18.0018,18.0018 0 0 0 0,0.002 c 1.3e-4,18.89691 16.59387,36.53935 36.54102,36.53906 3.91721,-3.1e-4 7.70147,-0.69072 11.25976,-1.92773 l 0.002,-69.22656 c -3.5588,-1.23708 -7.34367,-1.9257 -11.26172,-1.92578 z m -18.04883,124.88086 -0.13281,31.98828 6.02148,-5.95313 a 18.0018,18.0018 0 0 1 23.41992,-1.59961 l 0,-23.21679 c -9.93779,1.20524 -19.81298,0.71394 -29.30859,-1.21875 z m 18.36524,64.32812 -11.09571,10.9707 4.85742,0.002 c 5.68479,-0.0324 9.94469,-1.46027 12.80274,-4.29492 l -6.56445,-6.67774 z"
         style="fill:url(#linearGradient4201);fill-opacity:1;fill-rule:evenodd;stroke:none;stroke-width:1px;stroke-linecap:butt;stroke-linejoin:miter;stroke-opacity:1" />
      <path
         style="fill:#99b000;fill-opacity:1;fill-rule:evenodd;stroke:none;stroke-width:1px;stroke-linecap:butt;stroke-linejoin:miter;stroke-opacity:1"
         d="m 460.46171,322.20397 c 4.54635,-1.18483 85.25811,76.62516 85.25811,84.98046 0,0 -75.44211,7.35253 -86.90512,-1.29887 -11.46301,-8.65141 3.62243,-55.86651 1.64701,-83.68159 z"
         id="path4288"
         inkscape:connector-curvature="0"
         sodipodi:nodetypes="cczc"
         inkscape:export-xdpi="3.46731"
         inkscape:export-ydpi="3.46731" />
      <path
         inkscape:connector-curvature="0"
         id="rect4232"
         d="m 270.81445,467.62305 c -5.03585,0 -9.08984,4.05398 -9.08984,9.08984 0,5.03586 4.05399,9.08984 9.08984,9.08984 l 210.10743,0 c 5.28665,-3.92446 11.01272,-7.29106 17.0957,-10.00585 -0.45676,-4.60223 -4.31659,-8.17383 -9.04297,-8.17383 l -218.16016,0 z m 0,109.08007 c -5.03585,0 -9.08984,4.05399 -9.08984,9.08985 0,5.03585 4.05399,9.08984 9.08984,9.08984 l 180.99024,0 c -2.59851,-5.78269 -4.59937,-11.86927 -5.93164,-18.17969 l -175.0586,0 z"
         style="color:#000000;clip-rule:nonzero;display:inline;overflow:visible;visibility:visible;opacity:1;isolation:auto;mix-blend-mode:normal;color-interpolation:sRGB;color-interpolation-filters:linearRGB;solid-color:#000000;solid-opacity:1;fill:#ffffff;fill-opacity:1;fill-rule:evenodd;stroke:none;stroke-width:50;stroke-linecap:butt;stroke-linejoin:miter;stroke-miterlimit:4;stroke-dasharray:none;stroke-dashoffset:0;stroke-opacity:1;color-rendering:auto;image-rendering:auto;shape-rendering:auto;text-rendering:auto;enable-background:accumulate" />
      <rect
         ry="9.0899897"
         y="522.16357"
         x="261.72513"
         height="18.18008"
         width="145.44"
         id="rect4234"
         style="color:#000000;clip-rule:nonzero;display:inline;overflow:visible;visibility:visible;opacity:1;isolation:auto;mix-blend-mode:normal;color-interpolation:sRGB;color-interpolation-filters:linearRGB;solid-color:#000000;solid-opacity:1;fill:#ffffff;fill-opacity:1;fill-rule:evenodd;stroke:none;stroke-width:50;stroke-linecap:butt;stroke-linejoin:miter;stroke-miterlimit:4;stroke-dasharray:none;stroke-dashoffset:0;stroke-opacity:1;color-rendering:auto;image-rendering:auto;shape-rendering:auto;text-rendering:auto;enable-background:accumulate" />
      <path
         sodipodi:nodetypes="scscscccccc"
         id="path4169"
         d="m 534.50622,504.03568 c -30.12269,-4.3e-4 -54.54192,25.53852 -54.54098,54.53988 2e-4,29.00059 24.4181,54.54041 54.53998,54.53998 30.1211,-6.4e-4 54.53978,-25.54015 54.53998,-54.53998 9.4e-4,-29.00061 -24.41707,-54.53924 -54.53898,-54.53988 z m 36.35939,117.25985 c -24.40571,14.10064 -50.7134,11.93968 -72.30247,0.41034 l -0.4175,100.48966 36.85648,-36.4449 35.86349,36.485 z"
         style="opacity:1;fill:#99b000;fill-opacity:1;stroke:none;stroke-width:14.60000038;stroke-linecap:square;stroke-linejoin:round;stroke-miterlimit:4;stroke-dasharray:none;stroke-opacity:1"
         inkscape:connector-curvature="0" />
    </g>
  </g>
</svg>
