<?xml version="1.0" encoding="UTF-8" standalone="no"?>
<!-- Created with Inkscape (http://www.inkscape.org/) -->

<svg
   xmlns:dc="http://purl.org/dc/elements/1.1/"
   xmlns:cc="http://creativecommons.org/ns#"
   xmlns:rdf="http://www.w3.org/1999/02/22-rdf-syntax-ns#"
   xmlns:svg="http://www.w3.org/2000/svg"
   xmlns="http://www.w3.org/2000/svg"
   xmlns:xlink="http://www.w3.org/1999/xlink"
   xmlns:sodipodi="http://sodipodi.sourceforge.net/DTD/sodipodi-0.dtd"
   xmlns:inkscape="http://www.inkscape.org/namespaces/inkscape"
   width="400"
   height="400"
   viewBox="0 0 400 400.00001"
   id="svg4217"
   version="1.1"
   inkscape:version="0.91 r13725"
   sodipodi:docname="banana-pi.svg"
   inkscape:export-filename="C:\Users\johannes\Desktop\22raster#1.png"
   inkscape:export-xdpi="7.1999736"
   inkscape:export-ydpi="7.1999736">
  <title
     id="title4207">banana pi</title>
  <defs
     id="defs4219">
    <linearGradient
       id="linearGradient4321"
       inkscape:collect="always">
      <stop
         id="stop4323"
         offset="0"
         style="stop-color:#4e505d;stop-opacity:1;" />
      <stop
         id="stop4325"
         offset="1"
         style="stop-color:#7a8597;stop-opacity:1" />
    </linearGradient>
    <linearGradient
       inkscape:collect="always"
       xlink:href="#linearGradient4321"
       id="linearGradient4319-9"
       x1="280"
       y1="712.36218"
       x2="500"
       y2="472.36221"
       gradientUnits="userSpaceOnUse"
       gradientTransform="matrix(1.0685568,0,0,1.0477472,-26.445951,-34.107492)" />
    <linearGradient
       inkscape:collect="always"
       xlink:href="#linearGradient4321"
       id="linearGradient4317-3"
       x1="280"
       y1="692.36218"
       x2="500"
       y2="472.36221"
       gradientUnits="userSpaceOnUse"
       gradientTransform="matrix(1.0685568,0,0,1.0477472,-26.445951,-26.329318)" />
    <linearGradient
       inkscape:collect="always"
       xlink:href="#linearGradient4321"
       id="linearGradient4199"
       x1="48.029896"
       y1="1035.3331"
       x2="394.02457"
       y2="648.04449"
       gradientUnits="userSpaceOnUse" />
  </defs>
  <sodipodi:namedview
     id="base"
     pagecolor="#ffffff"
     bordercolor="#666666"
     borderopacity="1.0"
     inkscape:pageopacity="0.0"
     inkscape:pageshadow="2"
     inkscape:zoom="1.3116831"
     inkscape:cx="318.21134"
     inkscape:cy="253.5057"
     inkscape:document-units="px"
     inkscape:current-layer="layer1"
     showgrid="false"
     units="px"
     inkscape:snap-bbox="true"
     inkscape:bbox-paths="false"
     inkscape:bbox-nodes="true"
     inkscape:snap-bbox-edge-midpoints="false"
     inkscape:snap-bbox-midpoints="false"
     showguides="true"
     inkscape:guide-bbox="true"
     inkscape:window-width="1600"
     inkscape:window-height="837"
     inkscape:window-x="-4"
     inkscape:window-y="-4"
     inkscape:window-maximized="1"
     inkscape:object-paths="true"
     inkscape:snap-intersection-paths="true"
     inkscape:object-nodes="true"
     inkscape:snap-smooth-nodes="true"
     inkscape:snap-midpoints="false"
     inkscape:showpageshadow="false"
     inkscape:snap-global="true"
     inkscape:snap-nodes="true">
    <sodipodi:guide
       position="0,411.37501"
       orientation="1,0"
       id="guide4765" />
    <sodipodi:guide
       position="18.18,410.73144"
       orientation="1,0"
       id="guide4769" />
    <sodipodi:guide
       position="36.360001,410.73144"
       orientation="1,0"
       id="guide4771" />
    <sodipodi:guide
       position="54.540001,410.73144"
       orientation="1,0"
       id="guide4773" />
    <sodipodi:guide
       position="72.720001,410.73144"
       orientation="1,0"
       id="guide4775" />
    <sodipodi:guide
       position="90.900002,410.73144"
       orientation="1,0"
       id="guide4777" />
    <sodipodi:guide
       position="109.08,410.73144"
       orientation="1,0"
       id="guide4779" />
    <sodipodi:guide
       position="127.26,410.73144"
       orientation="1,0"
       id="guide4781"
       inkscape:label=""
       inkscape:color="rgb(0,0,255)" />
    <sodipodi:guide
       position="145.44,410.73144"
       orientation="1,0"
       id="guide4783" />
    <sodipodi:guide
       position="163.62,410.73144"
       orientation="1,0"
       id="guide4785" />
    <sodipodi:guide
       position="181.8,410.73144"
       orientation="1,0"
       id="guide4787" />
    <sodipodi:guide
       position="199.98,410.73144"
       orientation="1,0"
       id="guide4789"
       inkscape:label=""
       inkscape:color="rgb(0,255,54)" />
    <sodipodi:guide
       position="218.16,410.73144"
       orientation="1,0"
       id="guide4791" />
    <sodipodi:guide
       position="254.52,410.73144"
       orientation="1,0"
       id="guide4795" />
    <sodipodi:guide
       position="272.7,410.73144"
       orientation="1,0"
       id="guide4797" />
    <sodipodi:guide
       position="290.88001,410.73144"
       orientation="1,0"
       id="guide4799" />
    <sodipodi:guide
       position="309.06001,410.73144"
       orientation="1,0"
       id="guide4801" />
    <sodipodi:guide
       position="345.41999,410.73144"
       orientation="1,0"
       id="guide4805" />
    <sodipodi:guide
       position="363.59998,410.73144"
       orientation="1,0"
       id="guide4807" />
    <sodipodi:guide
       position="381.77998,410.73144"
       orientation="1,0"
       id="guide4809" />
    <sodipodi:guide
       position="400.00147,254.93962"
       orientation="1,0"
       id="guide4811" />
    <sodipodi:guide
       position="413.875,400.00001"
       orientation="0,1"
       id="guide4813" />
    <sodipodi:guide
       position="409.04996,381.82003"
       orientation="0,1"
       id="guide4815" />
    <sodipodi:guide
       position="409.04996,363.64003"
       orientation="0,1"
       id="guide4817" />
    <sodipodi:guide
       position="405.75,345.46004"
       orientation="0,1"
       id="guide4819" />
    <sodipodi:guide
       position="411.625,327.28005"
       orientation="0,1"
       id="guide4821" />
    <sodipodi:guide
       position="409.04996,309.10006"
       orientation="0,1"
       id="guide4823" />
    <sodipodi:guide
       position="411,290.92006"
       orientation="0,1"
       id="guide4825" />
    <sodipodi:guide
       position="411,272.74007"
       orientation="0,1"
       id="guide4827" />
    <sodipodi:guide
       position="409.04996,254.56008"
       orientation="0,1"
       id="guide4829" />
    <sodipodi:guide
       position="405.52575,236.38008"
       orientation="0,1"
       id="guide4831" />
    <sodipodi:guide
       position="412.125,218.20009"
       orientation="0,1"
       id="guide4833" />
    <sodipodi:guide
       position="409.04996,200.02001"
       orientation="0,1"
       id="guide4835"
       inkscape:label=""
       inkscape:color="rgb(0,255,92)" />
    <sodipodi:guide
       position="409.04996,181.8401"
       orientation="0,1"
       id="guide4837" />
    <sodipodi:guide
       position="411.75,163.66011"
       orientation="0,1"
       id="guide4839" />
    <sodipodi:guide
       position="409.04996,145.48012"
       orientation="0,1"
       id="guide4841" />
    <sodipodi:guide
       position="409.04996,127.30012"
       orientation="0,1"
       id="guide4843" />
    <sodipodi:guide
       position="409.04996,109.12013"
       orientation="0,1"
       id="guide4845" />
    <sodipodi:guide
       position="409.04996,72.760144"
       orientation="0,1"
       id="guide4849" />
    <sodipodi:guide
       position="409.04996,54.580151"
       orientation="0,1"
       id="guide4851" />
    <sodipodi:guide
       position="409.04996,36.400158"
       orientation="0,1"
       id="guide4853" />
    <sodipodi:guide
       position="409.04996,18.220165"
       orientation="0,1"
       id="guide4855" />
    <sodipodi:guide
       position="406.32813,0"
       orientation="0,1"
       id="guide4536" />
    <sodipodi:guide
       position="327.23999,414.8949"
       orientation="1,0"
       id="guide4256" />
    <sodipodi:guide
       position="236.34,428.00001"
       orientation="1,0"
       id="guide4253" />
    <sodipodi:guide
       position="419.4288,90.943193"
       orientation="0,1"
       id="guide4339" />
  </sodipodi:namedview>
  <metadata
     id="metadata4222">
    <rdf:RDF>
      <cc:Work
         rdf:about="">
        <dc:format>image/svg+xml</dc:format>
        <dc:type
           rdf:resource="http://purl.org/dc/dcmitype/StillImage" />
        <dc:title>banana pi</dc:title>
        <dc:creator>
          <cc:Agent>
            <dc:title>Johannes Hechler</dc:title>
          </cc:Agent>
        </dc:creator>
        <dc:rights>
          <cc:Agent>
            <dc:title>Johannes Hechler</dc:title>
          </cc:Agent>
        </dc:rights>
        <dc:publisher>
          <cc:Agent>
            <dc:title>RRZE</dc:title>
          </cc:Agent>
        </dc:publisher>
        <dc:contributor>
          <cc:Agent>
            <dc:title>Ute Weber,
Hendrik Eggers</dc:title>
          </cc:Agent>
        </dc:contributor>
        <cc:license
           rdf:resource="http://creativecommons.org/licenses/by-nc/3.0/" />
        <dc:date>Jan 2016</dc:date>
        <dc:source>http://www.bananapi.org</dc:source>
        <dc:description>banana pi, logo</dc:description>
      </cc:Work>
      <cc:License
         rdf:about="http://creativecommons.org/licenses/by-nc/3.0/">
        <cc:permits
           rdf:resource="http://creativecommons.org/ns#Reproduction" />
        <cc:permits
           rdf:resource="http://creativecommons.org/ns#Distribution" />
        <cc:requires
           rdf:resource="http://creativecommons.org/ns#Notice" />
        <cc:requires
           rdf:resource="http://creativecommons.org/ns#Attribution" />
        <cc:prohibits
           rdf:resource="http://creativecommons.org/ns#CommercialUse" />
        <cc:permits
           rdf:resource="http://creativecommons.org/ns#DerivativeWorks" />
      </cc:License>
    </rdf:RDF>
  </metadata>
  <g
     inkscape:label="Ebene 1"
     inkscape:groupmode="layer"
     id="layer1"
     transform="translate(0,-652.36214)">
    <path
       style="fill:url(#linearGradient4199);fill-opacity:1"
       d="M 54.539062,652.36214 C 27.550023,662.49909 10.472455,681.68389 0,706.9012 l 0,145.72266 0,145.19922 c 10.47246,25.21732 27.550023,44.40212 54.539062,54.53902 l 144.445318,0 146.47656,0 c 26.85913,-10.0881 44.05511,-29.542 54.54053,-54.58011 L 399.4375,854.81917 400.00147,706.90211 C 389.52788,681.70038 372.4387,662.49485 345.46094,652.36214 l -146.06055,0 z m 293.082028,48.75 c 5.56855,0 15.56058,23.43903 16.8418,39.50781 0.9952,12.48157 0.38139,15.33595 -4.39844,20.42383 -6.55002,6.97217 -24.71498,15.11555 -38.86523,17.42383 -15.93883,2.60002 -18.35699,5.02627 -11.87891,11.92187 18.45725,19.64685 16.74673,53.323 -4.65429,91.58204 -4.11018,7.34784 -9.63811,20.36581 -12.28321,28.92968 -12.32245,39.89543 -48.03809,76.09758 -88.93164,90.1426 -40.86476,14.0352 -92.14184,7.8675 -121.636717,-14.62893 C 76.026503,982.00012 67.2228,972.81431 62.25,966.00081 52.827199,953.08956 50.716347,950.85358 32.966797,934.97933 22.783722,925.87208 22.284425,924.8009 23.984375,915.72347 c 2.566175,-13.70292 8.051478,-25.83961 12.439453,-27.52344 2.071675,-0.79497 12.44325,2.4949 23.046875,7.3125 41.575377,18.88918 79.063987,19.07728 115.566407,0.58008 14.80785,-7.5037 44.14394,-34.50809 58.36914,-53.73047 11.9973,-16.21185 35.00014,-61.50977 32.93359,-64.85352 -0.78982,-1.27795 -7.64096,-5.16479 -15.22461,-8.63671 -11.01605,-5.0433 -14.56978,-8.18583 -17.67968,-15.62891 -5.2432,-12.54872 -7.43136,-34.66147 -3.66016,-36.99219 1.59735,-0.9872 8.7409,1.95281 15.875,6.5332 11.68187,7.5003 15.11402,8.41348 34.52734,9.1875 17.95218,0.71576 23.70038,-0.0641 34.38868,-4.6621 7.05858,-3.0365 14.46189,-4.89617 16.45117,-4.13282 4.63102,1.7771 7.95233,-2.32055 10.79101,-13.31445 1.24895,-4.83702 3.8479,-8.75 5.8125,-8.75 z m 2.13282,35.26562 c -1.73456,-0.24152 -4.84899,2.32172 -11.72071,8.92579 -6.48123,6.2288 -14.5957,13.27675 -18.0332,15.66015 l -6.25,4.33203 8.75,-1.75195 c 21.59495,-4.32372 33.14853,-14.37147 28.98828,-25.21289 -0.44254,-1.15325 -0.94594,-1.84334 -1.73437,-1.95313 z m -25.03907,1.60743 c -0.57575,-0.0749 -2.05707,0.45427 -4.58398,1.80664 -2.67768,1.43305 -10.83393,4.21148 -18.125,6.17383 l -13.25586,3.5664 10,0.15625 c 5.81242,0.0902 13.4024,-1.91943 18.125,-4.79883 5.99275,-3.6539 9.10649,-6.73941 7.83984,-6.90429 z m -77.25781,3.25586 c -4.32751,0.0879 -2.60961,5.63739 4.13086,10.93945 3.62292,2.8498 8.15597,5.18164 10.07422,5.18164 4.93132,0 -5.82855,-14.19839 -11.97852,-15.80664 -0.86793,-0.22697 -1.60834,-0.32701 -2.22656,-0.31445 z m 48.08985,23.64843 c -5.6472,-0.0191 -8.62593,1.33594 -9.55665,4.34766 -5.5339,17.90688 -23.23422,54.25917 -35.10937,72.10547 -26.6252,40.013 -61.22754,67.66676 -98.31836,78.57226 -15.02535,4.41853 -23.20891,5.29733 -41.75391,4.48633 -17.828024,-0.78 -22.497593,-0.32423 -20.560543,2.00977 3.823025,4.6065 23.470583,13.23181 39.312503,17.25781 18.10193,4.6 63.96201,3.22956 82.37304,-2.46094 10.62093,-3.28275 14.8878,-6.36118 21.94922,-15.83593 20.22928,-27.14245 43.38003,-85.13919 43.61328,-109.25977 0.30725,-31.77637 14.48895,-21.13642 20.82618,15.625 1.48145,8.59375 3.45918,15.625 4.39453,15.625 4.9806,0 6.46291,-29.62766 1.91601,-38.28906 -1.57665,-3.00337 -6.07665,-9.15723 -10,-13.67383 -9.23067,-10.62642 -9.00044,-16.20273 0.99219,-24.07813 l 8.125,-6.40429 -8.20312,-0.0273 z m -10.76368,91.22266 -8.22265,20 c -4.52265,11 -10.09998,23.59952 -12.39258,28 -2.29263,4.40047 -4.16797,8.79477 -4.16797,9.76367 0,2.93205 10.27806,-7.14407 17.86523,-17.51367 6.04568,-8.2627 7.11739,-12.07653 7.02539,-25 z M 44.539062,907.08089 c -1.215987,-0.14319 -2.808478,2.06227 -4.77539,6.61523 -2.060175,4.76885 -1.962319,7.26569 0.394531,10.10547 4.4632,5.378 7.861063,0.82346 6.898438,-9.24609 -0.462588,-4.83905 -1.301591,-7.33142 -2.517579,-7.47461 z m 19.560547,20.72266 C 62.586334,927.62727 62.5,929.23705 62.5,932.47542 c 0,10.72575 24.159927,26.52825 53.75,35.15625 19.65238,5.73025 44.56842,5.89072 60.17969,0.38672 l 12.32031,-4.34375 -26.73438,-1.6875 c -37.50786,-2.368 -61.13178,-9.94412 -87.751948,-28.14062 -5.710875,-3.90376 -8.650788,-5.86669 -10.164063,-6.04297 z m 202.199221,3.02148 c -4.51273,0.38671 -29.27394,15.6993 -45.04883,28.05859 -30.06418,23.55425 -56.61521,31.23421 -90.85938,26.28321 -11.66424,-1.6865 -23.3706,-4.22417 -26.01367,-5.63867 -2.6431,-1.41375 -5.376691,-2.00024 -6.074216,-1.30274 -1.971525,1.9715 12.707806,8.83827 27.273436,12.75977 26.03035,7.008 63.51883,3.20272 87.62695,-8.89453 17.3029,-8.6825 35.50708,-23.55222 45.50196,-37.16797 5.1664,-7.038 8.86515,-13.32421 8.21875,-13.97071 -0.1122,-0.11218 -0.32415,-0.15273 -0.625,-0.12695 z"
       id="path4271"
       inkscape:connector-curvature="0"
       sodipodi:nodetypes="cccccccccccccssssssssccsssssssssssssssscsccssccscccscssssscssccscsssssssccccccsssccsscssssssccssssscsssscs" />
  </g>
</svg>
