<?xml version="1.0" encoding="UTF-8" standalone="no"?>
<!-- Created with Inkscape (http://www.inkscape.org/) -->

<svg
   xmlns:dc="http://purl.org/dc/elements/1.1/"
   xmlns:cc="http://creativecommons.org/ns#"
   xmlns:rdf="http://www.w3.org/1999/02/22-rdf-syntax-ns#"
   xmlns:svg="http://www.w3.org/2000/svg"
   xmlns="http://www.w3.org/2000/svg"
   xmlns:xlink="http://www.w3.org/1999/xlink"
   xmlns:sodipodi="http://sodipodi.sourceforge.net/DTD/sodipodi-0.dtd"
   xmlns:inkscape="http://www.inkscape.org/namespaces/inkscape"
   width="210mm"
   height="297mm"
   viewBox="0 0 744.09448819 1052.3622047"
   id="svg2"
   version="1.1"
   inkscape:version="0.91 r13725"
   inkscape:export-xdpi="7.1999736"
   inkscape:export-ydpi="7.1999736"
   sodipodi:docname="database-mysql.svg"
   inkscape:export-filename="C:\Users\johannes\Documents\Arbeit\RRZE\github3\bicons\32x32\logos\database-mysql.png">
  <defs
     id="defs4">
    <linearGradient
       gradientTransform="translate(190.00001,322.36222)"
       inkscape:collect="always"
       xlink:href="#linearGradient4269"
       id="linearGradient4275"
       x1="36.360001"
       y1="400"
       x2="381.82147"
       y2="0"
       gradientUnits="userSpaceOnUse" />
    <linearGradient
       inkscape:collect="always"
       id="linearGradient4269">
      <stop
         style="stop-color:#4e505d;stop-opacity:1;"
         offset="0"
         id="stop4271" />
      <stop
         style="stop-color:#7a859c;stop-opacity:1"
         offset="1"
         id="stop4273" />
    </linearGradient>
  </defs>
  <sodipodi:namedview
     id="base"
     pagecolor="#ffffff"
     bordercolor="#666666"
     borderopacity="1.0"
     inkscape:pageopacity="0.0"
     inkscape:pageshadow="2"
     inkscape:zoom="0.70710678"
     inkscape:cx="309.33037"
     inkscape:cy="479.03181"
     inkscape:document-units="px"
     inkscape:current-layer="layer1"
     showgrid="false"
     showguides="true"
     inkscape:guide-bbox="true"
     inkscape:window-width="1366"
     inkscape:window-height="721"
     inkscape:window-x="-4"
     inkscape:window-y="-4"
     inkscape:window-maximized="1"
     inkscape:snap-bbox="true"
     inkscape:bbox-paths="true"
     inkscape:bbox-nodes="true"
     inkscape:snap-nodes="false">
    <sodipodi:guide
       position="560,730.00002"
       orientation="0,1"
       id="guide3338" />
    <sodipodi:guide
       position="560,330.00001"
       orientation="0,1"
       id="guide3340" />
    <sodipodi:guide
       position="190,475.00001"
       orientation="1,0"
       id="guide3344" />
    <sodipodi:guide
       position="590,451.00001"
       orientation="1,0"
       id="guide3346" />
    <inkscape:grid
       type="xygrid"
       id="grid3440" />
  </sodipodi:namedview>
  <metadata
     id="metadata7">
    <rdf:RDF>
      <cc:Work
         rdf:about="">
        <dc:format>image/svg+xml</dc:format>
        <dc:type
           rdf:resource="http://purl.org/dc/dcmitype/StillImage" />
        <dc:title>database mysql</dc:title>
        <dc:date>June 2015</dc:date>
        <dc:creator>
          <cc:Agent>
            <dc:title>Johannes Hechler</dc:title>
          </cc:Agent>
        </dc:creator>
        <dc:rights>
          <cc:Agent>
            <dc:title>Johannes Hechler</dc:title>
          </cc:Agent>
        </dc:rights>
        <dc:publisher>
          <cc:Agent>
            <dc:title>RRZE</dc:title>
          </cc:Agent>
        </dc:publisher>
        <dc:contributor>
          <cc:Agent>
            <dc:title>Ute Weber, Hendrik Eggers, Joanna Barbach</dc:title>
          </cc:Agent>
        </dc:contributor>
        <dc:subject>
          <rdf:Bag>
            <rdf:li>database</rdf:li>
            <rdf:li>symbol</rdf:li>
            <rdf:li>icon</rdf:li>
            <rdf:li>myspl</rdf:li>
          </rdf:Bag>
        </dc:subject>
        <cc:license
           rdf:resource="http://creativecommons.org/licenses/by-sa/3.0/" />
      </cc:Work>
      <cc:License
         rdf:about="http://creativecommons.org/licenses/by-sa/3.0/">
        <cc:permits
           rdf:resource="http://creativecommons.org/ns#Reproduction" />
        <cc:permits
           rdf:resource="http://creativecommons.org/ns#Distribution" />
        <cc:requires
           rdf:resource="http://creativecommons.org/ns#Notice" />
        <cc:requires
           rdf:resource="http://creativecommons.org/ns#Attribution" />
        <cc:permits
           rdf:resource="http://creativecommons.org/ns#DerivativeWorks" />
        <cc:requires
           rdf:resource="http://creativecommons.org/ns#ShareAlike" />
      </cc:License>
    </rdf:RDF>
  </metadata>
  <g
     inkscape:label="Ebene 1"
     inkscape:groupmode="layer"
     id="layer1">
    <g
       id="g4208">
      <rect
         y="322.36221"
         x="190"
         height="400"
         width="400"
         id="rect4160-1"
         style="opacity:1;fill:none;fill-opacity:1;stroke:none;stroke-width:23;stroke-linecap:butt;stroke-linejoin:round;stroke-miterlimit:4;stroke-dasharray:none;stroke-opacity:1" />
      <path
         id="rect4239"
         d="M 390 322.36133 C 289.58236 322.36141 208.17828 350.85004 208.17969 385.99219 C 208.18169 421.13358 289.58453 449.62101 390 449.62109 C 490.41625 449.62139 571.8206 421.13385 571.82227 385.99219 C 571.75027 384.6969 571.56533 383.40267 571.26758 382.11133 C 570.98101 380.47215 570.51321 378.83746 569.86523 377.21094 C 557.35775 345.79389 480.64031 322.39904 390 322.36133 z M 208.17969 422.16602 L 208.17969 477.08594 C 208.48582 512.14913 289.78799 540.51779 389.98047 540.52148 C 490.39671 540.52177 571.80106 512.03424 571.80273 476.89258 L 571.80273 513.06641 C 570.88142 513.90773 569.94763 514.73554 568.98828 515.5293 C 557.30613 525.19509 542.29283 532.64617 524.49414 538.875 C 516.13158 541.80156 507.11752 544.42581 497.58008 546.74609 C 499.93587 548.02735 501.75847 549.35457 503.28711 550.32031 L 503.34766 550.35742 L 503.4082 550.39648 C 503.61436 550.52899 503.50874 550.49759 503.69336 550.62109 C 503.76411 550.62429 503.89614 550.63177 503.96484 550.63477 L 505.67773 550.70508 L 507.3457 551.09375 C 510.75782 551.89213 515.91892 552.6151 522.25195 556.20898 L 522.36719 556.27344 L 522.48242 556.3418 C 537.5431 565.18581 549.55732 576.18592 558.97266 591.48828 C 567.24688 584.21308 571.80234 576.27804 571.80273 567.9707 L 571.80273 604.14453 C 570.88142 604.98585 569.94763 605.81366 568.98828 606.60742 C 568.26594 607.20508 567.53088 607.79404 566.7832 608.375 C 567.98524 610.99479 569.21537 613.54978 570.41406 615.82422 L 570.50391 615.99609 L 570.58984 616.16797 C 570.67391 616.33613 570.67471 616.32996 570.75391 616.48633 C 571.06455 616.60421 571.43997 616.75517 571.82227 616.91211 L 571.82227 422.16602 C 570.90097 423.00734 569.96716 423.83515 569.00781 424.62891 C 557.32566 434.2947 542.31236 441.74578 524.51367 447.97461 C 488.91628 460.43231 441.9106 467.62305 390 467.62305 C 338.0894 467.62305 291.08566 460.43227 255.48828 447.97461 C 237.68959 441.74578 222.67629 434.2947 210.99414 424.62891 C 210.0348 423.83515 209.10099 423.00734 208.17969 422.16602 z M 208.17969 513.08398 L 208.17969 568.16406 C 208.48582 603.22725 289.78799 631.59592 389.98047 631.59961 C 419.41938 631.59969 447.1981 629.13772 471.79688 624.79102 C 471.65393 619.4628 472.39174 614.04889 473.91016 608.59961 C 473.57412 607.97977 472.94347 607.07667 472.66992 606.55469 L 472.63086 606.48047 L 472.59375 606.40625 C 469.86503 601.0792 468.61681 596.59478 467.58398 593.75586 L 467.72461 594.12695 C 467.06531 592.43201 466.77807 591.50886 466.55273 590.75391 C 466.14971 590.17372 465.57989 589.33293 464.72852 588.18164 L 464.57812 587.97656 L 464.43359 587.76953 C 465.08983 588.71129 462.26811 585.59436 459.62305 580.99414 C 456.9837 576.40386 453.72406 567.17406 457.57812 557.82227 C 458.1552 556.41982 458.94356 555.10037 459.85938 553.85352 C 438.12736 556.88725 414.61735 558.52344 389.98047 558.52344 C 338.06987 558.52344 291.06614 551.33266 255.46875 538.875 C 237.67006 532.64617 222.65677 525.19509 210.97461 515.5293 C 210.022 514.74111 209.0947 513.9192 208.17969 513.08398 z M 490.46875 549.0918 C 490.68719 549.18031 490.9505 549.31054 491.17383 549.40234 C 491.19393 549.41164 491.2299 549.42069 491.25 549.42969 L 490.46875 549.0918 z M 506.7207 552.98828 C 506.78445 553.05171 507.21005 553.3679 507.25195 553.4043 C 507.42375 553.55384 507.26093 553.3579 506.7207 552.98828 z M 208.17969 604.16211 L 208.17969 658.55469 C 208.17269 658.60029 208.16656 658.64579 208.16016 658.69141 C 208.16115 676.0922 228.14072 691.85667 260.48438 703.34375 L 260.48438 667.24023 C 260.48438 662.86285 261.51267 657.06387 265.14062 652.0918 C 268.7686 647.11972 274.00872 644.42515 277.86914 643.20117 L 278.00195 643.1582 L 278.13672 643.11914 C 281.33262 642.16036 284.63243 641.52701 288.10938 641.4043 C 297.85595 641.06026 309.34555 647.50806 314.2832 656.29883 C 316.52666 652.17262 320.04599 648.23806 324.31055 645.51172 C 298.58481 642.17228 275.25992 636.87924 255.46875 629.95312 C 237.67006 623.72429 222.65677 616.27321 210.97461 606.60742 C 210.022 605.81924 209.0947 604.99734 208.17969 604.16211 z M 565.42188 614.3125 C 565.14044 614.20745 566.5781 614.76672 567.87891 615.31055 C 566.53467 614.48749 565.63022 614.3903 565.42188 614.3125 z M 530.75781 627.66211 C 530.32318 627.82798 529.88166 627.99209 529.44336 628.15625 C 530.80861 630.4916 532.21848 632.69197 533.66211 634.6875 L 533.93945 634.6875 C 533.19016 633.05344 532.44525 631.38437 531.88867 630.13867 L 531.85938 630.07422 L 531.83203 630.00977 C 531.51595 629.28723 531.15299 628.50196 530.75781 627.66211 z M 360.42969 648.80078 C 361.45917 649.74265 362.4387 650.80476 363.32617 652.00586 C 364.47038 653.55443 365.28827 655.18758 365.9707 656.83203 L 379.42773 656.83203 L 379.42773 656.67383 L 402.00781 656.67383 C 402.71901 655.48253 403.45775 654.30336 404.36914 653.25391 C 405.72364 651.69423 407.17308 650.40221 408.66406 649.2832 C 402.51539 649.49192 396.28551 649.60156 389.98047 649.60156 C 379.92811 649.60156 370.06684 649.32611 360.42969 648.80078 z M 548.07422 664.88281 L 548.32227 665.28125 C 548.28927 665.22935 548.28806 665.20745 548.25586 665.15625 C 548.19895 665.06129 548.13182 664.97871 548.07422 664.88281 z M 554.30078 672.75977 L 554.30078 683.08789 L 556.41992 683.08789 L 557.94531 683.08789 C 559.5808 681.71046 561.08416 680.30909 562.44531 678.88477 C 560.19538 677.41515 558.38351 676.02678 556.87305 674.875 C 555.85796 674.12384 555.06755 673.43853 554.30078 672.75977 z "
         style="color:#000000;clip-rule:nonzero;display:inline;overflow:visible;visibility:visible;opacity:1;isolation:auto;mix-blend-mode:normal;color-interpolation:sRGB;color-interpolation-filters:linearRGB;solid-color:#000000;solid-opacity:1;fill:url(#linearGradient4275);fill-opacity:1;fill-rule:nonzero;stroke:none;stroke-width:36;stroke-linecap:butt;stroke-linejoin:round;stroke-miterlimit:4;stroke-dasharray:none;stroke-dashoffset:0;stroke-opacity:1;color-rendering:auto;image-rendering:auto;shape-rendering:auto;text-rendering:auto;enable-background:accumulate" />
      <path
         id="rect4277"
         d="m 190.00002,322.3622 400.00146,0 c 0,0 0,0 0,1e-5 l 0,399.99997 c 0,0 0,0 0,0 l -400.00146,0 c -1e-5,0 -1e-5,0 -1e-5,0 l 0,-399.99997 c 0,-1e-5 0,-1e-5 1e-5,-1e-5 z"
         style="color:#000000;clip-rule:nonzero;display:inline;overflow:visible;visibility:visible;opacity:1;isolation:auto;mix-blend-mode:normal;color-interpolation:sRGB;color-interpolation-filters:linearRGB;solid-color:#000000;solid-opacity:1;fill:none;fill-opacity:1;fill-rule:nonzero;stroke:none;stroke-width:36;stroke-linecap:butt;stroke-linejoin:round;stroke-miterlimit:4;stroke-dasharray:none;stroke-dashoffset:0;stroke-opacity:1;color-rendering:auto;image-rendering:auto;shape-rendering:auto;text-rendering:auto;enable-background:accumulate"
         inkscape:connector-curvature="0" />
      <rect
         y="322.36221"
         x="190"
         height="400"
         width="400"
         id="rect4160"
         style="opacity:1;fill:none;fill-opacity:1;stroke:none;stroke-width:23;stroke-linecap:butt;stroke-linejoin:round;stroke-miterlimit:4;stroke-dasharray:none;stroke-opacity:1" />
      <path
         d="m 278.48424,707.96851 10.28104,0 0,-40.72866 16.054,35.50879 c 1.81952,4.27029 4.42915,5.85245 9.49025,5.85245 5.06161,0 7.51305,-1.58169 9.41129,-5.85199 l 15.9752,-35.50925 0,40.72866 10.35989,0 0,-40.72866 c 0,-3.95423 -1.5817,-5.85245 -4.90334,-6.88049 -7.82908,-2.37253 -13.04901,-0.31603 -15.42154,4.98223 l -15.73757,35.11332 -15.18438,-35.11332 c -2.29359,-5.29827 -7.59249,-7.35476 -15.50087,-4.98223 -3.24234,1.02802 -4.82397,2.92624 -4.82397,6.88049 l 0,40.72866 0,0 z"
         id="path12-0"
         style="fill:#4e505d;fill-opacity:1"
         inkscape:connector-curvature="0" />
      <path
         d="m 358.59744,674.83193 10.35989,0 0,22.38089 c -0.0789,1.26516 0.39543,4.11303 6.01024,4.19191 2.92624,0.0784 22.30203,0 22.46028,0 l 0,-26.73105 10.36041,0 c 0,0 0,36.4584 0,36.61667 0,9.01537 -11.15124,10.99297 -16.37065,11.07185 l -32.58304,0 0,-6.88048 c 0.0789,0 32.58304,0 32.66192,0 6.64329,-0.71146 5.85245,-4.03312 5.85245,-5.14055 l 0,-2.68907 -21.90658,0 c -10.20213,-0.0789 -16.76606,-4.58683 -16.84497,-9.72735 0,-0.47481 0.23714,-22.93457 0,-23.09287 l 5e-5,5e-5 z"
         id="path14-5"
         style="fill:#4e505d;fill-opacity:1"
         inkscape:connector-curvature="0" />
      <path
         d="m 580.82638,648.8916 c -6.32679,-0.15773 -11.23013,0.47531 -15.34267,2.21478 -1.18627,0.4743 -3.08451,0.47479 -3.24279,1.97711 0.63309,0.63308 0.71198,1.66108 1.26568,2.53083 0.94962,1.58117 2.60969,3.71707 4.1125,4.82445 1.66059,1.26515 3.32167,2.53031 5.06114,3.63771 3.0845,1.89824 6.56442,3.0051 9.56955,4.90334 1.74048,1.10637 3.47944,2.5308 5.21941,3.71707 0.87024,0.6321 1.42342,1.66059 2.5308,2.05602 0,-0.0793 0,-0.15816 0,-0.23716 -0.55368,-0.71195 -0.71195,-1.73997 -1.26516,-2.53081 -0.79034,-0.79086 -1.58167,-1.50281 -2.37253,-2.29366 -2.29365,-3.08402 -5.14052,-5.77307 -8.22499,-7.98736 -2.53031,-1.73996 -8.06673,-4.1125 -9.09477,-7.03874 4.9e-4,0 -0.0793,-0.0789 -0.15817,-0.15773 1.73998,-0.15838 3.79597,-0.79084 5.45707,-1.26565 2.68908,-0.71197 5.14052,-0.5537 7.90847,-1.26515 1.26515,-0.31655 2.5308,-0.71197 3.79595,-1.10741 0,-0.23765 0,-0.47429 0,-0.71145 -1.4229,-1.42392 -2.45141,-3.32165 -3.95422,-4.66621 -4.03312,-3.48042 -8.46219,-6.88046 -13.04901,-9.72734 -2.45192,-1.58169 -5.61532,-2.61021 -8.22499,-3.95425 -0.94861,-0.4753 -2.53083,-0.71195 -3.08401,-1.50281 -1.42392,-1.73995 -2.21478,-4.03312 -3.24278,-6.08963 -2.29266,-4.35015 -4.50793,-9.17364 -6.48504,-13.76046 -1.4229,-3.08451 -2.29315,-6.16903 -4.03312,-9.01585 -8.14559,-13.44439 -17.00323,-21.59006 -30.6059,-29.5779 -2.92624,-1.66059 -6.40565,-2.37254 -10.12275,-3.24228 -1.97661,-0.0793 -3.95423,-0.23715 -5.93136,-0.31653 -1.26516,-0.5537 -2.53083,-2.05601 -3.63821,-2.76799 -4.50692,-2.84734 -16.133,-9.01536 -19.45466,-0.86972 -2.13537,5.14052 3.16339,10.20164 4.98223,12.81183 1.34503,1.81885 3.08451,3.87485 4.03361,5.93138 0.5537,1.34352 0.71148,2.76797 1.26516,4.19139 1.26567,3.47893 2.45144,7.35477 4.11252,10.59756 0.87022,1.66059 1.81884,3.40056 2.92624,4.90285 0.63256,0.86972 1.73945,1.26565 1.9771,2.68907 -1.10688,1.5817 -1.18626,3.95426 -1.81935,5.93139 -2.84685,8.93645 -1.73945,20.00836 2.29367,26.57227 1.26516,1.97663 4.27076,6.32728 8.30392,4.66622 3.5588,-1.42345 2.76796,-5.93138 3.79596,-9.88564 0.23765,-0.9496 0.0793,-1.58167 0.5537,-2.21426 5e-4,0.0789 0,0.15838 0,0.15838 1.10738,2.21426 2.21426,4.34968 3.24226,6.5639 2.45194,3.87488 6.72224,7.90849 10.28102,10.59759 1.89874,1.42293 3.40105,3.87487 5.77359,4.74509 0,-0.0799 0,-0.15838 0,-0.23766 -0.0793,0 -0.0793,0 -0.15838,0 -0.47481,-0.71197 -1.18627,-1.02799 -1.81886,-1.58169 -1.42342,-1.42343 -3.00562,-3.1634 -4.1125,-4.74507 -3.32115,-4.42907 -6.2479,-9.33192 -8.85757,-14.39353 -1.26516,-2.45142 -2.37256,-5.14051 -3.40056,-7.59194 -0.47481,-0.94962 -0.47481,-2.37254 -1.26565,-2.84686 -1.18627,1.73948 -2.92574,3.24229 -3.79598,5.37769 -1.5018,3.40053 -1.66056,7.59194 -2.21426,11.94156 -0.31605,0.0793 -0.15838,0 -0.31654,0.15838 -2.53032,-0.63309 -3.40056,-3.24228 -4.34969,-5.45706 -2.37253,-5.6148 -2.76796,-14.63069 -0.71145,-21.11523 0.55369,-1.66108 2.92623,-6.88049 1.9771,-8.46219 -0.47429,-1.50281 -2.05649,-2.37254 -2.92624,-3.5588 -1.02799,-1.50281 -2.13537,-3.40055 -2.84683,-5.06161 -1.89824,-4.42855 -2.84737,-9.33191 -4.90336,-13.76098 -0.94911,-2.05649 -2.60969,-4.19139 -3.95423,-6.08912 -1.50231,-2.13539 -3.1634,-3.6382 -4.34969,-6.16903 -0.39491,-0.86972 -0.94911,-2.29315 -0.31654,-3.24228 0.15838,-0.63257 0.47432,-0.86972 1.10738,-1.02799 1.02802,-0.87023 3.95426,0.23715 4.98223,0.71147 2.92624,1.18575 5.37768,2.29365 7.8296,3.95423 1.10688,0.79084 2.29315,2.29367 3.71658,2.68907 0.5537,0 1.10738,0 1.66108,0 2.53083,0.55321 5.37768,0.15817 7.75022,0.86975 4.19188,1.34403 7.98734,3.32165 11.38841,5.45705 10.36041,6.56393 18.90095,15.89633 24.67457,27.0471 0.94913,1.81836 1.34404,3.47994 2.21429,5.37768 1.66108,3.87534 3.71707,7.82959 5.37766,11.62556 1.66058,3.71658 3.24228,7.51307 5.61482,10.59758 1.18676,1.66009 5.93135,2.53032 8.06673,3.40056 1.58167,0.71145 4.03362,1.34454 5.45704,2.21426 2.68858,1.66007 5.37766,3.55883 7.90846,5.37766 1.26568,0.94863 5.21941,2.92626 5.45707,4.50744 l 2e-5,0 z"
         id="path16-3"
         style="fill:#4e505d;fill-opacity:1"
         inkscape:connector-curvature="0" />
      <path
         d="m 500.15903,580.16669 c -1.34454,0 -2.29315,0.15881 -3.24226,0.39593 0,-5e-4 0,0.0793 0,0.15838 0.0793,0 0.0789,0 0.15837,0 0.63309,1.26515 1.73945,2.13539 2.53032,3.24226 0.63308,1.26515 1.18626,2.53082 1.81935,3.79647 0.0789,-0.0793 0.15773,-0.15837 0.15773,-0.15837 1.1079,-0.79136 1.66108,-2.05651 1.66108,-3.95424 -0.47481,-0.5537 -0.5537,-1.10738 -0.94911,-1.66108 -0.47432,-0.79135 -1.50281,-1.18627 -2.1354,-1.81935 l 0,0 z"
         id="path18-4"
         style="fill:#4e505d"
         inkscape:connector-curvature="0" />
      <path
         d="m 415.6967,707.96851 29.73616,0 c 3.47944,0 6.8011,-0.71146 9.48966,-1.97713 4.50846,-2.05599 6.64332,-4.82396 6.64332,-8.46216 l 0,-7.59246 c 0,-2.92574 -2.45195,-5.69369 -7.35477,-7.59195 -2.53031,-0.94862 -5.6942,-1.50231 -8.7787,-1.50231 l -12.4948,0 c -4.19188,0 -6.16901,-1.26565 -6.72269,-4.03362 -0.0793,-0.31605 -0.0793,-0.63259 -0.0793,-0.94862 l 0,-4.66622 c 0,-0.23714 0,-0.55368 0.0793,-0.86972 0.5537,-2.13538 1.66058,-2.68908 5.29879,-3.08451 0.31605,0 0.71146,0 0.94862,0 l 29.49951,0 0,-6.88049 -28.94583,0 c -4.1914,0 -6.40566,0.23716 -8.38281,0.87024 -6.08963,1.89723 -8.77871,4.90283 -8.77871,10.20162 l 0,6.01076 c 0,4.66569 5.21993,8.61994 14.07751,9.56905 0.94912,0.0789 1.97712,0.0789 3.00512,0.0789 l 10.67645,0 c 0.39543,0 0.79086,0 1.1074,0.0793 3.24226,0.31602 4.66569,0.86972 5.6148,2.05599 0.63258,0.63207 0.79085,1.18626 0.79085,1.89824 l 5e-4,6.00975 c 0,0.71195 -0.47481,1.66158 -1.42392,2.45242 -0.94864,0.79085 -2.45194,1.34455 -4.42909,1.42342 -0.39491,0 -0.63257,0.0789 -1.02799,0.0789 l -28.54942,-5e-4 0,6.88098 4e-5,5e-5 z"
         id="path20-1"
         style="fill:#99b000;fill-opacity:1"
         inkscape:connector-curvature="0" />
      <path
         d="m 525.94119,696.02693 c 0,7.03772 5.29879,10.99247 15.89582,11.78331 1.02799,0.0793 1.9771,0.15838 3.00512,0.15838 l 26.88982,0 0,-6.88099 -27.12651,0 c -6.01024,0 -8.30436,-1.50182 -8.30436,-5.14003 l 4.9e-4,-35.58815 -10.3604,0 0,35.66756 2e-5,2e-5 z"
         id="path22-0"
         style="fill:#99b000;fill-opacity:1"
         inkscape:connector-curvature="0" />
      <path
         d="m 468.12969,696.34284 0,-24.51625 c 0,-6.24739 4.42856,-10.04387 13.04902,-11.23011 0.94962,-0.0793 1.89823,-0.15773 2.76796,-0.15773 l 19.61291,-5e-4 c 1.02901,0 1.89824,0.0793 2.92624,0.15817 8.62043,1.18575 12.97012,4.98272 12.97012,11.23011 l 5.1e-4,24.51624 c 0,5.06117 -1.81937,7.75074 -6.09016,9.56957 l 10.12326,9.17364 -11.94158,0 -8.22499,-7.43414 -8.30392,0.47429 -11.07237,0 c -1.81836,0 -3.87537,-0.23664 -6.01025,-0.79034 -6.56444,-1.81885 -9.8067,-5.29879 -9.8067,-10.99299 l -5e-5,-3e-5 z m 11.15075,-0.55368 c 0,0.31602 0.15817,0.63308 0.23766,1.02851 0.55318,2.84683 3.24226,4.42856 7.35476,4.42856 l 9.33189,0 -8.54105,-7.75073 11.9421,0 7.51256,6.80162 c 1.42444,-0.79136 2.29365,-1.89775 2.61019,-3.32118 0.0789,-0.31652 0.0789,-0.71194 0.0789,-1.02849 l 0,-23.48827 c 0,-0.31605 0,-0.63259 -0.0789,-0.94862 -0.55368,-2.6891 -3.24278,-4.19191 -7.27588,-4.19191 l -15.57981,0 c -4.58682,0 -7.59246,1.97713 -7.59246,5.14053 l 0,23.33003 4e-5,-5e-5 z"
         id="path24-4"
         style="fill:#99b000;fill-opacity:1"
         inkscape:connector-curvature="0" />
      <path
         d="m 576.47648,708.04716 1.50281,0 0,-5.77307 1.97713,0 0,-1.18676 -5.53644,0 0,1.18676 2.0565,0 0,5.77307 0,0 z m 11.46783,0 1.42291,0 0,-6.95985 -2.13488,0 -1.74049,4.74507 -1.89722,-4.74507 -2.05649,0 0,6.95985 1.34454,0 0,-5.29879 0.0789,0 1.97711,5.29879 1.02851,0 1.97713,-5.29879 0,5.29879 0,0 z"
         id="path26-8"
         style="fill:#99b000;fill-opacity:1"
         inkscape:connector-curvature="0" />
    </g>
  </g>
</svg>
