<?xml version="1.0" encoding="UTF-8" standalone="no"?>
<!-- Created with Inkscape (http://www.inkscape.org/) -->

<svg
   xmlns:dc="http://purl.org/dc/elements/1.1/"
   xmlns:cc="http://creativecommons.org/ns#"
   xmlns:rdf="http://www.w3.org/1999/02/22-rdf-syntax-ns#"
   xmlns:svg="http://www.w3.org/2000/svg"
   xmlns="http://www.w3.org/2000/svg"
   xmlns:xlink="http://www.w3.org/1999/xlink"
   xmlns:sodipodi="http://sodipodi.sourceforge.net/DTD/sodipodi-0.dtd"
   xmlns:inkscape="http://www.inkscape.org/namespaces/inkscape"
   width="210mm"
   height="297mm"
   viewBox="0 0 744.09448819 1052.3622047"
   id="svg2"
   version="1.1"
   inkscape:version="0.91 r13725"
   sodipodi:docname="database-otrs.svg"
   inkscape:export-filename="C:\Users\johannes\Documents\Arbeit\RRZE\bi-con\bi-con\scalable\documents\document.png"
   inkscape:export-xdpi="4"
   inkscape:export-ydpi="4">
  <defs
     id="defs4">
    <linearGradient
       inkscape:collect="always"
       id="linearGradient4191">
      <stop
         style="stop-color:#9397a2;stop-opacity:1;"
         offset="0"
         id="stop4193" />
      <stop
         style="stop-color:#5a6578;stop-opacity:1"
         offset="1"
         id="stop4195" />
    </linearGradient>
    <inkscape:perspective
       sodipodi:type="inkscape:persp3d"
       inkscape:vp_x="0 : 526.1811 : 1"
       inkscape:vp_y="0 : 1000 : 0"
       inkscape:vp_z="744.09449 : 526.1811 : 1"
       inkscape:persp3d-origin="372.04724 : 350.7874 : 1"
       id="perspective4149" />
    <linearGradient
       id="linearGradient2224">
      <stop
         id="stop2226"
         offset="0"
         style="stop-color:#7c7c7c;stop-opacity:1;" />
      <stop
         id="stop2228"
         offset="1"
         style="stop-color:#b8b8b8;stop-opacity:1;" />
    </linearGradient>
    <linearGradient
       id="linearGradient15218">
      <stop
         id="stop15220"
         offset="0"
         style="stop-color:#eeeeef;stop-opacity:1;" />
      <stop
         id="stop2736"
         offset="0.59928656"
         style="stop-color:#d3d7cf;stop-opacity:1;" />
      <stop
         id="stop2738"
         offset="0.82758623"
         style="stop-color:#ffffff;stop-opacity:1;" />
      <stop
         id="stop15222"
         offset="1"
         style="stop-color:#d3d7cf;stop-opacity:1;" />
    </linearGradient>
    <pattern
       y="0"
       x="0"
       height="6"
       width="6"
       patternUnits="userSpaceOnUse"
       id="EMFhbasepattern" />
    <pattern
       y="0"
       x="0"
       height="6"
       width="6"
       patternUnits="userSpaceOnUse"
       id="EMFhbasepattern-5" />
    <linearGradient
       inkscape:collect="always"
       xlink:href="#linearGradient4191"
       id="linearGradient4197"
       x1="590"
       y1="362.22598"
       x2="229.1026"
       y2="686.08087"
       gradientUnits="userSpaceOnUse" />
  </defs>
  <sodipodi:namedview
     id="base"
     pagecolor="#ffffff"
     bordercolor="#666666"
     borderopacity="1.0"
     inkscape:pageopacity="0.0"
     inkscape:pageshadow="2"
     inkscape:zoom="1"
     inkscape:cx="314.65426"
     inkscape:cy="467.17042"
     inkscape:document-units="px"
     inkscape:current-layer="layer1"
     showgrid="false"
     showguides="true"
     inkscape:guide-bbox="true"
     inkscape:window-width="1366"
     inkscape:window-height="721"
     inkscape:window-x="-4"
     inkscape:window-y="-4"
     inkscape:window-maximized="1">
    <sodipodi:guide
       position="560,730.00002"
       orientation="0,1"
       id="guide3338" />
    <sodipodi:guide
       position="560,330.00001"
       orientation="0,1"
       id="guide3340" />
    <sodipodi:guide
       position="190,475.00001"
       orientation="1,0"
       id="guide3344" />
    <sodipodi:guide
       position="590,451.00001"
       orientation="1,0"
       id="guide3346" />
    <inkscape:grid
       type="xygrid"
       id="grid3440" />
  </sodipodi:namedview>
  <metadata
     id="metadata7">
    <rdf:RDF>
      <cc:Work
         rdf:about="">
        <dc:format>image/svg+xml</dc:format>
        <dc:type
           rdf:resource="http://purl.org/dc/dcmitype/StillImage" />
        <dc:title></dc:title>
      </cc:Work>
    </rdf:RDF>
  </metadata>
  <g
     inkscape:label="Ebene 1"
     inkscape:groupmode="layer"
     id="layer1">
    <rect
       style="opacity:1;fill:none;fill-opacity:1;stroke:none;stroke-width:23;stroke-linecap:butt;stroke-linejoin:round;stroke-miterlimit:4;stroke-dasharray:none;stroke-opacity:1"
       id="rect4160"
       width="400"
       height="400"
       x="190"
       y="322.36221" />
    <path
       style="color:#000000;clip-rule:nonzero;display:inline;overflow:visible;visibility:visible;opacity:1;isolation:auto;mix-blend-mode:normal;color-interpolation:sRGB;color-interpolation-filters:linearRGB;solid-color:#000000;solid-opacity:1;fill:url(#linearGradient4197);fill-opacity:1;fill-rule:nonzero;stroke:none;stroke-width:3.5999999;stroke-linecap:butt;stroke-linejoin:round;stroke-miterlimit:4;stroke-dasharray:none;stroke-dashoffset:0;stroke-opacity:1;color-rendering:auto;image-rendering:auto;shape-rendering:auto;text-rendering:auto;enable-background:accumulate"
       d="M 389.39258 323.16016 C 280.14994 323.16016 191.5918 347.76016 191.5918 378.10547 C 190.95427 411.74104 188.51132 437.01129 191.5918 466.21484 C 191.5918 466.21484 198.15925 472.74383 214.97266 480.76367 A 11.50115 11.50115 0 0 1 218.62305 480.1582 L 559.26172 480.1582 A 11.50115 11.50115 0 0 1 563.43164 480.94336 C 580.52476 472.84165 587.19336 466.21484 587.19336 466.21484 C 590.0345 428.43722 589.02258 401.54833 587.19336 378.10547 C 587.19336 347.76016 498.63522 323.16016 389.39258 323.16016 z M 191.5918 481.40234 C 189.12267 512.48023 188.22938 541.36006 191.5918 571.70898 C 191.5918 571.70898 196.92196 577.0229 210.30859 583.95117 A 11.50115 11.50115 0 0 1 213.23633 581.7207 A 11.50115 11.50115 0 0 1 207.12305 571.56836 L 207.12305 530.45312 L 207.12305 495.99414 L 207.12305 491.6582 A 11.50115 11.50115 0 0 1 207.26758 489.89062 C 196.81815 484.88532 191.5918 481.40234 191.5918 481.40234 z M 587.19336 481.40234 C 587.19336 481.40234 581.66276 485.07521 570.67188 490.28711 A 11.50115 11.50115 0 0 1 570.76172 491.62891 L 570.96289 571.37695 A 11.50115 11.50115 0 0 1 564.73242 581.61523 A 11.50115 11.50115 0 0 1 568.04688 584.16797 C 581.73924 577.13523 587.19336 571.70898 587.19336 571.70898 C 590.18386 540.56595 590.06315 511.81285 587.19336 481.40234 z M 238.79297 511.82812 L 238.79297 530.45312 L 238.79297 556.52539 C 245.71025 561.58788 250.65039 570.48594 250.65039 581.61328 C 250.65039 587.96332 249.04461 593.58207 246.39648 598.18359 C 277.1567 607.48489 323.0325 615.66602 389.39258 615.66602 C 455.05485 615.66602 500.64574 607.65396 531.39844 598.47461 C 528.7041 593.79679 527.08008 588.06634 527.08008 581.63477 C 527.08008 570.25691 532.14615 561.06553 539.25391 556.02344 L 539.14258 511.82812 L 508.34766 511.82812 C 477.65187 519.37452 438.02075 525.35742 389.39258 525.35742 C 340.7644 525.35742 301.13329 519.37452 270.4375 511.82812 L 238.79297 511.82812 z M 191.5918 586.89648 C 189.12267 617.97437 188.22938 648.85615 191.5918 679.20508 C 191.5918 679.20508 235.54707 723.16016 389.39258 723.16016 C 543.23804 723.16016 587.19336 679.20508 587.19336 679.20508 C 590.18386 648.06204 590.06315 617.30698 587.19336 586.89648 C 587.19336 586.89648 581.78366 590.49422 571.01172 595.62305 L 570.75781 671.65039 A 11.50115 11.50115 0 0 1 559.25781 683.11133 L 218.62305 683.11133 A 11.50115 11.50115 0 0 1 207.12305 671.61133 L 207.12305 595.31445 C 196.77336 590.34763 191.5918 586.89648 191.5918 586.89648 z M 238.79297 608.10156 L 238.79297 651.44336 L 539.15625 651.44336 L 539.29883 608.33984 C 506.34062 619.50425 456.39637 630.85352 389.39258 630.85352 C 321.91167 630.85352 271.74171 619.34224 238.79297 608.10156 z "
       id="path4165" />
    <circle
       style="color:#000000;clip-rule:nonzero;display:inline;overflow:visible;visibility:visible;opacity:1;isolation:auto;mix-blend-mode:normal;color-interpolation:sRGB;color-interpolation-filters:linearRGB;solid-color:#000000;solid-opacity:1;fill:#ffffff;fill-opacity:1;fill-rule:nonzero;stroke:none;stroke-width:3.5999999;stroke-linecap:butt;stroke-linejoin:round;stroke-miterlimit:4;stroke-dasharray:none;stroke-dashoffset:0;stroke-opacity:1;color-rendering:auto;image-rendering:auto;shape-rendering:auto;text-rendering:auto;enable-background:accumulate"
       id="path4199"
       cx="390"
       cy="462.36221"
       r="10" />
    <path
       inkscape:connector-curvature="0"
       style="fill:#fcaf3e;fill-opacity:1;stroke:#c17d11;stroke-width:8.66921139;stroke-miterlimit:4;stroke-dasharray:none;stroke-dashoffset:0;stroke-opacity:1"
       sodipodi:nodetypes="ccczcccczccc"
       id="rect2168-2"
       d="m 222.95861,495.99377 331.97869,0 0.17945,70.86007 c 0,0 -12.20183,-0.59499 -12.20183,14.78171 0,15.37775 12.25793,14.78178 12.25793,14.78178 l -0.23555,70.86007 -331.97869,0 0,-70.93685 c 0,0 11.85724,0.36149 11.85724,-14.72752 0,-15.09004 -11.85724,-14.57263 -11.85724,-14.57263 l 0,-36.58809 0,-34.45854 z" />
    <path
       inkscape:connector-curvature="0"
       style="font-style:normal;font-variant:normal;font-weight:bold;font-stretch:normal;font-size:32px;line-height:125%;font-family:Courier;text-align:start;writing-mode:lr-tb;text-anchor:start"
       id="flowRoot2160-5"
       d="m 264.74414,581.58177 c 0,18.30187 11.6086,33.05103 29.07564,33.05103 17.57555,0 29.07564,-14.85682 29.07564,-33.15869 0,-18.19423 -11.39159,-33.15874 -29.07564,-33.15874 -17.68403,0 -29.07564,15.07218 -29.07564,33.2664 m 9.98119,-0.1077 c 0,-12.48835 7.05193,-23.90013 19.09445,-23.90013 12.368,0 19.09445,11.84243 19.09445,23.90013 0,12.70364 -7.05194,23.9001 -19.09445,23.9001 -11.93402,0 -19.09445,-11.30413 -19.09445,-23.9001 m 57.024,-31.32855 -2.06134,28.42177 9.33024,1.29188 1.4104,-20.88569 13.77838,0 0,45.10878 -12.58495,0 0,8.82798 34.82565,0 0,-8.82798 -12.80194,0 0,-45.10878 13.77838,0 1.41035,20.88569 9.33026,-1.29188 -2.06135,-28.42177 -54.35408,0 m 63.42499,0 0,8.82796 8.4623,0 0,45.10878 -8.4623,0 0,8.82798 27.33979,0 0,-8.82798 -9.43875,0 0,-17.97891 5.53305,0 c 3.47171,0 4.77361,1.29194 9.33024,8.07436 0.21708,0.32296 6.29248,9.58164 10.52365,18.73253 l 16.70764,0 0,-8.82798 -10.19819,0 c -7.3774,-12.38068 -9.54721,-15.50275 -12.15101,-19.0555 13.88687,-4.09101 13.99537,-15.07215 13.99537,-17.2253 0,-5.70586 -2.92927,-11.51943 -7.16044,-14.4262 -4.3396,-3.01441 -8.78776,-3.22974 -15.5142,-3.22974 l -28.96715,0 m 28.96715,8.82796 c 7.81135,0 12.69344,1.39959 12.69344,8.50501 0,10.44282 -12.04252,9.7969 -15.7312,9.7969 l -8.02835,0 0,-18.30191 11.06611,0 m 79.48165,-9.90456 -0.86792,6.02887 c -1.62737,-1.72253 -6.07552,-6.78246 -14.75481,-6.78246 -10.74062,0 -22.34918,8.39737 -22.34918,19.91675 0,15.93343 17.57558,17.65594 25.16994,18.40955 6.61796,0.64595 12.80197,1.93791 12.80197,8.61268 0,7.42839 -8.02835,10.11986 -14.42933,10.11986 -10.52364,0 -13.99534,-6.78248 -14.75481,-14.85682 l -8.6793,0 c 0.32549,3.44505 0.86794,10.65817 0.86794,17.22528 0,3.55274 -0.10854,5.05995 -0.32548,7.21311 l 8.78781,0 0.86792,-6.4595 c 2.60378,2.79913 5.85853,6.13651 14.64629,6.13651 12.6935,0 22.78318,-8.50496 22.78318,-19.59376 0,-6.99777 -3.7972,-11.51943 -7.7029,-13.99558 -4.33961,-2.79911 -8.67927,-3.1221 -15.9482,-3.98335 -4.66511,-0.53829 -14.32085,-1.5072 -14.32085,-9.04328 0,-4.52164 4.0142,-10.44284 13.99537,-10.44284 12.69349,0 13.99537,10.76585 14.75484,16.57935 l 8.57077,-1.18424 c 0,-0.32299 -0.10854,-2.26082 -0.21709,-2.58378 -0.21684,-2.58381 -0.65092,-7.53611 -0.65092,-12.05773 0,-3.76804 0.21709,-6.89011 0.43398,-9.25862 l -8.67932,0" />
  </g>
</svg>
