<?xml version="1.0" encoding="UTF-8" standalone="no"?>
<!-- Created with Inkscape (http://www.inkscape.org/) -->

<svg
   xmlns:dc="http://purl.org/dc/elements/1.1/"
   xmlns:cc="http://creativecommons.org/ns#"
   xmlns:rdf="http://www.w3.org/1999/02/22-rdf-syntax-ns#"
   xmlns:svg="http://www.w3.org/2000/svg"
   xmlns="http://www.w3.org/2000/svg"
   xmlns:xlink="http://www.w3.org/1999/xlink"
   xmlns:sodipodi="http://sodipodi.sourceforge.net/DTD/sodipodi-0.dtd"
   xmlns:inkscape="http://www.inkscape.org/namespaces/inkscape"
   width="210mm"
   height="297mm"
   viewBox="0 0 744.09448819 1052.3622047"
   id="svg2"
   version="1.1"
   inkscape:version="0.91 r13725"
   sodipodi:docname="database.svg"
   inkscape:export-filename="C:\Users\johannes\Documents\Arbeit\RRZE\bi-con\bi-con\scalable\documents\document.png"
   inkscape:export-xdpi="4"
   inkscape:export-ydpi="4">
  <defs
     id="defs4">
    <linearGradient
       inkscape:collect="always"
       id="linearGradient4191">
      <stop
         style="stop-color:#9397a2;stop-opacity:1;"
         offset="0"
         id="stop4193" />
      <stop
         style="stop-color:#5a6578;stop-opacity:1"
         offset="1"
         id="stop4195" />
    </linearGradient>
    <inkscape:perspective
       sodipodi:type="inkscape:persp3d"
       inkscape:vp_x="0 : 526.1811 : 1"
       inkscape:vp_y="0 : 1000 : 0"
       inkscape:vp_z="744.09449 : 526.1811 : 1"
       inkscape:persp3d-origin="372.04724 : 350.7874 : 1"
       id="perspective4149" />
    <linearGradient
       id="linearGradient2224">
      <stop
         id="stop2226"
         offset="0"
         style="stop-color:#7c7c7c;stop-opacity:1;" />
      <stop
         id="stop2228"
         offset="1"
         style="stop-color:#b8b8b8;stop-opacity:1;" />
    </linearGradient>
    <linearGradient
       id="linearGradient15218">
      <stop
         id="stop15220"
         offset="0"
         style="stop-color:#eeeeef;stop-opacity:1;" />
      <stop
         id="stop2736"
         offset="0.59928656"
         style="stop-color:#d3d7cf;stop-opacity:1;" />
      <stop
         id="stop2738"
         offset="0.82758623"
         style="stop-color:#ffffff;stop-opacity:1;" />
      <stop
         id="stop15222"
         offset="1"
         style="stop-color:#d3d7cf;stop-opacity:1;" />
    </linearGradient>
    <pattern
       y="0"
       x="0"
       height="6"
       width="6"
       patternUnits="userSpaceOnUse"
       id="EMFhbasepattern" />
    <pattern
       y="0"
       x="0"
       height="6"
       width="6"
       patternUnits="userSpaceOnUse"
       id="EMFhbasepattern-5" />
    <linearGradient
       inkscape:collect="always"
       xlink:href="#linearGradient4191"
       id="linearGradient4197"
       x1="590"
       y1="362.22598"
       x2="229.1026"
       y2="686.08087"
       gradientUnits="userSpaceOnUse" />
  </defs>
  <sodipodi:namedview
     id="base"
     pagecolor="#ffffff"
     bordercolor="#666666"
     borderopacity="1.0"
     inkscape:pageopacity="0.0"
     inkscape:pageshadow="2"
     inkscape:zoom="1"
     inkscape:cx="352.92205"
     inkscape:cy="441.99135"
     inkscape:document-units="px"
     inkscape:current-layer="layer1"
     showgrid="false"
     showguides="true"
     inkscape:guide-bbox="true"
     inkscape:window-width="1366"
     inkscape:window-height="721"
     inkscape:window-x="-4"
     inkscape:window-y="-4"
     inkscape:window-maximized="1">
    <sodipodi:guide
       position="560,730.00002"
       orientation="0,1"
       id="guide3338" />
    <sodipodi:guide
       position="560,330.00001"
       orientation="0,1"
       id="guide3340" />
    <sodipodi:guide
       position="190,475.00001"
       orientation="1,0"
       id="guide3344" />
    <sodipodi:guide
       position="590,451.00001"
       orientation="1,0"
       id="guide3346" />
    <inkscape:grid
       type="xygrid"
       id="grid3440" />
  </sodipodi:namedview>
  <metadata
     id="metadata7">
    <rdf:RDF>
      <cc:Work
         rdf:about="">
        <dc:format>image/svg+xml</dc:format>
        <dc:type
           rdf:resource="http://purl.org/dc/dcmitype/StillImage" />
      </cc:Work>
    </rdf:RDF>
  </metadata>
  <g
     inkscape:label="Ebene 1"
     inkscape:groupmode="layer"
     id="layer1">
    <rect
       style="opacity:1;fill:none;fill-opacity:1;stroke:none;stroke-width:23;stroke-linecap:butt;stroke-linejoin:round;stroke-miterlimit:4;stroke-dasharray:none;stroke-opacity:1"
       id="rect4160"
       width="400"
       height="400"
       x="190"
       y="322.36221" />
    <path
       style="color:#000000;clip-rule:nonzero;display:inline;overflow:visible;visibility:visible;opacity:1;isolation:auto;mix-blend-mode:normal;color-interpolation:sRGB;color-interpolation-filters:linearRGB;solid-color:#000000;solid-opacity:1;fill:url(#linearGradient4197);fill-opacity:1;fill-rule:nonzero;stroke:none;stroke-width:3.5999999;stroke-linecap:butt;stroke-linejoin:round;stroke-miterlimit:4;stroke-dasharray:none;stroke-dashoffset:0;stroke-opacity:1;color-rendering:auto;image-rendering:auto;shape-rendering:auto;text-rendering:auto;enable-background:accumulate"
       d="m 389.3928,323.16032 c -109.24264,0 -197.80133,24.59974 -197.80133,54.94505 -0.63753,33.63557 -3.08048,58.90634 0,88.10989 0,0 43.95582,43.95604 197.80133,43.95604 153.84546,0 197.80132,-43.95604 197.80132,-43.95604 2.84114,-37.77762 1.82922,-64.66703 0,-88.10989 0,-30.34531 -88.55868,-54.94505 -197.80132,-54.94505 z M 191.59147,481.40207 c -2.46913,31.07789 -3.36242,59.95878 0,90.3077 0,0 43.95582,43.95605 197.80133,43.95605 153.84546,0 197.80132,-43.95605 197.80132,-43.95605 2.9905,-31.14303 2.86979,-59.89719 0,-90.3077 0,0 -65.93377,43.95606 -197.80132,43.95606 -131.86755,0 -197.80133,-43.95606 -197.80133,-43.95606 z m 0,105.49452 c -2.46913,31.07789 -3.36242,61.95876 0,92.30769 0,0 43.95582,43.95604 197.80133,43.95604 153.84546,0 197.80132,-43.95604 197.80132,-43.95604 2.9905,-31.14304 2.86979,-61.89719 0,-92.30769 0,0 -65.93377,43.95604 -197.80132,43.95604 -131.86755,0 -197.80133,-43.95604 -197.80133,-43.95604 z"
       id="path4165"
       inkscape:connector-curvature="0"
       sodipodi:nodetypes="sccsccsccsccscccsccsc" />
    <circle
       style="color:#000000;clip-rule:nonzero;display:inline;overflow:visible;visibility:visible;opacity:1;isolation:auto;mix-blend-mode:normal;color-interpolation:sRGB;color-interpolation-filters:linearRGB;solid-color:#000000;solid-opacity:1;fill:#ffffff;fill-opacity:1;fill-rule:nonzero;stroke:none;stroke-width:3.5999999;stroke-linecap:butt;stroke-linejoin:round;stroke-miterlimit:4;stroke-dasharray:none;stroke-dashoffset:0;stroke-opacity:1;color-rendering:auto;image-rendering:auto;shape-rendering:auto;text-rendering:auto;enable-background:accumulate"
       id="path4199"
       cx="390"
       cy="462.36221"
       r="10" />
    <g
       transform="matrix(0.8056512,0,0,0.8056512,-27.39097,197.41097)"
       id="g4222"
       style="stroke:#ffffff;stroke-width:28.54833412;stroke-linejoin:round;stroke-miterlimit:4;stroke-dasharray:none">
      <path
         inkscape:connector-curvature="0"
         style="fill:#204a87;fill-opacity:1;stroke:#ffffff;stroke-width:28.54833412;stroke-linejoin:round;stroke-miterlimit:4;stroke-dasharray:none"
         id="path4224"
         d="m 273.83346,569.51144 16.09033,0 0,-63.74234 25.1253,55.573 c 2.84764,6.6832 6.93184,9.15937 14.8527,9.15937 7.92167,0 11.7583,-2.47543 14.72914,-9.15866 l 25.00197,-55.57371 0,63.74234 16.21373,0 0,-63.74234 c 0,-6.18856 -2.47543,-9.15937 -7.67397,-10.7683 -12.25289,-3.71313 -20.42233,-0.4946 -24.13546,7.79743 l -24.63007,54.95407 -23.7643,-54.95407 c -3.58957,-8.29206 -11.88261,-11.51056 -24.25961,-7.79743 -5.07443,1.6089 -7.54976,4.5797 -7.54976,10.7683 l 0,63.74234 0,0 z" />
      <path
         inkscape:connector-curvature="0"
         style="fill:#204a87;fill-opacity:1;stroke:#ffffff;stroke-width:28.54833412;stroke-linejoin:round;stroke-miterlimit:4;stroke-dasharray:none"
         id="path4226"
         d="m 399.21454,517.65107 16.21373,0 0,35.0272 c -0.12343,1.98003 0.61887,6.43708 9.40633,6.56054 4.5797,0.12276 34.90377,0 35.15144,0 l 0,-41.83541 16.21454,0 c 0,0 0,57.05918 0,57.30688 0,14.1095 -17.45224,17.20454 -25.62087,17.328 l -50.99404,0 0,-10.7683 c 0.12343,0 50.99404,0 51.1175,0 10.39707,-1.11347 9.15937,-6.31203 9.15937,-8.0452 l 0,-4.20854 -34.28487,0 c -15.96684,-0.12343 -26.2397,-7.1786 -26.3632,-15.22377 0,-0.7431 0.37113,-35.89373 0,-36.14147 l 7e-5,7e-5 z" />
      <path
         inkscape:connector-curvature="0"
         style="fill:#204a87;fill-opacity:1;stroke:#ffffff;stroke-width:28.54833412;stroke-linejoin:round;stroke-miterlimit:4;stroke-dasharray:none"
         id="path4228"
         d="m 747.01371,477.05319 c -9.90174,-0.24686 -17.57571,0.74388 -24.01204,3.46624 -1.85657,0.7423 -4.8274,0.74307 -5.07511,3.09427 0.99081,0.9908 1.11427,2.59967 1.98084,3.96087 1.48621,2.47462 4.0843,5.8174 6.43627,7.5505 2.5989,1.98003 5.19857,3.96006 7.92093,5.6932 4.8274,2.97084 10.27364,4.70313 14.97681,7.67397 2.72394,1.73152 5.44549,3.96083 8.16863,5.8174 1.36197,0.98926 2.22773,2.5989 3.96083,3.21776 0,-0.1241 0,-0.24753 0,-0.37116 -0.86653,-1.11424 -1.11423,-2.72314 -1.98003,-3.96084 -1.23692,-1.23773 -2.4754,-2.35197 -3.71313,-3.5897 -3.58967,-4.82663 -8.04517,-9.03513 -12.87251,-12.5006 -3.96006,-2.72313 -12.62483,-6.43627 -14.23376,-11.01597 7.7e-4,0 -0.12411,-0.12343 -0.24754,-0.24686 2.72314,-0.24787 5.94087,-1.2377 8.54057,-1.9808 4.20854,-1.11427 8.04517,-0.86657 12.37714,-1.98003 1.98003,-0.49541 3.96083,-1.11427 5.94086,-1.73314 0,-0.37194 0,-0.7423 0,-1.11346 -2.22692,-2.22851 -3.83659,-5.19854 -6.18856,-7.30284 -6.31203,-5.44704 -13.24374,-10.76827 -20.42234,-15.22377 -3.83737,-2.47543 -8.78824,-4.0851 -12.8725,-6.1886 -1.48463,-0.74387 -3.96087,-1.11423 -4.82663,-2.35197 -2.22851,-2.7231 -3.46624,-6.31203 -5.07511,-9.53056 -3.58812,-6.80821 -7.05513,-14.3572 -10.1494,-21.5358 -2.22692,-4.82741 -3.58889,-9.65484 -6.31203,-14.11024 -12.74826,-21.04113 -26.6109,-33.7895 -47.89974,-46.29087 -4.5797,-2.5989 -10.02516,-3.71314 -15.8426,-5.07433 -3.09349,-0.12411 -6.18856,-0.37114 -9.28286,-0.49537 -1.98004,-0.86657 -3.96087,-3.21777 -5.69398,-4.33204 -7.05355,-4.45623 -25.24893,-14.10949 -30.4475,-1.36116 -3.34196,8.04517 4.95087,15.96606 7.79744,20.05114 2.10504,2.84659 4.8274,6.06433 6.3128,9.2829 0.86657,2.10268 1.1135,4.332 1.98003,6.55973 1.98084,5.44469 3.83663,11.51057 6.4363,16.5857 1.36194,2.5989 2.84657,5.32204 4.57971,7.6732 0.98999,1.36116 2.72232,1.9808 3.09426,4.20853 -1.73233,2.47544 -1.85656,6.18861 -2.84737,9.28291 -4.45546,13.98599 -2.72233,31.31406 3.5897,41.5869 1.98003,3.09352 6.68394,9.9025 12.99604,7.30287 5.5697,-2.22777 4.332,-9.28291 5.94086,-15.47151 0.37194,-1.48617 0.12411,-2.4754 0.86657,-3.46543 7.8e-4,0.12343 0,0.24787 0,0.24787 1.7331,3.46543 3.46543,6.80747 5.0743,10.27283 3.8374,6.06437 10.52063,12.37717 16.0903,16.58574 2.97161,2.22696 5.32281,6.06436 9.03594,7.4263 0,-0.12511 0,-0.24787 0,-0.37194 -0.1241,0 -0.1241,0 -0.24787,0 -0.7431,-1.11427 -1.85657,-1.60886 -2.8466,-2.47543 -2.22773,-2.22773 -4.70394,-4.95087 -6.43627,-7.42627 -5.19776,-6.9317 -9.77827,-14.6049 -13.86253,-22.52657 -1.98003,-3.83659 -3.71317,-8.04516 -5.32204,-11.88176 -0.7431,-1.48621 -0.7431,-3.71314 -1.9808,-4.45547 -1.85657,2.72237 -4.57893,5.07434 -5.9409,8.41634 -2.35039,5.322 -2.59886,11.88176 -3.46543,18.68913 -0.49463,0.1241 -0.24787,0 -0.4954,0.24787 -3.96006,-0.99081 -5.32204,-5.07433 -6.80747,-8.54057 -3.71313,-8.78743 -4.332,-22.89774 -1.11346,-33.04637 0.86656,-2.59967 4.5797,-10.7683 3.09426,-13.24373 -0.74229,-2.35197 -3.2185,-3.71314 -4.5797,-5.5697 -1.60886,-2.35197 -3.34197,-5.32203 -4.45543,-7.92167 -2.97084,-6.9309 -4.45627,-14.6049 -7.674,-21.53661 -1.4854,-3.2185 -4.0843,-6.55973 -6.18857,-9.52976 -2.35119,-3.342 -4.95087,-5.69397 -6.80747,-9.65484 -0.61806,-1.36116 -1.4854,-3.58889 -0.4954,-5.07433 0.24787,-0.99 0.74233,-1.36116 1.7331,-1.60886 1.6089,-1.36194 6.18861,0.37116 7.79744,1.11349 4.5797,1.85576 8.41633,3.58967 12.2537,6.18857 1.73233,1.2377 3.5889,3.5897 5.81663,4.20853 0.86657,0 1.7331,0 2.59967,0 3.96087,0.8658 8.41633,0.24754 12.12947,1.3612 6.5605,2.10346 12.50059,5.19854 17.82343,8.54054 16.21454,10.27287 29.5809,24.87854 38.61691,42.33004 1.48543,2.84582 2.10349,5.44627 3.46546,8.41633 2.59967,6.0651 5.81741,12.2537 8.4163,18.19457 2.5989,5.81663 5.07433,11.75833 8.78747,16.58574 1.85734,2.59812 9.28286,3.96006 12.62483,5.32203 2.4754,1.11346 6.31281,2.10427 8.54054,3.46543 4.20776,2.59809 8.4163,5.56974 12.37713,8.4163 1.98084,1.48466 8.16863,4.57974 8.54057,7.05436 l 4e-5,0 z" />
      <path
         inkscape:connector-curvature="0"
         style="fill:#00546b;stroke:#ffffff;stroke-width:28.54833412;stroke-linejoin:round;stroke-miterlimit:4;stroke-dasharray:none"
         id="path4230"
         d="m 620.76535,369.49535 c -2.10427,0 -3.58889,0.24854 -5.07429,0.61964 0,-7.8e-4 0,0.1241 0,0.24787 0.1241,0 0.12343,0 0.24786,0 0.99081,1.98003 2.72233,3.342 3.96007,5.0743 0.9908,1.98003 1.85656,3.96086 2.84737,5.94167 0.12343,-0.12411 0.24686,-0.24787 0.24686,-0.24787 1.73391,-1.23851 2.59967,-3.21854 2.59967,-6.18857 -0.7431,-0.86657 -0.86657,-1.7331 -1.4854,-2.59967 -0.74233,-1.23851 -2.35197,-1.85657 -3.342,-2.84737 l 0,0 z" />
      <path
         inkscape:connector-curvature="0"
         style="fill:#f57900;fill-opacity:1;stroke:#ffffff;stroke-width:28.54833412;stroke-linejoin:round;stroke-miterlimit:4;stroke-dasharray:none"
         id="path4232"
         d="m 488.57768,569.51144 46.53854,0 c 5.4455,0 10.64406,-1.11346 14.85179,-3.0943 7.05595,-3.21773 10.39711,-7.54973 10.39711,-13.2437 l 0,-11.88257 c 0,-4.57893 -3.83741,-8.9109 -11.51057,-11.88177 -3.96006,-1.48463 -8.9117,-2.35119 -13.7391,-2.35119 l -19.55496,0 c -6.56051,0 -9.65481,-1.98081 -10.52134,-6.31281 -0.12411,-0.49463 -0.12411,-0.99003 -0.12411,-1.48463 l 0,-7.30287 c 0,-0.37113 0,-0.86653 0.12411,-1.36116 0.86656,-3.34197 2.59889,-4.20854 8.29286,-4.8274 0.49463,0 1.11347,0 1.48463,0 l 46.16818,0 0,-10.76831 -45.30164,0 c -6.55974,0 -10.02517,0.37117 -13.1195,1.36197 -9.53057,2.96926 -13.73911,7.67317 -13.73911,15.96603 l 0,9.40714 c 0,7.30203 8.16944,13.49063 22.03198,14.97603 1.48543,0.12343 3.0943,0.12343 4.70316,0.12343 l 16.70917,0 c 0.61887,0 1.23773,0 1.73314,0.12411 5.07429,0.49459 7.30203,1.36116 8.78743,3.21773 0.99003,0.98922 1.23773,1.85656 1.23773,2.97083 l 7.8e-4,9.40556 c 0,1.11424 -0.74311,2.60045 -2.22851,3.83815 -1.48466,1.23773 -3.8374,2.1043 -6.93174,2.22773 -0.61806,0 -0.99,0.12343 -1.60886,0.12343 l -44.68124,-7.7e-4 0,10.76907 7e-5,7e-5 z" />
      <path
         inkscape:connector-curvature="0"
         style="fill:#f57900;fill-opacity:1;stroke:#ffffff;stroke-width:28.54833412;stroke-linejoin:round;stroke-miterlimit:4;stroke-dasharray:none"
         id="path4234"
         d="m 661.1157,550.82228 c 0,11.01438 8.29287,17.20376 24.87773,18.44146 1.60886,0.1241 3.09426,0.24787 4.70316,0.24787 l 42.08389,0 0,-10.76908 -42.45431,0 c -9.40633,0 -12.99674,-2.35042 -12.99674,-8.04439 l 7.7e-4,-55.69721 -16.21454,0 0,55.82148 4e-5,3e-5 z" />
      <path
         inkscape:connector-curvature="0"
         style="fill:#f57900;fill-opacity:1;stroke:#ffffff;stroke-width:28.54833412;stroke-linejoin:round;stroke-miterlimit:4;stroke-dasharray:none"
         id="path4236"
         d="m 570.63788,551.3167 0,-38.36913 c 0,-9.77747 6.9309,-15.71914 20.42234,-17.57567 1.48621,-0.1241 2.97083,-0.24686 4.332,-0.24686 l 30.69517,-7.8e-4 c 1.61044,0 2.97083,0.12411 4.5797,0.24754 13.4914,1.85576 20.29887,7.7982 20.29887,17.57567 l 8.1e-4,38.36913 c 0,7.92097 -2.84741,12.13028 -9.53141,14.97684 l 15.8434,14.3572 -18.68916,0 -12.87251,-11.6348 -12.99603,0.74229 -17.32881,0 c -2.84582,0 -6.06514,-0.37036 -9.40633,-1.23692 -10.27367,-2.8466 -15.34797,-8.29287 -15.34797,-17.20457 l -7e-5,-4e-5 z m 17.45147,-0.86653 c 0,0.49459 0.24753,0.9908 0.37194,1.60967 0.86576,4.45543 5.07429,6.9309 11.51056,6.9309 l 14.60487,0 -13.36717,-12.13027 18.68997,0 11.75753,10.64487 c 2.22931,-1.23851 3.58967,-2.97007 4.08507,-5.1978 0.12343,-0.49537 0.12343,-1.11423 0.12343,-1.60964 l 0,-36.7603 c 0,-0.49463 0,-0.99003 -0.12343,-1.48463 -0.86653,-4.20857 -5.0751,-6.56054 -11.3871,-6.56054 l -24.38317,0 c -7.1786,0 -11.88257,3.0943 -11.88257,8.04517 l 0,36.51264 7e-5,-7e-5 z" />
      <path
         inkscape:connector-curvature="0"
         style="fill:#f57900;fill-opacity:1;stroke:#ffffff;stroke-width:28.54833412;stroke-linejoin:round;stroke-miterlimit:4;stroke-dasharray:none"
         id="path4238"
         d="m 740.2059,569.63453 2.35197,0 0,-9.03513 3.0943,0 0,-1.85734 -8.6648,0 0,1.85734 3.21853,0 0,9.03513 0,0 z m 17.94771,0 2.22693,0 0,-10.8925 -3.3412,0 -2.72394,7.42627 -2.96925,-7.42627 -3.21851,0 0,10.8925 2.10427,0 0,-8.29286 0.12343,0 3.09427,8.29286 1.60967,0 3.0943,-8.29286 0,8.29286 0,0 z" />
    </g>
    <g
       id="g4212"
       transform="matrix(0.8056512,0,0,0.8056512,-176.39097,328.41097)">
      <path
         d="m 273.83346,569.51144 16.09033,0 0,-63.74234 25.1253,55.573 c 2.84764,6.6832 6.93184,9.15937 14.8527,9.15937 7.92167,0 11.7583,-2.47543 14.72914,-9.15866 l 25.00197,-55.57371 0,63.74234 16.21373,0 0,-63.74234 c 0,-6.18856 -2.47543,-9.15937 -7.67397,-10.7683 -12.25289,-3.71313 -20.42233,-0.4946 -24.13546,7.79743 l -24.63007,54.95407 -23.7643,-54.95407 c -3.58957,-8.29206 -11.88261,-11.51056 -24.25961,-7.79743 -5.07443,1.6089 -7.54976,4.5797 -7.54976,10.7683 l 0,63.74234 0,0 z"
         id="path12-0"
         style="fill:#204a87;fill-opacity:1"
         inkscape:connector-curvature="0" />
      <path
         d="m 399.21454,517.65107 16.21373,0 0,35.0272 c -0.12343,1.98003 0.61887,6.43708 9.40633,6.56054 4.5797,0.12276 34.90377,0 35.15144,0 l 0,-41.83541 16.21454,0 c 0,0 0,57.05918 0,57.30688 0,14.1095 -17.45224,17.20454 -25.62087,17.328 l -50.99404,0 0,-10.7683 c 0.12343,0 50.99404,0 51.1175,0 10.39707,-1.11347 9.15937,-6.31203 9.15937,-8.0452 l 0,-4.20854 -34.28487,0 c -15.96684,-0.12343 -26.2397,-7.1786 -26.3632,-15.22377 0,-0.7431 0.37113,-35.89373 0,-36.14147 l 7e-5,7e-5 z"
         id="path14-5"
         style="fill:#204a87;fill-opacity:1"
         inkscape:connector-curvature="0" />
      <path
         d="m 747.01371,477.05319 c -9.90174,-0.24686 -17.57571,0.74388 -24.01204,3.46624 -1.85657,0.7423 -4.8274,0.74307 -5.07511,3.09427 0.99081,0.9908 1.11427,2.59967 1.98084,3.96087 1.48621,2.47462 4.0843,5.8174 6.43627,7.5505 2.5989,1.98003 5.19857,3.96006 7.92093,5.6932 4.8274,2.97084 10.27364,4.70313 14.97681,7.67397 2.72394,1.73152 5.44549,3.96083 8.16863,5.8174 1.36197,0.98926 2.22773,2.5989 3.96083,3.21776 0,-0.1241 0,-0.24753 0,-0.37116 -0.86653,-1.11424 -1.11423,-2.72314 -1.98003,-3.96084 -1.23692,-1.23773 -2.4754,-2.35197 -3.71313,-3.5897 -3.58967,-4.82663 -8.04517,-9.03513 -12.87251,-12.5006 -3.96006,-2.72313 -12.62483,-6.43627 -14.23376,-11.01597 7.7e-4,0 -0.12411,-0.12343 -0.24754,-0.24686 2.72314,-0.24787 5.94087,-1.2377 8.54057,-1.9808 4.20854,-1.11427 8.04517,-0.86657 12.37714,-1.98003 1.98003,-0.49541 3.96083,-1.11427 5.94086,-1.73314 0,-0.37194 0,-0.7423 0,-1.11346 -2.22692,-2.22851 -3.83659,-5.19854 -6.18856,-7.30284 -6.31203,-5.44704 -13.24374,-10.76827 -20.42234,-15.22377 -3.83737,-2.47543 -8.78824,-4.0851 -12.8725,-6.1886 -1.48463,-0.74387 -3.96087,-1.11423 -4.82663,-2.35197 -2.22851,-2.7231 -3.46624,-6.31203 -5.07511,-9.53056 -3.58812,-6.80821 -7.05513,-14.3572 -10.1494,-21.5358 -2.22692,-4.82741 -3.58889,-9.65484 -6.31203,-14.11024 -12.74826,-21.04113 -26.6109,-33.7895 -47.89974,-46.29087 -4.5797,-2.5989 -10.02516,-3.71314 -15.8426,-5.07433 -3.09349,-0.12411 -6.18856,-0.37114 -9.28286,-0.49537 -1.98004,-0.86657 -3.96087,-3.21777 -5.69398,-4.33204 -7.05355,-4.45623 -25.24893,-14.10949 -30.4475,-1.36116 -3.34196,8.04517 4.95087,15.96606 7.79744,20.05114 2.10504,2.84659 4.8274,6.06433 6.3128,9.2829 0.86657,2.10268 1.1135,4.332 1.98003,6.55973 1.98084,5.44469 3.83663,11.51057 6.4363,16.5857 1.36194,2.5989 2.84657,5.32204 4.57971,7.6732 0.98999,1.36116 2.72232,1.9808 3.09426,4.20853 -1.73233,2.47544 -1.85656,6.18861 -2.84737,9.28291 -4.45546,13.98599 -2.72233,31.31406 3.5897,41.5869 1.98003,3.09352 6.68394,9.9025 12.99604,7.30287 5.5697,-2.22777 4.332,-9.28291 5.94086,-15.47151 0.37194,-1.48617 0.12411,-2.4754 0.86657,-3.46543 7.8e-4,0.12343 0,0.24787 0,0.24787 1.7331,3.46543 3.46543,6.80747 5.0743,10.27283 3.8374,6.06437 10.52063,12.37717 16.0903,16.58574 2.97161,2.22696 5.32281,6.06436 9.03594,7.4263 0,-0.12511 0,-0.24787 0,-0.37194 -0.1241,0 -0.1241,0 -0.24787,0 -0.7431,-1.11427 -1.85657,-1.60886 -2.8466,-2.47543 -2.22773,-2.22773 -4.70394,-4.95087 -6.43627,-7.42627 -5.19776,-6.9317 -9.77827,-14.6049 -13.86253,-22.52657 -1.98003,-3.83659 -3.71317,-8.04516 -5.32204,-11.88176 -0.7431,-1.48621 -0.7431,-3.71314 -1.9808,-4.45547 -1.85657,2.72237 -4.57893,5.07434 -5.9409,8.41634 -2.35039,5.322 -2.59886,11.88176 -3.46543,18.68913 -0.49463,0.1241 -0.24787,0 -0.4954,0.24787 -3.96006,-0.99081 -5.32204,-5.07433 -6.80747,-8.54057 -3.71313,-8.78743 -4.332,-22.89774 -1.11346,-33.04637 0.86656,-2.59967 4.5797,-10.7683 3.09426,-13.24373 -0.74229,-2.35197 -3.2185,-3.71314 -4.5797,-5.5697 -1.60886,-2.35197 -3.34197,-5.32203 -4.45543,-7.92167 -2.97084,-6.9309 -4.45627,-14.6049 -7.674,-21.53661 -1.4854,-3.2185 -4.0843,-6.55973 -6.18857,-9.52976 -2.35119,-3.342 -4.95087,-5.69397 -6.80747,-9.65484 -0.61806,-1.36116 -1.4854,-3.58889 -0.4954,-5.07433 0.24787,-0.99 0.74233,-1.36116 1.7331,-1.60886 1.6089,-1.36194 6.18861,0.37116 7.79744,1.11349 4.5797,1.85576 8.41633,3.58967 12.2537,6.18857 1.73233,1.2377 3.5889,3.5897 5.81663,4.20853 0.86657,0 1.7331,0 2.59967,0 3.96087,0.8658 8.41633,0.24754 12.12947,1.3612 6.5605,2.10346 12.50059,5.19854 17.82343,8.54054 16.21454,10.27287 29.5809,24.87854 38.61691,42.33004 1.48543,2.84582 2.10349,5.44627 3.46546,8.41633 2.59967,6.0651 5.81741,12.2537 8.4163,18.19457 2.5989,5.81663 5.07433,11.75833 8.78747,16.58574 1.85734,2.59812 9.28286,3.96006 12.62483,5.32203 2.4754,1.11346 6.31281,2.10427 8.54054,3.46543 4.20776,2.59809 8.4163,5.56974 12.37713,8.4163 1.98084,1.48466 8.16863,4.57974 8.54057,7.05436 l 4e-5,0 z"
         id="path16-3"
         style="fill:#204a87;fill-opacity:1"
         inkscape:connector-curvature="0" />
      <path
         d="m 620.76535,369.49535 c -2.10427,0 -3.58889,0.24854 -5.07429,0.61964 0,-7.8e-4 0,0.1241 0,0.24787 0.1241,0 0.12343,0 0.24786,0 0.99081,1.98003 2.72233,3.342 3.96007,5.0743 0.9908,1.98003 1.85656,3.96086 2.84737,5.94167 0.12343,-0.12411 0.24686,-0.24787 0.24686,-0.24787 1.73391,-1.23851 2.59967,-3.21854 2.59967,-6.18857 -0.7431,-0.86657 -0.86657,-1.7331 -1.4854,-2.59967 -0.74233,-1.23851 -2.35197,-1.85657 -3.342,-2.84737 l 0,0 z"
         id="path18-4"
         style="fill:#00546b"
         inkscape:connector-curvature="0" />
      <path
         d="m 488.57768,569.51144 46.53854,0 c 5.4455,0 10.64406,-1.11346 14.85179,-3.0943 7.05595,-3.21773 10.39711,-7.54973 10.39711,-13.2437 l 0,-11.88257 c 0,-4.57893 -3.83741,-8.9109 -11.51057,-11.88177 -3.96006,-1.48463 -8.9117,-2.35119 -13.7391,-2.35119 l -19.55496,0 c -6.56051,0 -9.65481,-1.98081 -10.52134,-6.31281 -0.12411,-0.49463 -0.12411,-0.99003 -0.12411,-1.48463 l 0,-7.30287 c 0,-0.37113 0,-0.86653 0.12411,-1.36116 0.86656,-3.34197 2.59889,-4.20854 8.29286,-4.8274 0.49463,0 1.11347,0 1.48463,0 l 46.16818,0 0,-10.76831 -45.30164,0 c -6.55974,0 -10.02517,0.37117 -13.1195,1.36197 -9.53057,2.96926 -13.73911,7.67317 -13.73911,15.96603 l 0,9.40714 c 0,7.30203 8.16944,13.49063 22.03198,14.97603 1.48543,0.12343 3.0943,0.12343 4.70316,0.12343 l 16.70917,0 c 0.61887,0 1.23773,0 1.73314,0.12411 5.07429,0.49459 7.30203,1.36116 8.78743,3.21773 0.99003,0.98922 1.23773,1.85656 1.23773,2.97083 l 7.8e-4,9.40556 c 0,1.11424 -0.74311,2.60045 -2.22851,3.83815 -1.48466,1.23773 -3.8374,2.1043 -6.93174,2.22773 -0.61806,0 -0.99,0.12343 -1.60886,0.12343 l -44.68124,-7.7e-4 0,10.76907 7e-5,7e-5 z"
         id="path20-1"
         style="fill:#f57900;fill-opacity:1"
         inkscape:connector-curvature="0" />
      <path
         d="m 661.1157,550.82228 c 0,11.01438 8.29287,17.20376 24.87773,18.44146 1.60886,0.1241 3.09426,0.24787 4.70316,0.24787 l 42.08389,0 0,-10.76908 -42.45431,0 c -9.40633,0 -12.99674,-2.35042 -12.99674,-8.04439 l 7.7e-4,-55.69721 -16.21454,0 0,55.82148 4e-5,3e-5 z"
         id="path22-0"
         style="fill:#f57900;fill-opacity:1"
         inkscape:connector-curvature="0" />
      <path
         d="m 570.63788,551.3167 0,-38.36913 c 0,-9.77747 6.9309,-15.71914 20.42234,-17.57567 1.48621,-0.1241 2.97083,-0.24686 4.332,-0.24686 l 30.69517,-7.8e-4 c 1.61044,0 2.97083,0.12411 4.5797,0.24754 13.4914,1.85576 20.29887,7.7982 20.29887,17.57567 l 8.1e-4,38.36913 c 0,7.92097 -2.84741,12.13028 -9.53141,14.97684 l 15.8434,14.3572 -18.68916,0 -12.87251,-11.6348 -12.99603,0.74229 -17.32881,0 c -2.84582,0 -6.06514,-0.37036 -9.40633,-1.23692 -10.27367,-2.8466 -15.34797,-8.29287 -15.34797,-17.20457 l -7e-5,-4e-5 z m 17.45147,-0.86653 c 0,0.49459 0.24753,0.9908 0.37194,1.60967 0.86576,4.45543 5.07429,6.9309 11.51056,6.9309 l 14.60487,0 -13.36717,-12.13027 18.68997,0 11.75753,10.64487 c 2.22931,-1.23851 3.58967,-2.97007 4.08507,-5.1978 0.12343,-0.49537 0.12343,-1.11423 0.12343,-1.60964 l 0,-36.7603 c 0,-0.49463 0,-0.99003 -0.12343,-1.48463 -0.86653,-4.20857 -5.0751,-6.56054 -11.3871,-6.56054 l -24.38317,0 c -7.1786,0 -11.88257,3.0943 -11.88257,8.04517 l 0,36.51264 7e-5,-7e-5 z"
         id="path24-4"
         style="fill:#f57900;fill-opacity:1"
         inkscape:connector-curvature="0" />
      <path
         d="m 740.2059,569.63453 2.35197,0 0,-9.03513 3.0943,0 0,-1.85734 -8.6648,0 0,1.85734 3.21853,0 0,9.03513 0,0 z m 17.94771,0 2.22693,0 0,-10.8925 -3.3412,0 -2.72394,7.42627 -2.96925,-7.42627 -3.21851,0 0,10.8925 2.10427,0 0,-8.29286 0.12343,0 3.09427,8.29286 1.60967,0 3.0943,-8.29286 0,8.29286 0,0 z"
         id="path26-8"
         style="fill:#f57900;fill-opacity:1"
         inkscape:connector-curvature="0" />
    </g>
  </g>
</svg>
