<?xml version="1.0" encoding="UTF-8" standalone="no"?>
<!-- Created with Inkscape (http://www.inkscape.org/) -->

<svg
   xmlns:a="http://ns.adobe.com/AdobeSVGViewerExtensions/3.0/"
   xmlns:dc="http://purl.org/dc/elements/1.1/"
   xmlns:cc="http://creativecommons.org/ns#"
   xmlns:rdf="http://www.w3.org/1999/02/22-rdf-syntax-ns#"
   xmlns:svg="http://www.w3.org/2000/svg"
   xmlns="http://www.w3.org/2000/svg"
   xmlns:xlink="http://www.w3.org/1999/xlink"
   xmlns:sodipodi="http://sodipodi.sourceforge.net/DTD/sodipodi-0.dtd"
   xmlns:inkscape="http://www.inkscape.org/namespaces/inkscape"
   width="210mm"
   height="297mm"
   viewBox="0 0 744.09448819 1052.3622047"
   id="svg2"
   version="1.1"
   inkscape:version="0.91 r13725"
   inkscape:export-xdpi="7.1999736"
   inkscape:export-ydpi="7.1999736"
   sodipodi:docname="database-firebird.svg"
   inkscape:export-filename="C:\Users\johannes\Documents\Arbeit\RRZE\github3\bicons\32x32\logos\database-firebird.png">
  <defs
     id="defs4">
    <linearGradient
       gradientUnits="userSpaceOnUse"
       id="XMLID_2_-4"
       x1="216.1084"
       x2="216.1084"
       y1="348.98831"
       y2="7.2768998">
      <stop
         id="stop12094-0"
         offset="0"
         style="stop-color:#cc0000;stop-opacity:1;" />
      <stop
         id="stop12096-9"
         offset="1"
         style="stop-color:#edd400;stop-opacity:1;" />
      <a:midPointStop
         offset="0"
         style="stop-color:#F40A0B" />
      <a:midPointStop
         offset="0.5"
         style="stop-color:#F40A0B" />
      <a:midPointStop
         offset="1"
         style="stop-color:#F5E710" />
    </linearGradient>
    <linearGradient
       gradientTransform="translate(190,322.36221)"
       inkscape:collect="always"
       xlink:href="#linearGradient4269"
       id="linearGradient4275"
       x1="36.360001"
       y1="400"
       x2="381.82147"
       y2="0"
       gradientUnits="userSpaceOnUse" />
    <linearGradient
       inkscape:collect="always"
       id="linearGradient4269">
      <stop
         style="stop-color:#4e505d;stop-opacity:1;"
         offset="0"
         id="stop4271" />
      <stop
         style="stop-color:#7a859c;stop-opacity:1"
         offset="1"
         id="stop4273" />
    </linearGradient>
  </defs>
  <sodipodi:namedview
     id="base"
     pagecolor="#ffffff"
     bordercolor="#666666"
     borderopacity="1.0"
     inkscape:pageopacity="0.0"
     inkscape:pageshadow="2"
     inkscape:zoom="1"
     inkscape:cx="223.03231"
     inkscape:cy="570.49608"
     inkscape:document-units="px"
     inkscape:current-layer="layer1"
     showgrid="false"
     showguides="true"
     inkscape:guide-bbox="true"
     inkscape:window-width="1366"
     inkscape:window-height="721"
     inkscape:window-x="-4"
     inkscape:window-y="-4"
     inkscape:window-maximized="1"
     inkscape:snap-bbox="true"
     inkscape:bbox-paths="true"
     inkscape:bbox-nodes="true"
     inkscape:snap-nodes="false">
    <sodipodi:guide
       position="560,730.00002"
       orientation="0,1"
       id="guide3338" />
    <sodipodi:guide
       position="560,330.00001"
       orientation="0,1"
       id="guide3340" />
    <sodipodi:guide
       position="190,475.00001"
       orientation="1,0"
       id="guide3344" />
    <sodipodi:guide
       position="590,451.00001"
       orientation="1,0"
       id="guide3346" />
    <inkscape:grid
       type="xygrid"
       id="grid3440" />
  </sodipodi:namedview>
  <metadata
     id="metadata7">
    <rdf:RDF>
      <cc:Work
         rdf:about="">
        <dc:format>image/svg+xml</dc:format>
        <dc:type
           rdf:resource="http://purl.org/dc/dcmitype/StillImage" />
        <dc:title>database firebird</dc:title>
        <dc:date>June 2015</dc:date>
        <dc:creator>
          <cc:Agent>
            <dc:title>Franziska Sponsel, Johannes Hechler</dc:title>
          </cc:Agent>
        </dc:creator>
        <dc:rights>
          <cc:Agent>
            <dc:title>Franziska Sponsel, Johannes Hechler</dc:title>
          </cc:Agent>
        </dc:rights>
        <dc:publisher>
          <cc:Agent>
            <dc:title>RRZE</dc:title>
          </cc:Agent>
        </dc:publisher>
        <dc:contributor>
          <cc:Agent>
            <dc:title>Ute Weber, Hendrik Eggers, Joanna Barbach</dc:title>
          </cc:Agent>
        </dc:contributor>
        <dc:subject>
          <rdf:Bag>
            <rdf:li>database</rdf:li>
            <rdf:li>symbol</rdf:li>
            <rdf:li>icon</rdf:li>
            <rdf:li>firebird</rdf:li>
          </rdf:Bag>
        </dc:subject>
        <cc:license
           rdf:resource="http://creativecommons.org/licenses/by-sa/3.0/" />
      </cc:Work>
      <cc:License
         rdf:about="http://creativecommons.org/licenses/by-sa/3.0/">
        <cc:permits
           rdf:resource="http://creativecommons.org/ns#Reproduction" />
        <cc:permits
           rdf:resource="http://creativecommons.org/ns#Distribution" />
        <cc:requires
           rdf:resource="http://creativecommons.org/ns#Notice" />
        <cc:requires
           rdf:resource="http://creativecommons.org/ns#Attribution" />
        <cc:permits
           rdf:resource="http://creativecommons.org/ns#DerivativeWorks" />
        <cc:requires
           rdf:resource="http://creativecommons.org/ns#ShareAlike" />
      </cc:License>
    </rdf:RDF>
  </metadata>
  <g
     inkscape:label="Ebene 1"
     inkscape:groupmode="layer"
     id="layer1">
    <g
       id="g4177">
      <rect
         y="322.36221"
         x="190"
         height="400"
         width="400"
         id="rect4160-4"
         style="opacity:1;fill:none;fill-opacity:1;stroke:none;stroke-width:23;stroke-linecap:butt;stroke-linejoin:round;stroke-miterlimit:4;stroke-dasharray:none;stroke-opacity:1" />
      <path
         id="rect4239"
         d="M 390 322.36133 C 289.58236 322.36141 208.17828 350.85004 208.17969 385.99219 C 208.18156 418.8703 279.44067 445.91911 370.85547 449.26758 C 373.74121 447.52751 376.685 445.87391 379.6875 444.31836 C 381.83172 443.20747 384.00862 442.14113 386.2207 441.12305 C 387.32769 440.61358 388.43827 440.11832 389.55273 439.63672 C 390.67258 439.15279 391.79823 438.68349 392.92773 438.22656 C 394.04654 437.77397 395.18418 437.32749 396.3418 436.89062 C 397.49086 436.45699 398.64333 436.03729 399.79688 435.63281 C 400.96961 435.22161 402.1334 434.82982 403.28906 434.45508 C 406.79865 433.31703 410.36704 432.29847 413.98633 431.4043 C 415.18916 431.10712 416.39934 430.82335 417.61914 430.55273 C 420.05302 430.01278 422.50865 429.52755 424.98438 429.10156 C 426.2208 428.88881 427.46412 428.69194 428.71289 428.50781 C 431.21283 428.13923 433.72682 427.82921 436.25391 427.58008 C 437.50996 427.45625 438.77998 427.3455 440.06445 427.25 A 18.0018 18.0018 0 0 1 441.39844 427.20117 A 18.0018 18.0018 0 0 1 449.30078 429.04688 A 18.0018 18.0018 0 0 1 458.43945 426.98438 C 474.16211 427.67984 489.27029 430.7004 503.4375 435.70117 C 545.1025 424.04145 571.82131 406.11377 571.82227 385.99219 C 571.75027 384.6969 571.56533 383.40267 571.26758 382.11133 C 570.98101 380.47215 570.51321 378.83746 569.86523 377.21094 C 557.35775 345.79389 480.64031 322.39904 390 322.36133 z M 208.17969 422.16602 L 208.17969 477.08594 C 208.39013 501.18934 246.87698 522.13048 303.46289 532.86719 C 303.55764 532.58906 303.64592 532.30874 303.74219 532.03125 C 305.3381 527.43098 307.14327 522.92987 309.14453 518.53516 C 309.63928 517.44873 310.15075 516.35537 310.68164 515.25781 C 311.20531 514.17517 311.74232 513.09574 312.29297 512.02148 C 312.84729 510.94007 313.40908 509.8769 313.97656 508.83008 C 314.54964 507.77294 315.13408 506.72177 315.73047 505.67969 C 316.32399 504.64259 316.93284 503.60897 317.55469 502.57812 C 318.1746 501.55052 318.8052 500.53063 319.44727 499.51953 C 320.08694 498.51217 320.73891 497.50928 321.40625 496.50977 C 322.07051 495.51486 322.74619 494.52711 323.43359 493.54688 C 324.11971 492.56847 324.81785 491.59494 325.52734 490.63086 C 326.24364 489.65754 326.96519 488.70353 327.6875 487.76758 C 329.14775 485.87539 330.64963 484.01939 332.19336 482.19727 C 332.9677 481.28329 333.7511 480.38065 334.54102 479.49023 C 337.71083 475.91715 341.04219 472.48971 344.52539 469.21875 C 345.3919 468.40504 346.27193 467.59694 347.16602 466.79492 C 347.46706 466.52487 347.78273 466.2562 348.08789 465.98633 C 312.90705 463.21041 281.21021 456.97626 255.48828 447.97461 C 237.68959 441.74578 222.67629 434.2947 210.99414 424.62891 C 210.0348 423.83515 209.10099 423.00734 208.17969 422.16602 z M 571.82227 422.16602 C 570.90097 423.00734 569.96716 423.83515 569.00781 424.62891 C 558.06415 433.68368 544.19708 440.79575 527.85547 446.7793 C 544.34399 456.04069 558.97798 468.19549 571.08203 482.53516 C 571.54907 480.67576 571.80264 478.79441 571.80273 476.89258 L 571.80273 483.38086 C 571.80956 483.38906 571.81544 483.39805 571.82227 483.40625 L 571.82227 422.16602 z M 456.52539 463.41406 C 448.8547 464.42494 440.96382 465.25522 432.89062 465.9082 C 401.11584 475.71052 370.96552 498.96311 357.02734 528.17969 C 355.32376 531.75067 353.82422 535.41366 352.55273 539.16406 C 357.69794 539.54115 362.93172 539.83141 368.22656 540.05273 C 368.18768 539.67637 368.1489 539.3004 368.12695 538.91797 C 367.6476 530.5659 371.3999 523.20602 375.68164 518.16602 C 379.96338 513.12601 385.01123 509.42194 390.91211 505.86719 A 18.0018 18.0018 0 0 1 393.74023 504.48438 C 395.73483 503.71722 397.69369 503.13393 399.64648 502.69336 C 400.8386 499.28473 402.71679 495.95978 405.75391 492.91406 C 415.10334 483.53814 427.18853 484.38091 436.53125 486.58398 A 18.0018 18.0018 0 0 1 438.7207 487.25 C 440.229 487.81562 441.60369 488.3543 442.9043 488.86328 C 458.96367 494.98782 471.18656 498.47825 478.22656 499.83984 A 18.0018 18.0018 0 0 1 509.43555 504.74414 C 511.38252 510.22939 513.26924 517.02069 511.19531 524.30664 C 519.7796 521.61713 527.63792 518.65205 534.63477 515.44141 C 530.62772 508.22737 525.27296 501.59916 518.375 495.3125 C 504.54234 482.7057 484.08521 471.75765 456.52539 463.41406 z M 443.63477 498.74414 C 443.70895 498.77626 443.76429 498.81536 443.83789 498.84766 C 443.92055 498.88618 444.01896 498.91658 444.10156 498.95508 L 443.63477 498.74414 z M 485.59766 506.29492 C 485.59336 506.29592 485.57336 506.3003 485.56836 506.30078 C 485.74778 506.32758 485.90539 506.32972 486.08594 506.35742 L 485.59766 506.29492 z M 208.17969 513.08398 L 208.17969 568.16406 C 208.38617 591.81406 245.47006 612.40552 300.31641 623.31445 C 296.93657 610.52605 295.13281 597.10769 295.13281 583.2832 C 295.13281 582.00476 295.14899 580.73029 295.17969 579.46094 C 295.21016 578.1989 295.25501 576.93236 295.31641 575.66016 C 295.4387 573.12514 295.62266 570.61199 295.86328 568.12109 C 295.98383 566.87311 296.11935 565.62719 296.26953 564.38477 C 296.41792 563.15713 296.58072 561.91989 296.76172 560.67383 C 296.94126 559.4378 297.13462 558.21066 297.3418 556.99023 C 297.55135 555.75583 297.77383 554.53562 298.00781 553.33203 C 298.20302 552.32796 298.41764 551.31327 298.63672 550.29492 C 282.94672 547.24691 268.443 543.41547 255.46875 538.875 C 237.67006 532.64617 222.65677 525.19509 210.97461 515.5293 C 210.022 514.74111 209.0947 513.9192 208.17969 513.08398 z M 437.07227 525.06641 L 435.84766 529.11133 C 436.31159 529.31587 436.79277 529.63646 437.25781 529.87305 C 438.91023 529.06167 440.49863 528.07316 441.97266 526.86328 C 440.40827 526.30676 438.70818 525.66827 437.07227 525.06641 z M 541.28516 532.22266 C 536.00653 534.59843 530.40774 536.80548 524.49414 538.875 C 519.75804 540.53245 514.80631 542.09019 509.68164 543.55664 C 510.9332 546.30984 511.86353 549.26178 512.33008 552.4668 A 18.0018 18.0018 0 0 1 512.38867 552.91016 C 515.06795 575.18152 504.67975 596.79345 486.81641 617.32031 C 507.38676 615.7201 519.9844 609.2858 528.70703 598.32227 C 537.78692 586.90969 543.42286 568.29394 543.01367 540.67383 C 542.57445 537.7614 541.99107 534.95382 541.28516 532.22266 z M 444.10547 534.70703 C 444.35118 534.92104 444.6107 535.20301 444.85938 535.42383 C 444.91232 535.47623 444.95852 535.49953 445.01172 535.55273 L 444.10547 534.70703 z M 470.84961 552.18555 C 465.76801 553.03124 460.5797 553.79961 455.28516 554.48242 C 455.98946 561.0889 454.75445 568.17349 451.55664 573.07227 C 446.18042 581.36679 439.08953 585.52412 430.87109 589.5625 A 18.0018 18.0018 0 0 1 428.44531 590.54297 C 402.72032 598.81708 394.58064 608.37062 393.13281 624.70117 L 393.13281 631.57227 C 413.10114 631.45302 432.28014 630.2122 450.18359 628.01367 C 447.2408 616.58864 451.0776 604.32606 458.39062 595.21484 A 18.0018 18.0018 0 0 1 458.94727 594.55469 C 473.29351 578.33937 477.39544 566.3315 476.67578 557.93359 C 476.51085 557.6741 475.85031 556.45575 473.53125 554.36719 C 472.78421 553.6944 471.8723 552.95795 470.84961 552.18555 z M 348.4668 556.91797 C 346.4216 573.59792 349.17186 591.82449 358.95312 611.61523 C 363.44613 593.62349 375.49261 578.64666 392.46094 567.9043 C 387.14715 565.3878 382.32925 562.63103 378.07812 558.69922 C 377.96838 558.59772 377.86139 558.47896 377.75195 558.375 C 367.76482 558.15466 357.99106 557.6618 348.4668 556.91797 z M 208.17969 604.16211 L 208.17969 658.55469 C 208.17269 658.60029 208.16656 658.64579 208.16016 658.69141 C 208.16209 692.60362 283.97747 720.31154 379.52344 722.20898 C 346.87916 705.23324 321.00898 677.07281 306.9043 642.88672 C 288.01616 639.63608 270.69277 635.28092 255.46875 629.95312 C 237.67006 623.72429 222.65677 616.27321 210.97461 606.60742 C 210.022 605.81924 209.0947 604.99734 208.17969 604.16211 z M 570.01953 605.72656 C 569.67754 606.02256 569.33637 606.31941 568.98828 606.60742 C 567.31743 607.98988 565.57116 609.32244 563.76562 610.61719 C 561.69952 614.16134 559.41565 617.54347 556.87695 620.73438 C 540.50413 641.3135 514.91027 652.10185 485.17383 653.56055 A 18.0018 18.0018 0 0 1 481.94531 653.42773 C 474.39346 652.43511 467.00742 649.48252 461.15234 644.75195 C 440.78162 647.65761 418.80951 649.31225 395.80859 649.55273 C 399.48581 666.59314 405.39004 677.84676 411.90039 684.68164 C 416.39405 689.08416 429.51251 698.25415 441.82227 702.07227 A 18.0018 18.0018 0 0 1 441.875 702.08789 C 447.27541 703.78123 452.23532 704.54287 456.63477 704.32422 A 18.0018 18.0018 0 0 1 456.71289 704.32031 C 514.99434 701.68152 560.37789 661.67934 570.01953 605.72656 z "
         style="color:#000000;clip-rule:nonzero;display:inline;overflow:visible;visibility:visible;opacity:1;isolation:auto;mix-blend-mode:normal;color-interpolation:sRGB;color-interpolation-filters:linearRGB;solid-color:#000000;solid-opacity:1;fill:url(#linearGradient4275);fill-opacity:1;fill-rule:nonzero;stroke:none;stroke-width:36;stroke-linecap:butt;stroke-linejoin:round;stroke-miterlimit:4;stroke-dasharray:none;stroke-dashoffset:0;stroke-opacity:1;color-rendering:auto;image-rendering:auto;shape-rendering:auto;text-rendering:auto;enable-background:accumulate" />
      <path
         id="rect4277"
         d="m 190.00001,322.36219 400.00146,0 c 0,0 0,0 0,10e-6 l 0,399.99997 c 0,0 0,0 0,0 l -400.00146,0 c -1e-5,0 -1e-5,0 -1e-5,0 l 0,-399.99997 c 0,-10e-6 0,-10e-6 1e-5,-10e-6 z"
         style="color:#000000;clip-rule:nonzero;display:inline;overflow:visible;visibility:visible;opacity:1;isolation:auto;mix-blend-mode:normal;color-interpolation:sRGB;color-interpolation-filters:linearRGB;solid-color:#000000;solid-opacity:1;fill:none;fill-opacity:1;fill-rule:nonzero;stroke:none;stroke-width:36;stroke-linecap:butt;stroke-linejoin:round;stroke-miterlimit:4;stroke-dasharray:none;stroke-dashoffset:0;stroke-opacity:1;color-rendering:auto;image-rendering:auto;shape-rendering:auto;text-rendering:auto;enable-background:accumulate"
         inkscape:connector-curvature="0" />
      <rect
         y="322.36221"
         x="190"
         height="400"
         width="400"
         id="rect4160"
         style="opacity:1;fill:none;fill-opacity:1;stroke:none;stroke-width:23;stroke-linecap:butt;stroke-linejoin:round;stroke-miterlimit:4;stroke-dasharray:none;stroke-opacity:1" />
      <path
         inkscape:connector-curvature="0"
         id="path12091-4"
         d="m 457.64453,444.96672 c 62.70116,17.99808 97.11965,49.37928 103.37305,94.19922 1.28558,61.64933 -24.31164,93.84484 -76.72656,96.41601 -16.88781,-2.21975 -22.32322,-16.06771 -11.86329,-29.09961 16.59563,-18.75777 23.95979,-35.87806 22.08985,-51.42187 -1.344,-9.23278 -11.92088,-18.75903 -31.73047,-28.57617 2.68803,-3.27237 9.52407,-4.03053 20.56836,-2.33594 9.5834,0.99339 12.6225,-3.50723 9.11719,-13.38281 2.80488,11.97926 -15.83732,10.2261 -55.98243,-5.08399 -1.34402,-0.52592 -2.68738,-1.05219 -4.08984,-1.57812 -13.38171,-3.1555 -18.52496,2.04619 -15.48633,15.48632 -7.36287,-0.29217 -12.91457,0.23444 -16.71289,1.69532 -19.40055,11.68709 -18.81519,22.14594 1.8125,31.32031 1.05184,-6.48633 7.65402,-9.52445 19.8086,-9.17383 5.31762,1.57776 8.82473,3.21343 10.46093,4.84961 1.81149,1.57776 3.27206,3.09786 4.20703,4.61719 2.27899,3.44771 2.27899,6.89412 0,10.3418 -2.22055,3.44769 -6.77815,6.83714 -13.55664,10.16796 -29.97735,9.64183 -45.87241,26.41227 -47.80078,50.25391 l 0,10.05273 c 0,0.17369 0.0586,0.35016 0.0586,0.5254 3.09709,29.68515 11.51207,50.2536 23.90039,63.10937 7.01223,6.9538 21.38714,16.94784 37.39843,21.91406 6.89539,2.1621 13.96641,3.39048 21.03711,3.03907 C 532.38387,718.9134 590,659.77504 590,583.28312 590,509.24548 531.62372,448.23909 457.64453,444.96672 Z m -16.24609,0.23437 c -1.13036,0.084 -2.25672,0.18234 -3.37891,0.29297 -2.24438,0.22126 -4.47174,0.49449 -6.68164,0.82031 -1.10495,0.16292 -2.2049,0.33878 -3.30078,0.52735 -2.19176,0.37713 -4.36588,0.80541 -6.51953,1.2832 -1.07683,0.2389 -2.14799,0.49033 -3.21485,0.75391 -3.20055,0.79072 -6.35559,1.69226 -9.46093,2.69922 -1.03512,0.33565 -2.06592,0.68198 -3.08985,1.04101 -1.02393,0.35903 -2.04224,0.72925 -3.05468,1.11133 -1.01245,0.38208 -2.01887,0.77684 -3.01954,1.18164 -1.00066,0.4048 -1.99579,0.82085 -2.98437,1.24805 -0.98858,0.4272 -1.97108,0.86518 -2.94727,1.31445 -1.95237,0.89855 -3.87828,1.84129 -5.77929,2.82617 -3.80204,1.96978 -7.4999,4.10869 -11.08203,6.4082 -2.6866,1.72464 -5.30792,3.5396 -7.86133,5.43946 -0.85114,0.63329 -1.69552,1.27563 -2.53125,1.92773 -0.83574,0.65211 -1.66239,1.31378 -2.48242,1.98438 -0.82004,0.6706 -1.63348,1.35029 -2.4375,2.03906 -0.80403,0.68877 -1.599,1.38714 -2.38672,2.09375 -0.78773,0.70661 -1.56678,1.42236 -2.33789,2.14648 -3.08446,2.89651 -6.03511,5.93195 -8.8418,9.09571 -0.70167,0.79094 -1.39457,1.58965 -2.07813,2.39648 -1.36711,1.61366 -2.69738,3.25833 -3.99023,4.9336 -0.64643,0.83763 -1.2847,1.68261 -1.91211,2.53515 -0.62741,0.85255 -1.24543,1.71295 -1.85352,2.58008 -0.60808,0.86713 -1.20645,1.74165 -1.79492,2.62305 -0.58847,0.88139 -1.16583,1.76873 -1.73437,2.66406 -0.56855,0.89533 -1.12746,1.79809 -1.67578,2.70703 -0.54833,0.90895 -1.08549,1.82386 -1.61328,2.74609 -0.5278,0.92224 -1.04577,1.85192 -1.55274,2.78711 -0.50697,0.9352 -1.00439,1.8764 -1.49023,2.82422 -0.48585,0.94783 -0.96137,1.90315 -1.42578,2.86328 -0.46442,0.96014 -0.91669,1.92632 -1.35938,2.89844 -1.77074,3.88849 -3.36635,7.87029 -4.77734,11.9375 -0.35275,1.01681 -0.69393,2.03925 -1.02344,3.06641 -0.65902,2.05432 -1.27167,4.12886 -1.83594,6.22265 -0.28213,1.0469 -0.55255,2.09802 -0.81054,3.1543 -0.258,1.05628 -0.50474,2.11826 -0.73829,3.18359 -0.23354,1.06534 -0.4533,2.13492 -0.66211,3.20899 -0.2088,1.07406 -0.40608,2.15191 -0.58984,3.23437 -0.18376,1.08247 -0.35526,2.16922 -0.51367,3.25977 -0.15841,1.09055 -0.30279,2.1849 -0.43555,3.2832 -0.13276,1.0983 -0.25256,2.20091 -0.35937,3.30664 -0.21363,2.21146 -0.37636,4.43657 -0.48438,6.67578 -0.054,1.11961 -0.0939,2.24309 -0.12109,3.36914 -0.0272,1.12606 -0.041,2.25454 -0.041,3.38672 0,57.03211 34.47742,106.06139 83.79688,127.27344 l 6.25195,3.1543 C 385.82634,698.28394 374.49093,682.56643 371.86135,661.705 279.12441,557.281 358.5371,461.56301 441.39846,445.20109 Z m -9.56641,68.64844 c 1.18875,0.0484 2.74079,0.52123 4.6582,1.41602 2.16212,0.93497 4.6741,2.45461 7.6543,4.4414 l -7.6543,0 -7.24609,0 c -0.88382,-4.01743 -0.0274,-5.96398 2.58789,-5.85742 z"
         style="clip-rule:evenodd;fill:#99b000;fill-opacity:1;fill-rule:evenodd" />
    </g>
  </g>
</svg>
