<?xml version="1.0" encoding="UTF-8" standalone="no"?>
<!-- Created with Inkscape (http://www.inkscape.org/) -->

<svg
   xmlns:dc="http://purl.org/dc/elements/1.1/"
   xmlns:cc="http://creativecommons.org/ns#"
   xmlns:rdf="http://www.w3.org/1999/02/22-rdf-syntax-ns#"
   xmlns:svg="http://www.w3.org/2000/svg"
   xmlns="http://www.w3.org/2000/svg"
   xmlns:xlink="http://www.w3.org/1999/xlink"
   xmlns:sodipodi="http://sodipodi.sourceforge.net/DTD/sodipodi-0.dtd"
   xmlns:inkscape="http://www.inkscape.org/namespaces/inkscape"
   width="210mm"
   height="297mm"
   viewBox="0 0 744.09448819 1052.3622047"
   id="svg2"
   version="1.1"
   inkscape:version="0.91 r13725"
   sodipodi:docname="database-postgres.svg"
   inkscape:export-filename="C:\Users\johannes\Documents\Arbeit\RRZE\bi-con\bi-con\scalable\documents\document.png"
   inkscape:export-xdpi="4"
   inkscape:export-ydpi="4">
  <defs
     id="defs4">
    <linearGradient
       inkscape:collect="always"
       id="linearGradient4191">
      <stop
         style="stop-color:#9397a2;stop-opacity:1;"
         offset="0"
         id="stop4193" />
      <stop
         style="stop-color:#5a6578;stop-opacity:1"
         offset="1"
         id="stop4195" />
    </linearGradient>
    <inkscape:perspective
       sodipodi:type="inkscape:persp3d"
       inkscape:vp_x="0 : 526.1811 : 1"
       inkscape:vp_y="0 : 1000 : 0"
       inkscape:vp_z="744.09449 : 526.1811 : 1"
       inkscape:persp3d-origin="372.04724 : 350.7874 : 1"
       id="perspective4149" />
    <linearGradient
       id="linearGradient2224">
      <stop
         id="stop2226"
         offset="0"
         style="stop-color:#7c7c7c;stop-opacity:1;" />
      <stop
         id="stop2228"
         offset="1"
         style="stop-color:#b8b8b8;stop-opacity:1;" />
    </linearGradient>
    <linearGradient
       id="linearGradient15218">
      <stop
         id="stop15220"
         offset="0"
         style="stop-color:#eeeeef;stop-opacity:1;" />
      <stop
         id="stop2736"
         offset="0.59928656"
         style="stop-color:#d3d7cf;stop-opacity:1;" />
      <stop
         id="stop2738"
         offset="0.82758623"
         style="stop-color:#ffffff;stop-opacity:1;" />
      <stop
         id="stop15222"
         offset="1"
         style="stop-color:#d3d7cf;stop-opacity:1;" />
    </linearGradient>
    <pattern
       y="0"
       x="0"
       height="6"
       width="6"
       patternUnits="userSpaceOnUse"
       id="EMFhbasepattern" />
    <pattern
       y="0"
       x="0"
       height="6"
       width="6"
       patternUnits="userSpaceOnUse"
       id="EMFhbasepattern-5" />
    <linearGradient
       inkscape:collect="always"
       xlink:href="#linearGradient4191"
       id="linearGradient4197"
       x1="590"
       y1="362.22598"
       x2="229.1026"
       y2="686.08087"
       gradientUnits="userSpaceOnUse" />
  </defs>
  <sodipodi:namedview
     id="base"
     pagecolor="#ffffff"
     bordercolor="#666666"
     borderopacity="1.0"
     inkscape:pageopacity="0.0"
     inkscape:pageshadow="2"
     inkscape:zoom="1"
     inkscape:cx="359.92205"
     inkscape:cy="459.99135"
     inkscape:document-units="px"
     inkscape:current-layer="layer1"
     showgrid="false"
     showguides="true"
     inkscape:guide-bbox="true"
     inkscape:window-width="1366"
     inkscape:window-height="721"
     inkscape:window-x="-4"
     inkscape:window-y="-4"
     inkscape:window-maximized="1">
    <sodipodi:guide
       position="560,730.00002"
       orientation="0,1"
       id="guide3338" />
    <sodipodi:guide
       position="560,330.00001"
       orientation="0,1"
       id="guide3340" />
    <sodipodi:guide
       position="190,475.00001"
       orientation="1,0"
       id="guide3344" />
    <sodipodi:guide
       position="590,451.00001"
       orientation="1,0"
       id="guide3346" />
    <inkscape:grid
       type="xygrid"
       id="grid3440" />
  </sodipodi:namedview>
  <metadata
     id="metadata7">
    <rdf:RDF>
      <cc:Work
         rdf:about="">
        <dc:format>image/svg+xml</dc:format>
        <dc:type
           rdf:resource="http://purl.org/dc/dcmitype/StillImage" />
        <dc:title></dc:title>
      </cc:Work>
    </rdf:RDF>
  </metadata>
  <g
     inkscape:label="Ebene 1"
     inkscape:groupmode="layer"
     id="layer1">
    <rect
       style="opacity:1;fill:none;fill-opacity:1;stroke:none;stroke-width:23;stroke-linecap:butt;stroke-linejoin:round;stroke-miterlimit:4;stroke-dasharray:none;stroke-opacity:1"
       id="rect4160"
       width="400"
       height="400"
       x="190"
       y="322.36221" />
    <path
       style="color:#000000;clip-rule:nonzero;display:inline;overflow:visible;visibility:visible;opacity:1;isolation:auto;mix-blend-mode:normal;color-interpolation:sRGB;color-interpolation-filters:linearRGB;solid-color:#000000;solid-opacity:1;fill:url(#linearGradient4197);fill-opacity:1;fill-rule:nonzero;stroke:none;stroke-width:3.5999999;stroke-linecap:butt;stroke-linejoin:round;stroke-miterlimit:4;stroke-dasharray:none;stroke-dashoffset:0;stroke-opacity:1;color-rendering:auto;image-rendering:auto;shape-rendering:auto;text-rendering:auto;enable-background:accumulate"
       d="M 389.39258 323.16016 C 280.14994 323.16016 191.5918 347.76016 191.5918 378.10547 C 190.95427 411.74104 188.51132 437.01129 191.5918 466.21484 C 191.5918 466.21484 207.99752 482.55282 255.63672 495.30859 C 258.22964 484.92584 262.72472 476.5107 268.82422 470.06445 C 279.82727 458.43588 294.71922 454.28584 308.32227 453.54688 C 328.0805 452.47351 346.68062 457.93192 355.53711 461.02734 C 364.6036 455.72493 375.76692 452.46485 388.86328 452.67969 L 388.86523 452.67969 C 395.76232 452.79129 402.01569 453.48313 407.89258 454.51367 C 408.14533 454.43519 408.30828 454.37562 408.5918 454.29102 C 410.49573 453.72314 413.09012 453.0269 416.25977 452.34961 C 422.59906 450.99503 431.23048 449.70831 441.10156 449.82617 C 460.84372 450.06189 486.36116 456.47201 504.50977 479.66016 C 508.87991 485.24354 510.40757 491.48552 510.83398 498.36328 C 568.03545 485.34343 587.19336 466.21484 587.19336 466.21484 C 590.0345 428.43722 589.02258 401.54833 587.19336 378.10547 C 587.19336 347.76016 498.63522 323.16016 389.39258 323.16016 z M 440.83398 472.26367 C 433.09729 472.1713 426.02572 473.21018 420.94922 474.29492 C 418.41097 474.83729 416.36754 475.38878 415.00586 475.79492 C 414.41361 475.97157 414.0169 476.10362 413.71484 476.20508 L 412.88672 476.65234 L 408.68945 477.42773 L 406.53711 476.98047 C 401.33347 475.90086 395.36775 475.22627 388.5 475.11523 L 388.49805 475.11523 L 388.49609 475.11523 C 377.01376 474.92658 369.48609 477.8966 363.57617 482.37891 L 358.46094 486.25977 L 352.52344 483.81445 C 352.52344 483.81445 329.6371 474.86142 309.54102 475.95312 C 299.49298 476.49898 291.01538 479.26303 285.125 485.48828 C 281.94668 488.84729 279.15067 493.55457 277.40234 500.38867 C 305.75586 506.07613 342.44995 510.17188 389.39258 510.17188 C 429.51207 510.17188 462.14366 507.17918 488.48633 502.75977 C 488.24115 496.93679 486.78593 493.42377 486.83789 493.49023 C 473.62043 476.60253 456.30738 472.44842 440.83398 472.26367 z M 191.5918 481.40234 C 189.12267 512.48023 188.22938 541.36006 191.5918 571.70898 C 191.5918 571.70898 211.87343 591.92762 272.91211 604.93945 C 272.59628 604.1008 272.27493 603.27648 271.96289 602.42773 C 266.36048 587.18939 261.88366 570.48442 258.6875 556.2207 C 255.49158 541.95802 253.57832 530.93803 253.24023 524.18164 C 252.93916 518.16267 253.0683 512.54035 253.58984 507.30273 C 212.26824 495.17569 191.5918 481.40234 191.5918 481.40234 z M 587.19336 481.40234 C 587.19336 481.40234 561.67441 498.39998 510.66992 511.25586 C 510.0511 519.46573 508.44852 528.49733 505.95312 538.1582 C 500.69239 558.52508 491.45981 581.53568 478.59375 603.20898 C 481.86275 603.14492 486.06944 602.79687 491.96875 601.58008 C 496.43856 600.6574 500.60368 598.7479 507.22266 603.77734 C 507.49939 603.98762 507.76389 604.2245 508.02148 604.47266 C 567.38051 591.44982 587.19336 571.70898 587.19336 571.70898 C 590.18386 540.56595 590.06315 511.81285 587.19336 481.40234 z M 275.62109 513.07031 C 275.47505 516.11984 275.47076 519.43047 275.65234 523.06055 C 275.79363 525.88568 277.5516 537.78161 280.58398 551.31445 C 283.61637 564.8473 287.92572 580.81799 293.02344 594.68359 C 295.02188 600.11928 297.23315 605.21918 299.44336 609.69336 C 307.15996 610.82598 315.37252 611.83224 324.10742 612.68359 C 332.01472 603.66788 338.12891 597.23242 338.12891 597.23242 L 344.61914 590.40234 L 352.46875 595.61719 C 355.15267 597.40015 358.07443 598.46747 361.18164 598.71289 L 379.81836 582.81836 L 377.11523 610.48242 C 377.04655 611.18539 377.04708 611.76386 377.25195 613.08594 L 377.63672 615.57227 C 381.48774 615.6301 385.39427 615.66602 389.39258 615.66602 C 412.60541 615.66602 433.30051 614.66036 451.73633 612.96094 C 451.24297 611.73364 450.98438 610.80859 450.98438 610.80859 L 450.04883 606.20117 L 452.67578 602.30469 C 467.78636 579.88603 478.68816 553.99625 484.22852 532.54688 C 485.72167 526.76612 486.80803 521.31988 487.52148 516.38672 C 460.35443 521.64412 427.67115 525.35742 389.39258 525.35742 C 343.46147 525.35742 305.55383 520.02097 275.62109 513.07031 z M 191.5918 586.89648 C 189.12267 617.97437 188.22938 648.85615 191.5918 679.20508 C 191.5918 679.20508 235.54707 723.16016 389.39258 723.16016 C 543.23804 723.16016 587.19336 679.20508 587.19336 679.20508 C 590.18386 648.06204 590.06315 617.30698 587.19336 586.89648 C 587.19336 586.89648 562.11054 603.58804 512.02148 616.40039 C 511.55144 619.14896 510.48878 620.87692 509.50977 622.35352 C 505.04945 629.08075 498.92139 632.8737 490.82031 636.63281 L 490.81445 636.63477 C 481.66801 640.88221 470.71837 642.32629 460.62695 641.86719 L 460.39062 641.85547 L 458.60156 641.69727 C 458.33384 643.01222 458.09848 643.8235 457.88086 645.59375 C 457.16609 671.62005 453.61664 687.73761 445.73633 698.95703 C 437.75085 710.32619 425.70911 713.98103 416.25977 716.00586 C 402.84699 718.88024 391.06107 714.54685 385.05273 707.60742 C 379.0444 700.66799 377.52545 692.80182 376.96484 691.28906 L 376.96289 691.28906 C 373.50131 681.94641 373.22226 671.29658 372.75977 659.77539 C 372.61174 656.08322 372.47233 652.43825 372.34375 648.71094 C 369.04526 650.17914 365.74516 651.33383 362.60352 651.87109 C 353.38422 653.44772 345.52439 651.90921 340.92773 650.75977 C 338.36865 650.11986 335.89609 649.19702 333.35547 647.80664 C 331.3414 646.70442 329.13272 645.50739 327.06055 642.78711 C 322.80175 646.29537 317.88608 648.69243 312.43359 648.92383 C 304.65228 649.25406 298.06793 645.3259 293.27734 640.66992 C 287.41599 634.97326 282.84817 627.63294 278.90039 619.30664 C 220.71892 606.28315 191.5918 586.89648 191.5918 586.89648 z M 496.89844 623.56641 C 497.98167 623.92942 497.87982 623.53691 496.89844 623.56641 z M 309.375 625.00391 C 310.72426 626.2319 311.3838 626.46027 311.50977 626.49414 C 311.62583 626.46734 312.05405 626.29354 312.90625 625.54492 C 311.70822 625.37171 310.55528 625.18368 309.375 625.00391 z M 437.75977 628.78711 C 423.87924 629.99797 409.03145 630.72931 393.2168 630.83203 C 393.25236 631.02033 393.28622 631.2233 393.32617 631.4082 C 393.96308 634.35604 394.25419 637.30065 394.47461 640.41797 C 394.91539 646.65195 394.96642 653.50568 395.18164 658.875 L 395.18164 658.87695 C 395.62654 669.95714 396.86012 680.39988 398.00586 683.49219 C 399.74894 688.19581 400.74007 691.44444 402.01758 692.91992 C 403.29509 694.3954 403.56841 695.77676 411.55859 694.06445 C 419.99697 692.25625 423.73682 691.2356 427.37305 686.05859 C 431.00928 680.88159 434.90467 668.76677 435.50391 644.09375 L 446.70898 644.36523 L 435.58008 643.0293 C 436.24151 637.51938 435.49154 633.76882 437.75977 628.78711 z "
       id="path4165" />
    <circle
       style="color:#000000;clip-rule:nonzero;display:inline;overflow:visible;visibility:visible;opacity:1;isolation:auto;mix-blend-mode:normal;color-interpolation:sRGB;color-interpolation-filters:linearRGB;solid-color:#000000;solid-opacity:1;fill:#ffffff;fill-opacity:1;fill-rule:nonzero;stroke:none;stroke-width:3.5999999;stroke-linecap:butt;stroke-linejoin:round;stroke-miterlimit:4;stroke-dasharray:none;stroke-dashoffset:0;stroke-opacity:1;color-rendering:auto;image-rendering:auto;shape-rendering:auto;text-rendering:auto;enable-background:accumulate"
       id="path4199"
       cx="390"
       cy="462.36221"
       r="10" />
    <path
       inkscape:connector-curvature="0"
       style="fill:#336791;stroke:none"
       id="path3012-5"
       d="m 494.2401,612.56728 c -30.1851,6.22598 -32.26017,-3.99324 -32.26017,-3.99324 31.87072,-47.28769 45.19365,-107.31235 33.69616,-122.00305 -31.36606,-40.07345 -85.66228,-21.12129 -86.5684,-20.62926 l -0.29164,0.0522 c -5.96357,-1.23787 -12.63763,-1.97532 -20.1386,-2.09773 -13.65836,-0.22381 -24.0187,3.58042 -31.88032,9.54178 0,0 -96.85913,-39.89943 -92.35434,50.18107 0.95832,19.16397 27.46915,145.00305 59.09024,106.99373 11.55749,-13.89865 22.72434,-25.65036 22.72434,-25.65036 5.54651,3.68422 12.18637,5.56354 19.14727,4.88849 l 0.54067,-0.45902 c -0.16802,1.7257 -0.0912,3.41361 0.21663,5.41173 -8.14606,9.10075 -5.75235,10.69865 -22.03665,14.05045 -16.47753,3.39561 -6.79768,9.44098 -0.47766,11.02088 7.66179,1.91591 25.38748,4.62988 37.36443,-12.13515 l -0.47766,1.91292 c 3.19181,2.55616 5.4331,16.62761 5.05745,29.3832 -0.37564,12.75618 -0.62648,21.51371 1.88845,28.35413 2.51492,6.84041 5.02145,22.23136 26.42861,17.64467 17.88772,-3.83303 27.15712,-13.76604 28.44668,-30.33485 0.91512,-11.77932 2.98599,-10.03801 3.11681,-20.56926 l 1.66101,-4.98569 c 1.91545,-15.96758 0.30424,-21.1189 11.32466,-18.72295 l 2.67815,0.23522 c 8.11125,0.36901 18.72722,-1.30448 24.95783,-4.20026 13.41653,-6.22599 21.37357,-16.62102 8.14485,-13.88965 l 0.001,0 z" />
    <path
       inkscape:connector-curvature="0"
       style="fill:none;stroke:#ffffff;stroke-width:7.47977209;stroke-linecap:round;stroke-linejoin:round;stroke-miterlimit:4"
       id="path3014-4"
       d="m 382.30823,621.72024 c -0.83111,29.71141 0.20882,59.62984 3.1162,66.90109 2.90917,7.27124 9.13498,21.41411 30.54395,16.82802 17.88591,-3.83423 24.39375,-11.25428 27.21772,-27.63228 2.07987,-12.04994 6.08959,-45.51518 6.60385,-52.3718" />
    <path
       inkscape:connector-curvature="0"
       style="fill:none;stroke:#ffffff;stroke-width:7.47977209;stroke-linecap:round;stroke-linejoin:round;stroke-miterlimit:4"
       id="path3016-1"
       d="m 356.64771,472.77435 c 0,0 -96.92514,-39.61202 -92.41915,50.46848 0.95832,19.16397 27.47095,145.00725 59.09144,106.99613 11.5551,-13.90045 22.00545,-24.80251 22.00545,-24.80251" />
    <path
       inkscape:connector-curvature="0"
       style="fill:none;stroke:#ffffff;stroke-width:7.47977209;stroke-linecap:round;stroke-linejoin:round;stroke-miterlimit:4"
       id="path3018-3"
       d="m 409.00148,465.54451 c -3.35503,1.05186 53.91577,-20.93468 86.46338,20.65146 11.49689,14.69129 -1.82603,74.71596 -33.69616,122.00484" />
    <path
       inkscape:connector-curvature="0"
       style="fill:none;stroke:#ffffff;stroke-width:7.47977209;stroke-linecap:round;stroke-linejoin:bevel;stroke-miterlimit:4"
       id="path3020-7"
       d="m 461.7681,608.20081 c 0,0 2.07687,10.22223 32.26258,3.99205 13.22571,-2.73137 5.26627,7.66487 -8.14726,13.89385 -11.00842,5.10871 -35.68902,6.41799 -36.09227,-0.64144 -1.03753,-18.21411 12.98988,-12.68058 11.97755,-17.24446 -0.91512,-4.11024 -7.18833,-8.14429 -11.33786,-18.20391 -3.62267,-8.78033 -49.68403,-76.11404 12.77385,-66.11383 2.2881,-0.47343 -16.28971,-59.40483 -74.74147,-60.36309 -58.43856,-0.95826 -56.52131,71.86159 -56.52131,71.86159" />
    <path
       inkscape:connector-curvature="0"
       style="fill:none;stroke:#ffffff;stroke-width:7.47977209;stroke-linecap:round;stroke-linejoin:round;stroke-miterlimit:4"
       id="path3022-3"
       d="m 365.94891,614.4298 c -8.14725,9.10016 -5.75114,10.69805 -22.03665,14.05106 -16.47753,3.3962 -6.79647,9.44037 -0.47826,11.01967 7.66179,1.91711 25.38748,4.63108 37.36443,-12.13814 3.64728,-5.10572 -0.0216,-13.25241 -5.03165,-15.32914 -2.42071,-1.00266 -5.65753,-2.25914 -9.81787,2.39655 l 0,0 z" />
    <path
       inkscape:connector-curvature="0"
       style="fill:none;stroke:#ffffff;stroke-width:7.47977209;stroke-linecap:round;stroke-linejoin:round;stroke-miterlimit:4"
       id="path3024-5"
       d="m 365.41544,614.27079 c -0.8209,-5.35053 1.75823,-11.71752 4.52219,-19.16637 4.15374,-11.17629 13.73757,-22.35437 6.07098,-57.80693 -5.71454,-26.41902 -44.04329,-5.49814 -44.0673,-1.91592 -0.0234,3.58102 1.73363,18.15711 -0.64028,35.13095 -3.0976,22.14915 14.09463,40.88169 33.89179,38.96518" />
    <path
       inkscape:connector-curvature="0"
       style="fill:#ffffff;stroke:#ffffff;stroke-width:2.49323726;stroke-linecap:butt;stroke-linejoin:miter;stroke-miterlimit:4"
       id="path3026-8"
       d="m 356.29547,534.84454 c -0.17283,1.22347 2.24008,4.48827 5.38629,4.9245 3.14081,0.43803 5.82916,-2.11333 5.99958,-3.33561 0.17042,-1.22347 -2.23949,-2.57115 -5.3869,-3.00918 -3.14261,-0.43862 -5.83215,0.19981 -5.99837,1.42029 l -6e-4,0 z" />
    <path
       inkscape:connector-curvature="0"
       style="fill:#ffffff;stroke:#ffffff;stroke-width:1.24661863;stroke-linecap:butt;stroke-linejoin:miter;stroke-miterlimit:4"
       id="path3028-5"
       d="m 451.96223,532.35019 c 0.17043,1.22347 -2.23949,4.48827 -5.38629,4.92449 -3.14321,0.43803 -5.83156,-2.11332 -6.00378,-3.3356 -0.16622,-1.22347 2.24429,-2.57116 5.3881,-3.00918 3.1438,-0.43803 5.83155,0.19981 6.00197,1.42089 l 0,-6e-4 z" />
    <path
       inkscape:connector-curvature="0"
       style="fill:none;stroke:#ffffff;stroke-width:7.47977209;stroke-linecap:round;stroke-linejoin:round;stroke-miterlimit:4"
       id="path3030-6"
       d="m 463.20469,523.88307 c 0.51787,9.59698 -2.06727,16.13378 -2.39311,26.35001 -0.48246,14.8497 7.08031,31.84634 -4.31516,48.86398" />
  </g>
</svg>
