<?xml version="1.0" encoding="UTF-8" standalone="no"?>
<!-- Created with Inkscape (http://www.inkscape.org/) -->

<svg
   xmlns:dc="http://purl.org/dc/elements/1.1/"
   xmlns:cc="http://creativecommons.org/ns#"
   xmlns:rdf="http://www.w3.org/1999/02/22-rdf-syntax-ns#"
   xmlns:svg="http://www.w3.org/2000/svg"
   xmlns="http://www.w3.org/2000/svg"
   xmlns:xlink="http://www.w3.org/1999/xlink"
   xmlns:sodipodi="http://sodipodi.sourceforge.net/DTD/sodipodi-0.dtd"
   xmlns:inkscape="http://www.inkscape.org/namespaces/inkscape"
   width="210mm"
   height="297mm"
   viewBox="0 0 744.09448819 1052.3622047"
   id="svg2"
   version="1.1"
   inkscape:version="0.91 r13725"
   inkscape:export-xdpi="7.1965451"
   inkscape:export-ydpi="7.1965451"
   sodipodi:docname="database-openldap.svg"
   inkscape:export-filename="C:\Users\johannes\Documents\Arbeit\RRZE\github3\bicons\32x32\logos\database-openldap.png">
  <defs
     id="defs4">
    <linearGradient
       gradientTransform="translate(189.99854,322.36222)"
       inkscape:collect="always"
       xlink:href="#linearGradient4269"
       id="linearGradient4275"
       x1="36.360001"
       y1="400"
       x2="381.82147"
       y2="0"
       gradientUnits="userSpaceOnUse" />
    <linearGradient
       inkscape:collect="always"
       id="linearGradient4269">
      <stop
         style="stop-color:#4e505d;stop-opacity:1;"
         offset="0"
         id="stop4271" />
      <stop
         style="stop-color:#7a859c;stop-opacity:1"
         offset="1"
         id="stop4273" />
    </linearGradient>
  </defs>
  <sodipodi:namedview
     id="base"
     pagecolor="#ffffff"
     bordercolor="#666666"
     borderopacity="1.0"
     inkscape:pageopacity="0.0"
     inkscape:pageshadow="2"
     inkscape:zoom="0.70710678"
     inkscape:cx="456.09687"
     inkscape:cy="556.98642"
     inkscape:document-units="px"
     inkscape:current-layer="layer1"
     showgrid="false"
     showguides="true"
     inkscape:guide-bbox="true"
     inkscape:window-width="1366"
     inkscape:window-height="721"
     inkscape:window-x="-4"
     inkscape:window-y="-4"
     inkscape:window-maximized="1"
     inkscape:snap-bbox="true"
     inkscape:bbox-paths="true"
     inkscape:bbox-nodes="true">
    <sodipodi:guide
       position="560,730.00002"
       orientation="0,1"
       id="guide3338" />
    <sodipodi:guide
       position="560,330.00001"
       orientation="0,1"
       id="guide3340" />
    <sodipodi:guide
       position="190,475.00001"
       orientation="1,0"
       id="guide3344" />
    <sodipodi:guide
       position="590,451.00001"
       orientation="1,0"
       id="guide3346" />
    <inkscape:grid
       type="xygrid"
       id="grid3440" />
  </sodipodi:namedview>
  <metadata
     id="metadata7">
    <rdf:RDF>
      <cc:Work
         rdf:about="">
        <dc:format>image/svg+xml</dc:format>
        <dc:type
           rdf:resource="http://purl.org/dc/dcmitype/StillImage" />
        <dc:title>database openldap</dc:title>
        <dc:date>June 2015</dc:date>
        <dc:creator>
          <cc:Agent>
            <dc:title>Franziska Sponsel, Johannes Hechler</dc:title>
          </cc:Agent>
        </dc:creator>
        <dc:rights>
          <cc:Agent>
            <dc:title>Franziska Sponsel, Johannes Hechler</dc:title>
          </cc:Agent>
        </dc:rights>
        <dc:publisher>
          <cc:Agent>
            <dc:title>RRZE</dc:title>
          </cc:Agent>
        </dc:publisher>
        <dc:contributor>
          <cc:Agent>
            <dc:title>Ute Weber, Hendrik Eggers, Joanna Barbach</dc:title>
          </cc:Agent>
        </dc:contributor>
        <dc:subject>
          <rdf:Bag>
            <rdf:li>database</rdf:li>
            <rdf:li>symbol</rdf:li>
            <rdf:li>icon</rdf:li>
            <rdf:li>open ldap</rdf:li>
          </rdf:Bag>
        </dc:subject>
        <cc:license
           rdf:resource="http://creativecommons.org/licenses/by-sa/3.0/" />
      </cc:Work>
      <cc:License
         rdf:about="http://creativecommons.org/licenses/by-sa/3.0/">
        <cc:permits
           rdf:resource="http://creativecommons.org/ns#Reproduction" />
        <cc:permits
           rdf:resource="http://creativecommons.org/ns#Distribution" />
        <cc:requires
           rdf:resource="http://creativecommons.org/ns#Notice" />
        <cc:requires
           rdf:resource="http://creativecommons.org/ns#Attribution" />
        <cc:permits
           rdf:resource="http://creativecommons.org/ns#DerivativeWorks" />
        <cc:requires
           rdf:resource="http://creativecommons.org/ns#ShareAlike" />
      </cc:License>
    </rdf:RDF>
  </metadata>
  <g
     inkscape:label="Ebene 1"
     inkscape:groupmode="layer"
     id="layer1">
    <g
       id="g4340">
      <rect
         y="322.36221"
         x="189.99854"
         height="400"
         width="400"
         id="rect4160-2"
         style="opacity:1;fill:none;fill-opacity:1;stroke:none;stroke-width:23;stroke-linecap:butt;stroke-linejoin:round;stroke-miterlimit:4;stroke-dasharray:none;stroke-opacity:1" />
      <path
         id="rect4239"
         d="M 389.99805 322.36133 C 289.5804 322.36141 208.17632 350.85004 208.17773 385.99219 C 208.17973 421.13358 289.58257 449.62101 389.99805 449.62109 C 490.4143 449.62139 571.81864 421.13385 571.82031 385.99219 C 571.74831 384.6969 571.56339 383.40267 571.26562 382.11133 C 570.97906 380.47215 570.51126 378.83746 569.86328 377.21094 C 557.35581 345.79389 480.63836 322.39904 389.99805 322.36133 z M 208.17773 422.16602 L 208.17773 477.08594 C 208.48385 512.14913 289.78605 540.51779 389.97852 540.52148 C 490.39477 540.52177 571.79912 512.03424 571.80078 476.89258 L 571.80078 513.06641 C 570.87947 513.90773 569.94569 514.73554 568.98633 515.5293 C 557.30418 525.19509 542.29088 532.64617 524.49219 538.875 C 488.8948 551.33266 441.88912 558.52344 389.97852 558.52344 C 338.06792 558.52344 291.06419 551.33266 255.4668 538.875 C 237.66811 532.64617 222.65482 525.19509 210.97266 515.5293 C 210.02005 514.74111 209.09274 513.9192 208.17773 513.08398 L 208.17773 568.16406 C 208.48386 603.22725 289.78604 631.59592 389.97852 631.59961 C 490.39474 631.5999 571.7991 603.11235 571.80078 567.9707 L 571.80078 604.14453 C 570.87947 604.98585 569.94569 605.81366 568.98633 606.60742 C 557.30418 616.27321 542.29088 623.72429 524.49219 629.95312 C 509.65398 635.1459 492.81207 639.40767 474.48047 642.63086 C 482.78519 643.42036 490.83472 645.7902 497.72852 651.08789 A 18.0018 18.0018 0 0 1 498.39258 650.15039 L 497.96289 651.27148 C 498.03739 651.32969 498.11135 651.38837 498.18555 651.44727 A 18.0018 18.0018 0 0 1 503.11914 645.86523 A 18.0018 18.0018 0 0 1 511.68555 643.15625 A 18.0018 18.0018 0 0 1 512.21094 643.13086 A 18.0018 18.0018 0 0 1 513.48242 643.06641 L 513.82812 643.06641 L 513.74219 643.15234 A 18.0018 18.0018 0 0 1 519.07031 644.30078 L 513.8418 642.30469 L 521.74219 642.30469 A 18.0018 18.0018 0 0 1 533.37695 646.57422 A 18.0018 18.0018 0 0 1 545.00977 642.30469 L 559.00391 642.30469 C 563.11628 642.30469 567.5078 642.8976 571.82031 644.27148 L 571.82031 422.16602 C 570.89901 423.00734 569.96521 423.83515 569.00586 424.62891 C 557.32371 434.2947 542.31041 441.74578 524.51172 447.97461 C 488.91433 460.43231 441.90865 467.62305 389.99805 467.62305 C 338.08745 467.62305 291.08371 460.43227 255.48633 447.97461 C 237.68764 441.74578 222.67434 434.2947 210.99219 424.62891 C 210.03285 423.83515 209.09903 423.00734 208.17773 422.16602 z M 208.17773 604.16211 L 208.17773 658.55469 C 208.17073 658.60029 208.1646 658.64579 208.1582 658.69141 C 208.15886 670.25773 216.97993 681.10304 232.39258 690.44922 C 232.24266 688.88242 232.16211 687.31288 232.16211 685.75 C 232.16211 675.1255 235.35022 664.06179 242.79297 655.76562 C 250.28427 647.37317 261.68314 642.92383 272.4668 642.92383 C 282.95831 642.92383 293.90109 647.30138 301.31055 655.06445 A 18.0018 18.0018 0 0 1 301.33984 655.0625 L 309.48047 655.0625 A 18.0018 18.0018 0 0 1 311.14062 655.1543 C 313.89853 654.50852 316.59699 654.25391 319.11914 654.25391 C 325.36095 654.25391 331.63268 656.52778 336.91406 660.04883 C 342.87882 656.286 349.9309 654.25391 356.63281 654.25391 A 18.0018 18.0018 0 0 1 360.0625 654.59961 C 363.62597 654.96201 367.21017 655.76781 370.63477 657.24609 A 18.0018 18.0018 0 0 1 379.22266 655.0625 L 387.36328 655.0625 A 18.0018 18.0018 0 0 1 389.32031 655.19141 C 391.90412 654.5726 394.5309 654.25391 397.09766 654.25391 A 18.0018 18.0018 0 0 1 400.5 654.59961 C 400.77671 654.62971 401.04805 654.64609 401.32617 654.68359 A 18.0018 18.0018 0 0 1 404.12109 649.40234 C 399.44623 649.52191 394.74097 649.60156 389.97852 649.60156 C 338.06792 649.60156 291.06419 642.41079 255.4668 629.95312 C 237.66811 623.72429 222.65482 616.27321 210.97266 606.60742 C 210.02005 605.81924 209.09274 604.99734 208.17773 604.16211 z M 442.63867 646.99805 C 441.61188 647.10192 440.58418 647.20493 439.55078 647.30273 A 18.0018 18.0018 0 0 1 440.87305 648.70312 A 18.0018 18.0018 0 0 1 441.37109 648.24023 A 18.0018 18.0018 0 0 1 442.63867 646.99805 z M 493.9043 658.91797 C 493.9198 658.93297 493.92786 658.9518 493.94336 658.9668 C 493.95866 658.9818 493.97689 658.98891 493.99219 659.00391 L 493.9043 658.91797 z M 250.06641 660.1875 L 248.74805 661.6582 C 248.92248 661.44053 249.19229 661.27197 249.37695 661.05859 C 249.63716 660.75497 249.77156 660.48234 250.06641 660.1875 z M 248.15625 662.55859 L 248.01562 662.7793 C 248.01983 662.7732 248.02725 662.76577 248.03125 662.75977 C 248.07836 662.69498 248.11492 662.62589 248.15625 662.55859 z M 420.79688 664.85742 C 420.80437 664.86632 420.80941 664.87577 420.81641 664.88477 C 420.82931 664.90027 420.84657 664.91018 420.85938 664.92578 L 420.79688 664.85742 z M 272.4668 685.05469 C 272.45469 685.05469 271.65483 685.42298 270.99609 685.72656 C 271.65517 686.03031 272.4547 686.39844 272.4668 686.39844 L 273.35742 685.50781 C 273.08799 685.38775 272.4748 685.05469 272.4668 685.05469 z M 320.70898 693.1543 A 18.0018 18.0018 0 0 1 320.79492 693.20703 C 320.79482 693.20403 320.79502 693.20222 320.79492 693.19922 L 320.75195 693.17383 L 320.70898 693.1543 z "
         style="color:#000000;clip-rule:nonzero;display:inline;overflow:visible;visibility:visible;opacity:1;isolation:auto;mix-blend-mode:normal;color-interpolation:sRGB;color-interpolation-filters:linearRGB;solid-color:#000000;solid-opacity:1;fill:url(#linearGradient4275);fill-opacity:1;fill-rule:nonzero;stroke:none;stroke-width:36;stroke-linecap:butt;stroke-linejoin:round;stroke-miterlimit:4;stroke-dasharray:none;stroke-dashoffset:0;stroke-opacity:1;color-rendering:auto;image-rendering:auto;shape-rendering:auto;text-rendering:auto;enable-background:accumulate" />
      <path
         id="rect4277"
         d="m 189.99855,322.3622 400.00145,0 c 0,0 0,0 0,1e-5 l 0,399.99997 c 0,0 0,0 0,0 l -400.00146,0 c -1e-5,0 -1e-5,0 -1e-5,0 l 1e-5,-399.99997 c 0,-1e-5 0,-1e-5 1e-5,-1e-5 z"
         style="color:#000000;clip-rule:nonzero;display:inline;overflow:visible;visibility:visible;opacity:1;isolation:auto;mix-blend-mode:normal;color-interpolation:sRGB;color-interpolation-filters:linearRGB;solid-color:#000000;solid-opacity:1;fill:none;fill-opacity:1;fill-rule:nonzero;stroke:none;stroke-width:36;stroke-linecap:butt;stroke-linejoin:round;stroke-miterlimit:4;stroke-dasharray:none;stroke-dashoffset:0;stroke-opacity:1;color-rendering:auto;image-rendering:auto;shape-rendering:auto;text-rendering:auto;enable-background:accumulate"
         inkscape:connector-curvature="0" />
      <rect
         y="322.36221"
         x="190"
         height="400"
         width="400"
         id="rect4160"
         style="opacity:1;fill:none;fill-opacity:1;stroke:none;stroke-width:23;stroke-linecap:butt;stroke-linejoin:round;stroke-miterlimit:4;stroke-dasharray:none;stroke-opacity:1" />
      <path
         style="fill:#4e505d;fill-opacity:1;fill-rule:nonzero;stroke:#4e505d"
         d="m 272.30326,666.87773 c -4.47491,0 -7.99776,1.66621 -10.66364,4.99864 -2.61835,3.33236 -3.90371,7.85493 -3.90371,13.6152 0,5.71266 1.28536,10.23526 3.90371,13.56759 2.66588,3.33244 6.18873,4.99865 10.66364,4.99865 4.47497,0 7.99775,-1.66621 10.56848,-4.99865 2.61833,-3.33233 3.95129,-7.85493 3.95129,-13.56759 0,-5.76027 -1.33296,-10.28284 -3.95129,-13.6152 -2.57073,-3.33243 -6.09351,-4.99864 -10.56848,-4.99864 m 0,-4.95098 c 6.37921,0 11.42539,2.14225 15.28147,6.42677 3.80844,4.23693 5.71266,9.9496 5.71266,17.13805 0,7.14085 -1.90422,12.85358 -5.71266,17.13806 -3.85608,4.28453 -8.90226,6.37916 -15.28147,6.37916 -6.37917,0 -11.52055,-2.09463 -15.32903,-6.37916 -3.80846,-4.23687 -5.71268,-9.94961 -5.71268,-17.13806 0,-7.18845 1.90422,-12.90112 5.71268,-17.13805 3.80848,-4.28452 8.94986,-6.42677 15.32903,-6.42677 z"
         id="path4179"
         inkscape:connector-curvature="0" />
      <path
         style="fill:#4e505d;stroke:#4e505d;stroke-width:2.523103px;stroke-linecap:butt;stroke-linejoin:miter;stroke-miterlimit:4;stroke-dasharray:none;stroke-opacity:1"
         d="m 272.30326,666.87773 c -4.47491,0 -7.99776,1.66621 -10.66364,4.99864 -2.61835,3.33236 -3.90371,7.85493 -3.90371,13.6152 0,5.71266 1.28536,10.23526 3.90371,13.56759 2.66588,3.33244 6.18873,4.99865 10.66364,4.99865 4.47497,0 7.99775,-1.66621 10.56848,-4.99865 2.61833,-3.33233 3.95129,-7.85493 3.95129,-13.56759 0,-5.76027 -1.33296,-10.28284 -3.95129,-13.6152 -2.57073,-3.33243 -6.09351,-4.99864 -10.56848,-4.99864 m 0,-4.95098 c 6.37921,0 11.42539,2.14225 15.28147,6.42677 3.80844,4.23693 5.71266,9.9496 5.71266,17.13805 0,7.14085 -1.90422,12.85358 -5.71266,17.13806 -3.85608,4.28453 -8.90226,6.37916 -15.28147,6.37916 -6.37917,0 -11.52055,-2.09463 -15.32903,-6.37916 -3.80846,-4.23687 -5.71268,-9.94961 -5.71268,-17.13806 0,-7.18845 1.90422,-12.90112 5.71268,-17.13805 3.80848,-4.28452 8.94986,-6.42677 15.32903,-6.42677"
         id="path4181"
         inkscape:connector-curvature="0" />
      <path
         style="fill:#4e505d;fill-opacity:1;fill-rule:nonzero;stroke:#4e505d"
         d="m 308.05515,703.05808 0,18.04257 -5.61746,0 0,-47.03447 5.61746,0 0,5.18908 c 1.19016,-2.04708 2.66595,-3.52287 4.47498,-4.5226 1.76123,-0.99973 3.95112,-1.47577 6.42661,-1.47577 4.14173,0 7.47417,1.6662 10.04489,4.95102 2.61834,3.28476 3.9037,7.5693 3.9037,12.94873 0,5.33187 -1.28536,9.66396 -3.9037,12.94878 -2.57072,3.28476 -5.90316,4.90337 -10.04489,4.90337 -2.47549,0 -4.66538,-0.47607 -6.42661,-1.42818 -1.80903,-0.99967 -3.28482,-2.52307 -4.47498,-4.52253 m 19.04224,-11.90144 c 0,-4.14168 -0.85692,-7.33127 -2.52312,-9.66397 -1.71383,-2.38023 -4.04652,-3.57039 -6.99809,-3.57039 -2.95157,0 -5.28408,1.19016 -6.99789,3.57039 -1.66623,2.3327 -2.52314,5.52229 -2.52314,9.66397 0,4.09412 0.85691,7.33132 2.52314,9.71158 1.71381,2.33268 4.04632,3.47522 6.99789,3.47522 2.95157,0 5.28426,-1.14254 6.99809,-3.47522 1.6662,-2.38026 2.52312,-5.61746 2.52312,-9.71158 z"
         id="path4183"
         inkscape:connector-curvature="0" />
      <path
         style="fill:#4e505d;stroke:#4e505d;stroke-width:2.523103px;stroke-linecap:butt;stroke-linejoin:miter;stroke-miterlimit:4;stroke-dasharray:none;stroke-opacity:1"
         d="m 308.05515,703.05808 0,18.04257 -5.61746,0 0,-47.03447 5.61746,0 0,5.18908 c 1.19016,-2.04708 2.66595,-3.52287 4.47498,-4.5226 1.76123,-0.99973 3.95112,-1.47577 6.42661,-1.47577 4.14173,0 7.47417,1.6662 10.04489,4.95102 2.61834,3.28476 3.9037,7.5693 3.9037,12.94873 0,5.33187 -1.28536,9.66396 -3.9037,12.94878 -2.57072,3.28476 -5.90316,4.90337 -10.04489,4.90337 -2.47549,0 -4.66538,-0.47607 -6.42661,-1.42818 -1.80903,-0.99967 -3.28482,-2.52307 -4.47498,-4.52253 m 19.04224,-11.90144 c 0,-4.14168 -0.85692,-7.33127 -2.52312,-9.66397 -1.71383,-2.38023 -4.04652,-3.57039 -6.99809,-3.57039 -2.95157,0 -5.28408,1.19016 -6.99789,3.57039 -1.66623,2.3327 -2.52314,5.52229 -2.52314,9.66397 0,4.09412 0.85691,7.33132 2.52314,9.71158 1.71381,2.33268 4.04632,3.47522 6.99789,3.47522 2.95157,0 5.28426,-1.14254 6.99809,-3.47522 1.6662,-2.38026 2.52312,-5.61746 2.52312,-9.71158"
         id="path4185"
         inkscape:connector-curvature="0" />
      <path
         style="fill:#4e505d;fill-opacity:1;fill-rule:nonzero;stroke:#4e505d"
         d="m 371.32343,689.7285 0,2.71351 -25.70727,0 c 0.23803,3.85609 1.38056,6.80759 3.47523,8.85466 2.04706,1.99946 4.95104,2.99918 8.66431,2.99918 2.14228,0 4.23694,-0.28563 6.23639,-0.80932 2.04708,-0.52365 4.04652,-1.33295 6.04598,-2.38029 l 0,5.33189 c -1.99946,0.80922 -4.09414,1.47573 -6.18879,1.90418 -2.09466,0.47604 -4.23694,0.66648 -6.42682,0.66648 -5.4271,0 -9.71164,-1.57101 -12.90126,-4.71294 -3.18959,-3.18961 -4.76059,-7.47409 -4.76059,-12.85357 0,-5.56986 1.52339,-9.99716 4.52257,-13.23437 2.99919,-3.28482 7.0457,-4.95102 12.18716,-4.95102 4.57018,0 8.18823,1.47577 10.85419,4.42736 2.66592,2.95157 3.9989,6.95042 3.9989,12.04425 m -5.56991,-1.6662 c -0.0477,-3.0468 -0.90452,-5.4747 -2.61834,-7.33128 -1.66621,-1.80901 -3.85608,-2.71354 -6.61725,-2.71354 -3.09439,0 -5.6175,0.85691 -7.52175,2.61834 -1.85663,1.76136 -2.90398,4.28448 -3.18961,7.4741 l 19.94695,-0.0477 z"
         id="path4187"
         inkscape:connector-curvature="0" />
      <path
         style="fill:#4e505d;stroke:#4e505d;stroke-width:2.523103px;stroke-linecap:butt;stroke-linejoin:miter;stroke-miterlimit:4;stroke-dasharray:none;stroke-opacity:1"
         d="m 371.32343,689.7285 0,2.71351 -25.70727,0 c 0.23803,3.85609 1.38056,6.80759 3.47523,8.85466 2.04706,1.99946 4.95104,2.99918 8.66431,2.99918 2.14228,0 4.23694,-0.28563 6.23639,-0.80932 2.04708,-0.52365 4.04652,-1.33295 6.04598,-2.38029 l 0,5.33189 c -1.99946,0.80922 -4.09414,1.47573 -6.18879,1.90418 -2.09466,0.47604 -4.23694,0.66648 -6.42682,0.66648 -5.4271,0 -9.71164,-1.57101 -12.90126,-4.71294 -3.18959,-3.18961 -4.76059,-7.47409 -4.76059,-12.85357 0,-5.56986 1.52339,-9.99716 4.52257,-13.23437 2.99919,-3.28482 7.0457,-4.95102 12.18716,-4.95102 4.57018,0 8.18823,1.47577 10.85419,4.42736 2.66592,2.95157 3.9989,6.95042 3.9989,12.04425 m -5.56991,-1.6662 c -0.0477,-3.0468 -0.90452,-5.4747 -2.61834,-7.33128 -1.66621,-1.80901 -3.85608,-2.71354 -6.61725,-2.71354 -3.09439,0 -5.6175,0.85691 -7.52175,2.61834 -1.85663,1.76136 -2.90398,4.28448 -3.18961,7.4741 l 19.94695,-0.0477"
         id="path4189"
         inkscape:connector-curvature="0" />
      <path
         style="fill:#4e505d;fill-opacity:1;fill-rule:nonzero;stroke:#4e505d"
         d="m 408.83637,687.58624 0,20.56563 -5.56991,0 0,-20.3752 c 0,-3.23721 -0.66647,-5.66512 -1.90424,-7.23605 -1.23775,-1.61861 -3.142,-2.42791 -5.66511,-2.42791 -2.99919,0 -5.37948,0.99973 -7.14092,2.90396 -1.76143,1.90418 -2.61834,4.57011 -2.61834,7.85493 l 0,19.28027 -5.61749,0 0,-34.08569 5.61749,0 0,5.28428 c 1.33298,-2.04707 2.90398,-3.57045 4.713,-4.57018 1.80904,-0.99973 3.90371,-1.52339 6.284,-1.52339 3.95132,0 6.90289,1.23775 8.90235,3.66566 1.99945,2.38029 2.99917,5.95068 2.99917,10.66369 z"
         id="path4191"
         inkscape:connector-curvature="0" />
      <path
         style="fill:#4e505d;stroke:#4e505d;stroke-width:2.523103px;stroke-linecap:butt;stroke-linejoin:miter;stroke-miterlimit:4;stroke-dasharray:none;stroke-opacity:1"
         d="m 408.83637,687.58624 0,20.56563 -5.56991,0 0,-20.3752 c 0,-3.23721 -0.66647,-5.66512 -1.90424,-7.23605 -1.23775,-1.61861 -3.142,-2.42791 -5.66511,-2.42791 -2.99919,0 -5.37948,0.99973 -7.14092,2.90396 -1.76143,1.90418 -2.61834,4.57011 -2.61834,7.85493 l 0,19.28027 -5.61749,0 0,-34.08569 5.61749,0 0,5.28428 c 1.33298,-2.04707 2.90398,-3.57045 4.713,-4.57018 1.80904,-0.99973 3.90371,-1.52339 6.284,-1.52339 3.95132,0 6.90289,1.23775 8.90235,3.66566 1.99945,2.38029 2.99917,5.95068 2.99917,10.66369"
         id="path4193"
         inkscape:connector-curvature="0" />
      <path
         style="fill:#99b000;fill-opacity:1;fill-rule:nonzero;stroke:#99b000"
         d="m 419.50014,661.30788 6.18879,0 0,40.60765 22.32725,0 0,5.23668 -28.51604,0 0,-45.84433 z"
         id="path4195"
         inkscape:connector-curvature="0" />
      <path
         style="fill:#99b000;stroke:#99b000;stroke-width:2.523103px;stroke-linecap:butt;stroke-linejoin:miter;stroke-miterlimit:4;stroke-dasharray:none;stroke-opacity:1"
         d="m 419.50014,661.30788 6.18879,0 0,40.60765 22.32725,0 0,5.23668 -28.51604,0 0,-45.84433 z"
         id="path4197"
         inkscape:connector-curvature="0" />
      <path
         style="fill:#99b000;fill-opacity:1;fill-rule:nonzero;stroke:#99b000"
         d="m 460.72701,666.40166 0,35.65669 7.4735,0 c 6.33161,0 10.997,-1.42818 13.90098,-4.28448 2.95157,-2.90396 4.42736,-7.42654 4.42736,-13.61528 0,-6.14111 -1.47579,-10.61606 -4.42736,-13.47238 -2.90398,-2.85637 -7.56937,-4.28455 -13.90098,-4.28455 l -7.4735,0 m -6.18881,-5.09378 12.7102,0 c 8.90233,0 15.42435,1.85663 19.56609,5.52223 4.18934,3.71328 6.23638,9.47356 6.23638,17.32848 0,7.95017 -2.04704,13.71051 -6.23638,17.42371 -4.18934,3.71328 -10.71136,5.56991 -19.56609,5.56991 l -12.7102,0 0,-45.84433 z"
         id="path4199-6"
         inkscape:connector-curvature="0" />
      <path
         style="fill:#99b000;stroke:#99b000;stroke-width:2.523103px;stroke-linecap:butt;stroke-linejoin:miter;stroke-miterlimit:4;stroke-dasharray:none;stroke-opacity:1"
         d="m 460.72701,666.40166 0,35.65669 7.4735,0 c 6.33161,0 10.997,-1.42818 13.90098,-4.28448 2.95157,-2.90396 4.42736,-7.42654 4.42736,-13.61528 0,-6.14111 -1.47579,-10.61606 -4.42736,-13.47238 -2.90398,-2.85637 -7.56937,-4.28455 -13.90098,-4.28455 l -7.4735,0 m -6.18881,-5.09378 12.7102,0 c 8.90233,0 15.42435,1.85663 19.56609,5.52223 4.18934,3.71328 6.23638,9.47356 6.23638,17.32848 0,7.95017 -2.04704,13.71051 -6.23638,17.42371 -4.18934,3.71328 -10.71136,5.56991 -19.56609,5.56991 l -12.7102,0 0,-45.84433"
         id="path4201"
         inkscape:connector-curvature="0" />
      <path
         style="fill:#99b000;fill-opacity:1;fill-rule:nonzero;stroke:#99b000"
         d="m 517.13956,667.40139 -8.37869,22.85073 16.85256,0 -8.47387,-22.85073 m -3.47525,-6.09351 7.04571,0 17.47141,45.84433 -6.47441,0 -4.14173,-11.75863 -20.70864,0 -4.18934,11.75863 -6.52202,0 17.51902,-45.84433 z"
         id="path4203"
         inkscape:connector-curvature="0" />
      <path
         style="fill:#99b000;stroke:#99b000;stroke-width:2.523103px;stroke-linecap:butt;stroke-linejoin:miter;stroke-miterlimit:4;stroke-dasharray:none;stroke-opacity:1"
         d="m 517.13956,667.40139 -8.37869,22.85073 16.85256,0 -8.47387,-22.85073 m -3.47525,-6.09351 7.04571,0 17.47141,45.84433 -6.47441,0 -4.14173,-11.75863 -20.70864,0 -4.18934,11.75863 -6.52202,0 17.51902,-45.84433"
         id="path4205"
         inkscape:connector-curvature="0" />
      <path
         style="fill:#99b000;fill-opacity:1;fill-rule:nonzero;stroke:#99b000"
         d="m 551.03444,666.40166 0,17.23328 7.80738,0 c 2.90399,0 5.14146,-0.76171 6.71246,-2.23741 1.571,-1.52341 2.3327,-3.61807 2.3327,-6.42682 0,-2.7135 -0.7617,-4.85578 -2.3327,-6.33154 -1.571,-1.52341 -3.80847,-2.23751 -6.71246,-2.23751 l -7.80738,0 m -6.18815,-5.09378 13.99553,0 c 5.14146,0 9.04516,1.14253 11.6635,3.47521 2.61832,2.33267 3.9513,5.71271 3.9513,10.18762 0,4.57018 -1.33298,7.95014 -3.9513,10.28284 -2.61834,2.33269 -6.52204,3.47523 -11.6635,3.47523 l -7.80738,0 0,18.42343 -6.18815,0 0,-45.84433 z"
         id="path4207"
         inkscape:connector-curvature="0" />
      <path
         style="fill:#99b000;stroke:#99b000;stroke-width:2.523103px;stroke-linecap:butt;stroke-linejoin:miter;stroke-miterlimit:4;stroke-dasharray:none;stroke-opacity:1"
         d="m 551.03444,666.40166 0,17.23328 7.80738,0 c 2.90399,0 5.14146,-0.76171 6.71246,-2.23741 1.571,-1.52341 2.3327,-3.61807 2.3327,-6.42682 0,-2.7135 -0.7617,-4.85578 -2.3327,-6.33154 -1.571,-1.52341 -3.80847,-2.23751 -6.71246,-2.23751 l -7.80738,0 m -6.18815,-5.09378 13.99553,0 c 5.14146,0 9.04516,1.14253 11.6635,3.47521 2.61832,2.33267 3.9513,5.71271 3.9513,10.18762 0,4.57018 -1.33298,7.95014 -3.9513,10.28284 -2.61834,2.33269 -6.52204,3.47523 -11.6635,3.47523 l -7.80738,0 0,18.42343 -6.18815,0 0,-45.84433"
         id="path4209"
         inkscape:connector-curvature="0" />
      <path
         style="fill:#99b000;fill-opacity:1;fill-rule:nonzero;stroke:#99b000"
         d="m 575.98001,662.73604 6.14118,0 0,0.85692 -2.57072,0 0,6.42677 -0.99973,0 0,-6.42677 -2.57073,0 0,-0.85692 z"
         id="path4211"
         inkscape:connector-curvature="0" />
      <path
         style="fill:#99b000;fill-opacity:1;fill-rule:nonzero;stroke:#99b000"
         d="m 583.07333,662.73604 1.47578,0 1.85663,4.95098 1.85664,-4.95098 1.42818,0 0,7.28369 -0.95212,0 0,-6.37919 -1.85664,4.99863 -0.99973,0 -1.85663,-4.99863 0,6.37919 -0.95211,0 0,-7.28369 z"
         id="path4213"
         inkscape:connector-curvature="0" />
      <path
         style="fill:#99b000;stroke:#99b000;stroke-width:0.61887431px;stroke-linecap:butt;stroke-linejoin:miter;stroke-miterlimit:4;stroke-dasharray:none;stroke-opacity:1"
         d="m 583.07333,662.73604 1.47578,0 1.85663,4.95098 1.85664,-4.95098 1.42818,0 0,7.28369 -0.95212,0 0,-6.37919 -1.85664,4.99863 -0.99973,0 -1.85663,-4.99863 0,6.37919 -0.95211,0 0,-7.28369 z"
         id="path4215"
         inkscape:connector-curvature="0" />
    </g>
  </g>
</svg>
