<?xml version="1.0" encoding="UTF-8" standalone="no"?>
<!-- Created with Inkscape (http://www.inkscape.org/) -->

<svg
   xmlns:dc="http://purl.org/dc/elements/1.1/"
   xmlns:cc="http://creativecommons.org/ns#"
   xmlns:rdf="http://www.w3.org/1999/02/22-rdf-syntax-ns#"
   xmlns:svg="http://www.w3.org/2000/svg"
   xmlns="http://www.w3.org/2000/svg"
   xmlns:sodipodi="http://sodipodi.sourceforge.net/DTD/sodipodi-0.dtd"
   xmlns:inkscape="http://www.inkscape.org/namespaces/inkscape"
   width="210mm"
   height="297mm"
   viewBox="0 0 744.09448819 1052.3622047"
   id="svg2"
   version="1.1"
   inkscape:version="0.91 r13725"
   sodipodi:docname="dovecot.svg"
   inkscape:export-filename="C:\Users\johannes\Documents\Arbeit\RRZE\bi-con\bi-con\scalable\documents\document.png"
   inkscape:export-xdpi="4"
   inkscape:export-ydpi="4">
  <defs
     id="defs4">
    <linearGradient
       id="linearGradient2224">
      <stop
         id="stop2226"
         offset="0"
         style="stop-color:#7c7c7c;stop-opacity:1;" />
      <stop
         id="stop2228"
         offset="1"
         style="stop-color:#b8b8b8;stop-opacity:1;" />
    </linearGradient>
    <linearGradient
       id="linearGradient15218">
      <stop
         id="stop15220"
         offset="0"
         style="stop-color:#eeeeef;stop-opacity:1;" />
      <stop
         id="stop2736"
         offset="0.59928656"
         style="stop-color:#d3d7cf;stop-opacity:1;" />
      <stop
         id="stop2738"
         offset="0.82758623"
         style="stop-color:#ffffff;stop-opacity:1;" />
      <stop
         id="stop15222"
         offset="1"
         style="stop-color:#d3d7cf;stop-opacity:1;" />
    </linearGradient>
    <pattern
       y="0"
       x="0"
       height="6"
       width="6"
       patternUnits="userSpaceOnUse"
       id="EMFhbasepattern" />
    <pattern
       y="0"
       x="0"
       height="6"
       width="6"
       patternUnits="userSpaceOnUse"
       id="EMFhbasepattern-5" />
  </defs>
  <sodipodi:namedview
     id="base"
     pagecolor="#ffffff"
     bordercolor="#666666"
     borderopacity="1.0"
     inkscape:pageopacity="0.0"
     inkscape:pageshadow="2"
     inkscape:zoom="1"
     inkscape:cx="316.63538"
     inkscape:cy="525.40212"
     inkscape:document-units="px"
     inkscape:current-layer="layer1"
     showgrid="false"
     showguides="true"
     inkscape:guide-bbox="true"
     inkscape:window-width="1366"
     inkscape:window-height="721"
     inkscape:window-x="-4"
     inkscape:window-y="-4"
     inkscape:window-maximized="1">
    <sodipodi:guide
       position="560,730.00002"
       orientation="0,1"
       id="guide3338" />
    <sodipodi:guide
       position="560,330.00001"
       orientation="0,1"
       id="guide3340" />
    <sodipodi:guide
       position="190,475.00001"
       orientation="1,0"
       id="guide3344" />
    <sodipodi:guide
       position="590,451.00001"
       orientation="1,0"
       id="guide3346" />
    <inkscape:grid
       type="xygrid"
       id="grid3440" />
  </sodipodi:namedview>
  <metadata
     id="metadata7">
    <rdf:RDF>
      <cc:Work
         rdf:about="">
        <dc:format>image/svg+xml</dc:format>
        <dc:type
           rdf:resource="http://purl.org/dc/dcmitype/StillImage" />
      </cc:Work>
    </rdf:RDF>
  </metadata>
  <g
     inkscape:label="Ebene 1"
     inkscape:groupmode="layer"
     id="layer1">
    <rect
       style="opacity:1;fill:none;fill-opacity:1;stroke:none;stroke-width:23;stroke-linecap:butt;stroke-linejoin:round;stroke-miterlimit:4;stroke-dasharray:none;stroke-opacity:1"
       id="rect4160"
       width="400"
       height="400"
       x="190"
       y="322.36221" />
    <g
       transform="matrix(1.6965975,0,0,1.1453772,1034.4935,-877.2441)"
       style="font-style:normal;font-weight:normal;font-size:48px;line-height:125%;font-family:Sans;letter-spacing:0px;word-spacing:0px;fill:#000000;fill-opacity:1;stroke:#000000;stroke-width:2.68148661;stroke-linejoin:miter;stroke-miterlimit:4;stroke-dasharray:none;stroke-opacity:1"
       id="flowRoot14668">
      <path
         d="m -491.67969,1259.3049 0,27.2109 5.71875,0 c 4.82811,0 8.35935,-1.0937 10.59375,-3.2812 2.24997,-2.1875 3.37497,-5.6406 3.375,-10.3594 -3e-5,-4.6875 -1.12503,-8.1172 -3.375,-10.2891 -2.2344,-2.1874 -5.76564,-3.2812 -10.59375,-3.2812 l -5.71875,0 m -4.73437,-3.8906 9.72656,0 c 6.78123,0 11.75779,1.4141 14.92969,4.2422 3.17184,2.8125 4.75778,7.2187 4.75781,13.2187 -3e-5,6.0313 -1.59378,10.461 -4.78125,13.2891 -3.18753,2.8281 -8.15627,4.2422 -14.90625,4.2422 l -9.72656,0 0,-34.9922"
         style="stroke:#000000;stroke-width:2.68148661;stroke-linejoin:miter;stroke-miterlimit:4;stroke-dasharray:none;stroke-opacity:1"
         id="path15470"
         inkscape:connector-curvature="0" />
      <path
         d="m -445.27344,1258.6252 c -3.43751,0 -6.17189,1.2813 -8.20312,3.8438 -2.01564,2.5625 -3.02345,6.0547 -3.02344,10.4765 -10e-6,4.4063 1.0078,7.8907 3.02344,10.4531 2.03123,2.5626 4.76561,3.8438 8.20312,3.8438 3.43748,0 6.15623,-1.2812 8.15625,-3.8438 2.0156,-2.5624 3.02341,-6.0468 3.02344,-10.4531 -3e-5,-4.4218 -1.00784,-7.914 -3.02344,-10.4765 -2.00002,-2.5625 -4.71877,-3.8438 -8.15625,-3.8438 m 0,-3.8437 c 4.90623,0 8.8281,1.6484 11.76563,4.9453 2.93746,3.2812 4.40621,7.6875 4.40625,13.2187 -4e-5,5.5157 -1.46879,9.9219 -4.40625,13.2188 -2.93753,3.2812 -6.8594,4.9218 -11.76563,4.9218 -4.92189,0 -8.85938,-1.6406 -11.8125,-4.9218 -2.9375,-3.2813 -4.40625,-7.6875 -4.40625,-13.2188 0,-5.5312 1.46875,-9.9375 4.40625,-13.2187 2.95312,-3.2969 6.89061,-4.9453 11.8125,-4.9453"
         style="stroke:#000000;stroke-width:2.68148661;stroke-linejoin:miter;stroke-miterlimit:4;stroke-dasharray:none;stroke-opacity:1"
         id="path15472"
         inkscape:connector-curvature="0" />
      <path
         d="m -413.51562,1290.4065 -13.35938,-34.9922 4.94531,0 11.08594,29.4609 11.10938,-29.4609 4.92187,0 -13.33594,34.9922 -5.36718,0"
         style="stroke:#000000;stroke-width:2.68148661;stroke-linejoin:miter;stroke-miterlimit:4;stroke-dasharray:none;stroke-opacity:1"
         id="path15474"
         inkscape:connector-curvature="0" />
      <path
         d="m -389.72656,1255.4143 22.125,0 0,3.9843 -17.39063,0 0,10.3594 16.66407,0 0,3.9844 -16.66407,0 0,12.6797 17.8125,0 0,3.9844 -22.54687,0 0,-34.9922"
         style="stroke:#000000;stroke-width:2.68148661;stroke-linejoin:miter;stroke-miterlimit:4;stroke-dasharray:none;stroke-opacity:1"
         id="path15476"
         inkscape:connector-curvature="0" />
      <path
         d="m -333.14844,1258.1096 0,4.9922 c -1.59378,-1.4844 -3.2969,-2.5937 -5.10937,-3.3282 -1.7969,-0.7343 -3.71096,-1.1015 -5.74219,-1.1015 -4.00002,0 -7.06251,1.2266 -9.1875,3.6797 -2.12501,2.4375 -3.18751,5.9687 -3.1875,10.5937 -10e-6,4.6094 1.06249,8.1407 3.1875,10.5938 2.12499,2.4375 5.18748,3.6562 9.1875,3.6562 2.03123,0 3.94529,-0.3672 5.74219,-1.1015 1.81247,-0.7344 3.51559,-1.8438 5.10937,-3.3282 l 0,4.9453 c -1.65628,1.125 -3.41409,1.9688 -5.27343,2.5313 -1.84378,0.5625 -3.7969,0.8437 -5.85938,0.8437 -5.29689,0 -9.46876,-1.6171 -12.51562,-4.8515 -3.04688,-3.25 -4.57032,-7.6797 -4.57032,-13.2891 0,-5.625 1.52344,-10.0546 4.57032,-13.289 3.04686,-3.25 7.21873,-4.875 12.51562,-4.875 2.09373,0 4.06248,0.2812 5.90625,0.8437 1.85935,0.5469 3.60153,1.375 5.22656,2.4844"
         style="stroke:#000000;stroke-width:2.68148661;stroke-linejoin:miter;stroke-miterlimit:4;stroke-dasharray:none;stroke-opacity:1"
         id="path15478"
         inkscape:connector-curvature="0" />
      <path
         d="m -311.58594,1258.6252 c -3.43751,0 -6.17189,1.2813 -8.20312,3.8438 -2.01564,2.5625 -3.02345,6.0547 -3.02344,10.4765 -10e-6,4.4063 1.0078,7.8907 3.02344,10.4531 2.03123,2.5626 4.76561,3.8438 8.20312,3.8438 3.43748,0 6.15623,-1.2812 8.15625,-3.8438 2.0156,-2.5624 3.02341,-6.0468 3.02344,-10.4531 -3e-5,-4.4218 -1.00784,-7.914 -3.02344,-10.4765 -2.00002,-2.5625 -4.71877,-3.8438 -8.15625,-3.8438 m 0,-3.8437 c 4.90623,0 8.8281,1.6484 11.76563,4.9453 2.93746,3.2812 4.40621,7.6875 4.40625,13.2187 -4e-5,5.5157 -1.46879,9.9219 -4.40625,13.2188 -2.93753,3.2812 -6.8594,4.9218 -11.76563,4.9218 -4.92189,0 -8.85938,-1.6406 -11.8125,-4.9218 -2.9375,-3.2813 -4.40625,-7.6875 -4.40625,-13.2188 0,-5.5312 1.46875,-9.9375 4.40625,-13.2187 2.95312,-3.2969 6.89061,-4.9453 11.8125,-4.9453"
         style="stroke:#000000;stroke-width:2.68148661;stroke-linejoin:miter;stroke-miterlimit:4;stroke-dasharray:none;stroke-opacity:1"
         id="path15480"
         inkscape:connector-curvature="0" />
      <path
         d="m -292.85937,1255.4143 29.60156,0 0,3.9843 -12.42188,0 0,31.0079 -4.75781,0 0,-31.0079 -12.42187,0 0,-3.9843"
         style="stroke:#000000;stroke-width:2.68148661;stroke-linejoin:miter;stroke-miterlimit:4;stroke-dasharray:none;stroke-opacity:1"
         id="path15482"
         inkscape:connector-curvature="0" />
    </g>
    <path
       sodipodi:nodetypes="ccccccc"
       inkscape:connector-curvature="0"
       id="path15446"
       d="m 360.4302,527.50042 109.03007,-80.71962 81.03211,54.32157 -49.05057,35.90111 -68.13984,-42.31297 -58.75726,42.48608 z"
       style="fill:#4e9a06;stroke:none;stroke-width:9.95597363;stroke-linecap:butt;stroke-linejoin:round;stroke-miterlimit:4;stroke-dasharray:none;stroke-opacity:1" />
    <path
       style="fill:#4e9a06;stroke:none;stroke-width:9.95597363;stroke-linecap:butt;stroke-linejoin:round;stroke-miterlimit:4;stroke-dasharray:none;stroke-opacity:1"
       d="m 230.64534,523.28711 115.77138,-76.50631 54.47432,39.12734 -49.05057,35.90111 -41.58206,-27.11874 -65.49856,38.27277 z"
       id="path15448"
       inkscape:connector-curvature="0"
       sodipodi:nodetypes="ccccccc" />
  </g>
</svg>
