<?xml version="1.0" encoding="UTF-8" standalone="no"?>
<!-- Created with Inkscape (http://www.inkscape.org/) -->

<svg
   xmlns:dc="http://purl.org/dc/elements/1.1/"
   xmlns:cc="http://creativecommons.org/ns#"
   xmlns:rdf="http://www.w3.org/1999/02/22-rdf-syntax-ns#"
   xmlns:svg="http://www.w3.org/2000/svg"
   xmlns="http://www.w3.org/2000/svg"
   xmlns:xlink="http://www.w3.org/1999/xlink"
   xmlns:sodipodi="http://sodipodi.sourceforge.net/DTD/sodipodi-0.dtd"
   xmlns:inkscape="http://www.inkscape.org/namespaces/inkscape"
   width="210mm"
   height="297mm"
   viewBox="0 0 744.09448819 1052.3622047"
   id="svg2"
   version="1.1"
   inkscape:version="0.91 r13725"
   sodipodi:docname="eduroam.svg"
   inkscape:export-filename="C:\Users\johannes\Documents\Arbeit\RRZE\bi-con\bi-con\scalable\documents\document.png"
   inkscape:export-xdpi="4"
   inkscape:export-ydpi="4">
  <defs
     id="defs4">
    <linearGradient
       id="linearGradient2224">
      <stop
         id="stop2226"
         offset="0"
         style="stop-color:#7c7c7c;stop-opacity:1;" />
      <stop
         id="stop2228"
         offset="1"
         style="stop-color:#b8b8b8;stop-opacity:1;" />
    </linearGradient>
    <linearGradient
       id="linearGradient15218">
      <stop
         id="stop15220"
         offset="0"
         style="stop-color:#eeeeef;stop-opacity:1;" />
      <stop
         id="stop2736"
         offset="0.59928656"
         style="stop-color:#d3d7cf;stop-opacity:1;" />
      <stop
         id="stop2738"
         offset="0.82758623"
         style="stop-color:#ffffff;stop-opacity:1;" />
      <stop
         id="stop15222"
         offset="1"
         style="stop-color:#d3d7cf;stop-opacity:1;" />
    </linearGradient>
    <pattern
       y="0"
       x="0"
       height="6"
       width="6"
       patternUnits="userSpaceOnUse"
       id="EMFhbasepattern" />
    <pattern
       y="0"
       x="0"
       height="6"
       width="6"
       patternUnits="userSpaceOnUse"
       id="EMFhbasepattern-5" />
    <radialGradient
       inkscape:collect="always"
       xlink:href="#linearGradient11494"
       id="radialGradient27808"
       gradientUnits="userSpaceOnUse"
       gradientTransform="matrix(64.471939,0,0,64.471939,-1727.9509,-589.27884)"
       cx="27.577173"
       cy="15.048258"
       fx="27.577173"
       fy="15.048258"
       r="3.8335035" />
    <linearGradient
       id="linearGradient11494">
      <stop
         style="stop-color:#3465a4;stop-opacity:1;"
         offset="0"
         id="stop11496" />
      <stop
         style="stop-color:#3465a4;stop-opacity:0;"
         offset="1"
         id="stop11498" />
    </linearGradient>
    <radialGradient
       inkscape:collect="always"
       xlink:href="#linearGradient11494"
       id="radialGradient27806"
       gradientUnits="userSpaceOnUse"
       gradientTransform="matrix(32.976517,0,0,32.976517,-859.39351,-23.241365)"
       cx="27.577173"
       cy="16.049133"
       fx="27.577173"
       fy="16.049133"
       r="3.8335035" />
  </defs>
  <sodipodi:namedview
     id="base"
     pagecolor="#ffffff"
     bordercolor="#666666"
     borderopacity="1.0"
     inkscape:pageopacity="0.0"
     inkscape:pageshadow="2"
     inkscape:zoom="1"
     inkscape:cx="409.50536"
     inkscape:cy="465.8746"
     inkscape:document-units="px"
     inkscape:current-layer="layer1"
     showgrid="false"
     showguides="true"
     inkscape:guide-bbox="true"
     inkscape:window-width="1366"
     inkscape:window-height="721"
     inkscape:window-x="-4"
     inkscape:window-y="-4"
     inkscape:window-maximized="1">
    <sodipodi:guide
       position="560,730.00002"
       orientation="0,1"
       id="guide3338" />
    <sodipodi:guide
       position="560,330.00001"
       orientation="0,1"
       id="guide3340" />
    <sodipodi:guide
       position="190,475.00001"
       orientation="1,0"
       id="guide3344" />
    <sodipodi:guide
       position="590,451.00001"
       orientation="1,0"
       id="guide3346" />
    <inkscape:grid
       type="xygrid"
       id="grid3440" />
  </sodipodi:namedview>
  <metadata
     id="metadata7">
    <rdf:RDF>
      <cc:Work
         rdf:about="">
        <dc:format>image/svg+xml</dc:format>
        <dc:type
           rdf:resource="http://purl.org/dc/dcmitype/StillImage" />
      </cc:Work>
    </rdf:RDF>
  </metadata>
  <g
     inkscape:label="Ebene 1"
     inkscape:groupmode="layer"
     id="layer1">
    <rect
       style="opacity:1;fill:none;fill-opacity:1;stroke:none;stroke-width:23;stroke-linecap:butt;stroke-linejoin:round;stroke-miterlimit:4;stroke-dasharray:none;stroke-opacity:1"
       id="rect4160"
       width="400"
       height="400"
       x="190"
       y="322.36221" />
    <g
       id="g4190"
       transform="matrix(0.61068678,0,0,0.61068678,274.53116,178.90077)">
      <g
         transform="matrix(3.9168723,0,0,3.9168723,-681.01186,-1629.1895)"
         id="g27783">
        <path
           inkscape:connector-curvature="0"
           id="path23809"
           style="font-style:normal;font-weight:normal;font-size:36px;line-height:125%;font-family:Sans;letter-spacing:0px;word-spacing:0px;fill:#000000;fill-opacity:1;stroke:#000000;stroke-width:2.39900088;stroke-miterlimit:4;stroke-dasharray:none;stroke-opacity:1"
           d="m 166.22412,598.31078 0,1.00778 -14.92837,0 c 0.14116,1.41835 0.81171,2.50077 2.01162,3.24727 1.21168,0.73904 2.89391,1.10855 5.04672,1.10855 1.24695,0 2.45275,-0.097 3.61739,-0.29113 1.17637,-0.19409 2.341,-0.48523 3.49387,-0.87341 l 0,1.94837 c -1.16464,0.31353 -2.35867,0.55241 -3.5821,0.71664 -1.22346,0.16423 -2.46455,0.24634 -3.72327,0.24635 -3.15274,-10e-6 -5.65256,-0.58228 -7.49948,-1.74682 -1.83517,-1.16453 -2.75275,-2.73965 -2.75275,-4.72534 0,-2.05287 0.87052,-3.68024 2.61158,-4.88211 1.75282,-1.20932 4.11148,-1.81399 7.07598,-1.814 2.65863,10e-6 4.75848,0.54496 6.29957,1.63484 1.5528,1.08243 2.32922,2.55677 2.32924,4.42301 m -3.24682,-0.60466 c -0.0236,-1.12721 -0.52351,-2.02675 -1.4999,-2.6986 -0.96466,-0.67184 -2.24692,-1.00777 -3.8468,-1.00778 -1.81164,10e-6 -3.26449,0.32474 -4.35852,0.97418 -1.08228,0.64947 -1.70577,1.56393 -1.87045,2.74339 l 11.57567,-0.0112" />
        <path
           sodipodi:nodetypes="cccccccsccccccccscccccc"
           inkscape:connector-curvature="0"
           id="path23811"
           style="font-style:normal;font-weight:normal;font-size:36px;line-height:125%;font-family:Sans;letter-spacing:0px;word-spacing:0px;fill:#000000;fill-opacity:1;stroke:#000000;stroke-width:2.39900088;stroke-miterlimit:4;stroke-dasharray:none;stroke-opacity:1"
           d="m 184.55815,594.45884 0,-23.70574 c 1.43942,0.65846 1.00384,1.36489 3.24683,0 l 0,34.34337 -3.24683,0 0,-1.88119 c -0.68232,0.74651 -1.54697,1.30265 -2.59394,1.66844 -1.03523,0.35832 -2.2822,0.53747 -3.74091,0.53748 -2.38809,-10e-6 -4.33501,-0.60467 -5.84077,-1.814 -1.49403,-1.20933 -2.24103,-2.79938 -2.24102,-4.77014 -1e-5,-1.97075 0.74699,-3.56079 2.24102,-4.77013 1.50576,-1.20932 3.45268,-1.81399 5.84077,-1.814 1.45871,10e-6 2.70568,0.18291 3.74091,0.54868 1.04697,0.35833 1.91162,0.91074 2.59394,1.65723 m -11.06394,4.37822 c -1e-5,1.5154 0.48819,2.70607 1.4646,3.57201 0.98816,0.85847 2.34101,1.28771 4.05854,1.28771 1.71753,0 3.07037,-0.42924 4.05855,-1.28771 0.98815,-0.86594 1.48224,-2.05661 1.48225,-3.57201 -1e-5,-1.51539 -0.4941,-2.70232 -1.48225,-3.56081 -0.98818,-0.86592 -2.34102,-1.29889 -4.05855,-1.29891 -1.71753,2e-5 -3.07038,0.43299 -4.05854,1.29891 -0.97641,0.85849 -1.46461,2.04542 -1.4646,3.56081" />
        <path
           inkscape:connector-curvature="0"
           id="path23813"
           style="font-style:normal;font-weight:normal;font-size:36px;line-height:125%;font-family:Sans;letter-spacing:0px;word-spacing:0px;fill:#000000;fill-opacity:1;stroke:#000000;stroke-width:2.39900088;stroke-miterlimit:4;stroke-dasharray:none;stroke-opacity:1"
           d="m 194.15748,600.14717 0,-7.59191 3.24684,0 0,7.51353 c -1e-5,1.18694 0.36467,2.079 1.09404,2.6762 0.72936,0.58974 1.82339,0.88461 3.28212,0.88461 1.75282,0 3.13507,-0.35459 4.14677,-1.06377 1.02345,-0.70917 1.53517,-1.67589 1.53519,-2.90015 l 0,-7.11042 3.24683,0 0,12.54121 -3.24683,0 0,-1.92598 c -0.78819,0.76144 -1.70577,1.32878 -2.75275,1.70203 -1.03523,0.36578 -2.24103,0.54867 -3.61739,0.54868 -2.27044,-10e-6 -3.99384,-0.44791 -5.17023,-1.34371 -1.17639,-0.8958 -1.76459,-2.2059 -1.76459,-3.93032" />
        <path
           inkscape:connector-curvature="0"
           id="path23815"
           style="font-style:normal;font-weight:normal;font-size:36px;line-height:125%;font-family:Sans;letter-spacing:0px;word-spacing:0px;fill:#3465a4;fill-opacity:1;stroke:#3465a4;stroke-width:2.39900088;stroke-miterlimit:4;stroke-dasharray:none;stroke-opacity:1"
           d="m 228.88449,594.48124 c -0.36469,-0.13436 -0.76467,-0.23141 -1.19992,-0.29114 -0.42351,-0.0672 -0.89407,-0.10077 -1.41167,-0.10078 -1.83517,10e-6 -3.24683,0.38073 -4.235,1.14215 -0.9764,0.75397 -1.46461,1.84013 -1.4646,3.25847 l 0,6.60653 -3.26448,0 0,-12.54121 3.26448,0 0,1.94837 c 0.6823,-0.76142 1.57047,-1.32503 2.66452,-1.69082 1.09404,-0.37324 2.42335,-0.55987 3.98796,-0.55988 0.2235,10e-6 0.47055,0.0112 0.74112,0.0336 0.27056,0.015 0.57054,0.0411 0.89995,0.0784 l 0.0177,2.11633" />
        <path
           inkscape:connector-curvature="0"
           id="path23817"
           style="font-style:normal;font-weight:normal;font-size:36px;line-height:125%;font-family:Sans;letter-spacing:0px;word-spacing:0px;fill:#3465a4;fill-opacity:1;stroke:#3465a4;stroke-width:2.39900088;stroke-miterlimit:4;stroke-dasharray:none;stroke-opacity:1"
           d="m 239.20731,593.99974 c -1.74107,10e-6 -3.11745,0.43298 -4.12913,1.29891 -1.0117,0.85848 -1.51755,2.03795 -1.51754,3.53841 -1e-5,1.50047 0.49996,2.68367 1.49989,3.54961 1.01169,0.85848 2.39394,1.28771 4.14678,1.28771 1.72927,0 3.09976,-0.43297 4.11147,-1.2989 1.01169,-0.86594 1.51753,-2.04541 1.51755,-3.53842 -2e-5,-1.48552 -0.50586,-2.66126 -1.51755,-3.52721 -1.01171,-0.8734 -2.3822,-1.3101 -4.11147,-1.31011 m 0,-1.74681 c 2.82331,10e-6 5.04081,0.58228 6.65247,1.74681 1.61164,1.16455 2.41746,2.77699 2.41748,4.83732 -2e-5,2.05288 -0.80584,3.66532 -2.41748,4.83732 -1.61166,1.16454 -3.82916,1.74681 -6.65247,1.74682 -2.83511,-10e-6 -5.05848,-0.58228 -6.67013,-1.74682 -1.5999,-1.172 -2.39984,-2.78444 -2.39984,-4.83732 0,-2.06033 0.79994,-3.67277 2.39984,-4.83732 1.61165,-1.16453 3.83502,-1.7468 6.67013,-1.74681" />
        <path
           inkscape:connector-curvature="0"
           id="path23819"
           style="font-style:normal;font-weight:normal;font-size:36px;line-height:125%;font-family:Sans;letter-spacing:0px;word-spacing:0px;fill:#3465a4;fill-opacity:1;stroke:#3465a4;stroke-width:2.39900088;stroke-miterlimit:4;stroke-dasharray:none;stroke-opacity:1"
           d="m 262.62333,598.79228 c -2.62336,0 -4.44088,0.19035 -5.45256,0.57106 -1.01171,0.38072 -1.51756,1.03018 -1.51755,1.94837 -1e-5,0.73158 0.37644,1.31384 1.12934,1.74681 0.76464,0.42551 1.79986,0.63826 3.10566,0.63826 1.79987,0 3.24094,-0.40311 4.32323,-1.20933 1.09403,-0.81368 1.64105,-1.89238 1.64107,-3.23608 l 0,-0.45909 -3.22919,0 m 6.47602,-0.85102 0,7.15521 -3.24683,0 0,-1.90358 c -0.74114,0.76143 -1.66461,1.32504 -2.7704,1.69083 -1.10581,0.35832 -2.45866,0.53747 -4.05854,0.53748 -2.0234,-10e-6 -3.63505,-0.35832 -4.83497,-1.07496 -1.18815,-0.72411 -1.78223,-1.69083 -1.78223,-2.90016 0,-1.41088 0.74113,-2.47464 2.22339,-3.19129 1.494,-0.71663 3.71738,-1.07495 6.67012,-1.07496 l 4.55263,0 0,-0.20155 c -2e-5,-0.94805 -0.49411,-1.67962 -1.48226,-2.19471 -0.97641,-0.52254 -2.35279,-0.78382 -4.12912,-0.78383 -1.12935,10e-6 -2.22927,0.0859 -3.29977,0.25754 -1.07052,0.17171 -2.09986,0.42925 -3.08802,0.77263 l 0,-1.90358 c 1.18815,-0.29112 2.34101,-0.5076 3.45858,-0.64945 1.11757,-0.14929 2.20572,-0.22394 3.26448,-0.22395 2.85861,10e-6 4.99376,0.47031 6.40544,1.41088 1.41165,0.9406 2.11748,2.36642 2.1175,4.27745" />
        <path
           inkscape:connector-curvature="0"
           id="path23821"
           style="font-style:normal;font-weight:normal;font-size:36px;line-height:125%;font-family:Sans;letter-spacing:0px;word-spacing:0px;fill:#3465a4;fill-opacity:1;stroke:#3465a4;stroke-width:2.39900088;stroke-miterlimit:4;stroke-dasharray:none;stroke-opacity:1"
           d="m 291.19193,594.96273 c 0.8117,-0.92565 1.78221,-1.6087 2.91157,-2.04915 1.12931,-0.44042 2.45863,-0.66064 3.98796,-0.66065 2.05865,10e-6 3.64677,0.45911 4.76437,1.37729 1.11754,0.91074 1.67632,2.20965 1.67636,3.89674 l 0,7.56951 -3.26448,0 0,-7.50233 c -3e-5,-1.20186 -0.3353,-2.09393 -1.00581,-2.67621 -0.67058,-0.58225 -1.69403,-0.87339 -3.07038,-0.8734 -1.68226,10e-6 -3.01158,0.3546 -3.98796,1.06376 -0.97642,0.70919 -1.46462,1.6759 -1.46461,2.90016 l 0,7.08802 -3.26447,0 0,-7.50233 c -1e-5,-1.20932 -0.33529,-2.10139 -1.00581,-2.67621 -0.67056,-0.58225 -1.70578,-0.87339 -3.10567,-0.8734 -1.65873,10e-6 -2.97627,0.35833 -3.95267,1.07496 -0.9764,0.70919 -1.46461,1.67217 -1.46461,2.88896 l 0,7.08802 -3.26447,0 0,-12.54121 3.26447,0 0,1.94837 c 0.74113,-0.76889 1.62929,-1.33622 2.66453,-1.70202 1.03521,-0.36577 2.26454,-0.54867 3.68798,-0.54868 1.43517,10e-6 2.65274,0.23143 3.65268,0.69424 1.01169,0.46285 1.75869,1.1347 2.24102,2.01556" />
      </g>
      <rect
         y="368.80695"
         x="45.433681"
         width="268.39105"
         style="font-style:normal;font-weight:normal;font-size:36px;line-height:125%;font-family:Sans;letter-spacing:0px;word-spacing:0px;fill:none;stroke:none"
         id="rect2300"
         height="268.39105" />
      <circle
         style="font-style:normal;font-weight:normal;font-size:36px;line-height:125%;font-family:Sans;letter-spacing:0px;word-spacing:0px;display:inline;overflow:visible;visibility:visible;fill:#3465a4;fill-opacity:1;fill-rule:evenodd;stroke:none;stroke-width:0.99999982;marker:none"
         id="path11482"
         cx="50.005718"
         cy="569.41449"
         r="25.576269" />
      <circle
         style="font-style:normal;font-weight:normal;font-size:36px;line-height:125%;font-family:Sans;letter-spacing:0px;word-spacing:0px;display:inline;overflow:visible;visibility:visible;fill:none;stroke:url(#radialGradient27806);stroke-width:31.32758713;stroke-linecap:butt;stroke-linejoin:miter;stroke-miterlimit:10;stroke-dasharray:none;stroke-dashoffset:0;stroke-opacity:1;marker:none"
         id="path11488"
         cx="50.005566"
         cy="569.41449"
         r="88.404892" />
      <circle
         style="font-style:normal;font-weight:normal;font-size:36px;line-height:125%;font-family:Sans;letter-spacing:0px;word-spacing:0px;display:inline;overflow:visible;visibility:visible;fill:none;stroke:url(#radialGradient27808);stroke-width:31.32758522;stroke-linecap:butt;stroke-linejoin:miter;stroke-miterlimit:10;stroke-dasharray:none;stroke-dashoffset:0;stroke-opacity:1;marker:none"
         id="path11490"
         cx="50.002865"
         cy="569.41449"
         r="172.8392" />
    </g>
  </g>
</svg>
