<?xml version="1.0" encoding="UTF-8" standalone="no"?>
<!-- Created with Inkscape (http://www.inkscape.org/) -->

<svg
   xmlns:dc="http://purl.org/dc/elements/1.1/"
   xmlns:cc="http://creativecommons.org/ns#"
   xmlns:rdf="http://www.w3.org/1999/02/22-rdf-syntax-ns#"
   xmlns:svg="http://www.w3.org/2000/svg"
   xmlns="http://www.w3.org/2000/svg"
   xmlns:xlink="http://www.w3.org/1999/xlink"
   xmlns:sodipodi="http://sodipodi.sourceforge.net/DTD/sodipodi-0.dtd"
   xmlns:inkscape="http://www.inkscape.org/namespaces/inkscape"
   width="210mm"
   height="297mm"
   viewBox="0 0 744.09448819 1052.3622047"
   id="svg2"
   version="1.1"
   inkscape:version="0.91 r13725"
   inkscape:export-xdpi="4"
   inkscape:export-ydpi="4"
   sodipodi:docname="eduroam.svg">
  <title
     id="title4165">eduroam</title>
  <defs
     id="defs4">
    <linearGradient
       id="linearGradient11494">
      <stop
         style="stop-color:#3465a4;stop-opacity:1;"
         offset="0"
         id="stop11496" />
      <stop
         style="stop-color:#3465a4;stop-opacity:0;"
         offset="1"
         id="stop11498" />
    </linearGradient>
    <linearGradient
       inkscape:collect="always"
       xlink:href="#linearGradient4253"
       id="linearGradient4259"
       x1="7.8125"
       y1="31.0625"
       x2="21.625"
       y2="12.625"
       gradientUnits="userSpaceOnUse" />
    <linearGradient
       inkscape:collect="always"
       id="linearGradient4253">
      <stop
         style="stop-color:#4e505d;stop-opacity:1;"
         offset="0"
         id="stop4255" />
      <stop
         style="stop-color:#7a859c;stop-opacity:1"
         offset="1"
         id="stop4257" />
    </linearGradient>
  </defs>
  <sodipodi:namedview
     id="base"
     pagecolor="#ffffff"
     bordercolor="#666666"
     borderopacity="1.0"
     inkscape:pageopacity="0.0"
     inkscape:pageshadow="2"
     inkscape:zoom="1"
     inkscape:cx="280.98429"
     inkscape:cy="503.62666"
     inkscape:document-units="px"
     inkscape:current-layer="layer1"
     showgrid="false"
     showguides="true"
     inkscape:guide-bbox="true"
     inkscape:window-width="1600"
     inkscape:window-height="837"
     inkscape:window-x="-4"
     inkscape:window-y="-4"
     inkscape:window-maximized="1"
     inkscape:snap-bbox="true"
     inkscape:bbox-nodes="true">
    <sodipodi:guide
       position="560,730.00002"
       orientation="0,1"
       id="guide3338" />
    <sodipodi:guide
       position="560,330.00001"
       orientation="0,1"
       id="guide3340" />
    <sodipodi:guide
       position="190,475.00001"
       orientation="1,0"
       id="guide3344" />
    <sodipodi:guide
       position="590,451.00001"
       orientation="1,0"
       id="guide3346" />
    <inkscape:grid
       type="xygrid"
       id="grid3440" />
  </sodipodi:namedview>
  <metadata
     id="metadata7">
    <rdf:RDF>
      <cc:Work
         rdf:about="">
        <dc:format>image/svg+xml</dc:format>
        <dc:type
           rdf:resource="http://purl.org/dc/dcmitype/StillImage" />
        <dc:title>eduroam</dc:title>
        <dc:date>June 2015</dc:date>
        <dc:creator>
          <cc:Agent>
            <dc:title>Franziska Sponsel, Johannes Hechler</dc:title>
          </cc:Agent>
        </dc:creator>
        <dc:rights>
          <cc:Agent>
            <dc:title>Franziska Sponsel, Johannes Hechler</dc:title>
          </cc:Agent>
        </dc:rights>
        <dc:publisher>
          <cc:Agent>
            <dc:title>RRZE</dc:title>
          </cc:Agent>
        </dc:publisher>
        <dc:contributor>
          <cc:Agent>
            <dc:title>Ute Weber, Hendrik Eggers, Joanna Barbach</dc:title>
          </cc:Agent>
        </dc:contributor>
        <dc:subject>
          <rdf:Bag>
            <rdf:li>eduroam</rdf:li>
            <rdf:li>network</rdf:li>
          </rdf:Bag>
        </dc:subject>
        <cc:license
           rdf:resource="http://creativecommons.org/licenses/by-sa/3.0/" />
      </cc:Work>
      <cc:License
         rdf:about="http://creativecommons.org/licenses/by-sa/3.0/">
        <cc:permits
           rdf:resource="http://creativecommons.org/ns#Reproduction" />
        <cc:permits
           rdf:resource="http://creativecommons.org/ns#Distribution" />
        <cc:requires
           rdf:resource="http://creativecommons.org/ns#Notice" />
        <cc:requires
           rdf:resource="http://creativecommons.org/ns#Attribution" />
        <cc:permits
           rdf:resource="http://creativecommons.org/ns#DerivativeWorks" />
        <cc:requires
           rdf:resource="http://creativecommons.org/ns#ShareAlike" />
      </cc:License>
    </rdf:RDF>
  </metadata>
  <g
     inkscape:label="Ebene 1"
     inkscape:groupmode="layer"
     id="layer1">
    <g
       id="g4178"
       transform="matrix(12.5,0,0,12.5,-5534.9999,-6157.1656)">
      <g
         id="g4280"
         transform="translate(457.99999,-501.99988)">
        <path
           style="color:#000000;clip-rule:nonzero;display:inline;overflow:visible;visibility:visible;opacity:1;isolation:auto;mix-blend-mode:normal;color-interpolation:sRGB;color-interpolation-filters:linearRGB;solid-color:#000000;solid-opacity:1;fill:#99b000;fill-opacity:1;fill-rule:nonzero;stroke:none;stroke-width:2;stroke-linecap:round;stroke-linejoin:round;stroke-miterlimit:4;stroke-dasharray:none;stroke-dashoffset:0;stroke-opacity:1;color-rendering:auto;image-rendering:auto;shape-rendering:auto;text-rendering:auto;enable-background:accumulate"
           d="m 18,1 a 7,7 0 0 0 -7,7 7,7 0 0 0 3.111328,5.814453 L 14.625,12.958984 A 6,6 0 0 1 12,8 a 6,6 0 0 1 6,-6 6,6 0 0 1 6,6 6,6 0 0 1 -2.626953,4.955078 l 0.517578,0.861328 A 7,7 0 0 0 25,8 7,7 0 0 0 18,1 Z m 0,3 a 4,4 0 0 0 -4,4 4,4 0 0 0 1.658203,3.236328 l 0.515625,-0.859375 A 3,3 0 0 1 15,8 a 3,3 0 0 1 3,-3 3,3 0 0 1 3,3 3,3 0 0 1 -1.173828,2.376953 l 0.515625,0.859375 A 4,4 0 0 0 22,8 4,4 0 0 0 18,4 Z"
           transform="translate(0,1020.3621)"
           id="path4270"
           inkscape:connector-curvature="0" />
        <path
           style="font-style:normal;font-variant:normal;font-weight:bold;font-stretch:normal;font-size:medium;line-height:125%;font-family:sans-serif;-inkscape-font-specification:'sans-serif Bold';letter-spacing:0px;word-spacing:0px;fill:url(#linearGradient4259);fill-opacity:1;stroke:none;stroke-width:1px;stroke-linecap:butt;stroke-linejoin:miter;stroke-opacity:1"
           d="m 16.980469,10.994141 -0.02344,6.089843 c -0.290458,-0.371 -0.611584,-0.644259 -0.964843,-0.818359 C 15.642854,16.087725 15.240468,16 14.785156,16 13.972659,16 13.305241,16.310847 12.783203,16.935547 12.261164,17.556247 12,18.681609 12,19.662109 c 0,0.9805 0.261164,1.78165 0.783203,2.40625 C 13.305241,22.689159 13.972659,23 14.785156,23 c 0.459237,0 0.863557,-0.08762 1.212891,-0.261719 0.349335,-0.1741 0.668526,-0.447565 0.958984,-0.822265 l 0,0.919922 2.119141,0 0.02344,-11.841797 -2.11914,0 z M 8.0996094,16 C 7.1345511,16 6.3766314,16.310594 5.8242188,16.933594 5.2751339,17.556594 5,18.412667 5,19.5 5,20.607067 5.2788224,21.468784 5.8378906,22.083984 6.4002866,22.695051 7.1875714,23 8.1992188,23 c 0.4226289,0 0.8449491,-0.04917 1.2675781,-0.148438 0.4226284,-0.0952 0.8469021,-0.23922 1.2695311,-0.429687 l 0,-1.642578 c -0.415973,0.2698 -0.8227433,0.472422 -1.2187499,0.607422 -0.3926788,0.130933 -0.7763037,0.197265 -1.1523437,0.197265 -0.4658902,0 -0.8302764,-0.125066 -1.0898438,-0.375 -0.2595673,-0.25 -0.4098636,-0.624933 -0.453125,-1.125 l 4.1777344,0 0,-0.607422 C 11,18.420963 10.736149,17.578132 10.207031,16.947266 9.6812409,16.316266 8.9781451,16 8.0996094,16 Z M 21,16 l 0,4.167969 c 0,0.921866 0.180273,1.624022 0.539062,2.107422 C 21.901404,22.758657 22.426075,23 23.115234,23 c 0.387208,0 0.740834,-0.09445 1.060547,-0.28125 0.323266,-0.190933 0.628274,-0.484813 0.916016,-0.882812 l 0,0.986328 1.908203,0 L 27,16 l -1.908203,0 0,3.369141 c 0,0.621266 -0.112492,1.105811 -0.339844,1.455078 -0.227351,0.349333 -0.539635,0.52539 -0.9375,0.52539 -0.163409,0 -0.309616,-0.04019 -0.4375,-0.117187 -0.124333,-0.07713 -0.226536,-0.185925 -0.304687,-0.328125 -0.06039,-0.1096 -0.10208,-0.283838 -0.126954,-0.523438 -0.02487,-0.243733 -0.03711,-0.639233 -0.03711,-1.1875 0,-0.186866 3.73e-4,-0.558901 0.0039,-1.115234 0.0035,-0.560533 0.0059,-1.026951 0.0059,-1.396484 L 22.917969,16 21,16 Z M 8.0898438,17.416016 c 0.3194675,0 0.577098,0.125 0.7734374,0.375 0.1996673,0.246 0.2988282,0.571762 0.2988282,0.976562 l -2.3203125,0 c 0.053245,-0.436533 0.1879907,-0.7698 0.4042969,-1 0.2163061,-0.234067 0.4976601,-0.351562 0.84375,-0.351562 z m 7.4785152,0.05859 c 0.451387,0 0.793791,0.160516 1.029297,0.478516 0.239432,0.318 0.359375,1.103284 0.359375,1.708984 0,0.6057 -0.119943,1.066766 -0.359375,1.384766 -0.235506,0.3179 -0.57791,0.476563 -1.029297,0.476563 -0.447462,0 -0.791819,-0.158663 -1.03125,-0.476563 -0.235505,-0.318 -0.353515,-0.779066 -0.353515,-1.384766 0,-0.6057 0.11801,-1.390984 0.353515,-1.708984 0.239431,-0.318 0.583788,-0.478516 1.03125,-0.478516 z M 4.9140625,24 c -0.4461099,0 -0.8311446,0.102288 -1.1523437,0.304688 -0.3176303,0.198399 -0.5994505,0.514638 -0.8457032,0.951171 l 0,-1.09375 -1.9160156,0 0,6.666016 1.9160156,0 0,-3.072266 c 0,-0.6548 0.1323873,-1.156659 0.3964844,-1.505859 0.267666,-0.3532 0.6481197,-0.529297 1.140625,-0.529297 0.1677373,0 0.3338784,0.02112 0.4980469,0.06445 0.1677373,0.03967 0.3342157,0.104073 0.5019531,0.191406 L 5.449215,24.048825 C 5.3064636,24.031495 5.1960402,24.018385 5.1210938,24.011719 5.0461475,24.003719 4.9783025,24 4.9140625,24 Z m 4.578125,0 C 8.3877656,24 7.5230071,24.308668 6.8984375,24.927734 6.2776762,25.546801 5.96875,26.4048 5.96875,27.5 c 0,1.095267 0.3089262,1.953199 0.9296875,2.572266 C 7.5230071,30.691266 8.3877656,31 9.4921875,31 10.592801,31 11.451407,30.691266 12.068359,30.072266 12.689121,29.453199 13,28.595267 13,27.5 13,26.4048 12.689121,25.546801 12.068359,24.927734 11.451407,24.308668 10.592801,24 9.4921875,24 Z m 7.4785155,0 c -0.409532,0 -0.818983,0.03051 -1.228515,0.08984 -0.409532,0.05553 -0.816655,0.138866 -1.222657,0.25 l 0,1.625 c 0.300088,-0.182534 0.625094,-0.320843 0.97461,-0.41211 0.349513,-0.09127 0.72681,-0.136718 1.132812,-0.136718 0.501324,0 0.870882,0.07955 1.107422,0.238281 0.23654,0.154733 0.353516,0.400948 0.353516,0.738281 l 0,0.166016 -1.117188,0 c -1.023831,0 -1.775718,0.183695 -2.255859,0.548828 C 14.238233,27.472489 14,28.046392 14,28.828125 c 0,0.642867 0.190977,1.165579 0.572266,1.570313 C 14.957086,30.799238 15.456015,31 16.070312,31 c 0.455429,0 0.842417,-0.0909 1.160157,-0.273438 0.31774,-0.186466 0.60323,-0.481918 0.857422,-0.886718 l 0,0.988281 1.912109,0 0,-3.804687 C 20,25.955971 19.761768,25.187044 19.285156,24.714844 18.812077,24.238644 18.04043,24 16.970703,24 Z m 7.914063,0 c -0.381054,0 -0.730668,0.0977 -1.048828,0.292969 -0.314463,0.195266 -0.59372,0.486513 -0.837891,0.873047 l 0,-1.001954 -1.998047,0 L 21,31 l 1.998047,0 0,-3.363281 c 0,-0.638734 0.103371,-1.128903 0.310547,-1.470703 0.207174,-0.345867 0.501758,-0.517578 0.882812,-0.517578 0.303364,0 0.514427,0.108324 0.632813,0.328124 0.118386,0.2156 0.177734,0.702252 0.177734,1.458985 l 0,3.564453 1.996094,0 0,-3.357422 c 0.0074,-0.646867 0.112931,-1.140622 0.316406,-1.482422 0.207175,-0.3418 0.499599,-0.511718 0.876953,-0.511718 0.288565,0 0.497469,0.108324 0.626953,0.328124 0.129484,0.2156 0.195313,0.566648 0.195313,1.050782 0,0.106133 -0.0022,0.187474 -0.0059,0.24414 1e-6,0.05713 -0.0022,0.111396 -0.0059,0.164063 L 29.001953,31 31,31 31,26.837891 c 0,-0.9236 -0.186892,-1.627128 -0.560547,-2.111329 C 30.065798,24.242429 29.522608,24 28.808594,24 c -0.41435,0 -0.796774,0.112137 -1.144532,0.335938 -0.344058,0.219666 -0.641008,0.541643 -0.892578,0.964843 -0.170178,-0.410933 -0.420739,-0.731051 -0.75,-0.958984 C 25.692224,24.113997 25.313913,24 24.884766,24 Z M 9.4921875,25.523438 c 0.4455777,-10e-7 0.7873205,0.170452 1.0234375,0.511718 0.236117,0.337334 0.353516,0.825977 0.353516,1.464844 0,0.638933 -0.117399,1.129436 -0.353516,1.470703 C 10.279508,29.30797 9.9377652,29.476562 9.4921875,29.476562 9.0389937,29.476563 8.6930511,29.30797 8.453125,28.970703 8.2170072,28.629436 8.0996094,28.138933 8.0996094,27.5 c 0,-0.638867 0.1173978,-1.12751 0.3535156,-1.464844 0.2399261,-0.341266 0.5858687,-0.511718 1.0390625,-0.511718 z m 7.6113285,2.304687 0.984375,0 0,0.244141 c 0,0.4326 -0.121634,0.792364 -0.365235,1.082031 -0.2436,0.285733 -0.543814,0.429687 -0.90039,0.429687 -0.285966,0 -0.509474,-0.07576 -0.671875,-0.226562 -0.15887,-0.1548 -0.238282,-0.366919 -0.238282,-0.636719 0,-0.293667 0.09917,-0.517169 0.296875,-0.667969 0.201236,-0.1508 0.49912,-0.224609 0.894532,-0.224609 z"
           transform="translate(0,1020.3621)"
           id="path4227"
           inkscape:connector-curvature="0" />
        <circle
           style="color:#000000;clip-rule:nonzero;display:inline;overflow:visible;visibility:visible;opacity:1;isolation:auto;mix-blend-mode:normal;color-interpolation:sRGB;color-interpolation-filters:linearRGB;solid-color:#000000;solid-opacity:1;fill:#99b000;fill-opacity:1;fill-rule:nonzero;stroke:none;stroke-width:2;stroke-linecap:round;stroke-linejoin:round;stroke-miterlimit:4;stroke-dasharray:none;stroke-dashoffset:0;stroke-opacity:1;color-rendering:auto;image-rendering:auto;shape-rendering:auto;text-rendering:auto;enable-background:accumulate"
           id="path4261"
           cx="18"
           cy="1028.3621"
           r="1" />
        <path
           style="color:#000000;clip-rule:nonzero;display:inline;overflow:visible;visibility:visible;opacity:1;isolation:auto;mix-blend-mode:normal;color-interpolation:sRGB;color-interpolation-filters:linearRGB;solid-color:#000000;solid-opacity:1;fill:none;fill-opacity:1;fill-rule:nonzero;stroke:none;stroke-width:2;stroke-linecap:round;stroke-linejoin:round;stroke-miterlimit:4;stroke-dasharray:none;stroke-dashoffset:0;stroke-opacity:1;color-rendering:auto;image-rendering:auto;shape-rendering:auto;text-rendering:auto;enable-background:accumulate"
           d="m 0,1020.3621 32,0 0,32 -32,0 z"
           id="rect4277"
           inkscape:connector-curvature="0" />
      </g>
    </g>
  </g>
</svg>
