<?xml version="1.0" encoding="UTF-8" standalone="no"?>
<!-- Created with Inkscape (http://www.inkscape.org/) -->

<svg
   xmlns:a="http://ns.adobe.com/AdobeSVGViewerExtensions/3.0/"
   xmlns:dc="http://purl.org/dc/elements/1.1/"
   xmlns:cc="http://creativecommons.org/ns#"
   xmlns:rdf="http://www.w3.org/1999/02/22-rdf-syntax-ns#"
   xmlns:svg="http://www.w3.org/2000/svg"
   xmlns="http://www.w3.org/2000/svg"
   xmlns:xlink="http://www.w3.org/1999/xlink"
   xmlns:sodipodi="http://sodipodi.sourceforge.net/DTD/sodipodi-0.dtd"
   xmlns:inkscape="http://www.inkscape.org/namespaces/inkscape"
   width="400"
   height="400"
   viewBox="0 0 400 400.00001"
   id="svg4201"
   version="1.1"
   inkscape:version="0.91 r13725"
   sodipodi:docname="google.svg"
   inkscape:export-filename="D:\Dokumente\Arbeit\RRZE\github\bicons\22x22\logos\google.png"
   inkscape:export-xdpi="4.9499998"
   inkscape:export-ydpi="4.9499998">
  <title
     id="title4239">google</title>
  <defs
     id="defs4203">
    <inkscape:perspective
       sodipodi:type="inkscape:persp3d"
       inkscape:vp_x="0 : 200 : 1"
       inkscape:vp_y="0 : 1000 : 0"
       inkscape:vp_z="400 : 200 : 1"
       inkscape:persp3d-origin="200 : 133.33334 : 1"
       id="perspective4284" />
    <linearGradient
       id="linearGradient3875">
      <stop
         style="stop-color:#ffffff;stop-opacity:1;"
         offset="0"
         id="stop3877" />
      <stop
         id="stop3885"
         offset="0.20752585"
         style="stop-color:#ffffff;stop-opacity:0.50649351;" />
      <stop
         id="stop3883"
         offset="0.9507187"
         style="stop-color:#ffffff;stop-opacity:1;" />
      <stop
         style="stop-color:#ffffff;stop-opacity:0;"
         offset="1"
         id="stop3879" />
    </linearGradient>
    <linearGradient
       id="linearGradient3889">
      <stop
         style="stop-color:#eeeeec;stop-opacity:1;"
         offset="0"
         id="stop3891" />
      <stop
         style="stop-color:#ffffff;stop-opacity:1;"
         offset="1"
         id="stop3893" />
    </linearGradient>
    <linearGradient
       id="linearGradient4761">
      <stop
         id="stop4769"
         offset="0"
         style="stop-color:#ffffff;stop-opacity:1;" />
      <stop
         id="stop4775"
         offset="0.50370371"
         style="stop-color:#ffffff;stop-opacity:1;" />
      <stop
         id="stop4771"
         offset="1"
         style="stop-color:#ffffff;stop-opacity:0.06666667;" />
    </linearGradient>
    <linearGradient
       id="linearGradient3796">
      <stop
         style="stop-color:#3465a4;stop-opacity:1;"
         offset="0"
         id="stop3798" />
      <stop
         style="stop-color:#252525;stop-opacity:1;"
         offset="1"
         id="stop3800" />
    </linearGradient>
    <linearGradient
       id="linearGradient3812">
      <stop
         style="stop-color:#fce94f;stop-opacity:1;"
         offset="0"
         id="stop3814" />
      <stop
         style="stop-color:#fcaf3e;stop-opacity:1;"
         offset="1"
         id="stop3816" />
    </linearGradient>
    <linearGradient
       id="linearGradient2116">
      <stop
         id="stop2118"
         offset="0"
         style="stop-color:#ffffff;stop-opacity:1;" />
      <stop
         id="stop2120"
         offset="1"
         style="stop-color:#ffffff;stop-opacity:0;" />
    </linearGradient>
    <linearGradient
       id="linearGradient5280">
      <stop
         id="stop5282"
         offset="0"
         style="stop-color:#555753;stop-opacity:0.01129944;" />
      <stop
         style="stop-color:#555753;stop-opacity:0.22598869;"
         offset="0.00195313"
         id="stop5310" />
      <stop
         style="stop-color:#555753;stop-opacity:0.01176471;"
         offset="0.00390625"
         id="stop5306" />
      <stop
         style="stop-color:#555753;stop-opacity:0.01176471;"
         offset="0.0078125"
         id="stop5304" />
      <stop
         style="stop-color:#555753;stop-opacity:0.07344633;"
         offset="0.015625"
         id="stop5302" />
      <stop
         style="stop-color:#555753;stop-opacity:0.01568627;"
         offset="0.03125"
         id="stop5298" />
      <stop
         style="stop-color:#555753;stop-opacity:0.01129944;"
         offset="0.0625"
         id="stop5296" />
      <stop
         style="stop-color:#555753;stop-opacity:0.36723164;"
         offset="0.125"
         id="stop5294" />
      <stop
         style="stop-color:#555753;stop-opacity:0.00564972;"
         offset="0.25"
         id="stop5290" />
      <stop
         style="stop-color:#555753;stop-opacity:0.02259887;"
         offset="0.5"
         id="stop5288" />
      <stop
         id="stop5292"
         offset="0.75"
         style="stop-color:#555753;stop-opacity:0.19774012;" />
      <stop
         style="stop-color:#555753;stop-opacity:0.18079096;"
         offset="0.875"
         id="stop5300" />
      <stop
         id="stop5308"
         offset="0.9375"
         style="stop-color:#555753;stop-opacity:0.28813559;" />
      <stop
         id="stop5284"
         offset="1"
         style="stop-color:#555753;stop-opacity:0.07344633;" />
    </linearGradient>
    <linearGradient
       id="linearGradient5348">
      <stop
         id="stop5350"
         offset="0"
         style="stop-color:#729fcf;stop-opacity:0;" />
      <stop
         style="stop-color:#729fcf;stop-opacity:0.17514125;"
         offset="0.14182246"
         id="stop5368" />
      <stop
         style="stop-color:#729fcf;stop-opacity:0.42937854;"
         offset="0.24686332"
         id="stop5366" />
      <stop
         id="stop5394"
         offset="0.27796116"
         style="stop-color:#729fcf;stop-opacity:0.39215686;" />
      <stop
         style="stop-color:#729fcf;stop-opacity:0.39215687;"
         offset="0.38030669"
         id="stop5364" />
      <stop
         style="stop-color:#ffffff;stop-opacity:1;"
         offset="0.46561956"
         id="stop5362" />
      <stop
         id="stop3727"
         offset="0.54757094"
         style="stop-color:#b8cfe7;stop-opacity:0.62352941;" />
      <stop
         style="stop-color:#729fcf;stop-opacity:0.24858756;"
         offset="0.62952232"
         id="stop5360" />
      <stop
         style="stop-color:#729fcf;stop-opacity:0.27683616;"
         offset="0.69749689"
         id="stop5358" />
      <stop
         style="stop-color:#729fcf;stop-opacity:0.16384181;"
         offset="0.84827983"
         id="stop5356" />
      <stop
         id="stop5352"
         offset="1"
         style="stop-color:#729fcf;stop-opacity:0;" />
    </linearGradient>
    <linearGradient
       id="linearGradient5170">
      <stop
         id="stop5172"
         offset="0"
         style="stop-color:#ffffff;stop-opacity:0.18039216;" />
      <stop
         style="stop-color:#ffffff;stop-opacity:1;"
         offset="0.51451057"
         id="stop5178" />
      <stop
         id="stop5174"
         offset="1"
         style="stop-color:#ffffff;stop-opacity:0;" />
    </linearGradient>
    <pattern
       y="0"
       x="0"
       height="6"
       width="6"
       patternUnits="userSpaceOnUse"
       id="EMFhbasepattern" />
    <linearGradient
       gradientUnits="userSpaceOnUse"
       id="XMLID_2_-4"
       x1="216.1084"
       x2="216.1084"
       y1="348.98831"
       y2="7.2768998">
      <stop
         id="stop12094-0"
         offset="0"
         style="stop-color:#cc0000;stop-opacity:1;" />
      <stop
         id="stop12096-9"
         offset="1"
         style="stop-color:#edd400;stop-opacity:1;" />
      <a:midPointStop
         offset="0"
         style="stop-color:#F40A0B" />
      <a:midPointStop
         offset="0.5"
         style="stop-color:#F40A0B" />
      <a:midPointStop
         offset="1"
         style="stop-color:#F5E710" />
    </linearGradient>
    <pattern
       y="0"
       x="0"
       height="6"
       width="6"
       patternUnits="userSpaceOnUse"
       id="EMFhbasepattern-7" />
    <pattern
       y="0"
       x="0"
       height="6"
       width="6"
       patternUnits="userSpaceOnUse"
       id="EMFhbasepattern-5" />
    <pattern
       y="0"
       x="0"
       height="6"
       width="6"
       patternUnits="userSpaceOnUse"
       id="EMFhbasepattern-1" />
    <linearGradient
       inkscape:collect="always"
       id="linearGradient4167">
      <stop
         style="stop-color:#4e505d;stop-opacity:1;"
         offset="0"
         id="stop4169" />
      <stop
         style="stop-color:#7a8597;stop-opacity:1"
         offset="1"
         id="stop4171" />
    </linearGradient>
    <linearGradient
       inkscape:collect="always"
       xlink:href="#linearGradient4167"
       id="linearGradient4182"
       x1="367"
       y1="585.36218"
       x2="426"
       y2="450.36221"
       gradientUnits="userSpaceOnUse"
       gradientTransform="matrix(0.875,0,0,0.875,47.75,66.295273)" />
    <pattern
       y="0"
       x="0"
       height="6"
       width="6"
       patternUnits="userSpaceOnUse"
       id="EMFhbasepattern-8" />
  </defs>
  <sodipodi:namedview
     id="base"
     pagecolor="#ffffff"
     bordercolor="#666666"
     borderopacity="1.0"
     inkscape:pageopacity="0.0"
     inkscape:pageshadow="2"
     inkscape:zoom="0.5"
     inkscape:cx="-382.75641"
     inkscape:cy="310.69114"
     inkscape:document-units="px"
     inkscape:current-layer="layer1"
     showgrid="false"
     units="px"
     inkscape:snap-bbox="true"
     inkscape:bbox-paths="true"
     inkscape:bbox-nodes="true"
     inkscape:snap-bbox-edge-midpoints="false"
     inkscape:snap-bbox-midpoints="false"
     showguides="true"
     inkscape:guide-bbox="true"
     inkscape:window-width="1600"
     inkscape:window-height="837"
     inkscape:window-x="-4"
     inkscape:window-y="-4"
     inkscape:window-maximized="1"
     inkscape:snap-nodes="true"
     inkscape:showpageshadow="false"
     inkscape:snap-others="false"
     inkscape:object-paths="true"
     inkscape:snap-intersection-paths="true"
     inkscape:object-nodes="true"
     inkscape:snap-smooth-nodes="true"
     inkscape:snap-global="true">
    <sodipodi:guide
       position="25,292.74221"
       orientation="1,0"
       id="guide4797" />
    <sodipodi:guide
       position="50,408.27617"
       orientation="1,0"
       id="guide4799" />
    <sodipodi:guide
       position="75,408.27617"
       orientation="1,0"
       id="guide4801" />
    <sodipodi:guide
       position="100,408.27617"
       orientation="1,0"
       id="guide4803" />
    <sodipodi:guide
       position="150,427.61181"
       orientation="1,0"
       id="guide4807" />
    <sodipodi:guide
       position="175,406.40963"
       orientation="1,0"
       id="guide4809" />
    <sodipodi:guide
       position="200,423.25001"
       orientation="1,0"
       id="guide4811"
       inkscape:label=""
       inkscape:color="rgb(255,0,171)" />
    <sodipodi:guide
       position="225,140.5"
       orientation="1,0"
       id="guide4813" />
    <sodipodi:guide
       position="250,404.73025"
       orientation="1,0"
       id="guide4815" />
    <sodipodi:guide
       position="275,149.99998"
       orientation="1,0"
       id="guide4817" />
    <sodipodi:guide
       position="300,405.26058"
       orientation="1,0"
       id="guide4819" />
    <sodipodi:guide
       position="325,405.61414"
       orientation="1,0"
       id="guide4821" />
    <sodipodi:guide
       position="350,413.65748"
       orientation="1,0"
       id="guide4823" />
    <sodipodi:guide
       position="375,405.79091"
       orientation="1,0"
       id="guide4825" />
    <sodipodi:guide
       position="400,8.0000002"
       orientation="1,0"
       id="guide4827" />
    <sodipodi:guide
       position="0,400.00001"
       orientation="0,1"
       id="guide4829"
       inkscape:label=""
       inkscape:color="rgb(0,0,255)" />
    <sodipodi:guide
       position="412.5,374.99999"
       orientation="0,1"
       id="guide4831" />
    <sodipodi:guide
       position="408.089,349.99999"
       orientation="0,1"
       id="guide4833" />
    <sodipodi:guide
       position="405.625,324.99999"
       orientation="0,1"
       id="guide4835" />
    <sodipodi:guide
       position="349.99998,299.99998"
       orientation="0,1"
       id="guide4837" />
    <sodipodi:guide
       position="404.99541,274.99998"
       orientation="0,1"
       id="guide4839" />
    <sodipodi:guide
       position="406.93995,249.99998"
       orientation="0,1"
       id="guide4841" />
    <sodipodi:guide
       position="406.32123,224.99998"
       orientation="0,1"
       id="guide4843" />
    <sodipodi:guide
       position="405.43735,200"
       orientation="0,1"
       id="guide4845"
       inkscape:label=""
       inkscape:color="rgb(255,0,206)" />
    <sodipodi:guide
       position="404.64185,174.99998"
       orientation="-1.8424565e-007,-1"
       id="guide4847" />
    <sodipodi:guide
       position="162,149.99998"
       orientation="0,1"
       id="guide4849" />
    <sodipodi:guide
       position="405.96768,74.999979"
       orientation="0,1"
       id="guide4855" />
    <sodipodi:guide
       position="405.7909,49.999979"
       orientation="0,1"
       id="guide4857" />
    <sodipodi:guide
       position="407.91222,24.999978"
       orientation="0,1"
       id="guide4859" />
    <sodipodi:guide
       position="-20.143885,-2.2617188e-005"
       orientation="0,1"
       id="guide4861" />
    <sodipodi:guide
       position="0,418.50001"
       orientation="1,0"
       id="guide6276" />
    <sodipodi:guide
       position="405.96768,99.99998"
       orientation="0,1"
       id="guide4342" />
    <sodipodi:guide
       position="125,75.000002"
       orientation="1,0"
       id="guide5050" />
    <inkscape:grid
       type="xygrid"
       id="grid3517" />
  </sodipodi:namedview>
  <metadata
     id="metadata4206">
    <rdf:RDF>
      <cc:Work
         rdf:about="">
        <dc:format>image/svg+xml</dc:format>
        <dc:type
           rdf:resource="http://purl.org/dc/dcmitype/StillImage" />
        <dc:title>google</dc:title>
        <cc:license
           rdf:resource="http://creativecommons.org/licenses/by-nc/3.0/" />
        <dc:creator>
          <cc:Agent>
            <dc:title>Johannes Hechler</dc:title>
          </cc:Agent>
        </dc:creator>
        <dc:rights>
          <cc:Agent>
            <dc:title>Johannes Hechler</dc:title>
          </cc:Agent>
        </dc:rights>
        <dc:publisher>
          <cc:Agent>
            <dc:title>RRZE</dc:title>
          </cc:Agent>
        </dc:publisher>
        <dc:contributor>
          <cc:Agent>
            <dc:title>Ute Weber,
Hendrik Eggers</dc:title>
          </cc:Agent>
        </dc:contributor>
        <dc:date>Sep 2016</dc:date>
        <dc:subject>
          <rdf:Bag>
            <rdf:li>google</rdf:li>
            <rdf:li>logo</rdf:li>
            <rdf:li>g</rdf:li>
            <rdf:li>google plus</rdf:li>
          </rdf:Bag>
        </dc:subject>
      </cc:Work>
      <cc:License
         rdf:about="http://creativecommons.org/licenses/by-nc/3.0/">
        <cc:permits
           rdf:resource="http://creativecommons.org/ns#Reproduction" />
        <cc:permits
           rdf:resource="http://creativecommons.org/ns#Distribution" />
        <cc:requires
           rdf:resource="http://creativecommons.org/ns#Notice" />
        <cc:requires
           rdf:resource="http://creativecommons.org/ns#Attribution" />
        <cc:prohibits
           rdf:resource="http://creativecommons.org/ns#CommercialUse" />
        <cc:permits
           rdf:resource="http://creativecommons.org/ns#DerivativeWorks" />
      </cc:License>
    </rdf:RDF>
  </metadata>
  <g
     inkscape:label="Ebene 1"
     inkscape:groupmode="layer"
     id="layer1"
     transform="translate(0,-652.36216)">
    <path
       inkscape:connector-curvature="0"
       style="opacity:1;fill:#99b000;fill-opacity:1;stroke:none;stroke-width:232;stroke-linejoin:round;stroke-miterlimit:4;stroke-dasharray:none;stroke-dashoffset:10.80000019;stroke-opacity:1"
       d="m 259.17773,709.26255 c 0,1.55259 -0.0304,3.07678 -0.084,4.58008 0.0537,-1.5029 0.084,-3.02783 0.084,-4.58008 z m -0.16796,6.20899 c -0.046,0.93889 -0.0917,1.87898 -0.15821,2.79882 0.0666,-0.91988 0.11214,-1.85986 0.15821,-2.79882 z m -0.31836,4.65429 c -0.0734,0.8297 -0.1483,1.66038 -0.23829,2.47461 0.0902,-0.81439 0.16473,-1.64471 0.23829,-2.47461 z m -0.46094,4.28906 c -0.10024,0.78741 -0.20278,1.57275 -0.31836,2.34571 0.11578,-0.77299 0.21795,-1.55825 0.31836,-2.34571 z m -0.62109,4.21875 c -0.1173,0.69846 -0.23748,1.39342 -0.36719,2.08008 0.12985,-0.68638 0.24975,-1.38188 0.36719,-2.08008 z m -0.77735,4.12696 c -0.12447,0.59203 -0.25503,1.17848 -0.38867,1.76172 0.13373,-0.58287 0.2641,-1.17007 0.38867,-1.76172 z m -0.88672,3.8457 c -0.13772,0.54627 -0.28202,1.08647 -0.42773,1.625 0.1459,-0.53854 0.28983,-1.07871 0.42773,-1.625 z m -1.0332,3.78516 c -0.12717,0.42996 -0.26229,0.85235 -0.39453,1.27734 0.13235,-0.42483 0.26725,-0.84755 0.39453,-1.27734 z m -1.1543,3.63476 c -0.10069,0.296 -0.2074,0.58535 -0.31054,0.87891 0.10324,-0.2935 0.20976,-0.58298 0.31054,-0.87891 z m -1.2539,3.46875 c -0.0345,0.0897 -0.0727,0.17618 -0.10743,0.26563 0.0348,-0.0894 0.0729,-0.17598 0.10743,-0.26563 z m -5.86914,17.82031 c -1.12704,0.008 -2.24194,0.0299 -3.34571,0.0664 -11.24605,17.12979 -26.851,29.44341 -41.41406,40.91406 l -0.88086,0.89063 c -8.44786,8.40462 -18.01953,17.93237 -18.01953,32.36523 0,14.68111 9.57156,22.60436 17.25781,28.97266 l 24.87305,19.34961 c 29.48644,24.83042 57.26636,48.21773 57.25586,95.59375 0,24.00548 -8.64074,48.12158 -25.63086,68.89458 l 118.26953,0 c 13.85,0 25,-11.15 25,-25 l 0,-231.69145 C 327.92048,778.17759 281.5728,765.05716 246.63477,765.31528 Z"
       id="rect4259" />
    <rect
       style="opacity:1;fill:none;fill-opacity:1;stroke:none;stroke-width:50;stroke-linejoin:round;stroke-miterlimit:4;stroke-dasharray:none;stroke-dashoffset:500;stroke-opacity:1"
       id="rect4261"
       width="400"
       height="400.00003"
       x="0"
       y="652.36218"
       ry="25" />
    <path
       inkscape:connector-curvature="0"
       style="fill:#ffffff"
       d="M 14.214844,652.36216 C 8.4615792,660.35333 3.6952652,668.93508 0,677.8563 l 0,86.18555 c 15.508008,35.6633 50.9108,64.57812 104.01562,64.57812 7.05429,0 14.86559,-0.72441 21.75782,-1.36719 l -1.01563,2.46876 c -2.94918,7.06509 -5.74216,13.72964 -5.74219,24.13281 0,20.25541 9.77164,32.75005 19.21876,44.82226 l 1.1875,1.52735 -2.11133,0.14648 C 107.01388,902.42459 50.623013,906.29172 9.4316406,931.60825 6.0712685,933.60612 2.9457775,935.67095 0,937.78013 l 0,114.58207 39.513672,0 c -14.493277,-13.7476 -22.595703,-31.4219 -22.595703,-51.8477 0,-32.52205 19.687909,-56.15398 58.464843,-70.20312 31.052868,-10.45179 71.137388,-10.96875 71.537108,-10.96875 6.78959,0 10.20391,-8.9e-4 15.62696,0.67969 50.13075,35.67649 74.23046,54.4094 74.23046,90.08588 -0.002,16.5445 -5.089,30.8045 -14.53125,42.254 l 34.48438,0 c 16.9903,-20.773 25.63086,-44.8891 25.63086,-68.89457 0.0105,-47.37602 -27.76942,-70.76333 -57.25586,-95.59375 l -24.87305,-19.34961 c -7.68625,-6.3683 -17.25781,-14.29155 -17.25781,-28.97266 0,-14.43286 9.57167,-23.96061 18.01953,-32.36523 l 0.88086,-0.89063 c 26.86135,-21.15745 57.30273,-45.14699 57.30273,-97.0332 0,-23.90584 -6.85193,-42.50344 -15.77734,-56.90039 l -70.16016,0 c 17.06492,25.81346 26.06836,60.41421 26.06836,88.26172 0,8.09134 -1.6e-4,32.70523 -17.0039,49.80078 -11.43484,11.41323 -30.03178,19.07812 -46.2793,19.07812 -60.128809,0 -85.083984,-79.0391 -85.083984,-121.35937 0,-13.94465 2.06959,-25.77702 6.25586,-35.78125 l -42.982422,0 z"
       id="path7" />
    <path
       id="path4267"
       d="m 57.197266,652.36216 c -4.18627,10.00423 -6.25586,21.8366 -6.25586,35.78125 0,42.32027 24.955173,121.35937 85.083984,121.35937 16.24752,0 34.84446,-7.66489 46.2793,-19.07812 17.00374,-17.09555 17.0039,-41.70944 17.0039,-49.80078 0,-27.84751 -9.00344,-62.44826 -26.06836,-88.26172 z M 201.875,806.29575 c -134.583333,164.04427 -67.29167,82.02214 0,0 z M 11.498047,656.30357 C 4.5747622,660.73979 0,668.49486 0,677.36216 l 0,0.45508 c 3.0929404,-7.46086 6.9526402,-14.67638 11.498047,-21.51367 z M 0,764.04185 0,937.78013 c 2.9457786,-2.10919 6.0712685,-4.17401 9.4316406,-6.17188 C 50.623013,906.29172 107.01388,902.42459 137.31055,900.35044 l 2.11133,-0.14648 -1.1875,-1.52735 c -9.44712,-12.07221 -19.21876,-24.56685 -19.21876,-44.82226 1e-5,-10.40317 2.79301,-17.06772 5.74219,-24.13281 l 1.01563,-2.46876 c -6.89223,0.64278 -14.70354,1.36719 -21.75782,1.36719 C 50.910791,828.61997 15.508386,799.70481 0,764.04185 Z"
       style="opacity:1;fill:#7a859c;fill-opacity:1;stroke:none;stroke-width:232;stroke-linejoin:round;stroke-miterlimit:4;stroke-dasharray:none;stroke-dashoffset:10.80000019;stroke-opacity:1"
       inkscape:connector-curvature="0"
       sodipodi:nodetypes="csscscccccsccccccccsccsc" />
    <path
       id="path4269"
       d="m 146.91992,919.34263 c -0.39972,0 -40.48424,0.51696 -71.537108,10.96875 -38.776934,14.04914 -58.464843,37.68107 -58.464843,70.20312 0,20.4266 8.101511,38.1001 22.595703,51.8477 l 182.730468,0 c 9.44348,-11.4498 14.53138,-25.7087 14.5332,-42.254 0,-35.67648 -24.09971,-54.40939 -74.23046,-90.08588 -5.42305,-0.68058 -8.83737,-0.67969 -15.62696,-0.67969 z"
       style="opacity:1;fill:#a9bc24;fill-opacity:1;stroke:none;stroke-width:232;stroke-linejoin:round;stroke-miterlimit:4;stroke-dasharray:none;stroke-dashoffset:10.80000019;stroke-opacity:1"
       inkscape:connector-curvature="0"
       sodipodi:nodetypes="scsccccs" />
    <path
       inkscape:connector-curvature="0"
       style="opacity:1;fill:#4e505d;fill-opacity:1;stroke:none;stroke-width:232;stroke-linejoin:round;stroke-miterlimit:4;stroke-dasharray:none;stroke-dashoffset:10.80000019;stroke-opacity:1"
       d="m 243.40039,652.36216 c 8.92541,14.39695 15.77734,32.99455 15.77734,56.90039 0,11.7281 -1.56292,22.02312 -4.2832,31.1875 38.08425,1.4196 81.60416,13.93289 145.10547,29.47266 l 0,-92.56055 c 0,-13.85 -11.15,-25 -25,-25 l -131.59961,0 z"
       id="path4273" />
  </g>
</svg>
