<?xml version="1.0" encoding="UTF-8" standalone="no"?>
<!-- Created with Inkscape (http://www.inkscape.org/) -->

<svg
   xmlns:dc="http://purl.org/dc/elements/1.1/"
   xmlns:cc="http://creativecommons.org/ns#"
   xmlns:rdf="http://www.w3.org/1999/02/22-rdf-syntax-ns#"
   xmlns:svg="http://www.w3.org/2000/svg"
   xmlns="http://www.w3.org/2000/svg"
   xmlns:xlink="http://www.w3.org/1999/xlink"
   xmlns:sodipodi="http://sodipodi.sourceforge.net/DTD/sodipodi-0.dtd"
   xmlns:inkscape="http://www.inkscape.org/namespaces/inkscape"
   width="210mm"
   height="297mm"
   viewBox="0 0 744.09448819 1052.3622047"
   id="svg2"
   version="1.1"
   inkscape:version="0.91 r13725"
   sodipodi:docname="icinga.svg"
   inkscape:export-filename="C:\Users\johannes\Documents\Arbeit\RRZE\github3\bicons\720x720\logos\icinga.png"
   inkscape:export-xdpi="162"
   inkscape:export-ydpi="162">
  <title
     id="title4219">icinga</title>
  <defs
     id="defs4">
    <linearGradient
       inkscape:collect="always"
       id="linearGradient4211">
      <stop
         style="stop-color:#4e505d;stop-opacity:1;"
         offset="0"
         id="stop4213" />
      <stop
         style="stop-color:#7a859c;stop-opacity:1"
         offset="1"
         id="stop4215" />
    </linearGradient>
    <linearGradient
       id="linearGradient2224">
      <stop
         id="stop2226"
         offset="0"
         style="stop-color:#7c7c7c;stop-opacity:1;" />
      <stop
         id="stop2228"
         offset="1"
         style="stop-color:#b8b8b8;stop-opacity:1;" />
    </linearGradient>
    <linearGradient
       id="linearGradient15218">
      <stop
         id="stop15220"
         offset="0"
         style="stop-color:#eeeeef;stop-opacity:1;" />
      <stop
         id="stop2736"
         offset="0.59928656"
         style="stop-color:#d3d7cf;stop-opacity:1;" />
      <stop
         id="stop2738"
         offset="0.82758623"
         style="stop-color:#ffffff;stop-opacity:1;" />
      <stop
         id="stop15222"
         offset="1"
         style="stop-color:#d3d7cf;stop-opacity:1;" />
    </linearGradient>
    <pattern
       y="0"
       x="0"
       height="6"
       width="6"
       patternUnits="userSpaceOnUse"
       id="EMFhbasepattern" />
    <pattern
       y="0"
       x="0"
       height="6"
       width="6"
       patternUnits="userSpaceOnUse"
       id="EMFhbasepattern-5" />
    <linearGradient
       inkscape:collect="always"
       xlink:href="#linearGradient4211"
       id="linearGradient4217"
       x1="261.62952"
       y1="691.73773"
       x2="548.71484"
       y2="366.46863"
       gradientUnits="userSpaceOnUse" />
  </defs>
  <sodipodi:namedview
     id="base"
     pagecolor="#ffffff"
     bordercolor="#666666"
     borderopacity="1.0"
     inkscape:pageopacity="0.0"
     inkscape:pageshadow="2"
     inkscape:zoom="0.70710678"
     inkscape:cx="627.35285"
     inkscape:cy="635.78925"
     inkscape:document-units="px"
     inkscape:current-layer="layer1"
     showgrid="false"
     showguides="true"
     inkscape:guide-bbox="true"
     inkscape:window-width="1366"
     inkscape:window-height="721"
     inkscape:window-x="-4"
     inkscape:window-y="-4"
     inkscape:window-maximized="1"
     inkscape:snap-global="true"
     inkscape:snap-bbox="true"
     inkscape:bbox-paths="true"
     inkscape:bbox-nodes="true">
    <sodipodi:guide
       position="560,730.00002"
       orientation="0,1"
       id="guide3338" />
    <sodipodi:guide
       position="560,330.00001"
       orientation="0,1"
       id="guide3340" />
    <sodipodi:guide
       position="190,475.00001"
       orientation="1,0"
       id="guide3344" />
    <sodipodi:guide
       position="590,451.00001"
       orientation="1,0"
       id="guide3346" />
    <inkscape:grid
       type="xygrid"
       id="grid3440" />
  </sodipodi:namedview>
  <metadata
     id="metadata7">
    <rdf:RDF>
      <cc:Work
         rdf:about="">
        <dc:format>image/svg+xml</dc:format>
        <dc:type
           rdf:resource="http://purl.org/dc/dcmitype/StillImage" />
        <dc:title>icinga</dc:title>
        <dc:date>Nov 2015</dc:date>
        <dc:creator>
          <cc:Agent>
            <dc:title>Johannes Hechler</dc:title>
          </cc:Agent>
        </dc:creator>
        <dc:rights>
          <cc:Agent>
            <dc:title>Johannes Hechler</dc:title>
          </cc:Agent>
        </dc:rights>
        <dc:publisher>
          <cc:Agent>
            <dc:title>RRZE</dc:title>
          </cc:Agent>
        </dc:publisher>
        <dc:contributor>
          <cc:Agent>
            <dc:title>Ute Weber</dc:title>
          </cc:Agent>
        </dc:contributor>
      </cc:Work>
    </rdf:RDF>
  </metadata>
  <g
     inkscape:label="Ebene 1"
     inkscape:groupmode="layer"
     id="layer1">
    <rect
       style="opacity:1;fill:none;fill-opacity:1;stroke:none;stroke-width:23;stroke-linecap:butt;stroke-linejoin:round;stroke-miterlimit:4;stroke-dasharray:none;stroke-opacity:1"
       id="rect4160"
       width="400"
       height="400"
       x="190"
       y="322.36221" />
    <path
       style="color:#000000;clip-rule:nonzero;display:inline;overflow:visible;visibility:visible;opacity:1;isolation:auto;mix-blend-mode:normal;color-interpolation:sRGB;color-interpolation-filters:linearRGB;solid-color:#000000;solid-opacity:1;fill:url(#linearGradient4217);fill-opacity:1;fill-rule:nonzero;stroke:none;stroke-width:25;stroke-linecap:butt;stroke-linejoin:round;stroke-miterlimit:4;stroke-dasharray:none;stroke-dashoffset:0;stroke-opacity:1;color-rendering:auto;image-rendering:auto;shape-rendering:auto;text-rendering:auto;enable-background:accumulate"
       d="m 420.64752,322.36221 a 38.915469,38.277511 0 0 0 -38.91547,38.27751 38.915469,38.277511 0 0 0 22.44818,34.63416 l -30.02394,62.3754 a 70.175436,70.175436 0 0 0 -26.23604,-5.14353 70.175436,70.175436 0 0 0 -48.24064,19.26336 L 268.2452,445.41344 a 22.328548,22.328548 0 0 0 1.84411,-8.85665 22.328548,22.328548 0 0 0 -22.32855,-22.32855 22.328548,22.328548 0 0 0 -22.32854,22.32855 22.328548,22.328548 0 0 0 22.32854,22.32854 22.328548,22.328548 0 0 0 14.5933,-5.46253 l 30.64694,25.69279 a 70.175436,70.175436 0 0 0 -15.25619,43.5656 70.175436,70.175436 0 0 0 32.41626,59.061 l -38.38216,54.39594 A 47.20893,47.20893 0 0 0 245.20893,627.94434 47.20893,47.20893 0 0 0 198,675.15327 a 47.20893,47.20893 0 0 0 47.20893,47.20893 47.20893,47.20893 0 0 0 47.20893,-47.20893 47.20893,47.20893 0 0 0 -13.61643,-33.14393 l 39.40391,-55.84133 a 70.175436,70.175436 0 0 0 29.71491,6.68861 70.175436,70.175436 0 0 0 33.56759,-8.62739 l 21.42145,34.44976 a 15.948963,15.948963 0 0 0 -4.9093,11.49821 15.948963,15.948963 0 0 0 15.94897,15.94896 15.948963,15.948963 0 0 0 15.94896,-15.94896 15.948963,15.948963 0 0 0 -15.94896,-15.94897 15.948963,15.948963 0 0 0 -2.89575,0.27412 L 389.1882,579.33489 a 70.175436,70.175436 0 0 0 28.90749,-56.6537 70.175436,70.175436 0 0 0 -0.45354,-7.27174 l 108.67723,-23.24562 a 29.98405,29.98405 0 0 0 26.64972,16.26794 29.98405,29.98405 0 0 0 29.98405,-29.98405 29.98405,29.98405 0 0 0 -29.98405,-29.98405 29.98405,29.98405 0 0 0 -29.98405,29.98405 29.98405,29.98405 0 0 0 0.4286,5.00897 l -107.31656,22.95158 a 70.175436,70.175436 0 0 0 -33.02931,-44.38798 l 30.68183,-63.74101 a 38.915469,38.277511 0 0 0 6.89791,0.63795 38.915469,38.277511 0 0 0 38.91547,-38.27751 38.915469,38.277511 0 0 0 -38.91547,-38.27751 z"
       id="path4162"
       inkscape:connector-curvature="0" />
  </g>
</svg>
