<?xml version="1.0" encoding="UTF-8" standalone="no"?>
<!-- Created with Inkscape (http://www.inkscape.org/) -->

<svg
   xmlns:dc="http://purl.org/dc/elements/1.1/"
   xmlns:cc="http://creativecommons.org/ns#"
   xmlns:rdf="http://www.w3.org/1999/02/22-rdf-syntax-ns#"
   xmlns:svg="http://www.w3.org/2000/svg"
   xmlns="http://www.w3.org/2000/svg"
   xmlns:xlink="http://www.w3.org/1999/xlink"
   xmlns:sodipodi="http://sodipodi.sourceforge.net/DTD/sodipodi-0.dtd"
   xmlns:inkscape="http://www.inkscape.org/namespaces/inkscape"
   width="210mm"
   height="297mm"
   viewBox="0 0 744.09448819 1052.3622047"
   id="svg2"
   version="1.1"
   inkscape:version="0.91 r13725"
   inkscape:export-xdpi="162"
   inkscape:export-ydpi="162"
   sodipodi:docname="linux.svg"
   inkscape:export-filename="C:\Users\johannes\Documents\Arbeit\RRZE\github3\bicons\720x720\logos\linux.png">
  <title
     id="title4188">linux</title>
  <defs
     id="defs4">
    <linearGradient
       inkscape:collect="always"
       id="linearGradient4257">
      <stop
         style="stop-color:#4e505d;stop-opacity:1;"
         offset="0"
         id="stop4259" />
      <stop
         style="stop-color:#7a859c;stop-opacity:1"
         offset="1"
         id="stop4261" />
    </linearGradient>
    <linearGradient
       id="linearGradient3956">
      <stop
         style="stop-color:#ffffff;stop-opacity:1;"
         offset="0"
         id="stop3958" />
      <stop
         style="stop-color:#252525;stop-opacity:1;"
         offset="1"
         id="stop3960" />
    </linearGradient>
    <linearGradient
       inkscape:collect="always"
       xlink:href="#linearGradient4257"
       id="linearGradient4263"
       x1="215"
       y1="722.36218"
       x2="570.22797"
       y2="322.49194"
       gradientUnits="userSpaceOnUse" />
  </defs>
  <sodipodi:namedview
     id="base"
     pagecolor="#ffffff"
     bordercolor="#666666"
     borderopacity="1.0"
     inkscape:pageopacity="0.0"
     inkscape:pageshadow="2"
     inkscape:zoom="0.5"
     inkscape:cx="208.57283"
     inkscape:cy="491.44406"
     inkscape:document-units="px"
     inkscape:current-layer="layer1"
     showgrid="false"
     showguides="true"
     inkscape:guide-bbox="true"
     inkscape:window-width="1366"
     inkscape:window-height="721"
     inkscape:window-x="-4"
     inkscape:window-y="-4"
     inkscape:window-maximized="1"
     inkscape:snap-bbox="true"
     inkscape:bbox-paths="true"
     inkscape:bbox-nodes="true">
    <sodipodi:guide
       position="560,730.00002"
       orientation="0,1"
       id="guide3338" />
    <sodipodi:guide
       position="560,330.00001"
       orientation="0,1"
       id="guide3340" />
    <sodipodi:guide
       position="190,475.00001"
       orientation="1,0"
       id="guide3344" />
    <sodipodi:guide
       position="590,451.00001"
       orientation="1,0"
       id="guide3346" />
    <inkscape:grid
       type="xygrid"
       id="grid3440" />
    <sodipodi:guide
       position="-111.01577,704.98548"
       orientation="0,1"
       id="guide4151" />
    <sodipodi:guide
       position="54.25,355.00001"
       orientation="0,1"
       id="guide4153" />
    <sodipodi:guide
       position="215,442.00001"
       orientation="1,0"
       id="guide4155" />
    <sodipodi:guide
       position="564.97832,467.39759"
       orientation="1,0"
       id="guide4157" />
  </sodipodi:namedview>
  <metadata
     id="metadata7">
    <rdf:RDF>
      <cc:Work
         rdf:about="">
        <dc:format>image/svg+xml</dc:format>
        <dc:type
           rdf:resource="http://purl.org/dc/dcmitype/StillImage" />
        <dc:title>linux</dc:title>
        <dc:date>June 2015</dc:date>
        <dc:creator>
          <cc:Agent>
            <dc:title>Franziska Sponsel, Johannes Hechler</dc:title>
          </cc:Agent>
        </dc:creator>
        <dc:rights>
          <cc:Agent>
            <dc:title>Franziska Sponsel, Johannes Hechler</dc:title>
          </cc:Agent>
        </dc:rights>
        <dc:publisher>
          <cc:Agent>
            <dc:title>RRZE</dc:title>
          </cc:Agent>
        </dc:publisher>
        <dc:contributor>
          <cc:Agent>
            <dc:title>Ute Weber, Hendrik Eggers, Joanna Barbach</dc:title>
          </cc:Agent>
        </dc:contributor>
        <dc:subject>
          <rdf:Bag>
            <rdf:li>Linux</rdf:li>
            <rdf:li>Tux</rdf:li>
            <rdf:li>Ubuntu</rdf:li>
            <rdf:li>system</rdf:li>
          </rdf:Bag>
        </dc:subject>
        <cc:license
           rdf:resource="http://creativecommons.org/licenses/by-sa/3.0/" />
      </cc:Work>
      <cc:License
         rdf:about="http://creativecommons.org/licenses/by-sa/3.0/">
        <cc:permits
           rdf:resource="http://creativecommons.org/ns#Reproduction" />
        <cc:permits
           rdf:resource="http://creativecommons.org/ns#Distribution" />
        <cc:requires
           rdf:resource="http://creativecommons.org/ns#Notice" />
        <cc:requires
           rdf:resource="http://creativecommons.org/ns#Attribution" />
        <cc:permits
           rdf:resource="http://creativecommons.org/ns#DerivativeWorks" />
        <cc:requires
           rdf:resource="http://creativecommons.org/ns#ShareAlike" />
      </cc:License>
    </rdf:RDF>
  </metadata>
  <g
     inkscape:label="Ebene 1"
     inkscape:groupmode="layer"
     id="layer1">
    <g
       id="g4265">
      <rect
         y="322.36221"
         x="190"
         height="400"
         width="400"
         id="rect4160"
         style="opacity:1;fill:none;fill-opacity:1;stroke:none;stroke-width:23;stroke-linecap:butt;stroke-linejoin:round;stroke-miterlimit:4;stroke-dasharray:none;stroke-opacity:1" />
      <path
         id="path3774"
         d="M 392.10742 322.49219 C 382.91087 322.47007 374.39761 323.96099 368.0918 326.49414 C 349.7476 333.8633 341.08239 345.55488 335.1543 363.80273 C 330.83592 377.09553 338.197 390.83389 335.69727 414.56445 C 335.50647 414.80557 335.31803 415.04991 335.13477 415.30469 C 332.97412 418.30849 332.52424 421.51688 332.39648 424.76758 C 332.32174 426.66938 332.38673 428.53777 332.76758 430.375 C 331.51341 435.14557 329.85656 440.25487 327.68164 445.75586 C 310.03224 490.39634 273.31243 513.62047 264.48242 555.11719 C 262.16076 566.02785 260.40781 576.78911 259.92773 587.42578 C 259.83265 587.5078 259.73763 587.58195 259.64258 587.66602 C 253.28152 593.29179 248.3136 602.02085 244.95508 605.49414 C 243.82354 606.66434 242.4684 607.12216 240.07617 607.5625 C 237.68394 608.00284 234.46446 608.14045 230.97656 609.91602 C 225.38765 612.76112 219.74238 617.76082 216.58008 624.36719 C 214.67811 628.34065 214.86871 632.33159 215.23828 635.68555 C 215.60786 639.03951 216.15723 641.99856 216.0918 644.39648 C 215.90238 651.33727 216.88211 656.54192 216.13867 661.8457 C 215.79914 664.26795 214.53715 668.64636 213.61133 673.23047 C 212.68551 677.81458 211.8342 682.7679 213.71484 687.72266 C 215.25707 691.78583 218.28043 695.00404 221.96094 696.94336 C 225.64145 698.88268 229.88476 700.08372 235.77539 701.96484 C 246.78443 705.48047 256.49669 701.89424 266.75781 704.32031 C 276.98391 706.73809 288.08749 715.28389 301.15234 717.86328 C 312.81075 720.16501 320.35867 720.27847 329.66406 719.28125 C 339.51265 718.2258 347.4665 712.52892 351.59375 704.42383 C 352.48547 702.67267 353.24401 700.88147 353.88867 699.0625 C 360.35656 698.05544 364.33635 694.68711 368.64648 693.80273 C 379.1431 691.64897 392.03488 690.55561 397.91797 692.08008 C 403.80105 693.60456 412.68299 697.11545 432.65625 694.98633 C 433.21361 694.92691 433.80342 694.83613 434.375 694.76367 C 436.04817 702.56518 440.20531 709.21688 445.96875 714.66406 C 452.57897 720.9116 461.98447 723.60545 471.61523 721.29102 C 480.71485 719.10419 487.78654 716.46343 497.99414 710.37891 C 509.43316 703.56039 517.02031 691.77905 525.83984 686.06641 C 534.68962 680.33421 545.04229 680.45111 554.23047 673.44141 C 559.1468 669.6907 562.73958 667.13336 565.55469 664.07031 C 568.3698 661.00726 570.137 656.96036 570.22461 652.61523 C 570.33152 647.31659 567.86517 642.93636 565.45312 638.92969 C 563.04111 634.92301 560.38158 631.22403 559.24805 629.05664 C 556.76602 624.31082 555.93979 619.07922 553.42969 612.60547 C 552.56248 610.36889 552.08528 607.39648 551.30664 604.11328 C 550.52801 600.83009 549.36849 597.00789 546.24219 593.9043 C 541.13181 588.83106 534.28662 586.03702 528.14648 585.18164 C 528.58793 579.3031 528.63709 573.51453 528.22852 567.95312 C 525.89468 536.18561 516.80801 526.75682 505.04102 502.60547 C 493.27401 478.45415 467.98181 455.98246 459.54883 430.90234 C 451.11584 405.82222 459.83193 364.27923 441.64648 342.42969 C 429.71228 328.09091 409.66448 322.53442 392.10742 322.49219 z M 527.03516 595.13281 C 530.93791 595.76009 536.22992 598.05422 539.19727 601 C 540.21426 602.00961 540.93645 603.7244 541.57617 606.42188 C 542.21589 609.11933 542.69279 612.57228 544.10742 616.2207 C 546.16095 621.51691 547.02536 627.26228 550.38672 633.68945 C 552.17489 637.10855 554.78914 640.60679 556.88477 644.08789 C 558.98039 647.56899 560.25574 650.96621 560.22656 652.41211 L 560.22656 652.41406 C 560.17816 654.81347 559.8814 655.46585 558.19141 657.30469 C 556.50141 659.14353 553.14844 661.6891 548.16602 665.49023 C 542.52369 669.79479 531.8338 670.27068 520.4043 677.67383 C 508.94461 685.09656 501.24902 696.79752 492.875 701.78906 C 483.2696 707.51462 477.81114 709.51798 469.2793 711.56836 C 462.62954 713.16641 457.18785 711.50776 452.83789 707.39648 C 448.18712 703.00091 445.14928 698.57618 443.99414 693.05273 C 462.65304 688.80242 485.21905 678.5547 500.14062 660.60742 C 513.30598 644.77249 523.39598 619.79501 527.03516 595.13281 z M 260.18555 602.375 C 262.268 626.91839 273.19426 650.83875 302.25586 674.41992 C 321.39858 689.95272 334.19311 696.44477 343.33984 698.53125 C 343.12793 698.98014 342.91332 699.4298 342.68164 699.88477 C 339.96563 705.21846 335.39781 708.60914 328.59766 709.33789 C 319.87289 710.27289 314.06048 710.21867 303.08984 708.05273 C 293.52562 706.16447 282.3459 697.72943 269.05859 694.58789 C 255.80631 691.45462 245.57688 694.59829 238.81641 692.43945 C 232.84658 690.53304 228.83257 689.26189 226.62305 688.09766 C 224.41352 686.93343 223.91412 686.41753 223.0625 684.17383 C 222.54928 682.8217 222.60969 679.19178 223.41406 675.20898 C 224.21844 671.22619 225.5054 667.05546 226.04102 663.23438 C 227.04789 656.0515 225.9329 650.34626 226.08789 644.66797 C 226.19463 640.75637 225.48333 637.34544 225.17969 634.58984 C 224.87605 631.83425 224.98089 629.97617 225.59961 628.68359 C 227.47873 624.75792 231.97475 620.62671 235.51172 618.82617 C 236.58675 618.27891 238.85088 617.95724 241.88672 617.39844 C 244.92255 616.83963 248.93954 615.75981 252.14453 612.44531 C 252.7905 611.77727 253.4318 611.06367 254.06641 610.31836 C 256.18372 607.83168 258.22847 605.0067 260.18555 602.375 z "
         style="fill:url(#linearGradient4263);fill-opacity:1;stroke:none;stroke-width:3.09646344;stroke-linecap:butt;stroke-linejoin:miter;stroke-miterlimit:4;stroke-dasharray:none;stroke-opacity:1" />
      <path
         sodipodi:nodetypes="cssssscscsscscscsssccccc"
         inkscape:connector-curvature="0"
         id="path3776"
         d="m 422.03711,441.17773 c -1.21144,0.64151 -2.50109,1.21709 -3.94531,1.91797 -4.75623,2.30822 -9.96565,5.71813 -15.00782,8.90821 -5.04216,3.19007 -9.79627,6.21066 -14.76562,7.63476 -6.56383,1.88104 -14.24545,0.69684 -20.6875,-1.30664 -7.36653,-2.29096 -11.33076,-6.87625 -15.87695,-10.35156 -0.90902,-0.69489 -2.11755,-1.42533 -3.47461,-2.20703 -5.05831,52.596 -51.27442,76.64068 -45.96875,132.11914 0.44911,4.69609 1.06065,9.27195 1.79687,13.74414 1.83333,1.208 3.76325,2.30258 5.80078,3.25586 16.7228,7.82391 36.08769,25.5861 38.19727,43.92773 0.57348,4.98587 -4.76917,9.18156 -10.82422,11.34571 5.98262,7.23815 11.13979,12.87642 13.77148,17.58789 0.85172,1.5248 1.58052,3.04726 2.20899,4.5664 10.0097,4.84278 21.37243,7.15862 34.01953,6.45899 24.36701,-1.34798 40.14537,-5.62475 52.42578,-15.92188 0.60045,-1.60926 1.20371,-3.22104 1.83203,-4.96875 3.32742,-9.25532 6.84445,-19.97723 8.47656,-29.93945 0.94458,-5.76546 1.84523,-13.44925 3.09961,-20.80664 1.25439,-7.3574 2.67413,-14.29618 5.63282,-19.58399 3.42174,-6.50285 5.71048,-9.74754 9.36328,-11.24414 1.72985,-1.03262 3.55073,-1.8836 5.55859,-2.55664 0.14586,-0.0489 0.29173,-0.0873 0.4375,-0.13476 -7.90867,-41.82847 -44.81604,-90.56456 -52.07031,-132.44532 z"
         style="fill:#ffffff;fill-opacity:1;stroke:none;stroke-width:2.78681731;stroke-linecap:butt;stroke-linejoin:miter;stroke-miterlimit:4;stroke-dasharray:none;stroke-opacity:1" />
      <path
         id="path3797"
         d="M 280.22656 591.00391 C 279.69731 590.99243 279.08449 590.99584 278.35742 591.00977 C 272.45369 591.123 270.77494 591.17185 266.26758 595.1582 C 262.1385 598.80999 257.31229 607.10095 252.14453 612.44531 C 248.93954 615.75981 244.92255 616.83963 241.88672 617.39844 C 238.85088 617.95724 236.58675 618.27891 235.51172 618.82617 C 231.97475 620.62671 227.47873 624.75792 225.59961 628.68359 C 224.98089 629.97617 224.87605 631.83425 225.17969 634.58984 C 225.48333 637.34544 226.19463 640.75637 226.08789 644.66797 C 225.9329 650.34626 227.04789 656.0515 226.04102 663.23438 C 225.5054 667.05546 224.21844 671.22619 223.41406 675.20898 C 222.60969 679.19178 222.54928 682.8217 223.0625 684.17383 C 223.91412 686.41753 224.41352 686.93343 226.62305 688.09766 C 228.83257 689.26189 232.84658 690.53304 238.81641 692.43945 C 245.57688 694.59829 255.80631 691.45462 269.05859 694.58789 C 282.3459 697.72943 293.52562 706.16447 303.08984 708.05273 C 314.06048 710.21867 319.87289 710.27289 328.59766 709.33789 C 335.39781 708.60914 339.96563 705.21846 342.68164 699.88477 C 347.33944 690.7378 348.06615 682.91397 342.32227 672.63086 C 340.98867 670.24337 335.33584 663.56171 328.96484 655.80664 C 322.59384 648.05157 315.32743 638.76615 309.89844 628.94531 C 306.88343 623.49129 303.49415 616.63219 300.02148 610.44531 C 296.54882 604.25843 292.78525 598.71836 290.27734 596.52734 C 286.85006 593.53312 284.89949 592.17011 283.61719 591.61914 C 282.65546 591.20591 281.81431 591.03833 280.22656 591.00391 z "
         style="fill:#ffffff;fill-opacity:1;stroke:none;stroke-width:10;stroke-linecap:butt;stroke-linejoin:miter;stroke-miterlimit:4;stroke-dasharray:none;stroke-opacity:1" />
      <path
         id="path3799"
         d="M 470.49609 587.52734 C 469.69207 588.66141 468.72647 590.20406 467.47461 592.44141 C 465.84851 595.34759 464.16507 601.82833 462.97266 608.82227 C 461.78024 615.8162 460.89036 623.41454 459.88281 629.56445 C 458.06857 640.63836 454.34665 651.82684 450.95117 661.27148 C 447.55569 670.71613 444.47551 678.90872 444.02148 681.60547 C 442.06595 693.22057 445.37793 700.34587 452.83789 707.39648 C 457.18785 711.50776 462.62954 713.16641 469.2793 711.56836 C 477.81114 709.51798 483.2696 707.51462 492.875 701.78906 C 501.24902 696.79752 508.94461 685.09656 520.4043 677.67383 C 531.8338 670.27068 542.52369 669.79479 548.16602 665.49023 C 553.14844 661.6891 556.50141 659.14353 558.19141 657.30469 C 559.8814 655.46585 560.17816 654.81347 560.22656 652.41406 L 560.22656 652.41211 C 560.25574 650.96621 558.98039 647.56899 556.88477 644.08789 C 554.78914 640.60679 552.17489 637.10855 550.38672 633.68945 C 547.02536 627.26228 546.16095 621.51691 544.10742 616.2207 C 542.69279 612.57228 542.21589 609.11933 541.57617 606.42188 C 540.93645 603.72441 540.21426 602.00961 539.19727 601 C 536.10857 597.93375 530.48514 595.55456 526.54883 595.04688 C 525.35243 594.89256 523.11157 595.34825 520.06445 595.8418 C 518.67693 596.06654 517.05478 596.24462 515.31641 596.19336 C 514.69435 597.03377 513.9345 597.87689 512.99609 598.71289 C 507.15046 603.92065 504.17699 611.50098 496.44336 612.71875 C 489.93469 613.74364 476.91236 612.33808 474.16016 606.35156 C 471.13559 599.77259 471.97374 595.13891 470.49609 587.52734 z "
         style="fill:#ffffff;fill-opacity:1;stroke:none;stroke-width:10;stroke-linecap:butt;stroke-linejoin:miter;stroke-miterlimit:4;stroke-dasharray:none;stroke-opacity:1" />
      <path
         id="path3805"
         d="M 355.12305 368.56641 A 14.058408 27.216331 0 0 0 341.06445 395.7832 A 14.058408 27.216331 0 0 0 342.73242 408.61719 C 344.38097 407.61239 346.06916 406.71745 347.71094 405.80273 C 348.39092 405.42388 349.06092 405.02934 349.73438 404.64062 A 13.018442 6.9703689 85.537124 0 1 348.47852 398.71289 A 13.018442 6.9703689 85.537124 0 1 354.41406 385.19141 A 13.018442 6.9703689 85.537124 0 1 361.97266 394.78125 C 364.03167 393.00673 366.41855 391.78885 368.95117 391.00391 A 14.058408 27.216331 0 0 0 355.12305 368.56641 z M 368.77148 402.17773 C 368.39685 402.45848 368.05189 402.75252 367.77148 403.07031 C 362.73855 408.77438 357.11424 412.01178 352.57812 414.53906 C 350.37492 415.76658 348.48944 416.844 346.94531 417.87891 A 14.058408 27.216331 0 0 0 355.12305 423 A 14.058408 27.216331 0 0 0 368.77148 402.17773 z "
         style="fill:#ffffff;fill-opacity:1;stroke:none;stroke-width:1.75466275;stroke-linecap:round;stroke-linejoin:round;stroke-miterlimit:4;stroke-dasharray:none;stroke-dashoffset:22.80179977;stroke-opacity:1" />
      <path
         id="path3801"
         d="M 377.77344 399.8457 C 373.33561 399.72186 369.5513 401.05317 367.77148 403.07031 C 362.73855 408.77438 357.11424 412.01178 352.57812 414.53906 C 348.04203 417.06635 344.82095 418.96326 343.25195 421.14453 C 343.2124 421.19952 342.46707 423.16764 342.38867 425.16211 C 342.31028 427.15658 342.83796 429.31274 342.98242 429.58789 C 343.72806 431.00808 345.66532 432.66252 348.45898 434.33984 C 351.25264 436.01717 354.68333 437.6346 357.82617 440.03711 C 363.2556 444.1876 365.97612 447.34532 370.59961 448.7832 C 375.53428 450.31788 382.7774 450.82353 385.5625 450.02539 C 388.26634 449.25053 392.80778 446.67093 397.73633 443.55273 C 402.66488 440.43454 408.10273 436.82793 413.72461 434.09961 C 416.83434 432.59044 418.41853 431.77931 419.02539 431.23828 C 419.63225 430.69725 420.10116 430.0737 421.01172 427.21289 C 421.79 424.76765 421.09685 420.67577 419.59766 418.74414 C 417.42125 415.93996 415.21736 415.5005 410.0957 414.0332 C 404.97405 412.56591 397.82225 410.25187 389.55664 403.67383 C 386.95435 401.60284 382.21126 399.96954 377.77344 399.8457 z "
         style="fill:#ffffff;fill-opacity:1;stroke:none;stroke-width:10;stroke-linecap:butt;stroke-linejoin:miter;stroke-miterlimit:4;stroke-dasharray:none;stroke-opacity:1" />
      <path
         id="path4187"
         d="M 404.44922 366.33789 A 19.735819 27.216331 0 0 0 384.8418 390.72852 C 388.85882 391.66664 392.64455 393.35177 395.7832 395.84961 C 395.98185 396.0077 396.16374 396.13146 396.35938 396.2832 A 8.7404108 12.878566 0 0 1 396.34375 395.625 A 8.7404108 12.878566 0 0 1 405.08594 382.74609 A 8.7404108 12.878566 0 0 1 413.82617 395.625 A 8.7404108 12.878566 0 0 1 411.67188 404.07422 C 412.06529 404.18985 412.45974 404.30823 412.84961 404.41992 C 415.60191 405.20843 418.56653 406.00402 421.37305 407.49609 A 19.735819 27.216331 0 0 0 424.18359 393.55469 A 19.735819 27.216331 0 0 0 404.44922 366.33789 z "
         style="fill:#ffffff;fill-opacity:1;stroke:none;stroke-width:1.75466275;stroke-linecap:round;stroke-linejoin:round;stroke-miterlimit:4;stroke-dasharray:none;stroke-dashoffset:22.80179977;stroke-opacity:1" />
    </g>
  </g>
</svg>
