<?xml version="1.0" encoding="UTF-8" standalone="no"?>
<!-- Created with Inkscape (http://www.inkscape.org/) -->

<svg
   xmlns:dc="http://purl.org/dc/elements/1.1/"
   xmlns:cc="http://creativecommons.org/ns#"
   xmlns:rdf="http://www.w3.org/1999/02/22-rdf-syntax-ns#"
   xmlns:svg="http://www.w3.org/2000/svg"
   xmlns="http://www.w3.org/2000/svg"
   xmlns:xlink="http://www.w3.org/1999/xlink"
   xmlns:sodipodi="http://sodipodi.sourceforge.net/DTD/sodipodi-0.dtd"
   xmlns:inkscape="http://www.inkscape.org/namespaces/inkscape"
   width="210mm"
   height="297mm"
   viewBox="0 0 744.09448819 1052.3622047"
   id="svg2"
   version="1.1"
   inkscape:version="0.91 r13725"
   inkscape:export-xdpi="4"
   inkscape:export-ydpi="4"
   sodipodi:docname="linux-ZUV.svg">
  <title
     id="title4195">linux ZUV</title>
  <defs
     id="defs4">
    <linearGradient
       id="linearGradient3956">
      <stop
         style="stop-color:#ffffff;stop-opacity:1;"
         offset="0"
         id="stop3958" />
      <stop
         style="stop-color:#252525;stop-opacity:1;"
         offset="1"
         id="stop3960" />
    </linearGradient>
    <linearGradient
       inkscape:collect="always"
       xlink:href="#linearGradient4257"
       id="linearGradient4263"
       x1="215"
       y1="722.36218"
       x2="570.22797"
       y2="322.49194"
       gradientUnits="userSpaceOnUse"
       gradientTransform="translate(-4.5736043e-6,-1.3092005e-5)" />
    <linearGradient
       inkscape:collect="always"
       id="linearGradient4257">
      <stop
         style="stop-color:#4e505d;stop-opacity:1;"
         offset="0"
         id="stop4259" />
      <stop
         style="stop-color:#7a859c;stop-opacity:1"
         offset="1"
         id="stop4261" />
    </linearGradient>
  </defs>
  <sodipodi:namedview
     id="base"
     pagecolor="#ffffff"
     bordercolor="#666666"
     borderopacity="1.0"
     inkscape:pageopacity="0.0"
     inkscape:pageshadow="2"
     inkscape:zoom="0.82463145"
     inkscape:cx="504.71175"
     inkscape:cy="515.02842"
     inkscape:document-units="px"
     inkscape:current-layer="layer1"
     showgrid="false"
     showguides="true"
     inkscape:guide-bbox="true"
     inkscape:window-width="1366"
     inkscape:window-height="721"
     inkscape:window-x="-4"
     inkscape:window-y="-4"
     inkscape:window-maximized="1"
     inkscape:snap-bbox="true"
     inkscape:bbox-paths="true"
     inkscape:snap-bbox-edge-midpoints="false"
     inkscape:bbox-nodes="true">
    <sodipodi:guide
       position="560,730.00002"
       orientation="0,1"
       id="guide3338" />
    <sodipodi:guide
       position="560,330.00001"
       orientation="0,1"
       id="guide3340" />
    <sodipodi:guide
       position="190,475.00001"
       orientation="1,0"
       id="guide3344" />
    <sodipodi:guide
       position="590,451.00001"
       orientation="1,0"
       id="guide3346" />
    <inkscape:grid
       type="xygrid"
       id="grid3440" />
    <sodipodi:guide
       position="-111.01577,704.98548"
       orientation="0,1"
       id="guide4151" />
    <sodipodi:guide
       position="54.25,355.00001"
       orientation="0,1"
       id="guide4153" />
    <sodipodi:guide
       position="215,442.00001"
       orientation="1,0"
       id="guide4155" />
    <sodipodi:guide
       position="564.97832,467.39759"
       orientation="1,0"
       id="guide4157" />
  </sodipodi:namedview>
  <metadata
     id="metadata7">
    <rdf:RDF>
      <cc:Work
         rdf:about="">
        <dc:format>image/svg+xml</dc:format>
        <dc:type
           rdf:resource="http://purl.org/dc/dcmitype/StillImage" />
        <dc:title>linux ZUV</dc:title>
        <dc:date>June 2015</dc:date>
        <dc:creator>
          <cc:Agent>
            <dc:title>Franziska Sponsel, Johannes Hechler</dc:title>
          </cc:Agent>
        </dc:creator>
        <dc:rights>
          <cc:Agent>
            <dc:title>Franziska Sponsel, Johannes Hechler</dc:title>
          </cc:Agent>
        </dc:rights>
        <dc:publisher>
          <cc:Agent>
            <dc:title>RRZE</dc:title>
          </cc:Agent>
        </dc:publisher>
        <dc:contributor>
          <cc:Agent>
            <dc:title>Ute Weber, Hendrik Eggers, Joanna Barbach</dc:title>
          </cc:Agent>
        </dc:contributor>
        <dc:subject>
          <rdf:Bag>
            <rdf:li>Linux</rdf:li>
            <rdf:li>Tux</rdf:li>
            <rdf:li>Ubuntu</rdf:li>
            <rdf:li>system</rdf:li>
            <rdf:li>ZUV</rdf:li>
            <rdf:li>Zentrale Universitaetsverwalt</rdf:li>
          </rdf:Bag>
        </dc:subject>
        <cc:license
           rdf:resource="http://creativecommons.org/licenses/by-sa/3.0/" />
      </cc:Work>
      <cc:License
         rdf:about="http://creativecommons.org/licenses/by-sa/3.0/">
        <cc:permits
           rdf:resource="http://creativecommons.org/ns#Reproduction" />
        <cc:permits
           rdf:resource="http://creativecommons.org/ns#Distribution" />
        <cc:requires
           rdf:resource="http://creativecommons.org/ns#Notice" />
        <cc:requires
           rdf:resource="http://creativecommons.org/ns#Attribution" />
        <cc:permits
           rdf:resource="http://creativecommons.org/ns#DerivativeWorks" />
        <cc:requires
           rdf:resource="http://creativecommons.org/ns#ShareAlike" />
      </cc:License>
    </rdf:RDF>
  </metadata>
  <g
     inkscape:label="Ebene 1"
     inkscape:groupmode="layer"
     id="layer1">
    <g
       id="g4219"
       inkscape:export-filename="C:\Users\johannes\Documents\Arbeit\RRZE\github3\bicons\32x32\logos\linux-ZUV.png"
       inkscape:export-xdpi="7.1999998"
       inkscape:export-ydpi="7.1999998">
      <rect
         y="322.36221"
         x="190"
         height="400"
         width="400"
         id="rect4160-3"
         style="opacity:1;fill:none;fill-opacity:1;stroke:none;stroke-width:23;stroke-linecap:butt;stroke-linejoin:round;stroke-miterlimit:4;stroke-dasharray:none;stroke-opacity:1" />
      <path
         id="path3774"
         d="M 392.10742 322.49219 C 382.91087 322.47009 374.39761 323.96099 368.0918 326.49414 C 349.7476 333.8633 341.08239 345.55488 335.1543 363.80273 C 330.83592 377.09553 338.197 390.83389 335.69727 414.56445 C 335.50647 414.80557 335.31803 415.04991 335.13477 415.30469 C 332.97412 418.30849 332.52424 421.51688 332.39648 424.76758 C 332.32178 426.66938 332.38648 428.53777 332.76758 430.375 C 331.51341 435.14557 329.85656 440.25487 327.68164 445.75586 C 310.03224 490.39634 273.31243 513.62047 264.48242 555.11719 C 262.16076 566.02785 260.40781 576.78911 259.92773 587.42578 C 259.83263 587.50778 259.73763 587.58195 259.64258 587.66602 C 257.55638 589.51107 255.6363 591.69435 253.85742 593.91211 L 312.2832 593.91211 A 18.0018 18.0018 0 0 1 323.53711 597.87109 A 18.0018 18.0018 0 0 1 334.76953 593.91211 L 363.4375 593.91211 A 18.0018 18.0018 0 0 1 381.4375 611.91211 L 381.4375 678.55469 C 381.4375 682.14088 381.89897 684.68399 382.24219 686.1875 C 382.48981 686.1885 382.28294 686.16797 382.64648 686.16797 C 383.07118 686.16797 382.84285 686.19436 383.11328 686.19336 C 383.45641 684.72671 383.93164 682.18719 383.93164 678.55469 L 383.93164 611.91211 A 18.0018 18.0018 0 0 1 401.93164 593.91211 L 430.59961 593.91211 A 18.0018 18.0018 0 0 1 438.00195 595.53125 A 18.0018 18.0018 0 0 1 445.41602 593.91211 L 474.23242 593.91211 A 18.0018 18.0018 0 0 1 491.17188 605.82617 L 503.69531 640.67969 L 516.18359 605.83984 A 18.0018 18.0018 0 0 1 533.12891 593.91211 L 546.25 593.91211 C 546.24733 593.90946 546.24486 593.90695 546.24219 593.9043 C 541.13181 588.83106 534.28662 586.03702 528.14648 585.18164 C 528.58793 579.3031 528.63713 573.51454 528.22852 567.95312 C 525.89468 536.18561 516.80801 526.75682 505.04102 502.60547 C 493.27401 478.45415 467.98181 455.98246 459.54883 430.90234 C 451.11584 405.82222 459.83193 364.27923 441.64648 342.42969 C 429.71228 328.09091 409.66448 322.53442 392.10742 322.49219 z M 568.78125 645.28125 L 559.98047 669.04102 C 562.13173 667.35064 563.98313 665.78029 565.55469 664.07031 C 568.3698 661.00726 570.137 656.96036 570.22461 652.61523 C 570.27811 649.96367 569.68728 647.54111 568.78125 645.28125 z M 216.2168 651.37109 C 216.39357 655.11716 216.60953 658.48642 216.13867 661.8457 C 215.79914 664.26795 214.53715 668.64636 213.61133 673.23047 C 212.98892 676.31225 212.42145 679.56146 212.67383 682.86523 L 225.14648 667.77734 C 225.50482 666.23397 225.83489 664.70483 226.04102 663.23438 C 226.64707 658.91086 226.48279 655.14924 226.29102 651.58008 L 218.83789 651.58008 A 18.0018 18.0018 0 0 1 216.2168 651.37109 z M 316.76953 652.08789 L 299.91211 672.48047 C 300.6817 673.1274 301.45921 673.7735 302.25586 674.41992 C 306.48236 677.84939 310.38289 680.81418 314.01953 683.41211 A 18.0018 18.0018 0 0 1 316.94531 683.66016 C 316.85943 681.9668 316.76953 680.27519 316.76953 678.55469 L 316.76953 652.08789 z M 448.59961 672.33008 L 448.59961 678.55469 C 448.59961 683.19675 448.28969 687.74919 447.64258 692.15625 C 450.08882 691.51259 452.58761 690.7633 455.11328 689.91602 L 448.59961 672.33008 z M 446.27539 699.20703 C 445.29458 703.24002 443.98626 707.11032 442.32031 710.76562 C 443.45146 712.12353 444.6623 713.4293 445.96875 714.66406 C 451.51667 719.90759 459.03538 722.63471 467.00195 722.01172 L 463.3418 712.13086 C 459.30487 711.8724 455.81488 710.21012 452.83789 707.39648 C 450.04424 704.75613 447.84661 702.10025 446.27539 699.20703 z "
         style="fill:url(#linearGradient4263);fill-opacity:1;stroke:none;stroke-width:3.09646344;stroke-linecap:butt;stroke-linejoin:miter;stroke-miterlimit:4;stroke-dasharray:none;stroke-opacity:1" />
      <path
         id="path3776"
         d="M 422.03711 441.17773 C 420.82567 441.81924 419.53602 442.39482 418.0918 443.0957 C 413.33557 445.40392 408.12615 448.81383 403.08398 452.00391 C 398.04182 455.19398 393.28771 458.21457 388.31836 459.63867 C 381.75453 461.51971 374.07291 460.33551 367.63086 458.33203 C 360.26433 456.04107 356.3001 451.45578 351.75391 447.98047 C 350.84489 447.28558 349.63636 446.55514 348.2793 445.77344 C 343.22099 498.36944 297.00488 522.41412 302.31055 577.89258 C 302.75966 582.58867 303.3712 587.16453 304.10742 591.63672 C 305.34348 592.45117 306.62783 593.20932 307.95508 593.91211 L 312.2832 593.91211 A 18.0018 18.0018 0 0 1 323.53711 597.87109 A 18.0018 18.0018 0 0 1 334.76953 593.91211 L 363.4375 593.91211 A 18.0018 18.0018 0 0 1 381.4375 611.91211 L 381.4375 678.55469 C 381.4375 678.67123 381.44631 678.76457 381.44727 678.87891 C 382.26617 678.89438 383.09141 678.89768 383.92188 678.88672 C 383.92288 678.76942 383.93164 678.67435 383.93164 678.55469 L 383.93164 611.91211 A 18.0018 18.0018 0 0 1 401.93164 593.91211 L 430.59961 593.91211 A 18.0018 18.0018 0 0 1 438.00195 595.53125 A 18.0018 18.0018 0 0 1 445.41602 593.91211 L 456.07422 593.91211 C 456.80812 591.61783 457.67459 589.47709 458.74805 587.55859 C 462.16979 581.05574 464.45853 577.81105 468.11133 576.31445 C 469.84118 575.28183 471.66206 574.43085 473.66992 573.75781 C 473.81578 573.70891 473.96165 573.67051 474.10742 573.62305 C 466.19875 531.79458 429.29138 483.05849 422.03711 441.17773 z "
         style="fill:#ffffff;fill-opacity:1;stroke:none;stroke-width:2.78681731;stroke-linecap:butt;stroke-linejoin:miter;stroke-miterlimit:4;stroke-dasharray:none;stroke-opacity:1" />
      <path
         id="path3797"
         d="M 280.22656 591.00391 C 279.69731 590.99241 279.08449 590.99577 278.35742 591.00977 C 273.15127 591.10962 271.22605 591.16807 267.75391 593.91211 L 287.11719 593.91211 C 285.56382 592.70384 284.42923 591.96806 283.61719 591.61914 C 282.65546 591.20591 281.81431 591.03833 280.22656 591.00391 z M 226.29102 651.58008 C 226.4828 655.14924 226.64709 658.91086 226.04102 663.23438 C 225.83494 664.70451 225.50472 666.23431 225.14648 667.77734 L 238.53516 651.58008 L 226.29102 651.58008 z M 316.76953 652.08789 L 290.875 683.41211 L 313.99609 683.41211 A 18.0018 18.0018 0 0 1 316.94531 683.66016 C 316.85943 681.9668 316.76953 680.27519 316.76953 678.55469 L 316.76953 652.08789 z "
         style="fill:#ffffff;fill-opacity:1;stroke:none;stroke-width:10;stroke-linecap:butt;stroke-linejoin:miter;stroke-miterlimit:4;stroke-dasharray:none;stroke-opacity:1" />
      <path
         id="path3799"
         d="M 470.49609 587.52734 C 469.69207 588.66141 468.72647 590.20406 467.47461 592.44141 C 467.24269 592.8559 467.01001 593.36107 466.77734 593.91211 L 471.38867 593.91211 C 471.19033 591.96048 470.95908 589.91223 470.49609 587.52734 z M 526.05078 595.01562 C 524.77871 595.00621 522.73068 595.40994 520.06445 595.8418 C 518.67693 596.06654 517.05478 596.24462 515.31641 596.19336 C 514.69435 597.03377 513.9345 597.87689 512.99609 598.71289 C 507.15046 603.92065 504.17699 611.50098 496.44336 612.71875 C 495.63367 612.84625 494.72312 612.93624 493.74414 612.98438 L 503.69531 640.67969 L 516.18359 605.83984 A 18.0018 18.0018 0 0 1 526.78906 595.08984 C 526.7114 595.07858 526.62525 595.05673 526.54883 595.04688 C 526.39928 595.02759 526.23251 595.01697 526.05078 595.01562 z M 448.59961 672.33008 L 448.59961 678.55469 C 448.59961 685.73034 447.86139 692.69173 446.26953 699.22852 C 447.84044 702.11562 450.04926 704.76087 452.83789 707.39648 C 455.81488 710.21012 459.30487 711.8724 463.3418 712.13086 L 448.59961 672.33008 z "
         style="fill:#ffffff;fill-opacity:1;stroke:none;stroke-width:10;stroke-linecap:butt;stroke-linejoin:miter;stroke-miterlimit:4;stroke-dasharray:none;stroke-opacity:1" />
      <path
         inkscape:connector-curvature="0"
         id="path3805"
         d="m 355.12305,368.5664 a 14.058408,27.216331 0 0 0 -14.0586,27.21679 14.058408,27.216331 0 0 0 1.66797,12.83399 c 1.64855,-1.0048 3.33674,-1.89974 4.97852,-2.81446 0.67998,-0.37885 1.34998,-0.77339 2.02344,-1.16211 a 13.018442,6.9703689 85.537124 0 1 -1.25586,-5.92773 13.018442,6.9703689 85.537124 0 1 5.93554,-13.52148 13.018442,6.9703689 85.537124 0 1 7.5586,9.58984 c 2.05901,-1.77452 4.44589,-2.9924 6.97851,-3.77734 a 14.058408,27.216331 0 0 0 -13.82812,-22.4375 z m 13.64843,33.61132 c -0.37463,0.28075 -0.71959,0.57479 -1,0.89258 -5.03293,5.70407 -10.65724,8.94147 -15.19336,11.46875 -2.2032,1.22752 -4.08868,2.30494 -5.63281,3.33985 a 14.058408,27.216331 0 0 0 8.17774,5.12109 14.058408,27.216331 0 0 0 13.64843,-20.82227 z"
         style="fill:#ffffff;fill-opacity:1;stroke:none;stroke-width:1.75466275;stroke-linecap:round;stroke-linejoin:round;stroke-miterlimit:4;stroke-dasharray:none;stroke-dashoffset:22.80179977;stroke-opacity:1" />
      <path
         inkscape:connector-curvature="0"
         id="path3801"
         d="m 377.77344,399.84569 c -4.43783,-0.12384 -8.22214,1.20747 -10.00196,3.22461 -5.03293,5.70407 -10.65724,8.94147 -15.19336,11.46875 -4.53609,2.52729 -7.75717,4.4242 -9.32617,6.60547 -0.0396,0.055 -0.78488,2.02311 -0.86328,4.01758 -0.0784,1.99447 0.44929,4.15063 0.59375,4.42578 0.74564,1.42019 2.6829,3.07463 5.47656,4.75195 2.79366,1.67733 6.22435,3.29476 9.36719,5.69727 5.42943,4.15049 8.14995,7.30821 12.77344,8.74609 4.93467,1.53468 12.17779,2.04033 14.96289,1.24219 2.70384,-0.77486 7.24528,-3.35446 12.17383,-6.47266 4.92855,-3.11819 10.3664,-6.7248 15.98828,-9.45312 3.10973,-1.50917 4.69392,-2.3203 5.30078,-2.86133 0.60686,-0.54103 1.07577,-1.16458 1.98633,-4.02539 0.77828,-2.44524 0.0851,-6.53712 -1.41406,-8.46875 -2.17641,-2.80418 -4.3803,-3.24364 -9.50196,-4.71094 -5.12165,-1.46729 -12.27345,-3.78133 -20.53906,-10.35937 -2.60229,-2.07099 -7.34538,-3.70429 -11.7832,-3.82813 z"
         style="fill:#ffffff;fill-opacity:1;stroke:none;stroke-width:10;stroke-linecap:butt;stroke-linejoin:miter;stroke-miterlimit:4;stroke-dasharray:none;stroke-opacity:1" />
      <path
         inkscape:connector-curvature="0"
         id="path4187"
         d="m 404.44922,366.33788 a 19.735819,27.216331 0 0 0 -19.60742,24.39063 c 4.01702,0.93812 7.80275,2.62325 10.9414,5.12109 0.19865,0.15809 0.38054,0.28185 0.57618,0.43359 a 8.7404108,12.878566 0 0 1 -0.0156,-0.6582 8.7404108,12.878566 0 0 1 8.74219,-12.87891 8.7404108,12.878566 0 0 1 8.74023,12.87891 8.7404108,12.878566 0 0 1 -2.15429,8.44922 c 0.39341,0.11563 0.78786,0.23401 1.17773,0.3457 2.7523,0.78851 5.71692,1.5841 8.52344,3.07617 a 19.735819,27.216331 0 0 0 2.81054,-13.9414 19.735819,27.216331 0 0 0 -19.73437,-27.2168 z"
         style="fill:#ffffff;fill-opacity:1;stroke:none;stroke-width:1.75466275;stroke-linecap:round;stroke-linejoin:round;stroke-miterlimit:4;stroke-dasharray:none;stroke-dashoffset:22.80179977;stroke-opacity:1" />
      <rect
         y="322.36221"
         x="190"
         height="400"
         width="400"
         id="rect4160-9"
         style="opacity:1;fill:none;fill-opacity:1;stroke:none;stroke-width:23;stroke-linecap:butt;stroke-linejoin:round;stroke-miterlimit:4;stroke-dasharray:none;stroke-opacity:1" />
      <rect
         y="322.36221"
         x="190"
         height="400"
         width="400"
         id="rect4160"
         style="opacity:1;fill:none;fill-opacity:1;stroke:none;stroke-width:23;stroke-linecap:butt;stroke-linejoin:round;stroke-miterlimit:4;stroke-dasharray:none;stroke-opacity:1" />
      <rect
         y="625.36218"
         x="190"
         height="97"
         width="400"
         id="rect4275"
         style="color:#000000;clip-rule:nonzero;display:inline;overflow:visible;visibility:visible;opacity:1;isolation:auto;mix-blend-mode:normal;color-interpolation:sRGB;color-interpolation-filters:linearRGB;solid-color:#000000;solid-opacity:1;fill:#ffffff;fill-opacity:1;fill-rule:nonzero;stroke:none;stroke-width:35;stroke-linecap:butt;stroke-linejoin:round;stroke-miterlimit:4;stroke-dasharray:none;stroke-dashoffset:0;stroke-opacity:1;color-rendering:auto;image-rendering:auto;shape-rendering:auto;text-rendering:auto;enable-background:accumulate" />
      <text
         sodipodi:linespacing="125%"
         id="text4188"
         y="723.08032"
         x="210.27481"
         style="font-style:normal;font-weight:normal;font-size:152.49197388px;line-height:125%;font-family:sans-serif;letter-spacing:0px;word-spacing:0px;fill:#4e505d;fill-opacity:1;stroke:none;stroke-width:1px;stroke-linecap:butt;stroke-linejoin:miter;stroke-opacity:1;"
         xml:space="preserve"><tspan
           style="font-style:normal;font-variant:normal;font-weight:bold;font-stretch:normal;font-family:sans-serif;-inkscape-font-specification:'sans-serif Bold';fill:#4e505d;fill-opacity:1;"
           y="723.08032"
           x="210.27481"
           id="tspan4190"
           sodipodi:role="line">ZUV</tspan></text>
    </g>
  </g>
</svg>
