<?xml version="1.0" encoding="UTF-8" standalone="no"?>
<!-- Created with Inkscape (http://www.inkscape.org/) -->

<svg
   xmlns:dc="http://purl.org/dc/elements/1.1/"
   xmlns:cc="http://creativecommons.org/ns#"
   xmlns:rdf="http://www.w3.org/1999/02/22-rdf-syntax-ns#"
   xmlns:svg="http://www.w3.org/2000/svg"
   xmlns="http://www.w3.org/2000/svg"
   xmlns:sodipodi="http://sodipodi.sourceforge.net/DTD/sodipodi-0.dtd"
   xmlns:inkscape="http://www.inkscape.org/namespaces/inkscape"
   width="210mm"
   height="297mm"
   viewBox="0 0 744.09448819 1052.3622047"
   id="svg2"
   version="1.1"
   inkscape:version="0.91 r13725"
   inkscape:export-xdpi="4"
   inkscape:export-ydpi="4"
   sodipodi:docname="otrs.svg">
  <title
     id="title4157">otrs</title>
  <defs
     id="defs4" />
  <sodipodi:namedview
     id="base"
     pagecolor="#ffffff"
     bordercolor="#666666"
     borderopacity="1.0"
     inkscape:pageopacity="0.0"
     inkscape:pageshadow="2"
     inkscape:zoom="1"
     inkscape:cx="222.94687"
     inkscape:cy="517.93424"
     inkscape:document-units="px"
     inkscape:current-layer="layer1"
     showgrid="false"
     showguides="true"
     inkscape:guide-bbox="true"
     inkscape:window-width="1280"
     inkscape:window-height="962"
     inkscape:window-x="-8"
     inkscape:window-y="-8"
     inkscape:window-maximized="1">
    <sodipodi:guide
       position="560,730.00002"
       orientation="0,1"
       id="guide3338" />
    <sodipodi:guide
       position="560,330.00001"
       orientation="0,1"
       id="guide3340" />
    <sodipodi:guide
       position="190,475.00001"
       orientation="1,0"
       id="guide3344" />
    <sodipodi:guide
       position="590,451.00001"
       orientation="1,0"
       id="guide3346" />
    <inkscape:grid
       type="xygrid"
       id="grid3440" />
    <sodipodi:guide
       position="-111.01577,704.98548"
       orientation="0,1"
       id="guide4151" />
    <sodipodi:guide
       position="54.25,355.00001"
       orientation="0,1"
       id="guide4153" />
    <sodipodi:guide
       position="215,442.00001"
       orientation="1,0"
       id="guide4155" />
    <sodipodi:guide
       position="564.97832,467.39759"
       orientation="1,0"
       id="guide4157" />
  </sodipodi:namedview>
  <metadata
     id="metadata7">
    <rdf:RDF>
      <cc:Work
         rdf:about="">
        <dc:format>image/svg+xml</dc:format>
        <dc:type
           rdf:resource="http://purl.org/dc/dcmitype/StillImage" />
        <dc:title>otrs</dc:title>
        <dc:date>June 2015</dc:date>
        <dc:creator>
          <cc:Agent>
            <dc:title>Franziska Sponsel, Johannes Hechler</dc:title>
          </cc:Agent>
        </dc:creator>
        <dc:rights>
          <cc:Agent>
            <dc:title>Franziska Sponsel, Johannes Hechler</dc:title>
          </cc:Agent>
        </dc:rights>
        <dc:publisher>
          <cc:Agent>
            <dc:title>RRZE</dc:title>
          </cc:Agent>
        </dc:publisher>
        <dc:contributor>
          <cc:Agent>
            <dc:title>Ute Weber, Hendrik Eggers, Joanna Barbach</dc:title>
          </cc:Agent>
        </dc:contributor>
        <dc:subject>
          <rdf:Bag>
            <rdf:li>database</rdf:li>
            <rdf:li>symbol</rdf:li>
            <rdf:li>icon</rdf:li>
            <rdf:li>otrs</rdf:li>
            <rdf:li>logo</rdf:li>
          </rdf:Bag>
        </dc:subject>
        <cc:license
           rdf:resource="http://creativecommons.org/licenses/by-sa/3.0/" />
      </cc:Work>
      <cc:License
         rdf:about="http://creativecommons.org/licenses/by-sa/3.0/">
        <cc:permits
           rdf:resource="http://creativecommons.org/ns#Reproduction" />
        <cc:permits
           rdf:resource="http://creativecommons.org/ns#Distribution" />
        <cc:requires
           rdf:resource="http://creativecommons.org/ns#Notice" />
        <cc:requires
           rdf:resource="http://creativecommons.org/ns#Attribution" />
        <cc:permits
           rdf:resource="http://creativecommons.org/ns#DerivativeWorks" />
        <cc:requires
           rdf:resource="http://creativecommons.org/ns#ShareAlike" />
      </cc:License>
    </rdf:RDF>
  </metadata>
  <g
     inkscape:label="Ebene 1"
     inkscape:groupmode="layer"
     id="layer1">
    <rect
       style="opacity:1;fill:none;fill-opacity:1;stroke:none;stroke-width:23;stroke-linecap:butt;stroke-linejoin:round;stroke-miterlimit:4;stroke-dasharray:none;stroke-opacity:1"
       id="rect4160"
       width="400"
       height="400"
       x="190"
       y="322.36221" />
    <g
       id="g4156"
       transform="matrix(0.87500002,0,0,0.87500002,48.4569,62.274022)">
      <g
         id="g4158"
         transform="matrix(1.1733694,0,0,1.1733694,-66.528344,-156.19984)">
        <path
           inkscape:connector-curvature="0"
           style="fill:#fcaf3e;fill-opacity:1;stroke:#c17d11;stroke-width:8.66921139;stroke-miterlimit:4;stroke-dasharray:none;stroke-dashoffset:0;stroke-opacity:1"
           sodipodi:nodetypes="ccczcccczccc"
           id="rect2168-2"
           d="m 222.95861,495.99377 331.97869,0 0.17945,70.86007 c 0,0 -12.20183,-0.59499 -12.20183,14.78171 0,15.37775 12.25793,14.78178 12.25793,14.78178 l -0.23555,70.86007 -331.97869,0 0,-70.93685 c 0,0 11.85724,0.36149 11.85724,-14.72752 0,-15.09004 -11.85724,-14.57263 -11.85724,-14.57263 l 0,-36.58809 0,-34.45854 z" />
        <path
           inkscape:connector-curvature="0"
           style="font-style:normal;font-variant:normal;font-weight:bold;font-stretch:normal;font-size:32px;line-height:125%;font-family:Courier;text-align:start;writing-mode:lr-tb;text-anchor:start"
           id="flowRoot2160-5"
           d="m 264.74414,581.58177 c 0,18.30187 11.6086,33.05103 29.07564,33.05103 17.57555,0 29.07564,-14.85682 29.07564,-33.15869 0,-18.19423 -11.39159,-33.15874 -29.07564,-33.15874 -17.68403,0 -29.07564,15.07218 -29.07564,33.2664 m 9.98119,-0.1077 c 0,-12.48835 7.05193,-23.90013 19.09445,-23.90013 12.368,0 19.09445,11.84243 19.09445,23.90013 0,12.70364 -7.05194,23.9001 -19.09445,23.9001 -11.93402,0 -19.09445,-11.30413 -19.09445,-23.9001 m 57.024,-31.32855 -2.06134,28.42177 9.33024,1.29188 1.4104,-20.88569 13.77838,0 0,45.10878 -12.58495,0 0,8.82798 34.82565,0 0,-8.82798 -12.80194,0 0,-45.10878 13.77838,0 1.41035,20.88569 9.33026,-1.29188 -2.06135,-28.42177 -54.35408,0 m 63.42499,0 0,8.82796 8.4623,0 0,45.10878 -8.4623,0 0,8.82798 27.33979,0 0,-8.82798 -9.43875,0 0,-17.97891 5.53305,0 c 3.47171,0 4.77361,1.29194 9.33024,8.07436 0.21708,0.32296 6.29248,9.58164 10.52365,18.73253 l 16.70764,0 0,-8.82798 -10.19819,0 c -7.3774,-12.38068 -9.54721,-15.50275 -12.15101,-19.0555 13.88687,-4.09101 13.99537,-15.07215 13.99537,-17.2253 0,-5.70586 -2.92927,-11.51943 -7.16044,-14.4262 -4.3396,-3.01441 -8.78776,-3.22974 -15.5142,-3.22974 l -28.96715,0 m 28.96715,8.82796 c 7.81135,0 12.69344,1.39959 12.69344,8.50501 0,10.44282 -12.04252,9.7969 -15.7312,9.7969 l -8.02835,0 0,-18.30191 11.06611,0 m 79.48165,-9.90456 -0.86792,6.02887 c -1.62737,-1.72253 -6.07552,-6.78246 -14.75481,-6.78246 -10.74062,0 -22.34918,8.39737 -22.34918,19.91675 0,15.93343 17.57558,17.65594 25.16994,18.40955 6.61796,0.64595 12.80197,1.93791 12.80197,8.61268 0,7.42839 -8.02835,10.11986 -14.42933,10.11986 -10.52364,0 -13.99534,-6.78248 -14.75481,-14.85682 l -8.6793,0 c 0.32549,3.44505 0.86794,10.65817 0.86794,17.22528 0,3.55274 -0.10854,5.05995 -0.32548,7.21311 l 8.78781,0 0.86792,-6.4595 c 2.60378,2.79913 5.85853,6.13651 14.64629,6.13651 12.6935,0 22.78318,-8.50496 22.78318,-19.59376 0,-6.99777 -3.7972,-11.51943 -7.7029,-13.99558 -4.33961,-2.79911 -8.67927,-3.1221 -15.9482,-3.98335 -4.66511,-0.53829 -14.32085,-1.5072 -14.32085,-9.04328 0,-4.52164 4.0142,-10.44284 13.99537,-10.44284 12.69349,0 13.99537,10.76585 14.75484,16.57935 l 8.57077,-1.18424 c 0,-0.32299 -0.10854,-2.26082 -0.21709,-2.58378 -0.21684,-2.58381 -0.65092,-7.53611 -0.65092,-12.05773 0,-3.76804 0.21709,-6.89011 0.43398,-9.25862 l -8.67932,0" />
      </g>
    </g>
  </g>
</svg>
