<?xml version="1.0" encoding="UTF-8" standalone="no"?>
<!-- Created with Inkscape (http://www.inkscape.org/) -->

<svg
   xmlns:dc="http://purl.org/dc/elements/1.1/"
   xmlns:cc="http://creativecommons.org/ns#"
   xmlns:rdf="http://www.w3.org/1999/02/22-rdf-syntax-ns#"
   xmlns:svg="http://www.w3.org/2000/svg"
   xmlns="http://www.w3.org/2000/svg"
   xmlns:xlink="http://www.w3.org/1999/xlink"
   xmlns:sodipodi="http://sodipodi.sourceforge.net/DTD/sodipodi-0.dtd"
   xmlns:inkscape="http://www.inkscape.org/namespaces/inkscape"
   width="210mm"
   height="297mm"
   viewBox="0 0 744.09448819 1052.3622047"
   id="svg2"
   version="1.1"
   inkscape:version="0.91 r13725"
   inkscape:export-xdpi="4"
   inkscape:export-ydpi="4"
   sodipodi:docname="studon-small.svg">
  <title
     id="title4156">studon small</title>
  <defs
     id="defs4">
    <linearGradient
       inkscape:collect="always"
       id="linearGradient4182">
      <stop
         style="stop-color:#4e505d;stop-opacity:1;"
         offset="0"
         id="stop4184" />
      <stop
         style="stop-color:#7a859c;stop-opacity:1"
         offset="1"
         id="stop4186" />
    </linearGradient>
    <linearGradient
       inkscape:collect="always"
       xlink:href="#linearGradient4182"
       id="linearGradient4188"
       x1="272"
       y1="722.36218"
       x2="509"
       y2="345.36221"
       gradientUnits="userSpaceOnUse" />
  </defs>
  <sodipodi:namedview
     id="base"
     pagecolor="#ffffff"
     bordercolor="#666666"
     borderopacity="1.0"
     inkscape:pageopacity="0.0"
     inkscape:pageshadow="2"
     inkscape:zoom="1"
     inkscape:cx="401.973"
     inkscape:cy="627.1999"
     inkscape:document-units="px"
     inkscape:current-layer="layer1"
     showgrid="false"
     showguides="true"
     inkscape:guide-bbox="true"
     inkscape:window-width="1600"
     inkscape:window-height="837"
     inkscape:window-x="-4"
     inkscape:window-y="-4"
     inkscape:window-maximized="1">
    <sodipodi:guide
       position="560,730.00002"
       orientation="0,1"
       id="guide3338" />
    <sodipodi:guide
       position="560,330.00001"
       orientation="0,1"
       id="guide3340" />
    <sodipodi:guide
       position="190,475.00001"
       orientation="1,0"
       id="guide3344" />
    <sodipodi:guide
       position="590,451.00001"
       orientation="1,0"
       id="guide3346" />
    <inkscape:grid
       type="xygrid"
       id="grid3440" />
  </sodipodi:namedview>
  <metadata
     id="metadata7">
    <rdf:RDF>
      <cc:Work
         rdf:about="">
        <dc:format>image/svg+xml</dc:format>
        <dc:type
           rdf:resource="http://purl.org/dc/dcmitype/StillImage" />
        <dc:title>studon small</dc:title>
        <dc:date>June 2015</dc:date>
        <dc:creator>
          <cc:Agent>
            <dc:title>Franziska Sponsel, Johannes Hechler</dc:title>
          </cc:Agent>
        </dc:creator>
        <dc:rights>
          <cc:Agent>
            <dc:title>Franziska Sponsel, Johannes Hechler</dc:title>
          </cc:Agent>
        </dc:rights>
        <dc:publisher>
          <cc:Agent>
            <dc:title>RRZE</dc:title>
          </cc:Agent>
        </dc:publisher>
        <dc:contributor>
          <cc:Agent>
            <dc:title>Ute Weber, Hendrik Eggers, Joanna Barbach</dc:title>
          </cc:Agent>
        </dc:contributor>
        <dc:subject>
          <rdf:Bag>
            <rdf:li>Studon</rdf:li>
            <rdf:li>FAU</rdf:li>
            <rdf:li>Erlangen</rdf:li>
            <rdf:li>students</rdf:li>
            <rdf:li>portal</rdf:li>
          </rdf:Bag>
        </dc:subject>
        <cc:license
           rdf:resource="http://creativecommons.org/licenses/by-sa/3.0/" />
      </cc:Work>
      <cc:License
         rdf:about="http://creativecommons.org/licenses/by-sa/3.0/">
        <cc:permits
           rdf:resource="http://creativecommons.org/ns#Reproduction" />
        <cc:permits
           rdf:resource="http://creativecommons.org/ns#Distribution" />
        <cc:requires
           rdf:resource="http://creativecommons.org/ns#Notice" />
        <cc:requires
           rdf:resource="http://creativecommons.org/ns#Attribution" />
        <cc:permits
           rdf:resource="http://creativecommons.org/ns#DerivativeWorks" />
        <cc:requires
           rdf:resource="http://creativecommons.org/ns#ShareAlike" />
      </cc:License>
    </rdf:RDF>
  </metadata>
  <g
     inkscape:label="Ebene 1"
     inkscape:groupmode="layer"
     id="layer1">
    <g
       id="g4190">
      <rect
         y="322.36221"
         x="190"
         height="400"
         width="400"
         id="rect4160"
         style="opacity:1;fill:none;fill-opacity:1;stroke:none;stroke-width:23;stroke-linecap:butt;stroke-linejoin:round;stroke-miterlimit:4;stroke-dasharray:none;stroke-opacity:1" />
      <path
         id="path3015"
         d="M 242.22461 322.23047 C 232.52578 322.23059 224.7495 326.00201 219.51172 333.34961 C 214.27637 340.69396 211.77539 350.97723 211.77539 364.0918 C 211.77539 374.58126 213.56414 383.06368 217.3125 389.49609 L 217.31445 389.5 L 217.31641 389.50195 C 221.10185 395.93568 227.11731 400.62822 235.10547 403.50977 L 242.76953 406.36719 C 247.28063 408.04236 250.09733 409.94091 251.30273 411.6543 L 251.30859 411.66211 L 251.31445 411.66992 C 252.60746 413.46876 253.36719 416.22238 253.36719 420.05078 C 253.36719 424.27449 252.31908 427.24936 250.37695 429.29883 C 248.43938 431.34382 245.67141 432.41406 241.6582 432.41406 C 237.69112 432.41406 233.51553 431.39294 229.09766 429.28516 C 224.70631 427.11599 220.08779 423.88464 215.26562 419.57031 L 212.44531 417.04688 L 212.44531 449.96875 L 213.24023 450.46484 C 218.2589 453.5961 223.30236 455.97479 228.36523 457.58398 C 233.43303 459.19521 238.50715 460.00391 243.56641 460.00391 C 254.28715 460.00391 262.63483 456.27869 267.97461 448.89062 C 273.34505 441.44907 275.87098 430.4603 275.87109 415.97461 C 275.87098 404.91367 274.05997 396.22417 270.21094 389.92969 C 266.35706 383.6278 259.88323 379.00228 251.06641 376.02148 L 251.06445 376.02148 L 242.62305 373.16406 L 242.61719 373.16211 L 242.61328 373.16016 C 238.77616 371.83387 236.27906 370.27048 235.05469 368.76953 C 233.84266 367.18502 233.14453 364.87752 233.14453 361.66211 C 233.14454 357.31155 234.19147 354.42386 236.0332 352.63867 C 237.87773 350.85076 240.88891 349.81836 245.36914 349.81836 C 248.68672 349.81836 252.26808 350.5724 256.12695 352.12695 C 259.98137 353.67983 263.98087 356.00025 268.11133 359.10938 L 270.82031 361.14844 L 270.82031 329.24609 L 269.82031 328.79688 C 264.96512 326.62147 260.25043 324.99666 255.66992 323.92773 C 251.08278 322.79901 246.59727 322.2306 242.22461 322.23047 z M 307.64258 322.29102 L 307.64258 323.98242 L 307.64258 351.71875 L 328.76367 351.71875 L 328.76367 459.29688 L 348.54102 459.29688 L 348.54102 351.71875 L 369.61914 351.71875 L 369.61914 322.29102 L 307.64258 322.29102 z M 505.29102 322.29102 L 505.29102 323.98242 L 505.29102 459.29688 L 524.26953 459.29688 C 533.9774 459.29687 541.40747 457.87998 546.60352 454.75977 L 546.60938 454.75586 L 546.61719 454.75195 C 551.74015 451.61137 556.01071 446.40749 559.51367 439.29102 L 559.51367 439.28906 C 562.57557 433.09829 564.8315 425.99898 566.30273 417.99609 L 566.30273 417.99414 L 566.30273 417.99219 C 567.77333 409.93212 568.50188 400.82469 568.50195 390.66016 C 568.50188 380.61402 567.7734 371.59449 566.30273 363.59375 C 564.83198 355.5938 562.57803 348.49435 559.51758 342.30469 L 559.51562 342.29883 C 556.04534 335.19102 551.80442 330.0161 546.70898 326.93164 L 546.70508 326.92969 C 541.55307 323.73482 534.09018 322.29116 524.26953 322.29102 L 505.29102 322.29102 z M 406.99805 322.3125 L 406.99805 324.00391 L 406.99805 402.5 C 406.99805 421.16948 409.18007 435.16731 413.80273 444.63867 C 418.42516 454.10969 425.91304 459.18164 435.51953 459.18164 C 445.15201 459.18164 452.65613 454.11106 457.2793 444.63867 C 461.90189 435.16731 464.08391 421.16948 464.08398 402.5 L 464.08398 322.3125 L 444.63672 322.3125 L 444.63672 402.5 C 444.63672 413.22845 443.74772 420.87959 442.19336 425.16406 L 442.19141 425.16406 L 442.19141 425.16602 C 441.42733 427.28044 440.45784 428.73423 439.37695 429.64062 C 438.29606 430.54703 437.0995 430.97852 435.51953 430.97852 C 433.95588 430.97852 432.76612 430.54873 431.68359 429.64062 C 430.60264 428.73386 429.62686 427.27622 428.84961 425.16406 C 427.32059 420.87397 426.44522 413.22438 426.44531 402.5 L 426.44531 322.3125 L 406.99805 322.3125 z M 525.06641 351.71875 L 529.25195 351.71875 C 535.39957 351.71889 539.79451 354.64485 543.11719 361.17773 C 546.43954 367.7102 548.21281 377.56424 548.21289 390.66016 C 548.21281 403.81518 546.42585 413.72871 543.07422 420.32227 L 543.07227 420.32617 L 543.07031 420.32812 C 539.74441 426.92375 535.36396 429.86914 529.25195 429.86914 L 525.06641 429.86914 L 525.06641 351.71875 z M 336.9043 476.98438 C 269.37047 476.98438 214.2832 532.07359 214.2832 599.60742 C 214.2832 667.14124 269.37047 722.23047 336.9043 722.23047 C 404.43812 722.23047 459.52734 667.14123 459.52734 599.60742 C 459.52734 532.0736 404.43812 476.98437 336.9043 476.98438 z M 336.9043 508.84961 C 387.21711 508.84961 427.66211 549.29459 427.66211 599.60742 C 427.66211 649.92023 387.21711 690.36523 336.9043 690.36523 C 286.59148 690.36523 246.14648 649.92023 246.14648 599.60742 C 246.14648 549.2946 286.59148 508.84961 336.9043 508.84961 z M 504.5293 535.49023 L 504.5293 537.18164 L 504.5293 673.13867 L 523.5293 673.13867 L 523.5293 592.98047 L 543.75391 673.13867 L 565.16211 673.13867 L 565.16211 535.49023 L 546.16211 535.49023 L 546.16211 615.64844 L 525.9375 535.49023 L 504.5293 535.49023 z "
         style="font-style:normal;font-weight:bold;font-size:12px;line-height:125%;font-family:Sans;-inkscape-font-specification:'Sans Bold';letter-spacing:0px;word-spacing:0px;fill:url(#linearGradient4188);fill-opacity:1;stroke:none;stroke-width:3.38407397" />
    </g>
  </g>
</svg>
