<?xml version="1.0" encoding="UTF-8" standalone="no"?>
<!-- Created with Inkscape (http://www.inkscape.org/) -->

<svg
   xmlns:dc="http://purl.org/dc/elements/1.1/"
   xmlns:cc="http://creativecommons.org/ns#"
   xmlns:rdf="http://www.w3.org/1999/02/22-rdf-syntax-ns#"
   xmlns:svg="http://www.w3.org/2000/svg"
   xmlns="http://www.w3.org/2000/svg"
   xmlns:xlink="http://www.w3.org/1999/xlink"
   xmlns:sodipodi="http://sodipodi.sourceforge.net/DTD/sodipodi-0.dtd"
   xmlns:inkscape="http://www.inkscape.org/namespaces/inkscape"
   width="210mm"
   height="297mm"
   viewBox="0 0 744.09448819 1052.3622047"
   id="svg2"
   version="1.1"
   inkscape:version="0.91 r13725"
   inkscape:export-xdpi="4"
   inkscape:export-ydpi="4"
   sodipodi:docname="tomcat.svg">
  <title
     id="title4173">tomcat</title>
  <defs
     id="defs4">
    <linearGradient
       inkscape:collect="always"
       id="linearGradient4206">
      <stop
         style="stop-color:#4e505d;stop-opacity:1;"
         offset="0"
         id="stop4208" />
      <stop
         style="stop-color:#7a859c;stop-opacity:1"
         offset="1"
         id="stop4210" />
    </linearGradient>
    <linearGradient
       inkscape:collect="always"
       xlink:href="#linearGradient4206"
       id="linearGradient4212"
       x1="360.62445"
       y1="670.52454"
       x2="462.44785"
       y2="413.13766"
       gradientUnits="userSpaceOnUse" />
  </defs>
  <sodipodi:namedview
     id="base"
     pagecolor="#ffffff"
     bordercolor="#666666"
     borderopacity="1.0"
     inkscape:pageopacity="0.0"
     inkscape:pageshadow="2"
     inkscape:zoom="0.70710678"
     inkscape:cx="505.70185"
     inkscape:cy="659.59752"
     inkscape:document-units="px"
     inkscape:current-layer="layer1"
     showgrid="false"
     showguides="true"
     inkscape:guide-bbox="true"
     inkscape:window-width="1600"
     inkscape:window-height="837"
     inkscape:window-x="-4"
     inkscape:window-y="-4"
     inkscape:window-maximized="1">
    <sodipodi:guide
       position="560,730.00002"
       orientation="0,1"
       id="guide3338" />
    <sodipodi:guide
       position="560,330.00001"
       orientation="0,1"
       id="guide3340" />
    <sodipodi:guide
       position="190,475.00001"
       orientation="1,0"
       id="guide3344" />
    <sodipodi:guide
       position="590,451.00001"
       orientation="1,0"
       id="guide3346" />
    <inkscape:grid
       type="xygrid"
       id="grid3440" />
  </sodipodi:namedview>
  <metadata
     id="metadata7">
    <rdf:RDF>
      <cc:Work
         rdf:about="">
        <dc:format>image/svg+xml</dc:format>
        <dc:type
           rdf:resource="http://purl.org/dc/dcmitype/StillImage" />
        <dc:title>tomcat</dc:title>
        <dc:date>June 2015</dc:date>
        <dc:creator>
          <cc:Agent>
            <dc:title>Franziska Sponsel, Johannes Hechler</dc:title>
          </cc:Agent>
        </dc:creator>
        <dc:rights>
          <cc:Agent>
            <dc:title>Franziska Sponsel, Johannes Hechler</dc:title>
          </cc:Agent>
        </dc:rights>
        <dc:publisher>
          <cc:Agent>
            <dc:title>RRZE</dc:title>
          </cc:Agent>
        </dc:publisher>
        <dc:contributor>
          <cc:Agent>
            <dc:title>Ute Weber, Hendrik Eggers, Joanna Barbach</dc:title>
          </cc:Agent>
        </dc:contributor>
        <dc:subject>
          <rdf:Bag>
            <rdf:li>tomcat</rdf:li>
            <rdf:li>apache</rdf:li>
          </rdf:Bag>
        </dc:subject>
        <cc:license
           rdf:resource="http://creativecommons.org/licenses/by-sa/3.0/" />
      </cc:Work>
      <cc:License
         rdf:about="http://creativecommons.org/licenses/by-sa/3.0/">
        <cc:permits
           rdf:resource="http://creativecommons.org/ns#Reproduction" />
        <cc:permits
           rdf:resource="http://creativecommons.org/ns#Distribution" />
        <cc:requires
           rdf:resource="http://creativecommons.org/ns#Notice" />
        <cc:requires
           rdf:resource="http://creativecommons.org/ns#Attribution" />
        <cc:permits
           rdf:resource="http://creativecommons.org/ns#DerivativeWorks" />
        <cc:requires
           rdf:resource="http://creativecommons.org/ns#ShareAlike" />
      </cc:License>
    </rdf:RDF>
  </metadata>
  <g
     inkscape:label="Ebene 1"
     inkscape:groupmode="layer"
     id="layer1">
    <g
       id="g4214">
      <rect
         y="322.36221"
         x="190"
         height="400"
         width="400"
         id="rect4160"
         style="opacity:1;fill:none;fill-opacity:1;stroke:none;stroke-width:23;stroke-linecap:butt;stroke-linejoin:round;stroke-miterlimit:4;stroke-dasharray:none;stroke-opacity:1" />
      <path
         id="path3614"
         d="M 399.59961 384.65625 C 399.59961 384.65625 390.85112 416.8492 391.60742 434.06836 C 392.36374 451.28752 395.57745 472.2915 403.21875 489.01367 C 410.90899 505.84294 418.14522 519.15193 427.88477 532.30078 C 437.62431 545.44962 454.87944 559.36311 463.875 564.98828 C 472.87058 570.61347 474.92773 568.93555 474.92773 568.93555 C 474.92773 568.93555 498.36228 553.44313 507.44141 543.39258 C 516.52053 533.34204 524.57937 520.66039 531.125 507.81641 C 537.67062 494.97244 541.12762 481.38927 543.61328 467.08984 C 546.09893 452.7904 548.77696 437.73329 548.63867 424.17969 C 548.50039 410.62611 542.82422 385.77344 542.82422 385.77344 C 542.82422 385.77344 523.5611 394.83841 517.56055 400.77344 C 511.56 406.70848 506.50781 418.93164 506.50781 418.93164 C 506.50781 418.93164 480.38185 415.54852 468.61133 415.77344 C 456.84081 415.99834 435.12695 418.60547 435.12695 418.60547 C 435.12695 418.60547 429.40458 405.00342 423.4668 398.86719 C 417.52901 392.73095 399.59961 384.65625 399.59961 384.65625 z M 321.03125 437.24023 C 319.76783 437.20223 318.67925 437.39826 317.81836 437.87891 C 308.63547 443.00604 314.66016 448.93359 314.66016 448.93359 C 314.66016 448.93359 294.40982 439.99688 283.04297 442.23242 C 271.67613 444.46797 258.79282 452.23504 251.73242 461.18945 C 244.67201 470.14385 241.88544 480.78346 241.23828 492.35352 C 240.59113 503.92358 241.89468 516.32844 248.19922 530.01758 C 249.85301 533.60847 251.75783 537.20322 253.91406 540.83398 C 255.67593 538.99087 257.45742 537.18126 259.25195 535.4082 C 253.4579 525.52635 247.99622 514.45784 246.85352 506.10352 C 245.04034 492.84724 245.73853 479.4513 258.32812 463.18359 C 271.05327 446.74075 290.74419 442.25697 314.30273 454.65039 C 314.30274 454.65039 309.46055 462.5578 319.57227 465.27148 C 329.68399 467.98515 361.24023 460.77344 361.24023 460.77344 C 361.89679 459.95273 333.24436 437.60714 321.03125 437.24023 z M 382.79883 481.54492 C 371.14428 485.80341 354.93854 492.05857 343.37109 497.92188 C 323.48271 508.0029 297.35024 523.53339 279.9707 538.60742 C 262.59117 553.68146 244.29456 576.48358 231.57227 593.55469 C 218.84999 610.6258 202.55273 641.56836 202.55273 641.56836 C 202.55273 641.56836 236.35567 641.43796 241.61328 641.56836 C 242.9631 633.32494 238.50047 627.56413 244.26172 615.66016 C 250.02297 603.75618 268.31181 585.42683 284.99609 579.52539 C 301.54246 573.67272 317.75581 576.16805 335.23633 577.20508 C 352.71686 578.24211 364.94552 580.5076 383.3457 585.33203 C 401.74588 590.15646 421.82725 598.11619 443.30078 606.36719 C 464.77431 614.61819 490.97617 626.80808 505.33594 633.39453 C 519.69568 639.98099 524.8005 640.96572 527.91016 644.26367 C 531.01981 647.56163 533.34961 648.67383 533.34961 648.67383 L 575.98242 648.67383 C 575.98242 648.67383 572.33769 636.25482 568.08789 632.0957 C 563.8381 627.9366 557.16638 625.54129 552.29883 624.99023 C 547.43128 624.43918 540.45508 627.35742 540.45508 627.35742 L 493.64648 575.99805 C 488.16448 579.90835 484.00781 582.67187 484.00781 582.67188 L 485.33398 581.69531 C 485.33398 581.69531 483.14255 583.27548 481.85742 583.88281 C 480.57231 584.49014 479.19334 584.94278 477.82031 585.22852 C 475.07426 585.80008 472.41337 585.71881 469.96484 585.29492 C 465.06778 584.4471 460.74663 582.45115 455.14648 578.94922 C 443.82716 571.87093 426.62322 558.25823 414.6543 542.09961 C 404.07354 527.81508 396.19138 513.25336 388.24219 495.85742 C 386.11601 491.2045 384.32367 486.40415 382.79883 481.54492 z M 309.94922 592.34766 C 306.22362 592.32626 302.72218 592.49091 299.37109 592.94922 C 316.46246 607.84703 335.92969 623.22852 335.92969 623.22852 L 369.13672 623.37109 C 369.13672 623.37109 365.99126 608.72992 357.07031 607.20703 C 348.42045 605.73044 343.87109 609.19922 343.87109 609.19922 C 343.8711 609.19922 338.90549 602.08236 337.45898 599.11914 C 336.66597 597.49464 336.01901 595.63847 335.48047 593.72656 C 335.06404 593.70006 334.68586 593.66768 334.26172 593.64258 C 325.04302 593.09567 317.09171 592.38867 309.94922 592.34766 z "
         style="fill:url(#linearGradient4212);stroke:none;stroke-width:6.54499435;stroke-linecap:butt;stroke-linejoin:miter;stroke-miterlimit:4;stroke-dasharray:none;stroke-opacity:1;fill-opacity:1" />
    </g>
  </g>
</svg>
