<?xml version="1.0" encoding="UTF-8" standalone="no"?>
<!-- Created with Inkscape (http://www.inkscape.org/) -->

<svg
   xmlns:dc="http://purl.org/dc/elements/1.1/"
   xmlns:cc="http://creativecommons.org/ns#"
   xmlns:rdf="http://www.w3.org/1999/02/22-rdf-syntax-ns#"
   xmlns:svg="http://www.w3.org/2000/svg"
   xmlns="http://www.w3.org/2000/svg"
   xmlns:sodipodi="http://sodipodi.sourceforge.net/DTD/sodipodi-0.dtd"
   xmlns:inkscape="http://www.inkscape.org/namespaces/inkscape"
   width="210mm"
   height="297mm"
   viewBox="0 0 744.09448819 1052.3622047"
   id="svg2"
   version="1.1"
   inkscape:version="0.91 r13725"
   inkscape:export-xdpi="4"
   inkscape:export-ydpi="4"
   sodipodi:docname="tomcat.svg">
  <title
     id="title4173">tomcat</title>
  <defs
     id="defs4" />
  <sodipodi:namedview
     id="base"
     pagecolor="#ffffff"
     bordercolor="#666666"
     borderopacity="1.0"
     inkscape:pageopacity="0.0"
     inkscape:pageshadow="2"
     inkscape:zoom="1"
     inkscape:cx="225.6315"
     inkscape:cy="570.47133"
     inkscape:document-units="px"
     inkscape:current-layer="layer1"
     showgrid="false"
     showguides="true"
     inkscape:guide-bbox="true"
     inkscape:window-width="1280"
     inkscape:window-height="962"
     inkscape:window-x="-8"
     inkscape:window-y="-8"
     inkscape:window-maximized="1">
    <sodipodi:guide
       position="560,730.00002"
       orientation="0,1"
       id="guide3338" />
    <sodipodi:guide
       position="560,330.00001"
       orientation="0,1"
       id="guide3340" />
    <sodipodi:guide
       position="190,475.00001"
       orientation="1,0"
       id="guide3344" />
    <sodipodi:guide
       position="590,451.00001"
       orientation="1,0"
       id="guide3346" />
    <inkscape:grid
       type="xygrid"
       id="grid3440" />
  </sodipodi:namedview>
  <metadata
     id="metadata7">
    <rdf:RDF>
      <cc:Work
         rdf:about="">
        <dc:format>image/svg+xml</dc:format>
        <dc:type
           rdf:resource="http://purl.org/dc/dcmitype/StillImage" />
        <dc:title>tomcat</dc:title>
        <dc:date>June 2015</dc:date>
        <dc:creator>
          <cc:Agent>
            <dc:title>Franziska Sponsel, Johannes Hechler</dc:title>
          </cc:Agent>
        </dc:creator>
        <dc:rights>
          <cc:Agent>
            <dc:title>Franziska Sponsel, Johannes Hechler</dc:title>
          </cc:Agent>
        </dc:rights>
        <dc:publisher>
          <cc:Agent>
            <dc:title>RRZE</dc:title>
          </cc:Agent>
        </dc:publisher>
        <dc:contributor>
          <cc:Agent>
            <dc:title>Ute Weber, Hendrik Eggers, Joanna Barbach</dc:title>
          </cc:Agent>
        </dc:contributor>
        <dc:subject>
          <rdf:Bag>
            <rdf:li>tomcat</rdf:li>
            <rdf:li>apache</rdf:li>
          </rdf:Bag>
        </dc:subject>
        <cc:license
           rdf:resource="http://creativecommons.org/licenses/by-sa/3.0/" />
      </cc:Work>
      <cc:License
         rdf:about="http://creativecommons.org/licenses/by-sa/3.0/">
        <cc:permits
           rdf:resource="http://creativecommons.org/ns#Reproduction" />
        <cc:permits
           rdf:resource="http://creativecommons.org/ns#Distribution" />
        <cc:requires
           rdf:resource="http://creativecommons.org/ns#Notice" />
        <cc:requires
           rdf:resource="http://creativecommons.org/ns#Attribution" />
        <cc:permits
           rdf:resource="http://creativecommons.org/ns#DerivativeWorks" />
        <cc:requires
           rdf:resource="http://creativecommons.org/ns#ShareAlike" />
      </cc:License>
    </rdf:RDF>
  </metadata>
  <g
     inkscape:label="Ebene 1"
     inkscape:groupmode="layer"
     id="layer1">
    <rect
       style="opacity:1;fill:none;fill-opacity:1;stroke:none;stroke-width:23;stroke-linecap:butt;stroke-linejoin:round;stroke-miterlimit:4;stroke-dasharray:none;stroke-opacity:1"
       id="rect4160"
       width="400"
       height="400"
       x="190"
       y="322.36221" />
    <g
       id="g4302"
       transform="matrix(0.5034611,0,0,0.5034611,224.55816,222.64831)">
      <path
         inkscape:connector-curvature="0"
         sodipodi:nodetypes="cczzzzzzzcczzcccczzzc"
         id="path3614"
         d="m -10,809.50504 c 0,0 61.164855,-0.23597 70.67839,0 2.44247,-14.91632 -5.634081,-25.34287 4.79079,-46.88288 10.42487,-21.54002 43.51896,-54.70397 73.70885,-65.38252 29.94034,-10.59029 59.27795,-6.07556 90.90863,-4.19907 31.63068,1.87649 53.76143,5.97443 87.0562,14.70414 33.29477,8.72971 69.62883,23.13632 108.48477,38.06635 38.85594,14.93003 86.26683,36.98512 112.25054,48.90319 25.98371,11.91807 35.22484,13.70066 40.8517,19.66824 5.62686,5.96758 9.84156,7.97969 9.84156,7.97969 l 77.14286,0 c 0,0 -6.5958,-22.47416 -14.28572,-30 -7.68992,-7.52584 -19.7637,-11.86002 -28.57143,-12.85714 -8.80773,-0.99712 -21.42857,4.28571 -21.42857,4.28571 L 498.57143,670.93361 427.14286,522.36218 342.35206,510.67364 c 0,0 -61.55874,20.66177 -97.5464,38.90319 -35.98765,18.24142 -83.27107,46.34602 -114.719,73.62219 C 98.63873,650.4752 65.53124,691.73231 42.510514,722.62216 19.48979,753.512 -10,809.50504 -10,809.50504 Z"
         style="fill:#c4a000;stroke:#252525;stroke-width:13;stroke-linecap:butt;stroke-linejoin:miter;stroke-miterlimit:4;stroke-dasharray:none;stroke-opacity:1" />
      <path
         inkscape:connector-curvature="0"
         sodipodi:nodetypes="cccsczcczzzzzczczczzzccc"
         id="path3616"
         d="m 225.62763,631.19359 c 3.84543,-2.70455 6.84313,-6.5461 9.34928,0.12428 l -8.82933,64.07477 c 0,0 1.1349,23.31003 7.96482,37.30131 2.61744,5.36189 11.60189,18.23966 11.60189,18.23966 0,0 8.23042,-6.2792 23.88216,-3.60733 16.14229,2.75562 21.83212,29.24983 21.83212,29.24983 l -60.08666,-0.25998 c 0,0 -78.42354,-61.92616 -103.95395,-90.50507 C 101.85755,657.23215 84.00511,632.42828 72.59717,607.65805 61.18923,582.88782 58.828987,560.44084 60,539.50504 c 1.17101,-20.9358 6.21417,-40.18983 18.98985,-56.39267 12.77568,-16.20284 36.08457,-30.25541 56.65265,-34.30059 20.56807,-4.04518 57.21464,12.12183 57.21464,12.12183 0,0 -10.90197,-10.72258 5.71429,-20 16.61626,-9.27742 79.88238,39.78988 78.57143,41.42857 0,0 -57.10043,13.04848 -75.3974,8.13815 -18.29696,-4.91034 -9.53697,-19.22008 -9.53697,-19.22008 -42.62873,-22.42568 -78.25912,-14.31357 -101.285,15.43943 -22.78063,29.43612 -24.04596,53.67584 -20.76504,77.66281 3.27094,23.91402 26.09405,60.16084 39.92821,80.66352 C 123.92082,665.54869 150,686.6479 150,686.6479 c 20,-7.28 40,-8.94418 60,-1.42857 l 15.62763,-54.02574 z"
         style="fill:#252525;fill-opacity:1;stroke:#252525;stroke-width:1px;stroke-linecap:butt;stroke-linejoin:miter;stroke-opacity:1" />
      <path
         inkscape:connector-curvature="0"
         sodipodi:nodetypes="czzzzczzzzczczczc"
         id="path3618"
         d="m 346.55112,344.62759 c 0,0 -15.82755,58.25053 -14.45902,89.40827 1.36853,31.15774 7.18336,69.16469 21.01015,99.42313 13.91534,30.45224 27.00883,54.53375 44.63235,78.32633 17.62351,23.79258 48.84523,48.96964 65.12254,59.14829 16.27731,10.17865 20,7.14286 20,7.14286 0,0 42.4029,-28.0331 58.83141,-46.21937 16.4285,-18.18626 31.01295,-41.13144 42.85714,-64.37237 11.84418,-23.24092 18.09942,-47.81943 22.59717,-73.69398 4.49775,-25.87455 9.3416,-53.12297 9.09137,-77.64793 -0.25023,-24.52496 -10.51994,-69.49492 -10.51994,-69.49492 0,0 -34.85641,16.40352 -45.71429,27.14285 -10.85788,10.73933 -20,32.85715 -20,32.85715 0,0 -47.2729,-6.12126 -68.57143,-5.71429 -21.29853,0.40697 -60.59174,5.12255 -60.59174,5.12255 0,0 -10.35251,-24.61089 -21.09681,-35.71429 -10.7443,-11.1034 -43.1889,-25.71428 -43.1889,-25.71428 z"
         style="fill:#fce94f;stroke:#252525;stroke-width:13;stroke-linecap:butt;stroke-linejoin:miter;stroke-miterlimit:4;stroke-dasharray:none;stroke-opacity:1" />
      <path
         inkscape:connector-curvature="0"
         sodipodi:nodetypes="cccc"
         id="path3620"
         d="m 165,603.07647 c 8.36163,10.5084 19.57043,16.27151 30.71429,22.14285 1.11383,-13.8666 -2.32578,-27.08271 -7.85715,-40 -12.0293,3.50224 -19.39776,9.59384 -22.85714,17.85715 z"
         style="fill:#252525;fill-opacity:1;stroke:#252525;stroke-width:6;stroke-linecap:round;stroke-linejoin:round;stroke-miterlimit:4;stroke-dasharray:none;stroke-opacity:1" />
      <path
         inkscape:connector-curvature="0"
         sodipodi:nodetypes="cccc"
         id="path3622"
         d="m 207.14286,576.6479 c 14.20231,10.17893 30.56646,16.69151 45.71428,22.14285 -3.81786,-13.45099 -9.82631,-26.77498 -19.28571,-39.28571 -12.7181,2.92244 -20.3306,9.49175 -26.42857,17.14286 z"
         style="fill:#252525;fill-opacity:1;stroke:#252525;stroke-width:6;stroke-linecap:round;stroke-linejoin:round;stroke-miterlimit:4;stroke-dasharray:none;stroke-opacity:1" />
      <path
         inkscape:connector-curvature="0"
         sodipodi:nodetypes="cccc"
         id="path3624"
         d="m 248.57143,552.36218 c 18.57752,19.95123 38.39717,29.96549 57.85714,42.85714 -4.23273,-20.51777 -7.89245,-41.1174 -18.57143,-60.71428 -14.39383,3.35519 -28.62531,7.03509 -39.28571,17.85714 z"
         style="fill:#252525;fill-opacity:1;stroke:#252525;stroke-width:6;stroke-linecap:round;stroke-linejoin:round;stroke-miterlimit:4;stroke-dasharray:none;stroke-opacity:1" />
      <path
         inkscape:connector-curvature="0"
         sodipodi:nodetypes="czzczzc"
         id="path3626"
         d="m 346.42857,349.50504 c 0,0 6.11814,32.80189 13.57143,44.64285 7.4533,11.84096 27.5,26.07144 27.5,26.07144 5.76458,5.68339 19.55058,1.81248 18.57143,-10.00001 0,0 -6.72972,-23.46443 -11.42857,-30.35714 -4.53405,-6.65095 -15.27178,-17.17687 -23.57143,-21.42857 -8.29965,-4.2517 -24.64286,-8.92857 -24.64286,-8.92857 z"
         style="fill:#252525;fill-opacity:1;stroke:#252525;stroke-width:11;stroke-linecap:round;stroke-linejoin:round;stroke-miterlimit:4;stroke-dasharray:none;stroke-opacity:1" />
      <path
         inkscape:connector-curvature="0"
         sodipodi:nodetypes="cccc"
         id="path3628"
         d="m 459.28572,406.64789 c 6.41963,24.78193 13.06728,37.18457 21.42857,50.00001 4.99204,-14.23325 9.74228,-29.20447 12.85714,-50 l -34.28571,-10e-6 z"
         style="fill:#252525;fill-opacity:1;stroke:#252525;stroke-width:6;stroke-linecap:round;stroke-linejoin:round;stroke-miterlimit:4;stroke-dasharray:none;stroke-opacity:1" />
      <path
         inkscape:connector-curvature="0"
         sodipodi:nodetypes="ccczzc"
         id="path3630"
         d="m 596.42857,352.00503 c -26.94764,15.84788 -45.82832,33.34134 -55.71428,53.92858 0,0 1.49294,21.56348 28.57142,15 11.3642,-2.99205 12.41595,-21.00917 17.14286,-31.07143 4.72691,-10.06227 8.65001,-20.75856 8.92857,-27.14285 0.27857,-6.38429 1.07143,-10.7143 1.07143,-10.7143 z"
         style="fill:#252525;fill-opacity:1;stroke:#252525;stroke-width:11;stroke-linecap:round;stroke-linejoin:round;stroke-miterlimit:4;stroke-dasharray:none;stroke-opacity:1" />
      <path
         inkscape:connector-curvature="0"
         sodipodi:nodetypes="czzzzzzzc"
         id="path3632"
         d="m 401.42857,473.79075 c 0,0 9.79995,-13.34253 17.14286,-17.14285 7.34291,-3.80032 18.31078,-7.74061 25,-4.28572 6.68922,3.45489 5.65316,5.97574 7.14286,14.28571 1.48969,8.30997 0.76958,20.95377 -0.35715,29.64286 -1.12673,8.68909 -1.59995,16.15549 -4.28571,22.85714 -2.68576,6.70165 -10.57294,16.02632 -12.5,21.07143 -1.92706,5.04511 0.59265,8.76919 6.78572,13.21429 C 446.72376,558.00327 505,595.21932 505,595.21932"
         style="fill:none;stroke:#252525;stroke-width:11;stroke-linecap:round;stroke-linejoin:round;stroke-miterlimit:4;stroke-dasharray:none;stroke-opacity:1" />
      <path
         inkscape:connector-curvature="0"
         sodipodi:nodetypes="czzzzzzc"
         id="path3634"
         d="m 565,471.6479 c 0,0 -14.16524,1.35206 -22.5,4.64285 -8.33476,3.29079 -17.33016,9.3515 -21.78571,17.5 -4.45555,8.1485 -6.1728,18.20258 -6.42857,26.07144 -0.25577,7.86886 3.25652,14.84053 4.64285,16.42856 1.05474,1.2082 6.24377,8.14315 2.14286,11.07143 -3.92519,2.80281 -1.88497,-0.12034 -12.85714,9.28572 -10.97217,9.40606 -56.07143,38.57142 -56.07143,38.57142"
         style="fill:none;stroke:#252525;stroke-width:11;stroke-linecap:round;stroke-linejoin:round;stroke-miterlimit:4;stroke-dasharray:none;stroke-opacity:1" />
      <path
         inkscape:connector-curvature="0"
         id="path3636"
         d="m 340.71429,564.50504 62.85714,0"
         style="fill:none;stroke:#252525;stroke-width:11;stroke-linecap:round;stroke-linejoin:miter;stroke-miterlimit:4;stroke-dasharray:none;stroke-opacity:1" />
      <path
         inkscape:connector-curvature="0"
         id="path3638"
         d="m 340.71429,586.6479 60.71428,0"
         style="fill:none;stroke:#252525;stroke-width:11;stroke-linecap:round;stroke-linejoin:miter;stroke-miterlimit:4;stroke-dasharray:none;stroke-opacity:1" />
      <path
         inkscape:connector-curvature="0"
         id="path3640"
         d="m 548.57143,565.93361 64.28571,0"
         style="fill:none;stroke:#252525;stroke-width:11;stroke-linecap:round;stroke-linejoin:miter;stroke-miterlimit:4;stroke-dasharray:none;stroke-opacity:1" />
      <path
         inkscape:connector-curvature="0"
         id="path3642"
         d="m 549.28571,585.93361 65.71429,0"
         style="fill:none;stroke:#252525;stroke-width:11;stroke-linecap:round;stroke-linejoin:miter;stroke-miterlimit:4;stroke-dasharray:none;stroke-opacity:1" />
      <path
         inkscape:connector-curvature="0"
         sodipodi:nodetypes="cccc"
         id="path3644"
         d="m 605,495.21932 c -7.57687,-1.37141 -14.04265,5.03479 -20.71429,10 6.66667,2.11484 13.33333,7.82622 20,5.71429 2.6657,-5.2381 3.73687,-10.47619 0.71429,-15.71429 z"
         style="fill:#252525;fill-opacity:1;stroke:#252525;stroke-width:6;stroke-linecap:round;stroke-linejoin:round;stroke-miterlimit:4;stroke-dasharray:none;stroke-opacity:1" />
      <path
         inkscape:connector-curvature="0"
         sodipodi:nodetypes="cccc"
         id="path3646"
         d="m 598.57143,528.07647 c -7.85714,-0.71429 -15.71429,0.95238 -23.57143,5 7.38095,2.90977 14.76191,7.27002 22.14286,5.71428 3.88761,-3.00286 3.20389,-6.7676 1.42857,-10.71428 z"
         style="fill:#252525;fill-opacity:1;stroke:#252525;stroke-width:6;stroke-linecap:round;stroke-linejoin:round;stroke-miterlimit:4;stroke-dasharray:none;stroke-opacity:1" />
      <path
         inkscape:connector-curvature="0"
         sodipodi:nodetypes="cccc"
         id="path3648"
         d="m 343.57143,481.6479 c 6.3e-4,5.47619 -2.78816,10.95238 4.28571,16.42857 12.57941,3.74346 21.51085,1.40698 31.42857,0.71428 -11.90476,-6.92645 -23.80952,-15.57741 -35.71428,-17.14285 z"
         style="fill:#252525;fill-opacity:1;stroke:#252525;stroke-width:6;stroke-linecap:round;stroke-linejoin:round;stroke-miterlimit:4;stroke-dasharray:none;stroke-opacity:1" />
      <path
         inkscape:connector-curvature="0"
         sodipodi:nodetypes="cccc"
         id="path3650"
         d="m 352.85714,512.36218 c 1.03415,7.17172 -0.93173,15.46845 7.14286,20 l 18.57143,-5 c -8.16615,-7.43169 -16.60001,-13.25708 -25.71429,-15 z"
         style="fill:#252525;fill-opacity:1;stroke:#252525;stroke-width:6;stroke-linecap:round;stroke-linejoin:round;stroke-miterlimit:4;stroke-dasharray:none;stroke-opacity:1" />
      <path
         inkscape:connector-curvature="0"
         sodipodi:nodetypes="cccc"
         id="path3652"
         d="m 506.42857,688.07647 c 5.42846,1.04785 10.26292,3.28368 12.85714,10 -8.95082,9.49265 -22.07024,13.14928 -35.71428,16.07143 6.23209,-10.30859 11.19795,-22.09445 22.85714,-26.07143 z"
         style="fill:#252525;fill-opacity:1;stroke:#252525;stroke-width:6;stroke-linecap:round;stroke-linejoin:round;stroke-miterlimit:4;stroke-dasharray:none;stroke-opacity:1" />
      <path
         inkscape:connector-curvature="0"
         sodipodi:nodetypes="cccc"
         id="path3654"
         d="m 535,716.6479 c 7.74213,1.04439 9.58313,6.80968 12.85714,11.42857 -10.3939,5.57319 -24.90909,8.67359 -40,11.42857 8.3233,-8.58481 16.09493,-17.90518 27.14286,-22.85714 z"
         style="fill:#252525;fill-opacity:1;stroke:#252525;stroke-width:6;stroke-linecap:round;stroke-linejoin:round;stroke-miterlimit:4;stroke-dasharray:none;stroke-opacity:1" />
      <path
         inkscape:connector-curvature="0"
         id="path3656"
         d="m 409.64286,506.6479 146.78571,0"
         style="fill:none;stroke:#252525;stroke-width:11;stroke-linecap:round;stroke-linejoin:miter;stroke-miterlimit:4;stroke-dasharray:none;stroke-opacity:1" />
      <path
         inkscape:connector-curvature="0"
         id="path3658"
         d="m 428.27702,547.71932 98.08883,0"
         style="fill:none;stroke:#252525;stroke-width:11.41593266;stroke-linecap:round;stroke-linejoin:miter;stroke-miterlimit:4;stroke-dasharray:none;stroke-opacity:1" />
    </g>
  </g>
</svg>
