<?xml version="1.0" encoding="UTF-8" standalone="no"?>
<!-- Created with Inkscape (http://www.inkscape.org/) -->
<svg xmlns:dc="http://purl.org/dc/elements/1.1/" xmlns:cc="http://creativecommons.org/ns#" xmlns:rdf="http://www.w3.org/1999/02/22-rdf-syntax-ns#" xmlns:svg="http://www.w3.org/2000/svg" xmlns="http://www.w3.org/2000/svg" xmlns:xlink="http://www.w3.org/1999/xlink" xmlns:sodipodi="http://sodipodi.sourceforge.net/DTD/sodipodi-0.dtd" xmlns:inkscape="http://www.inkscape.org/namespaces/inkscape" width="210mm" height="297mm" id="svg2" version="1.1" inkscape:version="0.48.0 r9654">
  <title id="title3960">bag</title>
  <defs id="defs4">
    <linearGradient inkscape:collect="always" id="linearGradient3932">
      <stop style="stop-color:#000000;stop-opacity:1;" offset="0" id="stop3934"/>
      <stop style="stop-color:#000000;stop-opacity:0;" offset="1" id="stop3936"/>
    </linearGradient>
    <linearGradient inkscape:collect="always" id="linearGradient3883">
      <stop style="stop-color:#000000;stop-opacity:1;" offset="0" id="stop3885"/>
      <stop style="stop-color:#000000;stop-opacity:0;" offset="1" id="stop3887"/>
    </linearGradient>
    <linearGradient inkscape:collect="always" id="linearGradient3873">
      <stop style="stop-color:#ffffff;stop-opacity:1;" offset="0" id="stop3875"/>
      <stop style="stop-color:#ffffff;stop-opacity:0.02" offset="1" id="stop3877"/>
    </linearGradient>
    <linearGradient id="linearGradient3851">
      <stop style="stop-color:#d3d7cf;stop-opacity:1;" offset="0" id="stop3853"/>
      <stop style="stop-color:#555753;stop-opacity:1;" offset="1" id="stop3855"/>
    </linearGradient>
    <linearGradient id="linearGradient3835">
      <stop style="stop-color:#ffffff;stop-opacity:0;" offset="0" id="stop3837"/>
      <stop id="stop3859" offset="0.5" style="stop-color:#ffffff;stop-opacity:1;"/>
      <stop style="stop-color:#ffffff;stop-opacity:0;" offset="1" id="stop3839"/>
    </linearGradient>
    <linearGradient id="linearGradient3815">
      <stop style="stop-color:#ffffff;stop-opacity:1;" offset="0" id="stop3817"/>
      <stop id="stop3823" offset="0.5" style="stop-color:#7f7f7f;stop-opacity:0;"/>
      <stop style="stop-color:#000000;stop-opacity:0.59740257;" offset="1" id="stop3819"/>
    </linearGradient>
    <linearGradient inkscape:collect="always" id="linearGradient3772">
      <stop style="stop-color:#ffffff;stop-opacity:1;" offset="0" id="stop3774"/>
      <stop style="stop-color:#ffffff;stop-opacity:0;" offset="1" id="stop3776"/>
    </linearGradient>
    <linearGradient inkscape:collect="always" xlink:href="#linearGradient3772" id="linearGradient3778" x1="254.77367" y1="573.70831" x2="279.59703" y2="573.70831" gradientUnits="userSpaceOnUse" gradientTransform="matrix(0.79879748,0,0,0.93749323,57.061961,35.802009)"/>
    <linearGradient inkscape:collect="always" xlink:href="#linearGradient3772" id="linearGradient3803" gradientUnits="userSpaceOnUse" gradientTransform="matrix(0.79879748,0,0,0.93749323,153.02645,35.802009)" x1="254.77367" y1="573.70831" x2="279.59703" y2="573.70831"/>
    <linearGradient inkscape:collect="always" xlink:href="#linearGradient3815" id="linearGradient3821" x1="324.08624" y1="494.4325" x2="332.39655" y2="625.14679" gradientUnits="userSpaceOnUse"/>
    <linearGradient inkscape:collect="always" xlink:href="#linearGradient3815" id="linearGradient3829" gradientUnits="userSpaceOnUse" x1="324.08624" y1="494.4325" x2="332.39655" y2="625.14679" gradientTransform="matrix(0.94527889,0,0,0.84137203,17.632181,169.96194)"/>
    <linearGradient inkscape:collect="always" xlink:href="#linearGradient3835" id="linearGradient3841" x1="267.7782" y1="607.21362" x2="271.80746" y2="653.01434" gradientUnits="userSpaceOnUse" gradientTransform="matrix(0.91425471,0,0,0.85173208,23.159821,93.844085)"/>
    <linearGradient inkscape:collect="always" xlink:href="#linearGradient3851" id="linearGradient3857" x1="269.96899" y1="620.52197" x2="298.49435" y2="652.34174" gradientUnits="userSpaceOnUse"/>
    <linearGradient inkscape:collect="always" xlink:href="#linearGradient3851" id="linearGradient3865" gradientUnits="userSpaceOnUse" x1="242.46899" y1="601.59338" x2="298.49435" y2="652.34174" gradientTransform="translate(95.714286,0)"/>
    <linearGradient inkscape:collect="always" xlink:href="#linearGradient3835" id="linearGradient3867" gradientUnits="userSpaceOnUse" gradientTransform="matrix(0.91425471,0,0,0.85173208,118.87411,93.844085)" x1="267.7782" y1="607.21362" x2="271.80746" y2="653.01434"/>
    <linearGradient inkscape:collect="always" xlink:href="#linearGradient3873" id="linearGradient3879" x1="313.82141" y1="447.20309" x2="320.64285" y2="477.91736" gradientUnits="userSpaceOnUse" gradientTransform="matrix(0.89464283,0,0,1.0040816,33.54497,2.090879)"/>
    <linearGradient inkscape:collect="always" xlink:href="#linearGradient3883" id="linearGradient3889" x1="335.78571" y1="505.79648" x2="335.82144" y2="462.22504" gradientUnits="userSpaceOnUse" gradientTransform="matrix(0.89464283,0,0,1.0040816,33.54497,2.090879)"/>
    <radialGradient inkscape:collect="always" xlink:href="#linearGradient3932" id="radialGradient3938" cx="375.71429" cy="790.93359" fx="375.71429" fy="790.93359" r="312.85715" gradientTransform="matrix(1,0,0,0.16894977,0,657.30554)" gradientUnits="userSpaceOnUse"/>
    <linearGradient inkscape:collect="always" xlink:href="#linearGradient3835" id="linearGradient9649" gradientUnits="userSpaceOnUse" gradientTransform="matrix(2.4661366,0,0,2.0388109,-173.18579,-614.01746)" x1="267.7782" y1="607.21362" x2="271.80746" y2="653.01434"/>
    <linearGradient inkscape:collect="always" xlink:href="#linearGradient3835" id="linearGradient9655" gradientUnits="userSpaceOnUse" gradientTransform="matrix(2.4661366,0,0,2.0388109,-431.36823,-614.01746)" x1="267.7782" y1="607.21362" x2="271.80746" y2="653.01434"/>
    <linearGradient inkscape:collect="always" xlink:href="#linearGradient3772" id="linearGradient9661" gradientUnits="userSpaceOnUse" gradientTransform="matrix(2.154699,0,0,2.2440994,-81.062298,-752.95413)" x1="254.77367" y1="573.70831" x2="279.59703" y2="573.70831"/>
    <linearGradient inkscape:collect="always" xlink:href="#linearGradient3772" id="linearGradient9665" gradientUnits="userSpaceOnUse" gradientTransform="matrix(2.154699,0,0,2.2440994,-339.91964,-752.95413)" x1="254.77367" y1="573.70831" x2="279.59703" y2="573.70831"/>
    <linearGradient inkscape:collect="always" xlink:href="#linearGradient3883" id="linearGradient9669" gradientUnits="userSpaceOnUse" gradientTransform="matrix(2.413235,0,0,2.4034935,-403.35504,-833.64924)" x1="335.78571" y1="505.79648" x2="335.82144" y2="462.22504"/>
    <linearGradient inkscape:collect="always" xlink:href="#linearGradient3873" id="linearGradient9672" gradientUnits="userSpaceOnUse" gradientTransform="matrix(2.413235,0,0,2.4034935,-403.35504,-833.64924)" x1="313.82141" y1="447.20309" x2="320.64285" y2="477.91736"/>
    <linearGradient inkscape:collect="always" xlink:href="#linearGradient3815" id="linearGradient9675" gradientUnits="userSpaceOnUse" x1="324.08624" y1="494.4325" x2="332.39655" y2="625.14679" gradientTransform="matrix(2.6974284,0,0,2.3937233,-493.84019,-838.65423)"/>
    <linearGradient inkscape:collect="always" xlink:href="#linearGradient3815" id="linearGradient9679" gradientUnits="userSpaceOnUse" gradientTransform="matrix(2.5498221,0,0,2.0140118,-446.27864,-431.81237)" x1="324.08624" y1="494.4325" x2="332.39655" y2="625.14679"/>
  </defs>
  <sodipodi:namedview id="base" pagecolor="#ffffff" bordercolor="#666666" borderopacity="1.0" inkscape:pageopacity="0.0" inkscape:pageshadow="2" inkscape:zoom="0.7" inkscape:cx="594.84902" inkscape:cy="557.44743" inkscape:document-units="px" inkscape:current-layer="layer1" showgrid="false" showguides="true" inkscape:guide-bbox="true" inkscape:snap-global="false" inkscape:window-width="1260" inkscape:window-height="690" inkscape:window-x="0" inkscape:window-y="0" inkscape:window-maximized="0">
    <sodipodi:guide orientation="0,1" position="-605.71429,885.71429" id="guide2987"/>
    <sodipodi:guide orientation="0,1" position="-174.28571,171.42857" id="guide2989"/>
    <sodipodi:guide orientation="1,0" position="725.71429,34.285714" id="guide2991"/>
    <sodipodi:guide orientation="1,0" position="11.428571,57.142857" id="guide2993"/>
    <sodipodi:guide orientation="1,0" position="368.57143,20" id="guide3928"/>
  </sodipodi:namedview>
  <metadata id="metadata7">
    <rdf:RDF>
      <cc:Work rdf:about="">
        <dc:format>image/svg+xml</dc:format>
        <dc:type rdf:resource="http://purl.org/dc/dcmitype/StillImage"/>
        <dc:title>bag</dc:title>
        <dc:date>Feb 2014</dc:date>
        <dc:creator>
          <cc:Agent>
            <dc:title>Franziska Sponsel</dc:title>
          </cc:Agent>
        </dc:creator>
        <dc:rights>
          <cc:Agent>
            <dc:title>Franziska Sponsel</dc:title>
          </cc:Agent>
        </dc:rights>
        <dc:publisher>
          <cc:Agent>
            <dc:title>RRZE</dc:title>
          </cc:Agent>
        </dc:publisher>
        <dc:subject>
          <rdf:Bag>
            <rdf:li>bag</rdf:li>
            <rdf:li>bagpack</rdf:li>
            <rdf:li>rucksack</rdf:li>
            <rdf:li>school</rdf:li>
            <rdf:li>early student</rdf:li>
            <rdf:li>student</rdf:li>
            <rdf:li>early</rdf:li>
          </rdf:Bag>
        </dc:subject>
        <cc:license rdf:resource="http://creativecommons.org/licenses/by-sa/3.0/"/>
      </cc:Work>
      <cc:License rdf:about="http://creativecommons.org/licenses/by-sa/3.0/">
        <cc:permits rdf:resource="http://creativecommons.org/ns#Reproduction"/>
        <cc:permits rdf:resource="http://creativecommons.org/ns#Distribution"/>
        <cc:requires rdf:resource="http://creativecommons.org/ns#Notice"/>
        <cc:requires rdf:resource="http://creativecommons.org/ns#Attribution"/>
        <cc:permits rdf:resource="http://creativecommons.org/ns#DerivativeWorks"/>
        <cc:requires rdf:resource="http://creativecommons.org/ns#ShareAlike"/>
      </cc:License>
    </rdf:RDF>
  </metadata>
  <g inkscape:label="Ebene 1" inkscape:groupmode="layer" id="layer1">
    <g id="g10470">
      <path transform="matrix(1.0547946,0,0,0.78378379,-25.729941,188.44124)" d="m 688.57144,790.93359 a 312.85715,52.857143 0 1 1 -625.714293,0 312.85715,52.857143 0 1 1 625.714293,0 z" sodipodi:ry="52.857143" sodipodi:rx="312.85715" sodipodi:cy="790.93359" sodipodi:cx="375.71429" id="path3930" style="opacity:0.76619705;fill:url(#radialGradient3938);fill-opacity:1;stroke:none" sodipodi:type="arc"/>
      <rect y="166.6479" x="11.428572" height="714.28571" width="714.28571" id="rect2985" style="opacity:0;fill:#ffffff;fill-opacity:1;stroke:none"/>
      <path sodipodi:nodetypes="ccccc" inkscape:connector-curvature="0" id="path3869" d="m 222.36231,333.43066 56.02154,0 c 29.03733,-61.5697 152.251,-59.02833 177.54514,2.57517 l 51.71218,0 C 483.39423,216.15593 259.83342,214.34534 222.36231,333.43066 z" style="fill:#c17d11;stroke:#2e3436;stroke-width:23;stroke-linecap:butt;stroke-linejoin:miter;stroke-miterlimit:4;stroke-opacity:1;stroke-dasharray:none;fill-opacity:1"/>
      <path inkscape:connector-curvature="0" id="rect3006" d="m 154.31771,415.37465 425.76676,0 c 37.80044,0 68.23183,24.36141 68.23183,54.62197 l 0,279.66446 c 0,30.26057 -30.43139,54.62197 -68.23183,54.62197 l -425.76676,0 c -37.80044,0 -68.231834,-24.3614 -68.231834,-54.62197 l 0,-279.66446 c 0,-30.26056 30.431394,-54.62197 68.231834,-54.62197 z" style="fill:#c17d11;fill-opacity:1;stroke:#2e3436;stroke-width:23;stroke-miterlimit:4;stroke-opacity:1;stroke-dasharray:none"/>
      <path inkscape:connector-curvature="0" style="opacity:0.4079755;fill:url(#linearGradient9679);fill-opacity:1;stroke:#e9b96e;stroke-width:6.45198393;stroke-miterlimit:4;stroke-opacity:1;stroke-dasharray:none" d="m 159.34458,556.35498 415.95794,0 c 35.95764,0 59.11024,9.7148 59.11024,28.09977 l 0,170.26573 c 0,18.38506 -20.75073,38.42687 -56.70839,38.42687 l -421.89682,0 c -35.95777,0 -56.217187,-21.52343 -56.217187,-35.89486 l 0,-170.76324 c 0,-18.38502 23.796467,-30.13427 59.754217,-30.13427 z" id="path3827" sodipodi:nodetypes="sssssssss"/>
      <path inkscape:connector-curvature="0" style="fill:#c17d11;fill-opacity:1;stroke:#2e3436;stroke-width:23;stroke-miterlimit:4;stroke-opacity:1;stroke-dasharray:none" d="m 143.34686,325.1418 447.70846,0 c 39.74849,0 71.74814,18.92882 71.74814,42.44133 l 0,217.29962 c 0,23.51254 -31.99965,42.44133 -71.74814,42.44133 l -447.70846,0 c -39.7485,0 -71.748144,-18.92879 -71.748144,-42.44133 l 0,-217.29962 c 0,-23.51251 31.999644,-42.44133 71.748144,-42.44133 z" id="path3777"/>
      <path sodipodi:nodetypes="sssssssss" id="path3805" d="m 146.84186,335.8172 440.03724,0 c 38.03925,0 62.53209,11.54637 62.53209,33.39757 l 0,214.03634 c 0,21.85125 -30.62367,34.00208 -68.66291,34.00208 l -434.5876,0 c -38.0393,0 -62.532107,-15.17336 -62.532107,-37.02461 l 0,-208.5958 c 0,-21.85119 25.173997,-35.81558 63.213287,-35.81558 z" style="opacity:0.4079755;fill:url(#linearGradient9675);fill-opacity:1;stroke:#e9b96e;stroke-width:7.23467875;stroke-miterlimit:4;stroke-opacity:1;stroke-dasharray:none" inkscape:connector-curvature="0"/>
      <path style="opacity:0.68711656;fill:url(#linearGradient9672);fill-opacity:1;stroke:#e9b96e;stroke-width:4.81671858;stroke-linecap:butt;stroke-linejoin:miter;stroke-miterlimit:4;stroke-opacity:1;stroke-dasharray:none" d="m 235.29035,325.70513 37.49134,-0.85839 c 30.33013,-59.4237 160.8697,-60.31589 186.16386,1.28761 l 38.78414,2.14595 C 461.8475,230.31938 277.50173,228.50879 235.29035,325.70513 z" id="path3871" inkscape:connector-curvature="0" sodipodi:nodetypes="ccccc"/>
      <path sodipodi:nodetypes="ccccc" inkscape:connector-curvature="0" id="path3881" d="m 235.29035,325.70513 37.49134,-0.85839 c 30.33013,-59.4237 160.8697,-60.31589 186.16386,1.28761 l 38.78414,2.14595 C 461.8475,230.31938 277.50173,228.50879 235.29035,325.70513 z" style="opacity:0.68711656;fill:url(#linearGradient9669);fill-opacity:1;stroke:#e9b96e;stroke-width:4.81671858;stroke-linecap:butt;stroke-linejoin:miter;stroke-miterlimit:4;stroke-opacity:1;stroke-dasharray:none"/>
      <path sodipodi:nodetypes="sssssssss" inkscape:connector-curvature="0" id="rect3783" d="m 220.49358,321.2987 31.06313,0 c 12.42864,0 22.43438,6.97619 22.43438,15.64171 l 0,368.18303 c 0,8.66552 -10.00574,42.86733 -22.43438,42.86733 l -31.06313,0 c -12.42864,0 -22.43438,-34.20181 -22.43438,-42.86733 l 0,-368.18303 c 0,-8.66552 10.00574,-15.64171 22.43438,-15.64171 z" style="fill:#c17d11;fill-opacity:1;stroke:#2e3436;stroke-width:23;stroke-linecap:butt;stroke-linejoin:round;stroke-miterlimit:4;stroke-opacity:1;stroke-dasharray:none;stroke-dashoffset:22.80179958000000084"/>
      <path style="opacity:0.41478529;fill:url(#linearGradient9665);fill-opacity:1;stroke:#e9b96e;stroke-width:5.71725607;stroke-linecap:butt;stroke-linejoin:round;stroke-miterlimit:4;stroke-opacity:1;stroke-dasharray:none;stroke-dashoffset:22.80179958" d="m 225.98967,333.52966 19.58927,0 c 7.83783,0 14.14771,0.56253 14.14771,8.72556 l 0,352.84226 c 0,8.16302 -6.30988,40.38153 -14.14771,40.38153 l -19.58927,0 c -7.83781,0 -14.14769,-32.21851 -14.14769,-40.38153 l 0,-351.64045 c 0,-8.16302 6.30988,-9.92737 14.14769,-9.92737 z" id="path3762" inkscape:connector-curvature="0" sodipodi:nodetypes="sssssssss"/>
      <path style="fill:#c17d11;fill-opacity:1;stroke:#2e3436;stroke-width:23;stroke-linecap:butt;stroke-linejoin:round;stroke-miterlimit:4;stroke-opacity:1;stroke-dasharray:none;stroke-dashoffset:22.80179958000000084" d="m 479.35092,321.2987 31.06313,0 c 12.42864,0 22.43438,6.97619 22.43438,15.64171 l 0,368.18303 c 0,8.66552 -10.00574,42.86733 -22.43438,42.86733 l -31.06313,0 c -12.42864,0 -22.43438,-34.20181 -22.43438,-42.86733 l 0,-368.18303 c 0,-8.66552 10.00574,-15.64171 22.43438,-15.64171 z" id="path3799" inkscape:connector-curvature="0" sodipodi:nodetypes="sssssssss"/>
      <path sodipodi:nodetypes="sssssssss" inkscape:connector-curvature="0" id="path3801" d="m 484.84701,333.52966 19.58927,0 c 7.83783,0 14.14771,0.56253 14.14771,8.72556 l 0,352.84226 c 0,8.16302 -6.30988,40.38153 -14.14771,40.38153 l -19.58927,0 c -7.83781,0 -14.14769,-32.21851 -14.14769,-40.38153 l 0,-351.64045 c 0,-8.16302 6.30988,-9.92737 14.14769,-9.92737 z" style="opacity:0.41478529;fill:url(#linearGradient9661);fill-opacity:1;stroke:#e9b96e;stroke-width:5.71725607;stroke-linecap:butt;stroke-linejoin:round;stroke-miterlimit:4;stroke-opacity:1;stroke-dasharray:none;stroke-dashoffset:22.80179958"/>
      <rect ry="5.8083544" y="647.91266" x="179.1889" height="58.032619" width="113.07979" id="rect3831" style="fill:#555753;fill-opacity:1;stroke:#555753;stroke-width:13;stroke-linecap:butt;stroke-linejoin:round;stroke-miterlimit:4;stroke-opacity:1;stroke-dasharray:none;stroke-dashoffset:22.80179958000000084" rx="5.8083549"/>
      <rect rx="3.9143014" style="opacity:0.57055215;fill:url(#linearGradient9655);fill-opacity:1;stroke:#ffffff;stroke-width:1.26007342;stroke-linecap:butt;stroke-linejoin:round;stroke-miterlimit:4;stroke-opacity:1;stroke-dasharray:none;stroke-dashoffset:22.80179958" id="rect3833" width="103.38372" height="49.428238" x="183.95175" y="652.13934" ry="3.8511825"/>
      <rect rx="5.8083549" style="fill:#555753;fill-opacity:1;stroke:#555753;stroke-width:13;stroke-linecap:butt;stroke-linejoin:round;stroke-miterlimit:4;stroke-opacity:1;stroke-dasharray:none;stroke-dashoffset:22.80179958000000084" id="rect3861" width="113.07979" height="58.032619" x="437.37131" y="647.91266" ry="5.8083544"/>
      <rect ry="3.8511825" y="652.13934" x="442.13422" height="49.428238" width="103.38372" id="rect3863" style="opacity:0.57055215;fill:url(#linearGradient9649);fill-opacity:1;stroke:#ffffff;stroke-width:1.26007342;stroke-linecap:butt;stroke-linejoin:round;stroke-miterlimit:4;stroke-opacity:1;stroke-dasharray:none;stroke-dashoffset:22.80179958" rx="3.9143014"/>
    </g>
  </g>
</svg>
