<?xml version="1.0" encoding="UTF-8" standalone="no"?>
<!-- Created with Inkscape (http://www.inkscape.org/) -->
<svg xmlns:dc="http://purl.org/dc/elements/1.1/" xmlns:cc="http://creativecommons.org/ns#" xmlns:rdf="http://www.w3.org/1999/02/22-rdf-syntax-ns#" xmlns:svg="http://www.w3.org/2000/svg" xmlns="http://www.w3.org/2000/svg" xmlns:xlink="http://www.w3.org/1999/xlink" xmlns:sodipodi="http://sodipodi.sourceforge.net/DTD/sodipodi-0.dtd" xmlns:inkscape="http://www.inkscape.org/namespaces/inkscape" width="210mm" height="297mm" id="svg3301" version="1.1" inkscape:version="0.48.0 r9654">
  <title id="title3834">dollar</title>
  <defs id="defs3">
    <linearGradient inkscape:collect="always" id="linearGradient3796">
      <stop style="stop-color:#000000;stop-opacity:1;" offset="0" id="stop3798"/>
      <stop style="stop-color:#000000;stop-opacity:0;" offset="1" id="stop3800"/>
    </linearGradient>
    <linearGradient inkscape:collect="always" id="linearGradient4143">
      <stop style="stop-color:#ffffff;stop-opacity:1;" offset="0" id="stop4145"/>
      <stop style="stop-color:#ffffff;stop-opacity:0;" offset="1" id="stop4147"/>
    </linearGradient>
    <linearGradient inkscape:collect="always" id="linearGradient4110">
      <stop style="stop-color:#ffffff;stop-opacity:1;" offset="0" id="stop4112"/>
      <stop style="stop-color:#ffffff;stop-opacity:0;" offset="1" id="stop4114"/>
    </linearGradient>
    <linearGradient inkscape:collect="always" xlink:href="#linearGradient4110" id="linearGradient4116" x1="98.470001" y1="250.04745" x2="232.38554" y2="442.32819" gradientUnits="userSpaceOnUse"/>
    <linearGradient inkscape:collect="always" xlink:href="#linearGradient4110" id="linearGradient4118" gradientUnits="userSpaceOnUse" x1="64.95318" y1="369.4144" x2="237.67768" y2="369.4144"/>
    <linearGradient inkscape:collect="always" xlink:href="#linearGradient4143" id="linearGradient4149" x1="317.01448" y1="489.50504" x2="431.55694" y2="489.50504" gradientUnits="userSpaceOnUse" gradientTransform="matrix(0.78474542,0,0,0.96686678,376.5414,35.411781)"/>
    <radialGradient inkscape:collect="always" xlink:href="#linearGradient3796" id="radialGradient3802" cx="378.80719" cy="826.08801" fx="378.80719" fy="826.08801" r="211.12189" gradientTransform="matrix(1,0,0,0.13397129,0,715.41594)" gradientUnits="userSpaceOnUse"/>
    <linearGradient inkscape:collect="always" xlink:href="#linearGradient4110" id="linearGradient3822" gradientUnits="userSpaceOnUse" x1="98.470001" y1="250.04745" x2="232.38554" y2="442.32819"/>
    <radialGradient inkscape:collect="always" xlink:href="#linearGradient3796" id="radialGradient3023" gradientUnits="userSpaceOnUse" gradientTransform="matrix(1,0,0,0.13397129,0,715.41594)" cx="378.80719" cy="826.08801" fx="378.80719" fy="826.08801" r="211.12189"/>
    <linearGradient inkscape:collect="always" xlink:href="#linearGradient4110" id="linearGradient3027" gradientUnits="userSpaceOnUse" x1="98.470001" y1="250.04745" x2="232.38554" y2="442.32819"/>
    <linearGradient inkscape:collect="always" xlink:href="#linearGradient4110" id="linearGradient3037" gradientUnits="userSpaceOnUse" x1="98.470001" y1="250.04745" x2="232.38554" y2="442.32819"/>
    <linearGradient inkscape:collect="always" xlink:href="#linearGradient4110" id="linearGradient3040" gradientUnits="userSpaceOnUse" x1="64.95318" y1="369.4144" x2="237.67768" y2="369.4144" gradientTransform="matrix(2.2785456,0,0,2.2785456,30.746843,-327.79002)"/>
  </defs>
  <sodipodi:namedview inkscape:document-units="mm" id="base" pagecolor="#ffffff" bordercolor="#666666" borderopacity="1.0" inkscape:pageopacity="0.0" inkscape:pageshadow="2" inkscape:zoom="0.49497475" inkscape:cx="99.229225" inkscape:cy="528.36837" inkscape:current-layer="layer1" showgrid="false" showguides="true" inkscape:guide-bbox="true" inkscape:snap-global="false" inkscape:window-width="1174" inkscape:window-height="669" inkscape:window-x="20" inkscape:window-y="20" inkscape:window-maximized="0">
    <sodipodi:guide orientation="0,1" position="985.90888,899.03576" id="guide3309"/>
    <sodipodi:guide orientation="0,1" position="-25.714286,188.57143" id="guide3311"/>
    <sodipodi:guide orientation="1,0" position="728.57143,138.57143" id="guide3313"/>
    <sodipodi:guide orientation="1,0" position="17.142857,141.42857" id="guide3315"/>
    <sodipodi:guide orientation="1,0" position="373.75644,1000.051" id="guide4104"/>
    <sodipodi:guide orientation="1,0" position="333.85542,294.45947" id="guide3022"/>
    <sodipodi:guide orientation="1,0" position="408.10163,294.96454" id="guide3024"/>
  </sodipodi:namedview>
  <metadata id="metadata4">
    <rdf:RDF>
      <cc:Work rdf:about="">
        <dc:format>image/svg+xml</dc:format>
        <dc:type rdf:resource="http://purl.org/dc/dcmitype/StillImage"/>
        <dc:title>dollar</dc:title>
        <dc:date>Feb 2014</dc:date>
        <dc:creator>
          <cc:Agent>
            <dc:title>Franziska Sponsel</dc:title>
          </cc:Agent>
        </dc:creator>
        <dc:rights>
          <cc:Agent>
            <dc:title>Franziska Sponsel</dc:title>
          </cc:Agent>
        </dc:rights>
        <dc:publisher>
          <cc:Agent>
            <dc:title>RRZE</dc:title>
          </cc:Agent>
        </dc:publisher>
        <dc:subject>
          <rdf:Bag>
            <rdf:li>dollar</rdf:li>
            <rdf:li>sign</rdf:li>
            <rdf:li>money</rdf:li>
            <rdf:li>scholarship</rdf:li>
            <rdf:li>richie rich</rdf:li>
            <rdf:li>pot o' gold</rdf:li>
          </rdf:Bag>
        </dc:subject>
        <cc:license rdf:resource="http://creativecommons.org/licenses/by-sa/3.0/"/>
      </cc:Work>
      <cc:License rdf:about="http://creativecommons.org/licenses/by-sa/3.0/">
        <cc:permits rdf:resource="http://creativecommons.org/ns#Reproduction"/>
        <cc:permits rdf:resource="http://creativecommons.org/ns#Distribution"/>
        <cc:requires rdf:resource="http://creativecommons.org/ns#Notice"/>
        <cc:requires rdf:resource="http://creativecommons.org/ns#Attribution"/>
        <cc:permits rdf:resource="http://creativecommons.org/ns#DerivativeWorks"/>
        <cc:requires rdf:resource="http://creativecommons.org/ns#ShareAlike"/>
      </cc:License>
    </rdf:RDF>
  </metadata>
  <g inkscape:label="Layer 1" inkscape:groupmode="layer" id="layer1">
    <g id="g3815">
      <path id="rect3307" d="m 17.142857,152.36218 711.428593,0 0,711.42859 -711.428593,0 z" style="opacity:0;fill:none;stroke:none" inkscape:connector-curvature="0"/>
      <path transform="matrix(0.93787247,0,0,0.93787247,18.560009,54.248697)" d="m 589.92908,826.08801 a 211.12189,28.284271 0 1 1 -422.24378,0 211.12189,28.284271 0 1 1 422.24378,0 z" sodipodi:ry="28.284271" sodipodi:rx="211.12189" sodipodi:cy="826.08801" sodipodi:cx="378.80719" id="path3026" style="opacity:0.76619705;fill:url(#radialGradient3023);fill-opacity:1;stroke:none" sodipodi:type="arc"/>
      <g transform="matrix(0.99458019,0,0,1.0001819,-0.99518523,-0.09234353)" style="stroke:#4e9a06;stroke-width:45.39899826;stroke-miterlimit:4;stroke-dasharray:none" id="g3043">
        <path inkscape:connector-curvature="0" style="fill:#4e9a06;fill-opacity:1;stroke:#4e9a06;stroke-width:45.39899826;stroke-linecap:butt;stroke-linejoin:round;stroke-miterlimit:4;stroke-opacity:1;stroke-dasharray:none;stroke-dashoffset:22.80179958" d="m 350.67061,180.36704 49.09779,0 c 11.87614,0 21.43709,9.56094 21.43709,21.43709 l 0,611.82126 c 0,11.87615 -9.56095,21.43708 -21.43709,21.43708 l -49.09779,0 c -11.87615,0 -21.43708,-9.56093 -21.43708,-21.43708 l 0,-611.82126 c 0,-11.87615 9.56093,-21.43709 21.43708,-21.43709 z" id="rect4139"/>
        <path style="font-size:300px;font-style:normal;font-weight:normal;line-height:125%;letter-spacing:0px;word-spacing:0px;fill:#4e9a06;fill-opacity:1;stroke:#4e9a06;stroke-width:45.39899826;stroke-linejoin:round;stroke-miterlimit:4;stroke-opacity:1;stroke-dasharray:none;font-family:Sans" inkscape:connector-curvature="0" id="path4102" d="m 520.88335,280.79825 0,65.75295 c -25.58946,-12.23784 -49.73224,-21.36093 -72.42836,-27.36925 -22.69672,-6.00743 -44.61435,-9.01138 -65.75297,-9.01181 -36.71502,4.3e-4 -65.08556,7.12089 -85.11167,21.36137 -19.80389,14.24132 -29.70576,34.49009 -29.70565,60.74636 -1.1e-4,22.02926 6.56406,38.71783 19.69251,50.06571 13.35071,11.12603 38.49478,20.13783 75.43232,27.03547 l 40.7201,8.34428 c 50.28791,9.56839 87.33649,26.47946 111.14586,50.73326 24.03113,24.03173 36.04691,56.29627 36.0473,96.79369 -3.9e-4,48.28566 -16.24392,84.88922 -48.73062,109.81076 -32.26487,24.9216 -79.66035,37.38237 -142.18658,37.38239 -23.58671,-2e-5 -48.73077,-2.67018 -75.43232,-8.01052 -26.4793,-5.34034 -53.95978,-13.23958 -82.44153,-23.69776 l 0,-69.42444 c 27.36918,15.35355 54.18211,26.92428 80.43889,34.71221 26.25653,7.78804 52.06814,11.68205 77.43496,11.68201 38.49471,4e-5 68.20033,-7.56543 89.11693,-22.69646 20.91602,-15.13088 31.37418,-36.71475 31.37452,-64.75164 -3.4e-4,-24.47641 -7.56582,-43.61261 -22.69645,-57.40866 -14.90876,-13.79568 -39.49654,-24.14258 -73.76347,-31.04074 l -41.05388,-8.0105 c -50.28835,-10.01291 -86.66939,-25.70015 -109.14322,-47.06177 -22.47399,-21.36106 -33.71095,-51.06669 -33.7109,-89.11694 -5e-5,-44.05742 15.46467,-78.7696 46.39421,-104.13665 31.15187,-25.36613 73.98582,-38.04943 128.50196,-38.04993 23.36375,5e-4 47.17275,2.11437 71.42707,6.34165 24.25373,4.22827 49.06403,10.56992 74.43099,19.02496"/>
      </g>
      <path style="font-size:300px;font-style:normal;font-weight:normal;line-height:125%;letter-spacing:0px;word-spacing:0px;opacity:0.82515337;fill:#73d216;fill-opacity:1;stroke:url(#linearGradient3040);stroke-width:16.31898117;stroke-linejoin:round;stroke-miterlimit:4;stroke-opacity:1;stroke-dasharray:none;font-family:Sans" inkscape:connector-curvature="0" id="path4108" d="m 338.4469,314.44349 c -16.16833,3.52062 -29.78717,9.21662 -40.85655,17.08802 -19.80389,14.24132 -29.70576,34.49009 -29.70565,60.74636 -1.1e-4,22.02926 6.56406,38.71783 19.69251,50.06571 10.15161,8.46001 27.12189,15.69763 50.91089,21.71288 z m 68.19184,398.66436 c 16.81945,-3.74497 30.9807,-9.77808 42.48378,-18.09938 20.91616,-15.1307 31.37418,-36.71475 31.37452,-64.75164 -3.4e-4,-24.47641 -7.56582,-43.61261 -22.69645,-57.40866 -11.22779,-10.38953 -27.94511,-18.82304 -50.15205,-25.30056 -0.64867,38.14062 -1.0098,165.56024 -1.0098,165.56024 z M 337.186,532.60443 C 289.88953,522.55675 255.44088,507.267 233.84002,486.73516 c -22.47399,-21.36106 -33.71095,-51.06669 -33.7109,-89.11694 -5e-5,-44.05742 15.46467,-78.7696 46.39421,-104.13665 23.71638,-19.31161 55.20857,-31.27226 92.46687,-35.88194 2.37958,-62.55793 -7.30009,-65.47599 35.97762,-65.30845 43.27772,0.16747 30.89608,3.91363 32.99562,64.51677 12.70257,1.052 25.5322,2.70712 38.48892,4.96534 24.25373,4.22827 49.06403,10.56992 74.43099,19.02496 l 0,65.75295 c -25.58946,-12.23784 -49.73224,-21.36093 -72.42836,-27.36925 -14.24612,-3.7707 -28.18531,-6.3581 -41.81755,-7.76221 l 0.88177,167.25099 c 0,0 83.54691,25.53206 107.35628,49.78586 24.03113,24.03173 36.04691,56.29627 36.0473,96.79369 -3.9e-4,48.28566 -16.24392,84.88922 -48.73062,109.81076 -23.54399,18.18553 -55.14468,29.73603 -94.8021,34.65137 -1.42589,61.98025 5.04121,58.40307 -31.75247,58.15359 -32.08853,-0.2176 -37.80002,9.20729 -38.45912,-56.2225 -16.80643,-1.15431 -34.34148,-3.55783 -52.60521,-7.21059 -26.4793,-5.34034 -53.95978,-13.23958 -82.44153,-23.69776 l 0,-69.42444 c 27.36918,15.35355 54.18217,26.92409 80.43889,34.71221 18.49621,5.48623 36.77163,9.04008 54.82632,10.66156 0,0 -0.668,-109.30354 -0.21099,-184.08005 z" sodipodi:nodetypes="ccsccccsccccccscczcccccccccccsccccsccc"/>
    </g>
  </g>
</svg>
