<?xml version="1.0" encoding="UTF-8" standalone="no"?>
<!-- Created with Inkscape (http://www.inkscape.org/) -->
<svg xmlns:dc="http://purl.org/dc/elements/1.1/" xmlns:cc="http://creativecommons.org/ns#" xmlns:rdf="http://www.w3.org/1999/02/22-rdf-syntax-ns#" xmlns:svg="http://www.w3.org/2000/svg" xmlns="http://www.w3.org/2000/svg" xmlns:xlink="http://www.w3.org/1999/xlink" xmlns:sodipodi="http://sodipodi.sourceforge.net/DTD/sodipodi-0.dtd" xmlns:inkscape="http://www.inkscape.org/namespaces/inkscape" width="210mm" height="297mm" id="svg2" version="1.1" inkscape:version="0.48.0 r9654">
  <title id="title3952">frontend</title>
  <defs id="defs4">
    <linearGradient inkscape:collect="always" id="linearGradient3956">
      <stop style="stop-color:#2e3436;stop-opacity:1;" offset="0" id="stop3958"/>
      <stop style="stop-color:#2e3436;stop-opacity:0;" offset="1" id="stop3960"/>
    </linearGradient>
    <linearGradient id="linearGradient3916">
      <stop style="stop-color:#8ae234;stop-opacity:1;" offset="0" id="stop3918"/>
      <stop style="stop-color:#4e9a06;stop-opacity:1;" offset="1" id="stop3920"/>
    </linearGradient>
    <linearGradient id="linearGradient3908">
      <stop style="stop-color:#fce94f;stop-opacity:1;" offset="0" id="stop3910"/>
      <stop style="stop-color:#c4a000;stop-opacity:1;" offset="1" id="stop3912"/>
    </linearGradient>
    <linearGradient id="linearGradient3900">
      <stop style="stop-color:#ef2929;stop-opacity:1;" offset="0" id="stop3902"/>
      <stop style="stop-color:#a40000;stop-opacity:1;" offset="1" id="stop3904"/>
    </linearGradient>
    <linearGradient inkscape:collect="always" id="linearGradient3876">
      <stop style="stop-color:#eeeeec;stop-opacity:1;" offset="0" id="stop3878"/>
      <stop style="stop-color:#eeeeec;stop-opacity:0;" offset="1" id="stop3880"/>
    </linearGradient>
    <radialGradient inkscape:collect="always" xlink:href="#linearGradient3956" id="radialGradient3962" cx="323.24881" cy="746.28595" fx="323.24881" fy="746.28595" r="424.26407" gradientTransform="matrix(1,0,0,0.09761905,0,673.43422)" gradientUnits="userSpaceOnUse"/>
    <radialGradient inkscape:collect="always" xlink:href="#linearGradient3916" id="radialGradient3092" gradientUnits="userSpaceOnUse" gradientTransform="matrix(3.0128263,0,0,3.0128263,73.606692,-373.66017)" cx="87.440392" cy="212.69162" fx="87.440392" fy="212.69162" r="15.152289"/>
    <radialGradient inkscape:collect="always" xlink:href="#linearGradient3908" id="radialGradient3095" gradientUnits="userSpaceOnUse" gradientTransform="matrix(3.0128263,0,0,3.0128263,-42.043047,-373.66017)" cx="88.326149" cy="210.47722" fx="88.326149" fy="210.47722" r="15.152289"/>
    <radialGradient inkscape:collect="always" xlink:href="#linearGradient3900" id="radialGradient3098" gradientUnits="userSpaceOnUse" gradientTransform="matrix(3.0128263,0,0,3.0128263,-154.64937,-373.66017)" cx="88.769028" cy="212.24873" fx="88.769028" fy="212.24873" r="15.152289"/>
    <linearGradient inkscape:collect="always" xlink:href="#linearGradient3876" id="linearGradient3101" gradientUnits="userSpaceOnUse" x1="156.85715" y1="128.79074" x2="170.28575" y2="314.50504"/>
  </defs>
  <sodipodi:namedview id="base" pagecolor="#ffffff" bordercolor="#666666" borderopacity="1.0" inkscape:pageopacity="0.0" inkscape:pageshadow="2" inkscape:zoom="0.24748738" inkscape:cx="45.69114" inkscape:cy="598.78169" inkscape:document-units="px" inkscape:current-layer="layer1" showgrid="false" showguides="true" inkscape:guide-bbox="true" inkscape:snap-global="false" inkscape:window-width="1225" inkscape:window-height="708" inkscape:window-x="0" inkscape:window-y="0" inkscape:window-maximized="0">
    <sodipodi:guide orientation="0,1" position="-631.42857,968.57143" id="guide3757"/>
    <sodipodi:guide orientation="0,1" position="-548.57143,240" id="guide3759"/>
    <sodipodi:guide orientation="1,0" position="8.5714286,8.5714286" id="guide3761"/>
    <sodipodi:guide orientation="1,0" position="737.14286,162.85714" id="guide3763"/>
    <sodipodi:guide orientation="1,0" position="369.71583,278.8021" id="guide3906"/>
  </sodipodi:namedview>
  <metadata id="metadata7">
    <rdf:RDF>
      <cc:Work rdf:about="">
        <dc:format>image/svg+xml</dc:format>
        <dc:type rdf:resource="http://purl.org/dc/dcmitype/StillImage"/>
        <dc:title>frontend</dc:title>
        <dc:date>Nov 2012</dc:date>
        <dc:creator>
          <cc:Agent>
            <dc:title>Franziska Sponsel</dc:title>
          </cc:Agent>
        </dc:creator>
        <dc:rights>
          <cc:Agent>
            <dc:title>Franziska Sponsel</dc:title>
          </cc:Agent>
        </dc:rights>
        <dc:publisher>
          <cc:Agent>
            <dc:title>RRZE</dc:title>
          </cc:Agent>
        </dc:publisher>
        <dc:subject>
          <rdf:Bag>
            <rdf:li>browser</rdf:li>
            <rdf:li>frontend</rdf:li>
            <rdf:li>internet</rdf:li>
            <rdf:li>www</rdf:li>
            <rdf:li>web</rdf:li>
          </rdf:Bag>
        </dc:subject>
        <cc:license rdf:resource="http://creativecommons.org/licenses/by-sa/3.0/"/>
      </cc:Work>
      <cc:License rdf:about="http://creativecommons.org/licenses/by-sa/3.0/">
        <cc:permits rdf:resource="http://creativecommons.org/ns#Reproduction"/>
        <cc:permits rdf:resource="http://creativecommons.org/ns#Distribution"/>
        <cc:requires rdf:resource="http://creativecommons.org/ns#Notice"/>
        <cc:requires rdf:resource="http://creativecommons.org/ns#Attribution"/>
        <cc:permits rdf:resource="http://creativecommons.org/ns#DerivativeWorks"/>
        <cc:requires rdf:resource="http://creativecommons.org/ns#ShareAlike"/>
      </cc:License>
    </rdf:RDF>
  </metadata>
  <g inkscape:label="Ebene 1" inkscape:groupmode="layer" id="layer1">
    <g id="g3908">
      <path transform="matrix(0.85,0,0,0.97560974,100.0051,43.455906)" d="m 747.51288,746.28595 a 424.26407,41.416256 0 1 1 -848.52814,0 424.26407,41.416256 0 1 1 848.52814,0 z" sodipodi:ry="41.416256" sodipodi:rx="424.26407" sodipodi:cy="746.28595" sodipodi:cx="323.24881" id="path3954" style="fill:url(#radialGradient3962);fill-opacity:1;stroke:none" sodipodi:type="arc"/>
      <path inkscape:connector-curvature="0" id="rect2987" d="m 8.5714283,83.790756 728.5714117,0 0,728.571414 -728.5714117,0 z" style="opacity:0.87116562;fill:none;stroke:none"/>
      <path inkscape:connector-curvature="0" id="rect3765" d="m 74.285713,166.6479 594.285697,0 c 20.57714,0 37.14286,16.56572 37.14286,37.14286 l 0,525.71429 c 0,20.57714 -16.56572,37.14285 -37.14286,37.14285 l -594.285697,0 c -20.577142,0 -37.142856,-16.56571 -37.142856,-37.14285 l 0,-525.71429 c 0,-20.57714 16.565714,-37.14286 37.142856,-37.14286 z" style="fill:#babdb6;stroke:#2e3436;stroke-width:23;stroke-linejoin:round;stroke-miterlimit:4;stroke-dasharray:none;"/>
      <path inkscape:connector-curvature="0" id="rect3767" d="m 74.376619,177.83966 592.675381,0 c 14.42129,0 26.03121,12.06043 26.03121,27.04133 l 0,522.10521 c 0,14.9809 -11.60992,27.04133 -26.03121,27.04133 l -592.675381,0 c -14.421288,0 -26.031206,-12.06043 -26.031206,-27.04133 l 0,-522.10521 c 0,-14.9809 11.609918,-27.04133 26.031206,-27.04133 z" style="fill:#3465a4;stroke:#eeeeec;stroke-width:11.54796124;stroke-linejoin:round;stroke-miterlimit:4"/>
      <path inkscape:connector-curvature="0" style="opacity:0.63803681;fill:url(#linearGradient3101);fill-opacity:1;stroke:#eeeeec;stroke-width:11.54796124;stroke-linejoin:round;stroke-miterlimit:4" d="m 74.376619,177.83966 592.675381,0 c 14.42129,0 26.03121,12.06043 26.03121,27.04133 l 0,522.10521 c 0,14.9809 -11.60992,27.04133 -26.03121,27.04133 l -592.675381,0 c -14.421288,0 -26.031206,-12.06043 -26.031206,-27.04133 l 0,-522.10521 c 0,-14.9809 11.609918,-27.04133 26.031206,-27.04133 z" id="path3874"/>
      <path inkscape:connector-curvature="0" id="path3800" d="m 155.77888,240.45627 c 0,25.21243 -20.43875,45.65117 -45.65122,45.65117 -25.212469,0 -45.65121,-20.43874 -45.65121,-45.65117 0,-25.21248 20.438741,-45.65123 45.65121,-45.65123 25.21247,0 45.65122,20.43875 45.65122,45.65123 z" style="fill:url(#radialGradient3098);fill-opacity:1;stroke:none"/>
      <path inkscape:connector-curvature="0" id="path3802" d="m 268.3852,240.45627 c 0,25.21243 -20.43875,45.65117 -45.65121,45.65117 -25.21248,0 -45.65123,-20.43874 -45.65123,-45.65117 0,-25.21248 20.43875,-45.65123 45.65123,-45.65123 25.21246,0 45.65121,20.43875 45.65121,45.65123 z" style="fill:url(#radialGradient3095);fill-opacity:1;stroke:none"/>
      <path inkscape:connector-curvature="0" id="path3804" d="m 384.03494,240.45627 c 0,25.21243 -20.43875,45.65117 -45.65123,45.65117 -25.21245,0 -45.6512,-20.43874 -45.6512,-45.65117 0,-25.21248 20.43875,-45.65123 45.6512,-45.65123 25.21248,0 45.65123,20.43875 45.65123,45.65123 z" style="fill:url(#radialGradient3092);fill-opacity:1;stroke:none"/>
      <path inkscape:connector-curvature="0" id="rect3817" d="m 78.888329,318.58411 580.794801,0 c 8.88128,0 16.03119,7.35233 16.03119,16.48506 l 0,386.52224 c 0,9.13273 -7.14991,16.48507 -16.03119,16.48507 l -580.794801,0 c -8.881279,0 -16.031189,-7.35234 -16.031189,-16.48507 l 0,-386.52224 c 0,-9.13273 7.14991,-16.48506 16.031189,-16.48506 z" style="fill:#babdb6;fill-opacity:1;stroke:none"/>
      <path inkscape:connector-curvature="0" id="rect3819" d="m 87.840113,339.314 562.891137,0 c 8.08985,0 14.60262,6.96328 14.60262,15.61275 l 0,130.87093 c 0,8.64946 -6.51277,15.61275 -14.60262,15.61275 l -562.891137,0 c -8.08985,0 -14.602618,-6.96329 -14.602618,-15.61275 l 0,-130.87093 c 0,-8.64947 6.512768,-15.61275 14.602618,-15.61275 z" style="fill:#ffffff;fill-opacity:1;stroke:#2e3436;stroke-width:13;stroke-miterlimit:4;stroke-dasharray:none"/>
      <g transform="matrix(1.7478013,0,0,1.9530386,-545.51747,-405.34408)" id="g3901">
        <path style="font-size:90px;font-style:normal;font-weight:bold;line-height:125%;letter-spacing:0px;word-spacing:0px;fill:#000000;fill-opacity:1;stroke:none;font-family:Sans;-inkscape-font-specification:Sans Bold" inkscape:connector-curvature="0" id="path3844" d="m 402.5943,399.41724 15.29297,0 8.26172,33.92579 8.30566,-33.92579 13.13965,0 8.26172,33.57422 8.30567,-33.57422 15.29297,0 -12.96387,49.21875 -17.18262,0 -8.30566,-33.83789 -8.26172,33.83789 -17.18262,0 -12.96387,-49.21875"/>
        <path style="font-size:90px;font-style:normal;font-weight:bold;line-height:125%;letter-spacing:0px;word-spacing:0px;fill:#000000;fill-opacity:1;stroke:none;font-family:Sans;-inkscape-font-specification:Sans Bold" inkscape:connector-curvature="0" id="path3846" d="m 485.73884,399.41724 15.29296,0 8.26172,33.92579 8.30567,-33.92579 13.13964,0 8.26172,33.57422 8.30567,-33.57422 15.29297,0 -12.96387,49.21875 -17.18262,0 -8.30566,-33.83789 -8.26172,33.83789 -17.18262,0 -12.96386,-49.21875"/>
        <path style="font-size:90px;font-style:normal;font-weight:bold;line-height:125%;letter-spacing:0px;word-spacing:0px;fill:#000000;fill-opacity:1;stroke:none;font-family:Sans;-inkscape-font-specification:Sans Bold" inkscape:connector-curvature="0" id="path3848" d="m 568.88337,399.41724 15.29296,0 8.26172,33.92579 8.30567,-33.92579 13.13965,0 8.26171,33.57422 8.30567,-33.57422 15.29297,0 -12.96387,49.21875 -17.18262,0 -8.30566,-33.83789 -8.26172,33.83789 -17.18262,0 -12.96386,-49.21875"/>
      </g>
      <g id="flowRoot3850" style="font-size:56px;font-style:normal;font-weight:normal;line-height:125%;letter-spacing:0px;word-spacing:0px;fill:#000000;fill-opacity:1;stroke:none;font-family:Sans" transform="matrix(1.3209051,1.3209051,-1.3209051,1.3209051,1135.2851,93.452335)">
        <path inkscape:connector-curvature="0" id="path3893" d="m -329.96094,425.92733 0,15.23047 15.23047,0 0,4.64843 -15.23047,0 0,15.23047 -4.59375,0 0,-15.23047 -15.23047,0 0,-4.64843 15.23047,0 0,-15.23047 4.59375,0"/>
      </g>
      <g id="flowRoot3858" style="font-size:72px;font-style:normal;font-weight:normal;line-height:125%;letter-spacing:0px;word-spacing:0px;fill:#000000;fill-opacity:1;stroke:none;font-family:Sans" transform="matrix(1.8680419,0,0,1.8680419,647.48295,-708.16245)">
        <path inkscape:connector-curvature="0" id="path3890" d="m -236.48437,505.81672 18.94921,0 0,5.76563 -18.94921,0 0,-5.76563"/>
      </g>
      <g id="flowRoot3866" style="font-size:56px;font-style:normal;font-weight:normal;line-height:125%;letter-spacing:0px;word-spacing:0px;fill:#000000;fill-opacity:1;stroke:none;font-family:Sans" transform="matrix(1.8680419,0,0,1.8680419,958.11162,-588.07404)">
        <path inkscape:connector-curvature="0" id="path3887" d="m -329.96094,425.92733 0,15.23047 15.23047,0 0,4.64843 -15.23047,0 0,15.23047 -4.59375,0 0,-15.23047 -15.23047,0 0,-4.64843 15.23047,0 0,-15.23047 4.59375,0"/>
      </g>
    </g>
  </g>
</svg>
