<?xml version="1.0" encoding="UTF-8" standalone="no"?>
<!-- Created with Inkscape (http://www.inkscape.org/) -->
<svg xmlns:dc="http://purl.org/dc/elements/1.1/" xmlns:cc="http://creativecommons.org/ns#" xmlns:rdf="http://www.w3.org/1999/02/22-rdf-syntax-ns#" xmlns:svg="http://www.w3.org/2000/svg" xmlns="http://www.w3.org/2000/svg" xmlns:xlink="http://www.w3.org/1999/xlink" xmlns:sodipodi="http://sodipodi.sourceforge.net/DTD/sodipodi-0.dtd" xmlns:inkscape="http://www.inkscape.org/namespaces/inkscape" width="210mm" height="297mm" id="svg2" version="1.1" inkscape:version="0.48.0 r9654">
  <title id="title3965">internationality</title>
  <defs id="defs4">
    <linearGradient inkscape:collect="always" id="linearGradient3938">
      <stop style="stop-color:#2e3436;stop-opacity:1;" offset="0" id="stop3940"/>
      <stop style="stop-color:#2e3436;stop-opacity:0;" offset="1" id="stop3942"/>
    </linearGradient>
    <linearGradient inkscape:collect="always" id="linearGradient3902">
      <stop style="stop-color:#ffffff;stop-opacity:1;" offset="0" id="stop3904"/>
      <stop style="stop-color:#ffffff;stop-opacity:0;" offset="1" id="stop3906"/>
    </linearGradient>
    <linearGradient inkscape:collect="always" xlink:href="#linearGradient3902" id="linearGradient3908" x1="96.727112" y1="101.57304" x2="596.09717" y2="642.31512" gradientUnits="userSpaceOnUse" gradientTransform="matrix(0.95899968,0,0,0.95899962,14.527016,20.532902)"/>
    <linearGradient inkscape:collect="always" xlink:href="#linearGradient3902" id="linearGradient3934" gradientUnits="userSpaceOnUse" gradientTransform="matrix(0.95899968,0,0,0.95899962,14.527016,20.532902)" x1="96.727112" y1="101.57304" x2="596.09717" y2="642.31512"/>
    <radialGradient inkscape:collect="always" xlink:href="#linearGradient3938" id="radialGradient3944" cx="407.14285" cy="843.79077" fx="407.14285" fy="843.79077" r="381.42856" gradientTransform="matrix(1,0,0,0.22471911,0,654.17486)" gradientUnits="userSpaceOnUse"/>
    <radialGradient inkscape:collect="always" xlink:href="#linearGradient3938" id="radialGradient3967" gradientUnits="userSpaceOnUse" gradientTransform="matrix(1,0,0,0.22471911,0,654.17486)" cx="407.14285" cy="843.79077" fx="407.14285" fy="843.79077" r="381.42856"/>
    <linearGradient inkscape:collect="always" xlink:href="#linearGradient3902" id="linearGradient3969" gradientUnits="userSpaceOnUse" gradientTransform="matrix(0.95899968,0,0,0.95899962,14.527016,20.532902)" x1="96.727112" y1="101.57304" x2="596.09717" y2="642.31512"/>
    <linearGradient inkscape:collect="always" xlink:href="#linearGradient3902" id="linearGradient3988" gradientUnits="userSpaceOnUse" gradientTransform="matrix(0.95899968,0,0,0.95899962,14.527016,20.532902)" x1="96.727112" y1="101.57304" x2="596.09717" y2="642.31512"/>
    <linearGradient inkscape:collect="always" xlink:href="#linearGradient3902" id="linearGradient3991" gradientUnits="userSpaceOnUse" gradientTransform="matrix(0.9240492,0,0,0.92404914,27.545407,32.036057)" x1="-14.584215" y1="39.733406" x2="596.09717" y2="642.31512"/>
  </defs>
  <sodipodi:namedview id="base" pagecolor="#ffffff" bordercolor="#666666" borderopacity="1.0" inkscape:pageopacity="0.0" inkscape:pageshadow="2" inkscape:zoom="0.35" inkscape:cx="182.41854" inkscape:cy="550.64412" inkscape:document-units="px" inkscape:current-layer="layer1" showgrid="false" showguides="true" inkscape:guide-bbox="true" inkscape:snap-global="false" inkscape:window-width="1272" inkscape:window-height="713" inkscape:window-x="0" inkscape:window-y="0" inkscape:window-maximized="0">
    <sodipodi:guide orientation="0,1" position="-137.38075,913.1779" id="guide3772"/>
    <sodipodi:guide orientation="0,1" position="-103.03556,189.90868" id="guide3774"/>
    <sodipodi:guide orientation="1,0" position="733.37075,189.90868" id="guide3776"/>
    <sodipodi:guide orientation="1,0" position="10.101525,88.893424" id="guide3778"/>
    <sodipodi:guide orientation="1,0" position="371.73614,123.23861" id="guide3782"/>
    <sodipodi:guide orientation="0,1" position="849.53829,551.54329" id="guide3784"/>
    <sodipodi:guide orientation="-0.70710678,0.70710678" position="307.08637,486.89353" id="guide3805"/>
    <sodipodi:guide orientation="0,1" position="270.72088,422.24376" id="guide3811"/>
    <sodipodi:guide orientation="1,0" position="456.42857,431.42857" id="guide3817"/>
    <sodipodi:guide orientation="0,1" position="405.71429,592.5" id="guide3819"/>
  </sodipodi:namedview>
  <metadata id="metadata7">
    <rdf:RDF>
      <cc:Work rdf:about="">
        <dc:format>image/svg+xml</dc:format>
        <dc:type rdf:resource="http://purl.org/dc/dcmitype/StillImage"/>
        <dc:title>internationality</dc:title>
        <dc:date>Mar 2014</dc:date>
        <dc:creator>
          <cc:Agent>
            <dc:title>Franziska Sponsel</dc:title>
          </cc:Agent>
        </dc:creator>
        <dc:rights>
          <cc:Agent>
            <dc:title>Franziska Sponsel</dc:title>
          </cc:Agent>
        </dc:rights>
        <dc:publisher>
          <cc:Agent>
            <dc:title>RRZE</dc:title>
          </cc:Agent>
        </dc:publisher>
        <dc:subject>
          <rdf:Bag>
            <rdf:li>flag</rdf:li>
            <rdf:li>international</rdf:li>
            <rdf:li>language</rdf:li>
            <rdf:li>german</rdf:li>
            <rdf:li>english</rdf:li>
            <rdf:li>internationality</rdf:li>
          </rdf:Bag>
        </dc:subject>
        <dc:contributor>
          <cc:Agent>
            <dc:title>Martin Fischer</dc:title>
          </cc:Agent>
        </dc:contributor>
        <cc:license rdf:resource="http://creativecommons.org/licenses/by-sa/3.0/"/>
      </cc:Work>
      <cc:License rdf:about="http://creativecommons.org/licenses/by-sa/3.0/">
        <cc:permits rdf:resource="http://creativecommons.org/ns#Reproduction"/>
        <cc:permits rdf:resource="http://creativecommons.org/ns#Distribution"/>
        <cc:requires rdf:resource="http://creativecommons.org/ns#Notice"/>
        <cc:requires rdf:resource="http://creativecommons.org/ns#Attribution"/>
        <cc:permits rdf:resource="http://creativecommons.org/ns#DerivativeWorks"/>
        <cc:requires rdf:resource="http://creativecommons.org/ns#ShareAlike"/>
      </cc:License>
    </rdf:RDF>
  </metadata>
  <g inkscape:label="Ebene 1" inkscape:groupmode="layer" id="layer1">
    <g id="g4006">
      <path transform="matrix(0.88014981,0,0,0.46666667,14.510435,404.30745)" d="m 788.57141,843.79077 a 381.42856,85.714287 0 1 1 -762.857116,0 381.42856,85.714287 0 1 1 762.857116,0 z" sodipodi:ry="85.714287" sodipodi:rx="381.42856" sodipodi:cy="843.79077" sodipodi:cx="407.14285" id="path3936" style="opacity:0.85276034;fill:url(#radialGradient3967);fill-opacity:1;stroke:none" sodipodi:type="arc"/>
      <path id="rect3002" d="m 10.101525,139.18428 723.269225,0 0,723.26923 -723.269225,0 z" style="opacity:0.81999966;fill:none;stroke:none" inkscape:connector-curvature="0"/>
      <path id="rect3780" d="m 104.06824,198.9039 535.33577,0 c 20.49072,0 36.98684,16.49613 36.98684,36.98683 l 0,517.8157 c 0,20.49071 -16.49612,36.98684 -36.98684,36.98684 l -535.33577,0 c -20.490707,0 -36.986835,-16.49613 -36.986835,-36.98684 l 0,-517.8157 c 0,-20.4907 16.496128,-36.98683 36.986835,-36.98683 z" style="fill:#204a87;stroke:#555753;stroke-width:12.52621841;stroke-miterlimit:4" inkscape:connector-curvature="0"/>
      <path sodipodi:nodetypes="ccccc" inkscape:connector-curvature="0" id="rect3823" d="m 453.34194,411.64999 0,373.56193 -163.11614,0 0,-373.56193 z" style="fill:#eeeeec;fill-opacity:1;stroke:none"/>
      <path sodipodi:nodetypes="cccscc" inkscape:connector-curvature="0" id="rect3837" d="m 305.293,484.17377 61.04051,60.08842 -236.90727,240.66104 c -24.96328,1.4522 -35.547736,4.64935 -46.807446,-6.58385 C 69.562943,765.31425 71.215623,754.11021 71.75319,721.41399 z" style="fill:#eeeeec;stroke:none"/>
      <path sodipodi:nodetypes="cccscc" inkscape:connector-curvature="0" id="rect3839" d="M 437.9815,484.1738 376.94099,544.26222 614.187,785.26737 c 10.97365,5.66364 32.72982,2.92495 39.40045,-2.7529 12.17363,-10.36192 25.29957,-32.64971 17.42674,-61.61561 z" style="fill:#eeeeec;stroke:none"/>
      <path sodipodi:nodetypes="ccccc" inkscape:connector-curvature="0" id="rect3843" d="m 509.37289,576.14742 162.50633,165.54556 c 8.70703,17.5329 -5.06247,38.57926 -25.5232,44.73815 L 474.00962,610.86146 z" style="fill:#cc0000;fill-opacity:1;stroke:none"/>
      <path id="rect3821" d="m 371.43977,456.38646 298.01387,0 0,163.11614 -298.01387,0 z" style="fill:#eeeeec;fill-opacity:1;stroke:none" inkscape:connector-curvature="0"/>
      <path sodipodi:nodetypes="ccccc" inkscape:connector-curvature="0" id="rect3841" d="M 437.98152,474.1132 376.94101,414.02479 588.25523,199.36231 c 55.44128,-1.94321 78.20466,8.66886 86.87758,33.84195 z" style="fill:#eeeeec;stroke:none"/>
      <path id="rect3809" d="m 669.57746,494.81817 0,85.65372 -382.52174,0 0,-85.65372 z" style="fill:#cc0000;stroke:none" inkscape:connector-curvature="0"/>
      <path sodipodi:nodetypes="ccccc" inkscape:connector-curvature="0" id="rect3807" d="m 328.90928,452.49055 85.65372,0 0,333.59892 -85.65372,0 z" style="fill:#cc0000;stroke:none"/>
      <path sodipodi:nodetypes="ccccc" inkscape:connector-curvature="0" id="rect3869" d="m 76.648476,206.13999 585.546144,-1.37651 c 0,0 -197.89006,198.56092 -198.52883,198.56092 l -391.83509,0 z" style="fill:#000000;fill-opacity:1;stroke:none"/>
      <path sodipodi:nodetypes="ccccc" inkscape:connector-curvature="0" id="rect3883" d="m 71.8307,397.54308 397.52498,0 c 0,0 -197.38508,198.56091 -197.7127,198.56091 l -199.81228,0 z" style="fill:#cc0000;fill-opacity:1;stroke:none"/>
      <path sodipodi:nodetypes="ccccc" inkscape:connector-curvature="0" id="rect3885" d="m 71.8307,588.31726 207.91917,0 c 0,0 -200.355812,199.24917 -200.129684,198.56091 l -7.789486,0 z" style="fill:#edd400;fill-opacity:1;stroke:none"/>
      <path style="fill:none;stroke:#555753;stroke-width:12.52621841;stroke-miterlimit:4" d="m 104.06824,198.9039 535.33577,0 c 20.49072,0 36.98684,16.49613 36.98684,36.98683 l 0,517.8157 c 0,20.49071 -16.49612,36.98684 -36.98684,36.98684 l -535.33577,0 c -20.490707,0 -36.986835,-16.49613 -36.986835,-36.98684 l 0,-517.8157 c 0,-20.4907 16.496128,-36.98683 36.986835,-36.98683 z" id="path3890" inkscape:connector-curvature="0"/>
      <path sodipodi:nodetypes="sssssssss" inkscape:connector-curvature="0" id="path3900" d="m 114.35446,211.03568 513.38682,0 c 31.74122,0 35.47037,8.67478 35.47037,35.47036 l 0,496.58509 c 0,24.46836 -8.24899,35.47036 -35.47037,35.47036 l -513.38682,0 c -26.323588,0 -35.470366,-5.19367 -35.470366,-35.47036 l 0,-496.58509 c 0,-29.22879 8.349757,-35.47036 35.470366,-35.47036 z" style="opacity:0.85276034000000001;fill:url(#linearGradient3991);fill-opacity:1;stroke:#ffffff;stroke-width:12.01263999999999932;stroke-miterlimit:4;stroke-opacity:1"/>
    </g>
  </g>
</svg>
