<?xml version="1.0" encoding="UTF-8" standalone="no"?>
<!-- Created with Inkscape (http://www.inkscape.org/) -->
<svg xmlns:dc="http://purl.org/dc/elements/1.1/" xmlns:cc="http://creativecommons.org/ns#" xmlns:rdf="http://www.w3.org/1999/02/22-rdf-syntax-ns#" xmlns:svg="http://www.w3.org/2000/svg" xmlns="http://www.w3.org/2000/svg" xmlns:xlink="http://www.w3.org/1999/xlink" xmlns:sodipodi="http://sodipodi.sourceforge.net/DTD/sodipodi-0.dtd" xmlns:inkscape="http://www.inkscape.org/namespaces/inkscape" width="210mm" height="297mm" id="svg2" version="1.1" inkscape:version="0.48.0 r9654">
  <title id="title5130">research</title>
  <defs id="defs4">
    <linearGradient inkscape:collect="always" id="linearGradient5081">
      <stop style="stop-color:#000000;stop-opacity:1;" offset="0" id="stop5083"/>
      <stop style="stop-color:#000000;stop-opacity:0;" offset="1" id="stop5085"/>
    </linearGradient>
    <linearGradient inkscape:collect="always" id="linearGradient4970">
      <stop style="stop-color:#ffffff;stop-opacity:1;" offset="0" id="stop4972"/>
      <stop style="stop-color:#ffffff;stop-opacity:0;" offset="1" id="stop4974"/>
    </linearGradient>
    <linearGradient inkscape:collect="always" id="linearGradient4944">
      <stop style="stop-color:#ffffff;stop-opacity:1;" offset="0" id="stop4946"/>
      <stop style="stop-color:#ffffff;stop-opacity:0;" offset="1" id="stop4948"/>
    </linearGradient>
    <linearGradient inkscape:collect="always" id="linearGradient4906">
      <stop style="stop-color:#ffffff;stop-opacity:1;" offset="0" id="stop4908"/>
      <stop style="stop-color:#ffffff;stop-opacity:0;" offset="1" id="stop4910"/>
    </linearGradient>
    <linearGradient inkscape:collect="always" xlink:href="#linearGradient4906" id="linearGradient5048" gradientUnits="userSpaceOnUse" gradientTransform="matrix(0.89766268,0,0,0.9373174,30.141928,30.423061)" x1="256.28632" y1="332.37009" x2="590.70074" y2="505.88074"/>
    <linearGradient inkscape:collect="always" xlink:href="#linearGradient4970" id="linearGradient5050" gradientUnits="userSpaceOnUse" x1="447.78326" y1="596.67114" x2="449.68118" y2="672.09589"/>
    <linearGradient inkscape:collect="always" xlink:href="#linearGradient4970" id="linearGradient5052" gradientUnits="userSpaceOnUse" x1="447.78326" y1="596.67114" x2="449.68118" y2="672.09589"/>
    <linearGradient inkscape:collect="always" xlink:href="#linearGradient4970" id="linearGradient5054" gradientUnits="userSpaceOnUse" x1="447.78326" y1="596.67114" x2="449.68118" y2="672.09589"/>
    <linearGradient inkscape:collect="always" xlink:href="#linearGradient4970" id="linearGradient5056" gradientUnits="userSpaceOnUse" x1="447.78326" y1="596.67114" x2="449.68118" y2="672.09589"/>
    <linearGradient inkscape:collect="always" xlink:href="#linearGradient4970" id="linearGradient5058" gradientUnits="userSpaceOnUse" x1="447.78326" y1="596.67114" x2="449.68118" y2="672.09589"/>
    <linearGradient inkscape:collect="always" xlink:href="#linearGradient4970" id="linearGradient5060" gradientUnits="userSpaceOnUse" x1="447.78326" y1="596.67114" x2="449.68118" y2="672.09589"/>
    <linearGradient inkscape:collect="always" xlink:href="#linearGradient4970" id="linearGradient5062" gradientUnits="userSpaceOnUse" x1="447.78326" y1="596.67114" x2="449.68118" y2="672.09589"/>
    <linearGradient inkscape:collect="always" xlink:href="#linearGradient4970" id="linearGradient5064" gradientUnits="userSpaceOnUse" x1="447.78326" y1="596.67114" x2="449.68118" y2="672.09589"/>
    <linearGradient inkscape:collect="always" xlink:href="#linearGradient4906" id="linearGradient5066" gradientUnits="userSpaceOnUse" gradientTransform="matrix(0.89766268,0,0,0.9373174,30.141928,30.423061)" x1="530.86298" y1="768.841" x2="590.70074" y2="505.88074"/>
    <linearGradient inkscape:collect="always" xlink:href="#linearGradient4944" id="linearGradient5068" gradientUnits="userSpaceOnUse" x1="361.50186" y1="505.56961" x2="194.78165" y2="730.83362"/>
    <radialGradient inkscape:collect="always" xlink:href="#linearGradient5081" id="radialGradient5087" cx="366.66653" cy="726.47039" fx="366.66653" fy="726.47039" r="321.98191" gradientTransform="matrix(0.9245743,0,0,0.22879298,29.084655,560.25906)" gradientUnits="userSpaceOnUse"/>
    <radialGradient inkscape:collect="always" xlink:href="#linearGradient5081" id="radialGradient3059" gradientUnits="userSpaceOnUse" gradientTransform="matrix(0.9245743,0,0,0.22879298,29.084655,560.25906)" cx="366.66653" cy="726.47039" fx="366.66653" fy="726.47039" r="321.98191"/>
    <linearGradient inkscape:collect="always" xlink:href="#linearGradient4906" id="linearGradient3061" gradientUnits="userSpaceOnUse" gradientTransform="matrix(0.89766268,0,0,0.9373174,30.141928,30.423061)" x1="256.28632" y1="332.37009" x2="590.70074" y2="505.88074"/>
    <linearGradient inkscape:collect="always" xlink:href="#linearGradient4970" id="linearGradient3063" gradientUnits="userSpaceOnUse" x1="447.78326" y1="596.67114" x2="449.68118" y2="672.09589"/>
    <linearGradient inkscape:collect="always" xlink:href="#linearGradient4970" id="linearGradient3065" gradientUnits="userSpaceOnUse" x1="447.78326" y1="596.67114" x2="449.68118" y2="672.09589"/>
    <linearGradient inkscape:collect="always" xlink:href="#linearGradient4970" id="linearGradient3067" gradientUnits="userSpaceOnUse" x1="447.78326" y1="596.67114" x2="449.68118" y2="672.09589"/>
    <linearGradient inkscape:collect="always" xlink:href="#linearGradient4970" id="linearGradient3069" gradientUnits="userSpaceOnUse" x1="447.78326" y1="596.67114" x2="449.68118" y2="672.09589"/>
    <linearGradient inkscape:collect="always" xlink:href="#linearGradient4970" id="linearGradient3071" gradientUnits="userSpaceOnUse" x1="447.78326" y1="596.67114" x2="449.68118" y2="672.09589"/>
    <linearGradient inkscape:collect="always" xlink:href="#linearGradient4970" id="linearGradient3073" gradientUnits="userSpaceOnUse" x1="447.78326" y1="596.67114" x2="449.68118" y2="672.09589"/>
    <linearGradient inkscape:collect="always" xlink:href="#linearGradient4970" id="linearGradient3075" gradientUnits="userSpaceOnUse" x1="447.78326" y1="596.67114" x2="449.68118" y2="672.09589"/>
    <linearGradient inkscape:collect="always" xlink:href="#linearGradient4970" id="linearGradient3077" gradientUnits="userSpaceOnUse" x1="447.78326" y1="596.67114" x2="449.68118" y2="672.09589"/>
    <linearGradient inkscape:collect="always" xlink:href="#linearGradient4906" id="linearGradient3079" gradientUnits="userSpaceOnUse" gradientTransform="matrix(0.89766268,0,0,0.9373174,30.141928,30.423061)" x1="530.86298" y1="768.841" x2="590.70074" y2="505.88074"/>
    <linearGradient inkscape:collect="always" xlink:href="#linearGradient4944" id="linearGradient3081" gradientUnits="userSpaceOnUse" x1="361.50186" y1="505.56961" x2="194.78165" y2="730.83362"/>
    <linearGradient inkscape:collect="always" xlink:href="#linearGradient4944" id="linearGradient3086" gradientUnits="userSpaceOnUse" x1="361.50186" y1="505.56961" x2="194.78165" y2="730.83362" gradientTransform="matrix(1.1736641,0,0,1.1736641,-69.055625,-108.85751)"/>
    <linearGradient inkscape:collect="always" xlink:href="#linearGradient4906" id="linearGradient3089" gradientUnits="userSpaceOnUse" gradientTransform="matrix(1.0535545,0,0,1.1000958,-33.679126,-73.151055)" x1="530.86298" y1="768.841" x2="590.70074" y2="505.88074"/>
    <linearGradient inkscape:collect="always" xlink:href="#linearGradient4906" id="linearGradient3102" gradientUnits="userSpaceOnUse" gradientTransform="matrix(1.0535545,0,0,1.1000958,-33.679126,-73.151055)" x1="256.28632" y1="332.37009" x2="590.70074" y2="505.88074"/>
  </defs>
  <sodipodi:namedview id="base" pagecolor="#ffffff" bordercolor="#666666" borderopacity="1.0" inkscape:pageopacity="0.0" inkscape:pageshadow="2" inkscape:zoom="0.49497475" inkscape:cx="182.48587" inkscape:cy="531.20766" inkscape:document-units="px" inkscape:current-layer="layer1" showgrid="false" showguides="true" inkscape:guide-bbox="true" inkscape:window-width="1280" inkscape:window-height="712" inkscape:window-x="0" inkscape:window-y="0" inkscape:window-maximized="1" inkscape:snap-global="false">
    <sodipodi:guide orientation="0,1" position="-191.42857,937.14286" id="guide3755"/>
    <sodipodi:guide orientation="0,1" position="-151.42857,228.57143" id="guide3757"/>
    <sodipodi:guide orientation="1,0" position="725.71429,114.28571" id="guide3759"/>
    <sodipodi:guide orientation="1,0" position="17.142857,77.142857" id="guide3761"/>
    <sodipodi:guide orientation="0,1" position="-111.42857,800" id="guide4882"/>
    <sodipodi:guide orientation="0,1" position="-162.85714,322.85714" id="guide4884"/>
    <sodipodi:guide orientation="1,0" position="371.42857,322.85714" id="guide4886"/>
    <sodipodi:guide orientation="0,1" position="-62.629458,626.29458" id="guide4888"/>
    <sodipodi:guide orientation="1,0" position="165.71429,368.57143" id="guide4896"/>
    <sodipodi:guide orientation="1,0" position="578.57143,405.71429" id="guide4898"/>
    <sodipodi:guide orientation="0,1" position="113.13709,486.89353" id="guide4940"/>
  </sodipodi:namedview>
  <metadata id="metadata7">
    <rdf:RDF>
      <cc:Work rdf:about="">
        <dc:format>image/svg+xml</dc:format>
        <dc:type rdf:resource="http://purl.org/dc/dcmitype/StillImage"/>
        <dc:title>research</dc:title>
        <dc:date>Apr 2013</dc:date>
        <dc:creator>
          <cc:Agent>
            <dc:title>Franziska Sponsel</dc:title>
          </cc:Agent>
        </dc:creator>
        <dc:rights>
          <cc:Agent>
            <dc:title>Franziska Sponsel</dc:title>
          </cc:Agent>
        </dc:rights>
        <dc:publisher>
          <cc:Agent>
            <dc:title>RRZE</dc:title>
          </cc:Agent>
        </dc:publisher>
        <dc:subject>
          <rdf:Bag>
            <rdf:li>research</rdf:li>
            <rdf:li>bubbles</rdf:li>
            <rdf:li>bubbles</rdf:li>
            <rdf:li>bubbles</rdf:li>
            <rdf:li>chemistry</rdf:li>
            <rdf:li>glas</rdf:li>
          </rdf:Bag>
        </dc:subject>
        <dc:contributor>
          <cc:Agent>
            <dc:title>Ute Weber, Sven Marschke</dc:title>
          </cc:Agent>
        </dc:contributor>
        <cc:license rdf:resource="http://creativecommons.org/licenses/by-sa/3.0/"/>
      </cc:Work>
      <cc:License rdf:about="http://creativecommons.org/licenses/by-sa/3.0/">
        <cc:permits rdf:resource="http://creativecommons.org/ns#Reproduction"/>
        <cc:permits rdf:resource="http://creativecommons.org/ns#Distribution"/>
        <cc:requires rdf:resource="http://creativecommons.org/ns#Notice"/>
        <cc:requires rdf:resource="http://creativecommons.org/ns#Attribution"/>
        <cc:permits rdf:resource="http://creativecommons.org/ns#DerivativeWorks"/>
        <cc:requires rdf:resource="http://creativecommons.org/ns#ShareAlike"/>
      </cc:License>
    </rdf:RDF>
  </metadata>
  <g inkscape:label="Ebene 1" inkscape:groupmode="layer" id="layer1">
    <g id="g3890">
      <path sodipodi:nodetypes="ssscs" inkscape:connector-curvature="0" id="path5078" d="m 368.33248,800.13759 c -164.54417,0 -297.933571,-32.9819 -297.933571,-73.6672 0,-40.6853 133.389401,-73.6672 297.933571,-73.6672 163.87213,0 296.98152,32.723 297.45755,73.5378 0.47601,40.8147 -132.91339,73.7966 -297.45755,73.7966 z" style="fill:url(#radialGradient3059);fill-opacity:1;stroke:none"/>
      <path id="rect2985" d="m 16.571428,115.50504 708.571412,0 0,708.57141 -708.571412,0 z" style="opacity:0.4;fill:none;stroke:none" inkscape:connector-curvature="0"/>
      <path sodipodi:nodetypes="sccsccccccs" inkscape:connector-curvature="0" id="path4890" d="m 130.73286,719.81175 c 9.94186,28.4362 41.9268,24.69376 41.9268,24.69376 l 391.50348,0 c 0,0 30.07979,-4.45053 37.20915,-26.6581 11.77991,-36.69372 -1.13867,-73.59748 -1.13867,-73.59748 C 572.58263,546.78841 503.51263,471.3507 449.89129,391.20274 l 0,-203.91972 -166.8893,-0.14384 0.14384,204.90189 c -58.06972,88.35488 -121.5463,164.06885 -148.57922,247.9899 0,0 -14.51421,49.23199 -3.83375,79.78078 z" style="fill:#729fcf;stroke:#555753;stroke-width:19.95228958;stroke-linecap:butt;stroke-linejoin:miter;stroke-miterlimit:4;stroke-opacity:1;stroke-dasharray:none"/>
      <path sodipodi:nodetypes="cc" inkscape:connector-curvature="0" id="path4902" d="m 249.51033,169.30693 231.37951,0" style="fill:none;stroke:#555753;stroke-width:37;stroke-linecap:round;stroke-linejoin:miter;stroke-miterlimit:4;stroke-opacity:1;stroke-dasharray:none"/>
      <path style="opacity:0.95398769;fill:url(#linearGradient3102);fill-opacity:1;stroke:#ffffff;stroke-width:13.99545574;stroke-linecap:butt;stroke-linejoin:miter;stroke-miterlimit:4;stroke-opacity:1;stroke-dasharray:none" d="m 145.36713,711.28132 c 5.79886,23.072 46.23158,16.03242 46.23158,16.03242 l 370.7037,-0.5928 c 0,0 20.48083,-0.31843 25.10221,-21.13397 7.79881,-35.1272 -9.914,-76.69047 -9.914,-76.69047 C 548.89688,543.83163 480.29398,470.68818 432.16013,395.56411 l 0,-191.13749 -132.323,-0.13482 0.42554,192.0581 c -52.12703,82.81657 -116.22108,157.63772 -144.63704,234.52 0,0 -16.31106,56.33008 -10.2585,80.41142 z" id="path4904" inkscape:connector-curvature="0" sodipodi:nodetypes="sccsccccccs"/>
      <path style="fill:#73d216;stroke:#4e9a06;stroke-width:37;stroke-linecap:butt;stroke-linejoin:miter;stroke-miterlimit:4;stroke-opacity:1;stroke-dasharray:none" d="m 130.73286,719.81175 c 9.94186,28.4362 41.9268,24.69376 41.9268,24.69376 l 391.50348,0 c 0,0 30.07979,-4.45053 37.20915,-26.6581 11.77991,-36.69372 -1.13867,-73.59748 -1.13867,-73.59748 -9.11253,-32.11896 -22.72344,-61.846 -38.79734,-90.13795 -165.70011,-3.38936 -252.31731,42.61373 -388.01538,1.85358 -16.09848,27.61781 -29.6081,55.36155 -38.85429,84.06541 0,0 -14.51421,49.23199 -3.83375,79.78078 z" id="path4938" inkscape:connector-curvature="0" sodipodi:nodetypes="sccsccccs"/>
      <g transform="matrix(1.1736641,0,0,1.1736641,-69.055625,-108.85751)" id="g5018">
        <path transform="matrix(1.125,0,0,1.125,-184.1003,-82.047799)" style="fill:#ffffff;fill-opacity:1;stroke:url(#linearGradient3063);stroke-width:11.55555534;stroke-miterlimit:4;stroke-opacity:1" d="m 462.64986,636.17932 c 0,11.15784 -9.04522,20.20305 -20.20305,20.20305 -11.15784,0 -20.20305,-9.04521 -20.20305,-20.20305 0,-11.15784 9.04521,-20.20305 20.20305,-20.20305 11.15783,0 20.20305,9.04521 20.20305,20.20305 z" id="path4956" inkscape:connector-curvature="0"/>
        <path transform="matrix(0.73619309,0,0,0.73619309,158.64185,145.10006)" style="fill:#ffffff;fill-opacity:1;stroke:url(#linearGradient3065);stroke-width:11.55555534;stroke-miterlimit:4;stroke-opacity:1" d="m 462.64986,636.17932 c 0,11.15784 -9.04522,20.20305 -20.20305,20.20305 -11.15784,0 -20.20305,-9.04521 -20.20305,-20.20305 0,-11.15784 9.04521,-20.20305 20.20305,-20.20305 11.15783,0 20.20305,9.04521 20.20305,20.20305 z" id="path4982" inkscape:connector-curvature="0"/>
        <path transform="matrix(0.93059655,0,0,0.93059655,0.90783917,68.901777)" style="fill:#ffffff;fill-opacity:1;stroke:url(#linearGradient3067);stroke-width:11.55555534;stroke-miterlimit:4;stroke-opacity:1" d="m 462.64986,636.17932 c 0,11.15784 -9.04522,20.20305 -20.20305,20.20305 -11.15784,0 -20.20305,-9.04521 -20.20305,-20.20305 0,-11.15784 9.04521,-20.20305 20.20305,-20.20305 11.15783,0 20.20305,9.04521 20.20305,20.20305 z" id="path4986" inkscape:connector-curvature="0"/>
        <path transform="matrix(0.46402826,0,0,0.46402826,292.1923,382.89546)" style="fill:#ffffff;fill-opacity:1;stroke:url(#linearGradient3069);stroke-width:11.55555534;stroke-miterlimit:4;stroke-opacity:1" d="m 462.64986,636.17932 c 0,11.15784 -9.04522,20.20305 -20.20305,20.20305 -11.15784,0 -20.20305,-9.04521 -20.20305,-20.20305 0,-11.15784 9.04521,-20.20305 20.20305,-20.20305 11.15783,0 20.20305,9.04521 20.20305,20.20305 z" id="path4990" inkscape:connector-curvature="0"/>
        <path transform="matrix(0.46402826,0,0,0.46402826,22.481568,373.80409)" style="fill:#ffffff;fill-opacity:1;stroke:url(#linearGradient3071);stroke-width:11.55555534;stroke-miterlimit:4;stroke-opacity:1" d="m 462.64986,636.17932 c 0,11.15784 -9.04522,20.20305 -20.20305,20.20305 -11.15784,0 -20.20305,-9.04521 -20.20305,-20.20305 0,-11.15784 9.04521,-20.20305 20.20305,-20.20305 11.15783,0 20.20305,9.04521 20.20305,20.20305 z" id="path4994" inkscape:connector-curvature="0"/>
        <path transform="matrix(0.46402826,0,0,0.46402826,179.05522,317.23555)" style="fill:#ffffff;fill-opacity:1;stroke:url(#linearGradient3073);stroke-width:11.55555534;stroke-miterlimit:4;stroke-opacity:1" d="m 462.64986,636.17932 c 0,11.15784 -9.04522,20.20305 -20.20305,20.20305 -11.15784,0 -20.20305,-9.04521 -20.20305,-20.20305 0,-11.15784 9.04521,-20.20305 20.20305,-20.20305 11.15783,0 20.20305,9.04521 20.20305,20.20305 z" id="path4998" inkscape:connector-curvature="0"/>
        <path transform="matrix(0.61955102,0,0,0.61955102,58.726882,292.03631)" style="fill:#ffffff;fill-opacity:1;stroke:url(#linearGradient3075);stroke-width:11.55555534;stroke-miterlimit:4;stroke-opacity:1" d="m 462.64986,636.17932 c 0,11.15784 -9.04522,20.20305 -20.20305,20.20305 -11.15784,0 -20.20305,-9.04521 -20.20305,-20.20305 0,-11.15784 9.04521,-20.20305 20.20305,-20.20305 11.15783,0 20.20305,9.04521 20.20305,20.20305 z" id="path5002" inkscape:connector-curvature="0"/>
        <path transform="matrix(0.61955102,0,0,0.61955102,-20.065016,220.31548)" style="fill:#ffffff;fill-opacity:1;stroke:url(#linearGradient3077);stroke-width:11.55555534;stroke-miterlimit:4;stroke-opacity:1" d="m 462.64986,636.17932 c 0,11.15784 -9.04522,20.20305 -20.20305,20.20305 -11.15784,0 -20.20305,-9.04521 -20.20305,-20.20305 0,-11.15784 9.04521,-20.20305 20.20305,-20.20305 11.15783,0 20.20305,9.04521 20.20305,20.20305 z" id="path5006" inkscape:connector-curvature="0"/>
      </g>
      <path sodipodi:nodetypes="sccsccccccs" inkscape:connector-curvature="0" id="path4914" d="m 145.36713,711.28132 c 5.79886,23.072 46.23158,16.03242 46.23158,16.03242 l 370.7037,-0.5928 c 0,0 20.48083,-0.31843 25.10221,-21.13397 7.79881,-35.1272 -9.914,-76.69047 -9.914,-76.69047 C 548.89688,543.83163 480.29398,470.68818 432.16013,395.56411 l 0,-191.13749 -132.323,-0.13482 0.42554,192.0581 c -52.12703,82.81657 -116.22108,157.63772 -144.63704,234.52 0,0 -16.31106,56.33008 -10.2585,80.41142 z" style="opacity:0.60429448;fill:url(#linearGradient3089);fill-opacity:1;stroke:#ffffff;stroke-width:13.99545574;stroke-linecap:butt;stroke-linejoin:miter;stroke-miterlimit:4;stroke-opacity:1;stroke-dasharray:none"/>
      <path sodipodi:nodetypes="csccccc" inkscape:connector-curvature="0" id="path4918" d="m 324.12185,399.4288 c 0,0 -92.42552,121.85176 -124.07307,190.30124 -16.47922,35.64237 -36.88658,104.79144 -36.88658,104.79144 l 31.01827,26.82661 341.20092,-6.70666 c -124.26367,-7.62878 -269.74015,-8.59069 -320.24263,-39.40157 9.48962,-62.9304 64.5563,-169.20922 108.98309,-275.81106 z" style="opacity:0.61349697;fill:url(#linearGradient3086);fill-opacity:1;stroke:none"/>
      <path sodipodi:nodetypes="ccc" inkscape:connector-curvature="0" id="path4920" d="m 321.59291,215.14414 c 8.72559,58.22604 3.91547,116.8098 1.18559,176.65139 -8.19133,-56.42984 -8.88049,-116.89045 -1.18559,-176.65139 z" style="opacity:0.67177914;fill:#ffffff;fill-opacity:1;stroke:none"/>
      <path style="fill:none;stroke:#555753;stroke-width:37;stroke-linecap:butt;stroke-linejoin:miter;stroke-miterlimit:4;stroke-opacity:1;stroke-dasharray:none" d="m 117.73209,733.80876 c 10.48993,30.00378 44.23807,26.05503 44.23807,26.05503 l 413.08561,0 c 0,0 31.73797,-4.69586 39.26035,-28.12765 12.42929,-38.71651 -1.20145,-77.65464 -1.20145,-77.65464 C 583.93938,551.24729 511.06181,471.65098 454.48454,387.08476 l 0,-215.16105 -176.08929,-0.15177 0.15177,216.19737 c -61.27089,93.22555 -128.24669,173.11335 -156.76984,261.66065 0,0 -15.31432,51.94596 -4.04509,84.1788 z" id="path4942" inkscape:connector-curvature="0" sodipodi:nodetypes="sccsccccccs"/>
    </g>
  </g>
</svg>
