<?xml version="1.0" encoding="UTF-8" standalone="no"?>
<!-- Created with Inkscape (http://www.inkscape.org/) -->
<svg xmlns:dc="http://purl.org/dc/elements/1.1/" xmlns:cc="http://creativecommons.org/ns#" xmlns:rdf="http://www.w3.org/1999/02/22-rdf-syntax-ns#" xmlns:svg="http://www.w3.org/2000/svg" xmlns="http://www.w3.org/2000/svg" xmlns:xlink="http://www.w3.org/1999/xlink" xmlns:sodipodi="http://sodipodi.sourceforge.net/DTD/sodipodi-0.dtd" xmlns:inkscape="http://www.inkscape.org/namespaces/inkscape" width="210mm" height="297mm" id="svg2" version="1.1" inkscape:version="0.48.2 r9819" inkscape:export-xdpi="2.75" inkscape:export-ydpi="2.75">
  <title id="title3791">software</title>
  <defs id="defs4">
    <linearGradient inkscape:collect="always" id="linearGradient3881">
      <stop style="stop-color:#2e3436;stop-opacity:1;" offset="0" id="stop3883"/>
      <stop style="stop-color:#2e3436;stop-opacity:0;" offset="1" id="stop3885"/>
    </linearGradient>
    <linearGradient id="linearGradient3869">
      <stop style="stop-color:#ffffff;stop-opacity:0;" offset="0" id="stop3871"/>
      <stop id="stop3877" offset="0.5" style="stop-color:#ffffff;stop-opacity:1;"/>
      <stop style="stop-color:#ffffff;stop-opacity:0;" offset="1" id="stop3873"/>
    </linearGradient>
    <linearGradient id="linearGradient3853">
      <stop style="stop-color:#ffffff;stop-opacity:0;" offset="0" id="stop3855"/>
      <stop id="stop3861" offset="0.5" style="stop-color:#ffffff;stop-opacity:1;"/>
      <stop style="stop-color:#ffffff;stop-opacity:0;" offset="1" id="stop3857"/>
    </linearGradient>
    <linearGradient inkscape:collect="always" id="linearGradient3807">
      <stop style="stop-color:#ffffff;stop-opacity:1;" offset="0" id="stop3809"/>
      <stop style="stop-color:#ffffff;stop-opacity:0;" offset="1" id="stop3811"/>
    </linearGradient>
    <linearGradient inkscape:collect="always" xlink:href="#linearGradient3807" id="linearGradient3817" x1="150.01959" y1="166.89633" x2="532.99835" y2="612.18176" gradientUnits="userSpaceOnUse"/>
    <linearGradient inkscape:collect="always" xlink:href="#linearGradient3807" id="linearGradient3823" gradientUnits="userSpaceOnUse" x1="150.01959" y1="166.89633" x2="532.99835" y2="612.18176" gradientTransform="matrix(0.91488217,0,0,0.91488217,-13.824922,18.2001)"/>
    <linearGradient inkscape:collect="always" xlink:href="#linearGradient3869" id="linearGradient3875" x1="101.55804" y1="727.21716" x2="701.29016" y2="381.50284" gradientUnits="userSpaceOnUse" gradientTransform="matrix(0.97756822,0,0,0.97756822,8.3957964,9.6473336)"/>
    <radialGradient inkscape:collect="always" xlink:href="#linearGradient3881" id="radialGradient3887" cx="380.71429" cy="762.36218" fx="380.71429" fy="762.36218" r="303.57144" gradientTransform="matrix(1,0,0,0.10352941,0,683.43528)" gradientUnits="userSpaceOnUse"/>
    <radialGradient inkscape:collect="always" xlink:href="#linearGradient3881" id="radialGradient3919" gradientUnits="userSpaceOnUse" gradientTransform="matrix(1,0,0,0.10352941,0,683.43528)" cx="380.71429" cy="762.36218" fx="380.71429" fy="762.36218" r="303.57144"/>
    <linearGradient inkscape:collect="always" xlink:href="#linearGradient3869" id="linearGradient3922" gradientUnits="userSpaceOnUse" gradientTransform="matrix(0.97756822,0,0,0.97756822,8.3957964,9.6473336)" x1="101.55804" y1="727.21716" x2="701.29016" y2="381.50284"/>
    <linearGradient inkscape:collect="always" xlink:href="#linearGradient3807" id="linearGradient3928" gradientUnits="userSpaceOnUse" gradientTransform="matrix(0.91488217,0,0,0.91488217,-13.824922,18.2001)" x1="150.01959" y1="166.89633" x2="532.99835" y2="612.18176"/>
    <linearGradient inkscape:collect="always" xlink:href="#linearGradient3807" id="linearGradient3931" gradientUnits="userSpaceOnUse" x1="150.01959" y1="166.89633" x2="532.99835" y2="612.18176" gradientTransform="matrix(1.1252011,0,0,1.1252011,-103.21047,-76.189092)"/>
  </defs>
  <sodipodi:namedview id="base" pagecolor="#ffffff" bordercolor="#666666" borderopacity="1.0" inkscape:pageopacity="0.0" inkscape:pageshadow="2" inkscape:zoom="0.35" inkscape:cx="385.71429" inkscape:cy="491.42857" inkscape:document-units="px" inkscape:current-layer="layer1" showgrid="false" showguides="true" inkscape:guide-bbox="true" inkscape:snap-global="false" inkscape:window-width="1289" inkscape:window-height="686" inkscape:window-x="0" inkscape:window-y="0" inkscape:window-maximized="0">
    <sodipodi:guide orientation="0,1" position="-225.71429,968.57143" id="guide3755"/>
    <sodipodi:guide orientation="0,1" position="-317.14286,248.57143" id="guide3757"/>
    <sodipodi:guide orientation="1,0" position="734.28571,125.71429" id="guide3759"/>
    <sodipodi:guide orientation="1,0" position="14.285714,77.142857" id="guide3761"/>
    <sodipodi:guide orientation="1,0" position="374.28571,-62.857143" id="guide3763"/>
    <sodipodi:guide orientation="0,1" position="914.28571,622.85714" id="guide3765"/>
    <sodipodi:guide orientation="0.70710678,0.70710678" position="381.83766,616.19305" id="guide3851"/>
  </sodipodi:namedview>
  <metadata id="metadata7">
    <rdf:RDF>
      <cc:Work rdf:about="">
        <dc:format>image/svg+xml</dc:format>
        <dc:type rdf:resource="http://purl.org/dc/dcmitype/StillImage"/>
        <dc:title>software</dc:title>
        <dc:date>Jun 2014</dc:date>
        <dc:creator>
          <cc:Agent>
            <dc:title>Franziska Sponsel</dc:title>
          </cc:Agent>
        </dc:creator>
        <dc:rights>
          <cc:Agent>
            <dc:title>Franziska Sponsel</dc:title>
          </cc:Agent>
        </dc:rights>
        <dc:publisher>
          <cc:Agent>
            <dc:title>RRZE</dc:title>
          </cc:Agent>
        </dc:publisher>
        <dc:subject>
          <rdf:Bag>
            <rdf:li>software</rdf:li>
            <rdf:li>cd</rdf:li>
            <rdf:li>dvd</rdf:li>
            <rdf:li>programm</rdf:li>
            <rdf:li>application</rdf:li>
          </rdf:Bag>
        </dc:subject>
        <dc:contributor>
          <cc:Agent>
            <dc:title>Pavithra Balasubramanian</dc:title>
          </cc:Agent>
        </dc:contributor>
        <cc:license rdf:resource="http://creativecommons.org/licenses/by-sa/3.0/"/>
      </cc:Work>
      <cc:License rdf:about="http://creativecommons.org/licenses/by-sa/3.0/">
        <cc:permits rdf:resource="http://creativecommons.org/ns#Reproduction"/>
        <cc:permits rdf:resource="http://creativecommons.org/ns#Distribution"/>
        <cc:requires rdf:resource="http://creativecommons.org/ns#Notice"/>
        <cc:requires rdf:resource="http://creativecommons.org/ns#Attribution"/>
        <cc:permits rdf:resource="http://creativecommons.org/ns#DerivativeWorks"/>
        <cc:requires rdf:resource="http://creativecommons.org/ns#ShareAlike"/>
      </cc:License>
    </rdf:RDF>
  </metadata>
  <g inkscape:label="Ebene 1" inkscape:groupmode="layer" id="layer1">
    <g id="g3936">
      <path transform="matrix(1.1458823,0,0,1,-61.825209,-9.9999987)" d="m 684.28574,762.36218 a 303.57144,31.428572 0 1 1 -607.142887,0 303.57144,31.428572 0 1 1 607.142887,0 z" sodipodi:ry="31.428572" sodipodi:rx="303.57144" sodipodi:cy="762.36218" sodipodi:cx="380.71429" id="path3879" style="opacity:0.6006289;fill:url(#radialGradient3919);fill-opacity:1;stroke:none" sodipodi:type="arc"/>
      <path id="rect2985" d="m 13.972743,84.103729 719.999997,0 0,720.000001 -719.999997,0 z" style="opacity:0.35220127;fill:none;stroke:none" inkscape:connector-curvature="0"/>
      <path inkscape:connector-curvature="0" id="path3767" d="m 370.15625,111.65625 c -173.96945,2.2036 -314.3125,143.91396 -314.3125,318.40625 0,175.86625 142.57125,318.4375 318.4375,318.4375 175.86625,0 318.4375,-142.57125 318.4375,-318.4375 0,-175.86625 -142.57125,-318.40625 -318.4375,-318.40625 -1.37396,0 -2.75516,-0.0173 -4.125,0 z m 4.125,222.15625 c 53.15983,0 96.25,43.09017 96.25,96.25 0,53.15983 -43.09017,96.28125 -96.25,96.28125 -53.15983,0 -96.25,-43.12142 -96.25,-96.28125 0,-53.15983 43.09017,-96.25 96.25,-96.25 z" style="fill:#729fcf;stroke:#555753;stroke-width:42;stroke-miterlimit:4;stroke-dasharray:none"/>
      <path id="path3797" d="m 649.06684,428.79074 c 0,151.36294 -122.70391,274.06684 -274.06684,274.06684 -151.36293,0 -274.06684,-122.7039 -274.06684,-274.06684 0,-151.36293 122.70391,-274.06684 274.06684,-274.06684 151.36293,0 274.06684,122.70391 274.06684,274.06684 z" style="opacity:0.60377359;fill:none;stroke:url(#linearGradient3931);stroke-width:78.76407623;stroke-miterlimit:4;stroke-opacity:1" inkscape:connector-curvature="0"/>
      <path sodipodi:type="arc" style="opacity:0.85849059;fill:none;stroke:#888a85;stroke-width:30.92301178;stroke-linecap:round;stroke-linejoin:round;stroke-miterlimit:4;stroke-opacity:1;stroke-dasharray:none" id="path3839" sodipodi:cx="372.24121" sodipodi:cy="440.71481" sodipodi:rx="131.82491" sodipodi:ry="131.82491" d="m 504.06612,440.71481 a 131.82491,131.82491 0 1 1 -263.64981,0 131.82491,131.82491 0 1 1 263.64981,0 z" transform="matrix(0.87313617,0,0,0.87313617,50.254402,44.79909)"/>
      <path transform="matrix(1.0704799,0,0,1.0704799,-23.205067,-42.173214)" d="m 504.06612,440.71481 a 131.82491,131.82491 0 1 1 -263.64981,0 131.82491,131.82491 0 1 1 263.64981,0 z" sodipodi:ry="131.82491" sodipodi:rx="131.82491" sodipodi:cy="440.71481" sodipodi:cx="372.24121" id="path3837" style="opacity:0.60377359;fill:none;stroke:#ffffff;stroke-width:23;stroke-linecap:round;stroke-linejoin:round;stroke-miterlimit:4;stroke-opacity:1;stroke-dasharray:none" sodipodi:type="arc"/>
      <path id="path3843" d="m 679.65609,428.79074 c 0,168.25692 -136.39919,304.65609 -304.65609,304.65609 -168.25691,0 -304.656088,-136.39917 -304.656088,-304.65609 0,-168.2569 136.399178,-304.65609 304.656088,-304.65609 168.2569,0 304.65609,136.39919 304.65609,304.65609 z" style="opacity:0.30503145;fill:none;stroke:#888a85;stroke-width:14.45096016;stroke-miterlimit:4;stroke-opacity:1;stroke-dasharray:none" inkscape:connector-curvature="0"/>
      <path sodipodi:nodetypes="csssscsssss" style="opacity:0.6006289;fill:url(#linearGradient3922);fill-opacity:1;stroke:none" d="m 370.24878,118.79893 c -170.067,2.15417 -307.261909,140.68572 -307.261909,311.26383 0,171.92126 139.373119,311.29438 311.294379,311.29438 171.92126,0 311.29438,-139.37312 311.29438,-311.29438 0,-171.92125 -139.37312,-311.26383 -311.29438,-311.26383 -1.34314,0 -2.69336,-0.0169 -4.03247,0 z m 4.03247,157.17289 c 105.53879,0 154.80523,89.98072 154.80523,154.09094 0,104.11022 -92.12358,153.4072 -154.80523,153.4072 -58.39593,0 -152.66237,-48.5827 -152.66237,-153.4072 0,-68.39593 55.69501,-154.09094 152.66237,-154.09094 z" id="path3867" inkscape:connector-curvature="0"/>
    </g>
  </g>
</svg>
