<?xml version="1.0" encoding="UTF-8" standalone="no"?>
<!-- Created with Inkscape (http://www.inkscape.org/) -->

<svg
   xmlns:dc="http://purl.org/dc/elements/1.1/"
   xmlns:cc="http://creativecommons.org/ns#"
   xmlns:rdf="http://www.w3.org/1999/02/22-rdf-syntax-ns#"
   xmlns:svg="http://www.w3.org/2000/svg"
   xmlns="http://www.w3.org/2000/svg"
   xmlns:xlink="http://www.w3.org/1999/xlink"
   xmlns:sodipodi="http://sodipodi.sourceforge.net/DTD/sodipodi-0.dtd"
   xmlns:inkscape="http://www.inkscape.org/namespaces/inkscape"
   width="210mm"
   height="297mm"
   viewBox="0 0 744.09448819 1052.3622047"
   id="svg2"
   version="1.1"
   inkscape:version="0.91 r13725"
   inkscape:export-xdpi="4.9499998"
   inkscape:export-ydpi="4.9499998"
   sodipodi:docname="data-transfer.svg"
   inkscape:export-filename="C:\Users\johannes\Documents\Arbeit\RRZE\github3\bicons\22x22\actions\data-transfer.png">
  <defs
     id="defs4">
    <linearGradient
       id="linearGradient2224">
      <stop
         id="stop2226"
         offset="0"
         style="stop-color:#7c7c7c;stop-opacity:1;" />
      <stop
         id="stop2228"
         offset="1"
         style="stop-color:#b8b8b8;stop-opacity:1;" />
    </linearGradient>
    <linearGradient
       id="linearGradient15218">
      <stop
         id="stop15220"
         offset="0"
         style="stop-color:#eeeeef;stop-opacity:1;" />
      <stop
         id="stop2736"
         offset="0.59928656"
         style="stop-color:#d3d7cf;stop-opacity:1;" />
      <stop
         id="stop2738"
         offset="0.82758623"
         style="stop-color:#ffffff;stop-opacity:1;" />
      <stop
         id="stop15222"
         offset="1"
         style="stop-color:#d3d7cf;stop-opacity:1;" />
    </linearGradient>
    <pattern
       y="0"
       x="0"
       height="6"
       width="6"
       patternUnits="userSpaceOnUse"
       id="EMFhbasepattern" />
    <pattern
       y="0"
       x="0"
       height="6"
       width="6"
       patternUnits="userSpaceOnUse"
       id="EMFhbasepattern-5" />
    <linearGradient
       inkscape:collect="always"
       xlink:href="#linearGradient4167"
       id="linearGradient4203-7"
       x1="249.23784"
       y1="681.41742"
       x2="511.04788"
       y2="441.42242"
       gradientUnits="userSpaceOnUse"
       gradientTransform="matrix(0.95413401,0,0,0.95413401,13.525376,21.431089)" />
    <linearGradient
       inkscape:collect="always"
       id="linearGradient4167">
      <stop
         style="stop-color:#4e505d;stop-opacity:1;"
         offset="0"
         id="stop4169" />
      <stop
         style="stop-color:#7a8597;stop-opacity:1"
         offset="1"
         id="stop4171" />
    </linearGradient>
  </defs>
  <sodipodi:namedview
     id="base"
     pagecolor="#ffffff"
     bordercolor="#666666"
     borderopacity="1.0"
     inkscape:pageopacity="0.0"
     inkscape:pageshadow="2"
     inkscape:zoom="0.7071068"
     inkscape:cx="385.0286"
     inkscape:cy="590.88801"
     inkscape:document-units="px"
     inkscape:current-layer="layer1"
     showgrid="false"
     showguides="true"
     inkscape:guide-bbox="true"
     inkscape:window-width="1366"
     inkscape:window-height="721"
     inkscape:window-x="-4"
     inkscape:window-y="-4"
     inkscape:window-maximized="1">
    <sodipodi:guide
       position="315.53572,730.17859"
       orientation="0,1"
       id="guide3338" />
    <sodipodi:guide
       position="351.25,330.17858"
       orientation="0,1"
       id="guide3340" />
    <sodipodi:guide
       position="189.10714,408.8393"
       orientation="1,0"
       id="guide3344" />
    <sodipodi:guide
       position="589.04521,540.22959"
       orientation="1,0"
       id="guide3346" />
    <inkscape:grid
       type="xygrid"
       id="grid3440" />
    <sodipodi:guide
       position="0,0"
       orientation="0,1"
       id="guide3405" />
    <sodipodi:guide
       position="0,0"
       orientation="0,1"
       id="guide3409" />
    <sodipodi:guide
       position="589.04521,378.30213"
       orientation="1,0"
       id="guide3411" />
    <sodipodi:guide
       position="0,0"
       orientation="0,1"
       id="guide4168" />
  </sodipodi:namedview>
  <metadata
     id="metadata7">
    <rdf:RDF>
      <cc:Work
         rdf:about="">
        <dc:format>image/svg+xml</dc:format>
        <dc:type
           rdf:resource="http://purl.org/dc/dcmitype/StillImage" />
        <dc:title>data transfer</dc:title>
        <dc:date>June 2015</dc:date>
        <dc:creator>
          <cc:Agent>
            <dc:title>Johannes Hechler</dc:title>
          </cc:Agent>
        </dc:creator>
        <dc:rights>
          <cc:Agent>
            <dc:title>Johannes Hechler</dc:title>
          </cc:Agent>
        </dc:rights>
        <dc:publisher>
          <cc:Agent>
            <dc:title>RRZE</dc:title>
          </cc:Agent>
        </dc:publisher>
        <dc:contributor>
          <cc:Agent>
            <dc:title>Ute Weber, Hendrik Eggers</dc:title>
          </cc:Agent>
        </dc:contributor>
      </cc:Work>
    </rdf:RDF>
  </metadata>
  <g
     inkscape:label="Ebene 1"
     inkscape:groupmode="layer"
     id="layer1">
    <g
       transform="translate(346.74241,-287.76692)"
       id="g4245">
      <g
         id="g4196"
         transform="translate(-340.33038,247.06187)">
        <path
           style="opacity:1;fill:url(#linearGradient4203-7);fill-opacity:1;stroke:none;stroke-width:0;stroke-linecap:square;stroke-linejoin:round;stroke-miterlimit:4;stroke-dasharray:none;stroke-opacity:1"
           d="m 216.70222,435.24905 c -8.09218,0 -14.62177,6.77135 -14.62177,14.86757 0,75.99346 0,123.98693 0,199.98039 0,12.14424 9.77199,21.92113 21.91028,21.92113 l 321.35072,0 c 12.13826,0 21.91026,-9.77689 21.91026,-21.92113 l 0,-193.98366 c 0,-12.14432 -9.772,-21.92119 -21.91026,-21.92119 z"
           id="rect4182-7"
           inkscape:connector-curvature="0"
           sodipodi:nodetypes="cccsssscc" />
        <path
           style="fill:#99b000;fill-rule:evenodd;stroke:none;stroke-width:1px;stroke-linecap:butt;stroke-linejoin:miter;stroke-opacity:1"
           d="m 202.79619,417.34627 163.76572,0 c 0,0 -12.07209,-36.81486 -30.07209,-36.81486 l -121.43191,0 -12.26172,12 z"
           id="path4219"
           inkscape:connector-curvature="0"
           sodipodi:nodetypes="ccsccc" />
      </g>
      <flowRoot
         transform="translate(-345.21295,287.1775)"
         style="font-style:normal;font-weight:normal;font-size:40px;line-height:125%;font-family:sans-serif;letter-spacing:0px;word-spacing:0px;fill:#252525;fill-opacity:1;stroke:none;stroke-width:1px;stroke-linecap:butt;stroke-linejoin:miter;stroke-opacity:1"
         id="flowRoot4169"
         xml:space="preserve"><flowRegion
           id="flowRegion4171"><rect
             y="427.07962"
             x="89.541069"
             height="88.78862"
             width="56.433445"
             id="rect4173" /></flowRegion><flowPara
           id="flowPara4175" /></flowRoot>      <rect
         inkscape:export-ydpi="4.9499998"
         inkscape:export-xdpi="4.9499998"
         y="609.44757"
         x="-156.06812"
         height="400"
         width="400"
         id="rect3336"
         style="fill:none;fill-rule:evenodd;stroke:none;stroke-width:1px;stroke-linecap:butt;stroke-linejoin:miter;stroke-opacity:1" />
      <g
         transform="translate(0,8.4852814)"
         id="g4239">
        <path
           style="fill:none;fill-opacity:1;fill-rule:evenodd;stroke:#ffffff;stroke-width:40;stroke-linecap:butt;stroke-linejoin:round;stroke-miterlimit:4;stroke-dasharray:none;stroke-opacity:1"
           d="m 154.70975,986.0381 c -1.18967,0 -2.37932,-0.796 -3.96552,-2.3881 L 95.22682,918.3754 c -3.17242,-3.1842 -1.58621,-7.9603 4.75863,-7.9603 l 19.03454,0 0,-55.7223 c 0,-4.41001 3.53726,-7.96031 7.93106,-7.96031 l 55.5174,0 c 4.3938,0 7.93106,3.5503 7.93106,7.96031 l 0,55.7223 19.03454,0 c 6.34484,0 6.34484,6.3682 4.75863,7.9603 l -55.5174,65.2746 c -1.58622,1.5921 -2.77588,2.3881 -3.96553,2.3881 z"
           id="path4237-2"
           inkscape:connector-curvature="0" />
        <path
           style="fill:none;fill-opacity:1;fill-rule:evenodd;stroke:#ffffff;stroke-width:40;stroke-linecap:butt;stroke-linejoin:round;stroke-miterlimit:4;stroke-dasharray:none;stroke-opacity:1"
           d="m 65.25717,755.42763 c -1.18967,0 -2.37933,0.79603 -3.96554,2.3881 l -55.5174,65.27462 c -3.17242,3.18413 -1.58621,7.96032 4.75863,7.96032 l 19.03454,0 0,55.72225 c 0,4.41002 3.53727,7.96031 7.93106,7.96031 l 55.51741,0 c 4.39379,0 7.93105,-3.55029 7.93105,-7.96031 l 0,-55.72225 19.03455,0 c 6.34483,0 6.34483,-6.36825 4.75862,-7.96032 l -55.5174,-65.27462 c -1.58621,-1.59207 -2.77587,-2.3881 -3.96552,-2.3881 z"
           id="path4237-7-9"
           inkscape:connector-curvature="0" />
        <path
           style="fill:#99b000;fill-opacity:1;fill-rule:evenodd;stroke:none;stroke-width:1px;stroke-linecap:butt;stroke-linejoin:miter;stroke-opacity:1"
           d="m 153.56118,985.5409 c -1.18967,0 -2.37933,-0.7961 -3.96554,-2.3881 l -55.5174,-65.2747 c -3.17242,-3.1841 -1.58621,-7.9603 4.75863,-7.9603 l 19.03454,0 0,-55.72222 c 0,-4.41002 3.53727,-7.96032 7.93106,-7.96032 l 55.51741,0 c 4.39379,0 7.93105,3.5503 7.93105,7.96032 l 0,55.72222 19.03455,0 c 6.34483,0 6.34483,6.3683 4.75862,7.9603 l -55.5174,65.2747 c -1.58621,1.592 -2.77587,2.3881 -3.96552,2.3881 z"
           id="path4237"
           inkscape:connector-curvature="0" />
        <path
           style="fill:#99b000;fill-opacity:1;fill-rule:evenodd;stroke:none;stroke-width:1px;stroke-linecap:butt;stroke-linejoin:miter;stroke-opacity:1"
           d="m 64.10859,754.9304 c -1.18967,0 -2.37933,0.79604 -3.96554,2.3881 l -55.5174,65.27462 c -3.17242,3.18413 -1.58621,7.96033 4.75863,7.96033 l 19.03454,0 0,55.72224 c 0,4.41002 3.53727,7.96032 7.93106,7.96032 l 55.51741,0 c 4.39379,0 7.93105,-3.5503 7.93105,-7.96032 l 0,-55.72224 19.03455,0 c 6.34484,0 6.34484,-6.36826 4.75863,-7.96033 L 68.07412,757.3185 c -1.58622,-1.59206 -2.77588,-2.3881 -3.96553,-2.3881 z"
           id="path4237-7"
           inkscape:connector-curvature="0" />
      </g>
    </g>
  </g>
</svg>
