<?xml version="1.0" encoding="UTF-8" standalone="no"?>
<!-- Created with Inkscape (http://www.inkscape.org/) -->

<svg
   xmlns:dc="http://purl.org/dc/elements/1.1/"
   xmlns:cc="http://creativecommons.org/ns#"
   xmlns:rdf="http://www.w3.org/1999/02/22-rdf-syntax-ns#"
   xmlns:svg="http://www.w3.org/2000/svg"
   xmlns="http://www.w3.org/2000/svg"
   xmlns:xlink="http://www.w3.org/1999/xlink"
   xmlns:sodipodi="http://sodipodi.sourceforge.net/DTD/sodipodi-0.dtd"
   xmlns:inkscape="http://www.inkscape.org/namespaces/inkscape"
   width="210mm"
   height="297mm"
   viewBox="0 0 744.09448819 1052.3622047"
   id="svg2"
   version="1.1"
   inkscape:version="0.91 r13725"
   inkscape:export-xdpi="4.9499817"
   inkscape:export-ydpi="4.9499817"
   sodipodi:docname="delete-all-participants.svg"
   inkscape:export-filename="C:\Users\johannes\Documents\Arbeit\RRZE\github3\bicons\22x22\actions\delete-all-participants.png">
  <defs
     id="defs4">
    <linearGradient
       inkscape:collect="always"
       id="linearGradient4254">
      <stop
         style="stop-color:#7a8597;stop-opacity:1"
         offset="0"
         id="stop4256" />
      <stop
         style="stop-color:#4e505d;stop-opacity:1"
         offset="1"
         id="stop4258" />
    </linearGradient>
    <linearGradient
       id="linearGradient2224">
      <stop
         id="stop2226"
         offset="0"
         style="stop-color:#7c7c7c;stop-opacity:1;" />
      <stop
         id="stop2228"
         offset="1"
         style="stop-color:#b8b8b8;stop-opacity:1;" />
    </linearGradient>
    <linearGradient
       id="linearGradient15218">
      <stop
         id="stop15220"
         offset="0"
         style="stop-color:#eeeeef;stop-opacity:1;" />
      <stop
         id="stop2736"
         offset="0.59928656"
         style="stop-color:#d3d7cf;stop-opacity:1;" />
      <stop
         id="stop2738"
         offset="0.82758623"
         style="stop-color:#ffffff;stop-opacity:1;" />
      <stop
         id="stop15222"
         offset="1"
         style="stop-color:#d3d7cf;stop-opacity:1;" />
    </linearGradient>
    <pattern
       y="0"
       x="0"
       height="6"
       width="6"
       patternUnits="userSpaceOnUse"
       id="EMFhbasepattern" />
    <pattern
       y="0"
       x="0"
       height="6"
       width="6"
       patternUnits="userSpaceOnUse"
       id="EMFhbasepattern-5" />
    <linearGradient
       inkscape:collect="always"
       xlink:href="#linearGradient4254"
       id="linearGradient4252"
       x1="380.01031"
       y1="330.40619"
       x2="414.6156"
       y2="457.18103"
       gradientUnits="userSpaceOnUse"
       gradientTransform="translate(0.37005758,-0.39466108)" />
    <linearGradient
       inkscape:collect="always"
       xlink:href="#linearGradient4254"
       id="linearGradient4275"
       x1="380.01031"
       y1="330.40619"
       x2="414.6156"
       y2="457.18103"
       gradientUnits="userSpaceOnUse"
       gradientTransform="translate(0.37005758,-0.39466108)" />
    <linearGradient
       inkscape:collect="always"
       xlink:href="#linearGradient4254"
       id="linearGradient4320"
       x1="380.01031"
       y1="330.40619"
       x2="414.6156"
       y2="457.18103"
       gradientUnits="userSpaceOnUse"
       gradientTransform="translate(0.37005758,-0.39466108)" />
    <linearGradient
       inkscape:collect="always"
       xlink:href="#linearGradient4254"
       id="linearGradient4442"
       gradientUnits="userSpaceOnUse"
       gradientTransform="translate(0.37005758,-0.39466108)"
       x1="380.01031"
       y1="330.40619"
       x2="414.6156"
       y2="457.18103" />
    <linearGradient
       inkscape:collect="always"
       xlink:href="#linearGradient4254"
       id="linearGradient4445"
       x1="380.01031"
       y1="330.40619"
       x2="414.6156"
       y2="457.18103"
       gradientUnits="userSpaceOnUse"
       gradientTransform="translate(0.37005758,-0.39466108)" />
    <linearGradient
       inkscape:collect="always"
       xlink:href="#linearGradient4254"
       id="linearGradient4526"
       gradientUnits="userSpaceOnUse"
       gradientTransform="translate(0.37005758,-0.39466108)"
       x1="380.01031"
       y1="330.40619"
       x2="414.6156"
       y2="457.18103" />
    <linearGradient
       inkscape:collect="always"
       xlink:href="#linearGradient4254"
       id="linearGradient4529"
       gradientUnits="userSpaceOnUse"
       gradientTransform="translate(0.37005758,-0.39466108)"
       x1="380.01031"
       y1="330.40619"
       x2="414.6156"
       y2="457.18103" />
    <linearGradient
       gradientTransform="translate(0.063892,-0.03919)"
       inkscape:collect="always"
       xlink:href="#linearGradient4254"
       id="linearGradient4212"
       x1="544.42413"
       y1="431.26184"
       x2="479.92413"
       y2="557.0022"
       gradientUnits="userSpaceOnUse" />
    <linearGradient
       gradientTransform="translate(0.063892,-0.03919)"
       inkscape:collect="always"
       xlink:href="#linearGradient4254"
       id="linearGradient4204-1"
       x1="521.00494"
       y1="340.05643"
       x2="491.77841"
       y2="396.00424"
       gradientUnits="userSpaceOnUse" />
    <linearGradient
       gradientTransform="translate(0.063892,-0.03919)"
       inkscape:collect="always"
       xlink:href="#linearGradient4254"
       id="linearGradient4220"
       x1="425.4241"
       y1="506.26181"
       x2="382.8454"
       y2="649.50232"
       gradientUnits="userSpaceOnUse" />
    <linearGradient
       gradientTransform="translate(0.063892,-0.03919)"
       inkscape:collect="always"
       xlink:href="#linearGradient4254"
       id="linearGradient4196"
       x1="303.58328"
       y1="467.66281"
       x2="276.48325"
       y2="558.56281"
       gradientUnits="userSpaceOnUse" />
    <linearGradient
       gradientTransform="translate(-9e-6,-0.0392096)"
       inkscape:collect="always"
       xlink:href="#linearGradient4254"
       id="linearGradient4188"
       x1="300.22327"
       y1="576.74146"
       x2="250.84326"
       y2="722.22284"
       gradientUnits="userSpaceOnUse" />
    <linearGradient
       inkscape:collect="always"
       xlink:href="#linearGradient4254"
       id="linearGradient6494"
       gradientUnits="userSpaceOnUse"
       gradientTransform="matrix(1.0238944,0,0,1,-230.32157,145.43994)"
       x1="521.00494"
       y1="340.05643"
       x2="491.77841"
       y2="396.00424" />
    <linearGradient
       inkscape:collect="always"
       xlink:href="#linearGradient4254"
       id="linearGradient4296"
       gradientUnits="userSpaceOnUse"
       gradientTransform="translate(0.063892,-0.03919)"
       x1="443.56277"
       y1="394.94357"
       x2="382.8454"
       y2="485.84198" />
  </defs>
  <sodipodi:namedview
     id="base"
     pagecolor="#ffffff"
     bordercolor="#666666"
     borderopacity="1.0"
     inkscape:pageopacity="0.0"
     inkscape:pageshadow="2"
     inkscape:zoom="0.5"
     inkscape:cx="-96.385815"
     inkscape:cy="417.43479"
     inkscape:document-units="px"
     inkscape:current-layer="layer1"
     showgrid="false"
     showguides="true"
     inkscape:guide-bbox="true"
     inkscape:window-width="1366"
     inkscape:window-height="721"
     inkscape:window-x="-4"
     inkscape:window-y="-4"
     inkscape:window-maximized="1"
     inkscape:snap-bbox="true"
     inkscape:bbox-paths="true"
     inkscape:bbox-nodes="true">
    <sodipodi:guide
       position="315.53572,730.17859"
       orientation="0,1"
       id="guide3338" />
    <sodipodi:guide
       position="351.25,330.17858"
       orientation="0,1"
       id="guide3340" />
    <sodipodi:guide
       position="189.10714,408.8393"
       orientation="1,0"
       id="guide3344" />
    <sodipodi:guide
       position="589.04521,468.07945"
       orientation="1,0"
       id="guide3346" />
    <inkscape:grid
       type="xygrid"
       id="grid3440" />
    <sodipodi:guide
       position="0,0"
       orientation="0,1"
       id="guide3405" />
    <sodipodi:guide
       position="214.125,684.50002"
       orientation="1,0"
       id="guide3407" />
    <sodipodi:guide
       position="0,0"
       orientation="0,1"
       id="guide3409" />
    <sodipodi:guide
       position="589.04521,378.30213"
       orientation="1,0"
       id="guide3411" />
    <sodipodi:guide
       position="564.00001,683.37502"
       orientation="1,0"
       id="guide3413" />
    <sodipodi:guide
       position="0,0"
       orientation="0,1"
       id="guide4168" />
  </sodipodi:namedview>
  <metadata
     id="metadata7">
    <rdf:RDF>
      <cc:Work
         rdf:about="">
        <dc:format>image/svg+xml</dc:format>
        <dc:type
           rdf:resource="http://purl.org/dc/dcmitype/StillImage" />
        <dc:title>delete all participants</dc:title>
        <dc:date>June 2015</dc:date>
        <dc:creator>
          <cc:Agent>
            <dc:title>Johannes Hechler</dc:title>
          </cc:Agent>
        </dc:creator>
        <dc:rights>
          <cc:Agent>
            <dc:title>Johannes Hechler</dc:title>
          </cc:Agent>
        </dc:rights>
        <dc:publisher>
          <cc:Agent>
            <dc:title>RRZE</dc:title>
          </cc:Agent>
        </dc:publisher>
        <dc:contributor>
          <cc:Agent>
            <dc:title>Ute Weber, Hendrik Eggers</dc:title>
          </cc:Agent>
        </dc:contributor>
      </cc:Work>
    </rdf:RDF>
  </metadata>
  <g
     inkscape:label="Ebene 1"
     inkscape:groupmode="layer"
     id="layer1">
    <g
       id="g4308">
      <flowRoot
         style="font-style:normal;font-weight:normal;font-size:40px;line-height:125%;font-family:sans-serif;letter-spacing:0px;word-spacing:0px;fill:#252525;fill-opacity:1;stroke:none;stroke-width:1px;stroke-linecap:butt;stroke-linejoin:miter;stroke-opacity:1"
         id="flowRoot4169"
         xml:space="preserve"><flowRegion
           id="flowRegion4171"><rect
             y="427.07962"
             x="89.541069"
             height="88.78862"
             width="56.433445"
             id="rect4173" /></flowRegion><flowPara
           id="flowPara4175" /></flowRoot>      <flowRoot
         style="font-style:normal;font-weight:normal;font-size:40px;line-height:125%;font-family:sans-serif;letter-spacing:0px;word-spacing:0px;fill:#252525;fill-opacity:1;stroke:none;stroke-width:1px;stroke-linecap:butt;stroke-linejoin:miter;stroke-opacity:1"
         id="flowRoot4169-4"
         xml:space="preserve"
         transform="translate(552.67209,-488.02323)"><flowRegion
           id="flowRegion4171-1"><rect
             y="427.07962"
             x="89.541069"
             height="88.78862"
             width="56.433445"
             id="rect4173-8" /></flowRegion><flowPara
           id="flowPara4175-0" /></flowRoot>      <flowRoot
         style="font-style:normal;font-weight:normal;font-size:40px;line-height:125%;font-family:sans-serif;letter-spacing:0px;word-spacing:0px;fill:#252525;fill-opacity:1;stroke:none;stroke-width:1px;stroke-linecap:butt;stroke-linejoin:miter;stroke-opacity:1"
         id="flowRoot4169-9"
         xml:space="preserve"
         transform="translate(1113.8788,-429.99965)"><flowRegion
           id="flowRegion4171-9"><rect
             y="427.07962"
             x="89.541069"
             height="88.78862"
             width="56.433445"
             id="rect4173-6" /></flowRegion><flowPara
           id="flowPara4175-7" /></flowRoot>      <path
         id="path4695"
         d="M 481.31055 431.22266 L 481.31055 431.22852 C 481.22825 431.29682 481.15331 431.37126 481.06836 431.4375 L 476.48242 433.76562 C 471.17415 436.71337 466.15064 440.41245 461.4668 444.74414 C 460.17315 463.24242 450.78702 479.61834 436.88672 490.41602 C 462.37482 504.12396 481.1628 529.61674 490.76953 560.78711 L 496.39844 566.41797 L 534.9082 527.90039 C 547.67801 515.12491 569.0349 515.1367 581.79883 527.90234 L 589.07812 535.18359 C 588.44828 487.09151 565.55022 446.41647 533.8457 431.58008 L 481.31055 431.22266 z M 433.87695 554.80273 L 427.4082 561.27148 C 427.67842 562.94799 427.96653 564.61612 428.29102 566.26367 C 430.99695 571.93817 437.79504 576.09742 445.94141 576.64062 L 445.94141 576.70312 L 455.77539 576.70312 L 433.87695 554.80273 z M 558.35352 555.36914 L 537.02148 576.70312 L 560.15234 576.70312 L 569.91797 566.93555 L 558.35352 555.36914 z "
         style="fill:url(#linearGradient4212);fill-opacity:1;stroke:none;stroke-width:41.15159225;stroke-linecap:round;stroke-linejoin:round;stroke-opacity:1" />
      <ellipse
         style="color:#000000;clip-rule:nonzero;display:inline;overflow:visible;visibility:visible;opacity:1;isolation:auto;mix-blend-mode:normal;color-interpolation:sRGB;color-interpolation-filters:linearRGB;solid-color:#000000;solid-opacity:1;fill:url(#linearGradient4204-1);fill-opacity:1;fill-rule:nonzero;stroke:none;stroke-width:36;stroke-linecap:butt;stroke-linejoin:round;stroke-miterlimit:4;stroke-dasharray:none;stroke-dashoffset:0;stroke-opacity:1;color-rendering:auto;image-rendering:auto;shape-rendering:auto;text-rendering:auto;enable-background:accumulate"
         id="ellipse4697"
         cx="507.29861"
         cy="367.59439"
         rx="44.389339"
         ry="45.449986" />
      <path
         id="path4701"
         d="M 398.17773 394.9043 A 45.450001 45.449986 0 0 0 352.72656 440.35352 A 45.450001 45.449986 0 0 0 398.17773 485.80273 A 45.450001 45.449986 0 0 0 443.62695 440.35352 A 45.450001 45.449986 0 0 0 398.17773 394.9043 z M 372.18945 503.98242 L 372.18945 503.98828 C 372.10715 504.05658 372.03222 504.12907 371.94727 504.19531 L 367.36133 506.52539 C 362.06842 509.4646 357.059 513.15138 352.38672 517.4668 C 351.09907 535.93447 341.77064 552.31303 327.91406 563.11133 C 357.5963 579.10835 378.16984 611.12631 385.7168 649.46289 L 413.36328 649.46289 L 433.73242 629.08984 L 395.49219 590.84375 C 382.26099 577.61074 382.26083 555.50844 395.49219 542.27539 L 409.5918 528.17578 C 416.20745 521.55929 425.04261 518.24999 433.87695 518.25 C 438.58276 518.25001 443.28412 519.19853 447.6543 521.07617 C 440.77925 513.93929 433.05981 508.24037 424.72461 504.33984 L 372.18945 503.98242 z M 433.87695 554.80273 L 422.12109 566.56055 L 471.91602 616.36328 A 18.0018 18.0018 0 0 1 471.91602 641.81641 L 465.50977 648.22461 C 471.13241 646.42239 475.50551 642.78207 477.33008 638.27344 C 479.06143 629.23404 479.98828 619.7507 479.98828 609.9707 C 479.98828 606.82545 479.89004 603.71221 479.70312 600.63281 L 433.87695 554.80273 z M 316.79297 598.72266 C 316.52121 602.42566 316.36719 606.17585 316.36719 609.97656 C 316.36719 620.02496 317.34565 629.76094 319.16992 639.02344 C 321.87584 644.69794 328.67395 648.85719 336.82031 649.40039 L 336.82031 649.46289 L 348.54102 649.46289 C 342.4098 626.86644 330.45532 608.83949 316.79297 598.72266 z "
         style="fill:url(#linearGradient4220);fill-opacity:1;stroke:none;stroke-width:41.15159225;stroke-linecap:round;stroke-linejoin:round;stroke-opacity:1" />
      <path
         cx="289.03326"
         cy="513.11279"
         rx="45.450001"
         ry="45.449986"
         id="path4687"
         style="color:#000000;clip-rule:nonzero;display:inline;overflow:visible;visibility:visible;opacity:1;isolation:auto;mix-blend-mode:normal;color-interpolation:sRGB;color-interpolation-filters:linearRGB;solid-color:#000000;solid-opacity:1;fill:url(#linearGradient4196);fill-opacity:1;fill-rule:nonzero;stroke:none;stroke-width:36;stroke-linecap:butt;stroke-linejoin:round;stroke-miterlimit:4;stroke-dasharray:none;stroke-dashoffset:0;stroke-opacity:1;color-rendering:auto;image-rendering:auto;shape-rendering:auto;text-rendering:auto;enable-background:accumulate"
         d=""
         inkscape:connector-curvature="0" />
      <rect
         y="322.18362"
         x="189.10713"
         height="400"
         width="400.00146"
         id="rect4729"
         style="color:#000000;clip-rule:nonzero;display:inline;overflow:visible;visibility:visible;opacity:1;isolation:auto;mix-blend-mode:normal;color-interpolation:sRGB;color-interpolation-filters:linearRGB;solid-color:#000000;solid-opacity:1;fill:none;fill-opacity:1;fill-rule:nonzero;stroke:none;stroke-width:36;stroke-linecap:butt;stroke-linejoin:round;stroke-miterlimit:4;stroke-dasharray:none;stroke-dashoffset:0;stroke-opacity:1;color-rendering:auto;image-rendering:auto;shape-rendering:auto;text-rendering:auto;enable-background:accumulate" />
      <g
         id="g4208"
         transform="translate(0.063902,1e-5)">
        <path
           style="fill:url(#linearGradient4188);fill-opacity:1;stroke:none;stroke-width:41.15159225;stroke-linecap:round;stroke-linejoin:round;stroke-opacity:1"
           d="m 263.04538,576.70792 c -0.0823,0.0683 -0.15733,0.14163 -0.24227,0.20787 l -4.58558,2.32892 c -29.90884,16.60872 -50.99428,56.6697 -50.99428,103.45241 0,10.0484 0.97773,19.7842 2.80198,29.0467 2.70593,5.6745 9.50466,9.8337 17.65103,10.3769 l 0,0.062 121.07823,0 0,-0.01 c 9.14349,-0.121 16.84441,-4.7849 19.43187,-11.1787 1.73135,-9.0394 2.65689,-18.5224 2.65689,-28.3024 0,-48.97681 -23.11165,-90.58615 -55.26228,-105.63129 l -52.53559,-0.358 z"
           id="path2176-1"
           inkscape:connector-curvature="0"
           sodipodi:nodetypes="cccsccccccsccc" />
        <ellipse
           style="color:#000000;clip-rule:nonzero;display:inline;overflow:visible;visibility:visible;opacity:1;isolation:auto;mix-blend-mode:normal;color-interpolation:sRGB;color-interpolation-filters:linearRGB;solid-color:#000000;solid-opacity:1;fill:url(#linearGradient6494);fill-opacity:1;fill-rule:nonzero;stroke:none;stroke-width:36;stroke-linecap:butt;stroke-linejoin:round;stroke-miterlimit:4;stroke-dasharray:none;stroke-dashoffset:0;stroke-opacity:1;color-rendering:auto;image-rendering:auto;shape-rendering:auto;text-rendering:auto;enable-background:accumulate"
           id="ellipse6492"
           cx="289.03326"
           cy="513.07355"
           rx="45.449997"
           ry="45.449986" />
      </g>
      <path
         sodipodi:nodetypes="scscs"
         style="fill:url(#linearGradient4296);fill-opacity:1;stroke:none;stroke-width:41.15159225;stroke-linecap:round;stroke-linejoin:round;stroke-opacity:1"
         d="m 398.17746,394.90437 c -25.1015,-6.5e-4 -45.45075,20.34773 -45.45117,45.44922 4.3e-4,25.10149 20.34967,45.44986 45.45117,45.44921 25.10073,-4.3e-4 45.44879,-20.34848 45.44922,-45.44921 -4.2e-4,-25.10073 -20.34848,-45.44879 -45.44922,-45.44922 z"
         id="path4294"
         inkscape:connector-curvature="0" />
      <path
         sodipodi:nodetypes="cccscsccsssscscsccsccc"
         inkscape:connector-curvature="0"
         id="rect4217"
         d="m 584.00308,702.60793 c 6.40264,-6.40353 6.39776,-16.71561 -0.003,-23.1191 l -50.58302,-50.58969 51.24195,-51.24874 c 5.9357,-5.93648 5.93086,-15.49629 -0.003,-21.43277 l -15.58612,-15.58878 c -5.93568,-5.93648 -15.49427,-5.94135 -21.42996,-0.003 l -51.24195,51.24874 -50.96575,-50.97253 c -6.40265,-6.40345 -16.70852,-6.40349 -23.1112,0 l -14.09929,14.10119 c -6.40267,6.40349 -6.40262,16.71075 0,23.11425 l 50.96576,50.97249 -51.30493,51.31172 c -5.9357,5.93647 -5.93081,15.49633 0.003,21.4328 l 15.58671,15.85424 c 5.88538,5.98638 15.49424,5.94131 21.42994,0.003 l 51.30492,-51.57717 50.78207,51.25331 c 6.37342,6.43258 16.71337,6.40836 23.11602,0.003 l 13.90027,-14.76478 z"
         style="opacity:1;fill:#d9463a;fill-opacity:1;stroke:none;stroke-width:0;stroke-linecap:square;stroke-linejoin:round;stroke-miterlimit:4;stroke-dasharray:none;stroke-opacity:1" />
    </g>
  </g>
</svg>
