<?xml version="1.0" encoding="UTF-8" standalone="no"?>
<!-- Created with Inkscape (http://www.inkscape.org/) -->

<svg
   xmlns:dc="http://purl.org/dc/elements/1.1/"
   xmlns:cc="http://creativecommons.org/ns#"
   xmlns:rdf="http://www.w3.org/1999/02/22-rdf-syntax-ns#"
   xmlns:svg="http://www.w3.org/2000/svg"
   xmlns="http://www.w3.org/2000/svg"
   xmlns:xlink="http://www.w3.org/1999/xlink"
   xmlns:sodipodi="http://sodipodi.sourceforge.net/DTD/sodipodi-0.dtd"
   xmlns:inkscape="http://www.inkscape.org/namespaces/inkscape"
   width="210mm"
   height="297mm"
   viewBox="0 0 744.09448819 1052.3622047"
   id="svg2"
   version="1.1"
   inkscape:version="0.91 r13725"
   inkscape:export-xdpi="4.9246435"
   inkscape:export-ydpi="4.9246435"
   sodipodi:docname="dial-in.svg"
   inkscape:export-filename="C:\Users\johannes\Documents\Arbeit\RRZE\github3\bicons\22x22\actions\dial-in.png">
  <defs
     id="defs4">
    <linearGradient
       id="linearGradient2224">
      <stop
         id="stop2226"
         offset="0"
         style="stop-color:#7c7c7c;stop-opacity:1;" />
      <stop
         id="stop2228"
         offset="1"
         style="stop-color:#b8b8b8;stop-opacity:1;" />
    </linearGradient>
    <linearGradient
       id="linearGradient15218">
      <stop
         id="stop15220"
         offset="0"
         style="stop-color:#eeeeef;stop-opacity:1;" />
      <stop
         id="stop2736"
         offset="0.59928656"
         style="stop-color:#d3d7cf;stop-opacity:1;" />
      <stop
         id="stop2738"
         offset="0.82758623"
         style="stop-color:#ffffff;stop-opacity:1;" />
      <stop
         id="stop15222"
         offset="1"
         style="stop-color:#d3d7cf;stop-opacity:1;" />
    </linearGradient>
    <pattern
       y="0"
       x="0"
       height="6"
       width="6"
       patternUnits="userSpaceOnUse"
       id="EMFhbasepattern" />
    <pattern
       y="0"
       x="0"
       height="6"
       width="6"
       patternUnits="userSpaceOnUse"
       id="EMFhbasepattern-5" />
    <linearGradient
       inkscape:collect="always"
       xlink:href="#linearGradient4310"
       id="linearGradient4316"
       x1="197.17188"
       y1="605.86133"
       x2="709.18164"
       y2="752.86133"
       gradientUnits="userSpaceOnUse"
       gradientTransform="matrix(0.90576913,0,0,0.90576913,38.13782,40.031233)" />
    <linearGradient
       inkscape:collect="always"
       id="linearGradient4310">
      <stop
         style="stop-color:#4e505d;stop-opacity:1;"
         offset="0"
         id="stop4312" />
      <stop
         style="stop-color:#7a8597;stop-opacity:1"
         offset="1"
         id="stop4314" />
    </linearGradient>
    <linearGradient
       inkscape:collect="always"
       xlink:href="#linearGradient4250"
       id="linearGradient4256-3"
       x1="360"
       y1="714.61218"
       x2="360"
       y2="372.36221"
       gradientUnits="userSpaceOnUse"
       gradientTransform="matrix(0.60326441,0,0,-0.60549022,79.73192,792.24993)" />
    <linearGradient
       inkscape:collect="always"
       id="linearGradient4250">
      <stop
         style="stop-color:#99b000;stop-opacity:1;"
         offset="0"
         id="stop4252" />
      <stop
         style="stop-color:#a9bc24;stop-opacity:1"
         offset="1"
         id="stop4254" />
    </linearGradient>
  </defs>
  <sodipodi:namedview
     id="base"
     pagecolor="#ffffff"
     bordercolor="#666666"
     borderopacity="1.0"
     inkscape:pageopacity="0.0"
     inkscape:pageshadow="2"
     inkscape:zoom="0.95459415"
     inkscape:cx="368.04022"
     inkscape:cy="497.73193"
     inkscape:document-units="px"
     inkscape:current-layer="layer1"
     showgrid="false"
     showguides="true"
     inkscape:guide-bbox="true"
     inkscape:window-width="1366"
     inkscape:window-height="721"
     inkscape:window-x="-4"
     inkscape:window-y="-4"
     inkscape:window-maximized="1">
    <sodipodi:guide
       position="315.53572,730.17859"
       orientation="0,1"
       id="guide3338" />
    <sodipodi:guide
       position="351.25,330.17858"
       orientation="0,1"
       id="guide3340" />
    <sodipodi:guide
       position="189.10714,408.8393"
       orientation="1,0"
       id="guide3344" />
    <sodipodi:guide
       position="589.04521,468.07945"
       orientation="1,0"
       id="guide3346" />
    <inkscape:grid
       type="xygrid"
       id="grid3440" />
    <sodipodi:guide
       position="589.04521,378.30213"
       orientation="1,0"
       id="guide3411" />
  </sodipodi:namedview>
  <metadata
     id="metadata7">
    <rdf:RDF>
      <cc:Work
         rdf:about="">
        <dc:format>image/svg+xml</dc:format>
        <dc:type
           rdf:resource="http://purl.org/dc/dcmitype/StillImage" />
        <dc:title>dial in</dc:title>
        <dc:creator>
          <cc:Agent>
            <dc:title>Johannes Hechler</dc:title>
          </cc:Agent>
        </dc:creator>
        <dc:rights>
          <cc:Agent>
            <dc:title>Johannes Hechler</dc:title>
          </cc:Agent>
        </dc:rights>
        <dc:publisher>
          <cc:Agent>
            <dc:title>RRZE</dc:title>
          </cc:Agent>
        </dc:publisher>
        <dc:date>June 2015</dc:date>
        <dc:contributor>
          <cc:Agent>
            <dc:title>Ute Weber, Hendrik Eggers</dc:title>
          </cc:Agent>
        </dc:contributor>
      </cc:Work>
    </rdf:RDF>
  </metadata>
  <g
     inkscape:label="Ebene 1"
     inkscape:groupmode="layer"
     id="layer1">
    <flowRoot
       transform="translate(1.63491,0.092143)"
       xml:space="preserve"
       id="flowRoot4169"
       style="font-style:normal;font-weight:normal;font-size:40px;line-height:125%;font-family:sans-serif;letter-spacing:0px;word-spacing:0px;fill:#252525;fill-opacity:1;stroke:none;stroke-width:1px;stroke-linecap:butt;stroke-linejoin:miter;stroke-opacity:1"><flowRegion
         id="flowRegion4171"><rect
           id="rect4173"
           width="56.433445"
           height="88.78862"
           x="89.541069"
           y="427.07962" /></flowRegion><flowPara
         id="flowPara4175" /></flowRoot>    <rect
       style="fill:none;fill-rule:evenodd;stroke:none;stroke-width:1px;stroke-linecap:butt;stroke-linejoin:miter;stroke-opacity:1"
       id="rect3336"
       width="400"
       height="400"
       x="190.77975"
       y="322.36221"
       inkscape:export-xdpi="4.9499998"
       inkscape:export-ydpi="4.9499998" />
    <g
       id="g4195"
       inkscape:transform-center-x="-1.240558"
       inkscape:transform-center-y="-81.875112"
       transform="matrix(0,1.5217486,-1.5217486,0,1273.9688,-280.58524)">
      <path
         sodipodi:nodetypes="ccccscscsccccccscscccc"
         style="fill:#99b000"
         d="m 427.39954,513.60079 c 0,17.66588 6.87432,34.28199 19.35748,46.78598 2.40989,2.41286 6.31967,2.41595 8.73371,0.006 2.41346,-2.40928 2.41594,-6.31949 0.006,-8.73233 -10.1548,-10.17147 -15.74719,-23.68799 -15.74719,-38.05918 0,-14.3712 5.5918,-27.88634 15.74719,-38.05779 1.20375,-1.20495 1.80584,-2.78469 1.80584,-4.36272 0,-1.58158 -0.60541,-3.16427 -1.81274,-4.37099 -2.41404,-2.40987 -6.32245,-2.40563 -8.73233,0.008 -12.48316,12.50278 -19.35748,29.11614 -19.35748,46.78322 z m 27.98188,1.33505 c 0,8.77431 3.4114,17.03036 9.60627,23.24664 2.4075,2.41643 6.31591,2.42079 8.73233,0.0138 2.41582,-2.40691 2.42207,-6.31712 0.0152,-8.73233 -3.87186,-3.88616 -6.00426,-9.04511 -6.00426,-14.5295 0,-5.48441 2.1324,-10.64317 6.00426,-14.52813 1.20137,-1.20375 1.80169,-2.78155 1.80169,-4.35719 0,-1.58397 -0.60658,-3.16702 -1.81688,-4.37376 -2.41642,-2.40688 -6.32483,-2.40085 -8.73233,0.0138 -6.19429,6.21629 -9.60627,14.4723 -9.60627,23.24665 z"
         id="path13"
         inkscape:connector-curvature="0" />
    </g>
    <g
       id="g4295">
      <path
         sodipodi:nodetypes="ccccsssssssscccc"
         id="rect4178"
         d="m 490.84617,467.33983 c -17.53838,-3.4e-4 -27.75615,10.18508 -27.75586,27.6836 0.01,14.07734 5.32852,22.4598 18.875,26.39648 l 0,72.81641 -254.66797,0 c -10.2868,0 -18.56641,8.28154 -18.56641,18.56836 l 0,53.70508 c 0,10.28682 8.27961,18.56835 18.56641,18.56835 l 327.7832,0 c 10.28681,0 18.56836,-8.28153 18.56836,-18.56835 l 0,-53.70508 c 0,-10.28682 -8.28155,-18.56836 -18.56836,-18.56836 l -54.06055,0 0,-73.24219 c 12.88414,-4.34827 17.56211,-12.40035 17.58008,-25.9707 2.9e-4,-17.49776 -10.21628,-27.68286 -27.7539,-27.6836 z"
         style="opacity:1;fill:url(#linearGradient4316);fill-opacity:1;stroke:none;stroke-width:8.19999981;stroke-linecap:round;stroke-linejoin:round;stroke-miterlimit:4;stroke-dasharray:none;stroke-opacity:1"
         inkscape:connector-curvature="0" />
      <rect
         ry="9.1150446"
         y="630.82703"
         x="245.52975"
         height="18.230089"
         width="18.261721"
         id="rect4277"
         style="color:#000000;clip-rule:nonzero;display:inline;overflow:visible;visibility:visible;opacity:1;isolation:auto;mix-blend-mode:normal;color-interpolation:sRGB;color-interpolation-filters:linearRGB;solid-color:#000000;solid-opacity:1;fill:#ffffff;fill-opacity:1;fill-rule:nonzero;stroke:none;stroke-width:25.18300056;stroke-linecap:square;stroke-linejoin:round;stroke-miterlimit:4;stroke-dasharray:none;stroke-dashoffset:0;stroke-opacity:1;color-rendering:auto;image-rendering:auto;shape-rendering:auto;text-rendering:auto;enable-background:accumulate" />
      <rect
         ry="9.0876703"
         y="630.82703"
         x="282.05319"
         height="18.230089"
         width="18.175341"
         id="rect4279"
         style="color:#000000;clip-rule:nonzero;display:inline;overflow:visible;visibility:visible;opacity:1;isolation:auto;mix-blend-mode:normal;color-interpolation:sRGB;color-interpolation-filters:linearRGB;solid-color:#000000;solid-opacity:1;fill:#ffffff;fill-opacity:1;fill-rule:nonzero;stroke:none;stroke-width:25.18300056;stroke-linecap:square;stroke-linejoin:round;stroke-miterlimit:4;stroke-dasharray:none;stroke-dashoffset:0;stroke-opacity:1;color-rendering:auto;image-rendering:auto;shape-rendering:auto;text-rendering:auto;enable-background:accumulate" />
      <rect
         ry="9.0805197"
         y="630.82703"
         x="318.38959"
         height="18.230089"
         width="18.161039"
         id="rect4281"
         style="color:#000000;clip-rule:nonzero;display:inline;overflow:visible;visibility:visible;opacity:1;isolation:auto;mix-blend-mode:normal;color-interpolation:sRGB;color-interpolation-filters:linearRGB;solid-color:#000000;solid-opacity:1;fill:#ffffff;fill-opacity:1;fill-rule:nonzero;stroke:none;stroke-width:25.18300056;stroke-linecap:square;stroke-linejoin:round;stroke-miterlimit:4;stroke-dasharray:none;stroke-dashoffset:0;stroke-opacity:1;color-rendering:auto;image-rendering:auto;shape-rendering:auto;text-rendering:auto;enable-background:accumulate" />
      <rect
         ry="9.0805197"
         y="630.82703"
         x="372.87274"
         height="18.230089"
         width="182.09381"
         id="rect4283"
         style="color:#000000;clip-rule:nonzero;display:inline;overflow:visible;visibility:visible;opacity:1;isolation:auto;mix-blend-mode:normal;color-interpolation:sRGB;color-interpolation-filters:linearRGB;solid-color:#000000;solid-opacity:1;fill:#ffffff;fill-opacity:1;fill-rule:nonzero;stroke:none;stroke-width:25.18300056;stroke-linecap:square;stroke-linejoin:round;stroke-miterlimit:4;stroke-dasharray:none;stroke-dashoffset:0;stroke-opacity:1;color-rendering:auto;image-rendering:auto;shape-rendering:auto;text-rendering:auto;enable-background:accumulate" />
    </g>
    <path
       style="fill:url(#linearGradient4256-3);fill-opacity:1;fill-rule:evenodd;stroke:#ffffff;stroke-width:40;stroke-linecap:butt;stroke-linejoin:miter;stroke-miterlimit:4;stroke-dasharray:none;stroke-opacity:1"
       d="m 310.28681,591.75928 c -1.98198,0 -3.96394,-1.32619 -6.60656,-3.97855 L 211.18862,479.03364 c -5.28523,-5.30475 -2.64262,-13.26185 7.92786,-13.26185 l 31.71141,0 0,-92.83289 c 0,-7.34706 5.89307,-13.26185 13.21309,-13.26185 l 92.49164,0 c 7.32002,0 13.21308,5.91479 13.21308,13.26185 l 0,92.83289 31.71143,0 c 10.57047,0 10.57047,10.60947 7.92783,13.26185 l -92.49161,108.74709 c -2.64263,2.65236 -4.62458,3.97855 -6.60654,3.97855 z"
       id="path4237-9"
       inkscape:connector-curvature="0" />
    <path
       style="fill:#99b000;fill-opacity:1;fill-rule:evenodd;stroke:none;stroke-width:1px;stroke-linecap:butt;stroke-linejoin:miter;stroke-opacity:1"
       d="m 310.28681,591.97845 c -1.98198,0 -3.96394,-1.3262 -6.60656,-3.97856 L 211.18862,479.2528 c -5.28523,-5.30475 -2.64262,-13.26185 7.92786,-13.26185 l 31.71141,0 0,-92.83288 c 0,-7.34707 5.89307,-13.26186 13.21309,-13.26186 l 92.49164,0 c 7.32002,0 13.21308,5.91479 13.21308,13.26186 l 0,92.83288 31.71143,0 c 10.57047,0 10.57047,10.60948 7.92783,13.26185 l -92.49161,108.74709 c -2.64263,2.65236 -4.62458,3.97856 -6.60654,3.97856 z"
       id="path4237"
       inkscape:connector-curvature="0" />
  </g>
</svg>
