<?xml version="1.0" encoding="UTF-8" standalone="no"?>
<!-- Created with Inkscape (http://www.inkscape.org/) -->

<svg
   xmlns:dc="http://purl.org/dc/elements/1.1/"
   xmlns:cc="http://creativecommons.org/ns#"
   xmlns:rdf="http://www.w3.org/1999/02/22-rdf-syntax-ns#"
   xmlns:svg="http://www.w3.org/2000/svg"
   xmlns="http://www.w3.org/2000/svg"
   xmlns:xlink="http://www.w3.org/1999/xlink"
   xmlns:sodipodi="http://sodipodi.sourceforge.net/DTD/sodipodi-0.dtd"
   xmlns:inkscape="http://www.inkscape.org/namespaces/inkscape"
   width="210mm"
   height="297mm"
   viewBox="0 0 744.09448819 1052.3622047"
   id="svg2"
   version="1.1"
   inkscape:version="0.91 r13725"
   inkscape:export-xdpi="4.9308319"
   inkscape:export-ydpi="4.9308319"
   sodipodi:docname="load-settings.svg"
   inkscape:export-filename="C:\Users\johannes\Documents\Arbeit\RRZE\github3\bicons\22x22\actions\load-settings.png">
  <defs
     id="defs4">
    <linearGradient
       id="linearGradient2224">
      <stop
         id="stop2226"
         offset="0"
         style="stop-color:#7c7c7c;stop-opacity:1;" />
      <stop
         id="stop2228"
         offset="1"
         style="stop-color:#b8b8b8;stop-opacity:1;" />
    </linearGradient>
    <linearGradient
       id="linearGradient15218">
      <stop
         id="stop15220"
         offset="0"
         style="stop-color:#eeeeef;stop-opacity:1;" />
      <stop
         id="stop2736"
         offset="0.59928656"
         style="stop-color:#d3d7cf;stop-opacity:1;" />
      <stop
         id="stop2738"
         offset="0.82758623"
         style="stop-color:#ffffff;stop-opacity:1;" />
      <stop
         id="stop15222"
         offset="1"
         style="stop-color:#d3d7cf;stop-opacity:1;" />
    </linearGradient>
    <pattern
       y="0"
       x="0"
       height="6"
       width="6"
       patternUnits="userSpaceOnUse"
       id="EMFhbasepattern" />
    <pattern
       y="0"
       x="0"
       height="6"
       width="6"
       patternUnits="userSpaceOnUse"
       id="EMFhbasepattern-5" />
    <linearGradient
       inkscape:collect="always"
       xlink:href="#linearGradient4167"
       id="linearGradient4203"
       x1="249.23784"
       y1="681.41742"
       x2="511.04788"
       y2="441.42242"
       gradientUnits="userSpaceOnUse"
       gradientTransform="matrix(0.95413401,0,0,0.95413401,18.47522,17.255465)" />
    <linearGradient
       inkscape:collect="always"
       id="linearGradient4167">
      <stop
         style="stop-color:#4e505d;stop-opacity:1;"
         offset="0"
         id="stop4169" />
      <stop
         style="stop-color:#7a8597;stop-opacity:1"
         offset="1"
         id="stop4171" />
    </linearGradient>
  </defs>
  <sodipodi:namedview
     id="base"
     pagecolor="#ffffff"
     bordercolor="#666666"
     borderopacity="1.0"
     inkscape:pageopacity="0.0"
     inkscape:pageshadow="2"
     inkscape:zoom="0.7071068"
     inkscape:cx="292.54437"
     inkscape:cy="444.88908"
     inkscape:document-units="px"
     inkscape:current-layer="layer1"
     showgrid="false"
     showguides="true"
     inkscape:guide-bbox="true"
     inkscape:window-width="1366"
     inkscape:window-height="721"
     inkscape:window-x="-4"
     inkscape:window-y="-4"
     inkscape:window-maximized="1">
    <sodipodi:guide
       position="315.53572,730.17859"
       orientation="0,1"
       id="guide3338" />
    <sodipodi:guide
       position="351.25,330.17858"
       orientation="0,1"
       id="guide3340" />
    <sodipodi:guide
       position="189.10714,408.8393"
       orientation="1,0"
       id="guide3344" />
    <sodipodi:guide
       position="589.04521,468.07945"
       orientation="1,0"
       id="guide3346" />
    <inkscape:grid
       type="xygrid"
       id="grid3440" />
    <sodipodi:guide
       position="0,0"
       orientation="0,1"
       id="guide3405" />
    <sodipodi:guide
       position="214.125,684.50002"
       orientation="1,0"
       id="guide3407" />
    <sodipodi:guide
       position="0,0"
       orientation="0,1"
       id="guide3409" />
    <sodipodi:guide
       position="589.04521,378.30213"
       orientation="1,0"
       id="guide3411" />
    <sodipodi:guide
       position="564.00001,683.37502"
       orientation="1,0"
       id="guide3413" />
    <sodipodi:guide
       position="0,0"
       orientation="0,1"
       id="guide4168" />
  </sodipodi:namedview>
  <metadata
     id="metadata7">
    <rdf:RDF>
      <cc:Work
         rdf:about="">
        <dc:format>image/svg+xml</dc:format>
        <dc:type
           rdf:resource="http://purl.org/dc/dcmitype/StillImage" />
        <dc:title>load settings</dc:title>
        <dc:date>June 2015</dc:date>
        <dc:creator>
          <cc:Agent>
            <dc:title>Johannes Hechler</dc:title>
          </cc:Agent>
        </dc:creator>
        <dc:rights>
          <cc:Agent>
            <dc:title>Johannes Hechler</dc:title>
          </cc:Agent>
        </dc:rights>
        <dc:publisher>
          <cc:Agent>
            <dc:title>RRZE</dc:title>
          </cc:Agent>
        </dc:publisher>
        <dc:contributor>
          <cc:Agent>
            <dc:title>Ute Weber, Hendrik Eggers</dc:title>
          </cc:Agent>
        </dc:contributor>
      </cc:Work>
    </rdf:RDF>
  </metadata>
  <g
     inkscape:label="Ebene 1"
     inkscape:groupmode="layer"
     id="layer1">
    <g
       id="g4198">
      <flowRoot
         style="font-style:normal;font-weight:normal;font-size:40px;line-height:125%;font-family:sans-serif;letter-spacing:0px;word-spacing:0px;fill:#252525;fill-opacity:1;stroke:none;stroke-width:1px;stroke-linecap:butt;stroke-linejoin:miter;stroke-opacity:1"
         id="flowRoot4169"
         xml:space="preserve"
         transform="translate(0.02163,0.810395)"><flowRegion
           id="flowRegion4171"><rect
             y="427.07962"
             x="89.541069"
             height="88.78862"
             width="56.433445"
             id="rect4173" /></flowRegion><flowPara
           id="flowPara4175" /></flowRoot>      <rect
         inkscape:export-ydpi="4.9499998"
         inkscape:export-xdpi="4.9499998"
         y="323.08044"
         x="189.16647"
         height="400"
         width="400"
         id="rect3336"
         style="fill:none;fill-rule:evenodd;stroke:none;stroke-width:1px;stroke-linecap:butt;stroke-linejoin:miter;stroke-opacity:1" />
      <path
         id="rect4182"
         d="M 550.29102 430.01562 L 221.65234 431.07422 C 213.56016 431.07422 207.03125 437.84519 207.03125 445.94141 L 207.03125 645.92188 C 207.03125 658.06611 216.80312 667.8418 228.94141 667.8418 L 379.78516 667.8418 L 387.06641 655.13672 L 367.15625 650.17578 A 17.50175 17.50175 0 0 1 353.88672 633.19531 L 353.88672 595.82422 A 17.50175 17.50175 0 0 1 367.15625 578.84375 L 383.3418 574.81055 L 374.27734 560.43555 A 17.50175 17.50175 0 0 1 376.46484 538.97266 L 402.38867 512.00586 A 17.50175 17.50175 0 0 1 423.67578 508.93359 L 441.09375 518.86914 L 446 499.29883 L 445.98047 499.46484 A 17.50175 17.50175 0 0 1 462.97461 486.05469 L 500.42188 486.05469 A 17.50175 17.50175 0 0 1 517.39844 499.30664 L 521.43164 515.41797 L 534.39648 507.28125 A 17.50175 17.50175 0 0 1 555.79492 509.45508 L 572.20117 525.14844 L 572.20117 451.9375 C 572.20117 439.79318 562.42928 430.01562 550.29102 430.01562 z M 476.62891 521.05469 L 472.55078 537.31836 A 17.50175 17.50175 0 0 1 460.90234 549.73242 C 456.97938 550.98625 453.18162 552.59656 449.55469 554.54297 A 17.50175 17.50175 0 0 1 432.60742 554.32227 L 418.17383 546.08789 L 411.18945 553.35352 L 420.07227 567.44336 A 17.50175 17.50175 0 0 1 420.96289 584.51758 C 419.47441 587.53493 418.21566 590.66008 417.19727 593.86523 A 17.50175 17.50175 0 0 1 404.75 605.54688 L 388.88672 609.5 L 388.88672 619.51953 L 404.81641 623.49023 A 17.50175 17.50175 0 0 1 417.91992 634.98047 C 419.22214 638.81007 420.87 642.51443 422.8418 646.04883 A 17.50175 17.50175 0 0 1 422.74219 663.27539 L 420.125 667.8418 L 548.60156 667.8418 L 543.14453 659.1875 A 17.50175 17.50175 0 0 1 542.19922 642.22461 C 543.50415 639.53086 544.62762 636.75301 545.56055 633.91016 A 17.50175 17.50175 0 0 1 557.95312 622.38672 L 572.20117 618.83203 L 572.20117 608.19727 L 557.92773 604.63867 A 17.50175 17.50175 0 0 1 545.49023 592.98828 C 544.24526 589.09444 542.64495 585.32094 540.71094 581.7168 A 17.50175 17.50175 0 0 1 540.94727 564.74414 L 548.74023 551.13867 L 541.45508 544.17188 L 528.20508 552.49023 A 17.50175 17.50175 0 0 1 511.12695 553.34766 C 508.28452 551.93842 505.34576 550.72993 502.33203 549.73438 A 17.50175 17.50175 0 0 1 490.8457 537.36719 L 486.76367 521.05469 L 476.62891 521.05469 z "
         style="opacity:1;fill:url(#linearGradient4203);fill-opacity:1;stroke:none;stroke-width:0;stroke-linecap:square;stroke-linejoin:round;stroke-miterlimit:4;stroke-dasharray:none;stroke-opacity:1" />
      <path
         sodipodi:nodetypes="ccsccc"
         inkscape:connector-curvature="0"
         id="path4219"
         d="m 207.74603,413.17065 163.76572,0 c 0,0 -12.07209,-36.81486 -30.07209,-36.81486 l -121.43191,0 -12.26172,12 z"
         style="fill:#99b000;fill-rule:evenodd;stroke:none;stroke-width:1px;stroke-linecap:butt;stroke-linejoin:miter;stroke-opacity:1" />
      <path
         inkscape:connector-curvature="0"
         id="path4172"
         d="m 462.74588,504.54974 -7.39884,29.50726 a 84.774575,84.576116 0 0 0 -14.29624,6.06005 l -26.27444,-14.98961 -25.92436,26.96805 16.1885,25.6749 a 84.774575,84.576116 0 0 0 -4.74965,11.78972 l -29.1318,7.25878 0,37.37014 29.96444,7.46657 0,-0.048 a 84.774575,84.576116 0 0 0 6.2067,13.96068 l -15.09103,26.33565 27.03136,25.85415 26.14201,-16.40549 -0.7948,-0.76455 a 84.774575,84.576116 0 0 0 11.31589,4.55917 l 7.30423,29.12968 37.44843,0 7.44616,-29.70548 a 84.774575,84.576116 0 0 0 13.58666,-5.86183 l 26.45421,15.09351 25.92435,-26.97753 -16.37776,-25.97695 a 84.774575,84.576116 0 0 0 4.23872,-10.48705 l 28.76281,-7.17394 0,-37.36069 -28.79119,-7.1738 a 84.774575,84.576116 0 0 0 -6.02694,-14.21558 l 14.599,-25.48614 -27.03136,-25.85424 -24.79846,15.56544 a 84.774575,84.576116 0 0 0 -11.07935,-4.54977 l -7.39883,-29.5639 -37.44842,0 z"
         style="opacity:1;fill:#99b000;fill-opacity:1;stroke:none;stroke-width:20.62700081;stroke-linecap:square;stroke-linejoin:miter;stroke-miterlimit:4;stroke-dasharray:none;stroke-opacity:1" />
      <path
         d="m 514.54594,617.84131 a 33.377144,32.871952 0 0 1 -33.37449,32.87195 33.377144,32.871952 0 0 1 -33.3798,-32.86672 33.377144,32.871952 0 0 1 33.36917,-32.87718 33.377144,32.871952 0 0 1 33.38511,32.86149 l -33.37714,0.0105 z"
         sodipodi:end="6.282867"
         sodipodi:start="0"
         sodipodi:ry="32.871952"
         sodipodi:rx="33.377144"
         sodipodi:cy="617.84131"
         sodipodi:cx="481.16879"
         sodipodi:type="arc"
         id="path4304"
         style="opacity:1;fill:#ffffff;fill-opacity:1;stroke:none;stroke-width:20.62700081;stroke-linecap:square;stroke-linejoin:miter;stroke-miterlimit:4;stroke-dasharray:none;stroke-opacity:1" />
    </g>
  </g>
</svg>
