<?xml version="1.0" encoding="UTF-8" standalone="no"?>
<!-- Created with Inkscape (http://www.inkscape.org/) -->

<svg
   xmlns:dc="http://purl.org/dc/elements/1.1/"
   xmlns:cc="http://creativecommons.org/ns#"
   xmlns:rdf="http://www.w3.org/1999/02/22-rdf-syntax-ns#"
   xmlns:svg="http://www.w3.org/2000/svg"
   xmlns="http://www.w3.org/2000/svg"
   xmlns:xlink="http://www.w3.org/1999/xlink"
   xmlns:sodipodi="http://sodipodi.sourceforge.net/DTD/sodipodi-0.dtd"
   xmlns:inkscape="http://www.inkscape.org/namespaces/inkscape"
   width="210mm"
   height="297mm"
   viewBox="0 0 744.09448819 1052.3622047"
   id="svg2"
   version="1.1"
   inkscape:version="0.91 r13725"
   inkscape:export-xdpi="4.9703569"
   inkscape:export-ydpi="4.9703569"
   sodipodi:docname="log-out.svg"
   inkscape:export-filename="C:\Users\johannes\Documents\Arbeit\RRZE\github3\bicons\22x22\actions\log-out.png">
  <defs
     id="defs4">
    <linearGradient
       id="linearGradient2224">
      <stop
         id="stop2226"
         offset="0"
         style="stop-color:#7c7c7c;stop-opacity:1;" />
      <stop
         id="stop2228"
         offset="1"
         style="stop-color:#b8b8b8;stop-opacity:1;" />
    </linearGradient>
    <linearGradient
       id="linearGradient15218">
      <stop
         id="stop15220"
         offset="0"
         style="stop-color:#eeeeef;stop-opacity:1;" />
      <stop
         id="stop2736"
         offset="0.59928656"
         style="stop-color:#d3d7cf;stop-opacity:1;" />
      <stop
         id="stop2738"
         offset="0.82758623"
         style="stop-color:#ffffff;stop-opacity:1;" />
      <stop
         id="stop15222"
         offset="1"
         style="stop-color:#d3d7cf;stop-opacity:1;" />
    </linearGradient>
    <pattern
       y="0"
       x="0"
       height="6"
       width="6"
       patternUnits="userSpaceOnUse"
       id="EMFhbasepattern" />
    <linearGradient
       inkscape:collect="always"
       xlink:href="#linearGradient4167"
       id="linearGradient4246"
       x1="223.80943"
       y1="586.3067"
       x2="436.18082"
       y2="379.83151"
       gradientUnits="userSpaceOnUse"
       gradientTransform="matrix(1.0739615,0,0,1.0739615,-4.1045793,-45.753782)" />
    <linearGradient
       inkscape:collect="always"
       id="linearGradient4167">
      <stop
         style="stop-color:#4e505d;stop-opacity:1;"
         offset="0"
         id="stop4169" />
      <stop
         style="stop-color:#7a8597;stop-opacity:1"
         offset="1"
         id="stop4171" />
    </linearGradient>
  </defs>
  <sodipodi:namedview
     id="base"
     pagecolor="#ffffff"
     bordercolor="#666666"
     borderopacity="1.0"
     inkscape:pageopacity="0.0"
     inkscape:pageshadow="2"
     inkscape:zoom="0.72567728"
     inkscape:cx="461.44167"
     inkscape:cy="596.4301"
     inkscape:document-units="px"
     inkscape:current-layer="layer1"
     showgrid="false"
     showguides="true"
     inkscape:guide-bbox="true"
     inkscape:window-width="1366"
     inkscape:window-height="721"
     inkscape:window-x="-4"
     inkscape:window-y="-4"
     inkscape:window-maximized="1">
    <sodipodi:guide
       position="315.53572,730.17859"
       orientation="0,1"
       id="guide3338" />
    <sodipodi:guide
       position="351.25,330.17858"
       orientation="0,1"
       id="guide3340" />
    <sodipodi:guide
       position="189.10714,408.8393"
       orientation="1,0"
       id="guide3344" />
    <inkscape:grid
       type="xygrid"
       id="grid3440" />
    <sodipodi:guide
       position="0,0"
       orientation="0,1"
       id="guide3405" />
    <sodipodi:guide
       position="214.125,684.50002"
       orientation="1,0"
       id="guide3407" />
    <sodipodi:guide
       position="0,0"
       orientation="0,1"
       id="guide3409" />
    <sodipodi:guide
       position="589.04521,378.30213"
       orientation="1,0"
       id="guide3411" />
    <sodipodi:guide
       position="564.00001,683.37502"
       orientation="1,0"
       id="guide3413" />
  </sodipodi:namedview>
  <metadata
     id="metadata7">
    <rdf:RDF>
      <cc:Work
         rdf:about="">
        <dc:format>image/svg+xml</dc:format>
        <dc:type
           rdf:resource="http://purl.org/dc/dcmitype/StillImage" />
        <dc:title>log out</dc:title>
        <dc:date>June 2015</dc:date>
        <dc:creator>
          <cc:Agent>
            <dc:title>Johannes Hechler</dc:title>
          </cc:Agent>
        </dc:creator>
        <dc:rights>
          <cc:Agent>
            <dc:title>Johannes Hechler</dc:title>
          </cc:Agent>
        </dc:rights>
        <dc:publisher>
          <cc:Agent>
            <dc:title>RRZE</dc:title>
          </cc:Agent>
        </dc:publisher>
        <dc:contributor>
          <cc:Agent>
            <dc:title>Ute Weber, Hendrik Eggers</dc:title>
          </cc:Agent>
        </dc:contributor>
      </cc:Work>
    </rdf:RDF>
  </metadata>
  <g
     inkscape:label="Ebene 1"
     inkscape:groupmode="layer"
     id="layer1">
    <g
       transform="translate(-0.682663,0.25134204)"
       id="g4294">
      <path
         sodipodi:nodetypes="ccsccssscssssccsssscssccc"
         inkscape:connector-curvature="0"
         id="rect4174"
         d="m 235.54405,322.05285 c -18.74025,-0.032 -27.27992,7.51815 -27.38392,24.70111 l 0,234.92698 c 0,4.18904 0.80437,8.67568 2.20247,13.14974 0.67439,3.92742 2.23734,7.54054 4.47833,10.63053 4.04787,7.53331 9.6486,14.17865 15.76543,18.3853 l 136.5588,93.91384 c 12.35113,8.49408 22.44621,3.0422 22.44621,-11.94775 l 0,-91.80895 55.51778,0 c 14.16082,0 25.56112,-11.40031 25.56112,-25.56113 l 0,-240.83065 c 0,-14.16081 -11.4003,-25.55902 -25.56112,-25.55902 z m 18.78005,25.07886 172.75117,-0.27917 c 9.99138,-0.0161 18.03499,8.04362 18.03499,18.03501 l 0,204.76066 c 0,9.99137 -8.04359,18.03501 -18.03499,18.03501 l -37.4639,0 0,-127.88476 c 0,-14.98998 -9.22039,-35.1124 -22.44621,-42.16769 L 235.78551,347.54659 c 0,0 4.05742,-0.39437 18.53856,-0.41488 z"
         style="opacity:1;fill:url(#linearGradient4246);fill-opacity:1;stroke:none;stroke-width:16;stroke-linecap:round;stroke-linejoin:round;stroke-miterlimit:4;stroke-dasharray:none;stroke-opacity:1" />
      <rect
         inkscape:export-ydpi="4.9499998"
         inkscape:export-xdpi="4.9499998"
         y="322.03214"
         x="190.00716"
         height="400"
         width="400"
         id="rect3336"
         style="fill:none;fill-rule:evenodd;stroke:none;stroke-width:1px;stroke-linecap:butt;stroke-linejoin:miter;stroke-opacity:1" />
      <g
         transform="matrix(-1,0,0,1,987.75621,0)"
         id="g4290">
        <path
           sodipodi:nodetypes="ccccccccccccccc"
           style="fill:#99b000;fill-opacity:1;fill-rule:evenodd;stroke:#ffffff;stroke-width:35;stroke-miterlimit:4;stroke-dasharray:none"
           d="m 398.78014,466.5934 c -0.0125,1.79854 1.17476,3.53045 3.55633,5.94498 l 102.76999,83.82059 c 4.68821,4.82865 11.82411,2.47964 11.88968,-7.03778 l 0.33471,-26.82757 47.20823,0.53114 c 6.59384,0.0451 11.95127,-5.23872 11.99672,-11.8334 l 0.44019,-85.65778 c 3.13316,24.37365 3.13316,-11.99705 -11.75807,-11.92219 l -47.28322,-0.5316 0.19045,-27.65317 c 0.0646,-9.44255 -9.37756,-9.50756 -11.79162,-7.20094 l -103.91541,82.47221 c -2.41407,2.30665 -3.6255,4.09697 -3.63787,5.89558 z"
           id="path4261"
           inkscape:connector-curvature="0" />
        <path
           inkscape:connector-curvature="0"
           id="path4253"
           d="m 398.78014,466.5934 c -0.0125,1.79854 1.17476,3.53045 3.55633,5.94498 l 102.76999,83.82059 c 4.68821,4.82865 11.82411,2.47964 11.88968,-7.03778 l 0.33471,-26.82757 59.20823,0.53114 c 6.59384,0.0451 11.95127,-5.23872 11.99672,-11.8334 l 0.44019,-85.65778 c 0.0442,-6.51987 -5.23932,-11.86373 -11.75807,-11.92219 l -59.28322,-0.5316 0.19045,-27.65317 c 0.0646,-9.44255 -9.37756,-9.50756 -11.79162,-7.20094 l -103.91541,82.47221 c -2.41407,2.30665 -3.6255,4.09697 -3.63787,5.89558 z"
           style="fill:#99b000;fill-opacity:1;fill-rule:evenodd;stroke:none"
           sodipodi:nodetypes="ccccccccscccccc" />
      </g>
    </g>
  </g>
</svg>
