<?xml version="1.0" encoding="UTF-8" standalone="no"?>
<!-- Created with Inkscape (http://www.inkscape.org/) -->

<svg
   xmlns:dc="http://purl.org/dc/elements/1.1/"
   xmlns:cc="http://creativecommons.org/ns#"
   xmlns:rdf="http://www.w3.org/1999/02/22-rdf-syntax-ns#"
   xmlns:svg="http://www.w3.org/2000/svg"
   xmlns="http://www.w3.org/2000/svg"
   xmlns:xlink="http://www.w3.org/1999/xlink"
   xmlns:sodipodi="http://sodipodi.sourceforge.net/DTD/sodipodi-0.dtd"
   xmlns:inkscape="http://www.inkscape.org/namespaces/inkscape"
   width="210mm"
   height="297mm"
   viewBox="0 0 744.09448819 1052.3622047"
   id="svg2"
   version="1.1"
   inkscape:version="0.91 r13725"
   inkscape:export-xdpi="4.9507661"
   inkscape:export-ydpi="4.9507661"
   sodipodi:docname="manage-others.svg"
   inkscape:export-filename="C:\Users\johannes\Documents\Arbeit\RRZE\github3\bicons\22x22\actions\manage-others.png">
  <defs
     id="defs4">
    <linearGradient
       id="linearGradient2224">
      <stop
         id="stop2226"
         offset="0"
         style="stop-color:#7c7c7c;stop-opacity:1;" />
      <stop
         id="stop2228"
         offset="1"
         style="stop-color:#b8b8b8;stop-opacity:1;" />
    </linearGradient>
    <linearGradient
       id="linearGradient15218">
      <stop
         id="stop15220"
         offset="0"
         style="stop-color:#eeeeef;stop-opacity:1;" />
      <stop
         id="stop2736"
         offset="0.59928656"
         style="stop-color:#d3d7cf;stop-opacity:1;" />
      <stop
         id="stop2738"
         offset="0.82758623"
         style="stop-color:#ffffff;stop-opacity:1;" />
      <stop
         id="stop15222"
         offset="1"
         style="stop-color:#d3d7cf;stop-opacity:1;" />
    </linearGradient>
    <pattern
       y="0"
       x="0"
       height="6"
       width="6"
       patternUnits="userSpaceOnUse"
       id="EMFhbasepattern" />
    <linearGradient
       inkscape:collect="always"
       xlink:href="#linearGradient4167"
       id="linearGradient4245"
       x1="255"
       y1="667.36218"
       x2="513"
       y2="415.36221"
       gradientUnits="userSpaceOnUse"
       gradientTransform="matrix(0.96700507,0,0,0.95848357,15.294845,20.89708)" />
    <linearGradient
       inkscape:collect="always"
       id="linearGradient4167">
      <stop
         style="stop-color:#4e505d;stop-opacity:1;"
         offset="0"
         id="stop4169" />
      <stop
         style="stop-color:#7a8597;stop-opacity:1"
         offset="1"
         id="stop4171" />
    </linearGradient>
    <linearGradient
       inkscape:collect="always"
       xlink:href="#linearGradient4167"
       id="linearGradient4247"
       x1="255"
       y1="667.36218"
       x2="513"
       y2="415.36221"
       gradientUnits="userSpaceOnUse"
       gradientTransform="matrix(0.91559778,0,0,0.91360739,39.866925,51.90959)" />
  </defs>
  <sodipodi:namedview
     id="base"
     pagecolor="#ffffff"
     bordercolor="#666666"
     borderopacity="1.0"
     inkscape:pageopacity="0.0"
     inkscape:pageshadow="2"
     inkscape:zoom="0.5"
     inkscape:cx="350.28168"
     inkscape:cy="515.49407"
     inkscape:document-units="px"
     inkscape:current-layer="layer1"
     showgrid="false"
     showguides="true"
     inkscape:guide-bbox="true"
     inkscape:window-width="1366"
     inkscape:window-height="721"
     inkscape:window-x="-4"
     inkscape:window-y="-4"
     inkscape:window-maximized="1"
     inkscape:snap-bbox="true"
     inkscape:bbox-paths="true"
     inkscape:bbox-nodes="true">
    <sodipodi:guide
       position="315.53572,730.17859"
       orientation="0,1"
       id="guide3338" />
    <sodipodi:guide
       position="351.25,330.17858"
       orientation="0,1"
       id="guide3340" />
    <sodipodi:guide
       position="189.10714,408.8393"
       orientation="1,0"
       id="guide3344" />
    <inkscape:grid
       type="xygrid"
       id="grid3440" />
    <sodipodi:guide
       position="0,0"
       orientation="0,1"
       id="guide3405" />
    <sodipodi:guide
       position="214.125,684.50002"
       orientation="1,0"
       id="guide3407" />
    <sodipodi:guide
       position="0,0"
       orientation="0,1"
       id="guide3409" />
    <sodipodi:guide
       position="589.04521,378.30213"
       orientation="1,0"
       id="guide3411" />
    <sodipodi:guide
       position="564.00001,683.37502"
       orientation="1,0"
       id="guide3413" />
  </sodipodi:namedview>
  <metadata
     id="metadata7">
    <rdf:RDF>
      <cc:Work
         rdf:about="">
        <dc:format>image/svg+xml</dc:format>
        <dc:type
           rdf:resource="http://purl.org/dc/dcmitype/StillImage" />
        <dc:title>manage others</dc:title>
        <dc:date>June 2015</dc:date>
        <dc:creator>
          <cc:Agent>
            <dc:title>Johannes Hechler</dc:title>
          </cc:Agent>
        </dc:creator>
        <dc:rights>
          <cc:Agent>
            <dc:title>Johannes Hechler</dc:title>
          </cc:Agent>
        </dc:rights>
        <dc:publisher>
          <cc:Agent>
            <dc:title>RRZE</dc:title>
          </cc:Agent>
        </dc:publisher>
        <dc:contributor>
          <cc:Agent>
            <dc:title>Ute Weber, Hendrik Eggers</dc:title>
          </cc:Agent>
        </dc:contributor>
      </cc:Work>
    </rdf:RDF>
  </metadata>
  <g
     inkscape:label="Ebene 1"
     inkscape:groupmode="layer"
     id="layer1">
    <g
       transform="translate(-1.4659343e-6,4.6507694e-8)"
       id="g4476">
      <path
         inkscape:connector-curvature="0"
         id="rect4183"
         d="m 502.77539,340.07422 c -21.98743,0.12802 -47.46186,6.34881 -61.44141,20.3418 -21.66304,21.77847 -15.68788,44.83233 -15.57812,71.50586 l -38.75977,39.32812 12.66016,12.66406 c 16.11277,-4.0361 34.13149,-2.06221 48.42969,8.93946 8.58348,-24.65113 32.12248,-42.5293 59.56054,-42.5293 17.88009,0 34.09745,7.6024 45.61133,19.71094 16.77722,-18.22373 21.72642,-51.03147 17.6836,-75.375 l 0.002,0.35351 -36.82422,37.63672 -53.92187,-0.48828 0.58007,-55.13086 36.47852,-36.09375 c -4.51848,-0.59879 -9.40645,-0.89282 -14.48047,-0.86328 z m 4.87109,145.25 c -0.57893,0 -1.15132,0.0215 -1.7207,0.0547 0.67076,-0.0148 1.3469,-0.0287 2.00195,-0.0488 -0.0942,-8.9e-4 -0.18684,-0.006 -0.28125,-0.006 z m -92.82031,31.86133 c -4.19156,-0.0893 -8.55165,0.75481 -12.28711,2.55078 a 17.50175,17.50175 0 0 1 -16.99804,-1.03516 17.50175,17.50175 0 0 1 1.07226,16.98438 c -4.08025,8.54347 -3.19223,20.3444 2.39453,25.93359 l 6.36524,6.36914 39.59765,-39.38086 -6.49218,-6.49609 c -2.80216,-2.80337 -7.15211,-4.42385 -11.86914,-4.83008 -0.58963,-0.0508 -1.18441,-0.0829 -1.78321,-0.0957 z m -76.38086,3.32422 -123.41992,125.22656 c -12.24305,12.42227 -8.99464,35.56667 3.21875,47.8164 12.21318,12.2495 35.28567,15.50432 47.65234,3.20508 l 104.66016,-104.08789 -6.30273,-6.30664 C 349.33519,571.4381 346.28767,550.94565 350.78906,532.85547 l -12.34375,-12.3457 z"
         style="opacity:1;fill:url(#linearGradient4245);fill-opacity:1;stroke:none;stroke-width:2;stroke-linecap:butt;stroke-linejoin:round;stroke-miterlimit:4;stroke-dasharray:none;stroke-opacity:1" />
      <path
         inkscape:connector-curvature="0"
         id="rect4172"
         d="m 244.72266,340.39844 -37.44727,36.77929 46.12695,73.62305 27.44141,-12.66016 89.97852,90.00391 c -6.90407,14.45615 -6.19205,33.84182 5.80859,45.84766 l 42.76562,42.7832 c 10.13722,-24.80186 26.4582,-43.79869 46.23438,-56.56836 -12.84533,-11.54485 -20.98297,-28.24082 -21.02148,-46.71094 l -3.75391,-3.75586 c -12.02246,-12.02765 -31.43646,-12.7295 -45.90039,-5.77539 l -89.96094,-89.98632 17.55078,-26.44336 -77.82226,-47.13672 z m 237.85546,250.70898 c -16.74851,11.35717 -29.80371,27.79856 -35.81445,53.04883 l 48.9336,48.95313 c 15.23588,15.24247 39.76608,15.24247 55.00195,0 l 9.2207,-9.22657 c 6.05547,-6.05809 9.69547,-13.58579 10.9375,-21.41406 -0.88266,-9.65059 -2.6038,-18.29991 -5.03125,-26.05078 -1.61519,-2.6923 -3.5818,-5.2351 -5.90625,-7.56055 l -34.95898,-34.97461 c -5.45257,1.44281 -11.14334,2.25977 -17.00196,2.25977 -8.93567,0 -17.49082,-1.86807 -25.38086,-5.03516 z"
         style="opacity:1;fill:url(#linearGradient4247);fill-opacity:1;stroke:none;stroke-width:2;stroke-linecap:butt;stroke-linejoin:round;stroke-miterlimit:4;stroke-dasharray:none;stroke-opacity:1" />
      <path
         id="rect4250"
         d="m 189.10714,322.18363 399.93808,0 0,399.92856 -399.93808,0 z"
         style="color:#000000;clip-rule:nonzero;display:inline;overflow:visible;visibility:visible;opacity:1;isolation:auto;mix-blend-mode:normal;color-interpolation:sRGB;color-interpolation-filters:linearRGB;solid-color:#000000;solid-opacity:1;fill:none;fill-opacity:1;fill-rule:evenodd;stroke:none;stroke-width:35;stroke-linecap:butt;stroke-linejoin:round;stroke-miterlimit:4;stroke-dasharray:none;stroke-dashoffset:0;stroke-opacity:1;color-rendering:auto;image-rendering:auto;shape-rendering:auto;text-rendering:auto;enable-background:accumulate"
         inkscape:connector-curvature="0" />
      <g
         id="g4452">
        <path
           style="fill:#99b000;fill-opacity:1;stroke:none;stroke-width:41.15159225;stroke-linecap:round;stroke-linejoin:round;stroke-opacity:1"
           d="m 481.39224,571.13705 c -0.0822,0.0763 -0.15713,0.15828 -0.24195,0.23232 l -4.57941,2.60296 c -29.86866,18.56301 -50.92574,51.71966 -50.92574,104.00732 0,11.23071 0.9764,22.11213 2.79821,32.46446 2.7023,6.34222 9.49188,10.99069 17.62731,11.59784 l 0,0.0702 120.91547,0 0,-0.006 c 9.1312,-0.13522 16.82177,-5.34803 19.40575,-12.49416 1.72903,-10.10304 2.65333,-20.70181 2.65333,-31.63267 0,-54.7398 -23.08059,-89.62702 -55.18801,-106.44248 -7.66568,4.51538 -16.50204,7.10614 -25.89894,7.10614 -9.67081,0 -18.74813,-2.74366 -26.56602,-7.50626 z"
           id="path2176"
           inkscape:connector-curvature="0"
           sodipodi:nodetypes="cccsccccccscscc" />
        <ellipse
           style="fill:#99b000;fill-opacity:1;stroke:none;stroke-width:14;stroke-miterlimit:4;stroke-dasharray:none;stroke-opacity:1"
           id="circle2187-6"
           cy="513.36591"
           cx="507.64606"
           rx="45.540718"
           ry="45.540722" />
      </g>
    </g>
  </g>
</svg>
