<?xml version="1.0" encoding="UTF-8" standalone="no"?>
<!-- Created with Inkscape (http://www.inkscape.org/) -->

<svg
   xmlns:dc="http://purl.org/dc/elements/1.1/"
   xmlns:cc="http://creativecommons.org/ns#"
   xmlns:rdf="http://www.w3.org/1999/02/22-rdf-syntax-ns#"
   xmlns:svg="http://www.w3.org/2000/svg"
   xmlns="http://www.w3.org/2000/svg"
   xmlns:xlink="http://www.w3.org/1999/xlink"
   xmlns:sodipodi="http://sodipodi.sourceforge.net/DTD/sodipodi-0.dtd"
   xmlns:inkscape="http://www.inkscape.org/namespaces/inkscape"
   width="210mm"
   height="297mm"
   viewBox="0 0 744.09448819 1052.3622047"
   id="svg2"
   version="1.1"
   inkscape:version="0.91 r13725"
   inkscape:export-xdpi="4.949975"
   inkscape:export-ydpi="4.949975"
   sodipodi:docname="mapping.svg"
   inkscape:export-filename="C:\Users\johannes\Documents\Arbeit\RRZE\github3\bicons\22x22\actions\mapping.png">
  <defs
     id="defs4">
    <linearGradient
       inkscape:collect="always"
       id="linearGradient4170">
      <stop
         style="stop-color:#4e505d;stop-opacity:1;"
         offset="0"
         id="stop4172" />
      <stop
         style="stop-color:#7a859c;stop-opacity:1"
         offset="1"
         id="stop4174" />
    </linearGradient>
    <linearGradient
       id="linearGradient2224">
      <stop
         id="stop2226"
         offset="0"
         style="stop-color:#7c7c7c;stop-opacity:1;" />
      <stop
         id="stop2228"
         offset="1"
         style="stop-color:#b8b8b8;stop-opacity:1;" />
    </linearGradient>
    <linearGradient
       id="linearGradient15218">
      <stop
         id="stop15220"
         offset="0"
         style="stop-color:#eeeeef;stop-opacity:1;" />
      <stop
         id="stop2736"
         offset="0.59928656"
         style="stop-color:#d3d7cf;stop-opacity:1;" />
      <stop
         id="stop2738"
         offset="0.82758623"
         style="stop-color:#ffffff;stop-opacity:1;" />
      <stop
         id="stop15222"
         offset="1"
         style="stop-color:#d3d7cf;stop-opacity:1;" />
    </linearGradient>
    <pattern
       y="0"
       x="0"
       height="6"
       width="6"
       patternUnits="userSpaceOnUse"
       id="EMFhbasepattern" />
    <linearGradient
       inkscape:collect="always"
       xlink:href="#linearGradient4170"
       id="linearGradient4176"
       x1="214.125"
       y1="722.18365"
       x2="537"
       y2="431.26306"
       gradientUnits="userSpaceOnUse" />
  </defs>
  <sodipodi:namedview
     id="base"
     pagecolor="#ffffff"
     bordercolor="#666666"
     borderopacity="1.0"
     inkscape:pageopacity="0.0"
     inkscape:pageshadow="2"
     inkscape:zoom="0.70710678"
     inkscape:cx="189.19046"
     inkscape:cy="574.75369"
     inkscape:document-units="px"
     inkscape:current-layer="layer1"
     showgrid="false"
     showguides="true"
     inkscape:guide-bbox="true"
     inkscape:window-width="1366"
     inkscape:window-height="721"
     inkscape:window-x="-4"
     inkscape:window-y="-4"
     inkscape:window-maximized="1"
     inkscape:snap-bbox="true"
     inkscape:bbox-paths="true"
     inkscape:bbox-nodes="true">
    <sodipodi:guide
       position="315.53572,730.17859"
       orientation="0,1"
       id="guide3338" />
    <sodipodi:guide
       position="351.25,330.17858"
       orientation="0,1"
       id="guide3340" />
    <sodipodi:guide
       position="189.10714,408.8393"
       orientation="1,0"
       id="guide3344" />
    <inkscape:grid
       type="xygrid"
       id="grid3440" />
    <sodipodi:guide
       position="0,0"
       orientation="0,1"
       id="guide3405" />
    <sodipodi:guide
       position="214.125,684.50002"
       orientation="1,0"
       id="guide3407" />
    <sodipodi:guide
       position="0,0"
       orientation="0,1"
       id="guide3409" />
    <sodipodi:guide
       position="589.04521,378.30213"
       orientation="1,0"
       id="guide3411" />
    <sodipodi:guide
       position="564.00001,683.37502"
       orientation="1,0"
       id="guide3413" />
  </sodipodi:namedview>
  <metadata
     id="metadata7">
    <rdf:RDF>
      <cc:Work
         rdf:about="">
        <dc:format>image/svg+xml</dc:format>
        <dc:type
           rdf:resource="http://purl.org/dc/dcmitype/StillImage" />
        <dc:title>mapping</dc:title>
        <dc:date>June 2015</dc:date>
        <dc:creator>
          <cc:Agent>
            <dc:title>Johannes Hechler</dc:title>
          </cc:Agent>
        </dc:creator>
        <dc:rights>
          <cc:Agent>
            <dc:title>Johannes Hechler</dc:title>
          </cc:Agent>
        </dc:rights>
        <dc:publisher>
          <cc:Agent>
            <dc:title>RRZE</dc:title>
          </cc:Agent>
        </dc:publisher>
        <dc:contributor>
          <cc:Agent>
            <dc:title>Ute Weber, Hendrik Eggers</dc:title>
          </cc:Agent>
        </dc:contributor>
      </cc:Work>
    </rdf:RDF>
  </metadata>
  <g
     inkscape:label="Ebene 1"
     inkscape:groupmode="layer"
     id="layer1">
    <g
       id="g4178">
      <path
         id="rect4584"
         d="m 206.35376,431.26305 c -9.59023,0 -17.31055,7.72033 -17.31055,17.31054 l 0,56.2793 c 0,9.59023 7.72032,17.31055 17.31055,17.31055 l 19.04883,0 0,18.17969 0,18.17968 0,54.54102 0,18.17969 0,72.71875 0,0.16601 72.7207,0 0,4.20703 c 0,7.67218 6.17547,13.84766 13.84765,13.84766 l 26.84375,0 c 7.67218,0 13.84766,-6.17548 13.84766,-13.84766 l 0,-26.88281 c 0,-7.67218 -6.17548,-13.84961 -13.84766,-13.84961 l -26.84375,0 c -7.67218,0 -13.84765,6.17743 -13.84765,13.84961 l 0,4.33008 -54.54102,0 0,-54.53906 54.54102,0 0,4.33007 c 0,7.67218 6.17547,13.84961 13.84765,13.84961 l 26.84375,0 c 7.67218,0 13.84766,-6.17743 13.84766,-13.84961 l 0,-27.12304 c 0,-7.67218 -6.17548,-13.84766 -13.84766,-13.84766 l -26.84375,0 c -7.67218,0 -13.84765,6.17548 -13.84765,13.84766 l 0,4.61328 -54.54102,0 0,-54.54102 54.66016,0 0,4.33204 c 0,7.67217 6.17548,13.84765 13.84766,13.84765 l 26.76367,0 c 7.67218,0 13.84961,-6.17549 13.84961,-13.84765 l 0,-13.4629 c -15.27975,-5.11634 -30.644,-12.42844 -45.66211,-22.0371 l -8.79883,9.69921 0,3.28907 -2.98438,0 -1.74804,1.92773 a 18.0018,18.0018 0 0 1 -28.17969,-1.92773 l -21.74805,0 0,-18.17969 18.57617,0 -0.21484,-90.65235 a 18.0018,18.0018 0 0 1 0.008,-0.24804 l -55.59766,0 z m 309.74218,0 a 18.0018,18.0018 0 0 1 -1.86718,7.77734 c 4.2681,28.00049 -1.63345,53.20987 -14.48243,73.07422 2.73788,5.93756 8.71893,10.04883 15.70899,10.04883 l 19.04883,0 0,18.17969 -54.65821,0 0,-4.33204 c 0,-0.54074 -0.0379,-1.07146 -0.0976,-1.5957 -8.42594,6.86912 -18.04037,12.367 -28.54102,16.2207 -8.192,3.00645 -16.84238,5.13805 -25.82226,6.40235 l 0,5.81641 c 0,7.67217 6.17547,13.84765 13.84765,13.84765 l 26.76367,0 c 7.67218,0 13.84961,-6.17549 13.84961,-13.84765 l 0,-4.33204 54.65821,0 0,54.53907 -54.53906,0 0,-4.61133 c 0,-7.67218 -6.17743,-13.84766 -13.84961,-13.84766 l -26.8418,0 c -7.67218,0 -13.84961,6.17548 -13.84961,13.84766 l 0,27.12304 c 0,7.67218 6.17743,13.84961 13.84961,13.84961 l 26.8418,0 c 7.67218,0 13.84961,-6.17743 13.84961,-13.84961 l 0,-4.33007 54.53906,0 0,54.53906 -54.53906,0 0,-4.33203 c 0,-7.67218 -6.17743,-13.84766 -13.84961,-13.84766 l -26.8418,0 c -7.67218,0 -13.84961,6.17548 -13.84961,13.84766 l 0,26.88281 c 0,7.67218 6.17743,13.84961 13.84961,13.84961 l 26.8418,0 c 7.67218,0 13.84961,-6.17743 13.84961,-13.84961 l 0,-4.20508 72.71874,0 0,-18.3457 0,-163.61914 19.05079,0 c 9.59022,0 17.31054,-7.72032 17.31054,-17.31055 l 0,-56.2793 c 0,-9.59022 -7.72032,-17.31054 -17.31054,-17.31054 l -55.63868,0 z"
         style="color:#000000;clip-rule:nonzero;display:inline;overflow:visible;visibility:visible;opacity:1;isolation:auto;mix-blend-mode:normal;color-interpolation:sRGB;color-interpolation-filters:linearRGB;solid-color:#000000;solid-opacity:1;fill:url(#linearGradient4176);fill-opacity:1;fill-rule:evenodd;stroke:none;stroke-width:36;stroke-linecap:butt;stroke-linejoin:round;stroke-miterlimit:4;stroke-dasharray:none;stroke-dashoffset:0;stroke-opacity:1;color-rendering:auto;image-rendering:auto;shape-rendering:auto;text-rendering:auto;enable-background:accumulate"
         inkscape:connector-curvature="0" />
      <path
         id="path4196-4"
         d="m 372.7854,322.18493 c -60.17874,-0.26709 -104.80923,40.70352 -89.67774,106.65234 -1.81039,-74.47355 82.26447,-75.67868 151.19141,-26.35742 l -25.94336,28.87304 89.74805,-0.29492 -0.23438,-98.70897 -24.07422,26.5371 C 440.0948,333.77906 404.30759,322.32484 372.7854,322.18493 Z m -3.09375,108.98827 -89.74805,0.29493 0.23438,98.70898 24.07226,-26.53711 c 98.03741,73.0386 213.74698,30.54228 190.68945,-69.95117 1.81039,74.47357 -82.26447,75.67864 -151.1914,26.35742 l 25.94336,-28.87305 z"
         style="display:block;overflow:visible;visibility:visible;fill:#99b000;fill-opacity:1;fill-rule:nonzero;stroke:none;stroke-width:6;stroke-linecap:square;stroke-linejoin:miter;stroke-miterlimit:4;stroke-dasharray:none;stroke-dashoffset:0;stroke-opacity:1;marker:none;marker-start:none;marker-mid:none;marker-end:none"
         inkscape:connector-curvature="0" />
    </g>
  </g>
</svg>
