<?xml version="1.0" encoding="UTF-8" standalone="no"?>
<!-- Created with Inkscape (http://www.inkscape.org/) -->

<svg
   xmlns:dc="http://purl.org/dc/elements/1.1/"
   xmlns:cc="http://creativecommons.org/ns#"
   xmlns:rdf="http://www.w3.org/1999/02/22-rdf-syntax-ns#"
   xmlns:svg="http://www.w3.org/2000/svg"
   xmlns="http://www.w3.org/2000/svg"
   xmlns:xlink="http://www.w3.org/1999/xlink"
   xmlns:sodipodi="http://sodipodi.sourceforge.net/DTD/sodipodi-0.dtd"
   xmlns:inkscape="http://www.inkscape.org/namespaces/inkscape"
   width="105mm"
   height="148mm"
   viewBox="0 0 372.04724 524.40945"
   id="svg2"
   version="1.1"
   inkscape:version="0.91 r13725"
   inkscape:export-xdpi="4.950386"
   inkscape:export-ydpi="4.950386"
   sodipodi:docname="refuse.svg"
   inkscape:export-filename="D:\Dokumente\Arbeit\RRZE\github\bicons\22x22\actions\refuse.png">
  <defs
     id="defs4">
    <linearGradient
       id="linearGradient2224">
      <stop
         id="stop2226"
         offset="0"
         style="stop-color:#7c7c7c;stop-opacity:1;" />
      <stop
         id="stop2228"
         offset="1"
         style="stop-color:#b8b8b8;stop-opacity:1;" />
    </linearGradient>
    <linearGradient
       id="linearGradient15218">
      <stop
         id="stop15220"
         offset="0"
         style="stop-color:#eeeeef;stop-opacity:1;" />
      <stop
         id="stop2736"
         offset="0.59928656"
         style="stop-color:#d3d7cf;stop-opacity:1;" />
      <stop
         id="stop2738"
         offset="0.82758623"
         style="stop-color:#ffffff;stop-opacity:1;" />
      <stop
         id="stop15222"
         offset="1"
         style="stop-color:#d3d7cf;stop-opacity:1;" />
    </linearGradient>
    <pattern
       y="0"
       x="0"
       height="6"
       width="6"
       patternUnits="userSpaceOnUse"
       id="EMFhbasepattern" />
    <linearGradient
       inkscape:collect="always"
       xlink:href="#linearGradient4321"
       id="linearGradient4201"
       x1="286.38269"
       y1="672.9209"
       x2="532.51678"
       y2="367.74933"
       gradientUnits="userSpaceOnUse"
       gradientTransform="matrix(1.1363532,0,0,1.1363532,-56.81011,-581.05915)" />
    <linearGradient
       id="linearGradient4321"
       inkscape:collect="always">
      <stop
         id="stop4323"
         offset="0"
         style="stop-color:#4e505d;stop-opacity:1;" />
      <stop
         id="stop4325"
         offset="1"
         style="stop-color:#7a8597;stop-opacity:1" />
    </linearGradient>
  </defs>
  <sodipodi:namedview
     id="base"
     pagecolor="#ffffff"
     bordercolor="#666666"
     borderopacity="1.0"
     inkscape:pageopacity="0.0"
     inkscape:pageshadow="2"
     inkscape:zoom="1"
     inkscape:cx="396.05233"
     inkscape:cy="518.29685"
     inkscape:document-units="px"
     inkscape:current-layer="layer1"
     showgrid="false"
     showguides="true"
     inkscape:guide-bbox="true"
     inkscape:window-width="1600"
     inkscape:window-height="837"
     inkscape:window-x="-4"
     inkscape:window-y="-4"
     inkscape:window-maximized="1"
     inkscape:snap-bbox="true"
     inkscape:bbox-nodes="true"
     inkscape:bbox-paths="true"
     inkscape:snap-nodes="false">
    <sodipodi:guide
       position="315.53572,730.17859"
       orientation="0,1"
       id="guide3338" />
    <sodipodi:guide
       position="351.25,330.17858"
       orientation="0,1"
       id="guide3340" />
    <sodipodi:guide
       position="189.10714,408.8393"
       orientation="1,0"
       id="guide3344" />
    <sodipodi:guide
       position="589.04521,468.07945"
       orientation="1,0"
       id="guide3346" />
    <inkscape:grid
       type="xygrid"
       id="grid3440" />
    <sodipodi:guide
       position="0,0"
       orientation="0,1"
       id="guide3405" />
    <sodipodi:guide
       position="214.125,684.50002"
       orientation="1,0"
       id="guide3407" />
    <sodipodi:guide
       position="0,0"
       orientation="0,1"
       id="guide3409" />
    <sodipodi:guide
       position="589.04521,378.30213"
       orientation="1,0"
       id="guide3411" />
    <sodipodi:guide
       position="564.00001,683.37502"
       orientation="1,0"
       id="guide3413" />
  </sodipodi:namedview>
  <metadata
     id="metadata7">
    <rdf:RDF>
      <cc:Work
         rdf:about="">
        <dc:format>image/svg+xml</dc:format>
        <dc:type
           rdf:resource="http://purl.org/dc/dcmitype/StillImage" />
        <dc:title>refuse</dc:title>
        <dc:date>June 2015</dc:date>
        <dc:creator>
          <cc:Agent>
            <dc:title>Johannes Hechler</dc:title>
          </cc:Agent>
        </dc:creator>
        <dc:rights>
          <cc:Agent>
            <dc:title>Johannes Hechler</dc:title>
          </cc:Agent>
        </dc:rights>
        <dc:publisher>
          <cc:Agent>
            <dc:title>RRZE</dc:title>
          </cc:Agent>
        </dc:publisher>
        <dc:contributor>
          <cc:Agent>
            <dc:title>Ute Weber, Hendrik Eggers</dc:title>
          </cc:Agent>
        </dc:contributor>
      </cc:Work>
    </rdf:RDF>
  </metadata>
  <g
     inkscape:label="Ebene 1"
     inkscape:groupmode="layer"
     id="layer1"
     transform="translate(0,-527.95276)">
    <g
       id="g4195">
      <path
         id="path4244"
         transform="translate(0,527.95276)"
         d="M 260.03125 -205.58203 C 248.64215 -205.60113 242.95981 -199.97072 243.00781 -188.75 C 242.95981 -95.42624 242.95983 63.661359 242.99023 177.31836 C 242.95993 188.66026 248.67581 194.41469 259.96875 194.33789 L 413.98438 194.37891 C 377.48247 171.90138 353.04492 131.56719 353.04492 85.730469 C 353.04492 15.533889 410.34911 -41.769531 480.54492 -41.769531 C 500.21357 -41.769531 518.8678 -37.266915 535.53516 -29.246094 L 535.53516 -79.523438 C 508.70704 -78.437707 418.39555 -71.403147 410.45508 -79.623047 C 402.51461 -87.842967 408.2793 -205.55859 408.2793 -205.55859 C 408.2793 -205.55859 285.09844 -205.58463 260.03125 -205.58203 z M 427.39062 -203.56445 C 426.48933 -169.52368 423.05995 -106.1289 429.89062 -98.814453 C 436.72129 -91.499993 498.07574 -97.626593 535.45898 -98.876953 C 509.12189 -141.45825 470.64981 -177.90525 427.39062 -203.56445 z M 480.54492 -3.7695312 C 430.87968 -3.7695312 391.04492 36.064519 391.04492 85.730469 C 391.04492 135.3956 430.87982 175.23047 480.54492 175.23047 C 501.33035 175.23047 520.39085 168.25082 535.5332 156.49609 L 535.53516 14.966797 C 520.39246 3.2111643 501.3314 -3.7695312 480.54492 -3.7695312 z "
         style="fill:url(#linearGradient4201);fill-opacity:1;fill-rule:evenodd;stroke:none;stroke-width:1px;stroke-linecap:butt;stroke-linejoin:miter;stroke-opacity:1" />
      <path
         inkscape:connector-curvature="0"
         id="rect4227"
         d="m 271.5725,485.75594 c -5.2669,0 -9.50781,4.24091 -9.50781,9.50781 l 0,0.0781 c 0,5.2669 4.24091,9.50586 9.50781,9.50586 l 114.68164,0 c 8.44497,-7.39312 17.75641,-13.81431 27.75586,-19.09179 l -142.4375,0 z m -1.05859,54.98828 c -4.87676,0 -8.80273,3.92597 -8.80273,8.80273 l 0,0.0723 c 0,4.87676 3.92597,8.80273 8.80273,8.80273 l 77.29883,0 c 2.5236,-6.11258 5.45626,-12.01743 8.76758,-17.67773 l -86.06641,0 z m 128.95117,0 c -4.83179,5.43399 -9.12891,11.35176 -12.80273,17.67773 l 0.008,0 c 3.67552,-6.32555 7.97337,-12.24356 12.80664,-17.67773 l -0.0117,0 z m 61.76758,1.02539 c -11.61714,3.06741 -22.03696,8.84448 -30.56055,16.65234 l 26.42578,0 c 4.87676,0 8.80274,-3.92597 8.80274,-8.80273 l 0,-0.0723 c 0,-3.37991 -1.88683,-6.30129 -4.66797,-7.77734 z m -190.19141,53.63086 c -5.16936,0 -9.33007,4.16266 -9.33007,9.33203 l 0,0.0762 c 0,5.16937 4.16071,9.33008 9.33007,9.33008 l 66.02149,0 c -0.004,-0.45549 -0.0176,-0.90878 -0.0176,-1.36524 0,-5.87772 0.36642,-11.67492 1.0625,-17.37304 l -67.06641,0 z m 138.02149,0 c -1.30789,5.55798 -2.01758,11.36939 -2.01758,17.37304 0,0.45839 0.0252,0.90906 0.0332,1.36524 l 62.05664,0 c 5.16937,0 9.33203,-4.16071 9.33203,-9.33008 l 0,-0.0762 c 0,-5.16937 -4.16266,-9.33203 -9.33203,-9.33203 l -60.07226,0 z"
         style="color:#252525;clip-rule:nonzero;display:inline;overflow:visible;visibility:visible;opacity:1;isolation:auto;mix-blend-mode:normal;color-interpolation:sRGB;color-interpolation-filters:linearRGB;solid-color:#252525;solid-opacity:1;fill:#ffffff;fill-opacity:1;fill-rule:nonzero;stroke:none;stroke-width:50;stroke-linecap:square;stroke-linejoin:round;stroke-miterlimit:4;stroke-dasharray:none;stroke-dashoffset:0;stroke-opacity:1;color-rendering:auto;image-rendering:auto;shape-rendering:auto;text-rendering:auto;enable-background:accumulate" />
      <rect
         inkscape:export-ydpi="4.9507661"
         inkscape:export-xdpi="4.9507661"
         y="322.18365"
         x="189.07642"
         height="400"
         width="399.93808"
         id="rect4196"
         style="color:#252525;clip-rule:nonzero;display:inline;overflow:visible;visibility:visible;opacity:0.68699999;isolation:auto;mix-blend-mode:normal;color-interpolation:sRGB;color-interpolation-filters:linearRGB;solid-color:#252525;solid-opacity:1;fill:none;fill-opacity:1;fill-rule:nonzero;stroke:none;stroke-width:10;stroke-linecap:butt;stroke-linejoin:round;stroke-miterlimit:4;stroke-dasharray:none;stroke-dashoffset:0;stroke-opacity:1;color-rendering:auto;image-rendering:auto;shape-rendering:auto;text-rendering:auto;enable-background:accumulate" />
      <path
         style="fill:#d9463a;fill-opacity:1;fill-rule:evenodd;stroke:none;stroke-width:16;stroke-miterlimit:4;stroke-dasharray:none;stroke-opacity:1"
         d="m 589.04521,613.68369 c 0,-59.93127 -48.56888,-108.50001 -108.4997,-108.50001 -59.93053,0 -108.5,48.56874 -108.5,108.50001 0,59.93056 48.56947,108.49996 108.5,108.49996 59.93082,0 108.4997,-48.5694 108.4997,-108.49996 z"
         id="path3359"
         inkscape:connector-curvature="0" />
      <path
         sodipodi:nodetypes="cccscsccsssscscsccsccc"
         inkscape:connector-curvature="0"
         id="rect4217"
         d="m 546.7058,668.27236 c 4.82397,-4.81439 4.82029,-12.56737 -0.002,-17.38174 l -38.11094,-38.03507 38.60744,-38.53058 c 4.47216,-4.46324 4.4685,-11.65064 -0.002,-16.11389 L 535.45395,546.4909 c -4.47214,-4.46325 -11.67391,-4.46692 -16.14607,-0.002 l -38.60738,38.53062 -38.39934,-38.32291 c -4.82397,-4.81434 -12.58876,-4.81436 -17.41276,0 l -10.62289,10.60177 c -4.82399,4.81436 -4.82396,12.56372 0,17.37808 l 38.39935,38.32288 -38.65489,38.57793 c -4.47215,4.46324 -4.46849,11.65067 0.002,16.11391 l 11.74357,11.91975 c 4.43424,4.5008 11.67389,4.4669 16.14604,0 l 38.65501,-38.77736 38.26093,38.53406 c 4.80196,4.8362 12.59244,4.818 17.41641,0 l 10.47294,-11.10073 z"
         style="opacity:1;fill:#ffffff;fill-opacity:1;stroke:none;stroke-width:0;stroke-linecap:square;stroke-linejoin:round;stroke-miterlimit:4;stroke-dasharray:none;stroke-opacity:1" />
    </g>
  </g>
</svg>
