<?xml version="1.0" encoding="UTF-8" standalone="no"?>
<!-- Created with Inkscape (http://www.inkscape.org/) -->

<svg
   xmlns:dc="http://purl.org/dc/elements/1.1/"
   xmlns:cc="http://creativecommons.org/ns#"
   xmlns:rdf="http://www.w3.org/1999/02/22-rdf-syntax-ns#"
   xmlns:svg="http://www.w3.org/2000/svg"
   xmlns="http://www.w3.org/2000/svg"
   xmlns:xlink="http://www.w3.org/1999/xlink"
   xmlns:sodipodi="http://sodipodi.sourceforge.net/DTD/sodipodi-0.dtd"
   xmlns:inkscape="http://www.inkscape.org/namespaces/inkscape"
   width="210mm"
   height="297mm"
   viewBox="0 0 744.09448819 1052.3622047"
   id="svg2"
   version="1.1"
   inkscape:version="0.91 r13725"
   inkscape:export-xdpi="4.9499798"
   inkscape:export-ydpi="4.9499798"
   sodipodi:docname="remove-participant.svg"
   inkscape:export-filename="D:\Dokumente\Arbeit\RRZE\github\bicons\22x22\actions\remove-participant.png">
  <defs
     id="defs4">
    <linearGradient
       id="linearGradient2224">
      <stop
         id="stop2226"
         offset="0"
         style="stop-color:#7c7c7c;stop-opacity:1;" />
      <stop
         id="stop2228"
         offset="1"
         style="stop-color:#b8b8b8;stop-opacity:1;" />
    </linearGradient>
    <linearGradient
       id="linearGradient15218">
      <stop
         id="stop15220"
         offset="0"
         style="stop-color:#eeeeef;stop-opacity:1;" />
      <stop
         id="stop2736"
         offset="0.59928656"
         style="stop-color:#d3d7cf;stop-opacity:1;" />
      <stop
         id="stop2738"
         offset="0.82758623"
         style="stop-color:#ffffff;stop-opacity:1;" />
      <stop
         id="stop15222"
         offset="1"
         style="stop-color:#d3d7cf;stop-opacity:1;" />
    </linearGradient>
    <pattern
       y="0"
       x="0"
       height="6"
       width="6"
       patternUnits="userSpaceOnUse"
       id="EMFhbasepattern" />
    <pattern
       y="0"
       x="0"
       height="6"
       width="6"
       patternUnits="userSpaceOnUse"
       id="EMFhbasepattern-5" />
    <linearGradient
       inkscape:collect="always"
       xlink:href="#linearGradient4254"
       id="linearGradient4268"
       x1="471.69119"
       y1="457.14825"
       x2="375.74777"
       y2="664.98523"
       gradientUnits="userSpaceOnUse"
       gradientTransform="matrix(1.1386133,0,0,1.1358522,-56.54006,-52.3296)" />
    <linearGradient
       inkscape:collect="always"
       id="linearGradient4254">
      <stop
         style="stop-color:#7a8597;stop-opacity:1"
         offset="0"
         id="stop4256" />
      <stop
         style="stop-color:#4e505d;stop-opacity:1"
         offset="1"
         id="stop4258" />
    </linearGradient>
    <linearGradient
       inkscape:collect="always"
       xlink:href="#linearGradient4254"
       id="linearGradient4260"
       x1="425.62207"
       y1="330.38269"
       x2="376.55045"
       y2="461.45456"
       gradientUnits="userSpaceOnUse"
       gradientTransform="matrix(1.1116851,0,0,1.1089893,-47.31417,-44.82492)" />
  </defs>
  <sodipodi:namedview
     id="base"
     pagecolor="#ffffff"
     bordercolor="#666666"
     borderopacity="1.0"
     inkscape:pageopacity="0.0"
     inkscape:pageshadow="2"
     inkscape:zoom="1"
     inkscape:cx="569.57039"
     inkscape:cy="481.15388"
     inkscape:document-units="px"
     inkscape:current-layer="layer1"
     showgrid="false"
     showguides="true"
     inkscape:guide-bbox="true"
     inkscape:window-width="1600"
     inkscape:window-height="837"
     inkscape:window-x="-4"
     inkscape:window-y="-4"
     inkscape:window-maximized="1"
     inkscape:snap-bbox="true"
     inkscape:bbox-paths="true"
     inkscape:bbox-nodes="true">
    <sodipodi:guide
       position="315.53572,730.17859"
       orientation="0,1"
       id="guide3338" />
    <sodipodi:guide
       position="351.25,330.17858"
       orientation="0,1"
       id="guide3340" />
    <sodipodi:guide
       position="189.10714,408.8393"
       orientation="1,0"
       id="guide3344" />
    <sodipodi:guide
       position="589.04521,468.07945"
       orientation="1,0"
       id="guide3346" />
    <inkscape:grid
       type="xygrid"
       id="grid3440" />
    <sodipodi:guide
       position="0,0"
       orientation="0,1"
       id="guide3405" />
    <sodipodi:guide
       position="214.125,684.50002"
       orientation="1,0"
       id="guide3407" />
    <sodipodi:guide
       position="0,0"
       orientation="0,1"
       id="guide3409" />
    <sodipodi:guide
       position="589.04521,378.30213"
       orientation="1,0"
       id="guide3411" />
    <sodipodi:guide
       position="564.00001,683.37502"
       orientation="1,0"
       id="guide3413" />
    <sodipodi:guide
       position="0,0"
       orientation="0,1"
       id="guide4168" />
  </sodipodi:namedview>
  <metadata
     id="metadata7">
    <rdf:RDF>
      <cc:Work
         rdf:about="">
        <dc:format>image/svg+xml</dc:format>
        <dc:type
           rdf:resource="http://purl.org/dc/dcmitype/StillImage" />
        <dc:title>remove participant</dc:title>
        <dc:date>June 2015</dc:date>
        <dc:creator>
          <cc:Agent>
            <dc:title>Johannes Hechler</dc:title>
          </cc:Agent>
        </dc:creator>
        <dc:rights>
          <cc:Agent>
            <dc:title>Johannes Hechler</dc:title>
          </cc:Agent>
        </dc:rights>
        <dc:publisher>
          <cc:Agent>
            <dc:title>RRZE</dc:title>
          </cc:Agent>
        </dc:publisher>
        <dc:contributor>
          <cc:Agent>
            <dc:title>Ute Weber, Hendrik Eggers</dc:title>
          </cc:Agent>
        </dc:contributor>
      </cc:Work>
    </rdf:RDF>
  </metadata>
  <g
     inkscape:label="Ebene 1"
     inkscape:groupmode="layer"
     id="layer1">
    <rect
       style="fill:none;fill-rule:evenodd;stroke:none;stroke-width:1px;stroke-linecap:butt;stroke-linejoin:miter;stroke-opacity:1"
       id="rect3336"
       width="400"
       height="400"
       x="189.10715"
       y="322.53125"
       inkscape:export-xdpi="4.9499998"
       inkscape:export-ydpi="4.9499998" />
    <path
       style="fill:url(#linearGradient4268);fill-opacity:1;stroke:none;stroke-width:41.15159225;stroke-linecap:round;stroke-linejoin:round;stroke-opacity:1"
       d="M 335.41797 484.99609 C 287.96741 513.03717 258.01744 570.24413 256.63672 648.23438 C 256.59769 650.10595 256.57031 651.98489 256.57031 653.88086 L 256.57031 653.88281 L 256.57031 653.88867 C 256.57037 655.81508 256.59754 657.73188 256.63672 659.64453 C 256.64946 660.27205 256.66672 660.89744 256.68359 661.52344 C 256.72025 662.87342 256.76655 664.21983 256.82227 665.5625 C 256.84849 666.19753 256.87189 666.83344 256.90234 667.4668 C 256.98916 669.26607 257.08872 671.06037 257.20898 672.8457 C 257.93005 683.54334 259.25105 693.98674 261.12305 704.10156 C 265.5192 713.91236 276.5639 721.10192 289.79883 722.04102 L 289.79883 722.15039 L 374.75781 722.15039 L 363.84766 711.05273 C 363.84373 711.04881 363.83986 711.04494 363.83594 711.04102 C 363.67218 710.87706 363.51925 710.70558 363.35938 710.53906 C 363.10198 710.27094 362.84104 710.00504 362.59375 709.73047 C 362.27166 709.37292 361.96513 709.00665 361.66016 708.63867 C 361.58642 708.54968 361.50633 708.46458 361.43359 708.375 C 361.08796 707.94942 360.75664 707.51648 360.43359 707.07812 C 360.40585 707.04047 360.37523 707.00454 360.34766 706.9668 C 359.99953 706.49041 359.66533 706.0059 359.34375 705.51562 C 359.07905 705.11207 358.82874 704.70134 358.58203 704.28906 C 358.52558 704.19469 358.46371 704.10262 358.4082 704.00781 C 358.20366 703.65858 358.01402 703.30219 357.82227 702.94727 C 357.73686 702.7891 357.64537 702.63385 357.5625 702.47461 C 357.29684 701.9644 357.04427 701.44832 356.80469 700.92773 C 356.58607 700.4527 356.38246 699.97306 356.18555 699.49023 C 356.16279 699.43441 356.13574 699.38014 356.11328 699.32422 C 355.89934 698.79193 355.69936 698.25542 355.51172 697.71484 C 355.32267 697.17024 355.14673 696.62221 354.98438 696.07031 C 354.82221 695.51905 354.67459 694.96369 354.53906 694.40625 C 354.40543 693.8566 354.28547 693.30459 354.17773 692.75 C 354.17596 692.74085 354.17364 692.73181 354.17188 692.72266 C 353.7365 690.47231 353.51488 688.18568 353.50586 685.89844 C 353.4694 676.65491 356.91101 667.39946 363.84375 660.4668 L 364.02539 660.28516 L 389.48242 634.82812 L 411.28516 613.02539 L 389.48242 591.22266 L 364.24219 565.98242 C 364.17052 565.91075 364.10416 565.83582 364.0332 565.76367 C 357.06398 558.67744 353.55077 549.31672 353.49414 539.93359 C 353.4907 539.36361 353.50137 538.79227 353.52344 538.22266 C 353.52485 538.18617 353.52583 538.14977 353.52734 538.11328 C 353.55217 537.51673 353.58977 536.92111 353.64258 536.32617 C 353.6959 535.72543 353.76385 535.1272 353.8457 534.5293 C 353.92739 533.93262 354.02271 533.3368 354.13281 532.74414 C 354.24299 532.15108 354.36723 531.5605 354.50586 530.97266 C 354.78316 529.79679 355.11666 528.6322 355.50781 527.48438 C 355.69776 526.92698 355.90234 526.37528 356.11914 525.82617 C 356.12604 525.8087 356.13175 525.7909 356.13867 525.77344 C 356.36235 525.20941 356.59953 524.64977 356.85156 524.0957 C 357.1038 523.54119 357.36975 522.99061 357.65039 522.44727 C 357.8685 522.02498 358.10262 521.61022 358.33789 521.19531 C 358.4101 521.06793 358.475 520.9372 358.54883 520.81055 C 358.85411 520.28698 359.17294 519.77014 359.50586 519.25977 C 359.84344 518.74224 360.19651 518.23129 360.5625 517.72852 C 360.92874 517.2254 361.30843 516.72934 361.70312 516.24219 C 362.49272 515.26762 363.33872 514.32736 364.24219 513.42383 L 364.24219 513.42188 L 380.77734 496.88867 L 380.77734 496.88672 C 380.82775 496.83632 380.881 496.79028 380.93164 496.74023 C 381.26828 496.40757 381.61023 496.08247 381.95703 495.76562 C 382.12084 495.61584 382.28714 495.4705 382.45312 495.32422 C 382.7065 495.10116 382.9624 494.88284 383.2207 494.66797 C 383.40433 494.51501 383.5874 494.36173 383.77344 494.21289 C 384.04166 493.99861 384.31288 493.79165 384.58594 493.58594 C 384.93688 493.32112 385.29183 493.06318 385.65039 492.8125 C 385.82846 492.68821 386.00764 492.56418 386.1875 492.44336 C 386.46157 492.25898 386.73752 492.07863 387.01562 491.90234 C 387.10569 491.84533 387.19664 491.79054 387.28711 491.73438 C 393.28224 488.00758 400.16668 486.13476 407.05664 486.13477 C 416.61211 486.13477 426.16896 489.71783 433.33789 496.88672 L 480.38086 543.92969 L 491.69141 532.61914 C 478.97287 512.36838 462.68632 496.30662 443.54688 484.99609 L 389.98633 485.23828 L 389.48242 485.23828 L 388.97852 485.23828 L 335.41797 484.99609 z M 407.05664 521.83398 C 406.99611 521.83398 406.93511 521.844 406.87305 521.86523 C 406.68685 521.92895 406.48733 522.08885 406.23242 522.34375 L 389.69727 538.87891 C 389.60151 538.97466 389.5512 539.05038 389.48242 539.13281 C 389.13119 539.5538 389.12995 539.85584 389.48242 540.27734 C 389.55082 540.35914 389.60236 540.43244 389.69727 540.52734 C 389.69769 540.52777 389.69684 540.52887 389.69727 540.5293 L 449.46875 600.29688 A 18.0018 18.0018 0 0 1 449.46875 625.75391 L 414.93945 660.28516 L 414.9375 660.28516 L 389.48242 685.74219 L 389.48047 685.74219 L 389.46289 685.75977 L 389.48242 685.78125 L 407.42383 704.02539 L 425.45898 685.89844 L 467.39648 643.74219 A 18.0018 18.0018 0 0 1 492.94141 643.76758 L 521.75586 672.8457 C 521.87612 671.06037 521.97568 669.26607 522.0625 667.4668 C 522.09296 666.83344 522.11635 666.19753 522.14258 665.5625 C 522.19829 664.21983 522.24459 662.87342 522.28125 661.52344 C 522.29812 660.89744 522.3154 660.27205 522.32812 659.64453 C 522.3673 657.73188 522.39448 655.81508 522.39453 653.88867 L 522.39453 653.88281 L 522.39453 653.88086 C 522.39453 651.98489 522.36715 650.10595 522.32812 648.23438 C 522.25679 644.20488 522.08953 640.24551 521.86719 636.32812 L 511.06836 625.5293 A 18.0018 18.0018 0 0 1 511.06836 600.07422 L 516.32812 594.81445 C 514.18874 585.02386 511.49446 575.72427 508.29492 566.92578 L 493.10742 582.11328 A 18.0018 18.0018 0 0 1 467.65234 582.11328 L 425.4707 539.93359 L 407.88086 522.34375 C 407.541 522.00389 407.29876 521.83399 407.05664 521.83398 z M 480.13086 681.98438 L 440.16992 722.15039 L 489.16602 722.15039 L 489.16602 722.04102 C 497.81757 721.42713 505.51835 718.13137 511.05273 713.18945 L 480.13086 681.98438 z "
       id="path2176" />
    <ellipse
       style="fill:url(#linearGradient4260);fill-opacity:1;stroke:none;stroke-width:14;stroke-miterlimit:4;stroke-dasharray:none;stroke-opacity:1"
       id="circle2187-6"
       cy="394.59308"
       cx="389.14468"
       rx="72.979141"
       ry="72.409439" />
    <path
       style="opacity:1;fill:#d9463a;fill-opacity:1;stroke:none;stroke-width:0;stroke-linecap:square;stroke-linejoin:round;stroke-miterlimit:4;stroke-dasharray:none;stroke-opacity:1"
       d="m 583.12174,699.23362 c 7.5088,-7.5088 7.50307,-19.6009 -0.004,-27.1097 l -59.322,-59.32196 60.09475,-60.09475 c 6.96117,-6.96117 6.9555,-18.17109 -0.004,-25.13227 L 565.60694,509.2954 c -6.96117,-6.96117 -18.17114,-6.96688 -25.13231,-0.004 l -60.09474,60.09475 -59.77083,-59.77088 c -7.50879,-7.50875 -19.59515,-7.50879 -27.10398,0 l -16.53515,16.5352 c -7.50882,7.50878 -7.50878,19.59519 0,27.10397 l 59.77082,59.77086 -60.16859,60.16862 c -6.96117,6.9611 -6.95545,18.171 0.004,25.1323 l 18.27954,18.5908 c 6.90217,7.0196 18.17111,6.9668 25.13228,0 l 60.16859,-60.47992 59.5554,60.10012 c 7.47454,7.543 19.60087,7.5145 27.10966,0 l 16.30175,-17.3133 z"
       id="rect4217"
       inkscape:connector-curvature="0"
       sodipodi:nodetypes="cccscsccsssscscsccsccc" />
  </g>
</svg>
