<?xml version="1.0" encoding="UTF-8" standalone="no"?>
<!-- Created with Inkscape (http://www.inkscape.org/) -->

<svg
   xmlns:dc="http://purl.org/dc/elements/1.1/"
   xmlns:cc="http://creativecommons.org/ns#"
   xmlns:rdf="http://www.w3.org/1999/02/22-rdf-syntax-ns#"
   xmlns:svg="http://www.w3.org/2000/svg"
   xmlns="http://www.w3.org/2000/svg"
   xmlns:xlink="http://www.w3.org/1999/xlink"
   xmlns:sodipodi="http://sodipodi.sourceforge.net/DTD/sodipodi-0.dtd"
   xmlns:inkscape="http://www.inkscape.org/namespaces/inkscape"
   width="210mm"
   height="297mm"
   viewBox="0 0 744.09448819 1052.3622047"
   id="svg2"
   version="1.1"
   inkscape:version="0.91 r13725"
   inkscape:export-xdpi="4.9457021"
   inkscape:export-ydpi="4.9457021"
   sodipodi:docname="remove-participant.svg"
   inkscape:export-filename="D:\Dokumente\Arbeit\RRZE\github\bicons\22x22\actions\remove-participant.png">
  <defs
     id="defs4">
    <linearGradient
       id="linearGradient2224">
      <stop
         id="stop2226"
         offset="0"
         style="stop-color:#7c7c7c;stop-opacity:1;" />
      <stop
         id="stop2228"
         offset="1"
         style="stop-color:#b8b8b8;stop-opacity:1;" />
    </linearGradient>
    <linearGradient
       id="linearGradient15218">
      <stop
         id="stop15220"
         offset="0"
         style="stop-color:#eeeeef;stop-opacity:1;" />
      <stop
         id="stop2736"
         offset="0.59928656"
         style="stop-color:#d3d7cf;stop-opacity:1;" />
      <stop
         id="stop2738"
         offset="0.82758623"
         style="stop-color:#ffffff;stop-opacity:1;" />
      <stop
         id="stop15222"
         offset="1"
         style="stop-color:#d3d7cf;stop-opacity:1;" />
    </linearGradient>
    <pattern
       y="0"
       x="0"
       height="6"
       width="6"
       patternUnits="userSpaceOnUse"
       id="EMFhbasepattern" />
    <pattern
       y="0"
       x="0"
       height="6"
       width="6"
       patternUnits="userSpaceOnUse"
       id="EMFhbasepattern-5" />
    <linearGradient
       inkscape:collect="always"
       xlink:href="#linearGradient4254"
       id="linearGradient4268"
       x1="471.69119"
       y1="457.14825"
       x2="375.74777"
       y2="664.98523"
       gradientUnits="userSpaceOnUse"
       gradientTransform="matrix(1.1386133,0,0,1.1358522,-245.6472,-374.51326)" />
    <linearGradient
       inkscape:collect="always"
       id="linearGradient4254">
      <stop
         style="stop-color:#7a8597;stop-opacity:1"
         offset="0"
         id="stop4256" />
      <stop
         style="stop-color:#4e505d;stop-opacity:1"
         offset="1"
         id="stop4258" />
    </linearGradient>
    <linearGradient
       inkscape:collect="always"
       xlink:href="#linearGradient4254"
       id="linearGradient4260"
       x1="425.62207"
       y1="330.38269"
       x2="376.55045"
       y2="461.45456"
       gradientUnits="userSpaceOnUse"
       gradientTransform="matrix(1.1116851,0,0,1.1089893,-236.42131,285.35356)" />
  </defs>
  <sodipodi:namedview
     id="base"
     pagecolor="#ffffff"
     bordercolor="#666666"
     borderopacity="1.0"
     inkscape:pageopacity="0.0"
     inkscape:pageshadow="2"
     inkscape:zoom="1"
     inkscape:cx="367.13228"
     inkscape:cy="584.81719"
     inkscape:document-units="px"
     inkscape:current-layer="layer1"
     showgrid="false"
     showguides="true"
     inkscape:guide-bbox="true"
     inkscape:window-width="1600"
     inkscape:window-height="837"
     inkscape:window-x="-4"
     inkscape:window-y="-4"
     inkscape:window-maximized="1"
     inkscape:snap-bbox="true"
     inkscape:bbox-paths="true"
     inkscape:bbox-nodes="true">
    <sodipodi:guide
       position="315.53572,730.17859"
       orientation="0,1"
       id="guide3338" />
    <sodipodi:guide
       position="351.25,330.17858"
       orientation="0,1"
       id="guide3340" />
    <sodipodi:guide
       position="189.10714,408.8393"
       orientation="1,0"
       id="guide3344" />
    <sodipodi:guide
       position="589.04521,468.07945"
       orientation="1,0"
       id="guide3346" />
    <inkscape:grid
       type="xygrid"
       id="grid3440" />
    <sodipodi:guide
       position="0,0"
       orientation="0,1"
       id="guide3405" />
    <sodipodi:guide
       position="214.125,684.50002"
       orientation="1,0"
       id="guide3407" />
    <sodipodi:guide
       position="0,0"
       orientation="0,1"
       id="guide3409" />
    <sodipodi:guide
       position="589.04521,378.30213"
       orientation="1,0"
       id="guide3411" />
    <sodipodi:guide
       position="564.00001,683.37502"
       orientation="1,0"
       id="guide3413" />
    <sodipodi:guide
       position="0,0"
       orientation="0,1"
       id="guide4168" />
  </sodipodi:namedview>
  <metadata
     id="metadata7">
    <rdf:RDF>
      <cc:Work
         rdf:about="">
        <dc:format>image/svg+xml</dc:format>
        <dc:type
           rdf:resource="http://purl.org/dc/dcmitype/StillImage" />
        <dc:title>remove participant</dc:title>
        <dc:date>June 2015</dc:date>
        <dc:creator>
          <cc:Agent>
            <dc:title>Johannes Hechler</dc:title>
          </cc:Agent>
        </dc:creator>
        <dc:rights>
          <cc:Agent>
            <dc:title>Johannes Hechler</dc:title>
          </cc:Agent>
        </dc:rights>
        <dc:publisher>
          <cc:Agent>
            <dc:title>RRZE</dc:title>
          </cc:Agent>
        </dc:publisher>
        <dc:contributor>
          <cc:Agent>
            <dc:title>Ute Weber, Hendrik Eggers</dc:title>
          </cc:Agent>
        </dc:contributor>
      </cc:Work>
    </rdf:RDF>
  </metadata>
  <g
     inkscape:label="Ebene 1"
     inkscape:groupmode="layer"
     id="layer1">
    <g
       id="g4229"
       transform="translate(29.107938,2.9952337)">
      <g
         id="g5988"
         transform="translate(159.9992,-333.17371)">
        <rect
           style="fill:none;fill-rule:evenodd;stroke:none;stroke-width:1px;stroke-linecap:butt;stroke-linejoin:miter;stroke-opacity:1"
           id="rect3336"
           width="400"
           height="400"
           x="2.3828125e-007"
           y="652.70972"
           inkscape:export-xdpi="4.9499998"
           inkscape:export-ydpi="4.9499998" />
        <path
           style="fill:url(#linearGradient4268);fill-opacity:1;stroke:none;stroke-width:41.15159225;stroke-linecap:round;stroke-linejoin:round;stroke-opacity:1"
           d="m 146.31055,162.8125 c -48.591193,28.71514 -78.847659,88.00288 -78.847659,168.88672 0,17.37276 1.588954,34.20475 4.552734,50.21875 4.39616,9.8108 15.440851,17.00035 28.675785,17.93945 l 0,0.10938 84.96093,0 -10.91211,-11.09766 c -13.78715,-13.7907 -13.80079,-36.78917 -0.004,-50.58594 l 47.4414,-47.4414 -47.04296,-47.04297 c -14.33787,-14.33787 -14.33798,-38.2207 0,-52.5586 l 16.53515,-16.53515 c 7.16896,-7.16892 16.72383,-10.75392 26.2793,-10.75391 9.55547,1e-5 19.11232,3.58501 26.28125,10.75391 l 47.04297,47.04297 10.58008,-10.58008 c -12.84813,-20.39656 -29.08134,-36.66649 -47.70508,-48.05664 l -54.27735,-0.0566 -53.56054,-0.24219 z m 71.63867,36.83789 c -0.24212,-10e-6 -0.48434,0.1699 -0.82422,0.50977 l -16.53516,16.53711 c -0.67966,0.67966 -0.67969,0.96874 0,1.64843 l 59.77149,59.77149 a 18.0018,18.0018 0 0 1 0,25.45508 l -60.00586,60.00585 17.96094,18.26563 59.97265,-60.2832 a 18.0018,18.0018 0 0 1 25.54688,0.0254 l 28.8125,29.07617 c 0.42027,-6.23898 0.63867,-12.56494 0.63867,-18.96484 0,-5.97612 -0.20199,-11.82717 -0.55469,-17.57813 l -10.77148,-10.77148 a 18.0018,18.0018 0 0 1 0,-25.45704 l 4.9375,-4.9375 c -2.21929,-9.6833 -4.97347,-18.92797 -8.2461,-27.67382 L 304,259.93164 a 18.0018,18.0018 0 0 1 -25.45508,0 l -59.77148,-59.77148 c -0.33986,-0.33985 -0.5821,-0.50977 -0.82422,-0.50977 z m 73.07617,160.15039 -39.96094,40.16602 46.33594,0 0,-0.01 c 9.68849,-0.13644 18.36231,-3.62642 24.40234,-9.0957 l -30.77734,-31.06055 z"
           transform="translate(0,652.36214)"
           id="path2176"
           inkscape:connector-curvature="0" />
        <ellipse
           style="fill:url(#linearGradient4260);fill-opacity:1;stroke:none;stroke-width:14;stroke-miterlimit:4;stroke-dasharray:none;stroke-opacity:1"
           id="circle2187-6"
           cy="724.77155"
           cx="200.03755"
           rx="72.979141"
           ry="72.409439" />
        <path
           style="opacity:1;fill:#d9463a;fill-opacity:1;stroke:none;stroke-width:0;stroke-linecap:square;stroke-linejoin:round;stroke-miterlimit:4;stroke-dasharray:none;stroke-opacity:1"
           d="m 394.0146,1029.4121 c 7.5088,-7.5088 7.50307,-19.6009 -0.004,-27.1097 l -59.322,-59.32196 60.09475,-60.09475 c 6.96117,-6.96117 6.9555,-18.17109 -0.004,-25.13227 L 376.4998,839.47388 c -6.96117,-6.96117 -18.17114,-6.96688 -25.13231,-0.004 l -60.09474,60.09475 -59.77083,-59.77088 c -7.50879,-7.50875 -19.59515,-7.50879 -27.10398,0 l -16.53515,16.5352 c -7.50882,7.50878 -7.50878,19.59519 0,27.10397 l 59.77082,59.77086 -60.16859,60.16862 c -6.96117,6.9611 -6.95545,18.171 0.004,25.1323 l 18.27954,18.5908 c 6.90217,7.0196 18.17111,6.9668 25.13228,0 l 60.16859,-60.47992 59.5554,60.10012 c 7.47454,7.543 19.60087,7.5145 27.10966,0 l 16.30175,-17.3133 z"
           id="rect4217"
           inkscape:connector-curvature="0"
           sodipodi:nodetypes="cccscsccsssscscsccsccc" />
      </g>
    </g>
  </g>
</svg>
