<?xml version="1.0" encoding="UTF-8" standalone="no"?>
<!-- Created with Inkscape (http://www.inkscape.org/) -->

<svg
   xmlns:dc="http://purl.org/dc/elements/1.1/"
   xmlns:cc="http://creativecommons.org/ns#"
   xmlns:rdf="http://www.w3.org/1999/02/22-rdf-syntax-ns#"
   xmlns:svg="http://www.w3.org/2000/svg"
   xmlns="http://www.w3.org/2000/svg"
   xmlns:sodipodi="http://sodipodi.sourceforge.net/DTD/sodipodi-0.dtd"
   xmlns:inkscape="http://www.inkscape.org/namespaces/inkscape"
   width="210mm"
   height="297mm"
   viewBox="0 0 744.09448819 1052.3622047"
   id="svg2"
   version="1.1"
   inkscape:version="0.91 r13725"
   inkscape:export-xdpi="4.9499998"
   inkscape:export-ydpi="4.9499998"
   sodipodi:docname="switch-course-grey.svg"
   inkscape:export-filename="C:\Users\johannes\Documents\Arbeit\RRZE\github3\bicons\22x22\actions\switch-course-grey.png">
  <defs
     id="defs4">
    <linearGradient
       id="linearGradient2224">
      <stop
         id="stop2226"
         offset="0"
         style="stop-color:#7c7c7c;stop-opacity:1;" />
      <stop
         id="stop2228"
         offset="1"
         style="stop-color:#b8b8b8;stop-opacity:1;" />
    </linearGradient>
    <linearGradient
       id="linearGradient15218">
      <stop
         id="stop15220"
         offset="0"
         style="stop-color:#eeeeef;stop-opacity:1;" />
      <stop
         id="stop2736"
         offset="0.59928656"
         style="stop-color:#d3d7cf;stop-opacity:1;" />
      <stop
         id="stop2738"
         offset="0.82758623"
         style="stop-color:#ffffff;stop-opacity:1;" />
      <stop
         id="stop15222"
         offset="1"
         style="stop-color:#d3d7cf;stop-opacity:1;" />
    </linearGradient>
    <pattern
       y="0"
       x="0"
       height="6"
       width="6"
       patternUnits="userSpaceOnUse"
       id="EMFhbasepattern" />
  </defs>
  <sodipodi:namedview
     id="base"
     pagecolor="#ffffff"
     bordercolor="#666666"
     borderopacity="1.0"
     inkscape:pageopacity="0.0"
     inkscape:pageshadow="2"
     inkscape:zoom="0.5"
     inkscape:cx="481.64308"
     inkscape:cy="361.52914"
     inkscape:document-units="px"
     inkscape:current-layer="layer1"
     showgrid="false"
     showguides="true"
     inkscape:guide-bbox="true"
     inkscape:window-width="1366"
     inkscape:window-height="721"
     inkscape:window-x="-4"
     inkscape:window-y="-4"
     inkscape:window-maximized="1"
     inkscape:snap-bbox="true"
     inkscape:bbox-paths="true"
     inkscape:bbox-nodes="true"
     inkscape:snap-nodes="false">
    <sodipodi:guide
       position="315.53572,730.17859"
       orientation="0,1"
       id="guide3338" />
    <sodipodi:guide
       position="351.25,330.17858"
       orientation="0,1"
       id="guide3340" />
    <sodipodi:guide
       position="189.10714,408.8393"
       orientation="1,0"
       id="guide3344" />
    <inkscape:grid
       type="xygrid"
       id="grid3440" />
    <sodipodi:guide
       position="0,0"
       orientation="0,1"
       id="guide3405" />
    <sodipodi:guide
       position="0,0"
       orientation="0,1"
       id="guide3409" />
    <sodipodi:guide
       position="589.04521,378.30213"
       orientation="1,0"
       id="guide3411" />
  </sodipodi:namedview>
  <metadata
     id="metadata7">
    <rdf:RDF>
      <cc:Work
         rdf:about="">
        <dc:format>image/svg+xml</dc:format>
        <dc:type
           rdf:resource="http://purl.org/dc/dcmitype/StillImage" />
        <dc:title>switch course grey</dc:title>
        <dc:date>June 2015</dc:date>
        <dc:creator>
          <cc:Agent>
            <dc:title>Johannes Hechler</dc:title>
          </cc:Agent>
        </dc:creator>
        <dc:rights>
          <cc:Agent>
            <dc:title>Johannes Hechler</dc:title>
          </cc:Agent>
        </dc:rights>
        <dc:publisher>
          <cc:Agent>
            <dc:title>RRZE</dc:title>
          </cc:Agent>
        </dc:publisher>
        <dc:contributor>
          <cc:Agent>
            <dc:title>Ute Weber, Hendrik Eggers</dc:title>
          </cc:Agent>
        </dc:contributor>
      </cc:Work>
    </rdf:RDF>
  </metadata>
  <g
     inkscape:label="Ebene 1"
     inkscape:groupmode="layer"
     id="layer1">
    <path
       inkscape:connector-curvature="0"
       style="fill:#7a859c;fill-opacity:1;stroke:none;stroke-width:41.15159225;stroke-linecap:round;stroke-linejoin:round;stroke-opacity:1"
       d="m 335.35603,484.99609 c -48.59119,28.71515 -78.84766,88.00289 -78.84766,168.88672 0,17.37278 1.587,34.20473 4.55078,50.21875 4.39616,9.8108 15.44281,17.00222 28.67774,17.94141 l 0,0.10742 81.76562,0 -62.33593,-53.92969 a 18.0018,18.0018 0 0 1 -0.46875,-0.42187 c -2.58591,-2.4005 -6.74327,-6.1712 -8.28907,-12.79297 -1.11307,-3.57217 -1.20868,-7.01548 -0.83984,-9.03711 1.21791,-6.67539 2.91964,-7.37639 3.95508,-8.76367 2.07087,-2.77457 3.61235,-4.16963 5.17383,-5.61914 a 18.0018,18.0018 0 0 1 0.44531,-0.40039 l 74.9668,-65.0918 c 5.01462,-4.8151 11.34126,-7.804 19.41406,-7.35352 1.30515,0.0728 2.67825,0.29871 4.06445,0.64454 l 0.17578,-27.62696 c 0.0947,-14.81291 13.47494,-27.78077 28.35156,-27.63867 l 31.56055,0.30078 c -7.57174,-7.38868 -15.7647,-13.7933 -24.48242,-19.125 l -54.27734,-0.0566 -53.56055,-0.24219 z m 108.35547,55.19922 -0.23438,36.7461 54.64844,-0.0586 a 18.0018,18.0018 0 0 1 15.44922,8.77149 c -4.53009,-16.47893 -10.71454,-31.52547 -18.28906,-44.9668 l -51.57422,-0.49219 z m 72.43359,55.81836 0,3.84766 0.70899,-0.61328 c -0.22819,-1.08484 -0.46725,-2.16054 -0.70899,-3.23438 z m -126.87305,13.27344 -46.51562,40.38867 46.48828,40.2207 0,-4.18164 a 18.0018,18.0018 0 0 1 18,-18 l 54.66797,0 -0.23438,-36.8125 -54.40234,0.0918 A 18.0018,18.0018 0 0 1 389.2447,612.85352 l 0.0273,-3.56641 z m 132.8086,33.04297 -0.64844,0.5625 0.46875,-0.42188 c -6.42026,5.96003 -15.88589,7.99605 -24.11328,5.49805 l 0.17773,27.72461 c 0.0964,15.0894 -13.18747,28.02163 -28.17968,28.02148 l -44.54102,0 0,10.49805 -0.0391,-1.19141 c 0.19381,2.9199 -0.20089,6.06143 -1.125,9.12891 l 62.36523,0 0,-0.008 c 14.85491,-0.20918 27.36468,-8.27377 31.56836,-19.32813 2.81283,-15.6284 4.31836,-32.02269 4.31836,-48.93164 0,-3.90272 -0.10049,-7.7453 -0.25195,-11.55273 z"
       id="path2176" />
    <rect
       style="fill:none;fill-rule:evenodd;stroke:none;stroke-width:1px;stroke-linecap:butt;stroke-linejoin:miter;stroke-opacity:1"
       id="rect3336"
       width="400"
       height="400"
       x="189.0452"
       y="322.53122"
       inkscape:export-xdpi="4.9499998"
       inkscape:export-ydpi="4.9499998" />
    <path
       sodipodi:nodetypes="cccscsssscsccsc"
       inkscape:connector-curvature="0"
       id="path4620"
       d="m 317.76663,649.69183 c 0,1.47446 1.0588,2.9489 3.1766,4.91486 l 75.7121,65.50362 c 4.2355,3.9319 11.1104,1.9605 10.5888,-5.8978 l 8e-4,-28.4974 62.5408,0 c 5.8661,5e-4 10.2141,-4.4602 10.1793,-9.9057 l -0.3398,-53.16629 c -0.035,-5.44555 -4.3135,-9.81625 -10.1793,-9.75366 l -62.201,0.10536 0.2313,-29.72906 c 0.061,-7.86351 -7.1708,-7.9989 -11.2159,-3.88275 l -75.3171,65.39368 c -2.1178,1.96594 -4.8071,4.91484 -3.1766,4.91484 z"
       style="fill:#7a859c;fill-opacity:1;fill-rule:evenodd;stroke:none;stroke-width:1px;stroke-linecap:butt;stroke-linejoin:miter;stroke-opacity:1" />
    <path
       sodipodi:nodetypes="cccscsssscsccsc"
       inkscape:connector-curvature="0"
       id="path4634"
       d="m 588.54397,558.86029 c 0,1.47446 -1.05887,2.9489 -3.17663,4.91485 l -75.71217,65.50363 c -4.2355,3.93188 -11.50993,1.44747 -11.50993,-6.42813 l 0,-27.96712 -62.54071,0.066 c -5.86614,0.006 -10.2141,-4.46016 -10.1793,-9.90569 l 0.3398,-53.17127 c 0.0348,-5.44555 4.31343,-9.80969 10.1793,-9.75366 l 63.06684,0.6024 -0.86593,-30.16176 c -0.22567,-7.86051 7.85993,-8.1239 11.90503,-4.00775 l 75.31712,65.39368 c 2.11774,1.96594 4.80703,4.91484 3.17662,4.91484 z"
       style="fill:#7a859c;fill-opacity:1;fill-rule:evenodd;stroke:none;stroke-width:1px;stroke-linecap:butt;stroke-linejoin:miter;stroke-opacity:1" />
    <rect
       style="fill:none;fill-rule:evenodd;stroke:none;stroke-width:1px;stroke-linecap:butt;stroke-linejoin:miter;stroke-opacity:1"
       id="rect3336-9"
       width="400"
       height="400"
       x="189.0452"
       y="322.53122"
       inkscape:export-xdpi="4.9499998"
       inkscape:export-ydpi="4.9499998" />
    <ellipse
       style="fill:#7a859c;fill-opacity:1;stroke:none;stroke-width:14;stroke-miterlimit:4;stroke-dasharray:none;stroke-opacity:1"
       id="circle2187-6"
       cy="394.59308"
       cx="389.08276"
       rx="72.979141"
       ry="72.409439" />
  </g>
</svg>
