<?xml version="1.0" encoding="UTF-8" standalone="no"?>
<!-- Created with Inkscape (http://www.inkscape.org/) -->

<svg
   xmlns:dc="http://purl.org/dc/elements/1.1/"
   xmlns:cc="http://creativecommons.org/ns#"
   xmlns:rdf="http://www.w3.org/1999/02/22-rdf-syntax-ns#"
   xmlns:svg="http://www.w3.org/2000/svg"
   xmlns="http://www.w3.org/2000/svg"
   xmlns:sodipodi="http://sodipodi.sourceforge.net/DTD/sodipodi-0.dtd"
   xmlns:inkscape="http://www.inkscape.org/namespaces/inkscape"
   width="210mm"
   height="297mm"
   viewBox="0 0 744.09448819 1052.3622047"
   id="svg2"
   version="1.1"
   inkscape:version="0.91 r13725"
   inkscape:export-xdpi="4.8553114"
   inkscape:export-ydpi="4.8553114"
   sodipodi:docname="view.svg"
   inkscape:export-filename="C:\Users\johannes\Documents\Arbeit\RRZE\github3\bicons\22x22\actions\view.png">
  <defs
     id="defs4">
    <linearGradient
       id="linearGradient2224">
      <stop
         id="stop2226"
         offset="0"
         style="stop-color:#7c7c7c;stop-opacity:1;" />
      <stop
         id="stop2228"
         offset="1"
         style="stop-color:#b8b8b8;stop-opacity:1;" />
    </linearGradient>
    <linearGradient
       id="linearGradient15218">
      <stop
         id="stop15220"
         offset="0"
         style="stop-color:#eeeeef;stop-opacity:1;" />
      <stop
         id="stop2736"
         offset="0.59928656"
         style="stop-color:#d3d7cf;stop-opacity:1;" />
      <stop
         id="stop2738"
         offset="0.82758623"
         style="stop-color:#ffffff;stop-opacity:1;" />
      <stop
         id="stop15222"
         offset="1"
         style="stop-color:#d3d7cf;stop-opacity:1;" />
    </linearGradient>
    <pattern
       y="0"
       x="0"
       height="6"
       width="6"
       patternUnits="userSpaceOnUse"
       id="EMFhbasepattern" />
  </defs>
  <sodipodi:namedview
     id="base"
     pagecolor="#ffffff"
     bordercolor="#666666"
     borderopacity="1.0"
     inkscape:pageopacity="0.0"
     inkscape:pageshadow="2"
     inkscape:zoom="1"
     inkscape:cx="172.61977"
     inkscape:cy="497.11561"
     inkscape:document-units="px"
     inkscape:current-layer="g4177"
     showgrid="false"
     showguides="true"
     inkscape:guide-bbox="true"
     inkscape:window-width="1366"
     inkscape:window-height="721"
     inkscape:window-x="-4"
     inkscape:window-y="-4"
     inkscape:window-maximized="1">
    <sodipodi:guide
       position="315.53572,730.17859"
       orientation="0,1"
       id="guide3338" />
    <sodipodi:guide
       position="351.25,330.17858"
       orientation="0,1"
       id="guide3340" />
    <sodipodi:guide
       position="189.10714,408.8393"
       orientation="1,0"
       id="guide3344" />
    <inkscape:grid
       type="xygrid"
       id="grid3440" />
    <sodipodi:guide
       position="589.04521,378.30213"
       orientation="1,0"
       id="guide3411" />
  </sodipodi:namedview>
  <metadata
     id="metadata7">
    <rdf:RDF>
      <cc:Work
         rdf:about="">
        <dc:format>image/svg+xml</dc:format>
        <dc:type
           rdf:resource="http://purl.org/dc/dcmitype/StillImage" />
        <dc:title>view</dc:title>
        <dc:date>June 2015</dc:date>
        <dc:creator>
          <cc:Agent>
            <dc:title>Johannes Hechler</dc:title>
          </cc:Agent>
        </dc:creator>
        <dc:rights>
          <cc:Agent>
            <dc:title>Johannes Hechler</dc:title>
          </cc:Agent>
        </dc:rights>
        <dc:publisher>
          <cc:Agent>
            <dc:title>RRZE</dc:title>
          </cc:Agent>
        </dc:publisher>
        <dc:contributor>
          <cc:Agent>
            <dc:title>Ute Weber, Hendrik Eggers</dc:title>
          </cc:Agent>
        </dc:contributor>
      </cc:Work>
    </rdf:RDF>
  </metadata>
  <g
     inkscape:label="Ebene 1"
     inkscape:groupmode="layer"
     id="layer1">
    <rect
       style="fill:none;fill-rule:evenodd;stroke:none;stroke-width:1px;stroke-linecap:butt;stroke-linejoin:miter;stroke-opacity:1"
       id="rect3336"
       width="407.77817"
       height="407.77817"
       x="181.36667"
       y="322.27005"
       inkscape:export-xdpi="4.9499998"
       inkscape:export-ydpi="4.9499998" />
    <g
       id="g4177"
       transform="matrix(2.1523043,0,0,2.1523043,-570.85136,-889.04949)">
      <g
         id="g4165">
        <rect
           y="562.79071"
           x="353.39676"
           height="185.84732"
           width="185.81856"
           id="rect4199"
           style="color:#000000;clip-rule:nonzero;display:inline;overflow:visible;visibility:visible;opacity:1;isolation:auto;mix-blend-mode:normal;color-interpolation:sRGB;color-interpolation-filters:linearRGB;solid-color:#000000;solid-opacity:1;fill:none;fill-opacity:1;fill-rule:nonzero;stroke:none;stroke-width:2.36500001;stroke-linecap:square;stroke-linejoin:round;stroke-miterlimit:4;stroke-dasharray:none;stroke-dashoffset:0;stroke-opacity:1;color-rendering:auto;image-rendering:auto;shape-rendering:auto;text-rendering:auto;enable-background:accumulate" />
        <ellipse
           ry="13.936804"
           rx="15.271178"
           cy="644.81879"
           cx="473.40137"
           id="path4179"
           style="color:#000000;clip-rule:nonzero;display:inline;overflow:visible;visibility:visible;opacity:1;isolation:auto;mix-blend-mode:normal;color-interpolation:sRGB;color-interpolation-filters:linearRGB;solid-color:#000000;solid-opacity:1;fill:#ffffff;fill-opacity:1;fill-rule:nonzero;stroke:none;stroke-width:3;stroke-linecap:square;stroke-linejoin:round;stroke-miterlimit:4;stroke-dasharray:none;stroke-dashoffset:0;stroke-opacity:1;color-rendering:auto;image-rendering:auto;shape-rendering:auto;text-rendering:auto;enable-background:accumulate" />
        <ellipse
           ry="41.698273"
           rx="45.505508"
           cy="655.71863"
           cx="445.43582"
           id="path4190"
           style="color:#000000;clip-rule:nonzero;display:inline;overflow:visible;visibility:visible;opacity:1;isolation:auto;mix-blend-mode:normal;color-interpolation:sRGB;color-interpolation-filters:linearRGB;solid-color:#000000;solid-opacity:1;fill:#4e505d;fill-opacity:1;fill-rule:nonzero;stroke:none;stroke-width:2.36500001;stroke-linecap:square;stroke-linejoin:round;stroke-miterlimit:4;stroke-dasharray:none;stroke-dashoffset:0;stroke-opacity:1;color-rendering:auto;image-rendering:auto;shape-rendering:auto;text-rendering:auto;enable-background:accumulate" />
        <ellipse
           ry="14.906076"
           rx="14.635055"
           cy="639.22906"
           cx="470.45438"
           id="path4192"
           style="color:#000000;clip-rule:nonzero;display:inline;overflow:visible;visibility:visible;opacity:1;isolation:auto;mix-blend-mode:normal;color-interpolation:sRGB;color-interpolation-filters:linearRGB;solid-color:#000000;solid-opacity:1;fill:#ffffff;fill-opacity:1;fill-rule:nonzero;stroke:none;stroke-width:2.36500001;stroke-linecap:square;stroke-linejoin:round;stroke-miterlimit:4;stroke-dasharray:none;stroke-dashoffset:0;stroke-opacity:1;color-rendering:auto;image-rendering:auto;shape-rendering:auto;text-rendering:auto;enable-background:accumulate" />
        <path
           sodipodi:nodetypes="cccccccccccccccccccccccccccccsccccccccccccccccccccccccccccccccccsccscc"
           inkscape:connector-curvature="0"
           id="path4181"
           d="m 445.73109,609.91187 c -51.22412,0 -84.61001,41.3596 -85.50681,42.48102 l -0.053,0.0618 c -0.009,0.009 -0.27283,0.29667 -0.27283,0.29667 -0.10325,0.13421 -0.19955,0.27282 -0.28871,0.41675 -0.0883,0.13508 -0.16688,0.27371 -0.24016,0.41673 l -0.0441,0.0883 c -0.0618,0.11743 -0.11124,0.2384 -0.15981,0.36024 -0.0962,0.24988 -0.1713,0.5068 -0.22427,0.76903 l -0.0353,0.13597 c -0.0176,0.10336 -0.0353,0.20839 -0.0441,0.31257 -0.009,0.053 -0.0176,0.11213 -0.0265,0.16863 l 0,0.0265 c -0.009,0.15452 -0.009,0.30992 -0.007,0.46443 l 0.007,0.14392 c 0.007,0.12008 0.0176,0.24016 0.0353,0.36023 0.009,0.0618 0.0265,0.11832 0.0353,0.17659 0.0353,0.23663 0.0953,0.46973 0.16864,0.69753 l 0.009,0.053 0.007,0.0176 c 0.053,0.14392 0.11125,0.28607 0.17659,0.42468 0.0353,0.0794 0.0794,0.16158 0.12007,0.24016 0.0265,0.0618 0.0618,0.12891 0.0962,0.19249 l 0.0176,0.0265 c 0.0794,0.12891 0.15981,0.25429 0.2481,0.37612 l 0.0176,0.0265 c 0.0441,0.0618 0.0883,0.11831 0.12802,0.17658 0,0 0.11124,0.11831 0.11213,0.12008 0.053,0.0618 0.11125,0.12449 0.16863,0.18454 0.76285,0.95559 34.22514,42.53708 85.55493,42.53708 51.22419,0 84.61,-41.35961 85.5069,-42.48103 l 0.0176,-0.0176 0.0441,-0.0441 c 0.009,-0.009 0.27282,-0.29666 0.27282,-0.29666 0.10336,-0.13421 0.19954,-0.27283 0.28873,-0.41675 0.0794,-0.12714 0.1607,-0.25869 0.2322,-0.39291 l 0.0176,-0.0353 0.0353,-0.0794 c 0.0618,-0.11831 0.11213,-0.2384 0.16068,-0.36023 0.0962,-0.2499 0.1713,-0.50683 0.22427,-0.76905 l 0.0353,-0.13598 c 0.0176,-0.10336 0.0353,-0.20838 0.0441,-0.31254 0.009,-0.053 0.0176,-0.11214 0.0265,-0.16865 l 0,-0.0265 c 0.009,-0.15187 0.009,-0.3046 0.007,-0.45647 l 0,-0.0353 -0.007,-0.12008 c -0.007,-0.12008 -0.0176,-0.24016 -0.0353,-0.36023 -0.009,-0.0618 -0.0265,-0.11832 -0.0353,-0.1766 -0.0353,-0.23662 -0.0945,-0.46973 -0.16776,-0.69753 l -0.009,-0.0441 -0.009,-0.0265 c -0.053,-0.1439 -0.11124,-0.28607 -0.17658,-0.42468 l -0.009,-0.0265 c -0.0618,-0.13951 -0.13244,-0.27548 -0.20837,-0.4088 l -0.0176,-0.0265 c -0.0794,-0.12892 -0.1598,-0.2543 -0.2481,-0.37614 l -0.0176,-0.0265 c -0.0441,-0.0618 -0.0883,-0.11831 -0.12802,-0.17659 0,0 -0.11125,-0.11832 -0.11214,-0.12008 -0.053,-0.0618 -0.11125,-0.12449 -0.16862,-0.18453 -0.76285,-0.95559 -34.22515,-42.53707 -85.55501,-42.53707 z m 67.51223,50.7256 c -11.89342,11.40303 -34.12749,28.34823 -67.51223,28.34823 -33.38468,0 -55.61875,-16.9452 -67.51215,-28.34823 -3.60556,-4.01859 -3.39825,-6.07874 0,-9.70284 11.8934,-11.40302 34.12747,-28.34823 67.51215,-28.34823 33.38474,0 55.61881,16.94521 67.51223,28.34823 2.70426,2.65129 3.1307,6.4095 0,9.70284 z"
           style="color:#000000;font-style:normal;font-variant:normal;font-weight:normal;font-stretch:normal;font-size:medium;line-height:normal;font-family:sans-serif;text-indent:0;text-align:start;text-decoration:none;text-decoration-line:none;text-decoration-style:solid;text-decoration-color:#000000;letter-spacing:normal;word-spacing:normal;text-transform:none;direction:ltr;block-progression:tb;writing-mode:lr-tb;baseline-shift:baseline;text-anchor:start;white-space:normal;clip-rule:nonzero;display:inline;overflow:visible;visibility:visible;opacity:1;isolation:auto;mix-blend-mode:normal;color-interpolation:sRGB;color-interpolation-filters:linearRGB;solid-color:#000000;solid-opacity:1;fill:#4e505d;fill-opacity:1;fill-rule:evenodd;stroke:none;stroke-width:2.36500001;stroke-linecap:butt;stroke-linejoin:round;stroke-miterlimit:4;stroke-dasharray:none;stroke-dashoffset:0;stroke-opacity:1;color-rendering:auto;image-rendering:auto;shape-rendering:auto;text-rendering:auto;enable-background:accumulate" />
      </g>
    </g>
  </g>
</svg>
