<?xml version="1.0" encoding="UTF-8" standalone="no"?>
<!-- Created with Inkscape (http://www.inkscape.org/) -->
<svg xmlns:dc="http://purl.org/dc/elements/1.1/" xmlns:cc="http://creativecommons.org/ns#" xmlns:rdf="http://www.w3.org/1999/02/22-rdf-syntax-ns#" xmlns:svg="http://www.w3.org/2000/svg" xmlns="http://www.w3.org/2000/svg" xmlns:xlink="http://www.w3.org/1999/xlink" xmlns:sodipodi="http://sodipodi.sourceforge.net/DTD/sodipodi-0.dtd" xmlns:inkscape="http://www.inkscape.org/namespaces/inkscape" width="210mm" height="297mm" id="svg6025" version="1.1" inkscape:version="0.48.0 r9654">
  <title id="title6845">500</title>
  <defs id="defs3">
    <linearGradient inkscape:collect="always" id="linearGradient7197">
      <stop style="stop-color:#ffffff;stop-opacity:1;" offset="0" id="stop7199"/>
      <stop style="stop-color:#ffffff;stop-opacity:0;" offset="1" id="stop7201"/>
    </linearGradient>
    <linearGradient inkscape:collect="always" id="linearGradient7116">
      <stop style="stop-color:#2e3436;stop-opacity:1;" offset="0" id="stop7118"/>
      <stop style="stop-color:#2e3436;stop-opacity:0;" offset="1" id="stop7120"/>
    </linearGradient>
    <linearGradient inkscape:collect="always" id="linearGradient6965">
      <stop style="stop-color:#ffffff;stop-opacity:1;" offset="0" id="stop6967"/>
      <stop style="stop-color:#ffffff;stop-opacity:0;" offset="1" id="stop6969"/>
    </linearGradient>
    <linearGradient inkscape:collect="always" id="linearGradient6957">
      <stop style="stop-color:#ffffff;stop-opacity:1;" offset="0" id="stop6959"/>
      <stop style="stop-color:#ffffff;stop-opacity:0;" offset="1" id="stop6961"/>
    </linearGradient>
    <linearGradient inkscape:collect="always" id="linearGradient6947">
      <stop style="stop-color:#ffffff;stop-opacity:1;" offset="0" id="stop6949"/>
      <stop style="stop-color:#ffffff;stop-opacity:0;" offset="1" id="stop6951"/>
    </linearGradient>
    <linearGradient inkscape:collect="always" id="linearGradient6939">
      <stop style="stop-color:#ffffff;stop-opacity:1;" offset="0" id="stop6941"/>
      <stop style="stop-color:#ffffff;stop-opacity:0;" offset="1" id="stop6943"/>
    </linearGradient>
    <linearGradient inkscape:collect="always" id="linearGradient6929">
      <stop style="stop-color:#ffffff;stop-opacity:1;" offset="0" id="stop6931"/>
      <stop style="stop-color:#ffffff;stop-opacity:0;" offset="1" id="stop6933"/>
    </linearGradient>
    <linearGradient inkscape:collect="always" id="linearGradient6921">
      <stop style="stop-color:#ffffff;stop-opacity:1;" offset="0" id="stop6923"/>
      <stop style="stop-color:#ffffff;stop-opacity:0;" offset="1" id="stop6925"/>
    </linearGradient>
    <linearGradient inkscape:collect="always" id="linearGradient6911">
      <stop style="stop-color:#ffffff;stop-opacity:1;" offset="0" id="stop6913"/>
      <stop style="stop-color:#ffffff;stop-opacity:0;" offset="1" id="stop6915"/>
    </linearGradient>
    <linearGradient inkscape:collect="always" id="linearGradient6893">
      <stop style="stop-color:#ffffff;stop-opacity:1;" offset="0" id="stop6895"/>
      <stop style="stop-color:#ffffff;stop-opacity:0;" offset="1" id="stop6897"/>
    </linearGradient>
    <linearGradient id="linearGradient6869">
      <stop style="stop-color:#ffffff;stop-opacity:0;" offset="0" id="stop6871"/>
      <stop id="stop6881" offset="0.25" style="stop-color:#ffffff;stop-opacity:0.49803922;"/>
      <stop id="stop6877" offset="0.5" style="stop-color:#ffffff;stop-opacity:1;"/>
      <stop style="stop-color:#ffffff;stop-opacity:0.49803922;" offset="0.75" id="stop6879"/>
      <stop style="stop-color:#ffffff;stop-opacity:0;" offset="1" id="stop6873"/>
    </linearGradient>
    <linearGradient inkscape:collect="always" id="linearGradient6861">
      <stop style="stop-color:#ffffff;stop-opacity:1;" offset="0" id="stop6863"/>
      <stop style="stop-color:#ffffff;stop-opacity:0;" offset="1" id="stop6865"/>
    </linearGradient>
    <linearGradient inkscape:collect="always" xlink:href="#linearGradient6861" id="linearGradient6867" x1="258.68207" y1="411.4807" x2="488.74652" y2="411.4807" gradientUnits="userSpaceOnUse" gradientTransform="translate(0,24)"/>
    <linearGradient inkscape:collect="always" xlink:href="#linearGradient6869" id="linearGradient6875" x1="258.68207" y1="411.4807" x2="488.74652" y2="411.4807" gradientUnits="userSpaceOnUse" gradientTransform="translate(0,24)"/>
    <linearGradient inkscape:collect="always" xlink:href="#linearGradient6869" id="linearGradient6891" x1="167.75189" y1="572.72687" x2="579.6767" y2="572.72687" gradientUnits="userSpaceOnUse" gradientTransform="translate(0,16)"/>
    <linearGradient inkscape:collect="always" xlink:href="#linearGradient6893" id="linearGradient6899" x1="167.75189" y1="572.72688" x2="579.6767" y2="572.72688" gradientUnits="userSpaceOnUse" gradientTransform="translate(0,16)"/>
    <linearGradient inkscape:collect="always" xlink:href="#linearGradient6869" id="linearGradient6909" x1="74.050323" y1="766.04425" x2="673.3783" y2="766.04425" gradientUnits="userSpaceOnUse"/>
    <linearGradient inkscape:collect="always" xlink:href="#linearGradient6911" id="linearGradient6917" x1="74.05032" y1="766.04424" x2="673.37827" y2="766.04424" gradientUnits="userSpaceOnUse"/>
    <radialGradient inkscape:collect="always" xlink:href="#linearGradient6921" id="radialGradient6927" cx="372.14285" cy="683.75836" fx="372.14285" fy="683.75836" r="299.97767" gradientTransform="matrix(0.90820348,0,0,0.17858488,35.589987,538.82469)" gradientUnits="userSpaceOnUse"/>
    <linearGradient inkscape:collect="always" xlink:href="#linearGradient6929" id="linearGradient6935" x1="72.165177" y1="683.75836" x2="672.12053" y2="683.75836" gradientUnits="userSpaceOnUse" gradientTransform="matrix(0.90820348,0,0,1.4727999,35.589987,-346.10566)"/>
    <radialGradient inkscape:collect="always" xlink:href="#linearGradient6939" id="radialGradient6945" cx="373.57144" cy="488.0765" fx="373.57144" fy="488.0765" r="204.65717" gradientTransform="matrix(1,0,0,0.19377374,0,400.78582)" gradientUnits="userSpaceOnUse"/>
    <linearGradient inkscape:collect="always" xlink:href="#linearGradient6947" id="linearGradient6953" x1="168.91427" y1="488.0765" x2="578.22861" y2="488.0765" gradientUnits="userSpaceOnUse" gradientTransform="translate(0,7.2857147)"/>
    <radialGradient inkscape:collect="always" xlink:href="#linearGradient6957" id="radialGradient6963" cx="373.78571" cy="340.57646" fx="373.78571" fy="340.57646" r="115.2706" gradientTransform="matrix(1.002531,-1.5398788e-8,0,0.22168155,-0.94604318,293.36266)" gradientUnits="userSpaceOnUse"/>
    <linearGradient inkscape:collect="always" xlink:href="#linearGradient6965" id="linearGradient6971" x1="283.09576" y1="324.92276" x2="489.05631" y2="340.57646" gradientUnits="userSpaceOnUse" gradientTransform="matrix(1.002531,0,0,0.84416465,-0.94604202,81.359566)"/>
    <radialGradient inkscape:collect="always" xlink:href="#linearGradient7116" id="radialGradient7122" cx="375.77673" cy="830.1286" fx="375.77673" fy="830.1286" r="296.98486" gradientTransform="matrix(1,0,0,0.14965986,0,705.89167)" gradientUnits="userSpaceOnUse"/>
    <radialGradient inkscape:collect="always" xlink:href="#linearGradient6957" id="radialGradient7160" gradientUnits="userSpaceOnUse" gradientTransform="matrix(0.92366236,-1.4187373e-8,0,0.20424197,30.752834,298.42021)" cx="373.78571" cy="340.57646" fx="373.78571" fy="340.57646" r="115.2706"/>
    <linearGradient inkscape:collect="always" xlink:href="#linearGradient6965" id="linearGradient7162" gradientUnits="userSpaceOnUse" gradientTransform="matrix(0.92366236,0,0,0.77775461,30.752835,103.0953)" x1="283.09576" y1="324.92276" x2="489.05631" y2="340.57646"/>
    <linearGradient inkscape:collect="always" xlink:href="#linearGradient6869" id="linearGradient7165" gradientUnits="userSpaceOnUse" x1="74.050323" y1="766.04425" x2="673.3783" y2="766.04425" gradientTransform="matrix(0.92133047,0,0,0.92133047,31.624452,28.136256)"/>
    <linearGradient inkscape:collect="always" xlink:href="#linearGradient6911" id="linearGradient7167" gradientUnits="userSpaceOnUse" x1="74.05032" y1="766.04424" x2="673.37827" y2="766.04424" gradientTransform="matrix(0.92133047,0,0,0.92133047,31.624452,28.136256)"/>
    <linearGradient inkscape:collect="always" xlink:href="#linearGradient6869" id="linearGradient7170" gradientUnits="userSpaceOnUse" gradientTransform="matrix(0.92133047,0,0,0.92133047,31.624452,42.877544)" x1="167.75189" y1="572.72687" x2="579.6767" y2="572.72687"/>
    <linearGradient inkscape:collect="always" xlink:href="#linearGradient6893" id="linearGradient7172" gradientUnits="userSpaceOnUse" gradientTransform="matrix(0.92133047,0,0,0.92133047,31.624452,42.877544)" x1="167.75189" y1="572.72688" x2="579.6767" y2="572.72688"/>
    <linearGradient inkscape:collect="always" xlink:href="#linearGradient6869" id="linearGradient7175" gradientUnits="userSpaceOnUse" gradientTransform="matrix(0.92133047,0,0,0.92133047,31.624452,50.248187)" x1="258.68207" y1="411.4807" x2="488.74652" y2="411.4807"/>
    <linearGradient inkscape:collect="always" xlink:href="#linearGradient6861" id="linearGradient7177" gradientUnits="userSpaceOnUse" gradientTransform="matrix(0.92133047,0,0,0.92133047,31.624452,50.248187)" x1="258.68207" y1="411.4807" x2="488.74652" y2="411.4807"/>
    <radialGradient inkscape:collect="always" xlink:href="#linearGradient6939" id="radialGradient7182" gradientUnits="userSpaceOnUse" gradientTransform="matrix(0.92133047,0,0,0.17852965,31.624452,397.39244)" cx="373.57144" cy="488.0765" fx="373.57144" fy="488.0765" r="204.65717"/>
    <linearGradient inkscape:collect="always" xlink:href="#linearGradient6947" id="linearGradient7184" gradientUnits="userSpaceOnUse" gradientTransform="matrix(0.92133047,0,0,0.92133047,31.624452,34.848807)" x1="168.91427" y1="488.0765" x2="578.22861" y2="488.0765"/>
    <radialGradient inkscape:collect="always" xlink:href="#linearGradient6921" id="radialGradient7189" gradientUnits="userSpaceOnUse" gradientTransform="matrix(0.83675554,0,0,0.16453569,64.414591,524.57186)" cx="372.14285" cy="683.75836" fx="372.14285" fy="683.75836" r="299.97767"/>
    <linearGradient inkscape:collect="always" xlink:href="#linearGradient6929" id="linearGradient7191" gradientUnits="userSpaceOnUse" gradientTransform="matrix(0.83675554,0,0,1.3569354,64.414591,-290.74143)" x1="72.165177" y1="683.75836" x2="672.12053" y2="683.75836"/>
    <linearGradient inkscape:collect="always" xlink:href="#linearGradient7197" id="linearGradient7203" x1="253.11781" y1="542.79059" x2="248.75658" y2="582.07629" gradientUnits="userSpaceOnUse"/>
    <radialGradient inkscape:collect="always" xlink:href="#linearGradient6957" id="radialGradient3139" gradientUnits="userSpaceOnUse" gradientTransform="matrix(0.92366236,-1.4187373e-8,0,0.20424197,30.752834,298.42021)" cx="373.78571" cy="340.57646" fx="373.78571" fy="340.57646" r="115.2706"/>
    <linearGradient inkscape:collect="always" xlink:href="#linearGradient6965" id="linearGradient3141" gradientUnits="userSpaceOnUse" gradientTransform="matrix(0.92366236,0,0,0.77775461,30.752835,103.0953)" x1="283.09576" y1="324.92276" x2="489.05631" y2="340.57646"/>
    <linearGradient inkscape:collect="always" xlink:href="#linearGradient6869" id="linearGradient3144" gradientUnits="userSpaceOnUse" gradientTransform="matrix(0.92133047,0,0,0.92133047,31.624452,28.136256)" x1="74.050323" y1="766.04425" x2="673.3783" y2="766.04425"/>
    <linearGradient inkscape:collect="always" xlink:href="#linearGradient6911" id="linearGradient3146" gradientUnits="userSpaceOnUse" gradientTransform="matrix(0.92133047,0,0,0.92133047,31.624452,28.136256)" x1="74.05032" y1="766.04424" x2="673.37827" y2="766.04424"/>
    <linearGradient inkscape:collect="always" xlink:href="#linearGradient6869" id="linearGradient3149" gradientUnits="userSpaceOnUse" gradientTransform="matrix(0.92133047,0,0,0.92133047,31.624452,42.877544)" x1="167.75189" y1="572.72687" x2="579.6767" y2="572.72687"/>
    <linearGradient inkscape:collect="always" xlink:href="#linearGradient6893" id="linearGradient3151" gradientUnits="userSpaceOnUse" gradientTransform="matrix(0.92133047,0,0,0.92133047,31.624452,42.877544)" x1="167.75189" y1="572.72688" x2="579.6767" y2="572.72688"/>
    <linearGradient inkscape:collect="always" xlink:href="#linearGradient6869" id="linearGradient3154" gradientUnits="userSpaceOnUse" gradientTransform="matrix(0.92133047,0,0,0.92133047,31.624452,50.248187)" x1="258.68207" y1="411.4807" x2="488.74652" y2="411.4807"/>
    <linearGradient inkscape:collect="always" xlink:href="#linearGradient6861" id="linearGradient3156" gradientUnits="userSpaceOnUse" gradientTransform="matrix(0.92133047,0,0,0.92133047,31.624452,50.248187)" x1="258.68207" y1="411.4807" x2="488.74652" y2="411.4807"/>
    <radialGradient inkscape:collect="always" xlink:href="#linearGradient6939" id="radialGradient3161" gradientUnits="userSpaceOnUse" gradientTransform="matrix(0.92133047,0,0,0.17852965,31.624452,397.39244)" cx="373.57144" cy="488.0765" fx="373.57144" fy="488.0765" r="204.65717"/>
    <linearGradient inkscape:collect="always" xlink:href="#linearGradient6947" id="linearGradient3163" gradientUnits="userSpaceOnUse" gradientTransform="matrix(0.92133047,0,0,0.92133047,31.624452,34.848807)" x1="168.91427" y1="488.0765" x2="578.22861" y2="488.0765"/>
    <radialGradient inkscape:collect="always" xlink:href="#linearGradient6921" id="radialGradient3168" gradientUnits="userSpaceOnUse" gradientTransform="matrix(0.83675554,0,0,0.16453569,64.414591,524.57186)" cx="372.14285" cy="683.75836" fx="372.14285" fy="683.75836" r="299.97767"/>
    <linearGradient inkscape:collect="always" xlink:href="#linearGradient6929" id="linearGradient3170" gradientUnits="userSpaceOnUse" gradientTransform="matrix(0.83675554,0,0,1.3569354,64.414591,-290.74143)" x1="72.165177" y1="683.75836" x2="672.12053" y2="683.75836"/>
  </defs>
  <sodipodi:namedview inkscape:document-units="mm" id="base" pagecolor="#ffffff" bordercolor="#666666" borderopacity="1.0" inkscape:pageopacity="0.0" inkscape:pageshadow="2" inkscape:zoom="0.49497475" inkscape:cx="271.88292" inkscape:cy="603.98113" inkscape:current-layer="layer1" showgrid="false" showguides="true" inkscape:guide-bbox="true" inkscape:snap-global="false" inkscape:window-width="1243" inkscape:window-height="702" inkscape:window-x="20" inkscape:window-y="20" inkscape:window-maximized="0">
    <sodipodi:guide orientation="0,1" position="-348.57143,891.42857" id="guide6801"/>
    <sodipodi:guide orientation="0,1" position="-314.28571,168.57143" id="guide6803"/>
    <sodipodi:guide orientation="1,0" position="737.14286,68.571429" id="guide6805"/>
    <sodipodi:guide orientation="1,0" position="15.714286,592.85714" id="guide6807"/>
    <sodipodi:guide orientation="1,0" position="374.28571,97.142857" id="guide6813"/>
  </sodipodi:namedview>
  <metadata id="metadata4">
    <rdf:RDF>
      <cc:Work rdf:about="">
        <dc:format>image/svg+xml</dc:format>
        <dc:type rdf:resource="http://purl.org/dc/dcmitype/StillImage"/>
        <dc:title>500</dc:title>
        <dc:date>Feb 2014</dc:date>
        <dc:creator>
          <cc:Agent>
            <dc:title>Franziska Sponsel</dc:title>
          </cc:Agent>
        </dc:creator>
        <dc:rights>
          <cc:Agent>
            <dc:title>Franziska Sponsel</dc:title>
          </cc:Agent>
        </dc:rights>
        <dc:publisher>
          <cc:Agent>
            <dc:title>RRZE</dc:title>
          </cc:Agent>
        </dc:publisher>
        <dc:subject>
          <rdf:Bag>
            <rdf:li>500</rdf:li>
            <rdf:li>500th icon</rdf:li>
            <rdf:li>anniversary</rdf:li>
            <rdf:li>celebrate</rdf:li>
            <rdf:li>cake</rdf:li>
            <rdf:li>party</rdf:li>
            <rdf:li>whoop whoop</rdf:li>
          </rdf:Bag>
        </dc:subject>
        <cc:license rdf:resource="http://creativecommons.org/licenses/by-sa/3.0/"/>
      </cc:Work>
      <cc:License rdf:about="http://creativecommons.org/licenses/by-sa/3.0/">
        <cc:permits rdf:resource="http://creativecommons.org/ns#Reproduction"/>
        <cc:permits rdf:resource="http://creativecommons.org/ns#Distribution"/>
        <cc:requires rdf:resource="http://creativecommons.org/ns#Notice"/>
        <cc:requires rdf:resource="http://creativecommons.org/ns#Attribution"/>
        <cc:permits rdf:resource="http://creativecommons.org/ns#DerivativeWorks"/>
        <cc:requires rdf:resource="http://creativecommons.org/ns#ShareAlike"/>
      </cc:License>
    </rdf:RDF>
  </metadata>
  <g inkscape:label="Layer 1" inkscape:groupmode="layer" id="layer1">
    <g id="g3944">
      <path transform="matrix(1.047619,0,0,1.3409091,-17.894129,-304.21159)" d="m 672.7616,830.1286 a 296.98486,44.446712 0 1 1 -593.96973,0 296.98486,44.446712 0 1 1 593.96973,0 z" sodipodi:ry="44.446712" sodipodi:rx="296.98486" sodipodi:cy="830.1286" sodipodi:cx="375.77673" id="path7114" style="fill:url(#radialGradient7122);fill-opacity:1;stroke:none" sodipodi:type="arc"/>
      <path id="rect6031" d="m 14.285714,160.93361 722.857116,0 0,722.85712 -722.857116,0 z" style="opacity:0.55214724;fill:none;stroke:none" inkscape:connector-curvature="0"/>
      <path sodipodi:nodetypes="ccccc" inkscape:connector-curvature="0" id="rect6811" d="m 103.07392,633.95039 c 180.66776,23.39608 362.57644,23.41943 545.72979,0 l 0,166.5026 c -190.00486,54.85065 -371.21175,53.50164 -545.72979,0 z" style="fill:#3465a4;fill-opacity:1;stroke:#204a87;stroke-width:20;stroke-linejoin:round;stroke-miterlimit:4;stroke-dasharray:none"/>
      <path sodipodi:nodetypes="sssss" inkscape:connector-curvature="0" id="path6820" d="m 647.73112,631.80979 c 0,24.06062 -121.7445,54.09509 -271.92394,54.09509 -150.17944,0 -271.92393,-30.03447 -271.92393,-54.09509 0,-24.06062 121.74449,-43.56562 271.92393,-43.56562 150.17944,0 271.92394,19.505 271.92394,43.56562 z" style="fill:#3465a4;fill-opacity:1;stroke:#204a87;stroke-width:20;stroke-linecap:round;stroke-linejoin:round;stroke-miterlimit:4;stroke-opacity:1;stroke-dashoffset:22.80179958000000084;stroke-dasharray:none"/>
      <path style="fill:url(#radialGradient3168);fill-opacity:1;stroke:url(#linearGradient3170);stroke-width:6.44931316;stroke-linecap:round;stroke-linejoin:round;stroke-miterlimit:4;stroke-opacity:1;stroke-dasharray:none;stroke-dashoffset:22.80179958" d="m 636.3492,632.27221 c 0,21.94714 -123.55567,44.77822 -260.54202,45.39484 -146.20104,0.6581 -264.08991,-32.77477 -263.17438,-45.39484 1.40482,-19.36452 126.18665,-33.81599 263.17438,-33.81599 136.98774,0 260.54202,11.86884 260.54202,33.81599 z" id="path6919" inkscape:connector-curvature="0" sodipodi:nodetypes="sssss"/>
      <path style="fill:#73d216;fill-opacity:1;stroke:#4e9a06;stroke-width:20;stroke-linejoin:round;stroke-miterlimit:4;stroke-dasharray:none" d="m 189.40404,491.18249 c 123.50735,17.3495 247.86302,17.36681 373.06956,0 l 0,131.27907 c -130.14822,38.64308 -253.28712,34.50511 -373.06956,0 z" id="path6816" inkscape:connector-curvature="0" sodipodi:nodetypes="ccccc"/>
      <path sodipodi:nodetypes="sssss" inkscape:connector-curvature="0" id="path6822" d="m 560.2181,487.29255 c 0,14.98163 -81.24739,37.65614 -183.09471,37.65614 -101.84733,0 -185.72709,-22.67451 -185.72709,-37.65614 0,-14.98162 82.56357,-27.12664 184.41089,-27.12664 101.84734,0 184.41091,12.14502 184.41091,27.12664 z" style="fill:#73d216;fill-opacity:1;stroke:#4e9a06;stroke-width:20;stroke-linecap:round;stroke-linejoin:round;stroke-miterlimit:4;stroke-opacity:1;stroke-dashoffset:22.80179958000000084;stroke-dasharray:none"/>
      <path style="fill:url(#radialGradient3161);fill-opacity:1;stroke:url(#linearGradient3163);stroke-width:6.44931316;stroke-linecap:round;stroke-linejoin:round;stroke-miterlimit:4;stroke-opacity:1;stroke-dasharray:none;stroke-dashoffset:22.80179958" d="m 553.30812,487.48999 c 0.35653,3.83415 -63.15115,29.12642 -176.18473,29.42996 -110.4035,0.29648 -177.50092,-24.31973 -177.50092,-29.42996 0,-5.76832 74.3374,-19.88761 176.18472,-19.88761 101.84734,0 176.77086,12.03637 177.50093,19.88761 z" id="path6937" inkscape:connector-curvature="0" sodipodi:nodetypes="sssss"/>
      <path sodipodi:nodetypes="ccccc" inkscape:connector-curvature="0" id="path6818" d="m 274.10211,367.33245 c 67.42755,14.51649 135.31822,14.53098 203.67342,0 l 0,109.84254 c -68.79726,18.50405 -136.73128,19.37979 -203.67342,0 z" style="fill:#cc0000;fill-opacity:1;stroke:#a40000;stroke-width:20;stroke-linejoin:round;stroke-miterlimit:4;stroke-dasharray:none"/>
      <path inkscape:connector-curvature="0" id="path6824" d="m 477.99921,364.03166 c 0,13.07893 -45.66453,23.68149 -101.99458,23.68149 -56.33007,0 -101.9946,-10.60256 -101.9946,-23.68149 0,-13.07893 45.66453,-23.68149 101.9946,-23.68149 56.33005,0 101.99458,10.60256 101.99458,23.68149 z" style="fill:#cc0000;fill-opacity:1;stroke:#a40000;stroke-width:20;stroke-linecap:round;stroke-linejoin:round;stroke-miterlimit:4;stroke-opacity:1;stroke-dashoffset:22.80179958000000084;stroke-dasharray:none"/>
      <path style="opacity:0.78527605;fill:url(#linearGradient3154);fill-opacity:1;stroke:url(#linearGradient3156);stroke-width:6.44931316;stroke-linejoin:miter;stroke-miterlimit:4;stroke-opacity:1;stroke-dasharray:none" d="m 281.78026,380.59469 c 43.60096,22.71322 155.96478,18.3528 188.54979,-1.62869 l 0,91.92687 c -61.81713,17.10802 -130.05941,16.25472 -188.54979,0.93068 z" id="path6851" inkscape:connector-curvature="0" sodipodi:nodetypes="ccccc"/>
      <path sodipodi:nodetypes="ccccc" inkscape:connector-curvature="0" id="path6883" d="m 196.97211,502.69913 c 26.10956,20.63995 225.91209,55.91035 357.93342,0 l 0,114.82674 c -130.14822,38.64308 -238.15098,33.84701 -357.93342,-0.6581 z" style="fill:url(#linearGradient3149);fill-opacity:1;stroke:url(#linearGradient3151);stroke-width:6.44931316;stroke-linejoin:miter;stroke-miterlimit:4;stroke-opacity:1;stroke-dasharray:none"/>
      <path style="fill:url(#linearGradient3144);fill-opacity:1;stroke:url(#linearGradient3146);stroke-width:6.44931316;stroke-linejoin:miter;stroke-miterlimit:4;stroke-opacity:1;stroke-dasharray:none" d="m 110.98474,649.77202 c 98.76754,52.71264 367.6952,61.11215 529.90815,3.72274 l 0,141.29429 c -201.98552,58.11302 -382.62279,46.12977 -529.90815,0 z" id="path6901" inkscape:connector-curvature="0" sodipodi:nodetypes="ccccc"/>
      <path sodipodi:nodetypes="sssss" style="fill:url(#radialGradient3139);fill-opacity:1;stroke:url(#linearGradient3141);stroke-width:6.44931316;stroke-linecap:round;stroke-linejoin:round;stroke-miterlimit:4;stroke-opacity:1;stroke-dasharray:none;stroke-dashoffset:22.80179958" d="m 466.41168,365.01879 c -0.20748,5.43394 -33.27634,14.72634 -89.74896,14.72634 -56.47263,0 -97.02209,-11.14039 -95.01371,-16.37157 1.32594,-3.45364 37.88299,-15.38442 94.35562,-15.38442 56.47261,0 90.6654,10.26343 90.40705,17.02965 z" id="path6955" inkscape:connector-curvature="0"/>
      <rect transform="matrix(0.97872749,-0.20516457,0.20516457,0.97872749,0,0)" rx="6.0609155" ry="11.111678" y="261.67871" x="213.99013" height="157.36223" width="11.244783" id="rect6973" style="fill:#c17d11;fill-opacity:1;stroke:#8f5902;stroke-width:4.51137209;stroke-linecap:round;stroke-linejoin:miter;stroke-miterlimit:4;stroke-opacity:1;stroke-dasharray:none;stroke-dashoffset:22.80179958"/>
      <rect style="fill:#c17d11;fill-opacity:1;stroke:#8f5902;stroke-width:4.51137209;stroke-linecap:round;stroke-linejoin:miter;stroke-miterlimit:4;stroke-opacity:1;stroke-dasharray:none;stroke-dashoffset:22.80179958" id="rect6975" width="11.244784" height="157.36223" x="-534.42871" y="86.822411" ry="11.111678" rx="6.0609155" transform="matrix(-0.97005159,-0.24289899,-0.24289899,0.97005159,0,0)"/>
      <path sodipodi:nodetypes="cc" inkscape:connector-curvature="0" id="path6977" d="m 270.81032,213.14272 c 70.72139,13.09862 142.15479,21.5691 217.78013,2.79205" style="fill:none;stroke:#000000;stroke-width:1.8426609;stroke-linecap:butt;stroke-linejoin:miter;stroke-miterlimit:4;stroke-opacity:1;stroke-dasharray:none"/>
      <path sodipodi:nodetypes="cc" inkscape:connector-curvature="0" id="path7002" d="m 314.55248,243.96822 0,-24.31072" style="fill:none;stroke:#000000;stroke-width:1.8426609;stroke-linecap:butt;stroke-linejoin:miter;stroke-miterlimit:4;stroke-opacity:1;stroke-dasharray:none"/>
      <path sodipodi:nodetypes="cc" inkscape:connector-curvature="0" id="path7004" d="m 332.23549,244.8989 0,-22.91468" style="fill:none;stroke:#000000;stroke-width:1.8426609;stroke-linecap:butt;stroke-linejoin:miter;stroke-miterlimit:4;stroke-opacity:1;stroke-dasharray:none"/>
      <path sodipodi:nodetypes="cc" inkscape:connector-curvature="0" id="path7006" d="m 368.06684,254.45494 0,-28.28264" style="fill:none;stroke:#000000;stroke-width:1.8426609;stroke-linecap:butt;stroke-linejoin:miter;stroke-miterlimit:4;stroke-opacity:1;stroke-dasharray:none"/>
      <path sodipodi:nodetypes="cc" inkscape:connector-curvature="0" id="path7008" d="m 385.74983,254.53478 0,-28.82782" style="fill:none;stroke:#000000;stroke-width:1.8426609;stroke-linecap:butt;stroke-linejoin:miter;stroke-miterlimit:4;stroke-opacity:1;stroke-dasharray:none"/>
      <path sodipodi:nodetypes="cc" inkscape:connector-curvature="0" id="path7010" d="m 422.51187,251.63951 0,-25.52367" style="fill:none;stroke:#000000;stroke-width:1.8426609;stroke-linecap:butt;stroke-linejoin:miter;stroke-miterlimit:4;stroke-opacity:1;stroke-dasharray:none"/>
      <path sodipodi:nodetypes="cc" inkscape:connector-curvature="0" id="path7012" d="m 445.31364,250.07412 0,-26.69388" style="fill:none;stroke:#000000;stroke-width:1.8426609;stroke-linecap:butt;stroke-linejoin:miter;stroke-miterlimit:4;stroke-opacity:1;stroke-dasharray:none"/>
      <path sodipodi:nodetypes="cc" inkscape:connector-curvature="0" id="path7019" d="m 193.51538,534.41199 c 112.76315,40.56539 226.19953,50.25511 369.84837,-5.26475" style="fill:none;stroke:#000000;stroke-width:2;stroke-linecap:butt;stroke-linejoin:miter;stroke-miterlimit:4;stroke-opacity:1;stroke-dasharray:none"/>
      <path sodipodi:nodetypes="cc" inkscape:connector-curvature="0" id="path7021" d="m 107.96326,688.4058 c 212.86027,93.20213 383.21747,61.01446 543.58498,9.21331" style="fill:none;stroke:#000000;stroke-width:2;stroke-linecap:butt;stroke-linejoin:miter;stroke-miterlimit:4;stroke-opacity:1;stroke-dasharray:none"/>
      <path sodipodi:nodetypes="cc" inkscape:connector-curvature="0" id="path7023" d="m 279.06749,413.32285 c 61.19177,25.2814 125.71095,26.02862 197.42797,-1.31619" style="fill:none;stroke:#000000;stroke-width:2;stroke-linecap:butt;stroke-linejoin:miter;stroke-miterlimit:4;stroke-opacity:1;stroke-dasharray:none"/>
      <path sodipodi:nodetypes="cccc" inkscape:connector-curvature="0" id="path7025" d="m 301.36855,422.31576 11.45133,46.13799 30.2303,-35.68216 z" style="fill:#fce94f;stroke:#c4a000;stroke-width:2.21119332;stroke-linecap:butt;stroke-linejoin:round;stroke-miterlimit:4;stroke-opacity:1;stroke-dasharray:none"/>
      <path style="fill:#fce94f;stroke:#c4a000;stroke-width:2.21119332;stroke-linecap:butt;stroke-linejoin:round;stroke-miterlimit:4;stroke-opacity:1;stroke-dasharray:none" d="m 474.28952,558.47856 -17.37055,44.25056 -25.31868,-39.31987 z" id="path7027" inkscape:connector-curvature="0" sodipodi:nodetypes="cccc"/>
      <path sodipodi:nodetypes="cccc" inkscape:connector-curvature="0" id="path7029" d="m 344.66168,746.51432 -24.49629,40.74039 -18.418,-42.9868 z" style="fill:#fce94f;stroke:#c4a000;stroke-width:2.21119332;stroke-linecap:butt;stroke-linejoin:round;stroke-miterlimit:4;stroke-opacity:1;stroke-dasharray:none"/>
      <path style="fill:#fce94f;stroke:#c4a000;stroke-width:2.21119332;stroke-linecap:butt;stroke-linejoin:round;stroke-miterlimit:4;stroke-opacity:1;stroke-dasharray:none" d="M 629.66628,706.67457 619.524,753.11789 588.29694,718.30469 z" id="path7031" inkscape:connector-curvature="0" sodipodi:nodetypes="cccc"/>
      <path sodipodi:nodetypes="cccc" inkscape:connector-curvature="0" id="path7033" d="m 162.50913,711.85956 -35.64814,31.44931 -4.58781,-46.54074 z" style="fill:#fce94f;stroke:#c4a000;stroke-width:2.21119332;stroke-linecap:butt;stroke-linejoin:round;stroke-miterlimit:4;stroke-opacity:1;stroke-dasharray:none"/>
      <path style="fill:#fce94f;stroke:#c4a000;stroke-width:2.21119332;stroke-linecap:butt;stroke-linejoin:round;stroke-miterlimit:4;stroke-opacity:1;stroke-dasharray:none" d="m 269.47085,556.77606 -30.43294,36.51966 -11.63437,-45.29603 z" id="path7035" inkscape:connector-curvature="0" sodipodi:nodetypes="cccc"/>
      <path style="fill:#f57900;stroke:#ce5c00;stroke-width:2.21119332;stroke-linecap:butt;stroke-linejoin:round;stroke-miterlimit:4;stroke-opacity:1;stroke-dasharray:none" d="m 560.65408,726.5674 -13.44181,45.59786 -28.65412,-36.95984 z" id="path7037" inkscape:connector-curvature="0" sodipodi:nodetypes="cccc"/>
      <path sodipodi:nodetypes="cccc" inkscape:connector-curvature="0" id="path7039" d="m 334.02898,567.54108 -27.9543,38.45004 -14.60081,-44.42866 z" style="fill:#f57900;stroke:#ce5c00;stroke-width:2.21119332;stroke-linecap:butt;stroke-linejoin:round;stroke-miterlimit:4;stroke-opacity:1;stroke-dasharray:none"/>
      <path style="fill:#f57900;stroke:#ce5c00;stroke-width:2.21119332;stroke-linecap:butt;stroke-linejoin:round;stroke-miterlimit:4;stroke-opacity:1;stroke-dasharray:none" d="m 472.18783,414.24108 -9.20799,46.63755 -31.91956,-34.17939 z" id="path7041" inkscape:connector-curvature="0" sodipodi:nodetypes="cccc"/>
      <path sodipodi:nodetypes="cccc" inkscape:connector-curvature="0" id="path7043" d="m 282.21232,740.6548 -31.21847,35.85046 -10.64842,-45.53788 z" style="fill:#f57900;stroke:#ce5c00;stroke-width:2.21119332;stroke-linecap:butt;stroke-linejoin:round;stroke-miterlimit:4;stroke-opacity:1;stroke-dasharray:none"/>
      <path sodipodi:nodetypes="cccc" inkscape:connector-curvature="0" id="path7045" d="m 544.62652,537.16023 -11.20474,46.1985 -30.42045,-35.52019 z" style="fill:#3465a4;stroke:#204a87;stroke-width:2.21119332;stroke-linecap:butt;stroke-linejoin:round;stroke-miterlimit:4;stroke-opacity:1;stroke-dasharray:none"/>
      <path style="fill:#3465a4;stroke:#204a87;stroke-width:2.21119332;stroke-linecap:butt;stroke-linejoin:round;stroke-miterlimit:4;stroke-opacity:1;stroke-dasharray:none" d="m 417.26512,430.59374 -19.44553,43.37879 -23.42923,-40.47417 z" id="path7047" inkscape:connector-curvature="0" sodipodi:nodetypes="cccc"/>
      <path style="fill:#cc0000;stroke:#a40000;stroke-width:2.21119332;stroke-linecap:butt;stroke-linejoin:round;stroke-miterlimit:4;stroke-opacity:1;stroke-dasharray:none" d="m 491.19707,739.99077 -16.4939,44.58474 -26.08972,-38.81255 z" id="path7049" inkscape:connector-curvature="0" sodipodi:nodetypes="cccc"/>
      <path sodipodi:nodetypes="cccc" inkscape:connector-curvature="0" id="path7051" d="m 406.5422,566.94143 -22.19448,42.03871 -20.77833,-41.89688 z" style="fill:#cc0000;stroke:#a40000;stroke-width:2.21119332;stroke-linecap:butt;stroke-linejoin:round;stroke-miterlimit:4;stroke-opacity:1;stroke-dasharray:none"/>
      <path style="fill:#3465a4;stroke:#204a87;stroke-width:2.21119332;stroke-linecap:butt;stroke-linejoin:round;stroke-miterlimit:4;stroke-opacity:1;stroke-dasharray:none" d="m 418.7532,747.63322 -21.33632,42.4807 -21.62475,-41.46634 z" id="path7053" inkscape:connector-curvature="0" sodipodi:nodetypes="cccc"/>
      <path sodipodi:nodetypes="cccc" inkscape:connector-curvature="0" id="path7055" d="m 222.92068,729.52357 -32.42102,34.76674 -9.09174,-45.87405 z" style="fill:#73d216;stroke:#4e9a06;stroke-width:2.21119332;stroke-linecap:butt;stroke-linejoin:round;stroke-miterlimit:4;stroke-opacity:1;stroke-dasharray:none"/>
      <path style="fill:#fce94f;stroke:#c4a000;stroke-width:1.21094501;stroke-linecap:butt;stroke-linejoin:round;stroke-miterlimit:4;stroke-opacity:1;stroke-dasharray:none" d="m 287.01654,217.25899 8.61035,24.56867 14.6523,-21.00586 z" id="path7057" inkscape:connector-curvature="0" sodipodi:nodetypes="cccc"/>
      <path sodipodi:nodetypes="cccc" inkscape:connector-curvature="0" id="path7059" d="m 338.92025,223.52461 9.99396,24.0391 13.43369,-21.80531 z" style="fill:#73d216;stroke:#4e9a06;stroke-width:1.21094501;stroke-linecap:butt;stroke-linejoin:round;stroke-miterlimit:4;stroke-opacity:1;stroke-dasharray:none"/>
      <path style="fill:#cc0000;stroke:#a40000;stroke-width:1.21094501;stroke-linecap:butt;stroke-linejoin:round;stroke-miterlimit:4;stroke-opacity:1;stroke-dasharray:none" d="m 390.59147,227.36882 12.84972,22.64161 10.67551,-23.28022 z" id="path7061" inkscape:connector-curvature="0" sodipodi:nodetypes="cccc"/>
      <path sodipodi:nodetypes="cccc" inkscape:connector-curvature="0" id="path7063" d="m 447.1659,224.52698 15.23874,21.10779 8.07707,-24.30425 z" style="fill:#3465a4;stroke:#204a87;stroke-width:1.21094501;stroke-linecap:butt;stroke-linejoin:round;stroke-miterlimit:4;stroke-opacity:1;stroke-dasharray:none"/>
      <path d="m 307.42035,242.88543 32.22166,2.71696 -0.80344,9.52847 -21.88514,-1.84538 -0.65581,7.77763 c 1.01031,-0.18604 2.015,-0.30478 3.01401,-0.35621 1.0233,-0.072 2.07368,-0.0625 3.15112,0.0284 6.1278,0.51675 10.76799,2.45651 13.92057,5.81931 3.15439,3.34041 4.50069,7.74904 4.03891,13.22593 -0.45807,5.43201 -2.67978,9.52848 -6.66511,12.28944 -3.96299,2.76283 -9.24404,3.86603 -15.84324,3.3096 -2.8507,-0.24039 -5.65526,-0.75944 -8.41372,-1.55719 -2.73793,-0.77339 -5.44002,-1.83767 -8.10627,-3.19278 l 0.86024,-10.20185 c 2.60595,1.80215 5.09912,3.1992 7.47954,4.19112 2.40283,0.99384 4.6929,1.58253 6.87022,1.76611 3.14245,0.26499 5.6759,-0.29 7.60033,-1.66494 1.94871,-1.39548 3.0338,-3.40632 3.25528,-6.03254 0.22331,-2.64866 -0.50974,-4.81281 -2.19916,-6.49249 -1.66703,-1.67773 -4.07176,-2.64912 -7.21422,-2.91411 -1.86307,-0.15708 -3.87039,-0.0777 -6.02195,0.23823 -2.14973,0.29347 -4.47925,0.84303 -6.98861,1.64867 l 2.38479,-28.28233" style="font-size:56px;font-style:normal;font-weight:bold;line-height:125%;letter-spacing:0px;word-spacing:0px;fill:#f57900;fill-opacity:1;stroke:#ce5c00;stroke-width:3.9530344;stroke-miterlimit:4;stroke-dasharray:none;font-family:Sans;-inkscape-font-specification:Sans Bold" id="path6988" inkscape:connector-curvature="0"/>
      <path d="m 384.47458,278.66199 c -2e-5,-6.30724 -0.59696,-10.74485 -1.79081,-13.31285 -1.17138,-2.59044 -3.15366,-3.88568 -5.94685,-3.88572 -2.79324,4e-5 -4.78678,1.29528 -5.98064,3.88572 -1.19389,2.568 -1.79082,7.00561 -1.79081,13.31285 -10e-6,6.37486 0.59692,10.86878 1.79081,13.48177 1.19386,2.61303 3.1874,3.91953 5.98064,3.91952 2.77067,10e-6 4.75295,-1.30649 5.94685,-3.91952 1.19385,-2.61299 1.79079,-7.10691 1.79081,-13.48177 m 13.00876,0.10132 c -6e-5,8.35714 -1.80213,14.81082 -5.40623,19.36106 -3.6042,4.52772 -8.7176,6.79157 -15.34019,6.79157 -6.64516,0 -11.76982,-2.26385 -15.37396,-6.79157 -3.60415,-4.55024 -5.40624,-11.00392 -5.40623,-19.36106 -10e-6,-8.37962 1.80208,-14.8333 5.40623,-19.36106 3.60414,-4.55019 8.7288,-6.82531 15.37396,-6.82537 6.62259,6e-5 11.73599,2.27518 15.34019,6.82537 3.6041,4.52776 5.40617,10.98144 5.40623,19.36106" style="font-size:56px;font-style:normal;font-weight:bold;line-height:125%;letter-spacing:0px;word-spacing:0px;fill:#f57900;fill-opacity:1;stroke:#ce5c00;stroke-width:3.9530344;stroke-miterlimit:4;stroke-dasharray:none;font-family:Sans;-inkscape-font-specification:Sans Bold" id="path6990" inkscape:connector-curvature="0"/>
      <path d="m 440.43417,273.07428 c 0.80725,-6.25536 0.78319,-10.73289 -0.0721,-13.43256 -0.83019,-2.71906 -2.63039,-4.25737 -5.40061,-4.61492 -2.77027,-0.35747 -4.91319,0.67196 -6.42879,3.08829 -1.51276,2.39407 -2.67276,6.71878 -3.48003,12.97414 -0.81594,6.32243 -0.79911,10.85579 0.0505,13.6001 0.8496,2.74434 2.65951,4.29526 5.42978,4.65277 2.74788,0.35462 4.88108,-0.68742 6.39962,-3.12614 1.51846,-2.4387 2.68568,-6.81926 3.50164,-13.14168 m 12.88879,1.76551 c -1.06971,8.2884 -3.68297,14.45834 -7.83983,18.50986 -4.15407,4.02917 -9.51515,5.61993 -16.08329,4.77229 -6.59051,-0.85053 -11.38327,-3.75168 -14.37825,-8.70346 -2.9921,-4.97413 -3.95335,-11.60537 -2.88369,-19.89377 1.07252,-8.3107 3.6858,-14.48065 7.83983,-18.50987 4.15688,-4.05146 9.53059,-5.65196 16.1211,-4.80149 6.56813,0.8477 11.34826,3.75859 14.34043,8.73267 2.99494,4.95182 3.95616,11.58307 2.8837,19.89377" style="font-size:56px;font-style:normal;font-weight:bold;line-height:125%;letter-spacing:0px;word-spacing:0px;fill:#f57900;fill-opacity:1;stroke:#ce5c00;stroke-width:3.9530344;stroke-miterlimit:4;stroke-dasharray:none;font-family:Sans;-inkscape-font-specification:Sans Bold" id="path6992" inkscape:connector-curvature="0"/>
    </g>
  </g>
</svg>
