<?xml version="1.0" encoding="UTF-8" standalone="no"?>
<!-- Created with Inkscape (http://www.inkscape.org/) -->

<svg
   xmlns:dc="http://purl.org/dc/elements/1.1/"
   xmlns:cc="http://creativecommons.org/ns#"
   xmlns:rdf="http://www.w3.org/1999/02/22-rdf-syntax-ns#"
   xmlns:svg="http://www.w3.org/2000/svg"
   xmlns="http://www.w3.org/2000/svg"
   xmlns:xlink="http://www.w3.org/1999/xlink"
   xmlns:sodipodi="http://sodipodi.sourceforge.net/DTD/sodipodi-0.dtd"
   xmlns:inkscape="http://www.inkscape.org/namespaces/inkscape"
   width="210mm"
   height="297mm"
   viewBox="0 0 744.09448819 1052.3622047"
   id="svg2"
   version="1.1"
   inkscape:version="0.91 r13725"
   inkscape:export-xdpi="4.9507661"
   inkscape:export-ydpi="4.9507661"
   sodipodi:docname="campo2.svg"
   inkscape:export-filename="C:\Users\johannes\Documents\Arbeit\RRZE\github3\tango\22x22\logos\campo2.png">
  <title
     id="title4329">campo 2</title>
  <defs
     id="defs4">
    <linearGradient
       id="linearGradient2224">
      <stop
         id="stop2226"
         offset="0"
         style="stop-color:#7c7c7c;stop-opacity:1;" />
      <stop
         id="stop2228"
         offset="1"
         style="stop-color:#b8b8b8;stop-opacity:1;" />
    </linearGradient>
    <linearGradient
       id="linearGradient15218">
      <stop
         id="stop15220"
         offset="0"
         style="stop-color:#eeeeef;stop-opacity:1;" />
      <stop
         id="stop2736"
         offset="0.59928656"
         style="stop-color:#d3d7cf;stop-opacity:1;" />
      <stop
         id="stop2738"
         offset="0.82758623"
         style="stop-color:#ffffff;stop-opacity:1;" />
      <stop
         id="stop15222"
         offset="1"
         style="stop-color:#d3d7cf;stop-opacity:1;" />
    </linearGradient>
    <pattern
       y="0"
       x="0"
       height="6"
       width="6"
       patternUnits="userSpaceOnUse"
       id="EMFhbasepattern" />
    <pattern
       y="0"
       x="0"
       height="6"
       width="6"
       patternUnits="userSpaceOnUse"
       id="EMFhbasepattern-2" />
    <pattern
       y="0"
       x="0"
       height="6"
       width="6"
       patternUnits="userSpaceOnUse"
       id="EMFhbasepattern-5" />
    <linearGradient
       inkscape:collect="always"
       id="linearGradient4167">
      <stop
         style="stop-color:#4e505d;stop-opacity:1;"
         offset="0"
         id="stop4169" />
      <stop
         style="stop-color:#7a8597;stop-opacity:1"
         offset="1"
         id="stop4171" />
    </linearGradient>
    <linearGradient
       inkscape:collect="always"
       xlink:href="#linearGradient4167"
       id="linearGradient4190"
       x1="367"
       y1="585.36218"
       x2="426"
       y2="450.36221"
       gradientUnits="userSpaceOnUse"
       gradientTransform="matrix(0.875,0,0,0.875,47.75,66.295273)" />
    <linearGradient
       id="linearGradient3804">
      <stop
         style="stop-color:#ffffff;stop-opacity:1;"
         offset="0"
         id="stop3806" />
      <stop
         style="stop-color:#ffffff;stop-opacity:0;"
         offset="1"
         id="stop3808" />
    </linearGradient>
    <linearGradient
       inkscape:collect="always"
       xlink:href="#linearGradient4167"
       id="linearGradient4175"
       x1="0"
       y1="306"
       x2="612"
       y2="306"
       gradientUnits="userSpaceOnUse" />
    <linearGradient
       id="linearGradient4761">
      <stop
         id="stop4769"
         offset="0"
         style="stop-color:#ffffff;stop-opacity:1;" />
      <stop
         id="stop4775"
         offset="0.50370371"
         style="stop-color:#ffffff;stop-opacity:1;" />
      <stop
         id="stop4771"
         offset="1"
         style="stop-color:#ffffff;stop-opacity:0.06666667;" />
    </linearGradient>
    <linearGradient
       inkscape:collect="always"
       xlink:href="#linearGradient4254"
       id="linearGradient4298"
       gradientUnits="userSpaceOnUse"
       x1="358.43118"
       y1="465.73074"
       x2="429.96555"
       y2="644.62878" />
    <linearGradient
       inkscape:collect="always"
       id="linearGradient4254">
      <stop
         style="stop-color:#7a8597;stop-opacity:1"
         offset="0"
         id="stop4256" />
      <stop
         style="stop-color:#4e505d;stop-opacity:1"
         offset="1"
         id="stop4258" />
    </linearGradient>
    <linearGradient
       inkscape:collect="always"
       xlink:href="#linearGradient4254"
       id="linearGradient4300"
       gradientUnits="userSpaceOnUse"
       gradientTransform="translate(0.37005758,-0.39466108)"
       x1="380.01031"
       y1="330.40619"
       x2="414.6156"
       y2="457.18103" />
    <pattern
       y="0"
       x="0"
       height="6"
       width="6"
       patternUnits="userSpaceOnUse"
       id="EMFhbasepattern-0" />
    <pattern
       y="0"
       x="0"
       height="6"
       width="6"
       patternUnits="userSpaceOnUse"
       id="EMFhbasepattern-6" />
    <linearGradient
       id="linearGradient8488">
      <stop
         id="stop8490"
         offset="0"
         style="stop-color:#ffffff;stop-opacity:0;" />
      <stop
         id="stop8492"
         offset="0.49027923"
         style="stop-color:#ffffff;stop-opacity:1;" />
      <stop
         id="stop8494"
         offset="0.9375"
         style="stop-color:#ffffff;stop-opacity:0.43333334;" />
      <stop
         id="stop8496"
         offset="1"
         style="stop-color:#ffffff;stop-opacity:0;" />
    </linearGradient>
    <linearGradient
       inkscape:collect="always"
       xlink:href="#linearGradient8488"
       id="linearGradient4282"
       x1="150.27539"
       y1="486.0553"
       x2="562.02588"
       y2="440.53711"
       gradientUnits="userSpaceOnUse" />
  </defs>
  <sodipodi:namedview
     id="base"
     pagecolor="#ffffff"
     bordercolor="#666666"
     borderopacity="1.0"
     inkscape:pageopacity="0.0"
     inkscape:pageshadow="2"
     inkscape:zoom="0.70710678"
     inkscape:cx="263.49455"
     inkscape:cy="495.69821"
     inkscape:document-units="px"
     inkscape:current-layer="layer1"
     showgrid="false"
     showguides="true"
     inkscape:guide-bbox="true"
     inkscape:window-width="1366"
     inkscape:window-height="721"
     inkscape:window-x="-4"
     inkscape:window-y="-4"
     inkscape:window-maximized="1"
     inkscape:snap-bbox="true"
     inkscape:bbox-paths="true"
     inkscape:bbox-nodes="true"
     inkscape:snap-global="true">
    <sodipodi:guide
       position="315.53572,730.17859"
       orientation="0,1"
       id="guide3338" />
    <sodipodi:guide
       position="375.75,330.25001"
       orientation="0,1"
       id="guide3340" />
    <sodipodi:guide
       position="189.10714,408.8393"
       orientation="1,0"
       id="guide3344" />
    <inkscape:grid
       type="xygrid"
       id="grid3440" />
    <sodipodi:guide
       position="0,0"
       orientation="0,1"
       id="guide3405" />
    <sodipodi:guide
       position="0,0"
       orientation="0,1"
       id="guide3409" />
    <sodipodi:guide
       position="589.04521,378.30213"
       orientation="1,0"
       id="guide3411" />
    <sodipodi:guide
       position="203.02735,711.96291"
       orientation="0,1"
       id="guide4183" />
    <sodipodi:guide
       position="207.27539,720.31252"
       orientation="1,0"
       id="guide4185" />
    <sodipodi:guide
       position="225.48828,702.73439"
       orientation="1,0"
       id="guide4187" />
    <sodipodi:guide
       position="215.42969,693.75002"
       orientation="0,1"
       id="guide4189" />
    <sodipodi:guide
       position="396.33336,675.64055"
       orientation="0,1"
       id="guide4191" />
    <sodipodi:guide
       position="262.01172,669.04298"
       orientation="1,0"
       id="guide4195" />
    <sodipodi:guide
       position="280.27344,644.04298"
       orientation="1,0"
       id="guide4199" />
    <sodipodi:guide
       position="383.29541,638.82569"
       orientation="0,1"
       id="guide4201" />
    <sodipodi:guide
       position="407.64706,620.50001"
       orientation="0,1"
       id="guide4203" />
    <sodipodi:guide
       position="298.44878,627.8335"
       orientation="1,0"
       id="guide4205" />
    <sodipodi:guide
       position="316.60983,606.42694"
       orientation="1,0"
       id="guide4207" />
    <sodipodi:guide
       position="618.71844,602.45499"
       orientation="0,1"
       id="guide4209" />
    <sodipodi:guide
       position="330.21335,584.46796"
       orientation="0,1"
       id="guide4211" />
    <sodipodi:guide
       position="334.77087,592.54721"
       orientation="1,0"
       id="guide4213" />
    <sodipodi:guide
       position="346.30279,566.30692"
       orientation="0,1"
       id="guide4215" />
    <sodipodi:guide
       position="352.93191,577.63168"
       orientation="1,0"
       id="guide4217" />
    <sodipodi:guide
       position="365.08531,548.14587"
       orientation="0,1"
       id="guide4219" />
    <sodipodi:guide
       position="371.09296,556.29418"
       orientation="1,0"
       id="guide4221" />
    <sodipodi:guide
       position="620.83976,529.62299"
       orientation="0,1"
       id="guide4223" />
    <sodipodi:guide
       position="389.254,526.325"
       orientation="1,0"
       id="guide4225" />
    <sodipodi:guide
       position="410.31529,511.68568"
       orientation="0,1"
       id="guide4227" />
    <sodipodi:guide
       position="425.64514,502.84685"
       orientation="1,0"
       id="guide4231" />
    <sodipodi:guide
       position="431.44563,493.45558"
       orientation="0,1"
       id="guide4233" />
    <sodipodi:guide
       position="448.70898,475.22549"
       orientation="0,1"
       id="guide4235" />
    <sodipodi:guide
       position="443.875,374.25001"
       orientation="1,0"
       id="guide4237" />
    <sodipodi:guide
       position="462.10533,463.48641"
       orientation="1,0"
       id="guide4239" />
    <sodipodi:guide
       position="471.4966,456.99539"
       orientation="0,1"
       id="guide4241" />
    <sodipodi:guide
       position="485.58349,438.76529"
       orientation="0,1"
       id="guide4243" />
    <sodipodi:guide
       position="480.5,511.68568"
       orientation="1,0"
       id="guide4245" />
    <sodipodi:guide
       position="523.56286,402.3051"
       orientation="0,1"
       id="guide4251" />
    <sodipodi:guide
       position="535.02572,385.59418"
       orientation="1,0"
       id="guide4255" />
    <sodipodi:guide
       position="300.93236,384.50001"
       orientation="0,1"
       id="guide4259" />
    <sodipodi:guide
       position="553.18677,372.47403"
       orientation="1,0"
       id="guide4263" />
    <sodipodi:guide
       position="574.66237,347.82197"
       orientation="0,1"
       id="guide4265" />
    <sodipodi:guide
       position="571.34781,355.90121"
       orientation="1,0"
       id="guide4267" />
    <sodipodi:guide
       position="407.64706,747.41189"
       orientation="1,0"
       id="guide4321" />
    <sodipodi:guide
       position="498.25424,574.49638"
       orientation="1,0"
       id="guide4198" />
    <sodipodi:guide
       position="516.5,602.45499"
       orientation="1,0"
       id="guide4830" />
    <sodipodi:guide
       position="417.193,420.55177"
       orientation="0,1"
       id="guide4275" />
    <sodipodi:guide
       position="242.75,658.00002"
       orientation="0,1"
       id="guide4244" />
    <sodipodi:guide
       position="244.25,644.00002"
       orientation="1,0"
       id="guide4246" />
    <sodipodi:guide
       position="173,366.25001"
       orientation="0,1"
       id="guide4327" />
  </sodipodi:namedview>
  <metadata
     id="metadata7">
    <rdf:RDF>
      <cc:Work
         rdf:about="">
        <dc:format>image/svg+xml</dc:format>
        <dc:type
           rdf:resource="http://purl.org/dc/dcmitype/StillImage" />
        <dc:title>campo 2</dc:title>
        <dc:creator>
          <cc:Agent>
            <dc:title>Johannes Hechler</dc:title>
          </cc:Agent>
        </dc:creator>
        <dc:rights>
          <cc:Agent>
            <dc:title>Johannes Hechler</dc:title>
          </cc:Agent>
        </dc:rights>
        <dc:publisher>
          <cc:Agent>
            <dc:title>RRZE</dc:title>
          </cc:Agent>
        </dc:publisher>
        <dc:contributor>
          <cc:Agent>
            <dc:title>Ute Weber
Hendrik Eggers</dc:title>
          </cc:Agent>
        </dc:contributor>
        <cc:license
           rdf:resource="http://creativecommons.org/licenses/by-nc/3.0/" />
        <dc:date>Dec 2015</dc:date>
        <dc:subject>
          <rdf:Bag>
            <rdf:li>campo</rdf:li>
            <rdf:li>logo</rdf:li>
          </rdf:Bag>
        </dc:subject>
      </cc:Work>
      <cc:License
         rdf:about="http://creativecommons.org/licenses/by-nc/3.0/">
        <cc:permits
           rdf:resource="http://creativecommons.org/ns#Reproduction" />
        <cc:permits
           rdf:resource="http://creativecommons.org/ns#Distribution" />
        <cc:requires
           rdf:resource="http://creativecommons.org/ns#Notice" />
        <cc:requires
           rdf:resource="http://creativecommons.org/ns#Attribution" />
        <cc:prohibits
           rdf:resource="http://creativecommons.org/ns#CommercialUse" />
        <cc:permits
           rdf:resource="http://creativecommons.org/ns#DerivativeWorks" />
      </cc:License>
    </rdf:RDF>
  </metadata>
  <g
     inkscape:label="Ebene 1"
     inkscape:groupmode="layer"
     id="layer1">
    <path
       inkscape:connector-curvature="0"
       id="path4238"
       d="m 390.34465,340.39939 c -95.11468,1.6e-4 -173.26401,72.1493 -182.19519,164.41576 l -0.0661,0 -0.0465,1.1206 c -0.006,0.0559 -0.0127,0.11124 -0.0178,0.1672 l 0.0107,0 -0.71321,16.86758 -0.034,0 c 5.4e-4,0.19913 0.008,0.39689 0.009,0.59587 l -0.0161,0.37175 0.0214,0 c 0.041,5.05359 0.28808,10.05762 0.73465,15.00526 l -0.27169,0.002 2.67405,16.96363 -0.0661,0 c 0.97316,5.21344 2.17181,10.34725 3.5803,15.3948 l -0.0394,0 0.17518,0.49449 c 0.067,0.237 0.12697,0.47666 0.19482,0.71326 l 0.0572,0 5.86826,16.60255 -0.27528,0 c 26.7436,67.58805 92.96193,115.42617 170.41576,115.42632 66.62282,-0.0838 171.91773,-43.93324 171.08067,-103.29369 -0.57384,-4.29465 -1.36571,-8.34555 -2.39164,-12.13263 l -0.41647,0 -6.964,-16.60255 0.17161,0 c -0.13568,-0.20426 -0.28333,-0.39489 -0.42185,-0.59588 l -0.13585,-0.3255 -0.0929,0 c -7.27798,-10.34912 -18.41751,-16.25956 -34.56077,-16.27349 -4.97407,0.005 -25.95147,6.65366 -37.10254,17.19487 l 0.48798,0 -11.27358,16.60255 -0.13942,0 c -22.81137,31.01343 -49.74242,32.6202 -77.67459,32.66081 -25.84627,8e-5 -51.09301,-12.53629 -69.63452,-31.50465 l 0.1716,-0.004 -14.42669,-17.75515 0.0948,0 c -3.18536,-4.97546 -5.93381,-10.18959 -8.19555,-15.56912 l 0.2002,-0.002 -5.82358,-18.63917 -0.0197,0 c -0.88721,-4.73601 -1.37739,-9.53435 -1.42282,-14.35604 l 1.54975,-17.84231 0.28599,0 c 9.28442,-43.31737 52.35813,-79.64222 97.22058,-79.64209 44.11382,0.0286 67.93723,0.31307 88.8123,29.20655 6.0456,9.99473 20.94344,18.63682 29.02854,18.73345 30.32929,-0.0183 67.66519,-20.11328 47.6111,-56.42804 -39.42935,-68.18757 -85.68989,-77.56963 -166.01857,-77.57343 z"
       style="color:#000000;clip-rule:nonzero;display:inline;overflow:visible;visibility:visible;opacity:1;isolation:auto;mix-blend-mode:normal;color-interpolation:sRGB;color-interpolation-filters:linearRGB;solid-color:#000000;solid-opacity:1;fill:#0f2340;fill-opacity:1;fill-rule:evenodd;stroke:#16335e;stroke-width:35;stroke-linecap:butt;stroke-linejoin:round;stroke-miterlimit:4;stroke-dasharray:none;stroke-dashoffset:0;stroke-opacity:1;color-rendering:auto;image-rendering:auto;shape-rendering:auto;text-rendering:auto;enable-background:accumulate" />
    <path
       style="color:#000000;clip-rule:nonzero;display:inline;overflow:visible;visibility:visible;opacity:1;isolation:auto;mix-blend-mode:normal;color-interpolation:sRGB;color-interpolation-filters:linearRGB;solid-color:#000000;solid-opacity:1;fill:#2d578e;fill-opacity:1;fill-rule:evenodd;stroke:none;stroke-width:50;stroke-linecap:butt;stroke-linejoin:miter;stroke-miterlimit:4;stroke-dasharray:none;stroke-dashoffset:0;stroke-opacity:1;color-rendering:auto;image-rendering:auto;shape-rendering:auto;text-rendering:auto;enable-background:accumulate"
       d="m 390.34465,340.39939 c -95.11468,1.6e-4 -173.26401,72.1493 -182.19519,164.41576 l -0.0661,0 -0.0465,1.1206 c -0.006,0.0559 -0.0127,0.11124 -0.0178,0.1672 l 0.0107,0 -0.71321,16.86758 -0.034,0 c 5.4e-4,0.19913 0.008,0.39689 0.009,0.59587 l -0.0161,0.37175 0.0214,0 c 0.041,5.05359 0.28808,10.05762 0.73465,15.00526 l -0.27169,0.002 2.67405,16.96363 -0.0661,0 c 0.97316,5.21344 2.17181,10.34725 3.5803,15.3948 l -0.0394,0 0.17518,0.49449 c 0.067,0.237 0.12697,0.47666 0.19482,0.71326 l 0.0572,0 5.86826,16.60255 -0.27528,0 c 26.7436,67.58805 92.96193,115.42617 170.41576,115.42632 66.62282,-0.0838 171.91773,-43.93324 171.08067,-103.29369 -0.57384,-4.29465 -1.36571,-8.34555 -2.39164,-12.13263 l -0.41647,0 -6.964,-16.60255 0.17161,0 c -0.13568,-0.20426 -0.28333,-0.39489 -0.42185,-0.59588 l -0.13585,-0.3255 -0.0929,0 c -7.27798,-10.34912 -18.41751,-16.25956 -34.56077,-16.27349 -4.97407,0.005 -25.95147,6.65366 -37.10254,17.19487 l 0.48798,0 -11.27358,16.60255 -0.13942,0 c -22.81137,31.01343 -49.74242,32.6202 -77.67459,32.66081 -25.84627,8e-5 -51.09301,-12.53629 -69.63452,-31.50465 l 0.1716,-0.004 -14.42669,-17.75515 0.0948,0 c -3.18536,-4.97546 -5.93381,-10.18959 -8.19555,-15.56912 l 0.2002,-0.002 -5.82358,-18.63917 -0.0197,0 c -0.88721,-4.73601 -1.37739,-9.53435 -1.42282,-14.35604 l 1.54975,-17.84231 0.28599,0 c 9.28442,-43.31737 52.35813,-79.64222 97.22058,-79.64209 44.11382,0.0286 67.93723,0.31307 88.8123,29.20655 6.0456,9.99473 20.94344,18.63682 29.02854,18.73345 30.32929,-0.0183 67.66519,-20.11328 47.6111,-56.42804 -39.42935,-68.18757 -85.68989,-77.56963 -166.01857,-77.57343 z"
       id="path4202"
       inkscape:connector-curvature="0" />
    <path
       inkscape:connector-curvature="0"
       style="color:#000000;clip-rule:nonzero;display:inline;overflow:visible;visibility:visible;opacity:1;isolation:auto;mix-blend-mode:normal;color-interpolation:sRGB;color-interpolation-filters:linearRGB;solid-color:#000000;solid-opacity:1;fill:none;fill-opacity:1;fill-rule:evenodd;stroke:none;stroke-width:50;stroke-linecap:butt;stroke-linejoin:miter;stroke-miterlimit:4;stroke-dasharray:none;stroke-dashoffset:0;stroke-opacity:1;color-rendering:auto;image-rendering:auto;shape-rendering:auto;text-rendering:auto;enable-background:accumulate"
       d="m 189.10714,322.18362 399.93807,0 c 0,0 0,10e-6 0,10e-6 l 0,399.92855 c 0,0 0,0 0,0 l -399.93807,0 c -10e-6,0 -10e-6,0 -10e-6,0 l 0,-399.92855 c 0,0 0,-10e-6 10e-6,-10e-6 z"
       id="rect4248" />
    <g
       id="g4238">
      <path
         id="rect4240"
         d="m 210.96094,558.90625 c 0.85544,4.18559 1.8489,8.32229 2.98633,12.39844 l -0.0391,0 0.17578,0.49414 c 0.067,0.237 0.12747,0.47629 0.19532,0.71289 l 0.0566,0 1.63476,4.625 94.8086,0 -3.75782,-4.625 0.0957,0 c -2.79442,-4.36481 -5.23169,-8.92254 -7.32031,-13.60547 l -88.83594,0 z m 292.10351,0 c -7.89454,2.97654 -17.27868,7.67455 -23.55273,13.60547 l 0.48633,0 -3.14063,4.625 76.73438,0 -1.93946,-4.625 0.17188,0 c -0.13568,-0.20426 -0.28336,-0.39471 -0.42188,-0.5957 l -0.13476,-0.32618 -0.0937,0 c -3.95062,-5.61768 -9.05012,-9.91481 -15.45899,-12.68359 l -32.65039,0 z"
         style="color:#000000;clip-rule:nonzero;display:inline;overflow:visible;visibility:visible;opacity:1;isolation:auto;mix-blend-mode:normal;color-interpolation:sRGB;color-interpolation-filters:linearRGB;solid-color:#000000;solid-opacity:1;fill:#73d216;fill-opacity:1;fill-rule:evenodd;stroke:none;stroke-width:35;stroke-linecap:butt;stroke-linejoin:round;stroke-miterlimit:4;stroke-dasharray:none;stroke-dashoffset:0;stroke-opacity:1;color-rendering:auto;image-rendering:auto;shape-rendering:auto;text-rendering:auto;enable-background:accumulate"
         inkscape:connector-curvature="0" />
      <path
         id="rect4242"
         d="m 215.9707,577.13672 4.23438,11.97656 -0.27539,0 c 0.83261,2.10424 1.70304,4.1888 2.61133,6.25391 l 104.05468,0 c -1.8268,-1.64111 -3.60167,-3.34145 -5.31836,-5.09766 l 0.17188,-0.004 -10.66992,-13.1289 -94.8086,0 z m 260.88672,0 -8.13281,11.97656 -0.13867,0 c -1.64799,2.24054 -3.31996,4.30982 -5.00977,6.25391 l 96.89063,0 c -0.41521,-2.15502 -0.88924,-4.24449 -1.4336,-6.25391 l -0.41601,0 -5.02539,-11.97656 -76.73438,0 z"
         style="color:#000000;clip-rule:nonzero;display:inline;overflow:visible;visibility:visible;opacity:1;isolation:auto;mix-blend-mode:normal;color-interpolation:sRGB;color-interpolation-filters:linearRGB;solid-color:#000000;solid-opacity:1;fill:#d3d7cf;fill-opacity:1;fill-rule:evenodd;stroke:none;stroke-width:35;stroke-linecap:butt;stroke-linejoin:round;stroke-miterlimit:4;stroke-dasharray:none;stroke-dashoffset:0;stroke-opacity:1;color-rendering:auto;image-rendering:auto;shape-rendering:auto;text-rendering:auto;enable-background:accumulate"
         inkscape:connector-curvature="0" />
      <path
         sodipodi:nodetypes="ccccccccccccc"
         inkscape:connector-curvature="0"
         id="rect4244"
         d="m 208.0332,540.67578 2.40039,15.23242 -0.0664,0 c 0.18069,0.968 0.37614,1.93002 0.57226,2.89258 l 88.81055,0 c -0.27579,-0.62027 -0.56738,-1.23455 -0.83008,-1.85937 l 0.20117,-0.002 -5.08203,-16.26367 z m 308.58008,14.64063 c -2.14024,0.002 -7.2497,1.24127 -13.25781,3.48437 l 32.12305,0 c -5.34555,-2.26593 -11.59343,-3.4781 -18.86524,-3.48437 z"
         style="color:#000000;clip-rule:nonzero;display:inline;overflow:visible;visibility:visible;opacity:1;isolation:auto;mix-blend-mode:normal;color-interpolation:sRGB;color-interpolation-filters:linearRGB;solid-color:#000000;solid-opacity:1;fill:#729fcf;fill-opacity:1;fill-rule:evenodd;stroke:none;stroke-width:35;stroke-linecap:butt;stroke-linejoin:round;stroke-miterlimit:4;stroke-dasharray:none;stroke-dashoffset:0;stroke-opacity:1;color-rendering:auto;image-rendering:auto;shape-rendering:auto;text-rendering:auto;enable-background:accumulate" />
      <path
         sodipodi:nodetypes="ccccccccccccccc"
         inkscape:connector-curvature="0"
         id="rect4246"
         d="m 207.32617,522.73828 -0.01,0.23242 -0.0332,0 c 5.4e-4,0.19913 0.007,0.39673 0.008,0.59571 l -0.0156,0.37109 0.0215,0 c 0.041,5.05359 0.2878,10.05822 0.73437,15.00586 l -0.27148,0.002 0.27343,1.73047 86.00586,0 -0.74218,-2.375 -0.0195,0 c -0.88721,-4.73601 -1.37644,-9.53378 -1.42187,-14.35547 l 0.10547,-1.20703 z"
         style="color:#000000;clip-rule:nonzero;display:inline;overflow:visible;visibility:visible;opacity:1;isolation:auto;mix-blend-mode:normal;color-interpolation:sRGB;color-interpolation-filters:linearRGB;solid-color:#000000;solid-opacity:1;fill:#cc0000;fill-opacity:1;fill-rule:evenodd;stroke:none;stroke-width:35;stroke-linecap:butt;stroke-linejoin:round;stroke-miterlimit:4;stroke-dasharray:none;stroke-dashoffset:0;stroke-opacity:1;color-rendering:auto;image-rendering:auto;shape-rendering:auto;text-rendering:auto;enable-background:accumulate" />
      <path
         id="rect4249"
         d="m 208.21484,504.2168 c -0.02,0.19967 -0.0451,0.39779 -0.0645,0.59765 l -0.0664,0 -0.0469,1.1211 c -0.006,0.0559 -0.0125,0.11201 -0.0176,0.16797 l 0.01,0 -0.70313,16.63476 84.63477,0 1.44336,-16.63672 0.28711,0 c 0.135,-0.62988 0.27853,-1.25793 0.42773,-1.88476 l -85.9043,0 z"
         style="color:#000000;clip-rule:nonzero;display:inline;overflow:visible;visibility:visible;opacity:1;isolation:auto;mix-blend-mode:normal;color-interpolation:sRGB;color-interpolation-filters:linearRGB;solid-color:#000000;solid-opacity:1;fill:#edd400;fill-opacity:1;fill-rule:evenodd;stroke:none;stroke-width:35;stroke-linecap:butt;stroke-linejoin:round;stroke-miterlimit:4;stroke-dasharray:none;stroke-dashoffset:0;stroke-opacity:1;color-rendering:auto;image-rendering:auto;shape-rendering:auto;text-rendering:auto;enable-background:accumulate"
         inkscape:connector-curvature="0" />
    </g>
    <path
       inkscape:connector-curvature="0"
       style="color:#000000;clip-rule:nonzero;display:inline;overflow:visible;visibility:visible;opacity:0.53699999;isolation:auto;mix-blend-mode:normal;color-interpolation:sRGB;color-interpolation-filters:linearRGB;solid-color:#000000;solid-opacity:1;fill:url(#linearGradient4282);fill-opacity:1;fill-rule:evenodd;stroke:none;stroke-width:50;stroke-linecap:butt;stroke-linejoin:miter;stroke-miterlimit:4;stroke-dasharray:none;stroke-dashoffset:0;stroke-opacity:1;color-rendering:auto;image-rendering:auto;shape-rendering:auto;text-rendering:auto;enable-background:accumulate"
       d="m 390.34375,340.39844 c -95.11468,1.6e-4 -173.26218,72.14955 -182.19336,164.41601 l -0.0664,0 -0.0469,1.1211 c -0.006,0.0559 -0.0125,0.11201 -0.0176,0.16797 l 0.01,0 -0.71289,16.86718 -0.0332,0 c 5.4e-4,0.19913 0.007,0.39673 0.008,0.59571 l -0.0156,0.37109 0.0215,0 c 0.0387,4.77238 0.26723,9.4995 0.66796,14.17773 11.18607,1.54263 23.4146,2.56055 36.28516,2.56055 18.13056,0 34.2464,-6.12258 47.68555,-14.25781 -0.0336,-0.82378 -0.0723,-1.64731 -0.0801,-2.47266 l 1.54883,-17.84375 0.28711,0 c 9.28442,-43.31737 52.35825,-79.64075 97.2207,-79.64062 44.11382,0.0286 67.93548,0.3116 88.81055,29.20508 6.0456,9.99473 20.94419,18.63774 29.02929,18.73437 30.32929,-0.0183 67.66542,-20.11297 47.61133,-56.42773 -39.42935,-68.18757 -85.69085,-77.57042 -166.01953,-77.57422 z"
       id="path4269" />
  </g>
</svg>
