<?xml version="1.0" encoding="UTF-8" standalone="no"?>
<!-- Created with Inkscape (http://www.inkscape.org/) -->
<svg xmlns:dc="http://purl.org/dc/elements/1.1/" xmlns:cc="http://creativecommons.org/ns#" xmlns:rdf="http://www.w3.org/1999/02/22-rdf-syntax-ns#" xmlns:svg="http://www.w3.org/2000/svg" xmlns="http://www.w3.org/2000/svg" xmlns:xlink="http://www.w3.org/1999/xlink" xmlns:sodipodi="http://sodipodi.sourceforge.net/DTD/sodipodi-0.dtd" xmlns:inkscape="http://www.inkscape.org/namespaces/inkscape" width="210mm" height="297mm" id="svg2" version="1.1" inkscape:version="0.48.0 r9654">
  <title id="title3879">mongo</title>
  <defs id="defs4">
    <linearGradient inkscape:collect="always" id="linearGradient3852">
      <stop style="stop-color:#000000;stop-opacity:1;" offset="0" id="stop3854"/>
      <stop style="stop-color:#000000;stop-opacity:0;" offset="1" id="stop3856"/>
    </linearGradient>
    <linearGradient inkscape:collect="always" id="linearGradient3786">
      <stop style="stop-color:#ffffff;stop-opacity:1;" offset="0" id="stop3788"/>
      <stop style="stop-color:#ffffff;stop-opacity:0;" offset="1" id="stop3790"/>
    </linearGradient>
    <linearGradient inkscape:collect="always" xlink:href="#linearGradient3786" id="linearGradient3832" gradientUnits="userSpaceOnUse" gradientTransform="translate(-487.14286,4.2857143)" x1="416.10471" y1="341.94012" x2="230.84409" y2="320.51157"/>
    <radialGradient inkscape:collect="always" xlink:href="#linearGradient3852" id="radialGradient3858" cx="-761.65503" cy="757.39764" fx="-761.65503" fy="757.39764" r="379.04706" gradientTransform="matrix(1,0,0,0.66421261,0,254.32457)" gradientUnits="userSpaceOnUse"/>
    <linearGradient inkscape:collect="always" xlink:href="#linearGradient3786" id="linearGradient3781" gradientUnits="userSpaceOnUse" gradientTransform="translate(-487.14286,4.2857143)" x1="416.10471" y1="341.94012" x2="230.84409" y2="320.51157"/>
    <linearGradient inkscape:collect="always" xlink:href="#linearGradient3786" id="linearGradient3785" gradientUnits="userSpaceOnUse" gradientTransform="matrix(1.5558428,0,0,1.5558428,-118.31126,-48.133357)" x1="416.10471" y1="341.94012" x2="230.84409" y2="320.51157"/>
  </defs>
  <sodipodi:namedview id="base" pagecolor="#ffffff" bordercolor="#666666" borderopacity="1.0" inkscape:pageopacity="0.0" inkscape:pageshadow="2" inkscape:zoom="0.69999999" inkscape:cx="476.02046" inkscape:cy="534.78109" inkscape:document-units="px" inkscape:current-layer="layer1" showgrid="false" showguides="true" inkscape:guide-bbox="true" inkscape:window-width="1251" inkscape:window-height="687" inkscape:window-x="0" inkscape:window-y="0" inkscape:window-maximized="0">
    <sodipodi:guide orientation="0,1" position="-880.85302,1159.6551" id="guide3830"/>
    <sodipodi:guide orientation="0,1" position="-94.954341,925.29974" id="guide3000"/>
    <sodipodi:guide orientation="0,1" position="-103.03556,210.11173" id="guide3002"/>
    <sodipodi:guide orientation="1,0" position="723.26923,163.64471" id="guide3004"/>
    <sodipodi:guide orientation="1,0" position="8.0812205,143.44166" id="guide3006"/>
  </sodipodi:namedview>
  <metadata id="metadata7">
    <rdf:RDF>
      <cc:Work rdf:about="">
        <dc:format>image/svg+xml</dc:format>
        <dc:type rdf:resource="http://purl.org/dc/dcmitype/StillImage"/>
        <dc:title>mongo</dc:title>
        <dc:date>June 2013</dc:date>
        <dc:creator>
          <cc:Agent>
            <dc:title>Franziska Sponsel</dc:title>
          </cc:Agent>
        </dc:creator>
        <dc:rights>
          <cc:Agent>
            <dc:title>Franziska Sponsel</dc:title>
          </cc:Agent>
        </dc:rights>
        <dc:publisher>
          <cc:Agent>
            <dc:title>RRZe</dc:title>
          </cc:Agent>
        </dc:publisher>
        <dc:subject>
          <rdf:Bag>
            <rdf:li>Mongo DB</rdf:li>
            <rdf:li>database</rdf:li>
            <rdf:li>mongo</rdf:li>
            <rdf:li>leaf</rdf:li>
          </rdf:Bag>
        </dc:subject>
        <dc:contributor>
          <cc:Agent>
            <dc:title>Frank Troeger</dc:title>
          </cc:Agent>
        </dc:contributor>
      </cc:Work>
    </rdf:RDF>
  </metadata>
  <g inkscape:label="Ebene 1" inkscape:groupmode="layer" id="layer1">
    <g id="g3788">
      <path id="rect3827" d="m 8.0812206,127.06245 715.1879894,0 0,715.18798 -715.1879894,0 z" style="opacity:0.62883438000000003;fill:none;fill-opacity:1;stroke:none;stroke-width:2.50000000000000000;stroke-linecap:round;stroke-linejoin:round;stroke-miterlimit:4;stroke-dashoffset:22.80179958000000084;stroke-opacity:1"/>
      <path transform="matrix(0.39193939,0,0,0.14177061,670.07595,684.94571)" d="m -383.85797,757.39764 a 377.79706,250.51784 0 1 1 -755.59413,0 377.79706,250.51784 0 1 1 755.59413,0 z" sodipodi:ry="250.51784" sodipodi:rx="377.79706" sodipodi:cy="757.39764" sodipodi:cx="-761.65503" id="path3850" style="opacity:0.49693251999999999;fill:url(#radialGradient3858);fill-opacity:1;stroke:none;stroke-width:2.50000000000000000;stroke-linecap:round;stroke-linejoin:round;stroke-miterlimit:4;stroke-opacity:1;stroke-dasharray:none;stroke-dashoffset:22.80179958000000084" sodipodi:type="arc"/>
      <path style="fill:#c17d11;stroke:#8f5902;stroke-width:7;stroke-linecap:butt;stroke-linejoin:round;stroke-miterlimit:4;stroke-opacity:1;stroke-dasharray:none" d="m 383.67656,793.5734 -16.5022,-6.28656 c 0,0 0,-58.15062 -8.64402,-67.58046 -8.64401,-9.42982 13.35894,-72.29536 13.35894,-72.29536 l 22.00293,67.58046 c -10.48231,13.45521 -9.85429,46.909 -10.21565,78.58192 z" id="path3836" inkscape:connector-curvature="0" sodipodi:nodetypes="ccsccc"/>
      <path style="fill:#73d216;stroke:#4e9a06;stroke-width:27.77885628;stroke-linecap:butt;stroke-linejoin:round;stroke-miterlimit:4;stroke-opacity:1;stroke-dasharray:none" d="m 356.99013,721.16938 c 0,0 -85.60874,-70.80933 -107.47715,-136.06149 -20.85512,-62.22862 -30.17007,-157.38482 0,-229.81816 19.8665,-47.69619 47.5374,-106.64977 104.04702,-154.35547 8.22163,-6.94074 12.57711,-29.72772 12.57711,-29.72772 0,0 13.75636,29.85265 22.86749,43.44822 16.87015,25.17351 41.50954,44.52709 58.31206,69.7458 18.33649,27.52102 31.47409,57.93694 42.30485,89.18317 10.67352,30.79266 16.97267,62.47534 18.29397,94.90002 1.30138,31.93575 -2.82171,63.82265 -10.29036,94.90003 -4.42161,18.39853 -12.34522,35.55899 -20.58073,52.59519 -8.88016,18.36973 -22.54682,36.78537 -35.44459,52.59521 -15.84418,19.42149 -49.16508,48.02171 -49.16508,48.02171 0,0 -13.60608,-11.8773 -17.15062,-21.7241 -5.71624,-15.87992 -5.71686,-50.30846 -5.71686,-50.30846 z" id="path3840" inkscape:connector-curvature="0" sodipodi:nodetypes="cssscssssssscscc"/>
      <path sodipodi:nodetypes="cssscc" inkscape:connector-curvature="0" id="path3842" d="m 356.68624,702.80109 c 0,0 -83.20847,-66.03385 -104.46374,-126.8853 -20.27037,-58.03182 -29.32415,-146.77054 0,-214.31884 19.30949,-44.47949 46.20457,-99.45714 101.12979,-143.9455 7.9911,-6.47263 13.89145,-23.83323 13.89145,-23.83323 8.02776,176.65702 19.96625,395.49848 -10.5575,508.98287 z" style="fill:url(#linearGradient3785);fill-opacity:1;stroke:none"/>
      <path sodipodi:nodetypes="cssscssssssscscc" inkscape:connector-curvature="0" id="path3844" d="m 351.77553,698.45675 c 0,0 -51.53595,-36.04016 -86.12701,-111.13162 -26.68947,-57.93841 -35.99207,-151.30514 -6.6679,-221.7076 19.30948,-46.3589 41.20363,-100.3256 96.12885,-146.69374 7.9911,-6.74614 12.22449,-17.78108 12.22449,-17.78108 0,0 7.25841,15.12419 16.11408,28.33857 16.39715,24.46772 37.56743,39.38906 53.89885,63.90069 17.82236,26.74939 28.92464,52.42291 39.45172,82.79307 10.37427,29.9293 17.05246,62.39065 18.33672,93.90622 1.2649,31.04034 -2.18693,59.81057 -9.44618,90.01662 -4.29765,17.88267 -15.33304,40.11857 -23.33765,56.67713 -8.63117,17.85468 -17.46939,24.08516 -30.00554,39.45174 -15.39994,18.87694 -39.45171,41.1187 -39.45171,41.1187 0,0 -6.00106,-1.54245 -9.44621,-11.11317 -5.55598,-15.43468 -10.5575,-78.34779 -10.5575,-78.34779 -8.2642,18.34072 -17.12374,30.92649 -21.11501,90.57226 z" style="opacity:0.62883438;fill:none;stroke:#ffffff;stroke-width:6.22337103;stroke-linecap:butt;stroke-linejoin:miter;stroke-miterlimit:4;stroke-opacity:1;stroke-dasharray:none"/>
    </g>
  </g>
</svg>
