<?xml version="1.0" encoding="UTF-8" standalone="no"?>
<!-- Created with Inkscape (http://www.inkscape.org/) -->
<svg xmlns:dc="http://purl.org/dc/elements/1.1/" xmlns:cc="http://creativecommons.org/ns#" xmlns:rdf="http://www.w3.org/1999/02/22-rdf-syntax-ns#" xmlns:svg="http://www.w3.org/2000/svg" xmlns="http://www.w3.org/2000/svg" xmlns:xlink="http://www.w3.org/1999/xlink" xmlns:sodipodi="http://sodipodi.sourceforge.net/DTD/sodipodi-0.dtd" xmlns:inkscape="http://www.inkscape.org/namespaces/inkscape" width="210mm" height="297mm" id="svg2" version="1.1" inkscape:version="0.48.2 r9819" inkscape:export-xdpi="2.0699999" inkscape:export-ydpi="2.0699999">
  <title id="title3925">studon</title>
  <defs id="defs4">
    <linearGradient inkscape:collect="always" id="linearGradient3852">
      <stop style="stop-color:#2e3436;stop-opacity:1;" offset="0" id="stop3854"/>
      <stop style="stop-color:#2e3436;stop-opacity:0;" offset="1" id="stop3856"/>
    </linearGradient>
    <linearGradient inkscape:collect="always" id="linearGradient3836">
      <stop style="stop-color:#2e3436;stop-opacity:1;" offset="0" id="stop3838"/>
      <stop style="stop-color:#2e3436;stop-opacity:0;" offset="1" id="stop3840"/>
    </linearGradient>
    <linearGradient inkscape:collect="always" xlink:href="#linearGradient3836" id="linearGradient3876" gradientUnits="userSpaceOnUse" x1="160.36646" y1="374.79858" x2="199.29814" y2="489.08429"/>
    <linearGradient inkscape:collect="always" xlink:href="#linearGradient3836" id="linearGradient3878" gradientUnits="userSpaceOnUse" x1="219.05362" y1="374.2821" x2="248.51758" y2="452.85355"/>
    <linearGradient inkscape:collect="always" xlink:href="#linearGradient3836" id="linearGradient3880" gradientUnits="userSpaceOnUse" x1="266.33887" y1="366.4505" x2="302.19125" y2="465.02194"/>
    <linearGradient inkscape:collect="always" xlink:href="#linearGradient3836" id="linearGradient3882" gradientUnits="userSpaceOnUse" x1="317.24472" y1="349.9964" x2="371.70566" y2="468.56784"/>
    <linearGradient inkscape:collect="always" xlink:href="#linearGradient3836" id="linearGradient3884" gradientUnits="userSpaceOnUse" x1="555.67865" y1="357.13925" x2="591.35345" y2="438.56784"/>
    <linearGradient inkscape:collect="always" xlink:href="#linearGradient3852" id="linearGradient3886" gradientUnits="userSpaceOnUse" x1="332.29398" y1="626.27679" x2="408.10095" y2="755.6405"/>
    <linearGradient inkscape:collect="always" xlink:href="#linearGradient3836" id="linearGradient3069" gradientUnits="userSpaceOnUse" x1="160.36646" y1="374.79858" x2="199.29814" y2="489.08429"/>
    <linearGradient inkscape:collect="always" xlink:href="#linearGradient3836" id="linearGradient3071" gradientUnits="userSpaceOnUse" x1="219.05362" y1="374.2821" x2="248.51758" y2="452.85355"/>
    <linearGradient inkscape:collect="always" xlink:href="#linearGradient3836" id="linearGradient3073" gradientUnits="userSpaceOnUse" x1="266.33887" y1="366.4505" x2="302.19125" y2="465.02194"/>
    <linearGradient inkscape:collect="always" xlink:href="#linearGradient3836" id="linearGradient3075" gradientUnits="userSpaceOnUse" x1="317.24472" y1="349.9964" x2="371.70566" y2="468.56784"/>
    <linearGradient inkscape:collect="always" xlink:href="#linearGradient3836" id="linearGradient3077" gradientUnits="userSpaceOnUse" x1="555.67865" y1="357.13925" x2="591.35345" y2="438.56784"/>
    <linearGradient inkscape:collect="always" xlink:href="#linearGradient3852" id="linearGradient3079" gradientUnits="userSpaceOnUse" x1="332.29398" y1="626.27679" x2="408.10095" y2="755.6405"/>
    <linearGradient inkscape:collect="always" xlink:href="#linearGradient3836" id="linearGradient3883" gradientUnits="userSpaceOnUse" x1="160.36646" y1="374.79858" x2="199.29814" y2="489.08429"/>
    <linearGradient inkscape:collect="always" xlink:href="#linearGradient3836" id="linearGradient3885" gradientUnits="userSpaceOnUse" x1="219.05362" y1="374.2821" x2="248.51758" y2="452.85355"/>
    <linearGradient inkscape:collect="always" xlink:href="#linearGradient3836" id="linearGradient3887" gradientUnits="userSpaceOnUse" x1="266.33887" y1="366.4505" x2="302.19125" y2="465.02194"/>
    <linearGradient inkscape:collect="always" xlink:href="#linearGradient3836" id="linearGradient3889" gradientUnits="userSpaceOnUse" x1="317.24472" y1="349.9964" x2="371.70566" y2="468.56784"/>
    <linearGradient inkscape:collect="always" xlink:href="#linearGradient3836" id="linearGradient3891" gradientUnits="userSpaceOnUse" x1="555.67865" y1="357.13925" x2="591.35345" y2="438.56784"/>
    <linearGradient inkscape:collect="always" xlink:href="#linearGradient3852" id="linearGradient3893" gradientUnits="userSpaceOnUse" x1="332.29398" y1="626.27679" x2="408.10095" y2="755.6405"/>
    <linearGradient inkscape:collect="always" xlink:href="#linearGradient3836" id="linearGradient3911" gradientUnits="userSpaceOnUse" x1="160.36646" y1="374.79858" x2="199.29814" y2="489.08429"/>
    <linearGradient inkscape:collect="always" xlink:href="#linearGradient3836" id="linearGradient3913" gradientUnits="userSpaceOnUse" x1="219.05362" y1="374.2821" x2="248.51758" y2="452.85355"/>
    <linearGradient inkscape:collect="always" xlink:href="#linearGradient3836" id="linearGradient3915" gradientUnits="userSpaceOnUse" x1="266.33887" y1="366.4505" x2="302.19125" y2="465.02194"/>
    <linearGradient inkscape:collect="always" xlink:href="#linearGradient3836" id="linearGradient3917" gradientUnits="userSpaceOnUse" x1="317.24472" y1="349.9964" x2="371.70566" y2="468.56784"/>
    <linearGradient inkscape:collect="always" xlink:href="#linearGradient3836" id="linearGradient3919" gradientUnits="userSpaceOnUse" x1="555.67865" y1="357.13925" x2="591.35345" y2="438.56784"/>
    <linearGradient inkscape:collect="always" xlink:href="#linearGradient3852" id="linearGradient3921" gradientUnits="userSpaceOnUse" x1="332.29398" y1="626.27679" x2="408.10095" y2="755.6405"/>
    <linearGradient inkscape:collect="always" xlink:href="#linearGradient3836" id="linearGradient3070" gradientUnits="userSpaceOnUse" x1="160.36646" y1="374.79858" x2="199.29814" y2="489.08429"/>
    <linearGradient inkscape:collect="always" xlink:href="#linearGradient3836" id="linearGradient3072" gradientUnits="userSpaceOnUse" x1="219.05362" y1="374.2821" x2="248.51758" y2="452.85355"/>
    <linearGradient inkscape:collect="always" xlink:href="#linearGradient3836" id="linearGradient3074" gradientUnits="userSpaceOnUse" x1="266.33887" y1="366.4505" x2="302.19125" y2="465.02194"/>
    <linearGradient inkscape:collect="always" xlink:href="#linearGradient3836" id="linearGradient3076" gradientUnits="userSpaceOnUse" x1="317.24472" y1="349.9964" x2="371.70566" y2="468.56784"/>
    <linearGradient inkscape:collect="always" xlink:href="#linearGradient3836" id="linearGradient3078" gradientUnits="userSpaceOnUse" x1="555.67865" y1="357.13925" x2="591.35345" y2="438.56784"/>
    <linearGradient inkscape:collect="always" xlink:href="#linearGradient3852" id="linearGradient3080" gradientUnits="userSpaceOnUse" x1="332.29398" y1="626.27679" x2="408.10095" y2="755.6405"/>
    <linearGradient inkscape:collect="always" xlink:href="#linearGradient3836" id="linearGradient3084" gradientUnits="userSpaceOnUse" x1="555.67865" y1="357.13925" x2="591.35345" y2="438.56784" gradientTransform="matrix(1.0675403,0,0,0.9283661,-48.589794,105.13789)"/>
    <linearGradient inkscape:collect="always" xlink:href="#linearGradient3836" id="linearGradient3087" gradientUnits="userSpaceOnUse" x1="317.24472" y1="349.9964" x2="371.70566" y2="468.56784" gradientTransform="matrix(1.0813435,0,0,0.92820083,-21.07034,105.20943)"/>
    <linearGradient inkscape:collect="always" xlink:href="#linearGradient3836" id="linearGradient3090" gradientUnits="userSpaceOnUse" x1="266.33887" y1="366.4505" x2="302.19125" y2="465.02194" gradientTransform="matrix(1.1058173,0,0,0.92795113,-18.796583,105.31605)"/>
    <linearGradient inkscape:collect="always" xlink:href="#linearGradient3836" id="linearGradient3093" gradientUnits="userSpaceOnUse" x1="219.05362" y1="374.2821" x2="248.51758" y2="452.85355" gradientTransform="matrix(1.0638454,0,0,0.92841053,0.21700435,105.11866)"/>
    <linearGradient inkscape:collect="always" xlink:href="#linearGradient3836" id="linearGradient3096" gradientUnits="userSpaceOnUse" x1="160.36646" y1="374.79858" x2="199.29814" y2="489.08429" gradientTransform="matrix(1.1037089,0,0,0.92801166,1.9006476,105.28943)"/>
    <linearGradient inkscape:collect="always" xlink:href="#linearGradient3852" id="linearGradient3874" gradientUnits="userSpaceOnUse" x1="332.29398" y1="626.27679" x2="408.10095" y2="755.6405"/>
  </defs>
  <sodipodi:namedview id="base" pagecolor="#ffffff" bordercolor="#666666" borderopacity="1.0" inkscape:pageopacity="0.0" inkscape:pageshadow="2" inkscape:zoom="0.69999999" inkscape:cx="610.89264" inkscape:cy="538.89043" inkscape:document-units="px" inkscape:current-layer="layer1" showgrid="false" showguides="true" inkscape:guide-bbox="true" inkscape:snap-global="false" inkscape:window-width="1249" inkscape:window-height="686" inkscape:window-x="0" inkscape:window-y="0" inkscape:window-maximized="0">
    <sodipodi:guide orientation="0,1" position="-460,905.71429" id="guide2998"/>
    <sodipodi:guide orientation="0,1" position="-317.14286,200" id="guide3000"/>
    <sodipodi:guide orientation="1,0" position="725.71429,91.428571" id="guide3002"/>
    <sodipodi:guide orientation="1,0" position="20,51.428571" id="guide3004"/>
    <sodipodi:guide orientation="0,1" position="-5.0507628,561.64482" id="guide3030"/>
  </sodipodi:namedview>
  <metadata id="metadata7">
    <rdf:RDF>
      <cc:Work rdf:about="">
        <dc:format>image/svg+xml</dc:format>
        <dc:type rdf:resource="http://purl.org/dc/dcmitype/StillImage"/>
        <dc:title>studon</dc:title>
        <dc:date>Mar 2014</dc:date>
        <dc:creator>
          <cc:Agent>
            <dc:title>Franziska Sponsel</dc:title>
          </cc:Agent>
        </dc:creator>
        <dc:rights>
          <cc:Agent>
            <dc:title>Franziska Sponsel</dc:title>
          </cc:Agent>
        </dc:rights>
        <dc:publisher>
          <cc:Agent>
            <dc:title>RRZE</dc:title>
          </cc:Agent>
        </dc:publisher>
        <dc:subject>
          <rdf:Bag>
            <rdf:li>Studon</rdf:li>
            <rdf:li>FAU</rdf:li>
            <rdf:li>Erlangen</rdf:li>
            <rdf:li>students</rdf:li>
            <rdf:li>portal</rdf:li>
          </rdf:Bag>
        </dc:subject>
        <dc:contributor>
          <cc:Agent>
            <dc:title>Hendrik Eggers</dc:title>
          </cc:Agent>
        </dc:contributor>
        <cc:license rdf:resource="http://creativecommons.org/licenses/by-sa/3.0/"/>
      </cc:Work>
      <cc:License rdf:about="http://creativecommons.org/licenses/by-sa/3.0/">
        <cc:permits rdf:resource="http://creativecommons.org/ns#Reproduction"/>
        <cc:permits rdf:resource="http://creativecommons.org/ns#Distribution"/>
        <cc:requires rdf:resource="http://creativecommons.org/ns#Notice"/>
        <cc:requires rdf:resource="http://creativecommons.org/ns#Attribution"/>
        <cc:permits rdf:resource="http://creativecommons.org/ns#DerivativeWorks"/>
        <cc:requires rdf:resource="http://creativecommons.org/ns#ShareAlike"/>
      </cc:License>
    </rdf:RDF>
  </metadata>
  <g inkscape:label="Ebene 1" inkscape:groupmode="layer" id="layer1">
    <g id="g3876">
      <rect ry="0" rx="0" y="152.36218" x="25.714285" height="694.28571" width="694.28571" id="rect2996" style="fill:none;stroke:none"/>
      <path d="m 204.36485,472.62404 0,15.11756 c -2.77155,-1.75412 -5.47553,-3.07771 -8.11188,-3.97076 -2.63634,-0.89298 -5.12624,-1.3395 -7.46966,-1.3395 -3.1096,0 -5.40793,0.60582 -6.89511,1.81788 -1.4872,1.21205 -2.23077,3.09368 -2.23077,5.64517 0,1.91364 0.49551,3.41261 1.48717,4.49698 1.014,1.05249 2.83919,1.96147 5.47552,2.72684 l 5.54313,1.57873 c 5.6107,1.59473 9.599,4.01867 11.96504,7.27174 2.36591,3.25317 3.54887,7.87775 3.54895,13.87368 -8e-5,7.87764 -1.65621,13.74604 -4.96855,17.60517 -3.28986,3.82723 -8.32596,5.74079 -15.10841,5.74079 -3.19968,0 -6.41061,-0.43029 -9.63282,-1.29166 -3.22221,-0.86113 -6.44446,-2.13686 -9.66665,-3.82722 l 0,-15.54808 c 3.22219,2.42394 6.33172,4.25783 9.32867,5.50164 3.01939,1.21196 5.92617,1.81795 8.72027,1.81795 2.83914,0 5.01354,-0.66951 6.52331,-2.00933 1.50967,-1.3395 2.26454,-3.25307 2.26454,-5.74078 0,-2.23256 -0.51861,-3.95475 -1.55478,-5.16681 -1.014,-1.21188 -3.05323,-2.29624 -6.11767,-3.25306 l -5.03617,-1.57874 c -5.04737,-1.53088 -8.74282,-3.97074 -11.08624,-7.31959 -2.32087,-3.34876 -3.48131,-7.86165 -3.48131,-13.53875 0,-7.11222 1.62236,-12.58193 4.86714,-16.40923 3.24471,-3.82713 7.90905,-5.74069 13.99297,-5.74076 2.77151,7e-5 5.62194,0.30291 8.55126,0.90897 2.92928,0.57397 5.95997,1.4512 9.09205,2.63117" style="font-size:12px;font-style:normal;font-weight:bold;line-height:125%;letter-spacing:0px;word-spacing:0px;fill:#204a87;fill-opacity:1;stroke:#204a87;stroke-width:2.03500962;font-family:Sans;-inkscape-font-specification:Sans Bold" id="path3015" inkscape:connector-curvature="0"/>
      <path d="m 221.09794,471.25639 35.90445,0 0,13.9275 -12.9162,0 0,57.52862 -10.04595,0 0,-57.52862 -12.9423,0 0,-13.9275" style="font-size:12px;font-style:normal;font-weight:bold;line-height:125%;letter-spacing:0px;word-spacing:0px;fill:#204a87;fill-opacity:1;stroke:#204a87;stroke-width:1.99835098;font-family:Sans;-inkscape-font-specification:Sans Bold" id="path3017" inkscape:connector-curvature="0"/>
      <path d="m 275.72552,469.93984 10.44228,0 0,42.81415 c -7e-5,5.89995 0.5424,10.12557 1.62735,12.67688 1.10298,2.5194 2.89309,3.77912 5.37032,3.77912 2.49524,0 4.28535,-1.25972 5.37028,-3.77912 1.10299,-2.55131 1.65448,-6.77693 1.65448,-12.67688 l 0,-42.81415 10.44227,0 0,42.81415 c -4e-5,10.10965 -1.43752,17.63597 -4.31252,22.57915 -2.87505,4.94316 -7.25985,7.41472 -13.15451,7.41472 -5.87665,0 -10.25243,-2.47156 -13.12743,-7.41472 -2.87504,-4.94318 -4.31252,-12.4695 -4.31252,-22.57915 l 0,-42.81415" style="font-size:12px;font-style:normal;font-weight:bold;line-height:125%;letter-spacing:0px;word-spacing:0px;fill:#204a87;fill-opacity:1;stroke:#204a87;stroke-width:2.03688598;font-family:Sans;-inkscape-font-specification:Sans Bold" id="path3019" inkscape:connector-curvature="0"/>
      <path d="m 339.91521,485.18881 0,43.59129 3.66007,0 c 4.17285,0 7.35552,-1.8661 9.54812,-5.59847 2.21017,-3.7322 3.31527,-9.15527 3.31532,-16.26892 -5e-5,-7.08173 -1.09633,-12.47286 -3.28883,-16.17328 -2.19256,-3.70038 -5.38406,-5.55055 -9.57461,-5.55062 l -3.66007,0 m -10.21118,-13.92435 10.7681,0 c 6.01175,8e-5 10.4852,0.78152 13.42043,2.34464 2.95279,1.5313 5.48126,4.14708 7.58542,7.84741 1.85655,3.22198 3.23569,6.93834 4.13751,11.14902 0.90172,4.21083 1.35262,8.97991 1.35266,14.30718 -4e-5,5.39112 -0.45085,10.20798 -1.35266,14.45067 -0.90182,4.21085 -2.28096,7.92712 -4.13751,11.149 -2.12184,3.70042 -4.668,6.33215 -7.63847,7.89527 -2.97056,1.5312 -7.42634,2.29679 -13.36738,2.29679 l -10.7681,0 0,-71.43998" style="font-size:12px;font-style:normal;font-weight:bold;line-height:125%;letter-spacing:0px;word-spacing:0px;fill:#204a87;fill-opacity:1;stroke:#204a87;stroke-width:2.01449084;font-family:Sans;-inkscape-font-specification:Sans Bold" id="path3021" inkscape:connector-curvature="0"/>
      <path d="m 546.14464,471.2581 11.25915,0 14.21788,49.00706 0,-49.00706 9.55713,0 0,71.4527 -11.25909,0 -14.21787,-49.00706 0,49.00706 -9.5572,0 0,-71.4527" style="font-size:12px;font-style:normal;font-weight:bold;line-height:125%;letter-spacing:0px;word-spacing:0px;fill:#204a87;fill-opacity:1;stroke:#204a87;stroke-width:2.00177026;font-family:Sans;-inkscape-font-specification:Sans Bold" id="path3023" inkscape:connector-curvature="0"/>
      <path transform="matrix(2.2293972,0,0,2.2293972,-338.60157,-1013.2113)" d="m 388.57141,678.79077 a 32.142857,32.142857 0 1 1 -64.28571,0 32.142857,32.142857 0 1 1 64.28571,0 z" sodipodi:ry="32.142857" sodipodi:rx="32.142857" sodipodi:cy="678.79077" sodipodi:cx="356.42856" id="path3032" style="fill:none;stroke:#204a87;stroke-width:9.60000038;stroke-linecap:round;stroke-linejoin:round;stroke-miterlimit:4;stroke-opacity:1;stroke-dasharray:none;stroke-dashoffset:22.80179958" sodipodi:type="arc"/>
      <path inkscape:connector-curvature="0" id="path3802" d="m 57.940438,500.52184 90.836792,0" style="fill:none;stroke:#888a85;stroke-width:19.5121727;stroke-linecap:square;stroke-linejoin:miter;stroke-miterlimit:4;stroke-opacity:1;stroke-dasharray:none"/>
      <path style="fill:none;stroke:#888a85;stroke-width:18.8816433;stroke-linecap:square;stroke-linejoin:miter;stroke-miterlimit:4;stroke-opacity:1;stroke-dasharray:none" d="m 598.95366,501.02691 90.8368,0" id="path3804" inkscape:connector-curvature="0"/>
      <path inkscape:connector-curvature="0" id="path3824" style="font-size:12px;font-style:normal;font-weight:bold;line-height:125%;letter-spacing:0px;word-spacing:0px;opacity:0.57975458;fill:url(#linearGradient3096);fill-opacity:1;stroke:none;font-family:Sans;-inkscape-font-specification:Sans Bold" d="m 204.36485,472.62404 0,15.11756 c -2.77155,-1.75412 -5.47553,-3.07771 -8.11188,-3.97076 -2.63634,-0.89298 -5.12624,-1.3395 -7.46966,-1.3395 -3.1096,0 -5.40793,0.60582 -6.89511,1.81788 -1.4872,1.21205 -2.23077,3.09368 -2.23077,5.64517 0,1.91364 0.49551,3.41261 1.48717,4.49698 1.014,1.05249 2.83919,1.96147 5.47552,2.72684 l 5.54313,1.57873 c 5.6107,1.59473 9.599,4.01867 11.96504,7.27174 2.36591,3.25317 3.54887,7.87775 3.54895,13.87368 -8e-5,7.87764 -1.65621,13.74604 -4.96855,17.60517 -3.28986,3.82723 -8.32596,5.74079 -15.10841,5.74079 -3.19968,0 -6.41061,-0.43029 -9.63282,-1.29166 -3.22221,-0.86113 -6.44446,-2.13686 -9.66665,-3.82722 l 0,-15.54808 c 3.22219,2.42394 6.33172,4.25783 9.32867,5.50164 3.01939,1.21196 5.92617,1.81795 8.72027,1.81795 2.83914,0 5.01354,-0.66951 6.52331,-2.00933 1.50967,-1.3395 2.26454,-3.25307 2.26454,-5.74078 0,-2.23256 -0.51861,-3.95475 -1.55478,-5.16681 -1.014,-1.21188 -3.05323,-2.29624 -6.11767,-3.25306 l -5.03617,-1.57874 c -5.04737,-1.53088 -8.74282,-3.97074 -11.08624,-7.31959 -2.32087,-3.34876 -3.48131,-7.86165 -3.48131,-13.53875 0,-7.11222 1.62236,-12.58193 4.86714,-16.40923 3.24471,-3.82713 7.90905,-5.74069 13.99297,-5.74076 2.77151,7e-5 5.62194,0.30291 8.55126,0.90897 2.92928,0.57397 5.95997,1.4512 9.09205,2.63117"/>
      <path inkscape:connector-curvature="0" id="path3826" style="font-size:12px;font-style:normal;font-weight:bold;line-height:125%;letter-spacing:0px;word-spacing:0px;opacity:0.57975458;fill:url(#linearGradient3093);fill-opacity:1;stroke:none;font-family:Sans;-inkscape-font-specification:Sans Bold" d="m 221.09794,471.25639 35.90445,0 0,13.9275 -12.9162,0 0,57.52862 -10.04595,0 0,-57.52862 -12.9423,0 0,-13.9275"/>
      <path inkscape:connector-curvature="0" id="path3828" style="font-size:12px;font-style:normal;font-weight:bold;line-height:125%;letter-spacing:0px;word-spacing:0px;opacity:0.57975458;fill:url(#linearGradient3090);fill-opacity:1;stroke:none;font-family:Sans;-inkscape-font-specification:Sans Bold" d="m 275.72552,469.93984 10.44228,0 0,42.81415 c -7e-5,5.89995 0.5424,10.12557 1.62735,12.67688 1.10298,2.5194 2.89309,3.77912 5.37032,3.77912 2.49524,0 4.28535,-1.25972 5.37028,-3.77912 1.10299,-2.55131 1.65448,-6.77693 1.65448,-12.67688 l 0,-42.81415 10.44227,0 0,42.81415 c -4e-5,10.10965 -1.43752,17.63597 -4.31252,22.57915 -2.87505,4.94316 -7.25985,7.41472 -13.15451,7.41472 -5.87665,0 -10.25243,-2.47156 -13.12743,-7.41472 -2.87504,-4.94318 -4.31252,-12.4695 -4.31252,-22.57915 l 0,-42.81415"/>
      <path inkscape:connector-curvature="0" id="path3830" style="font-size:12px;font-style:normal;font-weight:bold;line-height:125%;letter-spacing:0px;word-spacing:0px;opacity:0.57975458;fill:url(#linearGradient3087);fill-opacity:1;stroke:none;font-family:Sans;-inkscape-font-specification:Sans Bold" d="m 339.91521,485.18881 0,43.59129 3.66007,0 c 4.17285,0 7.35552,-1.8661 9.54812,-5.59847 2.21017,-3.7322 3.31527,-9.15527 3.31532,-16.26892 -5e-5,-7.08173 -1.09633,-12.47286 -3.28883,-16.17328 -2.19256,-3.70038 -5.38406,-5.55055 -9.57461,-5.55062 l -3.66007,0 m -10.21118,-13.92435 10.7681,0 c 6.01175,8e-5 10.4852,0.78152 13.42043,2.34464 2.95279,1.5313 5.48126,4.14708 7.58542,7.84741 1.85655,3.22198 3.23569,6.93834 4.13751,11.14902 0.90172,4.21083 1.35262,8.97991 1.35266,14.30718 -4e-5,5.39112 -0.45085,10.20798 -1.35266,14.45067 -0.90182,4.21085 -2.28096,7.92712 -4.13751,11.149 -2.12184,3.70042 -4.668,6.33215 -7.63847,7.89527 -2.97056,1.5312 -7.42634,2.29679 -13.36738,2.29679 l -10.7681,0 0,-71.43998"/>
      <path inkscape:connector-curvature="0" id="path3832" style="font-size:12px;font-style:normal;font-weight:bold;line-height:125%;letter-spacing:0px;word-spacing:0px;opacity:0.57975458;fill:url(#linearGradient3084);fill-opacity:1;stroke:none;font-family:Sans;-inkscape-font-specification:Sans Bold" d="m 546.14464,471.2581 11.25915,0 14.21788,49.00706 0,-49.00706 9.55713,0 0,71.4527 -11.25909,0 -14.21787,-49.00706 0,49.00706 -9.5572,0 0,-71.4527"/>
      <path sodipodi:type="arc" style="opacity:0.81999966;fill:none;stroke:url(#linearGradient3874);stroke-width:9.60000038;stroke-linecap:round;stroke-linejoin:round;stroke-miterlimit:4;stroke-opacity:1;stroke-dasharray:none;stroke-dashoffset:22.80179958" id="path3834" sodipodi:cx="356.42856" sodipodi:cy="678.79077" sodipodi:rx="32.142857" sodipodi:ry="32.142857" d="m 388.57141,678.79077 a 32.142857,32.142857 0 1 1 -64.28571,0 32.142857,32.142857 0 1 1 64.28571,0 z" transform="matrix(2.2293972,0,0,2.2293972,-338.60157,-1013.2113)"/>
    </g>
  </g>
</svg>
