<?xml version="1.0" encoding="UTF-8" standalone="no"?>
<!-- Created with Inkscape (http://www.inkscape.org/) -->
<svg xmlns:dc="http://purl.org/dc/elements/1.1/" xmlns:cc="http://creativecommons.org/ns#" xmlns:rdf="http://www.w3.org/1999/02/22-rdf-syntax-ns#" xmlns:svg="http://www.w3.org/2000/svg" xmlns="http://www.w3.org/2000/svg" xmlns:xlink="http://www.w3.org/1999/xlink" xmlns:sodipodi="http://sodipodi.sourceforge.net/DTD/sodipodi-0.dtd" xmlns:inkscape="http://www.inkscape.org/namespaces/inkscape" width="210mm" height="297mm" id="svg2" version="1.1" inkscape:version="0.48.0 r9654">
  <title id="title3962">vpn</title>
  <defs id="defs4">
    <linearGradient id="linearGradient3889">
      <stop style="stop-color:#eeeeec;stop-opacity:1;" offset="0" id="stop3891"/>
      <stop style="stop-color:#ffffff;stop-opacity:1;" offset="1" id="stop3893"/>
    </linearGradient>
    <linearGradient id="linearGradient3875">
      <stop style="stop-color:#ffffff;stop-opacity:1;" offset="0" id="stop3877"/>
      <stop id="stop3885" offset="0.20752585" style="stop-color:#ffffff;stop-opacity:0.50649351;"/>
      <stop id="stop3883" offset="0.5" style="stop-color:#ffffff;stop-opacity:1;"/>
      <stop style="stop-color:#ffffff;stop-opacity:0;" offset="1" id="stop3879"/>
    </linearGradient>
    <linearGradient inkscape:collect="always" xlink:href="#linearGradient3875" id="linearGradient3881" x1="96.357147" y1="274.50507" x2="880.78571" y2="640.21936" gradientUnits="userSpaceOnUse" gradientTransform="matrix(0.96930742,0,0,0.96930742,11.180864,16.405332)"/>
    <linearGradient inkscape:collect="always" xlink:href="#linearGradient3889" id="linearGradient3895" x1="390" y1="631.64789" x2="390" y2="251.64789" gradientUnits="userSpaceOnUse"/>
    <linearGradient inkscape:collect="always" xlink:href="#linearGradient3875" id="linearGradient3030" gradientUnits="userSpaceOnUse" gradientTransform="matrix(0.96930742,0,0,0.96930742,11.180864,16.405332)" x1="96.357147" y1="274.50507" x2="880.78571" y2="640.21936"/>
    <linearGradient inkscape:collect="always" xlink:href="#linearGradient3875" id="linearGradient3062" gradientUnits="userSpaceOnUse" gradientTransform="matrix(0.96930742,0,0,0.96930742,11.180864,16.405332)" x1="96.357147" y1="274.50507" x2="880.78571" y2="640.21936"/>
    <linearGradient inkscape:collect="always" xlink:href="#linearGradient3875" id="linearGradient3064" gradientUnits="userSpaceOnUse" gradientTransform="matrix(0.96930742,0,0,0.96930742,11.180864,16.405332)" x1="96.357147" y1="274.50507" x2="880.78571" y2="640.21936"/>
    <linearGradient inkscape:collect="always" xlink:href="#linearGradient3889" id="linearGradient3066" gradientUnits="userSpaceOnUse" x1="390" y1="631.64789" x2="390" y2="251.64789"/>
    <linearGradient inkscape:collect="always" xlink:href="#linearGradient3889" id="linearGradient3093" gradientUnits="userSpaceOnUse" x1="390" y1="631.64789" x2="390" y2="251.64789"/>
    <linearGradient inkscape:collect="always" xlink:href="#linearGradient3875" id="linearGradient3096" gradientUnits="userSpaceOnUse" gradientTransform="matrix(0.96930742,0,0,0.96930742,11.180864,16.405332)" x1="96.357147" y1="274.50507" x2="880.78571" y2="640.21936"/>
    <linearGradient inkscape:collect="always" xlink:href="#linearGradient3875" id="linearGradient3099" gradientUnits="userSpaceOnUse" gradientTransform="matrix(0.96930742,0,0,0.96930742,11.180864,16.405332)" x1="96.357147" y1="274.50507" x2="880.78571" y2="640.21936"/>
  </defs>
  <sodipodi:namedview id="base" pagecolor="#ffffff" bordercolor="#666666" borderopacity="1.0" inkscape:pageopacity="0.0" inkscape:pageshadow="2" inkscape:zoom="0.49497474" inkscape:cx="100.2816" inkscape:cy="591.00804" inkscape:document-units="px" inkscape:current-layer="layer1" showgrid="false" showguides="true" inkscape:guide-bbox="true" inkscape:snap-global="false" inkscape:window-width="1246" inkscape:window-height="696" inkscape:window-x="0" inkscape:window-y="0" inkscape:window-maximized="0">
    <sodipodi:guide orientation="0,1" position="-80,874.28571" id="guide2989"/>
    <sodipodi:guide orientation="0,1" position="-371.42857,174.28571" id="guide2991"/>
    <sodipodi:guide orientation="1,0" position="717.14286,51.428571" id="guide2993"/>
    <sodipodi:guide orientation="1,0" position="17.142857,17.142857" id="guide2995"/>
    <sodipodi:guide orientation="-0.70710678,0.70710678" position="0,882.85714" id="guide3827"/>
    <sodipodi:guide orientation="0,1" position="67.142857,640" id="guide3829"/>
  </sodipodi:namedview>
  <metadata id="metadata7">
    <rdf:RDF>
      <cc:Work rdf:about="">
        <dc:format>image/svg+xml</dc:format>
        <dc:type rdf:resource="http://purl.org/dc/dcmitype/StillImage"/>
        <dc:title>vpn</dc:title>
        <dc:date>July 2013</dc:date>
        <dc:creator>
          <cc:Agent>
            <dc:title>Franziska Sponsel</dc:title>
          </cc:Agent>
        </dc:creator>
        <dc:rights>
          <cc:Agent>
            <dc:title>Franziska Sponsel</dc:title>
          </cc:Agent>
        </dc:rights>
        <dc:publisher>
          <cc:Agent>
            <dc:title>RRZE</dc:title>
          </cc:Agent>
        </dc:publisher>
        <dc:subject>
          <rdf:Bag>
            <rdf:li>cisco vpn</rdf:li>
            <rdf:li>vpn</rdf:li>
            <rdf:li>vpn client</rdf:li>
          </rdf:Bag>
        </dc:subject>
        <dc:contributor>
          <cc:Agent>
            <dc:title>Ute Weber, Sven Marschke</dc:title>
          </cc:Agent>
        </dc:contributor>
        <cc:license rdf:resource="http://creativecommons.org/licenses/by-sa/3.0/"/>
      </cc:Work>
      <cc:License rdf:about="http://creativecommons.org/licenses/by-sa/3.0/">
        <cc:permits rdf:resource="http://creativecommons.org/ns#Reproduction"/>
        <cc:permits rdf:resource="http://creativecommons.org/ns#Distribution"/>
        <cc:requires rdf:resource="http://creativecommons.org/ns#Notice"/>
        <cc:requires rdf:resource="http://creativecommons.org/ns#Attribution"/>
        <cc:permits rdf:resource="http://creativecommons.org/ns#DerivativeWorks"/>
        <cc:requires rdf:resource="http://creativecommons.org/ns#ShareAlike"/>
      </cc:License>
    </rdf:RDF>
  </metadata>
  <g inkscape:label="Ebene 1" inkscape:groupmode="layer" id="layer1">
    <g id="g3896">
      <path inkscape:connector-curvature="0" id="rect3776" d="m 70.270375,209.81932 588.030675,0 c 15.78982,0 28.50147,12.76745 28.50147,28.62657 l 0,592.11829 c 0,15.85912 -12.71165,28.62657 -28.50147,28.62657 l -588.030675,0 c -15.789822,0 -28.501486,-12.76745 -28.501486,-28.62657 l 0,-592.11829 c 0,-15.85912 12.711664,-28.62657 28.501486,-28.62657 z" style="fill:#3465a4;stroke:#204a87;stroke-width:23;stroke-miterlimit:4;stroke-opacity:1;stroke-dasharray:none"/>
      <path id="rect2987" d="m 16.908268,178.31105 700.000002,0 0,700 -700.000002,0 z" style="fill:none;stroke:none"/>
      <path sodipodi:nodetypes="sssssssss" style="opacity:0.54294481;fill:url(#linearGradient3099);fill-opacity:1;stroke:#ffffff;stroke-width:13.06015396;stroke-miterlimit:4;stroke-opacity:1;stroke-dasharray:none" d="m 82.990096,225.22334 562.591204,0 c 22.57212,0 27.26848,3.48367 27.26848,27.26848 l 0,564.02643 c 0,21.43758 2.34564,27.26848 -27.26848,27.26848 l -562.591204,0 c -24.862527,0 -27.268452,3.43075 -27.268452,-27.26848 l 0,-564.02643 c 0,-19.28321 2.774892,-27.26848 27.268452,-27.26848 z" id="path3873" inkscape:connector-curvature="0"/>
      <path sodipodi:nodetypes="sssszzsss" inkscape:connector-curvature="0" id="path3887" d="m 82.990096,225.22334 562.591204,0 c 15.10676,0 27.26848,12.16172 27.26848,27.26848 l 0,244.02643 c 0,15.10676 -125.42939,67.26848 -158.69705,38.69705 -33.26767,-28.57143 -149.32356,-97.14286 -236.87692,-88.57143 -87.55336,8.57143 -221.554166,82.124 -221.554166,67.01724 l 0,-261.16929 c 0,-15.10676 12.161724,-27.26848 27.268452,-27.26848 z" style="opacity:0.54294481;fill:url(#linearGradient3096);fill-opacity:1;stroke:none"/>
      <path sodipodi:nodetypes="sssccccss" inkscape:connector-curvature="0" id="rect3779" d="m 108.57143,248.07646 514.2857,0 c 15.03714,0 27.14285,12.10572 27.14285,27.14286 l 0,331.42858 -0.71428,2.85715 -567.142841,0 -0.714285,-1.42857 0,-332.85716 c 0,-15.03714 12.105714,-27.14286 27.142856,-27.14286 z" style="fill:url(#linearGradient3093);fill-opacity:1;stroke:none"/>
      <g id="flowRoot3782" style="font-size:144px;font-style:normal;font-weight:bold;line-height:125%;letter-spacing:0px;word-spacing:0px;fill:#cc0000;fill-opacity:1;stroke:none;font-family:Sans;-inkscape-font-specification:Sans Bold" transform="matrix(1.0992735,0,0,1.104282,-102.26531,-16.369341)">
        <path inkscape:connector-curvature="0" id="path3886" d="m 276.46875,518.70375 c -4.96884,2.57813 -10.14852,4.52344 -15.53906,5.83594 -5.3907,1.3125 -11.0157,1.96875 -16.875,1.96875 -17.48442,0 -31.33597,-4.875 -41.55469,-14.625 -10.21876,-9.79685 -15.32813,-23.06246 -15.32813,-39.79687 0,-16.78118 5.10937,-30.0468 15.32813,-39.79688 10.21872,-9.79677 24.07027,-14.6952 41.55469,-14.69531 5.8593,1.1e-4 11.4843,0.65636 16.875,1.96875 5.39054,1.3126 10.57022,3.25791 15.53906,5.83594 l 0,21.72656 c -5.01572,-3.4218 -9.96102,-5.92961 -14.83594,-7.52344 -4.87507,-1.59366 -10.00788,-2.39054 -15.39844,-2.39062 -9.6563,8e-5 -17.25004,3.09383 -22.78125,9.28125 -5.53128,6.18757 -8.29691,14.71881 -8.29687,25.59375 -4e-5,10.82816 2.76559,19.33597 8.29687,25.52343 5.53121,6.18752 13.12495,9.28127 22.78125,9.28125 5.39056,2e-5 10.52337,-0.79685 15.39844,-2.39062 4.87492,-1.59373 9.82022,-4.10154 14.83594,-7.52344 l 0,21.72656"/>
        <path inkscape:connector-curvature="0" id="path3888" d="m 298.96875,419.49282 27.07031,0 0,104.97656 -27.07031,0 0,-104.97656"/>
        <path inkscape:connector-curvature="0" id="path3890" d="m 425.74219,422.7975 0,22.21875 c -5.76571,-2.57804 -11.3907,-4.52335 -16.875,-5.83593 -5.48444,-1.31242 -10.66412,-1.96867 -15.53907,-1.96875 -6.46879,8e-5 -11.25004,0.89071 -14.34375,2.67187 -3.09378,1.78133 -4.64065,4.54696 -4.64062,8.29688 -3e-5,2.81257 1.03121,5.01569 3.09375,6.60937 2.10933,1.54694 5.90621,2.88288 11.39062,4.00781 l 11.53125,2.32032 c 11.67181,2.34381 19.96867,5.9063 24.89063,10.6875 4.92178,4.78129 7.38272,11.57816 7.38281,20.39062 -9e-5,11.57815 -3.4454,20.20314 -10.33594,25.875 -6.84382,5.625 -17.32037,8.4375 -31.42968,8.4375 -6.6563,0 -13.33598,-0.63281 -20.03907,-1.89844 -6.70314,-1.26562 -13.40626,-3.14062 -20.10937,-5.625 l 0,-22.85156 c 6.70311,3.56253 13.17185,6.25784 19.40625,8.08594 6.28121,1.78127 12.32808,2.67189 18.14062,2.67187 5.9062,2e-5 10.42963,-0.98435 13.57032,-2.95312 3.14056,-1.96873 4.71087,-4.78123 4.71093,-8.4375 -6e-5,-3.28122 -1.07819,-5.81247 -3.23437,-7.59375 -2.10944,-1.78121 -6.35162,-3.37496 -12.72656,-4.78125 l -10.47657,-2.32031 c -10.50003,-2.24996 -18.18752,-5.83589 -23.0625,-10.75782 -4.82813,-4.92181 -7.24219,-11.55462 -7.24218,-19.89843 -10e-6,-10.45304 3.37498,-18.4921 10.125,-24.11719 6.74997,-5.6249 16.45309,-8.43739 29.10937,-8.4375 5.76557,1.1e-4 11.69525,0.44542 17.78906,1.33594 6.09368,0.84385 12.39836,2.13291 18.91407,3.86718"/>
        <path inkscape:connector-curvature="0" id="path3892" d="m 539.71875,518.70375 c -4.96884,2.57813 -10.14852,4.52344 -15.53906,5.83594 -5.3907,1.3125 -11.0157,1.96875 -16.875,1.96875 -17.48442,0 -31.33597,-4.875 -41.55469,-14.625 -10.21876,-9.79685 -15.32813,-23.06246 -15.32813,-39.79687 0,-16.78118 5.10937,-30.0468 15.32813,-39.79688 10.21872,-9.79677 24.07027,-14.6952 41.55469,-14.69531 5.8593,1.1e-4 11.4843,0.65636 16.875,1.96875 5.39054,1.3126 10.57022,3.25791 15.53906,5.83594 l 0,21.72656 c -5.01572,-3.4218 -9.96102,-5.92961 -14.83594,-7.52344 -4.87507,-1.59366 -10.00788,-2.39054 -15.39844,-2.39062 -9.6563,8e-5 -17.25004,3.09383 -22.78125,9.28125 -5.53128,6.18757 -8.29691,14.71881 -8.29687,25.59375 -4e-5,10.82816 2.76559,19.33597 8.29687,25.52343 5.53121,6.18752 13.12495,9.28127 22.78125,9.28125 5.39056,2e-5 10.52337,-0.79685 15.39844,-2.39062 4.87492,-1.59373 9.82022,-4.10154 14.83594,-7.52344 l 0,21.72656"/>
        <path inkscape:connector-curvature="0" id="path3894" d="m 610.17187,437.21157 c -8.25005,8e-5 -14.64848,3.04696 -19.19531,9.14062 -4.54691,6.09382 -6.82035,14.67194 -6.82031,25.73438 -4e-5,11.01566 2.2734,19.57034 6.82031,25.66406 4.54683,6.09377 10.94526,9.14064 19.19531,9.14062 8.29681,2e-5 14.71868,-3.04685 19.26563,-9.14062 4.54679,-6.09372 6.82023,-14.6484 6.82031,-25.66406 -8e-5,-11.06244 -2.27352,-19.64056 -6.82031,-25.73438 -4.54695,-6.09366 -10.96882,-9.14054 -19.26563,-9.14062 m 0,-19.61719 c 16.87493,1.1e-4 30.09366,4.82823 39.65625,14.48437 9.56239,9.65634 14.34364,22.99226 14.34375,40.00782 -1.1e-4,16.96878 -4.78136,30.28127 -14.34375,39.9375 -9.56259,9.65625 -22.78132,14.48437 -39.65625,14.48437 -16.82816,0 -30.0469,-4.82812 -39.65625,-14.48437 -9.56251,-9.65623 -14.34375,-22.96872 -14.34375,-39.9375 0,-17.01556 4.78124,-30.35148 14.34375,-40.00782 9.60935,-9.65614 22.82809,-14.48426 39.65625,-14.48437"/>
      </g>
      <path inkscape:connector-curvature="0" id="path3809" d="m 152.14286,380.21933 0,22.85714" style="fill:none;stroke:#729fcf;stroke-width:18.60000038;stroke-linecap:round;stroke-linejoin:miter;stroke-miterlimit:4;stroke-opacity:1;stroke-dasharray:none"/>
      <path inkscape:connector-curvature="0" id="path3811" d="m 205,353.07647 0,50" style="fill:none;stroke:#729fcf;stroke-width:18.60000038;stroke-linecap:round;stroke-linejoin:miter;stroke-miterlimit:4;stroke-opacity:1;stroke-dasharray:none"/>
      <path inkscape:connector-curvature="0" id="path3813" d="m 257.85715,319.50504 0,102.85714" style="fill:none;stroke:#729fcf;stroke-width:18.60000038;stroke-linecap:round;stroke-linejoin:miter;stroke-miterlimit:4;stroke-opacity:1;stroke-dasharray:none"/>
      <path inkscape:connector-curvature="0" id="path3815" d="m 311.42857,353.07647 0,50" style="fill:none;stroke:#729fcf;stroke-width:18.60000038;stroke-linecap:round;stroke-linejoin:miter;stroke-miterlimit:4;stroke-opacity:1;stroke-dasharray:none"/>
      <path inkscape:connector-curvature="0" id="path3817" d="m 365.71428,377.36218 0,25.71429" style="fill:none;stroke:#729fcf;stroke-width:18.60000038;stroke-linecap:round;stroke-linejoin:miter;stroke-miterlimit:4;stroke-opacity:1;stroke-dasharray:none"/>
      <path inkscape:connector-curvature="0" id="path3819" d="m 419.28572,348.79075 0,54.28572" style="fill:none;stroke:#729fcf;stroke-width:18.60000038;stroke-linecap:round;stroke-linejoin:miter;stroke-miterlimit:4;stroke-opacity:1;stroke-dasharray:none"/>
      <path inkscape:connector-curvature="0" id="path3821" d="m 472.14286,320.21933 0,102.85714" style="fill:none;stroke:#729fcf;stroke-width:18.60000038;stroke-linecap:round;stroke-linejoin:miter;stroke-miterlimit:4;stroke-opacity:1;stroke-dasharray:none"/>
      <path inkscape:connector-curvature="0" id="path3823" d="m 527.14286,351.64789 0,51.42858" style="fill:none;stroke:#729fcf;stroke-width:18.60000038;stroke-linecap:round;stroke-linejoin:miter;stroke-miterlimit:4;stroke-opacity:1;stroke-dasharray:none"/>
      <path inkscape:connector-curvature="0" id="path3825" d="m 578.57143,375.93361 0,27.14286" style="fill:none;stroke:#729fcf;stroke-width:18.60000038;stroke-linecap:round;stroke-linejoin:miter;stroke-miterlimit:4;stroke-opacity:1;stroke-dasharray:none"/>
      <g id="flowRoot3846" style="font-size:40px;font-style:normal;font-weight:bold;line-height:125%;letter-spacing:0px;word-spacing:0px;fill:#eeeeec;fill-opacity:1;stroke:#204a87;stroke-width:1.16550374;stroke-linejoin:round;stroke-miterlimit:4;stroke-opacity:1;stroke-dasharray:none;font-family:Sans;-inkscape-font-specification:Sans Bold" transform="matrix(2.4296932,0,0,2.8056707,-14.27259,-1218.7185)">
        <path inkscape:connector-curvature="0" id="path3855" style="stroke:#204a87;stroke-width:1.16550374;stroke-linejoin:round;stroke-miterlimit:4;stroke-opacity:1;stroke-dasharray:none" d="m 38.570312,677.17856 7.558594,0 7.734375,21.52344 7.714844,-21.52344 7.558594,0 -10.800782,29.16016 -8.964843,0 -10.800782,-29.16016"/>
        <path inkscape:connector-curvature="0" id="path3857" style="stroke:#204a87;stroke-width:1.16550374;stroke-linejoin:round;stroke-miterlimit:4;stroke-opacity:1;stroke-dasharray:none" d="m 72.984375,677.17856 12.480469,0 c 3.710917,3e-5 6.555967,0.82685 8.535156,2.48047 1.992161,1.64065 2.988254,3.9844 2.988281,7.03125 -2.7e-5,3.05991 -0.99612,5.41668 -2.988281,7.07031 -1.979189,1.64064 -4.824239,2.46095 -8.535156,2.46094 l -4.960938,0 0,10.11719 -7.519531,0 0,-29.16016 m 7.519531,5.44922 0,8.14453 4.160156,0 c 1.458317,2e-5 2.584618,-0.35155 3.378907,-1.05469 0.794251,-0.71613 1.191386,-1.72524 1.191406,-3.02734 -2e-5,-1.30206 -0.397155,-2.30467 -1.191406,-3.00781 -0.794289,-0.70311 -1.92059,-1.05467 -3.378907,-1.05469 l -4.160156,0"/>
        <path inkscape:connector-curvature="0" id="path3859" style="stroke:#204a87;stroke-width:1.16550374;stroke-linejoin:round;stroke-miterlimit:4;stroke-opacity:1;stroke-dasharray:none" d="m 102.28125,677.17856 8.39844,0 10.60547,20 0,-20 7.1289,0 0,29.16016 -8.39843,0 -10.60547,-20 0,20 -7.12891,0 0,-29.16016"/>
        <path inkscape:connector-curvature="0" id="path3861" style="stroke:#204a87;stroke-width:1.16550374;stroke-linejoin:round;stroke-miterlimit:4;stroke-opacity:1;stroke-dasharray:none" d="m 172.82812,704.73715 c -1.38023,0.71615 -2.81903,1.25651 -4.3164,1.6211 -1.49742,0.36458 -3.05992,0.54687 -4.6875,0.54687 -4.85679,0 -8.70444,-1.35416 -11.54297,-4.0625 -2.83855,-2.72135 -4.25781,-6.40624 -4.25781,-11.05468 0,-4.66144 1.41926,-8.34634 4.25781,-11.05469 2.83853,-2.72133 6.68618,-4.082 11.54297,-4.08203 1.62758,3e-5 3.19008,0.18232 4.6875,0.54687 1.49737,0.36461 2.93617,0.90498 4.3164,1.6211 l 0,6.03515 c -1.39325,-0.9505 -2.76695,-1.64711 -4.12109,-2.08984 -1.35419,-0.44269 -2.77997,-0.66404 -4.27734,-0.66406 -2.68231,2e-5 -4.79168,0.85939 -6.32813,2.57812 -1.53647,1.71877 -2.30469,4.08856 -2.30469,7.10938 0,3.00782 0.76822,5.3711 2.30469,7.08984 1.53645,1.71875 3.64582,2.57813 6.32813,2.57812 1.49737,10e-6 2.92315,-0.22135 4.27734,-0.66406 1.35414,-0.4427 2.72784,-1.13931 4.12109,-2.08984 l 0,6.03515"/>
        <path inkscape:connector-curvature="0" id="path3863" style="stroke:#204a87;stroke-width:1.16550374;stroke-linejoin:round;stroke-miterlimit:4;stroke-opacity:1;stroke-dasharray:none" d="m 178.76562,675.94809 6.99219,0 0,30.39063 -6.99219,0 0,-30.39063"/>
        <path inkscape:connector-curvature="0" id="path3865" style="stroke:#204a87;stroke-width:1.16550374;stroke-linejoin:round;stroke-miterlimit:4;stroke-opacity:1;stroke-dasharray:none" d="m 192.51562,684.46372 6.99219,0 0,21.875 -6.99219,0 0,-21.875 m 0,-8.51563 6.99219,0 0,5.70313 -6.99219,0 0,-5.70313"/>
        <path inkscape:connector-curvature="0" id="path3867" style="stroke:#204a87;stroke-width:1.16550374;stroke-linejoin:round;stroke-miterlimit:4;stroke-opacity:1;stroke-dasharray:none" d="m 228.10156,695.34262 0,1.99219 -16.34765,0 c 0.16926,1.64063 0.76171,2.8711 1.77734,3.69141 1.01561,0.82031 2.43488,1.23047 4.25781,1.23047 1.47134,0 2.97525,-0.21484 4.51172,-0.64454 1.54946,-0.4427 3.138,-1.10676 4.76563,-1.99218 l 0,5.39062 c -1.65367,0.625 -3.30732,1.09375 -4.96094,1.40625 -1.65366,0.32552 -3.30731,0.48828 -4.96094,0.48828 -3.95834,0 -7.03777,-1.0026 -9.23828,-3.00781 -2.1875,-2.01822 -3.28125,-4.84374 -3.28125,-8.47656 0,-3.5677 1.07422,-6.37368 3.22266,-8.41797 2.16145,-2.04425 5.13019,-3.06638 8.90625,-3.06641 3.43748,3e-5 6.18487,1.03518 8.24218,3.10547 2.07029,2.07033 3.10545,4.83726 3.10547,8.30078 m -7.1875,-2.32422 c -2e-5,-1.32811 -0.39064,-2.39581 -1.17187,-3.20312 -0.76825,-0.8203 -1.77736,-1.23045 -3.02735,-1.23047 -1.35418,2e-5 -2.45443,0.38413 -3.30078,1.15234 -0.84636,0.75523 -1.3737,1.84898 -1.58203,3.28125 l 9.08203,0"/>
        <path inkscape:connector-curvature="0" id="path3869" style="stroke:#204a87;stroke-width:1.16550374;stroke-linejoin:round;stroke-miterlimit:4;stroke-opacity:1;stroke-dasharray:none" d="m 255.36719,693.0184 0,13.32032 -7.03125,0 0,-2.16797 0,-8.02735 c -2e-5,-1.888 -0.0456,-3.19009 -0.13672,-3.90625 -0.0781,-0.71613 -0.22137,-1.24347 -0.42969,-1.58203 -0.27345,-0.45571 -0.64455,-0.80727 -1.11328,-1.05468 -0.46877,-0.2604 -1.00262,-0.39061 -1.60156,-0.39063 -1.45835,2e-5 -2.60418,0.56642 -3.4375,1.69922 -0.83335,1.1198 -1.25001,2.67579 -1.25,4.66797 l 0,10.76172 -6.99219,0 0,-21.875 6.99219,0 0,3.20312 c 1.05467,-1.27602 2.17446,-2.21352 3.35937,-2.8125 1.18488,-0.61196 2.49348,-0.91794 3.92578,-0.91797 2.52603,3e-5 4.44009,0.77476 5.74219,2.32422 1.31508,1.5495 1.97263,3.8021 1.97266,6.75781"/>
        <path inkscape:connector-curvature="0" id="path3871" style="stroke:#204a87;stroke-width:1.16550374;stroke-linejoin:round;stroke-miterlimit:4;stroke-opacity:1;stroke-dasharray:none" d="m 269.52734,678.25278 0,6.21094 7.20703,0 0,5 -7.20703,0 0,9.27734 c -10e-6,1.01563 0.20182,1.70574 0.60547,2.07031 0.40364,0.35157 1.20442,0.52735 2.40235,0.52735 l 3.59375,0 0,5 -5.9961,0 c -2.76042,0 -4.72006,-0.57292 -5.8789,-1.71875 -1.14584,-1.15885 -1.71876,-3.11849 -1.71875,-5.87891 l 0,-9.27734 -3.47657,0 0,-5 3.47657,0 0,-6.21094 6.99218,0"/>
      </g>
    </g>
  </g>
</svg>
