<?xml version="1.0" encoding="UTF-8" standalone="no"?>
<!-- Created with Inkscape (http://www.inkscape.org/) -->

<svg
   xmlns:dc="http://purl.org/dc/elements/1.1/"
   xmlns:cc="http://creativecommons.org/ns#"
   xmlns:rdf="http://www.w3.org/1999/02/22-rdf-syntax-ns#"
   xmlns:svg="http://www.w3.org/2000/svg"
   xmlns="http://www.w3.org/2000/svg"
   xmlns:xlink="http://www.w3.org/1999/xlink"
   xmlns:sodipodi="http://sodipodi.sourceforge.net/DTD/sodipodi-0.dtd"
   xmlns:inkscape="http://www.inkscape.org/namespaces/inkscape"
   width="210mm"
   height="297mm"
   viewBox="0 0 744.09448819 1052.3622047"
   id="svg2"
   version="1.1"
   inkscape:version="0.91 r13725"
   sodipodi:docname="logo-fragezeichen.svg">
  <defs
     id="defs4">
    <linearGradient
       inkscape:collect="always"
       id="linearGradient4175">
      <stop
         style="stop-color:#99b000;stop-opacity:1;"
         offset="0"
         id="stop4177" />
      <stop
         style="stop-color:#a9bc24;stop-opacity:1"
         offset="1"
         id="stop4179" />
    </linearGradient>
    <linearGradient
       inkscape:collect="always"
       id="linearGradient4204">
      <stop
         style="stop-color:#99b000;stop-opacity:1;"
         offset="0"
         id="stop4206" />
      <stop
         style="stop-color:#a9bc24;stop-opacity:1"
         offset="1"
         id="stop4208" />
    </linearGradient>
    <linearGradient
       inkscape:collect="always"
       id="linearGradient4196">
      <stop
         style="stop-color:#4e505d;stop-opacity:1;"
         offset="0"
         id="stop4198" />
      <stop
         style="stop-color:#7a859c;stop-opacity:1"
         offset="1"
         id="stop4200" />
    </linearGradient>
    <linearGradient
       inkscape:collect="always"
       xlink:href="#linearGradient4204"
       id="linearGradient4210"
       x1="186.87672"
       y1="538.41437"
       x2="242.14285"
       y2="369.50507"
       gradientUnits="userSpaceOnUse"
       gradientTransform="translate(301.70211,-161.36039)" />
    <linearGradient
       inkscape:collect="always"
       xlink:href="#linearGradient4196"
       id="linearGradient4163"
       gradientUnits="userSpaceOnUse"
       gradientTransform="matrix(0.70136684,0,0,0.87321324,11.410147,-253.22031)"
       x1="133.34013"
       y1="553.34686"
       x2="448.50772"
       y2="369.49908" />
    <linearGradient
       inkscape:collect="always"
       xlink:href="#linearGradient4196"
       id="linearGradient4167"
       gradientUnits="userSpaceOnUse"
       gradientTransform="translate(-33.210285,172.44027)"
       x1="133.34013"
       y1="553.34686"
       x2="448.50772"
       y2="369.49908" />
    <linearGradient
       inkscape:collect="always"
       xlink:href="#linearGradient4196"
       id="linearGradient4171"
       gradientUnits="userSpaceOnUse"
       gradientTransform="translate(-31.865013,507.00653)"
       x1="133.34013"
       y1="553.34686"
       x2="448.50772"
       y2="369.49908" />
    <linearGradient
       inkscape:collect="always"
       xlink:href="#linearGradient4175"
       id="linearGradient4181"
       x1="223.37962"
       y1="670.88074"
       x2="441.94174"
       y2="607.80157"
       gradientUnits="userSpaceOnUse" />
  </defs>
  <sodipodi:namedview
     id="base"
     pagecolor="#ffffff"
     bordercolor="#666666"
     borderopacity="1.0"
     inkscape:pageopacity="0.0"
     inkscape:pageshadow="2"
     inkscape:zoom="0.5"
     inkscape:cx="-85.042135"
     inkscape:cy="439.68586"
     inkscape:document-units="px"
     inkscape:current-layer="layer1"
     showgrid="false"
     inkscape:window-width="1366"
     inkscape:window-height="721"
     inkscape:window-x="-4"
     inkscape:window-y="-4"
     inkscape:window-maximized="1"
     showguides="true"
     inkscape:guide-bbox="true">
    <sodipodi:guide
       position="223.37963,381.48149"
       orientation="0,1"
       id="guide4173" />
  </sodipodi:namedview>
  <metadata
     id="metadata7">
    <rdf:RDF>
      <cc:Work
         rdf:about="">
        <dc:format>image/svg+xml</dc:format>
        <dc:type
           rdf:resource="http://purl.org/dc/dcmitype/StillImage" />
        <dc:title></dc:title>
      </cc:Work>
    </rdf:RDF>
  </metadata>
  <g
     inkscape:label="Ebene 1"
     inkscape:groupmode="layer"
     id="layer1">
    <path
       inkscape:connector-curvature="0"
       id="path4141"
       style="font-style:normal;font-variant:normal;font-weight:bold;font-stretch:normal;font-size:medium;line-height:125%;font-family:arial;-inkscape-font-specification:'arial Bold';text-align:center;letter-spacing:0px;word-spacing:0px;text-anchor:middle;fill:#4e505d;fill-opacity:1;stroke:none;stroke-width:1px;stroke-linecap:butt;stroke-linejoin:miter;stroke-opacity:1"
       d="m 150.95064,418.61651 c 8.50029,0.23478 16.11605,3.63218 22.33745,10.53941 6.22141,6.85825 9.33211,16.72922 9.33211,29.61291 0,13.32458 -3.18418,23.58745 -9.55255,30.7886 -6.31938,7.20115 -14.01041,10.80173 -23.07308,10.80173 l -24.39574,0.0579 -19.17858,-2e-5 0,-109.54479 20.6482,0 0,38.79804 0.22782,54.37795 c 0,0 12.40545,-0.002 18.33293,-0.002 4.55583,0 7.79449,-1.935 10.97867,-5.80501 3.23317,-3.91899 4.84976,-10.06692 4.84976,-18.44377 0,-8.91571 -1.61659,-15.33306 -4.84976,-19.25206 -2.53869,-2.89469 -8.1276,-4.26136 -10.31058,-4.40611 -2.18297,-0.14474 -6.63293,-0.0285 -11.67465,1.73377 l 0.09,-16.99618 c 4.07889,-1.12195 7.73771,-2.49526 16.238,-2.26047 z"
       sodipodi:nodetypes="zcsccccccccscsczccz" />
    <path
       inkscape:connector-curvature="0"
       id="path4143"
       style="font-style:normal;font-variant:normal;font-weight:bold;font-stretch:normal;font-size:medium;line-height:125%;font-family:arial;-inkscape-font-specification:'arial Bold';text-align:center;letter-spacing:0px;word-spacing:0px;text-anchor:middle;fill:#4e505d;fill-opacity:1;stroke:none;stroke-width:1px;stroke-linecap:butt;stroke-linejoin:miter;stroke-opacity:1"
       d="m 199.30042,498.59561 0,-78.03698 20.6482,0 0,78.03698 z"
       sodipodi:nodetypes="ccccc" />
    <path
       inkscape:connector-curvature="0"
       id="path4147"
       style="font-style:normal;font-variant:normal;font-weight:bold;font-stretch:normal;font-size:medium;line-height:125%;font-family:arial;-inkscape-font-specification:'arial Bold';text-align:center;letter-spacing:0px;word-spacing:0px;text-anchor:middle;fill:#4e505d;fill-opacity:1;stroke:none;stroke-width:1px;stroke-linecap:butt;stroke-linejoin:miter;stroke-opacity:1"
       d="m 320.02994,458.4749 q 0,-10.28736 5.0702,-19.91339 5.0702,-9.62603 14.32883,-14.69623 9.3321,-5.0702 20.79516,-5.0702 17.70896,0 29.02506,11.53654 11.31609,11.46306 11.31609,29.02506 0,17.70895 -11.46306,29.39246 -11.38958,11.61002 -28.73113,11.61002 -10.72824,0 -20.50124,-4.84976 -9.69951,-4.84975 -14.76971,-14.18186 -5.0702,-9.40559 -5.0702,-22.85264 z m 21.16257,1.10222 q 0,11.61002 5.51109,17.78244 5.51109,6.17242 13.59401,6.17242 8.08293,0 13.52053,-6.17242 5.51109,-6.17242 5.51109,-17.9294 0,-11.46306 -5.51109,-17.63548 -5.4376,-6.17241 -13.52053,-6.17241 -8.08292,0 -13.59401,6.17241 -5.51109,6.17242 -5.51109,17.78244 z" />
    <path
       inkscape:connector-curvature="0"
       id="path4149"
       style="font-style:normal;font-variant:normal;font-weight:bold;font-stretch:normal;font-size:medium;line-height:125%;font-family:arial;-inkscape-font-specification:'arial Bold';text-align:center;letter-spacing:0px;word-spacing:0px;text-anchor:middle;fill:#4e505d;fill-opacity:1;stroke:none;stroke-width:1px;stroke-linecap:butt;stroke-linejoin:miter;stroke-opacity:1"
       d="m 487.78741,498.59561 -20.64821,0 0,-39.82678 c 0,-8.42584 -0.44089,-13.86345 -1.32266,-16.31282 -0.88177,-2.49836 -2.3269,-4.43336 -4.33539,-5.80501 -1.95949,-1.37165 -4.33538,-2.05747 -7.12767,-2.05747 -3.57608,0 -15.94676,-0.17799 -16.62576,0.55677 -0.67901,0.73476 -0.4221,21.16486 -0.42186,28.10088 l 0,35.34443 -20.64821,0 0,-80.03698 19.17858,0 25.71841,0.23645 c 4.55583,0 8.71976,0.83279 12.49179,2.49836 3.77203,1.61659 6.6133,3.69855 8.52381,6.2459 1.9595,2.54735 3.30666,5.43761 4.04147,8.67078 0.7838,3.23317 1.1757,7.86248 1.1757,13.88793 z"
       sodipodi:nodetypes="ccsccszcccccccccsc" />
    <path
       style="font-style:normal;font-variant:normal;font-weight:bold;font-stretch:normal;font-size:medium;line-height:125%;font-family:arial;-inkscape-font-specification:'arial Bold';text-align:center;letter-spacing:0px;word-spacing:0px;text-anchor:middle;fill:url(#linearGradient4210);fill-opacity:1;stroke:none;stroke-width:1px;stroke-linecap:butt;stroke-linejoin:miter;stroke-opacity:1"
       d="m 530.18844,200.41695 -15.70117,49.13868 24.66796,0 15.70118,-49.13868 z m -46.52344,145.60743 -18.48008,52.41565 24.66796,0 18.48009,-52.41565 z"
       id="path4156"
       inkscape:connector-curvature="0"
       sodipodi:nodetypes="cccccccccc" />
    <path
       style="color:#000000;clip-rule:nonzero;display:inline;overflow:visible;visibility:visible;opacity:1;isolation:auto;mix-blend-mode:normal;color-interpolation:sRGB;color-interpolation-filters:linearRGB;solid-color:#000000;solid-opacity:1;fill:#99b000;fill-opacity:1;fill-rule:evenodd;stroke:none;stroke-width:35;stroke-linecap:butt;stroke-linejoin:round;stroke-miterlimit:4;stroke-dasharray:none;stroke-dashoffset:0;stroke-opacity:1;color-rendering:auto;image-rendering:auto;shape-rendering:auto;text-rendering:auto;enable-background:accumulate"
       d="m 465.26972,146.43087 -37.1159,-13.1944 c -91.8057,156.26103 -139.62751,170.436 -249.75073,174.72062 l -0.75907,0.51408 c 71.12648,8.92732 168.65605,25.88093 287.62575,-162.04021 z"
       id="rect4154"
       inkscape:connector-curvature="0"
       sodipodi:nodetypes="cccccc" />
    <path
       style="font-style:normal;font-variant:normal;font-weight:bold;font-stretch:normal;font-size:medium;line-height:125%;font-family:arial;-inkscape-font-specification:'arial Bold';text-align:center;letter-spacing:0px;word-spacing:0px;text-anchor:middle;fill:url(#linearGradient4181);fill-opacity:1;stroke:none;stroke-width:1px;stroke-linecap:butt;stroke-linejoin:miter;stroke-opacity:1"
       d="m 385.11644,591.11119 0,80.03711 20.64844,0 0,-35.34375 c -2.4e-4,-6.93602 -0.25713,-27.3668 0.42188,-28.10156 0.679,-0.73476 13.04892,-0.55664 16.625,-0.55664 2.79229,0 5.16746,0.68499 7.12695,2.05664 2.00849,1.37165 3.45417,3.30633 4.33594,5.80469 0.88177,2.44937 1.32226,7.88861 1.32226,16.31445 l 0,39.82617 20.64844,0 0,-48.49804 c 0,-6.02545 -0.39198,-10.65355 -1.17578,-13.88672 -0.73481,-3.23317 -2.08152,-6.12453 -4.04102,-8.67188 -1.91051,-2.54735 -4.75141,-4.6295 -8.52343,-6.24609 -3.77204,-1.66557 -7.93636,-2.49805 -12.49219,-2.49805 l -25.71875,-0.23633 z m -142.33398,0.23633 c -11.61002,0 -20.81965,3.60158 -27.62891,10.80274 -6.80925,7.15216 -10.21289,17.16904 -10.21289,30.05273 0,12.73673 3.38036,22.7051 10.14063,29.90625 6.80925,7.20115 15.91991,10.80274 27.33398,10.80274 10.04243,-10e-6 18.05283,-2.37518 24.0293,-7.12696 5.97646,-4.75178 10.01658,-11.78223 12.12305,-21.08984 l -21.03823,-0.0156 c -0.71624,3.0269 -2.03373,5.84424 -4.53209,8.09766 -2.49836,2.20444 -5.70796,3.30664 -9.62695,3.30664 -5.24165,0 -9.42925,-1.90945 -12.56445,-5.73047 -3.08621,-3.82102 -4.62891,-10.36051 -4.62891,-19.61914 0,-8.32787 1.51747,-14.25611 4.55469,-17.7832 3.0862,-3.57608 7.20202,-5.36328 12.3457,-5.36328 3.87001,0 7.00391,1.02846 9.4043,3.08593 2.44937,2.05747 3.24754,3.08342 4.51372,5.58688 l 20.54487,-0.0771 c -2.44937,-8.37685 -6.49144,-14.59811 -12.125,-18.66406 -5.58457,-4.11495 -13.12925,-6.17188 -22.63281,-6.17189 z m 85.90039,0 c -7.64204,0 -14.57352,1.69018 -20.79492,5.07031 -6.17242,3.38014 -10.94995,8.27796 -14.33008,14.69532 -3.38013,6.41735 -5.07031,13.05582 -5.07031,19.91406 0,8.9647 1.69018,16.58312 5.07031,22.85351 3.38013,6.22141 8.30319,10.94848 14.76953,14.18165 6.51533,3.23317 13.34979,4.84961 20.50195,4.84961 11.56104,0 21.13742,-3.86937 28.73047,-11.60938 7.64204,-7.78901 11.46289,-17.58661 11.46289,-29.39258 0,-11.708 -3.77039,-21.38335 -11.31445,-29.02539 -7.54407,-7.69103 -17.21942,-11.53711 -29.02539,-11.53711 z m 0.0723,16.82813 c 5.38862,0 9.89641,2.05693 13.52148,6.17187 3.67406,4.11495 5.51172,9.99273 5.51172,17.63477 0,7.83798 -1.83766,13.81474 -5.51172,17.92969 -3.62507,4.11494 -8.13287,6.17187 -13.52148,6.17187 -5.38862,0 -9.91969,-2.05693 -13.59376,-6.17187 -3.67405,-4.11495 -5.50976,-10.04319 -5.50976,-17.78321 0,-7.74001 1.83571,-13.6663 5.50976,-17.78125 3.67406,-4.11494 8.20514,-6.17187 13.59376,-6.17187 z"
       id="path4185"
       inkscape:connector-curvature="0"
       sodipodi:nodetypes="ccccssccsccsccccccscscsscccscscsccccsscssccscscscsscssssss" />
    <path
       sodipodi:nodetypes="cccccscsccscscsccccccccssccsccsccccccscscsscccscscsccccsscssccscscscscccssscssssss"
       inkscape:connector-curvature="0"
       id="path4161"
       d="m 86.049548,88.095214 0,95.656056 13.452,0 17.109502,-0.051 c 6.35626,0 11.75129,-3.145 16.1835,-9.4331 4.46656,-6.28814 6.69996,-15.24851 6.69996,-26.88371 0,-11.25021 -2.18168,-19.86999 -6.54517,-25.85871 -4.36349,-6.03148 -9.70524,-8.99783 -15.66706,-9.20284 -5.96182,-0.20503 -8.52819,0.99355 -11.38898,1.97325 l -0.063,14.84122 c 3.53609,-1.53884 6.65656,-1.64088 8.18763,-1.51449 1.53107,0.1264 5.45091,1.31992 7.23147,3.8476 2.26763,3.42212 3.40135,9.02575 3.40135,16.81107 0,7.31476 -1.13372,12.68457 -3.40135,16.10668 -2.23328,3.37935 -4.50466,5.06874 -7.69996,5.06874 -4.15734,0 -12.85747,0.002 -12.85747,0.002 l -0.16027,-47.48438 0,-33.877936 z m 217.590832,24.175376 0,69.88948 14.48213,0 0,-30.86264 c -1.7e-4,-6.05663 -0.18034,-23.89706 0.2959,-24.53866 0.47622,-0.6416 9.15208,-0.48606 11.66022,-0.48606 1.95842,0 3.62428,0.59814 4.99861,1.79588 1.40868,1.19775 2.42264,2.88713 3.04108,5.06873 0.61844,2.13883 0.92739,6.88844 0.92739,14.246 l 0,34.77675 14.48213,0 0,-42.34914 c 0,-5.26151 -0.27492,-9.30282 -0.82465,-12.12607 -0.51537,-2.82325 -1.45991,-5.34802 -2.83424,-7.5724 -1.33997,-2.22438 -3.33248,-4.04254 -5.97805,-5.45417 -2.64558,-1.4544 -5.5663,-2.18133 -8.76161,-2.18133 l -18.03828,-0.20637 z m -99.82833,0.20637 c -8.14288,0 -14.60221,3.14495 -19.378,9.4331 -4.77579,6.24536 -7.16299,14.99223 -7.16299,26.24244 0,11.12188 2.37088,19.82639 7.11231,26.11457 4.77578,6.2881 11.16569,9.433 19.17114,9.433 7.04343,0 12.66166,-2.0739 16.85336,-6.2233 4.19169,-4.14932 7.02529,-10.2884 8.5027,-18.41593 l -14.75551,-0.0136 c -0.50235,2.64313 -1.42639,5.10327 -3.17866,7.07098 -1.75227,1.92495 -4.00338,2.88741 -6.75203,2.88741 -3.67631,0 -6.61336,-1.66736 -8.81228,-5.00393 -2.16457,-3.33656 -3.24657,-9.04693 -3.24657,-17.13169 0,-7.27201 1.06431,-12.44862 3.19451,-15.52852 2.16456,-3.12268 5.05126,-4.68329 8.65887,-4.68329 2.71429,0 4.91231,0.89806 6.59586,2.69467 1.71791,1.79661 2.27772,2.69249 3.16577,4.87854 l 14.40949,-0.0673 c -1.7179,-7.31478 -4.55288,-12.74727 -8.50407,-16.29771 -3.91683,-3.59323 -9.20842,-5.38937 -15.8739,-5.38937 z m 60.24768,0 c -5.35987,0 -10.22138,1.47589 -14.58486,4.42746 -4.32913,2.95158 -7.67994,7.22843 -10.05065,12.83215 -2.37071,5.60371 -3.55614,11.40051 -3.55614,17.38922 0,7.8281 1.18543,14.4806 3.55614,19.95599 2.37071,5.43262 5.82359,9.56039 10.35886,12.38359 4.56964,2.8233 9.3631,4.2347 14.37939,4.2347 8.10853,0 14.82509,-3.3787 20.1506,-10.13741 5.35987,-6.80147 8.03969,-15.35686 8.03969,-25.66599 0,-10.22358 -2.64443,-18.67222 -7.93558,-25.34535 -5.29116,-6.71591 -12.07713,-10.07436 -20.35745,-10.07436 z m -112.86663,1.54006 0,68.14305 14.48213,0 0,-68.14305 z m 112.91732,13.15449 c 3.7794,0 6.94102,1.79613 9.48352,5.38935 2.57686,3.59323 3.86574,8.72579 3.86574,15.39892 0,6.84423 -1.28888,12.06321 -3.86574,15.65644 -2.5425,3.59322 -5.70413,5.38936 -9.48352,5.38936 -3.7794,0 -6.95734,-1.79614 -9.53421,-5.38936 -2.57686,-3.59323 -3.86436,-8.76985 -3.86436,-15.52853 0,-6.75868 1.2875,-11.9336 3.86436,-15.52683 2.57686,-3.59322 5.75481,-5.38935 9.53421,-5.38935 z"
       style="font-style:normal;font-variant:normal;font-weight:bold;font-stretch:normal;font-size:medium;line-height:125%;font-family:arial;-inkscape-font-specification:'arial Bold';text-align:center;letter-spacing:0px;word-spacing:0px;text-anchor:middle;fill:url(#linearGradient4163);fill-opacity:1;stroke:none;stroke-width:1px;stroke-linecap:butt;stroke-linejoin:miter;stroke-opacity:1" />
    <path
       sodipodi:nodetypes="cccccscsccscscsccccscccs"
       inkscape:connector-curvature="0"
       id="path4165"
       d="m 73.20964,563.31332 0,109.54492 19.17969,0 24.39453,-0.0586 c 9.06267,0 16.75484,-3.60159 23.07422,-10.80274 6.36837,-7.20115 9.55273,-17.46253 9.55273,-30.78711 0,-12.88369 -3.11062,-22.75503 -9.33203,-29.61328 -6.2214,-6.90723 -13.8376,-10.30428 -22.33789,-10.53906 -8.50029,-0.23479 -12.15939,1.13781 -16.23828,2.25976 l -0.0898,16.9961 c 5.04172,-1.76227 9.49085,-1.87912 11.67383,-1.73438 2.18298,0.14475 7.77185,1.51156 10.31054,4.40625 3.23317,3.919 4.84961,10.33625 4.84961,19.25196 0,8.37684 -1.61644,14.52632 -4.84961,18.44531 -3.18418,3.87001 -6.42268,5.80469 -10.97851,5.80469 -5.92748,0 -18.33203,0.002 -18.33203,0.002 l -0.22852,-54.37891 0,-38.79687 z m 92.88086,29.68554 0,78.03711 20.64844,0 0,-78.03711 z"
       style="font-style:normal;font-variant:normal;font-weight:bold;font-stretch:normal;font-size:medium;line-height:125%;font-family:arial;-inkscape-font-specification:'arial Bold';text-align:center;letter-spacing:0px;word-spacing:0px;text-anchor:middle;fill:url(#linearGradient4167);fill-opacity:1;stroke:none;stroke-width:1px;stroke-linecap:butt;stroke-linejoin:miter;stroke-opacity:1" />
    <path
       sodipodi:nodetypes="cccccscsccscscsccccccccssccsccsccccccscscsscccscscsccccsscssccscscscscccssscssssss"
       inkscape:connector-curvature="0"
       id="path4169"
       d="m 74.554912,897.87958 0,109.54492 19.17969,0 24.394528,-0.059 c 9.06267,0 16.75484,-3.6016 23.07422,-10.80274 6.36837,-7.20115 9.55273,-17.46253 9.55273,-30.78711 0,-12.88369 -3.11062,-22.75503 -9.33203,-29.61328 -6.2214,-6.90723 -13.8376,-10.30428 -22.33789,-10.53906 -8.50029,-0.23479 -12.15939,1.13781 -16.23828,2.25976 l -0.0898,16.9961 c 5.04172,-1.76227 9.49085,-1.87912 11.67383,-1.73438 2.18298,0.14475 7.77185,1.51156 10.31054,4.40625 3.23317,3.919 4.84961,10.33625 4.84961,19.25196 0,8.37684 -1.61644,14.52632 -4.84961,18.44531 -3.18418,3.87001 -6.42268,5.80469 -10.97851,5.80469 -5.92748,0 -18.332028,0.002 -18.332028,0.002 l -0.22852,-54.37891 0,-38.79687 z m 310.238278,27.68554 0,80.03708 20.64844,0 0,-35.34372 c -2.4e-4,-6.93602 -0.25713,-27.3668 0.42188,-28.10156 0.679,-0.73476 13.04892,-0.55664 16.625,-0.55664 2.79229,0 5.16746,0.68499 7.12695,2.05664 2.00849,1.37165 3.45417,3.30633 4.33594,5.80469 0.88177,2.44937 1.32226,7.88861 1.32226,16.31445 l 0,39.82614 20.64844,0 0,-48.49801 c 0,-6.02545 -0.39198,-10.65355 -1.17578,-13.88672 -0.73481,-3.23317 -2.08152,-6.12453 -4.04102,-8.67188 -1.91051,-2.54735 -4.75141,-4.6295 -8.52343,-6.24609 -3.77204,-1.66557 -7.93636,-2.49805 -12.49219,-2.49805 l -25.71875,-0.23633 z m -142.33398,0.23633 c -11.61002,0 -20.81965,3.60158 -27.62891,10.80274 -6.80925,7.15216 -10.21289,17.16904 -10.21289,30.05273 0,12.73673 3.38036,22.7051 10.14063,29.90625 6.80925,7.20113 15.91991,10.80273 27.33398,10.80273 10.04243,0 18.05283,-2.3752 24.0293,-7.1269 5.97646,-4.75183 10.01658,-11.78228 12.12305,-21.08989 l -21.03823,-0.0156 c -0.71624,3.0269 -2.03373,5.84424 -4.53209,8.09766 -2.49836,2.20444 -5.70796,3.30664 -9.62695,3.30664 -5.24165,0 -9.42925,-1.90945 -12.56445,-5.73047 -3.08621,-3.82102 -4.62891,-10.36051 -4.62891,-19.61914 0,-8.32787 1.51747,-14.25611 4.55469,-17.7832 3.0862,-3.57608 7.20202,-5.36328 12.3457,-5.36328 3.87001,0 7.00391,1.02846 9.4043,3.08593 2.44937,2.05747 3.24754,3.08342 4.51372,5.58688 l 20.54487,-0.0771 c -2.44937,-8.37685 -6.49144,-14.59811 -12.125,-18.66406 -5.58457,-4.11495 -13.12925,-6.17188 -22.63281,-6.17189 z m 85.90039,0 c -7.64204,0 -14.57352,1.69018 -20.79492,5.07031 -6.17242,3.38014 -10.94995,8.27796 -14.33008,14.69532 -3.38013,6.41735 -5.07031,13.05582 -5.07031,19.91406 0,8.9647 1.69018,16.58312 5.07031,22.85351 3.38013,6.22141 8.30319,10.94848 14.76953,14.18165 6.51533,3.2332 13.34979,4.8496 20.50195,4.8496 11.56104,0 21.13742,-3.8694 28.73047,-11.60937 7.64204,-7.78901 11.46289,-17.58661 11.46289,-29.39258 0,-11.708 -3.77039,-21.38335 -11.31445,-29.02539 -7.54407,-7.69103 -17.21942,-11.53711 -29.02539,-11.53711 z m -160.92383,1.76367 0,78.03708 20.64844,0 0,-78.03708 z m 160.9961,15.06446 c 5.38862,0 9.89641,2.05693 13.52148,6.17187 3.67406,4.11495 5.51172,9.99273 5.51172,17.63477 0,7.83798 -1.83766,13.81474 -5.51172,17.92969 -3.62507,4.11494 -8.13287,6.17187 -13.52148,6.17187 -5.38862,0 -9.91969,-2.05693 -13.59376,-6.17187 -3.67405,-4.11495 -5.50976,-10.04319 -5.50976,-17.78321 0,-7.74001 1.83571,-13.6663 5.50976,-17.78125 3.67406,-4.11494 8.20514,-6.17187 13.59376,-6.17187 z"
       style="font-style:normal;font-variant:normal;font-weight:bold;font-stretch:normal;font-size:medium;line-height:125%;font-family:arial;-inkscape-font-specification:'arial Bold';text-align:center;letter-spacing:0px;word-spacing:0px;text-anchor:middle;fill:url(#linearGradient4171);fill-opacity:1;stroke:none;stroke-width:1px;stroke-linecap:butt;stroke-linejoin:miter;stroke-opacity:1" />
    <path
       inkscape:connector-curvature="0"
       id="path4186"
       d="m 168.25,670.88072 20.5,-78.14352 0.5,78.14352 z"
       style="fill:#99b000;fill-rule:evenodd;stroke:#ffffff;stroke-width:6.9;stroke-linecap:butt;stroke-linejoin:miter;stroke-opacity:1;stroke-miterlimit:4;stroke-dasharray:none" />
    <path
       style="fill:#99b000;fill-rule:evenodd;stroke:none;stroke-width:1px;stroke-linecap:butt;stroke-linejoin:miter;stroke-opacity:1"
       d="m 168.25,670.88072 20.5,-78.14352 0.5,78.14352 z"
       id="path4183"
       inkscape:connector-curvature="0" />
    <text
       xml:space="preserve"
       style="font-style:normal;font-weight:normal;font-size:26.08287239px;line-height:125%;font-family:sans-serif;text-align:center;letter-spacing:0px;word-spacing:0px;text-anchor:middle;fill:#4e505d;fill-opacity:1;stroke:none;stroke-width:1px;stroke-linecap:butt;stroke-linejoin:miter;stroke-opacity:1"
       x="363.13931"
       y="697.81427"
       id="text4188"
       sodipodi:linespacing="125%"><tspan
         sodipodi:role="line"
         id="tspan4190"
         x="363.13931"
         y="697.81427"
         style="font-style:normal;font-variant:normal;font-weight:normal;font-stretch:normal;font-family:arial;-inkscape-font-specification:arial;fill:#4e505d">a simple iconset</tspan></text>
  </g>
</svg>
