<?xml version="1.0" encoding="UTF-8" standalone="no"?>
<!-- Created with Inkscape (http://www.inkscape.org/) -->

<svg
   xmlns:dc="http://purl.org/dc/elements/1.1/"
   xmlns:cc="http://creativecommons.org/ns#"
   xmlns:rdf="http://www.w3.org/1999/02/22-rdf-syntax-ns#"
   xmlns:svg="http://www.w3.org/2000/svg"
   xmlns="http://www.w3.org/2000/svg"
   xmlns:xlink="http://www.w3.org/1999/xlink"
   xmlns:sodipodi="http://sodipodi.sourceforge.net/DTD/sodipodi-0.dtd"
   xmlns:inkscape="http://www.inkscape.org/namespaces/inkscape"
   width="210mm"
   height="297mm"
   viewBox="0 0 744.09448819 1052.3622047"
   id="svg2"
   version="1.1"
   inkscape:version="0.91 r13725"
   inkscape:export-xdpi="4"
   inkscape:export-ydpi="4"
   sodipodi:docname="document-pdf.svg">
  <defs
     id="defs4">
    <linearGradient
       id="linearGradient2224">
      <stop
         id="stop2226"
         offset="0"
         style="stop-color:#7c7c7c;stop-opacity:1;" />
      <stop
         id="stop2228"
         offset="1"
         style="stop-color:#b8b8b8;stop-opacity:1;" />
    </linearGradient>
    <linearGradient
       id="linearGradient15218">
      <stop
         id="stop15220"
         offset="0"
         style="stop-color:#eeeeef;stop-opacity:1;" />
      <stop
         id="stop2736"
         offset="0.59928656"
         style="stop-color:#d3d7cf;stop-opacity:1;" />
      <stop
         id="stop2738"
         offset="0.82758623"
         style="stop-color:#ffffff;stop-opacity:1;" />
      <stop
         id="stop15222"
         offset="1"
         style="stop-color:#d3d7cf;stop-opacity:1;" />
    </linearGradient>
    <pattern
       y="0"
       x="0"
       height="6"
       width="6"
       patternUnits="userSpaceOnUse"
       id="EMFhbasepattern" />
    <pattern
       y="0"
       x="0"
       height="6"
       width="6"
       patternUnits="userSpaceOnUse"
       id="EMFhbasepattern-5" />
    <linearGradient
       inkscape:collect="always"
       xlink:href="#linearGradient4195"
       id="linearGradient4201"
       x1="286.38269"
       y1="672.9209"
       x2="532.51678"
       y2="367.74933"
       gradientUnits="userSpaceOnUse"
       gradientTransform="matrix(1.1363532,0,0,1.1363532,-56.779393,-53.10644)" />
    <linearGradient
       inkscape:collect="always"
       id="linearGradient4195">
      <stop
         style="stop-color:#4e505d;stop-opacity:1"
         offset="0"
         id="stop4197" />
      <stop
         style="stop-color:#7a8597;stop-opacity:1"
         offset="1"
         id="stop4199" />
    </linearGradient>
  </defs>
  <sodipodi:namedview
     id="base"
     pagecolor="#ffffff"
     bordercolor="#666666"
     borderopacity="1.0"
     inkscape:pageopacity="0.0"
     inkscape:pageshadow="2"
     inkscape:zoom="0.5"
     inkscape:cx="261.21542"
     inkscape:cy="389.74294"
     inkscape:document-units="px"
     inkscape:current-layer="layer1"
     showgrid="false"
     showguides="true"
     inkscape:guide-bbox="true"
     inkscape:window-width="1366"
     inkscape:window-height="721"
     inkscape:window-x="-4"
     inkscape:window-y="-4"
     inkscape:window-maximized="1">
    <sodipodi:guide
       position="560,730.00002"
       orientation="0,1"
       id="guide3338" />
    <sodipodi:guide
       position="560,330.00001"
       orientation="0,1"
       id="guide3340" />
    <sodipodi:guide
       position="190,475.00001"
       orientation="1,0"
       id="guide3344" />
    <sodipodi:guide
       position="590,451.00001"
       orientation="1,0"
       id="guide3346" />
    <inkscape:grid
       type="xygrid"
       id="grid3440" />
  </sodipodi:namedview>
  <metadata
     id="metadata7">
    <rdf:RDF>
      <cc:Work
         rdf:about="">
        <dc:format>image/svg+xml</dc:format>
        <dc:type
           rdf:resource="http://purl.org/dc/dcmitype/StillImage" />
        <dc:title>document pdf</dc:title>
        <dc:date>June 2015</dc:date>
        <dc:creator>
          <cc:Agent>
            <dc:title>Johannes Hechler</dc:title>
          </cc:Agent>
        </dc:creator>
        <dc:rights>
          <cc:Agent>
            <dc:title>Johannes Hechler</dc:title>
          </cc:Agent>
        </dc:rights>
        <dc:publisher>
          <cc:Agent>
            <dc:title>RRZE</dc:title>
          </cc:Agent>
        </dc:publisher>
        <dc:contributor>
          <cc:Agent>
            <dc:title>Ute Weber, Hendrik Eggers</dc:title>
          </cc:Agent>
        </dc:contributor>
      </cc:Work>
    </rdf:RDF>
  </metadata>
  <g
     inkscape:label="Ebene 1"
     inkscape:groupmode="layer"
     id="layer1">
    <g
       id="g4214"
       style="stroke-width:1;stroke-miterlimit:4;stroke-dasharray:none"
       inkscape:export-xdpi="3.5999999"
       inkscape:export-ydpi="3.5999999">
      <path
         id="path4244"
         d="M 250.0625 322.37109 C 238.6734 322.35199 232.99106 327.9824 233.03906 339.20312 C 232.99106 432.5269 232.99108 591.61448 233.02148 705.27148 C 232.99118 716.61333 238.70706 722.36775 250 722.29102 L 329.24609 722.31055 C 327.61712 718.43442 326.14458 713.66923 325.89062 708.58008 C 325.27917 696.32647 330.25864 681.53762 341.68359 667.91211 C 357.02357 649.61752 377.32037 639.39437 388.5918 634.7207 C 393.32769 626.61366 402.77624 610.09327 409.08984 594.45117 C 413.44265 583.66697 416.22935 575.83705 417.07812 572.74023 C 416.72553 572.0596 416.48804 566.52201 414.82617 562.16406 C 407.33527 542.52048 409.80112 524.78524 410.30859 514.19727 C 410.75284 504.92859 412.49102 494.7497 419.66992 484.00391 C 425.95146 474.60134 440.6542 465.82099 455.24023 466.04492 C 457.32395 466.07691 459.40493 466.2929 461.45898 466.7168 C 481.71577 470.89711 485.61138 483.89456 489.53516 492.31445 C 493.45893 500.73435 495.51688 507.95247 496.63086 514.89062 C 499.60196 533.3953 495.70731 550.25008 491.09766 566.24219 C 490.47841 568.39055 489.14364 572.75121 487.70312 577.67188 C 487.96739 578.02685 488.03367 578.23064 488.33203 578.5918 C 491.34961 582.24445 495.70792 586.76072 500.05273 590.91211 C 503.80057 594.4931 507.23078 597.49988 510.20703 600.08203 C 515.45469 599.83761 519.02968 599.60438 528.89258 599.39453 C 533.18919 599.30311 538.94886 599.34619 545.56445 600.04297 L 545.56641 446.42969 C 518.73829 447.51542 416.6328 450.26962 413.98633 448.08008 C 411.33986 445.89054 414.31055 322.39453 414.31055 322.39453 C 414.31055 322.39453 275.12969 322.36849 250.0625 322.37109 z M 439.42188 322.38867 C 438.52058 356.42944 438.48192 389.95266 439.42188 422.88867 C 471.1875 425.21316 508.29449 424.13903 545.67773 422.88867 C 519.34064 380.30736 482.68106 348.04787 439.42188 322.38867 z M 486.25391 582.75195 C 486.12784 583.20361 485.92577 583.88482 485.82422 584.25977 C 485.70984 584.68195 485.68934 584.77674 485.61914 585.05078 C 485.77275 584.7928 486.30311 584.92206 486.25391 582.75195 z M 495.03516 667.48242 C 495.05226 667.49042 495.09989 667.51318 495.11719 667.52148 C 495.08099 667.50438 495.06936 667.49932 495.03516 667.48242 z M 497.12305 667.78906 C 497.93243 667.85009 497.57693 667.91919 496.83008 668.01953 C 497.77571 668.20385 498.99163 668.27897 500.73633 668.06055 L 497.12305 667.78906 z M 496.32031 668.08984 C 494.83318 668.27552 492.32363 668.58399 489.74414 669.2207 C 475.51973 672.73178 461.58671 677.21777 450.8418 680.70508 C 447.06228 681.93174 444.11531 682.83446 441.05469 683.77344 C 439.05595 686.81762 436.92319 690.053 434.91016 693.78125 C 429.24108 704.28064 422.64856 713.9775 414.78125 722.33203 L 528.38281 722.36133 C 539.80568 722.29603 545.48969 716.61359 545.56445 705.1543 L 545.56445 683.98633 C 540.02147 683.62747 539.12584 683.0412 535.93164 682.29688 C 532.66244 681.53506 528.89423 680.55714 524.93164 679.41797 C 517.61035 677.31323 510.90749 675.67394 502.61523 671.0625 C 499.89546 669.84991 497.90206 668.86612 496.32031 668.08984 z M 413.67383 691.5957 C 413.58509 691.73901 413.54855 691.79946 413.43555 691.98242 C 413.36498 692.09667 413.21562 692.33706 413.13672 692.46484 C 413.55376 691.91626 413.65623 691.689 413.67383 691.5957 z "
         style="fill:url(#linearGradient4201);fill-opacity:1;fill-rule:evenodd;stroke:none;stroke-width:1;stroke-linecap:butt;stroke-linejoin:miter;stroke-opacity:1;stroke-miterlimit:4;stroke-dasharray:none" />
      <path
         id="rect4227"
         d="M 274.24219 472.92773 C 267.31719 472.92773 261.74219 478.50273 261.74219 485.42773 L 261.74219 485.53125 C 261.74219 492.45625 267.31719 498.03125 274.24219 498.03125 L 387.25977 498.03125 C 388.94358 490.12498 391.92507 481.44792 397.09375 472.92773 L 274.24219 472.92773 z M 454.85742 491.04102 C 450.55851 490.97502 440.7223 497.49356 440.45703 497.89062 C 440.42453 497.93927 440.40122 497.98284 440.36914 498.03125 L 464.59375 498.03125 C 463.58287 495.91456 462.83508 494.43747 462.36914 493.875 C 461.61478 492.96436 461.8226 492.31892 456.40625 491.20117 C 455.97925 491.11302 455.4696 491.05002 454.85742 491.04102 z M 274.24219 523.31836 C 267.31719 523.31836 261.74219 528.89336 261.74219 535.81836 L 261.74219 535.92188 C 261.74219 542.84686 267.31719 548.42188 274.24219 548.42188 L 385.70703 548.42188 C 384.30543 538.63232 384.34297 529.94555 384.66797 523.31836 L 274.24219 523.31836 z M 434.84766 523.31836 C 434.39317 531.7534 434.22626 539.7996 436.60156 548.42188 L 453.84375 548.42188 C 460.76875 548.42188 466.34375 542.84686 466.34375 535.92188 L 466.34375 535.81836 C 466.34375 528.89336 460.76875 523.31836 453.84375 523.31836 L 434.84766 523.31836 z M 274.24219 573.03711 C 267.31719 573.03711 261.74219 578.61211 261.74219 585.53711 L 261.74219 585.63867 C 261.74219 592.56367 267.31719 598.13867 274.24219 598.13867 L 379.97266 598.13867 C 382.11272 593.83215 384.16342 589.41166 385.90625 585.09375 C 388.36355 579.00573 389.53874 575.67867 390.45117 573.03711 L 274.24219 573.03711 z M 442.91992 573.03711 L 441.18945 579.34766 C 439.80545 584.39734 437.70355 590.13961 434.53516 598.13867 L 472.18164 598.13867 C 471.10678 596.93699 470.0622 595.72849 469.05859 594.51367 C 466.97727 591.99426 466.37365 590.88656 467.65039 592.60156 L 460.20898 582.60547 L 463.01172 573.03711 L 442.91992 573.03711 z M 463.86914 573.03711 C 463.28689 574.15675 462.88943 575.13458 462.5293 576.07617 L 477.98242 578.01367 L 466.00781 573.03711 L 463.86914 573.03711 z M 461.64062 578.94727 C 461.13575 581.25749 461.24727 582.76778 461.25977 583.31836 L 476.86523 585.27539 L 461.64062 578.94727 z "
         style="color:#252525;clip-rule:nonzero;display:inline;overflow:visible;visibility:visible;opacity:0.98000004;isolation:auto;mix-blend-mode:normal;color-interpolation:sRGB;color-interpolation-filters:linearRGB;solid-color:#252525;solid-opacity:1;fill:#ffffff;fill-opacity:1;fill-rule:nonzero;stroke:none;stroke-width:1;stroke-linecap:square;stroke-linejoin:round;stroke-miterlimit:4;stroke-dasharray:none;stroke-dashoffset:0;stroke-opacity:1;color-rendering:auto;image-rendering:auto;shape-rendering:auto;text-rendering:auto;enable-background:accumulate" />
      <rect
         y="322.36221"
         x="190"
         height="400"
         width="400"
         id="rect4160"
         style="opacity:1;fill:none;fill-opacity:1;stroke:none;stroke-width:1;stroke-linecap:butt;stroke-linejoin:round;stroke-miterlimit:4;stroke-dasharray:none;stroke-opacity:1" />
      <path
         d="m 425.0687,661.68083 c 0.56238,2.06165 28.02265,-9.16427 58.68391,-16.73254 5.93061,-1.46389 11.53686,-2.36891 15.24903,-2.08903 2.22626,-0.73707 9.13205,3.41301 14.46311,5.69754 7.41134,4.44681 30.26168,10.27904 33.97126,10.50292 9.08855,0.54846 29.57378,2.55459 31.67118,-9.50901 1.90251,-10.94272 -9.67312,-18.46117 -22.94501,-22.1739 -10.04789,-2.81082 -20.39088,-3.12349 -26.73722,-2.98846 -14.72895,0.31338 -28.02081,1.03194 -28.02081,1.03194 0,0 -36.15419,-29.10075 -40.51906,-44.15911 -0.17822,-0.94176 5.59725,-19.88744 6.18986,-21.94339 3.90615,-13.55147 6.50089,-30.3135 4.87126,-40.46319 -1.1998,-7.47267 -7.14476,-25.92133 -15.5393,-27.65368 -14.90603,-3.07614 -20.58276,12.85092 -21.12641,24.19342 -0.54802,11.43384 -1.80492,25.50888 2.9057,37.86166 3.3375,8.75198 4.8504,17.24784 4.14342,21.68374 -1.18009,7.40446 -5.26148,16.98901 -10.0566,28.86906 -9.44461,23.39922 -26.47272,51.15196 -26.47272,51.15196 0,0 -29.95488,11.12046 -44.95921,29.01475 -16.83319,20.07541 -7.33758,31.66081 -7.33758,31.66081 0,0 6.76639,13.83497 26.95084,2.39954 10.13919,-5.74431 24.68012,-21.72786 32.45797,-36.1328 6.05552,-11.21513 12.62294,-19.1812 12.15638,-20.22223 z m -31.96498,15.66911 c 0,0 -13.02572,9.87344 -17.87854,14.03268 -6.40687,5.49119 -7.68248,10.34161 -5.06787,14.15597 1.88718,2.75317 7.62463,-4.49988 12.92397,-12.42226 4.90924,-7.33918 9.87173,-15.61568 10.02244,-15.76639 z m 42.93335,-37.60587 c 2.25908,-5.3655 3.69012,-7.75701 8.6971,-19.16789 2.98769,-6.96667 5.14631,-12.37964 8.07999,-17.27624 4.33167,3.28938 5.4338,4.36143 11.86649,11.74067 5.51965,4.86773 10.50979,9.08699 14.28979,12.79494 -1.70222,2.25412 -10.97123,4.50823 -20.16388,6.76234 -17.70069,3.73757 -15.59555,3.51397 -22.76949,5.14618 z m 15.26394,-101.31424 c 0,0 -0.83292,-7.93004 -1.4432,-15.7424 -0.42655,-5.46051 -1.42945,-10.30702 1.6648,-13.27233 7.52118,-7.20779 0.71855,29.01473 -0.2216,29.01473 z m 83.45145,102.56777 c 0,0 26.39363,-1.12372 24.82672,3.26364 -1.56692,4.38734 -24.82672,-3.26364 -24.82672,-3.26364 z"
         id="path4497"
         sodipodi:nodetypes="csccssssccssssscscscssccssscccccccccssccsc"
         style="fill:#cc0000;fill-opacity:1;fill-rule:evenodd;stroke:none;stroke-width:1;stroke-linecap:butt;stroke-linejoin:miter;stroke-miterlimit:4;stroke-dasharray:none;stroke-opacity:1"
         inkscape:connector-curvature="0" />
    </g>
  </g>
</svg>
