<?xml version="1.0" encoding="UTF-8" standalone="no"?>
<!-- Created with Inkscape (http://www.inkscape.org/) -->

<svg
   xmlns:dc="http://purl.org/dc/elements/1.1/"
   xmlns:cc="http://creativecommons.org/ns#"
   xmlns:rdf="http://www.w3.org/1999/02/22-rdf-syntax-ns#"
   xmlns:svg="http://www.w3.org/2000/svg"
   xmlns="http://www.w3.org/2000/svg"
   xmlns:xlink="http://www.w3.org/1999/xlink"
   xmlns:sodipodi="http://sodipodi.sourceforge.net/DTD/sodipodi-0.dtd"
   xmlns:inkscape="http://www.inkscape.org/namespaces/inkscape"
   width="210mm"
   height="297mm"
   viewBox="0 0 744.09448819 1052.3622047"
   id="svg2"
   version="1.1"
   inkscape:version="0.91 r13725"
   inkscape:export-xdpi="3.5999999"
   inkscape:export-ydpi="3.5999999"
   sodipodi:docname="document-pdf.svg"
   inkscape:export-filename="C:\Users\johannes\Documents\Arbeit\RRZE\github3\bicons\16x16\mime-types\document-pdf.png">
  <defs
     id="defs4">
    <linearGradient
       id="linearGradient2224">
      <stop
         id="stop2226"
         offset="0"
         style="stop-color:#7c7c7c;stop-opacity:1;" />
      <stop
         id="stop2228"
         offset="1"
         style="stop-color:#b8b8b8;stop-opacity:1;" />
    </linearGradient>
    <linearGradient
       id="linearGradient15218">
      <stop
         id="stop15220"
         offset="0"
         style="stop-color:#eeeeef;stop-opacity:1;" />
      <stop
         id="stop2736"
         offset="0.59928656"
         style="stop-color:#d3d7cf;stop-opacity:1;" />
      <stop
         id="stop2738"
         offset="0.82758623"
         style="stop-color:#ffffff;stop-opacity:1;" />
      <stop
         id="stop15222"
         offset="1"
         style="stop-color:#d3d7cf;stop-opacity:1;" />
    </linearGradient>
    <pattern
       y="0"
       x="0"
       height="6"
       width="6"
       patternUnits="userSpaceOnUse"
       id="EMFhbasepattern" />
    <pattern
       y="0"
       x="0"
       height="6"
       width="6"
       patternUnits="userSpaceOnUse"
       id="EMFhbasepattern-5" />
    <linearGradient
       inkscape:collect="always"
       xlink:href="#linearGradient4195"
       id="linearGradient4201"
       x1="286.38269"
       y1="672.9209"
       x2="532.51678"
       y2="367.74933"
       gradientUnits="userSpaceOnUse"
       gradientTransform="matrix(1.1363532,0,0,1.1363532,-56.779393,-53.10644)" />
    <linearGradient
       inkscape:collect="always"
       id="linearGradient4195">
      <stop
         style="stop-color:#4e505d;stop-opacity:1"
         offset="0"
         id="stop4197" />
      <stop
         style="stop-color:#7a8597;stop-opacity:1"
         offset="1"
         id="stop4199" />
    </linearGradient>
  </defs>
  <sodipodi:namedview
     id="base"
     pagecolor="#ffffff"
     bordercolor="#666666"
     borderopacity="1.0"
     inkscape:pageopacity="0.0"
     inkscape:pageshadow="2"
     inkscape:zoom="1"
     inkscape:cx="444.72373"
     inkscape:cy="439.27977"
     inkscape:document-units="px"
     inkscape:current-layer="layer1"
     showgrid="false"
     showguides="true"
     inkscape:guide-bbox="true"
     inkscape:window-width="1366"
     inkscape:window-height="721"
     inkscape:window-x="-4"
     inkscape:window-y="-4"
     inkscape:window-maximized="1">
    <sodipodi:guide
       position="560,730.00002"
       orientation="0,1"
       id="guide3338" />
    <sodipodi:guide
       position="560,330.00001"
       orientation="0,1"
       id="guide3340" />
    <sodipodi:guide
       position="190,475.00001"
       orientation="1,0"
       id="guide3344" />
    <sodipodi:guide
       position="590,451.00001"
       orientation="1,0"
       id="guide3346" />
    <inkscape:grid
       type="xygrid"
       id="grid3440" />
  </sodipodi:namedview>
  <metadata
     id="metadata7">
    <rdf:RDF>
      <cc:Work
         rdf:about="">
        <dc:format>image/svg+xml</dc:format>
        <dc:type
           rdf:resource="http://purl.org/dc/dcmitype/StillImage" />
        <dc:title>document pdf</dc:title>
        <dc:date>June 2015</dc:date>
        <dc:creator>
          <cc:Agent>
            <dc:title>Johannes Hechler</dc:title>
          </cc:Agent>
        </dc:creator>
        <dc:rights>
          <cc:Agent>
            <dc:title>Johannes Hechler</dc:title>
          </cc:Agent>
        </dc:rights>
        <dc:publisher>
          <cc:Agent>
            <dc:title>RRZE</dc:title>
          </cc:Agent>
        </dc:publisher>
        <dc:contributor>
          <cc:Agent>
            <dc:title>Ute Weber, Hendrik Eggers</dc:title>
          </cc:Agent>
        </dc:contributor>
      </cc:Work>
    </rdf:RDF>
  </metadata>
  <g
     inkscape:label="Ebene 1"
     inkscape:groupmode="layer"
     id="layer1">
    <path
       inkscape:connector-curvature="0"
       style="fill:url(#linearGradient4201);fill-opacity:1;fill-rule:evenodd;stroke:none;stroke-width:1;stroke-linecap:butt;stroke-linejoin:miter;stroke-miterlimit:4;stroke-dasharray:none;stroke-opacity:1"
       d="m 250.0625,322.37109 c -11.3891,-0.0191 -17.07144,5.61131 -17.02344,16.83203 -0.048,93.32378 -0.048,252.41136 -0.0176,366.06836 -0.0303,11.34185 5.68558,17.09627 16.97852,17.01954 l 79.24609,0.0195 c -1.62897,-3.87613 -3.10151,-8.64132 -3.35547,-13.73047 -0.61145,-12.25361 4.36802,-27.04246 15.79297,-40.66797 15.33998,-18.29459 35.63678,-28.51774 46.90821,-33.19141 4.73589,-8.10704 14.18444,-24.62743 20.49804,-40.26953 4.35281,-10.7842 7.13951,-18.61412 7.98828,-21.71094 -0.35259,-0.68063 -0.59008,-6.21822 -2.25195,-10.57617 -7.4909,-19.64358 -5.02505,-37.37882 -4.51758,-47.96679 0.44425,-9.26868 2.18243,-19.44757 9.36133,-30.19336 6.28154,-9.40257 20.98428,-18.18292 35.57031,-17.95899 2.08372,0.032 4.1647,0.24798 6.21875,0.67188 20.25679,4.18031 24.1524,17.17776 28.07618,25.59765 3.92377,8.4199 5.98172,15.63802 7.0957,22.57617 2.9711,18.50468 -0.92355,35.35946 -5.5332,51.35157 -0.61925,2.14836 -1.95402,6.50902 -3.39454,11.42969 0.26427,0.35497 0.33055,0.55876 0.62891,0.91992 3.01758,3.65265 7.37589,8.16892 11.7207,12.32031 3.74784,3.58099 7.17805,6.58777 10.1543,9.16992 5.24766,-0.24442 8.82265,-0.47765 18.68555,-0.6875 4.29661,-0.0914 10.05628,-0.0483 16.67187,0.64844 l 0.002,-153.61328 c -26.82812,1.08573 -128.93361,3.83993 -131.58008,1.65039 -2.64647,-2.18954 0.32422,-125.68555 0.32422,-125.68555 0,0 -139.18086,-0.026 -164.24805,-0.0234 z m 189.35938,0.0176 c -0.9013,34.04077 -0.93996,67.56399 0,100.5 31.76562,2.32449 68.87261,1.25036 106.25585,0 -26.33709,-42.58131 -62.99667,-74.8408 -106.25585,-100.5 z m 46.83203,260.36328 c -0.12607,0.45166 -0.32814,1.13287 -0.42969,1.50782 -0.11438,0.42218 -0.13488,0.51697 -0.20508,0.79101 0.15361,-0.25798 0.68397,-0.12872 0.63477,-2.29883 z m 8.78125,84.73047 c 0.0171,0.008 0.0647,0.0308 0.082,0.0391 -0.0362,-0.0171 -0.0478,-0.0222 -0.082,-0.0391 z m 2.08789,0.30664 c 0.80938,0.061 0.45388,0.13013 -0.29297,0.23047 0.94563,0.18432 2.16155,0.25944 3.90625,0.041 l -3.61328,-0.27149 z m -0.80274,0.30078 c -1.48713,0.18568 -3.99668,0.49415 -6.57617,1.13086 -14.22441,3.51108 -28.15743,7.99707 -38.90234,11.48438 -3.77952,1.22666 -6.72649,2.12938 -9.78711,3.06836 -1.99874,3.04418 -4.1315,6.27956 -6.14453,10.00781 -5.66908,10.49939 -12.2616,20.19625 -20.12891,28.55078 l 113.60156,0.0293 c 11.42287,-0.0653 17.10688,-5.74774 17.18164,-17.20703 l 0,-21.16797 c -5.54298,-0.35886 -6.43861,-0.94513 -9.63281,-1.68945 -3.2692,-0.76182 -7.03741,-1.73974 -11,-2.87891 -7.32129,-2.10474 -14.02415,-3.74403 -22.31641,-8.35547 -2.71977,-1.21259 -4.71317,-2.19638 -6.29492,-2.97266 z m -82.64648,23.50586 c -0.0887,0.14331 -0.12528,0.20376 -0.23828,0.38672 -0.0706,0.11425 -0.21993,0.35464 -0.29883,0.48242 0.41704,-0.54858 0.51951,-0.77584 0.53711,-0.86914 z"
       id="path4244" />
    <path
       inkscape:connector-curvature="0"
       style="color:#252525;clip-rule:nonzero;display:inline;overflow:visible;visibility:visible;opacity:18000004;isolation:auto;mix-blend-mode:normal;color-interpolation:sRGB;color-interpolation-filters:linearRGB;solid-color:#252525;solid-opacity:1;fill:#ffffff;fill-opacity:1;fill-rule:nonzero;stroke:none;stroke-width:1;stroke-linecap:square;stroke-linejoin:round;stroke-miterlimit:4;stroke-dasharray:none;stroke-dashoffset:0;stroke-opacity:1;color-rendering:auto;image-rendering:auto;shape-rendering:auto;text-rendering:auto;enable-background:accumulate"
       d="m 274.24219,472.92773 c -6.925,0 -12.5,5.575 -12.5,12.5 l 0,0.10352 c 0,6.925 5.575,12.5 12.5,12.5 l 113.01758,0 c 1.68381,-7.90627 4.6653,-16.58333 9.83398,-25.10352 l -122.85156,0 z m 180.61523,18.11329 c -4.29891,-0.066 -14.13512,6.45254 -14.40039,6.8496 -0.0325,0.0487 -0.0558,0.0922 -0.0879,0.14063 l 24.22461,0 c -1.01088,-2.11669 -1.75867,-3.59378 -2.22461,-4.15625 -0.75436,-0.91064 -0.54654,-1.55608 -5.96289,-2.67383 -0.427,-0.0881 -0.93665,-0.15115 -1.54883,-0.16015 z m -180.61523,32.27734 c -6.925,0 -12.5,5.575 -12.5,12.5 l 0,0.10352 c 0,6.92498 5.575,12.5 12.5,12.5 l 111.46484,0 c -1.4016,-9.78956 -1.36406,-18.47633 -1.03906,-25.10352 l -110.42578,0 z m 160.60547,0 c -0.45449,8.43504 -0.6214,16.48124 1.7539,25.10352 l 17.24219,0 c 6.925,0 12.5,-5.57502 12.5,-12.5 l 0,-0.10352 c 0,-6.925 -5.575,-12.5 -12.5,-12.5 l -18.99609,0 z m -160.60547,49.71875 c -6.925,0 -12.5,5.575 -12.5,12.5 l 0,0.10156 c 0,6.925 5.575,12.5 12.5,12.5 l 105.73047,0 c 2.14006,-4.30652 4.19076,-8.72701 5.93359,-13.04492 2.4573,-6.08802 3.63249,-9.41508 4.54492,-12.05664 l -116.20898,0 z m 168.67773,0 -1.73047,6.31055 c -1.384,5.04968 -3.4859,10.79195 -6.65429,18.79101 l 37.64648,0 c -1.07486,-1.20168 -2.11944,-2.41018 -3.12305,-3.625 -2.08132,-2.51941 -2.68494,-3.62711 -1.4082,-1.91211 l -7.44141,-9.99609 2.80274,-9.56836 -20.0918,0 z m 20.94922,0 c -0.58225,1.11964 -0.97971,2.09747 -1.33984,3.03906 l 15.45312,1.9375 -11.97461,-4.97656 -2.13867,0 z m -2.22852,5.91016 c -0.50487,2.31022 -0.39335,3.82051 -0.38085,4.37109 l 15.60546,1.95703 -15.22461,-6.32812 z"
       id="rect4227" />
    <rect
       style="opacity:1;fill:none;fill-opacity:1;stroke:none;stroke-width:1;stroke-linecap:butt;stroke-linejoin:round;stroke-miterlimit:4;stroke-dasharray:none;stroke-opacity:1"
       id="rect4160"
       width="400"
       height="400"
       x="190"
       y="322.36221" />
    <path
       inkscape:connector-curvature="0"
       style="fill:#99b000;fill-opacity:1;fill-rule:evenodd;stroke:none;stroke-width:1;stroke-linecap:butt;stroke-linejoin:miter;stroke-miterlimit:4;stroke-dasharray:none;stroke-opacity:1"
       sodipodi:nodetypes="csccssssccssssscscscssccssscccccccccssccsc"
       id="path4497"
       d="m 425.0687,661.68083 c 0.56238,2.06165 28.02265,-9.16427 58.68391,-16.73254 5.93061,-1.46389 11.53686,-2.36891 15.24903,-2.08903 2.22626,-0.73707 9.13205,3.41301 14.46311,5.69754 7.41134,4.44681 30.26168,10.27904 33.97126,10.50292 9.08855,0.54846 29.57378,2.55459 31.67118,-9.50901 1.90251,-10.94272 -9.67312,-18.46117 -22.94501,-22.1739 -10.04789,-2.81082 -20.39088,-3.12349 -26.73722,-2.98846 -14.72895,0.31338 -28.02081,1.03194 -28.02081,1.03194 0,0 -36.15419,-29.10075 -40.51906,-44.15911 -0.17822,-0.94176 5.59725,-19.88744 6.18986,-21.94339 3.90615,-13.55147 6.50089,-30.3135 4.87126,-40.46319 -1.1998,-7.47267 -7.14476,-25.92133 -15.5393,-27.65368 -14.90603,-3.07614 -20.58276,12.85092 -21.12641,24.19342 -0.54802,11.43384 -1.80492,25.50888 2.9057,37.86166 3.3375,8.75198 4.8504,17.24784 4.14342,21.68374 -1.18009,7.40446 -5.26148,16.98901 -10.0566,28.86906 -9.44461,23.39922 -26.47272,51.15196 -26.47272,51.15196 0,0 -29.95488,11.12046 -44.95921,29.01475 -16.83319,20.07541 -7.33758,31.66081 -7.33758,31.66081 0,0 6.76639,13.83497 26.95084,2.39954 10.13919,-5.74431 24.68012,-21.72786 32.45797,-36.1328 6.05552,-11.21513 12.62294,-19.1812 12.15638,-20.22223 z m -31.96498,15.66911 c 0,0 -13.02572,9.87344 -17.87854,14.03268 -6.40687,5.49119 -7.68248,10.34161 -5.06787,14.15597 1.88718,2.75317 7.62463,-4.49988 12.92397,-12.42226 4.90924,-7.33918 9.87173,-15.61568 10.02244,-15.76639 z m 42.93335,-37.60587 c 2.25908,-5.3655 3.69012,-7.75701 8.6971,-19.16789 2.98769,-6.96667 5.14631,-12.37964 8.07999,-17.27624 4.33167,3.28938 5.4338,4.36143 11.86649,11.74067 5.51965,4.86773 10.50979,9.08699 14.28979,12.79494 -1.70222,2.25412 -10.97123,4.50823 -20.16388,6.76234 -17.70069,3.73757 -15.59555,3.51397 -22.76949,5.14618 z m 15.26394,-101.31424 c 0,0 -0.83292,-7.93004 -1.4432,-15.7424 -0.42655,-5.46051 -1.42945,-10.30702 1.6648,-13.27233 7.52118,-7.20779 0.71855,29.01473 -0.2216,29.01473 z m 83.45145,102.56777 c 0,0 26.39363,-1.12372 24.82672,3.26364 -1.56692,4.38734 -24.82672,-3.26364 -24.82672,-3.26364 z" />
  </g>
</svg>
