<?xml version="1.0" encoding="UTF-8" standalone="no"?>
<!-- Created with Inkscape (http://www.inkscape.org/) -->

<svg
   xmlns:dc="http://purl.org/dc/elements/1.1/"
   xmlns:cc="http://creativecommons.org/ns#"
   xmlns:rdf="http://www.w3.org/1999/02/22-rdf-syntax-ns#"
   xmlns:svg="http://www.w3.org/2000/svg"
   xmlns="http://www.w3.org/2000/svg"
   xmlns:xlink="http://www.w3.org/1999/xlink"
   xmlns:sodipodi="http://sodipodi.sourceforge.net/DTD/sodipodi-0.dtd"
   xmlns:inkscape="http://www.inkscape.org/namespaces/inkscape"
   width="210mm"
   height="297mm"
   viewBox="0 0 744.09448819 1052.3622047"
   id="svg2"
   version="1.1"
   inkscape:version="0.91 r13725"
   inkscape:export-xdpi="4"
   inkscape:export-ydpi="4"
   sodipodi:docname="media-audio-virtual-slide.svg">
  <defs
     id="defs4">
    <inkscape:perspective
       sodipodi:type="inkscape:persp3d"
       inkscape:vp_x="0 : 526.1811 : 1"
       inkscape:vp_y="0 : 1000 : 0"
       inkscape:vp_z="744.09449 : 526.1811 : 1"
       inkscape:persp3d-origin="372.04724 : 350.7874 : 1"
       id="perspective4169" />
    <linearGradient
       id="linearGradient2224">
      <stop
         id="stop2226"
         offset="0"
         style="stop-color:#7c7c7c;stop-opacity:1;" />
      <stop
         id="stop2228"
         offset="1"
         style="stop-color:#b8b8b8;stop-opacity:1;" />
    </linearGradient>
    <linearGradient
       id="linearGradient15218">
      <stop
         id="stop15220"
         offset="0"
         style="stop-color:#eeeeef;stop-opacity:1;" />
      <stop
         id="stop2736"
         offset="0.59928656"
         style="stop-color:#d3d7cf;stop-opacity:1;" />
      <stop
         id="stop2738"
         offset="0.82758623"
         style="stop-color:#ffffff;stop-opacity:1;" />
      <stop
         id="stop15222"
         offset="1"
         style="stop-color:#d3d7cf;stop-opacity:1;" />
    </linearGradient>
    <pattern
       y="0"
       x="0"
       height="6"
       width="6"
       patternUnits="userSpaceOnUse"
       id="EMFhbasepattern" />
    <pattern
       y="0"
       x="0"
       height="6"
       width="6"
       patternUnits="userSpaceOnUse"
       id="EMFhbasepattern-5" />
    <linearGradient
       inkscape:collect="always"
       xlink:href="#linearGradient4195"
       id="linearGradient4201"
       x1="286.38269"
       y1="672.9209"
       x2="532.51678"
       y2="367.74933"
       gradientUnits="userSpaceOnUse"
       gradientTransform="matrix(1.1363532,0,0,1.1363532,-54.279977,-53.288255)" />
    <linearGradient
       inkscape:collect="always"
       id="linearGradient4195">
      <stop
         style="stop-color:#4e505d;stop-opacity:1"
         offset="0"
         id="stop4197" />
      <stop
         style="stop-color:#7a8597;stop-opacity:1"
         offset="1"
         id="stop4199" />
    </linearGradient>
  </defs>
  <sodipodi:namedview
     id="base"
     pagecolor="#ffffff"
     bordercolor="#666666"
     borderopacity="1.0"
     inkscape:pageopacity="0.0"
     inkscape:pageshadow="2"
     inkscape:zoom="1"
     inkscape:cx="549.95208"
     inkscape:cy="562.6596"
     inkscape:document-units="px"
     inkscape:current-layer="layer1"
     showgrid="false"
     showguides="true"
     inkscape:guide-bbox="true"
     inkscape:window-width="1366"
     inkscape:window-height="721"
     inkscape:window-x="-4"
     inkscape:window-y="-4"
     inkscape:window-maximized="1">
    <sodipodi:guide
       position="560,730.00002"
       orientation="0,1"
       id="guide3338" />
    <sodipodi:guide
       position="560,330.00001"
       orientation="0,1"
       id="guide3340" />
    <sodipodi:guide
       position="190,475.00001"
       orientation="1,0"
       id="guide3344" />
    <sodipodi:guide
       position="590,451.00001"
       orientation="1,0"
       id="guide3346" />
    <inkscape:grid
       type="xygrid"
       id="grid3440" />
  </sodipodi:namedview>
  <metadata
     id="metadata7">
    <rdf:RDF>
      <cc:Work
         rdf:about="">
        <dc:format>image/svg+xml</dc:format>
        <dc:type
           rdf:resource="http://purl.org/dc/dcmitype/StillImage" />
        <dc:title>media audio virtual slide</dc:title>
        <dc:date>June 2015</dc:date>
        <dc:creator>
          <cc:Agent>
            <dc:title>Johannes Hechler</dc:title>
          </cc:Agent>
        </dc:creator>
        <dc:rights>
          <cc:Agent>
            <dc:title>Johannes Hechler</dc:title>
          </cc:Agent>
        </dc:rights>
        <dc:publisher>
          <cc:Agent>
            <dc:title>RRZE</dc:title>
          </cc:Agent>
        </dc:publisher>
        <dc:contributor>
          <cc:Agent>
            <dc:title>Ute Weber, Hendrik Eggers</dc:title>
          </cc:Agent>
        </dc:contributor>
      </cc:Work>
    </rdf:RDF>
  </metadata>
  <g
     inkscape:label="Ebene 1"
     inkscape:groupmode="layer"
     id="layer1">
    <g
       id="g4205"
       transform="translate(-2.4994164,0.18181472)">
      <path
         inkscape:export-ydpi="3.5999999"
         inkscape:export-xdpi="3.5999999"
         inkscape:export-filename="C:\Users\johannes\Desktop\rect3336.png"
         id="path4244"
         d="m 252.56142,322.19017 c -11.3891,-0.0191 -17.07143,5.61131 -17.02343,16.83203 -0.048,93.32377 -0.048,252.41136 -0.0176,366.06836 -0.0303,11.34185 5.68557,17.09626 16.97851,17.01953 l 278.38282,0.0703 c 11.42287,-0.0653 17.10688,-5.74774 17.18164,-17.20703 l 0.002,-258.72461 c -26.82812,1.08573 -128.93361,3.83993 -131.58008,1.65039 -2.64647,-2.18954 0.32422,-125.68555 0.32422,-125.68555 0,0 -139.18086,-0.026 -164.24805,-0.0234 z m 189.35938,0.0176 c -0.90129,34.04077 -0.93996,67.56399 0,100.5 31.76562,2.32449 68.87262,1.25036 106.25586,0 -26.33709,-42.58131 -62.99667,-74.8408 -106.25586,-100.5 z"
         style="fill:url(#linearGradient4201);fill-opacity:1;fill-rule:evenodd;stroke:none;stroke-width:1px;stroke-linecap:butt;stroke-linejoin:miter;stroke-opacity:1"
         inkscape:connector-curvature="0" />
      <rect
         inkscape:export-ydpi="3.5999999"
         inkscape:export-xdpi="3.5999999"
         inkscape:export-filename="C:\Users\johannes\Desktop\rect3336.png"
         ry="12.5"
         y="472.74625"
         x="264.24127"
         height="25.102289"
         width="248.79578"
         id="rect4227"
         style="color:#000000;clip-rule:nonzero;display:inline;overflow:visible;visibility:visible;opacity:0.98000004;isolation:auto;mix-blend-mode:normal;color-interpolation:sRGB;color-interpolation-filters:linearRGB;solid-color:#000000;solid-opacity:1;fill:#ffffff;fill-opacity:1;fill-rule:nonzero;stroke:none;stroke-width:50;stroke-linecap:square;stroke-linejoin:round;stroke-miterlimit:4;stroke-dasharray:none;stroke-dashoffset:0;stroke-opacity:1;color-rendering:auto;image-rendering:auto;shape-rendering:auto;text-rendering:auto;enable-background:accumulate" />
      <rect
         inkscape:export-ydpi="3.5999999"
         inkscape:export-xdpi="3.5999999"
         inkscape:export-filename="C:\Users\johannes\Desktop\rect3336.png"
         style="color:#000000;clip-rule:nonzero;display:inline;overflow:visible;visibility:visible;opacity:0.98000004;isolation:auto;mix-blend-mode:normal;color-interpolation:sRGB;color-interpolation-filters:linearRGB;solid-color:#000000;solid-opacity:1;fill:#ffffff;fill-opacity:1;fill-rule:nonzero;stroke:none;stroke-width:50;stroke-linecap:square;stroke-linejoin:round;stroke-miterlimit:4;stroke-dasharray:none;stroke-dashoffset:0;stroke-opacity:1;color-rendering:auto;image-rendering:auto;shape-rendering:auto;text-rendering:auto;enable-background:accumulate"
         id="rect4229"
         width="204.60161"
         height="25.102289"
         x="264.24127"
         y="523.1369"
         ry="12.5" />
      <rect
         inkscape:export-ydpi="3.5999999"
         inkscape:export-xdpi="3.5999999"
         inkscape:export-filename="C:\Users\johannes\Desktop\rect3336.png"
         ry="12.5"
         y="572.85535"
         x="264.24127"
         height="25.102289"
         width="225.59384"
         id="rect4233"
         style="color:#000000;clip-rule:nonzero;display:inline;overflow:visible;visibility:visible;opacity:0.98000004;isolation:auto;mix-blend-mode:normal;color-interpolation:sRGB;color-interpolation-filters:linearRGB;solid-color:#000000;solid-opacity:1;fill:#ffffff;fill-opacity:1;fill-rule:nonzero;stroke:none;stroke-width:50;stroke-linecap:square;stroke-linejoin:round;stroke-miterlimit:4;stroke-dasharray:none;stroke-dashoffset:0;stroke-opacity:1;color-rendering:auto;image-rendering:auto;shape-rendering:auto;text-rendering:auto;enable-background:accumulate" />
    </g>
    <rect
       style="opacity:1;fill:none;fill-opacity:1;stroke:none;stroke-width:23;stroke-linecap:butt;stroke-linejoin:round;stroke-miterlimit:4;stroke-dasharray:none;stroke-opacity:1"
       id="rect4160"
       width="400"
       height="400"
       x="190"
       y="322.36221" />
    <path
       inkscape:connector-curvature="0"
       id="path4212"
       d="m 350.03245,505.89473 c -2.5564,-0.003 -4.61793,2.053 -4.62121,4.60939 l -0.0118,9.22821 c -0.003,2.55641 2.05298,4.61794 4.60938,4.62122 l 2.30647,0.003 -0.14706,114.65831 c -0.008,6.39105 11.52224,11.55186 11.52224,11.55186 l 56.5954,0.0726 -23.91586,41.29917 c -3.61666,6.2457 -1.50028,14.1862 4.74545,17.80286 l 1.81035,1.04679 c 6.24573,3.61665 14.18622,1.50029 17.80287,-4.74544 l 26.68976,-46.09495 -0.05,38.93966 c -0.009,7.2173 5.79212,13.03355 13.0094,13.04281 l 2.09135,0.003 c 7.21727,0.009 13.03592,-5.79209 13.04518,-13.00939 l 0.0524,-40.83263 27.41566,47.62471 c 3.60063,6.25498 11.53566,8.39172 17.79063,4.7911 l 1.81066,-1.04216 c 6.25498,-3.60062 8.39171,-11.53567 4.79109,-17.79064 l -23.55943,-40.92744 55.98831,0.0718 c 0,0 11.54365,-5.13122 11.55185,-11.52226 l 0.14706,-114.65831 2.30645,0.003 c 2.55639,0.003 4.61794,-2.05297 4.62122,-4.60938 l 0.0118,-9.22821 c 0.003,-2.55639 -2.05299,-4.61795 -4.60938,-4.62123 l -223.80026,-0.28704 z"
       style="opacity:1;fill:#99b000;fill-opacity:1;stroke:#ffffff;stroke-width:50;stroke-linecap:round;stroke-linejoin:round;stroke-miterlimit:4;stroke-dasharray:none;stroke-opacity:1" />
    <path
       style="opacity:1;fill:#99b000;fill-opacity:1;stroke:none;stroke-width:16;stroke-linecap:round;stroke-linejoin:round;stroke-miterlimit:4;stroke-dasharray:none;stroke-opacity:1"
       d="m 350.03245,505.89473 c -2.5564,-0.003 -4.61793,2.053 -4.62121,4.60939 l -0.0118,9.22821 c -0.003,2.55641 2.05298,4.61794 4.60938,4.62122 l 2.30647,0.003 -0.14706,114.65831 c -0.008,6.39105 11.52224,11.55186 11.52224,11.55186 l 56.5954,0.0726 -23.91586,41.29917 c -3.61666,6.2457 -1.50028,14.1862 4.74545,17.80286 l 1.81035,1.04679 c 6.24573,3.61665 14.18622,1.50029 17.80287,-4.74544 l 26.68976,-46.09495 -0.05,38.93966 c -0.009,7.2173 5.79212,13.03355 13.0094,13.04281 l 2.09135,0.003 c 7.21727,0.009 13.03592,-5.79209 13.04518,-13.00939 l 0.0524,-40.83263 27.41566,47.62471 c 3.60063,6.25498 11.53566,8.39172 17.79063,4.7911 l 1.81066,-1.04216 c 6.25498,-3.60062 8.39171,-11.53567 4.79109,-17.79064 l -23.55943,-40.92744 55.98831,0.0718 c 0,0 11.54365,-5.13122 11.55185,-11.52226 l 0.14706,-114.65831 2.30645,0.003 c 2.55639,0.003 4.61794,-2.05297 4.62122,-4.60938 l 0.0118,-9.22821 c 0.003,-2.55639 -2.05299,-4.61795 -4.60938,-4.62123 l -223.80026,-0.28704 z"
       id="rect4169"
       inkscape:connector-curvature="0" />
    <path
       style="fill:#ffffff;fill-rule:evenodd;stroke:none;stroke-width:1px;stroke-linecap:butt;stroke-linejoin:miter;stroke-opacity:1"
       d="m 428.00063,522.68477 -0.1414,110.1711 82.69899,-54.97957 z"
       id="path4208"
       inkscape:connector-curvature="0" />
  </g>
</svg>
