<?xml version="1.0" encoding="UTF-8" standalone="no"?>
<!-- Created with Inkscape (http://www.inkscape.org/) -->

<svg
   xmlns:dc="http://purl.org/dc/elements/1.1/"
   xmlns:cc="http://creativecommons.org/ns#"
   xmlns:rdf="http://www.w3.org/1999/02/22-rdf-syntax-ns#"
   xmlns:svg="http://www.w3.org/2000/svg"
   xmlns="http://www.w3.org/2000/svg"
   xmlns:xlink="http://www.w3.org/1999/xlink"
   xmlns:sodipodi="http://sodipodi.sourceforge.net/DTD/sodipodi-0.dtd"
   xmlns:inkscape="http://www.inkscape.org/namespaces/inkscape"
   width="210mm"
   height="297mm"
   viewBox="0 0 744.09448819 1052.3622047"
   id="svg2"
   version="1.1"
   inkscape:version="0.91 r13725"
   inkscape:export-xdpi="4"
   inkscape:export-ydpi="4"
   sodipodi:docname="media-slide-audio.svg">
  <defs
     id="defs4">
    <inkscape:perspective
       sodipodi:type="inkscape:persp3d"
       inkscape:vp_x="0 : 526.1811 : 1"
       inkscape:vp_y="0 : 1000 : 0"
       inkscape:vp_z="744.09449 : 526.1811 : 1"
       inkscape:persp3d-origin="372.04724 : 350.7874 : 1"
       id="perspective4169" />
    <linearGradient
       id="linearGradient2224">
      <stop
         id="stop2226"
         offset="0"
         style="stop-color:#7c7c7c;stop-opacity:1;" />
      <stop
         id="stop2228"
         offset="1"
         style="stop-color:#b8b8b8;stop-opacity:1;" />
    </linearGradient>
    <linearGradient
       id="linearGradient15218">
      <stop
         id="stop15220"
         offset="0"
         style="stop-color:#eeeeef;stop-opacity:1;" />
      <stop
         id="stop2736"
         offset="0.59928656"
         style="stop-color:#d3d7cf;stop-opacity:1;" />
      <stop
         id="stop2738"
         offset="0.82758623"
         style="stop-color:#ffffff;stop-opacity:1;" />
      <stop
         id="stop15222"
         offset="1"
         style="stop-color:#d3d7cf;stop-opacity:1;" />
    </linearGradient>
    <pattern
       y="0"
       x="0"
       height="6"
       width="6"
       patternUnits="userSpaceOnUse"
       id="EMFhbasepattern" />
    <pattern
       y="0"
       x="0"
       height="6"
       width="6"
       patternUnits="userSpaceOnUse"
       id="EMFhbasepattern-5" />
    <linearGradient
       inkscape:collect="always"
       xlink:href="#linearGradient4195"
       id="linearGradient4201"
       x1="286.38269"
       y1="672.9209"
       x2="532.51678"
       y2="367.74933"
       gradientUnits="userSpaceOnUse"
       gradientTransform="matrix(1.1363532,0,0,1.1363532,-54.279977,-53.288255)" />
    <linearGradient
       inkscape:collect="always"
       id="linearGradient4195">
      <stop
         style="stop-color:#4e505d;stop-opacity:1"
         offset="0"
         id="stop4197" />
      <stop
         style="stop-color:#7a8597;stop-opacity:1"
         offset="1"
         id="stop4199" />
    </linearGradient>
  </defs>
  <sodipodi:namedview
     id="base"
     pagecolor="#ffffff"
     bordercolor="#666666"
     borderopacity="1.0"
     inkscape:pageopacity="0.0"
     inkscape:pageshadow="2"
     inkscape:zoom="1"
     inkscape:cx="274.41363"
     inkscape:cy="501.80487"
     inkscape:document-units="px"
     inkscape:current-layer="layer1"
     showgrid="false"
     showguides="true"
     inkscape:guide-bbox="true"
     inkscape:window-width="1366"
     inkscape:window-height="721"
     inkscape:window-x="-4"
     inkscape:window-y="-4"
     inkscape:window-maximized="1">
    <sodipodi:guide
       position="560,730.00002"
       orientation="0,1"
       id="guide3338" />
    <sodipodi:guide
       position="560,330.00001"
       orientation="0,1"
       id="guide3340" />
    <sodipodi:guide
       position="190,475.00001"
       orientation="1,0"
       id="guide3344" />
    <sodipodi:guide
       position="590,451.00001"
       orientation="1,0"
       id="guide3346" />
    <inkscape:grid
       type="xygrid"
       id="grid3440" />
  </sodipodi:namedview>
  <metadata
     id="metadata7">
    <rdf:RDF>
      <cc:Work
         rdf:about="">
        <dc:format>image/svg+xml</dc:format>
        <dc:type
           rdf:resource="http://purl.org/dc/dcmitype/StillImage" />
        <dc:title>media slide audio</dc:title>
        <dc:date>June 2015</dc:date>
        <dc:creator>
          <cc:Agent>
            <dc:title>Johannes Hechler</dc:title>
          </cc:Agent>
        </dc:creator>
        <dc:rights>
          <cc:Agent>
            <dc:title>Johannes Hechler</dc:title>
          </cc:Agent>
        </dc:rights>
        <dc:publisher>
          <cc:Agent>
            <dc:title>RRZE</dc:title>
          </cc:Agent>
        </dc:publisher>
        <dc:contributor>
          <cc:Agent>
            <dc:title>Ute Weber, Hendrik Eggers</dc:title>
          </cc:Agent>
        </dc:contributor>
      </cc:Work>
    </rdf:RDF>
  </metadata>
  <g
     inkscape:label="Ebene 1"
     inkscape:groupmode="layer"
     id="layer1">
    <g
       id="g4205"
       transform="translate(-2.48434,0.271281)">
      <path
         inkscape:export-ydpi="3.5999999"
         inkscape:export-xdpi="3.5999999"
         id="path4244"
         d="m 252.56142,322.19017 c -11.3891,-0.0191 -17.07143,5.61131 -17.02343,16.83203 -0.048,93.32377 -0.048,252.41136 -0.0176,366.06836 -0.0303,11.34185 5.68557,17.09626 16.97851,17.01953 l 278.38282,0.0703 c 11.42287,-0.0653 17.10688,-5.74774 17.18164,-17.20703 l 0.002,-258.72461 c -26.82812,1.08573 -128.93361,3.83993 -131.58008,1.65039 -2.64647,-2.18954 0.32422,-125.68555 0.32422,-125.68555 0,0 -139.18086,-0.026 -164.24805,-0.0234 z m 189.35938,0.0176 c -0.90129,34.04077 -0.93996,67.56399 0,100.5 31.76562,2.32449 68.87262,1.25036 106.25586,0 -26.33709,-42.58131 -62.99667,-74.8408 -106.25586,-100.5 z"
         style="fill:url(#linearGradient4201);fill-opacity:1;fill-rule:evenodd;stroke:none;stroke-width:1px;stroke-linecap:butt;stroke-linejoin:miter;stroke-opacity:1"
         inkscape:connector-curvature="0" />
      <rect
         inkscape:export-ydpi="3.5999999"
         inkscape:export-xdpi="3.5999999"
         ry="12.5"
         y="472.74625"
         x="264.24127"
         height="25.102289"
         width="248.79578"
         id="rect4227"
         style="color:#252525;clip-rule:nonzero;display:inline;overflow:visible;visibility:visible;opacity:0.98000004;isolation:auto;mix-blend-mode:normal;color-interpolation:sRGB;color-interpolation-filters:linearRGB;solid-color:#252525;solid-opacity:1;fill:#ffffff;fill-opacity:1;fill-rule:nonzero;stroke:none;stroke-width:50;stroke-linecap:square;stroke-linejoin:round;stroke-miterlimit:4;stroke-dasharray:none;stroke-dashoffset:0;stroke-opacity:1;color-rendering:auto;image-rendering:auto;shape-rendering:auto;text-rendering:auto;enable-background:accumulate" />
      <rect
         inkscape:export-ydpi="3.5999999"
         inkscape:export-xdpi="3.5999999"
         style="color:#252525;clip-rule:nonzero;display:inline;overflow:visible;visibility:visible;opacity:0.98000004;isolation:auto;mix-blend-mode:normal;color-interpolation:sRGB;color-interpolation-filters:linearRGB;solid-color:#252525;solid-opacity:1;fill:#ffffff;fill-opacity:1;fill-rule:nonzero;stroke:none;stroke-width:50;stroke-linecap:square;stroke-linejoin:round;stroke-miterlimit:4;stroke-dasharray:none;stroke-dashoffset:0;stroke-opacity:1;color-rendering:auto;image-rendering:auto;shape-rendering:auto;text-rendering:auto;enable-background:accumulate"
         id="rect4229"
         width="204.60161"
         height="25.102289"
         x="264.24127"
         y="523.1369"
         ry="12.5" />
      <rect
         inkscape:export-ydpi="3.5999999"
         inkscape:export-xdpi="3.5999999"
         ry="12.5"
         y="572.85535"
         x="264.24127"
         height="25.102289"
         width="225.59384"
         id="rect4233"
         style="color:#252525;clip-rule:nonzero;display:inline;overflow:visible;visibility:visible;opacity:0.98000004;isolation:auto;mix-blend-mode:normal;color-interpolation:sRGB;color-interpolation-filters:linearRGB;solid-color:#252525;solid-opacity:1;fill:#ffffff;fill-opacity:1;fill-rule:nonzero;stroke:none;stroke-width:50;stroke-linecap:square;stroke-linejoin:round;stroke-miterlimit:4;stroke-dasharray:none;stroke-dashoffset:0;stroke-opacity:1;color-rendering:auto;image-rendering:auto;shape-rendering:auto;text-rendering:auto;enable-background:accumulate" />
    </g>
    <rect
       style="opacity:1;fill:none;fill-opacity:1;stroke:none;stroke-width:23;stroke-linecap:butt;stroke-linejoin:round;stroke-miterlimit:4;stroke-dasharray:none;stroke-opacity:1"
       id="rect4160"
       width="400"
       height="400"
       x="190.01508"
       y="322.45166" />
    <path
       sodipodi:nodetypes="csccccccccccccccsccccsccsccscscc"
       inkscape:connector-curvature="0"
       id="path4212"
       d="m 314.30341,498.019 c -2.78328,-0.003 -5.02778,2.23933 -5.03135,5.02775 l -0.0129,10.0658 c -0.003,2.78843 2.23519,5.03708 5.01848,5.04065 l 2.51117,0.003 -0.16011,117.0651 c -0.009,6.97112 12.54487,12.60034 12.54487,12.60034 l 61.61837,0.0792 -26.03845,53.04763 c -3.93764,6.81258 -1.63343,15.47379 5.16662,19.41871 l 1.97103,1.1418 c 6.80005,3.94491 15.44528,1.63646 19.38291,-5.17615 l 29.05854,-58.27869 -0.0544,50.47396 c -0.01,7.87236 6.30618,14.21652 14.16401,14.22662 l 2.27696,0.003 c 7.85782,0.01 14.19441,-6.3178 14.20297,-14.19017 l 0.0571,-52.53874 29.84886,59.9473 c 3.9202,6.8227 12.55948,9.15338 19.36959,5.22595 l 1.97136,-1.13675 c 6.81013,-3.92742 8.66304,-12.33168 5.21631,-19.40538 l -25.65038,-52.64215 60.9574,0.0783 c 0,0 11.97435,-5.62304 12.57711,-12.56806 l 10.16011,-117.0651 2.51115,0.003 c 2.78328,0.003 5.0278,-2.2393 5.03137,-5.02774 l 0.0128,-10.06579 c 0.003,-2.78842 -2.23519,-5.0371 -5.01847,-5.04067 l -253.66307,-0.3131 z"
       style="opacity:1;fill:#99b000;fill-opacity:1;stroke:#ffffff;stroke-width:50;stroke-linecap:round;stroke-linejoin:round;stroke-miterlimit:4;stroke-dasharray:none;stroke-opacity:1" />
    <path
       sodipodi:nodetypes="csccccccccccccccsccccsccsccscscc"
       style="opacity:1;fill:#99b000;fill-opacity:1;stroke:none;stroke-width:16;stroke-linecap:round;stroke-linejoin:round;stroke-miterlimit:4;stroke-dasharray:none;stroke-opacity:1"
       d="m 314.30341,498.019 c -2.78328,-0.003 -5.02778,2.23933 -5.03135,5.02775 l -0.0129,10.0658 c -0.003,2.78843 2.23519,5.03708 5.01848,5.04065 l 2.51117,0.003 -0.16011,119.0651 c -0.009,6.97112 12.54487,12.60035 12.54487,12.60035 l 61.61837,0.0792 -26.03845,51.04762 c -3.93764,6.81258 -1.63343,15.47379 5.16662,19.41871 l 1.97103,1.1418 c 6.80005,3.94491 15.44528,1.63646 19.38291,-5.17615 l 29.05854,-56.27869 -0.0544,48.47396 c -0.01,7.87236 6.30618,14.21652 14.16401,14.22662 l 2.27696,0.003 c 7.85782,0.01 14.19408,-6.3178 14.20297,-14.19017 l 0.0571,-50.53873 29.84886,57.94729 c 3.9202,6.8227 12.55948,9.15338 19.36959,5.22595 l 1.97136,-1.13675 c 6.81013,-3.92742 8.77179,-12.38571 5.21631,-19.40538 l -25.65038,-50.64215 70.9574,0.0783 c 0,0 12.56773,-5.59695 12.57711,-12.56806 l 0.16011,-119.06511 2.51115,0.003 c 2.78328,0.003 5.0278,-2.2393 5.03137,-5.02774 l 0.0128,-10.06579 c 0.003,-2.78842 -2.23519,-5.0371 -5.01847,-5.04067 l -253.66307,-0.3131 z"
       id="rect4169"
       inkscape:connector-curvature="0" />
    <g
       transform="matrix(0.38927335,0,0,0.38999239,278.56187,371.22454)"
       id="g4157"
       style="fill:#ffffff">
      <path
         sodipodi:nodetypes="ccccccccccscc"
         inkscape:connector-curvature="0"
         id="path4151"
         d="m 378.98378,365.08062 c -1.69832,0.0175 -3.35491,0.52851 -4.76798,1.47076 l -86.56597,63.71007 -56.6111,0 c -4.83568,4.8e-4 -8.75565,3.92045 -8.75613,8.75613 l 0,165.54247 c 4.8e-4,4.83568 3.92045,8.75565 8.75613,8.75613 l 56.6111,0 86.56597,63.71178 c 4.62975,3.08539 10.92548,1.12746 12.98882,-4.03945 40.57544,-101.62146 40.03077,-202.41606 -0.002,-302.40623 -1.3427,-3.35361 -4.6069,-5.53858 -8.21913,-5.50166 z"
         style="color:#252525;font-style:normal;font-variant:normal;font-weight:normal;font-stretch:normal;font-size:medium;line-height:normal;font-family:sans-serif;text-indent:0;text-align:start;text-decoration:none;text-decoration-line:none;text-decoration-style:solid;text-decoration-color:#252525;letter-spacing:normal;word-spacing:normal;text-transform:none;direction:ltr;block-progression:tb;writing-mode:lr-tb;baseline-shift:baseline;text-anchor:start;white-space:normal;clip-rule:nonzero;display:inline;overflow:visible;visibility:visible;opacity:1;isolation:auto;mix-blend-mode:normal;color-interpolation:sRGB;color-interpolation-filters:linearRGB;solid-color:#252525;solid-opacity:1;fill:#ffffff;fill-opacity:1;fill-rule:evenodd;stroke:none;stroke-width:20;stroke-linecap:butt;stroke-linejoin:round;stroke-miterlimit:4;stroke-dasharray:none;stroke-dashoffset:0;stroke-opacity:1;color-rendering:auto;image-rendering:auto;shape-rendering:auto;text-rendering:auto;enable-background:accumulate" />
      <path
         inkscape:connector-curvature="0"
         id="path4189"
         d="m 500.00756,623.60832 c 5.13527,2.40151 11.28281,2.13602 16.22108,-0.65837 45.30744,-38.63149 56.77804,-112.79193 29.30776,-166.52588 -8.35024,-12.78401 -14.70498,-29.61372 -29.15553,-35.95204 -15.79435,-7.08576 -31.31098,15.90652 -21.08561,29.98548 34.91566,34.88819 36.8194,99.43734 3.64686,135.79057 -12.9326,7.76632 -13.82965,31.35257 1.06544,37.36024 z m -48.09419,-45.17038 c 4.29907,2.00026 9.31025,2.16562 13.72251,0.50211 34.75369,-22.28306 36.60044,-82.02596 5.66051,-109.10992 -13.68216,-11.79818 -35.51404,7.09745 -27.9701,23.7379 11.18908,12.63871 17.9593,33.71857 6.2408,48.59047 -12.01449,8.20592 -11.82799,30.62033 2.34628,36.2794 z"
         style="fill:#ffffff" />
    </g>
  </g>
</svg>
