<?xml version="1.0" encoding="UTF-8" standalone="no"?>
<!-- Created with Inkscape (http://www.inkscape.org/) -->

<svg
   xmlns:dc="http://purl.org/dc/elements/1.1/"
   xmlns:cc="http://creativecommons.org/ns#"
   xmlns:rdf="http://www.w3.org/1999/02/22-rdf-syntax-ns#"
   xmlns:svg="http://www.w3.org/2000/svg"
   xmlns="http://www.w3.org/2000/svg"
   xmlns:xlink="http://www.w3.org/1999/xlink"
   xmlns:sodipodi="http://sodipodi.sourceforge.net/DTD/sodipodi-0.dtd"
   xmlns:inkscape="http://www.inkscape.org/namespaces/inkscape"
   width="210mm"
   height="297mm"
   viewBox="0 0 744.09448819 1052.3622047"
   id="svg2"
   version="1.1"
   inkscape:version="0.91 r13725"
   inkscape:export-xdpi="4"
   inkscape:export-ydpi="4"
   sodipodi:docname="media-audio-itunes-u.svg">
  <defs
     id="defs4">
    <linearGradient
       id="linearGradient2224">
      <stop
         id="stop2226"
         offset="0"
         style="stop-color:#7c7c7c;stop-opacity:1;" />
      <stop
         id="stop2228"
         offset="1"
         style="stop-color:#b8b8b8;stop-opacity:1;" />
    </linearGradient>
    <linearGradient
       id="linearGradient15218">
      <stop
         id="stop15220"
         offset="0"
         style="stop-color:#eeeeef;stop-opacity:1;" />
      <stop
         id="stop2736"
         offset="0.59928656"
         style="stop-color:#d3d7cf;stop-opacity:1;" />
      <stop
         id="stop2738"
         offset="0.82758623"
         style="stop-color:#ffffff;stop-opacity:1;" />
      <stop
         id="stop15222"
         offset="1"
         style="stop-color:#d3d7cf;stop-opacity:1;" />
    </linearGradient>
    <pattern
       y="0"
       x="0"
       height="6"
       width="6"
       patternUnits="userSpaceOnUse"
       id="EMFhbasepattern" />
    <pattern
       y="0"
       x="0"
       height="6"
       width="6"
       patternUnits="userSpaceOnUse"
       id="EMFhbasepattern-5" />
    <radialGradient
       inkscape:collect="always"
       xlink:href="#linearGradient5280"
       id="radialGradient3749"
       gradientUnits="userSpaceOnUse"
       gradientTransform="matrix(0.27732526,-0.20684543,0.23531762,0.31549898,-84.583934,472.10018)"
       cx="382.84375"
       cy="455.35938"
       fx="382.84375"
       fy="455.35938"
       r="291.9375" />
    <linearGradient
       id="linearGradient5280">
      <stop
         id="stop5282"
         offset="0"
         style="stop-color:#555753;stop-opacity:0.01129944;" />
      <stop
         style="stop-color:#555753;stop-opacity:0.22598869;"
         offset="0.00195313"
         id="stop5310" />
      <stop
         style="stop-color:#555753;stop-opacity:0.01176471;"
         offset="0.00390625"
         id="stop5306" />
      <stop
         style="stop-color:#555753;stop-opacity:0.01176471;"
         offset="0.0078125"
         id="stop5304" />
      <stop
         style="stop-color:#555753;stop-opacity:0.07344633;"
         offset="0.015625"
         id="stop5302" />
      <stop
         style="stop-color:#555753;stop-opacity:0.01568627;"
         offset="0.03125"
         id="stop5298" />
      <stop
         style="stop-color:#555753;stop-opacity:0.01129944;"
         offset="0.0625"
         id="stop5296" />
      <stop
         style="stop-color:#555753;stop-opacity:0.36723164;"
         offset="0.125"
         id="stop5294" />
      <stop
         style="stop-color:#555753;stop-opacity:0.00564972;"
         offset="0.25"
         id="stop5290" />
      <stop
         style="stop-color:#555753;stop-opacity:0.02259887;"
         offset="0.5"
         id="stop5288" />
      <stop
         id="stop5292"
         offset="0.75"
         style="stop-color:#555753;stop-opacity:0.19774012;" />
      <stop
         style="stop-color:#555753;stop-opacity:0.18079096;"
         offset="0.875"
         id="stop5300" />
      <stop
         id="stop5308"
         offset="0.9375"
         style="stop-color:#555753;stop-opacity:0.28813559;" />
      <stop
         id="stop5284"
         offset="1"
         style="stop-color:#555753;stop-opacity:0.07344633;" />
    </linearGradient>
    <linearGradient
       inkscape:collect="always"
       xlink:href="#linearGradient5348"
       id="linearGradient3751"
       gradientUnits="userSpaceOnUse"
       gradientTransform="matrix(0.28145734,-0.20992738,0.23883659,0.32021698,-87.781,472.46642)"
       x1="54.72831"
       y1="579.81854"
       x2="748.02081"
       y2="355.68408" />
    <linearGradient
       id="linearGradient5348">
      <stop
         id="stop5350"
         offset="0"
         style="stop-color:#729fcf;stop-opacity:0;" />
      <stop
         style="stop-color:#729fcf;stop-opacity:0.17514125;"
         offset="0.14182246"
         id="stop5368" />
      <stop
         style="stop-color:#729fcf;stop-opacity:0.42937854;"
         offset="0.24686332"
         id="stop5366" />
      <stop
         id="stop5394"
         offset="0.27796116"
         style="stop-color:#729fcf;stop-opacity:0.39215686;" />
      <stop
         style="stop-color:#729fcf;stop-opacity:0.39215687;"
         offset="0.38030669"
         id="stop5364" />
      <stop
         style="stop-color:#ffffff;stop-opacity:1;"
         offset="0.46561956"
         id="stop5362" />
      <stop
         id="stop3727"
         offset="0.54757094"
         style="stop-color:#b8cfe7;stop-opacity:0.62352941;" />
      <stop
         style="stop-color:#729fcf;stop-opacity:0.24858756;"
         offset="0.62952232"
         id="stop5360" />
      <stop
         style="stop-color:#729fcf;stop-opacity:0.27683616;"
         offset="0.69749689"
         id="stop5358" />
      <stop
         style="stop-color:#729fcf;stop-opacity:0.16384181;"
         offset="0.84827983"
         id="stop5356" />
      <stop
         id="stop5352"
         offset="1"
         style="stop-color:#729fcf;stop-opacity:0;" />
    </linearGradient>
    <linearGradient
       inkscape:collect="always"
       xlink:href="#linearGradient5170"
       id="linearGradient3753"
       gradientUnits="userSpaceOnUse"
       x1="486.78616"
       y1="311.95883"
       x2="190.81146"
       y2="525.16638" />
    <linearGradient
       id="linearGradient5170">
      <stop
         id="stop5172"
         offset="0"
         style="stop-color:#ffffff;stop-opacity:0.18039216;" />
      <stop
         style="stop-color:#ffffff;stop-opacity:1;"
         offset="0.51451057"
         id="stop5178" />
      <stop
         id="stop5174"
         offset="1"
         style="stop-color:#ffffff;stop-opacity:0;" />
    </linearGradient>
    <linearGradient
       inkscape:collect="always"
       xlink:href="#linearGradient5210"
       id="linearGradient3755"
       gradientUnits="userSpaceOnUse"
       x1="353.63306"
       y1="403.9296"
       x2="405.62701"
       y2="455.44739" />
    <linearGradient
       id="linearGradient5210">
      <stop
         id="stop5212"
         offset="0"
         style="stop-color:#ffffff;stop-opacity:0.63973064" />
      <stop
         id="stop5214"
         offset="1"
         style="stop-color:#ffffff;stop-opacity:0;" />
    </linearGradient>
    <linearGradient
       inkscape:collect="always"
       xlink:href="#linearGradient3871"
       id="linearGradient3757"
       gradientUnits="userSpaceOnUse"
       x1="313.77914"
       y1="375.51971"
       x2="467.50302"
       y2="556.33704"
       gradientTransform="matrix(0.28145734,-0.20992738,0.23883659,0.32021698,-87.854376,472.20275)" />
    <linearGradient
       id="linearGradient3871"
       inkscape:collect="always">
      <stop
         id="stop3873"
         offset="0"
         style="stop-color:#babdb6;stop-opacity:1;" />
      <stop
         id="stop3875"
         offset="1"
         style="stop-color:#babdb6;stop-opacity:0;" />
    </linearGradient>
    <radialGradient
       inkscape:collect="always"
       xlink:href="#linearGradient5210"
       id="radialGradient3759"
       gradientUnits="userSpaceOnUse"
       gradientTransform="matrix(0.08005672,0.00733998,-0.00587393,0.06406659,37.858912,528.38693)"
       cx="880.13934"
       cy="838.99133"
       fx="880.13934"
       fy="838.99133"
       r="365.07971" />
    <radialGradient
       inkscape:collect="always"
       xlink:href="#linearGradient5210"
       id="radialGradient3761"
       gradientUnits="userSpaceOnUse"
       gradientTransform="matrix(0.08005672,0.00733998,-0.00587393,0.06406659,37.858912,528.38693)"
       cx="1989.9366"
       cy="503.58002"
       fx="1989.9366"
       fy="503.58002"
       r="365.07971" />
    <linearGradient
       inkscape:collect="always"
       xlink:href="#linearGradient5210"
       id="linearGradient3763"
       gradientUnits="userSpaceOnUse"
       x1="1151.2692"
       y1="166.46587"
       x2="1415.8524"
       y2="463.56967"
       gradientTransform="matrix(0.21304305,0,0,0.21304305,-91.089472,403.35069)" />
    <radialGradient
       inkscape:collect="always"
       xlink:href="#linearGradient5280"
       id="radialGradient4300"
       gradientUnits="userSpaceOnUse"
       gradientTransform="matrix(0.27732526,-0.20684543,0.23531762,0.31549898,-84.583934,472.10018)"
       cx="382.84375"
       cy="455.35938"
       fx="382.84375"
       fy="455.35938"
       r="291.9375" />
    <linearGradient
       inkscape:collect="always"
       xlink:href="#linearGradient5348"
       id="linearGradient4302"
       gradientUnits="userSpaceOnUse"
       gradientTransform="matrix(0.28145734,-0.20992738,0.23883659,0.32021698,-87.781,472.46642)"
       x1="54.72831"
       y1="579.81854"
       x2="748.02081"
       y2="355.68408" />
    <linearGradient
       inkscape:collect="always"
       xlink:href="#linearGradient5170"
       id="linearGradient4304"
       gradientUnits="userSpaceOnUse"
       x1="486.78616"
       y1="311.95883"
       x2="190.81146"
       y2="525.16638" />
    <linearGradient
       inkscape:collect="always"
       xlink:href="#linearGradient5210"
       id="linearGradient4306"
       gradientUnits="userSpaceOnUse"
       x1="353.63306"
       y1="403.9296"
       x2="405.62701"
       y2="455.44739" />
    <linearGradient
       inkscape:collect="always"
       xlink:href="#linearGradient3871"
       id="linearGradient4308"
       gradientUnits="userSpaceOnUse"
       gradientTransform="matrix(0.28145734,-0.20992738,0.23883659,0.32021698,-87.854376,472.20275)"
       x1="313.77914"
       y1="375.51971"
       x2="467.50302"
       y2="556.33704" />
    <radialGradient
       inkscape:collect="always"
       xlink:href="#linearGradient5210"
       id="radialGradient4310"
       gradientUnits="userSpaceOnUse"
       gradientTransform="matrix(0.08005672,0.00733998,-0.00587393,0.06406659,37.858912,528.38693)"
       cx="880.13934"
       cy="838.99133"
       fx="880.13934"
       fy="838.99133"
       r="365.07971" />
    <radialGradient
       inkscape:collect="always"
       xlink:href="#linearGradient5210"
       id="radialGradient4312"
       gradientUnits="userSpaceOnUse"
       gradientTransform="matrix(0.08005672,0.00733998,-0.00587393,0.06406659,37.858912,528.38693)"
       cx="1989.9366"
       cy="503.58002"
       fx="1989.9366"
       fy="503.58002"
       r="365.07971" />
    <linearGradient
       inkscape:collect="always"
       xlink:href="#linearGradient5210"
       id="linearGradient4314"
       gradientUnits="userSpaceOnUse"
       gradientTransform="matrix(0.21304305,0,0,0.21304305,-91.089472,403.35069)"
       x1="1151.2692"
       y1="166.46587"
       x2="1415.8524"
       y2="463.56967" />
    <linearGradient
       inkscape:collect="always"
       xlink:href="#linearGradient4195"
       id="linearGradient4201"
       x1="286.38269"
       y1="672.9209"
       x2="532.51678"
       y2="367.74933"
       gradientUnits="userSpaceOnUse"
       gradientTransform="matrix(1.1363532,0,0,1.1363532,-54.279977,-53.288255)" />
    <linearGradient
       inkscape:collect="always"
       id="linearGradient4195">
      <stop
         style="stop-color:#4e505d;stop-opacity:1"
         offset="0"
         id="stop4197" />
      <stop
         style="stop-color:#7a8597;stop-opacity:1"
         offset="1"
         id="stop4199" />
    </linearGradient>
  </defs>
  <sodipodi:namedview
     id="base"
     pagecolor="#ffffff"
     bordercolor="#666666"
     borderopacity="1.0"
     inkscape:pageopacity="0.0"
     inkscape:pageshadow="2"
     inkscape:zoom="0.70710678"
     inkscape:cx="678.07321"
     inkscape:cy="530.76048"
     inkscape:document-units="px"
     inkscape:current-layer="layer1"
     showgrid="false"
     showguides="true"
     inkscape:guide-bbox="true"
     inkscape:window-width="1366"
     inkscape:window-height="721"
     inkscape:window-x="-4"
     inkscape:window-y="-4"
     inkscape:window-maximized="1">
    <sodipodi:guide
       position="560,730.00002"
       orientation="0,1"
       id="guide3338" />
    <sodipodi:guide
       position="560,330.00001"
       orientation="0,1"
       id="guide3340" />
    <sodipodi:guide
       position="190,475.00001"
       orientation="1,0"
       id="guide3344" />
    <sodipodi:guide
       position="590,451.00001"
       orientation="1,0"
       id="guide3346" />
    <inkscape:grid
       type="xygrid"
       id="grid3440" />
  </sodipodi:namedview>
  <metadata
     id="metadata7">
    <rdf:RDF>
      <cc:Work
         rdf:about="">
        <dc:format>image/svg+xml</dc:format>
        <dc:type
           rdf:resource="http://purl.org/dc/dcmitype/StillImage" />
        <dc:title>media audio itunes u</dc:title>
        <dc:date>June 2015</dc:date>
        <dc:creator>
          <cc:Agent>
            <dc:title>Franziska Sponsel, Johannes Hechler</dc:title>
          </cc:Agent>
        </dc:creator>
        <dc:rights>
          <cc:Agent>
            <dc:title>Franziska Sponsel, Johannes Hechler</dc:title>
          </cc:Agent>
        </dc:rights>
        <dc:publisher>
          <cc:Agent>
            <dc:title>RRZE</dc:title>
          </cc:Agent>
        </dc:publisher>
        <dc:contributor>
          <cc:Agent>
            <dc:title>Ute Weber, Hendrik Eggers</dc:title>
          </cc:Agent>
        </dc:contributor>
      </cc:Work>
    </rdf:RDF>
  </metadata>
  <g
     inkscape:label="Ebene 1"
     inkscape:groupmode="layer"
     id="layer1">
    <g
       id="g4205"
       transform="translate(-2.4994164,0.18181472)">
      <path
         inkscape:export-ydpi="3.5999999"
         inkscape:export-xdpi="3.5999999"
         inkscape:export-filename="C:\Users\johannes\Desktop\rect3336.png"
         id="path4244"
         d="m 252.56142,322.19017 c -11.3891,-0.0191 -17.07143,5.61131 -17.02343,16.83203 -0.048,93.32377 -0.048,252.41136 -0.0176,366.06836 -0.0303,11.34185 5.68557,17.09626 16.97851,17.01953 l 278.38282,0.0703 c 11.42287,-0.0653 17.10688,-5.74774 17.18164,-17.20703 l 0.002,-258.72461 c -26.82812,1.08573 -128.93361,3.83993 -131.58008,1.65039 -2.64647,-2.18954 0.32422,-125.68555 0.32422,-125.68555 0,0 -139.18086,-0.026 -164.24805,-0.0234 z m 189.35938,0.0176 c -0.90129,34.04077 -0.93996,67.56399 0,100.5 31.76562,2.32449 68.87262,1.25036 106.25586,0 -26.33709,-42.58131 -62.99667,-74.8408 -106.25586,-100.5 z"
         style="fill:url(#linearGradient4201);fill-opacity:1;fill-rule:evenodd;stroke:none;stroke-width:1px;stroke-linecap:butt;stroke-linejoin:miter;stroke-opacity:1"
         inkscape:connector-curvature="0" />
      <rect
         inkscape:export-ydpi="3.5999999"
         inkscape:export-xdpi="3.5999999"
         inkscape:export-filename="C:\Users\johannes\Desktop\rect3336.png"
         ry="12.5"
         y="472.74625"
         x="264.24127"
         height="25.102289"
         width="248.79578"
         id="rect4227"
         style="color:#000000;clip-rule:nonzero;display:inline;overflow:visible;visibility:visible;opacity:0.98000004;isolation:auto;mix-blend-mode:normal;color-interpolation:sRGB;color-interpolation-filters:linearRGB;solid-color:#000000;solid-opacity:1;fill:#ffffff;fill-opacity:1;fill-rule:nonzero;stroke:none;stroke-width:50;stroke-linecap:square;stroke-linejoin:round;stroke-miterlimit:4;stroke-dasharray:none;stroke-dashoffset:0;stroke-opacity:1;color-rendering:auto;image-rendering:auto;shape-rendering:auto;text-rendering:auto;enable-background:accumulate" />
      <rect
         inkscape:export-ydpi="3.5999999"
         inkscape:export-xdpi="3.5999999"
         inkscape:export-filename="C:\Users\johannes\Desktop\rect3336.png"
         style="color:#000000;clip-rule:nonzero;display:inline;overflow:visible;visibility:visible;opacity:0.98000004;isolation:auto;mix-blend-mode:normal;color-interpolation:sRGB;color-interpolation-filters:linearRGB;solid-color:#000000;solid-opacity:1;fill:#ffffff;fill-opacity:1;fill-rule:nonzero;stroke:none;stroke-width:50;stroke-linecap:square;stroke-linejoin:round;stroke-miterlimit:4;stroke-dasharray:none;stroke-dashoffset:0;stroke-opacity:1;color-rendering:auto;image-rendering:auto;shape-rendering:auto;text-rendering:auto;enable-background:accumulate"
         id="rect4229"
         width="204.60161"
         height="25.102289"
         x="264.24127"
         y="523.1369"
         ry="12.5" />
      <rect
         inkscape:export-ydpi="3.5999999"
         inkscape:export-xdpi="3.5999999"
         inkscape:export-filename="C:\Users\johannes\Desktop\rect3336.png"
         ry="12.5"
         y="572.85535"
         x="264.24127"
         height="25.102289"
         width="225.59384"
         id="rect4233"
         style="color:#000000;clip-rule:nonzero;display:inline;overflow:visible;visibility:visible;opacity:0.98000004;isolation:auto;mix-blend-mode:normal;color-interpolation:sRGB;color-interpolation-filters:linearRGB;solid-color:#000000;solid-opacity:1;fill:#ffffff;fill-opacity:1;fill-rule:nonzero;stroke:none;stroke-width:50;stroke-linecap:square;stroke-linejoin:round;stroke-miterlimit:4;stroke-dasharray:none;stroke-dashoffset:0;stroke-opacity:1;color-rendering:auto;image-rendering:auto;shape-rendering:auto;text-rendering:auto;enable-background:accumulate" />
    </g>
    <rect
       style="opacity:1;fill:none;fill-opacity:1;stroke:none;stroke-width:23;stroke-linecap:butt;stroke-linejoin:round;stroke-miterlimit:4;stroke-dasharray:none;stroke-opacity:1"
       id="rect4160"
       width="400"
       height="400"
       x="190"
       y="322.36221" />
    <path
       style="fill:#ffffff;fill-opacity:1;stroke:none"
       d="m 272.39789,579.67056 c 63.0978,0 126.19557,0 189.29336,0 4.7721,-2e-5 4.7721,23.87229 0,23.8723 -63.09779,0 -126.19556,0 -189.29336,0 -6.3628,-10e-6 -6.3628,-23.87232 0,-23.8723 z"
       id="rect4248-1-5"
       inkscape:connector-curvature="0"
       sodipodi:nodetypes="ccccc"
       inkscape:transform-center-x="11.294007"
       inkscape:transform-center-y="-32.829958"
       inkscape:export-xdpi="4.9499998"
       inkscape:export-ydpi="4.9499998" />
    <g
       style="font-style:normal;font-weight:normal;font-size:medium;font-family:Forte;-inkscape-font-specification:Forte;fill:#2e3436;fill-opacity:1;stroke:#ffffff;stroke-width:16.68236923;stroke-linejoin:round;stroke-miterlimit:4;stroke-dasharray:none"
       id="g4767"
       transform="matrix(1.7983058,0,0,1.7983058,3193.027,1008.1099)">
      <g
         transform="matrix(0.62857168,0,0,0.62857168,-1682.9432,-604.49977)"
         id="g4769"
         style="stroke:#ffffff;stroke-width:26.54012108;stroke-linejoin:round;stroke-miterlimit:4;stroke-dasharray:none">
        <path
           style="fill:#babdb6;fill-opacity:1;stroke:#ffffff;stroke-width:26.54012108;stroke-linejoin:round;stroke-miterlimit:4;stroke-dasharray:none"
           d="m 111.04672,516.70538 c -10.36027,7.95275 -10.7357,26.53841 -0.28941,37.2929 8.29589,9.06844 22.36191,12.27205 31.499,6.04197 8.74969,-5.46552 12.76068,-17.59581 8.52994,-28.53248 -3.41104,-9.80898 -12.53789,-17.94057 -22.3877,-19.18816 -6.33028,-0.98242 -12.70087,0.48937 -17.35183,4.38577 z m 2.13223,1.43815 c 7.88371,-6.152 20.60341,-4.66285 28.64283,3.29602 8.22237,7.6614 10.77134,20.65301 5.77511,29.44848 -4.55278,8.72834 -15.67316,12.41721 -25.45664,8.41015 -10.34501,-3.83454 -17.89748,-15.6645 -16.80288,-26.42626 0.44803,-5.98184 3.32341,-11.39431 7.84158,-14.72839 z"
           id="path4771"
           inkscape:connector-curvature="0" />
        <path
           style="fill:#eeeeec;fill-rule:evenodd;stroke:#ffffff;stroke-width:50;stroke-linecap:butt;stroke-linejoin:round;stroke-miterlimit:4;stroke-dasharray:none;stroke-opacity:1"
           d="M 58.934664,444.16883 C 13.555087,478.01558 7.9842689,547.30903 46.492068,598.93785 84.999868,650.56667 152.99833,664.97226 198.37791,631.12551 243.75749,597.27877 249.33577,527.99532 210.82797,476.3665 172.32017,424.73768 104.31424,410.32208 58.934664,444.16883 Z m 50.443576,67.77837 c 3.20301,-2.45677 7.03093,-4.06379 11.08175,-4.76136 8.82071,-1.50493 18.7374,1.58293 26.078,8.2238 7.79119,6.98839 12.48157,17.66657 11.89468,27.60162 -0.41636,8.42593 -4.41847,16.14033 -10.77818,20.73149 -6.60384,4.79044 -15.6653,6.05241 -24.08104,3.44645 -9.88561,-2.87759 -18.63411,-11.40425 -22.40357,-21.42986 -4.94314,-12.44058 -1.396392,-26.82092 8.20836,-33.81214 z"
           id="path4773"
           inkscape:connector-curvature="0" />
        <path
           id="path4775"
           style="fill:#888a85;fill-opacity:1;stroke:#ffffff;stroke-width:26.54012108;stroke-linejoin:round;stroke-miterlimit:4;stroke-dasharray:none"
           d="m 99.038993,498.83852 c -17.340475,12.62122 -20.465803,41.11769 -7.069343,61.43069 11.99669,18.58492 35.91644,28.70907 54.6588,22.37142 18.30936,-5.81102 30.20456,-25.88436 26.60797,-46.65638 -2.87792,-18.64192 -17.06342,-36.628 -34.90309,-42.41795 -13.65822,-4.78334 -28.80661,-3.10873 -39.294337,5.27222 z m 59.053107,16.84361 c 13.80416,18.50774 11.80721,43.3472 -4.46033,55.48048 -16.26753,12.13327 -40.64545,6.96575 -54.449608,-11.54199 -13.804158,-18.50774 -11.8072,-43.3472 4.460328,-55.48048 16.26754,-12.13328 40.64546,-6.96575 54.44961,11.54199 z"
           inkscape:connector-curvature="0" />
        <path
           style="fill:#babdb6;fill-opacity:1;stroke:#ffffff;stroke-width:26.54012108;stroke-linejoin:round;stroke-miterlimit:4;stroke-dasharray:none"
           d="m 103.45112,504.60131 c -16.159693,11.65203 -17.607198,39.37185 -2.90221,56.63635 12.64834,15.41232 35.44019,21.21834 50.35012,11.54131 14.45419,-8.69105 20.63502,-29.31017 12.77875,-46.86255 -6.63866,-16.29852 -23.64684,-28.69403 -39.96545,-28.02961 -7.4336,0.0229 -14.64987,2.23768 -20.26121,6.7145 z m 3.75632,4.57191 c 12.4022,-9.79578 33.46994,-6.31309 44.85216,7.65018 10.47531,12.12736 12.74192,30.88327 4.2993,42.61987 -7.56441,11.39113 -23.42733,15.8024 -36.95786,9.55863 -13.17206,-5.55887 -23.529479,-19.95268 -23.626161,-34.23146 -0.33733,-10.21719 3.77892,-20.00115 11.432561,-25.59722 z"
           id="path4777"
           inkscape:connector-curvature="0" />
        <path
           style="fill:#ffffff;fill-opacity:1;stroke:#ffffff;stroke-width:26.54012108;stroke-linejoin:round;stroke-miterlimit:4;stroke-dasharray:none"
           d="m 58.11473,447.62333 c -34.16912,26.48808 -44.187031,79.97709 -25.036642,124.52186 12.545194,29.88363 38.261837,54.12507 67.100692,66.10092 27.44236,11.66425 58.21384,12.40188 82.59077,-0.15241 32.44855,-16.28973 53.65746,-52.46669 51.76026,-91.97216 -1.98333,-43.14556 -30.77144,-87.48639 -70.32285,-106.52512 -35.59982,-17.30359 -77.74229,-14.83895 -105.832926,7.82574 l -0.2593,0.20118 z m 5.400321,2.67409 c 29.429522,-22.53308 74.193429,-22.75478 109.034109,-0.48459 32.00405,19.90964 55.06721,57.28668 56.65554,94.11209 2.20342,34.52068 -13.13459,67.71884 -40.34949,84.47438 -25.43633,16.26401 -59.97938,18.31865 -90.208759,4.24022 C 68.977095,619.33928 43.877496,591.80938 33.857643,560.12536 23.414905,528.60627 27.293398,493.99177 44.830739,469.64073 50.04826,462.21756 56.332244,455.6935 63.515051,450.29742 Z"
           id="path4779"
           inkscape:connector-curvature="0" />
        <path
           style="fill:url(#radialGradient4300);fill-opacity:1;fill-rule:evenodd;stroke:#ffffff;stroke-width:26.54012108;stroke-linejoin:round;stroke-miterlimit:4;stroke-dasharray:none"
           d="m 59.49102,445.88745 c -21.474374,16.26748 -34.766946,42.9126 -36.051412,71.74769 -1.616383,29.19534 9.143396,60.3878 29.034212,84.15941 20.048665,24.49309 49.40543,40.66372 78.52211,43.58641 28.50787,3.20502 56.5011,-6.38983 75.66153,-25.71027 20.59246,-20.3175 30.54736,-51.4243 26.76667,-82.81937 -3.4577,-31.87009 -21.33379,-63.42816 -47.08978,-83.89101 -25.7059,-20.63923 -58.58318,-29.66043 -87.942737,-24.23569 -14.321916,2.59037 -27.619532,8.48544 -38.900593,17.16283 z m 49.33996,65.05073 c 9.28407,-7.57897 23.85287,-7.22154 34.6973,0.5647 11.67707,8.02811 18.01064,24.02545 14.31213,36.71565 -2.78183,10.89431 -12.17415,18.87969 -23.3305,19.46598 -11.20597,0.99983 -23.37626,-5.52678 -30.01718,-16.00804 -6.830734,-10.15438 -7.574927,-23.53608 -2.18284,-33.05565 1.64913,-2.99612 3.84561,-5.63102 6.52109,-7.68264 z"
           id="path4781"
           inkscape:connector-curvature="0" />
        <path
           style="fill:url(#linearGradient4302);fill-opacity:1;fill-rule:evenodd;stroke:#ffffff;stroke-width:26.54012108;stroke-linejoin:round;stroke-miterlimit:4;stroke-dasharray:none"
           d="m 60.313375,447.48554 c -34.144021,25.18326 -45.98107,76.97008 -27.901307,121.17041 15.877483,39.44255 53.725082,71.11158 93.464992,76.87909 35.53594,5.32478 71.22217,-8.73854 90.56165,-37.17777 19.87187,-28.90788 22.84095,-70.75891 6.34142,-106.44101 -15.58515,-33.81334 -47.14671,-61.33312 -81.4962,-69.58303 -28.8493,-6.91612 -59.099792,-1.88201 -80.970555,15.15231 z m 48.154855,63.64534 c 13.771,-10.7355 38.00803,-3.58994 47.10861,14.02191 8.98136,16.58311 2.14104,38.54925 -14.1024,43.57317 -15.09481,5.17653 -35.30338,-5.28759 -41.24968,-22.21497 -4.736953,-12.9375 -1.662383,-27.91149 8.24347,-35.38011 z"
           id="path4783"
           inkscape:connector-curvature="0" />
        <g
           style="stroke:#ffffff;stroke-width:70.86422729;stroke-linejoin:round;stroke-miterlimit:4;stroke-dasharray:none"
           id="g4785"
           transform="matrix(0.28145734,-0.20992738,0.23883659,0.32021698,-87.854376,472.20275)">
          <path
             style="fill:#babdb6;fill-opacity:1;stroke:#ffffff;stroke-width:70.86422729;stroke-linejoin:round;stroke-miterlimit:4;stroke-dasharray:none"
             d="m 381.59375,341.3125 c -64.91948,-1.22597 -121.73753,62.87758 -112.625,127.1875 6.55314,55.15572 57.51766,102.60147 113.8125,101.15625 C 438.166,569.95387 491.05386,524.98081 496.20183,469.23629 502.65462,417.93722 470.30367,363.49878 420.5,347.75 c -12.45056,-4.40762 -25.65657,-6.83773 -38.90625,-6.4375 z m 2,34.59375 c 44.88497,-0.46683 85.35035,44.53352 77.78125,89.34375 -4.62356,42.03719 -47.73346,76.50074 -89.99228,68.46972 -36.4494,-4.92345 -67.80538,-37.97906 -67.78897,-75.50097 -1.49025,-33.54864 20.53696,-66.97693 52.6875,-77.5 8.72966,-3.17489 18.01913,-4.71559 27.3125,-4.8125 z"
             id="path4787"
             inkscape:connector-curvature="0" />
          <path
             id="path4789"
             d="m 381.59375,341.3125 c -64.91948,-1.22597 -121.73753,62.87758 -112.625,127.1875 6.55314,55.15572 57.51766,102.60147 113.8125,101.15625 C 438.166,569.95387 491.05386,524.98081 496.20183,469.23629 502.65462,417.93722 470.30367,363.49878 420.5,347.75 c -12.45056,-4.40762 -25.65657,-6.83773 -38.90625,-6.4375 z m 2,34.59375 c 44.88497,-0.46683 85.35035,44.53352 77.78125,89.34375 -4.62356,42.03719 -47.73346,76.50074 -89.99228,68.46972 -36.4494,-4.92345 -67.80538,-37.97906 -67.78897,-75.50097 -1.49025,-33.54864 20.53696,-66.97693 52.6875,-77.5 8.72966,-3.17489 18.01913,-4.71559 27.3125,-4.8125 z"
             style="fill:url(#linearGradient4304);fill-opacity:1;stroke:#ffffff;stroke-width:70.86422729;stroke-linejoin:round;stroke-miterlimit:4;stroke-dasharray:none"
             inkscape:connector-curvature="0" />
        </g>
        <g
           style="stroke:#ffffff;stroke-width:78.15706635;stroke-linejoin:round;stroke-miterlimit:4;stroke-dasharray:none"
           id="g4791"
           transform="matrix(0.25519455,-0.19033905,0.21655074,0.29033753,-67.654612,478.31559)">
          <path
             id="path4793"
             d="m 381.81408,369.03316 c -50.1739,-0.29054 -93.32024,50.38205 -84.642,99.92613 7.36226,46.03235 56.80695,81.61651 102.87492,71.06825 44.98219,-9.00878 78.53606,-58.16862 66.89174,-103.35224 -8.7952,-38.16996 -45.31064,-68.80457 -85.12466,-67.64214 z m 0.6477,17.39091 c 43.77257,-1.78195 80.38905,47.59223 66.42225,88.73572 -11.29693,40.08615 -63.82974,62.00958 -99.61718,40.57878 -36.87856,-19.31013 -47.63934,-75.88847 -17.79489,-105.85712 12.86545,-14.445 31.73574,-23.24138 50.98982,-23.45738 z"
             style="fill:#eeeeec;fill-opacity:1;stroke:#ffffff;stroke-width:78.15706635;stroke-linejoin:round;stroke-miterlimit:4;stroke-dasharray:none"
             inkscape:connector-curvature="0" />
          <path
             style="fill:url(#linearGradient4306);fill-opacity:1;stroke:#ffffff;stroke-width:78.15706635;stroke-linejoin:round;stroke-miterlimit:4;stroke-dasharray:none"
             d="m 381.81408,369.03316 c -50.1739,-0.29054 -93.32024,50.38205 -84.642,99.92613 7.36226,46.03235 56.80695,81.61651 102.87492,71.06825 44.98219,-9.00878 78.53606,-58.16862 66.89174,-103.35224 -8.7952,-38.16996 -45.31064,-68.80457 -85.12466,-67.64214 z m 0.6477,17.39091 c 43.77257,-1.78195 80.38905,47.59223 66.42225,88.73572 -11.29693,40.08615 -63.82974,62.00958 -99.61718,40.57878 -36.87856,-19.31013 -47.63934,-75.88847 -17.79489,-105.85712 12.86545,-14.445 31.73574,-23.24138 50.98982,-23.45738 z"
             id="path4795"
             inkscape:connector-curvature="0" />
        </g>
        <path
           d="m 99.038993,498.83852 c -17.340475,12.62122 -20.465803,41.11769 -7.069343,61.43069 11.99669,18.58492 35.91644,28.70907 54.6588,22.37142 18.30936,-5.81102 30.20456,-25.88436 26.60797,-46.65638 -2.87792,-18.64192 -17.06342,-36.628 -34.90309,-42.41795 -13.65822,-4.78334 -28.80661,-3.10873 -39.294337,5.27222 z m 59.053107,16.84361 c 13.80416,18.50774 11.80721,43.3472 -4.46033,55.48048 -16.26753,12.13327 -40.64545,6.96575 -54.449608,-11.54199 -13.804158,-18.50774 -11.8072,-43.3472 4.460328,-55.48048 16.26754,-12.13328 40.64546,-6.96575 54.44961,11.54199 z"
           style="fill:#888a85;fill-opacity:1;stroke:#ffffff;stroke-width:26.54012108;stroke-linejoin:round;stroke-miterlimit:4;stroke-dasharray:none"
           id="path4797"
           inkscape:connector-curvature="0" />
        <path
           id="path4799"
           style="fill:url(#linearGradient4308);fill-opacity:1;stroke:#ffffff;stroke-width:26.54012108;stroke-linejoin:round;stroke-miterlimit:4;stroke-dasharray:none"
           d="m 99.038993,498.83852 c -17.340475,12.62122 -20.465803,41.11769 -7.069343,61.43069 11.99669,18.58492 35.91644,28.70907 54.6588,22.37142 18.30936,-5.81102 30.20456,-25.88436 26.60797,-46.65638 -2.87792,-18.64192 -17.06342,-36.628 -34.90309,-42.41795 -13.65822,-4.78334 -28.80661,-3.10873 -39.294337,5.27222 z m 59.053107,16.84361 c 13.80416,18.50774 11.80721,43.3472 -4.46033,55.48048 -16.26753,12.13327 -40.64545,6.96575 -54.449608,-11.54199 -13.804158,-18.50774 -11.8072,-43.3472 4.460328,-55.48048 16.26754,-12.13328 40.64546,-6.96575 54.44961,11.54199 z"
           inkscape:connector-curvature="0" />
        <path
           inkscape:connector-curvature="0"
           id="path4801"
           d="m 233.34181,451.02573 -102.56026,14.91301 0,0.20639 -0.20638,0 0,107.5601 c -5.92843,-4.4904 -14.15027,-7.27675 -23.24167,-7.27675 -18.065956,0 -32.715423,10.98378 -32.715423,24.53324 0,13.54947 14.649467,24.53324 32.715423,24.53324 18.06597,0 32.70875,-10.98377 32.70875,-24.53324 0,-1.35406 -0.15141,-2.68017 -0.43273,-3.97458 l 0,-86.56872 84.70459,-13.83448 0,73.48654 c -5.9284,-4.49041 -14.15027,-7.27675 -23.24167,-7.27675 -18.06596,0 -32.71542,10.98377 -32.71542,24.53324 0,13.54946 14.64946,24.53323 32.71542,24.53323 18.06597,0 32.70875,-10.98377 32.70875,-24.53323 0,-1.35406 -0.1514,-2.68017 -0.43273,-3.97459 l 0,-120.84201 -0.007,0 0,-1.48464 z"
           style="fill:#3465a4;fill-rule:evenodd;stroke:#ffffff;stroke-width:50;stroke-linecap:butt;stroke-linejoin:round;stroke-miterlimit:4;stroke-dasharray:none;stroke-opacity:1" />
        <path
           inkscape:connector-curvature="0"
           id="path4803"
           d="m 133.61768,468.52189 c -0.13108,37.20917 -0.0244,74.41861 -0.0599,111.6279 -12.23432,-12.89712 -34.352005,-14.35497 -48.393991,-3.55522 -5.03585,4.06201 -8.66869,10.6578 -7.297493,17.21295 1.393899,7.26211 7.44933,12.75097 14.048214,15.52916 11.57707,5.11803 25.8622,4.10728 36.35712,-3.10243 5.29955,-3.75504 9.48623,-10.08945 8.67485,-16.83706 -0.65285,-5.82911 -0.18833,-11.69324 -0.31956,-17.54277 0,-24.65085 0,-49.30171 0,-73.95256 30.2222,-4.94419 60.44427,-9.88927 90.6698,-14.81316 0,27.80878 -2e-5,55.61756 0,83.42633 -12.25441,-12.91895 -34.41711,-14.35526 -48.46065,-3.50855 -4.91411,4.01548 -8.53135,10.47426 -7.27009,16.95689 1.27583,7.07478 6.97835,12.56516 13.36845,15.39902 11.68326,5.50988 26.36704,4.58958 37.07614,-2.7629 5.29955,-3.75503 9.48623,-10.08945 8.67485,-16.83706 -0.65284,-5.82911 -0.18833,-11.69324 -0.31956,-17.54276 -0.002,-34.58177 0.004,-69.16354 -0.007,-103.74531 -32.24718,4.68251 -64.49435,9.36502 -96.74153,14.04753 z"
           style="opacity:0.47464647;fill:none;stroke:#ffffff;stroke-width:50;stroke-linecap:butt;stroke-linejoin:round;stroke-miterlimit:4;stroke-dasharray:none;stroke-opacity:1" />
        <path
           inkscape:connector-curvature="0"
           style="opacity:0.61279464;fill:url(#radialGradient4310);fill-opacity:1;stroke:#ffffff;stroke-width:26.54012108;stroke-linejoin:round;stroke-miterlimit:4;stroke-dasharray:none"
           d="m 133.61768,468.52189 c -0.13108,37.20917 -0.0244,74.41861 -0.0599,111.6279 -12.23432,-12.89712 -34.352005,-14.35497 -48.393991,-3.55522 -5.03585,4.06201 -8.66869,10.6578 -7.297493,17.21295 1.393899,7.26211 7.44933,12.75097 14.048214,15.52916 11.57707,5.11803 25.8622,4.10728 36.35712,-3.10243 5.29955,-3.75504 9.48623,-10.08945 8.67485,-16.83706 -0.65285,-5.82911 -0.18833,-11.69324 -0.31956,-17.54277 0,-24.65085 0,-49.30171 0,-73.95256 30.2222,-4.94419 60.44427,-9.88927 90.6698,-14.81316 0,27.80878 -2e-5,55.61756 0,83.42633 -12.25441,-12.91895 -34.41711,-14.35526 -48.46065,-3.50855 -4.91411,4.01548 -8.53135,10.47426 -7.27009,16.95689 1.27583,7.07478 6.97835,12.56516 13.36845,15.39902 11.68326,5.50988 26.36704,4.58958 37.07614,-2.7629 5.29955,-3.75503 9.48623,-10.08945 8.67485,-16.83706 -0.65284,-5.82911 -0.18833,-11.69324 -0.31956,-17.54276 -0.002,-34.58177 0.004,-69.16354 -0.007,-103.74531 -32.24718,4.68251 -64.49435,9.36502 -96.74153,14.04753 z"
           id="path4805" />
        <path
           inkscape:connector-curvature="0"
           id="path4807"
           d="m 133.61768,468.52189 c -0.13108,37.20917 -0.0244,74.41861 -0.0599,111.6279 -12.23432,-12.89712 -34.352005,-14.35497 -48.393991,-3.55522 -5.03585,4.06201 -8.66869,10.6578 -7.297493,17.21295 1.393899,7.26211 7.44933,12.75097 14.048214,15.52916 11.57707,5.11803 25.8622,4.10728 36.35712,-3.10243 5.29955,-3.75504 9.48623,-10.08945 8.67485,-16.83706 -0.65285,-5.82911 -0.18833,-11.69324 -0.31956,-17.54277 0,-24.65085 0,-49.30171 0,-73.95256 30.2222,-4.94419 60.44427,-9.88927 90.6698,-14.81316 0,27.80878 -2e-5,55.61756 0,83.42633 -12.25441,-12.91895 -34.41711,-14.35526 -48.46065,-3.50855 -4.91411,4.01548 -8.53135,10.47426 -7.27009,16.95689 1.27583,7.07478 6.97835,12.56516 13.36845,15.39902 11.68326,5.50988 26.36704,4.58958 37.07614,-2.7629 5.29955,-3.75503 9.48623,-10.08945 8.67485,-16.83706 -0.65284,-5.82911 -0.18833,-11.69324 -0.31956,-17.54276 -0.002,-34.58177 0.004,-69.16354 -0.007,-103.74531 -32.24718,4.68251 -64.49435,9.36502 -96.74153,14.04753 z"
           style="opacity:0.61279464;fill:url(#radialGradient4312);fill-opacity:1;stroke:#ffffff;stroke-width:26.54012108;stroke-linejoin:round;stroke-miterlimit:4;stroke-dasharray:none" />
        <path
           inkscape:connector-curvature="0"
           id="path4809"
           d="m 230.7187,453.56227 c -32.64738,4.7677 -65.30093,9.493 -97.95319,14.22728 -0.0211,10.53674 -0.0719,21.07349 -0.0399,31.61026 32.83095,-5.36517 65.66197,-10.72999 98.49246,-16.09806 -0.003,-9.93757 0.009,-19.87516 -0.0132,-29.81271 -0.162,0.0244 -0.324,0.0488 -0.48602,0.0732 z m -30.17222,101.33526 c -10.11036,0.0666 -20.6923,4.05409 -26.80229,12.34904 -4.82148,6.56076 -4.13222,16.56978 1.7376,22.27708 6.4838,7.23517 16.49569,10.22862 25.99675,10.25273 10.06816,-0.0875 20.47823,-4.0781 26.7702,-12.1368 3.18934,-4.44824 3.88192,-10.23408 3.18898,-15.57211 -0.25915,-3.89643 -3.65179,-6.44391 -6.36295,-8.80994 -6.8402,-5.57339 -15.71074,-8.49361 -24.52829,-8.36 z m -94.03187,13.64141 c -10.136716,0.12752 -20.721833,4.19358 -26.716927,12.63612 -4.362348,6.24587 -3.972187,15.51194 1.258289,21.17781 5.462887,6.74739 14.14118,10.05565 22.582558,10.87185 11.05569,1.09698 22.95919,-2.61265 30.27209,-11.18476 3.61623,-4.42057 4.54934,-10.50514 3.78816,-16.04481 -0.0721,-3.92447 -3.45413,-6.59858 -6.17158,-8.96112 -6.94382,-5.74005 -16.0175,-8.655 -25.01259,-8.49509 z"
           style="opacity:0.61279464;fill:url(#linearGradient4314);fill-opacity:1;stroke:#ffffff;stroke-width:26.54012108;stroke-linejoin:round;stroke-miterlimit:4;stroke-dasharray:none" />
      </g>
      <path
         inkscape:connector-curvature="0"
         d="m -1544.891,-197.99112 -1.1953,0.98438 c -0.2344,0.14064 -1.8047,1.33595 -4.7109,3.58593 -5.6251,4.40627 -10.2657,7.88673 -13.9219,10.44141 -3.6563,2.55469 -6.7032,4.42969 -9.1406,5.625 -2.4376,1.19531 -4.4063,1.79297 -5.9063,1.79297 -2.5313,0 -4.5586,-1.04297 -6.082,-3.12891 -1.5235,-2.08593 -2.2852,-4.79296 -2.2852,-8.12109 0,-5.62499 0.8438,-12.17576 2.5313,-19.65235 1.6875,-7.47652 3.9609,-14.84761 6.8203,-22.11328 3.1406,-8.06244 6.9843,-12.98431 11.5312,-14.76562 1.5938,-0.70306 3.4688,-1.05462 5.625,-1.05469 2.9531,7e-5 5.3437,0.91413 7.1719,2.74219 1.8281,1.82819 2.7422,4.24225 2.7422,7.24219 0,2.06255 -0.3516,4.24224 -1.0547,6.53906 -0.7032,2.29692 -1.8282,5.03911 -3.375,8.22656 l -0.8437,2.03906 c -4.0313,8.53129 -6.0469,13.71097 -6.0469,15.53907 0,1.07815 0.375,1.61721 1.125,1.61718 0.7031,3e-5 1.6171,-0.49216 2.7422,-1.47656 1.1249,-0.98435 2.8593,-2.78903 5.2031,-5.41406 1.4531,-1.78122 3.5156,-4.00778 6.1875,-6.67969 l 2.6016,-2.60156 2.25,-2.39063 c 4.7343,-4.68745 8.6015,-8.07416 11.6015,-10.16015 3,-2.08589 5.4843,-3.12885 7.4531,-3.12891 3.75,6e-5 5.625,3.25787 5.625,9.77344 0,1.35942 -0.1641,3.77348 -0.4921,7.24219 -0.5626,6.75003 -0.8439,12.46877 -0.8438,17.15625 0.047,0.93752 0.082,1.79298 0.1055,2.5664 0.023,0.77346 0.035,1.76955 0.035,2.98828 0.3281,3.14064 0.5625,5.5547 0.7032,7.24219 0.328,2.67188 0.4921,4.00782 0.4921,4.00781 0,1.40626 -1.2657,2.64844 -3.7968,3.72657 -2.5313,1.07812 -5.461,1.61718 -8.7891,1.61718 -3.0469,0 -5.6602,-0.59765 -7.8398,-1.79297 -2.1798,-1.19531 -3.8321,-2.96483 -4.9571,-5.30859 -1.125,-2.34374 -1.6875,-5.20311 -1.6875,-8.57812 0,-0.42186 0.047,-1.16014 0.1407,-2.21485 0.094,-1.05467 0.1874,-2.42576 0.2812,-4.11328 z"
         id="path4811"
         style="fill:#2e3436;stroke:#ffffff;stroke-width:16.68236923;stroke-linejoin:round;stroke-miterlimit:4;stroke-dasharray:none" />
    </g>
    <g
       style="font-style:normal;font-weight:normal;font-size:medium;font-family:Forte;-inkscape-font-specification:Forte;fill:#2e3436;fill-opacity:1;stroke:none"
       id="g4743"
       transform="matrix(1.7983058,0,0,1.7983058,3193.027,1008.1099)">
      <g
         id="g4453"
         transform="matrix(0.62857168,0,0,0.62857168,-1682.9432,-604.49977)">
        <path
           inkscape:connector-curvature="0"
           id="path5074"
           d="m 111.04672,516.70538 c -10.36027,7.95275 -10.7357,26.53841 -0.28941,37.2929 8.29589,9.06844 22.36191,12.27205 31.499,6.04197 8.74969,-5.46552 12.76068,-17.59581 8.52994,-28.53248 -3.41104,-9.80898 -12.53789,-17.94057 -22.3877,-19.18816 -6.33028,-0.98242 -12.70087,0.48937 -17.35183,4.38577 z m 2.13223,1.43815 c 7.88371,-6.152 20.60341,-4.66285 28.64283,3.29602 8.22237,7.6614 10.77134,20.65301 5.77511,29.44848 -4.55278,8.72834 -15.67316,12.41721 -25.45664,8.41015 -10.34501,-3.83454 -17.89748,-15.6645 -16.80288,-26.42626 0.44803,-5.98184 3.32341,-11.39431 7.84158,-14.72839 z"
           style="fill:#babdb6;fill-opacity:1;stroke:none" />
        <path
           inkscape:connector-curvature="0"
           id="path4911"
           d="M 58.934664,444.16883 C 13.555087,478.01558 7.9842689,547.30903 46.492068,598.93785 84.999868,650.56667 152.99833,664.97226 198.37791,631.12551 243.75749,597.27877 249.33577,527.99532 210.82797,476.3665 172.32017,424.73768 104.31424,410.32208 58.934664,444.16883 Z m 50.443576,67.77837 c 3.20301,-2.45677 7.03093,-4.06379 11.08175,-4.76136 8.82071,-1.50493 18.7374,1.58293 26.078,8.2238 7.79119,6.98839 12.48157,17.66657 11.89468,27.60162 -0.41636,8.42593 -4.41847,16.14033 -10.77818,20.73149 -6.60384,4.79044 -15.6653,6.05241 -24.08104,3.44645 -9.88561,-2.87759 -18.63411,-11.40425 -22.40357,-21.42986 -4.94314,-12.44058 -1.396392,-26.82092 8.20836,-33.81214 z"
           style="fill:#eeeeec;fill-rule:evenodd;stroke:none;stroke-width:15.93797112;stroke-linecap:butt;stroke-linejoin:miter;stroke-miterlimit:4;stroke-dasharray:none;stroke-opacity:1" />
        <path
           inkscape:connector-curvature="0"
           d="m 99.038993,498.83852 c -17.340475,12.62122 -20.465803,41.11769 -7.069343,61.43069 11.99669,18.58492 35.91644,28.70907 54.6588,22.37142 18.30936,-5.81102 30.20456,-25.88436 26.60797,-46.65638 -2.87792,-18.64192 -17.06342,-36.628 -34.90309,-42.41795 -13.65822,-4.78334 -28.80661,-3.10873 -39.294337,5.27222 z m 59.053107,16.84361 c 13.80416,18.50774 11.80721,43.3472 -4.46033,55.48048 -16.26753,12.13327 -40.64545,6.96575 -54.449608,-11.54199 -13.804158,-18.50774 -11.8072,-43.3472 4.460328,-55.48048 16.26754,-12.13328 40.64546,-6.96575 54.44961,11.54199 z"
           style="fill:#888a85;fill-opacity:1;stroke:none"
           id="path4952" />
        <path
           inkscape:connector-curvature="0"
           id="path5126"
           d="m 103.45112,504.60131 c -16.159693,11.65203 -17.607198,39.37185 -2.90221,56.63635 12.64834,15.41232 35.44019,21.21834 50.35012,11.54131 14.45419,-8.69105 20.63502,-29.31017 12.77875,-46.86255 -6.63866,-16.29852 -23.64684,-28.69403 -39.96545,-28.02961 -7.4336,0.0229 -14.64987,2.23768 -20.26121,6.7145 z m 3.75632,4.57191 c 12.4022,-9.79578 33.46994,-6.31309 44.85216,7.65018 10.47531,12.12736 12.74192,30.88327 4.2993,42.61987 -7.56441,11.39113 -23.42733,15.8024 -36.95786,9.55863 -13.17206,-5.55887 -23.529479,-19.95268 -23.626161,-34.23146 -0.33733,-10.21719 3.77892,-20.00115 11.432561,-25.59722 z"
           style="fill:#babdb6;fill-opacity:1;stroke:none" />
        <path
           inkscape:connector-curvature="0"
           id="path5144"
           d="m 58.11473,447.62333 c -34.16912,26.48808 -44.187031,79.97709 -25.036642,124.52186 12.545194,29.88363 38.261837,54.12507 67.100692,66.10092 27.44236,11.66425 58.21384,12.40188 82.59077,-0.15241 32.44855,-16.28973 53.65746,-52.46669 51.76026,-91.97216 -1.98333,-43.14556 -30.77144,-87.48639 -70.32285,-106.52512 -35.59982,-17.30359 -77.74229,-14.83895 -105.832926,7.82574 l -0.2593,0.20118 z m 5.400321,2.67409 c 29.429522,-22.53308 74.193429,-22.75478 109.034109,-0.48459 32.00405,19.90964 55.06721,57.28668 56.65554,94.11209 2.20342,34.52068 -13.13459,67.71884 -40.34949,84.47438 -25.43633,16.26401 -59.97938,18.31865 -90.208759,4.24022 C 68.977095,619.33928 43.877496,591.80938 33.857643,560.12536 23.414905,528.60627 27.293398,493.99177 44.830739,469.64073 50.04826,462.21756 56.332244,455.6935 63.515051,450.29742 Z"
           style="fill:#ffffff;fill-opacity:1;stroke:none" />
        <path
           inkscape:connector-curvature="0"
           id="path5270"
           d="m 59.49102,445.88745 c -21.474374,16.26748 -34.766946,42.9126 -36.051412,71.74769 -1.616383,29.19534 9.143396,60.3878 29.034212,84.15941 20.048665,24.49309 49.40543,40.66372 78.52211,43.58641 28.50787,3.20502 56.5011,-6.38983 75.66153,-25.71027 20.59246,-20.3175 30.54736,-51.4243 26.76667,-82.81937 -3.4577,-31.87009 -21.33379,-63.42816 -47.08978,-83.89101 -25.7059,-20.63923 -58.58318,-29.66043 -87.942737,-24.23569 -14.321916,2.59037 -27.619532,8.48544 -38.900593,17.16283 z m 49.33996,65.05073 c 9.28407,-7.57897 23.85287,-7.22154 34.6973,0.5647 11.67707,8.02811 18.01064,24.02545 14.31213,36.71565 -2.78183,10.89431 -12.17415,18.87969 -23.3305,19.46598 -11.20597,0.99983 -23.37626,-5.52678 -30.01718,-16.00804 -6.830734,-10.15438 -7.574927,-23.53608 -2.18284,-33.05565 1.64913,-2.99612 3.84561,-5.63102 6.52109,-7.68264 z"
           style="fill:url(#radialGradient3749);fill-opacity:1;fill-rule:evenodd;stroke:none" />
        <path
           inkscape:connector-curvature="0"
           id="path3723"
           d="m 60.313375,447.48554 c -34.144021,25.18326 -45.98107,76.97008 -27.901307,121.17041 15.877483,39.44255 53.725082,71.11158 93.464992,76.87909 35.53594,5.32478 71.22217,-8.73854 90.56165,-37.17777 19.87187,-28.90788 22.84095,-70.75891 6.34142,-106.44101 -15.58515,-33.81334 -47.14671,-61.33312 -81.4962,-69.58303 -28.8493,-6.91612 -59.099792,-1.88201 -80.970555,15.15231 z m 48.154855,63.64534 c 13.771,-10.7355 38.00803,-3.58994 47.10861,14.02191 8.98136,16.58311 2.14104,38.54925 -14.1024,43.57317 -15.09481,5.17653 -35.30338,-5.28759 -41.24968,-22.21497 -4.736953,-12.9375 -1.662383,-27.91149 8.24347,-35.38011 z"
           style="fill:url(#linearGradient3751);fill-opacity:1;fill-rule:evenodd;stroke:none" />
        <g
           transform="matrix(0.28145734,-0.20992738,0.23883659,0.32021698,-87.854376,472.20275)"
           id="g5262">
          <path
             inkscape:connector-curvature="0"
             id="path5252"
             d="m 381.59375,341.3125 c -64.91948,-1.22597 -121.73753,62.87758 -112.625,127.1875 6.55314,55.15572 57.51766,102.60147 113.8125,101.15625 C 438.166,569.95387 491.05386,524.98081 496.20183,469.23629 502.65462,417.93722 470.30367,363.49878 420.5,347.75 c -12.45056,-4.40762 -25.65657,-6.83773 -38.90625,-6.4375 z m 2,34.59375 c 44.88497,-0.46683 85.35035,44.53352 77.78125,89.34375 -4.62356,42.03719 -47.73346,76.50074 -89.99228,68.46972 -36.4494,-4.92345 -67.80538,-37.97906 -67.78897,-75.50097 -1.49025,-33.54864 20.53696,-66.97693 52.6875,-77.5 8.72966,-3.17489 18.01913,-4.71559 27.3125,-4.8125 z"
             style="fill:#babdb6;fill-opacity:1;stroke:none" />
          <path
             inkscape:connector-curvature="0"
             style="fill:url(#linearGradient3753);fill-opacity:1;stroke:none"
             d="m 381.59375,341.3125 c -64.91948,-1.22597 -121.73753,62.87758 -112.625,127.1875 6.55314,55.15572 57.51766,102.60147 113.8125,101.15625 C 438.166,569.95387 491.05386,524.98081 496.20183,469.23629 502.65462,417.93722 470.30367,363.49878 420.5,347.75 c -12.45056,-4.40762 -25.65657,-6.83773 -38.90625,-6.4375 z m 2,34.59375 c 44.88497,-0.46683 85.35035,44.53352 77.78125,89.34375 -4.62356,42.03719 -47.73346,76.50074 -89.99228,68.46972 -36.4494,-4.92345 -67.80538,-37.97906 -67.78897,-75.50097 -1.49025,-33.54864 20.53696,-66.97693 52.6875,-77.5 8.72966,-3.17489 18.01913,-4.71559 27.3125,-4.8125 z"
             id="path5168" />
        </g>
        <g
           transform="matrix(0.25519455,-0.19033905,0.21655074,0.29033753,-67.654612,478.31559)"
           id="g5218">
          <path
             inkscape:connector-curvature="0"
             style="fill:#eeeeec;fill-opacity:1;stroke:none"
             d="m 381.81408,369.03316 c -50.1739,-0.29054 -93.32024,50.38205 -84.642,99.92613 7.36226,46.03235 56.80695,81.61651 102.87492,71.06825 44.98219,-9.00878 78.53606,-58.16862 66.89174,-103.35224 -8.7952,-38.16996 -45.31064,-68.80457 -85.12466,-67.64214 z m 0.6477,17.39091 c 43.77257,-1.78195 80.38905,47.59223 66.42225,88.73572 -11.29693,40.08615 -63.82974,62.00958 -99.61718,40.57878 -36.87856,-19.31013 -47.63934,-75.88847 -17.79489,-105.85712 12.86545,-14.445 31.73574,-23.24138 50.98982,-23.45738 z"
             id="path5064" />
          <path
             inkscape:connector-curvature="0"
             id="path5208"
             d="m 381.81408,369.03316 c -50.1739,-0.29054 -93.32024,50.38205 -84.642,99.92613 7.36226,46.03235 56.80695,81.61651 102.87492,71.06825 44.98219,-9.00878 78.53606,-58.16862 66.89174,-103.35224 -8.7952,-38.16996 -45.31064,-68.80457 -85.12466,-67.64214 z m 0.6477,17.39091 c 43.77257,-1.78195 80.38905,47.59223 66.42225,88.73572 -11.29693,40.08615 -63.82974,62.00958 -99.61718,40.57878 -36.87856,-19.31013 -47.63934,-75.88847 -17.79489,-105.85712 12.86545,-14.445 31.73574,-23.24138 50.98982,-23.45738 z"
             style="fill:url(#linearGradient3755);fill-opacity:1;stroke:none" />
        </g>
        <path
           inkscape:connector-curvature="0"
           id="path5180"
           style="fill:#888a85;fill-opacity:1;stroke:none"
           d="m 99.038993,498.83852 c -17.340475,12.62122 -20.465803,41.11769 -7.069343,61.43069 11.99669,18.58492 35.91644,28.70907 54.6588,22.37142 18.30936,-5.81102 30.20456,-25.88436 26.60797,-46.65638 -2.87792,-18.64192 -17.06342,-36.628 -34.90309,-42.41795 -13.65822,-4.78334 -28.80661,-3.10873 -39.294337,5.27222 z m 59.053107,16.84361 c 13.80416,18.50774 11.80721,43.3472 -4.46033,55.48048 -16.26753,12.13327 -40.64545,6.96575 -54.449608,-11.54199 -13.804158,-18.50774 -11.8072,-43.3472 4.460328,-55.48048 16.26754,-12.13328 40.64546,-6.96575 54.44961,11.54199 z" />
        <path
           inkscape:connector-curvature="0"
           d="m 99.038993,498.83852 c -17.340475,12.62122 -20.465803,41.11769 -7.069343,61.43069 11.99669,18.58492 35.91644,28.70907 54.6588,22.37142 18.30936,-5.81102 30.20456,-25.88436 26.60797,-46.65638 -2.87792,-18.64192 -17.06342,-36.628 -34.90309,-42.41795 -13.65822,-4.78334 -28.80661,-3.10873 -39.294337,5.27222 z m 59.053107,16.84361 c 13.80416,18.50774 11.80721,43.3472 -4.46033,55.48048 -16.26753,12.13327 -40.64545,6.96575 -54.449608,-11.54199 -13.804158,-18.50774 -11.8072,-43.3472 4.460328,-55.48048 16.26754,-12.13328 40.64546,-6.96575 54.44961,11.54199 z"
           style="fill:url(#linearGradient3757);fill-opacity:1;stroke:none"
           id="path3869" />
        <path
           style="fill:#3465a4;fill-rule:evenodd;stroke:none;stroke-width:9.066185;stroke-linecap:butt;stroke-linejoin:miter;stroke-miterlimit:4;stroke-dasharray:none;stroke-opacity:1"
           d="m 233.34181,451.02573 -102.56026,14.91301 0,0.20639 -0.20638,0 0,107.5601 c -5.92843,-4.4904 -14.15027,-7.27675 -23.24167,-7.27675 -18.065956,0 -32.715423,10.98378 -32.715423,24.53324 0,13.54947 14.649467,24.53324 32.715423,24.53324 18.06597,0 32.70875,-10.98377 32.70875,-24.53324 0,-1.35406 -0.15141,-2.68017 -0.43273,-3.97458 l 0,-86.56872 84.70459,-13.83448 0,73.48654 c -5.9284,-4.49041 -14.15027,-7.27675 -23.24167,-7.27675 -18.06596,0 -32.71542,10.98377 -32.71542,24.53324 0,13.54946 14.64946,24.53323 32.71542,24.53323 18.06597,0 32.70875,-10.98377 32.70875,-24.53323 0,-1.35406 -0.1514,-2.68017 -0.43273,-3.97459 l 0,-120.84201 -0.007,0 0,-1.48464 z"
           id="path3945"
           inkscape:connector-curvature="0" />
        <path
           style="opacity:0.47464647;fill:none;stroke:#ffffff;stroke-width:50;stroke-linecap:butt;stroke-linejoin:miter;stroke-miterlimit:4;stroke-dasharray:none;stroke-opacity:1"
           d="m 133.61768,468.52189 c -0.13108,37.20917 -0.0244,74.41861 -0.0599,111.6279 -12.23432,-12.89712 -34.352005,-14.35497 -48.393991,-3.55522 -5.03585,4.06201 -8.66869,10.6578 -7.297493,17.21295 1.393899,7.26211 7.44933,12.75097 14.048214,15.52916 11.57707,5.11803 25.8622,4.10728 36.35712,-3.10243 5.29955,-3.75504 9.48623,-10.08945 8.67485,-16.83706 -0.65285,-5.82911 -0.18833,-11.69324 -0.31956,-17.54277 0,-24.65085 0,-49.30171 0,-73.95256 30.2222,-4.94419 60.44427,-9.88927 90.6698,-14.81316 0,27.80878 -2e-5,55.61756 0,83.42633 -12.25441,-12.91895 -34.41711,-14.35526 -48.46065,-3.50855 -4.91411,4.01548 -8.53135,10.47426 -7.27009,16.95689 1.27583,7.07478 6.97835,12.56516 13.36845,15.39902 11.68326,5.50988 26.36704,4.58958 37.07614,-2.7629 5.29955,-3.75503 9.48623,-10.08945 8.67485,-16.83706 -0.65284,-5.82911 -0.18833,-11.69324 -0.31956,-17.54276 -0.002,-34.58177 0.004,-69.16354 -0.007,-103.74531 -32.24718,4.68251 -64.49435,9.36502 -96.74153,14.04753 z"
           id="path3958"
           inkscape:connector-curvature="0" />
        <path
           id="path3974"
           d="m 133.61768,468.52189 c -0.13108,37.20917 -0.0244,74.41861 -0.0599,111.6279 -12.23432,-12.89712 -34.352005,-14.35497 -48.393991,-3.55522 -5.03585,4.06201 -8.66869,10.6578 -7.297493,17.21295 1.393899,7.26211 7.44933,12.75097 14.048214,15.52916 11.57707,5.11803 25.8622,4.10728 36.35712,-3.10243 5.29955,-3.75504 9.48623,-10.08945 8.67485,-16.83706 -0.65285,-5.82911 -0.18833,-11.69324 -0.31956,-17.54277 0,-24.65085 0,-49.30171 0,-73.95256 30.2222,-4.94419 60.44427,-9.88927 90.6698,-14.81316 0,27.80878 -2e-5,55.61756 0,83.42633 -12.25441,-12.91895 -34.41711,-14.35526 -48.46065,-3.50855 -4.91411,4.01548 -8.53135,10.47426 -7.27009,16.95689 1.27583,7.07478 6.97835,12.56516 13.36845,15.39902 11.68326,5.50988 26.36704,4.58958 37.07614,-2.7629 5.29955,-3.75503 9.48623,-10.08945 8.67485,-16.83706 -0.65284,-5.82911 -0.18833,-11.69324 -0.31956,-17.54276 -0.002,-34.58177 0.004,-69.16354 -0.007,-103.74531 -32.24718,4.68251 -64.49435,9.36502 -96.74153,14.04753 z"
           style="opacity:0.61279464;fill:url(#radialGradient3759);fill-opacity:1;stroke:none"
           inkscape:connector-curvature="0" />
        <path
           style="opacity:0.61279464;fill:url(#radialGradient3761);fill-opacity:1;stroke:none"
           d="m 133.61768,468.52189 c -0.13108,37.20917 -0.0244,74.41861 -0.0599,111.6279 -12.23432,-12.89712 -34.352005,-14.35497 -48.393991,-3.55522 -5.03585,4.06201 -8.66869,10.6578 -7.297493,17.21295 1.393899,7.26211 7.44933,12.75097 14.048214,15.52916 11.57707,5.11803 25.8622,4.10728 36.35712,-3.10243 5.29955,-3.75504 9.48623,-10.08945 8.67485,-16.83706 -0.65285,-5.82911 -0.18833,-11.69324 -0.31956,-17.54277 0,-24.65085 0,-49.30171 0,-73.95256 30.2222,-4.94419 60.44427,-9.88927 90.6698,-14.81316 0,27.80878 -2e-5,55.61756 0,83.42633 -12.25441,-12.91895 -34.41711,-14.35526 -48.46065,-3.50855 -4.91411,4.01548 -8.53135,10.47426 -7.27009,16.95689 1.27583,7.07478 6.97835,12.56516 13.36845,15.39902 11.68326,5.50988 26.36704,4.58958 37.07614,-2.7629 5.29955,-3.75503 9.48623,-10.08945 8.67485,-16.83706 -0.65284,-5.82911 -0.18833,-11.69324 -0.31956,-17.54276 -0.002,-34.58177 0.004,-69.16354 -0.007,-103.74531 -32.24718,4.68251 -64.49435,9.36502 -96.74153,14.04753 z"
           id="path3994"
           inkscape:connector-curvature="0" />
        <path
           style="opacity:0.61279464;fill:url(#linearGradient3763);fill-opacity:1;stroke:none"
           d="m 230.7187,453.56227 c -32.64738,4.7677 -65.30093,9.493 -97.95319,14.22728 -0.0211,10.53674 -0.0719,21.07349 -0.0399,31.61026 32.83095,-5.36517 65.66197,-10.72999 98.49246,-16.09806 -0.003,-9.93757 0.009,-19.87516 -0.0132,-29.81271 -0.162,0.0244 -0.324,0.0488 -0.48602,0.0732 z m -30.17222,101.33526 c -10.11036,0.0666 -20.6923,4.05409 -26.80229,12.34904 -4.82148,6.56076 -4.13222,16.56978 1.7376,22.27708 6.4838,7.23517 16.49569,10.22862 25.99675,10.25273 10.06816,-0.0875 20.47823,-4.0781 26.7702,-12.1368 3.18934,-4.44824 3.88192,-10.23408 3.18898,-15.57211 -0.25915,-3.89643 -3.65179,-6.44391 -6.36295,-8.80994 -6.8402,-5.57339 -15.71074,-8.49361 -24.52829,-8.36 z m -94.03187,13.64141 c -10.136716,0.12752 -20.721833,4.19358 -26.716927,12.63612 -4.362348,6.24587 -3.972187,15.51194 1.258289,21.17781 5.462887,6.74739 14.14118,10.05565 22.582558,10.87185 11.05569,1.09698 22.95919,-2.61265 30.27209,-11.18476 3.61623,-4.42057 4.54934,-10.50514 3.78816,-16.04481 -0.0721,-3.92447 -3.45413,-6.59858 -6.17158,-8.96112 -6.94382,-5.74005 -16.0175,-8.655 -25.01259,-8.49509 z"
           id="path4010"
           inkscape:connector-curvature="0" />
      </g>
      <path
         style="fill:#2e3436"
         id="path3909"
         d="m -1544.891,-197.99112 -1.1953,0.98438 c -0.2344,0.14064 -1.8047,1.33595 -4.7109,3.58593 -5.6251,4.40627 -10.2657,7.88673 -13.9219,10.44141 -3.6563,2.55469 -6.7032,4.42969 -9.1406,5.625 -2.4376,1.19531 -4.4063,1.79297 -5.9063,1.79297 -2.5313,0 -4.5586,-1.04297 -6.082,-3.12891 -1.5235,-2.08593 -2.2852,-4.79296 -2.2852,-8.12109 0,-5.62499 0.8438,-12.17576 2.5313,-19.65235 1.6875,-7.47652 3.9609,-14.84761 6.8203,-22.11328 3.1406,-8.06244 6.9843,-12.98431 11.5312,-14.76562 1.5938,-0.70306 3.4688,-1.05462 5.625,-1.05469 2.9531,7e-5 5.3437,0.91413 7.1719,2.74219 1.8281,1.82819 2.7422,4.24225 2.7422,7.24219 0,2.06255 -0.3516,4.24224 -1.0547,6.53906 -0.7032,2.29692 -1.8282,5.03911 -3.375,8.22656 l -0.8437,2.03906 c -4.0313,8.53129 -6.0469,13.71097 -6.0469,15.53907 0,1.07815 0.375,1.61721 1.125,1.61718 0.7031,3e-5 1.6171,-0.49216 2.7422,-1.47656 1.1249,-0.98435 2.8593,-2.78903 5.2031,-5.41406 1.4531,-1.78122 3.5156,-4.00778 6.1875,-6.67969 l 2.6016,-2.60156 2.25,-2.39063 c 4.7343,-4.68745 8.6015,-8.07416 11.6015,-10.16015 3,-2.08589 5.4843,-3.12885 7.4531,-3.12891 3.75,6e-5 5.625,3.25787 5.625,9.77344 0,1.35942 -0.1641,3.77348 -0.4921,7.24219 -0.5626,6.75003 -0.8439,12.46877 -0.8438,17.15625 0.047,0.93752 0.082,1.79298 0.1055,2.5664 0.023,0.77346 0.035,1.76955 0.035,2.98828 0.3281,3.14064 0.5625,5.5547 0.7032,7.24219 0.328,2.67188 0.4921,4.00782 0.4921,4.00781 0,1.40626 -1.2657,2.64844 -3.7968,3.72657 -2.5313,1.07812 -5.461,1.61718 -8.7891,1.61718 -3.0469,0 -5.6602,-0.59765 -7.8398,-1.79297 -2.1798,-1.19531 -3.8321,-2.96483 -4.9571,-5.30859 -1.125,-2.34374 -1.6875,-5.20311 -1.6875,-8.57812 0,-0.42186 0.047,-1.16014 0.1407,-2.21485 0.094,-1.05467 0.1874,-2.42576 0.2812,-4.11328 z"
         inkscape:connector-curvature="0" />
    </g>
  </g>
</svg>
