<?xml version="1.0" encoding="UTF-8" standalone="no"?>
<!-- Created with Inkscape (http://www.inkscape.org/) -->

<svg
   xmlns:dc="http://purl.org/dc/elements/1.1/"
   xmlns:cc="http://creativecommons.org/ns#"
   xmlns:rdf="http://www.w3.org/1999/02/22-rdf-syntax-ns#"
   xmlns:svg="http://www.w3.org/2000/svg"
   xmlns="http://www.w3.org/2000/svg"
   xmlns:xlink="http://www.w3.org/1999/xlink"
   xmlns:sodipodi="http://sodipodi.sourceforge.net/DTD/sodipodi-0.dtd"
   xmlns:inkscape="http://www.inkscape.org/namespaces/inkscape"
   width="210mm"
   height="297mm"
   viewBox="0 0 744.09448819 1052.3622047"
   id="svg2"
   version="1.1"
   inkscape:version="0.91 r13725"
   inkscape:export-xdpi="3.5999997"
   inkscape:export-ydpi="3.5999997"
   sodipodi:docname="office-ms-word.svg"
   inkscape:export-filename="C:\Users\johannes\Documents\Arbeit\RRZE\github3\bicons\16x16\mime-types\office-ms-word.png">
  <defs
     id="defs4">
    <linearGradient
       id="linearGradient2224">
      <stop
         id="stop2226"
         offset="0"
         style="stop-color:#7c7c7c;stop-opacity:1;" />
      <stop
         id="stop2228"
         offset="1"
         style="stop-color:#b8b8b8;stop-opacity:1;" />
    </linearGradient>
    <linearGradient
       id="linearGradient15218">
      <stop
         id="stop15220"
         offset="0"
         style="stop-color:#eeeeef;stop-opacity:1;" />
      <stop
         id="stop2736"
         offset="0.59928656"
         style="stop-color:#d3d7cf;stop-opacity:1;" />
      <stop
         id="stop2738"
         offset="0.82758623"
         style="stop-color:#ffffff;stop-opacity:1;" />
      <stop
         id="stop15222"
         offset="1"
         style="stop-color:#d3d7cf;stop-opacity:1;" />
    </linearGradient>
    <pattern
       y="0"
       x="0"
       height="6"
       width="6"
       patternUnits="userSpaceOnUse"
       id="EMFhbasepattern" />
    <pattern
       y="0"
       x="0"
       height="6"
       width="6"
       patternUnits="userSpaceOnUse"
       id="EMFhbasepattern-5" />
    <linearGradient
       id="linearGradient3672">
      <stop
         id="stop3674"
         offset="0"
         style="stop-color:#3465a4;stop-opacity:1;" />
      <stop
         id="stop3676"
         offset="1"
         style="stop-color:#729fcf;stop-opacity:1;" />
    </linearGradient>
    <linearGradient
       inkscape:collect="always"
       xlink:href="#linearGradient4195"
       id="linearGradient4201"
       x1="286.38269"
       y1="672.9209"
       x2="532.51678"
       y2="367.74933"
       gradientUnits="userSpaceOnUse"
       gradientTransform="matrix(1.0952361,0,0,1.1383616,-37.994156,-54.334632)" />
    <linearGradient
       inkscape:collect="always"
       id="linearGradient4195">
      <stop
         style="stop-color:#4e505d;stop-opacity:1"
         offset="0"
         id="stop4197" />
      <stop
         style="stop-color:#7a8597;stop-opacity:1"
         offset="1"
         id="stop4199" />
    </linearGradient>
  </defs>
  <sodipodi:namedview
     id="base"
     pagecolor="#ffffff"
     bordercolor="#666666"
     borderopacity="1.0"
     inkscape:pageopacity="0.0"
     inkscape:pageshadow="2"
     inkscape:zoom="1"
     inkscape:cx="405.79705"
     inkscape:cy="497.35537"
     inkscape:document-units="px"
     inkscape:current-layer="layer1"
     showgrid="false"
     showguides="true"
     inkscape:guide-bbox="true"
     inkscape:window-width="1366"
     inkscape:window-height="721"
     inkscape:window-x="-4"
     inkscape:window-y="-4"
     inkscape:window-maximized="1"
     inkscape:snap-bbox="true"
     inkscape:bbox-paths="true"
     inkscape:bbox-nodes="true">
    <sodipodi:guide
       position="560,730.00002"
       orientation="0,1"
       id="guide3338" />
    <sodipodi:guide
       position="560,330.00001"
       orientation="0,1"
       id="guide3340" />
    <sodipodi:guide
       position="190,475.00001"
       orientation="1,0"
       id="guide3344" />
    <sodipodi:guide
       position="590,451.00001"
       orientation="1,0"
       id="guide3346" />
    <inkscape:grid
       type="xygrid"
       id="grid3440" />
  </sodipodi:namedview>
  <metadata
     id="metadata7">
    <rdf:RDF>
      <cc:Work
         rdf:about="">
        <dc:format>image/svg+xml</dc:format>
        <dc:type
           rdf:resource="http://purl.org/dc/dcmitype/StillImage" />
        <dc:title>office ms word</dc:title>
        <dc:date>June 2015</dc:date>
        <dc:creator>
          <cc:Agent>
            <dc:title>Franziska Sponsel, Johannes Hechler</dc:title>
          </cc:Agent>
        </dc:creator>
        <dc:rights>
          <cc:Agent>
            <dc:title>Franziska Sponsel, Johannes Hechler</dc:title>
          </cc:Agent>
        </dc:rights>
        <dc:publisher>
          <cc:Agent>
            <dc:title>RRZE</dc:title>
          </cc:Agent>
        </dc:publisher>
        <dc:contributor>
          <cc:Agent>
            <dc:title>Ute Weber, Hendrik Eggers</dc:title>
          </cc:Agent>
        </dc:contributor>
      </cc:Work>
    </rdf:RDF>
  </metadata>
  <g
     inkscape:label="Ebene 1"
     inkscape:groupmode="layer"
     id="layer1">
    <g
       id="g4189">
      <path
         id="path4244"
         d="m 257.74414,321.80664 c -10.977,-0.0191 -16.45251,5.62273 -16.40625,16.86328 -0.0463,93.48871 -0.0469,252.85697 -0.0176,366.71485 -0.0292,11.3619 5.47895,17.12569 16.36328,17.04882 l 76.30079,0.0195 a 25.002502,25.002502 0 0 1 -0.004,-0.0918 l 0,-149.10938 3.22851,0.12891 a 25.002502,25.002502 0 0 1 -24,-25.08789 l 0.11133,-25.47656 a 25.002502,25.002502 0 0 1 24.98242,-24.89063 l 70.17774,-0.0527 a 25.002502,25.002502 0 0 1 14.95898,4.99609 25.002502,25.002502 0 0 1 15.36719,-5.26953 l 50.60352,0.12305 a 25.002502,25.002502 0 0 1 16.52539,6.33593 25.002502,25.002502 0 0 1 16.69922,-6.45898 l 19.92187,-0.0234 0,-51.49023 c -25.85738,1.08765 -124.2696,3.84575 -126.82031,1.65234 -2.55071,-2.19341 0.3125,-125.9082 0.3125,-125.9082 0,0 -134.14451,-0.026 -158.30469,-0.0234 z m 182.50781,0.0176 c -0.86868,34.10094 -0.90595,67.68351 0,100.67773 30.61623,2.3286 66.38152,1.25257 102.41211,0 -25.38413,-42.65654 -60.71818,-74.97318 -102.41211,-100.67773 z m -48.59375,201.61523 -6.73828,0.37696 0.72656,0.73828 a 25.002502,25.002502 0 0 1 6.01172,-1.11524 z m -31.67578,0.81446 a 25.002502,25.002502 0 0 1 1.92969,0.18359 l 0.10351,-0.10352 -2.0332,-0.0801 z m 94.57617,23.38281 -38.08007,80.53711 a 25.002502,25.002502 0 0 1 -32.49805,12.22851 l 0,53.06446 32.05469,-44.07422 a 25.002502,25.002502 0 0 1 44.91601,10.83008 l 5.82617,37.13867 9.34375,0 35.32032,-74.33594 -1.67579,2.3418 a 25.002502,25.002502 0 0 1 -45.33593,-14.51758 l -0.0566,-63.1875 -9.81446,-0.0254 z m 87.9961,126.41406 -23.01953,48.45117 6.45898,0.002 c 11.00955,-0.0654 16.48849,-5.75678 16.56055,-17.23633 l 0,-31.2168 z"
         style="fill:url(#linearGradient4201);fill-opacity:1;fill-rule:evenodd;stroke:none;stroke-width:1px;stroke-linecap:butt;stroke-linejoin:miter;stroke-opacity:1"
         inkscape:connector-curvature="0" />
      <path
         id="rect4227"
         d="m 281.52344,472.62891 c -6.93724,0 -12.52149,5.58619 -12.52149,12.52343 l 0,0.10157 c 0,6.93724 5.58425,12.52148 12.52149,12.52148 l 13.72851,0 c 8.74609,-14.77908 24.85773,-24.83519 43.03125,-24.84961 l 70.17774,-0.0527 a 25.002502,25.002502 0 0 1 0.0566,0 c 4.99144,0.007 9.89901,0.84067 14.61133,2.29101 4.58399,-1.51353 9.37958,-2.39124 14.25586,-2.53515 l -155.86133,0 z m 169.39258,0 38.55468,0.0937 a 25.002502,25.002502 0 0 1 0.0488,0 c 4.75901,0.0207 9.42682,0.80289 13.91602,2.15429 -2.02802,-1.41375 -4.49188,-2.24804 -7.16211,-2.24804 l -45.35742,0 z m -169.39258,50.48047 c -6.93724,0 -12.52149,5.58424 -12.52149,12.52148 l 0,0.10352 c 0,6.93722 5.58425,12.52148 12.52149,12.52148 l 6.6875,0 c 6e-5,-0.0229 -0.002,-0.0454 -0.002,-0.0684 a 25.002502,25.002502 0 0 1 0,-0.004 l 0.10938,-25.07421 -6.79492,0 z m 69.2539,0 9.67578,24.72656 6.69532,-6.4375 -0.0469,-0.0469 a 25.002502,25.002502 0 0 1 -7.13867,-18.24218 l -9.18555,0 z m 40.80078,0 0.61133,10.4707 4.04493,-10.4707 -4.65626,0 z m 46.51368,0 a 25.002502,25.002502 0 0 1 -21.97266,3.63085 25.002502,25.002502 0 0 1 -21.8418,21.51563 l 32.33399,0 5.3457,-11.30469 a 25.002502,25.002502 0 0 1 16.53906,-13.56836 25.002502,25.002502 0 0 1 1.25977,-0.27343 l -11.66406,0 z m -99.83203,13.48242 -0.0508,11.66406 14.88282,0 A 25.002502,25.002502 0 0 1 338.25977,536.5918 Z m 35.39648,9.89062 a 25.002502,25.002502 0 0 1 -4.29687,1.77344 l 8.41992,0 a 25.002502,25.002502 0 0 1 -4.12305,-1.77344 z m -92.13281,26.4336 c -6.93724,0 -12.52149,5.58424 -12.52149,12.52148 l 0,0.10352 c 0,6.93724 5.58425,12.52148 12.52149,12.52148 l 27.45703,0 0,-9.28516 c -5.7782,-4.22015 -10.62352,-9.64368 -14.1875,-15.86132 l -13.26953,0 z m 80.3164,0 a 25.002502,25.002502 0 0 1 -2.85937,12.07031 l 0,13.07617 44.08008,0 11.89062,-25.14648 -53.11133,0 z"
         style="color:#252525;clip-rule:nonzero;display:inline;overflow:visible;visibility:visible;opacity:18000004;isolation:auto;mix-blend-mode:normal;color-interpolation:sRGB;color-interpolation-filters:linearRGB;solid-color:#252525;solid-opacity:1;fill:#ffffff;fill-opacity:1;fill-rule:nonzero;stroke:none;stroke-width:50;stroke-linecap:square;stroke-linejoin:round;stroke-miterlimit:4;stroke-dasharray:none;stroke-dashoffset:0;stroke-opacity:1;color-rendering:auto;image-rendering:auto;shape-rendering:auto;text-rendering:auto;enable-background:accumulate"
         inkscape:connector-curvature="0" />
      <rect
         inkscape:export-ydpi="3.602555"
         inkscape:export-xdpi="3.602555"
         inkscape:export-filename="C:\Users\johannes\Desktop\g4205.png"
         y="321.79761"
         x="191.22897"
         height="400.70697"
         width="400"
         id="rect4160"
         style="opacity:1;fill:none;fill-opacity:1;stroke:none;stroke-width:23;stroke-linecap:butt;stroke-linejoin:round;stroke-miterlimit:4;stroke-dasharray:none;stroke-opacity:1" />
      <g
         style="fill:#99b000"
         transform="translate(147.26671,-0.22752835)"
         id="g4172">
        <path
           inkscape:connector-curvature="0"
           style="fill:#99b000;fill-opacity:1;stroke:none;stroke-width:10.78998089;stroke-linecap:butt;stroke-linejoin:round;stroke-miterlimit:4;stroke-dasharray:none;stroke-opacity:1"
           d="m 191.05387,523.15326 -0.1113,25.47555 20.77199,0.83237 0,173.12855 34.89698,0 42.37485,-58.2644 9.1397,58.2644 46.5293,0 82.2572,-173.12855 15.7867,-0.83237 0.034,-25.88156 -67.3359,0.0791 0,26.63519 10.8015,0 -44.0367,61.59377 -0.079,-88.10595 -50.605,-0.12311 -44.86751,94.88781 -0.83087,-69.08499 14.95588,-0.83237 0.4971,-24.69537 z"
           id="path3628"
           sodipodi:nodetypes="cccccccccccccccccccccc" />
      </g>
    </g>
  </g>
</svg>
