<?xml version="1.0" encoding="UTF-8" standalone="no"?>
<!-- Created with Inkscape (http://www.inkscape.org/) -->

<svg
   xmlns:dc="http://purl.org/dc/elements/1.1/"
   xmlns:cc="http://creativecommons.org/ns#"
   xmlns:rdf="http://www.w3.org/1999/02/22-rdf-syntax-ns#"
   xmlns:svg="http://www.w3.org/2000/svg"
   xmlns="http://www.w3.org/2000/svg"
   xmlns:xlink="http://www.w3.org/1999/xlink"
   xmlns:sodipodi="http://sodipodi.sourceforge.net/DTD/sodipodi-0.dtd"
   xmlns:inkscape="http://www.inkscape.org/namespaces/inkscape"
   width="210mm"
   height="297mm"
   viewBox="0 0 744.09448819 1052.3622047"
   id="svg2"
   version="1.1"
   inkscape:version="0.91 r13725"
   inkscape:export-xdpi="3.5983286"
   inkscape:export-ydpi="3.5983286"
   sodipodi:docname="office-ms-excel.svg"
   inkscape:export-filename="C:\Users\johannes\Documents\Arbeit\RRZE\github3\bicons\16x16\mime-types\office-ms-excel.png">
  <defs
     id="defs4">
    <linearGradient
       id="linearGradient2224">
      <stop
         id="stop2226"
         offset="0"
         style="stop-color:#7c7c7c;stop-opacity:1;" />
      <stop
         id="stop2228"
         offset="1"
         style="stop-color:#b8b8b8;stop-opacity:1;" />
    </linearGradient>
    <linearGradient
       id="linearGradient15218">
      <stop
         id="stop15220"
         offset="0"
         style="stop-color:#eeeeef;stop-opacity:1;" />
      <stop
         id="stop2736"
         offset="0.59928656"
         style="stop-color:#d3d7cf;stop-opacity:1;" />
      <stop
         id="stop2738"
         offset="0.82758623"
         style="stop-color:#ffffff;stop-opacity:1;" />
      <stop
         id="stop15222"
         offset="1"
         style="stop-color:#d3d7cf;stop-opacity:1;" />
    </linearGradient>
    <pattern
       y="0"
       x="0"
       height="6"
       width="6"
       patternUnits="userSpaceOnUse"
       id="EMFhbasepattern" />
    <pattern
       y="0"
       x="0"
       height="6"
       width="6"
       patternUnits="userSpaceOnUse"
       id="EMFhbasepattern-5" />
    <linearGradient
       id="linearGradient3672">
      <stop
         id="stop3674"
         offset="0"
         style="stop-color:#3465a4;stop-opacity:1;" />
      <stop
         id="stop3676"
         offset="1"
         style="stop-color:#729fcf;stop-opacity:1;" />
    </linearGradient>
    <linearGradient
       id="linearGradient4761">
      <stop
         id="stop4769"
         offset="0"
         style="stop-color:#ffffff;stop-opacity:1;" />
      <stop
         id="stop4775"
         offset="0.50370371"
         style="stop-color:#ffffff;stop-opacity:1;" />
      <stop
         id="stop4771"
         offset="1"
         style="stop-color:#ffffff;stop-opacity:0.06666667;" />
    </linearGradient>
    <linearGradient
       inkscape:collect="always"
       xlink:href="#linearGradient4195"
       id="linearGradient4201"
       x1="286.38269"
       y1="672.9209"
       x2="532.51678"
       y2="367.74933"
       gradientUnits="userSpaceOnUse"
       gradientTransform="matrix(1.0952361,0,0,1.1363532,-39.408963,-52.925642)" />
    <linearGradient
       inkscape:collect="always"
       id="linearGradient4195">
      <stop
         style="stop-color:#4e505d;stop-opacity:1"
         offset="0"
         id="stop4197" />
      <stop
         style="stop-color:#7a8597;stop-opacity:1"
         offset="1"
         id="stop4199" />
    </linearGradient>
    <radialGradient
       inkscape:collect="always"
       xlink:href="#linearGradient4761"
       id="radialGradient20911"
       gradientUnits="userSpaceOnUse"
       gradientTransform="matrix(0.74277983,0,0,0.72095317,-425.31312,735.437)"
       cx="1142.2032"
       cy="-166.52141"
       fx="1142.2032"
       fy="-166.52141"
       r="115.6004" />
  </defs>
  <sodipodi:namedview
     id="base"
     pagecolor="#ffffff"
     bordercolor="#666666"
     borderopacity="1.0"
     inkscape:pageopacity="0.0"
     inkscape:pageshadow="2"
     inkscape:zoom="0.70710678"
     inkscape:cx="636.14189"
     inkscape:cy="582.81632"
     inkscape:document-units="px"
     inkscape:current-layer="layer1"
     showgrid="false"
     showguides="true"
     inkscape:guide-bbox="true"
     inkscape:window-width="1366"
     inkscape:window-height="721"
     inkscape:window-x="-4"
     inkscape:window-y="-4"
     inkscape:window-maximized="1"
     inkscape:snap-bbox="true"
     inkscape:bbox-paths="true"
     inkscape:bbox-nodes="true">
    <sodipodi:guide
       position="560,730.00002"
       orientation="0,1"
       id="guide3338" />
    <sodipodi:guide
       position="560,330.00001"
       orientation="0,1"
       id="guide3340" />
    <sodipodi:guide
       position="190,475.00001"
       orientation="1,0"
       id="guide3344" />
    <sodipodi:guide
       position="590,451.00001"
       orientation="1,0"
       id="guide3346" />
    <inkscape:grid
       type="xygrid"
       id="grid3440" />
  </sodipodi:namedview>
  <metadata
     id="metadata7">
    <rdf:RDF>
      <cc:Work
         rdf:about="">
        <dc:format>image/svg+xml</dc:format>
        <dc:type
           rdf:resource="http://purl.org/dc/dcmitype/StillImage" />
        <dc:title>office ms excel</dc:title>
        <dc:date>June 2015</dc:date>
        <dc:creator>
          <cc:Agent>
            <dc:title>Franziska Sponsel, Johannes Hechler</dc:title>
          </cc:Agent>
        </dc:creator>
        <dc:rights>
          <cc:Agent>
            <dc:title>Franziska Sponsel, Johannes Hechler</dc:title>
          </cc:Agent>
        </dc:rights>
        <dc:publisher>
          <cc:Agent>
            <dc:title>RRZE</dc:title>
          </cc:Agent>
        </dc:publisher>
        <dc:contributor>
          <cc:Agent>
            <dc:title>Ute Weber, Hendrik Eggers</dc:title>
          </cc:Agent>
        </dc:contributor>
      </cc:Work>
    </rdf:RDF>
  </metadata>
  <g
     inkscape:label="Ebene 1"
     inkscape:groupmode="layer"
     id="layer1">
    <path
       style="fill:url(#linearGradient4201);fill-opacity:1;fill-rule:evenodd;stroke:none;stroke-width:1px;stroke-linecap:butt;stroke-linejoin:miter;stroke-opacity:1"
       d="M 256.33008 322.55273 C 245.35307 322.53363 239.87562 328.16405 239.92188 339.38477 C 239.87557 432.70854 239.87695 591.79612 239.90625 705.45312 C 239.87705 716.79498 245.38521 722.54939 256.26953 722.47266 L 306.18945 722.48633 A 25.0025 25.0025 0 0 1 302.50391 709.48438 L 302.50391 692.64648 A 25.0025 25.0025 0 0 1 309.71094 675.08594 L 366.32422 617.71875 L 309.07422 561.97461 A 25.0025 25.0025 0 0 1 301.61719 541.80078 L 303.59766 520.00781 A 25.0025 25.0025 0 0 1 328.49414 497.27148 L 409.7207 497.27148 A 25.0025 25.0025 0 0 1 427.59961 504.79883 L 452.30859 530.08203 L 476.0332 505.79297 A 25.0025 25.0025 0 0 1 494.2207 498.26367 L 541.14062 498.83594 L 541.14062 446.61133 C 515.28323 447.69706 416.87299 450.45126 414.32227 448.26172 C 411.77156 446.07218 414.63477 322.57617 414.63477 322.57617 C 414.63477 322.57617 280.49025 322.55013 256.33008 322.55273 z M 438.83789 322.57031 C 437.96921 356.61108 437.93194 390.1343 438.83789 423.07031 C 469.45413 425.3948 505.21746 424.32067 541.24805 423.07031 C 515.86392 380.489 480.53182 348.22951 438.83789 322.57031 z M 365.64453 547.27148 L 419.23633 599.45312 A 25.0025 25.0025 0 0 1 419.58984 634.92383 L 370.92578 684.23633 L 500.70703 683.49414 A 25.0025 25.0025 0 0 1 522.82227 696.62305 L 541.13867 696.82422 L 541.13867 693.98242 A 25.0025 25.0025 0 0 1 539.38281 659.4668 L 541.13867 657.43359 L 541.13867 653.69531 L 514.30859 653.25586 A 25.0025 25.0025 0 0 1 497.90234 646.75781 L 487.00586 636.85352 A 25.0025 25.0025 0 0 1 485.69727 601.13672 L 535.44531 548.76953 L 504.31836 548.39062 L 470.19727 583.32422 A 25.0025 25.0025 0 0 1 434.43359 583.32812 L 399.19531 547.27148 L 365.64453 547.27148 z "
       id="path4244" />
    <path
       style="color:#252525;clip-rule:nonzero;display:inline;overflow:visible;visibility:visible;opacity:18000004;isolation:auto;mix-blend-mode:normal;color-interpolation:sRGB;color-interpolation-filters:linearRGB;solid-color:#252525;solid-opacity:1;fill:#ffffff;fill-opacity:1;fill-rule:nonzero;stroke:none;stroke-width:50;stroke-linecap:square;stroke-linejoin:round;stroke-miterlimit:4;stroke-dasharray:none;stroke-dashoffset:0;stroke-opacity:1;color-rendering:auto;image-rendering:auto;shape-rendering:auto;text-rendering:auto;enable-background:accumulate"
       d="M 280.08789 473.10938 C 273.16289 473.10937 267.58789 478.68437 267.58789 485.60938 L 267.58789 485.71094 C 267.58789 492.63594 273.16289 498.21094 280.08789 498.21094 L 284.74609 498.21094 C 291.93484 485.29108 304.67369 475.86808 319.49609 473.10938 L 280.08789 473.10938 z M 418.74609 473.10938 C 428.83914 474.96555 438.20916 479.88783 445.47852 487.32617 L 452.30273 494.30859 L 458.14844 488.32422 A 25.0025 25.0025 0 0 0 458.15039 488.32422 C 467.698 478.55053 480.86128 473.10037 494.52344 473.26562 A 25.0025 25.0025 0 0 0 494.52539 473.26562 L 496.95898 473.29492 C 496.2819 473.18226 495.59088 473.10938 494.88086 473.10938 L 418.74609 473.10938 z M 328.38281 523.5 L 326.51367 544.0625 L 326.51562 544.0625 L 331.17773 548.60156 L 340.71094 548.60156 A 25.0025 25.0025 0 0 1 340.64453 547.27148 A 25.0025 25.0025 0 0 1 358.03516 523.5 L 328.38281 523.5 z M 406.88086 523.5 A 25.0025 25.0025 0 0 1 417.07422 529.79883 L 434.42969 547.55469 L 410.92188 523.5 L 406.88086 523.5 z M 434.42969 547.55469 L 435.45312 548.60156 L 435.56055 548.60156 A 25.0025 25.0025 0 0 1 434.42969 547.55469 z M 278.16406 523.66211 C 272.16141 524.58438 267.58789 529.73134 267.58789 536 L 267.58789 536.10156 C 267.58789 541.84506 271.42806 546.64727 276.6875 548.12305 C 276.45515 545.28652 276.45755 542.41552 276.71875 539.53906 A 25.0025 25.0025 0 0 0 276.7207 539.53906 L 278.16406 523.66211 z M 280.08789 573.21875 C 273.16289 573.21875 267.58789 578.79375 267.58789 585.71875 L 267.58789 585.82031 C 267.58789 592.74531 273.16289 598.32031 280.08789 598.32031 L 310.56445 598.32031 L 291.63281 579.88672 A 25.0025 25.0025 0 0 0 291.63281 579.88477 C 289.51401 577.82152 287.60653 575.58599 285.9082 573.21875 L 280.08789 573.21875 z "
       id="rect4227" />
    <rect
       style="opacity:1;fill:none;fill-opacity:1;stroke:none;stroke-width:23;stroke-linecap:butt;stroke-linejoin:round;stroke-miterlimit:4;stroke-dasharray:none;stroke-opacity:1"
       id="rect4160"
       width="400"
       height="400"
       x="189.81419"
       y="322.543"
       inkscape:export-filename="C:\Users\johannes\Desktop\g4205.png"
       inkscape:export-xdpi="3.602555"
       inkscape:export-ydpi="3.602555" />
    <path
       d="m 328.495,522.27122 81.22505,0 42.59359,43.58418 41.60309,-42.59364 81.22505,0.99055 3.96222,14.85823 -75.28177,79.24396 10.89605,9.9055 60.4235,0.99053 1.98107,24.76375 -18.8204,21.79209 30.70703,28.72592 0.99052,17.82991 -90.14,-0.99055 0.99058,-12.87715 -173.34618,0.99053 0,-16.83933 74.29122,-75.28175 -75.28179,-73.30065 1.98117,-21.79208 0,0 z"
       id="path4717"
       style="fill:#99b000;fill-opacity:1;fill-rule:evenodd;stroke:none;stroke-width:3.12062073;stroke-linecap:butt;stroke-linejoin:round;stroke-miterlimit:4;stroke-dasharray:none;stroke-opacity:1"
       inkscape:connector-curvature="0" />
    <path
       d="M 342.79767,537.61122 503.38725,693.15447"
       id="path4759"
       style="fill:none;stroke:url(#radialGradient20911);stroke-width:6.6870451;stroke-linecap:round;stroke-linejoin:miter;stroke-miterlimit:4;stroke-dasharray:none;stroke-opacity:1"
       inkscape:connector-curvature="0" />
  </g>
</svg>
