<?xml version="1.0" encoding="UTF-8" standalone="no"?>
<!-- Created with Inkscape (http://www.inkscape.org/) -->

<svg
   xmlns:dc="http://purl.org/dc/elements/1.1/"
   xmlns:cc="http://creativecommons.org/ns#"
   xmlns:rdf="http://www.w3.org/1999/02/22-rdf-syntax-ns#"
   xmlns:svg="http://www.w3.org/2000/svg"
   xmlns="http://www.w3.org/2000/svg"
   xmlns:xlink="http://www.w3.org/1999/xlink"
   xmlns:sodipodi="http://sodipodi.sourceforge.net/DTD/sodipodi-0.dtd"
   xmlns:inkscape="http://www.inkscape.org/namespaces/inkscape"
   width="210mm"
   height="297mm"
   viewBox="0 0 744.09448819 1052.3622047"
   id="svg2"
   version="1.1"
   inkscape:version="0.91 r13725"
   inkscape:export-xdpi="3.5999999"
   inkscape:export-ydpi="3.5999999"
   sodipodi:docname="text-js.svg"
   inkscape:export-filename="D:\Dokumente\Arbeit\RRZE\github\bicons\16x16\mime-types\text-js.png">
  <defs
     id="defs4">
    <linearGradient
       id="linearGradient2224">
      <stop
         id="stop2226"
         offset="0"
         style="stop-color:#7c7c7c;stop-opacity:1;" />
      <stop
         id="stop2228"
         offset="1"
         style="stop-color:#b8b8b8;stop-opacity:1;" />
    </linearGradient>
    <linearGradient
       id="linearGradient15218">
      <stop
         id="stop15220"
         offset="0"
         style="stop-color:#eeeeef;stop-opacity:1;" />
      <stop
         id="stop2736"
         offset="0.59928656"
         style="stop-color:#d3d7cf;stop-opacity:1;" />
      <stop
         id="stop2738"
         offset="0.82758623"
         style="stop-color:#ffffff;stop-opacity:1;" />
      <stop
         id="stop15222"
         offset="1"
         style="stop-color:#d3d7cf;stop-opacity:1;" />
    </linearGradient>
    <pattern
       y="0"
       x="0"
       height="6"
       width="6"
       patternUnits="userSpaceOnUse"
       id="EMFhbasepattern" />
    <pattern
       y="0"
       x="0"
       height="6"
       width="6"
       patternUnits="userSpaceOnUse"
       id="EMFhbasepattern-5" />
    <linearGradient
       inkscape:collect="always"
       xlink:href="#linearGradient4195"
       id="linearGradient4201"
       x1="286.38269"
       y1="672.9209"
       x2="532.51678"
       y2="367.74933"
       gradientUnits="userSpaceOnUse"
       gradientTransform="matrix(1.0952361,0,0,1.1363532,-229.22315,-375.46868)" />
    <linearGradient
       inkscape:collect="always"
       id="linearGradient4195">
      <stop
         style="stop-color:#4e505d;stop-opacity:1"
         offset="0"
         id="stop4197" />
      <stop
         style="stop-color:#7a8597;stop-opacity:1"
         offset="1"
         id="stop4199" />
    </linearGradient>
  </defs>
  <sodipodi:namedview
     id="base"
     pagecolor="#ffffff"
     bordercolor="#666666"
     borderopacity="1.0"
     inkscape:pageopacity="0.0"
     inkscape:pageshadow="2"
     inkscape:zoom="0.70710678"
     inkscape:cx="-97.847521"
     inkscape:cy="538.24867"
     inkscape:document-units="px"
     inkscape:current-layer="layer1"
     showgrid="false"
     showguides="true"
     inkscape:guide-bbox="true"
     inkscape:window-width="1600"
     inkscape:window-height="837"
     inkscape:window-x="-4"
     inkscape:window-y="-4"
     inkscape:window-maximized="1"
     inkscape:snap-bbox="true"
     inkscape:bbox-nodes="true">
    <sodipodi:guide
       position="560,730.00002"
       orientation="0,1"
       id="guide3338" />
    <sodipodi:guide
       position="560,330.00001"
       orientation="0,1"
       id="guide3340" />
    <sodipodi:guide
       position="190,475.00001"
       orientation="1,0"
       id="guide3344" />
    <sodipodi:guide
       position="590,451.00001"
       orientation="1,0"
       id="guide3346" />
    <inkscape:grid
       type="xygrid"
       id="grid3440" />
  </sodipodi:namedview>
  <metadata
     id="metadata7">
    <rdf:RDF>
      <cc:Work
         rdf:about="">
        <dc:format>image/svg+xml</dc:format>
        <dc:type
           rdf:resource="http://purl.org/dc/dcmitype/StillImage" />
        <dc:title>text js</dc:title>
        <dc:date>June 2015</dc:date>
        <dc:creator>
          <cc:Agent>
            <dc:title>Johannes Hechler</dc:title>
          </cc:Agent>
        </dc:creator>
        <dc:rights>
          <cc:Agent>
            <dc:title>Johannes Hechler</dc:title>
          </cc:Agent>
        </dc:rights>
        <dc:publisher>
          <cc:Agent>
            <dc:title>RRZE</dc:title>
          </cc:Agent>
        </dc:publisher>
        <dc:contributor>
          <cc:Agent>
            <dc:title>Ute Weber, Hendrik Eggers</dc:title>
          </cc:Agent>
        </dc:contributor>
      </cc:Work>
    </rdf:RDF>
  </metadata>
  <g
     inkscape:label="Ebene 1"
     inkscape:groupmode="layer"
     id="layer1">
    <g
       transform="translate(190,-329.99998)"
       id="g4423">
      <path
         inkscape:connector-curvature="0"
         id="path4244"
         transform="translate(0,652.36216)"
         d="M 66.515625,0.00976563 C 55.53862,-0.00933438 50.061162,5.6210769 50.107422,16.841797 c -0.0463,93.323773 -0.04492,252.411363 -0.01563,366.068363 -0.0292,11.3419 5.478951,17.09623 16.363281,17.01953 l 37.351567,0.01 C 101.37387,394.64144 100,388.79538 100,382.68164 l 0,-140.36133 C 100,219.30788 119.30593,200 142.31836,200 l 209.00976,0 0,-75.93164 c -25.85737,1.08573 -124.2696,3.83993 -126.82031,1.65039 -2.55071,-2.18954 0.3125,-125.68554688 0.3125,-125.68554688 0,0 -134.144505,-0.02603749 -158.304685,-0.02343749 z M 249.02344,0.02734375 c -0.86868,34.04077025 -0.90595,67.56399025 0,100.49999625 30.61623,2.32449 66.38152,1.25036 102.41211,0 C 326.05142,57.946034 290.71737,25.686544 249.02344,0.02734375 Z M 150,250 l 0,125 201.32617,0 0.002,-125 L 150,250 Z"
         style="fill:url(#linearGradient4201);fill-opacity:1;fill-rule:evenodd;stroke:none;stroke-width:1px;stroke-linecap:butt;stroke-linejoin:miter;stroke-opacity:1" />
      <rect
         inkscape:export-ydpi="3.5999999"
         inkscape:export-xdpi="3.5999999"
         ry="12.5"
         y="802.92804"
         x="77.772926"
         height="25.102289"
         width="239.79352"
         id="rect4227"
         style="color:#252525;clip-rule:nonzero;display:inline;overflow:visible;visibility:visible;opacity:18000004;isolation:auto;mix-blend-mode:normal;color-interpolation:sRGB;color-interpolation-filters:linearRGB;solid-color:#252525;solid-opacity:1;fill:#ffffff;fill-opacity:1;fill-rule:nonzero;stroke:none;stroke-width:50;stroke-linecap:square;stroke-linejoin:round;stroke-miterlimit:4;stroke-dasharray:none;stroke-dashoffset:0;stroke-opacity:1;color-rendering:auto;image-rendering:auto;shape-rendering:auto;text-rendering:auto;enable-background:accumulate" />
      <rect
         inkscape:export-ydpi="3.602555"
         inkscape:export-xdpi="3.602555"
         inkscape:export-filename="C:\Users\johannes\Desktop\g4205.png"
         y="652.36218"
         x="-3.1274413e-007"
         height="400"
         width="400"
         id="rect4160"
         style="opacity:1;fill:none;fill-opacity:1;stroke:none;stroke-width:23;stroke-linecap:butt;stroke-linejoin:round;stroke-miterlimit:4;stroke-dasharray:none;stroke-opacity:1" />
      <rect
         inkscape:export-ydpi="3.602555"
         inkscape:export-xdpi="3.602555"
         inkscape:export-filename="C:\Users\johannes\Desktop\g4205.png"
         ry="17.319241"
         y="877.36218"
         x="125"
         height="175.00003"
         width="275"
         id="rect4183"
         style="color:#252525;clip-rule:nonzero;display:inline;overflow:visible;visibility:visible;opacity:1;isolation:auto;mix-blend-mode:normal;color-interpolation:sRGB;color-interpolation-filters:linearRGB;solid-color:#252525;solid-opacity:1;fill:#99b000;fill-opacity:1;fill-rule:nonzero;stroke:none;stroke-width:12;stroke-linecap:butt;stroke-linejoin:round;stroke-miterlimit:4;stroke-dasharray:none;stroke-dashoffset:60.95800018;stroke-opacity:1;color-rendering:auto;image-rendering:auto;shape-rendering:auto;text-rendering:auto;enable-background:accumulate" />
      <path
         sodipodi:nodetypes="ccsccsccccscsc"
         d="m 223.88587,901.69126 26.57456,0 L 250,971.38988 c -0.0797,12.06244 -1.10552,21.3417 -3.31656,27.837 -2.97108,8.48372 -8.36049,15.31042 -16.16824,20.48012 -7.80775,5.1035 -18.10291,7.6552 -30.8855,7.6552 -14.99364,0 -26.53252,-4.0099 -34.61664,-12.0296 -8.08413,-8.0859 -12.16074,-19.91667 -12.22983,-35.4922 l 28.9163,-3.18137 c 0.34547,8.3511 1.62373,14.24989 3.83477,17.69638 3.31657,5.23606 8.36051,7.85409 15.13183,7.85409 6.84041,0 11.67706,-1.8558 14.50996,-5.56748 2.8329,-3.77787 8.24935,-11.5656 8.24935,-23.36319 z"
         style="font-style:normal;font-variant:normal;font-weight:bold;font-stretch:normal;font-size:medium;line-height:125%;font-family:arial;-inkscape-font-specification:'arial Bold';letter-spacing:0px;word-spacing:0px;fill:#ffffff;fill-opacity:1;stroke:none;stroke-width:1px;stroke-linecap:butt;stroke-linejoin:miter;stroke-opacity:1"
         id="path4464"
         inkscape:connector-curvature="0" />
      <path
         d="m 272.18656,991.10288 29.2272,-4.76802 q 1.86557,9.09252 7.56592,13.86054 5.70034,4.6572 15.96096,4.6572 11.29704,0 16.99738,-4.4354 3.83478,-3.10479 3.83478,-8.31636 0,-3.5483 -2.07286,-5.87687 -2.17649,-2.21769 -9.7424,-4.10273 -35.23848,-8.31634 -44.66996,-15.19116 -13.05896,-9.53607 -13.05896,-26.50139 0,-15.30206 11.29704,-25.7252 11.29704,-10.42313 35.0312,-10.42313 22.59408,0 33.58019,7.87279 10.98612,7.87279 15.13183,23.28574 l -27.46529,5.43333 q -1.76193,-6.87483 -6.73678,-10.53401 -4.87119,-3.65919 -13.99174,-3.65919 -11.50433,0 -16.47917,3.43741 -3.31657,2.43946 -3.31657,6.32041 0,3.32654 2.90199,5.65511 3.93843,3.10476 27.15437,8.75988 23.31958,5.6551 32.54377,13.86055 Q 375,973.02873 375,987.88723 q 0,16.18927 -12.64439,27.83207 -12.6444,11.6429 -37.41497,11.6429 -22.49045,0 -35.65306,-9.7579 -13.05896,-9.7578 -17.10102,-26.50142 z"
         style="font-style:normal;font-variant:normal;font-weight:bold;font-stretch:normal;font-size:medium;line-height:125%;font-family:arial;-inkscape-font-specification:'arial Bold';letter-spacing:0px;word-spacing:0px;fill:#ffffff;fill-opacity:1;stroke:none;stroke-width:1px;stroke-linecap:butt;stroke-linejoin:miter;stroke-opacity:1"
         id="path4466"
         inkscape:connector-curvature="0" />
    </g>
  </g>
</svg>
