<?xml version="1.0" encoding="UTF-8" standalone="no"?>
<!-- Created with Inkscape (http://www.inkscape.org/) -->

<svg
   xmlns:dc="http://purl.org/dc/elements/1.1/"
   xmlns:cc="http://creativecommons.org/ns#"
   xmlns:rdf="http://www.w3.org/1999/02/22-rdf-syntax-ns#"
   xmlns:svg="http://www.w3.org/2000/svg"
   xmlns="http://www.w3.org/2000/svg"
   xmlns:xlink="http://www.w3.org/1999/xlink"
   xmlns:sodipodi="http://sodipodi.sourceforge.net/DTD/sodipodi-0.dtd"
   xmlns:inkscape="http://www.inkscape.org/namespaces/inkscape"
   width="210mm"
   height="297mm"
   viewBox="0 0 744.09448819 1052.3622047"
   id="svg2"
   version="1.1"
   inkscape:version="0.91 r13725"
   inkscape:export-xdpi="4.9480424"
   inkscape:export-ydpi="4.9480424"
   sodipodi:docname="document-new_list.svg"
   inkscape:export-filename="D:\Dokumente\Arbeit\RRZE\github\bicons\22x22\documents\document-new_list.png">
  <defs
     id="defs4">
    <linearGradient
       id="linearGradient2224">
      <stop
         id="stop2226"
         offset="0"
         style="stop-color:#7c7c7c;stop-opacity:1;" />
      <stop
         id="stop2228"
         offset="1"
         style="stop-color:#b8b8b8;stop-opacity:1;" />
    </linearGradient>
    <linearGradient
       id="linearGradient15218">
      <stop
         id="stop15220"
         offset="0"
         style="stop-color:#eeeeef;stop-opacity:1;" />
      <stop
         id="stop2736"
         offset="0.59928656"
         style="stop-color:#d3d7cf;stop-opacity:1;" />
      <stop
         id="stop2738"
         offset="0.82758623"
         style="stop-color:#ffffff;stop-opacity:1;" />
      <stop
         id="stop15222"
         offset="1"
         style="stop-color:#d3d7cf;stop-opacity:1;" />
    </linearGradient>
    <pattern
       y="0"
       x="0"
       height="6"
       width="6"
       patternUnits="userSpaceOnUse"
       id="EMFhbasepattern" />
    <linearGradient
       inkscape:collect="always"
       xlink:href="#linearGradient4321"
       id="linearGradient4201"
       x1="286.38269"
       y1="672.9209"
       x2="532.51678"
       y2="367.74933"
       gradientUnits="userSpaceOnUse"
       gradientTransform="matrix(1.1363532,0,0,1.1363532,162.13301,222.99306)" />
    <linearGradient
       id="linearGradient4321"
       inkscape:collect="always">
      <stop
         id="stop4323"
         offset="0"
         style="stop-color:#4e505d;stop-opacity:1;" />
      <stop
         id="stop4325"
         offset="1"
         style="stop-color:#7a8597;stop-opacity:1" />
    </linearGradient>
  </defs>
  <sodipodi:namedview
     id="base"
     pagecolor="#ffffff"
     bordercolor="#666666"
     borderopacity="1.0"
     inkscape:pageopacity="0.0"
     inkscape:pageshadow="2"
     inkscape:zoom="0.70710678"
     inkscape:cx="199.44245"
     inkscape:cy="457.43959"
     inkscape:document-units="px"
     inkscape:current-layer="layer1"
     showgrid="false"
     showguides="true"
     inkscape:guide-bbox="true"
     inkscape:window-width="1600"
     inkscape:window-height="837"
     inkscape:window-x="-4"
     inkscape:window-y="-4"
     inkscape:window-maximized="1"
     inkscape:snap-bbox="true"
     inkscape:bbox-paths="true"
     inkscape:bbox-nodes="true">
    <sodipodi:guide
       position="315.53572,730.17859"
       orientation="0,1"
       id="guide3338" />
    <sodipodi:guide
       position="351.25,330.17858"
       orientation="0,1"
       id="guide3340" />
    <sodipodi:guide
       position="189.10714,408.8393"
       orientation="1,0"
       id="guide3344" />
    <sodipodi:guide
       position="589.04521,468.07945"
       orientation="1,0"
       id="guide3346" />
    <inkscape:grid
       type="xygrid"
       id="grid3440" />
    <sodipodi:guide
       position="0,0"
       orientation="0,1"
       id="guide3405" />
    <sodipodi:guide
       position="214.125,684.50002"
       orientation="1,0"
       id="guide3407" />
    <sodipodi:guide
       position="0,0"
       orientation="0,1"
       id="guide3409" />
    <sodipodi:guide
       position="589.04521,378.30213"
       orientation="1,0"
       id="guide3411" />
    <sodipodi:guide
       position="564.00001,683.37502"
       orientation="1,0"
       id="guide3413" />
  </sodipodi:namedview>
  <metadata
     id="metadata7">
    <rdf:RDF>
      <cc:Work
         rdf:about="">
        <dc:format>image/svg+xml</dc:format>
        <dc:type
           rdf:resource="http://purl.org/dc/dcmitype/StillImage" />
        <dc:title>document new list</dc:title>
        <dc:date>June 2015</dc:date>
        <dc:creator>
          <cc:Agent>
            <dc:title>Johannes Hechler</dc:title>
          </cc:Agent>
        </dc:creator>
        <dc:rights>
          <cc:Agent>
            <dc:title>Johannes Hechler</dc:title>
          </cc:Agent>
        </dc:rights>
        <dc:publisher>
          <cc:Agent>
            <dc:title>RRZE</dc:title>
          </cc:Agent>
        </dc:publisher>
        <dc:contributor>
          <cc:Agent>
            <dc:title>Ute Weber, Hendrik Eggers</dc:title>
          </cc:Agent>
        </dc:contributor>
      </cc:Work>
    </rdf:RDF>
  </metadata>
  <g
     inkscape:label="Ebene 1"
     inkscape:groupmode="layer"
     id="layer1">
    <g
       id="g4199"
       transform="translate(-218.91239,-276.09945)">
      <path
         id="path4244"
         d="m 478.97461,598.4706 c -11.3891,-0.0191 -17.07144,5.61131 -17.02344,16.83203 -0.048,93.32376 -0.048,252.41138 -0.0176,366.06836 -0.0303,11.3419 5.68558,17.09623 16.97852,17.01953 l 188.92187,0.0508 c -3.23763,-5.40308 -5.11523,-11.68154 -5.11523,-18.33789 l 0,-36.58008 -36.53906,0 C 606.4477,943.52335 590,927.07567 590,907.34367 l 0,-18.18164 c 0,-19.732 16.44769,-36.17969 36.17969,-36.17969 l 36.53906,0 0,-36.53906 c 0,-19.7344 16.44957,-36.17969 36.18164,-36.17969 l 18.17969,0 c 20.72903,0 37.81561,19.00248 36.17968,36.17969 0,0 1.2185,-72.77375 1.2188,-91.91407 -26.82812,1.08573 -117.1396,8.1203 -125.08007,-0.0996 -7.94047,-8.21992 -2.17579,-125.93554 -2.17579,-125.93554 0,0 -123.18085,-0.026 -148.24804,-0.0234 z m 167.35937,2.01758 c -0.90129,34.04077 -4.33067,97.43555 2.5,104.75 6.83067,7.31446 68.18512,1.18786 105.56836,-0.0625 -26.33709,-42.5813 -64.80917,-79.0283 -108.06836,-104.6875 z"
         style="fill:url(#linearGradient4201);fill-opacity:1;fill-rule:evenodd;stroke:none;stroke-width:1px;stroke-linecap:butt;stroke-linejoin:miter;stroke-opacity:1"
         inkscape:connector-curvature="0"
         sodipodi:nodetypes="cccccscsssscsssccsccccscc" />
      <path
         sodipodi:nodetypes="sssscccscssccscccccccccccscscsscscscccccccccccccccccccccccccccccccccccccccccscccc"
         inkscape:connector-curvature="0"
         id="rect4227"
         d="m 490.51562,761.85537 c -5.2669,0 -9.50781,4.24091 -9.50781,9.50781 l 0,0.0781 c 0,5.2669 4.24091,9.50586 9.50781,9.50586 l 167.59961,0 c 9.96287,-11.41654 24.58377,-18.68359 40.78516,-18.68359 126.90051,0.94694 -187.10552,-1.4956 -208.38477,-0.4082 z m -1.05859,54.98828 c -4.87676,0 -8.80273,3.92597 -8.80273,8.80273 l 0,0.0723 c 0,4.87676 3.92597,8.80273 8.80273,8.80273 l 155.26172,0 0,-17.67773 z m 191.39648,1.44531 c 0.0541,0.60588 0.20943,1.28189 0.37891,2.02344 -0.15968,-0.85098 -0.25635,-1.37021 -0.37891,-2.02344 z m 1.12305,4.5332 c 0.0565,0.14343 0.0514,0.23317 0.11328,0.38086 0.0512,0.12205 0.14317,0.26992 0.19727,0.39453 -0.13445,-0.3235 -0.18359,-0.44436 -0.31055,-0.77539 z m 0.85547,1.86524 c 0.14569,0.28549 0.3241,0.58168 0.51758,0.88672 -0.16869,-0.26781 -0.34042,-0.5537 -0.51758,-0.88672 z m 0.51758,0.88672 c 0.1819,0.28878 0.36029,0.55578 0.53906,0.8164 -0.19211,-0.27912 -0.37075,-0.55104 -0.53906,-0.8164 z M 489.98437,871.4999 c -5.16936,0 -9.33007,4.16266 -9.33007,9.33203 l 0,0.0762 c 0,5.16937 4.16071,9.33008 9.33007,9.33008 l 82.01563,0 0,-1.07617 c 0,-6.17425 1.06744,-12.1155 3.00391,-17.66211 z m 132.31055,0 c -0.13059,0.0311 -0.2627,0.058 -0.39258,0.0918 0.24292,-0.0357 0.38243,-0.0561 0.625,-0.0918 z m 10.42383,0.79492 c 0.16826,0.0626 0.25315,0.0854 0.39453,0.14258 -0.0366,-0.0156 -0.0809,-0.0451 -0.11719,-0.0605 -0.10773,-0.0456 -0.17189,-0.0393 -0.27734,-0.082 z m -13.42383,0.14062 c -1.48184,0.64151 -2.82898,1.5306 -4.0957,2.52735 1.65827,-1.02289 3.11838,-1.92455 4.0957,-2.52735 z m 14.68555,0.43946 c 0.41445,0.20597 0.78405,0.4075 1.12304,0.60742 -0.38675,-0.23062 -0.76278,-0.43704 -1.12304,-0.60742 z m 4.40039,3.06836 c 0.0606,0.0609 0.14823,0.12955 0.20703,0.18945 -0.0256,-0.0251 -0.0566,-0.065 -0.082,-0.0898 -0.0461,-0.045 -0.0793,-0.0557 -0.125,-0.0996 z m 0.73047,0.75976 c 0.33256,0.35701 0.61954,0.69578 0.8789,1.02539 -0.30043,-0.38624 -0.594,-0.73589 -0.8789,-1.02539 z m -27.13282,1.47852 c -0.99641,1.26646 -1.88404,2.61618 -2.52539,4.09765 0.60302,-0.97767 1.50262,-2.43955 2.52539,-4.09765 z m 30.21485,3.0664 c 0.045,0.0992 0.11355,0.211 0.15625,0.3086 -0.0144,-0.0331 -0.0256,-0.0779 -0.0391,-0.10742 -0.0408,-0.0893 -0.0766,-0.11488 -0.11719,-0.20118 z m 0.62305,1.60352 c 0.2555,0.70084 0.43264,1.33534 0.58007,1.94726 -0.0193,-0.13161 -0.082,-0.56451 -0.082,-0.56445 7e-5,2.4e-4 -0.29289,-0.78772 -0.49804,-1.38281 z m -34.20704,2.03516 c -0.31845,1.2238 -0.51508,2.47875 -0.55468,3.76953 0.12065,-0.82029 0.33902,-2.30371 0.55468,-3.76953 z m 13.21094,5.23828 c -0.13258,0.0194 -0.56647,0.084 -0.5664,0.084 10e-6,0 -0.0767,0.0273 -0.082,0.0293 l 0.22266,0 c 0.14134,-0.0372 0.28718,-0.0799 0.42578,-0.11328 z"
         style="color:#252525;clip-rule:nonzero;display:inline;overflow:visible;visibility:visible;opacity:18000004;isolation:auto;mix-blend-mode:normal;color-interpolation:sRGB;color-interpolation-filters:linearRGB;solid-color:#252525;solid-opacity:1;fill:#ffffff;fill-opacity:1;fill-rule:nonzero;stroke:none;stroke-width:50;stroke-linecap:square;stroke-linejoin:round;stroke-miterlimit:4;stroke-dasharray:none;stroke-dashoffset:0;stroke-opacity:1;color-rendering:auto;image-rendering:auto;shape-rendering:auto;text-rendering:auto;enable-background:accumulate" />
      <rect
         inkscape:export-ydpi="4.9507661"
         inkscape:export-xdpi="4.9507661"
         y="598.28308"
         x="408.01953"
         height="400"
         width="399.93808"
         id="rect4196"
         style="color:#252525;clip-rule:nonzero;display:inline;overflow:visible;visibility:visible;opacity:0.68699999;isolation:auto;mix-blend-mode:normal;color-interpolation:sRGB;color-interpolation-filters:linearRGB;solid-color:#252525;solid-opacity:1;fill:none;fill-opacity:1;fill-rule:nonzero;stroke:none;stroke-width:10;stroke-linecap:butt;stroke-linejoin:round;stroke-miterlimit:4;stroke-dasharray:none;stroke-dashoffset:0;stroke-opacity:1;color-rendering:auto;image-rendering:auto;shape-rendering:auto;text-rendering:auto;enable-background:accumulate" />
      <path
         id="rect4414"
         d="m 698.90039,798.26357 c -10.07166,0 -18.18164,8.10803 -18.18164,18.17969 l 0,54.53906 -54.53906,0 C 616.10797,870.98232 608,879.09029 608,889.16201 l 0,18.18164 c 0,10.07172 8.10797,18.17968 18.17969,18.17968 l 54.53906,0 0,54.58008 c 0,10.07166 8.10998,18.17969 18.18164,18.17969 l 18.17969,0 c 10.07165,0 18.17968,-8.10803 18.17968,-18.17969 l 0,-54.58008 54.53907,0 c 10.07172,0 18.18164,-8.10796 18.18164,-18.17968 l 0,-18.18164 c 0,-10.07172 -8.10992,-18.17969 -18.18164,-18.17969 l -54.53907,0 0,-54.53906 c 0,-10.07166 -8.10803,-18.17969 -18.17968,-18.17969 l -18.17969,0 z"
         style="color:#000000;clip-rule:nonzero;display:inline;overflow:visible;visibility:visible;opacity:1;isolation:auto;mix-blend-mode:normal;color-interpolation:sRGB;color-interpolation-filters:linearRGB;solid-color:#000000;solid-opacity:1;fill:#99b000;fill-opacity:1;fill-rule:evenodd;stroke:none;stroke-width:36;stroke-linecap:butt;stroke-linejoin:round;stroke-miterlimit:4;stroke-dasharray:none;stroke-dashoffset:0;stroke-opacity:1;color-rendering:auto;image-rendering:auto;shape-rendering:auto;text-rendering:auto;enable-background:accumulate"
         inkscape:connector-curvature="0" />
    </g>
  </g>
</svg>
