<?xml version="1.0" encoding="UTF-8" standalone="no"?>
<!-- Created with Inkscape (http://www.inkscape.org/) -->

<svg
   xmlns:dc="http://purl.org/dc/elements/1.1/"
   xmlns:cc="http://creativecommons.org/ns#"
   xmlns:rdf="http://www.w3.org/1999/02/22-rdf-syntax-ns#"
   xmlns:svg="http://www.w3.org/2000/svg"
   xmlns="http://www.w3.org/2000/svg"
   xmlns:xlink="http://www.w3.org/1999/xlink"
   xmlns:sodipodi="http://sodipodi.sourceforge.net/DTD/sodipodi-0.dtd"
   xmlns:inkscape="http://www.inkscape.org/namespaces/inkscape"
   width="210mm"
   height="297mm"
   viewBox="0 0 744.09448819 1052.3622047"
   id="svg2"
   version="1.1"
   inkscape:version="0.91 r13725"
   inkscape:export-xdpi="4.9499998"
   inkscape:export-ydpi="4.9499998"
   sodipodi:docname="document-user-canceled.svg"
   inkscape:export-filename="D:\Dokumente\Arbeit\RRZE\github\bicons\22x22\documents\document-user-canceled.png">
  <defs
     id="defs4">
    <linearGradient
       id="linearGradient2224">
      <stop
         id="stop2226"
         offset="0"
         style="stop-color:#7c7c7c;stop-opacity:1;" />
      <stop
         id="stop2228"
         offset="1"
         style="stop-color:#b8b8b8;stop-opacity:1;" />
    </linearGradient>
    <linearGradient
       id="linearGradient15218">
      <stop
         id="stop15220"
         offset="0"
         style="stop-color:#eeeeef;stop-opacity:1;" />
      <stop
         id="stop2736"
         offset="0.59928656"
         style="stop-color:#d3d7cf;stop-opacity:1;" />
      <stop
         id="stop2738"
         offset="0.82758623"
         style="stop-color:#ffffff;stop-opacity:1;" />
      <stop
         id="stop15222"
         offset="1"
         style="stop-color:#d3d7cf;stop-opacity:1;" />
    </linearGradient>
    <pattern
       y="0"
       x="0"
       height="6"
       width="6"
       patternUnits="userSpaceOnUse"
       id="EMFhbasepattern" />
    <linearGradient
       inkscape:collect="always"
       xlink:href="#linearGradient4321"
       id="linearGradient4201"
       x1="286.38269"
       y1="672.9209"
       x2="532.51678"
       y2="367.74933"
       gradientUnits="userSpaceOnUse"
       gradientTransform="matrix(0.0623562,0,0,0.0624825,394.1146,541.30743)" />
    <linearGradient
       id="linearGradient4321"
       inkscape:collect="always">
      <stop
         id="stop4323"
         offset="0"
         style="stop-color:#4e505d;stop-opacity:1;" />
      <stop
         id="stop4325"
         offset="1"
         style="stop-color:#7a8597;stop-opacity:1" />
    </linearGradient>
  </defs>
  <sodipodi:namedview
     id="base"
     pagecolor="#ffffff"
     bordercolor="#666666"
     borderopacity="1.0"
     inkscape:pageopacity="0.0"
     inkscape:pageshadow="2"
     inkscape:zoom="0.70710678"
     inkscape:cx="316.9025"
     inkscape:cy="491.65244"
     inkscape:document-units="px"
     inkscape:current-layer="layer1"
     showgrid="false"
     showguides="true"
     inkscape:guide-bbox="true"
     inkscape:window-width="1600"
     inkscape:window-height="837"
     inkscape:window-x="-4"
     inkscape:window-y="-4"
     inkscape:window-maximized="1"
     inkscape:snap-bbox="true"
     inkscape:bbox-paths="true"
     inkscape:bbox-nodes="true"
     inkscape:snap-nodes="false">
    <sodipodi:guide
       position="315.53572,730.17859"
       orientation="0,1"
       id="guide3338" />
    <sodipodi:guide
       position="351.25,330.17858"
       orientation="0,1"
       id="guide3340" />
    <sodipodi:guide
       position="189.10714,408.8393"
       orientation="1,0"
       id="guide3344" />
    <inkscape:grid
       type="xygrid"
       id="grid3440" />
    <sodipodi:guide
       position="0,0"
       orientation="0,1"
       id="guide3405" />
    <sodipodi:guide
       position="214.125,684.50002"
       orientation="1,0"
       id="guide3407" />
    <sodipodi:guide
       position="0,0"
       orientation="0,1"
       id="guide3409" />
    <sodipodi:guide
       position="589.04521,378.30213"
       orientation="1,0"
       id="guide3411" />
  </sodipodi:namedview>
  <metadata
     id="metadata7">
    <rdf:RDF>
      <cc:Work
         rdf:about="">
        <dc:format>image/svg+xml</dc:format>
        <dc:type
           rdf:resource="http://purl.org/dc/dcmitype/StillImage" />
        <dc:title>document user canceled</dc:title>
        <dc:date>June 2015</dc:date>
        <dc:creator>
          <cc:Agent>
            <dc:title>Johannes Hechler</dc:title>
          </cc:Agent>
        </dc:creator>
        <dc:rights>
          <cc:Agent>
            <dc:title>Johannes Hechler</dc:title>
          </cc:Agent>
        </dc:rights>
        <dc:publisher>
          <cc:Agent>
            <dc:title>RRZE</dc:title>
          </cc:Agent>
        </dc:publisher>
        <dc:contributor>
          <cc:Agent>
            <dc:title>Ute Weber, Hendrik Eggers</dc:title>
          </cc:Agent>
        </dc:contributor>
      </cc:Work>
    </rdf:RDF>
  </metadata>
  <g
     inkscape:label="Ebene 1"
     inkscape:groupmode="layer"
     id="layer1">
    <g
       id="g4200"
       transform="matrix(18.182067,0,0,18.182067,-7222.0372,-9895.096)">
      <path
         id="path4244"
         d="m 411.50095,561.95303 c -0.62496,-10e-4 -0.93677,0.3085 -0.93414,0.9255 -0.003,5.1315 -0.003,13.8789 -9.7e-4,20.1284 -0.002,0.6235 0.31199,0.94 0.93168,0.9358 l 9.423,0 c -0.004,-0.01 -0.009,-0.017 -0.013,-0.027 a 0.98783005,0.98983078 0 0 1 -0.0696,-0.2242 c -0.0883,-0.479 -0.13504,-0.9795 -0.13504,-1.4945 0,-2.1798 0.66945,-4.0723 2.11822,-5.1138 -0.3553,-0.4896 -0.56413,-1.0837 -0.56482,-1.7132 -5e-5,-1.6101 1.32903,-2.9314 2.93598,-2.9314 l 0,10e-5 a 0.98783005,0.98983078 0 0 1 0.005,0 c 0.22655,0 0.45223,0.028 0.67253,0.081 a 0.98783005,0.98983078 0 0 1 0.48315,0.2793 0.98783005,0.98983078 0 0 1 0.26601,-0.1985 l 0,-3.7185 c -1.47217,0.06 -6.42791,0.4465 -6.86364,-0.01 -0.43572,-0.452 -0.11939,-6.9246 -0.11939,-6.9246 0,0 -6.75942,0 -8.13496,0 z m 9.18367,0.1109 c -0.0495,1.8718 -0.23764,5.3576 0.13719,5.7598 0.37483,0.4021 3.74159,0.065 5.79295,0 -1.44522,-2.3414 -3.55633,-4.3454 -5.93014,-5.7563 z m 2.74617,17.1924 c -0.46555,0.6466 -0.75238,1.6168 -0.75238,2.9437 0,0.2746 0.0231,0.5389 0.0559,0.7976 l 0.23686,0 1.06307,-3.3182 -0.58142,-0.4064 a 0.98783005,0.98983078 0 0 1 -0.0221,-0.017 z m 3.18805,3.2853 -0.14608,0.456 0.14608,0 0,-0.456 z"
         style="fill:url(#linearGradient4201);fill-opacity:1;fill-rule:evenodd;stroke:none;stroke-width:1px;stroke-linecap:butt;stroke-linejoin:miter;stroke-opacity:1"
         inkscape:connector-curvature="0" />
      <path
         sodipodi:nodetypes="cccscccccccscccccccscccc"
         id="rect4227"
         d="m 412.11057,570.91863 c -0.27592,0 -0.49805,0.2221 -0.49805,0.498 l 0,0 c 0,0.2759 0.22213,0.4981 0.49805,0.4981 l 11.19761,0 0.30242,-1.0104 -11.50026,0.01 z m -0.0344,3.0174 c -0.2676,0 -0.48304,0.2154 -0.48304,0.483 l 0,0 c 0,0.2676 0.21544,0.4818 0.48304,0.4831 l 8.5312,0.041 0,-1 -8.5312,-0.011 z m -4.3e-4,2.9992 c -0.26738,0 -0.48262,0.2154 -0.48262,0.4827 l 0,0 c 0,0.2674 0.21524,0.4826 0.48262,0.4826 l 8.57922,0 -0.0476,-0.9578 -8.53163,-0.011 z"
         style="color:#252525;clip-rule:nonzero;display:inline;overflow:visible;visibility:visible;opacity:1;isolation:auto;mix-blend-mode:normal;color-interpolation:sRGB;color-interpolation-filters:linearRGB;solid-color:#252525;solid-opacity:1;fill:#ffffff;fill-opacity:1;fill-rule:nonzero;stroke:none;stroke-width:50;stroke-linecap:square;stroke-linejoin:round;stroke-miterlimit:4;stroke-dasharray:none;stroke-dashoffset:0;stroke-opacity:1;color-rendering:auto;image-rendering:auto;shape-rendering:auto;text-rendering:auto;enable-background:accumulate"
         inkscape:connector-curvature="0" />
      <rect
         inkscape:export-ydpi="4.9507661"
         inkscape:export-xdpi="4.9507661"
         y="561.94269"
         x="407.60736"
         height="21.949583"
         width="21.946186"
         id="rect4196"
         style="color:#252525;clip-rule:nonzero;display:inline;overflow:visible;visibility:visible;opacity:0.68699999;isolation:auto;mix-blend-mode:normal;color-interpolation:sRGB;color-interpolation-filters:linearRGB;solid-color:#252525;solid-opacity:1;fill:none;fill-opacity:1;fill-rule:nonzero;stroke:none;stroke-width:10;stroke-linecap:butt;stroke-linejoin:round;stroke-miterlimit:4;stroke-dasharray:none;stroke-dashoffset:0;stroke-opacity:1;color-rendering:auto;image-rendering:auto;shape-rendering:auto;text-rendering:auto;enable-background:accumulate" />
      <rect
         inkscape:export-ydpi="4.9499998"
         inkscape:export-xdpi="4.9499998"
         y="561.96075"
         x="407.61859"
         height="21.949583"
         width="21.949583"
         id="rect3336"
         style="fill:none;fill-rule:evenodd;stroke:none;stroke-width:1px;stroke-linecap:butt;stroke-linejoin:miter;stroke-opacity:1" />
      <path
         sodipodi:nodetypes="ccccccccccccssccccccccccscccccccscccc"
         id="path2176"
         d="m 425.14586,573.40693 c -1.08733,0 -1.96877,0.8676 -1.96874,1.9379 8.6e-4,0.7809 0.64975,1.3052 1.38185,1.6062 l 1.03862,-3.5292 c -0.14795,-0.035 -0.29953,-0.014 -0.45173,-0.015 z m 2.07317,-7e-4 -1.39021,3.7245 c 0.24023,0.1 0.34366,0.089 0.60422,0.089 1.08734,0 2.05542,-0.8713 2.05544,-1.9415 -10e-4,-0.8981 -0.38165,-1.6662 -1.26945,-1.8723 z m -3.72597,4.489 c -0.003,0 -0.17888,0.2131 -0.0104,0.01 l -0.19613,0.1052 c -1.27986,0.7503 -1.67915,2.0358 -1.67915,4.1492 0,0.4539 0.0418,0.8937 0.11989,1.3121 0.11579,0.2564 0.40671,0.4443 0.75531,0.4688 l 0,0 1.14671,0 1.09241,-4.9886 -0.76251,-0.5262 0.0817,-0.5413 c -0.15449,-0.045 -0.43677,0.072 -0.54784,0.01 z m 4.11478,0.021 c -0.32848,0.1825 -1.0882,0.025 -1.49085,0.025 -0.27701,0 -0.20569,0.098 -0.51717,0.01 l 0.012,0.7055 0.98126,0.5965 -1.52209,4.6917 3.5909,0 0,0 c 0.39127,-0.01 0.72083,-0.2161 0.83156,-0.5049 0.0741,-0.4083 0.11361,-0.8368 0.11361,-1.2786 0,-2.2125 -0.62348,-3.5632 -1.99926,-4.2429 z"
         style="fill:#99b000;fill-opacity:1;stroke:none;stroke-width:41.15159225;stroke-linecap:round;stroke-linejoin:round;stroke-opacity:1"
         inkscape:connector-curvature="0" />
    </g>
  </g>
</svg>
