<?xml version="1.0" encoding="UTF-8" standalone="no"?>
<!-- Created with Inkscape (http://www.inkscape.org/) -->

<svg
   xmlns:dc="http://purl.org/dc/elements/1.1/"
   xmlns:cc="http://creativecommons.org/ns#"
   xmlns:rdf="http://www.w3.org/1999/02/22-rdf-syntax-ns#"
   xmlns:svg="http://www.w3.org/2000/svg"
   xmlns="http://www.w3.org/2000/svg"
   xmlns:xlink="http://www.w3.org/1999/xlink"
   xmlns:sodipodi="http://sodipodi.sourceforge.net/DTD/sodipodi-0.dtd"
   xmlns:inkscape="http://www.inkscape.org/namespaces/inkscape"
   width="210mm"
   height="297mm"
   viewBox="0 0 744.09448819 1052.3622047"
   id="svg2"
   version="1.1"
   inkscape:version="0.91 r13725"
   inkscape:export-xdpi="4.9507661"
   inkscape:export-ydpi="4.9507661"
   sodipodi:docname="document-completed.svg"
   inkscape:export-filename="C:\Users\johannes\Documents\Arbeit\RRZE\github3\bicons\22x22\documents\document-completed.png">
  <defs
     id="defs4">
    <linearGradient
       id="linearGradient2224">
      <stop
         id="stop2226"
         offset="0"
         style="stop-color:#7c7c7c;stop-opacity:1;" />
      <stop
         id="stop2228"
         offset="1"
         style="stop-color:#b8b8b8;stop-opacity:1;" />
    </linearGradient>
    <linearGradient
       id="linearGradient15218">
      <stop
         id="stop15220"
         offset="0"
         style="stop-color:#eeeeef;stop-opacity:1;" />
      <stop
         id="stop2736"
         offset="0.59928656"
         style="stop-color:#d3d7cf;stop-opacity:1;" />
      <stop
         id="stop2738"
         offset="0.82758623"
         style="stop-color:#ffffff;stop-opacity:1;" />
      <stop
         id="stop15222"
         offset="1"
         style="stop-color:#d3d7cf;stop-opacity:1;" />
    </linearGradient>
    <pattern
       y="0"
       x="0"
       height="6"
       width="6"
       patternUnits="userSpaceOnUse"
       id="EMFhbasepattern" />
    <linearGradient
       inkscape:collect="always"
       xlink:href="#linearGradient4321"
       id="linearGradient4201"
       x1="286.38269"
       y1="672.9209"
       x2="532.51678"
       y2="367.74933"
       gradientUnits="userSpaceOnUse"
       gradientTransform="matrix(1.1363532,0,0,1.1363532,409.74362,-389.9296)" />
    <linearGradient
       id="linearGradient4321"
       inkscape:collect="always">
      <stop
         id="stop4323"
         offset="0"
         style="stop-color:#4e505d;stop-opacity:1;" />
      <stop
         id="stop4325"
         offset="1"
         style="stop-color:#7a8597;stop-opacity:1" />
    </linearGradient>
  </defs>
  <sodipodi:namedview
     id="base"
     pagecolor="#ffffff"
     bordercolor="#666666"
     borderopacity="1.0"
     inkscape:pageopacity="0.0"
     inkscape:pageshadow="2"
     inkscape:zoom="0.7071068"
     inkscape:cx="329.71055"
     inkscape:cy="496.763"
     inkscape:document-units="px"
     inkscape:current-layer="layer1"
     showgrid="false"
     showguides="true"
     inkscape:guide-bbox="true"
     inkscape:window-width="1366"
     inkscape:window-height="721"
     inkscape:window-x="-4"
     inkscape:window-y="-4"
     inkscape:window-maximized="1"
     inkscape:snap-bbox="true"
     inkscape:bbox-paths="true"
     inkscape:bbox-nodes="true">
    <sodipodi:guide
       position="315.53572,730.17859"
       orientation="0,1"
       id="guide3338" />
    <sodipodi:guide
       position="351.25,330.17858"
       orientation="0,1"
       id="guide3340" />
    <sodipodi:guide
       position="189.10714,408.8393"
       orientation="1,0"
       id="guide3344" />
    <inkscape:grid
       type="xygrid"
       id="grid3440" />
    <sodipodi:guide
       position="0,0"
       orientation="0,1"
       id="guide3405" />
    <sodipodi:guide
       position="214.125,684.50002"
       orientation="1,0"
       id="guide3407" />
    <sodipodi:guide
       position="0,0"
       orientation="0,1"
       id="guide3409" />
    <sodipodi:guide
       position="589.04521,378.30213"
       orientation="1,0"
       id="guide3411" />
    <sodipodi:guide
       position="564.00001,683.37502"
       orientation="1,0"
       id="guide3413" />
  </sodipodi:namedview>
  <metadata
     id="metadata7">
    <rdf:RDF>
      <cc:Work
         rdf:about="">
        <dc:format>image/svg+xml</dc:format>
        <dc:type
           rdf:resource="http://purl.org/dc/dcmitype/StillImage" />
        <dc:title>document completed</dc:title>
        <dc:date>June 2015</dc:date>
        <dc:creator>
          <cc:Agent>
            <dc:title>Johannes Hechler</dc:title>
          </cc:Agent>
        </dc:creator>
        <dc:rights>
          <cc:Agent>
            <dc:title>Johannes Hechler</dc:title>
          </cc:Agent>
        </dc:rights>
        <dc:publisher>
          <cc:Agent>
            <dc:title>RRZE</dc:title>
          </cc:Agent>
        </dc:publisher>
        <dc:contributor>
          <cc:Agent>
            <dc:title>Ute Weber, Hendrik Eggers</dc:title>
          </cc:Agent>
        </dc:contributor>
      </cc:Work>
    </rdf:RDF>
  </metadata>
  <g
     inkscape:label="Ebene 1"
     inkscape:groupmode="layer"
     id="layer1">
    <g
       id="g4215"
       transform="translate(-466.52299,336.82319)">
      <path
         sodipodi:nodetypes="ccccccscsccccssccsscccccscccscccccccccsscccccccccc"
         inkscape:connector-curvature="0"
         id="path4244"
         d="m 726.58522,-14.452038 c -11.3891,-0.0191 -17.07144,5.6113119 -17.02344,16.8320311 -0.048,93.3237609 -0.048,252.4113569 -0.0176,366.0683569 -0.0303,11.3419 5.68557,17.09633 16.97851,17.01953 l 258.38282,0.0703 c 8.92401,-0.0508 14.32806,-3.54732 16.30859,-10.53125 -0.03,-0.51194 -0.047,-1.02332 -0.047,-1.53515 l 0,-24.52735 -62.55664,0 c -0.91422,0 -1.79322,-0.13602 -2.62695,-0.3789 l -135.39454,0 c -11.49281,-8.7e-4 -20.04177,-10.62463 -17.58398,-21.85156 2.61847,-11.94866 8.16617,-22.87677 14.64648,-32.64063 l -41.03906,0 c -13.9382,0 -19.63975,-9.14947 -23.0332,-15.36914 -3.39346,-6.21968 -5.38918,-12.26259 -5.00391,-20.37305 l 0.0879,-1.86132 c 0.32135,-6.76518 1.96536,-12.43293 5.0957,-18.54883 1.56517,-3.05796 3.49093,-6.1977 6.83789,-9.36133 2.69177,-2.54433 6.91193,-5.25453 12.23438,-6.25586 1.32148,-0.31033 2.67383,-0.4702 4.03125,-0.47656 l 0,-0.002 245.22658,0 0,-110.21875 c -26.82814,1.08573 -117.13962,8.1203 -125.08009,-0.0996 -7.94047,-8.21992 -2.17579,-125.93554 -2.17579,-125.93554 0,0 -123.18086,-0.02604 -148.24805,-0.02344 z m 167.35937,2.017579 c -0.90129,34.040769 -4.33067,97.435547 2.5,104.750003 6.83067,7.31446 68.18512,1.18786 105.56841,-0.0625 C 975.67586,49.671738 937.20378,13.22474 893.94459,-12.434459 Z M 774.80983,241.20421 c -0.47175,6.11114 -4.02051,11.56233 -9.41797,14.4668 -0.32715,1.11859 -0.71963,2.43144 -0.73633,2.40234 l 71.35547,0 c 15.90757,0.004 23.99259,19.12726 12.91211,30.54102 -5.80012,5.97288 -13.07077,15.06406 -19.14649,23.95117 l 99.50391,0 0,-0.60547 c 0,-5.16937 4.16071,-9.33203 9.33008,-9.33203 l 6.15039,0 c -4.2881,-5.2751 -8.62367,-10.21335 -12.32031,-14.0293 -11.06936,-11.4299 -2.95438,-30.54794 12.95703,-30.52539 l 56.68948,0.0879 0,-0.33398 -228.4219,0 z m -9.73047,19.88477 c 0.0371,0.11605 0.0622,0.30074 0.10156,0.37304 0.0866,0.1587 0.0703,-0.0366 -0.10156,-0.37304 z"
         style="fill:url(#linearGradient4201);fill-opacity:1;fill-rule:evenodd;stroke:none;stroke-width:1px;stroke-linecap:butt;stroke-linejoin:miter;stroke-opacity:1" />
      <rect
         inkscape:export-ydpi="4.9507661"
         inkscape:export-xdpi="4.9507661"
         ry="9.5070419"
         y="148.93338"
         x="728.61841"
         height="19.091881"
         width="258.87497"
         id="rect4227"
         style="color:#252525;clip-rule:nonzero;display:inline;overflow:visible;visibility:visible;opacity:18000004;isolation:auto;mix-blend-mode:normal;color-interpolation:sRGB;color-interpolation-filters:linearRGB;solid-color:#252525;solid-opacity:1;fill:#ffffff;fill-opacity:1;fill-rule:nonzero;stroke:none;stroke-width:50;stroke-linecap:square;stroke-linejoin:round;stroke-miterlimit:4;stroke-dasharray:none;stroke-dashoffset:0;stroke-opacity:1;color-rendering:auto;image-rendering:auto;shape-rendering:auto;text-rendering:auto;enable-background:accumulate" />
      <rect
         inkscape:export-ydpi="4.9507661"
         inkscape:export-xdpi="4.9507661"
         y="-14.639556"
         x="655.63013"
         height="400"
         width="399.93808"
         id="rect4196"
         style="color:#252525;clip-rule:nonzero;display:inline;overflow:visible;visibility:visible;opacity:0.68699999;isolation:auto;mix-blend-mode:normal;color-interpolation:sRGB;color-interpolation-filters:linearRGB;solid-color:#252525;solid-opacity:1;fill:none;fill-opacity:1;fill-rule:nonzero;stroke:none;stroke-width:10;stroke-linecap:butt;stroke-linejoin:round;stroke-miterlimit:4;stroke-dasharray:none;stroke-dashoffset:0;stroke-opacity:1;color-rendering:auto;image-rendering:auto;shape-rendering:auto;text-rendering:auto;enable-background:accumulate" />
      <path
         inkscape:connector-curvature="0"
         style="color:#000000;clip-rule:nonzero;display:inline;overflow:visible;visibility:visible;opacity:1;isolation:auto;mix-blend-mode:normal;color-interpolation:sRGB;color-interpolation-filters:linearRGB;solid-color:#000000;solid-opacity:1;fill:#99b000;fill-opacity:1;fill-rule:evenodd;stroke:none;stroke-width:50;stroke-linecap:butt;stroke-linejoin:round;stroke-miterlimit:4;stroke-dasharray:none;stroke-dashoffset:0;stroke-opacity:1;color-rendering:auto;image-rendering:auto;shape-rendering:auto;text-rendering:auto;enable-background:accumulate"
         d="m 756.86298,239.82669 c -5.56565,0 -9.90872,10.95509 -10.21944,17.49642 l -0.0884,1.86073 c -0.31073,6.54133 4.49204,16.8891 10.05766,16.8891 l 79.39734,0 c -12.44919,12.81999 -31.30694,35.71642 -35.42158,54.49246 l 182.14511,0 c -4.09881,-18.76784 -24.93601,-41.66335 -37.36401,-54.49246 l 73.79704,0.11366 0,72.29132 0,24.9939 c 0,6.5862 4.7346,10.227 10.0465,11.8886 l 0.5136,0 15.795,-0.054 c 5.5656,-0.019 10.0464,-5.3024 10.0464,-11.8886 l 0,-12.9939 c 0,-6.5862 -4.4366,-11.5176 -10.0022,-11.5176 l -8.2193,0 -0.25,-96.84083 0,-0.97683 c 0,-0.41108 -0.016,-0.8161 -0.051,-1.21389 -0.4812,-5.57067 -6.383,-9.46293 -11.1254,-9.99097 -0.3387,-0.038 -0.6838,-0.0574 -1.0316,-0.0574 l -0.5136,0 -267.5122,0 z"
         id="rect4211"
         sodipodi:nodetypes="csssccccccsscssssccsccsccc" />
    </g>
  </g>
</svg>
