<?xml version="1.0" encoding="UTF-8" standalone="no"?>
<!-- Created with Inkscape (http://www.inkscape.org/) -->

<svg
   xmlns:dc="http://purl.org/dc/elements/1.1/"
   xmlns:cc="http://creativecommons.org/ns#"
   xmlns:rdf="http://www.w3.org/1999/02/22-rdf-syntax-ns#"
   xmlns:svg="http://www.w3.org/2000/svg"
   xmlns="http://www.w3.org/2000/svg"
   xmlns:xlink="http://www.w3.org/1999/xlink"
   xmlns:sodipodi="http://sodipodi.sourceforge.net/DTD/sodipodi-0.dtd"
   xmlns:inkscape="http://www.inkscape.org/namespaces/inkscape"
   width="744.09448819"
   height="1052.3622047"
   id="svg2"
   version="1.1"
   inkscape:version="0.48.2 r9819"
   sodipodi:docname="beta.svg"
   inkscape:export-filename="/Users/Franzi/github/rrze-icon-set/monocrom/16x16/emblems/beta.png"
   inkscape:export-xdpi="2.05"
   inkscape:export-ydpi="2.05">
  <title
     id="title3931">beta</title>
  <defs
     id="defs4">
    <linearGradient
       inkscape:collect="always"
       id="linearGradient3893">
      <stop
         style="stop-color:#ffffff;stop-opacity:1;"
         offset="0"
         id="stop3895" />
      <stop
         style="stop-color:#ffffff;stop-opacity:0;"
         offset="1"
         id="stop3897" />
    </linearGradient>
    <linearGradient
       inkscape:collect="always"
       id="linearGradient3769">
      <stop
         style="stop-color:#ffffff;stop-opacity:1;"
         offset="0"
         id="stop3771" />
      <stop
         style="stop-color:#ffffff;stop-opacity:0;"
         offset="1"
         id="stop3773" />
    </linearGradient>
    <linearGradient
       inkscape:collect="always"
       xlink:href="#linearGradient3769"
       id="linearGradient3778"
       gradientUnits="userSpaceOnUse"
       x1="127.64618"
       y1="187.66977"
       x2="694.87427"
       y2="839.20941" />
    <linearGradient
       inkscape:collect="always"
       xlink:href="#linearGradient3893"
       id="linearGradient3899"
       x1="276.00922"
       y1="311.41531"
       x2="846.27026"
       y2="642.74536"
       gradientUnits="userSpaceOnUse" />
    <linearGradient
       inkscape:collect="always"
       xlink:href="#linearGradient3893"
       id="linearGradient3923"
       gradientUnits="userSpaceOnUse"
       x1="276.00922"
       y1="311.41531"
       x2="846.27026"
       y2="642.74536" />
  </defs>
  <sodipodi:namedview
     id="base"
     pagecolor="#ffffff"
     bordercolor="#666666"
     borderopacity="1.0"
     inkscape:pageopacity="0.0"
     inkscape:pageshadow="2"
     inkscape:zoom="0.49497475"
     inkscape:cx="553.797"
     inkscape:cy="694.88765"
     inkscape:document-units="px"
     inkscape:current-layer="layer1"
     showgrid="false"
     showguides="true"
     inkscape:guide-bbox="true"
     inkscape:snap-global="false"
     inkscape:window-width="1258"
     inkscape:window-height="692"
     inkscape:window-x="0"
     inkscape:window-y="0"
     inkscape:window-maximized="0">
    <sodipodi:guide
       orientation="0,1"
       position="817.14286,911.42857"
       id="guide2987" />
    <sodipodi:guide
       orientation="0,1"
       position="-17.142857,208.57143"
       id="guide2989" />
    <sodipodi:guide
       orientation="1,0"
       position="730,160"
       id="guide2991" />
    <sodipodi:guide
       orientation="1,0"
       position="28.571429,130"
       id="guide2993" />
    <sodipodi:guide
       orientation="1,0"
       position="379.81736,80.812204"
       id="guide2995" />
    <sodipodi:guide
       orientation="0,1"
       position="-157.5838,559.62451"
       id="guide2997" />
  </sodipodi:namedview>
  <metadata
     id="metadata7">
    <rdf:RDF>
      <cc:Work
         rdf:about="">
        <dc:format>image/svg+xml</dc:format>
        <dc:type
           rdf:resource="http://purl.org/dc/dcmitype/StillImage" />
        <dc:title>beta</dc:title>
        <dc:date>Feb 2015</dc:date>
        <dc:creator>
          <cc:Agent>
            <dc:title>Franziska Sponsel</dc:title>
          </cc:Agent>
        </dc:creator>
        <dc:rights>
          <cc:Agent>
            <dc:title>Franziska Sponsel</dc:title>
          </cc:Agent>
        </dc:rights>
        <dc:publisher>
          <cc:Agent>
            <dc:title>RRZE</dc:title>
          </cc:Agent>
        </dc:publisher>
        <dc:subject>
          <rdf:Bag>
            <rdf:li>beta</rdf:li>
            <rdf:li>test version</rdf:li>
          </rdf:Bag>
        </dc:subject>
        <dc:contributor>
          <cc:Agent>
            <dc:title>Ute Weber</dc:title>
          </cc:Agent>
        </dc:contributor>
        <cc:license
           rdf:resource="http://creativecommons.org/licenses/by-sa/3.0/" />
      </cc:Work>
      <cc:License
         rdf:about="http://creativecommons.org/licenses/by-sa/3.0/">
        <cc:permits
           rdf:resource="http://creativecommons.org/ns#Reproduction" />
        <cc:permits
           rdf:resource="http://creativecommons.org/ns#Distribution" />
        <cc:requires
           rdf:resource="http://creativecommons.org/ns#Notice" />
        <cc:requires
           rdf:resource="http://creativecommons.org/ns#Attribution" />
        <cc:permits
           rdf:resource="http://creativecommons.org/ns#DerivativeWorks" />
        <cc:requires
           rdf:resource="http://creativecommons.org/ns#ShareAlike" />
      </cc:License>
    </rdf:RDF>
  </metadata>
  <g
     inkscape:label="Layer 1"
     inkscape:groupmode="layer"
     id="layer1">
    <g
       id="g3926">
      <rect
         y="140.93361"
         x="28.571428"
         height="702.85712"
         width="702.85712"
         id="rect2985"
         style="fill:none;fill-opacity:1;stroke:none" />
      <path
         id="path2999"
         d="m 638.41641,482.63614 c 0,151.74659 -123.01491,274.7615 -274.7615,274.7615 -151.74659,0 -274.761508,-123.01491 -274.761508,-274.7615 0,-151.74659 123.014918,-274.76151 274.761508,-274.76151 151.74659,0 274.7615,123.01492 274.7615,274.76151 z"
         style="fill:none;stroke:url(#linearGradient3778);stroke-width:53.17575072999999719;stroke-miterlimit:4;stroke-opacity:1"
         transform="matrix(1.0821851,0,0,1.0821851,-13.724616,-29.564031)" />
      <path
         id="rect3890"
         d="M 624.25 276.40625 L 57.8125 544.21875 C 77.241763 640.6935 108.97058 680.52813 142.4375 718.15625 L 702.84375 455.40625 C 699.47578 397.06171 667.64749 324.35547 624.25 276.40625 z M 526.25 367.71875 L 620.75 459.96875 L 604.96875 467.25 L 581.5 443.25 L 531 466.59375 L 534.09375 500.0625 L 518.125 507.4375 L 509.09375 375.6875 L 526.25 367.71875 z M 524.53125 386.65625 L 529.75 451.875 L 570.9375 432.84375 L 524.53125 386.65625 z M 465.375 396.34375 L 471.28125 409.09375 L 431.53125 427.46875 L 477.40625 526.71875 L 462.1875 533.75 L 416.3125 434.53125 L 376.53125 452.90625 L 370.65625 440.15625 L 465.375 396.34375 z M 343.59375 453.25 L 349.5 466.03125 L 293.84375 491.75 L 309.1875 524.90625 L 362.5 500.25 L 368.40625 513 L 315.0625 537.65625 L 333.84375 578.25 L 390.84375 551.875 L 396.75 564.625 L 324.59375 598 L 272.8125 486 L 343.59375 453.25 z M 227.5625 510.90625 C 229.8728 510.93041 232.06973 511.17885 234.1875 511.65625 C 242.65853 513.56612 248.96894 518.96144 253.0625 527.8125 C 256.23089 534.66355 257.13958 540.84443 255.8125 546.375 C 254.48534 551.9058 250.95699 556.60092 245.21875 560.46875 C 253.40979 558.62309 260.72791 559.32708 267.1875 562.53125 C 273.67384 565.66246 278.67208 571.02406 282.1875 578.625 C 286.81287 588.62642 286.9987 597.90401 282.71875 606.5 C 278.43862 615.09607 270.02038 622.32009 257.46875 628.125 L 217.25 646.71875 L 165.46875 534.71875 L 204.15625 516.8125 C 212.81991 512.8058 220.63161 510.83377 227.5625 510.90625 z M 223.34375 525.9375 C 219.20228 525.94084 214.36324 527.21443 208.8125 529.78125 L 186.375 540.15625 L 201.96875 573.90625 L 224.40625 563.53125 C 231.80722 560.10851 236.67148 556.19688 239 551.78125 C 241.35533 547.29269 241.23022 542.20089 238.59375 536.5 C 235.98034 530.84937 232.19559 527.45597 227.25 526.34375 C 226.02609 526.05998 224.72424 525.93639 223.34375 525.9375 z M 246.875 570.96875 C 242.54778 571.0477 237.5726 572.37711 231.96875 574.96875 L 207.6875 586.21875 L 226.65625 627.25 L 250.9375 616 C 259.08854 612.23031 264.36769 607.77941 266.71875 602.625 C 269.09656 597.39754 268.65212 591.29475 265.4375 584.34375 C 262.19962 577.34289 257.85187 573.12973 252.375 571.65625 C 250.67185 571.17299 248.84192 570.93286 246.875 570.96875 z "
         style="fill:url(#linearGradient3923);fill-opacity:1;stroke:none" />
    </g>
  </g>
</svg>
