<?xml version="1.0" encoding="UTF-8" standalone="no"?>
<!-- Created with Inkscape (http://www.inkscape.org/) -->
<svg xmlns:dc="http://purl.org/dc/elements/1.1/" xmlns:cc="http://creativecommons.org/ns#" xmlns:rdf="http://www.w3.org/1999/02/22-rdf-syntax-ns#" xmlns:svg="http://www.w3.org/2000/svg" xmlns="http://www.w3.org/2000/svg" xmlns:xlink="http://www.w3.org/1999/xlink" xmlns:sodipodi="http://sodipodi.sourceforge.net/DTD/sodipodi-0.dtd" xmlns:inkscape="http://www.inkscape.org/namespaces/inkscape" width="210mm" height="297mm" id="svg2" version="1.1" inkscape:version="0.48.0 r9654" inkscape:export-xdpi="4.5" inkscape:export-ydpi="4.5">
  <defs id="defs4">
    <linearGradient id="linearGradient4082">
      <stop style="stop-color:#ffffff;stop-opacity:1;" offset="0" id="stop4084"/>
      <stop style="stop-color:#ffffff;stop-opacity:0;" offset="1" id="stop4086"/>
    </linearGradient>
    <linearGradient inkscape:collect="always" xlink:href="#linearGradient4082" id="linearGradient4088" x1="440.65179" y1="193.1176" x2="448.3884" y2="1045.9747" gradientUnits="userSpaceOnUse"/>
    <linearGradient inkscape:collect="always" xlink:href="#linearGradient4082" id="linearGradient4092" gradientUnits="userSpaceOnUse" x1="412.08035" y1="238.83189" x2="399.81696" y2="883.11761"/>
    <linearGradient inkscape:collect="always" xlink:href="#linearGradient4082" id="linearGradient4094" gradientUnits="userSpaceOnUse" x1="434.9375" y1="267.40332" x2="425.53125" y2="1040.2605"/>
  </defs>
  <sodipodi:namedview id="base" pagecolor="#ffffff" bordercolor="#666666" borderopacity="1.0" inkscape:pageopacity="0.0" inkscape:pageshadow="2" inkscape:zoom="0.35" inkscape:cx="331.78069" inkscape:cy="389.33711" inkscape:document-units="px" inkscape:current-layer="layer1" showgrid="false" showguides="true" inkscape:guide-bbox="true" inkscape:window-width="1241" inkscape:window-height="667" inkscape:window-x="0" inkscape:window-y="0" inkscape:window-maximized="0" inkscape:snap-global="false">
    <sodipodi:guide orientation="0,1" position="-278.8021,874.7921" id="guide2989"/>
    <sodipodi:guide orientation="0,1" position="-355.5737,153.54319" id="guide2991"/>
    <sodipodi:guide orientation="1,0" position="729.33014,72.730983" id="guide2993"/>
    <sodipodi:guide orientation="1,0" position="12.121831,80.812204" id="guide2995"/>
    <sodipodi:guide orientation="1,0" position="395.71429,150" id="guide4019"/>
    <sodipodi:guide orientation="0,1" position="772.85714,78.571429" id="guide4090"/>
  </sodipodi:namedview>
  <metadata id="metadata7">
    <rdf:RDF>
      <cc:Work rdf:about="">
        <dc:format>image/svg+xml</dc:format>
        <dc:type rdf:resource="http://purl.org/dc/dcmitype/StillImage"/>
        <dc:title>zuv linux</dc:title>
      </cc:Work>
    </rdf:RDF>
  </metadata>
  <g inkscape:label="Ebene 1" inkscape:groupmode="layer" id="layer1">
    <rect style="fill:none;stroke:none;fill-opacity:1" id="rect2987" width="720" height="720" x="11.428572" y="178.07648"/>
    <g id="g4070" transform="translate(-1.4285713,-19.428571)" style="fill-opacity:1;fill:url(#linearGradient4088)">
      <path id="rect3142" d="m 134.9375,683.28125 0,184.125 520.59375,0 0,-184.125 -520.59375,0 z m 342.25,25.875 37.34375,0 38.1875,101.1875 38.125,-101.1875 37.34375,0 -53.375,137.09375 -44.28125,0 -53.34375,-137.09375 z m -311.71875,0.9375 121.09375,0 0,21.40625 -77.28125,88.96875 79.5,0 0,26.71875 -125.53125,0 0,-21.375 77.28125,-89 -75.0625,0 0,-26.71875 z m 163.5625,0 37.125,0 0,82.1875 c -6e-5,11.32536 1.95293,19.44634 5.8125,24.34375 3.92378,4.83623 10.28112,7.25003 19.09375,7.25 8.87679,3e-5 15.23414,-2.41377 19.09375,-7.25 3.92374,-4.89741 5.90615,-13.01839 5.90625,-24.34375 l 0,-82.1875 37.125,0 0,82.1875 c -1.5e-4,19.40613 -5.11616,33.85501 -15.34375,43.34375 -10.22783,9.48879 -25.81132,14.25 -46.78125,14.25 -20.90577,0 -36.49108,-4.76121 -46.71875,-14.25 -10.22774,-9.48874 -15.31252,-23.93762 -15.3125,-43.34375 l 0,-82.1875 z" style="fill:url(#linearGradient4094);fill-opacity:1;stroke:none" inkscape:connector-curvature="0"/>
      <path sodipodi:nodetypes="ccsssssssssssssssssccc" inkscape:connector-curvature="0" id="path3912" d="m 309.34415,681.43361 c -9.67094,-21.57781 -9.71574,-68.70565 -1.84867,-107.87911 0,0 -29.61841,15.82566 -54.96244,43.33594 -26.66791,28.94735 -21.36484,61.44433 -28.2333,48.38284 -5.76787,-10.96856 -7.02328,-51.94871 16.37193,-91.62564 22.45487,-38.08219 60.43372,-67.60733 85.63167,-104.18008 7.72273,-11.20894 11.1063,-25.09239 11.81138,-38.38224 1.08271,-20.40971 -1.88624,-29.8232 -9.99964,-48.81873 -11.55845,-27.06125 -14.15096,-59.58878 1.71165,-82.29415 16.49984,-23.61899 35.14075,-31.17853 65.40724,-29.48809 22.33049,1.2472 30.32331,3.98094 50.12406,5.05579 21.36902,1.16 37.91744,-1.46908 45.88279,1.53336 5.28494,1.99209 -23.32399,11.45408 -39.82446,26.14832 -11.61771,10.34598 -19.37987,26.29711 -22.51022,32.62379 -16.21301,32.76774 3.20496,51.27925 17.32187,84.87271 14.81256,35.24885 25.98121,56.98983 47.97227,83.1838 26.68668,31.78703 41.2667,53.98937 54.73443,92.30364 11.01043,31.32384 21.17854,62.60552 10.67026,67.77439 0,0 -18.23286,-38.68176 -42.53374,-65.17503 -13.15625,-14.34311 -33.02703,-23.47535 -33.02703,-23.47535 12.65081,66.04096 1.6734,83.53655 0.19615,106.10384 z" style="fill:url(#linearGradient4092);fill-opacity:1;stroke:none"/>
    </g>
  </g>
</svg>
