<?xml version="1.0" encoding="UTF-8" standalone="no"?>
<!-- Created with Inkscape (http://www.inkscape.org/) -->

<svg
   xmlns:dc="http://purl.org/dc/elements/1.1/"
   xmlns:cc="http://creativecommons.org/ns#"
   xmlns:rdf="http://www.w3.org/1999/02/22-rdf-syntax-ns#"
   xmlns:svg="http://www.w3.org/2000/svg"
   xmlns="http://www.w3.org/2000/svg"
   xmlns:xlink="http://www.w3.org/1999/xlink"
   xmlns:sodipodi="http://sodipodi.sourceforge.net/DTD/sodipodi-0.dtd"
   xmlns:inkscape="http://www.inkscape.org/namespaces/inkscape"
   width="210mm"
   height="297mm"
   viewBox="0 0 744.09448819 1052.3622047"
   id="svg2"
   version="1.1"
   inkscape:version="0.91 r13725"
   inkscape:export-xdpi="3.5989714"
   inkscape:export-ydpi="3.5989714"
   sodipodi:docname="database-mongo_db.svg"
   inkscape:export-filename="C:\Users\johannes\Documents\Arbeit\RRZE\github3\bicons\16x16\logos\database-mongo_db.png">
  <defs
     id="defs4">
    <inkscape:perspective
       sodipodi:type="inkscape:persp3d"
       inkscape:vp_x="0 : 526.1811 : 1"
       inkscape:vp_y="0 : 1000 : 0"
       inkscape:vp_z="744.09449 : 526.1811 : 1"
       inkscape:persp3d-origin="372.04724 : 350.7874 : 1"
       id="perspective4149" />
    <linearGradient
       id="linearGradient2224">
      <stop
         id="stop2226"
         offset="0"
         style="stop-color:#7c7c7c;stop-opacity:1;" />
      <stop
         id="stop2228"
         offset="1"
         style="stop-color:#b8b8b8;stop-opacity:1;" />
    </linearGradient>
    <linearGradient
       id="linearGradient15218">
      <stop
         id="stop15220"
         offset="0"
         style="stop-color:#eeeeef;stop-opacity:1;" />
      <stop
         id="stop2736"
         offset="0.59928656"
         style="stop-color:#d3d7cf;stop-opacity:1;" />
      <stop
         id="stop2738"
         offset="0.82758623"
         style="stop-color:#ffffff;stop-opacity:1;" />
      <stop
         id="stop15222"
         offset="1"
         style="stop-color:#d3d7cf;stop-opacity:1;" />
    </linearGradient>
    <pattern
       y="0"
       x="0"
       height="6"
       width="6"
       patternUnits="userSpaceOnUse"
       id="EMFhbasepattern" />
    <pattern
       y="0"
       x="0"
       height="6"
       width="6"
       patternUnits="userSpaceOnUse"
       id="EMFhbasepattern-5" />
    <linearGradient
       inkscape:collect="always"
       xlink:href="#linearGradient4265"
       id="linearGradient4271"
       x1="50"
       y1="400"
       x2="350.00195"
       y2="43.124779"
       gradientUnits="userSpaceOnUse"
       gradientTransform="matrix(1,0,0,1.0045913,189.88568,321.44395)" />
    <linearGradient
       inkscape:collect="always"
       id="linearGradient4265">
      <stop
         style="stop-color:#4e505d;stop-opacity:1;"
         offset="0"
         id="stop4267" />
      <stop
         style="stop-color:#7a859c;stop-opacity:1"
         offset="1"
         id="stop4269" />
    </linearGradient>
  </defs>
  <sodipodi:namedview
     id="base"
     pagecolor="#ffffff"
     bordercolor="#666666"
     borderopacity="1.0"
     inkscape:pageopacity="0.0"
     inkscape:pageshadow="2"
     inkscape:zoom="0.5"
     inkscape:cx="314.27685"
     inkscape:cy="347.83384"
     inkscape:document-units="px"
     inkscape:current-layer="layer1"
     showgrid="false"
     showguides="true"
     inkscape:guide-bbox="true"
     inkscape:window-width="1366"
     inkscape:window-height="721"
     inkscape:window-x="-4"
     inkscape:window-y="-4"
     inkscape:window-maximized="1"
     inkscape:snap-bbox="true"
     inkscape:bbox-paths="true"
     inkscape:bbox-nodes="true"
     inkscape:snap-nodes="false">
    <sodipodi:guide
       position="560,730.00002"
       orientation="0,1"
       id="guide3338" />
    <sodipodi:guide
       position="560,330.00001"
       orientation="0,1"
       id="guide3340" />
    <sodipodi:guide
       position="190,475.00001"
       orientation="1,0"
       id="guide3344" />
    <sodipodi:guide
       position="590,451.00001"
       orientation="1,0"
       id="guide3346" />
    <inkscape:grid
       type="xygrid"
       id="grid3440" />
  </sodipodi:namedview>
  <metadata
     id="metadata7">
    <rdf:RDF>
      <cc:Work
         rdf:about="">
        <dc:format>image/svg+xml</dc:format>
        <dc:type
           rdf:resource="http://purl.org/dc/dcmitype/StillImage" />
        <dc:title>database mongo db</dc:title>
        <dc:date>June 2015</dc:date>
        <dc:creator>
          <cc:Agent>
            <dc:title>Franziska Sponsel, Johannes Hechler</dc:title>
          </cc:Agent>
        </dc:creator>
        <dc:rights>
          <cc:Agent>
            <dc:title>Franziska Sponsel, Johannes Hechler</dc:title>
          </cc:Agent>
        </dc:rights>
        <dc:publisher>
          <cc:Agent>
            <dc:title>RRZE</dc:title>
          </cc:Agent>
        </dc:publisher>
        <dc:contributor>
          <cc:Agent>
            <dc:title>Ute Weber, Hendrik Eggers</dc:title>
          </cc:Agent>
        </dc:contributor>
      </cc:Work>
    </rdf:RDF>
  </metadata>
  <g
     inkscape:label="Ebene 1"
     inkscape:groupmode="layer"
     id="layer1">
    <g
       id="g4230">
      <flowRoot
         style="font-style:normal;font-weight:normal;font-size:40px;line-height:125%;font-family:sans-serif;letter-spacing:0px;word-spacing:0px;fill:#252525;fill-opacity:1;stroke:none;stroke-width:1px;stroke-linecap:butt;stroke-linejoin:miter;stroke-opacity:1"
         id="flowRoot4169-0"
         xml:space="preserve"
         transform="translate(0.8551769,0.09216517)"><flowRegion
           id="flowRegion4171-6"><rect
             y="427.07962"
             x="89.541069"
             height="88.78862"
             width="56.433445"
             id="rect4173-6" /></flowRegion><flowPara
           id="flowPara4175-2" /></flowRoot>      <rect
         inkscape:export-ydpi="4.9499998"
         inkscape:export-xdpi="4.9499998"
         y="322.36221"
         x="190"
         height="400"
         width="400"
         id="rect3336-1"
         style="fill:none;fill-rule:evenodd;stroke:none;stroke-width:1px;stroke-linecap:butt;stroke-linejoin:miter;stroke-opacity:1" />
      <rect
         inkscape:export-filename="C:\Users\johannes\Desktop\g4236.png"
         inkscape:export-ydpi="3.5999999"
         inkscape:export-xdpi="3.5999999"
         y="323.27579"
         x="189.88568"
         height="400"
         width="399.93808"
         id="rect4259-2"
         style="opacity:1;fill:none;fill-opacity:1;stroke:none;stroke-width:16;stroke-linecap:square;stroke-linejoin:round;stroke-miterlimit:4;stroke-dasharray:none;stroke-opacity:1" />
      <path
         id="path4239"
         d="M 389.88477 322.36133 A 175 87.442854 0 0 0 214.88477 409.80469 A 175 87.442854 0 0 0 216.75977 421.90234 L 214.88477 421.90234 C 219.81675 439.54259 235.38226 455.00342 258.01562 467.125 A 175 87.442854 0 0 0 389.88477 497.24805 A 175 87.442854 0 0 0 444.00977 492.88672 C 448.3258 486.71277 452.70819 480.68143 456.6875 474.43945 C 465.9242 459.95069 472.29148 445.82935 472.78711 434.29102 C 473.15195 425.79747 475.02289 418.3671 478.62695 411.88477 C 480.42899 408.6436 482.57528 405.63951 485.94141 402.68555 C 488.88677 400.10083 492.10594 396.02001 501.45508 395.69141 C 502.79008 395.64448 504.25147 395.67358 505.85352 395.79492 L 505.85547 395.79492 C 511.20926 396.20129 518.32279 399.95583 523.13477 405.02539 L 521.68359 402.94922 C 521.68359 402.94922 529.1531 409.84543 535.85938 418.9707 C 538.15945 422.10037 545.46914 429.75666 553.11523 437.38281 C 553.96458 438.22995 554.82431 439.08338 555.67969 439.93164 C 559.99789 434.23578 563.12172 428.20824 564.88477 421.90234 L 562.99023 421.90234 A 175 87.442854 0 0 0 564.88477 409.80469 A 175 87.442854 0 0 0 389.88477 322.36133 z M 214.88477 465.94727 L 214.88477 497.24805 C 226.95261 540.41118 302.66327 570.53421 389.88477 570.58203 C 399.17866 570.57643 408.33107 570.21092 417.30078 569.54297 C 417.25416 554.56806 419.92742 538.7787 426.93359 522.26953 C 414.92545 523.63709 402.54655 524.37109 389.88477 524.37109 C 338.19974 524.37109 291.2165 512.21561 255.00781 494.12305 C 239.81252 486.53038 225.91292 477.11003 214.88477 465.94727 z M 515.25195 470.21094 C 515.16157 470.44043 515.06221 470.66208 514.9707 470.89062 A 175 87.442854 0 0 0 515.61133 470.57227 C 515.49132 470.4521 515.37205 470.33001 515.25195 470.21094 z M 533.59375 489.41016 C 530.7073 491.05072 527.76127 492.62425 524.76172 494.12305 C 515.64191 498.67998 505.83902 502.86018 495.44922 506.56445 C 485.59746 521.61553 476.40149 534.17622 473.8457 539.77148 C 470.03374 548.11688 467.82474 555.36951 466.87891 562.19727 C 471.99511 561.02047 476.96888 559.71864 481.80859 558.31641 L 486.05078 526.16602 A 25.0025 25.0025 0 0 1 535.44922 525.05273 L 536.88281 533.10352 C 543.09991 528.63231 548.46444 523.83319 552.85938 518.74805 C 548.33858 510.03406 542.02155 500.77412 534.99414 491.15625 C 534.64941 490.68444 534.15472 490.07695 533.59375 489.41016 z M 214.88477 541.29297 L 214.88477 572.5918 C 226.95261 615.75494 302.66327 645.87991 389.88477 645.92773 C 405.7044 645.91819 421.13672 644.90616 435.88867 643.01953 C 433.60477 638.64891 431.53014 634.07038 429.75781 629.24805 C 426.17485 619.49916 422.83242 609.15973 420.51172 598.27734 C 410.5258 599.21407 400.30245 599.71484 389.88477 599.71484 C 338.19974 599.71484 291.2165 587.56131 255.00781 569.46875 C 239.81252 561.87608 225.91292 552.45574 214.88477 541.29297 z M 561.91992 544.17578 C 555.84563 549.90149 549.01602 555.14294 541.65234 559.88281 L 548.5625 598.67578 C 556.64511 590.71078 562.26578 581.95915 564.88477 572.5918 L 564.88477 565.25195 C 564.55292 558.16932 563.54635 551.15678 561.91992 544.17578 z M 477.95703 587.51758 C 475.11111 588.33415 472.23013 589.1155 469.31445 589.85938 C 470.84468 595.4309 472.88661 601.32121 475.26953 607.88281 L 477.95703 587.51758 z M 214.88477 616.63672 L 214.88477 634.91992 L 214.88477 647.93555 C 227.76613 690.69227 303.35136 722.32473 389.88477 722.36133 C 416.15142 722.34463 441.39967 719.4027 464.20703 714.13672 C 464.39848 710.79444 464.6468 706.33532 464.90234 701.38867 C 465.35462 692.63385 465.60086 682.4182 465.66016 681.81836 C 461.57668 677.83024 457.46038 673.49484 453.47461 668.80469 C 433.46868 672.80657 412.11307 675.06055 389.88477 675.06055 C 338.19974 675.06055 291.2165 664.91483 255.00781 646.82227 C 239.81252 639.22961 225.91292 627.79949 214.88477 616.63672 z "
         style="color:#000000;clip-rule:nonzero;display:inline;overflow:visible;visibility:visible;opacity:1;isolation:auto;mix-blend-mode:normal;color-interpolation:sRGB;color-interpolation-filters:linearRGB;solid-color:#000000;solid-opacity:1;fill:url(#linearGradient4271);fill-opacity:1;fill-rule:nonzero;stroke:none;stroke-width:4;stroke-linecap:butt;stroke-linejoin:round;stroke-miterlimit:4;stroke-dasharray:none;stroke-dashoffset:0;stroke-opacity:1;color-rendering:auto;image-rendering:auto;shape-rendering:auto;text-rendering:auto;enable-background:accumulate" />
      <flowRoot
         style="font-style:normal;font-weight:normal;font-size:40px;line-height:125%;font-family:sans-serif;letter-spacing:0px;word-spacing:0px;fill:#252525;fill-opacity:1;stroke:none;stroke-width:1px;stroke-linecap:butt;stroke-linejoin:miter;stroke-opacity:1"
         id="flowRoot4169"
         xml:space="preserve"
         transform="translate(0.85515,0.09215)"><flowRegion
           id="flowRegion4171"><rect
             y="427.07962"
             x="89.541069"
             height="88.78862"
             width="56.433445"
             id="rect4173" /></flowRegion><flowPara
           id="flowPara4175" /></flowRoot>      <rect
         inkscape:export-ydpi="4.9499998"
         inkscape:export-xdpi="4.9499998"
         y="322.36221"
         x="190"
         height="400"
         width="400"
         id="rect3336"
         style="fill:none;fill-rule:evenodd;stroke:none;stroke-width:1px;stroke-linecap:butt;stroke-linejoin:miter;stroke-opacity:1" />
      <rect
         inkscape:export-filename="C:\Users\johannes\Desktop\g4236.png"
         inkscape:export-ydpi="3.5999999"
         inkscape:export-xdpi="3.5999999"
         y="323.27579"
         x="189.88567"
         height="400"
         width="399.93808"
         id="rect4259"
         style="opacity:1;fill:none;fill-opacity:1;stroke:none;stroke-width:16;stroke-linecap:square;stroke-linejoin:round;stroke-miterlimit:4;stroke-dasharray:none;stroke-opacity:1" />
      <path
         id="path3836-3"
         d="m 503.96546,420.72411 c -1.48997,-0.11292 -5.7462,4.05515 -6.20088,14.64028 -1.61848,37.67873 -36.1533,71.02005 -46.6594,94.0206 -15.95497,34.92958 -8.91173,61.23114 2.11717,91.23965 7.50458,20.41921 23.76229,38.43591 38.07346,51.04912 -0.2853,1.87206 -0.67922,5.94547 -0.60386,7.98906 0.24446,6.62932 -1.82766,41.05908 -1.82766,41.05908 l 51.23104,1.6403 c 0.11089,-8.8628 -0.99319,-44.27237 -1.74871,-50.73211 5.90925,-4.79833 11.2868,-4.97698 16.45701,-10.75602 6.82079,-7.62398 14.04833,-16.50507 18.74446,-25.36351 4.35523,-8.21538 8.54578,-16.48969 10.88407,-25.36206 3.94968,-14.98648 6.13025,-30.36418 5.44204,-45.76457 -0.69875,-15.6362 -4.03037,-30.91393 -9.67489,-45.76311 -5.72769,-15.06785 -15.32149,-28.94158 -25.01846,-42.21307 -8.88576,-12.16123 -30.54421,-30.49333 -39.46574,-42.63269 -4.81827,-6.55625 -11.29931,-12.74683 -11.29931,-12.74683 -0.0808,-0.18464 -0.23748,-0.28799 -0.45034,-0.30412 z m 6.87053,108.71205 25.32934,142.21726 -44.21887,0.94146 z"
         style="fill:#99b000;fill-opacity:1;stroke:none;stroke-width:3.88960695;stroke-linecap:butt;stroke-linejoin:round;stroke-miterlimit:4;stroke-dasharray:none;stroke-opacity:1"
         inkscape:connector-curvature="0"
         sodipodi:nodetypes="cssscscccssssssscccccc" />
    </g>
  </g>
</svg>
