<?xml version="1.0" encoding="UTF-8" standalone="no"?>
<!-- Created with Inkscape (http://www.inkscape.org/) -->

<svg
   xmlns:a="http://ns.adobe.com/AdobeSVGViewerExtensions/3.0/"
   xmlns:dc="http://purl.org/dc/elements/1.1/"
   xmlns:cc="http://creativecommons.org/ns#"
   xmlns:rdf="http://www.w3.org/1999/02/22-rdf-syntax-ns#"
   xmlns:svg="http://www.w3.org/2000/svg"
   xmlns="http://www.w3.org/2000/svg"
   xmlns:xlink="http://www.w3.org/1999/xlink"
   xmlns:sodipodi="http://sodipodi.sourceforge.net/DTD/sodipodi-0.dtd"
   xmlns:inkscape="http://www.inkscape.org/namespaces/inkscape"
   width="210mm"
   height="297mm"
   viewBox="0 0 744.09448819 1052.3622047"
   id="svg2"
   version="1.1"
   inkscape:version="0.91 r13725"
   inkscape:export-xdpi="3.5979435"
   inkscape:export-ydpi="3.5979435"
   sodipodi:docname="database-firebird.svg"
   inkscape:export-filename="C:\Users\johannes\Documents\Arbeit\RRZE\github3\bicons\16x16\logos\database-firebird.png">
  <defs
     id="defs4">
    <inkscape:perspective
       sodipodi:type="inkscape:persp3d"
       inkscape:vp_x="0 : 526.1811 : 1"
       inkscape:vp_y="0 : 1000 : 0"
       inkscape:vp_z="744.09449 : 526.1811 : 1"
       inkscape:persp3d-origin="372.04724 : 350.7874 : 1"
       id="perspective4149" />
    <linearGradient
       id="linearGradient2224">
      <stop
         id="stop2226"
         offset="0"
         style="stop-color:#7c7c7c;stop-opacity:1;" />
      <stop
         id="stop2228"
         offset="1"
         style="stop-color:#b8b8b8;stop-opacity:1;" />
    </linearGradient>
    <linearGradient
       id="linearGradient15218">
      <stop
         id="stop15220"
         offset="0"
         style="stop-color:#eeeeef;stop-opacity:1;" />
      <stop
         id="stop2736"
         offset="0.59928656"
         style="stop-color:#d3d7cf;stop-opacity:1;" />
      <stop
         id="stop2738"
         offset="0.82758623"
         style="stop-color:#ffffff;stop-opacity:1;" />
      <stop
         id="stop15222"
         offset="1"
         style="stop-color:#d3d7cf;stop-opacity:1;" />
    </linearGradient>
    <pattern
       y="0"
       x="0"
       height="6"
       width="6"
       patternUnits="userSpaceOnUse"
       id="EMFhbasepattern" />
    <pattern
       y="0"
       x="0"
       height="6"
       width="6"
       patternUnits="userSpaceOnUse"
       id="EMFhbasepattern-5" />
    <linearGradient
       gradientUnits="userSpaceOnUse"
       id="XMLID_2_-4"
       x1="216.1084"
       x2="216.1084"
       y1="348.98831"
       y2="7.2768998">
      <stop
         id="stop12094-0"
         offset="0"
         style="stop-color:#cc0000;stop-opacity:1;" />
      <stop
         id="stop12096-9"
         offset="1"
         style="stop-color:#edd400;stop-opacity:1;" />
      <a:midPointStop
         offset="0"
         style="stop-color:#F40A0B" />
      <a:midPointStop
         offset="0.5"
         style="stop-color:#F40A0B" />
      <a:midPointStop
         offset="1"
         style="stop-color:#F5E710" />
    </linearGradient>
    <linearGradient
       inkscape:collect="always"
       xlink:href="#linearGradient4265"
       id="linearGradient4271"
       x1="50"
       y1="400"
       x2="350.00195"
       y2="43.124779"
       gradientUnits="userSpaceOnUse"
       gradientTransform="matrix(1,0,0,1.0045913,190,320.53035)" />
    <linearGradient
       inkscape:collect="always"
       id="linearGradient4265">
      <stop
         style="stop-color:#4e505d;stop-opacity:1;"
         offset="0"
         id="stop4267" />
      <stop
         style="stop-color:#7a859c;stop-opacity:1"
         offset="1"
         id="stop4269" />
    </linearGradient>
  </defs>
  <sodipodi:namedview
     id="base"
     pagecolor="#ffffff"
     bordercolor="#666666"
     borderopacity="1.0"
     inkscape:pageopacity="0.0"
     inkscape:pageshadow="2"
     inkscape:zoom="0.5886349"
     inkscape:cx="210.619"
     inkscape:cy="528.16893"
     inkscape:document-units="px"
     inkscape:current-layer="layer1"
     showgrid="false"
     showguides="true"
     inkscape:guide-bbox="true"
     inkscape:window-width="1366"
     inkscape:window-height="721"
     inkscape:window-x="-4"
     inkscape:window-y="-4"
     inkscape:window-maximized="1"
     inkscape:snap-bbox="true"
     inkscape:bbox-paths="true"
     inkscape:bbox-nodes="true">
    <sodipodi:guide
       position="560,730.00002"
       orientation="0,1"
       id="guide3338" />
    <sodipodi:guide
       position="560,330.00001"
       orientation="0,1"
       id="guide3340" />
    <sodipodi:guide
       position="190,475.00001"
       orientation="1,0"
       id="guide3344" />
    <sodipodi:guide
       position="590,451.00001"
       orientation="1,0"
       id="guide3346" />
    <inkscape:grid
       type="xygrid"
       id="grid3440" />
  </sodipodi:namedview>
  <metadata
     id="metadata7">
    <rdf:RDF>
      <cc:Work
         rdf:about="">
        <dc:format>image/svg+xml</dc:format>
        <dc:type
           rdf:resource="http://purl.org/dc/dcmitype/StillImage" />
        <dc:title>database firebird</dc:title>
        <dc:date>June 2015</dc:date>
        <dc:creator>
          <cc:Agent>
            <dc:title>Franziska Sponsel, Johannes Hechler</dc:title>
          </cc:Agent>
        </dc:creator>
        <dc:rights>
          <cc:Agent>
            <dc:title>Franziska Sponsel, Johannes Hechler</dc:title>
          </cc:Agent>
        </dc:rights>
        <dc:publisher>
          <cc:Agent>
            <dc:title>RRZE</dc:title>
          </cc:Agent>
        </dc:publisher>
        <dc:contributor>
          <cc:Agent>
            <dc:title>Ute Weber, Hendrik Eggers</dc:title>
          </cc:Agent>
        </dc:contributor>
      </cc:Work>
    </rdf:RDF>
  </metadata>
  <g
     inkscape:label="Ebene 1"
     inkscape:groupmode="layer"
     id="layer1">
    <g
       id="g4204">
      <flowRoot
         style="font-style:normal;font-weight:normal;font-size:40px;line-height:125%;font-family:sans-serif;letter-spacing:0px;word-spacing:0px;fill:#252525;fill-opacity:1;stroke:none;stroke-width:1px;stroke-linecap:butt;stroke-linejoin:miter;stroke-opacity:1"
         id="flowRoot4169-8"
         xml:space="preserve"
         transform="translate(0.969488,-0.82143906)"><flowRegion
           id="flowRegion4171-1"><rect
             y="427.07962"
             x="89.541069"
             height="88.78862"
             width="56.433445"
             id="rect4173-6" /></flowRegion><flowPara
           id="flowPara4175-5" /></flowRoot>      <rect
         inkscape:export-ydpi="4.9499998"
         inkscape:export-xdpi="4.9499998"
         y="321.44864"
         x="190.11433"
         height="400"
         width="400"
         id="rect3336-8"
         style="fill:none;fill-rule:evenodd;stroke:none;stroke-width:1px;stroke-linecap:butt;stroke-linejoin:miter;stroke-opacity:1" />
      <rect
         inkscape:export-filename="C:\Users\johannes\Desktop\g4236.png"
         inkscape:export-ydpi="3.5999999"
         inkscape:export-xdpi="3.5999999"
         y="322.36221"
         x="190"
         height="400"
         width="399.93808"
         id="rect4259-2"
         style="opacity:1;fill:none;fill-opacity:1;stroke:none;stroke-width:16;stroke-linecap:square;stroke-linejoin:round;stroke-miterlimit:4;stroke-dasharray:none;stroke-opacity:1" />
      <path
         id="path4239"
         d="M 390 321.44922 A 175 87.442854 0 0 0 215 408.89062 A 175 87.442854 0 0 0 216.875 420.99023 L 215 420.99023 C 219.93198 438.63048 235.49749 454.08936 258.13086 466.21094 A 175 87.442854 0 0 0 337.08398 492.08008 C 337.8188 491.17189 338.5649 490.26895 339.32227 489.375 C 340.10761 488.44806 340.89097 487.54773 341.66797 486.67188 A 25.0025 25.0025 0 0 0 341.66797 486.66992 C 344.83231 483.10301 348.15998 479.67859 351.64258 476.4082 C 352.52169 475.58267 353.4016 474.77733 354.28125 473.98828 C 355.14787 473.21088 356.04364 472.42085 356.97266 471.625 C 357.88472 470.84366 358.80316 470.0758 359.72461 469.32227 C 360.63482 468.57792 361.56868 467.83005 362.52734 467.08203 C 363.50008 466.32302 364.45393 465.60081 365.38477 464.9082 C 368.25895 462.7697 371.21838 460.71733 374.26172 458.76367 C 378.31492 456.16177 382.49359 453.74777 386.7832 451.52539 C 388.91896 450.41889 391.0957 449.35017 393.31641 448.32812 A 25.0025 25.0025 0 0 0 393.31836 448.32812 C 394.4188 447.82168 395.52768 447.32612 396.64844 446.8418 A 25.0025 25.0025 0 0 1 396.70898 446.81836 C 397.7949 446.34958 398.89939 445.88635 400.02344 445.43164 C 401.14413 444.97829 402.28253 444.53157 403.4375 444.0957 C 404.58733 443.66177 405.73831 443.24391 406.89062 442.83984 A 25.0025 25.0025 0 0 0 406.89258 442.83984 C 408.07869 442.42396 409.24441 442.03252 410.38672 441.66211 C 413.89043 440.52596 417.456 439.50668 421.08008 438.61133 C 422.28911 438.31262 423.49845 438.02877 424.71094 437.75977 A 25.0025 25.0025 0 0 0 424.71289 437.75977 C 427.13918 437.2215 429.59325 436.73549 432.07422 436.30859 C 433.31137 436.09572 434.55345 435.89847 435.79883 435.71484 C 438.30409 435.34547 440.81385 435.03889 443.32812 434.79102 C 444.56072 434.66949 445.80735 434.5609 447.06641 434.4668 C 447.84355 434.407 448.6229 434.37505 449.40234 434.37305 A 25.0025 25.0025 0 0 1 449.47461 434.37305 C 451.86317 434.37301 454.18096 434.78818 456.44727 435.39258 A 25.0025 25.0025 0 0 1 457.28906 435.11719 C 457.8067 434.98374 458.31827 434.85436 458.84375 434.75 A 25.0025 25.0025 0 0 1 462.82812 434.2207 A 25.0025 25.0025 0 0 1 462.9707 434.21484 A 25.0025 25.0025 0 0 1 463.64062 434.19336 C 463.73336 434.19166 463.82116 434.16287 463.91406 434.16211 L 463.89062 434.18555 A 25.0025 25.0025 0 0 1 464.57031 434.16406 C 464.76651 434.16756 464.96212 434.1805 465.1582 434.1875 A 25.0025 25.0025 0 0 1 465.35547 434.18555 C 469.81779 434.35482 469.84314 434.36234 465.43359 434.19531 A 25.0025 25.0025 0 0 1 465.79297 434.21289 C 465.84961 434.21589 465.90629 434.2167 465.96289 434.2207 L 465.96094 434.22266 A 25.0025 25.0025 0 0 1 466.04102 434.22656 C 466.16959 434.23458 466.29733 434.25219 466.42578 434.26172 C 492.56626 435.57078 516.9981 443.3314 538.20117 455.94922 C 551.94745 445.78479 561.36753 433.98254 565 420.99023 L 563.10547 420.99023 A 175 87.442854 0 0 0 565 408.89062 A 175 87.442854 0 0 0 390 321.44922 z M 215 465.03516 L 215 496.33398 C 222.87067 524.48507 257.82195 547.08228 305.37305 559.41406 C 305.54378 558.56749 305.71201 557.72263 305.90039 556.86328 C 306.16877 555.63908 306.44725 554.43917 306.73438 553.26367 C 307.02866 552.05878 307.3361 550.86883 307.65234 549.69531 C 308.28975 547.33018 308.98208 544.98305 309.72852 542.65625 C 310.09753 541.50596 310.48188 540.35074 310.88477 539.18945 C 312.48222 534.58473 314.28802 530.08134 316.28711 525.69141 C 316.76693 524.63777 317.27611 523.54319 317.82227 522.41406 C 318.3491 521.32489 318.88651 520.24698 319.43359 519.17969 C 319.97513 518.1232 320.51992 517.09582 321.06445 516.08984 C 296.64905 510.7618 274.36449 502.8254 255.12305 493.21094 C 239.92776 485.61827 226.02815 476.19792 215 465.03516 z M 565 465.03516 C 563.07646 466.98217 561.06059 468.87235 558.9707 470.71289 C 561.02661 472.44057 563.03613 474.222 565 476.05078 L 565 465.03516 z M 441.67969 539.2168 A 25.0025 25.0025 0 0 1 441.64648 539.26953 A 25.0025 25.0025 0 0 1 454.25 545.8457 C 453.96309 545.55984 453.66844 545.28193 453.36328 545.01562 C 455.84572 547.17334 456.79336 547.29288 459.81641 551.96875 C 460.53939 552.5379 463.59179 554.81463 464.7793 561.76758 C 466.75037 561.3301 468.69804 560.87352 470.63086 560.40234 A 25.0025 25.0025 0 0 1 464.45508 546.59961 C 459.08948 545.07692 453.14334 543.06009 446.6543 540.68555 C 446.76154 540.73791 447.1483 540.92153 447.0918 540.89453 C 447.03948 540.86957 446.0354 540.48346 445.43945 540.23633 C 445.04029 540.08911 444.63901 539.94328 444.23438 539.79297 C 443.79909 539.64391 442.54389 539.42231 441.67969 539.2168 z M 215 540.37891 L 215 571.67773 C 223.06612 600.5279 259.58464 623.53629 308.94922 635.64844 C 304.61031 621.31137 302.27734 606.12238 302.27734 590.41797 C 302.27734 589.17559 302.29349 587.94292 302.32227 586.7168 C 285.179 581.82333 269.31969 575.64839 255.12305 568.55469 C 239.92776 560.96202 226.02815 551.54168 215 540.37891 z M 454.27539 545.86914 C 454.27809 545.87144 454.28511 545.88081 454.28711 545.88281 L 454.28906 545.88086 C 454.28436 545.87616 454.27939 545.87314 454.27539 545.86914 z M 416.48047 549.30273 C 416.26332 549.50934 415.42965 550.3028 415.42969 550.30273 C 415.42973 550.30267 415.08535 551.38691 414.99805 551.66211 A 25.0025 25.0025 0 0 1 416.48047 549.30273 z M 421.44727 551.58594 C 421.36315 551.61373 421.2023 551.71143 420.94727 551.95312 C 421.05033 551.88337 421.45223 551.66532 421.49023 551.63672 C 421.53877 551.60025 421.53138 551.55814 421.44727 551.58594 z M 472.06836 588.26367 C 464.57821 590.24617 456.85522 591.97986 448.93164 593.44141 C 446.59821 595.00276 444.02236 596.49816 441.10938 597.93945 A 25.0025 25.0025 0 0 1 437.85742 599.27344 C 416.2221 606.41356 409.33723 614.90646 408.1543 627.87695 L 408.1543 634.76953 C 408.5004 638.00499 408.94536 641.14685 409.48438 644.32031 A 25.0025 25.0025 0 0 1 409.50391 644.47461 C 426.49997 643.57844 442.88101 641.5469 458.23438 638.49414 C 457.56981 637.36247 456.96779 636.19316 456.47461 634.96875 C 451.90406 623.6214 455.90503 608.76201 463.08984 599.81055 A 25.0025 25.0025 0 0 1 463.82617 598.93359 C 467.23117 595.06826 469.92717 591.52532 472.06836 588.26367 z M 215 615.72266 L 215 634.00586 L 215 647.02344 C 227.01603 686.9079 293.60009 717.09996 372.73047 721.00781 C 352.26449 707.50659 335.17451 689.33958 322.95508 668.04688 C 297.80076 663.26321 274.85879 655.76965 255.12305 645.9082 C 239.92776 638.31554 226.02815 626.88543 215 615.72266 z M 561.26172 619.33008 C 559.95034 620.54458 558.6042 621.73635 557.22656 622.90625 C 556.59185 623.79597 555.93587 624.67017 555.25391 625.52734 C 542.1634 641.9809 522.12161 651.81681 499.375 654.94922 C 468.47904 666.47078 432.13893 673.7664 393.01758 674.125 C 398.94693 678.77106 405.38708 682.78312 412.22852 686.10938 A 25.0025 25.0025 0 0 1 434.6543 688.05078 C 439.37954 690.97927 444.92056 693.66258 450.49609 695.39258 A 25.0025 25.0025 0 0 1 450.56445 695.41406 C 455.26282 696.88661 459.43651 697.51322 463.09375 697.33203 A 25.0025 25.0025 0 0 1 463.42383 697.31836 L 463.20117 697.32617 C 511.42487 695.13245 549.63868 663.92898 561.26172 619.33008 z M 408.13086 635.15625 A 25.0025 25.0025 0 0 1 408.1543 635.52344 L 408.1543 635.86914 C 408.1543 636.14546 408.15725 636.32023 408.15625 636.26953 C 408.15615 636.26673 408.17959 636.33862 408.18359 636.35352 L 408.20703 636.35352 C 408.20703 636.37642 408.20508 636.40338 408.20508 636.42578 C 408.28269 636.72066 408.30247 636.51455 408.1543 635.32422 C 408.15422 635.32322 408.15437 635.32131 408.1543 635.32031 C 408.1543 635.32031 408.1543 635.31836 408.1543 635.31836 C 408.1494 635.27867 408.13686 635.20095 408.13086 635.15625 z "
         style="color:#000000;clip-rule:nonzero;display:inline;overflow:visible;visibility:visible;opacity:1;isolation:auto;mix-blend-mode:normal;color-interpolation:sRGB;color-interpolation-filters:linearRGB;solid-color:#000000;solid-opacity:1;fill:url(#linearGradient4271);fill-opacity:1;fill-rule:nonzero;stroke:none;stroke-width:4;stroke-linecap:butt;stroke-linejoin:round;stroke-miterlimit:4;stroke-dasharray:none;stroke-dashoffset:0;stroke-opacity:1;color-rendering:auto;image-rendering:auto;shape-rendering:auto;text-rendering:auto;enable-background:accumulate" />
      <flowRoot
         style="font-style:normal;font-weight:normal;font-size:40px;line-height:125%;font-family:sans-serif;letter-spacing:0px;word-spacing:0px;fill:#252525;fill-opacity:1;stroke:none;stroke-width:1px;stroke-linecap:butt;stroke-linejoin:miter;stroke-opacity:1"
         id="flowRoot4169"
         xml:space="preserve"
         transform="translate(0.85515,0.09215)"><flowRegion
           id="flowRegion4171"><rect
             y="427.07962"
             x="89.541069"
             height="88.78862"
             width="56.433445"
             id="rect4173" /></flowRegion><flowPara
           id="flowPara4175" /></flowRoot>      <rect
         inkscape:export-ydpi="4.9499998"
         inkscape:export-xdpi="4.9499998"
         y="322.36221"
         x="190"
         height="400"
         width="400"
         id="rect3336"
         style="fill:none;fill-rule:evenodd;stroke:none;stroke-width:1px;stroke-linecap:butt;stroke-linejoin:miter;stroke-opacity:1" />
      <rect
         inkscape:export-filename="C:\Users\johannes\Desktop\g4236.png"
         inkscape:export-ydpi="3.5999999"
         inkscape:export-xdpi="3.5999999"
         y="323.27579"
         x="189.88567"
         height="400"
         width="399.93808"
         id="rect4259"
         style="opacity:1;fill:none;fill-opacity:1;stroke:none;stroke-width:16;stroke-linecap:square;stroke-linejoin:round;stroke-miterlimit:4;stroke-dasharray:none;stroke-opacity:1" />
      <path
         inkscape:connector-curvature="0"
         id="path12091-4"
         d="m 464.11715,459.16005 0,0.002 a 6.6006599,6.6006599 0 0 0 -1.72461,12.95703 l -0.0977,-0.0137 c 27.58446,7.91799 48.52131,18.69033 63.03516,31.91797 14.41921,13.14137 22.67523,28.58713 25.34961,47.1875 0.49436,26.62282 -4.83085,45.98254 -14.99024,58.75195 -10.10343,12.69907 -25.25045,19.72663 -47.18554,20.9375 -5.54192,-0.85147 -7.96395,-3.09688 -8.83985,-5.27148 -0.90468,-2.24606 -0.72793,-5.62267 2.92188,-10.16992 15.49228,-17.58675 23.30459,-34.72068 21.31445,-51.26368 a 6.6006599,6.6006599 0 0 0 -0.0215,-0.16211 c -0.91448,-6.28248 -4.72106,-11.72375 -10.17188,-16.63281 -1.35842,-1.22341 -2.83333,-2.42727 -4.42383,-3.61523 1.73428,0.0185 3.44332,-0.0862 5.13672,-0.55469 2.55714,-0.7075 5.20606,-2.32167 6.85938,-4.75391 3.30663,-4.86447 2.33171,-10.30647 0.44531,-15.62109 a 6.6006599,6.6006599 0 0 0 -12.80274,2.51563 c -0.82643,0.0968 -1.93223,0.19673 -3.52539,0.0508 -7.04699,-0.64564 -20.14339,-4.29971 -37.99414,-11.10743 -1.19302,-0.46685 -2.41602,-0.94702 -3.71875,-1.43554 a 6.6006599,6.6006599 0 0 0 -0.80273,-0.24414 c -7.00241,-1.65122 -13.91017,-1.68744 -18.7168,3.13281 -2.94772,2.95607 -3.94661,6.72346 -4.01367,10.78125 -3.71524,0.21201 -7.15946,0.67461 -10.17383,1.83398 a 6.6006599,6.6006599 0 0 0 -1.03711,0.50782 c -4.75641,2.86531 -8.53261,5.74295 -11.35937,9.07031 -2.82677,3.32736 -4.79104,7.46552 -4.53516,11.92383 0.25588,4.4583 2.69394,8.35246 5.89649,11.31445 3.20254,2.96199 7.29298,5.34997 12.35546,7.60156 a 6.6006599,6.6006599 0 0 0 9.19727,-4.97265 c 0.15078,-0.9298 -0.0543,-0.82555 1.42969,-1.51172 1.37795,-0.63715 4.50351,-1.20084 8.83984,-1.17383 3.74355,1.23854 6.11043,2.67879 5.83008,2.39844 a 6.6006599,6.6006599 0 0 0 0.33203,0.31054 c 1.37431,1.19699 2.23938,2.21273 2.50391,2.64258 a 6.6006599,6.6006599 0 0 0 0.11523,0.17969 c 0.93821,1.41934 0.93819,0.62367 0,2.04297 a 6.6006599,6.6006599 0 0 0 -0.043,0.0644 c -0.83489,1.29627 -3.98954,4.03611 -9.47851,6.75195 -27.99836,9.24007 -44.9138,26.83467 -46.84766,50.74414 a 6.6006599,6.6006599 0 0 0 -0.0215,0.53321 l 0,9.05859 c 0,1.64063 0.0527,1.78771 0.0527,0.47461 a 6.6006599,6.6006599 0 0 0 0.0352,0.68359 c 0.41728,3.9996 0.97007,7.79509 1.5957,11.47852 -33.78533,-42.38263 -34.84473,-80.95799 -20.08789,-111.89062 15.70431,-32.91867 50.67144,-57.18922 86.00391,-64.16602 a 6.6006599,6.6006599 0 0 0 -1.2793,-13.07618 6.6006599,6.6006599 0 0 0 -0.48828,0.0195 c -1.07527,0.0799 -2.14462,0.1728 -3.20508,0.27735 -2.12638,0.20963 -4.23793,0.46801 -6.33594,0.77734 -1.0486,0.15461 -2.09173,0.3212 -3.13086,0.5 -2.0794,0.3578 -4.14379,0.76536 -6.1875,1.21875 -1.02288,0.22694 -2.03942,0.46498 -3.05078,0.71485 -3.038,0.75056 -6.03164,1.60692 -8.97851,2.5625 -0.97711,0.31684 -1.95625,0.64559 -2.9336,0.98828 -0.97028,0.34023 -1.93585,0.69142 -2.89844,1.05469 -0.96573,0.36444 -1.92205,0.73876 -2.86718,1.12109 -0.9491,0.38394 -1.89295,0.77973 -2.83203,1.18555 l 0,-0.002 c -0.93713,0.40497 -1.86915,0.82108 -2.79688,1.24804 -1.85479,0.85364 -3.68387,1.74977 -5.48633,2.6836 -3.60729,1.86888 -7.11532,3.8973 -10.51562,6.08008 -2.55031,1.63716 -5.03723,3.36022 -7.45899,5.1621 -0.80464,0.59871 -1.60654,1.20718 -2.40234,1.82813 -0.79614,0.62121 -1.58073,1.24925 -2.35547,1.88281 -0.77511,0.63386 -1.54677,1.27957 -2.3125,1.93555 -0.76624,0.65639 -1.51977,1.31902 -2.26367,1.98633 -0.74896,0.67182 -1.48886,1.34975 -2.21875,2.03515 -2.92605,2.74775 -5.72407,5.62751 -8.38672,8.62891 -0.66471,0.74929 -1.32334,1.50705 -1.97266,2.27344 -1.29684,1.53072 -2.5586,3.09228 -3.78515,4.68164 -0.61042,0.79096 -1.21644,1.5917 -1.81446,2.4043 -0.59555,0.80925 -1.18117,1.62498 -1.75781,2.44726 -0.57709,0.82295 -1.14498,1.65231 -1.70312,2.48828 -0.55926,0.83764 -1.10605,1.68129 -1.64453,2.5293 -0.53935,0.84934 -1.07138,1.70567 -1.5918,2.56836 -0.52123,0.86404 -1.02943,1.73202 -1.5293,2.60547 -0.50081,0.87509 -0.99345,1.75695 -1.47461,2.64453 -0.4791,0.88378 -0.95109,1.77648 -1.41406,2.67969 -0.46163,0.90058 -0.91324,1.80655 -1.35352,2.71679 -0.44292,0.9157 -0.871,1.83395 -1.28906,2.75196 -1.68039,3.69008 -3.19571,7.46909 -4.53515,11.33007 -0.33504,0.96574 -0.6581,1.93568 -0.97071,2.91016 -0.62529,1.94917 -1.20633,3.91986 -1.74219,5.9082 -0.26736,0.99212 -0.52425,1.9899 -0.76953,2.99414 -0.24432,1.00028 -0.47893,2.00777 -0.70117,3.02149 -0.22288,1.01673 -0.43181,2.03109 -0.6289,3.04492 -0.19742,1.01548 -0.38548,2.03905 -0.56055,3.07031 -0.1742,1.02615 -0.33582,2.05755 -0.48633,3.09375 -0.15105,1.03987 -0.28868,2.078 -0.41406,3.11524 -0.12604,1.04268 -0.23855,2.08998 -0.33985,3.13867 -0.20243,2.09551 -0.35835,4.2055 -0.46093,6.33203 -0.0514,1.065 -0.0876,2.13059 -0.11328,3.19531 -0.0258,1.06736 -0.0391,2.13692 -0.0391,3.21094 0,53.95337 32.57157,100.44604 79.23827,120.64453 l -0.0918,-0.0469 0.36523,0.16992 c -0.0919,-0.0396 -0.1816,-0.0833 -0.27344,-0.12305 l 5.54297,2.79492 a 6.6006599,6.6006599 0 0 0 9.42578,-4.55664 c 6.27421,3.88847 13.62017,7.49165 21.60352,9.96875 6.75682,2.1177 13.89715,3.39515 21.24219,3.03125 0.003,-1e-4 0.005,10e-5 0.008,0 C 535.09985,719.08155 590,662.65945 590,590.41774 590,520.37341 534.77764,462.54118 464.85351,459.2107 a 6.6006599,6.6006599 0 0 0 -0.36718,-0.0332 c -0.0264,-0.001 -0.0517,-0.009 -0.0781,-0.01 l 0,0.004 a 6.6006599,6.6006599 0 0 0 -0.29101,-0.0117 z"
         style="clip-rule:evenodd;fill:#99b000;fill-opacity:1;fill-rule:evenodd" />
    </g>
  </g>
</svg>
