<?xml version="1.0" encoding="UTF-8" standalone="no"?>
<!-- Created with Inkscape (http://www.inkscape.org/) -->

<svg
   xmlns:a="http://ns.adobe.com/AdobeSVGViewerExtensions/3.0/"
   xmlns:dc="http://purl.org/dc/elements/1.1/"
   xmlns:cc="http://creativecommons.org/ns#"
   xmlns:rdf="http://www.w3.org/1999/02/22-rdf-syntax-ns#"
   xmlns:svg="http://www.w3.org/2000/svg"
   xmlns="http://www.w3.org/2000/svg"
   xmlns:xlink="http://www.w3.org/1999/xlink"
   xmlns:sodipodi="http://sodipodi.sourceforge.net/DTD/sodipodi-0.dtd"
   xmlns:inkscape="http://www.inkscape.org/namespaces/inkscape"
   width="210mm"
   height="297mm"
   viewBox="0 0 744.09448819 1052.3622047"
   id="svg2"
   version="1.1"
   inkscape:version="0.91 r13725"
   inkscape:export-xdpi="4"
   inkscape:export-ydpi="4"
   sodipodi:docname="database-firebird.svg">
  <defs
     id="defs4">
    <inkscape:perspective
       sodipodi:type="inkscape:persp3d"
       inkscape:vp_x="0 : 526.1811 : 1"
       inkscape:vp_y="0 : 1000 : 0"
       inkscape:vp_z="744.09449 : 526.1811 : 1"
       inkscape:persp3d-origin="372.04724 : 350.7874 : 1"
       id="perspective4149" />
    <linearGradient
       id="linearGradient2224">
      <stop
         id="stop2226"
         offset="0"
         style="stop-color:#7c7c7c;stop-opacity:1;" />
      <stop
         id="stop2228"
         offset="1"
         style="stop-color:#b8b8b8;stop-opacity:1;" />
    </linearGradient>
    <linearGradient
       id="linearGradient15218">
      <stop
         id="stop15220"
         offset="0"
         style="stop-color:#eeeeef;stop-opacity:1;" />
      <stop
         id="stop2736"
         offset="0.59928656"
         style="stop-color:#d3d7cf;stop-opacity:1;" />
      <stop
         id="stop2738"
         offset="0.82758623"
         style="stop-color:#ffffff;stop-opacity:1;" />
      <stop
         id="stop15222"
         offset="1"
         style="stop-color:#d3d7cf;stop-opacity:1;" />
    </linearGradient>
    <pattern
       y="0"
       x="0"
       height="6"
       width="6"
       patternUnits="userSpaceOnUse"
       id="EMFhbasepattern" />
    <pattern
       y="0"
       x="0"
       height="6"
       width="6"
       patternUnits="userSpaceOnUse"
       id="EMFhbasepattern-5" />
    <linearGradient
       gradientTransform="matrix(0.81160246,0,0,0.81160246,244.39129,404.41685)"
       gradientUnits="userSpaceOnUse"
       id="linearGradient13108"
       inkscape:collect="always"
       x1="86.3638"
       x2="86.3638"
       xlink:href="#XMLID_2_-4"
       y1="337.95999"
       y2="7.1206002" />
    <linearGradient
       gradientUnits="userSpaceOnUse"
       id="XMLID_2_-4"
       x1="216.1084"
       x2="216.1084"
       y1="348.98831"
       y2="7.2768998">
      <stop
         id="stop12094-0"
         offset="0"
         style="stop-color:#cc0000;stop-opacity:1;" />
      <stop
         id="stop12096-9"
         offset="1"
         style="stop-color:#edd400;stop-opacity:1;" />
      <a:midPointStop
         offset="0"
         style="stop-color:#F40A0B" />
      <a:midPointStop
         offset="0.5"
         style="stop-color:#F40A0B" />
      <a:midPointStop
         offset="1"
         style="stop-color:#F5E710" />
    </linearGradient>
    <linearGradient
       inkscape:collect="always"
       xlink:href="#linearGradient4191"
       id="linearGradient4197"
       x1="590"
       y1="362.22598"
       x2="229.1026"
       y2="686.08087"
       gradientUnits="userSpaceOnUse"
       gradientTransform="matrix(0.87499999,0,0,0.87499999,49.673997,66.395048)" />
    <linearGradient
       inkscape:collect="always"
       id="linearGradient4191">
      <stop
         style="stop-color:#7a8597;stop-opacity:1;"
         offset="0"
         id="stop4193" />
      <stop
         style="stop-color:#4e505d;stop-opacity:1"
         offset="1"
         id="stop4195" />
    </linearGradient>
  </defs>
  <sodipodi:namedview
     id="base"
     pagecolor="#ffffff"
     bordercolor="#666666"
     borderopacity="1.0"
     inkscape:pageopacity="0.0"
     inkscape:pageshadow="2"
     inkscape:zoom="1.1772698"
     inkscape:cx="227.64534"
     inkscape:cy="556.22759"
     inkscape:document-units="px"
     inkscape:current-layer="layer1"
     showgrid="false"
     showguides="true"
     inkscape:guide-bbox="true"
     inkscape:window-width="1366"
     inkscape:window-height="721"
     inkscape:window-x="-4"
     inkscape:window-y="-4"
     inkscape:window-maximized="1">
    <sodipodi:guide
       position="560,730.00002"
       orientation="0,1"
       id="guide3338" />
    <sodipodi:guide
       position="560,330.00001"
       orientation="0,1"
       id="guide3340" />
    <sodipodi:guide
       position="190,475.00001"
       orientation="1,0"
       id="guide3344" />
    <sodipodi:guide
       position="590,451.00001"
       orientation="1,0"
       id="guide3346" />
    <inkscape:grid
       type="xygrid"
       id="grid3440" />
  </sodipodi:namedview>
  <metadata
     id="metadata7">
    <rdf:RDF>
      <cc:Work
         rdf:about="">
        <dc:format>image/svg+xml</dc:format>
        <dc:type
           rdf:resource="http://purl.org/dc/dcmitype/StillImage" />
        <dc:title>database firebird</dc:title>
        <dc:date>June 2015</dc:date>
        <dc:creator>
          <cc:Agent>
            <dc:title>Franziska Sponsel, Johannes Hechler</dc:title>
          </cc:Agent>
        </dc:creator>
        <dc:rights>
          <cc:Agent>
            <dc:title>Franziska Sponsel, Johannes Hechler</dc:title>
          </cc:Agent>
        </dc:rights>
        <dc:publisher>
          <cc:Agent>
            <dc:title>RRZE</dc:title>
          </cc:Agent>
        </dc:publisher>
        <dc:contributor>
          <cc:Agent>
            <dc:title>Ute Weber, Hendrik Eggers</dc:title>
          </cc:Agent>
        </dc:contributor>
      </cc:Work>
    </rdf:RDF>
  </metadata>
  <g
     inkscape:label="Ebene 1"
     inkscape:groupmode="layer"
     id="layer1">
    <g
       id="g4159"
       transform="translate(-0.06900825,-3.2997737)">
      <path
         sodipodi:nodetypes="sccsccsccsccscccsccsc"
         inkscape:connector-curvature="0"
         id="path4165"
         d="m 390.39269,349.16032 c -95.58731,0 -173.07616,21.52478 -173.07616,48.07692 -0.55784,29.43113 -2.69542,51.54305 0,77.09616 0,0 38.46134,38.46153 173.07616,38.46153 134.61478,0 173.07616,-38.46153 173.07616,-38.46153 2.48599,-33.05542 1.60056,-56.58365 0,-77.09616 0,-26.55214 -77.48885,-48.07692 -173.07616,-48.07692 z M 217.31653,491.62185 c -2.16049,27.19316 -2.94212,52.46394 0,79.01924 0,0 38.46134,38.46154 173.07616,38.46154 134.61478,0 173.07616,-38.46154 173.07616,-38.46154 2.61668,-27.25015 2.51106,-52.41004 0,-79.01924 0,0 -57.69205,38.46156 -173.07616,38.46156 -115.3841,0 -173.07616,-38.46156 -173.07616,-38.46156 z m 0,96.30771 c -2.16049,27.19315 -2.94212,54.21391 0,80.76923 0,0 38.46134,38.46153 173.07616,38.46153 134.61478,0 173.07616,-38.46153 173.07616,-38.46153 2.61668,-27.25016 2.51106,-54.16004 0,-80.76923 0,0 -57.69205,38.46153 -173.07616,38.46153 -115.3841,0 -173.07616,-38.46153 -173.07616,-38.46153 z"
         style="color:#000000;clip-rule:nonzero;display:inline;overflow:visible;visibility:visible;opacity:1;isolation:auto;mix-blend-mode:normal;color-interpolation:sRGB;color-interpolation-filters:linearRGB;solid-color:#000000;solid-opacity:1;fill:url(#linearGradient4197);fill-opacity:1;fill-rule:nonzero;stroke:none;stroke-width:3.5999999;stroke-linecap:butt;stroke-linejoin:round;stroke-miterlimit:4;stroke-dasharray:none;stroke-dashoffset:0;stroke-opacity:1;color-rendering:auto;image-rendering:auto;shape-rendering:auto;text-rendering:auto;enable-background:accumulate" />
      <circle
         r="8.75"
         cy="470.96198"
         cx="390.92398"
         id="path4199-2"
         style="color:#000000;clip-rule:nonzero;display:inline;overflow:visible;visibility:visible;opacity:1;isolation:auto;mix-blend-mode:normal;color-interpolation:sRGB;color-interpolation-filters:linearRGB;solid-color:#000000;solid-opacity:1;fill:#ffffff;fill-opacity:1;fill-rule:nonzero;stroke:none;stroke-width:3.5999999;stroke-linecap:butt;stroke-linejoin:round;stroke-miterlimit:4;stroke-dasharray:none;stroke-dashoffset:0;stroke-opacity:1;color-rendering:auto;image-rendering:auto;shape-rendering:auto;text-rendering:auto;enable-background:accumulate" />
    </g>
    <rect
       style="opacity:1;fill:none;fill-opacity:1;stroke:none;stroke-width:23;stroke-linecap:butt;stroke-linejoin:round;stroke-miterlimit:4;stroke-dasharray:none;stroke-opacity:1"
       id="rect4160"
       width="400"
       height="400"
       x="190"
       y="322.36221" />
    <path
       inkscape:connector-curvature="0"
       id="path4176"
       d="m 394.86328,409.96094 c 62.70116,17.99808 97.11965,49.37928 103.37305,94.19922 1.28558,61.64933 -24.31164,93.84484 -76.72656,96.41601 -16.88781,-2.21975 -22.32322,-16.06771 -11.86329,-29.09961 16.59563,-18.75777 23.95979,-35.87806 22.08985,-51.42187 -1.344,-9.23278 -11.92088,-18.75903 -31.73047,-28.57617 2.68803,-3.27237 9.52407,-4.03053 20.56836,-2.33594 9.5834,0.99339 12.6225,-3.50723 9.11719,-13.38281 2.80488,11.97926 -15.83732,10.2261 -55.98243,-5.08399 -1.34402,-0.52592 -2.68738,-1.05219 -4.08984,-1.57812 -13.38171,-3.1555 -18.52496,2.04619 -15.48633,15.48632 -7.36287,-0.29217 -12.91457,0.23444 -16.71289,1.69532 -19.40055,11.68709 -18.81519,22.14594 1.8125,31.32031 1.05184,-6.48633 7.65402,-9.52445 19.8086,-9.17383 5.31762,1.57776 8.82473,3.21343 10.46093,4.84961 1.81149,1.57776 3.27206,3.09786 4.20703,4.61719 2.27899,3.44771 2.27899,6.89412 0,10.3418 -2.22055,3.44769 -6.77815,6.83714 -13.55664,10.16796 -29.97735,9.64183 -45.87241,26.41227 -47.80078,50.25391 l 0,10.05273 c 0,0.17369 0.0586,0.35016 0.0586,0.5254 3.09709,29.68515 11.51207,50.2536 23.90039,63.10937 7.01223,6.9538 21.38714,16.94784 37.39843,21.91406 6.89539,2.1621 13.96641,3.39048 21.03711,3.03907 74.85653,-3.38926 132.47266,-62.52762 132.47266,-139.01954 0,-74.03764 -58.37628,-135.04403 -132.35547,-138.3164 z m -16.24609,0.23437 c -1.13036,0.084 -2.25672,0.18234 -3.37891,0.29297 -2.24438,0.22126 -4.47174,0.49449 -6.68164,0.82031 -1.10495,0.16292 -2.2049,0.33878 -3.30078,0.52735 -2.19176,0.37713 -4.36588,0.80541 -6.51953,1.2832 -1.07683,0.2389 -2.14799,0.49033 -3.21485,0.75391 -3.20055,0.79072 -6.35559,1.69226 -9.46093,2.69922 -1.03512,0.33565 -2.06592,0.68198 -3.08985,1.04101 -1.02393,0.35903 -2.04224,0.72925 -3.05468,1.11133 -1.01245,0.38208 -2.01887,0.77684 -3.01954,1.18164 -1.00066,0.4048 -1.99579,0.82085 -2.98437,1.24805 -0.98858,0.4272 -1.97108,0.86518 -2.94727,1.31445 -1.95237,0.89855 -3.87828,1.84129 -5.77929,2.82617 -3.80204,1.96978 -7.4999,4.10869 -11.08203,6.4082 -2.6866,1.72464 -5.30792,3.5396 -7.86133,5.43946 -0.85114,0.63329 -1.69552,1.27563 -2.53125,1.92773 -0.83574,0.65211 -1.66239,1.31378 -2.48242,1.98438 -0.82004,0.6706 -1.63348,1.35029 -2.4375,2.03906 -0.80403,0.68877 -1.599,1.38714 -2.38672,2.09375 -0.78773,0.70661 -1.56678,1.42236 -2.33789,2.14648 -3.08446,2.89651 -6.03511,5.93195 -8.8418,9.09571 -0.70167,0.79094 -1.39457,1.58965 -2.07813,2.39648 -1.36711,1.61366 -2.69738,3.25833 -3.99023,4.9336 -0.64643,0.83763 -1.2847,1.68261 -1.91211,2.53515 -0.62741,0.85255 -1.24543,1.71295 -1.85352,2.58008 -0.60808,0.86713 -1.20645,1.74165 -1.79492,2.62305 -0.58847,0.88139 -1.16583,1.76873 -1.73437,2.66406 -0.56855,0.89533 -1.12746,1.79809 -1.67578,2.70703 -0.54833,0.90895 -1.08549,1.82386 -1.61328,2.74609 -0.5278,0.92224 -1.04577,1.85192 -1.55274,2.78711 -0.50697,0.9352 -1.00439,1.8764 -1.49023,2.82422 -0.48585,0.94783 -0.96137,1.90315 -1.42578,2.86328 -0.46442,0.96014 -0.91669,1.92632 -1.35938,2.89844 -1.77074,3.88849 -3.36635,7.87029 -4.77734,11.9375 -0.35275,1.01681 -0.69393,2.03925 -1.02344,3.06641 -0.65902,2.05432 -1.27167,4.12886 -1.83594,6.22265 -0.28213,1.0469 -0.55255,2.09802 -0.81054,3.1543 -0.258,1.05628 -0.50474,2.11826 -0.73829,3.18359 -0.23354,1.06534 -0.4533,2.13492 -0.66211,3.20899 -0.2088,1.07406 -0.40608,2.15191 -0.58984,3.23437 -0.18376,1.08247 -0.35526,2.16922 -0.51367,3.25977 -0.15841,1.09055 -0.30279,2.1849 -0.43555,3.2832 -0.13276,1.0983 -0.25256,2.20091 -0.35937,3.30664 -0.21363,2.21146 -0.37636,4.43657 -0.48438,6.67578 -0.054,1.11961 -0.0939,2.24309 -0.12109,3.36914 -0.0272,1.12606 -0.041,2.25454 -0.041,3.38672 0,57.03211 34.47742,106.06139 83.79688,127.27344 l 6.25195,3.1543 C 323.04509,663.27816 311.70968,647.56065 309.0801,626.69922 216.34316,522.27522 295.75585,426.55723 378.61721,410.19531 Z m -9.56641,68.64844 c 1.18875,0.0484 2.74079,0.52123 4.6582,1.41602 2.16212,0.93497 4.6741,2.45461 7.6543,4.4414 l -7.6543,0 -7.24609,0 c -0.88382,-4.01743 -0.0274,-5.96398 2.58789,-5.85742 z"
       style="clip-rule:evenodd;fill:url(#linearGradient13108);fill-opacity:1;fill-rule:evenodd;stroke:#ffffff;stroke-linejoin:round;stroke-width:30;stroke-miterlimit:4;stroke-dasharray:none" />
    <path
       style="clip-rule:evenodd;fill:url(#linearGradient13108);fill-opacity:1;fill-rule:evenodd"
       d="m 394.86328,409.96094 c 62.70116,17.99808 97.11965,49.37928 103.37305,94.19922 1.28558,61.64933 -24.31164,93.84484 -76.72656,96.41601 -16.88781,-2.21975 -22.32322,-16.06771 -11.86329,-29.09961 16.59563,-18.75777 23.95979,-35.87806 22.08985,-51.42187 -1.344,-9.23278 -11.92088,-18.75903 -31.73047,-28.57617 2.68803,-3.27237 9.52407,-4.03053 20.56836,-2.33594 9.5834,0.99339 12.6225,-3.50723 9.11719,-13.38281 2.80488,11.97926 -15.83732,10.2261 -55.98243,-5.08399 -1.34402,-0.52592 -2.68738,-1.05219 -4.08984,-1.57812 -13.38171,-3.1555 -18.52496,2.04619 -15.48633,15.48632 -7.36287,-0.29217 -12.91457,0.23444 -16.71289,1.69532 -19.40055,11.68709 -18.81519,22.14594 1.8125,31.32031 1.05184,-6.48633 7.65402,-9.52445 19.8086,-9.17383 5.31762,1.57776 8.82473,3.21343 10.46093,4.84961 1.81149,1.57776 3.27206,3.09786 4.20703,4.61719 2.27899,3.44771 2.27899,6.89412 0,10.3418 -2.22055,3.44769 -6.77815,6.83714 -13.55664,10.16796 -29.97735,9.64183 -45.87241,26.41227 -47.80078,50.25391 l 0,10.05273 c 0,0.17369 0.0586,0.35016 0.0586,0.5254 3.09709,29.68515 11.51207,50.2536 23.90039,63.10937 7.01223,6.9538 21.38714,16.94784 37.39843,21.91406 6.89539,2.1621 13.96641,3.39048 21.03711,3.03907 74.85653,-3.38926 132.47266,-62.52762 132.47266,-139.01954 0,-74.03764 -58.37628,-135.04403 -132.35547,-138.3164 z m -16.24609,0.23437 c -1.13036,0.084 -2.25672,0.18234 -3.37891,0.29297 -2.24438,0.22126 -4.47174,0.49449 -6.68164,0.82031 -1.10495,0.16292 -2.2049,0.33878 -3.30078,0.52735 -2.19176,0.37713 -4.36588,0.80541 -6.51953,1.2832 -1.07683,0.2389 -2.14799,0.49033 -3.21485,0.75391 -3.20055,0.79072 -6.35559,1.69226 -9.46093,2.69922 -1.03512,0.33565 -2.06592,0.68198 -3.08985,1.04101 -1.02393,0.35903 -2.04224,0.72925 -3.05468,1.11133 -1.01245,0.38208 -2.01887,0.77684 -3.01954,1.18164 -1.00066,0.4048 -1.99579,0.82085 -2.98437,1.24805 -0.98858,0.4272 -1.97108,0.86518 -2.94727,1.31445 -1.95237,0.89855 -3.87828,1.84129 -5.77929,2.82617 -3.80204,1.96978 -7.4999,4.10869 -11.08203,6.4082 -2.6866,1.72464 -5.30792,3.5396 -7.86133,5.43946 -0.85114,0.63329 -1.69552,1.27563 -2.53125,1.92773 -0.83574,0.65211 -1.66239,1.31378 -2.48242,1.98438 -0.82004,0.6706 -1.63348,1.35029 -2.4375,2.03906 -0.80403,0.68877 -1.599,1.38714 -2.38672,2.09375 -0.78773,0.70661 -1.56678,1.42236 -2.33789,2.14648 -3.08446,2.89651 -6.03511,5.93195 -8.8418,9.09571 -0.70167,0.79094 -1.39457,1.58965 -2.07813,2.39648 -1.36711,1.61366 -2.69738,3.25833 -3.99023,4.9336 -0.64643,0.83763 -1.2847,1.68261 -1.91211,2.53515 -0.62741,0.85255 -1.24543,1.71295 -1.85352,2.58008 -0.60808,0.86713 -1.20645,1.74165 -1.79492,2.62305 -0.58847,0.88139 -1.16583,1.76873 -1.73437,2.66406 -0.56855,0.89533 -1.12746,1.79809 -1.67578,2.70703 -0.54833,0.90895 -1.08549,1.82386 -1.61328,2.74609 -0.5278,0.92224 -1.04577,1.85192 -1.55274,2.78711 -0.50697,0.9352 -1.00439,1.8764 -1.49023,2.82422 -0.48585,0.94783 -0.96137,1.90315 -1.42578,2.86328 -0.46442,0.96014 -0.91669,1.92632 -1.35938,2.89844 -1.77074,3.88849 -3.36635,7.87029 -4.77734,11.9375 -0.35275,1.01681 -0.69393,2.03925 -1.02344,3.06641 -0.65902,2.05432 -1.27167,4.12886 -1.83594,6.22265 -0.28213,1.0469 -0.55255,2.09802 -0.81054,3.1543 -0.258,1.05628 -0.50474,2.11826 -0.73829,3.18359 -0.23354,1.06534 -0.4533,2.13492 -0.66211,3.20899 -0.2088,1.07406 -0.40608,2.15191 -0.58984,3.23437 -0.18376,1.08247 -0.35526,2.16922 -0.51367,3.25977 -0.15841,1.09055 -0.30279,2.1849 -0.43555,3.2832 -0.13276,1.0983 -0.25256,2.20091 -0.35937,3.30664 -0.21363,2.21146 -0.37636,4.43657 -0.48438,6.67578 -0.054,1.11961 -0.0939,2.24309 -0.12109,3.36914 -0.0272,1.12606 -0.041,2.25454 -0.041,3.38672 0,57.03211 34.47742,106.06139 83.79688,127.27344 l 6.25195,3.1543 C 323.04509,663.27816 311.70968,647.56065 309.0801,626.69922 216.34316,522.27522 295.75585,426.55723 378.61721,410.19531 Z m -9.56641,68.64844 c 1.18875,0.0484 2.74079,0.52123 4.6582,1.41602 2.16212,0.93497 4.6741,2.45461 7.6543,4.4414 l -7.6543,0 -7.24609,0 c -0.88382,-4.01743 -0.0274,-5.96398 2.58789,-5.85742 z"
       id="path12091-4"
       inkscape:connector-curvature="0" />
  </g>
</svg>
