<?xml version="1.0" encoding="UTF-8" standalone="no"?>
<!-- Created with Inkscape (http://www.inkscape.org/) -->

<svg
   xmlns:dc="http://purl.org/dc/elements/1.1/"
   xmlns:cc="http://creativecommons.org/ns#"
   xmlns:rdf="http://www.w3.org/1999/02/22-rdf-syntax-ns#"
   xmlns:svg="http://www.w3.org/2000/svg"
   xmlns="http://www.w3.org/2000/svg"
   xmlns:sodipodi="http://sodipodi.sourceforge.net/DTD/sodipodi-0.dtd"
   xmlns:inkscape="http://www.inkscape.org/namespaces/inkscape"
   width="210mm"
   height="297mm"
   viewBox="0 0 744.09448819 1052.3622047"
   id="svg2"
   version="1.1"
   inkscape:version="0.91 r13725"
   inkscape:export-xdpi="3.5999999"
   inkscape:export-ydpi="3.5999999"
   sodipodi:docname="eduroam.svg"
   inkscape:export-filename="D:\Dokumente\Arbeit\RRZE\github\bicons\16x16\logos\eduroam.png">
  <title
     id="title4165">eduroam</title>
  <defs
     id="defs4">
    <linearGradient
       id="linearGradient2224">
      <stop
         id="stop2226"
         offset="0"
         style="stop-color:#7c7c7c;stop-opacity:1;" />
      <stop
         id="stop2228"
         offset="1"
         style="stop-color:#b8b8b8;stop-opacity:1;" />
    </linearGradient>
    <linearGradient
       id="linearGradient15218">
      <stop
         id="stop15220"
         offset="0"
         style="stop-color:#eeeeef;stop-opacity:1;" />
      <stop
         id="stop2736"
         offset="0.59928656"
         style="stop-color:#d3d7cf;stop-opacity:1;" />
      <stop
         id="stop2738"
         offset="0.82758623"
         style="stop-color:#ffffff;stop-opacity:1;" />
      <stop
         id="stop15222"
         offset="1"
         style="stop-color:#d3d7cf;stop-opacity:1;" />
    </linearGradient>
    <pattern
       y="0"
       x="0"
       height="6"
       width="6"
       patternUnits="userSpaceOnUse"
       id="EMFhbasepattern" />
    <pattern
       y="0"
       x="0"
       height="6"
       width="6"
       patternUnits="userSpaceOnUse"
       id="EMFhbasepattern-5" />
    <linearGradient
       id="linearGradient11494">
      <stop
         style="stop-color:#3465a4;stop-opacity:1;"
         offset="0"
         id="stop11496" />
      <stop
         style="stop-color:#3465a4;stop-opacity:0;"
         offset="1"
         id="stop11498" />
    </linearGradient>
  </defs>
  <sodipodi:namedview
     id="base"
     pagecolor="#ffffff"
     bordercolor="#666666"
     borderopacity="1.0"
     inkscape:pageopacity="0.0"
     inkscape:pageshadow="2"
     inkscape:zoom="1.4142136"
     inkscape:cx="376.07944"
     inkscape:cy="529.20819"
     inkscape:document-units="px"
     inkscape:current-layer="layer1"
     showgrid="false"
     showguides="true"
     inkscape:guide-bbox="true"
     inkscape:window-width="1600"
     inkscape:window-height="837"
     inkscape:window-x="-4"
     inkscape:window-y="-4"
     inkscape:window-maximized="1"
     inkscape:snap-bbox="true"
     inkscape:bbox-nodes="true">
    <sodipodi:guide
       position="560,730.00002"
       orientation="0,1"
       id="guide3338" />
    <sodipodi:guide
       position="560,330.00001"
       orientation="0,1"
       id="guide3340" />
    <sodipodi:guide
       position="190,475.00001"
       orientation="1,0"
       id="guide3344" />
    <sodipodi:guide
       position="590,451.00001"
       orientation="1,0"
       id="guide3346" />
    <inkscape:grid
       type="xygrid"
       id="grid3440" />
  </sodipodi:namedview>
  <metadata
     id="metadata7">
    <rdf:RDF>
      <cc:Work
         rdf:about="">
        <dc:format>image/svg+xml</dc:format>
        <dc:type
           rdf:resource="http://purl.org/dc/dcmitype/StillImage" />
        <dc:title>eduroam</dc:title>
        <dc:date>June 2015</dc:date>
        <dc:creator>
          <cc:Agent>
            <dc:title>Franziska Sponsel, Johannes Hechler</dc:title>
          </cc:Agent>
        </dc:creator>
        <dc:rights>
          <cc:Agent>
            <dc:title>Franziska Sponsel, Johannes Hechler</dc:title>
          </cc:Agent>
        </dc:rights>
        <dc:publisher>
          <cc:Agent>
            <dc:title>RRZE</dc:title>
          </cc:Agent>
        </dc:publisher>
        <dc:contributor>
          <cc:Agent>
            <dc:title>Ute Weber, Hendrik Eggers</dc:title>
          </cc:Agent>
        </dc:contributor>
      </cc:Work>
    </rdf:RDF>
  </metadata>
  <g
     inkscape:label="Ebene 1"
     inkscape:groupmode="layer"
     id="layer1">
    <g
       id="g4190"
       transform="matrix(24.999983,0,0,24.999983,-9951.4296,-12157.202)">
      <path
         d="m 411.65746,508.1687 0,0.3468 -2.08902,0 q 0.0324,0.4282 0.22712,0.6424 0.19467,0.2143 0.54409,0.2143 0.28203,0 0.57654,-0.1118 0.29701,-0.1155 0.60899,-0.3468 l 0,0.9384 q -0.31698,0.1627 -0.63395,0.2449 -0.31697,0.086 -0.63394,0.086 -0.75874,0 -1.18053,-0.5236 -0.4193,-0.5287 -0.4193,-1.4774 0,-0.9316 0.41181,-1.4653 0.41431,-0.5337 1.1381,-0.5337 0.6589,0 1.05325,0.5406 0.39684,0.5407 0.39684,1.4452 z m -0.91847,-0.4047 q 0,-0.3465 -0.14975,-0.5574 -0.14726,-0.2141 -0.38686,-0.2141 -0.25957,0 -0.4218,0.1997 -0.16223,0.198 -0.20216,0.5713 l 1.16057,0 z"
         style="font-style:normal;font-variant:normal;font-weight:bold;font-stretch:normal;font-size:medium;line-height:125%;font-family:sans-serif;-inkscape-font-specification:'sans-serif Bold';letter-spacing:0px;word-spacing:0px;fill:#4e505d;fill-opacity:1;stroke:none;stroke-width:1px;stroke-linecap:butt;stroke-linejoin:miter;stroke-opacity:1"
         id="path4205"
         inkscape:connector-curvature="0" />
      <path
         sodipodi:nodetypes="cccccccscscscccscscscscs"
         d="m 414.68161,507.0865 -0.009,-2.9036 0.98444,0.01 0,5.9004 -0.8985,0 0,-0.511 c -0.12313,0.2082 -0.25873,0.3607 -0.40682,0.4574 -0.14809,0.097 -0.31947,0.1454 -0.51414,0.1454 -0.34443,0 -0.62729,-0.1724 -0.84859,-0.5172 -0.2213,-0.3492 -0.33194,-0.795 -0.33194,-1.3396 0,-0.5448 0.11064,-0.9896 0.33194,-1.3343 0.2213,-0.3471 0.50416,-0.5206 0.84859,-0.5206 0.19301,0 0.36356,0.049 0.51165,0.1471 0.14975,0.097 0.1757,0.2484 0.29883,0.4543 z m -0.51167,2.2759 c 0.19134,0 0.33693,-0.088 0.43677,-0.265 0.10149,-0.1765 0.15224,-0.4331 0.15224,-0.7697 0,-0.3364 -0.0508,-0.593 -0.15224,-0.7697 -0.0998,-0.1765 -0.24543,-0.2647 -0.43677,-0.2647 -0.18969,0 -0.33528,0.088 -0.43678,0.2647 -0.0998,0.1767 -0.14975,0.4333 -0.14975,0.7697 0,0.3366 0.0499,0.5932 0.14975,0.7697 0.1015,0.1767 0.24709,0.265 0.43678,0.265 z"
         style="font-style:normal;font-variant:normal;font-weight:bold;font-stretch:normal;font-size:medium;line-height:125%;font-family:sans-serif;-inkscape-font-specification:'sans-serif Bold';letter-spacing:0px;word-spacing:0px;fill:#4e505d;fill-opacity:1;stroke:none;stroke-width:1px;stroke-linecap:butt;stroke-linejoin:miter;stroke-opacity:1"
         id="path4207"
         inkscape:connector-curvature="0" />
      <path
         d="m 416.65752,508.5635 0,-2.3806 0.94453,0 0,0.39 q 0,0.3166 -0.003,0.7968 -0.003,0.477 -0.003,0.637 0,0.4699 0.0184,0.6788 0.0184,0.2045 0.063,0.2991 0.0577,0.1209 0.14955,0.1885 0.0944,0.066 0.21515,0.066 0.29385,0 0.46177,-0.2991 0.16791,-0.2994 0.16791,-0.8318 l 0,-1.9247 0.93929,0 0,3.8978 -0.93929,0 0,-0.5637 q -0.21251,0.3411 -0.45127,0.5046 -0.23613,0.1604 -0.52212,0.1604 -0.50899,0 -0.77661,-0.4138 -0.26491,-0.4138 -0.26491,-1.2042 z"
         style="font-style:normal;font-variant:normal;font-weight:bold;font-stretch:normal;font-size:medium;line-height:125%;font-family:sans-serif;-inkscape-font-specification:'sans-serif Bold';letter-spacing:0px;word-spacing:0px;fill:#4e505d;fill-opacity:1;stroke:none;stroke-width:1px;stroke-linecap:butt;stroke-linejoin:miter;stroke-opacity:1"
         id="path4209"
         inkscape:connector-curvature="0" />
      <path
         d="m 408.0329,512.309 q -0.13419,-0.074 -0.26838,-0.1077 -0.13133,-0.037 -0.26552,-0.037 -0.39401,0 -0.60814,0.3025 -0.21128,0.2992 -0.21128,0.8599 l 0,1.7538 -1.02212,0 0,-3.8067 1.02212,0 0,0.6254 q 0.19701,-0.374 0.45111,-0.544 0.25696,-0.1723 0.61385,-0.1723 0.0514,0 0.11135,0 0.06,0 0.17416,0.02 l 0.003,1.1012 z"
         style="font-style:normal;font-variant:normal;font-weight:bold;font-stretch:normal;font-size:medium;line-height:125%;font-family:sans-serif;-inkscape-font-specification:'sans-serif Bold';letter-spacing:0px;word-spacing:0px;fill:#4e505d;fill-opacity:1;stroke:none;stroke-width:1px;stroke-linecap:butt;stroke-linejoin:miter;stroke-opacity:1"
         id="path4211"
         inkscape:connector-curvature="0" />
      <path
         d="m 410.16111,512.053 q -0.29001,0 -0.44354,0.2923 -0.1511,0.2888 -0.1511,0.8361 0,0.5475 0.1511,0.8398 0.15353,0.2888 0.44354,0.2888 0.28514,0 0.43623,-0.2888 0.1511,-0.2923 0.1511,-0.8398 0,-0.5473 -0.1511,-0.8361 -0.15109,-0.2923 -0.43623,-0.2923 z m 0,-0.8701 q 0.70431,0 1.09911,0.5302 0.39724,0.5302 0.39724,1.4683 0,0.9383 -0.39724,1.4683 -0.3948,0.5302 -1.09911,0.5302 -0.70674,0 -1.10642,-0.5302 -0.39723,-0.53 -0.39723,-1.4683 0,-0.9381 0.39723,-1.4683 0.39968,-0.5302 1.10642,-0.5302 z"
         style="font-style:normal;font-variant:normal;font-weight:bold;font-stretch:normal;font-size:medium;line-height:125%;font-family:sans-serif;-inkscape-font-specification:'sans-serif Bold';letter-spacing:0px;word-spacing:0px;fill:#4e505d;fill-opacity:1;stroke:none;stroke-width:1px;stroke-linecap:butt;stroke-linejoin:miter;stroke-opacity:1"
         id="path4213"
         inkscape:connector-curvature="0" />
      <path
         d="m 414.09571,513.371 q -0.31977,0 -0.48251,0.1292 -0.15989,0.1292 -0.15989,0.3807 0,0.231 0.12847,0.3637 0.13134,0.1293 0.3626,0.1293 0.28837,0 0.48537,-0.2448 0.197,-0.2481 0.197,-0.6185 l 0,-0.139 -0.53105,0 z m 1.56175,-0.4588 0,2.1718 -1.0307,0 0,-0.5643 q -0.20556,0.3468 -0.46252,0.5066 -0.25696,0.1566 -0.62527,0.1566 -0.49679,0 -0.808,-0.343 -0.30835,-0.3468 -0.30835,-0.8974 0,-0.6696 0.38544,-0.9823 0.3883,-0.3129 1.21628,-0.3129 l 0.60242,0 0,-0.096 q 0,-0.289 -0.19129,-0.4216 -0.19129,-0.137 -0.59671,-0.137 -0.32834,0 -0.611,0.078 -0.28265,0.078 -0.52534,0.2345 l 0,-0.9279 q 0.32834,-0.096 0.65953,-0.1429 0.33119,-0.051 0.66239,-0.051 0.86509,0 1.24768,0.4081 0.38544,0.4045 0.38544,1.3187 z"
         style="font-style:normal;font-variant:normal;font-weight:bold;font-stretch:normal;font-size:medium;line-height:125%;font-family:sans-serif;-inkscape-font-specification:'sans-serif Bold';letter-spacing:0px;word-spacing:0px;fill:#4e505d;fill-opacity:1;stroke:none;stroke-width:1px;stroke-linecap:butt;stroke-linejoin:miter;stroke-opacity:1"
         id="path4215"
         inkscape:connector-curvature="0" />
      <path
         d="m 419.54311,511.928 q 0.18868,-0.3624 0.44673,-0.5507 0.26083,-0.1928 0.5716,-0.1928 0.53552,0 0.81577,0.4146 0.28025,0.4153 0.28025,1.2066 l 0,2.3772 -0.99891,0 0,-2.0357 q 0.003,-0.046 0.003,-0.094 0.003,-0.048 0.003,-0.1405 0,-0.4149 -0.0971,-0.5996 -0.0971,-0.1888 -0.31355,-0.1888 -0.28302,0 -0.4384,0.2928 -0.1526,0.2929 -0.15817,0.8469 l 0,1.9171 -0.99891,0 0,-2.0355 q 0,-0.6484 -0.0888,-0.8331 -0.0888,-0.1887 -0.31632,-0.1887 -0.28579,0 -0.44118,0.2963 -0.15539,0.2925 -0.15539,0.8399 l 0,1.9205 -0.99891,0 0,-3.9039 0.99891,0 0,0.5716 q 0.18313,-0.3311 0.41898,-0.4984 0.23863,-0.1666 0.52443,-0.1666 0.32187,0 0.56882,0.1948 0.24695,0.1948 0.37459,0.5473 z"
         style="font-style:normal;font-variant:normal;font-weight:bold;font-stretch:normal;font-size:medium;line-height:125%;font-family:sans-serif;-inkscape-font-specification:'sans-serif Bold';letter-spacing:0px;word-spacing:0px;fill:#4e505d;fill-opacity:1;stroke:none;stroke-width:1px;stroke-linecap:butt;stroke-linejoin:miter;stroke-opacity:1"
         id="path4217"
         inkscape:connector-curvature="0" />
      <path
         inkscape:connector-curvature="0"
         id="path4244"
         style="font-style:normal;font-variant:normal;font-weight:bold;font-stretch:normal;font-size:medium;line-height:125%;font-family:sans-serif;-inkscape-font-specification:'sans-serif Bold';letter-spacing:0px;word-spacing:0px;fill:#4e505d;fill-opacity:1;stroke:none;stroke-width:1px;stroke-linecap:butt;stroke-linejoin:miter;stroke-opacity:1"
         d="m 414.16111,507.053 q -0.29001,0 -0.44354,0.2923 -0.1511,0.2888 -0.1511,0.8361 0,0.5475 0.1511,0.8398 0.15353,0.2888 0.44354,0.2888 0.28514,0 0.43623,-0.2888 0.1511,-0.2923 0.1511,-0.8398 0,-0.5473 -0.1511,-0.8361 -0.15109,-0.2923 -0.43623,-0.2923 z m 0,-0.8701 q 0.70431,0 1.09911,0.5302 0.39724,0.5302 0.39724,1.4683 0,0.9383 -0.39724,1.4683 -0.3948,0.5302 -1.09911,0.5302 -0.70674,0 -1.10642,-0.5302 -0.39723,-0.53 -0.39723,-1.4683 0,-0.9381 0.39723,-1.4683 0.39968,-0.5302 1.10642,-0.5302 z" />
      <rect
         y="499.18289"
         x="405.65747"
         height="16"
         width="16"
         id="rect4246"
         style="color:#000000;clip-rule:nonzero;display:inline;overflow:visible;visibility:visible;opacity:1;isolation:auto;mix-blend-mode:normal;color-interpolation:sRGB;color-interpolation-filters:linearRGB;solid-color:#000000;solid-opacity:1;fill:none;fill-opacity:1;fill-rule:nonzero;stroke:none;stroke-width:2;stroke-linecap:round;stroke-linejoin:round;stroke-miterlimit:4;stroke-dasharray:none;stroke-dashoffset:0;stroke-opacity:1;color-rendering:auto;image-rendering:auto;shape-rendering:auto;text-rendering:auto;enable-background:accumulate" />
      <path
         id="path4266"
         d="m 415.15746,499.1829 a 4.5,4.5 0 0 0 -4.5,4.5 4.5,4.5 0 0 0 0.33789,1.69727 l 0.98047,-0.5879 a 3.375,3.375 0 0 1 -0.19336,-1.10937 3.375,3.375 0 0 1 3.375,-3.375 3.375,3.375 0 0 1 3.375,3.375 3.375,3.375 0 0 1 -0.19336,1.10937 l 0.97656,0.58594 a 4.5,4.5 0 0 0 0.3418,-1.69531 4.5,4.5 0 0 0 -4.5,-4.5 z m 0,2 a 2.5,2.5 0 0 0 -2.5,2.5 2.5,2.5 0 0 0 0.0879,0.64648 l 0.91797,-0.55078 a 1.5,1.5 0 0 1 -0.006,-0.0957 1.5,1.5 0 0 1 1.5,-1.5 1.5,1.5 0 0 1 1.5,1.5 1.5,1.5 0 0 1 -0.006,0.0977 l 0.91601,0.54882 a 2.5,2.5 0 0 0 0.0899,-0.64648 2.5,2.5 0 0 0 -2.5,-2.5 z"
         style="color:#000000;clip-rule:nonzero;display:inline;overflow:visible;visibility:visible;opacity:1;isolation:auto;mix-blend-mode:normal;color-interpolation:sRGB;color-interpolation-filters:linearRGB;solid-color:#000000;solid-opacity:1;fill:#99b000;fill-opacity:1;fill-rule:nonzero;stroke:none;stroke-width:2;stroke-linecap:round;stroke-linejoin:round;stroke-miterlimit:4;stroke-dasharray:none;stroke-dashoffset:0;stroke-opacity:1;color-rendering:auto;image-rendering:auto;shape-rendering:auto;text-rendering:auto;enable-background:accumulate"
         inkscape:connector-curvature="0" />
    </g>
  </g>
</svg>
