<?xml version="1.0" encoding="UTF-8" standalone="no"?>
<!-- Created with Inkscape (http://www.inkscape.org/) -->

<svg
   xmlns:dc="http://purl.org/dc/elements/1.1/"
   xmlns:cc="http://creativecommons.org/ns#"
   xmlns:rdf="http://www.w3.org/1999/02/22-rdf-syntax-ns#"
   xmlns:svg="http://www.w3.org/2000/svg"
   xmlns="http://www.w3.org/2000/svg"
   xmlns:sodipodi="http://sodipodi.sourceforge.net/DTD/sodipodi-0.dtd"
   xmlns:inkscape="http://www.inkscape.org/namespaces/inkscape"
   width="210mm"
   height="297mm"
   viewBox="0 0 744.09448819 1052.3622047"
   id="svg2"
   version="1.1"
   inkscape:version="0.91 r13725"
   inkscape:export-xdpi="4"
   inkscape:export-ydpi="4"
   sodipodi:docname="exchange.svg">
  <title
     id="title4158">exchange</title>
  <defs
     id="defs4">
    <linearGradient
       id="linearGradient2224">
      <stop
         id="stop2226"
         offset="0"
         style="stop-color:#7c7c7c;stop-opacity:1;" />
      <stop
         id="stop2228"
         offset="1"
         style="stop-color:#b8b8b8;stop-opacity:1;" />
    </linearGradient>
    <linearGradient
       id="linearGradient15218">
      <stop
         id="stop15220"
         offset="0"
         style="stop-color:#eeeeef;stop-opacity:1;" />
      <stop
         id="stop2736"
         offset="0.59928656"
         style="stop-color:#d3d7cf;stop-opacity:1;" />
      <stop
         id="stop2738"
         offset="0.82758623"
         style="stop-color:#ffffff;stop-opacity:1;" />
      <stop
         id="stop15222"
         offset="1"
         style="stop-color:#d3d7cf;stop-opacity:1;" />
    </linearGradient>
    <pattern
       y="0"
       x="0"
       height="6"
       width="6"
       patternUnits="userSpaceOnUse"
       id="EMFhbasepattern" />
    <pattern
       y="0"
       x="0"
       height="6"
       width="6"
       patternUnits="userSpaceOnUse"
       id="EMFhbasepattern-5" />
  </defs>
  <sodipodi:namedview
     id="base"
     pagecolor="#ffffff"
     bordercolor="#666666"
     borderopacity="1.0"
     inkscape:pageopacity="0.0"
     inkscape:pageshadow="2"
     inkscape:zoom="0.5"
     inkscape:cx="-232.36994"
     inkscape:cy="415.31876"
     inkscape:document-units="px"
     inkscape:current-layer="layer1"
     showgrid="false"
     showguides="true"
     inkscape:guide-bbox="true"
     inkscape:window-width="1366"
     inkscape:window-height="721"
     inkscape:window-x="-4"
     inkscape:window-y="-4"
     inkscape:window-maximized="1">
    <sodipodi:guide
       position="560,730.00002"
       orientation="0,1"
       id="guide3338" />
    <sodipodi:guide
       position="560,330.00001"
       orientation="0,1"
       id="guide3340" />
    <sodipodi:guide
       position="190,475.00001"
       orientation="1,0"
       id="guide3344" />
    <sodipodi:guide
       position="590,451.00001"
       orientation="1,0"
       id="guide3346" />
    <inkscape:grid
       type="xygrid"
       id="grid3440" />
  </sodipodi:namedview>
  <metadata
     id="metadata7">
    <rdf:RDF>
      <cc:Work
         rdf:about="">
        <dc:format>image/svg+xml</dc:format>
        <dc:type
           rdf:resource="http://purl.org/dc/dcmitype/StillImage" />
        <dc:title>exchange</dc:title>
        <dc:date>June 2015</dc:date>
        <dc:creator>
          <cc:Agent>
            <dc:title>Johannes Hechler</dc:title>
          </cc:Agent>
        </dc:creator>
        <dc:rights>
          <cc:Agent>
            <dc:title>Johannes Hechler</dc:title>
          </cc:Agent>
        </dc:rights>
        <dc:identifier></dc:identifier>
        <dc:publisher>
          <cc:Agent>
            <dc:title>RRZE</dc:title>
          </cc:Agent>
        </dc:publisher>
        <dc:contributor>
          <cc:Agent>
            <dc:title>Ute Weber, Hendrik Eggers</dc:title>
          </cc:Agent>
        </dc:contributor>
      </cc:Work>
    </rdf:RDF>
  </metadata>
  <g
     inkscape:label="Ebene 1"
     inkscape:groupmode="layer"
     id="layer1">
    <rect
       style="opacity:1;fill:none;fill-opacity:1;stroke:none;stroke-width:23;stroke-linecap:butt;stroke-linejoin:round;stroke-miterlimit:4;stroke-dasharray:none;stroke-opacity:1"
       id="rect4160"
       width="400"
       height="400"
       x="190"
       y="322.36221" />
    <g
       id="g4187"
       transform="matrix(3.1514501,0,0,3.1514501,-964.48149,-1112.8103)">
      <rect
         ry="9.125"
         y="455.38733"
         x="366.29172"
         height="126.9257"
         width="127"
         id="rect4168"
         style="color:#000000;clip-rule:nonzero;display:inline;overflow:visible;visibility:visible;opacity:0.65100002;isolation:auto;mix-blend-mode:normal;color-interpolation:sRGB;color-interpolation-filters:linearRGB;solid-color:#000000;solid-opacity:1;fill:#ffffff;fill-opacity:1;fill-rule:nonzero;stroke:none;stroke-width:10;stroke-linecap:butt;stroke-linejoin:bevel;stroke-miterlimit:4;stroke-dasharray:none;stroke-dashoffset:60.95968628;stroke-opacity:1;color-rendering:auto;image-rendering:auto;shape-rendering:auto;text-rendering:auto;enable-background:accumulate" />
      <g
         style="fill:#0072c6;fill-opacity:1"
         id="g4170">
        <path
           style="fill:#0072c6;fill-opacity:1;fill-rule:evenodd;stroke:none;stroke-width:1px;stroke-linecap:butt;stroke-linejoin:miter;stroke-opacity:1"
           d="m 448.79183,471.16462 c -1.57716,0.12616 -2.37935,0.42735 -3.68535,1.72205 -3.24361,3.21554 -9.77023,11.59509 -14.78781,18.47469 -6.58731,9.03185 -9.89191,16.38218 -9.89191,16.38218 0,0 -0.73509,1.80949 0.26074,2.49366 0.99583,0.68417 2.40625,-0.21875 2.40625,-0.21875 0,0 10.36271,-10.2602 12.83758,-12.91185 2.47487,-2.65165 11.57887,-12.065 11.57887,-12.065 l 16.52863,-0.30936 0.17677,18.38477 -5.59527,6.43719 6.84251,5.67738 10.12344,-10.53281 c 0.93647,-1.0521 1.39201,-1.87019 1.33672,-2.9782 l 0.37408,-27.59494 c 0,0 -0.26517,-1.59099 -0.7955,-2.20971 -0.53033,-0.61871 -1.67938,-0.7071 -1.67938,-0.7071 z"
           id="path4160"
           inkscape:connector-curvature="0"
           sodipodi:nodetypes="cssczcsccccccccscc" />
        <path
           sodipodi:nodetypes="cssczcsccccccccscc"
           inkscape:connector-curvature="0"
           id="path4162"
           d="m 477.83583,538.15993 c -0.12616,-1.57716 -0.42735,-2.37935 -1.72205,-3.68535 -3.21554,-3.24361 -11.59509,-9.77023 -18.47469,-14.78781 -9.03185,-6.58731 -16.38218,-9.89191 -16.38218,-9.89191 0,0 -1.80949,-0.73509 -2.49366,0.26074 -0.68417,0.99583 0.21875,2.40625 0.21875,2.40625 0,0 10.2602,10.36271 12.91185,12.83758 2.65165,2.47487 12.065,11.57887 12.065,11.57887 l 0.30936,16.52863 -18.38477,0.17677 -6.43719,-5.59527 -5.67738,6.84251 10.53281,10.12344 c 1.0521,0.93647 1.87019,1.39201 2.9782,1.33672 l 27.59494,0.37408 c 0,0 1.59099,-0.26517 2.20971,-0.7955 0.61871,-0.53033 0.7071,-1.67938 0.7071,-1.67938 z"
           style="fill:#0072c6;fill-opacity:1;fill-rule:evenodd;stroke:none;stroke-width:1px;stroke-linecap:butt;stroke-linejoin:miter;stroke-opacity:1" />
        <path
           style="fill:#0072c6;fill-opacity:1;fill-rule:evenodd;stroke:none;stroke-width:1px;stroke-linecap:butt;stroke-linejoin:miter;stroke-opacity:1"
           d="m 410.48697,566.85037 c 1.57716,-0.12616 2.37935,-0.42735 3.68535,-1.72205 3.24361,-3.21554 9.77023,-11.59509 14.78781,-18.47469 6.58731,-9.03185 9.89191,-16.38218 9.89191,-16.38218 0,0 0.73509,-1.80949 -0.26074,-2.49366 -0.99583,-0.68417 -2.40625,0.21875 -2.40625,0.21875 0,0 -10.36271,10.2602 -12.83758,12.91185 -2.47487,2.65165 -11.57887,12.065 -11.57887,12.065 l -16.52863,0.30936 -0.17677,-18.38477 5.59527,-6.43719 -6.84251,-5.67738 -10.12344,10.53281 c -0.93647,1.0521 -1.39201,1.87019 -1.33672,2.9782 l -0.37408,27.59494 c 0,0 0.26517,1.59099 0.7955,2.20971 0.53033,0.61871 1.67938,0.7071 1.67938,0.7071 z"
           id="path4164"
           inkscape:connector-curvature="0"
           sodipodi:nodetypes="cssczcsccccccccscc" />
        <path
           sodipodi:nodetypes="cssczcsccccccccscc"
           inkscape:connector-curvature="0"
           id="path4166"
           d="m 381.79653,499.85506 c 0.12616,1.57716 0.42735,2.37935 1.72205,3.68535 3.21554,3.24361 11.59509,9.77023 18.47469,14.78781 9.03185,6.58731 16.38218,9.89191 16.38218,9.89191 0,0 1.80949,0.73509 2.49366,-0.26074 0.68417,-0.99583 -0.21875,-2.40625 -0.21875,-2.40625 0,0 -10.2602,-10.36271 -12.91185,-12.83758 -2.65165,-2.47487 -12.065,-11.57887 -12.065,-11.57887 l -0.30936,-16.52863 18.38477,-0.17677 6.43719,5.59527 5.67738,-6.84251 -10.53281,-10.12344 c -1.0521,-0.93647 -1.87019,-1.39201 -2.9782,-1.33672 l -27.59494,-0.37408 c 0,0 -1.59099,0.26517 -2.20971,0.7955 -0.61871,0.53033 -0.7071,1.67938 -0.7071,1.67938 z"
           style="fill:#0072c6;fill-opacity:1;fill-rule:evenodd;stroke:none;stroke-width:1px;stroke-linecap:butt;stroke-linejoin:miter;stroke-opacity:1" />
      </g>
    </g>
  </g>
</svg>
