<?xml version="1.0" encoding="UTF-8" standalone="no"?>
<!-- Created with Inkscape (http://www.inkscape.org/) -->

<svg
   xmlns:dc="http://purl.org/dc/elements/1.1/"
   xmlns:cc="http://creativecommons.org/ns#"
   xmlns:rdf="http://www.w3.org/1999/02/22-rdf-syntax-ns#"
   xmlns:svg="http://www.w3.org/2000/svg"
   xmlns="http://www.w3.org/2000/svg"
   xmlns:sodipodi="http://sodipodi.sourceforge.net/DTD/sodipodi-0.dtd"
   xmlns:inkscape="http://www.inkscape.org/namespaces/inkscape"
   width="210mm"
   height="297mm"
   viewBox="0 0 744.09448819 1052.3622047"
   id="svg2"
   version="1.1"
   inkscape:version="0.91 r13725"
   inkscape:export-xdpi="3.5999999"
   inkscape:export-ydpi="3.5999999"
   sodipodi:docname="FAU-logo.svg"
   inkscape:export-filename="C:\Users\johannes\Documents\Arbeit\RRZE\github3\bicons\16x16\logos\FAU-logo.png">
  <title
     id="title4153">FAU logo</title>
  <defs
     id="defs4">
    <linearGradient
       id="linearGradient2224">
      <stop
         id="stop2226"
         offset="0"
         style="stop-color:#7c7c7c;stop-opacity:1;" />
      <stop
         id="stop2228"
         offset="1"
         style="stop-color:#b8b8b8;stop-opacity:1;" />
    </linearGradient>
    <linearGradient
       id="linearGradient15218">
      <stop
         id="stop15220"
         offset="0"
         style="stop-color:#eeeeef;stop-opacity:1;" />
      <stop
         id="stop2736"
         offset="0.59928656"
         style="stop-color:#d3d7cf;stop-opacity:1;" />
      <stop
         id="stop2738"
         offset="0.82758623"
         style="stop-color:#ffffff;stop-opacity:1;" />
      <stop
         id="stop15222"
         offset="1"
         style="stop-color:#d3d7cf;stop-opacity:1;" />
    </linearGradient>
    <pattern
       y="0"
       x="0"
       height="6"
       width="6"
       patternUnits="userSpaceOnUse"
       id="EMFhbasepattern" />
    <pattern
       y="0"
       x="0"
       height="6"
       width="6"
       patternUnits="userSpaceOnUse"
       id="EMFhbasepattern-5" />
  </defs>
  <sodipodi:namedview
     id="base"
     pagecolor="#ffffff"
     bordercolor="#666666"
     borderopacity="1.0"
     inkscape:pageopacity="0.0"
     inkscape:pageshadow="2"
     inkscape:zoom="0.70710678"
     inkscape:cx="131.09252"
     inkscape:cy="542.19573"
     inkscape:document-units="px"
     inkscape:current-layer="layer1"
     showgrid="false"
     showguides="true"
     inkscape:guide-bbox="true"
     inkscape:window-width="1366"
     inkscape:window-height="721"
     inkscape:window-x="-4"
     inkscape:window-y="-4"
     inkscape:window-maximized="1">
    <sodipodi:guide
       position="560,730.00002"
       orientation="0,1"
       id="guide3338" />
    <sodipodi:guide
       position="560,330.00001"
       orientation="0,1"
       id="guide3340" />
    <sodipodi:guide
       position="190,475.00001"
       orientation="1,0"
       id="guide3344" />
    <sodipodi:guide
       position="590,451.00001"
       orientation="1,0"
       id="guide3346" />
    <inkscape:grid
       type="xygrid"
       id="grid3440" />
  </sodipodi:namedview>
  <metadata
     id="metadata7">
    <rdf:RDF>
      <cc:Work
         rdf:about="">
        <dc:format>image/svg+xml</dc:format>
        <dc:type
           rdf:resource="http://purl.org/dc/dcmitype/StillImage" />
        <dc:title>FAU logo</dc:title>
        <dc:date>June 2015</dc:date>
        <dc:creator>
          <cc:Agent>
            <dc:title>Johannes Hechler</dc:title>
          </cc:Agent>
        </dc:creator>
        <dc:rights>
          <cc:Agent>
            <dc:title>Johannes Hechler</dc:title>
          </cc:Agent>
        </dc:rights>
        <dc:publisher>
          <cc:Agent>
            <dc:title>RRZE</dc:title>
          </cc:Agent>
        </dc:publisher>
        <dc:contributor>
          <cc:Agent>
            <dc:title>Ute Weber, Hendrik Eggers</dc:title>
          </cc:Agent>
        </dc:contributor>
      </cc:Work>
    </rdf:RDF>
  </metadata>
  <g
     inkscape:label="Ebene 1"
     inkscape:groupmode="layer"
     id="layer1">
    <g
       id="g4154">
      <rect
         y="322.36221"
         x="190"
         height="400"
         width="400"
         id="rect4160"
         style="opacity:1;fill:none;fill-opacity:1;stroke:none;stroke-width:23;stroke-linecap:butt;stroke-linejoin:round;stroke-miterlimit:4;stroke-dasharray:none;stroke-opacity:1" />
      <g
         transform="matrix(0.875,0,0,0.875,47.763443,55.657472)"
         id="g4152">
        <g
           id="g4213"
           transform="matrix(0.9929312,0,0,0.9929312,2.396995,4.3915619)">
          <path
             id="path3778"
             d="m 189.04688,449.46484 0,171.67578 44.00976,0 0,-69.82226 71.65039,0 -25.87695,69.94141 43.87695,0 12.81836,-36.37305 56.77539,0 12.20313,36.32226 45.16015,0 -64.70703,-171.51562 -43.92969,0 -25.63867,69.28516 -82.26953,0 0,-38.45508 87.74414,0 0,-30.82617 -131.8164,-0.23243 z m 361.33984,0.0723 0,119.48828 c -6.93099,27.54724 -50.97854,30.83349 -60.42969,-1.2207 l 0,-118.11328 -41.20117,0.15234 0,120.0957 c 4.85957,28.36821 17.8073,42.1491 41.20117,51.12305 l 61.04102,0 c 31.52075,-13.96948 36.42655,-30.6137 40.89648,-47.76562 l 0,-123.75977 -41.50781,0 z m -186.79492,41.96094 19.54101,66.45117 -39.74414,-0.0762 20.20313,-66.375 z"
             style="fill:#4e505d;stroke:none"
             inkscape:connector-curvature="0" />
          <path
             id="rect4369"
             d="m 189.04688,461.67383 0,6.45312 131.8164,0 0,-6.45312 -131.8164,0 z m 147.54687,0 -2.38672,6.45312 57.70508,0 -2.43555,-6.45312 -52.88281,0 z m 112.16211,0 0,6.45312 41.20117,0 0,-6.45312 -41.20117,0 z m 101.63086,0 0,6.45312 41.50781,0 0,-6.45312 -41.50781,0 z m -361.33984,19.46484 0,6.45313 44.07226,0 0,-6.45313 -44.07226,0 z m 140.34374,0 -2.38671,6.45313 72.25,0 -2.4336,-6.45313 -67.42969,0 z m 119.36524,0 0,6.45313 41.20117,0 0,-6.45313 -41.20117,0 z m 101.63086,0 0,6.45313 41.50781,0 0,-6.45313 -41.50781,0 z m -361.33984,15.38281 0,6.45313 44.07226,0 0,-6.45313 -44.07226,0 z m 134.65234,0 -2.38867,6.45313 38.78711,0 1.96484,-6.45313 -38.36328,0 z m 41.36914,0 1.89844,6.45313 38.09179,0 -2.43554,-6.45313 -37.55469,0 z m 83.6875,0 0,6.45313 41.20117,0 0,-6.45313 -41.20117,0 z m 101.63086,0 0,6.45313 41.50781,0 0,-6.45313 -41.50781,0 z m -361.33984,15.74805 0,6.45313 44.07226,0 0,-6.45313 -44.07226,0 z m 128.82421,0 -2.38867,6.45313 39.82227,0 1.96484,-6.45313 -39.39844,0 z m 51.82813,0 1.89844,6.45313 39.40234,0 -2.43555,-6.45313 -38.86523,0 z m 79.05664,0 0,6.45313 41.20117,0 0,-6.45313 -41.20117,0 z m 101.63086,0 0,6.45313 41.50781,0 0,-6.45313 -41.50781,0 z m -361.33984,19.95313 0,6.45507 160.18359,0 1.96484,-6.45507 -162.14843,0 z m 186.52148,0 1.89648,6.45507 41.0625,0 -2.43554,-6.45507 -40.52344,0 z m 73.1875,0 0,6.45507 41.20117,0 0,-6.45507 -41.20117,0 z m 101.63086,0 0,6.45507 41.50781,0 0,-6.45507 -41.50781,0 z m -361.33984,18.77539 0,6.45312 44.00976,0 0,-6.13281 71.65039,0 -2.26953,6.13281 41.08008,0 1.96289,-6.45312 -156.43359,0 z m 192.04101,0 1.89844,6.45312 42.625,0 -2.43555,-6.45312 -42.08789,0 z m 67.66797,0 0,6.45312 41.20117,0 0,-6.45312 -41.20117,0 z m 101.63086,0 0,6.45312 41.50781,0 0,-6.45312 -41.50781,0 z m -361.33984,15.83984 0,6.45313 44.00976,0 0,-6.45313 -44.00976,0 z m 109.91796,0 -2.38672,6.45313 135.00782,0 -2.4336,-6.45313 -130.1875,0 z m 149.79102,0 0,3.10156 c 0.19588,1.14347 0.40854,2.25486 0.63086,3.35157 l 42.67773,0 c -0.82047,-1.69862 -1.52937,-3.52585 -2.10742,-5.48633 l 0,-0.9668 -41.20117,0 z m 101.63086,0 0,2.1875 c -0.37621,1.49524 -0.86773,2.91512 -1.45117,4.26563 l 42.95898,0 0,-6.45313 -41.50781,0 z m -361.33984,17.89453 0,6.45313 44.00976,0 0,-6.45313 -44.00976,0 z m 103.29687,0 -2.38672,6.45313 43.34766,0 2.2207,-6.29883 56.77539,0 2.11524,6.29883 43.92187,0 -2.43555,-6.45313 -143.55859,0 z m 160.125,0 c 0.79087,2.27129 1.66713,4.41774 2.625,6.45313 l 130.74023,0 c 1.03733,-2.13071 1.90241,-4.28473 2.67383,-6.45313 l -48.85742,0 c -10.80463,7.78065 -26.86391,8.30381 -38.16992,0 l -49.01172,0 z m -263.42187,17.30664 0,6.45313 44.00976,0 0,-6.45313 -44.00976,0 z m 96.89453,0 -2.38672,6.45313 43.65234,0 2.27344,-6.45313 -43.53906,0 z m 112.12109,0 2.16992,6.45313 44.63477,0 -2.43555,-6.45313 -44.36914,0 z m 63.75391,0 c 1.87646,2.33666 3.93281,4.48279 6.18554,6.45313 l 104.08985,0 c 2.54574,-2.11321 4.72324,-4.26737 6.60937,-6.45313 l -116.88476,0 z"
             style="color:#252525;clip-rule:nonzero;display:inline;overflow:visible;visibility:visible;opacity:1;isolation:auto;mix-blend-mode:normal;color-interpolation:sRGB;color-interpolation-filters:linearRGB;solid-color:#252525;solid-opacity:1;fill:#ffffff;fill-opacity:1;fill-rule:nonzero;stroke:none;stroke-width:10;stroke-linecap:butt;stroke-linejoin:bevel;stroke-miterlimit:4;stroke-dasharray:none;stroke-dashoffset:60.95968628;stroke-opacity:1;color-rendering:auto;image-rendering:auto;shape-rendering:auto;text-rendering:auto;enable-background:accumulate"
             inkscape:connector-curvature="0" />
        </g>
      </g>
    </g>
  </g>
</svg>
