<?xml version="1.0" encoding="UTF-8" standalone="no"?>
<!-- Created with Inkscape (http://www.inkscape.org/) -->

<svg
   xmlns:dc="http://purl.org/dc/elements/1.1/"
   xmlns:cc="http://creativecommons.org/ns#"
   xmlns:rdf="http://www.w3.org/1999/02/22-rdf-syntax-ns#"
   xmlns:svg="http://www.w3.org/2000/svg"
   xmlns="http://www.w3.org/2000/svg"
   xmlns:sodipodi="http://sodipodi.sourceforge.net/DTD/sodipodi-0.dtd"
   xmlns:inkscape="http://www.inkscape.org/namespaces/inkscape"
   width="210mm"
   height="297mm"
   viewBox="0 0 744.09448819 1052.3622047"
   id="svg2"
   version="1.1"
   inkscape:version="0.91 r13725"
   inkscape:export-xdpi="3.5999999"
   inkscape:export-ydpi="3.5999999"
   sodipodi:docname="gate-logo.svg"
   inkscape:export-filename="D:\Dokumente\Arbeit\RRZE\github\bicons\16x16\logos\gate-logo.png">
  <title
     id="title4247">gate logo</title>
  <defs
     id="defs4">
    <linearGradient
       id="linearGradient2224">
      <stop
         id="stop2226"
         offset="0"
         style="stop-color:#7c7c7c;stop-opacity:1;" />
      <stop
         id="stop2228"
         offset="1"
         style="stop-color:#b8b8b8;stop-opacity:1;" />
    </linearGradient>
    <linearGradient
       id="linearGradient15218">
      <stop
         id="stop15220"
         offset="0"
         style="stop-color:#eeeeef;stop-opacity:1;" />
      <stop
         id="stop2736"
         offset="0.59928656"
         style="stop-color:#d3d7cf;stop-opacity:1;" />
      <stop
         id="stop2738"
         offset="0.82758623"
         style="stop-color:#ffffff;stop-opacity:1;" />
      <stop
         id="stop15222"
         offset="1"
         style="stop-color:#d3d7cf;stop-opacity:1;" />
    </linearGradient>
    <pattern
       y="0"
       x="0"
       height="6"
       width="6"
       patternUnits="userSpaceOnUse"
       id="EMFhbasepattern" />
    <pattern
       y="0"
       x="0"
       height="6"
       width="6"
       patternUnits="userSpaceOnUse"
       id="EMFhbasepattern-5" />
    <linearGradient
       id="linearGradient4501">
      <stop
         style="stop-color:#ffffff;stop-opacity:1;"
         offset="0"
         id="stop4503" />
      <stop
         id="stop4511"
         offset="0.25555333"
         style="stop-color:#bfbfbf;stop-opacity:1;" />
      <stop
         id="stop4509"
         offset="0.50285846"
         style="stop-color:#7f7f7f;stop-opacity:1;" />
      <stop
         style="stop-color:#252525;stop-opacity:1;"
         offset="1"
         id="stop4505" />
    </linearGradient>
    <clipPath
       clipPathUnits="userSpaceOnUse"
       id="clipPath9585">
      <g
         id="g9587"
         transform="translate(9.5955183,-324.64837)">
        <path
           sodipodi:nodetypes="ccccccccccccc"
           inkscape:connector-curvature="0"
           id="path9589"
           style="font-style:normal;font-weight:normal;font-size:144px;line-height:125%;font-family:Sans;letter-spacing:0px;word-spacing:0px;fill:url(#linearGradient9597);fill-opacity:1;stroke:none"
           d="m 97.838628,673.19162 26.510432,6.23807 -12.91781,-47.74558 z M 129.1514,581.78843 195.30371,819.61425 159.25994,811.78924 133.42531,710.73645 90.884094,701.03377 63.731915,791.11994 30.587037,783.75177 95.281469,575.01403 Z" />
        <path
           d="m -5.1213561,741.42125 -24.6816359,0 0,-24.61597 51.646714,0.39981 -0.399813,55.82336 c -6.306456,4.47374 -14.0592288,9.86853 -21.65908731,12.18625 -7.60004019,2.26382 -15.71204169,3.39572 -24.33602769,3.39572 -18.86519,0 -33.633885,-5.49784 -44.306128,-16.49352 -10.618394,-11.04955 -16.727205,-25.21172 -16.727196,-44.8854 -9e-6,-19.72746 6.108802,-36.28851 16.727196,-47.28429 10.672243,-11.04946 25.440938,-16.57424 44.306128,-16.57436 7.869381,1.2e-4 15.3345794,0.97034 22.3956156,2.91062 7.1147584,1.94053 17.2216824,6.45641 23.2047354,10.22933 l 0.799626,32.57578 c -6.036948,-5.12044 -18.008195,-13.03237 -24.7995419,-15.61969 -6.791541,-2.58711 -13.1337111,-5.08016 -20.6257881,-5.08027 -14.768765,1.1e-4 -19.875038,3.72368 -24.114742,6.77277 -7.384385,8.24685 -10.911515,17.34996 -10.276905,33.66936 0.399787,10.28076 3.692146,19.3446 9.077465,25.59225 7.43821,8.24677 10.145603,7.5724 16.520125,9.33129 15.570227,0.95926 17.240823,-0.60386 27.0493532,-2.30616 z"
           style="font-style:normal;font-weight:normal;font-size:144px;line-height:125%;font-family:Sans;letter-spacing:0px;word-spacing:0px;fill:#babdb6;fill-opacity:1;stroke:none"
           id="path9591"
           inkscape:connector-curvature="0"
           sodipodi:nodetypes="ccccccscsccccccccscccc" />
        <path
           sodipodi:nodetypes="ccccccccc"
           inkscape:connector-curvature="0"
           id="path9593"
           style="font-style:normal;font-weight:normal;font-size:144px;line-height:125%;font-family:Sans;letter-spacing:0px;word-spacing:0px;fill:#babdb6;fill-opacity:1;stroke:none"
           d="m 329.63763,671.40109 0.19991,24.60467 -37.60933,0.39981 0.19991,92.7661 -27.2078,0 0.39982,-93.16591 -37.60934,0.39981 0,-25.00448 z" />
        <path
           sodipodi:nodetypes="ccccccccccccc"
           inkscape:connector-curvature="0"
           id="path9595"
           style="font-style:normal;font-weight:normal;font-size:144px;line-height:125%;font-family:Sans;letter-spacing:0px;word-spacing:0px;fill:#babdb6;fill-opacity:1;stroke:none"
           d="m 338.41452,671.571 79.32894,-0.28271 0.28271,25.24336 -52.41708,-0.28271 -0.28271,18.36353 50.54453,-0.56542 -0.56542,25.52608 -49.97911,-0.28272 0,25.01846 54.3981,0.28271 -0.56542,24.67795 -80.74454,-0.28271 0,-117.41582" />
      </g>
    </clipPath>
    <linearGradient
       id="linearGradient9625">
      <stop
         id="stop9635"
         offset="0"
         style="stop-color:#2e3436;stop-opacity:1;" />
      <stop
         id="stop9633"
         offset="0.5"
         style="stop-color:#ffffff;stop-opacity:1;" />
      <stop
         style="stop-color:#2e3436;stop-opacity:1;"
         offset="1"
         id="stop9629" />
    </linearGradient>
  </defs>
  <sodipodi:namedview
     id="base"
     pagecolor="#ffffff"
     bordercolor="#666666"
     borderopacity="1.0"
     inkscape:pageopacity="0.0"
     inkscape:pageshadow="2"
     inkscape:zoom="1"
     inkscape:cx="424.20654"
     inkscape:cy="577.57224"
     inkscape:document-units="px"
     inkscape:current-layer="layer1"
     showgrid="false"
     showguides="true"
     inkscape:guide-bbox="true"
     inkscape:window-width="1600"
     inkscape:window-height="837"
     inkscape:window-x="-4"
     inkscape:window-y="-4"
     inkscape:window-maximized="1"
     inkscape:snap-bbox="true"
     inkscape:bbox-nodes="true">
    <sodipodi:guide
       position="560,730.00002"
       orientation="0,1"
       id="guide3338" />
    <sodipodi:guide
       position="560,330.00001"
       orientation="0,1"
       id="guide3340" />
    <sodipodi:guide
       position="190,475.00001"
       orientation="1,0"
       id="guide3344" />
    <sodipodi:guide
       position="590,451.00001"
       orientation="1,0"
       id="guide3346" />
    <inkscape:grid
       type="xygrid"
       id="grid3440" />
    <sodipodi:guide
       position="-111.01577,704.98548"
       orientation="0,1"
       id="guide4151" />
    <sodipodi:guide
       position="54.25,355.00001"
       orientation="0,1"
       id="guide4153" />
    <sodipodi:guide
       position="215,442.00001"
       orientation="1,0"
       id="guide4155" />
    <sodipodi:guide
       position="564.97832,467.39759"
       orientation="1,0"
       id="guide4157" />
  </sodipodi:namedview>
  <metadata
     id="metadata7">
    <rdf:RDF>
      <cc:Work
         rdf:about="">
        <dc:format>image/svg+xml</dc:format>
        <dc:type
           rdf:resource="http://purl.org/dc/dcmitype/StillImage" />
        <dc:title>gate logo</dc:title>
        <dc:date>June 2015</dc:date>
        <dc:creator>
          <cc:Agent>
            <dc:title>Franziska Sponsel, Johannes Hechler</dc:title>
          </cc:Agent>
        </dc:creator>
        <dc:rights>
          <cc:Agent>
            <dc:title>Franziska Sponsel, Johannes Hechler</dc:title>
          </cc:Agent>
        </dc:rights>
        <dc:publisher>
          <cc:Agent>
            <dc:title>RRZE</dc:title>
          </cc:Agent>
        </dc:publisher>
        <dc:contributor>
          <cc:Agent>
            <dc:title>Ute Weber, Hendrik Eggers</dc:title>
          </cc:Agent>
        </dc:contributor>
      </cc:Work>
    </rdf:RDF>
  </metadata>
  <g
     inkscape:label="Ebene 1"
     inkscape:groupmode="layer"
     id="layer1">
    <g
       id="g4449"
       transform="matrix(25,0,0,25,-11710,-11861.693)">
      <path
         id="path4205"
         d="m 482,490.3622 0,0.004 -2,6.99024 1,0.01 0.75586,-2.26563 2.19141,1.10156 1.05273,3.16015 1,0 -3,-9 -1,0 z m -2,6.99415 0,-1.99415 -2,0 0,1 1,0 0,1 c -0.0766,0.035 -0.1861,0.0592 -0.2832,0.0762 -0.0952,0.013 -0.19851,0.0234 -0.31055,0.0234 -0.4127,0 -0.73099,-0.13841 -0.95508,-0.41601 -0.22409,-0.2776 -0.33594,-0.67164 -0.33594,-1.18164 0,-0.5143 0.1161,-0.91005 0.34766,-1.18555 0.23343,-0.2776 0.56464,-0.41601 0.99414,-0.41601 0.23156,0 0.46172,0.0383 0.69141,0.11328 0.23156,0.0753 0.46384,0.18899 0.69726,0.34179 l 0,-0.99804 c -0.22595,-0.118 -0.46682,-0.20658 -0.72265,-0.26758 -0.25397,-0.06 -0.52059,-0.0899 -0.79883,-0.0899 -0.72082,0 -1.28856,0.22247 -1.70313,0.66797 -0.41456,0.4454 -0.62109,1.05709 -0.62109,1.83399 0,0.7682 0.20423,1.37637 0.61133,1.82617 0.40709,0.4476 0.95775,0.67187 1.6543,0.67187 0.30812,0 0.60703,-0.0383 0.89648,-0.11328 0.28945,-0.0753 0.56898,-0.18729 0.83789,-0.33789 l 0,-0.002 0,-0.55273 z m 2.66797,-4.99219 0.73633,2.21289 -1.30274,-0.51563 0.56641,-1.69726 z M 485,493.3622 l 0,0.97461 1,0.0254 0,4.0254 1,-0.0254 0,-4.02539 1,0 0,-0.97461 -3,0 z m 4,0 0,5 3,0 0,-0.9746 -2,-0.0254 0,-1 2,0 0,-1 -2,0 0,-1 1.9375,-0.0254 0,-0.97461 -2.9375,0 z"
         style="font-style:normal;font-variant:normal;font-weight:bold;font-stretch:normal;font-size:medium;line-height:125%;font-family:sans-serif;-inkscape-font-specification:'sans-serif Bold';letter-spacing:0px;word-spacing:0px;fill:#4e505d;fill-opacity:1;stroke:none;stroke-width:1px;stroke-linecap:butt;stroke-linejoin:miter;stroke-opacity:1"
         inkscape:connector-curvature="0" />
      <path
         id="rect4226"
         d="m 476,487.3622 16,0 0,16 -16,0 z"
         style="color:#000000;clip-rule:nonzero;display:inline;overflow:visible;visibility:visible;opacity:1;isolation:auto;mix-blend-mode:normal;color-interpolation:sRGB;color-interpolation-filters:linearRGB;solid-color:#000000;solid-opacity:1;fill:none;fill-opacity:1;fill-rule:nonzero;stroke:none;stroke-width:2;stroke-linecap:round;stroke-linejoin:round;stroke-miterlimit:4;stroke-dasharray:none;stroke-dashoffset:0;stroke-opacity:1;color-rendering:auto;image-rendering:auto;shape-rendering:auto;text-rendering:auto;enable-background:accumulate"
         inkscape:connector-curvature="0" />
    </g>
  </g>
</svg>
