<?xml version="1.0" encoding="UTF-8" standalone="no"?>
<!-- Created with Inkscape (http://www.inkscape.org/) -->

<svg
   xmlns:dc="http://purl.org/dc/elements/1.1/"
   xmlns:cc="http://creativecommons.org/ns#"
   xmlns:rdf="http://www.w3.org/1999/02/22-rdf-syntax-ns#"
   xmlns:svg="http://www.w3.org/2000/svg"
   xmlns="http://www.w3.org/2000/svg"
   xmlns:sodipodi="http://sodipodi.sourceforge.net/DTD/sodipodi-0.dtd"
   xmlns:inkscape="http://www.inkscape.org/namespaces/inkscape"
   width="210mm"
   height="297mm"
   viewBox="0 0 744.09448819 1052.3622047"
   id="svg2"
   version="1.1"
   inkscape:version="0.91 r13725"
   inkscape:export-xdpi="4"
   inkscape:export-ydpi="4"
   sodipodi:docname="groovy.svg">
  <title
     id="title4165">groovy</title>
  <defs
     id="defs4">
    <linearGradient
       id="linearGradient2224">
      <stop
         id="stop2226"
         offset="0"
         style="stop-color:#7c7c7c;stop-opacity:1;" />
      <stop
         id="stop2228"
         offset="1"
         style="stop-color:#b8b8b8;stop-opacity:1;" />
    </linearGradient>
    <linearGradient
       id="linearGradient15218">
      <stop
         id="stop15220"
         offset="0"
         style="stop-color:#eeeeef;stop-opacity:1;" />
      <stop
         id="stop2736"
         offset="0.59928656"
         style="stop-color:#d3d7cf;stop-opacity:1;" />
      <stop
         id="stop2738"
         offset="0.82758623"
         style="stop-color:#ffffff;stop-opacity:1;" />
      <stop
         id="stop15222"
         offset="1"
         style="stop-color:#d3d7cf;stop-opacity:1;" />
    </linearGradient>
    <pattern
       y="0"
       x="0"
       height="6"
       width="6"
       patternUnits="userSpaceOnUse"
       id="EMFhbasepattern" />
    <pattern
       y="0"
       x="0"
       height="6"
       width="6"
       patternUnits="userSpaceOnUse"
       id="EMFhbasepattern-5" />
  </defs>
  <sodipodi:namedview
     id="base"
     pagecolor="#ffffff"
     bordercolor="#666666"
     borderopacity="1.0"
     inkscape:pageopacity="0.0"
     inkscape:pageshadow="2"
     inkscape:zoom="1"
     inkscape:cx="131.87788"
     inkscape:cy="512.16415"
     inkscape:document-units="px"
     inkscape:current-layer="layer1"
     showgrid="false"
     showguides="true"
     inkscape:guide-bbox="true"
     inkscape:window-width="1366"
     inkscape:window-height="721"
     inkscape:window-x="-4"
     inkscape:window-y="-4"
     inkscape:window-maximized="1">
    <sodipodi:guide
       position="560,730.00002"
       orientation="0,1"
       id="guide3338" />
    <sodipodi:guide
       position="560,330.00001"
       orientation="0,1"
       id="guide3340" />
    <sodipodi:guide
       position="190,475.00001"
       orientation="1,0"
       id="guide3344" />
    <sodipodi:guide
       position="590,451.00001"
       orientation="1,0"
       id="guide3346" />
    <inkscape:grid
       type="xygrid"
       id="grid3440" />
    <sodipodi:guide
       position="-111.01577,704.98548"
       orientation="0,1"
       id="guide4151" />
    <sodipodi:guide
       position="54.25,355.00001"
       orientation="0,1"
       id="guide4153" />
    <sodipodi:guide
       position="215,442.00001"
       orientation="1,0"
       id="guide4155" />
    <sodipodi:guide
       position="564.97832,467.39759"
       orientation="1,0"
       id="guide4157" />
  </sodipodi:namedview>
  <metadata
     id="metadata7">
    <rdf:RDF>
      <cc:Work
         rdf:about="">
        <dc:format>image/svg+xml</dc:format>
        <dc:type
           rdf:resource="http://purl.org/dc/dcmitype/StillImage" />
        <dc:title>groovy</dc:title>
        <dc:date>June 2015</dc:date>
        <dc:creator>
          <cc:Agent>
            <dc:title>Franziska Sponsel, Johannes Hechler</dc:title>
          </cc:Agent>
        </dc:creator>
        <dc:rights>
          <cc:Agent>
            <dc:title>Franziska Sponsel, Johannes Hechler</dc:title>
          </cc:Agent>
        </dc:rights>
        <dc:publisher>
          <cc:Agent>
            <dc:title>RRZE</dc:title>
          </cc:Agent>
        </dc:publisher>
        <dc:contributor>
          <cc:Agent>
            <dc:title>Ute Weber, Hendrik Eggers</dc:title>
          </cc:Agent>
        </dc:contributor>
      </cc:Work>
    </rdf:RDF>
  </metadata>
  <g
     inkscape:label="Ebene 1"
     inkscape:groupmode="layer"
     id="layer1">
    <rect
       style="opacity:1;fill:none;fill-opacity:1;stroke:none;stroke-width:23;stroke-linecap:butt;stroke-linejoin:round;stroke-miterlimit:4;stroke-dasharray:none;stroke-opacity:1"
       id="rect4160"
       width="400"
       height="400"
       x="190"
       y="322.36221" />
    <g
       id="g4162"
       transform="matrix(0.875,0,0,0.875,48.745386,64.193771)">
      <path
         inkscape:connector-curvature="0"
         id="path3023"
         d="m 266.16567,621.49254 52.47037,-82.80479 -124.61712,-39.35277 151.67215,0 43.45202,-71.3269 40.99246,69.6872 155.7714,1.6397 -123.79727,43.45202 45.91158,76.24599 -121.33772,-45.91157 z"
         style="fill:#3465a4;stroke:#000000;stroke-width:8.11609554;stroke-linecap:butt;stroke-linejoin:round;stroke-miterlimit:4;stroke-dasharray:none;stroke-opacity:1" />
      <path
         sodipodi:nodetypes="csccccsscccscssscc"
         inkscape:connector-curvature="0"
         id="path3814"
         d="m 322.73528,503.0243 c 0,0 4.90784,-8.61643 9.8382,-7.37864 3.37883,0.84827 6.96872,7.78856 6.96872,7.78856 0.0844,-7.61975 4.21385,-7.14943 7.37864,-8.60841 3.11681,0.21448 5.34418,3.09728 7.37864,6.55879 l 6.5588,-7.37864 c 0,0 4.34527,2.12429 3.2794,10.65804 -0.68352,5.47245 -2.69185,7.98207 -7.37865,12.29774 -3.72672,3.43161 -10.50068,5.63536 -14.34736,1.22977 l 4.50917,9.42827 9.83819,-5.32902 c 0,0 4.03328,-0.23629 4.50918,2.04962 1.80558,8.67292 2.25148,19.72353 0.81984,24.18556 -10.00511,5.97539 -12.51922,5.23861 -18.03669,4.09924 -4.63752,-0.95765 -7.47331,-8.19516 -9.83819,-12.29773 -3.69316,-6.40685 -1.50993,-18.03616 -6.14887,-25.41533 -1.03359,-1.64415 -4.50917,-3.68933 -4.50917,-3.68933 z"
         style="fill:#eeeeec;stroke:#000000;stroke-width:8.11609554;stroke-linecap:butt;stroke-linejoin:round;stroke-miterlimit:4;stroke-dasharray:none;stroke-opacity:1" />
      <path
         sodipodi:nodetypes="csssssscssssscssssc"
         inkscape:connector-curvature="0"
         id="path3025"
         d="m 315.19649,488.76004 c 0,0 8.24195,19.11903 10.36464,27.79748 2.1227,8.67845 5.64716,21.7992 2.38921,27.31722 -4.57473,7.7483 -7.86403,11.79497 -13.56164,14.79143 -9.60947,5.05377 -37.72024,14.72378 -40.04196,10.6751 -3.99187,-6.96115 -9.87488,-10.90906 -15.96292,-23.18884 -2.5351,-5.11338 33.94464,-10.35992 42.10864,-17.46197 8.164,-7.10204 9.58599,-15.7228 9.58599,-15.7228 4.9651,10.79504 -34.74521,32.54899 -44.15826,23.90923 -8.01124,-7.35311 -12.11873,-10.91766 -12.17414,-22.02939 -0.0554,-11.11173 10.80287,-26.06261 19.71052,-36.52243 8.90765,-10.45982 22.08545,-27.80049 32.46438,-24.92801 10.37893,2.87247 9.84287,11.59996 9.92559,19.97978 0.0827,8.37981 -10.91524,30.66695 -10.91524,30.66695 0,0 -6.83331,15.79498 -20.6881,17.73122 -14.01155,1.95816 -12.72417,-7.64552 -11.46582,-16.09153 1.25835,-8.446 12.91798,-26.28303 18.72087,-29.8471 5.80289,-3.56406 6.16386,-10.46857 10.09538,-6.24833 3.93153,4.22023 -10.06625,32.13686 -10.06625,32.13686"
         style="fill:#eeeeec;stroke:#000000;stroke-width:8.11609554;stroke-linecap:round;stroke-linejoin:round;stroke-miterlimit:4;stroke-dasharray:none;stroke-opacity:1" />
      <path
         sodipodi:nodetypes="sssssssss"
         inkscape:connector-curvature="0"
         id="path3816"
         d="m 378.07511,493.59604 c 3.59907,-1.9623 8.73082,-2.63392 12.70767,-1.63971 4.50711,1.12678 7.26582,3.51 9.8382,7.37865 3.26734,4.91383 5.15101,11.32044 4.9191,17.21684 -0.2834,7.20542 -0.68729,13.42777 -4.9191,19.26645 -4.44814,6.13715 -11.29575,11.60175 -18.85654,11.06797 -7.41565,-0.52352 -13.11568,-2.57107 -15.98706,-9.42826 -3.20204,-7.64687 -2.10582,-19.29822 0.81985,-27.05504 2.58154,-6.84445 5.05536,-13.3052 11.47788,-16.8069 z"
         style="fill:#eeeeec;stroke:#000000;stroke-width:8.11609554;stroke-linecap:butt;stroke-linejoin:miter;stroke-miterlimit:4;stroke-dasharray:none;stroke-opacity:1" />
      <path
         sodipodi:nodetypes="sssssssssss"
         inkscape:connector-curvature="0"
         id="path3818"
         d="m 405.54008,502.61437 c 1.31721,-3.43259 4.36349,-6.09453 7.37864,-8.19849 3.62068,-2.52648 7.91099,-5.41799 12.29774,-4.9191 5.95054,0.67674 10.97129,5.60775 14.75729,10.24812 3.94713,4.83788 6.91472,10.99031 7.37865,17.21684 0.44079,5.91611 -1.17677,12.30871 -4.50918,17.21683 -3.23917,4.77082 -8.28822,9.09086 -13.93743,10.24812 -6.46152,1.32367 -13.79392,-0.82752 -19.26647,-4.50917 -3.33441,-2.24322 -6.18171,-5.89726 -6.96872,-9.83819 -0.85041,-4.25845 2.38827,-8.39187 2.86948,-12.70766 0.5451,-4.88881 -1.76234,-10.16472 0,-14.7573 z"
         style="fill:#eeeeec;stroke:#000000;stroke-width:8.11609554;stroke-linecap:butt;stroke-linejoin:miter;stroke-miterlimit:4;stroke-dasharray:none;stroke-opacity:1" />
      <path
         sodipodi:nodetypes="csssc"
         inkscape:connector-curvature="0"
         id="path3820"
         d="m 378.48505,516.14189 c 0,0 2.66549,5.37593 6.14887,5.32902 3.38278,-0.0455 7.5935,-2.26062 9.01834,-5.32902 1.03747,-2.23421 1.33492,-5.09557 0.40993,-7.37864 -0.90776,-2.24054 -5.32903,-4.91909 -5.32903,-4.91909"
         style="fill:none;stroke:#000000;stroke-width:8.11609554;stroke-linecap:round;stroke-linejoin:round;stroke-miterlimit:4;stroke-dasharray:none;stroke-opacity:1" />
      <path
         sodipodi:nodetypes="csssc"
         inkscape:connector-curvature="0"
         id="path3822"
         d="m 416.60804,509.99302 c 0,0 2.37874,5.86716 4.9191,7.37864 2.59407,1.54344 6.38137,2.28879 9.01833,0.81985 2.13536,-1.18952 3.58259,-4.13335 3.2794,-6.5588 -0.49266,-3.94134 -7.78856,-9.01834 -7.78856,-9.01834"
         style="fill:none;stroke:#000000;stroke-width:8.11609554;stroke-linecap:round;stroke-linejoin:round;stroke-miterlimit:4;stroke-dasharray:none;stroke-opacity:1" />
      <path
         sodipodi:nodetypes="ccccccscssssscscsscssc"
         inkscape:connector-curvature="0"
         id="path3826"
         d="m 476.45705,498.1052 c 1.96443,-7.01851 5.19334,-5.18566 8.1985,-4.91909 4.89363,3.05382 8.31268,10.64867 11.06795,18.44661 l 4.50919,15.57714 c 3.68296,-0.286 3.69567,-2.5835 4.09924,-9.42827 l -7.37864,-22.13594 c 0,0 3.51531,-3.21253 5.73894,-3.68932 2.70199,-0.57936 8.1985,1.22978 8.1985,1.22978 0,0 6.04102,18.43306 8.19849,27.87487 2.62213,11.47525 7.13055,23.15514 5.73894,34.84361 -0.9121,7.661 -4.06108,15.40435 -9.01833,21.31608 -3.87206,4.61759 -9.41084,8.05522 -15.16722,9.83819 -10.31469,3.19486 -22.01047,3.81794 -32.38405,0.81986 -2.83979,-0.82073 -7.37865,-4.9191 -7.37865,-4.9191 0,0 5.3306,-5.59064 6.96872,-9.01835 2.54377,-5.32276 4.09924,-17.21683 4.09924,-17.21683 0,0 8.63877,5.35281 13.52752,6.14886 6.50856,1.05982 14.07654,1.43267 19.67639,-2.04962 3.70224,-2.30225 6.96872,-11.06797 6.96872,-11.06797 0,0 -5.71245,13.01611 -12.70766,11.88782 -5.5767,-0.89948 -8.44286,-8.03439 -11.06797,-13.11759 -2.00734,-3.88694 -3.27941,-12.70766 -3.27941,-12.70766"
         style="fill:#eeeeec;stroke:#000000;stroke-width:8.11609554;stroke-linecap:round;stroke-linejoin:round;stroke-miterlimit:4;stroke-dasharray:none;stroke-opacity:1" />
      <path
         sodipodi:nodetypes="ccsssssssssscc"
         inkscape:connector-curvature="0"
         id="path3824"
         d="m 467.84863,505.07392 0.81985,4.9191 c 0,0 4.36324,7.65362 0.81984,10.24812 -3.11241,2.27894 -4.35013,2.01277 -6.96871,-0.81985 -4.69307,-5.07668 -11.33556,-13.74676 -9.83819,-20.49623 0.77456,-3.49137 3.86426,-7.1262 7.37864,-7.78857 5.04569,-0.95098 10.26383,2.97161 13.93745,6.55879 5.24652,5.1231 8.10249,12.55181 9.83819,19.67639 2.26423,9.29405 2.44531,16.9935 -1.22979,25.82526 -2.11617,5.08546 -4.84569,10.81352 -10.24811,11.8878 -4.75338,0.94523 -10.88232,-1.94058 -14.34736,-5.32902 -5.29806,-5.1809 -5.40721,-11.01953 -7.78857,-18.03668 -3.63194,-10.70218 -8.60842,-32.79397 -8.60842,-32.79397 1.59148,-6.2493 4.84528,-6.68054 8.60842,-5.32903"
         style="fill:#eeeeec;stroke:#000000;stroke-width:8.11609554;stroke-linecap:round;stroke-linejoin:round;stroke-miterlimit:4;stroke-dasharray:none;stroke-opacity:1" />
    </g>
  </g>
</svg>
