<?xml version="1.0" encoding="UTF-8" standalone="no"?>
<!-- Created with Inkscape (http://www.inkscape.org/) -->

<svg
   xmlns:dc="http://purl.org/dc/elements/1.1/"
   xmlns:cc="http://creativecommons.org/ns#"
   xmlns:rdf="http://www.w3.org/1999/02/22-rdf-syntax-ns#"
   xmlns:svg="http://www.w3.org/2000/svg"
   xmlns="http://www.w3.org/2000/svg"
   xmlns:xlink="http://www.w3.org/1999/xlink"
   xmlns:sodipodi="http://sodipodi.sourceforge.net/DTD/sodipodi-0.dtd"
   xmlns:inkscape="http://www.inkscape.org/namespaces/inkscape"
   width="210mm"
   height="297mm"
   viewBox="0 0 744.09448819 1052.3622047"
   id="svg2"
   version="1.1"
   inkscape:version="0.91 r13725"
   inkscape:export-xdpi="3.597384"
   inkscape:export-ydpi="3.597384"
   sodipodi:docname="meincampus.svg"
   inkscape:export-filename="C:\Users\johannes\Documents\Arbeit\RRZE\github3\bicons\16x16\logos\meincampus.png">
  <title
     id="title4177">meincampus</title>
  <defs
     id="defs4">
    <linearGradient
       id="linearGradient2224">
      <stop
         id="stop2226"
         offset="0"
         style="stop-color:#7c7c7c;stop-opacity:1;" />
      <stop
         id="stop2228"
         offset="1"
         style="stop-color:#b8b8b8;stop-opacity:1;" />
    </linearGradient>
    <linearGradient
       id="linearGradient15218">
      <stop
         id="stop15220"
         offset="0"
         style="stop-color:#eeeeef;stop-opacity:1;" />
      <stop
         id="stop2736"
         offset="0.59928656"
         style="stop-color:#d3d7cf;stop-opacity:1;" />
      <stop
         id="stop2738"
         offset="0.82758623"
         style="stop-color:#ffffff;stop-opacity:1;" />
      <stop
         id="stop15222"
         offset="1"
         style="stop-color:#d3d7cf;stop-opacity:1;" />
    </linearGradient>
    <pattern
       y="0"
       x="0"
       height="6"
       width="6"
       patternUnits="userSpaceOnUse"
       id="EMFhbasepattern" />
    <pattern
       y="0"
       x="0"
       height="6"
       width="6"
       patternUnits="userSpaceOnUse"
       id="EMFhbasepattern-5" />
    <linearGradient
       id="linearGradient3796">
      <stop
         style="stop-color:#3465a4;stop-opacity:1;"
         offset="0"
         id="stop3798" />
      <stop
         style="stop-color:#252525;stop-opacity:1;"
         offset="1"
         id="stop3800" />
    </linearGradient>
    <linearGradient
       id="linearGradient3812">
      <stop
         style="stop-color:#fce94f;stop-opacity:1;"
         offset="0"
         id="stop3814" />
      <stop
         style="stop-color:#fcaf3e;stop-opacity:1;"
         offset="1"
         id="stop3816" />
    </linearGradient>
    <linearGradient
       id="linearGradient4250">
      <stop
         style="stop-color:#252525;stop-opacity:1;"
         offset="0"
         id="stop4252" />
      <stop
         style="stop-color:#ffffff;stop-opacity:1;"
         offset="1"
         id="stop4254" />
    </linearGradient>
    <linearGradient
       inkscape:collect="always"
       xlink:href="#linearGradient4277"
       id="linearGradient4273"
       x1="-489.53906"
       y1="500.28043"
       x2="-391.60379"
       y2="340.98865"
       gradientUnits="userSpaceOnUse" />
    <linearGradient
       id="linearGradient4277"
       inkscape:collect="always">
      <stop
         id="stop4279"
         offset="0"
         style="stop-color:#4e505d;stop-opacity:1;" />
      <stop
         id="stop4281"
         offset="1"
         style="stop-color:#7a859c;stop-opacity:1" />
    </linearGradient>
    <linearGradient
       inkscape:collect="always"
       xlink:href="#linearGradient4277"
       id="linearGradient4275"
       x1="-386.1658"
       y1="697.37042"
       x2="-455.36758"
       y2="604.51373"
       gradientUnits="userSpaceOnUse" />
    <linearGradient
       inkscape:collect="always"
       xlink:href="#linearGradient4277"
       id="linearGradient4301"
       gradientUnits="userSpaceOnUse"
       x1="-489.53906"
       y1="500.28043"
       x2="-391.60379"
       y2="340.98865" />
    <linearGradient
       inkscape:collect="always"
       xlink:href="#linearGradient4277"
       id="linearGradient4303"
       gradientUnits="userSpaceOnUse"
       x1="-386.1658"
       y1="697.37042"
       x2="-455.36758"
       y2="604.51373" />
  </defs>
  <sodipodi:namedview
     id="base"
     pagecolor="#ffffff"
     bordercolor="#666666"
     borderopacity="1.0"
     inkscape:pageopacity="0.0"
     inkscape:pageshadow="2"
     inkscape:zoom="0.7071068"
     inkscape:cx="191.29088"
     inkscape:cy="569.76695"
     inkscape:document-units="px"
     inkscape:current-layer="layer1"
     showgrid="false"
     showguides="true"
     inkscape:guide-bbox="true"
     inkscape:window-width="1366"
     inkscape:window-height="721"
     inkscape:window-x="-4"
     inkscape:window-y="-4"
     inkscape:window-maximized="1"
     inkscape:snap-bbox="true"
     inkscape:bbox-paths="true"
     inkscape:bbox-nodes="true"
     inkscape:snap-nodes="false">
    <sodipodi:guide
       position="560,730.00002"
       orientation="0,1"
       id="guide3338" />
    <sodipodi:guide
       position="560,330.00001"
       orientation="0,1"
       id="guide3340" />
    <sodipodi:guide
       position="190,475.00001"
       orientation="1,0"
       id="guide3344" />
    <sodipodi:guide
       position="590,451.00001"
       orientation="1,0"
       id="guide3346" />
    <inkscape:grid
       type="xygrid"
       id="grid3440" />
    <sodipodi:guide
       position="-111.01577,704.98548"
       orientation="0,1"
       id="guide4151" />
    <sodipodi:guide
       position="54.25,355.00001"
       orientation="0,1"
       id="guide4153" />
    <sodipodi:guide
       position="215,442.00001"
       orientation="1,0"
       id="guide4155" />
    <sodipodi:guide
       position="564.97832,467.39759"
       orientation="1,0"
       id="guide4157" />
  </sodipodi:namedview>
  <metadata
     id="metadata7">
    <rdf:RDF>
      <cc:Work
         rdf:about="">
        <dc:format>image/svg+xml</dc:format>
        <dc:type
           rdf:resource="http://purl.org/dc/dcmitype/StillImage" />
        <dc:title>meincampus</dc:title>
        <dc:date>June 2015</dc:date>
        <dc:creator>
          <cc:Agent>
            <dc:title>Franziska Sponsel, Johannes Hechler</dc:title>
          </cc:Agent>
        </dc:creator>
        <dc:rights>
          <cc:Agent>
            <dc:title>Franziska Sponsel, Johannes Hechler</dc:title>
          </cc:Agent>
        </dc:rights>
        <dc:publisher>
          <cc:Agent>
            <dc:title>RRZE</dc:title>
          </cc:Agent>
        </dc:publisher>
        <dc:contributor>
          <cc:Agent>
            <dc:title>Ute Weber, Hendrik Eggers</dc:title>
          </cc:Agent>
        </dc:contributor>
      </cc:Work>
    </rdf:RDF>
  </metadata>
  <g
     inkscape:label="Ebene 1"
     inkscape:groupmode="layer"
     id="layer1">
    <g
       id="g4305"
       transform="translate(-23.095799,349.49896)">
      <rect
         y="-27.420454"
         x="213.09579"
         height="400"
         width="400"
         id="rect4160"
         style="opacity:1;fill:none;fill-opacity:1;stroke:none;stroke-width:23;stroke-linecap:butt;stroke-linejoin:round;stroke-miterlimit:4;stroke-dasharray:none;stroke-opacity:1" />
      <rect
         y="-27.136763"
         x="212.8049"
         height="400"
         width="400"
         id="rect2985"
         style="fill:none;fill-opacity:1;stroke:none;stroke-width:2;stroke-linecap:round;stroke-linejoin:miter;stroke-miterlimit:4;stroke-dasharray:none;stroke-dashoffset:0;stroke-opacity:1" />
      <g
         id="flowRoot3763"
         style="font-style:normal;font-weight:normal;font-size:144px;line-height:125%;font-family:Sans;letter-spacing:0px;word-spacing:0px;fill:url(#linearGradient4273);fill-opacity:1;stroke:none;stroke-width:4.03640556;stroke-linejoin:round;stroke-miterlimit:4;stroke-dasharray:none"
         transform="matrix(1.7972145,0,-0.30750861,1.8732858,1347.0535,-601.07864)">
        <path
           style="fill:url(#linearGradient4301);fill-opacity:1;stroke:none;stroke-width:4.03640556;stroke-linejoin:round;stroke-miterlimit:4;stroke-dasharray:none"
           inkscape:connector-curvature="0"
           id="path3772"
           d="m -476.55469,389.39907 c 3.2343,-5.81243 7.10148,-10.10149 11.60157,-12.86719 4.4999,-2.76555 9.79677,-4.14836 15.89062,-4.14844 8.20301,8e-5 14.53113,2.88289 18.98438,8.64844 4.45299,5.71882 6.67955,13.87506 6.67968,24.46875 l 0,47.53125 -13.00781,0 0,-47.10938 c -1.2e-4,-7.54682 -1.33605,-13.14837 -4.00781,-16.80468 -2.67199,-3.65619 -6.75011,-5.48431 -12.23438,-5.48438 -6.70321,7e-5 -12.00008,2.22663 -15.89062,6.67969 -3.89071,4.45318 -5.83602,10.52349 -5.83594,18.21094 l 0,44.50781 -13.00781,0 0,-47.10938 c -7e-5,-7.59369 -1.336,-13.19525 -4.00781,-16.80468 -2.67194,-3.65619 -6.79693,-5.48431 -12.375,-5.48438 -6.60942,7e-5 -11.85942,2.25007 -15.75,6.75 -3.89066,4.45318 -5.83597,10.50005 -5.83594,18.14063 l 0,44.50781 -13.00781,0 0,-78.75 13.00781,0 0,12.23437 c 2.95309,-4.82805 6.49215,-8.39055 10.61719,-10.6875 4.12495,-2.29679 9.02339,-3.44523 14.69531,-3.44531 5.71869,8e-5 10.57025,1.45321 14.55469,4.35938 4.03118,2.90632 7.00773,7.12507 8.92968,12.65625" />
      </g>
      <g
         transform="matrix(-3.2512787,0,0,3.2135427,-942.1264,-1904.9402)"
         id="flowRoot3774"
         style="font-style:normal;font-weight:normal;font-size:144px;line-height:125%;font-family:Sans;letter-spacing:0px;word-spacing:0px;fill:url(#linearGradient4275);fill-opacity:1;stroke:none;stroke-width:2.04569268;stroke-linejoin:round;stroke-miterlimit:4;stroke-dasharray:none">
        <path
           style="fill:url(#linearGradient4303);fill-opacity:1;stroke:none;stroke-width:2.04569268;stroke-linejoin:round;stroke-miterlimit:4;stroke-dasharray:none"
           inkscape:connector-curvature="0"
           id="path3783"
           d="m -386.07031,602.01625 0,14.97657 c -4.78134,-4.45304 -9.89071,-7.78116 -15.32813,-9.98438 -5.39069,-2.20303 -11.13288,-3.30459 -17.22656,-3.30469 -12.00005,10e-5 -21.18754,3.67978 -27.5625,11.03907 -6.37503,7.31257 -9.56252,17.90631 -9.5625,31.78125 -2e-5,13.82816 3.18747,24.4219 9.5625,31.78125 6.37496,7.31251 15.56245,10.96876 27.5625,10.96875 6.09368,10e-6 11.83587,-1.10156 17.22656,-3.30469 5.43742,-2.20311 10.54679,-5.53123 15.32813,-9.98438 l 0,14.83594 c -4.96884,3.37501 -10.24227,5.90625 -15.82031,7.59375 -5.53133,1.6875 -11.3907,2.53125 -17.57813,2.53125 -15.89067,0 -28.40628,-4.85156 -37.54687,-14.55469 -9.14064,-9.74997 -13.71095,-23.03902 -13.71094,-39.86718 -10e-6,-16.87493 4.5703,-30.16398 13.71094,-39.86719 9.14059,-9.7499 21.6562,-14.62489 37.54687,-14.625 6.28118,1.1e-4 12.18743,0.84386 17.71875,2.53125 5.57804,1.64073 10.8046,4.1251 15.67969,7.45312" />
      </g>
    </g>
  </g>
</svg>
