<?xml version="1.0" encoding="UTF-8" standalone="no"?>
<!-- Created with Inkscape (http://www.inkscape.org/) -->

<svg
   xmlns:dc="http://purl.org/dc/elements/1.1/"
   xmlns:cc="http://creativecommons.org/ns#"
   xmlns:rdf="http://www.w3.org/1999/02/22-rdf-syntax-ns#"
   xmlns:svg="http://www.w3.org/2000/svg"
   xmlns="http://www.w3.org/2000/svg"
   xmlns:xlink="http://www.w3.org/1999/xlink"
   xmlns:sodipodi="http://sodipodi.sourceforge.net/DTD/sodipodi-0.dtd"
   xmlns:inkscape="http://www.inkscape.org/namespaces/inkscape"
   width="210mm"
   height="297mm"
   viewBox="0 0 744.09448819 1052.3622047"
   id="svg2"
   version="1.1"
   inkscape:version="0.91 r13725"
   inkscape:export-xdpi="3.6000698"
   inkscape:export-ydpi="3.6000698"
   sodipodi:docname="studon.svg"
   inkscape:export-filename="D:\Dokumente\Arbeit\RRZE\github\bicons\16x16\logos\studon.png">
  <title
     id="title4158">studon</title>
  <defs
     id="defs4">
    <linearGradient
       id="linearGradient2224">
      <stop
         id="stop2226"
         offset="0"
         style="stop-color:#7c7c7c;stop-opacity:1;" />
      <stop
         id="stop2228"
         offset="1"
         style="stop-color:#b8b8b8;stop-opacity:1;" />
    </linearGradient>
    <linearGradient
       id="linearGradient15218">
      <stop
         id="stop15220"
         offset="0"
         style="stop-color:#eeeeef;stop-opacity:1;" />
      <stop
         id="stop2736"
         offset="0.59928656"
         style="stop-color:#d3d7cf;stop-opacity:1;" />
      <stop
         id="stop2738"
         offset="0.82758623"
         style="stop-color:#ffffff;stop-opacity:1;" />
      <stop
         id="stop15222"
         offset="1"
         style="stop-color:#d3d7cf;stop-opacity:1;" />
    </linearGradient>
    <pattern
       y="0"
       x="0"
       height="6"
       width="6"
       patternUnits="userSpaceOnUse"
       id="EMFhbasepattern" />
    <pattern
       y="0"
       x="0"
       height="6"
       width="6"
       patternUnits="userSpaceOnUse"
       id="EMFhbasepattern-5" />
    <linearGradient
       gradientTransform="translate(341.99999,472.36222)"
       inkscape:collect="always"
       xlink:href="#linearGradient4167"
       id="linearGradient4221"
       x1="2.878906"
       y1="11.957031"
       x2="13.3125"
       y2="4.7695312"
       gradientUnits="userSpaceOnUse" />
    <linearGradient
       inkscape:collect="always"
       id="linearGradient4167">
      <stop
         style="stop-color:#4e505d;stop-opacity:1;"
         offset="0"
         id="stop4169" />
      <stop
         style="stop-color:#7a8597;stop-opacity:1"
         offset="1"
         id="stop4171" />
    </linearGradient>
  </defs>
  <sodipodi:namedview
     id="base"
     pagecolor="#ffffff"
     bordercolor="#666666"
     borderopacity="1.0"
     inkscape:pageopacity="0.0"
     inkscape:pageshadow="2"
     inkscape:zoom="0.5"
     inkscape:cx="-39.58705"
     inkscape:cy="757.04861"
     inkscape:document-units="px"
     inkscape:current-layer="layer1"
     showgrid="false"
     showguides="true"
     inkscape:guide-bbox="true"
     inkscape:window-width="1600"
     inkscape:window-height="837"
     inkscape:window-x="-4"
     inkscape:window-y="-4"
     inkscape:window-maximized="1"
     inkscape:snap-bbox="true"
     inkscape:bbox-nodes="true"
     inkscape:snap-nodes="false">
    <sodipodi:guide
       position="560,730.00002"
       orientation="0,1"
       id="guide3338" />
    <sodipodi:guide
       position="560,330.00001"
       orientation="0,1"
       id="guide3340" />
    <sodipodi:guide
       position="190,475.00001"
       orientation="1,0"
       id="guide3344" />
    <sodipodi:guide
       position="590,451.00001"
       orientation="1,0"
       id="guide3346" />
    <inkscape:grid
       type="xygrid"
       id="grid3440" />
  </sodipodi:namedview>
  <metadata
     id="metadata7">
    <rdf:RDF>
      <cc:Work
         rdf:about="">
        <dc:format>image/svg+xml</dc:format>
        <dc:type
           rdf:resource="http://purl.org/dc/dcmitype/StillImage" />
        <dc:title>studon</dc:title>
        <dc:date>June 2015</dc:date>
        <dc:creator>
          <cc:Agent>
            <dc:title>Franziska Sponsel, Johannes Hechler</dc:title>
          </cc:Agent>
        </dc:creator>
        <dc:rights>
          <cc:Agent>
            <dc:title>Franziska Sponsel, Johannes Hechler</dc:title>
          </cc:Agent>
        </dc:rights>
        <dc:publisher>
          <cc:Agent>
            <dc:title>RRZE</dc:title>
          </cc:Agent>
        </dc:publisher>
        <dc:contributor>
          <cc:Agent>
            <dc:title>Ute Weber, Hendrik Eggers</dc:title>
          </cc:Agent>
        </dc:contributor>
      </cc:Work>
    </rdf:RDF>
  </metadata>
  <g
     inkscape:label="Ebene 1"
     inkscape:groupmode="layer"
     id="layer1">
    <g
       id="g4175"
       transform="matrix(24.999516,0,0,24.999516,-8359.8345,-11486.465)">
      <path
         id="path4241"
         d="m 352.44139,478.36222 c -3.7043,0.2516 -2.77327,4.89306 0,4.97656 l 0.008,0 0.006,0 c 1.30386,0 2.38394,-0.98398 2.51172,-2.23828 l 0,1.18946 0.92969,0 0,-1.80078 1.05078,1.80078 1.05273,0 0,-3.00586 -0.92968,0 0,1.80078 -1.05079,-1.80078 -0.98242,0 0,0.0351 -0.0703,0 0,1.28321 c -0.0755,-0.7418 -0.48363,-1.38963 -1.07425,-1.79493 -0.40824,-0.2801 -0.90449,-0.44531 -1.4375,-0.44531 l -0.006,0 -0.008,0 z m 0.008,0.875 c 0.17862,7e-4 0.34271,0.0187 0.49414,0.0527 0.73057,0.1652 1.13672,0.71184 1.13672,1.56054 0,1.0248 -0.59046,1.60948 -1.63086,1.61328 -1.0404,0 -1.63281,-0.58848 -1.63281,-1.61328 0,-0.1834 0.0195,-0.35331 0.0566,-0.50781 0.17021,-0.7084 0.72196,-1.10237 1.57618,-1.10547 z m -9.72264,0.125 c -0.22881,0 -0.41205,0.0822 -0.53711,0.24219 -0.125,0.1601 -0.18555,0.38587 -0.18555,0.67187 0,0.2289 0.0431,0.41409 0.13281,0.55469 0.0906,0.1407 0.23297,0.24239 0.42188,0.30469 l 0.18359,0.0625 c 0.10767,0.037 0.17523,0.0792 0.20313,0.11523 0.0302,0.038 0.0469,0.096 0.0469,0.17774 0,0.09 -0.0225,0.15111 -0.0684,0.19531 -0.0458,0.044 -0.11437,0.0684 -0.21093,0.0684 -0.0954,0 -0.1954,-0.0234 -0.30078,-0.0684 -0.10478,-0.047 -0.21547,-0.11734 -0.33008,-0.21094 l -0.0625,-0.0508 0,0.71875 0.0215,0.0137 c 0.11907,0.069 0.23761,0.11755 0.35742,0.15235 0.11991,0.035 0.23988,0.0527 0.35938,0.0527 0.25325,0 0.45059,-0.0786 0.57812,-0.24023 0.12825,-0.1624 0.1875,-0.40305 0.1875,-0.71875 0,-0.2413 -0.0426,-0.43261 -0.13476,-0.57031 -0.0923,-0.1379 -0.2464,-0.23844 -0.45508,-0.30274 l -0.19922,-0.0605 c -0.0917,-0.029 -0.15302,-0.0627 -0.18164,-0.0957 -0.0283,-0.034 -0.043,-0.0818 -0.043,-0.15039 0,-0.093 0.0227,-0.15281 0.0664,-0.19141 0.0437,-0.039 0.11715,-0.0625 0.22461,-0.0625 0.0798,0 0.16567,0.0178 0.25781,0.0508 0.092,0.034 0.18694,0.0854 0.28516,0.15234 l 0.0605,0.041 0,-0.67187 -0.0391,0 0.0137,-0.0371 c -0.11516,-0.047 -0.22556,-0.0822 -0.33398,-0.10547 l -0.002,0 c -0.10843,-0.024 -0.21322,-0.0371 -0.31641,-0.0371 z m 1.03125,0 0,0.043 -0.041,0 0,0.60742 0.58985,0 0,2.33399 0.53711,0 0,-2.33399 0.58789,0 0,-0.65039 -1.67383,0 z m 2.2832,0.002 0,0.041 -0.0156,0 -0.0234,0 0,1.70508 c 0,0.4071 0.0668,0.71437 0.20703,0.92187 0.14026,0.2075 0.35786,0.3125 0.63867,0.3125 0.28161,0 0.50034,-0.105 0.64063,-0.3125 0.14026,-0.2075 0.20703,-0.51467 0.20703,-0.92187 l 0,-1.7461 -0.5625,0 0,1.7461 c 0,0.2317 -0.025,0.39417 -0.0703,0.48437 -0.0445,0.089 -0.11021,0.12891 -0.21485,0.12891 -0.10365,0 -0.1676,-0.0403 -0.21289,-0.12891 -0.0445,-0.09 -0.0723,-0.25277 -0.0723,-0.48437 l 0,-1.7461 -0.52149,0 z m 2.28516,0 0,0.041 -0.0156,0 -0.0234,0 0,2.94336 0.51171,0 c 0.26347,0 0.46223,-0.0317 0.60157,-0.0977 0.13779,-0.066 0.25532,-0.17868 0.35156,-0.33398 0.0841,-0.1353 0.14704,-0.2919 0.1875,-0.4668 0.0751,-0.4029 0.0861,-0.8059 0,-1.1875 -0.0404,-0.1749 -0.10345,-0.32974 -0.1875,-0.46484 -0.0954,-0.1554 -0.2106,-0.26819 -0.34766,-0.33399 -0.13815,-0.067 -0.33894,-0.0996 -0.60547,-0.0996 l -0.47265,0 z m 0.48828,0.64844 0.11914,0 c 0.17335,0 0.29716,0.0671 0.38672,0.20703 0.0896,0.1399 0.13867,0.35001 0.13867,0.63281 0,0.2839 -0.0483,0.49532 -0.13867,0.63672 -0.0897,0.1414 -0.21428,0.20899 -0.38672,0.20899 l -0.11914,0 0,-1.68555 z"
         style="font-style:normal;font-weight:bold;font-size:12px;line-height:125%;font-family:Sans;-inkscape-font-specification:'Sans Bold';letter-spacing:0px;word-spacing:0px;fill:url(#linearGradient4221);fill-opacity:1;stroke:none;stroke-width:3.38407397"
         inkscape:connector-curvature="0" />
      <rect
         y="472.36221"
         x="342"
         height="16"
         width="16"
         id="rect4223"
         style="color:#000000;clip-rule:nonzero;display:inline;overflow:visible;visibility:visible;opacity:1;isolation:auto;mix-blend-mode:normal;color-interpolation:sRGB;color-interpolation-filters:linearRGB;solid-color:#000000;solid-opacity:1;fill:none;fill-opacity:1;fill-rule:nonzero;stroke:none;stroke-width:2;stroke-linecap:round;stroke-linejoin:round;stroke-miterlimit:4;stroke-dasharray:none;stroke-dashoffset:0;stroke-opacity:1;color-rendering:auto;image-rendering:auto;shape-rendering:auto;text-rendering:auto;enable-background:accumulate" />
    </g>
  </g>
</svg>
