<?xml version="1.0" encoding="UTF-8" standalone="no"?>
<!-- Created with Inkscape (http://www.inkscape.org/) -->

<svg
   xmlns:dc="http://purl.org/dc/elements/1.1/"
   xmlns:cc="http://creativecommons.org/ns#"
   xmlns:rdf="http://www.w3.org/1999/02/22-rdf-syntax-ns#"
   xmlns:svg="http://www.w3.org/2000/svg"
   xmlns="http://www.w3.org/2000/svg"
   xmlns:xlink="http://www.w3.org/1999/xlink"
   xmlns:sodipodi="http://sodipodi.sourceforge.net/DTD/sodipodi-0.dtd"
   xmlns:inkscape="http://www.inkscape.org/namespaces/inkscape"
   width="210mm"
   height="297mm"
   viewBox="0 0 744.09448819 1052.3622047"
   id="svg2"
   version="1.1"
   inkscape:version="0.91 r13725"
   inkscape:export-xdpi="3.5999999"
   inkscape:export-ydpi="3.5999999"
   sodipodi:docname="vm.svg"
   inkscape:export-filename="C:\Users\johannes\Documents\Arbeit\RRZE\github3\bicons\16x16\logos\vm.png">
  <title
     id="title4159">vm</title>
  <defs
     id="defs4">
    <linearGradient
       id="linearGradient2224">
      <stop
         id="stop2226"
         offset="0"
         style="stop-color:#7c7c7c;stop-opacity:1;" />
      <stop
         id="stop2228"
         offset="1"
         style="stop-color:#b8b8b8;stop-opacity:1;" />
    </linearGradient>
    <linearGradient
       id="linearGradient15218">
      <stop
         id="stop15220"
         offset="0"
         style="stop-color:#eeeeef;stop-opacity:1;" />
      <stop
         id="stop2736"
         offset="0.59928656"
         style="stop-color:#d3d7cf;stop-opacity:1;" />
      <stop
         id="stop2738"
         offset="0.82758623"
         style="stop-color:#ffffff;stop-opacity:1;" />
      <stop
         id="stop15222"
         offset="1"
         style="stop-color:#d3d7cf;stop-opacity:1;" />
    </linearGradient>
    <pattern
       y="0"
       x="0"
       height="6"
       width="6"
       patternUnits="userSpaceOnUse"
       id="EMFhbasepattern" />
    <pattern
       y="0"
       x="0"
       height="6"
       width="6"
       patternUnits="userSpaceOnUse"
       id="EMFhbasepattern-5" />
    <linearGradient
       gradientTransform="translate(235.57778,375.77221)"
       inkscape:collect="always"
       xlink:href="#linearGradient5434"
       id="linearGradient5440"
       x1="364.8671"
       y1="76.145096"
       x2="66.46804"
       y2="322.21826"
       gradientUnits="userSpaceOnUse" />
    <linearGradient
       inkscape:collect="always"
       id="linearGradient5434">
      <stop
         style="stop-color:#7a859c;stop-opacity:1;"
         offset="0"
         id="stop5436" />
      <stop
         style="stop-color:#4e505d;stop-opacity:1"
         offset="1"
         id="stop5438" />
    </linearGradient>
  </defs>
  <sodipodi:namedview
     id="base"
     pagecolor="#ffffff"
     bordercolor="#666666"
     borderopacity="1.0"
     inkscape:pageopacity="0.0"
     inkscape:pageshadow="2"
     inkscape:zoom="0.70710678"
     inkscape:cx="227.34836"
     inkscape:cy="512.34632"
     inkscape:document-units="px"
     inkscape:current-layer="layer1"
     showgrid="false"
     showguides="true"
     inkscape:guide-bbox="true"
     inkscape:window-width="1366"
     inkscape:window-height="721"
     inkscape:window-x="-4"
     inkscape:window-y="-4"
     inkscape:window-maximized="1">
    <sodipodi:guide
       position="560,730.00002"
       orientation="0,1"
       id="guide3338" />
    <sodipodi:guide
       position="560,330.00001"
       orientation="0,1"
       id="guide3340" />
    <sodipodi:guide
       position="190,475.00001"
       orientation="1,0"
       id="guide3344" />
    <sodipodi:guide
       position="590,451.00001"
       orientation="1,0"
       id="guide3346" />
    <inkscape:grid
       type="xygrid"
       id="grid3440" />
    <sodipodi:guide
       position="-111.01577,704.98548"
       orientation="0,1"
       id="guide4151" />
    <sodipodi:guide
       position="54.25,355.00001"
       orientation="0,1"
       id="guide4153" />
    <sodipodi:guide
       position="215,442.00001"
       orientation="1,0"
       id="guide4155" />
    <sodipodi:guide
       position="564.97832,467.39759"
       orientation="1,0"
       id="guide4157" />
  </sodipodi:namedview>
  <metadata
     id="metadata7">
    <rdf:RDF>
      <cc:Work
         rdf:about="">
        <dc:format>image/svg+xml</dc:format>
        <dc:type
           rdf:resource="http://purl.org/dc/dcmitype/StillImage" />
        <dc:title>vm</dc:title>
        <dc:date>June 2015</dc:date>
        <dc:creator>
          <cc:Agent>
            <dc:title>Franziska Sponsel, Johannes Hechler</dc:title>
          </cc:Agent>
        </dc:creator>
        <dc:rights>
          <cc:Agent>
            <dc:title>Franziska Sponsel, Johannes Hechler</dc:title>
          </cc:Agent>
        </dc:rights>
        <dc:publisher>
          <cc:Agent>
            <dc:title>RRZE</dc:title>
          </cc:Agent>
        </dc:publisher>
        <dc:contributor>
          <cc:Agent>
            <dc:title>Ute Weber, Hendrik Eggers</dc:title>
          </cc:Agent>
        </dc:contributor>
      </cc:Work>
    </rdf:RDF>
  </metadata>
  <g
     inkscape:label="Ebene 1"
     inkscape:groupmode="layer"
     id="layer1">
    <g
       id="g4187"
       transform="translate(-48.083261,-53.740115)">
      <rect
         y="375.77225"
         x="235.57777"
         height="400"
         width="400"
         id="rect4160"
         style="opacity:1;fill:none;fill-opacity:1;stroke:none;stroke-width:23;stroke-linecap:butt;stroke-linejoin:round;stroke-miterlimit:4;stroke-dasharray:none;stroke-opacity:1" />
      <path
         id="path74242"
         d="m 401.22231,498.8601 c -14.84486,-0.18727 -30.3762,5.21698 -37.99023,21.47852 l -31.22071,62.4375 -34.75586,-70.64258 a 19.820456,19.820456 0 1 0 -35.56445,17.49805 l 52.39453,106.49609 a 19.820456,19.820456 0 0 0 35.50977,0.11523 l 49.13086,-98.26367 a 19.820456,19.820456 0 0 0 0.38281,-0.80859 c -1.86639,4.19601 -0.32951,0.98043 3.88672,1.47461 3.54507,0.4155 5.61089,1.13018 6.95312,4.10156 l -0.98632,83.90039 a 19.820456,19.820456 0 1 0 39.63476,0.46484 l 0.85938,-73.07422 c 2.49931,-1.42999 5.28286,-2.97502 8.43359,-4.55664 8.89939,-4.46735 21.14152,-6.52365 18.34961,-6.88671 6.01664,0.7824 9.7085,1.84031 12.46484,2.83984 l 0.91016,82.51562 a 19.820456,19.820456 0 1 0 39.63477,-0.43554 l -0.80274,-72.74024 c 2.74205,-1.59553 6.01264,-3.43354 9.7168,-5.29297 8.89939,-4.46734 21.1415,-6.52365 18.34961,-6.88671 6.01663,0.7824 9.7085,1.84031 12.46484,2.83984 l 0.91016,82.51562 a 19.820456,19.820456 0 1 0 39.63476,-0.43554 l -1.02929,-93.32422 a 19.820456,19.820456 0 0 0 -3.56055,-11.11914 c 0,0 -2.18176,-2.8462 -4.22461,-4.69922 -2.04285,-1.85302 -4.76204,-3.88397 -8.24219,-5.83203 -6.9603,-3.89612 -16.89377,-7.43816 -30.84179,-9.25196 -2.28835,-0.29756 -4.47357,-0.44016 -6.56836,-0.45117 -14.6636,-0.0771 -24.87577,6.30127 -34.67579,11.22071 -1.10647,0.55543 -2.1693,1.11024 -3.22461,1.66406 -1.44845,-1.05835 -3.08717,-2.13059 -4.96484,-3.18164 -6.9603,-3.89612 -16.89181,-7.43816 -30.83984,-9.25196 -2.28834,-0.29756 -4.47551,-0.44016 -6.57032,-0.45117 -14.66358,-0.0771 -24.87381,6.30127 -34.67382,11.22071 -0.62116,0.31181 -1.20464,0.62148 -1.81055,0.93359 -8.43957,-9.13784 -19.98675,-14.45869 -30.6875,-15.71289 -2.09681,-0.24576 -4.23457,-0.39082 -6.38672,-0.41797 z"
         style="color:#000000;font-style:normal;font-variant:normal;font-weight:normal;font-stretch:normal;font-size:medium;line-height:normal;font-family:sans-serif;text-indent:0;text-align:start;text-decoration:none;text-decoration-line:none;text-decoration-style:solid;text-decoration-color:#000000;letter-spacing:normal;word-spacing:normal;text-transform:none;direction:ltr;block-progression:tb;writing-mode:lr-tb;baseline-shift:baseline;text-anchor:start;white-space:normal;clip-rule:nonzero;display:inline;overflow:visible;visibility:visible;opacity:1;isolation:auto;mix-blend-mode:normal;color-interpolation:sRGB;color-interpolation-filters:linearRGB;solid-color:#000000;solid-opacity:1;fill:url(#linearGradient5440);fill-opacity:1;fill-rule:nonzero;stroke:none;stroke-width:39.63694763;stroke-linecap:round;stroke-linejoin:round;stroke-miterlimit:4;stroke-dasharray:none;stroke-dashoffset:0;stroke-opacity:1;color-rendering:auto;image-rendering:auto;shape-rendering:auto;text-rendering:auto;enable-background:accumulate"
         inkscape:connector-curvature="0" />
    </g>
  </g>
</svg>
