<?xml version="1.0" encoding="UTF-8" standalone="no"?>
<!-- Created with Inkscape (http://www.inkscape.org/) -->

<svg
   xmlns:dc="http://purl.org/dc/elements/1.1/"
   xmlns:cc="http://creativecommons.org/ns#"
   xmlns:rdf="http://www.w3.org/1999/02/22-rdf-syntax-ns#"
   xmlns:svg="http://www.w3.org/2000/svg"
   xmlns="http://www.w3.org/2000/svg"
   xmlns:xlink="http://www.w3.org/1999/xlink"
   xmlns:sodipodi="http://sodipodi.sourceforge.net/DTD/sodipodi-0.dtd"
   xmlns:inkscape="http://www.inkscape.org/namespaces/inkscape"
   width="210mm"
   height="297mm"
   viewBox="0 0 744.09448819 1052.3622047"
   id="svg2"
   version="1.1"
   inkscape:version="0.91 r13725"
   inkscape:export-xdpi="4.9499998"
   inkscape:export-ydpi="4.9499998"
   sodipodi:docname="affiliation-student.svg"
   inkscape:export-filename="D:\Dokumente\Arbeit\RRZE\github\bicons\22x22\categories\affiliation-student.png">
  <defs
     id="defs4">
    <linearGradient
       id="linearGradient2224">
      <stop
         id="stop2226"
         offset="0"
         style="stop-color:#7c7c7c;stop-opacity:1;" />
      <stop
         id="stop2228"
         offset="1"
         style="stop-color:#b8b8b8;stop-opacity:1;" />
    </linearGradient>
    <linearGradient
       id="linearGradient15218">
      <stop
         id="stop15220"
         offset="0"
         style="stop-color:#eeeeef;stop-opacity:1;" />
      <stop
         id="stop2736"
         offset="0.59928656"
         style="stop-color:#d3d7cf;stop-opacity:1;" />
      <stop
         id="stop2738"
         offset="0.82758623"
         style="stop-color:#ffffff;stop-opacity:1;" />
      <stop
         id="stop15222"
         offset="1"
         style="stop-color:#d3d7cf;stop-opacity:1;" />
    </linearGradient>
    <pattern
       y="0"
       x="0"
       height="6"
       width="6"
       patternUnits="userSpaceOnUse"
       id="EMFhbasepattern" />
    <pattern
       y="0"
       x="0"
       height="6"
       width="6"
       patternUnits="userSpaceOnUse"
       id="EMFhbasepattern-5" />
    <linearGradient
       inkscape:collect="always"
       xlink:href="#linearGradient4321"
       id="linearGradient4319"
       x1="280"
       y1="712.36218"
       x2="500"
       y2="472.36221"
       gradientUnits="userSpaceOnUse"
       gradientTransform="matrix(1.3454073,0,0,0.89923126,-134.00606,69.675378)" />
    <linearGradient
       id="linearGradient4321"
       inkscape:collect="always">
      <stop
         id="stop4323"
         offset="0"
         style="stop-color:#4e505d;stop-opacity:1;" />
      <stop
         id="stop4325"
         offset="1"
         style="stop-color:#7a8597;stop-opacity:1" />
    </linearGradient>
    <linearGradient
       inkscape:collect="always"
       xlink:href="#linearGradient4321"
       id="linearGradient4317"
       x1="280"
       y1="692.36218"
       x2="500"
       y2="472.36221"
       gradientUnits="userSpaceOnUse"
       gradientTransform="matrix(1.3377068,0,0,0.90032312,-132.05215,78.795408)" />
  </defs>
  <sodipodi:namedview
     id="base"
     pagecolor="#ffffff"
     bordercolor="#666666"
     borderopacity="1.0"
     inkscape:pageopacity="0.0"
     inkscape:pageshadow="2"
     inkscape:zoom="1.4142136"
     inkscape:cx="190.78927"
     inkscape:cy="519.4088"
     inkscape:document-units="px"
     inkscape:current-layer="layer1"
     showgrid="false"
     showguides="true"
     inkscape:guide-bbox="true"
     inkscape:window-width="1600"
     inkscape:window-height="837"
     inkscape:window-x="-4"
     inkscape:window-y="-4"
     inkscape:window-maximized="1"
     inkscape:snap-bbox="true"
     inkscape:bbox-paths="true"
     inkscape:bbox-nodes="true"
     inkscape:snap-nodes="false">
    <sodipodi:guide
       position="315.53572,730.17859"
       orientation="0,1"
       id="guide3338" />
    <sodipodi:guide
       position="445.47728,330.18148"
       orientation="0,1"
       id="guide3340" />
    <sodipodi:guide
       position="189.10714,408.8393"
       orientation="1,0"
       id="guide3344" />
    <sodipodi:guide
       position="589.04521,468.07945"
       orientation="1,0"
       id="guide3346" />
    <inkscape:grid
       type="xygrid"
       id="grid3440" />
    <sodipodi:guide
       position="0,0"
       orientation="0,1"
       id="guide3405" />
    <sodipodi:guide
       position="214.125,684.50002"
       orientation="1,0"
       id="guide3407" />
    <sodipodi:guide
       position="0,0"
       orientation="0,1"
       id="guide3409" />
    <sodipodi:guide
       position="589.04521,378.30213"
       orientation="1,0"
       id="guide3411" />
    <sodipodi:guide
       position="564.00001,683.37502"
       orientation="1,0"
       id="guide3413" />
  </sodipodi:namedview>
  <metadata
     id="metadata7">
    <rdf:RDF>
      <cc:Work
         rdf:about="">
        <dc:format>image/svg+xml</dc:format>
        <dc:type
           rdf:resource="http://purl.org/dc/dcmitype/StillImage" />
        <dc:title>affiliation student</dc:title>
        <dc:date>June 2015</dc:date>
        <dc:creator>
          <cc:Agent>
            <dc:title>Johannes Hechler</dc:title>
          </cc:Agent>
        </dc:creator>
        <dc:rights>
          <cc:Agent>
            <dc:title>Johannes Hechler</dc:title>
          </cc:Agent>
        </dc:rights>
        <dc:publisher>
          <cc:Agent>
            <dc:title>RRZE</dc:title>
          </cc:Agent>
        </dc:publisher>
        <dc:contributor>
          <cc:Agent>
            <dc:title>Ute Weber, Hendrik Eggers</dc:title>
          </cc:Agent>
        </dc:contributor>
        <dc:subject>
          <rdf:Bag>
            <rdf:li>student</rdf:li>
            <rdf:li />
          </rdf:Bag>
        </dc:subject>
      </cc:Work>
    </rdf:RDF>
  </metadata>
  <g
     inkscape:label="Ebene 1"
     inkscape:groupmode="layer"
     id="layer1">
    <g
       id="g4259">
      <flowRoot
         style="font-style:normal;font-weight:normal;font-size:40px;line-height:125%;font-family:sans-serif;letter-spacing:0px;word-spacing:0px;fill:#252525;fill-opacity:1;stroke:none;stroke-width:1px;stroke-linecap:butt;stroke-linejoin:miter;stroke-opacity:1"
         id="flowRoot4169"
         xml:space="preserve"
         transform="matrix(1,0,0,0.99960765,552.75855,-487.52979)"><flowRegion
           id="flowRegion4171"><rect
             y="427.07962"
             x="89.541069"
             height="88.78862"
             width="56.433445"
             id="rect4173" /></flowRegion><flowPara
           id="flowPara4175" /></flowRoot>      <flowRoot
         style="font-style:normal;font-weight:normal;font-size:40px;line-height:125%;font-family:sans-serif;letter-spacing:0px;word-spacing:0px;fill:#252525;fill-opacity:1;stroke:none;stroke-width:1px;stroke-linecap:butt;stroke-linejoin:miter;stroke-opacity:1"
         id="flowRoot4169-9"
         xml:space="preserve"
         transform="matrix(1,0,0,0.99960765,1113.9651,-429.52897)"><flowRegion
           id="flowRegion4171-9"><rect
             y="427.07962"
             x="89.541069"
             height="88.78862"
             width="56.433445"
             id="rect4173-6" /></flowRegion><flowPara
           id="flowPara4175-7" /></flowRoot>      <flowRoot
         style="font-style:normal;font-weight:normal;font-size:40px;line-height:125%;font-family:sans-serif;letter-spacing:0px;word-spacing:0px;fill:#252525;fill-opacity:1;stroke:none;stroke-width:1px;stroke-linecap:butt;stroke-linejoin:miter;stroke-opacity:1"
         id="flowRoot4169-1"
         xml:space="preserve"
         transform="matrix(1,0,0,0.99960765,-0.03773147,0.04001826)"><flowRegion
           id="flowRegion4171-8"><rect
             y="427.07962"
             x="89.541069"
             height="88.78862"
             width="56.433445"
             id="rect4173-8" /></flowRegion><flowPara
           id="flowPara4175-6" /></flowRoot>      <rect
         inkscape:export-ydpi="4.9499998"
         inkscape:export-xdpi="4.9499998"
         y="322.18362"
         x="189.10713"
         height="399.84305"
         width="400"
         id="rect3336"
         style="fill:none;fill-rule:evenodd;stroke:none;stroke-width:1px;stroke-linecap:butt;stroke-linejoin:miter;stroke-opacity:1" />
      <path
         id="rect4171-8"
         d="m 215.12399,485.89339 c -4.34197,0 -7.83832,2.78581 -7.83832,6.24555 l 0,21.19288 0,75.35513 c 0,3.45974 3.49635,6.24365 7.83832,6.24365 l 119.12321,0 109.71921,0 119.12323,0 c 4.34196,0 7.83831,-2.78391 7.83831,-6.24365 l 0,-75.35513 0,-21.19288 c 0,-3.45974 -3.49635,-6.24555 -7.83831,-6.24555 l -26.49933,0 -0.20093,0 -71.58123,0 -151.40268,0 -71.58124,0 -0.20091,0 -26.49933,0 z"
         style="opacity:1;fill:url(#linearGradient4319);fill-opacity:1;stroke:none;stroke-width:23;stroke-linecap:butt;stroke-linejoin:round;stroke-miterlimit:4;stroke-dasharray:none;stroke-opacity:1"
         inkscape:connector-curvature="0" />
      <path
         id="rect4171"
         d="M 215.10547 613.01367 C 213.21018 613.01367 211.47785 613.5452 210.12695 614.43555 C 209.93351 614.5631 209.74741 614.6982 209.57031 614.83984 C 208.86348 615.40482 208.29318 616.07777 207.89844 616.82617 C 207.79984 617.0133 207.71267 617.20446 207.63672 617.40039 C 207.56042 617.59701 207.49544 617.79558 207.44336 618 C 207.39146 618.20392 207.35467 618.41037 207.32812 618.62109 C 207.30132 618.8324 207.28516 619.04646 207.28516 619.26367 L 207.28516 704.27344 L 207.28516 715.92969 C 207.28516 719.39349 210.77338 722.18164 215.10547 722.18164 L 334.73047 722.18164 C 334.58833 704.31446 342.3665 688.24717 351.76562 673.12891 C 352.84809 671.3878 354.03753 669.76455 355.16797 668.07227 L 325.31836 668.07227 C 309.99402 668.07227 298.36719 655.66785 298.36719 640.86133 L 298.36719 640.12891 C 298.36719 624.7823 310.57175 613.06445 325.53906 613.06445 L 337.72461 613.06445 L 561.54688 613.06445 L 562 613.06445 C 562.87257 613.06445 563.74208 613.10811 564.61523 613.19141 C 564.61623 613.19153 564.61814 613.19128 564.61914 613.19141 C 564.79491 613.20816 564.96935 613.23344 565.14453 613.25391 C 564.49155 613.11366 563.81713 613.01758 563.10742 613.01758 L 482.88867 613.01758 L 429.69141 613.01758 L 348.52148 613.01758 L 295.32422 613.01758 L 215.10547 613.01758 L 215.10547 613.01367 z M 413.32812 649.11523 C 413.64338 655.16775 410.90031 660.97383 406.02734 664.56836 C 399.81823 669.14019 389.67257 680.37024 382.32812 692.18359 C 379.86118 696.15161 377.88494 700.17458 376.1543 704.07422 L 513.67773 704.20508 C 511.28418 696.86399 507.66641 690.01641 503.30664 684.13281 C 495.61547 673.7534 483.90277 666.22472 485.0625 666.69727 C 477.9906 663.80429 473.5122 656.7557 473.89062 649.11523 L 413.32812 649.11523 z M 570.70703 703.69727 L 570.70703 704.27148 L 570.92773 704.27148 L 570.92773 703.70312 L 570.88672 703.70312 L 570.70703 703.69727 z "
         style="opacity:1;fill:url(#linearGradient4317);fill-opacity:1;stroke:none;stroke-width:23;stroke-linecap:butt;stroke-linejoin:round;stroke-miterlimit:4;stroke-dasharray:none;stroke-opacity:1" />
      <path
         id="rect4232"
         d="m 324.87107,504.0663 c -4.71089,0 -8.5039,3.24066 -8.5039,7.26548 l 0,39.83343 c 0,4.02482 3.79301,7.26549 8.5039,7.26549 l 0.28516,0 128.1491,0.0199 0.28515,0 c 4.71089,0 8.50391,-3.24066 8.50391,-7.26548 l 0,-39.83343 c 0,-4.02482 -3.79842,-7.49026 -8.50391,-7.26549 l -9.94336,0 0,36.2436 -63.50652,0.0678 -45.32617,-0.0877 0,-36.24359 z"
         style="color:#000000;clip-rule:nonzero;display:inline;overflow:visible;visibility:visible;opacity:1;isolation:auto;mix-blend-mode:normal;color-interpolation:sRGB;color-interpolation-filters:linearRGB;solid-color:#000000;solid-opacity:1;fill:#ffffff;fill-opacity:1;fill-rule:evenodd;stroke:none;stroke-width:50;stroke-linecap:butt;stroke-linejoin:miter;stroke-miterlimit:4;stroke-dasharray:none;stroke-dashoffset:0;stroke-opacity:1;color-rendering:auto;image-rendering:auto;shape-rendering:auto;text-rendering:auto;enable-background:accumulate"
         inkscape:connector-curvature="0"
         sodipodi:nodetypes="ssssccsssscccccs" />
      <path
         sodipodi:nodetypes="cccccccccc"
         inkscape:connector-curvature="0"
         id="rect4239"
         d="m 410.90151,322.18352 -130.89583,0.0195 0,145.53863 196.51838,0 21.63617,-0.01 0.005,-12.31217 4.5e-4,-42.33876 -90.90001,0 0,-90.89995 z"
         style="color:#000000;clip-rule:nonzero;display:inline;overflow:visible;visibility:visible;opacity:1;isolation:auto;mix-blend-mode:normal;color-interpolation:sRGB;color-interpolation-filters:linearRGB;solid-color:#000000;solid-opacity:1;fill:#4e505d;fill-opacity:1;fill-rule:nonzero;stroke:none;stroke-width:1px;stroke-linecap:butt;stroke-linejoin:miter;stroke-miterlimit:4;stroke-dasharray:none;stroke-dashoffset:0;stroke-opacity:1;color-rendering:auto;image-rendering:auto;shape-rendering:auto;text-rendering:auto;enable-background:accumulate" />
      <path
         sodipodi:nodetypes="cccc"
         inkscape:connector-curvature="0"
         id="path4270"
         d="m 425.46712,322.20368 -0.0214,72.69705 72.72001,0 z"
         style="fill:#4e505d;fill-rule:evenodd;stroke:none;stroke-width:1px;stroke-linecap:butt;stroke-linejoin:miter;stroke-opacity:1" />
      <path
         sodipodi:nodetypes="csssccccccsscssssccsccsccc"
         id="rect4211"
         d="m 325.53877,631.24224 c -4.91019,0 -9.17188,4.1152 -9.17188,9.02542 l 0,0.7324 c 0,4.91021 4.041,9.17149 8.95117,9.17149 l 70.04688,0 c -18.46311,13.5757 -42.83956,49.28496 -42.6378,71.93176 l 181.79999,0.1721 c 0.98983,-38.4716 -31.47027,-67.58698 -42.68135,-72.14886 l 60.86133,0.045 -3.7e-4,44.49666 0,18.7402 c 0,4.9384 5.657,8.914 8.86328,8.914 l 0.45312,0 18.17969,0 c 4.91017,0 8.86328,-3.9756 8.86328,-8.914 l 0,-18.7402 c 0,-4.9386 -4.06249,-9.9449 -8.86328,-8.9142 l -9.31641,0 0,-45.14445 0,-0.7325 c 0,-0.3082 -0.0143,-0.6119 -0.0449,-0.91013 -0.42453,-4.17686 -3.74774,-7.28572 -7.93164,-7.68164 -0.29885,-0.0285 -0.60327,-0.043 -0.91016,-0.043 l -0.45312,0 -236.00781,0 z"
         style="color:#000000;clip-rule:nonzero;display:inline;overflow:visible;visibility:visible;opacity:1;isolation:auto;mix-blend-mode:normal;color-interpolation:sRGB;color-interpolation-filters:linearRGB;solid-color:#000000;solid-opacity:1;fill:#99b000;fill-opacity:1;fill-rule:evenodd;stroke:none;stroke-width:50;stroke-linecap:butt;stroke-linejoin:round;stroke-miterlimit:4;stroke-dasharray:none;stroke-dashoffset:0;stroke-opacity:1;color-rendering:auto;image-rendering:auto;shape-rendering:auto;text-rendering:auto;enable-background:accumulate"
         inkscape:connector-curvature="0" />
    </g>
  </g>
</svg>
