<?xml version="1.0" encoding="UTF-8" standalone="no"?>
<!-- Created with Inkscape (http://www.inkscape.org/) -->

<svg
   xmlns:dc="http://purl.org/dc/elements/1.1/"
   xmlns:cc="http://creativecommons.org/ns#"
   xmlns:rdf="http://www.w3.org/1999/02/22-rdf-syntax-ns#"
   xmlns:svg="http://www.w3.org/2000/svg"
   xmlns="http://www.w3.org/2000/svg"
   xmlns:sodipodi="http://sodipodi.sourceforge.net/DTD/sodipodi-0.dtd"
   xmlns:inkscape="http://www.inkscape.org/namespaces/inkscape"
   width="210mm"
   height="297mm"
   viewBox="0 0 744.09448819 1052.3622047"
   id="svg2"
   version="1.1"
   inkscape:version="0.91 r13725"
   inkscape:export-xdpi="4.9499755"
   inkscape:export-ydpi="4.9499755"
   sodipodi:docname="book-marks2.svg"
   inkscape:export-filename="C:\Users\johannes\Documents\Arbeit\RRZE\github3\bicons\22x22\categories\book-marks2.png">
  <title
     id="title4167">bookmarks 2</title>
  <defs
     id="defs4">
    <linearGradient
       id="linearGradient2224">
      <stop
         id="stop2226"
         offset="0"
         style="stop-color:#7c7c7c;stop-opacity:1;" />
      <stop
         id="stop2228"
         offset="1"
         style="stop-color:#b8b8b8;stop-opacity:1;" />
    </linearGradient>
    <linearGradient
       id="linearGradient15218">
      <stop
         id="stop15220"
         offset="0"
         style="stop-color:#eeeeef;stop-opacity:1;" />
      <stop
         id="stop2736"
         offset="0.59928656"
         style="stop-color:#d3d7cf;stop-opacity:1;" />
      <stop
         id="stop2738"
         offset="0.82758623"
         style="stop-color:#ffffff;stop-opacity:1;" />
      <stop
         id="stop15222"
         offset="1"
         style="stop-color:#d3d7cf;stop-opacity:1;" />
    </linearGradient>
    <pattern
       y="0"
       x="0"
       height="6"
       width="6"
       patternUnits="userSpaceOnUse"
       id="EMFhbasepattern" />
    <pattern
       y="0"
       x="0"
       height="6"
       width="6"
       patternUnits="userSpaceOnUse"
       id="EMFhbasepattern-5" />
    <pattern
       y="0"
       x="0"
       height="6"
       width="6"
       patternUnits="userSpaceOnUse"
       id="EMFhbasepattern-6" />
  </defs>
  <sodipodi:namedview
     id="base"
     pagecolor="#ffffff"
     bordercolor="#666666"
     borderopacity="1.0"
     inkscape:pageopacity="0.0"
     inkscape:pageshadow="2"
     inkscape:zoom="1"
     inkscape:cx="330.79185"
     inkscape:cy="518.1802"
     inkscape:document-units="px"
     inkscape:current-layer="layer1"
     showgrid="false"
     showguides="true"
     inkscape:guide-bbox="true"
     inkscape:window-width="1366"
     inkscape:window-height="721"
     inkscape:window-x="-4"
     inkscape:window-y="-4"
     inkscape:window-maximized="1"
     inkscape:snap-bbox="true"
     inkscape:bbox-paths="true"
     inkscape:bbox-nodes="true">
    <sodipodi:guide
       position="315.53572,730.17859"
       orientation="0,1"
       id="guide3338" />
    <sodipodi:guide
       position="351.25,330.17858"
       orientation="0,1"
       id="guide3340" />
    <sodipodi:guide
       position="189.10714,408.8393"
       orientation="1,0"
       id="guide3344" />
    <sodipodi:guide
       position="589.04521,468.07945"
       orientation="1,0"
       id="guide3346" />
    <inkscape:grid
       type="xygrid"
       id="grid3440" />
    <sodipodi:guide
       position="0,0"
       orientation="0,1"
       id="guide3405" />
    <sodipodi:guide
       position="214.125,684.50002"
       orientation="1,0"
       id="guide3407" />
    <sodipodi:guide
       position="0,0"
       orientation="0,1"
       id="guide3409" />
    <sodipodi:guide
       position="589.04521,378.30213"
       orientation="1,0"
       id="guide3411" />
    <sodipodi:guide
       position="564.00001,683.37502"
       orientation="1,0"
       id="guide3413" />
    <sodipodi:guide
       position="0,0"
       orientation="0,1"
       id="guide4168" />
  </sodipodi:namedview>
  <metadata
     id="metadata7">
    <rdf:RDF>
      <cc:Work
         rdf:about="">
        <dc:format>image/svg+xml</dc:format>
        <dc:type
           rdf:resource="http://purl.org/dc/dcmitype/StillImage" />
        <dc:title>bookmarks 2</dc:title>
        <dc:date>June 2015</dc:date>
        <dc:creator>
          <cc:Agent>
            <dc:title>Johannes Hechler</dc:title>
          </cc:Agent>
        </dc:creator>
        <dc:rights>
          <cc:Agent>
            <dc:title>Johannes Hechler</dc:title>
          </cc:Agent>
        </dc:rights>
        <dc:publisher>
          <cc:Agent>
            <dc:title>RRZE</dc:title>
          </cc:Agent>
        </dc:publisher>
        <dc:contributor>
          <cc:Agent>
            <dc:title>Ute Weber, Hendrik Eggers</dc:title>
          </cc:Agent>
        </dc:contributor>
      </cc:Work>
    </rdf:RDF>
  </metadata>
  <g
     inkscape:label="Ebene 1"
     inkscape:groupmode="layer"
     id="layer1">
    <g
       id="g4308"
       transform="translate(-66.955775,-6.17852)">
      <path
         id="path4325"
         d="m 314.66698,328.36219 c -12.30125,0 -22.1289,9.84727 -22.1289,22.02539 l 0,32.66797 36.38476,0 0.14453,0 c 1.79649,0 3.57124,0.14694 5.31055,0.42578 0.16407,0.0258 0.3249,0.0618 0.48828,0.0898 16.98715,2.91415 30.21289,18.04241 30.21289,35.75196 0,17.77848 -13.33271,32.90274 -30.41992,35.71679 -0.0942,0.0155 -0.18678,0.036 -0.28125,0.0508 -1.73932,0.27761 -3.51405,0.42382 -5.31055,0.42382 l -0.14453,0 -36.38476,0 0,37.07032 36.23437,0 0.14649,0 c 1.79649,0 3.56927,0.14621 5.30859,0.42382 0.0945,0.0148 0.18701,0.0353 0.28125,0.0508 17.0872,2.81405 30.41992,17.93829 30.41992,35.71679 0,17.88718 -13.48969,33.14908 -30.72265,35.84375 -1.7324,0.27655 -3.49806,0.42188 -5.28711,0.42188 l -0.0723,0 c -0.0249,5e-5 -0.0494,0.002 -0.0742,0.002 l -36.23438,0 0,36.69336 36.38477,0 0.14453,0 c 1.79649,0 3.57122,0.14621 5.31054,0.42383 0.0945,0.0148 0.18701,0.0353 0.28125,0.0508 17.08721,2.81406 30.41992,17.93831 30.41992,35.7168 0,17.70955 -13.22568,32.8378 -30.21288,35.75195 -0.16339,0.028 -0.32421,0.0641 -0.48829,0.0898 -1.73932,0.27884 -3.51405,0.42578 -5.31054,0.42578 l -0.14453,0 -36.38477,0 0,32.14067 c 0,12.1782 9.82765,22.0254 22.12891,22.0254 l 246.62694,0 c 12.30136,0 22.125,-9.8472 22.125,-22.0254 l 0,-355.94926 c 10e-6,-12.17817 -9.82363,-22.02544 -22.12499,-22.02544 l -246.62695,0 z m -22.1289,90.69336 0,0.45898 36.38476,0 0.14453,0 c 0.0171,0 0.0207,-0.002 0.0371,-0.002 -0.0123,-0.0387 -0.0254,-0.0933 -0.0254,-0.18945 0,-0.13394 0.0124,-0.21273 0.0254,-0.26562 -0.0164,-5e-5 -0.02,-0.002 -0.0371,-0.002 l -0.14453,0 -36.38476,0 z m 0,109.5293 0,0.45703 36.38086,0 c 0.0162,0 0.0195,-0.002 0.0352,-0.002 -0.0126,-0.0526 -0.0254,-0.13113 -0.0254,-0.26367 0,-0.0963 0.0131,-0.1507 0.0254,-0.18945 -0.0156,-7e-5 -0.0189,-0.002 -0.0352,-0.002 l -0.14649,0 -36.23437,0 z m 0,109.15234 0,0.45898 36.38476,0 0.14453,0 c 0.0171,0 0.0207,-0.002 0.0371,-0.002 -0.0128,-0.0526 -0.0254,-0.13163 -0.0254,-0.26562 0,-0.0963 0.0129,-0.15063 0.0254,-0.18946 -0.0164,-8e-5 -0.0201,-0.002 -0.0371,-0.002 l -0.14453,0 -36.38476,0 z"
         style="fill:#646a7c;fill-opacity:1;fill-rule:evenodd;stroke:none;stroke-width:36;stroke-miterlimit:4;stroke-dasharray:none"
         inkscape:connector-curvature="0" />
      <path
         style="fill:#4e505d;fill-opacity:1;fill-rule:evenodd;stroke:none;stroke-width:36;stroke-miterlimit:4;stroke-dasharray:none"
         d="m 274.15499,510.58398 54.61812,0 c 10.05311,0 18.15586,8.11883 18.15586,18.19223 0,10.14751 -8.10275,18.26635 -18.15586,18.26635 l -54.61812,0 c -10.05328,0 -18.15597,-8.11884 -18.15597,-18.26635 0,-10.0734 8.10269,-18.19223 18.15597,-18.19223 z"
         id="path4329"
         inkscape:connector-curvature="0" />
      <path
         style="fill:#4e505d;fill-opacity:1;fill-rule:evenodd;stroke:none;stroke-width:36;stroke-miterlimit:4;stroke-dasharray:none"
         d="m 274.38006,619.73623 54.54309,0 c 10.05311,0 18.15586,8.11883 18.15586,18.19219 0,10.14855 -8.10275,18.26738 -18.15586,18.26738 l -54.54309,0 c -10.05328,0 -18.23096,-8.11883 -18.23096,-18.26738 0,-10.07336 8.17768,-18.19219 18.23096,-18.19219 z"
         id="path4333"
         inkscape:connector-curvature="0" />
      <path
         style="fill:#4e505d;fill-opacity:1;fill-rule:evenodd;stroke:none;stroke-width:36;stroke-miterlimit:4;stroke-dasharray:none"
         d="m 274.38006,401.05537 54.54309,0 c 10.05311,0 18.15586,8.11873 18.15586,18.26717 0,10.07308 -8.10275,18.19191 -18.15586,18.19191 l -54.54309,0 c -10.05328,0 -18.23096,-8.11883 -18.23096,-18.19191 0,-10.14844 8.17768,-18.26717 18.23096,-18.26717 z"
         id="path4337"
         inkscape:connector-curvature="0" />
      <path
         id="rect4381"
         d="m 255.99902,328.36219 399.93808,0 0,399.99996 -399.93808,0 z"
         style="color:#000000;clip-rule:nonzero;display:inline;overflow:visible;visibility:visible;opacity:1;isolation:auto;mix-blend-mode:normal;color-interpolation:sRGB;color-interpolation-filters:linearRGB;solid-color:#000000;solid-opacity:1;fill:none;fill-opacity:1;fill-rule:evenodd;stroke:none;stroke-width:36;stroke-linecap:butt;stroke-linejoin:round;stroke-miterlimit:4;stroke-dasharray:none;stroke-dashoffset:0;stroke-opacity:1;color-rendering:auto;image-rendering:auto;shape-rendering:auto;text-rendering:auto;enable-background:accumulate"
         inkscape:connector-curvature="0" />
      <path
         id="rect7010"
         d="m 601.41894,382.90126 0,14.60547 0,43.50976 0,14.60547 14.60547,0 3.57423,0 21.79686,0 c 8.09117,0 14.60548,-6.51431 14.60548,-14.60547 l 0,-43.50976 c 0,-8.09116 -6.51431,-14.60547 -14.60548,-14.60547 l -21.79686,0 -3.57423,0 -14.60547,0 z m 0,109.08007 0,18.18164 0,36.35938 0,18.17968 18.17969,0 0.041,0 c 10.07173,0 18.18165,-8.10796 18.18165,-18.17968 l 0,-36.35938 c 0,-10.07172 -8.10992,-18.18164 -18.18165,-18.18164 l -0.041,0 -18.17969,0 z m 0,109.08008 0,14.55078 0,43.75391 0,14.54882 18.17969,0 21.85351,0 c 8.06033,0 14.54883,-6.48851 14.54883,-14.54882 l 0,-43.75391 c 0,-8.06032 -6.4885,-14.55078 -14.54883,-14.55078 l -21.85351,0 -18.17969,0 z"
         style="color:#000000;clip-rule:nonzero;display:inline;overflow:visible;visibility:visible;opacity:1;isolation:auto;mix-blend-mode:normal;color-interpolation:sRGB;color-interpolation-filters:linearRGB;solid-color:#000000;solid-opacity:1;fill:#99b000;fill-opacity:1;fill-rule:nonzero;stroke:none;stroke-width:36;stroke-linecap:butt;stroke-linejoin:round;stroke-miterlimit:4;stroke-dasharray:none;stroke-dashoffset:0;stroke-opacity:1;color-rendering:auto;image-rendering:auto;shape-rendering:auto;text-rendering:auto;enable-background:accumulate"
         inkscape:connector-curvature="0" />
    </g>
  </g>
</svg>
