<?xml version="1.0" encoding="UTF-8" standalone="no"?>
<!-- Created with Inkscape (http://www.inkscape.org/) -->
<svg xmlns:dc="http://purl.org/dc/elements/1.1/" xmlns:cc="http://creativecommons.org/ns#" xmlns:rdf="http://www.w3.org/1999/02/22-rdf-syntax-ns#" xmlns:svg="http://www.w3.org/2000/svg" xmlns="http://www.w3.org/2000/svg" xmlns:xlink="http://www.w3.org/1999/xlink" xmlns:sodipodi="http://sodipodi.sourceforge.net/DTD/sodipodi-0.dtd" xmlns:inkscape="http://www.inkscape.org/namespaces/inkscape" width="210mm" height="297mm" viewBox="0 0 744.09448819 1052.3622047" id="svg2" version="1.1" inkscape:version="0.91 r13725" inkscape:export-xdpi="4" inkscape:export-ydpi="4">
  <defs id="defs4">
    <linearGradient inkscape:collect="always" id="linearGradient4176">
      <stop style="stop-color:#4e505d;stop-opacity:1;" offset="0" id="stop4178"/>
      <stop style="stop-color:#7a8597;stop-opacity:1" offset="1" id="stop4180"/>
    </linearGradient>
    <linearGradient id="linearGradient2224">
      <stop id="stop2226" offset="0" style="stop-color:#7c7c7c;stop-opacity:1;"/>
      <stop id="stop2228" offset="1" style="stop-color:#b8b8b8;stop-opacity:1;"/>
    </linearGradient>
    <linearGradient id="linearGradient15218">
      <stop id="stop15220" offset="0" style="stop-color:#eeeeef;stop-opacity:1;"/>
      <stop id="stop2736" offset="0.59928656" style="stop-color:#d3d7cf;stop-opacity:1;"/>
      <stop id="stop2738" offset="0.82758623" style="stop-color:#ffffff;stop-opacity:1;"/>
      <stop id="stop15222" offset="1" style="stop-color:#d3d7cf;stop-opacity:1;"/>
    </linearGradient>
    <pattern y="0" x="0" height="6" width="6" patternUnits="userSpaceOnUse" id="EMFhbasepattern"/>
    <linearGradient inkscape:collect="always" xlink:href="#linearGradient4176" id="linearGradient4182" x1="267.44257" y1="649.30225" x2="517.0686" y2="387.07214" gradientUnits="userSpaceOnUse" gradientTransform="matrix(0.91496128,0,0,0.91096958,33.11703,49.400413)"/>
  </defs>
  <sodipodi:namedview id="base" pagecolor="#ffffff" bordercolor="#666666" borderopacity="1.0" inkscape:pageopacity="0.0" inkscape:pageshadow="2" inkscape:zoom="0.70710678" inkscape:cx="97.571224" inkscape:cy="478.3388" inkscape:document-units="px" inkscape:current-layer="layer1" showgrid="false" showguides="true" inkscape:guide-bbox="true" inkscape:window-width="1366" inkscape:window-height="721" inkscape:window-x="-4" inkscape:window-y="-4" inkscape:window-maximized="1">
    <sodipodi:guide position="591,730.00002" orientation="0,1" id="guide3338"/>
    <sodipodi:guide position="189,330.00001" orientation="0,1" id="guide3340"/>
    <sodipodi:guide position="190,291.00001" orientation="1,0" id="guide3344"/>
    <inkscape:grid type="xygrid" id="grid3440"/>
    <sodipodi:guide position="590,295.00001" orientation="1,0" id="guide3411"/>
  </sodipodi:namedview>
  <metadata id="metadata7">
    <rdf:RDF>
      <cc:Work rdf:about="">
        <dc:format>image/svg+xml</dc:format>
        <dc:type rdf:resource="http://purl.org/dc/dcmitype/StillImage"/>
        <dc:title>mood level red</dc:title>
        <dc:date>June 2015</dc:date>
        <dc:creator>
          <cc:Agent>
            <dc:title>Johannes Hechler</dc:title>
          </cc:Agent>
        </dc:creator>
        <dc:rights>
          <cc:Agent>
            <dc:title>Johannes Hechler</dc:title>
          </cc:Agent>
        </dc:rights>
        <dc:publisher>
          <cc:Agent>
            <dc:title>RRZE</dc:title>
          </cc:Agent>
        </dc:publisher>
        <dc:contributor>
          <cc:Agent>
            <dc:title>Ute Weber, Hendrik Eggers</dc:title>
          </cc:Agent>
        </dc:contributor>
      </cc:Work>
    </rdf:RDF>
  </metadata>
  <g inkscape:label="Ebene 1" inkscape:groupmode="layer" id="layer1">
    <rect style="fill:none;fill-rule:evenodd;stroke:none;stroke-width:1px;stroke-linecap:butt;stroke-linejoin:miter;stroke-opacity:1" id="rect3336" width="400" height="400" x="189.14485" y="322.27005" inkscape:export-xdpi="4.9499998" inkscape:export-ydpi="4.9499998"/>
    <path style="opacity:1;fill:url(#linearGradient4182);fill-opacity:1;stroke:none;stroke-width:23;stroke-linecap:butt;stroke-linejoin:round;stroke-miterlimit:4;stroke-dasharray:none;stroke-opacity:1" d="M 248.94531 350.39062 C 229.55682 350.39062 213.94727 366.00016 213.94727 385.38867 L 213.94727 665.39258 C 213.94727 684.78107 229.55682 700.39063 248.94531 700.39062 L 254.86133 700.39062 C 217.02467 641.58448 223.13543 563.05938 272.74219 510.61523 L 272.59766 510.47266 L 279.90625 503.16602 C 279.96685 503.10552 280.03312 503.0546 280.09375 502.99414 L 282.94922 500.14062 L 283.09375 500.28516 C 312.89093 472.0844 351.16952 457.78515 389.46094 457.78516 C 429.09615 457.78516 468.80798 472.95563 499.01758 503.16602 L 499.93359 504.08203 L 500.00977 504.08203 L 503.03516 507.10742 C 503.32352 507.39579 503.56598 507.71188 503.85156 508.00195 L 506.32227 510.47266 L 506.21289 510.58203 C 555.61645 563.09091 560.74102 641.72366 522.98828 700.39062 L 528.96289 700.39062 C 548.35138 700.39062 563.96094 684.78107 563.96094 665.39258 L 563.96094 385.38867 C 563.96094 366.00017 548.35138 350.39062 528.96289 350.39062 L 248.94531 350.39062 z M 389.46094 478.45117 C 358.3121 478.45116 327.29036 489.29171 302.19141 510.83984 L 311.05273 519.69922 C 360.1715 484.48134 420.40947 486.96474 467.55859 520.01172 L 476.72852 510.83984 C 451.62956 489.29172 420.60978 478.45117 389.46094 478.45117 z M 387.77148 514.29297 C 363.40412 514.44987 338.88323 523.1465 316.60742 541.33594 L 315.64844 542.12109 L 314.19141 543.95312 C 279.34051 587.81875 276.34385 643.13831 313.47266 689.0332 L 322.66016 700.39062 L 454.94531 700.39062 L 463.85352 689.125 C 477.00771 672.49013 485.58066 654.21623 489.14258 635.44141 L 422.94531 635.44141 C 416.30077 646.39213 404.36278 653.5898 390.98438 653.5918 A 10.001 10.001 0 0 0 390.98242 653.5918 C 370.39497 653.59122 353.46932 636.66558 353.46875 616.07812 C 353.46776 595.4896 370.39394 578.56306 390.98242 578.5625 L 390.98438 578.5625 A 10.001 10.001 0 0 1 390.98828 578.5625 C 403.71667 578.56817 415.20593 585.09594 422.02344 595.25195 L 489.00781 595.25195 C 485.47821 577.53021 477.2673 560.07277 463.98828 543.81055 L 462.35742 541.81445 L 462.17383 541.66992 C 439.47604 523.63671 413.71094 514.12593 387.77148 514.29297 z M 495.26953 529.20312 L 485.72656 538.39258 C 498.5108 556.26623 506.29877 575.60814 509.44922 595.25195 L 520.83008 595.25195 C 522.50817 595.25195 524.1287 595.48722 525.68359 595.88867 C 522.13029 571.899 512.04542 548.72491 495.26953 529.20312 z M 283.36133 529.58789 C 245.2933 573.84372 240.91577 636.52975 269.89453 685.20117 L 285.75586 685.20117 C 257.49151 638.06236 261.6635 582.63974 292.5 538.61133 L 283.36133 529.58789 z M 391.375 604.10156 C 384.85349 604.10456 379.80242 609.15739 379.80273 615.67969 C 379.80291 622.20336 384.8572 627.25763 391.38086 627.25781 C 396.975 627.25481 401.64974 623.41415 402.73438 617.92578 A 10.93774 10.93774 0 0 1 403.63281 615.27148 A 10.93774 10.93774 0 0 1 402.55273 612.68359 C 401.1838 607.57198 396.66673 604.10419 391.375 604.10156 z M 525.76562 634.78125 C 524.18579 635.19665 522.53781 635.44141 520.83008 635.44141 L 509.52734 635.44141 C 506.86511 652.67633 500.77703 669.53092 491.47461 685.20117 L 507.95703 685.20117 C 517.31553 669.50332 523.25745 652.32817 525.76562 634.78125 z " id="rect4174"/>
    <path style="opacity:1;fill:#fbb516;fill-opacity:1;stroke:none;stroke-width:7.19999981;stroke-linecap:butt;stroke-linejoin:miter;stroke-miterlimit:4;stroke-dasharray:none;stroke-opacity:1" d="m 310.07243,533.33279 c 49.45729,-40.38466 111.289,-37.28512 158.53024,0.2477 l 23.10864,-23.10866 c -56.47061,-56.47208 -148.02912,-56.47212 -204.49975,0 z" id="path4204" inkscape:connector-curvature="0" sodipodi:nodetypes="ccccc"/>
    <path style="opacity:1;fill:#ff5a35;fill-opacity:1;stroke:none;stroke-width:7.19999981;stroke-linecap:butt;stroke-linejoin:miter;stroke-miterlimit:4;stroke-dasharray:none;stroke-opacity:1" d="M 494.85156 514.41406 L 471.99023 537.27539 C 486.77614 555.38302 495.72707 575.15031 499.29883 595.25195 L 520.83008 595.25195 C 527.30475 595.25195 533.0366 598.44619 536.58203 603.32422 C 533.5954 570.88114 519.69105 539.25289 494.85156 514.41406 z M 536.82812 627.04492 C 533.30473 632.11058 527.44971 635.44141 520.83008 635.44141 L 499.4043 635.44141 C 495.80021 656.61118 486.48096 677.16862 471.95898 695.5332 L 513.83203 695.5332 C 527.44823 674.64982 535.1117 651.01993 536.82812 627.04492 z " id="path4233"/>
    <path style="opacity:1;fill:#a9bc24;fill-opacity:1;stroke:none;stroke-width:7.19999981;stroke-linecap:butt;stroke-linejoin:miter;stroke-miterlimit:4;stroke-dasharray:none;stroke-opacity:1" d="m 282.99422,514.41424 c -49.20962,49.20833 -55.53084,125.05734 -18.97818,181.1185 l 41.42264,0 c -39.94032,-49.3702 -36.73795,-110.93291 0.66355,-158.00888 l -23.10801,-23.10962 z" id="path4235" inkscape:connector-curvature="0"/>
    <path style="color:#252525;font-style:normal;font-variant:normal;font-weight:normal;font-stretch:normal;font-size:medium;line-height:normal;font-family:sans-serif;text-indent:0;text-align:start;text-decoration:none;text-decoration-line:none;text-decoration-style:solid;text-decoration-color:#252525;letter-spacing:normal;word-spacing:normal;text-transform:none;direction:ltr;block-progression:tb;writing-mode:lr-tb;baseline-shift:baseline;text-anchor:start;white-space:normal;clip-rule:nonzero;display:inline;overflow:visible;visibility:visible;opacity:1;isolation:auto;mix-blend-mode:normal;color-interpolation:sRGB;color-interpolation-filters:linearRGB;solid-color:#252525;solid-opacity:1;fill:#252525;fill-opacity:1;fill-rule:nonzero;stroke:none;stroke-width:10;stroke-linecap:butt;stroke-linejoin:round;stroke-miterlimit:4;stroke-dasharray:none;stroke-dashoffset:0;stroke-opacity:1;color-rendering:auto;image-rendering:auto;shape-rendering:auto;text-rendering:auto;enable-background:accumulate" d="m 390.98228,643.59198 c 11.68544,-0.002 21.92329,-7.43137 25.81641,-18.15039 l 104.03125,0 c 5.16892,0 9.48438,-4.31777 9.48437,-9.48438 l 0,-1.21875 c 10e-6,-5.1666 -4.31547,-9.48633 -9.48437,-9.48633 l -104.61328,0 c -4.28228,-9.97521 -14.13867,-16.68451 -25.23242,-16.68945 l -0.002,0 c -15.13696,4.1e-4 -27.5144,12.37866 -27.51367,27.51562 4.2e-4,15.13617 12.37751,27.51326 27.51367,27.51368 z" id="path4274-3" inkscape:connector-curvature="0" sodipodi:nodetypes="ccsssscccccc"/>
  </g>
</svg>
