<?xml version="1.0" encoding="UTF-8" standalone="no"?>
<!-- Created with Inkscape (http://www.inkscape.org/) -->

<svg
   xmlns:dc="http://purl.org/dc/elements/1.1/"
   xmlns:cc="http://creativecommons.org/ns#"
   xmlns:rdf="http://www.w3.org/1999/02/22-rdf-syntax-ns#"
   xmlns:svg="http://www.w3.org/2000/svg"
   xmlns="http://www.w3.org/2000/svg"
   xmlns:xlink="http://www.w3.org/1999/xlink"
   xmlns:sodipodi="http://sodipodi.sourceforge.net/DTD/sodipodi-0.dtd"
   xmlns:inkscape="http://www.inkscape.org/namespaces/inkscape"
   width="210mm"
   height="297mm"
   viewBox="0 0 744.09448819 1052.3622047"
   id="svg2"
   version="1.1"
   inkscape:version="0.91 r13725"
   inkscape:export-xdpi="4.9499817"
   inkscape:export-ydpi="4.9499817"
   sodipodi:docname="mood-level-yellow.svg"
   inkscape:export-filename="C:\Users\johannes\Documents\Arbeit\RRZE\github3\bicons\22x22\categories\mood-level-yellow.png">
  <defs
     id="defs4">
    <linearGradient
       id="linearGradient2224">
      <stop
         id="stop2226"
         offset="0"
         style="stop-color:#7c7c7c;stop-opacity:1;" />
      <stop
         id="stop2228"
         offset="1"
         style="stop-color:#b8b8b8;stop-opacity:1;" />
    </linearGradient>
    <linearGradient
       id="linearGradient15218">
      <stop
         id="stop15220"
         offset="0"
         style="stop-color:#eeeeef;stop-opacity:1;" />
      <stop
         id="stop2736"
         offset="0.59928656"
         style="stop-color:#d3d7cf;stop-opacity:1;" />
      <stop
         id="stop2738"
         offset="0.82758623"
         style="stop-color:#ffffff;stop-opacity:1;" />
      <stop
         id="stop15222"
         offset="1"
         style="stop-color:#d3d7cf;stop-opacity:1;" />
    </linearGradient>
    <pattern
       y="0"
       x="0"
       height="6"
       width="6"
       patternUnits="userSpaceOnUse"
       id="EMFhbasepattern" />
    <linearGradient
       gradientTransform="translate(190,-329.99992)"
       inkscape:collect="always"
       xlink:href="#linearGradient4321"
       id="linearGradient4217"
       x1="54.540001"
       y1="1052.3621"
       x2="381.77997"
       y2="670.54211"
       gradientUnits="userSpaceOnUse" />
    <linearGradient
       id="linearGradient4321"
       inkscape:collect="always">
      <stop
         id="stop4323"
         offset="0"
         style="stop-color:#4e505d;stop-opacity:1;" />
      <stop
         id="stop4325"
         offset="1"
         style="stop-color:#7a8597;stop-opacity:1" />
    </linearGradient>
  </defs>
  <sodipodi:namedview
     id="base"
     pagecolor="#ffffff"
     bordercolor="#666666"
     borderopacity="1.0"
     inkscape:pageopacity="0.0"
     inkscape:pageshadow="2"
     inkscape:zoom="0.70710678"
     inkscape:cx="501.78095"
     inkscape:cy="574.0045"
     inkscape:document-units="px"
     inkscape:current-layer="layer1"
     showgrid="false"
     showguides="true"
     inkscape:guide-bbox="true"
     inkscape:window-width="1366"
     inkscape:window-height="721"
     inkscape:window-x="-4"
     inkscape:window-y="-4"
     inkscape:window-maximized="1"
     inkscape:snap-bbox="true"
     inkscape:bbox-paths="true"
     inkscape:bbox-nodes="true">
    <sodipodi:guide
       position="591,730.00002"
       orientation="0,1"
       id="guide3338" />
    <sodipodi:guide
       position="189,330.00001"
       orientation="0,1"
       id="guide3340" />
    <sodipodi:guide
       position="190,291.00001"
       orientation="1,0"
       id="guide3344" />
    <inkscape:grid
       type="xygrid"
       id="grid3440" />
    <sodipodi:guide
       position="590,295.00001"
       orientation="1,0"
       id="guide3411" />
  </sodipodi:namedview>
  <metadata
     id="metadata7">
    <rdf:RDF>
      <cc:Work
         rdf:about="">
        <dc:format>image/svg+xml</dc:format>
        <dc:type
           rdf:resource="http://purl.org/dc/dcmitype/StillImage" />
        <dc:title>mood level yellow</dc:title>
        <dc:date>June 2015</dc:date>
        <dc:creator>
          <cc:Agent>
            <dc:title>Johannes Hechler</dc:title>
          </cc:Agent>
        </dc:creator>
        <dc:rights>
          <cc:Agent>
            <dc:title>Johannes Hechler</dc:title>
          </cc:Agent>
        </dc:rights>
        <dc:publisher>
          <cc:Agent>
            <dc:title>RRZE</dc:title>
          </cc:Agent>
        </dc:publisher>
        <dc:contributor>
          <cc:Agent>
            <dc:title>Ute Weber, Hendrik Eggers</dc:title>
          </cc:Agent>
        </dc:contributor>
      </cc:Work>
    </rdf:RDF>
  </metadata>
  <g
     inkscape:label="Ebene 1"
     inkscape:groupmode="layer"
     id="layer1">
    <path
       style="color:#000000;clip-rule:nonzero;display:inline;overflow:visible;visibility:visible;opacity:1;isolation:auto;mix-blend-mode:normal;color-interpolation:sRGB;color-interpolation-filters:linearRGB;solid-color:#000000;solid-opacity:1;fill:url(#linearGradient4217);fill-opacity:1;fill-rule:nonzero;stroke:none;stroke-width:50;stroke-linecap:butt;stroke-linejoin:round;stroke-miterlimit:4;stroke-dasharray:none;stroke-dashoffset:0;stroke-opacity:1;color-rendering:auto;image-rendering:auto;shape-rendering:auto;text-rendering:auto;enable-background:accumulate"
       d="M 226.35938 322.36133 C 216.28766 322.36133 208.17969 330.47125 208.17969 340.54297 L 208.17969 391.39453 C 215.63018 387.06769 226.71765 381.81231 242.60352 376.80469 C 243.70152 376.45833 244.76849 376.13532 245.78906 375.82812 C 245.80524 375.82327 246.04657 375.7447 246.52734 375.60156 C 255.32268 372.98316 265.47362 370.46899 277.13477 368.21484 C 278.591 367.93333 280.10187 367.64238 281.69727 367.35352 L 281.69531 367.35547 C 281.44517 367.40077 281.46947 367.39414 281.76953 367.33984 L 281.77148 367.33984 L 281.77344 367.33984 C 309.16029 362.38626 344.50556 358.90039 389.98047 358.90039 L 389.98242 358.90039 C 426.50793 358.90039 456.49243 361.15239 481.08008 364.60156 C 493.11386 366.28968 503.8359 368.26967 513.39062 370.41211 C 514.84307 370.73779 516.2662 371.06856 517.66016 371.40039 C 523.40262 372.76737 528.70793 374.19074 533.59961 375.65039 C 534.88121 376.03281 536.12191 376.41414 537.32422 376.79297 C 541.92914 378.24387 546.14179 379.71569 549.98438 381.18555 C 551.0394 381.58912 552.051 381.98793 553.02344 382.37891 C 556.64234 383.83389 559.90426 385.27505 562.83789 386.67969 C 563.63384 387.06079 564.39061 387.4311 565.10938 387.79102 C 567.60895 389.04272 569.81044 390.24531 571.7793 391.38867 L 571.7793 340.54297 C 571.7793 330.47125 563.67133 322.36133 553.59961 322.36133 L 226.35938 322.36133 z M 389.98047 394.90039 C 346.34704 394.90039 313.13611 398.25167 288.17969 402.76562 C 288.38899 402.72773 288.39646 402.72604 288.11328 402.77734 L 288.11133 402.77734 L 288.11133 402.7793 C 286.73958 403.02767 285.37368 403.28662 283.9668 403.55859 C 273.38446 405.6042 264.37844 407.84957 256.80078 410.10547 L 256.79883 410.10547 C 256.81179 410.10161 256.61366 410.16546 256.16406 410.30078 C 255.17987 410.59702 254.25544 410.87686 253.43164 411.13672 L 253.42969 411.13867 C 239.5988 415.49834 231.11587 419.7052 226.17969 422.60352 L 226.17969 495.71484 C 249.23687 487.35451 286.28341 476.29024 334.94141 470.98828 C 341.06037 470.32153 347.35325 469.75244 353.80078 469.28906 L 353.80078 467.80078 C 353.80078 448.06878 370.24848 431.62109 389.98047 431.62109 C 409.71246 431.62109 426.16016 448.06878 426.16016 467.80078 L 426.16016 469.29297 C 429.55374 469.53684 432.90919 469.80565 436.21289 470.10742 C 489.17551 474.94516 529.3519 486.86498 553.7793 495.73047 L 553.7793 422.63672 C 552.39213 421.82022 551.02337 421.00251 548.98633 419.98242 C 548.42754 419.7026 547.86695 419.42513 547.28906 419.14844 C 545.08773 418.09443 542.5287 416.96203 539.5918 415.78125 C 538.78002 415.45487 537.95915 415.13187 537.11914 414.81055 C 533.98554 413.61188 530.45053 412.37301 526.50195 411.12891 C 525.4517 410.79799 524.39024 410.47041 523.30469 410.14648 C 519.10094 408.89211 514.44477 407.63932 509.32227 406.41992 C 508.07755 406.12362 506.80879 405.83142 505.51367 405.54102 C 496.94892 403.62056 487.19076 401.81281 476.07812 400.25391 C 453.34371 397.0647 425.02504 394.90039 389.98047 394.90039 z M 389.73633 467.55664 C 389.74284 467.55013 389.80078 467.59506 389.80078 467.80078 L 389.80078 467.98242 C 389.86111 467.9824 389.92012 467.98047 389.98047 467.98047 C 390.04075 467.98047 390.09989 467.9824 390.16016 467.98242 L 390.16016 467.80078 C 390.16016 467.38934 390.39192 467.62109 389.98047 467.62109 C 389.77474 467.62109 389.72982 467.56315 389.73633 467.55664 z M 389.98047 503.97852 C 389.92013 503.97852 389.86109 503.98045 389.80078 503.98047 L 389.80078 561.88281 A 18.0018 18.0018 0 0 1 377.80078 578.85352 C 363.15913 584.02968 353.46255 597.7213 353.43945 613.25 C 353.44327 633.64047 369.58887 649.78163 389.98047 649.78125 C 410.37087 649.7809 426.51453 633.64094 426.51953 613.25195 C 426.49497 597.72507 416.7999 584.03548 402.16016 578.85938 A 18.0018 18.0018 0 0 1 390.16016 561.88867 L 390.16016 503.98047 C 390.09991 503.98045 390.04074 503.97852 389.98047 503.97852 z M 353.80078 505.39062 C 348.70923 505.78463 343.71287 506.24441 338.83984 506.77539 C 287.92847 512.32289 249.74075 524.88309 230.375 532.42773 L 230.36523 532.43359 C 230.15588 532.51519 230.08742 532.54119 230.04102 532.55859 L 229.95312 532.5918 C 229.40745 532.8043 228.99091 532.96252 228.7793 533.04492 C 228.7773 533.04557 228.77739 533.04427 228.77539 533.04492 C 228.75476 533.05292 228.67626 533.08384 228.66016 533.08984 L 228.6582 533.0918 L 228.6543 533.09375 C 228.6503 533.09529 228.65244 533.0947 228.64844 533.0957 L 228.63867 533.09961 C 227.65004 533.49162 226.77689 533.85215 225.75 534.27344 L 225.74023 534.27734 C 225.68795 534.29884 225.62417 534.32606 225.54297 534.35938 L 225.53125 534.36328 C 224.77948 534.67234 224.09309 534.95215 223.60352 535.1582 C 222.77363 535.5075 222.03032 535.82819 221.30664 536.14258 C 220.75795 536.38096 220.29584 536.58283 219.90625 536.75586 C 219.35466 537.00083 218.88482 537.20891 218.54102 537.36523 L 218.49609 537.38672 C 218.46939 537.39872 218.53312 537.36928 218.48242 537.39258 L 218.45898 537.4043 L 218.43555 537.41406 C 216.81819 538.15168 216.0957 538.50781 216.0957 538.50781 L 208.17969 542.38477 L 208.17969 704.18164 C 208.17969 714.25336 216.28766 722.36133 226.35938 722.36133 L 553.59961 722.36133 C 563.67133 722.36133 571.7793 714.25336 571.7793 704.18164 L 571.7793 542.43945 L 563.77148 538.46094 C 563.77148 538.46094 559.62703 536.3841 550.91602 532.94336 C 550.893 532.93435 550.92958 532.94927 550.875 532.92773 C 550.87329 532.92706 550.8503 532.91667 550.85352 532.91797 C 530.9308 525.05404 489.05349 511.08264 432.93945 505.95703 C 430.7032 505.75277 428.43841 505.5667 426.16016 505.39062 L 426.16016 550.58398 C 448.25984 563.35592 462.48643 587.07202 462.51953 613.21875 A 18.0018 18.0018 0 0 1 462.51953 613.24023 C 462.52029 653.08981 429.83005 685.78056 389.98047 685.78125 C 350.1299 685.78199 317.43869 653.0908 317.43945 613.24023 A 18.0018 18.0018 0 0 1 317.43945 613.2207 C 317.47006 587.07089 331.69833 563.35104 353.80078 550.57812 L 353.80078 505.39062 z "
       id="rect4184" />
    <path
       style="fill:#fbb516;fill-rule:evenodd;stroke:none;stroke-width:1px;stroke-linecap:butt;stroke-linejoin:miter;stroke-opacity:1"
       d="M 389.98047 376.90039 C 345.4263 376.90039 311.1482 380.31895 284.97656 385.05273 L 336.89062 488.88281 C 342.38631 488.28398 348.03369 487.77165 353.80078 487.3418 L 353.80078 467.80078 C 353.80078 448.06878 370.24848 431.62109 389.98047 431.62109 C 409.71246 431.62109 426.16016 448.06878 426.16016 467.80078 L 426.16016 487.34375 C 428.99459 487.55486 431.80563 487.78013 434.57617 488.0332 L 478.57812 382.42773 C 454.91708 379.10854 425.76551 376.90039 389.98047 376.90039 z M 486.30078 383.58594 C 487.74412 383.81466 489.16548 384.04847 490.56445 384.28516 C 489.16489 384.04835 487.74477 383.81478 486.30078 383.58594 z M 284.9043 385.06641 C 283.42073 385.33503 281.98234 385.60998 280.55078 385.88672 C 281.98181 385.6101 283.42135 385.33493 284.9043 385.06641 z M 509.45117 387.97656 C 510.82495 388.2846 512.17089 388.59609 513.49023 388.91016 C 512.17036 388.59582 510.82559 388.28486 509.45117 387.97656 z M 251.66406 392.85352 C 250.41636 393.22518 249.20178 393.59715 248.01758 393.9707 C 249.20091 393.5977 250.41742 393.22463 251.66406 392.85352 z M 528.45117 392.89844 C 529.63475 393.25161 530.78583 393.60607 531.91211 393.96094 C 530.78579 393.60581 529.63487 393.25187 528.45117 392.89844 z M 543.55078 397.99805 C 544.4983 398.3605 545.41453 398.7214 546.30664 399.08008 C 545.41416 398.72091 544.4988 398.361 543.55078 397.99805 z M 555.0625 402.91406 C 555.74942 403.24296 556.40811 403.56685 557.04688 403.88672 C 556.40756 403.56616 555.75018 403.24369 555.0625 402.91406 z M 211.75977 410.42578 C 211.18035 410.83617 210.66346 411.21323 210.23438 411.54297 C 210.66593 411.21217 211.17722 410.83735 211.75977 410.42578 z M 569.48242 411.35938 C 569.81454 411.61055 570.06264 411.81052 570.31836 412.01562 C 570.05741 411.8055 569.82507 411.61899 569.48242 411.35938 z M 210.16992 411.5918 C 209.9877 411.73235 209.88796 411.81717 209.73242 411.94141 C 209.88427 411.82055 209.99307 411.72788 210.16992 411.5918 z M 571.02734 412.59961 C 571.39473 412.91929 571.7793 413.26172 571.7793 413.26172 C 571.7793 413.26172 571.4824 412.99018 571.02734 412.59961 z M 208.82422 412.6875 C 208.42625 413.03238 208.17969 413.26172 208.17969 413.26172 C 208.17969 413.26172 208.50327 412.96902 208.82422 412.6875 z M 389.73633 467.55664 C 389.74284 467.55013 389.80078 467.59506 389.80078 467.80078 L 389.80078 485.98242 C 389.86111 485.9824 389.92012 485.98047 389.98047 485.98047 C 390.04074 485.98047 390.0999 485.9824 390.16016 485.98242 L 390.16016 467.80078 C 390.16016 467.38934 390.39192 467.62109 389.98047 467.62109 C 389.77474 467.62109 389.72982 467.56315 389.73633 467.55664 z M 554.99609 515.22656 C 555.82915 515.5481 556.7111 515.87981 557.48438 516.18555 C 556.70286 515.877 555.83845 515.55114 554.99609 515.22656 z M 223.83008 515.66211 C 223.2347 515.89409 222.56668 516.14404 222.00391 516.36719 C 222.56319 516.14507 223.23846 515.89301 223.83008 515.66211 z M 560.87695 517.55273 C 561.63801 517.86489 562.40701 518.17971 563.08984 518.4668 C 562.3926 518.17407 561.65543 517.87143 560.87695 517.55273 z M 218.9082 517.625 C 218.05662 517.97436 217.21734 518.31544 216.46484 518.63281 C 217.20274 518.32119 218.0748 517.96752 218.9082 517.625 z M 565.58203 519.52539 C 566.23268 519.80774 566.84676 520.07644 567.39453 520.32031 C 566.82754 520.06822 566.25882 519.81844 565.58203 519.52539 z M 214.30859 519.55664 C 213.58948 519.86838 212.95063 520.14565 212.35742 520.41016 C 212.93412 520.15268 213.61263 519.85896 214.30859 519.55664 z M 568.85547 520.97266 C 570.55161 521.74912 571.7793 522.3418 571.7793 522.3418 C 571.7793 522.3418 570.73499 521.82773 568.85547 520.97266 z M 211.0332 521.00586 C 209.20665 521.83798 208.17969 522.3418 208.17969 522.3418 C 208.17969 522.3418 209.41668 521.74756 211.0332 521.00586 z "
       id="path4188" />
    <path
       style="fill:#d9463a;fill-rule:evenodd;stroke:none;stroke-width:1px;stroke-linecap:butt;stroke-linejoin:miter;stroke-opacity:1"
       d="m 478.5788,382.42815 -44.00195,105.60548 c 83.83587,7.65778 137.20313,34.30859 137.20313,34.30859 l 0,-109.08008 c 0,0 -20.69739,-20.66307 -93.20118,-30.83399 z"
       id="path4192"
       inkscape:connector-curvature="0"
       sodipodi:nodetypes="ccccc" />
    <path
       id="path4197"
       d="m 284.97723,385.05315 c -59.26149,10.71892 -76.79687,28.20899 -76.79687,28.20899 l 0,109.08008 c 0,0 49.78325,-24.85872 128.71094,-33.45898 z"
       style="fill:#99b000;fill-rule:evenodd;stroke:none;stroke-width:1px;stroke-linecap:butt;stroke-linejoin:miter;stroke-opacity:1"
       inkscape:connector-curvature="0"
       sodipodi:nodetypes="ccccc" />
    <path
       inkscape:connector-curvature="0"
       style="color:#000000;clip-rule:nonzero;display:inline;overflow:visible;visibility:visible;opacity:1;isolation:auto;mix-blend-mode:normal;color-interpolation:sRGB;color-interpolation-filters:linearRGB;solid-color:#000000;solid-opacity:1;fill:#4e505d;fill-opacity:1;fill-rule:nonzero;stroke:none;stroke-width:50;stroke-linecap:butt;stroke-linejoin:round;stroke-miterlimit:4;stroke-dasharray:none;stroke-dashoffset:0;stroke-opacity:1;color-rendering:auto;image-rendering:auto;shape-rendering:auto;text-rendering:auto;enable-background:accumulate"
       d="m 389.98047,449.62199 c -10.07172,0 -18.17969,8.10796 -18.17969,18.17968 l 0,94.08203 a 54.540001,54.539967 0 0 0 -36.36133,51.35743 54.540001,54.539967 0 0 0 54.54102,54.54101 54.540001,54.539967 0 0 0 54.53906,-54.54101 54.540001,54.539967 0 0 0 -36.35937,-51.35157 l 0,-94.08789 c 0,-10.07172 -8.10797,-18.17968 -18.17969,-18.17968 z"
       id="path4186" />
    <path
       inkscape:connector-curvature="0"
       style="color:#000000;clip-rule:nonzero;display:inline;overflow:visible;visibility:visible;opacity:1;isolation:auto;mix-blend-mode:normal;color-interpolation:sRGB;color-interpolation-filters:linearRGB;solid-color:#000000;solid-opacity:1;fill:none;fill-opacity:1;fill-rule:nonzero;stroke:none;stroke-width:36;stroke-linecap:butt;stroke-linejoin:round;stroke-miterlimit:4;stroke-dasharray:none;stroke-dashoffset:0;stroke-opacity:1;color-rendering:auto;image-rendering:auto;shape-rendering:auto;text-rendering:auto;enable-background:accumulate"
       d="m 208.18,322.3622 363.64146,0 c 10.07172,0 18.18,8.10828 18.18,18.18 l 0,363.63998 c 0,10.0717 -8.10828,18.18 -18.18,18.18 l -363.64146,0 c -10.07172,0 -18.18,-8.1083 -18.18,-18.18 l 0,-363.63998 c 0,-10.07172 8.10828,-18.18 18.18,-18.18 z"
       id="rect4219" />
  </g>
</svg>
