<?xml version="1.0" encoding="UTF-8" standalone="no"?>
<!-- Created with Inkscape (http://www.inkscape.org/) -->

<svg
   xmlns:dc="http://purl.org/dc/elements/1.1/"
   xmlns:cc="http://creativecommons.org/ns#"
   xmlns:rdf="http://www.w3.org/1999/02/22-rdf-syntax-ns#"
   xmlns:svg="http://www.w3.org/2000/svg"
   xmlns="http://www.w3.org/2000/svg"
   xmlns:xlink="http://www.w3.org/1999/xlink"
   xmlns:sodipodi="http://sodipodi.sourceforge.net/DTD/sodipodi-0.dtd"
   xmlns:inkscape="http://www.inkscape.org/namespaces/inkscape"
   width="210mm"
   height="297mm"
   viewBox="0 0 744.09448819 1052.3622047"
   id="svg2"
   version="1.1"
   inkscape:version="0.91 r13725"
   inkscape:export-xdpi="4.9499998"
   inkscape:export-ydpi="4.9499998"
   sodipodi:docname="user-admin.svg"
   inkscape:export-filename="C:\Users\johannes\Documents\Arbeit\RRZE\github3\bicons\22x22\categories\user-admin.png">
  <defs
     id="defs4">
    <linearGradient
       id="linearGradient2224">
      <stop
         id="stop2226"
         offset="0"
         style="stop-color:#7c7c7c;stop-opacity:1;" />
      <stop
         id="stop2228"
         offset="1"
         style="stop-color:#b8b8b8;stop-opacity:1;" />
    </linearGradient>
    <linearGradient
       id="linearGradient15218">
      <stop
         id="stop15220"
         offset="0"
         style="stop-color:#eeeeef;stop-opacity:1;" />
      <stop
         id="stop2736"
         offset="0.59928656"
         style="stop-color:#d3d7cf;stop-opacity:1;" />
      <stop
         id="stop2738"
         offset="0.82758623"
         style="stop-color:#ffffff;stop-opacity:1;" />
      <stop
         id="stop15222"
         offset="1"
         style="stop-color:#d3d7cf;stop-opacity:1;" />
    </linearGradient>
    <pattern
       y="0"
       x="0"
       height="6"
       width="6"
       patternUnits="userSpaceOnUse"
       id="EMFhbasepattern" />
    <pattern
       y="0"
       x="0"
       height="6"
       width="6"
       patternUnits="userSpaceOnUse"
       id="EMFhbasepattern-5" />
    <linearGradient
       inkscape:collect="always"
       id="linearGradient4194">
      <stop
         style="stop-color:#a8b740;stop-opacity:1;"
         offset="0"
         id="stop4196" />
      <stop
         style="stop-color:#a9bc24;stop-opacity:1"
         offset="1"
         id="stop4198" />
    </linearGradient>
    <linearGradient
       inkscape:collect="always"
       xlink:href="#linearGradient4194"
       id="linearGradient4327"
       x1="424.61426"
       y1="662.54724"
       x2="559.49811"
       y2="559.54724"
       gradientUnits="userSpaceOnUse"
       gradientTransform="matrix(2.1562994,0,0,2.1562994,-662.08271,-819.11428)" />
    <linearGradient
       inkscape:collect="always"
       xlink:href="#linearGradient4254"
       id="linearGradient4268"
       x1="471.69119"
       y1="457.14825"
       x2="375.74777"
       y2="664.98523"
       gradientUnits="userSpaceOnUse"
       gradientTransform="matrix(1.1386133,0,0,1.1335333,-56.601996,-50.702321)" />
    <linearGradient
       inkscape:collect="always"
       id="linearGradient4254">
      <stop
         style="stop-color:#7a8597;stop-opacity:1"
         offset="0"
         id="stop4256" />
      <stop
         style="stop-color:#4e505d;stop-opacity:1"
         offset="1"
         id="stop4258" />
    </linearGradient>
    <linearGradient
       inkscape:collect="always"
       xlink:href="#linearGradient4254"
       id="linearGradient4260"
       x1="425.62207"
       y1="330.38269"
       x2="376.55045"
       y2="461.45456"
       gradientUnits="userSpaceOnUse"
       gradientTransform="matrix(1.1116851,0,0,1.1116851,-47.376106,-45.58257)" />
  </defs>
  <sodipodi:namedview
     id="base"
     pagecolor="#ffffff"
     bordercolor="#666666"
     borderopacity="1.0"
     inkscape:pageopacity="0.0"
     inkscape:pageshadow="2"
     inkscape:zoom="0.5"
     inkscape:cx="438.92543"
     inkscape:cy="460.54979"
     inkscape:document-units="px"
     inkscape:current-layer="layer1"
     showgrid="false"
     showguides="true"
     inkscape:guide-bbox="true"
     inkscape:window-width="1366"
     inkscape:window-height="721"
     inkscape:window-x="-4"
     inkscape:window-y="-4"
     inkscape:window-maximized="1"
     inkscape:snap-nodes="false"
     inkscape:snap-bbox="true"
     inkscape:bbox-paths="true"
     inkscape:bbox-nodes="true">
    <sodipodi:guide
       position="315.53572,730.17859"
       orientation="0,1"
       id="guide3338" />
    <sodipodi:guide
       position="351.25,330.17858"
       orientation="0,1"
       id="guide3340" />
    <sodipodi:guide
       position="189.10714,408.8393"
       orientation="1,0"
       id="guide3344" />
    <sodipodi:guide
       position="589.04521,468.07945"
       orientation="1,0"
       id="guide3346" />
    <inkscape:grid
       type="xygrid"
       id="grid3440" />
    <sodipodi:guide
       position="589.04521,378.30213"
       orientation="1,0"
       id="guide3411" />
  </sodipodi:namedview>
  <metadata
     id="metadata7">
    <rdf:RDF>
      <cc:Work
         rdf:about="">
        <dc:format>image/svg+xml</dc:format>
        <dc:type
           rdf:resource="http://purl.org/dc/dcmitype/StillImage" />
        <dc:title>user admin</dc:title>
        <dc:date>June 2015</dc:date>
        <dc:creator>
          <cc:Agent>
            <dc:title>Johannes Hechler</dc:title>
          </cc:Agent>
        </dc:creator>
        <dc:rights>
          <cc:Agent>
            <dc:title>Johannes Hechler</dc:title>
          </cc:Agent>
        </dc:rights>
        <dc:publisher>
          <cc:Agent>
            <dc:title>RRZE</dc:title>
          </cc:Agent>
        </dc:publisher>
        <dc:contributor>
          <cc:Agent>
            <dc:title>Ute Weber, Hendrik Eggers</dc:title>
          </cc:Agent>
        </dc:contributor>
      </cc:Work>
    </rdf:RDF>
  </metadata>
  <g
     inkscape:label="Ebene 1"
     inkscape:groupmode="layer"
     id="layer1">
    <g
       id="g4314">
      <rect
         inkscape:export-ydpi="4.9499998"
         inkscape:export-xdpi="4.9499998"
         y="322.18362"
         x="189.10713"
         height="400"
         width="400"
         id="rect3336-0"
         style="fill:none;fill-rule:evenodd;stroke:none;stroke-width:1px;stroke-linecap:butt;stroke-linejoin:miter;stroke-opacity:1" />
      <path
         id="path2176"
         d="m 335.35534,485.52741 c -48.59119,28.65652 -78.84766,87.82089 -78.84766,168.53962 0,17.3373 1.58896,34.13592 4.55274,50.1172 4.39616,9.79082 15.44085,16.96676 28.67578,17.90406 l 0,0.10891 93.00781,0 -0.12891,-0.12833 c -15.52372,-15.45682 -15.52381,-41.13146 0,-56.58819 l 26.07618,-25.96374 -32.59571,-32.45027 a 18.0018,17.921483 0 0 1 -5.27148,-12.67169 l 0,-18.09858 a 18.0018,17.921483 0 0 1 18,-17.91969 l 18.17969,0 a 18.0018,17.921483 0 0 1 12.72851,5.24797 l 12.90625,12.85061 10.9043,0 0,-10.87509 -12.86328,-12.85451 a 18.0018,17.921483 0 0 1 -5.24805,-12.64644 l 0,-18.09858 a 18.0018,17.921483 0 0 1 18,-17.91969 l 18.11133,0 a 18.0018,17.921483 0 0 1 6.56836,1.24636 c -7.69187,-7.55279 -16.03388,-14.08008 -24.91797,-19.50243 l -54.27539,-0.0564 -53.5625,-0.24111 z m 144.1875,79.73446 0,21.47797 c 0.35492,0.0141 0.70838,0.0394 1.0625,0.0622 l -0.51953,-20.99964 -0.54297,-0.54055 z m -47.26367,47.05278 0.16015,0.15949 3.50586,-0.0936 0.0664,-0.0657 -3.73242,0 z m 28.26172,35.26187 -9.28516,0.24888 -43.18164,42.99482 c -1.86278,1.85469 -1.863,4.05214 0,5.90713 l 5.25976,5.23832 c 1.86277,1.85469 4.06301,1.85469 5.92579,0 l 48.00586,-47.79759 -6.72461,-6.59156 z m 58.91406,2.93027 c -0.51399,0.97005 -1.0784,1.92716 -1.69141,2.86804 l 4.52735,4.43712 c 0.0165,-1.24731 0.041,-2.49183 0.041,-3.74492 0,-0.25147 -0.009,-0.49757 -0.01,-0.74864 l -2.86719,-2.8116 z m -26.53906,28.80839 -43.06641,42.88202 36.5957,0 0,-0.01 c 14.52361,-0.20408 26.80216,-7.90417 31.27149,-18.55743 l -24.80078,-24.31463 z"
         style="fill:url(#linearGradient4268);fill-opacity:1;stroke:none;stroke-width:41.15159225;stroke-linecap:round;stroke-linejoin:round;stroke-opacity:1"
         inkscape:connector-curvature="0" />
      <ellipse
         ry="72.585457"
         rx="72.979141"
         cx="389.08276"
         cy="394.90359"
         id="circle2187-6"
         style="fill:url(#linearGradient4260);fill-opacity:1;stroke:none;stroke-width:14;stroke-miterlimit:4;stroke-dasharray:none;stroke-opacity:1" />
      <flowRoot
         style="font-style:normal;font-weight:normal;font-size:40px;line-height:125%;font-family:sans-serif;letter-spacing:0px;word-spacing:0px;fill:#252525;fill-opacity:1;stroke:none;stroke-width:1px;stroke-linecap:butt;stroke-linejoin:miter;stroke-opacity:1"
         id="flowRoot4169"
         xml:space="preserve"
         transform="translate(-0.301236,-0.08634)"><flowRegion
           id="flowRegion4171"><rect
             y="427.07962"
             x="89.541069"
             height="88.78862"
             width="56.433445"
             id="rect4173" /></flowRegion><flowPara
           id="flowPara4175" /></flowRoot>      <path
         id="rect4172"
         d="m 570.62292,522.16413 -36.35938,36.35937 -17.89648,18.58008 0.51758,21.08399 8.20703,8.08199 27.35156,-29.56637 36.40234,-36.35937 -18.22265,-18.17969 z m -96.50782,85.57423 a 18.0018,18.0018 0 0 1 -7.43164,4.3867 l 0.54883,-0.016 a 18.0018,18.0018 0 0 1 13.11133,5.168 l 24.77344,24.3964 c 0.65531,-0.937 1.2396,-1.8831 1.73437,-2.8398 l -20.41406,-20.1035 a 18.0018,18.0018 0 0 1 -4.54492,-7.4922 c -2.94973,-1.4555 -5.46274,-2.7945 -7.77735,-3.5 z m -13.57421,40.5644 -34.875,0.9356 a 18.0018,18.0018 0 0 1 -0.54493,-0.01 l -29.77734,29.7814 c -8.6933,8.6945 -8.69336,22.694 0,31.3887 l 5.26172,5.2617 c 8.69329,8.6946 22.69146,8.6946 31.38476,0 l 48.10157,-48.1074 -19.55078,-19.252 z"
         style="opacity:1;fill:#99b000;fill-opacity:1;stroke:none;stroke-width:2;stroke-linecap:butt;stroke-linejoin:round;stroke-miterlimit:4;stroke-dasharray:none;stroke-opacity:1"
         inkscape:connector-curvature="0" />
      <path
         id="rect4183"
         d="m 443.43151,522.16413 0,18.17969 18.11133,18.17968 0,36.35938 -36.35938,0 -18.17968,-18.17969 -18.17969,0 0,18.17969 36.35937,36.36138 42.53125,-1.1407 89.19922,87.8399 c 6.70188,6.7308 19.28694,4.9271 25.9336,-1.7481 6.64676,-6.6754 8.51937,-19.3919 1.75195,-26.0566 l -85.53125,-84.2324 -1.16406,-47.38286 -36.36133,-36.35937 -18.11133,0 z"
         style="opacity:1;fill:#99b000;fill-opacity:1;stroke:none;stroke-width:2;stroke-linecap:butt;stroke-linejoin:round;stroke-miterlimit:4;stroke-dasharray:none;stroke-opacity:1"
         inkscape:connector-curvature="0" />
    </g>
  </g>
</svg>
