<?xml version="1.0" encoding="UTF-8" standalone="no"?>
<!-- Created with Inkscape (http://www.inkscape.org/) -->

<svg
   xmlns:dc="http://purl.org/dc/elements/1.1/"
   xmlns:cc="http://creativecommons.org/ns#"
   xmlns:rdf="http://www.w3.org/1999/02/22-rdf-syntax-ns#"
   xmlns:svg="http://www.w3.org/2000/svg"
   xmlns="http://www.w3.org/2000/svg"
   xmlns:xlink="http://www.w3.org/1999/xlink"
   xmlns:sodipodi="http://sodipodi.sourceforge.net/DTD/sodipodi-0.dtd"
   xmlns:inkscape="http://www.inkscape.org/namespaces/inkscape"
   width="210mm"
   height="297mm"
   viewBox="0 0 744.09448819 1052.3622047"
   id="svg2"
   version="1.1"
   inkscape:version="0.91 r13725"
   inkscape:export-xdpi="4.9499702"
   inkscape:export-ydpi="4.9499702"
   sodipodi:docname="user-examiner-group.svg"
   inkscape:export-filename="C:\Users\johannes\Documents\Arbeit\RRZE\github3\bicons\22x22\categories\user-examiner-group.png">
  <defs
     id="defs4">
    <linearGradient
       inkscape:collect="always"
       id="linearGradient4254">
      <stop
         style="stop-color:#7a8597;stop-opacity:1"
         offset="0"
         id="stop4256" />
      <stop
         style="stop-color:#4e505d;stop-opacity:1"
         offset="1"
         id="stop4258" />
    </linearGradient>
    <linearGradient
       id="linearGradient2224">
      <stop
         id="stop2226"
         offset="0"
         style="stop-color:#7c7c7c;stop-opacity:1;" />
      <stop
         id="stop2228"
         offset="1"
         style="stop-color:#b8b8b8;stop-opacity:1;" />
    </linearGradient>
    <linearGradient
       id="linearGradient15218">
      <stop
         id="stop15220"
         offset="0"
         style="stop-color:#eeeeef;stop-opacity:1;" />
      <stop
         id="stop2736"
         offset="0.59928656"
         style="stop-color:#d3d7cf;stop-opacity:1;" />
      <stop
         id="stop2738"
         offset="0.82758623"
         style="stop-color:#ffffff;stop-opacity:1;" />
      <stop
         id="stop15222"
         offset="1"
         style="stop-color:#d3d7cf;stop-opacity:1;" />
    </linearGradient>
    <pattern
       y="0"
       x="0"
       height="6"
       width="6"
       patternUnits="userSpaceOnUse"
       id="EMFhbasepattern" />
    <pattern
       y="0"
       x="0"
       height="6"
       width="6"
       patternUnits="userSpaceOnUse"
       id="EMFhbasepattern-5" />
    <linearGradient
       inkscape:collect="always"
       xlink:href="#linearGradient4254"
       id="linearGradient4252"
       x1="380.01031"
       y1="330.40619"
       x2="414.6156"
       y2="457.18103"
       gradientUnits="userSpaceOnUse"
       gradientTransform="translate(0.37005758,-0.39466108)" />
    <linearGradient
       inkscape:collect="always"
       xlink:href="#linearGradient4254"
       id="linearGradient4275"
       x1="380.01031"
       y1="330.40619"
       x2="414.6156"
       y2="457.18103"
       gradientUnits="userSpaceOnUse"
       gradientTransform="translate(0.37005758,-0.39466108)" />
    <linearGradient
       inkscape:collect="always"
       xlink:href="#linearGradient4254"
       id="linearGradient4320"
       x1="380.01031"
       y1="330.40619"
       x2="414.6156"
       y2="457.18103"
       gradientUnits="userSpaceOnUse"
       gradientTransform="translate(0.37005758,-0.39466108)" />
    <linearGradient
       inkscape:collect="always"
       xlink:href="#linearGradient4254"
       id="linearGradient4442"
       gradientUnits="userSpaceOnUse"
       gradientTransform="translate(0.37005758,-0.39466108)"
       x1="380.01031"
       y1="330.40619"
       x2="414.6156"
       y2="457.18103" />
    <linearGradient
       inkscape:collect="always"
       xlink:href="#linearGradient4254"
       id="linearGradient4445"
       x1="380.01031"
       y1="330.40619"
       x2="414.6156"
       y2="457.18103"
       gradientUnits="userSpaceOnUse"
       gradientTransform="translate(0.37005758,-0.39466108)" />
    <linearGradient
       inkscape:collect="always"
       xlink:href="#linearGradient4254"
       id="linearGradient4526"
       gradientUnits="userSpaceOnUse"
       gradientTransform="translate(0.37005758,-0.39466108)"
       x1="380.01031"
       y1="330.40619"
       x2="414.6156"
       y2="457.18103" />
    <linearGradient
       inkscape:collect="always"
       xlink:href="#linearGradient4254"
       id="linearGradient4529"
       gradientUnits="userSpaceOnUse"
       gradientTransform="translate(0.37005758,-0.39466108)"
       x1="380.01031"
       y1="330.40619"
       x2="414.6156"
       y2="457.18103" />
    <linearGradient
       gradientTransform="translate(-4.4e-4,-3e-5)"
       inkscape:collect="always"
       xlink:href="#linearGradient4254"
       id="linearGradient4212"
       x1="544.42413"
       y1="431.26184"
       x2="479.92413"
       y2="557.0022"
       gradientUnits="userSpaceOnUse" />
    <linearGradient
       gradientTransform="translate(-4.4e-4,-3e-5)"
       inkscape:collect="always"
       xlink:href="#linearGradient4254"
       id="linearGradient4204-1"
       x1="521.00494"
       y1="340.05643"
       x2="491.77841"
       y2="396.00424"
       gradientUnits="userSpaceOnUse" />
    <linearGradient
       gradientTransform="translate(-4.4e-4,-3e-5)"
       inkscape:collect="always"
       xlink:href="#linearGradient4321"
       id="linearGradient4220"
       x1="401"
       y1="624.36218"
       x2="443.8454"
       y2="500.08359"
       gradientUnits="userSpaceOnUse" />
    <linearGradient
       id="linearGradient4321"
       inkscape:collect="always">
      <stop
         id="stop4323"
         offset="0"
         style="stop-color:#4e505d;stop-opacity:1;" />
      <stop
         id="stop4325"
         offset="1"
         style="stop-color:#7a8597;stop-opacity:1" />
    </linearGradient>
    <linearGradient
       gradientTransform="translate(-4.4e-4,-3e-5)"
       inkscape:collect="always"
       xlink:href="#linearGradient4254"
       id="linearGradient4196"
       x1="303.58328"
       y1="467.66281"
       x2="276.48325"
       y2="558.56281"
       gradientUnits="userSpaceOnUse" />
    <linearGradient
       gradientTransform="translate(-4.4e-4,-4e-5)"
       inkscape:collect="always"
       xlink:href="#linearGradient4254"
       id="linearGradient4188"
       x1="300.22327"
       y1="576.74146"
       x2="250.84326"
       y2="722.22284"
       gradientUnits="userSpaceOnUse" />
    <linearGradient
       inkscape:collect="always"
       xlink:href="#linearGradient4254"
       id="linearGradient6494"
       gradientUnits="userSpaceOnUse"
       gradientTransform="matrix(1.0238944,0,0,1,-230.322,145.47911)"
       x1="521.00494"
       y1="340.05643"
       x2="491.77841"
       y2="396.00424" />
    <linearGradient
       inkscape:collect="always"
       xlink:href="#linearGradient4321"
       id="linearGradient4343"
       gradientUnits="userSpaceOnUse"
       gradientTransform="translate(-4.4e-4,-3e-5)"
       x1="398"
       y1="487.36218"
       x2="438.8454"
       y2="409.08359" />
  </defs>
  <sodipodi:namedview
     id="base"
     pagecolor="#ffffff"
     bordercolor="#666666"
     borderopacity="1.0"
     inkscape:pageopacity="0.0"
     inkscape:pageshadow="2"
     inkscape:zoom="1"
     inkscape:cx="417.02387"
     inkscape:cy="520.6341"
     inkscape:document-units="px"
     inkscape:current-layer="layer1"
     showgrid="false"
     showguides="true"
     inkscape:guide-bbox="true"
     inkscape:window-width="1366"
     inkscape:window-height="721"
     inkscape:window-x="-4"
     inkscape:window-y="-4"
     inkscape:window-maximized="1"
     inkscape:snap-bbox="true"
     inkscape:bbox-paths="true"
     inkscape:bbox-nodes="true">
    <sodipodi:guide
       position="315.53572,730.17859"
       orientation="0,1"
       id="guide3338" />
    <sodipodi:guide
       position="351.25,330.17858"
       orientation="0,1"
       id="guide3340" />
    <sodipodi:guide
       position="189.10714,408.8393"
       orientation="1,0"
       id="guide3344" />
    <sodipodi:guide
       position="589.04521,468.07945"
       orientation="1,0"
       id="guide3346" />
    <inkscape:grid
       type="xygrid"
       id="grid3440" />
    <sodipodi:guide
       position="589.04521,378.30213"
       orientation="1,0"
       id="guide3411" />
  </sodipodi:namedview>
  <metadata
     id="metadata7">
    <rdf:RDF>
      <cc:Work
         rdf:about="">
        <dc:format>image/svg+xml</dc:format>
        <dc:type
           rdf:resource="http://purl.org/dc/dcmitype/StillImage" />
        <dc:title>user examiner group</dc:title>
        <dc:date>June 2015</dc:date>
        <dc:creator>
          <cc:Agent>
            <dc:title>Johannes Hechler</dc:title>
          </cc:Agent>
        </dc:creator>
        <dc:rights>
          <cc:Agent>
            <dc:title>Johannes Hechler</dc:title>
          </cc:Agent>
        </dc:rights>
        <dc:publisher>
          <cc:Agent>
            <dc:title>RRZE</dc:title>
          </cc:Agent>
        </dc:publisher>
        <dc:contributor>
          <cc:Agent>
            <dc:title>Ute Weber, Hendrik Eggers</dc:title>
          </cc:Agent>
        </dc:contributor>
      </cc:Work>
    </rdf:RDF>
  </metadata>
  <g
     inkscape:label="Ebene 1"
     inkscape:groupmode="layer"
     id="layer1">
    <flowRoot
       transform="translate(552.60776,-487.98407)"
       xml:space="preserve"
       id="flowRoot4169"
       style="font-style:normal;font-weight:normal;font-size:40px;line-height:125%;font-family:sans-serif;letter-spacing:0px;word-spacing:0px;fill:#252525;fill-opacity:1;stroke:none;stroke-width:1px;stroke-linecap:butt;stroke-linejoin:miter;stroke-opacity:1"><flowRegion
         id="flowRegion4171"><rect
           id="rect4173"
           width="56.433445"
           height="88.78862"
           x="89.541069"
           y="427.07962" /></flowRegion><flowPara
         id="flowPara4175" /></flowRoot>    <flowRoot
       transform="translate(1113.8145,-429.96049)"
       xml:space="preserve"
       id="flowRoot4169-9"
       style="font-style:normal;font-weight:normal;font-size:40px;line-height:125%;font-family:sans-serif;letter-spacing:0px;word-spacing:0px;fill:#252525;fill-opacity:1;stroke:none;stroke-width:1px;stroke-linecap:butt;stroke-linejoin:miter;stroke-opacity:1"><flowRegion
         id="flowRegion4171-9"><rect
           id="rect4173-6"
           width="56.433445"
           height="88.78862"
           x="89.541069"
           y="427.07962" /></flowRegion><flowPara
         id="flowPara4175-7" /></flowRoot>    <path
       style="fill:url(#linearGradient4212);fill-opacity:1;stroke:none;stroke-width:41.15159225;stroke-linecap:round;stroke-linejoin:round;stroke-opacity:1"
       d="m 481.24642,431.26174 0,0.006 c -0.0823,0.0683 -0.15723,0.14275 -0.24218,0.20899 l -4.58594,2.32812 c -5.30827,2.94774 -10.33178,6.64683 -15.01562,10.97852 -1.29366,18.49828 -10.67978,34.87419 -24.58008,45.67187 7.04449,3.78866 13.56955,8.48776 19.53906,13.94727 1.84863,-0.14323 3.71048,-0.23831 5.59375,-0.23828 39.84976,7.2e-4 72.54964,32.67748 72.54883,72.52148 0,0.019 -0.002,0.0377 -0.002,0.0566 l 32.45313,0 0,-0.01 c 9.14348,-0.12109 16.84418,-4.78395 19.43164,-11.17774 1.73135,-9.0394 2.6582,-18.52274 2.6582,-28.30273 0,-48.9769 -23.11304,-90.58766 -55.26367,-105.63281 L 481.24638,431.2616 Z M 443.42611,545.1055 c -7.1689,4.16214 -12.73537,10.69034 -15.68359,18.57031 0.15639,0.87865 0.31294,1.7565 0.48437,2.62695 2.70593,5.6745 9.50402,9.83375 17.65039,10.37695 l 0,0.0625 11.66797,0 c -3.26343,-12.01103 -8.18322,-22.71167 -14.11914,-31.63671 z m 43.40235,4.67382 c 3.37776,8.50947 6.03017,17.54313 7.89062,26.96289 l 3.7832,0 c 3e-5,-0.019 0.002,-0.0376 0.002,-0.0566 2.1e-4,-10.71931 -4.47093,-20.26366 -11.67578,-26.90625 z"
       id="path4695"
       inkscape:connector-curvature="0" />
    <ellipse
       ry="45.449986"
       rx="44.389339"
       cy="367.63361"
       cx="507.23428"
       id="ellipse4697"
       style="color:#000000;clip-rule:nonzero;display:inline;overflow:visible;visibility:visible;opacity:1;isolation:auto;mix-blend-mode:normal;color-interpolation:sRGB;color-interpolation-filters:linearRGB;solid-color:#000000;solid-opacity:1;fill:url(#linearGradient4204-1);fill-opacity:1;fill-rule:nonzero;stroke:none;stroke-width:36;stroke-linecap:butt;stroke-linejoin:round;stroke-miterlimit:4;stroke-dasharray:none;stroke-dashoffset:0;stroke-opacity:1;color-rendering:auto;image-rendering:auto;shape-rendering:auto;text-rendering:auto;enable-background:accumulate" />
    <path
       style="fill:url(#linearGradient4220);fill-opacity:1;stroke:none;stroke-width:41.15159225;stroke-linecap:round;stroke-linejoin:round;stroke-opacity:1"
       d="m 372.12533,504.02151 0,0.006 c -0.0823,0.0683 -0.15724,0.14079 -0.24219,0.20703 l -4.58593,2.33008 c -5.29291,2.93921 -10.30233,6.62599 -14.97461,10.94141 -1.28765,18.46767 -10.61608,34.84623 -24.47266,45.64453 17.62885,9.50093 32.04568,24.65306 42.42774,43.42382 l 12.86523,-12.86523 a 18.0018,18.0018 0 0 1 7.4375,-4.45117 c -0.72694,-4.09359 -1.17572,-8.28047 -1.17578,-12.57227 -6.2e-4,-30.00709 18.5491,-55.9431 44.72851,-66.92383 -3.05673,-2.04928 -6.21581,-3.85874 -9.47265,-5.38281 l -52.53516,-0.35742 z m 89.79688,36.14258 c -20.38915,0.0172 -36.518,16.15445 -36.51758,36.52148 3.1e-4,20.37762 16.14638,36.51989 36.55078,36.51953 6.55533,-1.1e-4 12.66535,-1.67572 17.94727,-4.61328 -0.23691,-25.88788 -6.92571,-49.64607 -17.98047,-68.42773 z m -145.19336,58.59765 c -0.27176,3.703 -0.42578,7.4532 -0.42578,11.25391 0,10.0484 0.97846,19.78438 2.80273,29.04688 1.79675,3.7679 5.40392,6.86102 10.00586,8.67773 l 13.89648,-13.89648 c -6.59864,-15.25277 -15.94765,-27.43156 -26.27929,-35.08204 z m 76.12304,36.1504 -8.52343,8.52343 c 0.46926,1.97915 0.91079,3.97275 1.30859,5.98828 l 3.78711,0 a 18.0018,18.0018 0 0 1 1.54297,0.0781 l 17.58398,0 c -5.7915,-4.22444 -11.07039,-9.11153 -15.69922,-14.58984 z"
       id="path4701"
       inkscape:connector-curvature="0" />
    <path
       inkscape:connector-curvature="0"
       d=""
       style="color:#000000;clip-rule:nonzero;display:inline;overflow:visible;visibility:visible;opacity:1;isolation:auto;mix-blend-mode:normal;color-interpolation:sRGB;color-interpolation-filters:linearRGB;solid-color:#000000;solid-opacity:1;fill:url(#linearGradient4196);fill-opacity:1;fill-rule:nonzero;stroke:none;stroke-width:36;stroke-linecap:butt;stroke-linejoin:round;stroke-miterlimit:4;stroke-dasharray:none;stroke-dashoffset:0;stroke-opacity:1;color-rendering:auto;image-rendering:auto;shape-rendering:auto;text-rendering:auto;enable-background:accumulate"
       id="path4687"
       ry="45.449986"
       rx="45.450001"
       cy="513.11279"
       cx="289.03326" />
    <rect
       style="color:#000000;clip-rule:nonzero;display:inline;overflow:visible;visibility:visible;opacity:1;isolation:auto;mix-blend-mode:normal;color-interpolation:sRGB;color-interpolation-filters:linearRGB;solid-color:#000000;solid-opacity:1;fill:none;fill-opacity:1;fill-rule:nonzero;stroke:none;stroke-width:36;stroke-linecap:butt;stroke-linejoin:round;stroke-miterlimit:4;stroke-dasharray:none;stroke-dashoffset:0;stroke-opacity:1;color-rendering:auto;image-rendering:auto;shape-rendering:auto;text-rendering:auto;enable-background:accumulate"
       id="rect4729"
       width="400.00146"
       height="400"
       x="189.04282"
       y="322.22284" />
    <path
       style="fill:url(#linearGradient4188);fill-opacity:1;stroke:none;stroke-width:41.15159225;stroke-linecap:round;stroke-linejoin:round;stroke-opacity:1"
       d="m 263.04525,576.74221 0,0.004 c -0.0823,0.0683 -0.15724,0.14274 -0.24218,0.20898 l -4.58594,2.32813 c -29.90884,16.60872 -50.99414,56.67042 -50.99414,103.45312 0,10.0484 0.97848,19.78438 2.80273,29.04688 2.70593,5.6745 9.50402,9.83375 17.65039,10.37695 l 0,0.0625 121.07813,0 0,-0.0117 c 9.14349,-0.121 16.84418,-4.78393 19.43164,-11.17773 1.57184,-8.2066 2.47109,-16.78122 2.625,-25.60938 l -35.92578,0 a 18.0018,18.0018 0 0 1 -12.72852,-30.72851 l 34.59766,-34.59766 c -9.86141,-19.81669 -24.26416,-35.08503 -41.17383,-42.99804 l -52.53516,-0.35743 z"
       id="path2176-1"
       inkscape:connector-curvature="0" />
    <ellipse
       style="color:#000000;clip-rule:nonzero;display:inline;overflow:visible;visibility:visible;opacity:1;isolation:auto;mix-blend-mode:normal;color-interpolation:sRGB;color-interpolation-filters:linearRGB;solid-color:#000000;solid-opacity:1;fill:url(#linearGradient6494);fill-opacity:1;fill-rule:nonzero;stroke:none;stroke-width:36;stroke-linecap:butt;stroke-linejoin:round;stroke-miterlimit:4;stroke-dasharray:none;stroke-dashoffset:0;stroke-opacity:1;color-rendering:auto;image-rendering:auto;shape-rendering:auto;text-rendering:auto;enable-background:accumulate"
       id="ellipse6492"
       cx="289.03284"
       cy="513.11273"
       rx="45.449997"
       ry="45.449986" />
    <path
       inkscape:connector-curvature="0"
       id="path4341"
       d="m 398.11313,394.94353 c -25.1015,-6.5e-4 -45.45075,20.34773 -45.45117,45.44922 4.3e-4,25.10149 20.34967,45.44986 45.45117,45.44921 25.10073,-4.3e-4 45.44879,-20.34848 45.44922,-45.44921 -4.2e-4,-25.10073 -20.34848,-45.44879 -45.44922,-45.44922 z"
       style="fill:url(#linearGradient4343);fill-opacity:1;stroke:none;stroke-width:41.15159225;stroke-linecap:round;stroke-linejoin:round;stroke-opacity:1"
       sodipodi:nodetypes="scscs" />
    <path
       style="color:#000000;clip-rule:nonzero;display:inline;overflow:visible;visibility:visible;opacity:1;isolation:auto;mix-blend-mode:normal;color-interpolation:sRGB;color-interpolation-filters:linearRGB;solid-color:#000000;solid-opacity:1;fill:#99b000;fill-opacity:1;fill-rule:nonzero;stroke:none;stroke-width:13;stroke-linecap:butt;stroke-linejoin:round;stroke-miterlimit:4;stroke-dasharray:none;stroke-dashoffset:0;stroke-opacity:1;color-rendering:auto;image-rendering:auto;shape-rendering:auto;text-rendering:auto;enable-background:accumulate"
       d="m 461.95492,522.16362 a 54.549824,54.520367 0 0 0 -54.55078,54.52148 54.549824,54.520367 0 0 0 54.55078,54.51953 54.549824,54.520367 0 0 0 54.54883,-54.51953 54.549824,54.520367 0 0 0 -54.54883,-54.52148 z m 66.08985,84.25976 c -11.40134,25.07777 -36.68782,42.68109 -65.85547,42.77539 l -0.22461,0.22461 72.53906,72.541 0,-54.541 54.54102,0 -61,-61 z m -66.08008,43 -0.22461,-0.22461 c -29.17039,-0.0865 -54.46158,-17.68591 -65.86914,-42.76172 l -60.98633,60.98633 54.53906,0 0,54.541 72.54102,-72.541 z"
       id="path4345"
       inkscape:connector-curvature="0" />
  </g>
</svg>
