<?xml version="1.0" encoding="UTF-8" standalone="no"?>
<!-- Created with Inkscape (http://www.inkscape.org/) -->

<svg
   xmlns:dc="http://purl.org/dc/elements/1.1/"
   xmlns:cc="http://creativecommons.org/ns#"
   xmlns:rdf="http://www.w3.org/1999/02/22-rdf-syntax-ns#"
   xmlns:svg="http://www.w3.org/2000/svg"
   xmlns="http://www.w3.org/2000/svg"
   xmlns:xlink="http://www.w3.org/1999/xlink"
   xmlns:sodipodi="http://sodipodi.sourceforge.net/DTD/sodipodi-0.dtd"
   xmlns:inkscape="http://www.inkscape.org/namespaces/inkscape"
   width="210mm"
   height="297mm"
   viewBox="0 0 744.09448819 1052.3622047"
   id="svg2"
   version="1.1"
   inkscape:version="0.91 r13725"
   inkscape:export-xdpi="4.9475064"
   inkscape:export-ydpi="4.9475064"
   sodipodi:docname="user-group-admin.svg"
   inkscape:export-filename="C:\Users\johannes\Documents\Arbeit\RRZE\github3\bicons\22x22\categories\user-group-admin.png">
  <defs
     id="defs4">
    <linearGradient
       inkscape:collect="always"
       id="linearGradient4254">
      <stop
         style="stop-color:#7a8597;stop-opacity:1"
         offset="0"
         id="stop4256" />
      <stop
         style="stop-color:#4e505d;stop-opacity:1"
         offset="1"
         id="stop4258" />
    </linearGradient>
    <linearGradient
       id="linearGradient2224">
      <stop
         id="stop2226"
         offset="0"
         style="stop-color:#7c7c7c;stop-opacity:1;" />
      <stop
         id="stop2228"
         offset="1"
         style="stop-color:#b8b8b8;stop-opacity:1;" />
    </linearGradient>
    <linearGradient
       id="linearGradient15218">
      <stop
         id="stop15220"
         offset="0"
         style="stop-color:#eeeeef;stop-opacity:1;" />
      <stop
         id="stop2736"
         offset="0.59928656"
         style="stop-color:#d3d7cf;stop-opacity:1;" />
      <stop
         id="stop2738"
         offset="0.82758623"
         style="stop-color:#ffffff;stop-opacity:1;" />
      <stop
         id="stop15222"
         offset="1"
         style="stop-color:#d3d7cf;stop-opacity:1;" />
    </linearGradient>
    <pattern
       y="0"
       x="0"
       height="6"
       width="6"
       patternUnits="userSpaceOnUse"
       id="EMFhbasepattern" />
    <pattern
       y="0"
       x="0"
       height="6"
       width="6"
       patternUnits="userSpaceOnUse"
       id="EMFhbasepattern-5" />
    <linearGradient
       inkscape:collect="always"
       xlink:href="#linearGradient4254"
       id="linearGradient4252"
       x1="380.01031"
       y1="330.40619"
       x2="414.6156"
       y2="457.18103"
       gradientUnits="userSpaceOnUse"
       gradientTransform="translate(0.37005758,-0.39466108)" />
    <linearGradient
       inkscape:collect="always"
       xlink:href="#linearGradient4254"
       id="linearGradient4275"
       x1="380.01031"
       y1="330.40619"
       x2="414.6156"
       y2="457.18103"
       gradientUnits="userSpaceOnUse"
       gradientTransform="translate(0.37005758,-0.39466108)" />
    <linearGradient
       inkscape:collect="always"
       xlink:href="#linearGradient4254"
       id="linearGradient4320"
       x1="380.01031"
       y1="330.40619"
       x2="414.6156"
       y2="457.18103"
       gradientUnits="userSpaceOnUse"
       gradientTransform="translate(0.37005758,-0.39466108)" />
    <linearGradient
       inkscape:collect="always"
       xlink:href="#linearGradient4254"
       id="linearGradient4442"
       gradientUnits="userSpaceOnUse"
       gradientTransform="translate(0.37005758,-0.39466108)"
       x1="380.01031"
       y1="330.40619"
       x2="414.6156"
       y2="457.18103" />
    <linearGradient
       inkscape:collect="always"
       xlink:href="#linearGradient4254"
       id="linearGradient4445"
       x1="380.01031"
       y1="330.40619"
       x2="414.6156"
       y2="457.18103"
       gradientUnits="userSpaceOnUse"
       gradientTransform="translate(0.37005758,-0.39466108)" />
    <linearGradient
       inkscape:collect="always"
       xlink:href="#linearGradient4254"
       id="linearGradient4526"
       gradientUnits="userSpaceOnUse"
       gradientTransform="translate(0.37005758,-0.39466108)"
       x1="380.01031"
       y1="330.40619"
       x2="414.6156"
       y2="457.18103" />
    <linearGradient
       inkscape:collect="always"
       xlink:href="#linearGradient4254"
       id="linearGradient4529"
       gradientUnits="userSpaceOnUse"
       gradientTransform="translate(0.37005758,-0.39466108)"
       x1="380.01031"
       y1="330.40619"
       x2="414.6156"
       y2="457.18103" />
    <pattern
       y="0"
       x="0"
       height="6"
       width="6"
       patternUnits="userSpaceOnUse"
       id="EMFhbasepattern-3" />
    <linearGradient
       inkscape:collect="always"
       xlink:href="#linearGradient4254"
       id="linearGradient4208"
       x1="421.02332"
       y1="494.74225"
       x2="489.89441"
       y2="601.74225"
       gradientUnits="userSpaceOnUse" />
    <linearGradient
       inkscape:collect="always"
       xlink:href="#linearGradient4254"
       id="linearGradient4216"
       x1="342.38281"
       y1="377.0166"
       x2="398.20117"
       y2="511.0166"
       gradientUnits="userSpaceOnUse" />
  </defs>
  <sodipodi:namedview
     id="base"
     pagecolor="#ffffff"
     bordercolor="#666666"
     borderopacity="1.0"
     inkscape:pageopacity="0.0"
     inkscape:pageshadow="2"
     inkscape:zoom="0.5"
     inkscape:cx="111.8524"
     inkscape:cy="360.35712"
     inkscape:document-units="px"
     inkscape:current-layer="layer1"
     showgrid="false"
     showguides="true"
     inkscape:guide-bbox="true"
     inkscape:window-width="1366"
     inkscape:window-height="721"
     inkscape:window-x="-4"
     inkscape:window-y="-4"
     inkscape:window-maximized="1"
     inkscape:snap-bbox="true"
     inkscape:bbox-paths="true"
     inkscape:bbox-nodes="true"
     inkscape:snap-nodes="false">
    <sodipodi:guide
       position="315.53572,730.17859"
       orientation="0,1"
       id="guide3338" />
    <sodipodi:guide
       position="351.25,330.17858"
       orientation="0,1"
       id="guide3340" />
    <sodipodi:guide
       position="189.10714,408.8393"
       orientation="1,0"
       id="guide3344" />
    <sodipodi:guide
       position="589.04521,468.07945"
       orientation="1,0"
       id="guide3346" />
    <inkscape:grid
       type="xygrid"
       id="grid3440" />
    <sodipodi:guide
       position="589.04521,378.30213"
       orientation="1,0"
       id="guide3411" />
  </sodipodi:namedview>
  <metadata
     id="metadata7">
    <rdf:RDF>
      <cc:Work
         rdf:about="">
        <dc:format>image/svg+xml</dc:format>
        <dc:type
           rdf:resource="http://purl.org/dc/dcmitype/StillImage" />
        <dc:title>user group admin</dc:title>
        <dc:date>June 2015</dc:date>
        <dc:creator>
          <cc:Agent>
            <dc:title>Johannes Hechler</dc:title>
          </cc:Agent>
        </dc:creator>
        <dc:rights>
          <cc:Agent>
            <dc:title>Johannes Hechler</dc:title>
          </cc:Agent>
        </dc:rights>
        <dc:publisher>
          <cc:Agent>
            <dc:title>RRZE</dc:title>
          </cc:Agent>
        </dc:publisher>
        <dc:contributor>
          <cc:Agent>
            <dc:title>Ute Weber, Hendrik Eggers</dc:title>
          </cc:Agent>
        </dc:contributor>
      </cc:Work>
    </rdf:RDF>
  </metadata>
  <g
     inkscape:label="Ebene 1"
     inkscape:groupmode="layer"
     id="layer1">
    <rect
       style="fill:none;fill-rule:evenodd;stroke:none;stroke-width:1px;stroke-linecap:butt;stroke-linejoin:miter;stroke-opacity:1"
       id="rect3336-0"
       width="400"
       height="400"
       x="189.04521"
       y="322.7048"
       inkscape:export-xdpi="4.9499998"
       inkscape:export-ydpi="4.9499998" />
    <flowRoot
       transform="translate(-0.30122,-0.04731)"
       xml:space="preserve"
       id="flowRoot4169"
       style="font-style:normal;font-weight:normal;font-size:40px;line-height:125%;font-family:sans-serif;letter-spacing:0px;word-spacing:0px;fill:#252525;fill-opacity:1;stroke:none;stroke-width:1px;stroke-linecap:butt;stroke-linejoin:miter;stroke-opacity:1"><flowRegion
         id="flowRegion4171"><rect
           id="rect4173"
           width="56.433445"
           height="88.78862"
           x="89.541069"
           y="427.07962" /></flowRegion><flowPara
         id="flowPara4175" /></flowRoot>    <rect
       style="fill:none;fill-rule:evenodd;stroke:none;stroke-width:1px;stroke-linecap:butt;stroke-linejoin:miter;stroke-opacity:1"
       id="rect3336"
       width="400"
       height="400"
       x="188.84364"
       y="322.22269"
       inkscape:export-xdpi="4.9499998"
       inkscape:export-ydpi="4.9499998" />
    <rect
       style="fill:none;fill-rule:evenodd;stroke:none;stroke-width:1px;stroke-linecap:butt;stroke-linejoin:miter;stroke-opacity:1"
       id="rect3336-9"
       width="400"
       height="400"
       x="188.84364"
       y="322.60178"
       inkscape:export-xdpi="4.9499998"
       inkscape:export-ydpi="4.9499998" />
    <flowRoot
       transform="translate(552.40856,-487.98419)"
       xml:space="preserve"
       id="flowRoot4169-0"
       style="font-style:normal;font-weight:normal;font-size:40px;line-height:125%;font-family:sans-serif;letter-spacing:0px;word-spacing:0px;fill:#252525;fill-opacity:1;stroke:none;stroke-width:1px;stroke-linecap:butt;stroke-linejoin:miter;stroke-opacity:1"><flowRegion
         id="flowRegion4171-0"><rect
           id="rect4173-7"
           width="56.433445"
           height="88.78862"
           x="89.541069"
           y="427.07962" /></flowRegion><flowPara
         id="flowPara4175-0" /></flowRoot>    <flowRoot
       transform="translate(1113.6152,-429.96061)"
       xml:space="preserve"
       id="flowRoot4169-9"
       style="font-style:normal;font-weight:normal;font-size:40px;line-height:125%;font-family:sans-serif;letter-spacing:0px;word-spacing:0px;fill:#252525;fill-opacity:1;stroke:none;stroke-width:1px;stroke-linecap:butt;stroke-linejoin:miter;stroke-opacity:1"><flowRegion
         id="flowRegion4171-9"><rect
           id="rect4173-6"
           width="56.433445"
           height="88.78862"
           x="89.541069"
           y="427.07962" /></flowRegion><flowPara
         id="flowPara4175-7" /></flowRoot>    <path
       style="fill:url(#linearGradient4216);fill-opacity:1;stroke:none;stroke-width:41.15159225;stroke-linecap:round;stroke-linejoin:round;stroke-opacity:1"
       d="M 507.03516 322.18359 A 45.450001 45.449986 0 0 0 461.58594 367.63281 A 45.450001 45.449986 0 0 0 507.03516 413.08398 A 45.450001 45.449986 0 0 0 552.48438 367.63281 A 45.450001 45.449986 0 0 0 507.03516 322.18359 z M 397.91406 394.94336 A 45.450001 45.449986 0 0 0 352.46289 440.39258 A 45.450001 45.449986 0 0 0 397.91406 485.8418 A 45.450001 45.449986 0 0 0 443.36328 440.39258 A 45.450001 45.449986 0 0 0 397.91406 394.94336 z M 288.83398 467.66211 A 45.450001 45.449986 0 0 0 243.38281 513.11328 A 45.450001 45.449986 0 0 0 288.83398 558.5625 A 45.450001 45.449986 0 0 0 334.2832 513.11328 A 45.450001 45.449986 0 0 0 288.83398 467.66211 z M 461.54297 504.20117 A 18.0018 18.0018 0 0 1 463.33398 504.29102 C 462.74142 504.2318 462.14373 504.20116 461.54297 504.20117 z M 570.61133 504.20117 C 570.306 504.20134 570.00227 504.23049 569.69727 504.24609 A 18.0018 18.0018 0 0 1 570.75391 504.20703 C 570.70635 504.20668 570.65888 504.20115 570.61133 504.20117 z M 571.51758 504.24414 A 18.0018 18.0018 0 0 1 572.51953 504.31055 C 572.18626 504.2754 571.85201 504.26072 571.51758 504.24414 z M 568.99805 504.2793 C 568.60811 504.31442 568.2214 504.37703 567.83398 504.4375 A 18.0018 18.0018 0 0 1 568.99805 504.2793 z M 463.72461 504.34961 A 18.0018 18.0018 0 0 1 465.09375 504.55664 C 464.64206 504.46574 464.18396 504.40575 463.72461 504.34961 z M 573.25195 504.41406 A 18.0018 18.0018 0 0 1 574.2832 504.58594 C 573.94134 504.51524 573.59666 504.46473 573.25195 504.41406 z M 567.25586 504.52148 C 566.68439 504.62976 566.11747 504.76576 565.55664 504.92969 A 18.0018 18.0018 0 0 1 567.25586 504.52148 z M 565.55664 504.92969 C 563.85034 505.42842 562.20409 506.18342 560.67773 507.19727 A 18.0018 18.0018 0 0 1 565.55664 504.92969 z M 560.67773 507.19727 C 560.18388 507.5253 559.70091 507.87976 559.23438 508.26172 A 18.0018 18.0018 0 0 1 560.67773 507.19727 z M 465.63867 504.69336 A 18.0018 18.0018 0 0 1 466.83008 504.99805 C 466.43852 504.87769 466.03837 504.78689 465.63867 504.69336 z M 574.94531 504.74805 A 18.0018 18.0018 0 0 1 576.01172 505.03711 C 575.65891 504.92668 575.30303 504.83625 574.94531 504.74805 z M 467.31055 505.16992 A 18.0018 18.0018 0 0 1 468.50977 505.60742 C 468.11747 505.44274 467.71373 505.30647 467.31055 505.16992 z M 576.61719 505.24805 A 18.0018 18.0018 0 0 1 577.70117 505.66211 C 577.34384 505.50932 576.98177 505.37664 576.61719 505.24805 z M 469.10352 505.88867 A 18.0018 18.0018 0 0 1 470.08594 506.36133 C 469.76575 506.1887 469.43323 506.04145 469.10352 505.88867 z M 578.24805 505.91602 A 18.0018 18.0018 0 0 1 579.29102 506.4375 C 578.9488 506.24916 578.5993 506.08041 578.24805 505.91602 z M 579.875 506.7832 A 18.0018 18.0018 0 0 1 580.79297 507.36328 C 580.49271 507.15706 580.1845 506.96917 579.875 506.7832 z M 470.79688 506.78711 A 18.0018 18.0018 0 0 1 471.62305 507.29492 C 471.3544 507.11328 471.0743 506.95361 470.79688 506.78711 z M 472.27539 507.77734 A 18.0018 18.0018 0 0 1 473.03711 508.35547 C 472.79102 508.15121 472.53107 507.96753 472.27539 507.77734 z M 581.42383 507.82617 A 18.0018 18.0018 0 0 1 582.20117 508.43555 C 581.94749 508.22178 581.68619 508.0237 581.42383 507.82617 z M 431.85352 508.42383 C 431.55223 508.67695 431.26461 508.94252 430.98242 509.21289 A 18.0018 18.0018 0 0 1 431.85352 508.42383 z M 430.80664 509.38477 C 430.41573 509.7697 430.04121 510.16803 429.68945 510.58398 A 18.0018 18.0018 0 0 1 430.80664 509.38477 z M 429.62305 510.66602 C 429.25836 511.10244 428.91208 511.55288 428.5918 512.01953 A 18.0018 18.0018 0 0 1 429.62305 510.66602 z M 428.57422 512.04688 C 428.26225 512.50316 427.97509 512.97525 427.70703 513.45703 A 18.0018 18.0018 0 0 1 428.57422 512.04688 z M 427.60742 513.63281 C 427.35556 514.09766 427.12791 514.57356 426.91797 515.05859 A 18.0018 18.0018 0 0 1 427.60742 513.63281 z M 426.81836 515.28711 C 426.61791 515.76834 426.4414 516.25819 426.2832 516.75586 A 18.0018 18.0018 0 0 1 426.81836 515.28711 z M 426.20312 517.01172 C 426.05345 517.50808 425.92496 518.01208 425.81836 518.52148 A 18.0018 18.0018 0 0 1 426.20312 517.01172 z M 425.76953 518.77148 C 425.66865 519.29012 425.58631 519.81296 425.53125 520.3418 A 18.0018 18.0018 0 0 1 425.76953 518.77148 z M 425.51562 520.53906 C 425.46436 521.09008 425.43175 521.64453 425.43164 522.20312 A 18.0018 18.0018 0 0 1 425.51562 520.53906 z M 425.51367 542.02148 C 425.54323 542.34461 425.5958 542.66254 425.64258 542.98242 A 18.0018 18.0018 0 0 1 425.51367 542.02148 z M 425.75977 543.77539 C 425.82228 544.10092 425.91004 544.41939 425.99023 544.74023 A 18.0018 18.0018 0 0 1 425.75977 543.77539 z M 426.18359 545.51172 C 426.27658 545.82435 426.39224 546.12872 426.50195 546.43555 A 18.0018 18.0018 0 0 1 426.18359 545.51172 z M 510.63281 545.83203 A 18.0018 18.0018 0 0 1 511.73242 547.04883 C 511.38334 546.62885 511.02029 546.22009 510.63281 545.83203 z M 426.76953 547.18555 C 426.89168 547.48472 427.03962 547.7722 427.17773 548.06445 A 18.0018 18.0018 0 0 1 426.76953 547.18555 z M 511.89062 547.23633 A 18.0018 18.0018 0 0 1 512.82031 548.5 C 512.52832 548.06642 512.21981 547.64353 511.89062 547.23633 z M 512.97656 548.73633 A 18.0018 18.0018 0 0 1 513.77734 550.08789 C 513.53087 549.62537 513.26228 549.17537 512.97656 548.73633 z M 427.52539 548.80273 C 427.70825 549.14821 427.91765 549.47901 428.12305 549.8125 A 18.0018 18.0018 0 0 1 427.52539 548.80273 z M 513.88672 550.30078 A 18.0018 18.0018 0 0 1 514.57422 551.78711 C 514.36865 551.2803 514.13677 550.78542 513.88672 550.30078 z M 428.42188 550.31445 C 428.70549 550.74308 429.01501 551.15582 429.33594 551.56055 A 18.0018 18.0018 0 0 1 428.42188 550.31445 z M 429.47852 551.75391 C 429.85483 552.21564 430.25561 552.66022 430.67969 553.08594 A 18.0018 18.0018 0 0 1 429.47852 551.75391 z M 407.00391 558.74219 A 18.0018 18.0018 0 0 1 408.79492 558.83203 C 408.20236 558.77282 407.60466 558.74217 407.00391 558.74219 z M 387.27344 558.82031 C 386.95138 558.84789 386.63535 558.89319 386.31836 558.9375 A 18.0018 18.0018 0 0 1 387.27344 558.82031 z M 409.18555 558.89062 A 18.0018 18.0018 0 0 1 410.55469 559.09766 C 410.103 559.00675 409.6449 558.94677 409.18555 558.89062 z M 385.53516 559.05664 C 385.17258 559.12373 384.81749 559.20841 384.46289 559.29688 A 18.0018 18.0018 0 0 1 385.53516 559.05664 z M 411.09961 559.23438 A 18.0018 18.0018 0 0 1 412.29102 559.53906 C 411.89946 559.41871 411.49931 559.32791 411.09961 559.23438 z M 383.80664 559.4668 C 383.44972 559.57035 383.10131 559.69172 382.75391 559.81641 A 18.0018 18.0018 0 0 1 383.80664 559.4668 z M 412.77148 559.71094 A 18.0018 18.0018 0 0 1 413.9707 560.14844 C 413.57841 559.98376 413.17466 559.84749 412.77148 559.71094 z M 382.11523 560.04883 C 381.77574 560.18544 381.44607 560.33976 381.11719 560.49609 A 18.0018 18.0018 0 0 1 382.11523 560.04883 z M 414.56445 560.42969 A 18.0018 18.0018 0 0 1 415.54688 560.90234 C 415.22669 560.72971 414.89416 560.58246 414.56445 560.42969 z M 380.49414 560.79492 C 380.16052 560.96956 379.83848 561.16093 379.51758 561.35547 A 18.0018 18.0018 0 0 1 380.49414 560.79492 z M 416.25781 561.32812 A 18.0018 18.0018 0 0 1 417.08398 561.83594 C 416.81533 561.65429 416.53524 561.49463 416.25781 561.32812 z M 378.97852 561.68359 C 378.66702 561.88767 378.36993 562.10956 378.07227 562.33203 A 18.0018 18.0018 0 0 1 378.97852 561.68359 z M 417.73633 562.31836 A 18.0018 18.0018 0 0 1 418.49805 562.89648 C 418.25196 562.69222 417.99201 562.50855 417.73633 562.31836 z M 377.52148 562.74414 C 377.26023 562.95536 377.01453 563.18296 376.76562 563.4082 A 18.0018 18.0018 0 0 1 377.52148 562.74414 z M 376.19336 563.92773 C 375.94876 564.16885 375.72273 564.42695 375.49219 564.68164 A 18.0018 18.0018 0 0 1 376.19336 563.92773 z M 375.00586 565.21484 C 374.75358 565.51694 374.52339 565.83784 374.29102 566.15625 A 18.0018 18.0018 0 0 1 375.00586 565.21484 z M 373.94336 566.61914 C 373.61495 567.10087 373.31061 567.59762 373.0293 568.11133 A 18.0018 18.0018 0 0 1 373.94336 566.61914 z M 373.0293 568.11133 C 371.90084 570.17206 371.16163 572.47726 370.91602 574.92773 A 18.0018 18.0018 0 0 1 373.0293 568.11133 z M 370.90625 596.58789 C 370.93415 596.88816 370.98652 597.18301 371.0293 597.48047 A 18.0018 18.0018 0 0 1 370.90625 596.58789 z M 479.25195 598.13086 A 18.0018 18.0018 0 0 1 478.88281 599.70898 C 479.02602 599.19081 479.15467 598.66626 479.25195 598.13086 z M 371.1582 598.34766 C 371.22301 598.68185 371.31304 599.00868 371.39648 599.33789 A 18.0018 18.0018 0 0 1 371.1582 598.34766 z M 371.57617 600.05664 C 371.68939 600.43689 371.82888 600.80814 371.9668 601.17969 A 18.0018 18.0018 0 0 1 371.57617 600.05664 z M 478.77344 600.08594 A 18.0018 18.0018 0 0 1 478.31836 601.41406 C 478.48701 600.97882 478.63825 600.53655 478.77344 600.08594 z M 478.23438 601.64062 A 18.0018 18.0018 0 0 1 477.57227 603.08594 C 477.81233 602.61518 478.03558 602.1339 478.23438 601.64062 z M 372.16602 601.73242 C 372.31707 602.10194 372.49457 602.45954 372.66992 602.81836 A 18.0018 18.0018 0 0 1 372.16602 601.73242 z M 372.92188 603.35352 C 373.10534 603.69961 373.3154 604.0312 373.52148 604.36523 A 18.0018 18.0018 0 0 1 372.92188 603.35352 z M 477.39453 603.41602 A 18.0018 18.0018 0 0 1 476.69727 604.60742 C 476.94496 604.22032 477.17649 603.82239 477.39453 603.41602 z M 476.54883 604.84375 A 18.0018 18.0018 0 0 1 475.61523 606.12695 C 475.94465 605.71353 476.25648 605.28543 476.54883 604.84375 z M 373.83594 604.88672 C 374.04833 605.20622 374.28629 605.51007 374.51953 605.81641 A 18.0018 18.0018 0 0 1 373.83594 604.88672 z M 475.36523 606.42578 A 18.0018 18.0018 0 0 1 474.5332 607.35547 C 474.82111 607.05479 475.09883 606.74567 475.36523 606.42578 z M 474.23047 607.67188 A 18.0018 18.0018 0 0 1 473.0957 608.70898 C 473.48931 608.37919 473.86712 608.03335 474.23047 607.67188 z M 472.80664 608.93945 A 18.0018 18.0018 0 0 1 471.77539 609.70898 C 472.12909 609.46425 472.47245 609.20798 472.80664 608.93945 z M 471.43164 609.94531 A 18.0018 18.0018 0 0 1 470.07617 610.75781 C 470.54174 610.50704 470.9927 610.23419 471.43164 609.94531 z M 469.87305 610.86133 A 18.0018 18.0018 0 0 1 468.59375 611.46484 C 469.02948 611.27923 469.45655 611.07892 469.87305 610.86133 z M 468.22266 611.61914 A 18.0018 18.0018 0 0 1 466.7793 612.13086 C 467.27096 611.98126 467.75085 611.80777 468.22266 611.61914 z M 467.23242 612.14844 A 18.0018 18.0018 0 0 1 468.98047 612.19141 C 468.40077 612.14943 467.81817 612.13384 467.23242 612.14844 z M 469.56836 612.26172 A 18.0018 18.0018 0 0 1 470.69922 612.40234 C 470.32537 612.33872 469.94673 612.30169 469.56836 612.26172 z M 471.4043 612.55273 A 18.0018 18.0018 0 0 1 472.4082 612.7832 C 472.07714 612.69305 471.74048 612.62392 471.4043 612.55273 z M 473.08203 612.99219 A 18.0018 18.0018 0 0 1 474.06836 613.32422 C 473.74374 613.20095 473.4133 613.0965 473.08203 612.99219 z M 474.74414 613.60547 A 18.0018 18.0018 0 0 1 475.65234 614.01758 C 475.35373 613.86998 475.05014 613.73615 474.74414 613.60547 z M 476.33203 614.37695 A 18.0018 18.0018 0 0 1 477.17578 614.86719 C 476.89892 614.69514 476.61714 614.53336 476.33203 614.37695 z M 477.83594 615.30078 A 18.0018 18.0018 0 0 1 478.59766 615.84961 C 478.34816 615.65909 478.0941 615.47737 477.83594 615.30078 z "
       id="path4695" />
    <rect
       style="color:#000000;clip-rule:nonzero;display:inline;overflow:visible;visibility:visible;opacity:1;isolation:auto;mix-blend-mode:normal;color-interpolation:sRGB;color-interpolation-filters:linearRGB;solid-color:#000000;solid-opacity:1;fill:none;fill-opacity:1;fill-rule:nonzero;stroke:none;stroke-width:36;stroke-linecap:butt;stroke-linejoin:round;stroke-miterlimit:4;stroke-dasharray:none;stroke-dashoffset:0;stroke-opacity:1;color-rendering:auto;image-rendering:auto;shape-rendering:auto;text-rendering:auto;enable-background:accumulate"
       id="rect4729"
       width="400.00146"
       height="400"
       x="188.84364"
       y="322.22269" />
    <path
       style="opacity:1;fill:#99b000;fill-opacity:1;stroke:none;stroke-width:2;stroke-linecap:butt;stroke-linejoin:round;stroke-miterlimit:4;stroke-dasharray:none;stroke-opacity:1"
       d="m 443.43104,522.20299 0,18.17969 18.11133,18.17968 0,36.35938 -36.35938,0 -18.17968,-18.17969 -18.17969,0 0,18.17969 36.35937,36.36133 42.53125,-1.14063 89.19922,87.83981 c 6.70188,6.7308 19.28694,4.9272 25.9336,-1.748 6.64676,-6.6754 8.51937,-19.392 1.75195,-26.0567 l -85.53125,-84.23237 -1.16406,-47.38282 -36.36133,-36.35937 -18.11133,0 z m 127.19141,0 -36.35938,36.35937 -17.89648,18.58008 0.51758,21.08399 8.20703,8.08203 27.35156,-29.56641 36.40234,-36.35937 -18.22265,-18.17969 z m -110.08203,126.13867 -34.875,0.93555 a 18.0018,18.0018 0 0 1 -0.54493,-0.008 l -29.77734,29.78124 c -8.6933,8.6945 -8.69336,22.694 0,31.3887 l 5.26172,5.2617 c 8.69329,8.6946 22.69146,8.6946 31.38476,0 l 48.10157,-48.10743 -19.55078,-19.25195 z"
       id="rect4172"
       inkscape:connector-curvature="0" />
    <path
       id="path4197"
       d="m 481.04675,431.26175 0,0.006 c -0.0823,0.0683 -0.15723,0.14275 -0.24218,0.20899 l -4.58594,2.32812 c -5.30827,2.94774 -10.33178,6.64683 -15.01562,10.97852 -1.29366,18.49828 -10.67978,34.87418 -24.58008,45.67187 6.95799,3.74213 13.41043,8.37235 19.32031,13.7461 l 5.59961,0 c 4.77398,-1.2e-4 9.3525,1.89607 12.72851,5.27148 l 36.36133,36.35938 c 1.93118,1.93408 3.3966,4.2825 4.28516,6.86718 l 6.38086,-6.625 c 0.078,-0.0815 0.1568,-0.1622 0.23633,-0.24218 l 36.35937,-36.35952 c 7.02441,-7.02261 18.40944,-7.02874 25.44141,-0.0137 l 3.55859,3.55078 c -6.1857,-38.1096 -26.62847,-68.90362 -53.3125,-81.39063 l -52.53516,-0.35742 z m -109.12109,72.75977 0,0.006 c -0.0823,0.0683 -0.15724,0.14079 -0.24219,0.20703 l -4.58593,2.33008 c -5.29291,2.93921 -10.30233,6.62598 -14.97461,10.9414 -1.28764,18.46767 -10.61608,34.84623 -24.47266,45.64453 29.68224,15.99702 50.25576,48.01499 57.80274,86.35157 l 13.98242,0 9.2539,-9.25586 -32.59375,-32.59571 c -3.37541,-3.37601 -5.2716,-7.95453 -5.27148,-12.72851 l 0,-18.17969 c 9.9e-4,-9.94071 8.05929,-17.99901 18,-18 l 18.17969,0 c 4.77398,-1.1e-4 9.3525,1.89607 12.72851,5.27149 l 12.90625,12.9082 10.9043,0 0,-10.92383 -12.86328,-12.91211 c -3.36061,-3.37361 -5.24766,-7.9413 -5.24805,-12.70312 l 0,-18.17969 c 0.001,-5.316 2.35172,-10.35971 6.42188,-13.7793 -2.40651,-1.49983 -4.86779,-2.86342 -7.39258,-4.04492 l -52.53516,-0.35742 z m -109.08007,72.7207 0,0.004 c -0.0823,0.0683 -0.15724,0.14274 -0.24219,0.20898 l -4.58594,2.32813 c -29.90885,16.60872 -50.99414,56.67033 -50.99414,103.45312 0,10.0484 0.97847,19.78438 2.80274,29.04688 2.70592,5.6745 9.50402,9.83375 17.65039,10.37695 l 0,0.0625 121.07812,0 0,-0.0117 c 9.14349,-0.1211 16.84418,-4.78393 19.43164,-11.17773 1.73135,-9.0394 2.6582,-18.52274 2.6582,-28.30274 0,-48.97688 -23.11304,-90.58572 -55.26367,-105.63086 z m 216.40624,21.38867 c -1.21218,6.67147 -6.07032,12.09584 -12.56836,14.03321 l 0.54883,-0.0156 c 4.53249,-0.11298 8.94069,1.48849 12.34375,4.48438 0.0944,-2.19192 0.14844,-4.39871 0.14844,-6.62305 0,-4.01478 -0.16979,-7.97372 -0.47266,-11.87891 z m -46.97265,14.79102 0.16015,0.16016 5.96875,-0.16016 z"
       style="fill:url(#linearGradient4208);fill-opacity:1;stroke:none;stroke-width:41.15159225;stroke-linecap:round;stroke-linejoin:round;stroke-opacity:1"
       inkscape:connector-curvature="0"
       sodipodi:nodetypes="ccccccccccccccccccccccccccccccccccccccccccccccccsccccccsccccccscccccc" />
  </g>
</svg>
