<?xml version="1.0" encoding="UTF-8" standalone="no"?>
<!-- Created with Inkscape (http://www.inkscape.org/) -->

<svg
   xmlns:dc="http://purl.org/dc/elements/1.1/"
   xmlns:cc="http://creativecommons.org/ns#"
   xmlns:rdf="http://www.w3.org/1999/02/22-rdf-syntax-ns#"
   xmlns:svg="http://www.w3.org/2000/svg"
   xmlns="http://www.w3.org/2000/svg"
   xmlns:xlink="http://www.w3.org/1999/xlink"
   xmlns:sodipodi="http://sodipodi.sourceforge.net/DTD/sodipodi-0.dtd"
   xmlns:inkscape="http://www.inkscape.org/namespaces/inkscape"
   width="210mm"
   height="297mm"
   viewBox="0 0 744.09448819 1052.3622047"
   id="svg2"
   version="1.1"
   inkscape:version="0.91 r13725"
   inkscape:export-xdpi="4.9492698"
   inkscape:export-ydpi="4.9492698"
   sodipodi:docname="user-master.svg"
   inkscape:export-filename="C:\Users\johannes\Documents\Arbeit\RRZE\github3\bicons\22x22\categories\user-master.png">
  <defs
     id="defs4">
    <linearGradient
       id="linearGradient15218">
      <stop
         style="stop-color:#eeeeef;stop-opacity:1;"
         offset="0"
         id="stop4207" />
      <stop
         style="stop-color:#d3d7cf;stop-opacity:1;"
         offset="0.59928656"
         id="stop4209" />
      <stop
         style="stop-color:#ffffff;stop-opacity:1;"
         offset="0.82758623"
         id="stop4211" />
      <stop
         style="stop-color:#d3d7cf;stop-opacity:1;"
         offset="1"
         id="stop4213" />
    </linearGradient>
    <linearGradient
       id="linearGradient2224">
      <stop
         id="stop2226"
         offset="0"
         style="stop-color:#7c7c7c;stop-opacity:1;" />
      <stop
         id="stop2228"
         offset="1"
         style="stop-color:#b8b8b8;stop-opacity:1;" />
    </linearGradient>
    <linearGradient
       id="linearGradient4215">
      <stop
         id="stop15220"
         offset="0"
         style="stop-color:#eeeeef;stop-opacity:1;" />
      <stop
         id="stop2736"
         offset="0.59928656"
         style="stop-color:#d3d7cf;stop-opacity:1;" />
      <stop
         id="stop2738"
         offset="0.82758623"
         style="stop-color:#ffffff;stop-opacity:1;" />
      <stop
         id="stop15222"
         offset="1"
         style="stop-color:#d3d7cf;stop-opacity:1;" />
    </linearGradient>
    <pattern
       y="0"
       x="0"
       height="6"
       width="6"
       patternUnits="userSpaceOnUse"
       id="EMFhbasepattern" />
    <pattern
       y="0"
       x="0"
       height="6"
       width="6"
       patternUnits="userSpaceOnUse"
       id="EMFhbasepattern-5" />
    <linearGradient
       inkscape:collect="always"
       xlink:href="#linearGradient4254"
       id="linearGradient4268"
       x1="471.69119"
       y1="457.14825"
       x2="375.74777"
       y2="664.98523"
       gradientUnits="userSpaceOnUse"
       gradientTransform="matrix(1.1386133,0,0,1.1359509,205.3233,206.68367)" />
    <linearGradient
       inkscape:collect="always"
       id="linearGradient4254">
      <stop
         style="stop-color:#7a8597;stop-opacity:1"
         offset="0"
         id="stop4256" />
      <stop
         style="stop-color:#4e505d;stop-opacity:1"
         offset="1"
         id="stop4258" />
    </linearGradient>
    <linearGradient
       inkscape:collect="always"
       xlink:href="#linearGradient4254"
       id="linearGradient4260"
       x1="425.62207"
       y1="330.38269"
       x2="376.55045"
       y2="461.45456"
       gradientUnits="userSpaceOnUse"
       gradientTransform="matrix(1.1116851,0,0,1.1090857,214.54919,214.189)" />
  </defs>
  <sodipodi:namedview
     id="base"
     pagecolor="#ffffff"
     bordercolor="#666666"
     borderopacity="1.0"
     inkscape:pageopacity="0.0"
     inkscape:pageshadow="2"
     inkscape:zoom="1"
     inkscape:cx="268.42875"
     inkscape:cy="500.35656"
     inkscape:document-units="px"
     inkscape:current-layer="layer1"
     showgrid="false"
     showguides="true"
     inkscape:guide-bbox="true"
     inkscape:window-width="1366"
     inkscape:window-height="721"
     inkscape:window-x="-4"
     inkscape:window-y="-4"
     inkscape:window-maximized="1"
     inkscape:snap-bbox="true"
     inkscape:bbox-paths="true"
     inkscape:bbox-nodes="true">
    <sodipodi:guide
       position="315.53572,730.17859"
       orientation="0,1"
       id="guide3338" />
    <sodipodi:guide
       position="351.25,330.17858"
       orientation="0,1"
       id="guide3340" />
    <sodipodi:guide
       position="189.10714,408.8393"
       orientation="1,0"
       id="guide3344" />
    <sodipodi:guide
       position="589.04521,468.07945"
       orientation="1,0"
       id="guide3346" />
    <inkscape:grid
       type="xygrid"
       id="grid3440" />
    <sodipodi:guide
       position="589.04521,378.30213"
       orientation="1,0"
       id="guide3411" />
  </sodipodi:namedview>
  <metadata
     id="metadata7">
    <rdf:RDF>
      <cc:Work
         rdf:about="">
        <dc:format>image/svg+xml</dc:format>
        <dc:type
           rdf:resource="http://purl.org/dc/dcmitype/StillImage" />
        <dc:title />
        <dc:date>June 2015</dc:date>
        <dc:creator>
          <cc:Agent>
            <dc:title>Johannes Hechler</dc:title>
          </cc:Agent>
        </dc:creator>
        <dc:rights>
          <cc:Agent>
            <dc:title>Johannes Hechler</dc:title>
          </cc:Agent>
        </dc:rights>
        <dc:publisher>
          <cc:Agent>
            <dc:title>RRZE</dc:title>
          </cc:Agent>
        </dc:publisher>
        <dc:contributor>
          <cc:Agent>
            <dc:title>Ute Weber, Hendrik Eggers</dc:title>
          </cc:Agent>
        </dc:contributor>
      </cc:Work>
    </rdf:RDF>
  </metadata>
  <g
     inkscape:label="Ebene 1"
     inkscape:groupmode="layer"
     id="layer1">
    <g
       id="g4201"
       transform="translate(-261.86335,-259.04576)">
      <rect
         inkscape:export-filename="C:\Users\johannes\Desktop\rect3336.png"
         inkscape:export-ydpi="4.9492698"
         inkscape:export-xdpi="4.9492698"
         y="581.57623"
         x="450.97049"
         height="399.0647"
         width="400"
         id="rect3336"
         style="fill:none;fill-rule:evenodd;stroke:none;stroke-width:1px;stroke-linecap:butt;stroke-linejoin:miter;stroke-opacity:1" />
      <path
         sodipodi:nodetypes="cscccccccccccccccccccccccccccc"
         inkscape:connector-curvature="0"
         id="path2176"
         d="m 597.28001,744.05556 c -48.59118,28.71764 -78.84766,88.00955 -78.84766,168.90039 0,17.37443 1.58896,34.20911 4.55274,50.22461 4.39616,9.8116 15.4428,17.00211 28.67774,17.94141 l 0,0.10937 57.05468,0 c -0.0859,0.0857 -0.17209,0.18473 -0.25781,0.26367 l 61.05859,0 c -0.004,-0.0827 -0.007,-0.16534 -0.01,-0.24804 l 0,-180.13672 c 0.002,-10.94905 7.31843,-19.82404 16.34375,-19.82422 l 37.875,0 10.85742,0 12.37891,0 c -11.4427,-15.29156 -25.17942,-27.71948 -40.82617,-36.9668 l -6.50782,0.0293 -48.78711,-0.0508 z m 104.91407,76.88281 0,140.48438 3.61523,0 0,-111.92969 c 0.029,-11.68123 8.33383,-20.80076 17.91797,-19.67578 l 0,-8.87891 z m 71.33789,95.38282 c -3.2575,1.30295 -6.77034,1.3296 -10.04102,0.0762 l 3.66211,10.39648 2.69141,0 z"
         style="fill:url(#linearGradient4268);fill-opacity:1;stroke:none;stroke-width:41.15159225;stroke-linecap:round;stroke-linejoin:round;stroke-opacity:1" />
      <path
         inkscape:export-ydpi="4.9492698"
         inkscape:export-xdpi="4.9492698"
         inkscape:export-filename="C:\Users\johannes\Desktop\rect3336.png"
         id="circle2187-6"
         d="m 620.72142,599.22948 a 18.0018,18.0018 0 0 1 -6.11914,13.72461 c -1.70558,1.4927 -3.24208,3.13888 -4.73634,4.81445 l 82.22853,0 c -1.49458,-1.68073 -3.03141,-3.33066 -4.7383,-4.82812 a 18.0018,18.0018 0 0 1 -6.1035,-13.71094 l -60.53125,0 z m 103.26367,54.36133 a 18.0018,18.0018 0 0 1 -2.38086,0.17773 l -141.28515,0 a 18.0018,18.0018 0 0 1 -2.28907,-0.15039 72.979141,72.415733 0 0 0 -0.002,0.0273 72.979141,72.415733 0 0 0 72.98047,72.41602 72.979141,72.415733 0 0 0 72.97851,-72.41602 72.979141,72.415733 0 0 0 -0.002,-0.0547 z"
         style="fill:url(#linearGradient4260);fill-opacity:1;stroke:none;stroke-width:14;stroke-miterlimit:4;stroke-dasharray:none;stroke-opacity:1"
         inkscape:connector-curvature="0" />
      <path
         inkscape:export-ydpi="4.9492698"
         inkscape:export-xdpi="4.9492698"
         inkscape:export-filename="C:\Users\johannes\Desktop\rect3336.png"
         id="rect4211"
         d="m 532.91988,581.22944 c -4.91019,0 -9.17188,4.1152 -9.17188,9.02539 l 0,0.73243 c 0,4.91018 4.041,8.42189 8.95117,8.42187 l 70.04688,0 c -10.98308,9.61235 -18.79767,22.2812 -22.42774,36.35938 l 141.28516,0 c -3.61611,-14.07204 -11.41257,-26.74019 -22.37695,-36.35938 l 60.86133,0.0449 0,63.20118 0,18.74023 c 0,4.93837 3.95309,8.91406 8.86328,8.91406 l 0.45312,0 18.17969,0 c 4.91017,0 8.86328,-3.97569 8.86328,-8.91406 l 0,-18.74023 c 0,-4.93838 -3.95311,-8.91407 -8.86328,-8.91407 l -9.31641,0 0,-63.14453 0,-0.73242 c 0,-0.30823 -0.0143,-0.6119 -0.0449,-0.91016 -0.42453,-4.17686 -3.74774,-7.28572 -7.93164,-7.68164 -0.29885,-0.0285 -0.60327,-0.043 -0.91016,-0.043 l -0.45312,0 -236.00781,0 z"
         style="color:#000000;clip-rule:nonzero;display:inline;overflow:visible;visibility:visible;opacity:1;isolation:auto;mix-blend-mode:normal;color-interpolation:sRGB;color-interpolation-filters:linearRGB;solid-color:#000000;solid-opacity:1;fill:#2f3037;fill-opacity:1;fill-rule:evenodd;stroke:none;stroke-width:50;stroke-linecap:butt;stroke-linejoin:round;stroke-miterlimit:4;stroke-dasharray:none;stroke-dashoffset:0;stroke-opacity:1;color-rendering:auto;image-rendering:auto;shape-rendering:auto;text-rendering:auto;enable-background:accumulate"
         inkscape:connector-curvature="0" />
      <g
         inkscape:export-ydpi="4.9492698"
         inkscape:export-xdpi="4.9492698"
         inkscape:export-filename="C:\Users\johannes\Desktop\rect3336.png"
         id="text4269"
         style="font-style:normal;font-weight:normal;font-size:224.35371399px;line-height:125%;font-family:sans-serif;text-align:end;letter-spacing:0px;word-spacing:0px;text-anchor:end;fill:#000000;fill-opacity:1;stroke:#ffffff;stroke-width:36.00148773;stroke-linecap:butt;stroke-linejoin:round;stroke-miterlimit:4;stroke-dasharray:none;stroke-opacity:1"
         transform="matrix(0.90787275,0,0,1.1013849,447.29598,-61.256835)" />
      <text
         inkscape:export-ydpi="4.9492698"
         inkscape:export-xdpi="4.9492698"
         inkscape:export-filename="C:\Users\johannes\Desktop\rect3336.png"
         transform="scale(0.89944266,1.1117996)"
         sodipodi:linespacing="125%"
         id="text4232"
         y="882.55957"
         x="967.0979"
         style="font-style:normal;font-weight:normal;font-size:224.35371399px;line-height:125%;font-family:sans-serif;text-align:end;letter-spacing:0px;word-spacing:0px;text-anchor:end;fill:#000000;fill-opacity:1;stroke:none;stroke-width:1px;stroke-linecap:butt;stroke-linejoin:miter;stroke-opacity:1"
         xml:space="preserve"><tspan
           style="font-style:normal;font-variant:normal;font-weight:bold;font-stretch:normal;font-family:sans-serif;-inkscape-font-specification:'sans-serif Bold';fill:#99b000"
           y="882.55957"
           x="967.0979"
           id="tspan4234"
           sodipodi:role="line">M</tspan></text>
    </g>
  </g>
</svg>
