<?xml version="1.0" encoding="UTF-8" standalone="no"?>
<!-- Created with Inkscape (http://www.inkscape.org/) -->

<svg
   xmlns:dc="http://purl.org/dc/elements/1.1/"
   xmlns:cc="http://creativecommons.org/ns#"
   xmlns:rdf="http://www.w3.org/1999/02/22-rdf-syntax-ns#"
   xmlns:svg="http://www.w3.org/2000/svg"
   xmlns="http://www.w3.org/2000/svg"
   xmlns:xlink="http://www.w3.org/1999/xlink"
   xmlns:sodipodi="http://sodipodi.sourceforge.net/DTD/sodipodi-0.dtd"
   xmlns:inkscape="http://www.inkscape.org/namespaces/inkscape"
   width="210mm"
   height="297mm"
   viewBox="0 0 744.09448819 1052.3622047"
   id="svg2"
   version="1.1"
   inkscape:version="0.91 r13725"
   inkscape:export-xdpi="4.9499817"
   inkscape:export-ydpi="4.9499817"
   sodipodi:docname="user-endcustomer.svg"
   inkscape:export-filename="C:\Users\johannes\Documents\Arbeit\RRZE\github3\bicons\22x22\categories\user-endcustomer.png">
  <defs
     id="defs4">
    <linearGradient
       id="linearGradient2224">
      <stop
         id="stop2226"
         offset="0"
         style="stop-color:#7c7c7c;stop-opacity:1;" />
      <stop
         id="stop2228"
         offset="1"
         style="stop-color:#b8b8b8;stop-opacity:1;" />
    </linearGradient>
    <linearGradient
       id="linearGradient15218">
      <stop
         id="stop15220"
         offset="0"
         style="stop-color:#eeeeef;stop-opacity:1;" />
      <stop
         id="stop2736"
         offset="0.59928656"
         style="stop-color:#d3d7cf;stop-opacity:1;" />
      <stop
         id="stop2738"
         offset="0.82758623"
         style="stop-color:#ffffff;stop-opacity:1;" />
      <stop
         id="stop15222"
         offset="1"
         style="stop-color:#d3d7cf;stop-opacity:1;" />
    </linearGradient>
    <pattern
       y="0"
       x="0"
       height="6"
       width="6"
       patternUnits="userSpaceOnUse"
       id="EMFhbasepattern" />
    <pattern
       y="0"
       x="0"
       height="6"
       width="6"
       patternUnits="userSpaceOnUse"
       id="EMFhbasepattern-5" />
    <linearGradient
       inkscape:collect="always"
       xlink:href="#linearGradient4254"
       id="linearGradient4268"
       x1="471.69119"
       y1="457.14825"
       x2="375.74777"
       y2="664.98523"
       gradientUnits="userSpaceOnUse"
       gradientTransform="matrix(1.1386133,0,0,1.1386133,-245.64719,-375.42365)" />
    <linearGradient
       inkscape:collect="always"
       id="linearGradient4254">
      <stop
         style="stop-color:#7a8597;stop-opacity:1"
         offset="0"
         id="stop4256" />
      <stop
         style="stop-color:#4e505d;stop-opacity:1"
         offset="1"
         id="stop4258" />
    </linearGradient>
    <linearGradient
       inkscape:collect="always"
       xlink:href="#linearGradient4254"
       id="linearGradient4260"
       x1="425.62207"
       y1="330.38269"
       x2="376.55045"
       y2="461.45456"
       gradientUnits="userSpaceOnUse"
       gradientTransform="matrix(1.1116851,0,0,1.1116851,-236.4213,284.46141)" />
  </defs>
  <sodipodi:namedview
     id="base"
     pagecolor="#ffffff"
     bordercolor="#666666"
     borderopacity="1.0"
     inkscape:pageopacity="0.0"
     inkscape:pageshadow="2"
     inkscape:zoom="1"
     inkscape:cx="418.22984"
     inkscape:cy="548.31607"
     inkscape:document-units="px"
     inkscape:current-layer="layer1"
     showgrid="false"
     showguides="true"
     inkscape:guide-bbox="true"
     inkscape:window-width="1366"
     inkscape:window-height="721"
     inkscape:window-x="-4"
     inkscape:window-y="-4"
     inkscape:window-maximized="1"
     inkscape:snap-bbox="true"
     inkscape:bbox-paths="true"
     inkscape:bbox-nodes="true">
    <sodipodi:guide
       position="315.53572,730.17859"
       orientation="0,1"
       id="guide3338" />
    <sodipodi:guide
       position="351.25,330.17858"
       orientation="0,1"
       id="guide3340" />
    <sodipodi:guide
       position="189.10714,408.8393"
       orientation="1,0"
       id="guide3344" />
    <sodipodi:guide
       position="589.04521,468.07945"
       orientation="1,0"
       id="guide3346" />
    <inkscape:grid
       type="xygrid"
       id="grid3440" />
    <sodipodi:guide
       position="589.04521,378.30213"
       orientation="1,0"
       id="guide3411" />
  </sodipodi:namedview>
  <metadata
     id="metadata7">
    <rdf:RDF>
      <cc:Work
         rdf:about="">
        <dc:format>image/svg+xml</dc:format>
        <dc:type
           rdf:resource="http://purl.org/dc/dcmitype/StillImage" />
        <dc:title>user endcustomer</dc:title>
        <dc:date>June 2015</dc:date>
        <dc:creator>
          <cc:Agent>
            <dc:title>Johannes Hechler</dc:title>
          </cc:Agent>
        </dc:creator>
        <dc:rights>
          <cc:Agent>
            <dc:title>Johannes Hechler</dc:title>
          </cc:Agent>
        </dc:rights>
        <dc:publisher>
          <cc:Agent>
            <dc:title>RRZE</dc:title>
          </cc:Agent>
        </dc:publisher>
        <dc:contributor>
          <cc:Agent>
            <dc:title>Ute Weber, Hendrik Eggers</dc:title>
          </cc:Agent>
        </dc:contributor>
      </cc:Work>
    </rdf:RDF>
  </metadata>
  <g
     inkscape:label="Ebene 1"
     inkscape:groupmode="layer"
     id="layer1">
    <g
       transform="translate(189.04373,-330.17848)"
       id="g4616">
      <rect
         inkscape:export-ydpi="4.9499998"
         inkscape:export-xdpi="4.9499998"
         y="652.70972"
         x="0"
         height="400"
         width="400"
         id="rect3336"
         style="fill:none;fill-rule:evenodd;stroke:none;stroke-width:1px;stroke-linecap:butt;stroke-linejoin:miter;stroke-opacity:1" />
      <path
         inkscape:connector-curvature="0"
         id="path2176"
         transform="translate(0,652.36214)"
         d="m 146.31055,163.20898 c -48.591193,28.78495 -78.847659,88.21448 -78.847659,169.29493 0,17.41504 1.588954,34.28889 4.552734,50.34179 4.39616,9.8347 15.440851,17.04288 28.675785,17.98438 l 0,0.10937 196.70898,0 0,-0.01 c 0.93382,-0.0132 1.85767,-0.0586 2.77149,-0.13281 -6.30988,-4.20496 -12.1819,-9.15091 -17.52149,-14.83008 0,0 -0.002,0 -0.002,0 -0.002,-0.01 -0.004,-0.0117 -0.006,-0.0117 -10.37866,-11.0299 -18.03142,-24.27455 -22.95508,-39.04883 l -5.74219,0 -0.002,0 a 18.0018,18.0018 0 0 1 -0.0449,-0.002 l 0.0391,0 a 18.0018,18.0018 0 0 1 -0.0898,-0.004 l 0.084,0 a 18.0018,18.0018 0 0 1 -0.46094,-0.0156 18.0018,18.0018 0 0 1 -0.89062,-0.0391 18.0018,18.0018 0 0 1 -1.1211,-0.13672 18.0018,18.0018 0 0 1 -0.0781,-0.01 18.0018,18.0018 0 0 1 -0.60156,-0.082 18.0018,18.0018 0 0 1 -1.08008,-0.24219 18.0018,18.0018 0 0 1 -0.66992,-0.16016 18.0018,18.0018 0 0 1 -0.006,-0.002 18.0018,18.0018 0 0 1 -0.99414,-0.33008 18.0018,18.0018 0 0 1 -0.006,-0.002 18.0018,18.0018 0 0 1 -0.71289,-0.24805 18.0018,18.0018 0 0 1 -0.91211,-0.41015 18.0018,18.0018 0 0 1 -0.0449,-0.0195 18.0018,18.0018 0 0 1 -0.67579,-0.31445 18.0018,18.0018 0 0 1 -0.008,-0.004 18.0018,18.0018 0 0 1 -0.79297,-0.45508 18.0018,18.0018 0 0 1 -0.77929,-0.46289 18.0018,18.0018 0 0 1 -0.64454,-0.45899 18.0018,18.0018 0 0 1 -0.82031,-0.60547 18.0018,18.0018 0 0 1 -0.52539,-0.46093 18.0018,18.0018 0 0 1 -0.82617,-0.75 18.0018,18.0018 0 0 1 -0.89063,-0.95508 18.0018,18.0018 0 0 1 -0.23046,-0.25 18.0018,18.0018 0 0 1 -2.02344,-2.95703 18.0018,18.0018 0 0 0 0,-0.002 18.0018,18.0018 0 0 1 -0.006,-0.008 18.0018,18.0018 0 0 1 -0.45508,-0.94141 18.0018,18.0018 0 0 1 -0.32422,-0.67187 18.0018,18.0018 0 0 1 0,-0.004 18.0018,18.0018 0 0 0 -0.002,-0.002 18.0018,18.0018 0 0 1 -0.61328,-1.68164 18.0018,18.0018 0 0 1 -0.002,-0.004 18.0018,18.0018 0 0 0 0,-0.002 18.0018,18.0018 0 0 1 -0.44336,-1.73633 18.0018,18.0018 0 0 1 -0.35938,-3.57617 l 0,0.0352 a 18.0018,18.0018 0 0 1 -0.002,-0.0391 l 0,0.0332 a 18.0018,18.0018 0 0 1 -0.002,-0.0391 l 0,-0.002 a 18.0018,18.0018 0 0 1 0.52149,-4.20898 l 0.98242,-4.75196 -0.041,0.041 2.76172,-13.38281 0,0.1582 0.23047,-1.11914 a 18.0018,18.0018 0 0 1 0.0645,-0.39844 18.0018,18.0018 0 0 1 0.16406,-0.73633 18.0018,18.0018 0 0 1 0.12305,-0.54687 18.0018,18.0018 0 0 1 0.10546,-0.42383 18.0018,18.0018 0 0 1 0.0176,-0.0566 18.0018,18.0018 0 0 1 0.0156,-0.0625 18.0018,18.0018 0 0 1 -0.004,-0.004 18.0018,18.0018 0 0 1 0.004,-0.01 18.0018,18.0018 0 0 1 -0.69922,-0.74805 18.0018,18.0018 0 0 1 -0.004,-0.006 18.0018,18.0018 0 0 1 -0.006,-0.006 18.0018,18.0018 0 0 1 -0.0117,-0.0156 18.0018,18.0018 0 0 0 0,-0.002 18.0018,18.0018 0 0 1 -0.33007,-0.43165 18.0018,18.0018 0 0 1 -0.7461,-0.98046 18.0018,18.0018 0 0 1 -0.002,-0.006 18.0018,18.0018 0 0 1 -0.93945,-1.53125 18.0018,18.0018 0 0 0 0,-0.002 18.0018,18.0018 0 0 1 -0.73047,-1.51172 18.0018,18.0018 0 0 1 -0.0508,-0.10546 18.0018,18.0018 0 0 1 -0.002,-0.004 18.0018,18.0018 0 0 1 -0.002,-0.006 18.0018,18.0018 0 0 1 -0.61328,-1.68164 18.0018,18.0018 0 0 1 -0.004,-0.002 18.0018,18.0018 0 0 0 0,-0.002 18.0018,18.0018 0 0 1 -0.44531,-1.74218 18.0018,18.0018 0 0 1 -0.002,-0.006 18.0018,18.0018 0 0 1 -0.26758,-1.77344 18.0018,18.0018 0 0 1 -0.0918,-1.80274 l 0,-0.002 0,-0.002 a 18.0018,18.0018 0 0 1 0.52539,-4.21875 l 0.97852,-4.74024 -0.041,0.041 2.76172,-13.38477 0,0.16016 0.002,-0.01 0,1.64844 a 18.0018,18.0018 0 0 1 0.0117,-0.22656 18.0018,18.0018 0 0 1 0.0449,-1.08399 18.0018,18.0018 0 0 1 0.13086,-1.06835 18.0018,18.0018 0 0 1 0.0469,-0.39649 l 0.0195,-0.0898 a 18.0018,18.0018 0 0 1 0.0352,-0.26172 18.0018,18.0018 0 0 1 0.19921,-0.89258 18.0018,18.0018 0 0 1 0.2129,-0.88281 18.0018,18.0018 0 0 1 0.27734,-0.83399 18.0018,18.0018 0 0 1 0.29492,-0.84765 18.0018,18.0018 0 0 1 0.002,-0.008 18.0018,18.0018 0 0 1 0.37696,-0.8418 18.0018,18.0018 0 0 1 0.004,-0.008 18.0018,18.0018 0 0 1 0.36524,-0.78711 18.0018,18.0018 0 0 1 0.47656,-0.82813 18.0018,18.0018 0 0 1 0.0117,-0.0215 18.0018,18.0018 0 0 1 0.41016,-0.69336 18.0018,18.0018 0 0 0 0.002,-0.002 18.0018,18.0018 0 0 1 0.50586,-0.70703 18.0018,18.0018 0 0 1 0.57031,-0.77539 18.0018,18.0018 0 0 1 0.006,-0.006 18.0018,18.0018 0 0 1 0.46484,-0.53125 18.0018,18.0018 0 0 1 0.0566,-0.0625 18.0018,18.0018 0 0 1 0.66407,-0.73437 18.0018,18.0018 0 0 1 0.01,-0.01 18.0018,18.0018 0 0 1 1.10547,-1.02929 18.0018,18.0018 0 0 1 0.10547,-0.0977 18.0018,18.0018 0 0 1 1.42773,-1.08594 18.0018,18.0018 0 0 1 0.004,-0.002 18.0018,18.0018 0 0 0 0.002,-0.002 18.0018,18.0018 0 0 1 3.14844,-1.71875 18.0018,18.0018 0 0 1 7.00977,-1.42188 l -0.0723,0 a 18.0018,18.0018 0 0 1 0.0781,-0.004 l 0.002,0 0.002,0 0.002,0 2.01953,0 c 4.91957,-14.4298 12.43466,-27.37496 22.54101,-38.20898 a 18.0018,18.0018 0 0 1 0.0176,-0.0215 c 4.03633,-4.31396 8.39585,-8.19916 13.03125,-11.66407 -11.75355,-16.25875 -25.83008,-29.46564 -41.62695,-39.15039 l -54.27735,-0.0566 -53.56054,-0.24219 z m 164.71484,73.81446 c -0.64983,0.6464 -1.32591,1.2276 -1.96289,1.9082 -8.34711,8.95207 -13.99618,19.89666 -17.18359,33.93555 l 0,-0.11719 c -0.0881,0.38593 -0.21844,0.72058 -0.30274,1.11133 a 18.0018,18.0018 0 0 1 -0.006,0.0312 18.0018,18.0018 0 0 1 -0.0645,0.27148 l -0.002,0.008 a 18.0018,18.0018 0 0 1 -0.16211,0.67187 18.0018,18.0018 0 0 1 -0.0156,0.0664 18.0018,18.0018 0 0 1 -0.13476,0.5625 18.0018,18.0018 0 0 1 -0.002,0.0117 18.0018,18.0018 0 0 1 -0.0371,0.15429 18.0018,18.0018 0 0 1 -0.31054,0.89063 18.0018,18.0018 0 0 1 -0.0117,0.0352 18.0018,18.0018 0 0 1 -0.2168,0.625 18.0018,18.0018 0 0 1 -0.004,0.006 18.0018,18.0018 0 0 1 -0.0488,0.14258 18.0018,18.0018 0 0 1 -0.37305,0.80078 18.0018,18.0018 0 0 1 -0.0293,0.0645 18.0018,18.0018 0 0 1 -0.28711,0.62305 18.0018,18.0018 0 0 1 -0.0117,0.0176 18.0018,18.0018 0 0 1 -0.50977,0.88867 18.0018,18.0018 0 0 1 -0.0176,0.0312 18.0018,18.0018 0 0 1 -0.375,0.62891 18.0018,18.0018 0 0 0 0,0.002 18.0018,18.0018 0 0 1 -0.0742,0.12305 18.0018,18.0018 0 0 1 -0.002,0.004 18.0018,18.0018 0 0 1 -0.51367,0.69727 18.0018,18.0018 0 0 1 -0.0312,0.0449 18.0018,18.0018 0 0 1 -0.42774,0.57813 18.0018,18.0018 0 0 1 -0.006,0.008 18.0018,18.0018 0 0 1 -0.0859,0.11719 18.0018,18.0018 0 0 1 -0.002,0.004 18.0018,18.0018 0 0 1 -0.0762,0.082 l -0.008,-0.008 a 18.0018,18.0018 0 0 1 -0.49414,0.56446 18.0018,18.0018 0 0 1 -0.0547,0.0605 18.0018,18.0018 0 0 1 -0.004,0.004 18.0018,18.0018 0 0 1 -0.0312,0.0351 18.0018,18.0018 0 0 0 0,0.002 18.0018,18.0018 0 0 1 0.0176,0.0351 l 0.0332,-0.0332 a 18.0018,18.0018 0 0 1 0.62109,1.28516 18.0018,18.0018 0 0 1 0.002,0.004 18.0018,18.0018 0 0 1 0.61524,1.6875 18.0018,18.0018 0 0 1 0.002,0.004 18.0018,18.0018 0 0 1 0.44336,1.73828 18.0018,18.0018 0 0 1 0.35937,3.57617 l 0,-0.0351 a 18.0018,18.0018 0 0 1 0.002,0.0391 l 0,0.002 0,0.002 0,0.002 a 18.0018,18.0018 0 0 1 -0.0293,1.02734 c -0.15017,2.62899 -0.23437,5.87466 -0.23437,9.66016 0,2.14777 0.0407,4.14226 0.11718,5.97851 a 18.0018,18.0018 0 0 1 0.0156,0.74805 l 0,0.002 0,0.004 a 18.0018,18.0018 0 0 1 -0.002,0.043 l 0,-0.0391 a 18.0018,18.0018 0 0 1 -0.002,0.0449 l 0,-0.041 a 18.0018,18.0018 0 0 1 -0.008,0.22461 18.0018,18.0018 0 0 1 -0.0117,0.23828 18.0018,18.0018 0 0 1 -0.008,0.21875 18.0018,18.0018 0 0 1 -0.0293,0.64844 18.0018,18.0018 0 0 1 -0.002,0.0234 18.0018,18.0018 0 0 1 -0.002,0.0215 18.0018,18.0018 0 0 1 -0.11915,0.99024 18.0018,18.0018 0 0 1 -0.0156,0.11914 18.0018,18.0018 0 0 1 -0.0137,0.0996 18.0018,18.0018 0 0 1 -0.0742,0.54882 18.0018,18.0018 0 0 1 -0.006,0.0332 18.0018,18.0018 0 0 1 -0.22461,0.99805 18.0018,18.0018 0 0 1 -0.0391,0.16601 18.0018,18.0018 0 0 1 -0.13477,0.5625 18.0018,18.0018 0 0 1 -0.004,0.0117 18.0018,18.0018 0 0 1 -0.002,0.0137 18.0018,18.0018 0 0 1 -0.30859,0.92774 18.0018,18.0018 0 0 1 -0.0117,0.0351 18.0018,18.0018 0 0 1 -0.0137,0.043 18.0018,18.0018 0 0 1 -0.0117,0.0352 18.0018,18.0018 0 0 1 -0.23047,0.6582 18.0018,18.0018 0 0 1 -0.002,0.008 18.0018,18.0018 0 0 1 -0.002,0.006 18.0018,18.0018 0 0 1 -0.002,0.006 18.0018,18.0018 0 0 1 -0.35742,0.79688 18.0018,18.0018 0 0 1 -0.0234,0.0527 18.0018,18.0018 0 0 1 -0.002,0.004 18.0018,18.0018 0 0 1 -0.0273,0.0586 18.0018,18.0018 0 0 1 -0.33204,0.7168 18.0018,18.0018 0 0 1 -0.004,0.008 18.0018,18.0018 0 0 1 -0.006,0.01 18.0018,18.0018 0 0 1 -0.004,0.008 18.0018,18.0018 0 0 1 -0.10351,0.17969 18.0018,18.0018 0 0 1 -0.0234,0.041 18.0018,18.0018 0 0 1 -0.002,0 18.0018,18.0018 0 0 0 0,0.002 18.0018,18.0018 0 0 1 0.006,0.004 18.0018,18.0018 0 0 0 0,0.002 18.0018,18.0018 0 0 0 0,0.002 18.0018,18.0018 0 0 1 0.002,0 18.0018,18.0018 0 0 1 0.11719,0.12695 18.0018,18.0018 0 0 1 0.01,0.01 18.0018,18.0018 0 0 1 0.008,0.01 18.0018,18.0018 0 0 1 0.16602,0.17774 18.0018,18.0018 0 0 1 0.004,0.006 18.0018,18.0018 0 0 1 0.17187,0.22656 18.0018,18.0018 0 0 1 0.0215,0.0273 18.0018,18.0018 0 0 0 0,0.002 18.0018,18.0018 0 0 1 0.88086,1.15821 18.0018,18.0018 0 0 0 0.002,0.002 18.0018,18.0018 0 0 1 0.002,0.004 18.0018,18.0018 0 0 1 0.004,0.01 18.0018,18.0018 0 0 1 0.004,0.004 18.0018,18.0018 0 0 0 0.002,0.002 18.0018,18.0018 0 0 1 0.15039,0.2461 18.0018,18.0018 0 0 1 0.59375,0.9707 18.0018,18.0018 0 0 1 0.18164,0.29687 18.0018,18.0018 0 0 1 0.004,0.002 18.0018,18.0018 0 0 0 0,0.002 18.0018,18.0018 0 0 1 0.006,0.008 18.0018,18.0018 0 0 1 0.006,0.01 18.0018,18.0018 0 0 1 0.50977,1.05664 18.0018,18.0018 0 0 1 0.25976,0.54297 18.0018,18.0018 0 0 0 0.002,0.002 18.0018,18.0018 0 0 0 0.002,0.002 18.0018,18.0018 0 0 1 0.002,0.006 18.0018,18.0018 0 0 1 0.44336,1.21485 18.0018,18.0018 0 0 1 0.16992,0.46679 18.0018,18.0018 0 0 0 0.002,0.002 18.0018,18.0018 0 0 1 0.002,0.006 18.0018,18.0018 0 0 1 0.49024,2.04492 c 0.0856,0.4171 0.22259,0.77195 0.3125,1.18359 l 0,-0.13476 c 3.11726,14.36658 8.82964,25.49892 17.40234,34.60742 a 18.0018,18.0018 0 0 1 0.008,0.01 c 1.69037,1.7983 3.41454,3.46749 5.17578,5.02149 -1.16186,-1.1625 -2.33163,-2.31748 -3.40234,-3.58008 -7.0104,-8.2337 -11.31898,-18.37268 -13.97266,-29.73047 a 18.0018,18.0018 0 0 1 -0.47265,-4.0957 l 0,-0.002 0,-0.002 0,-0.002 0,-0.002 a 18.0018,18.0018 0 0 1 0.002,-0.0449 l 0,0.041 a 18.0018,18.0018 0 0 1 0.0312,-0.71289 18.0018,18.0018 0 0 1 0.008,-0.22461 18.0018,18.0018 0 0 1 0.0156,-0.375 18.0018,18.0018 0 0 1 0.004,-0.0215 18.0018,18.0018 0 0 1 0.15625,-1.29297 18.0018,18.0018 0 0 1 0.0117,-0.0977 18.0018,18.0018 0 0 1 0.0527,-0.39258 18.0018,18.0018 0 0 1 0.004,-0.0156 18.0018,18.0018 0 0 1 0.0254,-0.18555 18.0018,18.0018 0 0 1 0.25977,-1.08008 18.0018,18.0018 0 0 1 0.01,-0.0469 18.0018,18.0018 0 0 1 0.10547,-0.43555 18.0018,18.0018 0 0 1 0.002,-0.008 18.0018,18.0018 0 0 1 0.041,-0.17383 18.0018,18.0018 0 0 1 0.002,-0.006 18.0018,18.0018 0 0 1 0.0762,-0.21875 18.0018,18.0018 0 0 1 0.26562,-0.76172 18.0018,18.0018 0 0 1 0.006,-0.0195 18.0018,18.0018 0 0 1 0.18555,-0.5332 18.0018,18.0018 0 0 1 0.004,-0.006 18.0018,18.0018 0 0 1 0.0527,-0.1543 18.0018,18.0018 0 0 1 0.002,-0.004 18.0018,18.0018 0 0 1 0.42578,-0.91601 18.0018,18.0018 0 0 1 0.004,-0.01 18.0018,18.0018 0 0 1 0.24414,-0.52343 18.0018,18.0018 0 0 1 0.0117,-0.0274 18.0018,18.0018 0 0 0 0,-0.002 18.0018,18.0018 0 0 0 0.002,-0.002 18.0018,18.0018 0 0 1 0.002,-0.004 18.0018,18.0018 0 0 0 0,-0.002 18.0018,18.0018 0 0 1 -0.44141,-0.47266 18.0018,18.0018 0 0 1 -0.008,-0.01 18.0018,18.0018 0 0 1 -0.0957,-0.10156 18.0018,18.0018 0 0 1 -0.002,-0.004 18.0018,18.0018 0 0 1 -0.0332,-0.0449 18.0018,18.0018 0 0 1 -1.05274,-1.38086 18.0018,18.0018 0 0 0 -0.002,-0.002 18.0018,18.0018 0 0 0 0,-0.002 18.0018,18.0018 0 0 1 -0.21289,-0.34571 18.0018,18.0018 0 0 1 -0.72461,-1.18554 18.0018,18.0018 0 0 1 -0.002,-0.004 18.0018,18.0018 0 0 1 -0.78125,-1.61719 18.0018,18.0018 0 0 0 -0.002,-0.002 18.0018,18.0018 0 0 1 -0.002,-0.004 18.0018,18.0018 0 0 1 -0.61328,-1.68554 18.0018,18.0018 0 0 0 -0.002,-0.002 18.0018,18.0018 0 0 1 -0.002,-0.004 18.0018,18.0018 0 0 1 -0.44336,-1.73828 18.0018,18.0018 0 0 1 -0.35937,-3.57617 l 0,0.0332 c -2.7e-4,-0.011 -10e-4,-0.0218 -0.002,-0.0332 l 0,-0.006 0,-0.002 0,-0.002 c -0.15889,-3.28569 -0.26562,-6.5126 -0.26562,-9.63477 0,-3.03604 0.0506,-5.52433 0.13672,-7.79492 a 18.0018,18.0018 0 0 1 0,-0.006 c 10e-4,-0.0313 9.5e-4,-0.0762 0.002,-0.10742 a 18.0018,18.0018 0 0 1 0.004,-0.0996 18.0018,18.0018 0 0 1 0.0508,-1.16211 18.0018,18.0018 0 0 1 0.004,-0.0449 18.0018,18.0018 0 0 1 0.0898,-0.72656 18.0018,18.0018 0 0 1 0.0234,-0.19922 18.0018,18.0018 0 0 1 0.11133,-0.82227 18.0018,18.0018 0 0 1 0.008,-0.0312 18.0018,18.0018 0 0 1 0.17969,-0.79882 18.0018,18.0018 0 0 1 0.0293,-0.13477 18.0018,18.0018 0 0 1 0.18945,-0.78906 18.0018,18.0018 0 0 1 0.008,-0.0215 18.0018,18.0018 0 0 1 0.0293,-0.12304 18.0018,18.0018 0 0 1 0.23243,-0.66602 18.0018,18.0018 0 0 1 0.0234,-0.0703 18.0018,18.0018 0 0 1 0.29102,-0.83594 18.0018,18.0018 0 0 1 0.006,-0.0137 18.0018,18.0018 0 0 1 0.0351,-0.10547 18.0018,18.0018 0 0 1 0.006,-0.008 18.0018,18.0018 0 0 1 0.2793,-0.60157 18.0018,18.0018 0 0 1 0.0254,-0.0566 18.0018,18.0018 0 0 1 0.39844,-0.85351 18.0018,18.0018 0 0 1 0.01,-0.0195 18.0018,18.0018 0 0 1 0.0469,-0.0996 18.0018,18.0018 0 0 1 0.34961,-0.58985 18.0018,18.0018 0 0 1 0.0391,-0.0684 18.0018,18.0018 0 0 1 0.45313,-0.76562 18.0018,18.0018 0 0 1 0.008,-0.01 18.0018,18.0018 0 0 1 0.0625,-0.10742 18.0018,18.0018 0 0 1 0.006,-0.008 18.0018,18.0018 0 0 1 0.46875,-0.63477 18.0018,18.0018 0 0 1 0.0254,-0.0371 18.0018,18.0018 0 0 1 0.48242,-0.65234 18.0018,18.0018 0 0 1 0.01,-0.0137 18.0018,18.0018 0 0 1 0.15429,-0.18945 l 0.008,0.006 0.0391,0.0371 a 18.0018,18.0018 0 0 1 0.53711,-0.61328 18.0018,18.0018 0 0 1 -0.0234,-0.0488 18.0018,18.0018 0 0 0 0,-0.002 18.0018,18.0018 0 0 0 0,-0.002 18.0018,18.0018 0 0 0 0,-0.002 18.0018,18.0018 0 0 1 0.0215,-0.0254 18.0018,18.0018 0 0 1 -0.0176,-0.0312 l -0.0215,0.0215 a 18.0018,18.0018 0 0 1 -0.62109,-1.28516 18.0018,18.0018 0 0 1 -0.002,-0.004 18.0018,18.0018 0 0 1 -0.002,-0.004 18.0018,18.0018 0 0 1 -0.61328,-1.68164 18.0018,18.0018 0 0 1 -0.002,-0.004 18.0018,18.0018 0 0 1 -0.44336,-1.74023 18.0018,18.0018 0 0 1 -0.35938,-3.57617 l 0,0.0351 a 18.0018,18.0018 0 0 1 -0.002,-0.0391 l 0,0.0352 a 18.0018,18.0018 0 0 1 -0.002,-0.0391 l 0,-0.002 0,-0.002 0,-0.002 0,-0.002 a 18.0018,18.0018 0 0 1 0.50586,-4.24023 c 2.66434,-10.99041 7.45359,-21.06853 14.56054,-29.29883 l -0.002,-0.002 z m -53.22851,24.18359 -1.91407,1.91211 0,0.002 0,7.29297 a 18.0018,18.0018 0 0 1 0.0606,-1.28125 18.0018,18.0018 0 0 1 0.0332,-0.30859 18.0018,18.0018 0 0 1 0.0781,-0.60742 18.0018,18.0018 0 0 1 0.12109,-0.86133 18.0018,18.0018 0 0 1 0.0664,-0.31445 18.0018,18.0018 0 0 1 0.0293,-0.18555 c 0.004,-0.0194 0.0116,-0.0371 0.0156,-0.0566 l -0.043,0.0351 c 0.07,-0.33131 0.19323,-0.63476 0.26563,-0.96484 a 18.0018,18.0018 0 0 1 0.0547,-0.19531 c 0.012,-0.054 0.031,-0.10421 0.043,-0.15821 a 18.0018,18.0018 0 0 1 0.004,-0.01 c 0.32688,-1.46879 0.80978,-2.85511 1.18555,-4.29883 z m 18.16601,11.79883 a 18.0018,18.0018 0 0 1 -0.084,0.625 18.0018,18.0018 0 0 1 0.27343,0.0664 l 0,-0.69141 -0.18945,0 z m 25.17383,10.19336 -0.002,0.002 0.0781,0.0801 a 18.0018,18.0018 0 0 1 -0.0762,-0.082 z m -47.89258,7.85156 0,0.0703 a 18.0018,18.0018 0 0 0 0.002,0 c 4.9e-4,-0.01 -4.8e-4,-0.0213 0,-0.0312 a 18.0018,18.0018 0 0 1 -0.002,-0.0391 z m 22.7168,19.82227 a 18.0018,18.0018 0 0 1 -0.0254,0.1875 18.0018,18.0018 0 0 1 0.006,0.002 18.0018,18.0018 0 0 1 0.0527,0.006 18.0018,18.0018 0 0 1 0.0195,0.004 18.0018,18.0018 0 0 1 0.13867,0.0176 l 0,-0.002 a 18.0018,18.0018 0 0 1 0.48243,0.0684 18.0018,18.0018 0 0 1 0.1582,0.0234 18.0018,18.0018 0 0 1 0.80469,0.1914 18.0018,18.0018 0 0 1 0.0664,0.0156 18.0018,18.0018 0 0 1 0.0996,0.0234 18.0018,18.0018 0 0 1 0.53125,0.11914 18.0018,18.0018 0 0 1 0.0996,0.0312 18.0018,18.0018 0 0 1 0.0117,0.004 18.0018,18.0018 0 0 1 0.13281,0.0312 18.0018,18.0018 0 0 1 0.78906,0.27539 18.0018,18.0018 0 0 1 0.0352,0.0117 18.0018,18.0018 0 0 1 0.63672,0.21289 18.0018,18.0018 0 0 0 0.002,0.002 18.0018,18.0018 0 0 1 0.10547,0.0469 18.0018,18.0018 0 0 1 0.008,0.002 18.0018,18.0018 0 0 1 0.125,0.043 18.0018,18.0018 0 0 1 0.71875,0.33399 18.0018,18.0018 0 0 1 0.008,0.004 18.0018,18.0018 0 0 1 0.0547,0.0254 18.0018,18.0018 0 0 1 0.62305,0.27735 18.0018,18.0018 0 0 0 0.002,0.002 18.0018,18.0018 0 0 1 0.0996,0.0566 18.0018,18.0018 0 0 0 0.002,0.002 18.0018,18.0018 0 0 1 0.006,0.002 18.0018,18.0018 0 0 0 0.002,0.002 18.0018,18.0018 0 0 1 0.11523,0.0527 18.0018,18.0018 0 0 1 0.004,0.002 18.0018,18.0018 0 0 1 0.64844,0.38476 18.0018,18.0018 0 0 1 0.0176,0.01 18.0018,18.0018 0 0 1 0.043,0.0254 18.0018,18.0018 0 0 1 0.043,0.0254 18.0018,18.0018 0 0 1 0.57813,0.33008 18.0018,18.0018 0 0 0 0.002,0.002 18.0018,18.0018 0 0 1 0.0957,0.0703 18.0018,18.0018 0 0 1 0.004,0.002 18.0018,18.0018 0 0 0 0.002,0.002 18.0018,18.0018 0 0 0 0.002,0.002 18.0018,18.0018 0 0 1 0.004,0.002 18.0018,18.0018 0 0 1 0.10547,0.0625 18.0018,18.0018 0 0 1 0.1543,0.11328 l 0.23242,-0.23242 -2.87109,-2.87305 -0.002,0 -4.77929,0 0,-0.002 -0.1875,0 -0.002,0 -0.004,0 z m -2.39258,0.002 a 18.0018,18.0018 0 0 1 0.12891,0.006 l 0.006,-0.006 -0.13476,0 z m 28.03711,12.63086 -0.27149,0.27148 2.67383,2.67383 0.002,0 7.36914,0 a 18.0018,18.0018 0 0 1 -0.17579,-0.008 18.0018,18.0018 0 0 1 -0.10351,-0.004 18.0018,18.0018 0 0 1 -0.0215,-0.002 18.0018,18.0018 0 0 1 -0.0664,-0.002 18.0018,18.0018 0 0 1 -0.9043,-0.0391 18.0018,18.0018 0 0 1 -0.60937,-0.0664 18.0018,18.0018 0 0 1 -0.39258,-0.0547 18.0018,18.0018 0 0 1 -0.041,-0.008 18.0018,18.0018 0 0 1 -0.0566,-0.008 18.0018,18.0018 0 0 1 -0.68554,-0.0918 18.0018,18.0018 0 0 1 -0.0332,-0.006 18.0018,18.0018 0 0 1 -0.14062,-0.0195 18.0018,18.0018 0 0 1 -0.43946,-0.10547 18.0018,18.0018 0 0 1 -0.0137,-0.002 18.0018,18.0018 0 0 1 -0.30664,-0.0742 18.0018,18.0018 0 0 1 -0.0293,-0.008 18.0018,18.0018 0 0 1 -0.0117,-0.002 18.0018,18.0018 0 0 1 -0.1211,-0.0293 18.0018,18.0018 0 0 1 -0.58008,-0.13086 18.0018,18.0018 0 0 1 -0.084,-0.0274 18.0018,18.0018 0 0 1 -0.0117,-0.004 18.0018,18.0018 0 0 1 -0.0137,-0.004 18.0018,18.0018 0 0 1 -0.13477,-0.0312 18.0018,18.0018 0 0 1 -0.004,-0.002 18.0018,18.0018 0 0 1 -0.44922,-0.15625 18.0018,18.0018 0 0 1 -0.008,-0.002 18.0018,18.0018 0 0 1 -0.2461,-0.0859 18.0018,18.0018 0 0 1 -0.0156,-0.006 18.0018,18.0018 0 0 1 -0.125,-0.043 18.0018,18.0018 0 0 1 -0.0391,-0.0137 18.0018,18.0018 0 0 1 -0.084,-0.0293 18.0018,18.0018 0 0 1 -0.49023,-0.16211 18.0018,18.0018 0 0 0 -0.002,-0.002 18.0018,18.0018 0 0 1 -0.0762,-0.0332 18.0018,18.0018 0 0 1 -0.0117,-0.004 18.0018,18.0018 0 0 1 -0.008,-0.004 18.0018,18.0018 0 0 1 -0.14258,-0.0488 18.0018,18.0018 0 0 1 -0.004,-0.002 18.0018,18.0018 0 0 1 -0.47266,-0.2207 18.0018,18.0018 0 0 0 -0.002,0 18.0018,18.0018 0 0 1 -0.13672,-0.0645 18.0018,18.0018 0 0 1 -0.004,-0.002 18.0018,18.0018 0 0 1 -0.1582,-0.0742 18.0018,18.0018 0 0 1 -0.0586,-0.0254 18.0018,18.0018 0 0 1 -0.56835,-0.25391 18.0018,18.0018 0 0 0 -0.002,-0.002 18.0018,18.0018 0 0 1 -0.0996,-0.0566 18.0018,18.0018 0 0 1 -0.008,-0.004 18.0018,18.0018 0 0 1 -0.57812,-0.32812 18.0018,18.0018 0 0 1 -0.004,-0.002 18.0018,18.0018 0 0 1 -0.10156,-0.0606 18.0018,18.0018 0 0 1 -0.008,-0.004 18.0018,18.0018 0 0 1 -0.0371,-0.0234 18.0018,18.0018 0 0 1 -0.041,-0.0234 18.0018,18.0018 0 0 1 -0.0176,-0.01 18.0018,18.0018 0 0 1 -0.043,-0.0254 18.0018,18.0018 0 0 1 -0.62109,-0.35547 18.0018,18.0018 0 0 0 -0.002,-0.002 18.0018,18.0018 0 0 1 -0.0996,-0.0703 18.0018,18.0018 0 0 0 -0.002,-0.002 18.0018,18.0018 0 0 0 -0.002,-0.002 18.0018,18.0018 0 0 1 -0.004,-0.002 18.0018,18.0018 0 0 1 -0.0215,-0.0117 z m -29.67774,2.9043 a 18.0018,18.0018 0 0 1 -0.18945,0.0117 18.0018,18.0018 0 0 1 0.004,0.0273 18.0018,18.0018 0 0 0 0.002,0 l 0.18359,0 0,-0.0371 0,-0.002 z"
         style="fill:url(#linearGradient4268);fill-opacity:1;stroke:none;stroke-width:41.15159225;stroke-linecap:round;stroke-linejoin:round;stroke-opacity:1" />
      <ellipse
         ry="72.585457"
         rx="72.979141"
         cx="200.03757"
         cy="724.94757"
         id="circle2187-6"
         style="fill:url(#linearGradient4260);fill-opacity:1;stroke:none;stroke-width:14;stroke-miterlimit:4;stroke-dasharray:none;stroke-opacity:1" />
      <text
         sodipodi:linespacing="125%"
         id="text4597"
         y="1049.0637"
         x="333.3721"
         style="font-style:normal;font-weight:normal;font-size:270.21179199px;line-height:125%;font-family:sans-serif;text-align:center;letter-spacing:0px;word-spacing:0px;text-anchor:middle;fill:#000000;fill-opacity:1;stroke:none;stroke-width:1px;stroke-linecap:butt;stroke-linejoin:miter;stroke-opacity:1"
         xml:space="preserve"><tspan
           style="font-style:normal;font-variant:normal;font-weight:bold;font-stretch:normal;font-family:Arial;-inkscape-font-specification:'Arial Bold';fill:#99b000"
           y="1049.0637"
           x="333.3721"
           id="tspan4599"
           sodipodi:role="line">€</tspan></text>
    </g>
  </g>
</svg>
