<?xml version="1.0" encoding="UTF-8" standalone="no"?>
<!-- Created with Inkscape (http://www.inkscape.org/) -->

<svg
   xmlns:dc="http://purl.org/dc/elements/1.1/"
   xmlns:cc="http://creativecommons.org/ns#"
   xmlns:rdf="http://www.w3.org/1999/02/22-rdf-syntax-ns#"
   xmlns:svg="http://www.w3.org/2000/svg"
   xmlns="http://www.w3.org/2000/svg"
   xmlns:xlink="http://www.w3.org/1999/xlink"
   xmlns:sodipodi="http://sodipodi.sourceforge.net/DTD/sodipodi-0.dtd"
   xmlns:inkscape="http://www.inkscape.org/namespaces/inkscape"
   width="210mm"
   height="297mm"
   viewBox="0 0 744.09448819 1052.3622047"
   id="svg2"
   version="1.1"
   inkscape:version="0.91 r13725"
   inkscape:export-xdpi="4.9499817"
   inkscape:export-ydpi="4.9499817"
   sodipodi:docname="user-partner.svg"
   inkscape:export-filename="C:\Users\johannes\Documents\Arbeit\RRZE\github3\bicons\22x22\categories\user-partner.png">
  <defs
     id="defs4">
    <linearGradient
       inkscape:collect="always"
       id="linearGradient4186">
      <stop
         style="stop-color:#99b000;stop-opacity:1;"
         offset="0"
         id="stop4188" />
      <stop
         style="stop-color:#a9bc24;stop-opacity:1"
         offset="1"
         id="stop4190" />
    </linearGradient>
    <linearGradient
       id="linearGradient2224">
      <stop
         id="stop2226"
         offset="0"
         style="stop-color:#7c7c7c;stop-opacity:1;" />
      <stop
         id="stop2228"
         offset="1"
         style="stop-color:#b8b8b8;stop-opacity:1;" />
    </linearGradient>
    <linearGradient
       id="linearGradient15218">
      <stop
         id="stop15220"
         offset="0"
         style="stop-color:#eeeeef;stop-opacity:1;" />
      <stop
         id="stop2736"
         offset="0.59928656"
         style="stop-color:#d3d7cf;stop-opacity:1;" />
      <stop
         id="stop2738"
         offset="0.82758623"
         style="stop-color:#ffffff;stop-opacity:1;" />
      <stop
         id="stop15222"
         offset="1"
         style="stop-color:#d3d7cf;stop-opacity:1;" />
    </linearGradient>
    <pattern
       y="0"
       x="0"
       height="6"
       width="6"
       patternUnits="userSpaceOnUse"
       id="EMFhbasepattern" />
    <pattern
       y="0"
       x="0"
       height="6"
       width="6"
       patternUnits="userSpaceOnUse"
       id="EMFhbasepattern-5" />
    <linearGradient
       inkscape:collect="always"
       xlink:href="#linearGradient4186"
       id="linearGradient4212"
       x1="382.1254"
       y1="678.17566"
       x2="551.59515"
       y2="536.75433"
       gradientUnits="userSpaceOnUse" />
    <linearGradient
       inkscape:collect="always"
       xlink:href="#linearGradient4186"
       id="linearGradient4220"
       x1="382.1254"
       y1="678.17566"
       x2="551.59515"
       y2="536.75433"
       gradientUnits="userSpaceOnUse" />
    <linearGradient
       inkscape:collect="always"
       xlink:href="#linearGradient4254"
       id="linearGradient4268"
       x1="471.69119"
       y1="457.14825"
       x2="375.74777"
       y2="664.98523"
       gradientUnits="userSpaceOnUse"
       gradientTransform="matrix(1.1386133,0,0,1.1358522,-116.64793,-31.32486)" />
    <linearGradient
       inkscape:collect="always"
       id="linearGradient4254">
      <stop
         style="stop-color:#7a8597;stop-opacity:1"
         offset="0"
         id="stop4256" />
      <stop
         style="stop-color:#4e505d;stop-opacity:1"
         offset="1"
         id="stop4258" />
    </linearGradient>
    <linearGradient
       inkscape:collect="always"
       xlink:href="#linearGradient4254"
       id="linearGradient4260"
       x1="425.62207"
       y1="330.38269"
       x2="376.55045"
       y2="461.45456"
       gradientUnits="userSpaceOnUse"
       gradientTransform="matrix(1.1116851,0,0,1.1089893,-107.42204,-23.82018)" />
  </defs>
  <sodipodi:namedview
     id="base"
     pagecolor="#ffffff"
     bordercolor="#666666"
     borderopacity="1.0"
     inkscape:pageopacity="0.0"
     inkscape:pageshadow="2"
     inkscape:zoom="1"
     inkscape:cx="292.31972"
     inkscape:cy="513.56645"
     inkscape:document-units="px"
     inkscape:current-layer="layer1"
     showgrid="false"
     showguides="true"
     inkscape:guide-bbox="true"
     inkscape:window-width="1366"
     inkscape:window-height="721"
     inkscape:window-x="-4"
     inkscape:window-y="-4"
     inkscape:window-maximized="1"
     inkscape:snap-bbox="true"
     inkscape:bbox-paths="true"
     inkscape:bbox-nodes="true">
    <sodipodi:guide
       position="315.53572,730.17859"
       orientation="0,1"
       id="guide3338" />
    <sodipodi:guide
       position="351.25,330.17858"
       orientation="0,1"
       id="guide3340" />
    <sodipodi:guide
       position="189.10714,408.8393"
       orientation="1,0"
       id="guide3344" />
    <sodipodi:guide
       position="589.04521,468.07945"
       orientation="1,0"
       id="guide3346" />
    <inkscape:grid
       type="xygrid"
       id="grid3440" />
    <sodipodi:guide
       position="0,0"
       orientation="0,1"
       id="guide3405" />
    <sodipodi:guide
       position="214.125,684.50002"
       orientation="1,0"
       id="guide3407" />
    <sodipodi:guide
       position="0,0"
       orientation="0,1"
       id="guide3409" />
    <sodipodi:guide
       position="589.04521,378.30213"
       orientation="1,0"
       id="guide3411" />
    <sodipodi:guide
       position="564.00001,683.37502"
       orientation="1,0"
       id="guide3413" />
    <sodipodi:guide
       position="0,0"
       orientation="0,1"
       id="guide4168" />
  </sodipodi:namedview>
  <metadata
     id="metadata7">
    <rdf:RDF>
      <cc:Work
         rdf:about="">
        <dc:format>image/svg+xml</dc:format>
        <dc:type
           rdf:resource="http://purl.org/dc/dcmitype/StillImage" />
        <dc:title>user partner</dc:title>
        <dc:date>June 2015</dc:date>
        <dc:creator>
          <cc:Agent>
            <dc:title>Johannes Hechler</dc:title>
          </cc:Agent>
        </dc:creator>
        <dc:rights>
          <cc:Agent>
            <dc:title>Johannes Hechler</dc:title>
          </cc:Agent>
        </dc:rights>
        <dc:publisher>
          <cc:Agent>
            <dc:title>RRZE</dc:title>
          </cc:Agent>
        </dc:publisher>
        <dc:contributor>
          <cc:Agent>
            <dc:title>Ute Weber, Hendrik Eggers</dc:title>
          </cc:Agent>
        </dc:contributor>
      </cc:Work>
    </rdf:RDF>
  </metadata>
  <g
     inkscape:label="Ebene 1"
     inkscape:groupmode="layer"
     id="layer1">
    <g
       id="g4257"
       transform="translate(60.044465,-21.004801)">
      <rect
         inkscape:export-ydpi="4.9499998"
         inkscape:export-xdpi="4.9499998"
         y="343.53598"
         x="128.99927"
         height="400"
         width="400"
         id="rect3336"
         style="fill:none;fill-rule:evenodd;stroke:none;stroke-width:1px;stroke-linecap:butt;stroke-linejoin:miter;stroke-opacity:1" />
      <path
         id="path2176"
         d="m 275.30982,506.0009 c -48.5912,28.71515 -78.84766,88.00289 -78.84766,168.88672 0,17.37277 1.58895,34.20475 4.55273,50.21875 4.39616,9.8108 15.44085,17.0022 28.67579,17.94141 l 0,0.10742 66.51367,0 a 18.0018,18.0018 0 0 1 -3.12891,-10.08789 l -0.23437,-98.71094 a 18.0018,18.0018 0 0 1 1.94922,-8.18555 c -5.20329,-33.6785 3.44268,-63.81283 22.49804,-84.75781 17.1607,-18.86242 41.50123,-30.06619 68.64649,-33.35547 -0.92374,-0.59683 -1.85125,-1.18544 -2.78711,-1.75781 l -54.27735,-0.0566 -53.56054,-0.24219 z m 128.29297,37.0293 c -18.29568,-0.0812 -34.02632,4.29331 -46.22461,11.73242 1.20022,-0.1887 2.39232,-0.41498 3.60156,-0.55664 24.60397,-2.88248 51.69885,2.73976 78.30469,15.10937 -4.39545,-8.74617 -9.34866,-16.87888 -14.80274,-24.35742 -7.198,-1.26845 -14.18971,-1.89804 -20.8789,-1.92773 z m -31.70704,46.51367 c -2.34187,0.027 -4.58834,0.16746 -6.72656,0.41797 -11.40383,1.33601 -19.24836,5.23633 -24.53125,11.19336 -3.20544,3.61449 -5.69346,8.54469 -7.18555,15.08398 l 67.07618,-0.2207 a 18.0018,18.0018 0 0 1 13.44922,30.03125 l -11.66211,12.97851 c 21.15814,11.84771 42.60612,18.3914 59.92968,19.4668 0.0153,-1.20245 0.041,-2.40159 0.041,-3.60937 0,-7.779 -0.31616,-15.36478 -0.91016,-22.75977 l -22.06445,0.0723 a 18.0018,18.0018 0 0 1 -13.44727,-30.0293 l 11.66016,-12.97656 c -22.52858,-12.61494 -45.39951,-19.28112 -63.25586,-19.63672 -0.80143,-0.016 -1.59242,-0.0207 -2.37305,-0.0117 z m -11.68554,62.60742 -31.32617,0.10352 0.0879,37.33398 a 18.0018,18.0018 0 0 1 16.93164,2.46289 c 39.70706,29.58208 81.47266,37.39771 112.20898,30.92383 0.49075,-2.77766 0.93087,-5.58201 1.33789,-8.40625 -30.99414,-1.65327 -64.49814,-15.01335 -95.27929,-37.03906 a 18.0018,18.0018 0 0 1 -3.96094,-25.37891 z m -22.27149,78.04883 -11.75,12.95508 35,0 c -7.80202,-3.72927 -15.57153,-8.04226 -23.25,-12.95508 z"
         style="fill:url(#linearGradient4268);fill-opacity:1;stroke:none;stroke-width:41.15159225;stroke-linecap:round;stroke-linejoin:round;stroke-opacity:1"
         inkscape:connector-curvature="0" />
      <ellipse
         ry="72.409439"
         rx="72.979141"
         cx="329.03683"
         cy="415.59787"
         id="circle2187-6"
         style="fill:url(#linearGradient4260);fill-opacity:1;stroke:none;stroke-width:14;stroke-miterlimit:4;stroke-dasharray:none;stroke-opacity:1" />
      <path
         style="display:block;overflow:visible;visibility:visible;fill:#99b000;fill-opacity:1;fill-rule:nonzero;stroke:none;stroke-width:6;stroke-linecap:square;stroke-linejoin:miter;stroke-miterlimit:4;stroke-dasharray:none;stroke-dashoffset:0;stroke-opacity:1;marker:none;marker-start:none;marker-mid:none;marker-end:none"
         d="m 403.68239,525.03007 c -60.17875,-0.26709 -104.80924,40.70547 -89.67774,106.6543 -1.8104,-74.47356 82.26447,-75.67868 151.1914,-26.35742 l -25.94335,28.8711 89.74804,-0.2949 -0.23437,-98.70901 -24.07227,26.5371 C 470.99374,536.6242 435.20458,525.16998 403.68239,525.03007 Z m -3.09375,108.98828 -89.74805,0.2949 0.23437,98.71101 24.07422,-26.5391 c 98.03741,73.0386 213.74503,30.5423 190.6875,-69.95121 1.81038,74.47361 -82.26447,75.67871 -151.1914,26.3575 l 25.94336,-28.8731 z"
         id="path4168"
         inkscape:connector-curvature="0" />
    </g>
  </g>
</svg>
