<?xml version="1.0" encoding="UTF-8" standalone="no"?>
<!-- Created with Inkscape (http://www.inkscape.org/) -->

<svg
   xmlns:dc="http://purl.org/dc/elements/1.1/"
   xmlns:cc="http://creativecommons.org/ns#"
   xmlns:rdf="http://www.w3.org/1999/02/22-rdf-syntax-ns#"
   xmlns:svg="http://www.w3.org/2000/svg"
   xmlns="http://www.w3.org/2000/svg"
   xmlns:xlink="http://www.w3.org/1999/xlink"
   xmlns:sodipodi="http://sodipodi.sourceforge.net/DTD/sodipodi-0.dtd"
   xmlns:inkscape="http://www.inkscape.org/namespaces/inkscape"
   width="210mm"
   height="297mm"
   viewBox="0 0 744.09448819 1052.3622047"
   id="svg2"
   version="1.1"
   inkscape:version="0.91 r13725"
   inkscape:export-xdpi="4.9499998"
   inkscape:export-ydpi="4.9499998"
   sodipodi:docname="user-female.svg"
   inkscape:export-filename="C:\Users\johannes\Documents\Arbeit\RRZE\github3\bicons\22x22\categories\user-female.png">
  <defs
     id="defs4">
    <linearGradient
       id="linearGradient2224">
      <stop
         id="stop2226"
         offset="0"
         style="stop-color:#7c7c7c;stop-opacity:1;" />
      <stop
         id="stop2228"
         offset="1"
         style="stop-color:#b8b8b8;stop-opacity:1;" />
    </linearGradient>
    <linearGradient
       id="linearGradient15218">
      <stop
         id="stop15220"
         offset="0"
         style="stop-color:#eeeeef;stop-opacity:1;" />
      <stop
         id="stop2736"
         offset="0.59928656"
         style="stop-color:#d3d7cf;stop-opacity:1;" />
      <stop
         id="stop2738"
         offset="0.82758623"
         style="stop-color:#ffffff;stop-opacity:1;" />
      <stop
         id="stop15222"
         offset="1"
         style="stop-color:#d3d7cf;stop-opacity:1;" />
    </linearGradient>
    <pattern
       y="0"
       x="0"
       height="6"
       width="6"
       patternUnits="userSpaceOnUse"
       id="EMFhbasepattern" />
    <pattern
       y="0"
       x="0"
       height="6"
       width="6"
       patternUnits="userSpaceOnUse"
       id="EMFhbasepattern-5" />
    <linearGradient
       inkscape:collect="always"
       xlink:href="#linearGradient4254"
       id="linearGradient4268"
       x1="358.43118"
       y1="465.73074"
       x2="429.96555"
       y2="644.62878"
       gradientUnits="userSpaceOnUse"
       gradientTransform="matrix(1.1173281,0,0,1.1173281,-47.650937,-38.763723)" />
    <linearGradient
       inkscape:collect="always"
       id="linearGradient4254">
      <stop
         style="stop-color:#7a8597;stop-opacity:1"
         offset="0"
         id="stop4256" />
      <stop
         style="stop-color:#4e505d;stop-opacity:1"
         offset="1"
         id="stop4258" />
    </linearGradient>
    <linearGradient
       inkscape:collect="always"
       xlink:href="#linearGradient4254"
       id="linearGradient4260"
       x1="380.01031"
       y1="330.40619"
       x2="414.6156"
       y2="457.18103"
       gradientUnits="userSpaceOnUse"
       gradientTransform="matrix(1.1173281,0,0,1.1173281,-47.237461,-39.204689)" />
  </defs>
  <sodipodi:namedview
     id="base"
     pagecolor="#ffffff"
     bordercolor="#666666"
     borderopacity="1.0"
     inkscape:pageopacity="0.0"
     inkscape:pageshadow="2"
     inkscape:zoom="1"
     inkscape:cx="235.39426"
     inkscape:cy="552.1466"
     inkscape:document-units="px"
     inkscape:current-layer="layer1"
     showgrid="false"
     showguides="true"
     inkscape:guide-bbox="true"
     inkscape:window-width="1366"
     inkscape:window-height="721"
     inkscape:window-x="-4"
     inkscape:window-y="-4"
     inkscape:window-maximized="1">
    <sodipodi:guide
       position="315.53572,730.17859"
       orientation="0,1"
       id="guide3338" />
    <sodipodi:guide
       position="351.25,330.17858"
       orientation="0,1"
       id="guide3340" />
    <sodipodi:guide
       position="189.10714,408.8393"
       orientation="1,0"
       id="guide3344" />
    <sodipodi:guide
       position="589.04521,468.07945"
       orientation="1,0"
       id="guide3346" />
    <inkscape:grid
       type="xygrid"
       id="grid3440" />
    <sodipodi:guide
       position="589.04521,378.30213"
       orientation="1,0"
       id="guide3411" />
  </sodipodi:namedview>
  <metadata
     id="metadata7">
    <rdf:RDF>
      <cc:Work
         rdf:about="">
        <dc:format>image/svg+xml</dc:format>
        <dc:type
           rdf:resource="http://purl.org/dc/dcmitype/StillImage" />
        <dc:title>user female</dc:title>
        <dc:date>June 2015</dc:date>
        <dc:creator>
          <cc:Agent>
            <dc:title>Johannes Hechler</dc:title>
          </cc:Agent>
        </dc:creator>
        <dc:rights>
          <cc:Agent>
            <dc:title>Johannes Hechler</dc:title>
          </cc:Agent>
        </dc:rights>
        <dc:publisher>
          <cc:Agent>
            <dc:title>RRZE</dc:title>
          </cc:Agent>
        </dc:publisher>
        <dc:contributor>
          <cc:Agent>
            <dc:title>Ute Weber, Hendrik Eggers</dc:title>
          </cc:Agent>
        </dc:contributor>
      </cc:Work>
    </rdf:RDF>
  </metadata>
  <g
     inkscape:label="Ebene 1"
     inkscape:groupmode="layer"
     id="layer1">
    <flowRoot
       transform="translate(0.43133,0.2241972)"
       xml:space="preserve"
       id="flowRoot4169"
       style="font-style:normal;font-weight:normal;font-size:40px;line-height:125%;font-family:sans-serif;letter-spacing:0px;word-spacing:0px;fill:#252525;fill-opacity:1;stroke:none;stroke-width:1px;stroke-linecap:butt;stroke-linejoin:miter;stroke-opacity:1"><flowRegion
         id="flowRegion4171"><rect
           id="rect4173"
           width="56.433445"
           height="88.78862"
           x="89.541069"
           y="427.07962" /></flowRegion><flowPara
         id="flowPara4175" /></flowRoot>    <path
       style="fill:#99b000;fill-rule:evenodd;stroke:none;stroke-width:1px;stroke-linecap:butt;stroke-linejoin:miter;stroke-opacity:1"
       d="m 305.64975,438.84476 c -40.4557,-5.19583 -68.51077,17.38109 -87.94349,60.90165 52.77838,5.81108 96.79774,-8.60908 98.28394,-40.96516 -5.93548,-2.47376 -4.92643,-10.5873 -10.34045,-19.93649 z"
       id="path4215"
       inkscape:connector-curvature="0"
       sodipodi:nodetypes="cccc" />
    <path
       style="fill:url(#linearGradient4268);fill-opacity:1;stroke:none;stroke-width:41.15159225;stroke-linecap:round;stroke-linejoin:round;stroke-opacity:1"
       d="M 340.36133 480.31641 C 292.96744 508.75813 259.60547 576.66831 259.60547 655.92969 C 259.60547 673.01914 261.1639 689.57722 264.07227 705.33008 C 268.38625 714.98088 279.22537 722.05465 292.21289 722.97852 L 292.21289 723.08594 L 480.51953 723.08594 C 480.50819 723.02919 480.49132 722.97066 480.48047 722.91406 L 477.58789 722.91406 C 465.58522 722.91406 459.94443 715.28039 456.93164 710.26172 C 453.91885 705.24304 452.2168 700.82853 452.2168 694.00195 L 452.2168 693.95703 C 452.2168 680.30298 463.93423 668.58789 477.58789 668.58789 L 480.06641 668.58789 L 480.06641 665.25781 C 437.4511 653.48774 408.67425 612.59481 408.62695 567.76758 L 408.62695 567.75781 L 408.62695 567.74805 C 408.62695 534.71742 425.01675 505.3472 450.06641 487.33203 C 447.12385 485.10666 444.11505 483.04229 441.04688 481.14062 C 426.73142 490.52507 409.63382 496 391.32422 496 C 372.48332 496 354.92448 490.20561 340.36133 480.31641 z "
       id="path2176" />
    <path
       style="fill:url(#linearGradient4260);fill-opacity:1;stroke:none;stroke-width:14;stroke-miterlimit:4;stroke-dasharray:none;stroke-opacity:1"
       d="M 390.27344 340.18359 C 367.28911 342.66629 355.49295 352.03848 347.14062 363.36914 C 344.42457 367.05373 342.29365 371.01376 340.41602 375.01758 C 347.34982 373.59158 354.45011 371.89493 360.74805 369.5332 C 374.47942 364.38395 389.41602 341.73633 389.41602 341.73633 L 390.27344 340.18359 z M 425.77734 347.79688 C 426.20175 348.32334 426.08283 348.24589 426.54688 348.80273 C 429.35112 352.16783 432.63762 355.36074 435.37305 357.74023 C 432.61778 353.98882 429.46905 350.62579 425.77734 347.79688 z M 406.24023 379.98047 C 398.46767 388.64051 387.69393 397.87577 373.38867 403.24023 C 351.45545 411.4652 327.22344 414.1495 319.02539 414.86719 A 73.349594 72.953911 0 0 0 391.4375 476.4707 A 73.349594 72.953911 0 0 0 464.58203 407.57617 L 463.96289 407.41797 C 463.96289 407.41797 456.49114 405.50498 447.50391 402.63672 C 438.51668 399.76845 428.39192 396.51619 419.35352 390.86719 C 414.11354 387.5922 409.94864 383.80193 406.24023 379.98047 z "
       id="circle2187-6" />
    <path
       style="fill:#99b000;fill-rule:evenodd;stroke:none;stroke-width:1px;stroke-linecap:butt;stroke-linejoin:miter;stroke-opacity:1"
       d="m 315.30771,398.90245 c 0,0 29.47499,-2.15672 52.47987,-10.78354 23.00487,-8.62682 38.10183,-35.94511 38.10183,-35.94511 0,0 12.22134,17.97255 23.72377,25.16158 11.50245,7.18902 39.53964,14.37804 39.53964,14.37804 0,0 -11.50245,-71.89024 -74.04696,-68.29573 -62.54449,3.59451 -75.48474,53.91769 -79.79815,75.48476 z"
       id="path4213"
       inkscape:connector-curvature="0" />
    <rect
       style="fill:none;fill-rule:evenodd;stroke:none;stroke-width:1px;stroke-linecap:butt;stroke-linejoin:miter;stroke-opacity:1"
       id="rect3336"
       width="400"
       height="400"
       x="189.57619"
       y="322.49423"
       inkscape:export-xdpi="4.9499998"
       inkscape:export-ydpi="4.9499998" />
    <path
       inkscape:connector-curvature="0"
       id="path4230"
       d="m 507.75375,486.71086 c -44.80028,0 -81.12593,36.28153 -81.12593,81.03765 0.0442,41.88681 29.68362,78.84447 71.43827,82.64044 l 0,36.19815 -20.47742,0 c -4.1047,0 -7.37094,3.2663 -7.37094,7.37057 l 0,0.0444 c 0,4.10494 3.26624,10.91212 7.37094,10.91212 l 20.47742,0 0,14.72994 c 0,4.0608 5.6269,3.3712 9.68766,3.3712 4.10488,0 9.73179,0.6896 9.73179,-3.3712 l 0,-14.72994 20.43328,0 c 4.06073,0 7.32699,-6.80718 7.32699,-10.91212 l 0,-0.0444 c 0,-4.10427 -3.26626,-7.37057 -7.32699,-7.37057 l -20.43328,0 0,-36.15401 c 41.75442,-3.79597 71.39414,-40.79777 71.43828,-82.68458 0,-44.75612 -36.32596,-81.03765 -81.17007,-81.03765 z m 0.0442,18.74969 c 36.67907,0 62.023,25.38842 62.023,62.11139 0,36.72322 -25.34393,66.51616 -62.023,66.51616 -36.6347,0 -62.02313,-29.79294 -62.02313,-66.51616 0,-36.72297 25.38843,-62.11139 62.02313,-62.11139 z"
       style="fill:#99b000;fill-opacity:1;fill-rule:evenodd;stroke:none"
       sodipodi:nodetypes="scccsssscssscsssscccssssss" />
  </g>
</svg>
