<?xml version="1.0" encoding="UTF-8" standalone="no"?>
<!-- Created with Inkscape (http://www.inkscape.org/) -->

<svg
   xmlns:dc="http://purl.org/dc/elements/1.1/"
   xmlns:cc="http://creativecommons.org/ns#"
   xmlns:rdf="http://www.w3.org/1999/02/22-rdf-syntax-ns#"
   xmlns:svg="http://www.w3.org/2000/svg"
   xmlns="http://www.w3.org/2000/svg"
   xmlns:xlink="http://www.w3.org/1999/xlink"
   xmlns:sodipodi="http://sodipodi.sourceforge.net/DTD/sodipodi-0.dtd"
   xmlns:inkscape="http://www.inkscape.org/namespaces/inkscape"
   width="210mm"
   height="297mm"
   viewBox="0 0 744.09448819 1052.3622047"
   id="svg2"
   version="1.1"
   inkscape:version="0.91 r13725"
   inkscape:export-xdpi="4.9492698"
   inkscape:export-ydpi="4.9492698"
   sodipodi:docname="user-bachelor.svg"
   inkscape:export-filename="C:\Users\johannes\Documents\Arbeit\RRZE\github3\bicons\22x22\categories\user-bachelor.png">
  <defs
     id="defs4">
    <linearGradient
       id="linearGradient15218">
      <stop
         style="stop-color:#eeeeef;stop-opacity:1;"
         offset="0"
         id="stop4207" />
      <stop
         style="stop-color:#d3d7cf;stop-opacity:1;"
         offset="0.59928656"
         id="stop4209" />
      <stop
         style="stop-color:#ffffff;stop-opacity:1;"
         offset="0.82758623"
         id="stop4211" />
      <stop
         style="stop-color:#d3d7cf;stop-opacity:1;"
         offset="1"
         id="stop4213" />
    </linearGradient>
    <linearGradient
       id="linearGradient2224">
      <stop
         id="stop2226"
         offset="0"
         style="stop-color:#7c7c7c;stop-opacity:1;" />
      <stop
         id="stop2228"
         offset="1"
         style="stop-color:#b8b8b8;stop-opacity:1;" />
    </linearGradient>
    <linearGradient
       id="linearGradient4215">
      <stop
         id="stop15220"
         offset="0"
         style="stop-color:#eeeeef;stop-opacity:1;" />
      <stop
         id="stop2736"
         offset="0.59928656"
         style="stop-color:#d3d7cf;stop-opacity:1;" />
      <stop
         id="stop2738"
         offset="0.82758623"
         style="stop-color:#ffffff;stop-opacity:1;" />
      <stop
         id="stop15222"
         offset="1"
         style="stop-color:#d3d7cf;stop-opacity:1;" />
    </linearGradient>
    <pattern
       y="0"
       x="0"
       height="6"
       width="6"
       patternUnits="userSpaceOnUse"
       id="EMFhbasepattern" />
    <pattern
       y="0"
       x="0"
       height="6"
       width="6"
       patternUnits="userSpaceOnUse"
       id="EMFhbasepattern-5" />
    <linearGradient
       inkscape:collect="always"
       xlink:href="#linearGradient4254"
       id="linearGradient4268"
       x1="471.69119"
       y1="457.14825"
       x2="375.74777"
       y2="664.98523"
       gradientUnits="userSpaceOnUse"
       gradientTransform="matrix(1.1386133,0,0,1.1359509,-273.6767,-20.316326)" />
    <linearGradient
       inkscape:collect="always"
       id="linearGradient4254">
      <stop
         style="stop-color:#7a8597;stop-opacity:1"
         offset="0"
         id="stop4256" />
      <stop
         style="stop-color:#4e505d;stop-opacity:1"
         offset="1"
         id="stop4258" />
    </linearGradient>
    <linearGradient
       inkscape:collect="always"
       xlink:href="#linearGradient4254"
       id="linearGradient4260"
       x1="425.62207"
       y1="330.38269"
       x2="376.55045"
       y2="461.45456"
       gradientUnits="userSpaceOnUse"
       gradientTransform="matrix(1.1116851,0,0,1.1090857,-264.45081,-12.810996)" />
  </defs>
  <sodipodi:namedview
     id="base"
     pagecolor="#ffffff"
     bordercolor="#666666"
     borderopacity="1.0"
     inkscape:pageopacity="0.0"
     inkscape:pageshadow="2"
     inkscape:zoom="0.70710678"
     inkscape:cx="305.96832"
     inkscape:cy="561.85368"
     inkscape:document-units="px"
     inkscape:current-layer="layer1"
     showgrid="false"
     showguides="true"
     inkscape:guide-bbox="true"
     inkscape:window-width="1366"
     inkscape:window-height="721"
     inkscape:window-x="-4"
     inkscape:window-y="-4"
     inkscape:window-maximized="1"
     inkscape:snap-bbox="true"
     inkscape:bbox-paths="true"
     inkscape:bbox-nodes="true">
    <sodipodi:guide
       position="315.53572,730.17859"
       orientation="0,1"
       id="guide3338" />
    <sodipodi:guide
       position="351.25,330.17858"
       orientation="0,1"
       id="guide3340" />
    <sodipodi:guide
       position="189.10714,408.8393"
       orientation="1,0"
       id="guide3344" />
    <sodipodi:guide
       position="589.04521,468.07945"
       orientation="1,0"
       id="guide3346" />
    <inkscape:grid
       type="xygrid"
       id="grid3440" />
    <sodipodi:guide
       position="589.04521,378.30213"
       orientation="1,0"
       id="guide3411" />
  </sodipodi:namedview>
  <metadata
     id="metadata7">
    <rdf:RDF>
      <cc:Work
         rdf:about="">
        <dc:format>image/svg+xml</dc:format>
        <dc:type
           rdf:resource="http://purl.org/dc/dcmitype/StillImage" />
        <dc:title>user bachelor</dc:title>
        <dc:date>June 2015</dc:date>
        <dc:creator>
          <cc:Agent>
            <dc:title>Johannes Hechler</dc:title>
          </cc:Agent>
        </dc:creator>
        <dc:rights>
          <cc:Agent>
            <dc:title>Johannes Hechler</dc:title>
          </cc:Agent>
        </dc:rights>
        <dc:publisher>
          <cc:Agent>
            <dc:title>RRZE</dc:title>
          </cc:Agent>
        </dc:publisher>
        <dc:contributor>
          <cc:Agent>
            <dc:title>Ute Weber, Hendrik Eggers</dc:title>
          </cc:Agent>
        </dc:contributor>
      </cc:Work>
    </rdf:RDF>
  </metadata>
  <g
     inkscape:label="Ebene 1"
     inkscape:groupmode="layer"
     id="layer1">
    <g
       id="g4199"
       transform="translate(217.13665,-32.04576)">
      <rect
         inkscape:export-ydpi="4.9499998"
         inkscape:export-xdpi="4.9499998"
         y="354.57623"
         x="-28.029514"
         height="399.0647"
         width="400"
         id="rect3336"
         style="fill:none;fill-rule:evenodd;stroke:none;stroke-width:1px;stroke-linecap:butt;stroke-linejoin:miter;stroke-opacity:1" />
      <path
         sodipodi:nodetypes="cscccccccccccccccccccccccc"
         inkscape:connector-curvature="0"
         id="path2176"
         d="m 118.28001,517.05556 c -48.591186,28.71764 -78.847658,88.00955 -78.847658,168.90039 0,17.37443 1.588954,34.20911 4.552734,50.22461 4.39616,9.8116 15.442804,17.00211 28.67774,17.94141 l 0,0.10937 57.054684,0 c -0.0859,0.0857 -0.17209,0.18472 -0.25781,0.26367 l 79.10156,0 c -0.005,-0.0885 -0.01,-0.17705 -0.0137,-0.26562 l 0,-176.73047 c 9.9e-4,-9.94071 8.05929,-17.99901 18,-18 l 45.17383,0 c -12.14794,-17.70238 -27.19096,-31.90033 -44.58395,-42.17969 l -6.50782,0.0293 -48.78711,-0.0508 z m 126.26758,78.44336 0,140.73047 13.76367,0 c -7.28121,-2.48396 -12.1792,-9.32043 -12.18945,-17.01367 l 0,-38.28321 c 0.0102,-8.35615 5.76922,-15.60672 13.90625,-17.50781 -8.13632,-1.90092 -13.89517,-9.15044 -13.90625,-17.50586 l 0,-37.40625 c 0.009,-4.92061 2.03161,-9.62312 5.59766,-13.01367 z"
         style="fill:url(#linearGradient4268);fill-opacity:1;stroke:none;stroke-width:41.15159225;stroke-linecap:round;stroke-linejoin:round;stroke-opacity:1" />
      <path
         id="circle2187-6"
         d="m 141.72142,372.22948 a 18.0018,18.0018 0 0 1 -6.11914,13.72461 c -1.70558,1.4927 -3.24208,3.13888 -4.73634,4.81445 l 82.22853,0 c -1.49458,-1.68073 -3.03141,-3.33066 -4.7383,-4.82812 a 18.0018,18.0018 0 0 1 -6.1035,-13.71094 l -60.53125,0 z m 103.26367,54.36133 a 18.0018,18.0018 0 0 1 -2.38086,0.17773 l -141.28515,0 a 18.0018,18.0018 0 0 1 -2.289074,-0.15039 72.979141,72.415733 0 0 0 -0.002,0.0273 72.979141,72.415733 0 0 0 72.980474,72.41602 72.979141,72.415733 0 0 0 72.97851,-72.41602 72.979141,72.415733 0 0 0 -0.002,-0.0547 z"
         style="fill:url(#linearGradient4260);fill-opacity:1;stroke:none;stroke-width:14;stroke-miterlimit:4;stroke-dasharray:none;stroke-opacity:1"
         inkscape:connector-curvature="0" />
      <path
         id="rect4211"
         d="m 53.919878,354.22944 c -4.91019,0 -9.17188,4.1152 -9.17188,9.02539 l 0,0.73243 c 0,4.91018 4.041,8.42189 8.95117,8.42187 l 70.046882,0 c -10.98308,9.61235 -18.79767,22.2812 -22.42774,36.35938 l 141.28516,0 c -3.61611,-14.07204 -11.41257,-26.74019 -22.37695,-36.35938 l 60.86133,0.0449 0,63.20118 0,18.74023 c 0,4.93837 3.95309,8.91406 8.86328,8.91406 l 0.45312,0 18.17969,0 c 4.91017,0 8.86328,-3.97569 8.86328,-8.91406 l 0,-18.74023 c 0,-4.93838 -3.95311,-8.91407 -8.86328,-8.91407 l -9.31641,0 0,-63.14453 0,-0.73242 c 0,-0.30823 -0.0143,-0.6119 -0.0449,-0.91016 -0.42453,-4.17686 -3.74774,-7.28572 -7.93164,-7.68164 -0.29885,-0.0285 -0.60327,-0.043 -0.91016,-0.043 l -0.45312,0 -236.007812,0 z"
         style="color:#000000;clip-rule:nonzero;display:inline;overflow:visible;visibility:visible;opacity:1;isolation:auto;mix-blend-mode:normal;color-interpolation:sRGB;color-interpolation-filters:linearRGB;solid-color:#000000;solid-opacity:1;fill:#2f3037;fill-opacity:1;fill-rule:evenodd;stroke:none;stroke-width:50;stroke-linecap:butt;stroke-linejoin:round;stroke-miterlimit:4;stroke-dasharray:none;stroke-dashoffset:0;stroke-opacity:1;color-rendering:auto;image-rendering:auto;shape-rendering:auto;text-rendering:auto;enable-background:accumulate"
         inkscape:connector-curvature="0" />
      <g
         id="text4232"
         style="font-style:normal;font-weight:normal;font-size:242.42965698px;line-height:125%;font-family:sans-serif;text-align:end;letter-spacing:0px;word-spacing:0px;text-anchor:end;fill:#000000;fill-opacity:1;stroke:none;stroke-width:1px;stroke-linecap:butt;stroke-linejoin:miter;stroke-opacity:1"
         transform="translate(-27.971945,-298.13275)">
        <path
           sodipodi:nodetypes="ssscsccsscscsccscssssccscscc"
           inkscape:connector-curvature="0"
           id="path4237"
           style="font-style:normal;font-variant:normal;font-weight:bold;font-stretch:normal;font-family:sans-serif;-inkscape-font-specification:'sans-serif Bold';fill:#99b000"
           d="m 325.30756,944.0501 c 7.18135,0 12.62654,-1.57832 16.33559,-4.73495 3.70905,-3.15663 5.56357,-7.81267 5.56357,-13.96811 0,-6.07653 -1.85452,-10.69311 -5.56357,-13.84975 -3.70905,-3.23555 -9.15424,-4.85332 -16.33559,-4.85332 l -33.21363,0 0,37.40613 z m 1.53886,73.2981 c 9.15425,0 16.01993,-1.9334 20.59705,-5.8003 4.65604,-3.8669 6.98406,-5.7066 6.98406,-13.51932 0,-7.65484 -2.28856,-9.37624 -6.86569,-13.16421 -4.57712,-3.86688 -11.49751,-5.26983 -20.71542,-5.80032 l -34.75249,0 0,38.28415 z m 42.37784,-59.56673 c 9.78557,2.84097 17.3615,8.08888 22.72778,15.74372 5.36628,7.65485 8.04942,17.04585 8.04942,28.17301 0,17.0458 -5.76086,29.7513 -17.28258,38.1164 -11.52172,8.3651 -29.04105,12.5476 -52.55799,12.5476 l -75.6409,0 0,-176.73218 68.42009,0 c 24.54285,0 42.29893,3.70905 53.26824,11.12714 11.04823,7.41809 16.57234,19.29494 16.57234,35.63053 0,8.60183 -2.01236,15.94101 -6.03707,22.01754 -4.02471,5.99761 -9.86449,10.45635 -17.51933,13.37624 z" />
      </g>
    </g>
  </g>
</svg>
