<?xml version="1.0" encoding="UTF-8" standalone="no"?>
<!-- Created with Inkscape (http://www.inkscape.org/) -->

<svg
   xmlns:dc="http://purl.org/dc/elements/1.1/"
   xmlns:cc="http://creativecommons.org/ns#"
   xmlns:rdf="http://www.w3.org/1999/02/22-rdf-syntax-ns#"
   xmlns:svg="http://www.w3.org/2000/svg"
   xmlns="http://www.w3.org/2000/svg"
   xmlns:xlink="http://www.w3.org/1999/xlink"
   xmlns:sodipodi="http://sodipodi.sourceforge.net/DTD/sodipodi-0.dtd"
   xmlns:inkscape="http://www.inkscape.org/namespaces/inkscape"
   width="210mm"
   height="297mm"
   viewBox="0 0 744.09448819 1052.3622047"
   id="svg2"
   version="1.1"
   inkscape:version="0.91 r13725"
   inkscape:export-xdpi="4"
   inkscape:export-ydpi="4"
   sodipodi:docname="user-manager.svg">
  <defs
     id="defs4">
    <linearGradient
       inkscape:collect="always"
       id="linearGradient4217">
      <stop
         style="stop-color:#99b000;stop-opacity:1;"
         offset="0"
         id="stop4219" />
      <stop
         style="stop-color:#a9bc24;stop-opacity:1"
         offset="1"
         id="stop4221" />
    </linearGradient>
    <linearGradient
       id="linearGradient15218">
      <stop
         style="stop-color:#eeeeef;stop-opacity:1;"
         offset="0"
         id="stop4207" />
      <stop
         style="stop-color:#d3d7cf;stop-opacity:1;"
         offset="0.59928656"
         id="stop4209" />
      <stop
         style="stop-color:#ffffff;stop-opacity:1;"
         offset="0.82758623"
         id="stop4211" />
      <stop
         style="stop-color:#d3d7cf;stop-opacity:1;"
         offset="1"
         id="stop4213" />
    </linearGradient>
    <linearGradient
       id="linearGradient2224">
      <stop
         id="stop2226"
         offset="0"
         style="stop-color:#7c7c7c;stop-opacity:1;" />
      <stop
         id="stop2228"
         offset="1"
         style="stop-color:#b8b8b8;stop-opacity:1;" />
    </linearGradient>
    <linearGradient
       id="linearGradient4215">
      <stop
         id="stop15220"
         offset="0"
         style="stop-color:#eeeeef;stop-opacity:1;" />
      <stop
         id="stop2736"
         offset="0.59928656"
         style="stop-color:#d3d7cf;stop-opacity:1;" />
      <stop
         id="stop2738"
         offset="0.82758623"
         style="stop-color:#ffffff;stop-opacity:1;" />
      <stop
         id="stop15222"
         offset="1"
         style="stop-color:#d3d7cf;stop-opacity:1;" />
    </linearGradient>
    <pattern
       y="0"
       x="0"
       height="6"
       width="6"
       patternUnits="userSpaceOnUse"
       id="EMFhbasepattern" />
    <pattern
       y="0"
       x="0"
       height="6"
       width="6"
       patternUnits="userSpaceOnUse"
       id="EMFhbasepattern-5" />
    <linearGradient
       inkscape:collect="always"
       xlink:href="#linearGradient4217"
       id="linearGradient4223"
       x1="244.35135"
       y1="476.63928"
       x2="241.33804"
       y2="477.16104"
       gradientUnits="userSpaceOnUse" />
    <linearGradient
       inkscape:collect="always"
       xlink:href="#linearGradient4254"
       id="linearGradient4268"
       x1="471.69119"
       y1="457.14825"
       x2="375.74777"
       y2="664.98523"
       gradientUnits="userSpaceOnUse"
       gradientTransform="matrix(1.1386133,0,0,1.1386133,-56.738454,-52.620814)" />
    <linearGradient
       inkscape:collect="always"
       id="linearGradient4254">
      <stop
         style="stop-color:#7a8597;stop-opacity:1"
         offset="0"
         id="stop4256" />
      <stop
         style="stop-color:#4e505d;stop-opacity:1"
         offset="1"
         id="stop4258" />
    </linearGradient>
    <linearGradient
       inkscape:collect="always"
       xlink:href="#linearGradient4254"
       id="linearGradient4260"
       x1="425.62207"
       y1="330.38269"
       x2="376.55045"
       y2="461.45456"
       gradientUnits="userSpaceOnUse"
       gradientTransform="matrix(1.1116851,0,0,1.1116851,-47.512567,-45.097894)" />
  </defs>
  <sodipodi:namedview
     id="base"
     pagecolor="#ffffff"
     bordercolor="#666666"
     borderopacity="1.0"
     inkscape:pageopacity="0.0"
     inkscape:pageshadow="2"
     inkscape:zoom="1"
     inkscape:cx="510.15327"
     inkscape:cy="583.0877"
     inkscape:document-units="px"
     inkscape:current-layer="layer1"
     showgrid="false"
     showguides="true"
     inkscape:guide-bbox="true"
     inkscape:window-width="1366"
     inkscape:window-height="721"
     inkscape:window-x="-4"
     inkscape:window-y="-4"
     inkscape:window-maximized="1">
    <sodipodi:guide
       position="315.53572,730.17859"
       orientation="0,1"
       id="guide3338" />
    <sodipodi:guide
       position="351.25,330.17858"
       orientation="0,1"
       id="guide3340" />
    <sodipodi:guide
       position="189.10714,408.8393"
       orientation="1,0"
       id="guide3344" />
    <sodipodi:guide
       position="589.04521,468.07945"
       orientation="1,0"
       id="guide3346" />
    <inkscape:grid
       type="xygrid"
       id="grid3440" />
    <sodipodi:guide
       position="589.04521,378.30213"
       orientation="1,0"
       id="guide3411" />
  </sodipodi:namedview>
  <metadata
     id="metadata7">
    <rdf:RDF>
      <cc:Work
         rdf:about="">
        <dc:format>image/svg+xml</dc:format>
        <dc:type
           rdf:resource="http://purl.org/dc/dcmitype/StillImage" />
        <dc:title>user manager</dc:title>
        <dc:date>June 2015</dc:date>
        <dc:creator>
          <cc:Agent>
            <dc:title>Johannes Hechler</dc:title>
          </cc:Agent>
        </dc:creator>
        <dc:rights>
          <cc:Agent>
            <dc:title>Johannes Hechler</dc:title>
          </cc:Agent>
        </dc:rights>
        <dc:publisher>
          <cc:Agent>
            <dc:title>RRZE</dc:title>
          </cc:Agent>
        </dc:publisher>
        <dc:contributor>
          <cc:Agent>
            <dc:title>Ute Weber, Hendrik Eggers</dc:title>
          </cc:Agent>
        </dc:contributor>
      </cc:Work>
    </rdf:RDF>
  </metadata>
  <g
     inkscape:label="Ebene 1"
     inkscape:groupmode="layer"
     id="layer1">
    <flowRoot
       xml:space="preserve"
       id="flowRoot4169"
       style="font-style:normal;font-weight:normal;font-size:40px;line-height:125%;font-family:sans-serif;letter-spacing:0px;word-spacing:0px;fill:#252525;fill-opacity:1;stroke:none;stroke-width:1px;stroke-linecap:butt;stroke-linejoin:miter;stroke-opacity:1"><flowRegion
         id="flowRegion4171"><rect
           id="rect4173"
           width="56.433445"
           height="88.78862"
           x="89.541069"
           y="427.07962" /></flowRegion><flowPara
         id="flowPara4175" /></flowRoot>    <g
       id="g4170"
       transform="matrix(7.4538214,0,0,7.4538214,-1411.0265,-3003.177)"
       style="fill:url(#linearGradient4223);fill-opacity:1" />
    <g
       id="g4219"
       transform="translate(1.1061852,-0.08998143)">
      <rect
         inkscape:export-ydpi="4.9499998"
         inkscape:export-xdpi="4.9499998"
         y="323.15042"
         x="188.90874"
         height="400"
         width="400"
         id="rect3336"
         style="fill:none;fill-rule:evenodd;stroke:none;stroke-width:1px;stroke-linecap:butt;stroke-linejoin:miter;stroke-opacity:1" />
      <path
         sodipodi:nodetypes="cccsccccccscscc"
         inkscape:connector-curvature="0"
         id="path2176"
         d="m 345.0623,477.61498 c -0.13373,0.11831 -0.25561,0.24544 -0.39362,0.36026 l -7.44991,4.0363 c -48.59119,28.78495 -80.84746,92.21556 -80.84746,173.29601 0,17.41501 1.58844,34.28843 4.55222,50.34138 4.39616,9.83465 15.44167,17.04285 28.6766,17.98432 l 0,0.10897 196.70879,0 0,-0.009 c 14.85491,-0.20969 27.36615,-8.29299 31.56983,-19.37423 2.81283,-15.66639 4.31651,-32.1015 4.31651,-49.05155 0,-84.88289 -35.54817,-150.99702 -87.78144,-177.07211 -12.47076,7.00181 -28.84599,7.01919 -44.13314,7.01919 -15.73277,2e-5 -32.5,-0.25447 -45.21838,-7.63964 z"
         style="fill:url(#linearGradient4268);fill-opacity:1;stroke:none;stroke-width:41.15159225;stroke-linecap:round;stroke-linejoin:round;stroke-opacity:1" />
      <ellipse
         ry="72.585457"
         rx="72.979141"
         cx="388.94629"
         cy="395.38831"
         id="circle2187-6"
         style="fill:url(#linearGradient4260);fill-opacity:1;stroke:none;stroke-width:14;stroke-miterlimit:4;stroke-dasharray:none;stroke-opacity:1" />
    </g>
    <path
       sodipodi:nodetypes="ssccssssssssccssscscccccccscsssccssscscssssc"
       inkscape:connector-curvature="0"
       id="path4341"
       d="m 465.29655,524.10875 c -11.52134,0 -20.66159,2.47781 -20.66159,17.99931 l 0,18.34345 0,0.12734 -28.66443,0 c -14.0976,0 -25.44497,11.34752 -25.44497,25.44495 l 0,39.93201 c 0,14.09759 11.34737,25.44505 25.44497,25.44505 l 148.67001,0 c 14.0975,0 25.46097,-11.34746 25.46097,-25.44505 l 0,-39.93201 c 0,-14.09751 -11.36347,-25.44495 -25.46097,-25.44495 l -27.65348,0 0,-0.12734 0,-18.34345 c 0,-11.35048 -11.64025,-17.99931 -23.16161,-17.99931 z m 6.1047,18.81465 37.47353,0 c 4.19872,0 7.38446,0.026 8.5777,1.73188 l 0.11198,16.17382 -53.61295,-0.25 -0.11198,-16.17382 c 1.78266,-2.01459 3.4958,-1.61469 7.5617,-1.48188 z m 110.3409,122.14691 c -5.04535,2.98446 -10.98641,6.1109 -17.10161,4.81777 l -9.45801,0 0,23.25672 c 0,4.69908 -4.35022,2.53346 -9.0494,2.53346 -4.69917,0 -9.84831,2.09933 -9.7995,-2.78346 l 0.25,-23.00672 -90.55619,0 -0.25,23.11837 c -0.0508,4.69889 -4.60025,2.78347 -9.29943,2.78347 -4.69908,0 -10.14111,2.41479 -10.04941,-2.28347 l 0.5,-23.61837 -12.95807,0 c -6.14906,0 -11.85647,-1.79466 -16.84635,-4.69021 l 0,41.49451 c 0,9.39844 7.5756,16.95801 16.974,16.95801 l 150.67004,0 c 9.39832,0 16.97393,-7.55957 16.97393,-16.95801 z"
       style="opacity:1;fill:#99b000;fill-opacity:1;stroke:#ffffff;stroke-width:35;stroke-linecap:butt;stroke-linejoin:round;stroke-miterlimit:4;stroke-dasharray:none;stroke-opacity:1" />
    <path
       style="opacity:1;fill:#99b000;fill-opacity:1;stroke:none;stroke-width:15;stroke-linecap:butt;stroke-linejoin:round;stroke-miterlimit:4;stroke-dasharray:none;stroke-opacity:1"
       d="m 465.29655,524.10875 c -11.52134,0 -20.66159,2.47781 -20.66159,17.99931 l 0,18.34345 0,0.12734 -28.66443,0 c -14.0976,0 -25.44497,11.34752 -25.44497,25.44495 l 0,39.93201 c 0,14.09759 11.34737,25.44505 25.44497,25.44505 l 148.67001,0 c 14.0975,0 25.46097,-11.34746 25.46097,-25.44505 l 0,-39.93201 c 0,-14.09751 -11.36347,-25.44495 -25.46097,-25.44495 l -27.65348,0 0,-0.12734 0,-18.34345 c 0,-11.35048 -11.64025,-17.99931 -23.16161,-17.99931 z m 6.1047,18.81465 37.47353,0 c 4.19872,0 7.38446,0.026 8.5777,1.73188 l 0.11198,16.17382 -53.61295,-0.25 -0.11198,-16.17382 c 1.78266,-2.01459 3.4958,-1.61469 7.5617,-1.48188 z m 110.3409,122.14691 c -5.04535,2.98446 -10.98641,6.1109 -17.10161,4.81777 l -9.45801,0 0,23.25672 c 0,4.69908 -4.35022,2.53346 -9.0494,2.53346 -4.69917,0 -9.84831,2.09933 -9.7995,-2.78346 l 0.25,-23.00672 -90.55619,0 -0.25,23.11837 c -0.0508,4.69889 -4.60025,2.78347 -9.29943,2.78347 -4.69908,0 -10.14111,2.41479 -10.04941,-2.28347 l 0.5,-23.61837 -12.95807,0 c -6.14906,0 -11.85647,-1.79466 -16.84635,-4.69021 l 0,41.49451 c 0,9.39844 7.5756,16.95801 16.974,16.95801 l 150.67004,0 c 9.39832,0 16.97393,-7.55957 16.97393,-16.95801 z"
       id="rect4177"
       inkscape:connector-curvature="0"
       sodipodi:nodetypes="ssccssssssssccssscscccccccscsssccssscscssssc" />
  </g>
</svg>
