<?xml version="1.0" encoding="UTF-8" standalone="no"?>
<!-- Created with Inkscape (http://www.inkscape.org/) -->

<svg
   xmlns:dc="http://purl.org/dc/elements/1.1/"
   xmlns:cc="http://creativecommons.org/ns#"
   xmlns:rdf="http://www.w3.org/1999/02/22-rdf-syntax-ns#"
   xmlns:svg="http://www.w3.org/2000/svg"
   xmlns="http://www.w3.org/2000/svg"
   xmlns:xlink="http://www.w3.org/1999/xlink"
   xmlns:sodipodi="http://sodipodi.sourceforge.net/DTD/sodipodi-0.dtd"
   xmlns:inkscape="http://www.inkscape.org/namespaces/inkscape"
   width="210mm"
   height="297mm"
   viewBox="0 0 744.09448819 1052.3622047"
   id="svg2"
   version="1.1"
   inkscape:version="0.91 r13725"
   inkscape:export-xdpi="4.9497824"
   inkscape:export-ydpi="4.9497824"
   sodipodi:docname="user-early-student.svg"
   inkscape:export-filename="C:\Users\johannes\Documents\Arbeit\RRZE\github3\bicons\22x22\categories\user-early-student.png">
  <defs
     id="defs4">
    <linearGradient
       id="linearGradient2224">
      <stop
         id="stop2226"
         offset="0"
         style="stop-color:#7c7c7c;stop-opacity:1;" />
      <stop
         id="stop2228"
         offset="1"
         style="stop-color:#b8b8b8;stop-opacity:1;" />
    </linearGradient>
    <linearGradient
       id="linearGradient15218">
      <stop
         id="stop15220"
         offset="0"
         style="stop-color:#eeeeef;stop-opacity:1;" />
      <stop
         id="stop2736"
         offset="0.59928656"
         style="stop-color:#d3d7cf;stop-opacity:1;" />
      <stop
         id="stop2738"
         offset="0.82758623"
         style="stop-color:#ffffff;stop-opacity:1;" />
      <stop
         id="stop15222"
         offset="1"
         style="stop-color:#d3d7cf;stop-opacity:1;" />
    </linearGradient>
    <pattern
       y="0"
       x="0"
       height="6"
       width="6"
       patternUnits="userSpaceOnUse"
       id="EMFhbasepattern" />
    <pattern
       y="0"
       x="0"
       height="6"
       width="6"
       patternUnits="userSpaceOnUse"
       id="EMFhbasepattern-5" />
    <linearGradient
       inkscape:collect="always"
       xlink:href="#linearGradient4254"
       id="linearGradient4260"
       x1="425.62207"
       y1="330.38269"
       x2="376.55045"
       y2="461.45456"
       gradientUnits="userSpaceOnUse"
       gradientTransform="matrix(1.1116851,0,0,1.1090857,-119.64624,70.55978)" />
    <linearGradient
       inkscape:collect="always"
       id="linearGradient4254">
      <stop
         style="stop-color:#7a8597;stop-opacity:1"
         offset="0"
         id="stop4256" />
      <stop
         style="stop-color:#4e505d;stop-opacity:1"
         offset="1"
         id="stop4258" />
    </linearGradient>
    <linearGradient
       inkscape:collect="always"
       xlink:href="#linearGradient4254"
       id="linearGradient4268"
       x1="471.69119"
       y1="457.14825"
       x2="375.74777"
       y2="664.98523"
       gradientUnits="userSpaceOnUse"
       gradientTransform="matrix(1.1386133,0,0,1.1359509,-128.87213,63.05445)" />
  </defs>
  <sodipodi:namedview
     id="base"
     pagecolor="#ffffff"
     bordercolor="#666666"
     borderopacity="1.0"
     inkscape:pageopacity="0.0"
     inkscape:pageshadow="2"
     inkscape:zoom="0.70710678"
     inkscape:cx="209.43239"
     inkscape:cy="554.20512"
     inkscape:document-units="px"
     inkscape:current-layer="layer1"
     showgrid="false"
     showguides="true"
     inkscape:guide-bbox="true"
     inkscape:window-width="1366"
     inkscape:window-height="721"
     inkscape:window-x="-4"
     inkscape:window-y="-4"
     inkscape:window-maximized="1"
     inkscape:snap-bbox="true"
     inkscape:bbox-paths="true"
     inkscape:bbox-nodes="true">
    <sodipodi:guide
       position="315.53572,730.17859"
       orientation="0,1"
       id="guide3338" />
    <sodipodi:guide
       position="351.25,330.17858"
       orientation="0,1"
       id="guide3340" />
    <sodipodi:guide
       position="189.10714,408.8393"
       orientation="1,0"
       id="guide3344" />
    <sodipodi:guide
       position="589.04521,468.07945"
       orientation="1,0"
       id="guide3346" />
    <inkscape:grid
       type="xygrid"
       id="grid3440" />
    <sodipodi:guide
       position="589.04521,378.30213"
       orientation="1,0"
       id="guide3411" />
  </sodipodi:namedview>
  <metadata
     id="metadata7">
    <rdf:RDF>
      <cc:Work
         rdf:about="">
        <dc:format>image/svg+xml</dc:format>
        <dc:type
           rdf:resource="http://purl.org/dc/dcmitype/StillImage" />
        <dc:title>user early student</dc:title>
        <dc:date>June 2015</dc:date>
        <dc:creator>
          <cc:Agent>
            <dc:title>Johannes Hechler</dc:title>
          </cc:Agent>
        </dc:creator>
        <dc:rights>
          <cc:Agent>
            <dc:title>Johannes Hechler</dc:title>
          </cc:Agent>
        </dc:rights>
        <dc:publisher>
          <cc:Agent>
            <dc:title>RRZE</dc:title>
          </cc:Agent>
        </dc:publisher>
        <dc:contributor>
          <cc:Agent>
            <dc:title>Ute Weber, Hendrik Eggers</dc:title>
          </cc:Agent>
        </dc:contributor>
      </cc:Work>
    </rdf:RDF>
  </metadata>
  <g
     inkscape:label="Ebene 1"
     inkscape:groupmode="layer"
     id="layer1">
    <g
       id="g4191"
       transform="translate(72.332091,-115.41649)">
      <rect
         inkscape:export-filename="C:\Users\johannes\Desktop\path4343.png"
         inkscape:export-ydpi="4.9497828"
         inkscape:export-xdpi="4.9497828"
         y="437.94702"
         x="116.77505"
         height="399.0647"
         width="400"
         id="rect3336"
         style="fill:none;fill-rule:evenodd;stroke:none;stroke-width:1px;stroke-linecap:butt;stroke-linejoin:miter;stroke-opacity:1" />
      <path
         inkscape:export-ydpi="4.9497828"
         inkscape:export-xdpi="4.9497828"
         inkscape:export-filename="C:\Users\johannes\Desktop\path4343.png"
         id="path2176"
         d="m 263.08365,600.42634 c -48.59118,28.71764 -78.84765,88.0095 -78.84765,168.90039 0,17.37428 1.58895,34.20911 4.55273,50.22461 4.39616,9.8116 15.4428,17.00211 28.67774,17.94141 l 0,0.10937 55.29492,0 c -0.25426,0.29049 -0.50799,0.55923 -0.76172,0.79297 l 143.29492,0 0,-0.10937 c 13.23493,-0.9393 24.28158,-8.12981 28.67774,-17.94141 2.96378,-16.0155 4.55273,-32.8503 4.55273,-50.22461 0,-3.27584 -0.0558,-6.51045 -0.1543,-9.71484 -11.87744,3.14203 -23.20705,11.62599 -35.48632,30.92578 -3.00768,4.7272 -7.77743,7.34798 -11.04883,8.36328 -3.2714,1.0153 -5.54656,1.04234 -7.375,1.02734 -3.29783,-0.0271 -5.31772,-0.41067 -6.90821,-0.67187 a 18.0018,18.0018 0 0 1 -20.84375,-7.16602 c -19.49229,-29.75969 -36.50849,-37.83567 -50.68945,-38.625 -14.18096,-0.78933 -29.03652,6.69874 -41.55469,18.32618 a 18.0018,18.0018 0 0 1 -29.5,-18.33008 c -0.24183,0.81129 -0.37834,1.31561 -0.46484,1.65429 -0.0924,0.53804 -0.18976,0.74295 0,0 0.0433,-0.25215 0.0837,-0.56547 0.0859,-0.8789 0.009,-1.28711 -0.0469,-3.29469 -0.11328,-5.45313 -0.0663,-2.15844 -0.14513,-4.46275 -0.11133,-6.8789 0.0338,-2.41614 -0.64854,-3.93681 1.47656,-9.87305 8.40899,-23.4896 19.92566,-40.52407 34.62891,-51.19141 11.02743,-8.00051 23.63285,-11.80601 35.90429,-12.28515 l 0,0.002 c 4.09048,-0.15972 8.1444,0.0502 12.08985,0.59766 23.67947,3.2859 44.3182,16.30394 60.66211,31.96679 11.95793,-13.02104 25.70441,-23.49436 41.46093,-28.5625 -6.54287,-15.34597 -14.74303,-28.97329 -24.41015,-40.70703 0.24687,-0.0704 0.48632,-0.15209 0.73437,-0.2207 -10.52569,-12.88427 -22.64693,-23.5403 -35.98629,-31.69927 l -54.27539,-0.0566 -53.5625,-0.24219 z m 54.5,104.77539 c -5.66722,0.0865 -10.66088,1.71374 -15.97656,5.57032 -3.26331,2.36755 -6.72941,5.96866 -10.17773,10.83007 8.35136,-2.48065 17.21801,-3.81082 26.59179,-3.28906 24.51349,1.36444 49.38465,15.6007 71.13282,44.12305 15.765,-20.95833 34.87174,-34.09138 55.83789,-38.14063 -0.91257,-5.64915 -2.00298,-11.14792 -3.25391,-16.5039 -11.57438,4.06329 -24.97942,15.14628 -37.18555,32.14453 a 18.0018,18.0018 0 0 1 -28.66211,0.76172 c -13.51497,-16.85069 -35.77089,-32.78939 -52.37695,-35.09375 -2.07576,-0.28804 -4.04061,-0.43115 -5.92969,-0.40235 z"
         style="fill:url(#linearGradient4268);fill-opacity:1;stroke:none;stroke-width:41.15159225;stroke-linecap:round;stroke-linejoin:round;stroke-opacity:1"
         inkscape:connector-curvature="0" />
      <path
         inkscape:export-ydpi="4.9497828"
         inkscape:export-xdpi="4.9497828"
         inkscape:export-filename="C:\Users\johannes\Desktop\path4343.png"
         id="circle2187-6"
         d="m 286.52599,455.60026 a 18.0018,18.0018 0 0 1 -6.11914,13.72461 c -1.70558,1.4927 -3.24208,3.13888 -4.73634,4.81445 l 82.22853,0 c -1.49458,-1.68073 -3.03141,-3.33066 -4.7383,-4.82812 a 18.0018,18.0018 0 0 1 -6.1035,-13.71094 l -60.53125,0 z m 103.26367,54.36133 a 18.0018,18.0018 0 0 1 -2.38086,0.17773 l -141.28515,0 a 18.0018,18.0018 0 0 1 -2.28907,-0.15039 72.979141,72.415733 0 0 0 -0.002,0.0273 72.979141,72.415733 0 0 0 72.98047,72.41602 72.979141,72.415733 0 0 0 72.97851,-72.41602 72.979141,72.415733 0 0 0 -0.002,-0.0547 z"
         style="fill:url(#linearGradient4260);fill-opacity:1;stroke:none;stroke-width:14;stroke-miterlimit:4;stroke-dasharray:none;stroke-opacity:1"
         inkscape:connector-curvature="0" />
      <path
         inkscape:export-ydpi="4.9497828"
         inkscape:export-xdpi="4.9497828"
         inkscape:export-filename="C:\Users\johannes\Desktop\path4343.png"
         id="rect4211-0"
         d="m 198.72428,437.60017 c -4.91019,0 -9.17188,4.1152 -9.17188,9.02539 l 0,0.73242 c 0,4.91018 4.041,8.4219 8.95117,8.42188 l 70.04688,0 c -10.98308,9.61235 -18.79766,22.28119 -22.42773,36.35937 l 141.28515,0 c -3.61611,-14.07204 -11.41257,-26.74018 -22.37695,-36.35937 l 60.86133,0.0449 0,63.20117 0,18.74024 c 0,4.93837 3.95309,8.91406 8.86328,8.91406 l 0.45312,0 18.17969,0 c 4.91017,0 8.86328,-3.97569 8.86328,-8.91406 l 0,-18.74024 c 0,-4.93838 -3.95311,-8.91406 -8.86328,-8.91406 l -9.3164,0 0,-63.14453 0,-0.73243 c 0,-0.30823 -0.0143,-0.61189 -0.0449,-0.91015 -0.42453,-4.17686 -3.74774,-7.28572 -7.93164,-7.68164 -0.29888,-0.0285 -0.60329,-0.043 -0.91018,-0.043 l -0.45313,0 -236.00781,0 z"
         style="color:#000000;clip-rule:nonzero;display:inline;overflow:visible;visibility:visible;opacity:1;isolation:auto;mix-blend-mode:normal;color-interpolation:sRGB;color-interpolation-filters:linearRGB;solid-color:#000000;solid-opacity:1;fill:#2f3037;fill-opacity:1;fill-rule:evenodd;stroke:none;stroke-width:50;stroke-linecap:butt;stroke-linejoin:round;stroke-miterlimit:4;stroke-dasharray:none;stroke-dashoffset:0;stroke-opacity:1;color-rendering:auto;image-rendering:auto;shape-rendering:auto;text-rendering:auto;enable-background:accumulate"
         inkscape:connector-curvature="0" />
      <path
         inkscape:export-ydpi="4.9497828"
         inkscape:export-xdpi="4.9497828"
         inkscape:export-filename="C:\Users\johannes\Desktop\path4343.png"
         style="fill:#99b000;fill-rule:evenodd;stroke:none;stroke-width:1px;stroke-linecap:butt;stroke-linejoin:miter;stroke-opacity:1"
         d="m 262.21506,759.39494 c 29.68416,-27.57199 76.61191,-41.93073 119.55026,23.62508 1.90661,-3.71801 13.87341,1.8831 15.93274,-1.3536 32.18425,-50.5852 72.35314,-49.46408 119.09456,-21.81779 -1.67196,-3.26291 0.28337,-16.37383 -1.39225,-19.37358 -43.53682,-77.94038 -91.71415,-58.04576 -125.46874,-11.03912 -31.30322,-39.02937 -96.83436,-75.22118 -127.14728,9.45464 -1.14461,3.19735 0.47921,16.98689 -0.56929,20.50437 z"
         id="path4343"
         inkscape:connector-curvature="0"
         sodipodi:nodetypes="ccscscsc" />
    </g>
  </g>
</svg>
