<?xml version="1.0" encoding="UTF-8" standalone="no"?>
<!-- Created with Inkscape (http://www.inkscape.org/) -->

<svg
   xmlns:dc="http://purl.org/dc/elements/1.1/"
   xmlns:cc="http://creativecommons.org/ns#"
   xmlns:rdf="http://www.w3.org/1999/02/22-rdf-syntax-ns#"
   xmlns:svg="http://www.w3.org/2000/svg"
   xmlns="http://www.w3.org/2000/svg"
   xmlns:xlink="http://www.w3.org/1999/xlink"
   xmlns:sodipodi="http://sodipodi.sourceforge.net/DTD/sodipodi-0.dtd"
   xmlns:inkscape="http://www.inkscape.org/namespaces/inkscape"
   width="210mm"
   height="297mm"
   viewBox="0 0 744.09448819 1052.3622047"
   id="svg2"
   version="1.1"
   inkscape:version="0.91 r13725"
   inkscape:export-xdpi="4.9492688"
   inkscape:export-ydpi="4.9492688"
   sodipodi:docname="user-student-assistant.svg"
   inkscape:export-filename="C:\Users\johannes\Documents\Arbeit\RRZE\github3\bicons\22x22\categories\user-student-assistant.png">
  <defs
     id="defs4">
    <linearGradient
       id="linearGradient2224">
      <stop
         style="stop-color:#7c7c7c;stop-opacity:1;"
         offset="0"
         id="stop4251" />
      <stop
         style="stop-color:#b8b8b8;stop-opacity:1;"
         offset="1"
         id="stop4253" />
    </linearGradient>
    <linearGradient
       id="linearGradient4255">
      <stop
         id="stop2226"
         offset="0"
         style="stop-color:#7c7c7c;stop-opacity:1;" />
      <stop
         id="stop2228"
         offset="1"
         style="stop-color:#b8b8b8;stop-opacity:1;" />
    </linearGradient>
    <linearGradient
       id="linearGradient15218">
      <stop
         id="stop15220"
         offset="0"
         style="stop-color:#eeeeef;stop-opacity:1;" />
      <stop
         id="stop2736"
         offset="0.59928656"
         style="stop-color:#d3d7cf;stop-opacity:1;" />
      <stop
         id="stop2738"
         offset="0.82758623"
         style="stop-color:#ffffff;stop-opacity:1;" />
      <stop
         id="stop15222"
         offset="1"
         style="stop-color:#d3d7cf;stop-opacity:1;" />
    </linearGradient>
    <pattern
       y="0"
       x="0"
       height="6"
       width="6"
       patternUnits="userSpaceOnUse"
       id="EMFhbasepattern" />
    <pattern
       y="0"
       x="0"
       height="6"
       width="6"
       patternUnits="userSpaceOnUse"
       id="EMFhbasepattern-5" />
    <pattern
       y="0"
       x="0"
       height="6"
       width="6"
       patternUnits="userSpaceOnUse"
       id="EMFhbasepattern-6" />
    <linearGradient
       inkscape:collect="always"
       id="linearGradient4250">
      <stop
         style="stop-color:#99b000;stop-opacity:1;"
         offset="0"
         id="stop4252" />
      <stop
         style="stop-color:#a9bc24;stop-opacity:1"
         offset="1"
         id="stop4254" />
    </linearGradient>
    <linearGradient
       inkscape:collect="always"
       xlink:href="#linearGradient4250"
       id="linearGradient4619"
       x1="93.757843"
       y1="566.36224"
       x2="146.24216"
       y2="566.36224"
       gradientUnits="userSpaceOnUse"
       gradientTransform="matrix(0.74664567,0.43107608,-0.43107608,0.74664567,1173.8037,75.317814)" />
    <linearGradient
       inkscape:collect="always"
       xlink:href="#linearGradient4254"
       id="linearGradient4268"
       x1="471.69119"
       y1="457.14825"
       x2="375.74777"
       y2="664.98523"
       gradientUnits="userSpaceOnUse"
       gradientTransform="matrix(1.1386133,0,0,1.1359509,-245.6472,-374.54572)" />
    <linearGradient
       inkscape:collect="always"
       id="linearGradient4254">
      <stop
         style="stop-color:#7a8597;stop-opacity:1"
         offset="0"
         id="stop4256" />
      <stop
         style="stop-color:#4e505d;stop-opacity:1"
         offset="1"
         id="stop4258" />
    </linearGradient>
    <linearGradient
       inkscape:collect="always"
       xlink:href="#linearGradient4254"
       id="linearGradient4260"
       x1="425.62207"
       y1="330.38269"
       x2="376.55045"
       y2="461.45456"
       gradientUnits="userSpaceOnUse"
       gradientTransform="matrix(1.1116851,0,0,1.1090857,-236.42131,285.32175)" />
  </defs>
  <sodipodi:namedview
     id="base"
     pagecolor="#ffffff"
     bordercolor="#666666"
     borderopacity="1.0"
     inkscape:pageopacity="0.0"
     inkscape:pageshadow="2"
     inkscape:zoom="0.5"
     inkscape:cx="419.32968"
     inkscape:cy="673.63482"
     inkscape:document-units="px"
     inkscape:current-layer="layer1"
     showgrid="false"
     showguides="true"
     inkscape:guide-bbox="true"
     inkscape:window-width="1366"
     inkscape:window-height="721"
     inkscape:window-x="-4"
     inkscape:window-y="-4"
     inkscape:window-maximized="1"
     inkscape:snap-bbox="true"
     inkscape:bbox-paths="true"
     inkscape:snap-bbox-edge-midpoints="true"
     inkscape:snap-nodes="false"
     inkscape:bbox-nodes="true">
    <sodipodi:guide
       position="315.53572,730.17859"
       orientation="0,1"
       id="guide3338" />
    <sodipodi:guide
       position="422.49631,329.51177"
       orientation="0,1"
       id="guide3340" />
    <sodipodi:guide
       position="189.10714,408.8393"
       orientation="1,0"
       id="guide3344" />
    <sodipodi:guide
       position="589.04521,468.07945"
       orientation="1,0"
       id="guide3346" />
    <inkscape:grid
       type="xygrid"
       id="grid3440" />
    <sodipodi:guide
       position="0,0"
       orientation="0,1"
       id="guide3405" />
    <sodipodi:guide
       position="214.125,684.50002"
       orientation="1,0"
       id="guide3407" />
    <sodipodi:guide
       position="0,0"
       orientation="0,1"
       id="guide3409" />
    <sodipodi:guide
       position="589.04521,378.30213"
       orientation="1,0"
       id="guide3411" />
    <sodipodi:guide
       position="564.00001,683.37502"
       orientation="1,0"
       id="guide3413" />
    <sodipodi:guide
       position="0,0"
       orientation="0,1"
       id="guide4168" />
  </sodipodi:namedview>
  <metadata
     id="metadata7">
    <rdf:RDF>
      <cc:Work
         rdf:about="">
        <dc:format>image/svg+xml</dc:format>
        <dc:type
           rdf:resource="http://purl.org/dc/dcmitype/StillImage" />
        <dc:title>user student assistant</dc:title>
        <dc:date>June 2015</dc:date>
        <dc:creator>
          <cc:Agent>
            <dc:title>Johannes Hechler</dc:title>
          </cc:Agent>
        </dc:creator>
        <dc:rights>
          <cc:Agent>
            <dc:title>Johannes Hechler</dc:title>
          </cc:Agent>
        </dc:rights>
        <dc:publisher>
          <cc:Agent>
            <dc:title>RRZE</dc:title>
          </cc:Agent>
        </dc:publisher>
        <dc:contributor>
          <cc:Agent>
            <dc:title>Ute Weber, Hendrik Eggers</dc:title>
          </cc:Agent>
        </dc:contributor>
      </cc:Work>
    </rdf:RDF>
  </metadata>
  <g
     inkscape:label="Ebene 1"
     inkscape:groupmode="layer"
     id="layer1">
    <g
       transform="translate(189.10714,-330.17851)"
       id="g4835">
      <rect
         inkscape:export-ydpi="4.9499998"
         inkscape:export-xdpi="4.9499998"
         y="652.70898"
         x="-3.4863281e-006"
         height="399.0647"
         width="400"
         id="rect3336"
         style="fill:none;fill-rule:evenodd;stroke:none;stroke-width:1px;stroke-linecap:butt;stroke-linejoin:miter;stroke-opacity:1" />
      <path
         inkscape:connector-curvature="0"
         id="path2176"
         transform="translate(0,652.36214)"
         d="m 146.30859,162.82617 c -21.70908,12.83018 -39.74371,31.77843 -53.070309,56.01367 l 88.855469,0 17.5,0 0,54.00391 -0.5,102.55859 c -0.0559,11.46091 -4.94048,18.70084 -10.70898,24.59961 l 55.60156,0 c -3.6934,-3.4024 -7.58089,-13.20085 -7.58789,-18.22265 l 0,-36.35938 c -0.0748,-13.51576 1.97433,-21.17643 18.17968,-18.17969 l -0.0703,-13.74218 -0.0586,-0.0625 c -12.04098,-12.2748 -17.87109,-29.4276 -17.8711,-47.55469 0,-22.23458 8.19322,-42.79709 24.26172,-56.1875 8.37104,-6.97587 18.25004,-11.81486 29.29297,-14.86914 C 279.60708,181.94 267.48584,171.28397 254.14648,163.125 l -54.27539,-0.0566 -53.5625,-0.24219 z m -67.822262,91.01367 c -2.437772,7.81633 -4.489811,15.99706 -6.138672,24.5293 l 0,67.64453 0,16.78125 0,13.52149 c 0,-3.9785 0.228652,-0.29319 3.13086,2.25781 2.902207,2.5511 7.633015,3.4707 5.099609,3.4707 l 74.785155,0 c -3.11105,0 1.99591,-0.94901 5.13086,-3.79101 3.13495,-2.8419 3.62011,-7.22029 3.59961,-3.02149 l 0.5,-102.47265 0,-18.91993 -86.107422,0 z"
         style="fill:url(#linearGradient4268);fill-opacity:1;stroke:none;stroke-width:41.15159225;stroke-linecap:round;stroke-linejoin:round;stroke-opacity:1" />
      <path
         id="circle2187-6"
         d="m 169.75092,670.36223 a 18.0018,18.0018 0 0 1 -6.11914,13.72461 c -1.70558,1.4927 -3.24208,3.13888 -4.73634,4.81445 l 82.22853,0 c -1.49458,-1.68073 -3.03141,-3.33066 -4.7383,-4.82812 a 18.0018,18.0018 0 0 1 -6.1035,-13.71094 l -60.53125,0 z m 103.26367,54.36133 a 18.0018,18.0018 0 0 1 -2.38086,0.17773 l -141.28515,0 a 18.0018,18.0018 0 0 1 -2.28907,-0.15039 72.979141,72.415733 0 0 0 -0.002,0.0273 72.979141,72.415733 0 0 0 72.98047,72.41602 72.979141,72.415733 0 0 0 72.97851,-72.41602 72.979141,72.415733 0 0 0 -0.002,-0.0547 z"
         style="fill:url(#linearGradient4260);fill-opacity:1;stroke:none;stroke-width:14;stroke-miterlimit:4;stroke-dasharray:none;stroke-opacity:1"
         inkscape:connector-curvature="0" />
      <path
         id="rect4211-0"
         d="m 81.94938,652.36219 c -4.91019,0 -9.17188,4.1152 -9.17188,9.02539 l 0,0.73243 c 0,4.91018 4.041,8.42189 8.95117,8.42187 l 70.04688,0 c -10.98308,9.61235 -18.79767,22.2812 -22.42774,36.35938 l 141.28516,0 c -3.61611,-14.07204 -11.41257,-26.74019 -22.37695,-36.35938 l 60.86133,0.0449 0,63.20118 0,18.74023 c 0,4.93837 3.95309,8.91406 8.86328,8.91406 l 0.45312,0 18.17969,0 c 4.91017,0 8.86328,-3.97569 8.86328,-8.91406 l 0,-18.74023 c 0,-4.93838 -3.95311,-8.91407 -8.86328,-8.91407 l -9.31641,0 0,-63.14453 0,-0.73242 c 0,-0.30823 -0.0143,-0.6119 -0.0449,-0.91016 -0.42453,-4.17686 -3.74774,-7.28572 -7.93164,-7.68164 -0.29885,-0.0285 -0.60327,-0.043 -0.91016,-0.043 l -0.45312,0 -236.00781,0 z"
         style="color:#000000;clip-rule:nonzero;display:inline;overflow:visible;visibility:visible;opacity:1;isolation:auto;mix-blend-mode:normal;color-interpolation:sRGB;color-interpolation-filters:linearRGB;solid-color:#000000;solid-opacity:1;fill:#2f3037;fill-opacity:1;fill-rule:evenodd;stroke:none;stroke-width:50;stroke-linecap:butt;stroke-linejoin:round;stroke-miterlimit:4;stroke-dasharray:none;stroke-dashoffset:0;stroke-opacity:1;color-rendering:auto;image-rendering:auto;shape-rendering:auto;text-rendering:auto;enable-background:accumulate"
         inkscape:connector-curvature="0" />
      <g
         id="text4240-6"
         style="font-style:normal;font-weight:normal;font-size:252.925354px;line-height:125%;font-family:sans-serif;text-align:end;letter-spacing:0px;word-spacing:0px;text-anchor:end;fill:#000000;fill-opacity:1;stroke:none;stroke-width:1px;stroke-linecap:butt;stroke-linejoin:miter;stroke-opacity:1"
         transform="translate(0.05755,9.1e-5)">
        <path
           sodipodi:nodetypes="ccsssscccsscsscccsssccccssscc"
           inkscape:connector-curvature="0"
           id="path4252"
           style="font-style:normal;font-variant:normal;font-weight:bold;font-stretch:normal;font-family:sans-serif;-inkscape-font-specification:'sans-serif Bold';fill:#99b000"
           d="m 387.8986,870.20163 0,39.02559 c -10.12689,-4.52829 -20.00679,-7.94508 -29.63969,-10.25039 -9.6329,-2.30531 -18.73064,-3.45796 -27.29321,-3.45796 -11.36188,0 -19.75979,1.56432 -25.19374,4.69295 -5.43394,3.12863 -8.15091,7.98625 -8.15091,14.57284 0,4.93995 1.81131,8.80958 5.43394,11.60888 3.70496,2.71697 10.37389,5.06345 20.00679,7.03943 l 20.25379,4.07546 c 20.50079,4.11662 35.07363,10.37389 43.71854,18.7718 8.64491,8.39791 12.96737,20.33612 12.96737,35.81462 0,20.33615 -6.05144,35.48525 -18.15431,45.44755 -12.02055,9.8799 -30.42186,14.8198 -55.20393,14.8198 -11.69121,0 -23.42358,-1.1115 -35.19713,-3.3344 -11.77354,-2.223 -25.15256,-5.2663 -36.92611,-9.6299 l 0,-40.13712 c 11.77355,6.25732 24.74091,10.74142 35.69112,13.95232 11.03255,3.1287 21.65344,4.693 31.86267,4.693 10.37389,0 18.31898,-1.729 23.83525,-5.187 5.51627,-3.4579 8.27441,-8.3979 8.27441,-14.81981 0,-5.76327 -1.89365,-10.20923 -5.68094,-13.33786 -3.70496,-3.12863 -11.15605,-5.92794 -22.35326,-8.39791 l -18.40131,-4.07546 c -18.44247,-3.95195 -31.945,-10.25039 -40.50758,-18.8953 -8.48024,-8.64491 -12.72036,-20.29495 -12.72036,-34.95013 0,-18.36014 5.92794,-32.48016 17.78381,-42.36006 11.85588,-9.87989 28.8987,-14.81984 51.12847,-14.81984 10.12689,0 20.54195,0.78216 31.24517,2.34647 10.70322,1.48199 21.77694,3.74613 33.22115,6.79243 z" />
      </g>
      <path
         sodipodi:nodetypes="ccsssscsssscccccccc"
         style="color:#000000;clip-rule:nonzero;display:inline;overflow:visible;visibility:visible;opacity:1;isolation:auto;mix-blend-mode:normal;color-interpolation:sRGB;color-interpolation-filters:linearRGB;solid-color:#000000;solid-opacity:1;fill:#99b000;fill-opacity:1;fill-rule:evenodd;stroke:none;stroke-width:35;stroke-linecap:butt;stroke-linejoin:miter;stroke-miterlimit:4;stroke-dasharray:none;stroke-dashoffset:0;stroke-opacity:1;color-rendering:auto;image-rendering:auto;shape-rendering:auto;text-rendering:auto;enable-background:accumulate"
         d="m 182.09375,888.70203 0,36.46094 -0.5,102.51563 c -0.0493,10.0994 -16.13099,24.2285 -26.23047,24.2285 l -74.785151,0 c -10.09948,0 -25.73047,-13.129 -25.73047,-23.2285 l 0,-12.8027 -36.617189,0 C 8.13099,1015.8759 0,1007.7468 0,997.64734 L 0,925.16297 C 0,915.06349 8.13099,906.9325 18.23047,906.9325 l 36.617189,0 0,-18.23047 z m -127.246091,36.46094 -36.687499,0 0,72.49414 36.687499,0 z"
         id="path4382"
         inkscape:connector-curvature="0" />
    </g>
  </g>
</svg>
