<?xml version="1.0" encoding="UTF-8" standalone="no"?>
<!-- Created with Inkscape (http://www.inkscape.org/) -->

<svg
   xmlns:dc="http://purl.org/dc/elements/1.1/"
   xmlns:cc="http://creativecommons.org/ns#"
   xmlns:rdf="http://www.w3.org/1999/02/22-rdf-syntax-ns#"
   xmlns:svg="http://www.w3.org/2000/svg"
   xmlns="http://www.w3.org/2000/svg"
   xmlns:xlink="http://www.w3.org/1999/xlink"
   xmlns:sodipodi="http://sodipodi.sourceforge.net/DTD/sodipodi-0.dtd"
   xmlns:inkscape="http://www.inkscape.org/namespaces/inkscape"
   width="210mm"
   height="297mm"
   viewBox="0 0 744.09448819 1052.3622047"
   id="svg2"
   version="1.1"
   inkscape:version="0.91 r13725"
   inkscape:export-xdpi="4.949976"
   inkscape:export-ydpi="4.949976"
   sodipodi:docname="user-flying-faculty.svg"
   inkscape:export-filename="C:\Users\johannes\Documents\Arbeit\RRZE\github3\bicons\22x22\categories\user-flying-faculty.png">
  <defs
     id="defs4">
    <linearGradient
       inkscape:collect="always"
       id="linearGradient4254">
      <stop
         style="stop-color:#7a8597;stop-opacity:1"
         offset="0"
         id="stop4256" />
      <stop
         style="stop-color:#4e505d;stop-opacity:1"
         offset="1"
         id="stop4258" />
    </linearGradient>
    <linearGradient
       id="linearGradient2224">
      <stop
         id="stop2226"
         offset="0"
         style="stop-color:#7c7c7c;stop-opacity:1;" />
      <stop
         id="stop2228"
         offset="1"
         style="stop-color:#b8b8b8;stop-opacity:1;" />
    </linearGradient>
    <linearGradient
       id="linearGradient15218">
      <stop
         id="stop15220"
         offset="0"
         style="stop-color:#eeeeef;stop-opacity:1;" />
      <stop
         id="stop2736"
         offset="0.59928656"
         style="stop-color:#d3d7cf;stop-opacity:1;" />
      <stop
         id="stop2738"
         offset="0.82758623"
         style="stop-color:#ffffff;stop-opacity:1;" />
      <stop
         id="stop15222"
         offset="1"
         style="stop-color:#d3d7cf;stop-opacity:1;" />
    </linearGradient>
    <pattern
       y="0"
       x="0"
       height="6"
       width="6"
       patternUnits="userSpaceOnUse"
       id="EMFhbasepattern" />
    <pattern
       y="0"
       x="0"
       height="6"
       width="6"
       patternUnits="userSpaceOnUse"
       id="EMFhbasepattern-5" />
    <linearGradient
       inkscape:collect="always"
       xlink:href="#linearGradient4254"
       id="linearGradient4252"
       x1="380.01031"
       y1="330.40619"
       x2="414.6156"
       y2="457.18103"
       gradientUnits="userSpaceOnUse"
       gradientTransform="translate(0.37005758,-0.39466108)" />
    <linearGradient
       inkscape:collect="always"
       xlink:href="#linearGradient4254"
       id="linearGradient4275"
       x1="380.01031"
       y1="330.40619"
       x2="414.6156"
       y2="457.18103"
       gradientUnits="userSpaceOnUse"
       gradientTransform="translate(0.37005758,-0.39466108)" />
    <linearGradient
       inkscape:collect="always"
       xlink:href="#linearGradient4254"
       id="linearGradient4320"
       x1="380.01031"
       y1="330.40619"
       x2="414.6156"
       y2="457.18103"
       gradientUnits="userSpaceOnUse"
       gradientTransform="translate(0.37005758,-0.39466108)" />
    <linearGradient
       inkscape:collect="always"
       xlink:href="#linearGradient4254"
       id="linearGradient4442"
       gradientUnits="userSpaceOnUse"
       gradientTransform="translate(0.37005758,-0.39466108)"
       x1="380.01031"
       y1="330.40619"
       x2="414.6156"
       y2="457.18103" />
    <linearGradient
       inkscape:collect="always"
       xlink:href="#linearGradient4254"
       id="linearGradient4445"
       x1="380.01031"
       y1="330.40619"
       x2="414.6156"
       y2="457.18103"
       gradientUnits="userSpaceOnUse"
       gradientTransform="translate(0.37005758,-0.39466108)" />
    <linearGradient
       inkscape:collect="always"
       xlink:href="#linearGradient4254"
       id="linearGradient4526"
       gradientUnits="userSpaceOnUse"
       gradientTransform="translate(0.37005758,-0.39466108)"
       x1="380.01031"
       y1="330.40619"
       x2="414.6156"
       y2="457.18103" />
    <linearGradient
       inkscape:collect="always"
       xlink:href="#linearGradient4254"
       id="linearGradient4529"
       gradientUnits="userSpaceOnUse"
       gradientTransform="translate(0.37005758,-0.39466108)"
       x1="380.01031"
       y1="330.40619"
       x2="414.6156"
       y2="457.18103" />
    <linearGradient
       gradientTransform="translate(9.7640038,-97.751847)"
       inkscape:collect="always"
       xlink:href="#linearGradient4254"
       id="linearGradient4212"
       x1="544.42413"
       y1="431.26184"
       x2="479.92413"
       y2="557.0022"
       gradientUnits="userSpaceOnUse" />
    <linearGradient
       gradientTransform="translate(9.7640038,-97.751847)"
       inkscape:collect="always"
       xlink:href="#linearGradient4254"
       id="linearGradient4204-1"
       x1="521.00494"
       y1="340.05643"
       x2="491.77841"
       y2="396.00424"
       gradientUnits="userSpaceOnUse" />
    <linearGradient
       inkscape:collect="always"
       xlink:href="#linearGradient4254"
       id="linearGradient4524"
       gradientUnits="userSpaceOnUse"
       gradientTransform="translate(9.7640038,-97.751847)"
       x1="432.48529"
       y1="511.99316"
       x2="382.63217"
       y2="623.57605" />
    <linearGradient
       gradientTransform="translate(9.7640038,-97.751847)"
       inkscape:collect="always"
       xlink:href="#linearGradient4254"
       id="linearGradient4196"
       x1="303.58328"
       y1="467.66281"
       x2="276.48325"
       y2="558.56281"
       gradientUnits="userSpaceOnUse" />
    <linearGradient
       gradientTransform="translate(9.7640038,-97.751857)"
       inkscape:collect="always"
       xlink:href="#linearGradient4254"
       id="linearGradient4188"
       x1="300.22327"
       y1="576.74146"
       x2="250.84326"
       y2="722.22284"
       gradientUnits="userSpaceOnUse" />
    <linearGradient
       inkscape:collect="always"
       xlink:href="#linearGradient4254"
       id="linearGradient6494"
       gradientUnits="userSpaceOnUse"
       gradientTransform="matrix(1.0238944,0,0,1,-220.55756,47.727293)"
       x1="521.00494"
       y1="340.05643"
       x2="491.77841"
       y2="396.00424" />
    <linearGradient
       gradientTransform="translate(9.7640038,-97.751847)"
       inkscape:collect="always"
       xlink:href="#linearGradient4254"
       id="linearGradient4220"
       x1="424"
       y1="419.36218"
       x2="403.8454"
       y2="475.08359"
       gradientUnits="userSpaceOnUse" />
  </defs>
  <sodipodi:namedview
     id="base"
     pagecolor="#ffffff"
     bordercolor="#666666"
     borderopacity="1.0"
     inkscape:pageopacity="0.0"
     inkscape:pageshadow="2"
     inkscape:zoom="0.70710678"
     inkscape:cx="449.23823"
     inkscape:cy="468.0436"
     inkscape:document-units="px"
     inkscape:current-layer="layer1"
     showgrid="false"
     showguides="true"
     inkscape:guide-bbox="true"
     inkscape:window-width="1366"
     inkscape:window-height="721"
     inkscape:window-x="-4"
     inkscape:window-y="-4"
     inkscape:window-maximized="1"
     inkscape:snap-bbox="true"
     inkscape:bbox-paths="true"
     inkscape:bbox-nodes="true"
     inkscape:snap-nodes="false">
    <sodipodi:guide
       position="315.53572,730.17859"
       orientation="0,1"
       id="guide3338" />
    <sodipodi:guide
       position="351.25,330.17858"
       orientation="0,1"
       id="guide3340" />
    <sodipodi:guide
       position="189.10714,408.8393"
       orientation="1,0"
       id="guide3344" />
    <sodipodi:guide
       position="589.04521,468.07945"
       orientation="1,0"
       id="guide3346" />
    <inkscape:grid
       type="xygrid"
       id="grid3440" />
    <sodipodi:guide
       position="589.04521,378.30213"
       orientation="1,0"
       id="guide3411" />
  </sodipodi:namedview>
  <metadata
     id="metadata7">
    <rdf:RDF>
      <cc:Work
         rdf:about="">
        <dc:format>image/svg+xml</dc:format>
        <dc:type
           rdf:resource="http://purl.org/dc/dcmitype/StillImage" />
        <dc:title>user flying faculty</dc:title>
        <dc:date>June 2015</dc:date>
        <dc:creator>
          <cc:Agent>
            <dc:title>Johannes Hechler</dc:title>
          </cc:Agent>
        </dc:creator>
        <dc:rights>
          <cc:Agent>
            <dc:title>Johannes Hechler</dc:title>
          </cc:Agent>
        </dc:rights>
        <dc:publisher>
          <cc:Agent>
            <dc:title>RRZE</dc:title>
          </cc:Agent>
        </dc:publisher>
        <dc:contributor>
          <cc:Agent>
            <dc:title>Ute Weber, Hendrik Eggers</dc:title>
          </cc:Agent>
        </dc:contributor>
      </cc:Work>
    </rdf:RDF>
  </metadata>
  <g
     inkscape:label="Ebene 1"
     inkscape:groupmode="layer"
     id="layer1">
    <g
       id="g4272"
       transform="translate(-9.7639871,97.712639)">
      <flowRoot
         style="font-style:normal;font-weight:normal;font-size:40px;line-height:125%;font-family:sans-serif;letter-spacing:0px;word-spacing:0px;fill:#252525;fill-opacity:1;stroke:none;stroke-width:1px;stroke-linecap:butt;stroke-linejoin:miter;stroke-opacity:1"
         id="flowRoot4169"
         xml:space="preserve"
         transform="translate(562.3722,-585.73589)"><flowRegion
           id="flowRegion4171"><rect
             y="427.07962"
             x="89.541069"
             height="88.78862"
             width="56.433445"
             id="rect4173" /></flowRegion><flowPara
           id="flowPara4175" /></flowRoot>      <flowRoot
         style="font-style:normal;font-weight:normal;font-size:40px;line-height:125%;font-family:sans-serif;letter-spacing:0px;word-spacing:0px;fill:#252525;fill-opacity:1;stroke:none;stroke-width:1px;stroke-linecap:butt;stroke-linejoin:miter;stroke-opacity:1"
         id="flowRoot4169-9"
         xml:space="preserve"
         transform="translate(1123.5789,-527.71231)"><flowRegion
           id="flowRegion4171-9"><rect
             y="427.07962"
             x="89.541069"
             height="88.78862"
             width="56.433445"
             id="rect4173-6" /></flowRegion><flowPara
           id="flowPara4175-7" /></flowRoot>      <path
         id="path4695"
         d="m 491.01086,333.50988 0,0.006 c -0.0823,0.0683 -0.15723,0.14275 -0.24218,0.20899 l -4.58594,2.32812 c -5.30827,2.94774 -10.33178,6.64683 -15.01562,10.97852 -1.29366,18.49828 -10.67978,34.87419 -24.58008,45.67187 6.53597,3.51516 12.63027,7.80609 18.24414,12.76758 l 57.77344,38.09571 c 8.68246,-4.87816 17.72558,-9.54196 27.66601,-13.6211 4.93875,-2.02665 14.24685,-5.82953 24.41797,-8.20703 5.08556,-1.18875 10.36274,-2.14965 16.58203,-1.80078 1.9112,0.1072 4.10656,0.38591 6.40039,0.9668 -5.00184,-40.70097 -26.13404,-73.93852 -54.125,-87.03711 l -52.53516,-0.35743 z m 76.31836,128.44141 c -1.0993,0.431 -2.52407,0.94243 -3.39257,1.29883 -11.22518,4.60635 -21.38032,9.89754 -30.97852,15.74023 l 15.75,0 c 5.62014,-4.61288 11.13958,-9.51761 16.56836,-14.83984 0.50261,-0.49275 1.4006,-1.51936 2.05273,-2.19922 z m -129.49218,5.76367 c 0.053,0.27784 0.0997,0.55894 0.15429,0.83594 1.62611,3.41004 4.73643,6.26528 8.72266,8.125 l -8.87695,-8.96094 z m 65.57617,6.31836 c 0.3781,1.64154 0.7412,3.2907 1.07031,4.95703 l 6.44727,0 -7.51758,-4.95703 z"
         style="fill:url(#linearGradient4212);fill-opacity:1;stroke:none;stroke-width:41.15159225;stroke-linecap:round;stroke-linejoin:round;stroke-opacity:1"
         inkscape:connector-curvature="0" />
      <ellipse
         style="color:#000000;clip-rule:nonzero;display:inline;overflow:visible;visibility:visible;opacity:1;isolation:auto;mix-blend-mode:normal;color-interpolation:sRGB;color-interpolation-filters:linearRGB;solid-color:#000000;solid-opacity:1;fill:url(#linearGradient4204-1);fill-opacity:1;fill-rule:nonzero;stroke:none;stroke-width:36;stroke-linecap:butt;stroke-linejoin:round;stroke-miterlimit:4;stroke-dasharray:none;stroke-dashoffset:0;stroke-opacity:1;color-rendering:auto;image-rendering:auto;shape-rendering:auto;text-rendering:auto;enable-background:accumulate"
         id="ellipse4697"
         cx="516.99872"
         cy="269.88174"
         rx="44.389339"
         ry="45.449986" />
      <path
         id="path4701"
         d="m 410.79993,297.29505 c 0.18482,0.0118 0.36852,0.0271 0.55273,0.041 a 45.450001,45.449986 0 0 0 -0.55273,-0.041 z m 4.7207,0.54882 c 0.0608,0.0103 0.12095,0.0227 0.18164,0.0332 a 45.450001,45.449986 0 0 0 -0.18164,-0.0332 z m 4.48633,0.99805 c 0.0203,0.006 0.0403,0.012 0.0606,0.0176 a 45.450001,45.449986 0 0 0 -0.0606,-0.0176 z m 8.42383,3.26563 c 0.0431,0.0219 0.0859,0.0444 0.1289,0.0664 a 45.450001,45.449986 0 0 0 -0.1289,-0.0664 z m 3.87695,2.21679 c 0.0795,0.0508 0.15915,0.1011 0.23828,0.15235 a 45.450001,45.449986 0 0 0 -0.23828,-0.15235 z m -50.05859,0.78321 a 45.450001,45.449986 0 0 0 -0.10743,0.0762 c 0.0362,-0.0249 0.0712,-0.0514 0.10743,-0.0762 z m 53.70507,1.80859 c 0.10204,0.0803 0.20532,0.15908 0.30664,0.24023 a 45.450001,45.449986 0 0 0 -0.30664,-0.24023 z m -57.25195,0.88477 a 45.450001,45.449986 0 0 0 -0.26562,0.22851 c 0.0889,-0.0757 0.1761,-0.15347 0.26562,-0.22851 z m 60.63281,2.05468 c 0.11294,0.10839 0.22804,0.21467 0.33985,0.32422 a 45.450001,45.449986 0 0 0 -0.33985,-0.32422 z m -63.92968,0.9961 a 45.450001,45.449986 0 0 0 -0.31055,0.32812 c 0.10427,-0.10862 0.20522,-0.22053 0.31055,-0.32812 z m 67.07617,2.33984 c 0.0788,0.0925 0.16024,0.18229 0.23828,0.27539 a 45.450001,45.449986 0 0 0 -0.23828,-0.27539 z m -70.07617,1.04883 a 45.450001,45.449986 0 0 0 -0.26954,0.34375 c 0.09,-0.11448 0.17848,-0.23017 0.26954,-0.34375 z m -2.6875,3.72461 a 45.450001,45.449986 0 0 0 -0.16211,0.2539 c 0.054,-0.0846 0.10754,-0.16968 0.16211,-0.2539 z m -2.3125,4.00195 a 45.450001,45.449986 0 0 0 -0.0566,0.11328 c 0.0191,-0.0376 0.0374,-0.0757 0.0566,-0.11328 z m -3.31055,8.47656 a 45.450001,45.449986 0 0 0 -0.0195,0.0703 c 0.006,-0.0235 0.013,-0.0469 0.0195,-0.0703 z m -0.98242,4.36328 a 45.450001,45.449986 0 0 0 -0.0332,0.19531 c 0.011,-0.0652 0.0219,-0.1302 0.0332,-0.19531 z m -0.53907,4.35352 a 45.450001,45.449986 0 0 0 -0.043,0.56054 c 0.0119,-0.18747 0.0288,-0.3737 0.043,-0.56054 z m 90.6504,6.40429 c -0.0117,0.18367 -0.0272,0.36576 -0.041,0.54883 a 45.450001,45.449986 0 0 0 0.041,-0.54883 z m -0.54883,4.71485 c -0.0109,0.0646 -0.022,0.12888 -0.0332,0.19336 a 45.450001,45.449986 0 0 0 0.0332,-0.19336 z m -0.99805,4.49609 c -0.005,0.0165 -0.011,0.0324 -0.0156,0.0488 a 45.450001,45.449986 0 0 0 0.0156,-0.0488 z m -1.42773,4.30078 c -0.009,0.024 -0.018,0.0483 -0.0273,0.0723 a 45.450001,45.449986 0 0 0 0.0273,-0.0723 z m -1.82813,4.0957 c -0.0294,0.0579 -0.0583,0.11604 -0.0879,0.17383 a 45.450001,45.449986 0 0 0 0.0879,-0.17383 z m -2.22656,3.89844 c -0.0508,0.0795 -0.10109,0.15915 -0.15234,0.23828 a 45.450001,45.449986 0 0 0 0.15234,-0.23828 z m -2.5918,3.64649 c -0.0803,0.10203 -0.15907,0.20531 -0.24023,0.30664 a 45.450001,45.449986 0 0 0 0.24023,-0.30664 z m -70.56836,1.09765 a 45.450001,45.449986 0 0 0 0.23828,0.27539 c -0.0787,-0.0923 -0.16034,-0.1824 -0.23828,-0.27539 z m 67.62891,2.28321 c -0.1084,0.11294 -0.21468,0.22802 -0.32422,0.33984 a 45.450001,45.449986 0 0 0 0.32422,-0.33984 z m -64.57031,1.01757 a 45.450001,45.449986 0 0 0 0.3125,0.29883 c -0.10399,-0.0999 -0.20945,-0.19796 -0.3125,-0.29883 z m 61.23437,2.12891 c -0.0925,0.0788 -0.18229,0.16024 -0.27539,0.23828 a 45.450001,45.449986 0 0 0 0.27539,-0.23828 z m -57.83594,0.87891 a 45.450001,45.449986 0 0 0 0.31446,0.24804 c -0.10498,-0.0826 -0.21022,-0.16455 -0.31446,-0.24804 z m 3.7168,2.68164 a 45.450001,45.449986 0 0 0 0.23828,0.15234 c -0.0795,-0.0508 -0.15915,-0.10109 -0.23828,-0.15234 z m 3.97852,2.29883 a 45.450001,45.449986 0 0 0 0.14453,0.0742 c -0.0483,-0.0245 -0.0963,-0.0495 -0.14453,-0.0742 z m 12.8164,4.29296 a 45.450001,45.449986 0 0 0 0.26953,0.0469 c -0.0901,-0.0152 -0.17965,-0.0312 -0.26953,-0.0469 z m 4.39258,0.54688 a 45.450001,45.449986 0 0 0 0.5625,0.043 c -0.18812,-0.0119 -0.37501,-0.0288 -0.5625,-0.043 z m -22.50586,18.32617 0,0.006 c -0.0823,0.0683 -0.15724,0.14079 -0.24219,0.20703 l -4.58593,2.33008 c -5.29291,2.93921 -10.30233,6.62599 -14.97461,10.94141 -1.28765,18.46767 -10.61608,34.84623 -24.47266,45.64453 18.88344,10.17708 34.07277,26.8449 44.57422,47.49218 3.74842,-1.45721 11.45765,-3.41384 18.07422,-1.0996 l -1.10742,-0.34766 25.09961,6.99805 c 11.95748,-9.49123 23.49935,-19.24653 35.07812,-29.02539 l -58.3125,-58.8711 0.23828,0.23633 c -3.05731,-2.97372 -6.55567,-7.25962 -6.77734,-14.96094 -0.0915,-3.17828 0.9263,-6.47191 2.51953,-9.44726 l -15.11133,-0.10352 z m 96.59375,51.32422 1.23242,1.24414 c -0.0776,-0.19401 -0.152,-0.39067 -0.23047,-0.58398 l -1.00195,-0.66016 z m -151.99023,43.41601 c -0.27176,3.703 -0.42578,7.4532 -0.42578,11.25391 0,10.0484 0.97846,19.78438 2.80273,29.04688 2.70592,5.6745 9.50403,9.83375 17.65039,10.37695 l 0,0.0625 11.7207,0 c -6.13122,-22.59645 -18.08569,-40.62341 -31.74804,-50.74024 z m 163.17383,9.82422 c -8.60616,7.154 -17.30679,14.63957 -26.37891,22.2461 8.93337,-5.08787 17.71755,-10.04025 26.2793,-14.95508 0.0742,-1.94417 0.12109,-3.89776 0.12109,-5.86719 0,-0.47682 -0.0171,-0.94842 -0.0215,-1.42383 z"
         style="fill:url(#linearGradient4524);fill-opacity:1;stroke:none;stroke-width:41.15159225;stroke-linecap:round;stroke-linejoin:round;stroke-opacity:1"
         inkscape:connector-curvature="0" />
      <path
         cx="289.03326"
         cy="513.11279"
         rx="45.450001"
         ry="45.449986"
         id="path4687"
         style="color:#000000;clip-rule:nonzero;display:inline;overflow:visible;visibility:visible;opacity:1;isolation:auto;mix-blend-mode:normal;color-interpolation:sRGB;color-interpolation-filters:linearRGB;solid-color:#000000;solid-opacity:1;fill:url(#linearGradient4196);fill-opacity:1;fill-rule:nonzero;stroke:none;stroke-width:36;stroke-linecap:butt;stroke-linejoin:round;stroke-miterlimit:4;stroke-dasharray:none;stroke-dashoffset:0;stroke-opacity:1;color-rendering:auto;image-rendering:auto;shape-rendering:auto;text-rendering:auto;enable-background:accumulate"
         d=""
         inkscape:connector-curvature="0" />
      <rect
         y="224.47099"
         x="198.80725"
         height="400"
         width="400.00146"
         id="rect4729"
         style="color:#000000;clip-rule:nonzero;display:inline;overflow:visible;visibility:visible;opacity:1;isolation:auto;mix-blend-mode:normal;color-interpolation:sRGB;color-interpolation-filters:linearRGB;solid-color:#000000;solid-opacity:1;fill:none;fill-opacity:1;fill-rule:nonzero;stroke:none;stroke-width:36;stroke-linecap:butt;stroke-linejoin:round;stroke-miterlimit:4;stroke-dasharray:none;stroke-dashoffset:0;stroke-opacity:1;color-rendering:auto;image-rendering:auto;shape-rendering:auto;text-rendering:auto;enable-background:accumulate" />
      <path
         id="path2176-1"
         d="m 272.80969,478.99035 0,0.006 c -0.0823,0.0683 -0.15724,0.14079 -0.24218,0.20703 l -4.58594,2.32813 c -29.90884,16.60872 -50.99414,56.67046 -50.99414,103.45312 0,10.0485 0.97848,19.78438 2.80273,29.04688 2.70593,5.6744 9.50402,9.83365 17.65039,10.37695 l 0,0.0625 121.07813,0 0,-0.01 c 9.14349,-0.1209 16.84418,-4.78589 19.43164,-11.17969 1.73135,-9.0395 2.65625,-18.52274 2.65625,-28.30273 0,-11.441 -1.27617,-22.47107 -3.61914,-32.86329 l -1.99805,-1.11328 0.34961,0.18946 c -3.73224,-1.97078 -9.34404,-6.48133 -10.1875,-14.98243 -0.43886,-4.42323 0.81533,-8.27386 2.5918,-11.31054 -9.87368,-21.05555 -24.77112,-37.30194 -42.39844,-45.55078 l -52.53516,-0.35743 z"
         style="fill:url(#linearGradient4188);fill-opacity:1;stroke:none;stroke-width:41.15159225;stroke-linecap:round;stroke-linejoin:round;stroke-opacity:1"
         inkscape:connector-curvature="0" />
      <ellipse
         ry="45.449986"
         rx="45.449997"
         cy="415.36087"
         cx="298.79727"
         id="ellipse6492"
         style="color:#000000;clip-rule:nonzero;display:inline;overflow:visible;visibility:visible;opacity:1;isolation:auto;mix-blend-mode:normal;color-interpolation:sRGB;color-interpolation-filters:linearRGB;solid-color:#000000;solid-opacity:1;fill:url(#linearGradient6494);fill-opacity:1;fill-rule:nonzero;stroke:none;stroke-width:36;stroke-linecap:butt;stroke-linejoin:round;stroke-miterlimit:4;stroke-dasharray:none;stroke-dashoffset:0;stroke-opacity:1;color-rendering:auto;image-rendering:auto;shape-rendering:auto;text-rendering:auto;enable-background:accumulate" />
      <path
         sodipodi:nodetypes="scscs"
         style="fill:url(#linearGradient4220);fill-opacity:1;stroke:none;stroke-width:41.15159225;stroke-linecap:round;stroke-linejoin:round;stroke-opacity:1"
         d="m 407.87757,297.19172 c -25.1015,-6.5e-4 -45.45074,20.34772 -45.45117,45.44921 4.3e-4,25.10149 20.34967,45.44986 45.45117,45.44921 25.10073,-4.3e-4 45.44879,-20.34848 45.44922,-45.44921 -4.3e-4,-25.10073 -20.34849,-45.44878 -45.44922,-45.44921 z"
         id="path4520"
         inkscape:connector-curvature="0" />
      <path
         style="opacity:1;fill:#99b000;fill-opacity:1;stroke:none;stroke-width:16;stroke-linecap:square;stroke-linejoin:round;stroke-miterlimit:4;stroke-dasharray:none;stroke-opacity:1"
         d="m 597.70728,441.15595 c -5.75438,-8.42273 -31.16685,1.56803 -40.60394,5.4406 -12.84817,5.27236 -24.42489,11.37736 -35.21584,18.05755 l -84.61144,-55.79232 c -4.63758,-3.46674 -8.13961,-2.84599 -11.53296,-1.84208 l -11.53062,5.83062 c -2.55593,1.33701 -1.94546,3.52643 -0.40276,5.02695 l 72.07525,72.76737 c -18.91135,15.29987 -36.91855,31.76582 -57.62911,47.59949 l -33.93539,-9.46383 c -2.22339,-0.77766 -3.81937,-0.0932 -5.35626,0.72812 l -5.16243,3.74043 c -1.14283,0.84695 -0.80623,1.63038 -0.0579,2.02553 l 39.58534,22.03685 c 0.37766,1.01571 0.82247,1.9197 1.31771,2.63641 0.49457,0.71424 1.16532,1.44763 1.95663,2.15637 l 6.41289,46.72541 c 0.0374,0.3776 0.24093,0.3115 0.54652,0.08 l 6.45491,-4.6407 c 1.32362,-1.1362 2.53909,-2.3788 2.62141,-4.744 l 3.53607,-35.5738 c 22.02224,-13.60527 43.52318,-24.9092 64.32808,-37.16299 l 42.85601,97.03309 c 0.35523,0.8794 0.76893,0.7058 1.29224,0.1321 l 11.24774,-11.5042 c 2.17437,-2.7907 4.03208,-5.8193 2.5213,-11.3611 l -20.67704,-98.54887 c 10.2713,-7.57342 20.32858,-15.9224 30.13348,-25.53487 7.28416,-7.1412 25.58438,-27.42489 19.83,-35.84762 z"
         id="path4188"
         inkscape:connector-curvature="0" />
    </g>
  </g>
</svg>
