<?xml version="1.0" encoding="UTF-8" standalone="no"?>
<!-- Created with Inkscape (http://www.inkscape.org/) -->

<svg
   xmlns:dc="http://purl.org/dc/elements/1.1/"
   xmlns:cc="http://creativecommons.org/ns#"
   xmlns:rdf="http://www.w3.org/1999/02/22-rdf-syntax-ns#"
   xmlns:svg="http://www.w3.org/2000/svg"
   xmlns="http://www.w3.org/2000/svg"
   xmlns:xlink="http://www.w3.org/1999/xlink"
   xmlns:sodipodi="http://sodipodi.sourceforge.net/DTD/sodipodi-0.dtd"
   xmlns:inkscape="http://www.inkscape.org/namespaces/inkscape"
   width="210mm"
   height="297mm"
   viewBox="0 0 744.09448819 1052.3622047"
   id="svg2"
   version="1.1"
   inkscape:version="0.91 r13725"
   inkscape:export-xdpi="4.9475064"
   inkscape:export-ydpi="4.9475064"
   sodipodi:docname="user-group-admin-gs.svg"
   inkscape:export-filename="C:\Users\johannes\Documents\Arbeit\RRZE\github3\bicons\22x22\categories\user-group-admin-gs.png">
  <defs
     id="defs4">
    <linearGradient
       inkscape:collect="always"
       id="linearGradient4254">
      <stop
         style="stop-color:#7a8597;stop-opacity:1"
         offset="0"
         id="stop4256" />
      <stop
         style="stop-color:#4e505d;stop-opacity:1"
         offset="1"
         id="stop4258" />
    </linearGradient>
    <linearGradient
       id="linearGradient2224">
      <stop
         id="stop2226"
         offset="0"
         style="stop-color:#7c7c7c;stop-opacity:1;" />
      <stop
         id="stop2228"
         offset="1"
         style="stop-color:#b8b8b8;stop-opacity:1;" />
    </linearGradient>
    <linearGradient
       id="linearGradient15218">
      <stop
         id="stop15220"
         offset="0"
         style="stop-color:#eeeeef;stop-opacity:1;" />
      <stop
         id="stop2736"
         offset="0.59928656"
         style="stop-color:#d3d7cf;stop-opacity:1;" />
      <stop
         id="stop2738"
         offset="0.82758623"
         style="stop-color:#ffffff;stop-opacity:1;" />
      <stop
         id="stop15222"
         offset="1"
         style="stop-color:#d3d7cf;stop-opacity:1;" />
    </linearGradient>
    <pattern
       y="0"
       x="0"
       height="6"
       width="6"
       patternUnits="userSpaceOnUse"
       id="EMFhbasepattern" />
    <pattern
       y="0"
       x="0"
       height="6"
       width="6"
       patternUnits="userSpaceOnUse"
       id="EMFhbasepattern-5" />
    <linearGradient
       inkscape:collect="always"
       xlink:href="#linearGradient4254"
       id="linearGradient4252"
       x1="380.01031"
       y1="330.40619"
       x2="414.6156"
       y2="457.18103"
       gradientUnits="userSpaceOnUse"
       gradientTransform="translate(0.37005758,-0.39466108)" />
    <linearGradient
       inkscape:collect="always"
       xlink:href="#linearGradient4254"
       id="linearGradient4275"
       x1="380.01031"
       y1="330.40619"
       x2="414.6156"
       y2="457.18103"
       gradientUnits="userSpaceOnUse"
       gradientTransform="translate(0.37005758,-0.39466108)" />
    <linearGradient
       inkscape:collect="always"
       xlink:href="#linearGradient4254"
       id="linearGradient4320"
       x1="380.01031"
       y1="330.40619"
       x2="414.6156"
       y2="457.18103"
       gradientUnits="userSpaceOnUse"
       gradientTransform="translate(0.37005758,-0.39466108)" />
    <linearGradient
       inkscape:collect="always"
       xlink:href="#linearGradient4254"
       id="linearGradient4442"
       gradientUnits="userSpaceOnUse"
       gradientTransform="translate(0.37005758,-0.39466108)"
       x1="380.01031"
       y1="330.40619"
       x2="414.6156"
       y2="457.18103" />
    <linearGradient
       inkscape:collect="always"
       xlink:href="#linearGradient4254"
       id="linearGradient4445"
       x1="380.01031"
       y1="330.40619"
       x2="414.6156"
       y2="457.18103"
       gradientUnits="userSpaceOnUse"
       gradientTransform="translate(0.37005758,-0.39466108)" />
    <linearGradient
       inkscape:collect="always"
       xlink:href="#linearGradient4254"
       id="linearGradient4526"
       gradientUnits="userSpaceOnUse"
       gradientTransform="translate(0.37005758,-0.39466108)"
       x1="380.01031"
       y1="330.40619"
       x2="414.6156"
       y2="457.18103" />
    <linearGradient
       inkscape:collect="always"
       xlink:href="#linearGradient4254"
       id="linearGradient4529"
       gradientUnits="userSpaceOnUse"
       gradientTransform="translate(0.37005758,-0.39466108)"
       x1="380.01031"
       y1="330.40619"
       x2="414.6156"
       y2="457.18103" />
  </defs>
  <sodipodi:namedview
     id="base"
     pagecolor="#ffffff"
     bordercolor="#666666"
     borderopacity="1.0"
     inkscape:pageopacity="0.0"
     inkscape:pageshadow="2"
     inkscape:zoom="0.5"
     inkscape:cx="537.11526"
     inkscape:cy="481.22336"
     inkscape:document-units="px"
     inkscape:current-layer="layer1"
     showgrid="false"
     showguides="true"
     inkscape:guide-bbox="true"
     inkscape:window-width="1366"
     inkscape:window-height="721"
     inkscape:window-x="-4"
     inkscape:window-y="-4"
     inkscape:window-maximized="1"
     inkscape:snap-bbox="true"
     inkscape:bbox-paths="true"
     inkscape:bbox-nodes="true">
    <sodipodi:guide
       position="315.53572,730.17859"
       orientation="0,1"
       id="guide3338" />
    <sodipodi:guide
       position="351.25,330.17858"
       orientation="0,1"
       id="guide3340" />
    <sodipodi:guide
       position="189.10714,408.8393"
       orientation="1,0"
       id="guide3344" />
    <sodipodi:guide
       position="589.04521,468.07945"
       orientation="1,0"
       id="guide3346" />
    <inkscape:grid
       type="xygrid"
       id="grid3440" />
    <sodipodi:guide
       position="589.04521,378.30213"
       orientation="1,0"
       id="guide3411" />
  </sodipodi:namedview>
  <metadata
     id="metadata7">
    <rdf:RDF>
      <cc:Work
         rdf:about="">
        <dc:format>image/svg+xml</dc:format>
        <dc:type
           rdf:resource="http://purl.org/dc/dcmitype/StillImage" />
        <dc:title>user group admin gs</dc:title>
        <dc:date>June 2015</dc:date>
        <dc:creator>
          <cc:Agent>
            <dc:title>Johannes Hechler</dc:title>
          </cc:Agent>
        </dc:creator>
        <dc:rights>
          <cc:Agent>
            <dc:title>Johannes Hechler</dc:title>
          </cc:Agent>
        </dc:rights>
        <dc:publisher>
          <cc:Agent>
            <dc:title>RRZE</dc:title>
          </cc:Agent>
        </dc:publisher>
        <dc:contributor>
          <cc:Agent>
            <dc:title>Ute Weber, Hendrik Eggers</dc:title>
          </cc:Agent>
        </dc:contributor>
      </cc:Work>
    </rdf:RDF>
  </metadata>
  <g
     inkscape:label="Ebene 1"
     inkscape:groupmode="layer"
     id="layer1">
    <g
       id="g4342"
       transform="translate(112.94441,39.58036)">
      <rect
         inkscape:export-ydpi="4.9499998"
         inkscape:export-xdpi="4.9499998"
         y="282.60327"
         x="76.100792"
         height="400"
         width="400"
         id="rect3336-0"
         style="fill:none;fill-rule:evenodd;stroke:none;stroke-width:1px;stroke-linecap:butt;stroke-linejoin:miter;stroke-opacity:1" />
      <flowRoot
         style="font-style:normal;font-weight:normal;font-size:40px;line-height:125%;font-family:sans-serif;letter-spacing:0px;word-spacing:0px;fill:#252525;fill-opacity:1;stroke:none;stroke-width:1px;stroke-linecap:butt;stroke-linejoin:miter;stroke-opacity:1"
         id="flowRoot4169"
         xml:space="preserve"
         transform="translate(-113.24564,-40.148834)"><flowRegion
           id="flowRegion4171"><rect
             y="427.07962"
             x="89.541069"
             height="88.78862"
             width="56.433445"
             id="rect4173" /></flowRegion><flowPara
           id="flowPara4175" /></flowRoot>      <rect
         inkscape:export-ydpi="4.9499998"
         inkscape:export-xdpi="4.9499998"
         y="282.12115"
         x="75.899208"
         height="400"
         width="400"
         id="rect3336"
         style="fill:none;fill-rule:evenodd;stroke:none;stroke-width:1px;stroke-linecap:butt;stroke-linejoin:miter;stroke-opacity:1" />
      <rect
         inkscape:export-ydpi="4.9499998"
         inkscape:export-xdpi="4.9499998"
         y="282.50024"
         x="75.899216"
         height="400"
         width="400"
         id="rect3336-9"
         style="fill:none;fill-rule:evenodd;stroke:none;stroke-width:1px;stroke-linecap:butt;stroke-linejoin:miter;stroke-opacity:1" />
      <flowRoot
         style="font-style:normal;font-weight:normal;font-size:40px;line-height:125%;font-family:sans-serif;letter-spacing:0px;word-spacing:0px;fill:#252525;fill-opacity:1;stroke:none;stroke-width:1px;stroke-linecap:butt;stroke-linejoin:miter;stroke-opacity:1"
         id="flowRoot4169-0"
         xml:space="preserve"
         transform="translate(439.46414,-528.08571)"><flowRegion
           id="flowRegion4171-0"><rect
             y="427.07962"
             x="89.541069"
             height="88.78862"
             width="56.433445"
             id="rect4173-7" /></flowRegion><flowPara
           id="flowPara4175-0" /></flowRoot>      <flowRoot
         style="font-style:normal;font-weight:normal;font-size:40px;line-height:125%;font-family:sans-serif;letter-spacing:0px;word-spacing:0px;fill:#252525;fill-opacity:1;stroke:none;stroke-width:1px;stroke-linecap:butt;stroke-linejoin:miter;stroke-opacity:1"
         id="flowRoot4169-9"
         xml:space="preserve"
         transform="translate(1000.6708,-470.06213)"><flowRegion
           id="flowRegion4171-9"><rect
             y="427.07962"
             x="89.541069"
             height="88.78862"
             width="56.433445"
             id="rect4173-6" /></flowRegion><flowPara
           id="flowPara4175-7" /></flowRoot>      <path
         id="path4695"
         d="m 379.78593,296.29109 c -2.49906,1.40468 -4.51245,3.08784 -6.31445,4.90429 1.98802,-0.95902 4.14686,-2.7904 6.31445,-4.90429 z m 26.71094,25.53906 c -5.42747,5.15242 -12.36233,10.20008 -21.17774,13.50586 -12.51984,4.69494 -25.7584,6.88187 -33.83203,7.86133 a 45.450001,45.449986 0 0 0 42.60352,29.78515 45.450001,45.449986 0 0 0 44.48242,-36.36523 c -1.61708,-0.47359 -3.36973,-0.99824 -5.29688,-1.61328 -6.41512,-2.04738 -13.52922,-4.20333 -20.8164,-8.75782 -2.25436,-1.40897 -4.17691,-2.903 -5.96289,-4.41601 z m -121.52735,33.01172 a 45.450001,45.449986 0 0 0 -45.45117,45.44922 45.450001,45.449986 0 0 0 45.45117,45.44922 45.450001,45.449986 0 0 0 45.44922,-45.44922 45.450001,45.449986 0 0 0 -45.44922,-45.44922 z m 83.13281,36.31836 0,0.006 c -0.0823,0.0683 -0.15723,0.14275 -0.24218,0.20899 l -4.58594,2.32812 c -5.30827,2.94774 -10.33178,6.64683 -15.01562,10.97852 -1.29366,18.49828 -10.67978,34.87418 -24.58008,45.67187 6.95799,3.74213 13.41043,8.37235 19.32031,13.7461 l 5.59961,0 a 18.0018,18.0018 0 0 1 12.72851,5.27148 l 36.36133,36.35938 a 18.0018,18.0018 0 0 1 4.28516,6.86718 l 6.38086,-6.625 a 18.0018,18.0018 0 0 1 0.23633,-0.24218 l 36.35937,-36.35952 a 18.0018,18.0018 0 0 1 25.44141,-0.0137 l 3.55859,3.55078 c -6.1857,-38.1096 -26.62847,-68.90362 -53.3125,-81.39063 l -52.53516,-0.35742 z m -206.37499,47.30078 c -2.50065,1.40527 -4.51356,3.09073 -6.31641,4.90821 1.98896,-0.95883 4.14759,-2.79301 6.31641,-4.90821 z m 97.2539,25.45899 0,0.006 c -0.0823,0.0683 -0.15724,0.14079 -0.24219,0.20703 l -4.58593,2.33008 c -2.12419,1.17958 -4.20108,2.48378 -6.23047,3.89648 a 18.0018,18.0018 0 0 1 -8.94532,9.12305 c -1.81881,17.61321 -10.93844,33.17609 -24.27148,43.5664 29.68224,15.99702 50.25575,48.01499 57.80274,86.35157 l 13.98242,0 9.2539,-9.25586 -32.59375,-32.59571 a 18.0018,18.0018 0 0 1 -5.27148,-12.72851 l 0,-18.17969 a 18.0018,18.0018 0 0 1 18,-18 l 18.17969,0 a 18.0018,18.0018 0 0 1 12.72851,5.27149 l 12.90625,12.9082 10.9043,0 0,-10.92383 -12.86328,-12.91211 a 18.0018,18.0018 0 0 1 -5.24805,-12.70312 l 0,-18.17969 a 18.0018,18.0018 0 0 1 6.42188,-13.7793 c -2.40651,-1.49983 -4.86779,-2.86342 -7.39258,-4.04492 l -52.53516,-0.35742 z m -70.54492,0.0801 c -5.42757,5.15266 -12.36193,10.19994 -21.17773,13.50586 -13.22509,4.95941 -27.14162,7.09924 -35.03125,7.99414 a 45.450001,45.449986 0 0 0 43.66211,32.96091 45.450001,45.449986 0 0 0 45.00976,-39.56054 c -1.7156,-0.49898 -3.5905,-1.0566 -5.68359,-1.72461 -6.41513,-2.04739 -13.52923,-4.20528 -20.81641,-8.75977 -2.25482,-1.40926 -4.17663,-2.90267 -5.96289,-4.41601 z m -38.53516,72.64062 0,0.004 c -0.0823,0.0683 -0.15723,0.14274 -0.24218,0.20898 l -4.58594,2.32813 c -29.90886,16.60872 -50.994142,56.67033 -50.99414,103.45312 0,10.0484 0.97847,19.78438 2.802734,29.04688 2.705927,5.6745 9.504026,9.83375 17.650386,10.37695 l 0,0.0625 121.07813,0 0,-0.0117 c 9.14349,-0.1211 16.84418,-4.78393 19.43164,-11.17773 1.73135,-9.0394 2.6582,-18.52274 2.6582,-28.30274 0,-48.97688 -23.11304,-90.58572 -55.26367,-105.63086 l -52.53516,-0.35755 z m 216.40625,21.38865 a 18.0018,18.0018 0 0 1 -12.56836,14.03321 l 0.54883,-0.0156 a 18.0018,18.0018 0 0 1 12.34375,4.48438 c 0.0944,-2.19192 0.14844,-4.39871 0.14844,-6.62305 0,-4.01478 -0.16979,-7.97372 -0.47266,-11.87891 z m -46.97265,14.79102 0.16015,0.16016 5.96875,-0.16016 -6.1289,0 z"
         style="fill:#4e505d;fill-opacity:1;stroke:none;stroke-width:41.15159225;stroke-linecap:round;stroke-linejoin:round;stroke-opacity:1"
         inkscape:connector-curvature="0" />
      <rect
         y="282.12115"
         x="75.899216"
         height="400"
         width="400.00146"
         id="rect4729"
         style="color:#000000;clip-rule:nonzero;display:inline;overflow:visible;visibility:visible;opacity:1;isolation:auto;mix-blend-mode:normal;color-interpolation:sRGB;color-interpolation-filters:linearRGB;solid-color:#000000;solid-opacity:1;fill:none;fill-opacity:1;fill-rule:nonzero;stroke:none;stroke-width:36;stroke-linecap:butt;stroke-linejoin:round;stroke-miterlimit:4;stroke-dasharray:none;stroke-dashoffset:0;stroke-opacity:1;color-rendering:auto;image-rendering:auto;shape-rendering:auto;text-rendering:auto;enable-background:accumulate" />
      <path
         inkscape:connector-curvature="0"
         id="rect4172"
         d="m 330.48662,482.10147 0,18.17969 18.11133,18.17968 0,36.35938 -36.35938,0 -18.17968,-18.17969 -18.17969,0 0,18.17969 36.35937,36.36133 42.53125,-1.14063 89.19922,87.83981 c 6.70188,6.7308 19.28694,4.9272 25.9336,-1.748 6.64676,-6.6754 8.51937,-19.392 1.75195,-26.0567 l -85.53125,-84.23237 -1.16406,-47.38282 -36.36133,-36.35937 -18.11133,0 z m 127.19141,0 -36.35938,36.35937 -17.89648,18.58008 0.51758,21.08399 8.20703,8.08203 27.35156,-29.56641 36.40234,-36.35937 -18.22265,-18.17969 z M 347.596,608.24014 l -34.875,0.93555 a 18.0018,18.0018 0 0 1 -0.54493,-0.008 l -29.77734,29.78124 c -8.6933,8.6945 -8.69336,22.694 0,31.3887 l 5.26172,5.2617 c 8.69329,8.6946 22.69146,8.6946 31.38476,0 L 367.14678,627.4919 347.596,608.23995 Z"
         style="opacity:1;fill:#99b000;fill-opacity:1;stroke:none;stroke-width:2;stroke-linecap:butt;stroke-linejoin:round;stroke-miterlimit:4;stroke-dasharray:none;stroke-opacity:1" />
      <path
         inkscape:connector-curvature="0"
         id="path4213"
         d="m 124.43921,468.15182 c 0,0 20.5,-1.5 36.5,-7.5 16,-6 26.5,-25 26.5,-25 0,0 8.5,12.5 16.5,17.5 8,5 27.5,10 27.5,10 0,0 -8,-50 -51.5,-47.5 -43.5,2.5 -52.5,37.5 -55.5,52.5 z"
         style="fill:#99b000;fill-rule:evenodd;stroke:none;stroke-width:1px;stroke-linecap:butt;stroke-linejoin:miter;stroke-opacity:1" />
      <path
         id="path4593"
         d="m 368.87187,282.12116 c -18.95619,11.94913 -24.21594,33.07383 -26.37305,43.85938 0,0 20.5,-1.5 36.5,-7.5 16,-6 26.5,-25 26.5,-25 0,0 8.5,12.5 16.5,17.5 8,5 27.5,10 27.5,10 0,0 -4.02417,-25.12063 -21.85938,-38.85938 l -58.76757,0 z"
         style="fill:#99b000;fill-rule:evenodd;stroke:none;stroke-width:1px;stroke-linecap:butt;stroke-linejoin:miter;stroke-opacity:1"
         inkscape:connector-curvature="0" />
      <path
         sodipodi:nodetypes="cccccc"
         inkscape:connector-curvature="0"
         id="path4604"
         d="m 112.25921,500.28107 18.18,18.17999 -18.18,36.35999 -36.359998,0 0,-36.35999 z"
         style="fill:#99b000;fill-rule:evenodd;stroke:none;stroke-width:1px;stroke-linecap:butt;stroke-linejoin:miter;stroke-opacity:1" />
      <path
         style="fill:#99b000;fill-rule:evenodd;stroke:none;stroke-width:1px;stroke-linecap:butt;stroke-linejoin:miter;stroke-opacity:1"
         d="m 457.67919,354.84112 -18.18,18.17999 0.0415,18.18001 36.36,0 0,-36.36 z"
         id="path4608"
         inkscape:connector-curvature="0"
         sodipodi:nodetypes="cccccc" />
    </g>
  </g>
</svg>
