<?xml version="1.0" encoding="UTF-8" standalone="no"?>
<!-- Created with Inkscape (http://www.inkscape.org/) -->

<svg
   xmlns:dc="http://purl.org/dc/elements/1.1/"
   xmlns:cc="http://creativecommons.org/ns#"
   xmlns:rdf="http://www.w3.org/1999/02/22-rdf-syntax-ns#"
   xmlns:svg="http://www.w3.org/2000/svg"
   xmlns="http://www.w3.org/2000/svg"
   xmlns:xlink="http://www.w3.org/1999/xlink"
   xmlns:sodipodi="http://sodipodi.sourceforge.net/DTD/sodipodi-0.dtd"
   xmlns:inkscape="http://www.inkscape.org/namespaces/inkscape"
   width="210mm"
   height="297mm"
   viewBox="0 0 744.09448819 1052.3622047"
   id="svg2"
   version="1.1"
   inkscape:version="0.91 r13725"
   inkscape:export-xdpi="4.9492693"
   inkscape:export-ydpi="4.9492693"
   sodipodi:docname="user-student-assistant.svg"
   inkscape:export-filename="C:\Users\johannes\Documents\Arbeit\RRZE\github3\bicons\22x22\categories\user-student-assistant.png">
  <defs
     id="defs4">
    <linearGradient
       id="linearGradient2224">
      <stop
         style="stop-color:#7c7c7c;stop-opacity:1;"
         offset="0"
         id="stop4251" />
      <stop
         style="stop-color:#b8b8b8;stop-opacity:1;"
         offset="1"
         id="stop4253" />
    </linearGradient>
    <linearGradient
       id="linearGradient4255">
      <stop
         id="stop2226"
         offset="0"
         style="stop-color:#7c7c7c;stop-opacity:1;" />
      <stop
         id="stop2228"
         offset="1"
         style="stop-color:#b8b8b8;stop-opacity:1;" />
    </linearGradient>
    <linearGradient
       id="linearGradient15218">
      <stop
         id="stop15220"
         offset="0"
         style="stop-color:#eeeeef;stop-opacity:1;" />
      <stop
         id="stop2736"
         offset="0.59928656"
         style="stop-color:#d3d7cf;stop-opacity:1;" />
      <stop
         id="stop2738"
         offset="0.82758623"
         style="stop-color:#ffffff;stop-opacity:1;" />
      <stop
         id="stop15222"
         offset="1"
         style="stop-color:#d3d7cf;stop-opacity:1;" />
    </linearGradient>
    <pattern
       y="0"
       x="0"
       height="6"
       width="6"
       patternUnits="userSpaceOnUse"
       id="EMFhbasepattern" />
    <pattern
       y="0"
       x="0"
       height="6"
       width="6"
       patternUnits="userSpaceOnUse"
       id="EMFhbasepattern-5" />
    <pattern
       y="0"
       x="0"
       height="6"
       width="6"
       patternUnits="userSpaceOnUse"
       id="EMFhbasepattern-6" />
    <linearGradient
       inkscape:collect="always"
       id="linearGradient4250">
      <stop
         style="stop-color:#99b000;stop-opacity:1;"
         offset="0"
         id="stop4252" />
      <stop
         style="stop-color:#a9bc24;stop-opacity:1"
         offset="1"
         id="stop4254" />
    </linearGradient>
    <linearGradient
       inkscape:collect="always"
       xlink:href="#linearGradient4250"
       id="linearGradient4619"
       x1="93.757843"
       y1="566.36224"
       x2="146.24216"
       y2="566.36224"
       gradientUnits="userSpaceOnUse"
       gradientTransform="matrix(0.74664567,0.43107608,-0.43107608,0.74664567,1173.8037,75.317814)" />
    <linearGradient
       inkscape:collect="always"
       xlink:href="#linearGradient4254"
       id="linearGradient4268"
       x1="471.69119"
       y1="457.14825"
       x2="375.74777"
       y2="664.98523"
       gradientUnits="userSpaceOnUse"
       gradientTransform="matrix(1.1386133,0,0,1.1359509,-56.54004,-51.106828)" />
    <linearGradient
       inkscape:collect="always"
       id="linearGradient4254">
      <stop
         style="stop-color:#7a8597;stop-opacity:1"
         offset="0"
         id="stop4256" />
      <stop
         style="stop-color:#4e505d;stop-opacity:1"
         offset="1"
         id="stop4258" />
    </linearGradient>
    <linearGradient
       inkscape:collect="always"
       xlink:href="#linearGradient4254"
       id="linearGradient4260"
       x1="425.62207"
       y1="330.38269"
       x2="376.55045"
       y2="461.45456"
       gradientUnits="userSpaceOnUse"
       gradientTransform="matrix(1.1116851,0,0,1.1090857,-47.31415,-43.601498)" />
  </defs>
  <sodipodi:namedview
     id="base"
     pagecolor="#ffffff"
     bordercolor="#666666"
     borderopacity="1.0"
     inkscape:pageopacity="0.0"
     inkscape:pageshadow="2"
     inkscape:zoom="1.4142136"
     inkscape:cx="567.55413"
     inkscape:cy="677.29012"
     inkscape:document-units="px"
     inkscape:current-layer="layer1"
     showgrid="false"
     showguides="true"
     inkscape:guide-bbox="true"
     inkscape:window-width="1600"
     inkscape:window-height="837"
     inkscape:window-x="-4"
     inkscape:window-y="-4"
     inkscape:window-maximized="1"
     inkscape:snap-bbox="true"
     inkscape:bbox-paths="true"
     inkscape:snap-bbox-edge-midpoints="true"
     inkscape:snap-nodes="true"
     inkscape:bbox-nodes="true"
     inkscape:object-paths="true"
     inkscape:snap-intersection-paths="true"
     inkscape:object-nodes="true"
     inkscape:snap-smooth-nodes="true">
    <sodipodi:guide
       position="315.53572,730.17859"
       orientation="0,1"
       id="guide3338" />
    <sodipodi:guide
       position="422.49631,329.51177"
       orientation="0,1"
       id="guide3340" />
    <sodipodi:guide
       position="189.10714,408.8393"
       orientation="1,0"
       id="guide3344" />
    <sodipodi:guide
       position="589.04521,468.07945"
       orientation="1,0"
       id="guide3346" />
    <inkscape:grid
       type="xygrid"
       id="grid3440" />
    <sodipodi:guide
       position="0,0"
       orientation="0,1"
       id="guide3405" />
    <sodipodi:guide
       position="214.125,684.50002"
       orientation="1,0"
       id="guide3407" />
    <sodipodi:guide
       position="0,0"
       orientation="0,1"
       id="guide3409" />
    <sodipodi:guide
       position="589.04521,378.30213"
       orientation="1,0"
       id="guide3411" />
    <sodipodi:guide
       position="564.00001,683.37502"
       orientation="1,0"
       id="guide3413" />
    <sodipodi:guide
       position="0,0"
       orientation="0,1"
       id="guide4168" />
  </sodipodi:namedview>
  <metadata
     id="metadata7">
    <rdf:RDF>
      <cc:Work
         rdf:about="">
        <dc:format>image/svg+xml</dc:format>
        <dc:type
           rdf:resource="http://purl.org/dc/dcmitype/StillImage" />
        <dc:title>user student assistant</dc:title>
        <dc:date>June 2015</dc:date>
        <dc:creator>
          <cc:Agent>
            <dc:title>Johannes Hechler</dc:title>
          </cc:Agent>
        </dc:creator>
        <dc:rights>
          <cc:Agent>
            <dc:title>Johannes Hechler</dc:title>
          </cc:Agent>
        </dc:rights>
        <dc:publisher>
          <cc:Agent>
            <dc:title>RRZE</dc:title>
          </cc:Agent>
        </dc:publisher>
        <dc:contributor>
          <cc:Agent>
            <dc:title>Ute Weber, Hendrik Eggers</dc:title>
          </cc:Agent>
        </dc:contributor>
      </cc:Work>
    </rdf:RDF>
  </metadata>
  <g
     inkscape:label="Ebene 1"
     inkscape:groupmode="layer"
     id="layer1">
    <rect
       style="fill:none;fill-rule:evenodd;stroke:none;stroke-width:1px;stroke-linecap:butt;stroke-linejoin:miter;stroke-opacity:1"
       id="rect3336"
       width="400"
       height="399.0647"
       x="189.10715"
       y="323.78574"
       inkscape:export-xdpi="4.9499998"
       inkscape:export-ydpi="4.9499998" />
    <path
       inkscape:connector-curvature="0"
       id="path2176"
       d="m 335.41602,486.26503 c -16.00178,9.45713 -30.014,22.23197 -41.61329,38 l 40.74415,0 c 19.73196,0 36.17968,16.44768 36.17968,36.17968 l 0,0.17969 18.3418,0 41.64258,0 c 4.02526,-10.70734 10.45086,-20.1726 19.23437,-27.49219 8.37104,-6.97587 18.25004,-11.81486 29.29297,-14.86914 -10.52573,-12.88422 -22.64501,-23.54025 -35.98437,-31.69922 l -54.27539,-0.0566 -53.5625,-0.24218 z m 8.2246,107.87304 a 18.0018,18.0018 0 0 1 -9.09374,2.48633 l -72.03321,0 c -3.88106,17.95354 -5.94531,37.50961 -5.94531,58.54102 0,17.37433 1.58895,34.20921 4.55273,50.22461 0.10865,0.24248 0.24072,0.47561 0.35743,0.71484 l 109.24804,0 0,-109.48047 -18,0 a 18.0018,18.0018 0 0 1 -9.08594,-2.48633 z"
       style="fill:url(#linearGradient4268);fill-opacity:1;stroke:none;stroke-width:41.15159225;stroke-linecap:round;stroke-linejoin:round;stroke-opacity:1" />
    <path
       inkscape:connector-curvature="0"
       style="fill:url(#linearGradient4260);fill-opacity:1;stroke:none;stroke-width:14;stroke-miterlimit:4;stroke-dasharray:none;stroke-opacity:1"
       d="m 358.85807,341.43898 a 18.0018,18.0018 0 0 1 -6.11914,13.72461 c -1.70558,1.4927 -3.24208,3.13888 -4.73634,4.81445 l 82.22853,0 c -1.49458,-1.68073 -3.03141,-3.33066 -4.7383,-4.82812 a 18.0018,18.0018 0 0 1 -6.1035,-13.71094 l -60.53125,0 z m 103.26367,54.36133 a 18.0018,18.0018 0 0 1 -2.38086,0.17773 l -141.28515,0 a 18.0018,18.0018 0 0 1 -2.28907,-0.15039 72.979141,72.415733 0 0 0 -0.002,0.0273 72.979141,72.415733 0 0 0 72.98047,72.41602 72.979141,72.415733 0 0 0 72.97851,-72.41602 72.979141,72.415733 0 0 0 -0.002,-0.0547 z"
       id="circle2187-6" />
    <path
       inkscape:connector-curvature="0"
       style="color:#000000;clip-rule:nonzero;display:inline;overflow:visible;visibility:visible;opacity:1;isolation:auto;mix-blend-mode:normal;color-interpolation:sRGB;color-interpolation-filters:linearRGB;solid-color:#000000;solid-opacity:1;fill:#2f3037;fill-opacity:1;fill-rule:evenodd;stroke:none;stroke-width:50;stroke-linecap:butt;stroke-linejoin:round;stroke-miterlimit:4;stroke-dasharray:none;stroke-dashoffset:0;stroke-opacity:1;color-rendering:auto;image-rendering:auto;shape-rendering:auto;text-rendering:auto;enable-background:accumulate"
       d="m 271.05653,322.18368 c -4.91019,0 -9.17188,4.1152 -9.17188,9.02539 l 0,0.73243 c 0,4.91018 4.041,8.42189 8.95117,8.42187 l 70.04688,0 c -10.98308,9.61235 -18.79767,22.2812 -22.42774,36.35938 l 141.28516,0 c -3.61611,-14.07204 -11.41257,-26.74019 -22.37695,-36.35938 l 60.86133,0.0449 0,63.20118 0,18.74023 c 0,4.93837 3.95309,8.91406 8.86328,8.91406 l 0.45312,0 18.17969,0 c 4.91017,0 8.86328,-3.97569 8.86328,-8.91406 l 0,-18.74023 c 0,-4.93838 -3.95311,-8.91407 -8.86328,-8.91407 l -9.31641,0 0,-63.14453 0,-0.73242 c 0,-0.30823 -0.0143,-0.6119 -0.0449,-0.91016 -0.42453,-4.17686 -3.74774,-7.28572 -7.93164,-7.68164 -0.29885,-0.0285 -0.60327,-0.043 -0.91016,-0.043 l -0.45312,0 -236.00781,0 z"
       id="rect4211" />
    <path
       sodipodi:nodetypes="ccsssscccsscsscccsssccccssscc"
       inkscape:connector-curvature="0"
       id="path4252"
       style="font-style:normal;font-variant:normal;font-weight:bold;font-stretch:normal;font-size:medium;line-height:125%;font-family:sans-serif;-inkscape-font-specification:'sans-serif Bold';text-align:end;letter-spacing:0px;word-spacing:0px;text-anchor:end;fill:#99b000;fill-opacity:1;stroke:none;stroke-width:1px;stroke-linecap:butt;stroke-linejoin:miter;stroke-opacity:1"
       d="m 576.94233,540.68987 0,39.02559 c -10.12689,-4.52829 -20.00679,-7.94508 -29.63969,-10.25039 -9.6329,-2.30531 -18.73064,-3.45796 -27.29321,-3.45796 -11.36188,0 -19.75979,1.56432 -25.19374,4.69295 -5.43394,3.12863 -8.15091,7.98625 -8.15091,14.57284 0,4.93995 1.81131,8.80958 5.43394,11.60888 3.70496,2.71697 10.37389,5.06345 20.00679,7.03943 l 20.25379,4.07546 c 20.50079,4.11662 35.07363,10.37389 43.71854,18.7718 8.64491,8.39791 12.96737,20.33612 12.96737,35.81462 0,20.33615 -6.05144,35.48525 -18.15431,45.44755 -12.02055,9.8799 -30.42186,14.8198 -55.20393,14.8198 -11.69121,0 -23.42358,-1.1115 -35.19713,-3.3344 -11.77354,-2.223 -25.15256,-5.2663 -36.92611,-9.6299 l 0,-40.13712 c 11.77355,6.25732 24.74091,10.74142 35.69112,13.95232 11.03255,3.1287 21.65344,4.693 31.86267,4.693 10.37389,0 18.31898,-1.729 23.83525,-5.187 5.51627,-3.4579 8.27441,-8.3979 8.27441,-14.81981 0,-5.76327 -1.89365,-10.20923 -5.68094,-13.33786 -3.70496,-3.12863 -11.15605,-5.92794 -22.35326,-8.39791 l -18.40131,-4.07546 c -18.44247,-3.95195 -31.945,-10.25039 -40.50758,-18.8953 -8.48024,-8.64491 -12.72036,-20.29495 -12.72036,-34.95013 0,-18.36014 5.92794,-32.48016 17.78381,-42.36006 11.85588,-9.87989 28.8987,-14.81984 51.12847,-14.81984 10.12689,0 20.54195,0.78216 31.24517,2.34647 10.70322,1.48199 21.77694,3.74613 33.22115,6.79243 z" />
    <path
       inkscape:connector-curvature="0"
       style="color:#000000;clip-rule:nonzero;display:inline;overflow:visible;visibility:visible;opacity:1;isolation:auto;mix-blend-mode:normal;color-interpolation:sRGB;color-interpolation-filters:linearRGB;solid-color:#000000;solid-opacity:1;fill:#99b000;fill-opacity:1;fill-rule:nonzero;stroke:none;stroke-width:36;stroke-linecap:butt;stroke-linejoin:round;stroke-miterlimit:4;stroke-dasharray:none;stroke-dashoffset:0;stroke-opacity:1;color-rendering:auto;image-rendering:auto;shape-rendering:auto;text-rendering:auto;enable-background:accumulate"
       d="m 261.82589,541.01054 c -10.07172,0 -18.17969,8.10796 -18.17969,18.17968 l 0,18.1797 -36.35937,0 c -10.07172,0 -18.17969,8.108 -18.17969,18.1797 l 0,109.12112 c 0,10.0717 8.10797,18.1797 18.17969,18.1797 l 181.78125,0 c 10.07172,0 18.18164,-8.108 18.18164,-18.1797 l 0,-109.12112 c 0,-10.0717 -8.10992,-18.1797 -18.18164,-18.1797 l -36.3418,0 0,-18.1797 c 0,-10.07172 -8.10797,-18.17968 -18.17969,-18.17968 l -72.7207,0 z m 18.05469,18.17968 36.61133,0 c 10.00246,0 18.05468,8.0522 18.05468,18.0547 l 0,0.125 -72.7207,0 0,-0.125 c 0,-10.0025 8.05222,-18.0547 18.05469,-18.0547 z"
       id="rect4219" />
  </g>
</svg>
