<?xml version="1.0" encoding="UTF-8" standalone="no"?>
<!-- Created with Inkscape (http://www.inkscape.org/) -->

<svg
   xmlns:dc="http://purl.org/dc/elements/1.1/"
   xmlns:cc="http://creativecommons.org/ns#"
   xmlns:rdf="http://www.w3.org/1999/02/22-rdf-syntax-ns#"
   xmlns:svg="http://www.w3.org/2000/svg"
   xmlns="http://www.w3.org/2000/svg"
   xmlns:xlink="http://www.w3.org/1999/xlink"
   xmlns:sodipodi="http://sodipodi.sourceforge.net/DTD/sodipodi-0.dtd"
   xmlns:inkscape="http://www.inkscape.org/namespaces/inkscape"
   width="210mm"
   height="297mm"
   viewBox="0 0 744.09448819 1052.3622047"
   id="svg2"
   version="1.1"
   inkscape:version="0.91 r13725"
   inkscape:export-xdpi="4.94977"
   inkscape:export-ydpi="4.94977"
   sodipodi:docname="user-honorary-professor.svg"
   inkscape:export-filename="C:\Users\johannes\Documents\Arbeit\RRZE\github3\bicons\22x22\categories\user-honorary-professor.png">
  <defs
     id="defs4">
    <linearGradient
       id="linearGradient2224">
      <stop
         id="stop2226"
         offset="0"
         style="stop-color:#7c7c7c;stop-opacity:1;" />
      <stop
         id="stop2228"
         offset="1"
         style="stop-color:#b8b8b8;stop-opacity:1;" />
    </linearGradient>
    <linearGradient
       id="linearGradient15218">
      <stop
         id="stop15220"
         offset="0"
         style="stop-color:#eeeeef;stop-opacity:1;" />
      <stop
         id="stop2736"
         offset="0.59928656"
         style="stop-color:#d3d7cf;stop-opacity:1;" />
      <stop
         id="stop2738"
         offset="0.82758623"
         style="stop-color:#ffffff;stop-opacity:1;" />
      <stop
         id="stop15222"
         offset="1"
         style="stop-color:#d3d7cf;stop-opacity:1;" />
    </linearGradient>
    <pattern
       y="0"
       x="0"
       height="6"
       width="6"
       patternUnits="userSpaceOnUse"
       id="EMFhbasepattern" />
    <pattern
       y="0"
       x="0"
       height="6"
       width="6"
       patternUnits="userSpaceOnUse"
       id="EMFhbasepattern-5" />
    <linearGradient
       inkscape:collect="always"
       xlink:href="#linearGradient4254"
       id="linearGradient4268"
       x1="471.69119"
       y1="457.14825"
       x2="375.74777"
       y2="664.98523"
       gradientUnits="userSpaceOnUse"
       gradientTransform="matrix(1.1386133,0,0,1.1358522,13.65854,-8.1181353)" />
    <linearGradient
       inkscape:collect="always"
       id="linearGradient4254">
      <stop
         style="stop-color:#7a8597;stop-opacity:1"
         offset="0"
         id="stop4256" />
      <stop
         style="stop-color:#4e505d;stop-opacity:1"
         offset="1"
         id="stop4258" />
    </linearGradient>
    <linearGradient
       inkscape:collect="always"
       xlink:href="#linearGradient4254"
       id="linearGradient4260"
       x1="425.62207"
       y1="330.38269"
       x2="376.55045"
       y2="461.45456"
       gradientUnits="userSpaceOnUse"
       gradientTransform="matrix(1.1116851,0,0,1.1090857,-214.41929,150.15213)" />
  </defs>
  <sodipodi:namedview
     id="base"
     pagecolor="#ffffff"
     bordercolor="#666666"
     borderopacity="1.0"
     inkscape:pageopacity="0.0"
     inkscape:pageshadow="2"
     inkscape:zoom="0.5"
     inkscape:cx="170.09627"
     inkscape:cy="610.53134"
     inkscape:document-units="px"
     inkscape:current-layer="layer1"
     showgrid="false"
     showguides="true"
     inkscape:guide-bbox="true"
     inkscape:window-width="1366"
     inkscape:window-height="721"
     inkscape:window-x="-4"
     inkscape:window-y="-4"
     inkscape:window-maximized="1"
     inkscape:snap-bbox="true"
     inkscape:bbox-paths="true"
     inkscape:bbox-nodes="true"
     inkscape:object-paths="true"
     inkscape:snap-nodes="false">
    <sodipodi:guide
       position="315.53572,730.17859"
       orientation="0,1"
       id="guide3338" />
    <sodipodi:guide
       position="351.25,330.17858"
       orientation="0,1"
       id="guide3340" />
    <sodipodi:guide
       position="189.10714,408.8393"
       orientation="1,0"
       id="guide3344" />
    <sodipodi:guide
       position="589.04521,468.07945"
       orientation="1,0"
       id="guide3346" />
    <inkscape:grid
       type="xygrid"
       id="grid3440" />
    <sodipodi:guide
       position="589.04521,378.30213"
       orientation="1,0"
       id="guide3411" />
  </sodipodi:namedview>
  <metadata
     id="metadata7">
    <rdf:RDF>
      <cc:Work
         rdf:about="">
        <dc:format>image/svg+xml</dc:format>
        <dc:type
           rdf:resource="http://purl.org/dc/dcmitype/StillImage" />
        <dc:title>user honorary professor</dc:title>
        <dc:date>June 2015</dc:date>
        <dc:creator>
          <cc:Agent>
            <dc:title>Johannes Hechler</dc:title>
          </cc:Agent>
        </dc:creator>
        <dc:rights>
          <cc:Agent>
            <dc:title>Johannes Hechler</dc:title>
          </cc:Agent>
        </dc:rights>
        <dc:publisher>
          <cc:Agent>
            <dc:title>RRZE</dc:title>
          </cc:Agent>
        </dc:publisher>
        <dc:contributor>
          <cc:Agent>
            <dc:title>Ute Weber, Hendrik Eggers</dc:title>
          </cc:Agent>
        </dc:contributor>
      </cc:Work>
    </rdf:RDF>
  </metadata>
  <g
     inkscape:label="Ebene 1"
     inkscape:groupmode="layer"
     id="layer1">
    <g
       id="g4204"
       transform="translate(-70.964075,-44.17857)">
      <path
         id="path2176"
         d="m 405.61665,529.2079 c -48.5912,28.71515 -78.84766,88.00095 -78.84766,168.88477 0,17.37276 1.587,34.2067 4.55078,50.2207 4.39616,9.8108 15.44281,17.00025 28.67774,17.93945 l 0,0.10938 82.39062,0 0,-36.54102 -36.53906,0 a 18.0018,18.0018 0 0 1 -12.72851,-30.72656 l 60.98632,-60.98633 a 18.0018,18.0018 0 0 1 7.4375,-4.45312 c -0.72693,-4.09359 -1.17572,-8.2785 -1.17578,-12.57031 -7.5e-4,-39.84491 32.70011,-72.52408 72.55078,-72.52344 1.73692,3e-5 3.45448,0.083 5.16211,0.20508 -7.61141,-7.44766 -15.85444,-13.89652 -24.62695,-19.26172 l -54.27734,-0.0547 -53.56055,-0.24219 z m 127.30273,55.35352 c -20.40489,-3.3e-4 -36.55116,16.14337 -36.55078,36.52148 2.9e-4,20.37762 16.14639,36.51986 36.55078,36.51953 20.40391,-3.4e-4 36.54855,-16.1424 36.54883,-36.51953 3.9e-4,-20.37762 -16.14443,-36.52114 -36.54883,-36.52148 z m -69.10351,94.75 -14.50977,14.50976 11.08203,0 a 18.0018,18.0018 0 0 1 18,18 l 0,11.08594 18.86328,-18.86328 c -12.95956,-5.61836 -24.42195,-14.06507 -33.43554,-24.73242 z m 128.62109,9.7168 c -7.0748,6.15906 -15.11464,11.22711 -23.83594,15.00976 l 18.86719,18.86719 0,-11.08399 a 18.0018,18.0018 0 0 1 5.11133,-12.5625 c 0.002,-0.38962 0.0137,-0.77583 0.0137,-1.16601 0,-3.05388 -0.0632,-6.06874 -0.15625,-9.06445 z m -59.50781,30.25 -47.08398,47.08398 70.86132,0 0,-0.01 c 6.85088,-0.0964 13.18812,-1.87928 18.45703,-4.83984 l -42.23437,-42.23437 z"
         style="fill:url(#linearGradient4268);fill-opacity:1;stroke:none;stroke-width:41.15159225;stroke-linecap:round;stroke-linejoin:round;stroke-opacity:1"
         inkscape:connector-curvature="0" />
      <path
         style="color:#000000;clip-rule:nonzero;display:inline;overflow:visible;visibility:visible;opacity:1;isolation:auto;mix-blend-mode:normal;color-interpolation:sRGB;color-interpolation-filters:linearRGB;solid-color:#000000;solid-opacity:1;fill:#99b000;fill-opacity:1;fill-rule:nonzero;stroke:none;stroke-width:13;stroke-linecap:butt;stroke-linejoin:round;stroke-miterlimit:4;stroke-dasharray:none;stroke-dashoffset:0;stroke-opacity:1;color-rendering:auto;image-rendering:auto;shape-rendering:auto;text-rendering:auto;enable-background:accumulate"
         d="m 532.91938,566.56146 a 54.549824,54.520367 0 0 0 -54.5507,54.5214 54.549824,54.520367 0 0 0 54.5507,54.5196 54.549824,54.520367 0 0 0 54.5489,-54.5196 54.549824,54.520367 0 0 0 -54.5489,-54.5214 z m 66.0899,84.2597 c -11.4014,25.0778 -36.6878,42.6811 -65.8555,42.7754 l -0.2246,0.2246 72.5391,72.541 0,-54.541 54.541,0 -61,-61 z m -66.0801,43 -0.2246,-0.2246 c -29.1704,-0.087 -54.4616,-17.6859 -65.8691,-42.7617 l -60.9864,60.9863 54.5391,0 0,54.541 72.541,-72.541 z"
         id="path4345"
         inkscape:connector-curvature="0" />
      <g
         transform="translate(237.98871,-150.83032)"
         id="g4634">
        <rect
           style="fill:none;fill-rule:evenodd;stroke:none;stroke-width:1px;stroke-linecap:butt;stroke-linejoin:miter;stroke-opacity:1"
           id="rect3336"
           width="400"
           height="399.0647"
           x="22.00201"
           y="517.53937"
           inkscape:export-xdpi="4.9499998"
           inkscape:export-ydpi="4.9499998" />
        <path
           inkscape:connector-curvature="0"
           style="fill:url(#linearGradient4260);fill-opacity:1;stroke:none;stroke-width:14;stroke-miterlimit:4;stroke-dasharray:none;stroke-opacity:1"
           d="m 191.75294,535.19261 a 18.0018,18.0018 0 0 1 -6.11914,13.72461 c -1.70558,1.4927 -3.24208,3.13888 -4.73634,4.81445 l 82.22853,0 c -1.49458,-1.68073 -3.03141,-3.33066 -4.7383,-4.82812 a 18.0018,18.0018 0 0 1 -6.1035,-13.71094 l -60.53125,0 z m 103.26367,54.36133 a 18.0018,18.0018 0 0 1 -2.38086,0.17773 l -141.28515,0 a 18.0018,18.0018 0 0 1 -2.28907,-0.15039 72.979141,72.415733 0 0 0 -0.002,0.0273 72.979141,72.415733 0 0 0 72.98047,72.41602 72.979141,72.415733 0 0 0 72.97851,-72.41602 72.979141,72.415733 0 0 0 -0.002,-0.0547 z"
           id="circle2187-6" />
        <path
           inkscape:connector-curvature="0"
           style="color:#000000;clip-rule:nonzero;display:inline;overflow:visible;visibility:visible;opacity:1;isolation:auto;mix-blend-mode:normal;color-interpolation:sRGB;color-interpolation-filters:linearRGB;solid-color:#000000;solid-opacity:1;fill:#2f3037;fill-opacity:1;fill-rule:evenodd;stroke:none;stroke-width:50;stroke-linecap:butt;stroke-linejoin:round;stroke-miterlimit:4;stroke-dasharray:none;stroke-dashoffset:0;stroke-opacity:1;color-rendering:auto;image-rendering:auto;shape-rendering:auto;text-rendering:auto;enable-background:accumulate"
           d="m 103.9514,517.19257 c -4.91019,0 -9.17188,4.1152 -9.17188,9.02539 l 0,0.73243 c 0,4.91018 4.041,8.42189 8.95117,8.42187 l 70.04688,0 c -10.98308,9.61235 -18.79767,22.2812 -22.42774,36.35938 l 141.28516,0 c -3.61611,-14.07204 -11.41257,-26.74019 -22.37695,-36.35938 l 60.86133,0.0449 0,63.20118 0,18.74023 c 0,4.93837 3.95309,8.91406 8.86328,8.91406 l 0.45312,0 18.17969,0 c 4.91017,0 8.86328,-3.97569 8.86328,-8.91406 l 0,-18.74023 c 0,-4.93838 -3.95311,-8.91407 -8.86328,-8.91407 l -9.31641,0 0,-63.14453 0,-0.73242 c 0,-0.30823 -0.0143,-0.6119 -0.0449,-0.91016 -0.42453,-4.17686 -3.74774,-7.28572 -7.93164,-7.68164 -0.29885,-0.0285 -0.60327,-0.043 -0.91016,-0.043 l -0.45312,0 -236.00781,0 z"
           id="rect4211" />
        <g
           transform="translate(22.05957,-135.16953)"
           style="font-style:normal;font-weight:normal;font-size:252.925354px;line-height:125%;font-family:sans-serif;text-align:end;letter-spacing:0px;word-spacing:0px;text-anchor:end;fill:#000000;fill-opacity:1;stroke:none;stroke-width:1px;stroke-linecap:butt;stroke-linejoin:miter;stroke-opacity:1"
           id="text4240" />
      </g>
    </g>
  </g>
</svg>
