<?xml version="1.0" encoding="UTF-8" standalone="no"?>
<!-- Created with Inkscape (http://www.inkscape.org/) -->

<svg
   xmlns:dc="http://purl.org/dc/elements/1.1/"
   xmlns:cc="http://creativecommons.org/ns#"
   xmlns:rdf="http://www.w3.org/1999/02/22-rdf-syntax-ns#"
   xmlns:svg="http://www.w3.org/2000/svg"
   xmlns="http://www.w3.org/2000/svg"
   xmlns:xlink="http://www.w3.org/1999/xlink"
   xmlns:sodipodi="http://sodipodi.sourceforge.net/DTD/sodipodi-0.dtd"
   xmlns:inkscape="http://www.inkscape.org/namespaces/inkscape"
   width="210mm"
   height="297mm"
   viewBox="0 0 744.09448819 1052.3622047"
   id="svg2"
   version="1.1"
   inkscape:version="0.91 r13725"
   inkscape:export-xdpi="3.5999999"
   inkscape:export-ydpi="3.5999999"
   sodipodi:docname="database-account.svg"
   inkscape:export-filename="D:\Dokumente\Arbeit\RRZE\github\bicons\16x16\devices\database-account.png">
  <defs
     id="defs4">
    <inkscape:perspective
       sodipodi:type="inkscape:persp3d"
       inkscape:vp_x="0 : 526.1811 : 1"
       inkscape:vp_y="0 : 1000 : 0"
       inkscape:vp_z="744.09449 : 526.1811 : 1"
       inkscape:persp3d-origin="372.04724 : 350.7874 : 1"
       id="perspective4149" />
    <linearGradient
       id="linearGradient2224">
      <stop
         id="stop2226"
         offset="0"
         style="stop-color:#7c7c7c;stop-opacity:1;" />
      <stop
         id="stop2228"
         offset="1"
         style="stop-color:#b8b8b8;stop-opacity:1;" />
    </linearGradient>
    <linearGradient
       id="linearGradient15218">
      <stop
         id="stop15220"
         offset="0"
         style="stop-color:#eeeeef;stop-opacity:1;" />
      <stop
         id="stop2736"
         offset="0.59928656"
         style="stop-color:#d3d7cf;stop-opacity:1;" />
      <stop
         id="stop2738"
         offset="0.82758623"
         style="stop-color:#ffffff;stop-opacity:1;" />
      <stop
         id="stop15222"
         offset="1"
         style="stop-color:#d3d7cf;stop-opacity:1;" />
    </linearGradient>
    <pattern
       y="0"
       x="0"
       height="6"
       width="6"
       patternUnits="userSpaceOnUse"
       id="EMFhbasepattern" />
    <pattern
       y="0"
       x="0"
       height="6"
       width="6"
       patternUnits="userSpaceOnUse"
       id="EMFhbasepattern-5" />
    <linearGradient
       inkscape:collect="always"
       xlink:href="#linearGradient4153"
       id="linearGradient4159"
       x1="235"
       y1="682.36218"
       x2="525"
       y2="368.36221"
       gradientUnits="userSpaceOnUse"
       gradientTransform="matrix(0.99970712,0,0,0.99970712,233.53399,168.25836)" />
    <linearGradient
       inkscape:collect="always"
       id="linearGradient4153">
      <stop
         style="stop-color:#4e505d;stop-opacity:1;"
         offset="0"
         id="stop4155" />
      <stop
         style="stop-color:#7a8597;stop-opacity:1"
         offset="1"
         id="stop4157" />
    </linearGradient>
    <linearGradient
       inkscape:collect="always"
       xlink:href="#linearGradient4153"
       id="linearGradient4168"
       x1="235"
       y1="682.36218"
       x2="525"
       y2="368.36221"
       gradientUnits="userSpaceOnUse"
       gradientTransform="matrix(0.99970712,0,0,0.99970712,1.4703425,0.27220292)" />
    <linearGradient
       inkscape:collect="always"
       xlink:href="#linearGradient4265"
       id="linearGradient4271"
       x1="50"
       y1="400"
       x2="350.00195"
       y2="43.124779"
       gradientUnits="userSpaceOnUse"
       gradientTransform="matrix(0.03997715,0,0,0.0401607,428.99655,491.33604)" />
    <linearGradient
       inkscape:collect="always"
       id="linearGradient4265">
      <stop
         style="stop-color:#4e505d;stop-opacity:1;"
         offset="0"
         id="stop4267" />
      <stop
         style="stop-color:#7a859c;stop-opacity:1"
         offset="1"
         id="stop4269" />
    </linearGradient>
  </defs>
  <sodipodi:namedview
     id="base"
     pagecolor="#ffffff"
     bordercolor="#666666"
     borderopacity="1.0"
     inkscape:pageopacity="0.0"
     inkscape:pageshadow="2"
     inkscape:zoom="0.7071068"
     inkscape:cx="177.21687"
     inkscape:cy="520.14808"
     inkscape:document-units="px"
     inkscape:current-layer="layer1"
     showgrid="false"
     showguides="true"
     inkscape:guide-bbox="true"
     inkscape:window-width="1600"
     inkscape:window-height="837"
     inkscape:window-x="-4"
     inkscape:window-y="-4"
     inkscape:window-maximized="1"
     inkscape:snap-bbox="true"
     inkscape:bbox-paths="true"
     inkscape:bbox-nodes="true"
     inkscape:snap-nodes="false">
    <sodipodi:guide
       position="560,730.00002"
       orientation="0,1"
       id="guide3338" />
    <sodipodi:guide
       position="560,330.00001"
       orientation="0,1"
       id="guide3340" />
    <sodipodi:guide
       position="190,475.00001"
       orientation="1,0"
       id="guide3344" />
    <sodipodi:guide
       position="590,451.00001"
       orientation="1,0"
       id="guide3346" />
    <inkscape:grid
       type="xygrid"
       id="grid3440" />
  </sodipodi:namedview>
  <metadata
     id="metadata7">
    <rdf:RDF>
      <cc:Work
         rdf:about="">
        <dc:format>image/svg+xml</dc:format>
        <dc:type
           rdf:resource="http://purl.org/dc/dcmitype/StillImage" />
        <dc:title>database account</dc:title>
        <dc:date>June 2015</dc:date>
        <dc:creator>
          <cc:Agent>
            <dc:title>Johannes Hechler</dc:title>
          </cc:Agent>
        </dc:creator>
        <dc:rights>
          <cc:Agent>
            <dc:title>Johannes Hechler</dc:title>
          </cc:Agent>
        </dc:rights>
        <dc:publisher>
          <cc:Agent>
            <dc:title>RRZE</dc:title>
          </cc:Agent>
        </dc:publisher>
        <dc:contributor>
          <cc:Agent>
            <dc:title>Ute Weber, Hendrik Eggers</dc:title>
          </cc:Agent>
        </dc:contributor>
      </cc:Work>
    </rdf:RDF>
  </metadata>
  <g
     inkscape:label="Ebene 1"
     inkscape:groupmode="layer"
     id="layer1">
    <g
       id="g4308"
       transform="matrix(24.999976,0,0,24.999976,-10534.789,-11961.945)">
      <flowRoot
         transform="translate(428.99198,491.37273)"
         style="font-style:normal;font-weight:normal;font-size:1.59908605px;line-height:125%;font-family:sans-serif;letter-spacing:0px;word-spacing:0px;fill:#252525;fill-opacity:1;stroke:none;stroke-width:1px;stroke-linecap:butt;stroke-linejoin:miter;stroke-opacity:1"
         id="flowRoot4169-7"
         xml:space="preserve"><flowRegion
           id="flowRegion4171-6"><rect
             y="4.1900434"
             x="-3.9727333"
             height="3.549516"
             width="2.2560482"
             id="rect4173-4" /></flowRegion><flowPara
           id="flowPara4175-7" /></flowRoot>      <rect
         inkscape:export-ydpi="4.9499998"
         inkscape:export-xdpi="4.9499998"
         y="491.37274"
         x="429.00113"
         height="15.99086"
         width="15.99086"
         id="rect3336-0"
         style="fill:none;fill-rule:evenodd;stroke:none;stroke-width:1px;stroke-linecap:butt;stroke-linejoin:miter;stroke-opacity:1" />
      <rect
         inkscape:export-filename="C:\Users\johannes\Desktop\g4236.png"
         inkscape:export-ydpi="3.5999999"
         inkscape:export-xdpi="3.5999999"
         y="491.40924"
         x="428.99655"
         height="15.99086"
         width="15.988384"
         id="rect4259-8"
         style="opacity:1;fill:none;fill-opacity:1;stroke:none;stroke-width:16;stroke-linecap:square;stroke-linejoin:round;stroke-miterlimit:4;stroke-dasharray:none;stroke-opacity:1" />
      <path
         id="path4239"
         d="m 436.99198,491.37274 a 6.9960013,3.4957161 0 0 0 -6.99609,3.49609 6.9960013,3.4957161 0 0 0 0.0742,0.48243 l -0.0742,0 c 0.19716,0.7052 0.81979,1.32399 1.72461,1.80859 a 6.9960013,3.4957161 0 0 0 1.30468,0.57617 c 1.23225,-2.01201 3.44407,-3.36328 5.9668,-3.36328 1.75345,0 3.35523,0.65578 4.58594,1.72852 0.18846,-0.2367 0.33619,-0.48547 0.41015,-0.75 l -0.0762,0 a 6.9960013,3.4957161 0 0 0 0.0762,-0.48243 6.9960013,3.4957161 0 0 0 -6.99609,-3.49609 z m 2,5 c -1.57226,0 -2.95047,0.73022 -3.86523,1.85547 a 6.9960013,3.4957161 0 0 0 0.48437,0.0606 c 0.99208,-1.06321 2.36292,-1.76515 3.89258,-1.89063 -0.16803,-0.0169 -0.33905,-0.0254 -0.51172,-0.0254 z m -8.99609,0.74414 0,1.24805 c 0.22188,0.79365 0.98652,1.47254 2.08203,1.97851 0.0882,-0.59264 0.24283,-1.16411 0.4707,-1.69922 -0.33186,-0.1236 -0.65301,-0.25433 -0.94922,-0.40234 -0.60746,-0.3036 -1.16264,-0.6788 -1.60351,-1.125 z m 4.51367,2.07031 c -0.26716,0.54955 -0.44822,1.14733 -0.49805,1.78907 0.0486,0.0108 0.0934,0.0249 0.14258,0.0351 0.14697,-0.62789 0.39284,-1.21609 0.7207,-1.75195 -0.12449,-0.0206 -0.24293,-0.0486 -0.36523,-0.0723 z m 5.37695,0.19532 c -10e-4,4e-4 -0.003,0.002 -0.004,0.002 l 0.008,0 0,-0.002 c -0.001,-0.001 -0.003,-5e-4 -0.004,0 z m -1.90039,0.0312 c -0.23189,0.0178 -0.46942,0.0221 -0.70703,0.0273 -0.52531,0.48612 -0.91156,1.11092 -1.11523,1.82031 0.11066,0.006 0.21619,0.0216 0.32812,0.0254 0.24872,-0.5452 0.59184,-1.03853 1.01758,-1.46094 l 0.002,0 c 0.14987,-0.1475 0.30811,-0.2853 0.47461,-0.4121 z m -7.99023,0.71093 0,1.25196 c 0.23628,0.84511 1.09588,1.55609 2.31054,2.06836 -0.20001,-0.64181 -0.30797,-1.32237 -0.3125,-2.02735 -0.12898,-0.0571 -0.27201,-0.1048 -0.39453,-0.16601 -0.60746,-0.3035 -1.16264,-0.68066 -1.60351,-1.12696 z m 12.46875,1.82227 c 0.002,0 0.002,0.01 0.004,0.01 l 0.006,0 -0.01,-0.01 z m -6.46875,0.46875 c 0.002,0.23543 0.0275,0.46386 0.0684,0.6875 0.0129,-0.22545 0.0205,-0.45155 0.0625,-0.67188 -0.0448,-0.003 -0.0863,-0.0122 -0.13086,-0.0156 z m -6,0.7207 0,0.73047 0,0.52148 c 0.42068,1.39631 2.52447,2.47805 5.16406,2.83204 -0.90928,-0.5986 -1.66796,-1.4046 -2.2168,-2.34766 -0.47864,-0.14975 -0.93159,-0.32337 -1.34375,-0.5293 -0.60746,-0.3036 -1.16264,-0.76073 -1.60351,-1.20703 z"
         style="color:#000000;clip-rule:nonzero;display:inline;overflow:visible;visibility:visible;opacity:1;isolation:auto;mix-blend-mode:normal;color-interpolation:sRGB;color-interpolation-filters:linearRGB;solid-color:#000000;solid-opacity:1;fill:url(#linearGradient4271);fill-opacity:1;fill-rule:nonzero;stroke:none;stroke-width:4;stroke-linecap:butt;stroke-linejoin:round;stroke-miterlimit:4;stroke-dasharray:none;stroke-dashoffset:0;stroke-opacity:1;color-rendering:auto;image-rendering:auto;shape-rendering:auto;text-rendering:auto;enable-background:accumulate"
         inkscape:connector-curvature="0" />
      <flowRoot
         style="font-style:normal;font-weight:normal;font-size:40px;line-height:125%;font-family:sans-serif;letter-spacing:0px;word-spacing:0px;fill:#252525;fill-opacity:1;stroke:none;stroke-width:1px;stroke-linecap:butt;stroke-linejoin:miter;stroke-opacity:1"
         id="flowRoot4169"
         xml:space="preserve"
         transform="matrix(0.03997715,0,0,0.03997715,421.43508,478.52584)"><flowRegion
           id="flowRegion4171"><rect
             y="427.07962"
             x="89.541069"
             height="88.78862"
             width="56.433445"
             id="rect4173" /></flowRegion><flowPara
           id="flowPara4175" /></flowRoot>      <rect
         inkscape:export-ydpi="4.9499998"
         inkscape:export-xdpi="4.9499998"
         y="491.40924"
         x="428.99655"
         height="15.99086"
         width="15.99086"
         id="rect3336"
         style="fill:none;fill-rule:evenodd;stroke:none;stroke-width:1px;stroke-linecap:butt;stroke-linejoin:miter;stroke-opacity:1" />
      <rect
         inkscape:export-filename="C:\Users\johannes\Desktop\g4236.png"
         inkscape:export-ydpi="3.5999999"
         inkscape:export-xdpi="3.5999999"
         y="491.44586"
         x="428.99197"
         height="15.99086"
         width="15.988384"
         id="rect4259"
         style="opacity:1;fill:none;fill-opacity:1;stroke:none;stroke-width:16;stroke-linecap:square;stroke-linejoin:round;stroke-miterlimit:4;stroke-dasharray:none;stroke-opacity:1" />
      <circle
         r="6"
         cy="501.37274"
         cx="438.99197"
         id="path4293"
         style="color:#000000;clip-rule:nonzero;display:inline;overflow:visible;visibility:visible;opacity:1;isolation:auto;mix-blend-mode:normal;color-interpolation:sRGB;color-interpolation-filters:linearRGB;solid-color:#000000;solid-opacity:1;fill:#99b000;fill-opacity:1;fill-rule:nonzero;stroke:none;stroke-width:2;stroke-linecap:butt;stroke-linejoin:round;stroke-miterlimit:4;stroke-dasharray:none;stroke-dashoffset:0;stroke-opacity:1;color-rendering:auto;image-rendering:auto;shape-rendering:auto;text-rendering:auto;enable-background:accumulate" />
      <text
         transform="scale(1.0078896,0.99217215)"
         xml:space="preserve"
         style="font-style:normal;font-weight:normal;font-size:9.194417px;line-height:125%;font-family:sans-serif;letter-spacing:0px;word-spacing:0px;fill:#ffffff;fill-opacity:1;stroke:none;stroke-width:1px;stroke-linecap:butt;stroke-linejoin:miter;stroke-opacity:1"
         x="430.98087"
         y="507.76166"
         id="text4185"
         sodipodi:linespacing="125%"><tspan
           sodipodi:role="line"
           id="tspan4187"
           x="430.98087"
           y="507.76166"
           style="font-style:normal;font-variant:normal;font-weight:bold;font-stretch:normal;font-family:sans-serif;-inkscape-font-specification:'sans-serif Bold';fill:#ffffff">@</tspan></text>
    </g>
  </g>
</svg>
