<?xml version="1.0" encoding="UTF-8" standalone="no"?>
<!-- Created with Inkscape (http://www.inkscape.org/) -->

<svg
   xmlns:dc="http://purl.org/dc/elements/1.1/"
   xmlns:cc="http://creativecommons.org/ns#"
   xmlns:rdf="http://www.w3.org/1999/02/22-rdf-syntax-ns#"
   xmlns:svg="http://www.w3.org/2000/svg"
   xmlns="http://www.w3.org/2000/svg"
   xmlns:xlink="http://www.w3.org/1999/xlink"
   xmlns:sodipodi="http://sodipodi.sourceforge.net/DTD/sodipodi-0.dtd"
   xmlns:inkscape="http://www.inkscape.org/namespaces/inkscape"
   width="210mm"
   height="297mm"
   viewBox="0 0 744.09448819 1052.3622047"
   id="svg2"
   version="1.1"
   inkscape:version="0.91 r13725"
   inkscape:export-xdpi="3.5999999"
   inkscape:export-ydpi="3.5999999"
   sodipodi:docname="database-account.svg"
   inkscape:export-filename="D:\Dokumente\Arbeit\RRZE\github\bicons\16x16\devices\database-account.png">
  <defs
     id="defs4">
    <inkscape:perspective
       sodipodi:type="inkscape:persp3d"
       inkscape:vp_x="0 : 526.1811 : 1"
       inkscape:vp_y="0 : 1000 : 0"
       inkscape:vp_z="744.09449 : 526.1811 : 1"
       inkscape:persp3d-origin="372.04724 : 350.7874 : 1"
       id="perspective4149" />
    <linearGradient
       id="linearGradient2224">
      <stop
         id="stop2226"
         offset="0"
         style="stop-color:#7c7c7c;stop-opacity:1;" />
      <stop
         id="stop2228"
         offset="1"
         style="stop-color:#b8b8b8;stop-opacity:1;" />
    </linearGradient>
    <linearGradient
       id="linearGradient15218">
      <stop
         id="stop15220"
         offset="0"
         style="stop-color:#eeeeef;stop-opacity:1;" />
      <stop
         id="stop2736"
         offset="0.59928656"
         style="stop-color:#d3d7cf;stop-opacity:1;" />
      <stop
         id="stop2738"
         offset="0.82758623"
         style="stop-color:#ffffff;stop-opacity:1;" />
      <stop
         id="stop15222"
         offset="1"
         style="stop-color:#d3d7cf;stop-opacity:1;" />
    </linearGradient>
    <pattern
       y="0"
       x="0"
       height="6"
       width="6"
       patternUnits="userSpaceOnUse"
       id="EMFhbasepattern" />
    <pattern
       y="0"
       x="0"
       height="6"
       width="6"
       patternUnits="userSpaceOnUse"
       id="EMFhbasepattern-5" />
    <linearGradient
       inkscape:collect="always"
       xlink:href="#linearGradient4153"
       id="linearGradient4159"
       x1="235"
       y1="682.36218"
       x2="525"
       y2="368.36221"
       gradientUnits="userSpaceOnUse"
       gradientTransform="matrix(0.99970712,0,0,0.99970712,233.53399,168.25836)" />
    <linearGradient
       inkscape:collect="always"
       id="linearGradient4153">
      <stop
         style="stop-color:#4e505d;stop-opacity:1;"
         offset="0"
         id="stop4155" />
      <stop
         style="stop-color:#7a8597;stop-opacity:1"
         offset="1"
         id="stop4157" />
    </linearGradient>
    <linearGradient
       inkscape:collect="always"
       xlink:href="#linearGradient4153"
       id="linearGradient4168"
       x1="235"
       y1="682.36218"
       x2="525"
       y2="368.36221"
       gradientUnits="userSpaceOnUse"
       gradientTransform="matrix(0.99970712,0,0,0.99970712,1.4703425,0.27220292)" />
    <linearGradient
       inkscape:collect="always"
       xlink:href="#linearGradient4265"
       id="linearGradient4271"
       x1="50"
       y1="400"
       x2="350.00195"
       y2="43.124779"
       gradientUnits="userSpaceOnUse"
       gradientTransform="matrix(0.03997715,0,0,0.04000089,322.93056,605.91943)" />
    <linearGradient
       inkscape:collect="always"
       id="linearGradient4265">
      <stop
         style="stop-color:#4e505d;stop-opacity:1;"
         offset="0"
         id="stop4267" />
      <stop
         style="stop-color:#7a859c;stop-opacity:1"
         offset="1"
         id="stop4269" />
    </linearGradient>
  </defs>
  <sodipodi:namedview
     id="base"
     pagecolor="#ffffff"
     bordercolor="#666666"
     borderopacity="1.0"
     inkscape:pageopacity="0.0"
     inkscape:pageshadow="2"
     inkscape:zoom="0.7071068"
     inkscape:cx="382.27784"
     inkscape:cy="506.00594"
     inkscape:document-units="px"
     inkscape:current-layer="layer1"
     showgrid="false"
     showguides="true"
     inkscape:guide-bbox="true"
     inkscape:window-width="1600"
     inkscape:window-height="837"
     inkscape:window-x="-4"
     inkscape:window-y="-4"
     inkscape:window-maximized="1"
     inkscape:snap-bbox="true"
     inkscape:bbox-paths="true"
     inkscape:bbox-nodes="true"
     inkscape:snap-nodes="false">
    <sodipodi:guide
       position="560,730.00002"
       orientation="0,1"
       id="guide3338" />
    <sodipodi:guide
       position="560,330.00001"
       orientation="0,1"
       id="guide3340" />
    <sodipodi:guide
       position="190,475.00001"
       orientation="1,0"
       id="guide3344" />
    <sodipodi:guide
       position="590,451.00001"
       orientation="1,0"
       id="guide3346" />
    <inkscape:grid
       type="xygrid"
       id="grid3440" />
  </sodipodi:namedview>
  <metadata
     id="metadata7">
    <rdf:RDF>
      <cc:Work
         rdf:about="">
        <dc:format>image/svg+xml</dc:format>
        <dc:type
           rdf:resource="http://purl.org/dc/dcmitype/StillImage" />
        <dc:title>database account</dc:title>
        <dc:date>June 2015</dc:date>
        <dc:creator>
          <cc:Agent>
            <dc:title>Johannes Hechler</dc:title>
          </cc:Agent>
        </dc:creator>
        <dc:rights>
          <cc:Agent>
            <dc:title>Johannes Hechler</dc:title>
          </cc:Agent>
        </dc:rights>
        <dc:publisher>
          <cc:Agent>
            <dc:title>RRZE</dc:title>
          </cc:Agent>
        </dc:publisher>
        <dc:contributor>
          <cc:Agent>
            <dc:title>Ute Weber, Hendrik Eggers</dc:title>
          </cc:Agent>
        </dc:contributor>
      </cc:Work>
    </rdf:RDF>
  </metadata>
  <g
     inkscape:label="Ebene 1"
     inkscape:groupmode="layer"
     id="layer1">
    <g
       id="g4246"
       transform="matrix(25,0,0,25,-7883.1491,-14826.535)">
      <flowRoot
         style="font-style:normal;font-weight:normal;font-size:40px;line-height:125%;font-family:sans-serif;letter-spacing:0px;word-spacing:0px;fill:#252525;fill-opacity:1;stroke:none;stroke-width:1px;stroke-linecap:butt;stroke-linejoin:miter;stroke-opacity:1"
         id="flowRoot4169-7"
         xml:space="preserve"
         transform="matrix(0.03997715,0,0,0.03981807,315.37366,593.12383)"><flowRegion
           id="flowRegion4171-6"><rect
             y="427.07962"
             x="89.541069"
             height="88.78862"
             width="56.433445"
             id="rect4173-4" /></flowRegion><flowPara
           id="flowPara4175-7" /></flowRoot>      <rect
         inkscape:export-ydpi="4.9499998"
         inkscape:export-xdpi="4.9499998"
         y="605.95587"
         x="322.935"
         height="15.927228"
         width="15.99086"
         id="rect3336-0"
         style="fill:none;fill-rule:evenodd;stroke:none;stroke-width:1px;stroke-linecap:butt;stroke-linejoin:miter;stroke-opacity:1" />
      <rect
         inkscape:export-filename="C:\Users\johannes\Desktop\g4236.png"
         inkscape:export-ydpi="3.5999999"
         inkscape:export-xdpi="3.5999999"
         y="605.99225"
         x="322.9306"
         height="15.927228"
         width="15.988384"
         id="rect4259-8"
         style="opacity:1;fill:none;fill-opacity:1;stroke:none;stroke-width:16;stroke-linecap:square;stroke-linejoin:round;stroke-miterlimit:4;stroke-dasharray:none;stroke-opacity:1" />
      <path
         id="path4239"
         d="m 330.92596,605.95603 a 6.9960013,3.4818057 0 0 0 -6.9961,3.4824 6.9960013,3.4818057 0 0 0 0.074,0.4805 l -0.074,0 c 0.1972,0.7024 0.8198,1.3182 1.7246,1.8008 a 6.9960013,3.4818057 0 0 0 3.916,1.1289 c 1.0956,-1.1603 2.6422,-1.8906 4.3555,-1.8906 0.9169,0 1.7836,0.2146 2.5625,0.5859 0.7412,-0.4536 1.2592,-1.0036 1.4336,-1.625 l -0.076,0 a 6.9960013,3.4818057 0 0 0 0.076,-0.4805 6.9960013,3.4818057 0 0 0 -6.9961,-3.4824 z m -6.9961,5.7168 0,0 c 0,0 0,0 0,0 l 0,-0.01 z m 0,0.01 0,1.2402 c 0.3446,1.2275 1.9868,2.1902 4.168,2.6406 0.1508,-0.6262 0.3995,-1.2125 0.7304,-1.7461 -1.2314,-0.2011 -2.3603,-0.5495 -3.2968,-1.0156 -0.6067,-0.3019 -1.161,-0.6755 -1.6016,-1.1191 z m 13.9922,-0.01 c -0.15,0.1512 -0.3299,0.283 -0.5039,0.418 0.1757,0.1266 0.343,0.2637 0.5039,0.4082 l 0,-0.8262 z m -4.1074,2.2637 0.01,0 -0.01,0 z m -1.8965,0.027 c -0.2171,0.017 -0.44,0.02 -0.6621,0.025 -0.5364,0.4824 -0.9322,1.1066 -1.1446,1.8184 0.1061,0.01 0.2073,0.02 0.3145,0.023 0.2488,-0.5431 0.5918,-1.0363 1.0176,-1.457 0.1499,-0.1469 0.3081,-0.2838 0.4746,-0.4102 z m -7.9883,0.709 0,1.2461 c 0.347,1.2361 2.0187,2.1962 4.2227,2.6426 -0.143,-0.5118 -0.2266,-1.0476 -0.2266,-1.6035 0,-0.1059 0.01,-0.21 0.016,-0.3145 -0.8835,-0.2101 -1.7017,-0.496 -2.4082,-0.8477 -0.6075,-0.3024 -1.1626,-0.6785 -1.6035,-1.123 z m 12.4688,1.8105 0,0 c 0,0 -3e-4,0.01 0.01,0.01 l -0.01,-0.014 z m -6.4727,0.473 c 0,7e-4 0,0 0,0 0,0.2427 0.03,0.4765 0.07,0.707 0.012,-0.2329 0.021,-0.466 0.064,-0.6934 -0.046,0 -0.089,-0.012 -0.1348,-0.016 z m -5.9961,0.7168 0,0.7285 0,0.5176 c 0.4928,1.6294 3.2874,2.842 6.5586,2.9453 -0.7575,-0.5329 -1.3885,-1.2339 -1.834,-2.0508 -1.1625,-0.1831 -2.2289,-0.4954 -3.1211,-0.9394 -0.6075,-0.3023 -1.1626,-0.7567 -1.6035,-1.2012 z"
         style="color:#000000;clip-rule:nonzero;display:inline;overflow:visible;visibility:visible;opacity:1;isolation:auto;mix-blend-mode:normal;color-interpolation:sRGB;color-interpolation-filters:linearRGB;solid-color:#000000;solid-opacity:1;fill:url(#linearGradient4271);fill-opacity:1;fill-rule:nonzero;stroke:none;stroke-width:4;stroke-linecap:butt;stroke-linejoin:round;stroke-miterlimit:4;stroke-dasharray:none;stroke-dashoffset:0;stroke-opacity:1;color-rendering:auto;image-rendering:auto;shape-rendering:auto;text-rendering:auto;enable-background:accumulate"
         inkscape:connector-curvature="0" />
      <flowRoot
         style="font-style:normal;font-weight:normal;font-size:40px;line-height:125%;font-family:sans-serif;letter-spacing:0px;word-spacing:0px;fill:#252525;fill-opacity:1;stroke:none;stroke-width:1px;stroke-linecap:butt;stroke-linejoin:miter;stroke-opacity:1"
         id="flowRoot4169"
         xml:space="preserve"
         transform="matrix(0.03997715,0,0,0.03981807,315.36906,593.16023)"><flowRegion
           id="flowRegion4171"><rect
             y="427.07962"
             x="89.541069"
             height="88.78862"
             width="56.433445"
             id="rect4173" /></flowRegion><flowPara
           id="flowPara4175" /></flowRoot>      <rect
         inkscape:export-ydpi="4.9499998"
         inkscape:export-xdpi="4.9499998"
         y="605.99249"
         x="322.9306"
         height="15.927228"
         width="15.99086"
         id="rect3336"
         style="fill:none;fill-rule:evenodd;stroke:none;stroke-width:1px;stroke-linecap:butt;stroke-linejoin:miter;stroke-opacity:1" />
      <rect
         inkscape:export-filename="C:\Users\johannes\Desktop\g4236.png"
         inkscape:export-ydpi="3.5999999"
         inkscape:export-xdpi="3.5999999"
         y="606.02887"
         x="322.92596"
         height="15.927228"
         width="15.988384"
         id="rect4259"
         style="opacity:1;fill:none;fill-opacity:1;stroke:none;stroke-width:16;stroke-linecap:square;stroke-linejoin:round;stroke-miterlimit:4;stroke-dasharray:none;stroke-opacity:1" />
      <circle
         r="5"
         cy="616.95612"
         cx="333.92596"
         id="path4510"
         style="color:#000000;clip-rule:nonzero;display:inline;overflow:visible;visibility:visible;opacity:1;isolation:auto;mix-blend-mode:normal;color-interpolation:sRGB;color-interpolation-filters:linearRGB;solid-color:#000000;solid-opacity:1;fill:#99b000;fill-opacity:1;fill-rule:nonzero;stroke:none;stroke-width:2;stroke-linecap:butt;stroke-linejoin:round;stroke-miterlimit:4;stroke-dasharray:none;stroke-dashoffset:0;stroke-opacity:1;color-rendering:auto;image-rendering:auto;shape-rendering:auto;text-rendering:auto;enable-background:accumulate" />
      <text
         transform="scale(1.0011667,0.99883466)"
         xml:space="preserve"
         style="font-style:normal;font-weight:normal;font-size:9.13317108px;line-height:125%;font-family:sans-serif;letter-spacing:0px;word-spacing:0px;fill:#ffffff;fill-opacity:1;stroke:none;stroke-width:1px;stroke-linecap:butt;stroke-linejoin:miter;stroke-opacity:1"
         x="328.99448"
         y="620.09296"
         id="text4185"
         sodipodi:linespacing="125%"><tspan
           sodipodi:role="line"
           id="tspan4187"
           x="328.99448"
           y="620.09296"
           style="font-style:normal;font-variant:normal;font-weight:bold;font-stretch:normal;font-family:sans-serif;-inkscape-font-specification:'sans-serif Bold';fill:#ffffff">@</tspan></text>
    </g>
  </g>
</svg>
