<?xml version="1.0" encoding="UTF-8" standalone="no"?>
<!-- Created with Inkscape (http://www.inkscape.org/) -->

<svg
   xmlns:dc="http://purl.org/dc/elements/1.1/"
   xmlns:cc="http://creativecommons.org/ns#"
   xmlns:rdf="http://www.w3.org/1999/02/22-rdf-syntax-ns#"
   xmlns:svg="http://www.w3.org/2000/svg"
   xmlns="http://www.w3.org/2000/svg"
   xmlns:xlink="http://www.w3.org/1999/xlink"
   xmlns:sodipodi="http://sodipodi.sourceforge.net/DTD/sodipodi-0.dtd"
   xmlns:inkscape="http://www.inkscape.org/namespaces/inkscape"
   width="210mm"
   height="297mm"
   viewBox="0 0 744.09448819 1052.3622047"
   id="svg2"
   version="1.1"
   inkscape:version="0.91 r13725"
   inkscape:export-xdpi="3.5984142"
   inkscape:export-ydpi="3.5984142"
   sodipodi:docname="database-locked.svg"
   inkscape:export-filename="C:\Users\johannes\Documents\Arbeit\RRZE\github3\bicons\16x16\devices\database-locked.png">
  <defs
     id="defs4">
    <inkscape:perspective
       sodipodi:type="inkscape:persp3d"
       inkscape:vp_x="0 : 526.1811 : 1"
       inkscape:vp_y="0 : 1000 : 0"
       inkscape:vp_z="744.09449 : 526.1811 : 1"
       inkscape:persp3d-origin="372.04724 : 350.7874 : 1"
       id="perspective4149" />
    <linearGradient
       id="linearGradient2224">
      <stop
         id="stop2226"
         offset="0"
         style="stop-color:#7c7c7c;stop-opacity:1;" />
      <stop
         id="stop2228"
         offset="1"
         style="stop-color:#b8b8b8;stop-opacity:1;" />
    </linearGradient>
    <linearGradient
       id="linearGradient15218">
      <stop
         id="stop15220"
         offset="0"
         style="stop-color:#eeeeef;stop-opacity:1;" />
      <stop
         id="stop2736"
         offset="0.59928656"
         style="stop-color:#d3d7cf;stop-opacity:1;" />
      <stop
         id="stop2738"
         offset="0.82758623"
         style="stop-color:#ffffff;stop-opacity:1;" />
      <stop
         id="stop15222"
         offset="1"
         style="stop-color:#d3d7cf;stop-opacity:1;" />
    </linearGradient>
    <pattern
       y="0"
       x="0"
       height="6"
       width="6"
       patternUnits="userSpaceOnUse"
       id="EMFhbasepattern" />
    <pattern
       y="0"
       x="0"
       height="6"
       width="6"
       patternUnits="userSpaceOnUse"
       id="EMFhbasepattern-5" />
    <linearGradient
       inkscape:collect="always"
       id="linearGradient4153">
      <stop
         style="stop-color:#4e505d;stop-opacity:1;"
         offset="0"
         id="stop4155" />
      <stop
         style="stop-color:#7a8597;stop-opacity:1"
         offset="1"
         id="stop4157" />
    </linearGradient>
    <linearGradient
       inkscape:collect="always"
       xlink:href="#linearGradient4153"
       id="linearGradient4168"
       x1="235"
       y1="682.36218"
       x2="525"
       y2="368.36221"
       gradientUnits="userSpaceOnUse"
       gradientTransform="matrix(0.99970712,0,0,0.99970712,1.4703425,0.27220292)" />
    <linearGradient
       inkscape:collect="always"
       xlink:href="#linearGradient4265"
       id="linearGradient4271"
       x1="50"
       y1="400"
       x2="350.00195"
       y2="43.124779"
       gradientUnits="userSpaceOnUse"
       gradientTransform="matrix(1,0,0,1.0045913,190.0619,320.53035)" />
    <linearGradient
       inkscape:collect="always"
       id="linearGradient4265">
      <stop
         style="stop-color:#4e505d;stop-opacity:1;"
         offset="0"
         id="stop4267" />
      <stop
         style="stop-color:#7a859c;stop-opacity:1"
         offset="1"
         id="stop4269" />
    </linearGradient>
  </defs>
  <sodipodi:namedview
     id="base"
     pagecolor="#ffffff"
     bordercolor="#666666"
     borderopacity="1.0"
     inkscape:pageopacity="0.0"
     inkscape:pageshadow="2"
     inkscape:zoom="1"
     inkscape:cx="312.34339"
     inkscape:cy="574.39945"
     inkscape:document-units="px"
     inkscape:current-layer="layer1"
     showgrid="false"
     showguides="true"
     inkscape:guide-bbox="true"
     inkscape:window-width="1366"
     inkscape:window-height="721"
     inkscape:window-x="-4"
     inkscape:window-y="-4"
     inkscape:window-maximized="1"
     inkscape:snap-bbox="true"
     inkscape:bbox-paths="true"
     inkscape:bbox-nodes="true"
     inkscape:snap-nodes="false">
    <sodipodi:guide
       position="560,730.00002"
       orientation="0,1"
       id="guide3338" />
    <sodipodi:guide
       position="560,330.00001"
       orientation="0,1"
       id="guide3340" />
    <sodipodi:guide
       position="190,475.00001"
       orientation="1,0"
       id="guide3344" />
    <sodipodi:guide
       position="590,451.00001"
       orientation="1,0"
       id="guide3346" />
    <inkscape:grid
       type="xygrid"
       id="grid3440" />
  </sodipodi:namedview>
  <metadata
     id="metadata7">
    <rdf:RDF>
      <cc:Work
         rdf:about="">
        <dc:format>image/svg+xml</dc:format>
        <dc:type
           rdf:resource="http://purl.org/dc/dcmitype/StillImage" />
        <dc:title>database locked</dc:title>
        <dc:date>June 2015</dc:date>
        <dc:creator>
          <cc:Agent>
            <dc:title>Johannes Hechler</dc:title>
          </cc:Agent>
        </dc:creator>
        <dc:rights>
          <cc:Agent>
            <dc:title>Johannes Hechler</dc:title>
          </cc:Agent>
        </dc:rights>
        <dc:publisher>
          <cc:Agent>
            <dc:title>RRZE</dc:title>
          </cc:Agent>
        </dc:publisher>
        <dc:contributor>
          <cc:Agent>
            <dc:title>Ute Weber, Hendrik Eggers</dc:title>
          </cc:Agent>
        </dc:contributor>
      </cc:Work>
    </rdf:RDF>
  </metadata>
  <g
     inkscape:label="Ebene 1"
     inkscape:groupmode="layer"
     id="layer1">
    <g
       id="g4220">
      <flowRoot
         style="font-style:normal;font-weight:normal;font-size:40px;line-height:125%;font-family:sans-serif;letter-spacing:0px;word-spacing:0px;fill:#252525;fill-opacity:1;stroke:none;stroke-width:1px;stroke-linecap:butt;stroke-linejoin:miter;stroke-opacity:1"
         id="flowRoot4169-1"
         xml:space="preserve"
         transform="translate(1.031399,-0.82143627)"><flowRegion
           id="flowRegion4171-0"><rect
             y="427.07962"
             x="89.541069"
             height="88.78862"
             width="56.433445"
             id="rect4173-2" /></flowRegion><flowPara
           id="flowPara4175-7" /></flowRoot>      <rect
         inkscape:export-ydpi="4.9499998"
         inkscape:export-xdpi="4.9499998"
         y="321.44864"
         x="190.17625"
         height="400"
         width="400"
         id="rect3336-5"
         style="fill:none;fill-rule:evenodd;stroke:none;stroke-width:1px;stroke-linecap:butt;stroke-linejoin:miter;stroke-opacity:1" />
      <rect
         inkscape:export-filename="C:\Users\johannes\Desktop\g4236.png"
         inkscape:export-ydpi="3.5999999"
         inkscape:export-xdpi="3.5999999"
         y="322.36221"
         x="190.06192"
         height="400"
         width="399.93808"
         id="rect4259-6"
         style="opacity:1;fill:none;fill-opacity:1;stroke:none;stroke-width:16;stroke-linecap:square;stroke-linejoin:round;stroke-miterlimit:4;stroke-dasharray:none;stroke-opacity:1" />
      <path
         id="path4239"
         d="M 390.0625 321.44922 A 175 87.442854 0 0 0 215.0625 408.89062 A 175 87.442854 0 0 0 216.9375 420.99023 L 215.0625 420.99023 C 219.99448 438.63048 235.55999 454.08936 258.19336 466.21094 A 175 87.442854 0 0 0 390.0625 496.33398 A 175 87.442854 0 0 0 424.98047 494.5625 C 443.63561 476.06047 468.56968 465.68164 494.74805 465.68164 C 502.63929 465.68164 510.41602 466.63083 517.94336 468.45508 A 175 87.442854 0 0 0 524.83398 464.61523 C 545.89511 452.74443 560.34461 437.86475 565.0625 420.99023 L 563.16797 420.99023 A 175 87.442854 0 0 0 565.0625 408.89062 A 175 87.442854 0 0 0 390.0625 321.44922 z M 215.0625 465.03516 L 215.0625 496.33398 C 227.13034 539.49711 302.841 569.6221 390.0625 569.66992 C 391.93787 569.66879 393.79984 569.63424 395.66406 569.60547 L 395.66406 564.39648 C 395.66406 549.9755 398.8614 535.93433 404.8457 523.12305 C 399.96434 523.34264 395.03636 523.45703 390.0625 523.45703 C 338.37747 523.45703 291.39423 511.3035 255.18555 493.21094 C 239.99026 485.61827 226.09065 476.19792 215.0625 465.03516 z M 565.0625 465.03516 C 559.55814 470.6067 553.33676 475.74278 546.59766 480.43555 C 553.07323 484.43791 559.13255 489.20244 564.63867 494.68164 C 564.78183 494.82409 564.9203 494.97009 565.0625 495.11328 L 565.0625 465.03516 z M 215.0625 540.37891 L 215.0625 571.67773 C 226.40615 612.25066 293.9858 641.29731 374.49805 644.67773 L 374.49805 611.78906 C 374.49805 607.44145 375.34866 602.88976 376.87891 598.53125 C 330.40288 596.66754 288.28995 585.09612 255.18555 568.55469 C 239.99026 560.96202 226.09065 551.54168 215.0625 540.37891 z M 494.75 548.43555 C 488.92865 548.43555 488.53238 548.60018 483.60938 553.49805 C 481.46621 555.63026 480.23468 556.89142 479.52734 558.10547 C 487.64214 555.83972 495.34525 553.26034 502.5918 550.4082 C 500.32438 548.5499 498.92953 548.43555 494.75 548.43555 z M 215.0625 615.72266 L 215.0625 634.00586 L 215.0625 647.02344 C 227.31028 687.67715 296.25451 718.25233 377.38867 721.19531 C 375.53923 716.42933 374.49805 711.37523 374.49805 706.56641 L 374.49805 673.83008 C 328.965 672.00192 287.72377 662.16673 255.18555 645.9082 C 239.99026 638.31554 226.09065 626.88543 215.0625 615.72266 z M 424.49805 620.99219 L 424.49805 643.38281 C 458.53438 640.17668 489.47713 632.33411 513.74023 620.99219 L 445.66406 620.99219 L 428.57422 620.99219 L 424.49805 620.99219 z M 559.49219 620.99219 C 549.50219 629.87776 537.68003 637.53234 524.93945 643.89844 C 496.95983 657.87914 462.54292 668.30894 424.49805 672.33008 L 424.49805 697.36133 L 511.64648 697.36133 C 539.44278 684.39325 558.94702 667.00168 565 647.21484 L 565 620.99219 L 560.92383 620.99219 L 559.49219 620.99219 z "
         style="color:#000000;clip-rule:nonzero;display:inline;overflow:visible;visibility:visible;opacity:1;isolation:auto;mix-blend-mode:normal;color-interpolation:sRGB;color-interpolation-filters:linearRGB;solid-color:#000000;solid-opacity:1;fill:url(#linearGradient4271);fill-opacity:1;fill-rule:nonzero;stroke:none;stroke-width:4;stroke-linecap:butt;stroke-linejoin:round;stroke-miterlimit:4;stroke-dasharray:none;stroke-dashoffset:0;stroke-opacity:1;color-rendering:auto;image-rendering:auto;shape-rendering:auto;text-rendering:auto;enable-background:accumulate" />
      <flowRoot
         style="font-style:normal;font-weight:normal;font-size:40px;line-height:125%;font-family:sans-serif;letter-spacing:0px;word-spacing:0px;fill:#252525;fill-opacity:1;stroke:none;stroke-width:1px;stroke-linecap:butt;stroke-linejoin:miter;stroke-opacity:1"
         id="flowRoot4169"
         xml:space="preserve"
         transform="translate(0.96949,0.09215)"><flowRegion
           id="flowRegion4171"><rect
             y="427.07962"
             x="89.541069"
             height="88.78862"
             width="56.433445"
             id="rect4173" /></flowRegion><flowPara
           id="flowPara4175" /></flowRoot>      <rect
         inkscape:export-ydpi="4.9499998"
         inkscape:export-xdpi="4.9499998"
         y="322.36221"
         x="190.11433"
         height="400"
         width="400"
         id="rect3336"
         style="fill:none;fill-rule:evenodd;stroke:none;stroke-width:1px;stroke-linecap:butt;stroke-linejoin:miter;stroke-opacity:1" />
      <rect
         inkscape:export-filename="C:\Users\johannes\Desktop\g4236.png"
         inkscape:export-ydpi="3.5999999"
         inkscape:export-xdpi="3.5999999"
         y="323.27579"
         x="190"
         height="400"
         width="399.93808"
         id="rect4259"
         style="opacity:1;fill:none;fill-opacity:1;stroke:none;stroke-width:16;stroke-linecap:square;stroke-linejoin:round;stroke-miterlimit:4;stroke-dasharray:none;stroke-opacity:1" />
      <g
         style="fill:#99b000"
         id="g3"
         transform="matrix(0.57920146,0,0,0.57632274,378.33024,490.68161)">
        <path
           style="fill:#99b000;fill-opacity:1"
           sodipodi:nodetypes="cscscscscscsscsscsccccssscsc"
           id="path5"
           d="m 357.45,190.721 c -5.331,-5.33 -11.8,-7.993 -19.417,-7.993 l -9.131,0 0,-54.821 c 0,-35.022 -12.559,-65.093 -37.685,-90.218 C 266.093,12.563 236.025,0 200.998,0 165.972,0 135.898,12.563 110.776,37.688 85.65,62.814 73.091,92.884 73.091,127.907 l 0,54.821 -9.135,0 c -7.611,0 -14.084,2.663 -19.414,7.993 -5.33,5.326 -7.994,11.799 -7.994,19.417 l 0,164.452 c 0,7.611 2.665,14.086 7.994,19.417 5.33,5.325 11.803,7.991 19.414,7.991 l 274.084,0 c 7.617,0 14.085,-2.663 19.417,-7.991 5.325,-5.331 7.994,-11.806 7.994,-19.417 l 0,-164.455 c 0.004,-7.612 -2.669,-14.084 -8.001,-19.414 z m -85.363,-7.993 -142.178,0 0,-54.821 c 0,-20.175 7.139,-35.39201 21.414,-49.66501 14.277,-14.275 29.501,-21.411 49.678,-21.411 20.179,0 35.399,7.135 49.677,21.411 14.271,14.272 20.67346,29.50356 21.409,49.66501 z"
           inkscape:connector-curvature="0" />
      </g>
      <path
         sodipodi:nodetypes="sccsssccs"
         inkscape:connector-curvature="0"
         id="path4163"
         d="m 495.58906,624.41586 c -9.67217,0 -17.51301,7.84084 -17.51301,17.51301 0.006,6.25062 1.3433,10.02413 6.7565,13.14944 l 0,24.63309 c 0,4.8511 5.90542,8.7565 10.75651,8.7565 4.8511,0 10.7565,-3.9054 10.7565,-8.7565 l 0,-24.63994 c 5.4111,-3.12408 6.74791,-6.89441 6.75651,-13.14259 0,-9.67217 -7.84084,-17.51301 -17.51301,-17.51301 z"
         style="color:#000000;clip-rule:nonzero;display:inline;overflow:visible;visibility:visible;opacity:1;isolation:auto;mix-blend-mode:normal;color-interpolation:sRGB;color-interpolation-filters:linearRGB;solid-color:#000000;solid-opacity:1;fill:#ffffff;fill-opacity:1;fill-rule:nonzero;stroke:none;stroke-width:50;stroke-linecap:butt;stroke-linejoin:round;stroke-miterlimit:4;stroke-dasharray:none;stroke-dashoffset:0;stroke-opacity:1;color-rendering:auto;image-rendering:auto;shape-rendering:auto;text-rendering:auto;enable-background:accumulate" />
    </g>
  </g>
</svg>
