<?xml version="1.0" encoding="UTF-8" standalone="no"?>
<!-- Created with Inkscape (http://www.inkscape.org/) -->

<svg
   xmlns:dc="http://purl.org/dc/elements/1.1/"
   xmlns:cc="http://creativecommons.org/ns#"
   xmlns:rdf="http://www.w3.org/1999/02/22-rdf-syntax-ns#"
   xmlns:svg="http://www.w3.org/2000/svg"
   xmlns="http://www.w3.org/2000/svg"
   xmlns:xlink="http://www.w3.org/1999/xlink"
   xmlns:sodipodi="http://sodipodi.sourceforge.net/DTD/sodipodi-0.dtd"
   xmlns:inkscape="http://www.inkscape.org/namespaces/inkscape"
   width="210mm"
   height="297mm"
   viewBox="0 0 744.09448819 1052.3622047"
   id="svg2"
   version="1.1"
   inkscape:version="0.91 r13725"
   inkscape:export-xdpi="3.5999999"
   inkscape:export-ydpi="3.5999999"
   sodipodi:docname="server-radius.svg"
   inkscape:export-filename="C:\Users\T420\Documents\Arbeit\RRZE\github_\bicons\16x16\devices\server-radius.png">
  <defs
     id="defs4">
    <linearGradient
       inkscape:collect="always"
       id="linearGradient4199">
      <stop
         style="stop-color:#4e505d;stop-opacity:1;"
         offset="0"
         id="stop4201" />
      <stop
         style="stop-color:#7a8597;stop-opacity:1"
         offset="1"
         id="stop4203" />
    </linearGradient>
    <linearGradient
       id="linearGradient2224">
      <stop
         id="stop2226"
         offset="0"
         style="stop-color:#7c7c7c;stop-opacity:1;" />
      <stop
         id="stop2228"
         offset="1"
         style="stop-color:#b8b8b8;stop-opacity:1;" />
    </linearGradient>
    <linearGradient
       id="linearGradient15218">
      <stop
         id="stop15220"
         offset="0"
         style="stop-color:#eeeeef;stop-opacity:1;" />
      <stop
         id="stop2736"
         offset="0.59928656"
         style="stop-color:#d3d7cf;stop-opacity:1;" />
      <stop
         id="stop2738"
         offset="0.82758623"
         style="stop-color:#ffffff;stop-opacity:1;" />
      <stop
         id="stop15222"
         offset="1"
         style="stop-color:#d3d7cf;stop-opacity:1;" />
    </linearGradient>
    <pattern
       y="0"
       x="0"
       height="6"
       width="6"
       patternUnits="userSpaceOnUse"
       id="EMFhbasepattern" />
    <pattern
       y="0"
       x="0"
       height="6"
       width="6"
       patternUnits="userSpaceOnUse"
       id="EMFhbasepattern-5" />
    <pattern
       y="0"
       x="0"
       height="6"
       width="6"
       patternUnits="userSpaceOnUse"
       id="EMFhbasepattern-8" />
    <linearGradient
       inkscape:collect="always"
       xlink:href="#linearGradient4199"
       id="linearGradient4184"
       x1="-0.00018669941"
       y1="22.532179"
       x2="25.474983"
       y2="-2.9429903"
       gradientUnits="userSpaceOnUse" />
    <linearGradient
       inkscape:collect="always"
       xlink:href="#linearGradient4199"
       id="linearGradient4192"
       x1="-0.00018669941"
       y1="22.532179"
       x2="25.474983"
       y2="-2.9429903"
       gradientUnits="userSpaceOnUse" />
    <linearGradient
       inkscape:collect="always"
       xlink:href="#linearGradient4199"
       id="linearGradient4200"
       x1="-0.00018669941"
       y1="22.532179"
       x2="25.474983"
       y2="-2.9429903"
       gradientUnits="userSpaceOnUse" />
    <linearGradient
       inkscape:collect="always"
       xlink:href="#linearGradient4199"
       id="linearGradient4208"
       x1="-0.00018669941"
       y1="22.532179"
       x2="25.474983"
       y2="-2.9429903"
       gradientUnits="userSpaceOnUse" />
    <linearGradient
       inkscape:collect="always"
       xlink:href="#linearGradient4358"
       id="linearGradient4364"
       x1="50"
       y1="375.00003"
       x2="350"
       y2="25.000019"
       gradientUnits="userSpaceOnUse"
       gradientTransform="translate(0,-2e-5)" />
    <linearGradient
       inkscape:collect="always"
       id="linearGradient4358">
      <stop
         style="stop-color:#4e505d;stop-opacity:1;"
         offset="0"
         id="stop4360" />
      <stop
         style="stop-color:#7a859c;stop-opacity:1"
         offset="1"
         id="stop4362" />
    </linearGradient>
  </defs>
  <sodipodi:namedview
     id="base"
     pagecolor="#ffffff"
     bordercolor="#666666"
     borderopacity="1.0"
     inkscape:pageopacity="0.0"
     inkscape:pageshadow="2"
     inkscape:zoom="1"
     inkscape:cx="230.23296"
     inkscape:cy="508.28371"
     inkscape:document-units="px"
     inkscape:current-layer="layer1"
     showgrid="false"
     showguides="true"
     inkscape:guide-bbox="true"
     inkscape:window-width="1600"
     inkscape:window-height="837"
     inkscape:window-x="-4"
     inkscape:window-y="-4"
     inkscape:window-maximized="1"
     inkscape:snap-bbox="true"
     inkscape:bbox-nodes="true"
     inkscape:snap-nodes="false">
    <sodipodi:guide
       position="560,730.00002"
       orientation="0,1"
       id="guide3338" />
    <sodipodi:guide
       position="560,330.00001"
       orientation="0,1"
       id="guide3340" />
    <sodipodi:guide
       position="190,475.00001"
       orientation="1,0"
       id="guide3344" />
    <sodipodi:guide
       position="590,451.00001"
       orientation="1,0"
       id="guide3346" />
    <inkscape:grid
       type="xygrid"
       id="grid3440" />
    <sodipodi:guide
       position="-111.01577,704.98548"
       orientation="0,1"
       id="guide4151" />
    <sodipodi:guide
       position="54.25,355.00001"
       orientation="0,1"
       id="guide4153" />
    <sodipodi:guide
       position="215,442.00001"
       orientation="1,0"
       id="guide4155" />
    <sodipodi:guide
       position="564.97832,467.39759"
       orientation="1,0"
       id="guide4157" />
  </sodipodi:namedview>
  <metadata
     id="metadata7">
    <rdf:RDF>
      <cc:Work
         rdf:about="">
        <dc:format>image/svg+xml</dc:format>
        <dc:type
           rdf:resource="http://purl.org/dc/dcmitype/StillImage" />
        <dc:title>server radius</dc:title>
        <dc:date>June 2015</dc:date>
        <dc:creator>
          <cc:Agent>
            <dc:title>Johannes Hechler</dc:title>
          </cc:Agent>
        </dc:creator>
        <dc:rights>
          <cc:Agent>
            <dc:title>Johannes Hechler</dc:title>
          </cc:Agent>
        </dc:rights>
        <dc:publisher>
          <cc:Agent>
            <dc:title>RRZE</dc:title>
          </cc:Agent>
        </dc:publisher>
        <dc:contributor>
          <cc:Agent>
            <dc:title>Ute Weber, Hendrik Eggers</dc:title>
          </cc:Agent>
        </dc:contributor>
      </cc:Work>
    </rdf:RDF>
  </metadata>
  <g
     inkscape:label="Ebene 1"
     inkscape:groupmode="layer"
     id="layer1">
    <g
       transform="translate(190,-329.99998)"
       id="g4991">
      <path
         inkscape:connector-curvature="0"
         id="rect3505"
         transform="translate(0,652.36216)"
         d="M 50,25 C 36.15,25 25,36.15 25,50 l 0,50 c 0,13.85 11.15,25 25,25 l 0,25 c -13.85,0 -25,11.15 -25,25 l 0,50 c 0,13.85 11.15,25 25,25 l 0,25 c -13.85,0 -25,11.15 -25,25 l 0,50 c 0,13.85 11.15,25 25,25 l 151.22852,0 c -0.80654,-4.14776 -1.2277,-8.36389 -1.22852,-12.57227 -1.1e-4,-12.0646 3.58824,-23.27685 9.62109,-32.8125 a 25.0025,25.0025 0 0 1 -30.60937,-2.25585 L 155.70703,306.27539 A 25.0025,25.0025 0 0 1 150.98633,275 L 75,275 l 0,-25 39.24023,0 -3.95312,-3.57617 a 25.0025,25.0025 0 0 1 -2.94727,-33.90625 l 1.42774,-1.83203 -0.002,0 C 135.94875,175.80181 180.36226,156.88971 222.53711,150 L 75,150 l 0,-25 250,0 0,25 -29.91992,0 c 27.58753,4.59817 55.83241,14.47732 79.91992,30.21875 L 375,175 c 0,-13.85 -11.15,-25 -25,-25 l 0,-25 c 13.85,0 25,-11.15 25,-25 l 0,-50 C 375,36.15 363.85,25 350,25 l -12.5,0 -275,0 -12.5,0 z m 324.97852,274.16406 a 25.0025,25.0025 0 0 1 -9.67188,15.77735 l -24.32812,18.10937 A 25.0025,25.0025 0 0 1 319.375,337.0625 c 3.57632,7.85744 5.62508,16.52113 5.625,25.61523 a 25.0025,25.0025 0 0 1 0,0.0137 c -0.002,4.23958 -0.43337,8.3521 -1.24609,12.30859 L 350,375 c 13.85,0 25,-11.15 25,-25 l 0,-50 c 0,-0.28025 -0.0124,-0.55797 -0.0215,-0.83594 z M 262.71875,350 l 0,0.004 c -7.70701,0 -12.71675,4.56992 -12.71875,12.42382 0.002,7.0412 2.28854,10.51499 6.21289,12.24219 2.52374,0.3712 5.97529,0.27734 10.71484,-0.63086 4.70223,-2.6044 8.06532,-7.56173 8.07032,-11.36523 C 274.99464,354.47903 270.22045,350 262.71875,350 Z"
         style="fill:url(#linearGradient4364);fill-opacity:1;stroke:none" />
      <rect
         ry="25"
         y="652.36218"
         x="0"
         height="400.00003"
         width="400"
         id="rect4366"
         style="fill:none;stroke:none" />
      <rect
         ry="12.500005"
         y="727.36218"
         x="75"
         height="25.00001"
         width="50"
         id="rect4368"
         style="fill:#ffffff;stroke:none" />
      <rect
         ry="12.500005"
         y="977.36218"
         x="75"
         height="25.00001"
         width="50"
         id="rect4372"
         style="fill:#ffffff;stroke:none" />
      <path
         inkscape:connector-curvature="0"
         id="path4216"
         transform="translate(0,652.36216)"
         d="m 259.23242,171.92969 c -43.30878,0.0577 -103.79707,19.53973 -130.74609,54.12304 l -1.42774,1.83204 22.45899,20.31835 1.64648,-2.18945 c 10.17484,-13.54552 28.45779,-24.68282 48.60547,-32.29883 20.14412,-7.61466 42.12987,-11.75003 59.46094,-11.78515 19.15715,0.0409 42.79163,5.08439 64.02148,14.22265 20.7879,8.94803 39.2273,21.84326 49.20899,37.39844 0.21221,0.33071 0.42636,0.66105 0.63086,0.99414 l 1.42968,2.32813 24.29688,-18.08399 -1.25195,-1.96094 C 371.51017,195.97105 307.20812,172.00248 259.24023,171.92969 l -0.004,0 -0.004,0 z m -0.002,76 c -29.20723,0.0742 -68.25193,13.76242 -85.46485,37.99609 l -1.2871,1.81055 23.30468,21.08398 1.57813,-2.55664 c 5.22124,-8.46451 15.60308,-15.67542 27.36523,-20.63281 5.02131,-2.11633 10.28645,-3.82284 15.47266,-5.08984 6.95932,-1.70017 13.7762,-2.60552 19.66797,-2.61524 11.12382,0.0162 24.96821,3.20219 37.17578,8.9043 11.79817,5.51087 22.00094,13.38109 27.12891,22.58398 0.17793,0.31934 0.36572,0.63647 0.53124,0.95899 l 1.34766,2.62695 24.32813,-18.10938 -1.11524,-1.92773 c -1.41065,-2.43775 -3.01981,-4.78277 -4.78125,-7.04492 -18.67541,-23.9841 -55.81894,-37.9252 -85.24023,-37.98828 l -0.006,0 -0.006,0 z M 262.71875,325 c -20.74533,0 -37.71894,16.22732 -37.71875,37.42773 0.003,16.7664 9.07014,31.59104 24.72266,36.61524 7.09321,1.4654 15.35762,1.34231 25.27734,-1.02539 14.21608,-5.8456 24.99125,-19.67604 25,-35.33594 C 300.00019,341.48121 283.46408,325 262.71875,325 Z"
         style="color:#000000;font-style:normal;font-variant:normal;font-weight:normal;font-stretch:normal;font-size:medium;line-height:normal;font-family:sans-serif;text-indent:0;text-align:start;text-decoration:none;text-decoration-line:none;text-decoration-style:solid;text-decoration-color:#000000;letter-spacing:normal;word-spacing:normal;text-transform:none;direction:ltr;block-progression:tb;writing-mode:lr-tb;baseline-shift:baseline;text-anchor:start;white-space:normal;clip-rule:nonzero;display:inline;overflow:visible;visibility:visible;opacity:1;isolation:auto;mix-blend-mode:normal;color-interpolation:sRGB;color-interpolation-filters:linearRGB;solid-color:#000000;solid-opacity:1;fill:#99b000;fill-opacity:1;fill-rule:evenodd;stroke:none;stroke-width:5;stroke-linecap:butt;stroke-linejoin:miter;stroke-miterlimit:4;stroke-dasharray:none;stroke-dashoffset:0;stroke-opacity:1;color-rendering:auto;image-rendering:auto;shape-rendering:auto;text-rendering:auto;enable-background:accumulate" />
    </g>
  </g>
</svg>
