<?xml version="1.0" encoding="UTF-8" standalone="no"?>
<!-- Created with Inkscape (http://www.inkscape.org/) -->

<svg
   xmlns:dc="http://purl.org/dc/elements/1.1/"
   xmlns:cc="http://creativecommons.org/ns#"
   xmlns:rdf="http://www.w3.org/1999/02/22-rdf-syntax-ns#"
   xmlns:svg="http://www.w3.org/2000/svg"
   xmlns="http://www.w3.org/2000/svg"
   xmlns:xlink="http://www.w3.org/1999/xlink"
   xmlns:sodipodi="http://sodipodi.sourceforge.net/DTD/sodipodi-0.dtd"
   xmlns:inkscape="http://www.inkscape.org/namespaces/inkscape"
   width="210mm"
   height="297mm"
   viewBox="0 0 744.09448819 1052.3622047"
   id="svg2"
   version="1.1"
   inkscape:version="0.91 r13725"
   inkscape:export-xdpi="3.5987399"
   inkscape:export-ydpi="3.5987399"
   sodipodi:docname="server-email.svg"
   inkscape:export-filename="C:\Users\T420\Documents\Arbeit\RRZE\github_\bicons\16x16\devices\server-email.png">
  <defs
     id="defs4">
    <linearGradient
       id="linearGradient2224">
      <stop
         id="stop2226"
         offset="0"
         style="stop-color:#7c7c7c;stop-opacity:1;" />
      <stop
         id="stop2228"
         offset="1"
         style="stop-color:#b8b8b8;stop-opacity:1;" />
    </linearGradient>
    <linearGradient
       id="linearGradient15218">
      <stop
         id="stop15220"
         offset="0"
         style="stop-color:#eeeeef;stop-opacity:1;" />
      <stop
         id="stop2736"
         offset="0.59928656"
         style="stop-color:#d3d7cf;stop-opacity:1;" />
      <stop
         id="stop2738"
         offset="0.82758623"
         style="stop-color:#ffffff;stop-opacity:1;" />
      <stop
         id="stop15222"
         offset="1"
         style="stop-color:#d3d7cf;stop-opacity:1;" />
    </linearGradient>
    <pattern
       y="0"
       x="0"
       height="6"
       width="6"
       patternUnits="userSpaceOnUse"
       id="EMFhbasepattern" />
    <pattern
       y="0"
       x="0"
       height="6"
       width="6"
       patternUnits="userSpaceOnUse"
       id="EMFhbasepattern-5" />
    <linearGradient
       inkscape:collect="always"
       xlink:href="#linearGradient4358"
       id="linearGradient4364"
       x1="50"
       y1="375.00003"
       x2="350"
       y2="25.000019"
       gradientUnits="userSpaceOnUse"
       gradientTransform="translate(0,-1e-5)" />
    <linearGradient
       inkscape:collect="always"
       id="linearGradient4358">
      <stop
         style="stop-color:#4e505d;stop-opacity:1;"
         offset="0"
         id="stop4360" />
      <stop
         style="stop-color:#7a859c;stop-opacity:1"
         offset="1"
         id="stop4362" />
    </linearGradient>
  </defs>
  <sodipodi:namedview
     id="base"
     pagecolor="#ffffff"
     bordercolor="#666666"
     borderopacity="1.0"
     inkscape:pageopacity="0.0"
     inkscape:pageshadow="2"
     inkscape:zoom="1"
     inkscape:cx="274.54569"
     inkscape:cy="535.90467"
     inkscape:document-units="px"
     inkscape:current-layer="layer1"
     showgrid="false"
     showguides="true"
     inkscape:guide-bbox="true"
     inkscape:window-width="1600"
     inkscape:window-height="837"
     inkscape:window-x="-4"
     inkscape:window-y="-4"
     inkscape:window-maximized="1"
     inkscape:snap-bbox="true"
     inkscape:bbox-nodes="true">
    <sodipodi:guide
       position="560,730.00002"
       orientation="0,1"
       id="guide3338" />
    <sodipodi:guide
       position="560,330.00001"
       orientation="0,1"
       id="guide3340" />
    <sodipodi:guide
       position="190,475.00001"
       orientation="1,0"
       id="guide3344" />
    <sodipodi:guide
       position="590,451.00001"
       orientation="1,0"
       id="guide3346" />
    <inkscape:grid
       type="xygrid"
       id="grid3440" />
    <sodipodi:guide
       position="-111.01577,704.98548"
       orientation="0,1"
       id="guide4151" />
    <sodipodi:guide
       position="54.25,355.00001"
       orientation="0,1"
       id="guide4153" />
    <sodipodi:guide
       position="215,442.00001"
       orientation="1,0"
       id="guide4155" />
    <sodipodi:guide
       position="564.97832,467.39759"
       orientation="1,0"
       id="guide4157" />
  </sodipodi:namedview>
  <metadata
     id="metadata7">
    <rdf:RDF>
      <cc:Work
         rdf:about="">
        <dc:format>image/svg+xml</dc:format>
        <dc:type
           rdf:resource="http://purl.org/dc/dcmitype/StillImage" />
        <dc:title>server email</dc:title>
        <dc:date>June 2015</dc:date>
        <dc:creator>
          <cc:Agent>
            <dc:title>Johannes Hechler</dc:title>
          </cc:Agent>
        </dc:creator>
        <dc:rights>
          <cc:Agent>
            <dc:title>Johannes Hechler</dc:title>
          </cc:Agent>
        </dc:rights>
        <dc:publisher>
          <cc:Agent>
            <dc:title>RRZE</dc:title>
          </cc:Agent>
        </dc:publisher>
        <dc:contributor>
          <cc:Agent>
            <dc:title>Ute Weber, Hendrik Eggers</dc:title>
          </cc:Agent>
        </dc:contributor>
      </cc:Work>
    </rdf:RDF>
  </metadata>
  <g
     inkscape:label="Ebene 1"
     inkscape:groupmode="layer"
     id="layer1">
    <g
       transform="translate(190,-329.99998)"
       id="g5625">
      <path
         inkscape:connector-curvature="0"
         id="rect3505"
         transform="translate(0,652.36216)"
         d="M 50,25 C 36.15,25 25,36.15 25,50 l 0,50 c 0,13.85 11.15,25 25,25 l 0,25 c -13.85,0 -25,11.15 -25,25 l 0,50 c 0,13.85 11.15,25 25,25 l 0,25 c -13.85,0 -25,11.15 -25,25 l 0,50 c 0,13.85 11.15,25 25,25 l 74.79688,0 a 25.0025,25.0025 0 0 1 -0.65626,-5.54883 L 124.14062,275 75,275 l 0,-25 49.34375,0 a 25.0025,25.0025 0 0 1 -0.20313,-2.99219 l 0,-23.92969 a 25.0025,25.0025 0 0 1 21.08008,-24.6914 c 42.15975,-6.69168 85.78998,-10.01953 129.41992,-10.01953 33.68017,0 67.35599,1.99187 100.35938,5.97461 L 375,175 c 0,-13.85 -11.15,-25 -25,-25 l 0,-25 c 13.85,0 25,-11.15 25,-25 l 0,-50 C 375,36.15 363.85,25 350,25 l -12.5,0 -275,0 -12.5,0 z m 25,100 250,0 0,25 -250,0 0,-25 z m 199.64062,113.36719 c -27.99264,0 -55.9467,1.5766 -83.4121,4.48633 L 203.3125,250 325,250 l 0,12.7207 33.26953,-19.8457 c -27.53515,-2.9251 -55.56231,-4.50781 -83.62891,-4.50781 z M 245.58008,275 275.12305,292.47266 304.41406,275 l -58.83398,0 z m -71.43946,43.4043 0,5.67968 4.64454,-2.93359 -4.64454,-2.74609 z M 375,318.68164 l -4.07812,2.43164 4.07812,2.61328 0,-5.04492 z m -66.08008,39.41406 -20.93554,12.48828 a 25.0025,25.0025 0 0 1 -25.53321,0.0508 l -21.1875,-12.53125 -21.83984,15.8457 c 7.04135,0.40332 14.06448,0.74438 21.07812,1.05078 l 91.42188,0 -23.00391,-16.90234 0,-0.002 z"
         style="fill:url(#linearGradient4364);fill-opacity:1;stroke:none" />
      <rect
         ry="25"
         y="652.36218"
         x="0"
         height="400.00003"
         width="400"
         id="rect4366"
         style="fill:none;stroke:none" />
      <rect
         ry="12.500005"
         y="727.36218"
         x="75"
         height="25.00001"
         width="50"
         id="rect4368"
         style="fill:#ffffff;stroke:none" />
      <rect
         style="fill:#ffffff;stroke:none"
         id="rect4370"
         width="25"
         height="25.00001"
         x="75"
         y="852.36212"
         ry="12.500005" />
      <rect
         ry="12.500005"
         y="977.36212"
         x="75"
         height="25.00001"
         width="25"
         id="rect4372"
         style="fill:#ffffff;stroke:none" />
      <path
         sodipodi:nodetypes="scccccsccccccccccccccccc"
         id="path4169"
         d="m 274.64007,865.72877 c -42.35625,0 -84.7125,3.23693 -125.5,9.7108 l 0,23.93011 126.03786,74.5419 124.96214,-74.5419 0,-23.93011 c -40.7875,-6.47387 -83.14375,-9.7108 -125.5,-9.7108 z m -125.5,61.20651 0,94.87702 77.56348,-49.00362 z m 251,0 -76.7553,45.7867 76.7553,49.14962 z m -89.61064,53.4542 -35.3515,21.08782 -35.37112,-20.91872 0,0.078 -90.5827,65.71262 c 83.96533,6.9385 167.83756,12.1462 250.77589,0.013 l -89.47057,-65.74442 0,-0.2284 z"
         style="fill:#99b000;fill-opacity:1;fill-rule:evenodd;stroke:none;stroke-width:1px;stroke-linecap:butt;stroke-linejoin:miter;stroke-opacity:1"
         inkscape:connector-curvature="0" />
    </g>
  </g>
</svg>
