<?xml version="1.0" encoding="UTF-8" standalone="no"?>
<!-- Created with Inkscape (http://www.inkscape.org/) -->

<svg
   xmlns:dc="http://purl.org/dc/elements/1.1/"
   xmlns:cc="http://creativecommons.org/ns#"
   xmlns:rdf="http://www.w3.org/1999/02/22-rdf-syntax-ns#"
   xmlns:svg="http://www.w3.org/2000/svg"
   xmlns="http://www.w3.org/2000/svg"
   xmlns:xlink="http://www.w3.org/1999/xlink"
   xmlns:sodipodi="http://sodipodi.sourceforge.net/DTD/sodipodi-0.dtd"
   xmlns:inkscape="http://www.inkscape.org/namespaces/inkscape"
   width="210mm"
   height="297mm"
   viewBox="0 0 744.09448819 1052.3622047"
   id="svg2"
   version="1.1"
   inkscape:version="0.91 r13725"
   inkscape:export-xdpi="3.5999999"
   inkscape:export-ydpi="3.5999999"
   sodipodi:docname="server-user.svg"
   inkscape:export-filename="C:\Users\T420\Documents\Arbeit\RRZE\github_\bicons\16x16\devices\server-user.png">
  <defs
     id="defs4">
    <linearGradient
       id="linearGradient2224">
      <stop
         id="stop2226"
         offset="0"
         style="stop-color:#7c7c7c;stop-opacity:1;" />
      <stop
         id="stop2228"
         offset="1"
         style="stop-color:#b8b8b8;stop-opacity:1;" />
    </linearGradient>
    <linearGradient
       id="linearGradient15218">
      <stop
         id="stop15220"
         offset="0"
         style="stop-color:#eeeeef;stop-opacity:1;" />
      <stop
         id="stop2736"
         offset="0.59928656"
         style="stop-color:#d3d7cf;stop-opacity:1;" />
      <stop
         id="stop2738"
         offset="0.82758623"
         style="stop-color:#ffffff;stop-opacity:1;" />
      <stop
         id="stop15222"
         offset="1"
         style="stop-color:#d3d7cf;stop-opacity:1;" />
    </linearGradient>
    <pattern
       y="0"
       x="0"
       height="6"
       width="6"
       patternUnits="userSpaceOnUse"
       id="EMFhbasepattern" />
    <pattern
       y="0"
       x="0"
       height="6"
       width="6"
       patternUnits="userSpaceOnUse"
       id="EMFhbasepattern-5" />
    <linearGradient
       inkscape:collect="always"
       xlink:href="#linearGradient4358"
       id="linearGradient4364"
       x1="50"
       y1="375.00003"
       x2="350"
       y2="25.000019"
       gradientUnits="userSpaceOnUse"
       gradientTransform="translate(0,-2e-5)" />
    <linearGradient
       inkscape:collect="always"
       id="linearGradient4358">
      <stop
         style="stop-color:#4e505d;stop-opacity:1;"
         offset="0"
         id="stop4360" />
      <stop
         style="stop-color:#7a859c;stop-opacity:1"
         offset="1"
         id="stop4362" />
    </linearGradient>
  </defs>
  <sodipodi:namedview
     id="base"
     pagecolor="#ffffff"
     bordercolor="#666666"
     borderopacity="1.0"
     inkscape:pageopacity="0.0"
     inkscape:pageshadow="2"
     inkscape:zoom="1"
     inkscape:cx="353.42599"
     inkscape:cy="459.16375"
     inkscape:document-units="px"
     inkscape:current-layer="layer1"
     showgrid="false"
     showguides="true"
     inkscape:guide-bbox="true"
     inkscape:window-width="1600"
     inkscape:window-height="837"
     inkscape:window-x="-4"
     inkscape:window-y="-4"
     inkscape:window-maximized="1"
     inkscape:snap-bbox="true"
     inkscape:bbox-nodes="true"
     inkscape:snap-nodes="false">
    <sodipodi:guide
       position="560,730.00002"
       orientation="0,1"
       id="guide3338" />
    <sodipodi:guide
       position="560,330.00001"
       orientation="0,1"
       id="guide3340" />
    <sodipodi:guide
       position="190,475.00001"
       orientation="1,0"
       id="guide3344" />
    <sodipodi:guide
       position="590,642.00001"
       orientation="1,0"
       id="guide3346" />
    <inkscape:grid
       type="xygrid"
       id="grid3440" />
    <sodipodi:guide
       position="-111.01577,704.98548"
       orientation="0,1"
       id="guide4151" />
    <sodipodi:guide
       position="54.25,355.00001"
       orientation="0,1"
       id="guide4153" />
    <sodipodi:guide
       position="215,442.00001"
       orientation="1,0"
       id="guide4155" />
    <sodipodi:guide
       position="564.97832,467.39759"
       orientation="1,0"
       id="guide4157" />
  </sodipodi:namedview>
  <metadata
     id="metadata7">
    <rdf:RDF>
      <cc:Work
         rdf:about="">
        <dc:format>image/svg+xml</dc:format>
        <dc:type
           rdf:resource="http://purl.org/dc/dcmitype/StillImage" />
        <dc:title>server user</dc:title>
        <dc:date>June 2015</dc:date>
        <dc:creator>
          <cc:Agent>
            <dc:title>Johannes Hechler</dc:title>
          </cc:Agent>
        </dc:creator>
        <dc:rights>
          <cc:Agent>
            <dc:title>Johannes Hechler</dc:title>
          </cc:Agent>
        </dc:rights>
        <dc:publisher>
          <cc:Agent>
            <dc:title>RRZE</dc:title>
          </cc:Agent>
        </dc:publisher>
        <dc:contributor>
          <cc:Agent>
            <dc:title>Ute Weber, Hendrik Eggers</dc:title>
          </cc:Agent>
        </dc:contributor>
      </cc:Work>
    </rdf:RDF>
  </metadata>
  <g
     inkscape:label="Ebene 1"
     inkscape:groupmode="layer"
     id="layer1">
    <g
       transform="translate(190,-329.99998)"
       id="g4810">
      <path
         inkscape:connector-curvature="0"
         id="rect3505"
         transform="translate(0,652.36216)"
         d="M 50,25 C 36.15,25 25,36.15 25,50 l 0,50 c 0,13.85 11.15,25 25,25 l 0,25 c -13.85,0 -25,11.15 -25,25 l 0,50 c 0,13.85 11.15,25 25,25 l 0,25 c -13.85,0 -25,11.15 -25,25 l 0,50 c 0,13.85 11.15,25 25,25 l 176.01953,0 c -0.2145,-3.34549 -0.33594,-6.7211 -0.33594,-10.13086 0,-34.63978 10.81466,-66.73564 30.32618,-89.86914 L 75,275 l 0,-25 195.43945,0 c -11.88647,-13.32366 -19.18164,-30.84108 -19.18164,-49.91016 0,-19.12451 7.28902,-36.7407 19.22657,-50.08984 L 75,150 l 0,-25 250,0 0,0.10156 c 0.2072,-0.002 0.41155,-0.0156 0.61914,-0.0156 l 0,0.002 c 8.53529,1e-4 16.7347,1.49795 24.38086,4.21094 L 350,125 c 13.85,0 25,-11.15 25,-25 l 0,-50 C 375,36.15 363.85,25 350,25 l -12.5,0 -275,0 -12.5,0 z m 275.61914,150.08594 c -13.57497,1.5e-4 -24.36133,10.72516 -24.36133,25.0039 0,14.27874 10.78636,25.00375 24.36133,25.00391 13.57497,-1.6e-4 24.36133,-10.72517 24.36133,-25.00391 0,-14.27874 -10.78636,-25.00375 -24.36133,-25.0039 z m -21.61523,123.18554 c -14.91148,11.35931 -28.32032,36.14256 -28.32032,66.59766 0,3.4453 0.19067,6.81986 0.50391,10.13086 L 350,375 c 12.15367,0 22.2262,-8.58677 24.51172,-20.04883 -2.50167,-25.67159 -14.42164,-46.13832 -27.5918,-56.41211 -6.70592,1.89453 -13.7399,3.01172 -21.01758,3.01172 -7.59899,0 -14.93025,-1.21979 -21.89843,-3.2793 z"
         style="fill:url(#linearGradient4364);fill-opacity:1;stroke:none" />
      <rect
         ry="25"
         y="652.36218"
         x="0"
         height="400.00003"
         width="400"
         id="rect4366"
         style="fill:none;stroke:none" />
      <rect
         ry="12.500005"
         y="727.36218"
         x="75"
         height="25.00001"
         width="50"
         id="rect4368"
         style="fill:#ffffff;stroke:none" />
      <rect
         style="fill:#ffffff;stroke:none"
         id="rect4370"
         width="50"
         height="25.00001"
         x="75"
         y="852.36218"
         ry="12.500005" />
      <rect
         ry="12.500005"
         y="977.36218"
         x="75"
         height="25.00001"
         width="50"
         id="rect4372"
         style="fill:#ffffff;stroke:none" />
      <path
         id="path2176"
         d="m 325.61914,802.4478 a 49.361882,50.0039 0 0 0 -49.36133,50.00391 49.361882,50.0039 0 0 0 49.36133,50.0039 49.361882,50.0039 0 0 0 49.36133,-50.0039 49.361882,50.0039 0 0 0 -49.36133,-50.00391 z M 301.625,922.93413 c -0.0751,0.0608 -0.1432,0.12661 -0.2207,0.18555 l -4.18555,2.07031 c -27.29437,14.77665 -46.53515,50.41869 -46.53515,92.04101 0,8.9399 0.89183,17.6031 2.55664,25.8438 2.46938,5.0486 8.67316,8.7491 16.10742,9.2324 l 0,0.055 110.49414,0 c 8.3442,-0.1077 15.3731,-4.2568 17.73437,-9.9453 1.58001,-8.0423 2.42383,-16.4784 2.42383,-25.1797 0,-43.57432 -21.09145,-80.59494 -50.43164,-93.98049 -7.005,3.59436 -15.07899,5.65625 -23.66602,5.65625 -8.83731,0 -17.13324,-2.18344 -24.27734,-5.9746 l 0,-0.004 z"
         style="fill:#99b000;fill-opacity:1;stroke:none;stroke-width:41.15159225;stroke-linecap:round;stroke-linejoin:round;stroke-opacity:1"
         inkscape:connector-curvature="0" />
    </g>
  </g>
</svg>
