<?xml version="1.0" encoding="UTF-8" standalone="no"?>
<!-- Created with Inkscape (http://www.inkscape.org/) -->

<svg
   xmlns:dc="http://purl.org/dc/elements/1.1/"
   xmlns:cc="http://creativecommons.org/ns#"
   xmlns:rdf="http://www.w3.org/1999/02/22-rdf-syntax-ns#"
   xmlns:svg="http://www.w3.org/2000/svg"
   xmlns="http://www.w3.org/2000/svg"
   xmlns:xlink="http://www.w3.org/1999/xlink"
   xmlns:sodipodi="http://sodipodi.sourceforge.net/DTD/sodipodi-0.dtd"
   xmlns:inkscape="http://www.inkscape.org/namespaces/inkscape"
   width="210mm"
   height="297mm"
   viewBox="0 0 744.09448819 1052.3622047"
   id="svg2"
   version="1.1"
   inkscape:version="0.91 r13725"
   inkscape:export-xdpi="3.5999999"
   inkscape:export-ydpi="3.5999999"
   sodipodi:docname="server-print.svg"
   inkscape:export-filename="C:\Users\T420\Documents\Arbeit\RRZE\github_\bicons\16x16\devices\server-print.png">
  <defs
     id="defs4">
    <linearGradient
       id="linearGradient2224">
      <stop
         id="stop2226"
         offset="0"
         style="stop-color:#7c7c7c;stop-opacity:1;" />
      <stop
         id="stop2228"
         offset="1"
         style="stop-color:#b8b8b8;stop-opacity:1;" />
    </linearGradient>
    <linearGradient
       id="linearGradient15218">
      <stop
         id="stop15220"
         offset="0"
         style="stop-color:#eeeeef;stop-opacity:1;" />
      <stop
         id="stop2736"
         offset="0.59928656"
         style="stop-color:#d3d7cf;stop-opacity:1;" />
      <stop
         id="stop2738"
         offset="0.82758623"
         style="stop-color:#ffffff;stop-opacity:1;" />
      <stop
         id="stop15222"
         offset="1"
         style="stop-color:#d3d7cf;stop-opacity:1;" />
    </linearGradient>
    <pattern
       y="0"
       x="0"
       height="6"
       width="6"
       patternUnits="userSpaceOnUse"
       id="EMFhbasepattern" />
    <pattern
       y="0"
       x="0"
       height="6"
       width="6"
       patternUnits="userSpaceOnUse"
       id="EMFhbasepattern-5" />
    <pattern
       y="0"
       x="0"
       height="6"
       width="6"
       patternUnits="userSpaceOnUse"
       id="EMFhbasepattern-7" />
    <linearGradient
       inkscape:collect="always"
       xlink:href="#linearGradient4358"
       id="linearGradient4364"
       x1="50"
       y1="375.00003"
       x2="350"
       y2="25.000019"
       gradientUnits="userSpaceOnUse"
       gradientTransform="translate(0,-2e-5)" />
    <linearGradient
       inkscape:collect="always"
       id="linearGradient4358">
      <stop
         style="stop-color:#4e505d;stop-opacity:1;"
         offset="0"
         id="stop4360" />
      <stop
         style="stop-color:#7a859c;stop-opacity:1"
         offset="1"
         id="stop4362" />
    </linearGradient>
  </defs>
  <sodipodi:namedview
     id="base"
     pagecolor="#ffffff"
     bordercolor="#666666"
     borderopacity="1.0"
     inkscape:pageopacity="0.0"
     inkscape:pageshadow="2"
     inkscape:zoom="0.70710678"
     inkscape:cx="133.59223"
     inkscape:cy="602.15475"
     inkscape:document-units="px"
     inkscape:current-layer="layer1"
     showgrid="false"
     showguides="true"
     inkscape:guide-bbox="true"
     inkscape:window-width="1600"
     inkscape:window-height="837"
     inkscape:window-x="-4"
     inkscape:window-y="-4"
     inkscape:window-maximized="1"
     inkscape:snap-bbox="true"
     inkscape:bbox-nodes="true">
    <sodipodi:guide
       position="560,730.00002"
       orientation="0,1"
       id="guide3338" />
    <sodipodi:guide
       position="560,330.00001"
       orientation="0,1"
       id="guide3340" />
    <sodipodi:guide
       position="190,475.00001"
       orientation="1,0"
       id="guide3344" />
    <sodipodi:guide
       position="590,451.00001"
       orientation="1,0"
       id="guide3346" />
    <inkscape:grid
       type="xygrid"
       id="grid3440" />
    <sodipodi:guide
       position="-111.01577,704.98548"
       orientation="0,1"
       id="guide4151" />
    <sodipodi:guide
       position="54.25,355.00001"
       orientation="0,1"
       id="guide4153" />
    <sodipodi:guide
       position="215,442.00001"
       orientation="1,0"
       id="guide4155" />
    <sodipodi:guide
       position="564.97832,467.39759"
       orientation="1,0"
       id="guide4157" />
  </sodipodi:namedview>
  <metadata
     id="metadata7">
    <rdf:RDF>
      <cc:Work
         rdf:about="">
        <dc:format>image/svg+xml</dc:format>
        <dc:type
           rdf:resource="http://purl.org/dc/dcmitype/StillImage" />
        <dc:title>server print</dc:title>
        <dc:date>June 2015</dc:date>
        <dc:creator>
          <cc:Agent>
            <dc:title>Johannes Hechler</dc:title>
          </cc:Agent>
        </dc:creator>
        <dc:rights>
          <cc:Agent>
            <dc:title>Johannes Hechler</dc:title>
          </cc:Agent>
        </dc:rights>
        <dc:publisher>
          <cc:Agent>
            <dc:title>RRZE</dc:title>
          </cc:Agent>
        </dc:publisher>
        <dc:contributor>
          <cc:Agent>
            <dc:title>Ute Weber, Hendrik Eggers</dc:title>
          </cc:Agent>
        </dc:contributor>
      </cc:Work>
    </rdf:RDF>
  </metadata>
  <g
     inkscape:label="Ebene 1"
     inkscape:groupmode="layer"
     id="layer1">
    <g
       transform="translate(190,-329.99998)"
       id="g5121">
      <path
         inkscape:connector-curvature="0"
         id="rect3505"
         transform="translate(0,652.36216)"
         d="M 50,25 C 36.15,25 25,36.15 25,50 l 0,50 c 0,13.85 11.15,25 25,25 l 0,25 c -13.85,0 -25,11.15 -25,25 l 0,50 c 0,13.85 11.15,25 25,25 l 0,25 c -13.85,0 -25,11.15 -25,25 l 0,50 c 0,13.85 11.15,25 25,25 l 130.54297,0 c -7.8649,-1.55833 -14.82514,-5.67035 -19.50586,-10.61133 -6.95785,-7.3447 -10.75977,-16.5287 -10.75977,-27.01562 L 150.27734,275 75,275 l 0,-25 77.66016,0 c 5.46222,-14.54718 19.67418,-25.20117 35.8789,-25.20117 l 10.3125,0 0,-43.11914 c 0,-15.71169 12.7328,-31.54102 30.89453,-31.54102 l 114.85547,0 c 16.08474,0 27.90384,12.41591 30.39844,26.16992 L 375,175 c 0,-13.85 -11.15,-25 -25,-25 l 0,-25 c 13.85,0 25,-11.15 25,-25 l 0,-50 C 375,36.15 363.85,25 350,25 l -12.5,0 -275,0 -12.5,0 z m 25,100 250,0 0,25 -250,0 0,-25 z m 173.85156,75.13867 0,0.69922 76.64453,0 0,-0.69922 -76.64453,0 z m 0.45899,124.58008 0,50.28125 76.60937,0 0,-50.28125 -76.60937,0 z"
         style="fill:url(#linearGradient4364);fill-opacity:1;stroke:none" />
      <rect
         ry="25"
         y="652.36218"
         x="0"
         height="400.00003"
         width="400"
         id="rect4366"
         style="fill:none;stroke:none" />
      <rect
         ry="12.500005"
         y="727.36218"
         x="75"
         height="25.00001"
         width="50"
         id="rect4368"
         style="fill:#ffffff;stroke:none" />
      <rect
         style="fill:#ffffff;stroke:none"
         id="rect4370"
         width="50"
         height="25.00001"
         x="75"
         y="852.36218"
         ry="12.500005" />
      <rect
         ry="12.500005"
         y="977.36218"
         x="75"
         height="25.00001"
         width="50"
         id="rect4372"
         style="fill:#ffffff;stroke:none" />
      <path
         style="opacity:1;fill:#99b000;fill-opacity:1;stroke:none;stroke-width:16;stroke-linecap:round;stroke-linejoin:round;stroke-miterlimit:4;stroke-dasharray:none;stroke-opacity:1"
         d="m 229.74521,827.49908 c -3.26523,0 -5.89348,2.91843 -5.89348,6.54224 l 0,44.15803 126.64416,0 0,-44.15803 c 0,-3.62381 -2.62824,-6.54224 -5.89348,-6.54224 z m -28.68096,74.58854 0,0.0719 -12.52601,0 c -7.34737,0 -13.26168,5.91563 -13.26168,13.263 l 0,74.31236 c 0,7.34738 6.0071,14.42572 13.26168,13.26172 l 12.46472,0 0,-52.94053 c 0,-11.48122 9.58449,-20.91761 21.03618,-20.91761 l 126.47583,0 c 11.45169,0 27.54795,9.44774 27.0375,20.91761 l 0,52.94053 11.18585,0 c 7.34737,0 13.26168,-5.91434 13.26168,-13.26172 l 0,-74.31236 c 0,-7.34737 -5.91431,-13.263 -13.26168,-13.263 l -26.52601,0 0,-0.0719 -6.6315,0 0,0.0719 -145.88506,0 0,-0.0719 z m 33.97274,49.99198 c -5.94231,0 -10.72657,4.7356 -10.72657,10.61866 l 0,79.04534 c 0,5.883 4.78426,10.6186 10.72657,10.6186 l 105.15553,0 c 5.9423,0 10.72657,-4.7356 10.72657,-10.6186 l 0,-79.04534 c 0,-5.88306 -4.78427,-10.61866 -10.72657,-10.61866 z"
         id="rect4188"
         inkscape:connector-curvature="0"
         sodipodi:nodetypes="ssccsssccsssscsssscsssscccccccsssssssss" />
      <rect
         style="color:#000000;clip-rule:nonzero;display:inline;overflow:visible;visibility:visible;opacity:1;isolation:auto;mix-blend-mode:normal;color-interpolation:sRGB;color-interpolation-filters:linearRGB;solid-color:#000000;solid-opacity:1;fill:#ffffff;fill-opacity:1;fill-rule:nonzero;stroke:none;stroke-width:50;stroke-linecap:square;stroke-linejoin:round;stroke-miterlimit:4;stroke-dasharray:none;stroke-dashoffset:0;stroke-opacity:1;color-rendering:auto;image-rendering:auto;shape-rendering:auto;text-rendering:auto;enable-background:accumulate"
         id="rect4987"
         width="75"
         height="25"
         x="249.99997"
         y="977.36212"
         rx="7.1666498"
         ry="7.9535999" />
    </g>
  </g>
</svg>
