<?xml version="1.0" encoding="UTF-8" standalone="no"?>
<!-- Created with Inkscape (http://www.inkscape.org/) -->

<svg
   xmlns:dc="http://purl.org/dc/elements/1.1/"
   xmlns:cc="http://creativecommons.org/ns#"
   xmlns:rdf="http://www.w3.org/1999/02/22-rdf-syntax-ns#"
   xmlns:svg="http://www.w3.org/2000/svg"
   xmlns="http://www.w3.org/2000/svg"
   xmlns:sodipodi="http://sodipodi.sourceforge.net/DTD/sodipodi-0.dtd"
   xmlns:inkscape="http://www.inkscape.org/namespaces/inkscape"
   width="210mm"
   height="297mm"
   viewBox="0 0 744.09448819 1052.3622047"
   id="svg2"
   version="1.1"
   inkscape:version="0.91 r13725"
   inkscape:export-xdpi="4"
   inkscape:export-ydpi="4"
   sodipodi:docname="server-web-yellow.svg">
  <defs
     id="defs4">
    <linearGradient
       id="linearGradient2224">
      <stop
         id="stop2226"
         offset="0"
         style="stop-color:#7c7c7c;stop-opacity:1;" />
      <stop
         id="stop2228"
         offset="1"
         style="stop-color:#b8b8b8;stop-opacity:1;" />
    </linearGradient>
    <linearGradient
       id="linearGradient15218">
      <stop
         id="stop15220"
         offset="0"
         style="stop-color:#eeeeef;stop-opacity:1;" />
      <stop
         id="stop2736"
         offset="0.59928656"
         style="stop-color:#d3d7cf;stop-opacity:1;" />
      <stop
         id="stop2738"
         offset="0.82758623"
         style="stop-color:#ffffff;stop-opacity:1;" />
      <stop
         id="stop15222"
         offset="1"
         style="stop-color:#d3d7cf;stop-opacity:1;" />
    </linearGradient>
    <pattern
       y="0"
       x="0"
       height="6"
       width="6"
       patternUnits="userSpaceOnUse"
       id="EMFhbasepattern" />
    <pattern
       y="0"
       x="0"
       height="6"
       width="6"
       patternUnits="userSpaceOnUse"
       id="EMFhbasepattern-5" />
  </defs>
  <sodipodi:namedview
     id="base"
     pagecolor="#ffffff"
     bordercolor="#666666"
     borderopacity="1.0"
     inkscape:pageopacity="0.0"
     inkscape:pageshadow="2"
     inkscape:zoom="0.70710678"
     inkscape:cx="365.10082"
     inkscape:cy="521.48706"
     inkscape:document-units="px"
     inkscape:current-layer="layer1"
     showgrid="false"
     showguides="true"
     inkscape:guide-bbox="true"
     inkscape:window-width="1366"
     inkscape:window-height="721"
     inkscape:window-x="-4"
     inkscape:window-y="-4"
     inkscape:window-maximized="1">
    <sodipodi:guide
       position="560,730.00002"
       orientation="0,1"
       id="guide3338" />
    <sodipodi:guide
       position="560,330.00001"
       orientation="0,1"
       id="guide3340" />
    <sodipodi:guide
       position="190,475.00001"
       orientation="1,0"
       id="guide3344" />
    <sodipodi:guide
       position="593.00001,570.00001"
       orientation="1,0"
       id="guide3346" />
    <inkscape:grid
       type="xygrid"
       id="grid3440" />
    <sodipodi:guide
       position="-111.01577,704.98548"
       orientation="0,1"
       id="guide4151" />
    <sodipodi:guide
       position="54.25,355.00001"
       orientation="0,1"
       id="guide4153" />
    <sodipodi:guide
       position="215,442.00001"
       orientation="1,0"
       id="guide4155" />
    <sodipodi:guide
       position="564.97832,467.39759"
       orientation="1,0"
       id="guide4157" />
  </sodipodi:namedview>
  <metadata
     id="metadata7">
    <rdf:RDF>
      <cc:Work
         rdf:about="">
        <dc:format>image/svg+xml</dc:format>
        <dc:type
           rdf:resource="http://purl.org/dc/dcmitype/StillImage" />
        <dc:title>server web yellow</dc:title>
        <dc:date>June 2015</dc:date>
        <dc:creator>
          <cc:Agent>
            <dc:title>Johannes Hechler</dc:title>
          </cc:Agent>
        </dc:creator>
        <dc:rights>
          <cc:Agent>
            <dc:title>Johannes Hechler</dc:title>
          </cc:Agent>
        </dc:rights>
        <dc:publisher>
          <cc:Agent>
            <dc:title>RRZE</dc:title>
          </cc:Agent>
        </dc:publisher>
        <dc:contributor>
          <cc:Agent>
            <dc:title>Ute Weber, Hendrik Eggers</dc:title>
          </cc:Agent>
        </dc:contributor>
      </cc:Work>
    </rdf:RDF>
  </metadata>
  <g
     inkscape:label="Ebene 1"
     inkscape:groupmode="layer"
     id="layer1">
    <g
       id="g4167"
       transform="translate(-1.10421,2.1941947)">
      <path
         sodipodi:nodetypes="ssccccssssccccsss"
         id="rect4153-2"
         d="m 251.78261,371.39281 c -6.51959,0 -11.76826,5.61825 -11.76826,12.5969 l 0,12.59691 -23.91014,0 0,50.51553 23.91014,0 0,12.46897 c 0,6.97868 5.24867,12.59689 11.76826,12.59689 l 278.20649,0 c 6.51959,0 10.66302,-5.70629 11.76826,-12.59689 l 0,-12.46897 24.34684,0 0,-50.51553 -24.34684,0 0,-12.59691 c 0,-6.97865 -5.24867,-12.5969 -11.76826,-12.5969 z"
         style="color:#252525;clip-rule:nonzero;display:inline;overflow:visible;visibility:visible;opacity:1;isolation:auto;mix-blend-mode:normal;color-interpolation:sRGB;color-interpolation-filters:linearRGB;solid-color:#252525;solid-opacity:1;fill:#ede13c;fill-opacity:1;fill-rule:nonzero;stroke:none;stroke-width:30;stroke-linecap:butt;stroke-linejoin:round;stroke-miterlimit:4;stroke-dasharray:none;stroke-dashoffset:60.95968628;stroke-opacity:1;color-rendering:auto;image-rendering:auto;shape-rendering:auto;text-rendering:auto;enable-background:accumulate"
         inkscape:connector-curvature="0" />
      <circle
         r="11.768259"
         cy="434.10312"
         cx="519.36804"
         id="path4159-4"
         style="color:#252525;clip-rule:nonzero;display:inline;overflow:visible;visibility:visible;opacity:1;isolation:auto;mix-blend-mode:normal;color-interpolation:sRGB;color-interpolation-filters:linearRGB;solid-color:#252525;solid-opacity:1;fill:#ffffff;fill-opacity:1;fill-rule:nonzero;stroke:none;stroke-width:30;stroke-linecap:butt;stroke-linejoin:round;stroke-miterlimit:4;stroke-dasharray:none;stroke-dashoffset:60.95968628;stroke-opacity:1;color-rendering:auto;image-rendering:auto;shape-rendering:auto;text-rendering:auto;enable-background:accumulate" />
      <circle
         r="11.768259"
         cy="434.65552"
         cx="479.14783"
         id="path4163-3"
         style="color:#252525;clip-rule:nonzero;display:inline;overflow:visible;visibility:visible;opacity:1;isolation:auto;mix-blend-mode:normal;color-interpolation:sRGB;color-interpolation-filters:linearRGB;solid-color:#252525;solid-opacity:1;fill:#ffffff;fill-opacity:1;fill-rule:nonzero;stroke:none;stroke-width:30;stroke-linecap:butt;stroke-linejoin:round;stroke-miterlimit:4;stroke-dasharray:none;stroke-dashoffset:60.95968628;stroke-opacity:1;color-rendering:auto;image-rendering:auto;shape-rendering:auto;text-rendering:auto;enable-background:accumulate" />
      <rect
         ry="10.992308"
         y="385.92526"
         x="266.12537"
         height="70.609558"
         width="23.921658"
         id="rect4165-0"
         style="color:#252525;clip-rule:nonzero;display:inline;overflow:visible;visibility:visible;opacity:1;isolation:auto;mix-blend-mode:normal;color-interpolation:sRGB;color-interpolation-filters:linearRGB;solid-color:#252525;solid-opacity:1;fill:#ffffff;fill-opacity:1;fill-rule:nonzero;stroke:none;stroke-width:30;stroke-linecap:butt;stroke-linejoin:round;stroke-miterlimit:4;stroke-dasharray:none;stroke-dashoffset:60.95968628;stroke-opacity:1;color-rendering:auto;image-rendering:auto;shape-rendering:auto;text-rendering:auto;enable-background:accumulate" />
      <rect
         style="color:#252525;clip-rule:nonzero;display:inline;overflow:visible;visibility:visible;opacity:1;isolation:auto;mix-blend-mode:normal;color-interpolation:sRGB;color-interpolation-filters:linearRGB;solid-color:#252525;solid-opacity:1;fill:#ffffff;fill-opacity:1;fill-rule:nonzero;stroke:none;stroke-width:30;stroke-linecap:butt;stroke-linejoin:round;stroke-miterlimit:4;stroke-dasharray:none;stroke-dashoffset:60.95968628;stroke-opacity:1;color-rendering:auto;image-rendering:auto;shape-rendering:auto;text-rendering:auto;enable-background:accumulate"
         id="rect4407"
         width="23.921658"
         height="70.609558"
         x="316.12537"
         y="385.92526"
         ry="10.992308" />
      <rect
         ry="10.992308"
         y="385.92526"
         x="364.12537"
         height="70.609558"
         width="23.921658"
         id="rect4409"
         style="color:#252525;clip-rule:nonzero;display:inline;overflow:visible;visibility:visible;opacity:1;isolation:auto;mix-blend-mode:normal;color-interpolation:sRGB;color-interpolation-filters:linearRGB;solid-color:#252525;solid-opacity:1;fill:#ffffff;fill-opacity:1;fill-rule:nonzero;stroke:none;stroke-width:30;stroke-linecap:butt;stroke-linejoin:round;stroke-miterlimit:4;stroke-dasharray:none;stroke-dashoffset:60.95968628;stroke-opacity:1;color-rendering:auto;image-rendering:auto;shape-rendering:auto;text-rendering:auto;enable-background:accumulate" />
    </g>
    <rect
       style="opacity:1;fill:none;fill-opacity:1;stroke:none;stroke-width:23;stroke-linecap:butt;stroke-linejoin:round;stroke-miterlimit:4;stroke-dasharray:none;stroke-opacity:1"
       id="rect4160"
       width="400"
       height="400"
       x="190"
       y="322.36221" />
    <path
       style="color:#252525;font-style:normal;font-variant:normal;font-weight:normal;font-stretch:normal;font-size:medium;line-height:normal;font-family:sans-serif;text-indent:0;text-align:start;text-decoration:none;text-decoration-line:none;text-decoration-style:solid;text-decoration-color:#252525;letter-spacing:normal;word-spacing:normal;text-transform:none;direction:ltr;block-progression:tb;writing-mode:lr-tb;baseline-shift:baseline;text-anchor:start;white-space:normal;clip-rule:nonzero;display:inline;overflow:visible;visibility:visible;opacity:1;isolation:auto;mix-blend-mode:normal;color-interpolation:sRGB;color-interpolation-filters:linearRGB;solid-color:#252525;solid-opacity:1;fill:#ffffff;fill-opacity:1;fill-rule:nonzero;stroke:#4e505d;stroke-width:21.02216911;stroke-linecap:butt;stroke-linejoin:round;stroke-miterlimit:4;stroke-dasharray:none;stroke-dashoffset:0;stroke-opacity:1;color-rendering:auto;image-rendering:auto;shape-rendering:auto;text-rendering:auto;enable-background:accumulate"
       d="m 463.84113,443.75326 c -14.8055,0 -29.16838,2.98122 -42.67094,8.77412 -26.4162,11.3308 -46.85857,31.48476 -58.25725,58.05553 -5.81493,13.55203 -8.67236,27.94443 -8.67236,42.66915 0,14.72478 2.84446,29.18935 8.67236,42.77447 11.3912,26.55337 31.80313,46.80797 58.25725,58.15728 13.50509,5.79402 27.86822,8.77055 42.67094,8.77055 14.82945,0 29.1651,-3.01418 42.63523,-8.75626 a 13.711481,13.711481 0 0 0 0.002,-0.002 c 26.67724,-11.37788 46.94193,-31.71591 58.28939,-58.16978 5.80575,-13.5351 8.77411,-27.96893 8.77411,-42.77448 0,-14.80504 -2.98259,-29.16531 -8.77411,-42.66736 l 0,-0.002 c -11.35569,-26.47371 -31.65174,-46.70898 -58.28939,-58.06982 -13.47196,-5.74563 -27.80811,-8.75983 -42.63701,-8.75983 z m -23.54104,101.36734 0.57303,0 0,16.06476 -0.58553,0 c -0.18478,-2.74943 -0.33204,-5.44724 -0.33204,-7.9333 0,-2.69353 0.15545,-5.40949 0.34454,-8.13146 z m 46.60723,0 0.57482,0 c 0.18914,2.72212 0.34455,5.43836 0.34455,8.13146 0,2.48567 -0.14865,5.18344 -0.33384,7.9333 l -0.58553,0 0,-16.06476 z"
       id="path4189"
       inkscape:connector-curvature="0" />
    <path
       style="color:#252525;font-style:normal;font-variant:normal;font-weight:normal;font-stretch:normal;font-size:medium;line-height:normal;font-family:sans-serif;text-indent:0;text-align:start;text-decoration:none;text-decoration-line:none;text-decoration-style:solid;text-decoration-color:#252525;letter-spacing:normal;word-spacing:normal;text-transform:none;direction:ltr;block-progression:tb;writing-mode:lr-tb;baseline-shift:baseline;text-anchor:start;white-space:normal;clip-rule:nonzero;display:inline;overflow:visible;visibility:visible;opacity:1;isolation:auto;mix-blend-mode:normal;color-interpolation:sRGB;color-interpolation-filters:linearRGB;solid-color:#252525;solid-opacity:1;fill:#99b000;fill-opacity:1;fill-rule:nonzero;stroke:#ffffff;stroke-width:45.70036697;stroke-linecap:butt;stroke-linejoin:round;stroke-miterlimit:4;stroke-dasharray:none;stroke-dashoffset:0;stroke-opacity:1;color-rendering:auto;image-rendering:auto;shape-rendering:auto;text-rendering:auto;enable-background:accumulate"
       d="m 463.84113,457.46337 c -12.99295,0 -25.40793,2.57661 -37.26543,7.66374 -23.46554,10.06478 -40.97013,27.33435 -51.06302,50.8613 -5.07984,11.83886 -7.56199,24.28727 -7.56199,37.26365 0,12.97877 2.47931,25.52101 7.56199,37.36897 10.0914,23.52348 27.58928,40.89239 51.06302,50.96306 11.85787,5.08732 24.27263,7.66016 37.26543,7.66016 12.9998,0 25.39738,-2.60228 37.25829,-7.65838 23.66995,-10.09527 41.00028,-27.49348 51.06838,-50.96484 5.08996,-11.86635 7.66374,-24.37365 7.66374,-37.36897 0,-12.99294 -2.57678,-25.40469 -7.66374,-37.26365 -10.06995,-23.47715 -27.40716,-40.77347 -51.06838,-50.86487 -11.86122,-5.05867 -24.25848,-7.66017 -37.25829,-7.66017 z m 0,7.20495 c 12.04396,0 23.41283,2.38207 34.43237,7.08178 22.11774,9.43311 37.87159,25.1556 47.27489,47.07851 4.71848,10.99998 7.07998,22.37752 7.07999,34.42345 0,12.04851 -2.36452,23.53546 -7.07999,34.52876 -9.40452,21.92438 -25.16524,37.75048 -47.27489,47.18028 l 0,-0.002 c -11.01985,4.69757 -22.3884,7.08177 -34.43237,7.08177 -12.04674,0 -23.42771,-2.36 -34.42523,-7.0782 -21.92625,-9.40677 -37.86757,-25.2324 -47.28381,-47.18206 -4.69257,-10.93856 -6.97824,-22.46366 -6.97824,-34.52872 0,-12.06249 2.28283,-23.48051 6.97824,-34.42345 9.41473,-21.94612 25.34996,-37.67248 47.28381,-47.08031 10.99789,-4.71833 22.37928,-7.07998 34.42523,-7.07998 z m -2.05294,3.77921 -4.5629,1.2639 c -7.6175,2.11004 -14.18044,7.65551 -20.04925,15.92729 -5.83845,8.22642 -10.25062,18.29978 -13.46376,30.11761 l -1.23534,4.54861 35.70877,0 3.60248,0 0,-51.85741 z m 4.20586,0 0,4.73427 0,47.12314 39.31123,0 -1.23533,-4.54861 c -3.21305,-11.81743 -7.62294,-21.89059 -13.46376,-30.11761 -5.86905,-8.27166 -12.43169,-13.81724 -20.04924,-15.92729 l -4.5629,-1.2639 z m -21.47561,1.19784 -12.7479,5.25734 c -18.68467,7.70511 -34.25049,22.11979 -43.5296,40.15205 l -2.70275,5.2484 32.87571,0 0.66408,-2.75987 c 3.64273,-15.15679 9.30452,-27.47305 16.89306,-37.078 l 8.5474,-10.81992 z m 38.74535,0.002 8.54739,10.81813 c 7.5887,9.60486 13.25253,21.92155 16.89307,37.078 l 0.6623,2.76165 32.87749,0 -2.70275,-5.25019 C 530.262,497.0225 514.69716,482.60752 496.0099,474.90271 l -12.74611,-5.25554 z m -28.67877,8.97048 0,34.48235 -22.51457,0 c 2.87671,-9.15362 6.49751,-16.97621 10.98059,-23.2929 3.81111,-5.37155 7.63348,-8.98746 11.53398,-11.18945 z m 18.61219,0 c 3.90044,2.20198 7.7226,5.81781 11.53399,11.18945 l 0.002,0.002 c 4.4842,6.31619 8.10242,14.1373 10.9788,23.29112 l -22.51457,0 0,-34.48235 z m -50.41143,9.04725 c -4.12885,7.50766 -7.44035,15.97978 -9.92019,25.4351 l -15.21502,0 c 6.33678,-10.26953 14.98966,-19.02133 25.13521,-25.4351 z m 82.20889,0.002 c 10.1464,6.41368 18.80001,15.16315 25.13698,25.43332 l -15.215,0 c -2.47875,-9.45457 -5.79325,-17.92645 -9.92198,-25.43332 z m -120.69003,36.54065 -0.82118,2.46175 c -2.84523,8.53378 -4.32547,17.41244 -4.32547,26.58298 0,8.95125 1.3691,17.80889 4.10946,26.34555 l 0.80333,2.50102 33.4773,0 -0.63373,-4.14516 c -1.28392,-8.39978 -1.87799,-16.59724 -1.87799,-24.70141 0,-8.20529 0.59444,-16.50424 1.87799,-24.89956 l 0.63373,-4.14517 -33.24344,0 z m 37.5457,0 -0.53018,2.96696 c -1.5558,8.6996 -2.27968,17.39707 -2.27968,26.07777 0,8.09082 0.7248,16.64405 2.05831,25.76536 l 0.45165,3.08121 33.03279,0 3.60248,0 0,-7.20316 3.60248,3.60069 0,-54.28883 -39.93785,0 z m 44.14371,0 0,3.60069 0,54.29061 40.23775,0 0.44985,-3.08121 c 1.33349,-9.1213 2.05831,-17.67419 2.05831,-25.76536 0,-8.68078 -0.72243,-17.37832 -2.27788,-26.07777 l -0.53198,-2.96696 -39.93605,0 z m 44.23831,0 0.63552,4.14695 c 1.28519,8.39474 1.87622,16.69198 1.87622,24.89778 0,8.10479 -0.59039,16.30072 -1.87622,24.69962 l -0.63552,4.14695 33.47909,0 0.80332,-2.50102 c 2.74074,-8.53687 4.10916,-17.39455 4.10947,-26.34555 0,-9.17087 -1.48024,-18.04951 -4.32547,-26.58298 l -0.82118,-2.46175 -33.24523,0 z m -120.63112,7.20316 19.72257,0 c -0.93785,7.35063 -1.49062,14.64456 -1.49062,21.84157 0,7.10919 0.55309,14.32643 1.48883,21.64341 l -19.89216,0 c -2.00813,-7.04704 -3.0687,-14.29443 -3.0687,-21.64341 0,-7.52394 1.139,-14.78259 3.24008,-21.84157 z m 38.41865,0 26.56334,0 0,43.48498 -26.71151,0 c -1.00935,-7.6534 -1.62628,-14.90474 -1.62628,-21.64341 0,-7.28988 0.63854,-14.56699 1.77445,-21.84157 z m 45.17732,0 26.56512,0 c 1.13562,7.27418 1.77447,14.55229 1.77447,21.84157 0,6.73899 -0.61871,13.99004 -1.62808,21.64341 l -26.71151,0 0,-43.48498 z m 45.26122,0 19.72256,0 c 2.10125,7.05903 3.24009,14.31697 3.24009,21.84157 -2.6e-4,7.34926 -1.06225,14.59646 -3.0705,21.64341 l -19.89037,0 c 0.93652,-7.31731 1.48883,-14.53517 1.48883,-21.64341 0,-7.19656 -0.552,-14.49022 -1.49061,-21.84157 z m -132.79706,54.59053 2.54923,5.19127 c 8.97968,18.27768 24.58448,32.7077 43.54923,40.61085 l 4.2005,-5.57152 c -7.5611,-9.47668 -13.23315,-21.99162 -16.87878,-37.45466 l -0.65516,-2.77594 -32.76502,0 z m 36.90483,0 1.13002,4.48255 c 3.01193,11.94681 7.40531,22.15764 13.27096,30.47823 5.87472,8.33161 12.65848,13.81649 20.20812,16.0219 l 4.61289,1.34602 0,-4.80389 0,-47.52481 -39.22199,0 z m 43.42785,0 0,52.23944 4.54861,-1.2389 c 7.71734,-2.10282 14.37316,-7.68857 20.18671,-16.06119 5.78651,-8.33261 10.23534,-18.48702 13.34951,-30.42823 l 1.17643,-4.51112 -39.26126,0 z m 43.36,0 -0.65337,2.77594 c -3.64343,15.4625 -9.31724,27.9778 -16.87879,37.45466 l 4.20051,5.57152 c 18.96412,-7.90315 34.56921,-22.33317 43.54924,-40.61085 l 2.551,-5.19127 -32.76859,0 z m -111.81951,7.20494 15.31676,0 c 2.4771,9.63525 5.78944,18.24346 9.92376,25.81357 -10.34632,-6.52545 -19.03202,-15.37043 -25.24052,-25.81357 z m 34.45557,0 22.59312,0 0,34.85189 c -4.00144,-2.24612 -7.94534,-5.88115 -11.72857,-11.24658 -4.51592,-6.40597 -8.11901,-14.34139 -10.86455,-23.60531 z m 41.2071,0 22.55742,0 c -2.819,9.25169 -6.45973,17.17065 -10.9431,23.62674 -3.78116,5.44559 -7.6384,9.09966 -11.61432,11.3037 l 0,-34.93044 z m 41.73371,0 15.31677,0 c -6.20846,10.44271 -14.89303,19.28818 -25.23874,25.81357 4.13466,-7.57002 7.44589,-16.17823 9.92197,-25.81357 z"
       id="path4185"
       inkscape:connector-curvature="0" />
    <path
       inkscape:connector-curvature="0"
       id="path5"
       d="m 548.85847,517.40874 c -9.73662,-22.70003 -26.28219,-39.20908 -49.17166,-48.97134 -11.44039,-4.87919 -23.32464,-7.37144 -35.84652,-7.37144 -12.51945,0 -24.4167,2.46871 -35.8444,7.37144 -22.69969,9.7363 -39.41998,26.2348 -49.1738,48.97134 -4.88762,11.3909 -7.27003,23.32463 -7.27003,35.84407 0,12.52192 2.38241,24.55457 7.27003,35.94785 9.75382,22.73657 26.47381,39.334 49.1738,49.07272 11.4277,4.90276 23.32463,7.36907 35.8444,7.36907 12.52188,0 24.40613,-2.49224 35.84652,-7.36907 22.88979,-9.76253 39.43536,-26.37485 49.17166,-49.07272 4.90272,-11.42982 7.37143,-23.42593 7.37143,-35.94785 0,-12.51944 -2.46871,-24.4146 -7.37143,-35.84407 z M 433.14424,478.23196 c -7.97675,10.09631 -13.83152,22.91965 -17.56884,38.47002 l -24.13215,0 c 8.88536,-17.26708 23.83069,-31.10073 41.70099,-38.47002 z m -50.38445,75.02085 c 0,-8.78425 1.41312,-17.26493 4.14016,-25.44419 l 26.45449,0 c -1.31205,8.58177 -1.91919,17.06492 -1.91919,25.44419 0,8.28033 0.60744,16.6623 1.91919,25.24417 l -26.65698,0 c -2.62564,-8.17925 -3.93767,-16.65993 -3.93767,-25.24417 z m 8.68346,36.35068 24.13246,0 c 3.73731,15.8519 9.59238,28.87774 17.56883,38.875 -18.17447,-7.57381 -33.11951,-21.40724 -41.70129,-38.875 z m 66.74264,43.92225 c -6.56361,-1.91737 -12.72224,-6.76394 -18.27526,-14.63931 -5.5533,-7.87751 -9.79456,-17.67026 -12.72225,-29.28294 l 30.99751,0 0,43.92225 z m 0,-55.02876 -33.52234,0 c -1.31388,-8.98707 -2.0206,-17.36883 -2.0206,-25.24417 0,-8.48068 0.70644,-16.96351 2.22308,-25.44419 l 33.31956,0 0,50.68836 3e-4,0 z m 0,-61.79476 -30.99751,0 c 3.12986,-11.51153 7.39497,-21.18781 12.92474,-28.97929 5.57684,-7.86026 11.50948,-12.72224 18.07307,-14.54035 l 0,43.51964 z m 78.15312,0 -24.13273,0 c -3.73522,-15.55061 -9.5921,-28.37395 -17.56885,-38.46997 17.87273,7.369 32.81592,21.20265 41.70158,38.46997 z m -66.74292,-43.51964 c 6.56361,1.81811 12.49591,6.68009 18.07307,14.54035 5.5316,7.79148 9.79456,17.46776 12.92444,28.97929 l -30.99751,0 0,-43.51964 z m 0,54.62604 33.31956,0 c 1.51634,8.48068 2.22307,16.96351 2.22307,25.44419 0,7.87569 -0.70673,16.2571 -2.0206,25.24417 l -33.52203,0 0,-50.68836 z m 0,105.71712 0,-43.92225 30.99751,0 c -3.02849,11.61268 -7.32587,21.36652 -12.82335,29.28294 -5.51016,7.93568 -11.50946,12.82332 -18.17416,14.63931 z m 25.04163,-5.04725 c 7.97676,-9.99726 13.83366,-23.0231 17.56884,-38.875 l 24.13277,0 c -8.5821,17.46776 -23.52773,31.30119 -41.70161,38.875 z m 46.44678,-49.98151 -26.65697,0 c 1.31387,-8.58209 1.9192,-16.96384 1.9192,-25.24417 0,-8.37927 -0.60533,-16.86209 -1.9192,-25.44419 l 26.4545,0 c 2.72702,8.17893 4.14015,16.6596 4.14015,25.44419 -2.9e-4,8.58424 -1.31175,17.06492 -3.93768,25.24417 z"
       style="fill:#4e505d;fill-opacity:1;stroke:#4e505d;stroke-width:7.20369577;stroke-miterlimit:4;stroke-dasharray:none" />
  </g>
</svg>
