<?xml version="1.0" encoding="UTF-8" standalone="no"?>
<!-- Created with Inkscape (http://www.inkscape.org/) -->

<svg
   xmlns:dc="http://purl.org/dc/elements/1.1/"
   xmlns:cc="http://creativecommons.org/ns#"
   xmlns:rdf="http://www.w3.org/1999/02/22-rdf-syntax-ns#"
   xmlns:svg="http://www.w3.org/2000/svg"
   xmlns="http://www.w3.org/2000/svg"
   xmlns:xlink="http://www.w3.org/1999/xlink"
   xmlns:sodipodi="http://sodipodi.sourceforge.net/DTD/sodipodi-0.dtd"
   xmlns:inkscape="http://www.inkscape.org/namespaces/inkscape"
   width="210mm"
   height="297mm"
   viewBox="0 0 744.09448819 1052.3622047"
   id="svg2"
   version="1.1"
   inkscape:version="0.91 r13725"
   inkscape:export-xdpi="4"
   inkscape:export-ydpi="4"
   sodipodi:docname="server-print.svg">
  <defs
     id="defs4">
    <linearGradient
       id="linearGradient2224">
      <stop
         id="stop2226"
         offset="0"
         style="stop-color:#7c7c7c;stop-opacity:1;" />
      <stop
         id="stop2228"
         offset="1"
         style="stop-color:#b8b8b8;stop-opacity:1;" />
    </linearGradient>
    <linearGradient
       id="linearGradient15218">
      <stop
         id="stop15220"
         offset="0"
         style="stop-color:#eeeeef;stop-opacity:1;" />
      <stop
         id="stop2736"
         offset="0.59928656"
         style="stop-color:#d3d7cf;stop-opacity:1;" />
      <stop
         id="stop2738"
         offset="0.82758623"
         style="stop-color:#ffffff;stop-opacity:1;" />
      <stop
         id="stop15222"
         offset="1"
         style="stop-color:#d3d7cf;stop-opacity:1;" />
    </linearGradient>
    <pattern
       y="0"
       x="0"
       height="6"
       width="6"
       patternUnits="userSpaceOnUse"
       id="EMFhbasepattern" />
    <pattern
       y="0"
       x="0"
       height="6"
       width="6"
       patternUnits="userSpaceOnUse"
       id="EMFhbasepattern-5" />
    <pattern
       y="0"
       x="0"
       height="6"
       width="6"
       patternUnits="userSpaceOnUse"
       id="EMFhbasepattern-7" />
    <linearGradient
       gradientTransform="matrix(1,0,0,1.0704132,-1e-5,-38.021655)"
       inkscape:collect="always"
       xlink:href="#linearGradient4199"
       id="linearGradient4205"
       x1="321"
       y1="571.36218"
       x2="509"
       y2="480.36221"
       gradientUnits="userSpaceOnUse" />
    <linearGradient
       inkscape:collect="always"
       id="linearGradient4199">
      <stop
         style="stop-color:#4e505d;stop-opacity:1;"
         offset="0"
         id="stop4201" />
      <stop
         style="stop-color:#7a8597;stop-opacity:1"
         offset="1"
         id="stop4203" />
    </linearGradient>
  </defs>
  <sodipodi:namedview
     id="base"
     pagecolor="#ffffff"
     bordercolor="#666666"
     borderopacity="1.0"
     inkscape:pageopacity="0.0"
     inkscape:pageshadow="2"
     inkscape:zoom="0.70710678"
     inkscape:cx="221.27347"
     inkscape:cy="545.58621"
     inkscape:document-units="px"
     inkscape:current-layer="layer1"
     showgrid="false"
     showguides="true"
     inkscape:guide-bbox="true"
     inkscape:window-width="1366"
     inkscape:window-height="721"
     inkscape:window-x="-4"
     inkscape:window-y="-4"
     inkscape:window-maximized="1">
    <sodipodi:guide
       position="560,730.00002"
       orientation="0,1"
       id="guide3338" />
    <sodipodi:guide
       position="560,330.00001"
       orientation="0,1"
       id="guide3340" />
    <sodipodi:guide
       position="190,475.00001"
       orientation="1,0"
       id="guide3344" />
    <sodipodi:guide
       position="590,451.00001"
       orientation="1,0"
       id="guide3346" />
    <inkscape:grid
       type="xygrid"
       id="grid3440" />
    <sodipodi:guide
       position="-111.01577,704.98548"
       orientation="0,1"
       id="guide4151" />
    <sodipodi:guide
       position="54.25,355.00001"
       orientation="0,1"
       id="guide4153" />
    <sodipodi:guide
       position="215,442.00001"
       orientation="1,0"
       id="guide4155" />
    <sodipodi:guide
       position="564.97832,467.39759"
       orientation="1,0"
       id="guide4157" />
  </sodipodi:namedview>
  <metadata
     id="metadata7">
    <rdf:RDF>
      <cc:Work
         rdf:about="">
        <dc:format>image/svg+xml</dc:format>
        <dc:type
           rdf:resource="http://purl.org/dc/dcmitype/StillImage" />
        <dc:title>server print</dc:title>
        <dc:date>June 2015</dc:date>
        <dc:creator>
          <cc:Agent>
            <dc:title>Johannes Hechler</dc:title>
          </cc:Agent>
        </dc:creator>
        <dc:rights>
          <cc:Agent>
            <dc:title>Johannes Hechler</dc:title>
          </cc:Agent>
        </dc:rights>
        <dc:publisher>
          <cc:Agent>
            <dc:title>RRZE</dc:title>
          </cc:Agent>
        </dc:publisher>
        <dc:contributor>
          <cc:Agent>
            <dc:title>Ute Weber, Hendrik Eggers</dc:title>
          </cc:Agent>
        </dc:contributor>
      </cc:Work>
    </rdf:RDF>
  </metadata>
  <g
     inkscape:label="Ebene 1"
     inkscape:groupmode="layer"
     id="layer1">
    <g
       transform="translate(-0.24021,-86.208815)"
       id="g4177">
      <path
         sodipodi:nodetypes="ssccccssssccccsss"
         id="rect4153"
         d="m 250.91861,472.79582 c -6.51959,0 -11.76826,5.61825 -11.76826,12.5969 l 0,12.59691 -23.91014,0 0,50.51553 23.91014,0 0,12.46897 c 0,6.97868 5.24867,12.59689 11.76826,12.59689 l 278.20649,0 c 6.51959,0 10.66302,-5.70629 11.76826,-12.59689 l 0,-12.46897 24.34684,0 0,-50.51553 -24.34684,0 0,-12.59691 c 0,-6.97865 -5.24867,-12.5969 -11.76826,-12.5969 z"
         style="color:#252525;clip-rule:nonzero;display:inline;overflow:visible;visibility:visible;opacity:1;isolation:auto;mix-blend-mode:normal;color-interpolation:sRGB;color-interpolation-filters:linearRGB;solid-color:#252525;solid-opacity:1;fill:url(#linearGradient4205);fill-opacity:1;fill-rule:nonzero;stroke:none;stroke-width:30;stroke-linecap:butt;stroke-linejoin:round;stroke-miterlimit:4;stroke-dasharray:none;stroke-dashoffset:60.95968628;stroke-opacity:1;color-rendering:auto;image-rendering:auto;shape-rendering:auto;text-rendering:auto;enable-background:accumulate"
         inkscape:connector-curvature="0" />
      <circle
         r="11.768259"
         cy="535.5061"
         cx="528.50403"
         id="path4159"
         style="color:#252525;clip-rule:nonzero;display:inline;overflow:visible;visibility:visible;opacity:1;isolation:auto;mix-blend-mode:normal;color-interpolation:sRGB;color-interpolation-filters:linearRGB;solid-color:#252525;solid-opacity:1;fill:#99b000;fill-opacity:1;fill-rule:nonzero;stroke:none;stroke-width:30;stroke-linecap:butt;stroke-linejoin:round;stroke-miterlimit:4;stroke-dasharray:none;stroke-dashoffset:60.95968628;stroke-opacity:1;color-rendering:auto;image-rendering:auto;shape-rendering:auto;text-rendering:auto;enable-background:accumulate" />
      <circle
         r="11.768259"
         cy="536.05853"
         cx="478.28381"
         id="path4163"
         style="color:#252525;clip-rule:nonzero;display:inline;overflow:visible;visibility:visible;opacity:1;isolation:auto;mix-blend-mode:normal;color-interpolation:sRGB;color-interpolation-filters:linearRGB;solid-color:#252525;solid-opacity:1;fill:#ffffff;fill-opacity:1;fill-rule:nonzero;stroke:none;stroke-width:30;stroke-linecap:butt;stroke-linejoin:round;stroke-miterlimit:4;stroke-dasharray:none;stroke-dashoffset:60.95968628;stroke-opacity:1;color-rendering:auto;image-rendering:auto;shape-rendering:auto;text-rendering:auto;enable-background:accumulate" />
      <rect
         ry="10.992308"
         y="487.32825"
         x="265.26135"
         height="70.609558"
         width="23.921658"
         id="rect4165"
         style="color:#252525;clip-rule:nonzero;display:inline;overflow:visible;visibility:visible;opacity:1;isolation:auto;mix-blend-mode:normal;color-interpolation:sRGB;color-interpolation-filters:linearRGB;solid-color:#252525;solid-opacity:1;fill:#ffffff;fill-opacity:1;fill-rule:nonzero;stroke:none;stroke-width:30;stroke-linecap:butt;stroke-linejoin:round;stroke-miterlimit:4;stroke-dasharray:none;stroke-dashoffset:60.95968628;stroke-opacity:1;color-rendering:auto;image-rendering:auto;shape-rendering:auto;text-rendering:auto;enable-background:accumulate" />
      <rect
         style="color:#252525;clip-rule:nonzero;display:inline;overflow:visible;visibility:visible;opacity:1;isolation:auto;mix-blend-mode:normal;color-interpolation:sRGB;color-interpolation-filters:linearRGB;solid-color:#252525;solid-opacity:1;fill:#ffffff;fill-opacity:1;fill-rule:nonzero;stroke:none;stroke-width:30;stroke-linecap:butt;stroke-linejoin:round;stroke-miterlimit:4;stroke-dasharray:none;stroke-dashoffset:60.95968628;stroke-opacity:1;color-rendering:auto;image-rendering:auto;shape-rendering:auto;text-rendering:auto;enable-background:accumulate"
         id="rect4407"
         width="23.921658"
         height="70.609558"
         x="315.26135"
         y="487.32825"
         ry="10.992308" />
      <rect
         ry="10.992308"
         y="487.32825"
         x="363.26135"
         height="70.609558"
         width="23.921658"
         id="rect4409"
         style="color:#252525;clip-rule:nonzero;display:inline;overflow:visible;visibility:visible;opacity:1;isolation:auto;mix-blend-mode:normal;color-interpolation:sRGB;color-interpolation-filters:linearRGB;solid-color:#252525;solid-opacity:1;fill:#ffffff;fill-opacity:1;fill-rule:nonzero;stroke:none;stroke-width:30;stroke-linecap:butt;stroke-linejoin:round;stroke-miterlimit:4;stroke-dasharray:none;stroke-dashoffset:60.95968628;stroke-opacity:1;color-rendering:auto;image-rendering:auto;shape-rendering:auto;text-rendering:auto;enable-background:accumulate" />
    </g>
    <rect
       style="opacity:1;fill:none;fill-opacity:1;stroke:none;stroke-width:23;stroke-linecap:butt;stroke-linejoin:round;stroke-miterlimit:4;stroke-dasharray:none;stroke-opacity:1"
       id="rect4160"
       width="400"
       height="400"
       x="190"
       y="322.36221" />
    <g
       transform="matrix(0.88689826,0,0,0.88689826,42.945774,35.683365)"
       id="g4226">
      <path
         inkscape:connector-curvature="0"
         id="path4222"
         d="m 399.75195,473.21094 c -12.48867,0 -21.4082,10.9218 -21.4082,22.11523 l 0,43.66992 a 15.0015,15.0015 0 0 0 0.67773,4.45313 l -6.10937,0 a 15.0015,15.0015 0 0 0 -1.52344,0.0781 l -27.32226,0 c -16.04123,0 -29.41993,13.38247 -29.41993,29.42188 l 0,72.11133 c 0,16.03941 13.38053,29.42187 29.41993,29.42187 l 28.77929,0 a 15.0015,15.0015 0 0 0 3.82032,-0.51562 l 0,36.34961 c 0,14.52976 12.23478,26.54687 26.66601,26.54687 l 114.34961,0 c 14.43124,0 26.66602,-12.01707 26.66602,-26.54687 l 0,-36.17383 a 15.0015,15.0015 0 0 0 3.08789,0.33984 l 27.38672,0 c 16.0394,0 29.42187,-13.38245 29.42187,-29.42187 l 0,-72.11133 c 0,-16.03943 -13.38065,-29.42188 -29.42187,-29.42188 l -27.44727,0 a 15.0015,15.0015 0 0 0 -1.39844,-0.0781 l -4.95703,0 a 15.0015,15.0015 0 0 0 0.69141,-4.45313 l 0,-43.66992 c 0,-11.1934 -8.91954,-22.11523 -21.40821,-22.11523 l -120.55078,0 z m 8.5918,30 103.36719,0 0,20.78515 -103.36719,0 0,-20.78515 z m -33.91992,70.23828 4.31836,0 a 15.0015,15.0015 0 0 0 1.38281,0.0781 l 9.06836,0 c -17.64513,3.11902 -31.34766,18.49687 -31.34766,37.08399 l 0,33.87109 -13.19922,0 0,-70.95508 28.26563,0 a 15.0015,15.0015 0 0 0 1.51172,-0.0781 z m 165.85351,0 4.31836,0 a 15.0015,15.0015 0 0 0 1.38086,0.0781 l 28.26758,0 0,70.95508 -11.80859,0 0,-33.87109 c 0,-18.58758 -13.70308,-33.96449 -31.34766,-37.08399 l 7.67773,0 a 15.0015,15.0015 0 0 0 1.51172,-0.0781 z m -133.61132,47.83789 107.68164,0 0,85.57617 -107.68164,0 0,-85.57617 z"
         style="color:#252525;font-style:normal;font-variant:normal;font-weight:normal;font-stretch:normal;font-size:medium;line-height:normal;font-family:sans-serif;text-indent:0;text-align:start;text-decoration:none;text-decoration-line:none;text-decoration-style:solid;text-decoration-color:#252525;letter-spacing:normal;word-spacing:normal;text-transform:none;direction:ltr;block-progression:tb;writing-mode:lr-tb;baseline-shift:baseline;text-anchor:start;white-space:normal;clip-rule:nonzero;display:inline;overflow:visible;visibility:visible;opacity:1;isolation:auto;mix-blend-mode:normal;color-interpolation:sRGB;color-interpolation-filters:linearRGB;solid-color:#252525;solid-opacity:1;fill:#ffffff;fill-opacity:1;fill-rule:nonzero;stroke:#4e505d;stroke-width:23;stroke-linecap:round;stroke-linejoin:round;stroke-miterlimit:4;stroke-dasharray:none;stroke-dashoffset:0;stroke-opacity:1;color-rendering:auto;image-rendering:auto;shape-rendering:auto;text-rendering:auto;enable-background:accumulate" />
      <path
         style="opacity:1;fill:#99b000;fill-opacity:1;stroke:#ffffff;stroke-width:50;stroke-linecap:round;stroke-linejoin:round;stroke-miterlimit:4;stroke-dasharray:none;stroke-opacity:1"
         d="m 399.75185,488.21178 c -3.55076,0 -6.40884,3.17364 -6.40884,7.11433 l 0,43.66966 133.36883,0 0,-43.66966 c 0,-3.94069 -2.85807,-7.11433 -6.40884,-7.11433 l -120.55115,0 z m -26.8392,70.23651 0,0.0782 -28.84558,0 c -7.98987,0 -14.42135,6.43293 -14.42135,14.42279 l 0,72.11107 c 0,7.98987 6.43148,14.42134 14.42135,14.42134 l 28.77894,0 0,-48.87032 c 0,-12.4852 10.4226,-22.74676 22.87569,-22.74676 l 128.836,0 c 12.45309,0 22.87713,10.26156 22.87713,22.74676 l 0,48.87032 27.38824,0 c 7.98986,0 14.42135,-6.43147 14.42135,-14.42134 l 0,-72.11107 c 0,-7.98986 -6.43149,-14.42279 -14.42135,-14.42279 l -28.84559,0 0,-0.0782 -7.21139,0 0,0.0782 -158.64204,0 0,-0.0782 -7.2114,0 z m 30.41883,47.83888 c -6.46194,0 -11.66456,5.1497 -11.66456,11.54721 l 0,92.48204 c 0,6.39751 5.20262,11.54722 11.66456,11.54722 l 114.3509,0 c 6.46192,0 11.66456,-5.14971 11.66456,-11.54722 l 0,-92.48204 c 0,-6.39751 -5.20264,-11.54721 -11.66456,-11.54721 l -114.3509,0 z"
         id="path4220"
         inkscape:connector-curvature="0" />
      <path
         inkscape:connector-curvature="0"
         id="rect4188"
         d="m 399.75185,488.21178 c -3.55076,0 -6.40884,3.17364 -6.40884,7.11433 l 0,43.66966 133.36883,0 0,-43.66966 c 0,-3.94069 -2.85807,-7.11433 -6.40884,-7.11433 l -120.55115,0 z m -26.8392,70.23651 0,0.0782 -28.84558,0 c -7.98987,0 -14.42135,6.43293 -14.42135,14.42279 l 0,72.11107 c 0,7.98987 6.43148,14.42134 14.42135,14.42134 l 28.77894,0 0,-48.87032 c 0,-12.4852 10.4226,-22.74676 22.87569,-22.74676 l 128.836,0 c 12.45309,0 22.87713,10.26156 22.87713,22.74676 l 0,48.87032 27.38824,0 c 7.98986,0 14.42135,-6.43147 14.42135,-14.42134 l 0,-72.11107 c 0,-7.98986 -6.43149,-14.42279 -14.42135,-14.42279 l -28.84559,0 0,-0.0782 -7.21139,0 0,0.0782 -158.64204,0 0,-0.0782 -7.2114,0 z m 30.41883,47.83888 c -6.46194,0 -11.66456,5.1497 -11.66456,11.54721 l 0,92.48204 c 0,6.39751 5.20262,11.54722 11.66456,11.54722 l 114.3509,0 c 6.46192,0 11.66456,-5.14971 11.66456,-11.54722 l 0,-92.48204 c 0,-6.39751 -5.20264,-11.54721 -11.66456,-11.54721 l -114.3509,0 z"
         style="opacity:1;fill:#99b000;fill-opacity:1;stroke:none;stroke-width:16;stroke-linecap:round;stroke-linejoin:round;stroke-miterlimit:4;stroke-dasharray:none;stroke-opacity:1" />
      <circle
         r="9.0138435"
         cy="574.67358"
         cx="565.80872"
         id="path4251"
         style="opacity:1;fill:#ffffff;fill-opacity:1;stroke:none;stroke-width:16;stroke-linecap:round;stroke-linejoin:round;stroke-miterlimit:4;stroke-dasharray:none;stroke-opacity:1" />
      <rect
         ry="8.6491079"
         rx="6.4639988"
         y="621.90607"
         x="401.4556"
         height="19.728445"
         width="114.54308"
         id="rect4175-3"
         style="color:#252525;clip-rule:nonzero;display:inline;overflow:visible;visibility:visible;opacity:1;isolation:auto;mix-blend-mode:normal;color-interpolation:sRGB;color-interpolation-filters:linearRGB;solid-color:#252525;solid-opacity:1;fill:#ffffff;fill-opacity:1;fill-rule:nonzero;stroke:none;stroke-width:31.21899986;stroke-linecap:butt;stroke-linejoin:round;stroke-miterlimit:4;stroke-dasharray:none;stroke-dashoffset:60.95800018;stroke-opacity:1;color-rendering:auto;image-rendering:auto;shape-rendering:auto;text-rendering:auto;enable-background:accumulate" />
      <rect
         ry="8.6491079"
         rx="7.793335"
         y="653.47156"
         x="401.4556"
         height="19.728445"
         width="102.58791"
         id="rect4177"
         style="color:#252525;clip-rule:nonzero;display:inline;overflow:visible;visibility:visible;opacity:1;isolation:auto;mix-blend-mode:normal;color-interpolation:sRGB;color-interpolation-filters:linearRGB;solid-color:#252525;solid-opacity:1;fill:#ffffff;fill-opacity:1;fill-rule:nonzero;stroke:none;stroke-width:31.21899986;stroke-linecap:butt;stroke-linejoin:round;stroke-miterlimit:4;stroke-dasharray:none;stroke-dashoffset:60.95800018;stroke-opacity:1;color-rendering:auto;image-rendering:auto;shape-rendering:auto;text-rendering:auto;enable-background:accumulate" />
    </g>
  </g>
</svg>
