<?xml version="1.0" encoding="UTF-8" standalone="no"?>
<!-- Created with Inkscape (http://www.inkscape.org/) -->

<svg
   xmlns:dc="http://purl.org/dc/elements/1.1/"
   xmlns:cc="http://creativecommons.org/ns#"
   xmlns:rdf="http://www.w3.org/1999/02/22-rdf-syntax-ns#"
   xmlns:svg="http://www.w3.org/2000/svg"
   xmlns="http://www.w3.org/2000/svg"
   xmlns:xlink="http://www.w3.org/1999/xlink"
   xmlns:sodipodi="http://sodipodi.sourceforge.net/DTD/sodipodi-0.dtd"
   xmlns:inkscape="http://www.inkscape.org/namespaces/inkscape"
   width="210mm"
   height="297mm"
   viewBox="0 0 744.09448819 1052.3622047"
   id="svg2"
   version="1.1"
   inkscape:version="0.91 r13725"
   inkscape:export-xdpi="3.5999999"
   inkscape:export-ydpi="3.5999999"
   sodipodi:docname="wlan-access-point.svg"
   inkscape:export-filename="D:\Dokumente\Arbeit\RRZE\github\bicons\16x16\devices\wlan-access-point.png">
  <defs
     id="defs4">
    <linearGradient
       id="linearGradient2224">
      <stop
         id="stop2226"
         offset="0"
         style="stop-color:#7c7c7c;stop-opacity:1;" />
      <stop
         id="stop2228"
         offset="1"
         style="stop-color:#b8b8b8;stop-opacity:1;" />
    </linearGradient>
    <linearGradient
       id="linearGradient15218">
      <stop
         id="stop15220"
         offset="0"
         style="stop-color:#eeeeef;stop-opacity:1;" />
      <stop
         id="stop2736"
         offset="0.59928656"
         style="stop-color:#d3d7cf;stop-opacity:1;" />
      <stop
         id="stop2738"
         offset="0.82758623"
         style="stop-color:#ffffff;stop-opacity:1;" />
      <stop
         id="stop15222"
         offset="1"
         style="stop-color:#d3d7cf;stop-opacity:1;" />
    </linearGradient>
    <pattern
       y="0"
       x="0"
       height="6"
       width="6"
       patternUnits="userSpaceOnUse"
       id="EMFhbasepattern" />
    <pattern
       y="0"
       x="0"
       height="6"
       width="6"
       patternUnits="userSpaceOnUse"
       id="EMFhbasepattern-5" />
    <linearGradient
       inkscape:collect="always"
       xlink:href="#linearGradient4167"
       id="linearGradient4297"
       x1="50"
       y1="250.00003"
       x2="325"
       y2="25.000019"
       gradientUnits="userSpaceOnUse" />
    <linearGradient
       inkscape:collect="always"
       id="linearGradient4167">
      <stop
         style="stop-color:#4e505d;stop-opacity:1;"
         offset="0"
         id="stop4169" />
      <stop
         style="stop-color:#7a8597;stop-opacity:1"
         offset="1"
         id="stop4171" />
    </linearGradient>
  </defs>
  <sodipodi:namedview
     id="base"
     pagecolor="#ffffff"
     bordercolor="#666666"
     borderopacity="1.0"
     inkscape:pageopacity="0.0"
     inkscape:pageshadow="2"
     inkscape:zoom="1"
     inkscape:cx="364.47539"
     inkscape:cy="608.10746"
     inkscape:document-units="px"
     inkscape:current-layer="layer1"
     showgrid="false"
     showguides="true"
     inkscape:guide-bbox="true"
     inkscape:window-width="1600"
     inkscape:window-height="837"
     inkscape:window-x="-4"
     inkscape:window-y="-4"
     inkscape:window-maximized="1"
     inkscape:snap-bbox="true"
     inkscape:bbox-nodes="true">
    <sodipodi:guide
       position="560,730.00002"
       orientation="0,1"
       id="guide3338" />
    <sodipodi:guide
       position="560,330.00001"
       orientation="0,1"
       id="guide3340" />
    <sodipodi:guide
       position="190,475.00001"
       orientation="1,0"
       id="guide3344" />
    <sodipodi:guide
       position="590,451.00001"
       orientation="1,0"
       id="guide3346" />
    <inkscape:grid
       type="xygrid"
       id="grid3440" />
    <sodipodi:guide
       position="215,442.00001"
       orientation="1,0"
       id="guide4155" />
    <sodipodi:guide
       position="564.97832,467.39759"
       orientation="1,0"
       id="guide4157" />
  </sodipodi:namedview>
  <metadata
     id="metadata7">
    <rdf:RDF>
      <cc:Work
         rdf:about="">
        <dc:format>image/svg+xml</dc:format>
        <dc:type
           rdf:resource="http://purl.org/dc/dcmitype/StillImage" />
        <dc:title>wlan access point</dc:title>
        <dc:date>June 2015</dc:date>
        <dc:creator>
          <cc:Agent>
            <dc:title>Johannes Hechler</dc:title>
          </cc:Agent>
        </dc:creator>
        <dc:rights>
          <cc:Agent>
            <dc:title>Johannes Hechler</dc:title>
          </cc:Agent>
        </dc:rights>
        <dc:publisher>
          <cc:Agent>
            <dc:title>RRZE</dc:title>
          </cc:Agent>
        </dc:publisher>
        <dc:contributor>
          <cc:Agent>
            <dc:title>Ute Weber, Hendrik Eggers</dc:title>
          </cc:Agent>
        </dc:contributor>
      </cc:Work>
    </rdf:RDF>
  </metadata>
  <g
     inkscape:label="Ebene 1"
     inkscape:groupmode="layer"
     id="layer1">
    <g
       transform="translate(190.041,-329.99996)"
       id="g4299">
      <path
         inkscape:connector-curvature="0"
         id="path4288"
         transform="translate(0,652.36216)"
         d="M 75,0 -0.04101562,225 399.95898,225 350,0 75,0 Z m -75,250 0,25 399.95898,0 0,-25 L 0,250 Z"
         style="fill:url(#linearGradient4297);fill-opacity:1;fill-rule:evenodd;stroke:none;stroke-width:1px;stroke-linecap:butt;stroke-linejoin:miter;stroke-opacity:1" />
      <path
         sodipodi:nodetypes="ccccccc"
         d="m -0.041,952.36216 24.14326,0 0,76.50904 25.85674,0 0,23.491 -50,0 z"
         style="font-style:normal;font-variant:normal;font-weight:bold;font-stretch:normal;font-size:medium;line-height:125%;font-family:sans-serif;-inkscape-font-specification:'sans-serif Bold';letter-spacing:0px;word-spacing:0px;fill:#4e505d;fill-opacity:1;stroke:none;stroke-width:1px;stroke-linecap:butt;stroke-linejoin:miter;stroke-opacity:1"
         id="path4260"
         inkscape:connector-curvature="0" />
      <path
         sodipodi:nodetypes="cccccccccccccc"
         d="m 49.959,952.36216 21.61434,0 15.11246,72.67244 14.99532,-72.67244 21.73149,0 14.99531,72.67244 15.11247,-72.67244 21.43861,0 -20.61856,100.00004 -26.00749,0 -15.87394,-68.02148 -15.69823,68.02148 -26.0075,0 z"
         style="font-style:normal;font-variant:normal;font-weight:bold;font-stretch:normal;font-size:medium;line-height:125%;font-family:sans-serif;-inkscape-font-specification:'sans-serif Bold';letter-spacing:0px;word-spacing:0px;fill:#4e505d;fill-opacity:1;stroke:none;stroke-width:1px;stroke-linecap:butt;stroke-linejoin:miter;stroke-opacity:1"
         id="path4262"
         inkscape:connector-curvature="0" />
      <path
         sodipodi:nodetypes="cccccccccccccc"
         d="m 224.90788,1028.1438 -24.84984,0 -4.55272,24.2184 -20.54632,0 26.5016,-100.00004 21.9968,0 26.5016,100.00004 -22.54633,0 z m -22.24921,-24.5532 19.60065,0 2.69968,-26.22844 -25,0 z"
         style="font-style:normal;font-variant:normal;font-weight:bold;font-stretch:normal;font-size:medium;line-height:125%;font-family:sans-serif;-inkscape-font-specification:'sans-serif Bold';letter-spacing:0px;word-spacing:0px;fill:#4e505d;fill-opacity:1;stroke:none;stroke-width:1px;stroke-linecap:butt;stroke-linejoin:miter;stroke-opacity:1"
         id="path4264"
         inkscape:connector-curvature="0" />
      <path
         sodipodi:nodetypes="cscscsccccccscsssc"
         d="m 249.959,952.36216 38.99512,0 c 11.59479,0 20.48413,2.83545 26.66802,8.50636 6.22457,5.62626 9.33686,13.66376 9.33686,24.11251 0,10.49343 -3.11229,18.57567 -9.33686,24.24657 -6.18389,5.6262 -15.16856,17.9231 -26.66802,16.4393 l -15.5004,0 0,26.6953 -23.49472,0 z m 23.49472,22.68721 0,27.93033 12.99837,0 c 4.55655,0 8.07567,-1.2056 10.55736,-3.61688 2.48169,-2.45591 3.72254,-5.9165 3.72254,-10.38179 0,-4.46527 -1.24085,-7.90353 -3.72254,-10.31479 -2.48169,-2.41125 -6.05381,-4.30981 -10.55736,-3.61687 z"
         style="font-style:normal;font-variant:normal;font-weight:bold;font-stretch:normal;font-size:medium;line-height:125%;font-family:sans-serif;-inkscape-font-specification:'sans-serif Bold';letter-spacing:0px;word-spacing:0px;fill:#4e505d;fill-opacity:1;stroke:none;stroke-width:1px;stroke-linecap:butt;stroke-linejoin:miter;stroke-opacity:1"
         id="path4266"
         inkscape:connector-curvature="0" />
      <path
         sodipodi:nodetypes="cscscsccccccscsssc"
         d="m 324.959,952.36216 38.99511,0 c 11.59479,0 20.48413,2.83545 26.66802,8.50636 6.22458,5.62626 9.33687,13.66376 9.33687,24.11251 0,10.49343 -3.11229,22.57567 -9.33687,28.24657 -6.18389,5.6262 -15.16856,15.9231 -26.66802,14.4393 l -15.5004,0 0,24.6953 -23.49471,0 z m 23.49471,24.68721 0,25.93033 12.99838,0 c 4.55654,0 8.07566,-1.2056 10.55735,-3.61692 2.48169,-2.4559 3.72254,-3.91646 3.72254,-8.38175 0,-4.46527 -1.24085,-7.90353 -3.72254,-10.31479 -2.48169,-2.41125 -6.05381,-2.92393 -10.55735,-3.61687 z"
         style="font-style:normal;font-variant:normal;font-weight:bold;font-stretch:normal;font-size:medium;line-height:125%;font-family:sans-serif;-inkscape-font-specification:'sans-serif Bold';letter-spacing:0px;word-spacing:0px;fill:#4e505d;fill-opacity:1;stroke:none;stroke-width:1px;stroke-linecap:butt;stroke-linejoin:miter;stroke-opacity:1"
         id="path4268"
         inkscape:connector-curvature="0" />
      <rect
         y="652.36218"
         x="-0.041000001"
         height="400.00003"
         width="400"
         id="rect4275"
         style="opacity:1;fill:none;fill-opacity:1;stroke:none;stroke-width:36;stroke-linejoin:round;stroke-miterlimit:4;stroke-dasharray:none;stroke-opacity:1" />
      <path
         sodipodi:nodetypes="cccccccccccccccccccccc"
         inkscape:connector-curvature="0"
         id="path4382"
         d="m 209.64625,677.5447 c -40.59958,0.74818 -81.35605,24.26839 -110.36381,66.1836 -0.40629,9.06783 7.15898,18.89552 12.88955,13.2655 35.04311,-46.26304 85.67574,-65.39353 131.75379,-50.27866 24.71715,7.7612 47.57336,25.67093 66.69969,49.56785 5.51555,7.2434 14.81386,-3.07392 13.51907,-12.81445 -30.29605,-42.55288 -72.52328,-66.87628 -114.49829,-65.92384 z m 2.14286,50.04992 c -26.49465,0.54416 -53.20952,14.92753 -72.51603,41.32813 -0.45196,10.54347 9.60231,20.01911 15.12281,11.27462 33.19893,-37.48092 83.53029,-38.01787 116.80904,-0.43669 3.5483,4.7391 9.10539,5.46167 12.67297,0.37495 3.19072,-3.30956 5.0958,-11.58531 0.69201,-14.6113 -20.12962,-24.61384 -46.39283,-38.45709 -72.7808,-37.92971 z m 0,50 c -12.02913,0.69988 -24.3893,5.72302 -33.68653,16.99218 -0.15144,10.77106 9.48152,19.12065 15.55017,12.01727 9.11899,-6.15353 8.06317,-6.68955 18.13636,-6.00944 -0.66194,1.34836 4.14475,1.9377 7.21089,1.76756 6.1053,0.77369 12.29845,2.09193 17.80756,6.16017 5.69411,1.61919 11.95885,-6.3823 10.96098,-14.93555 -10.46985,-10.56449 -23.21669,-16.49189 -35.97943,-15.99218 z"
         style="opacity:1;fill:#ffffff;fill-opacity:1;stroke:none;stroke-width:36;stroke-linejoin:miter;stroke-miterlimit:4;stroke-dasharray:none;stroke-opacity:1" />
      <ellipse
         ry="12.499996"
         rx="12.500002"
         cy="840.0946"
         cx="211.76675"
         id="path4322"
         style="opacity:1;fill:#ffffff;fill-opacity:1;stroke:none;stroke-width:36;stroke-linejoin:round;stroke-miterlimit:4;stroke-dasharray:none;stroke-opacity:1" />
    </g>
  </g>
</svg>
