<?xml version="1.0" encoding="UTF-8" standalone="no"?>
<!-- Created with Inkscape (http://www.inkscape.org/) -->

<svg
   xmlns:dc="http://purl.org/dc/elements/1.1/"
   xmlns:cc="http://creativecommons.org/ns#"
   xmlns:rdf="http://www.w3.org/1999/02/22-rdf-syntax-ns#"
   xmlns:svg="http://www.w3.org/2000/svg"
   xmlns="http://www.w3.org/2000/svg"
   xmlns:xlink="http://www.w3.org/1999/xlink"
   xmlns:sodipodi="http://sodipodi.sourceforge.net/DTD/sodipodi-0.dtd"
   xmlns:inkscape="http://www.inkscape.org/namespaces/inkscape"
   width="210mm"
   height="297mm"
   viewBox="0 0 744.09448819 1052.3622047"
   id="svg2"
   version="1.1"
   inkscape:version="0.91 r13725"
   inkscape:export-xdpi="4.9500122"
   inkscape:export-ydpi="4.9500122"
   sodipodi:docname="database-account.svg"
   inkscape:export-filename="D:\Dokumente\Arbeit\RRZE\github\bicons\22x22\devices\database-account.png">
  <defs
     id="defs4">
    <inkscape:perspective
       sodipodi:type="inkscape:persp3d"
       inkscape:vp_x="0 : 526.1811 : 1"
       inkscape:vp_y="0 : 1000 : 0"
       inkscape:vp_z="744.09449 : 526.1811 : 1"
       inkscape:persp3d-origin="372.04724 : 350.7874 : 1"
       id="perspective4149" />
    <linearGradient
       id="linearGradient2224">
      <stop
         id="stop2226"
         offset="0"
         style="stop-color:#7c7c7c;stop-opacity:1;" />
      <stop
         id="stop2228"
         offset="1"
         style="stop-color:#b8b8b8;stop-opacity:1;" />
    </linearGradient>
    <linearGradient
       id="linearGradient15218">
      <stop
         id="stop15220"
         offset="0"
         style="stop-color:#eeeeef;stop-opacity:1;" />
      <stop
         id="stop2736"
         offset="0.59928656"
         style="stop-color:#d3d7cf;stop-opacity:1;" />
      <stop
         id="stop2738"
         offset="0.82758623"
         style="stop-color:#ffffff;stop-opacity:1;" />
      <stop
         id="stop15222"
         offset="1"
         style="stop-color:#d3d7cf;stop-opacity:1;" />
    </linearGradient>
    <pattern
       y="0"
       x="0"
       height="6"
       width="6"
       patternUnits="userSpaceOnUse"
       id="EMFhbasepattern" />
    <pattern
       y="0"
       x="0"
       height="6"
       width="6"
       patternUnits="userSpaceOnUse"
       id="EMFhbasepattern-5" />
    <linearGradient
       inkscape:collect="always"
       xlink:href="#linearGradient4153"
       id="linearGradient4159"
       x1="235"
       y1="682.36218"
       x2="525"
       y2="368.36221"
       gradientUnits="userSpaceOnUse"
       gradientTransform="matrix(0.99970712,0,0,0.99970712,233.53399,168.25836)" />
    <linearGradient
       inkscape:collect="always"
       id="linearGradient4153">
      <stop
         style="stop-color:#4e505d;stop-opacity:1;"
         offset="0"
         id="stop4155" />
      <stop
         style="stop-color:#7a8597;stop-opacity:1"
         offset="1"
         id="stop4157" />
    </linearGradient>
    <linearGradient
       inkscape:collect="always"
       xlink:href="#linearGradient4153"
       id="linearGradient4168"
       x1="235"
       y1="682.36218"
       x2="525"
       y2="368.36221"
       gradientUnits="userSpaceOnUse"
       gradientTransform="matrix(0.99970712,0,0,0.99970712,1.4703425,0.27220292)" />
    <linearGradient
       gradientTransform="matrix(0.0549998,0,0,0.05498612,368.00922,481.33367)"
       inkscape:collect="always"
       xlink:href="#linearGradient4269"
       id="linearGradient4275"
       x1="36.360001"
       y1="400"
       x2="381.82147"
       y2="0"
       gradientUnits="userSpaceOnUse" />
    <linearGradient
       inkscape:collect="always"
       id="linearGradient4269">
      <stop
         style="stop-color:#4e505d;stop-opacity:1;"
         offset="0"
         id="stop4271" />
      <stop
         style="stop-color:#7a859c;stop-opacity:1"
         offset="1"
         id="stop4273" />
    </linearGradient>
  </defs>
  <sodipodi:namedview
     id="base"
     pagecolor="#ffffff"
     bordercolor="#666666"
     borderopacity="1.0"
     inkscape:pageopacity="0.0"
     inkscape:pageshadow="2"
     inkscape:zoom="0.7071068"
     inkscape:cx="338.43723"
     inkscape:cy="539.94707"
     inkscape:document-units="px"
     inkscape:current-layer="layer1"
     showgrid="false"
     showguides="true"
     inkscape:guide-bbox="true"
     inkscape:window-width="1600"
     inkscape:window-height="837"
     inkscape:window-x="-4"
     inkscape:window-y="-4"
     inkscape:window-maximized="1"
     inkscape:snap-bbox="true"
     inkscape:bbox-paths="true"
     inkscape:bbox-nodes="true"
     inkscape:snap-nodes="false">
    <sodipodi:guide
       position="560,730.00002"
       orientation="0,1"
       id="guide3338" />
    <sodipodi:guide
       position="560,330.00001"
       orientation="0,1"
       id="guide3340" />
    <sodipodi:guide
       position="190,475.00001"
       orientation="1,0"
       id="guide3344" />
    <sodipodi:guide
       position="590,451.00001"
       orientation="1,0"
       id="guide3346" />
    <inkscape:grid
       type="xygrid"
       id="grid3440" />
  </sodipodi:namedview>
  <metadata
     id="metadata7">
    <rdf:RDF>
      <cc:Work
         rdf:about="">
        <dc:format>image/svg+xml</dc:format>
        <dc:type
           rdf:resource="http://purl.org/dc/dcmitype/StillImage" />
        <dc:title>database account</dc:title>
        <dc:date>June 2015</dc:date>
        <dc:creator>
          <cc:Agent>
            <dc:title>Johannes Hechler</dc:title>
          </cc:Agent>
        </dc:creator>
        <dc:rights>
          <cc:Agent>
            <dc:title>Johannes Hechler</dc:title>
          </cc:Agent>
        </dc:rights>
        <dc:publisher>
          <cc:Agent>
            <dc:title>RRZE</dc:title>
          </cc:Agent>
        </dc:publisher>
        <dc:contributor>
          <cc:Agent>
            <dc:title>Ute Weber, Hendrik Eggers</dc:title>
          </cc:Agent>
        </dc:contributor>
      </cc:Work>
    </rdf:RDF>
  </metadata>
  <g
     inkscape:label="Ebene 1"
     inkscape:groupmode="layer"
     id="layer1">
    <g
       id="g4228"
       transform="matrix(18.181818,0,0,18.181818,-6501.0767,-8429.159)">
      <path
         id="rect4239"
         d="m 379.00922,481.33367 c -5.52295,0 -10.00007,1.56575 -10,3.49805 1.1e-4,1.9323 4.47717,3.5 10,3.5 5.52288,0 9.99991,-1.5677 10,-3.5 -0.004,-0.071 -0.0148,-0.14189 -0.0312,-0.21289 -0.0158,-0.09 -0.0406,-0.18014 -0.0762,-0.26954 -0.68793,-1.72749 -4.9074,-3.01352 -9.8926,-3.01562 z m -10,5.49023 0,3.01758 c 0.0146,1.67771 3.40563,3.07508 7.91602,3.41016 1.27475,-2.33083 3.74942,-3.91797 6.58398,-3.91797 1.82777,0 3.50482,0.66022 4.80859,1.75391 0.43071,-0.39053 0.69139,-0.81027 0.69141,-1.25391 l 0,-3.00977 c -0.0507,0.046 -0.10154,0.0914 -0.1543,0.13477 -0.64252,0.5315 -1.46834,0.94266 -2.44726,1.28516 -1.95785,0.685 -4.54337,1.08007 -7.39844,1.08007 -2.85507,0 -5.44059,-0.39507 -7.39844,-1.08007 -0.97892,-0.3425 -1.80475,-0.75366 -2.44726,-1.28516 -0.0528,-0.044 -0.10363,-0.0884 -0.1543,-0.13477 z m 14.5,4.50977 c -1.7133,0 -3.23733,0.77345 -4.24414,1.99219 0.18609,-8.9e-4 0.37297,-8.8e-4 0.55664,-0.01 0.0583,-0.063 0.11872,-0.12309 0.17969,-0.18359 a 0.9900954,0.98984914 0 0 1 0.002,0 c 0.61066,-0.6008 1.33041,-1.07174 2.13281,-1.39844 a 0.9900954,0.98984914 0 0 1 0.002,-0.002 c 0.46426,-0.18787 0.94363,-0.3159 1.43164,-0.39649 -0.0204,-2.2e-4 -0.0401,-0.002 -0.0606,-0.002 z m -14.5,0.48633 0,3.02929 c 0.0138,1.57844 3.01791,2.90687 7.12891,3.3379 -0.0809,-0.44 -0.12891,-0.89076 -0.12891,-1.35352 0,-0.9264 0.17673,-1.81238 0.48633,-2.63281 -1.84735,-0.16071 -3.5237,-0.48474 -4.88477,-0.96094 -0.97892,-0.3425 -1.80474,-0.75366 -2.44726,-1.28516 -0.0524,-0.043 -0.10397,-0.0893 -0.1543,-0.13476 z m 9.61328,2.48633 c -0.38991,0.75614 -0.61328,1.61401 -0.61328,2.52734 0,0.30905 0.0317,0.60947 0.0801,0.9043 0.004,-0.86147 0.16922,-1.70008 0.49414,-2.48828 0.13389,-0.3248 0.29236,-0.63615 0.47461,-0.93164 -0.0168,0 -0.0339,0.002 -0.0508,0.002 -0.13179,0 -0.25417,-0.012 -0.38477,-0.0137 z m -9.61328,2.52734 0,2.98633 c -3.8e-4,0 -0.002,0.01 -0.002,0.01 1.1e-4,1.9323 4.47717,3.49805 10,3.49805 0.25002,0 0.48508,-0.0191 0.73047,-0.0254 -1.55211,-0.90958 -2.74878,-2.35775 -3.33204,-4.08789 -1.81615,-0.16306 -3.45321,-0.49345 -4.79492,-0.96289 -0.97892,-0.3425 -1.80474,-0.7517 -2.44726,-1.2832 -0.0524,-0.043 -0.10397,-0.0893 -0.1543,-0.13477 z m 15.51172,0.32227 c 1.1e-4,0 0.005,0.0108 -0.0234,0.0508 l -0.002,0 c -0.0512,0.07 -0.12421,0.23203 -0.125,0.58203 0.14532,-0.032 0.2896,-0.0646 0.42969,-0.0996 -0.0132,-0.2764 -0.0768,-0.4082 -0.125,-0.4707 a 0.9900954,0.98984914 0 0 1 -0.01,-0.0117 c -0.0577,-0.077 0.0188,-0.041 -0.0918,-0.041 -0.0482,0 -0.0528,-0.01 -0.0527,-0.01 z"
         style="color:#000000;clip-rule:nonzero;display:inline;overflow:visible;visibility:visible;opacity:1;isolation:auto;mix-blend-mode:normal;color-interpolation:sRGB;color-interpolation-filters:linearRGB;solid-color:#000000;solid-opacity:1;fill:url(#linearGradient4275);fill-opacity:1;fill-rule:nonzero;stroke:none;stroke-width:36;stroke-linecap:butt;stroke-linejoin:round;stroke-miterlimit:4;stroke-dasharray:none;stroke-dashoffset:0;stroke-opacity:1;color-rendering:auto;image-rendering:auto;shape-rendering:auto;text-rendering:auto;enable-background:accumulate"
         inkscape:connector-curvature="0" />
      <path
         id="rect4277"
         d="m 368.00922,481.33367 22,0 c 0,0 0,0 0,0 l 0,21.9944 c 0,0 0,0 0,0 l -22,0 c 0,0 0,0 0,0 l 0,-21.9944 c 0,0 0,0 0,0 z"
         style="color:#000000;clip-rule:nonzero;display:inline;overflow:visible;visibility:visible;opacity:1;isolation:auto;mix-blend-mode:normal;color-interpolation:sRGB;color-interpolation-filters:linearRGB;solid-color:#000000;solid-opacity:1;fill:none;fill-opacity:1;fill-rule:nonzero;stroke:none;stroke-width:36;stroke-linecap:butt;stroke-linejoin:round;stroke-miterlimit:4;stroke-dasharray:none;stroke-dashoffset:0;stroke-opacity:1;color-rendering:auto;image-rendering:auto;shape-rendering:auto;text-rendering:auto;enable-background:accumulate"
         inkscape:connector-curvature="0" />
      <circle
         r="6.5"
         cy="496.83362"
         cx="383.50922"
         id="path4342"
         style="color:#000000;clip-rule:nonzero;display:inline;overflow:visible;visibility:visible;opacity:1;isolation:auto;mix-blend-mode:normal;color-interpolation:sRGB;color-interpolation-filters:linearRGB;solid-color:#000000;solid-opacity:1;fill:#99b000;fill-opacity:1;fill-rule:nonzero;stroke:none;stroke-width:0.30000001;stroke-linecap:butt;stroke-linejoin:round;stroke-miterlimit:4;stroke-dasharray:none;stroke-dashoffset:0;stroke-opacity:1;color-rendering:auto;image-rendering:auto;shape-rendering:auto;text-rendering:auto;enable-background:accumulate" />
      <text
         transform="scale(1.0001244,0.99987562)"
         xml:space="preserve"
         style="font-style:normal;font-weight:normal;font-size:12.65945816px;line-height:125%;font-family:sans-serif;letter-spacing:0px;word-spacing:0px;fill:#ffffff;fill-opacity:1;stroke:none;stroke-width:1px;stroke-linecap:butt;stroke-linejoin:miter;stroke-opacity:1"
         x="377.19766"
         y="500.19562"
         id="text4185"
         sodipodi:linespacing="125%"><tspan
           sodipodi:role="line"
           id="tspan4187"
           x="377.19766"
           y="500.19562"
           style="font-style:normal;font-variant:normal;font-weight:bold;font-stretch:normal;font-family:sans-serif;-inkscape-font-specification:'sans-serif Bold';fill:#ffffff">@</tspan></text>
    </g>
  </g>
</svg>
