<?xml version="1.0" encoding="UTF-8" standalone="no"?>
<!-- Created with Inkscape (http://www.inkscape.org/) -->

<svg
   xmlns:dc="http://purl.org/dc/elements/1.1/"
   xmlns:cc="http://creativecommons.org/ns#"
   xmlns:rdf="http://www.w3.org/1999/02/22-rdf-syntax-ns#"
   xmlns:svg="http://www.w3.org/2000/svg"
   xmlns="http://www.w3.org/2000/svg"
   xmlns:xlink="http://www.w3.org/1999/xlink"
   xmlns:sodipodi="http://sodipodi.sourceforge.net/DTD/sodipodi-0.dtd"
   xmlns:inkscape="http://www.inkscape.org/namespaces/inkscape"
   width="210mm"
   height="297mm"
   viewBox="0 0 744.09448819 1052.3622047"
   id="svg2"
   version="1.1"
   inkscape:version="0.91 r13725"
   inkscape:export-xdpi="4.9499817"
   inkscape:export-ydpi="4.9499817"
   sodipodi:docname="database.svg"
   inkscape:export-filename="C:\Users\johannes\Documents\Arbeit\RRZE\github3\bicons\22x22\devices\database.png">
  <title
     id="title4159">database</title>
  <defs
     id="defs4">
    <inkscape:perspective
       sodipodi:type="inkscape:persp3d"
       inkscape:vp_x="0 : 526.1811 : 1"
       inkscape:vp_y="0 : 1000 : 0"
       inkscape:vp_z="744.09449 : 526.1811 : 1"
       inkscape:persp3d-origin="372.04724 : 350.7874 : 1"
       id="perspective4149" />
    <linearGradient
       id="linearGradient2224">
      <stop
         id="stop2226"
         offset="0"
         style="stop-color:#7c7c7c;stop-opacity:1;" />
      <stop
         id="stop2228"
         offset="1"
         style="stop-color:#b8b8b8;stop-opacity:1;" />
    </linearGradient>
    <linearGradient
       id="linearGradient15218">
      <stop
         id="stop15220"
         offset="0"
         style="stop-color:#eeeeef;stop-opacity:1;" />
      <stop
         id="stop2736"
         offset="0.59928656"
         style="stop-color:#d3d7cf;stop-opacity:1;" />
      <stop
         id="stop2738"
         offset="0.82758623"
         style="stop-color:#ffffff;stop-opacity:1;" />
      <stop
         id="stop15222"
         offset="1"
         style="stop-color:#d3d7cf;stop-opacity:1;" />
    </linearGradient>
    <pattern
       y="0"
       x="0"
       height="6"
       width="6"
       patternUnits="userSpaceOnUse"
       id="EMFhbasepattern" />
    <pattern
       y="0"
       x="0"
       height="6"
       width="6"
       patternUnits="userSpaceOnUse"
       id="EMFhbasepattern-5" />
    <linearGradient
       gradientTransform="translate(189.99853,322.36222)"
       inkscape:collect="always"
       xlink:href="#linearGradient4269"
       id="linearGradient4275"
       x1="36.360001"
       y1="400"
       x2="381.82147"
       y2="0"
       gradientUnits="userSpaceOnUse" />
    <linearGradient
       inkscape:collect="always"
       id="linearGradient4269">
      <stop
         style="stop-color:#4e505d;stop-opacity:1;"
         offset="0"
         id="stop4271" />
      <stop
         style="stop-color:#7a859c;stop-opacity:1"
         offset="1"
         id="stop4273" />
    </linearGradient>
  </defs>
  <sodipodi:namedview
     id="base"
     pagecolor="#ffffff"
     bordercolor="#666666"
     borderopacity="1.0"
     inkscape:pageopacity="0.0"
     inkscape:pageshadow="2"
     inkscape:zoom="0.70710678"
     inkscape:cx="448.28632"
     inkscape:cy="535.2915"
     inkscape:document-units="px"
     inkscape:current-layer="layer1"
     showgrid="false"
     showguides="true"
     inkscape:guide-bbox="true"
     inkscape:window-width="1366"
     inkscape:window-height="721"
     inkscape:window-x="-4"
     inkscape:window-y="-4"
     inkscape:window-maximized="1"
     inkscape:snap-bbox="true"
     inkscape:bbox-nodes="true"
     inkscape:bbox-paths="true">
    <sodipodi:guide
       position="560,730.00002"
       orientation="0,1"
       id="guide3338" />
    <sodipodi:guide
       position="560,330.00001"
       orientation="0,1"
       id="guide3340" />
    <sodipodi:guide
       position="190,475.00001"
       orientation="1,0"
       id="guide3344" />
    <sodipodi:guide
       position="590,451.00001"
       orientation="1,0"
       id="guide3346" />
    <inkscape:grid
       type="xygrid"
       id="grid3440" />
  </sodipodi:namedview>
  <metadata
     id="metadata7">
    <rdf:RDF>
      <cc:Work
         rdf:about="">
        <dc:format>image/svg+xml</dc:format>
        <dc:type
           rdf:resource="http://purl.org/dc/dcmitype/StillImage" />
        <dc:title>database</dc:title>
        <dc:date>June 2015</dc:date>
        <dc:creator>
          <cc:Agent>
            <dc:title>Johannes Hechler</dc:title>
          </cc:Agent>
        </dc:creator>
        <dc:rights>
          <cc:Agent>
            <dc:title>Johannes Hechler</dc:title>
          </cc:Agent>
        </dc:rights>
        <dc:publisher>
          <cc:Agent>
            <dc:title>RRZE</dc:title>
          </cc:Agent>
        </dc:publisher>
        <dc:contributor>
          <cc:Agent>
            <dc:title>Ute Weber, Hendrik Eggers</dc:title>
          </cc:Agent>
        </dc:contributor>
      </cc:Work>
    </rdf:RDF>
  </metadata>
  <g
     inkscape:label="Ebene 1"
     inkscape:groupmode="layer"
     id="layer1">
    <path
       sodipodi:nodetypes="csscccccccccccssssscccccccssssscccscccssssscc"
       inkscape:connector-curvature="0"
       style="color:#000000;clip-rule:nonzero;display:inline;overflow:visible;visibility:visible;opacity:1;isolation:auto;mix-blend-mode:normal;color-interpolation:sRGB;color-interpolation-filters:linearRGB;solid-color:#000000;solid-opacity:1;fill:url(#linearGradient4275);fill-opacity:1;fill-rule:nonzero;stroke:none;stroke-width:36;stroke-linecap:butt;stroke-linejoin:round;stroke-miterlimit:4;stroke-dasharray:none;stroke-dashoffset:0;stroke-opacity:1;color-rendering:auto;image-rendering:auto;shape-rendering:auto;text-rendering:auto;enable-background:accumulate"
       d="m 389.99853,322.36222 c -100.41764,8e-5 -181.82172,28.48871 -181.82031,63.63086 0.002,35.14139 81.40484,63.62883 181.82031,63.62891 100.41625,3e-4 181.82061,-28.48725 181.82228,-63.62891 -0.072,-1.29529 -0.25694,-2.58952 -0.55469,-3.88086 -0.28657,-1.63918 -0.75437,-3.27387 -1.40235,-4.90039 -12.50748,-31.41705 -89.22493,-54.8119 -179.86524,-54.84961 z m -181.82031,99.80469 0,54.91992 c 0.30613,35.06319 81.6083,63.43186 181.80078,63.43555 100.41624,2.9e-4 181.8206,-28.48725 181.82227,-63.62891 l 0,-9.09182 0,9.0918 0,36.17383 c -0.92131,0.84132 -1.8551,1.66913 -2.81445,2.46289 -11.68215,9.66579 -26.69545,17.11687 -44.49414,23.3457 -35.59739,12.45766 -82.60307,19.64844 -134.51367,19.64844 -51.9106,0 -98.91434,-7.19078 -134.51173,-19.64844 -17.79869,-6.22883 -32.81198,-13.67991 -44.49414,-23.3457 -0.95261,-0.78819 -1.87991,-1.61009 -2.79492,-2.44531 l 0,55.08007 c 0.30613,35.06319 81.6083,63.43186 181.80078,63.43555 100.41622,2.9e-4 181.82059,-28.48725 181.82227,-63.6289 0.32276,-4.81344 -4.05323,-8.99045 0,-9.09182 l 0,9.0918 0,36.17382 c -0.92131,0.84132 -1.8551,1.66913 -2.81445,2.46289 -11.68215,9.66579 -26.69545,17.11688 -44.49414,23.34571 -35.59739,12.45766 -82.60307,19.64843 -134.51367,19.64843 -51.9106,0 -98.91434,-7.19077 -134.51173,-19.64843 -17.79869,-6.22883 -32.81198,-13.67992 -44.49414,-23.34571 -0.95261,-0.78818 -1.87991,-1.61008 -2.79492,-2.44531 l 0,54.39258 c -0.007,0.0456 -0.0131,0.0911 -0.0195,0.13672 0.002,35.14138 81.40486,63.62882 181.82031,63.6289 100.41547,-8e-5 181.81864,-28.48752 181.82032,-63.6289 l 0.0215,0 0,-236.52539 c -0.9213,0.84132 -1.85511,1.66913 -2.81446,2.46289 -11.68215,9.66579 -26.69545,17.11687 -44.49414,23.3457 -35.59739,12.4577 -82.60308,19.64848 -134.51368,19.64848 -51.9106,0 -98.91434,-7.19078 -134.51172,-19.64844 -17.79869,-6.22883 -32.81199,-13.67991 -44.49414,-23.3457 -0.95934,-0.79376 -1.89315,-1.62157 -2.81445,-2.46289 z"
       id="rect4239" />
    <path
       inkscape:connector-curvature="0"
       style="color:#000000;clip-rule:nonzero;display:inline;overflow:visible;visibility:visible;opacity:1;isolation:auto;mix-blend-mode:normal;color-interpolation:sRGB;color-interpolation-filters:linearRGB;solid-color:#000000;solid-opacity:1;fill:none;fill-opacity:1;fill-rule:nonzero;stroke:none;stroke-width:36;stroke-linecap:butt;stroke-linejoin:round;stroke-miterlimit:4;stroke-dasharray:none;stroke-dashoffset:0;stroke-opacity:1;color-rendering:auto;image-rendering:auto;shape-rendering:auto;text-rendering:auto;enable-background:accumulate"
       d="m 189.99854,322.3622 400.00146,0 c 0,0 0,0 0,1e-5 l 0,399.99997 c 0,0 0,0 0,0 l -400.00146,0 c -1e-5,0 -1e-5,0 -1e-5,0 l 0,-399.99997 c 0,-1e-5 0,-1e-5 1e-5,-1e-5 z"
       id="rect4277" />
  </g>
</svg>
