<?xml version="1.0" encoding="UTF-8" standalone="no"?>
<!-- Created with Inkscape (http://www.inkscape.org/) -->

<svg
   xmlns:dc="http://purl.org/dc/elements/1.1/"
   xmlns:cc="http://creativecommons.org/ns#"
   xmlns:rdf="http://www.w3.org/1999/02/22-rdf-syntax-ns#"
   xmlns:svg="http://www.w3.org/2000/svg"
   xmlns="http://www.w3.org/2000/svg"
   xmlns:xlink="http://www.w3.org/1999/xlink"
   xmlns:sodipodi="http://sodipodi.sourceforge.net/DTD/sodipodi-0.dtd"
   xmlns:inkscape="http://www.inkscape.org/namespaces/inkscape"
   width="210mm"
   height="297mm"
   viewBox="0 0 744.09448819 1052.3622047"
   id="svg2"
   version="1.1"
   inkscape:version="0.91 r13725"
   inkscape:export-xdpi="4.949976"
   inkscape:export-ydpi="4.949976"
   sodipodi:docname="server-print.svg"
   inkscape:export-filename="D:\Dokumente\Arbeit\RRZE\github\bicons\22x22\devices\server-print.png">
  <defs
     id="defs4">
    <linearGradient
       id="linearGradient2224">
      <stop
         id="stop2226"
         offset="0"
         style="stop-color:#7c7c7c;stop-opacity:1;" />
      <stop
         id="stop2228"
         offset="1"
         style="stop-color:#b8b8b8;stop-opacity:1;" />
    </linearGradient>
    <linearGradient
       id="linearGradient15218">
      <stop
         id="stop15220"
         offset="0"
         style="stop-color:#eeeeef;stop-opacity:1;" />
      <stop
         id="stop2736"
         offset="0.59928656"
         style="stop-color:#d3d7cf;stop-opacity:1;" />
      <stop
         id="stop2738"
         offset="0.82758623"
         style="stop-color:#ffffff;stop-opacity:1;" />
      <stop
         id="stop15222"
         offset="1"
         style="stop-color:#d3d7cf;stop-opacity:1;" />
    </linearGradient>
    <pattern
       y="0"
       x="0"
       height="6"
       width="6"
       patternUnits="userSpaceOnUse"
       id="EMFhbasepattern" />
    <pattern
       y="0"
       x="0"
       height="6"
       width="6"
       patternUnits="userSpaceOnUse"
       id="EMFhbasepattern-5" />
    <pattern
       y="0"
       x="0"
       height="6"
       width="6"
       patternUnits="userSpaceOnUse"
       id="EMFhbasepattern-7" />
    <linearGradient
       inkscape:collect="always"
       xlink:href="#linearGradient4287"
       id="linearGradient4293"
       x1="36.360001"
       y1="400"
       x2="363.59998"
       y2="0.29210579"
       gradientUnits="userSpaceOnUse"
       gradientTransform="translate(132.33922,230.10827)" />
    <linearGradient
       inkscape:collect="always"
       id="linearGradient4287">
      <stop
         style="stop-color:#4e505d;stop-opacity:1;"
         offset="0"
         id="stop4289" />
      <stop
         style="stop-color:#7a859c;stop-opacity:1"
         offset="1"
         id="stop4291" />
    </linearGradient>
  </defs>
  <sodipodi:namedview
     id="base"
     pagecolor="#ffffff"
     bordercolor="#666666"
     borderopacity="1.0"
     inkscape:pageopacity="0.0"
     inkscape:pageshadow="2"
     inkscape:zoom="0.70710678"
     inkscape:cx="437.64814"
     inkscape:cy="494.67452"
     inkscape:document-units="px"
     inkscape:current-layer="layer1"
     showgrid="false"
     showguides="true"
     inkscape:guide-bbox="true"
     inkscape:window-width="1600"
     inkscape:window-height="837"
     inkscape:window-x="-4"
     inkscape:window-y="-4"
     inkscape:window-maximized="1"
     inkscape:snap-bbox="true"
     inkscape:snap-bbox-edge-midpoints="false"
     inkscape:bbox-paths="true"
     inkscape:bbox-nodes="true"
     inkscape:snap-nodes="false">
    <sodipodi:guide
       position="560,730.00002"
       orientation="0,1"
       id="guide3338" />
    <sodipodi:guide
       position="560,330.00001"
       orientation="0,1"
       id="guide3340" />
    <sodipodi:guide
       position="190,475.00001"
       orientation="1,0"
       id="guide3344" />
    <sodipodi:guide
       position="590,451.00001"
       orientation="1,0"
       id="guide3346" />
    <inkscape:grid
       type="xygrid"
       id="grid3440" />
    <sodipodi:guide
       position="-111.01577,704.98548"
       orientation="0,1"
       id="guide4151" />
    <sodipodi:guide
       position="54.25,355.00001"
       orientation="0,1"
       id="guide4153" />
    <sodipodi:guide
       position="215,442.00001"
       orientation="1,0"
       id="guide4155" />
    <sodipodi:guide
       position="564.97832,467.39759"
       orientation="1,0"
       id="guide4157" />
  </sodipodi:namedview>
  <metadata
     id="metadata7">
    <rdf:RDF>
      <cc:Work
         rdf:about="">
        <dc:format>image/svg+xml</dc:format>
        <dc:type
           rdf:resource="http://purl.org/dc/dcmitype/StillImage" />
        <dc:title>server print</dc:title>
        <dc:date>June 2015</dc:date>
        <dc:creator>
          <cc:Agent>
            <dc:title>Johannes Hechler</dc:title>
          </cc:Agent>
        </dc:creator>
        <dc:rights>
          <cc:Agent>
            <dc:title>Johannes Hechler</dc:title>
          </cc:Agent>
        </dc:rights>
        <dc:publisher>
          <cc:Agent>
            <dc:title>RRZE</dc:title>
          </cc:Agent>
        </dc:publisher>
        <dc:contributor>
          <cc:Agent>
            <dc:title>Ute Weber, Hendrik Eggers</dc:title>
          </cc:Agent>
        </dc:contributor>
      </cc:Work>
    </rdf:RDF>
  </metadata>
  <g
     inkscape:label="Ebene 1"
     inkscape:groupmode="layer"
     id="layer1">
    <g
       id="g4202"
       transform="translate(57.658835,92.25395)">
      <path
         id="rect4239"
         d="m 172.3353,230.10827 c -12.08606,0 -21.8164,9.73034 -21.8164,21.81641 l 0,65.44726 c 0,12.08606 9.73034,21.81641 21.8164,21.81641 l 14.54297,0 0,36.35937 -14.54297,0 c -12.08606,0 -21.8164,9.73035 -21.8164,21.81641 l 0,65.44726 c 0,12.08607 9.73034,21.81641 21.8164,21.81641 l 14.54297,0 0,36.35938 -14.53516,0 c -12.09051,0 -21.82422,9.73371 -21.82421,21.82421 l 0,65.47264 c 0,12.0905 9.7337,21.8242 21.82421,21.8242 l 165.17774,0 c -3.17951,-5.3673 -5.02148,-11.5867 -5.02148,-18.1777 l 0,-18.2695 -18.36328,0 c -19.73166,0 -36.1776,-16.44628 -36.17774,-36.17776 l 0,-36.49609 -72.89844,0 0,-36.35938 72.89844,0 c -1.4e-4,-19.73179 16.4461,-36.17773 36.17774,-36.17773 l 18.37109,0 c -0.004,-0.0612 -0.007,-0.12238 -0.01,-0.1836 l 0,-18.17773 0,-18.18164 0,-0.004 c 0,-19.72931 16.44646,-36.17578 36.17578,-36.17578 l 90.90625,0 c 19.72933,0 36.17774,16.44413 36.17774,36.17578 l 0,0.004 0,18.18164 0,18.17773 c -0.002,0.0612 -0.004,0.12241 -0.006,0.1836 l 18.41016,0 0,-51.08594 c 0,-12.08606 -9.73035,-21.81641 -21.81641,-21.81641 l -14.58594,0 0,-36.35937 14.58594,0 c 12.08606,0 21.81641,-9.73035 21.81641,-21.81641 l 0,-65.44726 c 3.7e-4,-12.08607 -9.72998,-21.81641 -21.81604,-21.81641 z m 32.72461,109.08008 254.51953,0 0,36.35937 -254.51953,0 z m 163.3711,72.47265 c 0.007,-0.007 0.0664,0.0369 0.0664,0.24219 l 0,0.004 0,18.18164 0,0.17773 0.17578,0 90.90625,0 0.17774,0 0,-0.17773 0,-18.18164 0,-0.004 c 0,-0.40834 0.23294,-0.17578 -0.17774,-0.17578 l -90.90625,0 c -0.20534,0 -0.24957,-0.059 -0.24218,-0.0664 z m -54.53711,72.72461 c 0.007,-0.007 0.0644,0.0381 0.0644,0.24219 l 145.62109,0 0,0.17969 c 6.3735,0 12.49203,1.13142 18.17969,3.1875 l 0,-3.36719 14.58594,0 c 0.93613,0 1.85533,-0.0644 2.75976,-0.17773 l -180.96874,0 c -0.2042,0 -0.24881,-0.0579 -0.24219,-0.0645 z m 0.0644,36.60157 0,36.49609 c 0,0.40852 -0.23067,0.17773 0.17774,0.17773 l 0.36328,0 0,-18.49414 c 0,-6.35828 1.12069,-12.47928 3.16211,-18.17968 z m 199.78516,17.54492 c 0.002,0.21229 0.0156,0.42195 0.0156,0.63476 l 0,18.49414 0.40235,0 0,-14.84961 c 0,-1.46602 -0.1449,-2.89572 -0.41797,-4.27929 z m -145.3086,0.39062 c 0.007,-0.007 0.0645,0.038 0.0645,0.24219 l 0,72.76562 c 0,0.4084 -0.23071,0.1777 0.17773,0.1777 l 90.9043,0 c 0.40842,0 0.17773,0.2307 0.17773,-0.1777 l 0,-72.76562 c 0,-0.40844 0.2307,-0.17773 -0.17773,-0.17773 l -90.9043,0 c -0.20422,0 -0.24881,-0.0578 -0.24219,-0.0645 z"
         style="fill:url(#linearGradient4293);fill-opacity:1;stroke:none;stroke-width:36;stroke-linejoin:round;stroke-miterlimit:4;stroke-dasharray:none"
         inkscape:connector-curvature="0"
         sodipodi:nodetypes="ssssccssssccsssscscssccccsccccsssscccccssccsscssccccccsccccccccssscccccccscscccsscscccsccscccsssssssscc" />
      <rect
         ry="9.0899944"
         y="284.64835"
         x="186.87921"
         height="18.179989"
         width="72.720001"
         id="rect4253"
         style="fill:#ffffff;fill-opacity:1;stroke:none;stroke-width:36;stroke-linejoin:round;stroke-miterlimit:4;stroke-dasharray:none" />
      <rect
         style="fill:#ffffff;fill-opacity:1;stroke:none;stroke-width:36;stroke-linejoin:round;stroke-miterlimit:4;stroke-dasharray:none"
         id="rect4255"
         width="72.720001"
         height="18.179989"
         x="186.87921"
         y="430.08829"
         ry="9.0899944" />
      <rect
         ry="9.0899944"
         y="575.52826"
         x="186.87921"
         height="18.179989"
         width="72.720001"
         id="rect4257"
         style="fill:#ffffff;fill-opacity:1;stroke:none;stroke-width:36;stroke-linejoin:round;stroke-miterlimit:4;stroke-dasharray:none" />
      <path
         id="rect4259"
         d="m 141.42921,230.10825 381.82149,0 c 5.03585,0 9.08998,4.05414 9.08998,9.08999 l 0,381.81999 c 0,5.0359 -4.05413,9.09 -9.08998,9.09 l -381.82149,0 c -5.03586,0 -9.08999,-4.0541 -9.08999,-9.09 l 0,-381.81999 c 0,-5.03585 4.05413,-9.08999 9.08999,-9.08999 z"
         style="fill:none;fill-opacity:1;stroke:none;stroke-width:36;stroke-linejoin:round;stroke-miterlimit:4;stroke-dasharray:none"
         inkscape:connector-curvature="0" />
      <path
         id="rect4924"
         d="m 368.67319,393.72741 c -10.07001,0 -18.17578,8.10578 -18.17578,18.17578 l 0,0.004 0,18.18164 0,18.17773 18.17578,0 90.90625,0 18.17774,0 0,-18.17773 0,-18.18164 0,-0.004 c 0,-10.07 -8.10774,-18.17578 -18.17774,-18.17578 l -90.90625,0 z m -54.5371,72.72266 c -10.07001,0 -18.17781,8.10772 -18.17774,18.17773 l 0,72.85547 c 7e-5,10.07 8.10772,18.17773 18.17774,18.17773 l 18.36328,0 0,-36.49414 c 0,-19.73068 16.4451,-36.35937 36.17578,-36.35937 l 90.90429,0 c 19.73067,0 36.17969,16.62869 36.17969,36.35937 l 0,36.49414 18.4043,0 c 10.07,0 18.1778,-8.10773 18.17773,-18.17773 l 0,-72.85547 c -7e-5,-10.07001 -8.10773,-18.17773 -18.17773,-18.17773 l -200.02734,0 z m 54.54101,54.53711 c -10.07003,0 -18.17773,8.1077 -18.17773,18.17773 l 0,72.76562 c 0,10.07 8.1077,18.1777 18.17773,18.1777 l 90.9043,0 c 10.07002,0 18.17773,-8.1077 18.17773,-18.1777 l 0,-72.76562 c 0,-10.07003 -8.10771,-18.17773 -18.17773,-18.17773 l -90.9043,0 z"
         style="fill:#99b000;fill-opacity:1;stroke:none;stroke-width:36;stroke-linejoin:round;stroke-miterlimit:4;stroke-dasharray:none"
         inkscape:connector-curvature="0" />
      <rect
         ry="9.0915241"
         y="539.1651"
         x="368.6792"
         height="18.183048"
         width="72.720009"
         id="rect4938"
         style="fill:#ffffff;fill-opacity:1;stroke:none;stroke-width:36;stroke-linejoin:round;stroke-miterlimit:4;stroke-dasharray:none" />
      <rect
         ry="9.0235329"
         y="575.66107"
         x="368.6792"
         height="18.047066"
         width="54.540009"
         id="rect4940"
         style="fill:#ffffff;fill-opacity:1;stroke:none;stroke-width:36;stroke-linejoin:round;stroke-miterlimit:4;stroke-dasharray:none" />
    </g>
  </g>
</svg>
