<?xml version="1.0" encoding="UTF-8" standalone="no"?>
<!-- Created with Inkscape (http://www.inkscape.org/) -->

<svg
   xmlns:dc="http://purl.org/dc/elements/1.1/"
   xmlns:cc="http://creativecommons.org/ns#"
   xmlns:rdf="http://www.w3.org/1999/02/22-rdf-syntax-ns#"
   xmlns:svg="http://www.w3.org/2000/svg"
   xmlns="http://www.w3.org/2000/svg"
   xmlns:xlink="http://www.w3.org/1999/xlink"
   xmlns:sodipodi="http://sodipodi.sourceforge.net/DTD/sodipodi-0.dtd"
   xmlns:inkscape="http://www.inkscape.org/namespaces/inkscape"
   width="210mm"
   height="297mm"
   viewBox="0 0 744.09448819 1052.3622047"
   id="svg2"
   version="1.1"
   inkscape:version="0.91 r13725"
   inkscape:export-xdpi="4.9499702"
   inkscape:export-ydpi="4.9499702"
   sodipodi:docname="server-web-database.svg"
   inkscape:export-filename="D:\Dokumente\Arbeit\RRZE\github\bicons\22x22\devices\server-web-database.png">
  <defs
     id="defs4">
    <linearGradient
       id="linearGradient2224">
      <stop
         id="stop2226"
         offset="0"
         style="stop-color:#7c7c7c;stop-opacity:1;" />
      <stop
         id="stop2228"
         offset="1"
         style="stop-color:#b8b8b8;stop-opacity:1;" />
    </linearGradient>
    <linearGradient
       id="linearGradient15218">
      <stop
         id="stop15220"
         offset="0"
         style="stop-color:#eeeeef;stop-opacity:1;" />
      <stop
         id="stop2736"
         offset="0.59928656"
         style="stop-color:#d3d7cf;stop-opacity:1;" />
      <stop
         id="stop2738"
         offset="0.82758623"
         style="stop-color:#ffffff;stop-opacity:1;" />
      <stop
         id="stop15222"
         offset="1"
         style="stop-color:#d3d7cf;stop-opacity:1;" />
    </linearGradient>
    <pattern
       y="0"
       x="0"
       height="6"
       width="6"
       patternUnits="userSpaceOnUse"
       id="EMFhbasepattern" />
    <pattern
       y="0"
       x="0"
       height="6"
       width="6"
       patternUnits="userSpaceOnUse"
       id="EMFhbasepattern-5" />
    <linearGradient
       inkscape:collect="always"
       xlink:href="#linearGradient4287"
       id="linearGradient4293"
       x1="36.360001"
       y1="400"
       x2="363.59998"
       y2="0.29210579"
       gradientUnits="userSpaceOnUse"
       gradientTransform="translate(-4.7000794e-4,2e-5)" />
    <linearGradient
       inkscape:collect="always"
       id="linearGradient4287">
      <stop
         style="stop-color:#4e505d;stop-opacity:1;"
         offset="0"
         id="stop4289" />
      <stop
         style="stop-color:#7a859c;stop-opacity:1"
         offset="1"
         id="stop4291" />
    </linearGradient>
  </defs>
  <sodipodi:namedview
     id="base"
     pagecolor="#ffffff"
     bordercolor="#666666"
     borderopacity="1.0"
     inkscape:pageopacity="0.0"
     inkscape:pageshadow="2"
     inkscape:zoom="1"
     inkscape:cx="489.6776"
     inkscape:cy="500.40421"
     inkscape:document-units="px"
     inkscape:current-layer="layer1"
     showgrid="false"
     showguides="true"
     inkscape:guide-bbox="true"
     inkscape:window-width="1600"
     inkscape:window-height="837"
     inkscape:window-x="-4"
     inkscape:window-y="-4"
     inkscape:window-maximized="1"
     inkscape:snap-nodes="false"
     inkscape:snap-bbox="true"
     inkscape:bbox-nodes="true">
    <sodipodi:guide
       position="560,730.00002"
       orientation="0,1"
       id="guide3338" />
    <sodipodi:guide
       position="560,330.00001"
       orientation="0,1"
       id="guide3340" />
    <sodipodi:guide
       position="190,475.00001"
       orientation="1,0"
       id="guide3344" />
    <sodipodi:guide
       position="593.00001,570.00001"
       orientation="1,0"
       id="guide3346" />
    <inkscape:grid
       type="xygrid"
       id="grid3440" />
    <sodipodi:guide
       position="-111.01577,704.98548"
       orientation="0,1"
       id="guide4151" />
    <sodipodi:guide
       position="54.25,355.00001"
       orientation="0,1"
       id="guide4153" />
    <sodipodi:guide
       position="215,442.00001"
       orientation="1,0"
       id="guide4155" />
    <sodipodi:guide
       position="564.97832,467.39759"
       orientation="1,0"
       id="guide4157" />
  </sodipodi:namedview>
  <metadata
     id="metadata7">
    <rdf:RDF>
      <cc:Work
         rdf:about="">
        <dc:format>image/svg+xml</dc:format>
        <dc:type
           rdf:resource="http://purl.org/dc/dcmitype/StillImage" />
        <dc:title>server web database</dc:title>
        <dc:date>June 2015</dc:date>
        <dc:creator>
          <cc:Agent>
            <dc:title>Johannes Hechler</dc:title>
          </cc:Agent>
        </dc:creator>
        <dc:rights>
          <cc:Agent>
            <dc:title>Johannes Hechler</dc:title>
          </cc:Agent>
        </dc:rights>
        <dc:publisher>
          <cc:Agent>
            <dc:title>RRZE</dc:title>
          </cc:Agent>
        </dc:publisher>
        <dc:contributor>
          <cc:Agent>
            <dc:title>Ute Weber, Hendrik Eggers</dc:title>
          </cc:Agent>
        </dc:contributor>
      </cc:Work>
    </rdf:RDF>
  </metadata>
  <g
     inkscape:label="Ebene 1"
     inkscape:groupmode="layer"
     id="layer1">
    <g
       id="g4199"
       transform="translate(22.998795,19)">
      <g
         id="g4478"
         transform="translate(169.99926,-348.99994)">
        <path
           style="fill:url(#linearGradient4293);fill-opacity:1;stroke:none;stroke-width:36;stroke-linejoin:round;stroke-miterlimit:4;stroke-dasharray:none"
           d="M 39.996094,0 C 27.910032,0 18.179688,9.7303362 18.179688,21.816406 l 0,65.447266 c 0,12.08606 9.730344,21.816408 21.816406,21.816408 l 14.542968,0 0,36.35937 -14.542968,0 c -12.086064,0 -21.816406,9.73035 -21.816406,21.81641 l 0,60.02539 c 0.03039,-0.0102 0.05943,-0.0211 0.08984,-0.0312 17.410471,-5.80335 39.328638,-8.91019 63.541016,-8.91016 24.211976,1.7e-4 46.128986,3.1068 63.539066,8.91016 3.53525,1.17842 6.88495,2.46015 10.07227,3.90625 20.17111,-50.04911 69.27036,-85.53744 126.38867,-85.53711 39.46482,-2.2e-4 75.09773,16.94608 100.01172,43.92578 l 0,-22.28906 c 0,-12.08606 -9.73035,-21.81641 -21.81641,-21.81641 l -14.58594,0 0,-36.35937 14.58594,0 c 12.08606,0 21.81641,-9.730348 21.81641,-21.816408 l 0,-65.447266 C 381.82227,9.7303363 372.09192,0 360.00586,0 Z m 32.724609,109.08008 254.519527,0 0,36.35937 -254.519527,0 z"
           transform="translate(0,652.36214)"
           id="rect4239"
           inkscape:connector-curvature="0"
           sodipodi:nodetypes="ssssccssccsscccssccsssssccccc" />
        <rect
           style="fill:#ffffff;fill-opacity:1;stroke:none;stroke-width:36;stroke-linejoin:round;stroke-miterlimit:4;stroke-dasharray:none"
           id="rect4253"
           width="72.720001"
           height="18.179989"
           x="54.539532"
           y="706.90222"
           ry="9.0899944" />
        <rect
           style="fill:#ffffff;fill-opacity:1;stroke:none;stroke-width:36;stroke-linejoin:round;stroke-miterlimit:4;stroke-dasharray:none"
           id="rect4257"
           width="72.720001"
           height="18.179989"
           x="54.539532"
           y="997.7821"
           ry="9.0899944" />
        <path
           inkscape:connector-curvature="0"
           style="fill:none;fill-opacity:1;stroke:none;stroke-width:36;stroke-linejoin:round;stroke-miterlimit:4;stroke-dasharray:none"
           d="m 9.0895197,652.36214 381.8214903,0 c 5.03585,0 9.08998,4.05414 9.08998,9.08999 l 0,381.81997 c 0,5.0359 -4.05413,9.09 -9.08998,9.09 l -381.8214903,0 c -5.0358543,0 -9.08998970794,-4.0541 -9.08998970794,-9.09 l 0,-381.81997 c 0,-5.03585 4.05413540794,-9.08999 9.08998970794,-9.08999 z"
           id="rect4259" />
        <path
           style="fill:#4e505d;fill-opacity:1;stroke:none;stroke-width:36;stroke-linejoin:round;stroke-miterlimit:4;stroke-dasharray:none"
           d="m 281.81055,163.61914 a 118.19073,118.19004 0 0 0 -110.86328,77.48242 c 5.66562,5.27269 10.671,12.90607 10.67187,22.50586 6.7e-4,7.2555 -2.96465,13.25926 -6.80664,18.09961 a 18.0018,18.0018 0 0 1 0.42188,0.49219 c 3.54561,4.56995 6.31786,10.819 6.38476,17.59375 a 18.0018,18.0018 0 0 1 0,0.17773 c -3.6e-4,7.25462 -2.96515,13.25626 -6.80664,18.09571 a 18.0018,18.0018 0 0 1 0.42188,0.49218 c 3.54561,4.56995 6.31786,10.819 6.38476,17.59375 a 18.0018,18.0018 0 0 1 0,0.17774 c -1.1e-4,2.30672 -0.30185,4.48644 -0.83398,6.54297 A 118.19073,118.19004 0 0 0 281.81055,400 118.19073,118.19004 0 0 0 400.00195,281.81055 118.19073,118.19004 0 0 0 281.81055,163.61914 Z m 9.07031,18.63672 a 100.01073,99.98996 0 0 1 9.39844,1.32617 c 10.54369,18.07676 17.50218,35.65692 21.55664,52.75586 l -30.95508,0 0,-54.08203 z m -18.18164,0.043 0,54.03906 -30.85742,0 c 4.30392,-17.67263 11.39709,-35.2516 21.46093,-52.74219 a 100.01073,99.98996 0 0 1 9.39649,-1.29687 z m -30.49219,7.80273 c -8.1215,15.3353 -13.93388,30.74785 -17.60351,46.23633 l -31.75977,0 a 100.01073,99.98996 0 0 1 49.36328,-46.23633 z m 79.4668,0.0352 a 100.01073,99.98996 0 0 1 49.21094,46.20117 l -30.49415,0 c -3.67631,-14.87757 -9.72905,-30.24634 -18.71679,-46.20117 z m -135.98828,64.38281 35.58984,0 c -2.35162,18.07806 -1.87799,36.25807 1.11914,54.53711 l -36.77539,0 a 100.01073,99.98996 0 0 1 -3.81836,-27.26758 100.01073,99.98996 0 0 1 3.88477,-27.26953 z m 52.71093,0 34.30274,0 0,54.53711 -33.41211,0 c -2.99615,-18.28065 -3.35531,-36.45768 -0.89063,-54.53711 z m 52.48438,0 34.2207,0 c 2.32258,18.76897 1.31977,36.93747 -1.99218,54.53711 l -32.22852,0 0,-54.53711 z m 52.88867,0 34.23438,0 a 100.01073,99.98996 0 0 1 3.81836,27.26953 100.01073,99.98996 0 0 1 -3.88477,27.26758 l -36.70703,0 c 3.62874,-17.55588 4.90396,-35.66216 2.53906,-54.53711 z m -151.03125,72.7207 33.45508,0 c 3.93095,15.50469 9.60901,31.08071 16.88672,46.72461 a 100.01073,99.98996 0 0 1 -50.3418,-46.72461 z m 50.4043,0 29.55664,0 0,54.08204 a 100.01073,99.98996 0 0 1 -9.2461,-1.3086 c -8.99162,-17.6887 -15.81375,-35.27845 -20.31054,-52.77344 z m 47.73828,0 27.9668,0 c -5.1349,18.36648 -12.51124,36.09012 -20.94922,53.19532 a 100.01073,99.98996 0 0 1 -7.01758,0.85156 l 0,-54.04688 z m 45.74414,0 34.15625,0 a 100.01073,99.98996 0 0 1 -52.85156,47.78321 c 7.2551,-15.6164 13.83516,-31.48589 18.69531,-47.78321 z"
           transform="translate(0,652.36214)"
           id="path4350"
           inkscape:connector-curvature="0" />
        <path
           sodipodi:nodetypes="scscscsssccscccsssccscccsssccscc"
           inkscape:connector-curvature="0"
           style="fill:#99b000;fill-opacity:1;stroke:none;stroke-width:36;stroke-linejoin:round;stroke-miterlimit:4;stroke-dasharray:none"
           d="M 81.810547,236.33984 C 36.628393,236.33978 7.2569821e-4,248.54872 0,263.60938 c -0.00248871,15.06142 36.62612,27.27154 81.810547,27.27148 45.183663,-3e-4 81.811083,-12.21031 81.808593,-27.27148 -7.3e-4,-15.06041 -36.6272,-27.26924 -81.808593,-27.26954 z m 79.203123,54.89258 c -4.78433,2.70403 -9.99257,4.84779 -15.66406,6.73828 -17.41049,5.80348 -39.32648,8.91016 -63.539063,8.91016 -24.212587,0 -46.130527,-3.10668 -63.541016,-8.91016 -5.660647,-1.88687 -10.859888,-4.02599 -15.6367185,-6.72265 -1.71177128,2.19571 -2.59489624,6.45404 -2.62890625,8.72265 7.4224e-4,15.06075 36.62763775,27.26971 81.80859375,27.26953 45.18019,-1.8e-4 81.8059,-12.20904 81.80664,-27.26953 -0.0224,-2.27352 -0.89773,-6.53717 -2.60547,-8.73828 z m 0,36.35938 c -4.78433,2.70403 -9.99257,4.84779 -15.66406,6.73828 -17.41049,5.80348 -39.32648,8.91015 -63.539063,8.91015 -24.212587,0 -46.130527,-3.10667 -63.541016,-8.91015 -5.660647,-1.88687 -10.859888,-4.026 -15.6367185,-6.72266 -1.71177375,2.19571 -2.59489874,6.45405 -2.62890625,8.72266 7.4224e-4,15.06075 36.62763775,27.26971 81.80859375,27.26953 45.18019,-1.8e-4 81.8059,-12.20904 81.80664,-27.26953 -0.0224,-2.27352 -0.89773,-6.53717 -2.60547,-8.73828 z m 0,36.40039 c -4.78433,2.704 -9.99257,4.84778 -15.66406,6.73828 -17.41049,5.8035 -39.32648,8.91015 -63.539063,8.91015 -24.212587,0 -46.130527,-3.10665 -63.541016,-8.91015 -5.660647,-1.8869 -10.859888,-4.02596 -15.6367185,-6.72266 -1.71177375,2.19571 -2.59489874,6.45405 -2.62890625,8.72266 C 0.00464849,387.79122 36.631544,400.00018 81.8125,400 c 45.18019,-1.8e-4 81.8059,-12.20904 81.80664,-27.26953 -0.0224,-2.27352 -0.89773,-6.53717 -2.60547,-8.73828 z"
           transform="translate(0,652.36214)"
           id="ellipse4435" />
      </g>
    </g>
  </g>
</svg>
