<?xml version="1.0" encoding="UTF-8" standalone="no"?>
<!-- Created with Inkscape (http://www.inkscape.org/) -->

<svg
   xmlns:dc="http://purl.org/dc/elements/1.1/"
   xmlns:cc="http://creativecommons.org/ns#"
   xmlns:rdf="http://www.w3.org/1999/02/22-rdf-syntax-ns#"
   xmlns:svg="http://www.w3.org/2000/svg"
   xmlns="http://www.w3.org/2000/svg"
   xmlns:xlink="http://www.w3.org/1999/xlink"
   xmlns:sodipodi="http://sodipodi.sourceforge.net/DTD/sodipodi-0.dtd"
   xmlns:inkscape="http://www.inkscape.org/namespaces/inkscape"
   width="210mm"
   height="297mm"
   viewBox="0 0 744.09448819 1052.3622047"
   id="svg2"
   version="1.1"
   inkscape:version="0.91 r13725"
   inkscape:export-xdpi="4.9499817"
   inkscape:export-ydpi="4.9499817"
   sodipodi:docname="server.svg"
   inkscape:export-filename="D:\Dokumente\Arbeit\RRZE\github\bicons\22x22\devices\server.png">
  <title
     id="title4167">server</title>
  <defs
     id="defs4">
    <linearGradient
       id="linearGradient2224">
      <stop
         id="stop2226"
         offset="0"
         style="stop-color:#7c7c7c;stop-opacity:1;" />
      <stop
         id="stop2228"
         offset="1"
         style="stop-color:#b8b8b8;stop-opacity:1;" />
    </linearGradient>
    <linearGradient
       id="linearGradient15218">
      <stop
         id="stop15220"
         offset="0"
         style="stop-color:#eeeeef;stop-opacity:1;" />
      <stop
         id="stop2736"
         offset="0.59928656"
         style="stop-color:#d3d7cf;stop-opacity:1;" />
      <stop
         id="stop2738"
         offset="0.82758623"
         style="stop-color:#ffffff;stop-opacity:1;" />
      <stop
         id="stop15222"
         offset="1"
         style="stop-color:#d3d7cf;stop-opacity:1;" />
    </linearGradient>
    <pattern
       y="0"
       x="0"
       height="6"
       width="6"
       patternUnits="userSpaceOnUse"
       id="EMFhbasepattern" />
    <pattern
       y="0"
       x="0"
       height="6"
       width="6"
       patternUnits="userSpaceOnUse"
       id="EMFhbasepattern-5" />
    <linearGradient
       inkscape:collect="always"
       xlink:href="#linearGradient4287"
       id="linearGradient4293"
       x1="36.360001"
       y1="400"
       x2="363.59998"
       y2="0.29210579"
       gradientUnits="userSpaceOnUse" />
    <linearGradient
       inkscape:collect="always"
       id="linearGradient4287">
      <stop
         style="stop-color:#4e505d;stop-opacity:1;"
         offset="0"
         id="stop4289" />
      <stop
         style="stop-color:#7a859c;stop-opacity:1"
         offset="1"
         id="stop4291" />
    </linearGradient>
  </defs>
  <sodipodi:namedview
     id="base"
     pagecolor="#ffffff"
     bordercolor="#666666"
     borderopacity="1.0"
     inkscape:pageopacity="0.0"
     inkscape:pageshadow="2"
     inkscape:zoom="0.5"
     inkscape:cx="-26.00073"
     inkscape:cy="530.00001"
     inkscape:document-units="px"
     inkscape:current-layer="layer1"
     showgrid="false"
     showguides="true"
     inkscape:guide-bbox="true"
     inkscape:window-width="1600"
     inkscape:window-height="837"
     inkscape:window-x="-4"
     inkscape:window-y="-4"
     inkscape:window-maximized="1"
     inkscape:snap-bbox="true"
     inkscape:bbox-nodes="true"
     inkscape:bbox-paths="true">
    <sodipodi:guide
       position="560,730.00002"
       orientation="0,1"
       id="guide3338" />
    <sodipodi:guide
       position="560,330.00001"
       orientation="0,1"
       id="guide3340" />
    <sodipodi:guide
       position="190,475.00001"
       orientation="1,0"
       id="guide3344" />
    <sodipodi:guide
       position="590,451.00001"
       orientation="1,0"
       id="guide3346" />
    <inkscape:grid
       type="xygrid"
       id="grid3440" />
    <sodipodi:guide
       position="-111.01577,704.98548"
       orientation="0,1"
       id="guide4151" />
    <sodipodi:guide
       position="54.25,355.00001"
       orientation="0,1"
       id="guide4153" />
  </sodipodi:namedview>
  <metadata
     id="metadata7">
    <rdf:RDF>
      <cc:Work
         rdf:about="">
        <dc:format>image/svg+xml</dc:format>
        <dc:type
           rdf:resource="http://purl.org/dc/dcmitype/StillImage" />
        <dc:title>server</dc:title>
        <dc:date>June 2015</dc:date>
        <dc:creator>
          <cc:Agent>
            <dc:title>Johannes Hechler</dc:title>
          </cc:Agent>
        </dc:creator>
        <dc:rights>
          <cc:Agent>
            <dc:title>Johannes Hechler</dc:title>
          </cc:Agent>
        </dc:rights>
        <dc:publisher>
          <cc:Agent>
            <dc:title>RRZE</dc:title>
          </cc:Agent>
        </dc:publisher>
        <dc:contributor>
          <cc:Agent>
            <dc:title>Ute Weber, Hendrik Eggers</dc:title>
          </cc:Agent>
        </dc:contributor>
      </cc:Work>
    </rdf:RDF>
  </metadata>
  <g
     inkscape:label="Ebene 1"
     inkscape:groupmode="layer"
     id="layer1">
    <g
       transform="translate(189.99854,-329.99994)"
       id="g4295">
      <path
         inkscape:connector-curvature="0"
         id="rect4239"
         transform="translate(0,652.36214)"
         d="M 39.996094,0 C 27.910032,0 18.179688,9.7303444 18.179688,21.816406 l 0,65.447266 c 0,12.086062 9.730344,21.816408 21.816406,21.816408 l 14.542968,0 0,36.35937 -14.542968,0 c -12.086064,0 -21.816406,9.73035 -21.816406,21.81641 l 0,65.44726 c 0,12.08607 9.730342,21.81641 21.816406,21.81641 l 14.542968,0 0,36.35938 -14.535156,0 c -12.090515,0 -21.824218,9.7337 -21.824218,21.82421 l 0,65.47266 C 18.179688,390.2663 27.913391,400 40.003906,400 l 319.994144,0 c 12.09051,0 21.82422,-9.7337 21.82422,-21.82422 l 0,-65.47266 c 0,-12.09051 -9.73371,-21.82421 -21.82422,-21.82421 l -14.57813,0 0,-36.35938 14.58594,0 c 12.08606,0 21.81641,-9.73034 21.81641,-21.81641 l 0,-65.44726 c 0,-12.08606 -9.73035,-21.81641 -21.81641,-21.81641 l -14.58594,0 0,-36.35937 14.58594,0 c 12.08606,0 21.81641,-9.730346 21.81641,-21.816408 l 0,-65.447266 C 381.82227,9.7303444 372.09192,0 360.00586,0 L 39.996094,0 Z m 32.724609,109.08008 254.519527,0 0,36.35937 -254.519527,0 0,-36.35937 z m 0,145.43945 254.519527,0 0,36.35938 -254.519527,0 0,-36.35938 z"
         style="fill:url(#linearGradient4293);fill-opacity:1;stroke:none;stroke-width:36;stroke-linejoin:round;stroke-miterlimit:4;stroke-dasharray:none" />
      <rect
         ry="9.0899944"
         y="706.90222"
         x="54.540001"
         height="18.179989"
         width="72.720001"
         id="rect4253"
         style="fill:#ffffff;fill-opacity:1;stroke:none;stroke-width:36;stroke-linejoin:round;stroke-miterlimit:4;stroke-dasharray:none" />
      <rect
         style="fill:#ffffff;fill-opacity:1;stroke:none;stroke-width:36;stroke-linejoin:round;stroke-miterlimit:4;stroke-dasharray:none"
         id="rect4255"
         width="72.720001"
         height="18.179989"
         x="54.540001"
         y="852.34216"
         ry="9.0899944" />
      <rect
         ry="9.0899944"
         y="997.7821"
         x="54.540001"
         height="18.179989"
         width="72.720001"
         id="rect4257"
         style="fill:#ffffff;fill-opacity:1;stroke:none;stroke-width:36;stroke-linejoin:round;stroke-miterlimit:4;stroke-dasharray:none" />
      <path
         id="rect4259"
         d="m 9.0899897,652.36212 381.8214903,0 c 5.03585,0 9.08998,4.05414 9.08998,9.08999 l 0,381.81999 c 0,5.0359 -4.05413,9.09 -9.08998,9.09 l -381.8214903,0 C 4.0541354,1052.3621 0,1048.308 0,1043.2721 L 0,661.45211 c 0,-5.03585 4.0541354,-9.08999 9.0899897,-9.08999 z"
         style="fill:none;fill-opacity:1;stroke:none;stroke-width:36;stroke-linejoin:round;stroke-miterlimit:4;stroke-dasharray:none"
         inkscape:connector-curvature="0" />
    </g>
  </g>
</svg>
