<?xml version="1.0" encoding="UTF-8" standalone="no"?>
<!-- Created with Inkscape (http://www.inkscape.org/) -->

<svg
   xmlns:dc="http://purl.org/dc/elements/1.1/"
   xmlns:cc="http://creativecommons.org/ns#"
   xmlns:rdf="http://www.w3.org/1999/02/22-rdf-syntax-ns#"
   xmlns:svg="http://www.w3.org/2000/svg"
   xmlns="http://www.w3.org/2000/svg"
   xmlns:xlink="http://www.w3.org/1999/xlink"
   xmlns:sodipodi="http://sodipodi.sourceforge.net/DTD/sodipodi-0.dtd"
   xmlns:inkscape="http://www.inkscape.org/namespaces/inkscape"
   width="210mm"
   height="297mm"
   viewBox="0 0 744.09448819 1052.3622047"
   id="svg2"
   version="1.1"
   inkscape:version="0.91 r13725"
   inkscape:export-xdpi="4.9499817"
   inkscape:export-ydpi="4.9499817"
   sodipodi:docname="server-blades.svg"
   inkscape:export-filename="D:\Dokumente\Arbeit\RRZE\github\bicons\22x22\devices\server-blades.png">
  <defs
     id="defs4">
    <linearGradient
       id="linearGradient2224">
      <stop
         id="stop2226"
         offset="0"
         style="stop-color:#7c7c7c;stop-opacity:1;" />
      <stop
         id="stop2228"
         offset="1"
         style="stop-color:#b8b8b8;stop-opacity:1;" />
    </linearGradient>
    <linearGradient
       id="linearGradient15218">
      <stop
         id="stop15220"
         offset="0"
         style="stop-color:#eeeeef;stop-opacity:1;" />
      <stop
         id="stop2736"
         offset="0.59928656"
         style="stop-color:#d3d7cf;stop-opacity:1;" />
      <stop
         id="stop2738"
         offset="0.82758623"
         style="stop-color:#ffffff;stop-opacity:1;" />
      <stop
         id="stop15222"
         offset="1"
         style="stop-color:#d3d7cf;stop-opacity:1;" />
    </linearGradient>
    <pattern
       y="0"
       x="0"
       height="6"
       width="6"
       patternUnits="userSpaceOnUse"
       id="EMFhbasepattern" />
    <pattern
       y="0"
       x="0"
       height="6"
       width="6"
       patternUnits="userSpaceOnUse"
       id="EMFhbasepattern-5" />
    <linearGradient
       inkscape:collect="always"
       xlink:href="#linearGradient4542"
       id="linearGradient4548"
       x1="36.360001"
       y1="400"
       x2="327.23999"
       y2="18.179979"
       gradientUnits="userSpaceOnUse" />
    <linearGradient
       inkscape:collect="always"
       id="linearGradient4542">
      <stop
         style="stop-color:#4e505d;stop-opacity:1;"
         offset="0"
         id="stop4544" />
      <stop
         style="stop-color:#7a859c;stop-opacity:1"
         offset="1"
         id="stop4546" />
    </linearGradient>
  </defs>
  <sodipodi:namedview
     id="base"
     pagecolor="#ffffff"
     bordercolor="#666666"
     borderopacity="1.0"
     inkscape:pageopacity="0.0"
     inkscape:pageshadow="2"
     inkscape:zoom="0.5"
     inkscape:cx="-132.85094"
     inkscape:cy="361.89299"
     inkscape:document-units="px"
     inkscape:current-layer="layer1"
     showgrid="false"
     showguides="true"
     inkscape:guide-bbox="true"
     inkscape:window-width="1600"
     inkscape:window-height="837"
     inkscape:window-x="-4"
     inkscape:window-y="-4"
     inkscape:window-maximized="1"
     inkscape:snap-bbox="true"
     inkscape:bbox-nodes="true"
     inkscape:snap-nodes="false">
    <sodipodi:guide
       position="560,730.00002"
       orientation="0,1"
       id="guide3338" />
    <sodipodi:guide
       position="560,330.00001"
       orientation="0,1"
       id="guide3340" />
    <sodipodi:guide
       position="190,475.00001"
       orientation="1,0"
       id="guide3344" />
    <sodipodi:guide
       position="590,451.00001"
       orientation="1,0"
       id="guide3346" />
    <inkscape:grid
       type="xygrid"
       id="grid3440" />
    <sodipodi:guide
       position="215,442.00001"
       orientation="1,0"
       id="guide4155" />
    <sodipodi:guide
       position="564.97832,467.39759"
       orientation="1,0"
       id="guide4157" />
  </sodipodi:namedview>
  <metadata
     id="metadata7">
    <rdf:RDF>
      <cc:Work
         rdf:about="">
        <dc:format>image/svg+xml</dc:format>
        <dc:type
           rdf:resource="http://purl.org/dc/dcmitype/StillImage" />
        <dc:title>server blades</dc:title>
        <dc:date>June 2015</dc:date>
        <dc:creator>
          <cc:Agent>
            <dc:title>Johannes Hechler</dc:title>
          </cc:Agent>
        </dc:creator>
        <dc:rights>
          <cc:Agent>
            <dc:title>Johannes Hechler</dc:title>
          </cc:Agent>
        </dc:rights>
        <dc:publisher>
          <cc:Agent>
            <dc:title>RRZE</dc:title>
          </cc:Agent>
        </dc:publisher>
        <dc:contributor>
          <cc:Agent>
            <dc:title>Ute Weber, Hendrik Eggers</dc:title>
          </cc:Agent>
        </dc:contributor>
      </cc:Work>
    </rdf:RDF>
  </metadata>
  <g
     inkscape:label="Ebene 1"
     inkscape:groupmode="layer"
     id="layer1">
    <g
       transform="translate(189.99854,-329.99992)"
       id="g4550">
      <path
         inkscape:connector-curvature="0"
         id="rect4494"
         transform="translate(0,652.36214)"
         d="m 27.269531,0 c -5.035854,0 -9.089843,4.0539895 -9.089843,9.0898438 l 0,381.8203162 c 0,5.03585 4.053989,9.08984 9.089843,9.08984 l 54.541016,0 c 5.035854,0 9.089844,-4.05399 9.089844,-9.08984 l 0,-27.31055 18.179689,0 0,27.31055 c 0,5.03585 4.05399,9.08984 9.08984,9.08984 l 54.54102,0 c 5.03585,0 9.08984,-4.05399 9.08984,-9.08984 l 0,-27.31055 18.17969,0 0,27.31055 c 0,5.03585 4.05399,9.08984 9.08984,9.08984 l 54.53907,0 c 5.03585,0 9.08984,-4.05399 9.08984,-9.08984 l 0,-27.31055 18.18164,0 0,27.31055 c 0,5.03585 4.05399,9.08984 9.08984,9.08984 l 54.53907,0 c 5.03585,0 9.08984,-4.05399 9.08984,-9.08984 l 0,-381.8203162 C 363.59961,4.0539895 359.54562,0 354.50977,0 L 299.9707,0 c -5.03585,0 -9.08984,4.0539895 -9.08984,9.0898438 l 0,27.2695312 -18.18164,0 0,-27.2695312 C 272.69922,4.0539895 268.64523,0 263.60938,0 l -54.53907,0 c -5.03585,0 -9.08984,4.0539895 -9.08984,9.0898438 l 0,27.2695312 -18.17969,0 0,-27.2695312 C 181.80078,4.0539895 177.74679,0 172.71094,0 l -54.54102,0 c -5.03585,0 -9.08984,4.0539895 -9.08984,9.0898438 l 0,27.2695312 -18.179689,0 0,-27.2695312 C 90.900391,4.0539895 86.846401,0 81.810547,0 L 27.269531,0 Z m 63.63086,54.539062 18.179689,0 0,291.013668 -18.179689,0 0,-291.013668 z m 90.900389,0 18.17969,0 0,291.013668 -18.17969,0 0,-291.013668 z m 90.89844,0 18.18164,0 0,291.013668 -18.18164,0 0,-291.013668 z"
         style="opacity:1;fill:url(#linearGradient4548);fill-opacity:1;stroke:none;stroke-width:35;stroke-linejoin:round;stroke-miterlimit:4;stroke-dasharray:none;stroke-opacity:1" />
      <rect
         ry="9.02353"
         y="943.242"
         x="54.540001"
         height="72.719971"
         width="18.18"
         id="rect4506"
         style="opacity:1;fill:#ffffff;fill-opacity:1;stroke:none;stroke-width:35;stroke-linejoin:round;stroke-miterlimit:4;stroke-dasharray:none;stroke-opacity:1" />
      <rect
         style="opacity:1;fill:#ffffff;fill-opacity:1;stroke:none;stroke-width:35;stroke-linejoin:round;stroke-miterlimit:4;stroke-dasharray:none;stroke-opacity:1"
         id="rect4508"
         width="18.18"
         height="72.719971"
         x="145.44"
         y="943.242"
         ry="9.02353" />
      <rect
         ry="9.02353"
         y="943.242"
         x="236.34"
         height="72.719971"
         width="18.18"
         id="rect4510"
         style="opacity:1;fill:#ffffff;fill-opacity:1;stroke:none;stroke-width:35;stroke-linejoin:round;stroke-miterlimit:4;stroke-dasharray:none;stroke-opacity:1" />
      <rect
         style="opacity:1;fill:#ffffff;fill-opacity:1;stroke:none;stroke-width:35;stroke-linejoin:round;stroke-miterlimit:4;stroke-dasharray:none;stroke-opacity:1"
         id="rect4512"
         width="18.18"
         height="72.719971"
         x="327.23999"
         y="943.242"
         ry="9.02353" />
      <path
         id="rect4514"
         d="m 9.02353,652.36212 381.9544,0 c 4.99904,0 9.02353,4.0245 9.02353,9.02353 l 0,381.95295 c 0,4.999 -4.02449,9.0235 -9.02353,9.0235 l -381.9544,0 C 4.0244944,1052.3621 0,1048.3376 0,1043.3386 L 0,661.38565 c 0,-4.99903 4.0244944,-9.02353 9.02353,-9.02353 z"
         style="opacity:1;fill:none;fill-opacity:1;stroke:none;stroke-width:35;stroke-linejoin:round;stroke-miterlimit:4;stroke-dasharray:none;stroke-opacity:1"
         inkscape:connector-curvature="0" />
    </g>
  </g>
</svg>
