<?xml version="1.0" encoding="UTF-8" standalone="no"?>
<!-- Created with Inkscape (http://www.inkscape.org/) -->

<svg
   xmlns:dc="http://purl.org/dc/elements/1.1/"
   xmlns:cc="http://creativecommons.org/ns#"
   xmlns:rdf="http://www.w3.org/1999/02/22-rdf-syntax-ns#"
   xmlns:svg="http://www.w3.org/2000/svg"
   xmlns="http://www.w3.org/2000/svg"
   xmlns:xlink="http://www.w3.org/1999/xlink"
   xmlns:sodipodi="http://sodipodi.sourceforge.net/DTD/sodipodi-0.dtd"
   xmlns:inkscape="http://www.inkscape.org/namespaces/inkscape"
   width="210mm"
   height="297mm"
   viewBox="0 0 744.09448819 1052.3622047"
   id="svg2"
   version="1.1"
   inkscape:version="0.91 r13725"
   inkscape:export-xdpi="4"
   inkscape:export-ydpi="4"
   sodipodi:docname="server-accounting.svg">
  <defs
     id="defs4">
    <linearGradient
       inkscape:collect="always"
       id="linearGradient4199">
      <stop
         style="stop-color:#4e505d;stop-opacity:1;"
         offset="0"
         id="stop4201" />
      <stop
         style="stop-color:#7a8597;stop-opacity:1"
         offset="1"
         id="stop4203" />
    </linearGradient>
    <linearGradient
       id="linearGradient2224">
      <stop
         id="stop2226"
         offset="0"
         style="stop-color:#7c7c7c;stop-opacity:1;" />
      <stop
         id="stop2228"
         offset="1"
         style="stop-color:#b8b8b8;stop-opacity:1;" />
    </linearGradient>
    <linearGradient
       id="linearGradient15218">
      <stop
         id="stop15220"
         offset="0"
         style="stop-color:#eeeeef;stop-opacity:1;" />
      <stop
         id="stop2736"
         offset="0.59928656"
         style="stop-color:#d3d7cf;stop-opacity:1;" />
      <stop
         id="stop2738"
         offset="0.82758623"
         style="stop-color:#ffffff;stop-opacity:1;" />
      <stop
         id="stop15222"
         offset="1"
         style="stop-color:#d3d7cf;stop-opacity:1;" />
    </linearGradient>
    <pattern
       y="0"
       x="0"
       height="6"
       width="6"
       patternUnits="userSpaceOnUse"
       id="EMFhbasepattern" />
    <pattern
       y="0"
       x="0"
       height="6"
       width="6"
       patternUnits="userSpaceOnUse"
       id="EMFhbasepattern-5" />
    <linearGradient
       inkscape:collect="always"
       xlink:href="#linearGradient4199"
       id="linearGradient4205"
       x1="321"
       y1="571.36218"
       x2="509"
       y2="480.36221"
       gradientUnits="userSpaceOnUse"
       gradientTransform="translate(0,-30)" />
  </defs>
  <sodipodi:namedview
     id="base"
     pagecolor="#ffffff"
     bordercolor="#666666"
     borderopacity="1.0"
     inkscape:pageopacity="0.0"
     inkscape:pageshadow="2"
     inkscape:zoom="0.70710678"
     inkscape:cx="176.42957"
     inkscape:cy="514.90699"
     inkscape:document-units="px"
     inkscape:current-layer="layer1"
     showgrid="false"
     showguides="true"
     inkscape:guide-bbox="true"
     inkscape:window-width="1366"
     inkscape:window-height="721"
     inkscape:window-x="-4"
     inkscape:window-y="-4"
     inkscape:window-maximized="1">
    <sodipodi:guide
       position="560,730.00002"
       orientation="0,1"
       id="guide3338" />
    <sodipodi:guide
       position="560,330.00001"
       orientation="0,1"
       id="guide3340" />
    <sodipodi:guide
       position="190,475.00001"
       orientation="1,0"
       id="guide3344" />
    <sodipodi:guide
       position="590,451.00001"
       orientation="1,0"
       id="guide3346" />
    <inkscape:grid
       type="xygrid"
       id="grid3440" />
    <sodipodi:guide
       position="-111.01577,704.98548"
       orientation="0,1"
       id="guide4151" />
    <sodipodi:guide
       position="54.25,355.00001"
       orientation="0,1"
       id="guide4153" />
    <sodipodi:guide
       position="215,442.00001"
       orientation="1,0"
       id="guide4155" />
    <sodipodi:guide
       position="564.97832,467.39759"
       orientation="1,0"
       id="guide4157" />
  </sodipodi:namedview>
  <metadata
     id="metadata7">
    <rdf:RDF>
      <cc:Work
         rdf:about="">
        <dc:format>image/svg+xml</dc:format>
        <dc:type
           rdf:resource="http://purl.org/dc/dcmitype/StillImage" />
        <dc:title>server accounting</dc:title>
        <dc:date>June 2015</dc:date>
        <dc:creator>
          <cc:Agent>
            <dc:title>Johannes Hechler</dc:title>
          </cc:Agent>
        </dc:creator>
        <dc:rights>
          <cc:Agent>
            <dc:title>Johannes Hechler</dc:title>
          </cc:Agent>
        </dc:rights>
        <dc:publisher>
          <cc:Agent>
            <dc:title>RRZE</dc:title>
          </cc:Agent>
        </dc:publisher>
        <dc:contributor>
          <cc:Agent>
            <dc:title>Ute Weber, Hendrik Eggers</dc:title>
          </cc:Agent>
        </dc:contributor>
      </cc:Work>
    </rdf:RDF>
  </metadata>
  <g
     inkscape:label="Ebene 1"
     inkscape:groupmode="layer"
     id="layer1">
    <g
       id="g4220"
       transform="translate(0,-56)">
      <path
         id="rect4153"
         d="m 242.91862,447.21523 c -6.51959,0 -11.76826,5.24867 -11.76826,11.76826 l 0,11.76826 -15.91014,0 0,47.19255 15.91014,0 0,11.64875 c 0,6.51961 5.24867,11.76825 11.76826,11.76825 l 294.20649,0 c 6.51959,0 11.76826,-5.24864 11.76826,-11.76825 l 0,-11.64875 16.34684,0 0,-47.19255 -16.34684,0 0,-11.76826 c 0,-6.51959 -5.24867,-11.76826 -11.76826,-11.76826 l -294.20649,0 z"
         style="color:#252525;clip-rule:nonzero;display:inline;overflow:visible;visibility:visible;opacity:1;isolation:auto;mix-blend-mode:normal;color-interpolation:sRGB;color-interpolation-filters:linearRGB;solid-color:#252525;solid-opacity:1;fill:url(#linearGradient4205);fill-opacity:1;fill-rule:nonzero;stroke:none;stroke-width:30;stroke-linecap:butt;stroke-linejoin:round;stroke-miterlimit:4;stroke-dasharray:none;stroke-dashoffset:60.95968628;stroke-opacity:1;color-rendering:auto;image-rendering:auto;shape-rendering:auto;text-rendering:auto;enable-background:accumulate"
         inkscape:connector-curvature="0" />
      <circle
         r="11.768259"
         cy="506.05853"
         cx="513.58856"
         id="path4159"
         style="color:#252525;clip-rule:nonzero;display:inline;overflow:visible;visibility:visible;opacity:1;isolation:auto;mix-blend-mode:normal;color-interpolation:sRGB;color-interpolation-filters:linearRGB;solid-color:#252525;solid-opacity:1;fill:#99b000;fill-opacity:1;fill-rule:nonzero;stroke:none;stroke-width:30;stroke-linecap:butt;stroke-linejoin:round;stroke-miterlimit:4;stroke-dasharray:none;stroke-dashoffset:60.95968628;stroke-opacity:1;color-rendering:auto;image-rendering:auto;shape-rendering:auto;text-rendering:auto;enable-background:accumulate" />
      <circle
         r="11.768259"
         cy="506.05853"
         cx="478.28381"
         id="path4163"
         style="color:#252525;clip-rule:nonzero;display:inline;overflow:visible;visibility:visible;opacity:1;isolation:auto;mix-blend-mode:normal;color-interpolation:sRGB;color-interpolation-filters:linearRGB;solid-color:#252525;solid-opacity:1;fill:#ffffff;fill-opacity:1;fill-rule:nonzero;stroke:none;stroke-width:30;stroke-linecap:butt;stroke-linejoin:round;stroke-miterlimit:4;stroke-dasharray:none;stroke-dashoffset:60.95968628;stroke-opacity:1;color-rendering:auto;image-rendering:auto;shape-rendering:auto;text-rendering:auto;enable-background:accumulate" />
      <rect
         ry="5.8841295"
         y="458.98557"
         x="242.91862"
         height="70.609558"
         width="11.768259"
         id="rect4165"
         style="color:#252525;clip-rule:nonzero;display:inline;overflow:visible;visibility:visible;opacity:1;isolation:auto;mix-blend-mode:normal;color-interpolation:sRGB;color-interpolation-filters:linearRGB;solid-color:#252525;solid-opacity:1;fill:#ffffff;fill-opacity:1;fill-rule:nonzero;stroke:none;stroke-width:30;stroke-linecap:butt;stroke-linejoin:round;stroke-miterlimit:4;stroke-dasharray:none;stroke-dashoffset:60.95968628;stroke-opacity:1;color-rendering:auto;image-rendering:auto;shape-rendering:auto;text-rendering:auto;enable-background:accumulate" />
      <rect
         ry="5.8841295"
         y="458.98557"
         x="266.45514"
         height="70.609558"
         width="11.768259"
         id="rect4167"
         style="color:#252525;clip-rule:nonzero;display:inline;overflow:visible;visibility:visible;opacity:1;isolation:auto;mix-blend-mode:normal;color-interpolation:sRGB;color-interpolation-filters:linearRGB;solid-color:#252525;solid-opacity:1;fill:#ffffff;fill-opacity:1;fill-rule:nonzero;stroke:none;stroke-width:30;stroke-linecap:butt;stroke-linejoin:round;stroke-miterlimit:4;stroke-dasharray:none;stroke-dashoffset:60.95968628;stroke-opacity:1;color-rendering:auto;image-rendering:auto;shape-rendering:auto;text-rendering:auto;enable-background:accumulate" />
      <rect
         ry="5.8841295"
         y="458.98557"
         x="289.99167"
         height="70.609558"
         width="11.768259"
         id="rect4169"
         style="color:#252525;clip-rule:nonzero;display:inline;overflow:visible;visibility:visible;opacity:1;isolation:auto;mix-blend-mode:normal;color-interpolation:sRGB;color-interpolation-filters:linearRGB;solid-color:#252525;solid-opacity:1;fill:#ffffff;fill-opacity:1;fill-rule:nonzero;stroke:none;stroke-width:30;stroke-linecap:butt;stroke-linejoin:round;stroke-miterlimit:4;stroke-dasharray:none;stroke-dashoffset:60.95968628;stroke-opacity:1;color-rendering:auto;image-rendering:auto;shape-rendering:auto;text-rendering:auto;enable-background:accumulate" />
      <rect
         ry="5.8841295"
         y="458.98557"
         x="313.52817"
         height="70.609558"
         width="11.768259"
         id="rect4173"
         style="color:#252525;clip-rule:nonzero;display:inline;overflow:visible;visibility:visible;opacity:1;isolation:auto;mix-blend-mode:normal;color-interpolation:sRGB;color-interpolation-filters:linearRGB;solid-color:#252525;solid-opacity:1;fill:#ffffff;fill-opacity:1;fill-rule:nonzero;stroke:none;stroke-width:30;stroke-linecap:butt;stroke-linejoin:round;stroke-miterlimit:4;stroke-dasharray:none;stroke-dashoffset:60.95968628;stroke-opacity:1;color-rendering:auto;image-rendering:auto;shape-rendering:auto;text-rendering:auto;enable-background:accumulate" />
      <rect
         ry="5.8841295"
         y="458.98557"
         x="337.0647"
         height="70.609558"
         width="11.768259"
         id="rect4175"
         style="color:#252525;clip-rule:nonzero;display:inline;overflow:visible;visibility:visible;opacity:1;isolation:auto;mix-blend-mode:normal;color-interpolation:sRGB;color-interpolation-filters:linearRGB;solid-color:#252525;solid-opacity:1;fill:#ffffff;fill-opacity:1;fill-rule:nonzero;stroke:none;stroke-width:30;stroke-linecap:butt;stroke-linejoin:round;stroke-miterlimit:4;stroke-dasharray:none;stroke-dashoffset:60.95968628;stroke-opacity:1;color-rendering:auto;image-rendering:auto;shape-rendering:auto;text-rendering:auto;enable-background:accumulate" />
    </g>
    <rect
       style="opacity:1;fill:none;fill-opacity:1;stroke:none;stroke-width:23;stroke-linecap:butt;stroke-linejoin:round;stroke-miterlimit:4;stroke-dasharray:none;stroke-opacity:1"
       id="rect4160"
       width="400"
       height="400"
       x="190"
       y="322.36221" />
    <g
       id="g4185"
       transform="translate(-4.9497475,-26.162951)">
      <path
         sodipodi:nodetypes="cscscscscssscccscccscccscccsssscccscssscccccsssccccccsssccccsssc"
         inkscape:connector-curvature="0"
         id="path4380"
         d="m 321.02076,486.94084 c -4.70195,4.41161 -7.71003,10.6115 -7.71003,17.45888 0,6.46122 2.66171,12.36997 6.91036,16.72404 -3.20743,4.09025 -5.21158,9.15099 -5.21158,14.66795 0,4.54221 1.37266,8.77759 3.62375,12.43029 -4.70195,4.41162 -7.71004,10.61152 -7.71004,17.45888 0,10.17323 6.58037,18.95128 15.63765,22.42409 -0.79535,2.36877 -1.33279,4.84979 -1.33279,7.46221 0,2.69453 0.55963,5.25384 1.40339,7.68698 -8.01347,3.93536 -13.66655,12.13605 -13.66655,21.55092 0,13.13866 10.92374,24.05946 24.06091,24.05947 l 117.064,0 c 1.30807,0 2.55236,-0.13717 3.75777,-0.33141 3.15887,0.39243 6.33247,0.65038 9.51687,0.6772 0.0312,1.3e-4 0.0625,1.3e-4 0.0937,0 45.36842,2.1e-4 82.4541,-36.80181 82.45459,-81.9935 3.9e-4,-41.15269 -30.78308,-75.25088 -70.53868,-81.03534 -4.65669,-5.38803 -148.72117,-5.76189 -158.35332,0.75934 z m 16.34799,15.52957 117.06545,0 c 0.71534,0 1.15557,0.27368 1.5201,0.73916 2.2296,2.84653 5.70916,4.42438 9.31949,4.22604 0.7465,-0.0411 1.49444,-0.0657 2.24197,-0.0792 33.45804,0.0309 60.26567,26.72589 60.26535,59.86047 -3.5e-4,33.13411 -26.80781,59.82815 -60.26535,59.85904 -2.82979,-0.0255 -5.65541,-0.24523 -8.45352,-0.66423 -1.48655,-0.22281 -3.0029,-0.14044 -4.45657,0.24206 -0.25104,0.0661 -0.40317,0.0792 -0.51584,0.0792 l -117.064,0 c -1.26066,0 -1.92932,-0.66868 -1.92932,-1.92788 0,-1.2592 0.67011,-1.92931 1.92932,-1.92931 l 74.95779,0 c 9.56096,-0.002 14.62024,-11.31013 8.25036,-18.4401 -0.0204,-0.0228 -0.0402,-0.0463 -0.0605,-0.0691 -0.50486,-0.67497 -1.00114,-1.35636 -1.47688,-2.05178 -2.06268,-3.01513 -5.48044,-4.81809 -9.13361,-4.81823 l -60.27544,0 c -1.25923,0 -1.92787,-0.66861 -1.92787,-1.92931 0,-1.26068 0.66718,-1.92788 1.92787,-1.92788 l 48.56702,0 c 7.2049,-10e-4 12.48776,-6.77694 10.73152,-13.76452 -0.20524,-0.8162 -0.38722,-1.63843 -0.55761,-2.46243 -0.002,-0.0135 -0.003,-0.0269 -0.005,-0.0404 -0.66056,-5.56861 -5.38178,-9.76305 -10.98943,-9.76326 l -62.05346,0 c -1.26071,0 -1.92644,-0.66569 -1.92644,-1.92787 0,-1.26217 0.66721,-1.9293 1.92644,-1.9293 l 62.62403,0 c 5.10333,-5.3e-4 9.54459,-3.49069 10.7517,-8.44921 0.12516,-0.51437 0.25737,-1.0279 0.39623,-1.53882 0.0284,-0.10335 0.0553,-0.2071 0.0807,-0.31123 0.14096,-0.58534 0.29084,-1.16833 0.44953,-1.7492 1.9225,-7.04058 -3.37697,-13.98162 -10.67531,-13.9821 l -59.53773,0 c -1.25923,0 -1.92931,-0.6701 -1.92931,-1.9293 0,-1.2592 0.66715,-1.92644 1.92931,-1.92644 l 72.80947,0 c 3.34059,-1.8e-4 6.50234,-1.50931 8.60338,-4.10645 1.28561,-1.5895 2.65234,-3.11315 4.09491,-4.56464 6.93547,-6.98125 1.9923,-18.86409 -7.84836,-18.8666 l -79.36105,0 c -1.2607,0 -1.92643,-0.6657 -1.92643,-1.92787 0,-1.26216 0.66721,-1.92931 1.92643,-1.92931 z"
         style="color:#252525;font-style:normal;font-variant:normal;font-weight:normal;font-stretch:normal;font-size:medium;line-height:normal;font-family:sans-serif;text-indent:0;text-align:start;text-decoration:none;text-decoration-line:none;text-decoration-style:solid;text-decoration-color:#252525;letter-spacing:normal;word-spacing:normal;text-transform:none;direction:ltr;block-progression:tb;writing-mode:lr-tb;baseline-shift:baseline;text-anchor:start;white-space:normal;clip-rule:nonzero;display:inline;overflow:visible;visibility:visible;opacity:1;isolation:auto;mix-blend-mode:normal;color-interpolation:sRGB;color-interpolation-filters:linearRGB;solid-color:#252525;solid-opacity:1;fill:#ffffff;fill-opacity:1;fill-rule:nonzero;stroke:#4e505d;stroke-width:16.96755219;stroke-linecap:square;stroke-linejoin:round;stroke-miterlimit:4.0999999;stroke-dasharray:none;stroke-dashoffset:0;stroke-opacity:1;color-rendering:auto;image-rendering:auto;shape-rendering:auto;text-rendering:auto;enable-background:accumulate" />
      <g
         style="stroke:#ffffff;stroke-width:50;stroke-linejoin:round;stroke-miterlimit:4.0999999;stroke-dasharray:none"
         id="g4275"
         transform="matrix(0.5411325,0,0,0.5411325,143.48906,219.94613)">
        <g
           style="fill:#99b000;stroke:#ffffff;stroke-width:50;stroke-linejoin:round;stroke-miterlimit:4.0999999;stroke-dasharray:none"
           transform="matrix(2.9414382,0,0,2.9414382,-926.5398,-1331.2756)"
           id="g4277">
          <path
             sodipodi:nodetypes="sssssssssssssssssssssssssssssssssss"
             inkscape:connector-curvature="0"
             id="path4279"
             transform="matrix(0.33996975,0,0,0.33996975,362.66334,481.06943)"
             d="m 218.07422,417.88867 c -13.30345,0 -24.01172,10.71023 -24.01172,24.01367 0,13.30345 10.70827,24.01368 24.01172,24.01368 l 216.33398,0 c 13.30345,0 24.01368,-10.71023 24.01368,-24.01368 0,-13.30344 -10.71023,-24.01367 -24.01368,-24.01367 z m 3.14258,58.01563 c -13.30345,0 -24.01368,10.7083 -24.01368,24.01172 0,13.30344 10.71023,24.01367 24.01368,24.01367 l 216.33203,0 c 13.30345,0 24.01367,-10.71023 24.01367,-24.01367 0,-13.30342 -10.71022,-24.01172 -24.01367,-24.01172 z m -7.55469,55.23047 c -13.30345,0 -24.01172,10.71022 -24.01172,24.01367 0,13.30345 10.70827,24.01367 24.01172,24.01367 l 216.33398,0 c 13.30345,0 24.01368,-10.71022 24.01368,-24.01367 0,-13.30345 -10.71023,-24.01367 -24.01368,-24.01367 z m 26.4375,55.23046 c -13.30345,0 -24.01367,10.71026 -24.01367,24.01368 0,13.30344 10.71022,24.01367 24.01367,24.01367 l 216.33203,0 c 13.30345,0 24.01367,-10.71023 24.01367,-24.01367 0,-13.30342 -10.71022,-24.01368 -24.01367,-24.01368 z m -22.66016,54.0293 c -13.30342,0 -24.01367,10.71022 -24.01367,24.01367 0,13.30345 10.71025,24.01368 24.01367,24.01368 l 216.33203,0 c 13.30345,0 24.01368,-10.71023 24.01368,-24.01368 0,-13.30345 -10.71023,-24.01367 -24.01368,-24.01367 z"
             style="opacity:1;fill:#99b000;fill-opacity:1;stroke:#ffffff;stroke-width:50;stroke-linecap:square;stroke-linejoin:round;stroke-miterlimit:4.0999999;stroke-dasharray:none;stroke-opacity:1" />
        </g>
        <ellipse
           ry="131.07414"
           rx="131.92421"
           cy="641.74774"
           cx="598.68726"
           id="ellipse4281"
           style="font-style:normal;font-weight:normal;font-size:medium;line-height:125%;font-family:sans-serif;letter-spacing:0px;word-spacing:0px;opacity:1;fill:#99b000;fill-opacity:1;stroke:#ffffff;stroke-width:50;stroke-linecap:square;stroke-linejoin:round;stroke-miterlimit:4.0999999;stroke-dasharray:none;stroke-opacity:1" />
        <ellipse
           style="font-style:normal;font-weight:normal;font-size:medium;line-height:125%;font-family:sans-serif;letter-spacing:0px;word-spacing:0px;opacity:1;fill:#99b000;fill-opacity:1;stroke:#ffffff;stroke-width:50;stroke-linecap:square;stroke-linejoin:round;stroke-miterlimit:4.0999999;stroke-dasharray:none;stroke-opacity:1"
           id="ellipse4283"
           cx="598.68726"
           cy="641.74774"
           rx="131.92421"
           ry="131.07414" />
        <path
           d="m 571.19028,726.60166 c -8.22377,0 -15.25378,-1.37061 -21.08999,-4.11187 -5.83623,-2.82971 -10.61129,-6.49945 -14.32526,-11.00925 -3.71396,-4.59823 -6.45523,-9.77126 -8.22376,-15.51902 -1.68014,-5.83622 -2.52021,-11.71665 -2.52021,-17.64132 l 0,-2.38751 c 0.0883,-0.79584 0.17685,-1.59172 0.26543,-2.38756 -0.88429,0.0883 -1.85699,0.17685 -2.91812,0.26543 l -3.05075,0 c -1.85696,0 -3.53708,-0.30937 -5.04035,-0.92848 -1.50325,-0.619 -2.82967,-1.45906 -3.97926,-2.52019 -1.14954,-1.06113 -2.03383,-2.25487 -2.65284,-3.58129 -0.61899,-1.32642 -0.92847,-2.74129 -0.92847,-4.24454 0,-2.56439 0.84006,-4.73087 2.52019,-6.49942 1.76855,-1.76855 4.42139,-2.65284 7.95848,-2.65284 1.23796,0 2.2991,0.0443 3.18339,0.13254 0.97271,0 1.90118,0.0886 2.78547,0.26543 0.8843,0.0883 1.81278,0.22113 2.78546,0.39794 0.97271,0.17683 1.21878,0.20307 2.54517,0.37997 0.2293,-1.37718 0.19046,-2.2902 0.68823,-5.22686 0.49778,-2.93667 0.35757,-6.44552 0.59218,-10.05192 0.13664,-2.09748 0.66354,-4.32284 1.2976,-6.19119 l -7.16264,0 -2.78546,0 c -1.68012,0 -3.2276,-0.0443 -4.64244,-0.13254 -1.32642,-0.0883 -2.476,-0.30938 -3.44868,-0.66319 -0.97271,-0.44216 -1.72435,-1.10535 -2.2549,-1.98961 -0.53059,-0.88429 -0.79587,-2.12226 -0.79587,-3.71397 0,-0.619 0.0886,-1.41484 0.26542,-2.38755 0.17684,-0.97271 0.48646,-1.98961 0.92849,-3.05074 0.53058,-1.06113 1.238,-2.07806 2.12226,-3.05077 0.88429,-1.06113 2.07806,-1.85697 3.58131,-2.38755 l 25.06922,-1.19378 c 3.44868,-5.1288 7.20687,-10.30179 11.27452,-15.51902 4.06767,-5.21722 8.17957,-10.12497 12.33567,-14.72319 4.15609,-4.68667 8.22374,-8.84277 12.203,-12.46829 3.97924,-3.71396 7.60477,-6.58786 10.87657,-8.6217 l 1.32642,-0.79584 1.32642,-0.79584 c 3.00654,-1.857 6.10151,-3.75819 9.28489,-5.70357 3.27184,-1.94542 6.58787,-3.66978 9.9481,-5.17304 3.36025,-1.5917 6.72051,-2.8739 10.08073,-3.84657 3.44868,-1.06113 6.85317,-1.59171 10.21338,-1.59171 3.71398,0 7.16265,0.75165 10.34603,2.2549 3.27184,1.50325 6.14574,3.5371 8.62171,6.10152 2.47597,2.47596 4.42136,5.43828 5.83623,8.88696 1.41484,3.36025 2.12225,6.94158 2.12225,10.74396 0,3.97923 -0.53058,6.72048 -1.59171,8.22374 -1.06112,1.50326 -2.74122,2.2549 -5.04035,2.2549 -1.76854,0 -3.13919,-0.39794 -4.1119,-1.19377 -0.97271,-0.88426 -1.76855,-1.94539 -2.38755,-3.18338 -0.53054,-1.23797 -0.97271,-2.56439 -1.32642,-3.97923 -0.35371,-1.41484 -0.84002,-2.74126 -1.45903,-3.97926 -0.53058,-1.23797 -1.238,-2.2549 -2.12226,-3.05074 -0.88428,-0.88429 -2.12225,-1.32642 -3.71396,-1.32642 -3.62552,0 -7.47213,0.75165 -11.53981,2.2549 -4.06767,1.50327 -8.22376,3.5371 -12.46827,6.10152 -4.24456,2.47596 -8.48907,5.34983 -12.73359,8.62167 -4.15609,3.18339 -8.17954,6.54365 -12.07034,10.08074 -3.89081,3.44867 -7.51636,6.89735 -10.87661,10.34603 -3.36023,3.36025 -6.27835,6.45522 -8.75433,9.28489 l 23.47751,0 c 3.27184,0 5.92465,0.75166 7.95849,2.25491 2.12228,1.50326 3.18342,3.31603 3.18342,5.43828 0,1.59172 -0.39795,2.87391 -1.19378,3.84662 -0.70742,0.97271 -1.68013,1.72436 -2.91813,2.2549 -1.23797,0.53055 -2.6528,0.92848 -4.24451,1.19378 -1.50326,0.26543 -3.09497,0.48635 -4.7751,0.66319 -1.5917,0.17683 -3.75816,0.39803 -6.49942,0.66322 -2.65283,0.26544 -5.57096,0.57478 -8.75434,0.92849 -3.18339,0.26542 -6.54362,0.53058 -10.08075,0.79583 -3.44867,0.26543 -6.7647,0.53059 -9.94808,0.79588 -2.03385,3.36023 -1.98536,7.15474 -2.5568,10.96629 -0.57146,3.81158 -0.7669,6.46384 -1.13795,10.17781 4.42138,-0.53055 9.44827,-1.29211 12.63166,-1.64582 3.18338,-0.44216 5.92464,-0.79587 8.22377,-1.06117 2.38755,-0.26542 4.37716,-0.44213 5.96887,-0.53054 1.6801,-0.17684 3.18338,-0.26542 4.5098,-0.26542 5.3941,0 9.24068,0.39793 11.5398,1.19377 2.29913,0.70741 3.44868,2.21068 3.44868,4.5098 0,1.59171 -0.44213,3.00655 -1.32642,4.24451 -0.88429,1.14959 -2.07806,2.1223 -3.58132,2.91814 -1.41484,0.79583 -3.05074,1.45906 -4.90774,1.98961 -1.76855,0.53055 -3.5371,0.92848 -5.30564,1.19377 -1.50326,0.26542 -3.5371,0.619 -6.10151,1.06113 -2.47598,0.35371 -5.21723,0.75164 -8.22377,1.19377 -3.00655,0.44213 -6.14572,0.88426 -9.41752,1.32642 -3.27184,0.44213 -6.411,0.84007 -9.41754,1.19377 -0.0883,0.97271 -0.17684,1.98961 -0.26543,3.05075 l 0,3.05077 c 0,3.62551 0.39794,7.07419 1.19377,10.346 0.79584,3.27183 2.12226,6.14574 3.97926,8.6217 1.85697,2.38755 4.33294,4.28874 7.4279,5.70358 3.09496,1.41484 6.98577,2.12225 11.67244,2.12225 5.92465,0 11.89352,-0.70741 17.90658,-2.12225 6.10151,-1.50326 12.203,-3.49291 18.30451,-5.96887 6.10152,-2.47597 12.20299,-5.34987 18.30451,-8.62167 6.10151,-3.36026 12.1588,-6.94158 18.17187,-10.74397 l 2.91812,0 c 1.14955,0 2.25491,0.30938 3.31603,0.92848 1.06113,0.53059 1.98961,1.28224 2.78545,2.25491 0.79583,0.88429 1.41484,1.90119 1.857,3.05077 0.53055,1.14955 0.79583,2.29909 0.79583,3.44868 0,2.65281 -1.37064,5.52671 -4.11189,8.62167 -2.74126,3.00655 -6.411,6.01307 -11.00922,9.01961 -4.50981,3.00655 -9.72704,5.88045 -15.65168,8.62171 -5.92464,2.74125 -12.07034,5.17299 -18.43715,7.29525 -6.27835,2.12225 -12.5567,3.80239 -18.83506,5.04039 -6.27835,1.23797 -12.02616,1.85696 -17.24337,1.85696 z"
           style="font-style:normal;font-variant:normal;font-weight:normal;font-stretch:normal;font-size:medium;line-height:125%;font-family:'MV Boli';-inkscape-font-specification:'MV Boli';letter-spacing:0px;word-spacing:0px;fill:#ffffff;fill-opacity:1;stroke:#ffffff;stroke-width:50;stroke-linecap:butt;stroke-linejoin:round;stroke-miterlimit:4.0999999;stroke-dasharray:none;stroke-opacity:1"
           id="path4285"
           inkscape:connector-curvature="0"
           sodipodi:nodetypes="ccccscccssscscscccczsccsccsssccccsccccccccscccssscccccsscccccscscscccccczccccscscccccssccsscsscsccscccsccscscc" />
      </g>
      <path
         sodipodi:nodetypes="sssssssssssssssssssssssssssssssssss"
         style="opacity:1;fill:#99b000;fill-opacity:1;stroke:none;stroke-width:16;stroke-linecap:square;stroke-linejoin:round;stroke-miterlimit:4;stroke-dasharray:none;stroke-opacity:1"
         d="m 337.36938,491.40474 c -7.19893,0 -12.99352,5.79565 -12.99352,12.99458 0,7.19893 5.79459,12.99458 12.99352,12.99458 l 117.06535,0 c 7.19892,0 12.99458,-5.79565 12.99458,-12.99458 0,-7.19893 -5.79566,-12.99458 -12.99458,-12.99458 z m 1.70055,31.39414 c -7.19893,0 -12.99458,5.79461 -12.99458,12.99353 0,7.19892 5.79565,12.99457 12.99458,12.99457 l 117.06429,0 c 7.19893,0 12.99458,-5.79565 12.99458,-12.99457 0,-7.19892 -5.79565,-12.99353 -12.99458,-12.99353 z m -4.08809,29.88701 c -7.19893,0 -12.99352,5.79564 -12.99352,12.99457 0,7.19893 5.79459,12.99458 12.99352,12.99458 l 117.06535,0 c 7.19893,0 12.99458,-5.79565 12.99458,-12.99458 0,-7.19893 -5.79565,-12.99457 -12.99458,-12.99457 z m 14.30619,29.88699 c -7.19893,0 -12.99458,5.79567 -12.99458,12.99459 0,7.19892 5.79565,12.99457 12.99458,12.99457 l 117.06429,0 c 7.19893,0 12.99458,-5.79565 12.99458,-12.99457 0,-7.19892 -5.79565,-12.99459 -12.99458,-12.99459 z m -12.26215,29.23701 c -7.19891,0 -12.99457,5.79565 -12.99457,12.99458 0,7.19893 5.79566,12.99458 12.99457,12.99458 l 117.0643,0 c 7.19892,0 12.99458,-5.79565 12.99458,-12.99458 0,-7.19893 -5.79566,-12.99458 -12.99458,-12.99458 z"
         id="rect4171"
         inkscape:connector-curvature="0" />
      <ellipse
         ry="70.928482"
         rx="71.388481"
         cy="567.21667"
         cx="467.45819"
         id="ellipse4198"
         style="font-style:normal;font-weight:normal;font-size:medium;line-height:125%;font-family:sans-serif;letter-spacing:0px;word-spacing:0px;opacity:1;fill:#99b000;fill-opacity:1;stroke:#ffffff;stroke-width:50;stroke-linecap:square;stroke-linejoin:round;stroke-miterlimit:4;stroke-dasharray:none;stroke-opacity:1" />
      <ellipse
         style="font-style:normal;font-weight:normal;font-size:medium;line-height:125%;font-family:sans-serif;letter-spacing:0px;word-spacing:0px;opacity:1;fill:#99b000;fill-opacity:1;stroke:none;stroke-width:16;stroke-linecap:square;stroke-linejoin:round;stroke-miterlimit:4;stroke-dasharray:none;stroke-opacity:1"
         id="path4169"
         cx="467.45819"
         cy="567.21667"
         rx="71.388481"
         ry="70.928482" />
      <path
         d="m 452.57868,613.1339 c -4.45015,0 -8.25431,-0.74168 -11.41247,-2.22506 -3.15818,-1.53125 -5.74212,-3.51707 -7.75187,-5.95747 -2.00974,-2.48825 -3.49313,-5.28754 -4.45014,-8.39784 -0.90918,-3.15817 -1.36377,-6.34026 -1.36377,-9.54629 l 0,-1.29196 c 0.0478,-0.43066 0.0957,-0.86134 0.14363,-1.29199 -0.47852,0.0478 -1.00487,0.0957 -1.57909,0.14363 l -1.65086,0 c -1.00486,0 -1.91403,-0.16741 -2.72749,-0.50243 -0.81346,-0.33496 -1.53123,-0.78954 -2.15331,-1.36375 -0.62205,-0.57422 -1.10057,-1.22019 -1.43554,-1.93796 -0.33495,-0.71777 -0.50242,-1.4834 -0.50242,-2.29686 0,-1.38767 0.45458,-2.56002 1.36375,-3.51704 0.95702,-0.95702 2.39256,-1.43554 4.30659,-1.43554 0.66991,0 1.24412,0.024 1.72264,0.0717 0.52637,0 1.02879,0.048 1.50731,0.14363 0.47852,0.0478 0.98095,0.11966 1.5073,0.21534 0.52637,0.0957 0.65952,0.10989 1.37728,0.20562 0.12408,-0.74524 0.10306,-1.23931 0.37242,-2.82843 0.26936,-1.58913 0.19349,-3.48788 0.32045,-5.43942 0.0739,-1.13501 0.35906,-2.33923 0.70217,-3.35025 l -3.87594,0 -1.5073,0 c -0.90917,0 -1.74656,-0.024 -2.51217,-0.0717 -0.71777,-0.0478 -1.33985,-0.16742 -1.8662,-0.35888 -0.52636,-0.23927 -0.9331,-0.59814 -1.2202,-1.07664 -0.28712,-0.47852 -0.43067,-1.14842 -0.43067,-2.00975 0,-0.33496 0.048,-0.76562 0.14363,-1.29198 0.0957,-0.52637 0.26324,-1.07664 0.50244,-1.65086 0.28711,-0.57421 0.66992,-1.1245 1.14842,-1.65087 0.47852,-0.57421 1.12451,-1.00486 1.93796,-1.29198 l 13.56577,-0.64599 c 1.8662,-2.77536 3.89987,-5.57463 6.10101,-8.39785 2.20115,-2.8232 4.42623,-5.47895 6.67523,-7.96719 2.249,-2.53611 4.45014,-4.78511 6.60344,-6.747 2.1533,-2.00974 4.11519,-3.56491 5.88567,-4.66548 l 0.71777,-0.43066 0.71777,-0.43065 c 1.62693,-1.00489 3.30172,-2.03368 5.02435,-3.08639 1.7705,-1.05273 3.56491,-1.98584 5.38324,-2.7993 1.81834,-0.86132 3.63669,-1.55516 5.45501,-2.0815 1.8662,-0.57422 3.70848,-0.86133 5.5268,-0.86133 2.00975,0 3.87594,0.40674 5.59857,1.2202 1.7705,0.81346 3.32566,1.91404 4.66549,3.30173 1.33982,1.33982 2.39254,2.94283 3.15817,4.80902 0.76562,1.81834 1.14842,3.75632 1.14842,5.81391 0,2.15329 -0.28712,3.63667 -0.86133,4.45013 -0.5742,0.81347 -1.48336,1.2202 -2.7275,1.2202 -0.95701,0 -1.69871,-0.21534 -2.22508,-0.64599 -0.52636,-0.4785 -0.95702,-1.05271 -1.29198,-1.72263 -0.28709,-0.6699 -0.52636,-1.38767 -0.71777,-2.15329 -0.1914,-0.76561 -0.45456,-1.48338 -0.78953,-2.1533 -0.28711,-0.66991 -0.66992,-1.2202 -1.14842,-1.65086 -0.47851,-0.47852 -1.14842,-0.71777 -2.00974,-0.71777 -1.96189,0 -4.04342,0.40675 -6.24457,1.2202 -2.20115,0.81347 -4.45014,1.91404 -6.74699,3.30173 -2.29687,1.33983 -4.59371,2.89497 -6.89056,4.66547 -2.24899,1.72264 -4.42621,3.54098 -6.53165,5.45502 -2.10544,1.86618 -4.06735,3.73238 -5.88569,5.59857 -1.81833,1.81834 -3.39742,3.49313 -4.73725,5.02435 l 12.70444,0 c 1.7705,0 3.20603,0.40675 4.3066,1.22021 1.14844,0.81346 1.72265,1.79441 1.72265,2.94283 0,0.86133 -0.21534,1.55517 -0.64599,2.08153 -0.38281,0.52637 -0.90917,0.93311 -1.57909,1.2202 -0.66991,0.2871 -1.43552,0.50243 -2.29685,0.64599 -0.81346,0.14364 -1.67479,0.26318 -2.58396,0.35888 -0.86132,0.0957 -2.03366,0.21538 -3.51705,0.35889 -1.43553,0.14364 -3.01462,0.31103 -4.73725,0.50243 -1.72264,0.14363 -3.54097,0.28712 -5.45502,0.43065 -1.86619,0.14364 -3.6606,0.28712 -5.38323,0.43068 -1.10059,1.81833 -1.07435,3.87166 -1.38357,5.93422 -0.30924,2.06256 -0.415,3.49779 -0.61578,5.50754 2.39255,-0.2871 5.11276,-0.6992 6.8354,-0.89061 1.72263,-0.23926 3.20601,-0.43067 4.45015,-0.57423 1.29198,-0.14363 2.36862,-0.23925 3.22995,-0.28709 0.90915,-0.0957 1.72263,-0.14363 2.4404,-0.14363 2.91892,0 5.00043,0.21533 6.24456,0.64599 1.24413,0.3828 1.86619,1.19627 1.86619,2.4404 0,0.86132 -0.23925,1.62694 -0.71777,2.29684 -0.47852,0.62208 -1.1245,1.14844 -1.93797,1.5791 -0.76561,0.43065 -1.65085,0.78954 -2.65574,1.07664 -0.95702,0.2871 -1.91404,0.50243 -2.87105,0.64599 -0.81346,0.14363 -1.91404,0.33496 -3.30172,0.57421 -1.33984,0.1914 -2.82322,0.40674 -4.45015,0.64599 -1.62695,0.23925 -3.32565,0.4785 -5.09613,0.71777 -1.7705,0.23925 -3.4692,0.45459 -5.09614,0.64599 -0.0478,0.52636 -0.0957,1.07664 -0.14363,1.65086 l 0,1.65087 c 0,1.96188 0.21534,3.82807 0.64599,5.59855 0.43065,1.7705 1.14842,3.32566 2.1533,4.66549 1.00487,1.29198 2.3447,2.32077 4.01948,3.08639 1.67479,0.76561 3.78023,1.14842 6.31634,1.14842 3.20602,0 6.43597,-0.38281 9.68983,-1.14842 3.30173,-0.81347 6.60344,-1.89013 9.90517,-3.22995 3.30173,-1.33983 6.60343,-2.89499 9.90516,-4.66547 3.30173,-1.81834 6.57952,-3.75631 9.83339,-5.81391 l 1.57909,0 c 0.62206,0 1.22021,0.16742 1.79441,0.50243 0.57421,0.28712 1.07665,0.69386 1.5073,1.22021 0.43065,0.47851 0.76562,1.02879 1.00488,1.65087 0.2871,0.62206 0.43065,1.24411 0.43065,1.86619 0,1.43552 -0.74169,2.99068 -2.22507,4.66547 -1.48339,1.62694 -3.4692,3.25386 -5.95745,4.8808 -2.44041,1.62694 -5.26362,3.1821 -8.46963,4.66549 -3.20602,1.48338 -6.53166,2.79927 -9.97694,3.94769 -3.39742,1.14842 -6.79484,2.0576 -10.19227,2.72752 -3.39742,0.66991 -6.50774,1.00486 -9.33095,1.00486 z"
         style="font-style:normal;font-variant:normal;font-weight:normal;font-stretch:normal;font-size:medium;line-height:125%;font-family:'MV Boli';-inkscape-font-specification:'MV Boli';letter-spacing:0px;word-spacing:0px;fill:#ffffff;fill-opacity:1;stroke:none;stroke-width:16.23397446;stroke-linecap:butt;stroke-linejoin:round;stroke-miterlimit:4;stroke-dasharray:none;stroke-opacity:1"
         id="path4288"
         inkscape:connector-curvature="0"
         sodipodi:nodetypes="ccccscccssscscscccczsccsccsssccccsccccccccscccssscccccsscccccscscscccccczccccscscccccssccsscsscsccscccsccscscc" />
    </g>
  </g>
</svg>
