<?xml version="1.0" encoding="UTF-8" standalone="no"?>
<!-- Created with Inkscape (http://www.inkscape.org/) -->

<svg
   xmlns:dc="http://purl.org/dc/elements/1.1/"
   xmlns:cc="http://creativecommons.org/ns#"
   xmlns:rdf="http://www.w3.org/1999/02/22-rdf-syntax-ns#"
   xmlns:svg="http://www.w3.org/2000/svg"
   xmlns="http://www.w3.org/2000/svg"
   xmlns:sodipodi="http://sodipodi.sourceforge.net/DTD/sodipodi-0.dtd"
   xmlns:inkscape="http://www.inkscape.org/namespaces/inkscape"
   width="210mm"
   height="297mm"
   viewBox="0 0 744.09448819 1052.3622047"
   id="svg2"
   version="1.1"
   inkscape:version="0.91 r13725"
   inkscape:export-xdpi="4.949976"
   inkscape:export-ydpi="4.949976"
   sodipodi:docname="server-database-red.svg"
   inkscape:export-filename="D:\Dokumente\Arbeit\RRZE\github\bicons\22x22\devices\server-database-red.png">
  <defs
     id="defs4">
    <linearGradient
       id="linearGradient2224">
      <stop
         id="stop2226"
         offset="0"
         style="stop-color:#7c7c7c;stop-opacity:1;" />
      <stop
         id="stop2228"
         offset="1"
         style="stop-color:#b8b8b8;stop-opacity:1;" />
    </linearGradient>
    <linearGradient
       id="linearGradient15218">
      <stop
         id="stop15220"
         offset="0"
         style="stop-color:#eeeeef;stop-opacity:1;" />
      <stop
         id="stop2736"
         offset="0.59928656"
         style="stop-color:#d3d7cf;stop-opacity:1;" />
      <stop
         id="stop2738"
         offset="0.82758623"
         style="stop-color:#ffffff;stop-opacity:1;" />
      <stop
         id="stop15222"
         offset="1"
         style="stop-color:#d3d7cf;stop-opacity:1;" />
    </linearGradient>
    <pattern
       y="0"
       x="0"
       height="6"
       width="6"
       patternUnits="userSpaceOnUse"
       id="EMFhbasepattern" />
    <pattern
       y="0"
       x="0"
       height="6"
       width="6"
       patternUnits="userSpaceOnUse"
       id="EMFhbasepattern-5" />
  </defs>
  <sodipodi:namedview
     id="base"
     pagecolor="#ffffff"
     bordercolor="#666666"
     borderopacity="1.0"
     inkscape:pageopacity="0.0"
     inkscape:pageshadow="2"
     inkscape:zoom="1"
     inkscape:cx="332.80319"
     inkscape:cy="575.63598"
     inkscape:document-units="px"
     inkscape:current-layer="layer1"
     showgrid="false"
     showguides="true"
     inkscape:guide-bbox="true"
     inkscape:window-width="1600"
     inkscape:window-height="837"
     inkscape:window-x="-4"
     inkscape:window-y="-4"
     inkscape:window-maximized="1"
     inkscape:snap-bbox="true"
     inkscape:bbox-nodes="true"
     inkscape:snap-nodes="false">
    <sodipodi:guide
       position="560,730.00002"
       orientation="0,1"
       id="guide3338" />
    <sodipodi:guide
       position="560,330.00001"
       orientation="0,1"
       id="guide3340" />
    <sodipodi:guide
       position="190,475.00001"
       orientation="1,0"
       id="guide3344" />
    <sodipodi:guide
       position="590,451.00001"
       orientation="1,0"
       id="guide3346" />
    <inkscape:grid
       type="xygrid"
       id="grid3440" />
    <sodipodi:guide
       position="215,442.00001"
       orientation="1,0"
       id="guide4155" />
    <sodipodi:guide
       position="564.97832,467.39759"
       orientation="1,0"
       id="guide4157" />
  </sodipodi:namedview>
  <metadata
     id="metadata7">
    <rdf:RDF>
      <cc:Work
         rdf:about="">
        <dc:format>image/svg+xml</dc:format>
        <dc:type
           rdf:resource="http://purl.org/dc/dcmitype/StillImage" />
        <dc:title>server database red</dc:title>
        <dc:date>June 2015</dc:date>
        <dc:creator>
          <cc:Agent>
            <dc:title>Johannes Hechler</dc:title>
          </cc:Agent>
        </dc:creator>
        <dc:rights>
          <cc:Agent>
            <dc:title>Johannes Hechler</dc:title>
          </cc:Agent>
        </dc:rights>
        <dc:publisher>
          <cc:Agent>
            <dc:title>RRZE</dc:title>
          </cc:Agent>
        </dc:publisher>
        <dc:contributor>
          <cc:Agent>
            <dc:title>Ute Weber, Hendrik Eggers</dc:title>
          </cc:Agent>
        </dc:contributor>
      </cc:Work>
    </rdf:RDF>
  </metadata>
  <g
     inkscape:label="Ebene 1"
     inkscape:groupmode="layer"
     id="layer1">
    <g
       id="g4195">
      <path
         inkscape:connector-curvature="0"
         id="rect4239"
         d="m 229.99414,322.3622 c -12.08606,0 -21.8164,9.73034 -21.8164,21.81641 l 0,65.44726 c 0,12.08606 9.73034,21.81641 21.8164,21.81641 l 14.54297,0 0,36.35937 -14.54297,0 c -12.08606,0 -21.8164,9.73035 -21.8164,21.81641 l 0,65.44726 c 0,12.08607 9.73034,21.81641 21.8164,21.81641 l 14.54297,0 0,36.35938 -14.53515,0 c -12.09052,0 -21.82422,9.73371 -21.82422,21.82421 l 0,65.47266 c 0,12.0906 9.7337,21.82422 21.82422,21.82422 l 159.32617,0 c -8.12733,-4.02279 -15.30045,-8.76342 -21.27735,-14.65039 -7.79162,-7.6745 -13.79357,-18.20886 -13.79296,-30.16016 a 17.50175,17.50175 0 0 1 0,-0.14648 c 0.0861,-10.28829 4.71726,-19.77905 11.27148,-27.14063 -6.47279,-7.35432 -11.27203,-16.68864 -11.27148,-27.25586 a 17.50175,17.50175 0 0 1 0,-0.14648 c 0.0276,-3.30288 0.52491,-6.52453 1.40039,-9.62109 l -92.93946,0 0,-36.35938 92.76172,0 c -0.76786,-2.90902 -1.20328,-5.9431 -1.20312,-9.08984 a 17.50175,17.50175 0 0 1 0,-0.14649 c 0.0862,-10.29411 4.72113,-19.79098 11.28125,-27.15429 -6.46556,-7.35143 -11.25922,-16.67921 -11.25977,-27.23829 -6e-4,-11.95111 6.00149,-22.48376 13.79297,-30.1582 6.30105,-6.20639 13.94144,-11.1331 22.61914,-15.29297 l -127.99219,0 0,-36.35937 254.51953,0 0,21.24219 c 6.27188,0.84996 12.34342,1.91998 18.17969,3.20507 l 0,-24.44726 14.58594,0 c 12.08606,0 21.81641,-9.73035 21.81641,-21.81641 l 0,-65.44726 c 0,-12.08607 -9.73035,-21.81641 -21.81641,-21.81641 l -320.00977,0 z m 250.9043,162.93945 c -28.15756,1.2e-4 -53.58977,4.95694 -70.41601,11.9668 -8.41313,3.50493 -14.58037,7.55887 -17.83008,10.75977 -3.24972,3.20089 -3.35355,4.62491 -3.35352,5.2246 3e-5,0.59968 0.10343,2.02168 3.35352,5.22266 3.25008,3.20098 9.41888,7.25498 17.83203,10.75977 16.8263,7.00957 42.25736,11.96667 70.41406,11.96679 28.15706,9e-5 53.58933,-4.95718 70.41602,-11.96679 8.41334,-3.50481 14.58184,-7.55873 17.83203,-10.75977 1.40274,-1.38153 2.19874,-2.41526 2.67383,-3.21094 l 0,-4.02148 c -0.47493,-0.79637 -1.26989,-1.83201 -2.67383,-3.21484 -3.24982,-3.20096 -9.41676,-7.25482 -17.83008,-10.75977 -16.82664,-7.00989 -42.26005,-11.96689 -70.41797,-11.9668 z m 54.51953,103.23243 c -5.89339,1.19507 -11.96104,2.18347 -18.17969,2.96484 l 0,1.33203 c 6.47726,-1.06708 12.56224,-2.39407 18.17969,-3.91406 l 0,-0.38281 z m -114.40625,54.06835 c 16.13077,4.99369 36.95124,8.3575 59.84766,8.35743 22.83328,-1e-4 43.6074,-3.34583 59.7207,-8.31641 -18.32733,4.16874 -38.45905,6.27539 -59.70117,6.27539 -21.30736,0 -41.4947,-2.12216 -59.86719,-6.31641 z m 0,54.54297 c 16.13077,4.9937 36.95124,8.35742 59.84766,8.35742 22.83328,-9e-5 43.6074,-3.3459 59.7207,-8.3164 -18.32733,4.1687 -38.45905,6.27539 -59.70117,6.27539 -21.30736,0 -41.4947,-2.12211 -59.86719,-6.31641 z"
         style="fill:#d9463a;fill-opacity:1;stroke:none;stroke-width:36;stroke-linejoin:round;stroke-miterlimit:4;stroke-dasharray:none" />
      <rect
         ry="9.0899944"
         y="376.90228"
         x="244.53806"
         height="18.179989"
         width="72.720001"
         id="rect4253"
         style="fill:#ffffff;fill-opacity:1;stroke:none;stroke-width:36;stroke-linejoin:round;stroke-miterlimit:4;stroke-dasharray:none" />
      <rect
         style="fill:#ffffff;fill-opacity:1;stroke:none;stroke-width:36;stroke-linejoin:round;stroke-miterlimit:4;stroke-dasharray:none"
         id="rect4255"
         width="72.720001"
         height="18.179989"
         x="244.53806"
         y="522.34222"
         ry="9.0899944" />
      <rect
         ry="9.0899944"
         y="667.78217"
         x="244.53806"
         height="18.179989"
         width="72.720001"
         id="rect4257"
         style="fill:#ffffff;fill-opacity:1;stroke:none;stroke-width:36;stroke-linejoin:round;stroke-miterlimit:4;stroke-dasharray:none" />
      <path
         id="rect4259"
         d="m 199.08804,322.3622 381.82149,0 c 5.03585,0 9.08998,4.05414 9.08998,9.08999 l 0,381.81997 c 0,5.0359 -4.05413,9.09 -9.08998,9.09 l -381.82149,0 c -5.03585,0 -9.08999,-4.0541 -9.08999,-9.09 l 0,-381.81997 c 0,-5.03585 4.05414,-9.08999 9.08999,-9.08999 z"
         style="fill:none;fill-opacity:1;stroke:none;stroke-width:36;stroke-linejoin:round;stroke-miterlimit:4;stroke-dasharray:none"
         inkscape:connector-curvature="0" />
      <path
         inkscape:connector-curvature="0"
         id="path4268"
         d="M 480.89844,467.80165 A 109.10073,45.450211 0 0 0 371.79883,513.25282 109.10073,45.450211 0 0 0 480.89844,558.70204 109.10073,45.450211 0 0 0 590,513.25282 109.10073,45.450211 0 0 0 480.89844,467.80165 Z m 102.18164,84.16602 c -5.51049,3.66763 -11.64322,6.80221 -18.30664,9.57812 -22.6602,9.44 -51.77768,14.65625 -83.875,14.65625 -32.09732,0 -61.2148,-5.21625 -83.875,-14.65625 -6.65632,-2.77295 -12.78311,-5.90382 -18.28906,-9.5664 a 109.10073,45.450211 0 0 0 -6.95703,15.8125 109.10073,45.450211 0 0 0 109.10156,45.45117 109.10073,45.450211 0 0 0 109.09961,-45.45117 109.10073,45.450211 0 0 0 -6.89844,-15.82422 z m -0.0195,55.2168 c -5.51049,3.66763 -11.64322,6.80221 -18.30664,9.57812 -22.6602,9.44 -51.77768,14.65625 -83.875,14.65625 -32.09732,0 -61.2148,-5.21625 -83.875,-14.65625 -6.65632,-2.77295 -12.78311,-5.90383 -18.28906,-9.56641 a 109.10073,45.450211 0 0 0 -6.95703,15.8125 109.10073,45.450211 0 0 0 109.10156,45.45118 109.10073,45.450211 0 0 0 109.09961,-45.45118 109.10073,45.450211 0 0 0 -6.89844,-15.82421 z m 0,54.54296 c -5.51049,3.66763 -11.64322,6.80225 -18.30664,9.57813 -22.6602,9.44 -51.77768,14.65625 -83.875,14.65625 -32.09732,0 -61.2148,-5.21625 -83.875,-14.65625 -6.65632,-2.77292 -12.78311,-5.90383 -18.28906,-9.56641 a 109.10073,45.450211 0 0 0 -6.95703,15.8125 109.10073,45.450211 0 0 0 109.10156,45.45117 109.10073,45.450211 0 0 0 109.09961,-45.45117 109.10073,45.450211 0 0 0 -6.89844,-15.82422 z"
         style="opacity:1;fill:#4e505d;fill-opacity:1;stroke:none;stroke-width:35;stroke-linejoin:round;stroke-miterlimit:4;stroke-dasharray:none;stroke-opacity:1" />
    </g>
  </g>
</svg>
