<?xml version="1.0" encoding="UTF-8" standalone="no"?>
<!-- Created with Inkscape (http://www.inkscape.org/) -->

<svg
   xmlns:dc="http://purl.org/dc/elements/1.1/"
   xmlns:cc="http://creativecommons.org/ns#"
   xmlns:rdf="http://www.w3.org/1999/02/22-rdf-syntax-ns#"
   xmlns:svg="http://www.w3.org/2000/svg"
   xmlns="http://www.w3.org/2000/svg"
   xmlns:xlink="http://www.w3.org/1999/xlink"
   xmlns:sodipodi="http://sodipodi.sourceforge.net/DTD/sodipodi-0.dtd"
   xmlns:inkscape="http://www.inkscape.org/namespaces/inkscape"
   width="210mm"
   height="297mm"
   viewBox="0 0 744.09448819 1052.3622047"
   id="svg2"
   version="1.1"
   inkscape:version="0.91 r13725"
   inkscape:export-xdpi="4.9499817"
   inkscape:export-ydpi="4.9499817"
   sodipodi:docname="server-accounting.svg"
   inkscape:export-filename="D:\Dokumente\Arbeit\RRZE\github\bicons\22x22\devices\server-accounting.png">
  <defs
     id="defs4">
    <linearGradient
       id="linearGradient2224">
      <stop
         id="stop2226"
         offset="0"
         style="stop-color:#7c7c7c;stop-opacity:1;" />
      <stop
         id="stop2228"
         offset="1"
         style="stop-color:#b8b8b8;stop-opacity:1;" />
    </linearGradient>
    <linearGradient
       id="linearGradient15218">
      <stop
         id="stop15220"
         offset="0"
         style="stop-color:#eeeeef;stop-opacity:1;" />
      <stop
         id="stop2736"
         offset="0.59928656"
         style="stop-color:#d3d7cf;stop-opacity:1;" />
      <stop
         id="stop2738"
         offset="0.82758623"
         style="stop-color:#ffffff;stop-opacity:1;" />
      <stop
         id="stop15222"
         offset="1"
         style="stop-color:#d3d7cf;stop-opacity:1;" />
    </linearGradient>
    <pattern
       y="0"
       x="0"
       height="6"
       width="6"
       patternUnits="userSpaceOnUse"
       id="EMFhbasepattern" />
    <pattern
       y="0"
       x="0"
       height="6"
       width="6"
       patternUnits="userSpaceOnUse"
       id="EMFhbasepattern-5" />
    <linearGradient
       inkscape:collect="always"
       xlink:href="#linearGradient4287"
       id="linearGradient4293"
       x1="36.360001"
       y1="400"
       x2="363.59998"
       y2="0.29210579"
       gradientUnits="userSpaceOnUse"
       gradientTransform="translate(8.4472617e-8,-1.2e-4)" />
    <linearGradient
       inkscape:collect="always"
       id="linearGradient4287">
      <stop
         style="stop-color:#4e505d;stop-opacity:1;"
         offset="0"
         id="stop4289" />
      <stop
         style="stop-color:#7a859c;stop-opacity:1"
         offset="1"
         id="stop4291" />
    </linearGradient>
  </defs>
  <sodipodi:namedview
     id="base"
     pagecolor="#ffffff"
     bordercolor="#666666"
     borderopacity="1.0"
     inkscape:pageopacity="0.0"
     inkscape:pageshadow="2"
     inkscape:zoom="0.70710678"
     inkscape:cx="462.10071"
     inkscape:cy="473.8948"
     inkscape:document-units="px"
     inkscape:current-layer="layer1"
     showgrid="false"
     showguides="true"
     inkscape:guide-bbox="true"
     inkscape:window-width="1600"
     inkscape:window-height="837"
     inkscape:window-x="-4"
     inkscape:window-y="-4"
     inkscape:window-maximized="1"
     inkscape:snap-bbox="true"
     inkscape:bbox-nodes="true">
    <sodipodi:guide
       position="560,730.00002"
       orientation="0,1"
       id="guide3338" />
    <sodipodi:guide
       position="560,330.00001"
       orientation="0,1"
       id="guide3340" />
    <sodipodi:guide
       position="190,475.00001"
       orientation="1,0"
       id="guide3344" />
    <sodipodi:guide
       position="590,451.00001"
       orientation="1,0"
       id="guide3346" />
    <inkscape:grid
       type="xygrid"
       id="grid3440" />
    <sodipodi:guide
       position="-111.01577,704.98548"
       orientation="0,1"
       id="guide4151" />
    <sodipodi:guide
       position="54.25,355.00001"
       orientation="0,1"
       id="guide4153" />
    <sodipodi:guide
       position="215,442.00001"
       orientation="1,0"
       id="guide4155" />
    <sodipodi:guide
       position="564.97832,467.39759"
       orientation="1,0"
       id="guide4157" />
  </sodipodi:namedview>
  <metadata
     id="metadata7">
    <rdf:RDF>
      <cc:Work
         rdf:about="">
        <dc:format>image/svg+xml</dc:format>
        <dc:type
           rdf:resource="http://purl.org/dc/dcmitype/StillImage" />
        <dc:title>server accounting</dc:title>
        <dc:date>June 2015</dc:date>
        <dc:creator>
          <cc:Agent>
            <dc:title>Johannes Hechler</dc:title>
          </cc:Agent>
        </dc:creator>
        <dc:rights>
          <cc:Agent>
            <dc:title>Johannes Hechler</dc:title>
          </cc:Agent>
        </dc:rights>
        <dc:publisher>
          <cc:Agent>
            <dc:title>RRZE</dc:title>
          </cc:Agent>
        </dc:publisher>
        <dc:contributor>
          <cc:Agent>
            <dc:title>Ute Weber, Hendrik Eggers</dc:title>
          </cc:Agent>
        </dc:contributor>
      </cc:Work>
    </rdf:RDF>
  </metadata>
  <g
     inkscape:label="Ebene 1"
     inkscape:groupmode="layer"
     id="layer1">
    <g
       transform="translate(189.99853,-329.9998)"
       id="g4649">
      <path
         inkscape:connector-curvature="0"
         id="rect4239"
         transform="translate(0,652.36214)"
         d="M 39.996094,0 C 27.910032,0 18.179688,9.7303362 18.179688,21.816406 l 0,65.447266 c 0,12.08606 9.730344,21.816408 21.816406,21.816408 l 14.542968,0 0,36.35937 -14.542968,0 c -12.086064,0 -21.816406,9.73035 -21.816406,21.81641 l 0,65.44726 c 0,12.08607 9.730342,21.81641 21.816406,21.81641 l 14.542968,0 0,36.35938 -14.535156,0 c -12.090515,0 -21.824219,9.73371 -21.824218,21.82421 l 0,65.47266 c 0,12.0905 9.733703,21.82422 21.824218,21.82422 l 152.482424,0 C 151.10058,378.29918 120.71136,338.31486 112.18164,290.87891 l -39.460937,0 0,-36.35938 37.316407,0 c 2.57333,-43.73388 23.53548,-82.64366 55.24219,-109.08008 l -92.558597,0 0,-36.35937 254.519527,0 0,14.48047 c 6.29828,2.87506 12.36761,6.16815 18.17969,9.83398 l 0,-24.31445 14.58594,0 c 12.08606,0 21.81641,-9.730348 21.81641,-21.816408 l 0,-65.447266 C 381.82227,9.7303363 372.09192,0 360.00586,0 L 39.996094,0 Z M 250.85742,145.43945 c -56.82583,6.01814 -101.45062,51.7453 -105.75586,109.08008 l 182.13867,0 0,36.35938 -179.36523,0 C 160.12975,343.51509 207.15621,382.5 263.63086,382.5 c 53.46686,0 98.4669,-34.94222 113.50781,-83.33008 -3.99028,-5.05449 -10.17214,-8.29101 -17.14062,-8.29101 l -14.57813,0 0,-36.35938 14.58594,0 c 9.25197,0 17.11789,-5.70495 20.30078,-13.80078 -9.83033,-50.73838 -51.71856,-89.75277 -103.90234,-95.2793 l -25.54688,0 z m 111.24414,0.10157 c 7.11054,5.94078 13.67816,12.50879 19.61914,19.61914 -0.98353,-10.4051 -9.21407,-18.6355 -19.61914,-19.61914 z m 19.72071,216.4414 C 368.84461,377.54625 352.86025,390.51712 334.77539,400 l 25.22266,0 c 12.09051,0 21.82422,-9.73372 21.82422,-21.82422 l 0,-16.19336 z"
         style="fill:url(#linearGradient4293);fill-opacity:1;stroke:none;stroke-width:36;stroke-linejoin:round;stroke-miterlimit:4;stroke-dasharray:none" />
      <rect
         ry="9.0899944"
         y="706.9021"
         x="54.540001"
         height="18.179989"
         width="72.720001"
         id="rect4253"
         style="fill:#ffffff;fill-opacity:1;stroke:none;stroke-width:36;stroke-linejoin:round;stroke-miterlimit:4;stroke-dasharray:none" />
      <path
         inkscape:connector-curvature="0"
         id="rect4255"
         transform="translate(0,652.36214)"
         d="m 63.630859,199.98047 c -5.035857,0 -9.091797,4.05399 -9.091797,9.08984 0,5.03586 4.05594,9.08985 9.091797,9.08985 l 34.798829,0 c 1.718322,-6.20595 3.776972,-12.27303 6.158202,-18.17969 l -40.957031,0 z m 0,145.43945 c -5.035857,0 -9.091797,4.05399 -9.091797,9.08985 0,5.03585 4.05594,9.08984 9.091797,9.08984 l 54.539061,0 c 1.97302,0 3.79053,-0.62962 5.27735,-1.68945 -3.72448,-5.28813 -7.1641,-10.79015 -10.28321,-16.49024 l -49.533201,0 z"
         style="fill:#ffffff;fill-opacity:1;stroke:none;stroke-width:36;stroke-linejoin:round;stroke-miterlimit:4;stroke-dasharray:none" />
      <path
         id="rect4259"
         d="m 9.0899898,652.362 381.8214902,0 c 5.03585,0 9.08998,4.05414 9.08998,9.08999 l 0,381.82001 c 0,5.0359 -4.05413,9.09 -9.08998,9.09 l -381.8214902,0 C 4.0541355,1052.362 8.4472617e-8,1048.3079 8.4472617e-8,1043.272 l 0,-381.82001 C 8.4472617e-8,656.41614 4.0541355,652.362 9.0899898,652.362 Z"
         style="fill:none;fill-opacity:1;stroke:none;stroke-width:36;stroke-linejoin:round;stroke-miterlimit:4;stroke-dasharray:none"
         inkscape:connector-curvature="0" />
      <ellipse
         ry="136.37003"
         rx="136.37073"
         cy="915.99213"
         cx="263.63074"
         id="path4631"
         style="opacity:1;fill:#99b000;fill-opacity:1;stroke:none;stroke-width:35;stroke-linejoin:round;stroke-miterlimit:4;stroke-dasharray:none;stroke-opacity:1" />
      <text
         xml:space="preserve"
         style="font-style:normal;font-weight:normal;font-size:270.21179199px;line-height:125%;font-family:sans-serif;text-align:center;letter-spacing:0px;word-spacing:0px;text-anchor:middle;fill:#ffffff;fill-opacity:1;stroke:none;stroke-width:1px;stroke-linecap:butt;stroke-linejoin:miter;stroke-opacity:1"
         x="242.61063"
         y="1014.7036"
         id="text4597"
         sodipodi:linespacing="125%"><tspan
           sodipodi:role="line"
           id="tspan4599"
           x="242.61063"
           y="1014.7036"
           style="font-style:normal;font-variant:normal;font-weight:bold;font-stretch:normal;font-family:Arial;-inkscape-font-specification:'Arial Bold';fill:#ffffff">€</tspan></text>
    </g>
  </g>
</svg>
