<?xml version="1.0" encoding="UTF-8" standalone="no"?>
<!-- Created with Inkscape (http://www.inkscape.org/) -->

<svg
   xmlns:dc="http://purl.org/dc/elements/1.1/"
   xmlns:cc="http://creativecommons.org/ns#"
   xmlns:rdf="http://www.w3.org/1999/02/22-rdf-syntax-ns#"
   xmlns:svg="http://www.w3.org/2000/svg"
   xmlns="http://www.w3.org/2000/svg"
   xmlns:xlink="http://www.w3.org/1999/xlink"
   xmlns:sodipodi="http://sodipodi.sourceforge.net/DTD/sodipodi-0.dtd"
   xmlns:inkscape="http://www.inkscape.org/namespaces/inkscape"
   width="210mm"
   height="297mm"
   viewBox="0 0 744.09448819 1052.3622047"
   id="svg2"
   version="1.1"
   inkscape:version="0.91 r13725"
   inkscape:export-xdpi="3.5996397"
   inkscape:export-ydpi="3.5996397"
   sodipodi:docname="action-undo.svg"
   inkscape:export-filename="D:\Dokumente\Arbeit\RRZE\github\bicons\16x16\actions\action-undo.png">
  <defs
     id="defs4">
    <linearGradient
       id="linearGradient2224">
      <stop
         id="stop2226"
         offset="0"
         style="stop-color:#7c7c7c;stop-opacity:1;" />
      <stop
         id="stop2228"
         offset="1"
         style="stop-color:#b8b8b8;stop-opacity:1;" />
    </linearGradient>
    <linearGradient
       id="linearGradient15218">
      <stop
         id="stop15220"
         offset="0"
         style="stop-color:#eeeeef;stop-opacity:1;" />
      <stop
         id="stop2736"
         offset="0.59928656"
         style="stop-color:#d3d7cf;stop-opacity:1;" />
      <stop
         id="stop2738"
         offset="0.82758623"
         style="stop-color:#ffffff;stop-opacity:1;" />
      <stop
         id="stop15222"
         offset="1"
         style="stop-color:#d3d7cf;stop-opacity:1;" />
    </linearGradient>
    <pattern
       y="0"
       x="0"
       height="6"
       width="6"
       patternUnits="userSpaceOnUse"
       id="EMFhbasepattern" />
    <linearGradient
       inkscape:collect="always"
       xlink:href="#linearGradient4167"
       id="linearGradient4201"
       x1="286.38269"
       y1="672.9209"
       x2="532.51678"
       y2="367.74933"
       gradientUnits="userSpaceOnUse"
       gradientTransform="matrix(1.1363532,0,0,1.1363532,-36.90441,-55.163254)" />
    <linearGradient
       inkscape:collect="always"
       id="linearGradient4167">
      <stop
         style="stop-color:#4e505d;stop-opacity:1;"
         offset="0"
         id="stop4169" />
      <stop
         style="stop-color:#7a8597;stop-opacity:1"
         offset="1"
         id="stop4171" />
    </linearGradient>
  </defs>
  <sodipodi:namedview
     id="base"
     pagecolor="#ffffff"
     bordercolor="#666666"
     borderopacity="1.0"
     inkscape:pageopacity="0.0"
     inkscape:pageshadow="2"
     inkscape:zoom="1"
     inkscape:cx="368.71233"
     inkscape:cy="513.99942"
     inkscape:document-units="px"
     inkscape:current-layer="layer1"
     showgrid="false"
     showguides="true"
     inkscape:guide-bbox="true"
     inkscape:window-width="1600"
     inkscape:window-height="837"
     inkscape:window-x="-4"
     inkscape:window-y="-4"
     inkscape:window-maximized="1"
     inkscape:snap-bbox="true"
     inkscape:bbox-nodes="true">
    <sodipodi:guide
       position="315.53572,730.17859"
       orientation="0,1"
       id="guide3338" />
    <sodipodi:guide
       position="351.25,330.17858"
       orientation="0,1"
       id="guide3340" />
    <sodipodi:guide
       position="189.10714,408.8393"
       orientation="1,0"
       id="guide3344" />
    <sodipodi:guide
       position="589.04521,468.07945"
       orientation="1,0"
       id="guide3346" />
    <inkscape:grid
       type="xygrid"
       id="grid3440" />
    <sodipodi:guide
       position="0,0"
       orientation="0,1"
       id="guide3405" />
    <sodipodi:guide
       position="214.125,684.50002"
       orientation="1,0"
       id="guide3407" />
    <sodipodi:guide
       position="0,0"
       orientation="0,1"
       id="guide3409" />
    <sodipodi:guide
       position="589.04521,378.30213"
       orientation="1,0"
       id="guide3411" />
    <sodipodi:guide
       position="564.00001,683.37502"
       orientation="1,0"
       id="guide3413" />
  </sodipodi:namedview>
  <metadata
     id="metadata7">
    <rdf:RDF>
      <cc:Work
         rdf:about="">
        <dc:format>image/svg+xml</dc:format>
        <dc:type
           rdf:resource="http://purl.org/dc/dcmitype/StillImage" />
        <dc:title>action undo</dc:title>
        <dc:date>June 2015</dc:date>
        <dc:creator>
          <cc:Agent>
            <dc:title>Johannes Hechler</dc:title>
          </cc:Agent>
        </dc:creator>
        <dc:rights>
          <cc:Agent>
            <dc:title>Johannes Hechler</dc:title>
          </cc:Agent>
        </dc:rights>
        <dc:publisher>
          <cc:Agent>
            <dc:title>RRZE</dc:title>
          </cc:Agent>
        </dc:publisher>
        <dc:contributor>
          <cc:Agent>
            <dc:title>Ute Weber, Hendrik Eggers</dc:title>
          </cc:Agent>
        </dc:contributor>
      </cc:Work>
    </rdf:RDF>
  </metadata>
  <g
     inkscape:label="Ebene 1"
     inkscape:groupmode="layer"
     id="layer1">
    <g
       id="g4194"
       transform="translate(-19.872842,1.894476)">
      <rect
         inkscape:export-ydpi="3.5999999"
         inkscape:export-xdpi="3.5999999"
         y="320.43527"
         x="208.99243"
         height="400"
         width="400"
         id="rect3336"
         style="fill:none;fill-rule:evenodd;stroke:none;stroke-width:1px;stroke-linecap:butt;stroke-linejoin:miter;stroke-opacity:1" />
      <rect
         inkscape:export-ydpi="3.5999999"
         inkscape:export-xdpi="3.5999999"
         y="320.28915"
         x="208.97998"
         height="400"
         width="400"
         id="rect3336-8"
         style="fill:none;fill-rule:evenodd;stroke:none;stroke-width:1px;stroke-linecap:butt;stroke-linejoin:miter;stroke-opacity:1" />
      <rect
         inkscape:export-ydpi="3.5999999"
         inkscape:export-xdpi="3.5999999"
         y="320.34116"
         x="209.02002"
         height="400"
         width="400"
         id="rect3336-0"
         style="fill:none;fill-rule:evenodd;stroke:none;stroke-width:1px;stroke-linecap:butt;stroke-linejoin:miter;stroke-opacity:1" />
      <path
         id="path4244"
         d="m 275.93701,320.31451 c -11.3891,-0.0191 -17.07144,5.61131 -17.02344,16.83203 -0.048,93.32378 -0.048,252.41136 -0.0176,366.06837 -0.0303,11.3418 5.68558,17.09633 16.97852,17.01953 l 162.13672,0.043 -92.35742,-64.06836 a 25.0025,25.0025 0 0 1 -1.00195,-0.73242 c -13.7405,-10.58009 -13.7405,-32.80859 0,-43.38867 a 25.0025,25.0025 0 0 1 1.00195,-0.73438 l 121.26562,-84.12109 -0.99414,0.72656 c 4.56787,-3.51431 10.13535,-5.50008 15.89649,-5.66797 l 0.006,0 c 15.0988,-0.4372 28.17082,12.25665 28.17382,27.36328 a 25.0025,25.0025 0 0 1 0,0.004 l 0,15.51953 c 18.50466,2.46678 35.11659,8.19189 49.4375,16.52539 l 0.002,-137.33008 c -26.82812,1.08573 -122.93361,3.83993 -125.58008,1.6504 -2.64647,-2.18954 0.32422,-125.68556 0.32422,-125.68556 0,0 -133.18086,-0.026 -158.24805,-0.0234 z m 183.35938,0.0176 c -0.90129,34.04077 -0.93996,67.56398 0,100.50001 31.76562,2.32449 62.87262,1.25036 100.25586,0 C 533.21516,378.2508 502.55558,345.99131 459.29639,320.33211 Z m 1.05078,272.31251 -59.30274,41.13867 59.25,41.10156 a 25.0025,25.0025 0 0 1 25.61914,-21.36914 c 28.87501,1.0542 52.727,6.40772 73.52539,14.10547 l 0,-17.20508 c -2.18694,-3.61541 -4.49494,-6.9618 -6.94531,-9.99023 C 538.08582,622.61911 520.26772,612.598 485.79248,613.68759 A 25.0025,25.0025 0 0 1 460.34717,592.6446 Z m 49.65429,113.29297 0,11.96094 c 1.5e-4,0.81296 -0.0539,1.6092 -0.13281,2.39843 l 32.38867,0.008 c 4.08672,-0.0233 7.42529,-0.77747 10.04883,-2.24609 -12.39885,-5.51769 -25.88058,-9.66792 -42.30469,-12.12109 z"
         style="fill:url(#linearGradient4201);fill-opacity:1;fill-rule:evenodd;stroke:none;stroke-width:1px;stroke-linecap:butt;stroke-linejoin:miter;stroke-opacity:1"
         inkscape:connector-curvature="0" />
      <path
         id="rect4227"
         d="m 297.65185,470.87116 c -6.925,0 -12.5,5.575 -12.5,12.5 l 0,0.10156 c 0,6.925 5.575,12.5 12.5,12.5 l 220.26172,0 c 6.925,0 12.5,-5.575 12.5,-12.5 l 0,-0.10156 c 0,-6.925 -5.575,-12.5 -12.5,-12.5 l -220.26172,0 z m 0,50.39063 c -6.925,0 -12.5,5.575 -12.5,12.5 l 0,0.10156 c 0,6.925 5.575,12.5 12.5,12.5 l 97.82813,0 36.18555,-25.10156 -134.01368,0 z m 0,49.71875 c -6.925,0 -12.5,5.575 -12.5,12.5 l 0,0.10156 c 0,6.925 5.575,12.5 12.5,12.5 l 27.34766,0 c 1.37989,-1.32664 2.83755,-2.60022 4.39649,-3.80078 10e-4,-0.001 0.003,-0.001 0.004,-0.002 0.64823,-0.49973 1.30849,-0.98385 1.98047,-1.45117 a 25.0025,25.0025 0 0 1 0.0234,-0.0156 l 28.58984,-19.83203 -62.3418,0 z m 150.06446,0 -1.61914,1.12304 a 25.0025,25.0025 0 0 1 1.82812,-1.12304 l -0.20898,0 z m 25.08008,0 a 25.0025,25.0025 0 0 1 12.23632,17.71679 c 3.6e-4,0.002 -2.9e-4,0.002 0,0.004 0.002,-1.4e-4 10e-4,-0.002 0.004,-0.002 7.2293,-0.22678 14.00112,0.26511 20.54688,1.07617 A 25.0025,25.0025 0 0 1 485.7164,570.98058 l -12.91992,0 z"
         style="color:#252525;clip-rule:nonzero;display:inline;overflow:visible;visibility:visible;opacity:1;isolation:auto;mix-blend-mode:normal;color-interpolation:sRGB;color-interpolation-filters:linearRGB;solid-color:#252525;solid-opacity:1;fill:#ffffff;fill-opacity:1;fill-rule:nonzero;stroke:none;stroke-width:50;stroke-linecap:square;stroke-linejoin:round;stroke-miterlimit:4;stroke-dasharray:none;stroke-dashoffset:0;stroke-opacity:1;color-rendering:auto;image-rendering:auto;shape-rendering:auto;text-rendering:auto;enable-background:accumulate"
         inkscape:connector-curvature="0" />
      <path
         style="color:#000000;font-style:normal;font-variant:normal;font-weight:normal;font-stretch:normal;font-size:medium;line-height:normal;font-family:sans-serif;text-indent:0;text-align:start;text-decoration:none;text-decoration-line:none;text-decoration-style:solid;text-decoration-color:#000000;letter-spacing:normal;word-spacing:normal;text-transform:none;direction:ltr;block-progression:tb;writing-mode:lr-tb;baseline-shift:baseline;text-anchor:start;white-space:normal;clip-rule:nonzero;display:inline;overflow:visible;visibility:visible;opacity:1;isolation:auto;mix-blend-mode:normal;color-interpolation:sRGB;color-interpolation-filters:linearRGB;solid-color:#000000;solid-opacity:1;fill:#d9463a;fill-opacity:1;fill-rule:evenodd;stroke:none;stroke-width:7.00000048;stroke-linecap:butt;stroke-linejoin:round;stroke-miterlimit:4;stroke-dasharray:none;stroke-dashoffset:0;stroke-opacity:1;color-rendering:auto;image-rendering:auto;shape-rendering:auto;text-rendering:auto;enable-background:accumulate"
         d="m 482.55142,547.27954 c -0.50125,0.0145 -0.98513,0.18695 -1.38258,0.49273 L 359.9033,631.89492 c -1.23744,0.95282 -1.23744,2.81907 0,3.77189 l 121.26554,84.12136 c 1.5652,1.206 3.83335,0.09 3.833,-1.8859 l 0,-39.4044 c 55.71481,2.0341 87.7251,19.5374 120.26913,41.3806 1.77034,1.187 4.0886,-0.3725 3.65634,-2.4597 -7.46929,-35.98 -17.79433,-68.98594 -36.99781,-92.71968 -18.8156,-23.25435 -46.34366,-37.28171 -86.92766,-35.99906 l 0,-39.0418 c -3e-4,-1.34185 -1.10913,-2.41824 -2.45042,-2.37869 z"
         id="path4151"
         inkscape:connector-curvature="0"
         sodipodi:nodetypes="cccccccccsccc" />
    </g>
  </g>
</svg>
