<?xml version="1.0" encoding="UTF-8" standalone="no"?>
<!-- Created with Inkscape (http://www.inkscape.org/) -->

<svg
   xmlns:dc="http://purl.org/dc/elements/1.1/"
   xmlns:cc="http://creativecommons.org/ns#"
   xmlns:rdf="http://www.w3.org/1999/02/22-rdf-syntax-ns#"
   xmlns:svg="http://www.w3.org/2000/svg"
   xmlns="http://www.w3.org/2000/svg"
   xmlns:xlink="http://www.w3.org/1999/xlink"
   xmlns:sodipodi="http://sodipodi.sourceforge.net/DTD/sodipodi-0.dtd"
   xmlns:inkscape="http://www.inkscape.org/namespaces/inkscape"
   width="210mm"
   height="297mm"
   viewBox="0 0 744.09448819 1052.3622047"
   id="svg2"
   version="1.1"
   inkscape:version="0.91 r13725"
   inkscape:export-xdpi="3.5996397"
   inkscape:export-ydpi="3.5996397"
   sodipodi:docname="action-undo.svg"
   inkscape:export-filename="D:\Dokumente\Arbeit\RRZE\github\bicons\16x16\actions\action-undo.png">
  <defs
     id="defs4">
    <linearGradient
       id="linearGradient2224">
      <stop
         id="stop2226"
         offset="0"
         style="stop-color:#7c7c7c;stop-opacity:1;" />
      <stop
         id="stop2228"
         offset="1"
         style="stop-color:#b8b8b8;stop-opacity:1;" />
    </linearGradient>
    <linearGradient
       id="linearGradient15218">
      <stop
         id="stop15220"
         offset="0"
         style="stop-color:#eeeeef;stop-opacity:1;" />
      <stop
         id="stop2736"
         offset="0.59928656"
         style="stop-color:#d3d7cf;stop-opacity:1;" />
      <stop
         id="stop2738"
         offset="0.82758623"
         style="stop-color:#ffffff;stop-opacity:1;" />
      <stop
         id="stop15222"
         offset="1"
         style="stop-color:#d3d7cf;stop-opacity:1;" />
    </linearGradient>
    <pattern
       y="0"
       x="0"
       height="6"
       width="6"
       patternUnits="userSpaceOnUse"
       id="EMFhbasepattern" />
    <linearGradient
       inkscape:collect="always"
       xlink:href="#linearGradient4167"
       id="linearGradient4201-6"
       x1="286.38269"
       y1="672.9209"
       x2="532.51678"
       y2="367.74933"
       gradientUnits="userSpaceOnUse"
       gradientTransform="matrix(1.1363532,0,0,1.1363532,-36.90441,-32.163214)" />
    <linearGradient
       inkscape:collect="always"
       id="linearGradient4167">
      <stop
         style="stop-color:#4e505d;stop-opacity:1;"
         offset="0"
         id="stop4169" />
      <stop
         style="stop-color:#7a8597;stop-opacity:1"
         offset="1"
         id="stop4171" />
    </linearGradient>
  </defs>
  <sodipodi:namedview
     id="base"
     pagecolor="#ffffff"
     bordercolor="#666666"
     borderopacity="1.0"
     inkscape:pageopacity="0.0"
     inkscape:pageshadow="2"
     inkscape:zoom="1"
     inkscape:cx="365.71233"
     inkscape:cy="504.99942"
     inkscape:document-units="px"
     inkscape:current-layer="layer1"
     showgrid="false"
     showguides="true"
     inkscape:guide-bbox="true"
     inkscape:window-width="1600"
     inkscape:window-height="837"
     inkscape:window-x="-4"
     inkscape:window-y="-4"
     inkscape:window-maximized="1"
     inkscape:snap-bbox="true"
     inkscape:bbox-nodes="true">
    <sodipodi:guide
       position="315.53572,730.17859"
       orientation="0,1"
       id="guide3338" />
    <sodipodi:guide
       position="351.25,330.17858"
       orientation="0,1"
       id="guide3340" />
    <sodipodi:guide
       position="189.10714,408.8393"
       orientation="1,0"
       id="guide3344" />
    <sodipodi:guide
       position="589.04521,468.07945"
       orientation="1,0"
       id="guide3346" />
    <inkscape:grid
       type="xygrid"
       id="grid3440" />
    <sodipodi:guide
       position="0,0"
       orientation="0,1"
       id="guide3405" />
    <sodipodi:guide
       position="214.125,684.50002"
       orientation="1,0"
       id="guide3407" />
    <sodipodi:guide
       position="0,0"
       orientation="0,1"
       id="guide3409" />
    <sodipodi:guide
       position="589.04521,378.30213"
       orientation="1,0"
       id="guide3411" />
    <sodipodi:guide
       position="564.00001,683.37502"
       orientation="1,0"
       id="guide3413" />
  </sodipodi:namedview>
  <metadata
     id="metadata7">
    <rdf:RDF>
      <cc:Work
         rdf:about="">
        <dc:format>image/svg+xml</dc:format>
        <dc:type
           rdf:resource="http://purl.org/dc/dcmitype/StillImage" />
        <dc:title>action undo</dc:title>
        <dc:date>June 2015</dc:date>
        <dc:creator>
          <cc:Agent>
            <dc:title>Johannes Hechler</dc:title>
          </cc:Agent>
        </dc:creator>
        <dc:rights>
          <cc:Agent>
            <dc:title>Johannes Hechler</dc:title>
          </cc:Agent>
        </dc:rights>
        <dc:publisher>
          <cc:Agent>
            <dc:title>RRZE</dc:title>
          </cc:Agent>
        </dc:publisher>
        <dc:contributor>
          <cc:Agent>
            <dc:title>Ute Weber, Hendrik Eggers</dc:title>
          </cc:Agent>
        </dc:contributor>
      </cc:Work>
    </rdf:RDF>
  </metadata>
  <g
     inkscape:label="Ebene 1"
     inkscape:groupmode="layer"
     id="layer1">
    <g
       id="g4206"
       transform="translate(-19.872842,-21.105524)">
      <rect
         inkscape:export-ydpi="3.5999999"
         inkscape:export-xdpi="3.5999999"
         y="343.43527"
         x="208.99243"
         height="400"
         width="400"
         id="rect3336-7"
         style="fill:none;fill-rule:evenodd;stroke:none;stroke-width:1px;stroke-linecap:butt;stroke-linejoin:miter;stroke-opacity:1" />
      <rect
         inkscape:export-ydpi="3.5999999"
         inkscape:export-xdpi="3.5999999"
         y="343.28915"
         x="208.97998"
         height="400"
         width="400"
         id="rect3336-8-9"
         style="fill:none;fill-rule:evenodd;stroke:none;stroke-width:1px;stroke-linecap:butt;stroke-linejoin:miter;stroke-opacity:1" />
      <rect
         inkscape:export-ydpi="3.5999999"
         inkscape:export-xdpi="3.5999999"
         y="343.34116"
         x="209.02002"
         height="400"
         width="400"
         id="rect3336-0-9"
         style="fill:none;fill-rule:evenodd;stroke:none;stroke-width:1px;stroke-linecap:butt;stroke-linejoin:miter;stroke-opacity:1" />
      <path
         id="path4244-8"
         d="m 275.93701,343.31451 c -11.3891,-0.019 -17.07144,5.61123 -17.02344,16.83203 -0.048,93.32371 -0.048,252.41139 -0.0176,366.06837 -0.0303,11.3418 5.68558,17.09633 16.97852,17.01953 l 266.38281,0.0703 c 7.50627,-0.0427 12.51868,-2.52737 15.10547,-7.46679 -3.46777,-6.64542 -12.0413,-15.5214 -27.13086,-23.53516 -13.17164,-6.9952 -29.78809,-12.34372 -46.32031,-15.63672 l 0.0937,17.11133 a 25.0025,25.0025 0 0 1 0.002,0.13281 c 0.003,21.1087 -27.37052,34.57726 -44.09179,21.69336 l 0.92968,0.68164 -120.26562,-84.12108 a 25.0025,25.0025 0 0 1 -0.92383,-0.67773 c -13.74071,-10.58013 -13.74071,-32.80854 0,-43.38868 a 25.0025,25.0025 0 0 1 0.92383,-0.67773 l 120.26562,-84.12305 -0.91796,0.67383 c 4.56693,-3.51403 10.13388,-5.49844 15.89257,-5.66797 15.1046,-0.44538 28.1845,12.24919 28.1875,27.36133 a 25.0025,25.0025 0 0 1 -0.002,0.13672 l -0.11719,22.36719 c 12.83925,0.34677 25.69145,1.35842 38.16602,3.83007 12.91231,2.55839 25.88957,6.68226 37.38672,13.72461 l 0,-118.34961 c -26.82812,1.0857 -122.93361,3.83989 -125.58008,1.6504 -2.64647,-2.18961 0.32422,-125.68556 0.32422,-125.68556 0,0 -133.18086,-0.0264 -158.24805,-0.0234 z m 183.35938,0.0195 c -0.90129,34.0408 -0.93996,67.564 0,100.50001 31.76562,2.3245 62.87262,1.2504 100.25586,0 -26.33709,-42.58131 -56.99667,-74.84081 -100.25586,-100.50001 z m -25.51953,245.92579 -57.94727,40.53125 57.9375,40.52735 -0.01,-1.92188 a 25.0025,25.0025 0 0 1 25.91211,-25.12109 c 31.99481,1.1681 65.76084,9.86355 94.01563,24.86914 1.93235,1.02623 3.84863,2.10307 5.7539,3.20898 l 0,-5.93164 c -7.22482,-13.63401 -14.653,-25.39083 -19.56445,-31.46093 -4.13825,-5.11451 -13.02684,-10.04102 -27.53711,-12.91602 -14.51026,-2.87501 -33.39152,-3.45881 -52.79101,-2.8457 a 25.0025,25.0025 0 0 1 -25.78907,-25.11914 l 0.0195,-3.82032 z"
         style="fill:url(#linearGradient4201-6);fill-opacity:1;fill-rule:evenodd;stroke:none;stroke-width:1px;stroke-linecap:butt;stroke-linejoin:miter;stroke-opacity:1"
         inkscape:connector-curvature="0" />
      <path
         id="rect4227-5"
         d="m 296.47998,493.28718 c -6.925,0 -12.5,5.56708 -12.5,12.48047 l 0,0.10156 c 0,6.91339 5.575,12.47851 12.5,12.47851 l 107.82227,0 22.21289,-15.53711 a 25.0025,25.0025 0 0 1 2.64453,-1.57031 c 7.8051,-4.8237 16.6938,-7.65406 25.92383,-7.92578 l 0,0.002 c 19.49622,-0.57487 36.73111,9.57103 46.19726,25.03125 l 15.46094,0 c 6.925,0 12.5,-5.56512 12.5,-12.47851 l 0,-0.10156 c 0,-6.91339 -5.575,-12.48047 -12.5,-12.48047 l -220.26172,0 z m 0,50.00195 c -6.925,0 -12.5,5.56512 -12.5,12.47852 l 0,0.10156 c 0,6.91339 5.575,12.47851 12.5,12.47851 l 36.3418,0 35.82422,-25.05859 -72.16602,0 z m 160.07617,0.002 c -0.49159,0.0145 -0.98083,0.19358 -1.36914,0.48828 l -0.4668,0.34375 a 25.0025,25.0025 0 0 1 -0.54687,0.36133 l -34.11524,23.86328 0.0781,0 a 25.0025,25.0025 0 0 1 13.64063,-4.08789 25.0025,25.0025 0 0 1 13.65624,4.08789 l 11.46876,0 a 25.0025,25.0025 0 0 1 -0.0137,-0.31054 l 0.11719,-22.36719 a 25.0025,25.0025 0 0 0 0,-0.002 c -0.003,-0.69058 -1.75931,-2.39726 -2.44922,-2.37696 z m -160.07617,49.93941 c -6.925,0 -12.5,5.56512 -12.5,12.47851 l 0,0.10156 c 0,2.90237 0.99199,5.55863 2.64453,7.67383 2.39916,-7.40799 6.48057,-14.36307 12.24219,-20.2539 l -2.38672,0 z m 65.00586,16.08593 -12.82813,8.97266 4.99805,0 a 25.0025,25.0025 0 0 1 7.83008,-8.97266 z"
         style="color:#252525;clip-rule:nonzero;display:inline;overflow:visible;visibility:visible;opacity:1;isolation:auto;mix-blend-mode:normal;color-interpolation:sRGB;color-interpolation-filters:linearRGB;solid-color:#252525;solid-opacity:1;fill:#ffffff;fill-opacity:1;fill-rule:nonzero;stroke:none;stroke-width:50;stroke-linecap:square;stroke-linejoin:round;stroke-miterlimit:4;stroke-dasharray:none;stroke-dashoffset:0;stroke-opacity:1;color-rendering:auto;image-rendering:auto;shape-rendering:auto;text-rendering:auto;enable-background:accumulate"
         inkscape:connector-curvature="0" />
      <path
         style="color:#000000;font-style:normal;font-variant:normal;font-weight:normal;font-stretch:normal;font-size:medium;line-height:normal;font-family:sans-serif;text-indent:0;text-align:start;text-decoration:none;text-decoration-line:none;text-decoration-style:solid;text-decoration-color:#000000;letter-spacing:normal;word-spacing:normal;text-transform:none;direction:ltr;block-progression:tb;writing-mode:lr-tb;baseline-shift:baseline;text-anchor:start;white-space:normal;clip-rule:nonzero;display:inline;overflow:visible;visibility:visible;opacity:1;isolation:auto;mix-blend-mode:normal;color-interpolation:sRGB;color-interpolation-filters:linearRGB;solid-color:#000000;solid-opacity:1;fill:#d9463a;fill-opacity:1;fill-rule:evenodd;stroke:none;stroke-width:7.00000048;stroke-linecap:butt;stroke-linejoin:round;stroke-miterlimit:4;stroke-dasharray:none;stroke-dashoffset:0;stroke-opacity:1;color-rendering:auto;image-rendering:auto;shape-rendering:auto;text-rendering:auto;enable-background:accumulate"
         d="m 456.55614,543.29019 c -0.5012,0.0145 -0.9851,0.18695 -1.3825,0.49273 l -120.26558,84.12266 c -1.23744,0.95281 -1.23744,2.81907 0,3.77188 l 120.26558,84.12151 c 1.5652,1.206 3.8333,0.09 3.833,-1.8859 l -0.25,-45.65452 c 55.7148,2.0341 124.3482,32.25692 125.4259,72.83842 l 24.6037,0.1402 c 1.7231,-37.0408 -30.2741,-99.26855 -49.4776,-123.00229 -18.8156,-23.25436 -59.968,-26.30685 -100.552,-25.0242 l 0.25,-47.5418 c -3e-4,-1.34185 -1.1092,-2.41824 -2.4505,-2.37869 z"
         id="path4151"
         inkscape:connector-curvature="0"
         sodipodi:nodetypes="cccccccccsccc" />
    </g>
  </g>
</svg>
