<?xml version="1.0" encoding="UTF-8" standalone="no"?>
<!-- Created with Inkscape (http://www.inkscape.org/) -->

<svg
   xmlns:dc="http://purl.org/dc/elements/1.1/"
   xmlns:cc="http://creativecommons.org/ns#"
   xmlns:rdf="http://www.w3.org/1999/02/22-rdf-syntax-ns#"
   xmlns:svg="http://www.w3.org/2000/svg"
   xmlns="http://www.w3.org/2000/svg"
   xmlns:xlink="http://www.w3.org/1999/xlink"
   xmlns:sodipodi="http://sodipodi.sourceforge.net/DTD/sodipodi-0.dtd"
   xmlns:inkscape="http://www.inkscape.org/namespaces/inkscape"
   width="210mm"
   height="297mm"
   viewBox="0 0 744.09448819 1052.3622047"
   id="svg2"
   version="1.1"
   inkscape:version="0.91 r13725"
   inkscape:export-xdpi="3.5999999"
   inkscape:export-ydpi="3.5999999"
   sodipodi:docname="add-participant.svg"
   inkscape:export-filename="D:\Dokumente\Arbeit\RRZE\github\bicons\16x16\actions\add-participant.png">
  <defs
     id="defs4">
    <linearGradient
       id="linearGradient2224">
      <stop
         id="stop2226"
         offset="0"
         style="stop-color:#7c7c7c;stop-opacity:1;" />
      <stop
         id="stop2228"
         offset="1"
         style="stop-color:#b8b8b8;stop-opacity:1;" />
    </linearGradient>
    <linearGradient
       id="linearGradient15218">
      <stop
         id="stop15220"
         offset="0"
         style="stop-color:#eeeeef;stop-opacity:1;" />
      <stop
         id="stop2736"
         offset="0.59928656"
         style="stop-color:#d3d7cf;stop-opacity:1;" />
      <stop
         id="stop2738"
         offset="0.82758623"
         style="stop-color:#ffffff;stop-opacity:1;" />
      <stop
         id="stop15222"
         offset="1"
         style="stop-color:#d3d7cf;stop-opacity:1;" />
    </linearGradient>
    <pattern
       y="0"
       x="0"
       height="6"
       width="6"
       patternUnits="userSpaceOnUse"
       id="EMFhbasepattern" />
    <pattern
       y="0"
       x="0"
       height="6"
       width="6"
       patternUnits="userSpaceOnUse"
       id="EMFhbasepattern-5" />
    <linearGradient
       inkscape:collect="always"
       xlink:href="#linearGradient4254"
       id="linearGradient4268"
       x1="358.43118"
       y1="465.73074"
       x2="429.96555"
       y2="644.62878"
       gradientUnits="userSpaceOnUse"
       gradientTransform="matrix(1.1386133,0,0,1.1369311,-245.06139,-375.21606)" />
    <linearGradient
       inkscape:collect="always"
       id="linearGradient4254">
      <stop
         style="stop-color:#7a8597;stop-opacity:1"
         offset="0"
         id="stop4256" />
      <stop
         style="stop-color:#4e505d;stop-opacity:1"
         offset="1"
         id="stop4258" />
    </linearGradient>
    <linearGradient
       inkscape:collect="always"
       xlink:href="#linearGradient4254"
       id="linearGradient4260"
       x1="380.01031"
       y1="330.40619"
       x2="414.6156"
       y2="457.18103"
       gradientUnits="userSpaceOnUse"
       gradientTransform="matrix(1.1539288,0,0,1.152224,-251.6585,271.63637)" />
  </defs>
  <sodipodi:namedview
     id="base"
     pagecolor="#ffffff"
     bordercolor="#666666"
     borderopacity="1.0"
     inkscape:pageopacity="0.0"
     inkscape:pageshadow="2"
     inkscape:zoom="0.70710678"
     inkscape:cx="99.594179"
     inkscape:cy="520.2683"
     inkscape:document-units="px"
     inkscape:current-layer="layer1"
     showgrid="false"
     showguides="true"
     inkscape:guide-bbox="true"
     inkscape:window-width="1600"
     inkscape:window-height="837"
     inkscape:window-x="-4"
     inkscape:window-y="-4"
     inkscape:window-maximized="1"
     inkscape:snap-bbox="true"
     inkscape:bbox-nodes="true">
    <sodipodi:guide
       position="315.53572,730.17859"
       orientation="0,1"
       id="guide3338" />
    <sodipodi:guide
       position="351.25,330.17858"
       orientation="0,1"
       id="guide3340" />
    <sodipodi:guide
       position="189.10714,408.8393"
       orientation="1,0"
       id="guide3344" />
    <sodipodi:guide
       position="589.04521,468.07945"
       orientation="1,0"
       id="guide3346" />
    <inkscape:grid
       type="xygrid"
       id="grid3440" />
    <sodipodi:guide
       position="266,38.000001"
       orientation="0,1"
       id="guide3409" />
    <sodipodi:guide
       position="589.04521,378.30213"
       orientation="1,0"
       id="guide3411" />
  </sodipodi:namedview>
  <metadata
     id="metadata7">
    <rdf:RDF>
      <cc:Work
         rdf:about="">
        <dc:format>image/svg+xml</dc:format>
        <dc:type
           rdf:resource="http://purl.org/dc/dcmitype/StillImage" />
        <dc:title>add participant</dc:title>
        <dc:date>June 2015</dc:date>
        <dc:creator>
          <cc:Agent>
            <dc:title>Johannes Hechler</dc:title>
          </cc:Agent>
        </dc:creator>
        <dc:rights>
          <cc:Agent>
            <dc:title>Johannes Hechler</dc:title>
          </cc:Agent>
        </dc:rights>
        <dc:publisher>
          <cc:Agent>
            <dc:title>RRZE</dc:title>
          </cc:Agent>
        </dc:publisher>
        <dc:contributor>
          <cc:Agent>
            <dc:title>Ute Weber, Hendrik Eggers</dc:title>
          </cc:Agent>
        </dc:contributor>
      </cc:Work>
    </rdf:RDF>
  </metadata>
  <g
     inkscape:label="Ebene 1"
     inkscape:groupmode="layer"
     id="layer1">
    <g
       id="g4196"
       transform="translate(-5.5203765,-21.061703)">
      <g
         id="g4284"
         transform="translate(194.56558,-309.11685)">
        <flowRoot
           transform="matrix(1,0,0,0.99852263,-189.14484,330.56826)"
           xml:space="preserve"
           id="flowRoot4169"
           style="font-style:normal;font-weight:normal;font-size:40px;line-height:125%;font-family:sans-serif;letter-spacing:0px;word-spacing:0px;fill:#252525;fill-opacity:1;stroke:none;stroke-width:1px;stroke-linecap:butt;stroke-linejoin:miter;stroke-opacity:1"><flowRegion
             id="flowRegion4171"><rect
               id="rect4173"
               width="56.433445"
               height="88.78862"
               x="89.541069"
               y="427.07962" /></flowRegion><flowPara
             id="flowPara4175" /></flowRoot>        <rect
           style="fill:none;fill-rule:evenodd;stroke:none;stroke-width:1px;stroke-linecap:butt;stroke-linejoin:miter;stroke-opacity:1"
           id="rect3336"
           width="400"
           height="399.40906"
           x="1.9580077e-006"
           y="652.36218"
           inkscape:export-xdpi="4.9499998"
           inkscape:export-ydpi="4.9499998" />
        <path
           style="fill:url(#linearGradient4268);fill-opacity:1;stroke:none;stroke-width:41.15159225;stroke-linecap:round;stroke-linejoin:round;stroke-opacity:1"
           d="m 150.74023,164.2207 c -0.13373,0.11813 -0.25652,0.24668 -0.39453,0.36133 -61.162667,49.39285 -81.682382,117.75172 -82.296872,167.08399 0,17.3893 1.588955,34.23837 4.552734,50.26757 4.39616,9.8201 15.440852,17.01694 28.675778,17.95703 l 0,0.10938 127.58985,0 C 226.39686,394.66968 225,388.78074 225,382.61914 L 225,350 192.30273,350 C 169.29878,350 150,330.70122 150,307.69727 l 0,-40.39454 C 150,244.29878 169.29878,225 192.30273,225 L 225,225 l 0,-32.70508 c 0,-7.86293 2.2585,-15.29167 6.14648,-21.66601 -9.97232,1.21112 -20.67882,1.2207 -29.18945,1.2207 -15.73277,2e-5 -38.49842,-0.25465 -51.2168,-7.62891 z M 275,200 l 0,50 a 25.0025,25.0025 0 0 1 -25,25 l -50,0 0,25 50,0 a 25.0025,25.0025 0 0 1 25,25 l 0,49.91406 25,0 L 300,325 a 25.0025,25.0025 0 0 1 25,-25 l 7.44336,0 c -1.01015,-8.26985 -2.55782,-16.61575 -4.75195,-25 L 325,275 a 25.0025,25.0025 0 0 1 -25,-25 l 0,-34.61719 C 296.42133,210.23146 292.50817,205.10128 288.23438,200 L 275,200 Z"
           transform="translate(0,652.36216)"
           id="path2176"
           inkscape:connector-curvature="0" />
        <ellipse
           style="fill:url(#linearGradient4260);fill-opacity:1;stroke:none;stroke-width:14;stroke-miterlimit:4;stroke-dasharray:none;stroke-opacity:1"
           id="circle2187-6"
           cy="728.18549"
           cx="201.38567"
           rx="75.752335"
           ry="75.232376" />
        <path
           style="opacity:1;fill:#99b000;fill-opacity:1;stroke:none;stroke-width:50;stroke-linejoin:round;stroke-miterlimit:4;stroke-dasharray:none;stroke-opacity:1"
           d="M 267.29492,827.36218 C 257.71318,827.36218 250,835.07536 250,844.6571 l 0,57.70508 -57.69727,0 c -9.5854,0 -17.30273,7.71733 -17.30273,17.30273 l 0,40.39454 c 0,9.5854 7.71733,17.30273 17.30273,17.30273 l 57.69727,0 0,57.61912 c 0,9.5818 7.71318,17.2949 17.29492,17.2949 l 40.41016,0 c 9.58174,0 17.29492,-7.7131 17.29492,-17.2949 l 0,-57.61912 57.69727,0 c 9.5854,0 17.30273,-7.71733 17.30273,-17.30273 l 0,-40.39454 c 0,-9.5854 -7.71733,-17.30273 -17.30273,-17.30273 l -57.69727,0 0,-57.70508 c 0,-9.58174 -7.71318,-17.29492 -17.29492,-17.29492 l -40.41016,0 z"
           id="rect4267"
           inkscape:connector-curvature="0" />
      </g>
    </g>
  </g>
</svg>
