<?xml version="1.0" encoding="UTF-8" standalone="no"?>
<!-- Created with Inkscape (http://www.inkscape.org/) -->

<svg
   xmlns:dc="http://purl.org/dc/elements/1.1/"
   xmlns:cc="http://creativecommons.org/ns#"
   xmlns:rdf="http://www.w3.org/1999/02/22-rdf-syntax-ns#"
   xmlns:svg="http://www.w3.org/2000/svg"
   xmlns="http://www.w3.org/2000/svg"
   xmlns:xlink="http://www.w3.org/1999/xlink"
   xmlns:sodipodi="http://sodipodi.sourceforge.net/DTD/sodipodi-0.dtd"
   xmlns:inkscape="http://www.inkscape.org/namespaces/inkscape"
   width="210mm"
   height="297mm"
   viewBox="0 0 744.09448819 1052.3622047"
   id="svg2"
   version="1.1"
   inkscape:version="0.91 r13725"
   inkscape:export-xdpi="3.597816"
   inkscape:export-ydpi="3.597816"
   sodipodi:docname="data-transfer.svg"
   inkscape:export-filename="C:\Users\johannes\Documents\Arbeit\RRZE\github3\bicons\16x16\actions\data-transfer.png">
  <defs
     id="defs4">
    <linearGradient
       id="linearGradient2224">
      <stop
         id="stop2226"
         offset="0"
         style="stop-color:#7c7c7c;stop-opacity:1;" />
      <stop
         id="stop2228"
         offset="1"
         style="stop-color:#b8b8b8;stop-opacity:1;" />
    </linearGradient>
    <linearGradient
       id="linearGradient15218">
      <stop
         id="stop15220"
         offset="0"
         style="stop-color:#eeeeef;stop-opacity:1;" />
      <stop
         id="stop2736"
         offset="0.59928656"
         style="stop-color:#d3d7cf;stop-opacity:1;" />
      <stop
         id="stop2738"
         offset="0.82758623"
         style="stop-color:#ffffff;stop-opacity:1;" />
      <stop
         id="stop15222"
         offset="1"
         style="stop-color:#d3d7cf;stop-opacity:1;" />
    </linearGradient>
    <pattern
       y="0"
       x="0"
       height="6"
       width="6"
       patternUnits="userSpaceOnUse"
       id="EMFhbasepattern" />
    <pattern
       y="0"
       x="0"
       height="6"
       width="6"
       patternUnits="userSpaceOnUse"
       id="EMFhbasepattern-5" />
    <linearGradient
       inkscape:collect="always"
       xlink:href="#linearGradient4197"
       id="linearGradient4203"
       x1="249.23784"
       y1="681.41742"
       x2="511.04788"
       y2="441.42242"
       gradientUnits="userSpaceOnUse"
       gradientTransform="matrix(0.91449391,0,0,0.91449391,33.14238,36.56628)" />
    <linearGradient
       inkscape:collect="always"
       id="linearGradient4197">
      <stop
         style="stop-color:#4e505d;stop-opacity:1;"
         offset="0"
         id="stop4199" />
      <stop
         style="stop-color:#7a8597;stop-opacity:1"
         offset="1"
         id="stop4201" />
    </linearGradient>
  </defs>
  <sodipodi:namedview
     id="base"
     pagecolor="#ffffff"
     bordercolor="#666666"
     borderopacity="1.0"
     inkscape:pageopacity="0.0"
     inkscape:pageshadow="2"
     inkscape:zoom="1"
     inkscape:cx="422.48373"
     inkscape:cy="501.84148"
     inkscape:document-units="px"
     inkscape:current-layer="layer1"
     showgrid="false"
     showguides="true"
     inkscape:guide-bbox="true"
     inkscape:window-width="1366"
     inkscape:window-height="721"
     inkscape:window-x="-4"
     inkscape:window-y="-4"
     inkscape:window-maximized="1">
    <sodipodi:guide
       position="315.53572,730.17859"
       orientation="0,1"
       id="guide3338" />
    <sodipodi:guide
       position="351.25,330.17858"
       orientation="0,1"
       id="guide3340" />
    <sodipodi:guide
       position="189.10714,408.8393"
       orientation="1,0"
       id="guide3344" />
    <sodipodi:guide
       position="589.04521,540.22959"
       orientation="1,0"
       id="guide3346" />
    <inkscape:grid
       type="xygrid"
       id="grid3440" />
    <sodipodi:guide
       position="0,0"
       orientation="0,1"
       id="guide3405" />
    <sodipodi:guide
       position="214.125,684.50002"
       orientation="1,0"
       id="guide3407" />
    <sodipodi:guide
       position="0,0"
       orientation="0,1"
       id="guide3409" />
    <sodipodi:guide
       position="589.04521,378.30213"
       orientation="1,0"
       id="guide3411" />
    <sodipodi:guide
       position="564.00001,683.37502"
       orientation="1,0"
       id="guide3413" />
    <sodipodi:guide
       position="0,0"
       orientation="0,1"
       id="guide4168" />
  </sodipodi:namedview>
  <metadata
     id="metadata7">
    <rdf:RDF>
      <cc:Work
         rdf:about="">
        <dc:format>image/svg+xml</dc:format>
        <dc:type
           rdf:resource="http://purl.org/dc/dcmitype/StillImage" />
        <dc:title>data transfer</dc:title>
        <dc:date>June 2015</dc:date>
        <dc:creator>
          <cc:Agent>
            <dc:title>Johannes Hechler</dc:title>
          </cc:Agent>
        </dc:creator>
        <dc:rights>
          <cc:Agent>
            <dc:title>Johannes Hechler</dc:title>
          </cc:Agent>
        </dc:rights>
        <dc:publisher>
          <cc:Agent>
            <dc:title>RRZE</dc:title>
          </cc:Agent>
        </dc:publisher>
        <dc:contributor>
          <cc:Agent>
            <dc:title>Ute Weber, Hendrik Eggers</dc:title>
          </cc:Agent>
        </dc:contributor>
      </cc:Work>
    </rdf:RDF>
  </metadata>
  <g
     inkscape:label="Ebene 1"
     inkscape:groupmode="layer"
     id="layer1">
    <g
       id="g4192">
      <g
         id="g4208"
         transform="matrix(1,0,0,0.99236061,0.14411487,-22.725878)">
        <path
           style="opacity:1;fill:url(#linearGradient4203);fill-opacity:1;stroke:none;stroke-width:0;stroke-linecap:square;stroke-linejoin:round;stroke-miterlimit:4;stroke-dasharray:none;stroke-opacity:1"
           d="m 227.8781,448.3552 c -7.75599,0 -14.0143,6.49003 -14.0143,14.24989 l 0,36.41813 0,-32.19511 0,162.28575 c 0,11.63978 9.36601,21.01046 21,21.01046 l 308.00001,0 c 11.63397,0 20.99999,-9.37068 20.99999,-21.01046 l 0,-160.09064 c 0,-11.63978 -9.36602,-21.01046 -20.99999,-21.01046 z"
           id="rect4182"
           inkscape:connector-curvature="0"
           sodipodi:nodetypes="csccssssscc" />
        <path
           style="fill:#99b000;fill-rule:evenodd;stroke:none;stroke-width:1px;stroke-linecap:butt;stroke-linejoin:miter;stroke-opacity:1"
           d="m 214.21627,423.0137 175.13729,0 -29.23326,-50.57142 -116.64432,0 z"
           id="path4215"
           inkscape:connector-curvature="0" />
      </g>
      <flowRoot
         style="font-style:normal;font-weight:normal;font-size:40px;line-height:125%;font-family:sans-serif;letter-spacing:0px;word-spacing:0px;fill:#252525;fill-opacity:1;stroke:none;stroke-width:1px;stroke-linecap:butt;stroke-linejoin:miter;stroke-opacity:1"
         id="flowRoot4169"
         xml:space="preserve"
         transform="translate(-0.13719513,-0.0041288)"><flowRegion
           id="flowRegion4171"><rect
             y="427.07962"
             x="89.541069"
             height="88.78862"
             width="56.433445"
             id="rect4173" /></flowRegion><flowPara
           id="flowPara4175" /></flowRoot>      <rect
         inkscape:export-ydpi="4.9499998"
         inkscape:export-xdpi="4.9499998"
         y="322.26599"
         x="189.00764"
         height="400"
         width="400"
         id="rect3336-2"
         style="fill:none;fill-rule:evenodd;stroke:none;stroke-width:1px;stroke-linecap:butt;stroke-linejoin:miter;stroke-opacity:1" />
      <g
         id="g4171">
        <g
           transform="translate(0.09891487,-0.6041688)"
           id="g4854"
           style="stroke:#ffffff;stroke-width:50;stroke-linejoin:round;stroke-miterlimit:4;stroke-dasharray:none">
          <path
             sodipodi:nodetypes="cccscsssscsccsc"
             inkscape:connector-curvature="0"
             id="path4850"
             d="m 527.58744,722.15119 c 1.20829,0 2.41657,-0.7889 4.02763,-2.36661 l 56.07183,-64.09646 c 3.22209,-3.15545 1.59291,-8.37183 -4.83313,-7.8886 l -18.78415,0.0407 -0.41875,-67.63449 c -0.0271,-4.37019 -3.65496,-7.58795 -8.11753,-7.58354 l -57.89531,0.0573 c -4.46258,0.004 -8.01979,3.21331 -7.99292,7.58355 l 0.41875,68.11525 -18.78433,-0.098 c -6.44409,-0.0336 -6.44418,6.3109 -4.83314,7.88859 l 57.11344,63.61565 c 1.61104,1.57769 2.81933,2.36659 4.0276,2.36659 z"
             style="fill:#99b000;fill-opacity:1;fill-rule:evenodd;stroke:#ffffff;stroke-width:50;stroke-linecap:butt;stroke-linejoin:round;stroke-miterlimit:4;stroke-dasharray:none;stroke-opacity:1" />
          <path
             style="fill:#99b000;fill-opacity:1;fill-rule:evenodd;stroke:#ffffff;stroke-width:50;stroke-linecap:butt;stroke-linejoin:round;stroke-miterlimit:4;stroke-dasharray:none;stroke-opacity:1"
             d="m 428.88538,474.04145 c 1.20829,0 2.41657,0.7889 4.02763,2.36661 l 56.07183,64.09646 c 3.22209,3.15545 1.59291,8.37183 -4.83313,7.8886 l -18.78415,-0.0407 -0.41875,67.63449 c -0.0271,4.37019 -3.65496,7.58795 -8.11753,7.58354 l -57.89531,-0.0573 c -4.46258,-0.004 -8.01979,-3.21331 -7.99292,-7.58355 l 0.41875,-68.11525 -18.78433,0.098 c -6.44409,0.0336 -6.44418,-6.3109 -4.83314,-7.88859 l 57.11344,-63.61565 c 1.61104,-1.57769 2.81933,-2.36659 4.0276,-2.36659 z"
             id="path4852"
             inkscape:connector-curvature="0"
             sodipodi:nodetypes="cccscsssscsccsc" />
        </g>
        <path
           sodipodi:nodetypes="cccscsssscsccsc"
           inkscape:connector-curvature="0"
           id="path4469"
           d="m 527.68635,721.54702 c 1.20829,0 2.41657,-0.7889 4.02763,-2.36661 l 56.07183,-64.09646 c 3.22209,-3.15545 1.59291,-8.37183 -4.83313,-7.8886 l -18.78415,0.0407 -0.41875,-67.63449 c -0.0271,-4.37019 -3.65496,-7.58795 -8.11753,-7.58354 l -57.89531,0.0573 c -4.46258,0.004 -8.01979,3.21331 -7.99292,7.58355 l 0.41875,68.11525 -18.78433,-0.098 c -6.44409,-0.0336 -6.44418,6.3109 -4.83314,7.88859 l 57.11344,63.61565 c 1.61104,1.57769 2.81933,2.36659 4.0276,2.36659 z"
           style="fill:#99b000;fill-opacity:1;fill-rule:evenodd;stroke:none;stroke-width:1px;stroke-linecap:butt;stroke-linejoin:miter;stroke-opacity:1" />
        <path
           style="fill:#99b000;fill-opacity:1;fill-rule:evenodd;stroke:none;stroke-width:1px;stroke-linecap:butt;stroke-linejoin:miter;stroke-opacity:1"
           d="m 428.98429,473.43728 c 1.20829,0 2.41657,0.7889 4.02763,2.36661 l 56.07183,64.09646 c 3.22209,3.15545 1.59291,8.37183 -4.83313,7.8886 l -18.78415,-0.0407 -0.41875,67.63449 c -0.0271,4.37019 -3.65496,7.58795 -8.11753,7.58354 l -57.89531,-0.0573 c -4.46258,-0.004 -8.01979,-3.21331 -7.99292,-7.58355 l 0.41875,-68.11525 -18.78433,0.098 c -6.44409,0.0336 -6.44418,-6.3109 -4.83314,-7.88859 l 57.11344,-63.61565 c 1.61104,-1.57769 2.81933,-2.36659 4.0276,-2.36659 z"
           id="path4848"
           inkscape:connector-curvature="0"
           sodipodi:nodetypes="cccscsssscsccsc" />
      </g>
    </g>
  </g>
</svg>
