<?xml version="1.0" encoding="UTF-8" standalone="no"?>
<!-- Created with Inkscape (http://www.inkscape.org/) -->

<svg
   xmlns:dc="http://purl.org/dc/elements/1.1/"
   xmlns:cc="http://creativecommons.org/ns#"
   xmlns:rdf="http://www.w3.org/1999/02/22-rdf-syntax-ns#"
   xmlns:svg="http://www.w3.org/2000/svg"
   xmlns="http://www.w3.org/2000/svg"
   xmlns:xlink="http://www.w3.org/1999/xlink"
   xmlns:sodipodi="http://sodipodi.sourceforge.net/DTD/sodipodi-0.dtd"
   xmlns:inkscape="http://www.inkscape.org/namespaces/inkscape"
   width="210mm"
   height="297mm"
   viewBox="0 0 744.09448819 1052.3622047"
   id="svg2"
   version="1.1"
   inkscape:version="0.91 r13725"
   inkscape:export-xdpi="3.5978765"
   inkscape:export-ydpi="3.5978765"
   sodipodi:docname="dial-in.svg"
   inkscape:export-filename="C:\Users\johannes\Documents\Arbeit\RRZE\github3\bicons\16x16\actions\dial-in.png">
  <defs
     id="defs4">
    <linearGradient
       id="linearGradient2224">
      <stop
         id="stop2226"
         offset="0"
         style="stop-color:#7c7c7c;stop-opacity:1;" />
      <stop
         id="stop2228"
         offset="1"
         style="stop-color:#b8b8b8;stop-opacity:1;" />
    </linearGradient>
    <linearGradient
       id="linearGradient15218">
      <stop
         id="stop15220"
         offset="0"
         style="stop-color:#eeeeef;stop-opacity:1;" />
      <stop
         id="stop2736"
         offset="0.59928656"
         style="stop-color:#d3d7cf;stop-opacity:1;" />
      <stop
         id="stop2738"
         offset="0.82758623"
         style="stop-color:#ffffff;stop-opacity:1;" />
      <stop
         id="stop15222"
         offset="1"
         style="stop-color:#d3d7cf;stop-opacity:1;" />
    </linearGradient>
    <pattern
       y="0"
       x="0"
       height="6"
       width="6"
       patternUnits="userSpaceOnUse"
       id="EMFhbasepattern" />
    <pattern
       y="0"
       x="0"
       height="6"
       width="6"
       patternUnits="userSpaceOnUse"
       id="EMFhbasepattern-5" />
    <linearGradient
       inkscape:collect="always"
       id="linearGradient4250">
      <stop
         style="stop-color:#99b000;stop-opacity:1;"
         offset="0"
         id="stop4252" />
      <stop
         style="stop-color:#a9bc24;stop-opacity:1"
         offset="1"
         id="stop4254" />
    </linearGradient>
    <linearGradient
       inkscape:collect="always"
       xlink:href="#linearGradient4250"
       id="linearGradient4256-3"
       x1="360"
       y1="714.61218"
       x2="360"
       y2="372.36221"
       gradientUnits="userSpaceOnUse"
       gradientTransform="matrix(0.52736694,0,0,-0.53103967,100.31492,767.51748)" />
    <linearGradient
       inkscape:collect="always"
       xlink:href="#linearGradient4310"
       id="linearGradient4316"
       x1="194.61034"
       y1="778.75769"
       x2="523.72516"
       y2="505.95032"
       gradientUnits="userSpaceOnUse"
       gradientTransform="matrix(0.91381491,0,0,0.91381491,36.76823,36.32708)" />
    <linearGradient
       inkscape:collect="always"
       id="linearGradient4310">
      <stop
         style="stop-color:#4e505d;stop-opacity:1;"
         offset="0"
         id="stop4312" />
      <stop
         style="stop-color:#7a8597;stop-opacity:1"
         offset="1"
         id="stop4314" />
    </linearGradient>
  </defs>
  <sodipodi:namedview
     id="base"
     pagecolor="#ffffff"
     bordercolor="#666666"
     borderopacity="1.0"
     inkscape:pageopacity="0.0"
     inkscape:pageshadow="2"
     inkscape:zoom="0.70710678"
     inkscape:cx="394.71311"
     inkscape:cy="473.96551"
     inkscape:document-units="px"
     inkscape:current-layer="layer1"
     showgrid="false"
     showguides="true"
     inkscape:guide-bbox="true"
     inkscape:window-width="1366"
     inkscape:window-height="721"
     inkscape:window-x="-4"
     inkscape:window-y="-4"
     inkscape:window-maximized="1">
    <sodipodi:guide
       position="315.53572,730.17859"
       orientation="0,1"
       id="guide3338" />
    <sodipodi:guide
       position="351.25,330.17858"
       orientation="0,1"
       id="guide3340" />
    <sodipodi:guide
       position="189.10714,408.8393"
       orientation="1,0"
       id="guide3344" />
    <sodipodi:guide
       position="589.04521,468.07945"
       orientation="1,0"
       id="guide3346" />
    <inkscape:grid
       type="xygrid"
       id="grid3440" />
    <sodipodi:guide
       position="589.04521,378.30213"
       orientation="1,0"
       id="guide3411" />
  </sodipodi:namedview>
  <metadata
     id="metadata7">
    <rdf:RDF>
      <cc:Work
         rdf:about="">
        <dc:format>image/svg+xml</dc:format>
        <dc:type
           rdf:resource="http://purl.org/dc/dcmitype/StillImage" />
        <dc:title>dial in</dc:title>
        <dc:creator>
          <cc:Agent>
            <dc:title>Johannes Hechler</dc:title>
          </cc:Agent>
        </dc:creator>
        <dc:rights>
          <cc:Agent>
            <dc:title>Johannes Hechler</dc:title>
          </cc:Agent>
        </dc:rights>
        <dc:publisher>
          <cc:Agent>
            <dc:title>RRZE</dc:title>
          </cc:Agent>
        </dc:publisher>
        <dc:date>June 2015</dc:date>
        <dc:contributor>
          <cc:Agent>
            <dc:title>Ute Weber, Hendrik Eggers</dc:title>
          </cc:Agent>
        </dc:contributor>
      </cc:Work>
    </rdf:RDF>
  </metadata>
  <g
     inkscape:label="Ebene 1"
     inkscape:groupmode="layer"
     id="layer1">
    <g
       id="g4221">
      <g
         id="g4305"
         transform="translate(-4.6458792e-6,1.5176143e-5)">
        <flowRoot
           transform="translate(-0.23607,1.17626)"
           xml:space="preserve"
           id="flowRoot4169-9"
           style="font-style:normal;font-weight:normal;font-size:40px;line-height:125%;font-family:sans-serif;letter-spacing:0px;word-spacing:0px;fill:#252525;fill-opacity:1;stroke:none;stroke-width:1px;stroke-linecap:butt;stroke-linejoin:miter;stroke-opacity:1"><flowRegion
             id="flowRegion4171-7"><rect
               id="rect4173-2"
               width="56.433445"
               height="88.78862"
               x="89.541069"
               y="427.07962" /></flowRegion><flowPara
             id="flowPara4175-0" /></flowRoot>        <rect
           style="fill:none;fill-rule:evenodd;stroke:none;stroke-width:1px;stroke-linecap:butt;stroke-linejoin:miter;stroke-opacity:1"
           id="rect3336-7"
           width="400"
           height="400"
           x="188.90874"
           y="323.44632"
           inkscape:export-xdpi="4.9499998"
           inkscape:export-ydpi="4.9499998" />
        <path
           sodipodi:nodetypes="scccsssssssscccs"
           style="opacity:1;fill:url(#linearGradient4316);fill-opacity:1;stroke:none;stroke-width:8.19999981;stroke-linecap:round;stroke-linejoin:round;stroke-miterlimit:4;stroke-dasharray:none;stroke-opacity:1"
           d="m 475.79356,449.18815 c -20.74533,0 -37.56269,16.8978 -37.5625,37.74217 0.003,16.48477 10.65412,31.06023 26.30664,36 l 0,76.5254 -232.17187,0 c -10.3782,0 -18.73438,8.35423 -18.73438,18.73242 l 0,62.19922 c 0,10.37819 8.35618,18.73437 18.73438,18.73437 l 313.84765,0 c 10.3782,0 18.73242,-8.35618 18.73242,-18.73437 l 0,-62.19922 c 0,-10.37819 -8.35422,-18.73243 -18.73242,-18.73242 l -56.39844,0 0,-77.53321 c 14.21608,-5.74741 23.53227,-19.59531 23.54102,-34.99219 1.9e-4,-20.84437 -16.81717,-37.74217 -37.5625,-37.74217 z"
           id="rect4178"
           inkscape:connector-curvature="0" />
        <rect
           style="opacity:1;fill:#ffffff;fill-opacity:1;stroke:none;stroke-width:8.19999981;stroke-linecap:round;stroke-linejoin:round;stroke-miterlimit:4;stroke-dasharray:none;stroke-opacity:1"
           id="rect4182-5"
           width="27.414444"
           height="27.414444"
           x="237.80754"
           y="623.32709"
           ry="13.707222" />
        <rect
           style="opacity:1;fill:#ffffff;fill-opacity:1;stroke:none;stroke-width:8.19999981;stroke-linecap:round;stroke-linejoin:round;stroke-miterlimit:4;stroke-dasharray:none;stroke-opacity:1"
           id="rect4199-1"
           width="27.414444"
           height="27.414444"
           x="289.49832"
           y="623.32709"
           ry="13.707222" />
        <rect
           style="opacity:1;fill:#ffffff;fill-opacity:1;stroke:none;stroke-width:8.19999981;stroke-linecap:round;stroke-linejoin:round;stroke-miterlimit:4;stroke-dasharray:none;stroke-opacity:1"
           id="rect4201-1"
           width="27.414444"
           height="27.414444"
           x="337.189"
           y="623.32709"
           ry="13.707222" />
        <rect
           style="opacity:1;fill:#ffffff;fill-opacity:1;stroke:none;stroke-width:8.19999981;stroke-linecap:round;stroke-linejoin:round;stroke-miterlimit:4;stroke-dasharray:none;stroke-opacity:1"
           id="rect4203-0"
           width="151.32178"
           height="25.914467"
           x="389.44876"
           y="623.32709"
           ry="12.041009" />
        <path
           style="fill:#99b000"
           d="m 478.65874,331.57636 c -37.35576,0 -72.4916,13.48511 -98.93216,37.97293 -5.10211,4.72741 -5.10865,12.39709 -0.0126,17.13261 5.09457,4.73439 13.36307,4.73926 18.46518,0.0127 21.50822,-19.92032 50.08978,-30.89072 80.47868,-30.89072 30.38891,0 58.96758,10.96925 80.4758,30.89072 2.54792,2.36136 5.88836,3.54246 9.22529,3.54246 3.34436,0 6.69097,-1.18762 9.24278,-3.556 5.09583,-4.73552 5.08677,-12.40251 -0.0176,-17.1299 -26.43879,-24.48782 -61.56884,-37.97295 -98.92711,-37.97295 z m -2.82304,57.2488 c -18.55391,0 -36.01182,6.69204 -49.15665,18.84428 -5.10967,4.7227 -5.11885,12.3897 -0.029,17.12991 5.08967,4.73906 13.35803,4.7513 18.46518,0.0298 8.21752,-7.59532 19.12645,-11.77837 30.72356,-11.77837 11.59714,0 22.50568,4.18305 30.72069,11.77837 2.54551,2.35668 5.88181,3.53431 9.21359,3.53431 3.34938,0 6.69688,-1.18991 9.2487,-3.56413 5.08939,-4.7402 5.07668,-12.40719 -0.029,-17.12989 -13.14482,-12.15113 -30.60274,-18.84429 -49.15664,-18.84429 z"
           id="path13"
           inkscape:connector-curvature="0"
           sodipodi:nodetypes="ccccscsccccccccscscccc" />
      </g>
      <flowRoot
         style="font-style:normal;font-weight:normal;font-size:40px;line-height:125%;font-family:sans-serif;letter-spacing:0px;word-spacing:0px;fill:#252525;fill-opacity:1;stroke:none;stroke-width:1px;stroke-linecap:butt;stroke-linejoin:miter;stroke-opacity:1"
         id="flowRoot4169"
         xml:space="preserve"><flowRegion
           id="flowRegion4171"><rect
             y="427.07962"
             x="89.541069"
             height="88.78862"
             width="56.433445"
             id="rect4173" /></flowRegion><flowPara
           id="flowPara4175" /></flowRoot>      <rect
         inkscape:export-ydpi="4.9499998"
         inkscape:export-xdpi="4.9499998"
         y="322.27005"
         x="189.14485"
         height="400"
         width="400"
         id="rect3336"
         style="fill:none;fill-rule:evenodd;stroke:none;stroke-width:1px;stroke-linecap:butt;stroke-linejoin:miter;stroke-opacity:1" />
      <path
         inkscape:connector-curvature="0"
         id="path4237-9"
         d="m 301.8634,591.67899 c -1.73262,0 -3.46523,-1.16313 -5.77538,-3.48935 l -80.85514,-95.37565 c -4.62029,-4.65248 -2.31015,-11.63118 6.93045,-11.63118 l 27.72175,0 0,-81.41824 c 0,-6.44367 5.15166,-11.63118 11.55074,-11.63118 l 80.85515,0 c 6.39907,0 11.55072,5.18751 11.55072,11.63118 l 0,81.41824 27.72178,0 c 9.24058,0 9.24058,9.30494 6.93041,11.63118 l -80.85512,95.37565 c -2.31015,2.32622 -4.04275,3.48935 -5.77536,3.48935 z"
         style="fill:url(#linearGradient4256-3);fill-opacity:1;fill-rule:evenodd;stroke:#ffffff;stroke-width:43.37005615;stroke-linecap:butt;stroke-linejoin:miter;stroke-miterlimit:4;stroke-dasharray:none;stroke-opacity:1" />
      <path
         inkscape:connector-curvature="0"
         id="path4237"
         d="m 301.8634,591.87121 c -1.73262,0 -3.46523,-1.16313 -5.77538,-3.48936 l -80.85514,-95.37564 c -4.62029,-4.65248 -2.31015,-11.63119 6.93045,-11.63119 l 27.72175,0 0,-81.41823 c 0,-6.44368 5.15166,-11.63119 11.55074,-11.63119 l 80.85515,0 c 6.39907,0 11.55072,5.18751 11.55072,11.63119 l 0,81.41823 27.72177,0 c 9.24059,0 9.24059,9.30495 6.93042,11.63119 l -80.85512,95.37564 c -2.31015,2.32623 -4.04275,3.48936 -5.77536,3.48936 z"
         style="fill:#99b000;fill-opacity:1;fill-rule:evenodd;stroke:none;stroke-width:1px;stroke-linecap:butt;stroke-linejoin:miter;stroke-opacity:1" />
    </g>
  </g>
</svg>
