<?xml version="1.0" encoding="UTF-8" standalone="no"?>
<!-- Created with Inkscape (http://www.inkscape.org/) -->

<svg
   xmlns:dc="http://purl.org/dc/elements/1.1/"
   xmlns:cc="http://creativecommons.org/ns#"
   xmlns:rdf="http://www.w3.org/1999/02/22-rdf-syntax-ns#"
   xmlns:svg="http://www.w3.org/2000/svg"
   xmlns="http://www.w3.org/2000/svg"
   xmlns:xlink="http://www.w3.org/1999/xlink"
   xmlns:sodipodi="http://sodipodi.sourceforge.net/DTD/sodipodi-0.dtd"
   xmlns:inkscape="http://www.inkscape.org/namespaces/inkscape"
   width="210mm"
   height="297mm"
   viewBox="0 0 744.09448819 1052.3622047"
   id="svg2"
   version="1.1"
   inkscape:version="0.91 r13725"
   inkscape:export-xdpi="3.5999997"
   inkscape:export-ydpi="3.5999997"
   sodipodi:docname="load-settings.svg"
   inkscape:export-filename="C:\Users\johannes\Documents\Arbeit\RRZE\github3\bicons\16x16\actions\load-settings.png">
  <defs
     id="defs4">
    <linearGradient
       id="linearGradient2224">
      <stop
         id="stop2226"
         offset="0"
         style="stop-color:#7c7c7c;stop-opacity:1;" />
      <stop
         id="stop2228"
         offset="1"
         style="stop-color:#b8b8b8;stop-opacity:1;" />
    </linearGradient>
    <linearGradient
       id="linearGradient15218">
      <stop
         id="stop15220"
         offset="0"
         style="stop-color:#eeeeef;stop-opacity:1;" />
      <stop
         id="stop2736"
         offset="0.59928656"
         style="stop-color:#d3d7cf;stop-opacity:1;" />
      <stop
         id="stop2738"
         offset="0.82758623"
         style="stop-color:#ffffff;stop-opacity:1;" />
      <stop
         id="stop15222"
         offset="1"
         style="stop-color:#d3d7cf;stop-opacity:1;" />
    </linearGradient>
    <pattern
       y="0"
       x="0"
       height="6"
       width="6"
       patternUnits="userSpaceOnUse"
       id="EMFhbasepattern" />
    <pattern
       y="0"
       x="0"
       height="6"
       width="6"
       patternUnits="userSpaceOnUse"
       id="EMFhbasepattern-5" />
    <linearGradient
       inkscape:collect="always"
       xlink:href="#linearGradient4197"
       id="linearGradient4203"
       x1="249.23784"
       y1="681.41742"
       x2="511.04788"
       y2="441.42242"
       gradientUnits="userSpaceOnUse"
       gradientTransform="matrix(0.91449391,0,0,0.91449391,34.13467,37.53601)" />
    <linearGradient
       inkscape:collect="always"
       id="linearGradient4197">
      <stop
         style="stop-color:#4e505d;stop-opacity:1;"
         offset="0"
         id="stop4199" />
      <stop
         style="stop-color:#7a8597;stop-opacity:1"
         offset="1"
         id="stop4201" />
    </linearGradient>
  </defs>
  <sodipodi:namedview
     id="base"
     pagecolor="#ffffff"
     bordercolor="#666666"
     borderopacity="1.0"
     inkscape:pageopacity="0.0"
     inkscape:pageshadow="2"
     inkscape:zoom="0.7071068"
     inkscape:cx="251.61062"
     inkscape:cy="585.74829"
     inkscape:document-units="px"
     inkscape:current-layer="layer1"
     showgrid="false"
     showguides="true"
     inkscape:guide-bbox="true"
     inkscape:window-width="1366"
     inkscape:window-height="721"
     inkscape:window-x="-4"
     inkscape:window-y="-4"
     inkscape:window-maximized="1"
     inkscape:snap-bbox="true"
     inkscape:bbox-nodes="true">
    <sodipodi:guide
       position="315.53572,730.17859"
       orientation="0,1"
       id="guide3338" />
    <sodipodi:guide
       position="351.25,330.17858"
       orientation="0,1"
       id="guide3340" />
    <sodipodi:guide
       position="189.10714,408.8393"
       orientation="1,0"
       id="guide3344" />
    <sodipodi:guide
       position="589.04521,468.07945"
       orientation="1,0"
       id="guide3346" />
    <inkscape:grid
       type="xygrid"
       id="grid3440" />
    <sodipodi:guide
       position="0,0"
       orientation="0,1"
       id="guide3405" />
    <sodipodi:guide
       position="214.125,684.50002"
       orientation="1,0"
       id="guide3407" />
    <sodipodi:guide
       position="0,0"
       orientation="0,1"
       id="guide3409" />
    <sodipodi:guide
       position="589.04521,378.30213"
       orientation="1,0"
       id="guide3411" />
    <sodipodi:guide
       position="564.00001,683.37502"
       orientation="1,0"
       id="guide3413" />
    <sodipodi:guide
       position="0,0"
       orientation="0,1"
       id="guide4168" />
  </sodipodi:namedview>
  <metadata
     id="metadata7">
    <rdf:RDF>
      <cc:Work
         rdf:about="">
        <dc:format>image/svg+xml</dc:format>
        <dc:type
           rdf:resource="http://purl.org/dc/dcmitype/StillImage" />
        <dc:title>load settings</dc:title>
        <dc:date>June 2015</dc:date>
        <dc:creator>
          <cc:Agent>
            <dc:title>Johannes Hechler</dc:title>
          </cc:Agent>
        </dc:creator>
        <dc:rights>
          <cc:Agent>
            <dc:title>Johannes Hechler</dc:title>
          </cc:Agent>
        </dc:rights>
        <dc:publisher>
          <cc:Agent>
            <dc:title>RRZE</dc:title>
          </cc:Agent>
        </dc:publisher>
        <dc:contributor>
          <cc:Agent>
            <dc:title>Ute Weber, Hendrik Eggers</dc:title>
          </cc:Agent>
        </dc:contributor>
      </cc:Work>
    </rdf:RDF>
  </metadata>
  <g
     inkscape:label="Ebene 1"
     inkscape:groupmode="layer"
     id="layer1">
    <g
       id="g4220"
       transform="matrix(0.99780116,0,0,0.99575326,-0.52932769,0.22479902)">
      <flowRoot
         style="font-style:normal;font-weight:normal;font-size:40px;line-height:125%;font-family:sans-serif;letter-spacing:0px;word-spacing:0px;fill:#252525;fill-opacity:1;stroke:none;stroke-width:1px;stroke-linecap:butt;stroke-linejoin:miter;stroke-opacity:1"
         id="flowRoot4169"
         xml:space="preserve"
         transform="translate(0.84744,1.06189)"><flowRegion
           id="flowRegion4171"><rect
             y="427.07962"
             x="89.541069"
             height="88.78862"
             width="56.433445"
             id="rect4173" /></flowRegion><flowPara
           id="flowPara4175" /></flowRoot>      <rect
         inkscape:export-ydpi="4.9499998"
         inkscape:export-xdpi="4.9499998"
         y="323.33194"
         x="189.99229"
         height="400"
         width="400"
         id="rect3336"
         style="fill:none;fill-rule:evenodd;stroke:none;stroke-width:1px;stroke-linecap:butt;stroke-linejoin:miter;stroke-opacity:1" />
      <path
         id="rect4182"
         d="m 543.85547,448.98242 -314.98438,0.3418 c -7.75599,0 -14.01562,6.49014 -14.01562,14.25 l 0,36.41797 0,130.09179 c 0,11.63978 9.36601,21.00977 21,21.00977 l 114.91406,0 a 25.0025,25.0025 0 0 1 -9.31641,-19.45508 l 0,-38.32226 a 25.0025,25.0025 0 0 1 18.94336,-24.25391 l 7.10157,-1.77344 -4.10157,-6.51953 a 25.0025,25.0025 0 0 1 3.11719,-30.61914 l 26.52539,-27.6543 a 25.0025,25.0025 0 0 1 30.45117,-4.39843 l 9.67188,5.52929 2.75,-10.99414 -0.0293,0.23438 a 25.0025,25.0025 0 0 1 24.28125,-19.16797 l 38.31641,0 a 25.0025,25.0025 0 0 1 24.25586,18.94336 l 1.75586,7.0332 4.95703,-3.11719 a 25.0025,25.0025 0 0 1 30.61133,3.11329 l 4.79492,4.5957 0,-34.27539 c 0,-11.63978 -9.36603,-21.00977 -21,-21.00977 z m -64.53711,76.16211 -2.47266,9.88086 a 25.0025,25.0025 0 0 1 -16.62695,17.74219 c -3.59885,1.15276 -7.08411,2.63196 -10.41211,4.42187 a 25.0025,25.0025 0 0 1 -24.25,-0.31445 l -8.64844,-4.94336 5.37305,8.53906 a 25.0025,25.0025 0 0 1 1.26953,24.35352 c -1.36711,2.77741 -2.52347,5.65468 -3.45898,8.60547 a 25.0025,25.0025 0 0 1 -17.77539,16.69922 l -9.4043,2.34765 9.55859,2.38867 a 25.0025,25.0025 0 0 1 18.31641,16.34766 c 1.19622,3.52562 2.70864,6.93633 4.51953,10.18945 a 25.0025,25.0025 0 0 1 3.01563,9.69141 l 104.16406,0 a 25.0025,25.0025 0 0 1 2.3457,-13.25195 c 1.19854,-2.47957 2.2309,-5.03708 3.08789,-7.6543 a 25.0025,25.0025 0 0 1 17.69531,-16.47461 l 9.02539,-2.25391 -9.04882,-2.25976 a 25.0025,25.0025 0 0 1 -17.75977,-16.6582 c -1.14365,-3.58483 -2.61439,-7.05762 -4.39062,-10.375 a 25.0025,25.0025 0 0 1 0.33593,-24.20508 l 4.50977,-7.89258 -7.58789,4.77344 a 25.0025,25.0025 0 0 1 -24.43555,1.22656 c -2.60804,-1.29587 -5.30555,-2.40499 -8.07031,-3.32031 a 25.0025,25.0025 0 0 1 -16.39648,-17.67578 l -2.47852,-9.92774 z"
         style="opacity:1;fill:url(#linearGradient4203);fill-opacity:1;stroke:none;stroke-width:0;stroke-linecap:square;stroke-linejoin:round;stroke-miterlimit:4;stroke-dasharray:none;stroke-opacity:1"
         inkscape:connector-curvature="0" />
      <path
         inkscape:connector-curvature="0"
         id="path4215"
         d="m 215.20856,423.98343 175.13729,0 -29.23326,-50.57142 -116.64432,0 z"
         style="fill:#99b000;fill-rule:evenodd;stroke:none;stroke-width:1px;stroke-linecap:butt;stroke-linejoin:miter;stroke-opacity:1" />
      <path
         sodipodi:nodetypes="cccccccccccccccccccccccccccccccccccc"
         inkscape:connector-curvature="0"
         id="path4172"
         d="m 459.93006,499.71971 -7.57044,34.25808 c -5.05587,1.61946 -5.95235,3.69961 -10.62781,6.21424 l -30.88384,-19.37102 -26.52562,27.65425 20.56397,30.32821 c -1.92085,3.90235 -3.54536,3.94366 -4.85982,8.0897 l -33.80746,7.44349 0,38.32102 30.65941,7.65656 4,-0.0492 c 1.68075,4.9537 3.80631,5.7452 6.35066,10.31591 l -19.44105,31.00576 27.65831,26.51201 26.74832,-16.82292 3.18678,-4.78401 c 3.7421,1.83449 3.61157,3.39692 7.57834,4.67518 l 7.47364,33.87091 38.31697,0 7.61886,-34.46137 c 4.80036,-1.59454 5.45201,-3.60587 9.90177,-6.01098 l 31.06778,19.47757 26.52562,-27.66397 -20.75763,-30.63794 c 1.684,-3.48389 3.13291,-3.07654 4.33704,-6.7539 l 33.42991,-7.35648 0,-38.31133 -33.45895,-7.35635 c -1.6069,-5.03687 -3.67107,-5.91629 -6.16673,-10.57729 l 18.93761,-30.13464 -27.65831,-26.5121 -29.37362,19.9615 c -3.66398,-1.82055 -3.45221,-3.37963 -7.33631,-4.66553 l -7.57043,-34.31616 -38.31697,0 z"
         style="opacity:1;fill:#99b000;fill-opacity:1;stroke:none;stroke-width:20.62700081;stroke-linecap:square;stroke-linejoin:miter;stroke-miterlimit:4;stroke-dasharray:none;stroke-opacity:1" />
      <path
         d="m 512.93148,615.89398 a 34.151264,33.708382 0 0 1 -34.14855,33.70838 34.151264,33.708382 0 0 1 -34.15398,-33.70301 34.151264,33.708382 0 0 1 34.14311,-33.71375 34.151264,33.708382 0 0 1 34.15941,33.69765 l -34.15126,0.0107 z"
         sodipodi:end="6.282867"
         sodipodi:start="0"
         sodipodi:ry="33.708382"
         sodipodi:rx="34.151264"
         sodipodi:cy="615.89398"
         sodipodi:cx="478.78021"
         sodipodi:type="arc"
         id="path4304"
         style="opacity:1;fill:#ffffff;fill-opacity:1;stroke:none;stroke-width:20.62700081;stroke-linecap:square;stroke-linejoin:miter;stroke-miterlimit:4;stroke-dasharray:none;stroke-opacity:1" />
    </g>
  </g>
</svg>
