<?xml version="1.0" encoding="UTF-8" standalone="no"?>
<!-- Created with Inkscape (http://www.inkscape.org/) -->

<svg
   xmlns:dc="http://purl.org/dc/elements/1.1/"
   xmlns:cc="http://creativecommons.org/ns#"
   xmlns:rdf="http://www.w3.org/1999/02/22-rdf-syntax-ns#"
   xmlns:svg="http://www.w3.org/2000/svg"
   xmlns="http://www.w3.org/2000/svg"
   xmlns:xlink="http://www.w3.org/1999/xlink"
   xmlns:sodipodi="http://sodipodi.sourceforge.net/DTD/sodipodi-0.dtd"
   xmlns:inkscape="http://www.inkscape.org/namespaces/inkscape"
   width="210mm"
   height="297mm"
   viewBox="0 0 744.09448819 1052.3622047"
   id="svg2"
   version="1.1"
   inkscape:version="0.91 r13725"
   inkscape:export-xdpi="4"
   inkscape:export-ydpi="4"
   sodipodi:docname="manage-settings.svg">
  <defs
     id="defs4">
    <linearGradient
       id="linearGradient4255"
       inkscape:collect="always">
      <stop
         id="stop4257"
         offset="0"
         style="stop-color:#4e505d;stop-opacity:1;" />
      <stop
         id="stop4259"
         offset="1"
         style="stop-color:#7a8597;stop-opacity:1" />
    </linearGradient>
    <linearGradient
       id="linearGradient2224">
      <stop
         id="stop2226"
         offset="0"
         style="stop-color:#7c7c7c;stop-opacity:1;" />
      <stop
         id="stop2228"
         offset="1"
         style="stop-color:#b8b8b8;stop-opacity:1;" />
    </linearGradient>
    <linearGradient
       id="linearGradient15218">
      <stop
         id="stop15220"
         offset="0"
         style="stop-color:#eeeeef;stop-opacity:1;" />
      <stop
         id="stop2736"
         offset="0.59928656"
         style="stop-color:#d3d7cf;stop-opacity:1;" />
      <stop
         id="stop2738"
         offset="0.82758623"
         style="stop-color:#ffffff;stop-opacity:1;" />
      <stop
         id="stop15222"
         offset="1"
         style="stop-color:#d3d7cf;stop-opacity:1;" />
    </linearGradient>
    <pattern
       y="0"
       x="0"
       height="6"
       width="6"
       patternUnits="userSpaceOnUse"
       id="EMFhbasepattern" />
    <linearGradient
       inkscape:collect="always"
       xlink:href="#linearGradient4255"
       id="linearGradient4245"
       x1="255"
       y1="667.36218"
       x2="513"
       y2="415.36221"
       gradientUnits="userSpaceOnUse" />
    <linearGradient
       inkscape:collect="always"
       xlink:href="#linearGradient4255"
       id="linearGradient4247"
       x1="255"
       y1="667.36218"
       x2="513"
       y2="415.36221"
       gradientUnits="userSpaceOnUse" />
  </defs>
  <sodipodi:namedview
     id="base"
     pagecolor="#ffffff"
     bordercolor="#666666"
     borderopacity="1.0"
     inkscape:pageopacity="0.0"
     inkscape:pageshadow="2"
     inkscape:zoom="0.1767767"
     inkscape:cx="958.1896"
     inkscape:cy="517.81767"
     inkscape:document-units="px"
     inkscape:current-layer="layer1"
     showgrid="false"
     showguides="true"
     inkscape:guide-bbox="true"
     inkscape:window-width="1366"
     inkscape:window-height="721"
     inkscape:window-x="-4"
     inkscape:window-y="-4"
     inkscape:window-maximized="1">
    <sodipodi:guide
       position="315.53572,730.17859"
       orientation="0,1"
       id="guide3338" />
    <sodipodi:guide
       position="351.25,330.17858"
       orientation="0,1"
       id="guide3340" />
    <sodipodi:guide
       position="189.10714,408.8393"
       orientation="1,0"
       id="guide3344" />
    <inkscape:grid
       type="xygrid"
       id="grid3440" />
    <sodipodi:guide
       position="0,0"
       orientation="0,1"
       id="guide3405" />
    <sodipodi:guide
       position="214.125,684.50002"
       orientation="1,0"
       id="guide3407" />
    <sodipodi:guide
       position="0,0"
       orientation="0,1"
       id="guide3409" />
    <sodipodi:guide
       position="589.04521,378.30213"
       orientation="1,0"
       id="guide3411" />
    <sodipodi:guide
       position="564.00001,683.37502"
       orientation="1,0"
       id="guide3413" />
  </sodipodi:namedview>
  <metadata
     id="metadata7">
    <rdf:RDF>
      <cc:Work
         rdf:about="">
        <dc:format>image/svg+xml</dc:format>
        <dc:type
           rdf:resource="http://purl.org/dc/dcmitype/StillImage" />
        <dc:title>manage settings</dc:title>
        <dc:date>June 2015</dc:date>
        <dc:creator>
          <cc:Agent>
            <dc:title>Johannes Hechler</dc:title>
          </cc:Agent>
        </dc:creator>
        <dc:rights>
          <cc:Agent>
            <dc:title>Johannes Hechler</dc:title>
          </cc:Agent>
        </dc:rights>
        <dc:publisher>
          <cc:Agent>
            <dc:title>RRZE</dc:title>
          </cc:Agent>
        </dc:publisher>
        <dc:contributor>
          <cc:Agent>
            <dc:title>Ute Weber, Hendrik Eggers</dc:title>
          </cc:Agent>
        </dc:contributor>
      </cc:Work>
    </rdf:RDF>
  </metadata>
  <g
     inkscape:label="Ebene 1"
     inkscape:groupmode="layer"
     id="layer1">
    <rect
       style="fill:none;fill-rule:evenodd;stroke:none;stroke-width:1px;stroke-linecap:butt;stroke-linejoin:miter;stroke-opacity:1"
       id="rect3336"
       width="407.77817"
       height="407.77817"
       x="181.36667"
       y="322.27005"
       inkscape:export-xdpi="4.9499998"
       inkscape:export-ydpi="4.9499998" />
    <g
       id="g4261"
       transform="matrix(0.92247251,0,0,0.92247251,30.153721,44.528166)">
      <path
         sodipodi:nodetypes="cccccccssscccc"
         inkscape:connector-curvature="0"
         id="rect4183"
         d="m 577.50989,398.74741 -45.77234,47.361 -56.14331,-12.3344 -11.42619,-58.0829 44.15589,-44.68093 c -24.92079,-3.33186 -49.95637,5.24684 -67.74903,23.21494 -22.4022,22.7218 -33.12357,53.04533 -21.95952,83.08741 l -212.0693,214.59095 c -12.73486,12.88626 -9.30269,37.10752 3.32744,49.88784 12.6299,12.78009 36.54423,16.23048 49.27908,3.3442 L 470.43623,491.33963 c 30.21072,12.6136 61.44732,2.04788 84.55782,-21.33487 18.41859,-18.69082 26.80149,-45.22109 22.51562,-71.25758 z"
         style="opacity:1;fill:url(#linearGradient4245);fill-opacity:1;stroke:none;stroke-width:2;stroke-linecap:butt;stroke-linejoin:round;stroke-miterlimit:4;stroke-dasharray:none;stroke-opacity:1" />
      <path
         sodipodi:nodetypes="ccccssssssccccc"
         inkscape:connector-curvature="0"
         id="rect4172-1"
         d="m 197.56345,360.57007 50.061,70.26851 21.85376,-1.83414 91.94794,92.18814 c -7.54049,15.82316 -6.76217,37.04186 6.34472,50.18298 l 130.04128,130.38097 c 16.64037,16.68383 43.43284,16.68383 60.07319,0 l 10.07089,-10.09718 c 16.64048,-16.68396 16.64038,-43.54632 10e-6,-60.23014 L 437.91497,501.04823 c -13.13072,-13.16502 -34.33318,-13.93374 -50.13044,-6.32203 l -91.92842,-92.16857 1.82934,-21.91084 -70.08542,-50.19178 z"
         style="opacity:1;fill:#7a8597;fill-opacity:1;stroke:#ffffff;stroke-width:50;stroke-linecap:butt;stroke-linejoin:round;stroke-miterlimit:4;stroke-dasharray:none;stroke-opacity:1" />
      <path
         sodipodi:nodetypes="ccccssssssccccc"
         inkscape:connector-curvature="0"
         id="rect4172"
         d="m 197.60108,360.64543 50.061,70.26851 21.85376,-1.83414 91.94794,92.18814 c -7.54049,15.82316 -6.76217,37.04186 6.34472,50.18298 l 130.04128,130.38097 c 16.64037,16.68383 43.43284,16.68383 60.07319,0 l 10.07089,-10.09718 c 16.64048,-16.68396 16.64038,-43.54632 10e-6,-60.23014 L 437.9526,501.12359 c -13.13072,-13.16502 -34.33318,-13.93374 -50.13044,-6.32203 l -91.92842,-92.16857 1.82934,-21.91084 -70.08542,-50.19178 z"
         style="opacity:1;fill:url(#linearGradient4247);fill-opacity:1;stroke:none;stroke-width:2;stroke-linecap:butt;stroke-linejoin:round;stroke-miterlimit:4;stroke-dasharray:none;stroke-opacity:1" />
    </g>
    <path
       sodipodi:nodetypes="ssccssssssccss"
       inkscape:connector-curvature="0"
       id="path4163"
       d="m 340.23614,526.29662 c -5.31231,0 -9.59881,4.44521 -9.59881,9.76017 l 0,30.94386 0,6.71565 0,118.00361 c 0,7.97242 6.41506,14.39068 14.38352,14.39068 l 210.95831,0 c 7.96845,0 14.38351,-6.41826 14.38351,-14.39068 l 0,-124.71926 c 0,-7.97243 -6.41506,-14.39069 -14.38351,-14.39069 l -130.81222,0 -5.023,-16.55317 c -2.28393,-4.79865 -4.26691,-9.76017 -9.57921,-9.76017 z"
       style="opacity:1;fill:#99b000;fill-opacity:1;stroke:#ffffff;stroke-width:50;stroke-linecap:square;stroke-linejoin:round;stroke-miterlimit:4;stroke-dasharray:none;stroke-opacity:1" />
    <path
       style="opacity:1;fill:#99b000;fill-opacity:1;stroke:none;stroke-width:0;stroke-linecap:square;stroke-linejoin:round;stroke-miterlimit:4;stroke-dasharray:none;stroke-opacity:1"
       d="m 340.23614,526.29662 c -5.31231,0 -9.59881,4.44521 -9.59881,9.76017 l 0,30.94386 0,6.71565 0,118.00361 c 0,7.97242 6.41506,14.39068 14.38352,14.39068 l 210.95831,0 c 7.96845,0 14.38351,-6.41826 14.38351,-14.39068 l 0,-124.71926 c 0,-7.97243 -6.41506,-14.39069 -14.38351,-14.39069 l -130.81222,0 -5.023,-16.55317 c -2.28393,-4.79865 -4.26691,-9.76017 -9.57921,-9.76017 z"
       id="rect4182"
       inkscape:connector-curvature="0"
       sodipodi:nodetypes="ssccssssssccss" />
  </g>
</svg>
