<?xml version="1.0" encoding="UTF-8" standalone="no"?>
<!-- Created with Inkscape (http://www.inkscape.org/) -->

<svg
   xmlns:dc="http://purl.org/dc/elements/1.1/"
   xmlns:cc="http://creativecommons.org/ns#"
   xmlns:rdf="http://www.w3.org/1999/02/22-rdf-syntax-ns#"
   xmlns:svg="http://www.w3.org/2000/svg"
   xmlns="http://www.w3.org/2000/svg"
   xmlns:xlink="http://www.w3.org/1999/xlink"
   xmlns:sodipodi="http://sodipodi.sourceforge.net/DTD/sodipodi-0.dtd"
   xmlns:inkscape="http://www.inkscape.org/namespaces/inkscape"
   width="210mm"
   height="297mm"
   viewBox="0 0 744.09448819 1052.3622047"
   id="svg2"
   version="1.1"
   inkscape:version="0.91 r13725"
   inkscape:export-xdpi="3.5996397"
   inkscape:export-ydpi="3.5996397"
   sodipodi:docname="move-waiting-down-grey.svg"
   inkscape:export-filename="D:\Dokumente\Arbeit\RRZE\github\bicons\16x16\actions\move-waiting-down-grey.png">
  <defs
     id="defs4">
    <linearGradient
       id="linearGradient2224">
      <stop
         id="stop2226"
         offset="0"
         style="stop-color:#7c7c7c;stop-opacity:1;" />
      <stop
         id="stop2228"
         offset="1"
         style="stop-color:#b8b8b8;stop-opacity:1;" />
    </linearGradient>
    <linearGradient
       id="linearGradient15218">
      <stop
         id="stop15220"
         offset="0"
         style="stop-color:#eeeeef;stop-opacity:1;" />
      <stop
         id="stop2736"
         offset="0.59928656"
         style="stop-color:#d3d7cf;stop-opacity:1;" />
      <stop
         id="stop2738"
         offset="0.82758623"
         style="stop-color:#ffffff;stop-opacity:1;" />
      <stop
         id="stop15222"
         offset="1"
         style="stop-color:#d3d7cf;stop-opacity:1;" />
    </linearGradient>
    <pattern
       y="0"
       x="0"
       height="6"
       width="6"
       patternUnits="userSpaceOnUse"
       id="EMFhbasepattern" />
    <pattern
       y="0"
       x="0"
       height="6"
       width="6"
       patternUnits="userSpaceOnUse"
       id="EMFhbasepattern-5" />
    <linearGradient
       inkscape:collect="always"
       xlink:href="#linearGradient4167"
       id="linearGradient4201"
       x1="286.38269"
       y1="672.9209"
       x2="532.51678"
       y2="367.74933"
       gradientUnits="userSpaceOnUse"
       gradientTransform="matrix(1.1363532,0,0,1.1363532,-56.879224,-53.268778)" />
    <linearGradient
       inkscape:collect="always"
       id="linearGradient4167">
      <stop
         style="stop-color:#4e505d;stop-opacity:1;"
         offset="0"
         id="stop4169" />
      <stop
         style="stop-color:#7a8597;stop-opacity:1"
         offset="1"
         id="stop4171" />
    </linearGradient>
  </defs>
  <sodipodi:namedview
     id="base"
     pagecolor="#ffffff"
     bordercolor="#666666"
     borderopacity="1.0"
     inkscape:pageopacity="0.0"
     inkscape:pageshadow="2"
     inkscape:zoom="1"
     inkscape:cx="332.65622"
     inkscape:cy="505.80121"
     inkscape:document-units="px"
     inkscape:current-layer="layer1"
     showgrid="false"
     showguides="true"
     inkscape:guide-bbox="true"
     inkscape:window-width="1600"
     inkscape:window-height="837"
     inkscape:window-x="-4"
     inkscape:window-y="-4"
     inkscape:window-maximized="1"
     inkscape:snap-bbox="true"
     inkscape:bbox-paths="true"
     inkscape:bbox-nodes="true">
    <sodipodi:guide
       position="315.53572,730.17859"
       orientation="0,1"
       id="guide3338" />
    <sodipodi:guide
       position="351.25,330.17858"
       orientation="0,1"
       id="guide3340" />
    <sodipodi:guide
       position="189.10714,408.8393"
       orientation="1,0"
       id="guide3344" />
    <sodipodi:guide
       position="589.04521,468.07945"
       orientation="1,0"
       id="guide3346" />
    <inkscape:grid
       type="xygrid"
       id="grid3440" />
    <sodipodi:guide
       position="0,0"
       orientation="0,1"
       id="guide3405" />
    <sodipodi:guide
       position="214.125,684.50002"
       orientation="1,0"
       id="guide3407" />
    <sodipodi:guide
       position="0,0"
       orientation="0,1"
       id="guide3409" />
    <sodipodi:guide
       position="589.04521,378.30213"
       orientation="1,0"
       id="guide3411" />
    <sodipodi:guide
       position="564.00001,683.37502"
       orientation="1,0"
       id="guide3413" />
  </sodipodi:namedview>
  <metadata
     id="metadata7">
    <rdf:RDF>
      <cc:Work
         rdf:about="">
        <dc:format>image/svg+xml</dc:format>
        <dc:type
           rdf:resource="http://purl.org/dc/dcmitype/StillImage" />
        <dc:title />
        <dc:date>June 2015</dc:date>
        <dc:creator>
          <cc:Agent>
            <dc:title>Johannes Hechler</dc:title>
          </cc:Agent>
        </dc:creator>
        <dc:rights>
          <cc:Agent>
            <dc:title>Johannes Hechler</dc:title>
          </cc:Agent>
        </dc:rights>
        <dc:publisher>
          <cc:Agent>
            <dc:title>RRZE</dc:title>
          </cc:Agent>
        </dc:publisher>
        <dc:contributor>
          <cc:Agent>
            <dc:title>Ute Weber, Hendrik Eggers</dc:title>
          </cc:Agent>
        </dc:contributor>
      </cc:Work>
    </rdf:RDF>
  </metadata>
  <g
     inkscape:label="Ebene 1"
     inkscape:groupmode="layer"
     id="layer1">
    <g
       id="g4258">
      <rect
         inkscape:export-ydpi="3.5999999"
         inkscape:export-xdpi="3.5999999"
         y="322.32974"
         x="189.01762"
         height="400"
         width="400"
         id="rect3336"
         style="fill:none;fill-rule:evenodd;stroke:none;stroke-width:1px;stroke-linecap:butt;stroke-linejoin:miter;stroke-opacity:1" />
      <rect
         inkscape:export-ydpi="3.5999999"
         inkscape:export-xdpi="3.5999999"
         y="322.18362"
         x="189.00517"
         height="400"
         width="400"
         id="rect3336-8"
         style="fill:none;fill-rule:evenodd;stroke:none;stroke-width:1px;stroke-linecap:butt;stroke-linejoin:miter;stroke-opacity:1" />
      <rect
         inkscape:export-ydpi="3.5999999"
         inkscape:export-xdpi="3.5999999"
         y="322.23563"
         x="189.04521"
         height="400"
         width="400"
         id="rect3336-0"
         style="fill:none;fill-rule:evenodd;stroke:none;stroke-width:1px;stroke-linecap:butt;stroke-linejoin:miter;stroke-opacity:1" />
      <path
         id="path4244"
         d="m 255.9622,322.20899 c -11.3891,-0.0191 -17.07144,5.61131 -17.02344,16.83203 -0.048,93.32378 -0.048,252.41136 -0.0176,366.06837 -0.0303,11.3418 5.68558,17.09633 16.97852,17.01953 l 196.98438,0.0527 -80.23633,-94.83008 0.6289,0.71484 c -8.24907,-9.02958 -12.12394,-23.64671 -6.25586,-36.53906 5.86749,-12.891 20.59446,-19.70728 32.73829,-19.61328 l 0.004,0 13.84375,0.0273 -0.0859,-60.95117 c -0.0301,-21.47194 17.98758,-38.83398 38.72852,-38.77148 l 73.24414,0.2207 c 4.86799,0.0148 9.59209,1.00165 13.97266,2.77148 l 0,-28.94336 c -26.82812,1.08573 -122.93361,3.83993 -125.58008,1.6504 -2.64647,-2.18954 0.32422,-125.68556 0.32422,-125.68556 0,0 -133.18086,-0.026 -158.24805,-0.0234 z m 183.35938,0.0176 c -0.90129,34.04077 -0.93996,67.56398 0,100.50001 31.76562,2.32449 62.87262,1.25036 100.25586,0 -26.33709,-42.58132 -56.99667,-74.84081 -100.25586,-100.50001 z m 24.21484,200.0254 0.14063,99.7832 -30.08008,-0.0566 55.08789,65.10742 50.77929,-58.57617 0,-6.30469 -25.50195,0.18555 0.0996,-99.98633 -50.52539,-0.15234 z m 13.31641,178.48242 c -0.41935,0.4139 -0.57563,0.62569 -0.29297,0.33789 l 0.29297,-0.33789 z m 23.41211,0.0391 0.27734,0.32813 c 0.22292,0.2116 0.0883,0.0393 -0.27734,-0.32813 z m 39.19921,4.07227 -14.96289,17.25977 c 9.93733,-0.76513 14.89315,-6.42351 14.96289,-17.11329 l 0,-0.14648 z"
         style="fill:url(#linearGradient4201);fill-opacity:1;fill-rule:evenodd;stroke:none;stroke-width:1px;stroke-linecap:butt;stroke-linejoin:miter;stroke-opacity:1"
         inkscape:connector-curvature="0" />
      <path
         id="rect4227"
         d="m 277.67704,472.76564 c -6.925,0 -12.5,5.575 -12.5,12.5 l 0,0.10156 c 0,6.925 5.575,12.5 12.5,12.5 l 112.19922,0 c 1.94675,-9.27898 5.91595,-17.80133 11.41016,-25.10156 l -123.60938,0 z m 174.4961,24.45313 c -1.29131,-0.004 -2.58775,0.22594 -3.8418,0.64843 l 15.75977,0 -0.47656,-0.61328 -11.44141,-0.0352 z m -174.4961,25.9375 c -6.925,0 -12.5,5.575 -12.5,12.5 l 0,0.10156 c 0,6.925 5.575,12.5 12.5,12.5 l 109.10743,0 c 0.59642,-0.11463 1.1909,-0.24172 1.78906,-0.33984 l -0.0352,-24.76172 -110.86133,0 z m 0,49.71875 c -6.925,0 -12.5,5.575 -12.5,12.5 l 0,0.10156 c 0,6.925 5.575,12.5 12.5,12.5 l 61.81836,0 c 0.68742,-5.5882 2.23551,-11.23504 4.77149,-16.80664 1.35567,-2.97845 2.8962,-5.73839 4.58984,-8.29492 l -71.17969,0 z"
         style="color:#252525;clip-rule:nonzero;display:inline;overflow:visible;visibility:visible;opacity:1;isolation:auto;mix-blend-mode:normal;color-interpolation:sRGB;color-interpolation-filters:linearRGB;solid-color:#252525;solid-opacity:1;fill:#ffffff;fill-opacity:1;fill-rule:nonzero;stroke:none;stroke-width:50;stroke-linecap:square;stroke-linejoin:round;stroke-miterlimit:4;stroke-dasharray:none;stroke-dashoffset:0;stroke-opacity:1;color-rendering:auto;image-rendering:auto;shape-rendering:auto;text-rendering:auto;enable-background:accumulate"
         inkscape:connector-curvature="0" />
      <path
         sodipodi:nodetypes="sccscsssscsccs"
         inkscape:connector-curvature="0"
         id="path4237"
         d="m 488.53437,722.18375 c -1.95823,0 -3.91644,-1.429 -6.5274,-4.287 L 391.73311,611.20336 c -5.2219,-5.71598 -2.61064,-14.37205 7.83287,-14.28994 l 39.0761,0.0733 -0.12043,-86.0324 c -0.0111,-7.9166 6.41946,-13.7592 13.65174,-13.7374 l 73.24434,0.221 c 7.23228,0.022 13.66306,5.8206 13.65524,13.7373 l -0.085,86.03248 40.73387,-0.29445 c 10.44357,-0.0755 10.44382,11.43195 7.83287,14.28994 l -92.49297,106.69356 c -2.61095,2.858 -4.56917,4.287 -6.52737,4.287 z"
         style="fill:#7a859c;fill-opacity:1;fill-rule:evenodd;stroke:none;stroke-width:1px;stroke-linecap:butt;stroke-linejoin:miter;stroke-opacity:1" />
    </g>
  </g>
</svg>
