<?xml version="1.0" encoding="UTF-8" standalone="no"?>
<!-- Created with Inkscape (http://www.inkscape.org/) -->

<svg
   xmlns:dc="http://purl.org/dc/elements/1.1/"
   xmlns:cc="http://creativecommons.org/ns#"
   xmlns:rdf="http://www.w3.org/1999/02/22-rdf-syntax-ns#"
   xmlns:svg="http://www.w3.org/2000/svg"
   xmlns="http://www.w3.org/2000/svg"
   xmlns:sodipodi="http://sodipodi.sourceforge.net/DTD/sodipodi-0.dtd"
   xmlns:inkscape="http://www.inkscape.org/namespaces/inkscape"
   width="210mm"
   height="297mm"
   viewBox="0 0 744.09448819 1052.3622047"
   id="svg2"
   version="1.1"
   inkscape:version="0.91 r13725"
   inkscape:export-xdpi="3.5851629"
   inkscape:export-ydpi="3.5851629"
   sodipodi:docname="move-participant-to-waiting-grey.svg"
   inkscape:export-filename="C:\Users\johannes\Documents\Arbeit\RRZE\github3\bicons\16x16\actions\move-participant-to-waiting-grey.png">
  <defs
     id="defs4">
    <linearGradient
       id="linearGradient2224">
      <stop
         id="stop2226"
         offset="0"
         style="stop-color:#7c7c7c;stop-opacity:1;" />
      <stop
         id="stop2228"
         offset="1"
         style="stop-color:#b8b8b8;stop-opacity:1;" />
    </linearGradient>
    <linearGradient
       id="linearGradient15218">
      <stop
         id="stop15220"
         offset="0"
         style="stop-color:#eeeeef;stop-opacity:1;" />
      <stop
         id="stop2736"
         offset="0.59928656"
         style="stop-color:#d3d7cf;stop-opacity:1;" />
      <stop
         id="stop2738"
         offset="0.82758623"
         style="stop-color:#ffffff;stop-opacity:1;" />
      <stop
         id="stop15222"
         offset="1"
         style="stop-color:#d3d7cf;stop-opacity:1;" />
    </linearGradient>
    <pattern
       y="0"
       x="0"
       height="6"
       width="6"
       patternUnits="userSpaceOnUse"
       id="EMFhbasepattern" />
  </defs>
  <sodipodi:namedview
     id="base"
     pagecolor="#ffffff"
     bordercolor="#666666"
     borderopacity="1.0"
     inkscape:pageopacity="0.0"
     inkscape:pageshadow="2"
     inkscape:zoom="0.70710678"
     inkscape:cx="555.69049"
     inkscape:cy="462.68017"
     inkscape:document-units="px"
     inkscape:current-layer="layer1"
     showgrid="false"
     showguides="true"
     inkscape:guide-bbox="true"
     inkscape:window-width="1366"
     inkscape:window-height="721"
     inkscape:window-x="-4"
     inkscape:window-y="-4"
     inkscape:window-maximized="1">
    <sodipodi:guide
       position="315.53572,730.17859"
       orientation="0,1"
       id="guide3338" />
    <sodipodi:guide
       position="351.25,330.17858"
       orientation="0,1"
       id="guide3340" />
    <sodipodi:guide
       position="189.10714,408.8393"
       orientation="1,0"
       id="guide3344" />
    <inkscape:grid
       type="xygrid"
       id="grid3440" />
    <sodipodi:guide
       position="0,0"
       orientation="0,1"
       id="guide3405" />
    <sodipodi:guide
       position="214.125,684.50002"
       orientation="1,0"
       id="guide3407" />
    <sodipodi:guide
       position="0,0"
       orientation="0,1"
       id="guide3409" />
    <sodipodi:guide
       position="589.04521,378.30213"
       orientation="1,0"
       id="guide3411" />
    <sodipodi:guide
       position="564.00001,683.37502"
       orientation="1,0"
       id="guide3413" />
  </sodipodi:namedview>
  <metadata
     id="metadata7">
    <rdf:RDF>
      <cc:Work
         rdf:about="">
        <dc:format>image/svg+xml</dc:format>
        <dc:type
           rdf:resource="http://purl.org/dc/dcmitype/StillImage" />
        <dc:title>move participant to waiting red grey</dc:title>
        <dc:date>June 2015</dc:date>
        <dc:creator>
          <cc:Agent>
            <dc:title>Johannes Hechler</dc:title>
          </cc:Agent>
        </dc:creator>
        <dc:rights>
          <cc:Agent>
            <dc:title>Johannes Hechler</dc:title>
          </cc:Agent>
        </dc:rights>
        <dc:publisher>
          <cc:Agent>
            <dc:title>RRZE</dc:title>
          </cc:Agent>
        </dc:publisher>
        <dc:contributor>
          <cc:Agent>
            <dc:title>Ute Weber, Hendrik Eggers</dc:title>
          </cc:Agent>
        </dc:contributor>
      </cc:Work>
    </rdf:RDF>
  </metadata>
  <g
     inkscape:label="Ebene 1"
     inkscape:groupmode="layer"
     id="layer1">
    <g
       id="g4196">
      <path
         id="rect4600"
         d="m 212.32409,320.82866 374.9202,0 0,400 -374.9202,0 z"
         style="color:#000000;clip-rule:nonzero;display:inline;overflow:visible;visibility:visible;opacity:1;isolation:auto;mix-blend-mode:normal;color-interpolation:sRGB;color-interpolation-filters:linearRGB;solid-color:#000000;solid-opacity:1;fill:none;fill-opacity:1;fill-rule:nonzero;stroke:none;stroke-width:50;stroke-linecap:butt;stroke-linejoin:round;stroke-miterlimit:4;stroke-dasharray:none;stroke-dashoffset:0;stroke-opacity:1;color-rendering:auto;image-rendering:auto;shape-rendering:auto;text-rendering:auto;enable-background:accumulate"
         inkscape:connector-curvature="0" />
      <g
         id="g4181">
        <path
           inkscape:connector-curvature="0"
           style="opacity:1;fill:#4e505d;fill-opacity:1;stroke:none;stroke-width:16;stroke-linecap:round;stroke-linejoin:round;stroke-miterlimit:4;stroke-dasharray:none;stroke-opacity:1"
           d="m 476.48633,495.66406 a 112.3995,113.26589 0 0 0 -38.40821,6.96875 l 0.13672,32.91602 0,0.0508 c 0,6.37774 0.0242,16.75397 -9.41992,26.24414 -9.44379,9.49018 -19.91196,9.51758 -26.28906,9.51758 l -31.97461,0.15039 A 112.3995,113.26589 0 0 0 364.08789,608.92969 112.3995,113.26589 0 0 0 476.48633,722.19727 112.3995,113.26589 0 0 0 588.88672,608.92969 112.3995,113.26589 0 0 0 476.48633,495.66406 Z"
           id="path4188" />
        <path
           style="opacity:1;fill:#ffffff;fill-opacity:1;stroke:none;stroke-width:16;stroke-linecap:round;stroke-linejoin:round;stroke-miterlimit:4;stroke-dasharray:none;stroke-opacity:1"
           d="M 474.63086 585.61133 A 23.534964 23.716373 0 0 0 451.0957 609.32617 A 23.534964 23.716373 0 0 0 462.23633 629.46875 L 462.85742 674.17969 C 462.94233 680.29436 468.19457 685.14461 474.63477 685.05469 C 481.07496 684.96476 486.19233 679.96819 486.10742 673.85352 L 485.50195 630.33984 A 23.534964 23.716373 0 0 0 496.21875 618.70117 L 567.19141 619.15234 C 574.31396 619.19766 580.12189 615.08885 580.21289 609.9375 C 580.2584 607.36182 578.86623 605.02574 576.57227 603.33008 C 574.27815 601.63461 571.08276 600.57934 567.52148 600.55664 L 496.31055 600.10352 A 23.534964 23.716373 0 0 0 474.63086 585.61133 z "
           id="path4190" />
      </g>
      <path
         sodipodi:nodetypes="sccscsssscsccs"
         inkscape:connector-curvature="0"
         id="path4237"
         d="m 411.07378,544.20971 c -1.60638,1.61425 -4.28365,2.15231 -8.56729,2.15231 l -150.55193,0.70972 c -8.56727,0 -12.85091,-8.60927 -4.28364,-17.21851 l 26.63888,-26.76936 -82.87415,-83.61305 c -5.92098,-5.97379 -5.43588,-15.22831 0.49694,-21.19019 l 72.50979,-72.86501 c 5.93283,-5.9619 15.00026,-6.3067 20.92125,-0.33292 l 82.87415,83.61306 27.21866,-27.35199 c 8.56727,-8.60925 17.13453,10e-6 17.13454,4.30462 l 0.62461,149.95208 c 0,4.30463 -0.53545,6.99502 -2.14181,8.60924 z"
         style="fill:#7a859c;fill-opacity:1;fill-rule:evenodd;stroke:none;stroke-width:1px;stroke-linecap:butt;stroke-linejoin:miter;stroke-opacity:1" />
    </g>
  </g>
</svg>
