<?xml version="1.0" encoding="UTF-8" standalone="no"?>
<!-- Created with Inkscape (http://www.inkscape.org/) -->

<svg
   xmlns:dc="http://purl.org/dc/elements/1.1/"
   xmlns:cc="http://creativecommons.org/ns#"
   xmlns:rdf="http://www.w3.org/1999/02/22-rdf-syntax-ns#"
   xmlns:svg="http://www.w3.org/2000/svg"
   xmlns="http://www.w3.org/2000/svg"
   xmlns:sodipodi="http://sodipodi.sourceforge.net/DTD/sodipodi-0.dtd"
   xmlns:inkscape="http://www.inkscape.org/namespaces/inkscape"
   width="210mm"
   height="297mm"
   viewBox="0 0 744.09448819 1052.3622047"
   id="svg2"
   version="1.1"
   inkscape:version="0.91 r13725"
   inkscape:export-xdpi="3.5989752"
   inkscape:export-ydpi="3.5989752"
   sodipodi:docname="no-view.svg"
   inkscape:export-filename="C:\Users\johannes\Documents\Arbeit\RRZE\github3\bicons\16x16\actions\no-view.png">
  <title
     id="title4159">no view</title>
  <defs
     id="defs4">
    <linearGradient
       id="linearGradient2224">
      <stop
         id="stop2226"
         offset="0"
         style="stop-color:#7c7c7c;stop-opacity:1;" />
      <stop
         id="stop2228"
         offset="1"
         style="stop-color:#b8b8b8;stop-opacity:1;" />
    </linearGradient>
    <linearGradient
       id="linearGradient15218">
      <stop
         id="stop15220"
         offset="0"
         style="stop-color:#eeeeef;stop-opacity:1;" />
      <stop
         id="stop2736"
         offset="0.59928656"
         style="stop-color:#d3d7cf;stop-opacity:1;" />
      <stop
         id="stop2738"
         offset="0.82758623"
         style="stop-color:#ffffff;stop-opacity:1;" />
      <stop
         id="stop15222"
         offset="1"
         style="stop-color:#d3d7cf;stop-opacity:1;" />
    </linearGradient>
    <pattern
       y="0"
       x="0"
       height="6"
       width="6"
       patternUnits="userSpaceOnUse"
       id="EMFhbasepattern" />
    <pattern
       y="0"
       x="0"
       height="6"
       width="6"
       patternUnits="userSpaceOnUse"
       id="EMFhbasepattern-5" />
  </defs>
  <sodipodi:namedview
     id="base"
     pagecolor="#ffffff"
     bordercolor="#666666"
     borderopacity="1.0"
     inkscape:pageopacity="0.0"
     inkscape:pageshadow="2"
     inkscape:zoom="1"
     inkscape:cx="322.4947"
     inkscape:cy="471.89544"
     inkscape:document-units="px"
     inkscape:current-layer="layer1"
     showgrid="false"
     showguides="true"
     inkscape:guide-bbox="true"
     inkscape:window-width="1366"
     inkscape:window-height="721"
     inkscape:window-x="-4"
     inkscape:window-y="-4"
     inkscape:window-maximized="1">
    <sodipodi:guide
       position="315.53572,730.17859"
       orientation="0,1"
       id="guide3338" />
    <sodipodi:guide
       position="351.25,330.17858"
       orientation="0,1"
       id="guide3340" />
    <sodipodi:guide
       position="189.10714,408.8393"
       orientation="1,0"
       id="guide3344" />
    <sodipodi:guide
       position="589.04521,468.07945"
       orientation="1,0"
       id="guide3346" />
    <inkscape:grid
       type="xygrid"
       id="grid3440" />
    <sodipodi:guide
       position="589.04521,378.30213"
       orientation="1,0"
       id="guide3411" />
  </sodipodi:namedview>
  <metadata
     id="metadata7">
    <rdf:RDF>
      <cc:Work
         rdf:about="">
        <dc:format>image/svg+xml</dc:format>
        <dc:type
           rdf:resource="http://purl.org/dc/dcmitype/StillImage" />
        <dc:title>no view</dc:title>
        <dc:date>June 2015</dc:date>
        <dc:creator>
          <cc:Agent>
            <dc:title>Johannes Hechler</dc:title>
          </cc:Agent>
        </dc:creator>
        <dc:rights>
          <cc:Agent>
            <dc:title>Johannes Hechler</dc:title>
          </cc:Agent>
        </dc:rights>
        <dc:publisher>
          <cc:Agent>
            <dc:title>RRZE</dc:title>
          </cc:Agent>
        </dc:publisher>
        <dc:contributor>
          <cc:Agent>
            <dc:title>Ute Weber, Hendrik Eggers</dc:title>
          </cc:Agent>
        </dc:contributor>
      </cc:Work>
    </rdf:RDF>
  </metadata>
  <g
     inkscape:label="Ebene 1"
     inkscape:groupmode="layer"
     id="layer1">
    <rect
       style="fill:none;fill-rule:evenodd;stroke:none;stroke-width:1px;stroke-linecap:butt;stroke-linejoin:miter;stroke-opacity:1"
       id="rect3336"
       width="400"
       height="400"
       x="189.14485"
       y="322.27005"
       inkscape:export-xdpi="4.9499998"
       inkscape:export-ydpi="4.9499998" />
    <g
       transform="translate(-1.4151464e-5,-1.0203894e-5)"
       id="g4372">
      <g
         id="g4329">
        <rect
           style="color:#000000;clip-rule:nonzero;display:inline;overflow:visible;visibility:visible;opacity:1;isolation:auto;mix-blend-mode:normal;color-interpolation:sRGB;color-interpolation-filters:linearRGB;solid-color:#000000;solid-opacity:1;fill:none;fill-opacity:1;fill-rule:nonzero;stroke:none;stroke-width:2.36500001;stroke-linecap:square;stroke-linejoin:round;stroke-miterlimit:4;stroke-dasharray:none;stroke-dashoffset:0;stroke-opacity:1;color-rendering:auto;image-rendering:auto;shape-rendering:auto;text-rendering:auto;enable-background:accumulate"
           id="rect4199"
           width="399.93808"
           height="400"
           x="189.03098"
           y="322.36221" />
        <ellipse
           style="color:#000000;clip-rule:nonzero;display:inline;overflow:visible;visibility:visible;opacity:1;isolation:auto;mix-blend-mode:normal;color-interpolation:sRGB;color-interpolation-filters:linearRGB;solid-color:#000000;solid-opacity:1;fill:#ffffff;fill-opacity:1;fill-rule:nonzero;stroke:none;stroke-width:3;stroke-linecap:square;stroke-linejoin:round;stroke-miterlimit:4;stroke-dasharray:none;stroke-dashoffset:0;stroke-opacity:1;color-rendering:auto;image-rendering:auto;shape-rendering:auto;text-rendering:auto;enable-background:accumulate"
           id="path4179"
           cx="443.44598"
           cy="501.26093"
           rx="30.75"
           ry="28.063107" />
        <ellipse
           style="color:#000000;clip-rule:nonzero;display:inline;overflow:visible;visibility:visible;opacity:1;isolation:auto;mix-blend-mode:normal;color-interpolation:sRGB;color-interpolation-filters:linearRGB;solid-color:#000000;solid-opacity:1;fill:#4e505d;fill-opacity:1;fill-rule:nonzero;stroke:none;stroke-width:2.36500001;stroke-linecap:square;stroke-linejoin:round;stroke-miterlimit:4;stroke-dasharray:none;stroke-dashoffset:0;stroke-opacity:1;color-rendering:auto;image-rendering:auto;shape-rendering:auto;text-rendering:auto;enable-background:accumulate"
           id="path4190"
           cx="387.13464"
           cy="523.2088"
           rx="91.629761"
           ry="83.963524" />
        <ellipse
           style="color:#000000;clip-rule:nonzero;display:inline;overflow:visible;visibility:visible;opacity:1;isolation:auto;mix-blend-mode:normal;color-interpolation:sRGB;color-interpolation-filters:linearRGB;solid-color:#000000;solid-opacity:1;fill:#ffffff;fill-opacity:1;fill-rule:nonzero;stroke:none;stroke-width:2.36500001;stroke-linecap:square;stroke-linejoin:round;stroke-miterlimit:4;stroke-dasharray:none;stroke-dashoffset:0;stroke-opacity:1;color-rendering:auto;image-rendering:auto;shape-rendering:auto;text-rendering:auto;enable-background:accumulate"
           id="path4192"
           cx="427.10925"
           cy="485.495"
           rx="15.063411"
           ry="15.342365" />
        <path
           style="color:#000000;font-style:normal;font-variant:normal;font-weight:normal;font-stretch:normal;font-size:medium;line-height:normal;font-family:sans-serif;text-indent:0;text-align:start;text-decoration:none;text-decoration-line:none;text-decoration-style:solid;text-decoration-color:#000000;letter-spacing:normal;word-spacing:normal;text-transform:none;direction:ltr;block-progression:tb;writing-mode:lr-tb;baseline-shift:baseline;text-anchor:start;white-space:normal;clip-rule:nonzero;display:inline;overflow:visible;visibility:visible;opacity:1;isolation:auto;mix-blend-mode:normal;color-interpolation:sRGB;color-interpolation-filters:linearRGB;solid-color:#000000;solid-opacity:1;fill:#4e505d;fill-opacity:1;fill-rule:evenodd;stroke:none;stroke-width:2.36500001;stroke-linecap:butt;stroke-linejoin:round;stroke-miterlimit:4;stroke-dasharray:none;stroke-dashoffset:0;stroke-opacity:1;color-rendering:auto;image-rendering:auto;shape-rendering:auto;text-rendering:auto;enable-background:accumulate"
           d="m 389.14337,422.48855 c -103.14473,0 -170.37047,90.2933 -172.17625,92.7415 l -0.10676,0.13488 c -0.0172,0.0187 -0.54935,0.64768 -0.54935,0.64768 -0.20791,0.29299 -0.40181,0.59559 -0.58136,0.9098 -0.17778,0.29491 -0.33602,0.59754 -0.48358,0.90979 l -0.0889,0.19275 c -0.1244,0.25636 -0.22401,0.52045 -0.32181,0.78644 -0.19371,0.54553 -0.34491,1.10641 -0.45158,1.6789 l -0.071,0.29684 c -0.0355,0.22565 -0.071,0.45494 -0.0889,0.68236 -0.0172,0.11576 -0.0355,0.24481 -0.0534,0.36817 l 0,0.0578 c -0.0172,0.33733 -0.0172,0.67658 -0.0151,1.01391 l 0.0151,0.31419 c 0.0151,0.26214 0.0355,0.52428 0.071,0.78644 0.0172,0.13487 0.0534,0.25829 0.071,0.38552 0.071,0.51659 0.19199,1.02545 0.33957,1.52278 l 0.0172,0.11573 0.0151,0.0385 c 0.10676,0.31418 0.22402,0.62451 0.35559,0.92715 0.071,0.17339 0.15991,0.35273 0.24179,0.52429 0.0534,0.13487 0.1244,0.28143 0.1937,0.42022 l 0.0355,0.0578 c 0.15992,0.28141 0.32179,0.55514 0.49957,0.82113 l 0.0355,0.058 c 0.0889,0.13487 0.17779,0.25829 0.25779,0.3855 0,0 0.22401,0.25828 0.22579,0.26216 0.10676,0.13487 0.22402,0.27178 0.33957,0.40285 1.53608,2.08618 68.91562,92.8639 172.27315,92.8639 103.14488,0 170.37045,-90.2933 172.17642,-92.7415 l 0.0355,-0.0385 0.0889,-0.0964 c 0.0172,-0.0187 0.54935,-0.64766 0.54935,-0.64766 0.20813,-0.29301 0.40181,-0.59562 0.58138,-0.90983 0.15992,-0.27756 0.32358,-0.56475 0.46757,-0.85775 l 0.0355,-0.077 0.071,-0.17337 c 0.1244,-0.25828 0.22577,-0.52045 0.32355,-0.78645 0.19371,-0.54553 0.34493,-1.10644 0.4516,-1.67889 l 0.071,-0.29687 c 0.0355,-0.22565 0.071,-0.45492 0.0889,-0.68235 0.0172,-0.11574 0.0355,-0.24478 0.0534,-0.36815 l 0,-0.058 c 0.0172,-0.33155 0.0172,-0.665 0.0151,-0.99655 l 0,-0.077 -0.0151,-0.26216 c -0.0151,-0.26214 -0.0355,-0.52429 -0.071,-0.78644 -0.0172,-0.13487 -0.0534,-0.25829 -0.071,-0.38551 -0.071,-0.5166 -0.19026,-1.02546 -0.3378,-1.52279 l -0.0172,-0.0964 -0.0172,-0.0578 c -0.10675,-0.31416 -0.22401,-0.62452 -0.35558,-0.92714 l -0.0172,-0.0578 c -0.1244,-0.30457 -0.26667,-0.60142 -0.41957,-0.89247 l -0.0355,-0.0578 c -0.15992,-0.28145 -0.32177,-0.55518 -0.49958,-0.82118 l -0.0355,-0.0578 c -0.0889,-0.13487 -0.17778,-0.25827 -0.25778,-0.38552 0,0 -0.22401,-0.25829 -0.2258,-0.26214 -0.10675,-0.13487 -0.22401,-0.27178 -0.33955,-0.40285 -1.53607,-2.08617 -68.91564,-92.86388 -172.27332,-92.86388 z m 135.94242,110.74048 c -23.94854,24.89427 -68.719,61.88781 -135.94242,61.88781 -67.22329,0 -111.99375,-36.99354 -135.94227,-61.88781 -7.26013,-8.7731 -6.84269,-13.27067 0,-21.18254 23.94852,-24.89425 68.71898,-61.88781 135.94227,-61.88781 67.22342,0 111.99388,36.99356 135.94242,61.88781 5.44529,5.78812 6.30397,13.99275 0,21.18254 z"
           id="path4181"
           inkscape:connector-curvature="0"
           sodipodi:nodetypes="cccccccccccccccccccccccccccccsccccccccccccccccccccccccccccccccccsccscc" />
      </g>
      <rect
         style="color:#000000;clip-rule:nonzero;display:inline;overflow:visible;visibility:visible;opacity:1;isolation:auto;mix-blend-mode:normal;color-interpolation:sRGB;color-interpolation-filters:linearRGB;solid-color:#000000;solid-opacity:1;fill:#99b000;fill-opacity:1;fill-rule:nonzero;stroke:#ffffff;stroke-width:50.26911926;stroke-linecap:butt;stroke-linejoin:round;stroke-miterlimit:4;stroke-dasharray:none;stroke-dashoffset:0;stroke-opacity:1;color-rendering:auto;image-rendering:auto;shape-rendering:auto;text-rendering:auto;enable-background:accumulate"
         id="rect4352"
         width="27.407145"
         height="309.77795"
         x="621.05078"
         y="115.52909"
         ry="12.852227"
         transform="matrix(0.87410568,0.48573579,-0.60794974,0.79397551,0,0)" />
      <rect
         transform="matrix(0.87410568,0.48573579,-0.60794974,0.79397551,0,0)"
         ry="12.852227"
         y="115.52909"
         x="621.05078"
         height="309.77795"
         width="27.407145"
         id="rect4350"
         style="color:#000000;clip-rule:nonzero;display:inline;overflow:visible;visibility:visible;opacity:1;isolation:auto;mix-blend-mode:normal;color-interpolation:sRGB;color-interpolation-filters:linearRGB;solid-color:#000000;solid-opacity:1;fill:#4e505d;fill-opacity:1;fill-rule:nonzero;stroke:none;stroke-width:0;stroke-linecap:butt;stroke-linejoin:round;stroke-miterlimit:4;stroke-dasharray:none;stroke-dashoffset:0;stroke-opacity:1;color-rendering:auto;image-rendering:auto;shape-rendering:auto;text-rendering:auto;enable-background:accumulate" />
    </g>
  </g>
</svg>
