<?xml version="1.0" encoding="UTF-8" standalone="no"?>
<!-- Created with Inkscape (http://www.inkscape.org/) -->

<svg
   xmlns:dc="http://purl.org/dc/elements/1.1/"
   xmlns:cc="http://creativecommons.org/ns#"
   xmlns:rdf="http://www.w3.org/1999/02/22-rdf-syntax-ns#"
   xmlns:svg="http://www.w3.org/2000/svg"
   xmlns="http://www.w3.org/2000/svg"
   xmlns:xlink="http://www.w3.org/1999/xlink"
   xmlns:sodipodi="http://sodipodi.sourceforge.net/DTD/sodipodi-0.dtd"
   xmlns:inkscape="http://www.inkscape.org/namespaces/inkscape"
   width="210mm"
   height="297mm"
   viewBox="0 0 744.09448819 1052.3622047"
   id="svg2"
   version="1.1"
   inkscape:version="0.91 r13725"
   inkscape:export-xdpi="3.5948951"
   inkscape:export-ydpi="3.5948951"
   sodipodi:docname="switch-course-book-2.svg"
   inkscape:export-filename="C:\Users\johannes\Documents\Arbeit\RRZE\github3\bicons\16x16\actions\switch-course-book-2.png">
  <defs
     id="defs4">
    <linearGradient
       id="linearGradient2224">
      <stop
         id="stop2226"
         offset="0"
         style="stop-color:#7c7c7c;stop-opacity:1;" />
      <stop
         id="stop2228"
         offset="1"
         style="stop-color:#b8b8b8;stop-opacity:1;" />
    </linearGradient>
    <linearGradient
       id="linearGradient15218">
      <stop
         id="stop15220"
         offset="0"
         style="stop-color:#eeeeef;stop-opacity:1;" />
      <stop
         id="stop2736"
         offset="0.59928656"
         style="stop-color:#d3d7cf;stop-opacity:1;" />
      <stop
         id="stop2738"
         offset="0.82758623"
         style="stop-color:#ffffff;stop-opacity:1;" />
      <stop
         id="stop15222"
         offset="1"
         style="stop-color:#d3d7cf;stop-opacity:1;" />
    </linearGradient>
    <pattern
       y="0"
       x="0"
       height="6"
       width="6"
       patternUnits="userSpaceOnUse"
       id="EMFhbasepattern" />
    <pattern
       y="0"
       x="0"
       height="6"
       width="6"
       patternUnits="userSpaceOnUse"
       id="EMFhbasepattern-5" />
    <pattern
       y="0"
       x="0"
       height="6"
       width="6"
       patternUnits="userSpaceOnUse"
       id="EMFhbasepattern-6" />
    <linearGradient
       inkscape:collect="always"
       xlink:href="#linearGradient4713"
       id="linearGradient4719"
       x1="66"
       y1="1042.3622"
       x2="306"
       y2="662.36218"
       gradientUnits="userSpaceOnUse"
       gradientTransform="translate(369.40951,-38.587874)" />
    <linearGradient
       inkscape:collect="always"
       id="linearGradient4713">
      <stop
         style="stop-color:#4e505d;stop-opacity:1;"
         offset="0"
         id="stop4715" />
      <stop
         style="stop-color:#7a859c;stop-opacity:1"
         offset="1"
         id="stop4717" />
    </linearGradient>
  </defs>
  <sodipodi:namedview
     id="base"
     pagecolor="#ffffff"
     bordercolor="#666666"
     borderopacity="1.0"
     inkscape:pageopacity="0.0"
     inkscape:pageshadow="2"
     inkscape:zoom="0.70710678"
     inkscape:cx="210.52633"
     inkscape:cy="423.24093"
     inkscape:document-units="px"
     inkscape:current-layer="layer1"
     showgrid="false"
     showguides="true"
     inkscape:guide-bbox="true"
     inkscape:window-width="1366"
     inkscape:window-height="721"
     inkscape:window-x="-4"
     inkscape:window-y="-4"
     inkscape:window-maximized="1"
     inkscape:snap-bbox="true"
     inkscape:bbox-paths="true"
     inkscape:bbox-nodes="true">
    <sodipodi:guide
       position="315.53572,730.17859"
       orientation="0,1"
       id="guide3338" />
    <sodipodi:guide
       position="351.25,330.17858"
       orientation="0,1"
       id="guide3340" />
    <sodipodi:guide
       position="189.10714,408.8393"
       orientation="1,0"
       id="guide3344" />
    <sodipodi:guide
       position="589.04521,468.07945"
       orientation="1,0"
       id="guide3346" />
    <inkscape:grid
       type="xygrid"
       id="grid3440" />
    <sodipodi:guide
       position="0,0"
       orientation="0,1"
       id="guide3405" />
    <sodipodi:guide
       position="214.125,684.50002"
       orientation="1,0"
       id="guide3407" />
    <sodipodi:guide
       position="0,0"
       orientation="0,1"
       id="guide3409" />
    <sodipodi:guide
       position="589.04521,378.30213"
       orientation="1,0"
       id="guide3411" />
    <sodipodi:guide
       position="564.00001,683.37502"
       orientation="1,0"
       id="guide3413" />
  </sodipodi:namedview>
  <metadata
     id="metadata7">
    <rdf:RDF>
      <cc:Work
         rdf:about="">
        <dc:format>image/svg+xml</dc:format>
        <dc:type
           rdf:resource="http://purl.org/dc/dcmitype/StillImage" />
        <dc:title />
        <dc:date>June 2015</dc:date>
        <dc:creator>
          <cc:Agent>
            <dc:title>Johannes Hechler</dc:title>
          </cc:Agent>
        </dc:creator>
        <dc:rights>
          <cc:Agent>
            <dc:title>Johannes Hechler</dc:title>
          </cc:Agent>
        </dc:rights>
        <dc:publisher>
          <cc:Agent>
            <dc:title>RRZE</dc:title>
          </cc:Agent>
        </dc:publisher>
        <dc:contributor>
          <cc:Agent>
            <dc:title>Ute Weber, Hendrik Eggers</dc:title>
          </cc:Agent>
        </dc:contributor>
      </cc:Work>
    </rdf:RDF>
  </metadata>
  <g
     inkscape:label="Ebene 1"
     inkscape:groupmode="layer"
     id="layer1">
    <g
       id="g4279"
       transform="translate(-179.12268,-292.59067)">
      <path
         sodipodi:nodetypes="sscsssccsscccsscccccssssccssscccccccccssssssscccccccccssssssscccccccsccsccccscsccssscssssccccccccsssssss"
         inkscape:connector-curvature="0"
         id="rect4162"
         d="m 441.90365,614.77431 c -12.66753,0 -22.86523,9.78775 -22.86523,21.94531 l 0,3.05469 49.60546,0 c 27.26466,0 49.99414,22.73143 49.99414,49.99609 0,27.26465 -22.72948,49.99414 -49.99414,49.99414 l -49.60546,0 0,25.02344 50.01367,0 c 27.26466,0 49.99414,22.72948 49.99414,49.99414 0,16.18646 -8.01141,30.77397 -20.22657,39.95703 l 5.93164,-0.74023 62.81641,-56.61328 c 5.85796,-5.64487 10.66884,-6.56363 15.14063,-7.25586 2.3431,-0.36273 4.68641,-0.48662 7.09179,-0.29883 1.89565,0.148 3.83265,0.4974 5.83594,1.06836 -1.1582,-3.26644 -1.80487,-6.6609 -1.83789,-10.03125 l -0.56641,-57.93555 c -0.16361,-16.70778 14.62108,-33.44304 32.76172,-33.33008 l 43.47461,0.27148 c 2.3532,-10.13562 10.74733,-20.86374 19.54102,-23.875 2.59639,-0.8891 5.07027,-1.39087 7.48242,-1.58007 0.60303,-0.0473 1.20262,-0.0767 1.79883,-0.0859 1.78861,-0.0276 3.55039,0.11268 5.3125,0.38671 4.47976,0.69668 9.30345,1.63169 15.14062,7.27344 l 0.66602,0.59766 0,-35.8711 c 0,-12.15755 -10.19774,-21.9453 -22.86524,-21.9453 z m 276.83984,57.21875 -0.39062,-0.34961 1.05664,1.01367 0,-0.006 c -0.22297,-0.22418 -0.44521,-0.44479 -0.66602,-0.65821 z M 567.56771,797.38564 c -0.28091,0.27069 -0.56184,0.54101 -0.84766,0.83398 l 1.15821,-1.11328 z M 418.22396,664.78407 c -13.84709,0 -24.99414,11.149 -24.99414,24.99609 0,13.8471 11.14705,24.99415 24.99414,24.99415 l 50.41992,0 c 13.84709,0 24.99414,-11.14705 24.99414,-24.99415 0,-13.84709 -11.14705,-24.99609 -24.99414,-24.99609 z m 300.75195,74.55079 0.004,0.84765 -75.58203,-0.4707 0.23828,24.23047 75.35742,0.4707 0,0.38672 0.41602,-0.36523 0,-24.71094 z m -300.34374,50.45117 c -13.8471,0 -24.99414,11.149 -24.99414,24.99609 0,13.8471 11.14704,24.99414 24.99414,24.99414 l 50.41992,0 c 13.8471,0 24.99414,-11.14704 24.99414,-24.99414 0,-13.84709 -11.14704,-24.99609 -24.99414,-24.99609 z m 300.77734,41.17969 -1.10352,0.96875 0.17383,-0.16602 c -6.15313,5.46687 -16.26575,9.01868 -25.92188,7.28906 0.76171,2.6707 1.17904,5.41109 1.18165,8.14453 l 0,0.002 0.0586,58.55859 c 0.0162,16.49875 -14.2712,33.12104 -32.48633,33.23438 l -43.25195,0.26953 -0.0117,-5.66797 c -0.0109,9.88849 -5.14473,22.70619 -16.50977,28.33203 -12.16589,6.02232 -26.46496,1.90392 -34.33398,-6.16211 l 1.39844,1.32617 -65.31055,-57.35351 -0.67383,-0.68946 c -3.04385,-3.12013 -9.48828,-9.46893 -9.48828,-21.53125 l 0,-19.08007 c -7.17601,4.02414 -15.39402,6.33789 -24.07812,6.33789 l -50.01367,0 0,25.56445 50.01952,0 c 27.26466,0 49.99415,22.73142 49.99415,49.99609 0,27.26479 -22.72951,49.99414 -49.99415,49.99414 l -50.01952,0 0,1.49805 c 0,12.15761 10.1977,21.94331 22.86523,21.94331 l 254.64062,0 c 12.6675,0 22.86524,-9.7857 22.86524,-21.94331 z m -75.65235,33.2832 -76.21875,0.4707 -13.99218,12.61133 14.40625,12.65039 0,-0.4043 75.82812,-0.4707 z m -225.11913,51.09375 c -13.8471,0 -24.99414,11.14705 -24.99414,24.99414 0,13.84709 11.14704,24.99609 24.99414,24.99609 l 50.41991,0 c 13.8471,0 24.99415,-11.149 24.99415,-24.99609 0,-13.84709 -11.14704,-24.99414 -24.99415,-24.99414 z"
         style="color:#000000;clip-rule:nonzero;display:inline;overflow:visible;visibility:visible;opacity:0.98999999;isolation:auto;mix-blend-mode:normal;color-interpolation:sRGB;color-interpolation-filters:linearRGB;solid-color:#000000;solid-opacity:1;fill:url(#linearGradient4719);fill-opacity:1;fill-rule:nonzero;stroke:none;stroke-width:27.79999924;stroke-linecap:square;stroke-linejoin:miter;stroke-miterlimit:4;stroke-dasharray:27.79999924, 55.59999847;stroke-dashoffset:0;stroke-opacity:1;color-rendering:auto;image-rendering:auto;shape-rendering:auto;text-rendering:auto;enable-background:accumulate" />
      <g
         id="g4724"
         transform="translate(368.22982,-37.587854)">
        <path
           style="fill:#99b000;fill-opacity:1;fill-rule:evenodd;stroke:none;stroke-width:1px;stroke-linecap:butt;stroke-linejoin:miter;stroke-opacity:1"
           d="m 149.89983,915.10691 c 0,1.22217 0.79491,2.44433 2.38464,4.0739 l 64.5848,56.71598 c 3.17949,3.2591 8.43561,1.6112 7.9487,-4.88866 l -0.041,-18.99994 68.14977,-0.42356 c 4.40349,-0.0274 7.64576,-3.69695 7.64132,-8.21078 l -0.0577,-58.56041 c -0.004,-4.51384 -3.23779,-8.11192 -7.64132,-8.08474 l -68.6342,0.42356 0.0987,-19.00012 c 0.0339,-6.51812 -6.35898,-6.51821 -7.94869,-4.88866 l -64.10032,57.76955 c -1.58971,1.62955 -2.38462,2.85172 -2.38462,4.07387 z"
           id="path4469"
           inkscape:connector-curvature="0"
           sodipodi:nodetypes="cccscsssscsccsc" />
        <path
           sodipodi:nodetypes="cccscsssscsccsc"
           inkscape:connector-curvature="0"
           id="path4848"
           d="m 400.56806,789.94282 c 0,1.22217 -0.79138,2.44433 -2.37406,4.0739 l -64.61085,56.71598 c -3.1654,3.2591 -7.92746,1.62925 -7.91346,-4.88866 l 0.0408,-18.99994 -67.53502,-0.42356 c -4.38396,-0.0275 -7.56321,-3.69716 -7.60743,-8.21078 l -0.5676,-57.93541 c -0.0442,-4.51363 3.22343,-8.11204 7.60743,-8.08474 l 68.0173,0.42356 -0.0983,-19.87512 c -0.0322,-6.51813 6.33078,-6.51821 7.91344,-4.88866 l 64.75353,58.01955 c 1.58266,1.62955 2.37404,2.85172 2.37404,4.07387 z"
           style="fill:#99b000;fill-opacity:1;fill-rule:evenodd;stroke:none;stroke-width:1px;stroke-linecap:butt;stroke-linejoin:miter;stroke-opacity:1" />
      </g>
      <path
         id="rect4742"
         d="m 368.22982,614.77433 400,0 0,399.99997 -400,0 z"
         style="color:#000000;clip-rule:nonzero;display:inline;overflow:visible;visibility:visible;opacity:1;isolation:auto;mix-blend-mode:normal;color-interpolation:sRGB;color-interpolation-filters:linearRGB;solid-color:#000000;solid-opacity:1;fill:none;fill-opacity:1;fill-rule:evenodd;stroke:none;stroke-width:50;stroke-linecap:butt;stroke-linejoin:miter;stroke-miterlimit:4;stroke-dasharray:none;stroke-dashoffset:0;stroke-opacity:1;color-rendering:auto;image-rendering:auto;shape-rendering:auto;text-rendering:auto;enable-background:accumulate"
         inkscape:connector-curvature="0" />
    </g>
  </g>
</svg>
