<?xml version="1.0" encoding="UTF-8" standalone="no"?>
<!-- Created with Inkscape (http://www.inkscape.org/) -->

<svg
   xmlns:dc="http://purl.org/dc/elements/1.1/"
   xmlns:cc="http://creativecommons.org/ns#"
   xmlns:rdf="http://www.w3.org/1999/02/22-rdf-syntax-ns#"
   xmlns:svg="http://www.w3.org/2000/svg"
   xmlns="http://www.w3.org/2000/svg"
   xmlns:xlink="http://www.w3.org/1999/xlink"
   xmlns:sodipodi="http://sodipodi.sourceforge.net/DTD/sodipodi-0.dtd"
   xmlns:inkscape="http://www.inkscape.org/namespaces/inkscape"
   width="210mm"
   height="297mm"
   viewBox="0 0 744.09448819 1052.3622047"
   id="svg2"
   version="1.1"
   inkscape:version="0.91 r13725"
   inkscape:export-xdpi="3.5939958"
   inkscape:export-ydpi="3.5939958"
   sodipodi:docname="switch-course-book.svg"
   inkscape:export-filename="C:\Users\johannes\Documents\Arbeit\RRZE\github3\bicons\16x16\actions\switch-course-book.png">
  <defs
     id="defs4">
    <linearGradient
       id="linearGradient2224">
      <stop
         id="stop2226"
         offset="0"
         style="stop-color:#7c7c7c;stop-opacity:1;" />
      <stop
         id="stop2228"
         offset="1"
         style="stop-color:#b8b8b8;stop-opacity:1;" />
    </linearGradient>
    <linearGradient
       id="linearGradient15218">
      <stop
         id="stop15220"
         offset="0"
         style="stop-color:#eeeeef;stop-opacity:1;" />
      <stop
         id="stop2736"
         offset="0.59928656"
         style="stop-color:#d3d7cf;stop-opacity:1;" />
      <stop
         id="stop2738"
         offset="0.82758623"
         style="stop-color:#ffffff;stop-opacity:1;" />
      <stop
         id="stop15222"
         offset="1"
         style="stop-color:#d3d7cf;stop-opacity:1;" />
    </linearGradient>
    <pattern
       y="0"
       x="0"
       height="6"
       width="6"
       patternUnits="userSpaceOnUse"
       id="EMFhbasepattern" />
    <pattern
       y="0"
       x="0"
       height="6"
       width="6"
       patternUnits="userSpaceOnUse"
       id="EMFhbasepattern-5" />
    <pattern
       y="0"
       x="0"
       height="6"
       width="6"
       patternUnits="userSpaceOnUse"
       id="EMFhbasepattern-6" />
    <linearGradient
       inkscape:collect="always"
       xlink:href="#linearGradient4401"
       id="linearGradient4407"
       x1="125"
       y1="1027.3622"
       x2="374.84171"
       y2="677.36218"
       gradientUnits="userSpaceOnUse"
       gradientTransform="translate(-75,-652.36216)" />
    <linearGradient
       inkscape:collect="always"
       id="linearGradient4401">
      <stop
         style="stop-color:#4e505d;stop-opacity:1;"
         offset="0"
         id="stop4403" />
      <stop
         style="stop-color:#7a859c;stop-opacity:1"
         offset="1"
         id="stop4405" />
    </linearGradient>
  </defs>
  <sodipodi:namedview
     id="base"
     pagecolor="#ffffff"
     bordercolor="#666666"
     borderopacity="1.0"
     inkscape:pageopacity="0.0"
     inkscape:pageshadow="2"
     inkscape:zoom="0.5"
     inkscape:cx="507.06395"
     inkscape:cy="385.18489"
     inkscape:document-units="px"
     inkscape:current-layer="layer1"
     showgrid="false"
     showguides="true"
     inkscape:guide-bbox="true"
     inkscape:window-width="1366"
     inkscape:window-height="721"
     inkscape:window-x="-4"
     inkscape:window-y="-4"
     inkscape:window-maximized="1"
     inkscape:snap-bbox="true"
     inkscape:bbox-paths="true"
     inkscape:bbox-nodes="true">
    <sodipodi:guide
       position="315.53572,730.17859"
       orientation="0,1"
       id="guide3338" />
    <sodipodi:guide
       position="351.25,330.17858"
       orientation="0,1"
       id="guide3340" />
    <sodipodi:guide
       position="189.10714,408.8393"
       orientation="1,0"
       id="guide3344" />
    <sodipodi:guide
       position="589.04521,468.07945"
       orientation="1,0"
       id="guide3346" />
    <inkscape:grid
       type="xygrid"
       id="grid3440" />
    <sodipodi:guide
       position="0,0"
       orientation="0,1"
       id="guide3405" />
    <sodipodi:guide
       position="214.125,684.50002"
       orientation="1,0"
       id="guide3407" />
    <sodipodi:guide
       position="0,0"
       orientation="0,1"
       id="guide3409" />
    <sodipodi:guide
       position="589.04521,378.30213"
       orientation="1,0"
       id="guide3411" />
    <sodipodi:guide
       position="564.00001,683.37502"
       orientation="1,0"
       id="guide3413" />
  </sodipodi:namedview>
  <metadata
     id="metadata7">
    <rdf:RDF>
      <cc:Work
         rdf:about="">
        <dc:format>image/svg+xml</dc:format>
        <dc:type
           rdf:resource="http://purl.org/dc/dcmitype/StillImage" />
        <dc:title>switch course book</dc:title>
        <dc:date>June 2015</dc:date>
        <dc:creator>
          <cc:Agent>
            <dc:title>Johannes Hechler</dc:title>
          </cc:Agent>
        </dc:creator>
        <dc:rights>
          <cc:Agent>
            <dc:title>Johannes Hechler</dc:title>
          </cc:Agent>
        </dc:rights>
        <dc:publisher>
          <cc:Agent>
            <dc:title>RRZE</dc:title>
          </cc:Agent>
        </dc:publisher>
        <dc:contributor>
          <cc:Agent>
            <dc:title>Ute Weber, Hendrik Eggers</dc:title>
          </cc:Agent>
        </dc:contributor>
      </cc:Work>
    </rdf:RDF>
  </metadata>
  <g
     inkscape:label="Ebene 1"
     inkscape:groupmode="layer"
     id="layer1">
    <g
       transform="translate(189.10714,-330.17853)"
       id="g4526">
      <flowRoot
         style="font-style:normal;font-weight:normal;font-size:40px;line-height:125%;font-family:sans-serif;letter-spacing:0px;word-spacing:0px;fill:#252525;fill-opacity:1;stroke:none;stroke-width:1px;stroke-linecap:butt;stroke-linejoin:miter;stroke-opacity:1"
         id="flowRoot4169"
         xml:space="preserve"
         transform="translate(-189.14485,330.09207)"><flowRegion
           id="flowRegion4171"><rect
             y="427.07962"
             x="89.541069"
             height="88.78862"
             width="56.433445"
             id="rect4173" /></flowRegion><flowPara
           id="flowPara4175" /></flowRoot>      <rect
         inkscape:export-ydpi="4.9499998"
         inkscape:export-xdpi="4.9499998"
         y="652.36218"
         x="3.7060548e-007"
         height="400"
         width="400"
         id="rect3336"
         style="fill:none;fill-rule:evenodd;stroke:none;stroke-width:1px;stroke-linecap:butt;stroke-linejoin:miter;stroke-opacity:1" />
      <path
         inkscape:connector-curvature="0"
         id="path4206"
         transform="translate(0,652.36216)"
         d="M 61.6875,0 C 61.6875,0 25,2.4375e-4 25,35.433594 l 0.158203,257.042966 0.632813,1.375 -0.791016,0 0,70.71485 C 26.26517,386.86511 34.01359,400 61.6875,400 l 219.81055,0 C 292.56765,400 300,385.6912 300,375 l 0,-37.98438 c -0.1583,-7.1784 -25,-6.6784 -25,0.5 L 275,375 75,375 c 0,0 -24.68375,1.728 -25,-25 0,-24.13151 25,-25 25,-25 l 206.49805,1.31055 c 11.0696,0 18.34375,-7.02568 18.34375,-17.7168 l 0,-33.63477 c -2.14414,0.50259 -4.37142,0.77678 -6.66016,0.79102 l -43.25,0.26758 -0.0137,-5.66797 c -0.0101,9.88851 -5.14209,22.70584 -16.50781,28.33203 -12.16589,6.02227 -26.46692,1.90394 -34.33594,-6.16211 l 1.39844,1.32813 -65.3086,-57.35352 -0.67383,-0.69141 C 131.44638,232.6826 124.07967,226.29864 125,214.27148 l 1,-13.06836 10.62305,-10.45312 62.81445,-56.61328 c 5.85796,-5.64471 10.66885,-6.56167 15.14062,-7.25391 2.34311,-0.36273 4.68642,-0.48662 7.0918,-0.29883 1.89697,0.1481 3.83507,0.49916 5.83985,1.07032 -1.15899,-3.26783 -1.80681,-6.6634 -1.83985,-10.03516 l -0.56836,-57.935546 c -0.16361,-16.70778 14.62108,-33.441095 32.76172,-33.328125 l 41.97852,0.261719 0,-8.595704 c 0,-10.9965396 -7.27384,-18.0222365 -17.71094,-17.7167965 L 61.6875,0 Z m 137.75,134.13672 c -0.28091,0.27068 -0.56184,0.54101 -0.84766,0.83398 l 1.15821,-1.11328 -0.31055,0.2793 z m 75.83203,-57.671876 0.23633,24.228516 24.33594,0.15234 0,-24.228512 -24.57227,-0.152344 z m -27.60156,72.154296 c 0.30434,0.84909 0.58466,1.69954 0.81055,2.54883 l 44.33593,-0.27344 c 2.41445,-0.0149 4.76197,0.28779 7.02735,0.83399 l 0,-0.88086 -41.72266,-0.26172 c -3.68325,-0.0231 -7.19105,-0.73256 -10.45117,-1.9668 z M 275.62695,201 l -76.21679,0.4707 -13.99219,12.61133 14.40625,12.65235 0,-0.40626 75.82812,-0.4707 L 275.62695,201 Z"
         style="fill:url(#linearGradient4407);fill-opacity:1;fill-rule:evenodd;stroke:none" />
      <g
         id="g4507">
        <path
           style="fill:#99b000;fill-opacity:1;fill-rule:evenodd;stroke:none;stroke-width:1px;stroke-linecap:butt;stroke-linejoin:miter;stroke-opacity:1"
           d="m 150,866.63353 c 0,1.22217 0.79491,2.44433 2.38464,4.0739 l 64.5848,56.71598 c 3.17949,3.2591 8.43561,1.6112 7.9487,-4.88866 l -0.041,-18.99994 68.14977,-0.42356 c 4.40349,-0.0274 7.64576,-3.69695 7.64132,-8.21078 l -0.0577,-58.56041 c -0.004,-4.51384 -3.23779,-8.11192 -7.64132,-8.08474 l -68.6342,0.42356 0.0987,-19.00012 c 0.0339,-6.51812 -6.35898,-6.51821 -7.94869,-4.88866 l -64.10032,57.76955 c -1.58971,1.62955 -2.38462,2.85172 -2.38462,4.07387 z"
           id="path4469"
           inkscape:connector-curvature="0"
           sodipodi:nodetypes="cccscsssscsccsc" />
        <path
           sodipodi:nodetypes="cccscsssscsccsc"
           inkscape:connector-curvature="0"
           id="path4848"
           d="m 400.66823,741.46944 c 0,1.22217 -0.79138,2.44433 -2.37406,4.0739 l -64.61085,56.71598 c -3.1654,3.2591 -7.92746,1.62925 -7.91346,-4.88866 l 0.0408,-18.99994 -67.53502,-0.42356 c -4.38396,-0.0275 -7.56321,-3.69716 -7.60743,-8.21078 l -0.5676,-57.93541 c -0.0442,-4.51363 3.22343,-8.11204 7.60743,-8.08474 l 68.0173,0.42356 -0.0983,-19.87512 c -0.0322,-6.51813 6.33078,-6.51821 7.91344,-4.88866 l 64.75353,58.01955 c 1.58266,1.62955 2.37404,2.85172 2.37404,4.07387 z"
           style="fill:#99b000;fill-opacity:1;fill-rule:evenodd;stroke:none;stroke-width:1px;stroke-linecap:butt;stroke-linejoin:miter;stroke-opacity:1" />
      </g>
    </g>
  </g>
</svg>
