<?xml version="1.0" encoding="UTF-8" standalone="no"?>
<!-- Created with Inkscape (http://www.inkscape.org/) -->

<svg
   xmlns:dc="http://purl.org/dc/elements/1.1/"
   xmlns:cc="http://creativecommons.org/ns#"
   xmlns:rdf="http://www.w3.org/1999/02/22-rdf-syntax-ns#"
   xmlns:svg="http://www.w3.org/2000/svg"
   xmlns="http://www.w3.org/2000/svg"
   xmlns:xlink="http://www.w3.org/1999/xlink"
   xmlns:sodipodi="http://sodipodi.sourceforge.net/DTD/sodipodi-0.dtd"
   xmlns:inkscape="http://www.inkscape.org/namespaces/inkscape"
   width="210mm"
   height="297mm"
   viewBox="0 0 744.09448819 1052.3622047"
   id="svg2"
   version="1.1"
   inkscape:version="0.91 r13725"
   inkscape:export-xdpi="3.5962756"
   inkscape:export-ydpi="3.5962756"
   sodipodi:docname="approval.svg"
   inkscape:export-filename="C:\Users\johannes\Documents\Arbeit\RRZE\github3\bicons\16x16\documents\approval.png">
  <defs
     id="defs4">
    <linearGradient
       id="linearGradient2224">
      <stop
         id="stop2226"
         offset="0"
         style="stop-color:#7c7c7c;stop-opacity:1;" />
      <stop
         id="stop2228"
         offset="1"
         style="stop-color:#b8b8b8;stop-opacity:1;" />
    </linearGradient>
    <linearGradient
       id="linearGradient15218">
      <stop
         id="stop15220"
         offset="0"
         style="stop-color:#eeeeef;stop-opacity:1;" />
      <stop
         id="stop2736"
         offset="0.59928656"
         style="stop-color:#d3d7cf;stop-opacity:1;" />
      <stop
         id="stop2738"
         offset="0.82758623"
         style="stop-color:#ffffff;stop-opacity:1;" />
      <stop
         id="stop15222"
         offset="1"
         style="stop-color:#d3d7cf;stop-opacity:1;" />
    </linearGradient>
    <pattern
       y="0"
       x="0"
       height="6"
       width="6"
       patternUnits="userSpaceOnUse"
       id="EMFhbasepattern" />
    <linearGradient
       inkscape:collect="always"
       xlink:href="#linearGradient4195"
       id="linearGradient4201"
       x1="286.38269"
       y1="672.9209"
       x2="532.51678"
       y2="367.74933"
       gradientUnits="userSpaceOnUse"
       gradientTransform="matrix(1.1363532,0,0,1.1365308,-91.717329,-83.547181)" />
    <linearGradient
       inkscape:collect="always"
       id="linearGradient4195">
      <stop
         style="stop-color:#4e505d;stop-opacity:1"
         offset="0"
         id="stop4197" />
      <stop
         style="stop-color:#7a8597;stop-opacity:1"
         offset="1"
         id="stop4199" />
    </linearGradient>
  </defs>
  <sodipodi:namedview
     id="base"
     pagecolor="#ffffff"
     bordercolor="#666666"
     borderopacity="1.0"
     inkscape:pageopacity="0.0"
     inkscape:pageshadow="2"
     inkscape:zoom="1"
     inkscape:cx="426.06951"
     inkscape:cy="487.94487"
     inkscape:document-units="px"
     inkscape:current-layer="layer1"
     showgrid="false"
     showguides="true"
     inkscape:guide-bbox="true"
     inkscape:window-width="1366"
     inkscape:window-height="721"
     inkscape:window-x="-4"
     inkscape:window-y="-4"
     inkscape:window-maximized="1"
     inkscape:snap-bbox="true"
     inkscape:bbox-paths="true"
     inkscape:bbox-nodes="true"
     inkscape:snap-nodes="false">
    <sodipodi:guide
       position="315.53572,730.17859"
       orientation="0,1"
       id="guide3338" />
    <sodipodi:guide
       position="351.25,330.17858"
       orientation="0,1"
       id="guide3340" />
    <sodipodi:guide
       position="189.10714,408.8393"
       orientation="1,0"
       id="guide3344" />
    <sodipodi:guide
       position="589.04521,468.07945"
       orientation="1,0"
       id="guide3346" />
    <inkscape:grid
       type="xygrid"
       id="grid3440" />
    <sodipodi:guide
       position="589.04521,378.30213"
       orientation="1,0"
       id="guide3411" />
  </sodipodi:namedview>
  <metadata
     id="metadata7">
    <rdf:RDF>
      <cc:Work
         rdf:about="">
        <dc:format>image/svg+xml</dc:format>
        <dc:type
           rdf:resource="http://purl.org/dc/dcmitype/StillImage" />
        <dc:title>approval</dc:title>
        <dc:date>June 2015</dc:date>
        <dc:creator>
          <cc:Agent>
            <dc:title>Johannes Hechler</dc:title>
          </cc:Agent>
        </dc:creator>
        <dc:rights>
          <cc:Agent>
            <dc:title>Johannes Hechler</dc:title>
          </cc:Agent>
        </dc:rights>
        <dc:publisher>
          <cc:Agent>
            <dc:title>RRZE</dc:title>
          </cc:Agent>
        </dc:publisher>
        <dc:contributor>
          <cc:Agent>
            <dc:title>Ute Weber, Hendrik Eggers</dc:title>
          </cc:Agent>
        </dc:contributor>
      </cc:Work>
    </rdf:RDF>
  </metadata>
  <g
     inkscape:label="Ebene 1"
     inkscape:groupmode="layer"
     id="layer1">
    <g
       id="g4191"
       transform="translate(35.314246,30.194213)">
      <rect
         inkscape:export-ydpi="3.5999999"
         inkscape:export-xdpi="3.5999999"
         y="292.73502"
         x="154.1795"
         height="400"
         width="400"
         id="rect3336-82"
         style="fill:none;fill-rule:evenodd;stroke:none;stroke-width:1px;stroke-linecap:butt;stroke-linejoin:miter;stroke-opacity:1" />
      <rect
         inkscape:export-ydpi="3.5999999"
         inkscape:export-xdpi="3.5999999"
         y="292.58887"
         x="154.16705"
         height="400"
         width="400"
         id="rect3336-8"
         style="fill:none;fill-rule:evenodd;stroke:none;stroke-width:1px;stroke-linecap:butt;stroke-linejoin:miter;stroke-opacity:1" />
      <rect
         inkscape:export-ydpi="3.5999999"
         inkscape:export-xdpi="3.5999999"
         y="292.64087"
         x="154.20709"
         height="400"
         width="400"
         id="rect3336-0"
         style="fill:none;fill-rule:evenodd;stroke:none;stroke-width:1px;stroke-linecap:butt;stroke-linejoin:miter;stroke-opacity:1" />
      <path
         inkscape:connector-curvature="0"
         id="path4244"
         d="m 221.12322,291.98956 c -11.3891,-0.0191 -17.07144,5.6122 -17.02344,16.83467 -0.048,93.33835 -0.048,252.4508 -0.0176,366.12556 -0.0303,11.34362 5.68558,17.09893 16.97852,17.02219 l 158.86523,0.041 c -8.69577,-29.60385 -24.83584,-55.38373 -52.77539,-74.55071 a 25.0025,25.006406 0 0 1 -6.94336,-34.05414 l 15.28125,-23.99008 a 25.0025,25.006406 0 0 1 28.90234,-10.31411 c 13.92762,4.58623 27.08938,10.62975 41.56641,20.54228 25.12159,-50.82716 58.09048,-103.91377 95.10352,-153.44976 -30.31455,1.15173 -119.45804,3.63644 -122.01367,1.52173 -2.64648,-2.18989 0.32421,-125.70519 0.32421,-125.70519 0,0 -133.18085,-0.026 -158.24804,-0.0234 z m 183.35937,0.0176 c -0.90129,34.04608 -0.93996,67.57454 0,100.51569 31.76562,2.32485 62.87262,1.25057 100.25586,0 -26.33709,-42.588 -56.99667,-74.85253 -100.25586,-100.51573 z m 100.14258,281.42872 c -15.64414,36.44968 -28.4996,75.58898 -36.15234,118.60056 l 18.9707,0.006 c 11.42287,-0.0653 17.10688,-5.74864 17.18164,-17.20972 l 0,-101.3967 z m -72.31445,53.59626 a 25.0025,25.006406 0 0 1 -24.1543,5.86029 c 5.95217,10.02807 10.90511,20.4361 14.90234,31.09275 2.72109,-12.63244 5.80092,-24.96426 9.25196,-36.95304 z"
         style="fill:url(#linearGradient4201);fill-opacity:1;fill-rule:evenodd;stroke:none;stroke-width:1px;stroke-linecap:butt;stroke-linejoin:miter;stroke-opacity:1" />
      <path
         id="rect4227"
         d="m 239.30486,443.1712 c -6.925,0 -12.5,5.575 -12.5,12.5 l 0,0.10157 c 0,6.925 5.575,12.5 12.5,12.5 l 195.77929,0 c 5.36246,-8.40855 10.88417,-16.77858 16.52344,-25.10157 l -212.30273,0 z m 0,50.39063 c -6.925,0 -12.5,5.575 -12.5,12.5 l 0,0.10156 c 0,6.925 5.575,12.5 12.5,12.5 l 165.6289,0 c 4.67416,-8.35474 9.52106,-16.71812 14.52149,-25.07422 -0.18338,-0.008 -0.36344,-0.0273 -0.54883,-0.0273 l -179.60156,0 z m 0,49.71875 c -6.925,0 -12.5,5.575 -12.5,12.5 l 0,0.10156 c 0,6.925 5.575,12.5 12.5,12.5 l 61.20117,0 13.89844,-21.81445 a 25.0025,25.0025 0 0 0 0,-0.002 c 0.72245,-1.13371 1.48919,-2.22673 2.29101,-3.28516 l -77.39062,0 z m 207.84961,2.32031 c -4.24067,7.6295 -8.32485,15.2296 -12.23047,22.78125 l 4.97461,0 c 6.925,0 12.5,-5.575 12.5,-12.5 l 0,-0.10156 c 0,-4.21246 -2.06934,-7.91729 -5.24414,-10.17969 z"
         style="color:#252525;clip-rule:nonzero;display:inline;overflow:visible;visibility:visible;opacity:18000004;isolation:auto;mix-blend-mode:normal;color-interpolation:sRGB;color-interpolation-filters:linearRGB;solid-color:#252525;solid-opacity:1;fill:#ffffff;fill-opacity:1;fill-rule:nonzero;stroke:none;stroke-width:50;stroke-linecap:square;stroke-linejoin:round;stroke-miterlimit:4;stroke-dasharray:none;stroke-dashoffset:0;stroke-opacity:1;color-rendering:auto;image-rendering:auto;shape-rendering:auto;text-rendering:auto;enable-background:accumulate"
         inkscape:connector-curvature="0" />
      <rect
         inkscape:export-ydpi="4.9499998"
         inkscape:export-xdpi="4.9499998"
         y="291.99454"
         x="153.79289"
         height="400"
         width="400"
         id="rect3336"
         style="fill:none;fill-rule:evenodd;stroke:none;stroke-width:1px;stroke-linecap:butt;stroke-linejoin:miter;stroke-opacity:1" />
      <path
         sodipodi:nodetypes="ccccccccc"
         inkscape:connector-curvature="0"
         id="path4187"
         d="m 533.86113,414.96414 c -48.4242,62.12139 -91.07639,131.74954 -118.69812,194.3947 -24.3985,-22.13541 -38.72617,-29.52752 -58.52686,-36.04669 l -15.28105,23.98524 c 35.14715,24.10775 54.99254,58.06909 64.42977,94.66682 12.49003,-0.0531 24.98006,-0.10812 37.47009,-0.16259 18.10721,-106.25329 66.47441,-189.21226 110.29042,-263.03239 L 533.86092,414.9642 Z"
         style="color:#252525;font-style:normal;font-variant:normal;font-weight:normal;font-stretch:normal;font-size:medium;line-height:normal;font-family:sans-serif;text-indent:0;text-align:start;text-decoration:none;text-decoration-line:none;text-decoration-style:solid;text-decoration-color:#252525;letter-spacing:normal;word-spacing:normal;text-transform:none;direction:ltr;block-progression:tb;writing-mode:lr-tb;baseline-shift:baseline;text-anchor:start;white-space:normal;clip-rule:nonzero;display:inline;overflow:visible;visibility:visible;opacity:1;isolation:auto;mix-blend-mode:normal;color-interpolation:sRGB;color-interpolation-filters:linearRGB;solid-color:#252525;solid-opacity:1;fill:#abbe24;fill-opacity:1;fill-rule:evenodd;stroke:none;stroke-width:22;stroke-linecap:butt;stroke-linejoin:miter;stroke-miterlimit:4;stroke-dasharray:none;stroke-dashoffset:0;stroke-opacity:1;color-rendering:auto;image-rendering:auto;shape-rendering:auto;text-rendering:auto;enable-background:accumulate" />
    </g>
  </g>
</svg>
