<?xml version="1.0" encoding="UTF-8" standalone="no"?>
<!-- Created with Inkscape (http://www.inkscape.org/) -->

<svg
   xmlns:dc="http://purl.org/dc/elements/1.1/"
   xmlns:cc="http://creativecommons.org/ns#"
   xmlns:rdf="http://www.w3.org/1999/02/22-rdf-syntax-ns#"
   xmlns:svg="http://www.w3.org/2000/svg"
   xmlns="http://www.w3.org/2000/svg"
   xmlns:xlink="http://www.w3.org/1999/xlink"
   xmlns:sodipodi="http://sodipodi.sourceforge.net/DTD/sodipodi-0.dtd"
   xmlns:inkscape="http://www.inkscape.org/namespaces/inkscape"
   width="210mm"
   height="297mm"
   viewBox="0 0 744.09448819 1052.3622047"
   id="svg2"
   version="1.1"
   inkscape:version="0.91 r13725"
   inkscape:export-xdpi="3.5988414"
   inkscape:export-ydpi="3.5988414"
   sodipodi:docname="different-documents.svg"
   inkscape:export-filename="C:\Users\johannes\Documents\Arbeit\RRZE\github3\bicons\16x16\documents\different-documents.png">
  <defs
     id="defs4">
    <linearGradient
       id="linearGradient2224">
      <stop
         id="stop2226"
         offset="0"
         style="stop-color:#7c7c7c;stop-opacity:1;" />
      <stop
         id="stop2228"
         offset="1"
         style="stop-color:#b8b8b8;stop-opacity:1;" />
    </linearGradient>
    <linearGradient
       id="linearGradient15218">
      <stop
         id="stop15220"
         offset="0"
         style="stop-color:#eeeeef;stop-opacity:1;" />
      <stop
         id="stop2736"
         offset="0.59928656"
         style="stop-color:#d3d7cf;stop-opacity:1;" />
      <stop
         id="stop2738"
         offset="0.82758623"
         style="stop-color:#ffffff;stop-opacity:1;" />
      <stop
         id="stop15222"
         offset="1"
         style="stop-color:#d3d7cf;stop-opacity:1;" />
    </linearGradient>
    <pattern
       y="0"
       x="0"
       height="6"
       width="6"
       patternUnits="userSpaceOnUse"
       id="EMFhbasepattern" />
    <linearGradient
       inkscape:collect="always"
       xlink:href="#linearGradient4195"
       id="linearGradient4396"
       gradientUnits="userSpaceOnUse"
       gradientTransform="matrix(0.73197443,0,0,0.71223062,129.85172,70.469221)"
       x1="286.38269"
       y1="672.9209"
       x2="532.51678"
       y2="367.74933" />
    <linearGradient
       id="linearGradient4195"
       inkscape:collect="always">
      <stop
         id="stop4220"
         offset="0"
         style="stop-color:#4e505d;stop-opacity:1" />
      <stop
         id="stop4222"
         offset="1"
         style="stop-color:#7a8597;stop-opacity:1" />
    </linearGradient>
    <linearGradient
       inkscape:collect="always"
       xlink:href="#linearGradient4226"
       id="linearGradient4232"
       x1="211.66138"
       y1="445.36218"
       x2="407.08182"
       y2="445.36218"
       gradientUnits="userSpaceOnUse"
       gradientTransform="matrix(1.0255859,0,0,1,-0.37555953,-114.92038)" />
    <linearGradient
       inkscape:collect="always"
       id="linearGradient4226">
      <stop
         style="stop-color:#99b000;stop-opacity:1;"
         offset="0"
         id="stop4228" />
      <stop
         style="stop-color:#a9bc24;stop-opacity:1"
         offset="1"
         id="stop4230" />
    </linearGradient>
  </defs>
  <sodipodi:namedview
     id="base"
     pagecolor="#ffffff"
     bordercolor="#666666"
     borderopacity="1.0"
     inkscape:pageopacity="0.0"
     inkscape:pageshadow="2"
     inkscape:zoom="0.70710678"
     inkscape:cx="518.08354"
     inkscape:cy="541.21472"
     inkscape:document-units="px"
     inkscape:current-layer="layer1"
     showgrid="false"
     showguides="true"
     inkscape:guide-bbox="true"
     inkscape:window-width="1366"
     inkscape:window-height="721"
     inkscape:window-x="-4"
     inkscape:window-y="-4"
     inkscape:window-maximized="1"
     showborder="false"
     inkscape:snap-bbox="true"
     inkscape:bbox-paths="true"
     inkscape:bbox-nodes="true"
     inkscape:snap-nodes="false">
    <sodipodi:guide
       position="315.53572,730.17859"
       orientation="0,1"
       id="guide3338" />
    <sodipodi:guide
       position="351.25,330.17858"
       orientation="0,1"
       id="guide3340" />
    <sodipodi:guide
       position="189.10714,408.8393"
       orientation="1,0"
       id="guide3344" />
    <inkscape:grid
       type="xygrid"
       id="grid3440" />
    <sodipodi:guide
       position="589.04521,378.30213"
       orientation="1,0"
       id="guide3411" />
    <sodipodi:guide
       position="214,437.50001"
       orientation="1,0"
       id="guide4189" />
    <sodipodi:guide
       position="564,376.00001"
       orientation="1,0"
       id="guide4191" />
  </sodipodi:namedview>
  <metadata
     id="metadata7">
    <rdf:RDF>
      <cc:Work
         rdf:about="">
        <dc:format>image/svg+xml</dc:format>
        <dc:type
           rdf:resource="http://purl.org/dc/dcmitype/StillImage" />
        <dc:title>different documents</dc:title>
        <dc:date>June 2015</dc:date>
        <dc:creator>
          <cc:Agent>
            <dc:title>Johannes Hechler</dc:title>
          </cc:Agent>
        </dc:creator>
        <dc:rights>
          <cc:Agent>
            <dc:title>Johannes Hechler</dc:title>
          </cc:Agent>
        </dc:rights>
        <dc:publisher>
          <cc:Agent>
            <dc:title>RRZE</dc:title>
          </cc:Agent>
        </dc:publisher>
        <dc:contributor>
          <cc:Agent>
            <dc:title>Ute Weber, Hendrik Eggers</dc:title>
          </cc:Agent>
        </dc:contributor>
      </cc:Work>
    </rdf:RDF>
  </metadata>
  <g
     inkscape:label="Ebene 1"
     inkscape:groupmode="layer"
     id="layer1">
    <g
       id="g4265"
       transform="translate(22.89022,116.73714)">
      <rect
         inkscape:export-ydpi="3.5999999"
         inkscape:export-xdpi="3.5999999"
         y="206.63126"
         x="166.3457"
         height="400"
         width="400"
         id="rect3336"
         style="fill:none;fill-rule:evenodd;stroke:none;stroke-width:1px;stroke-linecap:butt;stroke-linejoin:miter;stroke-opacity:1" />
      <path
         sodipodi:nodetypes="ccccccscccccccccccc"
         inkscape:connector-curvature="0"
         id="path4204"
         d="m 227.63691,205.44661 c -7.30021,-0.0119 -10.94092,3.50668 -10.91016,10.51953 -0.0308,58.32651 -0.0312,157.75446 -0.0117,228.78906 -0.0194,7.08855 3.64425,10.68664 10.88282,10.63868 l 63.93163,0.0156 c -0.002,-50.16282 -0.0128,-103.48769 0.006,-138.94141 -0.0346,-7.87176 2.53065,-18.4786 10.38282,-26.03711 4.97367,-4.78766 10.84354,-7.3691 16.43164,-8.61914 -1.00668,-12.35654 0.56836,-76.34961 0.56836,-76.34961 0,0 -75.21363,-0.0173 -91.28125,-0.0156 z m 113.37695,0.0117 c -0.5777,21.27517 -0.60249,54.22583 0,74.81054 3.41384,0.24358 7.23187,0.40932 11.19727,0.54297 16.54812,0.002 28.36198,0.003 45.05078,0.006 6.91958,-0.15262 13.65468,-0.34647 19.85937,-0.54883 -16.8816,-26.61297 -48.37906,-58.77381 -76.10742,-74.81058 z m -11.57031,80.50586 c -2.41651,54.61467 -2.36401,54.62816 0.004,0.002 -10e-4,-2.1e-4 -0.003,-0.002 -0.004,-0.002 z"
         style="fill:url(#linearGradient4232);fill-opacity:1;fill-rule:evenodd;stroke:none;stroke-width:1px;stroke-linecap:butt;stroke-linejoin:miter;stroke-opacity:1" />
      <rect
         inkscape:export-ydpi="4.9499998"
         inkscape:export-xdpi="4.9499998"
         y="206.68674"
         x="166.21692"
         height="400"
         width="400"
         id="rect3336-4"
         style="fill:none;fill-rule:evenodd;stroke:none;stroke-width:1px;stroke-linecap:butt;stroke-linejoin:miter;stroke-opacity:1" />
      <path
         id="path4244"
         d="m 327.50214,305.80794 c -7.33621,-0.012 -10.99772,3.51604 -10.9668,10.54883 -0.019,35.98055 -0.008,90.18455 -0.006,141.13672 l 34.26563,-60.41016 -0.68164,1.28711 c 4.8955,-9.93981 15.32037,-17.5324 27.5332,-17.90821 a 25.0025,25.0025 0 0 0 0.002,0 c 12.84698,-0.39388 24.22048,7.36983 29.40625,17.81055 l -0.6875,-1.28906 91.20703,159.52344 9.20507,0.002 c 7.35798,-0.041 11.0202,-3.60284 11.06836,-10.78516 l 0,-142.16015 c -17.28116,0.6805 -99.05116,2.40554 -100.75586,1.0332 -1.70471,-1.37233 0.20899,-98.77539 0.20899,-98.77539 0,0 -73.65196,-0.0153 -89.79883,-0.0137 z m 113.97461,0.50976 c -0.58056,21.33569 0.39453,53.84698 1,74.49024 20.46161,1.45692 51.36319,0.28369 75.44336,-0.5 -16.96486,-26.68863 -48.57824,-57.90785 -76.44336,-73.99024 z m -62.80469,142.96289 -59.33398,104.60352 c 1.82691,1.73566 4.53571,2.6038 8.12305,2.58008 l 112.50976,0.0273 -61.29883,-107.21094 z"
         style="fill:url(#linearGradient4396);fill-opacity:1;fill-rule:evenodd;stroke:none;stroke-width:1px;stroke-linecap:butt;stroke-linejoin:miter;stroke-opacity:1"
         inkscape:connector-curvature="0" />
      <path
         sodipodi:nodetypes="cccccccc"
         inkscape:connector-curvature="0"
         id="path4168"
         d="m 378.41554,405.44958 c -2.4634,0.0758 -4.70279,1.58776 -5.87435,3.96649 L 267.10496,595.29765 c -2.48099,5.0409 0.84559,11.1609 6.06713,11.1619 l 211.71449,0 c 5.23233,-0.001 8.55799,-6.1438 6.05561,-11.1854 L 384.66393,409.39256 c -1.24121,-2.49898 -3.65548,-4.02248 -6.24839,-3.94298 z"
         style="color:#000000;font-style:normal;font-variant:normal;font-weight:normal;font-stretch:normal;font-size:medium;line-height:normal;font-family:sans-serif;text-indent:0;text-align:start;text-decoration:none;text-decoration-line:none;text-decoration-style:solid;text-decoration-color:#000000;letter-spacing:normal;word-spacing:normal;text-transform:none;direction:ltr;block-progression:tb;writing-mode:lr-tb;baseline-shift:baseline;text-anchor:start;white-space:normal;clip-rule:nonzero;display:inline;overflow:visible;visibility:visible;opacity:1;isolation:auto;mix-blend-mode:normal;color-interpolation:sRGB;color-interpolation-filters:linearRGB;solid-color:#000000;solid-opacity:1;fill:#e23434;fill-opacity:1;fill-rule:evenodd;stroke:none;stroke-width:16.34736443px;stroke-linecap:butt;stroke-linejoin:round;stroke-miterlimit:4;stroke-dasharray:none;stroke-dashoffset:0;stroke-opacity:1;color-rendering:auto;image-rendering:auto;shape-rendering:auto;text-rendering:auto;enable-background:accumulate" />
      <g
         id="text4159"
         style="font-style:normal;font-weight:normal;font-size:439.66983032px;line-height:125%;font-family:sans-serif;letter-spacing:0px;word-spacing:0px;opacity:1;fill:#252525;fill-opacity:1;stroke:none;stroke-width:9.76847267;stroke-linecap:butt;stroke-linejoin:miter;stroke-miterlimit:4;stroke-dasharray:none;stroke-opacity:1"
         transform="matrix(0.53363381,0,0,0.44811231,114.94991,223.09125)">
        <path
           sodipodi:nodetypes="cccccccccc"
           inkscape:connector-curvature="0"
           id="path4164"
           style="fill:#ffffff;stroke:none;stroke-width:9.76847267;stroke-linecap:butt;stroke-miterlimit:4;stroke-dasharray:none"
           d="m 519.02767,522.04033 -5.58175,187.01078 c -12.16534,5.01978 -24.33069,4.83379 -36.49603,0 l -6.01111,-187.01078 c 13.40019,-4.72846 27.49602,-8.20596 48.08889,0 z m -3.98492,279.85914 c -13.86181,3.47713 -23.13146,4.17399 -38.6141,0 -2.01753,-14.71061 -3.57066,-37.22827 0,-53.01557 14.59841,-3.7477 24.48841,-3.83236 38.6141,0 3.63298,15.48521 2.41977,37.91623 0,53.01557 z" />
      </g>
      <path
         sodipodi:nodetypes="sssccssssccs"
         inkscape:connector-curvature="0"
         id="rect4626"
         d="m 254.20136,330.44661 c -6.925,0 -12.5,5.575 -12.5,12.5 0,6.925 5.575,12.5 12.5,12.5 l 12.33203,0 c 0.002,-7.68263 -9.8e-4,-18.102 0.002,-25 z m 0,50 c -6.92499,0 -12.5,5.575 -12.5,12.5 0,6.925 5.57501,12.5 12.5,12.5 l 12.33008,0 c 8.5e-4,-8.71267 4.5e-4,-16.71248 0.002,-25 z"
         style="color:#000000;clip-rule:nonzero;display:inline;overflow:visible;visibility:visible;opacity:1;isolation:auto;mix-blend-mode:normal;color-interpolation:sRGB;color-interpolation-filters:linearRGB;solid-color:#000000;solid-opacity:1;fill:#ffffff;fill-opacity:1;fill-rule:nonzero;stroke:none;stroke-width:50;stroke-linecap:butt;stroke-linejoin:round;stroke-miterlimit:4;stroke-dasharray:none;stroke-dashoffset:0;stroke-opacity:1;color-rendering:auto;image-rendering:auto;shape-rendering:auto;text-rendering:auto;enable-background:accumulate" />
      <path
         sodipodi:nodetypes="ccsssc"
         inkscape:connector-curvature="0"
         id="rect4634"
         d="m 445.73652,430.44661 15.71875,25 17.74609,0 c 6.925,0 12.5,-5.575 12.5,-12.5 0,-6.925 -5.575,-12.5 -12.5,-12.5 z"
         style="color:#000000;clip-rule:nonzero;display:inline;overflow:visible;visibility:visible;opacity:1;isolation:auto;mix-blend-mode:normal;color-interpolation:sRGB;color-interpolation-filters:linearRGB;solid-color:#000000;solid-opacity:1;fill:#ffffff;fill-opacity:1;fill-rule:nonzero;stroke:none;stroke-width:50;stroke-linecap:butt;stroke-linejoin:round;stroke-miterlimit:4;stroke-dasharray:none;stroke-dashoffset:0;stroke-opacity:1;color-rendering:auto;image-rendering:auto;shape-rendering:auto;text-rendering:auto;enable-background:accumulate" />
    </g>
  </g>
</svg>
