<?xml version="1.0" encoding="UTF-8" standalone="no"?>
<!-- Created with Inkscape (http://www.inkscape.org/) -->

<svg
   xmlns:dc="http://purl.org/dc/elements/1.1/"
   xmlns:cc="http://creativecommons.org/ns#"
   xmlns:rdf="http://www.w3.org/1999/02/22-rdf-syntax-ns#"
   xmlns:svg="http://www.w3.org/2000/svg"
   xmlns="http://www.w3.org/2000/svg"
   xmlns:xlink="http://www.w3.org/1999/xlink"
   xmlns:sodipodi="http://sodipodi.sourceforge.net/DTD/sodipodi-0.dtd"
   xmlns:inkscape="http://www.inkscape.org/namespaces/inkscape"
   width="210mm"
   height="297mm"
   viewBox="0 0 744.09448819 1052.3622047"
   id="svg2"
   version="1.1"
   inkscape:version="0.91 r13725"
   inkscape:export-xdpi="3.5996397"
   inkscape:export-ydpi="3.5996397"
   sodipodi:docname="document-new_list.svg"
   inkscape:export-filename="C:\Users\johannes\Documents\Arbeit\RRZE\github3\bicons\16x16\documents\document-new_list.png">
  <defs
     id="defs4">
    <linearGradient
       id="linearGradient2224">
      <stop
         id="stop2226"
         offset="0"
         style="stop-color:#7c7c7c;stop-opacity:1;" />
      <stop
         id="stop2228"
         offset="1"
         style="stop-color:#b8b8b8;stop-opacity:1;" />
    </linearGradient>
    <linearGradient
       id="linearGradient15218">
      <stop
         id="stop15220"
         offset="0"
         style="stop-color:#eeeeef;stop-opacity:1;" />
      <stop
         id="stop2736"
         offset="0.59928656"
         style="stop-color:#d3d7cf;stop-opacity:1;" />
      <stop
         id="stop2738"
         offset="0.82758623"
         style="stop-color:#ffffff;stop-opacity:1;" />
      <stop
         id="stop15222"
         offset="1"
         style="stop-color:#d3d7cf;stop-opacity:1;" />
    </linearGradient>
    <pattern
       y="0"
       x="0"
       height="6"
       width="6"
       patternUnits="userSpaceOnUse"
       id="EMFhbasepattern" />
    <linearGradient
       inkscape:collect="always"
       xlink:href="#linearGradient4195"
       id="linearGradient4378"
       gradientUnits="userSpaceOnUse"
       gradientTransform="matrix(1.1363532,0,0,1.1363532,-113.56422,259.04786)"
       x1="286.38269"
       y1="672.9209"
       x2="532.51678"
       y2="367.74933" />
    <linearGradient
       inkscape:collect="always"
       id="linearGradient4195">
      <stop
         style="stop-color:#4e505d;stop-opacity:1"
         offset="0"
         id="stop4197" />
      <stop
         style="stop-color:#7a8597;stop-opacity:1"
         offset="1"
         id="stop4199" />
    </linearGradient>
  </defs>
  <sodipodi:namedview
     id="base"
     pagecolor="#ffffff"
     bordercolor="#666666"
     borderopacity="1.0"
     inkscape:pageopacity="0.0"
     inkscape:pageshadow="2"
     inkscape:zoom="0.70710678"
     inkscape:cx="283.24471"
     inkscape:cy="405.10681"
     inkscape:document-units="px"
     inkscape:current-layer="layer1"
     showgrid="false"
     showguides="true"
     inkscape:guide-bbox="true"
     inkscape:window-width="1366"
     inkscape:window-height="721"
     inkscape:window-x="-4"
     inkscape:window-y="-4"
     inkscape:window-maximized="1"
     inkscape:snap-bbox="true"
     inkscape:bbox-paths="true"
     inkscape:bbox-nodes="true">
    <sodipodi:guide
       position="315.53572,730.17859"
       orientation="0,1"
       id="guide3338" />
    <sodipodi:guide
       position="351.25,330.17858"
       orientation="0,1"
       id="guide3340" />
    <sodipodi:guide
       position="189.10714,408.8393"
       orientation="1,0"
       id="guide3344" />
    <sodipodi:guide
       position="589.04521,468.07945"
       orientation="1,0"
       id="guide3346" />
    <inkscape:grid
       type="xygrid"
       id="grid3440" />
    <sodipodi:guide
       position="0,0"
       orientation="0,1"
       id="guide3405" />
    <sodipodi:guide
       position="214.125,684.50002"
       orientation="1,0"
       id="guide3407" />
    <sodipodi:guide
       position="0,0"
       orientation="0,1"
       id="guide3409" />
    <sodipodi:guide
       position="589.04521,378.30213"
       orientation="1,0"
       id="guide3411" />
    <sodipodi:guide
       position="564.00001,683.37502"
       orientation="1,0"
       id="guide3413" />
  </sodipodi:namedview>
  <metadata
     id="metadata7">
    <rdf:RDF>
      <cc:Work
         rdf:about="">
        <dc:format>image/svg+xml</dc:format>
        <dc:type
           rdf:resource="http://purl.org/dc/dcmitype/StillImage" />
        <dc:title>document new list</dc:title>
        <dc:date>June 2015</dc:date>
        <dc:creator>
          <cc:Agent>
            <dc:title>Johannes Hechler</dc:title>
          </cc:Agent>
        </dc:creator>
        <dc:rights>
          <cc:Agent>
            <dc:title>Johannes Hechler</dc:title>
          </cc:Agent>
        </dc:rights>
        <dc:publisher>
          <cc:Agent>
            <dc:title>RRZE</dc:title>
          </cc:Agent>
        </dc:publisher>
        <dc:contributor>
          <cc:Agent>
            <dc:title>Ute Weber, Hendrik Eggers</dc:title>
          </cc:Agent>
        </dc:contributor>
      </cc:Work>
    </rdf:RDF>
  </metadata>
  <g
     inkscape:label="Ebene 1"
     inkscape:groupmode="layer"
     id="layer1">
    <g
       id="g4198"
       transform="translate(56.786963,-312.31661)">
      <rect
         inkscape:export-ydpi="3.5999999"
         inkscape:export-xdpi="3.5999999"
         y="634.64636"
         x="132.33263"
         height="400"
         width="400"
         id="rect4318"
         style="fill:none;fill-rule:evenodd;stroke:none;stroke-width:1px;stroke-linecap:butt;stroke-linejoin:miter;stroke-opacity:1" />
      <rect
         inkscape:export-ydpi="3.5999999"
         inkscape:export-xdpi="3.5999999"
         y="634.50024"
         x="132.32018"
         height="400"
         width="400"
         id="rect4320"
         style="fill:none;fill-rule:evenodd;stroke:none;stroke-width:1px;stroke-linecap:butt;stroke-linejoin:miter;stroke-opacity:1" />
      <rect
         inkscape:export-ydpi="3.5999999"
         inkscape:export-xdpi="3.5999999"
         y="634.55225"
         x="132.36021"
         height="400"
         width="400"
         id="rect4322"
         style="fill:none;fill-rule:evenodd;stroke:none;stroke-width:1px;stroke-linecap:butt;stroke-linejoin:miter;stroke-opacity:1" />
      <path
         id="path4324"
         d="m 199.2772,634.52562 c -11.3891,-0.0191 -17.07144,5.61132 -17.02344,16.83204 -0.048,93.32377 -0.048,252.41135 -0.0176,366.06834 -0.0303,11.3418 5.68558,17.0963 16.97852,17.0195 l 160.54492,0.043 c -0.66713,-2.5796 -1.02531,-5.2702 -1.02343,-8.0293 l 0,-42.23237 -42.25782,0 a 25.0025,25.0025 0 0 1 -0.006,0 c -17.94412,-0.005 -33.02196,-15.09584 -33.00976,-33.04101 l 0,-57.25782 a 25.0025,25.0025 0 0 1 0,-0.008 c 0.005,-17.93299 15.07498,-33.00576 33.00976,-33.00976 a 25.0025,25.0025 0 0 1 0.006,0 l 42.25782,0 0,-42.25782 a 25.0025,25.0025 0 0 1 0,-0.008 c 0.005,-17.93297 15.07693,-33.00576 33.01171,-33.00976 a 25.0025,25.0025 0 0 1 0.006,0 l 57.27539,0 a 25.0025,25.0025 0 0 1 0.006,0 c 17.93299,0.005 33.00577,15.07693 33.00977,33.01171 a 25.0025,25.0025 0 0 1 0,0.006 l 0,42.25782 0.73633,0 0,-102.32618 c -26.82812,1.08573 -122.93361,3.83993 -125.58008,1.6504 -2.64647,-2.18954 0.32422,-125.68556 0.32422,-125.68556 0,0 -133.18086,-0.026 -158.24805,-0.0234 z m 183.35938,0.0176 c -0.90129,34.04077 -0.93996,67.56398 0,100.50001 31.76562,2.32449 62.87262,1.25036 100.25586,0 C 456.55535,692.46189 425.89577,660.2024 382.63658,634.5432 Z m 26.09961,201.09181 0,50.27539 a 25.0025,25.0025 0 0 1 -25,25 l -50.27344,0 0,23.3164 50.27344,0 a 25.0025,25.0025 0 0 1 25,25 l 0,50.27338 23.30859,0 0,-50.27338 a 25.0025,25.0025 0 0 1 25,-25 l 25.73437,0 0,-23.3164 -25.73437,0 a 25.0025,25.0025 0 0 1 -25,-25 l 0,-50.27539 -23.30859,0 z m 73.30859,148.59179 0,39.27148 c 0.46754,-1.8352 0.71938,-3.8906 0.73437,-6.1895 l 0,-33.08198 -0.73437,0 z"
         style="fill:url(#linearGradient4378);fill-opacity:1;fill-rule:evenodd;stroke:none;stroke-width:1px;stroke-linecap:butt;stroke-linejoin:miter;stroke-opacity:1"
         inkscape:connector-curvature="0" />
      <path
         id="path4326"
         d="m 220.99204,785.08227 c -6.925,0 -12.5,5.575 -12.5,12.5 l 0,0.10156 c 0,6.925 5.575,12.5 12.5,12.5 l 113.3711,0 c 1.36403,-9.25057 4.93126,-17.79718 10.14062,-25.10156 l -123.51172,0 z m 0,50.39063 c -6.925,0 -12.5,5.575 -12.5,12.5 l 0,0.10156 c 0,6.925 5.575,12.5 12.5,12.5 l 48.08399,0 c 10.51825,-14.89149 27.84693,-24.65978 47.39062,-24.66406 a 25.0025,25.0025 0 0 1 0.006,0 l 0.006,0 17.25782,0 0,-0.4375 -112.74415,0 z m 162.74415,0 0,0.16211 a 25.0025,25.0025 0 0 1 0.006,-0.16211 l -0.006,0 z m -162.74415,49.71875 c -6.925,0 -12.5,5.575 -12.5,12.5 l 0,0.10156 c 0,6.925 5.575,12.5 12.5,12.5 l 37.47071,0 0,-16.36524 0,-0.008 a 25.0025,25.0025 0 0 1 0,-0.008 c 8.4e-4,-2.96292 0.22698,-5.87504 0.66015,-8.7207 l -38.13086,0 z m 143.56641,0 a 25.0025,25.0025 0 0 1 -5.82226,0.71875 l 25,0 0,-0.002 0,-0.71679 -19.17774,0 z m -48.08008,0.71875 c -3.93087,8.8e-4 -8.01462,4.08633 -8.01562,8.01757 l 0,16.36524 0.0215,0 a 25.0025,25.0025 0 0 1 24.97852,-24.38281 l -16.98438,0 z"
         style="color:#252525;clip-rule:nonzero;display:inline;overflow:visible;visibility:visible;opacity:18000004;isolation:auto;mix-blend-mode:normal;color-interpolation:sRGB;color-interpolation-filters:linearRGB;solid-color:#252525;solid-opacity:1;fill:#ffffff;fill-opacity:1;fill-rule:nonzero;stroke:none;stroke-width:50;stroke-linecap:square;stroke-linejoin:round;stroke-miterlimit:4;stroke-dasharray:none;stroke-dashoffset:0;stroke-opacity:1;color-rendering:auto;image-rendering:auto;shape-rendering:auto;text-rendering:auto;enable-background:accumulate"
         inkscape:connector-curvature="0" />
      <path
         sodipodi:nodetypes="ccccccccccccccccccccc"
         inkscape:connector-curvature="0"
         id="path4317"
         d="m 391.75363,810.63451 c -4.42715,10e-4 -8.01571,3.58983 -8.01697,8.01698 l 0,67.25779 -67.2578,0 c -4.42715,10e-4 -8.01572,3.58983 -8.01698,8.01699 l 0,57.27477 c -0.003,4.43005 3.58693,8.02316 8.01698,8.02443 l 67.2578,0 0,67.25033 c -0.003,4.4301 3.58693,8.0232 8.01697,8.0245 l 57.27477,0 c 4.43006,-10e-4 8.01985,-3.5944 8.01699,-8.0245 l 0,-67.25033 67.2578,0 c 4.43004,-10e-4 8.01985,-3.59438 8.01698,-8.02443 l 0,-57.27477 c -10e-4,-4.42716 -3.58984,-8.01573 -8.01698,-8.01699 l -67.2578,0 0,-67.25779 c -10e-4,-4.42715 -3.58983,-8.01572 -8.01699,-8.01698 z"
         style="color:#252525;font-style:normal;font-variant:normal;font-weight:normal;font-stretch:normal;font-size:medium;line-height:normal;font-family:sans-serif;text-indent:0;text-align:start;text-decoration:none;text-decoration-line:none;text-decoration-style:solid;text-decoration-color:#252525;letter-spacing:normal;word-spacing:normal;text-transform:none;direction:ltr;block-progression:tb;writing-mode:lr-tb;baseline-shift:baseline;text-anchor:start;white-space:normal;clip-rule:nonzero;display:inline;overflow:visible;visibility:visible;opacity:1;isolation:auto;mix-blend-mode:normal;color-interpolation:sRGB;color-interpolation-filters:linearRGB;solid-color:#252525;solid-opacity:1;fill:#99b000;fill-opacity:1;fill-rule:evenodd;stroke:none;stroke-width:4.19999981;stroke-linecap:butt;stroke-linejoin:round;stroke-miterlimit:4;stroke-dasharray:none;stroke-dashoffset:0;stroke-opacity:1;color-rendering:auto;image-rendering:auto;shape-rendering:auto;text-rendering:auto;enable-background:accumulate" />
    </g>
  </g>
</svg>
