<?xml version="1.0" encoding="UTF-8" standalone="no"?>
<!-- Created with Inkscape (http://www.inkscape.org/) -->

<svg
   xmlns:dc="http://purl.org/dc/elements/1.1/"
   xmlns:cc="http://creativecommons.org/ns#"
   xmlns:rdf="http://www.w3.org/1999/02/22-rdf-syntax-ns#"
   xmlns:svg="http://www.w3.org/2000/svg"
   xmlns="http://www.w3.org/2000/svg"
   xmlns:xlink="http://www.w3.org/1999/xlink"
   xmlns:sodipodi="http://sodipodi.sourceforge.net/DTD/sodipodi-0.dtd"
   xmlns:inkscape="http://www.inkscape.org/namespaces/inkscape"
   width="400"
   height="400"
   viewBox="0 0 400 400.00001"
   id="svg4201"
   version="1.1"
   inkscape:version="0.91 r13725"
   sodipodi:docname="bomb.svg"
   inkscape:export-filename="C:\Users\johannes\Documents\Arbeit\RRZE\github3\tango\16x16\emblems\bomb.png"
   inkscape:export-xdpi="3.6004508"
   inkscape:export-ydpi="3.6004508">
  <title
     id="title4238">bomb</title>
  <defs
     id="defs4203">
    <linearGradient
       inkscape:collect="always"
       id="linearGradient4226">
      <stop
         style="stop-color:#171717;stop-opacity:1"
         offset="0"
         id="stop4228" />
      <stop
         style="stop-color:#eeeeec;stop-opacity:1"
         offset="1"
         id="stop4230" />
    </linearGradient>
    <linearGradient
       inkscape:collect="always"
       id="linearGradient4202">
      <stop
         style="stop-color:#475054;stop-opacity:1"
         offset="0"
         id="stop4204" />
      <stop
         style="stop-color:#0a0a0a;stop-opacity:1"
         offset="1"
         id="stop4206" />
    </linearGradient>
    <inkscape:perspective
       sodipodi:type="inkscape:persp3d"
       inkscape:vp_x="0 : 200 : 1"
       inkscape:vp_y="0 : 1000 : 0"
       inkscape:vp_z="400 : 200 : 1"
       inkscape:persp3d-origin="200 : 133.33334 : 1"
       id="perspective4284" />
    <radialGradient
       inkscape:collect="always"
       xlink:href="#linearGradient4202"
       id="radialGradient4208"
       cx="129.39172"
       cy="174.83749"
       fx="129.39172"
       fy="174.83749"
       r="133.13183"
       gradientTransform="matrix(1.3211828,0.71000624,-0.72792488,1.3874984,77.659575,508.77123)"
       gradientUnits="userSpaceOnUse" />
    <linearGradient
       inkscape:collect="always"
       xlink:href="#linearGradient4226"
       id="linearGradient4232"
       x1="255"
       y1="735.81201"
       x2="20.263123"
       y2="1056.812"
       gradientUnits="userSpaceOnUse" />
  </defs>
  <sodipodi:namedview
     id="base"
     pagecolor="#ffffff"
     bordercolor="#666666"
     borderopacity="1.0"
     inkscape:pageopacity="0.0"
     inkscape:pageshadow="2"
     inkscape:zoom="1"
     inkscape:cx="148.24182"
     inkscape:cy="246.73922"
     inkscape:document-units="px"
     inkscape:current-layer="layer1"
     showgrid="false"
     units="px"
     inkscape:snap-bbox="true"
     inkscape:bbox-paths="true"
     inkscape:bbox-nodes="true"
     inkscape:snap-bbox-edge-midpoints="false"
     inkscape:snap-bbox-midpoints="false"
     showguides="true"
     inkscape:guide-bbox="true"
     inkscape:window-width="1366"
     inkscape:window-height="721"
     inkscape:window-x="-4"
     inkscape:window-y="-4"
     inkscape:window-maximized="1"
     inkscape:snap-nodes="false"
     inkscape:showpageshadow="false"
     inkscape:snap-others="false"
     inkscape:object-paths="true"
     inkscape:snap-intersection-paths="true"
     inkscape:object-nodes="true"
     inkscape:snap-smooth-nodes="true"
     inkscape:snap-global="false">
    <sodipodi:guide
       position="25,410.4755"
       orientation="1,0"
       id="guide4797" />
    <sodipodi:guide
       position="50,408.27617"
       orientation="1,0"
       id="guide4799" />
    <sodipodi:guide
       position="75,408.27617"
       orientation="1,0"
       id="guide4801" />
    <sodipodi:guide
       position="100,408.27617"
       orientation="1,0"
       id="guide4803" />
    <sodipodi:guide
       position="125,410.91744"
       orientation="1,0"
       id="guide4805" />
    <sodipodi:guide
       position="150,408.27617"
       orientation="1,0"
       id="guide4807" />
    <sodipodi:guide
       position="175,406.40963"
       orientation="1,0"
       id="guide4809" />
    <sodipodi:guide
       position="200,423.25001"
       orientation="1,0"
       id="guide4811"
       inkscape:label=""
       inkscape:color="rgb(255,0,171)" />
    <sodipodi:guide
       position="225,405.43736"
       orientation="1,0"
       id="guide4813" />
    <sodipodi:guide
       position="250,404.73025"
       orientation="1,0"
       id="guide4815" />
    <sodipodi:guide
       position="275,405.79091"
       orientation="1,0"
       id="guide4817" />
    <sodipodi:guide
       position="300,405.26058"
       orientation="1,0"
       id="guide4819" />
    <sodipodi:guide
       position="325,405.61414"
       orientation="1,0"
       id="guide4821" />
    <sodipodi:guide
       position="350,413.65748"
       orientation="1,0"
       id="guide4823" />
    <sodipodi:guide
       position="375,405.79091"
       orientation="1,0"
       id="guide4825" />
    <sodipodi:guide
       position="400,8.0000002"
       orientation="1,0"
       id="guide4827" />
    <sodipodi:guide
       position="392.5,400.00001"
       orientation="0,1"
       id="guide4829" />
    <sodipodi:guide
       position="412.5,374.99999"
       orientation="0,1"
       id="guide4831" />
    <sodipodi:guide
       position="408.089,349.99999"
       orientation="0,1"
       id="guide4833" />
    <sodipodi:guide
       position="407.64706,324.99999"
       orientation="0,1"
       id="guide4835" />
    <sodipodi:guide
       position="406.40962,299.99998"
       orientation="0,1"
       id="guide4837" />
    <sodipodi:guide
       position="404.99541,274.99998"
       orientation="0,1"
       id="guide4839" />
    <sodipodi:guide
       position="406.93995,249.99998"
       orientation="0,1"
       id="guide4841" />
    <sodipodi:guide
       position="406.32123,224.99998"
       orientation="0,1"
       id="guide4843" />
    <sodipodi:guide
       position="405.43735,200"
       orientation="0,1"
       id="guide4845"
       inkscape:label=""
       inkscape:color="rgb(255,0,206)" />
    <sodipodi:guide
       position="404.64185,174.99998"
       orientation="0,1"
       id="guide4847" />
    <sodipodi:guide
       position="404.99541,149.99998"
       orientation="0,1"
       id="guide4849" />
    <sodipodi:guide
       position="404.81863,124.99998"
       orientation="0,1"
       id="guide4851" />
    <sodipodi:guide
       position="403.58119,99.99998"
       orientation="0,1"
       id="guide4853" />
    <sodipodi:guide
       position="405.96768,74.999979"
       orientation="0,1"
       id="guide4855" />
    <sodipodi:guide
       position="405.7909,49.999979"
       orientation="0,1"
       id="guide4857" />
    <sodipodi:guide
       position="407.91222,24.999978"
       orientation="0,1"
       id="guide4859" />
    <sodipodi:guide
       position="285.53005,-4.238319e-006"
       orientation="0,1"
       id="guide4861" />
    <sodipodi:guide
       position="0,418.50001"
       orientation="1,0"
       id="guide6276" />
  </sodipodi:namedview>
  <metadata
     id="metadata4206">
    <rdf:RDF>
      <cc:Work
         rdf:about="">
        <dc:format>image/svg+xml</dc:format>
        <dc:type
           rdf:resource="http://purl.org/dc/dcmitype/StillImage" />
        <dc:title>bomb</dc:title>
        <cc:license
           rdf:resource="http://creativecommons.org/licenses/by-nc/3.0/" />
        <dc:creator>
          <cc:Agent>
            <dc:title>Johannes Hechler</dc:title>
          </cc:Agent>
        </dc:creator>
        <dc:rights>
          <cc:Agent>
            <dc:title>Johannes Hechler</dc:title>
          </cc:Agent>
        </dc:rights>
        <dc:publisher>
          <cc:Agent>
            <dc:title>RRZE</dc:title>
          </cc:Agent>
        </dc:publisher>
        <dc:contributor>
          <cc:Agent>
            <dc:title>Ute Weber,
Hendrik Eggers</dc:title>
          </cc:Agent>
        </dc:contributor>
        <dc:date>Feb 2016</dc:date>
        <dc:subject>
          <rdf:Bag>
            <rdf:li>bomb</rdf:li>
            <rdf:li>warning</rdf:li>
          </rdf:Bag>
        </dc:subject>
      </cc:Work>
      <cc:License
         rdf:about="http://creativecommons.org/licenses/by-nc/3.0/">
        <cc:permits
           rdf:resource="http://creativecommons.org/ns#Reproduction" />
        <cc:permits
           rdf:resource="http://creativecommons.org/ns#Distribution" />
        <cc:requires
           rdf:resource="http://creativecommons.org/ns#Notice" />
        <cc:requires
           rdf:resource="http://creativecommons.org/ns#Attribution" />
        <cc:prohibits
           rdf:resource="http://creativecommons.org/ns#CommercialUse" />
        <cc:permits
           rdf:resource="http://creativecommons.org/ns#DerivativeWorks" />
      </cc:License>
    </rdf:RDF>
  </metadata>
  <g
     inkscape:label="Ebene 1"
     inkscape:groupmode="layer"
     id="layer1"
     transform="translate(0,-652.36216)">
    <path
       style="color:#000000;font-style:normal;font-variant:normal;font-weight:normal;font-stretch:normal;font-size:medium;line-height:normal;font-family:sans-serif;text-indent:0;text-align:start;text-decoration:none;text-decoration-line:none;text-decoration-style:solid;text-decoration-color:#000000;letter-spacing:normal;word-spacing:normal;text-transform:none;direction:ltr;block-progression:tb;writing-mode:lr-tb;baseline-shift:baseline;text-anchor:start;white-space:normal;clip-rule:nonzero;display:inline;overflow:visible;visibility:visible;opacity:1;isolation:auto;mix-blend-mode:normal;color-interpolation:sRGB;color-interpolation-filters:linearRGB;solid-color:#000000;solid-opacity:1;fill:#1a1a1a;fill-opacity:1;fill-rule:nonzero;stroke:none;stroke-width:50;stroke-linecap:round;stroke-linejoin:round;stroke-miterlimit:4;stroke-dasharray:none;stroke-dashoffset:0;stroke-opacity:1;color-rendering:auto;image-rendering:auto;shape-rendering:auto;text-rendering:auto;enable-background:accumulate"
       d="m 242.44336,711.26367 a 25.0025,25.0025 0 0 0 -4.49609,0.46875 c -11.08569,1.10868 -21.58431,5.67937 -29.6836,13.44922 a 25.0025,25.0025 0 0 0 -0.002,0.002 l -5.37305,5.15625 c -13.15845,-3.45315 -26.74839,-5.32562 -40.49805,-5.34375 a 25.0025,25.0025 0 0 0 -0.0332,0 l -0.0332,0 C 72.845658,724.99609 0,799.05459 0,888.67773 c -3.0606118e-5,89.62318 72.845224,163.68357 162.32422,163.68357 89.47899,0 162.32424,-74.06039 162.32422,-163.68357 l 0,-0.0508 a 25.0025,25.0025 0 0 0 0,-0.0508 c -0.0282,-13.64173 -1.86588,-27.11777 -5.19727,-40.18555 l 3.7461,-3.46093 a 25.0025,25.0025 0 0 0 0.002,-0.002 c 20.51902,-18.96371 21.26939,-51.98722 1.63281,-71.86328 a 25.0025,25.0025 0 0 0 -0.002,-0.002 l -46.38477,-46.94336 c -9.49155,-9.60529 -22.4948,-14.9719 -35.99804,-14.85547 a 25.0025,25.0025 0 0 0 -0.002,0 c -6.5e-4,10e-6 -0.001,0 -0.002,0 z m 0.43359,50 0.002,0 17.2832,17.49024 a 25.0025,25.0025 0 0 0 -35.05859,-0.43555 l -10.32618,9.9082 c -0.0433,0.0415 -0.0213,0.0117 -0.002,0.002 -7.689,-4.12406 -15.81796,-7.24507 -24.17773,-9.45899 3.4652,0.92282 6.90008,1.97854 10.27539,3.23242 a 25.0025,25.0025 0 0 0 26.01367,-5.39648 l 15.99023,-15.3418 z M 162.39844,775 c 4.01337,0.008 8.00652,0.3099 11.98242,0.75586 -3.97313,-0.43997 -7.96649,-0.74783 -11.98242,-0.75586 z m -3.15235,0.1543 C 98.78696,776.83 50,827.15577 50,888.67773 c -2.2e-5,62.57216 50.43758,113.68357 112.32422,113.68357 61.87438,0 112.30252,-51.09142 112.32226,-113.64646 a 25.0025,25.0025 0 0 0 0,-0.0664 c -0.01,-4.17658 -0.3375,-8.32534 -0.79687,-12.45313 0.46725,4.13147 0.78715,8.28044 0.79687,12.45313 3e-5,0.01 0.002,0.0195 0.002,0.0293 0,0.0125 -0.002,0.0246 -0.002,0.0371 -0.0201,62.63004 -50.39436,113.64646 -112.32226,113.64646 C 100.38394,1002.3613 49.999979,951.32494 50,888.67773 50,827.08144 98.736421,776.82684 159.24609,775.1543 Z m 18.99805,1.13086 c 2.79714,0.41425 5.57062,0.93954 8.33008,1.5664 -2.75677,-0.6215 -5.53187,-1.15647 -8.33008,-1.5664 z m 92.92578,13.61132 18.0918,18.3086 c 0.23165,0.23447 0.24206,-0.21981 0,0.004 l -15.22656,14.07032 a 25.0025,25.0025 0 0 0 -6.4961,26.99218 c 1.23294,3.35167 2.28511,6.7576 3.20313,10.19727 -2.30045,-8.67787 -5.55096,-17.10302 -9.8418,-25.05273 -0.0134,0.0237 -0.054,0.0497 0.002,-0.002 l 9.37696,-8.66601 a 25.0025,25.0025 0 0 0 0.89062,-35.85157 z m -108.88086,35.10157 c 10.04546,0.0183 19.92137,2.50214 28.85352,7.29297 a 25.0025,25.0025 0 0 0 0.002,0 c 6.3319,3.39546 13.18854,5.16481 20.08399,5.64257 0.47219,6.94123 2.22764,13.84848 5.67187,20.23047 a 25.0025,25.0025 0 0 0 0,0.002 c 5.03812,9.3342 7.71461,19.86178 7.74414,30.57226 -0.0315,36.2696 -27.50536,63.62305 -62.32031,63.62305 -34.83478,0 -62.324232,-27.38339 -62.32422,-63.6836 0,-36.28741 27.47155,-63.66029 62.28906,-63.67968 z m 109.40039,38.65625 c 0.64591,2.83894 1.19074,5.69332 1.61914,8.57226 -0.42286,-2.88107 -0.97986,-5.736 -1.61914,-8.57226 z"
       id="path4214"
       inkscape:connector-curvature="0" />
    <path
       style="color:#000000;font-style:normal;font-variant:normal;font-weight:normal;font-stretch:normal;font-size:medium;line-height:normal;font-family:sans-serif;text-indent:0;text-align:start;text-decoration:none;text-decoration-line:none;text-decoration-style:solid;text-decoration-color:#000000;letter-spacing:normal;word-spacing:normal;text-transform:none;direction:ltr;block-progression:tb;writing-mode:lr-tb;baseline-shift:baseline;text-anchor:start;white-space:normal;clip-rule:nonzero;display:inline;overflow:visible;visibility:visible;opacity:1;isolation:auto;mix-blend-mode:normal;color-interpolation:sRGB;color-interpolation-filters:linearRGB;solid-color:#000000;solid-opacity:1;fill:url(#linearGradient4232);fill-opacity:1;fill-rule:nonzero;stroke:none;stroke-width:50;stroke-linecap:round;stroke-linejoin:round;stroke-miterlimit:4;stroke-dasharray:none;stroke-dashoffset:0;stroke-opacity:1;color-rendering:auto;image-rendering:auto;shape-rendering:auto;text-rendering:auto;enable-background:accumulate"
       d="m 242.66211,736.26367 a 25.0025,25.0025 0 0 0 -17.0918,6.95899 l -15.99219,15.34375 c -15.07741,-5.60105 -31.05197,-8.549 -47.2207,-8.57032 a 25.0025,25.0025 0 0 0 -0.0332,0 C 86.614601,749.99609 25,812.54257 25,888.67773 c -2.6e-5,76.13519 61.614582,138.68357 137.32422,138.68357 75.70964,0 137.32424,-62.54838 137.32422,-138.68357 a 25.0025,25.0025 0 0 0 0,-0.0508 c -0.034,-16.43715 -3.01136,-32.66752 -8.64649,-47.98633 l 15.22852,-14.07226 a 25.0025,25.0025 0 0 0 0.81641,-35.93359 l -46.38477,-46.94336 a 25.0025,25.0025 0 0 0 -18,-7.42774 z m -0.25,60.09375 10.89844,11.03125 -9.37696,8.66602 a 25.0025,25.0025 0 0 0 -5.0332,30.23633 c 7.01211,12.99145 10.71147,27.57881 10.74609,42.41601 -0.0156,49.42219 -38.97124,88.6543 -87.32226,88.6543 -48.36071,0 -87.324237,-39.24742 -87.32422,-88.6836 0,-49.43011 38.95417,-88.67203 87.30664,-88.68164 14.16326,0.0213 28.10871,3.53581 40.65234,10.26368 a 25.0025,25.0025 0 0 0 29.125,-3.99219 l 10.32813,-9.91016 z"
       id="path4210"
       inkscape:connector-curvature="0" />
    <path
       style="color:#000000;clip-rule:nonzero;display:inline;overflow:visible;visibility:visible;opacity:1;isolation:auto;mix-blend-mode:normal;color-interpolation:sRGB;color-interpolation-filters:linearRGB;solid-color:#000000;solid-opacity:1;fill:url(#radialGradient4208);fill-opacity:1;fill-rule:nonzero;stroke:none;stroke-width:18;stroke-linecap:round;stroke-linejoin:round;stroke-miterlimit:4;stroke-dasharray:none;stroke-dashoffset:0;stroke-opacity:1;color-rendering:auto;image-rendering:auto;shape-rendering:auto;text-rendering:auto;enable-background:accumulate"
       d="m 242.87888,761.26255 -28.10397,26.96608 A 112.32459,113.6835 0 0 0 162.32459,774.99516 112.32459,113.6835 0 0 0 50,888.67866 112.32459,113.6835 0 0 0 162.32459,1002.3622 112.32459,113.6835 0 0 0 274.64919,888.67866 112.32459,113.6835 0 0 0 260.89996,834.41611 l 28.36371,-26.20938 -46.38479,-46.94418 z"
       id="path4170"
       inkscape:connector-curvature="0" />
    <path
       sodipodi:nodetypes="cc"
       inkscape:connector-curvature="0"
       id="path4198"
       d="m 331.82865,719.28069 49.87214,-49.15508"
       style="fill:#f57900;fill-rule:evenodd;stroke:#f57900;stroke-width:35;stroke-linecap:round;stroke-linejoin:miter;stroke-miterlimit:4;stroke-dasharray:none;stroke-opacity:1" />
    <path
       style="fill:#f57900;fill-rule:evenodd;stroke:#f57900;stroke-width:35;stroke-linecap:round;stroke-linejoin:miter;stroke-miterlimit:4;stroke-dasharray:none;stroke-opacity:1"
       d="m 309.32865,724.78069 -1.12786,-53.65508"
       id="path4234"
       inkscape:connector-curvature="0"
       sodipodi:nodetypes="cc" />
    <path
       sodipodi:nodetypes="cc"
       inkscape:connector-curvature="0"
       id="path4236"
       d="m 322.82865,739.28069 59.37214,1.84492"
       style="fill:#f57900;fill-rule:evenodd;stroke:#f57900;stroke-width:35;stroke-linecap:round;stroke-linejoin:miter;stroke-miterlimit:4;stroke-dasharray:none;stroke-opacity:1" />
  </g>
</svg>
