<?xml version="1.0" encoding="UTF-8" standalone="no"?>
<!-- Created with Inkscape (http://www.inkscape.org/) -->

<svg
   xmlns:dc="http://purl.org/dc/elements/1.1/"
   xmlns:cc="http://creativecommons.org/ns#"
   xmlns:rdf="http://www.w3.org/1999/02/22-rdf-syntax-ns#"
   xmlns:svg="http://www.w3.org/2000/svg"
   xmlns="http://www.w3.org/2000/svg"
   xmlns:xlink="http://www.w3.org/1999/xlink"
   xmlns:sodipodi="http://sodipodi.sourceforge.net/DTD/sodipodi-0.dtd"
   xmlns:inkscape="http://www.inkscape.org/namespaces/inkscape"
   width="210mm"
   height="297mm"
   viewBox="0 0 744.09448819 1052.3622047"
   id="svg2"
   version="1.1"
   inkscape:version="0.91 r13725"
   inkscape:export-xdpi="3.5999999"
   inkscape:export-ydpi="3.5999999"
   sodipodi:docname="account-delete.svg"
   inkscape:export-filename="C:\Users\johannes\Documents\Arbeit\RRZE\github3\bicons\16x16\emblems\account-delete.png">
  <title
     id="title4159">account-delete</title>
  <defs
     id="defs4">
    <linearGradient
       inkscape:collect="always"
       id="linearGradient4153">
      <stop
         style="stop-color:#4e505d;stop-opacity:1;"
         offset="0"
         id="stop4155" />
      <stop
         style="stop-color:#7a8597;stop-opacity:1"
         offset="1"
         id="stop4157" />
    </linearGradient>
    <linearGradient
       id="linearGradient2224">
      <stop
         id="stop2226"
         offset="0"
         style="stop-color:#7c7c7c;stop-opacity:1;" />
      <stop
         id="stop2228"
         offset="1"
         style="stop-color:#b8b8b8;stop-opacity:1;" />
    </linearGradient>
    <linearGradient
       id="linearGradient15218">
      <stop
         id="stop15220"
         offset="0"
         style="stop-color:#eeeeef;stop-opacity:1;" />
      <stop
         id="stop2736"
         offset="0.59928656"
         style="stop-color:#d3d7cf;stop-opacity:1;" />
      <stop
         id="stop2738"
         offset="0.82758623"
         style="stop-color:#ffffff;stop-opacity:1;" />
      <stop
         id="stop15222"
         offset="1"
         style="stop-color:#d3d7cf;stop-opacity:1;" />
    </linearGradient>
    <pattern
       y="0"
       x="0"
       height="6"
       width="6"
       patternUnits="userSpaceOnUse"
       id="EMFhbasepattern" />
    <pattern
       y="0"
       x="0"
       height="6"
       width="6"
       patternUnits="userSpaceOnUse"
       id="EMFhbasepattern-5" />
    <linearGradient
       inkscape:collect="always"
       xlink:href="#linearGradient4153"
       id="linearGradient4159"
       x1="235"
       y1="682.36218"
       x2="525"
       y2="368.36221"
       gradientUnits="userSpaceOnUse"
       gradientTransform="matrix(0.7629171,0,0,0.7629171,67.354104,96.768929)" />
  </defs>
  <sodipodi:namedview
     id="base"
     pagecolor="#ffffff"
     bordercolor="#666666"
     borderopacity="1.0"
     inkscape:pageopacity="0.0"
     inkscape:pageshadow="2"
     inkscape:zoom="0.70710678"
     inkscape:cx="417.84781"
     inkscape:cy="352.92896"
     inkscape:document-units="px"
     inkscape:current-layer="layer1"
     showgrid="false"
     showguides="true"
     inkscape:guide-bbox="true"
     inkscape:window-width="1366"
     inkscape:window-height="721"
     inkscape:window-x="-4"
     inkscape:window-y="-4"
     inkscape:window-maximized="1">
    <sodipodi:guide
       position="560,730.00002"
       orientation="0,1"
       id="guide3338" />
    <sodipodi:guide
       position="560,330.00001"
       orientation="0,1"
       id="guide3340" />
    <sodipodi:guide
       position="190,475.00001"
       orientation="1,0"
       id="guide3344" />
    <sodipodi:guide
       position="590,451.00001"
       orientation="1,0"
       id="guide3346" />
    <inkscape:grid
       type="xygrid"
       id="grid3440" />
  </sodipodi:namedview>
  <metadata
     id="metadata7">
    <rdf:RDF>
      <cc:Work
         rdf:about="">
        <dc:format>image/svg+xml</dc:format>
        <dc:type
           rdf:resource="http://purl.org/dc/dcmitype/StillImage" />
        <dc:title>account delete</dc:title>
        <dc:date>June 2015</dc:date>
        <dc:creator>
          <cc:Agent>
            <dc:title>Johannes Hechler</dc:title>
          </cc:Agent>
        </dc:creator>
        <dc:rights>
          <cc:Agent>
            <dc:title>Johannes Hechler</dc:title>
          </cc:Agent>
        </dc:rights>
        <dc:publisher>
          <cc:Agent>
            <dc:title>RRZE</dc:title>
          </cc:Agent>
        </dc:publisher>
        <dc:contributor>
          <cc:Agent>
            <dc:title>Ute Weber, Hendrik Eggers</dc:title>
          </cc:Agent>
        </dc:contributor>
        <dc:subject>
          <rdf:Bag>
            <rdf:li>account</rdf:li>
            <rdf:li>delete</rdf:li>
            <rdf:li>at</rdf:li>
          </rdf:Bag>
        </dc:subject>
      </cc:Work>
    </rdf:RDF>
  </metadata>
  <g
     inkscape:label="Ebene 1"
     inkscape:groupmode="layer"
     id="layer1">
    <g
       id="g4162">
      <rect
         y="322.36221"
         x="190"
         height="400"
         width="400"
         id="rect4160"
         style="opacity:1;fill:none;fill-opacity:1;stroke:none;stroke-width:23;stroke-linecap:butt;stroke-linejoin:round;stroke-miterlimit:4;stroke-dasharray:none;stroke-opacity:1" />
      <path
         id="text4149"
         d="M 369.41016 342.58008 C 348.01845 342.58008 327.75889 346.42851 308.63086 354.125 C 289.50283 361.7083 272.63975 372.68623 258.03906 387.06055 C 243.77793 401.2085 232.79805 417.61962 225.10156 436.29492 C 217.40508 454.97022 213.55664 474.60761 213.55664 495.20703 C 213.55664 516.59873 217.34834 536.6333 224.93164 555.30859 C 232.51494 573.87071 243.55156 590.22509 258.03906 604.37305 C 272.52657 618.521 289.05117 629.27392 307.61328 636.63086 C 326.17539 644.10098 345.92431 647.83594 366.86328 647.83594 C 384.06719 647.83594 400.98896 644.89336 417.62695 639.00781 C 419.1051 638.49845 420.56947 637.96201 422.02734 637.41211 L 427.60547 631.83203 L 411.32617 615.55273 C 410.82398 615.73202 410.32358 615.91409 409.81836 616.08789 C 395.78359 621.06797 381.46397 623.55859 366.86328 623.55859 C 349.09345 623.55859 332.40059 620.4458 316.78125 614.2207 C 301.16191 608.10879 287.40967 599.16758 275.52539 587.39648 C 263.18838 575.39902 253.73652 561.5333 247.17188 545.80078 C 240.72041 530.06826 237.49609 513.20323 237.49609 495.20703 C 237.49609 473.36259 242.47539 453.10303 252.43555 434.42773 C 262.50889 415.63925 276.43134 400.47246 294.20117 388.92773 C 305.0668 381.68398 316.89384 376.25078 329.68359 372.62891 C 342.47334 368.89385 355.82842 367.02734 369.75 367.02734 C 389.67032 367.02734 408.06338 370.98926 424.92773 378.91211 C 441.90528 386.72178 456.27969 398.04013 468.05078 412.86719 C 475.29453 421.92188 480.671 431.76894 484.17969 442.4082 C 487.80156 453.04746 489.61133 464.42256 489.61133 476.5332 C 489.61133 496.5667 484.91572 512.92109 475.52148 525.59766 C 473.95178 527.7225 472.2691 529.69064 470.49219 531.52734 L 486.13672 547.17383 C 486.44636 546.88636 486.75876 546.60278 487.06445 546.31055 C 505.06065 529.10664 514.05859 505.62081 514.05859 475.85352 C 514.05859 461.93193 511.79492 448.46338 507.26758 435.44727 C 502.85342 422.43115 496.40283 410.37715 487.91406 399.28516 C 473.99248 381.17578 456.73223 367.19658 436.13281 357.34961 C 415.64658 347.50263 393.40508 342.58008 369.41016 342.58008 z M 358.54492 419.82812 C 339.19052 419.82812 323.40157 426.90088 311.17773 441.04883 C 298.9539 455.19678 292.8418 473.58984 292.8418 496.22656 C 292.8418 518.86329 298.89717 537.25439 311.00781 551.40234 C 323.23164 565.43711 339.07734 572.45508 358.54492 572.45508 C 367.97083 572.45508 376.43345 571.12077 383.93555 568.45703 C 384.50439 558.76374 388.40184 549.24906 395.64453 542.00586 L 409.37695 528.27539 A 25.0025 25.0025 0 0 0 409.37695 528.27344 C 416.86474 520.78513 426.78109 516.87397 436.8125 516.51953 L 436.8125 423.22266 L 412.5332 423.22266 L 412.5332 445.46289 C 405.85537 436.86094 398.10371 430.46709 389.27539 426.2793 C 380.44707 421.97832 370.20283 419.82812 358.54492 419.82812 z M 364.82617 444.44531 C 378.63457 444.44531 389.61445 449.14092 397.76367 458.53516 C 405.91289 467.81621 409.98633 480.38086 409.98633 496.22656 C 409.98633 512.29864 405.96963 524.9748 397.93359 534.25586 C 390.01074 543.53692 379.0876 548.17773 365.16602 548.17773 C 351.13125 548.17773 340.09658 543.59365 332.06055 534.42578 C 324.02451 525.14472 320.00586 512.41182 320.00586 496.22656 C 320.00586 480.26767 324.02451 467.64824 332.06055 458.36719 C 340.20977 449.08613 351.13095 444.44531 364.82617 444.44531 z M 438.30859 570.05273 L 437.78711 570.57422 C 438.07821 570.51819 438.36469 570.45628 438.6543 570.39844 L 438.30859 570.05273 z "
         style="font-style:normal;font-weight:normal;font-size:347.70007324px;line-height:125%;font-family:sans-serif;letter-spacing:0px;word-spacing:0px;fill:url(#linearGradient4159);fill-opacity:1;stroke:none;stroke-width:1px;stroke-linecap:butt;stroke-linejoin:miter;stroke-opacity:1" />
      <path
         sodipodi:nodetypes="cccscsccsssscscsccsccc"
         inkscape:connector-curvature="0"
         id="rect4217"
         d="m 584.51551,703.42641 c 6.23548,-6.23598 6.23073,-16.27826 -0.003,-22.51421 l -49.26219,-49.2661 49.90413,-49.90792 c 5.78073,-5.78117 5.77601,-15.09086 -0.003,-20.87202 l -15.17923,-15.18093 c -5.78072,-5.78116 -15.08975,-5.78591 -20.87047,-0.003 l -49.9039,49.90813 -49.63515,-49.63894 c -6.23548,-6.23592 -16.27228,-6.23594 -22.50779,0 l -13.73119,13.73226 c -6.23552,6.23596 -6.23548,16.27356 0,22.50951 l 49.63514,49.63889 -49.96546,49.96925 c -5.78072,5.78116 -5.77598,15.09088 0.003,20.87205 l 15.17977,15.43943 c 5.73172,5.82977 15.08972,5.78587 20.87045,0.003 l 49.96545,-50.22773 49.45625,49.91236 c 6.20703,6.26427 16.27702,6.24069 22.51251,0.003 l 13.53736,-14.3785 z"
         style="opacity:1;fill:#d9463a;fill-opacity:1;stroke:none;stroke-width:40;stroke-linecap:square;stroke-linejoin:round;stroke-miterlimit:4;stroke-dasharray:none;stroke-opacity:1" />
    </g>
  </g>
</svg>
