<?xml version="1.0" encoding="UTF-8" standalone="no"?>
<!-- Created with Inkscape (http://www.inkscape.org/) -->

<svg
   xmlns:dc="http://purl.org/dc/elements/1.1/"
   xmlns:cc="http://creativecommons.org/ns#"
   xmlns:rdf="http://www.w3.org/1999/02/22-rdf-syntax-ns#"
   xmlns:svg="http://www.w3.org/2000/svg"
   xmlns="http://www.w3.org/2000/svg"
   xmlns:xlink="http://www.w3.org/1999/xlink"
   xmlns:sodipodi="http://sodipodi.sourceforge.net/DTD/sodipodi-0.dtd"
   xmlns:inkscape="http://www.inkscape.org/namespaces/inkscape"
   width="210mm"
   height="297mm"
   viewBox="0 0 744.09448819 1052.3622047"
   id="svg2"
   version="1.1"
   inkscape:version="0.91 r13725"
   inkscape:export-xdpi="3.5982575"
   inkscape:export-ydpi="3.5982575"
   sodipodi:docname="address-book-intern.svg"
   inkscape:export-filename="C:\Users\johannes\Documents\Arbeit\RRZE\github3\bicons\16x16\emblems\address-book-intern.png">
  <title
     id="title4261">address book 2 intern</title>
  <defs
     id="defs4">
    <linearGradient
       inkscape:collect="always"
       id="linearGradient4253">
      <stop
         style="stop-color:#4e505d;stop-opacity:1;"
         offset="0"
         id="stop4255" />
      <stop
         style="stop-color:#7a859c;stop-opacity:1"
         offset="1"
         id="stop4257" />
    </linearGradient>
    <linearGradient
       id="linearGradient2224">
      <stop
         id="stop2226"
         offset="0"
         style="stop-color:#7c7c7c;stop-opacity:1;" />
      <stop
         id="stop2228"
         offset="1"
         style="stop-color:#b8b8b8;stop-opacity:1;" />
    </linearGradient>
    <linearGradient
       id="linearGradient15218">
      <stop
         id="stop15220"
         offset="0"
         style="stop-color:#eeeeef;stop-opacity:1;" />
      <stop
         id="stop2736"
         offset="0.59928656"
         style="stop-color:#d3d7cf;stop-opacity:1;" />
      <stop
         id="stop2738"
         offset="0.82758623"
         style="stop-color:#ffffff;stop-opacity:1;" />
      <stop
         id="stop15222"
         offset="1"
         style="stop-color:#d3d7cf;stop-opacity:1;" />
    </linearGradient>
    <pattern
       y="0"
       x="0"
       height="6"
       width="6"
       patternUnits="userSpaceOnUse"
       id="EMFhbasepattern" />
    <pattern
       y="0"
       x="0"
       height="6"
       width="6"
       patternUnits="userSpaceOnUse"
       id="EMFhbasepattern-5" />
    <pattern
       y="0"
       x="0"
       height="6"
       width="6"
       patternUnits="userSpaceOnUse"
       id="EMFhbasepattern-6" />
    <linearGradient
       inkscape:collect="always"
       xlink:href="#linearGradient4253"
       id="linearGradient4259"
       x1="240"
       y1="722.18365"
       x2="600"
       y2="322.18362"
       gradientUnits="userSpaceOnUse" />
    <linearGradient
       inkscape:collect="always"
       xlink:href="#linearGradient4165"
       id="linearGradient4185"
       x1="415"
       y1="507.36221"
       x2="385"
       y2="572.36218"
       gradientUnits="userSpaceOnUse"
       gradientTransform="translate(1.4831543e-4,-2.6527559e-4)" />
    <linearGradient
       inkscape:collect="always"
       id="linearGradient4165">
      <stop
         style="stop-color:#7a8597;stop-opacity:1;"
         offset="0"
         id="stop4167" />
      <stop
         style="stop-color:#4e505d;stop-opacity:1"
         offset="1"
         id="stop4169" />
    </linearGradient>
  </defs>
  <sodipodi:namedview
     id="base"
     pagecolor="#ffffff"
     bordercolor="#666666"
     borderopacity="1.0"
     inkscape:pageopacity="0.0"
     inkscape:pageshadow="2"
     inkscape:zoom="0.70710678"
     inkscape:cx="171.34894"
     inkscape:cy="514.28186"
     inkscape:document-units="px"
     inkscape:current-layer="layer1"
     showgrid="true"
     showguides="true"
     inkscape:guide-bbox="true"
     inkscape:window-width="1366"
     inkscape:window-height="721"
     inkscape:window-x="-4"
     inkscape:window-y="-4"
     inkscape:window-maximized="1">
    <sodipodi:guide
       position="315.53572,730.17859"
       orientation="0,1"
       id="guide3338" />
    <sodipodi:guide
       position="351.25,330.17858"
       orientation="0,1"
       id="guide3340" />
    <sodipodi:guide
       position="189.10714,408.8393"
       orientation="1,0"
       id="guide3344" />
    <sodipodi:guide
       position="589.04521,468.07945"
       orientation="1,0"
       id="guide3346" />
    <inkscape:grid
       type="xygrid"
       id="grid3440" />
    <sodipodi:guide
       position="589.04521,378.30213"
       orientation="1,0"
       id="guide3411" />
  </sodipodi:namedview>
  <metadata
     id="metadata7">
    <rdf:RDF>
      <cc:Work
         rdf:about="">
        <dc:format>image/svg+xml</dc:format>
        <dc:type
           rdf:resource="http://purl.org/dc/dcmitype/StillImage" />
        <dc:title>address book 2 intern</dc:title>
        <dc:date>June 2015</dc:date>
        <dc:creator>
          <cc:Agent>
            <dc:title>Johannes Hechler</dc:title>
          </cc:Agent>
        </dc:creator>
        <dc:rights>
          <cc:Agent>
            <dc:title>Johannes Hechler</dc:title>
          </cc:Agent>
        </dc:rights>
        <dc:publisher>
          <cc:Agent>
            <dc:title>RRZE</dc:title>
          </cc:Agent>
        </dc:publisher>
        <dc:contributor>
          <cc:Agent>
            <dc:title>Ute Weber, Hendrik Eggers</dc:title>
          </cc:Agent>
        </dc:contributor>
      </cc:Work>
    </rdf:RDF>
  </metadata>
  <g
     inkscape:label="Ebene 1"
     inkscape:groupmode="layer"
     id="layer1">
    <g
       id="g4175">
      <flowRoot
         style="font-style:normal;font-weight:normal;font-size:40px;line-height:125%;font-family:sans-serif;letter-spacing:0px;word-spacing:0px;fill:#252525;fill-opacity:1;stroke:none;stroke-width:1px;stroke-linecap:butt;stroke-linejoin:miter;stroke-opacity:1"
         id="flowRoot4169"
         xml:space="preserve"><flowRegion
           id="flowRegion4171"><rect
             y="427.07962"
             x="89.541069"
             height="88.78862"
             width="56.433445"
             id="rect4173" /></flowRegion><flowPara
           id="flowPara4175" /></flowRoot>      <rect
         inkscape:export-ydpi="4.9499998"
         inkscape:export-xdpi="4.9499998"
         y="322.27005"
         x="189.14485"
         height="400"
         width="400"
         id="rect3336"
         style="fill:none;fill-rule:evenodd;stroke:none;stroke-width:1px;stroke-linecap:butt;stroke-linejoin:miter;stroke-opacity:1" />
      <rect
         inkscape:export-ydpi="4.9499998"
         inkscape:export-xdpi="4.9499998"
         y="322.27701"
         x="188.95114"
         height="400"
         width="400"
         id="rect3336-6"
         style="fill:none;fill-rule:evenodd;stroke:none;stroke-width:1px;stroke-linecap:butt;stroke-linejoin:miter;stroke-opacity:1" />
      <path
         id="rect4162"
         d="M 278.55078 323.34766 C 265.5702 323.34766 255.12109 333.13514 255.12109 345.29492 L 255.12109 349.23438 L 273.03125 349.23438 C 285.05411 349.23437 297.43587 352.33904 307.83398 360.625 C 318.2321 368.91096 325.19141 383.1746 325.19141 397.40625 L 325.19141 400.44336 C 325.19141 414.67504 318.22908 428.94233 307.82812 437.22461 C 297.42719 445.50689 285.0479 448.60352 273.03125 448.60352 L 255.12109 448.60352 L 255.12109 473.97461 L 273.03125 473.97461 C 285.05411 473.97461 297.43586 477.07927 307.83398 485.36523 C 318.2321 493.6512 325.19141 507.91484 325.19141 522.14648 L 325.19141 525.18359 C 325.19141 539.41527 318.22908 553.68061 307.82812 561.96289 C 297.42719 570.24517 285.0479 573.34375 273.03125 573.34375 L 255.12109 573.34375 L 255.12109 598.71484 L 273.03125 598.71484 C 285.05411 598.71484 297.43587 601.81951 307.83398 610.10547 C 318.2321 618.39143 325.19141 632.65507 325.19141 646.88672 L 325.19141 649.92188 C 325.19141 664.15355 318.22908 678.42085 307.82812 686.70312 C 297.42719 694.98541 285.0479 698.08398 273.03125 698.08398 L 255.12109 698.08398 L 255.12109 700.4707 C 255.12109 712.63048 265.5702 722.41992 278.55078 722.41992 L 539.48242 722.41992 C 552.46296 722.41992 562.91406 712.63048 562.91406 700.4707 L 562.91406 345.29492 C 562.91406 333.13514 552.46296 323.34766 539.48242 323.34766 L 278.55078 323.34766 z "
         style="color:#000000;clip-rule:nonzero;display:inline;overflow:visible;visibility:visible;opacity:18999999;isolation:auto;mix-blend-mode:normal;color-interpolation:sRGB;color-interpolation-filters:linearRGB;solid-color:#000000;solid-opacity:1;fill:url(#linearGradient4259);fill-opacity:1;fill-rule:nonzero;stroke:none;stroke-width:27.79999924;stroke-linecap:square;stroke-linejoin:miter;stroke-miterlimit:4;stroke-dasharray:27.79999924, 55.59999847000000300;stroke-dashoffset:0;stroke-opacity:1;color-rendering:auto;image-rendering:auto;shape-rendering:auto;text-rendering:auto;enable-background:accumulate" />
      <path
         sodipodi:nodetypes="sssssssssssssssssssssssssss"
         style="color:#000000;clip-rule:nonzero;display:inline;overflow:visible;visibility:visible;opacity:18999999;isolation:auto;mix-blend-mode:normal;color-interpolation:sRGB;color-interpolation-filters:linearRGB;solid-color:#000000;solid-opacity:1;fill:#4e505d;fill-opacity:1;fill-rule:nonzero;stroke:#ffffff;stroke-width:0;stroke-linecap:square;stroke-linejoin:miter;stroke-miterlimit:4;stroke-dasharray:none;stroke-dashoffset:0;stroke-opacity:1;color-rendering:auto;image-rendering:auto;shape-rendering:auto;text-rendering:auto;enable-background:accumulate"
         d="m 241.29784,372.23427 c -15.0487,0 -27.16109,8.12358 -27.16109,23.17228 l 0,3.03653 c 0,15.0487 12.11234,23.1611 27.16109,23.1611 l 31.73268,0 c 15.0487,0 27.16109,-8.1124 27.16109,-23.1611 l 0,-3.03653 c 0,-15.0487 -12.11233,-23.17228 -27.16109,-23.17228 z m 0,126.73981 c -15.0487,0 -27.16109,8.12358 -27.16109,23.17229 l 0,3.03653 c 0,15.0487 12.11234,23.16109 27.16109,23.16109 l 31.73268,0 c 15.0487,0 27.16109,-8.11239 27.16109,-23.16109 l 0,-3.03653 c 0,-15.04871 -12.11233,-23.17229 -27.16109,-23.17229 z m 0,124.73982 c -15.0487,0 -27.16109,8.12358 -27.16109,23.17228 l 0,3.03653 c 0,15.0487 12.11234,23.1611 27.16109,23.1611 l 31.73268,0 c 15.0487,0 27.16109,-8.1124 27.16109,-23.1611 l 0,-3.03653 c 0,-15.0487 -12.11233,-23.17228 -27.16109,-23.17228 z"
         id="path4183"
         inkscape:connector-curvature="0" />
      <g
         id="g4174"
         transform="translate(46.399935,26.603034)">
        <g
           transform="matrix(0.57920146,0,0,0.57632274,276.37998,370.68137)"
           id="g3"
           style="fill:#ffffff">
          <path
             inkscape:connector-curvature="0"
             d="m 357.45,190.721 c -5.331,-5.33 -11.8,-7.993 -19.417,-7.993 l -9.131,0 0,-54.821 c 0,-35.022 -12.559,-65.093 -37.685,-90.218 C 266.093,12.563 236.025,0 200.998,0 165.972,0 135.898,12.563 110.776,37.688 85.65,62.814 73.091,92.884 73.091,127.907 l 0,54.821 -9.135,0 c -7.611,0 -14.084,2.663 -19.414,7.993 -5.33,5.326 -7.994,11.799 -7.994,19.417 l 0,164.452 c 0,7.611 2.665,14.086 7.994,19.417 5.33,5.325 11.803,7.991 19.414,7.991 l 274.084,0 c 7.617,0 14.085,-2.663 19.417,-7.991 5.325,-5.331 7.994,-11.806 7.994,-19.417 l 0,-164.455 c 0.004,-7.612 -2.669,-14.084 -8.001,-19.414 z m -85.363,-7.993 -142.178,0 0,-54.821 c 0,-20.175 7.139,-35.39201 21.414,-49.66501 14.277,-14.275 29.501,-21.411 49.678,-21.411 20.179,0 35.399,7.135 49.677,21.411 14.271,14.272 20.67346,29.50356 21.409,49.66501 z"
             id="path5"
             sodipodi:nodetypes="cscscscscscsscsscsccccssscsc"
             style="fill:#ffffff;fill-opacity:1" />
        </g>
        <path
           style="color:#000000;clip-rule:nonzero;display:inline;overflow:visible;visibility:visible;opacity:1;isolation:auto;mix-blend-mode:normal;color-interpolation:sRGB;color-interpolation-filters:linearRGB;solid-color:#000000;solid-opacity:1;fill:url(#linearGradient4185);fill-opacity:1;fill-rule:nonzero;stroke:none;stroke-width:50;stroke-linecap:butt;stroke-linejoin:round;stroke-miterlimit:4;stroke-dasharray:none;stroke-dashoffset:0;stroke-opacity:1;color-rendering:auto;image-rendering:auto;shape-rendering:auto;text-rendering:auto;enable-background:accumulate"
           d="m 393.63879,504.41562 c -9.67217,0 -17.51301,7.84084 -17.51301,17.51301 0.006,6.25062 1.3433,10.02413 6.7565,13.14944 l 0,24.63309 c 0,4.8511 5.90541,8.7565 10.75651,8.7565 4.8511,0 10.7565,-3.9054 10.7565,-8.7565 l 0,-24.63994 c 5.41109,-3.12408 6.7479,-6.89441 6.75651,-13.14259 0,-9.67217 -7.84084,-17.51301 -17.51301,-17.51301 z"
           id="path4163"
           inkscape:connector-curvature="0"
           sodipodi:nodetypes="sccsssccs" />
      </g>
    </g>
  </g>
</svg>
