<?xml version="1.0" encoding="UTF-8" standalone="no"?>
<!-- Created with Inkscape (http://www.inkscape.org/) -->

<svg
   xmlns:dc="http://purl.org/dc/elements/1.1/"
   xmlns:cc="http://creativecommons.org/ns#"
   xmlns:rdf="http://www.w3.org/1999/02/22-rdf-syntax-ns#"
   xmlns:svg="http://www.w3.org/2000/svg"
   xmlns="http://www.w3.org/2000/svg"
   xmlns:xlink="http://www.w3.org/1999/xlink"
   xmlns:sodipodi="http://sodipodi.sourceforge.net/DTD/sodipodi-0.dtd"
   xmlns:inkscape="http://www.inkscape.org/namespaces/inkscape"
   width="210mm"
   height="297mm"
   viewBox="0 0 744.09448819 1052.3622047"
   id="svg2"
   version="1.1"
   inkscape:version="0.91 r13725"
   inkscape:export-xdpi="3.3880799"
   inkscape:export-ydpi="3.3880799"
   sodipodi:docname="address-book-2-fau.svg"
   inkscape:export-filename="C:\Users\johannes\Documents\Arbeit\RRZE\github3\bicons\16x16\emblems\address-book-2-fau.png">
  <title
     id="title4261">address book 2</title>
  <defs
     id="defs4">
    <linearGradient
       inkscape:collect="always"
       id="linearGradient4253">
      <stop
         style="stop-color:#4e505d;stop-opacity:1;"
         offset="0"
         id="stop4255" />
      <stop
         style="stop-color:#7a859c;stop-opacity:1"
         offset="1"
         id="stop4257" />
    </linearGradient>
    <linearGradient
       id="linearGradient2224">
      <stop
         id="stop2226"
         offset="0"
         style="stop-color:#7c7c7c;stop-opacity:1;" />
      <stop
         id="stop2228"
         offset="1"
         style="stop-color:#b8b8b8;stop-opacity:1;" />
    </linearGradient>
    <linearGradient
       id="linearGradient15218">
      <stop
         id="stop15220"
         offset="0"
         style="stop-color:#eeeeef;stop-opacity:1;" />
      <stop
         id="stop2736"
         offset="0.59928656"
         style="stop-color:#d3d7cf;stop-opacity:1;" />
      <stop
         id="stop2738"
         offset="0.82758623"
         style="stop-color:#ffffff;stop-opacity:1;" />
      <stop
         id="stop15222"
         offset="1"
         style="stop-color:#d3d7cf;stop-opacity:1;" />
    </linearGradient>
    <pattern
       y="0"
       x="0"
       height="6"
       width="6"
       patternUnits="userSpaceOnUse"
       id="EMFhbasepattern" />
    <pattern
       y="0"
       x="0"
       height="6"
       width="6"
       patternUnits="userSpaceOnUse"
       id="EMFhbasepattern-5" />
    <pattern
       y="0"
       x="0"
       height="6"
       width="6"
       patternUnits="userSpaceOnUse"
       id="EMFhbasepattern-6" />
    <linearGradient
       inkscape:collect="always"
       xlink:href="#linearGradient4253"
       id="linearGradient4259"
       x1="240"
       y1="722.18365"
       x2="600"
       y2="322.18362"
       gradientUnits="userSpaceOnUse" />
  </defs>
  <sodipodi:namedview
     id="base"
     pagecolor="#ffffff"
     bordercolor="#666666"
     borderopacity="1.0"
     inkscape:pageopacity="0.0"
     inkscape:pageshadow="2"
     inkscape:zoom="0.70710678"
     inkscape:cx="312.45636"
     inkscape:cy="637.75677"
     inkscape:document-units="px"
     inkscape:current-layer="layer1"
     showgrid="true"
     showguides="true"
     inkscape:guide-bbox="true"
     inkscape:window-width="1366"
     inkscape:window-height="721"
     inkscape:window-x="-4"
     inkscape:window-y="-4"
     inkscape:window-maximized="1">
    <sodipodi:guide
       position="315.53572,730.17859"
       orientation="0,1"
       id="guide3338" />
    <sodipodi:guide
       position="351.25,330.17858"
       orientation="0,1"
       id="guide3340" />
    <sodipodi:guide
       position="189.10714,408.8393"
       orientation="1,0"
       id="guide3344" />
    <sodipodi:guide
       position="589.04521,468.07945"
       orientation="1,0"
       id="guide3346" />
    <inkscape:grid
       type="xygrid"
       id="grid3440" />
    <sodipodi:guide
       position="589.04521,378.30213"
       orientation="1,0"
       id="guide3411" />
  </sodipodi:namedview>
  <metadata
     id="metadata7">
    <rdf:RDF>
      <cc:Work
         rdf:about="">
        <dc:format>image/svg+xml</dc:format>
        <dc:type
           rdf:resource="http://purl.org/dc/dcmitype/StillImage" />
        <dc:title>address book 2</dc:title>
        <dc:date>June 2015</dc:date>
        <dc:creator>
          <cc:Agent>
            <dc:title>Johannes Hechler</dc:title>
          </cc:Agent>
        </dc:creator>
        <dc:rights>
          <cc:Agent>
            <dc:title>Johannes Hechler</dc:title>
          </cc:Agent>
        </dc:rights>
        <dc:publisher>
          <cc:Agent>
            <dc:title>RRZE</dc:title>
          </cc:Agent>
        </dc:publisher>
        <dc:contributor>
          <cc:Agent>
            <dc:title>Ute Weber, Hendrik Eggers</dc:title>
          </cc:Agent>
        </dc:contributor>
        <dc:subject>
          <rdf:Bag>
            <rdf:li>address</rdf:li>
            <rdf:li>book</rdf:li>
            <rdf:li>addressbook</rdf:li>
          </rdf:Bag>
        </dc:subject>
      </cc:Work>
    </rdf:RDF>
  </metadata>
  <g
     inkscape:label="Ebene 1"
     inkscape:groupmode="layer"
     id="layer1">
    <flowRoot
       xml:space="preserve"
       id="flowRoot4169"
       style="font-style:normal;font-weight:normal;font-size:40px;line-height:125%;font-family:sans-serif;letter-spacing:0px;word-spacing:0px;fill:#252525;fill-opacity:1;stroke:none;stroke-width:1px;stroke-linecap:butt;stroke-linejoin:miter;stroke-opacity:1"><flowRegion
         id="flowRegion4171"><rect
           id="rect4173"
           width="56.433445"
           height="88.78862"
           x="89.541069"
           y="427.07962" /></flowRegion><flowPara
         id="flowPara4175" /></flowRoot>    <rect
       style="fill:none;fill-rule:evenodd;stroke:none;stroke-width:1px;stroke-linecap:butt;stroke-linejoin:miter;stroke-opacity:1"
       id="rect3336"
       width="400"
       height="400"
       x="189.14485"
       y="322.27005"
       inkscape:export-xdpi="4.9499998"
       inkscape:export-ydpi="4.9499998" />
    <rect
       style="fill:none;fill-rule:evenodd;stroke:none;stroke-width:1px;stroke-linecap:butt;stroke-linejoin:miter;stroke-opacity:1"
       id="rect3336-6"
       width="400"
       height="400"
       x="188.95114"
       y="322.27701"
       inkscape:export-xdpi="4.9499998"
       inkscape:export-ydpi="4.9499998" />
    <path
       style="color:#000000;clip-rule:nonzero;display:inline;overflow:visible;visibility:visible;opacity:0.98999999;isolation:auto;mix-blend-mode:normal;color-interpolation:sRGB;color-interpolation-filters:linearRGB;solid-color:#000000;solid-opacity:1;fill:url(#linearGradient4259);fill-opacity:1;fill-rule:nonzero;stroke:none;stroke-width:27.79999924;stroke-linecap:square;stroke-linejoin:miter;stroke-miterlimit:4;stroke-dasharray:27.79999924, 55.59999847000000300;stroke-dashoffset:0;stroke-opacity:1;color-rendering:auto;image-rendering:auto;shape-rendering:auto;text-rendering:auto;enable-background:accumulate"
       d="m 278.55151,323.34684 260.93173,0 c 12.98054,0 23.43056,9.78926 23.43056,21.94904 l 0,355.17509 c 0,12.15978 -10.45002,21.94904 -23.43056,21.94904 l -260.93173,0 c -12.98058,0 -23.43062,-9.78926 -23.43062,-21.94904 l 0,-355.17509 c 0,-12.15978 10.45004,-21.94904 23.43062,-21.94904 z"
       id="rect4162"
       inkscape:connector-curvature="0" />
    <path
       sodipodi:nodetypes="sssssssssssssssssssssssssss"
       style="color:#000000;clip-rule:nonzero;display:inline;overflow:visible;visibility:visible;opacity:0.98999999;isolation:auto;mix-blend-mode:normal;color-interpolation:sRGB;color-interpolation-filters:linearRGB;solid-color:#000000;solid-opacity:1;fill:#4e505d;fill-opacity:1;fill-rule:nonzero;stroke:#ffffff;stroke-width:50;stroke-linecap:square;stroke-linejoin:miter;stroke-miterlimit:4;stroke-dasharray:none;stroke-dashoffset:0;stroke-opacity:1;color-rendering:auto;image-rendering:auto;shape-rendering:auto;text-rendering:auto;enable-background:accumulate"
       d="m 241.29784,374.23427 c -15.0487,0 -27.16109,8.12358 -27.16109,23.17228 l 0,3.03653 c 0,15.0487 12.11234,23.1611 27.16109,23.1611 l 31.73268,0 c 15.0487,0 27.16109,-8.1124 27.16109,-23.1611 l 0,-3.03653 c 0,-15.0487 -12.11233,-23.17228 -27.16109,-23.17228 z m 0,124.73981 c -15.0487,0 -27.16109,8.12358 -27.16109,23.17229 l 0,3.03653 c 0,15.0487 12.11234,23.16109 27.16109,23.16109 l 31.73268,0 c 15.0487,0 27.16109,-8.11239 27.16109,-23.16109 l 0,-3.03653 c 0,-15.04871 -12.11233,-23.17229 -27.16109,-23.17229 z m 0,124.73982 c -15.0487,0 -27.16109,8.12358 -27.16109,23.17228 l 0,3.03653 c 0,15.0487 12.11234,23.1611 27.16109,23.1611 l 31.73268,0 c 15.0487,0 27.16109,-8.1124 27.16109,-23.1611 l 0,-3.03653 c 0,-15.0487 -12.11233,-23.17228 -27.16109,-23.17228 z"
       id="path4191"
       inkscape:connector-curvature="0" />
    <path
       inkscape:connector-curvature="0"
       id="path4183"
       d="m 241.29784,372.23427 c -15.0487,0 -27.16109,8.12358 -27.16109,23.17228 l 0,3.03653 c 0,15.0487 12.11234,23.1611 27.16109,23.1611 l 31.73268,0 c 15.0487,0 27.16109,-8.1124 27.16109,-23.1611 l 0,-3.03653 c 0,-15.0487 -12.11233,-23.17228 -27.16109,-23.17228 z m 0,126.73981 c -15.0487,0 -27.16109,8.12358 -27.16109,23.17229 l 0,3.03653 c 0,15.0487 12.11234,23.16109 27.16109,23.16109 l 31.73268,0 c 15.0487,0 27.16109,-8.11239 27.16109,-23.16109 l 0,-3.03653 c 0,-15.04871 -12.11233,-23.17229 -27.16109,-23.17229 z m 0,124.73982 c -15.0487,0 -27.16109,8.12358 -27.16109,23.17228 l 0,3.03653 c 0,15.0487 12.11234,23.1611 27.16109,23.1611 l 31.73268,0 c 15.0487,0 27.16109,-8.1124 27.16109,-23.1611 l 0,-3.03653 c 0,-15.0487 -12.11233,-23.17228 -27.16109,-23.17228 z"
       style="color:#000000;clip-rule:nonzero;display:inline;overflow:visible;visibility:visible;opacity:0.98999999;isolation:auto;mix-blend-mode:normal;color-interpolation:sRGB;color-interpolation-filters:linearRGB;solid-color:#000000;solid-opacity:1;fill:#4e505d;fill-opacity:1;fill-rule:nonzero;stroke:#ffffff;stroke-width:0;stroke-linecap:square;stroke-linejoin:miter;stroke-miterlimit:4;stroke-dasharray:none;stroke-dashoffset:0;stroke-opacity:1;color-rendering:auto;image-rendering:auto;shape-rendering:auto;text-rendering:auto;enable-background:accumulate"
       sodipodi:nodetypes="sssssssssssssssssssssssssss" />
    <g
       id="g4185">
      <path
         inkscape:connector-curvature="0"
         style="fill:#204a87;stroke:#ffffff;stroke-width:50;stroke-linejoin:round;stroke-miterlimit:4;stroke-dasharray:none"
         d="m 238.97067,573.00446 0,149.15445 38.23633,0 0,-60.66261 62.25092,0 -22.48228,60.76613 38.12095,0 11.13678,-31.60144 49.3273,0 10.60226,31.55732 39.2358,0 -56.21842,-149.01531 -38.16677,0 -22.27525,60.19597 -71.47699,0 0,-33.41034 76.23341,0 0,-26.78224 -114.52404,-0.20193 z m 313.9374,0.0628 0,103.81319 c -6.02175,23.93345 -44.29091,26.78859 -52.50221,-1.06057 l 0,-102.61856 -35.79619,0.13235 0,104.34093 c 4.22207,24.64672 15.47125,36.61976 35.79619,44.41646 l 53.03334,0 c 27.3857,-12.13689 31.64793,-26.59764 35.53147,-41.49948 l 0,-107.52432 -36.0626,0 z m -162.29019,36.45629 16.97752,57.73376 -34.5303,-0.0662 17.55278,-57.66758 z"
         id="path4252" />
      <path
         id="path3778"
         d="m 238.97067,573.00446 0,149.15445 38.23633,0 0,-60.66261 62.25092,0 -22.48228,60.76613 38.12095,0 11.13678,-31.60144 49.3273,0 10.60226,31.55732 39.2358,0 -56.21842,-149.01531 -38.16677,0 -22.27525,60.19597 -71.47699,0 0,-33.41034 76.23341,0 0,-26.78224 -114.52404,-0.20193 z m 313.9374,0.0628 0,103.81319 c -6.02175,23.93345 -44.29091,26.78859 -52.50221,-1.06057 l 0,-102.61856 -35.79619,0.13235 0,104.34093 c 4.22207,24.64672 15.47125,36.61976 35.79619,44.41646 l 53.03334,0 c 27.3857,-12.13689 31.64793,-26.59764 35.53147,-41.49948 l 0,-107.52432 -36.0626,0 z m -162.29019,36.45629 16.97752,57.73376 -34.5303,-0.0662 17.55278,-57.66758 z"
         style="fill:#204a87;stroke:none"
         inkscape:connector-curvature="0" />
      <path
         id="rect4369"
         d="m 238.97067,583.61181 0,5.60656 114.52404,0 0,-5.60656 -114.52404,0 z m 128.1909,0 -2.07361,5.60656 50.13502,0 -2.11604,-5.60656 -45.94537,0 z m 97.4481,0 0,5.60656 35.79619,0 0,-5.60656 -35.79619,0 z m 88.2984,0 0,5.60656 36.0626,0 0,-5.60656 -36.0626,0 z m -313.9374,16.91134 0,5.60657 38.29063,0 0,-5.60657 -38.29063,0 z m 121.93272,0 -2.07361,5.60657 62.77187,0 -2.11435,-5.60657 -58.58391,0 z m 103.70628,0 0,5.60657 35.79619,0 0,-5.60657 -35.79619,0 z m 88.2984,0 0,5.60657 36.0626,0 0,-5.60657 -36.0626,0 z m -313.9374,13.36481 0,5.60658 38.29063,0 0,-5.60658 -38.29063,0 z m 116.98795,0 -2.07532,5.60658 33.69882,0 1.70708,-5.60658 -33.33058,0 z m 35.94212,0 1.64939,5.60658 33.09471,0 -2.11603,-5.60658 -32.62807,0 z m 72.70893,0 0,5.60658 35.79619,0 0,-5.60658 -35.79619,0 z m 88.2984,0 0,5.60658 36.0626,0 0,-5.60658 -36.0626,0 z m -313.9374,13.68214 0,5.60657 38.29063,0 0,-5.60657 -38.29063,0 z m 111.92438,0 -2.07531,5.60657 34.59818,0 1.70708,-5.60657 -34.22995,0 z m 45.02905,0 1.64939,5.60657 34.23333,0 -2.11604,-5.60657 -33.76668,0 z m 68.68557,0 0,5.60657 35.79619,0 0,-5.60657 -35.79619,0 z m 88.2984,0 0,5.60657 36.0626,0 0,-5.60657 -36.0626,0 z m -313.9374,17.33557 0,5.60826 139.16987,0 1.70709,-5.60826 -140.87696,0 z m 162.05262,0 1.64769,5.60826 35.67571,0 -2.11603,-5.60826 -35.20737,0 z m 63.58638,0 0,5.60826 35.79619,0 0,-5.60826 -35.79619,0 z m 88.2984,0 0,5.60826 36.0626,0 0,-5.60826 -36.0626,0 z m -313.9374,16.31234 0,5.60657 38.23633,0 0,-5.32828 62.25092,0 -1.9718,5.32828 35.69098,0 1.70539,-5.60657 -135.91182,0 z m 166.84807,0 1.64939,5.60657 37.03323,0 -2.11604,-5.60657 -36.56658,0 z m 58.79093,0 0,5.60657 35.79619,0 0,-5.60657 -35.79619,0 z m 88.2984,0 0,5.60657 36.0626,0 0,-5.60657 -36.0626,0 z m -313.9374,13.76189 0,5.60657 38.23633,0 0,-5.60657 -38.23633,0 z m 95.49835,0 -2.07362,5.60657 117.29679,0 -2.11434,-5.60657 -113.10883,0 z m 130.14065,0 0,2.69468 c 0.17019,0.99346 0.35495,1.95906 0.54811,2.91189 l 37.07904,0 c -0.71284,-1.47578 -1.32874,-3.06331 -1.83096,-4.7666 l 0,-0.83997 -35.79619,0 z m 88.2984,0 0,1.90053 c -0.32686,1.29909 -0.7539,2.5327 -1.2608,3.70604 l 37.3234,0 0,-5.60657 -36.0626,0 z m -313.9374,15.54703 0,5.60658 38.23633,0 0,-5.60658 -38.23633,0 z m 89.74585,0 -2.07362,5.60658 37.66109,0 1.92938,-5.47252 49.3273,0 1.83775,5.47252 38.15997,0 -2.11604,-5.60658 -124.72583,0 z m 139.11897,0 c 0.68712,1.97333 1.44843,3.8382 2.28064,5.60658 l 113.58904,0 c 0.90125,-1.8512 1.65285,-3.72264 2.32307,-5.60658 l -42.44805,0 c -9.38722,6.75994 -23.33976,7.21447 -33.16259,0 l -42.58211,0 z m -228.86482,15.03627 0,5.60657 38.23633,0 0,-5.60657 -38.23633,0 z m 84.1834,0 -2.07362,5.60657 37.9258,0 1.9752,-5.60657 -37.82738,0 z m 97.41246,0 1.88526,5.60657 38.77935,0 -2.11604,-5.60657 -38.54857,0 z m 55.39034,0 c 1.6303,2.03012 3.41689,3.89471 5.37409,5.60657 l 90.4348,0 c 2.21178,-1.83599 4.10363,-3.70755 5.74232,-5.60657 l -101.55121,0 z"
         style="color:#252525;clip-rule:nonzero;display:inline;overflow:visible;visibility:visible;opacity:1;isolation:auto;mix-blend-mode:normal;color-interpolation:sRGB;color-interpolation-filters:linearRGB;solid-color:#252525;solid-opacity:1;fill:#ffffff;fill-opacity:1;fill-rule:nonzero;stroke:none;stroke-width:10;stroke-linecap:butt;stroke-linejoin:bevel;stroke-miterlimit:4;stroke-dasharray:none;stroke-dashoffset:60.95968628;stroke-opacity:1;color-rendering:auto;image-rendering:auto;shape-rendering:auto;text-rendering:auto;enable-background:accumulate"
         inkscape:connector-curvature="0" />
    </g>
  </g>
</svg>
