<?xml version="1.0" encoding="UTF-8" standalone="no"?>
<!-- Created with Inkscape (http://www.inkscape.org/) -->

<svg
   xmlns:dc="http://purl.org/dc/elements/1.1/"
   xmlns:cc="http://creativecommons.org/ns#"
   xmlns:rdf="http://www.w3.org/1999/02/22-rdf-syntax-ns#"
   xmlns:svg="http://www.w3.org/2000/svg"
   xmlns="http://www.w3.org/2000/svg"
   xmlns:xlink="http://www.w3.org/1999/xlink"
   xmlns:sodipodi="http://sodipodi.sourceforge.net/DTD/sodipodi-0.dtd"
   xmlns:inkscape="http://www.inkscape.org/namespaces/inkscape"
   width="210mm"
   height="297mm"
   viewBox="0 0 744.09448819 1052.3622047"
   id="svg2"
   version="1.1"
   inkscape:version="0.91 r13725"
   inkscape:export-xdpi="3.5982575"
   inkscape:export-ydpi="3.5982575"
   sodipodi:docname="address-book-global.svg"
   inkscape:export-filename="C:\Users\johannes\Documents\Arbeit\RRZE\github3\bicons\16x16\emblems\address-book-global.png">
  <title
     id="title4261">address book 2 global</title>
  <defs
     id="defs4">
    <linearGradient
       id="linearGradient2224">
      <stop
         id="stop2226"
         offset="0"
         style="stop-color:#7c7c7c;stop-opacity:1;" />
      <stop
         id="stop2228"
         offset="1"
         style="stop-color:#b8b8b8;stop-opacity:1;" />
    </linearGradient>
    <linearGradient
       id="linearGradient15218">
      <stop
         id="stop15220"
         offset="0"
         style="stop-color:#eeeeef;stop-opacity:1;" />
      <stop
         id="stop2736"
         offset="0.59928656"
         style="stop-color:#d3d7cf;stop-opacity:1;" />
      <stop
         id="stop2738"
         offset="0.82758623"
         style="stop-color:#ffffff;stop-opacity:1;" />
      <stop
         id="stop15222"
         offset="1"
         style="stop-color:#d3d7cf;stop-opacity:1;" />
    </linearGradient>
    <pattern
       y="0"
       x="0"
       height="6"
       width="6"
       patternUnits="userSpaceOnUse"
       id="EMFhbasepattern" />
    <pattern
       y="0"
       x="0"
       height="6"
       width="6"
       patternUnits="userSpaceOnUse"
       id="EMFhbasepattern-5" />
    <pattern
       y="0"
       x="0"
       height="6"
       width="6"
       patternUnits="userSpaceOnUse"
       id="EMFhbasepattern-6" />
    <linearGradient
       inkscape:collect="always"
       xlink:href="#linearGradient4253"
       id="linearGradient4259"
       x1="240"
       y1="722.18365"
       x2="600"
       y2="322.18362"
       gradientUnits="userSpaceOnUse"
       gradientTransform="matrix(1.0045947,0,0,1,-8.2201952,30.017255)" />
    <linearGradient
       inkscape:collect="always"
       id="linearGradient4253">
      <stop
         style="stop-color:#4e505d;stop-opacity:1;"
         offset="0"
         id="stop4255" />
      <stop
         style="stop-color:#7a859c;stop-opacity:1"
         offset="1"
         id="stop4257" />
    </linearGradient>
  </defs>
  <sodipodi:namedview
     id="base"
     pagecolor="#ffffff"
     bordercolor="#666666"
     borderopacity="1.0"
     inkscape:pageopacity="0.0"
     inkscape:pageshadow="2"
     inkscape:zoom="1"
     inkscape:cx="314.02429"
     inkscape:cy="523.04515"
     inkscape:document-units="px"
     inkscape:current-layer="layer1"
     showgrid="false"
     showguides="true"
     inkscape:guide-bbox="true"
     inkscape:window-width="1600"
     inkscape:window-height="837"
     inkscape:window-x="-4"
     inkscape:window-y="-4"
     inkscape:window-maximized="1"
     inkscape:snap-bbox="true"
     inkscape:bbox-nodes="true">
    <sodipodi:guide
       position="315.53572,730.17859"
       orientation="0,1"
       id="guide3338" />
    <sodipodi:guide
       position="351.25,330.17858"
       orientation="0,1"
       id="guide3340" />
    <sodipodi:guide
       position="189.10714,408.8393"
       orientation="1,0"
       id="guide3344" />
    <sodipodi:guide
       position="589.04521,468.07945"
       orientation="1,0"
       id="guide3346" />
    <inkscape:grid
       type="xygrid"
       id="grid3440" />
    <sodipodi:guide
       position="589.04521,378.30213"
       orientation="1,0"
       id="guide3411" />
  </sodipodi:namedview>
  <metadata
     id="metadata7">
    <rdf:RDF>
      <cc:Work
         rdf:about="">
        <dc:format>image/svg+xml</dc:format>
        <dc:type
           rdf:resource="http://purl.org/dc/dcmitype/StillImage" />
        <dc:title>address book 2 global</dc:title>
        <dc:date>June 2015</dc:date>
        <dc:creator>
          <cc:Agent>
            <dc:title>Johannes Hechler</dc:title>
          </cc:Agent>
        </dc:creator>
        <dc:rights>
          <cc:Agent>
            <dc:title>Johannes Hechler</dc:title>
          </cc:Agent>
        </dc:rights>
        <dc:publisher>
          <cc:Agent>
            <dc:title>RRZE</dc:title>
          </cc:Agent>
        </dc:publisher>
        <dc:contributor>
          <cc:Agent>
            <dc:title>Ute Weber, Hendrik Eggers</dc:title>
          </cc:Agent>
        </dc:contributor>
      </cc:Work>
    </rdf:RDF>
  </metadata>
  <g
     inkscape:label="Ebene 1"
     inkscape:groupmode="layer"
     id="layer1">
    <g
       id="g4226"
       transform="translate(6.9483426,-30.103632)">
      <flowRoot
         transform="translate(-7.0479952,30.017255)"
         style="font-style:normal;font-weight:normal;font-size:40px;line-height:125%;font-family:sans-serif;letter-spacing:0px;word-spacing:0px;fill:#252525;fill-opacity:1;stroke:none;stroke-width:1px;stroke-linecap:butt;stroke-linejoin:miter;stroke-opacity:1"
         id="flowRoot4169"
         xml:space="preserve"><flowRegion
           id="flowRegion4171"><rect
             y="427.07962"
             x="89.541069"
             height="88.78862"
             width="56.433445"
             id="rect4173" /></flowRegion><flowPara
           id="flowPara4175" /></flowRoot>      <rect
         inkscape:export-ydpi="4.9499998"
         inkscape:export-xdpi="4.9499998"
         y="352.28726"
         x="182.09686"
         height="400"
         width="400"
         id="rect3336"
         style="fill:none;fill-rule:evenodd;stroke:none;stroke-width:1px;stroke-linecap:butt;stroke-linejoin:miter;stroke-opacity:1" />
      <rect
         inkscape:export-ydpi="4.9499998"
         inkscape:export-xdpi="4.9499998"
         y="352.29422"
         x="181.90314"
         height="400"
         width="400"
         id="rect3336-6"
         style="fill:none;fill-rule:evenodd;stroke:none;stroke-width:1px;stroke-linecap:butt;stroke-linejoin:miter;stroke-opacity:1" />
      <path
         inkscape:connector-curvature="0"
         id="rect4162"
         d="m 271.61044,353.36491 c -13.04023,0 -23.53735,9.78748 -23.53735,21.94726 l 0,3.93946 17.99246,0 c 12.0781,-10e-6 24.51674,3.10466 34.96263,11.39062 10.4459,8.28596 17.43718,22.5496 17.43718,36.78125 l 0,3.03711 c 0,14.23168 -6.99432,28.49897 -17.44307,36.78125 -10.44872,8.28228 -22.88488,11.37891 -34.95674,11.37891 l -17.99246,0 0,25.37109 17.99246,0 c 12.0781,0 24.51673,3.10466 34.96263,11.39062 10.4459,8.28597 17.43718,22.54961 17.43718,36.78125 l 0,3.03711 c 0,14.23168 -6.99432,28.49702 -17.44307,36.7793 -10.44872,8.28228 -22.88488,11.38086 -34.95674,11.38086 l -17.99246,0 0,25.37109 17.99246,0 c 12.0781,0 24.51674,3.10467 34.96263,11.39063 10.4459,8.28596 17.43718,22.5496 17.43718,36.78125 l 0,3.03516 c 0,14.23167 -6.99432,28.499 -17.44307,36.7812 -10.44872,8.2823 -22.88488,11.3809 -34.95674,11.3809 l -17.99246,0 0,2.3867 c 0,12.1598 10.49712,21.9492 23.53735,21.9492 l 262.13053,0 c 13.04018,0 23.5393,-9.7894 23.5393,-21.9492 l 0,-355.17576 c 0,-12.15978 -10.49912,-21.94726 -23.5393,-21.94726 l -262.13053,0 z"
         style="color:#000000;clip-rule:nonzero;display:inline;overflow:visible;visibility:visible;opacity:1;isolation:auto;mix-blend-mode:normal;color-interpolation:sRGB;color-interpolation-filters:linearRGB;solid-color:#000000;solid-opacity:1;fill:url(#linearGradient4259);fill-opacity:1;fill-rule:nonzero;stroke:none;stroke-width:27.79999924;stroke-linecap:square;stroke-linejoin:miter;stroke-miterlimit:4;stroke-dasharray:27.79999924, 55.59999847;stroke-dashoffset:0;stroke-opacity:1;color-rendering:auto;image-rendering:auto;shape-rendering:auto;text-rendering:auto;enable-background:accumulate" />
      <path
         sodipodi:nodetypes="sssssssssssssssssssssssssss"
         style="color:#000000;clip-rule:nonzero;display:inline;overflow:visible;visibility:visible;opacity:1;isolation:auto;mix-blend-mode:normal;color-interpolation:sRGB;color-interpolation-filters:linearRGB;solid-color:#000000;solid-opacity:1;fill:#4e505d;fill-opacity:1;fill-rule:nonzero;stroke:#ffffff;stroke-width:0;stroke-linecap:square;stroke-linejoin:miter;stroke-miterlimit:4;stroke-dasharray:none;stroke-dashoffset:0;stroke-opacity:1;color-rendering:auto;image-rendering:auto;shape-rendering:auto;text-rendering:auto;enable-background:accumulate"
         d="m 234.24984,402.25152 c -15.0487,0 -27.16109,8.12358 -27.16109,23.17228 l 0,3.03653 c 0,15.0487 12.11234,23.1611 27.16109,23.1611 l 31.73268,0 c 15.0487,0 27.16109,-8.1124 27.16109,-23.1611 l 0,-3.03653 c 0,-15.0487 -12.11233,-23.17228 -27.16109,-23.17228 z m 0,126.73981 c -15.0487,0 -27.16109,8.12358 -27.16109,23.17229 l 0,3.03653 c 0,15.0487 12.11234,23.16109 27.16109,23.16109 l 31.73268,0 c 15.0487,0 27.16109,-8.11239 27.16109,-23.16109 l 0,-3.03653 c 0,-15.04871 -12.11233,-23.17229 -27.16109,-23.17229 z m 0,124.73982 c -15.0487,0 -27.16109,8.12358 -27.16109,23.17228 l 0,3.03653 c 0,15.0487 12.11234,23.16107 27.16109,23.16107 l 31.73268,0 c 15.0487,0 27.16109,-8.11237 27.16109,-23.16107 l 0,-3.03653 c 0,-15.0487 -12.11233,-23.17228 -27.16109,-23.17228 z"
         id="path4183"
         inkscape:connector-curvature="0" />
      <path
         sodipodi:nodetypes="ccccccccccccccccscccccccccccccccccccccccccccccccccccccccccccccccccccccc"
         inkscape:connector-curvature="0"
         id="path5"
         d="m 443.14177,427.45077 c -42.67325,0.29336 -83.92126,26.77722 -101.02539,66.07616 -16.88018,36.14633 -12.05686,80.76066 11.6582,112.73828 0.004,0.006 0.008,0.0119 0.0117,0.0176 25.88091,36.04118 74.09748,53.99667 117.21094,42.89063 32.70582,-7.96264 61.52933,-30.83952 75.41797,-61.75391 16.20173,-33.45072 13.74276,-74.58154 -5.83008,-106.08203 -19.9157,-33.61631 -58.56275,-54.48452 -97.44336,-53.88671 z m -9.86719,26.17773 c -0.007,0.095 0.003,0.0834 -0.006,0.17773 l -0.0137,0.13477 0,50.4707 c -8.44501,-0.0474 -17.01242,0.0732 -24.97851,-0.17383 4.9795,-15.08944 12.15093,-42.08523 24.99804,-50.60937 z m 22.69922,0.0508 c 11.49701,7.19332 18.39661,10.64341 23.49414,23.75586 0.21569,1.25708 0.66666,24.24416 1.09766,25.25586 0.28126,0.66021 0.45863,1.14477 0.68945,1.71484 l -25.28125,0 z m -60.97461,11.20898 c -4.56711,8.74266 -7.89102,30.06285 -10.38476,39.51758 l -16.42383,0 c 6.87563,-10.91618 16.07957,-32.35235 26.80859,-39.51758 z m 99.3125,0.21289 c 10.63688,7.13767 19.68449,28.49214 26.52149,39.32227 -5.70242,0.0364 -11.28568,0.0956 -16.28906,-0.29297 -2.46936,-9.28413 -5.76197,-30.42992 -10.23243,-39.0293 z m -136.06445,61.67383 22.06836,0 c -2.05916,16.51572 -2.07199,11.26798 -0.002,27.78711 l -22.25977,0 c -4.55537,-16.25705 -4.56475,-11.63614 0.19336,-27.78711 z m 44.87891,0 30.12695,0 0,27.78711 -30.2793,0 c -2.22821,-16.60713 -2.3999,-11.39519 0.15235,-27.78711 z m 52.84765,0 30.12696,0 c 2.54974,16.37992 2.38122,11.18849 0.15039,27.78711 l -30.27735,0 z m 52.93946,0 22.07031,0 c 4.73325,16.02431 4.74855,11.59596 0.1914,27.78711 l -22.25976,0 c 2.07105,-16.51906 2.05746,-11.27184 -0.002,-27.78711 z m -101.07813,49.88086 c 0.33862,0.0478 0.16004,-0.0225 0.71094,0.14648 l 0.41992,0.12696 24.28906,0 0,49.17578 c -12.13727,-7.46406 -19.30351,-31.82402 -24.20117,-45.66211 l -0.0117,-0.0312 -0.0117,-0.0312 c -0.63895,-1.68001 -0.94468,-2.81821 -1.19531,-3.72461 z m -39.80078,0.27344 16.5625,0 c 2.48625,9.60279 5.79806,29.09371 10.41211,37.98828 -10.88325,-7.25081 -20.19977,-26.83153 -26.97461,-37.98828 z m 87.93945,0 25.08985,0 c -4.89207,15.30879 -12.05837,40.81481 -25.16797,49.52929 0.009,-0.0429 -1.6e-4,-0.0439 0.01,-0.0879 l 0.0684,-0.31054 z m 48.65821,0 16.58203,0 c -6.68881,11.04552 -16.39912,30.95852 -26.96485,37.95312 4.60391,-8.88389 7.90102,-28.36276 10.38282,-37.95312 z"
         style="fill:#ffffff;fill-opacity:1;stroke:none;stroke-width:5.84351587;stroke-miterlimit:4;stroke-dasharray:none" />
    </g>
  </g>
</svg>
