<?xml version="1.0" encoding="UTF-8" standalone="no"?>
<!-- Created with Inkscape (http://www.inkscape.org/) -->

<svg
   xmlns:dc="http://purl.org/dc/elements/1.1/"
   xmlns:cc="http://creativecommons.org/ns#"
   xmlns:rdf="http://www.w3.org/1999/02/22-rdf-syntax-ns#"
   xmlns:svg="http://www.w3.org/2000/svg"
   xmlns="http://www.w3.org/2000/svg"
   xmlns:xlink="http://www.w3.org/1999/xlink"
   xmlns:sodipodi="http://sodipodi.sourceforge.net/DTD/sodipodi-0.dtd"
   xmlns:inkscape="http://www.inkscape.org/namespaces/inkscape"
   width="210mm"
   height="297mm"
   viewBox="0 0 744.09448819 1052.3622047"
   id="svg2"
   version="1.1"
   inkscape:version="0.91 r13725"
   inkscape:export-xdpi="3.5999999"
   inkscape:export-ydpi="3.5999999"
   sodipodi:docname="affiliation-tap.svg"
   inkscape:export-filename="D:\Dokumente\Arbeit\RRZE\github\bicons\16x16\emblems\affiliation-tap.png">
  <title
     id="title4275">affiliation tap</title>
  <defs
     id="defs4">
    <linearGradient
       id="linearGradient2224">
      <stop
         id="stop2226"
         offset="0"
         style="stop-color:#7c7c7c;stop-opacity:1;" />
      <stop
         id="stop2228"
         offset="1"
         style="stop-color:#b8b8b8;stop-opacity:1;" />
    </linearGradient>
    <linearGradient
       id="linearGradient15218">
      <stop
         id="stop15220"
         offset="0"
         style="stop-color:#eeeeef;stop-opacity:1;" />
      <stop
         id="stop2736"
         offset="0.59928656"
         style="stop-color:#d3d7cf;stop-opacity:1;" />
      <stop
         id="stop2738"
         offset="0.82758623"
         style="stop-color:#ffffff;stop-opacity:1;" />
      <stop
         id="stop15222"
         offset="1"
         style="stop-color:#d3d7cf;stop-opacity:1;" />
    </linearGradient>
    <pattern
       y="0"
       x="0"
       height="6"
       width="6"
       patternUnits="userSpaceOnUse"
       id="EMFhbasepattern" />
    <pattern
       y="0"
       x="0"
       height="6"
       width="6"
       patternUnits="userSpaceOnUse"
       id="EMFhbasepattern-5" />
    <linearGradient
       inkscape:collect="always"
       xlink:href="#linearGradient4321"
       id="linearGradient4261"
       gradientUnits="userSpaceOnUse"
       gradientTransform="matrix(1.2870657,0,0,0.8167456,-112.13247,138.61578)"
       x1="280"
       y1="692.36218"
       x2="500"
       y2="472.36221" />
    <linearGradient
       id="linearGradient4321"
       inkscape:collect="always">
      <stop
         id="stop4323"
         offset="0"
         style="stop-color:#4e505d;stop-opacity:1;" />
      <stop
         id="stop4325"
         offset="1"
         style="stop-color:#7a8597;stop-opacity:1" />
    </linearGradient>
    <linearGradient
       inkscape:collect="always"
       xlink:href="#linearGradient4321"
       id="linearGradient4268"
       gradientUnits="userSpaceOnUse"
       gradientTransform="matrix(1.2870657,0,0,0.82519463,-112.13247,8.5065242)"
       x1="280"
       y1="692.36218"
       x2="500"
       y2="472.36221" />
  </defs>
  <sodipodi:namedview
     id="base"
     pagecolor="#ffffff"
     bordercolor="#666666"
     borderopacity="1.0"
     inkscape:pageopacity="0.0"
     inkscape:pageshadow="2"
     inkscape:zoom="0.70710678"
     inkscape:cx="411.23645"
     inkscape:cy="557.83042"
     inkscape:document-units="px"
     inkscape:current-layer="layer1"
     showgrid="false"
     showguides="true"
     inkscape:guide-bbox="true"
     inkscape:window-width="1600"
     inkscape:window-height="837"
     inkscape:window-x="-4"
     inkscape:window-y="-4"
     inkscape:window-maximized="1"
     inkscape:snap-bbox="true"
     inkscape:bbox-paths="true"
     inkscape:bbox-nodes="true">
    <sodipodi:guide
       position="315.53572,730.17859"
       orientation="0,1"
       id="guide3338" />
    <sodipodi:guide
       position="351.25,330.17858"
       orientation="0,1"
       id="guide3340" />
    <sodipodi:guide
       position="189.10714,408.8393"
       orientation="1,0"
       id="guide3344" />
    <sodipodi:guide
       position="589.04521,468.07945"
       orientation="1,0"
       id="guide3346" />
    <inkscape:grid
       type="xygrid"
       id="grid3440" />
    <sodipodi:guide
       position="0,0"
       orientation="0,1"
       id="guide3405" />
    <sodipodi:guide
       position="0,0"
       orientation="0,1"
       id="guide3409" />
    <sodipodi:guide
       position="589.04521,378.30213"
       orientation="1,0"
       id="guide3411" />
  </sodipodi:namedview>
  <metadata
     id="metadata7">
    <rdf:RDF>
      <cc:Work
         rdf:about="">
        <dc:format>image/svg+xml</dc:format>
        <dc:type
           rdf:resource="http://purl.org/dc/dcmitype/StillImage" />
        <dc:title>affiliation tap</dc:title>
        <dc:date>June 2015</dc:date>
        <dc:creator>
          <cc:Agent>
            <dc:title>Johannes Hechler</dc:title>
          </cc:Agent>
        </dc:creator>
        <dc:rights>
          <cc:Agent>
            <dc:title>Johannes Hechler</dc:title>
          </cc:Agent>
        </dc:rights>
        <dc:publisher>
          <cc:Agent>
            <dc:title>RRZE</dc:title>
          </cc:Agent>
        </dc:publisher>
        <dc:contributor>
          <cc:Agent>
            <dc:title>Ute Weber, Hendrik Eggers</dc:title>
          </cc:Agent>
        </dc:contributor>
        <dc:subject>
          <rdf:Bag>
            <rdf:li>affiliation</rdf:li>
            <rdf:li>water</rdf:li>
            <rdf:li>tap</rdf:li>
          </rdf:Bag>
        </dc:subject>
      </cc:Work>
    </rdf:RDF>
  </metadata>
  <g
     inkscape:label="Ebene 1"
     inkscape:groupmode="layer"
     id="layer1">
    <flowRoot
       transform="translate(-0.037721,-0.086436)"
       xml:space="preserve"
       id="flowRoot4169"
       style="font-style:normal;font-weight:normal;font-size:40px;line-height:125%;font-family:sans-serif;letter-spacing:0px;word-spacing:0px;fill:#252525;fill-opacity:1;stroke:none;stroke-width:1px;stroke-linecap:butt;stroke-linejoin:miter;stroke-opacity:1"><flowRegion
         id="flowRegion4171"><rect
           id="rect4173"
           width="56.433445"
           height="88.78862"
           x="89.541069"
           y="427.07962" /></flowRegion><flowPara
         id="flowPara4175" /></flowRoot>    <rect
       style="fill:none;fill-rule:evenodd;stroke:none;stroke-width:1px;stroke-linecap:butt;stroke-linejoin:miter;stroke-opacity:1"
       id="rect3336"
       width="400"
       height="400"
       x="189.10713"
       y="322.18362"
       inkscape:export-xdpi="4.9499998"
       inkscape:export-ydpi="4.9499998" />
    <g
       id="g4444"
       transform="matrix(0.92054258,-0.39064225,0.39064225,0.92054258,-128.95053,197.06544)" />
    <path
       style="opacity:1;fill:url(#linearGradient4261);fill-opacity:1;stroke:none;stroke-width:23;stroke-linecap:butt;stroke-linejoin:round;stroke-miterlimit:4;stroke-dasharray:none;stroke-opacity:1"
       d="M 220.0332 623.24023 C 216.89086 623.24023 214.36133 625.76976 214.36133 628.91211 L 214.36133 716.60352 C 214.36133 719.74586 216.89086 722.27539 220.0332 722.27539 L 558.5625 722.27539 C 561.70485 722.27539 564.23633 719.74586 564.23633 716.60352 L 564.23633 628.91211 C 564.23633 625.76976 561.70485 623.24023 558.5625 623.24023 L 438.88281 623.24023 A 25.0025 25.0025 0 0 1 413.92969 647.18359 L 363.92969 647.18359 A 25.0025 25.0025 0 0 1 338.98242 623.24023 L 220.0332 623.24023 z "
       id="rect4171" />
    <path
       style="opacity:1;fill:url(#linearGradient4268);fill-opacity:1;stroke:none;stroke-width:23;stroke-linecap:butt;stroke-linejoin:round;stroke-miterlimit:4;stroke-dasharray:none;stroke-opacity:1"
       d="m 220.0918,498.14453 c -3.17486,0 -5.73047,2.55562 -5.73047,5.73047 l 0,88.59766 c 0,3.17485 2.55561,5.73242 5.73047,5.73242 l 120.02148,0 c 2.05245,-18.55925 7.06544,-37.85539 17.30469,-55.49219 12.76451,-21.98649 36.40751,-40.31346 66.82422,-44.56836 z m 268.83789,24.03906 c -0.001,13.80655 -11.19345,24.99862 -25,25 l 50,0 c -13.80655,-0.001 -24.99862,-11.19345 -25,-25 z m -50.40039,24.9961 c -0.0373,-0.001 -0.0663,0.004 -0.10352,0.004 0.29996,0.005 0.6003,0.0163 0.90039,0.0234 l -0.39648,-0.0234 c -0.13347,-2.3e-4 -0.26694,-0.002 -0.40039,-0.004 z m -3.38868,0.10156 c -19.05972,0.48112 -26.98145,7.61497 -34.48242,20.53516 -2.20573,3.7993 -4.02699,8.27799 -5.61328,13.05859 2.86943,-7.61721 6.80839,-15.48125 14.28711,-22.5332 6.11569,-5.76671 15.77951,-10.34942 25.80859,-11.06055 z"
       id="rect4588"
       inkscape:connector-curvature="0"
       sodipodi:nodetypes="sssscscsccccccccccscsc" />
    <path
       style="fill:#4e505d;fill-rule:evenodd;stroke:none;stroke-width:1px;stroke-linecap:butt;stroke-linejoin:miter;stroke-opacity:1"
       d="M 264.51758 322.27539 L 264.51758 472.77539 L 396.14258 472.77539 C 391.57651 465.25286 388.92969 456.48286 388.92969 447.18359 C 388.92969 428.64606 399.44112 412.21365 414.73633 403.58594 L 414.73633 322.52539 L 414.73633 322.27539 L 264.51758 322.27539 z M 463.92969 447.18359 A 25.0025 25.0025 0 0 1 488.92969 472.18359 A 25.0025 25.0025 0 0 1 513.92969 447.18359 L 463.92969 447.18359 z "
       id="path4324" />
    <path
       style="fill:#4e505d;fill-rule:evenodd;stroke:none;stroke-width:1px;stroke-linecap:butt;stroke-linejoin:miter;stroke-opacity:1"
       d="m 439.98551,322.27576 0,74.17858 75.125,0 z"
       id="path4326"
       inkscape:connector-curvature="0" />
    <path
       style="fill:#99b000;fill-rule:evenodd;stroke:none;stroke-width:1px;stroke-linecap:butt;stroke-linejoin:miter;stroke-opacity:1"
       d="m 438.92997,422.18362 c -13.84999,0 -25,11.15001 -25,25 0,13.84999 11.15001,25 25,25 l 25,0 10e-6,49.99997 -25,0 c -59.34484,-0.94943 -75.36716,55.83373 -75.00001,100.00002 l 50,0 c -1.60447,-17.65002 5.29136,-52.33104 25.00001,-50.00002 l 150.11523,0 -0.17773,-50 -74.9375,0 -10e-6,-49.99997 25,0 c 13.84999,0 25,-11.15001 25,-25 0,-13.84999 -11.15001,-25 -25,-25 z"
       id="path4234"
       inkscape:connector-curvature="0"
       sodipodi:nodetypes="sssccccccccccssss" />
    <rect
       ry="5.7636228"
       y="673.19336"
       x="315.51172"
       height="25"
       width="150"
       id="rect4389"
       style="color:#000000;clip-rule:nonzero;display:inline;overflow:visible;visibility:visible;opacity:1;isolation:auto;mix-blend-mode:normal;color-interpolation:sRGB;color-interpolation-filters:linearRGB;solid-color:#000000;solid-opacity:1;fill:#ffffff;fill-opacity:1;fill-rule:evenodd;stroke:none;stroke-width:50;stroke-linecap:butt;stroke-linejoin:miter;stroke-miterlimit:4;stroke-dasharray:none;stroke-dashoffset:0;stroke-opacity:1;color-rendering:auto;image-rendering:auto;shape-rendering:auto;text-rendering:auto;enable-background:accumulate" />
  </g>
</svg>
