<?xml version="1.0" encoding="UTF-8" standalone="no"?>
<!-- Created with Inkscape (http://www.inkscape.org/) -->

<svg
   xmlns:dc="http://purl.org/dc/elements/1.1/"
   xmlns:cc="http://creativecommons.org/ns#"
   xmlns:rdf="http://www.w3.org/1999/02/22-rdf-syntax-ns#"
   xmlns:svg="http://www.w3.org/2000/svg"
   xmlns="http://www.w3.org/2000/svg"
   xmlns:xlink="http://www.w3.org/1999/xlink"
   xmlns:sodipodi="http://sodipodi.sourceforge.net/DTD/sodipodi-0.dtd"
   xmlns:inkscape="http://www.inkscape.org/namespaces/inkscape"
   width="210mm"
   height="297mm"
   viewBox="0 0 744.09448819 1052.3622047"
   id="svg2"
   version="1.1"
   inkscape:version="0.91 r13725"
   inkscape:export-xdpi="3.5999997"
   inkscape:export-ydpi="3.5999997"
   sodipodi:docname="attribute-derivate.svg"
   inkscape:export-filename="D:\Dokumente\Arbeit\RRZE\github\bicons\16x16\emblems\attribute-derivate.png">
  <defs
     id="defs4">
    <linearGradient
       id="linearGradient2224">
      <stop
         style="stop-color:#7c7c7c;stop-opacity:1;"
         offset="0"
         id="stop4233" />
      <stop
         style="stop-color:#b8b8b8;stop-opacity:1;"
         offset="1"
         id="stop4235" />
    </linearGradient>
    <linearGradient
       id="linearGradient4237">
      <stop
         id="stop2226"
         offset="0"
         style="stop-color:#7c7c7c;stop-opacity:1;" />
      <stop
         id="stop2228"
         offset="1"
         style="stop-color:#b8b8b8;stop-opacity:1;" />
    </linearGradient>
    <linearGradient
       id="linearGradient15218">
      <stop
         id="stop15220"
         offset="0"
         style="stop-color:#eeeeef;stop-opacity:1;" />
      <stop
         id="stop2736"
         offset="0.59928656"
         style="stop-color:#d3d7cf;stop-opacity:1;" />
      <stop
         id="stop2738"
         offset="0.82758623"
         style="stop-color:#ffffff;stop-opacity:1;" />
      <stop
         id="stop15222"
         offset="1"
         style="stop-color:#d3d7cf;stop-opacity:1;" />
    </linearGradient>
    <pattern
       y="0"
       x="0"
       height="6"
       width="6"
       patternUnits="userSpaceOnUse"
       id="EMFhbasepattern" />
    <pattern
       y="0"
       x="0"
       height="6"
       width="6"
       patternUnits="userSpaceOnUse"
       id="EMFhbasepattern-5" />
    <linearGradient
       inkscape:collect="always"
       xlink:href="#linearGradient4203"
       id="linearGradient4209"
       x1="300"
       y1="632.36218"
       x2="470"
       y2="452.36221"
       gradientUnits="userSpaceOnUse"
       gradientTransform="matrix(0.91463143,0,0,0.91463143,33.38719,44.556198)" />
    <linearGradient
       inkscape:collect="always"
       id="linearGradient4203">
      <stop
         style="stop-color:#4e505d;stop-opacity:1;"
         offset="0"
         id="stop4205" />
      <stop
         style="stop-color:#7a8597;stop-opacity:1"
         offset="1"
         id="stop4207" />
    </linearGradient>
  </defs>
  <sodipodi:namedview
     id="base"
     pagecolor="#ffffff"
     bordercolor="#666666"
     borderopacity="1.0"
     inkscape:pageopacity="0.0"
     inkscape:pageshadow="2"
     inkscape:zoom="1.452911"
     inkscape:cx="455.1684"
     inkscape:cy="543.43726"
     inkscape:document-units="px"
     inkscape:current-layer="layer1"
     showgrid="false"
     showguides="true"
     inkscape:guide-bbox="true"
     inkscape:window-width="1600"
     inkscape:window-height="837"
     inkscape:window-x="-4"
     inkscape:window-y="-4"
     inkscape:window-maximized="1"
     inkscape:snap-bbox="true"
     inkscape:bbox-paths="true"
     inkscape:bbox-nodes="true"
     inkscape:snap-nodes="false"
     inkscape:snap-global="false">
    <sodipodi:guide
       position="315.53572,730.17859"
       orientation="0,1"
       id="guide3338" />
    <sodipodi:guide
       position="351.25,330.17858"
       orientation="0,1"
       id="guide3340" />
    <sodipodi:guide
       position="189.10714,408.8393"
       orientation="1,0"
       id="guide3344" />
    <inkscape:grid
       type="xygrid"
       id="grid3440" />
    <sodipodi:guide
       position="0,0"
       orientation="0,1"
       id="guide3405" />
    <sodipodi:guide
       position="214.125,684.50002"
       orientation="1,0"
       id="guide3407" />
    <sodipodi:guide
       position="0,0"
       orientation="0,1"
       id="guide3409" />
    <sodipodi:guide
       position="589.04521,378.30213"
       orientation="1,0"
       id="guide3411" />
    <sodipodi:guide
       position="564.00001,683.37502"
       orientation="1,0"
       id="guide3413" />
  </sodipodi:namedview>
  <metadata
     id="metadata7">
    <rdf:RDF>
      <cc:Work
         rdf:about="">
        <dc:format>image/svg+xml</dc:format>
        <dc:type
           rdf:resource="http://purl.org/dc/dcmitype/StillImage" />
        <dc:title>attribute derivate</dc:title>
        <dc:date>June 2015</dc:date>
        <dc:creator>
          <cc:Agent>
            <dc:title>Johannes Hechler</dc:title>
          </cc:Agent>
        </dc:creator>
        <dc:rights>
          <cc:Agent>
            <dc:title>Johannes Hechler</dc:title>
          </cc:Agent>
        </dc:rights>
        <dc:publisher>
          <cc:Agent>
            <dc:title>RRZE</dc:title>
          </cc:Agent>
        </dc:publisher>
        <dc:contributor>
          <cc:Agent>
            <dc:title>Ute Weber, Hendrik Eggers</dc:title>
          </cc:Agent>
        </dc:contributor>
      </cc:Work>
    </rdf:RDF>
  </metadata>
  <g
     inkscape:label="Ebene 1"
     inkscape:groupmode="layer"
     id="layer1">
    <g
       id="g4167">
      <path
         id="rect4173"
         d="M 230.51953 347.06445 C 226.26827 346.97055 222.53259 348.60123 219.69141 351.19922 C 216.03848 354.53949 213.86518 359.57431 213.96875 365.05469 L 216.51758 499.96289 C 216.58678 504.3669 222.42936 510.18304 226.52148 514.30273 L 339.13477 626.91406 L 339.13477 585.24609 C 339.13477 564.79423 356.41791 547.83248 376.18945 547.19727 A 25.0025 25.0025 0 0 1 376.99219 547.18359 L 439.08984 547.18359 L 439.08008 531.49023 C 439.07108 518.05729 450.10598 502.84259 461.52539 498.97656 C 462.56113 498.62591 463.57655 498.34789 464.58398 498.10352 L 464.58398 444.17969 L 380.13477 358.85938 C 376.31422 355.03881 371.21849 350.26931 366.24609 350.0625 L 230.51953 347.06445 z M 264.10742 372.18359 A 25.000002 25.000019 0 0 1 289.10742 397.18359 A 25.000002 25.000019 0 0 1 264.10742 422.18359 A 25.000002 25.000019 0 0 1 239.10742 397.18359 A 25.000002 25.000019 0 0 1 264.10742 372.18359 z M 559.87891 560.93555 L 561.92188 562.66016 C 562.18821 562.09419 562.42059 561.51773 562.63477 560.93555 L 559.87891 560.93555 z M 489.10352 566.62305 L 489.10742 572.16797 A 25.0025 25.0025 0 0 1 464.10742 597.18359 L 389.13477 597.18359 L 389.13477 647.18359 L 464.10742 647.18359 A 25.0025 25.0025 0 0 1 476.10352 650.2793 L 527.41602 598.9668 L 489.10352 566.62305 z M 412.93164 697.18359 C 417.07816 698.46478 421.52535 698.46479 425.67188 697.18359 L 412.93164 697.18359 z "
         style="opacity:1;fill:url(#linearGradient4209);fill-opacity:1;stroke:none;stroke-width:23;stroke-linecap:butt;stroke-linejoin:round;stroke-miterlimit:4;stroke-dasharray:none;stroke-opacity:1" />
      <rect
         inkscape:export-ydpi="4.9499998"
         inkscape:export-xdpi="4.9499998"
         y="322.18362"
         x="189.10715"
         height="400"
         width="400"
         id="rect3336"
         style="fill:none;fill-rule:evenodd;stroke:none;stroke-width:1px;stroke-linecap:butt;stroke-linejoin:miter;stroke-opacity:1" />
      <path
         sodipodi:nodetypes="sccscsssscsccs"
         inkscape:connector-curvature="0"
         id="path4237"
         d="m 589.10713,621.60309 c 0,1.95937 -1.28571,3.91874 -3.85715,6.53124 l -108.31243,91.43681 c -5.14287,5.225 -12.85716,2.6125 -12.85716,-7.8374 l 0.0267,-39.5501 -87.11612,0 c -7.12285,0 -12.85714,-5.82572 -12.85714,-13.06237 l 0,-73.87527 c 0,-7.23648 5.73797,-12.83366 12.85714,-13.06238 l 87.11612,0 -0.0267,-40.71124 c -0.007,-10.44988 10.28572,-10.44988 12.85716,-7.83738 l 108.31243,91.43685 c 2.57144,2.6125 3.85715,4.57187 3.85715,6.53124 z"
         style="fill:#99b000;fill-opacity:1;fill-rule:evenodd;stroke:none;stroke-width:1px;stroke-linecap:butt;stroke-linejoin:miter;stroke-opacity:1" />
    </g>
  </g>
</svg>
