<?xml version="1.0" encoding="UTF-8" standalone="no"?>
<!-- Created with Inkscape (http://www.inkscape.org/) -->

<svg
   xmlns:dc="http://purl.org/dc/elements/1.1/"
   xmlns:cc="http://creativecommons.org/ns#"
   xmlns:rdf="http://www.w3.org/1999/02/22-rdf-syntax-ns#"
   xmlns:svg="http://www.w3.org/2000/svg"
   xmlns="http://www.w3.org/2000/svg"
   xmlns:xlink="http://www.w3.org/1999/xlink"
   xmlns:sodipodi="http://sodipodi.sourceforge.net/DTD/sodipodi-0.dtd"
   xmlns:inkscape="http://www.inkscape.org/namespaces/inkscape"
   width="210mm"
   height="297mm"
   viewBox="0 0 744.09448819 1052.3622047"
   id="svg2"
   version="1.1"
   inkscape:version="0.91 r13725"
   inkscape:export-xdpi="3.5999997"
   inkscape:export-ydpi="3.5999997"
   sodipodi:docname="attribute-group.svg"
   inkscape:export-filename="C:\Users\johannes\Documents\Arbeit\RRZE\github3\bicons\16x16\emblems\attribute-group.png">
  <title
     id="title4182">attribute group</title>
  <defs
     id="defs4">
    <linearGradient
       id="linearGradient2224">
      <stop
         style="stop-color:#7c7c7c;stop-opacity:1;"
         offset="0"
         id="stop4233" />
      <stop
         style="stop-color:#b8b8b8;stop-opacity:1;"
         offset="1"
         id="stop4235" />
    </linearGradient>
    <linearGradient
       id="linearGradient4237">
      <stop
         id="stop2226"
         offset="0"
         style="stop-color:#7c7c7c;stop-opacity:1;" />
      <stop
         id="stop2228"
         offset="1"
         style="stop-color:#b8b8b8;stop-opacity:1;" />
    </linearGradient>
    <linearGradient
       id="linearGradient15218">
      <stop
         id="stop15220"
         offset="0"
         style="stop-color:#eeeeef;stop-opacity:1;" />
      <stop
         id="stop2736"
         offset="0.59928656"
         style="stop-color:#d3d7cf;stop-opacity:1;" />
      <stop
         id="stop2738"
         offset="0.82758623"
         style="stop-color:#ffffff;stop-opacity:1;" />
      <stop
         id="stop15222"
         offset="1"
         style="stop-color:#d3d7cf;stop-opacity:1;" />
    </linearGradient>
    <pattern
       y="0"
       x="0"
       height="6"
       width="6"
       patternUnits="userSpaceOnUse"
       id="EMFhbasepattern" />
    <pattern
       y="0"
       x="0"
       height="6"
       width="6"
       patternUnits="userSpaceOnUse"
       id="EMFhbasepattern-5" />
    <linearGradient
       inkscape:collect="always"
       id="linearGradient4207">
      <stop
         style="stop-color:#99b000;stop-opacity:1;"
         offset="0"
         id="stop4209" />
      <stop
         style="stop-color:#a9bc24;stop-opacity:1"
         offset="1"
         id="stop4211" />
    </linearGradient>
    <linearGradient
       inkscape:collect="always"
       xlink:href="#linearGradient4207"
       id="linearGradient4240"
       x1="358.14862"
       y1="534.36322"
       x2="469.55933"
       y2="484.73761"
       gradientUnits="userSpaceOnUse" />
    <linearGradient
       inkscape:collect="always"
       xlink:href="#linearGradient4203"
       id="linearGradient4209"
       x1="300"
       y1="632.36218"
       x2="470"
       y2="452.36221"
       gradientUnits="userSpaceOnUse"
       gradientTransform="matrix(0.91463143,0,0,0.91463143,33.33531,43.152123)" />
    <linearGradient
       inkscape:collect="always"
       id="linearGradient4203">
      <stop
         style="stop-color:#4e505d;stop-opacity:1;"
         offset="0"
         id="stop4205" />
      <stop
         style="stop-color:#7a8597;stop-opacity:1"
         offset="1"
         id="stop4207" />
    </linearGradient>
    <linearGradient
       inkscape:collect="always"
       xlink:href="#linearGradient4207"
       id="linearGradient4186"
       x1="462.4649"
       y1="534.30225"
       x2="536.92999"
       y2="440.69708"
       gradientUnits="userSpaceOnUse" />
    <linearGradient
       inkscape:collect="always"
       xlink:href="#linearGradient4207"
       id="linearGradient4196"
       x1="425.94247"
       y1="693.02655"
       x2="507.89084"
       y2="577.39661"
       gradientUnits="userSpaceOnUse" />
  </defs>
  <sodipodi:namedview
     id="base"
     pagecolor="#ffffff"
     bordercolor="#666666"
     borderopacity="1.0"
     inkscape:pageopacity="0.0"
     inkscape:pageshadow="2"
     inkscape:zoom="0.72645549"
     inkscape:cx="81.71133"
     inkscape:cy="560.92241"
     inkscape:document-units="px"
     inkscape:current-layer="layer1"
     showgrid="false"
     showguides="true"
     inkscape:guide-bbox="true"
     inkscape:window-width="1600"
     inkscape:window-height="837"
     inkscape:window-x="-4"
     inkscape:window-y="-4"
     inkscape:window-maximized="1"
     inkscape:snap-bbox="true"
     inkscape:bbox-paths="true"
     inkscape:bbox-nodes="true"
     inkscape:snap-nodes="false">
    <sodipodi:guide
       position="315.53572,730.17859"
       orientation="0,1"
       id="guide3338" />
    <sodipodi:guide
       position="351.25,330.17858"
       orientation="0,1"
       id="guide3340" />
    <sodipodi:guide
       position="189.10714,408.8393"
       orientation="1,0"
       id="guide3344" />
    <inkscape:grid
       type="xygrid"
       id="grid3440" />
    <sodipodi:guide
       position="0,0"
       orientation="0,1"
       id="guide3405" />
    <sodipodi:guide
       position="214.125,684.50002"
       orientation="1,0"
       id="guide3407" />
    <sodipodi:guide
       position="0,0"
       orientation="0,1"
       id="guide3409" />
    <sodipodi:guide
       position="589.04521,378.30213"
       orientation="1,0"
       id="guide3411" />
    <sodipodi:guide
       position="564.00001,683.37502"
       orientation="1,0"
       id="guide3413" />
  </sodipodi:namedview>
  <metadata
     id="metadata7">
    <rdf:RDF>
      <cc:Work
         rdf:about="">
        <dc:format>image/svg+xml</dc:format>
        <dc:type
           rdf:resource="http://purl.org/dc/dcmitype/StillImage" />
        <dc:title>attribute group</dc:title>
        <dc:date>June 2015</dc:date>
        <dc:creator>
          <cc:Agent>
            <dc:title>Johannes Hechler</dc:title>
          </cc:Agent>
        </dc:creator>
        <dc:rights>
          <cc:Agent>
            <dc:title>Johannes Hechler</dc:title>
          </cc:Agent>
        </dc:rights>
        <dc:publisher>
          <cc:Agent>
            <dc:title>RRZE</dc:title>
          </cc:Agent>
        </dc:publisher>
        <dc:contributor>
          <cc:Agent>
            <dc:title>Ute Weber, Hendrik Eggers</dc:title>
          </cc:Agent>
        </dc:contributor>
      </cc:Work>
    </rdf:RDF>
  </metadata>
  <g
     inkscape:label="Ebene 1"
     inkscape:groupmode="layer"
     id="layer1">
    <g
       id="g4191">
      <rect
         inkscape:export-ydpi="4.9499998"
         inkscape:export-xdpi="4.9499998"
         y="322.18362"
         x="189.10715"
         height="400"
         width="400"
         id="rect3336"
         style="fill:none;fill-rule:evenodd;stroke:none;stroke-width:1px;stroke-linecap:butt;stroke-linejoin:miter;stroke-opacity:1" />
      <path
         id="rect4173"
         d="m 230.46652,345.66212 c -4.25126,-0.0939 -7.98695,1.53677 -10.82813,4.13476 -3.65293,3.34027 -5.82622,8.37314 -5.72265,13.85352 l 2.54883,134.9082 c 0.0692,4.40401 5.91178,10.22015 10.0039,14.33984 l 93.22851,93.22657 c 10.66914,-33.73777 31.78765,-56.41861 48.73047,-74.72461 a 25.0025,25.0025 0 0 1 4.34766,-3.73047 C 351.87518,511.65882 338.35623,486.6487 338.35323,458.75196 a 25.0025,25.0025 0 0 0 0,-0.002 c 1.6e-4,-38.35133 25.43334,-71.02583 60.1875,-82.64649 l -18.45898,-18.64839 c -3.82055,-3.82057 -8.91432,-8.59006 -13.88672,-8.79687 l -135.72851,-2.99609 z m 33.64062,26.52148 a 25.000002,25.000019 0 0 1 25,25 25.000002,25.000019 0 0 1 -25,25 25.000002,25.000019 0 0 1 -25,-25 25.000002,25.000019 0 0 1 25,-25 z m 138.27734,57.75977 c -8.56573,6.797 -14.03059,17.07417 -14.03125,28.80468 3e-4,3.06802 0.48841,6.00116 1.18946,8.85547 1.98605,-13.4777 6.44554,-26.16838 12.84179,-37.66015 z m 74.43164,25.24218 c -8.30014,6.80188 -13.46284,17.04237 -13.46289,28.56446 -5.7e-4,20.63775 16.55329,37.17802 38.05469,37.17773 11.45556,-1.9e-4 21.5055,-4.69649 28.39649,-12.20508 l -52.98829,-53.53711 z m 86.13868,90.55664 c -2.91554,2.83007 -6.02207,5.46699 -9.30274,7.88282 a 25.0025,25.0025 0 0 1 0.0176,0.0156 c 2.55168,2.67541 5.21906,5.45528 7.88477,8.25 2.5717,-5.02569 3.03413,-10.82872 1.40039,-16.14844 z m -168.8418,31.5293 c -18.08038,19.52874 -30.60647,35.86589 -31.23828,72.03125 l 1.86719,1.86719 c 4.44229,-30.28703 16.23987,-54.50841 29.37109,-73.89844 z m 78.69922,21 c -20.58745,21.95635 -34.96875,38.24166 -34.96875,78.92383 0,3.23036 0.13698,6.39959 0.35937,9.5293 l 87.84375,-87.84375 c -1.99824,0.15161 -3.95584,0.26671 -5.80273,0.33593 -7.75543,0.29067 -14.66903,-0.0937 -18.60742,-0.0937 -4.24292,0 -11.34072,0.35308 -19.27735,-0.0273 -2.98871,-0.14326 -6.20204,-0.37877 -9.54687,-0.82422 z"
         style="opacity:1;fill:url(#linearGradient4209);fill-opacity:1;stroke:none;stroke-width:23;stroke-linecap:butt;stroke-linejoin:round;stroke-miterlimit:4;stroke-dasharray:none;stroke-opacity:1"
         inkscape:connector-curvature="0" />
      <path
         id="path4667"
         d="M 426.4082 396.57422 A 63.053823 62.176038 0 0 0 363.35352 458.75 A 63.053823 62.176038 0 0 0 421.80078 520.75391 C 416.39506 509.52096 413.35316 496.98192 413.35352 483.75 C 413.35366 450.31123 432.69188 421.19338 460.68164 406.57812 A 63.053823 62.176038 0 0 0 426.4082 396.57422 z M 501.4082 421.57422 A 63.053823 62.176038 0 0 0 438.35352 483.75 A 63.053823 62.176038 0 0 0 501.4082 545.92773 A 63.053823 62.176038 0 0 0 564.46094 483.75 A 63.053823 62.176038 0 0 0 501.4082 421.57422 z M 447.00391 553.22461 C 446.42268 553.65037 445.85835 554.09827 445.31641 554.57227 A 25.0025 25.0025 0 0 1 447.00391 553.22461 z M 445.05664 554.80859 C 444.49225 555.31639 443.94439 555.84243 443.42773 556.40039 A 25.0025 25.0025 0 0 1 445.05664 554.80859 z "
         style="fill:url(#linearGradient4186);fill-opacity:1;stroke:none;stroke-width:41.15159225;stroke-linecap:round;stroke-linejoin:round;stroke-opacity:1" />
      <path
         sodipodi:nodetypes="ccccsccccscccsccccccsccccccscscc"
         inkscape:connector-curvature="0"
         style="fill:url(#linearGradient4196);fill-opacity:1;stroke:none;stroke-width:41.15159225;stroke-linecap:round;stroke-linejoin:round;stroke-opacity:1"
         d="m 391.97628,545.48633 0,0.004 c -0.0886,0.0778 -0.1702,0.16086 -0.26172,0.23633 l -4.93945,2.6543 c -24.20938,26.15721 -48.93164,50.51192 -48.93164,103.81445 0,11.4487 1.05234,22.54045 3.01758,33.09375 2.91504,6.4653 10.23971,11.20336 19.01562,11.82226 l 0,0.0723 28.92774,0 c -0.62924,-6.54756 -0.96094,-13.21698 -0.96094,-19.98828 0,-61.03272 31.88306,-95.18708 55.58398,-120.79492 1.31547,-1.42063 2.79151,-2.68366 4.39844,-3.76368 -1.42119,-1.08794 -2.80623,-2.22141 -4.1582,-3.39062 -5.98567,0.18663 -12.13716,-0.12305 -17.03125,-0.12305 -10.43219,1e-5 -26.22677,1.21831 -34.66016,-3.63672 z m 75,25 0,0.004 c -0.0886,0.0778 -0.1702,0.16086 -0.26172,0.23633 l -4.93945,2.6543 c -24.20938,26.15721 -48.93164,50.51192 -48.93164,103.81445 0,11.4487 1.05234,22.54045 3.01758,33.09375 2.91504,6.4653 10.23971,11.20336 19.01562,11.82226 l 0,0.0723 130.43555,0 0,-0.01 c 9.8501,-0.1379 18.14618,-5.45142 20.93359,-12.73632 1.86515,-10.29869 2.86133,-21.1031 2.86133,-32.2461 0,-55.80223 -26.21407,-77.65716 -53.5293,-106.29687 -8.26921,4.603 -23.80469,3.22851 -33.9414,3.22851 -10.43219,10e-6 -26.22677,1.21831 -34.66016,-3.63672 z"
         id="path4175" />
    </g>
  </g>
</svg>
