<?xml version="1.0" encoding="UTF-8" standalone="no"?>
<!-- Created with Inkscape (http://www.inkscape.org/) -->

<svg
   xmlns:dc="http://purl.org/dc/elements/1.1/"
   xmlns:cc="http://creativecommons.org/ns#"
   xmlns:rdf="http://www.w3.org/1999/02/22-rdf-syntax-ns#"
   xmlns:svg="http://www.w3.org/2000/svg"
   xmlns="http://www.w3.org/2000/svg"
   xmlns:xlink="http://www.w3.org/1999/xlink"
   xmlns:sodipodi="http://sodipodi.sourceforge.net/DTD/sodipodi-0.dtd"
   xmlns:inkscape="http://www.inkscape.org/namespaces/inkscape"
   width="210mm"
   height="297mm"
   viewBox="0 0 744.09448819 1052.3622047"
   id="svg2"
   version="1.1"
   inkscape:version="0.91 r13725"
   inkscape:export-xdpi="3.5999999"
   inkscape:export-ydpi="3.5999999"
   sodipodi:docname="attribute-other.svg"
   inkscape:export-filename="C:\Users\johannes\Documents\Arbeit\RRZE\github3\bicons\16x16\emblems\attribute-other.png">
  <defs
     id="defs4">
    <linearGradient
       id="linearGradient2224">
      <stop
         style="stop-color:#7c7c7c;stop-opacity:1;"
         offset="0"
         id="stop4233" />
      <stop
         style="stop-color:#b8b8b8;stop-opacity:1;"
         offset="1"
         id="stop4235" />
    </linearGradient>
    <linearGradient
       id="linearGradient4237">
      <stop
         id="stop2226"
         offset="0"
         style="stop-color:#7c7c7c;stop-opacity:1;" />
      <stop
         id="stop2228"
         offset="1"
         style="stop-color:#b8b8b8;stop-opacity:1;" />
    </linearGradient>
    <linearGradient
       id="linearGradient15218">
      <stop
         id="stop15220"
         offset="0"
         style="stop-color:#eeeeef;stop-opacity:1;" />
      <stop
         id="stop2736"
         offset="0.59928656"
         style="stop-color:#d3d7cf;stop-opacity:1;" />
      <stop
         id="stop2738"
         offset="0.82758623"
         style="stop-color:#ffffff;stop-opacity:1;" />
      <stop
         id="stop15222"
         offset="1"
         style="stop-color:#d3d7cf;stop-opacity:1;" />
    </linearGradient>
    <pattern
       y="0"
       x="0"
       height="6"
       width="6"
       patternUnits="userSpaceOnUse"
       id="EMFhbasepattern" />
    <pattern
       y="0"
       x="0"
       height="6"
       width="6"
       patternUnits="userSpaceOnUse"
       id="EMFhbasepattern-5" />
    <linearGradient
       inkscape:collect="always"
       xlink:href="#linearGradient4203"
       id="linearGradient4209"
       x1="300"
       y1="632.36218"
       x2="470"
       y2="452.36221"
       gradientUnits="userSpaceOnUse"
       gradientTransform="matrix(0.91463143,0,0,0.91463143,33.94785,45.00945)" />
    <linearGradient
       inkscape:collect="always"
       id="linearGradient4203">
      <stop
         style="stop-color:#4e505d;stop-opacity:1;"
         offset="0"
         id="stop4205" />
      <stop
         style="stop-color:#7a8597;stop-opacity:1"
         offset="1"
         id="stop4207" />
    </linearGradient>
  </defs>
  <sodipodi:namedview
     id="base"
     pagecolor="#ffffff"
     bordercolor="#666666"
     borderopacity="1.0"
     inkscape:pageopacity="0.0"
     inkscape:pageshadow="2"
     inkscape:zoom="0.5136816"
     inkscape:cx="156.18799"
     inkscape:cy="462.56667"
     inkscape:document-units="px"
     inkscape:current-layer="layer1"
     showgrid="false"
     showguides="true"
     inkscape:guide-bbox="true"
     inkscape:window-width="1600"
     inkscape:window-height="837"
     inkscape:window-x="-4"
     inkscape:window-y="-4"
     inkscape:window-maximized="1"
     inkscape:snap-bbox="true"
     inkscape:bbox-paths="true"
     inkscape:bbox-nodes="true">
    <sodipodi:guide
       position="315.53572,730.17859"
       orientation="0,1"
       id="guide3338" />
    <sodipodi:guide
       position="351.25,330.17858"
       orientation="0,1"
       id="guide3340" />
    <sodipodi:guide
       position="189.10714,408.8393"
       orientation="1,0"
       id="guide3344" />
    <inkscape:grid
       type="xygrid"
       id="grid3440" />
    <sodipodi:guide
       position="0,0"
       orientation="0,1"
       id="guide3405" />
    <sodipodi:guide
       position="214.125,684.50002"
       orientation="1,0"
       id="guide3407" />
    <sodipodi:guide
       position="0,0"
       orientation="0,1"
       id="guide3409" />
    <sodipodi:guide
       position="589.04521,378.30213"
       orientation="1,0"
       id="guide3411" />
    <sodipodi:guide
       position="564.00001,683.37502"
       orientation="1,0"
       id="guide3413" />
  </sodipodi:namedview>
  <metadata
     id="metadata7">
    <rdf:RDF>
      <cc:Work
         rdf:about="">
        <dc:format>image/svg+xml</dc:format>
        <dc:type
           rdf:resource="http://purl.org/dc/dcmitype/StillImage" />
        <dc:title>attribute other</dc:title>
        <dc:date>June 2015</dc:date>
        <dc:creator>
          <cc:Agent>
            <dc:title>Johannes Hechler</dc:title>
          </cc:Agent>
        </dc:creator>
        <dc:rights>
          <cc:Agent>
            <dc:title>Johannes Hechler</dc:title>
          </cc:Agent>
        </dc:rights>
        <dc:publisher>
          <cc:Agent>
            <dc:title>RRZE</dc:title>
          </cc:Agent>
        </dc:publisher>
        <dc:contributor>
          <cc:Agent>
            <dc:title>Ute Weber, Hendrik Eggers</dc:title>
          </cc:Agent>
        </dc:contributor>
      </cc:Work>
    </rdf:RDF>
  </metadata>
  <g
     inkscape:label="Ebene 1"
     inkscape:groupmode="layer"
     id="layer1">
    <g
       id="g4171">
      <path
         id="rect4173"
         d="m 231.07979,347.51954 c -4.25126,-0.0939 -7.98695,1.53677 -10.82812,4.13476 -3.65294,3.34027 -5.82622,8.37314 -5.72266,13.85352 l 2.54883,134.9082 c 0.0692,4.40401 5.91178,10.22016 10.0039,14.33985 L 387.87081,675.5429 c 0.574,-59.98976 32.07228,-93.7706 55.55664,-119.14446 a 25.0025,25.0025 0 0 1 4.39844,-3.76562 c -20.85291,-15.96378 -34.47254,-40.87522 -34.47266,-68.88281 1.1e-4,-24.92218 10.7574,-47.43152 27.81641,-63.33985 l -60.47461,-61.09765 c -3.82055,-3.82057 -8.91627,-8.59007 -13.88867,-8.79688 l -135.72657,-2.99609 z m 33.02735,24.66406 a 25.000002,25.000019 0 0 1 25,25 25.000002,25.000019 0 0 1 -25,25 25.000002,25.000019 0 0 1 -25,-25 25.000002,25.000019 0 0 1 25,-25 z m 212.04297,83.56836 c -7.90644,6.7975 -12.79683,16.78949 -12.79688,27.99805 9e-5,20.6368 16.55233,37.17541 38.05274,37.17578 11.12988,1.5e-4 20.92623,-4.43835 27.79492,-11.57617 l -53.05078,-53.59766 z m 86.76758,90.02344 c -2.90483,2.81649 -5.99888,5.44204 -9.26563,7.84765 a 25.0025,25.0025 0 0 1 0.0176,0.0176 c 2.87755,3.01709 5.87638,6.12999 8.89258,9.30274 2.49477,-5.42437 2.60633,-11.65281 0.35547,-17.16797 z m -90.10743,52.49414 c -20.58671,21.9556 -34.96679,38.24257 -34.96679,78.92376 0,4.0205 0.21359,7.9471 0.54492,11.8164 l 89.85156,-89.85149 c -0.13829,-0.13987 -0.26733,-0.27358 -0.40625,-0.41406 -2.6385,0.23992 -5.19253,0.38295 -7.59179,0.47265 -7.7554,0.29001 -14.66868,-0.0957 -18.60547,-0.0957 -4.24129,0 -11.33878,0.3544 -19.27539,-0.0254 -2.98993,-0.14308 -6.20422,-0.38051 -9.55079,-0.82617 z"
         style="opacity:1;fill:url(#linearGradient4209);fill-opacity:1;stroke:none;stroke-width:23;stroke-linecap:butt;stroke-linejoin:round;stroke-miterlimit:4;stroke-dasharray:none;stroke-opacity:1"
         inkscape:connector-curvature="0" />
      <rect
         inkscape:export-ydpi="4.9499998"
         inkscape:export-xdpi="4.9499998"
         y="322.18362"
         x="189.10713"
         height="400"
         width="400"
         id="rect3336"
         style="fill:none;fill-rule:evenodd;stroke:none;stroke-width:1px;stroke-linecap:butt;stroke-linejoin:miter;stroke-opacity:1" />
      <path
         id="path2176-1"
         d="m 501.40597,421.57423 a 63.053823,62.176038 0 0 0 -63.05274,62.17578 63.053823,62.176038 0 0 0 63.05274,62.17578 63.053823,62.176038 0 0 0 63.05469,-62.17578 63.053823,62.176038 0 0 0 -63.05469,-62.17578 z m -34.42969,148.9121 0,0.004 c -0.0886,0.078 -0.1702,0.16083 -0.26172,0.23633 l -4.93945,2.65234 c -24.20938,26.1572 -48.93164,50.51192 -48.93164,103.8144 0,11.4486 1.05234,22.5425 3.01758,33.0957 2.91504,6.4653 10.23971,11.2034 19.01562,11.8223 l 0,0.072 130.43555,0 0,-0.01 c 9.8501,-0.1378 18.14618,-5.4515 20.93359,-12.7363 1.86515,-10.2991 2.86133,-21.1031 2.86133,-32.2461 0,-55.80224 -26.21407,-77.65707 -53.5293,-106.29687 -8.26921,4.603 -23.80469,3.22656 -33.9414,3.22656 -10.43219,0 -26.22677,1.22033 -34.66016,-3.63477 z"
         style="fill:#99b000;fill-opacity:1;stroke:none;stroke-width:41.15159225;stroke-linecap:round;stroke-linejoin:round;stroke-opacity:1"
         inkscape:connector-curvature="0" />
    </g>
  </g>
</svg>
