<?xml version="1.0" encoding="UTF-8" standalone="no"?>
<!-- Created with Inkscape (http://www.inkscape.org/) -->

<svg
   xmlns:dc="http://purl.org/dc/elements/1.1/"
   xmlns:cc="http://creativecommons.org/ns#"
   xmlns:rdf="http://www.w3.org/1999/02/22-rdf-syntax-ns#"
   xmlns:svg="http://www.w3.org/2000/svg"
   xmlns="http://www.w3.org/2000/svg"
   xmlns:xlink="http://www.w3.org/1999/xlink"
   xmlns:sodipodi="http://sodipodi.sourceforge.net/DTD/sodipodi-0.dtd"
   xmlns:inkscape="http://www.inkscape.org/namespaces/inkscape"
   width="210mm"
   height="297mm"
   viewBox="0 0 744.09448819 1052.3622047"
   id="svg2"
   version="1.1"
   inkscape:version="0.91 r13725"
   inkscape:export-xdpi="3.5993614"
   inkscape:export-ydpi="3.5993614"
   sodipodi:docname="attribute-student.svg"
   inkscape:export-filename="C:\Users\johannes\Documents\Arbeit\RRZE\github3\bicons\16x16\emblems\attribute-student.png">
  <defs
     id="defs4">
    <linearGradient
       id="linearGradient2224">
      <stop
         style="stop-color:#7c7c7c;stop-opacity:1;"
         offset="0"
         id="stop4233" />
      <stop
         style="stop-color:#b8b8b8;stop-opacity:1;"
         offset="1"
         id="stop4235" />
    </linearGradient>
    <linearGradient
       id="linearGradient4237">
      <stop
         id="stop2226"
         offset="0"
         style="stop-color:#7c7c7c;stop-opacity:1;" />
      <stop
         id="stop2228"
         offset="1"
         style="stop-color:#b8b8b8;stop-opacity:1;" />
    </linearGradient>
    <linearGradient
       id="linearGradient15218">
      <stop
         id="stop15220"
         offset="0"
         style="stop-color:#eeeeef;stop-opacity:1;" />
      <stop
         id="stop2736"
         offset="0.59928656"
         style="stop-color:#d3d7cf;stop-opacity:1;" />
      <stop
         id="stop2738"
         offset="0.82758623"
         style="stop-color:#ffffff;stop-opacity:1;" />
      <stop
         id="stop15222"
         offset="1"
         style="stop-color:#d3d7cf;stop-opacity:1;" />
    </linearGradient>
    <pattern
       y="0"
       x="0"
       height="6"
       width="6"
       patternUnits="userSpaceOnUse"
       id="EMFhbasepattern" />
    <pattern
       y="0"
       x="0"
       height="6"
       width="6"
       patternUnits="userSpaceOnUse"
       id="EMFhbasepattern-5" />
    <pattern
       y="0"
       x="0"
       height="6"
       width="6"
       patternUnits="userSpaceOnUse"
       id="EMFhbasepattern-0" />
    <linearGradient
       inkscape:collect="always"
       xlink:href="#linearGradient4203"
       id="linearGradient4209"
       x1="300"
       y1="632.36218"
       x2="470"
       y2="452.36221"
       gradientUnits="userSpaceOnUse"
       gradientTransform="matrix(0.91463143,0,0,0.91179993,34.2841,45.42047)" />
    <linearGradient
       inkscape:collect="always"
       id="linearGradient4203">
      <stop
         style="stop-color:#4e505d;stop-opacity:1;"
         offset="0"
         id="stop4205" />
      <stop
         style="stop-color:#7a8597;stop-opacity:1"
         offset="1"
         id="stop4207" />
    </linearGradient>
  </defs>
  <sodipodi:namedview
     id="base"
     pagecolor="#ffffff"
     bordercolor="#666666"
     borderopacity="1.0"
     inkscape:pageopacity="0.0"
     inkscape:pageshadow="2"
     inkscape:zoom="0.5136816"
     inkscape:cx="-111.29034"
     inkscape:cy="461.51063"
     inkscape:document-units="px"
     inkscape:current-layer="layer1"
     showgrid="false"
     showguides="true"
     inkscape:guide-bbox="true"
     inkscape:window-width="1600"
     inkscape:window-height="837"
     inkscape:window-x="-4"
     inkscape:window-y="-4"
     inkscape:window-maximized="1"
     inkscape:snap-bbox="true"
     inkscape:bbox-paths="true"
     inkscape:bbox-nodes="true">
    <sodipodi:guide
       position="315.53572,730.17859"
       orientation="0,1"
       id="guide3338" />
    <sodipodi:guide
       position="351.25,330.17858"
       orientation="0,1"
       id="guide3340" />
    <sodipodi:guide
       position="189.10714,408.8393"
       orientation="1,0"
       id="guide3344" />
    <inkscape:grid
       type="xygrid"
       id="grid3440" />
    <sodipodi:guide
       position="589.04521,378.30213"
       orientation="1,0"
       id="guide3411" />
  </sodipodi:namedview>
  <metadata
     id="metadata7">
    <rdf:RDF>
      <cc:Work
         rdf:about="">
        <dc:format>image/svg+xml</dc:format>
        <dc:type
           rdf:resource="http://purl.org/dc/dcmitype/StillImage" />
        <dc:title>attribute student</dc:title>
        <dc:date>June 2015</dc:date>
        <dc:creator>
          <cc:Agent>
            <dc:title>Johannes Hechler</dc:title>
          </cc:Agent>
        </dc:creator>
        <dc:rights>
          <cc:Agent>
            <dc:title>Johannes Hechler</dc:title>
          </cc:Agent>
        </dc:rights>
        <dc:publisher>
          <cc:Agent>
            <dc:title>RRZE</dc:title>
          </cc:Agent>
        </dc:publisher>
        <dc:contributor>
          <cc:Agent>
            <dc:title>Ute Weber, Hendrik Eggers</dc:title>
          </cc:Agent>
        </dc:contributor>
      </cc:Work>
    </rdf:RDF>
  </metadata>
  <g
     inkscape:label="Ebene 1"
     inkscape:groupmode="layer"
     id="layer1">
    <g
       id="g4177">
      <g
         transform="matrix(1.0456385,-0.07484384,0.07484384,1.0456385,586.94685,302.0247)"
         id="g4197" />
      <rect
         inkscape:export-ydpi="4.9499998"
         inkscape:export-xdpi="4.9499998"
         y="322.18372"
         x="189.10715"
         height="400"
         width="400"
         id="rect3336-7"
         style="fill:none;fill-rule:evenodd;stroke:none;stroke-width:1px;stroke-linecap:butt;stroke-linejoin:miter;stroke-opacity:1" />
      <path
         inkscape:connector-curvature="0"
         id="rect4173"
         d="m 231.41576,346.99424 c -4.25126,-0.0936 -7.98695,1.53115 -10.82812,4.12109 -3.65294,3.32993 -5.82622,8.34908 -5.72266,13.8125 l 2.54883,134.49024 c 0.0692,4.39038 5.91178,10.18799 10.00391,14.29492 l 59.08593,58.90234 260.30667,0 c 1.7567,0 4.1096,-0.32866 7.2656,-0.18164 l 4.4512,-4.4375 c 8.4678,-8.44159 8.4243,-21.98984 0,-30.47461 L 381.03102,358.75205 c -3.8206,-3.80873 -8.9144,-8.56531 -13.8867,-8.77148 l -135.72856,-2.98633 z m 32.69141,25.18945 a 25,25.000004 0 0 1 25,25 25,25.000004 0 0 1 -25,25 25,25.000004 0 0 1 -25,-25 25,25.000004 0 0 1 25,-25 z m 91.20895,250.43555 a 25.0025,25.0025 0 0 1 -4.6269,13.98437 l 36.3613,36.2461 66.2969,0 14.041,-13.99805 c -3.1523,-6.93407 -7.5295,-13.55242 -13.707,-22.14844 a 25.0025,25.0025 0 0 1 -4.6817,-14.08398 l -93.6836,0 z"
         style="opacity:1;fill:url(#linearGradient4209);fill-opacity:1;stroke:none;stroke-width:23;stroke-linecap:butt;stroke-linejoin:round;stroke-miterlimit:4;stroke-dasharray:none;stroke-opacity:1" />
      <path
         inkscape:export-ydpi="3.5993614"
         inkscape:export-xdpi="3.5993614"
         inkscape:export-filename="C:\Users\johannes\Desktop\g4449.png"
         inkscape:connector-curvature="0"
         id="rect4208-9"
         d="m 189.16909,322.18363 399.93813,0 0,400.0001 -399.93813,0 z"
         style="color:#000000;clip-rule:nonzero;display:inline;overflow:visible;visibility:visible;opacity:1;isolation:auto;mix-blend-mode:normal;color-interpolation:sRGB;color-interpolation-filters:linearRGB;solid-color:#000000;solid-opacity:1;fill:none;fill-opacity:1;fill-rule:nonzero;stroke:none;stroke-width:35;stroke-linecap:butt;stroke-linejoin:round;stroke-miterlimit:4;stroke-dasharray:none;stroke-dashoffset:0;stroke-opacity:1;color-rendering:auto;image-rendering:auto;shape-rendering:auto;text-rendering:auto;enable-background:accumulate" />
      <path
         inkscape:export-ydpi="3.5993614"
         inkscape:export-xdpi="3.5993614"
         inkscape:export-filename="C:\Users\johannes\Desktop\g4449.png"
         inkscape:connector-curvature="0"
         id="rect4208"
         d="m 189.10717,322.18371 399.93805,0 0,400.00002 -399.93805,0 z"
         style="color:#000000;clip-rule:nonzero;display:inline;overflow:visible;visibility:visible;opacity:1;isolation:auto;mix-blend-mode:normal;color-interpolation:sRGB;color-interpolation-filters:linearRGB;solid-color:#000000;solid-opacity:1;fill:none;fill-opacity:1;fill-rule:nonzero;stroke:none;stroke-width:35;stroke-linecap:butt;stroke-linejoin:round;stroke-miterlimit:4;stroke-dasharray:none;stroke-dashoffset:0;stroke-opacity:1;color-rendering:auto;image-rendering:auto;shape-rendering:auto;text-rendering:auto;enable-background:accumulate" />
      <rect
         inkscape:export-filename="C:\Users\johannes\Desktop\g4449.png"
         inkscape:export-ydpi="3.5993614"
         inkscape:export-xdpi="3.5993614"
         y="322.18372"
         x="189.10715"
         height="400"
         width="400"
         id="rect3336-3"
         style="fill:none;fill-rule:evenodd;stroke:none;stroke-width:1px;stroke-linecap:butt;stroke-linejoin:miter;stroke-opacity:1" />
      <path
         id="rect4228"
         d="M 250.19727 597.61523 C 243.63296 597.67163 239.38281 598.47686 239.38281 607.74609 L 239.38281 610.99023 C 239.38281 621.58363 245.99452 622.10937 254.20703 622.10938 L 330.32812 622.10938 C 316.20319 641.72369 307.34012 658.64639 305.03125 685.16797 C 307.07482 692.56806 312.52493 697.84961 318.98047 697.84961 L 483.88086 697.84961 C 491.81422 697.84961 498.23361 689.88346 498.66211 679.79297 L 498.66211 679.78906 C 495.69659 655.25902 487.10632 640.37128 473.98242 622.10938 L 539.10742 622.10938 L 539.10742 708.14648 C 539.10742 708.98674 539.18308 709.80361 539.30273 710.60352 L 539.30273 711.30664 C 539.30273 717.50707 544.29371 722.49805 550.49414 722.49805 L 577.98633 722.49805 C 584.18676 722.49805 589.17773 717.50707 589.17773 711.30664 L 589.17773 684.42969 C 589.17773 678.22926 584.18676 673.23633 577.98633 673.23633 L 564.13281 673.23633 L 564.13281 611.9668 C 564.13281 609.33772 563.51273 606.88625 562.44531 604.77148 C 561.49464 599.55413 557.8706 598.13598 553.28711 597.75586 C 552.7405 597.67286 552.18615 597.61523 551.61914 597.61523 C 551.40514 597.61523 551.19762 597.64029 550.98633 597.65234 C 549.62839 597.61973 548.23863 597.61523 546.81055 597.61523 L 253.14648 597.61523 C 252.11992 597.61523 251.13502 597.60718 250.19727 597.61523 z M 304.22461 680.51172 C 304.24981 680.86453 304.29636 681.2078 304.33594 681.55469 C 304.29514 681.20895 304.25049 680.86353 304.22461 680.51172 z M 304.40625 682.16602 C 304.46825 682.60934 304.54765 683.04267 304.63281 683.47461 C 304.54641 683.04332 304.46981 682.6085 304.40625 682.16602 z M 304.68359 683.73242 C 304.78229 684.2053 304.89608 684.6695 305.02148 685.12695 C 304.89594 684.66935 304.78349 684.20463 304.68359 683.73242 z "
         style="color:#000000;clip-rule:nonzero;display:inline;overflow:visible;visibility:visible;opacity:1;isolation:auto;mix-blend-mode:normal;color-interpolation:sRGB;color-interpolation-filters:linearRGB;solid-color:#000000;solid-opacity:1;fill:#2f3037;fill-opacity:1;fill-rule:evenodd;stroke:none;stroke-width:35;stroke-linecap:butt;stroke-linejoin:round;stroke-miterlimit:4;stroke-dasharray:none;stroke-dashoffset:0;stroke-opacity:1;color-rendering:auto;image-rendering:auto;shape-rendering:auto;text-rendering:auto;enable-background:accumulate" />
    </g>
  </g>
</svg>
