<?xml version="1.0" encoding="UTF-8" standalone="no"?>
<!-- Created with Inkscape (http://www.inkscape.org/) -->

<svg
   xmlns:dc="http://purl.org/dc/elements/1.1/"
   xmlns:cc="http://creativecommons.org/ns#"
   xmlns:rdf="http://www.w3.org/1999/02/22-rdf-syntax-ns#"
   xmlns:svg="http://www.w3.org/2000/svg"
   xmlns="http://www.w3.org/2000/svg"
   xmlns:xlink="http://www.w3.org/1999/xlink"
   xmlns:sodipodi="http://sodipodi.sourceforge.net/DTD/sodipodi-0.dtd"
   xmlns:inkscape="http://www.inkscape.org/namespaces/inkscape"
   width="210mm"
   height="297mm"
   viewBox="0 0 744.09448819 1052.3622047"
   id="svg2"
   version="1.1"
   inkscape:version="0.91 r13725"
   inkscape:export-xdpi="3.5999999"
   inkscape:export-ydpi="3.5999999"
   sodipodi:docname="chipcard-produce.svg"
   inkscape:export-filename="C:\Users\johannes\Documents\Arbeit\RRZE\github3\bicons\16x16\emblems\chipcard-produce.png">
  <defs
     id="defs4">
    <linearGradient
       id="linearGradient2224">
      <stop
         id="stop2226"
         offset="0"
         style="stop-color:#7c7c7c;stop-opacity:1;" />
      <stop
         id="stop2228"
         offset="1"
         style="stop-color:#b8b8b8;stop-opacity:1;" />
    </linearGradient>
    <linearGradient
       id="linearGradient15218">
      <stop
         id="stop15220"
         offset="0"
         style="stop-color:#eeeeef;stop-opacity:1;" />
      <stop
         id="stop2736"
         offset="0.59928656"
         style="stop-color:#d3d7cf;stop-opacity:1;" />
      <stop
         id="stop2738"
         offset="0.82758623"
         style="stop-color:#ffffff;stop-opacity:1;" />
      <stop
         id="stop15222"
         offset="1"
         style="stop-color:#d3d7cf;stop-opacity:1;" />
    </linearGradient>
    <pattern
       y="0"
       x="0"
       height="6"
       width="6"
       patternUnits="userSpaceOnUse"
       id="EMFhbasepattern" />
    <pattern
       y="0"
       x="0"
       height="6"
       width="6"
       patternUnits="userSpaceOnUse"
       id="EMFhbasepattern-5" />
    <linearGradient
       inkscape:collect="always"
       xlink:href="#linearGradient4202"
       id="linearGradient4208"
       x1="226.84613"
       y1="638.23535"
       x2="454.33087"
       y2="458.06842"
       gradientUnits="userSpaceOnUse"
       gradientTransform="matrix(0.97478125,0,0,0.85015716,-85.534118,116.33751)" />
    <linearGradient
       inkscape:collect="always"
       id="linearGradient4202">
      <stop
         style="stop-color:#4e505d;stop-opacity:1;"
         offset="0"
         id="stop4204" />
      <stop
         style="stop-color:#7a8597;stop-opacity:1"
         offset="1"
         id="stop4206" />
    </linearGradient>
  </defs>
  <sodipodi:namedview
     id="base"
     pagecolor="#ffffff"
     bordercolor="#666666"
     borderopacity="1.0"
     inkscape:pageopacity="0.0"
     inkscape:pageshadow="2"
     inkscape:zoom="0.675"
     inkscape:cx="208.81638"
     inkscape:cy="485.17366"
     inkscape:document-units="px"
     inkscape:current-layer="layer1"
     showgrid="false"
     showguides="true"
     inkscape:guide-bbox="true"
     inkscape:window-width="1366"
     inkscape:window-height="721"
     inkscape:window-x="-4"
     inkscape:window-y="-4"
     inkscape:window-maximized="1"
     inkscape:snap-bbox="true"
     inkscape:bbox-paths="true"
     inkscape:bbox-nodes="true"
     inkscape:snap-nodes="false">
    <sodipodi:guide
       position="315.53572,730.17859"
       orientation="0,1"
       id="guide3338" />
    <sodipodi:guide
       position="351.25,330.17858"
       orientation="0,1"
       id="guide3340" />
    <sodipodi:guide
       position="189.10714,408.8393"
       orientation="1,0"
       id="guide3344" />
    <sodipodi:guide
       position="589.04521,468.07945"
       orientation="1,0"
       id="guide3346" />
    <inkscape:grid
       type="xygrid"
       id="grid3440" />
    <sodipodi:guide
       position="589.04521,378.30213"
       orientation="1,0"
       id="guide3411" />
  </sodipodi:namedview>
  <metadata
     id="metadata7">
    <rdf:RDF>
      <cc:Work
         rdf:about="">
        <dc:format>image/svg+xml</dc:format>
        <dc:type
           rdf:resource="http://purl.org/dc/dcmitype/StillImage" />
        <dc:title>chipcard produce</dc:title>
        <dc:date>June 2015</dc:date>
        <dc:creator>
          <cc:Agent>
            <dc:title>Johannes Hechler</dc:title>
          </cc:Agent>
        </dc:creator>
        <dc:rights>
          <cc:Agent>
            <dc:title>Johannes Hechler</dc:title>
          </cc:Agent>
        </dc:rights>
        <dc:publisher>
          <cc:Agent>
            <dc:title>RRZE</dc:title>
          </cc:Agent>
        </dc:publisher>
        <dc:contributor>
          <cc:Agent>
            <dc:title>Ute Weber, Hendrik Eggers</dc:title>
          </cc:Agent>
        </dc:contributor>
      </cc:Work>
    </rdf:RDF>
  </metadata>
  <g
     inkscape:label="Ebene 1"
     inkscape:groupmode="layer"
     id="layer1">
    <g
       id="g4215"
       transform="translate(97.193353,-70.919306)">
      <path
         id="rect3789"
         d="m 152.66045,492.56776 c -19.91829,0 -35.95313,13.98567 -35.95313,31.35743 l 0,139.91211 c 0,17.37176 16.03484,31.35742 35.95313,31.35742 l 114.82031,0 0,-17.74024 a 25.0025,25.0025 0 0 1 18.93164,-24.25195 l 2.4082,-0.60156 -1.52734,-2.4336 a 25.0025,25.0025 0 0 1 3.11328,-30.58007 l 23.42187,-24.46876 a 25.0025,25.0025 0 0 1 30.48828,-4.40624 l 5.16016,2.95703 1.49609,-5.99219 -0.0312,0.25 a 25.0025,25.0025 0 0 1 24.28711,-19.19531 l 33.83399,0 a 25.0025,25.0025 0 0 1 24.25781,18.95507 l 0.57617,2.31446 0.9336,-0.58789 a 25.0025,25.0025 0 0 1 30.65039,3.11914 l 2.33203,2.24023 0,-70.84765 c 0,-17.37176 -16.0368,-31.35743 -35.95508,-31.35743 l -279.19726,0 z m 239.4707,136.15235 a 25.0025,25.0025 0 0 1 -15.94727,15.59179 c -3.00515,0.9646 -5.91523,2.20285 -8.69531,3.70118 a 25.0025,25.0025 0 0 1 -22.17774,0.75781 25.0025,25.0025 0 0 1 0.22071,22.42187 c -1.14401,2.32899 -2.11144,4.74166 -2.89453,7.2168 a 25.0025,25.0025 0 0 1 -15.31641,15.95898 25.0025,25.0025 0 0 1 2.10937,0.82618 l 102.42774,0 c 6.90629,0 13.34447,-1.6846 18.81055,-4.60547 a 25.0025,25.0025 0 0 1 -9.65039,-12.96094 c -0.95731,-3.00695 -2.18759,-5.91962 -3.67383,-8.70117 a 25.0025,25.0025 0 0 1 -0.90625,-21.64258 25.0025,25.0025 0 0 1 -21.82422,-0.21875 c -2.17848,-1.08469 -4.42958,-2.01337 -6.73828,-2.7793 a 25.0025,25.0025 0 0 1 -15.74414,-15.5664 z"
         style="fill:url(#linearGradient4208);fill-opacity:1;stroke:none;stroke-width:16.95400047;stroke-linecap:round;stroke-linejoin:round;stroke-miterlimit:4;stroke-dasharray:none;stroke-dashoffset:0;stroke-opacity:1"
         inkscape:connector-curvature="0" />
      <rect
         ry="12.551145"
         y="519.37585"
         x="147.78691"
         height="25.102304"
         width="283.10263"
         id="rect4238"
         style="color:#252525;clip-rule:nonzero;display:inline;overflow:visible;visibility:visible;opacity:0.98000004;isolation:auto;mix-blend-mode:normal;color-interpolation:sRGB;color-interpolation-filters:linearRGB;solid-color:#252525;solid-opacity:1;fill:#ffffff;fill-opacity:1;fill-rule:nonzero;stroke:none;stroke-width:50;stroke-linecap:square;stroke-linejoin:round;stroke-miterlimit:4;stroke-dasharray:none;stroke-dashoffset:0;stroke-opacity:1;color-rendering:auto;image-rendering:auto;shape-rendering:auto;text-rendering:auto;enable-background:accumulate" />
      <path
         id="rect4240"
         d="m 265.42216,567.58144 c -6.95331,0 -12.55273,5.59747 -12.55273,12.55078 0,6.95331 5.59942,12.55078 12.55273,12.55078 l 16.12891,0 14.2168,-14.85156 a 25.0025,25.0025 0 0 0 0.002,0 c 4.1541,-4.33959 8.97213,-7.75551 14.17187,-10.25 l -44.51953,0 z"
         style="color:#252525;clip-rule:nonzero;display:inline;overflow:visible;visibility:visible;opacity:0.98000004;isolation:auto;mix-blend-mode:normal;color-interpolation:sRGB;color-interpolation-filters:linearRGB;solid-color:#252525;solid-opacity:1;fill:#ffffff;fill-opacity:1;fill-rule:nonzero;stroke:none;stroke-width:50;stroke-linecap:square;stroke-linejoin:round;stroke-miterlimit:4;stroke-dasharray:none;stroke-dashoffset:0;stroke-opacity:1;color-rendering:auto;image-rendering:auto;shape-rendering:auto;text-rendering:auto;enable-background:accumulate"
         inkscape:connector-curvature="0" />
      <rect
         ry="14.392539"
         y="568.40497"
         x="143.0639"
         height="76.142532"
         width="75.161247"
         id="rect4275"
         style="color:#000000;clip-rule:nonzero;display:inline;overflow:visible;visibility:visible;opacity:1;isolation:auto;mix-blend-mode:normal;color-interpolation:sRGB;color-interpolation-filters:linearRGB;solid-color:#000000;solid-opacity:1;fill:#fbb516;fill-opacity:1;fill-rule:nonzero;stroke:none;stroke-width:20;stroke-linecap:square;stroke-linejoin:round;stroke-miterlimit:4;stroke-dasharray:none;stroke-dashoffset:0;stroke-opacity:1;color-rendering:auto;image-rendering:auto;shape-rendering:auto;text-rendering:auto;enable-background:accumulate" />
      <rect
         inkscape:export-ydpi="4.9499998"
         inkscape:export-xdpi="4.9499998"
         y="393.10294"
         x="91.851852"
         height="400"
         width="400"
         id="rect3336"
         style="fill:none;fill-rule:evenodd;stroke:none;stroke-width:1px;stroke-linecap:butt;stroke-linejoin:miter;stroke-opacity:1" />
      <g
         transform="matrix(1.0456385,-0.07484384,0.07484384,1.0456385,-169.46445,72.805805)"
         id="g4197" />
      <path
         inkscape:connector-curvature="0"
         id="path4172"
         d="m 375.22788,593.73272 -6.68473,26.77355 a 76.592546,76.740543 0 0 0 -12.91643,5.49862 l -23.73858,-13.6009 -23.42224,24.46959 14.62606,23.29625 a 76.592546,76.740543 0 0 0 -4.29125,10.69744 l -26.32013,6.58633 0,33.90799 27.0724,6.77475 0,-0.0439 a 76.592546,76.740543 0 0 0 5.60767,12.66732 l -13.63452,23.8958 24.42243,23.459 23.61891,-14.8856 -0.71808,-0.6937 a 76.592546,76.740543 0 0 0 10.22373,4.1368 l 6.59927,26.4309 33.83408,0 6.7275,-26.9534 a 76.592546,76.740543 0 0 0 12.27534,-5.3187 l 23.90098,13.6951 23.42225,-24.4783 -14.79706,-23.57029 a 76.592546,76.740543 0 0 0 3.82963,-9.51549 l 25.98674,-6.50925 0,-33.89945 -26.01239,-6.50923 a 76.592546,76.740543 0 0 0 -5.44526,-12.8986 l 13.18999,-23.12494 -24.42243,-23.45898 -22.40503,14.12337 a 76.592546,76.740543 0 0 0 -10.01003,-4.12824 l -6.68473,-26.82495 -33.83409,0 z"
         style="opacity:1;fill:#99b000;fill-opacity:1;stroke:none;stroke-width:20.62700081;stroke-linecap:square;stroke-linejoin:miter;stroke-miterlimit:4;stroke-dasharray:none;stroke-opacity:1" />
      <path
         d="m 422.02846,696.52832 a 30.155748,29.826527 0 0 1 -30.15335,29.82653 30.155748,29.826527 0 0 1 -30.15815,-29.82178 30.155748,29.826527 0 0 1 30.14855,-29.83128 30.155748,29.826527 0 0 1 30.16295,29.81704 l -30.15575,0.009 z"
         sodipodi:end="6.282867"
         sodipodi:start="0"
         sodipodi:ry="29.826527"
         sodipodi:rx="30.155748"
         sodipodi:cy="696.52832"
         sodipodi:cx="391.87271"
         sodipodi:type="arc"
         id="path4304"
         style="opacity:1;fill:#ffffff;fill-opacity:1;stroke:none;stroke-width:20.62700081;stroke-linecap:square;stroke-linejoin:miter;stroke-miterlimit:4;stroke-dasharray:none;stroke-opacity:1" />
    </g>
  </g>
</svg>
