<?xml version="1.0" encoding="UTF-8" standalone="no"?>
<!-- Created with Inkscape (http://www.inkscape.org/) -->

<svg
   xmlns:dc="http://purl.org/dc/elements/1.1/"
   xmlns:cc="http://creativecommons.org/ns#"
   xmlns:rdf="http://www.w3.org/1999/02/22-rdf-syntax-ns#"
   xmlns:svg="http://www.w3.org/2000/svg"
   xmlns="http://www.w3.org/2000/svg"
   xmlns:xlink="http://www.w3.org/1999/xlink"
   xmlns:sodipodi="http://sodipodi.sourceforge.net/DTD/sodipodi-0.dtd"
   xmlns:inkscape="http://www.inkscape.org/namespaces/inkscape"
   width="210mm"
   height="297mm"
   viewBox="0 0 744.09448819 1052.3622047"
   id="svg2"
   version="1.1"
   inkscape:version="0.91 r13725"
   inkscape:export-xdpi="3.5999978"
   inkscape:export-ydpi="3.5999978"
   sodipodi:docname="container-stopped.svg"
   inkscape:export-filename="D:\Dokumente\Arbeit\RRZE\github\bicons\16x16\emblems\container-stopped.png">
  <defs
     id="defs4">
    <linearGradient
       id="linearGradient2224">
      <stop
         id="stop2226"
         offset="0"
         style="stop-color:#7c7c7c;stop-opacity:1;" />
      <stop
         id="stop2228"
         offset="1"
         style="stop-color:#b8b8b8;stop-opacity:1;" />
    </linearGradient>
    <linearGradient
       id="linearGradient15218">
      <stop
         id="stop15220"
         offset="0"
         style="stop-color:#eeeeef;stop-opacity:1;" />
      <stop
         id="stop2736"
         offset="0.59928656"
         style="stop-color:#d3d7cf;stop-opacity:1;" />
      <stop
         id="stop2738"
         offset="0.82758623"
         style="stop-color:#ffffff;stop-opacity:1;" />
      <stop
         id="stop15222"
         offset="1"
         style="stop-color:#d3d7cf;stop-opacity:1;" />
    </linearGradient>
    <pattern
       y="0"
       x="0"
       height="6"
       width="6"
       patternUnits="userSpaceOnUse"
       id="EMFhbasepattern" />
    <pattern
       y="0"
       x="0"
       height="6"
       width="6"
       patternUnits="userSpaceOnUse"
       id="EMFhbasepattern-5" />
    <pattern
       y="0"
       x="0"
       height="6"
       width="6"
       patternUnits="userSpaceOnUse"
       id="EMFhbasepattern-8" />
    <linearGradient
       gradientTransform="translate(0,2e-5)"
       inkscape:collect="always"
       xlink:href="#linearGradient4369"
       id="linearGradient4375"
       x1="138.50154"
       y1="400.00003"
       x2="300"
       y2="100.00003"
       gradientUnits="userSpaceOnUse" />
    <linearGradient
       inkscape:collect="always"
       id="linearGradient4369">
      <stop
         style="stop-color:#4e505d;stop-opacity:1;"
         offset="0"
         id="stop4371" />
      <stop
         style="stop-color:#7a859c;stop-opacity:1"
         offset="1"
         id="stop4373" />
    </linearGradient>
  </defs>
  <sodipodi:namedview
     id="base"
     pagecolor="#ffffff"
     bordercolor="#666666"
     borderopacity="1.0"
     inkscape:pageopacity="0.0"
     inkscape:pageshadow="2"
     inkscape:zoom="1"
     inkscape:cx="219.38615"
     inkscape:cy="517.54561"
     inkscape:document-units="px"
     inkscape:current-layer="layer1"
     showgrid="false"
     showguides="true"
     inkscape:guide-bbox="true"
     inkscape:window-width="1600"
     inkscape:window-height="837"
     inkscape:window-x="-4"
     inkscape:window-y="-4"
     inkscape:window-maximized="1"
     inkscape:snap-bbox="true"
     inkscape:bbox-paths="true"
     inkscape:bbox-nodes="true">
    <sodipodi:guide
       position="560,730.00002"
       orientation="0,1"
       id="guide3338" />
    <sodipodi:guide
       position="560,330.00001"
       orientation="0,1"
       id="guide3340" />
    <sodipodi:guide
       position="190,475.00001"
       orientation="1,0"
       id="guide3344" />
    <sodipodi:guide
       position="590,451.00001"
       orientation="1,0"
       id="guide3346" />
    <inkscape:grid
       type="xygrid"
       id="grid3440" />
  </sodipodi:namedview>
  <metadata
     id="metadata7">
    <rdf:RDF>
      <cc:Work
         rdf:about="">
        <dc:format>image/svg+xml</dc:format>
        <dc:type
           rdf:resource="http://purl.org/dc/dcmitype/StillImage" />
        <dc:title>container stopped</dc:title>
        <dc:date>June 2015</dc:date>
        <dc:creator>
          <cc:Agent>
            <dc:title>Johannes Hechler</dc:title>
          </cc:Agent>
        </dc:creator>
        <dc:rights>
          <cc:Agent>
            <dc:title>Johannes Hechler</dc:title>
          </cc:Agent>
        </dc:rights>
        <dc:publisher>
          <cc:Agent>
            <dc:title>RRZE</dc:title>
          </cc:Agent>
        </dc:publisher>
        <dc:contributor>
          <cc:Agent>
            <dc:title>Ute Weber, Hendrik Eggers</dc:title>
          </cc:Agent>
        </dc:contributor>
      </cc:Work>
    </rdf:RDF>
  </metadata>
  <g
     inkscape:label="Ebene 1"
     inkscape:groupmode="layer"
     id="layer1">
    <g
       id="g4218"
       transform="translate(-42.000115,-145.00001)">
      <g
         id="g4299"
         transform="translate(231.99989,-185.11826)">
        <rect
           style="opacity:1;fill:none;fill-opacity:1;stroke:none;stroke-width:23;stroke-linecap:butt;stroke-linejoin:round;stroke-miterlimit:4;stroke-dasharray:none;stroke-opacity:1"
           id="rect4160"
           width="400"
           height="400"
           x="3.1884765e-006"
           y="652.48047" />
        <path
           style="opacity:1;fill:url(#linearGradient4375);fill-opacity:1;stroke:none;stroke-width:36;stroke-linejoin:round;stroke-miterlimit:4;stroke-dasharray:none;stroke-opacity:1"
           d="m 200,25 0,25 25,6 94.50195,97.78906 c 17.04622,4.10008 32.87656,11.39543 46.82032,21.21094 L 375,175 225.03516,25.035156 225,25 200,25 Z M 135.89062,89.109375 50,175 l 31,0 69.76562,-67.76562 c -4.5069,-4.50049 -12.15575,-13.333995 -14.875,-18.125005 z M 37.5,200 c -6.925,0 -12.5,5.575 -12.5,12.5 0,6.925 5.575,12.5 12.5,12.5 l 12.5,0 0,150 -12.5,0 c -6.925,0 -12.5,5.575 -12.5,12.5 0,6.925 5.575,12.5 12.5,12.5 l 25,0 146.26562,0.0586 C 173.30131,375.1387 150,333.93508 150,287.5 c 0,-33.14149 11.88449,-63.64287 31.60156,-87.45312 L 62.5,200 l -25,0 z m 246.14062,0.0879 C 236.89129,202.08741 200,240.23113 200,287.5 c 0,4.011 0.26902,7.95333 0.78125,11.81445 6.0807,-51.3631 47.19436,-92.46267 98.5625,-98.52929 -2.58311,-0.34357 -5.20282,-0.57664 -7.85547,-0.69336 l -7.84766,-0.004 z m 115.77149,183.61523 c -4.90958,5.9747 -10.42178,11.43598 -16.4375,16.29688 l 4.52539,0 c 6.925,0 12.5,-5.575 12.5,-12.5 0,-1.3257 -0.20887,-2.59977 -0.58789,-3.79688 z"
           transform="translate(0,652.36216)"
           id="rect4299"
           inkscape:connector-curvature="0" />
        <path
           style="opacity:1;fill:#ffffff;fill-opacity:1;stroke:none;stroke-width:36;stroke-linejoin:round;stroke-miterlimit:4;stroke-dasharray:none;stroke-opacity:1"
           d="M 87.5,225 C 80.575,225 75,230.575 75,237.5 l 0,125 c 0,6.925 5.575,12.5 12.5,12.5 6.925,0 12.5,-5.575 12.5,-12.5 l 0,-125 C 100,230.575 94.425,225 87.5,225 Z m 50.0957,0.041 c -6.54785,0.4114 -11.70117,5.80384 -11.70117,12.45898 l 0,33.02539 c 1.68021,-15.9408 5.6988,-31.21922 11.70117,-45.48437 z m -11.70117,79.4414 0,58.01758 c 0,6.925 5.575,12.5 12.5,12.5 3.87584,0 7.32591,-1.74799 9.61524,-4.5 -11.82688,-19.72645 -19.59704,-42.12354 -22.11524,-66.01758 z"
           transform="translate(0,652.36216)"
           id="rect4306"
           inkscape:connector-curvature="0"
           sodipodi:nodetypes="ssssssscscccsscc" />
        <path
           inkscape:connector-curvature="0"
           style="fill:#4e505d;fill-rule:evenodd;stroke:none;stroke-width:1px;stroke-linecap:butt;stroke-linejoin:miter;stroke-opacity:1"
           d="m 150.89453,652.48132 0,49.88086 c 0,0 -0.89453,50 49.10547,50 15.67134,0 26.42725,-2.45775 33.81445,-5.83008 l -19.16992,-19.16992 -14.64453,0 c -0.41315,0 -0.81914,-0.0161 -1.21875,-0.043 A 25.0025,25.0025 0 0 1 175,702.36218 l 0,-25 0,-24.88086 -24.10547,0 z"
           id="path4321" />
        <circle
           style="opacity:1;fill:#4e505d;fill-opacity:1;stroke:none;stroke-width:50;stroke-linejoin:round;stroke-miterlimit:4;stroke-dasharray:none;stroke-opacity:1"
           id="path4340"
           cx="287.5"
           cy="689.86224"
           r="12.5" />
        <path
           style="fill:#d9463a;fill-opacity:1;fill-rule:evenodd;stroke:none"
           d="m 400.00022,939.86195 c 0,62.18035 -50.32007,112.50035 -112.50036,112.50035 -62.0929,0 -112.49986,-50.32 -112.49986,-112.50035 0,-62.09289 50.40696,-112.49976 112.49986,-112.49976 62.18029,0 112.50036,50.40687 112.50036,112.49976 z"
           id="path4445"
           inkscape:connector-curvature="0" />
        <rect
           style="opacity:1;fill:#ffffff;fill-opacity:1;stroke:none;stroke-width:11.60000038;stroke-linejoin:round;stroke-miterlimit:4;stroke-dasharray:none;stroke-dashoffset:10.80000019;stroke-opacity:1"
           id="rect4280"
           width="75"
           height="75"
           x="250"
           y="902.36218" />
      </g>
    </g>
  </g>
</svg>
