<?xml version="1.0" encoding="UTF-8" standalone="no"?>
<!-- Created with Inkscape (http://www.inkscape.org/) -->

<svg
   xmlns:dc="http://purl.org/dc/elements/1.1/"
   xmlns:cc="http://creativecommons.org/ns#"
   xmlns:rdf="http://www.w3.org/1999/02/22-rdf-syntax-ns#"
   xmlns:svg="http://www.w3.org/2000/svg"
   xmlns="http://www.w3.org/2000/svg"
   xmlns:xlink="http://www.w3.org/1999/xlink"
   xmlns:sodipodi="http://sodipodi.sourceforge.net/DTD/sodipodi-0.dtd"
   xmlns:inkscape="http://www.inkscape.org/namespaces/inkscape"
   width="210mm"
   height="297mm"
   viewBox="0 0 744.09448819 1052.3622047"
   id="svg2"
   version="1.1"
   inkscape:version="0.91 r13725"
   inkscape:export-xdpi="3.5999978"
   inkscape:export-ydpi="3.5999978"
   sodipodi:docname="container-stopped.svg"
   inkscape:export-filename="D:\Dokumente\Arbeit\RRZE\github\bicons\16x16\emblems\container-stopped.png">
  <defs
     id="defs4">
    <linearGradient
       id="linearGradient2224">
      <stop
         id="stop2226"
         offset="0"
         style="stop-color:#7c7c7c;stop-opacity:1;" />
      <stop
         id="stop2228"
         offset="1"
         style="stop-color:#b8b8b8;stop-opacity:1;" />
    </linearGradient>
    <linearGradient
       id="linearGradient15218">
      <stop
         id="stop15220"
         offset="0"
         style="stop-color:#eeeeef;stop-opacity:1;" />
      <stop
         id="stop2736"
         offset="0.59928656"
         style="stop-color:#d3d7cf;stop-opacity:1;" />
      <stop
         id="stop2738"
         offset="0.82758623"
         style="stop-color:#ffffff;stop-opacity:1;" />
      <stop
         id="stop15222"
         offset="1"
         style="stop-color:#d3d7cf;stop-opacity:1;" />
    </linearGradient>
    <pattern
       y="0"
       x="0"
       height="6"
       width="6"
       patternUnits="userSpaceOnUse"
       id="EMFhbasepattern" />
    <pattern
       y="0"
       x="0"
       height="6"
       width="6"
       patternUnits="userSpaceOnUse"
       id="EMFhbasepattern-5" />
    <pattern
       y="0"
       x="0"
       height="6"
       width="6"
       patternUnits="userSpaceOnUse"
       id="EMFhbasepattern-8" />
    <linearGradient
       gradientTransform="translate(234.16344,410.30223)"
       inkscape:collect="always"
       xlink:href="#linearGradient4369"
       id="linearGradient4375"
       x1="138.50154"
       y1="400.00003"
       x2="300"
       y2="100.00003"
       gradientUnits="userSpaceOnUse" />
    <linearGradient
       inkscape:collect="always"
       id="linearGradient4369">
      <stop
         style="stop-color:#4e505d;stop-opacity:1;"
         offset="0"
         id="stop4371" />
      <stop
         style="stop-color:#7a859c;stop-opacity:1"
         offset="1"
         id="stop4373" />
    </linearGradient>
  </defs>
  <sodipodi:namedview
     id="base"
     pagecolor="#ffffff"
     bordercolor="#666666"
     borderopacity="1.0"
     inkscape:pageopacity="0.0"
     inkscape:pageshadow="2"
     inkscape:zoom="1.4142136"
     inkscape:cx="362.05699"
     inkscape:cy="511.57725"
     inkscape:document-units="px"
     inkscape:current-layer="layer1"
     showgrid="false"
     showguides="true"
     inkscape:guide-bbox="true"
     inkscape:window-width="1600"
     inkscape:window-height="837"
     inkscape:window-x="-4"
     inkscape:window-y="-4"
     inkscape:window-maximized="1"
     inkscape:snap-bbox="true"
     inkscape:bbox-paths="true"
     inkscape:bbox-nodes="true">
    <sodipodi:guide
       position="560,730.00002"
       orientation="0,1"
       id="guide3338" />
    <sodipodi:guide
       position="560,330.00001"
       orientation="0,1"
       id="guide3340" />
    <sodipodi:guide
       position="190,475.00001"
       orientation="1,0"
       id="guide3344" />
    <sodipodi:guide
       position="590,451.00001"
       orientation="1,0"
       id="guide3346" />
    <inkscape:grid
       type="xygrid"
       id="grid3440" />
  </sodipodi:namedview>
  <metadata
     id="metadata7">
    <rdf:RDF>
      <cc:Work
         rdf:about="">
        <dc:format>image/svg+xml</dc:format>
        <dc:type
           rdf:resource="http://purl.org/dc/dcmitype/StillImage" />
        <dc:title>container stopped</dc:title>
        <dc:date>June 2015</dc:date>
        <dc:creator>
          <cc:Agent>
            <dc:title>Johannes Hechler</dc:title>
          </cc:Agent>
        </dc:creator>
        <dc:rights>
          <cc:Agent>
            <dc:title>Johannes Hechler</dc:title>
          </cc:Agent>
        </dc:rights>
        <dc:publisher>
          <cc:Agent>
            <dc:title>RRZE</dc:title>
          </cc:Agent>
        </dc:publisher>
        <dc:contributor>
          <cc:Agent>
            <dc:title>Ute Weber, Hendrik Eggers</dc:title>
          </cc:Agent>
        </dc:contributor>
      </cc:Work>
    </rdf:RDF>
  </metadata>
  <g
     inkscape:label="Ebene 1"
     inkscape:groupmode="layer"
     id="layer1">
    <g
       id="g4209"
       transform="translate(-44.163667,-88.058271)">
      <rect
         y="410.42047"
         x="234.16344"
         height="400"
         width="400"
         id="rect4160"
         style="opacity:1;fill:none;fill-opacity:1;stroke:none;stroke-width:23;stroke-linecap:butt;stroke-linejoin:round;stroke-miterlimit:4;stroke-dasharray:none;stroke-opacity:1" />
      <path
         id="rect4299"
         d="m 434.16344,435.30223 0,25 25,6 115,119 35,0 -149.96484,-149.96484 -0.0352,-0.0352 -25,0 z m -64.10938,64.10938 -85.89062,85.89062 31,0 69.76562,-67.76562 c -4.5069,-4.50048 -12.15576,-13.33399 -14.875,-18.125 z m -98.39062,110.89062 c -6.925,0 -12.5,5.575 -12.5,12.5 0,6.925 5.575,12.5 12.5,12.5 l 12.5,0 0,150 -12.5,0 c -6.925,0 -12.5,5.575 -12.5,12.5 0,6.925 5.575,12.5 12.5,12.5 l 25,0 179.625,0.0723 c -25.63267,-20.66623 -42.125,-52.28716 -42.125,-87.5723 0,-60.3242 48.24797,-110.02529 108.02148,-112.40234 l -245.52148,-0.0977 -25,0 z m 279.57617,0.10156 c 24.91547,1.01157 47.80841,10.23451 66.03906,25.01758 l 4.05469,0 c 6.925,0 12.5,-5.575 12.5,-12.5 0,-6.925 -5.575,-12.5 -12.5,-12.5 l -25,0 -45.09375,-0.0176 z m 82.33594,183.60156 c -4.90958,5.97478 -10.42178,11.4359 -16.4375,16.29688 l 4.52539,0 c 6.925,0 12.5,-5.575 12.5,-12.5 0,-1.32576 -0.20887,-2.59972 -0.58789,-3.79688 z"
         style="opacity:1;fill:url(#linearGradient4375);fill-opacity:1;stroke:none;stroke-width:36;stroke-linejoin:round;stroke-miterlimit:4;stroke-dasharray:none;stroke-opacity:1"
         inkscape:connector-curvature="0" />
      <path
         sodipodi:nodetypes="ssssssssssssssssccscsscc"
         inkscape:connector-curvature="0"
         id="rect4306"
         d="m 321.66344,635.30223 c -6.925,0 -12.5,5.575 -12.5,12.5 l 0,125 c 0,6.925 5.575,12.5 12.5,12.5 6.925,0 12.5,-5.575 12.5,-12.5 l 0,-125 c 0,-6.925 -5.575,-12.5 -12.5,-12.5 z m 50.89453,0 c -6.925,0 -12.5,5.575 -12.5,12.5 l 0,125 c 0,6.925 5.575,12.5 12.5,12.5 6.925,0 12.5,-5.575 12.5,-12.5 l 0,-125 c 0,-6.925 -5.575,-12.5 -12.5,-12.5 z m 49.10547,0 c -6.925,0 -12.5,5.575 -12.5,12.5 l 0,75 c 0,-28.92748 9.11515,-55.87048 24.59766,-78.10938 -1.37744,-5.40806 -6.24898,-9.39062 -12.09766,-9.39062 z m -12.5,87.5 0,50 c 0,6.925 5.575,12.5 12.5,12.5 0.87275,0 1.72351,-0.0911 2.54492,-0.25977 -9.60823,-18.7231 -15.04492,-39.88682 -15.04492,-62.24023 z"
         style="opacity:1;fill:#ffffff;fill-opacity:1;stroke:none;stroke-width:36;stroke-linejoin:round;stroke-miterlimit:4;stroke-dasharray:none;stroke-opacity:1" />
      <path
         id="path4321"
         d="m 385.05797,410.42137 0,49.88086 c 0,0 -0.89453,50 49.10547,50 15.67134,0 26.42725,-2.45775 33.81445,-5.83008 l -19.16992,-19.16992 -14.64453,0 c -0.41315,0 -0.81914,-0.0161 -1.21875,-0.043 a 25.0025,25.0025 0 0 1 -23.78125,-24.957 l 0,-25 0,-24.88086 -24.10547,0 z"
         style="fill:#4e505d;fill-rule:evenodd;stroke:none;stroke-width:1px;stroke-linecap:butt;stroke-linejoin:miter;stroke-opacity:1"
         inkscape:connector-curvature="0" />
      <circle
         r="12.5"
         cy="447.80225"
         cx="521.66345"
         id="path4340"
         style="opacity:1;fill:#4e505d;fill-opacity:1;stroke:none;stroke-width:50;stroke-linejoin:round;stroke-miterlimit:4;stroke-dasharray:none;stroke-opacity:1" />
      <g
         transform="matrix(0.87500106,0,0,0.87500016,284.16323,-110.51484)"
         id="g4415">
        <path
           inkscape:connector-curvature="0"
           id="path4167"
           d="m 400.00001,952.36199 c 0,55.27131 -44.72892,100.00021 -100.00022,100.00021 -55.19365,0 -99.99979,-44.7289 -99.99979,-100.00021 0,-55.19368 44.80614,-99.99979 99.99979,-99.99979 55.2713,0 100.00022,44.80611 100.00022,99.99979 z"
           style="fill:#d9463a;fill-opacity:1;fill-rule:evenodd;stroke:none" />
        <path
           inkscape:connector-curvature="0"
           id="path4169"
           d="m 263.82007,909.50508 72.35957,0 c 3.67934,0 6.67733,2.99796 6.67733,6.67724 l 0,72.3598 c 0,3.67927 -2.99799,6.67723 -6.67733,6.67723 l -72.35957,0 c -3.67933,0 -6.67728,-2.99796 -6.67728,-6.67723 l 0,-72.3598 c 0,-3.67928 2.99795,-6.67724 6.67728,-6.67724 z"
           style="fill:#ffffff;fill-opacity:1;fill-rule:nonzero;stroke:none" />
      </g>
      <path
         inkscape:connector-curvature="0"
         id="path4445"
         d="m 634.16366,722.80205 c 0,48.36242 -39.13785,87.50022 -87.5003,87.50022 -48.2945,0 -87.49992,-39.1378 -87.49992,-87.50022 0,-48.29448 39.20542,-87.49983 87.49992,-87.49983 48.36245,0 87.5003,39.20535 87.5003,87.49983 z"
         style="fill:#d9463a;fill-opacity:1;fill-rule:evenodd;stroke:none" />
      <path
         inkscape:connector-curvature="0"
         id="path4447"
         d="m 515.00607,685.30225 63.3147,0 c 3.21943,0 5.84267,2.62322 5.84267,5.84259 l 0,63.31483 c 0,3.21937 -2.62324,5.8426 -5.84267,5.8426 l -63.3147,0 c -3.21942,0 -5.84263,-2.62323 -5.84263,-5.8426 l 0,-63.31483 c 0,-3.21937 2.62321,-5.84259 5.84263,-5.84259 z"
         style="fill:#ffffff;fill-opacity:1;fill-rule:nonzero;stroke:none" />
    </g>
  </g>
</svg>
