<?xml version="1.0" encoding="UTF-8" standalone="no"?>
<!-- Created with Inkscape (http://www.inkscape.org/) -->

<svg
   xmlns:dc="http://purl.org/dc/elements/1.1/"
   xmlns:cc="http://creativecommons.org/ns#"
   xmlns:rdf="http://www.w3.org/1999/02/22-rdf-syntax-ns#"
   xmlns:svg="http://www.w3.org/2000/svg"
   xmlns="http://www.w3.org/2000/svg"
   xmlns:sodipodi="http://sodipodi.sourceforge.net/DTD/sodipodi-0.dtd"
   xmlns:inkscape="http://www.inkscape.org/namespaces/inkscape"
   width="210mm"
   height="297mm"
   viewBox="0 0 744.09448819 1052.3622047"
   id="svg2"
   version="1.1"
   inkscape:version="0.91 r13725"
   inkscape:export-xdpi="3.5999999"
   inkscape:export-ydpi="3.5999999"
   sodipodi:docname="directory-syntax.svg"
   inkscape:export-filename="D:\Dokumente\Arbeit\RRZE\github\bicons\16x16\emblems\directory-syntax.png">
  <title
     id="title4188">directory syntax</title>
  <defs
     id="defs4">
    <linearGradient
       id="linearGradient2224">
      <stop
         id="stop2226"
         offset="0"
         style="stop-color:#7c7c7c;stop-opacity:1;" />
      <stop
         id="stop2228"
         offset="1"
         style="stop-color:#b8b8b8;stop-opacity:1;" />
    </linearGradient>
    <linearGradient
       id="linearGradient15218">
      <stop
         id="stop15220"
         offset="0"
         style="stop-color:#eeeeef;stop-opacity:1;" />
      <stop
         id="stop2736"
         offset="0.59928656"
         style="stop-color:#d3d7cf;stop-opacity:1;" />
      <stop
         id="stop2738"
         offset="0.82758623"
         style="stop-color:#ffffff;stop-opacity:1;" />
      <stop
         id="stop15222"
         offset="1"
         style="stop-color:#d3d7cf;stop-opacity:1;" />
    </linearGradient>
    <pattern
       y="0"
       x="0"
       height="6"
       width="6"
       patternUnits="userSpaceOnUse"
       id="EMFhbasepattern" />
    <pattern
       y="0"
       x="0"
       height="6"
       width="6"
       patternUnits="userSpaceOnUse"
       id="EMFhbasepattern-5" />
    <pattern
       y="0"
       x="0"
       height="6"
       width="6"
       patternUnits="userSpaceOnUse"
       id="EMFhbasepattern-1" />
  </defs>
  <sodipodi:namedview
     id="base"
     pagecolor="#ffffff"
     bordercolor="#666666"
     borderopacity="1.0"
     inkscape:pageopacity="0.0"
     inkscape:pageshadow="2"
     inkscape:zoom="0.70710678"
     inkscape:cx="702.27983"
     inkscape:cy="654.72873"
     inkscape:document-units="px"
     inkscape:current-layer="layer1"
     showgrid="false"
     showguides="true"
     inkscape:guide-bbox="true"
     inkscape:window-width="1600"
     inkscape:window-height="837"
     inkscape:window-x="-4"
     inkscape:window-y="-4"
     inkscape:window-maximized="1"
     inkscape:snap-bbox="true"
     inkscape:bbox-paths="true"
     inkscape:bbox-nodes="true">
    <sodipodi:guide
       position="560,730.00002"
       orientation="0,1"
       id="guide3338" />
    <sodipodi:guide
       position="560,330.00001"
       orientation="0,1"
       id="guide3340" />
    <sodipodi:guide
       position="190,475.00001"
       orientation="1,0"
       id="guide3344" />
    <sodipodi:guide
       position="590,451.00001"
       orientation="1,0"
       id="guide3346" />
    <inkscape:grid
       type="xygrid"
       id="grid3440" />
  </sodipodi:namedview>
  <metadata
     id="metadata7">
    <rdf:RDF>
      <cc:Work
         rdf:about="">
        <dc:format>image/svg+xml</dc:format>
        <dc:type
           rdf:resource="http://purl.org/dc/dcmitype/StillImage" />
        <dc:title>directory syntax</dc:title>
        <dc:date>June 2015</dc:date>
        <dc:creator>
          <cc:Agent>
            <dc:title>Johannes Hechler</dc:title>
          </cc:Agent>
        </dc:creator>
        <dc:rights>
          <cc:Agent>
            <dc:title>Johannes Hechler</dc:title>
          </cc:Agent>
        </dc:rights>
        <dc:publisher>
          <cc:Agent>
            <dc:title>RRZE</dc:title>
          </cc:Agent>
        </dc:publisher>
        <dc:contributor>
          <cc:Agent>
            <dc:title>Ute Weber, Hendrik Eggers</dc:title>
          </cc:Agent>
        </dc:contributor>
      </cc:Work>
    </rdf:RDF>
  </metadata>
  <g
     inkscape:label="Ebene 1"
     inkscape:groupmode="layer"
     id="layer1">
    <g
       id="g4216"
       transform="translate(-31.435645,-19.46176)">
      <rect
         y="341.83826"
         x="221.43564"
         height="400"
         width="400"
         id="rect4160"
         style="opacity:1;fill:none;fill-opacity:1;stroke:none;stroke-width:23;stroke-linecap:butt;stroke-linejoin:round;stroke-miterlimit:4;stroke-dasharray:none;stroke-opacity:1" />
      <path
         id="rect4590"
         d="m 446.43564,341.82396 c -13.85,0 -25,11.15 -25,25 l 0,50 75,0 c 27.26757,0 50,22.73243 50,50 l 0,29.26758 c 8.85147,-11.53965 18.10479,-23.39213 27.82617,-35.86328 a 25.0025,25.0025 0 0 1 19.00391,-9.61914 25.0025,25.0025 0 0 1 12.07031,2.71875 l 16.09961,8.20898 0,-94.71289 c 0,-13.85 -11.15,-25 -25,-25 l -150,0 z m -100,100 c -13.85,0 -25,11.15 -25,25 l 0,50 75,0 c 27.26757,0 50,22.73243 50,50 l 0,36.55664 c 7.5412,2.3501 15.63633,5.16647 23.92188,8.71094 14.94272,-29.60172 31.87559,-55.88075 51.07812,-82.51953 l 0,-62.74805 c 0,-13.85 -11.15,-25 -25,-25 l -150,0 z m -100,100 c -13.85,0 -25,11.15 -25,25 l 0,150 c 0,13.85 11.15,25 25,25 l 150,0 c 13.85,0 25,-11.15 25,-25 l 0,-19.38867 c -9.87981,-11.96383 -21.74107,-22.99656 -34.87305,-32.00391 a 25.0025,25.0025 0 0 1 -10.25976,-26.05469 l 5.99804,-26.91211 a 25.0025,25.0025 0 0 1 32.21875,-18.30664 c 2.04797,0.67428 4.41652,1.36593 6.91602,2.07618 l 0,-29.41016 c 0,-13.85 -11.15,-25 -25,-25 l -150,0 z m 273.60352,83.27148 c -1.1781,2.18716 -2.3415,4.39364 -3.49219,6.61524 1.47686,-1.99559 2.65838,-4.22228 3.49219,-6.61524 z"
         style="opacity:1;fill:#4e505d;fill-opacity:1;stroke:none;stroke-width:100;stroke-linejoin:round;stroke-miterlimit:4;stroke-dasharray:none;stroke-opacity:1"
         inkscape:connector-curvature="0" />
      <rect
         ry="12.500034"
         y="566.82391"
         x="246.43564"
         height="25.000069"
         width="150"
         id="rect4628"
         style="opacity:1;fill:#ffffff;fill-opacity:1;stroke:none;stroke-width:50;stroke-linejoin:round;stroke-miterlimit:4;stroke-dasharray:none;stroke-opacity:1" />
      <rect
         ry="12.5"
         y="466.82397"
         x="346.43564"
         height="25"
         width="150"
         id="rect4630"
         style="opacity:1;fill:#ffffff;fill-opacity:1;stroke:none;stroke-width:50;stroke-linejoin:round;stroke-miterlimit:4;stroke-dasharray:none;stroke-opacity:1" />
      <rect
         ry="12.5"
         y="366.82397"
         x="446.43564"
         height="25"
         width="150"
         id="rect4632"
         style="opacity:1;fill:#ffffff;fill-opacity:1;stroke:none;stroke-width:50;stroke-linejoin:round;stroke-miterlimit:4;stroke-dasharray:none;stroke-opacity:1" />
      <path
         sodipodi:nodetypes="cccccccc"
         inkscape:connector-curvature="0"
         id="path4187"
         d="m 593.97881,475.59813 c -48.66503,62.43034 -84.32258,107.61928 -112.08168,170.576 -25.45566,-16.16266 -55.29564,-21.71989 -75.19482,-28.27148 l -5.99883,26.91199 c 35.32195,24.22765 62.75261,60.22956 72.23677,97.00936 12.55216,-0.053 35.39833,-0.1087 47.95048,-0.1634 11.64651,-103.03853 55.49488,-178.39313 99.52881,-252.58039 z"
         style="color:#252525;font-style:normal;font-variant:normal;font-weight:normal;font-stretch:normal;font-size:medium;line-height:normal;font-family:sans-serif;text-indent:0;text-align:start;text-decoration:none;text-decoration-line:none;text-decoration-style:solid;text-decoration-color:#252525;letter-spacing:normal;word-spacing:normal;text-transform:none;direction:ltr;block-progression:tb;writing-mode:lr-tb;baseline-shift:baseline;text-anchor:start;white-space:normal;clip-rule:nonzero;display:inline;overflow:visible;visibility:visible;opacity:1;isolation:auto;mix-blend-mode:normal;color-interpolation:sRGB;color-interpolation-filters:linearRGB;solid-color:#252525;solid-opacity:1;fill:#abbe24;fill-opacity:1;fill-rule:evenodd;stroke:none;stroke-width:22;stroke-linecap:butt;stroke-linejoin:miter;stroke-miterlimit:4;stroke-dasharray:none;stroke-dashoffset:0;stroke-opacity:1;color-rendering:auto;image-rendering:auto;shape-rendering:auto;text-rendering:auto;enable-background:accumulate" />
    </g>
  </g>
</svg>
