<?xml version="1.0" encoding="UTF-8" standalone="no"?>
<!-- Created with Inkscape (http://www.inkscape.org/) -->

<svg
   xmlns:dc="http://purl.org/dc/elements/1.1/"
   xmlns:cc="http://creativecommons.org/ns#"
   xmlns:rdf="http://www.w3.org/1999/02/22-rdf-syntax-ns#"
   xmlns:svg="http://www.w3.org/2000/svg"
   xmlns="http://www.w3.org/2000/svg"
   xmlns:xlink="http://www.w3.org/1999/xlink"
   xmlns:sodipodi="http://sodipodi.sourceforge.net/DTD/sodipodi-0.dtd"
   xmlns:inkscape="http://www.inkscape.org/namespaces/inkscape"
   width="210mm"
   height="297mm"
   viewBox="0 0 744.09448819 1052.3622047"
   id="svg2"
   version="1.1"
   inkscape:version="0.91 r13725"
   inkscape:export-xdpi="3.5999999"
   inkscape:export-ydpi="3.5999999"
   sodipodi:docname="directory-object.svg"
   inkscape:export-filename="D:\Dokumente\Arbeit\RRZE\github\bicons\16x16\emblems\directory-object.png">
  <title
     id="title4162">directory object</title>
  <defs
     id="defs4">
    <linearGradient
       id="linearGradient2224">
      <stop
         id="stop2226"
         offset="0"
         style="stop-color:#7c7c7c;stop-opacity:1;" />
      <stop
         id="stop2228"
         offset="1"
         style="stop-color:#b8b8b8;stop-opacity:1;" />
    </linearGradient>
    <linearGradient
       id="linearGradient15218">
      <stop
         id="stop15220"
         offset="0"
         style="stop-color:#eeeeef;stop-opacity:1;" />
      <stop
         id="stop2736"
         offset="0.59928656"
         style="stop-color:#d3d7cf;stop-opacity:1;" />
      <stop
         id="stop2738"
         offset="0.82758623"
         style="stop-color:#ffffff;stop-opacity:1;" />
      <stop
         id="stop15222"
         offset="1"
         style="stop-color:#d3d7cf;stop-opacity:1;" />
    </linearGradient>
    <pattern
       y="0"
       x="0"
       height="6"
       width="6"
       patternUnits="userSpaceOnUse"
       id="EMFhbasepattern" />
    <pattern
       y="0"
       x="0"
       height="6"
       width="6"
       patternUnits="userSpaceOnUse"
       id="EMFhbasepattern-5" />
    <linearGradient
       inkscape:collect="always"
       xlink:href="#linearGradient4167"
       id="linearGradient4354"
       x1="190"
       y1="722.36218"
       x2="561.44281"
       y2="387.68182"
       gradientUnits="userSpaceOnUse"
       gradientTransform="matrix(0.87499999,0,0,0.98437499,-13.35134,-50.033975)" />
    <linearGradient
       inkscape:collect="always"
       id="linearGradient4167">
      <stop
         style="stop-color:#4e505d;stop-opacity:1;"
         offset="0"
         id="stop4169" />
      <stop
         style="stop-color:#7a8597;stop-opacity:1"
         offset="1"
         id="stop4171" />
    </linearGradient>
  </defs>
  <sodipodi:namedview
     id="base"
     pagecolor="#ffffff"
     bordercolor="#666666"
     borderopacity="1.0"
     inkscape:pageopacity="0.0"
     inkscape:pageshadow="2"
     inkscape:zoom="0.5"
     inkscape:cx="68.02318"
     inkscape:cy="537.68845"
     inkscape:document-units="px"
     inkscape:current-layer="layer1"
     showgrid="false"
     showguides="true"
     inkscape:guide-bbox="true"
     inkscape:window-width="1600"
     inkscape:window-height="837"
     inkscape:window-x="-4"
     inkscape:window-y="-4"
     inkscape:window-maximized="1"
     inkscape:snap-bbox="true"
     inkscape:bbox-paths="true"
     inkscape:bbox-nodes="true"
     inkscape:snap-nodes="false">
    <sodipodi:guide
       position="560,730.00002"
       orientation="0,1"
       id="guide3338" />
    <sodipodi:guide
       position="560,330.00001"
       orientation="0,1"
       id="guide3340" />
    <sodipodi:guide
       position="190,475.00001"
       orientation="1,0"
       id="guide3344" />
    <sodipodi:guide
       position="590,451.00001"
       orientation="1,0"
       id="guide3346" />
    <inkscape:grid
       type="xygrid"
       id="grid3440" />
  </sodipodi:namedview>
  <metadata
     id="metadata7">
    <rdf:RDF>
      <cc:Work
         rdf:about="">
        <dc:format>image/svg+xml</dc:format>
        <dc:type
           rdf:resource="http://purl.org/dc/dcmitype/StillImage" />
        <dc:title>directory object</dc:title>
        <dc:date>June 2015</dc:date>
        <dc:creator>
          <cc:Agent>
            <dc:title>Johannes Hechler</dc:title>
          </cc:Agent>
        </dc:creator>
        <dc:rights>
          <cc:Agent>
            <dc:title>Johannes Hechler</dc:title>
          </cc:Agent>
        </dc:rights>
        <dc:publisher>
          <cc:Agent>
            <dc:title>RRZE</dc:title>
          </cc:Agent>
        </dc:publisher>
        <dc:contributor>
          <cc:Agent>
            <dc:title>Ute Weber, Hendrik Eggers</dc:title>
          </cc:Agent>
        </dc:contributor>
      </cc:Work>
    </rdf:RDF>
  </metadata>
  <g
     inkscape:label="Ebene 1"
     inkscape:groupmode="layer"
     id="layer1">
    <g
       id="g4184"
       transform="translate(61.999995,56.000017)">
      <rect
         ry="0"
         y="266.36218"
         x="128"
         height="400"
         width="400"
         id="rect4163"
         style="color:#252525;clip-rule:nonzero;display:inline;overflow:visible;visibility:visible;opacity:1;isolation:auto;mix-blend-mode:normal;color-interpolation:sRGB;color-interpolation-filters:linearRGB;solid-color:#252525;solid-opacity:1;fill:none;fill-opacity:1;fill-rule:nonzero;stroke:none;stroke-width:0;stroke-linecap:butt;stroke-linejoin:round;stroke-miterlimit:4;stroke-dasharray:none;stroke-dashoffset:60.95968628;stroke-opacity:1;color-rendering:auto;image-rendering:auto;shape-rendering:auto;text-rendering:auto;enable-background:accumulate" />
      <path
         inkscape:connector-curvature="0"
         id="rect4149"
         d="M 173.08008,291.36213 C 161.95569,291.36213 153,300.31782 153,311.44221 l 0,309.8399 c 0,11.1243 8.95569,20.08 20.08008,20.08 l 104.91992,0 0,-30.99998 a 25.0025,25.0025 0 0 1 25.07031,-25 c 0.23167,6e-4 0.45805,0.0214 0.68946,0.0234 a 25.0025,25.0025 0 0 1 6.75781,-11.89258 l 92.0332,-90.04102 a 25.0025,25.0025 0 0 1 14.70117,-6.97461 c 0.30277,-0.0339 0.58125,-0.0153 0.88282,-0.0469 a 25.0025,25.0025 0 0 1 6.74609,-15.29688 l 34.95898,-36.95117 a 25.0025,25.0025 0 0 1 18.81836,-7.81054 c 8.57831,0.22585 16.75164,1.87622 24.3418,4.67187 l 0,-109.60149 c 0,-11.12439 -8.95569,-20.08008 -20.08008,-20.08008 l -309.83984,0 z m 257.7168,234.4043 -55.16993,53.97461 c 3.13706,2.178 6.13873,4.56296 8.84766,7.375 2.19329,2.27678 4.07971,4.72208 5.82812,7.23828 l 54.37891,-53.20313 c -0.65217,-6.44206 -2.0273,-10.64397 -2.98047,-12.05273 -1.33552,-1.97388 -1.26506,-3.19024 -10.90429,-3.33203 z M 503,551.19025 a 25.0025,25.0025 0 0 1 -8.05078,2.01563 25.0025,25.0025 0 0 1 -7.4336,15.98633 l -73.76757,72.1699 69.17187,0 c 11.12439,0 20.08008,-8.9557 20.08008,-20.08 l 0,-70.09186 z"
         style="color:#252525;clip-rule:nonzero;display:inline;overflow:visible;visibility:visible;opacity:1;isolation:auto;mix-blend-mode:normal;color-interpolation:sRGB;color-interpolation-filters:linearRGB;solid-color:#252525;solid-opacity:1;fill:url(#linearGradient4354);fill-opacity:1;fill-rule:nonzero;stroke:none;stroke-width:23;stroke-linecap:butt;stroke-linejoin:round;stroke-miterlimit:4;stroke-dasharray:none;stroke-dashoffset:0;stroke-opacity:1;color-rendering:auto;image-rendering:auto;shape-rendering:auto;text-rendering:auto;enable-background:accumulate" />
      <rect
         ry="37.500004"
         y="316.36218"
         x="178.3623"
         height="75.000008"
         width="300.00003"
         id="rect4151"
         style="color:#252525;clip-rule:nonzero;display:inline;overflow:visible;visibility:visible;opacity:1;isolation:auto;mix-blend-mode:normal;color-interpolation:sRGB;color-interpolation-filters:linearRGB;solid-color:#252525;solid-opacity:1;fill:#ffffff;fill-opacity:1;fill-rule:nonzero;stroke:none;stroke-width:23;stroke-linecap:butt;stroke-linejoin:round;stroke-miterlimit:4;stroke-dasharray:none;stroke-dashoffset:0;stroke-opacity:1;color-rendering:auto;image-rendering:auto;shape-rendering:auto;text-rendering:auto;enable-background:accumulate" />
      <path
         id="path4230"
         d="m 478,441.36205 -34.95898,36.95117 c 39.12112,1.20291 49.95336,16.62534 50,49.99997 L 528,491.36205 c -0.42603,-26.21463 -21.81993,-49.25806 -50,-50 z m -47.45117,59.38086 c -3.25802,-0.0311 -6.75751,0.15748 -10.51563,0.57812 L 328,591.36209 c 35.85935,0.8083 50.0617,17.4544 50,50.00012 l 92.0332,-90.04122 c 0.81592,-29.4835 -7.99014,-50.27784 -39.48437,-50.57808 z M 303,610.36209 l 0,56.00012 56,0 c -0.5226,-38.9207 -17.63251,-55.89182 -56,-56.00012 z"
         style="fill:#97ae00;fill-opacity:1;fill-rule:evenodd;stroke:none;stroke-width:1px;stroke-linecap:butt;stroke-linejoin:miter;stroke-opacity:1"
         inkscape:connector-curvature="0" />
      <path
         id="rect4318"
         d="m 203.36232,466.36217 c -13.84999,0 -25,11.15001 -25,25 0,13.84999 11.15001,25 25,25 l 129.80078,0 51.10547,-50 -180.90625,0 z"
         style="opacity:1;fill:#ffffff;fill-opacity:1;stroke:none;stroke-width:35;stroke-linejoin:round;stroke-miterlimit:4;stroke-dasharray:none;stroke-opacity:1"
         inkscape:connector-curvature="0" />
      <path
         id="rect4320"
         d="m 203.36232,566.36217 c -13.85,0 -25,11.15 -25,25 0,13.85 11.15,25.00004 25,25.00004 l 49.63672,0 0,-6.00004 a 50.005,50.005 0 0 1 26.49414,-44 l -76.13086,0 z m 280.78906,41.09375 -3.47656,3.40234 c 1.26709,-1.0187 2.43113,-2.15814 3.47656,-3.40234 z"
         style="opacity:1;fill:#ffffff;fill-opacity:1;stroke:none;stroke-width:35;stroke-linejoin:round;stroke-miterlimit:4;stroke-dasharray:none;stroke-opacity:1"
         inkscape:connector-curvature="0" />
    </g>
  </g>
</svg>
