<?xml version="1.0" encoding="UTF-8" standalone="no"?>
<!-- Created with Inkscape (http://www.inkscape.org/) -->

<svg
   xmlns:dc="http://purl.org/dc/elements/1.1/"
   xmlns:cc="http://creativecommons.org/ns#"
   xmlns:rdf="http://www.w3.org/1999/02/22-rdf-syntax-ns#"
   xmlns:svg="http://www.w3.org/2000/svg"
   xmlns="http://www.w3.org/2000/svg"
   xmlns:xlink="http://www.w3.org/1999/xlink"
   xmlns:sodipodi="http://sodipodi.sourceforge.net/DTD/sodipodi-0.dtd"
   xmlns:inkscape="http://www.inkscape.org/namespaces/inkscape"
   width="210mm"
   height="297mm"
   viewBox="0 0 744.09448819 1052.3622047"
   id="svg2"
   version="1.1"
   inkscape:version="0.91 r13725"
   inkscape:export-xdpi="4"
   inkscape:export-ydpi="4"
   sodipodi:docname="entity.svg">
  <title
     id="title4155">entity</title>
  <defs
     id="defs4">
    <linearGradient
       inkscape:collect="always"
       id="linearGradient4233">
      <stop
         style="stop-color:#4e505d;stop-opacity:1;"
         offset="0"
         id="stop4235" />
      <stop
         style="stop-color:#7a8597;stop-opacity:1"
         offset="1"
         id="stop4237" />
    </linearGradient>
    <linearGradient
       id="linearGradient2224">
      <stop
         id="stop2226"
         offset="0"
         style="stop-color:#7c7c7c;stop-opacity:1;" />
      <stop
         id="stop2228"
         offset="1"
         style="stop-color:#b8b8b8;stop-opacity:1;" />
    </linearGradient>
    <linearGradient
       id="linearGradient15218">
      <stop
         id="stop15220"
         offset="0"
         style="stop-color:#eeeeef;stop-opacity:1;" />
      <stop
         id="stop2736"
         offset="0.59928656"
         style="stop-color:#d3d7cf;stop-opacity:1;" />
      <stop
         id="stop2738"
         offset="0.82758623"
         style="stop-color:#ffffff;stop-opacity:1;" />
      <stop
         id="stop15222"
         offset="1"
         style="stop-color:#d3d7cf;stop-opacity:1;" />
    </linearGradient>
    <pattern
       y="0"
       x="0"
       height="6"
       width="6"
       patternUnits="userSpaceOnUse"
       id="EMFhbasepattern" />
    <pattern
       y="0"
       x="0"
       height="6"
       width="6"
       patternUnits="userSpaceOnUse"
       id="EMFhbasepattern-5" />
    <linearGradient
       inkscape:collect="always"
       xlink:href="#linearGradient4233"
       id="linearGradient4239"
       x1="220"
       y1="692.36218"
       x2="540"
       y2="372.36221"
       gradientUnits="userSpaceOnUse"
       gradientTransform="matrix(0.87498292,0,0,0.87498292,49.753246,66.307507)" />
  </defs>
  <sodipodi:namedview
     id="base"
     pagecolor="#ffffff"
     bordercolor="#666666"
     borderopacity="1.0"
     inkscape:pageopacity="0.0"
     inkscape:pageshadow="2"
     inkscape:zoom="0.5"
     inkscape:cx="-33.43352"
     inkscape:cy="481.70994"
     inkscape:document-units="px"
     inkscape:current-layer="layer1"
     showgrid="false"
     showguides="true"
     inkscape:guide-bbox="true"
     inkscape:window-width="1366"
     inkscape:window-height="721"
     inkscape:window-x="-4"
     inkscape:window-y="-4"
     inkscape:window-maximized="1">
    <sodipodi:guide
       position="560,730.00002"
       orientation="0,1"
       id="guide3338" />
    <sodipodi:guide
       position="560,330.00001"
       orientation="0,1"
       id="guide3340" />
    <sodipodi:guide
       position="190,475.00001"
       orientation="1,0"
       id="guide3344" />
    <sodipodi:guide
       position="590,451.00001"
       orientation="1,0"
       id="guide3346" />
    <inkscape:grid
       type="xygrid"
       id="grid3440" />
  </sodipodi:namedview>
  <metadata
     id="metadata7">
    <rdf:RDF>
      <cc:Work
         rdf:about="">
        <dc:format>image/svg+xml</dc:format>
        <dc:type
           rdf:resource="http://purl.org/dc/dcmitype/StillImage" />
        <dc:title>entity</dc:title>
        <dc:date>June 2015</dc:date>
        <dc:creator>
          <cc:Agent>
            <dc:title>Johannes Hechler</dc:title>
          </cc:Agent>
        </dc:creator>
        <dc:rights>
          <cc:Agent>
            <dc:title>Johannes Hechler</dc:title>
          </cc:Agent>
        </dc:rights>
        <dc:publisher>
          <cc:Agent>
            <dc:title>RRZE</dc:title>
          </cc:Agent>
        </dc:publisher>
        <dc:contributor>
          <cc:Agent>
            <dc:title>Ute Weber, Hendrik Eggers</dc:title>
          </cc:Agent>
        </dc:contributor>
      </cc:Work>
    </rdf:RDF>
  </metadata>
  <g
     inkscape:label="Ebene 1"
     inkscape:groupmode="layer"
     id="layer1">
    <rect
       style="opacity:1;fill:none;fill-opacity:1;stroke:none;stroke-width:23;stroke-linecap:butt;stroke-linejoin:round;stroke-miterlimit:4;stroke-dasharray:none;stroke-opacity:1"
       id="rect4160"
       width="400"
       height="400"
       x="190"
       y="322.36221" />
    <path
       style="color:#000000;clip-rule:nonzero;display:inline;overflow:visible;visibility:visible;opacity:1;isolation:auto;mix-blend-mode:normal;color-interpolation:sRGB;color-interpolation-filters:linearRGB;solid-color:#000000;solid-opacity:1;fill:#4e505d;fill-opacity:1;fill-rule:nonzero;stroke:none;stroke-width:23;stroke-linecap:butt;stroke-linejoin:round;stroke-miterlimit:4;stroke-dasharray:none;stroke-dashoffset:0;stroke-opacity:1;color-rendering:auto;image-rendering:auto;shape-rendering:auto;text-rendering:auto;enable-background:accumulate"
       d="m 294.74846,392.11731 c -4.8474,0 -8.74983,3.90242 -8.74983,8.74983 0,4.8474 3.90243,8.74983 8.74983,8.74983 l 18.85144,0 c 0.5423,-2.83236 0.83568,-5.75478 0.83568,-8.74983 0,-2.99506 -0.29338,-5.91748 -0.83568,-8.74983 l -18.85144,0 z m 32.15905,0 c 0.42692,2.8563 0.65281,5.77743 0.65281,8.74983 0,2.97239 -0.22589,5.89352 -0.65281,8.74983 l 128.28411,0 c -0.48991,-3.05347 -0.75194,-6.18184 -0.75194,-9.37019 0,-2.75866 0.20551,-5.46983 0.57421,-8.12947 l -128.10638,0 z m 141.38322,0 c -0.46793,2.63905 -0.72631,5.35209 -0.72631,8.12947 0,3.21331 0.32809,6.34628 0.95018,9.37019 l 36.22976,0 c 4.84741,0 8.74983,-3.90243 8.74983,-8.74983 0,-4.84741 -3.90242,-8.74983 -8.74983,-8.74983 l -36.45363,0 z m -199.79176,8.74983 c -4.8474,0 -8.74982,3.90242 -8.74982,8.74983 l 0,36.35109 c 2.83235,0.5423 5.75478,0.83568 8.74982,0.83568 2.99505,0 5.91748,-0.29338 8.74983,-0.83568 l 0,-36.35109 c 0,-4.84741 -3.90242,-8.74983 -8.74983,-8.74983 z m 244.99522,26.24949 c -4.8474,0 -8.74983,3.90242 -8.74983,8.74983 l 0,9.47954 c 2.8345,0.54317 5.75918,0.83739 8.75667,0.83739 2.99262,0 5.91278,-0.29253 8.74299,-0.83397 l 0,-9.48296 c 0,-4.84741 -3.90242,-8.74983 -8.74983,-8.74983 z m -8.74983,31.53698 0,128.78996 c 2.82933,-0.41867 5.7214,-0.64256 8.66438,-0.64256 3.00181,0 5.95203,0.22781 8.83528,0.66307 l 0,-128.80876 c -2.85418,0.42627 -5.77292,0.65281 -8.74299,0.65281 -2.97479,0 -5.89817,-0.22693 -8.75667,-0.65452 z m -244.99521,0.62205 0,127.85517 c 2.93781,-0.4524 5.94641,-0.687 9.00787,-0.687 2.88351,10e-6 5.71709,0.21814 8.49178,0.62036 l 0,-127.78853 c -2.8563,0.42693 -5.77743,0.65283 -8.74983,0.65283 -2.97239,0 -5.89352,-0.2259 -8.74982,-0.65283 z m 9.00787,140.29292 c -3.08563,0 -6.09574,0.30704 -9.00787,0.88182 l 0,10.41264 c 0,4.8474 3.90242,8.74983 8.74982,8.74983 4.84741,0 8.74983,-3.90243 8.74983,-8.74983 l 0,-10.50492 c -2.75218,-0.51071 -5.5873,-0.78954 -8.49178,-0.78954 z m 244.65172,0.35717 c -2.96505,0 -5.85854,0.28856 -8.66438,0.8203 l 0,10.11699 c 0,4.8474 3.90243,8.74983 8.74983,8.74983 4.84741,0 8.74983,-3.90243 8.74983,-8.74983 l 0,-10.08624 c -2.85882,-0.55295 -5.81022,-0.85105 -8.83528,-0.85105 z m -227.41011,37.18678 c -4.8474,0 -8.74983,3.90242 -8.74983,8.74983 0,4.8474 3.90243,8.74982 8.74983,8.74982 l 27.79609,0 c 0.58748,-2.94263 0.89891,-5.9866 0.89891,-9.107 0,-2.86971 -0.27362,-5.67133 -0.77245,-8.39265 l -27.92255,0 z m 41.21306,0 c 0.3929,2.74322 0.60668,5.54335 0.60668,8.39265 0,3.09624 -0.24325,6.13743 -0.70579,9.107 l 127.88764,0 c -0.42693,-2.85631 -0.65283,-5.77743 -0.65283,-8.74982 0,-2.9724 0.2259,-5.89353 0.65283,-8.74983 l -127.78853,0 z m 141.09613,0 c -0.5423,2.83235 -0.83568,5.75477 -0.83568,8.74983 0,2.99504 0.29338,5.91747 0.83568,8.74982 l 27.68671,0 c 4.84741,0 8.74983,-3.90242 8.74983,-8.74982 0,-4.84741 -3.90242,-8.74983 -8.74983,-8.74983 l -27.68671,0 z"
       id="rect4203"
       inkscape:connector-curvature="0" />
    <path
       style="color:#000000;clip-rule:nonzero;display:inline;overflow:visible;visibility:visible;opacity:1;isolation:auto;mix-blend-mode:normal;color-interpolation:sRGB;color-interpolation-filters:linearRGB;solid-color:#000000;solid-opacity:1;fill:url(#linearGradient4239);fill-opacity:1;fill-rule:nonzero;stroke:none;stroke-width:23;stroke-linecap:butt;stroke-linejoin:round;stroke-miterlimit:4;stroke-dasharray:none;stroke-dashoffset:0;stroke-opacity:1;color-rendering:auto;image-rendering:auto;shape-rendering:auto;text-rendering:auto;enable-background:accumulate"
       d="m 513.50103,347.74781 a 52.498975,52.498978 0 0 0 -52.49898,52.49897 52.498975,52.498978 0 0 0 52.49898,52.49898 A 52.498975,52.498978 0 0 0 566,400.24678 52.498975,52.498978 0 0 0 513.50103,347.74781 Z m -245.00206,0.62035 A 52.498975,52.498978 0 0 0 216,400.86714 a 52.498975,52.498978 0 0 0 52.49897,52.49897 52.498975,52.498978 0 0 0 52.49898,-52.49897 52.498975,52.498978 0 0 0 -52.49898,-52.49898 z m 0.25805,244.63804 a 52.498975,52.498978 0 0 0 -52.49897,52.49898 52.498975,52.498978 0 0 0 52.49897,52.49897 52.498975,52.498978 0 0 0 52.49898,-52.49897 52.498975,52.498978 0 0 0 -52.49898,-52.49898 z m 244.65172,0.35718 a 52.498975,52.498978 0 0 0 -52.49897,52.49898 52.498975,52.498978 0 0 0 52.49897,52.49897 52.498975,52.498978 0 0 0 52.49898,-52.49897 52.498975,52.498978 0 0 0 -52.49898,-52.49898 z"
       id="path4165"
       inkscape:connector-curvature="0" />
  </g>
</svg>
