<?xml version="1.0" encoding="UTF-8" standalone="no"?>
<!-- Created with Inkscape (http://www.inkscape.org/) -->

<svg
   xmlns:dc="http://purl.org/dc/elements/1.1/"
   xmlns:cc="http://creativecommons.org/ns#"
   xmlns:rdf="http://www.w3.org/1999/02/22-rdf-syntax-ns#"
   xmlns:svg="http://www.w3.org/2000/svg"
   xmlns="http://www.w3.org/2000/svg"
   xmlns:xlink="http://www.w3.org/1999/xlink"
   xmlns:sodipodi="http://sodipodi.sourceforge.net/DTD/sodipodi-0.dtd"
   xmlns:inkscape="http://www.inkscape.org/namespaces/inkscape"
   width="210mm"
   height="297mm"
   viewBox="0 0 744.09448819 1052.3622047"
   id="svg2"
   version="1.1"
   inkscape:version="0.91 r13725"
   inkscape:export-xdpi="3.5999999"
   inkscape:export-ydpi="3.5999999"
   sodipodi:docname="entity-affiliation.svg"
   inkscape:export-filename="C:\Users\johannes\Documents\Arbeit\RRZE\github3\bicons\16x16\emblems\entity-affiliation.png">
  <defs
     id="defs4">
    <linearGradient
       id="linearGradient2224">
      <stop
         id="stop2226"
         offset="0"
         style="stop-color:#7c7c7c;stop-opacity:1;" />
      <stop
         id="stop2228"
         offset="1"
         style="stop-color:#b8b8b8;stop-opacity:1;" />
    </linearGradient>
    <linearGradient
       id="linearGradient15218">
      <stop
         id="stop15220"
         offset="0"
         style="stop-color:#eeeeef;stop-opacity:1;" />
      <stop
         id="stop2736"
         offset="0.59928656"
         style="stop-color:#d3d7cf;stop-opacity:1;" />
      <stop
         id="stop2738"
         offset="0.82758623"
         style="stop-color:#ffffff;stop-opacity:1;" />
      <stop
         id="stop15222"
         offset="1"
         style="stop-color:#d3d7cf;stop-opacity:1;" />
    </linearGradient>
    <pattern
       y="0"
       x="0"
       height="6"
       width="6"
       patternUnits="userSpaceOnUse"
       id="EMFhbasepattern" />
    <pattern
       y="0"
       x="0"
       height="6"
       width="6"
       patternUnits="userSpaceOnUse"
       id="EMFhbasepattern-5" />
    <linearGradient
       inkscape:collect="always"
       xlink:href="#linearGradient4225"
       id="linearGradient4231"
       x1="8.485281"
       y1="402.82843"
       x2="375"
       y2="25"
       gradientUnits="userSpaceOnUse"
       gradientTransform="translate(189.30072,322.28374)" />
    <linearGradient
       inkscape:collect="always"
       id="linearGradient4225">
      <stop
         style="stop-color:#4e505d;stop-opacity:1;"
         offset="0"
         id="stop4227" />
      <stop
         style="stop-color:#7a859c;stop-opacity:1"
         offset="1"
         id="stop4229" />
    </linearGradient>
  </defs>
  <sodipodi:namedview
     id="base"
     pagecolor="#ffffff"
     bordercolor="#666666"
     borderopacity="1.0"
     inkscape:pageopacity="0.0"
     inkscape:pageshadow="2"
     inkscape:zoom="0.70710678"
     inkscape:cx="235.8571"
     inkscape:cy="432.33322"
     inkscape:document-units="px"
     inkscape:current-layer="layer1"
     showgrid="false"
     showguides="true"
     inkscape:guide-bbox="true"
     inkscape:window-width="1366"
     inkscape:window-height="721"
     inkscape:window-x="-4"
     inkscape:window-y="-4"
     inkscape:window-maximized="1"
     inkscape:snap-bbox="true"
     inkscape:bbox-paths="true"
     inkscape:bbox-nodes="true">
    <sodipodi:guide
       position="560,730.00002"
       orientation="0,1"
       id="guide3338" />
    <sodipodi:guide
       position="560,330.00001"
       orientation="0,1"
       id="guide3340" />
    <sodipodi:guide
       position="190,475.00001"
       orientation="1,0"
       id="guide3344" />
    <sodipodi:guide
       position="590,451.00001"
       orientation="1,0"
       id="guide3346" />
    <inkscape:grid
       type="xygrid"
       id="grid3440" />
  </sodipodi:namedview>
  <metadata
     id="metadata7">
    <rdf:RDF>
      <cc:Work
         rdf:about="">
        <dc:format>image/svg+xml</dc:format>
        <dc:type
           rdf:resource="http://purl.org/dc/dcmitype/StillImage" />
        <dc:title>entity affiliation</dc:title>
        <dc:date>June 2015</dc:date>
        <dc:creator>
          <cc:Agent>
            <dc:title>Johannes Hechler</dc:title>
          </cc:Agent>
        </dc:creator>
        <dc:rights>
          <cc:Agent>
            <dc:title>Johannes Hechler</dc:title>
          </cc:Agent>
        </dc:rights>
        <dc:publisher>
          <cc:Agent>
            <dc:title>RRZE</dc:title>
          </cc:Agent>
        </dc:publisher>
        <dc:contributor>
          <cc:Agent>
            <dc:title>Ute Weber, Hendrik Eggers</dc:title>
          </cc:Agent>
        </dc:contributor>
      </cc:Work>
    </rdf:RDF>
  </metadata>
  <g
     inkscape:label="Ebene 1"
     inkscape:groupmode="layer"
     id="layer1">
    <rect
       style="opacity:1;fill:none;fill-opacity:1;stroke:none;stroke-width:23;stroke-linecap:butt;stroke-linejoin:round;stroke-miterlimit:4;stroke-dasharray:none;stroke-opacity:1"
       id="rect4160"
       width="400"
       height="400"
       x="190"
       y="322.36221" />
    <path
       sodipodi:nodetypes="ssssssssssssssscccc"
       inkscape:connector-curvature="0"
       style="color:#000000;clip-rule:nonzero;display:inline;overflow:visible;visibility:visible;opacity:1;isolation:auto;mix-blend-mode:normal;color-interpolation:sRGB;color-interpolation-filters:linearRGB;solid-color:#000000;solid-opacity:1;fill:url(#linearGradient4231);fill-opacity:1;fill-rule:evenodd;stroke:none;stroke-width:36;stroke-linecap:butt;stroke-linejoin:miter;stroke-miterlimit:4;stroke-dasharray:none;stroke-dashoffset:0;stroke-opacity:1;color-rendering:auto;image-rendering:auto;shape-rendering:auto;text-rendering:auto;enable-background:accumulate"
       d="m 251.80072,347.28369 c -20.71068,0 -37.5,16.78932 -37.5,37.5 0,20.71068 16.78932,37.5 37.5,37.5 20.71068,0 37.5,-16.78932 37.5,-37.5 0,-20.71068 -16.78932,-37.5 -37.5,-37.5 z m 275,0 c -20.71068,0 -37.5,16.78932 -37.5,37.5 0,20.71068 16.78932,37.5 37.5,37.5 20.71068,0 37.5,-16.78932 37.5,-37.5 0,-20.71068 -16.78932,-37.5 -37.5,-37.5 z m -275,275 c -20.71068,0 -37.5,16.78932 -37.5,37.5 0,20.71068 16.78932,37.5 37.5,37.5 20.71068,0 37.5,-16.78932 37.5,-37.5 0,-20.71068 -16.78932,-37.5 -37.5,-37.5 z M 511.3847,693.9165 c 0.0527,0.0236 0.10542,0.047 0.15821,0.0703 0.0714,-0.018 0.14551,-0.0326 0.21679,-0.0508 -0.12474,-0.005 -0.25019,-0.0143 -0.375,-0.0195 z"
       id="path4187" />
    <path
       style="color:#000000;clip-rule:nonzero;display:inline;overflow:visible;visibility:visible;opacity:1;isolation:auto;mix-blend-mode:normal;color-interpolation:sRGB;color-interpolation-filters:linearRGB;solid-color:#000000;solid-opacity:1;fill:#4e505d;fill-opacity:1;fill-rule:evenodd;stroke:none;stroke-width:36;stroke-linecap:butt;stroke-linejoin:miter;stroke-miterlimit:4;stroke-dasharray:none;stroke-dashoffset:0;stroke-opacity:1;color-rendering:auto;image-rendering:auto;shape-rendering:auto;text-rendering:auto;enable-background:accumulate"
       d="m 314.30072,372.28369 0,25 150,0 0,-25 -150,0 z m -75,75 0,150 25,0 0,-150 -25,0 z m 275,0 0,13.1582 c 8.34796,3.08312 16.69796,6.72607 25,10.93555 l 0,-24.09375 -25,0 z m 0,67.5 0,18.29297 c 5.70529,3.47458 11.35627,7.20285 16.93164,11.17773 a 25.0025,25.0025 0 0 1 8.06836,9.72071 l 0,-24.74414 c -8.32442,-5.62261 -16.68885,-10.42567 -25,-14.44727 z m -200,132.5 0,25 0.32227,0 -0.0606,-25 -0.26167,0 z m 50.26367,0 0.0195,8.26758 a 25.0025,25.0025 0 0 1 17.67969,4.74023 c 5.9729,4.43355 11.98224,8.4187 17.99219,11.99219 l 33.38672,0 c -12.01107,-6.02708 -23.88309,-13.21191 -35.43164,-21.44531 a 25.0025,25.0025 0 0 1 -3.9531,-3.55469 l -29.69336,0 z"
       id="rect4195"
       inkscape:connector-curvature="0" />
    <path
       style="display:block;overflow:visible;visibility:visible;fill:#99b000;fill-opacity:1;fill-rule:nonzero;stroke:none;stroke-width:6;stroke-linecap:square;stroke-linejoin:miter;stroke-miterlimit:4;stroke-dasharray:none;stroke-dashoffset:0;stroke-opacity:1;marker:none;marker-start:none;marker-mid:none;marker-end:none"
       sodipodi:nodetypes="cccccccc"
       inkscape:r_cy="true"
       inkscape:r_cx="true"
       id="path4196-4"
       d="M 343.07943,594.77029 C 316.5984,479.77867 449.4867,431.15074 562.08042,514.72667 l 27.64737,-30.36639 0.26941,112.94984 -103.07311,0.33788 29.79518,-33.0377 C 437.55825,508.17347 341.00031,509.55248 343.0795,594.77032 Z"
       inkscape:connector-curvature="0" />
    <path
       style="display:block;overflow:visible;visibility:visible;fill:#99b000;fill-opacity:1;fill-rule:nonzero;stroke:none;stroke-width:6;stroke-linecap:square;stroke-linejoin:miter;stroke-miterlimit:4;stroke-dasharray:none;stroke-dashoffset:0;stroke-opacity:1;marker:none;marker-start:none;marker-mid:none;marker-end:none"
       sodipodi:nodetypes="cccccccc"
       inkscape:r_cy="true"
       inkscape:r_cx="true"
       id="path4198-5"
       d="m 586.36321,600.3203 c 26.48104,114.99161 -106.40724,163.61955 -219.00097,80.04362 l -27.64736,30.3664 -0.26941,-112.94985 103.0731,-0.33787 -29.79517,33.0377 c 79.161,56.43681 175.71895,55.05782 173.63975,-30.16003 z"
       inkscape:connector-curvature="0" />
  </g>
</svg>
