<?xml version="1.0" encoding="UTF-8" standalone="no"?>
<!-- Created with Inkscape (http://www.inkscape.org/) -->

<svg
   xmlns:dc="http://purl.org/dc/elements/1.1/"
   xmlns:cc="http://creativecommons.org/ns#"
   xmlns:rdf="http://www.w3.org/1999/02/22-rdf-syntax-ns#"
   xmlns:svg="http://www.w3.org/2000/svg"
   xmlns="http://www.w3.org/2000/svg"
   xmlns:sodipodi="http://sodipodi.sourceforge.net/DTD/sodipodi-0.dtd"
   xmlns:inkscape="http://www.inkscape.org/namespaces/inkscape"
   width="210mm"
   height="297mm"
   viewBox="0 0 744.09448819 1052.3622047"
   id="svg2"
   version="1.1"
   inkscape:version="0.91 r13725"
   sodipodi:docname="FAU-org.svg"
   inkscape:export-filename="D:\Dokumente\Arbeit\RRZE\github\bicons\16x16\emblems\fau-org.png"
   inkscape:export-xdpi="3.5977986"
   inkscape:export-ydpi="3.5977986">
  <title
     id="title4200">fau-org</title>
  <defs
     id="defs4">
    <linearGradient
       id="linearGradient2224">
      <stop
         id="stop2226"
         offset="0"
         style="stop-color:#7c7c7c;stop-opacity:1;" />
      <stop
         id="stop2228"
         offset="1"
         style="stop-color:#b8b8b8;stop-opacity:1;" />
    </linearGradient>
    <linearGradient
       id="linearGradient15218">
      <stop
         id="stop15220"
         offset="0"
         style="stop-color:#eeeeef;stop-opacity:1;" />
      <stop
         id="stop2736"
         offset="0.59928656"
         style="stop-color:#d3d7cf;stop-opacity:1;" />
      <stop
         id="stop2738"
         offset="0.82758623"
         style="stop-color:#ffffff;stop-opacity:1;" />
      <stop
         id="stop15222"
         offset="1"
         style="stop-color:#d3d7cf;stop-opacity:1;" />
    </linearGradient>
    <pattern
       y="0"
       x="0"
       height="6"
       width="6"
       patternUnits="userSpaceOnUse"
       id="EMFhbasepattern" />
    <pattern
       y="0"
       x="0"
       height="6"
       width="6"
       patternUnits="userSpaceOnUse"
       id="EMFhbasepattern-5" />
  </defs>
  <sodipodi:namedview
     id="base"
     pagecolor="#ffffff"
     bordercolor="#666666"
     borderopacity="1.0"
     inkscape:pageopacity="0.0"
     inkscape:pageshadow="2"
     inkscape:zoom="0.70710678"
     inkscape:cx="-87.325281"
     inkscape:cy="612.26821"
     inkscape:document-units="px"
     inkscape:current-layer="layer1"
     showgrid="false"
     showguides="true"
     inkscape:guide-bbox="true"
     inkscape:window-width="1600"
     inkscape:window-height="837"
     inkscape:window-x="-4"
     inkscape:window-y="-4"
     inkscape:window-maximized="1">
    <sodipodi:guide
       position="560,730.00002"
       orientation="0,1"
       id="guide3338" />
    <sodipodi:guide
       position="560,330.00001"
       orientation="0,1"
       id="guide3340" />
    <sodipodi:guide
       position="190,475.00001"
       orientation="1,0"
       id="guide3344" />
    <sodipodi:guide
       position="590,451.00001"
       orientation="1,0"
       id="guide3346" />
    <inkscape:grid
       type="xygrid"
       id="grid3440" />
    <sodipodi:guide
       position="215,442.00001"
       orientation="1,0"
       id="guide4155" />
    <sodipodi:guide
       position="564.97832,467.39759"
       orientation="1,0"
       id="guide4157" />
  </sodipodi:namedview>
  <metadata
     id="metadata7">
    <rdf:RDF>
      <cc:Work
         rdf:about="">
        <dc:format>image/svg+xml</dc:format>
        <dc:type
           rdf:resource="http://purl.org/dc/dcmitype/StillImage" />
        <dc:title>fau-org</dc:title>
        <dc:date>Sep 2015</dc:date>
        <dc:creator>
          <cc:Agent>
            <dc:title>Johannes Hechler</dc:title>
          </cc:Agent>
        </dc:creator>
        <dc:rights>
          <cc:Agent>
            <dc:title>Johannes Hechler</dc:title>
          </cc:Agent>
        </dc:rights>
        <dc:publisher>
          <cc:Agent>
            <dc:title>RRZE</dc:title>
          </cc:Agent>
        </dc:publisher>
        <dc:contributor>
          <cc:Agent>
            <dc:title>Ute Weber, Hendrik Eggers</dc:title>
          </cc:Agent>
        </dc:contributor>
        <dc:subject>
          <rdf:Bag />
        </dc:subject>
      </cc:Work>
    </rdf:RDF>
  </metadata>
  <g
     inkscape:label="Ebene 1"
     inkscape:groupmode="layer"
     id="layer1">
    <g
       id="g4189">
      <path
         inkscape:connector-curvature="0"
         id="rect4237"
         d="m 214.48112,548.06642 c -13.63008,0 -24.60351,10.97341 -24.60351,24.60351 l 0,124.99024 c 0,13.6301 10.97343,24.60351 24.60351,24.60351 l 103.42774,0 c -1.52283,-1.04584 -2.51953,-2.79777 -2.51953,-4.79297 l 0,-11.81445 c 0,-3.22047 2.59203,-5.8125 5.8125,-5.8125 l 13.29883,0 c 3.22047,0 5.81445,2.59203 5.81445,5.8125 l 0,11.81445 c 0,1.9952 -0.99613,3.74713 -2.51953,4.79297 l 107.39453,0 c -2.29264,-0.77771 -3.93555,-2.93771 -3.93555,-5.5 l 0,-11.81445 c 0,-3.22047 2.59203,-5.8125 5.8125,-5.8125 l 13.29883,0 c 3.22047,0 5.8125,2.59203 5.8125,5.8125 l 0,11.81445 c 0,2.56229 -1.64291,4.72229 -3.93555,5.5 l 103.10157,0 c 13.6301,0 24.60351,-10.97341 24.60351,-24.60351 l 0,-124.99024 c 0,-13.6301 -10.97341,-24.60351 -24.60351,-24.60351 l -99.16602,0 0,12.30273 c 0,6.81503 -5.48575,12.30078 -12.30078,12.30078 l -0.92383,0 c -6.81503,0 -12.30078,-5.48575 -12.30078,-12.30078 l 0,-12.30273 -100.33789,0 0,12.30273 c 0,6.81505 -5.48769,12.30078 -12.30273,12.30078 l -0.32227,0 c -6.81505,0 -12.30078,-5.48573 -12.30078,-12.30078 l 0,-12.30273 -100.90821,0 z"
         style="color:#000000;clip-rule:nonzero;display:inline;overflow:visible;visibility:visible;opacity:1;isolation:auto;mix-blend-mode:normal;color-interpolation:sRGB;color-interpolation-filters:linearRGB;solid-color:#000000;solid-opacity:1;fill:#4e505d;fill-opacity:1;fill-rule:evenodd;stroke:none;stroke-width:50;stroke-linecap:butt;stroke-linejoin:round;stroke-miterlimit:4;stroke-dasharray:none;stroke-dashoffset:0;stroke-opacity:1;color-rendering:auto;image-rendering:auto;shape-rendering:auto;text-rendering:auto;enable-background:accumulate" />
      <rect
         y="322.48038"
         x="190.12239"
         height="400"
         width="400"
         id="rect4160"
         style="opacity:1;fill:none;fill-opacity:1;stroke:none;stroke-width:23;stroke-linecap:butt;stroke-linejoin:round;stroke-miterlimit:4;stroke-dasharray:none;stroke-opacity:1" />
      <g
         id="g4234">
        <path
           inkscape:connector-curvature="0"
           style="fill:#4e505d;stroke:none"
           d="m 215.12959,322.24402 0,150.65183 38.23633,0 0,-61.27161 62.25092,0 -22.48228,61.37617 38.12094,0 11.13679,-31.91869 49.32729,0 10.60226,31.87412 39.23581,0 -56.21842,-150.51129 -38.16677,0 -22.27525,60.80029 -71.47699,0 0,-33.74575 62.23341,0 0,-27.05111 z m 313.9374,0.0634 0,104.85538 c -6.02175,24.17372 -44.29091,27.05753 -52.50221,-1.07121 l 0,-103.64876 -35.79619,0.13368 0,105.38841 c 4.22207,24.89415 15.47125,36.98739 35.79619,44.86237 l 53.03334,0 c 27.3857,-12.25874 31.64793,-26.86466 35.53147,-41.9161 l 0,-108.60377 z m -162.29019,36.82228 16.97752,58.31335 -34.5303,-0.0669 17.55278,-58.24651 z"
           id="path3778"
           sodipodi:nodetypes="ccccccccccccccccccccccccccccccccccc" />
        <path
           inkscape:connector-curvature="0"
           style="color:#252525;clip-rule:nonzero;display:inline;overflow:visible;visibility:visible;opacity:1;isolation:auto;mix-blend-mode:normal;color-interpolation:sRGB;color-interpolation-filters:linearRGB;solid-color:#252525;solid-opacity:1;fill:#ffffff;fill-opacity:1;fill-rule:nonzero;stroke:none;stroke-width:10;stroke-linecap:butt;stroke-linejoin:bevel;stroke-miterlimit:4;stroke-dasharray:none;stroke-dashoffset:60.95968628;stroke-opacity:1;color-rendering:auto;image-rendering:auto;shape-rendering:auto;text-rendering:auto;enable-background:accumulate"
           d="m 215.12959,332.95786 0,5.66285 100.52403,0 0,-5.66285 z m 128.1909,0 -2.07362,5.66285 50.13503,0 -2.11604,-5.66285 z m 97.4481,0 0,5.66285 35.79619,0 0,-5.66285 z m 88.2984,0 0,5.66285 36.0626,0 0,-5.66285 z m -313.9374,17.08111 0,5.66286 38.29063,0 0,-5.66286 z m 121.93272,0 -2.07361,5.66286 62.77187,0 -2.11435,-5.66286 z m 103.70628,0 0,5.66286 35.79619,0 0,-5.66286 z m 88.2984,0 0,5.66286 36.0626,0 0,-5.66286 z m -313.9374,13.49899 0,5.66286 38.29063,0 0,-5.66286 z m 116.98794,0 -2.07531,5.66286 33.69882,0 1.70708,-5.66286 z m 35.94213,0 1.64939,5.66286 33.09471,0 -2.11603,-5.66286 z m 72.70893,0 0,5.66286 35.79619,0 0,-5.66286 z m 88.2984,0 0,5.66286 36.0626,0 0,-5.66286 z m -313.9374,13.81949 0,5.66286 38.29063,0 0,-5.66286 z m 111.92438,0 -2.07531,5.66286 34.59817,0 1.70709,-5.66286 z m 45.02904,0 1.6494,5.66286 34.23333,0 -2.11604,-5.66286 z m 68.68558,0 0,5.66286 35.79619,0 0,-5.66286 z m 88.2984,0 0,5.66286 36.0626,0 0,-5.66286 z m -313.9374,17.50961 0,5.66456 139.16987,0 1.70708,-5.66456 z m 162.05262,0 1.64769,5.66456 35.67571,0 -2.11604,-5.66456 z m 63.58638,0 0,5.66456 35.79619,0 0,-5.66456 z m 88.2984,0 0,5.66456 36.0626,0 0,-5.66456 z m -313.9374,16.4761 0,5.66285 38.23633,0 0,-5.38177 62.25092,0 -1.9718,5.38177 35.69098,0 1.70539,-5.66285 z m 166.84807,0 1.64939,5.66285 37.03323,0 -2.11604,-5.66285 z m 58.79093,0 0,5.66285 35.79619,0 0,-5.66285 z m 88.2984,0 0,5.66285 36.0626,0 0,-5.66285 z m -313.9374,13.90004 0,5.66286 38.23633,0 0,-5.66286 z m 95.49835,0 -2.07362,5.66286 117.29679,0 -2.11434,-5.66286 z m 130.14065,0 0,2.72174 c 0.17019,1.00343 0.35495,1.97872 0.5481,2.94112 l 37.07905,0 c -0.71284,-1.4906 -1.32874,-3.09406 -1.83096,-4.81446 l 0,-0.8484 z m 88.2984,0 0,1.91961 c -0.32686,1.31213 -0.7539,2.55813 -1.2608,3.74325 l 37.3234,0 0,-5.66286 z m -313.9374,15.70311 0,5.66286 38.23633,0 0,-5.66286 z m 89.74585,0 -2.07362,5.66286 37.66109,0 1.92938,-5.52745 49.32729,0 1.83776,5.52745 38.15997,0 -2.11604,-5.66286 z m 139.11897,0 c 0.68712,1.99314 1.44842,3.87673 2.28064,5.66286 l 113.58904,0 c 0.90125,-1.86977 1.65285,-3.76001 2.32307,-5.66286 l -42.44805,0 c -9.38723,6.82781 -23.33977,7.2869 -33.16259,0 z m -228.86482,15.18722 0,5.66286 38.23633,0 0,-5.66286 z m 84.1834,0 -2.07362,5.66286 37.9258,0 1.9752,-5.66286 z m 97.41246,0 1.88526,5.66286 38.77935,0 -2.11604,-5.66286 z m 55.39034,0 c 1.6303,2.0505 3.41689,3.93381 5.37409,5.66286 l 90.4348,0 c 2.21178,-1.85442 4.10362,-3.74478 5.74232,-5.66286 z"
           id="rect4369"
           sodipodi:nodetypes="cccccccccccccccccccccccccccccccccccccccccccccccccccccccccccccccccccccccccccccccccccccccccccccccccccccccccccccccccccccccccccccccccccccccccccccccccccccccccccccccccccccccccccccccccccccccccccccccccccccc" />
      </g>
      <path
         d="m 215.02761,636.94172 q 0,-18.33587 4.78038,-30.77807 3.56744,-9.16793 9.70344,-16.45317 6.20734,-7.28524 13.55627,-10.80507 9.77479,-4.74768 22.54623,-4.74768 23.11701,0 36.95869,16.45318 13.91302,16.45316 13.91302,45.75782 0,29.05908 -13.77033,45.51224 -13.77032,16.37132 -36.81598,16.37132 -23.33107,0 -37.10139,-16.28945 -13.77033,-16.37132 -13.77033,-45.02112 z m 21.76139,-0.81857 q 0,20.38229 8.20512,30.94178 8.20511,10.47765 20.83386,10.47765 12.62874,0 20.69116,-10.39578 8.13375,-10.47765 8.13375,-31.35107 0,-20.62786 -7.91971,-30.77807 -7.84837,-10.15022 -20.9052,-10.15022 -13.05684,0 -21.0479,10.31393 -7.99108,10.23207 -7.99108,30.94178 z"
         style="font-style:normal;font-variant:normal;font-weight:bold;font-stretch:normal;font-size:medium;line-height:125%;font-family:arial;-inkscape-font-specification:'arial Bold';text-align:center;letter-spacing:0px;word-spacing:0px;text-anchor:middle;fill:#ffffff;fill-opacity:1;stroke:none;stroke-width:1px;stroke-linecap:butt;stroke-linejoin:miter;stroke-opacity:1"
         id="path4210"
         inkscape:connector-curvature="0" />
      <path
         d="m 341.62916,697.97358 0,-123.39225 48.90664,0 q 18.44793,0 26.76912,3.36678 8.3997,3.28259 13.42382,11.78369 5.02411,8.50111 5.02411,19.44313 0,13.88794 -7.61467,22.97822 -7.61468,9.00613 -22.76553,11.36287 7.53617,4.71348 12.40329,10.35283 4.94561,5.63934 13.2668,20.0323 l 14.05183,24.07243 -27.78965,0 -16.79939,-26.85001 q -8.9492,-14.39297 -12.24628,-18.09641 -3.29708,-3.78763 -6.98666,-5.13433 -3.68959,-1.43088 -11.69678,-1.43088 l -4.71011,0 0,51.51163 -23.23654,0 z m 23.23654,-71.20726 17.1919,0 q 16.72089,0 20.88149,-1.51506 4.1606,-1.51504 6.51565,-5.21849 2.35506,-3.70345 2.35506,-9.25862 0,-6.22853 -3.14008,-10.01616 -3.06157,-3.87179 -8.7137,-4.88181 -2.82607,-0.42086 -16.95639,-0.42086 l -18.13393,0 0,31.311 z"
         style="font-style:normal;font-variant:normal;font-weight:bold;font-stretch:normal;font-size:medium;line-height:125%;font-family:arial;-inkscape-font-specification:'arial Bold';text-align:center;letter-spacing:0px;word-spacing:0px;text-anchor:middle;fill:#ffffff;fill-opacity:1;stroke:none;stroke-width:1px;stroke-linecap:butt;stroke-linejoin:miter;stroke-opacity:1"
         id="path4212"
         inkscape:connector-curvature="0" />
      <path
         sodipodi:nodetypes="cccccsccsscsccccscscscccc"
         d="m 516.43359,648.08519 0,-22.21857 48.08417,0 0,53.80423 c -4.86711,4.91139 -11.93228,9.24979 -21.19549,13.0152 -9.21089,3.71083 -18.55261,5.56624 -28.02516,5.56624 -12.03695,0 -22.53002,-2.61941 -31.47923,-7.85824 -8.94921,-5.29338 -15.6742,-12.82418 -20.17497,-22.5924 -4.50077,-9.82279 -6.75116,-20.49143 -6.75116,-32.00592 0,-12.49677 2.51206,-23.60198 7.53618,-33.31563 5.02411,-9.71364 12.37712,-17.16259 22.05901,-22.34684 7.37917,-3.98369 16.56389,-5.97553 27.55414,-5.97553 14.28733,0 25.43459,3.13784 33.44178,9.41351 8.05952,6.2211 13.24064,10.84333 15.54337,21.86668 l -23.07954,0.50211 c -1.62237,-5.89368 -5.18395,-5.03222 -9.68472,-8.41562 -4.44843,-3.43798 -9.52206,-2.65697 -16.22089,-2.65697 -10.1529,0 -18.23859,3.35612 -24.25706,10.06837 -5.96614,6.71223 -8.94921,16.67145 -8.94921,29.87764 0,14.24304 3.0354,24.93896 9.10621,32.08777 6.07081,7.09424 14.02567,10.64136 23.86456,10.64136 4.86711,0 9.73423,-0.98228 14.60134,-2.94684 4.91945,-2.01913 9.13238,-4.44754 12.63879,-7.28523 l 0,-19.22532 z"
         style="font-style:normal;font-variant:normal;font-weight:bold;font-stretch:normal;font-size:medium;line-height:125%;font-family:arial;-inkscape-font-specification:'arial Bold';text-align:center;letter-spacing:0px;word-spacing:0px;text-anchor:middle;fill:#ffffff;fill-opacity:1;stroke:none;stroke-width:1px;stroke-linecap:butt;stroke-linejoin:miter;stroke-opacity:1"
         id="path4214"
         inkscape:connector-curvature="0" />
      <rect
         ry="12.5"
         y="497.58276"
         x="240.40024"
         height="25"
         width="299.91891"
         id="rect4219"
         style="color:#000000;clip-rule:nonzero;display:inline;overflow:visible;visibility:visible;opacity:1;isolation:auto;mix-blend-mode:normal;color-interpolation:sRGB;color-interpolation-filters:linearRGB;solid-color:#000000;solid-opacity:1;fill:#4e505d;fill-opacity:1;fill-rule:evenodd;stroke:none;stroke-width:6.9000001;stroke-linecap:butt;stroke-linejoin:round;stroke-miterlimit:4;stroke-dasharray:none;stroke-dashoffset:0;stroke-opacity:1;color-rendering:auto;image-rendering:auto;shape-rendering:auto;text-rendering:auto;enable-background:accumulate" />
      <rect
         ry="12.49323"
         y="472.58606"
         x="365.66382"
         height="49.996719"
         width="24.98646"
         id="rect4221"
         style="color:#000000;clip-rule:nonzero;display:inline;overflow:visible;visibility:visible;opacity:1;isolation:auto;mix-blend-mode:normal;color-interpolation:sRGB;color-interpolation-filters:linearRGB;solid-color:#000000;solid-opacity:1;fill:#4e505d;fill-opacity:1;fill-rule:evenodd;stroke:none;stroke-width:6.9000001;stroke-linecap:butt;stroke-linejoin:round;stroke-miterlimit:4;stroke-dasharray:none;stroke-dashoffset:0;stroke-opacity:1;color-rendering:auto;image-rendering:auto;shape-rendering:auto;text-rendering:auto;enable-background:accumulate" />
      <rect
         rx="0"
         ry="12.493226"
         y="497.58276"
         x="365.66382"
         height="75.032013"
         width="24.986452"
         id="rect4223"
         style="color:#000000;clip-rule:nonzero;display:inline;overflow:visible;visibility:visible;opacity:1;isolation:auto;mix-blend-mode:normal;color-interpolation:sRGB;color-interpolation-filters:linearRGB;solid-color:#000000;solid-opacity:1;fill:#4e505d;fill-opacity:1;fill-rule:evenodd;stroke:none;stroke-width:6.9000001;stroke-linecap:butt;stroke-linejoin:round;stroke-miterlimit:4;stroke-dasharray:none;stroke-dashoffset:0;stroke-opacity:1;color-rendering:auto;image-rendering:auto;shape-rendering:auto;text-rendering:auto;enable-background:accumulate" />
      <rect
         ry="12.51558"
         y="497.58276"
         x="240.40024"
         height="75.031982"
         width="25.03116"
         id="rect4225"
         style="color:#000000;clip-rule:nonzero;display:inline;overflow:visible;visibility:visible;opacity:1;isolation:auto;mix-blend-mode:normal;color-interpolation:sRGB;color-interpolation-filters:linearRGB;solid-color:#000000;solid-opacity:1;fill:#4e505d;fill-opacity:1;fill-rule:evenodd;stroke:none;stroke-width:6.9000001;stroke-linecap:butt;stroke-linejoin:round;stroke-miterlimit:4;stroke-dasharray:none;stroke-dashoffset:0;stroke-opacity:1;color-rendering:auto;image-rendering:auto;shape-rendering:auto;text-rendering:auto;enable-background:accumulate" />
      <rect
         ry="12.14696"
         y="497.58276"
         x="516.02527"
         height="75.031982"
         width="24.293921"
         id="rect4227"
         style="color:#000000;clip-rule:nonzero;display:inline;overflow:visible;visibility:visible;opacity:1;isolation:auto;mix-blend-mode:normal;color-interpolation:sRGB;color-interpolation-filters:linearRGB;solid-color:#000000;solid-opacity:1;fill:#4e505d;fill-opacity:1;fill-rule:evenodd;stroke:none;stroke-width:6.9000001;stroke-linecap:butt;stroke-linejoin:round;stroke-miterlimit:4;stroke-dasharray:none;stroke-dashoffset:0;stroke-opacity:1;color-rendering:auto;image-rendering:auto;shape-rendering:auto;text-rendering:auto;enable-background:accumulate" />
    </g>
  </g>
</svg>
