<?xml version="1.0" encoding="UTF-8" standalone="no"?>
<!-- Created with Inkscape (http://www.inkscape.org/) -->

<svg
   xmlns:dc="http://purl.org/dc/elements/1.1/"
   xmlns:cc="http://creativecommons.org/ns#"
   xmlns:rdf="http://www.w3.org/1999/02/22-rdf-syntax-ns#"
   xmlns:svg="http://www.w3.org/2000/svg"
   xmlns="http://www.w3.org/2000/svg"
   xmlns:xlink="http://www.w3.org/1999/xlink"
   xmlns:sodipodi="http://sodipodi.sourceforge.net/DTD/sodipodi-0.dtd"
   xmlns:inkscape="http://www.inkscape.org/namespaces/inkscape"
   width="210mm"
   height="297mm"
   viewBox="0 0 744.09448819 1052.3622047"
   id="svg2"
   version="1.1"
   inkscape:version="0.91 r13725"
   inkscape:export-xdpi="3.5902052"
   inkscape:export-ydpi="3.5902052"
   sodipodi:docname="footnote-edit.svg"
   inkscape:export-filename="C:\Users\johannes\Documents\Arbeit\RRZE\github3\bicons\16x16\emblems\footnote-edit.png">
  <defs
     id="defs4">
    <linearGradient
       id="linearGradient2224">
      <stop
         id="stop2226"
         offset="0"
         style="stop-color:#7c7c7c;stop-opacity:1;" />
      <stop
         id="stop2228"
         offset="1"
         style="stop-color:#b8b8b8;stop-opacity:1;" />
    </linearGradient>
    <linearGradient
       id="linearGradient15218">
      <stop
         id="stop15220"
         offset="0"
         style="stop-color:#eeeeef;stop-opacity:1;" />
      <stop
         id="stop2736"
         offset="0.59928656"
         style="stop-color:#d3d7cf;stop-opacity:1;" />
      <stop
         id="stop2738"
         offset="0.82758623"
         style="stop-color:#ffffff;stop-opacity:1;" />
      <stop
         id="stop15222"
         offset="1"
         style="stop-color:#d3d7cf;stop-opacity:1;" />
    </linearGradient>
    <pattern
       y="0"
       x="0"
       height="6"
       width="6"
       patternUnits="userSpaceOnUse"
       id="EMFhbasepattern" />
    <pattern
       y="0"
       x="0"
       height="6"
       width="6"
       patternUnits="userSpaceOnUse"
       id="EMFhbasepattern-5" />
    <linearGradient
       inkscape:collect="always"
       xlink:href="#linearGradient4214"
       id="linearGradient4220"
       x1="543.8963"
       y1="349.86026"
       x2="243.0625"
       y2="263.67542"
       gradientUnits="userSpaceOnUse"
       gradientTransform="matrix(-0.75563233,0.47077362,0.46849831,0.75198026,592.95375,117.87094)" />
    <linearGradient
       inkscape:collect="always"
       id="linearGradient4214">
      <stop
         style="stop-color:#4e505d;stop-opacity:1;"
         offset="0"
         id="stop4216" />
      <stop
         style="stop-color:#7a8597;stop-opacity:1"
         offset="1"
         id="stop4218" />
    </linearGradient>
  </defs>
  <sodipodi:namedview
     id="base"
     pagecolor="#ffffff"
     bordercolor="#666666"
     borderopacity="1.0"
     inkscape:pageopacity="0.0"
     inkscape:pageshadow="2"
     inkscape:zoom="0.70710678"
     inkscape:cx="493.67509"
     inkscape:cy="489.46086"
     inkscape:document-units="px"
     inkscape:current-layer="g4191"
     showgrid="false"
     showguides="true"
     inkscape:guide-bbox="true"
     inkscape:window-width="1366"
     inkscape:window-height="721"
     inkscape:window-x="-4"
     inkscape:window-y="-4"
     inkscape:window-maximized="1"
     inkscape:snap-bbox="true"
     inkscape:bbox-paths="true"
     inkscape:bbox-nodes="true">
    <sodipodi:guide
       position="560,730.00002"
       orientation="0,1"
       id="guide3338" />
    <sodipodi:guide
       position="560,330.00001"
       orientation="0,1"
       id="guide3340" />
    <sodipodi:guide
       position="190,475.00001"
       orientation="1,0"
       id="guide3344" />
    <sodipodi:guide
       position="590,451.00001"
       orientation="1,0"
       id="guide3346" />
    <inkscape:grid
       type="xygrid"
       id="grid3440" />
  </sodipodi:namedview>
  <metadata
     id="metadata7">
    <rdf:RDF>
      <cc:Work
         rdf:about="">
        <dc:format>image/svg+xml</dc:format>
        <dc:type
           rdf:resource="http://purl.org/dc/dcmitype/StillImage" />
        <dc:title>footnote edit</dc:title>
        <dc:date>June 2015</dc:date>
        <dc:creator>
          <cc:Agent>
            <dc:title>Johannes Hechler</dc:title>
          </cc:Agent>
        </dc:creator>
        <dc:rights>
          <cc:Agent>
            <dc:title>Johannes Hechler</dc:title>
          </cc:Agent>
        </dc:rights>
        <dc:publisher>
          <cc:Agent>
            <dc:title>RRZE</dc:title>
          </cc:Agent>
        </dc:publisher>
        <dc:contributor>
          <cc:Agent>
            <dc:title>Ute Weber, Hendrik Eggers</dc:title>
          </cc:Agent>
        </dc:contributor>
      </cc:Work>
    </rdf:RDF>
  </metadata>
  <g
     inkscape:label="Ebene 1"
     inkscape:groupmode="layer"
     id="layer1">
    <rect
       style="opacity:1;fill:none;fill-opacity:1;stroke:none;stroke-width:23;stroke-linecap:butt;stroke-linejoin:round;stroke-miterlimit:4;stroke-dasharray:none;stroke-opacity:1"
       id="rect4160"
       width="400"
       height="400"
       x="190"
       y="322.36221" />
    <g
       id="g4191"
       transform="matrix(-0.85287501,0.5313577,0.52878958,0.84875296,620.87312,66.413793)">
      <g
         id="g4184">
        <path
           id="rect4169"
           d="M 499.37411,-11.461455 161.51377,200.05438 372.00731,539.55555 709.86765,328.03972 Z"
           style="color:#000000;clip-rule:nonzero;display:inline;overflow:visible;visibility:visible;opacity:1;isolation:auto;mix-blend-mode:normal;color-interpolation:sRGB;color-interpolation-filters:linearRGB;solid-color:#000000;solid-opacity:1;fill:none;fill-opacity:1;fill-rule:nonzero;stroke:none;stroke-width:35;stroke-linecap:round;stroke-linejoin:round;stroke-miterlimit:4;stroke-dasharray:none;stroke-dashoffset:0;stroke-opacity:1;color-rendering:auto;image-rendering:auto;shape-rendering:auto;text-rendering:auto;enable-background:accumulate"
           inkscape:connector-curvature="0" />
        <path
           id="path4175"
           transform="matrix(-0.84465083,0.52878958,0.52623387,0.84875295,489.47181,-384.68014)"
           d="M 324.85547 339.44531 C 322.07266 339.34425 314.40484 341.1217 312.07617 342.57227 C 305.36283 346.75454 305.95808 359.98321 310.35156 367.03516 C 314.745 374.08561 323.74634 376.41156 330.45898 372.23047 C 337.17234 368.04819 340.82123 356.58711 336.42773 349.53516 C 333.71965 345.18909 329.80009 339.62509 324.85547 339.44531 z M 360.91797 342.73242 C 358.53524 342.66563 354.0832 344.70953 352.08008 345.95898 C 346.30505 349.55694 346.75664 357.89362 350.47266 363.85742 C 354.18829 369.82225 361.88305 371.74161 367.6582 368.14258 C 373.43324 364.54463 377.22382 355.14544 373.50781 349.18164 C 371.21781 345.50409 365.15179 342.85316 360.91797 342.73242 z M 394.90039 347.60938 C 393.31375 347.65179 391.78473 348.10555 390.45508 348.93359 C 386.07295 351.66356 384.90112 359.69933 387.83789 364.41406 C 390.77457 369.12833 397.52577 371.79904 401.9082 369.07031 C 406.29035 366.34032 410.64383 357.24402 407.70703 352.5293 C 405.89644 349.62252 398.83578 347.77137 395.58398 347.61719 C 395.35538 347.60636 395.12705 347.60332 394.90039 347.60938 z M 284.50586 355.63867 C 281.27454 355.53716 268.81243 356.85644 266.10156 358.54688 C 258.28411 363.41542 257.58755 383.01682 262.65234 391.15039 C 267.7198 399.28425 284.16529 397.92869 291.98242 393.05664 C 299.79788 388.18628 302.02665 377.64577 296.96094 369.51367 C 293.83848 364.50006 290.24795 355.82259 284.50586 355.63867 z M 377.58203 390.1543 C 358.40542 390.33548 329.99279 391.68342 308.03516 410.39062 C 240.74812 467.71709 279.84465 510.23296 316.74805 512.12695 C 353.65148 514.02095 365.1235 488.2313 398.91992 497.36719 C 419.04187 502.80657 440.0429 519.78294 448.04492 564.05078 L 468.35547 544.17969 A 17.958245 18.045461 58.076278 0 1 479.00977 539.12305 C 481.62641 538.83017 484.06538 538.8185 486.56445 538.71094 A 17.958245 18.045461 58.076278 0 1 490.87109 521.66992 L 493.33594 519.06445 C 489.14678 511.02318 486.39648 505.38281 486.39648 505.38281 C 486.39648 505.38281 460.38329 453.64563 441.5625 421.52539 C 429.79953 401.45025 409.54308 389.85234 377.58203 390.1543 z M 238.10156 393.86523 C 237.49623 393.85111 236.88855 393.85841 236.28125 393.88867 C 232.2093 394.09287 224.3174 395.3029 220.92383 397.41797 C 209.03315 404.82479 205.95239 425.35566 214.04102 438.33984 C 222.13035 451.32446 242.3267 455.84459 254.2168 448.43555 C 266.10516 441.02651 269.18515 420.49633 261.0957 407.51367 C 255.93077 399.2226 247.18155 394.07706 238.10156 393.86523 z M 491.20703 574.39258 C 490.47226 574.38556 489.49168 574.50918 488.69531 574.5332 L 449.20703 613.16602 C 449.22328 621.49601 450.22102 631.4838 454.00977 646.43359 C 454.71451 649.2144 455.60052 651.92371 456.64648 654.55273 L 512.78711 599.62891 C 512.3268 590.57553 510.53777 584.07043 508.36914 580.86523 C 505.67295 576.88031 502.99703 574.50498 491.20703 574.39258 z M 548.93359 603.79883 C 548.96459 604.99727 548.98861 606.19836 548.95508 607.41016 A 17.958245 18.045461 58.076278 0 1 543.5293 619.80469 L 478.25 683.67188 C 499.88973 701.30884 530.03626 705.77733 549.02734 686.18359 C 571.32528 663.17811 565.17218 631.26581 548.93359 603.79883 z "
           style="fill:url(#linearGradient4220);fill-opacity:1;fill-rule:evenodd;stroke:none;stroke-width:1px;stroke-linecap:butt;stroke-linejoin:miter;stroke-opacity:1" />
        <path
           id="path4230"
           d="m 295.83723,322.14666 48.97309,12.87647 c -32.41067,21.70781 -33.44433,40.52562 -15.92085,68.87712 l -48.97309,-12.87647 c -13.43518,-22.47502 -7.49103,-53.34607 15.92085,-68.87712 z m 71.32789,25.30799 c 2.73552,-1.7492 5.79061,-3.43964 9.18626,-5.06987 l 125.11856,27.75638 c -29.86327,19.64811 -33.09952,41.28665 -15.92085,68.87713 L 360.43054,411.26191 c -16.20444,-24.59284 -19.70905,-46.89861 6.73458,-63.80726 z m 165.41953,25.59308 29.4691,47.53017 -47.30045,29.61221 c -20.03998,-33.3104 -14.51879,-56.76213 17.83135,-77.14238 z"
           style="fill:#97ae00;fill-opacity:1;fill-rule:evenodd;stroke:none;stroke-width:1px;stroke-linecap:butt;stroke-linejoin:miter;stroke-opacity:1"
           inkscape:connector-curvature="0" />
      </g>
    </g>
  </g>
</svg>
