<?xml version="1.0" encoding="UTF-8" standalone="no"?>
<!-- Created with Inkscape (http://www.inkscape.org/) -->

<svg
   xmlns:dc="http://purl.org/dc/elements/1.1/"
   xmlns:cc="http://creativecommons.org/ns#"
   xmlns:rdf="http://www.w3.org/1999/02/22-rdf-syntax-ns#"
   xmlns:svg="http://www.w3.org/2000/svg"
   xmlns="http://www.w3.org/2000/svg"
   xmlns:xlink="http://www.w3.org/1999/xlink"
   xmlns:sodipodi="http://sodipodi.sourceforge.net/DTD/sodipodi-0.dtd"
   xmlns:inkscape="http://www.inkscape.org/namespaces/inkscape"
   width="210mm"
   height="297mm"
   viewBox="0 0 744.09448819 1052.3622047"
   id="svg2"
   version="1.1"
   inkscape:version="0.91 r13725"
   inkscape:export-xdpi="4"
   inkscape:export-ydpi="4"
   sodipodi:docname="globe.svg">
  <defs
     id="defs4">
    <linearGradient
       inkscape:collect="always"
       id="linearGradient4163">
      <stop
         style="stop-color:#4e505d;stop-opacity:1;"
         offset="0"
         id="stop4165" />
      <stop
         style="stop-color:#7a8597;stop-opacity:1"
         offset="1"
         id="stop4167" />
    </linearGradient>
    <linearGradient
       id="linearGradient2224">
      <stop
         id="stop2226"
         offset="0"
         style="stop-color:#7c7c7c;stop-opacity:1;" />
      <stop
         id="stop2228"
         offset="1"
         style="stop-color:#b8b8b8;stop-opacity:1;" />
    </linearGradient>
    <linearGradient
       id="linearGradient15218">
      <stop
         id="stop15220"
         offset="0"
         style="stop-color:#eeeeef;stop-opacity:1;" />
      <stop
         id="stop2736"
         offset="0.59928656"
         style="stop-color:#d3d7cf;stop-opacity:1;" />
      <stop
         id="stop2738"
         offset="0.82758623"
         style="stop-color:#ffffff;stop-opacity:1;" />
      <stop
         id="stop15222"
         offset="1"
         style="stop-color:#d3d7cf;stop-opacity:1;" />
    </linearGradient>
    <pattern
       y="0"
       x="0"
       height="6"
       width="6"
       patternUnits="userSpaceOnUse"
       id="EMFhbasepattern" />
    <pattern
       y="0"
       x="0"
       height="6"
       width="6"
       patternUnits="userSpaceOnUse"
       id="EMFhbasepattern-5" />
    <linearGradient
       inkscape:collect="always"
       xlink:href="#linearGradient4163"
       id="linearGradient4169"
       x1="189.10713"
       y1="722.18365"
       x2="589.04523"
       y2="374.95392"
       gradientUnits="userSpaceOnUse"
       gradientTransform="matrix(0.87451984,0,0,0.875,47.729088,66.224982)" />
  </defs>
  <sodipodi:namedview
     id="base"
     pagecolor="#ffffff"
     bordercolor="#666666"
     borderopacity="1.0"
     inkscape:pageopacity="0.0"
     inkscape:pageshadow="2"
     inkscape:zoom="0.70710678"
     inkscape:cx="2.8830522"
     inkscape:cy="406.57357"
     inkscape:document-units="px"
     inkscape:current-layer="layer1"
     showgrid="false"
     showguides="true"
     inkscape:guide-bbox="true"
     inkscape:window-width="1600"
     inkscape:window-height="837"
     inkscape:window-x="-4"
     inkscape:window-y="-4"
     inkscape:window-maximized="1">
    <sodipodi:guide
       position="315.53572,730.17859"
       orientation="0,1"
       id="guide3338" />
    <sodipodi:guide
       position="351.25,330.17858"
       orientation="0,1"
       id="guide3340" />
    <sodipodi:guide
       position="189.10714,408.8393"
       orientation="1,0"
       id="guide3344" />
    <sodipodi:guide
       position="589.04521,468.07945"
       orientation="1,0"
       id="guide3346" />
    <inkscape:grid
       type="xygrid"
       id="grid3440" />
    <sodipodi:guide
       position="589.04521,378.30213"
       orientation="1,0"
       id="guide3411" />
  </sodipodi:namedview>
  <metadata
     id="metadata7">
    <rdf:RDF>
      <cc:Work
         rdf:about="">
        <dc:format>image/svg+xml</dc:format>
        <dc:type
           rdf:resource="http://purl.org/dc/dcmitype/StillImage" />
        <dc:title>globe</dc:title>
        <dc:date>June 2015</dc:date>
        <dc:creator>
          <cc:Agent>
            <dc:title>Johannes Hechler</dc:title>
          </cc:Agent>
        </dc:creator>
        <dc:rights>
          <cc:Agent>
            <dc:title>Johannes Hechler</dc:title>
          </cc:Agent>
        </dc:rights>
        <dc:publisher>
          <cc:Agent>
            <dc:title>RRZE</dc:title>
          </cc:Agent>
        </dc:publisher>
        <dc:contributor>
          <cc:Agent>
            <dc:title>Ute Weber, Hendrik Eggers</dc:title>
          </cc:Agent>
        </dc:contributor>
      </cc:Work>
    </rdf:RDF>
  </metadata>
  <g
     inkscape:label="Ebene 1"
     inkscape:groupmode="layer"
     id="layer1">
    <g
       id="g4177">
      <flowRoot
         style="font-style:normal;font-weight:normal;font-size:40px;line-height:125%;font-family:sans-serif;letter-spacing:0px;word-spacing:0px;fill:#252525;fill-opacity:1;stroke:none;stroke-width:1px;stroke-linecap:butt;stroke-linejoin:miter;stroke-opacity:1"
         id="flowRoot4169"
         xml:space="preserve"><flowRegion
           id="flowRegion4171"><rect
             y="427.07962"
             x="89.541069"
             height="88.78862"
             width="56.433445"
             id="rect4173" /></flowRegion><flowPara
           id="flowPara4175" /></flowRoot>      <rect
         inkscape:export-ydpi="4.9499998"
         inkscape:export-xdpi="4.9499998"
         y="322.27005"
         x="189.14485"
         height="400"
         width="400"
         id="rect3336"
         style="fill:none;fill-rule:evenodd;stroke:none;stroke-width:1px;stroke-linecap:butt;stroke-linejoin:miter;stroke-opacity:1" />
      <path
         style="fill:url(#linearGradient4169);fill-opacity:1"
         d="m 548.84591,454.93028 c -18.45278,-43.04454 -49.8098,-74.34952 -93.18978,-92.86106 -21.68173,-9.25207 -44.20467,-13.97795 -67.93603,-13.97795 -23.72679,0 -46.27435,4.68124 -67.93203,13.97795 -43.02029,18.46232 -74.70845,49.74731 -93.19381,92.86106 -9.26298,21.59982 -13.7781,44.22894 -13.7781,67.96871 0,23.74447 4.51512,46.5612 13.7781,68.16549 18.48536,43.11382 50.17295,74.58644 93.19381,93.05331 21.65768,9.29676 44.20466,13.97348 67.93203,13.97348 23.73136,0 46.2543,-4.72592 67.93603,-13.97348 43.38056,-18.51201 74.73757,-50.01285 93.18978,-93.05331 9.29159,-21.6736 13.97025,-44.42102 13.97025,-68.16549 0,-23.73977 -4.67866,-46.29574 -13.97025,-67.96871 z M 329.54518,380.642 c -15.11748,19.14496 -26.2134,43.461 -33.29634,72.94813 l -45.73506,0 c 16.83947,-32.74242 45.16375,-58.97423 79.0314,-72.94813 z m -95.48824,142.25699 c 0,-16.65698 2.67815,-32.73833 7.84641,-48.2481 l 50.13635,0 c -2.48658,16.27301 -3.63724,32.35905 -3.63724,48.2481 0,15.70144 1.15121,31.59561 3.63724,47.86883 l -50.52012,0 c -4.97607,-15.50977 -7.46264,-31.59112 -7.46264,-47.86883 z m 16.45684,68.92937 45.73565,0 c 7.08294,30.05888 18.1794,54.75888 33.29633,73.71604 -34.44412,-14.36172 -62.76785,-40.5931 -79.03198,-73.71604 z m 126.49013,83.28681 c -12.4393,-3.63583 -24.11109,-12.82606 -34.63513,-27.75956 -10.52457,-14.93757 -18.56257,-33.50691 -24.11112,-55.52725 l 58.74625,0 0,83.28681 z m 0,-104.34735 -63.53127,0 c -2.49004,-17.04158 -3.82943,-32.93533 -3.82943,-47.86883 0,-16.08135 1.33883,-32.16676 4.21317,-48.2481 l 63.14697,0 0,96.11693 5.6e-4,0 z m 0,-117.17725 -58.74625,0 c 5.93172,-21.82854 14.0149,-40.17701 24.49488,-54.95147 10.56919,-14.9049 21.81266,-24.12435 34.25195,-27.57191 l 0,82.52338 z m 148.11518,0 -45.73616,0 c -7.07894,-29.48757 -18.17886,-53.80361 -33.29635,-72.94801 33.87225,13.97334 62.19248,40.20515 79.03251,72.94801 z M 398.62843,371.06719 c 12.43931,3.44756 23.68219,12.66701 34.25196,27.57191 10.48342,14.77446 18.56258,33.12293 24.49428,54.95147 l -58.74624,0 0,-82.52338 z m 0,103.5837 63.14698,0 c 2.87375,16.08134 4.21315,32.16675 4.21315,48.2481 0,14.93415 -1.3394,30.82725 -3.82943,47.86883 l -63.5307,0 0,-96.11694 z m 0,200.46428 0,-83.28681 58.74624,0 c -5.73954,22.02034 -13.88391,40.51588 -24.30271,55.52725 -10.44281,15.04795 -21.81264,24.31603 -34.44353,27.75956 z m 47.45873,-9.57077 c 15.11748,-18.95716 26.21742,-43.65716 33.29633,-73.71604 l 45.7362,0 c -16.26471,33.12294 -44.58955,59.35432 -79.03253,73.71604 z m 88.02558,-94.77658 -50.52011,0 c 2.49005,-16.27364 3.63726,-32.16739 3.63726,-47.86883 0,-15.88905 -1.14721,-31.97445 -3.63726,-48.2481 l 50.13638,0 c 5.1682,15.50913 7.84638,31.59048 7.84638,48.2481 -5.5e-4,16.27771 -2.48602,32.35906 -7.46265,47.86883 z"
         id="path5"
         inkscape:connector-curvature="0" />
    </g>
  </g>
</svg>
