<?xml version="1.0" encoding="UTF-8" standalone="no"?>
<!-- Created with Inkscape (http://www.inkscape.org/) -->

<svg
   xmlns:dc="http://purl.org/dc/elements/1.1/"
   xmlns:cc="http://creativecommons.org/ns#"
   xmlns:rdf="http://www.w3.org/1999/02/22-rdf-syntax-ns#"
   xmlns:svg="http://www.w3.org/2000/svg"
   xmlns="http://www.w3.org/2000/svg"
   xmlns:xlink="http://www.w3.org/1999/xlink"
   xmlns:sodipodi="http://sodipodi.sourceforge.net/DTD/sodipodi-0.dtd"
   xmlns:inkscape="http://www.inkscape.org/namespaces/inkscape"
   width="210mm"
   height="297mm"
   viewBox="0 0 744.09448819 1052.3622047"
   id="svg2"
   version="1.1"
   inkscape:version="0.91 r13725"
   inkscape:export-xdpi="3.5999999"
   inkscape:export-ydpi="3.5999999"
   sodipodi:docname="ID-clip-function.svg"
   inkscape:export-filename="C:\Users\johannes\Documents\Arbeit\RRZE\github3\bicons\16x16\emblems\ID-clip-function.png">
  <defs
     id="defs4">
    <linearGradient
       id="linearGradient2224">
      <stop
         id="stop2226"
         offset="0"
         style="stop-color:#7c7c7c;stop-opacity:1;" />
      <stop
         id="stop2228"
         offset="1"
         style="stop-color:#b8b8b8;stop-opacity:1;" />
    </linearGradient>
    <linearGradient
       id="linearGradient15218">
      <stop
         id="stop15220"
         offset="0"
         style="stop-color:#eeeeef;stop-opacity:1;" />
      <stop
         id="stop2736"
         offset="0.59928656"
         style="stop-color:#d3d7cf;stop-opacity:1;" />
      <stop
         id="stop2738"
         offset="0.82758623"
         style="stop-color:#ffffff;stop-opacity:1;" />
      <stop
         id="stop15222"
         offset="1"
         style="stop-color:#d3d7cf;stop-opacity:1;" />
    </linearGradient>
    <pattern
       y="0"
       x="0"
       height="6"
       width="6"
       patternUnits="userSpaceOnUse"
       id="EMFhbasepattern" />
    <pattern
       y="0"
       x="0"
       height="6"
       width="6"
       patternUnits="userSpaceOnUse"
       id="EMFhbasepattern-5" />
    <linearGradient
       inkscape:collect="always"
       xlink:href="#linearGradient4200"
       id="linearGradient4206-5"
       x1="580"
       y1="422.36221"
       x2="230"
       y2="642.36218"
       gradientUnits="userSpaceOnUse"
       gradientTransform="matrix(0.875,0,0,0.90245584,48.44066,60.177695)" />
    <linearGradient
       inkscape:collect="always"
       id="linearGradient4200">
      <stop
         style="stop-color:#7a8597;stop-opacity:1;"
         offset="0"
         id="stop4202" />
      <stop
         style="stop-color:#4e505d;stop-opacity:1"
         offset="1"
         id="stop4204" />
    </linearGradient>
  </defs>
  <sodipodi:namedview
     id="base"
     pagecolor="#ffffff"
     bordercolor="#666666"
     borderopacity="1.0"
     inkscape:pageopacity="0.0"
     inkscape:pageshadow="2"
     inkscape:zoom="0.5"
     inkscape:cx="76.469435"
     inkscape:cy="616.3543"
     inkscape:document-units="px"
     inkscape:current-layer="layer1"
     showgrid="false"
     showguides="true"
     inkscape:guide-bbox="true"
     inkscape:window-width="1366"
     inkscape:window-height="721"
     inkscape:window-x="-4"
     inkscape:window-y="-4"
     inkscape:window-maximized="1">
    <sodipodi:guide
       position="560,730.00002"
       orientation="0,1"
       id="guide3338" />
    <sodipodi:guide
       position="560,330.00001"
       orientation="0,1"
       id="guide3340" />
    <sodipodi:guide
       position="190,475.00001"
       orientation="1,0"
       id="guide3344" />
    <sodipodi:guide
       position="590,451.00001"
       orientation="1,0"
       id="guide3346" />
    <inkscape:grid
       type="xygrid"
       id="grid3440" />
    <sodipodi:guide
       position="215,442.00001"
       orientation="1,0"
       id="guide4155" />
    <sodipodi:guide
       position="564.97832,467.39759"
       orientation="1,0"
       id="guide4157" />
  </sodipodi:namedview>
  <metadata
     id="metadata7">
    <rdf:RDF>
      <cc:Work
         rdf:about="">
        <dc:format>image/svg+xml</dc:format>
        <dc:type
           rdf:resource="http://purl.org/dc/dcmitype/StillImage" />
        <dc:title>ID clip function</dc:title>
        <dc:date>June 2015</dc:date>
        <dc:creator>
          <cc:Agent>
            <dc:title>Johannes Hechler</dc:title>
          </cc:Agent>
        </dc:creator>
        <dc:rights>
          <cc:Agent>
            <dc:title>Johannes Hechler</dc:title>
          </cc:Agent>
        </dc:rights>
        <dc:publisher>
          <cc:Agent>
            <dc:title>RRZE</dc:title>
          </cc:Agent>
        </dc:publisher>
        <dc:contributor>
          <cc:Agent>
            <dc:title>Ute Weber, Hendrik Eggers</dc:title>
          </cc:Agent>
        </dc:contributor>
      </cc:Work>
    </rdf:RDF>
  </metadata>
  <g
     inkscape:label="Ebene 1"
     inkscape:groupmode="layer"
     id="layer1">
    <g
       transform="translate(1.0000001,-1.0000098)"
       id="g4733">
      <rect
         style="opacity:1;fill:none;fill-opacity:1;stroke:none;stroke-width:23;stroke-linecap:butt;stroke-linejoin:round;stroke-miterlimit:4;stroke-dasharray:none;stroke-opacity:1"
         id="rect4160"
         width="400"
         height="400"
         x="189"
         y="323.36221" />
      <rect
         style="color:#252525;clip-rule:nonzero;display:inline;overflow:visible;visibility:visible;opacity:1;isolation:auto;mix-blend-mode:normal;color-interpolation:sRGB;color-interpolation-filters:linearRGB;solid-color:#252525;solid-opacity:1;fill:url(#linearGradient4206-5);fill-opacity:1;fill-rule:nonzero;stroke:none;stroke-width:25;stroke-linecap:butt;stroke-linejoin:round;stroke-miterlimit:4;stroke-dasharray:none;stroke-dashoffset:0;stroke-opacity:1;color-rendering:auto;image-rendering:auto;shape-rendering:auto;text-rendering:auto;enable-background:accumulate"
         id="rect4149-7"
         width="350"
         height="225.61397"
         x="215"
         y="422.87268"
         ry="27.073669" />
      <rect
         ry="24.993229"
         y="371.23773"
         x="364.79544"
         height="75.48365"
         width="49.986458"
         id="rect4694"
         style="color:#000000;clip-rule:nonzero;display:inline;overflow:visible;visibility:visible;opacity:1;isolation:auto;mix-blend-mode:normal;color-interpolation:sRGB;color-interpolation-filters:linearRGB;solid-color:#000000;solid-opacity:1;fill:#4e505d;fill-opacity:1;fill-rule:nonzero;stroke:#ffffff;stroke-width:50;stroke-linecap:square;stroke-linejoin:round;stroke-miterlimit:4;stroke-dasharray:none;stroke-dashoffset:0;stroke-opacity:1;color-rendering:auto;image-rendering:auto;shape-rendering:auto;text-rendering:auto;enable-background:accumulate" />
      <rect
         style="color:#000000;clip-rule:nonzero;display:inline;overflow:visible;visibility:visible;opacity:1;isolation:auto;mix-blend-mode:normal;color-interpolation:sRGB;color-interpolation-filters:linearRGB;solid-color:#000000;solid-opacity:1;fill:#4e505d;fill-opacity:1;fill-rule:nonzero;stroke:none;stroke-width:40;stroke-linecap:square;stroke-linejoin:round;stroke-miterlimit:4;stroke-dasharray:none;stroke-dashoffset:0;stroke-opacity:1;color-rendering:auto;image-rendering:auto;shape-rendering:auto;text-rendering:auto;enable-background:accumulate"
         id="rect4222"
         width="49.986458"
         height="75.48365"
         x="364.79544"
         y="371.23773"
         ry="24.993229" />
      <path
         sodipodi:nodetypes="csssccsccssscccscssscscscssccsccccscsssccssscccccccsccccccsccccccccccccsccc"
         inkscape:connector-curvature="0"
         style="color:#000000;font-style:normal;font-variant:normal;font-weight:normal;font-stretch:normal;font-size:medium;line-height:normal;font-family:sans-serif;text-indent:0;text-align:start;text-decoration:none;text-decoration-line:none;text-decoration-style:solid;text-decoration-color:#000000;letter-spacing:normal;word-spacing:normal;text-transform:none;direction:ltr;block-progression:tb;writing-mode:lr-tb;baseline-shift:baseline;text-anchor:start;white-space:normal;clip-rule:nonzero;display:inline;overflow:visible;visibility:visible;opacity:1;isolation:auto;mix-blend-mode:normal;color-interpolation:sRGB;color-interpolation-filters:linearRGB;solid-color:#000000;solid-opacity:1;fill:#ffffff;fill-opacity:1;fill-rule:nonzero;stroke:#ffffff;stroke-width:4.03999996;stroke-linecap:butt;stroke-linejoin:round;stroke-miterlimit:4;stroke-dasharray:none;stroke-dashoffset:0;stroke-opacity:1;color-rendering:auto;image-rendering:auto;shape-rendering:auto;text-rendering:auto;enable-background:accumulate"
         d="m 340.58978,475.90615 c -1.33923,-0.0122 -2.76354,0.10826 -4.36849,0.25636 -3.96767,0.36614 -8.62868,1.40289 -12.93193,3.30904 -4.30326,1.90614 -8.32868,4.72497 -10.41647,8.81228 -3.59264,7.03333 -7.47856,18.99845 -11.53915,32.75517 l -16.41617,0 c -2.58544,-0.0324 -4.70197,1.78461 -4.70197,4.03737 0,2.25276 2.11653,4.06984 4.70197,4.03737 l 14.06518,0 c -1.92064,6.67903 -3.87126,13.5952 -5.84879,20.50239 -3.51873,12.2903 -7.07079,24.39348 -10.49796,34.40509 -3.42716,10.01161 -6.87521,18.0378 -9.54579,21.60145 -2.94906,3.93528 -5.22408,6.49482 -6.83114,7.97088 -0.29572,0.27163 -0.4299,0.31102 -0.68055,0.49958 0.004,-0.16868 -0.0343,-0.24535 -0.0196,-0.41281 -0.009,0.1089 0.1793,-0.69057 0.41044,-1.57498 0.23133,-0.88511 0.49186,-1.98537 0.46024,-3.2433 -0.0316,-1.25795 -0.40953,-2.80089 -1.69156,-4.05052 -1.28204,-1.24964 -3.24717,-1.93517 -5.46401,-2.08903 -3.28859,-0.22824 -6.6795,0.26511 -9.57597,1.84712 -2.89646,1.58202 -5.14454,4.28158 -6.09929,7.80919 -0.98656,3.64532 0.2918,6.97556 2.71314,8.9766 2.42135,2.00105 5.51321,2.92456 8.43669,3.60222 2.39434,0.55495 4.81649,0.26971 7.36985,-0.19194 2.55336,-0.46165 4.92232,-0.97077 6.89904,-2.55574 4.10294,-3.2896 9.36783,-9.5454 14.76535,-16.67273 5.39752,-7.12732 10.76025,-15.02266 14.39262,-21.24254 10.23242,-17.52108 13.41114,-36.8284 16.60479,-55.18093 l 18.11225,0 c 2.58544,0.0325 4.70197,-1.78461 4.70197,-4.03737 0,-2.25276 -2.11653,-4.06983 -4.70197,-4.03737 l -16.66363,0 c 1.69899,-9.13054 3.66492,-17.91019 6.8251,-25.97012 l 0,-10e-4 c 0.64644,-1.64896 1.84709,-3.86992 3.18092,-5.5979 1.33383,-1.72797 2.97696,-2.75437 3.18394,-2.795 0.97445,-0.19126 0.73301,-0.18724 1.24642,0.24059 0.51341,0.42782 1.3688,1.61758 2.41738,3.25513 0.87633,1.36857 1.35698,2.73271 2.16538,4.29111 0.8084,1.5584 2.10422,3.3255 4.34284,4.62109 4.93895,2.85816 11.66635,0.94301 15.24067,-3.81256 1.79326,-2.38564 2.31567,-5.17188 1.41844,-7.57254 -0.89723,-2.40065 -2.7245,-4.35897 -4.98717,-6.62071 -2.30872,-2.30779 -4.27105,-3.87567 -6.81001,-4.63424 -1.2695,-0.37929 -2.52376,-0.52418 -3.86299,-0.53638 z m 34.27068,22.12864 c -1.05679,0.006 -2.06461,0.3889 -2.78859,1.05963 -0.0141,0.0133 -0.0237,0.0262 -0.0377,0.0394 l -0.002,-0.001 c -0.0152,0.0148 -0.027,0.0299 -0.0423,0.0447 -27.07861,23.80968 -26.36541,33.11241 -22.41758,52.31273 3.36566,16.36896 4.82129,28.73986 15.3791,40.8462 1.74581,2.14671 3.55051,4.23398 5.43685,6.22236 0.0184,0.0193 0.0344,0.0411 0.0528,0.0605 0.0243,0.0255 0.0467,0.0534 0.0709,0.0789 3.2328,3.45773 9.20291,-0.72764 6.0178,-4.2188 -1.81592,-2.02738 -3.62327,-4.15484 -5.43986,-6.24865 -10.07734,-12.47764 -7.3675,-23.61976 -8.81394,-39.56971 -1.69343,-18.67375 2.23761,-25.67385 15.50836,-45.03725 2.20517,-2.18139 0.41195,-5.60833 -2.9244,-5.58869 z m 132.86816,0.42464 c -3.34627,-0.0158 -5.13044,3.43102 -2.90176,5.60578 16.06667,33.41452 30.39062,74.44349 7.12328,100.60563 -1.77431,2.06428 -3.5492,4.19233 -5.29803,6.1448 -3.09667,3.48149 2.77447,7.5985 6.0163,4.2188 0.0246,-0.0258 0.0464,-0.0543 0.0709,-0.0802 l 0.002,10e-4 c 0.077,-0.0859 0.15979,-0.18729 0.2369,-0.27345 1.74832,-1.8553 3.41497,-3.78636 5.00378,-5.78063 10.8071,-12.48492 12.03468,-27.09744 13.43766,-44.38086 1.63679,-20.16394 -0.38779,-30.54594 -21.20679,-65.25792 -0.69331,-0.51453 -1.57303,-0.79903 -2.48377,-0.80327 z"
         id="path3022" />
      <text
         xml:space="preserve"
         style="font-style:normal;font-weight:normal;font-size:194.38902283px;line-height:125%;font-family:sans-serif;letter-spacing:0px;word-spacing:0px;fill:#ffffff;fill-opacity:1;stroke:#ffffff;stroke-width:4.03999996;stroke-linecap:butt;stroke-linejoin:round;stroke-miterlimit:4;stroke-dasharray:none;stroke-opacity:1"
         x="374.56619"
         y="619.87439"
         id="text4290-0"
         sodipodi:linespacing="125%"
         transform="scale(1.0387871,0.96266114)"><tspan
           sodipodi:role="line"
           id="tspan4292-3"
           x="374.56619"
           y="619.87439"
           style="font-style:normal;font-variant:normal;font-weight:normal;font-stretch:normal;font-family:arial;-inkscape-font-specification:arial;fill:#ffffff;stroke:#ffffff;stroke-width:4.03999996;stroke-linejoin:round;stroke-miterlimit:4;stroke-dasharray:none">x</tspan></text>
    </g>
  </g>
</svg>
