<?xml version="1.0" encoding="UTF-8" standalone="no"?>
<!-- Created with Inkscape (http://www.inkscape.org/) -->

<svg
   xmlns:dc="http://purl.org/dc/elements/1.1/"
   xmlns:cc="http://creativecommons.org/ns#"
   xmlns:rdf="http://www.w3.org/1999/02/22-rdf-syntax-ns#"
   xmlns:svg="http://www.w3.org/2000/svg"
   xmlns="http://www.w3.org/2000/svg"
   xmlns:sodipodi="http://sodipodi.sourceforge.net/DTD/sodipodi-0.dtd"
   xmlns:inkscape="http://www.inkscape.org/namespaces/inkscape"
   width="210mm"
   height="297mm"
   viewBox="0 0 744.09448819 1052.3622047"
   id="svg2"
   version="1.1"
   inkscape:version="0.91 r13725"
   inkscape:export-xdpi="3.6005573"
   inkscape:export-ydpi="3.6005573"
   sodipodi:docname="internationality.svg"
   inkscape:export-filename="C:\Users\johannes\Documents\Arbeit\RRZE\github3\bicons\16x16\emblems\internationality.png">
  <title
     id="title4159">internationality</title>
  <defs
     id="defs4">
    <linearGradient
       id="linearGradient2224">
      <stop
         id="stop2226"
         offset="0"
         style="stop-color:#7c7c7c;stop-opacity:1;" />
      <stop
         id="stop2228"
         offset="1"
         style="stop-color:#b8b8b8;stop-opacity:1;" />
    </linearGradient>
    <linearGradient
       id="linearGradient15218">
      <stop
         id="stop15220"
         offset="0"
         style="stop-color:#eeeeef;stop-opacity:1;" />
      <stop
         id="stop2736"
         offset="0.59928656"
         style="stop-color:#d3d7cf;stop-opacity:1;" />
      <stop
         id="stop2738"
         offset="0.82758623"
         style="stop-color:#ffffff;stop-opacity:1;" />
      <stop
         id="stop15222"
         offset="1"
         style="stop-color:#d3d7cf;stop-opacity:1;" />
    </linearGradient>
    <pattern
       y="0"
       x="0"
       height="6"
       width="6"
       patternUnits="userSpaceOnUse"
       id="EMFhbasepattern" />
    <pattern
       y="0"
       x="0"
       height="6"
       width="6"
       patternUnits="userSpaceOnUse"
       id="EMFhbasepattern-5" />
  </defs>
  <sodipodi:namedview
     id="base"
     pagecolor="#ffffff"
     bordercolor="#666666"
     borderopacity="1.0"
     inkscape:pageopacity="0.0"
     inkscape:pageshadow="2"
     inkscape:zoom="0.70710678"
     inkscape:cx="433.02428"
     inkscape:cy="578.14719"
     inkscape:document-units="px"
     inkscape:current-layer="layer1"
     showgrid="false"
     showguides="true"
     inkscape:guide-bbox="true"
     inkscape:window-width="1366"
     inkscape:window-height="721"
     inkscape:window-x="-4"
     inkscape:window-y="-4"
     inkscape:window-maximized="1">
    <sodipodi:guide
       position="560,730.00002"
       orientation="0,1"
       id="guide3338" />
    <sodipodi:guide
       position="560,330.00001"
       orientation="0,1"
       id="guide3340" />
    <sodipodi:guide
       position="190,475.00001"
       orientation="1,0"
       id="guide3344" />
    <sodipodi:guide
       position="590,451.00001"
       orientation="1,0"
       id="guide3346" />
    <inkscape:grid
       type="xygrid"
       id="grid3440" />
    <sodipodi:guide
       position="215,442.00001"
       orientation="1,0"
       id="guide4155" />
    <sodipodi:guide
       position="564.97832,467.39759"
       orientation="1,0"
       id="guide4157" />
  </sodipodi:namedview>
  <metadata
     id="metadata7">
    <rdf:RDF>
      <cc:Work
         rdf:about="">
        <dc:format>image/svg+xml</dc:format>
        <dc:type
           rdf:resource="http://purl.org/dc/dcmitype/StillImage" />
        <dc:title>internationality</dc:title>
        <dc:date>June 2015</dc:date>
        <dc:creator>
          <cc:Agent>
            <dc:title>Johannes Hechler</dc:title>
          </cc:Agent>
        </dc:creator>
        <dc:rights>
          <cc:Agent>
            <dc:title>Johannes Hechler</dc:title>
          </cc:Agent>
        </dc:rights>
        <dc:publisher>
          <cc:Agent>
            <dc:title>RRZE</dc:title>
          </cc:Agent>
        </dc:publisher>
        <dc:contributor>
          <cc:Agent>
            <dc:title>Ute Weber, Hendrik Eggers</dc:title>
          </cc:Agent>
        </dc:contributor>
      </cc:Work>
    </rdf:RDF>
  </metadata>
  <g
     inkscape:label="Ebene 1"
     inkscape:groupmode="layer"
     id="layer1">
    <g
       transform="translate(0.4183486,0.1875045)"
       id="g4282">
      <path
         id="path4210"
         d="M 389.57812,397.4043 A 125.29692,125.35383 0 0 0 264.28125,522.75781 125.29692,125.35383 0 0 0 389.57812,648.11133 125.29692,125.35383 0 0 0 514.875,522.75781 125.29692,125.35383 0 0 0 389.57812,397.4043 Z m 0.0508,25.27929 a 100.24577,100.21429 0 0 1 25.70312,3.47461 c 7.43431,15.43549 13.13118,31.0099 17.00195,46.73047 l -84.13476,0 c 3.94687,-15.86768 9.758,-31.58671 17.33398,-47.16406 a 100.24577,100.21429 0 0 1 24.09571,-3.04102 z m -56.41407,17.4961 c -4.80547,10.90308 -8.47994,21.8059 -11.10742,32.70898 l -19.24804,0 a 100.24577,100.21429 0 0 1 30.35546,-32.70898 z m 114.79493,1.35937 a 100.24577,100.21429 0 0 1 28.3457,31.34961 l -17.93555,0 c -2.48789,-10.45004 -5.92815,-20.89956 -10.41015,-31.34961 z m -155.35157,56.45117 25.19141,0 c -1.66945,16.6653 -1.09265,33.33081 1.37305,49.9961 l -26.57227,0 a 100.24577,100.21429 0 0 1 -3.26758,-25.08789 100.24577,100.21429 0 0 1 3.27539,-24.90821 z m 50.88086,0 93.39258,0 c 1.98439,16.50058 1.94149,33.16317 -0.22852,49.9961 l -93.06054,0 c -2.12831,-16.83291 -2.1292,-33.49551 -0.10352,-49.9961 z m 119.07032,0 24.03906,0 a 100.24577,100.21429 0 0 1 3.22656,24.90821 100.24577,100.21429 0 0 1 -3.32227,25.08789 l -25.44335,0 c 2.50341,-16.66529 3.12455,-33.33081 1.5,-49.9961 z m -159.88868,74.59961 21.47461,0 c 2.91474,11.4638 6.65229,22.92683 11.07031,34.39063 A 100.24577,100.21429 0 0 1 302.7207,572.58984 Z m 45.52344,0 83.79492,0 c -3.90799,15.60291 -9.65745,31.35303 -17.31445,47.25586 a 100.24577,100.21429 0 0 1 -25.0957,3.26563 100.24577,100.21429 0 0 1 -24.08203,-3.0625 c -7.66727,-15.97186 -13.41665,-31.78963 -17.30274,-47.45899 z m 107.84766,0 20.5,0 a 100.24577,100.21429 0 0 1 -31.32422,33.58008 c 4.30157,-11.1934 7.95524,-22.38667 10.82422,-33.58008 z"
         style="color:#000000;clip-rule:nonzero;display:inline;overflow:visible;visibility:visible;opacity:1;isolation:auto;mix-blend-mode:normal;color-interpolation:sRGB;color-interpolation-filters:linearRGB;solid-color:#000000;solid-opacity:1;fill:#99b000;fill-opacity:1;fill-rule:nonzero;stroke:none;stroke-width:35;stroke-linecap:butt;stroke-linejoin:round;stroke-miterlimit:4;stroke-dasharray:none;stroke-dashoffset:0;stroke-opacity:1;color-rendering:auto;image-rendering:auto;shape-rendering:auto;text-rendering:auto;enable-background:accumulate"
         inkscape:connector-curvature="0" />
      <path
         id="path4222"
         d="m 388.65625,322.48828 0.16797,24.63477 A 174.9375,175.49475 0 0 0 214.125,522.60742 174.9375,175.49475 0 0 0 285.30469,663.65234 c 1.39452,-0.94084 2.91018,-1.7803 4.57422,-2.47265 l 20.86523,-8.67578 A 150.3125,151.5625 0 0 1 239.25,523.67383 150.3125,151.5625 0 0 1 388.99414,372.13086 l 0.17383,25.57617 89.33789,-37.14844 -89.84961,-38.07031 z m -22.18359,360.99414 -2.40039,0.99805 3.12695,1.32422 c 0.0856,-0.15326 0.17292,-0.30561 0.26172,-0.45703 -0.35554,-0.60756 -0.68526,-1.22986 -0.98828,-1.86524 z"
         style="color:#000000;clip-rule:nonzero;display:inline;overflow:visible;visibility:visible;opacity:1;isolation:auto;mix-blend-mode:normal;color-interpolation:sRGB;color-interpolation-filters:linearRGB;solid-color:#000000;solid-opacity:1;fill:#4e505d;fill-opacity:1;fill-rule:nonzero;stroke:none;stroke-width:35;stroke-linecap:butt;stroke-linejoin:round;stroke-miterlimit:4;stroke-dasharray:none;stroke-dashoffset:0;stroke-opacity:1;color-rendering:auto;image-rendering:auto;shape-rendering:auto;text-rendering:auto;enable-background:accumulate"
         inkscape:connector-curvature="0" />
      <path
         id="path4249"
         d="m 410.78516,359.01758 a 25.0025,25.0025 0 0 1 -0.26172,0.45508 25.0025,25.0025 0 0 1 0.98828,1.86718 l 2.40039,-0.99804 -3.12695,-1.32422 z m 81.87304,22.13672 a 25.0025,25.0025 0 0 1 -4.55273,2.48828 l -20.86524,8.67578 a 150.3125,151.5625 0 0 1 71.49415,128.83008 150.3125,151.5625 0 0 1 -149.74415,151.54297 l -0.17382,-25.57618 -68.47461,28.47266 -20.85938,8.67383 -0.004,0.002 89.8496,38.07031 -0.16796,-24.63476 A 174.9375,175.49475 0 0 0 563.85938,522.21484 174.9375,175.49475 0 0 0 492.6582,381.1543 Z"
         style="color:#000000;clip-rule:nonzero;display:inline;overflow:visible;visibility:visible;opacity:1;isolation:auto;mix-blend-mode:normal;color-interpolation:sRGB;color-interpolation-filters:linearRGB;solid-color:#000000;solid-opacity:1;fill:#4e505d;fill-opacity:1;fill-rule:nonzero;stroke:none;stroke-width:35;stroke-linecap:butt;stroke-linejoin:round;stroke-miterlimit:4;stroke-dasharray:none;stroke-dashoffset:0;stroke-opacity:1;color-rendering:auto;image-rendering:auto;shape-rendering:auto;text-rendering:auto;enable-background:accumulate"
         inkscape:connector-curvature="0" />
      <rect
         ry="1.32156e-005"
         y="322.18362"
         x="189.10713"
         height="400"
         width="399.93808"
         id="rect4277"
         style="color:#000000;clip-rule:nonzero;display:inline;overflow:visible;visibility:visible;opacity:1;isolation:auto;mix-blend-mode:normal;color-interpolation:sRGB;color-interpolation-filters:linearRGB;solid-color:#000000;solid-opacity:1;fill:none;fill-opacity:1;fill-rule:nonzero;stroke:none;stroke-width:50;stroke-linecap:butt;stroke-linejoin:round;stroke-miterlimit:4;stroke-dasharray:none;stroke-dashoffset:0;stroke-opacity:1;color-rendering:auto;image-rendering:auto;shape-rendering:auto;text-rendering:auto;enable-background:accumulate" />
    </g>
  </g>
</svg>
