<?xml version="1.0" encoding="UTF-8" standalone="no"?>
<!-- Created with Inkscape (http://www.inkscape.org/) -->

<svg
   xmlns:dc="http://purl.org/dc/elements/1.1/"
   xmlns:cc="http://creativecommons.org/ns#"
   xmlns:rdf="http://www.w3.org/1999/02/22-rdf-syntax-ns#"
   xmlns:svg="http://www.w3.org/2000/svg"
   xmlns="http://www.w3.org/2000/svg"
   xmlns:sodipodi="http://sodipodi.sourceforge.net/DTD/sodipodi-0.dtd"
   xmlns:inkscape="http://www.inkscape.org/namespaces/inkscape"
   width="210mm"
   height="297mm"
   viewBox="0 0 744.09448819 1052.3622047"
   id="svg2"
   version="1.1"
   inkscape:version="0.91 r13725"
   inkscape:export-xdpi="3.6951075"
   inkscape:export-ydpi="3.6951075"
   sodipodi:docname="migration.svg"
   inkscape:export-filename="C:\Users\johannes\Documents\Arbeit\RRZE\github3\bicons\16x16\emblems\migration.png">
  <title
     id="title4167">migration</title>
  <defs
     id="defs4">
    <linearGradient
       id="linearGradient2224">
      <stop
         id="stop2226"
         offset="0"
         style="stop-color:#7c7c7c;stop-opacity:1;" />
      <stop
         id="stop2228"
         offset="1"
         style="stop-color:#b8b8b8;stop-opacity:1;" />
    </linearGradient>
    <linearGradient
       id="linearGradient15218">
      <stop
         id="stop15220"
         offset="0"
         style="stop-color:#eeeeef;stop-opacity:1;" />
      <stop
         id="stop2736"
         offset="0.59928656"
         style="stop-color:#d3d7cf;stop-opacity:1;" />
      <stop
         id="stop2738"
         offset="0.82758623"
         style="stop-color:#ffffff;stop-opacity:1;" />
      <stop
         id="stop15222"
         offset="1"
         style="stop-color:#d3d7cf;stop-opacity:1;" />
    </linearGradient>
    <pattern
       y="0"
       x="0"
       height="6"
       width="6"
       patternUnits="userSpaceOnUse"
       id="EMFhbasepattern" />
    <pattern
       y="0"
       x="0"
       height="6"
       width="6"
       patternUnits="userSpaceOnUse"
       id="EMFhbasepattern-5" />
  </defs>
  <sodipodi:namedview
     id="base"
     pagecolor="#ffffff"
     bordercolor="#666666"
     borderopacity="1.0"
     inkscape:pageopacity="0.0"
     inkscape:pageshadow="2"
     inkscape:zoom="0.5"
     inkscape:cx="452.76713"
     inkscape:cy="482.78723"
     inkscape:document-units="px"
     inkscape:current-layer="layer1"
     showgrid="false"
     showguides="true"
     inkscape:guide-bbox="true"
     inkscape:window-width="1366"
     inkscape:window-height="721"
     inkscape:window-x="-4"
     inkscape:window-y="-4"
     inkscape:window-maximized="1">
    <sodipodi:guide
       position="560,730.00002"
       orientation="0,1"
       id="guide3338" />
    <sodipodi:guide
       position="560,330.00001"
       orientation="0,1"
       id="guide3340" />
    <sodipodi:guide
       position="190,475.00001"
       orientation="1,0"
       id="guide3344" />
    <sodipodi:guide
       position="590,451.00001"
       orientation="1,0"
       id="guide3346" />
    <inkscape:grid
       type="xygrid"
       id="grid3440" />
  </sodipodi:namedview>
  <metadata
     id="metadata7">
    <rdf:RDF>
      <cc:Work
         rdf:about="">
        <dc:format>image/svg+xml</dc:format>
        <dc:type
           rdf:resource="http://purl.org/dc/dcmitype/StillImage" />
        <dc:title>migration</dc:title>
        <dc:date>June 2015</dc:date>
        <dc:creator>
          <cc:Agent>
            <dc:title>Johannes Hechler</dc:title>
          </cc:Agent>
        </dc:creator>
        <dc:rights>
          <cc:Agent>
            <dc:title>Johannes Hechler</dc:title>
          </cc:Agent>
        </dc:rights>
        <dc:publisher>
          <cc:Agent>
            <dc:title>RRZE</dc:title>
          </cc:Agent>
        </dc:publisher>
        <dc:contributor>
          <cc:Agent>
            <dc:title>Ute Weber, Hendrik Eggers</dc:title>
          </cc:Agent>
        </dc:contributor>
      </cc:Work>
    </rdf:RDF>
  </metadata>
  <g
     inkscape:label="Ebene 1"
     inkscape:groupmode="layer"
     id="layer1">
    <g
       id="g4191"
       transform="translate(-760.75,-381.75)">
      <rect
         y="704.20447"
         x="950.96948"
         height="400"
         width="400"
         id="rect4160"
         style="opacity:1;fill:none;fill-opacity:1;stroke:none;stroke-width:23;stroke-linecap:butt;stroke-linejoin:round;stroke-miterlimit:4;stroke-dasharray:none;stroke-opacity:1" />
      <g
         transform="translate(712.05781,381.84225)"
         id="g4442">
        <path
           sodipodi:nodetypes="ssssccccsssss"
           style="opacity:1;fill:#4e505d;fill-opacity:1;stroke:none;stroke-width:16;stroke-linecap:square;stroke-linejoin:round;stroke-miterlimit:4;stroke-dasharray:none;stroke-opacity:1"
           d="m 283.80662,322.01838 c -10.86815,0 -19.61733,8.96568 -19.61733,20.10278 l 0,110.5683 c 0,11.13708 8.74918,20.10278 19.61733,20.10278 l 66.69851,0 -6.87482,25.61536 66.71817,0 -6.87481,-25.61536 66.70048,0 c 10.86816,0 19.61731,-8.9657 19.61731,-20.10278 l 0,-110.5683 c 0,-11.1371 -8.74915,-20.10278 -19.61731,-20.10278 z"
           id="rect4169"
           inkscape:connector-curvature="0" />
        <rect
           style="opacity:1;fill:#ffffff;fill-opacity:1;stroke:none;stroke-width:16;stroke-linecap:square;stroke-linejoin:round;stroke-miterlimit:4;stroke-dasharray:none;stroke-opacity:1"
           id="rect4171"
           width="176.04633"
           height="100.66814"
           x="289.2121"
           y="347.57919"
           ry="0" />
      </g>
      <path
         style="opacity:1;fill:#4e505d;fill-opacity:1;stroke:none;stroke-width:16;stroke-linecap:square;stroke-linejoin:round;stroke-miterlimit:4;stroke-dasharray:none;stroke-opacity:1"
         d="m 1121.0223,929.78124 c -10.8681,0 -19.6173,8.96568 -19.6173,20.10278 l 0,110.56828 c 0,11.1371 8.7492,20.1028 19.6173,20.1028 l 66.6985,0 -6.6248,23.4992 66.7182,0 -7.1248,-23.4992 66.7005,0 c 10.8681,0 19.6173,-8.9657 19.6173,-20.1028 l 0,-110.56828 c 0,-11.1371 -8.7492,-20.10278 -19.6173,-20.10278 z"
         id="path4448"
         inkscape:connector-curvature="0"
         sodipodi:nodetypes="ssssccccsssss" />
      <rect
         style="opacity:1;fill:#ffffff;fill-opacity:1;stroke:none;stroke-width:16;stroke-linecap:square;stroke-linejoin:round;stroke-miterlimit:4;stroke-dasharray:none;stroke-opacity:1"
         id="rect4450"
         width="176.04633"
         height="100.66814"
         x="1126.4279"
         y="954.63495"
         ry="0" />
      <path
         inkscape:connector-curvature="0"
         style="fill:#99b000;fill-opacity:1;fill-rule:evenodd;stroke:#ffffff;stroke-width:50;stroke-linecap:butt;stroke-linejoin:miter;stroke-miterlimit:4;stroke-dasharray:none;stroke-opacity:1"
         d="m 1340.0305,881.16719 c 0,-117.03277 -91.2123,-124.0752 -112.1189,-126.6546 l 0,-27.5438 c 0,-10.82192 -7.8266,-13.52681 -13.0436,-8.11585 l -103.9589,94.14717 c -2.6085,2.7055 -3.9128,4.73411 -3.9128,6.76323 0,2.02911 1.3043,4.0592 3.9128,6.7647 l 103.9589,95.23604 c 2.6085,2.70549 13.0436,2.7046 13.0436,-8.11731 l 0,-29.31264 c 6.2317,-0.12205 51.2491,0.67904 51.2491,60.26368 0,50.22374 -56.7422,66.16669 -56.7422,66.16669 -2.7779,0.5733 -3.2766,4.7302 0,5.6729 0,0 117.612,0.05 117.612,-135.27021 z"
         id="path4454"
         sodipodi:nodetypes="scsccsccscsccs" />
      <path
         sodipodi:nodetypes="scsccsccscsccs"
         id="path4160"
         d="m 1340.0305,881.16719 c 0,-117.03277 -91.2123,-124.0752 -112.1189,-126.6546 l 0,-27.5438 c 0,-10.82192 -7.8266,-13.52681 -13.0436,-8.11585 l -103.9589,94.14717 c -2.6085,2.7055 -3.9128,4.73411 -3.9128,6.76323 0,2.02911 1.3043,4.0592 3.9128,6.7647 l 103.9589,95.23604 c 2.6085,2.70549 13.0436,2.7046 13.0436,-8.11731 l 0,-29.31264 c 6.2317,-0.12205 51.2491,0.67904 51.2491,60.26368 0,50.22374 -56.7422,66.16669 -56.7422,66.16669 -2.7779,0.5733 -3.2766,4.7302 0,5.6729 0,0 117.612,0.05 117.612,-135.27021 z"
         style="fill:#99b000;fill-opacity:1;fill-rule:evenodd;stroke:none;stroke-width:1px;stroke-linecap:butt;stroke-linejoin:miter;stroke-opacity:1"
         inkscape:connector-curvature="0" />
    </g>
  </g>
</svg>
