<?xml version="1.0" encoding="UTF-8" standalone="no"?>
<!-- Created with Inkscape (http://www.inkscape.org/) -->

<svg
   xmlns:dc="http://purl.org/dc/elements/1.1/"
   xmlns:cc="http://creativecommons.org/ns#"
   xmlns:rdf="http://www.w3.org/1999/02/22-rdf-syntax-ns#"
   xmlns:svg="http://www.w3.org/2000/svg"
   xmlns="http://www.w3.org/2000/svg"
   xmlns:xlink="http://www.w3.org/1999/xlink"
   xmlns:sodipodi="http://sodipodi.sourceforge.net/DTD/sodipodi-0.dtd"
   xmlns:inkscape="http://www.inkscape.org/namespaces/inkscape"
   width="210mm"
   height="297mm"
   viewBox="0 0 744.09448819 1052.3622047"
   id="svg2"
   version="1.1"
   inkscape:version="0.91 r13725"
   inkscape:export-xdpi="3.5999999"
   inkscape:export-ydpi="3.5999999"
   sodipodi:docname="phone.svg"
   inkscape:export-filename="D:\Dokumente\Arbeit\RRZE\github\bicons\16x16\emblems\phone.png">
  <title
     id="title4156">phone</title>
  <defs
     id="defs4">
    <linearGradient
       id="linearGradient2224">
      <stop
         id="stop2226"
         offset="0"
         style="stop-color:#7c7c7c;stop-opacity:1;" />
      <stop
         id="stop2228"
         offset="1"
         style="stop-color:#b8b8b8;stop-opacity:1;" />
    </linearGradient>
    <linearGradient
       id="linearGradient15218">
      <stop
         id="stop15220"
         offset="0"
         style="stop-color:#eeeeef;stop-opacity:1;" />
      <stop
         id="stop2736"
         offset="0.59928656"
         style="stop-color:#d3d7cf;stop-opacity:1;" />
      <stop
         id="stop2738"
         offset="0.82758623"
         style="stop-color:#ffffff;stop-opacity:1;" />
      <stop
         id="stop15222"
         offset="1"
         style="stop-color:#d3d7cf;stop-opacity:1;" />
    </linearGradient>
    <pattern
       y="0"
       x="0"
       height="6"
       width="6"
       patternUnits="userSpaceOnUse"
       id="EMFhbasepattern" />
    <pattern
       y="0"
       x="0"
       height="6"
       width="6"
       patternUnits="userSpaceOnUse"
       id="EMFhbasepattern-5" />
    <linearGradient
       inkscape:collect="always"
       xlink:href="#linearGradient4284"
       id="linearGradient4310"
       x1="520"
       y1="472.36221"
       x2="290"
       y2="622.36218"
       gradientUnits="userSpaceOnUse"
       gradientTransform="matrix(0.89779004,0,0,0.90401692,-134.04696,396.64041)" />
    <linearGradient
       inkscape:collect="always"
       id="linearGradient4284">
      <stop
         style="stop-color:#7a8597;stop-opacity:1;"
         offset="0"
         id="stop4286" />
      <stop
         style="stop-color:#4e505d;stop-opacity:1"
         offset="1"
         id="stop4288" />
    </linearGradient>
  </defs>
  <sodipodi:namedview
     id="base"
     pagecolor="#ffffff"
     bordercolor="#666666"
     borderopacity="1.0"
     inkscape:pageopacity="0.0"
     inkscape:pageshadow="2"
     inkscape:zoom="1"
     inkscape:cx="247.79035"
     inkscape:cy="536.35957"
     inkscape:document-units="px"
     inkscape:current-layer="layer1"
     showgrid="false"
     showguides="true"
     inkscape:guide-bbox="true"
     inkscape:window-width="1600"
     inkscape:window-height="837"
     inkscape:window-x="-4"
     inkscape:window-y="-4"
     inkscape:window-maximized="1"
     inkscape:snap-bbox="true"
     inkscape:bbox-nodes="true"
     inkscape:object-paths="true"
     inkscape:snap-nodes="false">
    <sodipodi:guide
       position="-83.438601,728.32"
       orientation="0,1"
       id="guide3338" />
    <sodipodi:guide
       position="560,330.00001"
       orientation="0,1"
       id="guide3340" />
    <sodipodi:guide
       position="190,475.00001"
       orientation="1,0"
       id="guide3344" />
    <sodipodi:guide
       position="590,451.00001"
       orientation="1,0"
       id="guide3346" />
    <inkscape:grid
       type="xygrid"
       id="grid3440" />
  </sodipodi:namedview>
  <metadata
     id="metadata7">
    <rdf:RDF>
      <cc:Work
         rdf:about="">
        <dc:format>image/svg+xml</dc:format>
        <dc:type
           rdf:resource="http://purl.org/dc/dcmitype/StillImage" />
        <dc:title>phone</dc:title>
        <dc:date>June 2015</dc:date>
        <dc:creator>
          <cc:Agent>
            <dc:title>Johannes Hechler</dc:title>
          </cc:Agent>
        </dc:creator>
        <dc:rights>
          <cc:Agent>
            <dc:title>Johannes Hechler</dc:title>
          </cc:Agent>
        </dc:rights>
        <dc:publisher>
          <cc:Agent>
            <dc:title>RRZE</dc:title>
          </cc:Agent>
        </dc:publisher>
        <dc:contributor>
          <cc:Agent>
            <dc:title>Ute Weber, Hendrik Eggers</dc:title>
          </cc:Agent>
        </dc:contributor>
      </cc:Work>
    </rdf:RDF>
  </metadata>
  <g
     inkscape:label="Ebene 1"
     inkscape:groupmode="layer"
     id="layer1">
    <g
       id="g4223"
       transform="translate(-6.355389e-6,21.680017)">
      <g
         id="g4359"
         transform="translate(190,-349.99998)">
        <g
           id="g4344">
          <rect
             y="652.36218"
             x="4.6020509e-007"
             height="400"
             width="400"
             id="rect4160"
             style="opacity:1;fill:none;fill-opacity:1;stroke:none;stroke-width:23;stroke-linecap:butt;stroke-linejoin:round;stroke-miterlimit:4;stroke-dasharray:none;stroke-opacity:1" />
          <path
             id="path4300"
             d="m 211.19531,780.24107 c -18.6833,0.053 -37.23099,3.18707 -58.25195,9.25586 l -2.41992,14.49414 c -0.0701,0.41931 -0.15083,0.83676 -0.24219,1.25195 -0.18469,0.84031 -0.39599,1.64005 -0.61914,2.42187 -0.0615,0.2152 -0.12716,0.42384 -0.19141,0.63477 -0.18019,0.59201 -0.36909,1.16887 -0.57031,1.72852 -0.0647,0.1799 -0.12848,0.3624 -0.19531,0.53906 -0.5458,1.44419 -1.15984,2.78174 -1.83203,4.02734 -0.0704,0.13023 -0.14323,0.25653 -0.21485,0.38477 -0.29309,0.52555 -0.59538,1.0356 -0.9082,1.52929 -0.0563,0.0888 -0.11104,0.17978 -0.16797,0.26758 -0.77343,1.1943 -1.60196,2.29894 -2.47265,3.33008 -0.006,0.007 -0.0117,0.0145 -0.0176,0.0215 -0.0113,0.0134 -0.0238,0.0257 -0.0352,0.0391 -0.4398,0.51839 -0.89032,1.02005 -1.34961,1.5039 -1.9e-4,5.9e-4 2e-4,10e-4 0,0.002 -1.64555,4.99025 -4.95872,8.31414 -8.81836,11.17578 -4.31236,3.19728 -9.67639,5.64101 -15.93359,7.00586 -5.58209,1.21761 -14.84565,2.10944 -25.48633,2.78515 L 52.873047,949.47349 C 51.718631,952.669 50.000244,955.6278 50,959.02818 l 0,51.50192 c 9.03e-4,9.5121 7.658892,17.2236 17.105469,17.2246 l 290.789061,0 c 9.44658,-9e-4 17.10452,-7.7125 17.10547,-17.2246 l 0,-51.50192 c -2.4e-4,-3.40038 -1.72323,-6.35751 -2.87305,-9.55469 L 334.21094,844.0438 c -9.92406,-0.59442 -19.4072,-1.8907 -27.19141,-4.91016 -8.12223,-3.15058 -13.42214,-5.7576 -17.37695,-8.44531 -3.95479,-2.6877 -7.28189,-5.83876 -8.42774,-10.83789 -0.13488,-0.58845 -0.24039,-1.18033 -0.35156,-1.76172 -0.007,-0.009 -0.0141,-0.0186 -0.0215,-0.0273 -0.32834,-0.38999 -0.64951,-0.79257 -0.96485,-1.20703 -0.0211,-0.0277 -0.0434,-0.0542 -0.0645,-0.082 -0.29608,-0.39192 -0.58493,-0.79619 -0.86719,-1.21094 -0.0447,-0.0655 -0.0885,-0.13115 -0.13281,-0.19727 -0.2478,-0.37049 -0.48944,-0.75135 -0.72461,-1.14062 -0.0708,-0.11699 -0.14136,-0.23284 -0.21094,-0.35156 -0.21618,-0.36959 -0.42343,-0.74992 -0.62695,-1.13672 -0.0699,-0.13263 -0.1426,-0.26178 -0.21094,-0.39649 -0.19991,-0.39486 -0.38871,-0.80375 -0.57422,-1.21679 -0.061,-0.13559 -0.12617,-0.2667 -0.18554,-0.4043 -0.1813,-0.42095 -0.35047,-0.8568 -0.51563,-1.29688 -0.0543,-0.14447 -0.11355,-0.2831 -0.16601,-0.42968 -0.15615,-0.43687 -0.29639,-0.88978 -0.43555,-1.34571 -0.0504,-0.16492 -0.10819,-0.32274 -0.15625,-0.49023 -0.17769,-0.61984 -0.34028,-1.25461 -0.48438,-1.91016 -0.82604,-3.75802 -0.79929,-4.31583 -1.40039,-7.88281 -0.36133,-2.14423 -0.8162,-4.89753 -1.24609,-7.48828 -22.25661,-6.51912 -41.54416,-9.68721 -60.67969,-9.63281 z"
             style="color:#252525;font-style:normal;font-variant:normal;font-weight:normal;font-stretch:normal;font-size:medium;line-height:normal;font-family:sans-serif;text-indent:0;text-align:start;text-decoration:none;text-decoration-line:none;text-decoration-style:solid;text-decoration-color:#252525;letter-spacing:normal;word-spacing:normal;text-transform:none;direction:ltr;block-progression:tb;writing-mode:lr-tb;baseline-shift:baseline;text-anchor:start;white-space:normal;clip-rule:nonzero;display:inline;overflow:visible;visibility:visible;opacity:1;isolation:auto;mix-blend-mode:normal;color-interpolation:sRGB;color-interpolation-filters:linearRGB;solid-color:#252525;solid-opacity:1;fill:url(#linearGradient4310);fill-opacity:1;fill-rule:evenodd;stroke:none;stroke-width:10;stroke-linecap:butt;stroke-linejoin:round;stroke-miterlimit:4;stroke-dasharray:none;stroke-dashoffset:0;stroke-opacity:1;color-rendering:auto;image-rendering:auto;shape-rendering:auto;text-rendering:auto;enable-background:accumulate"
             inkscape:connector-curvature="0"
             sodipodi:nodetypes="cccccccccccccccccsscsccccccscsssccccccccccccccccssccc" />
          <path
             style="color:#252525;font-style:normal;font-variant:normal;font-weight:normal;font-stretch:normal;font-size:medium;line-height:normal;font-family:sans-serif;text-indent:0;text-align:start;text-decoration:none;text-decoration-line:none;text-decoration-style:solid;text-decoration-color:#252525;letter-spacing:normal;word-spacing:normal;text-transform:none;direction:ltr;block-progression:tb;writing-mode:lr-tb;baseline-shift:baseline;text-anchor:start;white-space:normal;clip-rule:nonzero;display:inline;overflow:visible;visibility:visible;opacity:1;isolation:auto;mix-blend-mode:normal;color-interpolation:sRGB;color-interpolation-filters:linearRGB;solid-color:#252525;solid-opacity:1;fill:#4e505d;fill-opacity:1;fill-rule:nonzero;stroke:none;stroke-width:20;stroke-linecap:butt;stroke-linejoin:round;stroke-miterlimit:4;stroke-dasharray:none;stroke-dashoffset:0;stroke-opacity:1;color-rendering:auto;image-rendering:auto;shape-rendering:auto;text-rendering:auto;enable-background:accumulate"
             d="m 219.83978,702.42587 c -57.42686,-0.95445 -115.5671,8.90896 -161.246946,23.4731 -3.641509,1.16101 -5.993226,3.35562 -8.026078,7.30036 -2.032842,3.94472 -7.460728,15.75646 -11.784986,26.73601 -4.324258,10.97954 -13.344251,39.30461 -13.344251,39.30461 -2.332096,7.35059 4.935995,12.93456 15.206437,16.00318 10.270441,3.06863 57.737589,-0.28696 67.662524,-2.54444 9.92493,-2.2575 16.52304,-8.11132 17.55854,-12.82262 l 6.05615,-36.29054 c 53.88127,-18.21164 105.40277,-18.83683 160.95793,-0.0298 0,0 5.54233,33.96441 6.0602,36.32042 0.51787,2.35601 4.09162,6.25932 19.64233,12.54938 15.55071,6.2901 54.12279,5.66755 66.6196,3.09091 12.49683,-2.57662 16.5001,-8.9249 14.16761,-16.27641 0,0 -9.06949,-28.50171 -13.39365,-39.48123 -4.32415,-10.97953 -9.96315,-23.43563 -11.73559,-26.55938 -1.77241,-3.12376 -4.52133,-5.73237 -8.01997,-7.29823 -37.54095,-16.80205 -88.95299,-22.52085 -146.37985,-23.47529 z"
             id="path4275"
             inkscape:connector-curvature="0"
             sodipodi:nodetypes="cszzczzccczzzczzszc" />
          <g
             id="g4333">
            <rect
               style="opacity:1;fill:#ffffff;fill-opacity:1;stroke:none;stroke-width:50;stroke-linejoin:round;stroke-miterlimit:4;stroke-dasharray:none;stroke-dashoffset:10.80000019;stroke-opacity:1"
               id="rect4289"
               width="25"
               height="24.999979"
               x="150"
               y="852.36218"
               ry="12.49999" />
            <rect
               ry="12.49999"
               y="852.36218"
               x="200"
               height="24.999979"
               width="25"
               id="rect4291"
               style="opacity:1;fill:#ffffff;fill-opacity:1;stroke:none;stroke-width:50;stroke-linejoin:round;stroke-miterlimit:4;stroke-dasharray:none;stroke-dashoffset:10.80000019;stroke-opacity:1" />
            <rect
               style="opacity:1;fill:#ffffff;fill-opacity:1;stroke:none;stroke-width:50;stroke-linejoin:round;stroke-miterlimit:4;stroke-dasharray:none;stroke-dashoffset:10.80000019;stroke-opacity:1"
               id="rect4293"
               width="25"
               height="24.999979"
               x="250"
               y="852.36218"
               ry="12.49999" />
            <rect
               ry="12.49999"
               y="902.36218"
               x="150"
               height="24.999979"
               width="25"
               id="rect4295"
               style="opacity:1;fill:#ffffff;fill-opacity:1;stroke:none;stroke-width:50;stroke-linejoin:round;stroke-miterlimit:4;stroke-dasharray:none;stroke-dashoffset:10.80000019;stroke-opacity:1" />
            <rect
               style="opacity:1;fill:#ffffff;fill-opacity:1;stroke:none;stroke-width:50;stroke-linejoin:round;stroke-miterlimit:4;stroke-dasharray:none;stroke-dashoffset:10.80000019;stroke-opacity:1"
               id="rect4297"
               width="25"
               height="24.999979"
               x="200"
               y="902.36218"
               ry="12.49999" />
            <rect
               ry="12.49999"
               y="902.36218"
               x="250"
               height="24.999979"
               width="25"
               id="rect4299"
               style="opacity:1;fill:#ffffff;fill-opacity:1;stroke:none;stroke-width:50;stroke-linejoin:round;stroke-miterlimit:4;stroke-dasharray:none;stroke-dashoffset:10.80000019;stroke-opacity:1" />
            <rect
               style="opacity:1;fill:#ffffff;fill-opacity:1;stroke:none;stroke-width:50;stroke-linejoin:round;stroke-miterlimit:4;stroke-dasharray:none;stroke-dashoffset:10.80000019;stroke-opacity:1"
               id="rect4301"
               width="25"
               height="24.999979"
               x="150"
               y="952.36218"
               ry="12.49999" />
            <rect
               ry="12.49999"
               y="952.36218"
               x="200"
               height="24.999979"
               width="25"
               id="rect4303"
               style="opacity:1;fill:#ffffff;fill-opacity:1;stroke:none;stroke-width:50;stroke-linejoin:round;stroke-miterlimit:4;stroke-dasharray:none;stroke-dashoffset:10.80000019;stroke-opacity:1" />
            <rect
               style="opacity:1;fill:#ffffff;fill-opacity:1;stroke:none;stroke-width:50;stroke-linejoin:round;stroke-miterlimit:4;stroke-dasharray:none;stroke-dashoffset:10.80000019;stroke-opacity:1"
               id="rect4305"
               width="25"
               height="24.999979"
               x="250"
               y="952.36218"
               ry="12.49999" />
          </g>
        </g>
      </g>
    </g>
  </g>
</svg>
