<?xml version="1.0" encoding="UTF-8" standalone="no"?>
<!-- Created with Inkscape (http://www.inkscape.org/) -->

<svg
   xmlns:dc="http://purl.org/dc/elements/1.1/"
   xmlns:cc="http://creativecommons.org/ns#"
   xmlns:rdf="http://www.w3.org/1999/02/22-rdf-syntax-ns#"
   xmlns:svg="http://www.w3.org/2000/svg"
   xmlns="http://www.w3.org/2000/svg"
   xmlns:xlink="http://www.w3.org/1999/xlink"
   xmlns:sodipodi="http://sodipodi.sourceforge.net/DTD/sodipodi-0.dtd"
   xmlns:inkscape="http://www.inkscape.org/namespaces/inkscape"
   width="210mm"
   height="297mm"
   viewBox="0 0 744.09448819 1052.3622047"
   id="svg2"
   version="1.1"
   inkscape:version="0.91 r13725"
   inkscape:export-xdpi="3.5996392"
   inkscape:export-ydpi="3.5996392"
   sodipodi:docname="report-delete.svg"
   inkscape:export-filename="C:\Users\johannes\Documents\Arbeit\RRZE\github3\bicons\16x16\emblems\report-delete.png">
  <defs
     id="defs4">
    <linearGradient
       id="linearGradient2224">
      <stop
         id="stop2226"
         offset="0"
         style="stop-color:#7c7c7c;stop-opacity:1;" />
      <stop
         id="stop2228"
         offset="1"
         style="stop-color:#b8b8b8;stop-opacity:1;" />
    </linearGradient>
    <linearGradient
       id="linearGradient15218">
      <stop
         id="stop15220"
         offset="0"
         style="stop-color:#eeeeef;stop-opacity:1;" />
      <stop
         id="stop2736"
         offset="0.59928656"
         style="stop-color:#d3d7cf;stop-opacity:1;" />
      <stop
         id="stop2738"
         offset="0.82758623"
         style="stop-color:#ffffff;stop-opacity:1;" />
      <stop
         id="stop15222"
         offset="1"
         style="stop-color:#d3d7cf;stop-opacity:1;" />
    </linearGradient>
    <pattern
       y="0"
       x="0"
       height="6"
       width="6"
       patternUnits="userSpaceOnUse"
       id="EMFhbasepattern" />
    <pattern
       y="0"
       x="0"
       height="6"
       width="6"
       patternUnits="userSpaceOnUse"
       id="EMFhbasepattern-5" />
    <linearGradient
       inkscape:collect="always"
       xlink:href="#linearGradient4195"
       id="linearGradient4252"
       x1="630.45148"
       y1="497.99048"
       x2="867.01398"
       y2="203.14346"
       gradientUnits="userSpaceOnUse"
       gradientTransform="matrix(0.97034713,0,0,1,-332.55251,161.90635)" />
    <linearGradient
       inkscape:collect="always"
       id="linearGradient4195">
      <stop
         style="stop-color:#4e505d;stop-opacity:1"
         offset="0"
         id="stop4197" />
      <stop
         style="stop-color:#7a8597;stop-opacity:1"
         offset="1"
         id="stop4199" />
    </linearGradient>
  </defs>
  <sodipodi:namedview
     id="base"
     pagecolor="#ffffff"
     bordercolor="#666666"
     borderopacity="1.0"
     inkscape:pageopacity="0.0"
     inkscape:pageshadow="2"
     inkscape:zoom="1.4142136"
     inkscape:cx="388.59634"
     inkscape:cy="475.70553"
     inkscape:document-units="px"
     inkscape:current-layer="layer1"
     showgrid="false"
     showguides="true"
     inkscape:guide-bbox="true"
     inkscape:window-width="1366"
     inkscape:window-height="721"
     inkscape:window-x="-4"
     inkscape:window-y="-4"
     inkscape:window-maximized="1">
    <sodipodi:guide
       position="560,730.00002"
       orientation="0,1"
       id="guide3338" />
    <sodipodi:guide
       position="560,330.00001"
       orientation="0,1"
       id="guide3340" />
    <sodipodi:guide
       position="190,475.00001"
       orientation="1,0"
       id="guide3344" />
    <sodipodi:guide
       position="590,451.00001"
       orientation="1,0"
       id="guide3346" />
    <inkscape:grid
       type="xygrid"
       id="grid3440" />
  </sodipodi:namedview>
  <metadata
     id="metadata7">
    <rdf:RDF>
      <cc:Work
         rdf:about="">
        <dc:format>image/svg+xml</dc:format>
        <dc:type
           rdf:resource="http://purl.org/dc/dcmitype/StillImage" />
        <dc:title>report delete</dc:title>
        <dc:date>June 2015</dc:date>
        <dc:creator>
          <cc:Agent>
            <dc:title>Johannes Hechler</dc:title>
          </cc:Agent>
        </dc:creator>
        <dc:rights>
          <cc:Agent>
            <dc:title>Johannes Hechler</dc:title>
          </cc:Agent>
        </dc:rights>
        <dc:publisher>
          <cc:Agent>
            <dc:title>RRZE</dc:title>
          </cc:Agent>
        </dc:publisher>
        <dc:contributor>
          <cc:Agent>
            <dc:title>Ute Weber, Hendrik Eggers</dc:title>
          </cc:Agent>
        </dc:contributor>
      </cc:Work>
    </rdf:RDF>
  </metadata>
  <g
     inkscape:label="Ebene 1"
     inkscape:groupmode="layer"
     id="layer1">
    <g
       id="g4173">
      <rect
         inkscape:export-ydpi="3.5999999"
         inkscape:export-xdpi="3.5999999"
         y="322.26233"
         x="189.22658"
         height="400"
         width="400"
         id="rect3336"
         style="fill:none;fill-rule:evenodd;stroke:none;stroke-width:1px;stroke-linecap:butt;stroke-linejoin:miter;stroke-opacity:1" />
      <rect
         y="322.32898"
         x="189.26666"
         height="400"
         width="400"
         id="rect4160"
         style="opacity:1;fill:none;fill-opacity:1;stroke:none;stroke-width:23;stroke-linecap:butt;stroke-linejoin:round;stroke-miterlimit:4;stroke-dasharray:none;stroke-opacity:1" />
      <path
         id="rect4244"
         d="M 252.83594 322.08203 C 245.18482 322.08203 239.02539 328.24146 239.02539 335.89258 L 239.02539 708.26953 C 239.02539 715.92065 245.18482 722.08203 252.83594 722.08203 L 380.35547 722.08203 L 376.66992 718.3418 L 376.81836 718.49023 C 360.94698 702.64742 360.93322 675.96485 376.81641 660.11328 L 414.22852 622.77539 L 377.17969 585.79883 C 360.80379 569.45549 360.80368 541.96253 377.17969 525.61914 L 392.33398 510.49414 C 400.52197 502.32248 411.46796 498.23632 422.41406 498.23633 C 433.36017 498.23633 444.30618 502.32254 452.49414 510.49414 L 489.61328 547.53906 L 527.02539 510.19922 C 530.78732 506.44407 535.15442 503.59042 539.83398 501.61523 L 539.83398 335.89258 C 539.83398 328.24146 533.67455 322.08203 526.02344 322.08203 L 252.83594 322.08203 z M 422.41406 551.11523 L 417.81055 555.70898 L 467.2793 605.08008 A 25.0025 25.0025 0 0 1 467.2793 640.46875 L 418.29883 689.35156 L 422.78711 693.90625 L 471.70312 644.83594 A 25.0025 25.0025 0 0 1 507.15039 644.87109 L 539.83398 677.78711 L 539.83398 668.29688 L 511.74609 640.26562 A 25.0025 25.0025 0 0 1 511.74805 604.875 L 539.83398 576.84375 L 539.83398 568.05859 L 507.27344 600.55469 A 25.0025 25.0025 0 0 1 471.95312 600.55469 L 422.41406 551.11523 z M 489.375 697.93164 L 465.30078 722.08203 L 513.35352 722.08203 L 489.375 697.93164 z "
         style="color:#252525;clip-rule:nonzero;display:inline;overflow:visible;visibility:visible;opacity:1;isolation:auto;mix-blend-mode:normal;color-interpolation:sRGB;color-interpolation-filters:linearRGB;solid-color:#252525;solid-opacity:1;fill:url(#linearGradient4252);fill-opacity:1;fill-rule:nonzero;stroke:none;stroke-width:50;stroke-linecap:square;stroke-linejoin:round;stroke-miterlimit:4;stroke-dasharray:none;stroke-dashoffset:0;stroke-opacity:1;color-rendering:auto;image-rendering:auto;shape-rendering:auto;text-rendering:auto;enable-background:accumulate" />
      <rect
         ry="12.390635"
         y="347.10449"
         x="262.36288"
         height="24.781269"
         width="250.59384"
         id="rect4258"
         style="color:#252525;clip-rule:nonzero;display:inline;overflow:visible;visibility:visible;opacity:1;isolation:auto;mix-blend-mode:normal;color-interpolation:sRGB;color-interpolation-filters:linearRGB;solid-color:#252525;solid-opacity:1;fill:#ffffff;fill-opacity:1;fill-rule:nonzero;stroke:none;stroke-width:50;stroke-linecap:square;stroke-linejoin:round;stroke-miterlimit:4;stroke-dasharray:none;stroke-dashoffset:0;stroke-opacity:1;color-rendering:auto;image-rendering:auto;shape-rendering:auto;text-rendering:auto;enable-background:accumulate" />
      <rect
         ry="12.3906"
         y="397.39685"
         x="262.36288"
         height="25.27907"
         width="175.53926"
         id="rect4260"
         style="color:#252525;clip-rule:nonzero;display:inline;overflow:visible;visibility:visible;opacity:1;isolation:auto;mix-blend-mode:normal;color-interpolation:sRGB;color-interpolation-filters:linearRGB;solid-color:#252525;solid-opacity:1;fill:#ffffff;fill-opacity:1;fill-rule:nonzero;stroke:none;stroke-width:50;stroke-linecap:square;stroke-linejoin:round;stroke-miterlimit:4;stroke-dasharray:none;stroke-dashoffset:0;stroke-opacity:1;color-rendering:auto;image-rendering:auto;shape-rendering:auto;text-rendering:auto;enable-background:accumulate" />
      <rect
         ry="12.3906"
         y="447.7782"
         x="262.36288"
         height="25.102289"
         width="203.67354"
         id="rect4262"
         style="color:#252525;clip-rule:nonzero;display:inline;overflow:visible;visibility:visible;opacity:1;isolation:auto;mix-blend-mode:normal;color-interpolation:sRGB;color-interpolation-filters:linearRGB;solid-color:#252525;solid-opacity:1;fill:#ffffff;fill-opacity:1;fill-rule:nonzero;stroke:none;stroke-width:50;stroke-linecap:square;stroke-linejoin:round;stroke-miterlimit:4;stroke-dasharray:none;stroke-dashoffset:0;stroke-opacity:1;color-rendering:auto;image-rendering:auto;shape-rendering:auto;text-rendering:auto;enable-background:accumulate" />
      <path
         id="path4243"
         d="M 403.00977 535.35156 L 402.89258 535.49805 A 25.0025 25.0025 0 0 1 403.01758 535.35547 A 75.447677 75.327934 88.625353 0 0 403.00977 535.35156 z M 400.14844 538.01758 L 394.83984 543.31445 C 388.38623 549.75521 388.38627 561.66278 394.83984 568.10352 L 400.14258 573.39648 A 25.0025 25.0025 0 0 1 400.14844 538.01758 z M 356.25977 599.9707 L 288.89648 600.45898 A 75.447677 75.327934 88.625353 0 0 342.09375 672.01367 C 344.98906 661.1505 350.66416 650.89315 359.15625 642.41797 L 378.83789 622.77539 L 359.51953 603.49414 C 358.37728 602.35416 357.30279 601.17143 356.25977 599.9707 z M 431.88867 605.08008 A 25.0025 25.0025 0 0 1 437.99805 615.0293 A 75.447677 75.327934 88.625353 0 0 438.53516 611.71484 L 431.88867 605.08008 z "
         style="color:#252525;clip-rule:nonzero;display:inline;overflow:visible;visibility:visible;opacity:18999999;isolation:auto;mix-blend-mode:normal;color-interpolation:sRGB;color-interpolation-filters:linearRGB;solid-color:#252525;solid-opacity:1;fill:#ffffff;fill-opacity:1;fill-rule:nonzero;stroke:none;stroke-width:50;stroke-linecap:butt;stroke-linejoin:round;stroke-miterlimit:4;stroke-dasharray:none;stroke-dashoffset:0;stroke-opacity:1;color-rendering:auto;image-rendering:auto;shape-rendering:auto;text-rendering:auto;enable-background:accumulate" />
      <path
         inkscape:export-ydpi="3.602556"
         inkscape:export-xdpi="3.602556"
         inkscape:export-filename="C:\Users\johannes\Desktop\path4351.png"
         d="m 262.00826,574.82075 a 75.183273,75.125 0 0 1 22.0635,-54.28674 75.183273,75.125 0 0 1 54.37114,-21.94204 l -1.25964,75.11445 z"
         sodipodi:end="4.7291441"
         sodipodi:start="3.1267591"
         sodipodi:ry="75.125"
         sodipodi:rx="75.183273"
         sodipodi:cy="573.70642"
         sodipodi:cx="337.18326"
         sodipodi:type="arc"
         id="path4259"
         style="color:#000000;clip-rule:nonzero;display:inline;overflow:visible;visibility:visible;opacity:1;isolation:auto;mix-blend-mode:normal;color-interpolation:sRGB;color-interpolation-filters:linearRGB;solid-color:#000000;solid-opacity:1;fill:#ffffff;fill-opacity:1;fill-rule:evenodd;stroke:none;stroke-width:50;stroke-linecap:butt;stroke-linejoin:round;stroke-miterlimit:4;stroke-dasharray:none;stroke-dashoffset:0;stroke-opacity:1;color-rendering:auto;image-rendering:auto;shape-rendering:auto;text-rendering:auto;enable-background:accumulate" />
      <path
         sodipodi:nodetypes="cccscsccsssscscsccsccc"
         inkscape:connector-curvature="0"
         id="rect4217"
         d="m 583.78341,701.62572 c 6.88167,-6.86804 6.87641,-17.92814 -0.01,-24.79612 l -54.3661,-54.25939 55.07583,-54.96623 c 6.37982,-6.36709 6.37465,-16.62034 -0.01,-22.98744 l -16.75187,-16.71958 c -6.3799,-6.36709 -16.65359,-6.37232 -23.03339,-0.004 l -55.07426,54.9663 -54.77901,-54.66998 c -6.8817,-6.86795 -17.95864,-6.86799 -24.84035,0 l -15.15421,15.12429 c -6.8817,6.86799 -6.88166,17.92292 0,24.7909 l 54.779,54.66994 -55.14354,55.03379 c -6.3798,6.36709 -6.37457,16.62039 0.004,22.98749 l 16.75292,17.00428 c 6.32571,6.42062 16.65352,6.37228 23.03331,0.004 l 55.14372,-55.31831 54.58156,54.97113 c 6.85028,6.89919 17.96383,6.87321 24.84553,0.004 l 14.94024,-15.83581 z"
         style="opacity:1;fill:#d9463a;fill-opacity:1;stroke:none;stroke-width:0;stroke-linecap:square;stroke-linejoin:round;stroke-miterlimit:4;stroke-dasharray:none;stroke-opacity:1" />
    </g>
  </g>
</svg>
