<?xml version="1.0" encoding="UTF-8" standalone="no"?>
<!-- Created with Inkscape (http://www.inkscape.org/) -->

<svg
   xmlns:dc="http://purl.org/dc/elements/1.1/"
   xmlns:cc="http://creativecommons.org/ns#"
   xmlns:rdf="http://www.w3.org/1999/02/22-rdf-syntax-ns#"
   xmlns:svg="http://www.w3.org/2000/svg"
   xmlns="http://www.w3.org/2000/svg"
   xmlns:xlink="http://www.w3.org/1999/xlink"
   xmlns:sodipodi="http://sodipodi.sourceforge.net/DTD/sodipodi-0.dtd"
   xmlns:inkscape="http://www.inkscape.org/namespaces/inkscape"
   width="210mm"
   height="297mm"
   viewBox="0 0 744.09448819 1052.3622047"
   id="svg2"
   version="1.1"
   inkscape:version="0.91 r13725"
   inkscape:export-xdpi="3.602998"
   inkscape:export-ydpi="3.602998"
   sodipodi:docname="script-false.svg"
   inkscape:export-filename="C:\Users\johannes\Documents\Arbeit\RRZE\github3\bicons\16x16\emblems\script-false.png">
  <defs
     id="defs4">
    <linearGradient
       id="linearGradient2224">
      <stop
         id="stop2226"
         offset="0"
         style="stop-color:#7c7c7c;stop-opacity:1;" />
      <stop
         id="stop2228"
         offset="1"
         style="stop-color:#b8b8b8;stop-opacity:1;" />
    </linearGradient>
    <linearGradient
       id="linearGradient15218">
      <stop
         id="stop15220"
         offset="0"
         style="stop-color:#eeeeef;stop-opacity:1;" />
      <stop
         id="stop2736"
         offset="0.59928656"
         style="stop-color:#d3d7cf;stop-opacity:1;" />
      <stop
         id="stop2738"
         offset="0.82758623"
         style="stop-color:#ffffff;stop-opacity:1;" />
      <stop
         id="stop15222"
         offset="1"
         style="stop-color:#d3d7cf;stop-opacity:1;" />
    </linearGradient>
    <pattern
       y="0"
       x="0"
       height="6"
       width="6"
       patternUnits="userSpaceOnUse"
       id="EMFhbasepattern" />
    <pattern
       y="0"
       x="0"
       height="6"
       width="6"
       patternUnits="userSpaceOnUse"
       id="EMFhbasepattern-5" />
    <linearGradient
       gradientTransform="translate(-17.56605,-0.80397)"
       inkscape:collect="always"
       xlink:href="#linearGradient4194"
       id="linearGradient4200"
       x1="262"
       y1="668.36218"
       x2="502"
       y2="322.36221"
       gradientUnits="userSpaceOnUse" />
    <linearGradient
       inkscape:collect="always"
       id="linearGradient4194">
      <stop
         style="stop-color:#4e505d;stop-opacity:1;"
         offset="0"
         id="stop4196" />
      <stop
         style="stop-color:#7a8597;stop-opacity:1"
         offset="1"
         id="stop4198" />
    </linearGradient>
  </defs>
  <sodipodi:namedview
     id="base"
     pagecolor="#ffffff"
     bordercolor="#666666"
     borderopacity="1.0"
     inkscape:pageopacity="0.0"
     inkscape:pageshadow="2"
     inkscape:zoom="0.70710678"
     inkscape:cx="628.79633"
     inkscape:cy="406.00496"
     inkscape:document-units="px"
     inkscape:current-layer="layer1"
     showgrid="false"
     showguides="true"
     inkscape:guide-bbox="true"
     inkscape:window-width="1366"
     inkscape:window-height="721"
     inkscape:window-x="-4"
     inkscape:window-y="-4"
     inkscape:window-maximized="1">
    <sodipodi:guide
       position="560,730.00002"
       orientation="0,1"
       id="guide3338" />
    <sodipodi:guide
       position="560,330.00001"
       orientation="0,1"
       id="guide3340" />
    <sodipodi:guide
       position="190,475.00001"
       orientation="1,0"
       id="guide3344" />
    <sodipodi:guide
       position="590,451.00001"
       orientation="1,0"
       id="guide3346" />
    <inkscape:grid
       type="xygrid"
       id="grid3440" />
  </sodipodi:namedview>
  <metadata
     id="metadata7">
    <rdf:RDF>
      <cc:Work
         rdf:about="">
        <dc:format>image/svg+xml</dc:format>
        <dc:type
           rdf:resource="http://purl.org/dc/dcmitype/StillImage" />
        <dc:title>script false</dc:title>
        <dc:date>June 2015</dc:date>
        <dc:creator>
          <cc:Agent>
            <dc:title>Johannes Hechler</dc:title>
          </cc:Agent>
        </dc:creator>
        <dc:rights>
          <cc:Agent>
            <dc:title>Johannes Hechler</dc:title>
          </cc:Agent>
        </dc:rights>
        <dc:publisher>
          <cc:Agent>
            <dc:title>RRZE</dc:title>
          </cc:Agent>
        </dc:publisher>
        <dc:contributor>
          <cc:Agent>
            <dc:title>Ute Weber, Hendrik Eggers</dc:title>
          </cc:Agent>
        </dc:contributor>
      </cc:Work>
    </rdf:RDF>
  </metadata>
  <g
     inkscape:label="Ebene 1"
     inkscape:groupmode="layer"
     id="layer1">
    <g
       transform="translate(-0.18914973,0.10058949)"
       id="g4387">
      <g
         id="g4344">
        <rect
           style="opacity:1;fill:none;fill-opacity:1;stroke:none;stroke-width:23;stroke-linecap:butt;stroke-linejoin:round;stroke-miterlimit:4;stroke-dasharray:none;stroke-opacity:1"
           id="rect4160"
           width="385.34863"
           height="385.34863"
           x="189.50262"
           y="322.01495" />
        <g
           id="g4183"
           transform="translate(24.276261,0.39783476)">
          <path
             sodipodi:nodetypes="ccccccsccccccccsccccccccc"
             id="path4153"
             d="m 223.12731,321.61595 c 29.52417,8.024 43.82631,19.68564 41.14844,51.4375 l -61.0625,303.9707 -0.0859,0 c -1.82726,13.88163 1.05888,22.43982 16.57422,25.72071 l 7.12304,0 c 5.75773,-2.24122 9.30417,-4.52661 11.16993,-6.91797 2.01211,-2.57894 3.81501,-6.28917 2.82226,-16.65625 l -1.68164,-31.56641 261.03321,0 39.00585,-274.55078 c 1.6492,-34.95059 -10.39942,-47.1799 -41.14843,-51.4375 l -274.89844,0 z m -24.45313,15.46875 c -3.17669,0.0552 -6.21858,0.84361 -7.8164,3.22461 -4.26085,6.3493 6.15625,32.19531 6.15625,32.19531 l 40.7832,-0.64843 c 1.21908,-26.17362 -5.75002,-28.88914 -18.15625,-32.91993 0,0 -15.6723,-1.94349 -20.9668,-1.85156 z m 67.15768,336.43532 c 2.51075,26.21927 -10.2848,42.42933 -25.81836,48.10757 l 304.106,0.70711 c 21.80747,-5.7241 20.76051,-30.82658 18.53297,-49.17864 z"
             style="fill:url(#linearGradient4200);fill-opacity:1;fill-rule:evenodd;stroke:none;stroke-width:1px;stroke-linecap:butt;stroke-linejoin:miter;stroke-opacity:1"
             inkscape:connector-curvature="0" />
          <rect
             ry="12"
             y="396.83643"
             x="280.86285"
             height="24"
             width="209"
             id="rect4202"
             style="color:#252525;clip-rule:nonzero;display:inline;overflow:visible;visibility:visible;opacity:1;isolation:auto;mix-blend-mode:normal;color-interpolation:sRGB;color-interpolation-filters:linearRGB;solid-color:#252525;solid-opacity:1;fill:#ffffff;fill-opacity:1;fill-rule:nonzero;stroke:none;stroke-width:23;stroke-linecap:butt;stroke-linejoin:round;stroke-miterlimit:4;stroke-dasharray:none;stroke-dashoffset:0;stroke-opacity:1;color-rendering:auto;image-rendering:auto;shape-rendering:auto;text-rendering:auto;enable-background:accumulate" />
          <rect
             ry="11.5"
             y="448.55823"
             x="270.9339"
             height="23"
             width="171.23045"
             id="rect4202-2"
             style="color:#252525;clip-rule:nonzero;display:inline;overflow:visible;visibility:visible;opacity:1;isolation:auto;mix-blend-mode:normal;color-interpolation:sRGB;color-interpolation-filters:linearRGB;solid-color:#252525;solid-opacity:1;fill:#ffffff;fill-opacity:1;fill-rule:nonzero;stroke:none;stroke-width:23;stroke-linecap:butt;stroke-linejoin:round;stroke-miterlimit:4;stroke-dasharray:none;stroke-dashoffset:0;stroke-opacity:1;color-rendering:auto;image-rendering:auto;shape-rendering:auto;text-rendering:auto;enable-background:accumulate" />
          <rect
             style="color:#252525;clip-rule:nonzero;display:inline;overflow:visible;visibility:visible;opacity:1;isolation:auto;mix-blend-mode:normal;color-interpolation:sRGB;color-interpolation-filters:linearRGB;solid-color:#252525;solid-opacity:1;fill:#ffffff;fill-opacity:1;fill-rule:nonzero;stroke:none;stroke-width:23;stroke-linecap:butt;stroke-linejoin:round;stroke-miterlimit:4;stroke-dasharray:none;stroke-dashoffset:0;stroke-opacity:1;color-rendering:auto;image-rendering:auto;shape-rendering:auto;text-rendering:auto;enable-background:accumulate"
             id="rect4694"
             width="197.23045"
             height="23.5"
             x="260.4339"
             y="497.55823"
             ry="11.75" />
        </g>
      </g>
      <path
         style="opacity:1;fill:#d9463a;fill-opacity:1;stroke:#ffffff;stroke-width:50;stroke-linecap:square;stroke-linejoin:round;stroke-miterlimit:4;stroke-dasharray:none;stroke-opacity:1"
         d="m 583.20216,698.90922 c 7.72825,-7.71293 7.72236,-20.13362 -0.004,-27.84649 l -61.0558,-60.93428 61.85123,-61.72809 c 7.16464,-7.15037 7.15879,-18.66497 -0.004,-25.81534 l -18.81382,-18.77638 c -7.16464,-7.15037 -18.70225,-7.15624 -25.86689,-0.004 L 477.45773,565.53281 415.9399,504.1374 c -7.72828,-7.71283 -20.1679,-7.71287 -27.8962,0 l -17.01819,16.98475 c -7.72828,7.71288 -7.72824,20.12778 0,27.84065 l 61.51785,61.39536 -61.92724,61.80395 c -7.16464,7.15037 -7.15876,18.66501 0.004,25.81538 l 18.81383,19.09611 c 7.10389,7.21048 18.70221,7.15619 25.86685,0.004 l 61.92742,-62.12349 61.29613,61.73359 c 7.693,7.74792 20.17377,7.71875 27.90203,0.004 l 16.77822,-17.78389 z"
         id="path4385"
         inkscape:connector-curvature="0"
         sodipodi:nodetypes="cccscsccsssscscsccsccc" />
      <path
         sodipodi:nodetypes="cccscsccsssscscsccsccc"
         inkscape:connector-curvature="0"
         id="rect4217"
         d="m 583.20216,698.90922 c 7.72825,-7.71293 7.72236,-20.13362 -0.004,-27.84649 l -61.0558,-60.93428 61.85123,-61.72809 c 7.16464,-7.15037 7.15879,-18.66497 -0.004,-25.81534 l -18.81382,-18.77638 c -7.16464,-7.15037 -18.70225,-7.15624 -25.86689,-0.004 L 477.45773,565.53281 415.9399,504.1374 c -7.72828,-7.71283 -20.1679,-7.71287 -27.8962,0 l -17.01819,16.98475 c -7.72828,7.71288 -7.72824,20.12778 0,27.84065 l 61.51785,61.39536 -61.92724,61.80395 c -7.16464,7.15037 -7.15876,18.66501 0.004,25.81538 l 18.81383,19.09611 c 7.10389,7.21048 18.70221,7.15619 25.86685,0.004 l 61.92742,-62.12349 61.29613,61.73359 c 7.693,7.74792 20.17377,7.71875 27.90203,0.004 l 16.77822,-17.78389 z"
         style="opacity:1;fill:#d9463a;fill-opacity:1;stroke:none;stroke-width:0;stroke-linecap:square;stroke-linejoin:round;stroke-miterlimit:4;stroke-dasharray:none;stroke-opacity:1" />
    </g>
  </g>
</svg>
