<?xml version="1.0" encoding="UTF-8" standalone="no"?>
<!-- Created with Inkscape (http://www.inkscape.org/) -->

<svg
   xmlns:dc="http://purl.org/dc/elements/1.1/"
   xmlns:cc="http://creativecommons.org/ns#"
   xmlns:rdf="http://www.w3.org/1999/02/22-rdf-syntax-ns#"
   xmlns:svg="http://www.w3.org/2000/svg"
   xmlns="http://www.w3.org/2000/svg"
   xmlns:xlink="http://www.w3.org/1999/xlink"
   xmlns:sodipodi="http://sodipodi.sourceforge.net/DTD/sodipodi-0.dtd"
   xmlns:inkscape="http://www.inkscape.org/namespaces/inkscape"
   width="210mm"
   height="297mm"
   viewBox="0 0 744.09448819 1052.3622047"
   id="svg2"
   version="1.1"
   inkscape:version="0.91 r13725"
   inkscape:export-xdpi="3.6009293"
   inkscape:export-ydpi="3.6009293"
   sodipodi:docname="shared-mailbox.svg"
   inkscape:export-filename="C:\Users\johannes\Documents\Arbeit\RRZE\github3\bicons\16x16\emblems\shared-mailbox.png">
  <defs
     id="defs4">
    <linearGradient
       id="linearGradient2224">
      <stop
         id="stop2226"
         offset="0"
         style="stop-color:#7c7c7c;stop-opacity:1;" />
      <stop
         id="stop2228"
         offset="1"
         style="stop-color:#b8b8b8;stop-opacity:1;" />
    </linearGradient>
    <linearGradient
       id="linearGradient15218">
      <stop
         id="stop15220"
         offset="0"
         style="stop-color:#eeeeef;stop-opacity:1;" />
      <stop
         id="stop2736"
         offset="0.59928656"
         style="stop-color:#d3d7cf;stop-opacity:1;" />
      <stop
         id="stop2738"
         offset="0.82758623"
         style="stop-color:#ffffff;stop-opacity:1;" />
      <stop
         id="stop15222"
         offset="1"
         style="stop-color:#d3d7cf;stop-opacity:1;" />
    </linearGradient>
    <pattern
       y="0"
       x="0"
       height="6"
       width="6"
       patternUnits="userSpaceOnUse"
       id="EMFhbasepattern" />
    <linearGradient
       inkscape:collect="always"
       xlink:href="#linearGradient4718"
       id="linearGradient4724"
       x1="251.73001"
       y1="722.36218"
       x2="514.77374"
       y2="452.73566"
       gradientUnits="userSpaceOnUse"
       gradientTransform="matrix(0.85784316,0,0,0.85784316,57.693934,69.591498)" />
    <linearGradient
       inkscape:collect="always"
       id="linearGradient4718">
      <stop
         style="stop-color:#4e505d;stop-opacity:1;"
         offset="0"
         id="stop4720" />
      <stop
         style="stop-color:#7a8597;stop-opacity:1"
         offset="1"
         id="stop4722" />
    </linearGradient>
  </defs>
  <sodipodi:namedview
     id="base"
     pagecolor="#ffffff"
     bordercolor="#666666"
     borderopacity="1.0"
     inkscape:pageopacity="0.0"
     inkscape:pageshadow="2"
     inkscape:zoom="0.7071068"
     inkscape:cx="356.55247"
     inkscape:cy="534.1588"
     inkscape:document-units="px"
     inkscape:current-layer="layer1"
     showgrid="false"
     showguides="true"
     inkscape:guide-bbox="true"
     inkscape:window-width="1366"
     inkscape:window-height="721"
     inkscape:window-x="-4"
     inkscape:window-y="-4"
     inkscape:window-maximized="1">
    <sodipodi:guide
       position="315.53572,730.17859"
       orientation="0,1"
       id="guide3338" />
    <sodipodi:guide
       position="351.25,330.17858"
       orientation="0,1"
       id="guide3340" />
    <sodipodi:guide
       position="189.10714,408.8393"
       orientation="1,0"
       id="guide3344" />
    <sodipodi:guide
       position="589.04521,468.07945"
       orientation="1,0"
       id="guide3346" />
    <inkscape:grid
       type="xygrid"
       id="grid3440" />
    <sodipodi:guide
       position="589.04521,378.30213"
       orientation="1,0"
       id="guide3411" />
  </sodipodi:namedview>
  <metadata
     id="metadata7">
    <rdf:RDF>
      <cc:Work
         rdf:about="">
        <dc:format>image/svg+xml</dc:format>
        <dc:type
           rdf:resource="http://purl.org/dc/dcmitype/StillImage" />
        <dc:title>shared mailbox</dc:title>
        <dc:date>June 2015</dc:date>
        <dc:creator>
          <cc:Agent>
            <dc:title>Johannes Hechler</dc:title>
          </cc:Agent>
        </dc:creator>
        <dc:rights>
          <cc:Agent>
            <dc:title>Johannes Hechler</dc:title>
          </cc:Agent>
        </dc:rights>
        <dc:publisher>
          <cc:Agent>
            <dc:title>RRZE</dc:title>
          </cc:Agent>
        </dc:publisher>
        <dc:contributor>
          <cc:Agent>
            <dc:title>Ute Weber, Hendrik Eggers</dc:title>
          </cc:Agent>
        </dc:contributor>
      </cc:Work>
    </rdf:RDF>
  </metadata>
  <g
     inkscape:label="Ebene 1"
     inkscape:groupmode="layer"
     id="layer1">
    <g
       transform="translate(0.20334291,-0.21665838)"
       id="g4281">
      <rect
         inkscape:export-ydpi="4.9499998"
         inkscape:export-xdpi="4.9499998"
         y="322.43109"
         x="188.98814"
         height="400"
         width="400"
         id="rect3336"
         style="fill:none;fill-rule:evenodd;stroke:none;stroke-width:1px;stroke-linecap:butt;stroke-linejoin:miter;stroke-opacity:1" />
      <g
         id="g4194"
         transform="translate(-0.1567037,0.16104925)" />
      <g
         style="fill:#99b000"
         transform="matrix(0.59634201,0,0,0.59634201,23.949146,296.90345)"
         id="g4289" />
      <g
         transform="translate(0.8154609,-18.16411)"
         id="g4234">
        <path
           style="color:#252525;font-style:normal;font-variant:normal;font-weight:normal;font-stretch:normal;font-size:medium;line-height:normal;font-family:sans-serif;text-indent:0;text-align:start;text-decoration:none;text-decoration-line:none;text-decoration-style:solid;text-decoration-color:#252525;letter-spacing:normal;word-spacing:normal;text-transform:none;direction:ltr;block-progression:tb;writing-mode:lr-tb;baseline-shift:baseline;text-anchor:start;white-space:normal;clip-rule:nonzero;display:inline;overflow:visible;visibility:visible;opacity:1;isolation:auto;mix-blend-mode:normal;color-interpolation:sRGB;color-interpolation-filters:linearRGB;solid-color:#252525;solid-opacity:1;fill:url(#linearGradient4724);fill-opacity:1;fill-rule:evenodd;stroke:none;stroke-width:5;stroke-linecap:butt;stroke-linejoin:round;stroke-miterlimit:4;stroke-dasharray:none;stroke-dashoffset:0;stroke-opacity:1;color-rendering:auto;image-rendering:auto;shape-rendering:auto;text-rendering:auto;enable-background:accumulate"
           d="m 513.12402,430.62493 c -2.44701,-0.026 -5.00456,0.1343 -7.67225,0.54341 l -240.75708,36.92158 c 0,0 35.66121,4.04503 51.08114,23.13331 15.41993,19.08829 20.65174,33.44385 22.51655,48.20652 l 0,119.72471 c 2e-4,2.00124 1.6374,3.62344 3.65714,3.62366 l 218.27165,-42.1961 c 2.01973,-2e-4 3.65693,-1.62242 3.65714,-3.62365 l 0,-119.72471 c 0,0 0.0521,-16.2443 -7.14945,-32.66437 -6.5264,-14.8807 -19.95056,-33.69364 -43.60484,-33.94436 z m -259.44236,47.38362 c -2.74628,-0.25327 -4.72324,-0.17404 -5.46644,-0.14393 -1.98183,0.0805 -3.84067,0.35978 -5.58098,0.81642 -6.96127,1.82651 -19.78588,6.55907 -22.82942,11.75689 -6.08709,10.39562 -5.9261,22.89057 -5.9261,22.89057 l 0,54.63548 0,54.63807 c 8.6e-4,1.46014 0.79895,2.77674 2.02431,3.34035 l 51.19794,19.88759 43.2005,19.88501 c 2.17211,0.99848 4.56881,-0.75487 4.56885,-3.34294 l 0,-54.63805 0,-54.63292 c 0,0 -0.007,-12.45197 -5.65568,-27.29972 -5.6488,-14.84773 -17.11679,-32.42576 -39.56656,-42.7601 -6.09255,-2.6337 -13.22015,-4.77946 -15.96642,-5.03272 z"
           id="path4149"
           inkscape:connector-curvature="0"
           sodipodi:nodetypes="sscsccccccsszssscccccccccccz" />
      </g>
      <path
         sodipodi:nodetypes="ccccccccsccccccscscc"
         id="path4270"
         d="m 452.03749,499.69192 c -20.51546,2.7e-4 -37.14644,16.54162 -37.14661,36.94641 1.6e-4,20.4048 16.63115,36.94615 37.14661,36.94642 20.51548,-2.7e-4 37.14646,-16.54162 37.14662,-36.94642 -1.7e-4,-20.40479 -16.63114,-36.94614 -37.14662,-36.94641 z m -21.69403,91.07968 c -0.0664,0.0589 -0.12605,0.12276 -0.19464,0.17981 l -3.70187,2.00573 c -24.14844,14.3053 -37.17289,31.21876 -37.17289,71.51345 0,8.65477 0.78862,17.03988 2.26153,25.01775 2.18477,4.88754 7.67399,8.46887 14.25137,8.93676 l 0,0.0556 89.75943,0 0,-0.006 c 7.38247,-0.1042 13.59888,-4.12114 15.688,-9.6282 1.39789,-7.78575 2.1466,-15.95453 2.1466,-24.37822 0,-42.18441 -14.66049,-60.42898 -40.61895,-73.38756 -6.19761,3.47971 -13.34229,5.47587 -20.93957,5.47587 -7.81875,10e-6 -15.15833,-2.11524 -21.47901,-5.78545 z"
         style="fill:#99b000;fill-opacity:1;stroke:#ffffff;stroke-width:50;stroke-linecap:round;stroke-linejoin:round;stroke-miterlimit:4;stroke-dasharray:none;stroke-opacity:1"
         inkscape:connector-curvature="0" />
      <path
         style="color:#252525;font-style:normal;font-variant:normal;font-weight:normal;font-stretch:normal;font-size:medium;line-height:normal;font-family:sans-serif;text-indent:0;text-align:start;text-decoration:none;text-decoration-line:none;text-decoration-style:solid;text-decoration-color:#252525;letter-spacing:normal;word-spacing:normal;text-transform:none;direction:ltr;block-progression:tb;writing-mode:lr-tb;baseline-shift:baseline;text-anchor:start;white-space:normal;clip-rule:nonzero;display:inline;overflow:visible;visibility:visible;opacity:1;isolation:auto;mix-blend-mode:normal;color-interpolation:sRGB;color-interpolation-filters:linearRGB;solid-color:#252525;solid-opacity:1;fill:#99b000;fill-opacity:1;fill-rule:evenodd;stroke:none;stroke-width:5;stroke-linecap:butt;stroke-linejoin:round;stroke-miterlimit:4;stroke-dasharray:none;stroke-dashoffset:0;stroke-opacity:1;color-rendering:auto;image-rendering:auto;shape-rendering:auto;text-rendering:auto;enable-background:accumulate"
         d="m 345.13246,322.72645 -25.85308,4.34963 -24.97669,6.08948 c -2.41994,2.2e-4 -4.38163,1.94749 -4.38187,4.34962 l 0,58.72 0,28.26289 31.80624,-4.19614 0.61963,-27.69762 23.22394,-5.6545 c 2.41996,-2.7e-4 4.38164,-1.94752 4.38189,-4.34965 l -0.43819,-55.52408 c -2.5e-4,-2.40214 -1.96193,-4.34939 -4.38187,-4.34963 z"
         id="path4149-8"
         inkscape:connector-curvature="0"
         sodipodi:nodetypes="cccccccccccc" />
      <path
         inkscape:connector-curvature="0"
         style="fill:#99b000;fill-opacity:1;stroke:none;stroke-width:30;stroke-linecap:round;stroke-linejoin:round;stroke-miterlimit:4;stroke-dasharray:none;stroke-opacity:1"
         d="m 452.03749,499.69192 c -20.51546,2.7e-4 -37.14644,16.54162 -37.14661,36.94641 1.6e-4,20.4048 16.63115,36.94615 37.14661,36.94642 20.51548,-2.7e-4 37.14646,-16.54162 37.14662,-36.94642 -1.7e-4,-20.40479 -16.63114,-36.94614 -37.14662,-36.94641 z m -21.69403,91.07968 c -0.0664,0.0589 -0.12605,0.12276 -0.19464,0.17981 l -3.70187,2.00573 c -24.14844,14.3053 -37.17289,31.21876 -37.17289,71.51345 0,8.65477 0.78862,17.03988 2.26153,25.01775 2.18477,4.88754 7.67399,8.46887 14.25137,8.93676 l 0,0.0556 89.75943,0 0,-0.006 c 7.38247,-0.1042 13.59888,-4.12114 15.688,-9.6282 1.39789,-7.78575 2.1466,-15.95453 2.1466,-24.37822 0,-42.18441 -14.66049,-60.42898 -40.61895,-73.38756 -6.19761,3.47971 -13.34229,5.47587 -20.93957,5.47587 -7.81875,10e-6 -15.15833,-2.11524 -21.47901,-5.78545 z"
         id="path4268"
         sodipodi:nodetypes="ccccccccsccccccscscc" />
      <path
         inkscape:connector-curvature="0"
         style="fill:#99b000;fill-opacity:1;stroke:#ffffff;stroke-width:50;stroke-linecap:round;stroke-linejoin:round;stroke-miterlimit:4;stroke-dasharray:none;stroke-opacity:1"
         d="m 527.53496,523.73355 c -20.51546,2.7e-4 -37.14644,16.54162 -37.14661,36.94641 1.6e-4,20.4048 16.63115,36.94615 37.14661,36.94642 20.51548,-2.7e-4 37.14646,-16.54162 37.14662,-36.94642 -1.7e-4,-20.40479 -16.63114,-36.94614 -37.14662,-36.94641 z m -21.69403,91.07968 c -0.0664,0.0589 -0.12605,0.12276 -0.19464,0.17981 l -3.70187,2.00573 c -24.14844,14.3053 -37.17289,31.21876 -37.17289,71.51345 0,8.65477 0.78862,17.03988 2.26153,25.01775 2.18477,4.88754 7.67399,8.46887 14.25137,8.93676 l 0,0.0556 89.75943,0 0,-0.006 c 7.38247,-0.1042 13.59888,-4.12114 15.688,-9.6282 1.39789,-7.78575 2.1466,-15.95453 2.1466,-24.37822 0,-42.18441 -14.66049,-60.42898 -40.61895,-73.38756 -6.19761,3.47971 -13.34229,5.47587 -20.93957,5.47587 -7.81875,10e-6 -15.15833,-2.11524 -21.47901,-5.78545 z"
         id="path4264"
         sodipodi:nodetypes="ccccccccsccccccscscc" />
      <path
         sodipodi:nodetypes="ccccccccsccccccscscc"
         id="path4213"
         d="m 527.53496,523.73355 c -20.51546,2.7e-4 -37.14644,16.54162 -37.14661,36.94641 1.6e-4,20.4048 16.63115,36.94615 37.14661,36.94642 20.51548,-2.7e-4 37.14646,-16.54162 37.14662,-36.94642 -1.7e-4,-20.40479 -16.63114,-36.94614 -37.14662,-36.94641 z m -21.69403,91.07968 c -0.0664,0.0589 -0.12605,0.12276 -0.19464,0.17981 l -3.70187,2.00573 c -24.14844,14.3053 -37.17289,31.21876 -37.17289,71.51345 0,8.65477 0.78862,17.03988 2.26153,25.01775 2.18477,4.88754 7.67399,8.46887 14.25137,8.93676 l 0,0.0556 89.75943,0 0,-0.006 c 7.38247,-0.1042 13.59888,-4.12114 15.688,-9.6282 1.39789,-7.78575 2.1466,-15.95453 2.1466,-24.37822 0,-42.18441 -14.66049,-60.42898 -40.61895,-73.38756 -6.19761,3.47971 -13.34229,5.47587 -20.93957,5.47587 -7.81875,10e-6 -15.15833,-2.11524 -21.47901,-5.78545 z"
         style="fill:#99b000;fill-opacity:1;stroke:none;stroke-width:30;stroke-linecap:round;stroke-linejoin:round;stroke-miterlimit:4;stroke-dasharray:none;stroke-opacity:1"
         inkscape:connector-curvature="0" />
    </g>
  </g>
</svg>
