<?xml version="1.0" encoding="UTF-8" standalone="no"?>
<!-- Created with Inkscape (http://www.inkscape.org/) -->

<svg
   xmlns:dc="http://purl.org/dc/elements/1.1/"
   xmlns:cc="http://creativecommons.org/ns#"
   xmlns:rdf="http://www.w3.org/1999/02/22-rdf-syntax-ns#"
   xmlns:svg="http://www.w3.org/2000/svg"
   xmlns="http://www.w3.org/2000/svg"
   xmlns:xlink="http://www.w3.org/1999/xlink"
   xmlns:sodipodi="http://sodipodi.sourceforge.net/DTD/sodipodi-0.dtd"
   xmlns:inkscape="http://www.inkscape.org/namespaces/inkscape"
   width="210mm"
   height="297mm"
   viewBox="0 0 744.09448819 1052.3622047"
   id="svg2"
   version="1.1"
   inkscape:version="0.91 r13725"
   inkscape:export-xdpi="3.5999999"
   inkscape:export-ydpi="3.5999999"
   sodipodi:docname="single-sign-on.svg"
   inkscape:export-filename="D:\Dokumente\Arbeit\RRZE\github\bicons\16x16\emblems\single-sign-on.png">
  <title
     id="title4161">single sign on</title>
  <defs
     id="defs4">
    <linearGradient
       id="linearGradient2224">
      <stop
         id="stop2226"
         offset="0"
         style="stop-color:#7c7c7c;stop-opacity:1;" />
      <stop
         id="stop2228"
         offset="1"
         style="stop-color:#b8b8b8;stop-opacity:1;" />
    </linearGradient>
    <linearGradient
       id="linearGradient15218">
      <stop
         id="stop15220"
         offset="0"
         style="stop-color:#eeeeef;stop-opacity:1;" />
      <stop
         id="stop2736"
         offset="0.59928656"
         style="stop-color:#d3d7cf;stop-opacity:1;" />
      <stop
         id="stop2738"
         offset="0.82758623"
         style="stop-color:#ffffff;stop-opacity:1;" />
      <stop
         id="stop15222"
         offset="1"
         style="stop-color:#d3d7cf;stop-opacity:1;" />
    </linearGradient>
    <pattern
       y="0"
       x="0"
       height="6"
       width="6"
       patternUnits="userSpaceOnUse"
       id="EMFhbasepattern" />
    <pattern
       y="0"
       x="0"
       height="6"
       width="6"
       patternUnits="userSpaceOnUse"
       id="EMFhbasepattern-5" />
    <linearGradient
       inkscape:collect="always"
       xlink:href="#linearGradient4167"
       id="linearGradient4169"
       x1="189.10713"
       y1="722.18365"
       x2="589.04523"
       y2="374.95392"
       gradientUnits="userSpaceOnUse"
       gradientTransform="matrix(0.03498079,0,0,0.035,304.568,401.95433)" />
    <linearGradient
       inkscape:collect="always"
       id="linearGradient4167">
      <stop
         style="stop-color:#4e505d;stop-opacity:1;"
         offset="0"
         id="stop4169" />
      <stop
         style="stop-color:#7a8597;stop-opacity:1"
         offset="1"
         id="stop4171" />
    </linearGradient>
  </defs>
  <sodipodi:namedview
     id="base"
     pagecolor="#ffffff"
     bordercolor="#666666"
     borderopacity="1.0"
     inkscape:pageopacity="0.0"
     inkscape:pageshadow="2"
     inkscape:zoom="0.70710678"
     inkscape:cx="193.94613"
     inkscape:cy="684.73347"
     inkscape:document-units="px"
     inkscape:current-layer="layer1"
     showgrid="false"
     showguides="true"
     inkscape:guide-bbox="true"
     inkscape:window-width="1600"
     inkscape:window-height="837"
     inkscape:window-x="-4"
     inkscape:window-y="-4"
     inkscape:window-maximized="1"
     inkscape:snap-bbox="true"
     inkscape:bbox-nodes="true">
    <sodipodi:guide
       position="560,730.00002"
       orientation="0,1"
       id="guide3338" />
    <sodipodi:guide
       position="560,330.00001"
       orientation="0,1"
       id="guide3340" />
    <sodipodi:guide
       position="190,475.00001"
       orientation="1,0"
       id="guide3344" />
    <sodipodi:guide
       position="590,451.00001"
       orientation="1,0"
       id="guide3346" />
    <inkscape:grid
       type="xygrid"
       id="grid3440" />
    <sodipodi:guide
       position="-111.01577,704.98548"
       orientation="0,1"
       id="guide4151" />
    <sodipodi:guide
       position="54.25,355.00001"
       orientation="0,1"
       id="guide4153" />
    <sodipodi:guide
       position="215,442.00001"
       orientation="1,0"
       id="guide4155" />
    <sodipodi:guide
       position="564.97832,467.39759"
       orientation="1,0"
       id="guide4157" />
  </sodipodi:namedview>
  <metadata
     id="metadata7">
    <rdf:RDF>
      <cc:Work
         rdf:about="">
        <dc:format>image/svg+xml</dc:format>
        <dc:type
           rdf:resource="http://purl.org/dc/dcmitype/StillImage" />
        <dc:title>single sign on</dc:title>
        <dc:date>June 2015</dc:date>
        <dc:creator>
          <cc:Agent>
            <dc:title>Johannes Hechler</dc:title>
          </cc:Agent>
        </dc:creator>
        <dc:rights>
          <cc:Agent>
            <dc:title>Johannes Hechler</dc:title>
          </cc:Agent>
        </dc:rights>
        <dc:publisher>
          <cc:Agent>
            <dc:title>RRZE</dc:title>
          </cc:Agent>
        </dc:publisher>
        <dc:contributor>
          <cc:Agent>
            <dc:title>Ute Weber, Hendrik Eggers</dc:title>
          </cc:Agent>
        </dc:contributor>
      </cc:Work>
    </rdf:RDF>
  </metadata>
  <g
     inkscape:label="Ebene 1"
     inkscape:groupmode="layer"
     id="layer1">
    <g
       id="g4227"
       transform="matrix(24.96077,0,0,24.96077,-7552.1189,-9966.3715)">
      <path
         id="path5"
         d="m 318.16757,413.22914 c -0.94907,0 -1.85049,0.1867 -2.71679,0.5586 -1.72082,0.7385 -2.98911,1.99034 -3.72852,3.71484 -0.37052,0.864 -0.55078,1.76915 -0.55078,2.71875 l 0.84961,0 c 0,-0.6663 0.10772,-1.30929 0.31445,-1.92969 l 2.00391,0 c -0.0995,0.651 -0.14453,1.29409 -0.14453,1.92969 l 0.84961,0 c 0,-0.6433 0.053,-1.28639 0.16796,-1.92969 l 2.52735,0 0,1.92969 0.86328,0 0,-1.92969 2.52734,0 c 0.11495,0.6433 0.16797,1.28639 0.16797,1.92969 l 0.84961,0 c 0,-0.6356 -0.0449,-1.27869 -0.14453,-1.92969 l 2.00391,0 c 0.20672,0.6204 0.31445,1.26339 0.31445,1.92969 l 0.84961,0 c 0,-0.9496 -0.18693,-1.85185 -0.5586,-2.71875 -0.73811,-1.7218 -1.99331,-2.97444 -3.72851,-3.71484 -0.86727,-0.3701 -1.76754,-0.5586 -2.7168,-0.5586 z m -0.42773,0.91797 0,3.30274 -2.35156,0 c 0.23726,-0.8731 0.56126,-1.60832 0.98046,-2.19922 0.42277,-0.5962 0.87353,-0.96562 1.3711,-1.10352 z m 0.86328,0 c 0.49757,0.1379 0.9483,0.50732 1.37109,1.10352 0.41934,0.5909 0.7432,1.32612 0.98047,2.19922 l -2.35156,0 0,-3.30274 z m -2.76172,0.38477 c -0.6047,0.7658 -1.04871,1.73847 -1.33203,2.91797 l -1.83008,0 c 0.67358,-1.3097 1.8074,-2.35907 3.16211,-2.91797 z m 4.66016,0 c 1.35489,0.5589 2.48851,1.60827 3.16211,2.91797 l -1.83008,0 c -0.28316,-1.1795 -0.72733,-2.15217 -1.33203,-2.91797 z m -8.64649,8.68945 c 0.0111,0.0233 0.0258,0.0433 0.0371,0.0664 l 0.0449,-0.0664 -0.082,0 z m 3.24805,0 -0.36133,0.54102 c 0.0509,0.15813 0.10477,0.31162 0.16211,0.46094 l 0.91406,0 c -0.13587,-0.31132 -0.25793,-0.64219 -0.35937,-1.00196 l -0.35547,0 z m 2.98828,0 -0.35156,0.51172 0,0.49024 0.43359,0 0.42969,-0.64454 0,-0.35742 -0.51172,0 z m 2.78906,0 c -0.10453,0.35993 -0.22825,0.6904 -0.36523,1.00196 l 0.73437,0 0.37696,-0.54883 c 0.0467,-0.15011 0.0975,-0.29542 0.13867,-0.45313 l -0.88477,0 z m -7.90039,0.25196 -0.51562,0.75 0.77148,0 0.12305,-0.1836 c -0.14032,-0.17838 -0.2592,-0.37287 -0.37891,-0.5664 z m 10.19336,0.2832 c -0.11215,0.1603 -0.22467,0.31821 -0.35156,0.4668 l 0.35156,0 0,-0.4668 z"
         style="fill:url(#linearGradient4169);fill-opacity:1"
         inkscape:connector-curvature="0" />
      <rect
         y="412.22131"
         x="310.17148"
         height="16"
         width="16"
         id="rect4160"
         style="opacity:1;fill:none;fill-opacity:1;stroke:none;stroke-width:23;stroke-linecap:butt;stroke-linejoin:round;stroke-miterlimit:4;stroke-dasharray:none;stroke-opacity:1" />
      <g
         transform="translate(310.17148,-625.14083)"
         id="g4408">
        <rect
           style="color:#000000;clip-rule:nonzero;display:inline;overflow:visible;visibility:visible;opacity:1;isolation:auto;mix-blend-mode:normal;color-interpolation:sRGB;color-interpolation-filters:linearRGB;solid-color:#000000;solid-opacity:1;fill:#99b000;fill-opacity:1;fill-rule:nonzero;stroke:none;stroke-width:2;stroke-linecap:butt;stroke-linejoin:round;stroke-miterlimit:4;stroke-dasharray:none;stroke-dashoffset:0;stroke-opacity:1;color-rendering:auto;image-rendering:auto;shape-rendering:auto;text-rendering:auto;enable-background:accumulate"
           id="rect4318"
           width="16"
           height="5"
           x="2.0144128e-007"
           y="1046.3622"
           ry="0.40909401" />
        <rect
           style="color:#252525;clip-rule:nonzero;display:inline;overflow:visible;visibility:visible;opacity:1;isolation:auto;mix-blend-mode:normal;color-interpolation:sRGB;color-interpolation-filters:linearRGB;solid-color:#252525;solid-opacity:1;fill:#99b000;fill-opacity:1;fill-rule:nonzero;stroke:none;stroke-width:2;stroke-linecap:butt;stroke-linejoin:round;stroke-miterlimit:4;stroke-dasharray:none;stroke-dashoffset:60.95968628;stroke-opacity:1;color-rendering:auto;image-rendering:auto;shape-rendering:auto;text-rendering:auto;enable-background:accumulate"
           id="rect4167"
           width="14.001704"
           height="3.0006614"
           x="2.1634244e-007"
           y="1047.3622"
           ry="0.40909389" />
        <path
           style="fill:#ffffff;fill-rule:evenodd;stroke:none;stroke-width:1px;stroke-linecap:butt;stroke-linejoin:miter;stroke-opacity:1"
           d="m 3.0622614,1047.3622 -2.0622612,2.9992 2,0 2,-3.0006 z"
           id="path4263"
           inkscape:connector-curvature="0" />
        <path
           inkscape:connector-curvature="0"
           id="path4265"
           d="m 8.0000002,1047.3622 -2.0622612,2.9991 2,0 2,-3.0006 z"
           style="fill:#ffffff;fill-rule:evenodd;stroke:none;stroke-width:1px;stroke-linecap:butt;stroke-linejoin:miter;stroke-opacity:1" />
        <path
           style="fill:#ffffff;fill-rule:evenodd;stroke:none;stroke-width:1px;stroke-linecap:butt;stroke-linejoin:miter;stroke-opacity:1"
           d="M 13.062261,1047.3637 11,1050.3629 l 2,0 2,-3.0007 z"
           id="path4267"
           inkscape:connector-curvature="0" />
      </g>
      <flowRoot
         style="font-style:normal;font-weight:normal;font-size:1.60000002px;line-height:125%;font-family:sans-serif;letter-spacing:0px;word-spacing:0px;fill:#252525;fill-opacity:1;stroke:none;stroke-width:1px;stroke-linecap:butt;stroke-linejoin:miter;stroke-opacity:1"
         id="flowRoot4169"
         xml:space="preserve"
         transform="translate(310.17148,-624.14083)"><flowRegion
           id="flowRegion4171"><rect
             y="1040.5294"
             x="-3.9310036"
             height="3.5515449"
             width="2.2573378"
             id="rect4173" /></flowRegion><flowPara
           id="flowPara4175" /></flowRoot>      <rect
         inkscape:export-ydpi="4.9499998"
         inkscape:export-xdpi="4.9499998"
         y="412.19617"
         x="310.22464"
         height="16"
         width="16"
         id="rect3336"
         style="fill:none;fill-rule:evenodd;stroke:none;stroke-width:1px;stroke-linecap:butt;stroke-linejoin:miter;stroke-opacity:1" />
      <rect
         ry="0.40909401"
         y="425.22131"
         x="310.17148"
         height="3"
         width="2"
         id="rect4415"
         style="color:#000000;clip-rule:nonzero;display:inline;overflow:visible;visibility:visible;opacity:1;isolation:auto;mix-blend-mode:normal;color-interpolation:sRGB;color-interpolation-filters:linearRGB;solid-color:#000000;solid-opacity:1;fill:#99b000;fill-opacity:1;fill-rule:nonzero;stroke:none;stroke-width:2;stroke-linecap:butt;stroke-linejoin:round;stroke-miterlimit:4;stroke-dasharray:none;stroke-dashoffset:0;stroke-opacity:1;color-rendering:auto;image-rendering:auto;shape-rendering:auto;text-rendering:auto;enable-background:accumulate" />
      <rect
         style="color:#000000;clip-rule:nonzero;display:inline;overflow:visible;visibility:visible;opacity:1;isolation:auto;mix-blend-mode:normal;color-interpolation:sRGB;color-interpolation-filters:linearRGB;solid-color:#000000;solid-opacity:1;fill:#99b000;fill-opacity:1;fill-rule:nonzero;stroke:none;stroke-width:2;stroke-linecap:butt;stroke-linejoin:round;stroke-miterlimit:4;stroke-dasharray:none;stroke-dashoffset:0;stroke-opacity:1;color-rendering:auto;image-rendering:auto;shape-rendering:auto;text-rendering:auto;enable-background:accumulate"
         id="rect4417"
         width="2"
         height="3"
         x="324.17148"
         y="425.22131"
         ry="0.40909401" />
    </g>
  </g>
</svg>
