<?xml version="1.0" encoding="UTF-8" standalone="no"?>
<!-- Created with Inkscape (http://www.inkscape.org/) -->

<svg
   xmlns:dc="http://purl.org/dc/elements/1.1/"
   xmlns:cc="http://creativecommons.org/ns#"
   xmlns:rdf="http://www.w3.org/1999/02/22-rdf-syntax-ns#"
   xmlns:svg="http://www.w3.org/2000/svg"
   xmlns="http://www.w3.org/2000/svg"
   xmlns:xlink="http://www.w3.org/1999/xlink"
   xmlns:sodipodi="http://sodipodi.sourceforge.net/DTD/sodipodi-0.dtd"
   xmlns:inkscape="http://www.inkscape.org/namespaces/inkscape"
   width="210mm"
   height="297mm"
   viewBox="0 0 744.09448819 1052.3622047"
   id="svg2"
   version="1.1"
   inkscape:version="0.91 r13725"
   inkscape:export-xdpi="3.5999999"
   inkscape:export-ydpi="3.5999999"
   sodipodi:docname="slide-audio.svg"
   inkscape:export-filename="D:\Dokumente\Arbeit\RRZE\github\bicons\16x16\emblems\slide-audio.png">
  <defs
     id="defs4">
    <linearGradient
       id="linearGradient2224">
      <stop
         id="stop2226"
         offset="0"
         style="stop-color:#7c7c7c;stop-opacity:1;" />
      <stop
         id="stop2228"
         offset="1"
         style="stop-color:#b8b8b8;stop-opacity:1;" />
    </linearGradient>
    <linearGradient
       id="linearGradient15218">
      <stop
         id="stop15220"
         offset="0"
         style="stop-color:#eeeeef;stop-opacity:1;" />
      <stop
         id="stop2736"
         offset="0.59928656"
         style="stop-color:#d3d7cf;stop-opacity:1;" />
      <stop
         id="stop2738"
         offset="0.82758623"
         style="stop-color:#ffffff;stop-opacity:1;" />
      <stop
         id="stop15222"
         offset="1"
         style="stop-color:#d3d7cf;stop-opacity:1;" />
    </linearGradient>
    <pattern
       y="0"
       x="0"
       height="6"
       width="6"
       patternUnits="userSpaceOnUse"
       id="EMFhbasepattern" />
    <pattern
       y="0"
       x="0"
       height="6"
       width="6"
       patternUnits="userSpaceOnUse"
       id="EMFhbasepattern-5" />
    <linearGradient
       inkscape:collect="always"
       xlink:href="#linearGradient4167"
       id="linearGradient4187"
       x1="315.36963"
       y1="650.72552"
       x2="520.4306"
       y2="387.68182"
       gradientUnits="userSpaceOnUse"
       gradientTransform="matrix(0.03508965,0,0,0.03508965,420.28468,573.9934)" />
    <linearGradient
       inkscape:collect="always"
       id="linearGradient4167">
      <stop
         style="stop-color:#4e505d;stop-opacity:1;"
         offset="0"
         id="stop4169" />
      <stop
         style="stop-color:#7a8597;stop-opacity:1"
         offset="1"
         id="stop4171" />
    </linearGradient>
  </defs>
  <sodipodi:namedview
     id="base"
     pagecolor="#ffffff"
     bordercolor="#666666"
     borderopacity="1.0"
     inkscape:pageopacity="0.0"
     inkscape:pageshadow="2"
     inkscape:zoom="1"
     inkscape:cx="186.1024"
     inkscape:cy="471.38102"
     inkscape:document-units="px"
     inkscape:current-layer="layer1"
     showgrid="false"
     showguides="true"
     inkscape:guide-bbox="true"
     inkscape:window-width="1600"
     inkscape:window-height="837"
     inkscape:window-x="-4"
     inkscape:window-y="-4"
     inkscape:window-maximized="1"
     inkscape:snap-bbox="true"
     inkscape:bbox-paths="true"
     inkscape:bbox-nodes="true"
     inkscape:snap-nodes="false">
    <sodipodi:guide
       position="560,730.00002"
       orientation="0,1"
       id="guide3338" />
    <sodipodi:guide
       position="560,330.00001"
       orientation="0,1"
       id="guide3340" />
    <sodipodi:guide
       position="190,475.00001"
       orientation="1,0"
       id="guide3344" />
    <sodipodi:guide
       position="590,451.00001"
       orientation="1,0"
       id="guide3346" />
    <inkscape:grid
       type="xygrid"
       id="grid3440" />
    <sodipodi:guide
       position="564.97831,532.80496"
       orientation="1,0"
       id="guide4184" />
    <sodipodi:guide
       position="214.75,539.25"
       orientation="1,0"
       id="guide4186" />
  </sodipodi:namedview>
  <metadata
     id="metadata7">
    <rdf:RDF>
      <cc:Work
         rdf:about="">
        <dc:format>image/svg+xml</dc:format>
        <dc:type
           rdf:resource="http://purl.org/dc/dcmitype/StillImage" />
        <dc:title>slide audio</dc:title>
        <dc:date>June 2015</dc:date>
        <dc:creator>
          <cc:Agent>
            <dc:title>Johannes Hechler</dc:title>
          </cc:Agent>
        </dc:creator>
        <dc:rights>
          <cc:Agent>
            <dc:title>Johannes Hechler</dc:title>
          </cc:Agent>
        </dc:rights>
        <dc:publisher>
          <cc:Agent>
            <dc:title>RRZE</dc:title>
          </cc:Agent>
        </dc:publisher>
        <dc:contributor>
          <cc:Agent>
            <dc:title>Ute Weber, Hendrik Eggers</dc:title>
          </cc:Agent>
        </dc:contributor>
      </cc:Work>
    </rdf:RDF>
  </metadata>
  <g
     inkscape:label="Ebene 1"
     inkscape:groupmode="layer"
     id="layer1">
    <g
       id="g4182"
       transform="matrix(24.982173,0,0,24.982173,-10452.263,-14251.293)">
      <rect
         y="583.36218"
         x="425.99429"
         height="16"
         width="16"
         id="rect4160"
         style="opacity:1;fill:none;fill-opacity:1;stroke:none;stroke-width:23;stroke-linecap:butt;stroke-linejoin:round;stroke-miterlimit:4;stroke-dasharray:none;stroke-opacity:1" />
      <path
         sodipodi:nodetypes="sssscsccccccccccccscccccccccccsssssccccccccscccccccscccscc"
         inkscape:connector-curvature="0"
         id="rect4169"
         d="m 426.91228,585.3133 c -0.1536,0 -0.2774,0.1237 -0.2774,0.2773 l 0,0.5527 c 0,0.1537 0.1238,0.2774 0.2774,0.2774 l 0.1386,0 0,7.2891 c 0,0.384 0.6914,0.6933 0.6914,0.6933 l 3.6407,0 -1.4336,2.7227 c -0.2168,0.3755 -0.088,0.8515 0.2871,1.0683 l 0.1094,0.064 c 0.3755,0.2168 0.8515,0.088 1.0683,-0.2871 l 1.5996,-2.3711 0,1.6133 c 0.094,-1.6965 1.7219,-2.8516 3.4825,-2.8516 0.082,1e-4 0.1572,0.026 0.2324,0.055 l -0.01,-0.014 0.2734,0 0,-5.6406 c 0,-0.059 0.025,-0.085 0.035,-0.1387 0,-0.015 -0.01,-0.043 -0.01,-0.043 -0.14,-0.6245 0.3346,-1.218 0.9746,-1.2188 l 0,0 0.4003,0 0.1993,0 0.4004,0 c 0.4087,4e-4 0.776,0.2494 0.9277,0.6289 0,0 0.4796,1.1483 0.873,1.7383 0.01,0.01 0.1771,0.1174 0.2207,0.1484 l 0,-3.457 0.1387,0 c 0.1536,0 0.2774,-0.1238 0.2774,-0.2774 l 0,-0.5546 c 0,-0.1536 -0.1238,-0.2754 -0.2774,-0.2754 z m 12.082,5.2558 0,0.2012 c 0.036,0 0.072,0 0.1074,0.01 -0.06,-0.093 -0.05,-0.115 -0.1074,-0.211 z m -2.502,5.793 c -0.3045,3e-4 -0.55,0.072 -0.7675,0.166 l 0.9511,1.418 c 0.095,0.164 0.2425,0.2706 0.4063,0.332 0.5827,-0.1728 0.9121,-0.584 0.9121,-0.914 0,-0.032 2e-4,-0.062 -0.01,-0.094 -0.024,-0.1321 -0.02,-0.2676 0.01,-0.3984 l 0,-0.049 -0.031,-0.061 c -0.1708,0 -0.3376,-0.053 -0.4844,-0.1406 -0.2619,-0.1578 -0.6182,-0.2593 -0.9864,-0.2598 z m -1.4668,0.8965 c -0.01,0.034 -0.031,0.071 -0.031,0.1035 0,0.033 0.025,0.069 0.031,0.1035 z m -2.0117,0.2519 0,0.029 c 0,0.01 0.01,0.015 0.01,0.023 0,-0.018 0,-0.035 -0.01,-0.053 z"
         style="opacity:1;fill:url(#linearGradient4187);fill-opacity:1;stroke:none;stroke-width:16;stroke-linecap:round;stroke-linejoin:round;stroke-miterlimit:4;stroke-dasharray:none;stroke-opacity:1" />
      <path
         sodipodi:nodetypes="ssssccsccccccccccssssccscccccccccccsccssssccsccssccccc"
         style="opacity:1;fill:#ffffff;fill-opacity:1;stroke:none;stroke-width:16;stroke-linecap:round;stroke-linejoin:round;stroke-miterlimit:4;stroke-dasharray:none;stroke-opacity:1"
         d="m 429.39468,587.3621 c -0.2216,0 -0.4004,0.1788 -0.4004,0.4004 l 0,0.1992 c 0,0.2216 0.1788,0.4004 0.4004,0.4004 l 6.6211,0 c 0,-0.3592 0.1072,-0.7005 0.2832,-1 z m 8.6035,0.9805 c 9e-4,0 9e-4,0.017 0,0.019 l 0.5937,0 0.01,0 -0.1992,0 -0.3106,0 0.084,-0.016 c -0.057,0.01 -0.1155,0.016 -0.1738,0.016 l -0.01,-0.017 z m -8.6133,1.041 c -0.2168,0 -0.3906,0.1738 -0.3906,0.3906 l 0,0.1973 c 0,0.2168 0.1738,0.3906 0.3906,0.3906 l 6.6114,0 0,-0.9785 z m 8.6172,0 0,0.9785 0.023,0 0,-0.01 c 0.01,-0.032 0.016,-0.064 0.027,-0.096 0.011,-0.032 0.023,-0.063 0.037,-0.094 0.028,-0.061 0.061,-0.1181 0.1,-0.1719 0.019,-0.027 0.04,-0.053 0.062,-0.078 0.1119,-0.1257 0.2536,-0.2211 0.4121,-0.2774 0.032,-0.011 0.064,-0.02 0.096,-0.027 0.058,-0.014 0.1178,-0.023 0.1777,-0.027 -0.067,-0.1187 -0.1892,-0.2012 -0.3359,-0.2012 l -0.6016,0 z m -8.6074,1.9785 c -0.2216,0 -0.4004,0.1788 -0.4004,0.4004 l 0,0.1992 c 0,0.2216 0.1788,0.4004 0.4004,0.4004 l 6.6016,0 0,-1 z m 8.6074,0 0,1 0.5918,0 c 0.2216,0 0.4004,-0.1788 0.4004,-0.4004 l 0,-0.1973 c -0.01,2e-4 -0.021,2e-4 -0.031,0 -0.2996,-0.013 -0.5778,-0.1587 -0.7579,-0.3984 l -0.2031,0 z"
         id="rect4174"
         inkscape:connector-curvature="0" />
      <path
         sodipodi:nodetypes="ccsccssccsccccsscccc"
         inkscape:connector-curvature="0"
         id="path4307"
         d="m 437.99428,588.3621 c 0,0 0.042,0.187 0.049,0.2188 -0.028,0.055 -0.049,0.115 -0.049,0.1816 l 0,7.0019 c -0.4324,-0.2605 -0.9587,-0.4016 -1.5,-0.4023 -1.3807,0 -2.5,0.8954 -2.5,2 0,1.1046 1.1193,2 2.5,2 1.3807,0 2.5,-0.8954 2.5,-2 -9e-4,-0.09 -0.01,-0.1802 -0.025,-0.2695 0.014,-0.041 0.025,-0.085 0.025,-0.1309 l 0,-5.1894 c 0.5227,0.4074 1.6976,0.4122 1.9219,1.0586 0.2655,0.7655 0.1875,1.5156 0.1875,1.5156 l 0.875,-0.016 c 0,0 0.078,-0.625 -0.031,-1.9219 -0.1094,-1.2969 -1.4843,-1.375 -1.9843,-2.125 -0.5,-0.75 -0.9688,-1.9219 -0.9688,-1.9219 l -0.4004,0 -0.1992,0 z"
         style="color:#000000;clip-rule:nonzero;display:inline;overflow:visible;visibility:visible;opacity:1;isolation:auto;mix-blend-mode:normal;color-interpolation:sRGB;color-interpolation-filters:linearRGB;solid-color:#000000;solid-opacity:1;fill:#99b000;fill-opacity:1;fill-rule:nonzero;stroke:none;stroke-width:2;stroke-linecap:butt;stroke-linejoin:round;stroke-miterlimit:4;stroke-dasharray:none;stroke-dashoffset:0;stroke-opacity:1;color-rendering:auto;image-rendering:auto;shape-rendering:auto;text-rendering:auto;enable-background:accumulate" />
    </g>
  </g>
</svg>
