<?xml version="1.0" encoding="UTF-8" standalone="no"?>
<!-- Created with Inkscape (http://www.inkscape.org/) -->

<svg
   xmlns:dc="http://purl.org/dc/elements/1.1/"
   xmlns:cc="http://creativecommons.org/ns#"
   xmlns:rdf="http://www.w3.org/1999/02/22-rdf-syntax-ns#"
   xmlns:svg="http://www.w3.org/2000/svg"
   xmlns="http://www.w3.org/2000/svg"
   xmlns:xlink="http://www.w3.org/1999/xlink"
   xmlns:sodipodi="http://sodipodi.sourceforge.net/DTD/sodipodi-0.dtd"
   xmlns:inkscape="http://www.inkscape.org/namespaces/inkscape"
   width="210mm"
   height="297mm"
   viewBox="0 0 744.09448819 1052.3622047"
   id="svg2"
   version="1.1"
   inkscape:version="0.91 r13725"
   inkscape:export-xdpi="3.5999997"
   inkscape:export-ydpi="3.5999997"
   sodipodi:docname="slide-audio-visual.svg"
   inkscape:export-filename="D:\Dokumente\Arbeit\RRZE\github\bicons\16x16\emblems\slide-audio-visual.png">
  <defs
     id="defs4">
    <linearGradient
       id="linearGradient2224">
      <stop
         id="stop2226"
         offset="0"
         style="stop-color:#7c7c7c;stop-opacity:1;" />
      <stop
         id="stop2228"
         offset="1"
         style="stop-color:#b8b8b8;stop-opacity:1;" />
    </linearGradient>
    <linearGradient
       id="linearGradient15218">
      <stop
         id="stop15220"
         offset="0"
         style="stop-color:#eeeeef;stop-opacity:1;" />
      <stop
         id="stop2736"
         offset="0.59928656"
         style="stop-color:#d3d7cf;stop-opacity:1;" />
      <stop
         id="stop2738"
         offset="0.82758623"
         style="stop-color:#ffffff;stop-opacity:1;" />
      <stop
         id="stop15222"
         offset="1"
         style="stop-color:#d3d7cf;stop-opacity:1;" />
    </linearGradient>
    <pattern
       y="0"
       x="0"
       height="6"
       width="6"
       patternUnits="userSpaceOnUse"
       id="EMFhbasepattern" />
    <pattern
       y="0"
       x="0"
       height="6"
       width="6"
       patternUnits="userSpaceOnUse"
       id="EMFhbasepattern-5" />
    <linearGradient
       inkscape:collect="always"
       xlink:href="#linearGradient4167"
       id="linearGradient4187"
       x1="315.36963"
       y1="650.72552"
       x2="520.4306"
       y2="387.68182"
       gradientUnits="userSpaceOnUse"
       gradientTransform="matrix(0.03508965,0,0,0.03508965,392.8496,518.04379)" />
    <linearGradient
       inkscape:collect="always"
       id="linearGradient4167">
      <stop
         style="stop-color:#4e505d;stop-opacity:1;"
         offset="0"
         id="stop4169" />
      <stop
         style="stop-color:#7a8597;stop-opacity:1"
         offset="1"
         id="stop4171" />
    </linearGradient>
  </defs>
  <sodipodi:namedview
     id="base"
     pagecolor="#ffffff"
     bordercolor="#666666"
     borderopacity="1.0"
     inkscape:pageopacity="0.0"
     inkscape:pageshadow="2"
     inkscape:zoom="0.37140961"
     inkscape:cx="363.17059"
     inkscape:cy="550.80301"
     inkscape:document-units="px"
     inkscape:current-layer="layer1"
     showgrid="false"
     showguides="true"
     inkscape:guide-bbox="true"
     inkscape:window-width="1600"
     inkscape:window-height="837"
     inkscape:window-x="-4"
     inkscape:window-y="-4"
     inkscape:window-maximized="1"
     inkscape:snap-bbox="true"
     inkscape:bbox-nodes="true"
     inkscape:snap-nodes="false">
    <sodipodi:guide
       position="560,730.00002"
       orientation="0,1"
       id="guide3338" />
    <sodipodi:guide
       position="560,330.00001"
       orientation="0,1"
       id="guide3340" />
    <sodipodi:guide
       position="190,475.00001"
       orientation="1,0"
       id="guide3344" />
    <sodipodi:guide
       position="590,451.00001"
       orientation="1,0"
       id="guide3346" />
    <inkscape:grid
       type="xygrid"
       id="grid3440" />
    <sodipodi:guide
       position="564.97831,532.80496"
       orientation="1,0"
       id="guide4184" />
    <sodipodi:guide
       position="214.75,539.25"
       orientation="1,0"
       id="guide4186" />
  </sodipodi:namedview>
  <metadata
     id="metadata7">
    <rdf:RDF>
      <cc:Work
         rdf:about="">
        <dc:format>image/svg+xml</dc:format>
        <dc:type
           rdf:resource="http://purl.org/dc/dcmitype/StillImage" />
        <dc:title>slide audio visual</dc:title>
        <dc:date>June 2015</dc:date>
        <dc:creator>
          <cc:Agent>
            <dc:title>Johannes Hechler</dc:title>
          </cc:Agent>
        </dc:creator>
        <dc:rights>
          <cc:Agent>
            <dc:title>Johannes Hechler</dc:title>
          </cc:Agent>
        </dc:rights>
        <dc:publisher>
          <cc:Agent>
            <dc:title>RRZE</dc:title>
          </cc:Agent>
        </dc:publisher>
        <dc:contributor>
          <cc:Agent>
            <dc:title>Ute Weber, Hendrik Eggers</dc:title>
          </cc:Agent>
        </dc:contributor>
      </cc:Work>
    </rdf:RDF>
  </metadata>
  <g
     inkscape:label="Ebene 1"
     inkscape:groupmode="layer"
     id="layer1">
    <g
       id="g4193"
       transform="matrix(24.999953,0,0,24.999953,-9773.9613,-12862.928)">
      <rect
         y="527.4126"
         x="398.5592"
         height="16"
         width="16"
         id="rect4160"
         style="opacity:1;fill:none;fill-opacity:1;stroke:none;stroke-width:23;stroke-linecap:butt;stroke-linejoin:round;stroke-miterlimit:4;stroke-dasharray:none;stroke-opacity:1" />
      <path
         id="rect4169"
         d="m 399.4772,529.36369 c -0.1536,0 -0.2774,0.1237 -0.2774,0.2773 l 0,0.5527 c 0,0.1537 0.1238,0.2774 0.2774,0.2774 l 0.1386,0 0,6.9414 2.9434,0 c 0.8094,0 1.3832,0.5694 1.6953,1.2734 l 1.7715,-1.1191 c 0.6658,-0.4195 1.5328,0.059 1.5332,0.8457 l 0,0.3047 c 0.4657,-0.1906 1.9807,-0.3379 2.5078,-0.3379 0.082,10e-5 0.1572,0.026 0.2324,0.055 l -0.01,-0.014 0.2734,0 0,-5.5898 c -0.013,-0.063 -0.019,-0.1111 -0.018,-0.2012 -0.01,-0.09 0,-0.131 0.012,-0.1582 0,-0.01 0,-0.01 0,-0.016 0,-0.02 0,-0.033 0.01,-0.049 -0.014,-0.4669 0.3,-0.8798 0.7481,-0.9941 l 0.2421,0 c 0,0 0,0 0,0 a 1.0001,1.0001 0 0 1 0.017,0 l 0.4004,0 0,-0.01 0.1992,0 0.4004,0 a 1.0001,1.0001 0 0 1 0.9297,0.6289 c 0,0 0.055,0.1209 0.066,0.1485 l 0,-1.7129 0.1387,0 c 0.1536,0 0.2773,-0.1236 0.2773,-0.2774 l 0,-0.5546 c 0,-0.1536 -0.1237,-0.2754 -0.2773,-0.2754 l -14.2402,0 z m 10.0937,11.1172 c -0.4688,0.1176 -0.7761,0.3815 -0.9082,0.6543 l 0.5781,0.8613 c 0.095,0.164 0.2425,0.2706 0.4063,0.332 0.5827,-0.1728 0.9121,-0.584 0.9121,-0.914 0,-0.032 6e-4,-0.062 -0.01,-0.094 -0.024,-0.1321 -0.02,-0.2676 0.01,-0.3984 l 0,-0.049 -0.031,-0.061 c -0.1708,0 -0.3376,-0.053 -0.4844,-0.1406 -0.1358,-0.082 -0.2977,-0.1461 -0.4727,-0.1914 z m -4.6543,0.1504 -0.4726,0.2988 0.1914,0.1191 0.2812,-0.4179 z m -2.2148,0.1874 -0.1875,0.3575 c -0.1595,0.2761 -0.1301,0.6058 0.045,0.8476 l 0,-0.4668 c 8e-4,-0.2267 0.079,-0.4463 0.2207,-0.623 -0.029,-0.037 -0.055,-0.075 -0.078,-0.1153 z"
         style="opacity:1;fill:url(#linearGradient4187);fill-opacity:1;stroke:none;stroke-width:16;stroke-linecap:round;stroke-linejoin:round;stroke-miterlimit:4;stroke-dasharray:none;stroke-opacity:1"
         inkscape:connector-curvature="0" />
      <path
         sodipodi:nodetypes="ssssccsssssccsssssccs"
         style="opacity:1;fill:#ffffff;fill-opacity:1;stroke:none;stroke-width:16;stroke-linecap:round;stroke-linejoin:round;stroke-miterlimit:4;stroke-dasharray:none;stroke-opacity:1"
         d="m 401.9596,531.41249 c -0.2216,-3e-4 -0.4004,0.1788 -0.4004,0.4004 l 0,0.1992 c 0,0.2216 0.1788,0.4001 0.4004,0.4004 l 7.6044,0.011 c 0,-0.3592 0.1072,-0.7005 0.2832,-1 z m -0.01,2.0215 c -0.2168,-3e-4 -0.3906,0.1738 -0.3906,0.3906 l 0,0.1973 c 0,0.2168 0.1738,0.3906 0.3906,0.3906 l 7.5947,0.011 0,-0.9785 z m 0.01,1.9785 c -0.2216,-3e-4 -0.4004,0.1788 -0.4004,0.4004 l 0,0.1992 c 0,0.2216 0.1788,0.4004 0.4004,0.4004 l 7.5849,0.011 0,-1 z"
         id="rect4174"
         inkscape:connector-curvature="0" />
      <path
         sodipodi:nodetypes="ccsccssccsccccsscccc"
         inkscape:connector-curvature="0"
         id="path4307"
         d="m 411.5791,532.41289 c 0,0 -0.035,0.176 -0.028,0.2078 -0.028,0.055 0.028,0.126 0.028,0.1926 l 0,7.0019 c -0.4324,-0.2605 -0.9587,-0.4016 -1.5,-0.4023 -1.3807,0 -2.5,0.8954 -2.5,2 0,1.1046 1.1193,2 2.5,2 1.3807,0 2.5,-0.8954 2.5,-2 -9e-4,-0.09 -0.01,-0.1802 -0.025,-0.2695 0.014,-0.041 0.025,-0.085 0.025,-0.1309 l 0,-5.1894 c 0.5227,0.4074 0.6663,0.3809 0.8906,1.0273 0.2655,0.7655 0.1875,1.5156 0.1875,1.5156 l 0.875,-0.016 c 0,0 0.078,-0.625 -0.031,-1.9219 -0.1094,-1.2969 -0.453,-1.3437 -0.953,-2.0937 -0.5,-0.75 -0.9688,-1.9219 -0.9688,-1.9219 l -0.4004,0 -0.1992,0 z"
         style="color:#000000;clip-rule:nonzero;display:inline;overflow:visible;visibility:visible;opacity:1;isolation:auto;mix-blend-mode:normal;color-interpolation:sRGB;color-interpolation-filters:linearRGB;solid-color:#000000;solid-opacity:1;fill:#99b000;fill-opacity:1;fill-rule:nonzero;stroke:none;stroke-width:2;stroke-linecap:butt;stroke-linejoin:round;stroke-miterlimit:4;stroke-dasharray:none;stroke-dashoffset:0;stroke-opacity:1;color-rendering:auto;image-rendering:auto;shape-rendering:auto;text-rendering:auto;enable-background:accumulate" />
      <path
         id="rect4287"
         d="m 399.5592,538.41249 c -0.554,0 -1,0.446 -1,1 l 0,3 c 0,0.554 0.446,1 1,1 l 3,0 c 0.554,0 1,-0.446 1,-1 l 0,-0.8555 3,1.8555 0,-5 -3,1.8945 0,-0.8945 c 0,-0.554 -0.446,-1 -1,-1 l -3,0 z"
         style="color:#000000;clip-rule:nonzero;display:inline;overflow:visible;visibility:visible;opacity:1;isolation:auto;mix-blend-mode:normal;color-interpolation:sRGB;color-interpolation-filters:linearRGB;solid-color:#000000;solid-opacity:1;fill:#99b000;fill-opacity:1;fill-rule:nonzero;stroke:none;stroke-width:36;stroke-linecap:round;stroke-linejoin:round;stroke-miterlimit:4;stroke-dasharray:none;stroke-dashoffset:0;stroke-opacity:1;color-rendering:auto;image-rendering:auto;shape-rendering:auto;text-rendering:auto;enable-background:accumulate"
         inkscape:connector-curvature="0" />
    </g>
  </g>
</svg>
