<?xml version="1.0" encoding="UTF-8" standalone="no"?>
<!-- Created with Inkscape (http://www.inkscape.org/) -->

<svg
   xmlns:dc="http://purl.org/dc/elements/1.1/"
   xmlns:cc="http://creativecommons.org/ns#"
   xmlns:rdf="http://www.w3.org/1999/02/22-rdf-syntax-ns#"
   xmlns:svg="http://www.w3.org/2000/svg"
   xmlns="http://www.w3.org/2000/svg"
   xmlns:xlink="http://www.w3.org/1999/xlink"
   xmlns:sodipodi="http://sodipodi.sourceforge.net/DTD/sodipodi-0.dtd"
   xmlns:inkscape="http://www.inkscape.org/namespaces/inkscape"
   width="210mm"
   height="297mm"
   viewBox="0 0 744.09448819 1052.3622047"
   id="svg2"
   version="1.1"
   inkscape:version="0.91 r13725"
   inkscape:export-xdpi="3.5999999"
   inkscape:export-ydpi="3.5999999"
   sodipodi:docname="structured-program-stay-abroad.svg"
   inkscape:export-filename="D:\Dokumente\Arbeit\RRZE\github\bicons\16x16\emblems\structured-program-stay-abroad.png">
  <title
     id="title4162">structured program stay abroad</title>
  <defs
     id="defs4">
    <linearGradient
       id="linearGradient2224">
      <stop
         id="stop2226"
         offset="0"
         style="stop-color:#7c7c7c;stop-opacity:1;" />
      <stop
         id="stop2228"
         offset="1"
         style="stop-color:#b8b8b8;stop-opacity:1;" />
    </linearGradient>
    <linearGradient
       id="linearGradient15218">
      <stop
         id="stop15220"
         offset="0"
         style="stop-color:#eeeeef;stop-opacity:1;" />
      <stop
         id="stop2736"
         offset="0.59928656"
         style="stop-color:#d3d7cf;stop-opacity:1;" />
      <stop
         id="stop2738"
         offset="0.82758623"
         style="stop-color:#ffffff;stop-opacity:1;" />
      <stop
         id="stop15222"
         offset="1"
         style="stop-color:#d3d7cf;stop-opacity:1;" />
    </linearGradient>
    <pattern
       y="0"
       x="0"
       height="6"
       width="6"
       patternUnits="userSpaceOnUse"
       id="EMFhbasepattern" />
    <pattern
       y="0"
       x="0"
       height="6"
       width="6"
       patternUnits="userSpaceOnUse"
       id="EMFhbasepattern-5" />
    <linearGradient
       inkscape:collect="always"
       xlink:href="#linearGradient4167"
       id="linearGradient4187"
       x1="315.36963"
       y1="650.72552"
       x2="520.4306"
       y2="387.68182"
       gradientUnits="userSpaceOnUse"
       gradientTransform="matrix(0.88037911,0,0,0.87123303,-144.63221,-231.03689)" />
    <linearGradient
       inkscape:collect="always"
       id="linearGradient4167">
      <stop
         style="stop-color:#4e505d;stop-opacity:1;"
         offset="0"
         id="stop4169" />
      <stop
         style="stop-color:#7a8597;stop-opacity:1"
         offset="1"
         id="stop4171" />
    </linearGradient>
  </defs>
  <sodipodi:namedview
     id="base"
     pagecolor="#ffffff"
     bordercolor="#666666"
     borderopacity="1.0"
     inkscape:pageopacity="0.0"
     inkscape:pageshadow="2"
     inkscape:zoom="0.70710678"
     inkscape:cx="303.78494"
     inkscape:cy="388.80646"
     inkscape:document-units="px"
     inkscape:current-layer="layer1"
     showgrid="false"
     showguides="true"
     inkscape:guide-bbox="true"
     inkscape:window-width="1600"
     inkscape:window-height="837"
     inkscape:window-x="-4"
     inkscape:window-y="-4"
     inkscape:window-maximized="1"
     inkscape:snap-bbox="true"
     inkscape:bbox-nodes="true">
    <sodipodi:guide
       position="560,730.00002"
       orientation="0,1"
       id="guide3338" />
    <sodipodi:guide
       position="560,330.00001"
       orientation="0,1"
       id="guide3340" />
    <sodipodi:guide
       position="190,475.00001"
       orientation="1,0"
       id="guide3344" />
    <sodipodi:guide
       position="590,451.00001"
       orientation="1,0"
       id="guide3346" />
    <inkscape:grid
       type="xygrid"
       id="grid3440" />
  </sodipodi:namedview>
  <metadata
     id="metadata7">
    <rdf:RDF>
      <cc:Work
         rdf:about="">
        <dc:format>image/svg+xml</dc:format>
        <dc:type
           rdf:resource="http://purl.org/dc/dcmitype/StillImage" />
        <dc:title>structured program stay abroad</dc:title>
        <dc:date>June 2015</dc:date>
        <dc:creator>
          <cc:Agent>
            <dc:title>Johannes Hechler</dc:title>
          </cc:Agent>
        </dc:creator>
        <dc:rights>
          <cc:Agent>
            <dc:title>Johannes Hechler</dc:title>
          </cc:Agent>
        </dc:rights>
        <dc:publisher>
          <cc:Agent>
            <dc:title>RRZE</dc:title>
          </cc:Agent>
        </dc:publisher>
        <dc:contributor>
          <cc:Agent>
            <dc:title>Ute Weber, Hendrik Eggers</dc:title>
          </cc:Agent>
        </dc:contributor>
      </cc:Work>
    </rdf:RDF>
  </metadata>
  <g
     inkscape:label="Ebene 1"
     inkscape:groupmode="layer"
     id="layer1">
    <g
       transform="translate(190,-329.99998)"
       id="g4326">
      <path
         inkscape:connector-curvature="0"
         id="rect4169"
         transform="translate(0,652.36216)"
         d="m 21.632812,50 c -3.853314,0 -7.53937,3.153537 -7.535156,6.966797 l 0.01172,11.148437 C 14.113575,71.928534 17.213092,75 21.066406,75 l 3.476563,0 0.566406,183.49609 C 25.138815,268.02931 42.5,275.70703 42.5,275.70703 l 91.32812,0 -35.968745,67.60742 c -5.439377,9.32345 -2.233768,21.16408 7.187505,26.54688 l 2.73046,1.55859 c 9.42127,5.3828 21.38682,2.21012 26.82618,-7.11328 l 40.14062,-58.87695 0,48.15429 c 0,10.7657 12.76971,21.41602 23.64844,21.41602 l 3.15234,0 c 10.87874,0 23.65235,-10.65032 23.65235,-21.41602 l 0,-43.5 c -4.57356,-2.33084 -9.03677,-4.90823 -13.34766,-7.76171 -50.29408,-32.00754 -73.08408,-95.31639 -56.7793,-152 15.59036,-58.561724 70.51942,-100.235492 130.83203,-100.304692 22.92576,-0.28803 45.4082,5.394771 65.39063,15.869141 8.55266,4.319914 16.47703,9.53504 23.72656,15.470703 L 375,75 l 3.47656,0 c 3.85328,0 6.76487,-3.076316 6.95703,-6.884766 L 386,56.884766 C 386.19216,53.076346 382.89625,50 379.04297,50 L 21.632812,50 Z m 229.822268,30.423828 -0.66797,12.115234 c 2.85801,-3.02039 5.96651,-5.942031 9.58984,-8.607421 a 25.0025,25.0025 0 0 1 6.80274,-3.507813 l -15.72461,0 z m -18.78516,233.197262 33.94336,50.04102 c 5.43938,9.3234 17.4049,12.49608 26.82617,7.11328 l 2.72657,-1.55859 c 9.42127,-5.383 12.25164,-17.01872 7.1875,-26.54688 l -9.37305,-17.63476 c -20.93657,0.92511 -41.99745,-2.99361 -61.31055,-11.41407 z"
         style="opacity:1;fill:url(#linearGradient4187);fill-opacity:1;stroke:none;stroke-width:16;stroke-linecap:round;stroke-linejoin:round;stroke-miterlimit:4;stroke-dasharray:none;stroke-opacity:1" />
      <path
         sodipodi:nodetypes="ssssccssssscccsssssccs"
         inkscape:connector-curvature="0"
         id="rect4174"
         transform="translate(0,652.36216)"
         d="m 60.226562,75.365234 c -5.426551,0 -9.796874,4.368371 -9.796874,9.794922 l 0,4.898438 c 0,5.426551 4.370323,9.794922 9.796874,9.794922 l 90.044918,0 c 5.60134,-8.801086 12.02791,-16.99662 19.16016,-24.488282 z M 60.005859,125 C 54.462658,125 50,129.46266 50,135.00586 l 0,5.00391 c 0,5.5432 4.462658,10.0039 10.005859,10.0039 l 69.304691,0 c 0.51389,-2.12531 1.07163,-4.2445 1.67578,-6.35742 1.71513,-6.40197 3.82083,-12.62754 6.27929,-18.65625 z m 0,49.98633 C 54.462658,174.98633 50,179.44899 50,184.99219 l 0,5.00195 C 50,195.53734 54.462658,200 60.005859,200 l 65.289061,0 c -0.62738,-8.29087 -0.62392,-16.65478 0.0391,-25.01367 z"
         style="opacity:1;fill:#ffffff;fill-opacity:1;stroke:none;stroke-width:16;stroke-linecap:round;stroke-linejoin:round;stroke-miterlimit:4;stroke-dasharray:none;stroke-opacity:1" />
      <rect
         y="652.36218"
         x="-4.5458984e-007"
         height="400"
         width="400"
         id="rect4160"
         style="opacity:1;fill:none;fill-opacity:1;stroke:none;stroke-width:23;stroke-linecap:butt;stroke-linejoin:round;stroke-miterlimit:4;stroke-dasharray:none;stroke-opacity:1" />
      <path
         inkscape:connector-curvature="0"
         id="path5"
         d="m 286.04367,727.37282 c -48.40654,0.004 -94.52595,35.06178 -106.89346,81.9919 -13.23111,45.61762 5.96958,98.77942 46.26019,124.32754 33.25492,22.13346 78.51985,25.15287 113.83696,6.01947 39.00767,-19.82723 64.1589,-63.97087 60.37769,-107.72259 -2.60859,-38.03738 -25.49919,-74.27033 -59.7324,-91.4995 -16.50966,-8.69547 -35.17171,-13.38164 -53.84898,-13.11682 z M 275.1156,757.7853 c -0.61478,11.22299 0.62894,22.78216 -0.0997,33.7927 -7.33894,0.31266 -14.73983,-0.0478 -22.11127,0.14012 4.47836,-13.22393 10.73426,-26.78853 22.28582,-35.28607 l -0.0542,0.98128 -0.0205,0.37197 z m 25.05189,-1.08836 c 11.5508,8.58526 17.28887,22.07144 22.08442,35.16323 -7.46641,-0.0323 -14.93224,-0.23668 -22.399,-0.15356 0.2287,-11.61027 -0.51819,-23.71404 0.31458,-35.00967 z m 39.85861,12.59957 c 8.18087,6.15243 15.42383,13.79808 21.10229,22.41394 -4.30341,-0.43061 -10.02714,0.98592 -13.55028,-0.6891 -2.08072,-7.58179 -4.71642,-15.02358 -8.09294,-22.12794 l 0.54093,0.4031 z m -104.91872,0.41845 c -3.2851,7.07651 -5.86729,14.46766 -7.89153,21.99933 -4.1146,-0.3077 -10.39402,0.69384 -13.05346,-0.45684 5.78884,-8.57163 12.95516,-16.26345 21.33055,-22.35252 l -0.38556,0.81003 z m -12.5739,46.3846 c -1.84714,15.59471 -1.86088,31.40905 -0.0153,47.00458 -6.58019,-0.33552 -14.03222,1.30117 -20.10481,-0.68333 -3.90785,-15.11832 -3.89489,-31.25972 0.39323,-46.32125 6.57564,0 13.15129,0 19.72693,0 z m 52.59172,0 c -0.12501,15.68258 0.33272,31.45274 -0.19566,47.07944 -9.24253,-0.0534 -18.57522,0.2896 -27.74507,-0.10173 -2.0219,-15.50975 -2.19525,-31.51335 0.11701,-46.97771 9.27457,0 18.54915,0 27.82372,0 z m 52.55334,0 c 2.31373,15.52052 2.14053,31.43834 0.10743,47.11591 -9.31614,0 -18.63227,0 -27.9484,0 0,-15.70531 0,-31.41061 0,-47.11591 9.28032,0 18.56065,0 27.84097,0 z m 44.49685,0 c 4.31088,15.1945 4.34416,31.78077 0.17839,47.11591 -6.63511,0 -13.27021,0 -19.90532,0 1.86227,-15.63095 1.84775,-31.48425 -0.002,-47.11591 6.57629,0 13.15257,0 19.72885,0 z m -118.25223,71.4935 c 7.05858,0.36582 14.12175,-0.19924 21.18285,-0.0614 -0.13243,11.89568 0.39475,23.86907 -0.1266,35.69301 -11.88057,-8.49555 -17.66594,-22.58352 -22.43161,-35.71797 l 0.98019,0.0615 0.39517,0.0249 z m -26.73033,-0.006 c 2.10945,7.99158 4.80809,15.84542 8.33656,23.32571 -8.64168,-6.35777 -16.14287,-14.33081 -21.883,-23.32571 4.51548,0 9.03095,0 13.54644,0 z m 94.96701,0 c -4.33448,13.29374 -10.76949,27.17226 -22.38941,35.93871 0.1852,-11.97885 0.007,-23.95923 0.0614,-35.93871 7.44268,0 14.88536,0 22.32803,0 z m 39.17188,0 c -5.76925,9.03755 -13.24721,16.96887 -21.87725,23.32187 3.52674,-7.47938 6.22672,-15.33081 8.33273,-23.32187 4.51484,0 9.02968,0 13.54452,0 z"
         style="fill:#99b000;fill-opacity:1" />
    </g>
  </g>
</svg>
