<?xml version="1.0" encoding="UTF-8" standalone="no"?>
<!-- Created with Inkscape (http://www.inkscape.org/) -->

<svg
   xmlns:dc="http://purl.org/dc/elements/1.1/"
   xmlns:cc="http://creativecommons.org/ns#"
   xmlns:rdf="http://www.w3.org/1999/02/22-rdf-syntax-ns#"
   xmlns:svg="http://www.w3.org/2000/svg"
   xmlns="http://www.w3.org/2000/svg"
   xmlns:xlink="http://www.w3.org/1999/xlink"
   xmlns:sodipodi="http://sodipodi.sourceforge.net/DTD/sodipodi-0.dtd"
   xmlns:inkscape="http://www.inkscape.org/namespaces/inkscape"
   width="210mm"
   height="297mm"
   viewBox="0 0 744.09448819 1052.3622047"
   id="svg2"
   version="1.1"
   inkscape:version="0.91 r13725"
   inkscape:export-xdpi="3.5999999"
   inkscape:export-ydpi="3.5999999"
   sodipodi:docname="system-source.svg"
   inkscape:export-filename="D:\Dokumente\Arbeit\RRZE\github\bicons\16x16\emblems\system-source.png">
  <defs
     id="defs4">
    <linearGradient
       id="linearGradient2224">
      <stop
         id="stop2226"
         offset="0"
         style="stop-color:#7c7c7c;stop-opacity:1;" />
      <stop
         id="stop2228"
         offset="1"
         style="stop-color:#b8b8b8;stop-opacity:1;" />
    </linearGradient>
    <linearGradient
       id="linearGradient15218">
      <stop
         id="stop15220"
         offset="0"
         style="stop-color:#eeeeef;stop-opacity:1;" />
      <stop
         id="stop2736"
         offset="0.59928656"
         style="stop-color:#d3d7cf;stop-opacity:1;" />
      <stop
         id="stop2738"
         offset="0.82758623"
         style="stop-color:#ffffff;stop-opacity:1;" />
      <stop
         id="stop15222"
         offset="1"
         style="stop-color:#d3d7cf;stop-opacity:1;" />
    </linearGradient>
    <pattern
       y="0"
       x="0"
       height="6"
       width="6"
       patternUnits="userSpaceOnUse"
       id="EMFhbasepattern" />
    <pattern
       y="0"
       x="0"
       height="6"
       width="6"
       patternUnits="userSpaceOnUse"
       id="EMFhbasepattern-5" />
    <linearGradient
       gradientTransform="translate(0,-652.36218)"
       inkscape:collect="always"
       xlink:href="#linearGradient4280"
       id="linearGradient4286"
       x1="48"
       y1="1045.3622"
       x2="302"
       y2="687.36218"
       gradientUnits="userSpaceOnUse" />
    <linearGradient
       inkscape:collect="always"
       id="linearGradient4280">
      <stop
         style="stop-color:#4e505d;stop-opacity:1;"
         offset="0"
         id="stop4282" />
      <stop
         style="stop-color:#7a859c;stop-opacity:1"
         offset="1"
         id="stop4284" />
    </linearGradient>
  </defs>
  <sodipodi:namedview
     id="base"
     pagecolor="#ffffff"
     bordercolor="#666666"
     borderopacity="1.0"
     inkscape:pageopacity="0.0"
     inkscape:pageshadow="2"
     inkscape:zoom="0.70710678"
     inkscape:cx="166.03117"
     inkscape:cy="485.80537"
     inkscape:document-units="px"
     inkscape:current-layer="layer1"
     showgrid="false"
     showguides="true"
     inkscape:guide-bbox="true"
     inkscape:window-width="1600"
     inkscape:window-height="837"
     inkscape:window-x="-4"
     inkscape:window-y="-4"
     inkscape:window-maximized="1"
     inkscape:snap-bbox="true"
     inkscape:bbox-nodes="true">
    <sodipodi:guide
       position="560,730.00002"
       orientation="0,1"
       id="guide3338" />
    <sodipodi:guide
       position="560,330.00001"
       orientation="0,1"
       id="guide3340" />
    <sodipodi:guide
       position="190,475.00001"
       orientation="1,0"
       id="guide3344" />
    <sodipodi:guide
       position="590,451.00001"
       orientation="1,0"
       id="guide3346" />
    <inkscape:grid
       type="xygrid"
       id="grid3440" />
  </sodipodi:namedview>
  <metadata
     id="metadata7">
    <rdf:RDF>
      <cc:Work
         rdf:about="">
        <dc:format>image/svg+xml</dc:format>
        <dc:type
           rdf:resource="http://purl.org/dc/dcmitype/StillImage" />
        <dc:title>system source</dc:title>
        <dc:date>June 2015</dc:date>
        <dc:creator>
          <cc:Agent>
            <dc:title>Johannes Hechler</dc:title>
          </cc:Agent>
        </dc:creator>
        <dc:rights>
          <cc:Agent>
            <dc:title>Johannes Hechler</dc:title>
          </cc:Agent>
        </dc:rights>
        <dc:publisher>
          <cc:Agent>
            <dc:title>RRZE</dc:title>
          </cc:Agent>
        </dc:publisher>
        <dc:contributor>
          <cc:Agent>
            <dc:title>Ute Weber, Hendrik Eggers</dc:title>
          </cc:Agent>
        </dc:contributor>
      </cc:Work>
    </rdf:RDF>
  </metadata>
  <g
     inkscape:label="Ebene 1"
     inkscape:groupmode="layer"
     id="layer1">
    <g
       id="g4193"
       transform="translate(25.999992,22)">
      <g
         id="g4580"
         transform="translate(164,-351.99996)">
        <g
           id="g4575">
          <rect
             y="652.38055"
             x="3.1591796e-006"
             height="399.05487"
             width="400"
             id="rect4160"
             style="opacity:1;fill:none;fill-opacity:1;stroke:none;stroke-width:23;stroke-linecap:butt;stroke-linejoin:round;stroke-miterlimit:4;stroke-dasharray:none;stroke-opacity:1" />
          <path
             id="path4172-4-7"
             transform="translate(0,652.36216)"
             d="m 248,0 -4.14258,27.011719 c -3.93837,1.25781 -7.75054,2.875085 -11.39258,4.828125 l -22.69922,-15.451172 -20.6621,21.478516 16.41601,22.205078 c -1.49627,3.03087 -2.76319,6.168541 -3.78711,9.388672 L 175,73.486328 175,103.25 l 27.39648,4.19141 0,-0.0371 c 1.30925,3.84747 2.9653,7.56723 4.94727,11.11718 l -15.54297,22.73047 21.54492,20.5918 22.59375,-16.57813 -0.63281,-0.60742 c 2.91499,1.42479 5.92953,2.63814 9.01953,3.63086 l 1.71094,11.25 5.01758,-16.72265 C 254.2277,132.24239 263.96017,125.00099 275,125 l 25,0 c 13.58596,0.01 24.67788,10.86658 24.97852,24.44922 L 336.75,137.20703 320.18359,114.76172 c 1.31178,-2.70582 2.44093,-5.49548 3.37891,-8.35156 L 350,102.45312 350,72.697266 323.53906,68.738281 c -1.25173,-3.91202 -2.85868,-7.702175 -4.80273,-11.322265 l 15.14844,-22.052735 -21.54493,-20.589843 -21.52343,15.90625 c -2.85415,-1.41397 -5.80449,-2.624317 -8.83008,-3.623047 L 277.8457,0 Z m 14.79883,60.166016 c 12.12838,0 27.23047,15.089121 27.23047,27.207031 0,12.11792 -15.10209,27.207033 -27.23047,27.207033 -12.12836,0 -27.23047,-15.089113 -27.23047,-27.207033 0,-12.11791 15.10211,-27.207031 27.23047,-27.207031 z M 129.28516,150 l -5.91602,38.58789 c -5.62626,1.79686 -11.0744,4.10644 -16.27734,6.89649 l -32.425784,-22.07032 -29.519532,30.6836 23.453125,31.71875 c -2.13753,4.32981 -3.947406,8.81388 -5.410156,13.41406 L 25,254.98047 25,297.5 l 39.138672,5.98633 0,-0.0527 c 1.87036,5.49639 4.235016,10.81144 7.066406,15.88282 l -22.203125,32.4707 30.779297,29.41797 32.27539,-23.68164 -0.9043,-0.86914 c 4.16428,2.0354 8.47048,3.76734 12.88477,5.18554 L 129.84375,400 l 42.64063,0 5.39257,-35.06641 -65.38086,-46.57226 c -0.58794,-0.41852 -1.15748,-0.86229 -1.70703,-1.33008 l -26.999998,-23 c -11.716243,-9.98267 -11.716243,-28.07983 0,-38.0625 l 26.999998,-23 c 0.54955,-0.46779 1.11909,-0.91156 1.70703,-1.33008 L 177.34766,185.44336 171.92383,150 Z"
             style="opacity:1;fill:url(#linearGradient4286);fill-opacity:1;stroke:none;stroke-width:20.62700081;stroke-linecap:square;stroke-linejoin:miter;stroke-miterlimit:4;stroke-dasharray:none;stroke-opacity:1"
             inkscape:connector-curvature="0"
             sodipodi:nodetypes="cccccccccccccccccccccccccccccccccccsssssccccccccccccccccccccccccccccc" />
          <path
             sodipodi:nodetypes="ccccccccccccccccccccccccccc"
             inkscape:connector-curvature="0"
             id="path4563"
             transform="translate(0,652.36216)"
             d="m 271,150 -71,250 29,0 71,-250 z m -71,50 -73,52 -27,23 27,23 73,52 0,-32 -50,-32 -19,-11 19,-11 50,-32 z m 100,0 0,32 50,30 17,13 -17,13 -50,30 0,32 73,-52 27,-23 -27,-23 z"
             style="fill:#99b000;fill-rule:evenodd;stroke:none;stroke-width:1px;stroke-linecap:butt;stroke-linejoin:miter;stroke-opacity:1" />
        </g>
      </g>
    </g>
  </g>
</svg>
