<?xml version="1.0" encoding="UTF-8" standalone="no"?>
<!-- Created with Inkscape (http://www.inkscape.org/) -->

<svg
   xmlns:dc="http://purl.org/dc/elements/1.1/"
   xmlns:cc="http://creativecommons.org/ns#"
   xmlns:rdf="http://www.w3.org/1999/02/22-rdf-syntax-ns#"
   xmlns:svg="http://www.w3.org/2000/svg"
   xmlns="http://www.w3.org/2000/svg"
   xmlns:xlink="http://www.w3.org/1999/xlink"
   xmlns:sodipodi="http://sodipodi.sourceforge.net/DTD/sodipodi-0.dtd"
   xmlns:inkscape="http://www.inkscape.org/namespaces/inkscape"
   width="210mm"
   height="297mm"
   viewBox="0 0 744.09448819 1052.3622047"
   id="svg2"
   version="1.1"
   inkscape:version="0.91 r13725"
   inkscape:export-xdpi="3.5999999"
   inkscape:export-ydpi="3.5999999"
   sodipodi:docname="system.svg"
   inkscape:export-filename="D:\Dokumente\Arbeit\RRZE\github\bicons\16x16\emblems\system.png">
  <title
     id="title4157">system</title>
  <defs
     id="defs4">
    <linearGradient
       id="linearGradient2224">
      <stop
         id="stop2226"
         offset="0"
         style="stop-color:#7c7c7c;stop-opacity:1;" />
      <stop
         id="stop2228"
         offset="1"
         style="stop-color:#b8b8b8;stop-opacity:1;" />
    </linearGradient>
    <linearGradient
       id="linearGradient15218">
      <stop
         id="stop15220"
         offset="0"
         style="stop-color:#eeeeef;stop-opacity:1;" />
      <stop
         id="stop2736"
         offset="0.59928656"
         style="stop-color:#d3d7cf;stop-opacity:1;" />
      <stop
         id="stop2738"
         offset="0.82758623"
         style="stop-color:#ffffff;stop-opacity:1;" />
      <stop
         id="stop15222"
         offset="1"
         style="stop-color:#d3d7cf;stop-opacity:1;" />
    </linearGradient>
    <pattern
       y="0"
       x="0"
       height="6"
       width="6"
       patternUnits="userSpaceOnUse"
       id="EMFhbasepattern" />
    <pattern
       y="0"
       x="0"
       height="6"
       width="6"
       patternUnits="userSpaceOnUse"
       id="EMFhbasepattern-5" />
    <linearGradient
       gradientTransform="translate(212.95036,-319.01636)"
       inkscape:collect="always"
       xlink:href="#linearGradient4280"
       id="linearGradient4286"
       x1="48"
       y1="1045.3622"
       x2="302"
       y2="687.36218"
       gradientUnits="userSpaceOnUse" />
    <linearGradient
       inkscape:collect="always"
       id="linearGradient4280">
      <stop
         style="stop-color:#4e505d;stop-opacity:1;"
         offset="0"
         id="stop4282" />
      <stop
         style="stop-color:#7a859c;stop-opacity:1"
         offset="1"
         id="stop4284" />
    </linearGradient>
  </defs>
  <sodipodi:namedview
     id="base"
     pagecolor="#ffffff"
     bordercolor="#666666"
     borderopacity="1.0"
     inkscape:pageopacity="0.0"
     inkscape:pageshadow="2"
     inkscape:zoom="0.70710678"
     inkscape:cx="334.63692"
     inkscape:cy="564.96436"
     inkscape:document-units="px"
     inkscape:current-layer="layer1"
     showgrid="false"
     showguides="true"
     inkscape:guide-bbox="true"
     inkscape:window-width="1600"
     inkscape:window-height="837"
     inkscape:window-x="-4"
     inkscape:window-y="-4"
     inkscape:window-maximized="1"
     inkscape:snap-bbox="true"
     inkscape:bbox-nodes="true">
    <sodipodi:guide
       position="560,730.00002"
       orientation="0,1"
       id="guide3338" />
    <sodipodi:guide
       position="560,330.00001"
       orientation="0,1"
       id="guide3340" />
    <sodipodi:guide
       position="190,475.00001"
       orientation="1,0"
       id="guide3344" />
    <sodipodi:guide
       position="590,451.00001"
       orientation="1,0"
       id="guide3346" />
    <inkscape:grid
       type="xygrid"
       id="grid3440" />
  </sodipodi:namedview>
  <metadata
     id="metadata7">
    <rdf:RDF>
      <cc:Work
         rdf:about="">
        <dc:format>image/svg+xml</dc:format>
        <dc:type
           rdf:resource="http://purl.org/dc/dcmitype/StillImage" />
        <dc:title>system</dc:title>
        <dc:date>June 2015</dc:date>
        <dc:creator>
          <cc:Agent>
            <dc:title>Johannes Hechler</dc:title>
          </cc:Agent>
        </dc:creator>
        <dc:rights>
          <cc:Agent>
            <dc:title>Johannes Hechler</dc:title>
          </cc:Agent>
        </dc:rights>
        <dc:publisher>
          <cc:Agent>
            <dc:title>RRZE</dc:title>
          </cc:Agent>
        </dc:publisher>
        <dc:contributor>
          <cc:Agent>
            <dc:title>Ute Weber, Hendrik Eggers</dc:title>
          </cc:Agent>
        </dc:contributor>
      </cc:Work>
    </rdf:RDF>
  </metadata>
  <g
     inkscape:label="Ebene 1"
     inkscape:groupmode="layer"
     id="layer1">
    <g
       id="g4191"
       transform="translate(-22.950368,-10.983638)">
      <rect
         y="333.3642"
         x="212.95036"
         height="399.05487"
         width="400"
         id="rect4160"
         style="opacity:1;fill:none;fill-opacity:1;stroke:none;stroke-width:23;stroke-linecap:butt;stroke-linejoin:round;stroke-miterlimit:4;stroke-dasharray:none;stroke-opacity:1" />
      <path
         inkscape:connector-curvature="0"
         id="path4172-4-7"
         d="m 460.95036,333.34582 -4.14258,27.01172 c -3.93837,1.25781 -7.75054,2.87509 -11.39258,4.82813 l -22.69922,-15.45118 -20.6621,21.47852 16.41601,22.20508 c -1.49627,3.03087 -2.76319,6.16854 -3.78711,9.38867 l -26.73242,4.02539 0,29.76367 27.39648,4.19141 0,-0.0371 c 1.30925,3.84747 2.9653,7.56723 4.94727,11.11718 l -15.54297,22.73047 21.54492,20.5918 22.59375,-16.57813 -0.63281,-0.60742 c 2.91499,1.42479 5.92953,2.63814 9.01953,3.63086 l 4.06445,26.71094 29.84961,0 4.17774,-27.16992 c 3.73933,-1.23838 7.36188,-2.80192 10.82812,-4.66992 l 22.8418,15.5332 20.66211,-21.48634 -16.56641,-22.44531 c 1.31178,-2.70582 2.44093,-5.49548 3.37891,-8.35156 l 26.4375,-3.95704 0,-29.75585 -26.46094,-3.95899 c -1.25173,-3.91202 -2.85868,-7.70217 -4.80273,-11.32226 l 15.14844,-22.05274 -21.54493,-20.58984 -21.52343,15.90625 c -2.85415,-1.41397 -5.80449,-2.62432 -8.83008,-3.62305 l -4.14063,-27.05664 -29.8457,0 z m 14.79883,60.16602 c 12.12838,0 27.23047,15.08912 27.23047,27.20703 0,12.11792 -15.10209,27.20703 -27.23047,27.20703 -12.12836,0 -27.23047,-15.08911 -27.23047,-27.20703 0,-12.11791 15.10211,-27.20703 27.23047,-27.20703 z m -133.51367,89.83398 -5.91602,38.58789 c -5.62626,1.79686 -11.0744,4.10644 -16.27734,6.89649 l -32.42578,-22.07032 -29.51954,30.6836 23.45313,31.71875 c -2.13753,4.32981 -3.94741,8.81388 -5.41016,13.41406 l -38.18945,5.75 0,42.51953 39.13867,5.98633 0,-0.0527 c 1.87036,5.49639 4.23502,10.81144 7.06641,15.88282 l -22.20313,32.47067 30.7793,29.418 32.27539,-23.6817 -0.9043,-0.8691 c 4.16428,2.0354 8.47048,3.7673 12.88477,5.1855 l 5.80664,38.1602 42.64063,0 5.96874,-38.8145 c 5.34191,-1.7691 10.51893,-4.0014 15.47071,-6.6699 l 32.63086,22.1895 29.51758,-30.69336 -23.66797,-32.06641 c 1.87398,-3.86544 3.48622,-7.84958 4.82617,-11.92969 l 37.76953,-5.65433 0,-42.50977 -37.80078,-5.65429 c -1.78819,-5.5886 -4.08607,-11.00228 -6.86328,-16.17383 l 21.64258,-31.50391 -30.7793,-29.41601 -30.7461,22.7246 c -4.07733,-2.01995 -8.29295,-3.74903 -12.61523,-5.17578 l -5.91406,-38.65234 -42.63867,0 z m 21.14062,85.95117 c 17.32624,0 38.90234,21.55589 38.90234,38.86719 0,17.3113 -21.5761,38.86914 -38.90234,38.86914 -17.32625,0 -38.90039,-21.55784 -38.90039,-38.86914 0,-17.3113 21.57414,-38.86719 38.90039,-38.86719 z"
         style="opacity:1;fill:url(#linearGradient4286);fill-opacity:1;stroke:none;stroke-width:20.62700081;stroke-linecap:square;stroke-linejoin:miter;stroke-miterlimit:4;stroke-dasharray:none;stroke-opacity:1" />
    </g>
  </g>
</svg>
