<?xml version="1.0" encoding="UTF-8" standalone="no"?>
<!-- Created with Inkscape (http://www.inkscape.org/) -->

<svg
   xmlns:dc="http://purl.org/dc/elements/1.1/"
   xmlns:cc="http://creativecommons.org/ns#"
   xmlns:rdf="http://www.w3.org/1999/02/22-rdf-syntax-ns#"
   xmlns:svg="http://www.w3.org/2000/svg"
   xmlns="http://www.w3.org/2000/svg"
   xmlns:xlink="http://www.w3.org/1999/xlink"
   xmlns:sodipodi="http://sodipodi.sourceforge.net/DTD/sodipodi-0.dtd"
   xmlns:inkscape="http://www.inkscape.org/namespaces/inkscape"
   width="210mm"
   height="297mm"
   viewBox="0 0 744.09448819 1052.3622047"
   id="svg2"
   version="1.1"
   inkscape:version="0.91 r13725"
   inkscape:export-xdpi="3.5998118"
   inkscape:export-ydpi="3.5998118"
   sodipodi:docname="system-source.svg"
   inkscape:export-filename="D:\Dokumente\Arbeit\RRZE\github\bicons\16x16\emblems\system-source.png">
  <defs
     id="defs4">
    <linearGradient
       id="linearGradient2224">
      <stop
         id="stop2226"
         offset="0"
         style="stop-color:#7c7c7c;stop-opacity:1;" />
      <stop
         id="stop2228"
         offset="1"
         style="stop-color:#b8b8b8;stop-opacity:1;" />
    </linearGradient>
    <linearGradient
       id="linearGradient15218">
      <stop
         id="stop15220"
         offset="0"
         style="stop-color:#eeeeef;stop-opacity:1;" />
      <stop
         id="stop2736"
         offset="0.59928656"
         style="stop-color:#d3d7cf;stop-opacity:1;" />
      <stop
         id="stop2738"
         offset="0.82758623"
         style="stop-color:#ffffff;stop-opacity:1;" />
      <stop
         id="stop15222"
         offset="1"
         style="stop-color:#d3d7cf;stop-opacity:1;" />
    </linearGradient>
    <pattern
       y="0"
       x="0"
       height="6"
       width="6"
       patternUnits="userSpaceOnUse"
       id="EMFhbasepattern" />
    <pattern
       y="0"
       x="0"
       height="6"
       width="6"
       patternUnits="userSpaceOnUse"
       id="EMFhbasepattern-5" />
    <linearGradient
       gradientTransform="matrix(0.04,0,0,0.04,-6672,3021.9055)"
       inkscape:collect="always"
       xlink:href="#linearGradient4280"
       id="linearGradient4286"
       x1="48"
       y1="1045.3622"
       x2="302"
       y2="687.36218"
       gradientUnits="userSpaceOnUse" />
    <linearGradient
       inkscape:collect="always"
       id="linearGradient4280">
      <stop
         style="stop-color:#4e505d;stop-opacity:1;"
         offset="0"
         id="stop4282" />
      <stop
         style="stop-color:#7a859c;stop-opacity:1"
         offset="1"
         id="stop4284" />
    </linearGradient>
  </defs>
  <sodipodi:namedview
     id="base"
     pagecolor="#ffffff"
     bordercolor="#666666"
     borderopacity="1.0"
     inkscape:pageopacity="0.0"
     inkscape:pageshadow="2"
     inkscape:zoom="0.70710678"
     inkscape:cx="172.39513"
     inkscape:cy="512.67543"
     inkscape:document-units="px"
     inkscape:current-layer="layer1"
     showgrid="false"
     showguides="true"
     inkscape:guide-bbox="true"
     inkscape:window-width="1600"
     inkscape:window-height="837"
     inkscape:window-x="-4"
     inkscape:window-y="-4"
     inkscape:window-maximized="1"
     inkscape:snap-bbox="true"
     inkscape:bbox-nodes="true">
    <sodipodi:guide
       position="560,730.00002"
       orientation="0,1"
       id="guide3338" />
    <sodipodi:guide
       position="560,330.00001"
       orientation="0,1"
       id="guide3340" />
    <sodipodi:guide
       position="190,475.00001"
       orientation="1,0"
       id="guide3344" />
    <sodipodi:guide
       position="590,451.00001"
       orientation="1,0"
       id="guide3346" />
    <inkscape:grid
       type="xygrid"
       id="grid3440" />
  </sodipodi:namedview>
  <metadata
     id="metadata7">
    <rdf:RDF>
      <cc:Work
         rdf:about="">
        <dc:format>image/svg+xml</dc:format>
        <dc:type
           rdf:resource="http://purl.org/dc/dcmitype/StillImage" />
        <dc:title>system source</dc:title>
        <dc:date>June 2015</dc:date>
        <dc:creator>
          <cc:Agent>
            <dc:title>Johannes Hechler</dc:title>
          </cc:Agent>
        </dc:creator>
        <dc:rights>
          <cc:Agent>
            <dc:title>Johannes Hechler</dc:title>
          </cc:Agent>
        </dc:rights>
        <dc:publisher>
          <cc:Agent>
            <dc:title>RRZE</dc:title>
          </cc:Agent>
        </dc:publisher>
        <dc:contributor>
          <cc:Agent>
            <dc:title>Ute Weber, Hendrik Eggers</dc:title>
          </cc:Agent>
        </dc:contributor>
      </cc:Work>
    </rdf:RDF>
  </metadata>
  <g
     inkscape:label="Ebene 1"
     inkscape:groupmode="layer"
     id="layer1">
    <g
       transform="matrix(25.001308,0,0,25.001308,166998.73,-101792.06)"
       id="g4523">
      <rect
         y="4084.363"
         x="-6672"
         height="15.962194"
         width="16"
         id="rect4160"
         style="opacity:1;fill:none;fill-opacity:1;stroke:none;stroke-width:23;stroke-linecap:butt;stroke-linejoin:round;stroke-miterlimit:4;stroke-dasharray:none;stroke-opacity:1" />
      <path
         inkscape:connector-curvature="0"
         id="path4172-4-7"
         transform="translate(0,1036.3622)"
         d="m -6662.0801,3048.002 -0.166,1.0781 c -0.1575,0.05 -0.3094,0.1152 -0.4551,0.1933 l -0.9082,-0.6172 -0.8261,0.8594 0.6562,0.8867 c -0.06,0.1213 -0.1113,0.2482 -0.1523,0.377 l -1.0684,0.1602 0,1.1914 1.0957,0.166 c 0.052,0.1539 0.118,0.3033 0.1973,0.4453 l -0.6211,0.9101 0.8613,0.8223 0.9043,-0.6621 -0.025,-0.023 c 0.1166,0.057 0.2377,0.1048 0.3613,0.1445 l 0.1621,1.0684 1.1954,0 0.166,-1.0879 c 0.1496,-0.05 0.2949,-0.1108 0.4336,-0.1856 l 0.914,0.6211 0.8262,-0.8594 -0.6621,-0.8984 c 0.052,-0.1082 0.098,-0.2197 0.1348,-0.334 l 1.0566,-0.1582 0,-1.1894 -1.0586,-0.1582 c -0.05,-0.1565 -0.1137,-0.3084 -0.1914,-0.4532 l 0.6055,-0.8828 -0.8614,-0.8222 -0.8613,0.6347 c -0.1142,-0.056 -0.2325,-0.1046 -0.3535,-0.1445 l -0.166,-1.082 -1.1934,0 z m 0.5918,2.4042 c 0.4851,0 1.0899,0.6031 1.0899,1.0879 0,0.4847 -0.6048,1.0899 -1.0899,1.0899 -0.4852,0 -1.0898,-0.6052 -1.0898,-1.0899 0,-0.4848 0.6046,-1.0877 1.0898,-1.0879 z m -5.3398,3.5958 -0.2364,1.541 c -0.2251,0.072 -0.4442,0.1657 -0.6523,0.2773 l -1.2969,-0.8828 -1.1797,1.2266 0.9375,1.2695 c -0.086,0.1732 -0.1583,0.351 -0.2168,0.5352 l -1.5273,0.2304 0,1.7012 1.5664,0.2383 c 0.075,0.2198 0.1681,0.4338 0.2813,0.6367 l -0.8868,1.2988 1.2305,1.1758 1.1484,-0.8418 -0.8769,-0.4121 c -0.3517,-0.1646 -0.5764,-0.518 -0.5762,-0.9063 l 0,-1.0586 c 0,-0.3771 0.2122,-0.7223 0.5488,-0.8925 l 1.127,-0.5703 c 0.2418,-0.5767 0.8995,-1.1309 1.4551,-1.1309 0.1651,0 0.3393,0.053 0.5097,0.1367 l 0.9825,-0.498 c 0.2241,-0.1133 0.4608,-0.1277 0.6777,-0.076 l 1.2129,0 0.082,-0.2539 c 0.083,-0.256 0.265,-0.468 0.5059,-0.5879 l 0.092,-0.1348 -1.2324,-1.1777 -1.2286,0.9102 c -0.1631,-0.081 -0.3329,-0.15 -0.5058,-0.2071 l -0.2363,-1.5468 -1.7051,0 z"
         style="opacity:1;fill:url(#linearGradient4286);fill-opacity:1;stroke:none;stroke-width:20.62700081;stroke-linecap:square;stroke-linejoin:miter;stroke-miterlimit:4;stroke-dasharray:none;stroke-opacity:1" />
      <path
         sodipodi:nodetypes="cccccccc"
         inkscape:connector-curvature="0"
         id="path4213"
         style="font-style:normal;font-variant:normal;font-weight:bold;font-stretch:normal;font-size:medium;line-height:125%;font-family:arial;-inkscape-font-specification:'arial Bold';letter-spacing:0px;word-spacing:0px;fill:#99b000;fill-opacity:1;stroke:none;stroke-width:1px;stroke-linecap:butt;stroke-linejoin:miter;stroke-opacity:1"
         d="m -6664.0383,4099.3628 -4.0757,-1.9111 0,-1.0583 4.0757,-2.0622 0,1.2464 -2.7462,1.3319 2.7462,1.2156 z" />
      <path
         sodipodi:nodetypes="ccccc"
         inkscape:connector-curvature="0"
         id="path4215"
         style="font-style:normal;font-variant:normal;font-weight:bold;font-stretch:normal;font-size:medium;line-height:125%;font-family:arial;-inkscape-font-specification:'arial Bold';letter-spacing:0px;word-spacing:0px;fill:#99b000;fill-opacity:1;stroke:none;stroke-width:1px;stroke-linecap:butt;stroke-linejoin:miter;stroke-opacity:1"
         d="m -6663.7914,4100.3622 2.2264,-6.9493 0.9228,0 -2.2438,6.9493 z" />
      <path
         sodipodi:nodetypes="cccccccc"
         inkscape:connector-curvature="0"
         id="path4217"
         style="font-style:normal;font-variant:normal;font-weight:bold;font-stretch:normal;font-size:medium;line-height:125%;font-family:arial;-inkscape-font-specification:'arial Bold';letter-spacing:0px;word-spacing:0px;fill:#99b000;fill-opacity:1;stroke:none;stroke-width:1px;stroke-linecap:butt;stroke-linejoin:miter;stroke-opacity:1"
         d="m -6660.0801,4099.3672 0,-1.2377 2.7506,-1.2071 -2.7506,-1.3535 0,-1.2289 4.0801,2.0621 0,1.0496 z" />
    </g>
  </g>
</svg>
