<?xml version="1.0" encoding="UTF-8" standalone="no"?>
<!-- Created with Inkscape (http://www.inkscape.org/) -->

<svg
   xmlns:dc="http://purl.org/dc/elements/1.1/"
   xmlns:cc="http://creativecommons.org/ns#"
   xmlns:rdf="http://www.w3.org/1999/02/22-rdf-syntax-ns#"
   xmlns:svg="http://www.w3.org/2000/svg"
   xmlns="http://www.w3.org/2000/svg"
   xmlns:sodipodi="http://sodipodi.sourceforge.net/DTD/sodipodi-0.dtd"
   xmlns:inkscape="http://www.inkscape.org/namespaces/inkscape"
   width="210mm"
   height="297mm"
   viewBox="0 0 744.09448819 1052.3622047"
   id="svg2"
   version="1.1"
   inkscape:version="0.91 r13725"
   inkscape:export-xdpi="3.6000004"
   inkscape:export-ydpi="3.6000004"
   sodipodi:docname="timetable.svg"
   inkscape:export-filename="D:\Dokumente\Arbeit\RRZE\github\bicons\16x16\emblems\timetable.png">
  <defs
     id="defs4">
    <linearGradient
       id="linearGradient2224">
      <stop
         id="stop2226"
         offset="0"
         style="stop-color:#7c7c7c;stop-opacity:1;" />
      <stop
         id="stop2228"
         offset="1"
         style="stop-color:#b8b8b8;stop-opacity:1;" />
    </linearGradient>
    <linearGradient
       id="linearGradient15218">
      <stop
         id="stop15220"
         offset="0"
         style="stop-color:#eeeeef;stop-opacity:1;" />
      <stop
         id="stop2736"
         offset="0.59928656"
         style="stop-color:#d3d7cf;stop-opacity:1;" />
      <stop
         id="stop2738"
         offset="0.82758623"
         style="stop-color:#ffffff;stop-opacity:1;" />
      <stop
         id="stop15222"
         offset="1"
         style="stop-color:#d3d7cf;stop-opacity:1;" />
    </linearGradient>
    <pattern
       y="0"
       x="0"
       height="6"
       width="6"
       patternUnits="userSpaceOnUse"
       id="EMFhbasepattern" />
    <pattern
       y="0"
       x="0"
       height="6"
       width="6"
       patternUnits="userSpaceOnUse"
       id="EMFhbasepattern-5" />
  </defs>
  <sodipodi:namedview
     id="base"
     pagecolor="#ffffff"
     bordercolor="#666666"
     borderopacity="1.0"
     inkscape:pageopacity="0.0"
     inkscape:pageshadow="2"
     inkscape:zoom="0.70710678"
     inkscape:cx="337.73539"
     inkscape:cy="542.72197"
     inkscape:document-units="px"
     inkscape:current-layer="layer1"
     showgrid="false"
     showguides="true"
     inkscape:guide-bbox="true"
     inkscape:window-width="1600"
     inkscape:window-height="837"
     inkscape:window-x="-4"
     inkscape:window-y="-4"
     inkscape:window-maximized="1"
     inkscape:snap-bbox="true"
     inkscape:bbox-paths="true"
     inkscape:bbox-nodes="true">
    <sodipodi:guide
       position="315.53572,730.17859"
       orientation="0,1"
       id="guide3338" />
    <sodipodi:guide
       position="351.25,330.17858"
       orientation="0,1"
       id="guide3340" />
    <sodipodi:guide
       position="189.10714,408.8393"
       orientation="1,0"
       id="guide3344" />
    <sodipodi:guide
       position="589.04521,468.07945"
       orientation="1,0"
       id="guide3346" />
    <inkscape:grid
       type="xygrid"
       id="grid3440" />
    <sodipodi:guide
       position="589.04521,378.30213"
       orientation="1,0"
       id="guide3411" />
  </sodipodi:namedview>
  <metadata
     id="metadata7">
    <rdf:RDF>
      <cc:Work
         rdf:about="">
        <dc:format>image/svg+xml</dc:format>
        <dc:type
           rdf:resource="http://purl.org/dc/dcmitype/StillImage" />
        <dc:title>timetable</dc:title>
        <dc:date>June 2015</dc:date>
        <dc:creator>
          <cc:Agent>
            <dc:title>Johannes Hechler</dc:title>
          </cc:Agent>
        </dc:creator>
        <dc:rights>
          <cc:Agent>
            <dc:title>Johannes Hechler</dc:title>
          </cc:Agent>
        </dc:rights>
        <dc:publisher>
          <cc:Agent>
            <dc:title>RRZE</dc:title>
          </cc:Agent>
        </dc:publisher>
        <dc:contributor>
          <cc:Agent>
            <dc:title>Ute Weber, Hendrik Eggers</dc:title>
          </cc:Agent>
        </dc:contributor>
      </cc:Work>
    </rdf:RDF>
  </metadata>
  <g
     inkscape:label="Ebene 1"
     inkscape:groupmode="layer"
     id="layer1">
    <g
       id="g4280">
      <ellipse
         inkscape:export-ydpi="3.5900128"
         inkscape:export-xdpi="3.5900128"
         inkscape:export-filename="C:\Users\johannes\Desktop\g4199.png"
         ry="16.052956"
         rx="16.05707"
         cy="435.21964"
         cx="327.78998"
         id="path4190-9"
         style="opacity:1;fill:#ffffff;fill-opacity:1;stroke:#ffffff;stroke-width:50.00000381;stroke-linecap:round;stroke-linejoin:round;stroke-miterlimit:4;stroke-dasharray:none;stroke-opacity:1" />
      <rect
         inkscape:export-ydpi="3.5900128"
         inkscape:export-xdpi="3.5900128"
         inkscape:export-filename="C:\Users\johannes\Desktop\g4199.png"
         transform="matrix(-0.93972077,-0.34194279,-0.34209752,0.93966445,0,0)"
         rx="8.7432241"
         ry="9.9015579"
         y="296.69626"
         x="-465.52423"
         height="67.714424"
         width="17.486448"
         id="rect4194-8"
         style="opacity:1;fill:#ffffff;fill-opacity:1;stroke:#ffffff;stroke-width:50;stroke-linecap:round;stroke-linejoin:round;stroke-miterlimit:4;stroke-dasharray:none;stroke-opacity:1" />
      <path
         inkscape:connector-curvature="0"
         id="path4188"
         d="m 326.50753,322.18361 a 112.3995,112.3707 0 0 0 -112.40039,112.37109 112.3995,112.3707 0 0 0 75,105.82422 l 0,-18.19531 c 0,-21.16105 13.74949,-39.51026 32.66992,-46.67773 7.97624,-16.55646 24.81253,-28.32227 44.18164,-28.32227 18.03479,0 33.8171,10.2396 42.36914,25 l 23.94336,0 A 112.3995,112.3707 0 0 0 438.90597,434.5547 112.3995,112.3707 0 0 0 326.50753,322.18361 Z m 12.59961,200 0,23.89453 a 112.3995,112.3707 0 0 0 57.7168,-23.89453 l -30.02149,0 -1.6875,0 -26.00781,0 z"
         style="opacity:1;fill:#4e505d;fill-opacity:1;stroke:none;stroke-width:16;stroke-linecap:round;stroke-linejoin:round;stroke-miterlimit:4;stroke-dasharray:none;stroke-opacity:1" />
      <path
         inkscape:connector-curvature="0"
         id="path4190"
         d="m 328.363,411.41798 a 23.534964,23.528934 0 0 0 -21.68164,14.37891 l -71.21094,0.44922 c -3.56128,0.0225 -6.75471,1.07184 -9.04883,2.75391 -2.29396,1.68226 -3.68613,3.99741 -3.64062,6.55273 0.091,5.11064 5.89893,9.1895 13.02148,9.14453 l 70.97266,-0.44922 a 23.534964,23.528934 0 0 0 2.53515,4.46289 l -0.25585,0.70313 c 10.14566,-12.34208 24.13833,-21.47805 40.1875,-25.28125 A 23.534964,23.528934 0 0 0 328.363,411.41798 Z"
         style="opacity:1;fill:#ffffff;fill-opacity:1;stroke:none;stroke-width:16;stroke-linecap:round;stroke-linejoin:round;stroke-miterlimit:4;stroke-dasharray:none;stroke-opacity:1" />
      <path
         inkscape:connector-curvature="0"
         id="rect4321"
         d="m 365.95931,472.18364 c -13.38232,0 -24.15703,10.83677 -24.15703,24.29688 l 0,0.70312 -2.83904,0 c -13.77027,0 -24.8561,11.15002 -24.8561,25 l 0,175.00001 c 0,13.85 11.08583,25 24.8561,25 l 200.28777,0 c 13.77027,0 24.8561,-11.15 24.8561,-25 l 0,-175.00001 c 0,-13.84998 -11.08583,-25 -24.8561,-25 0,-13.84998 -11.08583,-25 -24.85611,-25 -13.77027,0 -24.8561,11.15002 -24.8561,25 l -99.42441,0 0,-0.70312 c 0,-13.46011 -10.77278,-24.29688 -24.15508,-24.29688 z"
         style="opacity:1;fill:#99b000;fill-opacity:1;stroke:none;stroke-width:35;stroke-linejoin:miter;stroke-miterlimit:4;stroke-dasharray:none;stroke-opacity:1" />
      <rect
         ry="25"
         y="572.18378"
         x="339.19519"
         height="124.99986"
         width="199.91196"
         id="rect4329"
         style="opacity:1;fill:#ffffff;fill-opacity:1;stroke:none;stroke-width:35;stroke-linejoin:miter;stroke-miterlimit:4;stroke-dasharray:none;stroke-opacity:1" />
      <g
         transform="translate(189.10714,-330.17855)"
         id="text4332"
         style="font-style:normal;font-weight:normal;font-size:104.3478241px;line-height:125%;font-family:sans-serif;letter-spacing:0px;word-spacing:0px;fill:#4e505d;fill-opacity:1;stroke:none;stroke-width:1px;stroke-linecap:butt;stroke-linejoin:miter;stroke-opacity:1">
        <path
           sodipodi:nodetypes="ccccccscssccssssccsccc"
           inkscape:connector-curvature="0"
           id="path4337"
           style="font-style:normal;font-variant:normal;font-weight:bold;font-stretch:normal;font-family:Arial;-inkscape-font-specification:'Arial Bold';fill:#4e505d"
           d="m 250.18681,983.06395 0,19.29825 -50.18682,0 c 0.54348,-5.02719 2.17392,-9.78263 4.89131,-14.26632 2.71739,-4.51767 8.08424,-10.49593 16.10054,-17.93478 6.45381,-6.01223 10.41101,-10.08832 11.87161,-12.22826 1.97011,-2.95517 0.95516,-5.87636 0.95516,-8.76359 0,-3.19293 -0.86617,-3.63859 -2.59851,-5.33696 -1.69837,-1.73233 -2.0591,-2.5985 -5.0822,-2.5985 -2.98913,0 -1.36684,-1.09987 -3.13315,0.7004 -1.76631,1.80027 -0.78533,4.78941 -1.05707,8.9674 l -20.2663,0.57337 c 0.84919,-7.88044 3.51563,-15.53601 7.99932,-18.96672 4.48369,-3.43071 10.08831,-5.14606 16.81386,-5.14606 7.37093,0 13.16237,1.98709 17.37432,5.96128 4.21195,3.97419 6.31793,8.91644 6.31793,14.82677 0,3.36277 -0.61141,6.57268 -1.83423,9.62975 -1.18886,3.0231 -3.09104,6.19905 -5.70653,9.52786 -1.73233,2.20788 -0.85733,5.38383 -5.375,9.52785 -4.51766,4.14402 -11.3879,6.89538 -12.61073,8.25407 -1.18886,1.3587 3.84307,-3.31657 3.09579,-2.02581 z" />
        <path
           sodipodi:nodetypes="ccccccccc"
           inkscape:connector-curvature="0"
           id="path4339"
           style="font-style:normal;font-variant:normal;font-weight:bold;font-stretch:normal;font-family:Arial;-inkscape-font-specification:'Arial Bold';fill:#4e505d"
           d="m 296.5523,1002.3622 -18.31725,0 0,-53.95722 c -5.23098,4.89131 4.60394,0.50883 -2.49525,2.85258 l 0,-12.99252 c 3.73641,-1.22283 -4.20448,4.46739 0.17731,1.07065 4.38179,-3.43071 1.38791,-7.42188 3.01834,-11.97351 l 17.61685,0 z" />
      </g>
      <path
         sodipodi:nodetypes="sssssssss"
         inkscape:connector-curvature="0"
         id="rect4358"
         d="m 325.03544,347.18363 2.53147,0 c 6.05427,0 10.83259,7.52374 10.9283,16.86828 l 0.61232,59.7802 c 0.0362,3.53885 -7.49465,10.69223 -13.63526,10.69223 l -2.53147,0 c -6.05428,0 -8.83366,5.13675 -8.83366,-4.20827 l 0,-66.26416 c 0,-9.34503 4.87402,-16.86828 10.9283,-16.86828 z"
         style="opacity:1;fill:#ffffff;fill-opacity:1;stroke:none;stroke-width:50;stroke-linejoin:miter;stroke-miterlimit:4;stroke-dasharray:none;stroke-opacity:1" />
      <path
         id="rect4373"
         d="m 200.03544,322.18363 378.1434,0 c 6.05428,0 10.9283,7.52326 10.9283,16.8683 l 0,366.26342 c 0,9.3451 -4.87402,16.8683 -10.9283,16.8683 l -378.1434,0 c -6.05428,0 -10.9283,-7.5232 -10.9283,-16.8683 l 0,-366.26342 c 0,-9.34504 4.87402,-16.8683 10.9283,-16.8683 z"
         style="opacity:1;fill:none;fill-opacity:1;stroke:none;stroke-width:50;stroke-linejoin:miter;stroke-miterlimit:4;stroke-dasharray:none;stroke-opacity:1"
         inkscape:connector-curvature="0" />
    </g>
  </g>
</svg>
