<?xml version="1.0" encoding="UTF-8" standalone="no"?>
<!-- Created with Inkscape (http://www.inkscape.org/) -->

<svg
   xmlns:dc="http://purl.org/dc/elements/1.1/"
   xmlns:cc="http://creativecommons.org/ns#"
   xmlns:rdf="http://www.w3.org/1999/02/22-rdf-syntax-ns#"
   xmlns:svg="http://www.w3.org/2000/svg"
   xmlns="http://www.w3.org/2000/svg"
   xmlns:xlink="http://www.w3.org/1999/xlink"
   xmlns:sodipodi="http://sodipodi.sourceforge.net/DTD/sodipodi-0.dtd"
   xmlns:inkscape="http://www.inkscape.org/namespaces/inkscape"
   width="210mm"
   height="297mm"
   viewBox="0 0 744.09448819 1052.3622047"
   id="svg2"
   version="1.1"
   inkscape:version="0.91 r13725"
   inkscape:export-xdpi="3.5986876"
   inkscape:export-ydpi="3.5986876"
   sodipodi:docname="variable-input.svg"
   inkscape:export-filename="C:\Users\johannes\Documents\Arbeit\RRZE\github3\bicons\16x16\emblems\variable-input.png">
  <defs
     id="defs4">
    <linearGradient
       id="linearGradient2224">
      <stop
         id="stop2226"
         offset="0"
         style="stop-color:#7c7c7c;stop-opacity:1;" />
      <stop
         id="stop2228"
         offset="1"
         style="stop-color:#b8b8b8;stop-opacity:1;" />
    </linearGradient>
    <linearGradient
       id="linearGradient15218">
      <stop
         id="stop15220"
         offset="0"
         style="stop-color:#eeeeef;stop-opacity:1;" />
      <stop
         id="stop2736"
         offset="0.59928656"
         style="stop-color:#d3d7cf;stop-opacity:1;" />
      <stop
         id="stop2738"
         offset="0.82758623"
         style="stop-color:#ffffff;stop-opacity:1;" />
      <stop
         id="stop15222"
         offset="1"
         style="stop-color:#d3d7cf;stop-opacity:1;" />
    </linearGradient>
    <pattern
       y="0"
       x="0"
       height="6"
       width="6"
       patternUnits="userSpaceOnUse"
       id="EMFhbasepattern" />
    <pattern
       y="0"
       x="0"
       height="6"
       width="6"
       patternUnits="userSpaceOnUse"
       id="EMFhbasepattern-5" />
    <linearGradient
       inkscape:collect="always"
       xlink:href="#linearGradient4155"
       id="linearGradient4161"
       x1="557"
       y1="344.36221"
       x2="215"
       y2="693.36218"
       gradientUnits="userSpaceOnUse"
       gradientTransform="matrix(0.875,0,0,0.87437713,48.749984,65.745854)" />
    <linearGradient
       inkscape:collect="always"
       id="linearGradient4155">
      <stop
         style="stop-color:#7a8597;stop-opacity:1;"
         offset="0"
         id="stop4157" />
      <stop
         style="stop-color:#4e505d;stop-opacity:1"
         offset="1"
         id="stop4159" />
    </linearGradient>
  </defs>
  <sodipodi:namedview
     id="base"
     pagecolor="#ffffff"
     bordercolor="#666666"
     borderopacity="1.0"
     inkscape:pageopacity="0.0"
     inkscape:pageshadow="2"
     inkscape:zoom="0.70710678"
     inkscape:cx="374.01583"
     inkscape:cy="507.22365"
     inkscape:document-units="px"
     inkscape:current-layer="layer1"
     showgrid="false"
     showguides="true"
     inkscape:guide-bbox="true"
     inkscape:window-width="1366"
     inkscape:window-height="721"
     inkscape:window-x="-4"
     inkscape:window-y="-4"
     inkscape:window-maximized="1"
     inkscape:snap-bbox="true"
     inkscape:bbox-paths="true"
     inkscape:bbox-nodes="true"
     inkscape:snap-nodes="false">
    <sodipodi:guide
       position="560,730.00002"
       orientation="0,1"
       id="guide3338" />
    <sodipodi:guide
       position="560,330.00001"
       orientation="0,1"
       id="guide3340" />
    <sodipodi:guide
       position="190,475.00001"
       orientation="1,0"
       id="guide3344" />
    <sodipodi:guide
       position="590,451.00001"
       orientation="1,0"
       id="guide3346" />
    <inkscape:grid
       type="xygrid"
       id="grid3440" />
  </sodipodi:namedview>
  <metadata
     id="metadata7">
    <rdf:RDF>
      <cc:Work
         rdf:about="">
        <dc:format>image/svg+xml</dc:format>
        <dc:type
           rdf:resource="http://purl.org/dc/dcmitype/StillImage" />
        <dc:title>variable input</dc:title>
        <dc:date>June 2015</dc:date>
        <dc:creator>
          <cc:Agent>
            <dc:title>Johannes Hechler</dc:title>
          </cc:Agent>
        </dc:creator>
        <dc:rights>
          <cc:Agent>
            <dc:title>Johannes Hechler</dc:title>
          </cc:Agent>
        </dc:rights>
        <dc:publisher>
          <cc:Agent>
            <dc:title>RRZE</dc:title>
          </cc:Agent>
        </dc:publisher>
        <dc:contributor>
          <cc:Agent>
            <dc:title>Ute Weber, Hendrik Eggers</dc:title>
          </cc:Agent>
        </dc:contributor>
        <dc:subject>
          <rdf:Bag>
            <rdf:li>variable</rdf:li>
            <rdf:li>input</rdf:li>
            <rdf:li>enter</rdf:li>
            <rdf:li>import</rdf:li>
          </rdf:Bag>
        </dc:subject>
      </cc:Work>
    </rdf:RDF>
  </metadata>
  <g
     inkscape:label="Ebene 1"
     inkscape:groupmode="layer"
     id="layer1">
    <g
       id="g4277">
      <rect
         y="322.36221"
         x="190"
         height="400"
         width="400"
         id="rect4160-9"
         style="opacity:1;fill:none;fill-opacity:1;stroke:none;stroke-width:23;stroke-linecap:butt;stroke-linejoin:round;stroke-miterlimit:4;stroke-dasharray:none;stroke-opacity:1" />
      <rect
         y="322.36221"
         x="190"
         height="400"
         width="400"
         id="rect4160-0-4"
         style="opacity:1;fill:none;fill-opacity:1;stroke:none;stroke-width:23;stroke-linecap:butt;stroke-linejoin:round;stroke-miterlimit:4;stroke-dasharray:none;stroke-opacity:1" />
      <path
         id="rect4149"
         d="M 250 347.61133 C 230.61 347.61133 215 363.20974 215 382.58594 L 215 522.94336 L 265.14453 522.8125 L 265.14453 509.60938 C 265.14453 497.55676 270.60429 483.05029 283.97461 476.3125 C 288.98848 473.78583 294.41277 472.8826 299.69727 473.20703 C 308.50476 473.74775 316.9237 477.69693 322.40625 483.22266 L 321.92383 482.75 L 428.80078 584.79492 L 429.03906 585.03516 C 433.40918 589.43969 440.64648 596.73841 440.64648 609.95703 C 440.64648 623.17573 433.40916 630.47437 429.03906 634.87891 L 428.85156 635.06836 L 364.35547 697.36133 L 530 697.36133 C 549.38999 697.36133 565 681.76293 565 662.38672 L 565 382.58594 C 565 363.20974 549.38999 347.61133 530 347.61133 L 250 347.61133 z M 315.14453 545.4082 L 315.14453 572.68164 L 215.27148 572.94336 L 215.27148 648.75 L 315.14453 648.48633 L 315.14453 675.37695 L 382.81445 610.01953 L 315.14453 545.4082 z "
         style="color:#252525;clip-rule:nonzero;display:inline;overflow:visible;visibility:visible;opacity:1;isolation:auto;mix-blend-mode:normal;color-interpolation:sRGB;color-interpolation-filters:linearRGB;solid-color:#252525;solid-opacity:1;fill:url(#linearGradient4161);fill-opacity:1;fill-rule:nonzero;stroke:none;stroke-width:23;stroke-linecap:butt;stroke-linejoin:round;stroke-miterlimit:4;stroke-dasharray:none;stroke-dashoffset:0;stroke-opacity:1;color-rendering:auto;image-rendering:auto;shape-rendering:auto;text-rendering:auto;enable-background:accumulate" />
      <path
         id="path4290"
         d="M 240 447.36133 L 252.08008 471.52148 C 256.42077 465.51397 262.08334 460.12428 269.26367 455.88867 L 265 447.36133 L 240 447.36133 z M 290 447.36133 L 289.29492 448.77148 C 290.94654 448.52653 292.59284 448.34848 294.22461 448.25 C 296.59621 448.10696 298.93814 448.11329 301.22852 448.25391 C 305.50052 448.51618 309.61194 449.19817 313.55273 450.25391 L 315 447.36133 L 290 447.36133 z M 364 447.36133 L 390.44141 495.4375 L 384.37695 507.81445 L 401.41016 524.07617 L 414.5 497.36133 L 416.5 497.36133 L 415.44141 495.4375 L 439 447.36133 L 414 447.36133 L 402.2207 471.40039 L 389 447.36133 L 364 447.36133 z M 465 447.36133 L 465 472.36133 L 511 472.36133 L 465 522.36133 L 465 547.36133 L 540 547.36133 L 540 522.36133 L 494 522.36133 L 540 472.36133 L 540 447.36133 L 465 447.36133 z M 425.37891 525.01367 C 419.75346 525.01367 415.21186 530.35413 415.01758 537.07031 L 435.75781 556.87109 L 435.75781 537.51367 C 435.75781 530.58867 431.12869 525.01367 425.37891 525.01367 z "
         style="fill:#ffffff;fill-rule:evenodd;stroke:none;stroke-width:1px;stroke-linecap:butt;stroke-linejoin:miter;stroke-opacity:1" />
      <rect
         y="322.40109"
         x="190.1459"
         height="400"
         width="400"
         id="rect4160"
         style="opacity:1;fill:none;fill-opacity:1;stroke:none;stroke-width:23;stroke-linecap:butt;stroke-linejoin:round;stroke-miterlimit:4;stroke-dasharray:none;stroke-opacity:1" />
      <rect
         y="322.40109"
         x="190.1459"
         height="400"
         width="400"
         id="rect4160-0"
         style="opacity:1;fill:none;fill-opacity:1;stroke:none;stroke-width:23;stroke-linecap:butt;stroke-linejoin:round;stroke-miterlimit:4;stroke-dasharray:none;stroke-opacity:1" />
      <text
         sodipodi:linespacing="125%"
         id="text4196"
         y="498.35947"
         x="252.59152"
         style="font-style:normal;font-variant:normal;font-weight:bold;font-stretch:normal;font-size:40px;line-height:125%;font-family:sans-serif;-inkscape-font-specification:'sans-serif Bold';letter-spacing:0px;word-spacing:0px;fill:#000000;fill-opacity:1;stroke:none;stroke-width:1px;stroke-linecap:butt;stroke-linejoin:miter;stroke-opacity:1"
         xml:space="preserve"><tspan
           y="498.35947"
           x="252.59152"
           id="tspan4198"
           sodipodi:role="line" /></text>
      <path
         sodipodi:nodetypes="sccscsssscsccs"
         inkscape:connector-curvature="0"
         id="path4237"
         d="m 415.64597,609.95726 c 0,-2.1943 -1.45144,-4.38858 -4.35429,-7.31429 L 304.65905,500.83126 c -5.80571,-5.85143 -14.51429,-2.92572 -14.51429,8.77714 l 0,38.13857 -85.92077,0.22628 c -8.04089,0.0212 -13.95302,6.6375 -13.95302,14.74171 l 0,96.54803 c 0,8.10421 5.91213,14.53661 13.95302,14.51543 l 85.92077,-0.22627 0,37.93054 c 0,11.70284 11.61143,11.70284 14.51429,8.77713 L 411.29168,617.27154 c 2.90285,-2.92572 4.35429,-5.12 4.35429,-7.31428 z"
         style="fill:#99b000;fill-opacity:1;fill-rule:evenodd;stroke:none;stroke-width:1px;stroke-linecap:butt;stroke-linejoin:miter;stroke-opacity:1" />
    </g>
  </g>
</svg>
