<?xml version="1.0" encoding="UTF-8" standalone="no"?>
<!-- Created with Inkscape (http://www.inkscape.org/) -->

<svg
   xmlns:dc="http://purl.org/dc/elements/1.1/"
   xmlns:cc="http://creativecommons.org/ns#"
   xmlns:rdf="http://www.w3.org/1999/02/22-rdf-syntax-ns#"
   xmlns:svg="http://www.w3.org/2000/svg"
   xmlns="http://www.w3.org/2000/svg"
   xmlns:xlink="http://www.w3.org/1999/xlink"
   xmlns:sodipodi="http://sodipodi.sourceforge.net/DTD/sodipodi-0.dtd"
   xmlns:inkscape="http://www.inkscape.org/namespaces/inkscape"
   width="210mm"
   height="297mm"
   viewBox="0 0 744.09448819 1052.3622047"
   id="svg2"
   version="1.1"
   inkscape:version="0.91 r13725"
   inkscape:export-xdpi="3.5999999"
   inkscape:export-ydpi="3.5999999"
   sodipodi:docname="video-film.svg"
   inkscape:export-filename="D:\Dokumente\Arbeit\RRZE\github\bicons\16x16\emblems\video-film.png">
  <title
     id="title4162">video film</title>
  <defs
     id="defs4">
    <linearGradient
       id="linearGradient2224">
      <stop
         id="stop2226"
         offset="0"
         style="stop-color:#7c7c7c;stop-opacity:1;" />
      <stop
         id="stop2228"
         offset="1"
         style="stop-color:#b8b8b8;stop-opacity:1;" />
    </linearGradient>
    <linearGradient
       id="linearGradient15218">
      <stop
         id="stop15220"
         offset="0"
         style="stop-color:#eeeeef;stop-opacity:1;" />
      <stop
         id="stop2736"
         offset="0.59928656"
         style="stop-color:#d3d7cf;stop-opacity:1;" />
      <stop
         id="stop2738"
         offset="0.82758623"
         style="stop-color:#ffffff;stop-opacity:1;" />
      <stop
         id="stop15222"
         offset="1"
         style="stop-color:#d3d7cf;stop-opacity:1;" />
    </linearGradient>
    <pattern
       y="0"
       x="0"
       height="6"
       width="6"
       patternUnits="userSpaceOnUse"
       id="EMFhbasepattern" />
    <pattern
       y="0"
       x="0"
       height="6"
       width="6"
       patternUnits="userSpaceOnUse"
       id="EMFhbasepattern-5" />
    <linearGradient
       gradientTransform="matrix(1.1866136,0,0,1.1866136,-18.35822,-53.111592)"
       inkscape:collect="always"
       xlink:href="#linearGradient4167"
       id="linearGradient4174"
       x1="288"
       y1="618.36218"
       x2="424"
       y2="429.36221"
       gradientUnits="userSpaceOnUse" />
    <linearGradient
       inkscape:collect="always"
       id="linearGradient4167">
      <stop
         style="stop-color:#4e505d;stop-opacity:1;"
         offset="0"
         id="stop4169" />
      <stop
         style="stop-color:#7a8597;stop-opacity:1"
         offset="1"
         id="stop4171" />
    </linearGradient>
  </defs>
  <sodipodi:namedview
     id="base"
     pagecolor="#ffffff"
     bordercolor="#666666"
     borderopacity="1.0"
     inkscape:pageopacity="0.0"
     inkscape:pageshadow="2"
     inkscape:zoom="0.35355339"
     inkscape:cx="582.82064"
     inkscape:cy="467.78511"
     inkscape:document-units="px"
     inkscape:current-layer="layer1"
     showgrid="false"
     showguides="true"
     inkscape:guide-bbox="true"
     inkscape:window-width="1600"
     inkscape:window-height="837"
     inkscape:window-x="-4"
     inkscape:window-y="-4"
     inkscape:window-maximized="1"
     inkscape:snap-bbox="true"
     inkscape:bbox-nodes="true">
    <sodipodi:guide
       position="560,730.00002"
       orientation="0,1"
       id="guide3338" />
    <sodipodi:guide
       position="560,330.00001"
       orientation="0,1"
       id="guide3340" />
    <sodipodi:guide
       position="190,475.00001"
       orientation="1,0"
       id="guide3344" />
    <sodipodi:guide
       position="590,451.00001"
       orientation="1,0"
       id="guide3346" />
    <inkscape:grid
       type="xygrid"
       id="grid3440" />
  </sodipodi:namedview>
  <metadata
     id="metadata7">
    <rdf:RDF>
      <cc:Work
         rdf:about="">
        <dc:format>image/svg+xml</dc:format>
        <dc:type
           rdf:resource="http://purl.org/dc/dcmitype/StillImage" />
        <dc:title>video film</dc:title>
        <dc:date>June 2015</dc:date>
        <dc:creator>
          <cc:Agent>
            <dc:title>Johannes Hechler</dc:title>
          </cc:Agent>
        </dc:creator>
        <dc:rights>
          <cc:Agent>
            <dc:title>Johannes Hechler</dc:title>
          </cc:Agent>
        </dc:rights>
        <dc:publisher>
          <cc:Agent>
            <dc:title>RRZE</dc:title>
          </cc:Agent>
        </dc:publisher>
        <dc:contributor>
          <cc:Agent>
            <dc:title>Ute Weber, Hendrik Eggers</dc:title>
          </cc:Agent>
        </dc:contributor>
      </cc:Work>
    </rdf:RDF>
  </metadata>
  <g
     inkscape:label="Ebene 1"
     inkscape:groupmode="layer"
     id="layer1">
    <g
       id="g4206"
       transform="translate(-22.950365,-54.8242)">
      <path
         id="rect4160"
         d="m 212.95036,377.1864 400,0 0,400.0001 -400,0 z"
         style="opacity:1;fill:none;fill-opacity:1;stroke:none;stroke-width:23;stroke-linecap:butt;stroke-linejoin:round;stroke-miterlimit:4;stroke-dasharray:none;stroke-opacity:1"
         inkscape:connector-curvature="0" />
      <path
         id="path4179"
         d="m 375.45231,427.18646 c -75.94003,-5.9e-4 -137.50255,61.5619 -137.50195,137.50195 7e-4,75.93913 61.56283,137.49865 137.50195,137.49805 75.93824,-6.7e-4 137.49733,-61.55982 137.49805,-137.49805 6e-4,-75.93916 -61.55889,-137.50127 -137.49805,-137.50195 z m -0.002,25 a 37.499998,37.499998 0 0 1 37.5,37.5 37.499998,37.499998 0 0 1 -37.5,37.5 37.499998,37.499998 0 0 1 -37.5,-37.5 37.499998,37.499998 0 0 1 37.5,-37.5 z m -75,75 a 37.499996,37.499996 0 0 1 37.5,37.5 37.499996,37.499996 0 0 1 -37.5,37.5 37.499996,37.499996 0 0 1 -37.5,-37.5 37.499996,37.499996 0 0 1 37.5,-37.5 z m 150,0 a 37.499995,37.499995 0 0 1 37.5,37.5 37.499995,37.499995 0 0 1 -37.5,37.5 37.499995,37.499995 0 0 1 -37.5,-37.5 37.499995,37.499995 0 0 1 37.5,-37.5 z m -74.55273,25 a 12.05273,12.0527 0 0 1 12.05278,12.05273 12.05273,12.0527 0 0 1 -12.05273,12.05274 12.05273,12.0527 0 0 1 -12.05274,-12.05274 12.05273,12.0527 0 0 1 12.05274,-12.05273 z m -0.44727,50 a 37.499998,37.500015 0 0 1 37.5,37.5 37.499998,37.500015 0 0 1 -37.5,37.5 37.499998,37.500015 0 0 1 -37.5,-37.5 37.499998,37.500015 0 0 1 37.5,-37.5 z"
         style="color:#252525;font-style:normal;font-variant:normal;font-weight:normal;font-stretch:normal;font-size:medium;line-height:normal;font-family:sans-serif;text-indent:0;text-align:start;text-decoration:none;text-decoration-line:none;text-decoration-style:solid;text-decoration-color:#252525;letter-spacing:normal;word-spacing:normal;text-transform:none;direction:ltr;block-progression:tb;writing-mode:lr-tb;baseline-shift:baseline;text-anchor:start;white-space:normal;clip-rule:nonzero;display:inline;overflow:visible;visibility:visible;opacity:1;isolation:auto;mix-blend-mode:normal;color-interpolation:sRGB;color-interpolation-filters:linearRGB;solid-color:#252525;solid-opacity:1;fill:url(#linearGradient4174);fill-opacity:1;fill-rule:evenodd;stroke:none;stroke-width:11.90615177;stroke-linecap:butt;stroke-linejoin:miter;stroke-miterlimit:4;stroke-dasharray:none;stroke-dashoffset:0;stroke-opacity:1;color-rendering:auto;image-rendering:auto;shape-rendering:auto;text-rendering:auto;enable-background:accumulate"
         inkscape:connector-curvature="0" />
      <path
         id="path4276"
         d="m 582.65934,650.54779 c -4.80785,0 -9.56538,0.24843 -13.70117,0.91015 -16.54313,2.64691 -35.07164,28.45508 -57.57031,28.45508 -5.24984,0 -11.47243,-1.49007 -17.92383,-3.7539 -6.6508,7.03579 -13.92174,13.4778 -21.7207,19.24414 10.79392,4.73714 22.86431,8.09621 35.01367,7.66992 37.71835,-1.32345 52.2764,-23.16054 67.49609,-23.82227 15.21969,-0.66172 36.39454,-0.66211 36.39454,-0.66211 l 1.32226,-25.80664 c 0,0 -14.887,-2.23437 -29.31055,-2.23437 z"
         style="fill:#4e505d;fill-rule:evenodd;stroke:none;stroke-width:1px;stroke-linecap:butt;stroke-linejoin:miter;stroke-opacity:1"
         inkscape:connector-curvature="0" />
    </g>
  </g>
</svg>
