<?xml version="1.0" encoding="UTF-8" standalone="no"?>
<!-- Created with Inkscape (http://www.inkscape.org/) -->

<svg
   xmlns:dc="http://purl.org/dc/elements/1.1/"
   xmlns:cc="http://creativecommons.org/ns#"
   xmlns:rdf="http://www.w3.org/1999/02/22-rdf-syntax-ns#"
   xmlns:svg="http://www.w3.org/2000/svg"
   xmlns="http://www.w3.org/2000/svg"
   xmlns:sodipodi="http://sodipodi.sourceforge.net/DTD/sodipodi-0.dtd"
   xmlns:inkscape="http://www.inkscape.org/namespaces/inkscape"
   width="210mm"
   height="297mm"
   viewBox="0 0 744.09448819 1052.3622047"
   id="svg2"
   version="1.1"
   inkscape:version="0.91 r13725"
   inkscape:export-xdpi="3.5999999"
   inkscape:export-ydpi="3.5999999"
   sodipodi:docname="vote-grey.svg"
   inkscape:export-filename="D:\Dokumente\Arbeit\RRZE\github\bicons\16x16\emblems\vote-grey.png">
  <defs
     id="defs4">
    <linearGradient
       id="linearGradient2224">
      <stop
         id="stop2226"
         offset="0"
         style="stop-color:#7c7c7c;stop-opacity:1;" />
      <stop
         id="stop2228"
         offset="1"
         style="stop-color:#b8b8b8;stop-opacity:1;" />
    </linearGradient>
    <linearGradient
       id="linearGradient15218">
      <stop
         id="stop15220"
         offset="0"
         style="stop-color:#eeeeef;stop-opacity:1;" />
      <stop
         id="stop2736"
         offset="0.59928656"
         style="stop-color:#d3d7cf;stop-opacity:1;" />
      <stop
         id="stop2738"
         offset="0.82758623"
         style="stop-color:#ffffff;stop-opacity:1;" />
      <stop
         id="stop15222"
         offset="1"
         style="stop-color:#d3d7cf;stop-opacity:1;" />
    </linearGradient>
    <pattern
       y="0"
       x="0"
       height="6"
       width="6"
       patternUnits="userSpaceOnUse"
       id="EMFhbasepattern" />
    <pattern
       y="0"
       x="0"
       height="6"
       width="6"
       patternUnits="userSpaceOnUse"
       id="EMFhbasepattern-5" />
  </defs>
  <sodipodi:namedview
     id="base"
     pagecolor="#ffffff"
     bordercolor="#666666"
     borderopacity="1.0"
     inkscape:pageopacity="0.0"
     inkscape:pageshadow="2"
     inkscape:zoom="1"
     inkscape:cx="242.70019"
     inkscape:cy="523.03249"
     inkscape:document-units="px"
     inkscape:current-layer="layer1"
     showgrid="false"
     showguides="true"
     inkscape:guide-bbox="true"
     inkscape:window-width="1600"
     inkscape:window-height="837"
     inkscape:window-x="-4"
     inkscape:window-y="-4"
     inkscape:window-maximized="1"
     inkscape:snap-bbox="true"
     inkscape:bbox-nodes="true">
    <sodipodi:guide
       position="560,730.00002"
       orientation="0,1"
       id="guide3338" />
    <sodipodi:guide
       position="396.68691,330.21887"
       orientation="0,1"
       id="guide3340" />
    <sodipodi:guide
       position="190,475.00001"
       orientation="1,0"
       id="guide3344" />
    <sodipodi:guide
       position="590,451.00001"
       orientation="1,0"
       id="guide3346" />
    <inkscape:grid
       type="xygrid"
       id="grid3440" />
  </sodipodi:namedview>
  <metadata
     id="metadata7">
    <rdf:RDF>
      <cc:Work
         rdf:about="">
        <dc:format>image/svg+xml</dc:format>
        <dc:type
           rdf:resource="http://purl.org/dc/dcmitype/StillImage" />
        <dc:title>vote grey</dc:title>
        <dc:date>June 2015</dc:date>
        <dc:creator>
          <cc:Agent>
            <dc:title>Johannes Hechler</dc:title>
          </cc:Agent>
        </dc:creator>
        <dc:rights>
          <cc:Agent>
            <dc:title>Johannes Hechler</dc:title>
          </cc:Agent>
        </dc:rights>
        <dc:publisher>
          <cc:Agent>
            <dc:title>RRZE</dc:title>
          </cc:Agent>
        </dc:publisher>
        <dc:contributor>
          <cc:Agent>
            <dc:title>Ute Weber, Hendrik Eggers</dc:title>
          </cc:Agent>
        </dc:contributor>
      </cc:Work>
    </rdf:RDF>
  </metadata>
  <g
     inkscape:label="Ebene 1"
     inkscape:groupmode="layer"
     id="layer1">
    <g
       id="g4172">
      <rect
         y="322.36221"
         x="190"
         height="399.78113"
         width="400"
         id="rect4158"
         style="color:#252525;clip-rule:nonzero;display:inline;overflow:visible;visibility:visible;opacity:1;isolation:auto;mix-blend-mode:normal;color-interpolation:sRGB;color-interpolation-filters:linearRGB;solid-color:#252525;solid-opacity:1;fill:none;fill-opacity:1;fill-rule:nonzero;stroke:none;stroke-width:3;stroke-linecap:square;stroke-linejoin:round;stroke-miterlimit:4;stroke-dasharray:6, 3;stroke-dashoffset:0;stroke-opacity:1;color-rendering:auto;image-rendering:auto;shape-rendering:auto;text-rendering:auto;enable-background:accumulate" />
      <rect
         y="344.15054"
         x="213.79771"
         height="347.879"
         width="347.879"
         id="rect4160"
         style="opacity:1;fill:none;fill-opacity:1;stroke:none;stroke-width:23;stroke-linecap:butt;stroke-linejoin:round;stroke-miterlimit:4;stroke-dasharray:none;stroke-opacity:1" />
      <path
         inkscape:connector-curvature="0"
         id="path4149"
         d="m 390,347.36218 c -20.75939,0 -40.67872,3.63466 -59.16406,10.28711 l 18.93554,18.89648 c 12.91223,-3.12918 26.6142,-4.77929 40.93555,-4.77929 14.03672,0 27.46091,1.61795 40.11719,4.6875 l 18.71289,-18.67383 C 430.94669,351.04191 410.89916,347.36218 390,347.36218 Z M 284.92383,382.4696 c -13.13185,9.8848 -24.8288,21.57417 -34.72461,34.69727 l 15.1875,15.15625 c 9.6044,-13.40864 21.47049,-24.94344 35.18555,-34.23828 L 284.92383,382.4696 Z m 210.43555,0.21875 -15.44336,15.41406 c 13.51635,9.23782 25.23381,20.67572 34.76953,33.9336 l 15.02148,-14.99024 c -9.80428,-12.97815 -21.37263,-24.54918 -34.34765,-34.35742 z m 59.23242,80.16406 -17.33399,17.29688 c 3.57144,13.45097 5.46094,27.82331 5.46094,42.91992 0,14.42031 -1.73308,28.15372 -5,41.04883 l 17.11133,17.07617 C 561.40736,562.80162 565,542.99823 565,522.36218 c 0,-20.88826 -3.67654,-40.92765 -10.4082,-59.50977 z m -329.23828,0.15821 C 218.65816,481.54856 215,501.53279 215,522.36218 c 0,20.77525 3.63862,40.70769 10.30078,59.20508 l 17.95313,-17.91797 c -3.43908,-13.20326 -5.26563,-27.26117 -5.26563,-41.99414 0,-14.41858 1.75293,-28.13223 5.05078,-40.99414 l -17.68554,-17.65039 z m 40.24023,148.98437 -15.48047,15.44922 c 9.84803,13.08163 21.48773,24.73804 34.55078,34.60938 l 15.59961,-15.64844 c -13.48671,-9.40801 -25.1746,-21.00795 -34.66992,-34.41016 z m 249.9668,0.64844 c -9.62319,13.61058 -21.54845,25.31857 -35.35743,34.73242 l 14.81446,14.91992 c 13.28826,-9.99418 25.11241,-21.83209 35.08594,-35.13671 L 515.56055,612.64343 Z M 348.8418,668.4989 330.45703,686.94226 c 18.59141,6.73929 38.64232,10.41992 59.54297,10.41992 20.75868,0 40.67522,-3.63496 59.16016,-10.28711 L 431.1543,668.94226 c -12.75311,3.09126 -26.28807,4.72461 -40.44727,4.72461 -14.66542,0 -28.68199,-1.79216 -41.86523,-5.16797 z"
         style="color:#252525;font-style:normal;font-variant:normal;font-weight:normal;font-stretch:normal;font-size:medium;line-height:normal;font-family:sans-serif;text-indent:0;text-align:start;text-decoration:none;text-decoration-line:none;text-decoration-style:solid;text-decoration-color:#252525;letter-spacing:normal;word-spacing:normal;text-transform:none;direction:ltr;block-progression:tb;writing-mode:lr-tb;baseline-shift:baseline;text-anchor:start;white-space:normal;clip-rule:nonzero;display:inline;overflow:visible;visibility:visible;opacity:1;isolation:auto;mix-blend-mode:normal;color-interpolation:sRGB;color-interpolation-filters:linearRGB;solid-color:#252525;solid-opacity:1;fill:#4e505d;fill-opacity:1;fill-rule:nonzero;stroke:none;stroke-width:18.17154694;stroke-linecap:butt;stroke-linejoin:round;stroke-miterlimit:4;stroke-dasharray:none;stroke-dashoffset:0;stroke-opacity:1;color-rendering:auto;image-rendering:auto;shape-rendering:auto;text-rendering:auto;enable-background:accumulate" />
      <path
         style="opacity:1;fill:#7a859c;fill-opacity:1;stroke:#ffffff;stroke-width:0;stroke-linecap:square;stroke-linejoin:round;stroke-miterlimit:4;stroke-dasharray:none;stroke-opacity:1"
         d="m 555.37714,660.53733 c 12.0681,-12.04397 12.05891,-31.4393 -0.006,-43.48321 l -95.34207,-95.15092 96.58412,-96.39048 c 11.18798,-11.16555 11.17885,-29.14597 -0.006,-40.31153 l -29.37884,-29.31994 c -11.18798,-11.16553 -29.2046,-11.17472 -40.39257,-0.006 l -96.58405,96.39055 -96.06351,-95.87097 c -12.06812,-12.04384 -31.49326,-12.04389 -43.56145,0 l -26.57526,26.52203 c -12.06815,12.04394 -12.06809,31.43023 0,43.47414 l 96.06353,95.87088 -96.7028,96.50894 c -11.18799,11.16557 -11.1788,29.14605 0.007,40.31159 l 29.37885,29.81931 c 11.09313,11.2594 29.20454,11.1747 40.3925,0.011 l 96.70317,-97.00795 95.71727,96.39925 c 12.01307,12.0986 31.50247,12.053 43.57057,0.011 l 26.20012,-27.77031 z"
         id="path4181"
         inkscape:connector-curvature="0"
         sodipodi:nodetypes="cccscsccsssscscsccsccc" />
    </g>
  </g>
</svg>
