<?xml version="1.0" encoding="UTF-8" standalone="no"?>
<!-- Created with Inkscape (http://www.inkscape.org/) -->

<svg
   xmlns:dc="http://purl.org/dc/elements/1.1/"
   xmlns:cc="http://creativecommons.org/ns#"
   xmlns:rdf="http://www.w3.org/1999/02/22-rdf-syntax-ns#"
   xmlns:svg="http://www.w3.org/2000/svg"
   xmlns="http://www.w3.org/2000/svg"
   xmlns:xlink="http://www.w3.org/1999/xlink"
   xmlns:sodipodi="http://sodipodi.sourceforge.net/DTD/sodipodi-0.dtd"
   xmlns:inkscape="http://www.inkscape.org/namespaces/inkscape"
   width="210mm"
   height="297mm"
   viewBox="0 0 744.09448819 1052.3622047"
   id="svg2"
   version="1.1"
   inkscape:version="0.91 r13725"
   inkscape:export-xdpi="3.5999999"
   inkscape:export-ydpi="3.5999999"
   sodipodi:docname="zipper.svg"
   inkscape:export-filename="D:\Dokumente\Arbeit\RRZE\github\bicons\16x16\emblems\zipper.png">
  <title
     id="title4159">zipper</title>
  <defs
     id="defs4">
    <linearGradient
       id="linearGradient2224">
      <stop
         id="stop2226"
         offset="0"
         style="stop-color:#7c7c7c;stop-opacity:1;" />
      <stop
         id="stop2228"
         offset="1"
         style="stop-color:#b8b8b8;stop-opacity:1;" />
    </linearGradient>
    <linearGradient
       id="linearGradient15218">
      <stop
         id="stop15220"
         offset="0"
         style="stop-color:#eeeeef;stop-opacity:1;" />
      <stop
         id="stop2736"
         offset="0.59928656"
         style="stop-color:#d3d7cf;stop-opacity:1;" />
      <stop
         id="stop2738"
         offset="0.82758623"
         style="stop-color:#ffffff;stop-opacity:1;" />
      <stop
         id="stop15222"
         offset="1"
         style="stop-color:#d3d7cf;stop-opacity:1;" />
    </linearGradient>
    <pattern
       y="0"
       x="0"
       height="6"
       width="6"
       patternUnits="userSpaceOnUse"
       id="EMFhbasepattern" />
    <pattern
       y="0"
       x="0"
       height="6"
       width="6"
       patternUnits="userSpaceOnUse"
       id="EMFhbasepattern-5" />
    <linearGradient
       inkscape:collect="always"
       xlink:href="#linearGradient4439"
       id="linearGradient4445"
       x1="131.64839"
       y1="375.00003"
       x2="250"
       y2="50.000019"
       gradientUnits="userSpaceOnUse"
       gradientTransform="translate(0,-3e-5)" />
    <linearGradient
       inkscape:collect="always"
       id="linearGradient4439">
      <stop
         style="stop-color:#4e505d;stop-opacity:1;"
         offset="0"
         id="stop4441" />
      <stop
         style="stop-color:#7a859c;stop-opacity:1"
         offset="1"
         id="stop4443" />
    </linearGradient>
  </defs>
  <sodipodi:namedview
     id="base"
     pagecolor="#ffffff"
     bordercolor="#666666"
     borderopacity="1.0"
     inkscape:pageopacity="0.0"
     inkscape:pageshadow="2"
     inkscape:zoom="0.7071068"
     inkscape:cx="326.82828"
     inkscape:cy="562.50432"
     inkscape:document-units="px"
     inkscape:current-layer="layer1"
     showgrid="false"
     showguides="true"
     inkscape:guide-bbox="true"
     inkscape:window-width="1600"
     inkscape:window-height="837"
     inkscape:window-x="-4"
     inkscape:window-y="-4"
     inkscape:window-maximized="1"
     inkscape:snap-bbox="true"
     inkscape:bbox-nodes="true">
    <sodipodi:guide
       position="560,730.00002"
       orientation="0,1"
       id="guide3338" />
    <sodipodi:guide
       position="560,330.00001"
       orientation="0,1"
       id="guide3340" />
    <sodipodi:guide
       position="190,475.00001"
       orientation="1,0"
       id="guide3344" />
    <sodipodi:guide
       position="590,451.00001"
       orientation="1,0"
       id="guide3346" />
    <inkscape:grid
       type="xygrid"
       id="grid3440" />
  </sodipodi:namedview>
  <metadata
     id="metadata7">
    <rdf:RDF>
      <cc:Work
         rdf:about="">
        <dc:format>image/svg+xml</dc:format>
        <dc:type
           rdf:resource="http://purl.org/dc/dcmitype/StillImage" />
        <dc:title>zipper</dc:title>
        <dc:date>June 2015</dc:date>
        <dc:creator>
          <cc:Agent>
            <dc:title>Johannes Hechler</dc:title>
          </cc:Agent>
        </dc:creator>
        <dc:rights>
          <cc:Agent>
            <dc:title>Johannes Hechler</dc:title>
          </cc:Agent>
        </dc:rights>
        <dc:publisher>
          <cc:Agent>
            <dc:title>RRZE</dc:title>
          </cc:Agent>
        </dc:publisher>
        <dc:contributor>
          <cc:Agent>
            <dc:title>Ute Weber, Hendrik Eggers</dc:title>
          </cc:Agent>
        </dc:contributor>
      </cc:Work>
    </rdf:RDF>
  </metadata>
  <g
     inkscape:label="Ebene 1"
     inkscape:groupmode="layer"
     id="layer1">
    <g
       id="g4190"
       transform="translate(-1.7371546,-7.8894684)">
      <g
         id="g4268"
         transform="translate(191.73715,-321.57902)">
        <path
           style="opacity:1;fill:url(#linearGradient4445);fill-opacity:1;stroke:none;stroke-width:50;stroke-linejoin:round;stroke-miterlimit:4;stroke-dasharray:none;stroke-opacity:1"
           d="M 150,0 C 108.45,0 75,33.45 75,75 l 0,50 c 0,22.30185 9.64628,42.25996 25,55.97461 l 0,-55.97458 c 0,-27.582764 15.05584,-52.050575 37.51758,-64.994145 3.79892,-2.17824 8.10332,-3.32051 12.48242,-3.3125 l 0,-6.693359 C 150,25.000019 183.33903,25.001107 200,25 c 10.77918,-7.16e-4 50,1.9e-5 50,25.000026 l 0,6.689453 c 4.37945,-0.007 8.68387,1.136796 12.48242,3.316406 C 284.94416,72.949455 300,97.417266 300,125.00003 l 0,55.97458 C 315.35372,167.25996 325,147.30185 325,125 l 0,-50 C 325,33.45 291.55,0 250,0 Z m 50,50 c -13.85,0 -25,11.15 -25,25 l 0,50.00003 c 0,13.85 11.15,25 25,25 13.85,0 25,-11.15 25,-25 L 225,75 C 225,61.15 213.85,50 200,50 Z m -50,31.666046 c -14.96193,8.62181 -25,24.757114 -25,43.333984 L 125,350 c 0,27.7 22.30001,50 50,50 l 50,0 c 27.69999,0 50,-22.3 50,-50 l 0,-224.99997 c 0,-18.57687 -10.03807,-34.712174 -25,-43.333984 l 0,43.333984 c 0,27.26757 -22.73243,50 -50,50 -27.26757,0 -50,-22.73243 -50,-50 z M 200,325 c 13.80712,0 25,11.19288 25,25 0,13.80712 -11.19288,25 -25,25 -13.80712,0 -25,-11.19288 -25,-25 0,-13.80712 11.19288,-25 25,-25 z"
           transform="translate(0,652.36216)"
           id="rect4413"
           inkscape:connector-curvature="0"
           sodipodi:nodetypes="ssscsccsssccscssssssssssscsssssscssscsssss" />
        <rect
           style="opacity:1;fill:none;fill-opacity:1;stroke:none;stroke-width:50;stroke-linejoin:round;stroke-miterlimit:4;stroke-dasharray:none;stroke-opacity:1"
           id="rect4447"
           width="400"
           height="400.53149"
           x="0"
           y="651.83069"
           ry="50" />
      </g>
    </g>
  </g>
</svg>
