<?xml version="1.0" encoding="UTF-8" standalone="no"?>
<!-- Created with Inkscape (http://www.inkscape.org/) -->
<svg xmlns:dc="http://purl.org/dc/elements/1.1/" xmlns:cc="http://creativecommons.org/ns#" xmlns:rdf="http://www.w3.org/1999/02/22-rdf-syntax-ns#" xmlns:svg="http://www.w3.org/2000/svg" xmlns="http://www.w3.org/2000/svg" xmlns:xlink="http://www.w3.org/1999/xlink" xmlns:sodipodi="http://sodipodi.sourceforge.net/DTD/sodipodi-0.dtd" xmlns:inkscape="http://www.inkscape.org/namespaces/inkscape" width="210mm" height="297mm" id="svg6841" version="1.1" inkscape:version="0.48.5 r10040">
  <defs id="defs3">
    <linearGradient id="linearGradient5423">
      <stop style="stop-color:#2b5604;stop-opacity:1;" offset="0" id="stop5425"/>
      <stop id="stop5427" offset="1" style="stop-color:#2b5604;stop-opacity:0;"/>
    </linearGradient>
    <linearGradient id="linearGradient5415">
      <stop id="stop5417" offset="0" style="stop-color:#2b5604;stop-opacity:1;"/>
      <stop style="stop-color:#2b5604;stop-opacity:0;" offset="0.72845906" id="stop5419"/>
      <stop id="stop5421" offset="1" style="stop-color:#2b5604;stop-opacity:1;"/>
    </linearGradient>
    <linearGradient id="linearGradient5407">
      <stop id="stop5409" offset="0" style="stop-color:#2b5604;stop-opacity:1;"/>
      <stop style="stop-color:#2b5604;stop-opacity:0;" offset="0.5530687" id="stop5411"/>
      <stop id="stop5413" offset="1" style="stop-color:#2b5604;stop-opacity:1;"/>
    </linearGradient>
    <linearGradient id="linearGradient5389">
      <stop style="stop-color:#555753;stop-opacity:1;" offset="0" id="stop5391"/>
      <stop style="stop-color:#20211f;stop-opacity:1;" offset="1" id="stop5393"/>
    </linearGradient>
    <linearGradient id="linearGradient5381">
      <stop style="stop-color:#4e9a06;stop-opacity:1;" offset="0" id="stop5383"/>
      <stop style="stop-color:#4e9a06;stop-opacity:0;" offset="1" id="stop5385"/>
    </linearGradient>
    <linearGradient id="linearGradient5373">
      <stop style="stop-color:#4e9a06;stop-opacity:1;" offset="0" id="stop5375"/>
      <stop style="stop-color:#2b5604;stop-opacity:1;" offset="1" id="stop5377"/>
    </linearGradient>
    <linearGradient id="linearGradient5152">
      <stop style="stop-color:#2b5604;stop-opacity:1;" offset="0" id="stop5154"/>
      <stop id="stop5405" offset="0.5" style="stop-color:#2b5604;stop-opacity:0;"/>
      <stop style="stop-color:#2b5604;stop-opacity:1;" offset="1" id="stop5156"/>
    </linearGradient>
    <linearGradient id="linearGradient4914">
      <stop style="stop-color:#555753;stop-opacity:1;" offset="0" id="stop4916"/>
      <stop style="stop-color:#ffffff;stop-opacity:1;" offset="1" id="stop4918"/>
    </linearGradient>
    <linearGradient id="linearGradient4799">
      <stop style="stop-color:#97e949;stop-opacity:1;" offset="0" id="stop4801"/>
      <stop style="stop-color:#4f9a06;stop-opacity:1;" offset="1" id="stop4803"/>
    </linearGradient>
    <linearGradient id="linearGradient4779">
      <stop style="stop-color:#202426;stop-opacity:1;" offset="0" id="stop4781"/>
      <stop style="stop-color:#5b4d09;stop-opacity:1;" offset="1" id="stop4783"/>
    </linearGradient>
    <linearGradient id="linearGradient4667">
      <stop style="stop-color:#743a00;stop-opacity:1;" offset="0" id="stop4669"/>
      <stop style="stop-color:#bc6918;stop-opacity:1;" offset="1" id="stop4671"/>
    </linearGradient>
    <linearGradient id="linearGradient4647">
      <stop style="stop-color:#ae6b02;stop-opacity:0" offset="0" id="stop4649"/>
      <stop style="stop-color:#f09e4e;stop-opacity:0.88324875;" offset="1" id="stop4651"/>
    </linearGradient>
    <linearGradient gradientTransform="matrix(2.774389,0,0,1.969706,-1892.179,-872.8854)" gradientUnits="userSpaceOnUse" id="linearGradient5774" inkscape:collect="always" x1="302.85715" x2="302.85715" xlink:href="#linearGradient5048-1" y1="366.64789" y2="609.50507"/>
    <linearGradient id="linearGradient5048-1">
      <stop id="stop5050-7" offset="0" style="stop-color:black;stop-opacity:0;"/>
      <stop id="stop5056-4" offset="0.5" style="stop-color:black;stop-opacity:1;"/>
      <stop id="stop5052-0" offset="1" style="stop-color:black;stop-opacity:0;"/>
    </linearGradient>
    <radialGradient cx="605.71429" cy="486.64789" fx="605.71429" fy="486.64789" gradientTransform="matrix(2.774389,0,0,1.969706,-1891.633,-872.8854)" gradientUnits="userSpaceOnUse" id="radialGradient5776" inkscape:collect="always" r="117.14286" xlink:href="#linearGradient5060-9"/>
    <linearGradient id="linearGradient5060-9" inkscape:collect="always">
      <stop id="stop5062-4" offset="0" style="stop-color:black;stop-opacity:1;"/>
      <stop id="stop5064-8" offset="1" style="stop-color:black;stop-opacity:0;"/>
    </linearGradient>
    <radialGradient r="117.14286" fy="486.64789" fx="605.71429" cy="486.64789" cx="605.71429" gradientTransform="matrix(-2.774389,0,0,1.969706,112.7623,-872.8854)" gradientUnits="userSpaceOnUse" id="radialGradient3504" xlink:href="#linearGradient5060-9" inkscape:collect="always"/>
    <radialGradient r="117.14286" fy="486.64789" fx="605.71429" cy="486.64789" cx="605.71429" gradientTransform="matrix(-2.774389,0,0,1.969706,112.7623,-872.8854)" gradientUnits="userSpaceOnUse" id="radialGradient3231" xlink:href="#linearGradient5060-9" inkscape:collect="always"/>
    <linearGradient inkscape:collect="always" xlink:href="#linearGradient4914" id="linearGradient4920" x1="300.10968" y1="367.36536" x2="314.86874" y2="364.91" gradientUnits="userSpaceOnUse" gradientTransform="matrix(0.87390362,0,0,0.87390362,729.18348,45.616336)"/>
    <linearGradient inkscape:collect="always" xlink:href="#linearGradient4914" id="linearGradient4933" x1="244.87256" y1="361.5784" x2="273.35632" y2="365.80844" gradientUnits="userSpaceOnUse" gradientTransform="matrix(0.85311365,-0.1894852,0.1894852,0.85311365,664.52863,104.73964)"/>
    <filter inkscape:collect="always" id="filter5503" x="-0.3299699" width="1.6599398" y="-0.63283366" height="2.2656673">
      <feGaussianBlur inkscape:collect="always" stdDeviation="1.9643328" id="feGaussianBlur5505"/>
    </filter>
    <linearGradient inkscape:collect="always" xlink:href="#linearGradient5423-6" id="linearGradient5302-1" gradientUnits="userSpaceOnUse" x1="322.43402" y1="24.725334" x2="332.81885" y2="58.272659" gradientTransform="translate(-40.714286,330.71428)"/>
    <linearGradient id="linearGradient5423-6">
      <stop style="stop-color:#2b5604;stop-opacity:1;" offset="0" id="stop5425-0"/>
      <stop id="stop5427-9" offset="1" style="stop-color:#2b5604;stop-opacity:0;"/>
    </linearGradient>
    <linearGradient y2="58.272659" x2="332.81885" y1="24.725334" x1="322.43402" gradientTransform="translate(50.505476,103.95554)" gradientUnits="userSpaceOnUse" id="linearGradient5552" xlink:href="#linearGradient5423-6" inkscape:collect="always"/>
    <clipPath clipPathUnits="userSpaceOnUse" id="clipPath5589">
      <path style="fill:url(#linearGradient5593);fill-opacity:1;stroke:none" d="m 279.39947,373.55898 c 0,0 2.16723,-2.6979 8.18582,-3.41298 6.37658,-0.75761 10.01223,2.65668 10.01223,2.65668 0,0 3.87737,-5.68714 11.20097,-8.71759 7.32361,-3.03046 18.77068,-3.21081 23.85588,-4.6376 5.94532,-1.66812 12.38334,-5.5902 12.38334,-5.5902 0,0 6.73641,10.97654 7.19734,19.82424 0.46093,8.8477 -5.3033,15.65737 -13.13198,19.19291 -7.82868,3.53553 -32.32488,29.29442 -64.9023,21.46574 -32.57742,-7.82869 -34.70977,-10.04025 -40.1842,-20.30766 -4.18563,-7.85022 -1.07897,-23.37063 -0.72698,-29.44236 0.12627,-2.17814 0.91545,-2.49381 0.91545,-2.49381 0,0 2.95933,1.65119 5.58741,1.98874 2.25968,0.29023 11.17481,0.75761 17.48826,1.01015 6.31346,0.25254 11.86929,1.76777 14.14214,3.78807 5.85202,3.52185 6.70433,4.00346 7.97662,4.67567 z" id="path5591" inkscape:connector-curvature="0" sodipodi:nodetypes="cscssczsssscsscc" clip-path="none"/>
    </clipPath>
    <linearGradient inkscape:collect="always" xlink:href="#linearGradient5423-6" id="linearGradient5593" gradientUnits="userSpaceOnUse" gradientTransform="translate(-41.724443,330.71428)" x1="322.43402" y1="24.725334" x2="332.81885" y2="58.272659"/>
    <filter inkscape:collect="always" id="filter5603" x="-0.1915684" width="1.3831368" y="-0.44144022" height="1.8828804">
      <feGaussianBlur inkscape:collect="always" stdDeviation="3.0217634" id="feGaussianBlur5605"/>
    </filter>
    <filter inkscape:collect="always" id="filter5615" x="-0.24703682" width="1.4940736" y="-0.33176659" height="1.6635332">
      <feGaussianBlur inkscape:collect="always" stdDeviation="3.8058646" id="feGaussianBlur5617"/>
    </filter>
    <filter inkscape:collect="always" id="filter5628" x="-0.25666986" width="1.5133397" y="-0.7453855" height="2.490771">
      <feGaussianBlur inkscape:collect="always" stdDeviation="4.3488297" id="feGaussianBlur5630"/>
    </filter>
    <filter inkscape:collect="always" id="filter5714" x="-0.20000973" width="1.4000195" y="-0.075563735" height="1.1511275">
      <feGaussianBlur inkscape:collect="always" stdDeviation="10.040457" id="feGaussianBlur5716"/>
    </filter>
    <linearGradient inkscape:collect="always" xlink:href="#linearGradient4647" id="linearGradient5848" gradientUnits="userSpaceOnUse" x1="335.77841" y1="499.06903" x2="393.15436" y2="579.42621" gradientTransform="matrix(1.0995383,0,0,1.0995383,31.419578,-10.950109)"/>
    <linearGradient inkscape:collect="always" xlink:href="#linearGradient5373" id="linearGradient5854" gradientUnits="userSpaceOnUse" x1="287.1033" y1="509.21869" x2="296.97226" y2="533.86157" gradientTransform="matrix(1.0995383,0,0,1.0995383,31.419578,-10.950109)"/>
    <linearGradient inkscape:collect="always" xlink:href="#linearGradient5373" id="linearGradient5859" gradientUnits="userSpaceOnUse" x1="248.61972" y1="482.26007" x2="239.65871" y2="514.83752" gradientTransform="matrix(1.0995383,0,0,1.0995383,31.419578,-10.950109)"/>
    <linearGradient inkscape:collect="always" xlink:href="#linearGradient4667" id="linearGradient5864" gradientUnits="userSpaceOnUse" x1="359.54242" y1="389.78741" x2="369.52908" y2="693.43359" gradientTransform="matrix(1.0995383,0,0,1.0995383,31.419578,-10.950109)"/>
    <linearGradient inkscape:collect="always" xlink:href="#linearGradient5389" id="linearGradient5867" gradientUnits="userSpaceOnUse" x1="245.01114" y1="492.89087" x2="271.46011" y2="483.0419" gradientTransform="matrix(1.0995383,0,0,1.0995383,31.419578,-10.950109)"/>
    <linearGradient inkscape:collect="always" xlink:href="#linearGradient4667" id="linearGradient5871" gradientUnits="userSpaceOnUse" x1="232.43048" y1="396.3385" x2="238.32411" y2="712.02606" gradientTransform="matrix(1.0995383,0,0,1.0995383,31.419578,-10.950109)"/>
    <linearGradient inkscape:collect="always" xlink:href="#linearGradient5423" id="linearGradient5914" gradientUnits="userSpaceOnUse" gradientTransform="matrix(1.0995383,0,0,1.0995383,-13.347339,352.68291)" x1="322.43402" y1="24.725334" x2="332.81885" y2="58.272659"/>
    <linearGradient inkscape:collect="always" xlink:href="#linearGradient4779" id="linearGradient5916" gradientUnits="userSpaceOnUse" gradientTransform="matrix(1.0790459,0,0,1.0790459,37.68185,-5.0404095)" x1="240.48769" y1="372.05087" x2="146.00172" y2="367.05087"/>
    <linearGradient inkscape:collect="always" xlink:href="#linearGradient4779" id="linearGradient5918" gradientUnits="userSpaceOnUse" gradientTransform="matrix(1.0790459,0,0,1.0790459,37.68185,-5.0404095)" x1="350.66415" y1="346.70334" x2="436.55011" y2="328.13193"/>
    <radialGradient inkscape:collect="always" xlink:href="#linearGradient4799" id="radialGradient5920" gradientUnits="userSpaceOnUse" gradientTransform="matrix(1.6941274,-0.8547193,0.37883178,0.83081983,-266.07462,345.83479)" cx="315.44086" cy="289.66586" fx="315.44086" fy="289.66586" r="58.515486"/>
    <linearGradient inkscape:collect="always" xlink:href="#linearGradient4914" id="linearGradient5922" gradientUnits="userSpaceOnUse" gradientTransform="matrix(0.82540886,0.13469654,-0.16072489,0.70267171,153.38334,-254.42066)" x1="300.10968" y1="367.36536" x2="314.86874" y2="364.91"/>
    <linearGradient inkscape:collect="always" xlink:href="#linearGradient4914" id="linearGradient5924" gradientUnits="userSpaceOnUse" gradientTransform="matrix(0.81732925,-0.1549768,0.18153712,0.69774752,21.502047,-167.44878)" x1="244.87256" y1="361.5784" x2="273.35632" y2="365.80844"/>
    <linearGradient inkscape:collect="always" xlink:href="#linearGradient5423" id="linearGradient5926" gradientUnits="userSpaceOnUse" gradientTransform="matrix(1.0829879,0,0,1.0935752,-231.32488,-20.548183)" x1="558.20178" y1="462.56467" x2="540.36023" y2="413.62735"/>
    <linearGradient inkscape:collect="always" xlink:href="#linearGradient5407" id="linearGradient5928" gradientUnits="userSpaceOnUse" gradientTransform="matrix(1.0995383,0,0,1.0995383,31.419578,-10.950109)" x1="308.60162" y1="323.41089" x2="264.02866" y2="326.69385"/>
  </defs>
  <sodipodi:namedview inkscape:document-units="mm" id="base" pagecolor="#ffffff" bordercolor="#666666" borderopacity="1.0" inkscape:pageopacity="0.0" inkscape:pageshadow="2" inkscape:zoom="0.49497475" inkscape:cx="90.609074" inkscape:cy="704.57109" inkscape:current-layer="layer1" showgrid="false" showguides="true" inkscape:guide-bbox="true" inkscape:window-width="1366" inkscape:window-height="705" inkscape:window-x="-4" inkscape:window-y="-4" inkscape:window-maximized="1">
    <sodipodi:guide orientation="0,1" position="-549.52298,929.34034" id="guide6851"/>
    <sodipodi:guide orientation="0,1" position="222.23356,218.19295" id="guide6853"/>
    <sodipodi:guide orientation="1,0" position="731.35044,507.09658" id="guide6855"/>
    <sodipodi:guide orientation="1,0" position="22.223356,593.9697" id="guide6857"/>
  </sodipodi:namedview>
  <metadata id="metadata4">
    <rdf:RDF>
      <cc:Work rdf:about="">
        <dc:format>image/svg+xml</dc:format>
        <dc:type rdf:resource="http://purl.org/dc/dcmitype/StillImage"/>
        <dc:title>user yoda</dc:title>
      </cc:Work>
    </rdf:RDF>
  </metadata>
  <g inkscape:label="Layer 1" inkscape:groupmode="layer" id="layer1">
    <g id="g5944" transform="matrix(1,0,0,0.99715698,0,2.3715634)">
      <g id="g6707" transform="matrix(0.17199609,0,0,0.17452052,509.70632,776.98579)">
        <rect height="478.35718" id="rect6709" style="opacity:0.40206185;fill:url(#linearGradient5774);fill-opacity:1;fill-rule:nonzero;stroke:none;stroke-width:1;marker:none;visibility:visible;display:inline;overflow:visible" width="1339.6335" x="-1559.2523" y="-150.69685"/>
        <path d="m -219.61876,-150.68038 c 0,0 0,478.33079 0,478.33079 142.874166,0.90045 345.40022,-107.16966 345.40014,-239.196175 0,-132.026537 -159.436816,-239.134595 -345.40014,-239.134615 z" id="path6711" sodipodi:nodetypes="cccc" style="opacity:0.40206185;fill:url(#radialGradient5776);fill-opacity:1;fill-rule:nonzero;stroke:none;stroke-width:1;marker:none;visibility:visible;display:inline;overflow:visible" inkscape:connector-curvature="0"/>
        <path d="m -1559.2523,-150.68038 c 0,0 0,478.33079 0,478.33079 -142.8742,0.90045 -345.4002,-107.16966 -345.4002,-239.196175 0,-132.026537 159.4368,-239.134595 345.4002,-239.134615 z" id="path6713" sodipodi:nodetypes="cccc" style="opacity:0.40206185;fill:url(#radialGradient3231);fill-opacity:1;fill-rule:nonzero;stroke:none;stroke-width:1;marker:none;visibility:visible;display:inline;overflow:visible" inkscape:connector-curvature="0"/>
      </g>
      <g transform="matrix(1.0995383,0,0,1.0995383,-306.84553,632.47614)" style="fill:#1b1f20;fill-opacity:1;stroke:#2e3436;stroke-width:6.31417322;stroke-miterlimit:4;stroke-opacity:1;stroke-dasharray:none" id="g3910">
        <path style="fill:#1b1f20;fill-opacity:1;stroke:#2e3436;stroke-width:6.31417322;stroke-miterlimit:4;stroke-opacity:1;stroke-dasharray:none" d="m 507.16611,113.44973 c 0,0 -23.23351,13.8896 -21.97082,17.42513 1.26269,3.53554 3.78808,9.34392 8.5863,9.09138 4.79822,-0.25254 14.64721,-5.80838 14.64721,-5.80838 0,0 -5.05076,4.79822 -1.51523,7.82868 3.53554,3.03046 6.81853,6.56599 15.90991,2.52538 9.09137,-4.04061 11.86929,-8.33375 16.66751,-8.58629 4.79823,-0.25254 7.82868,-0.50508 7.82868,-0.50508 0,0 -0.25253,6.06092 4.29315,6.56599 4.54569,0.50508 8.83884,0.75762 12.62691,-1.51523 3.78807,-2.27284 6.31345,-4.54568 6.81853,-7.82868 0.50508,-3.28299 1.01015,-11.86929 1.01015,-11.86929 0,0 -17.93021,-8.33376 -19.1929,-8.33376 -1.26269,0 -32.82995,-1.51523 -32.82995,-1.51523 z" id="path3830-4" inkscape:connector-curvature="0"/>
        <path style="fill:#1b1f20;fill-opacity:1;stroke:#2e3436;stroke-width:6.31417322;stroke-miterlimit:4;stroke-opacity:1;stroke-dasharray:none" d="m 579.80384,134.39852 c 0,0 22.14285,6.42857 35,-1.42857 12.85714,-7.85714 12.85714,-302.14286 12.85714,-302.14286 l -60.71429,1.42858 z" id="path3854-0" inkscape:connector-curvature="0"/>
        <path style="fill:#1b1f20;fill-opacity:1;stroke:#2e3436;stroke-width:6.31417322;stroke-miterlimit:4;stroke-opacity:1;stroke-dasharray:none" d="m 525.51812,-47.030047 c 0,0 -4.28571,40.7142896 -10,68.57143 -5.71428,27.85714 -15,92.857137 -15,92.857137 0,0 1.42857,13.57143 17.14286,15 15.71428,1.42857 25.71428,-4.28571 35,2.14286 9.28571,6.42857 32.14286,7.85714 32.14286,7.85714 0,0 5,-100.714277 3.57142,-124.999997 -1.42857,-24.2857104 1.11828,-88.58462 -2.41726,-110.80797 -3.53553,-22.223363 0.50508,-50.507633 -6.56599,-60.104083 -7.07106,-9.59645 -34.34518,-44.95179 -34.34518,-44.95179 0,0 -19.1929,0 -27.7792,7.07107 -8.58629,7.07107 -13.13198,5.55584 -14.64721,15.65736 -1.51523,10.10153 -6.06092,14.14214 -10.10153,22.22336 -4.04061,8.08122 -6.56599,24.24366 -7.57614,42.93148 -1.01015,18.687823 -2.0203,71.215763 -3.53553,78.286823 -1.51523,7.07107 3.03045,14.14214 11.61675,12.62691 8.5863,-1.51523 15.15229,-4.54569 21.2132,-10.10152 6.06092,-5.55584 11.28095,-14.26021 11.28095,-14.26021 z" id="path3806-9" inkscape:connector-curvature="0"/>
        <path style="fill:#1b1f20;fill-opacity:1;stroke:#2e3436;stroke-width:6.31417322;stroke-miterlimit:4;stroke-opacity:1;stroke-dasharray:none" d="m 711.57502,105.59671 c 0,0 20.91194,13.8896 19.77542,17.42513 -1.13651,3.53554 -3.40956,9.34392 -7.72832,9.09138 -4.31877,-0.25254 -13.18361,-5.80838 -13.18361,-5.80838 0,0 4.54607,4.79822 1.36382,7.82868 -3.18226,3.03046 -6.1372,6.56599 -14.32014,2.52538 -8.18292,-4.04061 -10.68327,-8.33375 -15.00203,-8.58629 -4.31877,-0.25254 -7.04641,-0.50508 -7.04641,-0.50508 0,0 0.2273,6.06092 -3.86416,6.56599 -4.09147,0.50508 -7.95564,0.75762 -11.36519,-1.51523 -3.40955,-2.27284 -5.68259,-4.54568 -6.1372,-7.82868 -0.45461,-3.28299 -0.90921,-11.86929 -0.90921,-11.86929 0,0 16.13856,-8.33376 17.27508,-8.33376 1.13652,0 29.54946,-1.51523 29.54946,-1.51523 z" id="path3830-7-4" inkscape:connector-curvature="0"/>
        <path style="fill:#1b1f20;fill-opacity:1;stroke:#2e3436;stroke-width:6.31417322;stroke-miterlimit:4;stroke-opacity:1;stroke-dasharray:none" d="m 684.61106,-58.551437 c 0,0 6.81967,44.71231 13.53159,72.86132 6.71191,28.14902 20.47596,91.687197 20.47596,91.687197 0,0 -12.39227,9.42791 -30.85008,10.87145 -18.4578,1.44354 -26.98939,4.9551 -37.89628,11.45102 -10.90686,6.49593 -37.75461,7.93947 -37.75461,7.93947 0,0 -5.87292,-101.769517 -4.19492,-126.3096974 1.67798,-24.5401596 -5.60666,-62.2386496 -1.45388,-84.6948596 2.07639,-11.2281 -19.57036,-14.5407 -14.11611,-22.52471 3.17541,-4.648213 7.5421,-11.938403 14.56294,-11.604773 -1.21723,-14.86317 9.30686,-51.24943 11.55865,-53.87845 8.30559,-9.69699 40.34143,-45.42278 40.34143,-45.42278 0,0 22.54374,0 32.62909,7.14516 10.08535,7.14516 -0.28964,4.18548 10.41871,24.0357 10.15538,62.62065 -4.60306,42.77433 -10.43061,67.49643 -7.49858,8.05807 -6.82188,50.947523 -6.82188,50.947523 z" id="path3806-1-8" inkscape:connector-curvature="0" sodipodi:nodetypes="cscsscssscscsccc"/>
        <path style="fill:#1b1f20;fill-opacity:1;stroke:#2e3436;stroke-width:6.31417322;stroke-miterlimit:4;stroke-opacity:1;stroke-dasharray:none" d="m 537.48024,-193.31359 c 0,0 0.7677,12.72421 12.1678,18.50352 11.4001,5.77932 13.53483,8.59757 15.55564,12.24131 2.02082,3.64375 11.78109,6.344 16.59496,7.75804 5.56525,1.63473 12.09913,7.09631 20.57448,6.55261 8.37888,-0.53751 11.78827,-7.62441 19.09979,-9.68506 6.72261,-1.89466 11.72116,-6.59928 14.82421,-10.79775 3.10304,-4.19847 9.32317,-9.64922 12.96691,-11.67003 3.64375,-2.02081 12.71102,-15.91144 15.08846,-23.99552 2.37744,-8.08409 2.23546,-13.15099 2.23546,-13.15099 0,0 24.93577,2.17935 33.47638,-10.94275 8.5406,-13.12208 19.49382,-28.48745 25.67102,-30.57924 6.17719,-2.0918 11.64434,-5.05603 11.04349,-8.7809 -0.85004,-5.26977 -8.7582,-4.73124 -21.95211,-3.60776 -13.19391,1.12349 -25.06456,7.8975 -35.49719,7.299 -10.43263,-0.59849 -22.16046,-0.95512 -22.16046,-0.95512 0,0 -18.13914,-48.29732 -59.04349,-46.47604 -63.49762,2.82724 -62.10297,62.65232 -62.10297,62.65232 0,0 -9.50054,-0.12143 -16.72692,4.82963 -7.22639,4.95105 -9.71243,7.87954 -26.08679,7.9992 -16.37435,0.11963 -37.69271,8.65678 -36.73718,16.81885 0.45705,3.9041 8.64057,5.11294 17.89945,6.98551 9.25887,1.87256 17.24533,9.28639 30.72095,12.93053 13.47563,3.64415 31.68168,3.18244 31.68168,3.18244 z" id="path3793-8" inkscape:connector-curvature="0" sodipodi:nodetypes="csssssssscssssscscssssscc"/>
      </g>
      <path inkscape:connector-curvature="0" id="path3830" d="m 250.78311,757.13924 c 0,0 -25.54613,15.27215 -24.15776,19.1596 1.38838,3.88746 4.16514,10.274 9.44097,9.99632 5.27582,-0.27768 16.10517,-6.38654 16.10517,-6.38654 0,0 -5.55351,5.27583 -1.66606,8.60794 3.88746,3.3321 7.49724,7.21956 17.49356,2.77675 9.99631,-4.44281 13.05074,-9.16328 18.32656,-9.44095 5.27584,-0.27768 8.60794,-0.55536 8.60794,-0.55536 0,0 -0.27767,6.66421 4.72048,7.21956 4.99816,0.55535 9.71864,0.83303 13.88377,-1.66606 4.16513,-2.49907 6.94188,-4.99814 7.49724,-8.60793 0.55535,-3.60977 1.11069,-13.05074 1.11069,-13.05074 0,0 -19.71495,-9.16329 -21.10332,-9.16329 -1.38838,0 -36.09779,-1.66605 -36.09779,-1.66605 z" style="fill:#4e9a06;stroke:none"/>
      <path inkscape:connector-curvature="0" id="path3854" d="m 330.65108,780.17324 c 0,0 24.34691,7.06846 38.48384,-1.57077 14.13691,-8.63922 14.13691,-332.21764 14.13691,-332.21764 l -66.75768,1.57077 z" style="fill:#1b1f20;fill-opacity:1;stroke:none"/>
      <path inkscape:connector-curvature="0" id="path3806" d="m 270.96185,580.68558 c 0,0 -4.7123,44.76692 -10.99539,75.39691 -6.28307,30.62999 -16.49307,102.09998 -16.49307,102.09998 0,0 1.57077,14.92231 18.84923,16.49308 17.27845,1.57077 28.27384,-4.7123 38.48384,2.35615 10.21,7.06846 35.34231,8.63923 35.34231,8.63923 0,0 5.49769,-110.73921 3.92691,-137.44229 -1.57077,-26.70306 1.22959,-97.40218 -2.65787,-121.8376 -3.88745,-24.43544 0.55536,-55.53508 -7.21956,-66.08674 -7.7749,-10.55167 -37.76384,-49.42622 -37.76384,-49.42622 0,0 -21.10333,0 -30.54429,7.77492 -9.44096,7.77491 -14.43912,6.10886 -16.10517,17.21586 -1.66605,11.10702 -6.66421,15.54983 -11.10702,24.43544 -4.44281,8.88561 -7.21956,26.65683 -8.33026,47.20481 -1.11069,20.54797 -2.22139,78.30445 -3.88745,86.07935 -1.66605,7.77491 3.3321,15.54983 12.77306,13.88377 9.44097,-1.66605 16.66053,-4.99816 23.32473,-11.107 6.66421,-6.10886 12.40384,-15.67965 12.40384,-15.67965 z" style="fill:url(#linearGradient5871);fill-opacity:1;stroke:none"/>
      <path inkscape:connector-curvature="0" id="path3830-7" d="m 475.53853,748.50455 c 0,0 22.99348,15.27214 21.74384,19.15959 -1.24964,3.88747 -3.74895,10.274 -8.49759,9.99632 -4.74865,-0.27767 -14.49588,-6.38653 -14.49588,-6.38653 0,0 4.99858,5.27583 1.49957,8.60793 -3.49902,3.33211 -6.74809,7.21956 -15.74554,2.77675 -8.99744,-4.4428 -11.74667,-9.16327 -16.49531,-9.44095 -4.74865,-0.27768 -7.7478,-0.55536 -7.7478,-0.55536 0,0 0.24993,6.66422 -4.24879,7.21956 -4.49873,0.55536 -8.74753,0.83303 -12.49646,-1.66605 -3.74893,-2.49908 -6.24822,-4.99815 -6.74809,-8.60794 -0.49986,-3.60977 -0.99971,-13.05073 -0.99971,-13.05073 0,0 17.74497,-9.16329 18.99462,-9.16329 1.24964,0 32.49076,-1.66606 32.49076,-1.66606 z" style="fill:#4e9a06;stroke:none"/>
      <path sodipodi:nodetypes="cczcczc" inkscape:connector-curvature="0" id="path3856" d="m 291.65543,495.6973 24.65133,81.72764 c 0,0 7.1016,3.96317 17.43554,0.78099 10.33393,-3.18218 13.65162,-6.13318 13.65162,-6.13318 l -25.0015,-86.73415 c 0,0 -9.39462,-3.23513 -20.33999,0.69179 -10.94537,3.92693 -10.397,9.66691 -10.397,9.66691 z" style="fill:url(#linearGradient5867);fill-opacity:1;stroke:none"/>
      <path sodipodi:nodetypes="cscsscssscscsccc" inkscape:connector-curvature="0" id="path3806-1" d="m 445.89063,568.01737 c 0,0 7.49849,49.1629 14.8785,80.11381 7.38,30.95093 22.5141,100.81359 22.5141,100.81359 0,0 -13.62577,10.36635 -33.92084,11.95357 -20.29506,1.58723 -29.67587,5.44833 -41.66841,12.59084 -11.99251,7.14252 -41.51264,8.72975 -41.51264,8.72975 0,0 -6.4575,-111.89948 -4.61248,-138.88235 1.845,-26.98285 -6.16474,-68.43378 -1.5986,-93.12524 2.28307,-12.34573 -21.51836,-15.98806 -15.5212,-24.76679 3.49149,-5.11088 8.29283,-13.12672 16.01251,-12.75989 -1.33839,-16.34262 10.23325,-56.35071 12.70918,-59.24141 9.13231,-10.66222 44.35695,-49.94409 44.35695,-49.94409 0,0 24.7877,0 35.87693,7.85638 11.08923,7.85637 -0.31847,4.60209 11.45577,26.42817 11.16623,68.8538 -5.06124,47.03201 -11.46885,74.21491 -8.24498,8.86016 -7.50092,56.01875 -7.50092,56.01875 z" style="fill:url(#linearGradient5864);fill-opacity:1;stroke:none"/>
      <path inkscape:connector-curvature="0" id="path3850" d="m 281.88275,501.67792 c 0,0 -9.44097,9.16329 -10.82934,15.82751 -1.38838,6.6642 -1.66606,14.71679 -6.10886,19.43726 -4.44281,4.72048 -18.60425,25.82381 -23.32473,27.76754 -4.72048,1.94373 -14.99447,8.33026 -9.99631,12.21772 4.99815,3.88745 9.16328,8.33026 18.32657,8.33026 9.16329,0 14.43912,-1.38838 21.93635,-8.88561 7.49723,-7.49724 14.7168,-29.98894 16.10518,-33.59872 1.38837,-3.60978 6.10886,-18.0489 4.72047,-24.99079 -1.38838,-6.94188 0,-16.66051 -3.60977,-17.77122 -3.60979,-1.1107 -5.27584,-1.1107 -7.21956,1.66605 z" style="fill:#422902;fill-opacity:1;stroke:none"/>
      <path sodipodi:nodetypes="cscscsc" inkscape:connector-curvature="0" id="path4741" d="m 279.106,774.35512 c 0,0 9.30211,-1.80489 13.88376,-0.41652 4.58164,1.38838 13.05075,5.69235 13.05075,5.69235 0,0 14.71679,-135.50557 14.16143,-159.941 -0.55535,-24.43543 -1.1107,-35.26478 -1.1107,-35.26478 0,0 -4.14786,23.74887 -17.89209,71.65732 -13.74423,47.90846 -24.15901,92.4272 -22.09315,118.27263 z" style="fill:#3f2701;fill-opacity:1;stroke:none"/>
      <path inkscape:connector-curvature="0" id="path3826" d="m 292.15673,496.67977 c 0,0 -14.99447,6.66421 -14.43911,16.66052 0.55534,9.99632 -3.05443,17.21587 4.16513,20.82565 7.21956,3.60978 14.99447,13.05075 22.76937,12.77307 7.77491,-0.27768 19.71495,-0.55535 23.60241,-6.10886 3.88745,-5.5535 6.94188,-6.94188 6.94188,-11.66236 0,-4.72048 -1.1107,-8.05259 -1.1107,-8.05259 0,0 1.94372,-1.1107 0.27768,-4.99816 -1.66605,-3.88745 -4.16514,-6.38653 -7.21957,-7.21956 -3.05443,-0.83302 -0.27766,1.38838 -7.7749,1.66605 -7.49723,0.27768 -7.49723,1.1107 -14.16145,-0.27767 -6.6642,-1.38838 -13.05074,-7.49724 -13.05074,-13.60609 z" style="fill:url(#linearGradient5859);fill-opacity:1;stroke:none"/>
      <path sodipodi:nodetypes="zccccz" inkscape:connector-curvature="0" id="path4739" d="m 411.8846,771.14541 c 3.67137,-1.96202 7.18822,-3.57984 7.18822,-3.57984 -13.89144,-68.55346 -11.99446,-162.2358 -22.08684,-157.11721 -5.18817,1.03497 -0.44205,41.71197 4.24068,90.7887 1.66605,16.38284 2.59028,74.50643 2.59028,74.50643 0.64671,-0.19158 4.39629,-2.63606 8.06766,-4.59808 z" style="fill:#3f2701;fill-opacity:1;stroke:none"/>
      <path inkscape:connector-curvature="0" id="path3852" d="m 356.02206,517.50543 c 0,0 5.55351,-4.44282 8.33026,0 2.77676,4.4428 10.82934,38.87454 15.54982,49.98155 4.72049,11.10701 38.04152,47.20481 42.20666,50.53692 4.16513,3.3321 7.21956,8.33025 1.94372,5.83118 -5.27582,-2.49908 -39.98525,-37.2085 -45.53875,-43.03968 -5.55351,-5.83118 -11.66236,-13.88377 -16.10517,-18.0489 -4.4428,-4.16513 -21.10333,-28.60056 -15.8275,-37.2085 5.27584,-8.60793 4.99816,-5.27582 9.44096,-8.05257 z" style="fill:#3f2701;fill-opacity:1;stroke:none"/>
      <path sodipodi:nodetypes="csssssssssssscc" inkscape:connector-curvature="0" id="path3828" d="m 305.20747,549.99344 c 0,0 11.66237,1.94372 17.49355,-0.27768 5.83118,-2.22141 8.60794,-4.99816 11.10702,-8.88561 2.49907,-3.88746 2.39801,-7.88992 2.67569,-12.05505 0.27768,-4.16514 -0.44034,-6.45392 -0.16267,-10.06369 0.27768,-3.60978 -3.33209,-5.55351 -1.11069,-6.10886 2.2214,-0.55535 10.81538,1.57077 16.64657,6.56892 5.83118,4.99816 11.38468,2.49908 13.88376,6.66421 2.49908,4.16513 7.49723,16.66052 6.10886,20.54798 -1.38838,3.88746 -6.10886,9.16328 -9.99631,13.32841 -3.88745,4.16513 -13.32842,11.66236 -19.1596,13.05074 -5.83118,1.38838 -15.27215,3.33211 -21.65869,1.94373 -6.38652,-1.38837 -8.05257,-0.83302 -9.16327,-4.4428 -1.11071,-3.60978 -1.11071,-7.21956 -1.11071,-7.21956 0,0 -6.66421,-4.44281 -5.55351,-13.05074 z" style="fill:url(#linearGradient5854);fill-opacity:1;stroke:none"/>
      <path sodipodi:nodetypes="cscsczc" inkscape:connector-curvature="0" id="path4743" d="m 247.55004,429.62599 c 0,0 12.02374,1.05115 17.71777,6.94153 5.69404,5.89039 14.33326,21.00904 14.33326,21.00904 0,0 -1.76711,-4.71231 -16.68942,-4.12326 -14.9223,0.58903 -30.2373,11.17981 -30.2373,11.17981 0,0 6.43767,-15.27904 9.35316,-18.58347 2.91548,-3.30443 1.22353,-8.44409 5.52253,-16.42365 z" style="fill:#3f2701;fill-opacity:1;stroke:none"/>
      <path inkscape:connector-curvature="0" id="path4745" d="m 393.50824,485.85043 c 0,0 6.10886,-23.88008 15.54981,-37.76385 9.44097,-13.88376 27.76754,-33.32103 27.76754,-33.32103 0,0 1.42316,-1.02327 2.20854,-0.28696 0.78539,0.73629 -1.0799,3.82874 -3.09245,6.08672 -2.01254,2.25798 -4.53076,5.37666 -4.53076,5.37666 0,0 10.55166,-3.3321 14.85563,-4.99815 4.30398,-1.66606 12.42598,-2.22141 12.42598,-2.22141 0,0 0.83302,8.05259 1.94372,10.27399 1.11071,2.22141 4.44281,8.60794 4.44281,8.60794 0,0 -23.81066,-5.62293 -31.58557,1.04128 -7.77491,6.66421 -16.10517,9.44096 -18.88192,16.66052 -2.77677,7.21956 -3.33211,9.71864 -3.33211,9.71864 0,0 11.38469,-8.60793 16.93819,-10.27399 5.55352,-1.66605 16.9382,-3.88746 16.9382,-3.88746 0,0 -15.13331,5.55352 -19.29844,9.57981 -4.16512,4.02629 -15.96633,16.244 -16.244,17.21586 -0.27768,0.97188 -2.38735,6.62063 -8.27773,10.15487 -5.89038,3.53422 -8.83557,3.92691 -8.83557,3.92691 z" style="fill:#3f2701;fill-opacity:1;stroke:none"/>
      <path inkscape:connector-curvature="0" id="path4747" d="m 447.9326,760.88787 c 0,0 7.08073,0 11.66237,-1.52722 4.58164,-1.52721 10.41282,-3.33211 10.41282,-3.33211 0,0 -7.63606,-60.25554 -12.07887,-77.47142 -4.44281,-17.21587 -12.77307,-48.87086 -12.77307,-48.87086 0,0 1.1107,13.88377 0,31.65499 -1.1107,17.77123 -3.33211,57.75647 -2.77675,68.30814 0.55535,10.55166 5.5535,31.23848 5.5535,31.23848 z" style="fill:#3f2701;fill-opacity:1;stroke:none"/>
      <path sodipodi:nodetypes="cssssscc" inkscape:connector-curvature="0" id="path4749" d="m 429.02626,618.47932 c 0,0 9.61518,-18.15913 11.57865,-36.22297 1.96345,-18.06385 0.39268,-45.5523 5.49769,-60.08191 5.10499,-14.52962 13.35153,-30.2373 0,-32.20077 -13.35154,-1.96346 -36.91308,0.78539 -42.80347,14.52962 -5.89038,13.74423 -32.59345,29.8446 -26.31038,44.76691 6.28308,14.9223 13.27599,26.38931 22.30791,35.02854 7.90533,7.56997 22.63273,25.89279 29.7296,34.18058 z" style="fill:url(#linearGradient5848);fill-opacity:1;stroke:none"/>
      <g transform="matrix(1.0117365,0,0,1.0117365,-3.8400543,-3.3991417)" id="g5882">
        <path style="fill:#4e9a06;stroke:none" d="m 285.53114,417.3134 c 0,0 0.82838,13.73 13.12961,19.96614 12.30123,6.23615 14.76062,5.06762 16.94115,8.99939 2.18058,3.93176 12.71235,6.84546 17.90673,8.37128 6.00516,1.76394 13.05551,7.65724 22.20077,7.07057 9.04122,-0.58 12.72011,-8.2271 20.60957,-10.45063 7.25399,-2.04443 12.64771,-7.12093 15.99609,-11.65127 3.34837,-4.53034 11.93095,-9.6324 15.86273,-11.81296 3.9318,-2.18054 11.68906,-13.73915 14.25436,-22.46225 2.56532,-8.7231 2.4122,-14.19052 2.4122,-14.19052 0,0 26.90677,2.35162 36.12239,-11.80772 9.21575,-14.15934 21.03483,-30.73928 27.70034,-32.99641 6.66551,-2.25715 12.56474,-5.4557 11.9165,-9.475 -0.91729,-5.68632 -9.4506,-5.10522 -23.68742,-3.89295 -14.23684,1.2123 -27.04581,8.52178 -38.30307,7.87596 -11.2574,-0.64579 -23.91215,-1.03062 -23.91215,-1.03062 0,0 -19.5729,-52.11501 -63.7107,-50.14977 -68.51683,3.05072 -67.01194,67.60472 -67.01194,67.60472 0,0 -10.25152,-0.13103 -18.04913,5.2114 -7.79759,5.3424 -10.48014,8.50239 -28.14884,8.63151 -17.66867,0.12908 -40.67215,9.34106 -39.64109,18.14832 0.49317,4.21269 9.32356,5.51708 19.31432,7.53767 9.99075,2.02059 18.6085,10.02045 33.14931,13.95265 14.54082,3.93219 34.186,3.43399 34.186,3.43399 z" id="path3793" inkscape:connector-curvature="0" sodipodi:nodetypes="csssssssscssssscscssssscc"/>
        <path style="fill:url(#linearGradient5914);fill-opacity:1;stroke:none" d="m 339.74069,399.7923 c 0,0 2.38296,-2.96645 9.00063,-3.75271 7.01129,-0.83302 11.00883,2.92113 11.00883,2.92113 0,0 4.26331,-6.25323 12.31589,-9.58533 8.05259,-3.3321 20.63908,-3.53041 26.23046,-5.09922 6.5371,-1.83416 13.61595,-6.14664 13.61595,-6.14664 0,0 7.40694,12.06913 7.91375,21.79752 0.50681,9.72838 -5.83118,17.21587 -14.43911,21.10333 -8.60793,3.88746 -35.54244,32.21034 -71.36256,23.60241 -35.82013,-8.60795 -38.16473,-11.03964 -44.18407,-22.32905 -4.60226,-8.63162 -1.18637,-25.6969 -0.79934,-32.373 0.13883,-2.39495 1.00657,-2.74204 1.00657,-2.74204 0,0 3.25389,1.81554 6.14357,2.18669 2.4846,0.31912 12.28713,0.83302 19.22901,1.1107 6.94189,0.27768 13.05074,1.94373 15.54983,4.16513 6.43452,3.87241 7.37166,4.40196 8.77059,5.14108 z" id="path5150" inkscape:connector-curvature="0" sodipodi:nodetypes="cscssczsssscsscc"/>
        <path style="fill:url(#linearGradient5916);fill-opacity:1;stroke:none" d="m 241.77086,406.21048 c -6.89281,-3.69357 -17.62009,-8.76609 -23.17006,-10.46105 -4.83895,-1.47784 -9.64331,-3.21923 -12.42379,-3.55261 -2.78048,-0.33339 -4.83781,-0.0215 -5.6747,-2.38841 -0.98246,-2.77858 12.22811,-5.63598 17.37184,-5.20737 5.14372,0.42862 17.79642,3.73301 26.27521,2.77423 8.47877,-0.95882 16.40178,-1.60799 22.37799,-3.05499 5.9762,-1.44701 13.44309,-4.81435 16.64318,-1.42046 3.2001,3.39391 1.50278,10.14218 1.04813,14.39578 -0.36066,3.37413 11.1209,7.823 3.75605,10.98488 -7.36485,3.16188 -11.41209,4.1552 -18.61361,3.39676 -6.97495,-0.73459 -20.69741,-1.77319 -27.59024,-5.46676 z" id="path4759-9" inkscape:connector-curvature="0" sodipodi:nodetypes="zssssssssssz"/>
        <path style="fill:url(#linearGradient5918);fill-opacity:1;stroke:none" d="m 465.06114,370.74276 c 3.38085,-6.16915 12.83417,-17.99967 16.88055,-20.88998 4.04649,-2.8903 10.0529,-5.20255 12.36507,-6.74404 2.31231,-1.54148 4.48114,-2.22475 3.3185,-4.54466 -1.36501,-2.72353 -15.99313,0.96344 -20.42486,3.66104 -4.43187,2.69762 -13.48808,11.17583 -22.15894,14.25884 -8.67085,3.08297 -16.57111,6.16597 -23.31515,7.70745 -6.74404,1.54151 -16.95646,3.85374 -17.14909,8.09286 -0.19274,4.23911 -0.0716,11.25555 3.84005,14.53132 3.10229,2.59844 3.12575,4.27619 12.56734,3.50544 9.4417,-0.77076 15.42057,-1.15981 21.49538,-5.0663 5.88379,-3.7836 9.20032,-8.3428 12.58115,-14.51197 z" id="path4759" inkscape:connector-curvature="0" sodipodi:nodetypes="zssssssssssz"/>
        <path style="opacity:0.77380952;fill:url(#radialGradient5920);fill-opacity:1;stroke:none" d="m 287.16921,358.51928 c 0,0 0.54381,15.19009 2.64491,28.53256 7.00613,3.7405 28.12415,-3.90765 36.29791,-0.79057 8.17388,3.11707 17.80726,9.66292 23.64577,9.35122 5.83852,-0.31172 18.97494,-11.53319 24.5215,-13.40344 5.54646,-1.87024 36.76754,-3.91733 37.26971,-6.69166 1.39045,-7.68428 4.00378,-22.80449 -1.18782,-35.03567 -6.0332,-14.21412 -13.78441,-31.80251 -34.73873,-42.01831 -15.64682,-7.62821 -39.2743,-8.97605 -56.80844,1.76654 -23.54929,14.42788 -30.94329,39.54476 -31.64481,58.28933 z" id="path4797" inkscape:connector-curvature="0" sodipodi:nodetypes="ccsssssssc"/>
        <g id="g5225" transform="matrix(1.0995383,0,0,1.0995383,-13.445512,352.38839)">
          <path inkscape:connector-curvature="0" id="path4807" d="m 343.99759,45.492956 c 0,0 4.18115,-5.639585 12.11737,-6.906286 7.93628,-1.266702 16.59183,4.153415 16.59183,4.153415 0,0 -5.62393,5.092522 -12.76395,5.997605 -7.14003,0.905101 -15.94525,-3.244734 -15.94525,-3.244734 z" style="fill:url(#linearGradient5922);fill-opacity:1;stroke:#000000;stroke-width:0.41225752;stroke-miterlimit:4;stroke-opacity:1;stroke-dasharray:none"/>
          <path sodipodi:nodetypes="sscss" inkscape:connector-curvature="0" id="path4809-6-2" d="m 365.21748,39.767476 c -0.32532,5.87168 -3.66034,8.16557 -7.32264,8.15462 -4.23554,-0.0127 -7.01472,-4.65708 -6.7136,-7.44481 0,0 2.27823,-1.90474 7.48615,-1.76314 3.29586,0.0896 6.56629,0.76048 6.55009,1.05333 z" style="fill:#f57900;fill-opacity:1;stroke:none"/>
          <path sodipodi:nodetypes="sscss" inkscape:connector-curvature="0" id="path4809-6" d="m 363.28303,39.201926 c -0.29322,4.86987 -2.80582,6.27088 -5.56986,6.29151 -3.19668,0.0239 -5.15258,-3.58085 -4.9027,-5.89416 0,0 1.74125,-1.29234 5.6709,-1.21715 2.48682,0.0475 4.81626,0.57695 4.80166,0.8198 z" style="fill:#000000;fill-opacity:1;stroke:none"/>
        </g>
        <g id="g5232" transform="matrix(1.0995383,0,0,1.0995383,-13.347339,352.19204)">
          <path inkscape:connector-curvature="0" id="path4807-5" d="m 317.23539,47.307545 c 0,0 -4.91342,-5.16347 -12.93254,-5.602079 -8.01912,-0.438599 -15.82315,5.830165 -15.82315,5.830165 0,0 6.26353,4.4721 13.44568,4.634048 7.18213,0.161947 15.31001,-4.862134 15.31001,-4.862134 z" style="fill:url(#linearGradient5924);fill-opacity:1;stroke:#000000;stroke-width:0.41115385;stroke-miterlimit:4;stroke-opacity:1;stroke-dasharray:none"/>
          <path sodipodi:nodetypes="sscss" inkscape:connector-curvature="0" id="path4809-6-2-8" d="m 295.71405,43.771197 c 0.97045,5.781055 4.5278,7.685389 8.15487,7.270263 4.19484,-0.480112 6.43559,-5.388141 5.82955,-8.116664 0,0 -2.46738,-1.635474 -7.61135,-0.920247 -3.25546,0.452656 -6.42148,1.478293 -6.37307,1.766648 z" style="fill:#f57900;fill-opacity:1;stroke:none"/>
          <path sodipodi:nodetypes="sscss" inkscape:connector-curvature="0" id="path4809-6-8" d="m 297.56815,42.99734 c 0.82801,4.79215 3.47196,5.902728 6.21262,5.618023 3.16968,-0.329265 4.70955,-4.11635 4.20666,-6.380527 0,0 -1.86779,-1.088063 -5.75262,-0.579787 -2.45857,0.321696 -4.70794,1.103301 -4.66666,1.342291 z" style="fill:#000000;fill-opacity:1;stroke:none"/>
        </g>
        <path style="fill:#2b5604;fill-opacity:1;stroke:none" d="m 339.18139,416.89582 c 0,0 2.49455,5.06706 4.13161,5.84662 1.63704,0.77954 5.92456,1.48114 8.10731,0.38977 2.18274,-1.09138 8.49707,-5.22299 8.49707,-5.22299 0,0 -3.66387,6.0805 -6.5482,7.17185 -2.88435,1.09138 -10.05618,3.35208 -11.61527,0.62365 -1.55911,-2.72843 -5.14503,-6.70412 -2.57252,-8.8089 z" id="path4969" inkscape:connector-curvature="0"/>
        <path style="fill:#2b5604;fill-opacity:1;stroke:none" d="m 334.7203,442.26467 c 0,0 12.56791,2.20489 17.74942,1.21269 5.18152,-0.9922 14.22159,-5.07127 18.85188,-5.73274 4.63029,-0.66146 8.63023,-0.73644 8.63023,-0.73644 0,0 1.51232,0.0199 2.50455,1.28767 0.99212,1.2678 1.3229,2.26002 1.3229,2.26002 0,0 0.5512,-2.14979 -0.33078,-3.47271 -0.88198,-1.32294 -4.68536,-4.74054 -4.68536,-4.74054 0,0 -0.27558,0.82683 -0.16532,1.10245 0.10984,0.27561 1.54342,2.70101 1.54342,2.70101 0,0 -4.18935,-0.60635 -11.35528,1.04731 -7.16592,1.65368 -12.89864,4.52005 -16.42649,4.52005 -3.52783,0 -12.34742,0.33073 -14.7728,-0.88196 -2.4254,-1.2127 -12.56791,-0.66146 -2.86637,1.43319 z" id="path4971" inkscape:connector-curvature="0"/>
        <path style="fill:#2b5604;fill-opacity:1;stroke:none" d="m 335.04978,444.25799 c 0,0 7.71754,1.79295 11.30345,2.4166 3.58592,0.62363 6.00252,1.5591 11.45938,0 5.45684,-1.5591 6.3923,-3.58593 10.75777,-4.6773 4.36552,-1.09138 9.12076,-2.02682 9.12076,-2.02682 0,0 -7.3278,2.5725 -10.13417,4.52138 -2.80639,1.94886 -9.82232,5.76866 -12.31688,6.15844 -2.49455,0.38976 -7.17185,0.31181 -9.82231,-0.078 -2.65046,-0.38978 -5.61276,-3.43002 -8.57504,-3.58591 -2.96229,-0.15592 -6.08048,-3.11821 -1.79296,-2.72843 z" id="path4973" inkscape:connector-curvature="0"/>
        <path style="fill:#2b5604;fill-opacity:1;stroke:none" d="m 336.44327,406.0357 c 0,0 -5.49769,4.12326 -10.40634,5.20316 -4.90866,1.07992 -8.7374,1.76713 -11.28991,0.88356 -2.5525,-0.88356 -4.81048,0.3927 -3.23971,2.15981 1.57077,1.76711 4.51597,2.15981 8.44288,1.37443 3.92693,-0.78539 11.38809,-3.43606 13.35154,-5.39952 1.96347,-1.96347 3.14154,-4.22144 3.14154,-4.22144 z" id="path5160" inkscape:connector-curvature="0"/>
        <path style="fill:#2b5604;fill-opacity:1;stroke:none" d="m 363.91588,403.78777 c 0,0 6.03285,3.74856 11.07226,4.30073 5.03941,0.55217 8.94946,0.81622 11.37717,-0.44907 2.4277,-1.26529 4.84982,-0.17392 3.51906,1.91896 -1.33076,2.09287 -4.2156,2.87948 -8.23664,2.52212 -4.02105,-0.35736 -11.81559,-2.28082 -14.03566,-4.14691 -2.22008,-1.86608 -3.69619,-4.14583 -3.69619,-4.14583 z" id="path5160-5" inkscape:connector-curvature="0"/>
        <path style="fill:#2b5604;fill-opacity:1;stroke:none" d="m 339.78116,397.88734 c 0,0 -2.31774,-13.61449 -7.46825,-21.85039 -5.15055,-8.23592 -10.30107,-13.78255 -10.30107,-13.78255 0,0 2.83278,-6.05087 5.9231,-2.35312 3.09033,3.69777 10.04354,15.96759 10.81612,21.6823 0.77259,5.71473 1.0301,16.30376 1.0301,16.30376 z" id="path5180" inkscape:connector-curvature="0"/>
        <path style="fill:#2b5604;fill-opacity:1;stroke:none" d="m 360.06475,396.76969 c 0,0 0.75173,-13.67766 4.32403,-22.11628 3.57242,-8.43864 7.37701,-14.19558 7.37701,-14.19558 0,0 -2.8787,-5.90946 -5.12953,-2.08657 -2.25085,3.8229 -6.97405,16.36313 -7.12302,22.09558 -0.149,5.73247 0.55151,16.30285 0.55151,16.30285 z" id="path5180-2" inkscape:connector-curvature="0"/>
        <path style="fill:#203f03;fill-opacity:1;stroke:none" d="m 336.66244,403.12031 c 0,0 -8.4691,-6.38652 -13.18958,-7.08072 -4.72048,-0.69418 -13.46725,0.27768 -13.46725,0.27768 0,0 -0.27768,-4.4428 3.19326,-4.16513 3.47094,0.27768 11.66237,-0.41651 15.96633,3.05443 4.30397,3.47094 7.49724,7.91374 7.49724,7.91374 z" id="path5200" inkscape:connector-curvature="0"/>
        <path style="fill:#203f03;fill-opacity:1;stroke:none" d="m 362.8007,401.95234 c 0,0 7.81169,-7.17067 12.44121,-8.31519 4.62951,-1.14452 13.42481,-1.01756 13.42481,-1.01756 0,0 -0.15082,-4.44891 -3.57727,-3.83903 -3.42644,0.60988 -11.64252,0.70594 -15.59075,4.57435 -3.94821,3.86838 -6.698,8.59743 -6.698,8.59743 z" id="path5200-9" inkscape:connector-curvature="0"/>
        <path style="fill:url(#linearGradient5926);fill-opacity:1;stroke:none" d="m 289.03483,418.51621 c 0,0 0.77313,12.77381 12.25378,18.57565 11.48066,5.80184 13.77599,4.71469 15.81108,8.37264 2.03511,3.65794 11.86435,6.36872 16.71224,7.78828 5.60457,1.6411 12.18462,7.12397 20.71983,6.57816 8.43811,-0.53961 11.8716,-7.65414 19.23477,-9.72282 6.77011,-1.90204 11.80404,-6.625 14.92905,-10.83984 3.12502,-4.21483 11.13509,-8.96157 14.80459,-10.99028 3.66952,-2.02868 10.90932,-12.78231 13.30351,-20.8979 -53.54308,-26.25814 -102.18979,-23.77427 -123.73612,-5.9185 13.57085,3.65834 -4.74415,14.15516 -4.74415,14.15516 z" id="path3793-9" inkscape:connector-curvature="0" sodipodi:nodetypes="cssssssscccc"/>
        <path style="fill:url(#linearGradient5928);fill-opacity:1;stroke:none" d="m 348.53253,393.6351 5.49769,-0.19634 c 0,0 -2.17328,-30.87618 0.0482,-44.75995 2.22141,-13.88377 2.58042,-47.66777 2.58042,-47.66777 0,0 -1.944,-6.08989 -13.34238,-5.4664 -11.3984,0.62349 -11.03964,9.89814 -11.03964,9.89814 0,0 2.18193,31.24257 5.41875,45.45744 2.61561,11.48673 7.21956,43.03967 7.21956,43.03967 z" id="path5331" inkscape:connector-curvature="0" sodipodi:nodetypes="ccsczcscc"/>
        <path style="opacity:0.82936509;fill:#73d216;fill-opacity:1;stroke:none;filter:url(#filter5615)" d="m 317.1879,388.9445 c 0,0 13.13198,-4.04061 18.18274,-9.84899 5.05077,-5.80837 10.35407,-11.61675 10.35407,-11.61675 0,0 -2.02031,11.36422 -6.81853,14.89975 -4.79823,3.53553 -6.31346,12.12183 -16.92006,12.37437 -10.6066,0.25254 -13.8896,1.01015 -13.13198,-2.27284 0.75761,-3.283 8.33376,-3.53554 8.33376,-3.53554 z" id="path5431" inkscape:connector-curvature="0" transform="matrix(1.0995383,0,0,1.0995383,31.419578,-10.950109)"/>
        <path style="fill:#2b5604;fill-opacity:1;stroke:none" d="m 337.97317,426.98325 c 0,0 -1.94374,1.94373 -3.60978,4.99816 -1.66605,3.05443 -3.05443,6.10886 -3.05443,6.10886 0,0 -2.77676,-6.38653 6.66421,-11.10702 z" id="path5445" inkscape:connector-curvature="0"/>
        <path style="fill:#2b5604;fill-opacity:1;stroke:none" d="m 361.26724,424.62527 c 0,0 4.25713,-1.27082 8.14964,0.93211 3.89252,2.20295 8.30669,5.68928 8.30669,5.68928 0,0 -6.12454,-10.91049 -16.45633,-6.62139 z" id="path5445-8" inkscape:connector-curvature="0" sodipodi:nodetypes="cscc"/>
        <path style="opacity:0.39682539;fill:#73d216;stroke:none;filter:url(#filter5503)" d="m 292.14286,399.68361 c 0,0 1.78571,5.71429 1.78571,7.14286 0,1.42857 7.14286,-2.67857 11.25,-2.67857 4.10714,0 -2.32143,-4.64286 -13.03571,-4.46429 z" id="path5465" inkscape:connector-curvature="0" transform="matrix(1.3967939,0,0,1.273907,-54.636117,-81.596217)"/>
        <path transform="matrix(1.0995383,0,0,1.0995383,32.52214,-10.945728)" sodipodi:type="arc" style="opacity:0.53174594;fill:#000000;fill-opacity:1;stroke:none;filter:url(#filter5603)" id="path5507-8" sodipodi:cx="290" sodipodi:cy="374.32648" sodipodi:rx="15.771845" sodipodi:ry="7.7092094" d="m 305.77184,374.32648 c 0,4.25768 -7.06129,7.70921 -15.77184,7.70921 -8.71055,0 -15.77184,-3.45153 -15.77184,-7.70921 0,-4.25768 7.06129,-7.70921 15.77184,-7.70921 5.89317,0 11.29474,1.60592 14.00498,4.16378 L 290,374.32648 z" clip-path="url(#clipPath5589)" sodipodi:start="0" sodipodi:end="5.8053084"/>
        <path transform="matrix(0.07418405,0.62275256,-0.58455115,0.07903209,501.95274,146.27741)" style="fill:#73d216;fill-opacity:1;stroke:none;filter:url(#filter5628)" d="m 383.53139,315.09534 c 0,9.76361 12.5406,11.55256 5.9329,11.55256 -6.60769,0 -11.96428,-7.91496 -11.96428,-17.67857 0,-9.76361 5.35659,-17.67857 11.96428,-17.67857 4.47048,0 -4.10488,5.4333 -5.77055,11.49839" id="path5613" inkscape:connector-curvature="0" sodipodi:nodetypes="csssc"/>
      </g>
      <g id="g5936">
        <path style="fill:#73d216;stroke:none;filter:url(#filter5714)" d="m 233.36451,459.22404 -93.2819,-303.55677 c 0,0 -3.93284,-10.91268 1.59888,-13.27866 7.31858,-3.13022 10.25329,3.6324 11.35244,6.92984 1.09915,3.29743 106.17268,301.30328 106.17268,301.30328 0,0 -6.88328,14.05132 -25.8421,8.60231 z" id="path3875-0" inkscape:connector-curvature="0" sodipodi:nodetypes="ccsscc" transform="matrix(1.149826,0,0,1.0742257,28.482411,0.70581834)"/>
        <path style="fill:#c7fb96;fill-opacity:1;stroke:none" d="M 293.34023,493.30749 198.67015,185.23333 c 0,0 -3.99138,-11.07508 1.62268,-13.47626 7.42749,-3.17681 10.40587,3.68645 11.52138,7.03297 1.11549,3.3465 107.75268,305.78713 107.75268,305.78713 0,0 -6.98571,14.26043 -26.22666,8.73032 z" id="path3875" inkscape:connector-curvature="0" sodipodi:nodetypes="ccsscc"/>
      </g>
      <rect y="123.02184" x="22.223356" height="711.1474" width="709.12708" id="rect5942" style="fill:none;stroke:none"/>
    </g>
  </g>
</svg>
