<?xml version="1.0" encoding="UTF-8" standalone="no"?>
<!-- Created with Inkscape (http://www.inkscape.org/) -->

<svg
   xmlns:dc="http://purl.org/dc/elements/1.1/"
   xmlns:cc="http://creativecommons.org/ns#"
   xmlns:rdf="http://www.w3.org/1999/02/22-rdf-syntax-ns#"
   xmlns:svg="http://www.w3.org/2000/svg"
   xmlns="http://www.w3.org/2000/svg"
   xmlns:xlink="http://www.w3.org/1999/xlink"
   xmlns:sodipodi="http://sodipodi.sourceforge.net/DTD/sodipodi-0.dtd"
   xmlns:inkscape="http://www.inkscape.org/namespaces/inkscape"
   width="400"
   height="400"
   viewBox="0 0 400 400.00001"
   id="svg4217"
   version="1.1"
   inkscape:version="0.91 r13725"
   sodipodi:docname="busan.svg"
   inkscape:export-filename="C:\Users\johannes\Documents\Arbeit\RRZE\github3\tango\720x720\logos\busan.png"
   inkscape:export-xdpi="162"
   inkscape:export-ydpi="162">
  <title
     id="title4291">busan</title>
  <defs
     id="defs4219">
    <linearGradient
       id="linearGradient4321"
       inkscape:collect="always">
      <stop
         id="stop4323"
         offset="0"
         style="stop-color:#4e505d;stop-opacity:1;" />
      <stop
         id="stop4325"
         offset="1"
         style="stop-color:#7a8597;stop-opacity:1" />
    </linearGradient>
    <linearGradient
       inkscape:collect="always"
       xlink:href="#linearGradient4321"
       id="linearGradient4319-9"
       x1="280"
       y1="712.36218"
       x2="500"
       y2="472.36221"
       gradientUnits="userSpaceOnUse"
       gradientTransform="matrix(1.0685568,0,0,1.0477472,-26.445951,-34.107492)" />
    <linearGradient
       inkscape:collect="always"
       xlink:href="#linearGradient4321"
       id="linearGradient4317-3"
       x1="280"
       y1="692.36218"
       x2="500"
       y2="472.36221"
       gradientUnits="userSpaceOnUse"
       gradientTransform="matrix(1.0685568,0,0,1.0477472,-26.445951,-26.329318)" />
    <linearGradient
       inkscape:collect="always"
       xlink:href="#linearGradient4321"
       id="linearGradient4178"
       x1="378.51413"
       y1="461.36569"
       x2="424.83945"
       y2="349.64282"
       gradientUnits="userSpaceOnUse"
       gradientTransform="matrix(1.4213542,0,0,1.3240272,-170.3887,-120.86094)" />
    <linearGradient
       id="linearGradient5280">
      <stop
         id="stop5282"
         offset="0"
         style="stop-color:#555753;stop-opacity:0.01129944;" />
      <stop
         style="stop-color:#555753;stop-opacity:0.22598869;"
         offset="0.00195313"
         id="stop5310" />
      <stop
         style="stop-color:#555753;stop-opacity:0.01176471;"
         offset="0.00390625"
         id="stop5306" />
      <stop
         style="stop-color:#555753;stop-opacity:0.01176471;"
         offset="0.0078125"
         id="stop5304" />
      <stop
         style="stop-color:#555753;stop-opacity:0.07344633;"
         offset="0.015625"
         id="stop5302" />
      <stop
         style="stop-color:#555753;stop-opacity:0.01568627;"
         offset="0.03125"
         id="stop5298" />
      <stop
         style="stop-color:#555753;stop-opacity:0.01129944;"
         offset="0.0625"
         id="stop5296" />
      <stop
         style="stop-color:#555753;stop-opacity:0.36723164;"
         offset="0.125"
         id="stop5294" />
      <stop
         style="stop-color:#555753;stop-opacity:0.00564972;"
         offset="0.25"
         id="stop5290" />
      <stop
         style="stop-color:#555753;stop-opacity:0.02259887;"
         offset="0.5"
         id="stop5288" />
      <stop
         id="stop5292"
         offset="0.75"
         style="stop-color:#555753;stop-opacity:0.19774012;" />
      <stop
         style="stop-color:#555753;stop-opacity:0.18079096;"
         offset="0.875"
         id="stop5300" />
      <stop
         id="stop5308"
         offset="0.9375"
         style="stop-color:#555753;stop-opacity:0.28813559;" />
      <stop
         id="stop5284"
         offset="1"
         style="stop-color:#555753;stop-opacity:0.07344633;" />
    </linearGradient>
    <linearGradient
       id="linearGradient5348">
      <stop
         id="stop5350"
         offset="0"
         style="stop-color:#729fcf;stop-opacity:0;" />
      <stop
         style="stop-color:#729fcf;stop-opacity:0.17514125;"
         offset="0.14182246"
         id="stop5368" />
      <stop
         style="stop-color:#729fcf;stop-opacity:0.42937854;"
         offset="0.24686332"
         id="stop5366" />
      <stop
         id="stop5394"
         offset="0.27796116"
         style="stop-color:#729fcf;stop-opacity:0.39215686;" />
      <stop
         style="stop-color:#729fcf;stop-opacity:0.39215687;"
         offset="0.38030669"
         id="stop5364" />
      <stop
         style="stop-color:#ffffff;stop-opacity:1;"
         offset="0.46561956"
         id="stop5362" />
      <stop
         id="stop3727"
         offset="0.54757094"
         style="stop-color:#b8cfe7;stop-opacity:0.62352941;" />
      <stop
         style="stop-color:#729fcf;stop-opacity:0.24858756;"
         offset="0.62952232"
         id="stop5360" />
      <stop
         style="stop-color:#729fcf;stop-opacity:0.27683616;"
         offset="0.69749689"
         id="stop5358" />
      <stop
         style="stop-color:#729fcf;stop-opacity:0.16384181;"
         offset="0.84827983"
         id="stop5356" />
      <stop
         id="stop5352"
         offset="1"
         style="stop-color:#729fcf;stop-opacity:0;" />
    </linearGradient>
    <linearGradient
       id="linearGradient5170">
      <stop
         id="stop5172"
         offset="0"
         style="stop-color:#ffffff;stop-opacity:0.18039216;" />
      <stop
         style="stop-color:#ffffff;stop-opacity:1;"
         offset="0.51451057"
         id="stop5178" />
      <stop
         id="stop5174"
         offset="1"
         style="stop-color:#ffffff;stop-opacity:0;" />
    </linearGradient>
    <linearGradient
       id="linearGradient5210">
      <stop
         id="stop5212"
         offset="0"
         style="stop-color:#ffffff;stop-opacity:0.63973064" />
      <stop
         id="stop5214"
         offset="1"
         style="stop-color:#ffffff;stop-opacity:0;" />
    </linearGradient>
    <linearGradient
       inkscape:collect="always"
       xlink:href="#linearGradient5210"
       id="linearGradient4189"
       x1="201.14954"
       y1="961.82281"
       x2="335.09766"
       y2="690.03497"
       gradientUnits="userSpaceOnUse"
       gradientTransform="matrix(0.87213324,0,0,0.87213324,31.567287,101.09235)" />
    <linearGradient
       inkscape:collect="always"
       xlink:href="#linearGradient5210"
       id="linearGradient4204"
       x1="246.27283"
       y1="601.76038"
       x2="415.23526"
       y2="597.97443"
       gradientUnits="userSpaceOnUse"
       gradientTransform="matrix(0.75467109,0,0,0.75467109,84.984827,145.27184)" />
    <linearGradient
       inkscape:collect="always"
       xlink:href="#linearGradient5210"
       id="linearGradient4219"
       x1="446.96085"
       y1="461.98914"
       x2="408.0062"
       y2="539.08948"
       gradientUnits="userSpaceOnUse"
       gradientTransform="matrix(0.83863557,0,0,0.83863557,63.411889,86.824917)" />
    <linearGradient
       inkscape:collect="always"
       xlink:href="#linearGradient5210"
       id="linearGradient4234"
       x1="505.18594"
       y1="341.05081"
       x2="461.8429"
       y2="442.63501"
       gradientUnits="userSpaceOnUse"
       gradientTransform="matrix(0.80158707,0,0,0.80158707,90.129275,72.308238)" />
    <linearGradient
       inkscape:collect="always"
       xlink:href="#linearGradient5210"
       id="linearGradient4249"
       x1="559.49237"
       y1="209.43178"
       x2="519.25854"
       y2="298.70959"
       gradientUnits="userSpaceOnUse"
       gradientTransform="matrix(0.81797657,0,0,0.81797657,95.755906,55.021504)" />
    <linearGradient
       id="linearGradient4761">
      <stop
         id="stop4769"
         offset="0"
         style="stop-color:#ffffff;stop-opacity:1;" />
      <stop
         id="stop4775"
         offset="0.50370371"
         style="stop-color:#ffffff;stop-opacity:1;" />
      <stop
         id="stop4771"
         offset="1"
         style="stop-color:#ffffff;stop-opacity:0.06666667;" />
    </linearGradient>
    <linearGradient
       id="linearGradient3796">
      <stop
         style="stop-color:#3465a4;stop-opacity:1;"
         offset="0"
         id="stop3798" />
      <stop
         style="stop-color:#252525;stop-opacity:1;"
         offset="1"
         id="stop3800" />
    </linearGradient>
    <linearGradient
       id="linearGradient3812">
      <stop
         style="stop-color:#fce94f;stop-opacity:1;"
         offset="0"
         id="stop3814" />
      <stop
         style="stop-color:#fcaf3e;stop-opacity:1;"
         offset="1"
         id="stop3816" />
    </linearGradient>
    <pattern
       y="0"
       x="0"
       height="6"
       width="6"
       patternUnits="userSpaceOnUse"
       id="EMFhbasepattern" />
    <linearGradient
       inkscape:collect="always"
       xlink:href="#linearGradient5170"
       id="linearGradient4289"
       x1="36.336105"
       y1="18.179703"
       x2="467.38217"
       y2="145.43993"
       gradientUnits="userSpaceOnUse"
       gradientTransform="matrix(1.0398625,0,0,1.013891,-8.1493088,646.0992)" />
  </defs>
  <sodipodi:namedview
     id="base"
     pagecolor="#ffffff"
     bordercolor="#666666"
     borderopacity="1.0"
     inkscape:pageopacity="0.0"
     inkscape:pageshadow="2"
     inkscape:zoom="1"
     inkscape:cx="105.80872"
     inkscape:cy="48.674894"
     inkscape:document-units="px"
     inkscape:current-layer="layer1"
     showgrid="false"
     units="px"
     inkscape:snap-bbox="true"
     inkscape:bbox-paths="true"
     inkscape:bbox-nodes="true"
     inkscape:snap-bbox-edge-midpoints="false"
     inkscape:snap-bbox-midpoints="false"
     showguides="true"
     inkscape:guide-bbox="true"
     inkscape:window-width="1366"
     inkscape:window-height="721"
     inkscape:window-x="-4"
     inkscape:window-y="-4"
     inkscape:window-maximized="1"
     inkscape:object-paths="true"
     inkscape:snap-intersection-paths="true"
     inkscape:object-nodes="true"
     inkscape:snap-smooth-nodes="true"
     inkscape:snap-midpoints="false"
     inkscape:showpageshadow="false"
     inkscape:snap-global="true"
     inkscape:snap-nodes="false">
    <sodipodi:guide
       position="0,411.37501"
       orientation="1,0"
       id="guide4765" />
    <sodipodi:guide
       position="18.18,410.73144"
       orientation="1,0"
       id="guide4769" />
    <sodipodi:guide
       position="36.360001,410.73144"
       orientation="1,0"
       id="guide4771" />
    <sodipodi:guide
       position="54.540001,410.73144"
       orientation="1,0"
       id="guide4773" />
    <sodipodi:guide
       position="72.720001,410.73144"
       orientation="1,0"
       id="guide4775" />
    <sodipodi:guide
       position="90.900002,410.73144"
       orientation="1,0"
       id="guide4777" />
    <sodipodi:guide
       position="109.08,410.73144"
       orientation="1,0"
       id="guide4779" />
    <sodipodi:guide
       position="127.26,410.73144"
       orientation="1,0"
       id="guide4781"
       inkscape:label=""
       inkscape:color="rgb(0,0,255)" />
    <sodipodi:guide
       position="145.44,410.73144"
       orientation="1,0"
       id="guide4783" />
    <sodipodi:guide
       position="163.62,410.73144"
       orientation="1,0"
       id="guide4785" />
    <sodipodi:guide
       position="181.8,410.73144"
       orientation="1,0"
       id="guide4787" />
    <sodipodi:guide
       position="199.98,410.73144"
       orientation="1,0"
       id="guide4789"
       inkscape:label=""
       inkscape:color="rgb(255,12,0)" />
    <sodipodi:guide
       position="218.16,409.81259"
       orientation="1,0"
       id="guide4791" />
    <sodipodi:guide
       position="254.52,410.73144"
       orientation="1,0"
       id="guide4795" />
    <sodipodi:guide
       position="272.7,410.73144"
       orientation="1,0"
       id="guide4797" />
    <sodipodi:guide
       position="290.88001,410.73144"
       orientation="1,0"
       id="guide4799" />
    <sodipodi:guide
       position="309.06001,410.73144"
       orientation="1,0"
       id="guide4801" />
    <sodipodi:guide
       position="345.41999,410.73144"
       orientation="1,0"
       id="guide4805" />
    <sodipodi:guide
       position="363.59998,410.73144"
       orientation="1,0"
       id="guide4807" />
    <sodipodi:guide
       position="381.82147,401.39845"
       orientation="1,0"
       id="guide4809" />
    <sodipodi:guide
       position="400.00147,254.93962"
       orientation="1,0"
       id="guide4811" />
    <sodipodi:guide
       position="413.875,400.00001"
       orientation="0,1"
       id="guide4813" />
    <sodipodi:guide
       position="409.04996,381.82003"
       orientation="0,1"
       id="guide4815" />
    <sodipodi:guide
       position="409.04996,363.64003"
       orientation="0,1"
       id="guide4817" />
    <sodipodi:guide
       position="405.75,345.46004"
       orientation="0,1"
       id="guide4819" />
    <sodipodi:guide
       position="411.625,327.28005"
       orientation="0,1"
       id="guide4821" />
    <sodipodi:guide
       position="409.04996,309.10006"
       orientation="0,1"
       id="guide4823" />
    <sodipodi:guide
       position="411,290.92006"
       orientation="0,1"
       id="guide4825" />
    <sodipodi:guide
       position="411,272.74007"
       orientation="0,1"
       id="guide4827" />
    <sodipodi:guide
       position="409.04996,254.56008"
       orientation="0,1"
       id="guide4829" />
    <sodipodi:guide
       position="405.52575,236.38008"
       orientation="0,1"
       id="guide4831" />
    <sodipodi:guide
       position="412.125,218.20009"
       orientation="0,1"
       id="guide4833" />
    <sodipodi:guide
       position="409.04996,200.02001"
       orientation="0,1"
       id="guide4835"
       inkscape:label=""
       inkscape:color="rgb(0,255,92)" />
    <sodipodi:guide
       position="409.04996,181.8401"
       orientation="0,1"
       id="guide4837" />
    <sodipodi:guide
       position="411.75,163.66011"
       orientation="0,1"
       id="guide4839" />
    <sodipodi:guide
       position="409.04996,145.48012"
       orientation="0,1"
       id="guide4841" />
    <sodipodi:guide
       position="409.04996,127.30012"
       orientation="0,1"
       id="guide4843" />
    <sodipodi:guide
       position="409.04996,109.12013"
       orientation="0,1"
       id="guide4845" />
    <sodipodi:guide
       position="409.04996,72.760144"
       orientation="0,1"
       id="guide4849" />
    <sodipodi:guide
       position="511.94531,54.447224"
       orientation="0,1"
       id="guide4851" />
    <sodipodi:guide
       position="409.04996,36.400158"
       orientation="0,1"
       id="guide4853" />
    <sodipodi:guide
       position="409.04996,18.220165"
       orientation="0,1"
       id="guide4855" />
    <sodipodi:guide
       position="327.23999,414.8949"
       orientation="1,0"
       id="guide4256" />
    <sodipodi:guide
       position="236.34,413.74587"
       orientation="1,0"
       id="guide4253" />
    <sodipodi:guide
       position="419.4288,90.943193"
       orientation="0,1"
       id="guide4339" />
    <sodipodi:guide
       position="0,0"
       orientation="0,1"
       id="guide6128" />
  </sodipodi:namedview>
  <metadata
     id="metadata4222">
    <rdf:RDF>
      <cc:Work
         rdf:about="">
        <dc:format>image/svg+xml</dc:format>
        <dc:type
           rdf:resource="http://purl.org/dc/dcmitype/StillImage" />
        <dc:title>busan</dc:title>
        <dc:creator>
          <cc:Agent>
            <dc:title>Johannes Hechler</dc:title>
          </cc:Agent>
        </dc:creator>
        <dc:rights>
          <cc:Agent>
            <dc:title>Johannes Hechler</dc:title>
          </cc:Agent>
        </dc:rights>
        <dc:publisher>
          <cc:Agent>
            <dc:title>RRZE</dc:title>
          </cc:Agent>
        </dc:publisher>
        <dc:contributor>
          <cc:Agent>
            <dc:title>Ute Weber,
Hendrik Eggers</dc:title>
          </cc:Agent>
        </dc:contributor>
        <cc:license
           rdf:resource="http://creativecommons.org/licenses/by-nc/3.0/" />
        <dc:date>Jan 2016</dc:date>
        <dc:description />
        <dc:subject>
          <rdf:Bag>
            <rdf:li>busan</rdf:li>
            <rdf:li>logo</rdf:li>
          </rdf:Bag>
        </dc:subject>
      </cc:Work>
      <cc:License
         rdf:about="http://creativecommons.org/licenses/by-nc/3.0/">
        <cc:permits
           rdf:resource="http://creativecommons.org/ns#Reproduction" />
        <cc:permits
           rdf:resource="http://creativecommons.org/ns#Distribution" />
        <cc:requires
           rdf:resource="http://creativecommons.org/ns#Notice" />
        <cc:requires
           rdf:resource="http://creativecommons.org/ns#Attribution" />
        <cc:prohibits
           rdf:resource="http://creativecommons.org/ns#CommercialUse" />
        <cc:permits
           rdf:resource="http://creativecommons.org/ns#DerivativeWorks" />
      </cc:License>
    </rdf:RDF>
  </metadata>
  <g
     inkscape:label="Ebene 1"
     inkscape:groupmode="layer"
     id="layer1"
     transform="translate(0,-652.36214)">
    <path
       sodipodi:nodetypes="ssssccccccsssss"
       inkscape:connector-curvature="0"
       id="path4249"
       transform="translate(0,652.36214)"
       d="m 36.360001,18.17998 c -10.071723,-10e-6 -18.181987,8.107965 -18.179688,18.179688 l 0.0415,181.800012 c 0.0023,10.07172 8.107965,18.17964 18.179688,18.17968 l 54.538671,2.2e-4 18.181648,0 90.90031,0 18.17969,0 90.90031,0 18.17968,0 36.35999,0 c 10.07172,0 18.17968,-8.10795 18.17968,-18.17968 l -1e-5,-181.799921 c 0,-10.071723 -8.10796,-18.179678 -18.17968,-18.179688 z"
       style="color:#000000;clip-rule:nonzero;display:inline;overflow:visible;visibility:visible;opacity:1;isolation:auto;mix-blend-mode:normal;color-interpolation:sRGB;color-interpolation-filters:linearRGB;solid-color:#000000;solid-opacity:1;fill:#efc300;fill-opacity:1;fill-rule:nonzero;stroke:#7f6700;stroke-width:36;stroke-linecap:butt;stroke-linejoin:round;stroke-miterlimit:4;stroke-dasharray:none;stroke-dashoffset:0;stroke-opacity:1;color-rendering:auto;image-rendering:auto;shape-rendering:auto;text-rendering:auto;enable-background:accumulate" />
    <path
       style="color:#000000;clip-rule:nonzero;display:inline;overflow:visible;visibility:visible;opacity:1;isolation:auto;mix-blend-mode:normal;color-interpolation:sRGB;color-interpolation-filters:linearRGB;solid-color:#000000;solid-opacity:1;fill:#efc300;fill-opacity:1;fill-rule:nonzero;stroke:none;stroke-width:36;stroke-linecap:butt;stroke-linejoin:round;stroke-miterlimit:4;stroke-dasharray:none;stroke-dashoffset:0;stroke-opacity:1;color-rendering:auto;image-rendering:auto;shape-rendering:auto;text-rendering:auto;enable-background:accumulate"
       d="m 29.522538,664.74492 c -6.59638,-10e-6 -18.950938,9.85525 -18.948827,19.25203 l 0.04325,192.52358 c 0.0014,6.24711 11.451752,19.252 18.948827,19.25203 l 56.846069,2.3e-4 18.950873,0 94.74608,0 18.94882,0 94.74609,0 18.94883,0 37.89828,0 c 5.50099,0 18.94882,-10.88544 18.94882,-19.25202 l -10e-6,-192.5235 c 0,-6.14682 -12.87958,-19.25201 -18.94882,-19.25202 z"
       id="rect4258"
       inkscape:connector-curvature="0"
       sodipodi:nodetypes="ssssccccccsssss" />
    <path
       style="font-style:normal;font-weight:normal;font-size:medium;line-height:125%;font-family:sans-serif;text-align:center;letter-spacing:0px;word-spacing:0px;text-anchor:middle;fill:#2e3436;fill-opacity:1;stroke:#2e3436;stroke-width:5;stroke-linecap:butt;stroke-linejoin:round;stroke-miterlimit:4;stroke-dasharray:none;stroke-opacity:1"
       d="m 60.238281,692.38281 c -2.218769,-0.40296 -1.916878,4.55293 -1.685547,6.33789 l 0,76.90039 101.080076,0 0,-82.60937 c -3.2948,0.4111 -7.44176,-1.71322 -10.31445,-0.0137 -1.11632,5.40794 2.47509,12.06936 -1.29297,16.83984 -4.59894,2.84618 -10.30831,0.92298 -15.74023,1.0625 l -63.552738,0 c -0.425196,-5.74475 0.843348,-13.18324 -0.621094,-17.88867 -2.636113,-0.0496 -5.234502,-0.64668 -7.873047,-0.62891 z m 254.480469,0 c -2.83551,-0.39913 -1.79471,4.05005 -1.68232,6.33789 0.0122,37.65625 0.0231,75.3125 0.0378,112.96875 3.31002,0.35922 7.3799,0.54508 10.30859,0.0391 -0.32835,-18.06493 -0.0681,-36.1969 -0.17383,-54.28711 l 36.11329,0 c 0.46311,-3.16896 0.33932,-7.193 0.0137,-10.31446 -12.01082,0.31934 -24.08759,0.0419 -36.12305,0.13477 l 0,-54.25 c -2.84699,0.0488 -5.64946,-0.64835 -8.49414,-0.62891 z m -75.01367,0.33985 c 0.59605,20.55457 1.01174,43.50489 -12.11328,60.58593 -9.51498,13.27427 -24.43448,21.08745 -38.98047,27.63477 3.51677,3.91206 6.81969,8.01258 10.41406,11.85547 17.39626,-9.49756 34.68971,-21.77607 43.38086,-39.6836 7.68798,-4.61997 9.96799,7.8787 14.49805,11.39258 9.14398,11.34578 20.51983,21.03369 33.25195,28.29297 3.93885,-4.01079 8.02512,-7.87316 12.01172,-11.83594 -22.92672,-10.48257 -45.22857,-28.88274 -50.58399,-54.69922 -2.04274,-11.07132 -0.80072,-22.37247 -0.9375,-33.54492 -3.64713,6.5e-4 -7.29427,0.001 -10.9414,0.002 z m -168.972658,28.35937 78.720698,0 0,44.35938 -80.720698,0 0,-44.35938 1,0 z m 88.042968,80.56641 c -39.4416,0.35672 -78.939262,0.0498 -118.402343,0.15234 -0.553211,5.75763 -0.328723,8.60919 -0.309051,10.67612 15.513855,-0.18104 39.336208,-0.36259 54.850066,-0.54331 l 0,54.29688 c 3.294804,-0.4111 7.441768,1.71321 10.314458,0.0137 -0.31812,-18.05809 -0.0424,-36.18109 -0.13477,-54.26367 l 54.24805,0 c -0.4111,-3.2948 1.71321,-7.44177 0.0137,-10.31445 -0.19129,-0.0332 -0.38706,-0.033 -0.58008,-0.0176 z m 81.57813,24.33203 0,40.53906 119.00976,0 c -0.4111,-3.2948 1.71322,-7.44176 0.0137,-10.31445 -36.25187,0.31574 -72.5675,0.044 -108.84375,0.13476 l 0,-36.06836 c -0.48922,0.008 -0.97713,-0.005 -1.46417,-0.0335 -2.34721,-0.13614 -4.05539,-0.16957 -8.53257,0.0233 -0.42347,1.01265 0.028,2.11893 -0.18297,5.71917 z"
       id="path4241"
       inkscape:connector-curvature="0"
       sodipodi:nodetypes="cccccccccccccccccccccccccccccccccccccccccccccccccccccccccccscc" />
    <path
       style="color:#000000;clip-rule:nonzero;display:inline;overflow:visible;visibility:visible;opacity:1;isolation:auto;mix-blend-mode:normal;color-interpolation:sRGB;color-interpolation-filters:linearRGB;solid-color:#000000;solid-opacity:1;fill:none;fill-opacity:1;fill-rule:nonzero;stroke:none;stroke-width:36;stroke-linecap:butt;stroke-linejoin:round;stroke-miterlimit:4;stroke-dasharray:none;stroke-dashoffset:0;stroke-opacity:1;color-rendering:auto;image-rendering:auto;shape-rendering:auto;text-rendering:auto;enable-background:accumulate"
       d="m 0,652.36212 400.00146,0 0,399.99998 -400.00146,0 z"
       id="rect4255" />
    <path
       style="color:#000000;clip-rule:nonzero;display:inline;overflow:visible;visibility:visible;opacity:0.55800003;isolation:auto;mix-blend-mode:normal;color-interpolation:sRGB;color-interpolation-filters:linearRGB;solid-color:#000000;solid-opacity:1;fill:url(#linearGradient4289);fill-opacity:1;fill-rule:nonzero;stroke:none;stroke-width:36;stroke-linecap:butt;stroke-linejoin:round;stroke-miterlimit:4;stroke-dasharray:none;stroke-dashoffset:0;stroke-opacity:1;color-rendering:auto;image-rendering:auto;shape-rendering:auto;text-rendering:auto;enable-background:accumulate"
       d="m 29.659441,664.53142 c -10.473207,-10e-6 -18.906765,8.22059 -18.904374,18.43223 l 0.02234,94.6285 c 21.36178,-16.33383 57.919465,-39.32986 94.501561,-39.32986 56.7141,0 132.32406,55.29666 170.14141,55.29666 27.35222,0 84.00124,-9.58453 113.47296,-14.92122 l 0,-95.67408 c 0,-10.21164 -8.43117,-18.43222 -18.90438,-18.43223 l -340.329517,0 z"
       id="path4280"
       inkscape:connector-curvature="0" />
    <path
       style="color:#000000;clip-rule:nonzero;display:inline;overflow:visible;visibility:visible;opacity:1;isolation:auto;mix-blend-mode:normal;color-interpolation:sRGB;color-interpolation-filters:linearRGB;solid-color:#000000;solid-opacity:1;fill:#ffe262;fill-opacity:1;fill-rule:nonzero;stroke:none;stroke-width:36;stroke-linecap:butt;stroke-linejoin:round;stroke-miterlimit:4;stroke-dasharray:none;stroke-dashoffset:0;stroke-opacity:1;color-rendering:auto;image-rendering:auto;shape-rendering:auto;text-rendering:auto;enable-background:accumulate"
       d="m 29.523438,12.382812 c -6.59638,-9e-6 -18.95133,9.855174 -18.949219,19.251954 l 0.04297,192.523434 c 0.0014,6.24711 11.452143,19.25193 18.949218,19.25196 l 56.845703,0 18.951171,0 94.7461,0 18.94921,0 94.7461,0 18.94726,0 37.89844,0 c 5.50099,0 18.94922,-10.88538 18.94922,-19.25196 l 0,-192.523434 c 0,-6.14682 -12.87998,-19.251944 -18.94922,-19.251954 z m 8.363281,9.021485 323.671871,-2 c 5.86532,-0.03624 20.3125,12.42301 20.3125,18.25 l 0,180.505863 c 0,7.93125 -12.99624,18.25 -18.3125,18.25 l -36.625,0 -18.3125,0 -91.56445,0 -18.3125,0 -91.56445,0 -18.314456,0 -52.9375,-2 c -7.240153,-0.27354 -16.3111,-10.32794 -16.3125,-16.25 L 19.574219,39.654297 c -0.002,-8.90785 11.937752,-18.21061 18.3125,-18.25 z"
       transform="translate(0,652.36214)"
       id="path4244"
       inkscape:connector-curvature="0"
       sodipodi:nodetypes="ssssccccccssssssssssccccccscss" />
    <path
       style="color:#000000;clip-rule:nonzero;display:inline;overflow:visible;visibility:visible;opacity:1;isolation:auto;mix-blend-mode:normal;color-interpolation:sRGB;color-interpolation-filters:linearRGB;solid-color:#000000;solid-opacity:1;fill:#7f6700;fill-opacity:1;fill-rule:nonzero;stroke:none;stroke-width:5;stroke-linecap:butt;stroke-linejoin:round;stroke-miterlimit:4;stroke-dasharray:none;stroke-dashoffset:0;stroke-opacity:1;color-rendering:auto;image-rendering:auto;shape-rendering:auto;text-rendering:auto;enable-background:accumulate"
       d="m 78.289062,900.68831 c -2.56433,0 -4.628906,2.11335 -4.628906,4.73825 l 0,52.76246 -33.162109,0 C 34.240072,958.18902 29,963.55486 29,969.96066 l 0,70.63184 c 0,6.4058 5.240072,11.7696 11.498047,11.7696 l 78.003903,0 c 6.25798,0 11.49805,-5.3638 11.49805,-11.7696 l 0,-70.63184 c 0,-6.4058 -5.24007,-11.77164 -11.49805,-11.77164 l -31.992184,0 0,-52.76246 c 0,-2.6249 -2.064576,-4.73825 -4.628907,-4.73825 l -3.591797,0 z M 42,971.49609 l 75,0 0,67.55891 -75,0 0,-67.55891 z"
       id="rect4254"
       inkscape:connector-curvature="0" />
    <path
       id="path4262"
       d="m 198.28906,900.68831 c -2.56433,0 -4.6289,2.11335 -4.6289,4.73825 l 0,52.76246 -33.16211,0 c -6.25798,0 -11.49805,5.36584 -11.49805,11.77164 l 0,70.63184 c 0,6.4058 5.24007,11.7696 11.49805,11.7696 l 78.0039,0 c 6.25798,0 11.49805,-5.3638 11.49805,-11.7696 l 0,-70.63184 c 0,-6.4058 -5.24007,-11.77164 -11.49805,-11.77164 l -31.99218,0 0,-52.76246 c 0,-2.6249 -2.06458,-4.73825 -4.62891,-4.73825 l -3.5918,0 z M 162,971.49609 l 75,0 0,67.55891 -75,0 0,-67.55891 z"
       style="color:#000000;clip-rule:nonzero;display:inline;overflow:visible;visibility:visible;opacity:1;isolation:auto;mix-blend-mode:normal;color-interpolation:sRGB;color-interpolation-filters:linearRGB;solid-color:#000000;solid-opacity:1;fill:#7f6700;fill-opacity:1;fill-rule:nonzero;stroke:none;stroke-width:5;stroke-linecap:butt;stroke-linejoin:round;stroke-miterlimit:4;stroke-dasharray:none;stroke-dashoffset:0;stroke-opacity:1;color-rendering:auto;image-rendering:auto;shape-rendering:auto;text-rendering:auto;enable-background:accumulate"
       inkscape:connector-curvature="0" />
    <path
       inkscape:connector-curvature="0"
       style="color:#000000;clip-rule:nonzero;display:inline;overflow:visible;visibility:visible;opacity:1;isolation:auto;mix-blend-mode:normal;color-interpolation:sRGB;color-interpolation-filters:linearRGB;solid-color:#000000;solid-opacity:1;fill:#7f6700;fill-opacity:1;fill-rule:nonzero;stroke:none;stroke-width:5;stroke-linecap:butt;stroke-linejoin:round;stroke-miterlimit:4;stroke-dasharray:none;stroke-dashoffset:0;stroke-opacity:1;color-rendering:auto;image-rendering:auto;shape-rendering:auto;text-rendering:auto;enable-background:accumulate"
       d="m 320.28906,900.68831 c -2.56433,0 -4.6289,2.11335 -4.6289,4.73825 l 0,52.76246 -33.16211,0 c -6.25798,0 -11.49805,5.36584 -11.49805,11.77164 l 0,70.63184 c 0,6.4058 5.24007,11.7696 11.49805,11.7696 l 78.0039,0 c 6.25798,0 11.49805,-5.3638 11.49805,-11.7696 l 0,-70.63184 c 0,-6.4058 -5.24007,-11.77164 -11.49805,-11.77164 l -31.99218,0 0,-52.76246 c 0,-2.6249 -2.06458,-4.73825 -4.62891,-4.73825 l -3.5918,0 z M 284,971.49609 l 75,0 0,67.55891 -75,0 0,-67.55891 z"
       id="path4264" />
  </g>
</svg>
