<?xml version="1.0" encoding="UTF-8" standalone="no"?>
<!-- Created with Inkscape (http://www.inkscape.org/) -->

<svg
   xmlns:dc="http://purl.org/dc/elements/1.1/"
   xmlns:cc="http://creativecommons.org/ns#"
   xmlns:rdf="http://www.w3.org/1999/02/22-rdf-syntax-ns#"
   xmlns:svg="http://www.w3.org/2000/svg"
   xmlns="http://www.w3.org/2000/svg"
   xmlns:xlink="http://www.w3.org/1999/xlink"
   xmlns:sodipodi="http://sodipodi.sourceforge.net/DTD/sodipodi-0.dtd"
   xmlns:inkscape="http://www.inkscape.org/namespaces/inkscape"
   width="210mm"
   height="297mm"
   viewBox="0 0 744.09448819 1052.3622047"
   id="svg2"
   version="1.1"
   inkscape:version="0.91 r13725"
   inkscape:export-xdpi="7.1987243"
   inkscape:export-ydpi="7.1987243"
   sodipodi:docname="campo2.svg"
   inkscape:export-filename="C:\Users\johannes\Documents\Arbeit\RRZE\github3\tango\32x32\logos\campo2.png">
  <title
     id="title4329">campo 2</title>
  <defs
     id="defs4">
    <linearGradient
       inkscape:collect="always"
       id="linearGradient4255">
      <stop
         style="stop-color:#ffffff;stop-opacity:1;"
         offset="0"
         id="stop4257" />
      <stop
         style="stop-color:#ffffff;stop-opacity:0;"
         offset="1"
         id="stop4259" />
    </linearGradient>
    <linearGradient
       id="linearGradient2224">
      <stop
         id="stop2226"
         offset="0"
         style="stop-color:#7c7c7c;stop-opacity:1;" />
      <stop
         id="stop2228"
         offset="1"
         style="stop-color:#b8b8b8;stop-opacity:1;" />
    </linearGradient>
    <linearGradient
       id="linearGradient15218">
      <stop
         id="stop15220"
         offset="0"
         style="stop-color:#eeeeef;stop-opacity:1;" />
      <stop
         id="stop2736"
         offset="0.59928656"
         style="stop-color:#d3d7cf;stop-opacity:1;" />
      <stop
         id="stop2738"
         offset="0.82758623"
         style="stop-color:#ffffff;stop-opacity:1;" />
      <stop
         id="stop15222"
         offset="1"
         style="stop-color:#d3d7cf;stop-opacity:1;" />
    </linearGradient>
    <pattern
       y="0"
       x="0"
       height="6"
       width="6"
       patternUnits="userSpaceOnUse"
       id="EMFhbasepattern" />
    <pattern
       y="0"
       x="0"
       height="6"
       width="6"
       patternUnits="userSpaceOnUse"
       id="EMFhbasepattern-2" />
    <pattern
       y="0"
       x="0"
       height="6"
       width="6"
       patternUnits="userSpaceOnUse"
       id="EMFhbasepattern-5" />
    <linearGradient
       inkscape:collect="always"
       id="linearGradient4167">
      <stop
         style="stop-color:#4e505d;stop-opacity:1;"
         offset="0"
         id="stop4169" />
      <stop
         style="stop-color:#7a8597;stop-opacity:1"
         offset="1"
         id="stop4171" />
    </linearGradient>
    <linearGradient
       inkscape:collect="always"
       xlink:href="#linearGradient4167"
       id="linearGradient4190"
       x1="367"
       y1="585.36218"
       x2="426"
       y2="450.36221"
       gradientUnits="userSpaceOnUse"
       gradientTransform="matrix(0.875,0,0,0.875,47.75,66.295273)" />
    <linearGradient
       id="linearGradient3804">
      <stop
         style="stop-color:#ffffff;stop-opacity:1;"
         offset="0"
         id="stop3806" />
      <stop
         style="stop-color:#ffffff;stop-opacity:0;"
         offset="1"
         id="stop3808" />
    </linearGradient>
    <linearGradient
       inkscape:collect="always"
       xlink:href="#linearGradient4167"
       id="linearGradient4175"
       x1="0"
       y1="306"
       x2="612"
       y2="306"
       gradientUnits="userSpaceOnUse" />
    <linearGradient
       id="linearGradient4761">
      <stop
         id="stop4769"
         offset="0"
         style="stop-color:#ffffff;stop-opacity:1;" />
      <stop
         id="stop4775"
         offset="0.50370371"
         style="stop-color:#ffffff;stop-opacity:1;" />
      <stop
         id="stop4771"
         offset="1"
         style="stop-color:#ffffff;stop-opacity:0.06666667;" />
    </linearGradient>
    <linearGradient
       inkscape:collect="always"
       xlink:href="#linearGradient4254"
       id="linearGradient4298"
       gradientUnits="userSpaceOnUse"
       x1="358.43118"
       y1="465.73074"
       x2="429.96555"
       y2="644.62878" />
    <linearGradient
       inkscape:collect="always"
       id="linearGradient4254">
      <stop
         style="stop-color:#7a8597;stop-opacity:1"
         offset="0"
         id="stop4256" />
      <stop
         style="stop-color:#4e505d;stop-opacity:1"
         offset="1"
         id="stop4258" />
    </linearGradient>
    <linearGradient
       inkscape:collect="always"
       xlink:href="#linearGradient4254"
       id="linearGradient4300"
       gradientUnits="userSpaceOnUse"
       gradientTransform="translate(0.37005758,-0.39466108)"
       x1="380.01031"
       y1="330.40619"
       x2="414.6156"
       y2="457.18103" />
    <pattern
       y="0"
       x="0"
       height="6"
       width="6"
       patternUnits="userSpaceOnUse"
       id="EMFhbasepattern-0" />
    <pattern
       y="0"
       x="0"
       height="6"
       width="6"
       patternUnits="userSpaceOnUse"
       id="EMFhbasepattern-6" />
    <linearGradient
       id="linearGradient8488">
      <stop
         id="stop8490"
         offset="0"
         style="stop-color:#ffffff;stop-opacity:0;" />
      <stop
         id="stop8492"
         offset="0.50811416"
         style="stop-color:#ffffff;stop-opacity:1;" />
      <stop
         id="stop8494"
         offset="0.9375"
         style="stop-color:#ffffff;stop-opacity:0.43333334;" />
      <stop
         id="stop8496"
         offset="1"
         style="stop-color:#ffffff;stop-opacity:0;" />
    </linearGradient>
    <linearGradient
       inkscape:collect="always"
       xlink:href="#linearGradient4255"
       id="linearGradient4261"
       x1="386.62552"
       y1="718.80847"
       x2="388.25375"
       y2="327.77841"
       gradientUnits="userSpaceOnUse" />
    <linearGradient
       inkscape:collect="always"
       xlink:href="#linearGradient8488"
       id="linearGradient4326"
       x1="105.66152"
       y1="512.50574"
       x2="563.60291"
       y2="355.52805"
       gradientUnits="userSpaceOnUse" />
  </defs>
  <sodipodi:namedview
     id="base"
     pagecolor="#ffffff"
     bordercolor="#666666"
     borderopacity="1.0"
     inkscape:pageopacity="0.0"
     inkscape:pageshadow="2"
     inkscape:zoom="0.70710678"
     inkscape:cx="278.46784"
     inkscape:cy="509.38838"
     inkscape:document-units="px"
     inkscape:current-layer="layer1"
     showgrid="false"
     showguides="true"
     inkscape:guide-bbox="true"
     inkscape:window-width="1366"
     inkscape:window-height="721"
     inkscape:window-x="-4"
     inkscape:window-y="-4"
     inkscape:window-maximized="1"
     inkscape:snap-bbox="true"
     inkscape:bbox-paths="true"
     inkscape:bbox-nodes="true"
     inkscape:snap-global="false">
    <sodipodi:guide
       position="315.53572,730.17859"
       orientation="0,1"
       id="guide3338" />
    <sodipodi:guide
       position="375.75,330.25001"
       orientation="0,1"
       id="guide3340" />
    <sodipodi:guide
       position="189.10714,408.8393"
       orientation="1,0"
       id="guide3344" />
    <inkscape:grid
       type="xygrid"
       id="grid3440" />
    <sodipodi:guide
       position="0,0"
       orientation="0,1"
       id="guide3405" />
    <sodipodi:guide
       position="0,0"
       orientation="0,1"
       id="guide3409" />
    <sodipodi:guide
       position="589.04521,378.30213"
       orientation="1,0"
       id="guide3411" />
    <sodipodi:guide
       position="203.02735,711.96291"
       orientation="0,1"
       id="guide4183" />
    <sodipodi:guide
       position="207.27539,720.31252"
       orientation="1,0"
       id="guide4185" />
    <sodipodi:guide
       position="225.48828,702.73439"
       orientation="1,0"
       id="guide4187" />
    <sodipodi:guide
       position="215.42969,693.75002"
       orientation="0,1"
       id="guide4189" />
    <sodipodi:guide
       position="396.33336,675.64055"
       orientation="0,1"
       id="guide4191" />
    <sodipodi:guide
       position="262.01172,669.04298"
       orientation="1,0"
       id="guide4195" />
    <sodipodi:guide
       position="280.27344,644.04298"
       orientation="1,0"
       id="guide4199" />
    <sodipodi:guide
       position="383.29541,638.82569"
       orientation="0,1"
       id="guide4201" />
    <sodipodi:guide
       position="407.64706,620.50001"
       orientation="0,1"
       id="guide4203" />
    <sodipodi:guide
       position="298.44878,627.8335"
       orientation="1,0"
       id="guide4205" />
    <sodipodi:guide
       position="316.60983,606.42694"
       orientation="1,0"
       id="guide4207" />
    <sodipodi:guide
       position="618.71844,602.45499"
       orientation="0,1"
       id="guide4209" />
    <sodipodi:guide
       position="330.21335,584.46796"
       orientation="0,1"
       id="guide4211" />
    <sodipodi:guide
       position="334.77087,592.54721"
       orientation="1,0"
       id="guide4213" />
    <sodipodi:guide
       position="346.30279,566.30692"
       orientation="0,1"
       id="guide4215" />
    <sodipodi:guide
       position="352.93191,577.63168"
       orientation="1,0"
       id="guide4217" />
    <sodipodi:guide
       position="365.08531,548.14587"
       orientation="0,1"
       id="guide4219" />
    <sodipodi:guide
       position="371.09296,556.29418"
       orientation="1,0"
       id="guide4221" />
    <sodipodi:guide
       position="620.83976,529.62299"
       orientation="0,1"
       id="guide4223" />
    <sodipodi:guide
       position="389.254,526.325"
       orientation="1,0"
       id="guide4225" />
    <sodipodi:guide
       position="410.31529,511.68568"
       orientation="0,1"
       id="guide4227" />
    <sodipodi:guide
       position="425.64514,502.84685"
       orientation="1,0"
       id="guide4231" />
    <sodipodi:guide
       position="431.44563,493.45558"
       orientation="0,1"
       id="guide4233" />
    <sodipodi:guide
       position="448.70898,475.22549"
       orientation="0,1"
       id="guide4235" />
    <sodipodi:guide
       position="443.875,374.25001"
       orientation="1,0"
       id="guide4237" />
    <sodipodi:guide
       position="462.10533,463.48641"
       orientation="1,0"
       id="guide4239" />
    <sodipodi:guide
       position="471.4966,456.99539"
       orientation="0,1"
       id="guide4241" />
    <sodipodi:guide
       position="485.58349,438.76529"
       orientation="0,1"
       id="guide4243" />
    <sodipodi:guide
       position="480.5,511.68568"
       orientation="1,0"
       id="guide4245" />
    <sodipodi:guide
       position="523.56286,402.3051"
       orientation="0,1"
       id="guide4251" />
    <sodipodi:guide
       position="535.02572,385.59418"
       orientation="1,0"
       id="guide4255" />
    <sodipodi:guide
       position="300.93236,384.50001"
       orientation="0,1"
       id="guide4259" />
    <sodipodi:guide
       position="553.18677,372.47403"
       orientation="1,0"
       id="guide4263" />
    <sodipodi:guide
       position="574.66237,347.82197"
       orientation="0,1"
       id="guide4265" />
    <sodipodi:guide
       position="571.34781,355.90121"
       orientation="1,0"
       id="guide4267" />
    <sodipodi:guide
       position="407.64706,747.41189"
       orientation="1,0"
       id="guide4321" />
    <sodipodi:guide
       position="498.25424,574.49638"
       orientation="1,0"
       id="guide4198" />
    <sodipodi:guide
       position="516.5,602.45499"
       orientation="1,0"
       id="guide4830" />
    <sodipodi:guide
       position="417.193,420.55177"
       orientation="0,1"
       id="guide4275" />
    <sodipodi:guide
       position="242.75,658.00002"
       orientation="0,1"
       id="guide4244" />
    <sodipodi:guide
       position="244.25,644.00002"
       orientation="1,0"
       id="guide4246" />
    <sodipodi:guide
       position="173,366.25001"
       orientation="0,1"
       id="guide4327" />
  </sodipodi:namedview>
  <metadata
     id="metadata7">
    <rdf:RDF>
      <cc:Work
         rdf:about="">
        <dc:format>image/svg+xml</dc:format>
        <dc:type
           rdf:resource="http://purl.org/dc/dcmitype/StillImage" />
        <dc:title>campo 2</dc:title>
        <dc:creator>
          <cc:Agent>
            <dc:title>Johannes Hechler</dc:title>
          </cc:Agent>
        </dc:creator>
        <dc:rights>
          <cc:Agent>
            <dc:title>Johannes Hechler</dc:title>
          </cc:Agent>
        </dc:rights>
        <dc:publisher>
          <cc:Agent>
            <dc:title>RRZE</dc:title>
          </cc:Agent>
        </dc:publisher>
        <dc:contributor>
          <cc:Agent>
            <dc:title>Ute Weber
Hendrik Eggers</dc:title>
          </cc:Agent>
        </dc:contributor>
        <cc:license
           rdf:resource="http://creativecommons.org/licenses/by-nc/3.0/" />
        <dc:date>Dec 2015</dc:date>
        <dc:subject>
          <rdf:Bag>
            <rdf:li>campo</rdf:li>
            <rdf:li>logo</rdf:li>
          </rdf:Bag>
        </dc:subject>
      </cc:Work>
      <cc:License
         rdf:about="http://creativecommons.org/licenses/by-nc/3.0/">
        <cc:permits
           rdf:resource="http://creativecommons.org/ns#Reproduction" />
        <cc:permits
           rdf:resource="http://creativecommons.org/ns#Distribution" />
        <cc:requires
           rdf:resource="http://creativecommons.org/ns#Notice" />
        <cc:requires
           rdf:resource="http://creativecommons.org/ns#Attribution" />
        <cc:prohibits
           rdf:resource="http://creativecommons.org/ns#CommercialUse" />
        <cc:permits
           rdf:resource="http://creativecommons.org/ns#DerivativeWorks" />
      </cc:License>
    </rdf:RDF>
  </metadata>
  <g
     inkscape:label="Ebene 1"
     inkscape:groupmode="layer"
     id="layer1">
    <path
       style="color:#000000;clip-rule:nonzero;display:inline;overflow:visible;visibility:visible;opacity:1;isolation:auto;mix-blend-mode:normal;color-interpolation:sRGB;color-interpolation-filters:linearRGB;solid-color:#000000;solid-opacity:1;fill:#2e5990;fill-opacity:1;fill-rule:evenodd;stroke:none;stroke-width:35;stroke-linecap:butt;stroke-linejoin:round;stroke-miterlimit:4;stroke-dasharray:none;stroke-dashoffset:0;stroke-opacity:1;color-rendering:auto;image-rendering:auto;shape-rendering:auto;text-rendering:auto;enable-background:accumulate"
       d="m 390.79146,329.48517 c -107.06102,1.7e-4 -193.85492,86.11751 -193.90418,192.36702 -1.9e-4,0.0188 -0.002,0.0376 -0.002,0.0564 -7e-5,0.01 8e-5,0.0188 0,0.0281 l 0,0.006 0,0.01 c -0.24641,30.80854 6.45178,60.93656 20.65381,87.9571 l -0.0947,0 c 31.01288,61.98821 94.19523,104.34023 169.33885,104.34037 64.34832,0.35364 137.65185,-36.70209 171.69599,-100.00258 0.45147,-1.01384 0.83304,-1.95788 1.20229,-3.33472 l 0.10218,-0.31895 c 0,0 1.17383,-1.45282 0.87091,-9.99312 -0.16596,-4.67881 -0.76527,-7.07567 -1.27608,-8.32604 -2.32765,-7.29796 -7.73401,-14.72381 -18.61662,-20.0708 -4.50068,-2.21134 -8.79315,-3.21027 -12.83456,-3.32289 -17.51278,-0.48802 -30.33544,15.67121 -35.19231,21.97283 -0.41398,0.51368 -0.82935,1.00748 -1.24389,1.51297 l 0.0397,0 -16.38635,17.6463 c -24.29159,22.86849 -50.61995,33.04698 -83.80231,33.10865 -32.44041,-2e-5 -61.90902,-12.63173 -83.69439,-33.21202 l -0.12117,0 c -5.90035,-5.64957 -11.19761,-11.81595 -15.81457,-18.41689 -7.35411,-10.51429 -12.99661,-22.10867 -16.73092,-34.35474 -1.6996,-5.63852 -2.99868,-11.44796 -3.85662,-17.4001 l -0.0777,0 c -0.84731,-5.67495 -1.29818,-11.4401 -1.3253,-17.26099 l 0.16283,0 c 4.7e-4,-2.99064 0.11546,-5.95385 0.33132,-8.88988 0.14954,-1.74964 0.36316,-3.75369 0.8179,-7.16452 l -0.0719,0 c 7.91401,-59.01982 58.78945,-104.55276 120.38049,-104.55278 40.05033,0.10289 70.79559,4.89061 93.35769,37.7547 0.005,-0.009 1.09243,1.39081 1.09243,1.39081 6.61471,7.60247 22.069,22.44291 44.73824,18.27969 22.66924,-4.16324 27.74634,-29.99259 19.39476,-46.48859 -33.94536,-57.06473 -81.95196,-83.11948 -159.13406,-83.32044 z"
       id="rect4231"
       inkscape:connector-curvature="0"
       sodipodi:nodetypes="ccccccccccccscsscccccccscccccccccccscc" />
    <path
       style="color:#000000;clip-rule:nonzero;display:inline;overflow:visible;visibility:visible;opacity:1;isolation:auto;mix-blend-mode:normal;color-interpolation:sRGB;color-interpolation-filters:linearRGB;solid-color:#000000;solid-opacity:1;fill:#73d216;fill-opacity:1;fill-rule:evenodd;stroke:none;stroke-width:35;stroke-linecap:butt;stroke-linejoin:round;stroke-miterlimit:4;stroke-dasharray:none;stroke-dashoffset:0;stroke-opacity:1;color-rendering:auto;image-rendering:auto;shape-rendering:auto;text-rendering:auto;enable-background:accumulate"
       d="m 197.51562,558.90039 c 0.9171,4.18559 1.98177,8.32229 3.20118,12.39844 l -0.041,0 0.18945,0.49414 c 0.0718,0.237 0.13625,0.47629 0.20899,0.71289 l 0.0606,0 1.75195,4.625 80.21094,0 c -2.99999,-5.86028 -5.52236,-11.95443 -7.54102,-18.23047 l -78.04102,0 z m 330.41211,9.98047 c -8.63696,-0.24068 -16.12513,3.57198 -22.08789,8.25 l 42.80274,0 c -2.23874,-1.77161 -4.83866,-3.433 -7.88086,-4.92774 -4.50068,-2.21133 -8.79258,-3.20964 -12.83399,-3.32226 z"
       id="rect4240"
       inkscape:connector-curvature="0" />
    <path
       style="color:#000000;clip-rule:nonzero;display:inline;overflow:visible;visibility:visible;opacity:1;isolation:auto;mix-blend-mode:normal;color-interpolation:sRGB;color-interpolation-filters:linearRGB;solid-color:#000000;solid-opacity:1;fill:#d3d7cf;fill-opacity:1;fill-rule:evenodd;stroke:none;stroke-width:35;stroke-linecap:butt;stroke-linejoin:round;stroke-miterlimit:4;stroke-dasharray:none;stroke-dashoffset:0;stroke-opacity:1;color-rendering:auto;image-rendering:auto;shape-rendering:auto;text-rendering:auto;enable-background:accumulate"
       d="m 202.88672,577.13086 4.53906,11.97656 -0.29492,0 c 0.89262,2.10424 1.82702,4.1888 2.80078,6.25391 l 84.61524,0 c -0.9683,-1.27405 -1.91857,-2.56035 -2.83399,-3.86914 -3.21022,-4.5897 -6.07334,-9.39591 -8.61523,-14.36133 z m 302.95312,0 c -6.12765,4.80738 -10.64391,10.52887 -13.10546,13.72266 -0.41398,0.51368 -0.82961,1.00818 -1.24415,1.51367 l 0.041,0 -2.78125,2.99414 71.40234,0 c -0.23466,-1.42599 -0.51062,-2.44261 -0.77343,-3.08594 -1.67697,-5.25784 -4.96661,-10.57872 -10.73633,-15.14453 z"
       id="rect4242"
       inkscape:connector-curvature="0"
       sodipodi:nodetypes="cccccsccccccccccc" />
    <path
       style="color:#000000;clip-rule:nonzero;display:inline;overflow:visible;visibility:visible;opacity:1;isolation:auto;mix-blend-mode:normal;color-interpolation:sRGB;color-interpolation-filters:linearRGB;solid-color:#000000;solid-opacity:1;fill:#729fcf;fill-opacity:1;fill-rule:evenodd;stroke:none;stroke-width:35;stroke-linecap:butt;stroke-linejoin:round;stroke-miterlimit:4;stroke-dasharray:none;stroke-dashoffset:0;stroke-opacity:1;color-rendering:auto;image-rendering:auto;shape-rendering:auto;text-rendering:auto;enable-background:accumulate"
       d="m 194.3774,540.67079 2.5734,15.23242 -0.0712,0 c 0.19372,0.968 0.40325,1.93002 0.61351,2.89258 l 80.46145,0 c -0.29566,-0.62027 -0.60827,-1.23455 -0.8899,-1.85937 l 0.21566,-0.002 -5.44831,-16.26367 z"
       id="rect4244"
       inkscape:connector-curvature="0"
       sodipodi:nodetypes="ccccccccc" />
    <path
       style="color:#000000;clip-rule:nonzero;display:inline;overflow:visible;visibility:visible;opacity:1;isolation:auto;mix-blend-mode:normal;color-interpolation:sRGB;color-interpolation-filters:linearRGB;solid-color:#000000;solid-opacity:1;fill:#cc0000;fill-opacity:1;fill-rule:evenodd;stroke:none;stroke-width:35;stroke-linecap:butt;stroke-linejoin:round;stroke-miterlimit:4;stroke-dasharray:none;stroke-dashoffset:0;stroke-opacity:1;color-rendering:auto;image-rendering:auto;shape-rendering:auto;text-rendering:auto;enable-background:accumulate"
       d="m 193.61914,522.73242 -0.01,0.23242 -0.0371,0 c 5.8e-4,0.19913 0.009,0.39673 0.01,0.59571 l -0.0176,0.37109 0.0234,0 c 0.044,5.05359 0.30836,10.05822 0.78711,15.00586 l -0.29102,0.002 0.29297,1.73047 76.90039,0 c -0.0474,-0.31163 -0.10731,-0.61922 -0.15234,-0.93164 l -0.0781,0 c -0.83487,-5.59161 -1.28131,-11.27205 -1.32032,-17.00586 l -76.10742,0 z"
       id="rect4246"
       inkscape:connector-curvature="0" />
    <path
       style="color:#000000;clip-rule:nonzero;display:inline;overflow:visible;visibility:visible;opacity:1;isolation:auto;mix-blend-mode:normal;color-interpolation:sRGB;color-interpolation-filters:linearRGB;solid-color:#000000;solid-opacity:1;fill:#edd400;fill-opacity:1;fill-rule:evenodd;stroke:none;stroke-width:35;stroke-linecap:butt;stroke-linejoin:round;stroke-miterlimit:4;stroke-dasharray:none;stroke-dashoffset:0;stroke-opacity:1;color-rendering:auto;image-rendering:auto;shape-rendering:auto;text-rendering:auto;enable-background:accumulate"
       d="m 194.57227,504.21094 c -0.0214,0.19967 -0.0476,0.39779 -0.0684,0.59765 l -0.0723,0 -0.0508,1.1211 c -0.006,0.0559 -0.0121,0.11201 -0.0176,0.16797 l 0.01,0 -0.75391,16.63476 76.10742,0 c -5.8e-4,-0.0855 -0.005,-0.17037 -0.006,-0.25586 l 0.16407,0 c 4.7e-4,-2.99064 0.11421,-5.95264 0.33007,-8.88867 0.14954,-1.74964 0.36362,-3.75518 0.81836,-7.16601 l -0.0723,0 c 0.0992,-0.73982 0.20962,-1.47543 0.32226,-2.21094 l -76.71093,0 z"
       id="rect4249"
       inkscape:connector-curvature="0" />
    <path
       inkscape:connector-curvature="0"
       style="color:#000000;font-style:normal;font-variant:normal;font-weight:normal;font-stretch:normal;font-size:medium;line-height:normal;font-family:sans-serif;text-indent:0;text-align:start;text-decoration:none;text-decoration-line:none;text-decoration-style:solid;text-decoration-color:#000000;letter-spacing:normal;word-spacing:normal;text-transform:none;direction:ltr;block-progression:tb;writing-mode:lr-tb;baseline-shift:baseline;text-anchor:start;white-space:normal;clip-rule:nonzero;display:inline;overflow:visible;visibility:visible;opacity:1;isolation:auto;mix-blend-mode:normal;color-interpolation:sRGB;color-interpolation-filters:linearRGB;solid-color:#000000;solid-opacity:1;fill:#16335c;fill-opacity:1;fill-rule:evenodd;stroke:none;stroke-width:13;stroke-linecap:butt;stroke-linejoin:round;stroke-miterlimit:4;stroke-dasharray:none;stroke-dashoffset:0;stroke-opacity:1;color-rendering:auto;image-rendering:auto;shape-rendering:auto;text-rendering:auto;enable-background:accumulate"
       d="m 390.79102,322.98438 c -110.52562,1.6e-4 -200.31926,89.04377 -200.4043,198.80273 0.002,-0.22306 -4.8e-4,-0.0136 -0.002,0.0762 -7.2e-4,0.10169 -8.3e-4,0.11341 0,0.0176 l 0,0.0195 c -10e-6,0.001 1e-5,0.003 0,0.004 -2e-5,0.0132 0,-0.0103 0,0.004 a 6.50065,6.50065 0 0 0 0,0.0293 l 0,0.006 c -0.24429,31.3414 6.52032,62.11142 20.84375,89.8418 a 6.50065,6.50065 0 0 0 0.40234,1.0332 c 32.06123,64.08364 97.55767,107.92556 175.13672,107.93164 66.86588,0.36005 142.05244,-37.63371 177.43554,-103.42383 a 6.50065,6.50065 0 0 0 0.21485,-0.43359 c 0.47364,-1.06363 0.99001,-2.42478 1.4375,-4.00781 0.0145,-0.0296 0.0255,-0.0415 0.0391,-0.0703 l -0.0234,0.082 0.0293,-0.0937 c 0.0393,-0.0843 0.0878,-0.12984 0.11719,-0.20507 0.29757,-0.76191 0.52806,-1.60872 0.71484,-2.6543 0.37357,-2.09116 0.58044,-4.99183 0.41797,-9.57227 -0.17782,-5.01315 -0.79583,-8.04822 -1.69141,-10.32421 -2.87451,-8.77685 -9.69106,-17.71344 -21.83007,-23.67774 -5.27343,-2.59102 -10.53639,-3.84746 -15.51953,-3.98633 -21.51573,-0.59956 -35.45551,17.92506 -40.45704,24.41797 -0.35337,0.43774 -0.74694,0.90615 -1.1875,1.44336 a 6.50065,6.50065 0 0 0 -0.0918,0.12305 l -15.79688,17.01367 c -23.2481,21.84269 -47.43237,31.17878 -79.23437,31.24023 -30.75309,-2e-5 -58.607,-11.95288 -79.23047,-31.43554 a 6.50065,6.50065 0 0 0 -0.5625,-0.46875 c -5.39782,-5.22821 -10.2712,-10.88928 -14.50977,-16.94922 -6.95888,-9.94922 -12.29859,-20.91944 -15.83398,-32.50586 -0.001,-0.004 -7.8e-4,-0.008 -0.002,-0.0117 -8.3e-4,-0.003 -0.003,-0.005 -0.004,-0.008 -1.60482,-5.32751 -2.83065,-10.81226 -3.64063,-16.43164 a 6.50065,6.50065 0 0 0 -0.16797,-0.78125 c -0.6752,-4.73329 -1.04642,-9.52823 -1.12109,-14.36524 a 6.50065,6.50065 0 0 0 0.11524,-1.18554 c 4.4e-4,-2.81224 0.1075,-5.60366 0.31054,-8.37696 0.14053,-1.63912 0.33788,-3.49477 0.78125,-6.82031 a 6.50065,6.50065 0 0 0 0.0527,-0.67969 c 7.78846,-55.47659 55.65916,-98.22467 113.79687,-98.23242 19.77043,0.0508 36.77718,1.31707 51.14453,6.24219 14.36735,4.92512 26.28642,13.2737 36.8711,28.6914 a 6.50065,6.50065 0 0 0 0.34961,0.46289 c -1.2e-4,-1.3e-4 0.0168,0.0201 0.0195,0.0234 0.004,0.005 0.0125,0.0166 0.0195,0.0254 a 6.50065,6.50065 0 0 0 0.004,0.008 c 0.014,0.0177 0.0172,0.0198 0.0371,0.0449 0.0882,0.11167 0.22085,0.28133 0.35352,0.45117 0.26534,0.33968 0.5332,0.68555 0.5332,0.68555 a 6.50065,6.50065 0 0 0 0.23047,0.27734 c 7.15601,8.22459 24.93185,25.15997 50.81641,20.40625 13.5987,-2.49742 22.647,-12.09565 26.3125,-22.92773 3.6655,-10.83209 2.7401,-22.94737 -2.29297,-32.88868 a 6.50065,6.50065 0 0 0 -0.21289,-0.38671 c -34.83862,-58.5675 -85.95718,-86.22721 -164.44714,-86.49254 a 6.50065,6.50065 0 0 0 -0.27343,-0.008 z m 0,6.5 0,0.002 c 77.1821,0.20096 125.1894,26.25558 159.13476,83.32031 8.35158,16.496 3.27471,42.32504 -19.39453,46.48828 -22.66924,4.16322 -38.12357,-10.67683 -44.73828,-18.2793 0,0 -1.08875,-1.39962 -1.09375,-1.39062 -22.5621,-32.86409 -53.30709,-37.65297 -93.35742,-37.75586 -61.59104,2e-5 -112.46685,45.53292 -120.38086,104.55274 l 0.0723,0 c -0.45474,3.41083 -0.66882,5.41637 -0.81836,7.16601 -0.21586,2.93603 -0.3296,5.89803 -0.33007,8.88867 l -0.16407,0 c 0.0271,5.82089 0.47887,11.58677 1.32618,17.26172 l 0.0781,0 c 0.85794,5.95214 2.15587,11.76187 3.85547,17.40039 3.73431,12.24607 9.37831,23.83923 16.73242,34.35352 4.61696,6.60094 9.9141,12.7684 15.81445,18.41797 l 0.1211,0 c 21.78537,20.58029 51.25295,33.21091 83.69336,33.21093 33.18236,-0.0617 59.51114,-10.23893 83.80273,-33.10742 l 16.38672,-17.64648 -0.041,0 c 0.41454,-0.50549 0.83017,-0.99999 1.24415,-1.51367 4.85686,-6.30162 17.68057,-22.46068 35.19335,-21.97266 4.04141,0.11262 8.33331,1.11093 12.83399,3.32226 10.88261,5.347 16.28954,12.77431 18.61719,20.07227 0.51081,1.25037 1.10943,3.64736 1.27539,8.32617 0.30292,8.5403 -0.8711,9.99219 -0.8711,9.99219 l -0.10156,0.31836 c -0.36925,1.37684 -0.75165,2.3221 -1.20312,3.33594 C 524.43438,677.54854 451.13152,714.60364 386.7832,714.25 311.63958,714.24986 248.45819,671.89837 217.44531,609.91016 l 0.0937,0 c -14.20203,-27.02054 -20.9007,-57.1485 -20.65429,-87.95704 l 0,-0.01 0,-0.006 c 8e-5,-0.009 -7e-5,-0.0193 0,-0.0293 0,-0.0188 0.002,-0.0378 0.002,-0.0566 0.0493,-106.24951 86.84328,-192.36701 193.9043,-192.36718 z m 88.96679,114.36132 a 6.50065,6.50065 0 0 0 0.30469,0.32422 c -0.0261,-0.0285 -0.11253,-0.10892 -0.13281,-0.13086 -0.12332,-0.13341 -0.14665,-0.16311 -0.17188,-0.19336 z m 0.50586,0.52344 a 6.50065,6.50065 0 0 0 0.17383,0.15039 c -0.0184,-0.0148 -0.0649,-0.0446 -0.0762,-0.0547 -0.0698,-0.0625 -0.0507,-0.0514 -0.0977,-0.0957 z m 1.07227,0.80859 a 6.50065,6.50065 0 0 0 0.10937,0.0625 c -0.002,-6.3e-4 -0.0469,-0.0156 -0.0469,-0.0156 10e-6,1e-5 -0.0564,-0.0425 -0.0625,-0.0469 z m 2.39453,0.86915 a 6.50065,6.50065 0 0 0 0.041,0.004 l -0.0117,0.006 c 0,0 -0.0286,-0.01 -0.0293,-0.01 z m 82.22851,166.54882 -0.006,0.0215 -0.004,0.006 c 0.003,-0.0111 0.007,-0.0163 0.01,-0.0274 z"
       id="path4245" />
    <path
       style="color:#000000;clip-rule:nonzero;display:inline;overflow:visible;visibility:visible;opacity:1;isolation:auto;mix-blend-mode:normal;color-interpolation:sRGB;color-interpolation-filters:linearRGB;solid-color:#000000;solid-opacity:1;fill:none;fill-opacity:1;fill-rule:nonzero;stroke:none;stroke-width:25;stroke-linecap:butt;stroke-linejoin:round;stroke-miterlimit:4;stroke-dasharray:none;stroke-dashoffset:0;stroke-opacity:1;color-rendering:auto;image-rendering:auto;shape-rendering:auto;text-rendering:auto;enable-background:accumulate"
       d="m 191.05168,322.18366 396.18181,0 c 1.07728,0 1.94454,0.86727 1.94454,1.94454 l 0,396.11092 c 0,1.0773 -0.86726,1.9446 -1.94454,1.9446 l -396.18181,0 c -1.07728,0 -1.94454,-0.8673 -1.94454,-1.9446 l 0,-396.11092 c 0,-1.07727 0.86726,-1.94454 1.94454,-1.94454 z"
       id="rect4337"
       inkscape:connector-curvature="0" />
    <path
       id="path4252"
       d="m 390.15795,330.05544 c -106.45799,1.6e-4 -192.94699,86.35748 -193.0289,192.8052 0.002,-0.21633 -4.6e-4,-0.0132 -0.002,0.0739 -7e-4,0.0986 -8.1e-4,0.10999 0,0.0171 l 0,0.0189 c -1e-5,9.7e-4 1e-5,0.003 0,0.004 -2e-5,0.0128 0,-0.01 0,0.004 l 0,0.0284 0,0.006 c -0.2353,30.39589 6.28035,60.23763 20.07664,87.13143 0.1006,0.34451 0.23025,0.67974 0.38753,1.00203 30.8813,62.15035 93.96729,104.66963 168.69123,104.67553 64.40505,0.34918 136.82455,-36.49837 170.90545,-100.30371 0.0741,-0.13754 0.14317,-0.2778 0.20695,-0.42051 0.45621,-1.03154 0.95357,-2.35163 1.38459,-3.8869 0.014,-0.0287 0.0245,-0.0403 0.0376,-0.0682 l -0.0225,0.0795 0.0282,-0.0909 c 0.0378,-0.0818 0.0845,-0.12592 0.11289,-0.19888 0.28661,-0.73893 0.50862,-1.56019 0.68852,-2.57423 0.35983,-2.02807 0.55908,-4.84123 0.40259,-9.28349 -0.17127,-4.86191 -0.76654,-7.80542 -1.62916,-10.01275 -2.76872,-8.51206 -3.67755,-11.5222 -15.36982,-17.30657 -5.07934,-2.51285 -10.14862,-3.73139 -14.94837,-3.86607 -20.72389,-0.58147 -32.38288,19.15206 -37.20034,25.44909 -0.34037,0.42454 -0.71945,0.87882 -1.14379,1.39982 -0.0299,0.0394 -0.0594,0.0792 -0.0884,0.11934 l -15.21551,16.50039 c -22.39251,21.18374 -53.46491,31.65238 -84.09651,31.71198 -29.6213,-2e-5 -64.59656,-14.68111 -84.46104,-33.57601 -0.17197,-0.16167 -0.35285,-0.31344 -0.54179,-0.45461 -5.19916,-5.07049 -9.89319,-10.56077 -13.97577,-16.43789 -6.70277,-9.64907 -13.34597,-26.03834 -16.75125,-37.27522 -9.7e-4,-0.004 -7.5e-4,-0.008 -0.002,-0.0113 -8e-4,-0.003 -0.003,-0.005 -0.004,-0.008 -1.54576,-5.16679 -2.72647,-10.48607 -3.50665,-15.93593 -0.0384,-0.25566 -0.0925,-0.5087 -0.16179,-0.75768 -0.65035,-4.59049 -1.0079,-9.24078 -1.07983,-13.93186 0.0719,-0.37903 0.10903,-0.76391 0.11101,-1.14978 4.1e-4,-2.7274 0.10353,-5.43461 0.29911,-8.12424 0.13535,-1.58967 0.32545,-3.38934 0.75249,-6.61455 0.0283,-0.21869 0.0453,-0.43872 0.0507,-0.65919 5.43837,-56.69179 60.97494,-108.95155 119.60885,-105.26891 19.04283,0.0493 40.01988,1.37784 53.85847,6.15438 13.83859,4.77654 29.2081,14.28746 39.40323,29.24004 0.10556,0.15461 0.21793,0.3044 0.33676,0.44892 -1.2e-4,-1.2e-4 0.0162,0.0195 0.0188,0.0227 0.004,0.005 0.012,0.0161 0.0188,0.0246 l 0.004,0.008 c 0.0135,0.0172 0.0166,0.0192 0.0358,0.0435 0.0849,0.1083 0.21273,0.27284 0.34051,0.43756 0.25558,0.32943 0.51358,0.66486 0.51358,0.66486 0.0715,0.0917 0.14554,0.1814 0.22199,0.26898 6.89265,7.97647 15.52901,24.04738 40.46095,19.43708 13.09823,-2.42208 21.81353,-2.89192 25.34413,-13.39721 3.5306,-10.50531 2.63925,-22.25509 -2.20858,-31.89649 -0.0641,-0.12731 -0.1325,-0.2524 -0.20505,-0.37504 -33.5565,-56.80062 -82.79376,-83.62589 -158.3951,-83.88321 -0.0877,-0.005 -0.17553,-0.007 -0.26336,-0.008 z m 0,6.30391 0,0.002 c 74.3416,0.1949 120.5821,25.46349 153.27818,80.80668 8.04423,15.99834 3.1542,32.20934 -18.68076,36.24698 -21.83495,4.03762 -28.23524,-10.00118 -34.60651,-17.3743 0,0 -1.04868,-1.35739 -1.0535,-1.34866 -20.87258,-34.02058 -58.80708,-40.59036 -98.4069,-38.13156 -63.0678,-3.20867 -121.15692,51.7343 -125.95053,111.39857 l 0.0696,0 c -0.438,3.30793 -0.6442,5.25297 -0.78824,6.94982 -0.20792,2.84746 -0.31748,5.7201 -0.31792,8.62052 l -0.15803,0 c 0.0261,5.64528 0.46124,11.23721 1.27737,16.74096 l 0.0752,0 c 0.82637,5.77257 2.07653,11.40703 3.71358,16.87545 3.59688,11.87663 10.53316,28.87004 17.61662,39.06713 4.44704,6.4018 9.54924,12.3832 15.23244,17.86233 l 0.11664,0 c 20.98361,19.95942 57.51316,35.29783 88.75968,35.29785 31.96116,-0.0598 65.09915,-11.34425 88.49674,-33.52284 l 15.78364,-17.11411 -0.0395,0 c 0.39928,-0.49025 0.79961,-0.96983 1.19836,-1.46801 4.67811,-6.11151 15.2621,-23.55085 32.13037,-23.07755 3.89268,0.10922 8.02662,1.07741 12.36166,3.22203 10.4821,5.18569 10.0332,6.73208 12.27518,13.80987 0.49201,1.21265 1.0686,3.53733 1.22846,8.07499 0.29177,8.28265 -0.83904,9.69074 -0.83904,9.69074 l -0.0978,0.30876 c -0.35566,1.3353 -0.72398,2.25204 -1.15884,3.2353 -32.79123,61.39082 -103.39635,97.32803 -165.37648,96.98506 -72.37815,-1.4e-4 -133.23429,-41.07395 -163.10582,-101.19209 l 0.0903,0 C 209.60274,582.1199 203.1506,552.90085 203.38793,523.02175 l 0,-0.01 0,-0.006 c 8e-5,-0.009 -7e-5,-0.0187 0,-0.0284 0,-0.0182 0.002,-0.0367 0.002,-0.0549 0.0475,-103.04414 83.64722,-186.56363 186.76812,-186.56379 z m 94.17786,102.42596 c 0.0942,0.10815 0.19212,0.21302 0.29348,0.31443 -0.0251,-0.0276 -0.10839,-0.10563 -0.12793,-0.12691 -0.11878,-0.12938 -0.14125,-0.15819 -0.16555,-0.18752 z m 0.48725,0.50764 c 0.0549,0.0496 0.11076,0.0982 0.16742,0.14586 -0.0177,-0.0144 -0.0625,-0.0433 -0.0734,-0.053 -0.0672,-0.0606 -0.0489,-0.0498 -0.0941,-0.0928 z m 1.0328,0.7842 c 0.0349,0.0205 0.07,0.0407 0.10535,0.0606 -0.002,-6.1e-4 -0.0452,-0.0151 -0.0452,-0.0151 10e-6,10e-6 -0.0543,-0.0412 -0.0602,-0.0455 z m 2.30641,0.84293 c 0.0132,0.001 0.0263,0.003 0.0395,0.004 l -0.0112,0.006 c 0,0 -0.0275,-0.01 -0.0282,-0.01 z m 70.71701,170.00961 -0.006,0.0208 -0.004,0.006 c 0.003,-0.0108 0.007,-0.0158 0.01,-0.0265 z"
       style="color:#000000;font-style:normal;font-variant:normal;font-weight:normal;font-stretch:normal;font-size:medium;line-height:normal;font-family:sans-serif;text-indent:0;text-align:start;text-decoration:none;text-decoration-line:none;text-decoration-style:solid;text-decoration-color:#000000;letter-spacing:normal;word-spacing:normal;text-transform:none;direction:ltr;block-progression:tb;writing-mode:lr-tb;baseline-shift:baseline;text-anchor:start;white-space:normal;clip-rule:nonzero;display:inline;overflow:visible;visibility:visible;opacity:0.65499998;isolation:auto;mix-blend-mode:normal;color-interpolation:sRGB;color-interpolation-filters:linearRGB;solid-color:#000000;solid-opacity:1;fill:url(#linearGradient4261);fill-opacity:1;fill-rule:evenodd;stroke:none;stroke-width:13;stroke-linecap:butt;stroke-linejoin:round;stroke-miterlimit:4;stroke-dasharray:none;stroke-dashoffset:0;stroke-opacity:1;color-rendering:auto;image-rendering:auto;shape-rendering:auto;text-rendering:auto;enable-background:accumulate"
       inkscape:connector-curvature="0"
       sodipodi:nodetypes="ccccccscccccccccccccscsscccccccscccccccccccscccccccccssccccccccscccccccccccscccccccsscsccccccccccccccccccccccccccccccscccacc" />
    <path
       inkscape:connector-curvature="0"
       style="color:#000000;clip-rule:nonzero;display:inline;overflow:visible;visibility:visible;opacity:0.581;isolation:auto;mix-blend-mode:normal;color-interpolation:sRGB;color-interpolation-filters:linearRGB;solid-color:#000000;solid-opacity:1;fill:url(#linearGradient4326);fill-opacity:1;fill-rule:evenodd;stroke:none;stroke-width:35;stroke-linecap:butt;stroke-linejoin:round;stroke-miterlimit:4;stroke-dasharray:none;stroke-dashoffset:0;stroke-opacity:1;color-rendering:auto;image-rendering:auto;shape-rendering:auto;text-rendering:auto;enable-background:accumulate"
       d="m 390.79102,329.48438 c -107.06102,1.7e-4 -193.85504,86.11767 -193.9043,192.36718 -1.9e-4,0.0188 -0.002,0.0378 -0.002,0.0566 -7e-5,0.01 8e-5,0.02 0,0.0293 l 0,0.006 0,0.01 c -0.11546,14.43573 1.31518,28.71628 4.30664,42.60352 3.43106,0.33357 6.71937,0.6075 9.80859,0.80469 14.5961,0.93166 36.04451,-9.42885 60.32227,-24.41602 -0.0624,-0.40343 -0.13893,-0.80226 -0.19727,-1.20703 l -0.0781,0 c -0.84731,-5.67495 -1.29906,-11.44083 -1.32618,-17.26172 l 0.16407,0 c 4.7e-4,-2.99064 0.11421,-5.95264 0.33007,-8.88867 0.14954,-1.74964 0.36362,-3.75518 0.81836,-7.16601 l -0.0723,0 c 7.91401,-59.01982 58.78982,-104.55272 120.38086,-104.55274 39.61123,0.10176 70.11508,4.80545 92.60742,36.70313 23.02236,-1.71926 45.63844,-1.21743 67.31445,3.7207 3.74148,-9.37286 3.08977,-20.74084 -1.33789,-29.48633 -33.94536,-57.06473 -81.95266,-83.11935 -159.13476,-83.32031 l 0,-0.002 z"
       id="path4308" />
    <rect
       style="color:#000000;clip-rule:nonzero;display:inline;overflow:visible;visibility:visible;opacity:0.65499998;isolation:auto;mix-blend-mode:normal;color-interpolation:sRGB;color-interpolation-filters:linearRGB;solid-color:#000000;solid-opacity:1;fill:#ce5c00;fill-opacity:1;fill-rule:evenodd;stroke:none;stroke-width:13;stroke-linecap:butt;stroke-linejoin:round;stroke-miterlimit:4;stroke-dasharray:none;stroke-dashoffset:0;stroke-opacity:1;color-rendering:auto;image-rendering:auto;shape-rendering:auto;text-rendering:auto;enable-background:accumulate"
       id="rect4314"
       width="18.384775"
       height="0"
       x="-26.870056"
       y="413.1377" />
  </g>
</svg>
