<?xml version="1.0" encoding="UTF-8" standalone="no"?>
<!-- Generator: Adobe Illustrator 13.0.0, SVG Export Plug-In . SVG Version: 6.00 Build 14948)  -->
<svg xmlns:dc="http://purl.org/dc/elements/1.1/" xmlns:cc="http://creativecommons.org/ns#" xmlns:rdf="http://www.w3.org/1999/02/22-rdf-syntax-ns#" xmlns:svg="http://www.w3.org/2000/svg" xmlns="http://www.w3.org/2000/svg" xmlns:xlink="http://www.w3.org/1999/xlink" xmlns:sodipodi="http://sodipodi.sourceforge.net/DTD/sodipodi-0.dtd" xmlns:inkscape="http://www.inkscape.org/namespaces/inkscape" enable-background="new 0 0 480 766.444" height="766.444px" id="Ebene_1" inkscape:export-xdpi="5.7537889" inkscape:export-ydpi="5.7537889" inkscape:output_extension="org.inkscape.output.svg.inkscape" inkscape:version="0.48.0 r9654" sodipodi:version="0.32" version="1.1" viewBox="0 0 480 766.444" width="480px" x="0px" xml:space="preserve" y="0px"><title id="title3180">FAU mail</title><metadata id="metadata38"><rdf:RDF><cc:Work rdf:about=""><dc:format>image/svg+xml</dc:format><dc:type rdf:resource="http://purl.org/dc/dcmitype/StillImage"/><cc:license rdf:resource="http://creativecommons.org/licenses/by-sa/3.0/"/><dc:subject><rdf:Bag><rdf:li>email</rdf:li><rdf:li>send</rdf:li><rdf:li>mailbox</rdf:li><rdf:li>FAU</rdf:li><rdf:li>Friedrich-Alexander-University</rdf:li></rdf:Bag></dc:subject><dc:title>FAU mail</dc:title><dc:date>Feb 2014</dc:date><dc:creator><cc:Agent><dc:title>Franziska Sponsel</dc:title></cc:Agent></dc:creator><dc:rights><cc:Agent><dc:title>Franziska Sponsel</dc:title></cc:Agent></dc:rights><dc:publisher><cc:Agent><dc:title>RRZE</dc:title></cc:Agent></dc:publisher><dc:contributor><cc:Agent><dc:title/></cc:Agent></dc:contributor><dc:description/></cc:Work><cc:License rdf:about="http://creativecommons.org/licenses/by-sa/3.0/"><cc:permits rdf:resource="http://creativecommons.org/ns#Reproduction"/><cc:permits rdf:resource="http://creativecommons.org/ns#Distribution"/><cc:requires rdf:resource="http://creativecommons.org/ns#Notice"/><cc:requires rdf:resource="http://creativecommons.org/ns#Attribution"/><cc:permits rdf:resource="http://creativecommons.org/ns#DerivativeWorks"/><cc:requires rdf:resource="http://creativecommons.org/ns#ShareAlike"/></cc:License></rdf:RDF></metadata><defs id="defs36"><linearGradient id="linearGradient8650" inkscape:collect="always"><stop id="stop8652" offset="0" style="stop-color:#ffffff;stop-opacity:1;"/><stop id="stop8654" offset="1" style="stop-color:#ffffff;stop-opacity:0;"/></linearGradient><radialGradient cx="24.53788" cy="0.40010813" fx="24.53788" fy="0.40010813" gradientTransform="matrix(27.992603,-0.1877079,0.1428502,21.303047,-250.97086,92.298311)" gradientUnits="userSpaceOnUse" id="radialGradient134946" inkscape:collect="always" r="17.171415" xlink:href="#linearGradient8650"/><linearGradient id="linearGradient4747"><stop id="stop4749" offset="0" style="stop-color:#16d277;stop-opacity:1;"/><stop id="stop4751" offset="1" style="stop-color:#069a4a;stop-opacity:1;"/></linearGradient><linearGradient gradientTransform="matrix(9.1290827e-3,1.3614071,-1.3614071,9.1290827e-3,1142.7515,-165.9256)" gradientUnits="userSpaceOnUse" id="linearGradient134949" inkscape:collect="always" x1="215.56676" x2="566.89117" xlink:href="#linearGradient4747" y1="573.56177" y2="573.56177"/><radialGradient cx="605.71429" cy="486.64789" fx="605.71429" fy="486.64789" gradientTransform="matrix(-2.774389,0,0,1.969706,112.7623,-872.8854)" gradientUnits="userSpaceOnUse" id="radialGradient90093" inkscape:collect="always" r="117.14286" xlink:href="#linearGradient5060"/><radialGradient cx="605.71429" cy="486.64789" fx="605.71429" fy="486.64789" gradientTransform="matrix(2.774389,0,0,1.969706,-1891.633,-872.8854)" gradientUnits="userSpaceOnUse" id="radialGradient90091" inkscape:collect="always" r="117.14286" xlink:href="#linearGradient5060"/><linearGradient gradientTransform="matrix(2.774389,0,0,1.969706,-1892.179,-872.8854)" gradientUnits="userSpaceOnUse" id="linearGradient90089" inkscape:collect="always" x1="302.85715" x2="302.85715" xlink:href="#linearGradient5048" y1="366.64789" y2="609.50507"/><linearGradient id="linearGradient2573" inkscape:collect="always"><stop id="stop2575" offset="0" style="stop-color:#ffffff;stop-opacity:1;"/><stop id="stop2577" offset="1" style="stop-color:#ffffff;stop-opacity:0;"/></linearGradient><linearGradient gradientUnits="userSpaceOnUse" id="linearGradient90107" inkscape:collect="always" x1="17.397203" x2="22.17771" xlink:href="#linearGradient2573" y1="33.357376" y2="31.026741"/><linearGradient id="linearGradient9749"><stop id="stop9751" offset="0" style="stop-color:#ffffff;stop-opacity:1;"/><stop id="stop9753" offset="1.0000000" style="stop-color:#ededed;stop-opacity:1.0000000;"/></linearGradient><linearGradient gradientTransform="matrix(1.370928,0,0,-1.46456,2.525057,33.71269)" gradientUnits="userSpaceOnUse" id="linearGradient90105" inkscape:collect="always" x1="11.841544" x2="40.024059" xlink:href="#linearGradient9749" y1="4.2507305" y2="7.4121075"/><linearGradient gradientTransform="matrix(1.570607,0,0,-1.231511,2.973436,33.33485)" gradientUnits="userSpaceOnUse" id="linearGradient90103" inkscape:collect="always" x1="10.027" x2="17.178024" xlink:href="#linearGradient15107" y1="20.219761" y2="-7.5274644"/><linearGradient gradientTransform="matrix(1.296015,0,0,-1.43692,3.746576,33.20516)" gradientUnits="userSpaceOnUse" id="linearGradient90101" inkscape:collect="always" x1="11.74217" x2="13.846983" xlink:href="#linearGradient15107" y1="11.48487" y2="11.981981"/><linearGradient id="linearGradient2274"><stop id="stop2276" offset="0.0000000" style="stop-color:#000000;stop-opacity:0.12871288;"/><stop id="stop2278" offset="1.0000000" style="stop-color:#000000;stop-opacity:0.0000000;"/></linearGradient><radialGradient cx="27.741131" cy="38.711506" fx="27.741131" fy="38.711506" gradientTransform="matrix(0.629929,0.459373,-0.147675,0.248512,16.51724,9.053737)" gradientUnits="userSpaceOnUse" id="radialGradient90099" inkscape:collect="always" r="17.977943" xlink:href="#linearGradient2274"/><linearGradient id="linearGradient2624"><stop id="stop2626" offset="0" style="stop-color:#dfe0df;stop-opacity:1;"/><stop id="stop2630" offset="0.23809524" style="stop-color:#2e3436;stop-opacity:1;"/><stop id="stop2628" offset="1.0000000" style="stop-color:#b5beb5;stop-opacity:1.0000000;"/></linearGradient><linearGradient gradientTransform="matrix(2.454781,0,0,0.762004,2.88175,0.337386)" gradientUnits="userSpaceOnUse" id="linearGradient90097" inkscape:collect="always" x1="9.1643066" x2="9.8855038" xlink:href="#linearGradient2624" y1="38.070892" y2="52.090679"/><linearGradient id="linearGradient15107"><stop id="stop15109" offset="0.0000000" style="stop-color:#ffffff;stop-opacity:1.0000000;"/><stop id="stop15111" offset="1.0000000" style="stop-color:#e2e2e2;stop-opacity:1.0000000;"/></linearGradient><linearGradient gradientTransform="matrix(1.343475,0,0,1.505846,2.879511,-2.266018)" gradientUnits="userSpaceOnUse" id="linearGradient90095" inkscape:collect="always" x1="11.572842" x2="18.475286" xlink:href="#linearGradient15107" y1="4.7461626" y2="26.022910"/><linearGradient id="linearGradient2366"><stop id="stop2368" offset="0" style="stop-color:#ffffff;stop-opacity:1;"/><stop id="stop2374" offset="0.50000000" style="stop-color:#ffffff;stop-opacity:0.21904762;"/><stop id="stop2370" offset="1.0000000" style="stop-color:#ffffff;stop-opacity:1.0000000;"/></linearGradient><linearGradient id="linearGradient3414"><stop id="stop3416" offset="0" style="stop-color:#ffd1d1;stop-opacity:1;"/><stop id="stop3418" offset="0.5" style="stop-color:#ff1d1d;stop-opacity:1;"/><stop id="stop3420" offset="1" style="stop-color:#6f0000;stop-opacity:1;"/></linearGradient><linearGradient id="linearGradient5060" inkscape:collect="always"><stop id="stop5062" offset="0" style="stop-color:black;stop-opacity:1;"/><stop id="stop5064" offset="1" style="stop-color:black;stop-opacity:0;"/></linearGradient><linearGradient id="linearGradient5048"><stop id="stop5050" offset="0" style="stop-color:black;stop-opacity:0;"/><stop id="stop5056" offset="0.5" style="stop-color:black;stop-opacity:1;"/><stop id="stop5052" offset="1" style="stop-color:black;stop-opacity:0;"/></linearGradient><inkscape:perspective id="perspective10334" inkscape:persp3d-origin="240 : 255.48132 : 1" inkscape:vp_x="0 : 383.22198 : 1" inkscape:vp_y="0 : 1000 : 0" inkscape:vp_z="480 : 383.22198 : 1" sodipodi:type="inkscape:persp3d"/><linearGradient gradientUnits="userSpaceOnUse" id="linearGradient45240" x1="43.943802" x2="411.39359" y1="733.39258" y2="425.06561">
				<stop id="stop45242" offset="0.0562" style="stop-color:#003F90"/>
				<stop id="stop45244" offset="0.5674" style="stop-color:#0093D2"/>
				<stop id="stop45246" offset="0.9551" style="stop-color:#EDF3F7"/>
			</linearGradient><linearGradient gradientUnits="userSpaceOnUse" id="linearGradient2472" inkscape:collect="always" x1="43.943802" x2="411.39359" xlink:href="#SVGID_2_" y1="733.39258" y2="425.06561"/>
	
		
	
<linearGradient gradientUnits="userSpaceOnUse" id="linearGradient44238" inkscape:collect="always" x1="43.943802" x2="411.39359" xlink:href="#SVGID_2_" y1="733.39258" y2="425.06561"/>
		
	<linearGradient gradientUnits="userSpaceOnUse" id="linearGradient44254" inkscape:collect="always" x1="43.943802" x2="411.39359" xlink:href="#SVGID_2_" y1="733.39258" y2="425.06561"/>
			<linearGradient gradientTransform="matrix(0.554593,0,0,0.554593,112.4225,231.3589)" gradientUnits="userSpaceOnUse" id="SVGID_1_" x1="43.944302" x2="411.3941" y1="733.39258" y2="425.06561">
				<stop id="stop12" offset="0.0562" style="stop-color:#003F90"/>
				<stop id="stop14" offset="0.5674" style="stop-color:#0093D2"/>
				<stop id="stop16" offset="0.9551" style="stop-color:#EDF3F7"/>
			</linearGradient>
			
			<linearGradient gradientUnits="userSpaceOnUse" id="SVGID_2_" x1="43.943802" x2="411.39359" y1="733.39258" y2="425.06561">
				<stop id="stop21" offset="0.0562" style="stop-color:#003F90"/>
				<stop id="stop23" offset="0.5674" style="stop-color:#0093D2"/>
				<stop id="stop25" offset="0.9551" style="stop-color:#EDF3F7"/>
			</linearGradient>
			
			
			
			
				
		<linearGradient gradientUnits="userSpaceOnUse" id="linearGradient45272" inkscape:collect="always" x1="120.74135" x2="370.30811" xlink:href="#linearGradient45240" y1="520.05469" y2="520.05469"/><linearGradient gradientUnits="userSpaceOnUse" id="linearGradient27210" inkscape:collect="always" x1="120.74135" x2="370.30811" xlink:href="#linearGradient45240" y1="520.05469" y2="520.05469"/><linearGradient gradientTransform="matrix(0.554593,0,0,0.554593,112.4225,231.3589)" gradientUnits="userSpaceOnUse" id="linearGradient27213" inkscape:collect="always" x1="43.944302" x2="411.3941" xlink:href="#SVGID_1_" y1="733.39258" y2="425.06561"/><linearGradient gradientUnits="userSpaceOnUse" id="linearGradient10340" inkscape:collect="always" x1="120.74135" x2="370.30811" xlink:href="#linearGradient45240" y1="520.05469" y2="520.05469"/><linearGradient gradientTransform="matrix(0.554593,0,0,0.554593,112.4225,231.3589)" gradientUnits="userSpaceOnUse" id="linearGradient10343" inkscape:collect="always" x1="43.944302" x2="411.3941" xlink:href="#SVGID_1_" y1="733.39258" y2="425.06561"/><linearGradient gradientTransform="matrix(0.554593,0,0,0.554593,112.4225,231.3589)" gradientUnits="userSpaceOnUse" id="linearGradient2415" inkscape:collect="always" x1="43.944302" x2="411.3941" xlink:href="#SVGID_1_" y1="733.39258" y2="425.06561"/><linearGradient gradientUnits="userSpaceOnUse" id="linearGradient2417" inkscape:collect="always" x1="120.74135" x2="370.30811" xlink:href="#linearGradient45240" y1="520.05469" y2="520.05469"/><linearGradient gradientTransform="matrix(2.774389,0,0,1.969706,-1892.179,-872.8854)" gradientUnits="userSpaceOnUse" id="linearGradient136313" inkscape:collect="always" x1="302.85715" x2="302.85715" xlink:href="#linearGradient5048" y1="366.64789" y2="609.50507"/><radialGradient cx="605.71429" cy="486.64789" fx="605.71429" fy="486.64789" gradientTransform="matrix(2.774389,0,0,1.969706,-1891.633,-872.8854)" gradientUnits="userSpaceOnUse" id="radialGradient136315" inkscape:collect="always" r="117.14286" xlink:href="#linearGradient5060"/><radialGradient cx="605.71429" cy="486.64789" fx="605.71429" fy="486.64789" gradientTransform="matrix(-2.774389,0,0,1.969706,112.7623,-872.8854)" gradientUnits="userSpaceOnUse" id="radialGradient136317" inkscape:collect="always" r="117.14286" xlink:href="#linearGradient5060"/><linearGradient gradientTransform="matrix(1.343475,0,0,1.505846,2.879511,-2.266018)" gradientUnits="userSpaceOnUse" id="linearGradient136319" inkscape:collect="always" x1="11.572842" x2="18.475286" xlink:href="#linearGradient15107" y1="4.7461626" y2="26.022910"/><linearGradient gradientTransform="matrix(2.454781,0,0,0.762004,2.88175,0.337386)" gradientUnits="userSpaceOnUse" id="linearGradient136321" inkscape:collect="always" x1="9.1643066" x2="9.8855038" xlink:href="#linearGradient2624" y1="38.070892" y2="52.090679"/><radialGradient cx="27.741131" cy="38.711506" fx="27.741131" fy="38.711506" gradientTransform="matrix(0.629929,0.459373,-0.147675,0.248512,16.51724,9.053737)" gradientUnits="userSpaceOnUse" id="radialGradient136323" inkscape:collect="always" r="17.977943" xlink:href="#linearGradient2274"/><linearGradient gradientTransform="matrix(1.296015,0,0,-1.43692,3.746576,33.20516)" gradientUnits="userSpaceOnUse" id="linearGradient136325" inkscape:collect="always" x1="11.74217" x2="13.846983" xlink:href="#linearGradient15107" y1="11.48487" y2="11.981981"/><linearGradient gradientTransform="matrix(1.570607,0,0,-1.231511,2.973436,33.33485)" gradientUnits="userSpaceOnUse" id="linearGradient136327" inkscape:collect="always" x1="10.027" x2="17.178024" xlink:href="#linearGradient15107" y1="20.219761" y2="-7.5274644"/><linearGradient gradientTransform="matrix(1.370928,0,0,-1.46456,2.525057,33.71269)" gradientUnits="userSpaceOnUse" id="linearGradient136329" inkscape:collect="always" x1="11.841544" x2="40.024059" xlink:href="#linearGradient9749" y1="4.2507305" y2="7.4121075"/><linearGradient gradientUnits="userSpaceOnUse" id="linearGradient136331" inkscape:collect="always" x1="17.397203" x2="22.17771" xlink:href="#linearGradient2573" y1="33.357376" y2="31.026741"/><linearGradient gradientTransform="matrix(9.1290827e-3,1.3614071,-1.3614071,9.1290827e-3,1142.7515,-165.9256)" gradientUnits="userSpaceOnUse" id="linearGradient136333" inkscape:collect="always" x1="215.56676" x2="566.89117" xlink:href="#linearGradient4747" y1="573.56177" y2="573.56177"/><radialGradient cx="24.53788" cy="0.40010813" fx="24.53788" fy="0.40010813" gradientTransform="matrix(27.992603,-0.1877079,0.1428502,21.303047,-250.97086,92.298311)" gradientUnits="userSpaceOnUse" id="radialGradient136335" inkscape:collect="always" r="17.171415" xlink:href="#linearGradient8650"/><linearGradient inkscape:collect="always" xlink:href="#linearGradient15107" id="linearGradient4078" gradientUnits="userSpaceOnUse" gradientTransform="matrix(13.303278,0,0,14.848796,90.640331,229.96866)" x1="11.572842" y1="4.7461626" x2="18.475286" y2="26.022910"/><linearGradient inkscape:collect="always" xlink:href="#linearGradient2624" id="linearGradient4080" gradientUnits="userSpaceOnUse" gradientTransform="matrix(24.307586,0,0,7.5139439,90.662502,255.64023)" x1="9.1643066" y1="38.070892" x2="9.8855038" y2="52.090679"/><radialGradient inkscape:collect="always" xlink:href="#linearGradient2274" id="radialGradient4082" gradientUnits="userSpaceOnUse" gradientTransform="matrix(6.2376454,4.5297701,-1.4622986,2.450519,225.68304,341.59013)" cx="27.741131" cy="38.711506" fx="27.741131" fy="38.711506" r="17.977943"/><linearGradient inkscape:collect="always" xlink:href="#linearGradient15107" id="linearGradient4084" gradientUnits="userSpaceOnUse" gradientTransform="matrix(12.833322,0,0,-14.169133,99.226131,579.74169)" x1="11.74217" y1="11.48487" x2="13.846983" y2="11.981981"/><linearGradient inkscape:collect="always" xlink:href="#linearGradient15107" id="linearGradient4086" gradientUnits="userSpaceOnUse" gradientTransform="matrix(15.552371,0,0,-12.143643,91.57039,581.02052)" x1="10.027" y1="20.219761" x2="17.178024" y2="-7.5274644"/><linearGradient inkscape:collect="always" xlink:href="#linearGradient9749" id="linearGradient4088" gradientUnits="userSpaceOnUse" gradientTransform="matrix(13.575122,0,0,-14.441685,87.130478,584.74632)" x1="11.841544" y1="4.2507305" x2="40.024059" y2="7.4121075"/><linearGradient inkscape:collect="always" xlink:href="#linearGradient2573" id="linearGradient4090" gradientUnits="userSpaceOnUse" gradientTransform="matrix(9.9021404,0,0,9.860767,62.127009,252.31334)" x1="17.397203" y1="33.357376" x2="22.17771" y2="31.026741"/><linearGradient id="linearGradient4041" inkscape:collect="always"><stop id="stop4043" offset="0" style="stop-color:#ffffff;stop-opacity:1;"/><stop id="stop4045" offset="1" style="stop-color:#ffffff;stop-opacity:0;"/></linearGradient><linearGradient inkscape:collect="always" xlink:href="#linearGradient4041" id="linearGradient5417" gradientUnits="userSpaceOnUse" x1="58.928572" y1="468.25504" x2="212.67856" y2="468.25504"/><linearGradient inkscape:collect="always" xlink:href="#linearGradient4041" id="linearGradient5419" gradientUnits="userSpaceOnUse" x1="58.928572" y1="490.96933" x2="110.17856" y2="490.96933"/><linearGradient inkscape:collect="always" xlink:href="#linearGradient4041" id="linearGradient5421" gradientUnits="userSpaceOnUse" x1="58.928572" y1="509.50504" x2="110.17856" y2="509.50504"/><linearGradient inkscape:collect="always" xlink:href="#linearGradient4041" id="linearGradient5423" gradientUnits="userSpaceOnUse" x1="58.928572" y1="527.68361" x2="110.17856" y2="527.68361"/><linearGradient inkscape:collect="always" xlink:href="#linearGradient4041" id="linearGradient5425" gradientUnits="userSpaceOnUse" x1="58.928572" y1="550.93361" x2="248.21428" y2="550.93361"/><linearGradient inkscape:collect="always" xlink:href="#linearGradient4041" id="linearGradient5427" gradientUnits="userSpaceOnUse" x1="58.928572" y1="573.11218" x2="110.17856" y2="573.11218"/><linearGradient inkscape:collect="always" xlink:href="#linearGradient4041" id="linearGradient5429" gradientUnits="userSpaceOnUse" x1="58.928572" y1="591.64789" x2="110.17856" y2="591.64789"/><linearGradient inkscape:collect="always" xlink:href="#linearGradient4041" id="linearGradient5431" gradientUnits="userSpaceOnUse" x1="58.928572" y1="612.54075" x2="110.17856" y2="612.54075"/><linearGradient inkscape:collect="always" xlink:href="#linearGradient4041" id="linearGradient5433" gradientUnits="userSpaceOnUse" x1="58.928572" y1="632.89789" x2="110.17856" y2="632.89789"/><linearGradient inkscape:collect="always" xlink:href="#linearGradient4041" id="linearGradient5435" gradientUnits="userSpaceOnUse" x1="228.75001" y1="468.25504" x2="295.5357" y2="468.25504"/><linearGradient inkscape:collect="always" xlink:href="#linearGradient4041" id="linearGradient5437" gradientUnits="userSpaceOnUse" x1="221.07144" y1="489.1479" x2="303.57142" y2="489.1479"/><linearGradient inkscape:collect="always" xlink:href="#linearGradient4041" id="linearGradient5439" gradientUnits="userSpaceOnUse" x1="213.57144" y1="509.68361" x2="260.5357" y2="509.68361"/><linearGradient inkscape:collect="always" xlink:href="#linearGradient4041" id="linearGradient5441" gradientUnits="userSpaceOnUse" x1="206.60715" y1="527.8979" x2="255.17856" y2="527.8979"/><linearGradient inkscape:collect="always" xlink:href="#linearGradient4041" id="linearGradient5443" gradientUnits="userSpaceOnUse" x1="191.25002" y1="573.43361" x2="241.25" y2="573.43361"/><linearGradient inkscape:collect="always" xlink:href="#linearGradient4041" id="linearGradient5445" gradientUnits="userSpaceOnUse" x1="184.28573" y1="592.00504" x2="342.32143" y2="592.00504"/><linearGradient inkscape:collect="always" xlink:href="#linearGradient4041" id="linearGradient5447" gradientUnits="userSpaceOnUse" x1="176.60716" y1="612.71933" x2="229.82142" y2="612.71933"/><linearGradient inkscape:collect="always" xlink:href="#linearGradient4041" id="linearGradient5449" gradientUnits="userSpaceOnUse" x1="169.28573" y1="632.8979" x2="222.40824" y2="632.8979"/><linearGradient inkscape:collect="always" xlink:href="#linearGradient4041" id="linearGradient5451" gradientUnits="userSpaceOnUse" x1="265.00001" y1="509.68361" x2="311.24999" y2="509.68361"/><linearGradient inkscape:collect="always" xlink:href="#linearGradient4041" id="linearGradient5453" gradientUnits="userSpaceOnUse" x1="270.26787" y1="527.80861" x2="318.12499" y2="527.80861"/><linearGradient inkscape:collect="always" xlink:href="#linearGradient4041" id="linearGradient5455" gradientUnits="userSpaceOnUse" x1="276.9643" y1="550.57646" x2="326.7857" y2="550.57646"/><linearGradient inkscape:collect="always" xlink:href="#linearGradient4041" id="linearGradient5457" gradientUnits="userSpaceOnUse" x1="283.75" y1="573.25504" x2="335.35712" y2="573.25504"/><linearGradient inkscape:collect="always" xlink:href="#linearGradient4041" id="linearGradient5459" gradientUnits="userSpaceOnUse" x1="296.69644" y1="612.54075" x2="350.08928" y2="612.54075"/><linearGradient inkscape:collect="always" xlink:href="#linearGradient4041" id="linearGradient5461" gradientUnits="userSpaceOnUse" x1="303.57144" y1="633.07646" x2="357.94642" y2="633.07646"/><linearGradient inkscape:collect="always" xlink:href="#linearGradient4041" id="linearGradient5463" gradientUnits="userSpaceOnUse" x1="362.47941" y1="468.25504" x2="410.75512" y2="468.25504"/><linearGradient inkscape:collect="always" xlink:href="#linearGradient4041" id="linearGradient5465" gradientUnits="userSpaceOnUse" x1="362.47941" y1="488.79075" x2="410.75512" y2="488.79075"/><linearGradient inkscape:collect="always" xlink:href="#linearGradient4041" id="linearGradient5467" gradientUnits="userSpaceOnUse" x1="362.47941" y1="509.50504" x2="410.75512" y2="509.50504"/><linearGradient inkscape:collect="always" xlink:href="#linearGradient4041" id="linearGradient5469" gradientUnits="userSpaceOnUse" x1="362.47941" y1="530.21933" x2="410.75512" y2="530.21933"/><linearGradient inkscape:collect="always" xlink:href="#linearGradient4041" id="linearGradient5471" gradientUnits="userSpaceOnUse" x1="362.47941" y1="550.75504" x2="410.75512" y2="550.75504"/><linearGradient inkscape:collect="always" xlink:href="#linearGradient4041" id="linearGradient5473" gradientUnits="userSpaceOnUse" x1="362.47941" y1="571.29075" x2="410.75512" y2="571.29075"/><linearGradient inkscape:collect="always" xlink:href="#linearGradient4041" id="linearGradient5475" gradientUnits="userSpaceOnUse" x1="362.47934" y1="591.64789" x2="412.89798" y2="591.64789"/><linearGradient inkscape:collect="always" xlink:href="#linearGradient4041" id="linearGradient5477" gradientUnits="userSpaceOnUse" x1="366.31235" y1="609.9094" x2="433.34024" y2="609.9094"/><linearGradient inkscape:collect="always" xlink:href="#linearGradient4041" id="linearGradient5479" gradientUnits="userSpaceOnUse" x1="378.63377" y1="633.07647" x2="513.9694" y2="633.07647"/><linearGradient inkscape:collect="always" xlink:href="#linearGradient4041" id="linearGradient5481" gradientUnits="userSpaceOnUse" x1="481.49728" y1="468.25504" x2="530.04084" y2="468.25504"/><linearGradient inkscape:collect="always" xlink:href="#linearGradient4041" id="linearGradient5483" gradientUnits="userSpaceOnUse" x1="481.58656" y1="488.96933" x2="530.04084" y2="488.96933"/><linearGradient inkscape:collect="always" xlink:href="#linearGradient4041" id="linearGradient5485" gradientUnits="userSpaceOnUse" x1="481.49728" y1="509.68362" x2="530.04084" y2="509.68362"/><linearGradient inkscape:collect="always" xlink:href="#linearGradient4041" id="linearGradient5487" gradientUnits="userSpaceOnUse" x1="481.40799" y1="530.21933" x2="530.04084" y2="530.21933"/><linearGradient inkscape:collect="always" xlink:href="#linearGradient4041" id="linearGradient5489" gradientUnits="userSpaceOnUse" x1="481.40799" y1="550.93362" x2="530.04084" y2="550.93362"/><linearGradient inkscape:collect="always" xlink:href="#linearGradient4041" id="linearGradient5491" gradientUnits="userSpaceOnUse" x1="481.40799" y1="571.29076" x2="530.04084" y2="571.29076"/><linearGradient inkscape:collect="always" xlink:href="#linearGradient4041" id="linearGradient5493" gradientUnits="userSpaceOnUse" x1="479.89649" y1="591.6479" x2="530.04084" y2="591.6479"/><linearGradient inkscape:collect="always" xlink:href="#linearGradient4041" id="linearGradient5495" gradientUnits="userSpaceOnUse" x1="459.7897" y1="609.83545" x2="526.65434" y2="609.83545"/></defs><sodipodi:namedview bordercolor="#666666" borderopacity="1.0" gridtolerance="10.0" guidetolerance="10.0" id="base" inkscape:current-layer="Ebene_1" inkscape:cx="-590.31624" inkscape:cy="99.344505" inkscape:guide-bbox="true" inkscape:pageopacity="0.0" inkscape:pageshadow="2" inkscape:window-height="756" inkscape:window-width="1276" inkscape:window-x="0" inkscape:window-y="0" inkscape:zoom="0.53601967" objecttolerance="10.0" pagecolor="#ffffff" showgrid="false" showguides="true" inkscape:snap-global="false" inkscape:window-maximized="0"><sodipodi:guide id="guide13196" orientation="0,1" position="407.62683,73.874118"/><sodipodi:guide id="guide13198" orientation="1,0" position="498.65029,291.53893"/><sodipodi:guide id="guide13200" orientation="0,1" position="294.17729,573.84359"/></sodipodi:namedview>

<g id="g5541"><rect height="500.00003" id="rect2300" style="fill:none;stroke:none" width="500.00003" x="-1.2000816" y="193.14008"/><g transform="matrix(1.0893298,0,0,1.0893298,-126.38865,-212.94504)" id="g4068"><path inkscape:connector-curvature="0" style="fill:url(#linearGradient4078);fill-opacity:1;fill-rule:evenodd;stroke:#2e3436;stroke-width:9.85024071;stroke-linecap:butt;stroke-linejoin:round;stroke-miterlimit:4;stroke-opacity:1;stroke-dasharray:none" inkscape:r_cy="true" inkscape:r_cx="true" id="path3393" d="m 124.94371,404.71031 0,256.25452 366.06976,0 -0.61889,-255.27271 c -1.3e-4,-0.0563 0.004,-0.26712 0,-0.32727 -0.007,-0.0639 0.0108,-0.25963 0,-0.32728 -0.0142,-0.0713 -0.29174,-0.25225 -0.30944,-0.32726 l -365.14143,0 z"/><path inkscape:connector-curvature="0" style="fill:url(#linearGradient4080);fill-opacity:1;fill-rule:evenodd;stroke:none" sodipodi:nodetypes="ccccccc" inkscape:r_cy="true" inkscape:r_cx="true" id="path3395" d="m 265.02854,538.85453 -132.64872,108.19221 137.72731,-94.70582 89.29907,0 122.97514,93.5017 -117.4733,-106.98809 -99.8795,0 z"/><path inkscape:connector-curvature="0" style="fill:none;stroke:#ffffff;stroke-width:9.85023975;stroke-linecap:butt;stroke-linejoin:miter;stroke-miterlimit:4;stroke-opacity:1;stroke-dasharray:none" inkscape:r_cy="true" inkscape:r_cx="true" id="path3397" d="m 135.86968,417.2408 c -0.0661,0.13161 0.0533,0.19384 0,0.31174 -0.0234,0.0555 -0.28842,0.25976 -0.30853,0.31176 -0.0168,0.0484 0.0135,0.26682 0,0.31174 -0.0101,0.0414 0.007,0.27401 0,0.31175 l 0.30853,231.62768 344.932,0 -0.61705,-230.3807 c -0.007,-0.0367 0.0101,-0.27146 0,-0.31175 -0.14472,-0.47441 -0.41298,-1.30407 -0.92558,-2.18222 l -343.38937,0 z"/><path inkscape:connector-curvature="0" style="fill:url(#radialGradient4082);fill-opacity:1;fill-rule:evenodd;stroke:none" inkscape:r_cy="true" inkscape:r_cx="true" id="path3399" d="M 293.13699,577.68631 C 269.44999,573.285 140.35775,437.41104 127.44753,413.75403 c -0.1481,-0.28175 -0.40238,-0.82252 -0.51409,-1.06912 l 341.7537,0 c -2.74368,24.67957 -74.50595,162.75931 -94.67713,165.0014 -0.0809,0.005 -0.21069,0 -0.28986,0 l -79.42368,0 c -0.33296,0 -0.76795,0.0727 -1.15948,0 z"/><path inkscape:connector-curvature="0" style="fill:url(#linearGradient4084);fill-opacity:1;fill-rule:evenodd;stroke:#2e3436;stroke-width:8.43775654;stroke-linecap:butt;stroke-linejoin:round;stroke-miterlimit:4;stroke-opacity:1" inkscape:r_cy="true" inkscape:r_cx="true" id="path3401" d="M 267.8415,558.83917 C 244.39877,554.98226 140.80218,435.91525 132.61623,415.18451 c -0.0917,-0.2469 -0.23673,-0.72078 -0.29851,-0.93687 l 351.94392,0 c -8.15556,21.62682 -111.87884,142.62677 -133.13569,144.59153 -0.0843,0.004 -0.21698,0 -0.29852,0 l -81.79189,0 c -0.34289,0 -0.80656,0.0637 -1.19404,0 z"/><path inkscape:connector-curvature="0" style="fill:url(#linearGradient4086);fill-opacity:1;fill-rule:evenodd;stroke:none" inkscape:r_cy="true" inkscape:r_cx="true" id="path3403" d="m 266.36038,552.97285 c -20.85354,-4.83721 -127.76429,-123.28689 -134.60722,-138.2884 -0.0251,-0.0591 0.0216,-0.26317 0,-0.31864 -0.054,-0.15537 -0.28812,-0.51571 -0.30944,-0.63727 2.8e-4,-0.0329 -0.004,-0.28968 0,-0.31865 0.0116,-0.0211 0.29404,0.0172 0.30944,0 l 0.92833,-0.9559 351.21653,0 c -0.0269,0.23987 -0.22462,0.65941 -0.30944,0.9559 -0.0743,0.23277 -0.20369,0.69256 -0.30944,0.95592 -9.13074,21.50571 -113.95371,135.74775 -132.13169,138.60704 -0.14781,0.0162 -0.48369,0 -0.61888,0 l -82.93042,0 c -0.29991,-0.0165 -0.88876,0.0809 -1.23777,0 z"/><path inkscape:connector-curvature="0" style="fill:none;stroke:url(#linearGradient4088);stroke-width:8.43775463;stroke-linecap:butt;stroke-linejoin:miter;stroke-miterlimit:4;stroke-opacity:1" inkscape:r_cy="true" inkscape:r_cx="true" id="path3405" d="M 268.83591,548.64064 C 244.59588,543.22245 148.31524,434.08572 136.70423,414.53996 l 342.55217,0 c -14.75605,23.00686 -109.3857,132.25055 -130.27504,134.10068 -0.0866,0.004 -0.22559,0 -0.30944,0 l -78.2888,0 c -0.26135,0 -0.64247,0.0351 -0.92832,0 -0.19593,-0.0311 -0.41242,0.0462 -0.61889,0 z"/><path inkscape:connector-curvature="0" style="fill:url(#linearGradient4090);fill-opacity:1;fill-rule:evenodd;stroke:none" sodipodi:nodetypes="cccccc" inkscape:r_cy="true" inkscape:r_cx="true" id="path3407" d="m 269.67103,552.54523 -118.2464,81.55698 21.97714,0.0602 99.00283,-67.73301 87.35578,-14.03028 -90.08935,0.14609 z"/></g><g transform="matrix(0.82653659,0,0,0.82653659,53.907615,138.05017)" id="g4127"><path style="fill:#204a87;stroke:none" d="m 362.5,450.75504 0,140.53571 c 5.68659,33.19602 20.83915,49.32027 48.21429,59.82144 l 71.42857,0 C 519.02794,634.76533 524.76936,615.29023 530,595.21932 l 0,-144.82142 -48.57143,0 0,139.82142 c -8.11053,32.23534 -59.6547,36.08073 -70.71428,-1.42857 l 0,-138.21429 z" id="path3778" inkscape:connector-curvature="0" sodipodi:nodetypes="ccccccccccc"/><path style="fill:#204a87;stroke:none" d="m 58.59375,450.3125 0,200.89286 51.5,0 0,-81.70536 83.84375,0 -30.28125,81.84375 51.34375,0 15,-42.5625 66.4375,0 14.28125,42.50446 52.84375,0 -75.71875,-200.70535 -51.40625,0 -30,81.07589 -96.27237,0 0,-45 102.67862,0 0,-36.07143 z m 204.25,49.1875 22.86607,77.75893 -46.50892,-0.0893 z" id="path3774" inkscape:connector-curvature="0" sodipodi:nodetypes="ccccccccccccccccccccccc"/><path style="fill:url(#linearGradient5417);fill-opacity:1;stroke:none" d="m 58.928572,464.50504 153.749988,0 0,7.5 -153.749988,0 z" id="rect3854" inkscape:connector-curvature="0"/><path inkscape:connector-curvature="0" id="path3857" d="m 58.928572,487.21933 51.249988,0 0,7.5 -51.249988,0 z" style="fill:url(#linearGradient5419);fill-opacity:1;stroke:none"/><path style="fill:url(#linearGradient5421);fill-opacity:1;stroke:none" d="m 58.928572,505.75504 51.249988,0 0,7.5 -51.249988,0 z" id="path3859" inkscape:connector-curvature="0"/><path inkscape:connector-curvature="0" id="path3861" d="m 58.928572,523.93361 51.249988,0 0,7.5 -51.249988,0 z" style="fill:url(#linearGradient5423);fill-opacity:1;stroke:none"/><path style="fill:url(#linearGradient5425);fill-opacity:1;stroke:none" d="m 58.928572,547.18361 189.285708,0 -2.14286,7.5 -187.142848,0 z" id="path3863" inkscape:connector-curvature="0" sodipodi:nodetypes="ccccc"/><path inkscape:connector-curvature="0" id="path3865" d="m 58.928572,569.36218 51.249988,0 0,7.5 -51.249988,0 z" style="fill:url(#linearGradient5427);fill-opacity:1;stroke:none"/><path style="fill:url(#linearGradient5429);fill-opacity:1;stroke:none" d="m 58.928572,587.89789 51.249988,0 0,7.5 -51.249988,0 z" id="path3867" inkscape:connector-curvature="0"/><path inkscape:connector-curvature="0" id="path3869" d="m 58.928572,608.79075 51.249988,0 0,7.5 -51.249988,0 z" style="fill:url(#linearGradient5431);fill-opacity:1;stroke:none"/><path style="fill:url(#linearGradient5433);fill-opacity:1;stroke:none" d="m 58.928572,629.14789 51.249988,0 0,7.5 -51.249988,0 z" id="path3871" inkscape:connector-curvature="0"/><path inkscape:connector-curvature="0" id="path3873" d="m 231.60715,464.50504 61.07141,0 2.85714,7.5 -66.78569,0 z" style="fill:url(#linearGradient5435);fill-opacity:1;stroke:none" sodipodi:nodetypes="ccccc"/><path style="fill:url(#linearGradient5437);fill-opacity:1;stroke:none" d="m 223.92858,485.3979 76.7857,0 2.85714,7.5 -82.49998,0 z" id="path3875" inkscape:connector-curvature="0" sodipodi:nodetypes="ccccc"/><path inkscape:connector-curvature="0" id="path3877" d="m 216.3939,505.93361 44.1418,0 -2.32142,7.5 -44.64284,0 z" style="fill:url(#linearGradient5439);fill-opacity:1;stroke:none" sodipodi:nodetypes="ccccc"/><path style="fill:url(#linearGradient5441);fill-opacity:1;stroke:none" d="m 209.46429,524.1479 45.71427,0 -2.32143,7.5 -46.24998,0 z" id="path3879" inkscape:connector-curvature="0" sodipodi:nodetypes="ccccc"/><path inkscape:connector-curvature="0" id="path3881" d="m 194.0569,569.68361 47.1931,0 -2.32143,7.5 -47.67855,0 z" style="fill:url(#linearGradient5443);fill-opacity:1;stroke:none" sodipodi:nodetypes="ccccc"/><path style="fill:url(#linearGradient5445);fill-opacity:1;stroke:none" d="m 187.14287,588.25504 152.3214,0 2.85716,7.5 -158.0357,0 z" id="path3883" inkscape:connector-curvature="0" sodipodi:nodetypes="ccccc"/><path inkscape:connector-curvature="0" id="path3885" d="m 179.64287,608.96933 50.17855,0 -2.67857,7.5 -50.53569,0 z" style="fill:url(#linearGradient5447);fill-opacity:1;stroke:none" sodipodi:nodetypes="ccccc"/><path style="fill:url(#linearGradient5449);fill-opacity:1;stroke:none" d="m 172.14288,629.1479 50.26536,0 -2.5,7.5 -50.62251,0 z" id="path3887" inkscape:connector-curvature="0" sodipodi:nodetypes="ccccc"/><path sodipodi:nodetypes="ccccc" style="fill:url(#linearGradient5451);fill-opacity:1;stroke:none" d="m 308.42753,505.93361 -43.42752,0 2.32143,7.5 43.92855,0 z" id="path3897" inkscape:connector-curvature="0"/><path inkscape:connector-curvature="0" id="path3899" d="m 315.4811,524.05861 -45.21323,0 2.14286,7.5 45.71426,0 z" style="fill:url(#linearGradient5453);fill-opacity:1;stroke:none" sodipodi:nodetypes="ccccc"/><path sodipodi:nodetypes="ccccc" style="fill:url(#linearGradient5455);fill-opacity:1;stroke:none" d="m 323.9141,546.82646 -46.9498,0 2.18932,7.5 47.63208,0 z" id="path3901" inkscape:connector-curvature="0"/><path inkscape:connector-curvature="0" id="path3903" d="m 332.58546,569.50504 -48.83546,0 2.08511,7.5 49.52201,0 z" style="fill:url(#linearGradient5457);fill-opacity:1;stroke:none" sodipodi:nodetypes="ccccc"/><path sodipodi:nodetypes="ccccc" style="fill:url(#linearGradient5459);fill-opacity:1;stroke:none" d="m 347.23981,608.79075 -50.54337,0.17857 2.51095,7.32143 50.88189,0 z" id="path3905" inkscape:connector-curvature="0"/><path inkscape:connector-curvature="0" id="path3907" d="m 355.1674,629.32646 -51.59596,0 2.43461,7.5 51.94037,0 z" style="fill:url(#linearGradient5461);fill-opacity:1;stroke:none" sodipodi:nodetypes="ccccc"/><path inkscape:connector-curvature="0" id="path3909" d="m 362.47941,464.50504 48.27571,0 0,7.5 -48.27571,0 z" style="fill:url(#linearGradient5463);fill-opacity:1;stroke:none"/><path style="fill:url(#linearGradient5465);fill-opacity:1;stroke:none" d="m 362.47941,485.04075 48.27571,0 0,7.5 -48.27571,0 z" id="path3911" inkscape:connector-curvature="0"/><path inkscape:connector-curvature="0" id="path3913" d="m 362.47941,505.75504 48.27571,0 0,7.5 -48.27571,0 z" style="fill:url(#linearGradient5467);fill-opacity:1;stroke:none"/><path style="fill:url(#linearGradient5469);fill-opacity:1;stroke:none" d="m 362.47941,526.46933 48.27571,0 0,7.5 -48.27571,0 z" id="path3915" inkscape:connector-curvature="0"/><path inkscape:connector-curvature="0" id="path3917" d="m 362.47941,547.00504 48.27571,0 0,7.5 -48.27571,0 z" style="fill:url(#linearGradient5471);fill-opacity:1;stroke:none"/><path style="fill:url(#linearGradient5473);fill-opacity:1;stroke:none" d="m 362.47941,567.54075 48.27571,0 0,7.5 -48.27571,0 z" id="path3919" inkscape:connector-curvature="0"/><path inkscape:connector-curvature="0" id="path3921" d="m 362.47941,587.89789 48.27571,0 c -0.2676,2.30362 0.73774,3.47287 2.14286,7.5 l -49.49508,0 c -0.6678,-2.5 -0.92843,-5 -0.92349,-7.5 z" style="fill:url(#linearGradient5475);fill-opacity:1;stroke:none" sodipodi:nodetypes="ccccc"/><path style="fill:url(#linearGradient5477);fill-opacity:1;stroke:none" d="m 366.31235,606.1594 54.7962,0 c 2.80386,3.13775 7.6475,5.73349 12.23169,7.5 l -64.31802,0 c -1.08195,-2.45276 -1.73523,-4.61477 -2.70987,-7.5 z" id="path3923" inkscape:connector-curvature="0" sodipodi:nodetypes="ccccc"/><path inkscape:connector-curvature="0" id="path3925" d="m 378.63377,629.32647 135.33563,0 c -2.49815,2.41508 -4.11145,4.47622 -8.13135,7.5 l -119.88285,0 c -2.28445,-2.00219 -4.61058,-3.91854 -7.32143,-7.5 z" style="fill:url(#linearGradient5479);fill-opacity:1;stroke:none" sodipodi:nodetypes="ccccc"/><path style="fill:url(#linearGradient5481);fill-opacity:1;stroke:none" d="m 481.49728,464.50504 48.54356,0 0,7.5 -48.54356,0 z" id="path3927" inkscape:connector-curvature="0"/><path inkscape:connector-curvature="0" id="path3929" d="m 481.58656,485.21933 48.45428,0 0,7.5 -48.45428,0 z" style="fill:url(#linearGradient5483);fill-opacity:1;stroke:none"/><path style="fill:url(#linearGradient5485);fill-opacity:1;stroke:none" d="m 481.49728,505.93362 48.54356,0 0,7.5 -48.54356,0 z" id="path3931" inkscape:connector-curvature="0"/><path inkscape:connector-curvature="0" id="path3933" d="m 481.40799,526.46933 48.63285,0 0,7.5 -48.63285,0 z" style="fill:url(#linearGradient5487);fill-opacity:1;stroke:none"/><path style="fill:url(#linearGradient5489);fill-opacity:1;stroke:none" d="m 481.40799,547.18362 48.63285,0 0,7.5 -48.63285,0 z" id="path3935" inkscape:connector-curvature="0"/><path inkscape:connector-curvature="0" id="path3937" d="m 481.40799,567.54076 48.63285,0 0,7.5 -48.63285,0 z" style="fill:url(#linearGradient5491);fill-opacity:1;stroke:none"/><path style="fill:url(#linearGradient5493);fill-opacity:1;stroke:none" d="m 481.22942,587.8979 48.81142,0 0,7.5 -50.14435,0 c 1.25646,-3.5052 2.0586,-4.92373 1.33293,-7.5 z" id="path3939" inkscape:connector-curvature="0" sodipodi:nodetypes="ccccc"/><path inkscape:connector-curvature="0" id="path3941" d="m 472.11703,606.08545 54.53731,0 c -0.59685,2.18499 -1.72245,5.44777 -2.78953,7.5 l -64.07511,0 c 5.28588,-2.16676 9.07567,-4.42152 12.32733,-7.5 z" style="fill:url(#linearGradient5495);fill-opacity:1;stroke:none" sodipodi:nodetypes="ccccc"/></g></g></svg>
