<?xml version="1.0" encoding="UTF-8" standalone="no"?>
<!-- Created with Inkscape (http://www.inkscape.org/) -->
<svg xmlns:dc="http://purl.org/dc/elements/1.1/" xmlns:cc="http://creativecommons.org/ns#" xmlns:rdf="http://www.w3.org/1999/02/22-rdf-syntax-ns#" xmlns:svg="http://www.w3.org/2000/svg" xmlns="http://www.w3.org/2000/svg" xmlns:xlink="http://www.w3.org/1999/xlink" xmlns:sodipodi="http://sodipodi.sourceforge.net/DTD/sodipodi-0.dtd" xmlns:inkscape="http://www.inkscape.org/namespaces/inkscape" width="210mm" height="297mm" id="svg2987" version="1.1" inkscape:version="0.48.2 r9819">
  <title id="title3862">groovy</title>
  <defs id="defs3">
    <linearGradient inkscape:collect="always" id="linearGradient3830">
      <stop style="stop-color:#ffffff;stop-opacity:1;" offset="0" id="stop3832"/>
      <stop style="stop-color:#ffffff;stop-opacity:0;" offset="1" id="stop3834"/>
    </linearGradient>
    <linearGradient inkscape:collect="always" xlink:href="#linearGradient3830" id="linearGradient3836" x1="211.60064" y1="503.84935" x2="636.9275" y2="503.84935" gradientUnits="userSpaceOnUse"/>
    <linearGradient inkscape:collect="always" xlink:href="#linearGradient3830" id="linearGradient3860" gradientUnits="userSpaceOnUse" x1="211.60064" y1="503.84935" x2="636.9275" y2="503.84935"/>
  </defs>
  <sodipodi:namedview inkscape:document-units="mm" id="base" pagecolor="#ffffff" bordercolor="#666666" borderopacity="1.0" inkscape:pageopacity="0.0" inkscape:pageshadow="2" inkscape:zoom="0.49497475" inkscape:cx="420.2056" inkscape:cy="578.57143" inkscape:current-layer="layer1" showgrid="false" inkscape:window-width="1262" inkscape:window-height="662" inkscape:window-x="20" inkscape:window-y="20" inkscape:window-maximized="0" showguides="true" inkscape:guide-bbox="true" inkscape:snap-global="false">
    <sodipodi:guide orientation="0,1" position="-78.791898,943.48248" id="guide3840"/>
    <sodipodi:guide orientation="0,1" position="-52.527932,234.35539" id="guide3842"/>
    <sodipodi:guide orientation="1,0" position="731.35044,187.88837" id="guide3844"/>
    <sodipodi:guide orientation="1,0" position="22.223356,181.82746" id="guide3846"/>
  </sodipodi:namedview>
  <metadata id="metadata4">
    <rdf:RDF>
      <cc:Work rdf:about="">
        <dc:format>image/svg+xml</dc:format>
        <dc:type rdf:resource="http://purl.org/dc/dcmitype/StillImage"/>
        <dc:title>groovy</dc:title>
        <dc:date>Feb 2015</dc:date>
        <dc:creator>
          <cc:Agent>
            <dc:title>Franziska Sponsel</dc:title>
          </cc:Agent>
        </dc:creator>
        <dc:rights>
          <cc:Agent>
            <dc:title>Franziska Sponsel</dc:title>
          </cc:Agent>
        </dc:rights>
        <dc:publisher>
          <cc:Agent>
            <dc:title>RRZE</dc:title>
          </cc:Agent>
        </dc:publisher>
        <dc:subject>
          <rdf:Bag>
            <rdf:li>logo</rdf:li>
            <rdf:li>groovy</rdf:li>
          </rdf:Bag>
        </dc:subject>
        <dc:contributor>
          <cc:Agent>
            <dc:title>Hendrik Eggers</dc:title>
          </cc:Agent>
        </dc:contributor>
        <cc:license rdf:resource="http://creativecommons.org/licenses/by-sa/3.0/"/>
      </cc:Work>
      <cc:License rdf:about="http://creativecommons.org/licenses/by-sa/3.0/">
        <cc:permits rdf:resource="http://creativecommons.org/ns#Reproduction"/>
        <cc:permits rdf:resource="http://creativecommons.org/ns#Distribution"/>
        <cc:requires rdf:resource="http://creativecommons.org/ns#Notice"/>
        <cc:requires rdf:resource="http://creativecommons.org/ns#Attribution"/>
        <cc:permits rdf:resource="http://creativecommons.org/ns#DerivativeWorks"/>
        <cc:requires rdf:resource="http://creativecommons.org/ns#ShareAlike"/>
      </cc:License>
    </rdf:RDF>
  </metadata>
  <g inkscape:label="Layer 1" inkscape:groupmode="layer" id="layer1">
    <g id="g3848" transform="matrix(1.4386149,0,0,1.4386149,-233.56574,-275.47094)">
      <path inkscape:connector-curvature="0" id="path3023" d="m 271.73103,623.04735 64.64977,-102.02541 -153.54319,-48.48732 186.87822,0 53.53809,-87.88327 50.50762,85.86297 191.92899,2.0203 -152.53304,53.53809 56.56855,93.94418 -149.50258,-56.56854 z" style="fill:#3465a4;stroke:#000000;stroke-width:10;stroke-linecap:butt;stroke-linejoin:round;stroke-miterlimit:4;stroke-opacity:1;stroke-dasharray:none"/>
      <path style="opacity:0.6896552;fill:url(#linearGradient3860);fill-opacity:1;stroke:#729fcf;stroke-width:6.07792234;stroke-linecap:butt;stroke-linejoin:miter;stroke-miterlimit:4;stroke-opacity:1;stroke-dasharray:none" d="m 291.8235,607.34595 56.13376,-88.58608 -133.31766,-42.10031 162.26162,0 46.48576,-76.30681 43.85449,74.55264 166.64707,1.75417 -132.44057,46.48577 49.11704,81.56935 -129.8093,-49.11703 z" id="path3828" inkscape:connector-curvature="0"/>
      <path sodipodi:nodetypes="csccccsscccscssscc" inkscape:connector-curvature="0" id="path3814" d="m 341.43156,477.08031 c 0,0 6.04704,-10.61648 12.12183,-9.09137 4.16313,1.04517 8.5863,9.59644 8.5863,9.59644 0.104,-9.38844 5.19197,-8.80896 9.09137,-10.60659 3.84028,0.26426 6.58467,3.81622 9.09137,8.08121 l 8.08122,-9.09137 c 0,0 5.35389,2.61738 4.04061,13.13198 -0.84217,6.74272 -3.31668,9.83487 -9.09137,15.15229 -4.59177,4.22816 -12.9381,6.94344 -17.67767,1.51523 l 5.55584,11.61675 12.12183,-6.56599 c 0,0 4.96948,-0.29114 5.55584,2.52538 2.2247,10.68607 2.7741,24.30175 1.01015,29.7995 -12.3275,7.36239 -15.42518,6.4546 -22.22336,5.05076 -5.71398,-1.17995 -9.20801,-10.09742 -12.12183,-15.15228 -4.55041,-7.894 -1.86042,-22.2227 -7.57614,-31.31473 -1.27351,-2.02579 -5.55584,-4.54569 -5.55584,-4.54569 z" style="fill:#eeeeec;stroke:#000000;stroke-width:10;stroke-linecap:butt;stroke-linejoin:round;stroke-miterlimit:4;stroke-opacity:1;stroke-dasharray:none"/>
      <path sodipodi:nodetypes="csssssscssssscssssc" inkscape:connector-curvature="0" id="path3025" d="m 332.14286,459.50504 c 0,0 10.15507,23.55693 12.77048,34.24981 2.61542,10.69289 6.95798,26.85923 2.9438,33.65809 -5.63662,9.54683 -9.68943,14.53281 -16.70957,18.22481 -11.84001,6.22685 -46.47585,18.14145 -49.33648,13.153 -4.91846,-8.57697 -12.16704,-13.44127 -19.66823,-28.57143 -3.12354,-6.30029 41.82386,-12.76466 51.88288,-21.51523 10.05903,-8.75057 11.81109,-19.37237 11.81109,-19.37237 6.11759,13.30078 -42.81026,40.10425 -54.40826,29.45903 -9.8708,-9.05991 -14.93172,-13.45187 -15,-27.14285 -0.0683,-13.69098 13.31043,-32.11225 24.28572,-45 10.97529,-12.88775 27.21192,-34.25352 40,-30.71429 12.78808,3.53923 12.12759,14.29254 12.22951,24.61748 0.10191,10.32493 -13.44888,37.78535 -13.44888,37.78535 0,0 -8.41945,19.46131 -25.49021,21.84699 -17.26391,2.41268 -15.6777,-9.4202 -14.12726,-19.82669 1.55044,-10.40649 15.9165,-32.38384 23.06635,-36.7752 7.14985,-4.39135 7.59461,-12.89853 12.43872,-7.69869 4.84411,5.19983 -12.40283,39.59645 -12.40283,39.59645" style="fill:#eeeeec;stroke:#000000;stroke-width:10;stroke-linecap:round;stroke-linejoin:round;stroke-miterlimit:4;stroke-opacity:1;stroke-dasharray:none"/>
      <path sodipodi:nodetypes="sssssssss" inkscape:connector-curvature="0" id="path3816" d="m 409.61685,465.46356 c 4.43448,-2.41778 10.75741,-3.2453 15.65737,-2.02031 5.55329,1.38832 8.95236,4.32473 12.12183,9.09137 4.02576,6.05443 6.34667,13.94814 6.06092,21.21321 -0.34918,8.87794 -0.84682,16.54462 -6.06092,23.73857 -5.48063,7.5617 -13.91771,14.29474 -23.23351,13.63707 -9.13696,-0.64504 -16.16009,-3.16787 -19.69797,-11.61675 -3.94529,-9.42186 -2.59462,-23.77772 1.01015,-33.33504 3.18077,-8.43318 6.22881,-16.3936 14.14213,-20.70812 z" style="fill:#eeeeec;stroke:#000000;stroke-width:10;stroke-linecap:butt;stroke-linejoin:miter;stroke-miterlimit:4;stroke-opacity:1;stroke-dasharray:none"/>
      <path sodipodi:nodetypes="sssssssssss" inkscape:connector-curvature="0" id="path3818" d="m 443.45697,476.57523 c 1.62296,-4.22936 5.37635,-7.5092 9.09137,-10.10152 4.46111,-3.11293 9.74729,-6.67562 15.15229,-6.06092 7.33177,0.83382 13.51794,6.90942 18.18274,12.62691 4.86334,5.96084 8.51977,13.54137 9.09138,21.2132 0.54311,7.28936 -1.44992,15.1658 -5.55584,21.2132 -3.99105,5.87821 -10.21208,11.20102 -17.17259,12.62691 -7.96136,1.63092 -16.99576,-1.01961 -23.73859,-5.55584 -4.10839,-2.76392 -7.61661,-7.26613 -8.5863,-12.12183 -1.04781,-5.24692 2.94263,-10.33979 3.53554,-15.65736 0.67163,-6.02359 -2.17141,-12.52415 0,-18.18275 z" style="fill:#eeeeec;stroke:#000000;stroke-width:10;stroke-linecap:butt;stroke-linejoin:miter;stroke-miterlimit:4;stroke-opacity:1;stroke-dasharray:none"/>
      <path sodipodi:nodetypes="csssc" inkscape:connector-curvature="0" id="path3820" d="m 410.12194,493.24275 c 0,0 3.2842,6.62379 7.57614,6.56599 4.16799,-0.0561 9.3561,-2.78535 11.11168,-6.56599 1.27829,-2.75282 1.64478,-6.27835 0.50508,-9.09137 -1.11847,-2.76061 -6.566,-6.06091 -6.566,-6.06091" style="fill:none;stroke:#000000;stroke-width:10;stroke-linecap:round;stroke-linejoin:round;stroke-miterlimit:4;stroke-opacity:1;stroke-dasharray:none"/>
      <path sodipodi:nodetypes="csssc" inkscape:connector-curvature="0" id="path3822" d="m 457.09402,485.6666 c 0,0 2.9309,7.22905 6.06092,9.09137 3.19621,1.90171 7.86261,2.82006 11.11167,1.01015 2.63102,-1.46562 4.41417,-5.09278 4.04061,-8.08122 -0.60702,-4.8562 -9.59644,-11.11167 -9.59644,-11.11167" style="fill:none;stroke:#000000;stroke-width:10;stroke-linecap:round;stroke-linejoin:round;stroke-miterlimit:4;stroke-opacity:1;stroke-dasharray:none"/>
      <path sodipodi:nodetypes="ccccccscssssscscsscssc" inkscape:connector-curvature="0" id="path3826" d="m 530.83516,471.01939 c 2.42041,-8.64764 6.39882,-6.38936 10.10153,-6.06091 6.02954,3.76267 10.24222,13.12044 13.63705,22.72843 l 5.55585,19.1929 c 4.53785,-0.35239 4.55351,-3.18318 5.05076,-11.61676 l -9.09137,-27.27412 c 0,0 4.33129,-3.95822 7.07106,-4.54568 3.32918,-0.71385 10.10153,1.51523 10.10153,1.51523 0,0 7.44326,22.71173 10.10153,34.34518 3.23077,14.13888 8.78569,28.5299 7.07106,42.93149 -1.12382,9.43927 -5.00374,18.98 -11.11167,26.26396 -4.77084,5.68942 -11.59528,9.92499 -18.68783,12.12183 -12.70892,3.93645 -27.11952,4.70416 -39.90102,1.01016 -3.49896,-1.01124 -9.09138,-6.06092 -9.09138,-6.06092 0,0 6.56794,-6.88833 8.5863,-11.11168 3.13423,-6.55828 5.05076,-21.2132 5.05076,-21.2132 0,0 10.64399,6.5953 16.66752,7.57614 8.01932,1.30582 17.34398,1.76521 24.24366,-2.52538 4.56161,-2.83665 8.5863,-13.63706 8.5863,-13.63706 0,0 -7.03842,16.0374 -15.65736,14.64721 -6.87116,-1.10827 -10.40261,-9.89933 -13.63706,-16.16244 -2.47328,-4.78917 -4.04062,-15.65736 -4.04062,-15.65736" style="fill:#eeeeec;stroke:#000000;stroke-width:10;stroke-linecap:round;stroke-linejoin:round;stroke-miterlimit:4;stroke-opacity:1;stroke-dasharray:none"/>
      <path sodipodi:nodetypes="ccsssssssssscc" inkscape:connector-curvature="0" id="path3824" d="m 520.22856,479.60569 1.01015,6.06091 c 0,0 5.37604,9.43018 1.01015,12.62692 -3.83487,2.80792 -5.35989,2.47997 -8.58629,-1.01016 -5.78242,-6.25507 -13.96676,-16.93765 -12.12183,-25.25381 0.95435,-4.30178 4.76124,-8.78033 9.09137,-9.59645 6.21689,-1.17172 12.64627,3.66138 17.1726,8.08122 6.46435,6.31227 9.98324,15.46533 12.12183,24.24366 2.7898,11.45139 3.01292,20.93803 -1.51524,31.81981 -2.60738,6.2659 -5.97047,13.32355 -12.6269,14.6472 -5.85673,1.16463 -13.40832,-2.39103 -17.67767,-6.56599 -6.52784,-6.38349 -6.66233,-13.57739 -9.59645,-22.22335 -4.47498,-13.18637 -10.6066,-40.4061 -10.6066,-40.4061 1.9609,-7.69988 5.96996,-8.23122 10.6066,-6.566" style="fill:#eeeeec;stroke:#000000;stroke-width:10;stroke-linecap:round;stroke-linejoin:round;stroke-miterlimit:4;stroke-opacity:1;stroke-dasharray:none"/>
    </g>
    <rect style="opacity:0.68965520000000002;fill:none;fill-opacity:1;stroke:none;stroke-width:7;stroke-linecap:round;stroke-linejoin:miter;stroke-miterlimit:4;stroke-opacity:1;stroke-dasharray:none" id="rect3838" width="709.12708" height="709.12708" x="22.223356" y="108.87971"/>
  </g>
</svg>
