<?xml version="1.0" encoding="UTF-8" standalone="no"?>
<!-- Created with Inkscape (http://www.inkscape.org/) -->

<svg
   xmlns:dc="http://purl.org/dc/elements/1.1/"
   xmlns:cc="http://creativecommons.org/ns#"
   xmlns:rdf="http://www.w3.org/1999/02/22-rdf-syntax-ns#"
   xmlns:svg="http://www.w3.org/2000/svg"
   xmlns="http://www.w3.org/2000/svg"
   xmlns:xlink="http://www.w3.org/1999/xlink"
   xmlns:sodipodi="http://sodipodi.sourceforge.net/DTD/sodipodi-0.dtd"
   xmlns:inkscape="http://www.inkscape.org/namespaces/inkscape"
   width="210mm"
   height="297mm"
   viewBox="0 0 744.09448819 1052.3622047"
   id="svg2"
   version="1.1"
   inkscape:version="0.91 r13725"
   inkscape:export-xdpi="162.03"
   inkscape:export-ydpi="162.03"
   sodipodi:docname="icinga2.svg"
   inkscape:export-filename="C:\Users\johannes\Documents\Arbeit\RRZE\github3\tango\720x720\logos\icinga2.png">
  <title
     id="title4247">icinga</title>
  <defs
     id="defs4">
    <linearGradient
       inkscape:collect="always"
       id="linearGradient4259">
      <stop
         style="stop-color:#eeeeec;stop-opacity:0.71834625"
         offset="0"
         id="stop4261" />
      <stop
         style="stop-color:#eeeeec;stop-opacity:0"
         offset="1"
         id="stop4263" />
    </linearGradient>
    <linearGradient
       id="linearGradient2224">
      <stop
         id="stop2226"
         offset="0"
         style="stop-color:#7c7c7c;stop-opacity:1;" />
      <stop
         id="stop2228"
         offset="1"
         style="stop-color:#b8b8b8;stop-opacity:1;" />
    </linearGradient>
    <linearGradient
       id="linearGradient15218">
      <stop
         id="stop15220"
         offset="0"
         style="stop-color:#eeeeef;stop-opacity:1;" />
      <stop
         id="stop2736"
         offset="0.59928656"
         style="stop-color:#d3d7cf;stop-opacity:1;" />
      <stop
         id="stop2738"
         offset="0.82758623"
         style="stop-color:#ffffff;stop-opacity:1;" />
      <stop
         id="stop15222"
         offset="1"
         style="stop-color:#d3d7cf;stop-opacity:1;" />
    </linearGradient>
    <pattern
       y="0"
       x="0"
       height="6"
       width="6"
       patternUnits="userSpaceOnUse"
       id="EMFhbasepattern" />
    <pattern
       y="0"
       x="0"
       height="6"
       width="6"
       patternUnits="userSpaceOnUse"
       id="EMFhbasepattern-2" />
    <pattern
       y="0"
       x="0"
       height="6"
       width="6"
       patternUnits="userSpaceOnUse"
       id="EMFhbasepattern-5" />
    <linearGradient
       inkscape:collect="always"
       id="linearGradient4167">
      <stop
         style="stop-color:#4e505d;stop-opacity:1;"
         offset="0"
         id="stop4169" />
      <stop
         style="stop-color:#7a8597;stop-opacity:1"
         offset="1"
         id="stop4171" />
    </linearGradient>
    <linearGradient
       inkscape:collect="always"
       xlink:href="#linearGradient4167"
       id="linearGradient4190"
       x1="367"
       y1="585.36218"
       x2="426"
       y2="450.36221"
       gradientUnits="userSpaceOnUse"
       gradientTransform="matrix(0.875,0,0,0.875,47.75,66.295273)" />
    <linearGradient
       id="linearGradient3804">
      <stop
         style="stop-color:#ffffff;stop-opacity:1;"
         offset="0"
         id="stop3806" />
      <stop
         style="stop-color:#ffffff;stop-opacity:0;"
         offset="1"
         id="stop3808" />
    </linearGradient>
    <linearGradient
       inkscape:collect="always"
       xlink:href="#linearGradient4167"
       id="linearGradient4175"
       x1="0"
       y1="306"
       x2="612"
       y2="306"
       gradientUnits="userSpaceOnUse" />
    <linearGradient
       id="linearGradient4761">
      <stop
         id="stop4769"
         offset="0"
         style="stop-color:#ffffff;stop-opacity:1;" />
      <stop
         id="stop4775"
         offset="0.50370371"
         style="stop-color:#ffffff;stop-opacity:1;" />
      <stop
         id="stop4771"
         offset="1"
         style="stop-color:#ffffff;stop-opacity:0.06666667;" />
    </linearGradient>
    <linearGradient
       inkscape:collect="always"
       xlink:href="#linearGradient4254"
       id="linearGradient4298"
       gradientUnits="userSpaceOnUse"
       x1="358.43118"
       y1="465.73074"
       x2="429.96555"
       y2="644.62878" />
    <linearGradient
       inkscape:collect="always"
       id="linearGradient4254">
      <stop
         style="stop-color:#7a8597;stop-opacity:1"
         offset="0"
         id="stop4256" />
      <stop
         style="stop-color:#4e505d;stop-opacity:1"
         offset="1"
         id="stop4258" />
    </linearGradient>
    <linearGradient
       inkscape:collect="always"
       xlink:href="#linearGradient4254"
       id="linearGradient4300"
       gradientUnits="userSpaceOnUse"
       gradientTransform="translate(0.37005758,-0.39466108)"
       x1="380.01031"
       y1="330.40619"
       x2="414.6156"
       y2="457.18103" />
    <pattern
       y="0"
       x="0"
       height="6"
       width="6"
       patternUnits="userSpaceOnUse"
       id="EMFhbasepattern-0" />
    <pattern
       y="0"
       x="0"
       height="6"
       width="6"
       patternUnits="userSpaceOnUse"
       id="EMFhbasepattern-6" />
    <linearGradient
       id="linearGradient8488">
      <stop
         id="stop8490"
         offset="0"
         style="stop-color:#ffffff;stop-opacity:0;" />
      <stop
         id="stop8492"
         offset="0.49027923"
         style="stop-color:#ffffff;stop-opacity:1;" />
      <stop
         id="stop8494"
         offset="0.9375"
         style="stop-color:#ffffff;stop-opacity:0.43333334;" />
      <stop
         id="stop8496"
         offset="1"
         style="stop-color:#ffffff;stop-opacity:0;" />
    </linearGradient>
    <pattern
       y="0"
       x="0"
       height="6"
       width="6"
       patternUnits="userSpaceOnUse"
       id="EMFhbasepattern-9" />
    <linearGradient
       inkscape:collect="always"
       xlink:href="#linearGradient4259"
       id="linearGradient4265"
       x1="245.90056"
       y1="702.92651"
       x2="457.7847"
       y2="228.47864"
       gradientUnits="userSpaceOnUse"
       gradientTransform="matrix(0.95595882,0,0,0.95595882,17.14658,22.40823)" />
  </defs>
  <sodipodi:namedview
     id="base"
     pagecolor="#ffffff"
     bordercolor="#666666"
     borderopacity="1.0"
     inkscape:pageopacity="0.0"
     inkscape:pageshadow="2"
     inkscape:zoom="0.70710678"
     inkscape:cx="247.64739"
     inkscape:cy="468.88094"
     inkscape:document-units="px"
     inkscape:current-layer="layer1"
     showgrid="false"
     showguides="true"
     inkscape:guide-bbox="true"
     inkscape:window-width="1366"
     inkscape:window-height="721"
     inkscape:window-x="-4"
     inkscape:window-y="-4"
     inkscape:window-maximized="1"
     inkscape:snap-bbox="true"
     inkscape:bbox-paths="true"
     inkscape:bbox-nodes="true"
     inkscape:snap-global="true"
     inkscape:object-paths="true"
     inkscape:snap-intersection-paths="true"
     inkscape:object-nodes="true"
     inkscape:snap-smooth-nodes="true"
     inkscape:snap-nodes="false">
    <sodipodi:guide
       position="315.53572,730.17859"
       orientation="0,1"
       id="guide3338" />
    <sodipodi:guide
       position="375.75,330.25001"
       orientation="0,1"
       id="guide3340" />
    <sodipodi:guide
       position="189.10714,408.8393"
       orientation="1,0"
       id="guide3344" />
    <inkscape:grid
       type="xygrid"
       id="grid3440" />
    <sodipodi:guide
       position="0,0"
       orientation="0,1"
       id="guide3405" />
    <sodipodi:guide
       position="0,0"
       orientation="0,1"
       id="guide3409" />
    <sodipodi:guide
       position="589.04521,378.30213"
       orientation="1,0"
       id="guide3411" />
    <sodipodi:guide
       position="203.02735,711.96291"
       orientation="0,1"
       id="guide4183" />
    <sodipodi:guide
       position="207.27539,720.31252"
       orientation="1,0"
       id="guide4185" />
    <sodipodi:guide
       position="225.48828,702.73439"
       orientation="1,0"
       id="guide4187" />
    <sodipodi:guide
       position="215.42969,693.75002"
       orientation="0,1"
       id="guide4189" />
    <sodipodi:guide
       position="396.33336,675.64055"
       orientation="0,1"
       id="guide4191" />
    <sodipodi:guide
       position="262.01172,669.04298"
       orientation="1,0"
       id="guide4195" />
    <sodipodi:guide
       position="280.27344,644.04298"
       orientation="1,0"
       id="guide4199" />
    <sodipodi:guide
       position="383.29541,638.82569"
       orientation="0,1"
       id="guide4201" />
    <sodipodi:guide
       position="407.64706,620.50001"
       orientation="0,1"
       id="guide4203" />
    <sodipodi:guide
       position="298.44878,627.8335"
       orientation="1,0"
       id="guide4205" />
    <sodipodi:guide
       position="316.60983,606.42694"
       orientation="1,0"
       id="guide4207" />
    <sodipodi:guide
       position="618.71844,602.45499"
       orientation="0,1"
       id="guide4209" />
    <sodipodi:guide
       position="330.21335,584.46796"
       orientation="0,1"
       id="guide4211" />
    <sodipodi:guide
       position="334.77087,592.54721"
       orientation="1,0"
       id="guide4213" />
    <sodipodi:guide
       position="346.30279,566.30692"
       orientation="0,1"
       id="guide4215" />
    <sodipodi:guide
       position="352.93191,577.63168"
       orientation="1,0"
       id="guide4217" />
    <sodipodi:guide
       position="365.08531,548.14587"
       orientation="0,1"
       id="guide4219" />
    <sodipodi:guide
       position="371.09296,556.29418"
       orientation="1,0"
       id="guide4221" />
    <sodipodi:guide
       position="620.83976,529.62299"
       orientation="0,1"
       id="guide4223" />
    <sodipodi:guide
       position="389.254,526.325"
       orientation="1,0"
       id="guide4225" />
    <sodipodi:guide
       position="410.31529,511.68568"
       orientation="0,1"
       id="guide4227" />
    <sodipodi:guide
       position="425.64514,502.84685"
       orientation="1,0"
       id="guide4231" />
    <sodipodi:guide
       position="431.44563,493.45558"
       orientation="0,1"
       id="guide4233" />
    <sodipodi:guide
       position="448.70898,475.22549"
       orientation="0,1"
       id="guide4235" />
    <sodipodi:guide
       position="443.875,374.25001"
       orientation="1,0"
       id="guide4237" />
    <sodipodi:guide
       position="462.10533,463.48641"
       orientation="1,0"
       id="guide4239" />
    <sodipodi:guide
       position="471.4966,456.99539"
       orientation="0,1"
       id="guide4241" />
    <sodipodi:guide
       position="485.58349,438.76529"
       orientation="0,1"
       id="guide4243" />
    <sodipodi:guide
       position="480.5,511.68568"
       orientation="1,0"
       id="guide4245" />
    <sodipodi:guide
       position="523.56286,402.3051"
       orientation="0,1"
       id="guide4251" />
    <sodipodi:guide
       position="535.02572,385.59418"
       orientation="1,0"
       id="guide4255" />
    <sodipodi:guide
       position="529.84672,384.14405"
       orientation="0,1"
       id="guide4259" />
    <sodipodi:guide
       position="553.18677,372.47403"
       orientation="1,0"
       id="guide4263" />
    <sodipodi:guide
       position="574.66237,347.82197"
       orientation="0,1"
       id="guide4265" />
    <sodipodi:guide
       position="571.34781,355.90121"
       orientation="1,0"
       id="guide4267" />
    <sodipodi:guide
       position="407.64706,747.41189"
       orientation="1,0"
       id="guide4321" />
    <sodipodi:guide
       position="498.25424,574.49638"
       orientation="1,0"
       id="guide4198" />
    <sodipodi:guide
       position="516.5,602.45499"
       orientation="1,0"
       id="guide4830" />
    <sodipodi:guide
       position="417.193,420.55177"
       orientation="0,1"
       id="guide4275" />
    <sodipodi:guide
       position="623.13786,366.28132"
       orientation="0,1"
       id="guide4277" />
    <sodipodi:guide
       position="242.75,658.00002"
       orientation="0,1"
       id="guide4244" />
    <sodipodi:guide
       position="244.25,644.00002"
       orientation="1,0"
       id="guide4246" />
  </sodipodi:namedview>
  <metadata
     id="metadata7">
    <rdf:RDF>
      <cc:Work
         rdf:about="">
        <dc:format>image/svg+xml</dc:format>
        <dc:type
           rdf:resource="http://purl.org/dc/dcmitype/StillImage" />
        <dc:title>icinga</dc:title>
        <dc:creator>
          <cc:Agent>
            <dc:title>Johannes Hechler</dc:title>
          </cc:Agent>
        </dc:creator>
        <dc:rights>
          <cc:Agent>
            <dc:title>Johannes Hechler</dc:title>
          </cc:Agent>
        </dc:rights>
        <dc:publisher>
          <cc:Agent>
            <dc:title>RRZE</dc:title>
          </cc:Agent>
        </dc:publisher>
        <dc:contributor>
          <cc:Agent>
            <dc:title>Ute Weber
Hendrik Eggers</dc:title>
          </cc:Agent>
        </dc:contributor>
        <cc:license
           rdf:resource="http://creativecommons.org/licenses/by-nc/3.0/" />
        <dc:date>nov 2015</dc:date>
      </cc:Work>
      <cc:License
         rdf:about="http://creativecommons.org/licenses/by-nc/3.0/">
        <cc:permits
           rdf:resource="http://creativecommons.org/ns#Reproduction" />
        <cc:permits
           rdf:resource="http://creativecommons.org/ns#Distribution" />
        <cc:requires
           rdf:resource="http://creativecommons.org/ns#Notice" />
        <cc:requires
           rdf:resource="http://creativecommons.org/ns#Attribution" />
        <cc:prohibits
           rdf:resource="http://creativecommons.org/ns#CommercialUse" />
        <cc:permits
           rdf:resource="http://creativecommons.org/ns#DerivativeWorks" />
      </cc:License>
    </rdf:RDF>
  </metadata>
  <g
     inkscape:label="Ebene 1"
     inkscape:groupmode="layer"
     id="layer1">
    <path
       style="fill:#555753;fill-opacity:1;fill-rule:evenodd;stroke:#555753;stroke-width:25;stroke-miterlimit:4;stroke-dasharray:none"
       d="m 404.83179,339.96645 c -18.75563,0 -34.03374,15.3467 -34.03374,34.17128 0,9.82152 4.22727,19.16456 11.52525,25.64403 L 354.36081,455.096 c -3.4103,-0.61386 -6.88916,-0.88581 -10.36765,-0.88581 -15.48267,0 -30.48698,5.18293 -42.55937,14.79993 l -47.19797,-31.30594 c 0.34102,-1.50054 0.47647,-6.68372 0.47647,-8.25219 0,-12.61797 -12.07316,-22.91784 -24.69109,-22.91784 -12.61797,0 -22.84743,12.07398 -22.84743,24.75984 0,12.61806 10.22946,24.6878 22.84743,24.68781 4.02413,0 7.91412,-1.02057 11.39261,-3.06675 l 46.5152,30.55441 c -7.97995,11.45853 -12.27842,25.09955 -12.27842,39.08167 0,17.93721 7.09402,35.19395 19.71193,48.01662 l -32.3964,53.81446 c -5.52455,-2.25078 -7.77458,-3.41058 -13.77657,-3.41058 -25.2359,0 -42.01578,14.7333 -42.01578,39.69566 0,24.96325 15.00445,43.37805 40.17214,43.37805 25.23588,0 43.85614,-20.25679 43.85614,-45.22005 0,-10.29906 -3.19255,-14.27114 -9.67211,-22.2512 L 315.3479,584.549 c 8.93496,4.16054 18.75548,6.34307 28.64526,6.34307 8.93495,0 17.8021,-1.77249 26.05499,-5.25095 l 19.50562,38.26299 0,1.09046 c 0,6.27491 5.04567,11.39097 11.32058,11.39097 6.27489,0 11.39261,-5.11606 11.39261,-11.39097 0,-5.04724 -3.34304,-9.48055 -8.25384,-10.91286 l -18.14172,-37.649 c 16.64124,-12.89086 26.39557,-32.80694 26.39556,-53.88158 0,-1.2277 -0.0696,-2.52181 -0.13753,-3.74951 l 94.66934,-15.82489 c 5.59285,11.936 17.46001,19.5744 30.48727,19.5744 18.62013,0 33.69319,-15.27669 33.69319,-34.16965 0,-18.89292 -15.07306,-32.39969 -33.69319,-32.39968 -15.55085,0.0684 -29.05388,9.00426 -32.73698,24.35051 l -97.33002,16.50604 c -6.41132,-15.75549 -18.4828,-28.57774 -33.82908,-35.87576 l 25.64401,-53.1333 c 1.90979,0.34104 3.88807,0.54521 5.79782,0.54521 18.82475,0 34.03538,-15.34392 34.03538,-34.23677 -3e-5,-18.82458 -15.21064,-34.17128 -34.03538,-34.17128 z"
       id="path4235"
       inkscape:connector-curvature="0"
       sodipodi:nodetypes="ssccsccssssccsccssssccsccsssccsccsscccccsss" />
    <path
       style="color:#000000;font-style:normal;font-variant:normal;font-weight:normal;font-stretch:normal;font-size:medium;line-height:normal;font-family:sans-serif;text-indent:0;text-align:start;text-decoration:none;text-decoration-line:none;text-decoration-style:solid;text-decoration-color:#000000;letter-spacing:normal;word-spacing:normal;text-transform:none;direction:ltr;block-progression:tb;writing-mode:lr-tb;baseline-shift:baseline;text-anchor:start;white-space:normal;clip-rule:nonzero;display:inline;overflow:visible;visibility:visible;opacity:0.14;isolation:auto;mix-blend-mode:normal;color-interpolation:sRGB;color-interpolation-filters:linearRGB;solid-color:#000000;solid-opacity:1;fill:#ffffff;fill-opacity:1;fill-rule:evenodd;stroke:none;stroke-width:25;stroke-linecap:butt;stroke-linejoin:miter;stroke-miterlimit:4;stroke-dasharray:none;stroke-dashoffset:0;stroke-opacity:1;color-rendering:auto;image-rendering:auto;shape-rendering:auto;text-rendering:auto;enable-background:accumulate"
       d="m 404.83203,327.4668 c -25.57434,0 -46.5332,21.08392 -46.5332,46.67187 0,10.0307 3.22473,19.68144 9.02148,27.61328 l -20.26367,40.08399 c -1.02158,-0.0403 -2.05228,-0.125 -3.06445,-0.125 -15.1522,0 -29.92402,4.26914 -42.69727,12.20703 l -34.1289,-22.63672 c 0.0118,-0.58648 0.0469,-1.38656 0.0469,-1.83008 0,-20.59149 -17.77107,-35.41797 -37.19141,-35.41797 -20.59203,0 -35.34765,17.85614 -35.34765,37.26172 0,19.37389 14.75843,37.18749 35.34765,37.1875 3.38121,0 6.7588,-0.53566 10.0293,-1.50586 l 31.16602,20.47266 c -5.2543,10.89698 -8.06641,22.87965 -8.06641,35.10156 0,11.22609 2.37354,22.20261 6.80664,32.29883 82.65763,-29.56173 168.65761,-89.58709 303.54688,-37.64258 6.23527,-7.96884 9.97461,-17.99634 9.97461,-28.82617 0,-25.54138 -21.52835,-44.89845 -46.19336,-44.89844 l -0.0274,0 -0.0273,0 c -17.49882,0.077 -34.33239,9.6511 -41.89649,25.73438 l -81.05078,13.74414 c -6.05695,-10.75153 -14.47411,-19.95857 -24.63476,-26.92774 l 17.06054,-35.35156 c 24.73481,-1.0235 44.65821,-21.58317 44.65821,-46.54297 -4e-5,-25.55806 -20.91674,-46.67187 -46.53516,-46.67187 z"
       id="path4280"
       inkscape:connector-curvature="0"
       sodipodi:nodetypes="ssccsccssssccsccssccccccss" />
    <path
       inkscape:connector-curvature="0"
       style="color:#000000;font-style:normal;font-variant:normal;font-weight:normal;font-stretch:normal;font-size:medium;line-height:normal;font-family:sans-serif;text-indent:0;text-align:start;text-decoration:none;text-decoration-line:none;text-decoration-style:solid;text-decoration-color:#000000;letter-spacing:normal;word-spacing:normal;text-transform:none;direction:ltr;block-progression:tb;writing-mode:lr-tb;baseline-shift:baseline;text-anchor:start;white-space:normal;clip-rule:nonzero;display:inline;overflow:visible;visibility:visible;opacity:1;isolation:auto;mix-blend-mode:normal;color-interpolation:sRGB;color-interpolation-filters:linearRGB;solid-color:#000000;solid-opacity:1;fill:#000000;fill-opacity:1;fill-rule:evenodd;stroke:none;stroke-width:18.89999962;stroke-linecap:butt;stroke-linejoin:miter;stroke-miterlimit:4;stroke-dasharray:none;stroke-dashoffset:0;stroke-opacity:1;color-rendering:auto;image-rendering:auto;shape-rendering:auto;text-rendering:auto;enable-background:accumulate"
       d="m 404.8327,321.89967 c -28.64031,0 -52.10163,23.60198 -52.10163,52.23792 0,10.0174 3.0407,19.57295 8.25074,27.81243 l -17.29688,34.2166 c -14.83211,0.0528 -29.24445,4.07208 -42.06032,11.28854 l -28.90841,-19.1752 c -0.6739,-23.07403 -20.87243,-39.81232 -42.69514,-39.81232 -23.70539,0 -40.91392,20.64882 -40.91392,42.82584 0,22.14704 17.21956,42.75486 40.91392,42.75488 3.05446,0 6.01288,-0.47783 8.90983,-1.14827 l 25.43747,16.70874 c -4.32791,10.35892 -6.78507,21.49569 -6.78507,32.94137 0,17.87205 5.60582,35.1522 15.73972,49.5997 l -18.76443,31.16949 c -1.71167,-0.21679 -3.45226,-0.41451 -5.3698,-0.41451 -16.16738,0 -31.47306,4.85819 -42.74555,15.29348 -11.34291,10.50047 -17.33609,25.83197 -17.33609,42.46922 0,16.11696 4.915,31.52512 15.23747,43.08537 10.41045,11.65878 25.89262,18.35925 43.00134,18.35925 35.03694,0 61.9226,-29.16624 61.9226,-63.28745 0,-8.86044 -2.5412,-16.29557 -6.00835,-22.53039 l 19.515,-30.01747 c 6.90185,1.76556 14.02922,2.68116 21.21781,2.68116 5.64357,0 11.20725,-0.77253 16.70127,-1.88204 l 11.20451,21.97771 c 2.01007,14.19797 14.17621,25.39826 28.97564,25.39826 16.15902,0 29.45921,-13.29558 29.45921,-29.45734 0,-9.76716 -4.9288,-18.5456 -12.53575,-23.92698 l -9.94236,-20.6334 c 11.66333,-12.86172 19.16238,-28.95544 21.51655,-46.19597 l 68.99334,-11.53312 c 9.65072,11.12325 23.72536,17.91302 38.91985,17.91302 28.54701,0 51.75994,-23.66749 51.75994,-52.23604 0,-28.71403 -24.12444,-50.46794 -51.75994,-50.46791 l -0.0186,0 -0.0411,0 -0.0186,0 c -18.56391,0.0816 -36.32456,9.70451 -45.39311,26.25153 l -74.81498,12.68885 c -5.43133,-8.65769 -12.30569,-16.24468 -20.37761,-22.46129 l 13.62988,-28.24187 c 26.16073,-2.75369 46.68329,-25.19426 46.68329,-52.01387 -5e-5,-28.60583 -23.41551,-52.23792 -52.10162,-52.23792 z m 0,9.03307 c 23.73454,0 43.06851,19.51395 43.06855,43.20485 0,23.7416 -19.33489,43.27021 -43.06855,43.27021 -0.12914,0 -0.24471,-0.0345 -0.37343,-0.0355 L 385.21126,457.25 c 11.52585,7.26719 20.96817,17.43336 27.2859,29.53016 l 85.26518,-14.46074 c 6.5539,-15.8658 22.51927,-25.29755 39.48372,-25.37211 l 0.0205,0 0.0186,0 c 22.98879,-2e-5 42.72688,17.73704 42.72688,41.43484 0,23.69782 -19.16563,43.20299 -42.72688,43.20299 -14.18183,0 -27.22512,-7.17555 -35.11655,-18.67481 l -81.09406,13.5552 c -1.01576,19.91879 -9.63556,38.6295 -24.08195,52.23792 l 13.74938,28.53312 c 6.34913,3.54934 10.55849,10.28028 10.55849,17.75807 0,11.18679 -9.24095,20.42428 -20.42615,20.42428 -11.18521,0 -20.35521,-9.30664 -20.35521,-20.42428 l 0,1.07918 -0.54893,-1.07918 -0.002,0 -3.98815,0 3.55311,-0.85327 -13.95102,-27.36806 c -7.00843,2.06896 -14.27647,3.15168 -21.58936,3.15168 -8.56577,0 -17.05691,-1.45914 -25.10886,-4.24021 l -26.3262,40.49756 c 4.47293,6.33695 7.67754,13.15225 7.67754,22.64241 0,29.45551 -22.81939,54.25439 -52.88954,54.25439 -14.78714,0 -27.65181,-5.70016 -36.26296,-15.34389 -8.61114,-9.64371 -12.94278,-22.77609 -12.94278,-37.06767 0,-14.50538 5.13466,-27.2247 14.4402,-35.83912 9.30555,-8.61443 22.23237,-12.89051 36.60837,-12.89051 3.84366,0 6.96059,0.5894 9.86206,1.43394 l 25.14433,-41.76718 C 272.90023,557.80939 266.6163,540.49435 266.6163,522.5502 c 0,-12.71416 3.2714,-25.10717 9.1843,-36.23868 l -35.25098,-23.15587 c -3.39574,1.19524 -6.9499,1.85965 -10.52862,1.85965 -18.37883,-2e-5 -31.88085,-16.22128 -31.88085,-33.72182 0,-17.54225 13.49999,-33.79277 31.88085,-33.79277 17.53406,0 33.72556,13.57132 33.72556,31.9518 0,0.83695 -0.043,2.24923 -0.0952,3.65579 l 37.55686,24.91281 c 12.63843,-8.37729 27.52042,-12.84383 42.78476,-12.84383 1.70634,0 3.42896,0.0858 5.15321,0.20912 l 22.28019,-44.0712 c -6.15895,-7.63329 -9.66228,-17.18678 -9.66228,-27.17761 0,-23.7125 19.38501,-43.20485 43.06857,-43.20485 z m 24.71489,39.35862 c 0.12537,0.83524 0.21112,1.68567 0.25393,2.54673 -0.0428,-0.86102 -0.12856,-1.71153 -0.25393,-2.54673 z m -156.56627,90.68725 28.9383,19.19573 5.14201,-4.0983 -5.14201,4.09644 -28.9383,-19.19387 z m 281.14152,9.69963 c 0.57496,0.48223 1.12373,0.99194 1.64305,1.52915 -0.51932,-0.5372 -1.06809,-1.04692 -1.64305,-1.52915 z m -253.47659,10.3363 -5.30445,7.61779 5.30632,-7.61779 -0.002,0 z m 89.98336,5.04118 c 1.67834,2.14556 3.21301,4.41036 4.58748,6.77947 -1.37466,-2.36893 -2.90889,-4.63414 -4.58748,-6.77947 z m 4.58934,6.78134 c 1.3744,2.36921 2.58855,4.84374 3.63153,7.40681 l 2.73345,6.71225 -2.73158,-6.71225 c -1.04328,-2.56379 -2.2584,-5.03708 -3.6334,-7.40681 z m 159.52563,13.39462 c -0.5569,0.56535 -1.13929,1.10482 -1.74761,1.61318 0.60867,-0.50864 1.19041,-1.04748 1.74761,-1.61318 z m -229.64483,72.50724 c 2.0218,0.68433 4.08144,1.25924 6.16706,1.72148 -2.08561,-0.46224 -4.14529,-1.03716 -6.16706,-1.72148 z"
       id="path4229" />
    <path
       inkscape:connector-curvature="0"
       style="color:#000000;font-style:normal;font-variant:normal;font-weight:normal;font-stretch:normal;font-size:medium;line-height:normal;font-family:sans-serif;text-indent:0;text-align:start;text-decoration:none;text-decoration-line:none;text-decoration-style:solid;text-decoration-color:#000000;letter-spacing:normal;word-spacing:normal;text-transform:none;direction:ltr;block-progression:tb;writing-mode:lr-tb;baseline-shift:baseline;text-anchor:start;white-space:normal;clip-rule:nonzero;display:inline;overflow:visible;visibility:visible;opacity:0.71799999;isolation:auto;mix-blend-mode:normal;color-interpolation:sRGB;color-interpolation-filters:linearRGB;solid-color:#000000;solid-opacity:1;fill:url(#linearGradient4265);fill-opacity:1;fill-rule:evenodd;stroke:none;stroke-width:18.89999962;stroke-linecap:butt;stroke-linejoin:miter;stroke-miterlimit:4;stroke-dasharray:none;stroke-dashoffset:0;stroke-opacity:1;color-rendering:auto;image-rendering:auto;shape-rendering:auto;text-rendering:auto;enable-background:accumulate"
       d="m 404.8327,330.93274 c -23.68356,0 -43.06857,19.49235 -43.06857,43.20485 0,9.99083 3.50332,19.54432 9.66228,27.17761 l -22.28019,44.0712 c -1.72425,-0.12337 -3.44687,-0.20912 -5.15321,-0.20912 -15.26434,0 -30.14633,4.46654 -42.78476,12.84383 L 263.65139,433.1083 c 0.0522,-1.40656 0.0952,-2.81884 0.0952,-3.65579 0,-18.38048 -16.1915,-31.9518 -33.72556,-31.9518 -18.38086,0 -31.88086,16.25052 -31.88086,33.79277 0,17.50054 13.50202,33.7218 31.88086,33.72182 3.57872,0 7.13288,-0.66441 10.52861,-1.85965 l 35.25098,23.15587 c -5.91289,11.13151 -9.18429,23.52452 -9.18429,36.23868 0,17.94415 6.28393,35.25919 17.57881,49.05451 l -25.14433,41.76718 c -2.90148,-0.84454 -6.0184,-1.43394 -9.86206,-1.43394 -14.376,0 -27.30283,4.27608 -36.60837,12.89051 -9.30554,8.61442 -14.44021,21.33374 -14.44021,35.83912 0,14.29158 4.33165,27.42396 12.94279,37.06767 8.61115,9.64373 21.47581,15.34389 36.26296,15.34389 30.07015,0 52.88954,-24.79888 52.88954,-54.25439 0,-9.49016 -3.20462,-16.30546 -7.67755,-22.64241 l 26.32621,-40.49756 c 8.05195,2.78107 16.54309,4.24021 25.10886,4.24021 7.31289,0 14.58093,-1.08272 21.58936,-3.15168 l 14.93685,29.30051 0,-1.07918 c 0,11.11764 9.17,20.42428 20.35521,20.42428 11.1852,0 20.42615,-9.23749 20.42615,-20.42428 0,-7.47779 -4.20936,-14.20873 -10.55849,-17.75807 l -13.74937,-28.53312 c 14.44639,-13.60842 23.06619,-32.31913 24.08195,-52.23792 l 81.09406,-13.5552 c 7.89143,11.49926 20.93472,18.67481 35.11655,18.67481 23.56125,0 42.72688,-19.50517 42.72688,-43.20299 0,-23.6978 -19.73809,-41.43486 -42.72688,-41.43484 l -0.0186,0 -0.0205,0 c -16.96445,0.0746 -32.92982,9.50631 -39.48372,25.37211 l -85.26518,14.46074 c -6.31773,-12.0968 -15.76005,-22.26297 -27.2859,-29.53016 l 19.24801,-39.87767 c 0.12872,9.5e-4 0.24429,0.0355 0.37343,0.0355 23.73366,0 43.06855,-19.52862 43.06855,-43.27022 -4e-5,-23.6909 -19.33401,-43.20485 -43.06855,-43.20485 z m 0,9.03306 c 18.82474,0 34.03359,15.3472 34.03362,34.17179 0,18.89284 -15.20888,34.23715 -34.03362,34.23715 -1.90975,0 -3.88946,-0.20416 -5.79924,-0.5452 l -25.64285,53.13226 c 15.34628,7.29802 27.41693,20.12099 33.82825,35.87647 l 97.33042,-16.50523 c 3.6831,-15.34626 17.18514,-24.28245 32.73599,-24.35081 18.62012,-1e-5 33.69382,13.507 33.69382,32.39992 0,18.89296 -15.0737,34.16805 -33.69382,34.16805 -13.02727,0 -24.89328,-7.63689 -30.48612,-19.57289 l -94.6698,15.82374 c 0.068,1.22771 0.13816,2.52145 0.13816,3.74915 10e-6,21.07464 -9.75405,40.99198 -26.39529,53.88285 l 18.14081,37.64834 c 4.9108,1.43231 8.25448,5.866 8.25448,10.91325 0,6.27491 -5.11819,11.39121 -11.39308,11.39121 -6.27491,0 -11.32028,-5.1163 -11.32028,-11.39121 l 0,-1.0904 -19.50566,-38.26262 c -8.25289,3.47845 -17.12053,5.2503 -26.05548,5.2503 -9.88978,0 -19.7102,-2.18203 -28.64516,-6.34256 l -33.81704,52.02507 c 6.47956,7.98007 9.67161,11.95126 9.67161,22.25032 0,24.96326 -18.62059,45.22133 -43.85647,45.22133 -25.16769,0 -40.17268,-18.41525 -40.17268,-43.3785 0,-24.96236 16.77961,-39.69657 42.01551,-39.69657 6.00199,0 8.25283,1.16043 13.77738,3.41121 l 32.39617,-53.81376 c -12.61791,-12.82267 -19.71104,-30.08105 -19.71104,-48.01826 0,-13.98212 4.29814,-27.6219 12.27809,-39.08042 l -46.51523,-30.55521 c -3.4785,2.04618 -7.36896,3.06766 -11.39309,3.06766 -12.61797,-1e-5 -22.84779,-12.07069 -22.84779,-24.68875 0,-12.68586 10.22982,-24.75971 22.84779,-24.75971 12.61793,0 24.69063,10.30077 24.69063,22.91874 0,1.56847 -0.1351,6.7502 -0.47612,8.25074 l 47.1986,31.30765 c 12.0724,-9.61699 27.07617,-14.80055 42.55884,-14.80055 3.47849,0 6.95775,0.27114 10.36804,0.885 l 27.9618,-55.31304 c -7.29798,-6.47947 -11.52565,-15.82321 -11.52565,-25.64472 0,-18.82459 15.27986,-34.17179 34.0355,-34.17179 z"
       id="path4227" />
  </g>
</svg>
