<?xml version="1.0" encoding="UTF-8" standalone="no"?>
<!-- Created with Inkscape (http://www.inkscape.org/) -->
<svg xmlns:dc="http://purl.org/dc/elements/1.1/" xmlns:cc="http://creativecommons.org/ns#" xmlns:rdf="http://www.w3.org/1999/02/22-rdf-syntax-ns#" xmlns:svg="http://www.w3.org/2000/svg" xmlns="http://www.w3.org/2000/svg" xmlns:xlink="http://www.w3.org/1999/xlink" xmlns:sodipodi="http://sodipodi.sourceforge.net/DTD/sodipodi-0.dtd" xmlns:inkscape="http://www.inkscape.org/namespaces/inkscape" width="210mm" height="297mm" id="svg2" version="1.1" inkscape:version="0.48.0 r9654">
  <defs id="defs4">
    <linearGradient id="linearGradient4250">
      <stop style="stop-color:#000000;stop-opacity:1;" offset="0" id="stop4252"/>
      <stop style="stop-color:#ffffff;stop-opacity:1;" offset="1" id="stop4254"/>
    </linearGradient>
    <linearGradient id="linearGradient3812">
      <stop style="stop-color:#fce94f;stop-opacity:1;" offset="0" id="stop3814"/>
      <stop style="stop-color:#fcaf3e;stop-opacity:1;" offset="1" id="stop3816"/>
    </linearGradient>
    <linearGradient id="linearGradient3804">
      <stop style="stop-color:#fcaf3e;stop-opacity:1;" offset="0" id="stop3806"/>
      <stop style="stop-color:#fcaf3e;stop-opacity:0;" offset="1" id="stop3808"/>
    </linearGradient>
    <linearGradient id="linearGradient3796">
      <stop style="stop-color:#3465a4;stop-opacity:1;" offset="0" id="stop3798"/>
      <stop style="stop-color:#000000;stop-opacity:1;" offset="1" id="stop3800"/>
    </linearGradient>
    <linearGradient inkscape:collect="always" xlink:href="#linearGradient3796" id="linearGradient3802" x1="-484.52472" y1="360.93942" x2="-471.02026" y2="573.98572" gradientUnits="userSpaceOnUse"/>
    <linearGradient inkscape:collect="always" xlink:href="#linearGradient3812" id="linearGradient3818" x1="-422.67163" y1="576.74487" x2="-426.89273" y2="673.35327" gradientUnits="userSpaceOnUse"/>
    <linearGradient inkscape:collect="always" xlink:href="#linearGradient4250" id="linearGradient4256" x1="-233.27049" y1="443.29294" x2="-238.83514" y2="235.20152" gradientUnits="userSpaceOnUse"/>
    <linearGradient inkscape:collect="always" xlink:href="#linearGradient3796" id="linearGradient4269" gradientUnits="userSpaceOnUse" x1="-484.52472" y1="360.93942" x2="-471.02026" y2="573.98572"/>
    <linearGradient inkscape:collect="always" xlink:href="#linearGradient3796" id="linearGradient4271" gradientUnits="userSpaceOnUse" x1="-484.52472" y1="360.93942" x2="-471.02026" y2="573.98572"/>
    <linearGradient inkscape:collect="always" xlink:href="#linearGradient3812" id="linearGradient4273" gradientUnits="userSpaceOnUse" x1="-422.67163" y1="576.74487" x2="-426.89273" y2="673.35327"/>
    <linearGradient inkscape:collect="always" xlink:href="#linearGradient3812" id="linearGradient4275" gradientUnits="userSpaceOnUse" x1="-422.67163" y1="576.74487" x2="-426.89273" y2="673.35327"/>
    <linearGradient inkscape:collect="always" xlink:href="#linearGradient4250" id="linearGradient4277" gradientUnits="userSpaceOnUse" x1="-233.27049" y1="443.29294" x2="-238.83514" y2="235.20152"/>
    <linearGradient inkscape:collect="always" xlink:href="#linearGradient4250" id="linearGradient4280" gradientUnits="userSpaceOnUse" x1="-233.27049" y1="443.29294" x2="-238.83514" y2="235.20152" gradientTransform="matrix(2.6590045,0,0,2.6590045,851.55893,-405.86057)"/>
  </defs>
  <sodipodi:namedview id="base" pagecolor="#ffffff" bordercolor="#666666" borderopacity="1.0" inkscape:pageopacity="0.0" inkscape:pageshadow="2" inkscape:zoom="0.49497475" inkscape:cx="281.86353" inkscape:cy="474.54314" inkscape:document-units="px" inkscape:current-layer="layer1" showgrid="false" showguides="true" inkscape:guide-bbox="true" inkscape:window-width="1132" inkscape:window-height="669" inkscape:window-x="0" inkscape:window-y="0" inkscape:window-maximized="0" inkscape:snap-global="false">
    <sodipodi:guide orientation="0,1" position="-288.57143,928.57143" id="guide3755"/>
    <sodipodi:guide orientation="0,1" position="-394.28571,265.71429" id="guide3757"/>
    <sodipodi:guide orientation="1,0" position="708.57143,11.428571" id="guide3759"/>
    <sodipodi:guide orientation="1,0" position="45.714286,97.142857" id="guide3761"/>
  </sodipodi:namedview>
  <metadata id="metadata7">
    <rdf:RDF>
      <cc:Work rdf:about="">
        <dc:format>image/svg+xml</dc:format>
        <dc:type rdf:resource="http://purl.org/dc/dcmitype/StillImage"/>
        <dc:title>meincampus</dc:title>
        <dc:date>Dec 2011</dc:date>
        <dc:creator>
          <cc:Agent>
            <dc:title>Franziska Sponsel</dc:title>
          </cc:Agent>
        </dc:creator>
        <dc:rights>
          <cc:Agent>
            <dc:title>Franziska Sponsel</dc:title>
          </cc:Agent>
        </dc:rights>
        <dc:publisher>
          <cc:Agent>
            <dc:title>RRZE</dc:title>
          </cc:Agent>
        </dc:publisher>
        <dc:subject>
          <rdf:Bag>
            <rdf:li>mein campus</rdf:li>
            <rdf:li>website</rdf:li>
            <rdf:li>service</rdf:li>
          </rdf:Bag>
        </dc:subject>
        <dc:contributor>
          <cc:Agent>
            <dc:title>Andrea Grimm, Hendrik Eggers</dc:title>
          </cc:Agent>
        </dc:contributor>
        <cc:license rdf:resource="http://creativecommons.org/licenses/by-sa/3.0/"/>
      </cc:Work>
      <cc:License rdf:about="http://creativecommons.org/licenses/by-sa/3.0/">
        <cc:permits rdf:resource="http://creativecommons.org/ns#Reproduction"/>
        <cc:permits rdf:resource="http://creativecommons.org/ns#Distribution"/>
        <cc:requires rdf:resource="http://creativecommons.org/ns#Notice"/>
        <cc:requires rdf:resource="http://creativecommons.org/ns#Attribution"/>
        <cc:permits rdf:resource="http://creativecommons.org/ns#DerivativeWorks"/>
        <cc:requires rdf:resource="http://creativecommons.org/ns#ShareAlike"/>
      </cc:License>
    </rdf:RDF>
  </metadata>
  <g inkscape:label="Ebene 1" inkscape:groupmode="layer" id="layer1">
    <g id="g4330">
      <g transform="matrix(2.5734916,0,-0.44033186,2.6980238,1710.6227,-664.02157)" style="font-size:144px;font-style:normal;font-weight:normal;line-height:125%;letter-spacing:0px;word-spacing:0px;opacity:0.53773008;fill:#000000;fill-opacity:1;stroke:none;font-family:Sans" id="g4288">
        <path d="m -476.55469,389.39907 c 3.2343,-5.81243 7.10148,-10.10149 11.60157,-12.86719 4.4999,-2.76555 9.79677,-4.14836 15.89062,-4.14844 8.20301,8e-5 14.53113,2.88289 18.98438,8.64844 4.45299,5.71882 6.67955,13.87506 6.67968,24.46875 l 0,47.53125 -13.00781,0 0,-47.10938 c -1.2e-4,-7.54682 -1.33605,-13.14837 -4.00781,-16.80468 -2.67199,-3.65619 -6.75011,-5.48431 -12.23438,-5.48438 -6.70321,7e-5 -12.00008,2.22663 -15.89062,6.67969 -3.89071,4.45318 -5.83602,10.52349 -5.83594,18.21094 l 0,44.50781 -13.00781,0 0,-47.10938 c -7e-5,-7.59369 -1.336,-13.19525 -4.00781,-16.80468 -2.67194,-3.65619 -6.79693,-5.48431 -12.375,-5.48438 -6.60942,7e-5 -11.85942,2.25007 -15.75,6.75 -3.89066,4.45318 -5.83597,10.50005 -5.83594,18.14063 l 0,44.50781 -13.00781,0 0,-78.75 13.00781,0 0,12.23437 c 2.95309,-4.82805 6.49215,-8.39055 10.61719,-10.6875 4.12495,-2.29679 9.02339,-3.44523 14.69531,-3.44531 5.71869,8e-5 10.57025,1.45321 14.55469,4.35938 4.03118,2.90632 7.00773,7.12507 8.92968,12.65625" id="path4290" inkscape:connector-curvature="0" style="fill:#000000;fill-opacity:1;stroke:none"/>
      </g>
      <rect y="123.79076" x="45.714287" height="662.85712" width="662.85712" id="rect2985" style="fill:none;fill-opacity:1;stroke:none;stroke-width:2;stroke-linecap:round;stroke-linejoin:miter;stroke-miterlimit:4;stroke-opacity:1;stroke-dasharray:none;stroke-dashoffset:0"/>
      <g id="flowRoot3763" style="font-size:144px;font-style:normal;font-weight:normal;line-height:125%;letter-spacing:0px;word-spacing:0px;fill:url(#linearGradient4271);fill-opacity:1;stroke:#204a87;stroke-width:4.03640556;stroke-linejoin:round;stroke-miterlimit:4;stroke-dasharray:none;font-family:Sans" transform="matrix(2.5734916,0,-0.44033186,2.6980238,1692.6227,-676.02157)">
        <path style="fill:url(#linearGradient4269);fill-opacity:1;stroke:#204a87;stroke-width:4.03640556;stroke-linejoin:round;stroke-miterlimit:4;stroke-dasharray:none" inkscape:connector-curvature="0" id="path3772" d="m -476.55469,389.39907 c 3.2343,-5.81243 7.10148,-10.10149 11.60157,-12.86719 4.4999,-2.76555 9.79677,-4.14836 15.89062,-4.14844 8.20301,8e-5 14.53113,2.88289 18.98438,8.64844 4.45299,5.71882 6.67955,13.87506 6.67968,24.46875 l 0,47.53125 -13.00781,0 0,-47.10938 c -1.2e-4,-7.54682 -1.33605,-13.14837 -4.00781,-16.80468 -2.67199,-3.65619 -6.75011,-5.48431 -12.23438,-5.48438 -6.70321,7e-5 -12.00008,2.22663 -15.89062,6.67969 -3.89071,4.45318 -5.83602,10.52349 -5.83594,18.21094 l 0,44.50781 -13.00781,0 0,-47.10938 c -7e-5,-7.59369 -1.336,-13.19525 -4.00781,-16.80468 -2.67194,-3.65619 -6.79693,-5.48431 -12.375,-5.48438 -6.60942,7e-5 -11.85942,2.25007 -15.75,6.75 -3.89066,4.45318 -5.83597,10.50005 -5.83594,18.14063 l 0,44.50781 -13.00781,0 0,-78.75 13.00781,0 0,12.23437 c 2.95309,-4.82805 6.49215,-8.39055 10.61719,-10.6875 4.12495,-2.29679 9.02339,-3.44523 14.69531,-3.44531 5.71869,8e-5 10.57025,1.45321 14.55469,4.35938 4.03118,2.90632 7.00773,7.12507 8.92968,12.65625"/>
      </g>
      <g transform="matrix(-5.1992975,0,0,5.1991542,-1781.7331,-2914.2743)" id="flowRoot3774" style="font-size:144px;font-style:normal;font-weight:normal;line-height:125%;letter-spacing:0px;word-spacing:0px;fill:#fcaf3e;fill-opacity:1;stroke:#f57900;stroke-width:2.04569268;stroke-linejoin:round;stroke-miterlimit:4;stroke-dasharray:none;font-family:Sans">
        <path style="fill:url(#linearGradient4273);fill-opacity:1;stroke:#f57900;stroke-width:2.04569268;stroke-linejoin:round;stroke-miterlimit:4;stroke-dasharray:none" inkscape:connector-curvature="0" id="path3783" d="m -386.07031,602.01625 0,14.97657 c -4.78134,-4.45304 -9.89071,-7.78116 -15.32813,-9.98438 -5.39069,-2.20303 -11.13288,-3.30459 -17.22656,-3.30469 -12.00005,10e-5 -21.18754,3.67978 -27.5625,11.03907 -6.37503,7.31257 -9.56252,17.90631 -9.5625,31.78125 -2e-5,13.82816 3.18747,24.4219 9.5625,31.78125 6.37496,7.31251 15.56245,10.96876 27.5625,10.96875 6.09368,10e-6 11.83587,-1.10156 17.22656,-3.30469 5.43742,-2.20311 10.54679,-5.53123 15.32813,-9.98438 l 0,14.83594 c -4.96884,3.37501 -10.24227,5.90625 -15.82031,7.59375 -5.53133,1.6875 -11.3907,2.53125 -17.57813,2.53125 -15.89067,0 -28.40628,-4.85156 -37.54687,-14.55469 -9.14064,-9.74997 -13.71095,-23.03902 -13.71094,-39.86718 -10e-6,-16.87493 4.5703,-30.16398 13.71094,-39.86719 9.14059,-9.7499 21.6562,-14.62489 37.54687,-14.625 6.28118,1.1e-4 12.18743,0.84386 17.71875,2.53125 5.57804,1.64073 10.8046,4.1251 15.67969,7.45312"/>
      </g>
      <g style="font-size:144px;font-style:normal;font-weight:normal;line-height:125%;letter-spacing:0px;word-spacing:0px;fill:#fcaf3e;fill-opacity:1;stroke:#f57900;stroke-width:2.04569268;stroke-linejoin:round;stroke-miterlimit:4;stroke-dasharray:none;font-family:Sans" id="g3912" transform="matrix(-5.1992975,0,0,5.1991542,-1781.7331,-2914.2743)">
        <path d="m -386.07031,602.01625 0,14.97657 c -4.78134,-4.45304 -9.89071,-7.78116 -15.32813,-9.98438 -5.39069,-2.20303 -11.13288,-3.30459 -17.22656,-3.30469 -12.00005,10e-5 -21.18754,3.67978 -27.5625,11.03907 -6.37503,7.31257 -9.56252,17.90631 -9.5625,31.78125 -2e-5,13.82816 3.18747,24.4219 9.5625,31.78125 6.37496,7.31251 15.56245,10.96876 27.5625,10.96875 6.09368,10e-6 11.83587,-1.10156 17.22656,-3.30469 5.43742,-2.20311 10.54679,-5.53123 15.32813,-9.98438 l 0,14.83594 c -4.96884,3.37501 -10.24227,5.90625 -15.82031,7.59375 -5.53133,1.6875 -11.3907,2.53125 -17.57813,2.53125 -15.89067,0 -28.40628,-4.85156 -37.54687,-14.55469 -9.14064,-9.74997 -13.71095,-23.03902 -13.71094,-39.86718 -10e-6,-16.87493 4.5703,-30.16398 13.71094,-39.86719 9.14059,-9.7499 21.6562,-14.62489 37.54687,-14.625 6.28118,1.1e-4 12.18743,0.84386 17.71875,2.53125 5.57804,1.64073 10.8046,4.1251 15.67969,7.45312" id="path3914" inkscape:connector-curvature="0" style="fill:url(#linearGradient4275);fill-opacity:1;stroke:#f57900;stroke-width:2.04569268;stroke-linejoin:round;stroke-miterlimit:4;stroke-dasharray:none"/>
      </g>
      <path sodipodi:nodetypes="czzzc" inkscape:connector-curvature="0" id="path3916" d="m 236.18932,223.38726 c 0,0 120.7656,-85.38763 263.05154,-31.33828 142.28591,54.04932 155.89499,180.44212 150.0438,284.89335 -5.85118,104.4512 -46.48899,194.4389 -172.50944,231.57828 C 350.75479,745.65999 235.23966,668.4726 235.23966,668.4726" style="opacity:0.55214724;fill:none;stroke:url(#linearGradient4280);stroke-width:15.95402718;stroke-linecap:round;stroke-linejoin:miter;stroke-miterlimit:4;stroke-opacity:1;stroke-dasharray:none"/>
    </g>
  </g>
</svg>
