<?xml version="1.0" encoding="UTF-8" standalone="no"?>
<!-- Created with Inkscape (http://www.inkscape.org/) -->
<svg xmlns:dc="http://purl.org/dc/elements/1.1/" xmlns:cc="http://creativecommons.org/ns#" xmlns:rdf="http://www.w3.org/1999/02/22-rdf-syntax-ns#" xmlns:svg="http://www.w3.org/2000/svg" xmlns="http://www.w3.org/2000/svg" xmlns:xlink="http://www.w3.org/1999/xlink" xmlns:sodipodi="http://sodipodi.sourceforge.net/DTD/sodipodi-0.dtd" xmlns:inkscape="http://www.inkscape.org/namespaces/inkscape" width="210mm" height="297mm" id="svg2" version="1.1" inkscape:version="0.48.0 r9654">
  <title id="title3879">mongo</title>
  <defs id="defs4">
    <linearGradient inkscape:collect="always" id="linearGradient3852">
      <stop style="stop-color:#000000;stop-opacity:1;" offset="0" id="stop3854"/>
      <stop style="stop-color:#000000;stop-opacity:0;" offset="1" id="stop3856"/>
    </linearGradient>
    <linearGradient inkscape:collect="always" id="linearGradient3786">
      <stop style="stop-color:#ffffff;stop-opacity:1;" offset="0" id="stop3788"/>
      <stop style="stop-color:#ffffff;stop-opacity:0;" offset="1" id="stop3790"/>
    </linearGradient>
    <linearGradient inkscape:collect="always" xlink:href="#linearGradient3786" id="linearGradient3832" gradientUnits="userSpaceOnUse" gradientTransform="translate(-487.14286,4.2857143)" x1="416.10471" y1="341.94012" x2="230.84409" y2="320.51157"/>
    <radialGradient inkscape:collect="always" xlink:href="#linearGradient3852" id="radialGradient3858" cx="-761.65503" cy="757.39764" fx="-761.65503" fy="757.39764" r="379.04706" gradientTransform="matrix(1,0,0,0.66421261,0,254.32457)" gradientUnits="userSpaceOnUse"/>
  </defs>
  <sodipodi:namedview id="base" pagecolor="#ffffff" bordercolor="#666666" borderopacity="1.0" inkscape:pageopacity="0.0" inkscape:pageshadow="2" inkscape:zoom="0.24748737" inkscape:cx="-904.23002" inkscape:cy="534.78109" inkscape:document-units="px" inkscape:current-layer="layer1" showgrid="false" showguides="true" inkscape:guide-bbox="true" inkscape:window-width="1251" inkscape:window-height="687" inkscape:window-x="0" inkscape:window-y="0" inkscape:window-maximized="0">
    <sodipodi:guide orientation="0,1" position="-880.85302,1159.6551" id="guide3830"/>
  </sodipodi:namedview>
  <metadata id="metadata7">
    <rdf:RDF>
      <cc:Work rdf:about="">
        <dc:format>image/svg+xml</dc:format>
        <dc:type rdf:resource="http://purl.org/dc/dcmitype/StillImage"/>
        <dc:title>mongo</dc:title>
        <dc:date>June 2013</dc:date>
        <dc:creator>
          <cc:Agent>
            <dc:title>Franziska Sponsel</dc:title>
          </cc:Agent>
        </dc:creator>
        <dc:rights>
          <cc:Agent>
            <dc:title>Franziska Sponsel</dc:title>
          </cc:Agent>
        </dc:rights>
        <dc:publisher>
          <cc:Agent>
            <dc:title>RRZe</dc:title>
          </cc:Agent>
        </dc:publisher>
        <dc:subject>
          <rdf:Bag>
            <rdf:li>Mongo DB</rdf:li>
            <rdf:li>database</rdf:li>
            <rdf:li>mongo</rdf:li>
            <rdf:li>leaf</rdf:li>
          </rdf:Bag>
        </dc:subject>
        <dc:contributor>
          <cc:Agent>
            <dc:title>Frank Troeger</dc:title>
          </cc:Agent>
        </dc:contributor>
      </cc:Work>
    </rdf:RDF>
  </metadata>
  <g inkscape:label="Ebene 1" inkscape:groupmode="layer" id="layer1">
    <path style="opacity:0.62883438000000003;fill:none;fill-opacity:1;stroke:none;stroke-width:2.50000000000000000;stroke-linecap:round;stroke-linejoin:round;stroke-miterlimit:4;stroke-dashoffset:22.80179958000000084;stroke-opacity:1" d="m 8.0812206,127.06245 715.1879894,0 0,715.18798 -715.1879894,0 z" id="rect3827"/>
    <path sodipodi:type="arc" style="opacity:0.49693252;fill:url(#radialGradient3858);fill-opacity:1;stroke:#8f5902;stroke-width:2.50000000000000000;stroke-linecap:round;stroke-linejoin:round;stroke-miterlimit:4;stroke-opacity:1;stroke-dasharray:none;stroke-dashoffset:22.80179958000000084" id="path3850" sodipodi:cx="-761.65503" sodipodi:cy="757.39764" sodipodi:rx="377.79706" sodipodi:ry="250.51784" d="m -383.85797,757.39764 a 377.79706,250.51784 0 1 1 -755.59413,0 377.79706,250.51784 0 1 1 755.59413,0 z" transform="matrix(0.39193939,0,0,0.14177061,670.07595,684.94571)"/>
    <g transform="matrix(1.5558428,0,0,1.5558428,193.50829,-146.71501)" id="g3834">
      <path style="fill:#c17d11;stroke:#8f5902;stroke-width:2.5;stroke-linecap:butt;stroke-linejoin:round;stroke-miterlimit:4;stroke-opacity:1;stroke-dasharray:none" d="m 122.22846,604.35952 -10.6066,-4.04061 c 0,0 0,-37.37564 -5.55584,-43.43656 -5.55584,-6.06091 8.5863,-46.46701 8.5863,-46.46701 l 14.14213,43.43656 c -6.73738,8.64818 -6.33373,30.15022 -6.56599,50.50762 z" id="path3836" inkscape:connector-curvature="0" sodipodi:nodetypes="ccsccc"/>
      <g id="g3838" transform="translate(286.72444,59.076505)">
        <path sodipodi:nodetypes="cssscssssssscscc" inkscape:connector-curvature="0" id="path3840" d="m -181.42857,493.79075 c 0,0 -53.48128,-44.23583 -67.14286,-85 -13.02856,-38.87531 -18.84777,-98.32106 0,-143.57143 12.41095,-29.79665 29.69745,-66.62598 65,-96.42857 5.13619,-4.336 7.85714,-18.57143 7.85714,-18.57143 0,0 8.59384,18.64947 14.28572,27.14286 10.53908,15.72634 25.93174,27.81686 36.42857,43.57143 11.45512,17.19286 19.66241,36.19422 26.428573,55.71429 6.66794,19.23671 10.60313,39.02944 11.42857,59.28571 0.813,19.95082 -1.76277,39.87112 -6.42857,59.28571 -2.76226,11.49388 -7.712273,22.21432 -12.857143,32.85714 -5.54759,11.47589 -14.08539,22.98046 -22.14286,32.85715 -9.89813,12.13294 -30.71428,30 -30.71428,30 0,0 -8.49996,-7.41996 -10.71429,-13.57143 -3.57104,-9.92046 -3.57143,-31.42857 -3.57143,-31.42857 z" style="fill:#73d216;stroke:#4e9a06;stroke-width:7;stroke-linecap:butt;stroke-linejoin:round;stroke-miterlimit:4;stroke-opacity:1;stroke-dasharray:none"/>
        <path style="fill:url(#linearGradient3832);fill-opacity:1;stroke:none" d="m -181.8437,486.94016 c 0,0 -53.48128,-42.44249 -67.14286,-81.55406 -13.02855,-37.29928 -18.84776,-94.33507 0,-137.75096 12.41095,-28.58868 29.69745,-63.92493 65,-92.51931 5.13619,-4.16021 8.92857,-15.31853 8.92857,-15.31853 5.15975,113.54426 12.83308,254.20208 -6.78571,327.14286 z" id="path3842" inkscape:connector-curvature="0" sodipodi:nodetypes="cssscc"/>
        <path style="opacity:0.62883438;fill:none;stroke:#ffffff;stroke-width:4;stroke-linecap:butt;stroke-linejoin:miter;stroke-miterlimit:4;stroke-opacity:1;stroke-dasharray:none" d="m -185,484.14789 c 0,0 -33.12414,-23.1644 -55.35714,-71.42857 -17.15435,-37.23924 -23.13349,-97.24963 -4.28572,-142.5 12.41095,-29.79665 26.48316,-64.48312 61.78571,-94.28571 5.13619,-4.336 7.85715,-11.42858 7.85715,-11.42858 0,0 4.66526,9.7209 10.35714,18.21429 10.53908,15.72634 24.14603,25.31686 34.64286,41.07143 11.45512,17.19286 18.59098,33.69422 25.35714,53.21429 6.667943,19.23671 10.960273,40.10087 11.785713,60.35714 0.813,19.95082 -1.40562,38.44255 -6.07142,57.85714 -2.762263,11.49388 -9.855133,25.78575 -15.000003,36.42857 -5.54759,11.47589 -11.22825,15.48046 -19.28572,25.35715 -9.89813,12.13294 -25.35713,26.42857 -25.35713,26.42857 0,0 -3.85711,-0.99139 -6.07144,-7.14286 -3.57104,-9.92046 -6.78571,-50.35714 -6.78571,-50.35714 -5.31172,11.78829 -11.00609,19.87765 -13.57143,58.21428 z" id="path3844" inkscape:connector-curvature="0" sodipodi:nodetypes="cssscssssssscscc"/>
      </g>
    </g>
  </g>
</svg>
