<?xml version="1.0" encoding="UTF-8" standalone="no"?>
<!-- Created with Inkscape (http://www.inkscape.org/) -->

<svg
   xmlns:dc="http://purl.org/dc/elements/1.1/"
   xmlns:cc="http://creativecommons.org/ns#"
   xmlns:rdf="http://www.w3.org/1999/02/22-rdf-syntax-ns#"
   xmlns:svg="http://www.w3.org/2000/svg"
   xmlns="http://www.w3.org/2000/svg"
   xmlns:xlink="http://www.w3.org/1999/xlink"
   xmlns:sodipodi="http://sodipodi.sourceforge.net/DTD/sodipodi-0.dtd"
   xmlns:inkscape="http://www.inkscape.org/namespaces/inkscape"
   width="400"
   height="400"
   viewBox="0 0 400 400.00001"
   id="svg4217"
   version="1.1"
   inkscape:version="0.91 r13725"
   sodipodi:docname="raspberry-pi.svg"
   inkscape:export-filename="C:\Users\johannes\Documents\Arbeit\RRZE\github3\tango\720x720\logos\raspberry-pi.png"
   inkscape:export-xdpi="162.05"
   inkscape:export-ydpi="162.05">
  <title
     id="title4264">raspberry pi</title>
  <defs
     id="defs4219">
    <linearGradient
       inkscape:collect="always"
       id="linearGradient4324">
      <stop
         style="stop-color:#ffffff;stop-opacity:0"
         offset="0"
         id="stop4326" />
      <stop
         id="stop4332"
         offset="0.47602671"
         style="stop-color:#ffffff;stop-opacity:1" />
      <stop
         style="stop-color:#ffffff;stop-opacity:0;"
         offset="1"
         id="stop4328" />
    </linearGradient>
    <linearGradient
       inkscape:collect="always"
       id="linearGradient4294">
      <stop
         style="stop-color:#ffffff;stop-opacity:1;"
         offset="0"
         id="stop4296" />
      <stop
         style="stop-color:#2e3436;stop-opacity:1"
         offset="1"
         id="stop4298" />
    </linearGradient>
    <linearGradient
       id="linearGradient4321"
       inkscape:collect="always">
      <stop
         id="stop4323"
         offset="0"
         style="stop-color:#4e505d;stop-opacity:1;" />
      <stop
         id="stop4325"
         offset="1"
         style="stop-color:#7a8597;stop-opacity:1" />
    </linearGradient>
    <linearGradient
       inkscape:collect="always"
       xlink:href="#linearGradient4321"
       id="linearGradient4319-9"
       x1="280"
       y1="712.36218"
       x2="500"
       y2="472.36221"
       gradientUnits="userSpaceOnUse"
       gradientTransform="matrix(1.0685568,0,0,1.0477472,-26.445951,-34.107492)" />
    <linearGradient
       inkscape:collect="always"
       xlink:href="#linearGradient4321"
       id="linearGradient4317-3"
       x1="280"
       y1="692.36218"
       x2="500"
       y2="472.36221"
       gradientUnits="userSpaceOnUse"
       gradientTransform="matrix(1.0685568,0,0,1.0477472,-26.445951,-26.329318)" />
    <linearGradient
       inkscape:collect="always"
       xlink:href="#linearGradient4294"
       id="linearGradient4300"
       x1="-816.88196"
       y1="2340.0369"
       x2="-896.03528"
       y2="1023.3596"
       gradientUnits="userSpaceOnUse"
       gradientTransform="matrix(0.49285824,0,0,0.49610313,591.49995,181.93947)" />
    <linearGradient
       inkscape:collect="always"
       xlink:href="#linearGradient4324"
       id="linearGradient4330"
       x1="-598.92743"
       y1="1046.7639"
       x2="-765.80377"
       y2="683.87146"
       gradientUnits="userSpaceOnUse"
       gradientTransform="matrix(0.49285824,0,0,0.49610313,591.49995,505.57837)" />
  </defs>
  <sodipodi:namedview
     id="base"
     pagecolor="#ffffff"
     bordercolor="#666666"
     borderopacity="1.0"
     inkscape:pageopacity="0.0"
     inkscape:pageshadow="2"
     inkscape:zoom="0.9275"
     inkscape:cx="83.854262"
     inkscape:cy="80.605882"
     inkscape:document-units="px"
     inkscape:current-layer="layer1"
     showgrid="false"
     units="px"
     inkscape:snap-bbox="true"
     inkscape:bbox-paths="false"
     inkscape:bbox-nodes="true"
     inkscape:snap-bbox-edge-midpoints="false"
     inkscape:snap-bbox-midpoints="false"
     showguides="true"
     inkscape:guide-bbox="true"
     inkscape:window-width="1366"
     inkscape:window-height="721"
     inkscape:window-x="-4"
     inkscape:window-y="-4"
     inkscape:window-maximized="1"
     inkscape:object-paths="true"
     inkscape:snap-intersection-paths="true"
     inkscape:object-nodes="true"
     inkscape:snap-smooth-nodes="true"
     inkscape:snap-midpoints="false"
     inkscape:showpageshadow="false"
     inkscape:snap-global="false"
     inkscape:snap-nodes="true">
    <sodipodi:guide
       position="0,411.37501"
       orientation="1,0"
       id="guide4765" />
    <sodipodi:guide
       position="18.18,410.73144"
       orientation="1,0"
       id="guide4769" />
    <sodipodi:guide
       position="36.360001,410.73144"
       orientation="1,0"
       id="guide4771" />
    <sodipodi:guide
       position="54.540001,410.73144"
       orientation="1,0"
       id="guide4773" />
    <sodipodi:guide
       position="72.720001,410.73144"
       orientation="1,0"
       id="guide4775" />
    <sodipodi:guide
       position="90.900002,410.73144"
       orientation="1,0"
       id="guide4777" />
    <sodipodi:guide
       position="109.08,410.73144"
       orientation="1,0"
       id="guide4779" />
    <sodipodi:guide
       position="127.26,410.73144"
       orientation="1,0"
       id="guide4781"
       inkscape:label=""
       inkscape:color="rgb(0,0,255)" />
    <sodipodi:guide
       position="145.44,410.73144"
       orientation="1,0"
       id="guide4783" />
    <sodipodi:guide
       position="163.62,410.73144"
       orientation="1,0"
       id="guide4785" />
    <sodipodi:guide
       position="181.8,410.73144"
       orientation="1,0"
       id="guide4787" />
    <sodipodi:guide
       position="199.98,410.73144"
       orientation="1,0"
       id="guide4789"
       inkscape:label=""
       inkscape:color="rgb(0,255,54)" />
    <sodipodi:guide
       position="218.16,410.73144"
       orientation="1,0"
       id="guide4791" />
    <sodipodi:guide
       position="254.52,410.73144"
       orientation="1,0"
       id="guide4795" />
    <sodipodi:guide
       position="272.7,410.73144"
       orientation="1,0"
       id="guide4797" />
    <sodipodi:guide
       position="290.88001,410.73144"
       orientation="1,0"
       id="guide4799" />
    <sodipodi:guide
       position="309.06001,410.73144"
       orientation="1,0"
       id="guide4801" />
    <sodipodi:guide
       position="345.41999,410.73144"
       orientation="1,0"
       id="guide4805" />
    <sodipodi:guide
       position="363.59998,410.73144"
       orientation="1,0"
       id="guide4807" />
    <sodipodi:guide
       position="381.77998,410.73144"
       orientation="1,0"
       id="guide4809" />
    <sodipodi:guide
       position="400.00147,254.93962"
       orientation="1,0"
       id="guide4811" />
    <sodipodi:guide
       position="413.875,400.00001"
       orientation="0,1"
       id="guide4813" />
    <sodipodi:guide
       position="409.04996,381.82003"
       orientation="0,1"
       id="guide4815" />
    <sodipodi:guide
       position="409.04996,363.64003"
       orientation="0,1"
       id="guide4817" />
    <sodipodi:guide
       position="405.75,345.46004"
       orientation="0,1"
       id="guide4819" />
    <sodipodi:guide
       position="411.625,327.28005"
       orientation="0,1"
       id="guide4821" />
    <sodipodi:guide
       position="409.04996,309.10006"
       orientation="0,1"
       id="guide4823" />
    <sodipodi:guide
       position="411,290.92006"
       orientation="0,1"
       id="guide4825" />
    <sodipodi:guide
       position="411,272.74007"
       orientation="0,1"
       id="guide4827" />
    <sodipodi:guide
       position="409.04996,254.56008"
       orientation="0,1"
       id="guide4829" />
    <sodipodi:guide
       position="405.52575,236.38008"
       orientation="0,1"
       id="guide4831" />
    <sodipodi:guide
       position="412.125,218.20009"
       orientation="0,1"
       id="guide4833" />
    <sodipodi:guide
       position="409.04996,200.02001"
       orientation="0,1"
       id="guide4835"
       inkscape:label=""
       inkscape:color="rgb(0,255,92)" />
    <sodipodi:guide
       position="409.04996,181.8401"
       orientation="0,1"
       id="guide4837" />
    <sodipodi:guide
       position="411.75,163.66011"
       orientation="0,1"
       id="guide4839" />
    <sodipodi:guide
       position="409.04996,145.48012"
       orientation="0,1"
       id="guide4841" />
    <sodipodi:guide
       position="409.04996,127.30012"
       orientation="0,1"
       id="guide4843" />
    <sodipodi:guide
       position="409.04996,109.12013"
       orientation="0,1"
       id="guide4845" />
    <sodipodi:guide
       position="409.04996,72.760144"
       orientation="0,1"
       id="guide4849" />
    <sodipodi:guide
       position="409.04996,54.580151"
       orientation="0,1"
       id="guide4851" />
    <sodipodi:guide
       position="409.04996,36.400158"
       orientation="0,1"
       id="guide4853" />
    <sodipodi:guide
       position="409.04996,18.220165"
       orientation="0,1"
       id="guide4855" />
    <sodipodi:guide
       position="406.32813,0"
       orientation="0,1"
       id="guide4536" />
    <sodipodi:guide
       position="327.23999,414.8949"
       orientation="1,0"
       id="guide4256" />
    <sodipodi:guide
       position="236.34,428.00001"
       orientation="1,0"
       id="guide4253" />
    <sodipodi:guide
       position="419.4288,90.943193"
       orientation="0,1"
       id="guide4339" />
  </sodipodi:namedview>
  <metadata
     id="metadata4222">
    <rdf:RDF>
      <cc:Work
         rdf:about="">
        <dc:format>image/svg+xml</dc:format>
        <dc:type
           rdf:resource="http://purl.org/dc/dcmitype/StillImage" />
        <dc:title>raspberry pi</dc:title>
        <dc:creator>
          <cc:Agent>
            <dc:title>Johannes Hechler</dc:title>
          </cc:Agent>
        </dc:creator>
        <dc:rights>
          <cc:Agent>
            <dc:title>Johannes Hechler</dc:title>
          </cc:Agent>
        </dc:rights>
        <dc:publisher>
          <cc:Agent>
            <dc:title>RRZE</dc:title>
          </cc:Agent>
        </dc:publisher>
        <dc:contributor>
          <cc:Agent>
            <dc:title>Ute Weber,
Hendrik Eggers</dc:title>
          </cc:Agent>
        </dc:contributor>
        <cc:license
           rdf:resource="http://creativecommons.org/licenses/by-nc/3.0/" />
        <dc:date>Jan 2016</dc:date>
        <dc:source>https://www.raspberrypi.org</dc:source>
        <dc:description>logo, raspberry pi, </dc:description>
      </cc:Work>
      <cc:License
         rdf:about="http://creativecommons.org/licenses/by-nc/3.0/">
        <cc:permits
           rdf:resource="http://creativecommons.org/ns#Reproduction" />
        <cc:permits
           rdf:resource="http://creativecommons.org/ns#Distribution" />
        <cc:requires
           rdf:resource="http://creativecommons.org/ns#Notice" />
        <cc:requires
           rdf:resource="http://creativecommons.org/ns#Attribution" />
        <cc:prohibits
           rdf:resource="http://creativecommons.org/ns#CommercialUse" />
        <cc:permits
           rdf:resource="http://creativecommons.org/ns#DerivativeWorks" />
      </cc:License>
    </rdf:RDF>
  </metadata>
  <g
     inkscape:label="Ebene 1"
     inkscape:groupmode="layer"
     id="layer1"
     transform="translate(0,-652.36214)">
    <g
       id="g4462">
      <g
         style="stroke-width:0.09846674;stroke-miterlimit:4;stroke-dasharray:none"
         transform="matrix(1.0155713,0,0,1.0155713,-3.1414492,-13.385318)"
         id="g4441">
        <path
           style="color:#000000;font-style:normal;font-variant:normal;font-weight:normal;font-stretch:normal;font-size:medium;line-height:normal;font-family:sans-serif;text-indent:0;text-align:start;text-decoration:none;text-decoration-line:none;text-decoration-style:solid;text-decoration-color:#000000;letter-spacing:normal;word-spacing:normal;text-transform:none;direction:ltr;block-progression:tb;writing-mode:lr-tb;baseline-shift:baseline;text-anchor:start;white-space:normal;clip-rule:nonzero;display:inline;overflow:visible;visibility:visible;opacity:1;isolation:auto;mix-blend-mode:normal;color-interpolation:sRGB;color-interpolation-filters:linearRGB;solid-color:#000000;solid-opacity:1;fill:#202425;fill-opacity:1;fill-rule:nonzero;stroke:none;stroke-width:0.09846674;stroke-linecap:butt;stroke-linejoin:round;stroke-miterlimit:4;stroke-dasharray:none;stroke-dashoffset:0;stroke-opacity:1;color-rendering:auto;image-rendering:auto;shape-rendering:auto;text-rendering:auto;enable-background:accumulate"
           d="m 136.01367,655.47266 c -2.44599,0.0764 -4.78322,0.60465 -7.04687,1.3125 -2.09102,-0.34966 -4.30779,-0.59046 -6.74024,-0.50586 -3.96615,0.13793 -7.77663,1.30701 -11.38867,2.96875 -3.17717,0.10708 -6.46005,0.53242 -9.73633,1.78125 -1.166556,0.44466 -1.991973,1.00106 -2.927732,1.53125 -1.129933,0.0518 -2.197087,0.0681 -3.568359,0.26367 -4.196824,0.59841 -9.434023,2.20709 -14.453125,5.62109 -7.708322,1.27037 -15.30508,5.05233 -19.970703,12.25391 -4.006057,6.18337 -4.85862,13.16602 -3.960938,19.48828 -0.588097,1.73728 -1.130773,3.68194 -1.355469,6.01172 -0.47802,4.95657 0.764349,9.54986 2.5625,13.74023 -0.06805,2.7859 0.144706,5.59365 0.939454,8.33985 a 7.0007,7.0007 0 0 0 0,0.002 c 0.908242,3.1373 2.30104,5.79778 3.80664,8.20703 0.356128,3.1157 1.038326,6.25133 2.480469,9.24219 1.204513,2.49805 2.711738,4.59462 4.296875,6.46484 2.358314,7.82108 7.214054,13.1239 11.146484,16.33203 1.078254,2.26438 2.428535,4.62643 4.451172,6.90235 0.758839,0.85386 1.656465,1.48593 2.490234,2.22265 -1.939974,2.17523 -3.805657,4.52303 -5.541015,7.09375 -7.051993,10.44674 -11.241487,23.7452 -12.255859,39.42579 -11.981453,9.67494 -21.004595,24.08988 -24.875,41.17382 -4.297112,18.96728 -1.006411,41.65997 13.894531,61.04102 2.028625,8.57469 4.59125,15.42441 6.574219,21.04883 3.144855,19.22947 12.705588,33.87954 22.583984,43.625 8.454699,8.34096 16.291918,13.4922 24.140628,16.3243 9.26678,6.9441 20.19428,14.096 34.03906,19.5547 16.27319,15.2768 35.52241,22.41 54.03516,22.3984 l 0.68554,0 c 18.49831,-10e-5 37.7305,-7.1319 53.99024,-22.3965 13.84403,-5.4587 24.77256,-12.6107 34.03906,-19.5548 7.84875,-2.832 15.68414,-7.98337 24.13867,-16.32415 9.87738,-9.74451 19.4381,-24.39277 22.58399,-43.61914 1.98267,-5.62398 4.54124,-12.47464 6.57031,-21.04883 14.90463,-19.38235 18.19596,-42.07772 13.89844,-61.04687 -3.87059,-17.0847 -12.89277,-31.50084 -24.875,-41.17578 -1.01461,-15.67973 -5.20418,-28.97754 -12.25586,-39.42383 -1.73507,-2.5703 -3.6014,-4.91688 -5.54102,-7.0918 0.83432,-0.7371 1.73093,-1.37023 2.49024,-2.22461 2.02324,-2.27656 3.37478,-4.63934 4.45312,-6.9043 3.93216,-3.20829 8.78664,-8.51034 11.14453,-16.33007 1.58528,-1.87033 3.09427,-3.96666 4.29883,-6.46485 1.44153,-2.98963 2.12215,-6.12373 2.47852,-9.23828 1.50642,-2.41042 2.89821,-5.07302 3.80664,-8.21094 0.79482,-2.74557 1.00913,-5.55346 0.9414,-8.33789 1.79898,-4.19118 3.03872,-8.78619 2.56055,-13.74414 -0.22452,-2.32792 -0.76599,-4.27141 -1.35352,-6.00781 0.89839,-6.32302 0.0437,-13.30796 -3.96289,-19.49219 -4.66601,-7.20216 -12.26174,-10.98386 -19.9707,-12.2539 -5.01896,-3.41375 -10.25667,-5.02275 -14.45313,-5.6211 -1.3703,-0.19539 -2.43682,-0.21184 -3.5664,-0.26367 -0.936,-0.53037 -1.76083,-1.08645 -2.92774,-1.53125 -3.27645,-1.24889 -6.5609,-1.67421 -9.73828,-1.78125 -3.61203,-1.66173 -7.42253,-2.83081 -11.38867,-2.96875 -2.62136,-0.0911 -4.97778,0.19688 -7.17578,0.59766 -4.7474,-1.34526 -9.4872,-1.69961 -13.95117,-0.65625 -2.26842,0.53019 -3.75485,1.14588 -5.25196,1.73242 -4.31541,-0.30955 -8.55522,-0.0346 -12.47265,1.48437 -1.14038,0.44218 -1.65155,0.74033 -2.37696,1.09766 -5.09198,0.10516 -10.10634,1.17494 -14.50585,3.70898 -1.77945,1.02494 -3.18818,2.08759 -4.43946,3.11719 -2.18919,0.41178 -4.3251,1.06251 -6.25586,2.20117 a 7.0007,7.0007 0 0 0 -0.0156,0.008 c -4.37252,2.59384 -8.0604,5.64028 -11.28321,8.85937 -3.22105,-3.21906 -6.90728,-6.26584 -11.27929,-8.85937 a 7.0007,7.0007 0 0 0 -0.002,0 c -1.93859,-1.14906 -4.08637,-1.80593 -6.28711,-2.22071 -1.24694,-1.02526 -2.64874,-2.08416 -4.42188,-3.10547 -4.39919,-2.53386 -9.41426,-3.60368 -14.50586,-3.70898 -0.72541,-0.35733 -1.23656,-0.65548 -2.37695,-1.09766 -3.82358,-1.48258 -7.94017,-1.75968 -12.125,-1.49804 -2.79741,-1.22065 -6.66028,-2.43879 -12.00586,-2.42774 a 7.0007,7.0007 0 0 0 -0.93555,-0.041 z m 0.42969,13.99414 a 7.0007,7.0007 0 0 0 0.008,0 c 4.39718,-0.13736 6.60365,0.8893 8.04297,1.65039 a 7.0007,7.0007 0 0 0 4.04492,0.76953 c 3.07539,-0.341 6.06583,0.0577 7.47852,0.60547 a 7.0007,7.0007 0 0 0 0,0.002 c 1.31402,0.5095 1.6547,0.71284 2.54101,1.17969 a 7.0007,7.0007 0 0 0 3.44532,0.80469 c 3.5314,-0.0927 6.9777,0.75245 8.9707,1.90039 1.53475,0.88399 2.56561,1.72046 3.57031,2.64843 a 7.0007,7.0007 0 0 0 4.4961,1.85352 c 0.87655,0.032 1.73126,0.28335 2.49218,0.73437 5.37943,3.19163 9.52103,7.22163 12.86133,11.58204 a 7.0007,7.0007 0 0 0 11.11133,0.002 c 3.34061,-4.35773 7.48448,-8.38603 12.86133,-11.57813 0.75838,-0.44641 1.60826,-0.69524 2.48047,-0.72656 a 7.0007,7.0007 0 0 0 4.50195,-1.85547 c 1.00445,-0.92904 2.04174,-1.77184 3.58398,-2.66015 1.99302,-1.14795 5.4393,-1.99304 8.97071,-1.90039 a 7.0007,7.0007 0 0 0 3.44531,-0.80469 c 0.88629,-0.46684 1.227,-0.67019 2.54101,-1.17969 a 7.0007,7.0007 0 0 0 0,-0.002 c 1.45146,-0.5628 4.51417,-0.96446 7.63282,-0.59571 a 7.0007,7.0007 0 0 0 3.66211,-0.55468 c 0.97393,-0.43222 2.41846,-0.98658 4.55664,-1.48633 1.48394,-0.34684 5.03926,-0.25702 8.13867,0.80273 a 7.0007,7.0007 0 0 0 3.87305,0.18946 c 1.73632,-0.41024 3.48003,-0.6424 5.4414,-0.57422 1.96297,0.0683 4.62269,0.78227 7.08985,2.07031 a 7.0007,7.0007 0 0 0 3.28125,0.79492 c 2.43599,-0.0147 4.43436,0.28105 6.2539,0.97461 0.64491,0.24583 1.34255,0.62349 2.17188,1.16797 a 7.0007,7.0007 0 0 0 3.74609,1.14844 c 1.1719,0.016 2.28137,0.0696 3.58789,0.25586 2.70618,0.38585 6.43014,1.5491 9.44727,3.87304 a 7.0007,7.0007 0 0 0 3.52734,1.41602 c 5.0864,0.54384 9.37843,2.78882 11.67774,6.33789 2.19742,3.39177 2.58745,7.19993 1.74023,11.16016 a 7.0007,7.0007 0 0 0 0.35937,4.0957 c 0.5278,1.30057 0.88111,2.4401 1.0293,3.97656 0.22104,2.2918 -0.41437,5.15759 -1.8789,8.13281 a 7.0007,7.0007 0 0 0 -0.69922,3.63868 c 0.14484,1.8456 -0.0333,3.68292 -0.43555,5.07226 -0.60024,2.07336 -1.53589,3.86749 -2.83203,5.75195 a 7.0007,7.0007 0 0 0 -1.2207,3.56055 c -0.13218,2.27643 -0.63968,4.38162 -1.39649,5.95117 -0.78038,1.61846 -1.77032,2.98948 -2.93359,4.23828 a 7.0007,7.0007 0 0 0 -1.70899,3.24805 c -1.16469,5.22749 -5.09632,9.18572 -8.00781,11.38281 a 7.0007,7.0007 0 0 0 -2.26367,2.94336 c -0.66713,1.63516 -1.5622,3.23475 -2.83594,4.66797 -1.42617,1.60476 -3.41335,3.02029 -5.94336,4.24219 a 7.0007,7.0007 0 0 0 -1.60547,11.53516 c 3.48587,3.09775 6.68781,6.5638 9.46094,10.67187 5.8923,8.72879 9.68251,20.33224 10.17774,35.42188 a 7.0007,7.0007 0 0 0 2.89257,5.4414 c 10.24665,7.4156 18.56828,19.80542 22.00977,34.9961 3.52057,15.5397 0.9347,34.27498 -12.10742,50.52148 a 7.0007,7.0007 0 0 0 -1.37696,2.87109 c -1.86102,8.42741 -4.42831,14.94499 -6.6875,21.39063 a 7.0007,7.0007 0 0 0 -0.31445,1.25977 c -2.47338,16.23611 -10.49396,28.47212 -18.74414,36.61132 -7.88648,7.78037 -14.20628,11.6331 -19.95898,13.51563 a 7.0007,7.0007 0 0 0 -2.03907,1.0664 c -9.2311,6.96582 -19.45254,13.73202 -32.64062,18.75002 a 7.0007,7.0007 0 0 0 -2.37891,1.5137 c -14.05829,13.613 -30.01488,19.3964 -45.31836,19.3965 l -0.68945,0 a 7.0007,7.0007 0 0 0 -0.004,0 c -15.31476,0.01 -31.28509,-5.7737 -45.35547,-19.3984 a 7.0007,7.0007 0 0 0 -2.38086,-1.5137 c -13.18793,-5.018 -23.40951,-11.7843 -32.64062,-18.75007 a 7.0007,7.0007 0 0 0 -2.03906,-1.0664 c -5.75299,-1.88263 -12.07282,-5.7355 -19.959087,-13.51568 -8.250895,-8.13985 -16.273368,-20.37738 -18.746094,-36.61523 a 7.0007,7.0007 0 0 0 -0.314453,-1.26172 c -2.259022,-6.44479 -4.824897,-12.95821 -6.685547,-21.38477 a 7.0007,7.0007 0 0 0 -1.376953,-2.87305 C 57.087409,902.71265 54.500958,883.97891 58.021484,868.43945 c 3.441483,-15.19068 11.765063,-27.5805 22.011719,-34.99609 a 7.0007,7.0007 0 0 0 2.892578,-5.44141 c 0.495232,-15.08964 4.283477,-26.69308 10.175781,-35.42187 2.773157,-4.10809 5.977048,-7.57415 9.462888,-10.67188 a 7.0007,7.0007 0 0 0 -1.60547,-11.53515 c -2.530014,-1.22192 -4.519153,-2.63745 -5.945308,-4.24219 -1.273726,-1.43322 -2.16682,-3.03277 -2.833984,-4.66797 a 7.0007,7.0007 0 0 0 -2.265626,-2.94336 c -2.911452,-2.19708 -6.841163,-6.15537 -8.005859,-11.38281 a 7.0007,7.0007 0 0 0 -1.710937,-3.24805 c -1.163288,-1.24883 -2.153215,-2.61985 -2.933594,-4.23828 -0.756818,-1.56957 -1.264361,-3.67426 -1.396484,-5.95117 a 7.0007,7.0007 0 0 0 -1.220704,-3.5625 c -1.296122,-1.88453 -2.232062,-3.67643 -2.832031,-5.74805 l 0,-0.002 c -0.401972,-1.38992 -0.580306,-3.2278 -0.435547,-5.07227 a 7.0007,7.0007 0 0 0 -0.697265,-3.63867 c -1.464529,-2.97517 -2.10189,-5.84096 -1.88086,-8.13281 0.148184,-1.53646 0.501502,-2.67598 1.029297,-3.97656 a 7.0007,7.0007 0 0 0 0.359375,-4.09571 c -0.847202,-3.96029 -0.455235,-7.76842 1.742188,-11.16015 2.299302,-3.54907 6.591329,-5.79406 11.677734,-6.33789 a 7.0007,7.0007 0 0 0 3.527344,-1.41602 c 3.017063,-2.32382 6.739415,-3.48722 9.445312,-3.87305 1.306178,-0.18627 2.415404,-0.2398 3.587889,-0.25586 a 7.0007,7.0007 0 0 0 3.7461,-1.14843 c 0.82929,-0.54445 1.52708,-0.92219 2.17187,-1.16797 1.81953,-0.69355 3.81788,-0.98927 6.25391,-0.97461 a 7.0007,7.0007 0 0 0 3.28125,-0.79492 c 2.46715,-1.28804 5.12689,-2.00205 7.08984,-2.07032 1.87828,-0.0653 3.56399,0.13561 5.18945,0.5 a 7.0007,7.0007 0 0 0 4.08399,-0.3125 c 1.58353,-0.62005 3.16024,-0.95068 4.45703,-0.99218 z m 125.91211,11.32422 a 7.0007,7.0007 0 0 0 -2.7207,0.64843 l 0.002,-0.004 c -0.70499,0.3264 -1.90302,0.83372 -4.19141,1.5625 -0.74392,0.23656 -1.51784,0.24114 -2.28125,0.13867 0.54509,0.25826 1.32166,0.86977 2.38477,2.37695 0.25882,0.36693 0.16718,0.25868 0.27344,0.46485 a 7.0007,7.0007 0 0 0 -0.0215,0.0762 c -0.30388,-0.50813 -0.70281,-1.17604 -1.22266,-1.65821 -1.25506,-1.1641 -1.83939,-1.26353 -2.1875,-1.38476 -0.0506,-0.0147 -0.10398,-0.009 -0.15429,-0.0254 0.006,7.3e-4 0.10651,0.0176 0.12305,0.0137 -0.0114,-0.004 -0.038,-0.0153 -0.0488,-0.0195 a 7.0007,7.0007 0 0 0 -6.94336,1.06055 c 0.49261,-0.39612 -0.15318,0.19558 -2.87696,1.21289 a 7.0007,7.0007 0 0 0 0,0.002 c -0.93147,0.34791 -1.93565,0.41669 -2.90625,0.21484 -0.002,-7.4e-4 -0.0351,-0.0156 -0.0351,-0.0156 -5.5e-4,-1.8e-4 -0.85529,-0.22619 -1.20703,-0.27344 -0.70349,-0.0945 -1.20996,-0.0672 -1.60547,-0.0293 a 7.0007,7.0007 0 0 0 -4.70313,2.49024 c -0.0569,0.0577 -0.0297,0.0285 -0.1289,0.12695 -0.44243,0.43886 -1.24584,1.23174 -2.40625,2.41406 -1.03196,1.05144 -2.42224,1.61612 -3.8711,1.58789 l -0.61523,-0.0117 a 7.0007,7.0007 0 0 0 -4.62891,1.62695 c -8.691,7.2609 -13.38026,18.10782 -15.32226,24.95508 -0.87234,3.07251 -2.79883,3.9082 -5.11328,3.9082 -2.31397,0 -4.24264,-0.83535 -5.11524,-3.90625 l 0,-0.002 c -1.94323,-6.84945 -6.62102,-17.69664 -15.30469,-24.95508 a 7.0007,7.0007 0 0 0 -4.63086,-1.62891 l -0.61132,0.0137 c -1.44956,0.0288 -2.84258,-0.53793 -3.875,-1.58984 -1.16035,-1.18226 -1.9638,-1.9732 -2.40625,-2.41211 -0.10647,-0.10561 -0.0824,-0.0796 -0.13868,-0.13672 a 7.0007,7.0007 0 0 0 -4.68164,-2.48047 c -0.39462,-0.0384 -0.89882,-0.0656 -1.60156,0.0274 -0.35137,0.0465 -1.20648,0.26935 -1.20703,0.26953 -2e-5,0 -0.0423,0.0184 -0.0449,0.0195 -0.97289,0.2038 -1.97828,0.13391 -2.91211,-0.21484 -2.72379,-1.01733 -3.36958,-1.60902 -2.87695,-1.21289 a 7.0007,7.0007 0 0 0 -6.94532,-1.06055 c -0.01,0.004 -0.0329,0.0139 -0.043,0.0176 0.0192,0.005 0.13674,-0.0137 0.14258,-0.0156 -0.0585,0.0192 -0.12073,0.0122 -0.17969,0.0293 -0.35012,0.12213 -0.9385,0.22286 -2.19726,1.39648 -0.66403,0.61912 -1.36414,1.71988 -1.55664,2.125 -0.1925,0.40513 0.0313,-0.21506 0.58789,-1.00781 1.06215,-1.51292 1.83929,-2.12557 2.38672,-2.38672 -0.76144,0.10099 -1.5316,0.0936 -2.27344,-0.14258 l 0,0.002 c -2.68186,-0.85409 -4.27425,-1.41139 -4.6543,-1.56836 a 7.0007,7.0007 0 0 0 -6.33398,0.5039 c -1.4131,0.86753 -3.11123,1.02167 -4.65039,0.42579 -1.93578,-0.75081 -3.53403,-1.07694 -4.2168,-1.17188 a 7.0007,7.0007 0 0 0 -5.56054,1.6543 c -1.15078,1.00168 -2.64393,1.45062 -4.13672,1.25781 -0.96727,-0.12613 -1.92013,-0.12772 -1.89063,-0.12695 a 7.0007,7.0007 0 0 0 -5.02148,1.93945 c -1.0205,0.97675 -2.36134,1.49741 -3.75196,1.4707 -1.95731,-0.0413 -1.2817,-0.1121 -2.63867,-0.16015 l -0.002,0 c -1.11164,-0.0395 -2.222308,-0.0285 -3.544923,0.16015 -0.441931,0.063 -0.796572,0.1261 -1.03125,0.16992 -0.234679,0.0438 -1.074056,0.0585 0.517578,-0.0527 a 7.0007,7.0007 0 0 0 -5.251953,2.97656 c -0.931821,1.33516 -2.383136,2.15496 -3.972656,2.26758 a 7.0007,7.0007 0 0 0 -6.378907,8.30859 c 0.266114,1.37957 -0.009,2.80633 -0.759765,3.98047 l 0.03906,-0.0605 c -0.101625,0.15541 -0.417606,0.75837 -0.5,0.91992 a 7.0007,7.0007 0 0 0 -0.002,0.004 7.0007,7.0007 0 0 0 0.816406,7.23438 c 0.04144,0.0533 0.506424,0.58909 0.492188,0.57422 -0.01424,-0.0149 -0.405977,-0.46488 -0.412109,-0.47266 l -0.0078,-0.0117 c 1.08556,1.38213 1.438039,3.21361 0.9375,4.91602 a 7.0007,7.0007 0 0 0 0.871094,5.82617 c 0.282242,0.4282 0.960126,1.4245 1.884765,2.45508 l -0.0078,-0.008 c 1.093513,1.22269 1.57946,2.88522 1.308594,4.52539 a 7.0007,7.0007 0 0 0 2.308593,6.41992 c -0.211923,-0.18459 0.433457,0.40754 1.021485,0.82226 1.596838,1.1266 2.465198,3.03324 2.253906,5.01758 a 7.0007,7.0007 0 0 0 5.435547,7.46485 c 0.62768,0.46492 0.53008,0.43716 1.496094,1.0957 1.156833,0.7887 1.969303,2.00866 2.250003,3.41016 0.0806,0.40264 0.10146,0.50714 0.12695,0.625 a 7.0007,7.0007 0 0 0 3.62891,4.73828 c 0.93261,0.48201 2.16497,0.95802 3.95312,1.42578 1.74675,0.45714 3.14561,1.76655 3.72266,3.5293 a 7.0007,7.0007 0 0 0 4.37695,4.4414 c 0.10441,0.0359 1.46315,0.53633 3.87305,1.18555 2.55765,0.68934 3.62969,2.38635 3.91016,4.5039 0.28047,2.11756 -0.31931,4.05539 -2.61719,5.40039 -8.21992,4.8095 -15.34499,10.09027 -20.46289,17.67188 -5.039426,7.4653 -8.460709,17.70058 -8.414067,32.88281 0.0029,0.93902 -0.236116,1.86153 -0.689453,2.67578 l -2.494141,4.48047 a 7.0007,7.0007 0 0 0 -0.002,0 c -0.452948,0.8135 -1.103169,1.49016 -1.884766,1.96875 -8.677498,5.31269 -16.875024,16.35513 -20.003906,30.16602 -3.014245,13.30482 -0.925391,28.99437 11.59961,43.23242 0.645401,0.73365 1.08288,1.63581 1.261718,2.60937 1.684313,9.17488 4.498042,15.71719 7.277344,23.77735 0.121204,0.35228 0.206595,0.71532 0.253906,1.08594 a 7.0007,7.0007 0 0 0 0,0.002 c 1.82229,14.23647 8.690521,24.68181 15.882815,31.77734 3.83344,3.78187 8.00291,6.48813 11.11914,8.30469 1.55811,0.90828 2.8661,1.59248 3.67187,2.00781 0.3549,0.18294 0.5674,0.29358 0.58008,0.29883 a 7.0007,7.0007 0 0 0 1.82032,0.7832 c 0.69687,0.17507 1.35364,0.49202 1.92968,0.9336 9.94477,7.6251 20.16581,14.57977 33.99805,19.47067 0.77356,0.2736 1.47574,0.7257 2.05273,1.3243 12.74926,13.2356 26.31895,18.0742 39.77539,18.0644 l 0.39454,0 a 7.0007,7.0007 0 0 0 0.0801,0 c 0.0405,-5e-4 0.0806,-5e-4 0.1211,0 a 7.0007,7.0007 0 0 0 0.0781,0 c 13.45644,0.01 27.02772,-4.8264 39.7793,-18.0644 0.57721,-0.5992 1.2806,-1.0505 2.05469,-1.3243 13.83165,-4.8907 24.05172,-11.84594 33.99609,-19.47067 0.57604,-0.44158 1.23281,-0.75853 1.92969,-0.9336 a 7.0007,7.0007 0 0 0 1.91992,-0.83398 7.0007,7.0007 0 0 0 0.002,-0.002 c 0.087,-0.0447 0.18656,-0.0946 0.48047,-0.2461 0.80565,-0.41532 2.11195,-1.09953 3.66992,-2.00781 3.11595,-1.81656 7.28582,-4.52294 11.11914,-8.30469 7.19196,-7.0952 14.06019,-17.5399 15.88282,-31.77539 l 0,-0.002 c 0.0476,-0.37061 0.13243,-0.73567 0.2539,-1.08789 2.77929,-8.06016 5.59304,-14.60252 7.27735,-23.77735 0.17871,-0.97351 0.61646,-1.87567 1.26172,-2.60937 12.52484,-14.23788 14.61394,-29.92725 11.5996,-43.23242 -3.12903,-13.81154 -11.32599,-24.85362 -20.0039,-30.16602 -0.7816,-0.47859 -1.43182,-1.15525 -1.88477,-1.96875 l -2.49609,-4.48047 c -0.45348,-0.81421 -0.69222,-1.73672 -0.68945,-2.67578 0.0467,-15.18193 -3.37438,-25.41711 -8.41407,-32.88281 -5.11819,-7.58207 -12.24236,-12.86216 -20.46289,-17.67188 -2.29787,-1.34491 -2.89756,-3.28284 -2.61718,-5.40039 0.2803,-2.11701 1.35202,-3.81409 3.9082,-4.5039 2.40965,-0.64912 3.7686,-1.14899 3.875,-1.18555 a 7.0007,7.0007 0 0 0 4.37695,-4.4414 c 0.57706,-1.76275 1.97591,-3.07216 3.72266,-3.5293 1.78877,-0.46789 3.02615,-0.94688 3.95312,-1.42578 a 7.0007,7.0007 0 0 0 3.62696,-4.73633 c 0.0183,-0.0845 0.0482,-0.21443 0.13086,-0.62695 0.2807,-1.40151 1.09121,-2.62147 2.24804,-3.41016 0.9657,-0.65826 0.86804,-0.62852 1.4961,-1.09375 a 7.0007,7.0007 0 0 0 5.43554,-7.4668 c -0.21119,-1.98443 0.65691,-3.89108 2.25391,-5.01758 0.57997,-0.4091 1.21097,-0.98663 0.99414,-0.79882 a 7.0007,7.0007 0 0 0 2.32422,-6.42969 c -0.27088,-1.64259 0.21763,-3.30846 1.31445,-4.53125 0.92609,-1.03223 1.60339,-2.02964 1.88867,-2.46289 a 7.0007,7.0007 0 0 0 0.86914,-5.82422 c -0.50026,-1.70148 -0.14678,-3.53018 0.9375,-4.91211 l -0.004,0.004 c -0.002,0.003 -0.3528,0.41253 -0.40821,0.4707 -0.0554,0.0582 0.42784,-0.49396 0.47071,-0.54883 a 7.0007,7.0007 0 0 0 0.75,-7.41797 c -0.007,-0.0136 -0.0255,-0.0444 -0.0352,-0.0625 -0.10141,-0.18972 -0.30041,-0.55277 -0.36719,-0.65625 l 0.0117,0.0176 c -0.7522,-1.17336 -1.02831,-2.59847 -0.76367,-3.97851 a 7.0007,7.0007 0 0 0 -6.37305,-8.30079 c -1.58794,-0.11405 -3.03802,-0.93348 -3.96875,-2.26757 A 7.0007,7.0007 0 0 0 302.3457,687.5 c 1.61851,0.10902 0.76524,0.0945 0.53125,0.0508 -0.23398,-0.0437 -0.5891,-0.10492 -1.03125,-0.16797 a 7.0007,7.0007 0 0 0 -0.0176,-0.002 c -1.29739,-0.18158 -2.40541,-0.19774 -3.52539,-0.1582 a 7.0007,7.0007 0 0 0 -0.002,0 c -1.3569,0.0481 -0.68912,0.1187 -2.63281,0.16015 -10e-4,3e-5 -0.003,-2e-5 -0.004,0 -1.38877,0.0253 -2.72691,-0.49524 -3.74609,-1.4707 a 7.0007,7.0007 0 0 0 -5.02735,-1.93945 c 0.0429,-10e-4 -0.91188,10e-4 -1.88476,0.12695 -1.4934,0.19315 -2.98568,-0.25759 -4.13672,-1.25977 a 7.0007,7.0007 0 0 0 -5.55859,-1.65429 c -0.67956,0.0943 -2.28466,0.41947 -4.23243,1.17578 -1.5708,0.60884 -3.30516,0.4368 -4.73242,-0.47461 a 7.0007,7.0007 0 0 0 -3.99023,-1.0957 z m 56.7207,24.87304 a 7.0007,7.0007 0 0 0 -0.27539,-0.50781 c 0.0624,0.10088 0.21147,0.3895 0.27539,0.50781 z m -238.353514,0.22852 c 0.05945,-0.11101 0.36857,-0.71359 0.462891,-0.85938 a 7.0007,7.0007 0 0 0 -0.462891,0.85938 z m 79.572264,-20.4082 c -0.0148,0.007 -0.10721,0.0496 -0.14453,0.0664 l -0.002,-0.0234 c -1.02009,0.36466 -0.17432,0.0757 0.14648,-0.043 z m 79.33399,0.008 c 0.36598,0.12626 1.05099,0.36558 0.13281,0.0371 l -0.002,0.0215 c -0.032,-0.0145 -0.11737,-0.0525 -0.13086,-0.0586 z m -8.11329,2.84961 a 7.0007,7.0007 0 0 0 -0.74414,1.57617 c 0.26656,-0.87318 0.55791,-1.36064 0.74414,-1.57617 z m -63.11914,0.002 c 0.18772,0.21326 0.47709,0.70416 0.74219,1.57422 a 7.0007,7.0007 0 0 0 -0.74219,-1.57422 z m 1.09571,3.67969 c 6e-5,0.004 0.002,0.003 0.002,0.008 4e-5,0.003 -2e-5,0.007 0,0.01 a 7.0007,7.0007 0 0 0 -0.002,-0.0176 z m 61.04883,1.42187 a 7.0007,7.0007 0 0 0 0.006,0.0274 c -4e-5,-1.1e-4 -0.004,-0.01 -0.004,-0.01 0,10e-6 -0.002,-0.0173 -0.002,-0.0176 z m 0.57617,1.73438 a 7.0007,7.0007 0 0 0 0.008,0.0137 c -1e-5,-10e-6 -0.004,-0.004 -0.004,-0.004 0,1e-5 -0.004,-0.01 -0.004,-0.01 z m -62.33203,0.008 c -3e-5,6e-5 -0.002,0.008 -0.002,0.008 0,0 -0.004,0.004 -0.004,0.004 a 7.0007,7.0007 0 0 0 0.006,-0.0117 z m 93.49414,0.17578 c 4.05565,1.56017 8.51563,1.67519 12.70312,0.34766 2.98383,1.65645 6.37092,2.39549 9.80469,2.3164 3.27134,2.21498 7.14638,3.42934 11.14648,3.35352 a 7.0007,7.0007 0 0 0 0.0137,0 c 2.17113,-0.0453 2.39639,-0.12864 2.59375,-0.15039 1.62984,1.58798 3.52863,2.81296 5.59179,3.73828 0.17512,1.16435 0.46059,2.30201 0.84375,3.41797 -1.43932,3.09817 -1.97974,6.51804 -1.67578,9.92773 -2.41552,3.16595 -3.85216,6.92987 -4.0293,10.8711 -2.74452,2.83625 -4.65374,6.3517 -5.30273,10.22265 -0.3395,0.2534 -0.50032,0.39538 -1.06641,0.78125 -3.19591,2.17889 -5.62552,5.25804 -7.04882,8.79883 -4.38465,1.53693 -8.03451,4.53149 -10.33594,8.51172 -0.17306,0.0476 -0.0921,0.037 -0.30274,0.0937 a 7.0007,7.0007 0 0 0 -0.002,0 c -8.03009,2.16477 -13.19985,9.04894 -14.14453,16.18359 -0.94468,7.13466 2.24628,15.11939 9.42383,19.32032 a 7.0007,7.0007 0 0 0 0.002,0.002 c 7.39977,4.3295 12.49782,8.33792 15.92969,13.42187 3.51037,5.20021 6.05816,11.80356 6.01758,25.00586 a 7.0007,7.0007 0 0 0 0,0.002 c -0.01,3.33424 0.83641,6.616 2.45898,9.52929 l 2.49414,4.48047 c 1.62064,2.9101 3.96517,5.35579 6.80664,7.09571 3.64348,2.23044 11.48524,11.72023 13.66016,21.32031 2.28962,10.10633 1.44344,19.638 -8.45703,30.89258 -2.32358,2.64209 -3.88438,5.86627 -4.51953,9.32617 -1.39408,7.59386 -3.7947,13.1942 -6.74219,21.74219 -0.43373,1.2576 -0.73731,2.55553 -0.90625,3.875 -1.38066,10.78655 -6.26339,18.09608 -11.83008,23.58789 -2.54617,2.51191 -5.82714,4.71513 -8.33594,6.17773 -1.2544,0.7313 -2.30243,1.27852 -3.03515,1.65625 -0.36636,0.18886 -0.59568,0.30055 -0.99024,0.51758 -0.0103,0.006 -0.0323,0.0195 -0.043,0.0254 -1.92703,0.6746 -3.77252,1.56027 -5.39843,2.80664 a 7.0007,7.0007 0 0 0 -0.002,0 c -9.54647,7.31972 -18.1693,13.14782 -30.14648,17.38281 -2.83011,1.00078 -5.38657,2.64921 -7.46875,4.81055 a 7.0007,7.0007 0 0 0 -0.002,0.002 c -10.71195,11.12056 -19.15267,13.78196 -29.6875,13.77536 -0.0959,-7e-4 -0.19119,-7e-4 -0.28711,0 l -0.39454,0 a 7.0007,7.0007 0 0 0 -0.006,0 c -10.53305,0.01 -18.97315,-2.6543 -29.68555,-13.77536 a 7.0007,7.0007 0 0 0 0,-0.002 c -2.08219,-2.16134 -4.6406,-3.80977 -7.47071,-4.81055 -11.97718,-4.23499 -20.6,-10.06309 -30.14648,-17.38281 -1.62592,-1.24637 -3.47335,-2.13204 -5.40039,-2.80664 -0.0106,-0.006 -0.0327,-0.0197 -0.043,-0.0254 -0.39447,-0.21695 -0.62385,-0.32872 -0.99023,-0.51758 -0.73278,-0.37771 -1.78066,-0.92691 -3.03516,-1.6582 -2.509,-1.46259 -5.79185,-3.66399 -8.33789,-6.17578 -5.56599,-5.49112 -10.44673,-12.79963 -11.82812,-23.58399 l 0,-0.004 c -0.16853,-1.31811 -0.47152,-2.6166 -0.9043,-3.87305 a 7.0007,7.0007 0 0 0 0,-0.002 c -2.947516,-8.54799 -5.34811,-14.14829 -6.742189,-21.74219 -0.635594,-3.46006 -2.197361,-6.68426 -4.521485,-9.32617 -9.900385,-11.25447 -10.746727,-20.7859 -8.457031,-30.89258 2.174914,-9.60008 10.016655,-19.08987 13.660156,-21.32031 a 7.0007,7.0007 0 0 0 0.002,0 c 2.841473,-1.73992 5.184059,-4.18561 6.804689,-7.09571 l 0,-0.002 2.49414,-4.47852 a 7.0007,7.0007 0 0 0 0.002,-0.002 c 1.62205,-2.91343 2.46731,-6.19519 2.45703,-9.5293 -0.0406,-13.202 2.50694,-19.80526 6.01758,-25.00586 a 7.0007,7.0007 0 0 0 0,-0.002 c 3.43188,-5.08396 8.52991,-9.09042 15.92968,-13.41992 a 7.0007,7.0007 0 0 0 0.002,-0.002 c 7.17752,-4.20119 10.36881,-12.18758 9.42382,-19.32227 -0.94498,-7.13469 -6.11617,-14.01728 -14.14648,-16.18164 -0.21071,-0.0568 -0.12968,-0.0461 -0.30274,-0.0937 -2.30122,-3.97987 -5.94985,-6.97466 -10.33398,-8.51172 -1.4233,-3.5408 -3.85486,-6.61994 -7.05078,-8.79883 -0.56593,-0.38576 -0.72686,-0.52782 -1.06641,-0.78125 -0.64963,-3.87626 -2.56381,-7.39424 -5.31445,-10.23242 -0.17625,-3.93448 -1.605991,-7.69404 -4.013675,-10.85742 0.304288,-3.41431 -0.238084,-6.83616 -1.68164,-9.9375 0.381419,-1.11434 0.665766,-2.24972 0.839843,-3.41211 2.064387,-0.92493 3.964767,-2.14996 5.595702,-3.73828 0.19597,0.0215 0.42147,0.10504 2.59571,0.15039 a 7.0007,7.0007 0 0 0 0.01,0 c 4.00418,0.0784 7.88355,-1.13628 11.15821,-3.35352 3.43128,0.0791 6.81645,-0.65833 9.79882,-2.3125 4.13635,1.30878 8.53844,1.20227 12.5586,-0.31054 0.88697,0.29747 1.41888,0.51652 2.72851,0.93359 2.80462,0.89298 5.73643,0.89398 8.6211,0.46875 1.00339,0.48859 2.13085,0.98256 3.68359,1.5625 2.34658,0.87637 4.82765,1.10391 7.31055,1.0293 0.23318,0.23499 0.30637,0.30301 0.58789,0.58984 3.06412,3.12195 7.09824,5.01302 11.38867,5.55078 4.20525,4.44346 8.55316,13.08752 9.55664,16.625 a 7.0007,7.0007 0 0 0 0.002,0.002 c 2.53294,8.9214 10.7508,14.08398 18.58204,14.08398 7.83124,0 16.04909,-5.16258 18.58203,-14.08398 a 7.0007,7.0007 0 0 0 0,-0.002 c 0.9967,-3.51469 5.35584,-12.17364 9.57031,-16.62304 4.29115,-0.53742 8.32605,-2.42837 11.39062,-5.55079 0.28231,-0.28764 0.35614,-0.35628 0.58985,-0.59179 2.48239,0.0743 4.96251,-0.15303 7.30859,-1.0293 1.55371,-0.5803 2.68179,-1.07363 3.68555,-1.5625 2.8844,0.42505 5.8148,0.42415 8.61914,-0.46875 1.2204,-0.38866 1.6982,-0.64055 2.58594,-0.97461 z m -27.06446,3.39649 c -0.0747,-0.0267 0.21103,0.0576 0.22657,0.0625 -0.0295,-0.008 -0.16805,-0.0371 -0.16797,-0.0371 2e-5,0 -0.0542,-0.0234 -0.0586,-0.0254 z m -70.5332,0.002 c -0.005,0.002 -0.0606,0.0274 -0.0605,0.0273 8e-5,-2e-5 -0.14101,0.0312 -0.17187,0.0391 0.0225,-0.007 0.30342,-0.0918 0.23242,-0.0664 z M 306.89062,712.5 c 0.008,0.0119 0.012,0.0252 0.0195,0.0371 -0.005,-0.008 -0.0139,-0.0255 -0.0195,-0.0352 -2.4e-4,-4.1e-4 2.5e-4,-0.002 0,-0.002 z m -4.98437,14.23828 c -0.0467,0.033 -0.0766,0.0819 -0.12305,0.11524 l 0.0195,-0.0566 c -0.50376,0.43634 0.041,-0.0145 0.10352,-0.0586 z m -203.898438,0.002 c 0.09618,0.074 0.575701,0.47328 0.09961,0.0586 l 0.01953,0.0527 c -0.04488,-0.0322 -0.07394,-0.0794 -0.119141,-0.11133 z m 195.794918,17.96485 a 7.0007,7.0007 0 0 0 0.16602,0.84375 c -0.13589,-0.44197 -0.1702,-0.69174 -0.16602,-0.84375 z m -187.70507,0.0664 c 0.006,0.15561 -0.0313,0.37033 -0.15235,0.76758 a 7.0007,7.0007 0 0 0 0.15235,-0.76758 z m 17.46484,226.19141 c 0.15021,-10e-4 0.0357,0.016 0.1582,0.0176 a 7.0007,7.0007 0 0 0 -0.31054,0.006 c 0.0329,-2.3e-4 0.12131,-0.0232 0.15234,-0.0234 z m 152.78516,0 c 0.0338,3e-4 0.12998,0.0251 0.16601,0.0254 a 7.0007,7.0007 0 0 0 -0.30664,-0.01 c 0.11138,-10e-4 0.007,-0.0168 0.14063,-0.0156 z m -154.59571,0.28125 a 7.0007,7.0007 0 0 0 -0.375,0.12305 c 0.0671,-0.027 0.14201,-0.0799 0.19336,-0.0957 0.0945,-0.0291 0.095,-0.003 0.18164,-0.0273 z m 156.42383,0.002 c 0.0782,0.0218 0.0776,-6.3e-4 0.16211,0.0254 0.0522,0.0161 0.12885,0.0682 0.19727,0.0957 a 7.0007,7.0007 0 0 0 -0.35938,-0.1211 z m -158.35937,0.88477 a 7.0007,7.0007 0 0 0 -0.30079,0.21289 c 0.008,-0.009 0.0977,-0.1133 0.0977,-0.11328 -5e-5,4e-5 0.1748,-0.084 0.20313,-0.0996 z m 160.29297,0.006 c 0.0239,0.0131 0.18559,0.0918 0.18554,0.0918 -2e-5,-2e-5 0.0946,0.10873 0.10352,0.11914 a 7.0007,7.0007 0 0 0 -0.28906,-0.21094 z m -162.64844,2.59961 a 7.0007,7.0007 0 0 0 -0.13086,0.27148 c 0.002,-0.0123 0.0293,-0.15236 0.0293,-0.15234 -2e-5,2e-5 0.0927,-0.10889 0.10156,-0.11914 z m 164.99218,0.006 c 0.008,0.009 0.0957,0.11135 0.0957,0.11133 -10e-6,-2e-5 0.0287,0.14323 0.0312,0.15625 a 7.0007,7.0007 0 0 0 -0.12696,-0.26758 z m -165.77539,3.56836 a 7.0007,7.0007 0 0 0 0.0137,0.29687 c -0.005,-0.0207 -0.041,-0.16215 -0.041,-0.16211 0,2e-5 0.0254,-0.12503 0.0273,-0.13476 z m 166.55469,0 c 0.002,0.009 0.0254,0.13088 0.0254,0.13086 1e-5,-5e-5 -0.0386,0.15452 -0.0449,0.17968 a 7.0007,7.0007 0 0 0 0.0195,-0.31054 z m -0.53515,2.375 c -0.003,0.0128 -0.0313,0.12699 -0.0312,0.12695 6e-5,-1.5e-4 -0.11465,0.1958 -0.1543,0.26953 a 7.0007,7.0007 0 0 0 0.18555,-0.39648 z m -165.47852,0.0254 a 7.0007,7.0007 0 0 0 0.16992,0.35547 c -0.0352,-0.0654 -0.14459,-0.2521 -0.14453,-0.25196 1e-5,3e-5 -0.0232,-0.0949 -0.0254,-0.10351 z m 164.83984,1.1582 c -0.0362,0.0582 -0.0659,0.12527 -0.0937,0.16406 -0.13816,0.19265 -0.24351,0.30742 -0.35546,0.4375 a 7.0007,7.0007 0 0 0 0.44921,-0.60156 z m -164.17968,0.0508 a 7.0007,7.0007 0 0 0 0.34765,0.46094 c -0.0927,-0.11146 -0.17184,-0.19325 -0.28125,-0.3457 -0.0196,-0.0273 -0.0424,-0.0778 -0.0664,-0.11524 z m 0.46093,0.59961 a 7.0007,7.0007 0 0 0 0.21875,0.23633 c -0.0609,-0.0644 -0.0121,0.008 -0.0801,-0.0664 -0.0391,-0.0425 -0.0961,-0.12129 -0.13868,-0.16992 z m 163.19727,0.0391 c -0.0319,0.036 -0.0756,0.0983 -0.10547,0.13086 -0.0726,0.079 -0.0214,0.002 -0.0859,0.0703 a 7.0007,7.0007 0 0 0 0.19141,-0.20118 z"
           id="path4272"
           inkscape:connector-curvature="0" />
        <path
           style="color:#000000;font-style:normal;font-variant:normal;font-weight:normal;font-stretch:normal;font-size:medium;line-height:normal;font-family:sans-serif;text-indent:0;text-align:start;text-decoration:none;text-decoration-line:none;text-decoration-style:solid;text-decoration-color:#000000;letter-spacing:normal;word-spacing:normal;text-transform:none;direction:ltr;block-progression:tb;writing-mode:lr-tb;baseline-shift:baseline;text-anchor:start;white-space:normal;clip-rule:nonzero;display:inline;overflow:visible;visibility:visible;opacity:1;isolation:auto;mix-blend-mode:normal;color-interpolation:sRGB;color-interpolation-filters:linearRGB;solid-color:#000000;solid-opacity:1;fill:url(#linearGradient4300);fill-opacity:1;fill-rule:nonzero;stroke:none;stroke-width:0.09846674;stroke-linecap:butt;stroke-linejoin:round;stroke-miterlimit:4;stroke-dasharray:none;stroke-dashoffset:0;stroke-opacity:1;color-rendering:auto;image-rendering:auto;shape-rendering:auto;text-rendering:auto;enable-background:accumulate"
           d="m 136.03444,666.41518 c -4.23383,1.11961 -8.68874,1.7572 -12.98758,0.74997 -5.36296,0.42326 -10.16557,3.4059 -15.63863,3.36323 -3.73353,1.24586 -7.27969,3.38888 -11.356934,3.12487 -4.829764,0.6014 -8.9645,3.5045 -13.281149,5.33601 -9.330842,0.52493 -18.052461,9.73434 -15.760867,19.40518 0.671075,4.54782 -2.480359,8.87032 -0.885617,13.3163 0.942345,3.69884 2.457884,7.263 2.214954,11.13617 0.820461,5.19177 4.654504,9.37154 4.946867,14.67091 0.990005,4.89094 5.295713,8.17564 6.400455,12.93356 1.882915,5.20204 6.576552,8.58948 9.856179,12.69325 1.945311,5.26603 7.037177,8.18714 11.320342,11.24467 2.10514,3.78656 -1.893532,6.85858 -4.334668,9.11302 -11.43372,11.68784 -16.305032,28.40617 -16.65994,44.40411 -3.216097,5.93195 -9.948195,8.84814 -13.369765,14.69998 -16.189013,21.12258 -17.587252,52.99185 -1.439097,74.51528 3.139212,3.8705 4.450017,8.66291 5.621738,13.39246 2.919151,8.52374 5.415724,17.19657 7.600811,25.92982 6.307994,18.64375 20.860215,34.20274 38.874121,41.71984 8.17901,5.44429 16.02064,11.48019 25.04839,15.37089 4.72827,2.3251 10.02073,3.8632 13.56879,7.9924 18.7991,16.5265 46.95523,22.0205 69.88479,11.547 8.72491,-3.7766 16.42217,-9.4572 23.45986,-15.8181 12.84988,-4.5597 24.03927,-12.5727 35.33857,-20.07462 16.05135,-6.46318 28.30649,-20.30719 35.41162,-36.01312 3.5095,-8.8292 4.95366,-18.44829 8.36312,-27.36684 1.99026,-5.74487 2.6475,-12.24858 6.92415,-16.85029 13.30244,-18.90416 14.92698,-45.32036 3.68146,-65.73515 -4.20475,-8.36911 -10.73783,-15.24014 -17.83092,-21.16525 -2.16938,-7.65646 -1.37123,-15.88105 -4.23933,-23.38809 -3.18275,-10.68809 -9.5838,-20.27176 -17.8517,-27.64172 -2.02565,-3.6981 2.01806,-6.78074 5.03158,-8.01132 5.05079,-3.18037 6.4246,-9.8026 11.40601,-13.11573 3.48708,-3.38546 4.94569,-8.22375 7.04923,-12.37445 4.15014,-3.99398 3.94292,-10.03105 6.24639,-14.88696 2.93857,-4.2013 2.78818,-9.38464 3.62136,-14.16414 2.65632,-4.86489 2.06263,-10.70377 0.48516,-15.78228 2.30619,-8.65199 -2.95871,-19.37992 -12.21549,-20.86045 -3.99881,-0.76945 -7.63411,-2.57617 -11.07206,-4.64915 -4.89792,-1.88291 -10.46633,-1.32321 -15.04469,-4.07347 -4.36689,-1.06942 -8.98044,-1.16208 -13.06749,-3.22758 -4.27439,-1.25997 -8.75633,-0.0164 -13.00972,-0.28487 -5.25365,-1.98394 -10.93091,-0.52393 -15.93222,1.22476 -5.25229,-0.9158 -10.16755,1.20857 -15.01485,2.59679 -5.85075,-0.33963 -11.21034,2.68164 -15.6675,6.16253 -8.27086,1.33087 -13.76157,8.40813 -19.1512,14.09824 -2.51496,1.82446 -6.1865,0.51981 -7.36618,-2.25539 -4.64526,-5.56623 -10.46967,-10.63194 -17.69066,-12.24594 -4.05984,-3.1892 -8.80379,-6.01583 -14.14368,-5.63736 -4.65872,-0.78509 -8.99294,-3.55984 -13.8626,-2.69078 -4.61133,-0.36399 -8.72896,-2.97822 -13.48141,-2.42819 z m 1.47761,17.76476 c 4.28407,0.98913 8.61017,3.02444 13.05882,1.5852 3.75834,1.31085 7.55428,3.78502 11.66592,2.50185 4.14219,0.76429 5.82196,5.42062 9.89759,6.2255 3.13782,0.26045 6.19663,1.29244 8.2727,3.84187 5.31528,5.85511 8.73359,13.06244 11.47436,20.42164 0.95333,3.02231 2.97552,5.97536 6.36769,6.29431 4.22523,0.8585 9.10187,-1.75174 9.75664,-6.26966 3.37233,-8.68388 7.37417,-18.04996 15.34448,-23.38898 3.14149,-0.89373 6.96464,-0.71448 8.99466,-3.80992 2.18866,-2.40694 5.47596,-4.03183 8.70588,-2.98728 4.12592,-0.34906 7.90343,-4.12391 12.1915,-2.31482 2.89576,0.2667 5.67088,-1.84422 8.34394,-1.79257 -0.87757,0.35536 1.72465,-0.72262 2.65489,-0.0717 2.94663,1.31924 6.33951,1.86143 9.27093,0.24513 2.97792,-1.03096 5.78239,0.6876 8.22554,2.10749 3.2297,0.57593 6.96598,-0.0878 9.51735,2.49312 3.79226,2.28009 8.47924,-0.0317 12.28103,1.81097 2.46085,1.5793 4.10665,4.64412 7.39191,4.5647 2.74503,0.57255 4.73758,3.35728 3.83024,6.1422 0.0312,3.41627 3.11131,6.81016 0.77298,10.06643 -1.44781,2.39677 -1.83607,5.16032 -1.03288,7.81849 -0.12191,4.02116 -4.83872,6.21865 -4.26438,10.46658 0.12639,2.71106 -1.14072,5.17406 -3.31332,6.71679 -2.15627,2.18861 -2.18697,5.43516 -2.90902,8.14983 -2.07897,3.53831 -7.51076,4.21981 -8.07729,8.78842 -0.95513,3.28143 -4.02568,5.27288 -7.26581,5.66158 -3.9953,1.66482 -4.45523,7.35334 -8.95808,8.23412 -4.46538,0.72783 -8.73926,4.76934 -7.73364,9.62172 0.47858,3.88935 3.5221,6.87078 7.06462,8.15371 13.34651,7.44492 23.29123,21.54953 23.91903,37.13604 0.30402,6.52322 0.0621,13.86554 5.04602,18.85386 3.98761,3.97195 9.08962,6.80842 12.10102,11.74177 11.67406,15.41868 13.49943,39.10766 0.87201,54.53175 -3.12969,3.70396 -5.80822,7.96965 -6.27816,12.91545 -2.54695,9.45667 -6.56708,18.4032 -8.15971,28.08509 -4.09936,15.4686 -16.38838,27.74864 -30.82508,33.85954 -9.69781,6.35702 -18.92252,14.01189 -30.07051,17.88784 -4.56731,1.6194 -8.68003,4.2902 -11.90329,7.9269 -9.45575,8.7089 -22.17454,13.7252 -35.03145,13.1981 -13.49508,-0.2557 -26.65597,-6.3398 -35.77141,-16.3354 -4.78343,-4.4647 -11.37074,-5.008 -16.79382,-8.44067 -8.25009,-4.15764 -15.36419,-10.21337 -23.31472,-14.81523 -10.18586,-4.68291 -19.23905,-12.14118 -24.7154,-22.08373 -3.858094,-6.49096 -5.775608,-13.90205 -7.086365,-21.25886 -3.05301,-8.21026 -5.326615,-16.79458 -7.919542,-25.07802 -4.912761,-6.83659 -10.547412,-13.64571 -11.935449,-22.25389 -4.095948,-18.58398 4.711232,-38.77651 20.197577,-49.36807 4.519559,-4.30325 5.857226,-10.85717 5.271267,-16.87817 0.619572,-15.28881 8.543372,-30.547 22.016912,-38.15728 4.10862,-2.43428 10.13697,-5.59257 9.33928,-11.30673 -0.40403,-4.54168 -4.48016,-7.97615 -8.8936,-8.11977 -4.1181,-1.49436 -4.15358,-7.51448 -8.82717,-8.22916 -2.98968,-0.75061 -5.70724,-2.79917 -6.24447,-5.97958 -1.42359,-3.53241 -5.020408,-5.19009 -7.724962,-7.47449 -1.850289,-2.69399 -0.456486,-6.64104 -3.307572,-8.86204 -2.062316,-1.78215 -3.75696,-4.24719 -3.229552,-7.10822 -0.144555,-3.31645 -2.593125,-5.8105 -4.012162,-8.53644 -0.730169,-3.28609 1.158858,-7.22763 -1.761574,-9.82423 -1.278721,-2.4319 -0.431152,-5.34537 0.917357,-7.50257 -0.05451,-2.89174 -0.249534,-7.50644 3.514474,-8.0336 3.431229,-0.3245 5.756978,-3.11051 8.250594,-5.03272 4.478977,-1.52799 10.215397,0.88853 13.799057,-3.02697 3.44296,-1.65753 7.83727,0.25495 10.72833,-2.82838 4.09061,-2.13086 8.24506,2.02698 12.41387,0.1589 1.32294,-0.2162 2.53621,-1.27335 3.88992,-1.03775 z m 124.78555,1.21312 c 0.0324,0.48157 0.41314,0.75368 0.0578,0.84879 0.39284,1.51653 2.45458,-0.69624 1.24719,-0.8021 -1.55128,1.36825 -1.0678,-2.13141 -1.30495,-0.0466 z m -1.1792,-0.0872 c -0.22278,0.52929 0.33229,-0.29548 0,0 z m 1.0762,0.45735 c 0.40205,-0.34816 -0.65892,-0.4769 0,0 z m 0.18386,-0.12402 c -0.0155,0.009 0.0132,-0.0377 0,0 z m -0.95876,0.4651 c 0.90103,0.12467 0.85547,-0.26845 0,0 z m 0.91544,-0.0466 c 10e-4,0.008 0.006,-0.0139 0,0 z m 0.66806,0.094 c -0.0229,0.0109 -0.0946,-0.0387 0,0 z m -1.84437,0.28487 c -0.8464,2.29983 2.07849,0.49486 0,0 z m -0.027,0.093 c -0.0316,0.0164 0.0407,-0.0755 0,0 z m 0.71522,1.26932 c 0.90224,-0.28764 0.61342,-0.26958 0,0 z m -11.85074,0.281 c -1.89678,2.76786 3.07106,0.24671 0,0 z m -101.02439,0.0322 c -2.49629,1.75527 3.71321,1.62985 0,0 z m -27.99377,289.29014 c -0.4713,0.0606 -0.78842,1.58034 -0.19156,0.56293 -0.0607,-0.0928 1.82077,-1.69856 0.19156,-0.56293 z m 0.39179,0.20931 c 0.0641,-0.0372 -0.16533,-0.0154 0,0 z m -0.52655,0.0533 c -0.041,0.0169 0.0306,-0.0194 0,0 z m -0.9732,0.50965 c 0.54993,0.15404 0.0506,-0.83693 0,0 z m 0.8625,-0.23545 c -0.0385,0.006 -0.15871,-0.0549 0,0 z m 0.77394,0.48156 c 0.0108,0.25614 0.98361,-1.04033 0,0 z m -0.84229,0.57365 c -0.30286,1.18836 2.2926,-1.1021 0,0 z m 78.44917,38.11466 c -0.94851,1.0429 1.74442,0.076 0,0 z"
           id="path4251"
           inkscape:connector-curvature="0" />
        <path
           inkscape:connector-curvature="0"
           d="m 136.61384,675.19003 c -1.78381,0.0557 -3.70489,0.71901 -5.8835,2.44951 -5.33616,-2.07187 -10.51123,-2.79167 -15.13999,1.42627 -7.14342,-0.93302 -9.46795,0.99261 -11.22793,3.2402 -1.56854,-0.0327 -11.739298,-1.6233 -16.402919,5.37959 -11.721007,-1.39573 -15.424886,6.93945 -11.227952,14.71259 -2.393763,3.73015 -4.874121,7.41535 0.72391,14.52649 -1.980304,3.96069 -0.752841,8.25719 3.912063,13.4568 -1.231111,5.56757 1.188823,9.49586 5.529228,12.55761 -0.811787,7.61895 6.941169,12.04911 9.256519,13.62736 0.888968,4.43948 2.741711,8.62857 11.597551,10.94527 1.46046,6.61608 6.78275,7.75861 11.93641,9.14691 -17.03413,9.96646 -31.641824,23.08005 -31.542908,55.25348 l -2.495094,4.48041 c -19.532416,11.95722 -37.104981,50.38736 -9.626163,81.62449 1.794941,9.7774 4.805171,16.80004 7.485285,24.57263 4.00886,31.31924 30.17162,45.9846 37.07219,47.71892 10.11174,7.75315 20.88151,15.10964 35.45499,20.26274 13.7385,14.2627 28.62219,19.6984 43.58715,19.689 0.2194,-10e-5 0.44285,0.01 0.66228,0 14.96496,0.01 29.84865,-5.4263 43.58715,-19.689 14.57348,-5.1531 25.34325,-12.50959 35.45499,-20.26274 6.90057,-1.73432 33.06335,-16.39968 37.07218,-47.71892 2.68012,-7.77259 5.69035,-14.79523 7.48528,-24.57263 27.47884,-31.23713 9.90626,-69.66727 -9.62613,-81.62449 l -2.4951,-4.48041 c 0.0989,-32.17343 -14.50879,-45.28702 -31.54293,-55.25348 5.15367,-1.3883 10.47596,-2.53083 11.93642,-9.14691 8.85584,-2.3167 10.70861,-6.50579 11.59757,-10.94527 2.31532,-1.57825 10.06827,-6.00841 9.25649,-13.62736 4.34044,-3.06175 6.76034,-6.99004 5.52925,-12.55761 4.66488,-5.19961 5.89237,-9.49611 3.91207,-13.4568 5.598,-7.11114 3.11765,-10.79634 0.72388,-14.52649 4.19695,-7.77314 0.49306,-16.10832 -11.22793,-14.71259 -4.66362,-7.00289 -14.83439,-5.41228 -16.40293,-5.37959 -1.75998,-2.24759 -4.08451,-4.17322 -11.22793,-3.2402 -4.62876,-4.21794 -9.80383,-3.49814 -15.13999,-1.42627 -6.33776,-5.03417 -10.53349,-0.9988 -15.32481,0.52714 -7.6757,-2.52409 -9.42987,0.93307 -13.19936,2.34096 -8.36639,-1.78007 -10.90971,2.09529 -14.92436,6.18576 l -4.66676,-0.093 c -12.62236,7.48778 -18.89312,22.73417 -21.11589,30.57235 -2.22381,-7.83937 -8.48035,-23.08591 -21.10049,-30.57235 l -4.66676,0.093 c -4.01465,-4.09047 -6.55797,-7.96583 -14.92436,-6.18576 -3.76949,-1.40789 -5.52366,-4.86505 -13.19936,-2.34096 -3.1443,-1.00141 -6.03587,-3.08303 -9.44131,-2.97665 z"
           style="fill:#2e3436;stroke-width:0.09846674;stroke-miterlimit:4;stroke-dasharray:none"
           id="path4" />
        <g
           id="g4266"
           style="fill:#73d216;stroke-width:0.1991327;stroke-miterlimit:4;stroke-dasharray:none"
           transform="matrix(0.49285824,0,0,0.49610313,591.49995,181.93947)">
          <path
             id="path6"
             style="fill:#73d216;stroke-width:0.1991327;stroke-miterlimit:4;stroke-dasharray:none"
             d="m -973.93743,1059.9956 c 67.94767,35.0313 107.44689,63.3689 129.08717,87.5044 -11.08235,44.4176 -68.89638,46.4447 -90.03559,45.1986 4.32842,-2.0147 7.93988,-4.4278 9.22051,-8.1357 -5.30449,-3.7698 -24.11289,-0.3972 -37.24363,-7.7742 5.04407,-1.045 7.40348,-2.063 9.76289,-5.7854 -12.40571,-3.9567 -25.76862,-7.3664 -33.62774,-13.9212 4.24125,0.052 8.20115,0.9488 13.74036,-2.8927 -11.11169,-5.9882 -22.9691,-10.7335 -32.18134,-19.8874 5.74517,-0.1406 11.93941,-0.057 13.74032,-2.1695 -10.17042,-6.3007 -18.75122,-13.3079 -25.85362,-20.9721 8.04,0.9705 11.4353,0.1348 13.3788,-1.2656 -7.6878,-7.8742 -17.4175,-14.5232 -22.0569,-24.2264 5.9696,2.0574 11.4313,2.845 15.3675,-0.1808 -2.6123,-5.8935 -13.8054,-9.3697 -20.2489,-23.1417 6.2843,0.6094 12.9496,1.3711 14.2827,0 -2.9223,-11.8886 -7.9274,-18.57 -12.8364,-25.492 13.4501,-0.1997 33.82777,0.052 32.90458,-1.0848 l -8.31658,-8.4973 c 13.13766,-3.5373 26.58069,0.5682 36.3397,3.6159 4.38186,-3.4577 -0.0776,-7.83 -5.42383,-12.294 11.16496,1.4906 21.25382,4.0573 30.37345,7.5933 4.87238,-4.3993 -3.16389,-8.7986 -7.05098,-13.198 17.24936,3.2726 24.55716,7.8707 31.81981,12.4748 5.26935,-5.0508 0.30166,-9.3433 -3.2543,-13.7403 13.00566,4.817 19.70478,11.0355 26.75756,17.1754 2.39119,-3.227 6.07494,-5.5924 1.62715,-13.3787 9.23416,5.3227 16.18926,11.595 21.33374,18.6218 5.71336,-3.638 3.40387,-8.6131 3.43509,-13.198 9.59665,7.8065 15.68687,16.1139 23.14168,24.2264 1.50169,-1.0934 2.81661,-4.8017 3.97747,-10.6668 22.89539,22.2118 55.24591,78.1582 8.31654,100.3408 -39.91877,-32.9471 -87.61613,-56.8875 -140.47721,-74.8488 z"
             inkscape:connector-curvature="0" />
          <path
             id="path8"
             style="fill:#73d216;stroke-width:0.1991327;stroke-miterlimit:4;stroke-dasharray:none"
             d="m -613.4044,1059.9956 c -67.94767,35.0313 -107.44689,63.3689 -129.08717,87.5044 11.08235,44.4176 68.89638,46.4447 90.03559,45.1986 -4.32842,-2.0147 -7.93988,-4.4278 -9.22051,-8.1357 5.30449,-3.7698 24.11289,-0.3972 37.24363,-7.7742 -5.04407,-1.045 -7.40348,-2.063 -9.76289,-5.7854 12.40571,-3.9567 25.76862,-7.3664 33.62775,-13.9212 -4.24126,0.052 -8.20116,0.9488 -13.74037,-2.8927 11.11169,-5.9882 22.96911,-10.7335 32.18139,-19.8874 -5.74521,-0.1406 -11.93945,-0.057 -13.74037,-2.1695 10.17044,-6.3007 18.75124,-13.3079 25.85359,-20.9721 -8.03998,0.9705 -11.43528,0.1348 -13.37878,-1.2656 7.68779,-7.8742 17.41756,-14.5232 22.05691,-24.2264 -5.96961,2.0574 -11.43125,2.845 -15.36752,-0.1808 2.61237,-5.8935 13.80541,-9.3697 20.24897,-23.1417 -6.28436,0.6094 -12.94961,1.3711 -14.28276,0 2.92231,-11.8886 7.92746,-18.57 12.8364,-25.492 -13.45004,-0.1997 -33.82775,0.052 -32.90457,-1.0848 l 8.31654,-8.4973 c -13.13762,-3.5373 -26.58065,0.5682 -36.33966,3.6159 -4.38186,-3.4577 0.0776,-7.83 5.42383,-12.294 -11.16496,1.4906 -21.25382,4.0573 -30.37345,7.5933 -4.87238,-4.3993 3.16389,-8.7986 7.05098,-13.198 -17.24936,3.2726 -24.55716,7.8707 -31.81981,12.4748 -5.26935,-5.0508 -0.30166,-9.3433 3.2543,-13.7403 -13.00566,4.817 -19.70478,11.0355 -26.75756,17.1754 -2.39119,-3.227 -6.07494,-5.5924 -1.62715,-13.3787 -9.23416,5.3227 -16.18926,11.595 -21.33374,18.6218 -5.71336,-3.638 -3.40387,-8.6131 -3.43509,-13.198 -9.59665,7.8065 -15.68687,16.1139 -23.14168,24.2264 -1.50169,-1.0934 -2.81661,-4.8017 -3.97747,-10.6668 -22.89539,22.2118 -55.24591,78.1582 -8.31654,100.3408 39.91877,-32.9471 87.61613,-56.8875 140.47721,-74.8488 z"
             inkscape:connector-curvature="0" />
        </g>
        <g
           id="g4253"
           style="fill:#cc0000;stroke-width:0.1991327;stroke-miterlimit:4;stroke-dasharray:none"
           transform="matrix(0.49285824,0,0,0.49610313,591.49995,181.93947)">
          <path
             id="path10"
             style="fill:#cc0000;stroke-width:0.1991327;stroke-miterlimit:4;stroke-dasharray:none"
             d="m -711.38293,1512.3011 a 81.390111,75.051762 0 0 1 -162.78022,0 81.390111,75.051762 0 1 1 162.78022,0 z"
             inkscape:connector-curvature="0" />
          <path
             id="path12"
             style="fill:#cc0000;stroke-width:0.1991327;stroke-miterlimit:4;stroke-dasharray:none"
             d="m -839.87525,1297.9024 a 72.998858,86.129695 34.034226 0 1 -94.96784,143.7123 72.998858,86.129695 34.034226 1 1 94.96784,-143.7123 z"
             inkscape:connector-curvature="0" />
          <path
             id="path14"
             style="fill:#cc0000;stroke-width:0.1991327;stroke-miterlimit:4;stroke-dasharray:none"
             d="m -748.84307,1293.9024 a 86.129695,72.998857 55.965774 1 0 94.96784,143.7123 86.129695,72.998857 55.965774 0 0 -94.96784,-143.7123 z"
             inkscape:connector-curvature="0" />
          <path
             id="path16"
             style="fill:#cc0000;stroke-width:0.1991327;stroke-miterlimit:4;stroke-dasharray:none"
             d="m -1008.419,1334.0278 c 36.4142,-9.7569 12.29158,150.6365 -17.3334,137.4758 -32.5868,-26.2127 -43.0831,-102.9754 17.3334,-137.4758 z"
             inkscape:connector-curvature="0" />
          <path
             id="path18"
             style="fill:#cc0000;stroke-width:0.1991327;stroke-miterlimit:4;stroke-dasharray:none"
             d="m -587.65099,1332.0278 c -36.41422,-9.7569 -12.2916,150.6365 17.33338,137.4758 32.58677,-26.2127 43.08307,-102.9754 -17.33338,-137.4758 z"
             inkscape:connector-curvature="0" />
          <path
             id="path20"
             style="fill:#cc0000;stroke-width:0.1991327;stroke-miterlimit:4;stroke-dasharray:none"
             d="m -711.35769,1212.5934 c 62.83486,-10.6101 115.11594,26.7223 113.01138,94.858 -2.06693,26.1211 -136.15872,-90.9691 -113.01138,-94.858 z"
             inkscape:connector-curvature="0" />
          <path
             id="path22"
             style="fill:#cc0000;stroke-width:0.1991327;stroke-miterlimit:4;stroke-dasharray:none"
             d="m -884.96952,1210.5934 c -62.83486,-10.6101 -115.11598,26.7223 -113.01138,94.858 2.06693,26.1211 136.15872,-90.9691 113.01138,-94.858 z"
             inkscape:connector-curvature="0" />
          <path
             id="path24"
             style="fill:#cc0000;stroke-width:0.1991327;stroke-miterlimit:4;stroke-dasharray:none"
             d="m -794.70995,1194.6957 c -37.50259,-0.9755 -73.49548,27.8341 -73.58158,44.5444 -0.10462,20.3043 29.6512,41.0927 73.83726,41.6204 45.12305,0.3232 73.91561,-16.6405 74.0611,-37.5941 0.16484,-23.74 -41.03879,-48.9375 -74.31678,-48.5707 z"
             inkscape:connector-curvature="0" />
          <path
             id="path26"
             style="fill:#cc0000;stroke-width:0.1991327;stroke-miterlimit:4;stroke-dasharray:none"
             d="m -792.4199,1611.0568 c 32.69744,-1.4271 76.57083,10.5319 76.6568,26.3959 0.5427,15.4052 -39.78969,50.2106 -78.82634,49.5377 -40.42729,1.7439 -80.06908,-33.1156 -79.54951,-45.1986 -0.60506,-17.7159 49.226,-31.548 81.71905,-30.735 z"
             inkscape:connector-curvature="0" />
          <path
             id="path28"
             style="fill:#cc0000;stroke-width:0.1991327;stroke-miterlimit:4;stroke-dasharray:none"
             d="m -913.19053,1517.0437 c 23.2791,28.0457 33.89066,77.319 14.46355,91.8435 -18.37917,11.0879 -63.01228,6.5217 -94.73623,-39.0515 -21.39509,-38.2417 -18.63759,-77.1567 -3.61589,-88.5893 22.46442,-13.6843 57.17342,4.799 83.88857,35.7973 z"
             inkscape:connector-curvature="0" />
          <path
             id="path30"
             style="fill:#cc0000;stroke-width:0.1991327;stroke-miterlimit:4;stroke-dasharray:none"
             d="m -676.30837,1508.1518 c -25.18682,29.5016 -39.21227,83.3095 -20.83785,100.6428 17.56828,13.4636 64.7292,11.5816 99.56566,-36.7558 25.29599,-32.4647 16.82013,-86.6822 2.37077,-101.0751 -21.46408,-16.6021 -52.27691,4.6449 -81.09858,37.1881 z"
             inkscape:connector-curvature="0" />
        </g>
        <path
           inkscape:connector-curvature="0"
           style="opacity:0.29200003;fill:url(#linearGradient4330);fill-opacity:1;stroke-width:0.09846674;stroke-miterlimit:4;stroke-dasharray:none"
           d="m 264.00239,857.62361 c -54.04112,0.31913 -90.69594,46.8958 -145.22665,59.20778 -14.48223,3.26981 -29.040915,3.36178 -42.648583,1.71892 1.80534,9.49776 4.750759,16.41083 7.381291,24.03969 4.00886,31.31924 30.171622,45.98459 37.072192,47.71892 10.11174,7.75315 20.88151,15.10968 35.45499,20.26268 13.7385,14.2627 28.62219,19.6985 43.58715,19.6891 0.2194,-10e-5 0.44285,0 0.66228,0 14.96496,0.01 29.84865,-5.4264 43.58715,-19.6891 14.57348,-5.153 25.34325,-12.50953 35.45499,-20.26268 6.90057,-1.73433 33.06335,-16.39968 37.07218,-47.71892 2.68012,-7.7726 5.69035,-14.79521 7.48528,-24.57261 13.16285,-14.96313 15.98455,-31.57578 13.20899,-46.13953 -20.10583,-6.92939 -45.27591,-13.69346 -70.50472,-14.2339 -0.86669,-0.0186 -1.72875,-0.0254 -2.58654,-0.0203 z"
           id="path4310" />
      </g>
      <path
         id="rect4355"
         d="m 0.02565858,652.36852 399.87598142,0 0,399.87448 -399.87598142,0 z"
         style="color:#000000;clip-rule:nonzero;display:inline;overflow:visible;visibility:visible;opacity:0.29200003;isolation:auto;mix-blend-mode:normal;color-interpolation:sRGB;color-interpolation-filters:linearRGB;solid-color:#000000;solid-opacity:1;fill:none;fill-opacity:1;fill-rule:evenodd;stroke:none;stroke-width:20;stroke-linecap:butt;stroke-linejoin:round;stroke-miterlimit:4;stroke-dasharray:none;stroke-dashoffset:0;stroke-opacity:1;color-rendering:auto;image-rendering:auto;shape-rendering:auto;text-rendering:auto;enable-background:accumulate"
         inkscape:connector-curvature="0" />
    </g>
  </g>
</svg>
