<?xml version="1.0" encoding="UTF-8" standalone="no"?>
<!-- Created with Inkscape (http://www.inkscape.org/) -->
<svg xmlns:dc="http://purl.org/dc/elements/1.1/" xmlns:cc="http://creativecommons.org/ns#" xmlns:rdf="http://www.w3.org/1999/02/22-rdf-syntax-ns#" xmlns:svg="http://www.w3.org/2000/svg" xmlns="http://www.w3.org/2000/svg" xmlns:xlink="http://www.w3.org/1999/xlink" xmlns:sodipodi="http://sodipodi.sourceforge.net/DTD/sodipodi-0.dtd" xmlns:inkscape="http://www.inkscape.org/namespaces/inkscape" width="210mm" height="297mm" id="svg2" version="1.1" inkscape:version="0.48.0 r9654">
  <title id="title3925">studon small</title>
  <defs id="defs4">
    <linearGradient inkscape:collect="always" id="linearGradient4212">
      <stop style="stop-color:#2e3436;stop-opacity:1;" offset="0" id="stop4214"/>
      <stop style="stop-color:#2e3436;stop-opacity:0;" offset="1" id="stop4216"/>
    </linearGradient>
    <linearGradient inkscape:collect="always" id="linearGradient3852">
      <stop style="stop-color:#2e3436;stop-opacity:1;" offset="0" id="stop3854"/>
      <stop style="stop-color:#2e3436;stop-opacity:0;" offset="1" id="stop3856"/>
    </linearGradient>
    <linearGradient inkscape:collect="always" id="linearGradient3836">
      <stop style="stop-color:#2e3436;stop-opacity:1;" offset="0" id="stop3838"/>
      <stop style="stop-color:#2e3436;stop-opacity:0;" offset="1" id="stop3840"/>
    </linearGradient>
    <linearGradient inkscape:collect="always" xlink:href="#linearGradient3852" id="linearGradient4038" gradientUnits="userSpaceOnUse" x1="332.29398" y1="626.27679" x2="408.10095" y2="755.6405"/>
    <linearGradient inkscape:collect="always" xlink:href="#linearGradient3836" id="linearGradient4050" gradientUnits="userSpaceOnUse" gradientTransform="matrix(2.6133304,0,0,2.6133304,-297.6555,-858.25103)" x1="160.36646" y1="374.79858" x2="199.29814" y2="489.08429"/>
    <linearGradient inkscape:collect="always" xlink:href="#linearGradient3836" id="linearGradient4052" gradientUnits="userSpaceOnUse" gradientTransform="matrix(2.6417738,0,0,2.6417738,-305.16375,-871.70125)" x1="219.05362" y1="374.2821" x2="248.51758" y2="452.85355"/>
    <linearGradient inkscape:collect="always" xlink:href="#linearGradient3836" id="linearGradient4054" gradientUnits="userSpaceOnUse" gradientTransform="matrix(2.6417738,0,0,2.6417738,-305.16375,-871.70125)" x1="266.33887" y1="366.4505" x2="302.19125" y2="465.02194"/>
    <linearGradient inkscape:collect="always" xlink:href="#linearGradient3836" id="linearGradient4056" gradientUnits="userSpaceOnUse" gradientTransform="matrix(2.6417738,0,0,2.6417738,-305.16375,-871.70125)" x1="317.24472" y1="349.9964" x2="371.70566" y2="468.56784"/>
    <linearGradient inkscape:collect="always" xlink:href="#linearGradient3836" id="linearGradient4066" gradientUnits="userSpaceOnUse" gradientTransform="matrix(2.960855,0,0,2.960855,-1105.6592,-697.25864)" x1="555.67865" y1="357.13925" x2="591.35345" y2="438.56784"/>
    <linearGradient inkscape:collect="always" xlink:href="#linearGradient3836" id="linearGradient4109" gradientUnits="userSpaceOnUse" gradientTransform="matrix(2.6133304,0,0,2.6133304,-297.6555,-858.25103)" x1="160.36646" y1="374.79858" x2="199.29814" y2="489.08429"/>
    <linearGradient inkscape:collect="always" xlink:href="#linearGradient3836" id="linearGradient4111" gradientUnits="userSpaceOnUse" gradientTransform="matrix(2.6417738,0,0,2.6417738,-305.16375,-871.70125)" x1="219.05362" y1="374.2821" x2="248.51758" y2="452.85355"/>
    <linearGradient inkscape:collect="always" xlink:href="#linearGradient3836" id="linearGradient4113" gradientUnits="userSpaceOnUse" gradientTransform="matrix(2.6417738,0,0,2.6417738,-305.16375,-871.70125)" x1="266.33887" y1="366.4505" x2="302.19125" y2="465.02194"/>
    <linearGradient inkscape:collect="always" xlink:href="#linearGradient3836" id="linearGradient4115" gradientUnits="userSpaceOnUse" gradientTransform="matrix(2.6417738,0,0,2.6417738,-305.16375,-871.70125)" x1="317.24472" y1="349.9964" x2="371.70566" y2="468.56784"/>
    <linearGradient inkscape:collect="always" xlink:href="#linearGradient3836" id="linearGradient4117" gradientUnits="userSpaceOnUse" gradientTransform="matrix(2.960855,0,0,2.960855,-1105.6592,-697.25864)" x1="555.67865" y1="357.13925" x2="591.35345" y2="438.56784"/>
    <linearGradient inkscape:collect="always" xlink:href="#linearGradient3852" id="linearGradient4119" gradientUnits="userSpaceOnUse" x1="332.29398" y1="626.27679" x2="408.10095" y2="755.6405"/>
    <linearGradient inkscape:collect="always" xlink:href="#linearGradient3836" id="linearGradient4139" gradientUnits="userSpaceOnUse" gradientTransform="matrix(2.6133304,0,0,2.6133304,-297.6555,-858.25103)" x1="160.36646" y1="374.79858" x2="199.29814" y2="489.08429"/>
    <linearGradient inkscape:collect="always" xlink:href="#linearGradient3836" id="linearGradient4141" gradientUnits="userSpaceOnUse" gradientTransform="matrix(2.6417738,0,0,2.6417738,-305.16375,-871.70125)" x1="219.05362" y1="374.2821" x2="248.51758" y2="452.85355"/>
    <linearGradient inkscape:collect="always" xlink:href="#linearGradient3836" id="linearGradient4143" gradientUnits="userSpaceOnUse" gradientTransform="matrix(2.6417738,0,0,2.6417738,-305.16375,-871.70125)" x1="266.33887" y1="366.4505" x2="302.19125" y2="465.02194"/>
    <linearGradient inkscape:collect="always" xlink:href="#linearGradient3836" id="linearGradient4145" gradientUnits="userSpaceOnUse" gradientTransform="matrix(2.6417738,0,0,2.6417738,-305.16375,-871.70125)" x1="317.24472" y1="349.9964" x2="371.70566" y2="468.56784"/>
    <linearGradient inkscape:collect="always" xlink:href="#linearGradient3836" id="linearGradient4147" gradientUnits="userSpaceOnUse" gradientTransform="matrix(2.960855,0,0,2.960855,-1105.6592,-697.25864)" x1="555.67865" y1="357.13925" x2="591.35345" y2="438.56784"/>
    <linearGradient inkscape:collect="always" xlink:href="#linearGradient3852" id="linearGradient4149" gradientUnits="userSpaceOnUse" x1="332.29398" y1="626.27679" x2="408.10095" y2="755.6405"/>
    <linearGradient inkscape:collect="always" xlink:href="#linearGradient3852" id="linearGradient4166" gradientUnits="userSpaceOnUse" x1="332.29398" y1="626.27679" x2="408.10095" y2="755.6405"/>
    <linearGradient inkscape:collect="always" xlink:href="#linearGradient3836" id="linearGradient4170" gradientUnits="userSpaceOnUse" gradientTransform="matrix(2.960855,0,0,2.960855,-1105.6592,-697.25864)" x1="555.67865" y1="357.13925" x2="591.35345" y2="438.56784"/>
    <linearGradient inkscape:collect="always" xlink:href="#linearGradient3836" id="linearGradient4173" gradientUnits="userSpaceOnUse" gradientTransform="matrix(2.960855,0,0,2.960855,-1080.2306,-644.11578)" x1="555.67865" y1="357.13925" x2="591.35345" y2="438.56784"/>
    <linearGradient inkscape:collect="always" xlink:href="#linearGradient3836" id="linearGradient4176" gradientUnits="userSpaceOnUse" gradientTransform="matrix(2.6133304,0,0,2.6133304,-297.6555,-858.25103)" x1="160.36646" y1="374.79858" x2="199.29814" y2="489.08429"/>
    <linearGradient inkscape:collect="always" xlink:href="#linearGradient3836" id="linearGradient4178" gradientUnits="userSpaceOnUse" gradientTransform="matrix(2.6417738,0,0,2.6417738,-305.16375,-871.70125)" x1="219.05362" y1="374.2821" x2="248.51758" y2="452.85355"/>
    <linearGradient inkscape:collect="always" xlink:href="#linearGradient3836" id="linearGradient4180" gradientUnits="userSpaceOnUse" gradientTransform="matrix(2.6417738,0,0,2.6417738,-305.16375,-871.70125)" x1="266.33887" y1="366.4505" x2="302.19125" y2="465.02194"/>
    <linearGradient inkscape:collect="always" xlink:href="#linearGradient3836" id="linearGradient4182" gradientUnits="userSpaceOnUse" gradientTransform="matrix(2.6417738,0,0,2.6417738,-305.16375,-871.70125)" x1="317.24472" y1="349.9964" x2="371.70566" y2="468.56784"/>
    <linearGradient inkscape:collect="always" xlink:href="#linearGradient3836" id="linearGradient4185" gradientUnits="userSpaceOnUse" gradientTransform="matrix(2.8875391,0,0,2.8875391,-365.31764,-972.8716)" x1="317.24472" y1="349.9964" x2="371.70566" y2="468.56784"/>
    <linearGradient inkscape:collect="always" xlink:href="#linearGradient3836" id="linearGradient4188" gradientUnits="userSpaceOnUse" gradientTransform="matrix(2.8875391,0,0,2.8875391,-365.31764,-972.8716)" x1="266.33887" y1="366.4505" x2="302.19125" y2="465.02194"/>
    <linearGradient inkscape:collect="always" xlink:href="#linearGradient3836" id="linearGradient4191" gradientUnits="userSpaceOnUse" gradientTransform="matrix(2.8875391,0,0,2.8875391,-365.31764,-972.8716)" x1="219.05362" y1="374.2821" x2="248.51758" y2="452.85355"/>
    <linearGradient inkscape:collect="always" xlink:href="#linearGradient3836" id="linearGradient4194" gradientUnits="userSpaceOnUse" gradientTransform="matrix(2.8564496,0,0,2.8564496,-357.1109,-958.1701)" x1="160.36646" y1="374.79858" x2="199.29814" y2="489.08429"/>
    <radialGradient inkscape:collect="always" xlink:href="#linearGradient4212" id="radialGradient4218" cx="370" cy="789.50507" fx="370" fy="789.50507" r="332.85715" gradientTransform="matrix(1,0,0,0.11158797,8.5714286,727.12008)" gradientUnits="userSpaceOnUse"/>
    <radialGradient inkscape:collect="always" xlink:href="#linearGradient4212" id="radialGradient4236" gradientUnits="userSpaceOnUse" gradientTransform="matrix(1,0,0,0.11158797,8.5714286,727.12008)" cx="370" cy="789.50507" fx="370" fy="789.50507" r="332.85715"/>
    <linearGradient inkscape:collect="always" xlink:href="#linearGradient3836" id="linearGradient4238" gradientUnits="userSpaceOnUse" gradientTransform="matrix(2.8564496,0,0,2.8564496,-357.1109,-958.1701)" x1="160.36646" y1="374.79858" x2="199.29814" y2="489.08429"/>
    <linearGradient inkscape:collect="always" xlink:href="#linearGradient3836" id="linearGradient4240" gradientUnits="userSpaceOnUse" gradientTransform="matrix(2.8875391,0,0,2.8875391,-365.31764,-972.8716)" x1="219.05362" y1="374.2821" x2="248.51758" y2="452.85355"/>
    <linearGradient inkscape:collect="always" xlink:href="#linearGradient3836" id="linearGradient4242" gradientUnits="userSpaceOnUse" gradientTransform="matrix(2.8875391,0,0,2.8875391,-365.31764,-972.8716)" x1="266.33887" y1="366.4505" x2="302.19125" y2="465.02194"/>
    <linearGradient inkscape:collect="always" xlink:href="#linearGradient3836" id="linearGradient4244" gradientUnits="userSpaceOnUse" gradientTransform="matrix(2.8875391,0,0,2.8875391,-365.31764,-972.8716)" x1="317.24472" y1="349.9964" x2="371.70566" y2="468.56784"/>
    <linearGradient inkscape:collect="always" xlink:href="#linearGradient3836" id="linearGradient4246" gradientUnits="userSpaceOnUse" gradientTransform="matrix(2.960855,0,0,2.960855,-1080.2306,-644.11578)" x1="555.67865" y1="357.13925" x2="591.35345" y2="438.56784"/>
    <linearGradient inkscape:collect="always" xlink:href="#linearGradient3852" id="linearGradient4248" gradientUnits="userSpaceOnUse" x1="332.29398" y1="626.27679" x2="408.10095" y2="755.6405"/>
    <linearGradient inkscape:collect="always" xlink:href="#linearGradient3852" id="linearGradient4251" gradientUnits="userSpaceOnUse" x1="332.29398" y1="626.27679" x2="408.10095" y2="755.6405" gradientTransform="matrix(5.6336364,0,0,5.6336364,-1726.079,-3194.5488)"/>
    <linearGradient inkscape:collect="always" xlink:href="#linearGradient3836" id="linearGradient4255" gradientUnits="userSpaceOnUse" gradientTransform="matrix(2.960855,0,0,2.960855,-1080.2306,-644.11578)" x1="555.67865" y1="357.13925" x2="591.35345" y2="438.56784"/>
    <linearGradient inkscape:collect="always" xlink:href="#linearGradient3836" id="linearGradient4259" gradientUnits="userSpaceOnUse" gradientTransform="matrix(2.8875391,0,0,2.8875391,-365.31764,-972.8716)" x1="317.24472" y1="349.9964" x2="371.70566" y2="468.56784"/>
    <linearGradient inkscape:collect="always" xlink:href="#linearGradient3836" id="linearGradient4262" gradientUnits="userSpaceOnUse" gradientTransform="matrix(2.8875391,0,0,2.8875391,-365.31764,-972.8716)" x1="266.33887" y1="366.4505" x2="302.19125" y2="465.02194"/>
    <linearGradient inkscape:collect="always" xlink:href="#linearGradient3836" id="linearGradient4265" gradientUnits="userSpaceOnUse" gradientTransform="matrix(2.8875391,0,0,2.8875391,-365.31764,-972.8716)" x1="219.05362" y1="374.2821" x2="248.51758" y2="452.85355"/>
    <linearGradient inkscape:collect="always" xlink:href="#linearGradient3836" id="linearGradient4268" gradientUnits="userSpaceOnUse" gradientTransform="matrix(2.8564496,0,0,2.8564496,-357.1109,-958.1701)" x1="160.36646" y1="374.79858" x2="199.29814" y2="489.08429"/>
    <radialGradient inkscape:collect="always" xlink:href="#linearGradient4212" id="radialGradient4276" gradientUnits="userSpaceOnUse" gradientTransform="matrix(1,0,0,0.11158797,8.5714286,719.12008)" cx="370" cy="789.50507" fx="370" fy="789.50507" r="332.85715"/>
    <radialGradient inkscape:collect="always" xlink:href="#linearGradient4212" id="radialGradient4294" gradientUnits="userSpaceOnUse" gradientTransform="matrix(1,0,0,0.11158797,8.5714286,719.12008)" cx="370" cy="789.50507" fx="370" fy="789.50507" r="332.85715"/>
    <linearGradient inkscape:collect="always" xlink:href="#linearGradient3836" id="linearGradient4296" gradientUnits="userSpaceOnUse" gradientTransform="matrix(2.8564496,0,0,2.8564496,-357.1109,-958.1701)" x1="160.36646" y1="374.79858" x2="199.29814" y2="489.08429"/>
    <linearGradient inkscape:collect="always" xlink:href="#linearGradient3836" id="linearGradient4298" gradientUnits="userSpaceOnUse" gradientTransform="matrix(2.8875391,0,0,2.8875391,-365.31764,-972.8716)" x1="219.05362" y1="374.2821" x2="248.51758" y2="452.85355"/>
    <linearGradient inkscape:collect="always" xlink:href="#linearGradient3836" id="linearGradient4300" gradientUnits="userSpaceOnUse" gradientTransform="matrix(2.8875391,0,0,2.8875391,-365.31764,-972.8716)" x1="266.33887" y1="366.4505" x2="302.19125" y2="465.02194"/>
    <linearGradient inkscape:collect="always" xlink:href="#linearGradient3836" id="linearGradient4302" gradientUnits="userSpaceOnUse" gradientTransform="matrix(2.8875391,0,0,2.8875391,-365.31764,-972.8716)" x1="317.24472" y1="349.9964" x2="371.70566" y2="468.56784"/>
    <linearGradient inkscape:collect="always" xlink:href="#linearGradient3836" id="linearGradient4304" gradientUnits="userSpaceOnUse" gradientTransform="matrix(2.960855,0,0,2.960855,-1080.2306,-644.11578)" x1="555.67865" y1="357.13925" x2="591.35345" y2="438.56784"/>
    <linearGradient inkscape:collect="always" xlink:href="#linearGradient3852" id="linearGradient4306" gradientUnits="userSpaceOnUse" gradientTransform="matrix(5.6336364,0,0,5.6336364,-1726.079,-3194.5488)" x1="332.29398" y1="626.27679" x2="408.10095" y2="755.6405"/>
    <linearGradient inkscape:collect="always" xlink:href="#linearGradient3852" id="linearGradient4309" gradientUnits="userSpaceOnUse" gradientTransform="matrix(5.6336364,0,0,5.6336364,-1726.079,-3194.5488)" x1="332.29398" y1="626.27679" x2="408.10095" y2="755.6405"/>
    <linearGradient inkscape:collect="always" xlink:href="#linearGradient3836" id="linearGradient4313" gradientUnits="userSpaceOnUse" gradientTransform="matrix(2.960855,0,0,2.960855,-1080.2306,-644.11578)" x1="555.67865" y1="357.13925" x2="591.35345" y2="438.56784"/>
    <linearGradient inkscape:collect="always" xlink:href="#linearGradient3836" id="linearGradient4317" gradientUnits="userSpaceOnUse" gradientTransform="matrix(2.8875391,0,0,2.8875391,-365.31764,-972.8716)" x1="317.24472" y1="349.9964" x2="371.70566" y2="468.56784"/>
    <linearGradient inkscape:collect="always" xlink:href="#linearGradient3836" id="linearGradient4320" gradientUnits="userSpaceOnUse" gradientTransform="matrix(2.8875391,0,0,2.8875391,-365.31764,-972.8716)" x1="266.33887" y1="366.4505" x2="302.19125" y2="465.02194"/>
    <linearGradient inkscape:collect="always" xlink:href="#linearGradient3836" id="linearGradient4323" gradientUnits="userSpaceOnUse" gradientTransform="matrix(2.8875391,0,0,2.8875391,-365.31764,-972.8716)" x1="219.05362" y1="374.2821" x2="248.51758" y2="452.85355"/>
    <linearGradient inkscape:collect="always" xlink:href="#linearGradient3836" id="linearGradient4326" gradientUnits="userSpaceOnUse" gradientTransform="matrix(2.8564496,0,0,2.8564496,-357.1109,-958.1701)" x1="160.36646" y1="374.79858" x2="199.29814" y2="489.08429"/>
    <radialGradient inkscape:collect="always" xlink:href="#linearGradient4212" id="radialGradient4334" gradientUnits="userSpaceOnUse" gradientTransform="matrix(1,0,0,0.11158797,8.5714286,719.12008)" cx="370" cy="789.50507" fx="370" fy="789.50507" r="332.85715"/>
    <linearGradient inkscape:collect="always" xlink:href="#linearGradient3836" id="linearGradient4350" gradientUnits="userSpaceOnUse" gradientTransform="matrix(2.8564496,0,0,2.8564496,-357.1109,-958.1701)" x1="160.36646" y1="374.79858" x2="199.29814" y2="489.08429"/>
    <linearGradient inkscape:collect="always" xlink:href="#linearGradient3836" id="linearGradient4352" gradientUnits="userSpaceOnUse" gradientTransform="matrix(2.8875391,0,0,2.8875391,-365.31764,-972.8716)" x1="219.05362" y1="374.2821" x2="248.51758" y2="452.85355"/>
    <linearGradient inkscape:collect="always" xlink:href="#linearGradient3836" id="linearGradient4354" gradientUnits="userSpaceOnUse" gradientTransform="matrix(2.8875391,0,0,2.8875391,-365.31764,-972.8716)" x1="266.33887" y1="366.4505" x2="302.19125" y2="465.02194"/>
    <linearGradient inkscape:collect="always" xlink:href="#linearGradient3836" id="linearGradient4356" gradientUnits="userSpaceOnUse" gradientTransform="matrix(2.8875391,0,0,2.8875391,-365.31764,-972.8716)" x1="317.24472" y1="349.9964" x2="371.70566" y2="468.56784"/>
    <linearGradient inkscape:collect="always" xlink:href="#linearGradient3836" id="linearGradient4358" gradientUnits="userSpaceOnUse" gradientTransform="matrix(2.960855,0,0,2.960855,-1080.2306,-644.11578)" x1="555.67865" y1="357.13925" x2="591.35345" y2="438.56784"/>
    <linearGradient inkscape:collect="always" xlink:href="#linearGradient3852" id="linearGradient4360" gradientUnits="userSpaceOnUse" gradientTransform="matrix(5.6336364,0,0,5.6336364,-1726.079,-3194.5488)" x1="332.29398" y1="626.27679" x2="408.10095" y2="755.6405"/>
  </defs>
  <sodipodi:namedview id="base" pagecolor="#ffffff" bordercolor="#666666" borderopacity="1.0" inkscape:pageopacity="0.0" inkscape:pageshadow="2" inkscape:zoom="0.35" inkscape:cx="-518.40606" inkscape:cy="436.31622" inkscape:document-units="px" inkscape:current-layer="layer1" showgrid="false" showguides="true" inkscape:guide-bbox="true" inkscape:snap-global="false" inkscape:window-width="1249" inkscape:window-height="686" inkscape:window-x="0" inkscape:window-y="0" inkscape:window-maximized="0">
    <sodipodi:guide orientation="0,1" position="-460,905.71429" id="guide2998"/>
    <sodipodi:guide orientation="0,1" position="-317.14286,200" id="guide3000"/>
    <sodipodi:guide orientation="1,0" position="725.71429,91.428571" id="guide3002"/>
    <sodipodi:guide orientation="1,0" position="20,51.428571" id="guide3004"/>
    <sodipodi:guide orientation="0,1" position="1171.777,553.56359" id="guide3030"/>
    <sodipodi:guide orientation="1,0" position="-477.14286,1134.2857" id="guide4058"/>
    <sodipodi:guide orientation="0,1" position="448.57143,417.14286" id="guide4060"/>
    <sodipodi:guide orientation="1,0" position="371.42857,37.142857" id="guide4068"/>
  </sodipodi:namedview>
  <metadata id="metadata7">
    <rdf:RDF>
      <cc:Work rdf:about="">
        <dc:format>image/svg+xml</dc:format>
        <dc:type rdf:resource="http://purl.org/dc/dcmitype/StillImage"/>
        <dc:title>studon small</dc:title>
        <dc:date>Mar 2014</dc:date>
        <dc:creator>
          <cc:Agent>
            <dc:title>Franziska Sponsel</dc:title>
          </cc:Agent>
        </dc:creator>
        <dc:rights>
          <cc:Agent>
            <dc:title>Franziska Sponsel</dc:title>
          </cc:Agent>
        </dc:rights>
        <dc:publisher>
          <cc:Agent>
            <dc:title>RRZE</dc:title>
          </cc:Agent>
        </dc:publisher>
        <dc:subject>
          <rdf:Bag>
            <rdf:li>Studon</rdf:li>
            <rdf:li>FAU</rdf:li>
            <rdf:li>Erlangen</rdf:li>
            <rdf:li>students</rdf:li>
            <rdf:li>portal</rdf:li>
          </rdf:Bag>
        </dc:subject>
        <dc:contributor>
          <cc:Agent>
            <dc:title>Hendrik Eggers</dc:title>
          </cc:Agent>
        </dc:contributor>
        <cc:license rdf:resource="http://creativecommons.org/licenses/by-sa/3.0/"/>
      </cc:Work>
      <cc:License rdf:about="http://creativecommons.org/licenses/by-sa/3.0/">
        <cc:permits rdf:resource="http://creativecommons.org/ns#Reproduction"/>
        <cc:permits rdf:resource="http://creativecommons.org/ns#Distribution"/>
        <cc:requires rdf:resource="http://creativecommons.org/ns#Notice"/>
        <cc:requires rdf:resource="http://creativecommons.org/ns#Attribution"/>
        <cc:permits rdf:resource="http://creativecommons.org/ns#DerivativeWorks"/>
        <cc:requires rdf:resource="http://creativecommons.org/ns#ShareAlike"/>
      </cc:License>
    </rdf:RDF>
  </metadata>
  <g inkscape:label="Ebene 1" inkscape:groupmode="layer" id="layer1">
    <g id="g4362">
      <path inkscape:connector-curvature="0" id="path4087" d="m 711.42858,807.21936 c 0,20.51343 -149.02522,37.14285 -332.85715,37.14285 -183.83193,0 -332.857148,-16.62942 -332.857148,-37.14285 0,-20.51344 149.025218,-37.14286 332.857148,-37.14286 183.83193,0 332.85715,16.62942 332.85715,37.14286 z" style="opacity:0.81999966;fill:url(#radialGradient4334);fill-opacity:1;stroke:none"/>
      <path id="rect2996" d="m 25.714285,152.36218 694.285705,0 0,694.28571 -694.285705,0 z" style="fill:none;stroke:none" inkscape:connector-curvature="0"/>
      <g transform="matrix(0.94108161,0,0,0.94108161,21.897196,17.352059)" id="g4336">
        <path inkscape:connector-curvature="0" id="path3015" style="font-size:12px;font-style:normal;font-weight:bold;line-height:125%;letter-spacing:0px;word-spacing:0px;fill:#204a87;fill-opacity:1;stroke:#204a87;stroke-width:5.74366379;font-family:Sans;-inkscape-font-specification:Sans Bold" d="m 166.8758,172.49751 0,46.53236 c -7.17291,-5.39923 -14.17094,-9.47326 -20.9939,-12.22211 -6.823,-2.74866 -13.26695,-4.12303 -19.33186,-4.12303 -8.04779,0 -13.99597,1.86472 -17.84486,5.59547 -3.84895,3.73075 -5.77332,9.52249 -5.77332,17.376 0,5.89027 1.28241,10.50416 3.84884,13.84186 2.62427,3.23963 7.34799,6.0375 14.17094,8.39332 l 14.34584,4.85937 c 14.52077,4.90864 24.84267,12.36959 30.96609,22.38265 6.12308,10.01333 9.18464,24.24798 9.18483,42.70363 -1.9e-4,24.24763 -4.28631,42.31077 -12.85882,54.18928 -8.51434,11.78032 -21.54797,17.67033 -39.10126,17.67033 -8.28092,0 -16.59097,-1.32445 -24.9302,-3.97577 -8.33922,-2.65058 -16.678539,-6.57734 -25.017722,-11.78032 l 0,-47.85747 c 8.339183,7.46097 16.386794,13.10574 24.143025,16.93426 7.814327,3.73043 15.337197,5.59569 22.568467,5.59569 7.34781,0 12.97527,-2.0608 16.88265,-6.18479 3.90707,-4.12303 5.86071,-10.01305 5.86071,-17.67032 0,-6.87189 -1.34219,-12.17284 -4.02384,-15.90359 -2.62428,-3.73021 -7.9019,-7.06792 -15.83282,-10.01302 l -13.03381,-4.85943 c -13.062857,-4.71212 -22.626829,-12.22207 -28.691716,-22.52992 -6.006548,-10.3076 -9.00979,-24.19842 -9.00979,-41.67273 0,-21.89163 4.198721,-38.72756 12.596362,-50.5081 8.397457,-11.78003 20.468984,-17.67003 36.214444,-17.67026 7.17281,2.3e-4 14.54984,0.93238 22.13108,2.79784 7.58112,1.76671 15.42466,4.46686 23.53064,8.0988"/>
        <path inkscape:connector-curvature="0" id="path3017" style="font-size:12px;font-style:normal;font-weight:bold;line-height:125%;letter-spacing:0px;word-spacing:0px;fill:#204a87;fill-opacity:1;stroke:#204a87;stroke-width:5.80617809;font-family:Sans;-inkscape-font-specification:Sans Bold" d="m 234.20779,165.8887 97.45352,0 0,43.31724 -35.05775,0 0,178.92534 -27.26715,0 0,-178.92534 -35.12862,0 0,-43.31724"/>
        <path inkscape:connector-curvature="0" id="path3019" style="font-size:12px;font-style:normal;font-weight:bold;line-height:125%;letter-spacing:0px;word-spacing:0px;fill:#204a87;fill-opacity:1;stroke:#204a87;stroke-width:5.80617809;font-family:Sans;-inkscape-font-specification:Sans Bold" d="m 403.74624,161.74148 27.26714,0 0,133.22635 c -1.6e-4,18.35908 1.41636,31.5081 4.24938,39.44713 2.88014,7.83967 7.55452,11.75959 14.02313,11.75959 6.51565,0 11.19002,-3.91992 14.02301,-11.75959 2.88018,-7.93903 4.32023,-21.08805 4.32023,-39.44713 l 0,-133.22635 27.26714,0 0,133.22635 c -1.1e-4,31.45858 -3.75368,54.87848 -11.26096,70.26035 -7.5074,15.38183 -18.95713,23.07265 -34.34942,23.07265 -15.34525,0 -26.77141,-7.69082 -34.27868,-23.07265 -7.50739,-15.38187 -11.26097,-38.80177 -11.26097,-70.26035 l 0,-133.22635"/>
        <path inkscape:connector-curvature="0" id="path3021" style="font-size:12px;font-style:normal;font-weight:bold;line-height:125%;letter-spacing:0px;word-spacing:0px;fill:#204a87;fill-opacity:1;stroke:#204a87;stroke-width:5.80617809;font-family:Sans;-inkscape-font-specification:Sans Bold" d="m 598.63131,209.20594 0,135.60812 9.77361,0 c 11.14287,0 19.64164,-5.80526 25.49659,-17.41628 5.90187,-11.61051 8.85285,-28.48111 8.85297,-50.61094 -1.2e-4,-22.03057 -2.92753,-38.80183 -8.78225,-50.3135 -5.85483,-11.51146 -14.37721,-17.26717 -25.56731,-17.2674 l -9.77361,0 m -27.26714,-43.31724 28.75434,0 c 16.05331,2.4e-4 27.99889,2.43123 35.83688,7.29395 7.88492,4.76369 14.63679,12.90113 20.25556,24.4125 4.9576,10.02325 8.64033,21.58449 11.0485,34.68345 2.40791,13.0995 3.61192,27.93562 3.61203,44.50824 -1.1e-4,16.7712 -1.20389,31.75597 -3.61203,44.95456 -2.40817,13.0995 -6.0909,24.66045 -11.0485,34.6834 -5.66601,11.51166 -12.46506,19.69867 -20.39723,24.56141 -7.93235,4.76336 -19.83072,7.14507 -35.69521,7.14507 l -28.75434,0 0,-222.24258"/>
        <path d="m 166.8758,172.49751 0,46.53236 c -7.17291,-5.39923 -14.17094,-9.47326 -20.9939,-12.22211 -6.823,-2.74866 -13.26695,-4.12303 -19.33186,-4.12303 -8.04779,0 -13.99597,1.86472 -17.84486,5.59547 -3.84895,3.73075 -5.77332,9.52249 -5.77332,17.376 0,5.89027 1.28241,10.50416 3.84884,13.84186 2.62427,3.23963 7.34799,6.0375 14.17094,8.39332 l 14.34584,4.85937 c 14.52077,4.90864 24.84267,12.36959 30.96609,22.38265 6.12308,10.01333 9.18464,24.24798 9.18483,42.70363 -1.9e-4,24.24763 -4.28631,42.31077 -12.85882,54.18928 -8.51434,11.78032 -21.54797,17.67033 -39.10126,17.67033 -8.28092,0 -16.59097,-1.32445 -24.9302,-3.97577 -8.33922,-2.65058 -16.678539,-6.57734 -25.017722,-11.78032 l 0,-47.85747 c 8.339183,7.46097 16.386794,13.10574 24.143025,16.93426 7.814327,3.73043 15.337197,5.59569 22.568467,5.59569 7.34781,0 12.97527,-2.0608 16.88265,-6.18479 3.90707,-4.12303 5.86071,-10.01305 5.86071,-17.67032 0,-6.87189 -1.34219,-12.17284 -4.02384,-15.90359 -2.62428,-3.73021 -7.9019,-7.06792 -15.83282,-10.01302 l -13.03381,-4.85943 c -13.062857,-4.71212 -22.626829,-12.22207 -28.691716,-22.52992 -6.006548,-10.3076 -9.00979,-24.19842 -9.00979,-41.67273 0,-21.89163 4.198721,-38.72756 12.596362,-50.5081 8.397457,-11.78003 20.468984,-17.67003 36.214444,-17.67026 7.17281,2.3e-4 14.54984,0.93238 22.13108,2.79784 7.58112,1.76671 15.42466,4.46686 23.53064,8.0988" style="font-size:12px;font-style:normal;font-weight:bold;line-height:125%;letter-spacing:0px;word-spacing:0px;opacity:0.57975458;fill:url(#linearGradient4350);fill-opacity:1;stroke:none;font-family:Sans;-inkscape-font-specification:Sans Bold" id="path3824" inkscape:connector-curvature="0"/>
        <path d="m 234.20779,165.8887 97.45352,0 0,43.31724 -35.05775,0 0,178.92534 -27.26715,0 0,-178.92534 -35.12862,0 0,-43.31724" style="font-size:12px;font-style:normal;font-weight:bold;line-height:125%;letter-spacing:0px;word-spacing:0px;opacity:0.57975458;fill:url(#linearGradient4352);fill-opacity:1;stroke:none;font-family:Sans;-inkscape-font-specification:Sans Bold" id="path3826" inkscape:connector-curvature="0"/>
        <path d="m 403.74624,161.74148 27.26714,0 0,133.22635 c -1.6e-4,18.35908 1.41636,31.5081 4.24938,39.44713 2.88014,7.83967 7.55452,11.75959 14.02313,11.75959 6.51565,0 11.19002,-3.91992 14.02301,-11.75959 2.88018,-7.93903 4.32023,-21.08805 4.32023,-39.44713 l 0,-133.22635 27.26714,0 0,133.22635 c -1.1e-4,31.45858 -3.75368,54.87848 -11.26096,70.26035 -7.5074,15.38183 -18.95713,23.07265 -34.34942,23.07265 -15.34525,0 -26.77141,-7.69082 -34.27868,-23.07265 -7.50739,-15.38187 -11.26097,-38.80177 -11.26097,-70.26035 l 0,-133.22635" style="font-size:12px;font-style:normal;font-weight:bold;line-height:125%;letter-spacing:0px;word-spacing:0px;opacity:0.57975458;fill:url(#linearGradient4354);fill-opacity:1;stroke:none;font-family:Sans;-inkscape-font-specification:Sans Bold" id="path3828" inkscape:connector-curvature="0"/>
        <path d="m 598.63131,209.20594 0,135.60812 9.77361,0 c 11.14287,0 19.64164,-5.80526 25.49659,-17.41628 5.90187,-11.61051 8.85285,-28.48111 8.85297,-50.61094 -1.2e-4,-22.03057 -2.92753,-38.80183 -8.78225,-50.3135 -5.85483,-11.51146 -14.37721,-17.26717 -25.56731,-17.2674 l -9.77361,0 m -27.26714,-43.31724 28.75434,0 c 16.05331,2.4e-4 27.99889,2.43123 35.83688,7.29395 7.88492,4.76369 14.63679,12.90113 20.25556,24.4125 4.9576,10.02325 8.64033,21.58449 11.0485,34.68345 2.40791,13.0995 3.61192,27.93562 3.61203,44.50824 -1.1e-4,16.7712 -1.20389,31.75597 -3.61203,44.95456 -2.40817,13.0995 -6.0909,24.66045 -11.0485,34.6834 -5.66601,11.51166 -12.46506,19.69867 -20.39723,24.56141 -7.93235,4.76336 -19.83072,7.14507 -35.69521,7.14507 l -28.75434,0 0,-222.24258" style="font-size:12px;font-style:normal;font-weight:bold;line-height:125%;letter-spacing:0px;word-spacing:0px;opacity:0.57975458;fill:url(#linearGradient4356);fill-opacity:1;stroke:none;font-family:Sans;-inkscape-font-specification:Sans Bold" id="path3830" inkscape:connector-curvature="0"/>
        <path inkscape:connector-curvature="0" id="path3023" style="font-size:12px;font-style:normal;font-weight:bold;line-height:125%;letter-spacing:0px;word-spacing:0px;fill:#204a87;fill-opacity:1;stroke:#204a87;stroke-width:5.95359945;font-family:Sans;-inkscape-font-specification:Sans Bold" d="m 569.28314,523.55811 31.22758,0 39.43373,156.2991 0,-156.2991 26.50697,0 0,227.88541 -31.2274,0 -39.43373,-156.29913 0,156.29913 -26.50715,0 0,-227.88541"/>
        <path d="m 569.28314,523.55811 31.22758,0 39.43373,156.2991 0,-156.2991 26.50697,0 0,227.88541 -31.2274,0 -39.43373,-156.29913 0,156.29913 -26.50715,0 0,-227.88541" style="font-size:12px;font-style:normal;font-weight:bold;line-height:125%;letter-spacing:0px;word-spacing:0px;opacity:0.57975458;fill:url(#linearGradient4358);fill-opacity:1;stroke:none;font-family:Sans;-inkscape-font-specification:Sans Bold" id="path3832" inkscape:connector-curvature="0"/>
        <path inkscape:connector-curvature="0" style="fill:none;stroke:#204a87;stroke-width:54.08291245;stroke-linecap:round;stroke-linejoin:round;stroke-miterlimit:4;stroke-opacity:1;stroke-dashoffset:22.80179958" d="m 462.99104,629.51159 c 0,100.00837 -81.07276,181.08119 -181.08113,181.08119 -100.00837,0 -181.08119,-81.07282 -181.08119,-181.08119 0,-100.00837 81.07282,-181.08119 181.08119,-181.08119 100.00837,0 181.08113,81.07282 181.08113,181.08119 z" id="path3032"/>
        <path inkscape:connector-curvature="0" style="opacity:0.81999966;fill:none;stroke:url(#linearGradient4360);stroke-width:54.08291245;stroke-linecap:round;stroke-linejoin:round;stroke-miterlimit:4;stroke-opacity:1;stroke-dashoffset:22.80179958" d="m 462.99104,629.51159 c 0,100.00837 -81.07276,181.08119 -181.08113,181.08119 -100.00837,0 -181.08119,-81.07282 -181.08119,-181.08119 0,-100.00837 81.07282,-181.08119 181.08119,-181.08119 100.00837,0 181.08113,81.07282 181.08113,181.08119 z" id="path3834"/>
      </g>
    </g>
  </g>
</svg>
