<?xml version="1.0" encoding="UTF-8" standalone="no"?>
<!-- Created with Inkscape (http://www.inkscape.org/) -->
<svg xmlns:dc="http://purl.org/dc/elements/1.1/" xmlns:cc="http://creativecommons.org/ns#" xmlns:rdf="http://www.w3.org/1999/02/22-rdf-syntax-ns#" xmlns:svg="http://www.w3.org/2000/svg" xmlns="http://www.w3.org/2000/svg" xmlns:xlink="http://www.w3.org/1999/xlink" xmlns:sodipodi="http://sodipodi.sourceforge.net/DTD/sodipodi-0.dtd" xmlns:inkscape="http://www.inkscape.org/namespaces/inkscape" width="210mm" height="297mm" id="svg2" version="1.1" inkscape:version="0.48.0 r9654">
  <title id="title3962">vpn</title>
  <defs id="defs4">
    <linearGradient id="linearGradient3889">
      <stop style="stop-color:#eeeeec;stop-opacity:1;" offset="0" id="stop3891"/>
      <stop style="stop-color:#ffffff;stop-opacity:1;" offset="1" id="stop3893"/>
    </linearGradient>
    <linearGradient id="linearGradient3875">
      <stop style="stop-color:#ffffff;stop-opacity:1;" offset="0" id="stop3877"/>
      <stop id="stop3885" offset="0.20752585" style="stop-color:#ffffff;stop-opacity:0.50649351;"/>
      <stop id="stop3883" offset="0.5" style="stop-color:#ffffff;stop-opacity:1;"/>
      <stop style="stop-color:#ffffff;stop-opacity:0;" offset="1" id="stop3879"/>
    </linearGradient>
    <linearGradient inkscape:collect="always" xlink:href="#linearGradient3875" id="linearGradient3881" x1="96.357147" y1="274.50507" x2="880.78571" y2="640.21936" gradientUnits="userSpaceOnUse" gradientTransform="matrix(0.96930742,0,0,0.96930742,11.180864,16.405332)"/>
    <linearGradient inkscape:collect="always" xlink:href="#linearGradient3889" id="linearGradient3895" x1="390" y1="631.64789" x2="390" y2="251.64789" gradientUnits="userSpaceOnUse"/>
  </defs>
  <sodipodi:namedview id="base" pagecolor="#ffffff" bordercolor="#666666" borderopacity="1.0" inkscape:pageopacity="0.0" inkscape:pageshadow="2" inkscape:zoom="0.24748737" inkscape:cx="65.354532" inkscape:cy="591.00804" inkscape:document-units="px" inkscape:current-layer="layer1" showgrid="false" showguides="true" inkscape:guide-bbox="true" inkscape:snap-global="false" inkscape:window-width="1246" inkscape:window-height="696" inkscape:window-x="0" inkscape:window-y="0" inkscape:window-maximized="0">
    <sodipodi:guide orientation="0,1" position="-80,874.28571" id="guide2989"/>
    <sodipodi:guide orientation="0,1" position="-371.42857,174.28571" id="guide2991"/>
    <sodipodi:guide orientation="1,0" position="717.14286,51.428571" id="guide2993"/>
    <sodipodi:guide orientation="1,0" position="17.142857,17.142857" id="guide2995"/>
    <sodipodi:guide orientation="-0.70710678,0.70710678" position="0,882.85714" id="guide3827"/>
    <sodipodi:guide orientation="0,1" position="67.142857,640" id="guide3829"/>
  </sodipodi:namedview>
  <metadata id="metadata7">
    <rdf:RDF>
      <cc:Work rdf:about="">
        <dc:format>image/svg+xml</dc:format>
        <dc:type rdf:resource="http://purl.org/dc/dcmitype/StillImage"/>
        <dc:title>vpn</dc:title>
        <dc:date>July 2013</dc:date>
        <dc:creator>
          <cc:Agent>
            <dc:title>Franziska Sponsel</dc:title>
          </cc:Agent>
        </dc:creator>
        <dc:rights>
          <cc:Agent>
            <dc:title>Franziska Sponsel</dc:title>
          </cc:Agent>
        </dc:rights>
        <dc:publisher>
          <cc:Agent>
            <dc:title>RRZE</dc:title>
          </cc:Agent>
        </dc:publisher>
        <dc:subject>
          <rdf:Bag>
            <rdf:li>cisco vpn</rdf:li>
            <rdf:li>vpn</rdf:li>
            <rdf:li>vpn client</rdf:li>
          </rdf:Bag>
        </dc:subject>
        <dc:contributor>
          <cc:Agent>
            <dc:title>Ute Weber, Sven Marschke</dc:title>
          </cc:Agent>
        </dc:contributor>
        <cc:license rdf:resource="http://creativecommons.org/licenses/by-sa/3.0/"/>
      </cc:Work>
      <cc:License rdf:about="http://creativecommons.org/licenses/by-sa/3.0/">
        <cc:permits rdf:resource="http://creativecommons.org/ns#Reproduction"/>
        <cc:permits rdf:resource="http://creativecommons.org/ns#Distribution"/>
        <cc:requires rdf:resource="http://creativecommons.org/ns#Notice"/>
        <cc:requires rdf:resource="http://creativecommons.org/ns#Attribution"/>
        <cc:permits rdf:resource="http://creativecommons.org/ns#DerivativeWorks"/>
        <cc:requires rdf:resource="http://creativecommons.org/ns#ShareAlike"/>
      </cc:License>
    </rdf:RDF>
  </metadata>
  <g inkscape:label="Ebene 1" inkscape:groupmode="layer" id="layer1">
    <g id="g3928">
      <g id="g3897">
        <path style="fill:#3465a4;stroke:#204a87;stroke-width:13.68063545;stroke-miterlimit:4;stroke-opacity:1;stroke-dasharray:none" d="m 70.270375,209.81932 588.030675,0 c 15.78982,0 28.50147,12.76745 28.50147,28.62657 l 0,592.11829 c 0,15.85912 -12.71165,28.62657 -28.50147,28.62657 l -588.030675,0 c -15.789822,0 -28.501486,-12.76745 -28.501486,-28.62657 l 0,-592.11829 c 0,-15.85912 12.711664,-28.62657 28.501486,-28.62657 z" id="rect3776" inkscape:connector-curvature="0"/>
        <rect style="fill:none;stroke:none" id="rect2987" width="700" height="700" x="16.908268" y="178.31105"/>
        <path inkscape:connector-curvature="0" id="path3873" d="m 82.990096,225.22334 562.591204,0 c 22.57212,0 27.26848,3.48367 27.26848,27.26848 l 0,564.02643 c 0,21.43758 2.34564,27.26848 -27.26848,27.26848 l -562.591204,0 c -24.862527,0 -27.268452,3.43075 -27.268452,-27.26848 l 0,-564.02643 c 0,-19.28321 2.774892,-27.26848 27.268452,-27.26848 z" style="opacity:0.54294481;fill:url(#linearGradient3881);fill-opacity:1;stroke:#ffffff;stroke-width:13.06015396;stroke-miterlimit:4;stroke-opacity:1;stroke-dasharray:none" sodipodi:nodetypes="sssssssss"/>
        <path style="opacity:0.54294481;fill:url(#linearGradient3881);fill-opacity:1;stroke:none" d="m 82.990096,225.22334 562.591204,0 c 15.10676,0 27.26848,12.16172 27.26848,27.26848 l 0,244.02643 c 0,15.10676 -125.42939,67.26848 -158.69705,38.69705 -33.26767,-28.57143 -149.32356,-97.14286 -236.87692,-88.57143 -87.55336,8.57143 -221.554166,82.124 -221.554166,67.01724 l 0,-261.16929 c 0,-15.10676 12.161724,-27.26848 27.268452,-27.26848 z" id="path3887" inkscape:connector-curvature="0" sodipodi:nodetypes="sssszzsss"/>
        <path style="fill:url(#linearGradient3895);fill-opacity:1;stroke:none" d="m 108.57143,248.07646 514.2857,0 c 15.03714,0 27.14285,12.10572 27.14285,27.14286 l 0,331.42858 -0.71428,2.85715 -567.142841,0 -0.714285,-1.42857 0,-332.85716 c 0,-15.03714 12.105714,-27.14286 27.142856,-27.14286 z" id="rect3779" inkscape:connector-curvature="0" sodipodi:nodetypes="sssccccss"/>
        <g id="g3831">
          <flowRoot transform="matrix(0.76043825,0,0,0.76390298,41.96732,144.30707)" style="font-size:144px;font-style:normal;font-weight:bold;line-height:125%;letter-spacing:0px;word-spacing:0px;fill:#cc0000;fill-opacity:1;stroke:none;font-family:Sans;-inkscape-font-specification:Sans Bold" id="flowRoot3782" xml:space="preserve"><flowRegion id="flowRegion3784"><rect style="font-size:144px;font-weight:bold;-inkscape-font-specification:Sans Bold;fill:#cc0000" y="380.93362" x="180" height="267.14285" width="621.42859" id="rect3786"/></flowRegion><flowPara id="flowPara3788">CISCO</flowPara></flowRoot>          <path inkscape:connector-curvature="0" id="path3809" d="m 152.14286,380.21933 0,22.85714" style="fill:none;stroke:#729fcf;stroke-width:18.60000038;stroke-linecap:round;stroke-linejoin:miter;stroke-miterlimit:4;stroke-opacity:1;stroke-dasharray:none"/>
          <path inkscape:connector-curvature="0" id="path3811" d="m 205,353.07647 0,50" style="fill:none;stroke:#729fcf;stroke-width:18.60000038;stroke-linecap:round;stroke-linejoin:miter;stroke-miterlimit:4;stroke-opacity:1;stroke-dasharray:none"/>
          <path inkscape:connector-curvature="0" id="path3813" d="m 257.85715,319.50504 0,102.85714" style="fill:none;stroke:#729fcf;stroke-width:18.60000038;stroke-linecap:round;stroke-linejoin:miter;stroke-miterlimit:4;stroke-opacity:1;stroke-dasharray:none"/>
          <path inkscape:connector-curvature="0" id="path3815" d="m 311.42857,353.07647 0,50" style="fill:none;stroke:#729fcf;stroke-width:18.60000038;stroke-linecap:round;stroke-linejoin:miter;stroke-miterlimit:4;stroke-opacity:1;stroke-dasharray:none"/>
          <path inkscape:connector-curvature="0" id="path3817" d="m 365.71428,377.36218 0,25.71429" style="fill:none;stroke:#729fcf;stroke-width:18.60000038;stroke-linecap:round;stroke-linejoin:miter;stroke-miterlimit:4;stroke-opacity:1;stroke-dasharray:none"/>
          <path inkscape:connector-curvature="0" id="path3819" d="m 419.28572,348.79075 0,54.28572" style="fill:none;stroke:#729fcf;stroke-width:18.60000038;stroke-linecap:round;stroke-linejoin:miter;stroke-miterlimit:4;stroke-opacity:1;stroke-dasharray:none"/>
          <path inkscape:connector-curvature="0" id="path3821" d="m 472.14286,320.21933 0,102.85714" style="fill:none;stroke:#729fcf;stroke-width:18.60000038;stroke-linecap:round;stroke-linejoin:miter;stroke-miterlimit:4;stroke-opacity:1;stroke-dasharray:none"/>
          <path inkscape:connector-curvature="0" id="path3823" d="m 527.14286,351.64789 0,51.42858" style="fill:none;stroke:#729fcf;stroke-width:18.60000038;stroke-linecap:round;stroke-linejoin:miter;stroke-miterlimit:4;stroke-opacity:1;stroke-dasharray:none"/>
          <path inkscape:connector-curvature="0" id="path3825" d="m 578.57143,375.93361 0,27.14286" style="fill:none;stroke:#729fcf;stroke-width:18.60000038;stroke-linecap:round;stroke-linejoin:miter;stroke-miterlimit:4;stroke-opacity:1;stroke-dasharray:none"/>
        </g>
        <g transform="matrix(1.6871092,0,0,1.9481772,102.79751,-625.82465)" style="font-size:40px;font-style:normal;font-weight:bold;line-height:125%;letter-spacing:0px;word-spacing:0px;fill:#eeeeec;fill-opacity:1;stroke:#204a87;font-family:Sans;-inkscape-font-specification:Sans Bold;stroke-opacity:1;stroke-width:1.16550373999999990;stroke-miterlimit:4;stroke-dasharray:none;stroke-linejoin:round" id="flowRoot3846">
          <path d="m 38.570312,677.17856 7.558594,0 7.734375,21.52344 7.714844,-21.52344 7.558594,0 -10.800782,29.16016 -8.964843,0 -10.800782,-29.16016" style="stroke:#204a87;stroke-opacity:1;stroke-width:1.16550373999999990;stroke-miterlimit:4;stroke-dasharray:none;stroke-linejoin:round" id="path3855"/>
          <path d="m 72.984375,677.17856 12.480469,0 c 3.710917,3e-5 6.555967,0.82685 8.535156,2.48047 1.992161,1.64065 2.988254,3.9844 2.988281,7.03125 -2.7e-5,3.05991 -0.99612,5.41668 -2.988281,7.07031 -1.979189,1.64064 -4.824239,2.46095 -8.535156,2.46094 l -4.960938,0 0,10.11719 -7.519531,0 0,-29.16016 m 7.519531,5.44922 0,8.14453 4.160156,0 c 1.458317,2e-5 2.584618,-0.35155 3.378907,-1.05469 0.794251,-0.71613 1.191386,-1.72524 1.191406,-3.02734 -2e-5,-1.30206 -0.397155,-2.30467 -1.191406,-3.00781 -0.794289,-0.70311 -1.92059,-1.05467 -3.378907,-1.05469 l -4.160156,0" style="stroke:#204a87;stroke-opacity:1;stroke-width:1.16550373999999990;stroke-miterlimit:4;stroke-dasharray:none;stroke-linejoin:round" id="path3857"/>
          <path d="m 102.28125,677.17856 8.39844,0 10.60547,20 0,-20 7.1289,0 0,29.16016 -8.39843,0 -10.60547,-20 0,20 -7.12891,0 0,-29.16016" style="stroke:#204a87;stroke-opacity:1;stroke-width:1.16550373999999990;stroke-miterlimit:4;stroke-dasharray:none;stroke-linejoin:round" id="path3859"/>
          <path d="m 172.82812,704.73715 c -1.38023,0.71615 -2.81903,1.25651 -4.3164,1.6211 -1.49742,0.36458 -3.05992,0.54687 -4.6875,0.54687 -4.85679,0 -8.70444,-1.35416 -11.54297,-4.0625 -2.83855,-2.72135 -4.25781,-6.40624 -4.25781,-11.05468 0,-4.66144 1.41926,-8.34634 4.25781,-11.05469 2.83853,-2.72133 6.68618,-4.082 11.54297,-4.08203 1.62758,3e-5 3.19008,0.18232 4.6875,0.54687 1.49737,0.36461 2.93617,0.90498 4.3164,1.6211 l 0,6.03515 c -1.39325,-0.9505 -2.76695,-1.64711 -4.12109,-2.08984 -1.35419,-0.44269 -2.77997,-0.66404 -4.27734,-0.66406 -2.68231,2e-5 -4.79168,0.85939 -6.32813,2.57812 -1.53647,1.71877 -2.30469,4.08856 -2.30469,7.10938 0,3.00782 0.76822,5.3711 2.30469,7.08984 1.53645,1.71875 3.64582,2.57813 6.32813,2.57812 1.49737,10e-6 2.92315,-0.22135 4.27734,-0.66406 1.35414,-0.4427 2.72784,-1.13931 4.12109,-2.08984 l 0,6.03515" style="stroke:#204a87;stroke-opacity:1;stroke-width:1.16550373999999990;stroke-miterlimit:4;stroke-dasharray:none;stroke-linejoin:round" id="path3861"/>
          <path d="m 178.76562,675.94809 6.99219,0 0,30.39063 -6.99219,0 0,-30.39063" style="stroke:#204a87;stroke-opacity:1;stroke-width:1.16550373999999990;stroke-miterlimit:4;stroke-dasharray:none;stroke-linejoin:round" id="path3863"/>
          <path d="m 192.51562,684.46372 6.99219,0 0,21.875 -6.99219,0 0,-21.875 m 0,-8.51563 6.99219,0 0,5.70313 -6.99219,0 0,-5.70313" style="stroke:#204a87;stroke-opacity:1;stroke-width:1.16550373999999990;stroke-miterlimit:4;stroke-dasharray:none;stroke-linejoin:round" id="path3865"/>
          <path d="m 228.10156,695.34262 0,1.99219 -16.34765,0 c 0.16926,1.64063 0.76171,2.8711 1.77734,3.69141 1.01561,0.82031 2.43488,1.23047 4.25781,1.23047 1.47134,0 2.97525,-0.21484 4.51172,-0.64454 1.54946,-0.4427 3.138,-1.10676 4.76563,-1.99218 l 0,5.39062 c -1.65367,0.625 -3.30732,1.09375 -4.96094,1.40625 -1.65366,0.32552 -3.30731,0.48828 -4.96094,0.48828 -3.95834,0 -7.03777,-1.0026 -9.23828,-3.00781 -2.1875,-2.01822 -3.28125,-4.84374 -3.28125,-8.47656 0,-3.5677 1.07422,-6.37368 3.22266,-8.41797 2.16145,-2.04425 5.13019,-3.06638 8.90625,-3.06641 3.43748,3e-5 6.18487,1.03518 8.24218,3.10547 2.07029,2.07033 3.10545,4.83726 3.10547,8.30078 m -7.1875,-2.32422 c -2e-5,-1.32811 -0.39064,-2.39581 -1.17187,-3.20312 -0.76825,-0.8203 -1.77736,-1.23045 -3.02735,-1.23047 -1.35418,2e-5 -2.45443,0.38413 -3.30078,1.15234 -0.84636,0.75523 -1.3737,1.84898 -1.58203,3.28125 l 9.08203,0" style="stroke:#204a87;stroke-opacity:1;stroke-width:1.16550373999999990;stroke-miterlimit:4;stroke-dasharray:none;stroke-linejoin:round" id="path3867"/>
          <path d="m 255.36719,693.0184 0,13.32032 -7.03125,0 0,-2.16797 0,-8.02735 c -2e-5,-1.888 -0.0456,-3.19009 -0.13672,-3.90625 -0.0781,-0.71613 -0.22137,-1.24347 -0.42969,-1.58203 -0.27345,-0.45571 -0.64455,-0.80727 -1.11328,-1.05468 -0.46877,-0.2604 -1.00262,-0.39061 -1.60156,-0.39063 -1.45835,2e-5 -2.60418,0.56642 -3.4375,1.69922 -0.83335,1.1198 -1.25001,2.67579 -1.25,4.66797 l 0,10.76172 -6.99219,0 0,-21.875 6.99219,0 0,3.20312 c 1.05467,-1.27602 2.17446,-2.21352 3.35937,-2.8125 1.18488,-0.61196 2.49348,-0.91794 3.92578,-0.91797 2.52603,3e-5 4.44009,0.77476 5.74219,2.32422 1.31508,1.5495 1.97263,3.8021 1.97266,6.75781" style="stroke:#204a87;stroke-opacity:1;stroke-width:1.16550373999999990;stroke-miterlimit:4;stroke-dasharray:none;stroke-linejoin:round" id="path3869"/>
          <path d="m 269.52734,678.25278 0,6.21094 7.20703,0 0,5 -7.20703,0 0,9.27734 c -10e-6,1.01563 0.20182,1.70574 0.60547,2.07031 0.40364,0.35157 1.20442,0.52735 2.40235,0.52735 l 3.59375,0 0,5 -5.9961,0 c -2.76042,0 -4.72006,-0.57292 -5.8789,-1.71875 -1.14584,-1.15885 -1.71876,-3.11849 -1.71875,-5.87891 l 0,-9.27734 -3.47657,0 0,-5 3.47657,0 0,-6.21094 6.99218,0" style="stroke:#204a87;stroke-opacity:1;stroke-width:1.16550373999999990;stroke-miterlimit:4;stroke-dasharray:none;stroke-linejoin:round" id="path3871"/>
        </g>
      </g>
    </g>
  </g>
</svg>
