<?xml version="1.0" encoding="UTF-8" standalone="no"?>
<!-- Created with Inkscape (http://www.inkscape.org/) -->

<svg
   xmlns:dc="http://purl.org/dc/elements/1.1/"
   xmlns:cc="http://creativecommons.org/ns#"
   xmlns:rdf="http://www.w3.org/1999/02/22-rdf-syntax-ns#"
   xmlns:svg="http://www.w3.org/2000/svg"
   xmlns="http://www.w3.org/2000/svg"
   xmlns:xlink="http://www.w3.org/1999/xlink"
   xmlns:sodipodi="http://sodipodi.sourceforge.net/DTD/sodipodi-0.dtd"
   xmlns:inkscape="http://www.inkscape.org/namespaces/inkscape"
   width="210mm"
   height="297mm"
   viewBox="0 0 744.09448819 1052.3622047"
   id="svg2"
   version="1.1"
   inkscape:version="0.91 r13725"
   inkscape:export-xdpi="7.1999741"
   inkscape:export-ydpi="7.1999741"
   sodipodi:docname="affiliation-student.svg"
   inkscape:export-filename="C:\Users\johannes\Documents\Arbeit\RRZE\github3\bicons\32x32\categories\affiliation-student.png">
  <defs
     id="defs4">
    <linearGradient
       inkscape:collect="always"
       xlink:href="#linearGradient4321"
       id="linearGradient4201"
       x1="286.38269"
       y1="672.9209"
       x2="532.51678"
       y2="367.74933"
       gradientUnits="userSpaceOnUse"
       gradientTransform="matrix(0.79313328,0,0,0.79313328,77.75163,60.13789)" />
    <linearGradient
       id="linearGradient4321"
       inkscape:collect="always">
      <stop
         id="stop4323"
         offset="0"
         style="stop-color:#4e505d;stop-opacity:1;" />
      <stop
         id="stop4325"
         offset="1"
         style="stop-color:#7a8597;stop-opacity:1" />
    </linearGradient>
    <linearGradient
       inkscape:collect="always"
       xlink:href="#linearGradient4321"
       id="linearGradient4319"
       x1="280"
       y1="712.36218"
       x2="500"
       y2="472.36221"
       gradientUnits="userSpaceOnUse"
       gradientTransform="matrix(1.0724463,0,0,0.90061509,-28.40277,68.85197)" />
  </defs>
  <sodipodi:namedview
     id="base"
     pagecolor="#ffffff"
     bordercolor="#666666"
     borderopacity="1.0"
     inkscape:pageopacity="0.0"
     inkscape:pageshadow="2"
     inkscape:zoom="0.70710678"
     inkscape:cx="90.188835"
     inkscape:cy="563.04632"
     inkscape:document-units="px"
     inkscape:current-layer="layer1"
     showgrid="false"
     showguides="true"
     inkscape:guide-bbox="true"
     inkscape:window-width="1600"
     inkscape:window-height="837"
     inkscape:window-x="-4"
     inkscape:window-y="-4"
     inkscape:window-maximized="1"
     inkscape:snap-bbox="true"
     inkscape:bbox-paths="true"
     inkscape:bbox-nodes="true"
     inkscape:snap-nodes="false">
    <sodipodi:guide
       position="315.53572,730.17859"
       orientation="0,1"
       id="guide3338" />
    <sodipodi:guide
       position="351.25,330.17858"
       orientation="0,1"
       id="guide3340" />
    <sodipodi:guide
       position="189.10714,408.8393"
       orientation="1,0"
       id="guide3344" />
    <sodipodi:guide
       position="589.04521,468.07945"
       orientation="1,0"
       id="guide3346" />
    <inkscape:grid
       type="xygrid"
       id="grid3440" />
    <sodipodi:guide
       position="0,0"
       orientation="0,1"
       id="guide3405" />
    <sodipodi:guide
       position="214.125,684.50002"
       orientation="1,0"
       id="guide3407" />
    <sodipodi:guide
       position="0,0"
       orientation="0,1"
       id="guide3409" />
    <sodipodi:guide
       position="589.04521,378.30213"
       orientation="1,0"
       id="guide3411" />
    <sodipodi:guide
       position="564.00001,683.37502"
       orientation="1,0"
       id="guide3413" />
  </sodipodi:namedview>
  <metadata
     id="metadata7">
    <rdf:RDF>
      <cc:Work
         rdf:about="">
        <dc:format>image/svg+xml</dc:format>
        <dc:type
           rdf:resource="http://purl.org/dc/dcmitype/StillImage" />
        <dc:title>affiliation student</dc:title>
        <dc:date>June 2015</dc:date>
        <dc:creator>
          <cc:Agent>
            <dc:title>Johannes Hechler</dc:title>
          </cc:Agent>
        </dc:creator>
        <dc:rights>
          <cc:Agent>
            <dc:title>Johannes Hechler</dc:title>
          </cc:Agent>
        </dc:rights>
        <dc:publisher>
          <cc:Agent>
            <dc:title>RRZE</dc:title>
          </cc:Agent>
        </dc:publisher>
        <dc:contributor>
          <cc:Agent>
            <dc:title>Ute Weber, Hendrik Eggers, Joanna Barbach</dc:title>
          </cc:Agent>
        </dc:contributor>
        <dc:subject>
          <rdf:Bag>
            <rdf:li>affiliation</rdf:li>
            <rdf:li>student</rdf:li>
          </rdf:Bag>
        </dc:subject>
        <cc:license
           rdf:resource="http://creativecommons.org/licenses/by-sa/3.0/" />
      </cc:Work>
      <cc:License
         rdf:about="http://creativecommons.org/licenses/by-sa/3.0/">
        <cc:permits
           rdf:resource="http://creativecommons.org/ns#Reproduction" />
        <cc:permits
           rdf:resource="http://creativecommons.org/ns#Distribution" />
        <cc:requires
           rdf:resource="http://creativecommons.org/ns#Notice" />
        <cc:requires
           rdf:resource="http://creativecommons.org/ns#Attribution" />
        <cc:permits
           rdf:resource="http://creativecommons.org/ns#DerivativeWorks" />
        <cc:requires
           rdf:resource="http://creativecommons.org/ns#ShareAlike" />
      </cc:License>
    </rdf:RDF>
  </metadata>
  <g
     inkscape:label="Ebene 1"
     inkscape:groupmode="layer"
     id="layer1">
    <g
       id="g4212">
      <path
         sodipodi:nodetypes="ccccccscssssccccccccc"
         inkscape:connector-curvature="0"
         id="path4244"
         d="m 428.11495,322.19537 -136.19922,0.0137 c -7.94918,-0.0134 -11.91436,3.91639 -11.88086,11.74804 -0.021,40.80714 -0.0101,88.31549 -0.008,133.75586 l 218.14063,0 0,-75.66797 c -3.62494,0.33225 -14.51187,1.27363 -26.71094,1.72852 -7.40662,0.27614 -15.1285,0.38156 -22.18359,-0.0469 -3.52754,-0.21418 -6.87193,-0.54079 -10.28907,-1.21875 -3.41714,-0.67794 -4.68996,-0.40291 -9.57617,-4.61133 -4.32572,-3.72569 -5.15481,-9.36621 -5.38867,-15.58398 -0.23387,-6.21777 0.45373,-12.098 1.22266,-18.11329 1.53787,-12.03057 3.37853,-24.89122 2.96093,-30.77148 z M 280.02316,503.71295 c 0.002,15.44508 -0.006,27.49188 -0.002,43.74609 -0.0211,7.91623 3.9695,11.93245 11.85155,11.87891 l 194.30079,0.0488 c 7.97274,-0.0453 11.94,-4.01159 11.99218,-12.00976 l 0,-43.66406 z"
         style="fill:url(#linearGradient4201);fill-opacity:1;fill-rule:evenodd;stroke:none;stroke-width:1px;stroke-linecap:butt;stroke-linejoin:miter;stroke-opacity:1" />
      <path
         style="fill:#99b000;fill-opacity:1;fill-rule:evenodd;stroke:none;stroke-width:1px;stroke-linecap:butt;stroke-linejoin:miter;stroke-opacity:1"
         d="m 445.23793,322.19218 c 2.82064,-0.7553 52.89575,48.84718 52.89575,54.17353 0,0 -46.80572,4.68711 -53.91758,-0.828 -7.11187,-5.51513 2.24742,-35.61391 1.02183,-53.34553 z"
         id="path4288"
         inkscape:connector-curvature="0"
         sodipodi:nodetypes="cczc"
         inkscape:export-xdpi="3.46731"
         inkscape:export-ydpi="3.46731" />
      <path
         id="rect4171-8"
         d="M 249.90234 485.71094 C 246.43732 485.71094 243.64648 488.50178 243.64648 491.9668 L 243.64648 588.66211 C 243.64648 592.12713 246.43732 594.91602 249.90234 594.91602 L 528.92578 594.91602 C 532.39081 594.91602 535.17969 592.12713 535.17969 588.66211 L 535.17969 491.9668 C 535.17969 488.50178 532.39081 485.71094 528.92578 485.71094 L 249.90234 485.71094 z M 249.92188 612.9707 C 246.45661 612.9707 243.66797 615.7613 243.66797 619.22656 L 243.66797 715.92773 C 243.66797 719.39299 246.45661 722.18359 249.92188 722.18359 L 312.51758 722.18359 A 15.359194 15.359194 0 0 1 312.48633 721.53516 C 312.48981 703.75626 317.26648 686.68366 323.70703 672.15234 C 324.88741 669.48915 326.15733 667.0222 327.42188 664.54688 L 285.6582 664.54688 C 272.58258 664.54688 259.98828 653.40693 259.98828 639.35938 L 259.98828 638.50391 C 259.98828 625.49592 269.30264 614.99682 281.57812 612.9707 L 249.92188 612.9707 z M 371.31055 643.32812 A 15.359194 15.359194 0 0 1 367.32617 660.67969 C 363.80005 663.80644 356.83045 673.22316 351.78906 684.59766 C 348.81904 691.29868 346.48695 698.73316 344.97461 706.18164 L 497.53125 706.18164 C 495.83541 698.35891 493.53371 690.67575 490.76758 683.88867 C 486.05431 672.32402 479.55302 663.2204 476.86328 660.9707 A 15.359194 15.359194 0 0 1 472.53711 643.32812 L 371.31055 643.32812 z M 515.77539 664.57227 C 516.94611 667.08864 518.11448 669.6046 519.21094 672.29492 C 525.0976 686.73865 529.44938 703.4707 530.69141 720.41602 A 15.359194 15.359194 0 0 1 530.71289 721.70117 C 531.49916 721.3727 532.19981 720.88685 532.7832 720.28516 L 532.25781 682.16016 A 15.359194 15.359194 0 0 1 532.25586 681.94922 L 532.25586 664.58594 L 515.77539 664.57227 z "
         style="opacity:1;fill:url(#linearGradient4319);fill-opacity:1;stroke:none;stroke-width:23;stroke-linecap:butt;stroke-linejoin:round;stroke-miterlimit:4;stroke-dasharray:none;stroke-opacity:1" />
      <path
         sodipodi:nodetypes="ssssssscccccs"
         id="rect4232-8"
         d="m 324.87081,503.89068 c -4.71089,0 -8.5039,3.25115 -8.5039,7.28906 l 0,39.96289 c 0,4.0379 3.79301,7.28907 8.5039,7.28907 l 110.25195,0 c 4.71089,0 8.50391,-3.25117 8.50391,-7.28907 l 0,-39.96289 c 0,-4.03791 -3.79302,-7.28906 -8.50391,-7.28906 l -9.58984,0.17578 0,36.36133 -90.71875,-0.17578 0,-36.36133 z"
         style="color:#000000;clip-rule:nonzero;display:inline;overflow:visible;visibility:visible;opacity:1;isolation:auto;mix-blend-mode:normal;color-interpolation:sRGB;color-interpolation-filters:linearRGB;solid-color:#000000;solid-opacity:1;fill:#ffffff;fill-opacity:1;fill-rule:evenodd;stroke:none;stroke-width:50;stroke-linecap:butt;stroke-linejoin:miter;stroke-miterlimit:4;stroke-dasharray:none;stroke-dashoffset:0;stroke-opacity:1;color-rendering:auto;image-rendering:auto;shape-rendering:auto;text-rendering:auto;enable-background:accumulate"
         inkscape:connector-curvature="0" />
      <path
         id="rect4247"
         d="m 195.3617,322.18363 387.49234,0 c 3.46503,0 6.25456,2.78954 6.25456,6.25456 l 0,387.49092 c 0,3.465 -2.78953,6.2545 -6.25456,6.2545 l -387.49234,0 c -3.46503,0 -6.25456,-2.7895 -6.25456,-6.2545 l 0,-387.49092 c 0,-3.46502 2.78953,-6.25456 6.25456,-6.25456 z"
         style="color:#000000;clip-rule:nonzero;display:inline;overflow:visible;visibility:visible;opacity:1;isolation:auto;mix-blend-mode:normal;color-interpolation:sRGB;color-interpolation-filters:linearRGB;solid-color:#000000;solid-opacity:1;fill:none;fill-opacity:1;fill-rule:nonzero;stroke:none;stroke-width:36;stroke-linecap:butt;stroke-linejoin:round;stroke-miterlimit:4;stroke-dasharray:none;stroke-dashoffset:0;stroke-opacity:1;color-rendering:auto;image-rendering:auto;shape-rendering:auto;text-rendering:auto;enable-background:accumulate"
         inkscape:connector-curvature="0" />
      <path
         style="color:#000000;clip-rule:nonzero;display:inline;overflow:visible;visibility:visible;opacity:1;isolation:auto;mix-blend-mode:normal;color-interpolation:sRGB;color-interpolation-filters:linearRGB;solid-color:#000000;solid-opacity:1;fill:#99b000;fill-opacity:1;fill-rule:evenodd;stroke:none;stroke-width:50;stroke-linecap:butt;stroke-linejoin:round;stroke-miterlimit:4;stroke-dasharray:none;stroke-dashoffset:0;stroke-opacity:1;color-rendering:auto;image-rendering:auto;shape-rendering:auto;text-rendering:auto;enable-background:accumulate"
         d="m 288.96085,626.11218 c -5.60634,0 -10.47224,4.91671 -10.47224,10.78325 l 0,0.87505 c 0,5.86655 4.61392,10.06221 10.22024,10.06221 l 70.84369,0 c -12.54023,11.48445 -29.02701,43.49678 -29.0328,74.05675 l 185.8643,0 c -2.18142,-30.73727 -15.80039,-63.16956 -28.40392,-74.05675 l 60.35583,0.0538 0,33.47903 0.54191,40.64308 40.16735,0.17503 -19.7804,-62.93527 -0.17172,-21.94451 0,-0.87505 -0.0513,-1.08736 c -0.48473,-4.99042 -4.2791,-8.70482 -9.05618,-9.17783 -0.34124,-0.0347 -0.68881,-0.0514 -1.03921,-0.0514 l -0.51737,0 z"
         id="rect4211"
         inkscape:connector-curvature="0"
         sodipodi:nodetypes="sssscccccccccccccscs"
         inkscape:export-filename="C:\Users\johannes\Desktop\g4232.png"
         inkscape:export-xdpi="4.9499998"
         inkscape:export-ydpi="4.9499998" />
    </g>
  </g>
</svg>
