<?xml version="1.0" encoding="UTF-8" standalone="no"?>
<!-- Created with Inkscape (http://www.inkscape.org/) -->

<svg
   xmlns:dc="http://purl.org/dc/elements/1.1/"
   xmlns:cc="http://creativecommons.org/ns#"
   xmlns:rdf="http://www.w3.org/1999/02/22-rdf-syntax-ns#"
   xmlns:svg="http://www.w3.org/2000/svg"
   xmlns="http://www.w3.org/2000/svg"
   xmlns:xlink="http://www.w3.org/1999/xlink"
   xmlns:sodipodi="http://sodipodi.sourceforge.net/DTD/sodipodi-0.dtd"
   xmlns:inkscape="http://www.inkscape.org/namespaces/inkscape"
   width="210mm"
   height="297mm"
   viewBox="0 0 744.09448819 1052.3622047"
   id="svg2"
   version="1.1"
   inkscape:version="0.91 r13725"
   inkscape:export-xdpi="7.1999736"
   inkscape:export-ydpi="7.1999736"
   sodipodi:docname="affiliation-guest.svg"
   inkscape:export-filename="C:\Users\johannes\Documents\Arbeit\RRZE\github3\bicons\32x32\categories\affiliation-guest.png">
  <defs
     id="defs4">
    <linearGradient
       inkscape:collect="always"
       xlink:href="#linearGradient4321"
       id="linearGradient4201"
       x1="286.38269"
       y1="672.9209"
       x2="532.51678"
       y2="367.74933"
       gradientUnits="userSpaceOnUse"
       gradientTransform="matrix(0.79313328,0,0,0.79313328,-111.3555,-262.04574)" />
    <linearGradient
       id="linearGradient4321"
       inkscape:collect="always">
      <stop
         id="stop4323"
         offset="0"
         style="stop-color:#4e505d;stop-opacity:1;" />
      <stop
         id="stop4325"
         offset="1"
         style="stop-color:#7a8597;stop-opacity:1" />
    </linearGradient>
    <linearGradient
       inkscape:collect="always"
       xlink:href="#linearGradient4321"
       id="linearGradient4319"
       x1="280"
       y1="712.36218"
       x2="500"
       y2="472.36221"
       gradientUnits="userSpaceOnUse"
       gradientTransform="matrix(1.0724463,0,0,0.90061509,-217.5099,-253.33166)" />
  </defs>
  <sodipodi:namedview
     id="base"
     pagecolor="#ffffff"
     bordercolor="#666666"
     borderopacity="1.0"
     inkscape:pageopacity="0.0"
     inkscape:pageshadow="2"
     inkscape:zoom="0.52525251"
     inkscape:cx="227.86013"
     inkscape:cy="485.61663"
     inkscape:document-units="px"
     inkscape:current-layer="layer1"
     showgrid="false"
     showguides="true"
     inkscape:guide-bbox="true"
     inkscape:window-width="1366"
     inkscape:window-height="721"
     inkscape:window-x="-4"
     inkscape:window-y="-4"
     inkscape:window-maximized="1"
     inkscape:snap-bbox="true"
     inkscape:bbox-paths="true"
     inkscape:bbox-nodes="true">
    <sodipodi:guide
       position="315.53572,730.17859"
       orientation="0,1"
       id="guide3338" />
    <sodipodi:guide
       position="351.25,330.17858"
       orientation="0,1"
       id="guide3340" />
    <sodipodi:guide
       position="189.10714,408.8393"
       orientation="1,0"
       id="guide3344" />
    <sodipodi:guide
       position="589.04521,468.07945"
       orientation="1,0"
       id="guide3346" />
    <inkscape:grid
       type="xygrid"
       id="grid3440" />
    <sodipodi:guide
       position="0,0"
       orientation="0,1"
       id="guide3405" />
    <sodipodi:guide
       position="214.125,684.50002"
       orientation="1,0"
       id="guide3407" />
    <sodipodi:guide
       position="0,0"
       orientation="0,1"
       id="guide3409" />
    <sodipodi:guide
       position="589.04521,378.30213"
       orientation="1,0"
       id="guide3411" />
    <sodipodi:guide
       position="564.00001,683.37502"
       orientation="1,0"
       id="guide3413" />
  </sodipodi:namedview>
  <metadata
     id="metadata7">
    <rdf:RDF>
      <cc:Work
         rdf:about="">
        <dc:format>image/svg+xml</dc:format>
        <dc:type
           rdf:resource="http://purl.org/dc/dcmitype/StillImage" />
        <dc:title>affiliation guest</dc:title>
        <dc:date>June 2015</dc:date>
        <dc:creator>
          <cc:Agent>
            <dc:title>Johannes Hechler</dc:title>
          </cc:Agent>
        </dc:creator>
        <dc:rights>
          <cc:Agent>
            <dc:title>Johannes Hechler</dc:title>
          </cc:Agent>
        </dc:rights>
        <dc:publisher>
          <cc:Agent>
            <dc:title>RRZE</dc:title>
          </cc:Agent>
        </dc:publisher>
        <dc:contributor>
          <cc:Agent>
            <dc:title>Ute Weber, Hendrik Eggers, Joanna Barbach</dc:title>
          </cc:Agent>
        </dc:contributor>
        <dc:subject>
          <rdf:Bag>
            <rdf:li>affiliation</rdf:li>
            <rdf:li>guest</rdf:li>
          </rdf:Bag>
        </dc:subject>
        <cc:license
           rdf:resource="http://creativecommons.org/licenses/by-sa/3.0/" />
      </cc:Work>
      <cc:License
         rdf:about="http://creativecommons.org/licenses/by-sa/3.0/">
        <cc:permits
           rdf:resource="http://creativecommons.org/ns#Reproduction" />
        <cc:permits
           rdf:resource="http://creativecommons.org/ns#Distribution" />
        <cc:requires
           rdf:resource="http://creativecommons.org/ns#Notice" />
        <cc:requires
           rdf:resource="http://creativecommons.org/ns#Attribution" />
        <cc:permits
           rdf:resource="http://creativecommons.org/ns#DerivativeWorks" />
        <cc:requires
           rdf:resource="http://creativecommons.org/ns#ShareAlike" />
      </cc:License>
    </rdf:RDF>
  </metadata>
  <g
     inkscape:label="Ebene 1"
     inkscape:groupmode="layer"
     id="layer1">
    <g
       transform="translate(189.04374,-330.17849)"
       id="g4598">
      <path
         inkscape:connector-curvature="0"
         id="path4244"
         transform="translate(0,652.36214)"
         d="M 239.00781,0.01171875 102.80859,0.02539063 C 94.859414,0.01199062 90.894234,3.9417875 90.927734,11.773438 c -0.021,40.80714 -0.0099,88.315492 -0.0078,133.755862 l 171.169916,0 c 11.14503,-14.19179 27.98733,-23.71668 46.97071,-24.98633 l 0,-50.681642 c -3.62494,0.33225 -14.51187,1.273626 -26.71094,1.728516 -7.40662,0.27614 -15.1285,0.381585 -22.18359,-0.04687 -3.52754,-0.21418 -6.87193,-0.54079 -10.28907,-1.21875 -3.41714,-0.67794 -4.68996,-0.402908 -9.57617,-4.611328 -4.32572,-3.72569 -5.15481,-9.366215 -5.38867,-15.583985 -0.23387,-6.21777 0.45373,-12.097991 1.22266,-18.113281 1.53787,-12.03057 3.37853,-24.8912244 2.96093,-30.7714844 l -0.0879,-1.23242185 z M 90.916016,181.5293 c 0.002,15.44508 -0.006,27.49188 -0.002,43.74609 -0.0211,7.91623 3.969513,11.93245 11.851554,11.87891 l 151.69141,0.0391 c 3.28306,-2.91989 6.70819,-5.63522 10.28516,-8.10938 -10.2987,-11.57428 -16.63472,-26.7437 -16.63477,-43.32226 1e-5,-1.42231 0.0632,-2.83159 0.1543,-4.23242 l -157.3457,0 z m 193.486324,0 c -0.19151,1.3797 -0.29491,2.79227 -0.29492,4.23242 5e-5,14.97309 10.69416,27.01514 24.95117,29.0664 l 0,-33.29882 -24.65625,0 z"
         style="fill:url(#linearGradient4201);fill-opacity:1;fill-rule:evenodd;stroke:none;stroke-width:1px;stroke-linecap:butt;stroke-linejoin:miter;stroke-opacity:1" />
      <path
         style="fill:#99b000;fill-opacity:1;fill-rule:evenodd;stroke:none;stroke-width:1px;stroke-linecap:butt;stroke-linejoin:miter;stroke-opacity:1"
         d="m 256.1308,652.37069 c 2.82064,-0.7553 52.89575,48.84718 52.89575,54.17353 0,0 -46.80572,4.68711 -53.91758,-0.828 -7.11187,-5.51513 2.24742,-35.61391 1.02183,-53.34553 z"
         id="path4288"
         inkscape:connector-curvature="0"
         sodipodi:nodetypes="cczc"
         inkscape:export-xdpi="3.46731"
         inkscape:export-ydpi="3.46731" />
      <path
         inkscape:connector-curvature="0"
         id="rect4171-8"
         transform="translate(0,652.36214)"
         d="m 60.794922,163.52734 c -3.46502,0 -6.255859,2.79084 -6.25586,6.25586 l 0,96.69532 c 0,3.46502 2.79084,6.2539 6.25586,6.2539 l 166.285158,0 c 9.48072,-18.03518 22.24152,-32.98215 37.66211,-43.64844 -10.2987,-11.57428 -16.63472,-26.7437 -16.63477,-43.32226 3e-5,-7.79145 1.39133,-15.28105 3.93164,-22.23438 l -191.244138,0 z m 233.300778,0 c -6.14353,5.34947 -9.98825,13.26364 -9.98828,22.23438 5e-5,16.45753 12.919,29.37889 29.28906,29.3789 16.37008,-2e-5 29.28902,-12.92137 29.28907,-29.3789 -3e-5,-8.97075 -3.84475,-16.88491 -9.98828,-22.23438 l -38.60157,0 z m -7.74804,94.61133 0,0.002 c -5.61269,3.76782 -10.96351,8.67958 -15.86133,14.5918 l 69.33203,0 c 3.46503,0 6.25391,-2.78888 6.25391,-6.2539 l 0,-3.25586 c -2.03573,-1.76751 -4.1153,-3.38108 -6.23047,-4.82813 -8.2377,3.1398 -17.14626,4.95117 -26.42774,4.95117 -9.52456,10e-6 -18.65155,-1.90918 -27.0664,-5.20703 z M 60.814453,290.78711 c -3.46526,0 -6.253906,2.7906 -6.253906,6.25586 l 0,96.70117 c 0,3.4653 2.788646,6.25586 6.253906,6.25586 l 154.230467,0 c -0.88902,-1.41524 -1.69268,-2.90945 -2.39844,-4.48828 a 18.0018,18.0018 0 0 1 -1.26757,-4.07813 c -2.13919,-11.5868 -3.27735,-23.71347 -3.27735,-36.20117 0,-23.31321 3.86043,-45.15184 10.98438,-64.44531 l -158.271487,0 z m 197.851567,0 c -8.92011,17.29472 -14.56446,39.24401 -14.56446,64.44727 0,8.94589 0.83011,17.55802 2.15625,25.85742 0.59916,0.3562 1.51617,0.79172 2.85742,0.88672 a 18.0018,18.0018 0 0 1 0.19336,0.0234 l 96.13086,0 0,-84.95898 c 0,-3.46526 -2.78864,-6.25586 -6.2539,-6.25586 l -80.51953,0 z"
         style="opacity:1;fill:url(#linearGradient4319);fill-opacity:1;stroke:none;stroke-width:23;stroke-linecap:butt;stroke-linejoin:round;stroke-miterlimit:4;stroke-dasharray:none;stroke-opacity:1" />
      <path
         inkscape:connector-curvature="0"
         id="rect4232-8"
         transform="translate(0,652.36214)"
         d="m 135.76367,181.70703 c -4.71089,0 -8.5039,3.25115 -8.5039,7.28906 l 0,39.96289 c 0,4.0379 3.79301,7.28907 8.5039,7.28907 l 94.41211,0 c 3.24955,-3.7526 6.67327,-7.32094 10.28906,-10.66602 -1.49482,-2.71624 -2.84029,-5.52805 -4.03906,-8.41406 l 0,1.07617 -90.71875,-0.17578 0,-36.36133 -9.94336,0 z m 0,127.25977 c -4.71089,0 -8.5039,3.25115 -8.5039,7.28906 l 0,39.96289 c 0,4.0379 3.79301,7.28906 8.5039,7.28906 l 54.50586,0 c -0.10221,-2.74412 -0.16797,-5.49923 -0.16797,-8.27539 0,-3.29453 0.0707,-6.56878 0.21094,-9.81836 l -44.60547,-0.0859 0,-36.36132 -9.94336,0 z"
         style="color:#000000;clip-rule:nonzero;display:inline;overflow:visible;visibility:visible;opacity:1;isolation:auto;mix-blend-mode:normal;color-interpolation:sRGB;color-interpolation-filters:linearRGB;solid-color:#000000;solid-opacity:1;fill:#ffffff;fill-opacity:1;fill-rule:evenodd;stroke:none;stroke-width:50;stroke-linecap:butt;stroke-linejoin:miter;stroke-miterlimit:4;stroke-dasharray:none;stroke-dashoffset:0;stroke-opacity:1;color-rendering:auto;image-rendering:auto;shape-rendering:auto;text-rendering:auto;enable-background:accumulate" />
      <path
         id="rect4247"
         d="m 6.25457,652.36214 387.49234,0 c 3.46503,0 6.25456,2.78954 6.25456,6.25456 l 0,387.4909 c 0,3.465 -2.78953,6.2545 -6.25456,6.2545 l -387.49234,0 c -3.46503,0 -6.25456,-2.7895 -6.25456,-6.2545 l 0,-387.4909 c 0,-3.46502 2.78953,-6.25456 6.25456,-6.25456 z"
         style="color:#000000;clip-rule:nonzero;display:inline;overflow:visible;visibility:visible;opacity:1;isolation:auto;mix-blend-mode:normal;color-interpolation:sRGB;color-interpolation-filters:linearRGB;solid-color:#000000;solid-opacity:1;fill:none;fill-opacity:1;fill-rule:nonzero;stroke:none;stroke-width:36;stroke-linecap:butt;stroke-linejoin:round;stroke-miterlimit:4;stroke-dasharray:none;stroke-dashoffset:0;stroke-opacity:1;color-rendering:auto;image-rendering:auto;shape-rendering:auto;text-rendering:auto;enable-background:accumulate"
         inkscape:connector-curvature="0" />
      <path
         inkscape:connector-curvature="0"
         id="path2176"
         d="m 313.39628,790.74405 a 47.288506,47.3793 0 0 0 -47.28844,47.37916 47.288506,47.3793 0 0 0 47.28844,47.37916 47.288506,47.3793 0 0 0 47.28845,-47.37916 47.288506,47.3793 0 0 0 -47.28845,-47.37916 z m -28.25423,99.353 c -0.0875,0.0774 -0.16782,0.16126 -0.2581,0.23638 l -4.87323,2.63977 c -31.78802,18.83092 -53.90959,61.57826 -53.90959,114.6204 0,11.3929 1.03949,22.4315 2.97836,32.9333 2.87595,6.4337 10.10131,11.1493 18.7595,11.7652 l 0,0.07 128.68564,0 0,-0.01 c 9.71798,-0.1372 17.90306,-5.4245 20.65307,-12.6738 1.84014,-10.2488 2.82377,-21.0013 2.82377,-32.0899 0,-55.52978 -24.85239,-100.03089 -59.02303,-117.08903 -8.15829,4.58054 -17.56353,7.20762 -27.56427,7.20762 -10.29226,10e-6 -19.95185,-2.78261 -28.27212,-7.61393 z"
         style="fill:#99b000;fill-opacity:1;stroke:none;stroke-width:41.15159225;stroke-linecap:round;stroke-linejoin:round;stroke-opacity:1" />
      <path
         id="rect4513"
         d="m 0,652.36212 400.00146,0 0,399.99998 -400.00146,0 z"
         style="color:#000000;clip-rule:nonzero;display:inline;overflow:visible;visibility:visible;opacity:1;isolation:auto;mix-blend-mode:normal;color-interpolation:sRGB;color-interpolation-filters:linearRGB;solid-color:#000000;solid-opacity:1;fill:none;fill-opacity:1;fill-rule:nonzero;stroke:none;stroke-width:36;stroke-linecap:butt;stroke-linejoin:round;stroke-miterlimit:4;stroke-dasharray:none;stroke-dashoffset:0;stroke-opacity:1;color-rendering:auto;image-rendering:auto;shape-rendering:auto;text-rendering:auto;enable-background:accumulate"
         inkscape:connector-curvature="0" />
    </g>
  </g>
</svg>
