<?xml version="1.0" encoding="UTF-8" standalone="no"?>
<!-- Created with Inkscape (http://www.inkscape.org/) -->

<svg
   xmlns:dc="http://purl.org/dc/elements/1.1/"
   xmlns:cc="http://creativecommons.org/ns#"
   xmlns:rdf="http://www.w3.org/1999/02/22-rdf-syntax-ns#"
   xmlns:svg="http://www.w3.org/2000/svg"
   xmlns="http://www.w3.org/2000/svg"
   xmlns:xlink="http://www.w3.org/1999/xlink"
   xmlns:sodipodi="http://sodipodi.sourceforge.net/DTD/sodipodi-0.dtd"
   xmlns:inkscape="http://www.inkscape.org/namespaces/inkscape"
   width="210mm"
   height="297mm"
   viewBox="0 0 744.09448819 1052.3622047"
   id="svg2"
   version="1.1"
   inkscape:version="0.91 r13725"
   inkscape:export-xdpi="7.1999993"
   inkscape:export-ydpi="7.1999993"
   sodipodi:docname="alumni-group.svg"
   inkscape:export-filename="C:\Users\johannes\Documents\Arbeit\RRZE\github3\bicons\32x32\categories\alumni-group.png">
  <defs
     id="defs4">
    <linearGradient
       inkscape:collect="always"
       id="linearGradient4267">
      <stop
         style="stop-color:#99b000;stop-opacity:1;"
         offset="0"
         id="stop4269" />
      <stop
         style="stop-color:#a9bc24;stop-opacity:1"
         offset="1"
         id="stop4271" />
    </linearGradient>
    <linearGradient
       inkscape:collect="always"
       xlink:href="#linearGradient4254"
       id="linearGradient4260"
       x1="409.44202"
       y1="340.14514"
       x2="372.10315"
       y2="457.18103"
       gradientUnits="userSpaceOnUse"
       gradientTransform="matrix(0.86491235,0,0,0.87127307,-27.4722,119.7186)" />
    <linearGradient
       inkscape:collect="always"
       id="linearGradient4254">
      <stop
         style="stop-color:#7a8597;stop-opacity:1"
         offset="0"
         id="stop4256" />
      <stop
         style="stop-color:#4e505d;stop-opacity:1"
         offset="1"
         id="stop4258" />
    </linearGradient>
    <linearGradient
       inkscape:collect="always"
       xlink:href="#linearGradient4254"
       id="linearGradient4268"
       x1="434.33096"
       y1="491.03067"
       x2="379.36569"
       y2="644.62878"
       gradientUnits="userSpaceOnUse"
       gradientTransform="matrix(0.89436672,0,0,0.89436672,-37.43365,112.42897)" />
    <linearGradient
       inkscape:collect="always"
       xlink:href="#linearGradient4267"
       id="linearGradient4350"
       gradientUnits="userSpaceOnUse"
       gradientTransform="matrix(0.89436672,0,0,0.89436672,108.00633,27.020024)"
       x1="380.15018"
       y1="645.5318"
       x2="449.47296"
       y2="466.63428" />
    <linearGradient
       inkscape:collect="always"
       xlink:href="#linearGradient4267"
       id="linearGradient4273"
       x1="441"
       y1="428.36221"
       x2="471"
       y2="362.36221"
       gradientUnits="userSpaceOnUse" />
  </defs>
  <sodipodi:namedview
     id="base"
     pagecolor="#ffffff"
     bordercolor="#666666"
     borderopacity="1.0"
     inkscape:pageopacity="0.0"
     inkscape:pageshadow="2"
     inkscape:zoom="0.35355339"
     inkscape:cx="292.16352"
     inkscape:cy="595.79074"
     inkscape:document-units="px"
     inkscape:current-layer="layer1"
     showgrid="false"
     showguides="true"
     inkscape:guide-bbox="true"
     inkscape:window-width="1366"
     inkscape:window-height="721"
     inkscape:window-x="-4"
     inkscape:window-y="-4"
     inkscape:window-maximized="1"
     inkscape:snap-bbox="true"
     inkscape:bbox-paths="true"
     inkscape:bbox-nodes="true"
     inkscape:snap-nodes="false">
    <sodipodi:guide
       position="315.53572,730.17859"
       orientation="0,1"
       id="guide3338" />
    <sodipodi:guide
       position="351.25,330.17858"
       orientation="0,1"
       id="guide3340" />
    <sodipodi:guide
       position="189.10714,408.8393"
       orientation="1,0"
       id="guide3344" />
    <sodipodi:guide
       position="589.04521,468.07945"
       orientation="1,0"
       id="guide3346" />
    <inkscape:grid
       type="xygrid"
       id="grid3440" />
    <sodipodi:guide
       position="0,0"
       orientation="0,1"
       id="guide3405" />
    <sodipodi:guide
       position="214.125,684.50002"
       orientation="1,0"
       id="guide3407" />
    <sodipodi:guide
       position="0,0"
       orientation="0,1"
       id="guide3409" />
    <sodipodi:guide
       position="589.04521,378.30213"
       orientation="1,0"
       id="guide3411" />
    <sodipodi:guide
       position="564.00001,683.37502"
       orientation="1,0"
       id="guide3413" />
    <sodipodi:guide
       position="0,0"
       orientation="0,1"
       id="guide4168" />
  </sodipodi:namedview>
  <metadata
     id="metadata7">
    <rdf:RDF>
      <cc:Work
         rdf:about="">
        <dc:format>image/svg+xml</dc:format>
        <dc:type
           rdf:resource="http://purl.org/dc/dcmitype/StillImage" />
        <dc:title>alumni group</dc:title>
        <dc:date>June 2015</dc:date>
        <dc:creator>
          <cc:Agent>
            <dc:title>Johannes Hechler</dc:title>
          </cc:Agent>
        </dc:creator>
        <dc:rights>
          <cc:Agent>
            <dc:title>Johannes Hechler</dc:title>
          </cc:Agent>
        </dc:rights>
        <dc:publisher>
          <cc:Agent>
            <dc:title>RRZE</dc:title>
          </cc:Agent>
        </dc:publisher>
        <dc:contributor>
          <cc:Agent>
            <dc:title>Ute Weber, Hendrik Eggers, Joanna Barbach</dc:title>
          </cc:Agent>
        </dc:contributor>
        <dc:subject>
          <rdf:Bag>
            <rdf:li>user</rdf:li>
            <rdf:li>other</rdf:li>
            <rdf:li>guest</rdf:li>
            <rdf:li>misc</rdf:li>
            <rdf:li>template</rdf:li>
            <rdf:li>identity management</rdf:li>
            <rdf:li>role</rdf:li>
            <rdf:li>male</rdf:li>
            <rdf:li>female</rdf:li>
            <rdf:li>pair</rdf:li>
            <rdf:li>business</rdf:li>
          </rdf:Bag>
        </dc:subject>
        <cc:license
           rdf:resource="http://creativecommons.org/licenses/by-sa/3.0/" />
      </cc:Work>
      <cc:License
         rdf:about="http://creativecommons.org/licenses/by-sa/3.0/">
        <cc:permits
           rdf:resource="http://creativecommons.org/ns#Reproduction" />
        <cc:permits
           rdf:resource="http://creativecommons.org/ns#Distribution" />
        <cc:requires
           rdf:resource="http://creativecommons.org/ns#Notice" />
        <cc:requires
           rdf:resource="http://creativecommons.org/ns#Attribution" />
        <cc:permits
           rdf:resource="http://creativecommons.org/ns#DerivativeWorks" />
        <cc:requires
           rdf:resource="http://creativecommons.org/ns#ShareAlike" />
      </cc:License>
    </rdf:RDF>
  </metadata>
  <g
     inkscape:label="Ebene 1"
     inkscape:groupmode="layer"
     id="layer1">
    <g
       id="g4161">
      <path
         inkscape:connector-curvature="0"
         id="path4344"
         d="m 490.42744,441.7442 c -9.99013,5.80096 -21.59132,9.14453 -33.94922,9.14453 -3.74128,0 -7.41163,-0.30637 -10.99023,-0.89453 -3.98051,-0.72144 -7.83948,-1.79414 -11.54883,-3.17774 l 9.11719,42.98242 a 18.0018,18.0018 0 0 1 -17.6836,21.73438 l -27.63281,-0.11523 a 18.0018,18.0018 0 0 1 -17.70703,-15.34376 c -3.76464,8.16367 -8.93876,15.55907 -15.23242,21.83985 35.73773,23.36753 60.05428,66.46652 67.01562,118.86133 l 75.1543,0 a 14.140192,14.140192 0 0 1 -0.1543,-0.19727 l 28.39844,0 0,-0.0859 c 10.39587,-0.73961 19.07422,-6.40199 22.52735,-14.12695 2.32801,-12.60944 3.57421,-25.86373 3.57421,-39.54297 0,-63.68769 -26.56073,-115.01281 -64.72851,-137.62305 l -5.85156,-3.16992 c -0.10841,-0.0902 -0.20356,-0.19027 -0.3086,-0.2832 l 0,-0.002 z M 354.47822,555.35162 c -1.13881,8.91297 -1.75195,18.14617 -1.75195,27.66797 0,13.67924 1.24816,26.93354 3.57617,39.54297 3.45313,7.72496 12.12951,13.38734 22.52539,14.12695 l 0,0.0859 16.54102,0 c -5.83913,-35.77172 -21.37509,-64.22305 -40.89063,-81.42383 z"
         style="fill:url(#linearGradient4350);fill-opacity:1;stroke:none;stroke-width:41.15159225;stroke-linecap:round;stroke-linejoin:round;stroke-opacity:1" />
      <path
         id="path4346"
         d="m 433.40986,336.32232 c 0.0462,4.12264 -1.70929,8.0601 -4.80664,10.78125 -1.3397,1.1725 -2.54697,2.46511 -3.7207,3.78125 l 64.58984,0 c -1.17396,-1.32019 -2.38191,-2.61674 -3.72265,-3.79297 -3.08916,-2.721 -4.83915,-6.65314 -4.79297,-10.76953 z m 80.89258,46.73242 c -0.54756,0.068 -1.09864,0.10385 -1.65039,0.10743 l -110.97851,0 c -0.29728,-0.006 -0.5943,-0.0206 -0.89063,-0.0449 -0.008,0.13994 -0.0148,0.27992 -0.0215,0.41992 0.0169,3.37366 0.3332,6.73914 0.94531,10.05664 l 2.67773,0 0.35547,0 c 0.80229,0 1.6078,0.0377 2.42188,0.11523 10e-4,1.2e-4 0.003,-1.3e-4 0.004,0 11.18909,1.06566 21.23009,6.34927 22.42774,18.13282 0.0315,0.30988 0.0549,0.62053 0.0703,0.93164 l 0.0352,0.71484 c 0.0144,0.29535 0.0216,0.59101 0.0215,0.88672 l 0,0.50195 0.10352,12.54102 0.4082,1.92578 c 8.36351,4.62402 17.75623,7.0592 27.30859,7.08007 31.35775,7e-5 56.77848,-21.46876 56.7793,-52.88671 -0.005,-0.16083 -0.011,-0.32164 -0.0176,-0.48242 z"
         style="fill:url(#linearGradient4273);fill-opacity:1;stroke:none;stroke-width:14;stroke-miterlimit:4;stroke-dasharray:none;stroke-opacity:1"
         inkscape:connector-curvature="0"
         sodipodi:nodetypes="ccccccccccccccscccccccccccc" />
      <path
         style="color:#000000;clip-rule:nonzero;display:inline;overflow:visible;visibility:visible;opacity:1;isolation:auto;mix-blend-mode:normal;color-interpolation:sRGB;color-interpolation-filters:linearRGB;solid-color:#000000;solid-opacity:1;fill:#2f3037;fill-opacity:1;fill-rule:evenodd;stroke:none;stroke-width:50;stroke-linecap:butt;stroke-linejoin:round;stroke-miterlimit:4;stroke-dasharray:none;stroke-dashoffset:0;stroke-opacity:1;color-rendering:auto;image-rendering:auto;shape-rendering:auto;text-rendering:auto;enable-background:accumulate"
         d="m 364.44346,322.18366 c -3.85689,0 -7.2044,3.23244 -7.2044,7.08933 l 0,0.57531 c 0,3.85687 3.17416,6.61529 7.03103,6.61527 l 55.02097,0 c -8.62708,7.55038 -14.76533,17.5016 -17.61671,28.55984 l 110.97775,0 c -2.84041,-11.05342 -8.96444,-21.00408 -17.57682,-28.55984 l 47.80582,0.0353 0,22.01053 0.3728,49.49953 27.63321,0.11506 -13.60796,-64.15532 -0.11813,-14.42722 0,-0.5753 -0.0353,-0.71492 c -0.33346,-3.28088 -2.94381,-5.72285 -6.23021,-6.03384 -0.23476,-0.0224 -0.47387,-0.0337 -0.71492,-0.0337 l -0.35593,0 z"
         id="path4348"
         inkscape:connector-curvature="0"
         sodipodi:nodetypes="sssscccccccccccccscs"
         inkscape:export-filename="C:\Users\johannes\Desktop\g4232.png"
         inkscape:export-xdpi="4.9499998"
         inkscape:export-ydpi="4.9499998" />
      <rect
         inkscape:export-ydpi="4.9499998"
         inkscape:export-xdpi="4.9499998"
         y="322.18362"
         x="189.10715"
         height="400"
         width="400"
         id="rect3336"
         style="fill:none;fill-rule:evenodd;stroke:none;stroke-width:1px;stroke-linecap:butt;stroke-linejoin:miter;stroke-opacity:1" />
      <path
         id="path2176"
         d="m 344.9868,527.15392 c -9.99013,5.80096 -21.5899,9.14358 -33.94779,9.14358 -3.74129,0 -7.41209,-0.30626 -10.9907,-0.89442 -7.83684,-1.42036 -15.21368,-4.18624 -21.87245,-8.05278 l 0,0.002 c -0.10505,0.0929 -0.2015,0.1921 -0.3099,0.28229 l -1.70752,0.92509 c -0.58685,0.30913 -1.16997,0.62699 -1.752,0.94964 -0.10203,0.0566 -0.20495,0.11025 -0.30683,0.16723 l -2.08492,1.12914 c -16.34475,9.68247 -30.54898,24.64459 -41.46209,43.57462 -0.0268,0.0463 -0.0545,0.0918 -0.0813,0.13807 -0.34972,0.60815 -0.69883,1.21701 -1.04169,1.83331 -0.61281,1.09442 -1.21312,2.20328 -1.80417,3.32299 -0.0565,0.10779 -0.11247,0.21567 -0.16876,0.3237 -0.21655,0.4126 -0.43539,0.82209 -0.64894,1.23807 0.008,0.002 0.0152,0.004 0.023,0.006 -12.31513,24.16344 -19.5436,53.98885 -19.5436,87.18606 0,13.6792 1.24657,26.9335 3.57458,39.5429 3.45313,7.7249 12.13013,13.3869 22.52601,14.1265 l 0,0.086 128.14341,0 a 14.140192,14.140192 0 0 1 -0.15496,-0.1963 l 28.39877,0 0,-0.086 c 10.39587,-0.7396 19.07288,-6.4015 22.526,-14.1265 2.32801,-12.6094 3.57458,-25.8637 3.57458,-39.54287 0,-63.68769 -26.55978,-115.01273 -64.72756,-137.62297 l -5.85127,-3.1711 c -0.10841,-0.0902 -0.20486,-0.18935 -0.3099,-0.28228 l 0,-0.002 z"
         style="fill:url(#linearGradient4268);fill-opacity:1;stroke:none;stroke-width:41.15159225;stroke-linecap:round;stroke-linejoin:round;stroke-opacity:1"
         inkscape:connector-curvature="0" />
      <path
         inkscape:connector-curvature="0"
         id="circle2187-6"
         d="m 287.96992,421.73138 c 0.046,4.12236 -1.70941,8.0595 -4.80651,10.78051 -1.33971,1.1725 -2.54661,2.46555 -3.72033,3.78169 l 64.58949,0 c -1.17397,-1.32019 -2.38114,-2.6162 -3.72187,-3.79243 -3.08969,-2.72083 -4.84017,-6.6531 -4.79423,-10.76977 z m 80.89295,46.73236 c -0.54768,0.068 -1.09888,0.10384 -1.65075,0.1074 l -110.97774,0 c -0.29751,-0.005 -0.59478,-0.0203 -0.89135,-0.0445 -0.008,0.13958 -0.0148,0.27919 -0.0214,0.41882 9e-5,31.41839 25.42092,52.88799 56.77909,52.88803 31.35818,-4e-5 56.77901,-21.46964 56.7791,-52.88803 -0.005,-0.1606 -0.0106,-0.32118 -0.0169,-0.48173 z"
         style="fill:url(#linearGradient4260);fill-opacity:1;stroke:none;stroke-width:14;stroke-miterlimit:4;stroke-dasharray:none;stroke-opacity:1"
         sodipodi:nodetypes="ccccccccccccsccc" />
      <path
         inkscape:export-ydpi="4.9499998"
         inkscape:export-xdpi="4.9499998"
         inkscape:export-filename="C:\Users\johannes\Desktop\g4232.png"
         sodipodi:nodetypes="sssscccccccccccccscs"
         inkscape:connector-curvature="0"
         id="rect4211"
         d="m 219.00348,407.5926 c -3.85689,0 -7.2044,3.23244 -7.2044,7.08933 l 0,0.57531 c 0,3.85688 3.17416,6.6153 7.03104,6.61528 l 55.02096,0 c -8.62707,7.55038 -14.76533,17.5016 -17.6167,28.55984 l 110.97774,0 c -2.84041,-11.05342 -8.96443,-21.00408 -17.57682,-28.55984 l 47.80583,0.0353 0,22.01053 0.3728,49.49953 27.6332,0.11506 -13.60796,-64.15532 -0.11813,-14.42723 0,-0.5753 -0.0353,-0.71492 c -0.33346,-3.28088 -2.9438,-5.72285 -6.2302,-6.03384 -0.23476,-0.0224 -0.47387,-0.0337 -0.71493,-0.0337 l -0.35593,0 z"
         style="color:#000000;clip-rule:nonzero;display:inline;overflow:visible;visibility:visible;opacity:1;isolation:auto;mix-blend-mode:normal;color-interpolation:sRGB;color-interpolation-filters:linearRGB;solid-color:#000000;solid-opacity:1;fill:#2f3037;fill-opacity:1;fill-rule:evenodd;stroke:none;stroke-width:50;stroke-linecap:butt;stroke-linejoin:round;stroke-miterlimit:4;stroke-dasharray:none;stroke-dashoffset:0;stroke-opacity:1;color-rendering:auto;image-rendering:auto;shape-rendering:auto;text-rendering:auto;enable-background:accumulate" />
    </g>
  </g>
</svg>
