<?xml version="1.0" encoding="UTF-8" standalone="no"?>
<!-- Created with Inkscape (http://www.inkscape.org/) -->

<svg
   xmlns:dc="http://purl.org/dc/elements/1.1/"
   xmlns:cc="http://creativecommons.org/ns#"
   xmlns:rdf="http://www.w3.org/1999/02/22-rdf-syntax-ns#"
   xmlns:svg="http://www.w3.org/2000/svg"
   xmlns="http://www.w3.org/2000/svg"
   xmlns:xlink="http://www.w3.org/1999/xlink"
   xmlns:sodipodi="http://sodipodi.sourceforge.net/DTD/sodipodi-0.dtd"
   xmlns:inkscape="http://www.inkscape.org/namespaces/inkscape"
   width="210mm"
   height="297mm"
   viewBox="0 0 744.09448819 1052.3622047"
   id="svg2"
   version="1.1"
   inkscape:version="0.91 r13725"
   inkscape:export-xdpi="3.3738298"
   inkscape:export-ydpi="3.3738298"
   sodipodi:docname="book-marks.svg"
   inkscape:export-filename="C:\Users\johannes\Documents\Arbeit\RRZE\github3\bicons\16x16\categories\book-marks2.png">
  <title
     id="title4167">bookmarks 2</title>
  <defs
     id="defs4">
    <linearGradient
       id="linearGradient2224">
      <stop
         id="stop2226"
         offset="0"
         style="stop-color:#7c7c7c;stop-opacity:1;" />
      <stop
         id="stop2228"
         offset="1"
         style="stop-color:#b8b8b8;stop-opacity:1;" />
    </linearGradient>
    <linearGradient
       id="linearGradient15218">
      <stop
         id="stop15220"
         offset="0"
         style="stop-color:#eeeeef;stop-opacity:1;" />
      <stop
         id="stop2736"
         offset="0.59928656"
         style="stop-color:#d3d7cf;stop-opacity:1;" />
      <stop
         id="stop2738"
         offset="0.82758623"
         style="stop-color:#ffffff;stop-opacity:1;" />
      <stop
         id="stop15222"
         offset="1"
         style="stop-color:#d3d7cf;stop-opacity:1;" />
    </linearGradient>
    <pattern
       y="0"
       x="0"
       height="6"
       width="6"
       patternUnits="userSpaceOnUse"
       id="EMFhbasepattern" />
    <pattern
       y="0"
       x="0"
       height="6"
       width="6"
       patternUnits="userSpaceOnUse"
       id="EMFhbasepattern-5" />
    <pattern
       y="0"
       x="0"
       height="6"
       width="6"
       patternUnits="userSpaceOnUse"
       id="EMFhbasepattern-6" />
    <linearGradient
       inkscape:collect="always"
       xlink:href="#linearGradient4253"
       id="linearGradient4258"
       gradientUnits="userSpaceOnUse"
       gradientTransform="translate(-25.250565,0.32740633)"
       x1="240"
       y1="722.18365"
       x2="600"
       y2="322.18362" />
    <linearGradient
       inkscape:collect="always"
       id="linearGradient4253">
      <stop
         style="stop-color:#4e505d;stop-opacity:1;"
         offset="0"
         id="stop4255" />
      <stop
         style="stop-color:#7a859c;stop-opacity:1"
         offset="1"
         id="stop4257" />
    </linearGradient>
  </defs>
  <sodipodi:namedview
     id="base"
     pagecolor="#ffffff"
     bordercolor="#666666"
     borderopacity="1.0"
     inkscape:pageopacity="0.0"
     inkscape:pageshadow="2"
     inkscape:zoom="1"
     inkscape:cx="255.72879"
     inkscape:cy="456.92327"
     inkscape:document-units="px"
     inkscape:current-layer="layer1"
     showgrid="false"
     showguides="true"
     inkscape:guide-bbox="true"
     inkscape:window-width="1600"
     inkscape:window-height="837"
     inkscape:window-x="-4"
     inkscape:window-y="-4"
     inkscape:window-maximized="1">
    <sodipodi:guide
       position="315.53572,730.17859"
       orientation="0,1"
       id="guide3338" />
    <sodipodi:guide
       position="351.25,330.17858"
       orientation="0,1"
       id="guide3340" />
    <sodipodi:guide
       position="189.10714,408.8393"
       orientation="1,0"
       id="guide3344" />
    <sodipodi:guide
       position="589.04521,468.07945"
       orientation="1,0"
       id="guide3346" />
    <inkscape:grid
       type="xygrid"
       id="grid3440" />
    <sodipodi:guide
       position="0,0"
       orientation="0,1"
       id="guide3405" />
    <sodipodi:guide
       position="214.125,684.50002"
       orientation="1,0"
       id="guide3407" />
    <sodipodi:guide
       position="0,0"
       orientation="0,1"
       id="guide3409" />
    <sodipodi:guide
       position="589.04521,378.30213"
       orientation="1,0"
       id="guide3411" />
    <sodipodi:guide
       position="564.00001,683.37502"
       orientation="1,0"
       id="guide3413" />
    <sodipodi:guide
       position="0,0"
       orientation="0,1"
       id="guide4168" />
  </sodipodi:namedview>
  <metadata
     id="metadata7">
    <rdf:RDF>
      <cc:Work
         rdf:about="">
        <dc:format>image/svg+xml</dc:format>
        <dc:type
           rdf:resource="http://purl.org/dc/dcmitype/StillImage" />
        <dc:title>bookmarks 2</dc:title>
        <dc:date>June 2015</dc:date>
        <dc:creator>
          <cc:Agent>
            <dc:title>Johannes Hechler</dc:title>
          </cc:Agent>
        </dc:creator>
        <dc:rights>
          <cc:Agent>
            <dc:title>Johannes Hechler</dc:title>
          </cc:Agent>
        </dc:rights>
        <dc:publisher>
          <cc:Agent>
            <dc:title>RRZE</dc:title>
          </cc:Agent>
        </dc:publisher>
        <dc:contributor>
          <cc:Agent>
            <dc:title>Ute Weber, Hendrik Eggers</dc:title>
          </cc:Agent>
        </dc:contributor>
      </cc:Work>
    </rdf:RDF>
  </metadata>
  <g
     inkscape:label="Ebene 1"
     inkscape:groupmode="layer"
     id="layer1">
    <g
       id="g4192">
      <path
         id="rect4302"
         d="M 464.01953 367.67578 C 455.43253 367.67578 448.51953 374.58878 448.51953 383.17578 L 448.51953 430.17578 C 448.51953 438.76278 455.43253 445.67578 464.01953 445.67578 L 498.16406 445.67578 L 498.16406 367.67578 L 464.01953 367.67578 z M 533.16406 367.67578 L 533.16406 445.67578 L 557.20117 445.67578 C 565.78817 445.67578 572.70117 438.76278 572.70117 430.17578 L 572.70117 383.17578 C 572.70117 374.58878 565.78817 367.67578 557.20117 367.67578 L 533.16406 367.67578 z M 482.01953 456.67578 C 473.43253 456.67578 466.51953 463.58878 466.51953 472.17578 L 466.51953 519.17578 C 466.51953 527.76278 473.43253 534.67578 482.01953 534.67578 L 498.16406 534.67578 L 498.16406 456.67578 L 482.01953 456.67578 z M 533.16406 456.67578 L 533.16406 534.67578 L 575.20117 534.67578 C 583.78817 534.67578 590.70117 527.76278 590.70117 519.17578 L 590.70117 472.17578 C 590.70117 463.58878 583.78817 456.67578 575.20117 456.67578 L 533.16406 456.67578 z M 470.10938 546.17578 C 461.52238 546.17578 454.60938 553.08878 454.60938 561.67578 L 454.60938 608.67578 C 454.60938 617.26278 461.52238 624.17578 470.10938 624.17578 L 498.16406 624.17578 L 498.16406 546.17578 L 470.10938 546.17578 z M 533.16406 546.17578 L 533.16406 624.17578 L 563.29102 624.17578 C 571.87802 624.17578 578.79102 617.26278 578.79102 608.67578 L 578.79102 561.67578 C 578.79102 553.08878 571.87802 546.17578 563.29102 546.17578 L 533.16406 546.17578 z "
         style="opacity:1;fill:#99b000;fill-opacity:1;stroke:none;stroke-width:16;stroke-linecap:round;stroke-linejoin:round;stroke-miterlimit:4;stroke-dasharray:none;stroke-opacity:1" />
      <flowRoot
         transform="translate(0.59389794,0.76449974)"
         style="font-style:normal;font-weight:normal;font-size:40px;line-height:125%;font-family:sans-serif;letter-spacing:0px;word-spacing:0px;fill:#252525;fill-opacity:1;stroke:none;stroke-width:1px;stroke-linecap:butt;stroke-linejoin:miter;stroke-opacity:1"
         id="flowRoot4169"
         xml:space="preserve"><flowRegion
           id="flowRegion4171"><rect
             y="427.07962"
             x="89.541069"
             height="88.78862"
             width="56.433445"
             id="rect4173" /></flowRegion><flowPara
           id="flowPara4175" /></flowRoot>      <rect
         inkscape:export-ydpi="4.9499998"
         inkscape:export-xdpi="4.9499998"
         y="323.03455"
         x="189.73875"
         height="400"
         width="400"
         id="rect3336"
         style="fill:none;fill-rule:evenodd;stroke:none;stroke-width:1px;stroke-linecap:butt;stroke-linejoin:miter;stroke-opacity:1" />
      <path
         id="rect4162"
         d="M 253.30078 323.67383 C 240.3202 323.67383 229.87109 333.46327 229.87109 345.62305 L 229.87109 355.0625 L 247.7793 355.0625 C 258.45261 355.0625 269.15872 357.84459 277.91016 364.81836 C 286.66159 371.79213 292.44141 383.51491 292.44141 395.73438 L 292.44141 398.76953 C 292.44141 410.98901 286.65771 422.71324 277.9043 429.68359 C 269.15088 436.65395 258.44826 439.43164 247.7793 439.43164 L 229.87109 439.43164 L 229.87109 481.80078 L 247.7793 481.80078 C 258.45261 481.80078 269.15872 484.58482 277.91016 491.55859 C 286.66159 498.53236 292.44141 510.25515 292.44141 522.47461 L 292.44141 525.50977 C 292.44141 537.72925 286.65772 549.45348 277.9043 556.42383 C 269.15088 563.39418 258.44826 566.17188 247.7793 566.17188 L 229.87109 566.17188 L 229.87109 606.54102 L 247.7793 606.54102 C 258.45261 606.54102 269.15872 609.32506 277.91016 616.29883 C 286.66159 623.2726 292.44141 634.99343 292.44141 647.21289 L 292.44141 650.25 C 292.44141 662.46948 286.65771 674.19371 277.9043 681.16406 C 269.15088 688.13441 258.44826 690.91211 247.7793 690.91211 L 229.87109 690.91211 L 229.87109 700.79883 C 229.87109 712.95861 240.3202 722.74805 253.30078 722.74805 L 492.23242 722.74805 C 505.21296 722.74805 515.66406 712.95861 515.66406 700.79883 L 515.66406 345.62305 C 515.66406 333.46327 505.21296 323.67383 492.23242 323.67383 L 253.30078 323.67383 z M 229.87109 390.0625 L 229.87109 404.43164 L 247.7793 404.43164 C 252.15903 404.43164 255.03661 403.15271 256.10156 402.30469 C 257.16652 401.45666 257.44141 401.59875 257.44141 398.76953 L 257.44141 395.73438 C 257.44141 392.90513 257.16457 393.0416 256.09766 392.19141 C 255.03074 391.34121 252.15474 390.0625 247.7793 390.0625 L 229.87109 390.0625 z M 229.87109 516.80078 L 229.87109 531.17188 L 247.7793 531.17188 C 252.15904 531.17188 255.03661 529.89294 256.10156 529.04492 C 257.16651 528.1969 257.44141 528.33899 257.44141 525.50977 L 257.44141 522.47461 C 257.44141 519.64536 257.16457 519.77988 256.09766 518.92969 C 255.03074 518.07949 252.15474 516.80078 247.7793 516.80078 L 229.87109 516.80078 z M 229.87109 641.54102 L 229.87109 655.91211 L 247.7793 655.91211 C 252.15903 655.91211 255.03661 654.63123 256.10156 653.7832 C 257.16652 652.93518 257.44141 653.07922 257.44141 650.25 L 257.44141 647.21289 C 257.44141 644.38365 257.16457 644.52012 256.09766 643.66992 C 255.03074 642.81973 252.15474 641.54102 247.7793 641.54102 L 229.87109 641.54102 z "
         style="color:#000000;clip-rule:nonzero;display:inline;overflow:visible;visibility:visible;opacity:18999999;isolation:auto;mix-blend-mode:normal;color-interpolation:sRGB;color-interpolation-filters:linearRGB;solid-color:#000000;solid-opacity:1;fill:url(#linearGradient4258);fill-opacity:1;fill-rule:nonzero;stroke:none;stroke-width:27.79999924;stroke-linecap:square;stroke-linejoin:miter;stroke-miterlimit:4;stroke-dasharray:27.79999924, 55.59999847000000300;stroke-dashoffset:0;stroke-opacity:1;color-rendering:auto;image-rendering:auto;shape-rendering:auto;text-rendering:auto;enable-background:accumulate" />
      <path
         sodipodi:nodetypes="sssssssssssssssssssssssssss"
         style="color:#000000;clip-rule:nonzero;display:inline;overflow:visible;visibility:visible;opacity:18999999;isolation:auto;mix-blend-mode:normal;color-interpolation:sRGB;color-interpolation-filters:linearRGB;solid-color:#000000;solid-opacity:1;fill:#4e505d;fill-opacity:1;fill-rule:nonzero;stroke:#ffffff;stroke-width:0;stroke-linecap:square;stroke-linejoin:miter;stroke-miterlimit:4;stroke-dasharray:none;stroke-dashoffset:0;stroke-opacity:1;color-rendering:auto;image-rendering:auto;shape-rendering:auto;text-rendering:auto;enable-background:accumulate"
         d="m 216.04728,372.56168 c -15.0487,0 -27.16109,8.12358 -27.16109,23.17228 l 0,3.03653 c 0,15.0487 12.11234,23.1611 27.16109,23.1611 l 31.73268,0 c 15.0487,0 27.16109,-8.1124 27.16109,-23.1611 l 0,-3.03653 c 0,-15.0487 -12.11233,-23.17228 -27.16109,-23.17228 z m 0,126.73981 c -15.0487,0 -27.16109,8.12358 -27.16109,23.17229 l 0,3.03653 c 0,15.0487 12.11234,23.16109 27.16109,23.16109 l 31.73268,0 c 15.0487,0 27.16109,-8.11239 27.16109,-23.16109 l 0,-3.03653 c 0,-15.04871 -12.11233,-23.17229 -27.16109,-23.17229 z m 0,124.73982 c -15.0487,0 -27.16109,8.12358 -27.16109,23.17228 l 0,3.03653 c 0,15.0487 12.11234,23.1611 27.16109,23.1611 l 31.73268,0 c 15.0487,0 27.16109,-8.1124 27.16109,-23.1611 l 0,-3.03653 c 0,-15.0487 -12.11233,-23.17228 -27.16109,-23.17228 z"
         id="path4183"
         inkscape:connector-curvature="0" />
    </g>
  </g>
</svg>
