<?xml version="1.0" encoding="UTF-8" standalone="no"?>
<!-- Created with Inkscape (http://www.inkscape.org/) -->

<svg
   xmlns:dc="http://purl.org/dc/elements/1.1/"
   xmlns:cc="http://creativecommons.org/ns#"
   xmlns:rdf="http://www.w3.org/1999/02/22-rdf-syntax-ns#"
   xmlns:svg="http://www.w3.org/2000/svg"
   xmlns="http://www.w3.org/2000/svg"
   xmlns:xlink="http://www.w3.org/1999/xlink"
   xmlns:sodipodi="http://sodipodi.sourceforge.net/DTD/sodipodi-0.dtd"
   xmlns:inkscape="http://www.inkscape.org/namespaces/inkscape"
   width="210mm"
   height="297mm"
   viewBox="0 0 744.09448819 1052.3622047"
   id="svg2"
   version="1.1"
   inkscape:version="0.91 r13725"
   inkscape:export-xdpi="4"
   inkscape:export-ydpi="4"
   sodipodi:docname="book.svg">
  <title
     id="title4167">book</title>
  <defs
     id="defs4">
    <linearGradient
       inkscape:collect="always"
       xlink:href="#linearGradient4253"
       id="linearGradient4258"
       gradientUnits="userSpaceOnUse"
       gradientTransform="translate(11.085381,-1.1627937)"
       x1="240"
       y1="722.18365"
       x2="600"
       y2="322.18362" />
    <linearGradient
       inkscape:collect="always"
       id="linearGradient4253">
      <stop
         style="stop-color:#4e505d;stop-opacity:1;"
         offset="0"
         id="stop4255" />
      <stop
         style="stop-color:#7a859c;stop-opacity:1"
         offset="1"
         id="stop4257" />
    </linearGradient>
  </defs>
  <sodipodi:namedview
     id="base"
     pagecolor="#ffffff"
     bordercolor="#666666"
     borderopacity="1.0"
     inkscape:pageopacity="0.0"
     inkscape:pageshadow="2"
     inkscape:zoom="0.7071068"
     inkscape:cx="358.64444"
     inkscape:cy="553.43656"
     inkscape:document-units="px"
     inkscape:current-layer="layer1"
     showgrid="false"
     showguides="true"
     inkscape:guide-bbox="true"
     inkscape:window-width="1600"
     inkscape:window-height="837"
     inkscape:window-x="-4"
     inkscape:window-y="-4"
     inkscape:window-maximized="1"
     inkscape:snap-bbox="true"
     inkscape:bbox-paths="true"
     inkscape:bbox-nodes="true">
    <sodipodi:guide
       position="315.53572,730.17859"
       orientation="0,1"
       id="guide3338" />
    <sodipodi:guide
       position="351.25,330.17858"
       orientation="0,1"
       id="guide3340" />
    <sodipodi:guide
       position="189.10714,408.8393"
       orientation="1,0"
       id="guide3344" />
    <sodipodi:guide
       position="589.04521,468.07945"
       orientation="1,0"
       id="guide3346" />
    <inkscape:grid
       type="xygrid"
       id="grid3440" />
    <sodipodi:guide
       position="0,0"
       orientation="0,1"
       id="guide3405" />
    <sodipodi:guide
       position="214.125,684.50002"
       orientation="1,0"
       id="guide3407" />
    <sodipodi:guide
       position="0,0"
       orientation="0,1"
       id="guide3409" />
    <sodipodi:guide
       position="589.04521,378.30213"
       orientation="1,0"
       id="guide3411" />
    <sodipodi:guide
       position="564.00001,683.37502"
       orientation="1,0"
       id="guide3413" />
    <sodipodi:guide
       position="0,0"
       orientation="0,1"
       id="guide4168" />
  </sodipodi:namedview>
  <metadata
     id="metadata7">
    <rdf:RDF>
      <cc:Work
         rdf:about="">
        <dc:format>image/svg+xml</dc:format>
        <dc:type
           rdf:resource="http://purl.org/dc/dcmitype/StillImage" />
        <dc:title>book</dc:title>
        <dc:date>June 2015</dc:date>
        <dc:creator>
          <cc:Agent>
            <dc:title>Johannes Hechler</dc:title>
          </cc:Agent>
        </dc:creator>
        <dc:rights>
          <cc:Agent>
            <dc:title>Johannes Hechler</dc:title>
          </cc:Agent>
        </dc:rights>
        <dc:publisher>
          <cc:Agent>
            <dc:title>RRZE</dc:title>
          </cc:Agent>
        </dc:publisher>
        <dc:contributor>
          <cc:Agent>
            <dc:title>Ute Weber, Hendrik Eggers, Joanna Barbach</dc:title>
          </cc:Agent>
        </dc:contributor>
        <dc:subject>
          <rdf:Bag>
            <rdf:li>book</rdf:li>
            <rdf:li>directory</rdf:li>
          </rdf:Bag>
        </dc:subject>
        <cc:license
           rdf:resource="http://creativecommons.org/licenses/by-sa/3.0/" />
      </cc:Work>
      <cc:License
         rdf:about="http://creativecommons.org/licenses/by-sa/3.0/">
        <cc:permits
           rdf:resource="http://creativecommons.org/ns#Reproduction" />
        <cc:permits
           rdf:resource="http://creativecommons.org/ns#Distribution" />
        <cc:requires
           rdf:resource="http://creativecommons.org/ns#Notice" />
        <cc:requires
           rdf:resource="http://creativecommons.org/ns#Attribution" />
        <cc:permits
           rdf:resource="http://creativecommons.org/ns#DerivativeWorks" />
        <cc:requires
           rdf:resource="http://creativecommons.org/ns#ShareAlike" />
      </cc:License>
    </rdf:RDF>
  </metadata>
  <g
     inkscape:label="Ebene 1"
     inkscape:groupmode="layer"
     id="layer1">
    <g
       id="g4173">
      <flowRoot
         style="font-style:normal;font-weight:normal;font-size:40px;line-height:125%;font-family:sans-serif;letter-spacing:0px;word-spacing:0px;fill:#252525;fill-opacity:1;stroke:none;stroke-width:1px;stroke-linecap:butt;stroke-linejoin:miter;stroke-opacity:1"
         id="flowRoot4169"
         xml:space="preserve"><flowRegion
           id="flowRegion4171"><rect
             y="427.07962"
             x="89.541069"
             height="88.78862"
             width="56.433445"
             id="rect4173" /></flowRegion><flowPara
           id="flowPara4175" /></flowRoot>      <rect
         inkscape:export-ydpi="4.9499998"
         inkscape:export-xdpi="4.9499998"
         y="322.27005"
         x="189.14485"
         height="400"
         width="400"
         id="rect3336"
         style="fill:none;fill-rule:evenodd;stroke:none;stroke-width:1px;stroke-linecap:butt;stroke-linejoin:miter;stroke-opacity:1" />
      <path
         id="rect4162"
         d="M 289.63672 322.18359 C 276.65614 322.18359 266.20703 331.97303 266.20703 344.13281 L 266.20703 353.57227 L 284.11523 353.57227 C 294.78855 353.57227 305.49466 356.35436 314.24609 363.32812 C 322.99753 370.3019 328.77734 382.02468 328.77734 394.24414 L 328.77734 397.28125 C 328.77734 409.50073 322.99365 421.22301 314.24023 428.19336 C 305.48682 435.16371 294.7842 437.94141 284.11523 437.94141 L 266.20703 437.94141 L 266.20703 480.31055 L 284.11523 480.31055 C 294.78855 480.31055 305.49466 483.09459 314.24609 490.06836 C 322.99753 497.04213 328.77734 508.76491 328.77734 520.98438 L 328.77734 524.01953 C 328.77734 536.23901 322.99365 547.96324 314.24023 554.93359 C 305.48682 561.90394 294.78419 564.68164 284.11523 564.68164 L 266.20703 564.68164 L 266.20703 605.05078 L 284.11523 605.05078 C 294.78855 605.05078 305.49466 607.83483 314.24609 614.80859 C 322.99753 621.78236 328.77734 633.5032 328.77734 645.72266 L 328.77734 648.75977 C 328.77734 660.97925 322.99365 672.70348 314.24023 679.67383 C 305.48682 686.64418 294.7842 689.42188 284.11523 689.42188 L 266.20703 689.42188 L 266.20703 699.30859 C 266.20703 711.46837 276.65614 721.25781 289.63672 721.25781 L 528.56836 721.25781 C 541.5489 721.25781 552 711.46837 552 699.30859 L 552 344.13281 C 552 331.97303 541.5489 322.18359 528.56836 322.18359 L 289.63672 322.18359 z M 266.20703 388.57227 L 266.20703 402.94141 L 284.11523 402.94141 C 288.49497 402.94141 291.37255 401.66248 292.4375 400.81445 C 293.50245 399.96643 293.77734 400.11047 293.77734 397.28125 L 293.77734 394.24414 C 293.77734 391.4149 293.50051 391.55137 292.43359 390.70117 C 291.36668 389.85098 288.49068 388.57227 284.11523 388.57227 L 266.20703 388.57227 z M 266.20703 515.31055 L 266.20703 529.68164 L 284.11523 529.68164 C 288.49498 529.68164 291.37255 528.40271 292.4375 527.55469 C 293.50245 526.70667 293.77734 526.84875 293.77734 524.01953 L 293.77734 520.98438 C 293.77734 518.15512 293.50051 518.28965 292.43359 517.43945 C 291.36668 516.58926 288.49068 515.31055 284.11523 515.31055 L 266.20703 515.31055 z M 266.20703 640.05078 L 266.20703 654.42188 L 284.11523 654.42188 C 288.49497 654.42187 291.37255 653.14099 292.4375 652.29297 C 293.50245 651.44495 293.77734 651.58899 293.77734 648.75977 L 293.77734 645.72266 C 293.77734 642.89341 293.50051 643.02988 292.43359 642.17969 C 291.36668 641.32949 288.49068 640.05078 284.11523 640.05078 L 266.20703 640.05078 z "
         style="color:#000000;clip-rule:nonzero;display:inline;overflow:visible;visibility:visible;opacity:18999999;isolation:auto;mix-blend-mode:normal;color-interpolation:sRGB;color-interpolation-filters:linearRGB;solid-color:#000000;solid-opacity:1;fill:url(#linearGradient4258);fill-opacity:1;fill-rule:nonzero;stroke:none;stroke-width:27.79999924;stroke-linecap:square;stroke-linejoin:miter;stroke-miterlimit:4;stroke-dasharray:27.79999924, 55.59999847000000300;stroke-dashoffset:0;stroke-opacity:1;color-rendering:auto;image-rendering:auto;shape-rendering:auto;text-rendering:auto;enable-background:accumulate" />
      <path
         sodipodi:nodetypes="sssssssssssssssssssssssssss"
         style="color:#000000;clip-rule:nonzero;display:inline;overflow:visible;visibility:visible;opacity:18999999;isolation:auto;mix-blend-mode:normal;color-interpolation:sRGB;color-interpolation-filters:linearRGB;solid-color:#000000;solid-opacity:1;fill:#4e505d;fill-opacity:1;fill-rule:nonzero;stroke:#ffffff;stroke-width:0;stroke-linecap:square;stroke-linejoin:miter;stroke-miterlimit:4;stroke-dasharray:none;stroke-dashoffset:0;stroke-opacity:1;color-rendering:auto;image-rendering:auto;shape-rendering:auto;text-rendering:auto;enable-background:accumulate"
         d="m 252.38323,371.07148 c -15.0487,0 -27.16109,8.12358 -27.16109,23.17228 l 0,3.03653 c 0,15.0487 12.11234,23.1611 27.16109,23.1611 l 31.73268,0 c 15.0487,0 27.16109,-8.1124 27.16109,-23.1611 l 0,-3.03653 c 0,-15.0487 -12.11233,-23.17228 -27.16109,-23.17228 z m 0,126.73981 c -15.0487,0 -27.16109,8.12358 -27.16109,23.17229 l 0,3.03653 c 0,15.0487 12.11234,23.16109 27.16109,23.16109 l 31.73268,0 c 15.0487,0 27.16109,-8.11239 27.16109,-23.16109 l 0,-3.03653 c 0,-15.04871 -12.11233,-23.17229 -27.16109,-23.17229 z m 0,124.73982 c -15.0487,0 -27.16109,8.12358 -27.16109,23.17228 l 0,3.03653 c 0,15.0487 12.11234,23.1611 27.16109,23.1611 l 31.73268,0 c 15.0487,0 27.16109,-8.1124 27.16109,-23.1611 l 0,-3.03653 c 0,-15.0487 -12.11233,-23.17228 -27.16109,-23.17228 z"
         id="path4183"
         inkscape:connector-curvature="0" />
    </g>
  </g>
</svg>
