<?xml version="1.0" encoding="UTF-8" standalone="no"?>
<!-- Created with Inkscape (http://www.inkscape.org/) -->

<svg
   xmlns:dc="http://purl.org/dc/elements/1.1/"
   xmlns:cc="http://creativecommons.org/ns#"
   xmlns:rdf="http://www.w3.org/1999/02/22-rdf-syntax-ns#"
   xmlns:svg="http://www.w3.org/2000/svg"
   xmlns="http://www.w3.org/2000/svg"
   xmlns:xlink="http://www.w3.org/1999/xlink"
   xmlns:sodipodi="http://sodipodi.sourceforge.net/DTD/sodipodi-0.dtd"
   xmlns:inkscape="http://www.inkscape.org/namespaces/inkscape"
   width="210mm"
   height="297mm"
   viewBox="0 0 744.09448819 1052.3622047"
   id="svg2"
   version="1.1"
   inkscape:version="0.91 r13725"
   sodipodi:docname="document.svg"
   inkscape:export-filename="C:\Users\johannes\Documents\Arbeit\RRZE\bi-con\bi-con\scalable\documents\document.png"
   inkscape:export-xdpi="4"
   inkscape:export-ydpi="4">
  <defs
     id="defs4">
    <linearGradient
       inkscape:collect="always"
       id="linearGradient4203">
      <stop
         style="stop-color:#abbe24;stop-opacity:1"
         offset="0"
         id="stop4205" />
      <stop
         style="stop-color:#c1d53a;stop-opacity:1"
         offset="1"
         id="stop4207" />
    </linearGradient>
    <linearGradient
       inkscape:collect="always"
       id="linearGradient4195">
      <stop
         style="stop-color:#5a6578;stop-opacity:1"
         offset="0"
         id="stop4197" />
      <stop
         style="stop-color:#9397a2;stop-opacity:1"
         offset="1"
         id="stop4199" />
    </linearGradient>
    <linearGradient
       id="linearGradient2224">
      <stop
         id="stop2226"
         offset="0"
         style="stop-color:#7c7c7c;stop-opacity:1;" />
      <stop
         id="stop2228"
         offset="1"
         style="stop-color:#b8b8b8;stop-opacity:1;" />
    </linearGradient>
    <linearGradient
       id="linearGradient15218">
      <stop
         id="stop15220"
         offset="0"
         style="stop-color:#eeeeef;stop-opacity:1;" />
      <stop
         id="stop2736"
         offset="0.59928656"
         style="stop-color:#d3d7cf;stop-opacity:1;" />
      <stop
         id="stop2738"
         offset="0.82758623"
         style="stop-color:#ffffff;stop-opacity:1;" />
      <stop
         id="stop15222"
         offset="1"
         style="stop-color:#d3d7cf;stop-opacity:1;" />
    </linearGradient>
    <pattern
       y="0"
       x="0"
       height="6"
       width="6"
       patternUnits="userSpaceOnUse"
       id="EMFhbasepattern" />
    <linearGradient
       inkscape:collect="always"
       xlink:href="#linearGradient4195"
       id="linearGradient4201"
       x1="507"
       y1="681.40619"
       x2="302"
       y2="373.40619"
       gradientUnits="userSpaceOnUse" />
    <linearGradient
       inkscape:collect="always"
       xlink:href="#linearGradient4203"
       id="linearGradient4209"
       x1="489.22876"
       y1="385.57309"
       x2="462.02698"
       y2="398.57309"
       gradientUnits="userSpaceOnUse" />
  </defs>
  <sodipodi:namedview
     id="base"
     pagecolor="#ffffff"
     bordercolor="#666666"
     borderopacity="1.0"
     inkscape:pageopacity="0.0"
     inkscape:pageshadow="2"
     inkscape:zoom="0.70710678"
     inkscape:cx="249.81623"
     inkscape:cy="472.07105"
     inkscape:document-units="px"
     inkscape:current-layer="layer1"
     showgrid="false"
     showguides="true"
     inkscape:guide-bbox="true"
     inkscape:window-width="1366"
     inkscape:window-height="721"
     inkscape:window-x="-4"
     inkscape:window-y="-4"
     inkscape:window-maximized="1">
    <sodipodi:guide
       position="315.53572,730.17859"
       orientation="0,1"
       id="guide3338" />
    <sodipodi:guide
       position="351.25,330.17858"
       orientation="0,1"
       id="guide3340" />
    <sodipodi:guide
       position="189.10714,408.8393"
       orientation="1,0"
       id="guide3344" />
    <inkscape:grid
       type="xygrid"
       id="grid3440" />
    <sodipodi:guide
       position="325.97622,721.95602"
       orientation="0,1"
       id="guide3405" />
    <sodipodi:guide
       position="197.63634,703.57124"
       orientation="1,0"
       id="guide3407" />
    <sodipodi:guide
       position="581.59532,337.75"
       orientation="0,1"
       id="guide3409" />
    <sodipodi:guide
       position="589.04521,378.30213"
       orientation="1,0"
       id="guide3411" />
    <sodipodi:guide
       position="580.1811,410.12193"
       orientation="1,0"
       id="guide3413" />
  </sodipodi:namedview>
  <metadata
     id="metadata7">
    <rdf:RDF>
      <cc:Work
         rdf:about="">
        <dc:format>image/svg+xml</dc:format>
        <dc:type
           rdf:resource="http://purl.org/dc/dcmitype/StillImage" />
        <dc:title />
      </cc:Work>
    </rdf:RDF>
  </metadata>
  <g
     inkscape:label="Ebene 1"
     inkscape:groupmode="layer"
     id="layer1">
    <g
       id="g4166"
       inkscape:export-filename="C:\Users\johannes\Documents\Arbeit\RRZE\bi-con\bi-con\test\g4166.png"
       inkscape:export-xdpi="7.1999998"
       inkscape:export-ydpi="7.1999998">
      <rect
         inkscape:export-ydpi="4.9499998"
         inkscape:export-xdpi="4.9499998"
         y="322.27005"
         x="189.14485"
         height="400"
         width="400"
         id="rect3336"
         style="fill:none;fill-rule:evenodd;stroke:none;stroke-width:1px;stroke-linecap:butt;stroke-linejoin:miter;stroke-opacity:1" />
      <path
         id="path4244"
         d="M 447.48828 330.40625 L 270.02344 330.42383 C 260.00093 330.40707 255.00073 335.362 255.04297 345.23633 C 255.00073 427.362 255.00063 567.36178 255.02734 667.38086 C 255.00064 677.36178 260.03087 682.42494 269.96875 682.35742 L 514.94727 682.41992 C 524.99949 682.36244 530.00062 677.36161 530.06641 667.27734 L 530.06836 412.58984 C 527.1093 412.86818 512.61582 414.1878 496.33398 414.79492 C 487.25599 415.13345 477.83245 415.24169 469.73438 414.75 C 465.68532 414.50416 461.97493 414.11894 458.63867 413.45703 C 455.30241 412.79512 452.35764 412.14645 449.19531 409.75977 C 443.20722 405.24041 442.46961 398.65266 442.23438 392.39844 C 441.99914 386.14421 442.73368 379.2026 443.67188 371.86328 C 445.54215 357.23225 448.20838 340.89471 447.48828 330.40625 z M 463.04883 345.49414 C 462.23605 355.10782 460.68222 364.98033 459.54297 373.89258 C 458.64056 380.95203 458.05557 387.35436 458.22266 391.79688 C 458.34381 395.01799 459.09073 396.63762 459.14062 397.03125 C 459.23694 397.02683 460.07232 397.4281 461.75391 397.76172 C 463.97915 398.2032 467.10958 398.56111 470.70312 398.7793 C 477.89022 399.21563 486.95596 399.13405 495.73633 398.80664 C 503.16581 398.52961 509.82011 398.06842 515.68359 397.64648 C 514.82139 396.6584 514.37208 396.02892 513.39453 394.94727 C 506.85174 387.70771 497.92158 378.56273 488.875 369.68945 C 479.82842 360.81617 470.63854 352.1862 463.57422 345.9375 C 463.35851 345.7467 463.26063 345.68051 463.04883 345.49414 z M 459.14062 397.03125 C 459.12338 397.03204 459.12221 397.04248 459.15234 397.07227 C 459.15193 397.0652 459.14165 397.03937 459.14062 397.03125 z M 522.67969 406.33008 C 522.80009 406.71209 522.90256 406.6933 522.75977 406.44531 C 522.74827 406.42528 522.69279 406.35218 522.67969 406.33008 z "
         style="fill:url(#linearGradient4201);fill-opacity:1;fill-rule:evenodd;stroke:none;stroke-width:1px;stroke-linecap:butt;stroke-linejoin:miter;stroke-opacity:1" />
      <path
         style="fill:url(#linearGradient4209);fill-opacity:1;fill-rule:evenodd;stroke:none;stroke-width:1px;stroke-linecap:butt;stroke-linejoin:miter;stroke-opacity:1"
         d="M 454.99917,330.40486 C 459,329.3622 530.027,397.83562 530.027,405.18835 c 0,0 -66.38967,6.47029 -76.47721,-1.14302 -10.08754,-7.61331 3.18777,-49.16298 1.44938,-73.64047 z"
         id="path4288"
         inkscape:connector-curvature="0"
         sodipodi:nodetypes="cczc"
         inkscape:export-xdpi="4.9499998"
         inkscape:export-ydpi="4.9499998" />
      <path
         inkscape:export-ydpi="4.9499998"
         inkscape:export-xdpi="4.9499998"
         sodipodi:nodetypes="ccccc"
         inkscape:connector-curvature="0"
         id="rect4248"
         d="m 290.45332,446.06097 c 62.47941,0 124.95884,0 187.43825,0 4.72534,-10e-6 4.72534,21.0078 0,21.00781 -62.47941,0 -124.95884,0 -187.43825,0 -6.30046,-1e-5 -6.30046,-21.00782 0,-21.00781 z"
         style="fill:#ffffff;fill-opacity:1;stroke:none" />
      <path
         inkscape:export-ydpi="4.9499998"
         inkscape:export-xdpi="4.9499998"
         sodipodi:nodetypes="ccccc"
         inkscape:connector-curvature="0"
         id="rect4248-4"
         d="m 289.9664,482.98002 c 56.03531,0 112.0706,0 168.10591,0 4.23795,-1e-5 4.23795,21.00781 0,21.00782 -56.03531,0 -112.0706,0 -168.10591,0 -5.65062,-1e-5 -5.65062,-21.00783 0,-21.00782 z"
         style="fill:#ffffff;fill-opacity:1;stroke:none" />
      <path
         inkscape:export-ydpi="4.9499998"
         inkscape:export-xdpi="4.9499998"
         sodipodi:nodetypes="ccccc"
         inkscape:connector-curvature="0"
         id="rect4248-1"
         d="m 290.61134,519.39523 c 59.59653,0 119.19305,0 178.78958,0 4.5073,-2e-5 4.5073,21.00779 0,21.0078 -59.59653,0 -119.19305,0 -178.78958,0 -6.00974,-10e-6 -6.00974,-21.00782 0,-21.0078 z"
         style="fill:#ffffff;fill-opacity:1;stroke:none" />
      <path
         inkscape:export-ydpi="4.9499998"
         inkscape:export-xdpi="4.9499998"
         inkscape:transform-center-y="-32.829958"
         inkscape:transform-center-x="11.294007"
         sodipodi:nodetypes="ccccc"
         inkscape:connector-curvature="0"
         id="rect4248-1-5"
         d="m 289.92792,556.83832 c 55.52657,0 111.05312,0 166.57968,0 4.19949,-10e-6 4.19949,21.00781 0,21.00782 -55.52656,0 -111.05311,0 -166.57968,0 -5.59932,-10e-6 -5.59932,-21.00783 0,-21.00782 z"
         style="fill:#ffffff;fill-opacity:1;stroke:none" />
    </g>
  </g>
</svg>
