<?xml version="1.0" encoding="UTF-8" standalone="no"?>
<!-- Created with Inkscape (http://www.inkscape.org/) -->

<svg
   xmlns:dc="http://purl.org/dc/elements/1.1/"
   xmlns:cc="http://creativecommons.org/ns#"
   xmlns:rdf="http://www.w3.org/1999/02/22-rdf-syntax-ns#"
   xmlns:svg="http://www.w3.org/2000/svg"
   xmlns="http://www.w3.org/2000/svg"
   xmlns:xlink="http://www.w3.org/1999/xlink"
   xmlns:sodipodi="http://sodipodi.sourceforge.net/DTD/sodipodi-0.dtd"
   xmlns:inkscape="http://www.inkscape.org/namespaces/inkscape"
   width="210mm"
   height="297mm"
   viewBox="0 0 744.09448819 1052.3622047"
   id="svg2"
   version="1.1"
   inkscape:version="0.91 r13725"
   sodipodi:docname="mood-level-yellow.svg"
   inkscape:export-filename="C:\Users\johannes\Documents\Arbeit\RRZE\bi-con\bi-con\scalable\documents\document.png"
   inkscape:export-xdpi="4"
   inkscape:export-ydpi="4">
  <defs
     id="defs4">
    <linearGradient
       inkscape:collect="always"
       id="linearGradient4176">
      <stop
         style="stop-color:#5a6578;stop-opacity:1;"
         offset="0"
         id="stop4178" />
      <stop
         style="stop-color:#9397a2;stop-opacity:1"
         offset="1"
         id="stop4180" />
    </linearGradient>
    <linearGradient
       id="linearGradient2224">
      <stop
         id="stop2226"
         offset="0"
         style="stop-color:#7c7c7c;stop-opacity:1;" />
      <stop
         id="stop2228"
         offset="1"
         style="stop-color:#b8b8b8;stop-opacity:1;" />
    </linearGradient>
    <linearGradient
       id="linearGradient15218">
      <stop
         id="stop15220"
         offset="0"
         style="stop-color:#eeeeef;stop-opacity:1;" />
      <stop
         id="stop2736"
         offset="0.59928656"
         style="stop-color:#d3d7cf;stop-opacity:1;" />
      <stop
         id="stop2738"
         offset="0.82758623"
         style="stop-color:#ffffff;stop-opacity:1;" />
      <stop
         id="stop15222"
         offset="1"
         style="stop-color:#d3d7cf;stop-opacity:1;" />
    </linearGradient>
    <pattern
       y="0"
       x="0"
       height="6"
       width="6"
       patternUnits="userSpaceOnUse"
       id="EMFhbasepattern" />
    <linearGradient
       inkscape:collect="always"
       xlink:href="#linearGradient4176"
       id="linearGradient4182"
       x1="267.44257"
       y1="649.30225"
       x2="517.0686"
       y2="387.07214"
       gradientUnits="userSpaceOnUse"
       gradientTransform="matrix(1.0457517,0,0,1.0411894,-16.732002,-21.656294)" />
  </defs>
  <sodipodi:namedview
     id="base"
     pagecolor="#ffffff"
     bordercolor="#666666"
     borderopacity="1.0"
     inkscape:pageopacity="0.0"
     inkscape:pageshadow="2"
     inkscape:zoom="0.70710678"
     inkscape:cx="305.82143"
     inkscape:cy="410.37502"
     inkscape:document-units="px"
     inkscape:current-layer="layer1"
     showgrid="false"
     showguides="true"
     inkscape:guide-bbox="true"
     inkscape:window-width="1366"
     inkscape:window-height="721"
     inkscape:window-x="-4"
     inkscape:window-y="-4"
     inkscape:window-maximized="1">
    <sodipodi:guide
       position="591,730.00002"
       orientation="0,1"
       id="guide3338" />
    <sodipodi:guide
       position="189,330.00001"
       orientation="0,1"
       id="guide3340" />
    <sodipodi:guide
       position="190,291.00001"
       orientation="1,0"
       id="guide3344" />
    <inkscape:grid
       type="xygrid"
       id="grid3440" />
    <sodipodi:guide
       position="590,295.00001"
       orientation="1,0"
       id="guide3411" />
  </sodipodi:namedview>
  <metadata
     id="metadata7">
    <rdf:RDF>
      <cc:Work
         rdf:about="">
        <dc:format>image/svg+xml</dc:format>
        <dc:type
           rdf:resource="http://purl.org/dc/dcmitype/StillImage" />
        <dc:title />
      </cc:Work>
    </rdf:RDF>
  </metadata>
  <g
     inkscape:label="Ebene 1"
     inkscape:groupmode="layer"
     id="layer1">
    <rect
       style="fill:none;fill-rule:evenodd;stroke:none;stroke-width:1px;stroke-linecap:butt;stroke-linejoin:miter;stroke-opacity:1"
       id="rect3336"
       width="400"
       height="400"
       x="189.14485"
       y="322.27005"
       inkscape:export-xdpi="4.9499998"
       inkscape:export-ydpi="4.9499998" />
    <g
       id="g4157"
       transform="matrix(0.87493167,0,0,0.87493167,48.383805,66.5492)">
      <path
         id="rect4174"
         d="m 229.94727,322.35938 c -22.16,0 -40,17.83997 -40,40 l 0,320.03124 c 0,22.16 17.84,40 40,40 l 6.76171,0 c -43.24527,-67.21226 -36.26037,-156.96149 20.4375,-216.90234 l -0.16406,-0.16406 8.35156,-8.35156 c 0.0692,-0.0692 0.14555,-0.12622 0.21485,-0.19532 l 3.26367,-3.26172 0.16602,0.16407 c 34.05658,-32.23195 77.80721,-48.57423 121.57226,-48.57422 45.30091,0 90.68885,17.33834 125.2168,51.86719 l 1.04687,1.04687 0.0859,0 3.45899,3.45899 c 0.32956,0.32959 0.60719,0.68994 0.93359,1.02148 l 2.82422,2.82422 -0.125,0.125 c 56.46561,60.01484 62.32123,149.88821 19.17187,216.9414 l 6.83008,0 c 22.16,0 40,-17.84 40,-40 l 0,-320.03124 c 0,-22.16001 -17.84,-40 -40,-40 l -320.04687,0 z M 406.375,469.54883 c 0.82265,2.01281 1.29102,4.1915 1.29102,6.45898 l 0,11.92383 c 25.2958,3.14893 49.98641,12.76286 72.14648,28.29492 l 10.48047,-10.48242 C 465.86504,484.77212 436.52954,472.67891 406.375,469.54883 Z m -34.17188,0.28711 c -29.26551,3.52943 -57.65057,15.5217 -81.39648,35.9082 l 10.12695,10.12695 c 21.96789,-15.75084 45.88375,-24.87725 70.08594,-27.91992 l 0,-11.94336 c 0,-2.16089 0.43268,-4.23849 1.18359,-6.17187 z m 35.4629,41.26172 0,79.49023 c 12.40183,6.4476 20.74114,19.32266 20.74414,33.82813 a 12.50125,12.50125 0 0 0 0,0.002 c -5.8e-4,20.96672 -17.2657,38.23185 -38.23243,38.23242 -20.96781,10e-4 -38.2338,-17.2646 -38.23437,-38.23242 a 12.50125,12.50125 0 0 1 0,-0.006 c 0.006,-13.79389 7.55608,-26.18855 19.07617,-32.91797 l 0,-80.375 c -21.94549,3.42518 -43.64002,13.07071 -63.73633,29.48047 l -1.09765,0.89648 -1.66407,2.09375 c -39.83271,50.13606 -43.2585,113.36492 -0.82226,165.82032 l 10.5,12.98046 151.19531,0 10.18164,-12.87695 c 39.75183,-50.27041 42.99228,-113.62422 0.1543,-166.08594 l -1.86328,-2.28125 -0.20899,-0.16601 c -20.36896,-16.183 -42.9009,-26.35085 -65.99218,-29.88281 z m 103.8164,15.63476 -10.90625,10.50391 c 37.4665,52.38197 37.44257,115.78753 6.57031,167.79297 l 18.8379,0 c 33.22621,-55.73333 28.95217,-127.73009 -14.50196,-178.29688 z m -242.19922,0.43946 c -43.50972,50.58204 -48.51179,122.22859 -15.39062,177.85742 l 18.1289,0 C 239.71685,651.15216 244.48405,587.80844 279.72852,537.48633 L 269.2832,527.17188 Z"
         style="opacity:1;fill:url(#linearGradient4182);fill-opacity:1;stroke:none;stroke-width:23;stroke-linecap:butt;stroke-linejoin:round;stroke-miterlimit:4;stroke-dasharray:none;stroke-opacity:1"
         inkscape:connector-curvature="0" />
      <path
         id="path4204"
         d="m 390.55078,456.91602 c -42.29734,-10e-6 -84.59574,16.13589 -116.86719,48.4082 l 26.12891,26.1289 c 22.17851,-18.10999 46.53526,-28.55839 71.20703,-31.99023 l 0,-23.45508 c 0,-9.55013 8.08256,-17.625 17.62695,-17.625 l 1.39258,0 c 9.5444,0 17.62696,8.07484 17.62696,17.625 l 0,23.44727 c 25.84414,3.55023 51.01627,14.54688 73.33789,32.28125 l 26.41211,-26.41211 c -32.27144,-32.27228 -74.5679,-48.4082 -116.86524,-48.4082 z"
         style="opacity:1;fill:#f7e72b;fill-opacity:1;stroke:none;stroke-width:7.19999981;stroke-linecap:butt;stroke-linejoin:miter;stroke-miterlimit:4;stroke-dasharray:none;stroke-opacity:1"
         inkscape:connector-curvature="0" />
      <path
         inkscape:connector-curvature="0"
         id="path4233"
         d="m 511.00674,509.82958 -26.12889,26.12889 c 46.069,56.4186 42.62627,126.92547 -0.0387,180.87985 l 47.86053,0 c 41.77753,-64.07488 34.55101,-150.76631 -21.69293,-207.00874 z"
         style="opacity:1;fill:#ff5a35;fill-opacity:1;stroke:none;stroke-width:7.19999981;stroke-linecap:butt;stroke-linejoin:miter;stroke-miterlimit:4;stroke-dasharray:none;stroke-opacity:1" />
      <path
         inkscape:connector-curvature="0"
         id="path4235"
         d="m 268.86423,509.82958 c -56.24396,56.24249 -63.46877,142.93384 -21.69104,207.00874 l 47.34386,0 c -45.64965,-56.42749 -41.98951,-126.79037 0.7584,-180.59568 l -26.41122,-26.41306 z"
         style="opacity:1;fill:#b7cf1a;fill-opacity:1;stroke:none;stroke-width:7.19999981;stroke-linecap:butt;stroke-linejoin:miter;stroke-miterlimit:4;stroke-dasharray:none;stroke-opacity:1" />
      <path
         id="path4274"
         d="m 388.64648,470.88281 c -2.84009,0 -5.12695,2.2849 -5.12695,5.125 l 0,123.56446 a 25.733126,25.733126 0 0 0 -19.07617,24.8457 25.733126,25.733126 0 0 0 25.73437,25.73242 25.733126,25.733126 0 0 0 25.73243,-25.73242 25.733126,25.733126 0 0 0 -20.74414,-25.24024 l 0,-123.16992 c 0,-2.8401 -2.28687,-5.125 -5.12696,-5.125 l -1.39258,0 z"
         style="opacity:1;fill:#000000;fill-opacity:1;stroke:none;stroke-width:23;stroke-linecap:butt;stroke-linejoin:round;stroke-miterlimit:4;stroke-dasharray:none;stroke-opacity:1"
         inkscape:connector-curvature="0" />
    </g>
  </g>
</svg>
