<?xml version="1.0" encoding="UTF-8" standalone="no"?>
<!-- Created with Inkscape (http://www.inkscape.org/) -->

<svg
   xmlns:dc="http://purl.org/dc/elements/1.1/"
   xmlns:cc="http://creativecommons.org/ns#"
   xmlns:rdf="http://www.w3.org/1999/02/22-rdf-syntax-ns#"
   xmlns:svg="http://www.w3.org/2000/svg"
   xmlns="http://www.w3.org/2000/svg"
   xmlns:xlink="http://www.w3.org/1999/xlink"
   xmlns:sodipodi="http://sodipodi.sourceforge.net/DTD/sodipodi-0.dtd"
   xmlns:inkscape="http://www.inkscape.org/namespaces/inkscape"
   width="210mm"
   height="297mm"
   viewBox="0 0 744.09448819 1052.3622047"
   id="svg2"
   version="1.1"
   inkscape:version="0.91 r13725"
   inkscape:export-xdpi="7.1999736"
   inkscape:export-ydpi="7.1999736"
   sodipodi:docname="mood-level-red.svg"
   inkscape:export-filename="C:\Users\johannes\Documents\Arbeit\RRZE\github3\bicons\32x32\categories\mood-level-red.png">
  <defs
     id="defs4">
    <linearGradient
       id="linearGradient2224">
      <stop
         id="stop2226"
         offset="0"
         style="stop-color:#7c7c7c;stop-opacity:1;" />
      <stop
         id="stop2228"
         offset="1"
         style="stop-color:#b8b8b8;stop-opacity:1;" />
    </linearGradient>
    <linearGradient
       id="linearGradient15218">
      <stop
         id="stop15220"
         offset="0"
         style="stop-color:#eeeeef;stop-opacity:1;" />
      <stop
         id="stop2736"
         offset="0.59928656"
         style="stop-color:#d3d7cf;stop-opacity:1;" />
      <stop
         id="stop2738"
         offset="0.82758623"
         style="stop-color:#ffffff;stop-opacity:1;" />
      <stop
         id="stop15222"
         offset="1"
         style="stop-color:#d3d7cf;stop-opacity:1;" />
    </linearGradient>
    <pattern
       y="0"
       x="0"
       height="6"
       width="6"
       patternUnits="userSpaceOnUse"
       id="EMFhbasepattern" />
    <linearGradient
       gradientTransform="translate(189.99854,-329.99991)"
       inkscape:collect="always"
       xlink:href="#linearGradient4321"
       id="linearGradient4217"
       x1="54.540001"
       y1="1052.3621"
       x2="381.77997"
       y2="670.54211"
       gradientUnits="userSpaceOnUse" />
    <linearGradient
       id="linearGradient4321"
       inkscape:collect="always">
      <stop
         id="stop4323"
         offset="0"
         style="stop-color:#4e505d;stop-opacity:1;" />
      <stop
         id="stop4325"
         offset="1"
         style="stop-color:#7a8597;stop-opacity:1" />
    </linearGradient>
  </defs>
  <sodipodi:namedview
     id="base"
     pagecolor="#ffffff"
     bordercolor="#666666"
     borderopacity="1.0"
     inkscape:pageopacity="0.0"
     inkscape:pageshadow="2"
     inkscape:zoom="1.4142136"
     inkscape:cx="335.77934"
     inkscape:cy="479.55148"
     inkscape:document-units="px"
     inkscape:current-layer="layer1"
     showgrid="false"
     showguides="true"
     inkscape:guide-bbox="true"
     inkscape:window-width="1366"
     inkscape:window-height="721"
     inkscape:window-x="-4"
     inkscape:window-y="-4"
     inkscape:window-maximized="1"
     inkscape:snap-bbox="true"
     inkscape:bbox-paths="true"
     inkscape:bbox-nodes="true">
    <sodipodi:guide
       position="591,730.00002"
       orientation="0,1"
       id="guide3338" />
    <sodipodi:guide
       position="189,330.00001"
       orientation="0,1"
       id="guide3340" />
    <sodipodi:guide
       position="190,291.00001"
       orientation="1,0"
       id="guide3344" />
    <inkscape:grid
       type="xygrid"
       id="grid3440" />
    <sodipodi:guide
       position="590,295.00001"
       orientation="1,0"
       id="guide3411" />
  </sodipodi:namedview>
  <metadata
     id="metadata7">
    <rdf:RDF>
      <cc:Work
         rdf:about="">
        <dc:format>image/svg+xml</dc:format>
        <dc:type
           rdf:resource="http://purl.org/dc/dcmitype/StillImage" />
        <dc:title>mood level red</dc:title>
        <dc:date>June 2015</dc:date>
        <dc:creator>
          <cc:Agent>
            <dc:title>Johannes Hechler</dc:title>
          </cc:Agent>
        </dc:creator>
        <dc:rights>
          <cc:Agent>
            <dc:title>Johannes Hechler</dc:title>
          </cc:Agent>
        </dc:rights>
        <dc:publisher>
          <cc:Agent>
            <dc:title>RRZE</dc:title>
          </cc:Agent>
        </dc:publisher>
        <dc:contributor>
          <cc:Agent>
            <dc:title>Ute Weber, Hendrik Eggers</dc:title>
          </cc:Agent>
        </dc:contributor>
      </cc:Work>
    </rdf:RDF>
  </metadata>
  <g
     inkscape:label="Ebene 1"
     inkscape:groupmode="layer"
     id="layer1">
    <g
       id="g4205">
      <path
         id="rect4184"
         d="M 226.35742 322.36133 C 216.2857 322.36133 208.17773 330.4693 208.17773 340.54102 L 208.17773 391.39453 C 215.63633 387.06575 226.72421 381.80962 242.60156 376.80469 C 243.69965 376.4583 244.76662 376.13529 245.78711 375.82812 C 245.80371 375.82313 246.04513 375.74453 246.52539 375.60156 C 255.32072 372.98317 265.47166 370.46898 277.13281 368.21484 C 278.58902 367.93333 280.09988 367.64239 281.69531 367.35352 C 281.44556 367.39872 281.4687 367.39424 281.76953 367.33984 L 281.77148 367.33984 C 309.15833 362.38625 344.50361 358.90039 389.97852 358.90039 C 426.50403 358.90039 456.48853 361.15239 481.07617 364.60156 C 502.44059 367.59859 519.71199 371.50759 533.5957 375.65039 C 534.8773 376.03281 536.118 376.41415 537.32031 376.79297 C 541.92524 378.24387 546.13791 379.7157 549.98047 381.18555 C 551.03552 381.58913 552.0471 381.98793 553.01953 382.37891 C 556.63847 383.8339 559.90038 385.27507 562.83398 386.67969 C 563.6299 387.06078 564.38668 387.43108 565.10547 387.79102 C 567.60242 389.04141 569.80813 390.2456 571.77734 391.38867 L 571.77734 340.54102 C 571.77729 330.4693 563.66938 322.36133 553.59766 322.36133 L 226.35742 322.36133 z M 389.97852 394.90039 C 346.34509 394.90039 313.13415 398.25164 288.17773 402.76562 C 288.40834 402.72393 288.4004 402.7266 288.10938 402.7793 C 286.73766 403.02766 285.37175 403.28661 283.96484 403.55859 C 273.3825 405.6042 264.37649 407.84957 256.79883 410.10547 L 256.79688 410.10547 C 256.80937 410.10147 256.6113 410.16557 256.16211 410.30078 C 255.17785 410.59704 254.2534 410.87688 253.42969 411.13672 L 253.42773 411.14062 C 239.50384 415.52961 231.10393 419.7268 226.17773 422.62891 L 226.17773 495.67578 C 249.23082 487.31877 286.31032 476.2871 334.93945 470.98828 C 352.02633 469.12643 370.41934 467.98047 389.97852 467.98047 C 406.22848 467.98047 421.65902 468.77821 436.21094 470.10742 C 447.80633 471.16658 458.81085 472.59726 469.24023 474.25781 C 474.3146 471.31794 480.00892 469.68788 485.77148 469.40039 C 495.06322 468.93684 504.52849 471.95613 511.84375 478.57617 C 513.76922 480.31865 515.45543 482.23695 516.91211 484.2832 C 531.53631 488.14112 543.95424 492.15644 553.77734 495.6875 L 553.77734 422.63086 C 552.3918 421.81643 551.00024 420.99386 548.98438 419.98438 C 548.42562 419.70457 547.86503 419.42515 547.28711 419.14844 C 545.08575 418.09442 542.5267 416.96397 539.58984 415.7832 C 538.77805 415.45682 537.95719 415.13187 537.11719 414.81055 C 533.98357 413.61188 530.44857 412.37301 526.5 411.12891 C 525.44975 410.79799 524.38828 410.4704 523.30273 410.14648 C 511.31473 406.56934 495.81994 403.02358 476.07617 400.25391 C 453.34176 397.0647 425.02309 394.90234 389.97852 394.90234 L 389.97852 394.90039 z M 389.97852 503.98047 C 371.82574 503.98047 354.74131 505.04443 338.83789 506.77734 C 283.46445 512.81104 243.13452 527.14069 225.73828 534.27734 C 224.87811 534.63021 224.0864 534.95405 223.48633 535.20703 L 223.48242 535.20898 L 223.47852 535.21289 C 223.24588 535.31089 223.31312 535.2818 223.2168 535.32227 C 222.61167 535.57904 222.03681 535.82711 221.4668 536.07422 C 220.76644 536.37783 220.19257 536.62623 219.74805 536.82422 L 219.74609 536.82422 L 219.74414 536.82422 C 220.06964 536.67932 220.0468 536.69016 219.68945 536.84961 L 219.6875 536.85156 L 219.68555 536.85156 C 219.24338 537.04872 218.81391 537.24299 218.49414 537.38867 C 216.84664 538.13925 216.10547 538.50391 216.10547 538.50391 L 208.17773 542.39258 L 208.17773 704.18359 C 208.17791 714.25519 216.2857 722.36133 226.35742 722.36133 L 553.59766 722.36133 C 563.66938 722.36133 571.77734 714.25334 571.77734 704.18164 L 571.77734 542.46094 L 563.73633 538.44531 C 563.73633 538.44531 560.34089 536.87073 556.12109 535.05859 L 556.11914 535.06445 C 556.11714 535.06345 556.11333 535.06155 556.11133 535.06055 C 555.54831 534.82383 554.81937 534.52458 554.05469 534.21094 C 554.05069 534.20894 554.04892 534.20803 554.04492 534.20703 L 554.05859 534.17383 C 552.98808 533.73244 551.43936 533.15997 550.19727 532.66797 C 550.18927 532.66397 550.17892 532.65895 550.16992 532.65625 C 549.66803 532.46285 549.17617 532.27609 548.52148 532.02344 C 548.51748 532.02144 548.51572 532.02153 548.51172 532.01953 L 548.51562 532.01172 C 541.28658 529.19999 531.53032 525.74186 519.56641 522.22656 C 518.19419 524.87459 516.4705 527.38355 514.39258 529.67969 L 458.85156 591.05469 C 466.6698 615.35632 461.30335 642.49039 443.7793 661.90039 A 18.0018 18.0018 0 0 1 443.76562 661.91602 C 417.02665 691.4642 370.84991 693.76745 341.30273 667.02734 C 311.75627 640.28796 309.45393 594.11282 336.19336 564.56641 A 18.0018 18.0018 0 0 1 336.20898 564.55078 C 353.77805 545.18594 380.23907 537.14658 405.19531 542.50586 L 437.83984 506.43359 C 436.21851 506.2689 434.58547 506.10951 432.9375 505.95898 C 419.38108 504.72069 405.05 503.98047 389.97852 503.98047 z M 480.66211 512.76562 L 424.30273 575.04492 A 18.0018 18.0018 0 0 1 404.01758 579.57617 C 389.68942 573.59078 373.31556 577.23594 362.87891 588.73242 C 349.20362 603.85335 350.34123 626.6525 365.45898 640.33398 C 380.57819 654.01682 403.38163 652.88145 417.06641 637.76562 C 427.46848 626.23622 429.46494 609.58013 422.08203 595.91797 A 18.0018 18.0018 0 0 1 424.57227 575.28125 L 481.07227 512.84766 C 480.93332 512.82035 480.80137 512.79285 480.66211 512.76562 z "
         style="color:#000000;clip-rule:nonzero;display:inline;overflow:visible;visibility:visible;opacity:1;isolation:auto;mix-blend-mode:normal;color-interpolation:sRGB;color-interpolation-filters:linearRGB;solid-color:#000000;solid-opacity:1;fill:url(#linearGradient4217);fill-opacity:1;fill-rule:nonzero;stroke:none;stroke-width:50;stroke-linecap:butt;stroke-linejoin:round;stroke-miterlimit:4;stroke-dasharray:none;stroke-dashoffset:0;stroke-opacity:1;color-rendering:auto;image-rendering:auto;shape-rendering:auto;text-rendering:auto;enable-background:accumulate" />
      <path
         inkscape:connector-curvature="0"
         id="path4188"
         d="m 389.97969,376.90082 c -44.55417,0 -78.83228,3.41856 -105.00391,8.15234 l 51.91406,103.83009 c 16.49515,-1.79738 34.23387,-2.90235 53.08985,-2.90235 15.66072,0 30.54153,0.76899 44.5957,2.05274 l 44.00195,-105.60548 c -23.66104,-3.31919 -52.81261,-5.52734 -88.59765,-5.52734 z M 486.3,383.58637 c 1.44334,0.22872 2.8647,0.46253 4.26367,0.69922 -1.39956,-0.23681 -2.81968,-0.47038 -4.26367,-0.69922 z m -201.39649,1.48047 c -1.48357,0.26862 -2.92195,0.54357 -4.35351,0.82031 1.43102,-0.27662 2.87056,-0.55179 4.35351,-0.82031 z m 224.54688,2.91015 c 1.37378,0.30804 2.71972,0.61953 4.03906,0.9336 -1.31987,-0.31434 -2.66464,-0.6253 -4.03906,-0.9336 z m -257.78711,4.87696 c -1.2477,0.37166 -2.46229,0.74363 -3.64648,1.11718 1.18333,-0.373 2.39985,-0.74607 3.64648,-1.11718 z m 276.78711,0.0449 c 1.18358,0.35317 2.33466,0.70763 3.46094,1.0625 -1.12632,-0.35513 -2.27724,-0.70907 -3.46094,-1.0625 z m 15.09961,5.09961 c 0.94752,0.36245 1.86375,0.72335 2.75586,1.08203 -0.89248,-0.35917 -1.80784,-0.71908 -2.75586,-1.08203 z m 11.51172,4.91601 c 0.68692,0.3289 1.34562,0.65279 1.98438,0.97266 -0.63932,-0.32056 -1.2967,-0.64303 -1.98438,-0.97266 z m -338.20899,4.24805 c -2.0363,1.19396 -3.66142,2.25754 -4.9375,3.15234 1.27269,-0.8948 2.90272,-1.95685 4.9375,-3.15234 z m -5.09375,3.26367 c -0.57942,0.41039 -1.0963,0.78745 -1.52539,1.11719 0.43157,-0.3308 0.94284,-0.70562 1.52539,-1.11719 z m 357.72266,0.93359 c 0.33212,0.25117 0.58022,0.45114 0.83594,0.65625 -0.26095,-0.21013 -0.49329,-0.39664 -0.83594,-0.65625 z m -359.3125,0.23243 c -0.18222,0.14055 -0.28196,0.22537 -0.4375,0.34961 0.15185,-0.12086 0.26065,-0.21353 0.4375,-0.34961 z m 360.85742,1.00781 c 0.36739,0.31968 0.75196,0.66211 0.75196,0.66211 0,0 -0.2969,-0.27154 -0.75196,-0.66211 z m -362.20312,0.0879 c -0.39798,0.34488 -0.64454,0.57422 -0.64453,0.57422 -1e-5,0 0.32357,-0.2927 0.64453,-0.57422 z M 554.99531,515.227 c 0.83306,0.32154 1.71501,0.65324 2.48829,0.95898 -0.78151,-0.30855 -1.64593,-0.6344 -2.48829,-0.95898 z m -331.16601,0.43554 c -0.59539,0.23198 -1.2634,0.48193 -1.82618,0.70508 0.55928,-0.22212 1.23455,-0.47418 1.82618,-0.70508 z m 337.04687,1.89063 c 0.76106,0.31216 1.53006,0.62697 2.21289,0.91406 -0.69724,-0.29273 -1.43441,-0.59536 -2.21289,-0.91406 z m -341.96875,0.0723 c -0.85158,0.34936 -1.69085,0.69045 -2.44336,1.00782 0.7379,-0.31162 1.60996,-0.6653 2.44336,-1.00782 z m 346.67383,1.9004 c 0.65065,0.28235 1.26473,0.55105 1.8125,0.79492 -0.56699,-0.25209 -1.13571,-0.50187 -1.8125,-0.79492 z m -351.27344,0.0312 c -0.71911,0.31174 -1.35796,0.58901 -1.95117,0.85352 0.57671,-0.25748 1.25521,-0.5512 1.95117,-0.85352 z m 354.54688,1.41602 c 1.69614,0.77646 2.92383,1.36914 2.92383,1.36914 0,0 -1.04431,-0.51407 -2.92383,-1.36914 z m -357.82227,0.0332 c -1.82655,0.83212 -2.85351,1.33594 -2.85351,1.33594 0,0 1.23699,-0.59424 2.85351,-1.33594 z"
         style="fill:#fbb516;fill-rule:evenodd;stroke:none;stroke-width:1px;stroke-linecap:butt;stroke-linejoin:miter;stroke-opacity:1" />
      <path
         id="path4192"
         d="M 478.57812 382.42773 L 434.57617 488.0332 C 440.7874 488.60055 446.80836 489.28372 452.67578 490.04102 L 460.74219 481.12695 C 467.36223 473.8117 476.47975 469.86395 485.77148 469.40039 C 495.06322 468.93684 504.52849 471.95613 511.84375 478.57617 C 519.44809 485.45782 523.40431 495.03921 523.59961 504.70898 C 554.27087 513.61187 571.7793 522.3418 571.7793 522.3418 L 571.7793 413.26172 C 571.7793 413.26172 551.08191 392.59865 478.57812 382.42773 z "
         style="fill:#d9463a;fill-rule:evenodd;stroke:none;stroke-width:1px;stroke-linecap:butt;stroke-linejoin:miter;stroke-opacity:1" />
      <path
         sodipodi:nodetypes="ccccc"
         inkscape:connector-curvature="0"
         style="fill:#99b000;fill-rule:evenodd;stroke:none;stroke-width:1px;stroke-linecap:butt;stroke-linejoin:miter;stroke-opacity:1"
         d="m 284.97578,385.05316 c -59.2615,10.71892 -76.79688,28.20899 -76.79687,28.20899 l 0,109.08008 c 0,0 49.78324,-24.85872 128.71093,-33.45898 z"
         id="path4197" />
      <path
         inkscape:transform-center-x="-30.649364"
         inkscape:transform-center-y="-35.777192"
         id="path4186"
         d="m 499.76617,491.92331 c 7.4678,6.75808 8.03915,18.21023 1.28107,25.67802 l -63.12859,69.75822 a 54.540001,54.539967 42.143921 0 1 -7.50005,62.47785 54.540001,54.539967 42.143921 0 1 -77.03684,3.8433 54.540001,54.539967 42.143921 0 1 -3.84186,-77.03551 54.540001,54.539967 42.143921 0 1 61.41573,-13.67826 l 63.13252,-69.76257 c 6.75808,-7.46779 18.21023,-8.03913 25.67802,-1.28105 z"
         style="color:#000000;clip-rule:nonzero;display:inline;overflow:visible;visibility:visible;opacity:1;isolation:auto;mix-blend-mode:normal;color-interpolation:sRGB;color-interpolation-filters:linearRGB;solid-color:#000000;solid-opacity:1;fill:#4e505d;fill-opacity:1;fill-rule:nonzero;stroke:none;stroke-width:50;stroke-linecap:butt;stroke-linejoin:round;stroke-miterlimit:4;stroke-dasharray:none;stroke-dashoffset:0;stroke-opacity:1;color-rendering:auto;image-rendering:auto;shape-rendering:auto;text-rendering:auto;enable-background:accumulate"
         inkscape:connector-curvature="0" />
      <path
         id="rect4219"
         d="m 208.17854,322.36221 363.64146,0 c 10.07172,0 18.18,8.10828 18.18,18.18 l 0,363.63998 c 0,10.0717 -8.10828,18.18 -18.18,18.18 l -363.64146,0 c -10.07172,0 -18.18,-8.1083 -18.18,-18.18 l 0,-363.63998 c 0,-10.07172 8.10828,-18.18 18.18,-18.18 z"
         style="color:#000000;clip-rule:nonzero;display:inline;overflow:visible;visibility:visible;opacity:1;isolation:auto;mix-blend-mode:normal;color-interpolation:sRGB;color-interpolation-filters:linearRGB;solid-color:#000000;solid-opacity:1;fill:none;fill-opacity:1;fill-rule:nonzero;stroke:none;stroke-width:36;stroke-linecap:butt;stroke-linejoin:round;stroke-miterlimit:4;stroke-dasharray:none;stroke-dashoffset:0;stroke-opacity:1;color-rendering:auto;image-rendering:auto;shape-rendering:auto;text-rendering:auto;enable-background:accumulate"
         inkscape:connector-curvature="0" />
    </g>
  </g>
</svg>
