<?xml version="1.0" encoding="UTF-8" standalone="no"?>
<!-- Created with Inkscape (http://www.inkscape.org/) -->

<svg
   xmlns:dc="http://purl.org/dc/elements/1.1/"
   xmlns:cc="http://creativecommons.org/ns#"
   xmlns:rdf="http://www.w3.org/1999/02/22-rdf-syntax-ns#"
   xmlns:svg="http://www.w3.org/2000/svg"
   xmlns="http://www.w3.org/2000/svg"
   xmlns:xlink="http://www.w3.org/1999/xlink"
   xmlns:sodipodi="http://sodipodi.sourceforge.net/DTD/sodipodi-0.dtd"
   xmlns:inkscape="http://www.inkscape.org/namespaces/inkscape"
   width="210mm"
   height="297mm"
   viewBox="0 0 744.09448819 1052.3622047"
   id="svg2"
   version="1.1"
   inkscape:version="0.91 r13725"
   inkscape:export-xdpi="7.1993198"
   inkscape:export-ydpi="7.1993198"
   sodipodi:docname="user-research-UK.svg"
   inkscape:export-filename="C:\Users\johannes\Documents\Arbeit\RRZE\github3\bicons\32x32\categories\user-research-UK.png">
  <defs
     id="defs4">
    <linearGradient
       inkscape:collect="always"
       xlink:href="#linearGradient4254"
       id="linearGradient4268"
       x1="358.43118"
       y1="465.73074"
       x2="429.96555"
       y2="644.62878"
       gradientUnits="userSpaceOnUse"
       gradientTransform="matrix(1.1386133,0,0,1.1386133,-55.468966,-54.091962)" />
    <linearGradient
       inkscape:collect="always"
       id="linearGradient4254">
      <stop
         style="stop-color:#7a8597;stop-opacity:1"
         offset="0"
         id="stop4256" />
      <stop
         style="stop-color:#4e505d;stop-opacity:1"
         offset="1"
         id="stop4258" />
    </linearGradient>
    <linearGradient
       inkscape:collect="always"
       xlink:href="#linearGradient4254"
       id="linearGradient4260"
       x1="380.01031"
       y1="330.40619"
       x2="414.6156"
       y2="457.18103"
       gradientUnits="userSpaceOnUse"
       gradientTransform="matrix(1.1011151,0,0,1.1092129,-42.787096,-44.811572)" />
  </defs>
  <sodipodi:namedview
     id="base"
     pagecolor="#ffffff"
     bordercolor="#666666"
     borderopacity="1.0"
     inkscape:pageopacity="0.0"
     inkscape:pageshadow="2"
     inkscape:zoom="0.70710678"
     inkscape:cx="471.65964"
     inkscape:cy="518.33205"
     inkscape:document-units="px"
     inkscape:current-layer="layer1"
     showgrid="false"
     showguides="true"
     inkscape:guide-bbox="true"
     inkscape:window-width="1366"
     inkscape:window-height="721"
     inkscape:window-x="-4"
     inkscape:window-y="-4"
     inkscape:window-maximized="1"
     inkscape:snap-bbox="true"
     inkscape:bbox-paths="true"
     inkscape:bbox-nodes="true"
     inkscape:snap-nodes="false">
    <sodipodi:guide
       position="315.53572,730.17859"
       orientation="0,1"
       id="guide3338" />
    <sodipodi:guide
       position="351.25,330.17858"
       orientation="0,1"
       id="guide3340" />
    <sodipodi:guide
       position="189.10714,408.8393"
       orientation="1,0"
       id="guide3344" />
    <sodipodi:guide
       position="589.04521,468.07945"
       orientation="1,0"
       id="guide3346" />
    <inkscape:grid
       type="xygrid"
       id="grid3440" />
    <sodipodi:guide
       position="0,0"
       orientation="0,1"
       id="guide3405" />
    <sodipodi:guide
       position="214.125,684.50002"
       orientation="1,0"
       id="guide3407" />
    <sodipodi:guide
       position="0,0"
       orientation="0,1"
       id="guide3409" />
    <sodipodi:guide
       position="589.04521,378.30213"
       orientation="1,0"
       id="guide3411" />
    <sodipodi:guide
       position="564.00001,683.37502"
       orientation="1,0"
       id="guide3413" />
    <sodipodi:guide
       position="0,0"
       orientation="0,1"
       id="guide4168" />
  </sodipodi:namedview>
  <metadata
     id="metadata7">
    <rdf:RDF>
      <cc:Work
         rdf:about="">
        <dc:format>image/svg+xml</dc:format>
        <dc:type
           rdf:resource="http://purl.org/dc/dcmitype/StillImage" />
        <dc:title>user research UK</dc:title>
        <dc:date>June 2015</dc:date>
        <dc:creator>
          <cc:Agent>
            <dc:title>Johannes Hechler</dc:title>
          </cc:Agent>
        </dc:creator>
        <dc:rights>
          <cc:Agent>
            <dc:title>Johannes Hechler</dc:title>
          </cc:Agent>
        </dc:rights>
        <dc:publisher>
          <cc:Agent>
            <dc:title>RRZE</dc:title>
          </cc:Agent>
        </dc:publisher>
        <dc:contributor>
          <cc:Agent>
            <dc:title>Ute Weber, Hendrik Eggers, Joanna Barbach</dc:title>
          </cc:Agent>
        </dc:contributor>
        <dc:subject>
          <rdf:Bag>
            <rdf:li>user</rdf:li>
            <rdf:li>academic</rdf:li>
            <rdf:li>identity management</rdf:li>
            <rdf:li>role</rdf:li>
            <rdf:li>employee</rdf:li>
            <rdf:li>research</rdf:li>
            <rdf:li>UK</rdf:li>
            <rdf:li>Universitaetsklinikum</rdf:li>
            <rdf:li>university clinic</rdf:li>
            <rdf:li>hospital</rdf:li>
          </rdf:Bag>
        </dc:subject>
        <cc:license
           rdf:resource="http://creativecommons.org/licenses/by-sa/3.0/" />
      </cc:Work>
      <cc:License
         rdf:about="http://creativecommons.org/licenses/by-sa/3.0/">
        <cc:permits
           rdf:resource="http://creativecommons.org/ns#Reproduction" />
        <cc:permits
           rdf:resource="http://creativecommons.org/ns#Distribution" />
        <cc:requires
           rdf:resource="http://creativecommons.org/ns#Notice" />
        <cc:requires
           rdf:resource="http://creativecommons.org/ns#Attribution" />
        <cc:permits
           rdf:resource="http://creativecommons.org/ns#DerivativeWorks" />
        <cc:requires
           rdf:resource="http://creativecommons.org/ns#ShareAlike" />
      </cc:License>
    </rdf:RDF>
  </metadata>
  <g
     inkscape:label="Ebene 1"
     inkscape:groupmode="layer"
     id="layer1">
    <flowRoot
       transform="translate(-0.099643,-17.797849)"
       xml:space="preserve"
       id="flowRoot4169-9"
       style="font-style:normal;font-weight:normal;font-size:40px;line-height:125%;font-family:sans-serif;letter-spacing:0px;word-spacing:0px;fill:#252525;fill-opacity:1;stroke:none;stroke-width:1px;stroke-linecap:butt;stroke-linejoin:miter;stroke-opacity:1"><flowRegion
         id="flowRegion4171-9"><rect
           id="rect4173-2"
           width="56.433445"
           height="88.78862"
           x="89.541069"
           y="427.07962" /></flowRegion><flowPara
         id="flowPara4175-7" /></flowRoot>    <flowRoot
       xml:space="preserve"
       id="flowRoot4169"
       style="font-style:normal;font-weight:normal;font-size:40px;line-height:125%;font-family:sans-serif;letter-spacing:0px;word-spacing:0px;fill:#252525;fill-opacity:1;stroke:none;stroke-width:1px;stroke-linecap:butt;stroke-linejoin:miter;stroke-opacity:1"><flowRegion
         id="flowRegion4171"><rect
           id="rect4173"
           width="56.433445"
           height="88.78862"
           x="89.541069"
           y="427.07962" /></flowRegion><flowPara
         id="flowPara4175" /></flowRoot>    <rect
       style="fill:none;fill-rule:evenodd;stroke:none;stroke-width:1px;stroke-linecap:butt;stroke-linejoin:miter;stroke-opacity:1"
       id="rect3336"
       width="400"
       height="400"
       x="189.14485"
       y="322.27005"
       inkscape:export-xdpi="4.9499998"
       inkscape:export-ydpi="4.9499998" />
    <rect
       style="fill:none;fill-rule:evenodd;stroke:none;stroke-width:1px;stroke-linecap:butt;stroke-linejoin:miter;stroke-opacity:1"
       id="rect3336-0"
       width="400"
       height="400"
       x="189.10715"
       y="321.67923"
       inkscape:export-xdpi="4.9499998"
       inkscape:export-ydpi="4.9499998" />
    <path
       style="fill:url(#linearGradient4268);fill-opacity:1;stroke:none;stroke-width:41.15159225;stroke-linecap:round;stroke-linejoin:round;stroke-opacity:1"
       d="M 346.33203 474.14258 L 346.33203 474.14453 C 346.1983 474.26284 346.07746 474.38908 345.93945 474.50391 L 338.48828 478.54102 C 328.77762 484.29353 319.65966 491.50927 311.28125 500.01562 C 321.01949 506.94813 329.36508 515.85555 335.69141 526.31836 L 335.70117 526.33594 L 335.71094 526.35156 C 354.40868 557.43023 351.98335 596.48129 330.85742 624.88477 L 374.47461 697.06445 L 374.3125 702.375 C 374.07181 710.27519 371.30668 716.85316 367.25977 722.18359 L 453.16211 722.18359 L 453.16211 681.17969 L 412.13281 681.17969 A 18.0018 18.0018 0 0 1 394.13281 663.17969 L 394.13281 604.15039 A 18.0018 18.0018 0 0 1 412.13281 586.15039 L 453.28906 586.15039 L 453.28906 549.82227 A 18.0018 18.0018 0 0 1 471.28906 531.82227 L 490.57812 531.82227 C 475.10213 506.04422 454.78821 486.29761 431.68359 474.76367 C 419.21283 481.76548 404.83792 485.7832 389.55078 485.7832 C 373.81801 485.78321 359.05041 481.52775 346.33203 474.14258 z M 297.52148 535.44531 C 299.89843 538.05089 302.05389 540.9346 303.9375 544.08594 C 319.02776 569.39678 310.97212 602.37919 285.88281 617.70312 C 283.62083 619.08812 281.29541 620.27679 278.92969 621.28516 L 286.55859 619.20117 L 296.20703 609.95703 C 314.01511 592.89837 317.56564 566.03114 304.86719 544.91797 C 302.77023 541.45488 300.29682 538.28802 297.52148 535.44531 z M 489.28906 567.82227 L 489.28906 586.15039 L 512.32031 586.15039 L 512.32031 582.69531 C 510.87568 577.61495 509.27849 572.65488 507.53906 567.82227 L 489.28906 567.82227 z M 430.13281 622.15039 L 430.13281 645.17969 L 453.16211 645.17969 L 453.16211 622.15039 L 430.13281 622.15039 z M 489.16211 626.85156 L 489.16211 645.1543 L 512.01562 645.1543 L 512.01562 626.85156 L 489.16211 626.85156 z M 269.56836 659.99609 C 265.08532 660.48492 260.60609 660.61465 256.16406 660.42188 C 256.51629 675.47752 258.05122 690.09632 260.63477 704.08984 C 265.03093 713.92444 276.07757 721.13272 289.3125 722.07422 L 289.3125 722.18359 L 307.14844 722.18359 L 269.56836 659.99609 z M 489.16211 681.17969 L 489.16211 704.18359 L 512.19141 704.18359 L 512.19141 681.17969 L 489.16211 681.17969 z "
       id="path2176" />
    <ellipse
       style="fill:url(#linearGradient4260);fill-opacity:1;stroke:none;stroke-width:14;stroke-miterlimit:4;stroke-dasharray:none;stroke-opacity:1"
       id="circle2187-6"
       cy="394.69513"
       cx="389.52194"
       rx="72.285255"
       ry="72.424042" />
    <path
       style="fill:#99b000;fill-opacity:1;fill-rule:evenodd;stroke:none"
       d="M 258.26758 502.04492 C 245.94618 502.28714 233.82143 505.7431 223.16211 512.19727 C 189.82974 532.31207 179.13234 575.68642 199.29297 608.98242 C 215.59534 635.97217 247.84719 648.7947 278.24609 640.48828 L 326.39453 720.16406 C 337.84713 725.75236 355.63358 714.99798 356.02148 702.26562 L 308.35742 623.39453 C 332.1775 600.57687 336.97345 564.30437 319.98828 536.07227 C 309.23366 518.28635 291.17207 506.14835 270.60742 502.88281 C 266.5035 502.24113 262.37471 501.96418 258.26758 502.04492 z M 258.63281 518.25977 C 276.55227 518.27671 294.0073 527.47242 303.9375 544.08594 C 319.02776 569.39678 310.97212 602.37919 285.88281 617.70312 C 260.78805 633.06848 228.18243 624.97564 213.05078 599.66016 C 197.96015 574.34901 206.01573 541.36535 231.10547 526.04102 C 239.73169 520.75922 249.24643 518.25089 258.63281 518.25977 z "
       id="path4199" />
    <g
       id="g4372">
      <rect
         style="fill:#7a859c;fill-opacity:1;stroke:none"
         id="rect3782"
         width="59.030033"
         height="59.030033"
         x="471.28976"
         y="549.8222" />
      <rect
         y="604.1496"
         x="471.16232"
         height="59.030033"
         width="59.030033"
         id="rect3776"
         style="fill:#4e505d;fill-opacity:1;stroke:none" />
      <rect
         style="fill:#99b000;fill-opacity:1;stroke:none"
         id="rect3778"
         width="59.030033"
         height="59.030033"
         x="412.13229"
         y="604.1496" />
      <rect
         y="604.1496"
         x="530.0152"
         height="59.030033"
         width="59.030033"
         id="rect3780"
         style="fill:#99b000;fill-opacity:1;stroke:none" />
      <rect
         style="fill:#7a859c;fill-opacity:1;stroke:none"
         id="rect3784"
         width="59.030033"
         height="59.030033"
         x="471.16232"
         y="663.15363" />
    </g>
  </g>
</svg>
