<?xml version="1.0" encoding="UTF-8" standalone="no"?>
<!-- Created with Inkscape (http://www.inkscape.org/) -->

<svg
   xmlns:dc="http://purl.org/dc/elements/1.1/"
   xmlns:cc="http://creativecommons.org/ns#"
   xmlns:rdf="http://www.w3.org/1999/02/22-rdf-syntax-ns#"
   xmlns:svg="http://www.w3.org/2000/svg"
   xmlns="http://www.w3.org/2000/svg"
   xmlns:xlink="http://www.w3.org/1999/xlink"
   xmlns:sodipodi="http://sodipodi.sourceforge.net/DTD/sodipodi-0.dtd"
   xmlns:inkscape="http://www.inkscape.org/namespaces/inkscape"
   width="210mm"
   height="297mm"
   viewBox="0 0 744.09448819 1052.3622047"
   id="svg2"
   version="1.1"
   inkscape:version="0.91 r13725"
   inkscape:export-xdpi="4"
   inkscape:export-ydpi="4"
   sodipodi:docname="user-fh.svg">
  <defs
     id="defs4">
    <linearGradient
       inkscape:collect="always"
       id="linearGradient4254">
      <stop
         style="stop-color:#7a8597;stop-opacity:1"
         offset="0"
         id="stop4256" />
      <stop
         style="stop-color:#4e505d;stop-opacity:1"
         offset="1"
         id="stop4258" />
    </linearGradient>
    <linearGradient
       inkscape:collect="always"
       xlink:href="#linearGradient4254"
       id="linearGradient4260"
       x1="380.01031"
       y1="330.40619"
       x2="414.6156"
       y2="457.18103"
       gradientUnits="userSpaceOnUse"
       gradientTransform="translate(0.37005758,-0.39466108)" />
    <linearGradient
       inkscape:collect="always"
       xlink:href="#linearGradient4254"
       id="linearGradient4268"
       x1="358.43118"
       y1="465.73074"
       x2="429.96555"
       y2="644.62878"
       gradientUnits="userSpaceOnUse" />
  </defs>
  <sodipodi:namedview
     id="base"
     pagecolor="#ffffff"
     bordercolor="#666666"
     borderopacity="1.0"
     inkscape:pageopacity="0.0"
     inkscape:pageshadow="2"
     inkscape:zoom="1.4142136"
     inkscape:cx="540.14631"
     inkscape:cy="432.05877"
     inkscape:document-units="px"
     inkscape:current-layer="layer1"
     showgrid="false"
     showguides="true"
     inkscape:guide-bbox="true"
     inkscape:window-width="1366"
     inkscape:window-height="721"
     inkscape:window-x="-4"
     inkscape:window-y="-4"
     inkscape:window-maximized="1">
    <sodipodi:guide
       position="315.53572,730.17859"
       orientation="0,1"
       id="guide3338" />
    <sodipodi:guide
       position="351.25,330.17858"
       orientation="0,1"
       id="guide3340" />
    <sodipodi:guide
       position="189.10714,408.8393"
       orientation="1,0"
       id="guide3344" />
    <sodipodi:guide
       position="589.04521,468.07945"
       orientation="1,0"
       id="guide3346" />
    <inkscape:grid
       type="xygrid"
       id="grid3440" />
    <sodipodi:guide
       position="589.04521,378.30213"
       orientation="1,0"
       id="guide3411" />
  </sodipodi:namedview>
  <metadata
     id="metadata7">
    <rdf:RDF>
      <cc:Work
         rdf:about="">
        <dc:format>image/svg+xml</dc:format>
        <dc:type
           rdf:resource="http://purl.org/dc/dcmitype/StillImage" />
        <dc:title>user fh</dc:title>
        <dc:date>June 2015</dc:date>
        <dc:rights>
          <cc:Agent>
            <dc:title>Johannes Hechler</dc:title>
          </cc:Agent>
        </dc:rights>
        <dc:creator>
          <cc:Agent>
            <dc:title>Johannes Hechler</dc:title>
          </cc:Agent>
        </dc:creator>
        <dc:publisher>
          <cc:Agent>
            <dc:title>RRZE</dc:title>
          </cc:Agent>
        </dc:publisher>
        <dc:contributor>
          <cc:Agent>
            <dc:title>Ute Weber, Hendrik Eggers, Joanna Barbach</dc:title>
          </cc:Agent>
        </dc:contributor>
        <dc:subject>
          <rdf:Bag>
            <rdf:li>user</rdf:li>
            <rdf:li>other</rdf:li>
            <rdf:li>guest</rdf:li>
            <rdf:li>misc</rdf:li>
            <rdf:li>template</rdf:li>
            <rdf:li>identity management</rdf:li>
            <rdf:li>role</rdf:li>
          </rdf:Bag>
        </dc:subject>
        <cc:license
           rdf:resource="http://creativecommons.org/licenses/by-sa/3.0/" />
      </cc:Work>
      <cc:License
         rdf:about="http://creativecommons.org/licenses/by-sa/3.0/">
        <cc:permits
           rdf:resource="http://creativecommons.org/ns#Reproduction" />
        <cc:permits
           rdf:resource="http://creativecommons.org/ns#Distribution" />
        <cc:requires
           rdf:resource="http://creativecommons.org/ns#Notice" />
        <cc:requires
           rdf:resource="http://creativecommons.org/ns#Attribution" />
        <cc:permits
           rdf:resource="http://creativecommons.org/ns#DerivativeWorks" />
        <cc:requires
           rdf:resource="http://creativecommons.org/ns#ShareAlike" />
      </cc:License>
    </rdf:RDF>
  </metadata>
  <g
     inkscape:label="Ebene 1"
     inkscape:groupmode="layer"
     id="layer1">
    <flowRoot
       xml:space="preserve"
       id="flowRoot4169"
       style="font-style:normal;font-weight:normal;font-size:40px;line-height:125%;font-family:sans-serif;letter-spacing:0px;word-spacing:0px;fill:#252525;fill-opacity:1;stroke:none;stroke-width:1px;stroke-linecap:butt;stroke-linejoin:miter;stroke-opacity:1"><flowRegion
         id="flowRegion4171"><rect
           id="rect4173"
           width="56.433445"
           height="88.78862"
           x="89.541069"
           y="427.07962" /></flowRegion><flowPara
         id="flowPara4175" /></flowRoot>    <rect
       style="fill:none;fill-rule:evenodd;stroke:none;stroke-width:1px;stroke-linecap:butt;stroke-linejoin:miter;stroke-opacity:1"
       id="rect3336"
       width="400"
       height="400"
       x="189.14485"
       y="322.27005"
       inkscape:export-xdpi="4.9499998"
       inkscape:export-ydpi="4.9499998" />
    <g
       id="g4289"
       transform="matrix(1.1386133,0,0,1.1386133,-55.088125,-53.501199)">
      <path
         sodipodi:nodetypes="cccsccccccscsc"
         inkscape:connector-curvature="0"
         id="path2176"
         d="m 354.64258,460.41602 c -0.11745,0.1039 -0.22449,0.21556 -0.3457,0.3164 l -6.54297,3.54492 c -42.67576,25.28071 -72.76172,86.25893 -72.76172,157.46875 0,15.29493 1.39507,30.1142 3.99804,44.21289 3.86098,8.63739 13.56182,14.96807 25.18555,15.79493 l 0,0.0957 172.76172,0 0,-0.008 c 13.04649,-0.18416 24.03463,-7.28341 27.72656,-17.01563 2.4704,-13.75919 3.79102,-28.19351 3.79102,-43.08008 0,-74.54936 -32.9771,-137.88441 -78.85156,-160.78515 -10.95259,6.14942 -23.5778,9.67773 -37.00391,9.67773 -13.81748,10e-6 -26.78697,-3.73654 -37.95703,-10.22265 z"
         style="fill:url(#linearGradient4268);fill-opacity:1;stroke:none;stroke-width:41.15159225;stroke-linecap:round;stroke-linejoin:round;stroke-opacity:1" />
      <ellipse
         ry="65.293182"
         rx="65.647316"
         cx="392.98022"
         cy="395.83826"
         id="circle2187-6"
         style="fill:url(#linearGradient4260);fill-opacity:1;stroke:none;stroke-width:14;stroke-miterlimit:4;stroke-dasharray:none;stroke-opacity:1" />
    </g>
    <path
       inkscape:connector-curvature="0"
       id="path4186"
       d="m 362.00963,510.10964 191.70525,0 0,182.21264 -191.70526,0 z"
       style="fill:#729fcf;stroke:#ffffff;stroke-width:35;stroke-linejoin:round;stroke-miterlimit:4;stroke-dasharray:none" />
    <path
       style="fill:#729fcf;stroke:none;stroke-width:9.46999359;stroke-linejoin:round;stroke-miterlimit:4"
       d="m 362.00963,510.10964 191.70525,0 0,182.21264 -191.70526,0 z"
       id="rect9998"
       inkscape:connector-curvature="0" />
    <g
       transform="matrix(1.1855534,0,0,1.1855534,189.96867,118.66342)"
       style="font-style:normal;font-weight:normal;font-size:144px;line-height:125%;font-family:Sans;letter-spacing:0px;word-spacing:0px;fill:#ffffff;fill-opacity:1;stroke:#ffffff;stroke-width:35;stroke-linecap:square;stroke-linejoin:bevel;stroke-miterlimit:4;stroke-dasharray:none;stroke-opacity:1"
       id="flowRoot10001">
      <path
         inkscape:connector-curvature="0"
         d="m 213.4375,357.90688 0,10.75781 -12.375,0 c -4.64066,10e-5 -7.87503,0.9376 -9.70313,2.8125 -1.78127,1.8751 -2.6719,5.25009 -2.67187,10.125 l 0,6.96094 21.30469,0 0,10.05469 -21.30469,0 0,68.69531 -13.00781,0 0,-68.69531 -12.375,0 0,-10.05469 12.375,0 0,-5.48438 c -2e-5,-8.76553 2.03904,-15.14052 6.11718,-19.125 4.0781,-4.03114 10.54685,-6.04676 19.40625,-6.04687 l 12.23438,0"
         id="path3054"
         style="stroke:#ffffff;stroke-width:35;stroke-linecap:square;stroke-linejoin:bevel;stroke-miterlimit:4;stroke-dasharray:none" />
      <path
         inkscape:connector-curvature="0"
         d="m 289.65625,419.78188 0,47.53125 -12.9375,0 0,-47.10938 c -7e-5,-7.45307 -1.45319,-13.03119 -4.35938,-16.73437 -2.9063,-3.70306 -7.26567,-5.55462 -13.07812,-5.55469 -6.98442,7e-5 -12.49222,2.22663 -16.52344,6.67969 -4.03128,4.45318 -6.0469,10.52349 -6.04687,18.21094 l 0,44.50781 -13.00782,0 0,-109.40625 13.00782,0 0,42.89062 c 3.09372,-4.7343 6.72653,-8.27336 10.89843,-10.61718 4.21871,-2.34367 9.07027,-3.51555 14.55469,-3.51563 9.04682,8e-5 15.89056,2.81258 20.53125,8.4375 4.64055,5.57819 6.96086,13.80475 6.96094,24.67969"
         id="path3056"
         style="stroke:#ffffff;stroke-width:35;stroke-linecap:square;stroke-linejoin:bevel;stroke-miterlimit:4;stroke-dasharray:none" />
    </g>
  </g>
</svg>
