<?xml version="1.0" encoding="UTF-8" standalone="no"?>
<!-- Created with Inkscape (http://www.inkscape.org/) -->

<svg
   xmlns:dc="http://purl.org/dc/elements/1.1/"
   xmlns:cc="http://creativecommons.org/ns#"
   xmlns:rdf="http://www.w3.org/1999/02/22-rdf-syntax-ns#"
   xmlns:svg="http://www.w3.org/2000/svg"
   xmlns="http://www.w3.org/2000/svg"
   xmlns:xlink="http://www.w3.org/1999/xlink"
   xmlns:sodipodi="http://sodipodi.sourceforge.net/DTD/sodipodi-0.dtd"
   xmlns:inkscape="http://www.inkscape.org/namespaces/inkscape"
   width="210mm"
   height="297mm"
   viewBox="0 0 744.09448819 1052.3622047"
   id="svg2"
   version="1.1"
   inkscape:version="0.91 r13725"
   inkscape:export-xdpi="7.1999998"
   inkscape:export-ydpi="7.1999998"
   sodipodi:docname="user-other-new.svg"
   inkscape:export-filename="C:\Users\johannes\Documents\Arbeit\RRZE\github3\bicons\32x32\categories\user-other-new.png">
  <defs
     id="defs4">
    <linearGradient
       inkscape:collect="always"
       xlink:href="#linearGradient4254"
       id="linearGradient4268"
       x1="358.43118"
       y1="465.73074"
       x2="429.96555"
       y2="644.62878"
       gradientUnits="userSpaceOnUse"
       gradientTransform="matrix(1.1386133,0,0,1.1386133,-55.5309,-53.587569)" />
    <linearGradient
       inkscape:collect="always"
       id="linearGradient4254">
      <stop
         style="stop-color:#7a8597;stop-opacity:1"
         offset="0"
         id="stop4256" />
      <stop
         style="stop-color:#4e505d;stop-opacity:1"
         offset="1"
         id="stop4258" />
    </linearGradient>
    <linearGradient
       inkscape:collect="always"
       xlink:href="#linearGradient4254"
       id="linearGradient4260"
       x1="380.01031"
       y1="330.40619"
       x2="414.6156"
       y2="457.18103"
       gradientUnits="userSpaceOnUse"
       gradientTransform="matrix(1.1011151,0,0,1.1092129,-42.84903,-44.307179)" />
  </defs>
  <sodipodi:namedview
     id="base"
     pagecolor="#ffffff"
     bordercolor="#666666"
     borderopacity="1.0"
     inkscape:pageopacity="0.0"
     inkscape:pageshadow="2"
     inkscape:zoom="1"
     inkscape:cx="512.9179"
     inkscape:cy="454.12807"
     inkscape:document-units="px"
     inkscape:current-layer="layer1"
     showgrid="false"
     showguides="true"
     inkscape:guide-bbox="true"
     inkscape:window-width="1366"
     inkscape:window-height="721"
     inkscape:window-x="-4"
     inkscape:window-y="-4"
     inkscape:window-maximized="1"
     inkscape:snap-bbox="true"
     inkscape:bbox-paths="true"
     inkscape:bbox-nodes="true"
     inkscape:snap-nodes="false">
    <sodipodi:guide
       position="315.53572,730.17859"
       orientation="0,1"
       id="guide3338" />
    <sodipodi:guide
       position="351.25,330.17858"
       orientation="0,1"
       id="guide3340" />
    <sodipodi:guide
       position="189.10714,408.8393"
       orientation="1,0"
       id="guide3344" />
    <sodipodi:guide
       position="589.04521,468.07945"
       orientation="1,0"
       id="guide3346" />
    <inkscape:grid
       type="xygrid"
       id="grid3440" />
    <sodipodi:guide
       position="589.04521,378.30213"
       orientation="1,0"
       id="guide3411" />
  </sodipodi:namedview>
  <metadata
     id="metadata7">
    <rdf:RDF>
      <cc:Work
         rdf:about="">
        <dc:format>image/svg+xml</dc:format>
        <dc:type
           rdf:resource="http://purl.org/dc/dcmitype/StillImage" />
        <dc:title>user other new</dc:title>
        <dc:date>June 2015</dc:date>
        <dc:creator>
          <cc:Agent>
            <dc:title>Johannes Hechler</dc:title>
          </cc:Agent>
        </dc:creator>
        <dc:rights>
          <cc:Agent>
            <dc:title>Johannes Hechler</dc:title>
          </cc:Agent>
        </dc:rights>
        <dc:publisher>
          <cc:Agent>
            <dc:title>RRZE</dc:title>
          </cc:Agent>
        </dc:publisher>
        <dc:contributor>
          <cc:Agent>
            <dc:title>Ute Weber, Hendrik Eggers, Joanna Barbach</dc:title>
          </cc:Agent>
        </dc:contributor>
        <dc:subject>
          <rdf:Bag>
            <rdf:li>user</rdf:li>
            <rdf:li>other</rdf:li>
            <rdf:li>guest</rdf:li>
            <rdf:li>misc</rdf:li>
            <rdf:li>template</rdf:li>
            <rdf:li>identity management</rdf:li>
            <rdf:li>role</rdf:li>
            <rdf:li>new</rdf:li>
          </rdf:Bag>
        </dc:subject>
        <cc:license
           rdf:resource="http://creativecommons.org/licenses/by-sa/3.0/" />
      </cc:Work>
      <cc:License
         rdf:about="http://creativecommons.org/licenses/by-sa/3.0/">
        <cc:permits
           rdf:resource="http://creativecommons.org/ns#Reproduction" />
        <cc:permits
           rdf:resource="http://creativecommons.org/ns#Distribution" />
        <cc:requires
           rdf:resource="http://creativecommons.org/ns#Notice" />
        <cc:requires
           rdf:resource="http://creativecommons.org/ns#Attribution" />
        <cc:permits
           rdf:resource="http://creativecommons.org/ns#DerivativeWorks" />
        <cc:requires
           rdf:resource="http://creativecommons.org/ns#ShareAlike" />
      </cc:License>
    </rdf:RDF>
  </metadata>
  <g
     inkscape:label="Ebene 1"
     inkscape:groupmode="layer"
     id="layer1">
    <g
       id="g4223">
      <flowRoot
         style="font-style:normal;font-weight:normal;font-size:40px;line-height:125%;font-family:sans-serif;letter-spacing:0px;word-spacing:0px;fill:#252525;fill-opacity:1;stroke:none;stroke-width:1px;stroke-linecap:butt;stroke-linejoin:miter;stroke-opacity:1"
         id="flowRoot4169"
         xml:space="preserve"
         transform="translate(-0.09964,-0.0863789)"><flowRegion
           id="flowRegion4171"><rect
             y="427.07962"
             x="89.541069"
             height="88.78862"
             width="56.433445"
             id="rect4173" /></flowRegion><flowPara
           id="flowPara4175" /></flowRoot>      <rect
         inkscape:export-ydpi="4.9499998"
         inkscape:export-xdpi="4.9499998"
         y="322.18362"
         x="189.04521"
         height="400"
         width="400"
         id="rect3336"
         style="fill:none;fill-rule:evenodd;stroke:none;stroke-width:1px;stroke-linecap:butt;stroke-linejoin:miter;stroke-opacity:1" />
      <path
         id="path2176"
         d="M 346.26953 474.64648 L 346.26953 474.64844 C 346.1358 474.76675 346.01496 474.89299 345.87695 475.00781 L 338.42578 479.04492 C 289.83459 507.82988 256.02148 573.1715 256.02148 654.25195 C 256.02148 671.66693 257.60849 688.54075 260.57227 704.59375 C 264.96843 714.42835 276.01507 721.63662 289.25 722.57812 L 289.25 722.6875 L 401.64258 722.6875 C 401.30939 720.90282 401.23145 719.42841 401.19336 718.03125 C 401.08833 714.18022 401.46188 710.83026 401.9707 707.15234 C 402.98836 699.79652 404.7496 691.47947 406.57422 683.17773 C 408.39883 674.87598 410.29512 666.64894 411.52734 660.46289 C 411.8603 658.79129 411.98103 657.86398 412.19922 656.57422 C 411.26924 655.65444 410.63077 654.97137 409.38477 653.80859 C 404.77327 649.50516 398.42906 643.93134 392.10156 638.25586 C 385.77406 632.58039 379.48926 626.85505 374.36914 621.47656 C 371.80908 618.78732 369.54944 616.28579 367.38672 613.09766 C 366.30538 611.50359 365.20044 609.77181 364.17188 607.00781 C 363.14333 604.24382 361.70176 599.80829 363.76953 593.49805 C 365.8373 587.18781 369.62302 584.4669 372.08789 582.84766 C 374.55276 581.22841 376.47011 580.48676 378.28516 579.8418 C 381.91526 578.55189 385.21791 577.87136 388.87305 577.21875 C 396.18333 575.91352 404.63448 575.01952 413.09375 574.18945 C 421.55301 573.35938 429.96642 572.62055 436.23047 571.88086 C 437.92334 571.68096 438.84258 571.50747 440.13672 571.31641 C 440.72409 570.14774 441.17568 569.32944 441.89648 567.78516 C 444.56426 562.06953 447.90526 554.31459 451.34766 546.54297 C 454.79006 538.77134 458.29119 531.02571 461.82422 524.49414 C 463.59075 521.22835 465.27294 518.30572 467.63672 515.26367 C 468.81861 513.74265 470.12468 512.1546 472.43555 510.32227 C 472.88217 509.96813 473.40283 509.57724 473.96875 509.18164 C 461.54389 494.58258 447.21819 483.05372 431.62109 475.26758 C 419.15033 482.26939 404.77542 486.28711 389.48828 486.28711 C 373.75551 486.28712 358.98791 482.03165 346.26953 474.64648 z M 485.02539 559.44531 C 484.76713 560.02465 484.52203 560.53976 484.26367 561.12305 C 480.92832 568.65301 477.57422 576.46299 474.51758 583.01172 C 472.98926 586.28608 471.55907 589.22313 470.02539 591.95312 C 468.49171 594.68312 468.86354 596.73224 462.05859 601.65039 C 455.25364 606.56854 453.42491 605.57223 450.35156 606.17188 C 447.27821 606.77152 444.03972 607.20905 440.45117 607.63281 C 433.27408 608.48031 424.80754 609.21332 416.61133 610.01758 C 415.97666 610.07986 415.41212 610.15144 414.78125 610.21484 C 415.25224 610.63934 415.66589 611.03122 416.14062 611.45703 C 422.27136 616.95603 428.66166 622.55563 433.94531 627.48633 C 436.58714 629.95168 438.93811 632.22122 441.06055 634.52344 C 443.183 636.82567 445.24769 637.10597 447.82227 645.09766 C 450.39687 653.08935 448.88333 654.52068 448.50391 657.62891 C 448.12449 660.73715 447.53989 663.95029 446.83398 667.49414 C 445.42216 674.58185 443.50225 682.86071 441.73438 690.9043 C 441.59741 691.52749 441.49212 692.08708 441.35742 692.70703 C 441.90661 692.3903 442.40544 692.11869 442.95703 691.79883 C 450.08138 687.66743 457.38491 683.31974 463.70703 679.81836 C 466.86809 678.06767 469.75028 676.53176 472.5957 675.22461 C 475.44112 673.91748 476.34605 672.0415 484.74219 672.0625 C 493.13832 672.08349 494.0342 673.96382 496.87305 675.28516 C 499.7119 676.60651 502.58601 678.1554 505.73828 679.92188 C 510.07909 682.35438 514.90701 685.20284 519.79688 688.09375 C 520.81554 679.70529 521.46515 671.133 521.71484 662.4082 C 521.45394 660.83533 521.22806 659.30907 521.05273 657.81055 C 520.69395 654.74403 519.24196 653.27193 521.70703 645.58398 C 521.28607 631.91088 519.87201 618.71178 517.57031 606.09375 C 515.3602 605.87877 513.08415 605.63816 507.7793 601.76367 C 500.99901 596.81157 501.37939 594.76497 499.85938 592.02734 C 498.33937 589.28971 496.92404 586.34446 495.41211 583.0625 C 492.38824 576.49858 489.07501 568.67348 485.77734 561.12695 C 485.52187 560.54232 485.28079 560.02598 485.02539 559.44531 z M 484.64844 709.48828 C 483.48616 710.08858 482.6396 710.48469 481.14844 711.31055 C 475.74232 714.30461 468.6529 718.50858 461.45312 722.6875 L 485.95898 722.6875 L 485.95898 722.67773 C 491.66625 722.59717 497.02012 721.34531 501.69727 719.2168 C 496.73851 716.28733 491.97109 713.47465 488.14062 711.32812 C 486.65385 710.49496 485.80758 710.09433 484.64844 709.48828 z "
         style="fill:url(#linearGradient4268);fill-opacity:1;stroke:none;stroke-width:41.15159225;stroke-linecap:round;stroke-linejoin:round;stroke-opacity:1" />
      <ellipse
         ry="72.424042"
         rx="72.285255"
         cx="389.45996"
         cy="395.19952"
         id="circle2187-6"
         style="fill:url(#linearGradient4260);fill-opacity:1;stroke:none;stroke-width:14;stroke-miterlimit:4;stroke-dasharray:none;stroke-opacity:1" />
      <path
         transform="matrix(0.82854315,0.02093137,-0.02093137,0.82854315,200.10045,221.09053)"
         inkscape:transform-center-y="-12.735372"
         inkscape:transform-center-x="-0.09292802"
         d="m 436,593.36221 c -6.87748,5.23998 -69.79398,-36.57256 -78.43797,-36.3758 -8.64398,0.19675 -69.59282,44.82873 -76.7016,39.90711 -7.10878,-4.92163 13.21504,-77.67957 10.35678,-85.83968 -2.85826,-8.16012 -64.14003,-52.33387 -61.65602,-60.61559 2.48401,-8.28172 77.96133,-11.43605 84.83881,-16.67603 6.87748,-5.23999 29.95211,-77.17285 38.59609,-77.36961 8.64398,-0.19675 34.96771,70.6117 42.07649,75.53332 7.10877,4.92163 82.65145,4.63843 85.50971,12.79855 2.85826,8.16011 -56.3501,55.07648 -58.83411,63.35819 -2.48401,8.28172 21.1293,80.03956 14.25182,85.27954 z"
         inkscape:randomized="0"
         inkscape:rounded="0.1"
         inkscape:flatsided="false"
         sodipodi:arg2="1.5480381"
         sodipodi:arg1="0.91971961"
         sodipodi:r2="68.641968"
         sodipodi:r1="132.00378"
         sodipodi:cy="488.36221"
         sodipodi:cx="356"
         sodipodi:sides="5"
         id="path4159"
         style="opacity:1;fill:#fbb516;fill-opacity:1;fill-rule:nonzero;stroke:none;stroke-width:14;stroke-linecap:round;stroke-linejoin:round;stroke-miterlimit:4;stroke-dasharray:none;stroke-opacity:1"
         sodipodi:type="star" />
    </g>
  </g>
</svg>
