<?xml version="1.0" encoding="UTF-8" standalone="no"?>
<!-- Created with Inkscape (http://www.inkscape.org/) -->
<svg xmlns:dc="http://purl.org/dc/elements/1.1/" xmlns:cc="http://creativecommons.org/ns#" xmlns:rdf="http://www.w3.org/1999/02/22-rdf-syntax-ns#" xmlns:svg="http://www.w3.org/2000/svg" xmlns="http://www.w3.org/2000/svg" xmlns:xlink="http://www.w3.org/1999/xlink" xmlns:sodipodi="http://sodipodi.sourceforge.net/DTD/sodipodi-0.dtd" xmlns:inkscape="http://www.inkscape.org/namespaces/inkscape" width="210mm" height="297mm" viewBox="0 0 744.09448819 1052.3622047" id="svg2" version="1.1" inkscape:version="0.91 r13725" inkscape:export-xdpi="4" inkscape:export-ydpi="4">
  <defs id="defs4">
    <linearGradient inkscape:collect="always" id="linearGradient4254">
      <stop style="stop-color:#9397a2;stop-opacity:1" offset="0" id="stop4256"/>
      <stop style="stop-color:#5a6578;stop-opacity:1" offset="1" id="stop4258"/>
    </linearGradient>
    <linearGradient id="linearGradient2224">
      <stop id="stop2226" offset="0" style="stop-color:#7c7c7c;stop-opacity:1;"/>
      <stop id="stop2228" offset="1" style="stop-color:#b8b8b8;stop-opacity:1;"/>
    </linearGradient>
    <linearGradient id="linearGradient15218">
      <stop id="stop15220" offset="0" style="stop-color:#eeeeef;stop-opacity:1;"/>
      <stop id="stop2736" offset="0.59928656" style="stop-color:#d3d7cf;stop-opacity:1;"/>
      <stop id="stop2738" offset="0.82758623" style="stop-color:#ffffff;stop-opacity:1;"/>
      <stop id="stop15222" offset="1" style="stop-color:#d3d7cf;stop-opacity:1;"/>
    </linearGradient>
    <pattern y="0" x="0" height="6" width="6" patternUnits="userSpaceOnUse" id="EMFhbasepattern"/>
    <pattern y="0" x="0" height="6" width="6" patternUnits="userSpaceOnUse" id="EMFhbasepattern-5"/>
    <linearGradient inkscape:collect="always" xlink:href="#linearGradient4254" id="linearGradient4260" x1="380.01031" y1="330.40619" x2="414.6156" y2="457.18103" gradientUnits="userSpaceOnUse" gradientTransform="translate(0.37005758,-0.39466108)"/>
    <linearGradient inkscape:collect="always" xlink:href="#linearGradient4254" id="linearGradient4268" x1="358.43118" y1="465.73074" x2="429.96555" y2="644.62878" gradientUnits="userSpaceOnUse"/>
    <linearGradient inkscape:collect="always" xlink:href="#linearGradient4254" id="linearGradient4260-4" x1="380.01031" y1="330.40619" x2="414.6156" y2="457.18103" gradientUnits="userSpaceOnUse" gradientTransform="translate(0.26955493,1.4215687)"/>
  </defs>
  <sodipodi:namedview id="base" pagecolor="#ffffff" bordercolor="#666666" borderopacity="1.0" inkscape:pageopacity="0.0" inkscape:pageshadow="2" inkscape:zoom="0.25" inkscape:cx="-607.73654" inkscape:cy="481.44434" inkscape:document-units="px" inkscape:current-layer="layer1" showgrid="false" showguides="true" inkscape:guide-bbox="true" inkscape:window-width="1366" inkscape:window-height="721" inkscape:window-x="-4" inkscape:window-y="-4" inkscape:window-maximized="1">
    <sodipodi:guide position="315.53572,730.17859" orientation="0,1" id="guide3338"/>
    <sodipodi:guide position="351.25,330.17858" orientation="0,1" id="guide3340"/>
    <sodipodi:guide position="189.10714,408.8393" orientation="1,0" id="guide3344"/>
    <sodipodi:guide position="589.04521,468.07945" orientation="1,0" id="guide3346"/>
    <inkscape:grid type="xygrid" id="grid3440"/>
    <sodipodi:guide position="589.04521,378.30213" orientation="1,0" id="guide3411"/>
  </sodipodi:namedview>
  <metadata id="metadata7">
    <rdf:RDF>
      <cc:Work rdf:about="">
        <dc:format>image/svg+xml</dc:format>
        <dc:type rdf:resource="http://purl.org/dc/dcmitype/StillImage"/>
        <dc:title>user female</dc:title>
      </cc:Work>
    </rdf:RDF>
  </metadata>
  <g inkscape:label="Ebene 1" inkscape:groupmode="layer" id="layer1">
    <g id="g4174" transform="matrix(1.1173281,0,0,1.1173281,-48.082267,-38.98792)">
      <path inkscape:connector-curvature="0" id="path4215-9" d="m 326.90556,390.28375 c 0,0 -5.79071,28.31013 -5.1473,48.89932 0.64342,20.58919 -0.64341,18.65895 -0.64341,18.65895 0,0 34.10084,-25.09307 72.06215,-23.80625 37.96132,1.28683 70.13192,23.80625 70.13192,23.80625 0,0 1.28682,-37.96131 0.64341,-55.33344 -0.64341,-17.37212 -6.43412,-32.81401 -6.43412,-32.81401 l -41.82178,-29.59696 -47.6125,11.58142 z" style="fill:#abbe24;fill-rule:evenodd;stroke:#ffffff;stroke-width:30;stroke-linecap:butt;stroke-linejoin:miter;stroke-miterlimit:4;stroke-dasharray:none;stroke-opacity:1"/>
      <path sodipodi:nodetypes="cscscscccc" inkscape:connector-curvature="0" id="path4215" d="m 326.77541,390.42101 c 0,0 -5.79071,28.31013 -5.14729,48.89931 0.64341,20.58919 -0.64342,32.15895 -0.64342,32.15895 0,0 35.10084,-29.59307 73.06215,-28.30624 37.96132,1.28682 70.88192,29.30624 70.88192,29.30624 0,0 -0.46318,-52.46131 -1.10659,-69.83343 -0.64341,-17.37213 -6.43412,-32.81402 -6.43412,-32.81402 l -41.82178,-29.59695 -47.6125,11.58141 z" style="fill:#abbe24;fill-rule:evenodd;stroke:none;stroke-width:1px;stroke-linecap:butt;stroke-linejoin:miter;stroke-opacity:1"/>
      <path sodipodi:nodetypes="cccsccccccscsc" inkscape:connector-curvature="0" id="path2176" d="m 354.64258,460.41602 c -0.11745,0.1039 -0.22449,0.21556 -0.3457,0.3164 l -6.54297,3.54492 c -42.67576,25.28071 -72.76172,86.25893 -72.76172,157.46875 0,15.29493 1.39507,30.1142 3.99804,44.21289 3.86098,8.63739 13.56182,14.96807 25.18555,15.79493 l 0,0.0957 172.76172,0 0,-0.008 c 13.04649,-0.18416 24.03463,-7.28341 27.72656,-17.01563 2.4704,-13.75919 3.79102,-28.19351 3.79102,-43.08008 0,-74.54936 -32.9771,-137.88441 -78.85156,-160.78515 -10.95259,6.14942 -23.5778,9.67773 -37.00391,9.67773 -13.81748,10e-6 -26.78697,-3.73654 -37.95703,-10.22265 z" style="fill:url(#linearGradient4268);fill-opacity:1;stroke:none;stroke-width:41.15159225;stroke-linecap:round;stroke-linejoin:round;stroke-opacity:1"/>
      <ellipse ry="65.293182" rx="65.647316" cx="392.87973" cy="397.65451" id="circle2187-6-7" style="fill:url(#linearGradient4260-4);fill-opacity:1;stroke:#ffffff;stroke-width:30;stroke-miterlimit:4;stroke-dasharray:none;stroke-opacity:1"/>
      <ellipse ry="65.293182" rx="65.647316" cx="392.98022" cy="395.83826" id="circle2187-6" style="fill:url(#linearGradient4260);fill-opacity:1;stroke:none;stroke-width:14;stroke-miterlimit:4;stroke-dasharray:none;stroke-opacity:1"/>
      <path inkscape:connector-curvature="0" id="path4213-2" d="m 324.20176,390.15767 c 0,0 26.3799,-1.93024 46.96908,-9.65118 20.58919,-7.72094 34.10084,-32.1706 34.10084,-32.1706 0,0 10.93801,16.0853 21.2326,22.51942 10.29459,6.43412 35.38766,12.86824 35.38766,12.86824 0,0 -10.29459,-64.34121 -66.27144,-61.12415 -55.97685,3.21706 -67.55826,48.25591 -71.41874,67.55827 z" style="fill:#abbe24;fill-rule:evenodd;stroke:#ffffff;stroke-width:30;stroke-linecap:butt;stroke-linejoin:miter;stroke-miterlimit:4;stroke-dasharray:none;stroke-opacity:1"/>
      <path inkscape:connector-curvature="0" id="path4213" d="m 324.84518,391.70783 c 0,0 26.37989,-1.93024 46.96908,-9.65118 20.58918,-7.72094 34.10084,-32.1706 34.10084,-32.1706 0,0 10.938,16.0853 21.23259,22.51942 10.2946,6.43412 35.38767,12.86824 35.38767,12.86824 0,0 -10.2946,-64.34121 -66.27145,-61.12415 -55.97684,3.21706 -67.55826,48.25591 -71.41873,67.55827 z" style="fill:#abbe24;fill-rule:evenodd;stroke:none;stroke-width:1px;stroke-linecap:butt;stroke-linejoin:miter;stroke-opacity:1"/>
    </g>
    <flowRoot xml:space="preserve" id="flowRoot4169" style="font-style:normal;font-weight:normal;font-size:40px;line-height:125%;font-family:sans-serif;letter-spacing:0px;word-spacing:0px;fill:#000000;fill-opacity:1;stroke:none;stroke-width:1px;stroke-linecap:butt;stroke-linejoin:miter;stroke-opacity:1"><flowRegion id="flowRegion4171"><rect id="rect4173" width="56.433445" height="88.78862" x="89.541069" y="427.07962"/></flowRegion><flowPara id="flowPara4175"/></flowRoot>    <rect style="fill:none;fill-rule:evenodd;stroke:none;stroke-width:1px;stroke-linecap:butt;stroke-linejoin:miter;stroke-opacity:1" id="rect3336" width="400" height="400" x="189.14485" y="322.27005" inkscape:export-xdpi="4.9499998" inkscape:export-ydpi="4.9499998"/>
    <path style="color:#000000;font-style:normal;font-variant:normal;font-weight:normal;font-stretch:normal;font-size:medium;line-height:normal;font-family:sans-serif;text-indent:0;text-align:start;text-decoration:none;text-decoration-line:none;text-decoration-style:solid;text-decoration-color:#000000;letter-spacing:normal;word-spacing:normal;text-transform:none;direction:ltr;block-progression:tb;writing-mode:lr-tb;baseline-shift:baseline;text-anchor:start;white-space:normal;clip-rule:nonzero;display:inline;overflow:visible;visibility:visible;opacity:1;isolation:auto;mix-blend-mode:normal;color-interpolation:sRGB;color-interpolation-filters:linearRGB;solid-color:#000000;solid-opacity:1;fill:#abbe24;fill-opacity:1;fill-rule:nonzero;stroke:#ffffff;stroke-width:30;stroke-linecap:square;stroke-linejoin:round;stroke-miterlimit:4;stroke-dasharray:none;stroke-dashoffset:0;stroke-opacity:1;color-rendering:auto;image-rendering:auto;shape-rendering:auto;text-rendering:auto;enable-background:accumulate" d="m 493.08427,484.9774 c -32.21904,0 -58.50782,26.29073 -58.50782,58.50976 l 0,0.002 c 0.008,27.96151 19.88294,51.66092 46.62305,57.21484 l 0,39.6875 -9.65625,0 c -6.4461,0 -11.88477,5.43866 -11.88476,11.88476 0,6.44611 5.43866,11.88672 11.88476,11.88672 l 9.65625,0 0,15.31446 c 0,6.4461 5.43866,11.88476 11.88477,11.88476 6.4461,0 11.88672,-5.43866 11.88672,-11.88476 l 0,-15.31446 9.65624,0 c 6.44611,0 11.88477,-5.44061 11.88477,-11.88672 0,-6.4461 -5.43866,-11.88476 -11.88477,-11.88476 l -9.65624,0 0,-39.7168 c 26.72793,-5.55114 46.59836,-29.23135 46.62304,-57.17968 l 0,-0.008 c 0,-32.21903 -26.29073,-58.50976 -58.50976,-58.50976 z m 0,23.77148 c 19.28037,0 34.74023,15.45791 34.74023,34.73828 0,19.28038 -15.45986,34.73828 -34.74023,34.73828 -19.28038,0 -34.73829,-15.4579 -34.73828,-34.73828 0,-19.28037 15.4579,-34.73828 34.73828,-34.73828 z" id="path4171-4-7" inkscape:connector-curvature="0" sodipodi:nodetypes="cscccssscssscssscccsccsssss"/>
    <path style="color:#000000;font-style:normal;font-variant:normal;font-weight:normal;font-stretch:normal;font-size:medium;line-height:normal;font-family:sans-serif;text-indent:0;text-align:start;text-decoration:none;text-decoration-line:none;text-decoration-style:solid;text-decoration-color:#000000;letter-spacing:normal;word-spacing:normal;text-transform:none;direction:ltr;block-progression:tb;writing-mode:lr-tb;baseline-shift:baseline;text-anchor:start;white-space:normal;clip-rule:nonzero;display:inline;overflow:visible;visibility:visible;opacity:1;isolation:auto;mix-blend-mode:normal;color-interpolation:sRGB;color-interpolation-filters:linearRGB;solid-color:#000000;solid-opacity:1;fill:#abbe24;fill-opacity:1;fill-rule:nonzero;stroke:none;stroke-width:16;stroke-linecap:square;stroke-linejoin:round;stroke-miterlimit:4;stroke-dasharray:none;stroke-dashoffset:0;stroke-opacity:1;color-rendering:auto;image-rendering:auto;shape-rendering:auto;text-rendering:auto;enable-background:accumulate" d="m 494.09646,483.96521 c -32.21904,0 -58.50782,26.29073 -58.50782,58.50976 l 0,0.002 c 0.008,27.96151 19.88294,51.66092 46.62305,57.21484 l 0,39.6875 -9.65625,0 c -6.4461,0 -11.88477,5.43866 -11.88476,11.88476 0,6.44611 5.43866,11.88672 11.88476,11.88672 l 9.65625,0 0,15.31446 c 0,6.4461 5.43866,11.88476 11.88477,11.88476 6.4461,0 11.88672,-5.43866 11.88672,-11.88476 l 0,-15.31446 9.65624,0 c 6.44611,0 11.88477,-5.44061 11.88477,-11.88672 0,-6.4461 -5.43866,-11.88476 -11.88477,-11.88476 l -9.65624,0 0,-39.7168 c 26.72793,-5.55114 46.59836,-29.23135 46.62304,-57.17968 l 0,-0.008 c 0,-32.21903 -26.29073,-58.50976 -58.50976,-58.50976 z m 0,23.77148 c 19.28037,0 34.74023,15.45791 34.74023,34.73828 0,19.28038 -15.45986,34.73828 -34.74023,34.73828 -19.28038,0 -34.73829,-15.4579 -34.73828,-34.73828 0,-19.28037 15.4579,-34.73828 34.73828,-34.73828 z" id="path4171-4" inkscape:connector-curvature="0" sodipodi:nodetypes="cscccssscssscssscccsccsssss"/>
  </g>
</svg>
