<?xml version="1.0" encoding="UTF-8" standalone="no"?>
<!-- Created with Inkscape (http://www.inkscape.org/) -->

<svg
   xmlns:dc="http://purl.org/dc/elements/1.1/"
   xmlns:cc="http://creativecommons.org/ns#"
   xmlns:rdf="http://www.w3.org/1999/02/22-rdf-syntax-ns#"
   xmlns:svg="http://www.w3.org/2000/svg"
   xmlns="http://www.w3.org/2000/svg"
   xmlns:xlink="http://www.w3.org/1999/xlink"
   xmlns:sodipodi="http://sodipodi.sourceforge.net/DTD/sodipodi-0.dtd"
   xmlns:inkscape="http://www.inkscape.org/namespaces/inkscape"
   width="210mm"
   height="297mm"
   viewBox="0 0 744.09448819 1052.3622047"
   id="svg2"
   version="1.1"
   inkscape:version="0.91 r13725"
   inkscape:export-xdpi="7.1999998"
   inkscape:export-ydpi="7.1999998"
   sodipodi:docname="user-group-rights-edit.svg"
   inkscape:export-filename="C:\Users\johannes\Documents\Arbeit\RRZE\github3\bicons\32x32\categories\user-group-rights-edit.png">
  <defs
     id="defs4">
    <linearGradient
       inkscape:collect="always"
       xlink:href="#linearGradient4158"
       id="linearGradient4318"
       gradientUnits="userSpaceOnUse"
       gradientTransform="matrix(0.85598612,0,0,0.85598612,63.896775,-30.223395)"
       x1="276"
       y1="559.36218"
       x2="315"
       y2="478.36221" />
    <linearGradient
       inkscape:collect="always"
       id="linearGradient4158">
      <stop
         style="stop-color:#4e505d;stop-opacity:1;"
         offset="0"
         id="stop4160" />
      <stop
         style="stop-color:#7a859c;stop-opacity:1"
         offset="1"
         id="stop4162" />
    </linearGradient>
    <linearGradient
       inkscape:collect="always"
       xlink:href="#linearGradient4158"
       id="linearGradient4320"
       gradientUnits="userSpaceOnUse"
       gradientTransform="matrix(0.85598612,0,0,0.85598612,63.896775,-30.223395)"
       x1="294"
       y1="690.36218"
       x2="330"
       y2="586.36218" />
    <linearGradient
       inkscape:collect="always"
       xlink:href="#linearGradient4158"
       id="linearGradient4326"
       gradientUnits="userSpaceOnUse"
       gradientTransform="matrix(0.75328464,0,0,0.75328464,220.39546,-24.752485)"
       x1="276"
       y1="559.36218"
       x2="315"
       y2="478.36221" />
    <linearGradient
       inkscape:collect="always"
       xlink:href="#linearGradient4158"
       id="linearGradient4328"
       gradientUnits="userSpaceOnUse"
       gradientTransform="matrix(0.75328464,0,0,0.75328464,220.39546,-24.752485)"
       x1="294"
       y1="690.36218"
       x2="330"
       y2="586.36218" />
    <linearGradient
       gradientTransform="translate(93.064826,0.898235)"
       inkscape:collect="always"
       xlink:href="#linearGradient4158"
       id="linearGradient4172"
       x1="294"
       y1="690.36218"
       x2="330"
       y2="586.36218"
       gradientUnits="userSpaceOnUse" />
    <linearGradient
       gradientTransform="translate(93.064826,0.898235)"
       inkscape:collect="always"
       xlink:href="#linearGradient4158"
       id="linearGradient4164"
       x1="276"
       y1="559.36218"
       x2="315"
       y2="478.36221"
       gradientUnits="userSpaceOnUse" />
  </defs>
  <sodipodi:namedview
     id="base"
     pagecolor="#ffffff"
     bordercolor="#666666"
     borderopacity="1.0"
     inkscape:pageopacity="0.0"
     inkscape:pageshadow="2"
     inkscape:zoom="1"
     inkscape:cx="436.94966"
     inkscape:cy="543.75176"
     inkscape:document-units="px"
     inkscape:current-layer="layer1"
     showgrid="false"
     showguides="true"
     inkscape:guide-bbox="true"
     inkscape:window-width="1366"
     inkscape:window-height="721"
     inkscape:window-x="-4"
     inkscape:window-y="-4"
     inkscape:window-maximized="1"
     inkscape:snap-bbox="true"
     inkscape:bbox-paths="true"
     inkscape:bbox-nodes="true">
    <sodipodi:guide
       position="315.53572,730.17859"
       orientation="0,1"
       id="guide3338" />
    <sodipodi:guide
       position="351.25,330.17858"
       orientation="0,1"
       id="guide3340" />
    <sodipodi:guide
       position="189.10714,408.8393"
       orientation="1,0"
       id="guide3344" />
    <sodipodi:guide
       position="589.04521,468.07945"
       orientation="1,0"
       id="guide3346" />
    <inkscape:grid
       type="xygrid"
       id="grid3440" />
    <sodipodi:guide
       position="589.04521,378.30213"
       orientation="1,0"
       id="guide3411" />
  </sodipodi:namedview>
  <metadata
     id="metadata7">
    <rdf:RDF>
      <cc:Work
         rdf:about="">
        <dc:format>image/svg+xml</dc:format>
        <dc:type
           rdf:resource="http://purl.org/dc/dcmitype/StillImage" />
        <dc:title>user group rights edit</dc:title>
        <dc:date>June 2015</dc:date>
        <dc:creator>
          <cc:Agent>
            <dc:title>Johannes Hechler</dc:title>
          </cc:Agent>
        </dc:creator>
        <dc:rights>
          <cc:Agent>
            <dc:title>Johannes Hechler</dc:title>
          </cc:Agent>
        </dc:rights>
        <dc:publisher>
          <cc:Agent>
            <dc:title>RRZE</dc:title>
          </cc:Agent>
        </dc:publisher>
        <dc:contributor>
          <cc:Agent>
            <dc:title>Ute Weber, Hendrik Eggers, Joanna Barbach</dc:title>
          </cc:Agent>
        </dc:contributor>
        <dc:subject>
          <rdf:Bag>
            <rdf:li>user</rdf:li>
            <rdf:li>group</rdf:li>
            <rdf:li>rights</rdf:li>
            <rdf:li>management</rdf:li>
            <rdf:li>settings</rdf:li>
            <rdf:li>edit</rdf:li>
          </rdf:Bag>
        </dc:subject>
        <cc:license
           rdf:resource="http://creativecommons.org/licenses/by-sa/3.0/" />
      </cc:Work>
      <cc:License
         rdf:about="http://creativecommons.org/licenses/by-sa/3.0/">
        <cc:permits
           rdf:resource="http://creativecommons.org/ns#Reproduction" />
        <cc:permits
           rdf:resource="http://creativecommons.org/ns#Distribution" />
        <cc:requires
           rdf:resource="http://creativecommons.org/ns#Notice" />
        <cc:requires
           rdf:resource="http://creativecommons.org/ns#Attribution" />
        <cc:permits
           rdf:resource="http://creativecommons.org/ns#DerivativeWorks" />
        <cc:requires
           rdf:resource="http://creativecommons.org/ns#ShareAlike" />
      </cc:License>
    </rdf:RDF>
  </metadata>
  <g
     inkscape:label="Ebene 1"
     inkscape:groupmode="layer"
     id="layer1">
    <g
       id="g4276">
      <flowRoot
         style="font-style:normal;font-weight:normal;font-size:40px;line-height:125%;font-family:sans-serif;letter-spacing:0px;word-spacing:0px;fill:#252525;fill-opacity:1;stroke:none;stroke-width:1px;stroke-linecap:butt;stroke-linejoin:miter;stroke-opacity:1"
         id="flowRoot4169"
         xml:space="preserve"
         transform="translate(-0.099645,-0.086415)"><flowRegion
           id="flowRegion4171"><rect
             y="427.07962"
             x="89.541069"
             height="88.78862"
             width="56.433445"
             id="rect4173" /></flowRegion><flowPara
           id="flowPara4175" /></flowRoot>      <rect
         inkscape:export-ydpi="4.9499998"
         inkscape:export-xdpi="4.9499998"
         y="322.18362"
         x="189.04521"
         height="400"
         width="400"
         id="rect3336"
         style="fill:none;fill-rule:evenodd;stroke:none;stroke-width:1px;stroke-linecap:butt;stroke-linejoin:miter;stroke-opacity:1" />
      <path
         inkscape:connector-curvature="0"
         style="fill:url(#linearGradient4318);fill-opacity:1;stroke:none;stroke-width:41.15159225;stroke-linecap:round;stroke-linejoin:round;stroke-opacity:1"
         d="m 316.00141,364.01338 c -22.35549,3e-5 -40.47872,18.15896 -40.47879,40.55736 5e-5,22.39842 18.12329,40.55565 40.47879,40.55569 22.35548,-3e-5 40.47705,-18.15727 40.47711,-40.55569 -7e-5,-22.39841 -18.12163,-40.55733 -40.47711,-40.55736 z"
         id="path4314" />
      <path
         id="path4316"
         d="m 291.81637,454.19092 0,0.004 c -0.0749,0.0659 -0.14343,0.13883 -0.22071,0.20313 l -4.17187,2.25781 c -27.21009,16.11899 -46.14649,47.5752 -46.14649,92.97851 0,9.75216 0.88919,19.20202 2.54883,28.19141 2.46178,5.50716 8.6473,9.54311 16.0586,10.07031 l 0,0.0586 48.87304,0 c 9.31268,-13.1275 20.72534,-23.94064 33.68946,-32.09571 -12.37951,-11.92674 -20.15231,-28.61519 -20.15235,-47.01562 6e-5,-20.26622 9.39356,-38.49359 24.0293,-50.52344 -2.18709,-1.36733 -4.42151,-2.63739 -6.71289,-3.78125 -6.98338,3.92085 -15.03521,6.16992 -23.59571,6.16992 -8.81003,0 -17.07718,-2.38205 -24.19921,-6.51758 z m 80.36523,29.55274 c -8.37824,5.11911 -13.88669,14.35532 -13.88672,25.09961 3e-5,16.45725 12.91884,29.37888 29.28906,29.3789 0.71021,0 1.41099,-0.0322 2.10743,-0.0801 -1.65231,-21.72843 -7.97783,-40.0062 -17.50977,-54.39844 z m -11.73633,103.44336 c -0.38446,0.24948 -0.76155,0.51164 -1.14258,0.76758 l 3.22657,0 c -0.69691,-0.25164 -1.39648,-0.49708 -2.08399,-0.76758 z"
         style="fill:url(#linearGradient4320);fill-opacity:1;stroke:none;stroke-width:41.15159225;stroke-linecap:round;stroke-linejoin:round;stroke-opacity:1"
         inkscape:connector-curvature="0" />
      <path
         id="path4322"
         d="m 442.25249,322.18363 c -19.67327,3e-5 -35.62207,15.98024 -35.62211,35.69127 2e-5,19.71105 15.94884,35.68977 35.62211,35.68981 19.67327,-3e-5 35.62061,-15.97876 35.62066,-35.68981 -7e-5,-19.71104 -15.94739,-35.69124 -35.62066,-35.69127 z"
         style="fill:url(#linearGradient4326);fill-opacity:1;stroke:none;stroke-width:41.15159225;stroke-linecap:round;stroke-linejoin:round;stroke-opacity:1"
         inkscape:connector-curvature="0" />
      <path
         id="path4324"
         d="M 420.96875 401.54297 L 420.96875 401.54492 C 420.90285 401.60292 420.84145 401.66608 420.77344 401.72266 L 417.10352 403.71289 C 402.73291 412.2259 390.99002 425.60539 383.89258 443.57617 C 385.11571 443.50667 386.34452 443.46289 387.58398 443.46289 C 423.44798 443.46293 452.87098 472.96832 452.87109 508.84375 C 452.87109 512.3864 452.57961 515.86436 452.02539 519.25781 L 479.74219 519.25781 C 485.97772 505.04828 492.17401 490.85936 498.30469 476.70898 A 18.0018 18.0018 0 0 1 502.01172 471.25 A 18.0018 18.0018 0 0 1 503.42773 465.87109 C 503.42773 465.87109 504.13841 464.25136 505.2832 461.78906 C 499.62861 432.65327 483.56973 412.10346 463.0293 401.84961 C 456.88378 405.30003 449.79904 407.2793 442.26562 407.2793 C 434.51263 407.2793 427.23627 405.18231 420.96875 401.54297 z M 387.58398 479.46289 C 383.66467 479.46289 379.94655 480.21159 376.55273 481.56445 C 376.51573 482.87468 376.49414 484.1954 376.49414 485.5332 C 376.49414 494.1153 377.27775 502.43097 378.73828 510.3418 C 380.90469 515.18822 386.34706 518.74114 392.86914 519.20508 L 392.86914 519.25781 L 415.03125 519.25781 C 416.21965 516.03336 416.87109 512.52798 416.87109 508.84375 C 416.87104 492.3856 403.95327 479.46291 387.58398 479.46289 z "
         style="fill:url(#linearGradient4328);fill-opacity:1;stroke:none;stroke-width:41.15159225;stroke-linecap:round;stroke-linejoin:round;stroke-opacity:1" />
      <path
         id="path4143"
         d="M 359.33008 566.8125 L 359.33008 566.81641 C 359.24258 566.89341 359.16255 566.97763 359.07227 567.05273 L 354.19727 569.69336 C 322.40926 588.52426 300.28906 625.2704 300.28906 678.3125 C 300.28906 689.7054 301.32871 700.74429 303.26758 711.24609 C 306.14353 717.67979 313.36915 722.39582 322.02734 723.01172 L 322.02734 723.08203 L 429.47461 723.08203 C 424.59225 702.27246 422.09937 682.5907 419.07617 663.62695 A 18.0018 18.0018 0 0 1 423.17188 649.13477 A 18.0018 18.0018 0 0 1 424.57031 644.05078 C 432.07223 627.08703 439.61114 610.07615 447.14453 593.07617 C 438.09442 581.92451 427.21355 573.23292 415.16602 567.21875 C 407.00773 571.79925 397.6023 574.42578 387.60156 574.42578 C 377.3093 574.42578 367.65035 571.6438 359.33008 566.8125 z M 468.25391 634.30664 C 466.57183 638.10457 464.88731 641.91793 463.20703 645.71289 C 466.15976 647.74868 469.09057 649.52417 472.0293 651.10352 C 471.07028 645.25429 469.80602 639.65212 468.25391 634.30664 z "
         style="fill:url(#linearGradient4172);fill-opacity:1;stroke:none;stroke-width:41.15159225;stroke-linecap:round;stroke-linejoin:round;stroke-opacity:1" />
      <path
         id="path2176-88"
         d="m 387.58436,461.46268 c -26.11665,4e-5 -47.28898,21.21408 -47.28907,47.38086 5e-5,26.1668 21.1724,47.37887 47.28907,47.37891 26.11666,-3e-5 47.28705,-21.21211 47.2871,-47.37891 -8e-5,-26.16679 -21.17047,-47.38083 -47.2871,-47.38086 z"
         style="fill:url(#linearGradient4164);fill-opacity:1;stroke:none;stroke-width:41.15159225;stroke-linecap:round;stroke-linejoin:round;stroke-opacity:1"
         inkscape:connector-curvature="0" />
      <path
         style="fill:#99b000;fill-opacity:1;fill-rule:evenodd;stroke:none;stroke-width:1px;stroke-linecap:butt;stroke-linejoin:miter;stroke-opacity:1"
         d="m 568.24468,449.40526 c -11.54318,-5.31789 -27.29226,-6.73471 -32.46179,-3.6821 -5.16953,3.05263 -15.8787,27.39661 -15.8787,27.39661 26.3816,0.34491 41.85472,7.59968 60.37124,26.84895 3.95646,-12.11179 9.45152,-25.32348 8.7002,-30.63863 -0.75135,-5.31516 -9.18775,-14.60692 -20.73094,-19.92483 z m -21.87347,41.27539 c -10.99311,-4.97401 -26.03389,-6.44399 -31.55044,-6.81544 -24.10335,55.63363 -49.1513,111.7548 -73.78844,167.46569 19.15523,16.44494 38.50809,24.97316 60.78374,26.86696 l 73.73984,-167.33493 c -11.19793,-9.7152 -18.1916,-15.20826 -29.1847,-20.18228 z M 436.85194,660.79388 c 3.24851,20.37704 5.79883,40.59966 10.9148,61.38975 17.71056,-10.38038 33.88297,-22.40471 49.90756,-34.58703 -24.03979,0.71238 -43.66647,-9.90053 -60.82236,-26.80272 z"
         id="path4234-6-1-3"
         inkscape:connector-curvature="0" />
    </g>
  </g>
</svg>
