<?xml version="1.0" encoding="UTF-8" standalone="no"?>
<!-- Created with Inkscape (http://www.inkscape.org/) -->

<svg
   xmlns:dc="http://purl.org/dc/elements/1.1/"
   xmlns:cc="http://creativecommons.org/ns#"
   xmlns:rdf="http://www.w3.org/1999/02/22-rdf-syntax-ns#"
   xmlns:svg="http://www.w3.org/2000/svg"
   xmlns="http://www.w3.org/2000/svg"
   xmlns:xlink="http://www.w3.org/1999/xlink"
   xmlns:sodipodi="http://sodipodi.sourceforge.net/DTD/sodipodi-0.dtd"
   xmlns:inkscape="http://www.inkscape.org/namespaces/inkscape"
   width="210mm"
   height="297mm"
   viewBox="0 0 744.09448819 1052.3622047"
   id="svg2"
   version="1.1"
   inkscape:version="0.91 r13725"
   inkscape:export-xdpi="7.1993213"
   inkscape:export-ydpi="7.1993213"
   sodipodi:docname="user-admin.svg"
   inkscape:export-filename="C:\Users\johannes\Documents\Arbeit\RRZE\github3\bicons\32x32\categories\user-admin.png">
  <defs
     id="defs4">
    <linearGradient
       inkscape:collect="always"
       xlink:href="#linearGradient4254"
       id="linearGradient4268"
       x1="358.43118"
       y1="465.73074"
       x2="429.96555"
       y2="644.62878"
       gradientUnits="userSpaceOnUse"
       gradientTransform="matrix(1.1386133,0,0,1.1386133,-55.46897,-53.587553)" />
    <linearGradient
       inkscape:collect="always"
       id="linearGradient4254">
      <stop
         style="stop-color:#7a8597;stop-opacity:1"
         offset="0"
         id="stop4256" />
      <stop
         style="stop-color:#4e505d;stop-opacity:1"
         offset="1"
         id="stop4258" />
    </linearGradient>
    <linearGradient
       inkscape:collect="always"
       xlink:href="#linearGradient4254"
       id="linearGradient4260"
       x1="380.01031"
       y1="330.40619"
       x2="414.6156"
       y2="457.18103"
       gradientUnits="userSpaceOnUse"
       gradientTransform="matrix(1.1011151,0,0,1.1092129,-42.7871,-44.30716)" />
  </defs>
  <sodipodi:namedview
     id="base"
     pagecolor="#ffffff"
     bordercolor="#666666"
     borderopacity="1.0"
     inkscape:pageopacity="0.0"
     inkscape:pageshadow="2"
     inkscape:zoom="0.70710678"
     inkscape:cx="360.06591"
     inkscape:cy="423.67202"
     inkscape:document-units="px"
     inkscape:current-layer="layer1"
     showgrid="false"
     showguides="true"
     inkscape:guide-bbox="true"
     inkscape:window-width="1366"
     inkscape:window-height="721"
     inkscape:window-x="-4"
     inkscape:window-y="-4"
     inkscape:window-maximized="1"
     inkscape:snap-bbox="true"
     inkscape:bbox-paths="true"
     inkscape:bbox-nodes="true"
     inkscape:snap-nodes="false">
    <sodipodi:guide
       position="315.53572,730.17859"
       orientation="0,1"
       id="guide3338" />
    <sodipodi:guide
       position="351.25,330.17858"
       orientation="0,1"
       id="guide3340" />
    <sodipodi:guide
       position="189.10714,408.8393"
       orientation="1,0"
       id="guide3344" />
    <sodipodi:guide
       position="589.04521,468.07945"
       orientation="1,0"
       id="guide3346" />
    <inkscape:grid
       type="xygrid"
       id="grid3440" />
    <sodipodi:guide
       position="589.04521,378.30213"
       orientation="1,0"
       id="guide3411" />
  </sodipodi:namedview>
  <metadata
     id="metadata7">
    <rdf:RDF>
      <cc:Work
         rdf:about="">
        <dc:format>image/svg+xml</dc:format>
        <dc:type
           rdf:resource="http://purl.org/dc/dcmitype/StillImage" />
        <dc:title>user admin</dc:title>
        <dc:date>June 2015</dc:date>
        <dc:creator>
          <cc:Agent>
            <dc:title>Johannes Hechler</dc:title>
          </cc:Agent>
        </dc:creator>
        <dc:rights>
          <cc:Agent>
            <dc:title>Johannes Hechler</dc:title>
          </cc:Agent>
        </dc:rights>
        <dc:publisher>
          <cc:Agent>
            <dc:title>RRZE</dc:title>
          </cc:Agent>
        </dc:publisher>
        <dc:contributor>
          <cc:Agent>
            <dc:title>Ute Weber, Hendrik Eggers, Joanna Barbach</dc:title>
          </cc:Agent>
        </dc:contributor>
        <dc:subject>
          <rdf:Bag>
            <rdf:li>user</rdf:li>
            <rdf:li>admin</rdf:li>
            <rdf:li>administrator</rdf:li>
            <rdf:li>nerd</rdf:li>
            <rdf:li>technician</rdf:li>
            <rdf:li>bofh</rdf:li>
            <rdf:li>identity management</rdf:li>
            <rdf:li>role</rdf:li>
          </rdf:Bag>
        </dc:subject>
        <cc:license
           rdf:resource="http://creativecommons.org/licenses/by-sa/3.0/" />
      </cc:Work>
      <cc:License
         rdf:about="http://creativecommons.org/licenses/by-sa/3.0/">
        <cc:permits
           rdf:resource="http://creativecommons.org/ns#Reproduction" />
        <cc:permits
           rdf:resource="http://creativecommons.org/ns#Distribution" />
        <cc:requires
           rdf:resource="http://creativecommons.org/ns#Notice" />
        <cc:requires
           rdf:resource="http://creativecommons.org/ns#Attribution" />
        <cc:permits
           rdf:resource="http://creativecommons.org/ns#DerivativeWorks" />
        <cc:requires
           rdf:resource="http://creativecommons.org/ns#ShareAlike" />
      </cc:License>
    </rdf:RDF>
  </metadata>
  <g
     inkscape:label="Ebene 1"
     inkscape:groupmode="layer"
     id="layer1">
    <flowRoot
       transform="translate(-0.03771,-0.08636)"
       xml:space="preserve"
       id="flowRoot4169-1"
       style="font-style:normal;font-weight:normal;font-size:40px;line-height:125%;font-family:sans-serif;letter-spacing:0px;word-spacing:0px;fill:#252525;fill-opacity:1;stroke:none;stroke-width:1px;stroke-linecap:butt;stroke-linejoin:miter;stroke-opacity:1"><flowRegion
         id="flowRegion4171-9"><rect
           id="rect4173-4"
           width="56.433445"
           height="88.78862"
           x="89.541069"
           y="427.07962" /></flowRegion><flowPara
         id="flowPara4175-1" /></flowRoot>    <flowRoot
       xml:space="preserve"
       id="flowRoot4169"
       style="font-style:normal;font-weight:normal;font-size:40px;line-height:125%;font-family:sans-serif;letter-spacing:0px;word-spacing:0px;fill:#252525;fill-opacity:1;stroke:none;stroke-width:1px;stroke-linecap:butt;stroke-linejoin:miter;stroke-opacity:1"><flowRegion
         id="flowRegion4171"><rect
           id="rect4173"
           width="56.433445"
           height="88.78862"
           x="89.541069"
           y="427.07962" /></flowRegion><flowPara
         id="flowPara4175" /></flowRoot>    <rect
       style="fill:none;fill-rule:evenodd;stroke:none;stroke-width:1px;stroke-linecap:butt;stroke-linejoin:miter;stroke-opacity:1"
       id="rect3336-0"
       width="400"
       height="400"
       x="189.10713"
       y="322.18362"
       inkscape:export-xdpi="4.9499998"
       inkscape:export-ydpi="4.9499998" />
    <path
       inkscape:connector-curvature="0"
       style="fill:url(#linearGradient4268);fill-opacity:1;stroke:none;stroke-width:41.15159225;stroke-linecap:round;stroke-linejoin:round;stroke-opacity:1"
       d="m 346.33203,474.64648 0,0.002 c -0.13373,0.11831 -0.25652,0.24455 -0.39453,0.35937 l -7.44922,4.03711 c -48.59119,28.78496 -82.40625,94.12658 -82.40625,175.20703 0,17.41498 1.58896,34.2888 4.55274,50.3418 4.39616,9.8346 15.4428,17.04287 28.67773,17.98437 l 0,0.10938 87.83789,0 c -15.71464,-15.81307 -15.69837,-41.95387 0.0508,-57.74414 l 42.24414,-42.35352 c -13.22652,-2.35779 -25.53505,-9.12104 -34.81445,-18.50976 a 18.0018,18.0018 0 0 1 -0.0176,-0.0176 c -13.9607,-14.16703 -20.27807,-34.22004 -17.04492,-53.86133 a 18.0018,18.0018 0 0 1 29.5918,-10.64258 l 18.83789,16.42774 7.21093,-0.62695 0.59961,-8.72657 -15.19531,-18.49219 a 18.0018,18.0018 0 0 1 11.52344,-29.26953 c 2.38022,-0.31822 4.75704,-0.49189 7.11719,-0.52929 16.57655,-0.26273 32.67249,6.26706 44.47461,18.18554 a 18.0018,18.0018 0 0 1 0.0273,0.0293 c 12.98129,13.16649 21.14982,32.15432 18.65234,51.5918 l 3.43164,3.4707 10.82422,-10.85352 c -16.00234,-39.77702 -41.98328,-70.0241 -72.98047,-85.49804 -12.47076,7.00181 -26.84567,11.01953 -42.13281,11.01953 -15.73277,1e-5 -30.50037,-4.25546 -43.21875,-11.64063 z m 108.51758,107.61133 a 18.0018,18.0018 0 0 1 -4.33399,4.36133 18.0018,18.0018 0 0 1 5.17383,3.625 l 66.1836,66.9707 c 0.0102,-0.98813 0.0332,-1.97117 0.0332,-2.96289 0,-1.01545 -0.0107,-2.02652 -0.0215,-3.03711 l -63.94532,-64.70703 a 18.0018,18.0018 0 0 1 -3.08984,-4.25 z m -14.49609,70.34571 -37.66407,37.76171 c -2.12308,2.12863 -2.12309,4.8245 0,6.95313 l 5.41407,5.42773 c 2.12284,2.12842 4.67983,2.12846 6.80273,0 l 37.67187,-37.77148 -12.2246,-12.37109 z m 50.74414,24.68554 a 18.0018,18.0018 0 0 1 -0.41016,0.45508 l -44.82617,44.94336 40.1582,0 0,-0.01 c 14.60121,-0.20611 26.9327,-8.02251 31.3418,-18.8125 l -26.26367,-26.57617 z"
       id="path2176" />
    <ellipse
       style="fill:url(#linearGradient4260);fill-opacity:1;stroke:none;stroke-width:14;stroke-miterlimit:4;stroke-dasharray:none;stroke-opacity:1"
       id="circle2187-6"
       cy="395.19952"
       cx="389.52191"
       rx="72.285255"
       ry="72.424042" />
    <rect
       style="fill:none;fill-rule:evenodd;stroke:none;stroke-width:1px;stroke-linecap:butt;stroke-linejoin:miter;stroke-opacity:1"
       id="rect3336"
       width="400"
       height="400"
       x="189.14485"
       y="322.27005"
       inkscape:export-xdpi="4.9499998"
       inkscape:export-ydpi="4.9499998" />
    <path
       inkscape:connector-curvature="0"
       style="opacity:1;fill:#99b000;fill-opacity:1;stroke:none;stroke-width:2;stroke-linecap:butt;stroke-linejoin:round;stroke-miterlimit:4;stroke-dasharray:none;stroke-opacity:1"
       d="m 572.90039,515.86914 -37.67383,26.98047 0.98242,11.77734 -30.24023,30.32032 14.11328,14.2832 30.30664,-30.38672 11.7461,0.98633 26.91015,-37.77149 -16.14453,-16.18945 z m -145.36133,0.4707 c -1.66868,0.0265 -3.3431,0.14918 -5.01758,0.37305 l 19.73438,24.01758 -2.14258,31.22265 -30.17773,2.63086 -24.60547,-21.45898 c -2.3038,13.99552 2.20288,28.25577 12.10351,38.30273 12.4227,12.56905 29.21381,18.249 45.45313,11.46875 l 113.57226,114.92188 c 6.84543,6.9268 19.69927,5.07282 26.48829,-1.79688 6.78913,-6.8699 8.63449,-19.88958 1.78906,-26.8164 L 470.74219,573.85547 c 6.00107,-16.14866 0.23727,-32.44835 -11.80469,-44.66211 -8.36866,-8.45117 -19.71769,-13.03865 -31.39844,-12.85352 z m 12.87305,110.7168 -50.4668,50.59766 c -8.94478,8.96813 -8.94484,23.40684 0,32.375 l 5.41407,5.42773 c 8.94474,8.9682 23.34623,8.9682 32.29101,0 l 50.29297,-50.42383 -37.53125,-37.97656 z"
       id="rect4172" />
  </g>
</svg>
