<?xml version="1.0" encoding="UTF-8" standalone="no"?>
<!-- Created with Inkscape (http://www.inkscape.org/) -->

<svg
   xmlns:dc="http://purl.org/dc/elements/1.1/"
   xmlns:cc="http://creativecommons.org/ns#"
   xmlns:rdf="http://www.w3.org/1999/02/22-rdf-syntax-ns#"
   xmlns:svg="http://www.w3.org/2000/svg"
   xmlns="http://www.w3.org/2000/svg"
   xmlns:xlink="http://www.w3.org/1999/xlink"
   xmlns:sodipodi="http://sodipodi.sourceforge.net/DTD/sodipodi-0.dtd"
   xmlns:inkscape="http://www.inkscape.org/namespaces/inkscape"
   width="210mm"
   height="297mm"
   viewBox="0 0 744.09448819 1052.3622047"
   id="svg2"
   version="1.1"
   inkscape:version="0.91 r13725"
   inkscape:export-xdpi="7.1968846"
   inkscape:export-ydpi="7.1968846"
   sodipodi:docname="user-function.svg"
   inkscape:export-filename="C:\Users\johannes\Documents\Arbeit\RRZE\github3\bicons\32x32\categories\user-function.png">
  <defs
     id="defs4">
    <linearGradient
       inkscape:collect="always"
       xlink:href="#linearGradient4254"
       id="linearGradient4268"
       x1="358.43118"
       y1="465.73074"
       x2="429.96555"
       y2="644.62878"
       gradientUnits="userSpaceOnUse"
       gradientTransform="matrix(1.1386133,0,0,1.1386133,-55.530909,-53.587546)" />
    <linearGradient
       inkscape:collect="always"
       id="linearGradient4254">
      <stop
         style="stop-color:#7a8597;stop-opacity:1"
         offset="0"
         id="stop4256" />
      <stop
         style="stop-color:#4e505d;stop-opacity:1"
         offset="1"
         id="stop4258" />
    </linearGradient>
    <linearGradient
       inkscape:collect="always"
       xlink:href="#linearGradient4254"
       id="linearGradient4260"
       x1="380.01031"
       y1="330.40619"
       x2="414.6156"
       y2="457.18103"
       gradientUnits="userSpaceOnUse"
       gradientTransform="matrix(1.1011151,0,0,1.1092129,-42.849039,-44.307156)" />
  </defs>
  <sodipodi:namedview
     id="base"
     pagecolor="#ffffff"
     bordercolor="#666666"
     borderopacity="1.0"
     inkscape:pageopacity="0.0"
     inkscape:pageshadow="2"
     inkscape:zoom="1"
     inkscape:cx="286.72926"
     inkscape:cy="475.55246"
     inkscape:document-units="px"
     inkscape:current-layer="layer1"
     showgrid="false"
     showguides="true"
     inkscape:guide-bbox="true"
     inkscape:window-width="1366"
     inkscape:window-height="721"
     inkscape:window-x="-4"
     inkscape:window-y="-4"
     inkscape:window-maximized="1"
     inkscape:snap-bbox="true"
     inkscape:bbox-paths="true"
     inkscape:bbox-nodes="true"
     inkscape:snap-nodes="false">
    <sodipodi:guide
       position="315.53572,730.17859"
       orientation="0,1"
       id="guide3338" />
    <sodipodi:guide
       position="351.25,330.17858"
       orientation="0,1"
       id="guide3340" />
    <sodipodi:guide
       position="189.10714,408.8393"
       orientation="1,0"
       id="guide3344" />
    <sodipodi:guide
       position="589.04521,468.07945"
       orientation="1,0"
       id="guide3346" />
    <inkscape:grid
       type="xygrid"
       id="grid3440" />
    <sodipodi:guide
       position="589.04521,378.30213"
       orientation="1,0"
       id="guide3411" />
  </sodipodi:namedview>
  <metadata
     id="metadata7">
    <rdf:RDF>
      <cc:Work
         rdf:about="">
        <dc:format>image/svg+xml</dc:format>
        <dc:type
           rdf:resource="http://purl.org/dc/dcmitype/StillImage" />
        <dc:title>user function</dc:title>
        <dc:date>June 2015</dc:date>
        <dc:creator>
          <cc:Agent>
            <dc:title>Johannes Hechler</dc:title>
          </cc:Agent>
        </dc:creator>
        <dc:rights>
          <cc:Agent>
            <dc:title>Johannes Hechler</dc:title>
          </cc:Agent>
        </dc:rights>
        <dc:publisher>
          <cc:Agent>
            <dc:title>RRZE</dc:title>
          </cc:Agent>
        </dc:publisher>
        <dc:contributor>
          <cc:Agent>
            <dc:title>Ute Weber, Hendrik Eggers, Joanna Barbach</dc:title>
          </cc:Agent>
        </dc:contributor>
        <dc:subject>
          <rdf:Bag>
            <rdf:li>user</rdf:li>
            <rdf:li>function</rdf:li>
            <rdf:li>term</rdf:li>
            <rdf:li>graph</rdf:li>
            <rdf:li>math</rdf:li>
          </rdf:Bag>
        </dc:subject>
        <cc:license
           rdf:resource="http://creativecommons.org/licenses/by-sa/3.0/" />
      </cc:Work>
      <cc:License
         rdf:about="http://creativecommons.org/licenses/by-sa/3.0/">
        <cc:permits
           rdf:resource="http://creativecommons.org/ns#Reproduction" />
        <cc:permits
           rdf:resource="http://creativecommons.org/ns#Distribution" />
        <cc:requires
           rdf:resource="http://creativecommons.org/ns#Notice" />
        <cc:requires
           rdf:resource="http://creativecommons.org/ns#Attribution" />
        <cc:permits
           rdf:resource="http://creativecommons.org/ns#DerivativeWorks" />
        <cc:requires
           rdf:resource="http://creativecommons.org/ns#ShareAlike" />
      </cc:License>
    </rdf:RDF>
  </metadata>
  <g
     inkscape:label="Ebene 1"
     inkscape:groupmode="layer"
     id="layer1">
    <flowRoot
       transform="translate(-0.099649,-0.086356)"
       xml:space="preserve"
       id="flowRoot4169-9"
       style="font-style:normal;font-weight:normal;font-size:40px;line-height:125%;font-family:sans-serif;letter-spacing:0px;word-spacing:0px;fill:#252525;fill-opacity:1;stroke:none;stroke-width:1px;stroke-linecap:butt;stroke-linejoin:miter;stroke-opacity:1"><flowRegion
         id="flowRegion4171-0"><rect
           id="rect4173-4"
           width="56.433445"
           height="88.78862"
           x="89.541069"
           y="427.07962" /></flowRegion><flowPara
         id="flowPara4175-5" /></flowRoot>    <rect
       style="fill:none;fill-rule:evenodd;stroke:none;stroke-width:1px;stroke-linecap:butt;stroke-linejoin:miter;stroke-opacity:1"
       id="rect3336-8"
       width="400"
       height="400"
       x="189.04521"
       y="322.18362"
       inkscape:export-xdpi="4.9499998"
       inkscape:export-ydpi="4.9499998" />
    <path
       style="fill:url(#linearGradient4268);fill-opacity:1;stroke:none;stroke-width:41.15159225;stroke-linecap:round;stroke-linejoin:round;stroke-opacity:1"
       d="M 346.26953 474.64648 L 346.26953 474.64844 C 346.1358 474.76675 346.01497 474.89299 345.87695 475.00781 L 338.42578 479.04492 C 289.83459 507.82988 256.02148 573.1715 256.02148 654.25195 C 256.02148 671.66693 257.60849 688.54075 260.57227 704.59375 C 264.96843 714.42835 276.01507 721.63662 289.25 722.57812 L 289.25 722.6875 L 345.65234 722.6875 C 343.87616 717.78588 343.56676 712.39011 344.76172 707.19727 C 346.43752 699.91499 350.7897 693.14857 357.30859 688.96094 C 362.78399 685.44368 368.68107 684.35788 373.88867 684.45508 C 374.38813 682.98378 374.85947 681.89497 375.31836 680.31836 C 377.82312 671.71274 380.54483 660.83831 383.25977 649.68555 C 383.41662 649.04121 383.71602 647.4132 383.88672 646.58594 C 380.62097 644.60087 378.31503 641.99899 376.875 639.86523 C 374.20518 635.90926 372.72266 632.36814 372.72266 626.54688 C 372.72266 620.72559 374.20518 617.18447 376.875 613.22852 C 379.47999 609.36861 384.64719 603.79293 393.9668 603.65625 C 396.17195 597.92368 398.24378 593.81869 399.56055 590.78711 C 403.34411 582.07551 410.12838 576.92365 415.83789 573.94922 C 421.52933 570.9842 427.05033 569.56239 432.25 568.99805 C 433.59119 568.85247 435.32919 568.6321 437.77344 568.6582 A 18.0018 18.0018 0 0 1 440.17969 568.86328 C 442.174 569.04994 444.32747 569.38615 446.54688 570.16602 C 453.0994 572.46851 457.12973 576.83872 459.57617 579.71484 C 461.20939 581.63491 463.74117 584.58689 465.70117 589.02148 C 466.18903 588.98311 466.6617 588.86142 467.1543 588.85742 A 18.0018 18.0018 0 0 1 467.16211 588.85742 A 18.0018 18.0018 0 0 1 468.72852 588.9375 C 479.06446 589.33455 482.29464 594.14938 485.58984 598.58789 C 486.65335 600.02039 487.67812 601.59477 488.50977 603.59766 L 495.96484 603.59766 A 18.652552 17.373751 0 0 1 511.56836 611.45508 L 515.62891 617.23047 L 518.75391 613.14648 C 508.71519 547.76476 475.10716 496.97603 431.62109 475.26758 C 419.15034 482.26939 404.77542 486.28711 389.48828 486.28711 C 373.75551 486.28712 358.98791 482.03165 346.26953 474.64648 z M 442.47852 583.85156 C 442.52172 583.89386 442.50457 583.89004 442.54688 583.93164 C 442.55772 583.9429 442.58999 583.97026 442.62109 583.99609 C 442.56404 583.93888 442.53821 583.91006 442.47852 583.85156 z M 472.87305 644.37891 C 470.38416 650.67319 469.66726 656.63818 470.13867 662.75195 C 470.4338 666.57946 471.28093 670.22276 472.60938 673.84766 L 483.86719 658.92773 L 472.87305 644.37891 z M 426.25586 680.08594 C 424.73491 684.64336 422.9795 689.18441 420.78516 693.60352 C 417.52588 700.16738 413.15197 707.70385 408.625 714.73438 C 406.83008 717.52193 405.12688 720.16104 403.35547 722.6875 L 449.93945 722.6875 C 448.7148 721.09231 447.53479 719.49421 446.43164 717.90234 C 439.06053 707.94187 430.64566 695.61968 426.25586 680.08594 z M 367.44727 699.0293 L 366.83398 699.49219 C 366.83403 699.49214 366.2236 700.24338 365.625 700.97852 A 18.0018 18.0018 0 0 1 367.22461 699.3457 C 367.25222 699.31097 367.40807 699.0792 367.44727 699.0293 z M 515.2832 700.29297 L 508.61133 709.62695 A 18.652552 17.373751 0 0 1 493.08789 717.37109 L 488.90234 717.37109 C 488.09403 719.46013 487.10189 721.18442 485.97852 722.67773 C 500.78085 722.46181 513.24995 714.42629 517.48828 703.40039 L 515.2832 700.29297 z M 365.44336 701.20117 C 364.79374 701.99896 364.14252 702.79892 364.14258 702.79883 C 364.14283 702.79843 362.95765 704.96978 362.74023 705.49023 C 362.30541 706.53114 362.22827 706.86336 362.13867 707.15625 C 362.06817 707.38591 362.11912 707.23784 362.07812 707.37891 C 362.07713 707.37578 362.07536 707.53587 362.06836 707.57617 A 18.0018 18.0018 0 0 1 365.44336 701.20117 z "
       id="path2176" />
    <ellipse
       style="fill:url(#linearGradient4260);fill-opacity:1;stroke:none;stroke-width:14;stroke-miterlimit:4;stroke-dasharray:none;stroke-opacity:1"
       id="circle2187-6"
       cy="395.19952"
       cx="389.45996"
       rx="72.285255"
       ry="72.424042" />
    <flowRoot
       xml:space="preserve"
       id="flowRoot4169"
       style="font-style:normal;font-weight:normal;font-size:40px;line-height:125%;font-family:sans-serif;letter-spacing:0px;word-spacing:0px;fill:#252525;fill-opacity:1;stroke:none;stroke-width:1px;stroke-linecap:butt;stroke-linejoin:miter;stroke-opacity:1"><flowRegion
         id="flowRegion4171"><rect
           id="rect4173"
           width="56.433445"
           height="88.78862"
           x="89.541069"
           y="427.07962" /></flowRegion><flowPara
         id="flowPara4175" /></flowRoot>    <rect
       style="fill:none;fill-rule:evenodd;stroke:none;stroke-width:1px;stroke-linecap:butt;stroke-linejoin:miter;stroke-opacity:1"
       id="rect3336"
       width="400"
       height="400"
       x="189.14485"
       y="322.27005"
       inkscape:export-xdpi="4.9499998"
       inkscape:export-ydpi="4.9499998" />
    <g
       transform="matrix(2.4006292,0,0,2.4006292,4344.8132,1352.4645)"
       style="font-style:normal;font-weight:normal;font-size:36px;line-height:125%;font-family:'Times New Roman';-inkscape-font-specification:'Times New Roman';letter-spacing:0px;word-spacing:0px;fill:#252525;fill-opacity:1;stroke:#252525;stroke-width:0.99379402;stroke-miterlimit:4;stroke-dasharray:none;stroke-opacity:1"
       id="flowRoot3843" />
    <path
       style="fill:#ffffff;fill-rule:evenodd;stroke:none;stroke-width:1px;stroke-linecap:butt;stroke-linejoin:miter;stroke-opacity:1"
       d="m 430,618.3622 159.04521,1 0,102.82143 -206.04521,0 z"
       id="path4214"
       inkscape:connector-curvature="0" />
    <g
       transform="matrix(0.62436513,0,0,0.62436513,232.54513,328.61098)"
       id="g4245"
       style="fill:#000000">
      <path
         id="path3022"
         d="m 328.39263,413.29509 c -1.66479,-0.0178 -3.43533,0.15828 -5.43043,0.3748 -4.93216,0.5353 -10.72622,2.05104 -16.07555,4.83784 -5.34934,2.7868 -10.35329,6.90795 -12.9486,12.88362 -4.46598,10.28278 -9.29652,17.77589 -14.3442,37.88833 l -20.40676,0 c -3.21394,-0.0474 -5.84498,4.60911 -5.84498,7.90267 0,3.29355 2.63104,7.95013 5.84498,7.90266 l 17.48427,0 c -2.38753,9.7648 -4.81233,25.8763 -7.27057,35.97466 -4.3741,17.96852 -8.78962,35.66346 -13.0499,50.30051 -4.26028,14.63705 -8.5465,26.37141 -11.86627,31.5815 -3.66595,5.7534 -6.494,9.49548 -8.49173,11.65349 -0.36761,0.39711 -0.5344,0.45471 -0.84598,0.73039 0.005,-0.24662 -0.0426,-0.35872 -0.0244,-0.60353 -0.0116,0.15921 0.22288,-1.00963 0.51021,-2.30263 0.28757,-1.29405 0.61143,-2.90263 0.57213,-4.74175 -0.0393,-1.83912 -0.50909,-4.09491 -2.10278,-5.92189 -1.59368,-1.82698 -4.03651,-2.82922 -6.79224,-3.05417 -4.08802,-0.3337 -8.30322,0.38759 -11.9038,2.70051 -3.60055,2.31292 -6.39512,6.25969 -7.58195,11.41709 -1.22639,5.32948 0.36272,10.19833 3.37267,13.12387 3.00996,2.92554 6.85342,4.27572 10.48757,5.26647 2.97637,0.81134 5.98732,0.39431 9.16138,-0.28062 3.17405,-0.67494 6.11888,-1.41928 8.57612,-3.73651 5.10033,-4.80943 11.64505,-13.95545 18.35465,-24.37566 6.70961,-10.42021 13.37595,-21.96326 17.89132,-31.05677 12.71982,-25.61596 16.67125,-59.84342 20.64124,-86.67496 l 22.51516,0 c 3.21393,0.0474 5.84496,-4.60911 5.84496,-7.90266 0,-3.29356 -2.63103,-7.95013 -5.84496,-7.90267 l -20.7144,0 c 2.11201,-13.34893 4.55583,-16.18484 8.48422,-27.96853 l 0,-0.002 c 0.80358,-2.4108 2.2961,-5.65785 3.95417,-8.18417 1.65807,-2.52632 3.70062,-4.02692 3.95792,-4.08631 1.21134,-0.27963 0.9112,-0.27375 1.54941,0.35174 0.63822,0.62548 1.70154,2.36491 3.00502,4.75903 1.08936,2.00085 1.68685,3.99524 2.69176,6.27363 1.00491,2.27839 2.61574,4.86191 5.39854,6.75607 6.13956,4.17865 14.50232,1.37869 18.94552,-5.57399 2.22919,-3.48783 2.87859,-7.56133 1.76325,-11.07111 -1.11534,-3.50978 -3.3868,-6.37286 -6.1995,-9.67954 -2.86995,-3.37401 -5.30929,-5.66625 -8.46546,-6.77529 -1.57809,-0.55452 -3.13725,-0.76636 -4.80203,-0.7842 z m 47.57388,32.35224 c -1.31368,0.009 -2.5665,0.56858 -3.46646,1.54919 -0.0175,0.0194 -0.0295,0.0383 -0.0469,0.0577 l -0.002,-0.002 c -0.0189,0.0217 -0.0336,0.0437 -0.0525,0.0653 -33.49131,37.19184 -41.62054,69.83143 -36.71304,97.90245 4.18382,23.93156 17.32544,43.9892 30.44975,61.68877 2.17021,3.13851 4.4136,6.19012 6.75849,9.09714 0.0229,0.0282 0.0428,0.0601 0.0657,0.0884 0.0302,0.0373 0.058,0.078 0.0882,0.11532 4.01867,5.05523 14.26847,-3.89224 10.30909,-8.99634 -2.25734,-2.96405 -4.50404,-6.07442 -6.76223,-9.13559 -12.52706,-18.24238 -23.0036,-37.37506 -24.80164,-60.69401 -2.1051,-27.30119 7.57877,-54.26707 31.34431,-81.44438 2.74122,-3.18921 -3.02344,-10.32075 -7.17082,-10.29202 z m 147.76379,0.62083 c -4.15973,-0.023 -8.32214,8.37495 -5.5517,11.55445 48.10022,52.21215 39.91089,103.00335 10.9875,141.25261 -2.20563,3.01799 -4.41197,6.12922 -6.58592,8.98375 -3.84944,5.08997 5.747,13.58394 9.77689,8.64279 0.0305,-0.0378 0.0576,-0.0794 0.0882,-0.11724 l 0.002,0.002 c 0.0957,-0.12557 0.19864,-0.27382 0.29449,-0.39979 2.17332,-2.71246 4.24511,-5.53568 6.22014,-8.45133 13.4342,-18.25305 27.30922,-39.87512 31.25073,-64.88516 4.58315,-29.08148 -5.20879,-61.97449 -43.39462,-95.4076 -0.86185,-0.75225 -1.95543,-1.1682 -3.08756,-1.17439 z"
         style="color:#000000;font-style:normal;font-variant:normal;font-weight:normal;font-stretch:normal;font-size:medium;line-height:normal;font-family:sans-serif;text-indent:0;text-align:start;text-decoration:none;text-decoration-line:none;text-decoration-style:solid;text-decoration-color:#000000;letter-spacing:normal;word-spacing:normal;text-transform:none;direction:ltr;block-progression:tb;writing-mode:lr-tb;baseline-shift:baseline;text-anchor:start;white-space:normal;clip-rule:nonzero;display:inline;overflow:visible;visibility:visible;opacity:1;isolation:auto;mix-blend-mode:normal;color-interpolation:sRGB;color-interpolation-filters:linearRGB;solid-color:#000000;solid-opacity:1;fill:#000000;fill-opacity:1;fill-rule:nonzero;stroke:none;stroke-width:7.82747841;stroke-linecap:butt;stroke-linejoin:miter;stroke-miterlimit:4;stroke-dasharray:none;stroke-dashoffset:0;stroke-opacity:1;color-rendering:auto;image-rendering:auto;shape-rendering:auto;text-rendering:auto;enable-background:accumulate"
         inkscape:connector-curvature="0"
         sodipodi:nodetypes="csssccsccssssccssssssscscssccsccccsccssccssscccccccsccccccsccccccccccccsccc" />
      <text
         transform="scale(1.0361493,0.96511189)"
         sodipodi:linespacing="125%"
         id="text4290"
         y="616.32758"
         x="373.96014"
         style="font-style:normal;font-weight:normal;font-size:252.91673279px;line-height:125%;font-family:sans-serif;letter-spacing:0px;word-spacing:0px;fill:#000000;fill-opacity:1;stroke:none;stroke-width:1px;stroke-linecap:butt;stroke-linejoin:miter;stroke-opacity:1"
         xml:space="preserve"><tspan
           style="font-style:normal;font-variant:normal;font-weight:normal;font-stretch:normal;font-family:arial;-inkscape-font-specification:arial;fill:#000000"
           y="616.32758"
           x="373.96014"
           id="tspan4292"
           sodipodi:role="line">x</tspan></text>
    </g>
  </g>
</svg>
