<?xml version="1.0" encoding="UTF-8" standalone="no"?>
<!-- Created with Inkscape (http://www.inkscape.org/) -->

<svg
   xmlns:dc="http://purl.org/dc/elements/1.1/"
   xmlns:cc="http://creativecommons.org/ns#"
   xmlns:rdf="http://www.w3.org/1999/02/22-rdf-syntax-ns#"
   xmlns:svg="http://www.w3.org/2000/svg"
   xmlns="http://www.w3.org/2000/svg"
   xmlns:xlink="http://www.w3.org/1999/xlink"
   xmlns:sodipodi="http://sodipodi.sourceforge.net/DTD/sodipodi-0.dtd"
   xmlns:inkscape="http://www.inkscape.org/namespaces/inkscape"
   width="210mm"
   height="297mm"
   viewBox="0 0 744.09448819 1052.3622047"
   id="svg2"
   version="1.1"
   inkscape:version="0.91 r13725"
   inkscape:export-xdpi="7.1999946"
   inkscape:export-ydpi="7.1999946"
   sodipodi:docname="user-business.svg"
   inkscape:export-filename="C:\Users\johannes\Documents\Arbeit\RRZE\github3\bicons\32x32\categories\user-business.png">
  <defs
     id="defs4">
    <linearGradient
       inkscape:collect="always"
       xlink:href="#linearGradient4254"
       id="linearGradient4268"
       x1="358.43118"
       y1="465.73074"
       x2="429.96555"
       y2="644.62878"
       gradientUnits="userSpaceOnUse"
       gradientTransform="matrix(1.1386133,0,0,1.1386133,-55.530911,-53.587553)" />
    <linearGradient
       inkscape:collect="always"
       id="linearGradient4254">
      <stop
         style="stop-color:#7a8597;stop-opacity:1"
         offset="0"
         id="stop4256" />
      <stop
         style="stop-color:#4e505d;stop-opacity:1"
         offset="1"
         id="stop4258" />
    </linearGradient>
    <linearGradient
       inkscape:collect="always"
       xlink:href="#linearGradient4254"
       id="linearGradient4260"
       x1="380.01031"
       y1="330.40619"
       x2="414.6156"
       y2="457.18103"
       gradientUnits="userSpaceOnUse"
       gradientTransform="matrix(1.1011151,0,0,1.1092129,-42.849041,-44.307163)" />
  </defs>
  <sodipodi:namedview
     id="base"
     pagecolor="#ffffff"
     bordercolor="#666666"
     borderopacity="1.0"
     inkscape:pageopacity="0.0"
     inkscape:pageshadow="2"
     inkscape:zoom="0.50000001"
     inkscape:cx="348.16431"
     inkscape:cy="479.11991"
     inkscape:document-units="px"
     inkscape:current-layer="layer1"
     showgrid="false"
     showguides="true"
     inkscape:guide-bbox="true"
     inkscape:window-width="1366"
     inkscape:window-height="721"
     inkscape:window-x="-4"
     inkscape:window-y="-4"
     inkscape:window-maximized="1"
     inkscape:snap-bbox="true"
     inkscape:bbox-paths="true"
     inkscape:bbox-nodes="true">
    <sodipodi:guide
       position="315.53572,730.17859"
       orientation="0,1"
       id="guide3338" />
    <sodipodi:guide
       position="351.25,330.17858"
       orientation="0,1"
       id="guide3340" />
    <sodipodi:guide
       position="189.10714,408.8393"
       orientation="1,0"
       id="guide3344" />
    <sodipodi:guide
       position="589.04521,468.07945"
       orientation="1,0"
       id="guide3346" />
    <inkscape:grid
       type="xygrid"
       id="grid3440" />
    <sodipodi:guide
       position="589.04521,378.30213"
       orientation="1,0"
       id="guide3411" />
  </sodipodi:namedview>
  <metadata
     id="metadata7">
    <rdf:RDF>
      <cc:Work
         rdf:about="">
        <dc:format>image/svg+xml</dc:format>
        <dc:type
           rdf:resource="http://purl.org/dc/dcmitype/StillImage" />
        <dc:title>user business</dc:title>
        <dc:date>June 2015</dc:date>
        <dc:creator>
          <cc:Agent>
            <dc:title>Johannes Hechler</dc:title>
          </cc:Agent>
        </dc:creator>
        <dc:rights>
          <cc:Agent>
            <dc:title>Johannes Hechler</dc:title>
          </cc:Agent>
        </dc:rights>
        <dc:publisher>
          <cc:Agent>
            <dc:title>RRZE</dc:title>
          </cc:Agent>
        </dc:publisher>
        <dc:contributor>
          <cc:Agent>
            <dc:title>Ute Weber, Hendrik Eggers, Joanna Barbach</dc:title>
          </cc:Agent>
        </dc:contributor>
        <dc:subject>
          <rdf:Bag>
            <rdf:li>user</rdf:li>
            <rdf:li>other</rdf:li>
            <rdf:li>guest</rdf:li>
            <rdf:li>misc</rdf:li>
            <rdf:li>template</rdf:li>
            <rdf:li>identity management</rdf:li>
            <rdf:li>role</rdf:li>
            <rdf:li>male</rdf:li>
            <rdf:li>business</rdf:li>
          </rdf:Bag>
        </dc:subject>
        <cc:license
           rdf:resource="http://creativecommons.org/licenses/by-sa/3.0/" />
      </cc:Work>
      <cc:License
         rdf:about="http://creativecommons.org/licenses/by-sa/3.0/">
        <cc:permits
           rdf:resource="http://creativecommons.org/ns#Reproduction" />
        <cc:permits
           rdf:resource="http://creativecommons.org/ns#Distribution" />
        <cc:requires
           rdf:resource="http://creativecommons.org/ns#Notice" />
        <cc:requires
           rdf:resource="http://creativecommons.org/ns#Attribution" />
        <cc:permits
           rdf:resource="http://creativecommons.org/ns#DerivativeWorks" />
        <cc:requires
           rdf:resource="http://creativecommons.org/ns#ShareAlike" />
      </cc:License>
    </rdf:RDF>
  </metadata>
  <g
     inkscape:label="Ebene 1"
     inkscape:groupmode="layer"
     id="layer1">
    <g
       id="g4228">
      <flowRoot
         style="font-style:normal;font-weight:normal;font-size:40px;line-height:125%;font-family:sans-serif;letter-spacing:0px;word-spacing:0px;fill:#252525;fill-opacity:1;stroke:none;stroke-width:1px;stroke-linecap:butt;stroke-linejoin:miter;stroke-opacity:1"
         id="flowRoot4169"
         xml:space="preserve"
         transform="translate(-0.099651,-0.0863631)"><flowRegion
           id="flowRegion4171"><rect
             y="427.07962"
             x="89.541069"
             height="88.78862"
             width="56.433445"
             id="rect4173" /></flowRegion><flowPara
           id="flowPara4175" /></flowRoot>      <rect
         inkscape:export-ydpi="4.9499998"
         inkscape:export-xdpi="4.9499998"
         y="322.18362"
         x="189.04521"
         height="400"
         width="400"
         id="rect3336"
         style="fill:none;fill-rule:evenodd;stroke:none;stroke-width:1px;stroke-linecap:butt;stroke-linejoin:miter;stroke-opacity:1" />
      <path
         sodipodi:nodetypes="ccccsccccsssccsc"
         inkscape:connector-curvature="0"
         id="path2176"
         d="m 346.26953,474.64648 0,0.002 c -0.13373,0.11831 -0.25457,0.24455 -0.39258,0.35937 l -7.45117,4.03711 c -48.59119,28.78496 -82.4043,94.12658 -82.4043,175.20703 0,17.41498 1.58701,34.2888 4.55079,50.3418 4.39616,9.8346 15.44282,17.04287 28.67773,17.98437 l 0,0.10938 66.56445,0 C 355.28628,720.76907 355,718.7636 355,716.70703 l 0,-178.86719 c 0,-12.69512 10.78144,-23.47851 23.47656,-23.47851 l 99.71485,0 c -13.35957,-17.06475 -29.17336,-30.40911 -46.57032,-39.09375 -12.47076,7.00181 -26.84567,11.01953 -42.13281,11.01953 -15.73277,1e-5 -30.50037,-4.25546 -43.21875,-11.64063 z"
         style="fill:url(#linearGradient4268);fill-opacity:1;stroke:none;stroke-width:41.15159225;stroke-linecap:round;stroke-linejoin:round;stroke-opacity:1" />
      <ellipse
         ry="72.424042"
         rx="72.285255"
         cx="389.45996"
         cy="395.19952"
         id="circle2187-6"
         style="fill:url(#linearGradient4260);fill-opacity:1;stroke:none;stroke-width:14;stroke-miterlimit:4;stroke-dasharray:none;stroke-opacity:1" />
      <g
         transform="matrix(1.3333703,0,0,1.4198838,-409.47216,-303.23623)"
         id="g4210">
        <path
           inkscape:connector-curvature="0"
           id="path4212"
           d="m 594.52344,588.87891 c -3.03447,0 -5.47852,2.44209 -5.47852,5.47656 l 0,122.35156 c 0,6.6e-4 0,10e-4 0,0.002 0,6.6e-4 0,10e-4 0,0.002 1.3e-4,0.1883 0.0108,0.37334 0.0293,0.55664 1.9e-4,0.002 -2e-4,0.004 0,0.006 0.0186,0.18258 0.0461,0.36233 0.082,0.53906 0.0726,0.35712 0.18034,0.70149 0.31836,1.0293 7.9e-4,0.002 0.001,0.004 0.002,0.006 0.0685,0.16195 0.14536,0.3192 0.22852,0.47265 0.0843,0.15581 0.17489,0.30698 0.27344,0.45313 8.1e-4,10e-4 0.001,0.003 0.002,0.004 0.19589,0.29001 0.41952,0.55815 0.66601,0.80469 0.2472,0.24724 0.51771,0.47164 0.8086,0.66797 0.002,0.001 0.002,0.003 0.004,0.004 0.14428,0.0971 0.29555,0.18821 0.44922,0.27148 7.9e-4,4.3e-4 10e-4,0.002 0.002,0.002 0.46469,0.2514 0.97153,0.43608 1.50586,0.54493 0.12493,0.0254 0.25293,0.0417 0.38086,0.0586 0.0551,0.007 0.10848,0.0198 0.16406,0.0254 10e-4,1.3e-4 0.003,-1.3e-4 0.004,0 0.0179,0.002 0.0367,3.3e-4 0.0547,0.002 0.16714,0.0151 0.33658,0.0275 0.50781,0.0274 l 148.86524,-0.10352 c 3.03447,-0.002 5.47669,-2.446 5.47461,-5.48047 -0.002,-3.03447 -2.44795,-5.47474 -5.48242,-5.47265 L 600,711.22656 600,594.35547 c 0,-3.03447 -2.44209,-5.47656 -5.47656,-5.47656 z"
           style="color:#000000;clip-rule:nonzero;display:inline;overflow:visible;visibility:visible;opacity:1;isolation:auto;mix-blend-mode:normal;color-interpolation:sRGB;color-interpolation-filters:linearRGB;solid-color:#000000;solid-opacity:1;fill:#99b000;fill-opacity:1;fill-rule:nonzero;stroke:none;stroke-width:36;stroke-linecap:round;stroke-linejoin:round;stroke-miterlimit:4;stroke-dasharray:none;stroke-dashoffset:0;stroke-opacity:1;color-rendering:auto;image-rendering:auto;shape-rendering:auto;text-rendering:auto;enable-background:accumulate" />
        <path
           sodipodi:nodetypes="cccc"
           inkscape:connector-curvature="0"
           id="path4214"
           d="m 611.2938,699.16237 48.43681,-55.86143 19.79899,21.56676 49.49747,-67.88225"
           style="fill:none;fill-rule:evenodd;stroke:#99b000;stroke-width:6.54094791;stroke-linecap:round;stroke-linejoin:miter;stroke-miterlimit:4;stroke-dasharray:none;stroke-opacity:1" />
      </g>
    </g>
  </g>
</svg>
