<?xml version="1.0" encoding="UTF-8" standalone="no"?>
<!-- Created with Inkscape (http://www.inkscape.org/) -->

<svg
   xmlns:dc="http://purl.org/dc/elements/1.1/"
   xmlns:cc="http://creativecommons.org/ns#"
   xmlns:rdf="http://www.w3.org/1999/02/22-rdf-syntax-ns#"
   xmlns:svg="http://www.w3.org/2000/svg"
   xmlns="http://www.w3.org/2000/svg"
   xmlns:xlink="http://www.w3.org/1999/xlink"
   xmlns:sodipodi="http://sodipodi.sourceforge.net/DTD/sodipodi-0.dtd"
   xmlns:inkscape="http://www.inkscape.org/namespaces/inkscape"
   width="210mm"
   height="297mm"
   viewBox="0 0 744.09448819 1052.3622047"
   id="svg2"
   version="1.1"
   inkscape:version="0.91 r13725"
   inkscape:export-xdpi="7.1999998"
   inkscape:export-ydpi="7.1999998"
   sodipodi:docname="user-manager.svg"
   inkscape:export-filename="C:\Users\johannes\Documents\Arbeit\RRZE\github3\bicons\32x32\categories\user-manager.png">
  <defs
     id="defs4">
    <linearGradient
       inkscape:collect="always"
       id="linearGradient4217">
      <stop
         style="stop-color:#99b000;stop-opacity:1;"
         offset="0"
         id="stop4219" />
      <stop
         style="stop-color:#a9bc24;stop-opacity:1"
         offset="1"
         id="stop4221" />
    </linearGradient>
    <linearGradient
       inkscape:collect="always"
       id="linearGradient4254">
      <stop
         style="stop-color:#7a8597;stop-opacity:1"
         offset="0"
         id="stop4256" />
      <stop
         style="stop-color:#4e505d;stop-opacity:1"
         offset="1"
         id="stop4258" />
    </linearGradient>
    <linearGradient
       inkscape:collect="always"
       xlink:href="#linearGradient4254"
       id="linearGradient4260"
       x1="380.01031"
       y1="330.40619"
       x2="414.6156"
       y2="457.18103"
       gradientUnits="userSpaceOnUse"
       gradientTransform="matrix(1.1386133,0,0,1.1386133,-56.080986,-53.950565)" />
    <linearGradient
       inkscape:collect="always"
       xlink:href="#linearGradient4254"
       id="linearGradient4268"
       x1="358.43118"
       y1="465.73074"
       x2="429.96555"
       y2="644.62878"
       gradientUnits="userSpaceOnUse"
       gradientTransform="matrix(1.1386133,0,0,1.1386133,-56.502338,-53.501199)" />
    <linearGradient
       inkscape:collect="always"
       xlink:href="#linearGradient4217"
       id="linearGradient4223"
       x1="244.35135"
       y1="476.63928"
       x2="241.33804"
       y2="477.16104"
       gradientUnits="userSpaceOnUse" />
  </defs>
  <sodipodi:namedview
     id="base"
     pagecolor="#ffffff"
     bordercolor="#666666"
     borderopacity="1.0"
     inkscape:pageopacity="0.0"
     inkscape:pageshadow="2"
     inkscape:zoom="0.7071068"
     inkscape:cx="231.22361"
     inkscape:cy="390.67923"
     inkscape:document-units="px"
     inkscape:current-layer="layer1"
     showgrid="false"
     showguides="true"
     inkscape:guide-bbox="true"
     inkscape:window-width="1366"
     inkscape:window-height="721"
     inkscape:window-x="-4"
     inkscape:window-y="-4"
     inkscape:window-maximized="1">
    <sodipodi:guide
       position="315.53572,730.17859"
       orientation="0,1"
       id="guide3338" />
    <sodipodi:guide
       position="351.25,330.17858"
       orientation="0,1"
       id="guide3340" />
    <sodipodi:guide
       position="189.10714,408.8393"
       orientation="1,0"
       id="guide3344" />
    <sodipodi:guide
       position="589.04521,468.07945"
       orientation="1,0"
       id="guide3346" />
    <inkscape:grid
       type="xygrid"
       id="grid3440" />
    <sodipodi:guide
       position="589.04521,378.30213"
       orientation="1,0"
       id="guide3411" />
  </sodipodi:namedview>
  <metadata
     id="metadata7">
    <rdf:RDF>
      <cc:Work
         rdf:about="">
        <dc:format>image/svg+xml</dc:format>
        <dc:type
           rdf:resource="http://purl.org/dc/dcmitype/StillImage" />
        <dc:title>user manager</dc:title>
        <dc:date>June 2015</dc:date>
        <dc:creator>
          <cc:Agent>
            <dc:title>Johannes Hechler</dc:title>
          </cc:Agent>
        </dc:creator>
        <dc:rights>
          <cc:Agent>
            <dc:title>Johannes Hechler</dc:title>
          </cc:Agent>
        </dc:rights>
        <dc:publisher>
          <cc:Agent>
            <dc:title>RRZE</dc:title>
          </cc:Agent>
        </dc:publisher>
        <dc:contributor>
          <cc:Agent>
            <dc:title>Ute Weber, Hendrik Eggers, Joanna Barbach</dc:title>
          </cc:Agent>
        </dc:contributor>
        <dc:subject>
          <rdf:Bag>
            <rdf:li>user</rdf:li>
            <rdf:li>master</rdf:li>
            <rdf:li>degree</rdf:li>
            <rdf:li>graduate</rdf:li>
          </rdf:Bag>
        </dc:subject>
        <cc:license
           rdf:resource="http://creativecommons.org/licenses/by-sa/3.0/" />
      </cc:Work>
      <cc:License
         rdf:about="http://creativecommons.org/licenses/by-sa/3.0/">
        <cc:permits
           rdf:resource="http://creativecommons.org/ns#Reproduction" />
        <cc:permits
           rdf:resource="http://creativecommons.org/ns#Distribution" />
        <cc:requires
           rdf:resource="http://creativecommons.org/ns#Notice" />
        <cc:requires
           rdf:resource="http://creativecommons.org/ns#Attribution" />
        <cc:permits
           rdf:resource="http://creativecommons.org/ns#DerivativeWorks" />
        <cc:requires
           rdf:resource="http://creativecommons.org/ns#ShareAlike" />
      </cc:License>
    </rdf:RDF>
  </metadata>
  <g
     inkscape:label="Ebene 1"
     inkscape:groupmode="layer"
     id="layer1">
    <g
       id="g4164">
      <flowRoot
         style="font-style:normal;font-weight:normal;font-size:40px;line-height:125%;font-family:sans-serif;letter-spacing:0px;word-spacing:0px;fill:#252525;fill-opacity:1;stroke:none;stroke-width:1px;stroke-linecap:butt;stroke-linejoin:miter;stroke-opacity:1"
         id="flowRoot4169"
         xml:space="preserve"><flowRegion
           id="flowRegion4171"><rect
             y="427.07962"
             x="89.541069"
             height="88.78862"
             width="56.433445"
             id="rect4173" /></flowRegion><flowPara
           id="flowPara4175" /></flowRoot>      <rect
         inkscape:export-ydpi="4.9499998"
         inkscape:export-xdpi="4.9499998"
         y="322.27005"
         x="189.14485"
         height="400"
         width="400"
         id="rect3336"
         style="fill:none;fill-rule:evenodd;stroke:none;stroke-width:1px;stroke-linecap:butt;stroke-linejoin:miter;stroke-opacity:1" />
      <g
         style="fill:url(#linearGradient4223);fill-opacity:1"
         transform="matrix(7.4538214,0,0,7.4538214,-1411.0265,-3003.177)"
         id="g4170" />
      <path
         id="path2176"
         d="M 452.81641 484.25977 A 17.50175 17.50175 0 0 1 451.35547 487.07227 C 451.35547 487.07227 447.17377 493.54232 442.36719 500.72852 C 437.56061 507.91471 433.32986 514.61073 428.56641 520.02734 A 17.50175 17.50175 0 0 1 426.20117 522.23047 C 426.32285 523.35734 426.44158 524.41503 426.57422 525.875 C 426.96304 530.15477 427.42476 535.99417 427.94141 542.96094 C 428.97469 556.89447 430.22141 575.27348 431.42578 593.62109 C 433.83453 630.31633 436.07617 666.86133 436.07617 666.86133 A 17.50175 17.50175 0 0 1 432.42188 678.67773 C 427.48833 685.02155 421.73131 689.64619 415.72656 694.49414 C 409.72181 699.34209 403.65739 703.84217 400.05859 706.59766 A 17.50175 17.50175 0 0 1 379.08008 706.82227 C 369.8224 700.04346 356.07886 688.24081 347.87305 679.28125 A 17.50175 17.50175 0 0 1 343.31055 666.39258 C 343.31055 666.39258 345.54109 629.97785 347.85742 593.42578 C 349.01559 575.14975 350.19404 556.84151 351.12891 543.00195 C 351.59634 536.08217 352.00247 530.28777 352.31836 526.11719 C 352.46622 524.16497 352.59015 522.64977 352.70312 521.39062 A 17.50175 17.50175 0 0 1 348.73242 517.20312 C 345.64017 512.57962 327.68164 487.625 327.68164 487.625 A 17.50175 17.50175 0 0 1 325.89062 484.51172 C 284.61045 517.34319 256.60742 581.12259 256.60742 654.42773 C 256.60742 671.84274 258.19638 688.71463 261.16016 704.76758 C 265.55632 714.60223 276.60101 721.81048 289.83594 722.75195 L 289.83594 722.86133 L 486.54492 722.86133 L 486.54492 722.85352 C 501.39983 722.64383 513.91155 714.55976 518.11523 703.47852 C 520.92806 687.81213 522.43164 671.37778 522.43164 654.42773 C 522.43164 580.9299 494.27671 517.01288 452.81641 484.25977 z M 389.23438 531.40234 A 17.50175 17.50175 0 0 1 386.93164 532.85352 C 386.66864 536.48025 386.4005 540.1841 386.05078 545.36133 C 385.12241 559.10469 383.94373 577.38704 382.78711 595.63867 C 380.7324 628.06233 379.17075 653.56228 378.75195 660.38477 C 382.25194 663.70088 385.37718 666.55184 389.7832 670.31641 C 391.19551 669.21675 392.34801 668.38574 393.74023 667.26172 C 396.25996 665.22741 398.67842 663.08322 400.64844 661.26562 C 400.24531 654.71947 398.64784 628.63447 396.5 595.91406 C 395.29889 577.61614 394.05588 559.28661 393.03711 545.54883 C 392.65412 540.38433 392.3469 536.72407 392.04492 533.13867 C 392.00792 533.12037 391.99032 533.11801 391.95312 533.09961 A 17.50175 17.50175 0 0 1 389.23438 531.40234 z M 400.25195 536.46094 C 400.74614 536.70365 400.92842 536.71185 401.05078 536.75195 C 400.91186 536.7002 400.50568 536.55254 400.25195 536.46094 z "
         style="fill:url(#linearGradient4268);fill-opacity:1;stroke:none;stroke-width:41.15159225;stroke-linecap:round;stroke-linejoin:round;stroke-opacity:1" />
      <path
         sodipodi:nodetypes="ccccscccccsccccccsc"
         id="path4166"
         d="m 347.02378,474.39606 c -4.85478,2.2286 -5.15491,2.98441 -5.15491,2.98441 0,0 17.36611,24.04823 21.40905,30.0932 2.11583,-3.24997 5.74392,-6.0524 9.90505,-8.28609 -0.34113,1.31927 -0.54263,2.85989 -0.54263,4.69011 0,7.00861 2.80604,11.11862 6.09781,13.53438 -3.20059,1.56991 -8.09296,3.0435 -8.36244,3.44031 -0.67812,0.99823 -9.59819,146.60979 -9.59819,146.60979 6.35516,6.93891 20.96724,19.6212 28.6418,25.24079 7.61303,-5.82905 23.49495,-17.44774 29.18889,-24.76932 0,0 -8.96078,-146.08303 -10.28314,-147.08126 -0.52506,-0.39637 -5.44057,-1.86803 -8.60708,-3.43586 3.3301,-2.42958 6.19027,-6.49902 6.34021,-13.27196 0.0364,-1.64748 -0.10657,-3.06388 -0.38473,-4.29427 3.73239,2.40327 7.06962,5.33917 9.75161,8.61967 4.73972,-5.38962 21.23558,-30.90046 21.23558,-30.90046 0,0 -1.23146,-1.78649 -4.44103,-2.47292 0,0 -28.7989,11.12816 -41.7284,11.12816 -12.9295,0 -43.46745,-11.82868 -43.46745,-11.82868 z"
         style="fill:#99b000;fill-opacity:1;fill-rule:evenodd;stroke:none;stroke-width:1px;stroke-linecap:butt;stroke-linejoin:miter;stroke-opacity:1"
         inkscape:connector-curvature="0" />
      <ellipse
         ry="74.343689"
         rx="74.74691"
         cx="390.95016"
         cy="397.20551"
         id="circle2187-6"
         style="fill:url(#linearGradient4260);fill-opacity:1;stroke:none;stroke-width:14;stroke-miterlimit:4;stroke-dasharray:none;stroke-opacity:1" />
    </g>
  </g>
</svg>
