<?xml version="1.0" encoding="UTF-8" standalone="no"?>
<!-- Created with Inkscape (http://www.inkscape.org/) -->

<svg
   xmlns:dc="http://purl.org/dc/elements/1.1/"
   xmlns:cc="http://creativecommons.org/ns#"
   xmlns:rdf="http://www.w3.org/1999/02/22-rdf-syntax-ns#"
   xmlns:svg="http://www.w3.org/2000/svg"
   xmlns="http://www.w3.org/2000/svg"
   xmlns:xlink="http://www.w3.org/1999/xlink"
   xmlns:sodipodi="http://sodipodi.sourceforge.net/DTD/sodipodi-0.dtd"
   xmlns:inkscape="http://www.inkscape.org/namespaces/inkscape"
   width="210mm"
   height="297mm"
   viewBox="0 0 744.09448819 1052.3622047"
   id="svg2"
   version="1.1"
   inkscape:version="0.91 r13725"
   inkscape:export-xdpi="7.1999998"
   inkscape:export-ydpi="7.1999998"
   sodipodi:docname="user-group-rights-edit.svg"
   inkscape:export-filename="C:\Users\johannes\Documents\Arbeit\RRZE\github3\bicons\32x32\categories\user-group-rights-edit.png">
  <defs
     id="defs4">
    <linearGradient
       inkscape:collect="always"
       xlink:href="#linearGradient4158"
       id="linearGradient4318"
       gradientUnits="userSpaceOnUse"
       gradientTransform="matrix(0.85598612,0,0,0.85598612,63.896775,-30.223398)"
       x1="276"
       y1="559.36218"
       x2="315"
       y2="478.36221" />
    <linearGradient
       inkscape:collect="always"
       id="linearGradient4158">
      <stop
         style="stop-color:#4e505d;stop-opacity:1;"
         offset="0"
         id="stop4160" />
      <stop
         style="stop-color:#7a859c;stop-opacity:1"
         offset="1"
         id="stop4162" />
    </linearGradient>
    <linearGradient
       inkscape:collect="always"
       xlink:href="#linearGradient4158"
       id="linearGradient4320"
       gradientUnits="userSpaceOnUse"
       gradientTransform="matrix(0.85598612,0,0,0.85598612,63.896775,-30.223398)"
       x1="294"
       y1="690.36218"
       x2="330"
       y2="586.36218" />
    <linearGradient
       gradientUnits="userSpaceOnUse"
       y2="598.02519"
       x2="449.60264"
       y1="598.02519"
       x1="284.75352"
       gradientTransform="matrix(1.0549061,0,0,0.94795168,-0.09964457,-0.08641848)"
       inkscape:collect="always"
       id="linearGradient4172">
      <stop
         style="stop-color:#4e505d;stop-opacity:1;"
         offset="0"
         id="stop4174" />
      <stop
         style="stop-color:#7a859c;stop-opacity:1"
         offset="1"
         id="stop4176" />
    </linearGradient>
    <linearGradient
       inkscape:collect="always"
       xlink:href="#linearGradient4158"
       id="linearGradient4326"
       gradientUnits="userSpaceOnUse"
       gradientTransform="matrix(0.75328464,0,0,0.75328464,220.39547,-24.752488)"
       x1="276"
       y1="559.36218"
       x2="315"
       y2="478.36221" />
    <linearGradient
       inkscape:collect="always"
       xlink:href="#linearGradient4158"
       id="linearGradient4328"
       gradientUnits="userSpaceOnUse"
       gradientTransform="matrix(0.75328464,0,0,0.75328464,220.39547,-24.752488)"
       x1="294"
       y1="690.36218"
       x2="330"
       y2="586.36218" />
    <linearGradient
       gradientTransform="translate(93.164473,0.98465359)"
       inkscape:collect="always"
       xlink:href="#linearGradient4158"
       id="linearGradient4192"
       x1="294"
       y1="690.36218"
       x2="330"
       y2="586.36218"
       gradientUnits="userSpaceOnUse" />
    <linearGradient
       gradientTransform="translate(93.064826,0.89823152)"
       inkscape:collect="always"
       xlink:href="#linearGradient4158"
       id="linearGradient4164"
       x1="276"
       y1="559.36218"
       x2="315"
       y2="478.36221"
       gradientUnits="userSpaceOnUse" />
  </defs>
  <sodipodi:namedview
     id="base"
     pagecolor="#ffffff"
     bordercolor="#666666"
     borderopacity="1.0"
     inkscape:pageopacity="0.0"
     inkscape:pageshadow="2"
     inkscape:zoom="1"
     inkscape:cx="455.81608"
     inkscape:cy="539.75176"
     inkscape:document-units="px"
     inkscape:current-layer="layer1"
     showgrid="false"
     showguides="true"
     inkscape:guide-bbox="true"
     inkscape:window-width="1366"
     inkscape:window-height="721"
     inkscape:window-x="-4"
     inkscape:window-y="-4"
     inkscape:window-maximized="1"
     inkscape:snap-bbox="true"
     inkscape:bbox-paths="true"
     inkscape:bbox-nodes="true">
    <sodipodi:guide
       position="315.53572,730.17859"
       orientation="0,1"
       id="guide3338" />
    <sodipodi:guide
       position="351.25,330.17858"
       orientation="0,1"
       id="guide3340" />
    <sodipodi:guide
       position="189.10714,408.8393"
       orientation="1,0"
       id="guide3344" />
    <sodipodi:guide
       position="589.04521,468.07945"
       orientation="1,0"
       id="guide3346" />
    <inkscape:grid
       type="xygrid"
       id="grid3440" />
    <sodipodi:guide
       position="589.04521,378.30213"
       orientation="1,0"
       id="guide3411" />
  </sodipodi:namedview>
  <metadata
     id="metadata7">
    <rdf:RDF>
      <cc:Work
         rdf:about="">
        <dc:format>image/svg+xml</dc:format>
        <dc:type
           rdf:resource="http://purl.org/dc/dcmitype/StillImage" />
        <dc:title>user group rights edit</dc:title>
        <dc:date>June 2015</dc:date>
        <dc:creator>
          <cc:Agent>
            <dc:title>Johannes Hechler</dc:title>
          </cc:Agent>
        </dc:creator>
        <dc:rights>
          <cc:Agent>
            <dc:title>Johannes Hechler</dc:title>
          </cc:Agent>
        </dc:rights>
        <dc:publisher>
          <cc:Agent>
            <dc:title>RRZE</dc:title>
          </cc:Agent>
        </dc:publisher>
        <dc:contributor>
          <cc:Agent>
            <dc:title>Ute Weber, Hendrik Eggers, Joanna Barbach</dc:title>
          </cc:Agent>
        </dc:contributor>
        <dc:subject>
          <rdf:Bag>
            <rdf:li>user</rdf:li>
            <rdf:li>group</rdf:li>
            <rdf:li>rights</rdf:li>
            <rdf:li>management</rdf:li>
            <rdf:li>settings</rdf:li>
            <rdf:li>edit</rdf:li>
          </rdf:Bag>
        </dc:subject>
        <cc:license
           rdf:resource="http://creativecommons.org/licenses/by-sa/3.0/" />
      </cc:Work>
      <cc:License
         rdf:about="http://creativecommons.org/licenses/by-sa/3.0/">
        <cc:permits
           rdf:resource="http://creativecommons.org/ns#Reproduction" />
        <cc:permits
           rdf:resource="http://creativecommons.org/ns#Distribution" />
        <cc:requires
           rdf:resource="http://creativecommons.org/ns#Notice" />
        <cc:requires
           rdf:resource="http://creativecommons.org/ns#Attribution" />
        <cc:permits
           rdf:resource="http://creativecommons.org/ns#DerivativeWorks" />
        <cc:requires
           rdf:resource="http://creativecommons.org/ns#ShareAlike" />
      </cc:License>
    </rdf:RDF>
  </metadata>
  <g
     inkscape:label="Ebene 1"
     inkscape:groupmode="layer"
     id="layer1">
    <g
       id="g4270">
      <flowRoot
         style="font-style:normal;font-weight:normal;font-size:40px;line-height:125%;font-family:sans-serif;letter-spacing:0px;word-spacing:0px;fill:#252525;fill-opacity:1;stroke:none;stroke-width:1px;stroke-linecap:butt;stroke-linejoin:miter;stroke-opacity:1"
         id="flowRoot4169"
         xml:space="preserve"
         transform="translate(-0.099645,-0.086415)"><flowRegion
           id="flowRegion4171"><rect
             y="427.07962"
             x="89.541069"
             height="88.78862"
             width="56.433445"
             id="rect4173" /></flowRegion><flowPara
           id="flowPara4175" /></flowRoot>      <flowRoot
         style="font-style:normal;font-weight:normal;font-size:40px;line-height:125%;font-family:sans-serif;letter-spacing:0px;word-spacing:0px;fill:#252525;fill-opacity:1;stroke:none;stroke-width:1px;stroke-linecap:butt;stroke-linejoin:miter;stroke-opacity:1"
         id="flowRoot4169-7"
         xml:space="preserve"
         transform="translate(-0.09964457,-0.08641848)"><flowRegion
           id="flowRegion4171-5"><rect
             y="427.07962"
             x="89.541069"
             height="88.78862"
             width="56.433445"
             id="rect4173-2" /></flowRegion><flowPara
           id="flowPara4175-3" /></flowRoot>      <rect
         inkscape:export-ydpi="4.9499998"
         inkscape:export-xdpi="4.9499998"
         y="322.18362"
         x="189.04521"
         height="400"
         width="400"
         id="rect3336"
         style="fill:none;fill-rule:evenodd;stroke:none;stroke-width:1px;stroke-linecap:butt;stroke-linejoin:miter;stroke-opacity:1" />
      <path
         inkscape:connector-curvature="0"
         style="fill:url(#linearGradient4318);fill-opacity:1;stroke:none;stroke-width:41.15159225;stroke-linecap:round;stroke-linejoin:round;stroke-opacity:1"
         d="m 316.00141,364.01338 c -22.35549,3e-5 -40.47871,18.15896 -40.47878,40.55736 4e-5,22.39842 18.12328,40.55565 40.47878,40.55569 22.35549,-3e-5 40.47705,-18.15727 40.47711,-40.55569 -7e-5,-22.39841 -18.12163,-40.55733 -40.47711,-40.55736 z"
         id="path4314" />
      <path
         id="path4316"
         d="m 291.81638,454.19092 0,0.004 c -0.0749,0.0659 -0.14343,0.13883 -0.22071,0.20313 l -4.17187,2.25781 c -27.21009,16.11899 -46.14649,47.5752 -46.14649,92.97851 0,9.75216 0.88919,19.20202 2.54883,28.19141 2.46178,5.50716 8.6473,9.54311 16.0586,10.07031 l 0,0.0586 48.87304,0 c 9.31268,-13.1275 20.72534,-23.94064 33.68946,-32.09571 -12.37951,-11.92674 -20.15231,-28.61519 -20.15235,-47.01562 6e-5,-20.26622 9.39356,-38.49359 24.0293,-50.52344 -2.18709,-1.36733 -4.42151,-2.63739 -6.71289,-3.78125 -6.98338,3.92085 -15.03521,6.16992 -23.59571,6.16992 -8.81003,0 -17.07718,-2.38205 -24.19921,-6.51758 z m 80.36523,29.55274 c -8.37824,5.11911 -13.88669,14.35532 -13.88672,25.09961 3e-5,16.45725 12.91884,29.37888 29.28906,29.3789 0.71021,0 1.41099,-0.0322 2.10743,-0.0801 -1.65232,-21.72843 -7.97783,-40.0062 -17.50977,-54.39844 z m -11.73633,103.44336 c -0.38446,0.24948 -0.76155,0.51164 -1.14258,0.76758 l 3.22657,0 c -0.69691,-0.25164 -1.39648,-0.49708 -2.08399,-0.76758 z"
         style="fill:url(#linearGradient4320);fill-opacity:1;stroke:none;stroke-width:41.15159225;stroke-linecap:round;stroke-linejoin:round;stroke-opacity:1"
         inkscape:connector-curvature="0" />
      <path
         id="path4322"
         d="m 442.2525,322.18363 c -19.67327,3e-5 -35.62207,15.98024 -35.62212,35.69127 3e-5,19.71105 15.94884,35.68977 35.62212,35.68981 19.67327,-3e-5 35.6206,-15.97876 35.62065,-35.68981 -6e-5,-19.71104 -15.94739,-35.69124 -35.62065,-35.69127 z"
         style="fill:url(#linearGradient4326);fill-opacity:1;stroke:none;stroke-width:41.15159225;stroke-linecap:round;stroke-linejoin:round;stroke-opacity:1"
         inkscape:connector-curvature="0" />
      <path
         id="path4324"
         d="m 420.96872,401.54249 0,0.002 c -0.0659,0.058 -0.1273,0.12115 -0.19531,0.17773 l -3.66993,1.99024 c -14.37061,8.51301 -26.1135,21.8925 -33.21093,39.86328 1.22313,-0.0695 2.45194,-0.11328 3.6914,-0.11328 35.864,4e-5 65.287,29.50543 65.28711,65.38086 0,3.54265 -0.29148,7.02061 -0.8457,10.41406 l 37.7793,0 0,-0.008 c 7.3204,-0.10335 13.48706,-4.08609 15.55859,-9.54688 1.38616,-7.72027 2.12695,-15.819 2.12695,-24.17187 0,-41.82974 -18.72071,-70.83204 -44.46093,-83.68164 -6.14552,3.45042 -13.23027,5.42968 -20.76368,5.42968 -7.753,0 -15.02935,-2.09698 -21.29687,-5.73632 z m -33.38477,77.91992 c -3.9193,0 -7.63743,0.7487 -11.03125,2.10156 -0.037,1.31023 -0.0586,2.63095 -0.0586,3.96875 0,8.5821 0.78361,16.89776 2.24414,24.80859 2.16641,4.84642 7.60878,8.39935 14.13086,8.86329 l 0,0.0527 22.16211,0 c 1.1884,-3.22445 1.83984,-6.72983 1.83984,-10.41406 -5e-5,-16.45815 -12.91782,-29.38084 -29.28711,-29.38086 z"
         style="fill:url(#linearGradient4328);fill-opacity:1;stroke:none;stroke-width:41.15159225;stroke-linecap:round;stroke-linejoin:round;stroke-opacity:1"
         inkscape:connector-curvature="0" />
      <path
         id="path4143"
         d="M 359.33008 566.8125 L 359.33008 566.81641 C 359.24258 566.89341 359.16255 566.97763 359.07227 567.05273 L 354.19727 569.69336 C 322.40926 588.52426 300.28906 625.2704 300.28906 678.3125 C 300.28906 689.7054 301.32871 700.74429 303.26758 711.24609 C 306.14353 717.67979 313.36915 722.39582 322.02734 723.01172 L 322.02734 723.08203 L 357.63867 723.08203 A 17.50175 17.50175 0 0 1 357.59375 722.0957 L 357.84375 671.76758 A 17.50175 17.50175 0 0 1 380.09766 655.02344 A 17.50175 17.50175 0 0 1 385.15039 641.30078 L 440.64453 585.80469 C 433.04553 578.0885 424.45379 571.85524 415.16602 567.21875 C 407.00773 571.79925 397.6023 574.42578 387.60156 574.42578 C 377.3093 574.42578 367.65035 571.6438 359.33008 566.8125 z M 460.93945 615.00781 L 422.27344 653.67383 L 443.56836 674.96875 L 471.33789 647.19922 C 469.08074 635.39074 465.54549 624.6359 460.93945 615.00781 z M 473.47461 694.55859 L 455.94141 712.0918 A 17.50175 17.50175 0 0 1 442.19727 717.1582 A 17.50175 17.50175 0 0 1 442.82422 723.08203 L 450.71289 723.08203 L 450.71289 723.07227 C 460.43087 722.93507 468.61522 717.64774 471.36523 710.39844 C 472.29154 705.23933 472.9986 699.9516 473.47461 694.55859 z "
         style="fill:url(#linearGradient4172);fill-opacity:1;stroke:none;stroke-width:41.15159225;stroke-linecap:round;stroke-linejoin:round;stroke-opacity:1" />
      <path
         id="path2176-88"
         d="m 387.58436,461.46268 c -26.11664,4e-5 -47.28898,21.21408 -47.28906,47.38086 5e-5,26.1668 21.1724,47.37887 47.28906,47.37891 26.11666,-3e-5 47.28705,-21.21211 47.28711,-47.37891 -8e-5,-26.16679 -21.17047,-47.38083 -47.28711,-47.38086 z"
         style="fill:url(#linearGradient4164);fill-opacity:1;stroke:none;stroke-width:41.15159225;stroke-linecap:round;stroke-linejoin:round;stroke-opacity:1"
         inkscape:connector-curvature="0" />
      <path
         inkscape:connector-curvature="0"
         id="path4176"
         d="m 542.96502,508.23556 -18.18127,18.18007 46.04394,46.04252 18.21752,-18.18287 c -3.76735,-25.30435 -19.31105,-41.99516 -46.08023,-46.03921 z m -36.36095,36.35975 -109.08008,109.08009 46.04393,46.04252 109.07851,-109.0797 -46.04241,-46.04241 z m -131.25977,127.25977 -0.25152,50.32855 50.29254,-0.24848 z"
         style="fill:#99b000;fill-rule:evenodd;stroke:none;stroke-width:1px;stroke-linecap:butt;stroke-linejoin:miter;stroke-opacity:1"
         sodipodi:nodetypes="cccccccccccccccc" />
    </g>
  </g>
</svg>
