<?xml version="1.0" encoding="UTF-8" standalone="no"?>
<!-- Created with Inkscape (http://www.inkscape.org/) -->

<svg
   xmlns:dc="http://purl.org/dc/elements/1.1/"
   xmlns:cc="http://creativecommons.org/ns#"
   xmlns:rdf="http://www.w3.org/1999/02/22-rdf-syntax-ns#"
   xmlns:svg="http://www.w3.org/2000/svg"
   xmlns="http://www.w3.org/2000/svg"
   xmlns:sodipodi="http://sodipodi.sourceforge.net/DTD/sodipodi-0.dtd"
   xmlns:inkscape="http://www.inkscape.org/namespaces/inkscape"
   width="210mm"
   height="297mm"
   viewBox="0 0 744.09448819 1052.3622047"
   id="svg2"
   version="1.1"
   inkscape:version="0.91 r13725"
   inkscape:export-xdpi="7.1999745"
   inkscape:export-ydpi="7.1999745"
   sodipodi:docname="user-student-grey.svg"
   inkscape:export-filename="C:\Users\johannes\Documents\Arbeit\RRZE\github3\bicons\32x32\categories\user-student-grey.png">
  <title
     id="title4181">user student grey</title>
  <defs
     id="defs4" />
  <sodipodi:namedview
     id="base"
     pagecolor="#ffffff"
     bordercolor="#666666"
     borderopacity="1.0"
     inkscape:pageopacity="0.0"
     inkscape:pageshadow="2"
     inkscape:zoom="0.70710678"
     inkscape:cx="438.26894"
     inkscape:cy="559.67192"
     inkscape:document-units="px"
     inkscape:current-layer="layer1"
     showgrid="false"
     showguides="true"
     inkscape:guide-bbox="true"
     inkscape:window-width="1366"
     inkscape:window-height="721"
     inkscape:window-x="-4"
     inkscape:window-y="-4"
     inkscape:window-maximized="1"
     inkscape:snap-bbox="true"
     inkscape:bbox-paths="true"
     inkscape:bbox-nodes="true">
    <sodipodi:guide
       position="315.53572,730.17859"
       orientation="0,1"
       id="guide3338" />
    <sodipodi:guide
       position="282.1356,330.21887"
       orientation="0,1"
       id="guide3340" />
    <sodipodi:guide
       position="189.10714,408.8393"
       orientation="1,0"
       id="guide3344" />
    <sodipodi:guide
       position="589.04521,468.07945"
       orientation="1,0"
       id="guide3346" />
    <inkscape:grid
       type="xygrid"
       id="grid3440" />
    <sodipodi:guide
       position="0,0"
       orientation="0,1"
       id="guide3405" />
    <sodipodi:guide
       position="214.125,684.50002"
       orientation="1,0"
       id="guide3407" />
    <sodipodi:guide
       position="0,0"
       orientation="0,1"
       id="guide3409" />
    <sodipodi:guide
       position="589.04521,378.30213"
       orientation="1,0"
       id="guide3411" />
    <sodipodi:guide
       position="564.00001,683.37502"
       orientation="1,0"
       id="guide3413" />
    <sodipodi:guide
       position="0,0"
       orientation="0,1"
       id="guide4168" />
  </sodipodi:namedview>
  <metadata
     id="metadata7">
    <rdf:RDF>
      <cc:Work
         rdf:about="">
        <dc:format>image/svg+xml</dc:format>
        <dc:type
           rdf:resource="http://purl.org/dc/dcmitype/StillImage" />
        <dc:title>user student grey</dc:title>
        <dc:date>June 2015</dc:date>
        <dc:creator>
          <cc:Agent>
            <dc:title>Johannes Hechler</dc:title>
          </cc:Agent>
        </dc:creator>
        <dc:rights>
          <cc:Agent>
            <dc:title>Johannes Hechler</dc:title>
          </cc:Agent>
        </dc:rights>
        <dc:publisher>
          <cc:Agent>
            <dc:title>RRZE</dc:title>
          </cc:Agent>
        </dc:publisher>
        <dc:contributor>
          <cc:Agent>
            <dc:title>Ute Weber, Hendrik Eggers, Joanna Barbach</dc:title>
          </cc:Agent>
        </dc:contributor>
        <dc:subject>
          <rdf:Bag>
            <rdf:li>user</rdf:li>
            <rdf:li>student</rdf:li>
            <rdf:li>academic</rdf:li>
            <rdf:li>identity management</rdf:li>
            <rdf:li>role</rdf:li>
            <rdf:li>grey</rdf:li>
            <rdf:li>disabled</rdf:li>
            <rdf:li>unable</rdf:li>
          </rdf:Bag>
        </dc:subject>
        <cc:license
           rdf:resource="http://creativecommons.org/licenses/by-sa/3.0/" />
      </cc:Work>
      <cc:License
         rdf:about="http://creativecommons.org/licenses/by-sa/3.0/">
        <cc:permits
           rdf:resource="http://creativecommons.org/ns#Reproduction" />
        <cc:permits
           rdf:resource="http://creativecommons.org/ns#Distribution" />
        <cc:requires
           rdf:resource="http://creativecommons.org/ns#Notice" />
        <cc:requires
           rdf:resource="http://creativecommons.org/ns#Attribution" />
        <cc:permits
           rdf:resource="http://creativecommons.org/ns#DerivativeWorks" />
        <cc:requires
           rdf:resource="http://creativecommons.org/ns#ShareAlike" />
      </cc:License>
    </rdf:RDF>
  </metadata>
  <g
     inkscape:label="Ebene 1"
     inkscape:groupmode="layer"
     id="layer1">
    <flowRoot
       transform="translate(-0.1011,-0.08634)"
       xml:space="preserve"
       id="flowRoot4169"
       style="font-style:normal;font-weight:normal;font-size:40px;line-height:125%;font-family:sans-serif;letter-spacing:0px;word-spacing:0px;fill:#252525;fill-opacity:1;stroke:none;stroke-width:1px;stroke-linecap:butt;stroke-linejoin:miter;stroke-opacity:1"><flowRegion
         id="flowRegion4171"><rect
           id="rect4173"
           width="56.433445"
           height="88.78862"
           x="89.541069"
           y="427.07962" /></flowRegion><flowPara
         id="flowPara4175" /></flowRoot>    <rect
       style="fill:none;fill-rule:evenodd;stroke:none;stroke-width:1px;stroke-linecap:butt;stroke-linejoin:miter;stroke-opacity:1"
       id="rect3336"
       width="400"
       height="400"
       x="189.04375"
       y="322.18362"
       inkscape:export-xdpi="4.9499998"
       inkscape:export-ydpi="4.9499998" />
    <path
       style="fill:#7a859c;fill-opacity:1;stroke:none;stroke-width:41.15159225;stroke-linecap:round;stroke-linejoin:round;stroke-opacity:1"
       d="m 346.26836,474.64654 0,0.002 c -0.13373,0.11831 -0.25652,0.24456 -0.39453,0.35938 l -7.44922,4.03711 c -48.59119,28.78496 -82.4043,94.12658 -82.4043,175.20703 0,17.41495 1.587,34.2888 4.55078,50.3418 4.39616,9.8346 15.44281,17.04287 28.67774,17.98437 l 0,0.10938 163.13867,0 a 18.0018,18.0018 0 0 1 -4.43164,-11.80664 l 0,-34.33789 a 18.0018,18.0018 0 0 1 14.03125,-17.53321 l 0,-9.74219 c -10.37935,-10.97777 -15.4043,-26.13531 -15.4043,-41.82421 0,-19.58187 7.33587,-38.10541 21.69141,-50.06836 8.10015,-6.75013 17.71973,-11.24136 28.44726,-13.87696 -16.05069,-31.26342 -38.76351,-55.08239 -65.10156,-68.23047 -12.47076,7.00181 -26.84567,11.01954 -42.13281,11.01954 -15.73277,1e-5 -30.50037,-4.25546 -43.21875,-11.64063 z M 488.0125,588.38677 c -3.62302,4.31645 -5.42969,9.75464 -5.42969,19.05665 0,9.03598 2.02803,13.49766 5.69922,17.25585 2.16145,2.17397 5.98804,4.56163 11.29102,6.7793 -1.37158,-0.77758 -2.73909,-1.54057 -4.11133,-2.54687 a 18.0018,18.0018 0 0 1 -0.36133,-0.27344 c -7.1529,-5.52724 -11.64258,-15.54762 -11.64258,-24.17383 0,-5.3367 1.68618,-11.04844 4.55469,-16.09766 z"
       id="path2176"
       inkscape:connector-curvature="0" />
    <path
       style="fill:#7a859c;fill-opacity:1;stroke:none;stroke-width:14;stroke-miterlimit:4;stroke-dasharray:none;stroke-opacity:1"
       d="m 358.73711,340.18365 a 18.0018,18.0018 0 0 1 -6.11914,13.72461 c -1.70557,1.4927 -3.24207,3.13888 -4.73633,4.81445 l 82.22852,0 c -1.49457,-1.68073 -3.03141,-3.33067 -4.73829,-4.82812 a 18.0018,18.0018 0 0 1 -6.10351,-13.71094 l -60.53125,0 z m 102.98437,54.40234 a 18.0018,18.0018 0 0 1 -2.10156,0.13672 l -141.28515,0 a 18.0018,18.0018 0 0 1 -1.13477,-0.0566 72.285255,72.424042 0 0 0 -0.0273,0.5332 72.285255,72.424042 0 0 0 72.28515,72.42383 72.285255,72.424042 0 0 0 72.28516,-72.42383 72.285255,72.424042 0 0 0 -0.0215,-0.61328 z"
       id="circle2187-6"
       inkscape:connector-curvature="0" />
    <path
       style="color:#000000;clip-rule:nonzero;display:inline;overflow:visible;visibility:visible;opacity:1;isolation:auto;mix-blend-mode:normal;color-interpolation:sRGB;color-interpolation-filters:linearRGB;solid-color:#000000;solid-opacity:1;fill:#7a859c;fill-opacity:1;fill-rule:evenodd;stroke:none;stroke-width:50;stroke-linecap:butt;stroke-linejoin:round;stroke-miterlimit:4;stroke-dasharray:none;stroke-dashoffset:0;stroke-opacity:1;color-rendering:auto;image-rendering:auto;shape-rendering:auto;text-rendering:auto;enable-background:accumulate"
       d="m 270.93633,322.18365 c -4.91019,0 -9.17188,4.1152 -9.17188,9.02539 l 0,0.73242 c 0,4.91018 4.041,8.4219 8.95117,8.42188 l 70.04688,0 c -10.98308,9.61235 -18.79766,22.28119 -22.42773,36.35937 l 141.28515,0 c -3.61611,-14.07204 -11.41257,-26.74018 -22.37695,-36.35937 l 60.86133,0.0449 0,28.02148 0.47461,63.01758 35.17968,0.14649 -17.32422,-81.67579 -0.15039,-18.36722 0,-0.73242 -0.0449,-0.91016 c -0.42453,-4.17686 -3.74774,-7.28572 -7.93164,-7.68164 -0.29887,-0.0285 -0.60328,-0.0429 -0.91017,-0.0429 l -0.45313,0 z"
       id="rect4211"
       inkscape:connector-curvature="0"
       sodipodi:nodetypes="sssscccccccccccccscs"
       inkscape:export-filename="C:\Users\johannes\Desktop\g4232.png"
       inkscape:export-xdpi="4.9499998"
       inkscape:export-ydpi="4.9499998" />
    <text
       xml:space="preserve"
       style="font-style:normal;font-weight:normal;font-size:216.38217163px;line-height:125%;font-family:sans-serif;text-align:end;letter-spacing:0px;word-spacing:0px;text-anchor:end;fill:#7a859c;fill-opacity:1;stroke:none;stroke-width:1px;stroke-linecap:butt;stroke-linejoin:miter;stroke-opacity:1;"
       x="604.99915"
       y="719.11975"
       id="text4262"
       sodipodi:linespacing="125%"><tspan
         sodipodi:role="line"
         id="tspan4264"
         x="604.99915"
         y="719.11975"
         style="font-style:normal;font-variant:normal;font-weight:bold;font-stretch:normal;font-family:sans-serif;-inkscape-font-specification:'sans-serif Bold';fill:#7a859c;">S</tspan></text>
  </g>
</svg>
