<?xml version="1.0" encoding="UTF-8" standalone="no"?>
<!-- Created with Inkscape (http://www.inkscape.org/) -->

<svg
   xmlns:dc="http://purl.org/dc/elements/1.1/"
   xmlns:cc="http://creativecommons.org/ns#"
   xmlns:rdf="http://www.w3.org/1999/02/22-rdf-syntax-ns#"
   xmlns:svg="http://www.w3.org/2000/svg"
   xmlns="http://www.w3.org/2000/svg"
   xmlns:xlink="http://www.w3.org/1999/xlink"
   xmlns:sodipodi="http://sodipodi.sourceforge.net/DTD/sodipodi-0.dtd"
   xmlns:inkscape="http://www.inkscape.org/namespaces/inkscape"
   width="210mm"
   height="297mm"
   viewBox="0 0 744.09448819 1052.3622047"
   id="svg2"
   version="1.1"
   inkscape:version="0.91 r13725"
   inkscape:export-xdpi="7.1999712"
   inkscape:export-ydpi="7.1999712"
   sodipodi:docname="user-group-admin-gs.svg"
   inkscape:export-filename="C:\Users\johannes\Documents\Arbeit\RRZE\github3\bicons\32x32\categories\user-group-admin-gs.png">
  <defs
     id="defs4">
    <linearGradient
       inkscape:collect="always"
       xlink:href="#linearGradient4321"
       id="linearGradient4295"
       x1="191.49564"
       y1="173.49779"
       x2="145.36823"
       y2="70.576584"
       gradientUnits="userSpaceOnUse" />
    <linearGradient
       id="linearGradient4321"
       inkscape:collect="always">
      <stop
         id="stop4323"
         offset="0"
         style="stop-color:#4e505d;stop-opacity:1;" />
      <stop
         id="stop4325"
         offset="1"
         style="stop-color:#7a8597;stop-opacity:1" />
    </linearGradient>
    <linearGradient
       inkscape:collect="always"
       xlink:href="#linearGradient4321"
       id="linearGradient4287"
       x1="272.74734"
       y1="1072.3137"
       x2="163.14169"
       y2="789.01514"
       gradientUnits="userSpaceOnUse" />
  </defs>
  <sodipodi:namedview
     id="base"
     pagecolor="#ffffff"
     bordercolor="#666666"
     borderopacity="1.0"
     inkscape:pageopacity="0.0"
     inkscape:pageshadow="2"
     inkscape:zoom="0.70710678"
     inkscape:cx="596.65729"
     inkscape:cy="543.13785"
     inkscape:document-units="px"
     inkscape:current-layer="layer1"
     showgrid="false"
     showguides="true"
     inkscape:guide-bbox="true"
     inkscape:window-width="1366"
     inkscape:window-height="721"
     inkscape:window-x="-4"
     inkscape:window-y="-4"
     inkscape:window-maximized="1"
     inkscape:snap-bbox="true"
     inkscape:bbox-paths="true"
     inkscape:bbox-nodes="true"
     inkscape:snap-nodes="false">
    <sodipodi:guide
       position="315.53572,730.17859"
       orientation="0,1"
       id="guide3338" />
    <sodipodi:guide
       position="351.25,330.17858"
       orientation="0,1"
       id="guide3340" />
    <sodipodi:guide
       position="189.10714,408.8393"
       orientation="1,0"
       id="guide3344" />
    <sodipodi:guide
       position="589.04521,468.07945"
       orientation="1,0"
       id="guide3346" />
    <inkscape:grid
       type="xygrid"
       id="grid3440" />
    <sodipodi:guide
       position="589.04521,378.30213"
       orientation="1,0"
       id="guide3411" />
  </sodipodi:namedview>
  <metadata
     id="metadata7">
    <rdf:RDF>
      <cc:Work
         rdf:about="">
        <dc:format>image/svg+xml</dc:format>
        <dc:type
           rdf:resource="http://purl.org/dc/dcmitype/StillImage" />
        <dc:title>user group admin gs</dc:title>
        <dc:date>June 2015</dc:date>
        <dc:creator>
          <cc:Agent>
            <dc:title>Johannes Hechler</dc:title>
          </cc:Agent>
        </dc:creator>
        <dc:rights>
          <cc:Agent>
            <dc:title>Johannes Hechler</dc:title>
          </cc:Agent>
        </dc:rights>
        <dc:publisher>
          <cc:Agent>
            <dc:title>RRZE</dc:title>
          </cc:Agent>
        </dc:publisher>
        <dc:contributor>
          <cc:Agent>
            <dc:title>Ute Weber, Hendrik Eggers, Joanna Barbach</dc:title>
          </cc:Agent>
        </dc:contributor>
        <dc:subject>
          <rdf:Bag>
            <rdf:li>user</rdf:li>
            <rdf:li>other</rdf:li>
            <rdf:li>guest</rdf:li>
            <rdf:li>misc</rdf:li>
            <rdf:li>template</rdf:li>
            <rdf:li>identity management</rdf:li>
            <rdf:li>role</rdf:li>
            <rdf:li>female</rdf:li>
            <rdf:li>women</rdf:li>
            <rdf:li>group</rdf:li>
            <rdf:li>admin</rdf:li>
            <rdf:li>gs</rdf:li>
          </rdf:Bag>
        </dc:subject>
        <cc:license
           rdf:resource="http://creativecommons.org/licenses/by-sa/3.0/" />
      </cc:Work>
      <cc:License
         rdf:about="http://creativecommons.org/licenses/by-sa/3.0/">
        <cc:permits
           rdf:resource="http://creativecommons.org/ns#Reproduction" />
        <cc:permits
           rdf:resource="http://creativecommons.org/ns#Distribution" />
        <cc:requires
           rdf:resource="http://creativecommons.org/ns#Notice" />
        <cc:requires
           rdf:resource="http://creativecommons.org/ns#Attribution" />
        <cc:permits
           rdf:resource="http://creativecommons.org/ns#DerivativeWorks" />
        <cc:requires
           rdf:resource="http://creativecommons.org/ns#ShareAlike" />
      </cc:License>
    </rdf:RDF>
  </metadata>
  <g
     inkscape:label="Ebene 1"
     inkscape:groupmode="layer"
     id="layer1">
    <g
       transform="translate(189.04374,-330.05122)"
       id="g4414">
      <path
         sodipodi:nodetypes="cccccccc"
         inkscape:connector-curvature="0"
         id="path4215"
         d="m 52.121065,867.09872 c -10.957333,-0.53723 -38.566503,23.63517 -42.051869,55.13516 23.062522,0 51.951032,-36.30525 43.954099,-51.77949 -0.376379,1.03333 1.24456,1.14842 -1.90223,-3.35567 z m 111.525415,26.15014 c -0.24309,0.25936 -0.49179,0.5135 -0.73828,0.76953 0.52642,0.33035 1.03907,0.6543 1.03907,0.6543 0,0 -0.24563,-1.16788 -0.30079,-1.42383 z"
         style="fill:#99b000;fill-rule:evenodd;stroke:none;stroke-width:1px;stroke-linecap:butt;stroke-linejoin:miter;stroke-opacity:1" />
      <path
         inkscape:connector-curvature="0"
         id="path4205"
         transform="translate(0,652.36214)"
         d="m 276.71289,22.775391 c -2.49948,1.40493 -4.51222,3.087467 -6.31445,4.904297 1.98781,-0.958601 4.14694,-2.790657 6.31445,-4.904297 z M 303.42383,48.3125 c -5.42757,5.15265 -12.36193,10.199929 -21.17774,13.505859 -10.33704,3.876391 -21.11329,6.024045 -29.12695,7.214844 7.84947,15.272469 23.72823,25.724581 42.05469,25.724609 20.20053,-2.3e-5 37.43373,-12.694939 44.20898,-30.552734 -2.12147,-0.57824 -5.14158,-1.429993 -9.17969,-2.71875 -6.41512,-2.04738 -13.52922,-4.203322 -20.8164,-8.757812 -2.25436,-1.40897 -4.17691,-2.903006 -5.96289,-4.416016 z M 196.27539,65.621094 c -26.11664,4e-5 -47.28898,21.212126 -47.28906,47.378906 6e-5,26.1668 21.1724,47.38082 47.28906,47.38086 26.11666,-3e-5 47.28705,-21.21406 47.28711,-47.38086 -5e-5,-17.557002 -9.53838,-32.871564 -23.69922,-41.056641 l -2.72851,0.199219 0.30273,-1.511719 c -6.3683,-3.199332 -13.55274,-5.009757 -21.16211,-5.009765 z M 88.302734,155.38867 c -2.498874,1.40477 -4.51255,3.08975 -6.314453,4.90625 1.988383,-0.95861 4.146255,-2.79183 6.314453,-4.90625 z m 135.554686,15.98828 c -8.15829,4.5805 -17.56371,7.20703 -27.56445,7.20703 -9.81417,0 -19.05059,-2.53315 -27.10156,-6.95703 2.7e-4,0.001 -2.8e-4,0.003 0,0.004 8.05097,4.4239 17.28739,6.95703 27.10156,6.95703 10.00074,0 19.40616,-2.62653 27.56445,-7.20703 3.06078,1.52796 6.04327,3.23459 8.94336,5.10352 0.002,-2.3e-4 0.004,1.8e-4 0.006,0 -2.90195,-1.87041 -5.88636,-3.57844 -8.94922,-5.10743 z m 6.45117,5.44922 c -0.41021,0.0725 -0.81269,0.15834 -1.20898,0.25586 0.39995,-0.0991 0.80318,-0.18443 1.20898,-0.25586 z m -1.50781,0.32617 c -4.29642,1.13364 -7.73736,3.71349 -10.04883,7.03125 2.42336,-3.4477 5.97948,-5.93595 10.04883,-7.03125 z m 147.56836,0.1875 c -0.47982,0.21772 -0.95159,0.45416 -1.41016,0.71289 0.4594,-0.25815 0.9299,-0.49601 1.41016,-0.71289 z m -1.58984,0.82032 c -0.47937,0.27787 -0.94995,0.57112 -1.40235,0.89257 0.45346,-0.31895 0.9214,-0.6168 1.40235,-0.89257 z m -259.76563,2.76757 c -5.42747,5.15242 -12.36232,10.20008 -21.177732,13.50586 -11.989628,4.49612 -24.59697,6.67805 -32.740235,7.7168 6.656931,18.08924 24.013044,30.99022 44.378907,30.99023 22.27094,-1e-5 40.93599,-15.43001 45.95312,-36.19921 -1.98735,-0.5351 -5.17656,-1.41702 -9.63476,-2.83985 -6.41513,-2.04738 -13.52922,-4.20526 -20.81641,-8.75976 -2.25472,-1.4092 -4.17668,-2.9008 -5.96289,-4.41407 z m 102.75391,4.82618 c -0.25418,0.45772 -0.48331,0.92699 -0.69727,1.40429 0.21192,-0.478 0.44456,-0.94655 0.69727,-1.40429 z m -0.85938,1.77929 c -0.18598,0.4409 -0.35869,0.88769 -0.50976,1.3418 0.15201,-0.45387 0.32207,-0.90149 0.50976,-1.3418 z m -0.56445,1.4961 c -0.16924,0.52427 -0.30818,1.05767 -0.42969,1.5957 0.11873,-0.5382 0.26211,-1.07066 0.42969,-1.5957 z m -0.47461,1.79687 c -0.96312,4.50013 -0.23223,9.39581 2.60352,13.64063 -2.65726,-4.01568 -3.59496,-8.92854 -2.60352,-13.64063 z m 2.6582,13.72266 c 0.32364,0.47888 0.66482,0.95167 1.04297,1.41211 l 15.19531,18.49218 0,-0.004 -15.19531,-18.49219 c -0.37031,-0.45219 -0.71838,-0.92215 -1.04297,-1.4082 z m 116.54883,1.96679 c -0.41225,0.32358 -0.8144,0.65702 -1.19336,1.01172 0.38294,-0.35437 0.7811,-0.69192 1.19336,-1.01172 z m -1.25976,1.07813 c -0.37191,0.35178 -0.72229,0.72213 -1.06055,1.10156 0.33775,-0.38204 0.69159,-0.74956 1.06055,-1.10156 z m -1.3086,1.38281 c -0.34475,0.40336 -0.67408,0.81597 -0.98047,1.2461 0.30837,-0.42957 0.63551,-0.84533 0.98047,-1.2461 z m -1.07226,1.38282 c -0.2796,0.40021 -0.53957,0.81384 -0.78516,1.23437 0.24489,-0.42193 0.50682,-0.83373 0.78516,-1.23437 z m -0.96094,1.53515 c -0.25193,0.45121 -0.48515,0.91194 -0.69727,1.38281 0.21248,-0.47072 0.44512,-0.93209 0.69727,-1.38281 z m -134.63086,1.04297 c -0.49458,0.0144 -0.98641,0.0567 -1.47656,0.11133 4.19647,-0.44973 8.41755,0.58928 11.92578,2.93555 -3.23871,-2.18886 -6.88374,-3.15031 -10.44922,-3.04688 z m -1.51367,0.11523 c -0.5251,0.0596 -1.04567,0.14339 -1.5625,0.24805 0.51694,-0.10554 1.03828,-0.1883 1.5625,-0.24805 z m -1.83594,0.30079 c -0.49045,0.10711 -0.97548,0.23602 -1.45508,0.38281 0.47948,-0.14783 0.96493,-0.27554 1.45508,-0.38281 z m 137.1543,0.2246 c -0.18857,0.4398 -0.36053,0.88589 -0.51367,1.33985 0.15334,-0.45327 0.32471,-0.90023 0.51367,-1.33985 z m -139.07227,0.31055 c -0.39163,0.13131 -0.77821,0.27426 -1.16015,0.43164 0.38165,-0.15713 0.7686,-0.3011 1.16015,-0.43164 z M 188.98828,214.5 c -0.4326,0.19117 -0.85647,0.40267 -1.27344,0.62695 0.41608,-0.22564 0.84088,-0.43479 1.27344,-0.62695 z m 140.07422,0.62109 c -0.16299,0.50297 -0.29955,1.01417 -0.41797,1.53125 0.11674,-0.51631 0.2562,-1.02722 0.41797,-1.53125 z m -141.6582,0.17579 c -3.96675,2.23387 -7.12596,5.96638 -8.45508,10.83007 1.27568,-4.58588 4.31572,-8.47988 8.45508,-10.83007 z m 19.04687,0.80078 c 0.37203,0.25645 0.73426,0.52683 1.08594,0.81054 -0.35604,-0.28651 -0.71837,-0.55643 -1.08594,-0.81054 z m 122.1211,0.89453 c -0.1045,0.50051 -0.19417,1.00522 -0.25586,1.51562 0.0637,-0.50862 0.14903,-1.01429 0.25586,-1.51562 z m -0.26758,1.5957 c -0.0602,0.51745 -0.0905,1.03964 -0.10547,1.56445 0.0124,-0.52276 0.0476,-1.04475 0.10547,-1.56445 z m -0.11133,2.00781 c -0.002,0.5208 0.009,1.04368 0.0527,1.56836 -0.0403,-0.52177 -0.058,-1.04505 -0.0527,-1.56836 z m -149.3125,5.78321 c -0.13425,0.5201 -0.25439,1.04882 -0.3457,1.59375 0.0911,-0.5362 0.20645,-1.068 0.3457,-1.59375 z m -24.46875,2.40429 c -1.34651,1.52982 -2.76423,2.99617 -4.24414,4.39649 l 0.002,0.002 c 1.48025,-1.40076 2.89549,-2.86811 4.24219,-4.39844 z m 111.39453,31.29297 c -0.3298,0.46835 -0.68176,0.92068 -1.05469,1.35547 0.37068,-0.43479 0.72611,-0.88206 1.05469,-1.35156 0.24279,0.46391 0.51135,0.91349 0.79297,1.35351 -0.28396,-0.44071 -0.54854,-0.89361 -0.79297,-1.35742 z m -213.060546,1.44727 c -0.842598,0.83098 -1.672217,1.67969 -2.490235,2.54492 0.818018,-0.86523 1.64959,-1.71394 2.492188,-2.54492 l -0.002,0 z m 214.015626,0.15234 c 0.25846,0.38978 0.53232,0.76828 0.82031,1.13672 -0.28809,-0.36811 -0.56174,-0.74731 -0.82031,-1.13672 z m -2.26367,0.0352 c -0.29034,0.3293 -0.59262,0.64787 -0.90625,0.95508 0.31502,-0.30588 0.61433,-0.62688 0.90625,-0.95508 z m -1.29883,1.3164 c -0.28664,0.26275 -0.58172,0.51613 -0.88477,0.75977 0.30364,-0.24365 0.59792,-0.4973 0.88477,-0.75977 z m -79.86524,1.07032 c 0.24846,0.54485 0.50308,1.08706 0.76758,1.625 0.002,0.003 0.004,0.005 0.006,0.008 -0.26599,-0.54067 -0.52353,-1.08519 -0.77344,-1.63281 z m 78.25,0.25781 c -0.037,0.0275 -0.0741,0.0548 -0.11132,0.082 l 0.004,0.002 c 0.0371,-0.0264 0.0705,-0.0574 0.10742,-0.084 z m 0.44727,0.37695 c 0.30654,0.15023 0.60875,0.30915 0.90625,0.47656 -0.29478,-0.17139 -0.60172,-0.32195 -0.90625,-0.47656 z m 1.56836,0.89844 c 0.26216,0.1639 0.52006,0.33453 0.77344,0.51172 -0.25141,-0.18018 -0.51304,-0.3447 -0.77344,-0.51172 z m 1.4043,0.99609 c 0.23443,0.18244 0.46433,0.37064 0.68945,0.56446 -0.22457,-0.19523 -0.45572,-0.38078 -0.68945,-0.56446 z m -74.13868,9.88867 c 0.002,0.004 0.004,0.008 0.006,0.0117 1.45405,1.86234 3.01893,3.65231 4.69727,5.35547 l 0.0195,0.0195 c 9.27808,9.38741 21.58423,16.15106 34.80859,18.50977 l 0.004,-0.004 c -13.2258,-2.35811 -25.53354,-9.12149 -34.8125,-18.50976 l -0.0195,-0.0195 c -1.68065,-1.70549 -3.24739,-3.49823 -4.70313,-5.36329 z"
         style="fill:url(#linearGradient4295);fill-opacity:1;stroke:none;stroke-width:41.15159225;stroke-linecap:round;stroke-linejoin:round;stroke-opacity:1" />
      <path
         inkscape:connector-curvature="0"
         id="rect4513"
         d="m -8e-5,652.36205 400.00146,0 0,399.99995 -400.00146,0 z"
         style="color:#000000;clip-rule:nonzero;display:inline;overflow:visible;visibility:visible;opacity:1;isolation:auto;mix-blend-mode:normal;color-interpolation:sRGB;color-interpolation-filters:linearRGB;solid-color:#000000;solid-opacity:1;fill:none;fill-opacity:1;fill-rule:nonzero;stroke:none;stroke-width:36;stroke-linecap:butt;stroke-linejoin:round;stroke-miterlimit:4;stroke-dasharray:none;stroke-dashoffset:0;stroke-opacity:1;color-rendering:auto;image-rendering:auto;shape-rendering:auto;text-rendering:auto;enable-background:accumulate" />
      <path
         sodipodi:nodetypes="cccccsccccccccccccscccscscccccccccccccccscccccccccsccccccsccccccccccc"
         inkscape:connector-curvature="0"
         style="fill:url(#linearGradient4287);fill-opacity:1;stroke:none;stroke-width:41.15159225;stroke-linecap:round;stroke-linejoin:round;stroke-opacity:1"
         d="m 266.92023,757.71604 0,0 c -0.0875,0.077 -0.16753,0.1612 -0.25781,0.2363 l -4.87305,2.6387 c -0.13545,0.08 -0.26724,0.1671 -0.40234,0.248 0.1041,1.4969 0.17578,3.0019 0.17578,4.5235 -4e-5,18.6133 -7.96284,35.4672 -20.59375,47.4199 9.65444,6.0271 18.45777,13.5962 26.16992,22.5351 5.68183,2.9256 10.94253,6.7429 15.54492,11.3907 l 0.0274,0.027 c 12.9817,13.1669 21.15254,32.1556 18.65429,51.5937 l 3.42969,3.4707 23.74024,-23.8027 -0.28907,-3.4707 c -0.52657,-6.3146 2.30559,-12.4411 7.45703,-16.1309 l 37.67383,-26.9805 c 1.12603,-0.8001 2.3404,-1.4678 3.61914,-1.9902 -8.78728,-34.312 -28.9549,-58.6851 -54.23828,-71.3066 -8.15829,4.5805 -17.56371,7.207 -27.56445,7.207 -10.29226,0 -19.95317,-2.782 -28.27344,-7.6133 z m -43.0625,66.0273 c -8.15829,4.5805 -17.56371,7.2071 -27.56445,7.2071 -9.81417,0 -19.05059,-2.5332 -27.10156,-6.9571 1.01841,4.5592 1.57225,9.2857 1.57226,14.1348 -4e-5,18.6139 -7.9641,35.4657 -20.5957,47.418 13.07521,8.1626 24.58811,19.1516 33.93945,32.5507 -5.67444,-11.5343 -7.722,-24.7106 -5.58203,-37.7109 2.29234,-13.9121 18.96379,-19.9079 29.5918,-10.6426 l 18.83789,16.4278 7.21094,-0.6289 0.5996,-8.7266 -15.19531,-18.4922 c -8.9523,-10.9005 -2.45913,-27.3949 11.52149,-29.2676 0.57172,-0.076 1.14371,-0.1452 1.71484,-0.205 -2.90195,-1.8704 -5.88636,-3.5785 -8.94922,-5.1075 z m -146.63671,72.3535 0,0 c -0.0875,0.077 -0.16754,0.1613 -0.25782,0.2364 l -4.87304,2.6406 C 40.30215,917.80474 18.18,954.55084 18.18,1007.5929 c 0,11.3929 1.03965,22.4318 2.97852,32.9336 2.87595,6.4337 10.10157,11.1497 18.75976,11.7656 l 0,0.07 128.68555,0 0,-0.01 c 5.78776,-0.082 11.02073,-1.9988 14.89648,-5.0605 -10.90278,-15.8733 -9.35744,-38.1178 4.6582,-52.16986 l 3.22461,-3.2344 c -4.22917,-47.1064 -27.47682,-79.9886 -58.32617,-95.3887 -8.15829,4.5805 -17.56371,7.2071 -27.56445,7.2071 -10.29226,0 -19.95121,-2.782 -28.27148,-7.6133 z m 188.58593,16.3457 c -1.18386,1.6916 -2.6499,3.1669 -4.33398,4.3614 1.9248,0.8939 3.67637,2.1211 5.17382,3.625 l 16.2129,16.4062 c 0.007,-0.6673 0.0215,-1.3321 0.0215,-2.0019 0,-1.362 -0.027,-2.7055 -0.0566,-4.0469 l -13.92774,-14.0938 c -1.23227,-1.2579 -2.2733,-2.6898 -3.08984,-4.25 z m -74.94141,16.4395 c 7.7124,13.7416 13.37569,29.5219 16.47852,47.0098 l 23.05664,-23.1172 c -13.2258,-2.3581 -25.53354,-9.1215 -34.8125,-18.5098 l -0.0195,-0.02 c -1.68065,-1.7055 -3.24739,-3.4982 -4.70313,-5.3633 z"
         id="path4276" />
      <path
         id="rect4172"
         d="m 383.85694,846.04808 -37.67383,26.98047 0.98242,11.77734 -30.24023,30.32032 14.11328,14.2832 30.30664,-30.38672 11.7461,0.98633 26.91015,-37.77149 -16.14453,-16.18945 z m -145.36133,0.4707 c -1.66868,0.0265 -3.3431,0.14918 -5.01758,0.37305 l 19.73438,24.01758 -2.14258,31.22265 -30.17773,2.63086 -24.60547,-21.45898 c -2.3038,13.99552 2.20288,28.25577 12.10351,38.30273 12.4227,12.56905 29.21381,18.249 45.45313,11.46875 l 113.57226,114.92188 c 6.84543,6.9268 19.69927,5.0728 26.48829,-1.7969 6.78913,-6.8699 8.63449,-19.8895 1.78906,-26.8164 L 281.69874,904.03441 c 6.00107,-16.14866 0.23727,-32.44835 -11.80469,-44.66211 -8.36866,-8.45117 -19.71769,-13.03865 -31.39844,-12.85352 z m 12.87305,110.7168 -50.4668,50.59772 c -8.94478,8.9681 -8.94484,23.4068 0,32.375 l 5.41407,5.4277 c 8.94474,8.9682 23.34623,8.9682 32.29101,0 l 50.29297,-50.42381 -37.53125,-37.97661 z"
         style="opacity:1;fill:#99b000;fill-opacity:1;stroke:none;stroke-width:2;stroke-linecap:butt;stroke-linejoin:round;stroke-miterlimit:4;stroke-dasharray:none;stroke-opacity:1"
         inkscape:connector-curvature="0" />
      <path
         inkscape:connector-curvature="0"
         id="path4213"
         d="m 51.016649,837.44013 c 0,0 20.499998,-1.5 36.499998,-7.5 16.000003,-6 26.500003,-25 26.500003,-25 0,0 8.5,12.5 16.5,17.5 8,5 27.5,10 27.5,10 0,0 -8,-50 -51.5,-47.5 -43.500003,2.5 -52.500001,37.5 -55.500001,52.5 z"
         style="fill:#99b000;fill-rule:evenodd;stroke:none;stroke-width:1px;stroke-linecap:butt;stroke-linejoin:miter;stroke-opacity:1" />
      <path
         style="fill:#99b000;fill-rule:evenodd;stroke:none;stroke-width:1px;stroke-linecap:butt;stroke-linejoin:miter;stroke-opacity:1"
         d="m 239.42635,704.82557 c 0,0 20.5,-1.5 36.5,-7.5 16,-6 26.5,-25 26.5,-25 0,0 8.5,12.5 16.5,17.5 8,5 27.5,10 27.5,10 0,0 -8,-50 -51.5,-47.5 -43.5,2.5 -52.5,37.5 -55.5,52.5 z"
         id="path4405"
         inkscape:connector-curvature="0" />
      <path
         style="fill:#99b000;fill-rule:evenodd;stroke:none;stroke-width:1px;stroke-linecap:butt;stroke-linejoin:miter;stroke-opacity:1"
         d="m 355.85767,718.31166 c 10.95733,-0.53723 38.5665,23.63517 42.05187,55.13516 -23.06252,0 -51.95103,-36.30525 -43.9541,-51.77949 0.37638,1.03333 -1.24456,1.14842 1.90223,-3.35567 z M 244.33225,744.4618 c 0.24309,0.25936 0.49179,0.5135 0.73828,0.76953 -0.52642,0.33035 -1.03907,0.6543 -1.03907,0.6543 0,0 0.24563,-1.16788 0.30079,-1.42383 z"
         id="path4412"
         inkscape:connector-curvature="0"
         sodipodi:nodetypes="cccccccc" />
    </g>
  </g>
</svg>
