<?xml version="1.0" encoding="UTF-8" standalone="no"?>
<!-- Created with Inkscape (http://www.inkscape.org/) -->

<svg
   xmlns:dc="http://purl.org/dc/elements/1.1/"
   xmlns:cc="http://creativecommons.org/ns#"
   xmlns:rdf="http://www.w3.org/1999/02/22-rdf-syntax-ns#"
   xmlns:svg="http://www.w3.org/2000/svg"
   xmlns="http://www.w3.org/2000/svg"
   xmlns:xlink="http://www.w3.org/1999/xlink"
   xmlns:sodipodi="http://sodipodi.sourceforge.net/DTD/sodipodi-0.dtd"
   xmlns:inkscape="http://www.inkscape.org/namespaces/inkscape"
   width="210mm"
   height="297mm"
   viewBox="0 0 744.09448819 1052.3622047"
   id="svg2"
   version="1.1"
   inkscape:version="0.91 r13725"
   inkscape:export-xdpi="7.1982064"
   inkscape:export-ydpi="7.1982064"
   sodipodi:docname="user-helpdesk-faq.svg"
   inkscape:export-filename="C:\Users\johannes\Documents\Arbeit\RRZE\github3\bicons\32x32\categories\user-helpdesk-faq.png">
  <defs
     id="defs4">
    <linearGradient
       inkscape:collect="always"
       xlink:href="#linearGradient4254"
       id="linearGradient4268"
       x1="358.43118"
       y1="465.73074"
       x2="429.96555"
       y2="644.62878"
       gradientUnits="userSpaceOnUse"
       gradientTransform="matrix(1.1386133,0,0,1.1386133,-55.630557,-53.587548)" />
    <linearGradient
       inkscape:collect="always"
       id="linearGradient4254">
      <stop
         style="stop-color:#7a8597;stop-opacity:1"
         offset="0"
         id="stop4256" />
      <stop
         style="stop-color:#4e505d;stop-opacity:1"
         offset="1"
         id="stop4258" />
    </linearGradient>
    <linearGradient
       inkscape:collect="always"
       xlink:href="#linearGradient4254"
       id="linearGradient4260"
       x1="380.01031"
       y1="330.40619"
       x2="414.6156"
       y2="457.18103"
       gradientUnits="userSpaceOnUse"
       gradientTransform="matrix(1.1011151,0,0,1.1092129,-42.948687,-44.307158)" />
  </defs>
  <sodipodi:namedview
     id="base"
     pagecolor="#ffffff"
     bordercolor="#666666"
     borderopacity="1.0"
     inkscape:pageopacity="0.0"
     inkscape:pageshadow="2"
     inkscape:zoom="0.70710678"
     inkscape:cx="261.20405"
     inkscape:cy="474.70966"
     inkscape:document-units="px"
     inkscape:current-layer="layer1"
     showgrid="false"
     showguides="true"
     inkscape:guide-bbox="true"
     inkscape:window-width="1366"
     inkscape:window-height="721"
     inkscape:window-x="-4"
     inkscape:window-y="-4"
     inkscape:window-maximized="1"
     inkscape:snap-bbox="true"
     inkscape:bbox-paths="true"
     inkscape:bbox-nodes="true"
     inkscape:snap-nodes="false">
    <sodipodi:guide
       position="315.53572,730.17859"
       orientation="0,1"
       id="guide3338" />
    <sodipodi:guide
       position="351.25,330.17858"
       orientation="0,1"
       id="guide3340" />
    <sodipodi:guide
       position="189.10714,408.8393"
       orientation="1,0"
       id="guide3344" />
    <sodipodi:guide
       position="589.04521,468.07945"
       orientation="1,0"
       id="guide3346" />
    <inkscape:grid
       type="xygrid"
       id="grid3440" />
    <sodipodi:guide
       position="589.04521,378.30213"
       orientation="1,0"
       id="guide3411" />
  </sodipodi:namedview>
  <metadata
     id="metadata7">
    <rdf:RDF>
      <cc:Work
         rdf:about="">
        <dc:format>image/svg+xml</dc:format>
        <dc:type
           rdf:resource="http://purl.org/dc/dcmitype/StillImage" />
        <dc:title>user helpdesk faq</dc:title>
        <dc:date>June 2015</dc:date>
        <dc:creator>
          <cc:Agent>
            <dc:title>Johannes Hechler</dc:title>
          </cc:Agent>
        </dc:creator>
        <dc:rights>
          <cc:Agent>
            <dc:title>Johannes Hechler</dc:title>
          </cc:Agent>
        </dc:rights>
        <dc:publisher>
          <cc:Agent>
            <dc:title>RRZE</dc:title>
          </cc:Agent>
        </dc:publisher>
        <dc:contributor>
          <cc:Agent>
            <dc:title>Ute Weber, Hendrik Eggers, Joanna Barbach</dc:title>
          </cc:Agent>
        </dc:contributor>
        <dc:subject>
          <rdf:Bag>
            <rdf:li>faq</rdf:li>
            <rdf:li>frequently asked questions</rdf:li>
            <rdf:li>questions</rdf:li>
            <rdf:li>user</rdf:li>
            <rdf:li>help desk</rdf:li>
            <rdf:li>agent</rdf:li>
            <rdf:li>head set</rdf:li>
            <rdf:li>phone</rdf:li>
            <rdf:li>service</rdf:li>
            <rdf:li>identity management</rdf:li>
            <rdf:li>role</rdf:li>
          </rdf:Bag>
        </dc:subject>
        <cc:license
           rdf:resource="http://creativecommons.org/licenses/by-sa/3.0/" />
      </cc:Work>
      <cc:License
         rdf:about="http://creativecommons.org/licenses/by-sa/3.0/">
        <cc:permits
           rdf:resource="http://creativecommons.org/ns#Reproduction" />
        <cc:permits
           rdf:resource="http://creativecommons.org/ns#Distribution" />
        <cc:requires
           rdf:resource="http://creativecommons.org/ns#Notice" />
        <cc:requires
           rdf:resource="http://creativecommons.org/ns#Attribution" />
        <cc:permits
           rdf:resource="http://creativecommons.org/ns#DerivativeWorks" />
        <cc:requires
           rdf:resource="http://creativecommons.org/ns#ShareAlike" />
      </cc:License>
    </rdf:RDF>
  </metadata>
  <g
     inkscape:label="Ebene 1"
     inkscape:groupmode="layer"
     id="layer1">
    <g
       id="g4219">
      <flowRoot
         style="font-style:normal;font-weight:normal;font-size:40px;line-height:125%;font-family:sans-serif;letter-spacing:0px;word-spacing:0px;fill:#252525;fill-opacity:1;stroke:none;stroke-width:1px;stroke-linecap:butt;stroke-linejoin:miter;stroke-opacity:1"
         id="flowRoot4169-7"
         xml:space="preserve"
         transform="translate(-0.19929725,-0.08635822)"><flowRegion
           id="flowRegion4171-1"><rect
             y="427.07962"
             x="89.541069"
             height="88.78862"
             width="56.433445"
             id="rect4173-9" /></flowRegion><flowPara
           id="flowPara4175-3" /></flowRoot>      <rect
         inkscape:export-ydpi="4.9499998"
         inkscape:export-xdpi="4.9499998"
         y="322.18362"
         x="188.94557"
         height="400"
         width="400"
         id="rect3336-4"
         style="fill:none;fill-rule:evenodd;stroke:none;stroke-width:1px;stroke-linecap:butt;stroke-linejoin:miter;stroke-opacity:1" />
      <path
         id="path2176"
         d="M 346.16992 474.64648 L 346.16992 474.64844 C 346.03619 474.76675 345.91535 474.89299 345.77734 475.00781 L 338.32617 479.04492 C 289.73498 507.82988 255.92187 573.1715 255.92188 654.25195 C 255.92188 671.66693 257.50888 688.54075 260.47266 704.59375 C 264.86882 714.42835 275.91547 721.63662 289.15039 722.57812 L 289.15039 722.6875 L 485.85938 722.6875 L 485.85938 722.67773 C 495.41977 722.54277 503.99284 719.13531 510.02148 713.77734 C 508.94252 713.14509 507.88062 712.48327 506.8457 711.78125 A 17.50175 17.50175 0 0 1 491.79492 720.39844 L 478.43164 720.39844 A 17.50175 17.50175 0 0 1 461.93945 708.75391 L 457.41992 696.02734 L 439.30859 696.02734 L 434.78906 708.75391 A 17.50175 17.50175 0 0 1 418.29688 720.39844 L 404.74414 720.39844 A 17.50175 17.50175 0 0 1 388.39453 696.65625 L 396.65234 675.02734 L 383.74414 675.02734 L 383.74414 702.89844 A 17.50175 17.50175 0 0 1 366.24414 720.39844 L 353.39062 720.39844 A 17.50175 17.50175 0 0 1 335.89062 702.89844 L 335.89062 607.89258 A 17.50175 17.50175 0 0 1 353.39062 590.39258 L 407.98828 590.39258 A 17.50175 17.50175 0 0 1 424.48633 602.12109 L 424.66602 601.65234 A 17.50175 17.50175 0 0 1 441.01367 590.39258 L 455.58594 590.39258 A 17.50175 17.50175 0 0 1 471.93945 601.66016 L 483.5918 632.23438 C 486.25216 623.16624 490.5517 614.86859 496.76367 607.92969 A 17.50175 17.50175 0 0 1 496.76758 607.92578 C 501.89825 602.19789 508.15215 597.70401 515.06836 594.49414 C 505.65341 553.97096 486.8634 520.1953 462.44336 497.13477 C 450.84121 514.9664 438.67999 529.75335 424.04492 541.35352 C 419.483 544.96939 413.93445 546.98119 408.33789 547.20312 C 402.28026 547.44353 397.26798 546.87576 390.30859 546.13867 C 382.00171 545.25885 367.14648 542.52734 367.14648 542.52734 A 17.50175 17.50175 0 0 1 367.13281 542.52344 C 360.66737 541.37323 352.53948 535.73376 349.67578 528.40625 C 346.81217 521.07874 347.91221 514.64843 349.67969 509.00977 C 351.67848 502.63284 354.81065 496.5235 358.91016 489.36328 C 360.30495 486.92712 361.6733 484.53544 363.15039 482.1875 C 357.18543 480.27541 351.49587 477.7391 346.16992 474.64648 z M 397.98633 494.90625 C 397.41132 495.35321 397.61023 495.12861 396.86914 495.75977 C 397.18003 495.49499 392.46196 501.20528 389.28516 506.75391 C 388.60571 507.94063 388.09704 509.07742 387.4668 510.30273 C 390.33284 510.7518 392.66579 511.19134 393.99414 511.33203 C 398.50162 511.80943 403.08727 511.93988 404.47852 512.05859 C 408.64035 508.54496 412.71047 504.26975 416.75 499.64062 A 17.50175 17.50175 0 0 1 409.48633 498.79883 C 409.48633 498.79883 405.17284 497.33134 400.71484 495.82422 C 399.74242 495.49547 398.92777 495.22345 397.98633 494.90625 z "
         style="fill:url(#linearGradient4268);fill-opacity:1;stroke:none;stroke-width:41.15159225;stroke-linecap:round;stroke-linejoin:round;stroke-opacity:1" />
      <path
         inkscape:connector-curvature="0"
         id="circle2187-6"
         d="m 389.36129,322.7754 a 72.285255,72.424042 0 0 0 -72.28711,72.42383 72.285255,72.424042 0 0 0 60.24219,71.33203 c 2.71981,-2.15601 5.15552,-3.8199 7.85351,-5.22266 3.68967,-1.91835 9.02476,-4.13282 16.10156,-2.16797 2.59657,0.72085 2.44963,0.77074 4.28125,1.38282 1.40704,0.47019 3.17274,1.06532 4.89454,1.64648 13.74128,-14.50093 20.22202,-26.68896 24.76953,-45.63476 l -6.81641,-5.41407 a 17.50175,17.50175 0 0 1 -0.7168,-0.59961 c -5.86961,-5.19444 -7.03984,-10.41071 -7.70508,-15.23437 -0.66523,-4.82366 -0.24847,-9.66792 1.19727,-14.61523 a 17.50175,17.50175 0 0 0 0.002,0 c 1.90887,-6.53209 4.7587,-12.3096 8.46289,-20 1.8521,-3.84522 3.79055,-7.66524 5.70508,-11.08399 1.33493,-2.38377 2.1974,-4.27193 3.97657,-6.61328 A 72.285255,72.424042 0 0 0 389.36134,322.7754 Z m 70.35937,56.2207 c -1.97133,4.34309 -3.4061,7.96651 -3.93554,9.17774 l 5.77539,4.58594 a 72.285255,72.424042 0 0 0 -1.83985,-13.76368 z"
         style="fill:url(#linearGradient4260);fill-opacity:1;stroke:none;stroke-width:14;stroke-miterlimit:4;stroke-dasharray:none;stroke-opacity:1" />
      <flowRoot
         transform="translate(-0.09964625,5.7789296e-6)"
         style="font-style:normal;font-weight:normal;font-size:40px;line-height:125%;font-family:sans-serif;letter-spacing:0px;word-spacing:0px;fill:#252525;fill-opacity:1;stroke:none;stroke-width:1px;stroke-linecap:butt;stroke-linejoin:miter;stroke-opacity:1"
         id="flowRoot4169"
         xml:space="preserve"><flowRegion
           id="flowRegion4171"><rect
             y="427.07962"
             x="89.541069"
             height="88.78862"
             width="56.433445"
             id="rect4173" /></flowRegion><flowPara
           id="flowPara4175" /></flowRoot>      <rect
         inkscape:export-ydpi="4.9499998"
         inkscape:export-xdpi="4.9499998"
         y="322.27005"
         x="189.04521"
         height="400"
         width="400"
         id="rect3336"
         style="fill:none;fill-rule:evenodd;stroke:none;stroke-width:1px;stroke-linecap:butt;stroke-linejoin:miter;stroke-opacity:1" />
      <path
         sodipodi:nodetypes="zszzczzccczzzczzsz"
         inkscape:connector-curvature="0"
         id="rect4155"
         d="m 461.36197,465.01261 c 15.70613,-27.85182 24.90999,-55.75 30.26415,-81.78287 0.42683,-2.07531 0.0292,-3.78121 -1.26828,-5.77409 -1.29764,-1.99288 -5.35827,-7.63775 -9.3245,-12.53207 -3.96622,-4.89433 -14.76586,-16.47596 -14.76586,-16.47596 -2.80491,-3.00129 -7.33803,-0.859 -11.49713,3.38868 -4.1591,4.24767 -15.21034,28.31804 -16.79617,33.74471 -1.58582,5.42668 -0.61198,10.13609 1.30783,11.83507 l 15.29843,12.14773 c -5.83431,30.96823 -15.93155,50.24968 -39.45784,72.66745 0,0 -17.29704,-5.88499 -18.53235,-6.22793 -1.2353,-0.34298 -4.00359,0.41741 -11.06684,6.43285 -7.06326,6.01547 -17.02394,25.04262 -19.14457,31.80824 -2.12062,6.76561 -0.22681,10.33077 3.81815,11.05037 0,0 15.6893,2.77687 21.95388,3.44038 6.26455,0.6635 13.56649,1.05748 15.49289,0.98103 1.9264,-0.0764 3.87229,-0.76102 5.53162,-2.07624 17.80483,-14.1126 32.48045,-34.77549 48.18659,-62.62735 z"
         style="color:#252525;font-style:normal;font-variant:normal;font-weight:normal;font-stretch:normal;font-size:medium;line-height:normal;font-family:sans-serif;text-indent:0;text-align:start;text-decoration:none;text-decoration-line:none;text-decoration-style:solid;text-decoration-color:#252525;letter-spacing:normal;word-spacing:normal;text-transform:none;direction:ltr;block-progression:tb;writing-mode:lr-tb;baseline-shift:baseline;text-anchor:start;white-space:normal;clip-rule:nonzero;display:inline;overflow:visible;visibility:visible;opacity:1;isolation:auto;mix-blend-mode:normal;color-interpolation:sRGB;color-interpolation-filters:linearRGB;solid-color:#252525;solid-opacity:1;fill:#99b000;fill-opacity:1;fill-rule:nonzero;stroke:none;stroke-width:20;stroke-linecap:butt;stroke-linejoin:round;stroke-miterlimit:4;stroke-dasharray:none;stroke-dashoffset:0;stroke-opacity:1;color-rendering:auto;image-rendering:auto;shape-rendering:auto;text-rendering:auto;enable-background:accumulate" />
      <text
         sodipodi:linespacing="125%"
         id="text4175"
         y="703.60431"
         x="340.53894"
         style="font-style:normal;font-weight:normal;font-size:130.32208252px;line-height:125%;font-family:sans-serif;letter-spacing:0px;word-spacing:0px;fill:#99b000;fill-opacity:1;stroke:#99b000;stroke-width:3.10631299;stroke-linecap:butt;stroke-linejoin:miter;stroke-miterlimit:4;stroke-dasharray:none;stroke-opacity:1"
         xml:space="preserve"><tspan
           style="font-style:normal;font-variant:normal;font-weight:normal;font-stretch:normal;font-family:sans-serif;-inkscape-font-specification:sans-serif;fill:#99b000;fill-opacity:1;stroke:#99b000;stroke-width:3.10631299;stroke-miterlimit:4;stroke-dasharray:none"
           y="703.60431"
           x="340.53894"
           id="tspan4177"
           sodipodi:role="line">FAQ</tspan></text>
    </g>
  </g>
</svg>
