<?xml version="1.0" encoding="UTF-8" standalone="no"?>
<!-- Created with Inkscape (http://www.inkscape.org/) -->

<svg
   xmlns:dc="http://purl.org/dc/elements/1.1/"
   xmlns:cc="http://creativecommons.org/ns#"
   xmlns:rdf="http://www.w3.org/1999/02/22-rdf-syntax-ns#"
   xmlns:svg="http://www.w3.org/2000/svg"
   xmlns="http://www.w3.org/2000/svg"
   xmlns:sodipodi="http://sodipodi.sourceforge.net/DTD/sodipodi-0.dtd"
   xmlns:inkscape="http://www.inkscape.org/namespaces/inkscape"
   width="210mm"
   height="297mm"
   viewBox="0 0 744.09448819 1052.3622047"
   id="svg2"
   version="1.1"
   inkscape:version="0.91 r13725"
   inkscape:export-xdpi="7.1999736"
   inkscape:export-ydpi="7.1999736"
   sodipodi:docname="user-group.svg"
   inkscape:export-filename="C:\Users\johannes\Documents\Arbeit\RRZE\github3\bicons\32x32\categories\user-group.png">
  <defs
     id="defs4" />
  <sodipodi:namedview
     id="base"
     pagecolor="#ffffff"
     bordercolor="#666666"
     borderopacity="1.0"
     inkscape:pageopacity="0.0"
     inkscape:pageshadow="2"
     inkscape:zoom="0.70710678"
     inkscape:cx="271.94023"
     inkscape:cy="527.57541"
     inkscape:document-units="px"
     inkscape:current-layer="layer1"
     showgrid="false"
     showguides="true"
     inkscape:guide-bbox="true"
     inkscape:window-width="1366"
     inkscape:window-height="721"
     inkscape:window-x="-4"
     inkscape:window-y="-4"
     inkscape:window-maximized="1"
     inkscape:snap-bbox="true"
     inkscape:bbox-paths="true"
     inkscape:bbox-nodes="true"
     inkscape:snap-nodes="false">
    <sodipodi:guide
       position="315.53572,730.17859"
       orientation="0,1"
       id="guide3338" />
    <sodipodi:guide
       position="351.25,330.17858"
       orientation="0,1"
       id="guide3340" />
    <sodipodi:guide
       position="189.10714,408.8393"
       orientation="1,0"
       id="guide3344" />
    <sodipodi:guide
       position="589.04521,468.07945"
       orientation="1,0"
       id="guide3346" />
    <inkscape:grid
       type="xygrid"
       id="grid3440" />
    <sodipodi:guide
       position="589.04521,378.30213"
       orientation="1,0"
       id="guide3411" />
  </sodipodi:namedview>
  <metadata
     id="metadata7">
    <rdf:RDF>
      <cc:Work
         rdf:about="">
        <dc:format>image/svg+xml</dc:format>
        <dc:type
           rdf:resource="http://purl.org/dc/dcmitype/StillImage" />
        <dc:title>user group</dc:title>
        <dc:date>June 2015</dc:date>
        <dc:creator>
          <cc:Agent>
            <dc:title>Johannes Hechler</dc:title>
          </cc:Agent>
        </dc:creator>
        <dc:rights>
          <cc:Agent>
            <dc:title>Johannes Hechler</dc:title>
          </cc:Agent>
        </dc:rights>
        <dc:publisher>
          <cc:Agent>
            <dc:title>RRZE</dc:title>
          </cc:Agent>
        </dc:publisher>
        <dc:contributor>
          <cc:Agent>
            <dc:title>Ute Weber, Hendrik Eggers, Joanna Barbach</dc:title>
          </cc:Agent>
        </dc:contributor>
        <dc:subject>
          <rdf:Bag>
            <rdf:li>user</rdf:li>
            <rdf:li>group</rdf:li>
            <rdf:li>identity management</rdf:li>
            <rdf:li>role</rdf:li>
            <rdf:li>template</rdf:li>
          </rdf:Bag>
        </dc:subject>
        <cc:license
           rdf:resource="http://creativecommons.org/licenses/by-sa/3.0/" />
      </cc:Work>
      <cc:License
         rdf:about="http://creativecommons.org/licenses/by-sa/3.0/">
        <cc:permits
           rdf:resource="http://creativecommons.org/ns#Reproduction" />
        <cc:permits
           rdf:resource="http://creativecommons.org/ns#Distribution" />
        <cc:requires
           rdf:resource="http://creativecommons.org/ns#Notice" />
        <cc:requires
           rdf:resource="http://creativecommons.org/ns#Attribution" />
        <cc:permits
           rdf:resource="http://creativecommons.org/ns#DerivativeWorks" />
        <cc:requires
           rdf:resource="http://creativecommons.org/ns#ShareAlike" />
      </cc:License>
    </rdf:RDF>
  </metadata>
  <g
     inkscape:label="Ebene 1"
     inkscape:groupmode="layer"
     id="layer1">
    <path
       inkscape:connector-curvature="0"
       style="fill:#4e505d;fill-opacity:1;stroke:none;stroke-width:41.15159225;stroke-linecap:round;stroke-linejoin:round;stroke-opacity:1"
       d="m 484.21766,322.18377 c -26.11664,4e-5 -47.28703,21.21213 -47.28711,47.37891 6e-5,26.1668 21.17045,47.37886 47.28711,47.3789 26.11666,-3e-5 47.289,-21.2121 47.28906,-47.3789 -8e-5,-26.16679 -21.17242,-47.37888 -47.28906,-47.37891 z m -28.25391,105.34961 0,0.004 c -0.0875,0.077 -0.16753,0.16122 -0.25781,0.23632 l -4.87305,2.63868 c -0.13545,0.0802 -0.26724,0.16715 -0.40234,0.24804 0.1041,1.49684 0.17578,3.00191 0.17578,4.52344 -4e-5,18.61338 -7.96284,35.46721 -20.59375,47.41992 31.22437,19.4929 53.57082,55.0704 58.75781,101.19727 l 58.57617,0 0,-0.01 c 9.71798,-0.1372 17.90429,-5.42453 20.6543,-12.67383 1.84014,-10.2488 2.82227,-21.00124 2.82227,-32.08984 0,-55.5298 -24.85085,-94.02979 -59.02149,-111.08789 -8.15829,4.5805 -17.56371,7.20703 -27.56445,7.20703 -10.29226,0 -19.95317,-2.78198 -28.27344,-7.61328 z m -44.16015,86.26953 c -4.35356,1.66211 -8.89762,2.9408 -13.58204,3.78906 -0.84417,6.82454 -1.29882,13.96486 -1.29882,21.44141 0,11.3929 1.03964,22.43179 2.97851,32.93359 2.87595,6.4337 10.10158,11.14973 18.75977,11.76563 l 0,0.0684 33.91406,0 C 447.98045,549.65821 432.0658,526.6685 411.8036,513.80295 Z"
       id="path4205" />
    <path
       style="color:#000000;clip-rule:nonzero;display:inline;overflow:visible;visibility:visible;opacity:1;isolation:auto;mix-blend-mode:normal;color-interpolation:sRGB;color-interpolation-filters:linearRGB;solid-color:#000000;solid-opacity:1;fill:none;fill-opacity:1;fill-rule:nonzero;stroke:none;stroke-width:36;stroke-linecap:butt;stroke-linejoin:round;stroke-miterlimit:4;stroke-dasharray:none;stroke-dashoffset:0;stroke-opacity:1;color-rendering:auto;image-rendering:auto;shape-rendering:auto;text-rendering:auto;enable-background:accumulate"
       d="m 189.04375,322.18368 400.00146,0 0,399.99995 -400.00146,0 z"
       id="rect4513"
       inkscape:connector-curvature="0" />
    <path
       inkscape:connector-curvature="0"
       style="fill:#99b000;fill-opacity:1;stroke:none;stroke-width:41.15159225;stroke-linecap:round;stroke-linejoin:round;stroke-opacity:1"
       d="m 385.31922,387.80486 c -26.11664,4e-5 -47.28898,21.21213 -47.28906,47.37891 6e-5,26.1668 21.1724,47.38082 47.28906,47.38086 26.11666,-3e-5 47.28705,-21.21406 47.28711,-47.38086 -8e-5,-26.16679 -21.17047,-47.37888 -47.28711,-47.37891 z m 27.58203,105.75586 c -8.15829,4.5805 -17.56371,7.20703 -27.56445,7.20703 -9.81417,0 -19.05059,-2.53315 -27.10156,-6.95703 1.01841,4.55916 1.57225,9.28563 1.57226,14.13477 -4e-5,18.61392 -7.9641,35.46574 -20.5957,47.41797 29.59228,18.47396 51.19994,51.40425 57.79492,94.06054 l 51.43945,0 0,-0.01 c 9.71798,-0.1372 17.90429,-5.42453 20.6543,-12.67383 1.84014,-10.2488 2.82422,-21.00124 2.82422,-32.08984 0,-55.5298 -24.8528,-94.03175 -59.02344,-111.08985 z m -91.89453,93.00391 c -7.06484,2.69764 -14.6269,4.40588 -22.49219,4.84375 -0.31608,4.29873 -0.49023,8.70778 -0.49023,13.24609 0,11.3929 1.03964,22.4318 2.97851,32.9336 2.87595,6.4337 10.09963,11.14972 18.75782,11.76562 l 0,0.0703 40.86328,0 c -5.73328,-30.23404 -20.80093,-50.91092 -39.61719,-62.85936 z"
       id="path4203" />
    <path
       style="fill:#4e505d;fill-opacity:1;stroke:none;stroke-width:41.15159225;stroke-linecap:round;stroke-linejoin:round;stroke-opacity:1"
       d="m 294.5189,460.56527 c -26.11664,4e-5 -47.28836,21.21238 -47.28844,47.37916 5e-5,26.1668 21.17178,47.37916 47.28844,47.3792 26.11666,-3e-5 47.28839,-21.2124 47.28845,-47.3792 -8e-5,-26.16679 -21.17181,-47.37913 -47.28845,-47.37916 z m -28.25423,105.35296 c -0.0875,0.077 -0.16782,0.1613 -0.2581,0.2364 l -4.87323,2.6398 c -31.78801,18.8309 -53.90959,55.5783 -53.90959,108.6204 0,11.3929 1.03949,22.4315 2.97836,32.9333 2.87595,6.4337 10.10131,11.1493 18.7595,11.7652 l 0,0.07 128.68564,0 0,-0.01 c 9.71798,-0.1372 17.90306,-5.4245 20.65307,-12.6738 1.84014,-10.2488 2.82377,-21.0013 2.82377,-32.0899 0,-55.5298 -24.85239,-94.0309 -59.02303,-111.089 -8.15829,4.5805 -17.56353,7.2076 -27.56427,7.2076 -10.29226,0 -19.95185,-2.7826 -28.27212,-7.6139 z"
       id="path2176"
       inkscape:connector-curvature="0"
       sodipodi:nodetypes="ssssscccsccccccscscc" />
  </g>
</svg>
