<?xml version="1.0" encoding="UTF-8" standalone="no"?>
<!-- Created with Inkscape (http://www.inkscape.org/) -->
<svg xmlns:dc="http://purl.org/dc/elements/1.1/" xmlns:cc="http://creativecommons.org/ns#" xmlns:rdf="http://www.w3.org/1999/02/22-rdf-syntax-ns#" xmlns:svg="http://www.w3.org/2000/svg" xmlns="http://www.w3.org/2000/svg" xmlns:xlink="http://www.w3.org/1999/xlink" xmlns:sodipodi="http://sodipodi.sourceforge.net/DTD/sodipodi-0.dtd" xmlns:inkscape="http://www.inkscape.org/namespaces/inkscape" width="210mm" height="297mm" viewBox="0 0 744.09448819 1052.3622047" id="svg2" version="1.1" inkscape:version="0.91 r13725" inkscape:export-xdpi="4" inkscape:export-ydpi="4">
  <defs id="defs4">
    <linearGradient inkscape:collect="always" id="linearGradient4254">
      <stop style="stop-color:#9397a2;stop-opacity:1" offset="0" id="stop4256"/>
      <stop style="stop-color:#5a6578;stop-opacity:1" offset="1" id="stop4258"/>
    </linearGradient>
    <linearGradient id="linearGradient2224">
      <stop id="stop2226" offset="0" style="stop-color:#7c7c7c;stop-opacity:1;"/>
      <stop id="stop2228" offset="1" style="stop-color:#b8b8b8;stop-opacity:1;"/>
    </linearGradient>
    <linearGradient id="linearGradient15218">
      <stop id="stop15220" offset="0" style="stop-color:#eeeeef;stop-opacity:1;"/>
      <stop id="stop2736" offset="0.59928656" style="stop-color:#d3d7cf;stop-opacity:1;"/>
      <stop id="stop2738" offset="0.82758623" style="stop-color:#ffffff;stop-opacity:1;"/>
      <stop id="stop15222" offset="1" style="stop-color:#d3d7cf;stop-opacity:1;"/>
    </linearGradient>
    <pattern y="0" x="0" height="6" width="6" patternUnits="userSpaceOnUse" id="EMFhbasepattern"/>
    <pattern y="0" x="0" height="6" width="6" patternUnits="userSpaceOnUse" id="EMFhbasepattern-5"/>
    <linearGradient inkscape:collect="always" xlink:href="#linearGradient4254" id="linearGradient4260" x1="380.01031" y1="330.40619" x2="414.6156" y2="457.18103" gradientUnits="userSpaceOnUse" gradientTransform="translate(0.37005758,-0.39466108)"/>
    <linearGradient inkscape:collect="always" xlink:href="#linearGradient4254" id="linearGradient4268" x1="358.43118" y1="465.73074" x2="429.96555" y2="644.62878" gradientUnits="userSpaceOnUse"/>
  </defs>
  <sodipodi:namedview id="base" pagecolor="#ffffff" bordercolor="#666666" borderopacity="1.0" inkscape:pageopacity="0.0" inkscape:pageshadow="2" inkscape:zoom="0.5" inkscape:cx="-6.0070854" inkscape:cy="474.33131" inkscape:document-units="px" inkscape:current-layer="layer1" showgrid="false" showguides="true" inkscape:guide-bbox="true" inkscape:window-width="1366" inkscape:window-height="721" inkscape:window-x="-4" inkscape:window-y="-4" inkscape:window-maximized="1">
    <sodipodi:guide position="315.53572,730.17859" orientation="0,1" id="guide3338"/>
    <sodipodi:guide position="351.25,330.17858" orientation="0,1" id="guide3340"/>
    <sodipodi:guide position="189.10714,408.8393" orientation="1,0" id="guide3344"/>
    <sodipodi:guide position="589.04521,468.07945" orientation="1,0" id="guide3346"/>
    <inkscape:grid type="xygrid" id="grid3440"/>
    <sodipodi:guide position="0,0" orientation="0,1" id="guide3405"/>
    <sodipodi:guide position="214.125,684.50002" orientation="1,0" id="guide3407"/>
    <sodipodi:guide position="0,0" orientation="0,1" id="guide3409"/>
    <sodipodi:guide position="589.04521,378.30213" orientation="1,0" id="guide3411"/>
    <sodipodi:guide position="564.00001,683.37502" orientation="1,0" id="guide3413"/>
    <sodipodi:guide position="0,0" orientation="0,1" id="guide4168"/>
  </sodipodi:namedview>
  <metadata id="metadata7">
    <rdf:RDF>
      <cc:Work rdf:about="">
        <dc:format>image/svg+xml</dc:format>
        <dc:type rdf:resource="http://purl.org/dc/dcmitype/StillImage"/>
        <dc:title>user teacher</dc:title>
      </cc:Work>
    </rdf:RDF>
  </metadata>
  <g inkscape:label="Ebene 1" inkscape:groupmode="layer" id="layer1">
    <g id="g4185" transform="matrix(1.1386133,0,0,1.1386133,-55.673911,-53.501199)">
      <g id="g4289">
        <path style="fill:url(#linearGradient4268);fill-opacity:1;stroke:none;stroke-width:41.15159225;stroke-linecap:round;stroke-linejoin:round;stroke-opacity:1" d="m 354.64258,460.41602 c -0.11745,0.1039 -0.22449,0.21556 -0.3457,0.3164 l -6.54297,3.54492 c -42.67576,25.28071 -72.76172,86.25893 -72.76172,157.46875 0,15.29493 1.39507,30.1142 3.99804,44.21289 3.86098,8.63739 13.56182,14.96807 25.18555,15.79493 l 0,0.0957 172.76172,0 0,-0.008 c 13.04649,-0.18416 24.03463,-7.28341 27.72656,-17.01563 2.4704,-13.75919 3.79102,-28.19351 3.79102,-43.08008 0,-74.54936 -32.9771,-137.88441 -78.85156,-160.78515 -10.95259,6.14942 -23.5778,9.67773 -37.00391,9.67773 -13.81748,10e-6 -26.78697,-3.73654 -37.95703,-10.22265 z" id="path2176" inkscape:connector-curvature="0" sodipodi:nodetypes="cccsccccccscsc"/>
        <ellipse style="fill:url(#linearGradient4260);fill-opacity:1;stroke:none;stroke-width:14;stroke-miterlimit:4;stroke-dasharray:none;stroke-opacity:1" id="circle2187-6" cy="395.83826" cx="392.98022" rx="65.647316" ry="65.293182"/>
      </g>
      <path id="path4244-0" d="m 361.43339,362.31108 a 23.669683,23.669683 0 0 0 -18.25359,8.6193 c -3.03411,0.021 -5.57719,0.0431 -8.20426,0.0431 -3.16258,0 -3.39695,-0.0369 -3.308,-0.0575 -3.93708,0.16895 -3.97127,8.12058 -0.11096,8.46931 0.22381,-0.0141 1.01464,-0.0287 3.7477,-0.0287 1.49655,0 1.8606,0.0105 3.41896,0.0164 a 23.669683,23.669683 0 0 0 -0.95953,6.60779 23.669683,23.669683 0 0 0 23.66968,23.66969 23.669683,23.669683 0 0 0 23.66969,-23.66969 23.669683,23.669683 0 0 0 -0.93077,-6.53587 c 2.89407,-0.43889 6.55197,-0.88761 9.49458,-0.88761 2.65409,0 5.59557,0.36997 8.00496,0.76433 a 23.669683,23.669683 0 0 0 -1.05403,6.97762 23.669683,23.669683 0 0 0 23.66968,23.66968 23.669683,23.669683 0 0 0 23.66968,-23.66968 23.669683,23.669683 0 0 0 -0.81776,-6.13726 c 1.68165,-0.007 2.08763,-0.0164 3.71278,-0.0164 2.7345,0 3.52451,0.0146 3.7477,0.0287 3.8611,-0.3488 3.82646,-8.30557 -0.11301,-8.47137 0.09,0.0206 -0.13925,0.0595 -3.30595,0.0595 -2.64419,0 -5.22237,-0.0241 -8.25768,-0.0452 a 23.669683,23.669683 0 0 0 -18.63576,-9.08776 23.669683,23.669683 0 0 0 -18.52687,8.97682 c -1.76008,-0.33761 -8.37853,-1.5636 -12.09374,-1.5636 -3.74382,0 -11.48059,1.2444 -13.44568,1.56976 a 23.669683,23.669683 0 0 0 -18.78782,-9.30135 z m 93.16651,17.86322 c -0.0711,0.006 -0.13374,0.0297 -0.20753,0.0308 0,0 0.44981,-0.0155 0.20753,-0.0308 z m -123.04332,-0.78899 c -0.2432,0.0154 0.20753,0.0308 0.20753,0.0308 -0.0737,-10e-4 -0.13639,-0.0244 -0.20753,-0.0308 z m 0.11096,-8.46931 c 0.0338,-10e-4 0.0622,-0.0141 0.0966,-0.0144 0,0 -0.0652,0.007 -0.0966,0.0144 z" style="opacity:1;fill:#abbe24;fill-opacity:1;stroke:#ffffff;stroke-width:30;stroke-linecap:square;stroke-linejoin:round;stroke-miterlimit:4;stroke-dasharray:none;stroke-opacity:1" inkscape:connector-curvature="0"/>
      <path id="path4244" d="m 361.33288,362.41159 a 23.669683,23.669683 0 0 0 -18.25359,8.6193 c -3.03411,0.021 -5.57719,0.0431 -8.20426,0.0431 -3.16258,0 -3.39695,-0.0369 -3.308,-0.0575 -3.93708,0.16895 -3.97127,8.12058 -0.11096,8.46931 0.22381,-0.0141 1.01464,-0.0287 3.7477,-0.0287 1.49655,0 1.8606,0.0105 3.41896,0.0164 a 23.669683,23.669683 0 0 0 -0.95953,6.60779 23.669683,23.669683 0 0 0 23.66968,23.66969 23.669683,23.669683 0 0 0 23.66969,-23.66969 23.669683,23.669683 0 0 0 -0.93077,-6.53587 c 2.89407,-0.43889 6.55197,-0.88761 9.49458,-0.88761 2.65409,0 5.59557,0.36997 8.00496,0.76433 a 23.669683,23.669683 0 0 0 -1.05403,6.97762 23.669683,23.669683 0 0 0 23.66968,23.66968 23.669683,23.669683 0 0 0 23.66968,-23.66968 23.669683,23.669683 0 0 0 -0.81776,-6.13726 c 1.68165,-0.007 2.08763,-0.0164 3.71278,-0.0164 2.7345,0 3.52451,0.0146 3.7477,0.0287 3.8611,-0.3488 3.82646,-8.30557 -0.11301,-8.47137 0.09,0.0206 -0.13925,0.0595 -3.30595,0.0595 -2.64419,0 -5.22237,-0.0241 -8.25768,-0.0452 a 23.669683,23.669683 0 0 0 -18.63576,-9.08776 23.669683,23.669683 0 0 0 -18.52687,8.97682 c -1.76008,-0.33761 -8.37853,-1.5636 -12.09374,-1.5636 -3.74382,0 -11.48059,1.2444 -13.44568,1.56976 a 23.669683,23.669683 0 0 0 -18.78782,-9.30135 z m 93.16651,17.86322 c -0.0711,0.006 -0.13374,0.0297 -0.20753,0.0308 0,0 0.44981,-0.0155 0.20753,-0.0308 z m -123.04332,-0.78899 c -0.2432,0.0154 0.20753,0.0308 0.20753,0.0308 -0.0737,-10e-4 -0.13639,-0.0244 -0.20753,-0.0308 z m 0.11096,-8.46931 c 0.0338,-10e-4 0.0622,-0.0141 0.0966,-0.0144 0,0 -0.0652,0.007 -0.0966,0.0144 z" style="opacity:1;fill:#abbe24;fill-opacity:1;stroke:none;stroke-width:7.44399977;stroke-linecap:square;stroke-linejoin:round;stroke-miterlimit:4;stroke-dasharray:none;stroke-opacity:1" inkscape:connector-curvature="0"/>
      <circle r="11" cy="385.7309" cx="360.30292" id="path4244-3" style="opacity:1;fill:#ffffff;fill-opacity:1;stroke:none;stroke-width:7.44399977;stroke-linecap:square;stroke-linejoin:round;stroke-miterlimit:4;stroke-dasharray:none;stroke-opacity:1"/>
      <path id="path4244-3-6" d="m 435.7145,386.01972 a 11.02837,11.02837 0 0 1 -11.02838,11.02836 11.02837,11.02837 0 0 1 -11.02836,-11.02836 11.02837,11.02837 0 0 1 11.02836,-11.02837 11.02837,11.02837 0 0 1 11.02838,11.02837 z" style="opacity:1;fill:#ffffff;fill-opacity:1;stroke:none;stroke-width:7.44399977;stroke-linecap:square;stroke-linejoin:round;stroke-miterlimit:4;stroke-dasharray:none;stroke-opacity:1" inkscape:connector-curvature="0"/>
    </g>
    <flowRoot xml:space="preserve" id="flowRoot4169" style="fill:black;stroke:none;stroke-opacity:1;stroke-width:1px;stroke-linejoin:miter;stroke-linecap:butt;fill-opacity:1;font-family:sans-serif;font-style:normal;font-weight:normal;font-size:40px;line-height:125%;letter-spacing:0px;word-spacing:0px"><flowRegion id="flowRegion4171"><rect id="rect4173" width="56.433445" height="88.78862" x="89.541069" y="427.07962"/></flowRegion><flowPara id="flowPara4175"/></flowRoot>    <rect style="fill:none;fill-rule:evenodd;stroke:none;stroke-width:1px;stroke-linecap:butt;stroke-linejoin:miter;stroke-opacity:1" id="rect3336" width="400" height="400" x="189.14485" y="322.27005" inkscape:export-xdpi="4.9499998" inkscape:export-ydpi="4.9499998"/>
    <g id="g4206" transform="matrix(1.0165268,0,0,1.0165268,-6.0924024,-32.03962)">
      <rect ry="17.642637" y="570.25543" x="383.63666" height="141.14134" width="191.56346" id="rect4272" style="opacity:1;fill:#ffffff;fill-opacity:1;stroke:#ffffff;stroke-width:30;stroke-linecap:square;stroke-linejoin:miter;stroke-miterlimit:4;stroke-dasharray:none;stroke-opacity:1"/>
      <rect transform="scale(1,-1)" ry="16.255898" y="-703.60425" x="387.45966" height="130.04741" width="181.63129" id="rect4272-0" style="opacity:1;fill:#abbe24;fill-opacity:1;stroke:none;stroke-width:8;stroke-linecap:square;stroke-linejoin:miter;stroke-miterlimit:4;stroke-dasharray:none;stroke-opacity:1"/>
      <text sodipodi:linespacing="82.999998%" id="text4289" y="632.41199" x="409.45392" style="font-style:normal;font-weight:normal;font-size:72.45343781px;line-height:82.99999833%;font-family:sans-serif;letter-spacing:0px;word-spacing:0px;fill:#000000;fill-opacity:1;stroke:none;stroke-width:1px;stroke-linecap:butt;stroke-linejoin:miter;stroke-opacity:1" xml:space="preserve"><tspan style="font-style:normal;font-variant:normal;font-weight:normal;font-stretch:normal;line-height:82.99999833%;font-family:'Segoe Script';-inkscape-font-specification:'Segoe Script';fill:#000000" id="tspan4293" y="632.41199" x="409.45392" sodipodi:role="line">1+1</tspan><tspan style="font-style:normal;font-variant:normal;font-weight:normal;font-stretch:normal;line-height:82.99999833%;font-family:'Segoe Script';-inkscape-font-specification:'Segoe Script';fill:#000000" id="tspan4297" y="692.54834" x="409.45392" sodipodi:role="line"> =2</tspan></text>
    </g>
  </g>
</svg>
