<?xml version="1.0" encoding="UTF-8" standalone="no"?>
<!-- Created with Inkscape (http://www.inkscape.org/) -->

<svg
   xmlns:dc="http://purl.org/dc/elements/1.1/"
   xmlns:cc="http://creativecommons.org/ns#"
   xmlns:rdf="http://www.w3.org/1999/02/22-rdf-syntax-ns#"
   xmlns:svg="http://www.w3.org/2000/svg"
   xmlns="http://www.w3.org/2000/svg"
   xmlns:sodipodi="http://sodipodi.sourceforge.net/DTD/sodipodi-0.dtd"
   xmlns:inkscape="http://www.inkscape.org/namespaces/inkscape"
   width="210mm"
   height="297mm"
   viewBox="0 0 744.09448819 1052.3622047"
   id="svg2"
   version="1.1"
   inkscape:version="0.91 r13725"
   inkscape:export-xdpi="7.1999736"
   inkscape:export-ydpi="7.1999736"
   sodipodi:docname="user-group.svg"
   inkscape:export-filename="C:\Users\johannes\Documents\Arbeit\RRZE\github3\bicons\32x32\categories\user-group.png">
  <defs
     id="defs4" />
  <sodipodi:namedview
     id="base"
     pagecolor="#ffffff"
     bordercolor="#666666"
     borderopacity="1.0"
     inkscape:pageopacity="0.0"
     inkscape:pageshadow="2"
     inkscape:zoom="0.70710678"
     inkscape:cx="366.88972"
     inkscape:cy="617.84871"
     inkscape:document-units="px"
     inkscape:current-layer="layer1"
     showgrid="false"
     showguides="true"
     inkscape:guide-bbox="true"
     inkscape:window-width="1366"
     inkscape:window-height="721"
     inkscape:window-x="-4"
     inkscape:window-y="-4"
     inkscape:window-maximized="1"
     inkscape:snap-bbox="true"
     inkscape:bbox-paths="true"
     inkscape:bbox-nodes="true"
     inkscape:snap-nodes="false">
    <sodipodi:guide
       position="315.53572,730.17859"
       orientation="0,1"
       id="guide3338" />
    <sodipodi:guide
       position="351.25,330.17858"
       orientation="0,1"
       id="guide3340" />
    <sodipodi:guide
       position="189.10714,408.8393"
       orientation="1,0"
       id="guide3344" />
    <sodipodi:guide
       position="589.04521,468.07945"
       orientation="1,0"
       id="guide3346" />
    <inkscape:grid
       type="xygrid"
       id="grid3440" />
    <sodipodi:guide
       position="589.04521,378.30213"
       orientation="1,0"
       id="guide3411" />
  </sodipodi:namedview>
  <metadata
     id="metadata7">
    <rdf:RDF>
      <cc:Work
         rdf:about="">
        <dc:format>image/svg+xml</dc:format>
        <dc:type
           rdf:resource="http://purl.org/dc/dcmitype/StillImage" />
        <dc:title>user group</dc:title>
        <dc:date>June 2015</dc:date>
        <dc:creator>
          <cc:Agent>
            <dc:title>Johannes Hechler</dc:title>
          </cc:Agent>
        </dc:creator>
        <dc:rights>
          <cc:Agent>
            <dc:title>Johannes Hechler</dc:title>
          </cc:Agent>
        </dc:rights>
        <dc:publisher>
          <cc:Agent>
            <dc:title>RRZE</dc:title>
          </cc:Agent>
        </dc:publisher>
        <dc:contributor>
          <cc:Agent>
            <dc:title>Ute Weber, Hendrik Eggers, Joanna Barbach</dc:title>
          </cc:Agent>
        </dc:contributor>
        <dc:subject>
          <rdf:Bag>
            <rdf:li>user</rdf:li>
            <rdf:li>group</rdf:li>
            <rdf:li>identity management</rdf:li>
            <rdf:li>role</rdf:li>
            <rdf:li>template</rdf:li>
          </rdf:Bag>
        </dc:subject>
        <cc:license
           rdf:resource="http://creativecommons.org/licenses/by-sa/3.0/" />
      </cc:Work>
      <cc:License
         rdf:about="http://creativecommons.org/licenses/by-sa/3.0/">
        <cc:permits
           rdf:resource="http://creativecommons.org/ns#Reproduction" />
        <cc:permits
           rdf:resource="http://creativecommons.org/ns#Distribution" />
        <cc:requires
           rdf:resource="http://creativecommons.org/ns#Notice" />
        <cc:requires
           rdf:resource="http://creativecommons.org/ns#Attribution" />
        <cc:permits
           rdf:resource="http://creativecommons.org/ns#DerivativeWorks" />
        <cc:requires
           rdf:resource="http://creativecommons.org/ns#ShareAlike" />
      </cc:License>
    </rdf:RDF>
  </metadata>
  <g
     inkscape:label="Ebene 1"
     inkscape:groupmode="layer"
     id="layer1">
    <g
       transform="translate(189.04375,-330.17849)"
       id="g4516">
      <path
         inkscape:connector-curvature="0"
         id="path4499"
         transform="translate(0,652.36214)"
         d="M 295.17383,0 A 47.288506,47.3793 0 0 0 247.88672,47.378906 47.288506,47.3793 0 0 0 295.17383,94.757812 47.288506,47.3793 0 0 0 342.46289,47.378906 47.288506,47.3793 0 0 0 295.17383,0 Z m -28.25391,99.349609 0,0.0039 c -0.0875,0.0774 -0.16753,0.161208 -0.25781,0.236328 l -4.87305,2.638673 c -0.31444,0.18627 -0.62106,0.39109 -0.93359,0.58203 0.52789,3.32409 0.80856,6.72573 0.80859,10.18945 5.6e-4,16.82857 -6.52757,32.20469 -17.10351,43.8418 30.35189,21.14125 50.58862,59.26655 55.33789,104.77539 l 58.40429,0 0,-0.01 c 9.71798,-0.1372 17.90429,-5.42453 20.6543,-12.67383 1.84014,-10.2488 2.82227,-21.00124 2.82227,-32.08984 0,-55.52982 -24.85085,-100.02975 -59.02149,-117.087888 -8.15829,4.580538 -17.56371,7.207028 -27.56445,7.207028 -10.29226,1e-5 -19.95317,-2.78196 -28.27344,-7.613278 z m -44.09961,86.283201 c -4.1283,1.5735 -8.42431,2.81279 -12.85156,3.65821 -1.36117,8.80203 -2.08984,18.00981 -2.08984,27.55859 0,11.3929 1.03964,22.43179 2.97851,32.93359 2.87595,6.4337 10.10158,11.14973 18.75977,11.76563 l 0,0.0684 33.99219,0 c -4.75639,-35.50975 -21.33489,-62.67543 -40.78907,-75.98438 z"
         style="fill:#4e505d;fill-opacity:1;stroke:none;stroke-width:41.15159225;stroke-linecap:round;stroke-linejoin:round;stroke-opacity:1" />
      <path
         inkscape:connector-curvature="0"
         id="path4501"
         transform="translate(0,652.36214)"
         d="M 196.375,65.621094 A 47.288506,47.3793 0 0 0 149.08594,113 47.288506,47.3793 0 0 0 196.375,160.38086 47.288506,47.3793 0 0 0 243.66406,113 47.288506,47.3793 0 0 0 196.375,65.621094 Z m -28.25391,99.349606 0,0.004 c -0.0875,0.0774 -0.16753,0.16121 -0.25781,0.23633 l -0.38672,0.20898 c 2.12194,6.41486 3.28709,13.25027 3.28711,20.3418 -5e-5,16.828 -6.52774,32.20322 -17.10351,43.83984 28.75035,20.02546 48.41955,55.295 54.45312,97.63867 l 51.39063,0 0,-0.01 c 9.71798,-0.1372 17.90233,-5.42453 20.65234,-12.67383 1.84014,-10.2488 2.82422,-21.00124 2.82422,-32.08984 0,-55.52982 -24.8528,-100.03171 -59.02344,-117.08985 -8.15829,4.58054 -17.56371,7.20703 -27.56445,7.20703 -10.29226,1e-5 -19.95122,-2.78196 -28.27149,-7.61328 z m -36.0664,33.29883 c -1.24189,1.89361 -2.4328,3.85258 -3.58789,5.85547 1.4136,-1.78893 2.62003,-3.75037 3.58789,-5.85547 z m -0.13477,60.125 c -6.86846,2.61792 -14.20742,4.29421 -21.83594,4.78516 -0.66079,6.254 -1.0039,12.6921 -1.0039,19.29101 0,11.3929 1.03964,22.4318 2.97851,32.9336 2.87595,6.4337 10.10158,11.14972 18.75977,11.76562 l 0,0.0703 40.75391,0 c -5.89464,-32.00753 -21.52314,-56.44327 -39.65235,-68.8457 z"
         style="fill:#99b000;fill-opacity:1;stroke:none;stroke-width:41.15159225;stroke-linecap:round;stroke-linejoin:round;stroke-opacity:1" />
      <path
         inkscape:connector-curvature="0"
         id="path2176"
         d="m 105.47515,790.74371 a 47.288506,47.3793 0 0 0 -47.288436,47.37916 47.288506,47.3793 0 0 0 47.288436,47.37916 47.288506,47.3793 0 0 0 47.28845,-47.37916 47.288506,47.3793 0 0 0 -47.28845,-47.37916 z m -28.254234,99.353 c -0.08749,0.0774 -0.167813,0.16126 -0.258098,0.23638 l -4.873228,2.63977 C 40.301575,911.80378 18.18,954.55112 18.18,1007.5933 c 0,11.3929 1.039486,22.4315 2.978364,32.9333 2.875944,6.4337 10.101302,11.1493 18.7595,11.7652 l 0,0.07 128.685636,0 0,-0.01 c 9.71798,-0.1372 17.90306,-5.4245 20.65307,-12.6738 1.84014,-10.2488 2.82377,-21.0013 2.82377,-32.0899 0,-55.52982 -24.85239,-100.03093 -59.02303,-117.08907 -8.15829,4.58054 -17.56353,7.20762 -27.56427,7.20762 -10.292264,1e-5 -19.951849,-2.78261 -28.272124,-7.61393 z"
         style="fill:#4e505d;fill-opacity:1;stroke:none;stroke-width:41.15159225;stroke-linecap:round;stroke-linejoin:round;stroke-opacity:1" />
      <path
         inkscape:connector-curvature="0"
         id="rect4513"
         d="m 0,652.36212 400.00146,0 0,399.99998 -400.00146,0 z"
         style="color:#000000;clip-rule:nonzero;display:inline;overflow:visible;visibility:visible;opacity:1;isolation:auto;mix-blend-mode:normal;color-interpolation:sRGB;color-interpolation-filters:linearRGB;solid-color:#000000;solid-opacity:1;fill:none;fill-opacity:1;fill-rule:nonzero;stroke:none;stroke-width:36;stroke-linecap:butt;stroke-linejoin:round;stroke-miterlimit:4;stroke-dasharray:none;stroke-dashoffset:0;stroke-opacity:1;color-rendering:auto;image-rendering:auto;shape-rendering:auto;text-rendering:auto;enable-background:accumulate" />
    </g>
  </g>
</svg>
