<?xml version="1.0" encoding="UTF-8" standalone="no"?>
<!-- Created with Inkscape (http://www.inkscape.org/) -->

<svg
   xmlns:dc="http://purl.org/dc/elements/1.1/"
   xmlns:cc="http://creativecommons.org/ns#"
   xmlns:rdf="http://www.w3.org/1999/02/22-rdf-syntax-ns#"
   xmlns:svg="http://www.w3.org/2000/svg"
   xmlns="http://www.w3.org/2000/svg"
   xmlns:xlink="http://www.w3.org/1999/xlink"
   xmlns:sodipodi="http://sodipodi.sourceforge.net/DTD/sodipodi-0.dtd"
   xmlns:inkscape="http://www.inkscape.org/namespaces/inkscape"
   width="210mm"
   height="297mm"
   viewBox="0 0 744.09448819 1052.3622047"
   id="svg2"
   version="1.1"
   inkscape:version="0.91 r13725"
   inkscape:export-xdpi="7.1999998"
   inkscape:export-ydpi="7.1999998"
   sodipodi:docname="user-examiner.svg"
   inkscape:export-filename="C:\Users\johannes\Documents\Arbeit\RRZE\github3\bicons\32x32\categories\user-examiner.png">
  <defs
     id="defs4">
    <linearGradient
       inkscape:collect="always"
       xlink:href="#linearGradient4254"
       id="linearGradient4268"
       x1="358.43118"
       y1="465.73074"
       x2="429.96555"
       y2="644.62878"
       gradientUnits="userSpaceOnUse"
       gradientTransform="matrix(1.1386133,0,0,1.1386133,-55.530905,-53.58757)" />
    <linearGradient
       inkscape:collect="always"
       id="linearGradient4254">
      <stop
         style="stop-color:#7a8597;stop-opacity:1"
         offset="0"
         id="stop4256" />
      <stop
         style="stop-color:#4e505d;stop-opacity:1"
         offset="1"
         id="stop4258" />
    </linearGradient>
    <linearGradient
       inkscape:collect="always"
       xlink:href="#linearGradient4254"
       id="linearGradient4260"
       x1="380.01031"
       y1="330.40619"
       x2="414.6156"
       y2="457.18103"
       gradientUnits="userSpaceOnUse"
       gradientTransform="matrix(1.1011151,0,0,1.1092129,-42.849035,-44.30718)" />
  </defs>
  <sodipodi:namedview
     id="base"
     pagecolor="#ffffff"
     bordercolor="#666666"
     borderopacity="1.0"
     inkscape:pageopacity="0.0"
     inkscape:pageshadow="2"
     inkscape:zoom="0.5"
     inkscape:cx="240.59429"
     inkscape:cy="476.6099"
     inkscape:document-units="px"
     inkscape:current-layer="layer1"
     showgrid="false"
     showguides="true"
     inkscape:guide-bbox="true"
     inkscape:window-width="1366"
     inkscape:window-height="721"
     inkscape:window-x="-4"
     inkscape:window-y="-4"
     inkscape:window-maximized="1"
     inkscape:snap-bbox="true"
     inkscape:bbox-paths="true"
     inkscape:bbox-nodes="true">
    <sodipodi:guide
       position="315.53572,730.17859"
       orientation="0,1"
       id="guide3338" />
    <sodipodi:guide
       position="351.25,330.17858"
       orientation="0,1"
       id="guide3340" />
    <sodipodi:guide
       position="189.10714,408.8393"
       orientation="1,0"
       id="guide3344" />
    <sodipodi:guide
       position="589.04521,468.07945"
       orientation="1,0"
       id="guide3346" />
    <inkscape:grid
       type="xygrid"
       id="grid3440" />
    <sodipodi:guide
       position="589.04521,378.30213"
       orientation="1,0"
       id="guide3411" />
  </sodipodi:namedview>
  <metadata
     id="metadata7">
    <rdf:RDF>
      <cc:Work
         rdf:about="">
        <dc:format>image/svg+xml</dc:format>
        <dc:type
           rdf:resource="http://purl.org/dc/dcmitype/StillImage" />
        <dc:title>user examiner</dc:title>
        <dc:date>June 2015</dc:date>
        <dc:creator>
          <cc:Agent>
            <dc:title>Johannes Hechler</dc:title>
          </cc:Agent>
        </dc:creator>
        <dc:rights>
          <cc:Agent>
            <dc:title>Johannes Hechler</dc:title>
          </cc:Agent>
        </dc:rights>
        <dc:publisher>
          <cc:Agent>
            <dc:title>RRZE</dc:title>
          </cc:Agent>
        </dc:publisher>
        <dc:contributor>
          <cc:Agent>
            <dc:title>Ute Weber, Hendrik Eggers, Joanna Barbach</dc:title>
          </cc:Agent>
        </dc:contributor>
        <dc:subject>
          <rdf:Bag>
            <rdf:li>user</rdf:li>
            <rdf:li>examiner</rdf:li>
            <rdf:li>identity management</rdf:li>
            <rdf:li>role</rdf:li>
            <rdf:li>auditor</rdf:li>
            <rdf:li>lecturerer</rdf:li>
            <rdf:li>teacher</rdf:li>
          </rdf:Bag>
        </dc:subject>
        <cc:license
           rdf:resource="http://creativecommons.org/licenses/by-sa/3.0/" />
      </cc:Work>
      <cc:License
         rdf:about="http://creativecommons.org/licenses/by-sa/3.0/">
        <cc:permits
           rdf:resource="http://creativecommons.org/ns#Reproduction" />
        <cc:permits
           rdf:resource="http://creativecommons.org/ns#Distribution" />
        <cc:requires
           rdf:resource="http://creativecommons.org/ns#Notice" />
        <cc:requires
           rdf:resource="http://creativecommons.org/ns#Attribution" />
        <cc:permits
           rdf:resource="http://creativecommons.org/ns#DerivativeWorks" />
        <cc:requires
           rdf:resource="http://creativecommons.org/ns#ShareAlike" />
      </cc:License>
    </rdf:RDF>
  </metadata>
  <g
     inkscape:label="Ebene 1"
     inkscape:groupmode="layer"
     id="layer1">
    <g
       id="g4216">
      <flowRoot
         style="font-style:normal;font-weight:normal;font-size:40px;line-height:125%;font-family:sans-serif;letter-spacing:0px;word-spacing:0px;fill:#252525;fill-opacity:1;stroke:none;stroke-width:1px;stroke-linecap:butt;stroke-linejoin:miter;stroke-opacity:1"
         id="flowRoot4169"
         xml:space="preserve"
         transform="translate(-0.099645,-0.08638)"><flowRegion
           id="flowRegion4171"><rect
             y="427.07962"
             x="89.541069"
             height="88.78862"
             width="56.433445"
             id="rect4173" /></flowRegion><flowPara
           id="flowPara4175" /></flowRoot>      <rect
         inkscape:export-ydpi="4.9499998"
         inkscape:export-xdpi="4.9499998"
         y="322.18362"
         x="189.04521"
         height="400"
         width="400"
         id="rect3336"
         style="fill:none;fill-rule:evenodd;stroke:none;stroke-width:1px;stroke-linecap:butt;stroke-linejoin:miter;stroke-opacity:1" />
      <path
         id="path2176"
         d="M 346.26953 474.64648 L 346.26953 474.64844 C 346.1358 474.76675 346.01497 474.89299 345.87695 475.00781 L 338.42578 479.04492 C 289.83459 507.82988 256.02148 573.1715 256.02148 654.25195 C 256.02148 671.66693 257.60848 688.54075 260.57227 704.59375 C 264.96843 714.42835 276.01507 721.63662 289.25 722.57812 L 289.25 722.6875 L 444.9668 722.6875 L 441.32031 712.43164 L 425.73047 717.97461 A 18.0018 18.0018 0 0 1 403.44141 693.28906 L 436.75781 623.19727 A 18.0018 18.0018 0 0 1 437.89844 621.17383 C 430.13597 608.94808 425.56446 594.52434 425.56445 579.06445 C 425.56445 547.17647 444.7462 519.53134 472.12109 507.05273 C 460.1308 493.46044 446.45119 482.67083 431.62109 475.26758 C 419.15033 482.26939 404.77542 486.28711 389.48828 486.28711 C 373.75551 486.28712 358.98792 482.03165 346.26953 474.64648 z M 493.46484 537.41211 C 474.97832 542.27249 461.56445 558.93139 461.56445 579.06445 C 461.56446 603.07806 480.6446 622.16016 504.6582 622.16016 C 509.94864 622.16015 514.9978 621.23034 519.6582 619.5293 C 515.69216 588.59021 506.4964 560.72892 493.46484 537.41211 z M 459.82422 658.52734 L 453.64844 671.51953 A 18.0018 18.0018 0 0 1 465.27539 677.03711 L 471.45312 664.05273 C 469.45795 663.27815 467.46453 662.48191 465.49805 661.54688 C 463.5417 660.61667 461.67542 659.57952 459.82422 658.52734 z M 504.39453 678.60547 L 483.42773 722.6875 L 485.95898 722.6875 L 485.95898 722.67773 C 500.05671 722.47872 512.03796 715.1851 516.81641 704.9707 L 504.39453 678.60547 z "
         style="fill:url(#linearGradient4268);fill-opacity:1;stroke:none;stroke-width:41.15159225;stroke-linecap:round;stroke-linejoin:round;stroke-opacity:1" />
      <ellipse
         ry="72.424042"
         rx="72.285255"
         cx="389.45996"
         cy="395.19952"
         id="circle2187-6"
         style="fill:url(#linearGradient4260);fill-opacity:1;stroke:none;stroke-width:14;stroke-miterlimit:4;stroke-dasharray:none;stroke-opacity:1" />
      <path
         inkscape:connector-curvature="0"
         id="rect4252"
         d="m 504.65852,517.97079 a 61.094444,61.094444 0 0 0 -61.09445,61.09446 61.094444,61.094444 0 0 0 61.09445,61.09443 61.094444,61.094444 0 0 0 61.09443,-61.09443 61.094444,61.094444 0 0 0 -61.09443,-61.09446 z m -51.64388,112.95312 -33.31554,70.09157 32.55186,-11.57458 11.57447,32.55184 33.33949,-70.09144 c -8.09343,-0.82112 -16.19297,-2.92862 -23.93669,-6.61067 -7.74373,-3.68179 -14.46693,-8.60893 -20.21359,-14.36672 z m 102.95368,0.2147 c -5.76684,5.73761 -12.52888,10.64046 -20.28532,14.29512 -7.75654,3.65467 -15.84043,5.74495 -23.93656,6.53893 l 33.0769,70.21097 11.69384,-32.52803 32.52803,11.69385 -33.07689,-70.21084 z"
         style="color:#000000;clip-rule:nonzero;display:inline;overflow:visible;visibility:visible;opacity:1;isolation:auto;mix-blend-mode:normal;color-interpolation:sRGB;color-interpolation-filters:linearRGB;solid-color:#000000;solid-opacity:1;fill:#99b000;fill-opacity:1;fill-rule:nonzero;stroke:none;stroke-width:10;stroke-linecap:butt;stroke-linejoin:round;stroke-miterlimit:4;stroke-dasharray:none;stroke-dashoffset:0;stroke-opacity:1;color-rendering:auto;image-rendering:auto;shape-rendering:auto;text-rendering:auto;enable-background:accumulate" />
    </g>
  </g>
</svg>
