<?xml version="1.0" encoding="UTF-8" standalone="no"?>
<!-- Created with Inkscape (http://www.inkscape.org/) -->

<svg
   xmlns:dc="http://purl.org/dc/elements/1.1/"
   xmlns:cc="http://creativecommons.org/ns#"
   xmlns:rdf="http://www.w3.org/1999/02/22-rdf-syntax-ns#"
   xmlns:svg="http://www.w3.org/2000/svg"
   xmlns="http://www.w3.org/2000/svg"
   xmlns:xlink="http://www.w3.org/1999/xlink"
   xmlns:sodipodi="http://sodipodi.sourceforge.net/DTD/sodipodi-0.dtd"
   xmlns:inkscape="http://www.inkscape.org/namespaces/inkscape"
   width="210mm"
   height="297mm"
   viewBox="0 0 744.09448819 1052.3622047"
   id="svg2"
   version="1.1"
   inkscape:version="0.91 r13725"
   inkscape:export-xdpi="7.1999998"
   inkscape:export-ydpi="7.1999998"
   sodipodi:docname="user-phd.svg"
   inkscape:export-filename="C:\Users\johannes\Documents\Arbeit\RRZE\github3\bicons\32x32\categories\user-phd.png">
  <defs
     id="defs4">
    <linearGradient
       inkscape:collect="always"
       xlink:href="#linearGradient4254"
       id="linearGradient4268"
       x1="358.43118"
       y1="465.73074"
       x2="429.96555"
       y2="644.62878"
       gradientUnits="userSpaceOnUse"
       gradientTransform="matrix(1.1386133,0,0,1.1386133,-244.5761,-375.77115)" />
    <linearGradient
       inkscape:collect="always"
       id="linearGradient4254">
      <stop
         style="stop-color:#7a8597;stop-opacity:1"
         offset="0"
         id="stop4256" />
      <stop
         style="stop-color:#4e505d;stop-opacity:1"
         offset="1"
         id="stop4258" />
    </linearGradient>
    <linearGradient
       inkscape:collect="always"
       xlink:href="#linearGradient4254"
       id="linearGradient4260"
       x1="380.01031"
       y1="330.40619"
       x2="414.6156"
       y2="457.18103"
       gradientUnits="userSpaceOnUse"
       gradientTransform="matrix(1.1011151,0,0,1.1092129,-231.89423,285.87138)" />
  </defs>
  <sodipodi:namedview
     id="base"
     pagecolor="#ffffff"
     bordercolor="#666666"
     borderopacity="1.0"
     inkscape:pageopacity="0.0"
     inkscape:pageshadow="2"
     inkscape:zoom="1"
     inkscape:cx="490.689"
     inkscape:cy="544.56708"
     inkscape:document-units="px"
     inkscape:current-layer="layer1"
     showgrid="false"
     showguides="true"
     inkscape:guide-bbox="true"
     inkscape:window-width="1366"
     inkscape:window-height="721"
     inkscape:window-x="-4"
     inkscape:window-y="-4"
     inkscape:window-maximized="1"
     inkscape:snap-bbox="true"
     inkscape:bbox-paths="true"
     inkscape:bbox-nodes="true">
    <sodipodi:guide
       position="315.53572,730.17859"
       orientation="0,1"
       id="guide3338" />
    <sodipodi:guide
       position="351.25,330.17858"
       orientation="0,1"
       id="guide3340" />
    <sodipodi:guide
       position="189.10714,408.8393"
       orientation="1,0"
       id="guide3344" />
    <sodipodi:guide
       position="589.04521,468.07945"
       orientation="1,0"
       id="guide3346" />
    <inkscape:grid
       type="xygrid"
       id="grid3440" />
    <sodipodi:guide
       position="0,0"
       orientation="0,1"
       id="guide3405" />
    <sodipodi:guide
       position="214.125,684.50002"
       orientation="1,0"
       id="guide3407" />
    <sodipodi:guide
       position="0,0"
       orientation="0,1"
       id="guide3409" />
    <sodipodi:guide
       position="589.04521,378.30213"
       orientation="1,0"
       id="guide3411" />
    <sodipodi:guide
       position="564.00001,683.37502"
       orientation="1,0"
       id="guide3413" />
    <sodipodi:guide
       position="0,0"
       orientation="0,1"
       id="guide4168" />
  </sodipodi:namedview>
  <metadata
     id="metadata7">
    <rdf:RDF>
      <cc:Work
         rdf:about="">
        <dc:format>image/svg+xml</dc:format>
        <dc:type
           rdf:resource="http://purl.org/dc/dcmitype/StillImage" />
        <dc:title>user phd</dc:title>
        <dc:date>June 2015</dc:date>
        <dc:creator>
          <cc:Agent>
            <dc:title>Johannes Hechler</dc:title>
          </cc:Agent>
        </dc:creator>
        <dc:rights>
          <cc:Agent>
            <dc:title>Johannes Hechler</dc:title>
          </cc:Agent>
        </dc:rights>
        <dc:publisher>
          <cc:Agent>
            <dc:title>RRZE</dc:title>
          </cc:Agent>
        </dc:publisher>
        <dc:contributor>
          <cc:Agent>
            <dc:title>Ute Weber, Hendrik Eggers, Joanna Barbach</dc:title>
          </cc:Agent>
        </dc:contributor>
        <dc:subject>
          <rdf:Bag>
            <rdf:li>user</rdf:li>
            <rdf:li>phd</rdf:li>
            <rdf:li>identity management</rdf:li>
            <rdf:li>role</rdf:li>
            <rdf:li>doctor</rdf:li>
          </rdf:Bag>
        </dc:subject>
        <cc:license
           rdf:resource="http://creativecommons.org/licenses/by-sa/3.0/" />
      </cc:Work>
      <cc:License
         rdf:about="http://creativecommons.org/licenses/by-sa/3.0/">
        <cc:permits
           rdf:resource="http://creativecommons.org/ns#Reproduction" />
        <cc:permits
           rdf:resource="http://creativecommons.org/ns#Distribution" />
        <cc:requires
           rdf:resource="http://creativecommons.org/ns#Notice" />
        <cc:requires
           rdf:resource="http://creativecommons.org/ns#Attribution" />
        <cc:permits
           rdf:resource="http://creativecommons.org/ns#DerivativeWorks" />
        <cc:requires
           rdf:resource="http://creativecommons.org/ns#ShareAlike" />
      </cc:License>
    </rdf:RDF>
  </metadata>
  <g
     inkscape:label="Ebene 1"
     inkscape:groupmode="layer"
     id="layer1">
    <g
       transform="translate(189.04519,-330.68265)"
       id="g4303">
      <rect
         inkscape:export-ydpi="4.9499998"
         inkscape:export-xdpi="4.9499998"
         y="652.36212"
         x="1.4624451e-005"
         height="400"
         width="400"
         id="rect3336"
         style="fill:none;fill-rule:evenodd;stroke:none;stroke-width:1px;stroke-linecap:butt;stroke-linejoin:miter;stroke-opacity:1" />
      <path
         inkscape:connector-curvature="0"
         id="path2176"
         transform="translate(0,652.36214)"
         d="m 242.28125,152.21289 c -12.71838,7.38517 -27.48598,11.64064 -43.21875,11.64063 -4.76301,0 -9.43629,-0.38989 -13.99219,-1.13868 -9.97704,-1.80825 -19.36845,-5.32947 -27.8457,-10.25195 l 0,0.002 c -0.13373,0.11831 -0.25652,0.24456 -0.39453,0.35938 l -2.17383,1.17773 c -0.74712,0.39355 -1.48949,0.79822 -2.23047,1.20899 -0.12989,0.072 -0.26092,0.14035 -0.39062,0.21289 l -2.6543,1.4375 c -20.80841,12.3267 -38.89174,31.3749 -52.785157,55.47461 -0.03415,0.0589 -0.06941,0.11683 -0.103515,0.17578 -0.445223,0.77423 -0.889669,1.54937 -1.326172,2.33398 -0.780163,1.39329 -1.544417,2.80498 -2.296875,4.23047 -0.07192,0.13723 -0.143187,0.27458 -0.214844,0.41211 -0.27569,0.52528 -0.55429,1.0466 -0.826172,1.57617 0.0099,0.002 0.01942,0.005 0.0293,0.008 -15.678325,30.76234 -24.880859,68.73291 -24.88086,110.99609 0,17.41493 1.587002,34.2888 4.550782,50.3418 4.39616,9.8346 15.442802,17.04277 28.677733,17.98437 l 0,0.10938 163.13867,0 a 18.0018,18.0018 0 0 1 -0.19727,-0.25 l 36.1543,0 0,-0.10938 c 13.23493,-0.9416 24.28158,-8.14977 28.67774,-17.98437 2.96378,-16.053 4.55078,-32.92687 4.55078,-50.3418 0,-81.08044 -33.81311,-146.42207 -82.4043,-175.20703 l -7.44922,-4.03711 c -0.13801,-0.11482 -0.2608,-0.24107 -0.39453,-0.35938 l 0,-0.002 z"
         style="fill:url(#linearGradient4268);fill-opacity:1;stroke:none;stroke-width:41.15159225;stroke-linecap:round;stroke-linejoin:round;stroke-opacity:1" />
      <path
         inkscape:connector-curvature="0"
         id="circle2187-6"
         d="m 169.69337,670.36217 a 18.0018,18.0018 0 0 1 -6.11914,13.72461 c -1.70557,1.4927 -3.24207,3.13888 -4.73633,4.81445 l 82.22852,0 c -1.49457,-1.68073 -3.03141,-3.33067 -4.73829,-4.82812 a 18.0018,18.0018 0 0 1 -6.10351,-13.71094 l -60.53125,0 z m 102.98437,54.40234 a 18.0018,18.0018 0 0 1 -2.10156,0.13672 l -141.28515,0 a 18.0018,18.0018 0 0 1 -1.13477,-0.0566 72.285255,72.424042 0 0 0 -0.0273,0.5332 72.285255,72.424042 0 0 0 72.28515,72.42383 72.285255,72.424042 0 0 0 72.28516,-72.42383 72.285255,72.424042 0 0 0 -0.0215,-0.61328 z"
         style="fill:url(#linearGradient4260);fill-opacity:1;stroke:none;stroke-width:14;stroke-miterlimit:4;stroke-dasharray:none;stroke-opacity:1" />
      <path
         inkscape:export-ydpi="4.9499998"
         inkscape:export-xdpi="4.9499998"
         inkscape:export-filename="C:\Users\johannes\Desktop\g4232.png"
         sodipodi:nodetypes="sssscccccccccccccscs"
         inkscape:connector-curvature="0"
         id="rect4211"
         d="m 81.892588,652.36217 c -4.91019,0 -9.17188,4.1152 -9.17188,9.02539 l 0,0.73242 c 0,4.91018 4.041,8.4219 8.95117,8.42188 l 70.046882,0 c -10.98308,9.61235 -18.79766,22.28119 -22.42773,36.35937 l 141.28515,0 c -3.61611,-14.07204 -11.41257,-26.74018 -22.37695,-36.35937 l 60.86133,0.0449 0,28.02148 0.47461,63.01758 35.17968,0.14649 -17.32422,-81.67579 -0.15039,-18.36722 0,-0.73242 -0.0449,-0.91016 c -0.42453,-4.17686 -3.74774,-7.28572 -7.93164,-7.68164 -0.29887,-0.0285 -0.60328,-0.0429 -0.91017,-0.0429 l -0.45313,0 z"
         style="color:#000000;clip-rule:nonzero;display:inline;overflow:visible;visibility:visible;opacity:1;isolation:auto;mix-blend-mode:normal;color-interpolation:sRGB;color-interpolation-filters:linearRGB;solid-color:#000000;solid-opacity:1;fill:#2f3037;fill-opacity:1;fill-rule:evenodd;stroke:none;stroke-width:50;stroke-linecap:butt;stroke-linejoin:round;stroke-miterlimit:4;stroke-dasharray:none;stroke-dashoffset:0;stroke-opacity:1;color-rendering:auto;image-rendering:auto;shape-rendering:auto;text-rendering:auto;enable-background:accumulate" />
    </g>
  </g>
</svg>
