<?xml version="1.0" encoding="UTF-8" standalone="no"?>
<!-- Created with Inkscape (http://www.inkscape.org/) -->

<svg
   xmlns:dc="http://purl.org/dc/elements/1.1/"
   xmlns:cc="http://creativecommons.org/ns#"
   xmlns:rdf="http://www.w3.org/1999/02/22-rdf-syntax-ns#"
   xmlns:svg="http://www.w3.org/2000/svg"
   xmlns="http://www.w3.org/2000/svg"
   xmlns:xlink="http://www.w3.org/1999/xlink"
   xmlns:sodipodi="http://sodipodi.sourceforge.net/DTD/sodipodi-0.dtd"
   xmlns:inkscape="http://www.inkscape.org/namespaces/inkscape"
   width="210mm"
   height="297mm"
   viewBox="0 0 744.09448819 1052.3622047"
   id="svg2"
   version="1.1"
   inkscape:version="0.91 r13725"
   sodipodi:docname="user-customer.svg"
   inkscape:export-filename="C:\Users\johannes\Documents\Arbeit\RRZE\bi-con\bi-con\scalable\documents\document.png"
   inkscape:export-xdpi="4"
   inkscape:export-ydpi="4">
  <defs
     id="defs4">
    <linearGradient
       inkscape:collect="always"
       id="linearGradient4254">
      <stop
         style="stop-color:#9397a2;stop-opacity:1"
         offset="0"
         id="stop4256" />
      <stop
         style="stop-color:#5a6578;stop-opacity:1"
         offset="1"
         id="stop4258" />
    </linearGradient>
    <linearGradient
       id="linearGradient2224">
      <stop
         id="stop2226"
         offset="0"
         style="stop-color:#7c7c7c;stop-opacity:1;" />
      <stop
         id="stop2228"
         offset="1"
         style="stop-color:#b8b8b8;stop-opacity:1;" />
    </linearGradient>
    <linearGradient
       id="linearGradient15218">
      <stop
         id="stop15220"
         offset="0"
         style="stop-color:#eeeeef;stop-opacity:1;" />
      <stop
         id="stop2736"
         offset="0.59928656"
         style="stop-color:#d3d7cf;stop-opacity:1;" />
      <stop
         id="stop2738"
         offset="0.82758623"
         style="stop-color:#ffffff;stop-opacity:1;" />
      <stop
         id="stop15222"
         offset="1"
         style="stop-color:#d3d7cf;stop-opacity:1;" />
    </linearGradient>
    <pattern
       y="0"
       x="0"
       height="6"
       width="6"
       patternUnits="userSpaceOnUse"
       id="EMFhbasepattern" />
    <pattern
       y="0"
       x="0"
       height="6"
       width="6"
       patternUnits="userSpaceOnUse"
       id="EMFhbasepattern-5" />
    <linearGradient
       inkscape:collect="always"
       xlink:href="#linearGradient4254"
       id="linearGradient4260"
       x1="380.01031"
       y1="330.40619"
       x2="414.6156"
       y2="457.18103"
       gradientUnits="userSpaceOnUse"
       gradientTransform="translate(0.37005758,-0.39466108)" />
    <linearGradient
       inkscape:collect="always"
       xlink:href="#linearGradient4254"
       id="linearGradient4268"
       x1="358.43118"
       y1="465.73074"
       x2="429.96555"
       y2="644.62878"
       gradientUnits="userSpaceOnUse" />
  </defs>
  <sodipodi:namedview
     id="base"
     pagecolor="#ffffff"
     bordercolor="#666666"
     borderopacity="1.0"
     inkscape:pageopacity="0.0"
     inkscape:pageshadow="2"
     inkscape:zoom="0.70710678"
     inkscape:cx="125.31399"
     inkscape:cy="556.19999"
     inkscape:document-units="px"
     inkscape:current-layer="layer1"
     showgrid="false"
     showguides="true"
     inkscape:guide-bbox="true"
     inkscape:window-width="1366"
     inkscape:window-height="721"
     inkscape:window-x="-4"
     inkscape:window-y="-4"
     inkscape:window-maximized="1">
    <sodipodi:guide
       position="315.53572,730.17859"
       orientation="0,1"
       id="guide3338" />
    <sodipodi:guide
       position="351.25,330.17858"
       orientation="0,1"
       id="guide3340" />
    <sodipodi:guide
       position="189.10714,408.8393"
       orientation="1,0"
       id="guide3344" />
    <sodipodi:guide
       position="589.04521,468.07945"
       orientation="1,0"
       id="guide3346" />
    <inkscape:grid
       type="xygrid"
       id="grid3440" />
    <sodipodi:guide
       position="589.04521,378.30213"
       orientation="1,0"
       id="guide3411" />
  </sodipodi:namedview>
  <metadata
     id="metadata7">
    <rdf:RDF>
      <cc:Work
         rdf:about="">
        <dc:format>image/svg+xml</dc:format>
        <dc:type
           rdf:resource="http://purl.org/dc/dcmitype/StillImage" />
        <dc:title />
      </cc:Work>
    </rdf:RDF>
  </metadata>
  <g
     inkscape:label="Ebene 1"
     inkscape:groupmode="layer"
     id="layer1">
    <flowRoot
       xml:space="preserve"
       id="flowRoot4169"
       style="font-style:normal;font-weight:normal;font-size:40px;line-height:125%;font-family:sans-serif;letter-spacing:0px;word-spacing:0px;fill:#000000;fill-opacity:1;stroke:none;stroke-width:1px;stroke-linecap:butt;stroke-linejoin:miter;stroke-opacity:1"><flowRegion
         id="flowRegion4171"><rect
           id="rect4173"
           width="56.433445"
           height="88.78862"
           x="89.541069"
           y="427.07962" /></flowRegion><flowPara
         id="flowPara4175" /></flowRoot>    <rect
       style="fill:none;fill-rule:evenodd;stroke:none;stroke-width:1px;stroke-linecap:butt;stroke-linejoin:miter;stroke-opacity:1"
       id="rect3336"
       width="400"
       height="400"
       x="189.14485"
       y="322.27005"
       inkscape:export-xdpi="4.9499998"
       inkscape:export-ydpi="4.9499998" />
    <g
       id="g4289"
       transform="matrix(1.1386133,0,0,1.1386133,-57.916552,-53.501199)">
      <path
         sodipodi:nodetypes="cccsccccccscsc"
         inkscape:connector-curvature="0"
         id="path2176"
         d="m 354.64258,460.41602 c -0.11745,0.1039 -0.22449,0.21556 -0.3457,0.3164 l -6.54297,3.54492 c -42.67576,25.28071 -72.76172,86.25893 -72.76172,157.46875 0,15.29493 1.39507,30.1142 3.99804,44.21289 3.86098,8.63739 13.56182,14.96807 25.18555,15.79493 l 0,0.0957 172.76172,0 0,-0.008 c 13.04649,-0.18416 24.03463,-7.28341 27.72656,-17.01563 2.4704,-13.75919 3.79102,-28.19351 3.79102,-43.08008 0,-74.54936 -32.9771,-137.88441 -78.85156,-160.78515 -10.95259,6.14942 -23.5778,9.67773 -37.00391,9.67773 -13.81748,10e-6 -26.78697,-3.73654 -37.95703,-10.22265 z"
         style="fill:url(#linearGradient4268);fill-opacity:1;stroke:none;stroke-width:41.15159225;stroke-linecap:round;stroke-linejoin:round;stroke-opacity:1" />
      <ellipse
         ry="65.293182"
         rx="65.647316"
         cx="392.98022"
         cy="395.83826"
         id="circle2187-6"
         style="fill:url(#linearGradient4260);fill-opacity:1;stroke:none;stroke-width:14;stroke-miterlimit:4;stroke-dasharray:none;stroke-opacity:1" />
    </g>
    <g
       id="g4177"
       transform="matrix(0.9682662,0.24992113,-0.24992113,0.9682662,174.54106,-110.2174)">
      <path
         style="fill:#abbe24;fill-rule:evenodd;stroke:#ffffff;stroke-width:30;stroke-linecap:butt;stroke-linejoin:round;stroke-miterlimit:4;stroke-dasharray:none;stroke-opacity:1"
         d="m 463.0582,714.04742 c 9.13571,0.13714 19.90109,-3.51446 22.41124,-7.02541 2.51014,-3.51095 2.46682,-22.63058 2.46682,-22.63058 -17.44325,7.44963 -29.72562,7.18268 -47.49916,-0.0837 0.92329,9.11337 1.15533,19.39746 3.19581,22.67296 2.0405,3.2755 10.28957,6.9296 19.42529,7.06675 z m 24.9161,-38.275 -0.0429,-131.48393 -0.11913,-0.0847 -23.74037,-47.2587 -23.7772,47.33104 c 0.0477,-0.0165 0.097,-0.0316 0.1448,-0.0486 l -0.1141,0.0611 0.0442,131.48495 c 10.18823,3.12833 16.38445,4.70438 25.05847,4.77553 8.67402,0.0711 18.81168,-3.41564 22.54627,-4.77663 z M 448.21309,542.327 l 9.0536,-17.34234 c -10e-6,-0.2308 8.44601,-3.41389 14.23022,0.27491 l 8.49027,16.94653 c -6.96379,-4.54945 -26.68763,-4.51414 -31.77409,0.1209 z"
         id="path4204"
         inkscape:connector-curvature="0"
         sodipodi:nodetypes="ssccsscccccccczccccccc" />
      <path
         sodipodi:nodetypes="ssccsscccccccczccccccc"
         inkscape:connector-curvature="0"
         id="path4234-6-1-3"
         d="m 463.0582,714.04742 c 9.13571,0.13714 19.90109,-3.51446 22.41124,-7.02541 2.51014,-3.51095 2.46682,-22.63058 2.46682,-22.63058 -17.44325,7.44963 -29.72562,7.18268 -47.49916,-0.0837 0.92329,9.11337 1.15533,19.39746 3.19581,22.67296 2.0405,3.2755 10.28957,6.9296 19.42529,7.06675 z m 24.9161,-38.275 -0.0429,-131.48393 -0.11913,-0.0847 -23.74037,-47.2587 -23.7772,47.33104 c 0.0477,-0.0165 0.097,-0.0316 0.1448,-0.0486 l -0.1141,0.0611 0.0442,131.48495 c 10.18823,3.12833 16.38445,4.70438 25.05847,4.77553 8.67402,0.0711 18.81168,-3.41564 22.54627,-4.77663 z M 448.21309,542.327 l 9.0536,-17.34234 c -10e-6,-0.2308 8.44601,-3.41389 14.23022,0.27491 l 8.49027,16.94653 c -6.96379,-4.54945 -26.68763,-4.51414 -31.77409,0.1209 z"
         style="fill:#abbe24;fill-rule:evenodd;stroke:#ffffff;stroke-width:30;stroke-linecap:butt;stroke-linejoin:miter;stroke-miterlimit:4;stroke-dasharray:none;stroke-opacity:1" />
    </g>
    <g
       id="g4172"
       transform="matrix(0.96430472,-0.26479502,0.26479502,0.96430472,-174.05833,101.65594)">
      <path
         style="opacity:1;fill:#abbe24;fill-opacity:1;stroke:#ffffff;stroke-width:30;stroke-linecap:square;stroke-linejoin:round;stroke-miterlimit:4;stroke-dasharray:none;stroke-opacity:1"
         d="m 378.60356,498.90661 a 66.346463,66.346463 0 0 0 -42.67292,-15.79073 66.346463,66.346463 0 0 0 -66.63818,66.05372 66.346463,66.346463 0 0 0 47.99563,63.98778 l -0.38609,87.62099 c 6.46802,10.1059 26.00457,10.19216 32.5615,0.14371 l 0.38291,-86.73762 a 66.346463,66.346463 0 0 0 52.13734,-64.42961 66.346463,66.346463 0 0 0 -23.38019,-50.84824 z"
         id="path4206"
         inkscape:connector-curvature="0" />
      <path
         inkscape:connector-curvature="0"
         id="path4160"
         d="m 378.60356,498.90661 a 66.346463,66.346463 0 0 0 -42.67292,-15.79073 66.346463,66.346463 0 0 0 -66.63818,66.05372 66.346463,66.346463 0 0 0 47.99563,63.98778 l -0.38609,87.62099 c 6.46802,10.1059 26.00457,10.19216 32.5615,0.14371 l 0.38291,-86.73762 a 66.346463,66.346463 0 0 0 52.13734,-64.42961 66.346463,66.346463 0 0 0 -23.38019,-50.84824 z"
         style="opacity:1;fill:#abbe24;fill-opacity:1;stroke:#ffffff;stroke-width:30;stroke-linecap:square;stroke-linejoin:miter;stroke-miterlimit:4;stroke-dasharray:none;stroke-opacity:1" />
      <ellipse
         ry="50.248466"
         rx="50.113911"
         style="opacity:1;fill:#ffffff;fill-opacity:1;stroke:none;stroke-width:11;stroke-linecap:square;stroke-linejoin:miter;stroke-miterlimit:4;stroke-dasharray:none;stroke-opacity:1"
         id="path4160-0"
         cx="340.37482"
         cy="548.69769"
         transform="matrix(0.9999996,-8.9193111e-4,-0.00970003,0.99995295,0,0)" />
    </g>
  </g>
</svg>
