<?xml version="1.0" encoding="UTF-8" standalone="no"?>
<!-- Created with Inkscape (http://www.inkscape.org/) -->

<svg
   xmlns:dc="http://purl.org/dc/elements/1.1/"
   xmlns:cc="http://creativecommons.org/ns#"
   xmlns:rdf="http://www.w3.org/1999/02/22-rdf-syntax-ns#"
   xmlns:svg="http://www.w3.org/2000/svg"
   xmlns="http://www.w3.org/2000/svg"
   xmlns:xlink="http://www.w3.org/1999/xlink"
   xmlns:sodipodi="http://sodipodi.sourceforge.net/DTD/sodipodi-0.dtd"
   xmlns:inkscape="http://www.inkscape.org/namespaces/inkscape"
   width="210mm"
   height="297mm"
   viewBox="0 0 744.09448819 1052.3622047"
   id="svg2"
   version="1.1"
   inkscape:version="0.91 r13725"
   inkscape:export-xdpi="7.1982074"
   inkscape:export-ydpi="7.1982074"
   sodipodi:docname="user-helpdesk-contact.svg"
   inkscape:export-filename="C:\Users\johannes\Documents\Arbeit\RRZE\github3\bicons\32x32\categories\user-helpdesk-contact.png">
  <title
     id="title4207">user helpdesk contact</title>
  <defs
     id="defs4">
    <linearGradient
       inkscape:collect="always"
       xlink:href="#linearGradient4254"
       id="linearGradient4268"
       x1="358.43118"
       y1="465.73074"
       x2="429.96555"
       y2="644.62878"
       gradientUnits="userSpaceOnUse"
       gradientTransform="matrix(1.1386133,0,0,1.1386133,-55.530911,-54.005044)" />
    <linearGradient
       inkscape:collect="always"
       id="linearGradient4254">
      <stop
         style="stop-color:#7a8597;stop-opacity:1"
         offset="0"
         id="stop4256" />
      <stop
         style="stop-color:#4e505d;stop-opacity:1"
         offset="1"
         id="stop4258" />
    </linearGradient>
    <linearGradient
       inkscape:collect="always"
       xlink:href="#linearGradient4254"
       id="linearGradient4260"
       x1="380.01031"
       y1="330.40619"
       x2="414.6156"
       y2="457.18103"
       gradientUnits="userSpaceOnUse"
       gradientTransform="matrix(1.1011151,0,0,1.1092129,-42.849041,-44.307164)" />
  </defs>
  <sodipodi:namedview
     id="base"
     pagecolor="#ffffff"
     bordercolor="#666666"
     borderopacity="1.0"
     inkscape:pageopacity="0.0"
     inkscape:pageshadow="2"
     inkscape:zoom="0.5"
     inkscape:cx="367.61874"
     inkscape:cy="621.67827"
     inkscape:document-units="px"
     inkscape:current-layer="layer1"
     showgrid="false"
     showguides="true"
     inkscape:guide-bbox="true"
     inkscape:window-width="1366"
     inkscape:window-height="721"
     inkscape:window-x="-4"
     inkscape:window-y="-4"
     inkscape:window-maximized="1"
     inkscape:snap-bbox="true"
     inkscape:bbox-paths="true"
     inkscape:bbox-nodes="true"
     inkscape:snap-nodes="false">
    <sodipodi:guide
       position="315.53572,730.17859"
       orientation="0,1"
       id="guide3338" />
    <sodipodi:guide
       position="351.25,330.17858"
       orientation="0,1"
       id="guide3340" />
    <sodipodi:guide
       position="189.10714,408.8393"
       orientation="1,0"
       id="guide3344" />
    <sodipodi:guide
       position="589.04521,468.07945"
       orientation="1,0"
       id="guide3346" />
    <inkscape:grid
       type="xygrid"
       id="grid3440" />
    <sodipodi:guide
       position="530.33008,1042.2754"
       orientation="0,1"
       id="guide3405" />
    <sodipodi:guide
       position="589.04521,378.30213"
       orientation="1,0"
       id="guide3411" />
  </sodipodi:namedview>
  <metadata
     id="metadata7">
    <rdf:RDF>
      <cc:Work
         rdf:about="">
        <dc:format>image/svg+xml</dc:format>
        <dc:type
           rdf:resource="http://purl.org/dc/dcmitype/StillImage" />
        <dc:title>user helpdesk contact</dc:title>
        <dc:date>May 2016</dc:date>
        <dc:rights>
          <cc:Agent>
            <dc:title>Johannes Hechler</dc:title>
          </cc:Agent>
        </dc:rights>
        <dc:creator>
          <cc:Agent>
            <dc:title>Johannes Hechler</dc:title>
          </cc:Agent>
        </dc:creator>
        <dc:publisher>
          <cc:Agent>
            <dc:title>RRZE</dc:title>
          </cc:Agent>
        </dc:publisher>
        <dc:contributor>
          <cc:Agent>
            <dc:title>Ute Weber, Hendrik Eggers, Joanna Barbach</dc:title>
          </cc:Agent>
        </dc:contributor>
        <dc:subject>
          <rdf:Bag>
            <rdf:li>user</rdf:li>
            <rdf:li>help desk</rdf:li>
            <rdf:li>agent</rdf:li>
            <rdf:li>head set</rdf:li>
            <rdf:li>phone</rdf:li>
            <rdf:li>service</rdf:li>
            <rdf:li>contact</rdf:li>
            <rdf:li>at-sign</rdf:li>
          </rdf:Bag>
        </dc:subject>
        <cc:license
           rdf:resource="http://creativecommons.org/licenses/by-sa/3.0/" />
      </cc:Work>
      <cc:License
         rdf:about="http://creativecommons.org/licenses/by-sa/3.0/">
        <cc:permits
           rdf:resource="http://creativecommons.org/ns#Reproduction" />
        <cc:permits
           rdf:resource="http://creativecommons.org/ns#Distribution" />
        <cc:requires
           rdf:resource="http://creativecommons.org/ns#Notice" />
        <cc:requires
           rdf:resource="http://creativecommons.org/ns#Attribution" />
        <cc:permits
           rdf:resource="http://creativecommons.org/ns#DerivativeWorks" />
        <cc:requires
           rdf:resource="http://creativecommons.org/ns#ShareAlike" />
      </cc:License>
    </rdf:RDF>
  </metadata>
  <g
     inkscape:label="Ebene 1"
     inkscape:groupmode="layer"
     id="layer1">
    <g
       id="g4190">
      <flowRoot
         style="font-style:normal;font-weight:normal;font-size:40px;line-height:125%;font-family:sans-serif;letter-spacing:0px;word-spacing:0px;fill:#252525;fill-opacity:1;stroke:none;stroke-width:1px;stroke-linecap:butt;stroke-linejoin:miter;stroke-opacity:1"
         id="flowRoot4169-7"
         xml:space="preserve"
         transform="translate(-0.099651,-0.086364)"><flowRegion
           id="flowRegion4171-1"><rect
             y="427.07962"
             x="89.541069"
             height="88.78862"
             width="56.433445"
             id="rect4173-9" /></flowRegion><flowPara
           id="flowPara4175-3" /></flowRoot>      <rect
         inkscape:export-ydpi="4.9499998"
         inkscape:export-xdpi="4.9499998"
         y="322.18362"
         x="189.04521"
         height="400"
         width="400"
         id="rect3336-4"
         style="fill:none;fill-rule:evenodd;stroke:none;stroke-width:1px;stroke-linecap:butt;stroke-linejoin:miter;stroke-opacity:1" />
      <path
         id="path2176"
         d="M 346.26953 474.22852 L 346.26953 474.23047 C 346.1358 474.34878 346.01496 474.47502 345.87695 474.58984 L 338.42578 478.62695 C 289.83459 507.41191 256.02148 572.75353 256.02148 653.83398 C 256.02148 671.24896 257.60849 688.12278 260.57227 704.17578 C 264.96843 714.01038 276.01508 721.21866 289.25 722.16016 L 289.25 722.26953 L 427.5957 722.26953 C 420.27235 717.73956 413.44406 712.39512 407.18945 706.28711 C 395.90569 695.26781 387.11648 682.25471 381.18359 667.73242 A 18.0018 18.0018 0 0 1 381.16992 667.69531 C 375.24792 653.11127 372.31641 637.42258 372.31641 621.13281 C 372.31641 605.25282 375.33438 589.79144 381.31836 575.27148 C 385.61795 564.83867 391.32755 555.19055 398.32227 546.49414 C 395.86883 546.29172 393.3255 546.02968 390.4082 545.7207 C 382.10132 544.84088 367.24609 542.10937 367.24609 542.10938 A 17.50175 17.50175 0 0 1 367.23242 542.10547 C 360.76698 540.95526 352.63909 535.31579 349.77539 527.98828 C 346.91178 520.66077 348.01182 514.23046 349.7793 508.5918 C 351.77809 502.21487 354.91026 496.10553 359.00977 488.94531 C 360.40456 486.50915 361.77291 484.11747 363.25 481.76953 C 357.28504 479.85744 351.59548 477.32114 346.26953 474.22852 z M 398.08594 494.48828 C 397.51093 494.93524 397.70984 494.71064 396.96875 495.3418 C 397.27964 495.07702 392.56157 500.78731 389.38477 506.33594 C 388.70532 507.52266 388.19665 508.65946 387.56641 509.88477 C 390.43245 510.33384 392.7654 510.77337 394.09375 510.91406 C 398.60123 511.39146 403.18687 511.52192 404.57812 511.64062 C 408.73996 508.127 412.81008 503.85179 416.84961 499.22266 A 17.50175 17.50175 0 0 1 409.58594 498.38086 C 409.58594 498.38086 405.27245 496.91337 400.81445 495.40625 C 399.84203 495.0775 399.02738 494.80548 398.08594 494.48828 z M 462.54297 496.7168 C 459.97724 500.66013 457.38135 504.44584 454.74023 508.08984 C 459.7493 506.48957 464.83593 505.22306 469.98242 504.28516 C 467.56385 501.65363 465.08797 499.12011 462.54297 496.7168 z M 463.64648 527.49219 L 463.49609 527.53516 C 463.52249 527.52746 463.54977 527.52363 463.57617 527.51562 C 463.60007 527.50892 463.62258 527.49919 463.64648 527.49219 z M 489.29102 609.94727 C 489.29343 609.9476 489.3758 610.1341 488.81836 610.88086 L 488.84375 610.84766 C 487.90771 612.1077 486.54883 615.09336 486.54883 621.58203 C 486.54883 628.2625 487.94711 631.43097 488.91602 632.75391 L 488.81836 632.62109 C 489.86832 634.02764 488.45595 633.36914 490.4668 633.36914 C 492.34953 633.36914 490.92149 634.07113 492.00391 632.62109 L 491.93359 632.71875 C 493.02778 631.23231 494.38672 628.11759 494.38672 621.58203 C 494.38672 615.19254 493.04726 612.38142 492.06445 611.10742 A 18.0018 18.0018 0 0 1 491.89258 610.88086 C 490.84262 609.47431 492.25304 610.13281 490.24219 610.13281 C 489.36552 610.13281 489.28902 609.94693 489.29102 609.94727 z "
         style="fill:url(#linearGradient4268);fill-opacity:1;stroke:none;stroke-width:41.15159225;stroke-linecap:round;stroke-linejoin:round;stroke-opacity:1" />
      <path
         id="circle2187-6"
         d="m 389.46094,322.77539 a 72.285255,72.424042 0 0 0 -72.28711,72.42383 72.285255,72.424042 0 0 0 60.24219,71.33203 c 2.71981,-2.15601 5.15552,-3.8199 7.85351,-5.22266 3.68967,-1.91835 9.02476,-4.13282 16.10156,-2.16797 2.59657,0.72085 2.44963,0.77074 4.28125,1.38282 1.40704,0.47019 3.17274,1.06532 4.89454,1.64648 13.74128,-14.50093 20.22202,-26.68896 24.76953,-45.63476 L 428.5,411.12109 a 17.50175,17.50175 0 0 1 -0.7168,-0.59961 c -5.86961,-5.19444 -7.03984,-10.41071 -7.70508,-15.23437 -0.66523,-4.82366 -0.24847,-9.66792 1.19727,-14.61523 a 17.50175,17.50175 0 0 0 0.002,0 c 1.90887,-6.53209 4.7587,-12.3096 8.46289,-20 1.8521,-3.84522 3.79055,-7.66524 5.70508,-11.08399 1.33493,-2.38377 2.1974,-4.27193 3.97657,-6.61328 a 72.285255,72.424042 0 0 0 -49.96094,-20.19922 z m 70.35937,56.2207 c -1.97133,4.34309 -3.4061,7.96651 -3.93554,9.17774 l 5.77539,4.58594 a 72.285255,72.424042 0 0 0 -1.83985,-13.76368 z"
         style="fill:url(#linearGradient4260);fill-opacity:1;stroke:none;stroke-width:14;stroke-miterlimit:4;stroke-dasharray:none;stroke-opacity:1"
         inkscape:connector-curvature="0" />
      <flowRoot
         style="font-style:normal;font-weight:normal;font-size:40px;line-height:125%;font-family:sans-serif;letter-spacing:0px;word-spacing:0px;fill:#252525;fill-opacity:1;stroke:none;stroke-width:1px;stroke-linecap:butt;stroke-linejoin:miter;stroke-opacity:1"
         id="flowRoot4169"
         xml:space="preserve"><flowRegion
           id="flowRegion4171"><rect
             y="427.07962"
             x="89.541069"
             height="88.78862"
             width="56.433445"
             id="rect4173" /></flowRegion><flowPara
           id="flowPara4175" /></flowRoot>      <rect
         inkscape:export-ydpi="4.9499998"
         inkscape:export-xdpi="4.9499998"
         y="322.27005"
         x="189.14485"
         height="400"
         width="400"
         id="rect3336"
         style="fill:none;fill-rule:evenodd;stroke:none;stroke-width:1px;stroke-linecap:butt;stroke-linejoin:miter;stroke-opacity:1" />
      <path
         sodipodi:nodetypes="zszzczzccczzzczzsz"
         inkscape:connector-curvature="0"
         id="rect4155"
         d="m 461.46162,465.0126 c 15.70613,-27.85182 24.90999,-55.75 30.26415,-81.78287 0.42683,-2.07531 0.0292,-3.78121 -1.26828,-5.77409 -1.29764,-1.99288 -5.35827,-7.63775 -9.3245,-12.53207 -3.96622,-4.89433 -14.76586,-16.47596 -14.76586,-16.47596 -2.80491,-3.00129 -7.33803,-0.859 -11.49713,3.38868 -4.1591,4.24767 -15.21034,28.31804 -16.79617,33.74471 -1.58582,5.42668 -0.61198,10.13609 1.30783,11.83507 l 15.29843,12.14773 c -5.83431,30.96823 -15.93155,50.24968 -39.45784,72.66745 0,0 -17.29704,-5.88499 -18.53235,-6.22793 -1.2353,-0.34298 -4.00359,0.41741 -11.06684,6.43285 -7.06326,6.01547 -17.02394,25.04262 -19.14457,31.80824 -2.12062,6.76561 -0.22681,10.33077 3.81815,11.05037 0,0 15.6893,2.77687 21.95388,3.44038 6.26455,0.6635 13.56649,1.05748 15.49289,0.98103 1.9264,-0.0764 3.87229,-0.76102 5.53162,-2.07624 17.80483,-14.1126 32.48045,-34.77549 48.18659,-62.62735 z"
         style="color:#252525;font-style:normal;font-variant:normal;font-weight:normal;font-stretch:normal;font-size:medium;line-height:normal;font-family:sans-serif;text-indent:0;text-align:start;text-decoration:none;text-decoration-line:none;text-decoration-style:solid;text-decoration-color:#252525;letter-spacing:normal;word-spacing:normal;text-transform:none;direction:ltr;block-progression:tb;writing-mode:lr-tb;baseline-shift:baseline;text-anchor:start;white-space:normal;clip-rule:nonzero;display:inline;overflow:visible;visibility:visible;opacity:1;isolation:auto;mix-blend-mode:normal;color-interpolation:sRGB;color-interpolation-filters:linearRGB;solid-color:#252525;solid-opacity:1;fill:#99b000;fill-opacity:1;fill-rule:nonzero;stroke:none;stroke-width:20;stroke-linecap:butt;stroke-linejoin:round;stroke-miterlimit:4;stroke-dasharray:none;stroke-dashoffset:0;stroke-opacity:1;color-rendering:auto;image-rendering:auto;shape-rendering:auto;text-rendering:auto;enable-background:accumulate" />
      <text
         xml:space="preserve"
         style="font-style:normal;font-weight:normal;font-size:230.20143127px;line-height:125%;font-family:sans-serif;letter-spacing:0px;word-spacing:0px;fill:#99b000;fill-opacity:1;stroke:none;stroke-width:1px;stroke-linecap:butt;stroke-linejoin:miter;stroke-opacity:1"
         x="375.14221"
         y="682.16815"
         id="text4185"
         sodipodi:linespacing="125%"><tspan
           sodipodi:role="line"
           id="tspan4187"
           x="375.14221"
           y="682.16815"
           style="font-style:normal;font-variant:normal;font-weight:bold;font-stretch:normal;font-family:sans-serif;-inkscape-font-specification:'sans-serif Bold';fill:#99b000">@</tspan></text>
    </g>
  </g>
</svg>
