<?xml version="1.0" encoding="UTF-8" standalone="no"?>
<!-- Created with Inkscape (http://www.inkscape.org/) -->

<svg
   xmlns:dc="http://purl.org/dc/elements/1.1/"
   xmlns:cc="http://creativecommons.org/ns#"
   xmlns:rdf="http://www.w3.org/1999/02/22-rdf-syntax-ns#"
   xmlns:svg="http://www.w3.org/2000/svg"
   xmlns="http://www.w3.org/2000/svg"
   xmlns:xlink="http://www.w3.org/1999/xlink"
   xmlns:sodipodi="http://sodipodi.sourceforge.net/DTD/sodipodi-0.dtd"
   xmlns:inkscape="http://www.inkscape.org/namespaces/inkscape"
   width="210mm"
   height="297mm"
   viewBox="0 0 744.09448819 1052.3622047"
   id="svg2"
   version="1.1"
   inkscape:version="0.91 r13725"
   sodipodi:docname="user-zombie.svg"
   inkscape:export-filename="C:\Users\johannes\Documents\Arbeit\RRZE\bi-con\bi-con\scalable\documents\document.png"
   inkscape:export-xdpi="4"
   inkscape:export-ydpi="4">
  <defs
     id="defs4">
    <linearGradient
       id="linearGradient2224">
      <stop
         id="stop2226"
         offset="0"
         style="stop-color:#7c7c7c;stop-opacity:1;" />
      <stop
         id="stop2228"
         offset="1"
         style="stop-color:#b8b8b8;stop-opacity:1;" />
    </linearGradient>
    <linearGradient
       id="linearGradient15218">
      <stop
         id="stop15220"
         offset="0"
         style="stop-color:#eeeeef;stop-opacity:1;" />
      <stop
         id="stop2736"
         offset="0.59928656"
         style="stop-color:#d3d7cf;stop-opacity:1;" />
      <stop
         id="stop2738"
         offset="0.82758623"
         style="stop-color:#ffffff;stop-opacity:1;" />
      <stop
         id="stop15222"
         offset="1"
         style="stop-color:#d3d7cf;stop-opacity:1;" />
    </linearGradient>
    <pattern
       y="0"
       x="0"
       height="6"
       width="6"
       patternUnits="userSpaceOnUse"
       id="EMFhbasepattern" />
    <pattern
       y="0"
       x="0"
       height="6"
       width="6"
       patternUnits="userSpaceOnUse"
       id="EMFhbasepattern-5" />
    <linearGradient
       gradientTransform="matrix(1.1383349,0,0,1.1383349,-56.998064,-53.186784)"
       inkscape:collect="always"
       xlink:href="#linearGradient4254"
       id="linearGradient4268"
       x1="358.43118"
       y1="465.73074"
       x2="429.96555"
       y2="644.62878"
       gradientUnits="userSpaceOnUse" />
    <linearGradient
       inkscape:collect="always"
       id="linearGradient4254">
      <stop
         style="stop-color:#9397a2;stop-opacity:1"
         offset="0"
         id="stop4256" />
      <stop
         style="stop-color:#5a6578;stop-opacity:1"
         offset="1"
         id="stop4258" />
    </linearGradient>
    <linearGradient
       inkscape:collect="always"
       xlink:href="#linearGradient4410"
       id="linearGradient4263-3"
       x1="378.51413"
       y1="461.36569"
       x2="424.83945"
       y2="349.64282"
       gradientUnits="userSpaceOnUse"
       gradientTransform="matrix(1.4197116,0,0,1.3224971,-169.44005,-119.1626)" />
    <linearGradient
       inkscape:collect="always"
       id="linearGradient4410">
      <stop
         style="stop-color:#5a6578;stop-opacity:1;"
         offset="0"
         id="stop4412" />
      <stop
         style="stop-color:#9397a2;stop-opacity:1"
         offset="1"
         id="stop4414" />
    </linearGradient>
    <linearGradient
       inkscape:collect="always"
       xlink:href="#linearGradient4410"
       id="linearGradient4263"
       x1="378.51413"
       y1="461.36569"
       x2="424.83945"
       y2="349.64282"
       gradientUnits="userSpaceOnUse"
       gradientTransform="matrix(1.4197116,0,0,1.3224971,-169.45921,-118.82036)" />
  </defs>
  <sodipodi:namedview
     id="base"
     pagecolor="#ffffff"
     bordercolor="#666666"
     borderopacity="1.0"
     inkscape:pageopacity="0.0"
     inkscape:pageshadow="2"
     inkscape:zoom="0.66644165"
     inkscape:cx="414.93463"
     inkscape:cy="549.29032"
     inkscape:document-units="px"
     inkscape:current-layer="layer1"
     showgrid="false"
     showguides="true"
     inkscape:guide-bbox="true"
     inkscape:window-width="1366"
     inkscape:window-height="721"
     inkscape:window-x="-4"
     inkscape:window-y="-4"
     inkscape:window-maximized="1">
    <sodipodi:guide
       position="315.53572,730.17859"
       orientation="0,1"
       id="guide3338" />
    <sodipodi:guide
       position="351.25,330.17858"
       orientation="0,1"
       id="guide3340" />
    <sodipodi:guide
       position="189.10714,408.8393"
       orientation="1,0"
       id="guide3344" />
    <sodipodi:guide
       position="589.04521,468.07945"
       orientation="1,0"
       id="guide3346" />
    <inkscape:grid
       type="xygrid"
       id="grid3440" />
    <sodipodi:guide
       position="589.04521,378.30213"
       orientation="1,0"
       id="guide3411" />
  </sodipodi:namedview>
  <metadata
     id="metadata7">
    <rdf:RDF>
      <cc:Work
         rdf:about="">
        <dc:format>image/svg+xml</dc:format>
        <dc:type
           rdf:resource="http://purl.org/dc/dcmitype/StillImage" />
        <dc:title />
      </cc:Work>
    </rdf:RDF>
  </metadata>
  <g
     inkscape:label="Ebene 1"
     inkscape:groupmode="layer"
     id="layer1">
    <rect
       style="fill:none;fill-rule:evenodd;stroke:none;stroke-width:1px;stroke-linecap:butt;stroke-linejoin:miter;stroke-opacity:1"
       id="rect3336"
       width="400"
       height="400"
       x="189.14485"
       y="322.27005"
       inkscape:export-xdpi="4.9499998"
       inkscape:export-ydpi="4.9499998" />
    <g
       transform="translate(-0.70961337,-0.95546551)"
       id="g4320">
      <g
         id="g4279"
         transform="matrix(1.001157,0,0,1.001157,-0.0238132,-0.9476375)">
        <path
           style="fill:url(#linearGradient4268);fill-opacity:1;stroke:none;stroke-width:41.15159225;stroke-linecap:round;stroke-linejoin:round;stroke-opacity:1"
           d="m 346.70397,470.92083 c -0.1337,0.11828 -0.25555,0.24538 -0.39352,0.36017 l -7.4481,4.03531 c -48.5793,28.77791 -82.8272,98.19155 -82.8272,179.25217 0,17.41076 1.58806,34.28005 4.55111,50.32908 4.39509,9.83224 15.43789,17.03868 28.66959,17.97992 l 0,0.10894 196.66069,0 0,-0.009 c 14.85128,-0.20963 27.35946,-8.29096 31.56211,-19.36948 2.81215,-15.66257 4.31545,-32.09366 4.31545,-49.03956 0,-84.86214 -37.53898,-156.95864 -89.75948,-183.02735 -12.46771,7.0001 -26.83943,11.0165 -42.12284,11.0165 -15.72892,1e-5 -30.49254,-4.25344 -43.20781,-11.6368 z"
           id="path2176"
           inkscape:connector-curvature="0"
           sodipodi:nodetypes="cccsccccccscsc" />
        <path
           style="fill:url(#linearGradient4263-3);fill-opacity:1;fill-rule:evenodd;stroke:#ffffff;stroke-width:26.18170357;stroke-linecap:butt;stroke-linejoin:round;stroke-miterlimit:4;stroke-dasharray:none;stroke-opacity:1"
           d="m 388.92197,323.07736 c -109.67853,0.12156 -69.78748,121.13039 -69.78748,121.13039 9.81292,11.8266 18.6157,14.50151 20.28314,17.00157 l 1.50974,27.35569 c 0.34751,6.29679 5.07698,11.38335 11.38335,11.38335 l 76.04611,0 c 6.30638,0 11.38335,-5.07697 11.38335,-11.38335 l 1.50974,-28.04005 c 7.4814,-5.02034 14.08456,-8.43459 21.18803,-16.31721 0,0 36.16255,-121.25202 -73.51598,-121.13039 z m -34.17894,62.37497 c 9.95281,0 18.02215,7.51467 18.02215,16.78599 0,9.2713 -8.06934,16.78822 -18.02215,16.78822 -9.95284,0 -18.01994,-7.51692 -18.01994,-16.78822 0,-9.27132 8.0671,-16.78599 18.01994,-16.78599 z m 72.03303,1.2117 c 9.95282,0 18.01993,7.51692 18.01993,16.78822 0,9.27132 -8.06711,16.78599 -18.01993,16.78599 -9.95284,10e-6 -18.02215,-7.51465 -18.02215,-16.78599 0,-9.2713 8.06934,-16.78823 18.02215,-16.78822 z m -36.1488,34.72365 c 3.67534,-0.0254 14.41264,21.16273 12.63729,24.01621 -1.77537,2.85357 -23.13382,3.05527 -25.25457,0 -2.12068,-3.05525 8.94187,-23.99103 12.61728,-24.01621 z"
           id="path4198-1"
           inkscape:connector-curvature="0"
           sodipodi:nodetypes="sccssssccssssssssssscscc" />
        <path
           style="fill:url(#linearGradient4263);fill-opacity:1;fill-rule:evenodd;stroke:none;stroke-width:1px;stroke-linecap:butt;stroke-linejoin:round;stroke-opacity:1"
           d="m 388.90234,323.41992 c -109.67854,0.12156 -69.78711,121.13086 -69.78711,121.13086 9.81292,11.8266 18.61577,14.49994 20.28321,17 l 1.50976,27.35742 c 0.34752,6.29679 5.07645,11.38282 11.38282,11.38282 l 76.04687,0 c 6.30638,0 11.38281,-5.07644 11.38281,-11.38282 l 1.50977,-28.04101 c 7.4814,-5.02034 14.08403,-8.43379 21.1875,-16.31641 0,0 36.16289,-121.25249 -73.51563,-121.13086 z m -34.46484,54.36133 a 23.864853,23.865 0 0 1 23.86523,23.86523 23.864853,23.865 0 0 1 -23.86523,23.86524 23.864853,23.865 0 0 1 -23.86523,-23.86524 23.864853,23.865 0 0 1 23.86523,-23.86523 z m 72,2 a 23.864853,23.865 0 0 1 23.86523,23.86523 23.864853,23.865 0 0 1 -23.86523,23.86524 23.864853,23.865 0 0 1 -23.86523,-23.86524 23.864853,23.865 0 0 1 23.86523,-23.86523 z m -35.83008,41.94922 c 3.67534,-0.0254 14.41402,21.16214 12.63867,24.01562 -1.77537,2.85357 -23.13511,3.05527 -25.25586,0 -2.12068,-3.05525 8.94178,-23.99044 12.61719,-24.01562 z"
           id="path4198"
           inkscape:connector-curvature="0" />
      </g>
    </g>
  </g>
</svg>
