<?xml version="1.0" encoding="UTF-8" standalone="no"?>
<!-- Created with Inkscape (http://www.inkscape.org/) -->

<svg
   xmlns:dc="http://purl.org/dc/elements/1.1/"
   xmlns:cc="http://creativecommons.org/ns#"
   xmlns:rdf="http://www.w3.org/1999/02/22-rdf-syntax-ns#"
   xmlns:svg="http://www.w3.org/2000/svg"
   xmlns="http://www.w3.org/2000/svg"
   xmlns:xlink="http://www.w3.org/1999/xlink"
   xmlns:sodipodi="http://sodipodi.sourceforge.net/DTD/sodipodi-0.dtd"
   xmlns:inkscape="http://www.inkscape.org/namespaces/inkscape"
   width="210mm"
   height="297mm"
   viewBox="0 0 744.09448819 1052.3622047"
   id="svg2"
   version="1.1"
   inkscape:version="0.91 r13725"
   sodipodi:docname="user-early-student.svg"
   inkscape:export-filename="C:\Users\johannes\Documents\Arbeit\RRZE\bi-con\bi-con\scalable\documents\document.png"
   inkscape:export-xdpi="4"
   inkscape:export-ydpi="4">
  <defs
     id="defs4">
    <linearGradient
       inkscape:collect="always"
       id="linearGradient4254">
      <stop
         style="stop-color:#9397a2;stop-opacity:1"
         offset="0"
         id="stop4256" />
      <stop
         style="stop-color:#5a6578;stop-opacity:1"
         offset="1"
         id="stop4258" />
    </linearGradient>
    <linearGradient
       id="linearGradient2224">
      <stop
         id="stop2226"
         offset="0"
         style="stop-color:#7c7c7c;stop-opacity:1;" />
      <stop
         id="stop2228"
         offset="1"
         style="stop-color:#b8b8b8;stop-opacity:1;" />
    </linearGradient>
    <linearGradient
       id="linearGradient15218">
      <stop
         id="stop15220"
         offset="0"
         style="stop-color:#eeeeef;stop-opacity:1;" />
      <stop
         id="stop2736"
         offset="0.59928656"
         style="stop-color:#d3d7cf;stop-opacity:1;" />
      <stop
         id="stop2738"
         offset="0.82758623"
         style="stop-color:#ffffff;stop-opacity:1;" />
      <stop
         id="stop15222"
         offset="1"
         style="stop-color:#d3d7cf;stop-opacity:1;" />
    </linearGradient>
    <pattern
       y="0"
       x="0"
       height="6"
       width="6"
       patternUnits="userSpaceOnUse"
       id="EMFhbasepattern" />
    <pattern
       y="0"
       x="0"
       height="6"
       width="6"
       patternUnits="userSpaceOnUse"
       id="EMFhbasepattern-5" />
    <linearGradient
       inkscape:collect="always"
       xlink:href="#linearGradient4254"
       id="linearGradient4260"
       x1="380.01031"
       y1="330.40619"
       x2="414.6156"
       y2="457.18103"
       gradientUnits="userSpaceOnUse"
       gradientTransform="translate(0.37005758,-0.39466108)" />
    <linearGradient
       inkscape:collect="always"
       xlink:href="#linearGradient4254"
       id="linearGradient4268"
       x1="358.43118"
       y1="465.73074"
       x2="429.96555"
       y2="644.62878"
       gradientUnits="userSpaceOnUse" />
  </defs>
  <sodipodi:namedview
     id="base"
     pagecolor="#ffffff"
     bordercolor="#666666"
     borderopacity="1.0"
     inkscape:pageopacity="0.0"
     inkscape:pageshadow="2"
     inkscape:zoom="1"
     inkscape:cx="297.18819"
     inkscape:cy="380.13854"
     inkscape:document-units="px"
     inkscape:current-layer="layer1"
     showgrid="false"
     showguides="true"
     inkscape:guide-bbox="true"
     inkscape:window-width="1366"
     inkscape:window-height="721"
     inkscape:window-x="-4"
     inkscape:window-y="-4"
     inkscape:window-maximized="1">
    <sodipodi:guide
       position="315.53572,730.17859"
       orientation="0,1"
       id="guide3338" />
    <sodipodi:guide
       position="351.25,330.17858"
       orientation="0,1"
       id="guide3340" />
    <sodipodi:guide
       position="189.10714,408.8393"
       orientation="1,0"
       id="guide3344" />
    <sodipodi:guide
       position="589.04521,468.07945"
       orientation="1,0"
       id="guide3346" />
    <inkscape:grid
       type="xygrid"
       id="grid3440" />
    <sodipodi:guide
       position="589.04521,378.30213"
       orientation="1,0"
       id="guide3411" />
  </sodipodi:namedview>
  <metadata
     id="metadata7">
    <rdf:RDF>
      <cc:Work
         rdf:about="">
        <dc:format>image/svg+xml</dc:format>
        <dc:type
           rdf:resource="http://purl.org/dc/dcmitype/StillImage" />
        <dc:title />
      </cc:Work>
    </rdf:RDF>
  </metadata>
  <g
     inkscape:label="Ebene 1"
     inkscape:groupmode="layer"
     id="layer1">
    <flowRoot
       xml:space="preserve"
       id="flowRoot4169"
       style="font-style:normal;font-weight:normal;font-size:40px;line-height:125%;font-family:sans-serif;letter-spacing:0px;word-spacing:0px;fill:#000000;fill-opacity:1;stroke:none;stroke-width:1px;stroke-linecap:butt;stroke-linejoin:miter;stroke-opacity:1"><flowRegion
         id="flowRegion4171"><rect
           id="rect4173"
           width="56.433445"
           height="88.78862"
           x="89.541069"
           y="427.07962" /></flowRegion><flowPara
         id="flowPara4175" /></flowRoot>    <rect
       style="fill:none;fill-rule:evenodd;stroke:none;stroke-width:1px;stroke-linecap:butt;stroke-linejoin:miter;stroke-opacity:1"
       id="rect3336"
       width="400"
       height="400"
       x="189.14485"
       y="322.27005"
       inkscape:export-xdpi="4.9499998"
       inkscape:export-ydpi="4.9499998" />
    <g
       id="g4289"
       transform="matrix(1.1386133,0,0,1.1386133,-55.088124,-53.5012)">
      <path
         sodipodi:nodetypes="cccsccccccscsc"
         inkscape:connector-curvature="0"
         id="path2176"
         d="m 354.64258,460.41602 c -0.11745,0.1039 -0.22449,0.21556 -0.3457,0.3164 l -6.54297,3.54492 c -42.67576,25.28071 -72.76172,86.25893 -72.76172,157.46875 0,15.29493 1.39507,30.1142 3.99804,44.21289 3.86098,8.63739 13.56182,14.96807 25.18555,15.79493 l 0,0.0957 172.76172,0 0,-0.008 c 13.04649,-0.18416 24.03463,-7.28341 27.72656,-17.01563 2.4704,-13.75919 3.79102,-28.19351 3.79102,-43.08008 0,-74.54936 -32.9771,-137.88441 -78.85156,-160.78515 -10.95259,6.14942 -23.5778,9.67773 -37.00391,9.67773 -13.81748,10e-6 -26.78697,-3.73654 -37.95703,-10.22265 z"
         style="fill:url(#linearGradient4268);fill-opacity:1;stroke:none;stroke-width:41.15159225;stroke-linecap:round;stroke-linejoin:round;stroke-opacity:1" />
      <ellipse
         ry="65.293182"
         rx="65.647316"
         cx="392.98022"
         cy="395.83826"
         id="circle2187-6"
         style="fill:url(#linearGradient4260);fill-opacity:1;stroke:none;stroke-width:14;stroke-miterlimit:4;stroke-dasharray:none;stroke-opacity:1" />
    </g>
    <g
       id="g4164"
       transform="translate(6,-1.9742253)">
      <path
         sodipodi:nodetypes="ssccssssssssccssscsccccsccscsssccssscscssssc"
         inkscape:connector-curvature="0"
         id="rect4177-3"
         d="m 429.18084,497.04479 c -11.52134,0 -24.34537,13.48976 -22.91159,24.74931 l 0,8.34345 0,0.12734 -28.66443,0 c -14.0976,0 -25.44497,11.34752 -25.44497,25.44495 l 0,33.93201 c 0,14.09759 11.34737,25.44505 25.44497,25.44505 l 152.67001,0 c 14.0975,0 25.46097,-11.34746 25.46097,-25.44505 l 0,-33.93201 c 0,-14.09751 -11.36347,-25.44495 -25.46097,-25.44495 l -29.65348,0 0,-0.12734 0,-8.34345 c 0,-11.35047 -11.39025,-24.74931 -22.91161,-24.74931 z m 5.8547,19.56465 37.47353,0 c 4.19872,0 7.5777,3.34533 7.5777,7.48189 l 0.11198,6.17382 -52.61295,0 -0.11198,-6.17382 c -0.0735,-4.13592 3.36303,-7.48189 7.5617,-7.48189 z m 112.3409,102.14691 c -5.04535,2.98446 -10.85118,4.81777 -17.10161,4.81777 l -16.95801,0 0,6.25672 c 0,4.69908 -4.85022,9.53346 -9.5494,9.53346 -4.69917,0 -9.5495,-4.65042 -9.5495,-9.53346 l 0,-6.25672 -80.55619,0 0,6.36837 c 0,4.69916 -4.85025,9.53347 -9.54943,9.53347 -4.69908,0 -9.54941,-4.83431 -9.54941,-9.53347 l 0,-6.36837 -16.95807,0 c -6.14905,0 -11.85647,-1.79466 -16.84635,-4.6902 l 0,57.4945 c 0,9.39844 7.5756,16.95801 16.974,16.95801 l 152.67004,0 c 9.39832,0 16.97393,-7.55957 16.97393,-16.95801 z"
         style="opacity:1;fill:#abbe24;fill-opacity:1;stroke:#ffffff;stroke-width:30;stroke-linecap:butt;stroke-linejoin:round;stroke-miterlimit:4;stroke-dasharray:none;stroke-opacity:1" />
      <path
         sodipodi:nodetypes="ssccssssssssccssscsccccsccscsssccssscscssssc"
         inkscape:connector-curvature="0"
         id="rect4177"
         d="m 431.51318,498.27714 c -11.52134,0 -24.34538,13.48976 -22.91159,24.74931 l 0,8.34345 0,0.12734 -28.66443,0 c -14.0976,0 -25.44497,11.34752 -25.44497,25.44495 l 0,33.93201 c 0,14.09759 11.34737,25.44505 25.44497,25.44505 l 152.67001,0 c 14.0975,0 25.46097,-11.34746 25.46097,-25.44505 l 0,-33.93201 c 0,-14.09751 -11.36347,-25.44495 -25.46097,-25.44495 l -29.65348,0 0,-0.12734 0,-8.34345 c 0,-11.35048 -11.39025,-24.74931 -22.91161,-24.74931 z m 5.8547,19.56465 37.47353,0 c 4.19872,0 7.5777,3.34533 7.5777,7.48188 l 0.11198,6.17382 -52.61295,0 -0.11198,-6.17382 c -0.0735,-4.13591 3.36303,-7.48188 7.5617,-7.48188 z m 112.3409,102.14691 c -5.04535,2.98446 -10.85118,4.81777 -17.10161,4.81777 l -16.95801,0 0,6.25672 c 0,4.69908 -4.85022,9.53346 -9.5494,9.53346 -4.69917,0 -9.5495,-4.65042 -9.5495,-9.53346 l 0,-6.25672 -80.55619,0 0,6.36837 c 0,4.69916 -4.85025,9.53347 -9.54943,9.53347 -4.69908,0 -9.54941,-4.83431 -9.54941,-9.53347 l 0,-6.36837 -16.95807,0 c -6.14906,0 -11.85647,-1.79466 -16.84635,-4.69021 l 0,57.49451 c 0,9.39844 7.5756,16.95801 16.974,16.95801 l 152.67004,0 c 9.39832,0 16.97393,-7.55957 16.97393,-16.95801 z"
         style="opacity:1;fill:#abbe24;fill-opacity:1;stroke:none;stroke-width:15;stroke-linecap:butt;stroke-linejoin:round;stroke-miterlimit:4;stroke-dasharray:none;stroke-opacity:1" />
    </g>
  </g>
</svg>
