<?xml version="1.0" encoding="UTF-8" standalone="no"?>
<!-- Created with Inkscape (http://www.inkscape.org/) -->
<svg xmlns:dc="http://purl.org/dc/elements/1.1/" xmlns:cc="http://creativecommons.org/ns#" xmlns:rdf="http://www.w3.org/1999/02/22-rdf-syntax-ns#" xmlns:svg="http://www.w3.org/2000/svg" xmlns="http://www.w3.org/2000/svg" xmlns:xlink="http://www.w3.org/1999/xlink" xmlns:sodipodi="http://sodipodi.sourceforge.net/DTD/sodipodi-0.dtd" xmlns:inkscape="http://www.inkscape.org/namespaces/inkscape" width="210mm" height="297mm" viewBox="0 0 744.09448819 1052.3622047" id="svg2" version="1.1" inkscape:version="0.91 r13725" inkscape:export-xdpi="4" inkscape:export-ydpi="4">
  <defs id="defs4">
    <linearGradient inkscape:collect="always" id="linearGradient4254">
      <stop style="stop-color:#9397a2;stop-opacity:1" offset="0" id="stop4256"/>
      <stop style="stop-color:#5a6578;stop-opacity:1" offset="1" id="stop4258"/>
    </linearGradient>
    <linearGradient id="linearGradient2224">
      <stop id="stop2226" offset="0" style="stop-color:#7c7c7c;stop-opacity:1;"/>
      <stop id="stop2228" offset="1" style="stop-color:#b8b8b8;stop-opacity:1;"/>
    </linearGradient>
    <linearGradient id="linearGradient15218">
      <stop id="stop15220" offset="0" style="stop-color:#eeeeef;stop-opacity:1;"/>
      <stop id="stop2736" offset="0.59928656" style="stop-color:#d3d7cf;stop-opacity:1;"/>
      <stop id="stop2738" offset="0.82758623" style="stop-color:#ffffff;stop-opacity:1;"/>
      <stop id="stop15222" offset="1" style="stop-color:#d3d7cf;stop-opacity:1;"/>
    </linearGradient>
    <pattern y="0" x="0" height="6" width="6" patternUnits="userSpaceOnUse" id="EMFhbasepattern"/>
    <pattern y="0" x="0" height="6" width="6" patternUnits="userSpaceOnUse" id="EMFhbasepattern-5"/>
    <linearGradient inkscape:collect="always" xlink:href="#linearGradient4254" id="linearGradient4260" x1="380.01031" y1="330.40619" x2="414.6156" y2="457.18103" gradientUnits="userSpaceOnUse" gradientTransform="translate(0.37005758,-0.39466108)"/>
    <linearGradient inkscape:collect="always" xlink:href="#linearGradient4254" id="linearGradient4268" x1="358.43118" y1="465.73074" x2="429.96555" y2="644.62878" gradientUnits="userSpaceOnUse"/>
  </defs>
  <sodipodi:namedview id="base" pagecolor="#ffffff" bordercolor="#666666" borderopacity="1.0" inkscape:pageopacity="0.0" inkscape:pageshadow="2" inkscape:zoom="1.4142136" inkscape:cx="406.99013" inkscape:cy="449.60715" inkscape:document-units="px" inkscape:current-layer="layer1" showgrid="false" showguides="true" inkscape:guide-bbox="true" inkscape:window-width="1366" inkscape:window-height="721" inkscape:window-x="-4" inkscape:window-y="-4" inkscape:window-maximized="1">
    <sodipodi:guide position="315.53572,730.17859" orientation="0,1" id="guide3338"/>
    <sodipodi:guide position="351.25,330.17858" orientation="0,1" id="guide3340"/>
    <sodipodi:guide position="189.10714,408.8393" orientation="1,0" id="guide3344"/>
    <sodipodi:guide position="589.04521,468.07945" orientation="1,0" id="guide3346"/>
    <inkscape:grid type="xygrid" id="grid3440"/>
    <sodipodi:guide position="589.04521,378.30213" orientation="1,0" id="guide3411"/>
  </sodipodi:namedview>
  <metadata id="metadata7">
    <rdf:RDF>
      <cc:Work rdf:about="">
        <dc:format>image/svg+xml</dc:format>
        <dc:type rdf:resource="http://purl.org/dc/dcmitype/StillImage"/>
        <dc:title>user endcustomer</dc:title>
      </cc:Work>
    </rdf:RDF>
  </metadata>
  <g inkscape:label="Ebene 1" inkscape:groupmode="layer" id="layer1">
    <flowRoot xml:space="preserve" id="flowRoot4169" style="font-style:normal;font-weight:normal;font-size:40px;line-height:125%;font-family:sans-serif;letter-spacing:0px;word-spacing:0px;fill:#000000;fill-opacity:1;stroke:none;stroke-width:1px;stroke-linecap:butt;stroke-linejoin:miter;stroke-opacity:1"><flowRegion id="flowRegion4171"><rect id="rect4173" width="56.433445" height="88.78862" x="89.541069" y="427.07962"/></flowRegion><flowPara id="flowPara4175"/></flowRoot>    <rect style="fill:none;fill-rule:evenodd;stroke:none;stroke-width:1px;stroke-linecap:butt;stroke-linejoin:miter;stroke-opacity:1" id="rect3336" width="400" height="400" x="189.14485" y="322.27005" inkscape:export-xdpi="4.9499998" inkscape:export-ydpi="4.9499998"/>
    <g id="g4289" transform="matrix(1.1386133,0,0,1.1386133,-57.431262,-53.517654)">
      <path sodipodi:nodetypes="cccsccccccscsc" inkscape:connector-curvature="0" id="path2176" d="m 354.64258,460.41602 c -0.11745,0.1039 -0.22449,0.21556 -0.3457,0.3164 l -6.54297,3.54492 c -42.67576,25.28071 -72.76172,86.25893 -72.76172,157.46875 0,15.29493 1.39507,30.1142 3.99804,44.21289 3.86098,8.63739 13.56182,14.96807 25.18555,15.79493 l 0,0.0957 172.76172,0 0,-0.008 c 13.04649,-0.18416 24.03463,-7.28341 27.72656,-17.01563 2.4704,-13.75919 3.79102,-28.19351 3.79102,-43.08008 0,-74.54936 -32.9771,-137.88441 -78.85156,-160.78515 -10.95259,6.14942 -23.5778,9.67773 -37.00391,9.67773 -13.81748,10e-6 -26.78697,-3.73654 -37.95703,-10.22265 z" style="fill:url(#linearGradient4268);fill-opacity:1;stroke:none;stroke-width:41.15159225;stroke-linecap:round;stroke-linejoin:round;stroke-opacity:1"/>
      <ellipse ry="65.293182" rx="65.647316" cx="392.98022" cy="395.83826" id="circle2187-6" style="fill:url(#linearGradient4260);fill-opacity:1;stroke:none;stroke-width:14;stroke-miterlimit:4;stroke-dasharray:none;stroke-opacity:1"/>
    </g>
    <rect style="opacity:1;fill:#c1d53a;fill-opacity:1;stroke:#ffffff;stroke-width:49.84339905;stroke-linecap:square;stroke-linejoin:round;stroke-miterlimit:4;stroke-dasharray:none;stroke-opacity:1" id="rect4171-91" width="149.32115" height="27.127575" x="357.04449" y="592.59778" ry="13.563787"/>
    <rect style="opacity:1;fill:#c1d53a;fill-opacity:1;stroke:#ffffff;stroke-width:49.84339905;stroke-linecap:square;stroke-linejoin:round;stroke-miterlimit:4;stroke-dasharray:none;stroke-opacity:1" id="rect4171-5-2" width="149.32115" height="27.127575" x="371.9765" y="623.79443" ry="13.563787"/>
    <rect style="opacity:1;fill:#c1d53a;fill-opacity:1;stroke:#ffffff;stroke-width:49.84339905;stroke-linecap:square;stroke-linejoin:round;stroke-miterlimit:4;stroke-dasharray:none;stroke-opacity:1" id="rect4171-2-74" width="149.32115" height="27.127575" x="359.17752" y="654.31293" ry="13.563787"/>
    <rect style="opacity:1;fill:#c1d53a;fill-opacity:1;stroke:#ffffff;stroke-width:49.84339905;stroke-linecap:square;stroke-linejoin:round;stroke-miterlimit:4;stroke-dasharray:none;stroke-opacity:1" id="rect4171-2-7-1" width="149.32115" height="27.127575" x="361.31076" y="561.40106" ry="13.563787"/>
    <rect style="opacity:1;fill:#abbe24;fill-opacity:1;stroke:none;stroke-width:16;stroke-linecap:square;stroke-linejoin:round;stroke-miterlimit:4;stroke-dasharray:none;stroke-opacity:1" id="rect4171" width="149.32115" height="27.127575" x="356.32874" y="592.39008" ry="13.563787"/>
    <rect style="opacity:1;fill:#abbe24;fill-opacity:1;stroke:none;stroke-width:16;stroke-linecap:square;stroke-linejoin:round;stroke-miterlimit:4;stroke-dasharray:none;stroke-opacity:1" id="rect4171-5" width="149.32115" height="27.127575" x="371.26074" y="623.58673" ry="13.563787"/>
    <rect style="opacity:1;fill:#abbe24;fill-opacity:1;stroke:none;stroke-width:16;stroke-linecap:square;stroke-linejoin:round;stroke-miterlimit:4;stroke-dasharray:none;stroke-opacity:1" id="rect4171-2" width="149.32115" height="27.127575" x="358.46176" y="654.10522" ry="13.563787"/>
    <rect style="opacity:1;fill:#abbe24;fill-opacity:1;stroke:none;stroke-width:16;stroke-linecap:square;stroke-linejoin:round;stroke-miterlimit:4;stroke-dasharray:none;stroke-opacity:1" id="rect4171-2-7" width="149.32115" height="27.127575" x="360.595" y="561.1933" ry="13.563787"/>
    <g id="g4224">
      <ellipse style="font-style:normal;font-weight:normal;font-size:medium;line-height:125%;font-family:sans-serif;letter-spacing:0px;word-spacing:0px;opacity:1;fill:#abbe24;fill-opacity:1;stroke:#ffffff;stroke-width:38.57146835;stroke-linecap:square;stroke-linejoin:round;stroke-miterlimit:4;stroke-dasharray:none;stroke-opacity:1" id="path4169-8" cx="497.31128" cy="570.19006" rx="74.516281" ry="74.036125"/>
      <ellipse style="font-style:normal;font-weight:normal;font-size:medium;line-height:125%;font-family:sans-serif;letter-spacing:0px;word-spacing:0px;opacity:1;fill:#abbe24;fill-opacity:1;stroke:none;stroke-width:16;stroke-linecap:square;stroke-linejoin:round;stroke-miterlimit:4;stroke-dasharray:none;stroke-opacity:1" id="path4169" cx="496.2467" cy="569.32306" rx="74.516281" ry="74.036125"/>
      <path d="m 480.71527,617.25213 c -4.64513,0 -8.61596,-0.77418 -11.9125,-2.32255 -3.29654,-1.59834 -5.9937,-3.67116 -8.0915,-6.21849 -2.0978,-2.59727 -3.64618,-5.51921 -4.64513,-8.76579 -0.949,-3.29654 -1.42351,-6.61804 -1.42351,-9.96455 l 0,-1.34856 c 0.0498,-0.44953 0.0999,-0.89907 0.14993,-1.34859 -0.49949,0.0498 -1.04891,0.0999 -1.64828,0.14992 l -1.72319,0 c -1.04889,0 -1.9979,-0.17475 -2.847,-0.52444 -0.8491,-0.34964 -1.59832,-0.82414 -2.24765,-1.42351 -0.64931,-0.59937 -1.1488,-1.27365 -1.49843,-2.02286 -0.34964,-0.74922 -0.52445,-1.5484 -0.52445,-2.3975 0,-1.44847 0.4745,-2.67219 1.42351,-3.67114 0.99895,-0.99895 2.49738,-1.49843 4.49528,-1.49843 0.69926,0 1.29863,0.025 1.79811,0.0749 0.54943,0 1.07387,0.05 1.57336,0.14993 0.49948,0.0498 1.02393,0.1249 1.57334,0.22477 0.54942,0.0999 0.68841,0.1147 1.43761,0.21463 0.12953,-0.7779 0.10759,-1.29361 0.38875,-2.95236 0.28116,-1.65875 0.20196,-3.64069 0.33449,-5.67773 0.0772,-1.18475 0.37479,-2.44173 0.73293,-3.49705 l -4.04576,0 -1.57333,0 c -0.94901,0 -1.82309,-0.025 -2.62225,-0.0749 -0.74922,-0.0498 -1.39855,-0.17475 -1.94796,-0.3746 -0.54943,-0.24975 -0.97399,-0.62435 -1.27366,-1.12382 -0.2997,-0.49948 -0.44954,-1.19874 -0.44954,-2.0978 0,-0.34964 0.05,-0.79916 0.14992,-1.34859 0.0999,-0.54942 0.27477,-1.12381 0.52445,-1.72318 0.29969,-0.59937 0.69927,-1.17378 1.19874,-1.7232 0.49948,-0.59937 1.17377,-1.0489 2.02288,-1.34859 l 14.16013,-0.67429 c 1.94796,-2.89697 4.07074,-5.81889 6.36831,-8.76579 2.2976,-2.94691 4.62017,-5.71901 6.96771,-8.31627 2.34753,-2.64723 4.6451,-4.99477 6.89275,-7.04261 2.24765,-2.0978 4.2955,-3.7211 6.14355,-4.8699 l 0.74921,-0.44952 0.74922,-0.44952 c 1.69822,-1.04891 3.44639,-2.12279 5.2445,-3.22162 1.84807,-1.09885 3.7211,-2.07284 5.61909,-2.92194 1.89802,-0.89907 3.79603,-1.6233 5.69402,-2.17271 1.94796,-0.59937 3.87095,-0.89907 5.76895,-0.89907 2.0978,0 4.04575,0.42457 5.84386,1.27367 1.84807,0.8491 3.47137,1.9979 4.8699,3.44639 1.39853,1.39853 2.49737,3.07177 3.29654,5.01972 0.79916,1.89802 1.19874,3.9209 1.19874,6.06864 0,2.24763 -0.29969,3.79601 -0.89906,4.64511 -0.59937,0.8491 -1.54836,1.27366 -2.847,1.27366 -0.99895,0 -1.77315,-0.22477 -2.32257,-0.67429 -0.54943,-0.49947 -0.99895,-1.09884 -1.34859,-1.79811 -0.29968,-0.69925 -0.54943,-1.44847 -0.74922,-2.24763 -0.19979,-0.79916 -0.47448,-1.54838 -0.82412,-2.24765 -0.29969,-0.69925 -0.69927,-1.27366 -1.19874,-1.72318 -0.49948,-0.49949 -1.19874,-0.74922 -2.0978,-0.74922 -2.04784,0 -4.22057,0.42456 -6.51816,1.27366 -2.29759,0.8491 -4.64513,1.9979 -7.04261,3.44639 -2.39749,1.39853 -4.79497,3.02181 -7.19245,4.86988 -2.34753,1.79811 -4.62015,3.69612 -6.81783,5.69402 -2.19769,1.94795 -4.24555,3.89591 -6.14357,5.84387 -1.89799,1.89801 -3.54627,3.64617 -4.9448,5.24449 l 13.26107,0 c 1.84807,0 3.34649,0.42456 4.49528,1.27367 1.19876,0.8491 1.79813,1.87303 1.79813,3.07177 0,0.89906 -0.22477,1.6233 -0.67429,2.17272 -0.39958,0.54943 -0.94901,0.97399 -1.64828,1.27367 -0.69926,0.29967 -1.49842,0.52444 -2.39748,0.67429 -0.8491,0.14992 -1.74817,0.27471 -2.69717,0.3746 -0.89907,0.0999 -2.12277,0.22483 -3.67114,0.37462 -1.49844,0.14992 -3.14672,0.32465 -4.94483,0.52444 -1.7981,0.14993 -3.6961,0.2997 -5.69402,0.44952 -1.94795,0.14993 -3.82098,0.2997 -5.61909,0.44955 -1.1488,1.89799 -1.12141,4.04129 -1.44418,6.19421 -0.32279,2.15294 -0.43318,3.65105 -0.64277,5.74885 2.49738,-0.29967 5.33678,-0.72983 7.13489,-0.92962 1.79811,-0.24976 3.34648,-0.44955 4.64513,-0.59939 1.34858,-0.14993 2.4724,-0.24973 3.37146,-0.29968 0.94899,-0.0999 1.79811,-0.14992 2.54733,-0.14992 3.04681,0 5.21951,0.22477 6.51816,0.67429 1.29864,0.39958 1.94795,1.24868 1.94795,2.54733 0,0.89906 -0.24973,1.69822 -0.74921,2.39747 -0.49949,0.64934 -1.17378,1.19876 -2.02288,1.64829 -0.79916,0.44952 -1.72319,0.82414 -2.7721,1.12381 -0.99895,0.29968 -1.9979,0.52445 -2.99685,0.67429 -0.8491,0.14993 -1.99789,0.34964 -3.44638,0.59937 -1.39853,0.19979 -2.94691,0.42456 -4.64513,0.6743 -1.69823,0.24973 -3.47135,0.49946 -5.3194,0.74921 -1.84808,0.24974 -3.6212,0.47451 -5.31943,0.6743 -0.0498,0.54942 -0.0999,1.12381 -0.14992,1.72318 l 0,1.72321 c 0,2.04784 0.22477,3.99579 0.67429,5.84384 0.44953,1.84807 1.19874,3.47137 2.24765,4.8699 1.04889,1.34859 2.44742,2.42246 4.19559,3.22162 1.74817,0.79916 3.94585,1.19874 6.59308,1.19874 3.34649,0 6.71795,-0.39958 10.11438,-1.19874 3.44639,-0.8491 6.89276,-1.97294 10.33915,-3.37147 3.44639,-1.39852 6.89276,-3.02182 10.33915,-4.86988 3.44638,-1.89801 6.86779,-3.92089 10.26422,-6.06863 l 1.64828,0 c 0.64931,0 1.27366,0.17475 1.87303,0.52444 0.59937,0.2997 1.12382,0.72426 1.57334,1.27367 0.44952,0.49948 0.79916,1.07387 1.04891,1.7232 0.29968,0.64931 0.44952,1.29862 0.44952,1.94796 0,1.49841 -0.77419,3.12171 -2.32257,4.86987 -1.54838,1.69823 -3.6212,3.39643 -6.21847,5.09466 -2.54732,1.69822 -5.49423,3.32152 -8.84071,4.86989 -3.34648,1.54838 -6.81784,2.92193 -10.41407,4.12067 -3.54628,1.19874 -7.09255,2.14774 -10.63882,2.84702 -3.54628,0.69925 -6.79288,1.04889 -9.73978,1.04889 z" style="font-style:normal;font-variant:normal;font-weight:normal;font-stretch:normal;font-size:medium;line-height:125%;font-family:'MV Boli';-inkscape-font-specification:'MV Boli';letter-spacing:0px;word-spacing:0px;fill:#ffffff;fill-opacity:1;stroke:#ffffff;stroke-width:4;stroke-linecap:butt;stroke-linejoin:round;stroke-miterlimit:4;stroke-dasharray:none;stroke-opacity:1" id="path4288" inkscape:connector-curvature="0" sodipodi:nodetypes="ccccscccssscscscccczsccsccsssccccsccccccccscccssscccccsscccccscscscccccczccccscscccccssccsscsscsccscccsccscscc"/>
    </g>
  </g>
</svg>
