<?xml version="1.0" encoding="UTF-8" standalone="no"?>
<!-- Created with Inkscape (http://www.inkscape.org/) -->

<svg
   xmlns:dc="http://purl.org/dc/elements/1.1/"
   xmlns:cc="http://creativecommons.org/ns#"
   xmlns:rdf="http://www.w3.org/1999/02/22-rdf-syntax-ns#"
   xmlns:svg="http://www.w3.org/2000/svg"
   xmlns="http://www.w3.org/2000/svg"
   xmlns:xlink="http://www.w3.org/1999/xlink"
   xmlns:sodipodi="http://sodipodi.sourceforge.net/DTD/sodipodi-0.dtd"
   xmlns:inkscape="http://www.inkscape.org/namespaces/inkscape"
   width="210mm"
   height="297mm"
   viewBox="0 0 744.09448819 1052.3622047"
   id="svg2"
   version="1.1"
   inkscape:version="0.91 r13725"
   inkscape:export-xdpi="7.1982074"
   inkscape:export-ydpi="7.1982074"
   sodipodi:docname="user-teacher.svg"
   inkscape:export-filename="C:\Users\johannes\Documents\Arbeit\RRZE\github3\bicons\32x32\categories\user-teacher.png">
  <defs
     id="defs4">
    <linearGradient
       inkscape:collect="always"
       id="linearGradient4254">
      <stop
         style="stop-color:#7a8597;stop-opacity:1"
         offset="0"
         id="stop4256" />
      <stop
         style="stop-color:#4e505d;stop-opacity:1"
         offset="1"
         id="stop4258" />
    </linearGradient>
    <linearGradient
       inkscape:collect="always"
       xlink:href="#linearGradient4254"
       id="linearGradient4268-6"
       x1="358.43118"
       y1="465.73074"
       x2="429.96555"
       y2="644.62878"
       gradientUnits="userSpaceOnUse"
       gradientTransform="matrix(1.1386133,0,0,1.1386133,-55.5309,-53.587558)" />
    <linearGradient
       inkscape:collect="always"
       xlink:href="#linearGradient4254"
       id="linearGradient4260-7"
       x1="380.01031"
       y1="330.40619"
       x2="414.6156"
       y2="457.18103"
       gradientUnits="userSpaceOnUse"
       gradientTransform="matrix(1.1011151,0,0,1.1092129,-42.84903,-44.307168)" />
  </defs>
  <sodipodi:namedview
     id="base"
     pagecolor="#ffffff"
     bordercolor="#666666"
     borderopacity="1.0"
     inkscape:pageopacity="0.0"
     inkscape:pageshadow="2"
     inkscape:zoom="0.80014557"
     inkscape:cx="243.62806"
     inkscape:cy="511.79406"
     inkscape:document-units="px"
     inkscape:current-layer="layer1"
     showgrid="false"
     showguides="true"
     inkscape:guide-bbox="true"
     inkscape:window-width="1366"
     inkscape:window-height="721"
     inkscape:window-x="-4"
     inkscape:window-y="-4"
     inkscape:window-maximized="1"
     inkscape:snap-bbox="true"
     inkscape:bbox-paths="true"
     inkscape:bbox-nodes="true"
     inkscape:snap-nodes="false">
    <sodipodi:guide
       position="315.53572,730.17859"
       orientation="0,1"
       id="guide3338" />
    <sodipodi:guide
       position="351.25,330.17858"
       orientation="0,1"
       id="guide3340" />
    <sodipodi:guide
       position="189.10714,408.8393"
       orientation="1,0"
       id="guide3344" />
    <sodipodi:guide
       position="589.04521,468.07945"
       orientation="1,0"
       id="guide3346" />
    <inkscape:grid
       type="xygrid"
       id="grid3440" />
    <sodipodi:guide
       position="0,0"
       orientation="0,1"
       id="guide3405" />
    <sodipodi:guide
       position="0,0"
       orientation="0,1"
       id="guide3409" />
    <sodipodi:guide
       position="589.04521,378.30213"
       orientation="1,0"
       id="guide3411" />
    <sodipodi:guide
       position="0,0"
       orientation="0,1"
       id="guide4168" />
  </sodipodi:namedview>
  <metadata
     id="metadata7">
    <rdf:RDF>
      <cc:Work
         rdf:about="">
        <dc:format>image/svg+xml</dc:format>
        <dc:type
           rdf:resource="http://purl.org/dc/dcmitype/StillImage" />
        <dc:title>user teacher</dc:title>
        <dc:date>June 2015</dc:date>
        <dc:creator>
          <cc:Agent>
            <dc:title>Johannes Hechler</dc:title>
          </cc:Agent>
        </dc:creator>
        <dc:rights>
          <cc:Agent>
            <dc:title>Johannes Hechler</dc:title>
          </cc:Agent>
        </dc:rights>
        <dc:publisher>
          <cc:Agent>
            <dc:title>RRZE</dc:title>
          </cc:Agent>
        </dc:publisher>
        <dc:contributor>
          <cc:Agent>
            <dc:title>Ute Weber, Hendrik Eggers, Joanna Barbach</dc:title>
          </cc:Agent>
        </dc:contributor>
        <dc:subject>
          <rdf:Bag>
            <rdf:li>user</rdf:li>
            <rdf:li>teacher</rdf:li>
            <rdf:li>lecture</rdf:li>
            <rdf:li>university</rdf:li>
            <rdf:li>seminar</rdf:li>
          </rdf:Bag>
        </dc:subject>
        <cc:license
           rdf:resource="http://creativecommons.org/licenses/by-sa/3.0/" />
      </cc:Work>
      <cc:License
         rdf:about="http://creativecommons.org/licenses/by-sa/3.0/">
        <cc:permits
           rdf:resource="http://creativecommons.org/ns#Reproduction" />
        <cc:permits
           rdf:resource="http://creativecommons.org/ns#Distribution" />
        <cc:requires
           rdf:resource="http://creativecommons.org/ns#Notice" />
        <cc:requires
           rdf:resource="http://creativecommons.org/ns#Attribution" />
        <cc:permits
           rdf:resource="http://creativecommons.org/ns#DerivativeWorks" />
        <cc:requires
           rdf:resource="http://creativecommons.org/ns#ShareAlike" />
      </cc:License>
    </rdf:RDF>
  </metadata>
  <g
     inkscape:label="Ebene 1"
     inkscape:groupmode="layer"
     id="layer1">
    <g
       id="g4235">
      <flowRoot
         style="font-style:normal;font-weight:normal;font-size:40px;line-height:125%;font-family:sans-serif;letter-spacing:0px;word-spacing:0px;fill:#252525;fill-opacity:1;stroke:none;stroke-width:1px;stroke-linecap:butt;stroke-linejoin:miter;stroke-opacity:1"
         id="flowRoot4169-6"
         xml:space="preserve"
         transform="translate(-0.09964,-0.086363)"><flowRegion
           id="flowRegion4171-2"><rect
             y="427.07962"
             x="89.541069"
             height="88.78862"
             width="56.433445"
             id="rect4173-4" /></flowRegion><flowPara
           id="flowPara4175-2" /></flowRoot>      <rect
         inkscape:export-ydpi="4.9499998"
         inkscape:export-xdpi="4.9499998"
         y="322.18362"
         x="189.04521"
         height="400"
         width="400"
         id="rect3336-6"
         style="fill:none;fill-rule:evenodd;stroke:none;stroke-width:1px;stroke-linecap:butt;stroke-linejoin:miter;stroke-opacity:1" />
      <path
         id="path2176-5"
         d="M 346.26953 474.64648 L 346.26953 474.64844 C 346.1358 474.76675 346.01496 474.89299 345.87695 475.00781 L 338.42578 479.04492 C 289.83459 507.82988 256.02148 573.1715 256.02148 654.25195 C 256.02148 671.66693 257.60849 688.54075 260.57227 704.59375 C 264.96843 714.42835 276.01507 721.63663 289.25 722.57812 L 289.25 722.6875 L 313.87305 722.6875 C 309.68268 716.46538 307.21875 709.01645 307.21875 701.06641 L 307.21875 574.35938 C 307.21875 552.99955 324.97808 535.24219 346.33789 535.24219 L 492.23047 535.24219 C 476.55477 508.03538 455.5893 487.23262 431.62109 475.26758 C 419.15033 482.26939 404.77542 486.28711 389.48828 486.28711 C 373.75551 486.28712 358.98791 482.03165 346.26953 474.64648 z M 346.33789 571.24219 C 344.29938 571.24219 343.21875 572.32085 343.21875 574.35938 L 343.21875 701.06641 C 343.21875 703.10492 344.29938 704.18359 346.33789 704.18359 L 517.16992 704.18359 C 517.2941 703.89165 517.41494 703.59905 517.52734 703.30273 C 520.34017 687.63633 521.8457 671.20195 521.8457 654.25195 C 521.8457 624.07448 517.04025 596.0308 508.50391 571.24219 L 346.33789 571.24219 z "
         style="fill:url(#linearGradient4268-6);fill-opacity:1;stroke:none;stroke-width:41.15159225;stroke-linecap:round;stroke-linejoin:round;stroke-opacity:1" />
      <ellipse
         ry="72.424042"
         rx="72.285255"
         cx="389.45996"
         cy="395.19955"
         id="circle2187-6-5"
         style="fill:url(#linearGradient4260-7);fill-opacity:1;stroke:none;stroke-width:14;stroke-miterlimit:4;stroke-dasharray:none;stroke-opacity:1" />
      <path
         inkscape:connector-curvature="0"
         id="path4244-0"
         d="m 355.84766,341.03125 c -0.0604,4e-5 -0.11936,0.009 -0.17969,0.01 a 18.0018,18.0018 0 0 0 -1.7168,0.0976 c -9.57517,0.41317 -18.70878,3.8392 -26.10742,9.74414 -0.66552,0.002 -1.44793,0.0117 -2.10937,0.0117 -1.49573,0 -2.10887,-0.0104 -2.41407,-0.0156 a 18.0018,18.0018 0 0 0 -1.38086,-0.0664 c -4.58671,0.0351 -4.84145,0.13582 -0.43945,0.0215 l 0,0.008 a 18.0018,18.0018 0 0 0 -0.30469,0.004 c -0.35437,0.0152 -0.68685,0.16407 -1.03906,0.20118 l -0.008,-0.13086 c 0,0 0.50397,-0.25988 -2.25,0.38086 l 0,-0.002 c -0.49289,0.11437 -1.31954,0.2852 -2.75196,0.90235 a 18.0018,18.0018 0 0 0 -2.04882,0.98828 c -0.11618,0.0666 -0.11737,0.0433 -0.24024,0.11523 -0.0215,0.0126 -0.0625,0.0519 -0.0859,0.0664 -0.003,0.002 -0.008,0.008 -0.0117,0.01 a 18.0018,18.0018 0 0 0 -0.008,0.004 c -3.64864,1.91605 -6.75165,4.5867 -8.46875,7.26562 -2.94415,4.59331 -3.67151,8.7497 -3.70703,12.76758 -0.0355,4.01788 0.63012,8.11319 3.36328,12.66992 1.55354,2.59007 4.34504,5.26454 7.72657,7.29102 3.59634,21.14497 22.10865,37.55664 44.19336,37.55664 14.49863,10e-6 27.38434,-7.16456 35.63281,-17.99609 8.23192,11.04413 21.2677,18.35937 35.93359,18.35937 21.79624,0 40.17205,-15.971 44.10742,-36.71484 3.64528,-2.05011 6.6715,-4.8676 8.31055,-7.60156 2.73225,-4.55744 3.39744,-8.65357 3.36133,-12.67188 -0.0361,-4.01831 -0.76577,-8.17474 -3.71289,-12.76953 -1.73699,-2.7081 -4.89028,-5.40591 -8.59375,-7.32227 -0.057,-0.0357 -0.14184,-0.1136 -0.18946,-0.14062 -3.57758,-2.03031 -4.17952,-1.73605 -4.89062,-1.89844 l -0.0254,0.18555 c -1.07039,-0.24526 -2.12505,-0.57482 -3.22461,-0.6211 a 18.0018,18.0018 0 0 0 -1.95703,0.0352 c -0.2262,0.005 -0.96452,0.0176 -2.56445,0.0176 -0.60718,0 -1.32937,-0.008 -1.94141,-0.01 -7.98921,-6.62679 -18.10737,-10.38667 -28.67383,-10.39062 a 18.0018,18.0018 0 0 0 -0.0293,0 c -9.76505,0.0126 -19.12988,3.26093 -26.80273,8.98633 -2.43155,-0.29867 -5.07694,-0.54493 -8.03906,-0.54493 -3.35049,0 -6.35166,0.35609 -9.17578,0.70118 -7.795,-6.05306 -17.43862,-9.4946 -27.50977,-9.50391 a 18.0018,18.0018 0 0 0 -0.0293,0.002 l 0.002,-0.002 z m 104.25,10.80078 a 18.0018,18.0018 0 0 0 -0.52149,0.0566 c 0.0399,-0.004 0.15449,-0.0271 0.19141,-0.0312 0.39587,-0.0444 0.16557,-0.0122 0.33008,-0.0254 z m -1.70313,0.24609 a 18.0018,18.0018 0 0 0 -0.48437,0.10157 c 0.0529,-0.0112 0.17299,-0.0502 0.22265,-0.0605 0.14793,-0.0309 0.13902,-0.0176 0.26172,-0.041 z m -7.69922,3.51368 a 18.0018,18.0018 0 0 0 -0.0312,0.0273 c 6e-5,-7e-5 0.0117,-0.0156 0.0117,-0.0156 0,0 0.0194,-0.0116 0.0195,-0.0117 z m 8.90625,5.56054 c 0.2667,0.006 0.20842,0.11139 0.20703,0.21289 -0.21686,0.002 -0.4901,-0.0121 -0.76367,-0.01 0.0718,-0.009 0.50632,-0.2043 0.55664,-0.20313 z m 1.26953,0.28321 a 18.0018,18.0018 0 0 0 -0.83398,0.0781 c 0.0354,-0.004 0.0681,-0.0216 0.10351,-0.0254 0.21991,-0.0219 0.42952,-0.0425 0.51954,-0.0488 0.0181,-0.001 -9.8e-4,0.001 0.0156,0 l 0.19531,-0.004 z m -15.30468,0.61914 a 18.0018,18.0018 0 0 0 -0.0645,0.12695 c 4.2e-4,-0.002 0.0195,-0.0703 0.0195,-0.0703 0,0 0.0442,-0.0557 0.0449,-0.0566 z m -89.71094,14.98047 c 2.79598,0.007 5.39411,1.29122 7.0918,3.51367 a 18.0018,18.0018 0 0 0 1.11914,1.32226 18.0018,18.0018 0 0 0 0.39062,1.66602 c 0.23075,0.79833 0.34881,1.62608 0.35156,2.45703 -0.006,5.15006 -3.79693,8.9375 -8.94921,8.9375 -5.14943,0 -8.9369,-3.78399 -8.94727,-8.92969 0.005,-0.83654 0.12356,-1.66796 0.35937,-2.4707 a 18.0018,18.0018 0 0 0 0.43946,-1.89258 18.0018,18.0018 0 0 0 1.25781,-1.34765 c 1.70327,-2.06748 4.2087,-3.24931 6.88672,-3.25586 z m 71.57812,0.36132 c 2.76028,0.006 5.33029,1.25873 7.03125,3.4336 a 18.0018,18.0018 0 0 0 1.23047,1.4082 18.0018,18.0018 0 0 0 0.3711,1.8086 c 0.20305,0.75228 0.30637,1.52748 0.30859,2.30664 -0.005,5.15109 -3.79626,8.9414 -8.94922,8.9414 -5.15445,0 -8.94817,-3.79194 -8.95117,-8.94531 l 0,-0.004 c 0,-6.8e-4 0,-0.001 0,-0.002 8.5e-4,-0.89259 0.13504,-1.77995 0.39844,-2.63281 a 18.0018,18.0018 0 0 0 0.41015,-1.60547 18.0018,18.0018 0 0 0 1.16016,-1.31836 c 1.70017,-2.14735 4.25207,-3.38213 6.99023,-3.39063 z"
         style="color:#000000;font-style:normal;font-variant:normal;font-weight:normal;font-stretch:normal;font-size:medium;line-height:normal;font-family:sans-serif;text-indent:0;text-align:start;text-decoration:none;text-decoration-line:none;text-decoration-style:solid;text-decoration-color:#000000;letter-spacing:normal;word-spacing:normal;text-transform:none;direction:ltr;block-progression:tb;writing-mode:lr-tb;baseline-shift:baseline;text-anchor:start;white-space:normal;clip-rule:nonzero;display:inline;overflow:visible;visibility:visible;opacity:1;isolation:auto;mix-blend-mode:normal;color-interpolation:sRGB;color-interpolation-filters:linearRGB;solid-color:#000000;solid-opacity:1;fill:#ffffff;fill-opacity:1;fill-rule:nonzero;stroke:none;stroke-width:36;stroke-linecap:square;stroke-linejoin:round;stroke-miterlimit:4;stroke-dasharray:none;stroke-dashoffset:0;stroke-opacity:1;color-rendering:auto;image-rendering:auto;shape-rendering:auto;text-rendering:auto;enable-background:accumulate" />
      <path
         id="path4244"
         d="m 355.74451,359.14546 a 26.950616,26.950616 0 0 0 -20.78378,9.81405 c -3.45468,0.0239 -6.35026,0.0491 -9.34148,0.0491 -3.60095,0 -3.86781,-0.042 -3.76653,-0.0655 -4.48281,0.19237 -4.52174,9.2462 -0.12634,9.64327 0.25483,-0.0161 1.15528,-0.0327 4.26718,-0.0327 1.70399,0 2.1185,0.012 3.89287,0.0187 a 26.950616,26.950616 0 0 0 -1.09253,7.52371 26.950616,26.950616 0 0 0 26.95061,26.95063 26.950616,26.950616 0 0 0 26.95063,-26.95063 26.950616,26.950616 0 0 0 -1.05979,-7.44183 c 3.29523,-0.49972 7.46016,-1.01064 10.81065,-1.01064 3.02199,0 6.37119,0.42125 9.11456,0.87028 a 26.950616,26.950616 0 0 0 -1.20013,7.94481 26.950616,26.950616 0 0 0 26.95061,26.95061 26.950616,26.950616 0 0 0 26.95061,-26.95061 26.950616,26.950616 0 0 0 -0.93111,-6.98797 c 1.91475,-0.008 2.377,-0.0187 4.22742,-0.0187 3.11354,0 4.01305,0.0166 4.26718,0.0327 4.3963,-0.39715 4.35686,-9.45684 -0.12868,-9.64562 0.10248,0.0235 -0.15855,0.0677 -3.76419,0.0677 -3.01071,0 -5.94626,-0.0274 -9.40231,-0.0515 A 26.950616,26.950616 0 0 0 427.31104,359.50797 26.950616,26.950616 0 0 0 406.2161,369.7291 c -2.00405,-0.38441 -9.53991,-1.78034 -13.7701,-1.78034 -4.26276,0 -13.07195,1.41689 -15.30943,1.78735 a 26.950616,26.950616 0 0 0 -21.39206,-10.59064 z m 106.08063,20.3393 c -0.081,0.007 -0.15228,0.0338 -0.2363,0.0351 0,0 0.51216,-0.0177 0.2363,-0.0351 z M 321.72638,378.5864 c -0.27691,0.0175 0.2363,0.0351 0.2363,0.0351 -0.0839,-0.001 -0.1553,-0.0278 -0.2363,-0.0351 z m 0.12634,-9.64327 c 0.0385,-0.001 0.0708,-0.0161 0.10999,-0.0164 0,0 -0.0742,0.008 -0.10999,0.0164 z"
         style="opacity:1;fill:#99b000;fill-opacity:1;stroke:none;stroke-width:7.44399977;stroke-linecap:square;stroke-linejoin:round;stroke-miterlimit:4;stroke-dasharray:none;stroke-opacity:1"
         inkscape:connector-curvature="0" />
      <circle
         r="12.524746"
         cy="385.69714"
         cx="354.57178"
         id="path4244-3"
         style="opacity:1;fill:#ffffff;fill-opacity:1;stroke:none;stroke-width:7.44399977;stroke-linecap:square;stroke-linejoin:round;stroke-miterlimit:4;stroke-dasharray:none;stroke-opacity:1" />
      <path
         id="path4244-3-6"
         d="m 440.43641,386.02599 a 12.557049,12.557049 0 0 1 -12.55706,12.55704 12.557049,12.557049 0 0 1 -12.55703,-12.55704 12.557049,12.557049 0 0 1 12.55703,-12.55705 12.557049,12.557049 0 0 1 12.55706,12.55705 z"
         style="opacity:1;fill:#ffffff;fill-opacity:1;stroke:none;stroke-width:7.44399977;stroke-linecap:square;stroke-linejoin:round;stroke-miterlimit:4;stroke-dasharray:none;stroke-opacity:1"
         inkscape:connector-curvature="0" />
      <flowRoot
         style="fill:black;stroke:none;stroke-opacity:1;stroke-width:1px;stroke-linejoin:miter;stroke-linecap:butt;fill-opacity:1;font-family:sans-serif;font-style:normal;font-weight:normal;font-size:40px;line-height:125%;letter-spacing:0px;word-spacing:0px"
         id="flowRoot4169"
         xml:space="preserve"><flowRegion
           id="flowRegion4171"><rect
             y="427.07962"
             x="89.541069"
             height="88.78862"
             width="56.433445"
             id="rect4173" /></flowRegion><flowPara
           id="flowPara4175" /></flowRoot>      <rect
         inkscape:export-ydpi="4.9499998"
         inkscape:export-xdpi="4.9499998"
         y="322.27005"
         x="189.14485"
         height="400"
         width="400"
         id="rect3336"
         style="fill:none;fill-rule:evenodd;stroke:none;stroke-width:1px;stroke-linecap:butt;stroke-linejoin:miter;stroke-opacity:1" />
      <rect
         transform="scale(1,-1)"
         ry="21.117619"
         y="-722.18365"
         x="325.21936"
         height="168.94125"
         width="263.82584"
         id="rect4272-0"
         style="opacity:1;fill:#99b000;fill-opacity:1;stroke:none;stroke-width:8;stroke-linecap:square;stroke-linejoin:miter;stroke-miterlimit:4;stroke-dasharray:none;stroke-opacity:1" />
      <text
         sodipodi:linespacing="82.999998%"
         id="text4289"
         y="696.63464"
         x="335.5163"
         style="font-style:normal;font-weight:normal;font-size:148.64302063px;line-height:82.99999833%;font-family:sans-serif;letter-spacing:0px;word-spacing:0px;fill:#252525;fill-opacity:1;stroke:none;stroke-width:1px;stroke-linecap:butt;stroke-linejoin:miter;stroke-opacity:1"
         xml:space="preserve"><tspan
           style="font-style:normal;font-variant:normal;font-weight:bold;font-stretch:normal;line-height:82.99999833%;font-family:Arial;-inkscape-font-specification:'Arial Bold';fill:#ffffff"
           id="tspan4297"
           y="696.63464"
           x="335.5163"
           sodipodi:role="line">1+1</tspan></text>
    </g>
  </g>
</svg>
