<?xml version="1.0" encoding="UTF-8" standalone="no"?>
<!-- Created with Inkscape (http://www.inkscape.org/) -->

<svg
   xmlns:dc="http://purl.org/dc/elements/1.1/"
   xmlns:cc="http://creativecommons.org/ns#"
   xmlns:rdf="http://www.w3.org/1999/02/22-rdf-syntax-ns#"
   xmlns:svg="http://www.w3.org/2000/svg"
   xmlns="http://www.w3.org/2000/svg"
   xmlns:xlink="http://www.w3.org/1999/xlink"
   xmlns:sodipodi="http://sodipodi.sourceforge.net/DTD/sodipodi-0.dtd"
   xmlns:inkscape="http://www.inkscape.org/namespaces/inkscape"
   width="210mm"
   height="297mm"
   viewBox="0 0 744.09448819 1052.3622047"
   id="svg2"
   version="1.1"
   inkscape:version="0.91 r13725"
   inkscape:export-xdpi="7.2011142"
   inkscape:export-ydpi="7.2011142"
   sodipodi:docname="awaiting-plus.svg"
   inkscape:export-filename="C:\Users\johannes\Documents\Arbeit\RRZE\github3\bicons\32x32\status\awaiting-plus.png">
  <defs
     id="defs4">
    <linearGradient
       id="linearGradient2224">
      <stop
         id="stop2226"
         offset="0"
         style="stop-color:#7c7c7c;stop-opacity:1;" />
      <stop
         id="stop2228"
         offset="1"
         style="stop-color:#b8b8b8;stop-opacity:1;" />
    </linearGradient>
    <linearGradient
       id="linearGradient15218">
      <stop
         id="stop15220"
         offset="0"
         style="stop-color:#eeeeef;stop-opacity:1;" />
      <stop
         id="stop2736"
         offset="0.59928656"
         style="stop-color:#d3d7cf;stop-opacity:1;" />
      <stop
         id="stop2738"
         offset="0.82758623"
         style="stop-color:#ffffff;stop-opacity:1;" />
      <stop
         id="stop15222"
         offset="1"
         style="stop-color:#d3d7cf;stop-opacity:1;" />
    </linearGradient>
    <pattern
       y="0"
       x="0"
       height="6"
       width="6"
       patternUnits="userSpaceOnUse"
       id="EMFhbasepattern" />
    <pattern
       y="0"
       x="0"
       height="6"
       width="6"
       patternUnits="userSpaceOnUse"
       id="EMFhbasepattern-5" />
    <linearGradient
       inkscape:collect="always"
       xlink:href="#linearGradient4256"
       id="linearGradient4262"
       x1="317"
       y1="696.36218"
       x2="506"
       y2="379.36221"
       gradientUnits="userSpaceOnUse"
       gradientTransform="matrix(0.93474884,0,0,0.9349831,24.28283,32.947426)" />
    <linearGradient
       inkscape:collect="always"
       id="linearGradient4256">
      <stop
         style="stop-color:#4e505d;stop-opacity:1;"
         offset="0"
         id="stop4258" />
      <stop
         style="stop-color:#7a859c;stop-opacity:1"
         offset="1"
         id="stop4260" />
    </linearGradient>
    <linearGradient
       inkscape:collect="always"
       xlink:href="#linearGradient4233"
       id="linearGradient4239"
       x1="-487.07889"
       y1="-135.36044"
       x2="-551.82147"
       y2="-36.345448"
       gradientUnits="userSpaceOnUse"
       gradientTransform="matrix(-0.74325874,-0.64641309,0.64629993,-0.74338889,5.7546952,7.2218659)" />
    <linearGradient
       inkscape:collect="always"
       id="linearGradient4233">
      <stop
         style="stop-color:#99b000;stop-opacity:1;"
         offset="0"
         id="stop4235" />
      <stop
         style="stop-color:#a9bc24;stop-opacity:1"
         offset="1"
         id="stop4237" />
    </linearGradient>
  </defs>
  <sodipodi:namedview
     id="base"
     pagecolor="#ffffff"
     bordercolor="#666666"
     borderopacity="1.0"
     inkscape:pageopacity="0.0"
     inkscape:pageshadow="2"
     inkscape:zoom="1"
     inkscape:cx="276.99723"
     inkscape:cy="517.6635"
     inkscape:document-units="px"
     inkscape:current-layer="layer1"
     showgrid="false"
     showguides="true"
     inkscape:guide-bbox="true"
     inkscape:window-width="1600"
     inkscape:window-height="837"
     inkscape:window-x="-4"
     inkscape:window-y="-4"
     inkscape:window-maximized="1"
     inkscape:snap-bbox="true"
     inkscape:bbox-paths="true"
     inkscape:bbox-nodes="true"
     inkscape:snap-nodes="false"
     inkscape:snap-global="true">
    <sodipodi:guide
       position="315.53572,730.17859"
       orientation="0,1"
       id="guide3338" />
    <sodipodi:guide
       position="351.25,330.17858"
       orientation="0,1"
       id="guide3340" />
    <sodipodi:guide
       position="189.10714,408.8393"
       orientation="1,0"
       id="guide3344" />
    <sodipodi:guide
       position="589.04521,468.07945"
       orientation="1,0"
       id="guide3346" />
    <inkscape:grid
       type="xygrid"
       id="grid3440" />
    <sodipodi:guide
       position="0,0"
       orientation="0,1"
       id="guide3405" />
    <sodipodi:guide
       position="214.125,684.50002"
       orientation="1,0"
       id="guide3407" />
    <sodipodi:guide
       position="0,0"
       orientation="0,1"
       id="guide3409" />
    <sodipodi:guide
       position="589.04521,378.30213"
       orientation="1,0"
       id="guide3411" />
    <sodipodi:guide
       position="564.00001,683.37502"
       orientation="1,0"
       id="guide3413" />
    <sodipodi:guide
       position="0,0"
       orientation="0,1"
       id="guide4168" />
  </sodipodi:namedview>
  <metadata
     id="metadata7">
    <rdf:RDF>
      <cc:Work
         rdf:about="">
        <dc:format>image/svg+xml</dc:format>
        <dc:type
           rdf:resource="http://purl.org/dc/dcmitype/StillImage" />
        <dc:title>awaiting plus</dc:title>
        <dc:date>June 2015</dc:date>
        <dc:creator>
          <cc:Agent>
            <dc:title>Johannes Hechler</dc:title>
          </cc:Agent>
        </dc:creator>
        <dc:rights>
          <cc:Agent>
            <dc:title>Johannes Hechler</dc:title>
          </cc:Agent>
        </dc:rights>
        <dc:publisher>
          <cc:Agent>
            <dc:title>RRZE</dc:title>
          </cc:Agent>
        </dc:publisher>
        <dc:contributor>
          <cc:Agent>
            <dc:title>Ute Weber, Hendrik Eggers</dc:title>
          </cc:Agent>
        </dc:contributor>
      </cc:Work>
    </rdf:RDF>
  </metadata>
  <g
     inkscape:label="Ebene 1"
     inkscape:groupmode="layer"
     id="layer1">
    <g
       id="g4250">
      <flowRoot
         transform="translate(-0.05661914,4.6679445e-5)"
         style="font-style:normal;font-weight:normal;font-size:40px;line-height:125%;font-family:sans-serif;letter-spacing:0px;word-spacing:0px;fill:#252525;fill-opacity:1;stroke:none;stroke-width:1px;stroke-linecap:butt;stroke-linejoin:miter;stroke-opacity:1"
         id="flowRoot4169"
         xml:space="preserve"><flowRegion
           id="flowRegion4171"><rect
             y="427.07962"
             x="89.541069"
             height="88.78862"
             width="56.433445"
             id="rect4173" /></flowRegion><flowPara
           id="flowPara4175" /></flowRoot>      <path
         id="path4188"
         d="M 387.98828 334.1875 A 186.94652 186.99337 0 0 0 387.95898 334.19141 A 186.94652 186.99337 0 0 0 383.5293 334.44531 A 186.94652 186.99337 0 0 0 377.46289 334.48242 A 186.94652 186.99337 0 0 0 371.22266 335.15039 A 186.94652 186.99337 0 0 0 365.32227 335.73047 A 186.94652 186.99337 0 0 0 363.45312 335.97852 A 186.94652 186.99337 0 0 0 358.88477 336.4668 A 186.94652 186.99337 0 0 0 358.88086 336.46875 A 186.94652 186.99337 0 0 0 345.89062 338.99023 A 186.94652 186.99337 0 0 0 324.11914 345.61133 A 186.94652 186.99337 0 0 0 318.05664 347.88867 L 318.08203 348.00195 A 186.94652 186.99337 0 0 0 311.8125 350.9082 A 186.94652 186.99337 0 0 0 305.46484 353.65234 L 305.46484 353.51953 A 186.94652 186.99337 0 0 0 303.71094 354.49805 A 186.94652 186.99337 0 0 0 291.12305 361.52344 A 186.94652 186.99337 0 0 0 287.8457 363.53125 A 186.94652 186.99337 0 0 0 275.26758 372.30078 A 186.94652 186.99337 0 0 0 272.87305 374.125 A 186.94652 186.99337 0 0 0 271.19141 375.56836 A 186.94652 186.99337 0 0 0 269.86133 376.54688 L 269.83203 376.41797 A 186.94652 186.99337 0 0 0 268.33984 377.76953 A 186.94652 186.99337 0 0 0 263.35547 382.28906 A 186.94652 186.99337 0 0 0 260.57031 384.67578 A 186.94652 186.99337 0 0 0 259.0332 386.10938 A 186.94652 186.99337 0 0 0 258.36328 386.8125 A 186.94652 186.99337 0 0 0 257.67188 387.4375 A 186.94652 186.99337 0 0 0 254.91797 390.14648 A 186.94652 186.99337 0 0 0 252.5293 392.78906 L 252.55469 392.90039 A 186.94652 186.99337 0 0 0 247.24023 398.4707 A 186.94652 186.99337 0 0 0 246.41211 399.41406 A 186.94652 186.99337 0 0 0 235.48438 413.43945 A 186.94652 186.99337 0 0 0 235.0957 413.98242 A 186.94652 186.99337 0 0 0 225.29688 429.54883 A 186.94652 186.99337 0 0 0 225.27344 429.58594 A 186.94652 186.99337 0 0 0 213.20117 456.04102 L 213.18945 456.04492 A 186.94652 186.99337 0 0 0 213.06445 456.4043 A 186.94652 186.99337 0 0 0 209.41211 466.90625 A 186.94652 186.99337 0 0 0 208.83789 468.55273 A 186.94652 186.99337 0 0 0 208.83203 468.57031 A 186.94652 186.99337 0 0 0 208.82812 468.58594 A 186.94652 186.99337 0 0 0 207.75977 473.01953 A 186.94652 186.99337 0 0 0 204.83008 485.1582 A 186.94652 186.99337 0 0 0 204.73242 485.56836 L 204.75 485.64648 A 186.94652 186.99337 0 0 0 201.39648 511.38867 A 186.94652 186.99337 0 0 0 201.04883 521.18164 A 186.94652 186.99337 0 0 0 203.41797 549.3418 A 186.94652 186.99337 0 0 0 203.98047 553.67383 A 186.94652 186.99337 0 0 0 204.38867 555.77148 A 186.94652 186.99337 0 0 0 205.23633 560.13281 A 186.94652 186.99337 0 0 0 205.84961 563.29102 A 186.94652 186.99337 0 0 0 206.35938 565.0918 A 186.94652 186.99337 0 0 0 207.46289 568.85938 A 186.94652 186.99337 0 0 0 210.83398 580.375 A 186.94652 186.99337 0 0 0 213.85742 588.6543 A 186.94652 186.99337 0 0 0 215.80664 594 A 186.94652 186.99337 0 0 0 216.77148 595.96484 A 186.94652 186.99337 0 0 0 217.8457 598.65234 A 186.94652 186.99337 0 0 0 222.04297 606.77734 A 186.94652 186.99337 0 0 0 223.04297 608.70898 A 186.94652 186.99337 0 0 0 224.44922 611.42969 A 186.94652 186.99337 0 0 0 226.42578 615.25195 A 186.94652 186.99337 0 0 0 230.17969 621.01758 A 186.94652 186.99337 0 0 0 233.70117 626.76562 A 186.94652 186.99337 0 0 0 233.70117 626.76953 A 186.94652 186.99337 0 0 0 235.23242 628.78125 A 186.94652 186.99337 0 0 0 236.62109 630.91602 A 186.94652 186.99337 0 0 0 236.625 630.92188 A 186.94652 186.99337 0 0 0 240.9082 636.24805 A 186.94652 186.99337 0 0 0 245.00977 641.64648 A 186.94652 186.99337 0 0 0 246.73828 643.50391 A 186.94652 186.99337 0 0 0 248.33203 645.48438 A 186.94652 186.99337 0 0 0 248.33789 645.49023 A 186.94652 186.99337 0 0 0 253.13477 650.37109 A 186.94652 186.99337 0 0 0 256.875 654.38672 A 186.94652 186.99337 0 0 0 257.74609 655.32227 A 186.94652 186.99337 0 0 0 257.75 655.32617 A 186.94652 186.99337 0 0 0 259.63867 656.98633 A 186.94652 186.99337 0 0 0 261.4375 658.81445 A 186.94652 186.99337 0 0 0 261.44141 658.81445 A 186.94652 186.99337 0 0 0 266.66992 663.16406 A 186.94652 186.99337 0 0 0 273.85352 669.13867 A 186.94652 186.99337 0 0 0 275.80469 670.76367 A 186.94652 186.99337 0 0 0 275.81055 670.76758 A 186.94652 186.99337 0 0 0 281.45703 674.57812 A 186.94652 186.99337 0 0 0 286.99023 678.53516 A 186.94652 186.99337 0 0 0 289.18945 679.79688 A 186.94652 186.99337 0 0 0 291.29688 681.2207 A 186.94652 186.99337 0 0 0 291.30078 681.22266 A 186.94652 186.99337 0 0 0 297.27734 684.43945 A 186.94652 186.99337 0 0 0 303.19922 687.83594 A 186.94652 186.99337 0 0 0 303.20312 687.83594 A 186.94652 186.99337 0 0 0 305.50977 688.86914 A 186.94652 186.99337 0 0 0 307.75391 690.07617 A 186.94652 186.99337 0 0 0 307.75781 690.07617 A 186.94652 186.99337 0 0 0 314.04688 692.68945 A 186.94652 186.99337 0 0 0 320.25781 695.4707 A 186.94652 186.99337 0 0 0 322.65039 696.26758 A 186.94652 186.99337 0 0 0 325.01172 697.24805 A 186.94652 186.99337 0 0 0 325.01758 697.24609 A 186.94652 186.99337 0 0 0 331.47656 699.19922 A 186.94652 186.99337 0 0 0 340.49414 701.92773 A 186.94652 186.99337 0 0 0 342.89844 702.6543 A 186.94652 186.99337 0 0 0 342.90625 702.6582 A 186.94652 186.99337 0 0 0 349.56641 703.96484 A 186.94652 186.99337 0 0 0 356.22461 705.46094 A 186.94652 186.99337 0 0 0 358.75586 705.76758 A 186.94652 186.99337 0 0 0 361.24023 706.25391 A 186.94652 186.99337 0 0 0 361.24414 706.25195 A 186.94652 186.99337 0 0 0 367.42578 706.83594 A 186.94652 186.99337 0 0 0 367.68555 706.85156 A 186.94652 186.99337 0 0 0 374.77344 707.71094 A 186.94652 186.99337 0 0 0 374.77734 707.71094 A 186.94652 186.99337 0 0 0 388.00195 708.18164 A 186.94652 186.99337 0 0 0 392.41992 707.92969 A 186.94652 186.99337 0 0 0 394.33984 707.9082 A 186.94652 186.99337 0 0 0 398.5332 707.88281 A 186.94652 186.99337 0 0 0 398.53711 707.88281 A 186.94652 186.99337 0 0 0 404.66602 707.22852 A 186.94652 186.99337 0 0 0 410.70312 706.63477 A 186.94652 186.99337 0 0 0 412.67383 706.37305 A 186.94652 186.99337 0 0 0 417.11133 705.89844 A 186.94652 186.99337 0 0 0 417.12109 705.89648 A 186.94652 186.99337 0 0 0 430.10352 703.375 L 430.10547 703.375 L 430.10938 703.37305 L 430.10938 703.375 A 186.94652 186.99337 0 0 0 430.14062 703.36133 A 186.94652 186.99337 0 0 0 435.22461 701.875 L 435.22461 667.18164 L 388.57422 667.18164 C 374.69604 667.18164 363.05664 655.43709 363.05664 641.625 L 363.05664 593.28906 C 363.05664 579.47698 374.69604 567.73438 388.57422 567.73438 L 435.22461 567.73438 L 435.22461 520.99219 C 435.22461 507.0655 446.955 495.23047 460.94727 495.23047 L 508.6543 495.23047 C 522.64657 495.23047 534.37695 507.0655 534.37695 520.99219 L 534.37695 567.73438 L 568.62305 567.73438 A 186.94652 186.99337 0 0 0 569.55273 563.87695 C 569.60613 563.88195 569.65964 563.88482 569.71289 563.89062 A 186.94652 186.99337 0 0 0 570.29883 560.7832 A 186.94652 186.99337 0 0 0 572.2793 550.28906 A 186.94652 186.99337 0 0 0 573.7793 539.39844 A 186.94652 186.99337 0 0 0 574.1543 535.56836 A 186.94652 186.99337 0 0 0 574.60156 530.98242 A 186.94652 186.99337 0 0 0 574.94727 521.18945 A 186.94652 186.99337 0 0 0 574.85352 519.32031 A 186.94652 186.99337 0 0 0 573.08008 496.11914 A 186.94652 186.99337 0 0 0 572.00977 488.68945 A 186.94652 186.99337 0 0 0 571.66211 486.88672 A 186.94652 186.99337 0 0 0 571.2207 484.0332 A 186.94652 186.99337 0 0 0 570.74219 482.15625 A 186.94652 186.99337 0 0 0 570.14453 479.07227 A 186.94652 186.99337 0 0 0 568.30664 472.60742 A 186.94652 186.99337 0 0 0 566.59961 465.92969 A 186.94652 186.99337 0 0 0 565.72461 463.5332 A 186.94652 186.99337 0 0 0 562.5293 454.77539 A 186.94652 186.99337 0 0 0 561.91992 453.10547 A 186.94652 186.99337 0 0 0 560.19336 448.37109 A 186.94652 186.99337 0 0 0 560.1875 448.36523 A 186.94652 186.99337 0 0 0 559.08789 446.08594 A 186.94652 186.99337 0 0 0 555.01172 437.64648 A 186.94652 186.99337 0 0 0 552.0625 431.53906 A 186.94652 186.99337 0 0 0 552.05859 431.53125 A 186.94652 186.99337 0 0 0 550.73047 429.36328 A 186.94652 186.99337 0 0 0 545.88477 421.45703 A 186.94652 186.99337 0 0 0 542.29688 415.59961 A 186.94652 186.99337 0 0 0 542.29297 415.59766 A 186.94652 186.99337 0 0 0 540.75195 413.57227 A 186.94652 186.99337 0 0 0 539.36914 411.44727 A 186.94652 186.99337 0 0 0 535.99414 407.31055 A 186.94652 186.99337 0 0 0 530.98633 400.7207 A 186.94652 186.99337 0 0 0 530.98242 400.7168 A 186.94652 186.99337 0 0 0 528.00977 397.52539 A 186.94652 186.99337 0 0 0 525.45898 394.78516 A 186.94652 186.99337 0 0 0 518.24805 387.04297 A 186.94652 186.99337 0 0 0 518.24414 387.04102 A 186.94652 186.99337 0 0 0 516.31641 385.3457 A 186.94652 186.99337 0 0 0 514.55664 383.55664 A 186.94652 186.99337 0 0 0 514.55469 383.55273 A 186.94652 186.99337 0 0 0 509.33008 379.20898 A 186.94652 186.99337 0 0 0 504.20703 374.70703 A 186.94652 186.99337 0 0 0 504.20312 374.70508 A 186.94652 186.99337 0 0 0 502.14062 373.22852 A 186.94652 186.99337 0 0 0 500.1875 371.60352 A 186.94652 186.99337 0 0 0 494.57227 367.8125 A 186.94652 186.99337 0 0 0 489.00781 363.83203 A 186.94652 186.99337 0 0 0 489.00195 363.83203 A 186.94652 186.99337 0 0 0 486.80273 362.57031 A 186.94652 186.99337 0 0 0 485.75586 361.86328 A 186.94652 186.99337 0 0 0 484.69727 361.14648 A 186.94652 186.99337 0 0 0 484.69336 361.14453 A 186.94652 186.99337 0 0 0 478.69336 357.91406 A 186.94652 186.99337 0 0 0 472.79688 354.5332 A 186.94652 186.99337 0 0 0 472.79102 354.5293 A 186.94652 186.99337 0 0 0 470.47461 353.49219 A 186.94652 186.99337 0 0 0 461.94727 349.67578 A 186.94652 186.99337 0 0 0 455.73828 346.89648 A 186.94652 186.99337 0 0 0 455.73438 346.89648 A 186.94652 186.99337 0 0 0 453.3418 346.09961 A 186.94652 186.99337 0 0 0 450.98047 345.11914 A 186.94652 186.99337 0 0 0 433.09375 339.70898 A 186.94652 186.99337 0 0 0 433.08984 339.70898 A 186.94652 186.99337 0 0 0 426.81445 338.47852 A 186.94652 186.99337 0 0 0 423.86133 337.82617 A 186.94652 186.99337 0 0 0 419.76953 336.90625 A 186.94652 186.99337 0 0 0 419.76562 336.90625 A 186.94652 186.99337 0 0 0 417.23633 336.59961 A 186.94652 186.99337 0 0 0 414.75391 336.11328 A 186.94652 186.99337 0 0 0 407.99414 335.47656 A 186.94652 186.99337 0 0 0 401.2207 334.6543 A 186.94652 186.99337 0 0 0 401.21484 334.6543 A 186.94652 186.99337 0 0 0 398.04883 334.54297 A 186.94652 186.99337 0 0 0 393.48438 334.38086 A 186.94652 186.99337 0 0 0 387.99609 334.1875 L 387.99414 334.1875 L 387.99023 334.1875 L 387.98828 334.1875 z M 470.22461 530.23047 L 470.22461 585.23438 A 17.50175 17.50175 0 0 1 452.72461 602.73438 L 398.05664 602.73438 L 398.05664 632.18164 L 452.72461 632.18164 A 17.50175 17.50175 0 0 1 470.22461 649.68164 L 470.22461 688.84961 A 186.94652 186.99337 0 0 0 470.5332 688.7168 L 470.5332 688.84961 A 186.94652 186.99337 0 0 0 472.29297 687.86719 A 186.94652 186.99337 0 0 0 474.09961 686.85938 A 186.94652 186.99337 0 0 0 477.05469 685.20898 A 186.94652 186.99337 0 0 0 484.86328 680.85156 A 186.94652 186.99337 0 0 0 488.15625 678.83398 A 186.94652 186.99337 0 0 0 489.95117 677.58203 A 186.94652 186.99337 0 0 0 499.37695 670.7793 L 499.37695 649.68164 A 17.50175 17.50175 0 0 1 516.87695 632.18164 L 537.95312 632.18164 A 186.94652 186.99337 0 0 0 542.88672 625.47852 A 186.94652 186.99337 0 0 0 544.0625 623.73633 A 186.94652 186.99337 0 0 0 547.70703 617.58203 A 186.94652 186.99337 0 0 0 550.70508 612.82031 A 186.94652 186.99337 0 0 0 550.71289 612.80469 A 186.94652 186.99337 0 0 0 550.7207 612.79102 A 186.94652 186.99337 0 0 0 551.67969 610.875 A 186.94652 186.99337 0 0 0 552.76953 609.03516 A 186.94652 186.99337 0 0 0 553.36523 607.92969 A 186.94652 186.99337 0 0 0 555.77734 602.73438 L 516.87695 602.73438 A 17.50175 17.50175 0 0 1 499.37695 585.23438 L 499.37695 530.23047 L 470.22461 530.23047 z "
         style="opacity:1;fill:url(#linearGradient4262);fill-opacity:1;stroke:none;stroke-width:16;stroke-linecap:round;stroke-linejoin:round;stroke-miterlimit:4;stroke-dasharray:none;stroke-opacity:1" />
      <path
         sodipodi:nodetypes="ccccc"
         inkscape:connector-curvature="0"
         id="path4207"
         d="m 386.24095,334.19536 c -80.93157,0.0953 -186.41845,58.91382 -185.19156,188.98577 l 188.54704,0.23664 1.82362,-189.20822 c -1.72836,-0.0291 -3.45551,-0.0335 -5.1791,-0.0142 z"
         style="opacity:1;fill:url(#linearGradient4239);fill-opacity:1;stroke:none;stroke-width:15;stroke-linecap:round;stroke-linejoin:round;stroke-miterlimit:4;stroke-dasharray:none;stroke-opacity:1" />
      <ellipse
         ry="26.713335"
         rx="26.706642"
         cy="521.18146"
         cx="387.99832"
         id="path4190"
         style="opacity:1;fill:#ffffff;fill-opacity:1;stroke:none;stroke-width:16;stroke-linecap:round;stroke-linejoin:round;stroke-miterlimit:4;stroke-dasharray:none;stroke-opacity:1" />
      <rect
         inkscape:transform-center-y="-49.169329"
         inkscape:transform-center-x="0.79254686"
         transform="matrix(0.99999859,0.00167685,0.00142669,-0.99999898,0,0)"
         rx="12.331441"
         ry="14.067162"
         y="-517.09833"
         x="377.0134"
         height="94.497246"
         width="24.662882"
         id="rect4194"
         style="opacity:1;fill:#ffffff;fill-opacity:1;stroke:none;stroke-width:16;stroke-linecap:round;stroke-linejoin:round;stroke-miterlimit:4;stroke-dasharray:none;stroke-opacity:1" />
      <rect
         rx="10.611468"
         transform="matrix(0.99999996,-2.8922716e-4,5.3896791e-4,0.99999985,0,0)"
         ry="10.019711"
         y="515.37177"
         x="236.71773"
         height="20.039421"
         width="153.85107"
         id="rect4192"
         style="opacity:1;fill:#ffffff;fill-opacity:1;stroke:none;stroke-width:16;stroke-linecap:round;stroke-linejoin:round;stroke-miterlimit:4;stroke-dasharray:none;stroke-opacity:1"
         inkscape:transform-center-x="75.295441"
         inkscape:transform-center-y="0.63121218" />
      <path
         id="rect4209"
         d="m 205.35973,322.18363 367.43288,0 c 9.00394,0 16.2526,7.24866 16.2526,16.2526 l 0,367.4948 c 0,9.00394 -7.24866,16.2526 -16.2526,16.2526 l -367.43288,0 c -9.00394,0 -16.2526,-7.24866 -16.2526,-16.2526 l 0,-367.4948 c 0,-9.00394 7.24866,-16.2526 16.2526,-16.2526 z"
         style="color:#000000;clip-rule:nonzero;display:inline;overflow:visible;visibility:visible;opacity:1;isolation:auto;mix-blend-mode:normal;color-interpolation:sRGB;color-interpolation-filters:linearRGB;solid-color:#000000;solid-opacity:1;fill:none;fill-opacity:1;fill-rule:nonzero;stroke:none;stroke-width:5;stroke-linecap:square;stroke-linejoin:round;stroke-miterlimit:4;stroke-dasharray:none;stroke-dashoffset:0;stroke-opacity:1;color-rendering:auto;image-rendering:auto;shape-rendering:auto;text-rendering:auto;enable-background:accumulate"
         inkscape:connector-curvature="0" />
      <path
         inkscape:connector-curvature="0"
         id="rect4162"
         d="m 460.94798,512.73107 c -4.55484,0 -8.2224,3.68451 -8.2224,8.2604 l 0,64.24241 -64.15042,0 c -4.4424,0 -8.0188,3.59293 -8.0188,8.05587 l 0,48.33521 c 0,4.46293 3.5764,8.05586 8.0188,8.05586 l 64.15042,0 0,64.24555 c 0,4.57589 3.66756,8.25726 8.2224,8.25726 l 47.70562,0 c 4.55483,0 8.22239,-3.68137 8.22239,-8.25726 l 0,-64.24555 64.15041,0 c 4.44241,0 8.01881,-3.59293 8.01881,-8.05586 l 0,-48.33521 c 0,-4.46294 -3.5764,-8.05587 -8.01881,-8.05587 l -64.15041,0 0,-64.24241 c 0,-4.57589 -3.66756,-8.2604 -8.22239,-8.2604 l -47.70562,0 z"
         style="opacity:1;fill:#99b000;fill-opacity:1;stroke:none;stroke-width:16;stroke-linecap:round;stroke-linejoin:round;stroke-miterlimit:4;stroke-dasharray:none;stroke-opacity:1" />
    </g>
  </g>
</svg>
