<?xml version="1.0" encoding="UTF-8" standalone="no"?>
<!-- Created with Inkscape (http://www.inkscape.org/) -->

<svg
   xmlns:dc="http://purl.org/dc/elements/1.1/"
   xmlns:cc="http://creativecommons.org/ns#"
   xmlns:rdf="http://www.w3.org/1999/02/22-rdf-syntax-ns#"
   xmlns:svg="http://www.w3.org/2000/svg"
   xmlns="http://www.w3.org/2000/svg"
   xmlns:xlink="http://www.w3.org/1999/xlink"
   xmlns:sodipodi="http://sodipodi.sourceforge.net/DTD/sodipodi-0.dtd"
   xmlns:inkscape="http://www.inkscape.org/namespaces/inkscape"
   width="210mm"
   height="297mm"
   viewBox="0 0 744.09448819 1052.3622047"
   id="svg2"
   version="1.1"
   inkscape:version="0.91 r13725"
   inkscape:export-xdpi="7.2011142"
   inkscape:export-ydpi="7.2011142"
   sodipodi:docname="awaiting.svg"
   inkscape:export-filename="C:\Users\johannes\Documents\Arbeit\RRZE\github3\bicons\32x32\status\awaiting.png">
  <defs
     id="defs4">
    <linearGradient
       id="linearGradient2224">
      <stop
         id="stop2226"
         offset="0"
         style="stop-color:#7c7c7c;stop-opacity:1;" />
      <stop
         id="stop2228"
         offset="1"
         style="stop-color:#b8b8b8;stop-opacity:1;" />
    </linearGradient>
    <linearGradient
       id="linearGradient15218">
      <stop
         id="stop15220"
         offset="0"
         style="stop-color:#eeeeef;stop-opacity:1;" />
      <stop
         id="stop2736"
         offset="0.59928656"
         style="stop-color:#d3d7cf;stop-opacity:1;" />
      <stop
         id="stop2738"
         offset="0.82758623"
         style="stop-color:#ffffff;stop-opacity:1;" />
      <stop
         id="stop15222"
         offset="1"
         style="stop-color:#d3d7cf;stop-opacity:1;" />
    </linearGradient>
    <pattern
       y="0"
       x="0"
       height="6"
       width="6"
       patternUnits="userSpaceOnUse"
       id="EMFhbasepattern" />
    <pattern
       y="0"
       x="0"
       height="6"
       width="6"
       patternUnits="userSpaceOnUse"
       id="EMFhbasepattern-5" />
    <linearGradient
       inkscape:collect="always"
       xlink:href="#linearGradient4256"
       id="linearGradient4262"
       x1="317"
       y1="696.36218"
       x2="506"
       y2="379.36221"
       gradientUnits="userSpaceOnUse"
       gradientTransform="translate(-0.05661457,3.6632938e-5)" />
    <linearGradient
       inkscape:collect="always"
       id="linearGradient4256">
      <stop
         style="stop-color:#4e505d;stop-opacity:1;"
         offset="0"
         id="stop4258" />
      <stop
         style="stop-color:#7a859c;stop-opacity:1"
         offset="1"
         id="stop4260" />
    </linearGradient>
    <linearGradient
       inkscape:collect="always"
       xlink:href="#linearGradient4233"
       id="linearGradient4239"
       x1="-487.07889"
       y1="-135.36044"
       x2="-551.82147"
       y2="-36.345448"
       gradientUnits="userSpaceOnUse"
       gradientTransform="matrix(-0.79514273,-0.6913634,0.6914156,-0.7950827,-19.878126,-27.514429)" />
    <linearGradient
       inkscape:collect="always"
       id="linearGradient4233">
      <stop
         style="stop-color:#99b000;stop-opacity:1;"
         offset="0"
         id="stop4235" />
      <stop
         style="stop-color:#a9bc24;stop-opacity:1"
         offset="1"
         id="stop4237" />
    </linearGradient>
  </defs>
  <sodipodi:namedview
     id="base"
     pagecolor="#ffffff"
     bordercolor="#666666"
     borderopacity="1.0"
     inkscape:pageopacity="0.0"
     inkscape:pageshadow="2"
     inkscape:zoom="1"
     inkscape:cx="346.04272"
     inkscape:cy="490.89282"
     inkscape:document-units="px"
     inkscape:current-layer="layer1"
     showgrid="false"
     showguides="true"
     inkscape:guide-bbox="true"
     inkscape:window-width="1366"
     inkscape:window-height="721"
     inkscape:window-x="-4"
     inkscape:window-y="-4"
     inkscape:window-maximized="1"
     inkscape:snap-bbox="true"
     inkscape:bbox-paths="true"
     inkscape:bbox-nodes="true"
     inkscape:snap-global="true">
    <sodipodi:guide
       position="315.53572,730.17859"
       orientation="0,1"
       id="guide3338" />
    <sodipodi:guide
       position="351.25,330.17858"
       orientation="0,1"
       id="guide3340" />
    <sodipodi:guide
       position="189.10714,408.8393"
       orientation="1,0"
       id="guide3344" />
    <sodipodi:guide
       position="589.04521,468.07945"
       orientation="1,0"
       id="guide3346" />
    <inkscape:grid
       type="xygrid"
       id="grid3440" />
    <sodipodi:guide
       position="589.04521,378.30213"
       orientation="1,0"
       id="guide3411" />
  </sodipodi:namedview>
  <metadata
     id="metadata7">
    <rdf:RDF>
      <cc:Work
         rdf:about="">
        <dc:format>image/svg+xml</dc:format>
        <dc:type
           rdf:resource="http://purl.org/dc/dcmitype/StillImage" />
        <dc:title>awaiting</dc:title>
        <dc:date>June 2015</dc:date>
        <dc:creator>
          <cc:Agent>
            <dc:title>Johannes Hechler</dc:title>
          </cc:Agent>
        </dc:creator>
        <dc:rights>
          <cc:Agent>
            <dc:title>Johannes Hechler</dc:title>
          </cc:Agent>
        </dc:rights>
        <dc:publisher>
          <cc:Agent>
            <dc:title>RRZE</dc:title>
          </cc:Agent>
        </dc:publisher>
        <dc:contributor>
          <cc:Agent>
            <dc:title>Ute Weber, Hendrik Eggers</dc:title>
          </cc:Agent>
        </dc:contributor>
      </cc:Work>
    </rdf:RDF>
  </metadata>
  <g
     inkscape:label="Ebene 1"
     inkscape:groupmode="layer"
     id="layer1">
    <g
       id="g4239">
      <flowRoot
         transform="translate(-0.05661457,3.6632938e-5)"
         style="font-style:normal;font-weight:normal;font-size:40px;line-height:125%;font-family:sans-serif;letter-spacing:0px;word-spacing:0px;fill:#252525;fill-opacity:1;stroke:none;stroke-width:1px;stroke-linecap:butt;stroke-linejoin:miter;stroke-opacity:1"
         id="flowRoot4169"
         xml:space="preserve"><flowRegion
           id="flowRegion4171"><rect
             y="427.07962"
             x="89.541069"
             height="88.78862"
             width="56.433445"
             id="rect4173" /></flowRegion><flowPara
           id="flowPara4175" /></flowRoot>      <g
         transform="matrix(0.93474884,0,0,0.9349831,24.335755,32.947382)"
         id="g4176">
        <path
           inkscape:connector-curvature="0"
           style="opacity:1;fill:url(#linearGradient4262);fill-opacity:1;stroke:none;stroke-width:16;stroke-linecap:round;stroke-linejoin:round;stroke-miterlimit:4;stroke-dasharray:none;stroke-opacity:1"
           d="m 389.03906,322.1875 a 199.99652,199.99652 0 0 0 -0.0332,0.004 199.99652,199.99652 0 0 0 -4.73828,0.27148 199.99652,199.99652 0 0 0 -6.49024,0.041 199.99652,199.99652 0 0 0 -6.67578,0.71289 199.99652,199.99652 0 0 0 -6.3125,0.62109 199.99652,199.99652 0 0 0 -2,0.26563 199.99652,199.99652 0 0 0 -4.88672,0.52148 199.99652,199.99652 0 0 0 -0.004,0.002 199.99652,199.99652 0 0 0 -13.89649,2.69727 199.99652,199.99652 0 0 0 -23.29101,7.08203 199.99652,199.99652 0 0 0 -6.48633,2.43555 l 0.0273,0.12109 a 199.99652,199.99652 0 0 0 -6.70703,3.10742 199.99652,199.99652 0 0 0 -6.79101,2.93555 l 0,-0.14258 a 199.99652,199.99652 0 0 0 -1.87696,1.04688 199.99652,199.99652 0 0 0 -13.46484,7.51367 199.99652,199.99652 0 0 0 -3.50781,2.14844 199.99652,199.99652 0 0 0 -13.45508,9.3789 199.99652,199.99652 0 0 0 -2.5625,1.95117 199.99652,199.99652 0 0 0 -1.79883,1.54297 199.99652,199.99652 0 0 0 -1.42187,1.04688 l -0.0312,-0.13867 a 199.99652,199.99652 0 0 0 -1.59766,1.44726 199.99652,199.99652 0 0 0 -5.33203,4.83203 199.99652,199.99652 0 0 0 -2.97852,2.55274 199.99652,199.99652 0 0 0 -1.64453,1.5332 199.99652,199.99652 0 0 0 -0.7168,0.75195 199.99652,199.99652 0 0 0 -0.74023,0.66992 199.99652,199.99652 0 0 0 -2.94727,2.89649 199.99652,199.99652 0 0 0 -2.55468,2.82617 l 0.0273,0.11914 a 199.99652,199.99652 0 0 0 -5.68555,5.95899 199.99652,199.99652 0 0 0 -0.88672,1.00781 199.99652,199.99652 0 0 0 -11.68945,15 199.99652,199.99652 0 0 0 -0.41601,0.58203 199.99652,199.99652 0 0 0 -10.48243,16.64844 199.99652,199.99652 0 0 0 -0.0254,0.0391 199.99652,199.99652 0 0 0 -12.91406,28.29492 l -0.0137,0.004 a 199.99652,199.99652 0 0 0 -0.13281,0.38476 199.99652,199.99652 0 0 0 -3.90821,11.23243 199.99652,199.99652 0 0 0 -0.61328,1.76171 199.99652,199.99652 0 0 0 -0.006,0.0176 199.99652,199.99652 0 0 0 -0.004,0.0176 199.99652,199.99652 0 0 0 -1.14453,4.74219 199.99652,199.99652 0 0 0 -3.13282,12.98242 199.99652,199.99652 0 0 0 -0.10547,0.4375 l 0.0195,0.084 a 199.99652,199.99652 0 0 0 -3.58789,27.53321 199.99652,199.99652 0 0 0 -0.3711,10.47265 199.99652,199.99652 0 0 0 2.5332,30.11914 199.99652,199.99652 0 0 0 0.60352,4.63282 199.99652,199.99652 0 0 0 0.43555,2.24414 199.99652,199.99652 0 0 0 0.90625,4.66406 199.99652,199.99652 0 0 0 0.65625,3.37891 199.99652,199.99652 0 0 0 0.54687,1.92578 199.99652,199.99652 0 0 0 1.17969,4.02929 199.99652,199.99652 0 0 0 3.60547,12.31641 199.99652,199.99652 0 0 0 3.23437,8.85547 199.99652,199.99652 0 0 0 2.08594,5.7168 199.99652,199.99652 0 0 0 1.0332,2.10156 199.99652,199.99652 0 0 0 1.14844,2.875 199.99652,199.99652 0 0 0 4.49024,8.68945 199.99652,199.99652 0 0 0 1.07031,2.06641 199.99652,199.99652 0 0 0 1.5039,2.9082 199.99652,199.99652 0 0 0 2.11524,4.08789 199.99652,199.99652 0 0 0 4.01562,6.16797 199.99652,199.99652 0 0 0 3.76758,6.14649 199.99652,199.99652 0 0 0 0,0.004 199.99652,199.99652 0 0 0 1.63672,2.15234 199.99652,199.99652 0 0 0 1.48633,2.28321 199.99652,199.99652 0 0 0 0.004,0.006 199.99652,199.99652 0 0 0 4.58203,5.69726 199.99652,199.99652 0 0 0 4.38867,5.77344 199.99652,199.99652 0 0 0 1.84961,1.98633 199.99652,199.99652 0 0 0 1.70312,2.11719 199.99652,199.99652 0 0 0 0.006,0.008 199.99652,199.99652 0 0 0 5.13281,5.2207 199.99652,199.99652 0 0 0 4.00196,4.29492 199.99652,199.99652 0 0 0 0.93164,1 199.99652,199.99652 0 0 0 0.004,0.004 199.99652,199.99652 0 0 0 2.01954,1.77539 199.99652,199.99652 0 0 0 1.92382,1.95508 199.99652,199.99652 0 0 0 0.004,0 199.99652,199.99652 0 0 0 5.59375,4.65234 199.99652,199.99652 0 0 0 7.68555,6.39063 199.99652,199.99652 0 0 0 2.08789,1.73633 199.99652,199.99652 0 0 0 0.006,0.004 199.99652,199.99652 0 0 0 6.03906,4.07617 199.99652,199.99652 0 0 0 5.91992,4.23243 199.99652,199.99652 0 0 0 2.35352,1.3496 199.99652,199.99652 0 0 0 2.2539,1.52149 199.99652,199.99652 0 0 0 0.004,0.002 199.99652,199.99652 0 0 0 6.39453,3.44141 199.99652,199.99652 0 0 0 6.33398,3.63281 199.99652,199.99652 0 0 0 0.004,0 199.99652,199.99652 0 0 0 2.46875,1.10547 199.99652,199.99652 0 0 0 2.40039,1.29102 199.99652,199.99652 0 0 0 0.004,0 199.99652,199.99652 0 0 0 6.72851,2.79492 199.99652,199.99652 0 0 0 6.64453,2.97461 199.99652,199.99652 0 0 0 2.5586,0.85156 199.99652,199.99652 0 0 0 2.52734,1.04883 199.99652,199.99652 0 0 0 0.004,-0.002 199.99652,199.99652 0 0 0 6.91015,2.08985 199.99652,199.99652 0 0 0 9.64844,2.91797 199.99652,199.99652 0 0 0 2.57227,0.77734 199.99652,199.99652 0 0 0 0.008,0.004 199.99652,199.99652 0 0 0 7.125,1.39648 199.99652,199.99652 0 0 0 7.12305,1.59961 199.99652,199.99652 0 0 0 2.70898,0.32813 199.99652,199.99652 0 0 0 2.65625,0.52148 199.99652,199.99652 0 0 0 0.004,-0.002 199.99652,199.99652 0 0 0 6.61328,0.62304 199.99652,199.99652 0 0 0 0.2793,0.0176 199.99652,199.99652 0 0 0 7.58203,0.91992 199.99652,199.99652 0 0 0 0.004,0 199.99652,199.99652 0 0 0 14.14649,0.50196 199.99652,199.99652 0 0 0 4.72656,-0.26953 199.99652,199.99652 0 0 0 2.05469,-0.0215 199.99652,199.99652 0 0 0 4.48633,-0.0273 199.99652,199.99652 0 0 0 0.004,0 199.99652,199.99652 0 0 0 6.55664,-0.70117 199.99652,199.99652 0 0 0 6.45899,-0.63477 199.99652,199.99652 0 0 0 2.10742,-0.2793 199.99652,199.99652 0 0 0 4.74805,-0.50781 199.99652,199.99652 0 0 0 0.01,-0.002 199.99652,199.99652 0 0 0 13.88867,-2.69727 l 0.002,0 0.004,-0.002 0,0.002 a 199.99652,199.99652 0 0 0 0.0332,-0.0137 199.99652,199.99652 0 0 0 23.22461,-7.05664 199.99652,199.99652 0 0 0 6.51367,-2.44727 l -0.0274,-0.12109 a 199.99652,199.99652 0 0 0 6.54297,-3.03125 199.99652,199.99652 0 0 0 6.95899,-3.00781 l 0,0.14258 a 199.99652,199.99652 0 0 0 1.88281,-1.05079 199.99652,199.99652 0 0 0 1.93164,-1.07812 199.99652,199.99652 0 0 0 3.16211,-1.76367 199.99652,199.99652 0 0 0 8.35352,-4.66211 199.99652,199.99652 0 0 0 3.52343,-2.1582 199.99652,199.99652 0 0 0 1.91992,-1.3379 199.99652,199.99652 0 0 0 17.31055,-12.58203 l 0.0312,0.13867 a 199.99652,199.99652 0 0 0 1.59375,-1.44335 199.99652,199.99652 0 0 0 11.42774,-10.35157 199.99652,199.99652 0 0 0 2.93359,-2.88476 199.99652,199.99652 0 0 0 10.99609,-12.16797 199.99652,199.99652 0 0 0 2.0586,-2.47852 199.99652,199.99652 0 0 0 10.27929,-13.95703 199.99652,199.99652 0 0 0 1.25782,-1.86328 199.99652,199.99652 0 0 0 3.89843,-6.58203 199.99652,199.99652 0 0 0 3.20704,-5.09375 199.99652,199.99652 0 0 0 0.01,-0.0156 199.99652,199.99652 0 0 0 0.008,-0.0156 199.99652,199.99652 0 0 0 1.02539,-2.04883 199.99652,199.99652 0 0 0 1.16602,-1.96875 199.99652,199.99652 0 0 0 0.63672,-1.18164 199.99652,199.99652 0 0 0 2.92773,-6.30469 199.99652,199.99652 0 0 0 2.60547,-5.20508 l 0,-0.40234 a 199.99652,199.99652 0 0 0 2.47852,-5.33594 199.99652,199.99652 0 0 0 0.27343,-0.66015 199.99652,199.99652 0 0 0 6.46485,-18.58203 199.99652,199.99652 0 0 0 0.0156,-0.043 199.99652,199.99652 0 0 0 2.55274,-10.58203 c 0.0571,0.005 0.11491,0.008 0.17187,0.0137 a 199.99652,199.99652 0 0 0 0.62696,-3.32227 199.99652,199.99652 0 0 0 2.11914,-11.22461 199.99652,199.99652 0 0 0 1.60351,-11.64843 199.99652,199.99652 0 0 0 0.40039,-4.09571 199.99652,199.99652 0 0 0 0.47852,-4.90625 199.99652,199.99652 0 0 0 0.37109,-10.47265 199.99652,199.99652 0 0 0 -0.0996,-2 199.99652,199.99652 0 0 0 -1.89843,-24.81446 199.99652,199.99652 0 0 0 -1.14454,-7.94531 199.99652,199.99652 0 0 0 -0.37304,-1.92773 199.99652,199.99652 0 0 0 -0.47071,-3.05274 199.99652,199.99652 0 0 0 -0.51171,-2.00781 199.99652,199.99652 0 0 0 -0.64063,-3.29883 199.99652,199.99652 0 0 0 -1.9668,-6.91406 199.99652,199.99652 0 0 0 -1.82617,-7.14258 199.99652,199.99652 0 0 0 -0.93555,-2.5625 199.99652,199.99652 0 0 0 -3.41796,-9.36719 199.99652,199.99652 0 0 0 -0.65235,-1.78515 199.99652,199.99652 0 0 0 -1.84765,-5.06446 199.99652,199.99652 0 0 0 -0.004,-0.006 199.99652,199.99652 0 0 0 -1.17774,-2.4375 199.99652,199.99652 0 0 0 -4.35937,-9.02539 199.99652,199.99652 0 0 0 -3.15625,-6.5332 199.99652,199.99652 0 0 0 -0.004,-0.008 199.99652,199.99652 0 0 0 -1.41992,-2.31836 199.99652,199.99652 0 0 0 -5.18359,-8.45703 199.99652,199.99652 0 0 0 -3.83985,-6.26367 199.99652,199.99652 0 0 0 -0.004,-0.002 199.99652,199.99652 0 0 0 -1.64844,-2.16797 199.99652,199.99652 0 0 0 -1.47851,-2.27148 199.99652,199.99652 0 0 0 -3.61133,-4.42578 199.99652,199.99652 0 0 0 -5.35743,-7.04688 199.99652,199.99652 0 0 0 -0.004,-0.004 199.99652,199.99652 0 0 0 -3.17969,-3.41407 199.99652,199.99652 0 0 0 -2.72851,-2.92968 199.99652,199.99652 0 0 0 -7.71485,-8.28125 199.99652,199.99652 0 0 0 -0.004,-0.002 199.99652,199.99652 0 0 0 -2.0625,-1.8125 199.99652,199.99652 0 0 0 -1.88282,-1.91406 199.99652,199.99652 0 0 0 -0.002,-0.004 199.99652,199.99652 0 0 0 -5.58789,-4.64649 199.99652,199.99652 0 0 0 -5.48047,-4.81445 199.99652,199.99652 0 0 0 -0.004,-0.002 199.99652,199.99652 0 0 0 -2.20703,-1.57812 199.99652,199.99652 0 0 0 -2.08984,-1.73828 199.99652,199.99652 0 0 0 -6.00781,-4.05469 199.99652,199.99652 0 0 0 -5.95313,-4.25781 199.99652,199.99652 0 0 0 -0.004,0 199.99652,199.99652 0 0 0 -2.35352,-1.34961 199.99652,199.99652 0 0 0 -1.11914,-0.75586 199.99652,199.99652 0 0 0 -1.13281,-0.76563 199.99652,199.99652 0 0 0 -0.004,-0.002 199.99652,199.99652 0 0 0 -6.41992,-3.45508 199.99652,199.99652 0 0 0 -6.30664,-3.61718 199.99652,199.99652 0 0 0 -0.008,-0.004 199.99652,199.99652 0 0 0 -2.47852,-1.10938 199.99652,199.99652 0 0 0 -9.12109,-4.08203 199.99652,199.99652 0 0 0 -6.64258,-2.97265 199.99652,199.99652 0 0 0 -0.004,0 199.99652,199.99652 0 0 0 -2.56055,-0.85157 199.99652,199.99652 0 0 0 -2.52539,-1.04882 199.99652,199.99652 0 0 0 -19.13476,-5.78516 199.99652,199.99652 0 0 0 -0.004,0 199.99652,199.99652 0 0 0 -6.71484,-1.31641 199.99652,199.99652 0 0 0 -3.1582,-0.69726 199.99652,199.99652 0 0 0 -4.37696,-0.98438 199.99652,199.99652 0 0 0 -0.004,0 199.99652,199.99652 0 0 0 -2.70704,-0.32812 199.99652,199.99652 0 0 0 -2.65624,-0.52149 199.99652,199.99652 0 0 0 -7.23047,-0.67968 199.99652,199.99652 0 0 0 -7.2461,-0.87891 199.99652,199.99652 0 0 0 -0.008,0 199.99652,199.99652 0 0 0 -3.38672,-0.11914 199.99652,199.99652 0 0 0 -4.88281,-0.17383 199.99652,199.99652 0 0 0 -5.87109,-0.20703 l -0.002,0 -0.004,0 -0.002,0 z"
           id="path4188" />
        <path
           style="opacity:1;fill:url(#linearGradient4239);fill-opacity:1;stroke:none;stroke-width:15;stroke-linecap:round;stroke-linejoin:round;stroke-miterlimit:4;stroke-dasharray:none;stroke-opacity:1"
           d="m 387.16838,322.19616 c -57.16142,0.63673 -111.64497,25.97958 -149.38036,69.37282 l 152.97007,133.00775 1.95092,-202.36539 c -1.84901,-0.0311 -3.69672,-0.0358 -5.54063,-0.0152 z"
           id="path4207"
           inkscape:connector-curvature="0" />
        <circle
           style="opacity:1;fill:#ffffff;fill-opacity:1;stroke:none;stroke-width:16;stroke-linecap:round;stroke-linejoin:round;stroke-miterlimit:4;stroke-dasharray:none;stroke-opacity:1"
           id="path4190"
           cx="389.04843"
           cy="522.18494"
           r="28.570929" />
        <rect
           style="opacity:1;fill:#ffffff;fill-opacity:1;stroke:none;stroke-width:16;stroke-linecap:round;stroke-linejoin:round;stroke-miterlimit:4;stroke-dasharray:none;stroke-opacity:1"
           id="rect4194"
           width="26.381388"
           height="101.08032"
           x="-655.47223"
           y="112.66603"
           ry="15.04714"
           rx="13.190694"
           transform="matrix(-0.72739859,-0.68621519,-0.68621519,0.72739859,0,0)"
           inkscape:transform-center-x="33.107852"
           inkscape:transform-center-y="36.360959" />
        <rect
           inkscape:transform-center-y="-56.219916"
           inkscape:transform-center-x="63.927589"
           style="opacity:1;fill:#ffffff;fill-opacity:1;stroke:none;stroke-width:16;stroke-linecap:round;stroke-linejoin:round;stroke-miterlimit:4;stroke-dasharray:none;stroke-opacity:1"
           id="rect4192"
           width="164.57188"
           height="21.435387"
           x="480.57739"
           y="112.38721"
           ry="10.717693"
           transform="matrix(0.73562526,0.67738872,-0.67738872,0.73562526,0,0)"
           rx="13.052771" />
      </g>
      <path
         id="rect4209"
         d="m 205.35973,322.18362 367.43288,0 c 9.00394,0 16.2526,7.24866 16.2526,16.2526 l 0,367.4948 c 0,9.00394 -7.24866,16.2526 -16.2526,16.2526 l -367.43288,0 c -9.00394,0 -16.2526,-7.24866 -16.2526,-16.2526 l 0,-367.4948 c 0,-9.00394 7.24866,-16.2526 16.2526,-16.2526 z"
         style="color:#000000;clip-rule:nonzero;display:inline;overflow:visible;visibility:visible;opacity:1;isolation:auto;mix-blend-mode:normal;color-interpolation:sRGB;color-interpolation-filters:linearRGB;solid-color:#000000;solid-opacity:1;fill:none;fill-opacity:1;fill-rule:nonzero;stroke:none;stroke-width:5;stroke-linecap:square;stroke-linejoin:round;stroke-miterlimit:4;stroke-dasharray:none;stroke-dashoffset:0;stroke-opacity:1;color-rendering:auto;image-rendering:auto;shape-rendering:auto;text-rendering:auto;enable-background:accumulate" />
    </g>
  </g>
</svg>
