<?xml version="1.0" encoding="UTF-8" standalone="no"?>
<!-- Created with Inkscape (http://www.inkscape.org/) -->

<svg
   xmlns:dc="http://purl.org/dc/elements/1.1/"
   xmlns:cc="http://creativecommons.org/ns#"
   xmlns:rdf="http://www.w3.org/1999/02/22-rdf-syntax-ns#"
   xmlns:svg="http://www.w3.org/2000/svg"
   xmlns="http://www.w3.org/2000/svg"
   xmlns:xlink="http://www.w3.org/1999/xlink"
   xmlns:sodipodi="http://sodipodi.sourceforge.net/DTD/sodipodi-0.dtd"
   xmlns:inkscape="http://www.inkscape.org/namespaces/inkscape"
   width="210mm"
   height="297mm"
   viewBox="0 0 744.09448819 1052.3622047"
   id="svg2"
   version="1.1"
   inkscape:version="0.91 r13725"
   inkscape:export-xdpi="4"
   inkscape:export-ydpi="4"
   sodipodi:docname="binational.svg">
  <defs
     id="defs4">
    <linearGradient
       id="linearGradient2224">
      <stop
         id="stop2226"
         offset="0"
         style="stop-color:#7c7c7c;stop-opacity:1;" />
      <stop
         id="stop2228"
         offset="1"
         style="stop-color:#b8b8b8;stop-opacity:1;" />
    </linearGradient>
    <linearGradient
       id="linearGradient15218">
      <stop
         id="stop15220"
         offset="0"
         style="stop-color:#eeeeef;stop-opacity:1;" />
      <stop
         id="stop2736"
         offset="0.59928656"
         style="stop-color:#d3d7cf;stop-opacity:1;" />
      <stop
         id="stop2738"
         offset="0.82758623"
         style="stop-color:#ffffff;stop-opacity:1;" />
      <stop
         id="stop15222"
         offset="1"
         style="stop-color:#d3d7cf;stop-opacity:1;" />
    </linearGradient>
    <pattern
       y="0"
       x="0"
       height="6"
       width="6"
       patternUnits="userSpaceOnUse"
       id="EMFhbasepattern" />
    <pattern
       y="0"
       x="0"
       height="6"
       width="6"
       patternUnits="userSpaceOnUse"
       id="EMFhbasepattern-5" />
    <linearGradient
       inkscape:collect="always"
       xlink:href="#linearGradient4167"
       id="linearGradient4169"
       x1="189.10713"
       y1="722.18365"
       x2="589.04523"
       y2="374.95392"
       gradientUnits="userSpaceOnUse"
       gradientTransform="matrix(0.91074995,0,0,0.91125,34.867477,46.409591)" />
    <linearGradient
       inkscape:collect="always"
       id="linearGradient4167">
      <stop
         style="stop-color:#4e505d;stop-opacity:1;"
         offset="0"
         id="stop4169" />
      <stop
         style="stop-color:#7a8597;stop-opacity:1"
         offset="1"
         id="stop4171" />
    </linearGradient>
  </defs>
  <sodipodi:namedview
     id="base"
     pagecolor="#ffffff"
     bordercolor="#666666"
     borderopacity="1.0"
     inkscape:pageopacity="0.0"
     inkscape:pageshadow="2"
     inkscape:zoom="0.5"
     inkscape:cx="810.96217"
     inkscape:cy="599.30338"
     inkscape:document-units="px"
     inkscape:current-layer="layer1"
     showgrid="false"
     showguides="false"
     inkscape:guide-bbox="true"
     inkscape:window-width="1366"
     inkscape:window-height="721"
     inkscape:window-x="-4"
     inkscape:window-y="-4"
     inkscape:window-maximized="1">
    <sodipodi:guide
       position="315.53572,730.17859"
       orientation="0,1"
       id="guide3338" />
    <sodipodi:guide
       position="351.25,330.17858"
       orientation="0,1"
       id="guide3340" />
    <sodipodi:guide
       position="189.10714,408.8393"
       orientation="1,0"
       id="guide3344" />
    <sodipodi:guide
       position="589.04521,468.07945"
       orientation="1,0"
       id="guide3346" />
    <inkscape:grid
       type="xygrid"
       id="grid3440" />
    <sodipodi:guide
       position="0,0"
       orientation="0,1"
       id="guide3405" />
    <sodipodi:guide
       position="214.125,684.50002"
       orientation="1,0"
       id="guide3407" />
    <sodipodi:guide
       position="0,0"
       orientation="0,1"
       id="guide3409" />
    <sodipodi:guide
       position="589.04521,378.30213"
       orientation="1,0"
       id="guide3411" />
    <sodipodi:guide
       position="564.00001,683.37502"
       orientation="1,0"
       id="guide3413" />
  </sodipodi:namedview>
  <metadata
     id="metadata7">
    <rdf:RDF>
      <cc:Work
         rdf:about="">
        <dc:format>image/svg+xml</dc:format>
        <dc:type
           rdf:resource="http://purl.org/dc/dcmitype/StillImage" />
        <dc:title>binational</dc:title>
        <dc:date>June 2015</dc:date>
        <dc:creator>
          <cc:Agent>
            <dc:title>Johannes Hechler</dc:title>
          </cc:Agent>
        </dc:creator>
        <dc:rights>
          <cc:Agent>
            <dc:title>Johannes Hechler</dc:title>
          </cc:Agent>
        </dc:rights>
        <dc:publisher>
          <cc:Agent>
            <dc:title>RRZE</dc:title>
          </cc:Agent>
        </dc:publisher>
        <dc:contributor>
          <cc:Agent>
            <dc:title>Ute Weber, Hendrik Eggers</dc:title>
          </cc:Agent>
        </dc:contributor>
      </cc:Work>
    </rdf:RDF>
  </metadata>
  <g
     inkscape:label="Ebene 1"
     inkscape:groupmode="layer"
     id="layer1">
    <flowRoot
       transform="translate(-0.36543692,-0.35989648)"
       xml:space="preserve"
       id="flowRoot4169"
       style="font-style:normal;font-weight:normal;font-size:40px;line-height:125%;font-family:sans-serif;letter-spacing:0px;word-spacing:0px;fill:#252525;fill-opacity:1;stroke:none;stroke-width:1px;stroke-linecap:butt;stroke-linejoin:miter;stroke-opacity:1"><flowRegion
         id="flowRegion4171"><rect
           id="rect4173"
           width="56.433445"
           height="88.78862"
           x="89.541069"
           y="427.07962" /></flowRegion><flowPara
         id="flowPara4175" /></flowRoot>    <rect
       style="fill:none;fill-rule:evenodd;stroke:none;stroke-width:1px;stroke-linecap:butt;stroke-linejoin:miter;stroke-opacity:1"
       id="rect3336"
       width="400"
       height="400"
       x="188.7794"
       y="321.91016"
       inkscape:export-xdpi="4.9499998"
       inkscape:export-ydpi="4.9499998" />
    <path
       inkscape:connector-curvature="0"
       id="path5"
       d="m 556.74485,451.21841 c -19.21725,-44.82782 -51.87335,-77.42972 -97.0505,-96.70816 -22.57997,-9.63537 -46.036,-14.55704 -70.75052,-14.55704 -24.70976,0 -48.19143,4.87518 -70.74636,14.55704 -44.80256,19.22718 -77.80351,51.80827 -97.05469,96.70816 -9.64674,22.49467 -14.34891,46.06128 -14.34891,70.78455 0,24.72817 4.70217,48.49017 14.34891,70.98949 19.25118,44.89997 52.25154,77.67645 97.05469,96.90838 22.55493,9.68191 46.036,14.55238 70.74636,14.55238 24.71452,0 48.17055,-4.92171 70.75052,-14.55238 45.17776,-19.27894 77.83384,-52.08481 97.0505,-96.90838 9.67653,-22.5715 14.54902,-46.26132 14.54902,-70.98949 0,-24.72327 -4.87249,-48.2137 -14.54902,-70.78455 z M 328.35881,373.85247 c -15.74378,19.93811 -27.29939,45.26153 -34.67576,75.97027 l -47.6298,0 c 17.5371,-34.09889 47.03482,-61.41745 82.30556,-75.97027 z m -99.44418,148.15049 c 0,-17.34705 2.7891,-38.09463 8.17147,-54.24695 l 52.21343,0 c -2.5896,16.94718 -3.78793,37.69964 -3.78793,54.24695 0,16.35193 1.19891,38.90458 3.78793,55.85197 l -52.6131,0 c -5.18222,-16.15232 -7.7718,-38.89989 -7.7718,-55.85197 z m 17.13862,73.78502 47.63041,0 c 7.37638,31.30418 18.93255,55.02746 34.67575,74.76999 -35.87109,-14.95671 -65.36823,-40.27481 -82.30616,-74.76999 z m 131.73043,84.73726 c -12.95464,-3.78645 -25.10997,-13.35742 -36.07001,-28.9096 -10.96059,-15.55641 -19.33159,-32.89505 -25.11001,-55.82766 l 61.18002,0 z m 0,-102.67031 -66.16328,0 c -2.59319,-17.74759 -3.98807,-40.29979 -3.98807,-55.85197 0,-16.74757 1.39429,-37.49938 4.38771,-54.24695 l 65.76306,0 0,110.09892 z m 0,-128.03173 -61.18002,0 c 6.17746,-22.73287 14.59552,-41.84149 25.50967,-57.22804 11.00706,-15.52238 22.71633,-25.12378 35.67096,-28.71417 l 0,85.94221 z m 154.25138,0 -47.63094,0 c -7.37221,-30.7092 -18.93198,-56.03262 -34.67577,-75.97015 35.27553,14.55224 64.76903,41.8708 82.30671,75.97015 z M 400.30408,363.88099 c 12.95465,3.59039 24.66331,13.19179 35.67097,28.71417 10.91773,15.38655 19.3316,34.49517 25.50904,57.22804 l -61.18001,0 z m 0,103.87502 65.76307,0 c 2.9928,16.74757 4.38769,37.49938 4.38769,54.24695 0,15.55285 -1.39489,38.10438 -3.98808,55.85197 l -66.16268,0 z m 0,212.76923 0,-84.73726 61.18001,0 c -5.97732,22.93261 -14.4591,40.19439 -25.30954,55.82766 -10.87544,15.67137 -22.7163,25.32341 -35.87047,28.9096 z m 49.42487,-9.96727 c 15.74378,-19.74253 27.30357,-43.46581 34.67575,-74.76999 l 47.63099,0 c -16.93853,34.49518 -46.43683,59.81328 -82.30674,74.76999 z m 91.67236,-92.70304 -52.61309,0 c 2.59321,-16.94783 3.78795,-39.50004 3.78795,-55.85197 0,-16.54731 -1.19474,-37.2991 -3.78795,-54.24695 l 52.21346,0 c 5.38231,16.15166 8.17145,36.89923 8.17145,54.24695 -5.8e-4,16.95208 -2.58902,39.69965 -7.77182,55.85197 z"
       style="fill:url(#linearGradient4169);fill-opacity:1"
       sodipodi:nodetypes="cssccsssscsscccccsccsccscccccccccccscccccccccccccccccccccsccccccccccccccscccc" />
    <g
       id="g4308"
       style="stroke:#ffffff;stroke-width:35;stroke-linejoin:round;stroke-miterlimit:4;stroke-dasharray:none"
       transform="translate(-0.12932,-0.121964)">
      <rect
         style="color:#000000;clip-rule:nonzero;display:inline;overflow:visible;visibility:visible;opacity:1;isolation:auto;mix-blend-mode:normal;color-interpolation:sRGB;color-interpolation-filters:linearRGB;solid-color:#000000;solid-opacity:1;fill:#4e505d;fill-opacity:1;fill-rule:evenodd;stroke:#ffffff;stroke-width:35;stroke-linecap:butt;stroke-linejoin:round;stroke-miterlimit:4;stroke-dasharray:none;stroke-dashoffset:0;stroke-opacity:1;color-rendering:auto;image-rendering:auto;shape-rendering:auto;text-rendering:auto;enable-background:accumulate"
         id="rect4310"
         width="18.161039"
         height="180.75969"
         x="334.77087"
         y="540.67651" />
      <path
         sodipodi:nodetypes="szsssszssss"
         inkscape:connector-curvature="0"
         id="path4312"
         d="m 312.8224,539.2626 c -2.22117,-7.09036 -40.19758,-31.85802 -61.41068,0 -21.2131,31.85802 -58.42938,0 -58.42938,0 -2.25284,-0.54789 -4.13243,1.84305 -4.13243,4.13242 l 0,66.11866 c 0,2.28935 6.39896,3.16105 4.13243,4.13242 -1.68465,0.72199 33.96957,21.55245 58.68031,0 24.71074,-21.55245 39.55182,-28.11136 61.15975,0 1.39519,1.8151 4.13242,-1.84307 4.13242,-4.13242 l 0,-66.11866 c 0,-2.28937 -3.44804,-1.94775 -4.13242,-4.13242 z"
         style="opacity:1;fill:#fbb516;fill-opacity:1;stroke:#ffffff;stroke-width:35;stroke-linecap:round;stroke-linejoin:round;stroke-miterlimit:4;stroke-dasharray:none;stroke-opacity:1" />
      <rect
         y="486.9364"
         x="370.83331"
         height="234.4998"
         width="18.161039"
         id="rect4314"
         style="color:#000000;clip-rule:nonzero;display:inline;overflow:visible;visibility:visible;opacity:1;isolation:auto;mix-blend-mode:normal;color-interpolation:sRGB;color-interpolation-filters:linearRGB;solid-color:#000000;solid-opacity:1;fill:#4e505d;fill-opacity:1;fill-rule:evenodd;stroke:#ffffff;stroke-width:35;stroke-linecap:butt;stroke-linejoin:round;stroke-miterlimit:4;stroke-dasharray:none;stroke-dashoffset:0;stroke-opacity:1;color-rendering:auto;image-rendering:auto;shape-rendering:auto;text-rendering:auto;enable-background:accumulate" />
      <path
         style="opacity:1;fill:#fbb516;fill-opacity:1;stroke:#ffffff;stroke-width:35;stroke-linecap:round;stroke-linejoin:round;stroke-miterlimit:4;stroke-dasharray:none;stroke-opacity:1"
         d="m 410.77122,482.69406 c 2.22117,-7.09036 40.19758,-31.85802 61.41068,0 21.2131,31.85802 58.42938,0 58.42938,0 2.25284,-0.54789 4.13243,1.84305 4.13243,4.13242 l 0,66.11866 c 0,2.28935 -6.39896,3.16105 -4.13243,4.13242 1.68465,0.72199 -33.96957,21.55245 -58.68031,0 -24.71074,-21.55245 -39.55182,-28.11136 -61.15975,0 -1.39519,1.8151 -4.13242,-1.84307 -4.13242,-4.13242 l 0,-66.11866 c 0,-2.28937 3.44804,-1.94775 4.13242,-4.13242 z"
         id="path4316"
         inkscape:connector-curvature="0"
         sodipodi:nodetypes="szsssszssss" />
    </g>
    <g
       id="g4302"
       transform="translate(-0.12932,-0.121964)">
      <rect
         y="540.67651"
         x="334.77087"
         height="180.75969"
         width="18.161039"
         id="rect4280"
         style="color:#000000;clip-rule:nonzero;display:inline;overflow:visible;visibility:visible;opacity:1;isolation:auto;mix-blend-mode:normal;color-interpolation:sRGB;color-interpolation-filters:linearRGB;solid-color:#000000;solid-opacity:1;fill:#4e505d;fill-opacity:1;fill-rule:evenodd;stroke:none;stroke-width:14.39999962;stroke-linecap:butt;stroke-linejoin:round;stroke-miterlimit:4;stroke-dasharray:none;stroke-dashoffset:0;stroke-opacity:1;color-rendering:auto;image-rendering:auto;shape-rendering:auto;text-rendering:auto;enable-background:accumulate"
         ry="9.0805197" />
      <path
         style="opacity:1;fill:#fbb516;fill-opacity:1;stroke:none;stroke-width:16;stroke-linecap:round;stroke-linejoin:round;stroke-miterlimit:4;stroke-dasharray:none;stroke-opacity:1"
         d="m 312.4474,538.2626 c -5.96788,-4.42619 -39.82258,-30.85802 -61.03568,1 -21.2131,31.85802 -58.42938,0 -58.42938,0 -2.25284,-0.54789 -4.13243,1.84305 -4.13243,4.13242 l 0,66.11866 c 0,2.28935 2.07443,2.77398 4.13243,4.13242 1.37785,0.90949 33.96957,21.55245 58.68031,0 24.71074,-21.55245 39.55182,-28.11136 61.15975,0 1.39519,1.8151 4.13242,-1.84307 4.13242,-4.13242 l 0,-66.11866 c 0,-2.28937 -4.50742,-5.13242 -4.50742,-5.13242 z"
         id="rect4163-4"
         inkscape:connector-curvature="0"
         sodipodi:nodetypes="szsssszssss" />
      <rect
         style="color:#000000;clip-rule:nonzero;display:inline;overflow:visible;visibility:visible;opacity:1;isolation:auto;mix-blend-mode:normal;color-interpolation:sRGB;color-interpolation-filters:linearRGB;solid-color:#000000;solid-opacity:1;fill:#4e505d;fill-opacity:1;fill-rule:evenodd;stroke:none;stroke-width:14.39999962;stroke-linecap:butt;stroke-linejoin:round;stroke-miterlimit:4;stroke-dasharray:none;stroke-dashoffset:0;stroke-opacity:1;color-rendering:auto;image-rendering:auto;shape-rendering:auto;text-rendering:auto;enable-background:accumulate"
         id="rect4298"
         width="18.161039"
         height="234.4998"
         x="370.83331"
         y="486.9364"
         ry="9.0805197" />
      <path
         sodipodi:nodetypes="szsssszssss"
         inkscape:connector-curvature="0"
         id="path4300"
         d="m 412.53899,481.10307 c 0,0 38.42981,-30.26703 59.64291,1.59099 21.2131,31.85802 58.42938,0 58.42938,0 2.25284,-0.54789 4.13243,1.84305 4.13243,4.13242 l 0,66.11866 c 0,2.28935 -2.02682,2.84901 -4.13243,4.13242 -0.967,0.58941 -33.96957,21.55245 -58.68031,0 -24.71074,-21.55245 -39.55182,-28.11136 -61.15975,0 -1.39519,1.8151 -4.13242,-1.84307 -4.13242,-4.13242 l 0,-66.11866 c 0,-2.28937 4.03677,-4.39343 5.90019,-5.72341 z"
         style="opacity:1;fill:#99b000;fill-opacity:1;stroke:none;stroke-width:16;stroke-linecap:round;stroke-linejoin:round;stroke-miterlimit:4;stroke-dasharray:none;stroke-opacity:1" />
    </g>
  </g>
</svg>
