<?xml version="1.0" encoding="UTF-8" standalone="no"?>
<!-- Created with Inkscape (http://www.inkscape.org/) -->

<svg
   xmlns:dc="http://purl.org/dc/elements/1.1/"
   xmlns:cc="http://creativecommons.org/ns#"
   xmlns:rdf="http://www.w3.org/1999/02/22-rdf-syntax-ns#"
   xmlns:svg="http://www.w3.org/2000/svg"
   xmlns="http://www.w3.org/2000/svg"
   xmlns:xlink="http://www.w3.org/1999/xlink"
   xmlns:sodipodi="http://sodipodi.sourceforge.net/DTD/sodipodi-0.dtd"
   xmlns:inkscape="http://www.inkscape.org/namespaces/inkscape"
   width="210mm"
   height="297mm"
   viewBox="0 0 744.09448819 1052.3622047"
   id="svg2"
   version="1.1"
   inkscape:version="0.91 r13725"
   inkscape:export-xdpi="7.1999998"
   inkscape:export-ydpi="7.1999998"
   sodipodi:docname="flag-green-clock.svg"
   inkscape:export-filename="C:\Users\johannes\Documents\Arbeit\RRZE\github3\bicons\32x32\status\flag-green-clock.png">
  <defs
     id="defs4">
    <linearGradient
       inkscape:collect="always"
       id="linearGradient4166">
      <stop
         style="stop-color:#99b000;stop-opacity:1;"
         offset="0"
         id="stop4168" />
      <stop
         style="stop-color:#a9bc24;stop-opacity:1"
         offset="1"
         id="stop4170" />
    </linearGradient>
    <linearGradient
       id="linearGradient2224">
      <stop
         id="stop2226"
         offset="0"
         style="stop-color:#7c7c7c;stop-opacity:1;" />
      <stop
         id="stop2228"
         offset="1"
         style="stop-color:#b8b8b8;stop-opacity:1;" />
    </linearGradient>
    <linearGradient
       id="linearGradient15218">
      <stop
         id="stop15220"
         offset="0"
         style="stop-color:#eeeeef;stop-opacity:1;" />
      <stop
         id="stop2736"
         offset="0.59928656"
         style="stop-color:#d3d7cf;stop-opacity:1;" />
      <stop
         id="stop2738"
         offset="0.82758623"
         style="stop-color:#ffffff;stop-opacity:1;" />
      <stop
         id="stop15222"
         offset="1"
         style="stop-color:#d3d7cf;stop-opacity:1;" />
    </linearGradient>
    <pattern
       y="0"
       x="0"
       height="6"
       width="6"
       patternUnits="userSpaceOnUse"
       id="EMFhbasepattern" />
    <pattern
       y="0"
       x="0"
       height="6"
       width="6"
       patternUnits="userSpaceOnUse"
       id="EMFhbasepattern-5" />
    <linearGradient
       inkscape:collect="always"
       xlink:href="#linearGradient4166"
       id="linearGradient4198"
       x1="270"
       y1="444.72833"
       x2="544.76801"
       y2="444.72833"
       gradientUnits="userSpaceOnUse"
       gradientTransform="matrix(1.0810812,0,0,1.0810812,-34.430044,-50.143148)" />
  </defs>
  <sodipodi:namedview
     id="base"
     pagecolor="#ffffff"
     bordercolor="#666666"
     borderopacity="1.0"
     inkscape:pageopacity="0.0"
     inkscape:pageshadow="2"
     inkscape:zoom="0.99999999"
     inkscape:cx="255.43203"
     inkscape:cy="592.32383"
     inkscape:document-units="px"
     inkscape:current-layer="g4194"
     showgrid="false"
     showguides="true"
     inkscape:guide-bbox="true"
     inkscape:window-width="1600"
     inkscape:window-height="837"
     inkscape:window-x="-4"
     inkscape:window-y="-4"
     inkscape:window-maximized="1"
     inkscape:snap-bbox="true"
     inkscape:bbox-nodes="true"
     inkscape:snap-global="false">
    <sodipodi:guide
       position="315.53572,730.17859"
       orientation="0,1"
       id="guide3338" />
    <sodipodi:guide
       position="351.25,330.17858"
       orientation="0,1"
       id="guide3340" />
    <sodipodi:guide
       position="189.10714,408.8393"
       orientation="1,0"
       id="guide3344" />
    <sodipodi:guide
       position="589.04521,468.07945"
       orientation="1,0"
       id="guide3346" />
    <inkscape:grid
       type="xygrid"
       id="grid3440" />
    <sodipodi:guide
       position="0,0"
       orientation="0,1"
       id="guide3405" />
    <sodipodi:guide
       position="214.125,684.50002"
       orientation="1,0"
       id="guide3407" />
    <sodipodi:guide
       position="0,0"
       orientation="0,1"
       id="guide3409" />
    <sodipodi:guide
       position="589.04521,378.30213"
       orientation="1,0"
       id="guide3411" />
    <sodipodi:guide
       position="564.00001,683.37502"
       orientation="1,0"
       id="guide3413" />
  </sodipodi:namedview>
  <metadata
     id="metadata7">
    <rdf:RDF>
      <cc:Work
         rdf:about="">
        <dc:format>image/svg+xml</dc:format>
        <dc:type
           rdf:resource="http://purl.org/dc/dcmitype/StillImage" />
        <dc:title>flag green clock</dc:title>
        <dc:date>June 2015</dc:date>
        <dc:creator>
          <cc:Agent>
            <dc:title>Johannes Hechler</dc:title>
          </cc:Agent>
        </dc:creator>
        <dc:rights>
          <cc:Agent>
            <dc:title>Johannes Hechler</dc:title>
          </cc:Agent>
        </dc:rights>
        <dc:publisher>
          <cc:Agent>
            <dc:title>RRZE</dc:title>
          </cc:Agent>
        </dc:publisher>
        <dc:contributor>
          <cc:Agent>
            <dc:title>Ute Weber, Hendrik Eggers</dc:title>
          </cc:Agent>
        </dc:contributor>
      </cc:Work>
    </rdf:RDF>
  </metadata>
  <g
     inkscape:label="Ebene 1"
     inkscape:groupmode="layer"
     id="layer1">
    <g
       id="g4194">
      <flowRoot
         style="font-style:normal;font-weight:normal;font-size:40px;line-height:125%;font-family:sans-serif;letter-spacing:0px;word-spacing:0px;fill:#252525;fill-opacity:1;stroke:none;stroke-width:1px;stroke-linecap:butt;stroke-linejoin:miter;stroke-opacity:1"
         id="flowRoot4169"
         xml:space="preserve"><flowRegion
           id="flowRegion4171"><rect
             y="427.07962"
             x="89.541069"
             height="88.78862"
             width="56.433445"
             id="rect4173" /></flowRegion><flowPara
           id="flowPara4175" /></flowRoot>      <rect
         inkscape:export-ydpi="4.9499998"
         inkscape:export-xdpi="4.9499998"
         y="322.27005"
         x="189.14485"
         height="400"
         width="400"
         id="rect3336"
         style="fill:none;fill-rule:evenodd;stroke:none;stroke-width:1px;stroke-linecap:butt;stroke-linejoin:miter;stroke-opacity:1" />
      <rect
         ry="10.810812"
         y="322.14038"
         x="225.02943"
         height="400"
         width="21.621624"
         id="rect4161"
         style="opacity:1;fill:#4e505d;fill-opacity:1;stroke:none;stroke-width:16;stroke-linecap:round;stroke-linejoin:round;stroke-miterlimit:4;stroke-dasharray:none;stroke-opacity:1" />
      <path
         id="rect4163"
         d="m 349.88281,335.25586 c -40.37376,0.0474 -79.45793,10.5084 -82.83789,11.37305 -5.1429,1.31563 -9.58398,4.27352 -9.58398,9.58203 l 0,153.31445 c 0,5.30851 4.73377,11.73973 9.58398,9.58203 31.32613,-13.93593 62.82104,-16.53691 92.0918,-12.7207 0.9125,-1.05426 1.78173,-2.01038 2.55469,-2.83594 0.6949,-0.76029 1.12102,-1.18712 0.85547,-0.89844 a 18.0018,18.0018 0 0 1 0.0879,-0.0957 c 0.86239,-0.92412 1.72888,-1.82388 2.59179,-2.70117 0.005,-0.005 0.0106,-0.009 0.0156,-0.0137 2.64098,-2.71376 5.4506,-5.46455 8.5039,-8.16211 a 18.0018,18.0018 0 0 1 0.21875,-0.18946 c 2.72672,-2.33177 5.27504,-4.25993 7.58008,-6.01953 a 18.0018,18.0018 0 0 1 0.33008,-0.24414 c 3.74346,-2.7248 7.54554,-5.25985 11.44531,-7.64453 a 18.0018,18.0018 0 0 1 0.30078,-0.18164 c 8.03521,-4.70122 16.5387,-8.69159 25.47461,-11.81641 4.43926,-1.57688 9.00736,-2.93539 13.60938,-4.0371 4.52162,-1.08241 9.07279,-1.94966 13.64062,-2.625 a 18.0018,18.0018 0 0 1 0.24219,-0.0352 c 5.98589,-0.80207 11.91927,-1.16446 17.74219,-1.22656 l -0.23828,0.004 c -0.35829,0.009 0.0632,-0.0307 1.26953,-0.0547 l -0.01,0.0137 a 18.0018,18.0018 0 0 1 0.36719,-0.0176 c 0.95389,0 1.39915,0.0231 1.37695,0.0234 l 0.0195,0 c 0.62859,0.006 1.12458,0.0194 1.48243,0.0254 a 18.0018,18.0018 0 0 1 0.0117,0 c 1.23266,0.0228 2.43732,0.065 3.61718,0.12109 l -0.1289,-0.006 c 0.29715,0.0121 1.13751,0.0113 2.51367,0.0899 a 18.0018,18.0018 0 0 1 1.13086,0.12304 c 0,0 0.002,0 0.002,0 a 18.0018,18.0018 0 0 1 0.17383,0.0156 l -0.125,-0.01 a 18.0018,18.0018 0 0 1 0.88672,0.11524 c 4.59826,0.32791 8.93823,0.88633 12.87109,1.51562 a 18.0018,18.0018 0 0 1 1.88867,0.4082 c -0.0334,-0.009 0.11234,0.0261 0.11133,0.0254 3.62324,0.64333 7.34264,1.4504 11.10742,2.50977 1.948,0.52541 3.76113,1.10109 5.46289,1.68555 1.27253,0.39777 2.46271,0.79101 3.45899,1.1289 -0.81053,-0.27659 -0.51922,-0.2123 0.90234,0.28321 a 18.0018,18.0018 0 0 1 0.39649,0.14257 c 0.71888,0.26959 1.6789,0.58192 2.93554,0.97461 a 18.0018,18.0018 0 0 1 1.37891,0.49219 c 3.32513,1.34422 6.46554,2.78143 9.45703,4.22656 l -0.26367,-0.125 c -0.17522,-0.0812 0.6135,0.20354 2.29492,1.01368 a 18.0018,18.0018 0 0 1 0.26758,0.13085 c 4.45223,2.2366 8.73114,4.69172 12.84375,7.32032 -1.0391,-0.66465 -0.99169,-0.65143 0.28515,0.17187 a 18.0018,18.0018 0 0 1 0.0684,0.0449 c 0.80727,0.5257 1.1424,0.77115 1.1543,0.78125 l 0.0586,0.0391 c 1.46607,0.96411 2.98505,1.98853 4.54492,3.10351 2.24508,1.60475 4.44403,3.28484 6.60351,5.02539 l 0,-132.79101 c 0,-5.30851 -4.35822,-10.85247 -9.58203,-9.58203 0,0 -86.29595,24.91417 -135.48437,0 -16.90852,-8.56425 -38.41044,-11.39786 -59.5586,-11.37305 z M 475.52344,457.9668 c 0.13157,0.008 0.23226,0.035 0.36328,0.043 0.0175,0.002 -0.1498,-0.0254 -0.125,-0.0234 l -0.23828,-0.0195 z m -9.61719,35.64258 c 0.14132,0.002 0.0308,0.0195 -0.95117,0.043 a 18.0018,18.0018 0 0 1 -0.24024,0.006 c -4.54811,0.0485 -8.98745,0.33689 -13.2539,0.9043 -3.51949,0.52466 -6.98089,1.1836 -10.375,1.99609 -3.34511,0.80082 -6.74932,1.81238 -9.97852,2.96094 a 18.0018,18.0018 0 0 1 -0.0976,0.0332 c -6.59347,2.30321 -12.94144,5.27534 -19.06055,8.84375 -3.00808,1.84483 -5.90642,3.77494 -8.78125,5.86329 -0.88908,0.67891 -1.69646,1.30159 -2.48828,1.91796 2.76439,0.93579 5.49235,1.91271 8.17969,2.92969 33.46522,12.6644 102.41477,4.74045 127.06054,1.33008 -0.46301,-0.4197 -0.78011,-0.71159 -0.83398,-0.75977 -0.004,-0.004 -0.008,-0.007 -0.0117,-0.01 -2.57892,-2.25432 -5.28364,-4.38871 -8.10352,-6.4043 -1.06031,-0.75791 -2.21042,-1.53673 -3.4414,-2.3457 a 18.0018,18.0018 0 0 1 -0.0586,-0.0391 c -0.55142,-0.36551 -0.62511,-0.42227 -0.69922,-0.47657 -0.13375,-0.085 -0.10614,-0.0666 -0.35351,-0.22461 a 18.0018,18.0018 0 0 1 -0.006,-0.004 c -3.10348,-1.98393 -6.27384,-3.79318 -9.51367,-5.42578 0.15699,0.0845 -0.25051,-0.0652 -1.64453,-0.71094 a 18.0018,18.0018 0 0 1 -0.26368,-0.125 c -2.42388,-1.17093 -4.7588,-2.22252 -7.03906,-3.15234 -1.12783,-0.35685 -2.27516,-0.71084 -3.71289,-1.25 l 0.39453,0.14453 c 0.93395,0.32553 0.69371,0.25932 -0.61133,-0.1836 -1.14525,-0.38844 -2.11198,-0.71196 -2.91015,-0.95508 a 18.0018,18.0018 0 0 1 -0.61524,-0.19921 c -1.24754,-0.42956 -2.28315,-0.75536 -3.27929,-1.02149 a 18.0018,18.0018 0 0 1 -0.24805,-0.0684 c -2.52361,-0.71295 -5.26687,-1.31131 -8.125,-1.80664 a 18.0018,18.0018 0 0 1 -0.92578,-0.18554 c -0.0841,-0.0192 -0.36097,-0.0913 -0.48438,-0.11915 -3.63122,-0.5739 -6.96957,-1.0313 -10.02343,-1.21093 a 18.0018,18.0018 0 0 1 -0.77344,-0.0625 c 9.6e-4,5e-4 -0.26109,-0.047 -0.27539,-0.0469 -0.18626,-0.005 -0.66061,-0.012 -1.7168,-0.0547 a 18.0018,18.0018 0 0 1 -0.12891,-0.004 c -0.88452,-0.0421 -1.74051,-0.0725 -2.57226,-0.0879 -0.52367,-0.009 -0.91122,-0.0195 -1.16211,-0.0215 a 18.0018,18.0018 0 0 1 -0.0215,0 c -0.69641,-0.007 -0.83212,-0.0136 -0.85352,-0.0176 z"
         style="opacity:1;fill:url(#linearGradient4198);fill-opacity:1;stroke:none;stroke-width:16;stroke-linecap:round;stroke-linejoin:round;stroke-miterlimit:4;stroke-dasharray:none;stroke-opacity:1"
         inkscape:connector-curvature="0" />
      <path
         id="path4169"
         d="m 465.71945,475.60601 c -0.40154,0.008 -0.79575,0.0428 -1.19631,0.0524 -5.20126,0.0555 -10.40486,0.38052 -15.54457,1.06921 -4.07008,0.60175 -8.10033,1.372 -12.08281,2.32534 -3.98248,0.9534 -7.97875,2.14007 -11.82107,3.50671 -7.79894,2.7243 -15.25736,6.22033 -22.36357,10.37802 -3.50047,2.14051 -6.89199,4.40198 -10.24343,6.84144 -2.32227,1.77275 -4.58707,3.49499 -6.80406,5.39087 -2.61642,2.31158 -5.11115,4.74475 -7.53678,7.23767 -0.78953,0.80163 -1.57201,1.61481 -2.33279,2.43004 -0.27257,0.29631 -0.5683,0.57583 -0.83742,0.87477 -1.00325,1.07098 -1.94477,2.09028 -2.8338,3.17026 l 0.0306,0.0306 c -1.44591,1.70188 -2.82376,3.49332 -4.14226,5.30119 -6.15526,8.05465 -11.38027,16.79976 -15.35766,26.13944 l -0.0524,-0.0597 c -0.2025,0.38638 -0.35296,0.8308 -0.44111,1.22621 -1.26018,2.89011 -2.35428,5.85115 -3.34223,8.93496 -0.29093,0.78187 -0.51684,1.5118 -0.75515,2.35526 -0.0819,0.26301 -0.15121,0.53556 -0.2316,0.80003 l -0.008,0 c -0.044,0.14623 -0.0762,0.29476 -0.11939,0.44115 -0.60638,2.01957 -1.15286,4.06513 -1.65241,6.12364 -0.075,0.30931 -0.15159,0.61748 -0.22433,0.92712 -0.11718,0.50141 -0.25725,1.00295 -0.36636,1.50287 -0.10602,0.62388 -0.27524,1.30518 -0.38128,1.92907 -0.0903,0.4306 -0.14816,0.86237 -0.2316,1.29351 -0.24004,1.23597 -0.47049,2.47333 -0.67293,3.71603 -0.0344,0.23199 -0.0705,0.46349 -0.10447,0.69537 -0.63487,4.0409 -1.11597,8.11384 -1.35335,12.21737 -0.16194,2.10681 -0.23927,4.29348 -0.23927,6.40026 0,16.53017 3.31875,32.81329 9.72005,48.04699 2.21381,5.03137 4.72909,9.93756 7.54428,14.65482 0.33535,0.56944 0.67989,1.133 1.02436,1.69727 0.25341,0.40862 0.48923,0.82842 0.74767,1.23371 0.81028,1.37751 1.62095,2.67377 2.51226,3.97028 2.02685,3.04039 4.26738,5.98991 6.6246,8.78542 0.48224,0.60834 0.95096,1.19823 1.43558,1.8094 0.32501,0.25496 0.58905,0.55946 0.85235,0.86736 0.0532,0.0609 0.11096,0.11822 0.1646,0.17953 1.21481,1.38578 2.45477,2.7438 3.73101,4.07494 0.0383,0.0395 0.0742,0.0805 0.11212,0.11939 0.77157,0.803 1.54031,1.62255 2.31786,2.40012 0.24309,0.24311 0.40613,0.39995 0.56826,0.64303 5.91519,5.67214 12.39561,10.85613 19.28305,15.31282 3.48431,2.18782 7.04577,4.21504 10.69206,6.07877 0.088,0.0448 0.18107,0.0823 0.26912,0.12704 0.18835,0.1129 0.39175,0.21247 0.57572,0.32884 1.30921,0.65026 2.63427,1.24294 3.95531,1.83934 0.32577,0.14815 0.64493,0.30358 0.97202,0.44859 1.11309,0.49029 2.25359,0.94833 3.38704,1.40568 0.70373,0.28596 1.40376,0.60489 2.1085,0.87483 0.21055,0.0819 0.4247,0.15082 0.63555,0.2316 0.096,0.0345 0.18759,0.0762 0.28406,0.11212 3.8478,1.50736 7.71862,2.78387 11.71637,3.84318 1.67143,0.44281 3.33318,0.83302 5.00209,1.21124 0.0191,0.004 0.0344,0.0117 0.0524,0.0153 0.004,10e-4 0.0117,-10e-4 0.0153,0 1.2447,0.28138 2.50503,0.52775 3.76091,0.77013 0.75829,0.15007 1.51179,0.32654 2.27299,0.46356 0.18146,0.0306 0.36406,0.0463 0.54582,0.0746 0.12861,0.023 0.25229,0.0536 0.3813,0.0746 3.21267,0.52197 6.41194,0.89058 9.63034,1.14394 0.56023,0.0501 1.1118,0.12017 1.67485,0.16461 0.19369,0.0117 0.38281,0.0117 0.57572,0.023 0.12522,0.008 0.24844,0.023 0.37363,0.0306 2.25952,0.14432 4.54147,0.21935 6.82648,0.23926 0.30014,0.004 0.59553,0.0306 0.89723,0.0306 0.61363,-0.0117 1.22586,-0.0575 1.83933,-0.0746 0.90805,-0.0153 1.81584,-10e-4 2.72163,-0.0448 4.14854,-0.13589 8.19936,-0.50665 12.32203,-1.04677 4.0084,-0.54909 8.0387,-1.32675 12.08277,-2.3328 3.98249,-0.95342 7.91861,-2.08204 11.81361,-3.38708 1.24864,-0.53473 2.49698,-1.06715 3.79826,-1.54023 3.35654,-1.31247 6.63834,-2.82694 9.87708,-4.43388 l 0,0.0597 c 0.38643,-0.15428 0.76056,-0.3889 1.07668,-0.62058 0.0153,-0.0117 0.0383,-0.0192 0.0524,-0.0306 0.37286,-0.18108 0.73619,-0.38895 1.10661,-0.57573 1.07898,-0.54414 2.15964,-1.09061 3.22255,-1.68234 0.23773,-0.13246 0.48855,-0.23965 0.72529,-0.37363 0.83539,-0.39454 1.61699,-0.85415 2.45242,-1.24868 3.50052,-2.14047 6.94472,-4.34039 10.24344,-6.84144 2.37501,-1.71104 4.64683,-3.54736 6.86386,-5.44321 3.76546,-3.32681 7.31186,-6.78503 10.64718,-10.49014 1.00303,-1.0708 1.94298,-2.09005 2.89359,-3.22259 l -0.0383,-0.0383 c 1.75151,-2.10089 3.42796,-4.2575 5.03949,-6.43766 0.60619,-0.82008 1.24141,-1.62864 1.8169,-2.45994 l 0.32156,-0.32156 c 2.26884,-3.32224 4.46305,-6.80399 6.40778,-10.2883 6.07849,-10.68973 10.4307,-22.20302 13.05478,-34.12484 0.008,-0.0306 0.0153,-0.0589 0.023,-0.0896 0.15504,-0.64126 0.25879,-1.23861 0.4187,-1.8842 0.11069,-0.56796 0.19447,-1.15329 0.29898,-1.72717 0.2205,-1.17147 0.43369,-2.34332 0.62059,-3.52164 0.34836,-2.19712 0.64417,-4.40734 0.87477,-6.6246 0.2075,-1.99465 0.39695,-3.98921 0.50847,-5.99654 0.0811,-2.10677 0.15811,-4.29471 0.23926,-6.48252 -0.0811,-0.40514 -0.0823,-0.8136 -0.0823,-1.21871 -0.0811,-7.77895 -0.8904,-15.55549 -2.42998,-23.25336 -0.40515,-1.94473 -0.89079,-3.88742 -1.45801,-5.83203 -0.48619,-2.02577 -0.97309,-4.053 -1.54028,-6.07877 -0.97237,-2.83605 -1.93857,-5.6716 -3.07302,-8.42653 -0.40514,-1.05337 -0.81238,-2.10939 -1.13652,-3.16279 -1.62059,-3.8084 -3.4025,-7.44953 -5.42827,-11.09578 -1.94473,-3.64637 -4.0504,-7.1318 -6.40026,-10.53507 -2.34991,-3.40316 -4.78163,-6.64959 -7.45455,-9.80977 -0.13437,-0.15849 -0.2764,-0.30549 -0.41122,-0.46355 -0.0491,-0.0575 -0.093,-0.12212 -0.14204,-0.17955 -0.41118,-0.48086 -0.85296,-0.93167 -1.27107,-1.40564 -0.87027,-0.98879 -1.73977,-1.98289 -2.63936,-2.93845 -1.13923,-1.21097 -2.31426,-2.38241 -3.4992,-3.54408 -0.1562,-0.15274 -0.30664,-0.31161 -0.4636,-0.4636 -0.0117,-0.0117 -0.023,-0.0267 -0.0383,-0.0383 -1.14081,-1.10559 -2.31056,-2.1781 -3.49175,-3.23751 -0.38585,-0.34836 -0.76043,-0.70354 -1.15145,-1.04679 -3.04016,-2.6583 -6.21095,-5.15896 -9.49575,-7.50687 -1.32007,-0.94358 -2.66542,-1.85216 -4.0226,-2.74406 -0.36789,-0.24385 -0.72035,-0.49844 -1.09165,-0.74023 -0.0701,-0.0452 -0.14661,-0.0823 -0.21666,-0.12704 -3.62735,-2.31882 -7.37068,-4.46507 -11.2379,-6.40778 -0.67138,-0.32348 -1.37221,-0.58386 -2.04866,-0.89721 -2.7511,-1.329 -5.53294,-2.59736 -8.3742,-3.74597 -1.29649,-0.40514 -2.59157,-0.81479 -3.88804,-1.30098 -0.24845,-0.0866 -0.5062,-0.14701 -0.75518,-0.23161 -1.14593,-0.38867 -2.29008,-0.77666 -3.44688,-1.12901 -1.51107,-0.52029 -2.9736,-0.98461 -4.49362,-1.3907 -3.25754,-0.9203 -6.60044,-1.64116 -9.94437,-2.22068 -0.40315,-0.0919 -0.80814,-0.18183 -1.21129,-0.2917 -4.0515,-0.64827 -8.10722,-1.21492 -12.23977,-1.45801 -0.0773,-0.008 -0.15427,-0.008 -0.23199,-0.0153 -0.22738,-0.0191 -0.43599,-0.0306 -0.65048,-0.0895 -0.73567,-0.042 -1.47585,-0.0448 -2.2132,-0.0746 -1.0322,-0.0491 -2.06324,-0.0854 -3.09545,-0.10447 -0.44649,-0.008 -0.89163,-0.0191 -1.33838,-0.023 -0.40641,-0.004 -0.81234,-0.023 -1.21875,-0.023 z"
         style="fill:#4e505d;fill-opacity:1;fill-rule:nonzero;stroke:none"
         inkscape:connector-curvature="0" />
      <g
         transform="matrix(1,0,0,-1,-3.33211,1200.6255)"
         id="g4165">
        <path
           style="fill:#ffffff;fill-opacity:1;fill-rule:nonzero;stroke:none"
           d="m 486.5401,601.60288 c 0,9.52108 -7.77554,17.29662 -17.29663,17.29662 -9.52108,0 -17.217,-7.77554 -17.217,-17.29662 0,-9.52108 7.69592,-17.21697 17.217,-17.21697 9.52109,0 17.29663,7.69589 17.29663,17.21697 z"
           id="path4171-3"
           inkscape:connector-curvature="0" />
        <path
           inkscape:transform-center-y="-0.24862586"
           inkscape:transform-center-x="52.011723"
           style="fill:#ffffff;fill-opacity:1;fill-rule:nonzero;stroke:none"
           d="m 377.66406,594.99195 83.59424,-0.25973 c 4.38113,-0.0764 7.87489,2.84856 7.92363,6.38674 -0.009,3.59238 -3.53009,6.44852 -7.91125,6.52487 l -83.53621,0.2055 c -4.38117,0.0763 -7.87492,-2.84859 -7.92367,-6.3868 0.009,-3.59228 3.47586,-6.50636 7.85326,-6.47058 z"
           id="path4173"
           inkscape:connector-curvature="0" />
        <path
           inkscape:transform-center-y="31.126778"
           inkscape:transform-center-x="0.67292368"
           style="fill:#ffffff;fill-opacity:1;fill-rule:nonzero;stroke:none"
           d="m 469.32652,601.95957 c -4.39258,5.1e-4 -7.91767,3.99225 -7.92277,9.0627 l 0.024,42.82082 c 0.0694,5.04322 3.57389,9.08427 7.96646,9.08373 4.46712,-0.0277 7.9919,-4.01936 7.99701,-9.08981 l -0.0237,-42.82092 c -0.0694,-5.04322 -3.5739,-9.08428 -8.04102,-9.05652 z"
           id="path4175"
           inkscape:connector-curvature="0" />
      </g>
    </g>
  </g>
</svg>
