<?xml version="1.0" encoding="UTF-8" standalone="no"?>
<!-- Created with Inkscape (http://www.inkscape.org/) -->

<svg
   xmlns:dc="http://purl.org/dc/elements/1.1/"
   xmlns:cc="http://creativecommons.org/ns#"
   xmlns:rdf="http://www.w3.org/1999/02/22-rdf-syntax-ns#"
   xmlns:svg="http://www.w3.org/2000/svg"
   xmlns="http://www.w3.org/2000/svg"
   xmlns:sodipodi="http://sodipodi.sourceforge.net/DTD/sodipodi-0.dtd"
   xmlns:inkscape="http://www.inkscape.org/namespaces/inkscape"
   width="210mm"
   height="297mm"
   viewBox="0 0 744.09448819 1052.3622047"
   id="svg2"
   version="1.1"
   inkscape:version="0.91 r13725"
   sodipodi:docname="maintenance-time.svg"
   inkscape:export-filename="C:\Users\johannes\Documents\Arbeit\RRZE\bi-con\bi-con\scalable\documents\document.png"
   inkscape:export-xdpi="4"
   inkscape:export-ydpi="4">
  <defs
     id="defs4">
    <linearGradient
       id="linearGradient2224">
      <stop
         id="stop2226"
         offset="0"
         style="stop-color:#7c7c7c;stop-opacity:1;" />
      <stop
         id="stop2228"
         offset="1"
         style="stop-color:#b8b8b8;stop-opacity:1;" />
    </linearGradient>
    <linearGradient
       id="linearGradient15218">
      <stop
         id="stop15220"
         offset="0"
         style="stop-color:#eeeeef;stop-opacity:1;" />
      <stop
         id="stop2736"
         offset="0.59928656"
         style="stop-color:#d3d7cf;stop-opacity:1;" />
      <stop
         id="stop2738"
         offset="0.82758623"
         style="stop-color:#ffffff;stop-opacity:1;" />
      <stop
         id="stop15222"
         offset="1"
         style="stop-color:#d3d7cf;stop-opacity:1;" />
    </linearGradient>
    <pattern
       y="0"
       x="0"
       height="6"
       width="6"
       patternUnits="userSpaceOnUse"
       id="EMFhbasepattern" />
    <pattern
       y="0"
       x="0"
       height="6"
       width="6"
       patternUnits="userSpaceOnUse"
       id="EMFhbasepattern-5" />
  </defs>
  <sodipodi:namedview
     id="base"
     pagecolor="#ffffff"
     bordercolor="#666666"
     borderopacity="1.0"
     inkscape:pageopacity="0.0"
     inkscape:pageshadow="2"
     inkscape:zoom="0.70710678"
     inkscape:cx="244.28592"
     inkscape:cy="407.08963"
     inkscape:document-units="px"
     inkscape:current-layer="layer1"
     showgrid="false"
     showguides="true"
     inkscape:guide-bbox="true"
     inkscape:window-width="1366"
     inkscape:window-height="721"
     inkscape:window-x="-4"
     inkscape:window-y="-4"
     inkscape:window-maximized="1">
    <sodipodi:guide
       position="560,730.00002"
       orientation="0,1"
       id="guide3338" />
    <sodipodi:guide
       position="560,330.00001"
       orientation="0,1"
       id="guide3340" />
    <sodipodi:guide
       position="190,475.00001"
       orientation="1,0"
       id="guide3344" />
    <sodipodi:guide
       position="590,451.00001"
       orientation="1,0"
       id="guide3346" />
    <inkscape:grid
       type="xygrid"
       id="grid3440" />
  </sodipodi:namedview>
  <metadata
     id="metadata7">
    <rdf:RDF>
      <cc:Work
         rdf:about="">
        <dc:format>image/svg+xml</dc:format>
        <dc:type
           rdf:resource="http://purl.org/dc/dcmitype/StillImage" />
      </cc:Work>
    </rdf:RDF>
  </metadata>
  <g
     inkscape:label="Ebene 1"
     inkscape:groupmode="layer"
     id="layer1">
    <rect
       style="opacity:1;fill:none;fill-opacity:1;stroke:none;stroke-width:23;stroke-linecap:butt;stroke-linejoin:round;stroke-miterlimit:4;stroke-dasharray:none;stroke-opacity:1"
       id="rect4160"
       width="400"
       height="400"
       x="190"
       y="322.36221" />
    <g
       transform="matrix(1.9788288,0,0,1.9788288,-576.62722,-705.24584)"
       id="g4170">
      <path
         style="fill:#767e8d;fill-opacity:1;fill-rule:evenodd;stroke:none"
         d="m 589.50606,620.41458 c 0,55.81847 -45.24319,101.06166 -101.06166,101.06166 -55.81783,0 -101.06068,-45.24319 -101.06068,-101.06166 0,-55.81782 45.24285,-101.06069 101.06068,-101.06069 55.81847,0 101.06166,45.24287 101.06166,101.06069 z"
         id="path4174"
         inkscape:connector-curvature="0" />
      <path
         style="fill:#b6c92f;fill-opacity:1;fill-rule:evenodd;stroke:none"
         d="m 412.19174,554.10109 c 19.48068,-22.50221 47.94629,-35.30376 77.60442,-34.7472 l -1.03369,101.37876 z"
         id="path4176"
         inkscape:connector-curvature="0" />
      <path
         style="fill:#ffffff;fill-opacity:1;fill-rule:nonzero;stroke:none"
         d="m 502.83635,620.41458 c 0,7.95137 -6.44058,14.39195 -14.39195,14.39195 -8.03055,0 -14.47114,-6.44058 -14.47114,-14.39195 0,-8.0305 6.44059,-14.4711 14.47114,-14.4711 7.95137,0 14.39195,6.4406 14.39195,14.4711 z"
         id="path4178"
         inkscape:connector-curvature="0" />
      <path
         style="fill:#ffffff;fill-opacity:1;fill-rule:nonzero;stroke:none"
         d="m 439.22622,568.41341 45.7196,38.32518 c 4.21421,3.49862 5.24789,9.22325 2.30588,12.80136 -3.02149,3.49857 -8.82566,3.49857 -13.03989,-0.0796 L 428.57139,581.1354 c -4.29361,-3.5781 -5.32731,-9.22355 -2.30588,-12.80154 2.94202,-3.49863 8.74647,-3.49863 12.96071,0.0796 z"
         id="path4180"
         inkscape:connector-curvature="0" />
      <path
         style="fill:#ffffff;fill-opacity:1;fill-rule:nonzero;stroke:none"
         d="m 494.94525,617.09416 c -2.31935,-3.65343 -7.5948,-4.45904 -11.71118,-1.79217 l -36.21747,23.43353 c -4.11636,2.66684 -5.57323,7.74846 -3.25387,11.40189 2.43064,3.63803 7.59495,4.45919 11.82272,1.77695 l 36.16926,-23.37028 c 4.11638,-2.66687 5.57322,-7.74846 3.19054,-11.44992 z"
         id="path4182"
         inkscape:connector-curvature="0" />
      <path
         style="fill:#ffffff;fill-opacity:1;fill-rule:nonzero;stroke:none"
         d="m 494.64646,530.88325 c 0,3.18055 -2.62395,5.72498 -5.80447,5.72498 -3.18055,0 -5.80449,-2.54443 -5.80449,-5.72498 0,-3.18044 2.62394,-5.80438 5.80449,-5.80438 3.18052,0 5.80447,2.62394 5.80447,5.80438 z"
         id="path4184"
         inkscape:connector-curvature="0" />
      <path
         style="fill:#ffffff;fill-opacity:1;fill-rule:nonzero;stroke:none"
         d="m 583.70157,620.41458 c 0,3.18056 -2.54442,5.72498 -5.72497,5.72498 -3.26004,0 -5.8045,-2.54442 -5.8045,-5.72498 0,-3.26004 2.54446,-5.80445 5.8045,-5.80445 3.18055,0 5.72497,2.54441 5.72497,5.80445 z"
         id="path4186"
         inkscape:connector-curvature="0" />
      <path
         style="fill:#ffffff;fill-opacity:1;fill-rule:nonzero;stroke:none"
         d="m 403.28633,621.44828 c 0,3.18054 -2.62395,5.80449 -5.8045,5.80449 -3.18044,0 -5.80439,-2.62395 -5.80439,-5.80449 0,-3.18056 2.62395,-5.72498 5.80439,-5.72498 3.18055,0 5.8045,2.54442 5.8045,5.72498 z"
         id="path4188"
         inkscape:connector-curvature="0" />
      <path
         style="fill:#ffffff;fill-opacity:1;fill-rule:nonzero;stroke:none"
         d="m 495.4416,710.42386 c 0,3.18055 -2.54442,5.8045 -5.72497,5.8045 -3.18055,0 -5.80449,-2.62395 -5.80449,-5.8045 0,-3.18055 2.62394,-5.72497 5.80449,-5.72497 3.18055,0 5.72497,2.54442 5.72497,5.72497 z"
         id="path4190"
         inkscape:connector-curvature="0" />
    </g>
    <path
       style="color:#000000;font-style:normal;font-variant:normal;font-weight:normal;font-stretch:normal;font-size:medium;line-height:normal;font-family:sans-serif;text-indent:0;text-align:start;text-decoration:none;text-decoration-line:none;text-decoration-style:solid;text-decoration-color:#000000;letter-spacing:normal;word-spacing:normal;text-transform:none;direction:ltr;block-progression:tb;writing-mode:lr-tb;baseline-shift:baseline;text-anchor:start;white-space:normal;clip-rule:nonzero;display:inline;overflow:visible;visibility:visible;opacity:1;isolation:auto;mix-blend-mode:normal;color-interpolation:sRGB;color-interpolation-filters:linearRGB;solid-color:#000000;solid-opacity:1;fill:#ffffff;fill-opacity:1;fill-rule:nonzero;stroke:#5a6578;stroke-width:23;stroke-linecap:square;stroke-linejoin:round;stroke-miterlimit:4;stroke-dasharray:none;stroke-dashoffset:0;stroke-opacity:1;color-rendering:auto;image-rendering:auto;shape-rendering:auto;text-rendering:auto;enable-background:accumulate"
       d="m 458.27148,481.36133 a 15.0015,15.0015 0 0 0 -14.5664,11.49805 l 0.0176,-0.14649 -5.69532,22.70117 c -0.48983,0.20315 -0.97628,0.41037 -1.46289,0.6211 l -20.24023,-11.53711 a 15.0015,15.0015 0 0 0 -18.23828,2.63086 l -26.6836,27.73828 a 15.0015,15.0015 0 0 0 -1.87695,18.40429 l 11.54102,18.28711 -20.69141,5.15235 A 15.0015,15.0015 0 0 0 349,591.26562 l 0,38.4375 a 15.0015,15.0015 0 0 0 11.375,14.55469 l 23.36523,5.81836 c 0.16263,0.37266 0.31926,0.7465 0.48633,1.11719 l -11.54101,20.125 a 15.0015,15.0015 0 0 0 2.64843,18.30469 l 27.82422,26.59375 a 15.0015,15.0015 0 0 0 18.33203,1.86328 l 17.92774,-11.24024 4.8125,19.17383 a 15.0015,15.0015 0 0 0 14.54883,11.34766 l 38.54492,0 A 15.0015,15.0015 0 0 0 511.875,726.01172 l 5.76562,-22.98242 c 0.24901,-0.10609 0.49794,-0.21031 0.7461,-0.31836 l 20.38867,11.625 a 15.0015,15.0015 0 0 0 18.24023,-2.63477 l 26.68555,-27.74805 a 15.0015,15.0015 0 0 0 1.87305,-18.40039 l -11.07813,-17.55664 19.13086,-4.76757 A 15.0015,15.0015 0 0 0 605,628.67383 l 0,-38.42774 a 15.0015,15.0015 0 0 0 -11.375,-14.55664 l -21.97266,-5.4707 c -0.18589,-0.44673 -0.37611,-0.88994 -0.56836,-1.33398 l 11.11719,-19.39258 a 15.0015,15.0015 0 0 0 -2.64844,-18.30469 l -27.82421,-26.5918 a 15.0015,15.0015 0 0 0 -18.33399,-1.86328 l -16.86719,10.58008 -5.1582,-20.59375 a 15.0015,15.0015 0 0 0 -14.55078,-11.35742 l -38.54688,0 z m 11.70118,30 15.13867,0 4.77148,19.05273 a 15.0015,15.0015 0 0 0 9.84961,10.59961 c 3.23715,1.06856 6.39414,2.3644 9.44727,3.87695 a 15.0015,15.0015 0 0 0 14.6289,-0.73437 l 15.63282,-9.80469 10.89257,10.41016 -9.18554,16.02344 a 15.0015,15.0015 0 0 0 -0.20313,14.55664 c 2.07725,3.86814 3.79566,7.91669 5.13281,12.0957 a 15.0015,15.0015 0 0 0 10.66211,9.98438 L 575,601.96875 l 0,14.98437 -18.23438,4.54297 a 15.0015,15.0015 0 0 0 -10.62304,9.875 c -1.00201,3.05106 -2.20781,6.03277 -3.60938,8.92383 a 15.0015,15.0015 0 0 0 0.8125,14.54688 l 10.58985,16.7832 -10.44727,10.86328 -17.08398,-9.74023 a 15.0015,15.0015 0 0 0 -14.54492,-0.17383 c -3.7077,1.9981 -7.58516,3.67107 -11.58594,4.99609 a 15.0015,15.0015 0 0 0 -9.83399,10.58789 l -4.8164,19.20313 -15.14258,0 -4.67188,-18.61133 a 15.0015,15.0015 0 0 0 -9.96093,-10.63086 c -3.30608,-1.06222 -6.53021,-2.35867 -9.64844,-3.88281 a 15.0015,15.0015 0 0 0 -18.72656,4.68359 l -12.02735,7.54102 -10.89062,-10.40821 9.68945,-16.89843 a 15.0015,15.0015 0 0 0 0.084,-14.77344 c -2.11783,-3.79331 -3.8865,-7.77077 -5.28515,-11.88086 a 15.0015,15.0015 0 0 0 -11.39063,-9.875 L 379,617.98047 l 0,-14.99024 18.60938,-4.63476 a 15.0015,15.0015 0 0 0 10.67187,-10.00977 c 1.0938,-3.43988 2.44425,-6.79289 4.04297,-10.03125 a 15.0015,15.0015 0 0 0 -0.76367,-14.64453 l -10.39258,-16.4707 10.44336,-10.85742 16.90039,9.63476 a 15.0015,15.0015 0 0 0 14.51758,0.18946 c 3.89576,-2.08911 7.97762,-3.81831 12.1914,-5.16407 a 15.0015,15.0015 0 0 0 9.98438,-10.63867 l 4.76758,-19.00195 z"
       id="path4199"
       inkscape:connector-curvature="0" />
    <path
       inkscape:connector-curvature="0"
       id="path4197"
       d="m 458.27217,496.36341 -7.61578,30.34952 a 87.260188,86.990276 0 0 0 -14.7154,6.23303 l -27.04483,-15.41747 -26.68445,27.73782 16.66315,26.40777 a 87.260188,86.990276 0 0 0 -4.88892,12.12624 L 364,591.26633 l 0,38.43687 30.84299,7.67961 0,-0.0497 a 87.260188,86.990276 0 0 0 6.38869,14.35921 l -15.53351,27.08737 27.82393,26.59224 26.9085,-16.87377 -0.81809,-0.78645 a 87.260188,86.990276 0 0 0 11.64767,4.68933 l 7.5184,29.96119 38.54642,0 7.66448,-30.55343 a 87.260188,86.990276 0 0 0 13.98503,-6.02912 l 27.22985,15.5243 26.68446,-27.74757 -16.85796,-26.71845 a 87.260188,86.990276 0 0 0 4.363,-10.7864 L 590,628.67288 l 0,-38.42719 -29.63535,-7.37861 a 87.260188,86.990276 0 0 0 -6.20366,-14.62138 l 15.02705,-26.21359 -27.82392,-26.59224 -25.52556,16.00974 a 87.260188,86.990276 0 0 0 -11.40421,-4.67963 l -7.61576,-30.40778 -38.54642,0 z"
       style="opacity:1;fill:#abbe24;fill-opacity:1;stroke:#ffffff;stroke-width:30;stroke-linecap:square;stroke-linejoin:round;stroke-miterlimit:4;stroke-dasharray:none;stroke-opacity:1" />
    <path
       style="opacity:1;fill:#abbe24;fill-opacity:1;stroke:none;stroke-width:20.62700081;stroke-linecap:square;stroke-linejoin:miter;stroke-miterlimit:4;stroke-dasharray:none;stroke-opacity:1"
       d="m 458.27217,496.36341 -7.61578,30.34952 a 87.260188,86.990276 0 0 0 -14.7154,6.23303 l -27.04483,-15.41747 -26.68445,27.73782 16.66315,26.40777 a 87.260188,86.990276 0 0 0 -4.88892,12.12624 L 364,591.26633 l 0,38.43687 30.84299,7.67961 0,-0.0497 a 87.260188,86.990276 0 0 0 6.38869,14.35921 l -15.53351,27.08737 27.82393,26.59224 26.9085,-16.87377 -0.81809,-0.78645 a 87.260188,86.990276 0 0 0 11.64767,4.68933 l 7.5184,29.96119 38.54642,0 7.66448,-30.55343 a 87.260188,86.990276 0 0 0 13.98503,-6.02912 l 27.22985,15.5243 26.68446,-27.74757 -16.85796,-26.71845 a 87.260188,86.990276 0 0 0 4.363,-10.7864 L 590,628.67288 l 0,-38.42719 -29.63535,-7.37861 a 87.260188,86.990276 0 0 0 -6.20366,-14.62138 l 15.02705,-26.21359 -27.82392,-26.59224 -25.52556,16.00974 a 87.260188,86.990276 0 0 0 -11.40421,-4.67963 l -7.61576,-30.40778 -38.54642,0 z"
       id="path4172"
       inkscape:connector-curvature="0" />
    <path
       style="opacity:1;fill:#ffffff;fill-opacity:1;stroke:none;stroke-width:20.62700081;stroke-linecap:square;stroke-linejoin:miter;stroke-miterlimit:4;stroke-dasharray:none;stroke-opacity:1"
       id="path4304"
       sodipodi:type="arc"
       sodipodi:cx="475.23523"
       sodipodi:cy="612.88879"
       sodipodi:rx="34.355774"
       sodipodi:ry="33.810261"
       sodipodi:start="0"
       sodipodi:end="6.282867"
       d="m 509.591,612.88879 a 34.355774,33.810261 0 0 1 -34.35304,33.81026 34.355774,33.810261 0 0 1 -34.3585,-33.80488 34.355774,33.810261 0 0 1 34.34757,-33.81564 34.355774,33.810261 0 0 1 34.36397,33.7995 l -34.35577,0.0108 z" />
  </g>
</svg>
