<?xml version="1.0" encoding="UTF-8" standalone="no"?>
<!-- Created with Inkscape (http://www.inkscape.org/) -->

<svg
   xmlns:dc="http://purl.org/dc/elements/1.1/"
   xmlns:cc="http://creativecommons.org/ns#"
   xmlns:rdf="http://www.w3.org/1999/02/22-rdf-syntax-ns#"
   xmlns:svg="http://www.w3.org/2000/svg"
   xmlns="http://www.w3.org/2000/svg"
   xmlns:xlink="http://www.w3.org/1999/xlink"
   xmlns:sodipodi="http://sodipodi.sourceforge.net/DTD/sodipodi-0.dtd"
   xmlns:inkscape="http://www.inkscape.org/namespaces/inkscape"
   width="210mm"
   height="297mm"
   viewBox="0 0 744.09448819 1052.3622047"
   id="svg2"
   version="1.1"
   inkscape:version="0.91 r13725"
   inkscape:export-xdpi="4"
   inkscape:export-ydpi="4"
   sodipodi:docname="maintenance-time.svg">
  <title
     id="title4162">maintenance time</title>
  <defs
     id="defs4">
    <linearGradient
       id="linearGradient2224">
      <stop
         id="stop2226"
         offset="0"
         style="stop-color:#7c7c7c;stop-opacity:1;" />
      <stop
         id="stop2228"
         offset="1"
         style="stop-color:#b8b8b8;stop-opacity:1;" />
    </linearGradient>
    <linearGradient
       id="linearGradient15218">
      <stop
         id="stop15220"
         offset="0"
         style="stop-color:#eeeeef;stop-opacity:1;" />
      <stop
         id="stop2736"
         offset="0.59928656"
         style="stop-color:#d3d7cf;stop-opacity:1;" />
      <stop
         id="stop2738"
         offset="0.82758623"
         style="stop-color:#ffffff;stop-opacity:1;" />
      <stop
         id="stop15222"
         offset="1"
         style="stop-color:#d3d7cf;stop-opacity:1;" />
    </linearGradient>
    <pattern
       y="0"
       x="0"
       height="6"
       width="6"
       patternUnits="userSpaceOnUse"
       id="EMFhbasepattern" />
    <pattern
       y="0"
       x="0"
       height="6"
       width="6"
       patternUnits="userSpaceOnUse"
       id="EMFhbasepattern-5" />
    <linearGradient
       inkscape:collect="always"
       xlink:href="#linearGradient4256"
       id="linearGradient4262"
       x1="317"
       y1="696.36218"
       x2="506"
       y2="379.36221"
       gradientUnits="userSpaceOnUse"
       gradientTransform="matrix(0.93474884,0,0,0.9349831,25.23762,33.125996)" />
    <linearGradient
       inkscape:collect="always"
       id="linearGradient4256">
      <stop
         style="stop-color:#4e505d;stop-opacity:1;"
         offset="0"
         id="stop4258" />
      <stop
         style="stop-color:#7a859c;stop-opacity:1"
         offset="1"
         id="stop4260" />
    </linearGradient>
  </defs>
  <sodipodi:namedview
     id="base"
     pagecolor="#ffffff"
     bordercolor="#666666"
     borderopacity="1.0"
     inkscape:pageopacity="0.0"
     inkscape:pageshadow="2"
     inkscape:zoom="1.4142136"
     inkscape:cx="495.91136"
     inkscape:cy="458.64713"
     inkscape:document-units="px"
     inkscape:current-layer="layer1"
     showgrid="false"
     showguides="true"
     inkscape:guide-bbox="true"
     inkscape:window-width="1600"
     inkscape:window-height="837"
     inkscape:window-x="-4"
     inkscape:window-y="-4"
     inkscape:window-maximized="1"
     inkscape:snap-bbox="true"
     inkscape:bbox-paths="true"
     inkscape:bbox-nodes="true">
    <sodipodi:guide
       position="560,730.00002"
       orientation="0,1"
       id="guide3338" />
    <sodipodi:guide
       position="560,330.00001"
       orientation="0,1"
       id="guide3340" />
    <sodipodi:guide
       position="190,475.00001"
       orientation="1,0"
       id="guide3344" />
    <sodipodi:guide
       position="590,451.00001"
       orientation="1,0"
       id="guide3346" />
    <inkscape:grid
       type="xygrid"
       id="grid3440" />
  </sodipodi:namedview>
  <metadata
     id="metadata7">
    <rdf:RDF>
      <cc:Work
         rdf:about="">
        <dc:format>image/svg+xml</dc:format>
        <dc:type
           rdf:resource="http://purl.org/dc/dcmitype/StillImage" />
        <dc:title>maintenance time</dc:title>
        <dc:date>June 2015</dc:date>
        <dc:creator>
          <cc:Agent>
            <dc:title>Johannes Hechler</dc:title>
          </cc:Agent>
        </dc:creator>
        <dc:rights>
          <cc:Agent>
            <dc:title>Johannes Hechler</dc:title>
          </cc:Agent>
        </dc:rights>
        <dc:publisher>
          <cc:Agent>
            <dc:title>RRZE</dc:title>
          </cc:Agent>
        </dc:publisher>
        <dc:contributor>
          <cc:Agent>
            <dc:title>Ute Weber, Hendrik Eggers</dc:title>
          </cc:Agent>
        </dc:contributor>
      </cc:Work>
    </rdf:RDF>
  </metadata>
  <g
     inkscape:label="Ebene 1"
     inkscape:groupmode="layer"
     id="layer1">
    <g
       id="g4232">
      <flowRoot
         transform="translate(0.89817086,0.17861667)"
         style="font-style:normal;font-weight:normal;font-size:40px;line-height:125%;font-family:sans-serif;letter-spacing:0px;word-spacing:0px;fill:#252525;fill-opacity:1;stroke:none;stroke-width:1px;stroke-linecap:butt;stroke-linejoin:miter;stroke-opacity:1"
         id="flowRoot4169"
         xml:space="preserve"><flowRegion
           id="flowRegion4171"><rect
             y="427.07962"
             x="89.541069"
             height="88.78862"
             width="56.433445"
             id="rect4173" /></flowRegion><flowPara
           id="flowPara4175" /></flowRoot>      <path
         id="path4188"
         d="M 388.94336 334.36523 A 186.94652 186.99337 0 0 0 388.91406 334.36914 A 186.94652 186.99337 0 0 0 384.48438 334.62305 A 186.94652 186.99337 0 0 0 378.41797 334.66211 A 186.94652 186.99337 0 0 0 372.17773 335.32812 A 186.94652 186.99337 0 0 0 366.27734 335.91016 A 186.94652 186.99337 0 0 0 364.40625 336.1582 A 186.94652 186.99337 0 0 0 359.83984 336.64453 A 186.94652 186.99337 0 0 0 359.83594 336.64648 A 186.94652 186.99337 0 0 0 346.8457 339.16992 A 186.94652 186.99337 0 0 0 325.07422 345.79102 A 186.94652 186.99337 0 0 0 319.01172 348.06836 L 319.03711 348.18164 A 186.94652 186.99337 0 0 0 312.76758 351.08594 A 186.94652 186.99337 0 0 0 306.41992 353.83203 L 306.41992 353.69727 A 186.94652 186.99337 0 0 0 304.66602 354.67578 A 186.94652 186.99337 0 0 0 292.07812 361.70117 A 186.94652 186.99337 0 0 0 288.80078 363.71094 A 186.94652 186.99337 0 0 0 276.22266 372.48047 A 186.94652 186.99337 0 0 0 273.82812 374.30469 A 186.94652 186.99337 0 0 0 272.14648 375.74609 A 186.94652 186.99337 0 0 0 270.81641 376.72461 L 270.78711 376.5957 A 186.94652 186.99337 0 0 0 269.29492 377.94922 A 186.94652 186.99337 0 0 0 264.31055 382.4668 A 186.94652 186.99337 0 0 0 261.52539 384.85352 A 186.94652 186.99337 0 0 0 259.98828 386.28711 A 186.94652 186.99337 0 0 0 259.31836 386.99023 A 186.94652 186.99337 0 0 0 258.62695 387.61719 A 186.94652 186.99337 0 0 0 255.87109 390.32422 A 186.94652 186.99337 0 0 0 253.48438 392.9668 L 253.50977 393.07812 A 186.94652 186.99337 0 0 0 248.19531 398.65039 A 186.94652 186.99337 0 0 0 247.36523 399.5918 A 186.94652 186.99337 0 0 0 236.43945 413.61719 A 186.94652 186.99337 0 0 0 236.05078 414.16211 A 186.94652 186.99337 0 0 0 226.25195 429.72656 A 186.94652 186.99337 0 0 0 226.22852 429.76367 A 186.94652 186.99337 0 0 0 214.15625 456.21875 L 214.14453 456.22266 A 186.94652 186.99337 0 0 0 214.01953 456.58203 A 186.94652 186.99337 0 0 0 210.36719 467.08398 A 186.94652 186.99337 0 0 0 209.79297 468.73242 A 186.94652 186.99337 0 0 0 209.78711 468.74805 A 186.94652 186.99337 0 0 0 209.7832 468.76562 A 186.94652 186.99337 0 0 0 208.71289 473.19922 A 186.94652 186.99337 0 0 0 205.78516 485.33789 A 186.94652 186.99337 0 0 0 205.6875 485.74609 L 205.70508 485.82422 A 186.94652 186.99337 0 0 0 202.35156 511.56836 A 186.94652 186.99337 0 0 0 202.00391 521.35938 A 186.94652 186.99337 0 0 0 204.37305 549.51953 A 186.94652 186.99337 0 0 0 204.93555 553.85156 A 186.94652 186.99337 0 0 0 205.34375 555.95117 A 186.94652 186.99337 0 0 0 206.19141 560.31055 A 186.94652 186.99337 0 0 0 206.80469 563.4707 A 186.94652 186.99337 0 0 0 207.31445 565.27148 A 186.94652 186.99337 0 0 0 208.41797 569.03906 A 186.94652 186.99337 0 0 0 211.78711 580.55469 A 186.94652 186.99337 0 0 0 214.81055 588.83398 A 186.94652 186.99337 0 0 0 216.76172 594.17969 A 186.94652 186.99337 0 0 0 217.72656 596.14453 A 186.94652 186.99337 0 0 0 218.80078 598.83203 A 186.94652 186.99337 0 0 0 222.99805 606.95703 A 186.94652 186.99337 0 0 0 223.99805 608.88867 A 186.94652 186.99337 0 0 0 225.4043 611.60742 A 186.94652 186.99337 0 0 0 227.38086 615.42969 A 186.94652 186.99337 0 0 0 231.13477 621.19727 A 186.94652 186.99337 0 0 0 234.65625 626.94336 A 186.94652 186.99337 0 0 0 234.65625 626.94727 A 186.94652 186.99337 0 0 0 236.18555 628.95898 A 186.94652 186.99337 0 0 0 237.57617 631.09375 A 186.94652 186.99337 0 0 0 237.58008 631.09961 A 186.94652 186.99337 0 0 0 241.86328 636.42773 A 186.94652 186.99337 0 0 0 245.96484 641.82617 A 186.94652 186.99337 0 0 0 247.69336 643.68164 A 186.94652 186.99337 0 0 0 249.28516 645.66211 A 186.94652 186.99337 0 0 0 249.29297 645.66992 A 186.94652 186.99337 0 0 0 254.08984 650.55078 A 186.94652 186.99337 0 0 0 257.83008 654.56641 A 186.94652 186.99337 0 0 0 258.70117 655.50195 A 186.94652 186.99337 0 0 0 258.70508 655.50586 A 186.94652 186.99337 0 0 0 260.59375 657.16406 A 186.94652 186.99337 0 0 0 262.39258 658.99219 A 186.94652 186.99337 0 0 0 262.39648 658.99219 A 186.94652 186.99337 0 0 0 267.625 663.34375 A 186.94652 186.99337 0 0 0 274.80859 669.31836 A 186.94652 186.99337 0 0 0 276.75977 670.94141 A 186.94652 186.99337 0 0 0 276.76562 670.94531 A 186.94652 186.99337 0 0 0 282.41016 674.75586 A 186.94652 186.99337 0 0 0 287.94531 678.71289 A 186.94652 186.99337 0 0 0 290.14453 679.97656 A 186.94652 186.99337 0 0 0 292.25195 681.39844 A 186.94652 186.99337 0 0 0 292.25586 681.40039 A 186.94652 186.99337 0 0 0 298.23242 684.61719 A 186.94652 186.99337 0 0 0 304.1543 688.01367 A 186.94652 186.99337 0 0 0 304.1582 688.01367 A 186.94652 186.99337 0 0 0 306.46484 689.04883 A 186.94652 186.99337 0 0 0 308.70898 690.25586 A 186.94652 186.99337 0 0 0 308.71289 690.25586 A 186.94652 186.99337 0 0 0 315.00195 692.86914 A 186.94652 186.99337 0 0 0 321.21289 695.65039 A 186.94652 186.99337 0 0 0 323.60547 696.44531 A 186.94652 186.99337 0 0 0 325.9668 697.42578 A 186.94652 186.99337 0 0 0 325.9707 697.42383 A 186.94652 186.99337 0 0 0 332.42969 699.37891 A 186.94652 186.99337 0 0 0 341.44922 702.10742 A 186.94652 186.99337 0 0 0 343.85352 702.83398 A 186.94652 186.99337 0 0 0 343.86133 702.83789 A 186.94652 186.99337 0 0 0 350.52148 704.14258 A 186.94652 186.99337 0 0 0 357.17969 705.63867 A 186.94652 186.99337 0 0 0 359.71094 705.94531 A 186.94652 186.99337 0 0 0 362.19531 706.43359 A 186.94652 186.99337 0 0 0 362.19922 706.43164 A 186.94652 186.99337 0 0 0 368.38086 707.01367 A 186.94652 186.99337 0 0 0 368.64062 707.0293 A 186.94652 186.99337 0 0 0 375.72852 707.89062 A 186.94652 186.99337 0 0 0 375.73242 707.89062 A 186.94652 186.99337 0 0 0 388.95508 708.35938 A 186.94652 186.99337 0 0 0 391.1875 708.23242 L 373.60742 691.43164 A 17.50175 17.50175 0 0 1 370.51758 670.07422 L 380.91211 651.94922 L 359.77148 646.68555 A 17.50175 17.50175 0 0 1 346.5 629.70312 L 346.5 591.26562 A 17.50175 17.50175 0 0 1 359.77148 574.28516 L 377.10547 569.96875 L 367.41211 554.60547 A 17.50175 17.50175 0 0 1 369.59961 533.13281 L 396.28516 505.39648 A 17.50175 17.50175 0 0 1 417.5625 502.32617 L 436.08398 512.88477 L 441.29883 492.10352 L 441.27734 492.27344 A 17.50175 17.50175 0 0 1 458.27148 478.86133 L 496.81836 478.86133 A 17.50175 17.50175 0 0 1 513.79492 492.11133 L 518.11523 509.36523 L 532.06641 500.61523 A 17.50175 17.50175 0 0 1 553.45508 502.78906 L 575.80273 524.14844 A 186.94652 186.99337 0 0 0 575.90234 521.36914 A 186.94652 186.99337 0 0 0 575.80859 519.49805 A 186.94652 186.99337 0 0 0 574.03516 496.29688 A 186.94652 186.99337 0 0 0 572.96484 488.86914 A 186.94652 186.99337 0 0 0 572.61523 487.06641 A 186.94652 186.99337 0 0 0 572.17578 484.21094 A 186.94652 186.99337 0 0 0 571.69727 482.33398 A 186.94652 186.99337 0 0 0 571.09961 479.25 A 186.94652 186.99337 0 0 0 569.25977 472.78516 A 186.94652 186.99337 0 0 0 567.55273 466.10742 A 186.94652 186.99337 0 0 0 566.67969 463.71094 A 186.94652 186.99337 0 0 0 563.48438 454.95312 A 186.94652 186.99337 0 0 0 562.875 453.28516 A 186.94652 186.99337 0 0 0 561.14648 448.54883 A 186.94652 186.99337 0 0 0 561.14258 448.54297 A 186.94652 186.99337 0 0 0 560.04297 446.26367 A 186.94652 186.99337 0 0 0 555.9668 437.82617 A 186.94652 186.99337 0 0 0 553.01758 431.7168 A 186.94652 186.99337 0 0 0 553.01367 431.71094 A 186.94652 186.99337 0 0 0 551.68555 429.54297 A 186.94652 186.99337 0 0 0 546.83984 421.63477 A 186.94652 186.99337 0 0 0 543.25195 415.7793 A 186.94652 186.99337 0 0 0 543.24805 415.77734 A 186.94652 186.99337 0 0 0 541.70703 413.75 A 186.94652 186.99337 0 0 0 540.32422 411.62695 A 186.94652 186.99337 0 0 0 536.94922 407.48828 A 186.94652 186.99337 0 0 0 531.94141 400.89844 A 186.94652 186.99337 0 0 0 531.9375 400.89453 A 186.94652 186.99337 0 0 0 528.96484 397.70312 A 186.94652 186.99337 0 0 0 526.41406 394.96484 A 186.94652 186.99337 0 0 0 519.20312 387.2207 A 186.94652 186.99337 0 0 0 519.19922 387.21875 A 186.94652 186.99337 0 0 0 517.27148 385.52539 A 186.94652 186.99337 0 0 0 515.50977 383.73438 A 186.94652 186.99337 0 0 0 515.50781 383.73047 A 186.94652 186.99337 0 0 0 510.28516 379.38672 A 186.94652 186.99337 0 0 0 505.16211 374.88477 A 186.94652 186.99337 0 0 0 505.1582 374.88281 A 186.94652 186.99337 0 0 0 503.0957 373.4082 A 186.94652 186.99337 0 0 0 501.14258 371.7832 A 186.94652 186.99337 0 0 0 495.52539 367.99219 A 186.94652 186.99337 0 0 0 489.96094 364.00977 A 186.94652 186.99337 0 0 0 489.95703 364.00977 A 186.94652 186.99337 0 0 0 487.75781 362.74805 A 186.94652 186.99337 0 0 0 486.71094 362.04102 A 186.94652 186.99337 0 0 0 485.65234 361.32617 A 186.94652 186.99337 0 0 0 485.64844 361.32422 A 186.94652 186.99337 0 0 0 479.64844 358.09375 A 186.94652 186.99337 0 0 0 473.75195 354.71094 A 186.94652 186.99337 0 0 0 473.74609 354.70703 A 186.94652 186.99337 0 0 0 471.42773 353.66992 A 186.94652 186.99337 0 0 0 462.90234 349.85352 A 186.94652 186.99337 0 0 0 456.69336 347.07422 A 186.94652 186.99337 0 0 0 456.68945 347.07422 A 186.94652 186.99337 0 0 0 454.29688 346.27734 A 186.94652 186.99337 0 0 0 451.93555 345.29688 A 186.94652 186.99337 0 0 0 434.04883 339.88867 A 186.94652 186.99337 0 0 0 434.04492 339.88867 A 186.94652 186.99337 0 0 0 427.76953 338.6582 A 186.94652 186.99337 0 0 0 424.81641 338.00586 A 186.94652 186.99337 0 0 0 420.72461 337.08594 A 186.94652 186.99337 0 0 0 420.7207 337.08594 A 186.94652 186.99337 0 0 0 418.19141 336.7793 A 186.94652 186.99337 0 0 0 415.70703 336.29102 A 186.94652 186.99337 0 0 0 408.94922 335.65625 A 186.94652 186.99337 0 0 0 402.17578 334.83398 A 186.94652 186.99337 0 0 0 402.16797 334.83398 A 186.94652 186.99337 0 0 0 399.00391 334.72266 A 186.94652 186.99337 0 0 0 394.43945 334.56055 A 186.94652 186.99337 0 0 0 388.95117 334.36523 L 388.94922 334.36523 L 388.94531 334.36523 L 388.94336 334.36523 z M 471.92383 513.86133 L 467.63086 530.97266 A 17.50175 17.50175 0 0 1 455.98047 543.38281 C 451.91207 544.68214 447.97208 546.35222 444.21094 548.36914 A 17.50175 17.50175 0 0 1 427.27344 548.14844 L 412.06445 539.47852 L 404.32617 547.51953 L 413.67578 562.33594 A 17.50175 17.50175 0 0 1 414.56641 579.41992 C 413.0233 582.54565 411.71978 585.78341 410.66406 589.10352 A 17.50175 17.50175 0 0 1 398.21484 600.78125 L 381.5 604.94336 L 381.5 616.02539 L 398.29492 620.20703 A 17.50175 17.50175 0 0 1 411.41016 631.69531 C 412.76011 635.6623 414.46751 639.50067 416.51172 643.16211 A 17.50175 17.50175 0 0 1 416.41211 660.39844 L 407.69727 675.59766 L 415.76562 683.30859 L 425.79492 677.01953 A 17.50175 17.50175 0 0 1 447.29688 671.99023 C 450.30739 673.46173 453.42128 674.71467 456.61328 675.74023 A 17.50175 17.50175 0 0 1 468.23438 688.14258 L 468.72266 690.08984 A 186.94652 186.99337 0 0 0 471.48828 688.89453 L 471.48828 689.02734 A 186.94652 186.99337 0 0 0 473.24805 688.04492 A 186.94652 186.99337 0 0 0 475.05469 687.03711 A 186.94652 186.99337 0 0 0 478.00977 685.38867 A 186.94652 186.99337 0 0 0 485.81836 681.0293 A 186.94652 186.99337 0 0 0 489.11133 679.01172 A 186.94652 186.99337 0 0 0 490.90625 677.75977 A 186.94652 186.99337 0 0 0 507.08789 665.99609 L 507.11719 666.12695 A 186.94652 186.99337 0 0 0 508.60547 664.77734 A 186.94652 186.99337 0 0 0 519.28906 655.09766 A 186.94652 186.99337 0 0 0 522.03125 652.40039 A 186.94652 186.99337 0 0 0 532.30859 641.02344 A 186.94652 186.99337 0 0 0 534.23438 638.70703 A 186.94652 186.99337 0 0 0 543.8418 625.6582 A 186.94652 186.99337 0 0 0 545.01758 623.91602 A 186.94652 186.99337 0 0 0 548.66211 617.76172 A 186.94652 186.99337 0 0 0 551.66016 612.99805 A 186.94652 186.99337 0 0 0 551.66797 612.98438 A 186.94652 186.99337 0 0 0 551.67578 612.96875 A 186.94652 186.99337 0 0 0 552.63477 611.05273 A 186.94652 186.99337 0 0 0 553.72461 609.21289 A 186.94652 186.99337 0 0 0 554.31836 608.10742 A 186.94652 186.99337 0 0 0 557.05664 602.21289 A 186.94652 186.99337 0 0 0 558.00586 600.31445 L 556.13672 599.84961 A 17.50175 17.50175 0 0 1 543.69727 588.20117 C 542.40667 584.16768 540.74917 580.25904 538.74414 576.52539 A 17.50175 17.50175 0 0 1 538.97852 559.54297 L 547.19141 545.2168 L 539.12109 537.50391 L 525.13672 546.27539 A 17.50175 17.50175 0 0 1 508.07031 547.13086 C 505.12266 545.67056 502.07466 544.42036 498.94922 543.38867 A 17.50175 17.50175 0 0 1 487.45898 531.02148 L 483.16016 513.86133 L 471.92383 513.86133 z "
         style="opacity:1;fill:url(#linearGradient4262);fill-opacity:1;stroke:none;stroke-width:16;stroke-linecap:round;stroke-linejoin:round;stroke-miterlimit:4;stroke-dasharray:none;stroke-opacity:1" />
      <path
         id="path4190"
         d="M 284.16602 419.35742 C 281.71547 419.45324 279.44366 420.38323 277.79883 422.16992 C 274.03921 426.25379 275.0159 433.22871 279.98828 437.80859 L 363.18945 514.44336 A 26.706642 26.713335 0 0 0 362.24609 521.35938 A 26.706642 26.713335 0 0 0 364.07422 531.07031 L 325.57812 571.88672 C 320.23102 577.55616 319.92581 585.8954 324.89453 590.58398 C 329.86325 595.27257 338.16852 594.48194 343.51562 588.8125 L 348.11328 583.9375 A 17.50175 17.50175 0 0 1 355.7168 575.87695 L 370.76562 559.91992 L 367.41211 554.60547 A 17.50175 17.50175 0 0 1 369.59961 533.13281 L 396.28516 505.39648 A 17.50175 17.50175 0 0 1 405.47656 500.37695 A 26.706642 26.713335 0 0 0 388.95312 494.64648 A 26.706642 26.713335 0 0 0 375.35547 498.4043 L 293.56055 423.06445 C 290.76358 420.48827 287.31672 419.23423 284.16602 419.35742 z "
         style="opacity:1;fill:#ffffff;fill-opacity:1;stroke:none;stroke-width:16;stroke-linecap:round;stroke-linejoin:round;stroke-miterlimit:4;stroke-dasharray:none;stroke-opacity:1" />
      <path
         inkscape:connector-curvature="0"
         id="rect4209"
         d="m 206.31452,322.3622 367.43288,0 c 9.00394,0 16.2526,7.24866 16.2526,16.2526 l 0,367.4948 c 0,9.00394 -7.24866,16.2526 -16.2526,16.2526 l -367.43288,0 c -9.00394,0 -16.2526,-7.24866 -16.2526,-16.2526 l 0,-367.4948 c 0,-9.00394 7.24866,-16.2526 16.2526,-16.2526 z"
         style="color:#000000;clip-rule:nonzero;display:inline;overflow:visible;visibility:visible;opacity:1;isolation:auto;mix-blend-mode:normal;color-interpolation:sRGB;color-interpolation-filters:linearRGB;solid-color:#000000;solid-opacity:1;fill:none;fill-opacity:1;fill-rule:nonzero;stroke:none;stroke-width:5;stroke-linecap:square;stroke-linejoin:round;stroke-miterlimit:4;stroke-dasharray:none;stroke-dashoffset:0;stroke-opacity:1;color-rendering:auto;image-rendering:auto;shape-rendering:auto;text-rendering:auto;enable-background:accumulate" />
      <path
         inkscape:connector-curvature="0"
         id="path4172"
         d="m 458.27217,496.36341 -7.61578,30.34952 a 87.260188,86.990276 0 0 0 -14.7154,6.23303 l -27.04483,-15.41747 -26.68445,27.73782 16.66315,26.40777 a 87.260188,86.990276 0 0 0 -4.88892,12.12624 L 364,591.26633 l 0,38.43687 30.84299,7.67961 0,-0.0497 a 87.260188,86.990276 0 0 0 6.38869,14.35921 l -15.53351,27.08737 27.82393,26.59224 26.9085,-16.87377 -0.81809,-0.78645 a 87.260188,86.990276 0 0 0 11.64767,4.68933 l 7.5184,29.96119 38.54642,0 7.66448,-30.55343 a 87.260188,86.990276 0 0 0 13.98503,-6.02912 l 27.22985,15.5243 26.68446,-27.74757 -16.85796,-26.71845 a 87.260188,86.990276 0 0 0 4.363,-10.7864 L 590,628.67288 l 0,-38.42719 -29.63535,-7.37861 a 87.260188,86.990276 0 0 0 -6.20366,-14.62138 l 15.02705,-26.21359 -27.82392,-26.59224 -25.52556,16.00974 a 87.260188,86.990276 0 0 0 -11.40421,-4.67963 l -7.61576,-30.40778 -38.54642,0 z"
         style="opacity:1;fill:#99b000;fill-opacity:1;stroke:none;stroke-width:20.62700081;stroke-linecap:square;stroke-linejoin:miter;stroke-miterlimit:4;stroke-dasharray:none;stroke-opacity:1" />
      <path
         d="m 509.591,612.88879 a 34.355774,33.810261 0 0 1 -34.35304,33.81026 34.355774,33.810261 0 0 1 -34.3585,-33.80488 34.355774,33.810261 0 0 1 34.34757,-33.81564 34.355774,33.810261 0 0 1 34.36397,33.7995 l -34.35577,0.0108 z"
         sodipodi:end="6.282867"
         sodipodi:start="0"
         sodipodi:ry="33.810261"
         sodipodi:rx="34.355774"
         sodipodi:cy="612.88879"
         sodipodi:cx="475.23523"
         sodipodi:type="arc"
         id="path4304"
         style="opacity:1;fill:#ffffff;fill-opacity:1;stroke:none;stroke-width:20.62700081;stroke-linecap:square;stroke-linejoin:miter;stroke-miterlimit:4;stroke-dasharray:none;stroke-opacity:1" />
    </g>
  </g>
</svg>
