<?xml version="1.0" encoding="UTF-8" standalone="no"?>
<!-- Created with Inkscape (http://www.inkscape.org/) -->

<svg
   xmlns:dc="http://purl.org/dc/elements/1.1/"
   xmlns:cc="http://creativecommons.org/ns#"
   xmlns:rdf="http://www.w3.org/1999/02/22-rdf-syntax-ns#"
   xmlns:svg="http://www.w3.org/2000/svg"
   xmlns="http://www.w3.org/2000/svg"
   xmlns:sodipodi="http://sodipodi.sourceforge.net/DTD/sodipodi-0.dtd"
   xmlns:inkscape="http://www.inkscape.org/namespaces/inkscape"
   width="210mm"
   height="297mm"
   viewBox="0 0 744.09448819 1052.3622047"
   id="svg2"
   version="1.1"
   inkscape:version="0.91 r13725"
   inkscape:export-xdpi="4"
   inkscape:export-ydpi="4"
   sodipodi:docname="temporarily-not-available-clock.svg">
  <defs
     id="defs4">
    <linearGradient
       id="linearGradient2224">
      <stop
         id="stop2226"
         offset="0"
         style="stop-color:#7c7c7c;stop-opacity:1;" />
      <stop
         id="stop2228"
         offset="1"
         style="stop-color:#b8b8b8;stop-opacity:1;" />
    </linearGradient>
    <linearGradient
       id="linearGradient15218">
      <stop
         id="stop15220"
         offset="0"
         style="stop-color:#eeeeef;stop-opacity:1;" />
      <stop
         id="stop2736"
         offset="0.59928656"
         style="stop-color:#d3d7cf;stop-opacity:1;" />
      <stop
         id="stop2738"
         offset="0.82758623"
         style="stop-color:#ffffff;stop-opacity:1;" />
      <stop
         id="stop15222"
         offset="1"
         style="stop-color:#d3d7cf;stop-opacity:1;" />
    </linearGradient>
    <pattern
       y="0"
       x="0"
       height="6"
       width="6"
       patternUnits="userSpaceOnUse"
       id="EMFhbasepattern" />
    <pattern
       y="0"
       x="0"
       height="6"
       width="6"
       patternUnits="userSpaceOnUse"
       id="EMFhbasepattern-5" />
    <pattern
       y="0"
       x="0"
       height="6"
       width="6"
       patternUnits="userSpaceOnUse"
       id="EMFhbasepattern-7" />
  </defs>
  <sodipodi:namedview
     id="base"
     pagecolor="#ffffff"
     bordercolor="#666666"
     borderopacity="1.0"
     inkscape:pageopacity="0.0"
     inkscape:pageshadow="2"
     inkscape:zoom="0.70710678"
     inkscape:cx="441.0967"
     inkscape:cy="483.37804"
     inkscape:document-units="px"
     inkscape:current-layer="layer1"
     showgrid="false"
     showguides="true"
     inkscape:guide-bbox="true"
     inkscape:window-width="1366"
     inkscape:window-height="721"
     inkscape:window-x="-4"
     inkscape:window-y="-4"
     inkscape:window-maximized="1">
    <sodipodi:guide
       position="560,730.00002"
       orientation="0,1"
       id="guide3338" />
    <sodipodi:guide
       position="560,330.00001"
       orientation="0,1"
       id="guide3340" />
    <sodipodi:guide
       position="190,475.00001"
       orientation="1,0"
       id="guide3344" />
    <sodipodi:guide
       position="590,451.00001"
       orientation="1,0"
       id="guide3346" />
    <inkscape:grid
       type="xygrid"
       id="grid3440" />
  </sodipodi:namedview>
  <metadata
     id="metadata7">
    <rdf:RDF>
      <cc:Work
         rdf:about="">
        <dc:format>image/svg+xml</dc:format>
        <dc:type
           rdf:resource="http://purl.org/dc/dcmitype/StillImage" />
        <dc:title>temporarily not available clock</dc:title>
        <dc:date>June 2015</dc:date>
        <dc:creator>
          <cc:Agent>
            <dc:title>Johannes Hechler</dc:title>
          </cc:Agent>
        </dc:creator>
        <dc:rights>
          <cc:Agent>
            <dc:title>Johannes Hechler</dc:title>
          </cc:Agent>
        </dc:rights>
        <dc:publisher>
          <cc:Agent>
            <dc:title>RRZE</dc:title>
          </cc:Agent>
        </dc:publisher>
        <dc:contributor>
          <cc:Agent>
            <dc:title>Ute Weber, Hendrik Eggers</dc:title>
          </cc:Agent>
        </dc:contributor>
      </cc:Work>
    </rdf:RDF>
  </metadata>
  <g
     inkscape:label="Ebene 1"
     inkscape:groupmode="layer"
     id="layer1">
    <path
       inkscape:connector-curvature="0"
       id="path3359"
       d="m 486.97,478.89862 c 0,-77.9907 -63.20443,-141.19493 -141.19455,-141.19493 -77.98973,0 -141.19491,63.20423 -141.19491,141.19493 0,77.98975 63.20518,141.19491 141.19491,141.19491 77.99012,0 141.19455,-63.20516 141.19455,-141.19491 z"
       style="fill:#fbb516;fill-opacity:1;fill-rule:evenodd;stroke:none;stroke-width:16;stroke-miterlimit:4;stroke-dasharray:none;stroke-opacity:1" />
    <rect
       style="opacity:1;fill:#ffffff;fill-opacity:1;stroke:none;stroke-width:16;stroke-linecap:round;stroke-linejoin:round;stroke-miterlimit:4;stroke-dasharray:none;stroke-opacity:1"
       id="rect4202"
       width="168.47289"
       height="55.961349"
       x="261.88358"
       y="451.96127"
       ry="12.1896" />
    <rect
       style="opacity:1;fill:none;fill-opacity:1;stroke:none;stroke-width:23;stroke-linecap:butt;stroke-linejoin:round;stroke-miterlimit:4;stroke-dasharray:none;stroke-opacity:1"
       id="rect4160"
       width="400"
       height="400"
       x="190"
       y="322.36221" />
    <path
       inkscape:connector-curvature="0"
       id="path4156"
       d="m 574.93185,620.2754 c 0,48.41119 -39.29526,87.77549 -87.77551,87.77549 -48.4797,0 -87.77467,-39.3643 -87.77467,-87.77549 0,-48.47968 39.29497,-87.77466 87.77467,-87.77466 48.48025,0 87.77551,39.29498 87.77551,87.77466 z"
       style="fill:#767e8d;fill-opacity:1;fill-rule:evenodd;stroke:#ffffff;stroke-width:25;stroke-linecap:round;stroke-linejoin:round;stroke-miterlimit:4;stroke-dasharray:none;stroke-opacity:1" />
    <path
       inkscape:connector-curvature="0"
       id="path4160"
       d="m 499.72531,620.2754 c 0,6.90601 -5.59387,12.49988 -12.56897,12.49988 -6.90573,0 -12.49961,-5.59387 -12.49961,-12.49988 0,-6.97479 5.59388,-12.56868 12.49961,-12.56868 6.9751,0 12.56897,5.59389 12.56897,12.56868 z"
       style="fill:#ffffff;fill-opacity:1;fill-rule:nonzero;stroke:#ffffff;stroke-width:30.39869881px;stroke-linecap:round;stroke-linejoin:round;stroke-miterlimit:4;stroke-dasharray:none;stroke-opacity:1" />
    <path
       inkscape:connector-curvature="0"
       id="path4162"
       d="m 444.4777,575.11061 39.64001,33.28674 c 3.72925,3.03863 4.62704,8.01067 2.00273,11.11837 -2.55521,3.03867 -7.59635,3.03867 -11.25654,-0.0691 l -39.70933,-33.28654 c -3.66007,-3.10771 -4.55787,-8.08005 -2.00273,-11.11861 2.62428,-3.03864 7.66569,-3.03864 11.32586,0.0692 z"
       style="fill:#ffffff;fill-opacity:1;fill-rule:nonzero;stroke:#ffffff;stroke-width:30.39869881px;stroke-linecap:round;stroke-linejoin:round;stroke-miterlimit:4;stroke-dasharray:none;stroke-opacity:1" />
    <path
       inkscape:connector-curvature="0"
       id="path4164"
       d="m 487.15634,620.06822 c -3.59111,-1.31214 -7.59634,0.89777 -9.04661,4.90327 l -12.84509,35.22069 c -1.45027,4.00551 0.20718,8.28722 3.79831,9.59938 3.52197,1.24309 7.59651,-0.96686 9.04678,-4.97233 l 12.77586,-35.15165 c 1.51934,-4.00547 -0.20718,-8.28723 -3.72925,-9.59936 z"
       style="fill:#ffffff;fill-opacity:1;fill-rule:nonzero;stroke:#ffffff;stroke-width:30.39869881px;stroke-linecap:round;stroke-linejoin:round;stroke-miterlimit:4;stroke-dasharray:none;stroke-opacity:1" />
    <path
       inkscape:connector-curvature="0"
       id="path4166"
       d="m 492.54304,542.51438 c 0,2.76239 -2.20992,4.97233 -4.97233,4.97233 -2.83147,0 -5.04138,-2.20994 -5.04138,-4.97233 0,-2.76232 2.20991,-5.04131 5.04138,-5.04131 2.76241,0 4.97233,2.27899 4.97233,5.04131 z"
       style="fill:#ffffff;fill-opacity:1;fill-rule:nonzero;stroke:#ffffff;stroke-width:30.39869881px;stroke-linecap:round;stroke-linejoin:round;stroke-miterlimit:4;stroke-dasharray:none;stroke-opacity:1" />
    <path
       inkscape:connector-curvature="0"
       id="path4168"
       d="m 560.55512,613.14516 c 0,2.68643 -2.21632,4.83561 -4.90277,4.83561 -2.68647,0 -4.90278,-2.14918 -4.90278,-4.83561 0,-2.75362 2.21631,-4.90277 4.90278,-4.90277 2.68645,0 4.90277,2.14915 4.90277,4.90277 z"
       style="fill:#ffffff;fill-opacity:1;fill-rule:nonzero;stroke:#ffffff;stroke-width:30.39869881px;stroke-linecap:round;stroke-linejoin:round;stroke-miterlimit:4;stroke-dasharray:none;stroke-opacity:1" />
    <path
       inkscape:connector-curvature="0"
       id="path4170"
       d="m 413.19364,621.17317 c 0,2.76242 -2.20992,5.0414 -5.04141,5.0414 -2.76232,0 -4.97224,-2.27898 -4.97224,-5.0414 0,-2.76239 2.20992,-4.97234 4.97224,-4.97234 2.83149,0 5.04141,2.20995 5.04141,4.97234 z"
       style="fill:#ffffff;fill-opacity:1;fill-rule:nonzero;stroke:#ffffff;stroke-width:30.39869881px;stroke-linecap:round;stroke-linejoin:round;stroke-miterlimit:4;stroke-dasharray:none;stroke-opacity:1" />
    <path
       inkscape:connector-curvature="0"
       id="path4172"
       d="m 493.30272,698.45151 c 0,2.76242 -2.27899,5.04141 -5.04141,5.04141 -2.76241,0 -4.97233,-2.27899 -4.97233,-5.04141 0,-2.76238 2.20992,-5.04137 4.97233,-5.04137 2.76242,0 5.04141,2.27899 5.04141,5.04137 z"
       style="fill:#ffffff;fill-opacity:1;fill-rule:nonzero;stroke:#ffffff;stroke-width:30.39869881px;stroke-linecap:round;stroke-linejoin:round;stroke-miterlimit:4;stroke-dasharray:none;stroke-opacity:1" />
    <path
       inkscape:connector-curvature="0"
       id="path4174"
       d="m 575.13903,620.13727 c 0,48.48025 -39.29526,87.77551 -87.77551,87.77551 -48.4797,0 -87.77467,-39.29526 -87.77467,-87.77551 0,-48.47969 39.29497,-87.77468 87.77467,-87.77468 48.48025,0 87.77551,39.29499 87.77551,87.77468 z"
       style="fill:#767e8d;fill-opacity:1;fill-rule:evenodd;stroke:none" />
    <path
       inkscape:connector-curvature="0"
       id="path4176"
       d="m 421.13547,562.54173 c 16.91964,-19.54394 41.643,-30.66253 67.4021,-30.17914 l -0.8978,88.05093 z"
       style="fill:#b6c92f;fill-opacity:1;fill-rule:evenodd;stroke:none" />
    <path
       inkscape:connector-curvature="0"
       id="path4178"
       d="m 499.86342,620.13727 c 0,6.90603 -5.59387,12.4999 -12.4999,12.4999 -6.97481,0 -12.56868,-5.59387 -12.56868,-12.4999 0,-6.97477 5.59387,-12.56865 12.56868,-12.56865 6.90603,0 12.4999,5.59388 12.4999,12.56865 z"
       style="fill:#ffffff;fill-opacity:1;fill-rule:nonzero;stroke:none" />
    <path
       inkscape:connector-curvature="0"
       id="path4180"
       d="m 444.61584,574.97247 39.70904,33.28673 c 3.66019,3.03867 4.55797,8.01071 2.00274,11.11842 -2.62427,3.03863 -7.66539,3.03863 -11.32559,-0.0691 l -39.64027,-33.28653 c -3.72915,-3.1077 -4.62695,-8.01097 -2.00274,-11.11857 2.55525,-3.03868 7.59661,-3.03868 11.25682,0.0691 z"
       style="fill:#ffffff;fill-opacity:1;fill-rule:nonzero;stroke:none" />
    <path
       inkscape:connector-curvature="0"
       id="path4182"
       d="m 487.29448,619.93009 c -3.52207,-1.31212 -7.59634,0.8978 -9.04661,4.90329 l -12.77605,35.2207 c -1.45027,4.00546 0.20717,8.28722 3.72925,9.59934 3.59103,1.24309 7.59654,-0.89776 9.11584,-4.97233 l 12.77586,-35.15162 c 1.45027,-4.0055 -0.20718,-8.28723 -3.79829,-9.59938 z"
       style="fill:#ffffff;fill-opacity:1;fill-rule:nonzero;stroke:none" />
    <path
       inkscape:connector-curvature="0"
       id="path4184"
       d="m 492.75022,542.37624 c 0,2.76242 -2.27899,4.97234 -5.04138,4.97234 -2.76242,0 -5.0414,-2.20992 -5.0414,-4.97234 0,-2.76232 2.27898,-5.0413 5.0414,-5.0413 2.76239,0 5.04138,2.27898 5.04138,5.0413 z"
       style="fill:#ffffff;fill-opacity:1;fill-rule:nonzero;stroke:none" />
    <path
       inkscape:connector-curvature="0"
       id="path4186"
       d="m 570.09763,620.13727 c 0,2.76242 -2.20991,4.97234 -4.97233,4.97234 -2.83146,0 -5.04141,-2.20992 -5.04141,-4.97234 0,-2.83146 2.20995,-5.04137 5.04141,-5.04137 2.76242,0 4.97233,2.20991 4.97233,5.04137 z"
       style="fill:#ffffff;fill-opacity:1;fill-rule:nonzero;stroke:none" />
    <path
       inkscape:connector-curvature="0"
       id="path4188"
       d="m 413.40082,621.03507 c 0,2.76241 -2.27899,5.0414 -5.04141,5.0414 -2.76232,0 -5.04131,-2.27899 -5.04131,-5.0414 0,-2.76243 2.27899,-4.97234 5.04131,-4.97234 2.76242,0 5.04141,2.20991 5.04141,4.97234 z"
       style="fill:#ffffff;fill-opacity:1;fill-rule:nonzero;stroke:none" />
    <path
       inkscape:connector-curvature="0"
       id="path4190"
       d="m 493.44083,698.31341 c 0,2.76242 -2.20992,5.04141 -4.97234,5.04141 -2.76241,0 -5.0414,-2.27899 -5.0414,-5.04141 0,-2.76242 2.27899,-4.97233 5.0414,-4.97233 2.76242,0 4.97234,2.20991 4.97234,4.97233 z"
       style="fill:#ffffff;fill-opacity:1;fill-rule:nonzero;stroke:none" />
  </g>
</svg>
