<?xml version="1.0" encoding="UTF-8" standalone="no"?>
<!-- Created with Inkscape (http://www.inkscape.org/) -->

<svg
   xmlns:dc="http://purl.org/dc/elements/1.1/"
   xmlns:cc="http://creativecommons.org/ns#"
   xmlns:rdf="http://www.w3.org/1999/02/22-rdf-syntax-ns#"
   xmlns:svg="http://www.w3.org/2000/svg"
   xmlns="http://www.w3.org/2000/svg"
   xmlns:xlink="http://www.w3.org/1999/xlink"
   xmlns:sodipodi="http://sodipodi.sourceforge.net/DTD/sodipodi-0.dtd"
   xmlns:inkscape="http://www.inkscape.org/namespaces/inkscape"
   width="210mm"
   height="297mm"
   viewBox="0 0 744.09448819 1052.3622047"
   id="svg2"
   version="1.1"
   inkscape:version="0.91 r13725"
   inkscape:export-xdpi="7.1999736"
   inkscape:export-ydpi="7.1999736"
   sodipodi:docname="traffic-light.svg"
   inkscape:export-filename="C:\Users\T420\Documents\Arbeit\RRZE\github_\bicons\32x32\status\traffic-light.png">
  <title
     id="title4160">traffic light</title>
  <defs
     id="defs4">
    <linearGradient
       id="linearGradient2224">
      <stop
         id="stop2226"
         offset="0"
         style="stop-color:#7c7c7c;stop-opacity:1;" />
      <stop
         id="stop2228"
         offset="1"
         style="stop-color:#b8b8b8;stop-opacity:1;" />
    </linearGradient>
    <linearGradient
       id="linearGradient15218">
      <stop
         id="stop15220"
         offset="0"
         style="stop-color:#eeeeef;stop-opacity:1;" />
      <stop
         id="stop2736"
         offset="0.59928656"
         style="stop-color:#d3d7cf;stop-opacity:1;" />
      <stop
         id="stop2738"
         offset="0.82758623"
         style="stop-color:#ffffff;stop-opacity:1;" />
      <stop
         id="stop15222"
         offset="1"
         style="stop-color:#d3d7cf;stop-opacity:1;" />
    </linearGradient>
    <pattern
       y="0"
       x="0"
       height="6"
       width="6"
       patternUnits="userSpaceOnUse"
       id="EMFhbasepattern" />
    <pattern
       y="0"
       x="0"
       height="6"
       width="6"
       patternUnits="userSpaceOnUse"
       id="EMFhbasepattern-5" />
    <linearGradient
       gradientTransform="translate(198.80749,389.91438)"
       inkscape:collect="always"
       xlink:href="#linearGradient4242"
       id="linearGradient4248"
       x1="122"
       y1="392"
       x2="290"
       y2="5.999999"
       gradientUnits="userSpaceOnUse" />
    <linearGradient
       inkscape:collect="always"
       id="linearGradient4242">
      <stop
         style="stop-color:#4e505d;stop-opacity:1;"
         offset="0"
         id="stop4244" />
      <stop
         style="stop-color:#7a859c;stop-opacity:1"
         offset="1"
         id="stop4246" />
    </linearGradient>
  </defs>
  <sodipodi:namedview
     id="base"
     pagecolor="#ffffff"
     bordercolor="#666666"
     borderopacity="1.0"
     inkscape:pageopacity="0.0"
     inkscape:pageshadow="2"
     inkscape:zoom="0.70710678"
     inkscape:cx="252.99313"
     inkscape:cy="528.25829"
     inkscape:document-units="px"
     inkscape:current-layer="layer1"
     showgrid="false"
     showguides="true"
     inkscape:guide-bbox="true"
     inkscape:window-width="1600"
     inkscape:window-height="837"
     inkscape:window-x="-4"
     inkscape:window-y="-4"
     inkscape:window-maximized="1"
     inkscape:snap-global="true"
     inkscape:snap-bbox="true"
     inkscape:bbox-nodes="true">
    <sodipodi:guide
       position="560,730.00002"
       orientation="0,1"
       id="guide3338" />
    <sodipodi:guide
       position="560,330.00001"
       orientation="0,1"
       id="guide3340" />
    <sodipodi:guide
       position="190,475.00001"
       orientation="1,0"
       id="guide3344" />
    <sodipodi:guide
       position="590,451.00001"
       orientation="1,0"
       id="guide3346" />
    <inkscape:grid
       type="xygrid"
       id="grid3440" />
  </sodipodi:namedview>
  <metadata
     id="metadata7">
    <rdf:RDF>
      <cc:Work
         rdf:about="">
        <dc:format>image/svg+xml</dc:format>
        <dc:type
           rdf:resource="http://purl.org/dc/dcmitype/StillImage" />
        <dc:title>traffic light</dc:title>
        <dc:date>June 2015</dc:date>
        <dc:creator>
          <cc:Agent>
            <dc:title>Johannes Hechler</dc:title>
          </cc:Agent>
        </dc:creator>
        <dc:rights>
          <cc:Agent>
            <dc:title>Johannes Hechler</dc:title>
          </cc:Agent>
        </dc:rights>
        <dc:publisher>
          <cc:Agent>
            <dc:title>RRZE</dc:title>
          </cc:Agent>
        </dc:publisher>
        <dc:contributor>
          <cc:Agent>
            <dc:title>Ute Weber, Hendrik Eggers</dc:title>
          </cc:Agent>
        </dc:contributor>
      </cc:Work>
    </rdf:RDF>
  </metadata>
  <g
     inkscape:label="Ebene 1"
     inkscape:groupmode="layer"
     id="layer1">
    <g
       id="g4190"
       transform="translate(-8.8089645,-67.552168)">
      <path
         id="rect4204"
         d="m 314.95788,389.91438 c -10.07172,0 -18.17968,8.10797 -18.17968,18.17968 l 0,363.64063 c 0,10.07172 8.10796,18.17969 18.17968,18.17969 l 166.95117,0 c 10.07172,0 18.17969,-8.10797 18.17969,-18.17969 l 0,-363.64063 c 0,-10.07171 -8.10797,-18.17968 -18.17969,-18.17968 l -166.95117,0 z m 84.08008,8.17968 c 37.68275,6.9e-4 68.78985,30.69193 68.78906,68.29102 -5e-4,27.45892 -16.62679,51.17215 -40.25391,61.99805 23.62857,10.82603 40.25449,34.54158 40.25391,62.00195 -4.8e-4,26.64379 -15.65766,49.7555 -38.16992,60.99805 22.51336,11.24284 38.17048,34.35694 38.16992,61.00195 -6.8e-4,37.59806 -31.10732,68.28837 -68.78906,68.28907 -37.68275,8e-4 -68.79034,-30.69001 -68.79102,-68.28907 -5.6e-4,-26.64572 15.65768,-49.75943 38.17188,-61.00195 -22.51339,-11.24212 -38.1714,-34.35334 -38.17188,-60.99805 -5.7e-4,-27.46048 16.62534,-51.17596 40.25391,-62.00195 -23.62772,-10.82563 -40.25341,-34.53859 -40.25391,-61.99805 -7.9e-4,-37.60009 31.10726,-68.29177 68.79102,-68.29102 z m 0,36 c -18.41895,-3.7e-4 -32.79139,14.34075 -32.79102,32.29102 3.3e-4,17.94977 14.3726,32.28943 32.79102,32.28907 18.4179,-3.4e-4 32.78874,-14.33981 32.78906,-32.28907 3.8e-4,-17.94976 -14.37064,-32.29069 -32.78906,-32.29102 z m 0,124.00001 c -18.41895,-3.7e-4 -32.79139,14.34074 -32.79102,32.29101 3.3e-4,17.94977 14.3726,32.28943 32.79102,32.28907 18.4179,-3.4e-4 32.78874,-14.33981 32.78906,-32.28907 3.8e-4,-17.94976 -14.37064,-32.29067 -32.78906,-32.29101 z m 0,122 c -18.41895,-3.7e-4 -32.79139,14.34074 -32.79102,32.29101 3.3e-4,17.94977 14.3726,32.28947 32.79102,32.28907 18.4179,-3e-4 32.78874,-14.33981 32.78906,-32.28907 3.8e-4,-17.94976 -14.37064,-32.29067 -32.78906,-32.29101 z"
         style="fill:url(#linearGradient4248);fill-opacity:1;stroke:none;stroke-width:50;stroke-linejoin:round;stroke-miterlimit:4;stroke-dasharray:none"
         inkscape:connector-curvature="0" />
      <ellipse
         ry="50.289967"
         rx="50.790001"
         cy="466.38434"
         cx="399.03748"
         id="path4206"
         style="fill:#d9463a;stroke:none;stroke-width:50;stroke-linejoin:round;stroke-miterlimit:4;stroke-dasharray:none" />
      <ellipse
         style="fill:#fbb516;stroke:none;stroke-width:50;stroke-linejoin:round;stroke-miterlimit:4;stroke-dasharray:none"
         id="ellipse4212"
         cx="399.03748"
         cy="590.38434"
         rx="50.790001"
         ry="50.289967" />
      <ellipse
         ry="50.289967"
         rx="50.790001"
         cy="712.38434"
         cx="399.03748"
         id="ellipse4214"
         style="fill:#99b000;stroke:none;stroke-width:50;stroke-linejoin:round;stroke-miterlimit:4;stroke-dasharray:none" />
      <rect
         ry="18.18"
         y="389.91437"
         x="198.8075"
         height="400"
         width="400.00146"
         id="rect4250"
         style="fill:none;fill-opacity:1;stroke:none;stroke-width:36;stroke-linejoin:round;stroke-miterlimit:4;stroke-dasharray:none" />
    </g>
  </g>
</svg>
