<?xml version="1.0" encoding="UTF-8" standalone="no"?>
<!-- Created with Inkscape (http://www.inkscape.org/) -->
<svg xmlns:dc="http://purl.org/dc/elements/1.1/" xmlns:cc="http://creativecommons.org/ns#" xmlns:rdf="http://www.w3.org/1999/02/22-rdf-syntax-ns#" xmlns:svg="http://www.w3.org/2000/svg" xmlns="http://www.w3.org/2000/svg" xmlns:xlink="http://www.w3.org/1999/xlink" xmlns:sodipodi="http://sodipodi.sourceforge.net/DTD/sodipodi-0.dtd" xmlns:inkscape="http://www.inkscape.org/namespaces/inkscape" width="210mm" height="297mm" id="svg4039" version="1.1" inkscape:version="0.48.0 r9654">
  <title id="title4413">crap</title>
  <defs id="defs3">
    <linearGradient inkscape:collect="always" id="linearGradient4405">
      <stop style="stop-color:#2e3436;stop-opacity:1;" offset="0" id="stop4407"/>
      <stop style="stop-color:#2e3436;stop-opacity:0;" offset="1" id="stop4409"/>
    </linearGradient>
    <linearGradient inkscape:collect="always" id="linearGradient3848">
      <stop style="stop-color:#ffffff;stop-opacity:1;" offset="0" id="stop3850"/>
      <stop style="stop-color:#ffffff;stop-opacity:0;" offset="1" id="stop3852"/>
    </linearGradient>
    <linearGradient inkscape:collect="always" id="linearGradient3840">
      <stop style="stop-color:#ffffff;stop-opacity:1;" offset="0" id="stop3842"/>
      <stop style="stop-color:#ffffff;stop-opacity:0;" offset="1" id="stop3844"/>
    </linearGradient>
    <linearGradient inkscape:collect="always" id="linearGradient3832">
      <stop style="stop-color:#ffffff;stop-opacity:1;" offset="0" id="stop3834"/>
      <stop style="stop-color:#ffffff;stop-opacity:0;" offset="1" id="stop3836"/>
    </linearGradient>
    <linearGradient inkscape:collect="always" id="linearGradient3818">
      <stop style="stop-color:#ffffff;stop-opacity:1;" offset="0" id="stop3820"/>
      <stop style="stop-color:#ffffff;stop-opacity:0;" offset="1" id="stop3822"/>
    </linearGradient>
    <linearGradient id="linearGradient3796">
      <stop style="stop-color:#e9b96e;stop-opacity:1;" offset="0" id="stop3798"/>
      <stop id="stop3808" offset="0.04127537" style="stop-color:#e9b96e;stop-opacity:0.11255411;"/>
      <stop id="stop3806" offset="0.56159854" style="stop-color:#e9b96e;stop-opacity:0.6796537;"/>
      <stop style="stop-color:#e9b96e;stop-opacity:0;" offset="1" id="stop3800"/>
    </linearGradient>
    <linearGradient inkscape:collect="always" id="linearGradient3786">
      <stop style="stop-color:#e9b96e;stop-opacity:1;" offset="0" id="stop3788"/>
      <stop style="stop-color:#e9b96e;stop-opacity:0;" offset="1" id="stop3790"/>
    </linearGradient>
    <linearGradient inkscape:collect="always" id="linearGradient3776">
      <stop style="stop-color:#e9b96e;stop-opacity:1;" offset="0" id="stop3778"/>
      <stop style="stop-color:#e9b96e;stop-opacity:0;" offset="1" id="stop3780"/>
    </linearGradient>
    <linearGradient inkscape:collect="always" id="linearGradient3764">
      <stop style="stop-color:#e9b96e;stop-opacity:1;" offset="0" id="stop3766"/>
      <stop style="stop-color:#e9b96e;stop-opacity:0;" offset="1" id="stop3768"/>
    </linearGradient>
    <linearGradient inkscape:collect="always" xlink:href="#linearGradient3764" id="linearGradient3770" x1="478.57141" y1="694.50507" x2="493.38245" y2="766.64789" gradientUnits="userSpaceOnUse"/>
    <linearGradient inkscape:collect="always" xlink:href="#linearGradient3776" id="linearGradient3782" x1="295.4747" y1="587.18695" x2="326.77933" y2="722.54736" gradientUnits="userSpaceOnUse"/>
    <linearGradient inkscape:collect="always" xlink:href="#linearGradient3786" id="linearGradient3792" x1="294.46454" y1="503.34424" x2="306.5762" y2="595.26813" gradientUnits="userSpaceOnUse"/>
    <linearGradient inkscape:collect="always" xlink:href="#linearGradient3796" id="linearGradient3802" x1="257.60452" y1="219.98428" x2="306.34302" y2="533.41718" gradientUnits="userSpaceOnUse"/>
    <linearGradient inkscape:collect="always" xlink:href="#linearGradient3818" id="linearGradient3824" x1="175.10466" y1="360.54623" x2="632.48187" y2="648.5025" gradientUnits="userSpaceOnUse" gradientTransform="matrix(0.96405926,0,0,0.96405926,11.958041,18.984511)"/>
    <linearGradient inkscape:collect="always" xlink:href="#linearGradient3832" id="linearGradient3838" x1="208.9488" y1="729.03003" x2="573.1361" y2="729.03003" gradientUnits="userSpaceOnUse"/>
    <linearGradient inkscape:collect="always" xlink:href="#linearGradient3840" id="linearGradient3846" x1="166.60154" y1="601.37438" x2="471.36605" y2="601.37438" gradientUnits="userSpaceOnUse"/>
    <linearGradient inkscape:collect="always" xlink:href="#linearGradient3848" id="linearGradient3854" x1="159.1472" y1="459.74188" x2="433.47311" y2="446.07556" gradientUnits="userSpaceOnUse"/>
    <linearGradient inkscape:collect="always" xlink:href="#linearGradient3776" id="linearGradient4322" gradientUnits="userSpaceOnUse" x1="295.4747" y1="587.18695" x2="326.77933" y2="722.54736"/>
    <linearGradient inkscape:collect="always" xlink:href="#linearGradient3786" id="linearGradient4324" gradientUnits="userSpaceOnUse" x1="294.46454" y1="503.34424" x2="306.5762" y2="595.26813"/>
    <linearGradient inkscape:collect="always" xlink:href="#linearGradient3796" id="linearGradient4326" gradientUnits="userSpaceOnUse" x1="257.60452" y1="219.98428" x2="306.34302" y2="533.41718"/>
    <linearGradient inkscape:collect="always" xlink:href="#linearGradient3818" id="linearGradient4328" gradientUnits="userSpaceOnUse" gradientTransform="matrix(0.96405926,0,0,0.96405926,11.958041,18.984511)" x1="175.10466" y1="360.54623" x2="632.48187" y2="648.5025"/>
    <linearGradient inkscape:collect="always" xlink:href="#linearGradient3764" id="linearGradient4330" gradientUnits="userSpaceOnUse" x1="478.57141" y1="694.50507" x2="493.38245" y2="766.64789"/>
    <linearGradient inkscape:collect="always" xlink:href="#linearGradient3848" id="linearGradient4332" gradientUnits="userSpaceOnUse" x1="159.1472" y1="459.74188" x2="433.47311" y2="446.07556"/>
    <linearGradient inkscape:collect="always" xlink:href="#linearGradient3840" id="linearGradient4334" gradientUnits="userSpaceOnUse" x1="166.60154" y1="601.37438" x2="471.36605" y2="601.37438"/>
    <linearGradient inkscape:collect="always" xlink:href="#linearGradient3832" id="linearGradient4336" gradientUnits="userSpaceOnUse" x1="208.9488" y1="729.03003" x2="573.1361" y2="729.03003"/>
    <linearGradient inkscape:collect="always" xlink:href="#linearGradient3832" id="linearGradient4343" gradientUnits="userSpaceOnUse" x1="208.9488" y1="729.03003" x2="573.1361" y2="729.03003" gradientTransform="translate(77.30825,49.196159)"/>
    <linearGradient inkscape:collect="always" xlink:href="#linearGradient3840" id="linearGradient4346" gradientUnits="userSpaceOnUse" x1="166.60154" y1="601.37438" x2="471.36605" y2="601.37438" gradientTransform="translate(77.30825,49.196159)"/>
    <linearGradient inkscape:collect="always" xlink:href="#linearGradient3848" id="linearGradient4349" gradientUnits="userSpaceOnUse" x1="159.1472" y1="459.74188" x2="433.47311" y2="446.07556" gradientTransform="translate(77.30825,49.196159)"/>
    <linearGradient inkscape:collect="always" xlink:href="#linearGradient3764" id="linearGradient4352" gradientUnits="userSpaceOnUse" x1="478.57141" y1="694.50507" x2="493.38245" y2="766.64789" gradientTransform="translate(77.30825,52.710168)"/>
    <linearGradient inkscape:collect="always" xlink:href="#linearGradient3818" id="linearGradient4355" gradientUnits="userSpaceOnUse" gradientTransform="matrix(0.96405926,0,0,0.96405926,89.266291,68.18067)" x1="175.10466" y1="360.54623" x2="632.48187" y2="648.5025"/>
    <linearGradient inkscape:collect="always" xlink:href="#linearGradient3796" id="linearGradient4358" gradientUnits="userSpaceOnUse" x1="257.60452" y1="219.98428" x2="306.34302" y2="533.41718" gradientTransform="translate(77.30825,49.196159)"/>
    <linearGradient inkscape:collect="always" xlink:href="#linearGradient3786" id="linearGradient4361" gradientUnits="userSpaceOnUse" x1="294.46454" y1="503.34424" x2="306.5762" y2="595.26813" gradientTransform="translate(77.30825,49.196159)"/>
    <linearGradient inkscape:collect="always" xlink:href="#linearGradient3776" id="linearGradient4364" gradientUnits="userSpaceOnUse" x1="295.4747" y1="587.18695" x2="326.77933" y2="722.54736" gradientTransform="translate(77.30825,49.196159)"/>
    <linearGradient inkscape:collect="always" xlink:href="#linearGradient3776" id="linearGradient4383" gradientUnits="userSpaceOnUse" gradientTransform="translate(77.30825,49.196159)" x1="295.4747" y1="587.18695" x2="326.77933" y2="722.54736"/>
    <linearGradient inkscape:collect="always" xlink:href="#linearGradient3786" id="linearGradient4385" gradientUnits="userSpaceOnUse" gradientTransform="translate(77.30825,49.196159)" x1="294.46454" y1="503.34424" x2="306.5762" y2="595.26813"/>
    <linearGradient inkscape:collect="always" xlink:href="#linearGradient3796" id="linearGradient4387" gradientUnits="userSpaceOnUse" gradientTransform="translate(77.30825,49.196159)" x1="257.60452" y1="219.98428" x2="306.34302" y2="533.41718"/>
    <linearGradient inkscape:collect="always" xlink:href="#linearGradient3818" id="linearGradient4389" gradientUnits="userSpaceOnUse" gradientTransform="matrix(0.96405926,0,0,0.96405926,89.266291,68.18067)" x1="175.10466" y1="360.54623" x2="632.48187" y2="648.5025"/>
    <linearGradient inkscape:collect="always" xlink:href="#linearGradient3764" id="linearGradient4391" gradientUnits="userSpaceOnUse" gradientTransform="translate(77.30825,52.710168)" x1="478.57141" y1="694.50507" x2="493.38245" y2="766.64789"/>
    <linearGradient inkscape:collect="always" xlink:href="#linearGradient3848" id="linearGradient4393" gradientUnits="userSpaceOnUse" gradientTransform="translate(77.30825,49.196159)" x1="159.1472" y1="459.74188" x2="433.47311" y2="446.07556"/>
    <linearGradient inkscape:collect="always" xlink:href="#linearGradient3840" id="linearGradient4395" gradientUnits="userSpaceOnUse" gradientTransform="translate(77.30825,49.196159)" x1="166.60154" y1="601.37438" x2="471.36605" y2="601.37438"/>
    <linearGradient inkscape:collect="always" xlink:href="#linearGradient3832" id="linearGradient4397" gradientUnits="userSpaceOnUse" gradientTransform="translate(77.30825,49.196159)" x1="208.9488" y1="729.03003" x2="573.1361" y2="729.03003"/>
    <radialGradient inkscape:collect="always" xlink:href="#linearGradient4405" id="radialGradient4411" cx="416.20087" cy="838.67102" fx="416.20087" fy="838.67102" r="361.53568" gradientTransform="matrix(1,0,0,0.21305842,0,659.98509)" gradientUnits="userSpaceOnUse"/>
  </defs>
  <sodipodi:namedview inkscape:document-units="mm" id="base" pagecolor="#ffffff" bordercolor="#666666" borderopacity="1.0" inkscape:pageopacity="0.0" inkscape:pageshadow="2" inkscape:zoom="0.40244991" inkscape:cx="-1242.3231" inkscape:cy="596.85684" inkscape:current-layer="layer1" showgrid="false" showguides="true" inkscape:guide-bbox="true" inkscape:snap-global="false" inkscape:window-width="1246" inkscape:window-height="682" inkscape:window-x="20" inkscape:window-y="20" inkscape:window-maximized="0">
    <sodipodi:guide orientation="0,1" position="-220,877.14286" id="guide4555"/>
    <sodipodi:guide orientation="0,1" position="-300,182.85714" id="guide4557"/>
    <sodipodi:guide orientation="1,0" position="725.71429,48.571429" id="guide4559"/>
    <sodipodi:guide orientation="1,0" position="31.428571,68.571429" id="guide4561"/>
    <sodipodi:guide orientation="1,0" position="377.68675,79.513" id="guide4399"/>
  </sodipodi:namedview>
  <metadata id="metadata4">
    <rdf:RDF>
      <cc:Work rdf:about="">
        <dc:format>image/svg+xml</dc:format>
        <dc:type rdf:resource="http://purl.org/dc/dcmitype/StillImage"/>
        <dc:title>crap</dc:title>
        <dc:date>Feb 2014</dc:date>
        <dc:creator>
          <cc:Agent>
            <dc:title>Franziska Sponsel</dc:title>
          </cc:Agent>
        </dc:creator>
        <dc:rights>
          <cc:Agent>
            <dc:title>Franziska Sponsel</dc:title>
          </cc:Agent>
        </dc:rights>
        <dc:publisher>
          <cc:Agent>
            <dc:title>RRZE</dc:title>
          </cc:Agent>
        </dc:publisher>
        <dc:language/>
        <cc:license rdf:resource="http://creativecommons.org/licenses/by-sa/3.0/"/>
        <dc:subject>
          <rdf:Bag>
            <rdf:li>shit</rdf:li>
            <rdf:li>crap</rdf:li>
            <rdf:li>stupid</rdf:li>
            <rdf:li>monday</rdf:li>
            <rdf:li>insert other swear words here</rdf:li>
          </rdf:Bag>
        </dc:subject>
      </cc:Work>
      <cc:License rdf:about="http://creativecommons.org/licenses/by-sa/3.0/">
        <cc:permits rdf:resource="http://creativecommons.org/ns#Reproduction"/>
        <cc:permits rdf:resource="http://creativecommons.org/ns#Distribution"/>
        <cc:requires rdf:resource="http://creativecommons.org/ns#Notice"/>
        <cc:requires rdf:resource="http://creativecommons.org/ns#Attribution"/>
        <cc:permits rdf:resource="http://creativecommons.org/ns#DerivativeWorks"/>
        <cc:requires rdf:resource="http://creativecommons.org/ns#ShareAlike"/>
      </cc:License>
    </rdf:RDF>
  </metadata>
  <g inkscape:label="Layer 1" inkscape:groupmode="layer" id="layer1">
    <g id="g3066">
      <path transform="matrix(0.9209622,0,0,0.88709678,-5.6185083,33.811521)" d="m 777.73654,838.67102 a 361.53568,77.028221 0 1 1 -723.071348,0 361.53568,77.028221 0 1 1 723.071348,0 z" sodipodi:ry="77.028221" sodipodi:rx="361.53568" sodipodi:cy="838.67102" sodipodi:cx="416.20087" id="path4403" style="fill:url(#radialGradient4411);fill-opacity:1;stroke:none" sodipodi:type="arc"/>
      <path id="rect4045" d="m 31.42857,175.21933 694.28571,0 0,694.28571 -694.28571,0 z" style="fill:none;stroke:none"/>
      <g transform="matrix(1.1114956,0,0,1.1114956,-76.775623,-131.14344)" id="g4368">
        <path style="fill:#8f5902;stroke:#2e3436;stroke-width:12;stroke-linecap:butt;stroke-linejoin:round;stroke-miterlimit:4;stroke-opacity:1;stroke-dasharray:none" d="m 165.87968,815.84406 c 0,0 114.34529,26.35509 511.42857,0 0,0 14.56146,-44.77765 -22.85714,-60.00001 19.07408,-51.78566 -33.63802,-118.32248 -99.28572,-121.42856 16.74103,-30.57682 -5.32107,-90.81104 -48.57143,-101.42858 13.46438,-19.52417 -1.98127,-30.47755 -39.90692,-28.19729 30.58536,-45.97202 -46.63856,-116.92673 -65.71427,-165.71428 0,0 -89.338,86.72924 -61.42857,128.57143 7.94476,11.91089 14.53849,8.77858 27.14285,14.28571 -70.89059,0.52567 -106.52938,49.38858 -67.95023,76.76872 -123.85094,8.7236 -80.40917,115.21348 -55.71428,122.85714 -116.6314,-17.49471 -121.66746,114.78097 -77.14286,134.28572 z" id="path4563" inkscape:connector-curvature="0" sodipodi:nodetypes="cccccccccccc"/>
        <path style="fill:url(#linearGradient4383);fill-opacity:1;stroke:#000000;stroke-width:1px;stroke-linecap:butt;stroke-linejoin:miter;stroke-opacity:1" d="m 216.7093,680.32473 -39.39595,10.10153 -25.25381,28.28427 -12.12183,29.29442 2.0203,35.35534 18.18275,32.32488 50.50763,-1.01015 105.05586,0 64.16872,7.64322 105.53691,-28.76782 122.22846,-31.40333 49.49747,-8.08122 2.02031,-38.3858 -25.25382,-44.44671 -42.4264,-28.28427 -37.37565,-10.10153 -65.65991,23.23351 -98.99495,22.22336 -96.97465,6.06091 z" id="path3774" inkscape:connector-curvature="0" sodipodi:nodetypes="cccccccccccccccccccc"/>
        <path style="fill:url(#linearGradient4385);fill-opacity:1;stroke:#000000;stroke-width:1px;stroke-linecap:butt;stroke-linejoin:miter;stroke-opacity:1" d="m 294.49105,560.11658 -48.48733,12.12183 -25.25381,26.26397 -5.05076,50.50762 26.26396,30.30458 64.64977,6.06091 73.74113,-7.07106 54.54824,-12.12183 75.76144,-19.1929 45.45687,-11.11168 7.07106,-31.31473 -16.16244,-45.45686 -31.31473,-24.24367 -12.12183,-2.0203 -59.599,22.22336 -61.6193,7.07106 -52.52793,-2.0203 z" id="path3784" inkscape:connector-curvature="0"/>
        <path style="fill:url(#linearGradient4387);fill-opacity:1;stroke:#000000;stroke-width:1px;stroke-linecap:butt;stroke-linejoin:miter;stroke-opacity:1" d="m 397.59023,344.21254 -36.36549,39.39595 -25.25381,49.49747 1.01015,33.33504 29.29442,18.18274 -9.51849,-6.08193 -59.51851,25.30458 -16.88959,20.91485 12.12183,34.34519 33.33504,0 64.64976,1.01015 43.43656,-5.05076 50.50763,-12.12183 28.28427,-17.1726 -2.25255,-11.89527 -40.08049,-12.7433 -1.33576,-19.58158 5.34663,-2.98841 -12.12184,-44.44671 -31.31472,-44.44672 z" id="path3794" inkscape:connector-curvature="0" sodipodi:nodetypes="ccccccccccccccccccccc"/>
        <path style="fill:none;stroke:url(#linearGradient4389);stroke-width:13;stroke-linecap:butt;stroke-linejoin:miter;stroke-miterlimit:4;stroke-opacity:1;stroke-dasharray:none" d="m 172.78167,803.70738 c 149.12659,17.81997 221.24433,18.44056 494.29897,2.32491 0,0 13.72753,-31.055 -23.27802,-45.10907 18.38854,-49.92444 -18.76275,-113.44868 -101.61867,-118.92791 24.83607,-49.66671 -6.68282,-93.75918 -48.37873,-103.99512 11.22301,-17.15911 10.67473,-21.29959 -4.94962,-23.20027 -10.83465,-1.31802 -24.46546,0.97777 -27.62165,-1.58854 -8.81098,-7.16425 0.24573,-16.03447 1.97647,-24.41909 7.11528,-34.47013 -42.41109,-93.6161 -65.32892,-133.16512 0,0 -73.08203,73.36241 -49.59226,108.11 3.93205,6.51324 29.0745,5.46201 28.0309,18.74183 -0.24812,3.15733 -1.07485,9.26157 -15.52118,9.38519 -49.00495,0.41934 -101.13735,37.72065 -40.97954,73.72148 -136.48251,0.0239 -97.94327,99.74038 -52.3941,123.57099 -134.80262,-25.25206 -125.1441,94.81518 -94.64365,114.55072 z" id="path3816" inkscape:connector-curvature="0" sodipodi:nodetypes="cccccsssccssccc"/>
        <path style="fill:url(#linearGradient4391);fill-opacity:1;stroke:none" d="m 343.32569,825.83603 c 90.47619,-27.39988 221.36351,-49.19836 311.8397,-65.76368 27.77368,17.8464 30.19823,38.36257 20,60 z" id="path3762" inkscape:connector-curvature="0" sodipodi:nodetypes="cccc"/>
        <path style="fill:none;stroke:url(#linearGradient4393);stroke-width:13;stroke-linecap:round;stroke-linejoin:miter;stroke-miterlimit:4;stroke-opacity:1;stroke-dasharray:none" d="m 303.83138,543.24155 c 84.52107,6.84742 131.81266,2.97844 192.26909,-20.42407" id="path3826" inkscape:connector-curvature="0" sodipodi:nodetypes="cc"/>
        <path style="fill:none;stroke:url(#linearGradient4395);stroke-width:13;stroke-linecap:round;stroke-linejoin:miter;stroke-miterlimit:4;stroke-opacity:1;stroke-dasharray:none" d="m 230.35374,663.78465 c 76.1055,30.36759 212.26106,-10.18568 319.57757,-41.80202" id="path3828" inkscape:connector-curvature="0" sodipodi:nodetypes="cc"/>
        <path style="opacity:0.58895706;fill:none;stroke:url(#linearGradient4397);stroke-width:13;stroke-linecap:round;stroke-linejoin:miter;stroke-miterlimit:4;stroke-opacity:1;stroke-dasharray:none" d="m 304.6916,813.33664 c 93.94329,-7.20571 213.62727,-47.37449 343.20662,-71.206" id="path3830" inkscape:connector-curvature="0" sodipodi:nodetypes="cc"/>
        <path sodipodi:nodetypes="cccccccccccc" inkscape:connector-curvature="0" id="path3772" d="m 165.87968,815.84406 c 14.31659,33.22545 288.23671,11.2161 511.42857,0 0,0 14.56146,-44.77765 -22.85714,-60.00001 19.07408,-51.78566 -33.63802,-118.32248 -99.28572,-121.42856 16.74103,-30.57682 -5.32107,-90.81104 -48.57143,-101.42858 13.46438,-19.52417 -1.98127,-30.57064 -39.90692,-28.29038 30.58536,-45.97202 -46.63856,-116.92673 -65.71427,-165.71428 0,0 -89.338,86.72924 -61.42857,128.57143 7.94476,11.91089 14.53849,8.77858 27.14285,14.28571 -70.89059,0.52567 -106.52938,49.48167 -67.95023,76.86181 -123.85094,8.7236 -80.40917,115.21348 -55.71428,122.85714 -116.6314,-17.49471 -121.66746,114.78097 -77.14286,134.28572 z" style="fill:none;stroke:#2e3436;stroke-width:17;stroke-linecap:butt;stroke-linejoin:round;stroke-miterlimit:4;stroke-opacity:1;stroke-dasharray:none"/>
        <path style="fill:none;stroke:#2e3436;stroke-width:17;stroke-linecap:round;stroke-linejoin:round;stroke-miterlimit:4;stroke-opacity:1;stroke-dasharray:none" d="m 175.92907,820.40079 c 215.24328,28.21385 317.49329,-43.4025 477.80775,-63.84245" id="path3756" inkscape:connector-curvature="0" sodipodi:nodetypes="cc"/>
        <path style="fill:none;stroke:#2e3436;stroke-width:17;stroke-linecap:round;stroke-linejoin:round;stroke-miterlimit:4;stroke-opacity:1;stroke-dasharray:none" d="m 242.30825,681.55835 c 87.49487,26.09654 221.97996,-19.09485 312.85713,-47.14287" id="path3758" inkscape:connector-curvature="0" sodipodi:nodetypes="cc"/>
        <path style="fill:none;stroke:#2e3436;stroke-width:17;stroke-linecap:round;stroke-linejoin:round;stroke-miterlimit:4;stroke-opacity:1;stroke-dasharray:none" d="m 298.73682,557.98692 c 96.8491,10.33906 147.49422,0.13559 205.71429,-24.28572" id="path3760" inkscape:connector-curvature="0" sodipodi:nodetypes="cc"/>
      </g>
    </g>
  </g>
</svg>
