<?xml version="1.0" encoding="UTF-8" standalone="no"?>
<!-- Created with Inkscape (http://www.inkscape.org/) -->
<svg xmlns:dc="http://purl.org/dc/elements/1.1/" xmlns:cc="http://creativecommons.org/ns#" xmlns:rdf="http://www.w3.org/1999/02/22-rdf-syntax-ns#" xmlns:svg="http://www.w3.org/2000/svg" xmlns="http://www.w3.org/2000/svg" xmlns:xlink="http://www.w3.org/1999/xlink" xmlns:sodipodi="http://sodipodi.sourceforge.net/DTD/sodipodi-0.dtd" xmlns:inkscape="http://www.inkscape.org/namespaces/inkscape" width="210mm" height="297mm" id="svg2" version="1.1" inkscape:version="0.48.0 r9654">
  <title id="title5813">expired sign filled</title>
  <defs id="defs4">
    <linearGradient inkscape:collect="always" id="linearGradient5849">
      <stop style="stop-color:#ffffff;stop-opacity:1;" offset="0" id="stop5851"/>
      <stop style="stop-color:#ffffff;stop-opacity:0;" offset="1" id="stop5853"/>
    </linearGradient>
    <linearGradient id="linearGradient5841">
      <stop style="stop-color:#ffffff;stop-opacity:1;" offset="0" id="stop5843"/>
      <stop style="stop-color:#ffffff;stop-opacity:0;" offset="1" id="stop5845"/>
    </linearGradient>
    <linearGradient inkscape:collect="always" xlink:href="#linearGradient5841" id="linearGradient5847" x1="-347.05893" y1="460.76193" x2="267.41641" y2="849.73041" gradientUnits="userSpaceOnUse"/>
    <linearGradient inkscape:collect="always" xlink:href="#linearGradient5849" id="linearGradient5855" x1="-347.05893" y1="460.76193" x2="267.41641" y2="849.73041" gradientUnits="userSpaceOnUse"/>
  </defs>
  <sodipodi:namedview id="base" pagecolor="#ffffff" bordercolor="#666666" borderopacity="1.0" inkscape:pageopacity="0.0" inkscape:pageshadow="2" inkscape:zoom="0.49497475" inkscape:cx="211.80916" inkscape:cy="463.17242" inkscape:document-units="px" inkscape:current-layer="layer1" showgrid="false" showguides="true" inkscape:guide-bbox="true" inkscape:snap-global="false" inkscape:window-width="1252" inkscape:window-height="691" inkscape:window-x="0" inkscape:window-y="0" inkscape:window-maximized="0">
    <sodipodi:guide orientation="0,1" position="1002.8571,900" id="guide3757"/>
    <sodipodi:guide orientation="0,1" position="-334.28571,191.42857" id="guide3759"/>
    <sodipodi:guide orientation="1,0" position="728.57143,-8.5714286" id="guide3761"/>
    <sodipodi:guide orientation="1,0" position="17.142857,-31.428571" id="guide3763"/>
    <sodipodi:guide orientation="0,1" position="-78.791898,581.84787" id="guide5737"/>
    <sodipodi:guide orientation="1,0" position="365.67522,258.59905" id="guide5741"/>
  </sodipodi:namedview>
  <metadata id="metadata7">
    <rdf:RDF>
      <cc:Work rdf:about="">
        <dc:format>image/svg+xml</dc:format>
        <dc:type rdf:resource="http://purl.org/dc/dcmitype/StillImage"/>
        <dc:title>expired sign filled</dc:title>
        <dc:date>June 2013</dc:date>
        <dc:creator>
          <cc:Agent>
            <dc:title>Franziska Sponsel</dc:title>
          </cc:Agent>
        </dc:creator>
        <dc:rights>
          <cc:Agent>
            <dc:title>Franziska Sponsel</dc:title>
          </cc:Agent>
        </dc:rights>
        <dc:publisher>
          <cc:Agent>
            <dc:title>RRZE</dc:title>
          </cc:Agent>
        </dc:publisher>
        <dc:subject>
          <rdf:Bag>
            <rdf:li>expired</rdf:li>
            <rdf:li>time</rdf:li>
            <rdf:li>out of time</rdf:li>
          </rdf:Bag>
        </dc:subject>
        <dc:contributor>
          <cc:Agent>
            <dc:title>Ute Weber</dc:title>
          </cc:Agent>
        </dc:contributor>
        <cc:license rdf:resource="http://creativecommons.org/licenses/by-sa/3.0/"/>
      </cc:Work>
      <cc:License rdf:about="http://creativecommons.org/licenses/by-sa/3.0/">
        <cc:permits rdf:resource="http://creativecommons.org/ns#Reproduction"/>
        <cc:permits rdf:resource="http://creativecommons.org/ns#Distribution"/>
        <cc:requires rdf:resource="http://creativecommons.org/ns#Notice"/>
        <cc:requires rdf:resource="http://creativecommons.org/ns#Attribution"/>
        <cc:permits rdf:resource="http://creativecommons.org/ns#DerivativeWorks"/>
        <cc:requires rdf:resource="http://creativecommons.org/ns#ShareAlike"/>
      </cc:License>
    </rdf:RDF>
  </metadata>
  <g inkscape:label="Ebene 1" inkscape:groupmode="layer" id="layer1">
    <g id="g5857">
      <rect y="149.50504" x="17.142857" height="711.42859" width="711.42859" id="rect2987" style="opacity:0.55199998;fill:none;stroke:none"/>
      <path transform="matrix(1.0622895,-0.86437122,0.86437122,1.0622895,-423.67633,328.68143)" d="m 598.01031,470.51431 a 232.33508,232.33508 0 1 1 -464.67016,0 232.33508,232.33508 0 1 1 464.67016,0 z" sodipodi:ry="232.33508" sodipodi:rx="232.33508" sodipodi:cy="470.51431" sodipodi:cx="365.67523" id="path5733" style="fill:none;stroke:#a40000;stroke-width:18.03339195;stroke-miterlimit:4;stroke-dasharray:none" sodipodi:type="arc"/>
      <path transform="matrix(0.74235001,-0.60404061,0.60404061,0.74235001,-184.19308,384.02108)" sodipodi:type="arc" style="fill:none;stroke:#a40000;stroke-width:25.80545807;stroke-miterlimit:4;stroke-dasharray:none" id="path5735" sodipodi:cx="365.67523" sodipodi:cy="470.51431" sodipodi:rx="232.33508" sodipodi:ry="232.33508" d="m 598.01031,470.51431 a 232.33508,232.33508 0 1 1 -464.67016,0 232.33508,232.33508 0 1 1 464.67016,0 z"/>
      <rect transform="matrix(0.77566316,-0.6311471,0.6311471,0.77566316,0,0)" y="539.61749" x="-394.47507" height="184.6145" width="716.00488" id="rect5739" style="fill:#a40000;stroke:#a40000;stroke-width:22.22744942;stroke-linecap:round;stroke-linejoin:round;stroke-miterlimit:4;stroke-opacity:1;stroke-dasharray:none;stroke-dashoffset:22.80179958"/>
      <rect style="fill:url(#linearGradient5847);stroke:url(#linearGradient5855);stroke-width:22.22744941999999924;stroke-linecap:round;stroke-linejoin:round;stroke-miterlimit:4;stroke-opacity:1;stroke-dasharray:none;stroke-dashoffset:22.80179958000000084;fill-opacity:1;opacity:0.48876404000000001" id="rect5839" width="716.00488" height="184.6145" x="-394.47507" y="539.61749" transform="matrix(0.77566316,-0.6311471,0.6311471,0.77566316,0,0)"/>
      <g id="flowRoot5743" style="font-size:144px;font-style:normal;font-weight:bold;line-height:125%;letter-spacing:0px;word-spacing:0px;fill:#ffffff;fill-opacity:1;stroke:none;font-family:Sans;-inkscape-font-specification:Sans Bold" transform="matrix(0.73971209,-0.60189417,0.60189417,0.73971209,-210.9708,27.717441)">
        <path style="fill:#ffffff;fill-opacity:1" inkscape:connector-curvature="0" id="path5752" d="m -186.78125,722.33657 73.05469,0 0,20.46093 -45.98438,0 0,19.54688 43.24219,0 0,20.46094 -43.24219,0 0,24.04687 47.53125,0 0,20.46094 -74.60156,0 0,-104.97656"/>
        <path style="fill:#ffffff;fill-opacity:1" inkscape:connector-curvature="0" id="path5754" d="m -29.84375,773.735 36.421875,53.57813 -28.195312,0 -24.539063,-35.85938 -24.328125,35.85938 -28.335937,0 36.421875,-53.57813 -35.015625,-51.39843 28.265625,0 22.992187,33.82031 22.921875,-33.82031 28.40625,0 -35.015625,51.39843"/>
        <path style="fill:#ffffff;fill-opacity:1" inkscape:connector-curvature="0" id="path5756" d="m 22.75,722.33657 44.929687,0 c 13.359304,10e-5 23.601481,2.97666 30.726563,8.92968 7.17178,5.90634 10.75771,14.34384 10.75781,25.3125 -1e-4,11.01569 -3.58603,19.50006 -10.75781,25.45313 -7.125082,5.90629 -17.367259,8.85941 -30.726563,8.85937 l -17.859375,0 0,36.42188 -27.070312,0 0,-104.97656 m 27.070312,19.61718 0,29.32032 14.976563,0 c 5.249939,5e-5 9.304623,-1.26557 12.164062,-3.79688 2.859305,-2.57806 4.288991,-6.21087 4.289063,-10.89844 -7.2e-5,-4.68742 -1.429758,-8.29679 -4.289063,-10.82812 -2.859439,-2.53117 -6.914123,-3.79679 -12.164062,-3.79688 l -14.976563,0"/>
        <path style="fill:#ffffff;fill-opacity:1" inkscape:connector-curvature="0" id="path5758" d="m 128.21875,722.33657 27.07031,0 0,104.97656 -27.07031,0 0,-104.97656"/>
        <path style="fill:#ffffff;fill-opacity:1" inkscape:connector-curvature="0" id="path5760" d="m 220.39844,768.88344 c 5.67182,6e-5 9.7265,-1.05463 12.16406,-3.16406 2.48431,-2.10931 3.72649,-5.57806 3.72656,-10.40625 -7e-5,-4.78117 -1.24225,-8.20305 -3.72656,-10.26563 -2.43756,-2.06241 -6.49224,-3.09366 -12.16406,-3.09375 l -11.39063,0 0,26.92969 11.39063,0 m -11.39063,18.70313 0,39.72656 -27.07031,0 0,-104.97656 41.34375,0 c 13.82806,10e-5 23.95305,2.32041 30.375,6.96093 6.46866,4.64072 9.70303,11.97665 9.70312,22.00782 -9e-5,6.93757 -1.68759,12.63287 -5.0625,17.08593 -3.32821,4.45318 -8.36726,7.73443 -15.11718,9.84375 3.70304,0.8438 7.00773,2.76568 9.91406,5.76563 2.95304,2.95316 5.9296,7.45316 8.92969,13.5 l 14.69531,29.8125 -28.82813,0 -12.79687,-26.08594 c -2.57819,-5.24997 -5.20319,-8.8359 -7.875,-10.75781 -2.62506,-1.92184 -6.14068,-2.88277 -10.54688,-2.88281 l -7.66406,0"/>
        <path style="fill:#ffffff;fill-opacity:1" inkscape:connector-curvature="0" id="path5762" d="m 292.75,722.33657 73.05469,0 0,20.46093 -45.98438,0 0,19.54688 43.24219,0 0,20.46094 -43.24219,0 0,24.04687 47.53125,0 0,20.46094 -74.60156,0 0,-104.97656"/>
        <path style="fill:#ffffff;fill-opacity:1" inkscape:connector-curvature="0" id="path5764" d="m 418.25781,742.7975 0,64.05469 9.70313,0 c 11.06244,2e-5 19.49993,-2.74216 25.3125,-8.22656 5.85929,-5.48434 8.78898,-13.45308 8.78906,-23.90625 -8e-5,-10.40619 -2.90633,-18.32805 -8.71875,-23.76563 -5.81257,-5.43741 -14.2735,-8.15616 -25.38281,-8.15625 l -9.70313,0 m -27.07031,-20.46093 28.54687,0 c 15.93745,10e-5 27.79681,1.14854 35.57813,3.44531 7.82804,2.2501 14.53116,6.09384 20.10937,11.53125 4.92178,4.73446 8.57802,10.19539 10.96875,16.38281 2.39052,6.18757 3.58583,13.19537 3.58594,21.02344 -1.1e-4,7.92192 -1.19542,15.00004 -3.58594,21.23437 -2.39073,6.18753 -6.04697,11.64846 -10.96875,16.38282 -5.62509,5.43751 -12.37508,9.30469 -20.25,11.60156 -7.87506,2.25 -19.68755,3.375 -35.4375,3.375 l -28.54687,0 0,-104.97656"/>
      </g>
    </g>
  </g>
</svg>
