<?xml version="1.0" encoding="UTF-8" standalone="no"?>
<!-- Created with Inkscape (http://www.inkscape.org/) -->
<svg xmlns:dc="http://purl.org/dc/elements/1.1/" xmlns:cc="http://creativecommons.org/ns#" xmlns:rdf="http://www.w3.org/1999/02/22-rdf-syntax-ns#" xmlns:svg="http://www.w3.org/2000/svg" xmlns="http://www.w3.org/2000/svg" xmlns:xlink="http://www.w3.org/1999/xlink" xmlns:sodipodi="http://sodipodi.sourceforge.net/DTD/sodipodi-0.dtd" xmlns:inkscape="http://www.inkscape.org/namespaces/inkscape" height="297mm" id="svg2" inkscape:export-xdpi="90.159554" inkscape:export-ydpi="90.159554" inkscape:output_extension="org.inkscape.output.svg.inkscape" inkscape:version="0.48.0 r9654" sodipodi:version="0.32" width="210mm" version="1.1">
  <title id="title3821">indefinite</title>
  <defs id="defs4">
    <linearGradient inkscape:collect="always" id="linearGradient3892">
      <stop style="stop-color:#000000;stop-opacity:1;" offset="0" id="stop3894"/>
      <stop style="stop-color:#000000;stop-opacity:0;" offset="1" id="stop3896"/>
    </linearGradient>
    <linearGradient inkscape:collect="always" id="linearGradient3876">
      <stop style="stop-color:#ffffff;stop-opacity:1;" offset="0" id="stop3878"/>
      <stop style="stop-color:#ffffff;stop-opacity:0;" offset="1" id="stop3880"/>
    </linearGradient>
    <linearGradient id="linearGradient8488">
      <stop style="stop-color:#ffffff;stop-opacity:0;" offset="0" id="stop8490"/>
      <stop style="stop-color:#ffffff;stop-opacity:1;" offset="0.49027923" id="stop8492"/>
      <stop style="stop-color:#ffffff;stop-opacity:0.43333334;" offset="0.9375" id="stop8494"/>
      <stop style="stop-color:#ffffff;stop-opacity:0;" offset="1" id="stop8496"/>
    </linearGradient>
    <linearGradient id="linearGradient3177">
      <stop id="stop3187" offset="0" style="stop-color:#ffffff;stop-opacity:0;"/>
      <stop id="stop3200" offset="0.4375" style="stop-color:#ffffff;stop-opacity:1;"/>
      <stop id="stop3191" offset="0.9375" style="stop-color:#ffffff;stop-opacity:0.43333334;"/>
      <stop id="stop3181" offset="1" style="stop-color:#ffffff;stop-opacity:0;"/>
    </linearGradient>
    <linearGradient id="linearGradient3167">
      <stop id="stop3169" offset="0" style="stop-color:#ffffff;stop-opacity:1;"/>
      <stop id="stop3171" offset="1" style="stop-color:#ffffff;stop-opacity:0;"/>
    </linearGradient>
    <inkscape:perspective id="perspective10" inkscape:persp3d-origin="372.04724 : 350.78739 : 1" inkscape:vp_x="0 : 526.18109 : 1" inkscape:vp_y="0 : 1000 : 0" inkscape:vp_z="744.09448 : 526.18109 : 1" sodipodi:type="inkscape:persp3d"/>
    <linearGradient gradientUnits="userSpaceOnUse" id="linearGradient3198" inkscape:collect="always" x1="356.35681" x2="425.96066" xlink:href="#linearGradient3177" y1="164.76173" y2="646.65405"/>
    <linearGradient gradientTransform="matrix(1.031913,0,0,0.9606757,-10.760168,19.498309)" gradientUnits="userSpaceOnUse" id="linearGradient3946" inkscape:collect="always" x1="337.49271" x2="416.38455" xlink:href="#linearGradient3167" y1="402.10623" y2="645.40979"/>
    <linearGradient inkscape:collect="always" xlink:href="#linearGradient3167" id="linearGradient4926" gradientUnits="userSpaceOnUse" gradientTransform="matrix(1.031913,0,0,0.9606757,-10.760168,19.498309)" x1="337.49271" y1="402.10623" x2="416.38455" y2="645.40979"/>
    <linearGradient inkscape:collect="always" xlink:href="#linearGradient3876" id="linearGradient3882" x1="-1383.1449" y1="317.96378" x2="-1333.9869" y2="421.77826" gradientUnits="userSpaceOnUse"/>
    <radialGradient inkscape:collect="always" xlink:href="#linearGradient3892" id="radialGradient3898" cx="387.89859" cy="672.5448" fx="387.89859" fy="672.5448" r="373.75644" gradientTransform="matrix(1,0,0,0.2054054,0,534.40047)" gradientUnits="userSpaceOnUse"/>
    <linearGradient inkscape:collect="always" xlink:href="#linearGradient3876" id="linearGradient3900" gradientUnits="userSpaceOnUse" x1="-1383.1449" y1="317.96378" x2="-1333.9869" y2="421.77826"/>
    <linearGradient inkscape:collect="always" xlink:href="#linearGradient3876" id="linearGradient3902" gradientUnits="userSpaceOnUse" x1="-1383.1449" y1="317.96378" x2="-1333.9869" y2="421.77826"/>
  </defs>
  <sodipodi:namedview bordercolor="#666666" borderopacity="1.0" id="base" inkscape:current-layer="layer1" inkscape:cx="595.34291" inkscape:cy="490.27893" inkscape:document-units="px" inkscape:guide-bbox="true" inkscape:pageopacity="0.0" inkscape:pageshadow="2" inkscape:window-height="712" inkscape:window-width="1280" inkscape:window-x="0" inkscape:window-y="0" inkscape:zoom="0.49497475" pagecolor="#ffffff" showgrid="false" showguides="true" inkscape:snap-grids="false" inkscape:snap-to-guides="false" inkscape:snap-nodes="false" inkscape:snap-global="false" inkscape:window-maximized="0">
    <sodipodi:guide id="guide3155" orientation="1,0" position="12.857143,127.14286"/>
    <sodipodi:guide id="guide3157" orientation="0,1" position="-87.142857,191.42857"/>
    <sodipodi:guide id="guide3159" orientation="1,0" position="731.42857,96.428572"/>
    <sodipodi:guide id="guide3161" orientation="0,1" position="780.71429,910"/>
    <sodipodi:guide orientation="1,0" position="374.28571,371.42857" id="guide3809"/>
    <sodipodi:guide orientation="0,1" position="-331.42857,545.71429" id="guide3811"/>
  </sodipodi:namedview>
  <metadata id="metadata7">
    <rdf:RDF>
      <cc:Work rdf:about="">
        <dc:format>image/svg+xml</dc:format>
        <dc:type rdf:resource="http://purl.org/dc/dcmitype/StillImage"/>
        <cc:license rdf:resource="http://creativecommons.org/licenses/by-sa/3.0/"/>
        <dc:title>indefinite</dc:title>
        <dc:date>June 2013</dc:date>
        <dc:creator>
          <cc:Agent>
            <dc:title>Franziska Sponsel</dc:title>
          </cc:Agent>
        </dc:creator>
        <dc:rights>
          <cc:Agent>
            <dc:title>Franziska Sponsel</dc:title>
          </cc:Agent>
        </dc:rights>
        <dc:publisher>
          <cc:Agent>
            <dc:title>RRZE</dc:title>
          </cc:Agent>
        </dc:publisher>
        <dc:subject>
          <rdf:Bag>
            <rdf:li>indefinite</rdf:li>
          </rdf:Bag>
        </dc:subject>
        <dc:contributor>
          <cc:Agent>
            <dc:title>Florian Loeffler, Hendrik Eggers</dc:title>
          </cc:Agent>
        </dc:contributor>
      </cc:Work>
      <cc:License rdf:about="http://creativecommons.org/licenses/by-sa/3.0/">
        <cc:permits rdf:resource="http://creativecommons.org/ns#Reproduction"/>
        <cc:permits rdf:resource="http://creativecommons.org/ns#Distribution"/>
        <cc:requires rdf:resource="http://creativecommons.org/ns#Notice"/>
        <cc:requires rdf:resource="http://creativecommons.org/ns#Attribution"/>
        <cc:permits rdf:resource="http://creativecommons.org/ns#DerivativeWorks"/>
        <cc:requires rdf:resource="http://creativecommons.org/ns#ShareAlike"/>
      </cc:License>
    </rdf:RDF>
  </metadata>
  <g id="layer1" inkscape:groupmode="layer" inkscape:label="Ebene 1">
    <g id="g3904">
      <rect height="718.72583" id="rect2383" style="fill:none;stroke:none" width="718.72583" x="13.351353" y="142.85638"/>
      <path transform="matrix(0.94054054,0,0,1,8.962716,107.07617)" d="m 761.65503,672.5448 a 373.75644,76.771591 0 1 1 -747.512879,0 373.75644,76.771591 0 1 1 747.512879,0 z" sodipodi:ry="76.771591" sodipodi:rx="373.75644" sodipodi:cy="672.5448" sodipodi:cx="387.89859" id="path3890" style="fill:url(#radialGradient3898);fill-opacity:1;stroke:none;opacity:0.61038961" sodipodi:type="arc"/>
      <g transform="translate(0,144)" id="g3884">
        <g id="g3864" style="font-size:144px;font-style:normal;font-weight:normal;line-height:125%;letter-spacing:0px;word-spacing:0px;fill:#888a85;fill-opacity:1;stroke:#2e3436;stroke-width:2.99752021;stroke-miterlimit:4;stroke-opacity:1;font-family:Sans" transform="matrix(7.6354976,0,0,4.5383628,10515.886,-1209.6921)">
          <path inkscape:connector-curvature="0" id="path3866" d="m -1324.2266,382.28969 c 2.2968,4.12504 5.0156,7.24222 8.1563,9.35156 3.1405,2.10941 6.6796,3.16409 10.6172,3.16407 4.7343,2e-5 8.6014,-1.57029 11.6015,-4.71094 2.9999,-3.18747 4.4999,-7.24215 4.5,-12.16406 -10e-5,-4.73433 -1.3829,-8.67183 -4.1484,-11.8125 -2.7657,-3.14057 -6.2345,-4.71088 -10.4063,-4.71094 -3.8438,6e-5 -7.336,1.59381 -10.4765,4.78125 -3.0938,3.14068 -6.3751,8.50786 -9.8438,16.10156 m -8.5781,-7.52344 c -2.2969,-4.12494 -5.0157,-7.21869 -8.1562,-9.28125 -3.0938,-2.06244 -6.6329,-3.09369 -10.6172,-3.09375 -4.7813,6e-5 -8.6719,1.54694 -11.6719,4.64063 -2.9531,3.0938 -4.4297,7.12505 -4.4297,12.09375 0,4.73441 1.3828,8.67191 4.1484,11.8125 2.7656,3.14065 6.2344,4.71096 10.4063,4.71094 3.8437,2e-5 7.3359,-1.59373 10.4766,-4.78125 3.1405,-3.18747 6.4218,-8.55465 9.8437,-16.10157 m 4.9922,12.86719 c -3.2813,6.32815 -6.7735,10.99221 -10.4766,13.99219 -3.6563,2.95314 -7.6875,4.4297 -12.0937,4.42969 -6.375,1e-5 -11.7422,-2.60155 -16.1016,-7.80469 -4.3594,-5.24997 -6.5391,-11.76559 -6.539,-19.54688 -10e-5,-8.20307 1.9453,-14.83588 5.8359,-19.89843 3.9375,-5.06244 9.0468,-7.59368 15.3281,-7.59375 4.4531,7e-5 8.4609,1.47663 12.0235,4.42968 3.6093,2.95319 7.1015,7.66412 10.4765,14.13282 3.1875,-6.4687 6.6328,-11.2265 10.336,-14.27344 3.703,-3.09368 7.828,-4.64056 12.375,-4.64063 6.2811,7e-5 11.6249,2.64851 16.0312,7.94532 4.4062,5.25005 6.6093,11.78911 6.6094,19.61718 -10e-5,8.20316 -1.9689,14.81253 -5.9063,19.82813 -3.8907,5.01564 -8.9766,7.52345 -15.2578,7.52344 -4.4063,1e-5 -8.3672,-1.3828 -11.8828,-4.14844 -3.4688,-2.81248 -7.0547,-7.47654 -10.7578,-13.99219" style="fill:#888a85"/>
        </g>
        <g transform="matrix(7.2357012,0,0,3.9116053,9984.7498,-972.49086)" style="font-size:144px;font-style:normal;font-weight:normal;line-height:125%;letter-spacing:0px;word-spacing:0px;fill:url(#linearGradient3902);fill-opacity:1;stroke:none;font-family:Sans" id="flowRoot3030">
          <path d="m -1316.3495,396.80615 c 3.7687,3.01327 7.6568,4.19707 11.5944,4.19705 4.7343,2e-5 10.5559,-2.7324 13.556,-5.87305 2.9999,-3.18747 6.0357,-10.72845 5.8961,-17.07071 -0.1041,-4.73041 -1.5679,-12.61616 -6.1727,-18.01038 -2.7417,-3.21173 -7.84,-4.96918 -12.0118,-4.96918 -3.8438,0 -7.7548,3.01415 -10.8953,6.20159 -3.0938,3.14068 -6.2355,7.73313 -12.0077,21.78296 3.2042,6.7075 6.9003,11.63238 10.041,13.74172 z m -26.2867,-37.51903 c -3.0938,-2.06244 -5.865,-3.09369 -9.8493,-3.09375 -4.7813,6e-5 -9.9982,1.80518 -13.5566,5.93185 -4.2794,4.25591 -5.6164,11.3861 -5.6164,16.3548 0,4.73441 -0.1529,10.47962 5.4049,17.36477 2.6963,3.34034 5.8854,5.87306 10.0573,5.87304 3.8437,2e-5 7.7546,0.8596 14.2459,-6.45984 3.1405,-3.18747 7.05,-11.65359 11.4492,-21.26648 -4.5306,-9.41896 -8.9945,-12.64183 -12.135,-14.70439 z m 4.9055,41.17641 c -4.6912,4.81173 -9.8514,6.62478 -14.2576,6.62477 -6.375,10e-6 -10.6951,-2.85979 -15.0545,-8.06293 -4.3594,-5.24997 -6.6089,-12.79858 -6.6088,-20.57987 -10e-5,-8.20307 2.2245,-15.86886 6.1151,-20.93141 3.9375,-5.06244 9.0468,-7.20631 15.3281,-7.20638 4.4531,7e-5 9.1347,2.74452 12.5121,6.36652 5.2904,5.67355 6.9619,10.37569 10.3369,16.84439 2.4197,-6.08133 6.7178,-13.86486 10.336,-17.24325 3.7965,-3.54487 7.828,-6.5774 12.375,-6.57747 6.2811,7e-5 12.0437,2.51938 16.45,7.81619 4.4062,5.25005 6.7489,13.08034 6.749,20.90841 -10e-5,8.20316 -2.0387,15.84551 -5.9761,20.86111 -3.8907,5.01564 -7.7201,7.26521 -15.2578,7.65256 -4.4046,0.22635 -8.8468,-2.68002 -12.2318,-5.95615 -4.6651,-4.51512 -7.1245,-10.31723 -10.8276,-16.83288 -2.4465,4.48151 -5.7034,11.9217 -9.988,16.31639 z" id="path3807" inkscape:connector-curvature="0" style="fill:url(#linearGradient3900);fill-opacity:1;stroke:none" sodipodi:nodetypes="cscsssccccccssscccssccccscsccccsscs"/>
        </g>
      </g>
    </g>
  </g>
</svg>
