<?xml version="1.0" encoding="UTF-8" standalone="no"?>
<!-- Created with Inkscape (http://www.inkscape.org/) -->
<svg xmlns:dc="http://purl.org/dc/elements/1.1/" xmlns:cc="http://creativecommons.org/ns#" xmlns:rdf="http://www.w3.org/1999/02/22-rdf-syntax-ns#" xmlns:svg="http://www.w3.org/2000/svg" xmlns="http://www.w3.org/2000/svg" xmlns:xlink="http://www.w3.org/1999/xlink" xmlns:sodipodi="http://sodipodi.sourceforge.net/DTD/sodipodi-0.dtd" xmlns:inkscape="http://www.inkscape.org/namespaces/inkscape" width="744.09448819" height="1052.3622047" id="svg2" version="1.1" inkscape:version="0.48.2 r9819" enable-background="new" inkscape:export-xdpi="2.1300001" inkscape:export-ydpi="2.1300001">
  <title id="title4087">traffic light</title>
  <defs id="defs4">
    <linearGradient inkscape:collect="always" id="linearGradient3877">
      <stop style="stop-color:#ffffff;stop-opacity:1;" offset="0" id="stop3879"/>
      <stop style="stop-color:#ffffff;stop-opacity:0;" offset="1" id="stop3881"/>
    </linearGradient>
    <linearGradient id="linearGradient3857">
      <stop style="stop-color:#555753;stop-opacity:1;" offset="0" id="stop3859"/>
      <stop style="stop-color:#d3d7cf;stop-opacity:1;" offset="1" id="stop3861"/>
    </linearGradient>
    <linearGradient id="linearGradient3849">
      <stop style="stop-color:#d3d7cf;stop-opacity:1;" offset="0" id="stop3851"/>
      <stop style="stop-color:#d3d7cf;stop-opacity:1;" offset="1" id="stop3853"/>
    </linearGradient>
    <linearGradient id="linearGradient3837">
      <stop style="stop-color:#2e3436;stop-opacity:0.98701298;" offset="0" id="stop3839"/>
      <stop id="stop3845" offset="0.5" style="stop-color:#2e3436;stop-opacity:0.49411765;"/>
      <stop style="stop-color:#2e3436;stop-opacity:0;" offset="1" id="stop3841"/>
    </linearGradient>
    <linearGradient inkscape:collect="always" xlink:href="#linearGradient3857" id="linearGradient3863" x1="240.44699" y1="724.68518" x2="467.18732" y2="260.31741" gradientUnits="userSpaceOnUse"/>
    <linearGradient inkscape:collect="always" xlink:href="#linearGradient3877" id="linearGradient3888" gradientUnits="userSpaceOnUse" x1="327.16779" y1="259.90906" x2="385.72797" y2="419.11963"/>
    <linearGradient inkscape:collect="always" xlink:href="#linearGradient3877" id="linearGradient3892" gradientUnits="userSpaceOnUse" x1="327.16779" y1="259.90906" x2="385.72797" y2="419.11963" gradientTransform="matrix(0.94214876,0,0,0.94214876,6.7937689,134.15584)"/>
    <linearGradient inkscape:collect="always" xlink:href="#linearGradient3877" id="linearGradient3896" gradientUnits="userSpaceOnUse" gradientTransform="matrix(0.94214876,0,0,0.94214876,4.4949183,297.37423)" x1="327.16779" y1="259.90906" x2="385.72797" y2="419.11963"/>
    <filter inkscape:collect="always" id="filter3974">
      <feGaussianBlur inkscape:collect="always" stdDeviation="8.7903443" id="feGaussianBlur3976"/>
    </filter>
    <filter inkscape:collect="always" id="filter4093">
      <feBlend inkscape:collect="always" mode="lighten" in2="BackgroundImage" id="feBlend4095"/>
    </filter>
    <linearGradient inkscape:collect="always" xlink:href="#linearGradient3877" id="linearGradient4117" gradientUnits="userSpaceOnUse" gradientTransform="matrix(0.94214876,0,0,0.94214876,4.4949183,297.37423)" x1="327.16779" y1="259.90906" x2="385.72797" y2="419.11963"/>
    <linearGradient inkscape:collect="always" xlink:href="#linearGradient3877" id="linearGradient4120" gradientUnits="userSpaceOnUse" gradientTransform="matrix(0.94214876,0,0,0.94214876,6.7937689,134.15584)" x1="327.16779" y1="259.90906" x2="385.72797" y2="419.11963"/>
    <linearGradient inkscape:collect="always" xlink:href="#linearGradient3877" id="linearGradient4123" gradientUnits="userSpaceOnUse" x1="327.16779" y1="259.90906" x2="385.72797" y2="419.11963" gradientTransform="matrix(0.94214876,0,0,0.94214876,5.6443436,-30.211972)"/>
    <linearGradient inkscape:collect="always" xlink:href="#linearGradient3857" id="linearGradient4132" gradientUnits="userSpaceOnUse" x1="240.44699" y1="724.68518" x2="467.18732" y2="260.31741"/>
    <linearGradient inkscape:collect="always" xlink:href="#linearGradient3857" id="linearGradient4315" gradientUnits="userSpaceOnUse" x1="240.44699" y1="724.68518" x2="467.18732" y2="260.31741"/>
    <linearGradient inkscape:collect="always" xlink:href="#linearGradient3877" id="linearGradient4317" gradientUnits="userSpaceOnUse" gradientTransform="matrix(0.94214876,0,0,0.94214876,5.6443436,-30.211972)" x1="327.16779" y1="259.90906" x2="385.72797" y2="419.11963"/>
    <linearGradient inkscape:collect="always" xlink:href="#linearGradient3877" id="linearGradient4319" gradientUnits="userSpaceOnUse" gradientTransform="matrix(0.94214876,0,0,0.94214876,6.7937689,134.15584)" x1="327.16779" y1="259.90906" x2="385.72797" y2="419.11963"/>
    <linearGradient inkscape:collect="always" xlink:href="#linearGradient3877" id="linearGradient4321" gradientUnits="userSpaceOnUse" gradientTransform="matrix(0.94214876,0,0,0.94214876,4.4949183,297.37423)" x1="327.16779" y1="259.90906" x2="385.72797" y2="419.11963"/>
    <linearGradient inkscape:collect="always" xlink:href="#linearGradient3857" id="linearGradient4354" gradientUnits="userSpaceOnUse" x1="240.44699" y1="724.68518" x2="467.18732" y2="260.31741"/>
    <linearGradient inkscape:collect="always" xlink:href="#linearGradient3877" id="linearGradient4356" gradientUnits="userSpaceOnUse" gradientTransform="matrix(0.94214876,0,0,0.94214876,5.6443436,-30.211972)" x1="327.16779" y1="259.90906" x2="385.72797" y2="419.11963"/>
    <linearGradient inkscape:collect="always" xlink:href="#linearGradient3877" id="linearGradient4358" gradientUnits="userSpaceOnUse" gradientTransform="matrix(0.94214876,0,0,0.94214876,6.7937689,134.15584)" x1="327.16779" y1="259.90906" x2="385.72797" y2="419.11963"/>
    <linearGradient inkscape:collect="always" xlink:href="#linearGradient3877" id="linearGradient4360" gradientUnits="userSpaceOnUse" gradientTransform="matrix(0.94214876,0,0,0.94214876,4.4949183,297.37423)" x1="327.16779" y1="259.90906" x2="385.72797" y2="419.11963"/>
    <linearGradient inkscape:collect="always" xlink:href="#linearGradient3857" id="linearGradient4400" gradientUnits="userSpaceOnUse" x1="240.44699" y1="724.68518" x2="467.18732" y2="260.31741"/>
    <linearGradient inkscape:collect="always" xlink:href="#linearGradient3877" id="linearGradient4402" gradientUnits="userSpaceOnUse" gradientTransform="matrix(0.94214876,0,0,0.94214876,5.6443436,-30.211972)" x1="327.16779" y1="259.90906" x2="385.72797" y2="419.11963"/>
    <linearGradient inkscape:collect="always" xlink:href="#linearGradient3877" id="linearGradient4404" gradientUnits="userSpaceOnUse" gradientTransform="matrix(0.94214876,0,0,0.94214876,6.7937689,134.15584)" x1="327.16779" y1="259.90906" x2="385.72797" y2="419.11963"/>
    <linearGradient inkscape:collect="always" xlink:href="#linearGradient3877" id="linearGradient4406" gradientUnits="userSpaceOnUse" gradientTransform="matrix(0.94214876,0,0,0.94214876,4.4949183,297.37423)" x1="327.16779" y1="259.90906" x2="385.72797" y2="419.11963"/>
    <linearGradient inkscape:collect="always" xlink:href="#linearGradient3857" id="linearGradient4437" gradientUnits="userSpaceOnUse" x1="240.44699" y1="724.68518" x2="467.18732" y2="260.31741"/>
    <linearGradient inkscape:collect="always" xlink:href="#linearGradient3877" id="linearGradient4439" gradientUnits="userSpaceOnUse" gradientTransform="matrix(0.94214876,0,0,0.94214876,5.6443436,-30.211972)" x1="327.16779" y1="259.90906" x2="385.72797" y2="419.11963"/>
    <linearGradient inkscape:collect="always" xlink:href="#linearGradient3877" id="linearGradient4441" gradientUnits="userSpaceOnUse" gradientTransform="matrix(0.94214876,0,0,0.94214876,6.7937689,134.15584)" x1="327.16779" y1="259.90906" x2="385.72797" y2="419.11963"/>
    <linearGradient inkscape:collect="always" xlink:href="#linearGradient3877" id="linearGradient4443" gradientUnits="userSpaceOnUse" gradientTransform="matrix(0.94214876,0,0,0.94214876,4.4949183,297.37423)" x1="327.16779" y1="259.90906" x2="385.72797" y2="419.11963"/>
    <linearGradient inkscape:collect="always" xlink:href="#linearGradient3857" id="linearGradient4473" gradientUnits="userSpaceOnUse" x1="240.44699" y1="724.68518" x2="467.18732" y2="260.31741"/>
    <linearGradient inkscape:collect="always" xlink:href="#linearGradient3877" id="linearGradient4475" gradientUnits="userSpaceOnUse" gradientTransform="matrix(0.94214876,0,0,0.94214876,5.6443436,-30.211972)" x1="327.16779" y1="259.90906" x2="385.72797" y2="419.11963"/>
    <linearGradient inkscape:collect="always" xlink:href="#linearGradient3877" id="linearGradient4477" gradientUnits="userSpaceOnUse" gradientTransform="matrix(0.94214876,0,0,0.94214876,6.7937689,134.15584)" x1="327.16779" y1="259.90906" x2="385.72797" y2="419.11963"/>
    <linearGradient inkscape:collect="always" xlink:href="#linearGradient3877" id="linearGradient4479" gradientUnits="userSpaceOnUse" gradientTransform="matrix(0.94214876,0,0,0.94214876,4.4949183,297.37423)" x1="327.16779" y1="259.90906" x2="385.72797" y2="419.11963"/>
    <linearGradient inkscape:collect="always" xlink:href="#linearGradient3877" id="linearGradient4482" gradientUnits="userSpaceOnUse" gradientTransform="matrix(0.94214876,0,0,0.94214876,14.494918,285.37423)" x1="327.16779" y1="259.90906" x2="385.72797" y2="419.11963"/>
    <linearGradient inkscape:collect="always" xlink:href="#linearGradient3877" id="linearGradient4485" gradientUnits="userSpaceOnUse" gradientTransform="matrix(0.94214876,0,0,0.94214876,16.793769,122.15584)" x1="327.16779" y1="259.90906" x2="385.72797" y2="419.11963"/>
    <linearGradient inkscape:collect="always" xlink:href="#linearGradient3877" id="linearGradient4488" gradientUnits="userSpaceOnUse" gradientTransform="matrix(0.94214876,0,0,0.94214876,15.644344,-42.211972)" x1="327.16779" y1="259.90906" x2="385.72797" y2="419.11963"/>
    <linearGradient inkscape:collect="always" xlink:href="#linearGradient3857" id="linearGradient4497" gradientUnits="userSpaceOnUse" x1="240.44699" y1="724.68518" x2="467.18732" y2="260.31741" gradientTransform="translate(10,-12)"/>
  </defs>
  <sodipodi:namedview id="base" pagecolor="#ffffff" bordercolor="#666666" borderopacity="1.0" inkscape:pageopacity="0.0" inkscape:pageshadow="2" inkscape:zoom="0.6151829" inkscape:cx="494.08105" inkscape:cy="498.62072" inkscape:document-units="px" inkscape:current-layer="layer1" showgrid="false" showguides="true" inkscape:guide-bbox="true" inkscape:snap-global="false" inkscape:window-width="1262" inkscape:window-height="709" inkscape:window-x="0" inkscape:window-y="0" inkscape:window-maximized="0">
    <sodipodi:guide orientation="1,0" position="77.777778,562.96296" id="guide2987"/>
    <sodipodi:guide orientation="0,1" position="298.14815,853.7037" id="guide2989"/>
    <sodipodi:guide orientation="1,0" position="640.74074,548.14815" id="guide2991"/>
    <sodipodi:guide orientation="0,1" position="333.33333,290.74074" id="guide2993"/>
    <sodipodi:guide orientation="1,0" position="367.81609,464.36782" id="guide2995"/>
    <inkscape:grid type="xygrid" id="grid4516"/>
  </sodipodi:namedview>
  <metadata id="metadata7">
    <rdf:RDF>
      <cc:Work rdf:about="">
        <dc:format>image/svg+xml</dc:format>
        <dc:type rdf:resource="http://purl.org/dc/dcmitype/StillImage"/>
        <dc:title>traffic light</dc:title>
        <dc:date>Oct 2014</dc:date>
        <dc:creator>
          <cc:Agent>
            <dc:title>Johannes Hechler</dc:title>
          </cc:Agent>
        </dc:creator>
        <dc:rights>
          <cc:Agent>
            <dc:title>Johannes Hechler</dc:title>
          </cc:Agent>
        </dc:rights>
        <dc:publisher>
          <cc:Agent>
            <dc:title>RRZE</dc:title>
          </cc:Agent>
        </dc:publisher>
        <dc:subject>
          <rdf:Bag>
            <rdf:li>traffic light</rdf:li>
            <rdf:li>street</rdf:li>
            <rdf:li>red</rdf:li>
            <rdf:li>yellow</rdf:li>
            <rdf:li>green</rdf:li>
          </rdf:Bag>
        </dc:subject>
        <dc:contributor>
          <cc:Agent>
            <dc:title>Franziska Sponsel</dc:title>
          </cc:Agent>
        </dc:contributor>
        <cc:license rdf:resource="http://creativecommons.org/licenses/by-sa/3.0/"/>
      </cc:Work>
      <cc:License rdf:about="http://creativecommons.org/licenses/by-sa/3.0/">
        <cc:permits rdf:resource="http://creativecommons.org/ns#Reproduction"/>
        <cc:permits rdf:resource="http://creativecommons.org/ns#Distribution"/>
        <cc:requires rdf:resource="http://creativecommons.org/ns#Notice"/>
        <cc:requires rdf:resource="http://creativecommons.org/ns#Attribution"/>
        <cc:permits rdf:resource="http://creativecommons.org/ns#DerivativeWorks"/>
        <cc:requires rdf:resource="http://creativecommons.org/ns#ShareAlike"/>
      </cc:License>
    </rdf:RDF>
  </metadata>
  <g inkscape:label="Layer 1" inkscape:groupmode="layer" id="layer1" style="filter:url(#filter4093)">
    <g id="g4518">
      <path id="rect2985" d="m 77.14286,198.07646 562.85712,0 0,562.85712 -562.85712,0 z" style="opacity:0.65517243;fill:none;stroke:none" inkscape:connector-curvature="0"/>
      <path id="rect3912" d="m 263.70037,227.14536 211.42531,0 c 21.59145,0 38.97373,17.38228 38.97373,38.97373 l 0,462.48826 c 0,21.59145 -17.38228,38.97374 -38.97373,38.97374 l -211.42531,0 c -21.59145,0 -38.97373,-17.38229 -38.97373,-38.97374 l 0,-462.48826 c 0,-21.59145 17.38228,-38.97373 38.97373,-38.97373 z" style="opacity:0.84482757;fill:#2e3436;stroke:#2e3436;stroke-width:15.7084713;stroke-miterlimit:4;stroke-opacity:1;filter:url(#filter3974)" transform="matrix(0.92373452,0,0,0.92989513,36.673514,19.338606)" inkscape:connector-curvature="0"/>
      <path id="rect3765" d="m 269.60633,209.04399 198.92373,0 c 20.79316,0 37.53278,16.73962 37.53278,37.53278 l 0,445.38897 c 0,20.79316 -16.73962,37.53278 -37.53278,37.53278 l -198.92373,0 c -20.79316,0 -37.53278,-16.73962 -37.53278,-37.53278 l 0,-445.38897 c 0,-20.79316 16.73962,-37.53278 37.53278,-37.53278 z" style="opacity:0.65517243;fill:#888a85;stroke:#000000;stroke-width:15;stroke-miterlimit:4;stroke-opacity:1" inkscape:connector-curvature="0"/>
      <path id="rect3786" d="m 269.60633,209.04399 198.92373,0 c 20.79316,0 37.53278,16.73962 37.53278,37.53278 l 0,445.38897 c 0,20.79316 -16.73962,37.53278 -37.53278,37.53278 l -198.92373,0 c -20.79316,0 -37.53278,-16.73962 -37.53278,-37.53278 l 0,-445.38897 c 0,-20.79316 16.73962,-37.53278 37.53278,-37.53278 z" style="opacity:0.65517243;fill:#888a85;stroke:#000000;stroke-width:15;stroke-miterlimit:4;stroke-opacity:1" inkscape:connector-curvature="0"/>
      <path id="rect3788" d="m 269.60633,209.04399 198.92373,0 c 20.79316,0 37.53278,16.73962 37.53278,37.53278 l 0,445.38897 c 0,20.79316 -16.73962,37.53278 -37.53278,37.53278 l -198.92373,0 c -20.79316,0 -37.53278,-16.73962 -37.53278,-37.53278 l 0,-445.38897 c 0,-20.79316 16.73962,-37.53278 37.53278,-37.53278 z" style="opacity:0.65517243;fill:#888a85;stroke:#000000;stroke-width:15;stroke-miterlimit:4;stroke-opacity:1" inkscape:connector-curvature="0"/>
      <path id="rect3790" d="m 269.60633,209.04399 198.92373,0 c 20.79316,0 37.53278,16.73962 37.53278,37.53278 l 0,445.38897 c 0,20.79316 -16.73962,37.53278 -37.53278,37.53278 l -198.92373,0 c -20.79316,0 -37.53278,-16.73962 -37.53278,-37.53278 l 0,-445.38897 c 0,-20.79316 16.73962,-37.53278 37.53278,-37.53278 z" style="opacity:0.65517243;fill:#888a85;stroke:#000000;stroke-width:15;stroke-miterlimit:4;stroke-opacity:1" inkscape:connector-curvature="0"/>
      <path id="rect3792" d="m 269.60633,209.04399 198.92373,0 c 20.79316,0 37.53278,16.73962 37.53278,37.53278 l 0,445.38897 c 0,20.79316 -16.73962,37.53278 -37.53278,37.53278 l -198.92373,0 c -20.79316,0 -37.53278,-16.73962 -37.53278,-37.53278 l 0,-445.38897 c 0,-20.79316 16.73962,-37.53278 37.53278,-37.53278 z" style="opacity:0.65517243;fill:#888a85;stroke:#000000;stroke-width:15;stroke-miterlimit:4;stroke-opacity:1" inkscape:connector-curvature="0"/>
      <path id="rect3794" d="m 269.60633,209.04399 198.92373,0 c 20.79316,0 37.53278,16.73962 37.53278,37.53278 l 0,445.38897 c 0,20.79316 -16.73962,37.53278 -37.53278,37.53278 l -198.92373,0 c -20.79316,0 -37.53278,-16.73962 -37.53278,-37.53278 l 0,-445.38897 c 0,-20.79316 16.73962,-37.53278 37.53278,-37.53278 z" style="opacity:0.65517243;fill:#888a85;stroke:#000000;stroke-width:15;stroke-miterlimit:4;stroke-opacity:1" inkscape:connector-curvature="0"/>
      <path id="rect3796" d="m 269.60633,209.04399 198.92373,0 c 20.79316,0 37.53278,16.73962 37.53278,37.53278 l 0,445.38897 c 0,20.79316 -16.73962,37.53278 -37.53278,37.53278 l -198.92373,0 c -20.79316,0 -37.53278,-16.73962 -37.53278,-37.53278 l 0,-445.38897 c 0,-20.79316 16.73962,-37.53278 37.53278,-37.53278 z" style="opacity:0.65517243;fill:#888a85;stroke:#000000;stroke-width:15;stroke-miterlimit:4;stroke-opacity:1" inkscape:connector-curvature="0"/>
      <path id="rect3798" d="m 269.60633,209.04399 198.92373,0 c 20.79316,0 37.53278,16.73962 37.53278,37.53278 l 0,445.38897 c 0,20.79316 -16.73962,37.53278 -37.53278,37.53278 l -198.92373,0 c -20.79316,0 -37.53278,-16.73962 -37.53278,-37.53278 l 0,-445.38897 c 0,-20.79316 16.73962,-37.53278 37.53278,-37.53278 z" style="opacity:0.65517243;fill:#888a85;stroke:#000000;stroke-width:15;stroke-miterlimit:4;stroke-opacity:1" inkscape:connector-curvature="0"/>
      <path id="rect3800" d="m 269.60633,209.04399 198.92373,0 c 20.79316,0 37.53278,16.73962 37.53278,37.53278 l 0,445.38897 c 0,20.79316 -16.73962,37.53278 -37.53278,37.53278 l -198.92373,0 c -20.79316,0 -37.53278,-16.73962 -37.53278,-37.53278 l 0,-445.38897 c 0,-20.79316 16.73962,-37.53278 37.53278,-37.53278 z" style="opacity:0.65517243;fill:#888a85;stroke:#000000;stroke-width:15;stroke-miterlimit:4;stroke-opacity:1" inkscape:connector-curvature="0"/>
      <path id="rect3804" d="m 269.60633,209.04399 198.92373,0 c 20.79316,0 37.53278,16.73962 37.53278,37.53278 l 0,445.38897 c 0,20.79316 -16.73962,37.53278 -37.53278,37.53278 l -198.92373,0 c -20.79316,0 -37.53278,-16.73962 -37.53278,-37.53278 l 0,-445.38897 c 0,-20.79316 16.73962,-37.53278 37.53278,-37.53278 z" style="opacity:0.65517243;fill:#888a85;stroke:#000000;stroke-width:15;stroke-miterlimit:4;stroke-opacity:1" inkscape:connector-curvature="0"/>
      <path id="rect3806" d="m 269.60633,209.04399 198.92373,0 c 20.79316,0 37.53278,16.73962 37.53278,37.53278 l 0,445.38897 c 0,20.79316 -16.73962,37.53278 -37.53278,37.53278 l -198.92373,0 c -20.79316,0 -37.53278,-16.73962 -37.53278,-37.53278 l 0,-445.38897 c 0,-20.79316 16.73962,-37.53278 37.53278,-37.53278 z" style="opacity:0.65517243;fill:#888a85;stroke:#000000;stroke-width:15;stroke-miterlimit:4;stroke-opacity:1" inkscape:connector-curvature="0"/>
      <path id="rect3808" d="m 269.60633,209.04399 198.92373,0 c 20.79316,0 37.53278,16.73962 37.53278,37.53278 l 0,445.38897 c 0,20.79316 -16.73962,37.53278 -37.53278,37.53278 l -198.92373,0 c -20.79316,0 -37.53278,-16.73962 -37.53278,-37.53278 l 0,-445.38897 c 0,-20.79316 16.73962,-37.53278 37.53278,-37.53278 z" style="opacity:0.65517243;fill:#888a85;stroke:#000000;stroke-width:15;stroke-miterlimit:4;stroke-opacity:1" inkscape:connector-curvature="0"/>
      <path id="rect3810" d="m 269.60633,209.04399 198.92373,0 c 20.79316,0 37.53278,16.73962 37.53278,37.53278 l 0,445.38897 c 0,20.79316 -16.73962,37.53278 -37.53278,37.53278 l -198.92373,0 c -20.79316,0 -37.53278,-16.73962 -37.53278,-37.53278 l 0,-445.38897 c 0,-20.79316 16.73962,-37.53278 37.53278,-37.53278 z" style="opacity:0.65517243;fill:#888a85;stroke:#000000;stroke-width:15;stroke-miterlimit:4;stroke-opacity:1" inkscape:connector-curvature="0"/>
      <path id="rect3812" d="m 269.60633,209.04399 198.92373,0 c 20.79316,0 37.53278,16.73962 37.53278,37.53278 l 0,445.38897 c 0,20.79316 -16.73962,37.53278 -37.53278,37.53278 l -198.92373,0 c -20.79316,0 -37.53278,-16.73962 -37.53278,-37.53278 l 0,-445.38897 c 0,-20.79316 16.73962,-37.53278 37.53278,-37.53278 z" style="opacity:0.65517243;fill:#888a85;stroke:#000000;stroke-width:15;stroke-miterlimit:4;stroke-opacity:1" inkscape:connector-curvature="0"/>
      <path id="rect3814" d="m 269.60633,209.04399 198.92373,0 c 20.79316,0 37.53278,16.73962 37.53278,37.53278 l 0,445.38897 c 0,20.79316 -16.73962,37.53278 -37.53278,37.53278 l -198.92373,0 c -20.79316,0 -37.53278,-16.73962 -37.53278,-37.53278 l 0,-445.38897 c 0,-20.79316 16.73962,-37.53278 37.53278,-37.53278 z" style="opacity:0.65517243;fill:#888a85;stroke:#000000;stroke-width:15;stroke-miterlimit:4;stroke-opacity:1" inkscape:connector-curvature="0"/>
      <path id="rect3816" d="m 269.60633,209.04399 198.92373,0 c 20.79316,0 37.53278,16.73962 37.53278,37.53278 l 0,445.38897 c 0,20.79316 -16.73962,37.53278 -37.53278,37.53278 l -198.92373,0 c -20.79316,0 -37.53278,-16.73962 -37.53278,-37.53278 l 0,-445.38897 c 0,-20.79316 16.73962,-37.53278 37.53278,-37.53278 z" style="opacity:0.65517243;fill:#888a85;stroke:#000000;stroke-width:15;stroke-miterlimit:4;stroke-opacity:1" inkscape:connector-curvature="0"/>
      <path id="rect3818" d="m 265.59472,216.99886 206.78971,0 c 13.73919,0 24.79999,11.06079 24.79999,24.79998 l 0,454.41645 c 0,13.73919 -11.0608,24.79998 -24.79999,24.79998 l -206.78971,0 c -13.73919,0 -24.79998,-11.06079 -24.79998,-24.79998 l 0,-454.41645 c 0,-13.73919 11.06079,-24.79998 24.79998,-24.79998 z" style="fill:url(#linearGradient4497);fill-opacity:1;stroke:#eeeeec;stroke-width:8.28168774;stroke-miterlimit:4;stroke-opacity:1" inkscape:connector-curvature="0"/>
      <path id="path3898" d="m 445.852,312.38519 c 0,39.60656 -32.10747,71.71403 -71.71405,71.71403 -39.60657,0 -71.71404,-32.10747 -71.71404,-71.71403 0,-39.60658 32.10747,-71.71405 71.71404,-71.71405 39.60658,0 71.71405,32.10747 71.71405,71.71405 z" style="fill:#555753;fill-opacity:1;stroke:#2e3436;stroke-width:8.2500782;stroke-linecap:square;stroke-linejoin:round;stroke-miterlimit:4;stroke-opacity:1" inkscape:connector-curvature="0"/>
      <path id="path3869" d="m 437.67817,304.38518 c 0,38.406 -31.13422,69.54022 -69.54023,69.54022 -38.40601,0 -69.54023,-31.13422 -69.54023,-69.54022 0,-38.40601 31.13422,-69.54023 69.54023,-69.54023 38.40601,0 69.54023,31.13422 69.54023,69.54023 z" style="fill:#ef2929;fill-opacity:1;stroke:#555753;stroke-width:8;stroke-linecap:square;stroke-linejoin:round;stroke-miterlimit:4;stroke-opacity:1" inkscape:connector-curvature="0"/>
      <path id="path3908" d="m 445.852,472.15531 c 0,39.60656 -32.10747,71.71403 -71.71405,71.71403 -39.60657,0 -71.71404,-32.10747 -71.71404,-71.71403 0,-39.60658 32.10747,-71.71405 71.71404,-71.71405 39.60658,0 71.71405,32.10747 71.71405,71.71405 z" style="fill:#555753;fill-opacity:1;stroke:#2e3436;stroke-width:8.2500782;stroke-linecap:square;stroke-linejoin:round;stroke-miterlimit:4;stroke-opacity:1" inkscape:connector-curvature="0"/>
      <path id="path3871" d="m 438.52874,468.15528 c 0,38.406 -31.13422,69.54022 -69.54023,69.54022 -38.40601,0 -69.54023,-31.13422 -69.54023,-69.54022 0,-38.40601 31.13422,-69.54023 69.54023,-69.54023 38.40601,0 69.54023,31.13422 69.54023,69.54023 z" style="fill:#fce94f;fill-opacity:1;stroke:#555753;stroke-width:8;stroke-linecap:square;stroke-linejoin:round;stroke-miterlimit:4;stroke-opacity:1" inkscape:connector-curvature="0"/>
      <path id="path3910" d="m 445.852,638.82198 c 0,39.60656 -32.10747,71.71403 -71.71405,71.71403 -39.60657,0 -71.71404,-32.10747 -71.71404,-71.71403 0,-39.60658 32.10747,-71.71405 71.71404,-71.71405 39.60658,0 71.71405,32.10747 71.71405,71.71405 z" style="fill:#555753;fill-opacity:1;stroke:#2e3436;stroke-width:8.2500782;stroke-linecap:square;stroke-linejoin:round;stroke-miterlimit:4;stroke-opacity:1" inkscape:connector-curvature="0"/>
      <path id="path3873" d="m 437.37932,632.3392 c 0,38.406 -31.13422,69.54022 -69.54023,69.54022 -38.40601,0 -69.54023,-31.13422 -69.54023,-69.54022 0,-38.40601 31.13422,-69.54023 69.54023,-69.54023 38.40601,0 69.54023,31.13422 69.54023,69.54023 z" style="fill:#8ae234;fill-opacity:1;stroke:#555753;stroke-width:8;stroke-linecap:square;stroke-linejoin:round;stroke-miterlimit:4;stroke-opacity:1" inkscape:connector-curvature="0"/>
      <path sodipodi:nodetypes="sccsss" inkscape:connector-curvature="0" id="path3875" d="m 433.65518,304.38518 c 0,12.20652 -9.15133,33.4175 -9.15133,33.4175 -35.1305,-57.56054 -62.76554,1.48513 -114.73603,-3.63059 0,0 -7.14712,-19.06071 -7.14712,-29.78691 0,-36.18418 29.33307,-65.51724 65.51724,-65.51724 36.18417,0 65.51724,29.33306 65.51724,65.51724 z" style="fill:url(#linearGradient4488);fill-opacity:1;stroke:none"/>
      <path style="fill:url(#linearGradient4485);fill-opacity:1;stroke:none" d="m 434.80461,468.75299 c 0,12.20653 -9.15134,33.41751 -9.15134,33.41751 -35.13049,-57.56054 -62.76554,1.48513 -114.73602,-3.6306 0,0 -7.14713,-19.0607 -7.14713,-29.78691 0,-36.18417 29.33307,-65.51724 65.51725,-65.51724 36.18417,0 65.51724,29.33307 65.51724,65.51724 z" id="path3890" inkscape:connector-curvature="0" sodipodi:nodetypes="sccsss"/>
      <path sodipodi:nodetypes="sccsss" inkscape:connector-curvature="0" id="path3894" d="m 432.50576,631.97138 c 0,12.20653 -9.15134,33.41751 -9.15134,33.41751 -35.13049,-57.56054 -62.76554,1.48513 -114.73602,-3.6306 0,0 -7.14713,-19.0607 -7.14713,-29.78691 0,-36.18417 29.33307,-65.51724 65.51725,-65.51724 36.18417,0 65.51724,29.33307 65.51724,65.51724 z" style="fill:url(#linearGradient4482);fill-opacity:1;stroke:none"/>
    </g>
  </g>
</svg>
