<?xml version="1.0" encoding="UTF-8" standalone="no"?>
<!-- Created with Inkscape (http://www.inkscape.org/) -->

<svg
   xmlns:dc="http://purl.org/dc/elements/1.1/"
   xmlns:cc="http://creativecommons.org/ns#"
   xmlns:rdf="http://www.w3.org/1999/02/22-rdf-syntax-ns#"
   xmlns:svg="http://www.w3.org/2000/svg"
   xmlns="http://www.w3.org/2000/svg"
   xmlns:xlink="http://www.w3.org/1999/xlink"
   xmlns:sodipodi="http://sodipodi.sourceforge.net/DTD/sodipodi-0.dtd"
   xmlns:inkscape="http://www.inkscape.org/namespaces/inkscape"
   width="210mm"
   height="297mm"
   viewBox="0 0 744.09448819 1052.3622047"
   id="svg2"
   version="1.1"
   inkscape:version="0.91 r13725"
   inkscape:export-xdpi="162"
   inkscape:export-ydpi="162"
   sodipodi:docname="database-tap-drop.svg"
   inkscape:export-filename="C:\Users\johannes\Documents\Arbeit\RRZE\github3\bicons\720x720\devices\database-tap-drop.png">
  <title
     id="title4159">database tap drop</title>
  <defs
     id="defs4">
    <linearGradient
       gradientTransform="translate(190,322.36222)"
       inkscape:collect="always"
       xlink:href="#linearGradient4269"
       id="linearGradient4275"
       x1="36.360001"
       y1="400"
       x2="381.82147"
       y2="0"
       gradientUnits="userSpaceOnUse" />
    <linearGradient
       inkscape:collect="always"
       id="linearGradient4269">
      <stop
         style="stop-color:#4e505d;stop-opacity:1;"
         offset="0"
         id="stop4271" />
      <stop
         style="stop-color:#7a859c;stop-opacity:1"
         offset="1"
         id="stop4273" />
    </linearGradient>
  </defs>
  <sodipodi:namedview
     id="base"
     pagecolor="#ffffff"
     bordercolor="#666666"
     borderopacity="1.0"
     inkscape:pageopacity="0.0"
     inkscape:pageshadow="2"
     inkscape:zoom="0.70710678"
     inkscape:cx="108.95938"
     inkscape:cy="503.52154"
     inkscape:document-units="px"
     inkscape:current-layer="layer1"
     showgrid="false"
     showguides="true"
     inkscape:guide-bbox="true"
     inkscape:window-width="1366"
     inkscape:window-height="721"
     inkscape:window-x="-4"
     inkscape:window-y="-4"
     inkscape:window-maximized="1"
     inkscape:snap-bbox="true"
     inkscape:bbox-paths="true"
     inkscape:bbox-nodes="true">
    <sodipodi:guide
       position="560,730.00002"
       orientation="0,1"
       id="guide3338" />
    <sodipodi:guide
       position="560,330.00001"
       orientation="0,1"
       id="guide3340" />
    <sodipodi:guide
       position="190,475.00001"
       orientation="1,0"
       id="guide3344" />
    <sodipodi:guide
       position="590,451.00001"
       orientation="1,0"
       id="guide3346" />
    <inkscape:grid
       type="xygrid"
       id="grid3440" />
  </sodipodi:namedview>
  <metadata
     id="metadata7">
    <rdf:RDF>
      <cc:Work
         rdf:about="">
        <dc:format>image/svg+xml</dc:format>
        <dc:type
           rdf:resource="http://purl.org/dc/dcmitype/StillImage" />
        <dc:title>database tap drop</dc:title>
        <dc:date>June 2015</dc:date>
        <dc:creator>
          <cc:Agent>
            <dc:title>Johannes Hechler</dc:title>
          </cc:Agent>
        </dc:creator>
        <dc:rights>
          <cc:Agent>
            <dc:title>Johannes Hechler</dc:title>
          </cc:Agent>
        </dc:rights>
        <dc:publisher>
          <cc:Agent>
            <dc:title>RRZE</dc:title>
          </cc:Agent>
        </dc:publisher>
        <dc:contributor>
          <cc:Agent>
            <dc:title>Ute Weber, Hendrik Eggers, Joanna Barbach</dc:title>
          </cc:Agent>
        </dc:contributor>
        <cc:license
           rdf:resource="http://creativecommons.org/licenses/by-sa/3.0/" />
        <dc:subject>
          <rdf:Bag>
            <rdf:li>database</rdf:li>
            <rdf:li>symbol</rdf:li>
            <rdf:li>icon</rdf:li>
            <rdf:li>tap</rdf:li>
            <rdf:li>drop</rdf:li>
          </rdf:Bag>
        </dc:subject>
      </cc:Work>
      <cc:License
         rdf:about="http://creativecommons.org/licenses/by-sa/3.0/">
        <cc:permits
           rdf:resource="http://creativecommons.org/ns#Reproduction" />
        <cc:permits
           rdf:resource="http://creativecommons.org/ns#Distribution" />
        <cc:requires
           rdf:resource="http://creativecommons.org/ns#Notice" />
        <cc:requires
           rdf:resource="http://creativecommons.org/ns#Attribution" />
        <cc:permits
           rdf:resource="http://creativecommons.org/ns#DerivativeWorks" />
        <cc:requires
           rdf:resource="http://creativecommons.org/ns#ShareAlike" />
      </cc:License>
    </rdf:RDF>
  </metadata>
  <g
     inkscape:label="Ebene 1"
     inkscape:groupmode="layer"
     id="layer1">
    <rect
       style="opacity:1;fill:none;fill-opacity:1;stroke:none;stroke-width:23;stroke-linecap:butt;stroke-linejoin:round;stroke-miterlimit:4;stroke-dasharray:none;stroke-opacity:1"
       id="rect4160"
       width="400"
       height="400"
       x="190"
       y="322.36221" />
    <path
       style="color:#000000;clip-rule:nonzero;display:inline;overflow:visible;visibility:visible;opacity:1;isolation:auto;mix-blend-mode:normal;color-interpolation:sRGB;color-interpolation-filters:linearRGB;solid-color:#000000;solid-opacity:1;fill:url(#linearGradient4275);fill-opacity:1;fill-rule:nonzero;stroke:none;stroke-width:36;stroke-linecap:butt;stroke-linejoin:round;stroke-miterlimit:4;stroke-dasharray:none;stroke-dashoffset:0;stroke-opacity:1;color-rendering:auto;image-rendering:auto;shape-rendering:auto;text-rendering:auto;enable-background:accumulate"
       d="M 390 322.36133 C 289.58236 322.36141 208.17828 350.85004 208.17969 385.99219 C 208.18169 421.13358 289.58453 449.62101 390 449.62109 C 398.03328 449.62112 405.92757 449.41985 413.68555 449.06641 C 420.0957 438.66541 431.60284 431.61914 444.51758 431.61914 L 516.66797 431.61914 C 550.66731 420.05739 571.82141 403.89317 571.82227 385.99219 C 571.75027 384.6969 571.56533 383.40267 571.26758 382.11133 C 570.98101 380.47215 570.51321 378.83746 569.86523 377.21094 C 557.35775 345.79389 480.64031 322.39904 390 322.36133 z M 208.17969 422.16602 L 208.17969 477.08594 C 208.46019 509.21408 276.76043 535.70641 365.26953 539.92188 C 366.21213 538.89147 367.16974 537.87322 368.16016 536.88281 C 390.58281 514.46016 423.33725 504.33985 462.69727 504.33984 L 462.87891 504.33984 L 462.87891 503.98047 L 444.51758 503.98047 C 424.78325 503.98047 408.33789 487.53083 408.33789 467.79883 C 408.33789 467.63649 408.34739 467.47633 408.34961 467.31445 C 402.30862 467.51578 396.19158 467.62305 390 467.62305 C 338.0894 467.62305 291.08566 460.43227 255.48828 447.97461 C 237.68959 441.74578 222.67629 434.2947 210.99414 424.62891 C 210.0348 423.83515 209.10099 423.00734 208.17969 422.16602 z M 571.82227 422.16602 C 570.90097 423.00734 569.96716 423.83515 569.00781 424.62891 C 564.01714 428.75818 558.41402 432.48064 552.25 435.87891 C 563.68212 442.01294 571.59766 454.11338 571.59766 467.79883 C 571.59766 487.53083 555.15229 503.98047 535.41797 503.98047 L 517.05859 503.98047 L 517.05859 504.33984 L 554.05859 504.33984 C 565.43034 496.02964 571.80227 486.72165 571.80273 476.89258 L 571.80273 504.33984 L 571.82227 504.33984 L 571.82227 422.16602 z M 444.27344 467.55469 C 444.27994 467.54818 444.33789 467.59311 444.33789 467.79883 C 444.33789 468.21027 444.10846 467.98047 444.51758 467.98047 L 480.87891 467.98047 A 18.0018 18.0018 0 0 1 489.96484 470.46875 A 18.0018 18.0018 0 0 1 499.05859 467.98047 L 535.41797 467.98047 C 535.82708 467.98047 535.59766 468.21027 535.59766 467.79883 C 535.59766 467.38739 535.82941 467.61914 535.41797 467.61914 L 444.51758 467.61914 C 444.31186 467.61914 444.26693 467.56119 444.27344 467.55469 z M 208.17969 513.08398 L 208.17969 568.16406 C 208.42798 596.60291 261.96231 620.63654 335.63867 628.70508 C 335.97022 601.10223 341.3841 576.84315 352.64844 557.24219 C 315.63004 554.66182 282.30595 548.26695 255.46875 538.875 C 237.67006 532.64617 222.65677 525.19509 210.97461 515.5293 C 210.022 514.74111 209.0947 513.9192 208.17969 513.08398 z M 520.16797 540.33984 C 486.99263 551.27813 444.60397 557.79354 397.89062 558.45703 C 396.39014 559.69467 394.96511 560.98802 393.61523 562.33789 C 382.38011 573.57302 375.05112 590.03326 372.59766 613.41992 L 391.72266 613.41992 C 394.16822 599.54193 399.64771 587.20435 409.06445 577.78711 C 422.39674 564.45411 441.5171 558.87891 462.69727 558.87891 L 571.82227 558.87891 L 571.82227 540.33984 L 520.16797 540.33984 z M 462.69727 594.87891 C 447.51743 594.87891 439.36873 598.39468 434.52148 603.24219 C 429.79299 607.97094 426.34059 615.86146 426.17383 630.33594 C 483.31082 626.29678 530.73105 612.88357 554.77734 594.87891 L 462.69727 594.87891 z M 571.80273 594.87891 L 571.80273 604.14453 C 570.88142 604.98585 569.94763 605.81366 568.98828 606.60742 C 557.30613 616.27321 542.29283 623.72429 524.49414 629.95312 C 493.72861 640.71983 454.43234 647.54273 410.82227 649.19922 A 18.0018 18.0018 0 0 1 408.1582 649.41992 L 403.4668 649.41992 L 415.91016 666.56055 A 18.0018 18.0018 0 0 1 416.79883 667.95117 C 422.73168 675.7636 426.14 685.23463 426.1582 695.10547 A 18.0018 18.0018 0 0 1 426.1582 695.13867 C 426.15786 704.98066 422.91583 714.13286 417.46484 721.59766 C 504.83839 716.96103 571.79926 690.56303 571.80078 658.69141 L 571.82227 658.69141 L 571.82227 594.87891 L 571.80273 594.87891 z M 208.17969 604.16211 L 208.17969 658.55469 C 208.17269 658.60029 208.16656 658.64579 208.16016 658.69141 C 208.16183 688.18631 265.51757 712.98664 343.31836 720.19727 C 338.46564 713.00151 335.61751 704.37164 335.61719 695.13867 A 18.0018 18.0018 0 0 1 335.61719 695.11328 C 335.63044 685.85727 338.62674 676.92923 343.89844 669.38086 A 18.0018 18.0018 0 0 1 345.30664 667.18359 L 358.85547 649.41992 L 353.61719 649.41992 A 18.0018 18.0018 0 0 1 346.25195 647.81836 C 311.79677 644.97276 280.74742 638.79965 255.46875 629.95312 C 237.67006 623.72429 222.65677 616.27321 210.97461 606.60742 C 210.022 605.81924 209.0947 604.99734 208.17969 604.16211 z M 381 679.75 L 374.10352 688.79102 A 18.0018 18.0018 0 0 1 373.6582 689.40234 C 372.33831 691.03808 371.62514 693.05853 371.61914 695.15039 C 371.62555 700.4348 375.54146 704.36162 380.88672 704.36133 A 18.0018 18.0018 0 0 0 380.88867 704.36133 C 386.23211 704.36124 390.1453 700.43616 390.1543 695.1543 C 390.14576 692.91594 389.33147 690.76713 387.83789 689.08398 A 18.0018 18.0018 0 0 1 386.14844 686.8418 L 381 679.75 z "
       id="rect4239" />
    <path
       inkscape:connector-curvature="0"
       style="color:#000000;clip-rule:nonzero;display:inline;overflow:visible;visibility:visible;opacity:1;isolation:auto;mix-blend-mode:normal;color-interpolation:sRGB;color-interpolation-filters:linearRGB;solid-color:#000000;solid-opacity:1;fill:none;fill-opacity:1;fill-rule:nonzero;stroke:none;stroke-width:36;stroke-linecap:butt;stroke-linejoin:round;stroke-miterlimit:4;stroke-dasharray:none;stroke-dashoffset:0;stroke-opacity:1;color-rendering:auto;image-rendering:auto;shape-rendering:auto;text-rendering:auto;enable-background:accumulate"
       d="m 190.00001,322.3622 400.00146,0 c 0,0 0,0 0,1e-5 l 0,399.99997 c 0,0 0,0 0,0 l -400.00146,0 c -1e-5,0 -1e-5,0 -1e-5,0 l 0,-399.99997 c 0,-1e-5 0,-1e-5 1e-5,-1e-5 z"
       id="rect4277" />
    <g
       id="g4175"
       transform="translate(-4.5736043e-6,30.056812)">
      <path
         inkscape:connector-curvature="0"
         id="rect4243"
         d="m 444.51758,419.56142 c -10.07172,0 -18.17969,8.10797 -18.17969,18.17969 0,10.07172 8.10797,18.18164 18.17969,18.18164 l 36.36133,0 0,36.35938 -18.18164,0 c -72.72001,1e-5 -109.08008,36.36009 -109.08008,109.08007 l 54.54102,0 c 0,-36.35999 18.17906,-54.541 54.53906,-54.54101 l 127.30273,0 0,-54.53906 -90.9414,0 0,-36.35938 36.35937,0 c 10.07172,0 18.17969,-8.10992 18.17969,-18.18164 0,-10.07172 -8.10797,-18.17969 -18.17969,-18.17969 l -90.90039,0 z"
         style="color:#000000;clip-rule:nonzero;display:inline;overflow:visible;visibility:visible;opacity:1;isolation:auto;mix-blend-mode:normal;color-interpolation:sRGB;color-interpolation-filters:linearRGB;solid-color:#000000;solid-opacity:1;fill:#99b000;fill-opacity:1;fill-rule:nonzero;stroke:none;stroke-width:50;stroke-linecap:butt;stroke-linejoin:round;stroke-miterlimit:4;stroke-dasharray:none;stroke-dashoffset:0;stroke-opacity:1;color-rendering:auto;image-rendering:auto;shape-rendering:auto;text-rendering:auto;enable-background:accumulate" />
      <path
         sodipodi:nodetypes="ccccccccc"
         inkscape:connector-curvature="0"
         id="path4252"
         d="m 381.35563,619.54525 -21.73633,28.49842 0.0312,0 c -3.89591,4.82817 -6.02432,10.83925 -6.0332,17.03906 5.3e-4,15.03539 12.21047,27.22348 27.27148,27.22266 15.06025,-2.5e-4 27.26901,-12.18803 27.26954,-27.22266 -0.0122,-6.63434 -2.45072,-13.03591 -6.85743,-18.00195 l 0.043,-0.002 z"
         style="color:#000000;clip-rule:nonzero;display:inline;overflow:visible;visibility:visible;opacity:1;isolation:auto;mix-blend-mode:normal;color-interpolation:sRGB;color-interpolation-filters:linearRGB;solid-color:#000000;solid-opacity:1;fill:#99b000;fill-opacity:1;fill-rule:nonzero;stroke:none;stroke-width:50;stroke-linecap:butt;stroke-linejoin:round;stroke-miterlimit:4;stroke-dasharray:none;stroke-dashoffset:0;stroke-opacity:1;color-rendering:auto;image-rendering:auto;shape-rendering:auto;text-rendering:auto;enable-background:accumulate" />
    </g>
  </g>
</svg>
