<?xml version="1.0" encoding="UTF-8" standalone="no"?>
<!-- Created with Inkscape (http://www.inkscape.org/) -->

<svg
   xmlns:dc="http://purl.org/dc/elements/1.1/"
   xmlns:cc="http://creativecommons.org/ns#"
   xmlns:rdf="http://www.w3.org/1999/02/22-rdf-syntax-ns#"
   xmlns:svg="http://www.w3.org/2000/svg"
   xmlns="http://www.w3.org/2000/svg"
   xmlns:sodipodi="http://sodipodi.sourceforge.net/DTD/sodipodi-0.dtd"
   xmlns:inkscape="http://www.inkscape.org/namespaces/inkscape"
   width="210mm"
   height="297mm"
   viewBox="0 0 744.09448819 1052.3622047"
   id="svg2"
   version="1.1"
   inkscape:version="0.91 r13725"
   sodipodi:docname="modem.svg"
   inkscape:export-filename="C:\Users\johannes\Documents\Arbeit\RRZE\bi-con\bi-con\scalable\documents\document.png"
   inkscape:export-xdpi="4"
   inkscape:export-ydpi="4">
  <defs
     id="defs4">
    <linearGradient
       id="linearGradient2224">
      <stop
         id="stop2226"
         offset="0"
         style="stop-color:#7c7c7c;stop-opacity:1;" />
      <stop
         id="stop2228"
         offset="1"
         style="stop-color:#b8b8b8;stop-opacity:1;" />
    </linearGradient>
    <linearGradient
       id="linearGradient15218">
      <stop
         id="stop15220"
         offset="0"
         style="stop-color:#eeeeef;stop-opacity:1;" />
      <stop
         id="stop2736"
         offset="0.59928656"
         style="stop-color:#d3d7cf;stop-opacity:1;" />
      <stop
         id="stop2738"
         offset="0.82758623"
         style="stop-color:#ffffff;stop-opacity:1;" />
      <stop
         id="stop15222"
         offset="1"
         style="stop-color:#d3d7cf;stop-opacity:1;" />
    </linearGradient>
    <pattern
       y="0"
       x="0"
       height="6"
       width="6"
       patternUnits="userSpaceOnUse"
       id="EMFhbasepattern" />
    <pattern
       y="0"
       x="0"
       height="6"
       width="6"
       patternUnits="userSpaceOnUse"
       id="EMFhbasepattern-5" />
  </defs>
  <sodipodi:namedview
     id="base"
     pagecolor="#ffffff"
     bordercolor="#666666"
     borderopacity="1.0"
     inkscape:pageopacity="0.0"
     inkscape:pageshadow="2"
     inkscape:zoom="0.70710678"
     inkscape:cx="269.34971"
     inkscape:cy="505.53631"
     inkscape:document-units="px"
     inkscape:current-layer="layer1"
     showgrid="false"
     showguides="true"
     inkscape:guide-bbox="true"
     inkscape:window-width="1366"
     inkscape:window-height="721"
     inkscape:window-x="-4"
     inkscape:window-y="-4"
     inkscape:window-maximized="1">
    <sodipodi:guide
       position="315.53572,730.17859"
       orientation="0,1"
       id="guide3338" />
    <sodipodi:guide
       position="351.25,330.17858"
       orientation="0,1"
       id="guide3340" />
    <sodipodi:guide
       position="189.10714,408.8393"
       orientation="1,0"
       id="guide3344" />
    <sodipodi:guide
       position="589.04521,468.07945"
       orientation="1,0"
       id="guide3346" />
    <inkscape:grid
       type="xygrid"
       id="grid3440" />
    <sodipodi:guide
       position="325.97622,721.95602"
       orientation="0,1"
       id="guide3405" />
    <sodipodi:guide
       position="197.63634,703.57124"
       orientation="1,0"
       id="guide3407" />
    <sodipodi:guide
       position="581.59532,337.75"
       orientation="0,1"
       id="guide3409" />
    <sodipodi:guide
       position="589.04521,378.30213"
       orientation="1,0"
       id="guide3411" />
    <sodipodi:guide
       position="580.1811,410.12193"
       orientation="1,0"
       id="guide3413" />
  </sodipodi:namedview>
  <metadata
     id="metadata7">
    <rdf:RDF>
      <cc:Work
         rdf:about="">
        <dc:format>image/svg+xml</dc:format>
        <dc:type
           rdf:resource="http://purl.org/dc/dcmitype/StillImage" />
        <dc:title></dc:title>
      </cc:Work>
    </rdf:RDF>
  </metadata>
  <g
     inkscape:label="Ebene 1"
     inkscape:groupmode="layer"
     id="layer1">
    <flowRoot
       xml:space="preserve"
       id="flowRoot4169"
       style="font-style:normal;font-weight:normal;font-size:40px;line-height:125%;font-family:sans-serif;letter-spacing:0px;word-spacing:0px;fill:#000000;fill-opacity:1;stroke:none;stroke-width:1px;stroke-linecap:butt;stroke-linejoin:miter;stroke-opacity:1"><flowRegion
         id="flowRegion4171"><rect
           id="rect4173"
           width="56.433445"
           height="88.78862"
           x="89.541069"
           y="427.07962" /></flowRegion><flowPara
         id="flowPara4175" /></flowRoot>    <rect
       style="fill:none;fill-rule:evenodd;stroke:none;stroke-width:1px;stroke-linecap:butt;stroke-linejoin:miter;stroke-opacity:1"
       id="rect3336"
       width="400"
       height="400"
       x="189.14485"
       y="322.27005"
       inkscape:export-xdpi="4.9499998"
       inkscape:export-ydpi="4.9499998" />
    <rect
       style="fill:none;fill-rule:evenodd;stroke:none;stroke-width:1px;stroke-linecap:butt;stroke-linejoin:miter;stroke-opacity:1"
       id="rect3336-7"
       width="157.80852"
       height="157.80852"
       x="422.61493"
       y="-715.66254"
       inkscape:export-xdpi="4.9499998"
       inkscape:export-ydpi="4.9499998"
       transform="scale(1,-1)" />
    <path
       style="fill:none;fill-opacity:1;fill-rule:evenodd;stroke:#ffffff;stroke-width:23;stroke-linecap:butt;stroke-linejoin:round;stroke-miterlimit:4;stroke-dasharray:none;stroke-opacity:1"
       d="m 503.17851,713.27024 c -1.29617,0 -2.59232,-0.8673 -4.32053,-2.60189 L 438.37053,639.5502 c -3.45642,-3.46918 -1.72821,-8.67294 5.18464,-8.67294 l 20.73855,0 0,-60.71063 c 0,-4.80481 3.85393,-8.67294 8.64107,-8.67294 l 60.48744,0 c 4.78714,0 8.64106,3.86813 8.64106,8.67294 l 0,60.71063 20.73856,0 c 6.91284,0 6.91284,6.93835 5.18463,8.67294 l -60.48744,71.11815 c -1.72822,1.73459 -3.02438,2.60189 -4.32053,2.60189 z"
       id="path4237-2"
       inkscape:connector-curvature="0" />
    <rect
       style="opacity:1;fill:#5a6578;fill-opacity:1;stroke:none;stroke-width:8.19999981;stroke-linecap:round;stroke-linejoin:round;stroke-miterlimit:4;stroke-dasharray:none;stroke-opacity:1"
       id="rect4178"
       width="383.00952"
       height="102.49999"
       x="197.17157"
       y="611.86218"
       ry="20.499992" />
    <rect
       style="opacity:1;fill:#5a6578;fill-opacity:1;stroke:none;stroke-width:8.19999981;stroke-linecap:round;stroke-linejoin:round;stroke-miterlimit:4;stroke-dasharray:none;stroke-opacity:1"
       id="rect4180"
       width="20"
       height="125"
       x="490"
       y="507.36221"
       ry="6.25" />
    <rect
       style="opacity:1;fill:#ffffff;fill-opacity:1;stroke:none;stroke-width:8.19999981;stroke-linecap:round;stroke-linejoin:round;stroke-miterlimit:4;stroke-dasharray:none;stroke-opacity:1"
       id="rect4182"
       width="30"
       height="30"
       x="220"
       y="642.36218"
       ry="15" />
    <rect
       style="opacity:1;fill:#ffffff;fill-opacity:1;stroke:none;stroke-width:8.19999981;stroke-linecap:round;stroke-linejoin:round;stroke-miterlimit:4;stroke-dasharray:none;stroke-opacity:1"
       id="rect4199"
       width="30"
       height="30"
       x="270"
       y="642.36218"
       ry="15" />
    <rect
       style="opacity:1;fill:#ffffff;fill-opacity:1;stroke:none;stroke-width:8.19999981;stroke-linecap:round;stroke-linejoin:round;stroke-miterlimit:4;stroke-dasharray:none;stroke-opacity:1"
       id="rect4201"
       width="30"
       height="30"
       x="320"
       y="642.36218"
       ry="15" />
    <rect
       style="opacity:1;fill:#ffffff;fill-opacity:1;stroke:none;stroke-width:8.19999981;stroke-linecap:round;stroke-linejoin:round;stroke-miterlimit:4;stroke-dasharray:none;stroke-opacity:1"
       id="rect4203"
       width="185"
       height="30.000023"
       x="375"
       y="642.36218"
       ry="13.93934" />
    <circle
       style="opacity:1;fill:#5a6578;fill-opacity:1;stroke:none;stroke-width:8.19999981;stroke-linecap:round;stroke-linejoin:round;stroke-miterlimit:4;stroke-dasharray:none;stroke-opacity:1"
       id="path4205"
       cx="500"
       cy="517.36218"
       r="20" />
    <path
       d="m 453.01566,469.14076 c -11.95438,11.97318 -18.53815,27.88387 -18.53815,44.80258 0,16.91756 6.58377,32.82939 18.53815,44.80371 2.3078,2.31065 6.05156,2.31407 8.36334,0.006 2.31122,-2.30722 2.31406,-6.05212 0.006,-8.36277 -9.72465,-9.7406 -15.08045,-22.6842 -15.08045,-36.44664 0,-13.76244 5.35523,-26.70604 15.08045,-36.44665 1.15276,-1.1539 1.72885,-2.66679 1.72885,-4.17797 0,-1.51459 -0.57894,-3.02919 -1.73512,-4.1848 -2.31178,-2.30779 -6.05554,-2.30495 -8.36334,0.007 z"
       id="path13"
       inkscape:connector-curvature="0"
       style="fill:#abbe24" />
    <path
       d="m 475.54139,497.13496 c 0,-1.51687 -0.58008,-3.03375 -1.73911,-4.18936 -2.31406,-2.30494 -6.05782,-2.29811 -8.36334,0.0143 -5.93189,5.95297 -9.19927,13.85931 -9.19927,22.26197 0,8.40265 3.26681,16.30785 9.19927,22.26082 2.30552,2.31407 6.04928,2.31919 8.36334,0.0142 2.31349,-2.30495 2.31919,-6.04985 0.0143,-8.36277 -3.70786,-3.72153 -5.75012,-8.66193 -5.75012,-13.91401 0,-5.25209 2.04226,-10.19248 5.75012,-13.91288 1.15048,-1.15276 1.72486,-2.66337 1.72486,-4.17227 z"
       id="path11"
       inkscape:connector-curvature="0"
       style="fill:#abbe24" />
    <path
       d="m 547.1246,469.37299 c 11.95438,11.97318 18.53815,27.88387 18.53815,44.80258 0,16.91756 -6.58377,32.82939 -18.53815,44.80371 -2.3078,2.31065 -6.05156,2.31407 -8.36334,0.006 -2.31122,-2.30722 -2.31406,-6.05212 -0.006,-8.36277 9.72465,-9.7406 15.08045,-22.6842 15.08045,-36.44664 0,-13.76244 -5.35523,-26.70604 -15.08045,-36.44665 -1.15276,-1.1539 -1.72885,-2.66679 -1.72885,-4.17797 0,-1.51459 0.57894,-3.02919 1.73512,-4.1848 2.31178,-2.30779 6.05554,-2.30495 8.36334,0.007 z"
       id="path13-5"
       inkscape:connector-curvature="0"
       style="fill:#abbe24" />
    <path
       d="m 524.59887,497.36719 c 0,-1.51687 0.58008,-3.03375 1.73911,-4.18936 2.31406,-2.30494 6.05782,-2.29811 8.36334,0.0143 5.93189,5.95297 9.19927,13.85931 9.19927,22.26197 0,8.40265 -3.26681,16.30785 -9.19927,22.26082 -2.30552,2.31407 -6.04928,2.31919 -8.36334,0.0142 -2.31349,-2.30495 -2.31919,-6.04985 -0.0143,-8.36277 3.70786,-3.72153 5.75012,-8.66193 5.75012,-13.91401 0,-5.25209 -2.04226,-10.19248 -5.75012,-13.91288 -1.15048,-1.15276 -1.72486,-2.66337 -1.72486,-4.17227 z"
       id="path11-8"
       inkscape:connector-curvature="0"
       style="fill:#abbe24" />
  </g>
</svg>
