<?xml version="1.0" encoding="UTF-8" standalone="no"?>
<!-- Created with Inkscape (http://www.inkscape.org/) -->

<svg
   xmlns:dc="http://purl.org/dc/elements/1.1/"
   xmlns:cc="http://creativecommons.org/ns#"
   xmlns:rdf="http://www.w3.org/1999/02/22-rdf-syntax-ns#"
   xmlns:svg="http://www.w3.org/2000/svg"
   xmlns="http://www.w3.org/2000/svg"
   xmlns:xlink="http://www.w3.org/1999/xlink"
   xmlns:sodipodi="http://sodipodi.sourceforge.net/DTD/sodipodi-0.dtd"
   xmlns:inkscape="http://www.inkscape.org/namespaces/inkscape"
   width="210mm"
   height="297mm"
   viewBox="0 0 744.09448819 1052.3622047"
   id="svg2"
   version="1.1"
   inkscape:version="0.91 r13725"
   inkscape:export-xdpi="4"
   inkscape:export-ydpi="4"
   sodipodi:docname="server-accounting.svg">
  <defs
     id="defs4">
    <linearGradient
       inkscape:collect="always"
       xlink:href="#linearGradient4259"
       id="linearGradient4265"
       x1="36.360001"
       y1="399.99997"
       x2="363.59998"
       y2="18.179979"
       gradientUnits="userSpaceOnUse"
       gradientTransform="translate(189.99854,322.36222)" />
    <linearGradient
       inkscape:collect="always"
       id="linearGradient4259">
      <stop
         style="stop-color:#4e505d;stop-opacity:1;"
         offset="0"
         id="stop4261" />
      <stop
         style="stop-color:#7a859c;stop-opacity:1"
         offset="1"
         id="stop4263" />
    </linearGradient>
  </defs>
  <sodipodi:namedview
     id="base"
     pagecolor="#ffffff"
     bordercolor="#666666"
     borderopacity="1.0"
     inkscape:pageopacity="0.0"
     inkscape:pageshadow="2"
     inkscape:zoom="0.70710678"
     inkscape:cx="283.35772"
     inkscape:cy="466.63031"
     inkscape:document-units="px"
     inkscape:current-layer="layer1"
     showgrid="false"
     showguides="true"
     inkscape:guide-bbox="true"
     inkscape:window-width="1600"
     inkscape:window-height="837"
     inkscape:window-x="-4"
     inkscape:window-y="-4"
     inkscape:window-maximized="1"
     inkscape:snap-bbox="true"
     inkscape:bbox-nodes="true">
    <sodipodi:guide
       position="560,730.00002"
       orientation="0,1"
       id="guide3338" />
    <sodipodi:guide
       position="560,330.00001"
       orientation="0,1"
       id="guide3340" />
    <sodipodi:guide
       position="190,475.00001"
       orientation="1,0"
       id="guide3344" />
    <sodipodi:guide
       position="590,451.00001"
       orientation="1,0"
       id="guide3346" />
    <inkscape:grid
       type="xygrid"
       id="grid3440" />
    <sodipodi:guide
       position="-111.01577,704.98548"
       orientation="0,1"
       id="guide4151" />
    <sodipodi:guide
       position="54.25,355.00001"
       orientation="0,1"
       id="guide4153" />
    <sodipodi:guide
       position="215,442.00001"
       orientation="1,0"
       id="guide4155" />
    <sodipodi:guide
       position="564.97832,467.39759"
       orientation="1,0"
       id="guide4157" />
  </sodipodi:namedview>
  <metadata
     id="metadata7">
    <rdf:RDF>
      <cc:Work
         rdf:about="">
        <dc:format>image/svg+xml</dc:format>
        <dc:type
           rdf:resource="http://purl.org/dc/dcmitype/StillImage" />
        <dc:title>server accounting</dc:title>
        <dc:date>June 2015</dc:date>
        <dc:creator>
          <cc:Agent>
            <dc:title>Johannes Hechler</dc:title>
          </cc:Agent>
        </dc:creator>
        <dc:rights>
          <cc:Agent>
            <dc:title>Johannes Hechler</dc:title>
          </cc:Agent>
        </dc:rights>
        <dc:publisher>
          <cc:Agent>
            <dc:title>RRZE</dc:title>
          </cc:Agent>
        </dc:publisher>
        <dc:contributor>
          <cc:Agent>
            <dc:title>Ute Weber, Hendrik Eggers, Joanna Barbach</dc:title>
          </cc:Agent>
        </dc:contributor>
        <dc:subject>
          <rdf:Bag>
            <rdf:li>server</rdf:li>
            <rdf:li>accounting</rdf:li>
            <rdf:li>application</rdf:li>
            <rdf:li>icon</rdf:li>
          </rdf:Bag>
        </dc:subject>
        <cc:license
           rdf:resource="http://creativecommons.org/licenses/by-sa/3.0/" />
      </cc:Work>
      <cc:License
         rdf:about="http://creativecommons.org/licenses/by-sa/3.0/">
        <cc:permits
           rdf:resource="http://creativecommons.org/ns#Reproduction" />
        <cc:permits
           rdf:resource="http://creativecommons.org/ns#Distribution" />
        <cc:requires
           rdf:resource="http://creativecommons.org/ns#Notice" />
        <cc:requires
           rdf:resource="http://creativecommons.org/ns#Attribution" />
        <cc:permits
           rdf:resource="http://creativecommons.org/ns#DerivativeWorks" />
        <cc:requires
           rdf:resource="http://creativecommons.org/ns#ShareAlike" />
      </cc:License>
    </rdf:RDF>
  </metadata>
  <g
     inkscape:label="Ebene 1"
     inkscape:groupmode="layer"
     id="layer1">
    <g
       id="g4226">
      <path
         inkscape:connector-curvature="0"
         id="rect4214"
         d="m 189.99854,322.3622 400.00146,0 0,399.99998 -400.00146,0 z"
         style="opacity:1;fill:none;fill-opacity:1;stroke:none;stroke-width:35;stroke-linejoin:round;stroke-miterlimit:4;stroke-dasharray:none;stroke-opacity:1" />
      <path
         id="rect4221"
         d="M 224.65234 336.36133 C 213.17567 336.36133 203.93555 345.60145 203.93555 357.07812 L 203.93555 419.22461 C 203.93555 430.70128 213.17567 439.94141 224.65234 439.94141 L 244.53711 439.94141 L 244.53711 470.79883 L 225.02734 470.79883 C 213.55067 470.79883 204.31055 480.03896 204.31055 491.51562 L 204.31055 553.66211 C 204.31055 565.13878 213.55067 574.37891 225.02734 574.37891 L 244.53711 574.37891 L 244.53711 604.79883 L 225.02734 604.79883 C 213.55067 604.79883 204.31055 614.03896 204.31055 625.51562 L 204.31055 687.66211 C 204.31055 699.13878 213.55067 708.37891 225.02734 708.37891 L 396.93164 708.37891 C 370.47974 685.23198 353.72266 651.35184 353.72266 613.67773 C 353.72266 610.69237 353.83415 607.73317 354.04102 604.79883 L 268.21875 604.79883 L 268.21875 574.37891 L 360.05078 574.37891 C 376.73921 524.00124 424.56819 487.49414 480.61133 487.49414 C 518.36983 487.49414 552.39714 504.0701 575.68945 530.28906 L 575.68945 491.51562 C 575.68945 480.03895 566.44933 470.79883 554.97266 470.79883 L 535.41797 470.79883 L 535.41797 439.94141 L 554.59766 439.94141 C 566.07433 439.94141 575.31445 430.70128 575.31445 419.22461 L 575.31445 357.07812 C 575.31445 345.60145 566.07433 336.36133 554.59766 336.36133 L 224.65234 336.36133 z M 268.21875 439.94141 L 511.73828 439.94141 L 511.73828 470.79883 L 268.21875 470.79883 L 268.21875 439.94141 z M 480.61133 522.49414 C 443.82515 522.49414 412.31703 543.64552 397.59961 574.37891 L 511.73828 574.37891 L 511.73828 604.79883 L 389.15234 604.79883 C 388.87099 607.71983 388.72266 610.6811 388.72266 613.67773 C 388.72266 664.183 429.5945 704.86133 480.61133 704.86133 C 531.36289 704.86133 572.06823 664.60305 572.49023 614.46289 C 568.82776 608.65518 562.37417 604.79883 554.97266 604.79883 L 535.41797 604.79883 L 535.41797 574.37891 L 554.97266 574.37891 C 557.76894 574.37891 560.43189 573.82781 562.86133 572.83203 C 547.83812 542.93886 516.77647 522.49414 480.61133 522.49414 z "
         style="opacity:1;fill:url(#linearGradient4265);fill-opacity:1;stroke:none;stroke-width:35;stroke-linejoin:round;stroke-miterlimit:4;stroke-dasharray:none;stroke-opacity:1" />
      <rect
         ry="10.5"
         y="396.36224"
         x="223.99854"
         height="21"
         width="78.903175"
         id="rect4229"
         style="opacity:1;fill:#ffffff;fill-opacity:1;stroke:none;stroke-width:35;stroke-linejoin:round;stroke-miterlimit:4;stroke-dasharray:none;stroke-opacity:1" />
      <rect
         style="opacity:1;fill:#ffffff;fill-opacity:1;stroke:none;stroke-width:35;stroke-linejoin:round;stroke-miterlimit:4;stroke-dasharray:none;stroke-opacity:1"
         id="rect4239"
         width="78.903175"
         height="21"
         x="224.33862"
         y="664.79968"
         ry="10.5" />
      <rect
         ry="10.5"
         y="530.79968"
         x="224.33862"
         height="21"
         width="78.903175"
         id="rect4245"
         style="opacity:1;fill:#ffffff;fill-opacity:1;stroke:none;stroke-width:35;stroke-linejoin:round;stroke-miterlimit:4;stroke-dasharray:none;stroke-opacity:1" />
      <ellipse
         style="font-style:normal;font-weight:normal;font-size:medium;line-height:125%;font-family:sans-serif;letter-spacing:0px;word-spacing:0px;opacity:1;fill:#99b000;fill-opacity:1;stroke:none;stroke-width:16;stroke-linecap:square;stroke-linejoin:round;stroke-miterlimit:4;stroke-dasharray:none;stroke-opacity:1"
         id="path4169"
         cx="480.61151"
         cy="613.67859"
         rx="109.38848"
         ry="108.68362" />
      <g
         transform="matrix(1.3790897,0,0,1.2403115,-221.71204,-159.86017)"
         id="text4214"
         style="font-style:normal;font-weight:normal;font-size:136.29434204px;line-height:125%;font-family:sans-serif;letter-spacing:0px;word-spacing:0px;fill:#000000;fill-opacity:1;stroke:none;stroke-width:1px;stroke-linecap:butt;stroke-linejoin:miter;stroke-opacity:1">
        <path
           inkscape:connector-curvature="0"
           id="path4219"
           style="fill:#ffffff;stroke:#ffffff;stroke-width:3.40735841px;stroke-linejoin:round"
           d="m 540.48566,582.66896 0,14.17514 q -6.05605,-6.98775 -11.7128,-9.9825 -5.5902,-2.99474 -12.37829,-2.99474 -10.44835,0 -17.1699,6.65499 -6.72154,6.655 -8.85114,19.09984 l 38.39933,0 -3.66025,8.18565 -35.80388,0 q -0.1331,1.5972 -0.19965,3.12785 0,1.53065 0,3.8599 0,2.1296 0,3.66025 0.0666,1.53065 0.19965,3.12785 l 29.68128,0 -3.72679,8.18564 -24.88969,0 q 2.1296,12.44485 8.85114,19.16639 6.72155,6.72155 17.1699,6.72155 6.78809,0 12.37829,-2.99475 5.65675,-2.99475 11.7128,-9.98249 l 0,14.04204 q -5.92295,4.7916 -12.1121,7.1874 -6.1226,2.3958 -12.51139,2.3958 -15.77235,0 -26.08759,-9.64975 -10.2487,-9.64975 -12.9107,-26.88619 l -14.04204,0 3.66025,-8.18564 9.25044,0 q 0,-1.53065 -0.0666,-3.0613 0,-1.5972 0,-3.7268 0,-2.32925 0,-3.8599 0.0666,-1.5972 0.0666,-3.12785 l -12.91069,0 3.66025,-8.18565 10.38179,0 q 2.662,-17.10334 12.97725,-26.75308 10.31524,-9.64975 26.02104,-9.64975 6.52189,0 12.64449,2.3958 6.18915,2.32925 11.979,7.0543 z" />
      </g>
    </g>
  </g>
</svg>
