<?xml version="1.0" encoding="UTF-8" standalone="no"?>
<!-- Created with Inkscape (http://www.inkscape.org/) -->

<svg
   xmlns:dc="http://purl.org/dc/elements/1.1/"
   xmlns:cc="http://creativecommons.org/ns#"
   xmlns:rdf="http://www.w3.org/1999/02/22-rdf-syntax-ns#"
   xmlns:svg="http://www.w3.org/2000/svg"
   xmlns="http://www.w3.org/2000/svg"
   xmlns:xlink="http://www.w3.org/1999/xlink"
   xmlns:sodipodi="http://sodipodi.sourceforge.net/DTD/sodipodi-0.dtd"
   xmlns:inkscape="http://www.inkscape.org/namespaces/inkscape"
   width="210mm"
   height="297mm"
   viewBox="0 0 744.09448819 1052.3622047"
   id="svg2"
   version="1.1"
   inkscape:version="0.91 r13725"
   inkscape:export-xdpi="4"
   inkscape:export-ydpi="4"
   sodipodi:docname="server-print.svg">
  <defs
     id="defs4">
    <linearGradient
       inkscape:collect="always"
       xlink:href="#linearGradient4259"
       id="linearGradient4265"
       x1="36.360001"
       y1="399.99997"
       x2="363.59998"
       y2="18.179979"
       gradientUnits="userSpaceOnUse"
       gradientTransform="translate(189.99854,322.36222)" />
    <linearGradient
       inkscape:collect="always"
       id="linearGradient4259">
      <stop
         style="stop-color:#4e505d;stop-opacity:1;"
         offset="0"
         id="stop4261" />
      <stop
         style="stop-color:#7a859c;stop-opacity:1"
         offset="1"
         id="stop4263" />
    </linearGradient>
  </defs>
  <sodipodi:namedview
     id="base"
     pagecolor="#ffffff"
     bordercolor="#666666"
     borderopacity="1.0"
     inkscape:pageopacity="0.0"
     inkscape:pageshadow="2"
     inkscape:zoom="1"
     inkscape:cx="430.8749"
     inkscape:cy="550.04683"
     inkscape:document-units="px"
     inkscape:current-layer="layer1"
     showgrid="false"
     showguides="true"
     inkscape:guide-bbox="true"
     inkscape:window-width="1600"
     inkscape:window-height="837"
     inkscape:window-x="-4"
     inkscape:window-y="-4"
     inkscape:window-maximized="1"
     inkscape:snap-bbox="true"
     inkscape:bbox-nodes="true"
     inkscape:snap-nodes="false">
    <sodipodi:guide
       position="560,730.00002"
       orientation="0,1"
       id="guide3338" />
    <sodipodi:guide
       position="560,330.00001"
       orientation="0,1"
       id="guide3340" />
    <sodipodi:guide
       position="190,475.00001"
       orientation="1,0"
       id="guide3344" />
    <sodipodi:guide
       position="590,451.00001"
       orientation="1,0"
       id="guide3346" />
    <inkscape:grid
       type="xygrid"
       id="grid3440" />
    <sodipodi:guide
       position="-111.01577,704.98548"
       orientation="0,1"
       id="guide4151" />
    <sodipodi:guide
       position="54.25,355.00001"
       orientation="0,1"
       id="guide4153" />
    <sodipodi:guide
       position="215,442.00001"
       orientation="1,0"
       id="guide4155" />
    <sodipodi:guide
       position="564.97832,467.39759"
       orientation="1,0"
       id="guide4157" />
  </sodipodi:namedview>
  <metadata
     id="metadata7">
    <rdf:RDF>
      <cc:Work
         rdf:about="">
        <dc:format>image/svg+xml</dc:format>
        <dc:type
           rdf:resource="http://purl.org/dc/dcmitype/StillImage" />
        <dc:title>server print</dc:title>
        <dc:date>June 2015</dc:date>
        <dc:creator>
          <cc:Agent>
            <dc:title>Johannes Hechler</dc:title>
          </cc:Agent>
        </dc:creator>
        <dc:rights>
          <cc:Agent>
            <dc:title>Johannes Hechler</dc:title>
          </cc:Agent>
        </dc:rights>
        <dc:publisher>
          <cc:Agent>
            <dc:title>RRZE</dc:title>
          </cc:Agent>
        </dc:publisher>
        <dc:contributor>
          <cc:Agent>
            <dc:title>Ute Weber, Hendrik Eggers, Joanna Barbach</dc:title>
          </cc:Agent>
        </dc:contributor>
        <dc:subject>
          <rdf:Bag>
            <rdf:li>server</rdf:li>
            <rdf:li>rdbms</rdf:li>
            <rdf:li>dba</rdf:li>
            <rdf:li>server</rdf:li>
            <rdf:li>icon</rdf:li>
            <rdf:li>print</rdf:li>
          </rdf:Bag>
        </dc:subject>
        <cc:license
           rdf:resource="http://creativecommons.org/licenses/by-sa/3.0/" />
      </cc:Work>
      <cc:License
         rdf:about="http://creativecommons.org/licenses/by-sa/3.0/">
        <cc:permits
           rdf:resource="http://creativecommons.org/ns#Reproduction" />
        <cc:permits
           rdf:resource="http://creativecommons.org/ns#Distribution" />
        <cc:requires
           rdf:resource="http://creativecommons.org/ns#Notice" />
        <cc:requires
           rdf:resource="http://creativecommons.org/ns#Attribution" />
        <cc:permits
           rdf:resource="http://creativecommons.org/ns#DerivativeWorks" />
        <cc:requires
           rdf:resource="http://creativecommons.org/ns#ShareAlike" />
      </cc:License>
    </rdf:RDF>
  </metadata>
  <g
     inkscape:label="Ebene 1"
     inkscape:groupmode="layer"
     id="layer1">
    <g
       id="g4218">
      <path
         inkscape:connector-curvature="0"
         id="rect4214"
         d="m 189.99854,322.3622 400.00146,0 0,399.99998 -400.00146,0 z"
         style="opacity:1;fill:none;fill-opacity:1;stroke:none;stroke-width:35;stroke-linejoin:round;stroke-miterlimit:4;stroke-dasharray:none;stroke-opacity:1" />
      <path
         id="rect4221"
         d="M 224.65234 336.36133 C 213.17567 336.36133 203.93555 345.60145 203.93555 357.07812 L 203.93555 419.22461 C 203.93555 430.70128 213.17567 439.94141 224.65234 439.94141 L 244.53711 439.94141 L 244.53711 470.79883 L 225.02734 470.79883 C 213.55067 470.79883 204.31055 480.03896 204.31055 491.51562 L 204.31055 553.66211 C 204.31055 565.13878 213.55067 574.37891 225.02734 574.37891 L 244.53711 574.37891 L 244.53711 604.79883 L 225.02734 604.79883 C 213.55067 604.79883 204.31055 614.03896 204.31055 625.51562 L 204.31055 687.66211 C 204.31055 699.13878 213.55067 708.37891 225.02734 708.37891 L 390.81055 708.37891 L 390.81055 682.49609 L 364.53906 682.49609 C 347.80057 682.49609 333.77734 668.47288 333.77734 651.73438 L 333.77734 604.79883 L 268.21875 604.79883 L 268.21875 574.37891 L 335.89844 574.37891 C 340.42156 562.94656 351.67341 554.66016 364.53906 554.66016 L 389.62695 554.66016 A 17.50175 17.50175 0 0 1 391.06445 554.58789 L 392.37109 554.58789 A 17.50175 17.50175 0 0 1 392.35156 554.19922 L 392.35156 514.04102 C 392.35156 501.95569 402.05331 490 415.74609 490 L 526.60156 490 C 540.29432 490 549.99609 501.95572 549.99609 514.04102 L 549.99609 554.19922 A 17.50175 17.50175 0 0 1 549.98242 554.58789 L 550.21289 554.58789 A 17.50175 17.50175 0 0 1 551.6875 554.66016 L 575.66602 554.66016 C 575.68153 554.3297 575.68945 553.99654 575.68945 553.66211 L 575.68945 491.51562 C 575.68945 480.03895 566.44933 470.79883 554.97266 470.79883 L 535.41797 470.79883 L 535.41797 439.94141 L 554.59766 439.94141 C 566.07433 439.94141 575.31445 430.70128 575.31445 419.22461 L 575.31445 357.07812 C 575.31445 345.60145 566.07433 336.36133 554.59766 336.36133 L 224.65234 336.36133 z M 268.21875 439.94141 L 511.73828 439.94141 L 511.73828 470.79883 L 268.21875 470.79883 L 268.21875 439.94141 z M 427.35156 525 L 427.35156 536.69922 L 514.99609 536.69922 L 514.99609 525 L 427.35156 525 z M 368.77734 604.79883 L 368.77734 647.49609 L 373.50391 647.49609 L 373.50391 620.05664 C 373.50391 614.61629 374.6705 609.46341 376.75391 604.79883 L 368.77734 604.79883 z M 567.35938 608.91602 C 568.45806 612.4344 569.05273 616.17214 569.05273 620.05664 L 569.05273 647.49609 L 572.5 647.49609 L 572.5 614.47852 C 571.14097 612.3192 569.39811 610.43693 567.35938 608.91602 z M 425.81055 633.58008 L 425.81055 704.86133 L 517.41992 704.86133 L 517.41992 633.58008 L 425.81055 633.58008 z M 552.41992 682.49609 L 552.41992 708.37891 L 554.97266 708.37891 C 566.44933 708.37891 575.68945 699.13878 575.68945 687.66211 L 575.68945 682.49609 L 552.41992 682.49609 z "
         style="opacity:1;fill:url(#linearGradient4265);fill-opacity:1;stroke:none;stroke-width:35;stroke-linejoin:round;stroke-miterlimit:4;stroke-dasharray:none;stroke-opacity:1" />
      <rect
         ry="10.5"
         y="396.36224"
         x="223.99854"
         height="21"
         width="78.903175"
         id="rect4229"
         style="opacity:1;fill:#ffffff;fill-opacity:1;stroke:none;stroke-width:35;stroke-linejoin:round;stroke-miterlimit:4;stroke-dasharray:none;stroke-opacity:1" />
      <rect
         style="opacity:1;fill:#ffffff;fill-opacity:1;stroke:none;stroke-width:35;stroke-linejoin:round;stroke-miterlimit:4;stroke-dasharray:none;stroke-opacity:1"
         id="rect4239"
         width="78.903175"
         height="21"
         x="224.33864"
         y="664.79968"
         ry="10.5" />
      <rect
         ry="10.5"
         y="530.79968"
         x="224.33864"
         height="21"
         width="78.903175"
         id="rect4245"
         style="opacity:1;fill:#ffffff;fill-opacity:1;stroke:none;stroke-width:35;stroke-linejoin:round;stroke-miterlimit:4;stroke-dasharray:none;stroke-opacity:1" />
      <path
         inkscape:connector-curvature="0"
         id="rect4188"
         d="m 415.74521,507.49913 c -3.26523,0 -5.89348,2.91843 -5.89348,6.54224 l 0,40.15802 122.64416,0 0,-40.15802 c 0,-3.62381 -2.62824,-6.54224 -5.89348,-6.54224 l -110.8572,0 z m -24.68096,64.58854 0,0.0719 -26.52601,0 c -7.34737,0 -13.26167,5.91563 -13.26167,13.263 l 0,66.31236 c 0,7.34738 5.9143,13.26167 13.26167,13.26167 l 26.46473,0 0,-44.94048 c 0,-11.48122 9.58448,-20.91762 21.03617,-20.91762 l 118.47583,0 c 11.4517,0 21.0375,9.4364 21.0375,20.91762 l 0,44.94048 25.18586,0 c 7.34736,0 13.26167,-5.91429 13.26167,-13.26167 l 0,-66.31236 c 0,-7.34737 -5.91431,-13.263 -13.26167,-13.263 l -26.52602,0 0,-0.0719 -6.63149,0 0,0.0719 -145.88507,0 0,-0.0719 -6.6315,0 z m 27.97274,43.99198 c -5.94231,0 -10.72657,4.73559 -10.72657,10.61866 l 0,85.04522 c 0,5.88307 4.78426,10.61867 10.72657,10.61867 l 105.15553,0 c 5.9423,0 10.72657,-4.7356 10.72657,-10.61867 l 0,-85.04522 c 0,-5.88307 -4.78427,-10.61866 -10.72657,-10.61866 l -105.15553,0 z"
         style="opacity:1;fill:#99b000;fill-opacity:1;stroke:none;stroke-width:16;stroke-linecap:round;stroke-linejoin:round;stroke-miterlimit:4;stroke-dasharray:none;stroke-opacity:1" />
      <circle
         r="8.2890081"
         cy="587.00824"
         cx="568.44891"
         id="path4251"
         style="opacity:1;fill:#ffffff;fill-opacity:1;stroke:none;stroke-width:16;stroke-linecap:round;stroke-linejoin:round;stroke-miterlimit:4;stroke-dasharray:none;stroke-opacity:1" />
      <rect
         ry="7.5299187"
         rx="7.6565423"
         y="636.74103"
         x="419.70923"
         height="15.059837"
         width="99.167892"
         id="rect4175"
         style="color:#252525;clip-rule:nonzero;display:inline;overflow:visible;visibility:visible;opacity:1;isolation:auto;mix-blend-mode:normal;color-interpolation:sRGB;color-interpolation-filters:linearRGB;solid-color:#252525;solid-opacity:1;fill:#ffffff;fill-opacity:1;fill-rule:nonzero;stroke:none;stroke-width:31.21899986;stroke-linecap:butt;stroke-linejoin:round;stroke-miterlimit:4;stroke-dasharray:none;stroke-dashoffset:60.95800018;stroke-opacity:1;color-rendering:auto;image-rendering:auto;shape-rendering:auto;text-rendering:auto;enable-background:accumulate" />
      <rect
         style="color:#252525;clip-rule:nonzero;display:inline;overflow:visible;visibility:visible;opacity:1;isolation:auto;mix-blend-mode:normal;color-interpolation:sRGB;color-interpolation-filters:linearRGB;solid-color:#252525;solid-opacity:1;fill:#ffffff;fill-opacity:1;fill-rule:nonzero;stroke:none;stroke-width:31.21899986;stroke-linecap:butt;stroke-linejoin:round;stroke-miterlimit:4;stroke-dasharray:none;stroke-dashoffset:60.95800018;stroke-opacity:1;color-rendering:auto;image-rendering:auto;shape-rendering:auto;text-rendering:auto;enable-background:accumulate"
         id="rect4219"
         width="99.167892"
         height="15.059837"
         x="419.91129"
         y="671.99097"
         rx="7.6565423"
         ry="7.5299187" />
    </g>
  </g>
</svg>
