<?xml version="1.0" encoding="UTF-8" standalone="no"?>
<!-- Created with Inkscape (http://www.inkscape.org/) -->

<svg
   xmlns:dc="http://purl.org/dc/elements/1.1/"
   xmlns:cc="http://creativecommons.org/ns#"
   xmlns:rdf="http://www.w3.org/1999/02/22-rdf-syntax-ns#"
   xmlns:svg="http://www.w3.org/2000/svg"
   xmlns="http://www.w3.org/2000/svg"
   xmlns:xlink="http://www.w3.org/1999/xlink"
   xmlns:sodipodi="http://sodipodi.sourceforge.net/DTD/sodipodi-0.dtd"
   xmlns:inkscape="http://www.inkscape.org/namespaces/inkscape"
   width="210mm"
   height="297mm"
   viewBox="0 0 744.09448819 1052.3622047"
   id="svg2"
   version="1.1"
   inkscape:version="0.91 r13725"
   inkscape:export-xdpi="4"
   inkscape:export-ydpi="4"
   sodipodi:docname="server-user.svg">
  <defs
     id="defs4">
    <linearGradient
       inkscape:collect="always"
       id="linearGradient4199">
      <stop
         style="stop-color:#4e505d;stop-opacity:1;"
         offset="0"
         id="stop4201" />
      <stop
         style="stop-color:#7a8597;stop-opacity:1"
         offset="1"
         id="stop4203" />
    </linearGradient>
    <linearGradient
       inkscape:collect="always"
       xlink:href="#linearGradient4199"
       id="linearGradient4205"
       x1="321"
       y1="571.36218"
       x2="509"
       y2="480.36221"
       gradientUnits="userSpaceOnUse"
       gradientTransform="translate(0,-30)" />
  </defs>
  <sodipodi:namedview
     id="base"
     pagecolor="#ffffff"
     bordercolor="#666666"
     borderopacity="1.0"
     inkscape:pageopacity="0.0"
     inkscape:pageshadow="2"
     inkscape:zoom="1"
     inkscape:cx="190.42599"
     inkscape:cy="415.16375"
     inkscape:document-units="px"
     inkscape:current-layer="layer1"
     showgrid="false"
     showguides="true"
     inkscape:guide-bbox="true"
     inkscape:window-width="1280"
     inkscape:window-height="962"
     inkscape:window-x="-8"
     inkscape:window-y="-8"
     inkscape:window-maximized="1">
    <sodipodi:guide
       position="560,730.00002"
       orientation="0,1"
       id="guide3338" />
    <sodipodi:guide
       position="560,330.00001"
       orientation="0,1"
       id="guide3340" />
    <sodipodi:guide
       position="190,475.00001"
       orientation="1,0"
       id="guide3344" />
    <sodipodi:guide
       position="593.00001,570.00001"
       orientation="1,0"
       id="guide3346" />
    <inkscape:grid
       type="xygrid"
       id="grid3440" />
    <sodipodi:guide
       position="-111.01577,704.98548"
       orientation="0,1"
       id="guide4151" />
    <sodipodi:guide
       position="54.25,355.00001"
       orientation="0,1"
       id="guide4153" />
    <sodipodi:guide
       position="215,442.00001"
       orientation="1,0"
       id="guide4155" />
    <sodipodi:guide
       position="564.97832,467.39759"
       orientation="1,0"
       id="guide4157" />
  </sodipodi:namedview>
  <metadata
     id="metadata7">
    <rdf:RDF>
      <cc:Work
         rdf:about="">
        <dc:format>image/svg+xml</dc:format>
        <dc:type
           rdf:resource="http://purl.org/dc/dcmitype/StillImage" />
        <dc:title>server user</dc:title>
        <dc:date>June 2015</dc:date>
        <dc:creator>
          <cc:Agent>
            <dc:title>Johannes Hechler</dc:title>
          </cc:Agent>
        </dc:creator>
        <dc:rights>
          <cc:Agent>
            <dc:title>Johannes Hechler</dc:title>
          </cc:Agent>
        </dc:rights>
        <dc:publisher>
          <cc:Agent>
            <dc:title>RRZE</dc:title>
          </cc:Agent>
        </dc:publisher>
        <dc:contributor>
          <cc:Agent>
            <dc:title>Ute Weber, Hendrik Eggers, Joanna Barbach</dc:title>
          </cc:Agent>
        </dc:contributor>
        <dc:subject>
          <rdf:Bag>
            <rdf:li>server</rdf:li>
            <rdf:li>rdbms</rdf:li>
            <rdf:li>dba</rdf:li>
            <rdf:li>server</rdf:li>
            <rdf:li>icon</rdf:li>
            <rdf:li>user</rdf:li>
          </rdf:Bag>
        </dc:subject>
        <cc:license
           rdf:resource="http://creativecommons.org/licenses/by-sa/3.0/" />
      </cc:Work>
      <cc:License
         rdf:about="http://creativecommons.org/licenses/by-sa/3.0/">
        <cc:permits
           rdf:resource="http://creativecommons.org/ns#Reproduction" />
        <cc:permits
           rdf:resource="http://creativecommons.org/ns#Distribution" />
        <cc:requires
           rdf:resource="http://creativecommons.org/ns#Notice" />
        <cc:requires
           rdf:resource="http://creativecommons.org/ns#Attribution" />
        <cc:permits
           rdf:resource="http://creativecommons.org/ns#DerivativeWorks" />
        <cc:requires
           rdf:resource="http://creativecommons.org/ns#ShareAlike" />
      </cc:License>
    </rdf:RDF>
  </metadata>
  <g
     inkscape:label="Ebene 1"
     inkscape:groupmode="layer"
     id="layer1">
    <rect
       style="opacity:1;fill:none;fill-opacity:1;stroke:none;stroke-width:23;stroke-linecap:butt;stroke-linejoin:round;stroke-miterlimit:4;stroke-dasharray:none;stroke-opacity:1"
       id="rect4160"
       width="400"
       height="400"
       x="190"
       y="322.36221" />
    <g
       id="g4220"
       transform="translate(0,-60)">
      <path
         id="rect4153"
         d="m 242.91862,447.21523 c -6.51959,0 -11.76826,5.24867 -11.76826,11.76826 l 0,11.76826 -15.91014,0 0,47.19255 15.91014,0 0,11.64875 c 0,6.51961 5.24867,11.76825 11.76826,11.76825 l 294.20649,0 c 6.51959,0 11.76826,-5.24864 11.76826,-11.76825 l 0,-11.64875 16.34684,0 0,-47.19255 -16.34684,0 0,-11.76826 c 0,-6.51959 -5.24867,-11.76826 -11.76826,-11.76826 l -294.20649,0 z"
         style="color:#252525;clip-rule:nonzero;display:inline;overflow:visible;visibility:visible;opacity:1;isolation:auto;mix-blend-mode:normal;color-interpolation:sRGB;color-interpolation-filters:linearRGB;solid-color:#252525;solid-opacity:1;fill:url(#linearGradient4205);fill-opacity:1;fill-rule:nonzero;stroke:none;stroke-width:30;stroke-linecap:butt;stroke-linejoin:round;stroke-miterlimit:4;stroke-dasharray:none;stroke-dashoffset:60.95968628;stroke-opacity:1;color-rendering:auto;image-rendering:auto;shape-rendering:auto;text-rendering:auto;enable-background:accumulate"
         inkscape:connector-curvature="0" />
      <circle
         r="11.768259"
         cy="506.05853"
         cx="513.58856"
         id="path4159"
         style="color:#252525;clip-rule:nonzero;display:inline;overflow:visible;visibility:visible;opacity:1;isolation:auto;mix-blend-mode:normal;color-interpolation:sRGB;color-interpolation-filters:linearRGB;solid-color:#252525;solid-opacity:1;fill:#99b000;fill-opacity:1;fill-rule:nonzero;stroke:none;stroke-width:30;stroke-linecap:butt;stroke-linejoin:round;stroke-miterlimit:4;stroke-dasharray:none;stroke-dashoffset:60.95968628;stroke-opacity:1;color-rendering:auto;image-rendering:auto;shape-rendering:auto;text-rendering:auto;enable-background:accumulate" />
      <circle
         r="11.768259"
         cy="506.05853"
         cx="478.28381"
         id="path4163"
         style="color:#252525;clip-rule:nonzero;display:inline;overflow:visible;visibility:visible;opacity:1;isolation:auto;mix-blend-mode:normal;color-interpolation:sRGB;color-interpolation-filters:linearRGB;solid-color:#252525;solid-opacity:1;fill:#ffffff;fill-opacity:1;fill-rule:nonzero;stroke:none;stroke-width:30;stroke-linecap:butt;stroke-linejoin:round;stroke-miterlimit:4;stroke-dasharray:none;stroke-dashoffset:60.95968628;stroke-opacity:1;color-rendering:auto;image-rendering:auto;shape-rendering:auto;text-rendering:auto;enable-background:accumulate" />
      <rect
         ry="5.8841295"
         y="458.98557"
         x="242.91862"
         height="70.609558"
         width="11.768259"
         id="rect4165"
         style="color:#252525;clip-rule:nonzero;display:inline;overflow:visible;visibility:visible;opacity:1;isolation:auto;mix-blend-mode:normal;color-interpolation:sRGB;color-interpolation-filters:linearRGB;solid-color:#252525;solid-opacity:1;fill:#ffffff;fill-opacity:1;fill-rule:nonzero;stroke:none;stroke-width:30;stroke-linecap:butt;stroke-linejoin:round;stroke-miterlimit:4;stroke-dasharray:none;stroke-dashoffset:60.95968628;stroke-opacity:1;color-rendering:auto;image-rendering:auto;shape-rendering:auto;text-rendering:auto;enable-background:accumulate" />
      <rect
         ry="5.8841295"
         y="458.98557"
         x="266.45514"
         height="70.609558"
         width="11.768259"
         id="rect4167"
         style="color:#252525;clip-rule:nonzero;display:inline;overflow:visible;visibility:visible;opacity:1;isolation:auto;mix-blend-mode:normal;color-interpolation:sRGB;color-interpolation-filters:linearRGB;solid-color:#252525;solid-opacity:1;fill:#ffffff;fill-opacity:1;fill-rule:nonzero;stroke:none;stroke-width:30;stroke-linecap:butt;stroke-linejoin:round;stroke-miterlimit:4;stroke-dasharray:none;stroke-dashoffset:60.95968628;stroke-opacity:1;color-rendering:auto;image-rendering:auto;shape-rendering:auto;text-rendering:auto;enable-background:accumulate" />
      <rect
         ry="5.8841295"
         y="458.98557"
         x="289.99167"
         height="70.609558"
         width="11.768259"
         id="rect4169"
         style="color:#252525;clip-rule:nonzero;display:inline;overflow:visible;visibility:visible;opacity:1;isolation:auto;mix-blend-mode:normal;color-interpolation:sRGB;color-interpolation-filters:linearRGB;solid-color:#252525;solid-opacity:1;fill:#ffffff;fill-opacity:1;fill-rule:nonzero;stroke:none;stroke-width:30;stroke-linecap:butt;stroke-linejoin:round;stroke-miterlimit:4;stroke-dasharray:none;stroke-dashoffset:60.95968628;stroke-opacity:1;color-rendering:auto;image-rendering:auto;shape-rendering:auto;text-rendering:auto;enable-background:accumulate" />
      <rect
         ry="5.8841295"
         y="458.98557"
         x="313.52817"
         height="70.609558"
         width="11.768259"
         id="rect4173"
         style="color:#252525;clip-rule:nonzero;display:inline;overflow:visible;visibility:visible;opacity:1;isolation:auto;mix-blend-mode:normal;color-interpolation:sRGB;color-interpolation-filters:linearRGB;solid-color:#252525;solid-opacity:1;fill:#ffffff;fill-opacity:1;fill-rule:nonzero;stroke:none;stroke-width:30;stroke-linecap:butt;stroke-linejoin:round;stroke-miterlimit:4;stroke-dasharray:none;stroke-dashoffset:60.95968628;stroke-opacity:1;color-rendering:auto;image-rendering:auto;shape-rendering:auto;text-rendering:auto;enable-background:accumulate" />
      <rect
         ry="5.8841295"
         y="458.98557"
         x="337.0647"
         height="70.609558"
         width="11.768259"
         id="rect4175"
         style="color:#252525;clip-rule:nonzero;display:inline;overflow:visible;visibility:visible;opacity:1;isolation:auto;mix-blend-mode:normal;color-interpolation:sRGB;color-interpolation-filters:linearRGB;solid-color:#252525;solid-opacity:1;fill:#ffffff;fill-opacity:1;fill-rule:nonzero;stroke:none;stroke-width:30;stroke-linecap:butt;stroke-linejoin:round;stroke-miterlimit:4;stroke-dasharray:none;stroke-dashoffset:60.95968628;stroke-opacity:1;color-rendering:auto;image-rendering:auto;shape-rendering:auto;text-rendering:auto;enable-background:accumulate" />
    </g>
    <g
       id="g4198"
       transform="matrix(0.6185124,0,0,0.6185124,215.52423,235.26369)"
       style="fill:#99b000;stroke:#ffffff;stroke-width:50;stroke-miterlimit:4;stroke-dasharray:none;stroke-linejoin:round">
      <path
         style="color:#252525;font-style:normal;font-variant:normal;font-weight:normal;font-stretch:normal;font-size:medium;line-height:normal;font-family:sans-serif;text-indent:0;text-align:start;text-decoration:none;text-decoration-line:none;text-decoration-style:solid;text-decoration-color:#252525;letter-spacing:normal;word-spacing:normal;text-transform:none;direction:ltr;block-progression:tb;writing-mode:lr-tb;baseline-shift:baseline;text-anchor:start;white-space:normal;clip-rule:nonzero;display:inline;overflow:visible;visibility:visible;opacity:1;isolation:auto;mix-blend-mode:normal;color-interpolation:sRGB;color-interpolation-filters:linearRGB;solid-color:#252525;solid-opacity:1;fill:#ffffff;fill-opacity:1;fill-rule:nonzero;stroke:#4e505d;stroke-width:37.99943542;stroke-linecap:round;stroke-linejoin:round;stroke-miterlimit:4;stroke-dasharray:none;stroke-dashoffset:0;stroke-opacity:1;color-rendering:auto;image-rendering:auto;shape-rendering:auto;text-rendering:auto;enable-background:accumulate"
         d="m 396.49934,306.69856 c -50.37015,2.2e-4 -91.86548,41.18874 -91.86532,91.50391 -8e-5,23.49314 9.1256,44.92474 23.89808,61.1747 -48.71312,34.34142 -77.38643,101.12442 -77.38641,176.2863 0,17.13953 1.5663,33.77937 4.50145,49.6774 a 24.78472,24.78472 0 0 0 1.74572,5.61473 c 7.88915,17.64872 24.53672,27.88614 42.93008,30.27114 a 24.78472,24.78472 0 0 0 5.42757,0.63568 l 176.54119,0 a 24.78472,24.78472 0 0 0 0.35174,-0.0162 l -0.003,0.003 c 0.0511,-7.3e-4 0.10065,-0.0121 0.15167,-0.0129 a 24.78472,24.78472 0 0 0 2.74606,-0.21298 c 21.021,-1.24768 40.47944,-12.63717 48.26083,-33.14947 a 24.78472,24.78472 0 0 0 1.21975,-4.4111 c 2.7861,-15.51763 4.26268,-31.72682 4.26268,-48.40282 0,-74.34219 -28.06077,-140.71319 -75.83109,-175.16656 15.37788,-16.37435 24.91462,-38.25949 24.91455,-62.2912 1.5e-4,-50.31519 -41.49517,-91.50372 -91.86532,-91.50391 z m 0,49.56448 c 23.72802,1e-4 42.3009,18.55617 42.30084,41.93943 6e-5,23.38327 -18.57282,41.93934 -42.30084,41.93944 -23.72803,-10e-5 -42.30091,-18.55617 -42.30083,-41.93944 -8e-5,-23.38326 18.5728,-41.93933 42.30083,-41.93943 z m -37.45733,142.65278 c 11.52798,4.50422 24.02576,7.11523 37.06687,7.11523 12.58185,0 24.65453,-2.44348 35.84391,-6.65056 31.06454,21.85893 57.76392,73.49751 57.76392,136.27974 0,12.17002 -1.09917,23.89862 -2.88804,35.19207 -0.821,0.53229 -2.34427,1.40332 -4.88546,1.43919 a 24.78472,24.78472 0 0 0 -0.10004,0.006 l -174.04362,0 a 24.78472,24.78472 0 0 0 -0.29041,-0.0355 c -1.84133,-0.13097 -3.04512,-0.74625 -3.85287,-1.22943 -1.81032,-11.35617 -2.94611,-23.13529 -2.94611,-35.36954 0,-63.1624 27.00261,-115.37028 58.33184,-136.74764 z"
         id="path4200"
         inkscape:connector-curvature="0" />
    </g>
    <g
       style="fill:#99b000;stroke:#ffffff;stroke-width:50;stroke-miterlimit:4;stroke-dasharray:none;stroke-linejoin:round"
       transform="matrix(0.6185124,0,0,0.6185124,215.52423,235.26369)"
       id="g4192">
      <path
         style="fill:#99b000;fill-opacity:1;stroke:#ffffff;stroke-width:50;stroke-linecap:round;stroke-linejoin:round;stroke-miterlimit:4;stroke-dasharray:none;stroke-opacity:1"
         d="m 357.32218,470.80279 c -0.12002,0.10617 -0.2294,0.22027 -0.35326,0.32332 l -6.6861,3.62246 c -43.60929,25.83373 -74.35337,88.14584 -74.35337,160.91336 0,15.62951 1.42558,30.77295 4.08549,45.18005 3.94544,8.82633 13.85849,15.29549 25.73648,16.14044 l 0,0.0978 176.54087,0 0,-0.008 c 13.33188,-0.18819 24.56038,-7.44274 28.33307,-17.38785 2.52444,-14.06017 3.87395,-28.81024 3.87395,-44.02245 0,-76.18012 -33.69847,-140.90061 -80.57643,-164.30231 -11.19218,6.28394 -24.09356,9.88943 -37.81337,9.88943 -14.11973,1e-5 -27.37293,-3.81827 -38.78733,-10.44627 z"
         id="path4194"
         inkscape:connector-curvature="0"
         sodipodi:nodetypes="cccsccccccscscc" />
      <ellipse
         style="fill:#99b000;fill-opacity:1;stroke:#ffffff;stroke-width:50;stroke-linejoin:round;stroke-miterlimit:4;stroke-dasharray:none;stroke-opacity:1"
         id="ellipse4196"
         cy="398.2038"
         cx="396.49844"
         rx="67.083344"
         ry="66.721466" />
    </g>
    <g
       id="g4289"
       transform="matrix(0.6185124,0,0,0.6185124,215.52423,235.26369)"
       style="fill:#99b000">
      <path
         sodipodi:nodetypes="cccsccccccscscc"
         inkscape:connector-curvature="0"
         id="path2176"
         d="m 357.32218,470.80279 c -0.12002,0.10617 -0.2294,0.22027 -0.35326,0.32332 l -6.6861,3.62246 c -43.60929,25.83373 -74.35337,88.14584 -74.35337,160.91336 0,15.62951 1.42558,30.77295 4.08549,45.18005 3.94544,8.82633 13.85849,15.29549 25.73648,16.14044 l 0,0.0978 176.54087,0 0,-0.008 c 13.33188,-0.18819 24.56038,-7.44274 28.33307,-17.38785 2.52444,-14.06017 3.87395,-28.81024 3.87395,-44.02245 0,-76.18012 -33.69847,-140.90061 -80.57643,-164.30231 -11.19218,6.28394 -24.09356,9.88943 -37.81337,9.88943 -14.11973,1e-5 -27.37293,-3.81827 -38.78733,-10.44627 z"
         style="fill:#99b000;fill-opacity:1;stroke:none;stroke-width:41.15159225;stroke-linecap:round;stroke-linejoin:round;stroke-opacity:1" />
      <ellipse
         ry="66.721466"
         rx="67.083344"
         cx="396.49844"
         cy="398.2038"
         id="circle2187-6"
         style="fill:#99b000;fill-opacity:1;stroke:none;stroke-width:14;stroke-miterlimit:4;stroke-dasharray:none;stroke-opacity:1" />
    </g>
  </g>
</svg>
