<?xml version="1.0" encoding="UTF-8" standalone="no"?>
<!-- Created with Inkscape (http://www.inkscape.org/) -->

<svg
   xmlns:dc="http://purl.org/dc/elements/1.1/"
   xmlns:cc="http://creativecommons.org/ns#"
   xmlns:rdf="http://www.w3.org/1999/02/22-rdf-syntax-ns#"
   xmlns:svg="http://www.w3.org/2000/svg"
   xmlns="http://www.w3.org/2000/svg"
   xmlns:sodipodi="http://sodipodi.sourceforge.net/DTD/sodipodi-0.dtd"
   xmlns:inkscape="http://www.inkscape.org/namespaces/inkscape"
   width="210mm"
   height="297mm"
   viewBox="0 0 744.09448819 1052.3622047"
   id="svg2"
   version="1.1"
   inkscape:version="0.91 r13725"
   sodipodi:docname="server-database-yellow.svg"
   inkscape:export-filename="C:\Users\johannes\Documents\Arbeit\RRZE\bi-con\bi-con\scalable\documents\document.png"
   inkscape:export-xdpi="4"
   inkscape:export-ydpi="4">
  <defs
     id="defs4">
    <linearGradient
       id="linearGradient2224">
      <stop
         id="stop2226"
         offset="0"
         style="stop-color:#7c7c7c;stop-opacity:1;" />
      <stop
         id="stop2228"
         offset="1"
         style="stop-color:#b8b8b8;stop-opacity:1;" />
    </linearGradient>
    <linearGradient
       id="linearGradient15218">
      <stop
         id="stop15220"
         offset="0"
         style="stop-color:#eeeeef;stop-opacity:1;" />
      <stop
         id="stop2736"
         offset="0.59928656"
         style="stop-color:#d3d7cf;stop-opacity:1;" />
      <stop
         id="stop2738"
         offset="0.82758623"
         style="stop-color:#ffffff;stop-opacity:1;" />
      <stop
         id="stop15222"
         offset="1"
         style="stop-color:#d3d7cf;stop-opacity:1;" />
    </linearGradient>
    <pattern
       y="0"
       x="0"
       height="6"
       width="6"
       patternUnits="userSpaceOnUse"
       id="EMFhbasepattern" />
    <pattern
       y="0"
       x="0"
       height="6"
       width="6"
       patternUnits="userSpaceOnUse"
       id="EMFhbasepattern-5" />
  </defs>
  <sodipodi:namedview
     id="base"
     pagecolor="#ffffff"
     bordercolor="#666666"
     borderopacity="1.0"
     inkscape:pageopacity="0.0"
     inkscape:pageshadow="2"
     inkscape:zoom="1"
     inkscape:cx="382.30319"
     inkscape:cy="573.63598"
     inkscape:document-units="px"
     inkscape:current-layer="layer1"
     showgrid="false"
     showguides="true"
     inkscape:guide-bbox="true"
     inkscape:window-width="1366"
     inkscape:window-height="721"
     inkscape:window-x="-4"
     inkscape:window-y="-4"
     inkscape:window-maximized="1">
    <sodipodi:guide
       position="560,730.00002"
       orientation="0,1"
       id="guide3338" />
    <sodipodi:guide
       position="560,330.00001"
       orientation="0,1"
       id="guide3340" />
    <sodipodi:guide
       position="190,475.00001"
       orientation="1,0"
       id="guide3344" />
    <sodipodi:guide
       position="590,451.00001"
       orientation="1,0"
       id="guide3346" />
    <inkscape:grid
       type="xygrid"
       id="grid3440" />
    <sodipodi:guide
       position="215,442.00001"
       orientation="1,0"
       id="guide4155" />
    <sodipodi:guide
       position="564.97832,467.39759"
       orientation="1,0"
       id="guide4157" />
  </sodipodi:namedview>
  <metadata
     id="metadata7">
    <rdf:RDF>
      <cc:Work
         rdf:about="">
        <dc:format>image/svg+xml</dc:format>
        <dc:type
           rdf:resource="http://purl.org/dc/dcmitype/StillImage" />
        <dc:title></dc:title>
      </cc:Work>
    </rdf:RDF>
  </metadata>
  <g
     inkscape:label="Ebene 1"
     inkscape:groupmode="layer"
     id="layer1">
    <rect
       style="opacity:1;fill:none;fill-opacity:1;stroke:none;stroke-width:23;stroke-linecap:butt;stroke-linejoin:round;stroke-miterlimit:4;stroke-dasharray:none;stroke-opacity:1"
       id="rect4160"
       width="400"
       height="400"
       x="190"
       y="322.36221" />
    <path
       inkscape:connector-curvature="0"
       style="color:#000000;clip-rule:nonzero;display:inline;overflow:visible;visibility:visible;opacity:1;isolation:auto;mix-blend-mode:normal;color-interpolation:sRGB;color-interpolation-filters:linearRGB;solid-color:#000000;solid-opacity:1;fill:#ede13c;fill-opacity:1;fill-rule:nonzero;stroke:none;stroke-width:30;stroke-linecap:butt;stroke-linejoin:round;stroke-miterlimit:4;stroke-dasharray:none;stroke-dashoffset:60.95968628;stroke-opacity:1;color-rendering:auto;image-rendering:auto;shape-rendering:auto;text-rendering:auto;enable-background:accumulate"
       d="m 242.91862,387.21523 c -6.51959,0 -11.76826,5.24867 -11.76826,11.76826 l 0,11.76826 -15.91014,0 0,47.19255 15.91014,0 0,11.64875 c 0,6.51961 5.24867,11.76825 11.76826,11.76825 l 294.20649,0 c 6.51959,0 11.76826,-5.24864 11.76826,-11.76825 l 0,-11.64875 16.34684,0 0,-47.19255 -16.34684,0 0,-11.76826 c 0,-6.51959 -5.24867,-11.76826 -11.76826,-11.76826 l -294.20649,0 z"
       id="rect4153" />
    <circle
       style="color:#000000;clip-rule:nonzero;display:inline;overflow:visible;visibility:visible;opacity:1;isolation:auto;mix-blend-mode:normal;color-interpolation:sRGB;color-interpolation-filters:linearRGB;solid-color:#000000;solid-opacity:1;fill:#ffffff;fill-opacity:1;fill-rule:nonzero;stroke:none;stroke-width:30;stroke-linecap:butt;stroke-linejoin:round;stroke-miterlimit:4;stroke-dasharray:none;stroke-dashoffset:60.95968628;stroke-opacity:1;color-rendering:auto;image-rendering:auto;shape-rendering:auto;text-rendering:auto;enable-background:accumulate"
       id="path4159"
       cx="513.58856"
       cy="446.05853"
       r="11.768259" />
    <circle
       style="color:#000000;clip-rule:nonzero;display:inline;overflow:visible;visibility:visible;opacity:1;isolation:auto;mix-blend-mode:normal;color-interpolation:sRGB;color-interpolation-filters:linearRGB;solid-color:#000000;solid-opacity:1;fill:#ffffff;fill-opacity:1;fill-rule:nonzero;stroke:none;stroke-width:30;stroke-linecap:butt;stroke-linejoin:round;stroke-miterlimit:4;stroke-dasharray:none;stroke-dashoffset:60.95968628;stroke-opacity:1;color-rendering:auto;image-rendering:auto;shape-rendering:auto;text-rendering:auto;enable-background:accumulate"
       id="path4163"
       cx="478.28381"
       cy="446.05853"
       r="11.768259" />
    <rect
       style="color:#000000;clip-rule:nonzero;display:inline;overflow:visible;visibility:visible;opacity:1;isolation:auto;mix-blend-mode:normal;color-interpolation:sRGB;color-interpolation-filters:linearRGB;solid-color:#000000;solid-opacity:1;fill:#ffffff;fill-opacity:1;fill-rule:nonzero;stroke:none;stroke-width:30;stroke-linecap:butt;stroke-linejoin:round;stroke-miterlimit:4;stroke-dasharray:none;stroke-dashoffset:60.95968628;stroke-opacity:1;color-rendering:auto;image-rendering:auto;shape-rendering:auto;text-rendering:auto;enable-background:accumulate"
       id="rect4165"
       width="11.768259"
       height="70.609558"
       x="242.91862"
       y="398.98557"
       ry="5.8841295" />
    <rect
       style="color:#000000;clip-rule:nonzero;display:inline;overflow:visible;visibility:visible;opacity:1;isolation:auto;mix-blend-mode:normal;color-interpolation:sRGB;color-interpolation-filters:linearRGB;solid-color:#000000;solid-opacity:1;fill:#ffffff;fill-opacity:1;fill-rule:nonzero;stroke:none;stroke-width:30;stroke-linecap:butt;stroke-linejoin:round;stroke-miterlimit:4;stroke-dasharray:none;stroke-dashoffset:60.95968628;stroke-opacity:1;color-rendering:auto;image-rendering:auto;shape-rendering:auto;text-rendering:auto;enable-background:accumulate"
       id="rect4167"
       width="11.768259"
       height="70.609558"
       x="266.45514"
       y="398.98557"
       ry="5.8841295" />
    <rect
       style="color:#000000;clip-rule:nonzero;display:inline;overflow:visible;visibility:visible;opacity:1;isolation:auto;mix-blend-mode:normal;color-interpolation:sRGB;color-interpolation-filters:linearRGB;solid-color:#000000;solid-opacity:1;fill:#ffffff;fill-opacity:1;fill-rule:nonzero;stroke:none;stroke-width:30;stroke-linecap:butt;stroke-linejoin:round;stroke-miterlimit:4;stroke-dasharray:none;stroke-dashoffset:60.95968628;stroke-opacity:1;color-rendering:auto;image-rendering:auto;shape-rendering:auto;text-rendering:auto;enable-background:accumulate"
       id="rect4169"
       width="11.768259"
       height="70.609558"
       x="289.99167"
       y="398.98557"
       ry="5.8841295" />
    <rect
       style="color:#000000;clip-rule:nonzero;display:inline;overflow:visible;visibility:visible;opacity:1;isolation:auto;mix-blend-mode:normal;color-interpolation:sRGB;color-interpolation-filters:linearRGB;solid-color:#000000;solid-opacity:1;fill:#ffffff;fill-opacity:1;fill-rule:nonzero;stroke:none;stroke-width:30;stroke-linecap:butt;stroke-linejoin:round;stroke-miterlimit:4;stroke-dasharray:none;stroke-dashoffset:60.95968628;stroke-opacity:1;color-rendering:auto;image-rendering:auto;shape-rendering:auto;text-rendering:auto;enable-background:accumulate"
       id="rect4173"
       width="11.768259"
       height="70.609558"
       x="313.52817"
       y="398.98557"
       ry="5.8841295" />
    <rect
       style="color:#000000;clip-rule:nonzero;display:inline;overflow:visible;visibility:visible;opacity:1;isolation:auto;mix-blend-mode:normal;color-interpolation:sRGB;color-interpolation-filters:linearRGB;solid-color:#000000;solid-opacity:1;fill:#ffffff;fill-opacity:1;fill-rule:nonzero;stroke:none;stroke-width:30;stroke-linecap:butt;stroke-linejoin:round;stroke-miterlimit:4;stroke-dasharray:none;stroke-dashoffset:60.95968628;stroke-opacity:1;color-rendering:auto;image-rendering:auto;shape-rendering:auto;text-rendering:auto;enable-background:accumulate"
       id="rect4175"
       width="11.768259"
       height="70.609558"
       x="337.0647"
       y="398.98557"
       ry="5.8841295" />
    <path
       style="color:#000000;font-style:normal;font-variant:normal;font-weight:normal;font-stretch:normal;font-size:medium;line-height:normal;font-family:sans-serif;text-indent:0;text-align:start;text-decoration:none;text-decoration-line:none;text-decoration-style:solid;text-decoration-color:#000000;letter-spacing:normal;word-spacing:normal;text-transform:none;direction:ltr;block-progression:tb;writing-mode:lr-tb;baseline-shift:baseline;text-anchor:start;white-space:normal;clip-rule:nonzero;display:inline;overflow:visible;visibility:visible;opacity:1;isolation:auto;mix-blend-mode:normal;color-interpolation:sRGB;color-interpolation-filters:linearRGB;solid-color:#000000;solid-opacity:1;fill:#ffffff;fill-opacity:1;fill-rule:nonzero;stroke:#5a6578;stroke-width:23;stroke-linecap:butt;stroke-linejoin:round;stroke-miterlimit:4;stroke-dasharray:none;stroke-dashoffset:0;stroke-opacity:1;color-rendering:auto;image-rendering:auto;shape-rendering:auto;text-rendering:auto;enable-background:accumulate"
       d="m 438.40566,450.73582 c -24.04509,0 -45.79543,2.63467 -62.3509,7.23343 -8.27773,2.29937 -15.25829,5.01083 -20.96668,8.75978 -5.7084,3.74895 -11.28489,9.49124 -11.28489,17.75108 l 0.001,-0.19516 c -0.26396,13.92686 -1.3822,25.18936 0.0552,38.81603 a 10.338336,10.338336 0 0 0 0.47245,2.16033 10.338336,10.338336 0 0 0 -0.49668,2.40665 c -1.07632,13.54728 -1.50256,26.58705 0.031,40.42855 a 10.338336,10.338336 0 0 0 0.46571,2.11053 10.338336,10.338336 0 0 0 -0.49667,2.40127 c -1.0791,13.58217 -1.50805,27.39101 0.0309,41.28191 a 10.338336,10.338336 0 0 0 2.9639,6.17142 c 0,0 2.31365,2.19205 5.73935,4.35567 3.42572,2.16361 8.49469,4.83105 15.59345,7.41243 14.19753,5.16277 36.48824,9.98465 70.24251,9.98465 33.75426,0 56.04497,-4.82188 70.2425,-9.98465 7.09876,-2.58138 12.16639,-5.24882 15.5921,-7.41243 3.4257,-2.16362 5.73936,-4.35567 5.73936,-4.35567 a 10.338336,10.338336 0 0 0 2.98139,-6.32218 c 1.33841,-13.93811 1.2826,-27.7061 0.001,-41.28325 a 10.338336,10.338336 0 0 0 -0.48456,-2.26667 10.338336,10.338336 0 0 0 0.48322,-2.24378 c 1.33438,-13.8962 1.27862,-26.89629 10e-4,-40.43124 a 10.338336,10.338336 0 0 0 -0.48456,-2.26666 10.338336,10.338336 0 0 0 0.50071,-2.45646 c 1.25163,-16.64244 0.80261,-28.81155 -0.001,-39.11485 l 0.0309,0.80356 c 0,-8.25984 -5.57649,-14.00213 -11.28488,-17.75108 -5.70841,-3.74895 -12.68896,-6.46041 -20.96669,-8.75978 -16.55547,-4.59876 -38.3058,-7.23343 -62.35089,-7.23343 z m 0,20.67461 c 22.49322,0 42.87497,2.60672 56.81747,6.47965 6.97125,1.93648 12.33091,4.26847 15.15061,6.12028 1.38686,0.91082 1.85763,1.45404 2.00419,1.57752 0.65912,8.54095 0.98552,18.11756 0.24632,30.93249 -2.18816,1.3387 -5.64064,3.18055 -11.04126,5.14443 -11.55014,4.20006 -31.39209,8.73959 -63.17733,8.73959 -31.78526,0 -51.6272,-4.53953 -63.17734,-8.73959 -5.43217,-1.97535 -8.90528,-3.83132 -11.08972,-5.17135 -0.5614,-9.3579 0.0499,-18.65931 0.31093,-30.91903 0.15112,-0.12964 0.6126,-0.66075 1.98804,-1.56406 2.8197,-1.85181 8.17937,-4.1838 15.15061,-6.12028 13.9425,-3.87293 34.32425,-6.47965 56.81748,-6.47965 z m 74.78795,73.11757 c 0.0996,5.55488 -0.062,11.14688 -0.48187,16.88426 -2.18131,1.34103 -5.67116,3.20829 -11.12875,5.19287 -11.55014,4.20008 -31.39209,8.74095 -63.17733,8.74095 -31.78526,0 -51.6272,-4.54087 -63.17734,-8.74095 -5.47783,-1.99194 -8.98096,-3.8686 -11.15971,-5.21037 -0.43808,-5.59251 -0.56338,-11.17441 -0.42265,-16.85465 2.5335,1.0296 5.18189,2.0795 8.29138,3.116 15.02487,5.00831 37.23136,9.89312 66.46832,9.89312 29.23695,0 51.44344,-4.88481 66.46831,-9.89312 3.12064,-1.04022 5.7792,-2.09504 8.31964,-3.12811 z m -0.009,44.94573 c 0.11099,5.88076 -0.0482,11.79145 -0.47783,17.73493 -2.18174,1.3409 -5.6692,3.20684 -11.12337,5.19018 -11.55014,4.20008 -31.39209,8.74095 -63.17733,8.74095 -31.78526,0 -51.6272,-4.54087 -63.17734,-8.74095 -5.47404,-1.99056 -8.9751,-3.86469 -11.15433,-5.20634 -0.44827,-5.79016 -0.56631,-11.69433 -0.41457,-17.70666 2.53043,1.02806 5.17335,2.0771 8.27792,3.11196 15.02487,5.00831 37.23136,9.89312 66.46832,9.89312 29.23695,0 51.44344,-4.88481 66.46831,-9.89312 3.11704,-1.03902 5.77201,-2.09213 8.31022,-3.12407 z"
       id="path4222"
       inkscape:connector-curvature="0" />
    <path
       sodipodi:nodetypes="sccsccsccsccscccsccsc"
       inkscape:connector-curvature="0"
       id="path4220"
       d="m 438.40555,461.07366 c -46.53832,0 -84.26509,10.47971 -84.26509,23.40707 -0.27159,14.32905 -1.31232,25.09462 0,37.53559 0,0 18.72556,18.72566 84.26509,18.72566 65.53951,0 84.26508,-18.72566 84.26508,-18.72566 1.21036,-16.0936 0.77927,-27.54873 0,-37.53559 0,-12.92736 -37.72676,-23.40707 -84.26508,-23.40707 z m -84.26509,67.41237 c -1.05187,13.23946 -1.43242,25.54296 0,38.47187 0,0 18.72556,18.72565 84.26509,18.72565 65.53951,0 84.26508,-18.72565 84.26508,-18.72565 1.27399,-13.26721 1.22256,-25.51673 0,-38.47187 0,0 -28.08835,18.72567 -84.26508,18.72567 -56.17673,0 -84.26509,-18.72567 -84.26509,-18.72567 z m 0,44.94159 c -1.05187,13.23945 -1.43242,26.39497 0,39.32388 0,0 18.72556,18.72565 84.26509,18.72565 65.53951,0 84.26508,-18.72565 84.26508,-18.72565 1.27399,-13.26721 1.22256,-26.36874 0,-39.32388 0,0 -28.08835,18.72565 -84.26508,18.72565 -56.17673,0 -84.26509,-18.72565 -84.26509,-18.72565 z"
       style="color:#000000;clip-rule:nonzero;display:inline;overflow:visible;visibility:visible;opacity:1;isolation:auto;mix-blend-mode:normal;color-interpolation:sRGB;color-interpolation-filters:linearRGB;solid-color:#000000;solid-opacity:1;fill:#abbe24;fill-opacity:1;fill-rule:nonzero;stroke:#ffffff;stroke-width:30;stroke-linecap:butt;stroke-linejoin:round;stroke-miterlimit:4;stroke-dasharray:none;stroke-dashoffset:0;stroke-opacity:1;color-rendering:auto;image-rendering:auto;shape-rendering:auto;text-rendering:auto;enable-background:accumulate" />
    <path
       style="color:#000000;clip-rule:nonzero;display:inline;overflow:visible;visibility:visible;opacity:1;isolation:auto;mix-blend-mode:normal;color-interpolation:sRGB;color-interpolation-filters:linearRGB;solid-color:#000000;solid-opacity:1;fill:#abbe24;fill-opacity:1;fill-rule:nonzero;stroke:none;stroke-width:3.5999999;stroke-linecap:butt;stroke-linejoin:round;stroke-miterlimit:4;stroke-dasharray:none;stroke-dashoffset:0;stroke-opacity:1;color-rendering:auto;image-rendering:auto;shape-rendering:auto;text-rendering:auto;enable-background:accumulate"
       d="m 438.40555,461.07366 c -46.53832,0 -84.26509,10.47971 -84.26509,23.40707 -0.27159,14.32905 -1.31232,25.09462 0,37.53559 0,0 18.72556,18.72566 84.26509,18.72566 65.53951,0 84.26508,-18.72566 84.26508,-18.72566 1.21036,-16.0936 0.77927,-27.54873 0,-37.53559 0,-12.92736 -37.72676,-23.40707 -84.26508,-23.40707 z m -84.26509,67.41237 c -1.05187,13.23946 -1.43242,25.54296 0,38.47187 0,0 18.72556,18.72565 84.26509,18.72565 65.53951,0 84.26508,-18.72565 84.26508,-18.72565 1.27399,-13.26721 1.22256,-25.51673 0,-38.47187 0,0 -28.08835,18.72567 -84.26508,18.72567 -56.17673,0 -84.26509,-18.72567 -84.26509,-18.72567 z m 0,44.94159 c -1.05187,13.23945 -1.43242,26.39497 0,39.32388 0,0 18.72556,18.72565 84.26509,18.72565 65.53951,0 84.26508,-18.72565 84.26508,-18.72565 1.27399,-13.26721 1.22256,-26.36874 0,-39.32388 0,0 -28.08835,18.72565 -84.26508,18.72565 -56.17673,0 -84.26509,-18.72565 -84.26509,-18.72565 z"
       id="path4165"
       inkscape:connector-curvature="0"
       sodipodi:nodetypes="sccsccsccsccscccsccsc" />
  </g>
</svg>
