<?xml version="1.0" encoding="UTF-8" standalone="no"?>
<!-- Created with Inkscape (http://www.inkscape.org/) -->
<svg xmlns:dc="http://purl.org/dc/elements/1.1/" xmlns:cc="http://creativecommons.org/ns#" xmlns:rdf="http://www.w3.org/1999/02/22-rdf-syntax-ns#" xmlns:svg="http://www.w3.org/2000/svg" xmlns="http://www.w3.org/2000/svg" xmlns:xlink="http://www.w3.org/1999/xlink" xmlns:sodipodi="http://sodipodi.sourceforge.net/DTD/sodipodi-0.dtd" xmlns:inkscape="http://www.inkscape.org/namespaces/inkscape" width="210mm" height="297mm" viewBox="0 0 744.09448819 1052.3622047" id="svg2" version="1.1" inkscape:version="0.91 r13725" inkscape:export-xdpi="4" inkscape:export-ydpi="4">
  <defs id="defs4">
    <linearGradient inkscape:collect="always" id="linearGradient4199">
      <stop style="stop-color:#4e505d;stop-opacity:1;" offset="0" id="stop4201"/>
      <stop style="stop-color:#545d6c;stop-opacity:1" offset="1" id="stop4203"/>
    </linearGradient>
    <linearGradient id="linearGradient2224">
      <stop id="stop2226" offset="0" style="stop-color:#7c7c7c;stop-opacity:1;"/>
      <stop id="stop2228" offset="1" style="stop-color:#b8b8b8;stop-opacity:1;"/>
    </linearGradient>
    <linearGradient id="linearGradient15218">
      <stop id="stop15220" offset="0" style="stop-color:#eeeeef;stop-opacity:1;"/>
      <stop id="stop2736" offset="0.59928656" style="stop-color:#d3d7cf;stop-opacity:1;"/>
      <stop id="stop2738" offset="0.82758623" style="stop-color:#ffffff;stop-opacity:1;"/>
      <stop id="stop15222" offset="1" style="stop-color:#d3d7cf;stop-opacity:1;"/>
    </linearGradient>
    <pattern y="0" x="0" height="6" width="6" patternUnits="userSpaceOnUse" id="EMFhbasepattern"/>
    <pattern y="0" x="0" height="6" width="6" patternUnits="userSpaceOnUse" id="EMFhbasepattern-5"/>
    <linearGradient inkscape:collect="always" xlink:href="#linearGradient4199" id="linearGradient4205" x1="321" y1="571.36218" x2="509" y2="480.36221" gradientUnits="userSpaceOnUse" gradientTransform="translate(0,-30)"/>
  </defs>
  <sodipodi:namedview id="base" pagecolor="#ffffff" bordercolor="#666666" borderopacity="1.0" inkscape:pageopacity="0.0" inkscape:pageshadow="2" inkscape:zoom="0.5" inkscape:cx="-0.37079551" inkscape:cy="575.85755" inkscape:document-units="px" inkscape:current-layer="layer1" showgrid="false" showguides="true" inkscape:guide-bbox="true" inkscape:window-width="1366" inkscape:window-height="721" inkscape:window-x="-4" inkscape:window-y="-4" inkscape:window-maximized="1">
    <sodipodi:guide position="560,730.00002" orientation="0,1" id="guide3338"/>
    <sodipodi:guide position="560,330.00001" orientation="0,1" id="guide3340"/>
    <sodipodi:guide position="190,475.00001" orientation="1,0" id="guide3344"/>
    <sodipodi:guide position="590,451.00001" orientation="1,0" id="guide3346"/>
    <inkscape:grid type="xygrid" id="grid3440"/>
    <sodipodi:guide position="-111.01577,704.98548" orientation="0,1" id="guide4151"/>
    <sodipodi:guide position="54.25,355.00001" orientation="0,1" id="guide4153"/>
    <sodipodi:guide position="215,442.00001" orientation="1,0" id="guide4155"/>
    <sodipodi:guide position="564.97832,467.39759" orientation="1,0" id="guide4157"/>
  </sodipodi:namedview>
  <metadata id="metadata7">
    <rdf:RDF>
      <cc:Work rdf:about="">
        <dc:format>image/svg+xml</dc:format>
        <dc:type rdf:resource="http://purl.org/dc/dcmitype/StillImage"/>
        <dc:title>server vpn</dc:title>
      </cc:Work>
    </rdf:RDF>
  </metadata>
  <g inkscape:label="Ebene 1" inkscape:groupmode="layer" id="layer1">
    <g id="g4220" transform="translate(0,-56)">
      <path id="rect4153" d="m 242.91862,447.21523 c -6.51959,0 -11.76826,5.24867 -11.76826,11.76826 l 0,11.76826 -15.91014,0 0,47.19255 15.91014,0 0,11.64875 c 0,6.51961 5.24867,11.76825 11.76826,11.76825 l 294.20649,0 c 6.51959,0 11.76826,-5.24864 11.76826,-11.76825 l 0,-11.64875 16.34684,0 0,-47.19255 -16.34684,0 0,-11.76826 c 0,-6.51959 -5.24867,-11.76826 -11.76826,-11.76826 l -294.20649,0 z" style="color:#000000;clip-rule:nonzero;display:inline;overflow:visible;visibility:visible;opacity:1;isolation:auto;mix-blend-mode:normal;color-interpolation:sRGB;color-interpolation-filters:linearRGB;solid-color:#000000;solid-opacity:1;fill:url(#linearGradient4205);fill-opacity:1;fill-rule:nonzero;stroke:none;stroke-width:30;stroke-linecap:butt;stroke-linejoin:round;stroke-miterlimit:4;stroke-dasharray:none;stroke-dashoffset:60.95968628;stroke-opacity:1;color-rendering:auto;image-rendering:auto;shape-rendering:auto;text-rendering:auto;enable-background:accumulate" inkscape:connector-curvature="0"/>
      <circle r="11.768259" cy="506.05853" cx="513.58856" id="path4159" style="color:#000000;clip-rule:nonzero;display:inline;overflow:visible;visibility:visible;opacity:1;isolation:auto;mix-blend-mode:normal;color-interpolation:sRGB;color-interpolation-filters:linearRGB;solid-color:#000000;solid-opacity:1;fill:#99b000;fill-opacity:1;fill-rule:nonzero;stroke:none;stroke-width:30;stroke-linecap:butt;stroke-linejoin:round;stroke-miterlimit:4;stroke-dasharray:none;stroke-dashoffset:60.95968628;stroke-opacity:1;color-rendering:auto;image-rendering:auto;shape-rendering:auto;text-rendering:auto;enable-background:accumulate"/>
      <circle r="11.768259" cy="506.05853" cx="478.28381" id="path4163" style="color:#000000;clip-rule:nonzero;display:inline;overflow:visible;visibility:visible;opacity:1;isolation:auto;mix-blend-mode:normal;color-interpolation:sRGB;color-interpolation-filters:linearRGB;solid-color:#000000;solid-opacity:1;fill:#ffffff;fill-opacity:1;fill-rule:nonzero;stroke:none;stroke-width:30;stroke-linecap:butt;stroke-linejoin:round;stroke-miterlimit:4;stroke-dasharray:none;stroke-dashoffset:60.95968628;stroke-opacity:1;color-rendering:auto;image-rendering:auto;shape-rendering:auto;text-rendering:auto;enable-background:accumulate"/>
      <rect ry="5.8841295" y="458.98557" x="242.91862" height="70.609558" width="11.768259" id="rect4165" style="color:#000000;clip-rule:nonzero;display:inline;overflow:visible;visibility:visible;opacity:1;isolation:auto;mix-blend-mode:normal;color-interpolation:sRGB;color-interpolation-filters:linearRGB;solid-color:#000000;solid-opacity:1;fill:#ffffff;fill-opacity:1;fill-rule:nonzero;stroke:none;stroke-width:30;stroke-linecap:butt;stroke-linejoin:round;stroke-miterlimit:4;stroke-dasharray:none;stroke-dashoffset:60.95968628;stroke-opacity:1;color-rendering:auto;image-rendering:auto;shape-rendering:auto;text-rendering:auto;enable-background:accumulate"/>
      <rect ry="5.8841295" y="458.98557" x="266.45514" height="70.609558" width="11.768259" id="rect4167" style="color:#000000;clip-rule:nonzero;display:inline;overflow:visible;visibility:visible;opacity:1;isolation:auto;mix-blend-mode:normal;color-interpolation:sRGB;color-interpolation-filters:linearRGB;solid-color:#000000;solid-opacity:1;fill:#ffffff;fill-opacity:1;fill-rule:nonzero;stroke:none;stroke-width:30;stroke-linecap:butt;stroke-linejoin:round;stroke-miterlimit:4;stroke-dasharray:none;stroke-dashoffset:60.95968628;stroke-opacity:1;color-rendering:auto;image-rendering:auto;shape-rendering:auto;text-rendering:auto;enable-background:accumulate"/>
      <rect ry="5.8841295" y="458.98557" x="289.99167" height="70.609558" width="11.768259" id="rect4169" style="color:#000000;clip-rule:nonzero;display:inline;overflow:visible;visibility:visible;opacity:1;isolation:auto;mix-blend-mode:normal;color-interpolation:sRGB;color-interpolation-filters:linearRGB;solid-color:#000000;solid-opacity:1;fill:#ffffff;fill-opacity:1;fill-rule:nonzero;stroke:none;stroke-width:30;stroke-linecap:butt;stroke-linejoin:round;stroke-miterlimit:4;stroke-dasharray:none;stroke-dashoffset:60.95968628;stroke-opacity:1;color-rendering:auto;image-rendering:auto;shape-rendering:auto;text-rendering:auto;enable-background:accumulate"/>
      <rect ry="5.8841295" y="458.98557" x="313.52817" height="70.609558" width="11.768259" id="rect4173" style="color:#000000;clip-rule:nonzero;display:inline;overflow:visible;visibility:visible;opacity:1;isolation:auto;mix-blend-mode:normal;color-interpolation:sRGB;color-interpolation-filters:linearRGB;solid-color:#000000;solid-opacity:1;fill:#ffffff;fill-opacity:1;fill-rule:nonzero;stroke:none;stroke-width:30;stroke-linecap:butt;stroke-linejoin:round;stroke-miterlimit:4;stroke-dasharray:none;stroke-dashoffset:60.95968628;stroke-opacity:1;color-rendering:auto;image-rendering:auto;shape-rendering:auto;text-rendering:auto;enable-background:accumulate"/>
      <rect ry="5.8841295" y="458.98557" x="337.0647" height="70.609558" width="11.768259" id="rect4175" style="color:#000000;clip-rule:nonzero;display:inline;overflow:visible;visibility:visible;opacity:1;isolation:auto;mix-blend-mode:normal;color-interpolation:sRGB;color-interpolation-filters:linearRGB;solid-color:#000000;solid-opacity:1;fill:#ffffff;fill-opacity:1;fill-rule:nonzero;stroke:none;stroke-width:30;stroke-linecap:butt;stroke-linejoin:round;stroke-miterlimit:4;stroke-dasharray:none;stroke-dashoffset:60.95968628;stroke-opacity:1;color-rendering:auto;image-rendering:auto;shape-rendering:auto;text-rendering:auto;enable-background:accumulate"/>
    </g>
    <rect style="opacity:1;fill:none;fill-opacity:1;stroke:none;stroke-width:23;stroke-linecap:butt;stroke-linejoin:round;stroke-miterlimit:4;stroke-dasharray:none;stroke-opacity:1" id="rect4160" width="400" height="400" x="190" y="322.36221"/>
    <path style="color:#000000;font-style:normal;font-variant:normal;font-weight:normal;font-stretch:normal;font-size:medium;line-height:normal;font-family:sans-serif;text-indent:0;text-align:start;text-decoration:none;text-decoration-line:none;text-decoration-style:solid;text-decoration-color:#000000;letter-spacing:normal;word-spacing:normal;text-transform:none;direction:ltr;block-progression:tb;writing-mode:lr-tb;baseline-shift:baseline;text-anchor:start;white-space:normal;clip-rule:nonzero;display:inline;overflow:visible;visibility:visible;opacity:1;isolation:auto;mix-blend-mode:normal;color-interpolation:sRGB;color-interpolation-filters:linearRGB;solid-color:#000000;solid-opacity:1;fill:#ffffff;fill-opacity:1;fill-rule:nonzero;stroke:#4e505d;stroke-width:23;stroke-linecap:butt;stroke-linejoin:round;stroke-miterlimit:4;stroke-dasharray:none;stroke-dashoffset:0;stroke-opacity:1;color-rendering:auto;image-rendering:auto;shape-rendering:auto;text-rendering:auto;enable-background:accumulate" d="m 461,438.36133 c -21.76849,0 -41.93673,8.40513 -57.46094,23.85351 -15.52597,15.4488 -24.00195,35.56743 -24.00195,57.2793 l 0,15.3457 c -3.90169,1.46691 -7.54739,3.64683 -10.41016,6.49414 -6.4e-4,6.4e-4 -0.001,0.001 -0.002,0.002 -6.4e-4,6.4e-4 -0.001,0.001 -0.002,0.002 -5.30432,5.27627 -8.57422,13.22049 -8.57422,20.67188 l 0,85.02734 c 0,7.45412 3.2713,15.39332 8.57226,20.66992 a 15.0015,15.0015 0 0 0 0.006,0.008 c 5.30059,5.2693 13.22386,8.49414 20.66407,8.49414 l 142.41796,0 c 7.43667,0 15.36462,-3.22694 20.66407,-8.49609 a 15.0015,15.0015 0 0 0 0.0117,-0.01 c 5.29395,-5.27357 8.5664,-13.2066 8.5664,-20.66601 l 0,-85.02149 0,-0.006 c 0.002,-7.4667 -3.28208,-15.4035 -8.57812,-20.67188 -2.86147,-2.8467 -6.50881,-5.02821 -10.41211,-6.49609 l 0,-15.34766 c 0,-21.71098 -8.4763,-41.82894 -24.00196,-57.27734 C 502.93466,446.76841 482.7694,438.36133 461,438.36133 Z m -21.87891,34.67578 c -1.53537,0.74893 -3.01702,1.58463 -4.46875,2.47461 1.4611,-0.91825 2.95186,-1.74239 4.46875,-2.47461 z m 43.77344,0.008 c 1.4993,0.72463 2.97316,1.54077 4.41797,2.44727 -1.43601,-0.87883 -2.9002,-1.70633 -4.41797,-2.44727 z m 21.2168,18.44141 c 3.57318,5.09281 5.8783,10.47396 7.14844,16.40234 -1.45408,-5.81329 -3.82931,-11.37058 -7.14844,-16.40234 z m -86.56055,0.52344 c -1.48217,2.26473 -2.84346,4.6144 -3.9668,7.09179 1.08953,-2.43546 2.398,-4.79477 3.9668,-7.09179 z M 461,497.74609 c 6.96653,0 9.821,1.31958 15.23242,6.70313 5.19319,5.16774 6.42032,8.06218 6.70508,15.48242 l 0,12.90625 -43.87695,0 0,-13.34375 c 0,-6.87491 1.29585,-9.66138 6.70703,-15.04492 5.4108,-5.38315 8.26726,-6.70313 15.23242,-6.70313 z m -47.83398,2.2168 c -0.0243,0.0563 -0.0423,0.11547 -0.0664,0.17188 0.0236,-0.0567 0.0426,-0.1153 0.0664,-0.17188 z m -3.86329,50.48828 a 15.0015,15.0015 0 0 0 14.75782,12.38672 l 73.87695,0 a 15.0015,15.0015 0 0 0 14.76758,-12.38281 15.0015,15.0015 0 0 0 14.75586,12.38281 l 3.99023,0 0,83.37109 -140.90234,0 0,-83.37109 3.98828,0 a 15.0015,15.0015 0 0 0 14.76562,-12.38672 z" id="path4193" inkscape:connector-curvature="0"/>
    <g style="fill:#99b000;stroke:#ffffff;stroke-width:50;stroke-miterlimit:4;stroke-dasharray:none;stroke-linejoin:round" id="g4187" transform="matrix(0.51961522,0,0,0.51703264,356.5576,453.3622)">
      <path style="fill:#99b000;fill-opacity:1;stroke:#ffffff;stroke-width:50;stroke-miterlimit:4;stroke-dasharray:none;stroke-linejoin:round" sodipodi:nodetypes="cscscscscscsscsscsccccssscsc" id="path4189" d="m 357.45,190.721 c -5.331,-5.33 -11.8,-7.993 -19.417,-7.993 l -9.131,0 0,-54.821 c 0,-35.022 -12.559,-65.093 -37.685,-90.218 C 266.093,12.563 236.025,0 200.998,0 165.972,0 135.898,12.563 110.776,37.688 85.65,62.814 73.091,92.884 73.091,127.907 l 0,54.821 -9.135,0 c -7.611,0 -14.084,2.663 -19.414,7.993 -5.33,5.326 -7.994,11.799 -7.994,19.417 l 0,164.452 c 0,7.611 2.665,14.086 7.994,19.417 5.33,5.325 11.803,7.991 19.414,7.991 l 274.084,0 c 7.617,0 14.085,-2.663 19.417,-7.991 5.325,-5.331 7.994,-11.806 7.994,-19.417 l 0,-164.455 c 0.004,-7.612 -2.669,-14.084 -8.001,-19.414 z m -85.363,-7.993 -142.178,0 0,-54.821 c 0,-20.175 7.139,-35.39201 21.414,-49.66501 14.277,-14.275 29.501,-21.411 49.678,-21.411 20.179,0 35.399,7.135 49.677,21.411 14.271,14.272 20.67346,29.50356 21.409,49.66501 z" inkscape:connector-curvature="0"/>
    </g>
    <g transform="matrix(0.51961522,0,0,0.51703264,356.5576,453.3622)" id="g3" style="fill:#99b000">
      <path inkscape:connector-curvature="0" d="m 357.45,190.721 c -5.331,-5.33 -11.8,-7.993 -19.417,-7.993 l -9.131,0 0,-54.821 c 0,-35.022 -12.559,-65.093 -37.685,-90.218 C 266.093,12.563 236.025,0 200.998,0 165.972,0 135.898,12.563 110.776,37.688 85.65,62.814 73.091,92.884 73.091,127.907 l 0,54.821 -9.135,0 c -7.611,0 -14.084,2.663 -19.414,7.993 -5.33,5.326 -7.994,11.799 -7.994,19.417 l 0,164.452 c 0,7.611 2.665,14.086 7.994,19.417 5.33,5.325 11.803,7.991 19.414,7.991 l 274.084,0 c 7.617,0 14.085,-2.663 19.417,-7.991 5.325,-5.331 7.994,-11.806 7.994,-19.417 l 0,-164.455 c 0.004,-7.612 -2.669,-14.084 -8.001,-19.414 z m -85.363,-7.993 -142.178,0 0,-54.821 c 0,-20.175 7.139,-35.39201 21.414,-49.66501 14.277,-14.275 29.501,-21.411 49.678,-21.411 20.179,0 35.399,7.135 49.677,21.411 14.271,14.272 20.67346,29.50356 21.409,49.66501 z" id="path5" sodipodi:nodetypes="cscscscscscsscsscsccccssscsc" style="fill:#99b000;fill-opacity:1"/>
    </g>
  </g>
</svg>
