<?xml version="1.0" encoding="UTF-8" standalone="no"?>
<!-- Created with Inkscape (http://www.inkscape.org/) -->

<svg
   xmlns:dc="http://purl.org/dc/elements/1.1/"
   xmlns:cc="http://creativecommons.org/ns#"
   xmlns:rdf="http://www.w3.org/1999/02/22-rdf-syntax-ns#"
   xmlns:svg="http://www.w3.org/2000/svg"
   xmlns="http://www.w3.org/2000/svg"
   xmlns:xlink="http://www.w3.org/1999/xlink"
   xmlns:sodipodi="http://sodipodi.sourceforge.net/DTD/sodipodi-0.dtd"
   xmlns:inkscape="http://www.inkscape.org/namespaces/inkscape"
   width="210mm"
   height="297mm"
   viewBox="0 0 744.09448819 1052.3622047"
   id="svg2"
   version="1.1"
   inkscape:version="0.91 r13725"
   inkscape:export-xdpi="4"
   inkscape:export-ydpi="4"
   sodipodi:docname="workstation.svg">
  <defs
     id="defs4">
    <linearGradient
       inkscape:collect="always"
       id="linearGradient4169">
      <stop
         style="stop-color:#4e505d;stop-opacity:1;"
         offset="0"
         id="stop4171" />
      <stop
         style="stop-color:#7a859c;stop-opacity:1"
         offset="1"
         id="stop4173" />
    </linearGradient>
    <linearGradient
       inkscape:collect="always"
       xlink:href="#linearGradient4169"
       id="linearGradient4175"
       x1="355"
       y1="587.36218"
       x2="420"
       y2="512.36218"
       gradientUnits="userSpaceOnUse"
       gradientTransform="matrix(4.0364962,0,0,4.0364962,-1134.5437,-1702.7055)" />
  </defs>
  <sodipodi:namedview
     id="base"
     pagecolor="#ffffff"
     bordercolor="#666666"
     borderopacity="1.0"
     inkscape:pageopacity="0.0"
     inkscape:pageshadow="2"
     inkscape:zoom="1"
     inkscape:cx="352.36387"
     inkscape:cy="693.53162"
     inkscape:document-units="px"
     inkscape:current-layer="layer1"
     showgrid="false"
     showguides="true"
     inkscape:guide-bbox="true"
     inkscape:window-width="1600"
     inkscape:window-height="837"
     inkscape:window-x="-4"
     inkscape:window-y="-4"
     inkscape:window-maximized="1"
     inkscape:snap-bbox="true"
     inkscape:bbox-nodes="true">
    <sodipodi:guide
       position="315.53572,730.17859"
       orientation="0,1"
       id="guide3338" />
    <sodipodi:guide
       position="351.25,330.17858"
       orientation="0,1"
       id="guide3340" />
    <sodipodi:guide
       position="189.10714,408.8393"
       orientation="1,0"
       id="guide3344" />
    <sodipodi:guide
       position="589.04521,468.07945"
       orientation="1,0"
       id="guide3346" />
    <inkscape:grid
       type="xygrid"
       id="grid3440" />
    <sodipodi:guide
       position="0,0"
       orientation="0,1"
       id="guide3405" />
    <sodipodi:guide
       position="0,0"
       orientation="0,1"
       id="guide3409" />
    <sodipodi:guide
       position="589.04521,378.30213"
       orientation="1,0"
       id="guide3411" />
  </sodipodi:namedview>
  <metadata
     id="metadata7">
    <rdf:RDF>
      <cc:Work
         rdf:about="">
        <dc:format>image/svg+xml</dc:format>
        <dc:type
           rdf:resource="http://purl.org/dc/dcmitype/StillImage" />
        <dc:title>workstation</dc:title>
        <dc:date>June 2015</dc:date>
        <dc:creator>
          <cc:Agent>
            <dc:title>Johannes Hechler</dc:title>
          </cc:Agent>
        </dc:creator>
        <dc:rights>
          <cc:Agent>
            <dc:title>Johannes Hechler</dc:title>
          </cc:Agent>
        </dc:rights>
        <dc:publisher>
          <cc:Agent>
            <dc:title>RRZE</dc:title>
          </cc:Agent>
        </dc:publisher>
        <dc:contributor>
          <cc:Agent>
            <dc:title>Ute Weber, Hendrik Eggers, Joanna Barbach</dc:title>
          </cc:Agent>
        </dc:contributor>
        <dc:subject>
          <rdf:Bag>
            <rdf:li>workstation</rdf:li>
            <rdf:li>pc</rdf:li>
            <rdf:li>client</rdf:li>
            <rdf:li>computer</rdf:li>
            <rdf:li>terminal</rdf:li>
          </rdf:Bag>
        </dc:subject>
        <cc:license
           rdf:resource="http://creativecommons.org/licenses/by-sa/3.0/" />
      </cc:Work>
      <cc:License
         rdf:about="http://creativecommons.org/licenses/by-sa/3.0/">
        <cc:permits
           rdf:resource="http://creativecommons.org/ns#Reproduction" />
        <cc:permits
           rdf:resource="http://creativecommons.org/ns#Distribution" />
        <cc:requires
           rdf:resource="http://creativecommons.org/ns#Notice" />
        <cc:requires
           rdf:resource="http://creativecommons.org/ns#Attribution" />
        <cc:permits
           rdf:resource="http://creativecommons.org/ns#DerivativeWorks" />
        <cc:requires
           rdf:resource="http://creativecommons.org/ns#ShareAlike" />
      </cc:License>
    </rdf:RDF>
  </metadata>
  <g
     inkscape:label="Ebene 1"
     inkscape:groupmode="layer"
     id="layer1">
    <g
       id="g4243">
      <g
         id="g4232">
        <flowRoot
           xml:space="preserve"
           id="flowRoot4169"
           style="font-style:normal;font-weight:normal;font-size:40px;line-height:125%;font-family:sans-serif;letter-spacing:0px;word-spacing:0px;fill:#252525;fill-opacity:1;stroke:none;stroke-width:1px;stroke-linecap:butt;stroke-linejoin:miter;stroke-opacity:1"><flowRegion
             id="flowRegion4171"><rect
               id="rect4173"
               width="56.433445"
               height="88.78862"
               x="89.541069"
               y="427.07962" /></flowRegion><flowPara
             id="flowPara4175" /></flowRoot>        <rect
           style="fill:none;fill-rule:evenodd;stroke:none;stroke-width:1px;stroke-linecap:butt;stroke-linejoin:miter;stroke-opacity:1"
           id="rect3336"
           width="400"
           height="400"
           x="189.14485"
           y="322.27005"
           inkscape:export-xdpi="4.9499998"
           inkscape:export-ydpi="4.9499998" />
        <path
           style="opacity:1;fill:url(#linearGradient4175);fill-opacity:1;stroke:none;stroke-width:36;stroke-linejoin:round;stroke-miterlimit:4;stroke-dasharray:none;stroke-opacity:1"
           d="m 217.68164,365.43945 c -11.18113,0 -20.18164,9.00051 -20.18164,20.18164 l 0,222.00782 c 0,11.18113 9.00051,20.18164 20.18164,20.18164 l 121.0957,0 0,40.36523 -30.27343,0 c -5.59051,0 -10.0918,4.50125 -10.0918,10.0918 0,5.5905 4.50129,10.0918 10.0918,10.0918 l 161.45898,0 c 0.82775,0 1.62759,-0.11061 2.39649,-0.29688 -0.18667,-1.86586 -0.28711,-3.75626 -0.28711,-5.66797 l 0,-13.99609 c -0.68016,-0.14361 -1.38524,-0.22266 -2.10938,-0.22266 l -30.27344,0 0,-40.36523 32.38282,0 0,-24.99414 c 0,-36.43562 21.60344,-59.28907 57.28906,-59.28907 l 19.89453,0 c 15.19099,0 22.60683,5.58052 31.71094,11.68946 l 0,-169.59571 c 0,-11.18113 -9.0005,-20.18164 -20.18164,-20.18164 z m 311.67969,215.08789 c -12.65103,0 -22.28906,9.63804 -22.28906,22.28907 l 0,24.99414 53.71289,0 c 3.96672,0 7.64634,-1.15009 10.75976,-3.11133 l 0,-21.88281 c 0,-12.65103 -9.63804,-22.28907 -22.28906,-22.28907 z"
           id="rect4159"
           inkscape:connector-curvature="0"
           sodipodi:nodetypes="ssssccsssscscscccssscssssscscsss" />
        <path
           style="opacity:1;fill:#ffffff;fill-opacity:1;stroke:none;stroke-width:36;stroke-linejoin:round;stroke-miterlimit:4;stroke-dasharray:none;stroke-opacity:1"
           d="M 227.77344 385.625 C 222.18293 385.625 217.68164 390.12628 217.68164 395.7168 L 217.68164 597.54102 C 217.68164 603.13158 222.18293 607.63281 227.77344 607.63281 L 472.07227 607.63281 L 472.07227 602.81641 C 472.07227 571.38079 497.92571 545.52734 529.36133 545.52734 L 549.25586 545.52734 C 553.20057 545.52734 557.05631 545.93483 560.78516 546.70898 L 560.78516 395.7168 C 560.78516 390.12628 556.28387 385.625 550.69336 385.625 L 227.77344 385.625 z M 529.36133 580.52734 C 516.7103 580.52734 507.07227 590.16538 507.07227 602.81641 L 507.07227 607.63281 L 550.69336 607.63281 C 556.28387 607.63281 560.78516 603.13158 560.78516 597.54102 L 560.78516 583.57422 C 557.45504 581.63072 553.52854 580.52734 549.25586 580.52734 L 529.36133 580.52734 z "
           id="rect4166" />
        <rect
           style="opacity:1;fill:#99b000;fill-opacity:1;stroke:none;stroke-width:36;stroke-linejoin:round;stroke-miterlimit:4;stroke-dasharray:none;stroke-opacity:1"
           id="rect4177"
           width="99.473259"
           height="159.15723"
           x="489.57196"
           y="563.02643"
           ry="39.789391" />
        <path
           style="opacity:1;fill:#ffffff;fill-opacity:1;stroke:none;stroke-width:36;stroke-linejoin:round;stroke-miterlimit:4;stroke-dasharray:none;stroke-opacity:1"
           d="m 539.30857,590.87894 c 5.51083,0 9.94733,4.4365 9.94733,9.94732 l 0,31.83144 c 0,5.51081 -4.4365,9.94733 -9.94733,9.94733 -5.51081,0 -9.94732,-4.43652 -9.94732,-9.94733 l 0,-31.83144 c 0,-5.51082 4.43651,-9.94732 9.94732,-9.94732 z"
           id="rect4179"
           inkscape:connector-curvature="0"
           sodipodi:nodetypes="sssssss" />
      </g>
    </g>
  </g>
</svg>
