<?xml version="1.0" encoding="UTF-8" standalone="no"?>
<!-- Created with Inkscape (http://www.inkscape.org/) -->

<svg
   xmlns:dc="http://purl.org/dc/elements/1.1/"
   xmlns:cc="http://creativecommons.org/ns#"
   xmlns:rdf="http://www.w3.org/1999/02/22-rdf-syntax-ns#"
   xmlns:svg="http://www.w3.org/2000/svg"
   xmlns="http://www.w3.org/2000/svg"
   xmlns:xlink="http://www.w3.org/1999/xlink"
   xmlns:sodipodi="http://sodipodi.sourceforge.net/DTD/sodipodi-0.dtd"
   xmlns:inkscape="http://www.inkscape.org/namespaces/inkscape"
   width="210mm"
   height="297mm"
   viewBox="0 0 744.09448819 1052.3622047"
   id="svg2"
   version="1.1"
   inkscape:version="0.91 r13725"
   inkscape:export-xdpi="3.5999999"
   inkscape:export-ydpi="3.5999999"
   sodipodi:docname="awaiting-plus.svg"
   inkscape:export-filename="C:\Users\johannes\Documents\Arbeit\RRZE\github3\bicons\16x16\status\awaiting-plus.png">
  <defs
     id="defs4">
    <linearGradient
       id="linearGradient2224">
      <stop
         id="stop2226"
         offset="0"
         style="stop-color:#7c7c7c;stop-opacity:1;" />
      <stop
         id="stop2228"
         offset="1"
         style="stop-color:#b8b8b8;stop-opacity:1;" />
    </linearGradient>
    <linearGradient
       id="linearGradient15218">
      <stop
         id="stop15220"
         offset="0"
         style="stop-color:#eeeeef;stop-opacity:1;" />
      <stop
         id="stop2736"
         offset="0.59928656"
         style="stop-color:#d3d7cf;stop-opacity:1;" />
      <stop
         id="stop2738"
         offset="0.82758623"
         style="stop-color:#ffffff;stop-opacity:1;" />
      <stop
         id="stop15222"
         offset="1"
         style="stop-color:#d3d7cf;stop-opacity:1;" />
    </linearGradient>
    <pattern
       y="0"
       x="0"
       height="6"
       width="6"
       patternUnits="userSpaceOnUse"
       id="EMFhbasepattern" />
    <pattern
       y="0"
       x="0"
       height="6"
       width="6"
       patternUnits="userSpaceOnUse"
       id="EMFhbasepattern-5" />
    <linearGradient
       inkscape:collect="always"
       xlink:href="#linearGradient4197"
       id="linearGradient4203"
       x1="197.56491"
       y1="523.36218"
       x2="580.435"
       y2="523.36218"
       gradientUnits="userSpaceOnUse"
       gradientTransform="matrix(0.91414828,0,0,0.91407926,32.98513,44.44766)" />
    <linearGradient
       inkscape:collect="always"
       id="linearGradient4197">
      <stop
         style="stop-color:#4e505d;stop-opacity:1;"
         offset="0"
         id="stop4199" />
      <stop
         style="stop-color:#7a8597;stop-opacity:1"
         offset="1"
         id="stop4201" />
    </linearGradient>
  </defs>
  <sodipodi:namedview
     id="base"
     pagecolor="#ffffff"
     bordercolor="#666666"
     borderopacity="1.0"
     inkscape:pageopacity="0.0"
     inkscape:pageshadow="2"
     inkscape:zoom="0.3535534"
     inkscape:cx="156.87728"
     inkscape:cy="657.4107"
     inkscape:document-units="px"
     inkscape:current-layer="layer1"
     showgrid="false"
     showguides="true"
     inkscape:guide-bbox="true"
     inkscape:window-width="1366"
     inkscape:window-height="721"
     inkscape:window-x="-4"
     inkscape:window-y="-4"
     inkscape:window-maximized="1">
    <sodipodi:guide
       position="315.53572,730.17859"
       orientation="0,1"
       id="guide3338" />
    <sodipodi:guide
       position="351.25,330.17858"
       orientation="0,1"
       id="guide3340" />
    <sodipodi:guide
       position="189.10714,408.8393"
       orientation="1,0"
       id="guide3344" />
    <sodipodi:guide
       position="589.04521,468.07945"
       orientation="1,0"
       id="guide3346" />
    <inkscape:grid
       type="xygrid"
       id="grid3440" />
    <sodipodi:guide
       position="0,0"
       orientation="0,1"
       id="guide3405" />
    <sodipodi:guide
       position="214.125,684.50002"
       orientation="1,0"
       id="guide3407" />
    <sodipodi:guide
       position="0,0"
       orientation="0,1"
       id="guide3409" />
    <sodipodi:guide
       position="589.04521,378.30213"
       orientation="1,0"
       id="guide3411" />
    <sodipodi:guide
       position="564.00001,683.37502"
       orientation="1,0"
       id="guide3413" />
    <sodipodi:guide
       position="0,0"
       orientation="0,1"
       id="guide4168" />
  </sodipodi:namedview>
  <metadata
     id="metadata7">
    <rdf:RDF>
      <cc:Work
         rdf:about="">
        <dc:format>image/svg+xml</dc:format>
        <dc:type
           rdf:resource="http://purl.org/dc/dcmitype/StillImage" />
        <dc:title>awaiting plus</dc:title>
        <dc:date>June 2015</dc:date>
        <dc:creator>
          <cc:Agent>
            <dc:title>Johannes Hechler</dc:title>
          </cc:Agent>
        </dc:creator>
        <dc:rights>
          <cc:Agent>
            <dc:title>Johannes Hechler</dc:title>
          </cc:Agent>
        </dc:rights>
        <dc:publisher>
          <cc:Agent>
            <dc:title>RRZE</dc:title>
          </cc:Agent>
        </dc:publisher>
        <dc:contributor>
          <cc:Agent>
            <dc:title>Ute Weber, Hendrik Eggers</dc:title>
          </cc:Agent>
        </dc:contributor>
      </cc:Work>
    </rdf:RDF>
  </metadata>
  <g
     inkscape:label="Ebene 1"
     inkscape:groupmode="layer"
     id="layer1">
    <g
       id="g4289">
      <flowRoot
         style="font-style:normal;font-weight:normal;font-size:40px;line-height:125%;font-family:sans-serif;letter-spacing:0px;word-spacing:0px;fill:#252525;fill-opacity:1;stroke:none;stroke-width:1px;stroke-linecap:butt;stroke-linejoin:miter;stroke-opacity:1"
         id="flowRoot4169"
         xml:space="preserve"
         transform="translate(-0.64484,-0.4078)"><flowRegion
           id="flowRegion4171"><rect
             y="427.07962"
             x="89.541069"
             height="88.78862"
             width="56.433445"
             id="rect4173" /></flowRegion><flowPara
           id="flowPara4175" /></flowRoot>      <rect
         inkscape:export-ydpi="4.9499998"
         inkscape:export-xdpi="4.9499998"
         y="321.86221"
         x="188.5"
         height="400"
         width="400"
         id="rect3336"
         style="fill:none;fill-rule:evenodd;stroke:none;stroke-width:1px;stroke-linecap:butt;stroke-linejoin:miter;stroke-opacity:1" />
      <path
         id="path4188"
         d="M 388.58789 347.85547 C 291.93824 347.85547 213.58814 426.19944 213.58789 522.8418 C 213.58815 619.48415 291.93824 697.82812 388.58789 697.82812 C 388.58789 697.82812 412.68999 672.78516 372.73047 672.78516 C 354.75296 672.78516 339.5 657.5322 339.5 639.55469 L 339.5 580.16992 C 339.5 562.19243 354.753 546.93945 372.73047 546.93945 L 413.57617 546.93945 L 413.57617 506.30273 C 413.57617 488.20752 428.92235 472.86133 447.01758 472.86133 L 505.98242 472.86133 C 524.07765 472.86133 539.42383 488.20752 539.42383 506.30273 L 539.42383 546.93945 L 561.71289 546.93945 C 562.89261 538.95971 563.5191 530.90796 563.58789 522.8418 C 563.58764 426.19944 485.23754 347.85547 388.58789 347.85547 z M 463.57617 522.86133 L 463.57617 571.93945 C 463.57613 572.47645 463.55293 573.00853 463.51953 573.53711 A 25.0025 25.0025 0 0 1 463.49609 573.84766 C 463.43796 574.61655 463.34683 575.37514 463.2207 576.12305 A 25.0025 25.0025 0 0 1 463.19727 576.25781 C 463.05849 577.05405 462.88213 577.83702 462.66992 578.60547 A 25.0025 25.0025 0 0 1 462.66602 578.62305 C 462.66382 578.63099 462.66041 578.63855 462.6582 578.64648 C 462.43589 579.44613 462.17461 580.2289 461.87695 580.99414 C 461.57639 581.76686 461.24017 582.52068 460.86719 583.25391 A 25.0025 25.0025 0 0 1 460.85742 583.27539 C 460.85332 583.28343 460.84786 583.29079 460.84375 583.29883 C 460.47621 584.01773 460.07558 584.71604 459.64258 585.39258 A 25.0025 25.0025 0 0 1 459.58008 585.49023 C 459.15686 586.14478 458.70347 586.77811 458.22266 587.38867 A 25.0025 25.0025 0 0 1 458.10156 587.54492 C 457.63322 588.13012 457.13728 588.69195 456.61914 589.23242 A 25.0025 25.0025 0 0 1 456.43359 589.42969 C 455.90728 589.96698 455.35587 590.47854 454.7832 590.9668 A 25.0025 25.0025 0 0 1 454.62695 591.10156 C 454.00989 591.61899 453.36681 592.10765 452.70117 592.56445 A 25.0025 25.0025 0 0 1 452.69336 592.57031 C 452.69217 592.57113 452.69064 592.57145 452.68945 592.57227 C 449.3185 594.88281 445.35591 596.38946 441.07227 596.81445 C 440.25133 596.8959 439.41852 596.93937 438.57617 596.93945 L 389.5 596.93945 L 389.5 622.78516 L 438.57617 622.78516 C 439.11317 622.7852 439.64525 622.8084 440.17383 622.8418 A 25.0025 25.0025 0 0 1 440.48438 622.86523 C 441.25327 622.92337 442.01186 623.0145 442.75977 623.14062 A 25.0025 25.0025 0 0 1 442.89453 623.16406 C 443.69077 623.30284 444.47374 623.47919 445.24219 623.69141 A 25.0025 25.0025 0 0 1 445.25977 623.69531 C 445.2677 623.69751 445.27527 623.70092 445.2832 623.70312 C 446.08285 623.92543 446.86562 624.18672 447.63086 624.48438 C 448.40358 624.78494 449.1574 625.12116 449.89062 625.49414 A 25.0025 25.0025 0 0 1 449.91211 625.50391 C 449.92015 625.50801 449.92751 625.51347 449.93555 625.51758 C 450.65445 625.88512 451.35276 626.28575 452.0293 626.71875 A 25.0025 25.0025 0 0 1 452.12695 626.78125 C 452.7815 627.20447 453.41483 627.65786 454.02539 628.13867 A 25.0025 25.0025 0 0 1 454.18164 628.25977 C 454.76684 628.72811 455.32867 629.22405 455.86914 629.74219 A 25.0025 25.0025 0 0 1 456.06641 629.92773 C 456.6037 630.45405 457.11526 631.00546 457.60352 631.57812 A 25.0025 25.0025 0 0 1 457.73828 631.73438 C 458.2557 632.35144 458.74437 632.99452 459.20117 633.66016 A 25.0025 25.0025 0 0 1 459.20703 633.66797 C 459.20784 633.66916 459.20817 633.67069 459.20898 633.67188 C 461.51953 637.04283 463.02618 641.00541 463.45117 645.28906 C 463.53262 646.11 463.57609 646.94281 463.57617 647.78516 L 463.57617 680.75781 C 472.60976 676.45207 481.25735 671.37944 489.42383 665.5957 L 489.42383 647.78516 C 489.42387 647.24816 489.44707 646.71608 489.48047 646.1875 A 25.0025 25.0025 0 0 1 489.50391 645.87695 C 489.56204 645.10806 489.65317 644.34947 489.7793 643.60156 A 25.0025 25.0025 0 0 1 489.80273 643.4668 C 489.94151 642.67056 490.11787 641.88759 490.33008 641.11914 A 25.0025 25.0025 0 0 1 490.3418 641.07812 C 490.56411 640.27847 490.82539 639.49571 491.12305 638.73047 C 491.42361 637.95775 491.75983 637.20393 492.13281 636.4707 A 25.0025 25.0025 0 0 1 492.15625 636.42578 C 492.52379 635.70688 492.92442 635.00857 493.35742 634.33203 A 25.0025 25.0025 0 0 1 493.41992 634.23438 C 493.84314 633.57983 494.29653 632.9465 494.77734 632.33594 A 25.0025 25.0025 0 0 1 494.89844 632.17969 C 495.36678 631.59449 495.86272 631.03266 496.38086 630.49219 A 25.0025 25.0025 0 0 1 496.56641 630.29492 C 497.09272 629.75763 497.64413 629.24607 498.2168 628.75781 A 25.0025 25.0025 0 0 1 498.37305 628.62305 C 498.99011 628.10562 499.63319 627.61695 500.29883 627.16016 A 25.0025 25.0025 0 0 1 500.31055 627.15234 C 503.6815 624.8418 507.64409 623.33515 511.92773 622.91016 C 512.74867 622.82871 513.58148 622.78524 514.42383 622.78516 L 532.1582 622.78516 C 537.79651 614.60399 542.72775 605.9575 546.89844 596.93945 L 514.42383 596.93945 C 513.88683 596.93941 513.35475 596.91621 512.82617 596.88281 A 25.0025 25.0025 0 0 1 512.51562 596.85938 C 511.74673 596.80124 510.98814 596.71011 510.24023 596.58398 A 25.0025 25.0025 0 0 1 510.10547 596.56055 C 509.30923 596.42177 508.52626 596.24541 507.75781 596.0332 A 25.0025 25.0025 0 0 1 507.7168 596.02148 C 506.91715 595.79917 506.13438 595.53789 505.36914 595.24023 C 504.59642 594.93967 503.8426 594.60345 503.10938 594.23047 A 25.0025 25.0025 0 0 1 503.06445 594.20703 C 502.34555 593.83949 501.64724 593.43886 500.9707 593.00586 A 25.0025 25.0025 0 0 1 500.87305 592.94336 C 500.2185 592.52014 499.58517 592.06675 498.97461 591.58594 A 25.0025 25.0025 0 0 1 498.81836 591.46484 C 498.23316 590.9965 497.67133 590.50056 497.13086 589.98242 A 25.0025 25.0025 0 0 1 496.93359 589.79688 C 496.3963 589.27056 495.88474 588.71915 495.39648 588.14648 A 25.0025 25.0025 0 0 1 495.26172 587.99023 C 494.7443 587.37317 494.25563 586.73009 493.79883 586.06445 A 25.0025 25.0025 0 0 1 493.79102 586.05273 C 491.48047 582.68178 489.97382 578.71919 489.54883 574.43555 C 489.46738 573.61461 489.42391 572.7818 489.42383 571.93945 L 489.42383 522.86133 L 463.57617 522.86133 z "
         style="opacity:1;fill:url(#linearGradient4203);fill-opacity:1;stroke:none;stroke-width:16;stroke-linecap:round;stroke-linejoin:round;stroke-miterlimit:4;stroke-dasharray:none;stroke-opacity:1" />
      <ellipse
         ry="24.998112"
         rx="25"
         cy="522.8421"
         cx="388.58878"
         id="path4190"
         style="opacity:1;fill:#ffffff;fill-opacity:1;stroke:none;stroke-width:16;stroke-linecap:round;stroke-linejoin:round;stroke-miterlimit:4;stroke-dasharray:none;stroke-opacity:1" />
      <rect
         rx="17.285789"
         transform="matrix(0.76606834,0.64275913,-0.6428161,0.76602054,0,0)"
         ry="14.415377"
         y="136.52832"
         x="493.35538"
         height="28.830753"
         width="137.83954"
         id="rect4192"
         style="opacity:1;fill:#ffffff;fill-opacity:1;stroke:none;stroke-width:16;stroke-linecap:round;stroke-linejoin:round;stroke-miterlimit:4;stroke-dasharray:none;stroke-opacity:1" />
      <rect
         inkscape:transform-center-y="-0.48130616"
         inkscape:transform-center-x="51.732675"
         transform="matrix(-0.01962164,-0.99980748,-0.99980843,0.01957313,0,0)"
         rx="13.61302"
         ry="15.418656"
         y="-380.23502"
         x="-543.58472"
         height="105.44456"
         width="27.22604"
         id="rect4194"
         style="opacity:1;fill:#ffffff;fill-opacity:1;stroke:none;stroke-width:16;stroke-linecap:round;stroke-linejoin:round;stroke-miterlimit:4;stroke-dasharray:none;stroke-opacity:1" />
      <rect
         style="color:#000000;clip-rule:nonzero;display:inline;overflow:visible;visibility:visible;opacity:0.98000004;isolation:auto;mix-blend-mode:normal;color-interpolation:sRGB;color-interpolation-filters:linearRGB;solid-color:#000000;solid-opacity:1;fill:#ffffff;fill-opacity:1;fill-rule:nonzero;stroke:none;stroke-width:10;stroke-linecap:square;stroke-linejoin:miter;stroke-miterlimit:4;stroke-dasharray:20, 20;stroke-dashoffset:0;stroke-opacity:1;color-rendering:auto;image-rendering:auto;shape-rendering:auto;text-rendering:auto;enable-background:accumulate"
         id="rect4188"
         width="60.124001"
         height="24.5"
         x="213.97635"
         y="523.2301"
         ry="12.25" />
      <rect
         ry="12.25"
         y="511.73007"
         x="213.97635"
         height="24.5"
         width="60.124001"
         id="rect4278"
         style="color:#000000;clip-rule:nonzero;display:inline;overflow:visible;visibility:visible;opacity:0.98000004;isolation:auto;mix-blend-mode:normal;color-interpolation:sRGB;color-interpolation-filters:linearRGB;solid-color:#000000;solid-opacity:1;fill:#ffffff;fill-opacity:1;fill-rule:nonzero;stroke:none;stroke-width:10;stroke-linecap:square;stroke-linejoin:miter;stroke-miterlimit:4;stroke-dasharray:20, 20;stroke-dashoffset:0;stroke-opacity:1;color-rendering:auto;image-rendering:auto;shape-rendering:auto;text-rendering:auto;enable-background:accumulate" />
      <rect
         inkscape:transform-center-y="292.64237"
         inkscape:transform-center-x="-7.2124892"
         ry="12.75"
         y="-390.25803"
         x="347.98004"
         height="25.5"
         width="60.124001"
         id="rect4186"
         style="color:#000000;clip-rule:nonzero;display:inline;overflow:visible;visibility:visible;opacity:0.98000004;isolation:auto;mix-blend-mode:normal;color-interpolation:sRGB;color-interpolation-filters:linearRGB;solid-color:#000000;solid-opacity:1;fill:#ffffff;fill-opacity:1;fill-rule:nonzero;stroke:none;stroke-width:10;stroke-linecap:square;stroke-linejoin:miter;stroke-miterlimit:4;stroke-dasharray:20, 20;stroke-dashoffset:0;stroke-opacity:1;color-rendering:auto;image-rendering:auto;shape-rendering:auto;text-rendering:auto;enable-background:accumulate"
         transform="matrix(0,1,-1,0,0,0)" />
      <rect
         transform="matrix(0,1,-1,0,0,0)"
         style="color:#000000;clip-rule:nonzero;display:inline;overflow:visible;visibility:visible;opacity:0.98000004;isolation:auto;mix-blend-mode:normal;color-interpolation:sRGB;color-interpolation-filters:linearRGB;solid-color:#000000;solid-opacity:1;fill:#ffffff;fill-opacity:1;fill-rule:nonzero;stroke:none;stroke-width:10;stroke-linecap:square;stroke-linejoin:miter;stroke-miterlimit:4;stroke-dasharray:20, 20;stroke-dashoffset:0;stroke-opacity:1;color-rendering:auto;image-rendering:auto;shape-rendering:auto;text-rendering:auto;enable-background:accumulate"
         id="rect4280"
         width="60.124001"
         height="25.5"
         x="347.48004"
         y="-404.75803"
         ry="12.75"
         inkscape:transform-center-x="-7.2124892"
         inkscape:transform-center-y="292.64237" />
      <path
         id="rect4182"
         d="M 539.42383 522.90625 L 539.42383 546.93945 L 557.09766 546.93945 C 561.14696 544.80809 563.89844 540.56728 563.89844 535.65625 C 563.89844 528.59275 558.21194 522.90625 551.14844 522.90625 L 539.42383 522.90625 z "
         style="color:#000000;clip-rule:nonzero;display:inline;overflow:visible;visibility:visible;opacity:1;isolation:auto;mix-blend-mode:normal;color-interpolation:sRGB;color-interpolation-filters:linearRGB;solid-color:#000000;solid-opacity:1;fill:#ffffff;fill-opacity:1;fill-rule:nonzero;stroke:none;stroke-width:10;stroke-linecap:square;stroke-linejoin:miter;stroke-miterlimit:4;stroke-dasharray:20, 20;stroke-dashoffset:0;stroke-opacity:1;color-rendering:auto;image-rendering:auto;shape-rendering:auto;text-rendering:auto;enable-background:accumulate" />
      <path
         id="rect4282"
         d="M 539.42383 508.40625 L 539.42383 533.90625 L 551.14844 533.90625 C 558.21194 533.90625 563.89844 528.21975 563.89844 521.15625 C 563.89844 514.09275 558.21194 508.40625 551.14844 508.40625 L 539.42383 508.40625 z "
         style="color:#000000;clip-rule:nonzero;display:inline;overflow:visible;visibility:visible;opacity:1;isolation:auto;mix-blend-mode:normal;color-interpolation:sRGB;color-interpolation-filters:linearRGB;solid-color:#000000;solid-opacity:1;fill:#ffffff;fill-opacity:1;fill-rule:nonzero;stroke:none;stroke-width:10;stroke-linecap:square;stroke-linejoin:miter;stroke-miterlimit:4;stroke-dasharray:20, 20;stroke-dashoffset:0;stroke-opacity:1;color-rendering:auto;image-rendering:auto;shape-rendering:auto;text-rendering:auto;enable-background:accumulate" />
      <path
         id="rect4184"
         d="M 364.43945 671.68164 L 364.43945 685.57031 C 364.43945 692.77231 370.23745 698.57031 377.43945 698.57031 C 384.64145 698.57031 390.43945 692.77231 390.43945 685.57031 L 390.43945 672.78516 L 372.73047 672.78516 C 369.88138 672.78516 367.10181 672.39796 364.43945 671.68164 z "
         style="color:#000000;clip-rule:nonzero;display:inline;overflow:visible;visibility:visible;opacity:1;isolation:auto;mix-blend-mode:normal;color-interpolation:sRGB;color-interpolation-filters:linearRGB;solid-color:#000000;solid-opacity:1;fill:#ffffff;fill-opacity:1;fill-rule:nonzero;stroke:none;stroke-width:10;stroke-linecap:square;stroke-linejoin:miter;stroke-miterlimit:4;stroke-dasharray:20, 20;stroke-dashoffset:0;stroke-opacity:1;color-rendering:auto;image-rendering:auto;shape-rendering:auto;text-rendering:auto;enable-background:accumulate" />
      <path
         id="rect4284"
         d="M 377.93945 672.78516 L 377.93945 685.57031 C 377.93945 692.77231 383.73745 698.57031 390.93945 698.57031 C 398.14145 698.57031 403.93945 692.77231 403.93945 685.57031 L 403.93945 672.78516 L 377.93945 672.78516 z "
         style="color:#000000;clip-rule:nonzero;display:inline;overflow:visible;visibility:visible;opacity:1;isolation:auto;mix-blend-mode:normal;color-interpolation:sRGB;color-interpolation-filters:linearRGB;solid-color:#000000;solid-opacity:1;fill:#ffffff;fill-opacity:1;fill-rule:nonzero;stroke:none;stroke-width:10;stroke-linecap:square;stroke-linejoin:miter;stroke-miterlimit:4;stroke-dasharray:20, 20;stroke-dashoffset:0;stroke-opacity:1;color-rendering:auto;image-rendering:auto;shape-rendering:auto;text-rendering:auto;enable-background:accumulate" />
      <path
         sodipodi:nodetypes="sscsssscsssscsssscsss"
         inkscape:connector-curvature="0"
         id="rect4162"
         d="m 447.01667,497.8622 c -4.67524,0 -8.43974,3.7645 -8.43974,8.43975 l 0,65.63718 -65.84616,0 c -4.55983,0 -8.23077,3.67093 -8.23077,8.23077 l 0,59.38461 c 0,4.55983 3.67094,8.23077 8.23077,8.23077 l 65.84616,0 0,65.64039 c 0,4.67523 3.7645,8.43653 8.43974,8.43653 l 58.96666,0 c 4.67524,0 8.43974,-3.7613 8.43974,-8.43653 l 0,-65.64039 65.84615,0 c 4.55984,0 8.23078,-3.67094 8.23078,-8.23077 l 0,-59.38461 c 0,-4.55984 -3.67304,-8.36921 -8.23078,-8.23077 l -65.84615,0 0,-65.63718 c 0,-4.67525 -3.7645,-8.43975 -8.43974,-8.43975 z"
         style="opacity:1;fill:#99b000;fill-opacity:1;stroke:none;stroke-width:16;stroke-linecap:round;stroke-linejoin:round;stroke-miterlimit:4;stroke-dasharray:none;stroke-opacity:1" />
    </g>
  </g>
</svg>
