<?xml version="1.0" encoding="UTF-8" standalone="no"?>
<!-- Created with Inkscape (http://www.inkscape.org/) -->

<svg
   xmlns:dc="http://purl.org/dc/elements/1.1/"
   xmlns:cc="http://creativecommons.org/ns#"
   xmlns:rdf="http://www.w3.org/1999/02/22-rdf-syntax-ns#"
   xmlns:svg="http://www.w3.org/2000/svg"
   xmlns="http://www.w3.org/2000/svg"
   xmlns:xlink="http://www.w3.org/1999/xlink"
   xmlns:sodipodi="http://sodipodi.sourceforge.net/DTD/sodipodi-0.dtd"
   xmlns:inkscape="http://www.inkscape.org/namespaces/inkscape"
   width="210mm"
   height="297mm"
   viewBox="0 0 744.09448819 1052.3622047"
   id="svg2"
   version="1.1"
   inkscape:version="0.91 r13725"
   inkscape:export-xdpi="4"
   inkscape:export-ydpi="4"
   sodipodi:docname="expired-sign.svg">
  <title
     id="title4157">expired sign</title>
  <defs
     id="defs4">
    <linearGradient
       inkscape:collect="always"
       id="linearGradient4160">
      <stop
         style="stop-color:#4e505d;stop-opacity:1;"
         offset="0"
         id="stop4162" />
      <stop
         style="stop-color:#7a859c;stop-opacity:1"
         offset="1"
         id="stop4164" />
    </linearGradient>
    <linearGradient
       id="linearGradient2224">
      <stop
         id="stop2226"
         offset="0"
         style="stop-color:#7c7c7c;stop-opacity:1;" />
      <stop
         id="stop2228"
         offset="1"
         style="stop-color:#b8b8b8;stop-opacity:1;" />
    </linearGradient>
    <linearGradient
       id="linearGradient15218">
      <stop
         id="stop15220"
         offset="0"
         style="stop-color:#eeeeef;stop-opacity:1;" />
      <stop
         id="stop2736"
         offset="0.59928656"
         style="stop-color:#d3d7cf;stop-opacity:1;" />
      <stop
         id="stop2738"
         offset="0.82758623"
         style="stop-color:#ffffff;stop-opacity:1;" />
      <stop
         id="stop15222"
         offset="1"
         style="stop-color:#d3d7cf;stop-opacity:1;" />
    </linearGradient>
    <pattern
       y="0"
       x="0"
       height="6"
       width="6"
       patternUnits="userSpaceOnUse"
       id="EMFhbasepattern" />
    <pattern
       y="0"
       x="0"
       height="6"
       width="6"
       patternUnits="userSpaceOnUse"
       id="EMFhbasepattern-5" />
    <linearGradient
       inkscape:collect="always"
       xlink:href="#linearGradient4160"
       id="linearGradient4166"
       x1="1040"
       y1="582.36218"
       x2="1450"
       y2="432.36221"
       gradientUnits="userSpaceOnUse"
       gradientTransform="matrix(0.99231406,0,0,0.69064078,7.6859433,130.66164)" />
  </defs>
  <sodipodi:namedview
     id="base"
     pagecolor="#ffffff"
     bordercolor="#666666"
     borderopacity="1.0"
     inkscape:pageopacity="0.0"
     inkscape:pageshadow="2"
     inkscape:zoom="0.5"
     inkscape:cx="155.92275"
     inkscape:cy="389.0803"
     inkscape:document-units="px"
     inkscape:current-layer="g4198"
     showgrid="false"
     showguides="true"
     inkscape:guide-bbox="true"
     inkscape:window-width="1366"
     inkscape:window-height="721"
     inkscape:window-x="-4"
     inkscape:window-y="-4"
     inkscape:window-maximized="1">
    <sodipodi:guide
       position="560,730.00002"
       orientation="0,1"
       id="guide3338" />
    <sodipodi:guide
       position="560,330.00001"
       orientation="0,1"
       id="guide3340" />
    <sodipodi:guide
       position="190,475.00001"
       orientation="1,0"
       id="guide3344" />
    <sodipodi:guide
       position="590,451.00001"
       orientation="1,0"
       id="guide3346" />
    <inkscape:grid
       type="xygrid"
       id="grid3440" />
  </sodipodi:namedview>
  <metadata
     id="metadata7">
    <rdf:RDF>
      <cc:Work
         rdf:about="">
        <dc:format>image/svg+xml</dc:format>
        <dc:type
           rdf:resource="http://purl.org/dc/dcmitype/StillImage" />
        <dc:title>expired sign</dc:title>
        <dc:date>June 2015</dc:date>
        <dc:creator>
          <cc:Agent>
            <dc:title>Johannes Hechler</dc:title>
          </cc:Agent>
        </dc:creator>
        <dc:rights>
          <cc:Agent>
            <dc:title>Johannes Hechler</dc:title>
          </cc:Agent>
        </dc:rights>
        <dc:publisher>
          <cc:Agent>
            <dc:title>RRZE</dc:title>
          </cc:Agent>
        </dc:publisher>
        <dc:contributor>
          <cc:Agent>
            <dc:title>Ute Weber, Hendrik Eggers</dc:title>
          </cc:Agent>
        </dc:contributor>
      </cc:Work>
    </rdf:RDF>
  </metadata>
  <g
     inkscape:label="Ebene 1"
     inkscape:groupmode="layer"
     id="layer1">
    <rect
       style="opacity:1;fill:none;fill-opacity:1;stroke:none;stroke-width:23;stroke-linecap:butt;stroke-linejoin:round;stroke-miterlimit:4;stroke-dasharray:none;stroke-opacity:1"
       id="rect4160"
       width="400"
       height="400"
       x="190"
       y="322.36221" />
    <g
       id="g4198">
      <g
         id="g4212"
         transform="matrix(0.69611435,-0.40190181,0.40190181,0.69611435,-657.9563,685.05439)">
        <path
           style="color:#000000;clip-rule:nonzero;display:inline;overflow:visible;visibility:visible;opacity:1;isolation:auto;mix-blend-mode:normal;color-interpolation:sRGB;color-interpolation-filters:linearRGB;solid-color:#000000;solid-opacity:1;fill:#4e505d;fill-opacity:1;fill-rule:nonzero;stroke:none;stroke-width:25;stroke-linecap:butt;stroke-linejoin:round;stroke-miterlimit:4;stroke-dasharray:none;stroke-dashoffset:0;stroke-opacity:1;color-rendering:auto;image-rendering:auto;shape-rendering:auto;text-rendering:auto;enable-background:accumulate"
           d="m 1227.9219,277.88672 a 199.3772,199.3772 0 0 0 -184.6387,124.47461 l 33.6992,0 A 168.70379,168.70379 0 0 1 1227.9219,308.55859 168.70379,168.70379 0 0 1 1379,402.36133 l 33.5605,0 A 199.3772,199.3772 0 0 0 1227.9219,277.88672 Z m -0.6211,68.56055 c -0.8625,-0.007 -1.7253,-0.005 -2.5879,0.006 -41.4543,0.16346 -81.4794,22.24457 -105.1797,55.90821 l 36.2383,0 c 19.0288,-17.95096 44.6436,-28.84832 71.0078,-28.39649 26.1969,-0.41137 51.7258,10.55127 70.6973,28.39649 l 36.2031,0 c -8.4287,-12.25057 -18.9387,-23.05693 -31.2617,-31.59961 -21.7916,-15.48816 -48.3818,-24.11245 -75.1172,-24.31445 z m -195.627,95.91406 a 199.3772,199.3772 0 0 0 -3.1289,34.90234 199.3772,199.3772 0 0 0 3.3692,35.60156 l 31.3144,0 a 168.70379,168.70379 0 0 1 -4.0097,-35.60156 168.70379,168.70379 0 0 1 3.7167,-34.90234 l -31.2617,0 z m 69.084,0 c -6.3569,22.96514 -5.9231,47.59896 0.5664,70.5039 l 28.8926,0 c -8.3107,-22.49749 -9.0622,-47.80766 -0.7305,-70.5039 l -28.7285,0 z m 222.9883,0 c 0.7657,2.20234 1.4699,4.43033 2.0684,6.69531 6.1866,20.99886 4.755,43.54883 -2.7852,63.80859 l 29.1543,0 c 1.2818,-4.49362 2.3216,-9.06409 3.0762,-13.69921 3.3605,-18.89161 2.1568,-38.38756 -2.9571,-56.80469 l -28.5566,0 z m 69.0273,0 a 168.70379,168.70379 0 0 1 3.8536,34.90234 168.70379,168.70379 0 0 1 -3.8965,35.60156 l 31.2832,0 a 199.3772,199.3772 0 0 0 3.2851,-35.60156 199.3772,199.3772 0 0 0 -3.2636,-34.90234 l -31.2618,0 z m -349.2343,110.5039 a 199.3772,199.3772 0 0 0 184.3828,123.77539 199.3772,199.3772 0 0 0 184.3261,-123.77539 l -33.7226,0 a 168.70379,168.70379 0 0 1 -150.6035,93.10157 168.70379,168.70379 0 0 1 -150.7617,-93.10157 l -33.6211,0 z m 76.8066,0 c 4.7223,6.65892 10.0974,12.86593 16.1094,18.47461 34.526,33.27256 87.9808,45.2383 133.1914,28.86133 25.3073,-8.73714 47.39,-25.7222 63,-47.33594 l -36.207,0 c -4.5205,4.17751 -9.433,7.95041 -14.7325,11.19922 -36.5677,23.68699 -87.8939,20.49902 -121.1015,-7.97851 -1.2701,-1.03924 -2.5008,-2.12002 -3.711,-3.22071 l -36.5488,0 z"
           id="path4181"
           inkscape:connector-curvature="0" />
        <path
           style="color:#000000;clip-rule:nonzero;display:inline;overflow:visible;visibility:visible;opacity:1;isolation:auto;mix-blend-mode:normal;color-interpolation:sRGB;color-interpolation-filters:linearRGB;solid-color:#000000;solid-opacity:1;fill:url(#linearGradient4166);fill-opacity:1;fill-rule:nonzero;stroke:none;stroke-width:25;stroke-linecap:butt;stroke-linejoin:round;stroke-miterlimit:4;stroke-dasharray:none;stroke-dashoffset:0;stroke-opacity:1;color-rendering:auto;image-rendering:auto;shape-rendering:auto;text-rendering:auto;enable-background:accumulate"
           d="m 1020.7192,422.36221 415.0261,0 c 11.4784,0 20.7192,9.24077 20.7192,20.71922 l 0,69.0641 c 0,11.47845 -9.2408,20.71922 -20.7192,20.71922 l -415.0261,0 c -11.4784,0 -20.7192,-9.24077 -20.7192,-20.71922 l 0,-69.0641 c 0,-11.47845 9.2408,-20.71922 20.7192,-20.71922 z"
           id="rect4158" />
        <g
           transform="scale(0.8892865,1.124497)"
           style="font-style:normal;font-weight:normal;font-size:98.10080719px;line-height:125%;font-family:sans-serif;letter-spacing:0px;word-spacing:0px;fill:#000000;fill-opacity:1;stroke:none;stroke-width:1px;stroke-linecap:butt;stroke-linejoin:miter;stroke-opacity:1"
           id="text4168">
          <path
             d="m 1149.9916,387.50323 49.7689,0 0,13.93913 -31.3271,0 0,13.31642 29.4589,0 0,13.93913 -29.4589,0 0,16.38207 32.3809,0 0,13.93912 -50.8227,0 0,-71.51587 z"
             style="font-style:normal;font-variant:normal;font-weight:bold;font-stretch:normal;font-family:sans-serif;-inkscape-font-specification:'sans-serif Bold';fill:#ffffff"
             id="path4162" />
          <path
             d="m 1256.9061,422.51871 24.8126,36.50039 -19.2082,0 -16.7174,-24.4294 -16.5737,24.4294 -19.304,0 24.8126,-36.50039 -23.8546,-35.01548 19.2562,0 15.6635,23.04028 15.6157,-23.04028 19.3519,0 -23.8546,35.01548 z"
             style="font-style:normal;font-variant:normal;font-weight:bold;font-stretch:normal;font-family:sans-serif;-inkscape-font-specification:'sans-serif Bold';fill:#ffffff"
             id="path4164" />
          <path
             d="m 1292.7359,387.50323 30.6086,0 q 13.6517,0 20.9326,6.0834 7.3289,6.0355 7.3289,17.24428 0,11.25669 -7.3289,17.34009 -7.2809,6.0355 -20.9326,6.0355 l -12.1668,0 0,24.8126 -18.4418,0 0,-71.51587 z m 18.4418,13.36432 0,19.97463 10.2029,0 q 5.3648,0 8.2868,-2.58664 2.9219,-2.63455 2.9219,-7.42463 0,-4.79007 -2.9219,-7.37672 -2.922,-2.58664 -8.2868,-2.58664 l -10.2029,0 z"
             style="font-style:normal;font-variant:normal;font-weight:bold;font-stretch:normal;font-family:sans-serif;-inkscape-font-specification:'sans-serif Bold';fill:#ffffff"
             id="path4166" />
          <path
             d="m 1364.5871,387.50323 18.4418,0 0,71.51587 -18.4418,0 0,-71.51587 z"
             style="font-style:normal;font-variant:normal;font-weight:bold;font-stretch:normal;font-family:sans-serif;-inkscape-font-specification:'sans-serif Bold';fill:#ffffff"
             id="path4168" />
          <path
             d="m 1427.385,419.21355 q 5.796,0 8.2868,-2.15553 2.5388,-2.15554 2.5388,-7.08932 0,-4.88588 -2.5388,-6.99351 -2.4908,-2.10764 -8.2868,-2.10764 l -7.7599,0 0,18.346 7.7599,0 z m -7.7599,12.74161 0,27.06394 -18.4418,0 0,-71.51587 28.1656,0 q 14.1308,0 20.6932,4.74218 6.6103,4.74218 6.6103,14.99295 0,7.08931 -3.4489,11.63989 -3.4009,4.55057 -10.2987,6.70611 3.7842,0.86221 6.7541,3.92786 3.0177,3.01775 6.0834,9.19695 l 10.0112,20.30993 -19.6393,0 -8.7179,-17.77119 q -2.6346,-5.36489 -5.3649,-7.32882 -2.6825,-1.96393 -7.1851,-1.96393 l -5.2212,0 z"
             style="font-style:normal;font-variant:normal;font-weight:bold;font-stretch:normal;font-family:sans-serif;-inkscape-font-specification:'sans-serif Bold';fill:#ffffff"
             id="path4170" />
          <path
             d="m 1476.6749,387.50323 49.7689,0 0,13.93913 -31.3271,0 0,13.31642 29.459,0 0,13.93913 -29.459,0 0,16.38207 32.3809,0 0,13.93912 -50.8227,0 0,-71.51587 z"
             style="font-style:normal;font-variant:normal;font-weight:bold;font-stretch:normal;font-family:sans-serif;-inkscape-font-specification:'sans-serif Bold';fill:#ffffff"
             id="path4172" />
          <path
             d="m 1562.1778,401.44236 0,43.63762 6.6103,0 q 11.3046,0 17.2443,-5.6044 5.9876,-5.60439 5.9876,-16.28626 0,-10.63398 -5.9397,-16.19047 -5.9397,-5.55649 -17.2922,-5.55649 l -6.6103,0 z m -18.4418,-13.93913 19.4477,0 q 16.2863,0 24.2378,2.34714 7.9994,2.29924 13.6996,7.85573 5.0296,4.83798 7.4726,11.16088 2.4429,6.32291 2.4429,14.32234 0,8.09523 -2.4429,14.46603 -2.443,6.32291 -7.4726,11.16089 -5.7481,5.55649 -13.7954,7.90363 -8.0473,2.29923 -24.142,2.29923 l -19.4477,0 0,-71.51587 z"
             style="font-style:normal;font-variant:normal;font-weight:bold;font-stretch:normal;font-family:sans-serif;-inkscape-font-specification:'sans-serif Bold';fill:#ffffff"
             id="path4174" />
        </g>
      </g>
    </g>
  </g>
</svg>
