<?xml version="1.0" encoding="UTF-8" standalone="no"?>
<!-- Created with Inkscape (http://www.inkscape.org/) -->

<svg
   xmlns:dc="http://purl.org/dc/elements/1.1/"
   xmlns:cc="http://creativecommons.org/ns#"
   xmlns:rdf="http://www.w3.org/1999/02/22-rdf-syntax-ns#"
   xmlns:svg="http://www.w3.org/2000/svg"
   xmlns="http://www.w3.org/2000/svg"
   xmlns:xlink="http://www.w3.org/1999/xlink"
   xmlns:sodipodi="http://sodipodi.sourceforge.net/DTD/sodipodi-0.dtd"
   xmlns:inkscape="http://www.inkscape.org/namespaces/inkscape"
   width="400"
   height="400"
   viewBox="0 0 400 400.00001"
   id="svg4201"
   version="1.1"
   inkscape:version="0.91 r13725"
   sodipodi:docname="locked-studon.svg"
   inkscape:export-filename="D:\Dokumente\Arbeit\RRZE\github\bicons\16x16\emblems\locked-studon.png"
   inkscape:export-xdpi="3.5999999"
   inkscape:export-ydpi="3.5999999">
  <title
     id="title4313">locked rrze</title>
  <defs
     id="defs4203">
    <inkscape:perspective
       sodipodi:type="inkscape:persp3d"
       inkscape:vp_x="0 : 200 : 1"
       inkscape:vp_y="0 : 1000 : 0"
       inkscape:vp_z="400 : 200 : 1"
       inkscape:persp3d-origin="200 : 133.33334 : 1"
       id="perspective4284" />
    <linearGradient
       id="linearGradient3875">
      <stop
         style="stop-color:#ffffff;stop-opacity:1;"
         offset="0"
         id="stop3877" />
      <stop
         id="stop3885"
         offset="0.20752585"
         style="stop-color:#ffffff;stop-opacity:0.50649351;" />
      <stop
         id="stop3883"
         offset="0.9507187"
         style="stop-color:#ffffff;stop-opacity:1;" />
      <stop
         style="stop-color:#ffffff;stop-opacity:0;"
         offset="1"
         id="stop3879" />
    </linearGradient>
    <linearGradient
       id="linearGradient3889">
      <stop
         style="stop-color:#eeeeec;stop-opacity:1;"
         offset="0"
         id="stop3891" />
      <stop
         style="stop-color:#ffffff;stop-opacity:1;"
         offset="1"
         id="stop3893" />
    </linearGradient>
    <linearGradient
       id="linearGradient4761">
      <stop
         id="stop4769"
         offset="0"
         style="stop-color:#ffffff;stop-opacity:1;" />
      <stop
         id="stop4775"
         offset="0.50370371"
         style="stop-color:#ffffff;stop-opacity:1;" />
      <stop
         id="stop4771"
         offset="1"
         style="stop-color:#ffffff;stop-opacity:0.06666667;" />
    </linearGradient>
    <linearGradient
       id="linearGradient3796">
      <stop
         style="stop-color:#3465a4;stop-opacity:1;"
         offset="0"
         id="stop3798" />
      <stop
         style="stop-color:#252525;stop-opacity:1;"
         offset="1"
         id="stop3800" />
    </linearGradient>
    <linearGradient
       id="linearGradient3812">
      <stop
         style="stop-color:#fce94f;stop-opacity:1;"
         offset="0"
         id="stop3814" />
      <stop
         style="stop-color:#fcaf3e;stop-opacity:1;"
         offset="1"
         id="stop3816" />
    </linearGradient>
    <linearGradient
       id="linearGradient2116">
      <stop
         id="stop2118"
         offset="0"
         style="stop-color:#ffffff;stop-opacity:1;" />
      <stop
         id="stop2120"
         offset="1"
         style="stop-color:#ffffff;stop-opacity:0;" />
    </linearGradient>
    <linearGradient
       id="linearGradient5280">
      <stop
         id="stop5282"
         offset="0"
         style="stop-color:#555753;stop-opacity:0.01129944;" />
      <stop
         style="stop-color:#555753;stop-opacity:0.22598869;"
         offset="0.00195313"
         id="stop5310" />
      <stop
         style="stop-color:#555753;stop-opacity:0.01176471;"
         offset="0.00390625"
         id="stop5306" />
      <stop
         style="stop-color:#555753;stop-opacity:0.01176471;"
         offset="0.0078125"
         id="stop5304" />
      <stop
         style="stop-color:#555753;stop-opacity:0.07344633;"
         offset="0.015625"
         id="stop5302" />
      <stop
         style="stop-color:#555753;stop-opacity:0.01568627;"
         offset="0.03125"
         id="stop5298" />
      <stop
         style="stop-color:#555753;stop-opacity:0.01129944;"
         offset="0.0625"
         id="stop5296" />
      <stop
         style="stop-color:#555753;stop-opacity:0.36723164;"
         offset="0.125"
         id="stop5294" />
      <stop
         style="stop-color:#555753;stop-opacity:0.00564972;"
         offset="0.25"
         id="stop5290" />
      <stop
         style="stop-color:#555753;stop-opacity:0.02259887;"
         offset="0.5"
         id="stop5288" />
      <stop
         id="stop5292"
         offset="0.75"
         style="stop-color:#555753;stop-opacity:0.19774012;" />
      <stop
         style="stop-color:#555753;stop-opacity:0.18079096;"
         offset="0.875"
         id="stop5300" />
      <stop
         id="stop5308"
         offset="0.9375"
         style="stop-color:#555753;stop-opacity:0.28813559;" />
      <stop
         id="stop5284"
         offset="1"
         style="stop-color:#555753;stop-opacity:0.07344633;" />
    </linearGradient>
    <linearGradient
       id="linearGradient5348">
      <stop
         id="stop5350"
         offset="0"
         style="stop-color:#729fcf;stop-opacity:0;" />
      <stop
         style="stop-color:#729fcf;stop-opacity:0.17514125;"
         offset="0.14182246"
         id="stop5368" />
      <stop
         style="stop-color:#729fcf;stop-opacity:0.42937854;"
         offset="0.24686332"
         id="stop5366" />
      <stop
         id="stop5394"
         offset="0.27796116"
         style="stop-color:#729fcf;stop-opacity:0.39215686;" />
      <stop
         style="stop-color:#729fcf;stop-opacity:0.39215687;"
         offset="0.38030669"
         id="stop5364" />
      <stop
         style="stop-color:#ffffff;stop-opacity:1;"
         offset="0.46561956"
         id="stop5362" />
      <stop
         id="stop3727"
         offset="0.54757094"
         style="stop-color:#b8cfe7;stop-opacity:0.62352941;" />
      <stop
         style="stop-color:#729fcf;stop-opacity:0.24858756;"
         offset="0.62952232"
         id="stop5360" />
      <stop
         style="stop-color:#729fcf;stop-opacity:0.27683616;"
         offset="0.69749689"
         id="stop5358" />
      <stop
         style="stop-color:#729fcf;stop-opacity:0.16384181;"
         offset="0.84827983"
         id="stop5356" />
      <stop
         id="stop5352"
         offset="1"
         style="stop-color:#729fcf;stop-opacity:0;" />
    </linearGradient>
    <linearGradient
       id="linearGradient5170">
      <stop
         id="stop5172"
         offset="0"
         style="stop-color:#ffffff;stop-opacity:0.18039216;" />
      <stop
         style="stop-color:#ffffff;stop-opacity:1;"
         offset="0.51451057"
         id="stop5178" />
      <stop
         id="stop5174"
         offset="1"
         style="stop-color:#ffffff;stop-opacity:0;" />
    </linearGradient>
    <pattern
       y="0"
       x="0"
       height="6"
       width="6"
       patternUnits="userSpaceOnUse"
       id="EMFhbasepattern" />
    <pattern
       y="0"
       x="0"
       height="6"
       width="6"
       patternUnits="userSpaceOnUse"
       id="EMFhbasepattern-8" />
    <linearGradient
       inkscape:collect="always"
       xlink:href="#linearGradient4324"
       id="linearGradient4330"
       x1="75"
       y1="400"
       x2="375"
       y2="1.9999999e-005"
       gradientUnits="userSpaceOnUse"
       gradientTransform="translate(0,652.36218)" />
    <linearGradient
       inkscape:collect="always"
       id="linearGradient4324">
      <stop
         style="stop-color:#4e505d;stop-opacity:1;"
         offset="0"
         id="stop4326" />
      <stop
         style="stop-color:#7a859c;stop-opacity:1"
         offset="1"
         id="stop4328" />
    </linearGradient>
  </defs>
  <sodipodi:namedview
     id="base"
     pagecolor="#ffffff"
     bordercolor="#666666"
     borderopacity="1.0"
     inkscape:pageopacity="0.0"
     inkscape:pageshadow="2"
     inkscape:zoom="1"
     inkscape:cx="-107.24381"
     inkscape:cy="141.05121"
     inkscape:document-units="px"
     inkscape:current-layer="layer1"
     showgrid="false"
     units="px"
     inkscape:snap-bbox="true"
     inkscape:bbox-paths="true"
     inkscape:bbox-nodes="true"
     inkscape:snap-bbox-edge-midpoints="false"
     inkscape:snap-bbox-midpoints="false"
     showguides="true"
     inkscape:guide-bbox="true"
     inkscape:window-width="1600"
     inkscape:window-height="837"
     inkscape:window-x="-4"
     inkscape:window-y="-4"
     inkscape:window-maximized="1"
     inkscape:snap-nodes="false"
     inkscape:showpageshadow="false"
     inkscape:snap-others="false"
     inkscape:object-paths="true"
     inkscape:snap-intersection-paths="true"
     inkscape:object-nodes="true"
     inkscape:snap-smooth-nodes="true"
     inkscape:snap-global="true">
    <sodipodi:guide
       position="25,410.4755"
       orientation="1,0"
       id="guide4797" />
    <sodipodi:guide
       position="50,408.27617"
       orientation="1,0"
       id="guide4799" />
    <sodipodi:guide
       position="75,408.27617"
       orientation="1,0"
       id="guide4801" />
    <sodipodi:guide
       position="100,408.27617"
       orientation="1,0"
       id="guide4803" />
    <sodipodi:guide
       position="125,410.91744"
       orientation="1,0"
       id="guide4805" />
    <sodipodi:guide
       position="150,408.27617"
       orientation="1,0"
       id="guide4807" />
    <sodipodi:guide
       position="175,406.40963"
       orientation="1,0"
       id="guide4809" />
    <sodipodi:guide
       position="200,423.25001"
       orientation="1,0"
       id="guide4811"
       inkscape:label=""
       inkscape:color="rgb(255,0,171)" />
    <sodipodi:guide
       position="225,405.43736"
       orientation="1,0"
       id="guide4813" />
    <sodipodi:guide
       position="250,404.73025"
       orientation="1,0"
       id="guide4815" />
    <sodipodi:guide
       position="275,405.79091"
       orientation="1,0"
       id="guide4817" />
    <sodipodi:guide
       position="300,405.26058"
       orientation="1,0"
       id="guide4819" />
    <sodipodi:guide
       position="325,405.61414"
       orientation="1,0"
       id="guide4821" />
    <sodipodi:guide
       position="350,413.65748"
       orientation="1,0"
       id="guide4823" />
    <sodipodi:guide
       position="375,405.79091"
       orientation="1,0"
       id="guide4825" />
    <sodipodi:guide
       position="400,8.0000002"
       orientation="1,0"
       id="guide4827" />
    <sodipodi:guide
       position="392.5,400.00001"
       orientation="0,1"
       id="guide4829" />
    <sodipodi:guide
       position="412.5,374.99999"
       orientation="0,1"
       id="guide4831" />
    <sodipodi:guide
       position="408.089,349.99999"
       orientation="0,1"
       id="guide4833" />
    <sodipodi:guide
       position="405.625,324.99999"
       orientation="0,1"
       id="guide4835" />
    <sodipodi:guide
       position="406.40962,299.99998"
       orientation="0,1"
       id="guide4837" />
    <sodipodi:guide
       position="404.99541,274.99998"
       orientation="0,1"
       id="guide4839" />
    <sodipodi:guide
       position="406.93995,249.99998"
       orientation="0,1"
       id="guide4841" />
    <sodipodi:guide
       position="406.32123,224.99998"
       orientation="0,1"
       id="guide4843" />
    <sodipodi:guide
       position="405.43735,200"
       orientation="0,1"
       id="guide4845"
       inkscape:label=""
       inkscape:color="rgb(255,0,206)" />
    <sodipodi:guide
       position="404.64185,174.99998"
       orientation="0,1"
       id="guide4847" />
    <sodipodi:guide
       position="404.99541,149.99998"
       orientation="0,1"
       id="guide4849" />
    <sodipodi:guide
       position="404.81863,124.99998"
       orientation="0,1"
       id="guide4851" />
    <sodipodi:guide
       position="405.96768,74.999979"
       orientation="0,1"
       id="guide4855" />
    <sodipodi:guide
       position="405.7909,49.999979"
       orientation="0,1"
       id="guide4857" />
    <sodipodi:guide
       position="407.91222,24.999978"
       orientation="0,1"
       id="guide4859" />
    <sodipodi:guide
       position="285.53005,-4.238319e-006"
       orientation="0,1"
       id="guide4861" />
    <sodipodi:guide
       position="0,418.50001"
       orientation="1,0"
       id="guide6276" />
    <sodipodi:guide
       position="405.96768,99.99998"
       orientation="0,1"
       id="guide4342" />
  </sodipodi:namedview>
  <metadata
     id="metadata4206">
    <rdf:RDF>
      <cc:Work
         rdf:about="">
        <dc:format>image/svg+xml</dc:format>
        <dc:type
           rdf:resource="http://purl.org/dc/dcmitype/StillImage" />
        <dc:title>locked rrze</dc:title>
        <cc:license
           rdf:resource="http://creativecommons.org/licenses/by-nc/3.0/" />
        <dc:creator>
          <cc:Agent>
            <dc:title>Johannes Hechler</dc:title>
          </cc:Agent>
        </dc:creator>
        <dc:rights>
          <cc:Agent>
            <dc:title>Johannes Hechler</dc:title>
          </cc:Agent>
        </dc:rights>
        <dc:publisher>
          <cc:Agent>
            <dc:title>RRZE</dc:title>
          </cc:Agent>
        </dc:publisher>
        <dc:contributor>
          <cc:Agent>
            <dc:title>Ute Weber,
Hendrik Eggers</dc:title>
          </cc:Agent>
        </dc:contributor>
        <dc:date>May 2016</dc:date>
        <dc:subject>
          <rdf:Bag>
            <rdf:li>locked</rdf:li>
            <rdf:li>lock</rdf:li>
            <rdf:li>rrze</rdf:li>
          </rdf:Bag>
        </dc:subject>
      </cc:Work>
      <cc:License
         rdf:about="http://creativecommons.org/licenses/by-nc/3.0/">
        <cc:permits
           rdf:resource="http://creativecommons.org/ns#Reproduction" />
        <cc:permits
           rdf:resource="http://creativecommons.org/ns#Distribution" />
        <cc:requires
           rdf:resource="http://creativecommons.org/ns#Notice" />
        <cc:requires
           rdf:resource="http://creativecommons.org/ns#Attribution" />
        <cc:prohibits
           rdf:resource="http://creativecommons.org/ns#CommercialUse" />
        <cc:permits
           rdf:resource="http://creativecommons.org/ns#DerivativeWorks" />
      </cc:License>
    </rdf:RDF>
  </metadata>
  <g
     inkscape:label="Ebene 1"
     inkscape:groupmode="layer"
     id="layer1"
     transform="translate(0,-652.36216)">
    <g
       id="g4246">
      <path
         sodipodi:nodetypes="sscsscccccccccccccccccccccccccsscccccsscccsssccss"
         inkscape:connector-curvature="0"
         id="rect4270"
         d="m 200.18359,652.36216 c -69.1369,-2.9e-4 -125.183579,55.9642 -125.18359,125 l 0,50 -25,0 c -13.84999,0 -25,11.15001 -25,25 l 0,80.77734 c 5.162275,-2.3072 10.676156,-3.60158 15.800781,-3.60156 0.982997,0.0105 1.964519,0.079 2.939453,0.20508 2.505571,0.14804 4.960068,0.4647 7.367188,0.95117 0.863909,0.11528 1.721199,0.27566 2.568359,0.48047 0.05878,0.0143 0.113175,0.0382 0.171875,0.0527 0.0375,0.01 0.07776,0.0115 0.115235,0.0215 l -0.07031,-0.01 c 0.0867,0.0215 0.167376,0.0562 0.253906,0.0781 2.934778,-1.17423 6.065601,-1.78131 9.226563,-1.78906 l 36.62695,0 c 2.29494,10e-4 4.57876,0.31891 6.78711,0.94336 2.13888,-0.59218 4.34709,-0.89695 6.56641,-0.90626 l 11.42773,0 c 2.11736,0.006 4.22538,0.28104 6.27344,0.81836 2.02853,-0.5316 4.11588,-0.80589 6.21289,-0.8164 l 12.28125,0 c 2.33266,0.004 4.65334,0.33363 6.89453,0.98047 2.25093,-0.65652 4.58302,-0.99315 6.92773,-1 l 10.33203,0 c 7.00322,1.2e-4 14.2068,0.58138 22.01563,4.09961 0.42094,0.1509 0.83776,0.31306 1.25,0.48632 16.07098,-18.29708 39.56663,-29.95898 65.60742,-29.95898 l 0,0.004 c 0.004,0 0.0918,-5.8e-4 0.26367,0 l 0.0937,0 c 18.39038,0 35.6657,5.805 49.76172,15.58593 3.41875,2.37218 6.5861,5.06212 9.62891,7.88868 1.45998,-0.2698 2.94109,-0.40903 4.42578,-0.41602 l 24.29492,0 c 4.5881,4.2e-4 9.08763,1.26332 13.00586,3.65039 3.32443,-2.01699 7.07348,-3.23078 10.94922,-3.54492 L 375,852.36216 c 0,-13.84999 -11.15001,-25 -25,-25 l -25,0 0,-50 0.36523,0 c -10e-6,-69.03504 -56.04551,-124.99921 -125.18164,-125 z m -0.18359,50 c 41.42136,0 75,33.57864 75,75 l 0,50 -150,0 0,-50 c 0,-41.42136 33.57864,-75 75,-75 z"
         style="color:#000000;clip-rule:nonzero;display:inline;overflow:visible;visibility:visible;opacity:1;isolation:auto;mix-blend-mode:normal;color-interpolation:sRGB;color-interpolation-filters:linearRGB;solid-color:#000000;solid-opacity:1;fill:url(#linearGradient4330);fill-opacity:1;fill-rule:nonzero;stroke:none;stroke-width:50;stroke-linecap:square;stroke-linejoin:round;stroke-miterlimit:4;stroke-dasharray:none;stroke-dashoffset:0;stroke-opacity:1;color-rendering:auto;image-rendering:auto;shape-rendering:auto;text-rendering:auto;enable-background:accumulate" />
      <path
         id="rect4303"
         d="m 0,652.3622 400,0 0,400 -400,0 z"
         style="color:#000000;clip-rule:nonzero;display:inline;overflow:visible;visibility:visible;opacity:1;isolation:auto;mix-blend-mode:normal;color-interpolation:sRGB;color-interpolation-filters:linearRGB;solid-color:#000000;solid-opacity:1;fill:none;fill-opacity:1;fill-rule:nonzero;stroke:none;stroke-width:50;stroke-linecap:square;stroke-linejoin:round;stroke-miterlimit:4;stroke-dasharray:none;stroke-dashoffset:0;stroke-opacity:1;color-rendering:auto;image-rendering:auto;shape-rendering:auto;text-rendering:auto;enable-background:accumulate"
         inkscape:connector-curvature="0" />
      <path
         sodipodi:nodetypes="cccsccccccccccccccsscccsscssc"
         id="path4241"
         d="m 262.57617,927.95196 c -91.5772,6.2892 -68.56033,122.32064 -3e-5,124.41014 l 0.17969,0 c 0.0594,10e-5 0.11829,0 0.17773,0 32.23365,0 58.90735,-24.6004 62.06641,-55.95894 l 3e-5,29.73634 23.00391,0 0,-45.01564 25.95117,45.01564 26.04492,0 0,-75.12894 -23.00391,0 0,45.0137 -25.95117,-45.0137 -24.29492,0 0,0.8711 -1.75,0 0,32.0488 c -1.86434,-18.545 -11.95553,-34.7222 -26.55664,-44.8535 -10.09269,-7.0031 -22.33298,-11.125 -35.50977,-11.125 l -0.17773,0 c -0.0597,-2e-4 -0.11992,0 -0.17969,0 z m 0.1836,21.8594 c 4.41578,0.017 8.49637,0.4723 12.24023,1.3281 18.06104,4.1284 28.10352,17.7999 28.10352,39.0176 0,25.61774 -14.62713,40.25214 -40.34766,40.34764 -25.72097,-0.095 -40.34961,-14.7295 -40.34961,-40.34764 0,-4.5866 0.47699,-8.8158 1.39453,-12.6778 4.20757,-17.71 17.84095,-27.592 38.95899,-27.6679 z"
         style="font-style:normal;font-weight:bold;font-size:12px;line-height:125%;font-family:Sans;-inkscape-font-specification:'Sans Bold';letter-spacing:0px;word-spacing:0px;fill:#99b000;fill-opacity:1;stroke:none;stroke-width:3.38407397"
         inkscape:connector-curvature="0" />
      <path
         sodipodi:nodetypes="ccccccccccccssccccccscsccccccscccccccscsccccccccccccccccscccccccccccccccccccssscsccscscccccccsccccsccc"
         inkscape:connector-curvature="0"
         style="font-style:normal;font-weight:bold;font-size:12px;line-height:125%;font-family:Sans;-inkscape-font-specification:'Sans Bold';letter-spacing:0px;word-spacing:0px;fill:#99b000;fill-opacity:1;stroke:none;stroke-width:3.38407397"
         d="m 44.341017,952.35198 0,1.0468 -1.008827,0 0,15.1875 14.890926,0 0,58.40832 13.57742,0 0,-58.40832 14.863843,0 0,-16.2343 z m -26.08282,0.01 c -5.786604,10e-5 -10.4145623,2.0146 -13.5774192,6.0234 C 1.5195501,962.39208 0,968.03388 0,975.18588 c 0,5.7235 1.087326,10.3789 3.3559914,13.8965 2.2909093,3.5181 5.8972799,6.0482 10.6750636,7.6055 l 4.606305,1.5508 c 2.722948,0.9135 4.437944,1.96892 5.143438,2.87502 l 0.0069,0.01 0.0069,0.01 c 0.761826,0.9576 1.20066,2.395 1.20066,4.4414 0,2.2511 -0.59914,3.7972 -1.760373,4.9043 -1.158448,1.1048 -2.870313,1.7109 -5.3127,1.7109 -2.411777,0 -4.944873,-0.5622 -7.610218,-1.7109 -2.6498619,-1.1823 -5.4313378,-2.9397 -8.3301573,-5.2832 l -1.57756904,-1.2754 0,17.9902 0.51231359,0.2891 c 3.01125205,1.6976 6.03132075,2.9833 9.06139635,3.8535 3.0326294,0.8712 6.0660094,1.3086 9.0884704,1.3086 6.404798,0 11.369907,-1.9856 14.595275,-6.0176 3.243681,-4.0611 4.777773,-10.0883 4.777826,-17.9824 -5.3e-5,-6.03282 -1.10021,-10.80102 -3.430465,-14.24422 -2.333775,-3.448 -6.209705,-5.9386 -11.487544,-7.5507 l -5.073471,-1.5528 -0.0069,0 c -2.320618,-0.7245 -3.844132,-1.5941 -4.567941,-2.3965 -0.713988,-0.8449 -1.108126,-2.0343 -1.108126,-3.7421 0,-2.3216 0.590659,-3.8161 1.694913,-4.7832 1.10593,-0.9685 2.969549,-1.5508 5.687356,-1.5508 2.018725,0 4.192152,0.4135 6.522395,1.2617 2.327941,0.8474 4.733292,2.1112 7.217517,3.8008 l 1.51437,1.0293 0,-16.7637 -0.977231,0 0.35433,-0.9453 c -2.912506,-1.1791 -5.739067,-2.0585 -8.481377,-2.6367 l -0.0092,0 c -2.742188,-0.6089 -5.420163,-0.9159 -8.029998,-0.916 l 0,-0.01 z m 141.633063,0.01 0,1.0371 -0.41526,0 -0.59582,0 0,73.59572 12.95,0 c 6.66323,0 11.71223,-0.766 15.23623,-2.4297 l 0.005,0 0.005,0 c 3.48515,-1.6799 6.45355,-4.5053 8.88762,-8.3926 l 0.002,0 c 2.12681,-3.3813 3.69824,-7.2707 4.7214,-11.6465 1.89913,-10.07512 2.17768,-20.15222 0,-29.69532 -1.02281,-4.3741 -2.59342,-8.2621 -4.71914,-11.6426 l -0.002,0 c -2.41275,-3.8851 -5.36053,-6.6987 -8.82667,-8.3476 l -0.005,0 c -3.4941,-1.7034 -8.56303,-2.4784 -15.30394,-2.4785 l -11.93892,0 z m -57.79655,0.018 0,0 0,1.0254 -0.41528,0 -0.57551,0 0,42.6171 c 0,10.18202 1.68167,17.88062 5.22921,23.07042 3.54734,5.1895 9.06178,7.8125 16.16382,7.8125 7.12237,0 12.64741,-2.6222 16.1954,-7.8125 3.54751,-5.1882 5.22689,-12.8868 5.22694,-23.06882 l 0,-43.6425 -14.19129,0 0,43.6425 c 0,5.79482 -0.67762,9.88992 -1.8213,12.14072 -1.12407,2.221 -2.76313,3.2129 -5.40975,3.2129 -2.62139,0 -4.26216,-0.9947 -5.4075,-3.2168 -1.12402,-2.2539 -1.78983,-6.3475 -1.78972,-12.13872 l 0,-43.6426 -13.20502,0 z m 70.12592,16.209 3.04679,0 c 4.38424,10e-5 7.51405,1.6704 9.77908,5.1718 2.26479,3.501 3.47555,8.771 3.47561,15.8399 -7e-5,7.1009 -1.21758,12.40502 -3.50269,15.93942 l -0.005,0 -0.002,0 c -2.26731,3.5352 -5.38624,5.2188 -9.74749,5.2188 l -3.04679,0 0.002,-42.16992 z"
         id="path4264" />
    </g>
  </g>
</svg>
