<?xml version="1.0" encoding="UTF-8" standalone="no"?>
<!-- Created with Inkscape (http://www.inkscape.org/) -->
<svg xmlns:dc="http://purl.org/dc/elements/1.1/" xmlns:cc="http://creativecommons.org/ns#" xmlns:rdf="http://www.w3.org/1999/02/22-rdf-syntax-ns#" xmlns:svg="http://www.w3.org/2000/svg" xmlns="http://www.w3.org/2000/svg" xmlns:xlink="http://www.w3.org/1999/xlink" xmlns:sodipodi="http://sodipodi.sourceforge.net/DTD/sodipodi-0.dtd" xmlns:inkscape="http://www.inkscape.org/namespaces/inkscape" width="210mm" height="297mm" viewBox="0 0 744.09448819 1052.3622047" id="svg2" version="1.1" inkscape:version="0.91 r13725" inkscape:export-xdpi="4" inkscape:export-ydpi="4">
  <defs id="defs4">
    <linearGradient inkscape:collect="always" id="linearGradient4158">
      <stop style="stop-color:#4e505d;stop-opacity:1;" offset="0" id="stop4160"/>
      <stop style="stop-color:#7a8597;stop-opacity:1" offset="1" id="stop4162"/>
    </linearGradient>
    <linearGradient id="linearGradient2224">
      <stop id="stop2226" offset="0" style="stop-color:#7c7c7c;stop-opacity:1;"/>
      <stop id="stop2228" offset="1" style="stop-color:#b8b8b8;stop-opacity:1;"/>
    </linearGradient>
    <linearGradient id="linearGradient15218">
      <stop id="stop15220" offset="0" style="stop-color:#eeeeef;stop-opacity:1;"/>
      <stop id="stop2736" offset="0.59928656" style="stop-color:#d3d7cf;stop-opacity:1;"/>
      <stop id="stop2738" offset="0.82758623" style="stop-color:#ffffff;stop-opacity:1;"/>
      <stop id="stop15222" offset="1" style="stop-color:#d3d7cf;stop-opacity:1;"/>
    </linearGradient>
    <pattern y="0" x="0" height="6" width="6" patternUnits="userSpaceOnUse" id="EMFhbasepattern"/>
    <pattern y="0" x="0" height="6" width="6" patternUnits="userSpaceOnUse" id="EMFhbasepattern-5"/>
    <linearGradient inkscape:collect="always" xlink:href="#linearGradient4158" id="linearGradient4164" x1="344.08792" y1="486.82385" x2="356.67355" y2="456.13635" gradientUnits="userSpaceOnUse"/>
    <linearGradient inkscape:collect="always" xlink:href="#linearGradient4158" id="linearGradient4174" x1="304.5513" y1="643.98456" x2="468.11246" y2="393.75714" gradientUnits="userSpaceOnUse" gradientTransform="translate(-3.8303317e-6,1.5391107e-7)"/>
    <linearGradient inkscape:collect="always" xlink:href="#linearGradient4158" id="linearGradient4162" gradientUnits="userSpaceOnUse" x1="344.08792" y1="486.82385" x2="356.67355" y2="456.13635"/>
  </defs>
  <sodipodi:namedview id="base" pagecolor="#ffffff" bordercolor="#666666" borderopacity="1.0" inkscape:pageopacity="0.0" inkscape:pageshadow="2" inkscape:zoom="0.70710678" inkscape:cx="-40.591816" inkscape:cy="555.19085" inkscape:document-units="px" inkscape:current-layer="layer1" showgrid="false" showguides="true" inkscape:guide-bbox="true" inkscape:window-width="1366" inkscape:window-height="721" inkscape:window-x="-4" inkscape:window-y="-4" inkscape:window-maximized="1">
    <sodipodi:guide position="560,730.00002" orientation="0,1" id="guide3338"/>
    <sodipodi:guide position="560,330.00001" orientation="0,1" id="guide3340"/>
    <sodipodi:guide position="190,475.00001" orientation="1,0" id="guide3344"/>
    <sodipodi:guide position="590,451.00001" orientation="1,0" id="guide3346"/>
    <inkscape:grid type="xygrid" id="grid3440"/>
  </sodipodi:namedview>
  <metadata id="metadata7">
    <rdf:RDF>
      <cc:Work rdf:about="">
        <dc:format>image/svg+xml</dc:format>
        <dc:type rdf:resource="http://purl.org/dc/dcmitype/StillImage"/>
        <dc:title>question</dc:title>
        <dc:date>June 2015</dc:date>
        <dc:creator>
          <cc:Agent>
            <dc:title>Johannes Hechler</dc:title>
          </cc:Agent>
        </dc:creator>
        <dc:rights>
          <cc:Agent>
            <dc:title>Johannes Hechler</dc:title>
          </cc:Agent>
        </dc:rights>
        <dc:publisher>
          <cc:Agent>
            <dc:title>RRZE</dc:title>
          </cc:Agent>
        </dc:publisher>
        <dc:contributor>
          <cc:Agent>
            <dc:title>Ute Weber, Hendrik Eggers</dc:title>
          </cc:Agent>
        </dc:contributor>
      </cc:Work>
    </rdf:RDF>
  </metadata>
  <g inkscape:label="Ebene 1" inkscape:groupmode="layer" id="layer1">
    <rect style="opacity:1;fill:none;fill-opacity:1;stroke:none;stroke-width:23;stroke-linecap:butt;stroke-linejoin:round;stroke-miterlimit:4;stroke-dasharray:none;stroke-opacity:1" id="rect4160" width="400" height="400" x="190" y="322.36221"/>
    <g style="font-style:normal;font-weight:normal;font-size:40px;line-height:125%;font-family:sans-serif;letter-spacing:0px;word-spacing:0px;fill:url(#linearGradient4164);fill-opacity:1;stroke:#252525;stroke-width:1.00002897;stroke-linecap:butt;stroke-linejoin:miter;stroke-miterlimit:4;stroke-dasharray:none;stroke-opacity:1" id="text4149" transform="matrix(9.9083627,0,0,9.9083627,-3042.8115,-4166.4811)">
      <g id="g4158" style="fill:url(#linearGradient4162)" transform="matrix(0.87499998,0,0,0.87499998,41.105022,61.408111)">
        <circle transform="matrix(0.10092485,0,0,0.10092485,309.66441,418.36053)" cx="390" cy="522.36212" r="200" id="path4166" style="color:#252525;clip-rule:nonzero;display:inline;overflow:visible;visibility:visible;opacity:1;isolation:auto;mix-blend-mode:normal;color-interpolation:sRGB;color-interpolation-filters:linearRGB;solid-color:#252525;solid-opacity:1;fill:url(#linearGradient4174);fill-opacity:1;fill-rule:nonzero;stroke:none;stroke-width:13.03499985;stroke-linecap:butt;stroke-linejoin:miter;stroke-miterlimit:4;stroke-dasharray:none;stroke-dashoffset:60.95800018;stroke-opacity:1;color-rendering:auto;image-rendering:auto;shape-rendering:auto;text-rendering:auto;enable-background:accumulate"/>
        <path sodipodi:nodetypes="cccccccccscccsccccccsscccscccccccccsccccccccc" inkscape:connector-curvature="0" id="path4154" d="m 349.48828,456.17383 c -1.38645,0 -2.73659,0.18874 -4.04492,0.5664 l 0,0.002 -0.002,0 c -1.29544,0.37783 -3.03294,1.18055 -4.29039,1.94305 l -0.24024,0.14453 c -0.55586,1.52173 -0.1218,3.46123 0.80554,4.36921 l 0.78321,-0.54102 c 1.23715,-0.85452 2.07113,-1.19202 3.18602,-1.63062 1.12581,-0.43781 2.16433,-0.65039 3.11914,-0.65039 1.32137,0 2.31453,0.32909 3.05664,0.95703 l 0,0.002 0.002,0 c 0.75749,0.63123 1.10938,1.39247 1.10938,2.42773 0,0.54959 -0.1424,1.08719 -0.44532,1.63477 l -0.002,0.002 -0.002,0.004 c -0.28813,0.54167 -0.7851,1.15753 -1.5,1.82226 l -0.006,0.006 -1.76367,1.74219 c -1.19452,1.14244 -2.00307,2.15787 -2.41211,3.10742 -0.40181,0.93277 -0.58789,2.07814 -0.58789,3.43945 l 0,3.50782 c 1.57682,0.77093 3.15365,0.43624 4.73047,0 l 0,-0.5 0,-2.40235 c 0,-0.66747 0.0204,-1.18862 0.0566,-1.55078 0.0365,-0.36529 0.0903,-0.66532 0.15625,-0.89844 0.0843,-0.26181 0.23176,-0.54471 0.45117,-0.8457 l 0.002,-0.004 c 0.231,-0.31139 0.65561,-0.78221 1.25391,-1.38085 l 1.71484,-1.67579 c 1.19539,-1.14226 2.04806,-2.17606 2.55664,-3.13671 l 0.002,0 0,-0.002 c 0.50358,-0.96518 0.75977,-1.99592 0.75977,-3.06445 0,-2.18713 -0.79966,-4.02356 -2.35938,-5.375 -1.54839,-1.3531 -3.60614,-2.01953 -6.08984,-2.01953 z m -3.35156,25.53396 0,0.5 -0.0192,4.23159 c 1.60464,0.50302 3.25791,0.51984 4.96484,0 l 0.0192,-4.73159 c -1.71191,-0.39875 -3.35493,-0.31523 -4.96484,0 z" style="color:#252525;font-style:normal;font-variant:normal;font-weight:normal;font-stretch:normal;font-size:medium;line-height:125%;font-family:sans-serif;text-indent:0;text-align:start;text-decoration:none;text-decoration-line:none;text-decoration-style:solid;text-decoration-color:#252525;letter-spacing:0px;word-spacing:0px;text-transform:none;direction:ltr;block-progression:tb;writing-mode:lr-tb;baseline-shift:baseline;text-anchor:start;white-space:normal;clip-rule:nonzero;display:inline;overflow:visible;visibility:visible;opacity:1;isolation:auto;mix-blend-mode:normal;color-interpolation:sRGB;color-interpolation-filters:linearRGB;solid-color:#252525;solid-opacity:1;fill:#ffffff;fill-opacity:1;fill-rule:nonzero;stroke:none;stroke-width:1.00002897;stroke-linecap:butt;stroke-linejoin:miter;stroke-miterlimit:4;stroke-dasharray:none;stroke-dashoffset:0;stroke-opacity:1;color-rendering:auto;image-rendering:auto;shape-rendering:auto;text-rendering:auto;enable-background:accumulate"/>
      </g>
    </g>
  </g>
</svg>
