<?xml version="1.0" encoding="UTF-8" standalone="no"?>
<!-- Created with Inkscape (http://www.inkscape.org/) -->

<svg
   xmlns:dc="http://purl.org/dc/elements/1.1/"
   xmlns:cc="http://creativecommons.org/ns#"
   xmlns:rdf="http://www.w3.org/1999/02/22-rdf-syntax-ns#"
   xmlns:svg="http://www.w3.org/2000/svg"
   xmlns="http://www.w3.org/2000/svg"
   xmlns:xlink="http://www.w3.org/1999/xlink"
   xmlns:sodipodi="http://sodipodi.sourceforge.net/DTD/sodipodi-0.dtd"
   xmlns:inkscape="http://www.inkscape.org/namespaces/inkscape"
   width="210mm"
   height="297mm"
   viewBox="0 0 744.09448819 1052.3622047"
   id="svg2"
   version="1.1"
   inkscape:version="0.91 r13725"
   inkscape:export-xdpi="4.9499817"
   inkscape:export-ydpi="4.9499817"
   sodipodi:docname="traffic-light.svg"
   inkscape:export-filename="C:\Users\T420\Documents\Arbeit\RRZE\github_\bicons\22x22\status\traffic-light.png">
  <title
     id="title4160">traffic light</title>
  <defs
     id="defs4">
    <linearGradient
       id="linearGradient2224">
      <stop
         id="stop2226"
         offset="0"
         style="stop-color:#7c7c7c;stop-opacity:1;" />
      <stop
         id="stop2228"
         offset="1"
         style="stop-color:#b8b8b8;stop-opacity:1;" />
    </linearGradient>
    <linearGradient
       id="linearGradient15218">
      <stop
         id="stop15220"
         offset="0"
         style="stop-color:#eeeeef;stop-opacity:1;" />
      <stop
         id="stop2736"
         offset="0.59928656"
         style="stop-color:#d3d7cf;stop-opacity:1;" />
      <stop
         id="stop2738"
         offset="0.82758623"
         style="stop-color:#ffffff;stop-opacity:1;" />
      <stop
         id="stop15222"
         offset="1"
         style="stop-color:#d3d7cf;stop-opacity:1;" />
    </linearGradient>
    <pattern
       y="0"
       x="0"
       height="6"
       width="6"
       patternUnits="userSpaceOnUse"
       id="EMFhbasepattern" />
    <pattern
       y="0"
       x="0"
       height="6"
       width="6"
       patternUnits="userSpaceOnUse"
       id="EMFhbasepattern-5" />
    <linearGradient
       inkscape:collect="always"
       xlink:href="#linearGradient4257"
       id="linearGradient4263"
       x1="109.08"
       y1="381.77985"
       x2="290.88"
       y2="0.93403631"
       gradientUnits="userSpaceOnUse" />
    <linearGradient
       inkscape:collect="always"
       id="linearGradient4257">
      <stop
         style="stop-color:#4e505d;stop-opacity:1;"
         offset="0"
         id="stop4259" />
      <stop
         style="stop-color:#7a859c;stop-opacity:1"
         offset="1"
         id="stop4261" />
    </linearGradient>
  </defs>
  <sodipodi:namedview
     id="base"
     pagecolor="#ffffff"
     bordercolor="#666666"
     borderopacity="1.0"
     inkscape:pageopacity="0.0"
     inkscape:pageshadow="2"
     inkscape:zoom="0.5"
     inkscape:cx="392.35089"
     inkscape:cy="594.64558"
     inkscape:document-units="px"
     inkscape:current-layer="layer1"
     showgrid="false"
     showguides="true"
     inkscape:guide-bbox="true"
     inkscape:window-width="1600"
     inkscape:window-height="837"
     inkscape:window-x="-4"
     inkscape:window-y="-4"
     inkscape:window-maximized="1"
     inkscape:snap-bbox="true"
     inkscape:bbox-nodes="true">
    <sodipodi:guide
       position="560,730.00002"
       orientation="0,1"
       id="guide3338" />
    <sodipodi:guide
       position="560,330.00001"
       orientation="0,1"
       id="guide3340" />
    <sodipodi:guide
       position="190,475.00001"
       orientation="1,0"
       id="guide3344" />
    <sodipodi:guide
       position="590,451.00001"
       orientation="1,0"
       id="guide3346" />
    <inkscape:grid
       type="xygrid"
       id="grid3440" />
  </sodipodi:namedview>
  <metadata
     id="metadata7">
    <rdf:RDF>
      <cc:Work
         rdf:about="">
        <dc:format>image/svg+xml</dc:format>
        <dc:type
           rdf:resource="http://purl.org/dc/dcmitype/StillImage" />
        <dc:title>traffic light</dc:title>
        <dc:date>June 2015</dc:date>
        <dc:creator>
          <cc:Agent>
            <dc:title>Johannes Hechler</dc:title>
          </cc:Agent>
        </dc:creator>
        <dc:rights>
          <cc:Agent>
            <dc:title>Johannes Hechler</dc:title>
          </cc:Agent>
        </dc:rights>
        <dc:publisher>
          <cc:Agent>
            <dc:title>RRZE</dc:title>
          </cc:Agent>
        </dc:publisher>
        <dc:contributor>
          <cc:Agent>
            <dc:title>Ute Weber, Hendrik Eggers</dc:title>
          </cc:Agent>
        </dc:contributor>
      </cc:Work>
    </rdf:RDF>
  </metadata>
  <g
     inkscape:label="Ebene 1"
     inkscape:groupmode="layer"
     id="layer1">
    <g
       transform="translate(189.99853,-329.99994)"
       id="g4267">
      <path
         inkscape:connector-curvature="0"
         id="rect4239"
         transform="translate(0,652.36214)"
         d="m 115.90039,0 c -13.85,0 -24.999999,11.15 -24.999999,25 l 0,350 c 0,13.85 11.149999,25 24.999999,25 l 168.16016,0 c 13.85,0 25,-11.15 25,-25 l 0,-350 c 0,-13.85 -11.15,-25 -25,-25 L 115.90039,0 Z m 84.08008,18.359375 c 39.84958,6.9e-4 72.53983,32.691446 72.53906,72.541016 -3.6e-4,21.690119 -9.73123,41.210159 -24.98437,54.541019 15.25269,13.33138 24.98479,32.84887 24.98437,54.53906 -3.6e-4,21.68965 -9.7318,41.20823 -24.98437,54.53906 15.25326,13.3314 24.98479,32.85036 24.98437,54.54102 -6.6e-4,39.84861 -32.69047,72.53836 -72.53906,72.53906 -39.84958,7e-4 -72.54035,-32.68945 -72.54102,-72.53906 -4.1e-4,-21.69073 9.73109,-41.20964 24.98438,-54.54102 -15.25254,-13.33081 -24.98401,-32.84939 -24.98438,-54.53906 -4.1e-4,-21.69073 9.73109,-41.20964 24.98438,-54.54102 -15.25254,-13.33081 -24.98401,-32.84939 -24.98438,-54.539059 -7.6e-4,-39.85057 32.69044,-72.541756 72.54102,-72.541016 z m 0,36 c -20.39426,-3.8e-4 -36.54141,16.146786 -36.54102,36.541016 3.4e-4,20.393699 16.14729,36.539439 36.54102,36.539059 20.39319,-3.5e-4 36.53872,-16.1459 36.53906,-36.539059 3.9e-4,-20.39369 -16.14534,-36.540656 -36.53906,-36.541016 z m 0,109.080075 c -20.39426,-3.8e-4 -36.54141,16.14679 -36.54102,36.54102 3.4e-4,20.39369 16.14729,36.53944 36.54102,36.53906 20.39319,-3.5e-4 36.53872,-16.1459 36.53906,-36.53906 3.9e-4,-20.3937 -16.14534,-36.54067 -36.53906,-36.54102 z m 0,109.08008 c -20.39426,-3.8e-4 -36.54141,16.14678 -36.54102,36.54102 3.4e-4,20.39369 16.14729,36.53944 36.54102,36.53906 20.39319,-3.5e-4 36.53872,-16.1459 36.53906,-36.53906 3.9e-4,-20.3937 -16.14534,-36.54067 -36.53906,-36.54102 z"
         style="fill:url(#linearGradient4263);fill-opacity:1;stroke:none;stroke-width:50;stroke-miterlimit:4;stroke-dasharray:none" />
      <ellipse
         ry="54.53997"
         rx="54.540001"
         cy="743.26208"
         cx="199.98"
         id="path4241"
         style="fill:#d9463a;stroke:none;stroke-width:50;stroke-miterlimit:4;stroke-dasharray:none" />
      <ellipse
         style="fill:#fbb516;stroke:none;stroke-width:50;stroke-miterlimit:4;stroke-dasharray:none"
         id="ellipse4243"
         cx="199.98"
         cy="852.34204"
         rx="54.540001"
         ry="54.53997" />
      <ellipse
         ry="54.53997"
         rx="54.540001"
         cy="961.422"
         cx="199.98"
         id="ellipse4245"
         style="fill:#99b000;stroke:none;stroke-width:50;stroke-miterlimit:4;stroke-dasharray:none" />
      <rect
         ry="25"
         y="652.36212"
         x="0"
         height="400"
         width="400.00146"
         id="rect4265"
         style="fill:none;stroke:none;stroke-width:36;stroke-miterlimit:4;stroke-dasharray:none" />
    </g>
  </g>
</svg>
